<svg width="48" height="48" viewBox="0 0 48 48" xmlns="http://www.w3.org/2000/svg"><path d="M 12.059999999999999 24.72 C 11.82 24.6, 11.775 24.810000000000002, 11.58 24.48 C 11.43 23.939999999999998, 11.399999999999999 24.18, 11.28 23.4 C 11.190000000000001 22.38, 11.145000000000001 22.29, 11.100000000000001 21.36 C 11.100000000000001 20.52, 11.100000000000001 20.55, 11.100000000000001 19.68 C 11.100000000000001 18.78, 11.055000000000001 18.689999999999998, 11.100000000000001 17.88 C 11.190000000000001 17.16, 11.145 17.130000000000003, 11.28 16.44 C 11.46 15.780000000000001, 11.4 15.780000000000001, 11.64 15.120000000000001 C 11.940000000000001 14.46, 12.075000000000001 14.174999999999999, 12.24 13.799999999999999 C 12.27 13.71, 11.999999999999998 13.8, 12.299999999999999 13.620000000000001 C 12.870000000000001 13.350000000000001, 12.930000000000001 13.215000000000002, 13.440000000000001 13.080000000000002 C 13.89 13.080000000000002, 13.89 13.080000000000002, 14.34 13.080000000000002 C 14.79 13.080000000000002, 14.850000000000001 13.035000000000002, 15.24 13.080000000000002 C 15.57 13.170000000000002, 15.599999999999998 12.9, 15.899999999999999 13.26 C 16.17 13.89, 16.275000000000002 13.934999999999999, 16.44 14.52 C 16.5 15.06, 16.424999999999997 14.835, 16.56 15.600000000000001 C 16.77 16.590000000000003, 16.785 16.605000000000004, 16.98 17.580000000000002 C 17.16 18.54, 17.25 18.990000000000002, 17.34 19.5 C 17.34 19.560000000000002, 17.34 19.59, 17.34 19.62 C 17.34 19.62, 17.31 19.71, 17.34 19.62 C 17.4 19.439999999999998, 17.34 19.784999999999997, 17.46 19.259999999999998 C 17.64 18.39, 17.7 18.33, 17.82 17.52 C 17.880000000000003 16.77, 17.775000000000002 16.724999999999998, 17.94 16.02 C 18.21 15.36, 18.285 15.15, 18.48 14.700000000000001 C 18.6 14.46, 18.33 14.505, 18.72 14.22 C 19.38 13.89, 18.96 13.829999999999998, 20.04 13.559999999999999 C 21.54 13.35, 21.75 13.32, 23.04 13.14 C 24.12 12.99, 24.315000000000005 12.945, 25.200000000000003 12.84 C 25.89 12.780000000000001, 25.83 12.75, 26.58 12.72 C 27.39 12.72, 27.645000000000003 12.705000000000002, 28.200000000000003 12.72 C 28.5 12.75, 28.559999999999995 12.719999999999999, 28.799999999999997 12.78 C 28.98 12.870000000000001, 29.025000000000006 12.9, 29.160000000000004 12.96 L 29.339999999999996 13.02" fill="none" stroke="black" stroke-width="2"></path><path d="M 20.04 5.58 C 19.83 5.91, 19.725 5.745, 19.62 6.24 C 19.62 6.9, 19.365000000000002 7.125, 19.62 7.5600000000000005 C 20.130000000000003 7.7700000000000005, 20.01 8.145000000000001, 20.64 7.98 C 21.39 7.4399999999999995, 21.66 7.364999999999999, 22.14 6.8999999999999995 C 22.35 6.51, 22.619999999999997 6.78, 22.56 6.12 C 22.229999999999997 5.1899999999999995, 22.5 4.755, 21.9 4.26 C 21.03 4.199999999999999, 20.955 3.8999999999999995, 20.16 4.14 C 19.439999999999998 4.68, 19.14 4.68, 18.72 5.22 C 18.6 5.76, 18.495 5.790000000000001, 18.48 6.300000000000001 C 18.57 6.78, 18.165 6.93, 18.66 7.26 C 19.560000000000002 7.4399999999999995, 19.59 7.77, 20.46 7.62 C 21.3 7.140000000000001, 21.630000000000003 7.035, 22.14 6.66 C 22.32 6.390000000000001, 22.44 6.390000000000001, 22.5 6.12 C 22.439999999999998 5.85, 22.95 5.67, 22.38 5.58 C 21.299999999999997 5.67, 20.835 5.67, 20.22 5.76 C 20.07 5.85, 19.994999999999997 5.895, 19.919999999999998 5.9399999999999995 L 19.919999999999998 5.9399999999999995" fill="none" stroke="black" stroke-width="2"></path><path d="M 22.38 13.02 C 22.53 13.8, 22.515 13.530000000000001, 22.68 14.580000000000002 C 22.86 15.9, 22.95 15.75, 23.04 17.22 C 23.04 18.84, 23.13 19.17, 23.04 20.46 C 22.86 21.42, 23.04 21.134999999999998, 22.68 22.38 C 22.14 23.91, 22.275000000000002 23.745, 21.6 25.44 C 20.79 27.300000000000004, 20.97 27.300000000000004, 19.98 29.160000000000004 C 18.810000000000002 31.020000000000003, 18.54 31.440000000000005, 17.64 32.88 C 17.009999999999998 33.900000000000006, 17.025 33.915, 16.38 34.92 C 15.719999999999999 35.910000000000004, 15.54 36.22500000000001, 15.059999999999999 36.900000000000006 C 14.76 37.260000000000005, 14.61 37.44, 14.46 37.62 L 14.46 37.62" fill="none" stroke="black" stroke-width="2"></path><path d="M 26.82 27.42 C 26.55 28.59, 26.895000000000003 28.034999999999997, 26.28 29.759999999999998 C 25.32 32.04, 25.275 32.295, 24.36 34.32 C 23.490000000000002 36.09, 23.325000000000003 36.6, 22.62 37.86 C 22.08 38.61, 22.2 38.504999999999995, 21.54 39.36 C 20.759999999999998 40.32, 20.88 40.305, 19.98 41.28 C 18.96 42.269999999999996, 18.78 42.51, 17.94 43.26 C 17.28 43.769999999999996, 17.025000000000002 43.980000000000004, 16.62 44.28 L 16.32 44.46" fill="none" stroke="black" stroke-width="2"></path></svg>