<svg width="48" height="48" viewBox="0 0 48 48" xmlns="http://www.w3.org/2000/svg"><path d="M 12 12.72 C 12.39 12.629999999999999, 11.805 12.735, 12.78 12.54 C 14.34 12.239999999999998, 14.309999999999999 12.225, 15.899999999999999 11.94 C 17.52 11.669999999999998, 17.7 11.624999999999998, 19.14 11.399999999999999 C 20.4 11.219999999999999, 20.775 11.13, 21.66 11.040000000000001 C 22.17 11.040000000000001, 22.035 11.040000000000001, 22.68 11.040000000000001 C 23.46 11.040000000000001, 23.655 11.025, 24.240000000000002 11.040000000000001 C 24.630000000000003 11.07, 24.585 10.950000000000001, 25.02 11.100000000000001 C 25.5 11.370000000000001, 25.575 11.430000000000001, 25.98 11.64 C 26.310000000000002 11.79, 26.25 11.67, 26.64 11.94 C 27.09 12.33, 27.15 12.27, 27.54 12.72 C 27.87 13.23, 27.900000000000002 13.125, 28.200000000000003 13.74 C 28.470000000000002 14.46, 28.605000000000004 14.34, 28.740000000000002 15.18 C 28.740000000000002 16.14, 28.740000000000002 16.200000000000003, 28.740000000000002 17.1 C 28.740000000000002 17.94, 28.740000000000002 17.925, 28.740000000000002 18.78 C 28.740000000000002 19.65, 28.740000000000002 19.89, 28.740000000000002 20.52 C 28.740000000000002 20.909999999999997, 28.740000000000002 21.104999999999997, 28.740000000000002 21.299999999999997 C 28.740000000000002 21.299999999999997, 28.740000000000002 21.299999999999997, 28.740000000000002 21.299999999999997 C 28.740000000000002 21.299999999999997, 28.785000000000004 21.239999999999995, 28.740000000000002 21.299999999999997 L 28.56 21.54" fill="none" stroke="black" stroke-width="2"></path><path d="M 19.740000000000002 4.26 C 19.29 3.7199999999999998, 19.23 3.375, 18.84 3.18 C 18.509999999999998 3.33, 18.465 3.0749999999999993, 18.18 3.4799999999999995 C 17.94 4.140000000000001, 17.730000000000004 4.125000000000001, 17.700000000000003 4.800000000000001 C 17.880000000000003 5.49, 17.775 5.775, 18.06 6.18 C 18.45 6.3, 18.48 6.51, 18.84 6.42 C 19.17 6.12, 19.2 6.390000000000001, 19.5 5.82 C 19.77 4.98, 19.905 4.635, 20.04 4.14 C 20.04 3.9899999999999998, 20.279999999999998 3.945, 20.04 3.84 C 19.560000000000002 3.78, 19.410000000000004 3.75, 19.080000000000002 3.7199999999999998 C 18.9 3.7199999999999998, 18.96 3.2699999999999996, 18.72 3.7199999999999998 C 18.42 4.62, 18.27 4.995, 18.12 5.5200000000000005 C 18.12 5.67, 17.955000000000002 5.715000000000001, 18.12 5.82 C 18.450000000000003 5.88, 18.465000000000003 6.074999999999999, 18.78 5.9399999999999995 C 19.08 5.609999999999999, 19.185 5.535, 19.38 5.28 C 19.47 5.1, 19.515 5.025, 19.56 4.92 C 19.56 4.890000000000001, 19.56 4.875, 19.56 4.86 L 19.56 4.86" fill="none" stroke="black" stroke-width="2"></path><path d="M 17.52 11.52 C 17.490000000000002 12.42, 17.475 12.375, 17.46 13.32 C 17.46 14.309999999999999, 17.46 14.16, 17.46 15.299999999999999 C 17.46 16.59, 17.46 16.56, 17.46 17.88 C 17.46 19.23, 17.28 19.17, 17.46 20.580000000000002 C 17.82 22.05, 17.655 21.975, 18.18 23.52 C 18.869999999999997 25.14, 18.99 25.56, 19.56 26.759999999999998 C 20.009999999999998 27.54, 19.815 27.48, 20.46 28.32 C 21.3 29.22, 21.255000000000003 29.444999999999997, 22.14 30.119999999999997 C 23.07 30.57, 22.965 30.705, 24 31.02 C 25.14 31.200000000000003, 25.305 31.245000000000005, 26.28 31.380000000000003 C 27.090000000000003 31.47, 27.270000000000003 31.47, 27.900000000000002 31.56 C 28.35 31.65, 28.409999999999997 31.665000000000003, 28.799999999999997 31.740000000000002 C 29.13 31.8, 29.25 31.83, 29.46 31.86 C 29.55 31.86, 29.595 31.86, 29.64 31.86 C 29.64 31.86, 29.64 31.86, 29.64 31.86 C 29.64 31.86, 29.64 31.86, 29.64 31.86 C 29.64 31.86, 29.61 31.83, 29.64 31.86 C 29.7 31.92, 29.865 31.8, 29.759999999999998 31.98 C 29.49 32.28, 29.714999999999996 32.295, 29.22 32.58 C 28.5 32.849999999999994, 28.740000000000002 32.76, 27.78 33.12 C 26.580000000000002 33.56999999999999, 26.310000000000002 33.614999999999995, 25.380000000000003 34.019999999999996 C 24.72 34.379999999999995, 24.765 34.215, 24.06 34.74 C 23.31 35.43, 23.25 35.474999999999994, 22.56 36.12 C 21.93 36.72, 22.034999999999997 36.254999999999995, 21.299999999999997 37.32 C 20.46 38.85, 20.205 39.075, 19.62 40.38 C 19.29 41.46, 19.23 41.55, 18.96 42.54 C 18.75 43.44, 18.645 43.49999999999999, 18.54 44.339999999999996 C 18.54 45.120000000000005, 18.525 45.39, 18.54 45.900000000000006 C 18.57 46.14, 18.585 46.260000000000005, 18.6 46.38 L 18.6 46.38" fill="none" stroke="black" stroke-width="2"></path><path d="M 12.36 32.400000000000006 C 13.8 33.21, 13.844999999999999 33.12, 15.24 34.019999999999996 C 16.59 35.01, 16.875 35.16, 17.94 36 C 18.72 36.69, 18.855 36.78, 19.5 37.38 C 20.009999999999998 37.89, 20.22 38.10000000000001, 20.52 38.400000000000006 C 20.61 38.49, 20.655 38.535, 20.700000000000003 38.58 C 20.700000000000003 38.58, 20.700000000000003 38.58, 20.700000000000003 38.58 L 20.700000000000003 38.58" fill="none" stroke="black" stroke-width="2"></path></svg>