<svg width="48" height="48" viewBox="0 0 48 48" xmlns="http://www.w3.org/2000/svg"><path d="M 16.02 11.28 C 17.04 11.190000000000001, 16.904999999999998 11.145000000000001, 18.06 11.100000000000001 C 19.35 11.100000000000001, 19.665 11.100000000000001, 20.64 11.100000000000001 C 21.3 11.100000000000001, 21.165 11.100000000000001, 21.96 11.100000000000001 C 22.89 11.100000000000001, 22.995 11.100000000000001, 23.82 11.100000000000001 C 24.54 11.100000000000001, 24.75 11.040000000000003, 25.259999999999998 11.100000000000001 C 25.56 11.22, 25.53 11.16, 25.86 11.34 C 26.22 11.58, 26.235 11.504999999999999, 26.58 11.82 C 26.91 12.21, 26.91 12.120000000000001, 27.240000000000002 12.600000000000001 C 27.57 13.170000000000002, 27.690000000000005 13.065000000000001, 27.900000000000002 13.74 C 27.990000000000002 14.52, 27.99 14.354999999999999, 28.08 15.299999999999999 C 28.169999999999998 16.41, 28.214999999999996 16.59, 28.259999999999998 17.52 C 28.259999999999998 18.27, 28.259999999999998 18.645, 28.259999999999998 19.02 C 28.259999999999998 19.02, 28.259999999999998 18.99, 28.259999999999998 19.02 L 28.259999999999998 19.14" fill="none" stroke="black" stroke-width="2"></path><path d="M 20.88 3.96 C 20.58 4.380000000000001, 20.445 4.32, 20.28 4.800000000000001 C 20.25 5.34, 20.04 5.535, 20.22 5.88 C 20.61 6.029999999999999, 20.564999999999998 6.39, 21 6.18 C 21.48 5.609999999999999, 21.675 5.445, 21.96 5.04 C 22.05 4.800000000000001, 22.185000000000002 4.920000000000001, 22.14 4.5600000000000005 C 21.96 4.08, 22.005000000000003 3.945, 21.78 3.5999999999999996 C 21.51 3.3899999999999997, 21.57 3.1950000000000003, 21.240000000000002 3.18 C 20.85 3.3600000000000003, 20.655 3.15, 20.46 3.54 C 20.46 4.140000000000001, 20.37 4.335, 20.46 4.74 C 20.64 4.95, 20.625 5.04, 20.82 5.16 C 21.03 5.1899999999999995, 21.120000000000005 5.31, 21.240000000000002 5.22 C 21.27 5.01, 21.284999999999997 4.905, 21.299999999999997 4.800000000000001 L 21.299999999999997 4.800000000000001" fill="none" stroke="black" stroke-width="2"></path><path d="M 20.82 10.26 C 20.939999999999998 10.559999999999999, 20.955 10.424999999999999, 21.06 10.86 C 21.15 11.43, 21.12 11.145, 21.240000000000002 12 C 21.39 13.14, 21.314999999999998 12.765, 21.54 14.28 C 21.84 16.169999999999998, 21.93 16.229999999999997, 22.14 18.06 C 22.259999999999998 19.83, 22.32 20.025000000000002, 22.38 21.6 C 22.38 22.98, 22.38 23.205, 22.38 24.36 C 22.38 25.29, 22.455 25.064999999999998, 22.38 26.22 C 22.23 27.6, 22.35 27.78, 22.080000000000002 28.98 C 21.689999999999998 30, 21.884999999999998 29.94, 21.299999999999997 31.02 C 20.52 32.16, 20.595000000000002 32.339999999999996, 19.740000000000002 33.3 C 18.810000000000002 34.08, 18.345 34.47, 17.88 34.86 C 17.88 34.86, 17.88 34.86, 17.88 34.86 L 17.88 34.86" fill="none" stroke="black" stroke-width="2"></path><path d="M 27.06 30.299999999999997 C 26.97 31.29, 27.000000000000004 31.155, 26.880000000000003 32.28 C 26.73 33.54, 26.835 33.495, 26.58 34.8 C 26.22 36.15, 26.339999999999996 36.21, 25.86 37.5 C 25.26 38.730000000000004, 25.425000000000004 38.88, 24.660000000000004 39.96 C 23.73 40.89, 23.564999999999998 41.22, 22.799999999999997 41.82 C 22.2 42.09, 22.305 42.135, 21.6 42.36 L 19.98 42.72" fill="none" stroke="black" stroke-width="2"></path></svg>