<svg width="48" height="48" viewBox="0 0 48 48" xmlns="http://www.w3.org/2000/svg"><path d="M 21.06 4.62 C 20.85 5.01, 20.61 4.800000000000001, 20.64 5.4 C 20.91 6.21, 20.58 6.51, 21.18 7.02 C 22.11 7.2299999999999995, 22.229999999999997 7.424999999999999, 23.04 7.4399999999999995 C 23.73 7.26, 23.880000000000003 7.455, 24.42 7.08 C 24.810000000000002 6.51, 25.260000000000005 6.465, 25.200000000000003 5.9399999999999995 C 24.69 5.459999999999999, 24.825 5.324999999999999, 24.18 4.9799999999999995 C 23.4 4.77, 23.61 4.665, 22.62 4.5600000000000005 C 21.42 4.5600000000000005, 20.97 4.3500000000000005, 20.22 4.5600000000000005 C 19.92 4.98, 19.68 4.905, 19.62 5.4 C 19.8 5.970000000000001, 19.380000000000003 6.000000000000001, 19.98 6.540000000000001 C 21 7.050000000000001, 20.955 7.545000000000001, 22.02 7.5600000000000005 C 23.130000000000003 7.08, 23.610000000000003 7.050000000000001, 24.240000000000002 6.6000000000000005 C 24.39 6.18, 24.465 6.165, 24.54 5.76 C 24.54 5.369999999999999, 24.869999999999997 5.3549999999999995, 24.54 4.9799999999999995 C 23.88 4.619999999999999, 23.625 4.4399999999999995, 23.22 4.26 C 23.07 4.26, 23.159999999999997 4.095, 22.919999999999998 4.26 C 22.589999999999996 4.59, 22.394999999999996 4.515, 22.259999999999998 4.92 C 22.32 5.4, 22.334999999999997 5.609999999999999, 22.38 5.88 C 22.41 5.9399999999999995, 22.425 5.97, 22.44 6 C 22.44 6, 22.425 5.97, 22.44 6 C 22.47 6.0600000000000005, 22.485 6.27, 22.5 6.12 C 22.5 5.76, 22.5 5.61, 22.5 5.4 C 22.5 5.34, 22.5 5.355, 22.5 5.28 C 22.5 5.1899999999999995, 22.485 5.205, 22.5 5.1 C 22.53 4.98, 22.38 4.905, 22.56 4.86 C 22.89 4.890000000000001, 22.95 4.8, 23.22 4.92 C 23.43 5.13, 23.490000000000002 5.115, 23.64 5.34 C 23.73 5.58, 23.775 5.7, 23.82 5.82 L 23.82 5.82" fill="none" stroke="black" stroke-width="2"></path><path d="M 22.38 10.74 C 22.53 11.399999999999999, 22.56 10.905, 22.68 12.059999999999999 C 22.77 13.709999999999999, 22.77 13.724999999999998, 22.86 15.36 C 22.95 16.98, 22.994999999999997 17.055, 23.04 18.6 C 23.04 20.07, 22.994999999999997 19.935, 23.04 21.54 C 23.13 23.28, 23.174999999999997 23.235, 23.22 25.02 C 23.22 26.85, 23.325 27.045, 23.22 28.68 C 23.009999999999998 30.119999999999997, 23.009999999999998 30.419999999999998, 22.799999999999997 31.56 C 22.589999999999996 32.4, 22.784999999999997 32.31, 22.38 33.24 C 21.78 34.260000000000005, 21.96 34.230000000000004, 21.18 35.28 C 20.22 36.36, 20.144999999999996 36.435, 19.259999999999998 37.44 C 18.45 38.37, 18.165 38.699999999999996, 17.64 39.3 C 17.4 39.56999999999999, 17.37 39.644999999999996, 17.16 39.839999999999996 C 16.979999999999997 39.959999999999994, 16.964999999999996 39.974999999999994, 16.799999999999997 40.08 L 16.5 40.26" fill="none" stroke="black" stroke-width="2"></path></svg>