<svg width="48" height="48" viewBox="0 0 48 48" xmlns="http://www.w3.org/2000/svg"><path d="M 15.84 40.56 C 14.97 38.730000000000004, 15.015 39.465, 14.100000000000001 36.900000000000006 C 13.14 33.6, 12.915 32.955, 12.18 30.299999999999997 C 11.67 28.29, 11.67 28.77, 11.16 26.28 C 10.65 23.310000000000002, 10.440000000000001 22.32, 10.14 20.34 C 10.05 19.35, 10.004999999999999 19.29, 9.959999999999999 18.36 C 9.959999999999999 17.490000000000002, 9.915 17.505000000000003, 9.959999999999999 16.62 C 10.05 15.72, 9.915000000000001 15.57, 10.14 14.82 C 10.5 14.22, 10.485 13.98, 10.86 13.620000000000001 C 11.25 13.5, 11.07 13.35, 11.64 13.379999999999999 C 12.39 13.559999999999999, 12.510000000000002 13.485, 13.14 13.74 C 13.65 14.07, 13.665 13.979999999999999, 14.16 14.399999999999999 C 14.64 14.909999999999998, 14.61 14.459999999999997, 15.120000000000001 15.419999999999998 C 15.660000000000002 16.83, 15.840000000000003 17.295, 16.200000000000003 18.240000000000002 C 16.380000000000003 18.720000000000002, 16.47 18.96, 16.56 19.200000000000003 C 16.56 19.200000000000003, 16.56 19.200000000000003, 16.56 19.200000000000003 C 16.56 19.200000000000003, 16.604999999999997 19.410000000000004, 16.56 19.200000000000003 C 16.47 18.78, 16.65 19.335, 16.38 18.36 C 15.93 16.83, 15.765 16.619999999999997, 15.48 15.299999999999999 C 15.36 14.190000000000001, 15.3 13.995000000000001, 15.24 13.080000000000002 C 15.24 12.360000000000001, 15.105 12.345, 15.24 11.64 C 15.51 10.95, 15.254999999999999 10.86, 15.78 10.26 C 16.56 9.75, 16.035 9.57, 17.34 9.24 C 19.17 9.09, 19.155 8.985, 21 8.94 C 22.86 9, 23.415 8.940000000000001, 24.72 9.06 C 25.47 9.24, 25.845 9.33, 26.22 9.42 L 26.22 9.42" fill="none" stroke="black" stroke-width="2"></path><path d="M 15.299999999999999 2.2199999999999998 C 14.61 2.76, 14.309999999999999 2.6100000000000003, 13.919999999999998 3.3000000000000003 C 13.829999999999998 4.14, 13.455 4.289999999999999, 13.74 4.9799999999999995 C 14.399999999999999 5.52, 14.28 5.865, 15.059999999999999 6.0600000000000005 C 15.959999999999999 5.91, 16.229999999999997 6.225, 16.86 5.76 C 17.22 4.9799999999999995, 17.445 4.829999999999999, 17.580000000000002 4.199999999999999 C 17.490000000000002 3.7199999999999998, 17.849999999999998 3.675, 17.4 3.24 C 16.59 2.85, 16.38 2.6550000000000002, 15.78 2.46 C 15.39 2.46, 15.51 2.085, 15 2.46 C 14.370000000000001 3.21, 13.92 3.285, 13.74 3.96 C 14.01 4.5600000000000005, 13.844999999999999 4.785, 14.28 5.16 C 14.879999999999999 5.3100000000000005, 15.105 5.385, 15.48 5.46 C 15.629999999999999 5.46, 15.599999999999998 5.805, 15.78 5.46 C 15.990000000000002 4.77, 16.245 4.605, 16.200000000000003 4.08 C 15.900000000000002 3.72, 15.990000000000002 3.4350000000000005, 15.600000000000001 3.3600000000000003 C 15.120000000000001 3.5700000000000003, 14.925 3.5250000000000004, 14.64 3.7800000000000002 C 14.55 4.08, 14.505 4.17, 14.46 4.38 L 14.46 4.62" fill="none" stroke="black" stroke-width="2"></path><path d="M 11.22 41.28 C 11.879999999999999 41.07, 11.52 41.025, 12.54 40.86 C 13.919999999999998 40.739999999999995, 13.995 40.709999999999994, 15.299999999999999 40.62 C 16.529999999999998 40.56, 16.29 40.575, 17.759999999999998 40.5 C 19.47 40.41, 19.77 40.365, 21.18 40.32 C 22.29 40.32, 22.724999999999998 40.32, 23.4 40.32 C 23.64 40.32, 23.715 40.32, 23.88 40.32 L 24.06 40.32" fill="none" stroke="black" stroke-width="2"></path><path d="M 10.98 45.3 C 11.76 45.3, 11.129999999999999 45.254999999999995, 12.54 45.3 C 14.58 45.39, 14.64 45.375, 16.62 45.480000000000004 C 18.54 45.6, 18.795 45.66, 20.46 45.72 C 21.87 45.72, 22.200000000000003 45.735, 23.28 45.72 C 24.03 45.69, 24.090000000000003 45.675000000000004, 24.78 45.660000000000004 C 25.41 45.660000000000004, 25.605 45.675000000000004, 26.04 45.660000000000004 L 26.52 45.599999999999994" fill="none" stroke="black" stroke-width="2"></path></svg>