<svg width="48" height="48" viewBox="0 0 48 48" xmlns="http://www.w3.org/2000/svg"><path d="M 10.8 31.380000000000003 C 11.04 31.53, 10.785 31.515, 11.28 31.68 C 12.03 31.86, 11.969999999999999 31.95, 12.78 32.04 C 13.649999999999999 32.04, 13.74 32.114999999999995, 14.52 32.04 C 15.209999999999999 31.89, 14.879999999999999 32.085, 15.899999999999999 31.740000000000002 C 17.25 31.200000000000003, 17.595000000000002 31.095000000000006, 18.6 30.660000000000004 C 19.259999999999998 30.330000000000002, 19.38 30.42, 19.919999999999998 30 C 20.339999999999996 29.490000000000002, 20.324999999999996 29.715, 20.759999999999998 28.98 C 21.21 28.02, 21.375 27.884999999999998, 21.66 27.06 C 21.78 26.369999999999997, 21.84 26.145, 21.9 25.68 C 21.9 25.44, 21.9 25.32, 21.9 25.200000000000003 C 21.9 25.200000000000003, 21.9 25.200000000000003, 21.9 25.200000000000003 C 21.9 25.200000000000003, 21.9 25.140000000000004, 21.9 25.200000000000003 C 21.9 25.32, 21.9 25.110000000000003, 21.9 25.44 C 21.9 25.98, 21.945 25.815, 21.9 26.52 C 21.81 27.39, 21.765 27.494999999999997, 21.72 28.259999999999998 C 21.72 28.919999999999998, 21.585 29.009999999999998, 21.72 29.58 C 21.99 30.06, 21.915 30.134999999999998, 22.259999999999998 30.54 C 22.68 30.87, 22.77 30.990000000000002, 23.1 31.200000000000003 C 23.340000000000003 31.290000000000003, 23.265 31.305000000000003, 23.580000000000002 31.380000000000003 C 23.97 31.44, 23.805 31.44, 24.36 31.5 C 25.08 31.56, 25.214999999999996 31.529999999999998, 25.799999999999997 31.619999999999997 C 26.25 31.74, 26.205000000000002 31.485, 26.700000000000003 31.86 C 27.240000000000002 32.489999999999995, 27.435000000000002 32.565, 27.78 33.12 C 27.93 33.599999999999994, 28.005 33.495, 28.08 34.08 C 28.08 34.769999999999996, 28.08 34.815, 28.08 35.46 C 28.08 36.06, 28.365 36.105000000000004, 28.08 36.660000000000004 C 27.509999999999998 37.17, 27.705000000000002 37.185, 26.94 37.68 C 25.98 38.16, 26.1 38.25, 25.02 38.64 C 23.82 38.94, 23.7 39.09, 22.62 39.24 C 21.660000000000004 39.24, 21.510000000000005 39.39, 20.700000000000003 39.24 C 20.04 38.94, 19.71 38.79, 19.38 38.64 L 19.38 38.64" fill="none" stroke="black" stroke-width="2"></path><path d="M 25.08 31.98 C 25.32 31.950000000000003, 25.095 32.085, 25.56 31.92 C 26.25 31.62, 26.235 31.86, 26.94 31.32 C 27.660000000000004 30.54, 27.810000000000002 30.72, 28.380000000000003 29.759999999999998 C 28.8 28.619999999999997, 28.965 28.59, 29.22 27.48 C 29.310000000000002 26.4, 29.520000000000003 27.27, 29.400000000000002 25.32 C 29.07 22.5, 29.265000000000004 22.755, 28.740000000000002 19.68 C 28.02 16.35, 28.095 15.93, 27.299999999999997 13.02 C 26.43 10.530000000000001, 26.205 9.795000000000002, 25.56 8.040000000000001 C 25.14 7.0200000000000005, 25.154999999999998 6.825, 24.72 6 C 24.27 5.37, 24.09 5.085, 23.82 4.74 C 23.73 4.68, 23.76 4.74, 23.64 4.62 C 23.490000000000002 4.4399999999999995, 23.415 4.35, 23.34 4.26 C 23.34 4.26, 23.34 4.26, 23.34 4.26 L 23.34 4.26" fill="none" stroke="black" stroke-width="2"></path><path d="M 14.580000000000002 16.56 C 14.580000000000002 17.189999999999998, 14.415000000000003 17.4, 14.580000000000002 17.82 C 14.91 18.03, 14.790000000000001 18.225, 15.24 18.240000000000002 C 15.809999999999999 18.060000000000002, 16.02 18.495, 16.38 17.88 C 16.53 16.83, 16.605 16.544999999999998, 16.68 15.78 C 16.68 15.3, 16.875 15.03, 16.68 14.82 C 16.29 14.88, 16.275 14.625, 15.899999999999999 14.940000000000001 C 15.54 15.510000000000002, 15.344999999999999 15.465000000000003, 15.18 16.080000000000002 C 15.21 16.740000000000002, 14.895 16.875, 15.24 17.4 C 15.899999999999999 17.79, 16.02 18.03, 16.56 18.18 C 16.979999999999997 18.09, 17.174999999999997 18.33, 17.4 18 C 17.43 17.43, 17.535 17.61, 17.46 16.86 C 17.28 15.93, 17.445 15.555, 17.1 15 C 16.590000000000003 14.82, 16.725 14.415000000000001, 16.080000000000002 14.64 C 15.3 15.27, 14.91 15.299999999999999, 14.52 15.899999999999999 C 14.52 16.47, 14.309999999999999 16.544999999999998, 14.52 17.04 C 14.94 17.46, 15.03 17.685, 15.36 17.88 C 15.6 17.85, 15.719999999999999 17.88, 15.84 17.82 L 15.84 17.64" fill="none" stroke="black" stroke-width="2"></path></svg>