<svg width="48" height="48" viewBox="0 0 48 48" xmlns="http://www.w3.org/2000/svg"><path d="M 13.919999999999998 5.58 C 13.709999999999999 6.57, 13.739999999999998 5.880000000000001, 13.5 7.5600000000000005 C 13.23 9.93, 13.14 10.139999999999999, 12.96 12.299999999999999 C 12.870000000000001 14.25, 12.825 14.550000000000002, 12.78 16.200000000000003 C 12.78 17.55, 12.645 17.61, 12.78 18.9 C 13.05 20.13, 13.065000000000001 20.369999999999997, 13.32 21.36 C 13.559999999999999 22.11, 13.514999999999999 22.155, 13.799999999999999 22.86 C 14.129999999999999 23.52, 14.13 23.685000000000002, 14.46 24.18 C 14.790000000000001 24.509999999999998, 14.610000000000001 24.389999999999997, 15.120000000000001 24.839999999999996 C 15.81 25.409999999999997, 15.675 25.575, 16.5 25.98 C 17.46 26.22, 17.325 26.25, 18.419999999999998 26.46 C 19.65 26.64, 19.5 26.73, 20.88 26.82 C 22.41 26.82, 22.695 26.82, 23.94 26.82 C 24.9 26.82, 24.794999999999998 26.94, 25.86 26.82 C 27.03 26.58, 27.150000000000002 26.549999999999997, 28.200000000000003 26.339999999999996 C 29.130000000000003 26.159999999999997, 29.595 26.07, 30.06 25.98 C 30.06 25.98, 30.06 25.98, 30.06 25.98 L 30.06 25.98" fill="none" stroke="black" stroke-width="2"></path><path d="M 20.28 13.14 C 19.77 13.860000000000001, 19.56 13.935000000000002, 19.259999999999998 14.580000000000002 C 19.17 15.150000000000002, 18.75 15.150000000000002, 19.080000000000002 15.72 C 19.830000000000002 16.29, 19.980000000000004 16.575, 20.580000000000002 16.86 C 21.03 16.86, 21.045 17.04, 21.48 16.86 C 21.9 16.5, 22.05 16.485, 22.32 16.14 C 22.439999999999998 15.81, 22.5 15.870000000000001, 22.56 15.48 C 22.56 15.030000000000001, 22.56 14.865000000000002, 22.56 14.580000000000002 C 22.56 14.46, 22.724999999999998 14.46, 22.56 14.34 C 22.229999999999997 14.22, 22.259999999999998 14.145000000000001, 21.9 14.100000000000001 C 21.509999999999998 14.13, 21.555 14.07, 21.12 14.16 C 20.64 14.31, 20.67 14.055000000000001, 20.16 14.46 C 19.62 15.120000000000001, 19.380000000000003 15.225, 19.080000000000002 15.78 C 19.020000000000003 16.23, 18.825000000000003 16.349999999999998, 18.96 16.68 C 19.29 16.89, 19.14 16.950000000000003, 19.62 17.1 C 20.25 17.19, 20.325 17.325000000000003, 20.88 17.28 C 21.36 17.1, 21.509999999999998 17.22, 21.84 16.919999999999998 C 22.020000000000003 16.5, 22.110000000000003 16.485000000000003, 22.200000000000003 16.080000000000002 C 22.200000000000003 15.690000000000001, 22.245000000000005 15.674999999999999, 22.200000000000003 15.299999999999999 C 22.11 14.940000000000001, 22.155 14.820000000000002, 22.02 14.580000000000002 C 21.84 14.46, 21.825 14.4, 21.66 14.34 C 21.509999999999998 14.34, 21.63 14.309999999999999, 21.36 14.34 C 20.97 14.4, 20.775000000000002 14.43, 20.580000000000002 14.46 L 20.580000000000002 14.46" fill="none" stroke="black" stroke-width="2"></path><path d="M 20.1 14.76 C 20.340000000000003 15.059999999999999, 20.340000000000003 15.03, 20.580000000000002 15.36 C 20.82 15.72, 20.759999999999998 15.750000000000002, 21.06 16.080000000000002 C 21.42 16.380000000000003, 21.57 16.485, 21.78 16.68 L 21.9 16.86" fill="none" stroke="black" stroke-width="2"></path><path d="M 21.9 35.46 C 21.479999999999997 35.879999999999995, 21.389999999999997 35.76, 21.06 36.3 C 20.82 36.959999999999994, 20.565 37.019999999999996, 20.580000000000002 37.62 C 20.85 38.16, 20.565 38.385000000000005, 21.12 38.7 C 21.96 38.790000000000006, 22.124999999999996 39.075, 22.799999999999997 38.88 C 23.31 38.400000000000006, 23.505 38.595, 23.82 37.92 C 23.939999999999998 37.05, 24.044999999999998 36.93, 24.06 36.18 C 23.97 35.55, 24.209999999999997 35.43, 23.88 34.92 C 23.310000000000002 34.53, 23.43 34.2, 22.740000000000002 34.14 C 21.93 34.41, 21.720000000000002 34.29, 21.12 34.68 C 20.73 35.19, 20.535 35.175000000000004, 20.34 35.7 C 20.34 36.24, 20.115 36.18000000000001, 20.34 36.78 C 20.79 37.44, 20.805 37.605, 21.240000000000002 38.099999999999994 C 21.660000000000004 38.42999999999999, 21.765 38.595, 22.080000000000002 38.76 C 22.29 38.76, 22.2 38.97, 22.5 38.76 C 22.89 38.34, 23.07 38.445, 23.28 37.92 C 23.310000000000002 37.290000000000006, 23.325 37.125, 23.34 36.660000000000004 C 23.34 36.36, 23.384999999999998 36.315000000000005, 23.34 36.06 C 23.25 35.85, 23.475 35.760000000000005, 23.16 35.64 C 22.62 35.61, 22.560000000000002 35.34, 22.080000000000002 35.58 C 21.660000000000004 36.089999999999996, 21.495000000000005 36.19499999999999, 21.240000000000002 36.599999999999994 C 21.15 36.9, 21.105 36.96, 21.06 37.2 C 21.06 37.38, 21.06 37.47, 21.06 37.56 L 21.06 37.56" fill="none" stroke="black" stroke-width="2"></path><path d="M 21.66 34.74 C 21.93 35.19, 21.930000000000003 35.115, 22.200000000000003 35.64 C 22.470000000000002 36.239999999999995, 22.515 36.375, 22.740000000000002 36.839999999999996 C 22.92 37.17, 23.01 37.335, 23.1 37.5 C 23.1 37.5, 23.1 37.5, 23.1 37.5 C 23.1 37.5, 23.1 37.5, 23.1 37.5 L 23.1 37.5" fill="none" stroke="black" stroke-width="2"></path></svg>