<svg width="48" height="48" viewBox="0 0 48 48" xmlns="http://www.w3.org/2000/svg"><path d="M 11.040000000000001 23.700000000000003 C 11.010000000000002 22.410000000000004, 11.040000000000001 22.62, 10.98 21.12 C 10.89 19.410000000000004, 10.845 19.080000000000002, 10.8 17.700000000000003 C 10.8 16.650000000000002, 10.8 16.950000000000003, 10.8 15.600000000000001 C 10.8 13.95, 10.8 13.844999999999999, 10.8 12.299999999999999 C 10.8 10.86, 10.56 10.77, 10.8 9.42 C 11.280000000000001 8.16, 11.325 7.845, 11.76 6.8999999999999995 C 12.149999999999999 6.27, 12.09 6.06, 12.54 5.64 C 13.049999999999999 5.43, 12.959999999999997 5.324999999999999, 13.559999999999999 5.22 C 14.25 5.22, 14.34 5.1, 14.940000000000001 5.22 C 15.450000000000001 5.459999999999999, 15.450000000000001 5.324999999999999, 15.96 5.699999999999999 C 16.47 6.21, 16.560000000000002 6.135, 16.98 6.720000000000001 C 17.310000000000002 7.380000000000001, 17.295 7.335000000000001, 17.64 8.040000000000001 C 18 8.790000000000001, 17.985 8.745000000000001, 18.36 9.540000000000001 C 18.75 10.38, 18.795 10.440000000000001, 19.14 11.22 C 19.44 11.940000000000001, 19.53 11.715, 19.740000000000002 12.66 C 19.86 13.83, 19.830000000000002 13.995000000000001, 19.98 15 C 20.16 15.84, 20.145 15.975, 20.34 16.68 C 20.549999999999997 17.25, 20.595 17.415, 20.759999999999998 17.82 C 20.88 18.06, 20.805 18.044999999999998, 21 18.299999999999997 C 21.27 18.57, 21.36 18.66, 21.54 18.84 C 21.63 18.93, 21.674999999999997 18.975, 21.72 19.02 C 21.72 19.02, 21.509999999999998 19.14, 21.72 19.02 C 22.14 18.78, 22.275 18.735, 22.56 18.54 C 22.71 18.39, 22.71 18.450000000000003, 22.86 18.240000000000002 C 23.009999999999998 17.970000000000002, 22.92 17.865000000000002, 23.16 17.700000000000003 C 23.490000000000002 17.64, 23.145 17.610000000000003, 23.82 17.580000000000002 C 24.84 17.580000000000002, 24.645 17.445, 25.86 17.580000000000002 C 27.27 17.85, 27.674999999999997 17.880000000000003, 28.68 18.12 C 29.28 18.33, 29.205000000000002 18.15, 29.880000000000003 18.54 C 30.630000000000003 19.11, 30.75 19.02, 31.380000000000003 19.68 C 31.890000000000004 20.43, 32.040000000000006 20.535, 32.400000000000006 21.18 C 32.61 21.72, 32.67 21.449999999999996, 32.82 22.259999999999998 C 32.91 23.34, 32.955 23.700000000000003, 33 24.42 C 33 24.78, 33 24.96, 33 25.14 L 33 25.14" fill="none" stroke="black" stroke-width="2"></path><path d="M 22.14 19.02 C 22.32 19.59, 22.275 19.365, 22.5 20.16 C 22.77 21.18, 22.814999999999998 21.120000000000005, 23.04 22.200000000000003 C 23.22 23.340000000000003, 23.22 23.19, 23.4 24.48 C 23.58 25.92, 23.624999999999996 25.755, 23.759999999999998 27.36 C 23.85 29.130000000000003, 23.94 29.295, 23.94 30.900000000000002 C 23.85 32.34, 23.865 32.58, 23.759999999999998 33.78 C 23.64 34.74, 23.82 34.68000000000001, 23.52 35.7 C 23.04 36.78, 23.325 36.6, 22.56 37.86 C 21.509999999999998 39.3, 21.240000000000002 39.72, 20.46 40.74 C 19.950000000000003 41.34, 20.085 41.355, 19.44 41.94 C 18.66 42.51, 18.975 42.42, 17.88 43.08 C 16.47 43.83, 15.915 44.129999999999995, 15.059999999999999 44.58 C 14.76 44.730000000000004, 14.61 44.805, 14.46 44.88 C 14.46 44.88, 14.46 44.88, 14.46 44.88 L 14.46 44.88" fill="none" stroke="black" stroke-width="2"></path></svg>