<svg width="48" height="48" viewBox="0 0 48 48" xmlns="http://www.w3.org/2000/svg"><path d="M 16.14 20.759999999999998 C 17.97 20.85, 17.714999999999996 20.895, 19.799999999999997 20.94 C 22.14 20.94, 22.035 20.94, 24.48 20.94 C 27.03 20.94, 27.494999999999997 20.94, 29.58 20.94 C 31.2 20.94, 31.68 21.075000000000003, 32.82 20.94 C 33.480000000000004 20.67, 33.555 20.715, 34.14 20.4 C 34.650000000000006 20.04, 34.800000000000004 19.965, 35.160000000000004 19.68 C 35.370000000000005 19.47, 35.43 19.754999999999995, 35.58 19.259999999999998 C 35.67 18.48, 35.82 18.675000000000004, 35.76 17.700000000000003 C 35.55 16.53, 35.714999999999996 16.695, 35.339999999999996 15.36 C 34.8 13.86, 34.949999999999996 14.309999999999999, 34.26 12.36 C 33.42 9.96, 33.48 9.75, 32.58 7.5600000000000005 C 31.62 5.58, 31.275000000000006 4.845, 30.660000000000004 3.5999999999999996 C 30.39 3.09, 30.255 2.835, 30.119999999999997 2.58 L 30.119999999999997 2.58" fill="none" stroke="black" stroke-width="2"></path><path d="M 24.96 11.28 C 24.48 11.969999999999999, 24.15 12.015, 24 12.66 C 24.18 13.26, 24.015 13.469999999999999, 24.36 13.86 C 24.87 14.04, 24.795 14.265, 25.380000000000003 14.22 C 26.040000000000003 13.95, 26.265000000000004 14.22, 26.700000000000003 13.68 C 26.91 12.87, 27.06 12.735, 27.119999999999997 12.059999999999999 C 27.03 11.52, 27.195 11.31, 26.94 10.98 C 26.52 10.86, 26.549999999999997 10.725, 26.099999999999998 10.74 C 25.619999999999997 10.89, 25.425 10.725000000000001, 25.14 11.040000000000001 C 25.05 11.52, 24.990000000000002 11.565000000000001, 24.96 12 C 24.990000000000002 12.39, 24.855 12.465, 25.02 12.78 C 25.32 13.02, 25.275 13.184999999999999, 25.619999999999997 13.26 C 26.009999999999998 13.170000000000002, 26.145000000000003 13.365000000000002, 26.400000000000002 13.080000000000002 C 26.520000000000003 12.600000000000001, 26.580000000000002 12.39, 26.64 12.120000000000001 C 26.64 12.06, 26.64 12.030000000000001, 26.64 12 C 26.64 12, 26.64 12.015, 26.64 12 C 26.64 11.969999999999999, 26.759999999999998 11.969999999999999, 26.64 11.94 C 26.400000000000002 11.91, 26.355000000000004 11.774999999999999, 26.160000000000004 11.879999999999999 L 25.86 12.36" fill="none" stroke="black" stroke-width="2"></path><path d="M 28.200000000000003 21.240000000000002 C 28.26 21.810000000000002, 28.245 21.18, 28.32 22.38 C 28.41 24.21, 28.47 24.3, 28.5 26.04 C 28.47 27.689999999999998, 28.635 27.509999999999998, 28.44 29.339999999999996 C 28.08 31.349999999999998, 28.185 31.424999999999997, 27.72 33.36 C 27.15 35.22, 27.269999999999996 35.519999999999996, 26.58 37.08 C 25.77 38.339999999999996, 25.995 38.339999999999996, 24.96 39.599999999999994 C 23.700000000000003 40.86, 23.580000000000002 41.175, 22.44 42.12 C 21.42 42.75, 21.33 42.78, 20.4 43.38 C 19.56 43.95, 19.14 44.235, 18.72 44.519999999999996 L 18.72 44.519999999999996" fill="none" stroke="black" stroke-width="2"></path></svg>