<svg width="48" height="48" viewBox="0 0 48 48" xmlns="http://www.w3.org/2000/svg"><path d="M 21.48 5.9399999999999995 C 21.15 6.449999999999999, 20.94 6.404999999999999, 20.82 6.959999999999999 C 20.91 7.56, 20.655 7.77, 21 8.16 C 21.6 8.34, 21.615000000000002 8.61, 22.200000000000003 8.52 C 22.770000000000003 8.16, 22.98 8.295, 23.34 7.800000000000001 C 23.490000000000002 7.170000000000001, 23.745 7.005000000000001, 23.64 6.540000000000001 C 23.28 6.24, 23.279999999999998 6.135, 22.919999999999998 5.9399999999999995 C 22.560000000000002 5.85, 22.71 5.715, 22.200000000000003 5.76 C 21.54 5.9399999999999995, 21.27 5.76, 20.88 6.12 C 20.759999999999998 6.66, 20.505000000000003 6.6, 20.64 7.199999999999999 C 21.03 7.859999999999999, 20.669999999999998 8.145, 21.419999999999998 8.52 C 22.53 8.61, 22.86 8.91, 23.64 8.7 C 24.09 8.19, 24.314999999999998 7.935, 24.54 7.68 C 24.54 7.68, 24.81 7.77, 24.54 7.68 C 24 7.5, 23.805 7.41, 23.46 7.32 C 23.310000000000002 7.32, 23.34 7.08, 23.16 7.32 C 22.950000000000003 7.8, 22.845000000000002 7.965, 22.740000000000002 8.28 C 22.740000000000002 8.43, 22.53 8.76, 22.740000000000002 8.58 C 23.160000000000004 8.07, 23.37 7.890000000000001, 23.580000000000002 7.5600000000000005 C 23.580000000000002 7.41, 23.745000000000005 7.455, 23.580000000000002 7.26 C 23.25 7.02, 23.25 6.914999999999999, 22.919999999999998 6.779999999999999 C 22.589999999999996 6.75, 22.589999999999996 6.4350000000000005, 22.259999999999998 6.720000000000001 C 21.93 7.32, 21.765 7.574999999999999, 21.6 7.92 C 21.6 8.010000000000002, 21.48 8.13, 21.6 8.100000000000001 C 21.840000000000003 7.950000000000001, 21.795 8.190000000000001, 22.080000000000002 7.800000000000001 C 22.410000000000004 7.170000000000001, 22.575000000000003 6.885000000000002, 22.740000000000002 6.540000000000001 C 22.740000000000002 6.48, 22.740000000000002 6.45, 22.740000000000002 6.42 C 22.740000000000002 6.42, 22.71 6.435, 22.740000000000002 6.42 C 22.8 6.390000000000001, 22.575 6.045, 22.86 6.36 C 23.369999999999997 7.02, 23.625 7.35, 23.88 7.68 L 23.88 7.68" fill="none" stroke="black" stroke-width="2"></path><path d="M 22.98 13.68 C 23.1 15.48, 23.16 15.15, 23.22 17.28 C 23.22 19.740000000000002, 23.115 19.485000000000003, 23.22 22.200000000000003 C 23.43 25.17, 23.535 25.5, 23.64 28.14 C 23.64 30.45, 23.64 30.915, 23.64 32.76 C 23.64 34.14, 23.64 33.959999999999994, 23.64 35.519999999999996 C 23.64 37.26, 23.67 37.905, 23.64 39 C 23.58 39.45, 23.64 39.510000000000005, 23.52 39.900000000000006 C 23.34 40.230000000000004, 23.46 40.260000000000005, 23.16 40.56 C 22.740000000000002 40.83, 22.77 40.88999999999999, 22.32 41.099999999999994 C 21.84 41.25, 21.794999999999998 41.28, 21.36 41.400000000000006 C 20.97 41.49, 20.85 41.535, 20.580000000000002 41.58 C 20.43 41.58, 20.520000000000003 41.67, 20.28 41.58 C 19.950000000000003 41.4, 20.16 42.015, 19.62 41.22 C 18.87 39.81, 18.825000000000003 39.99000000000001, 18.12 38.400000000000006 C 17.46 36.63, 17.324999999999996 36.735, 16.799999999999997 34.86 C 16.409999999999997 32.88, 16.215 32.550000000000004, 16.02 30.900000000000002 C 16.02 29.58, 16.02 29.52, 16.02 28.259999999999998 C 16.02 27.06, 16.02 26.535, 16.02 25.86 C 16.02 25.71, 16.02 25.634999999999998, 16.02 25.56 L 16.02 25.56" fill="none" stroke="black" stroke-width="2"></path></svg>