<svg width="48" height="48" viewBox="0 0 48 48" xmlns="http://www.w3.org/2000/svg"><path d="M 12.419999999999998 23.34 C 11.639999999999999 21.299999999999997, 11.43 21.104999999999997, 10.86 19.259999999999998 C 10.5 17.61, 10.350000000000001 17.295, 10.14 15.96 C 10.08 14.94, 9.675 14.879999999999999, 10.02 13.919999999999998 C 10.77 13.02, 10.89 12.63, 11.52 12.120000000000001 C 12.03 12, 11.954999999999998 11.805, 12.54 11.879999999999999 C 13.2 12.149999999999999, 13.155 11.984999999999998, 13.86 12.419999999999998 C 14.61 13.02, 14.579999999999998 12.66, 15.36 13.620000000000001 C 16.17 14.94, 16.35 15.075, 16.98 16.259999999999998 C 17.43 17.31, 17.55 17.625, 17.88 18.36 C 18.089999999999996 18.78, 18.194999999999997 18.990000000000002, 18.299999999999997 19.200000000000003 C 18.299999999999997 19.200000000000003, 18.299999999999997 19.500000000000004, 18.299999999999997 19.200000000000003 C 18.299999999999997 18.6, 18.299999999999997 18.810000000000002, 18.299999999999997 18 C 18.299999999999997 16.98, 18.194999999999997 17.04, 18.299999999999997 15.96 C 18.509999999999998 14.82, 18.464999999999996 14.49, 18.72 13.68 C 19.02 13.2, 18.585 13.14, 19.32 12.72 C 20.490000000000002 12.36, 20.355 12.195, 21.66 12 C 23.1 11.969999999999999, 22.979999999999997 11.955, 24.54 11.94 C 26.22 11.94, 26.145000000000003 11.94, 27.900000000000002 11.94 C 29.73 11.94, 30.21 11.94, 31.56 11.94 C 32.43 11.94, 32.79 11.94, 33.3 11.94 L 33.599999999999994 11.94" fill="none" stroke="black" stroke-width="2"></path><path d="M 18.6 5.9399999999999995 C 18.509999999999998 6.63, 18.104999999999997 6.84, 18.419999999999998 7.32 C 19.14 7.59, 19.154999999999998 8.175, 19.86 7.86 C 20.55 6.960000000000001, 20.925 7.035, 21.240000000000002 6.0600000000000005 C 21.18 5.01, 21.435000000000002 4.575, 21.12 3.96 C 20.55 3.78, 20.595 3.3149999999999995, 19.98 3.5999999999999996 C 19.32 4.35, 18.915 4.26, 18.66 5.1 C 18.810000000000002 6.029999999999999, 18.270000000000003 6.509999999999999, 18.96 6.959999999999999 C 20.189999999999998 6.93, 20.625 7.424999999999999, 21.419999999999998 6.8999999999999995 C 21.78 5.88, 22.155 5.4750000000000005, 22.14 4.86 C 21.75 4.65, 22.11 4.454999999999999, 21.36 4.4399999999999995 C 20.25 4.62, 19.815 4.470000000000001, 19.14 4.800000000000001 L 18.66 5.76" fill="none" stroke="black" stroke-width="2"></path><path d="M 25.259999999999998 12.419999999999998 C 25.259999999999998 13.049999999999999, 25.319999999999997 12.195, 25.259999999999998 13.68 C 25.14 16.02, 24.99 16.515, 25.02 18.36 C 25.200000000000003 19.71, 24.915000000000003 19.395, 25.380000000000003 21.06 C 26.130000000000003 23.04, 26.040000000000003 23.415, 26.880000000000003 25.02 C 27.810000000000002 26.25, 27.855000000000004 26.580000000000002, 28.740000000000002 27.48 C 29.580000000000002 28.049999999999997, 29.805 28.259999999999998, 30.42 28.619999999999997 C 30.810000000000002 28.77, 31.005000000000003 28.845, 31.200000000000003 28.92 C 31.200000000000003 28.92, 31.110000000000003 28.86, 31.200000000000003 28.92 C 31.380000000000003 29.040000000000003, 31.455 28.935000000000002, 31.56 29.160000000000004 C 31.589999999999996 29.490000000000002, 31.769999999999996 29.445, 31.619999999999997 29.82 C 31.29 30.240000000000002, 31.53 30.240000000000002, 30.96 30.660000000000004 C 30.15 31.080000000000002, 30.479999999999997 31.125, 29.339999999999996 31.5 C 27.869999999999997 31.830000000000002, 28.095000000000002 31.665000000000003, 26.400000000000002 32.160000000000004 C 24.48 32.82000000000001, 24.345 32.580000000000005, 22.56 33.480000000000004 C 20.909999999999997 34.620000000000005, 20.685 34.485, 19.259999999999998 35.76 C 18.06 37.17, 17.849999999999998 36.9, 16.86 38.58 C 16.08 40.53, 15.69 41.145, 15.299999999999999 42.480000000000004 C 15.299999999999999 43.2, 15.254999999999999 43.44, 15.299999999999999 43.92 C 15.39 44.160000000000004, 15.39 44.25000000000001, 15.48 44.400000000000006 L 15.66 44.519999999999996" fill="none" stroke="black" stroke-width="2"></path><path d="M 11.58 29.700000000000003 C 13.919999999999998 30.990000000000002, 14.549999999999999 31.305000000000003, 16.259999999999998 32.28 C 17.339999999999996 32.94, 17.58 32.99999999999999, 18.419999999999998 33.599999999999994 C 19.02 34.14, 19.08 34.155, 19.62 34.68 C 20.1 35.19, 20.340000000000003 35.445, 20.580000000000002 35.7 L 20.580000000000002 35.7" fill="none" stroke="black" stroke-width="2"></path></svg>