<svg width="48" height="48" viewBox="0 0 48 48" xmlns="http://www.w3.org/2000/svg"><path d="M 7.74 40.019999999999996 C 7.62 36.92999999999999, 7.5600000000000005 36.72, 7.5 33.839999999999996 C 7.5 31.169999999999998, 7.5 30.659999999999997, 7.5 28.5 C 7.5 26.85, 7.484999999999999 26.580000000000002, 7.5 25.200000000000003 C 7.53 24.090000000000003, 7.455 24.060000000000002, 7.5600000000000005 22.98 C 7.74 21.93, 7.755 21.794999999999998, 7.92 20.88 C 8.07 20.1, 8.040000000000001 19.95, 8.22 19.32 C 8.43 18.84, 8.385000000000002 18.855, 8.64 18.36 C 8.940000000000001 17.85, 8.835 17.805, 9.24 17.34 C 9.75 16.92, 9.705 16.845, 10.26 16.5 C 10.86 16.23, 10.604999999999999 16.185000000000002, 11.459999999999999 15.96 C 12.57 15.780000000000001, 12.584999999999999 15.795000000000002, 13.68 15.600000000000001 C 14.76 15.39, 14.985 15.315000000000001, 15.84 15.18 C 16.47 15.12, 16.590000000000003 15.09, 17.1 15.059999999999999 C 17.490000000000002 15.059999999999999, 17.58 15.059999999999999, 17.88 15.059999999999999 C 18.089999999999996 15.059999999999999, 18.059999999999995 15.044999999999998, 18.299999999999997 15.059999999999999 C 18.57 15.09, 18.57 15.030000000000001, 18.84 15.120000000000001 C 19.11 15.27, 19.064999999999998 15.059999999999999, 19.38 15.419999999999998 C 19.740000000000002 15.989999999999998, 19.845000000000002 15.689999999999998, 20.1 16.56 C 20.25 17.729999999999997, 20.235 17.055, 20.4 18.9 C 20.58 21.42, 20.669999999999998 21.465000000000003, 20.759999999999998 23.94 C 20.759999999999998 26.369999999999997, 20.804999999999996 26.624999999999996, 20.759999999999998 28.799999999999997 C 20.67 30.72, 20.73 30.810000000000002, 20.580000000000002 32.64 C 20.37 34.379999999999995, 20.34 34.67999999999999, 20.16 36.12 C 20.009999999999998 37.260000000000005, 20.025 37.30500000000001, 19.86 38.400000000000006 C 19.68 39.45, 19.605 39.78, 19.5 40.5 C 19.47 40.89, 19.455000000000002 41.085, 19.44 41.28 C 19.44 41.28, 19.44 41.28, 19.44 41.28 L 19.44 41.28" fill="none" stroke="black" stroke-width="2"></path><path d="M 13.86 3.96 C 13.32 4.199999999999999, 13.11 4.0649999999999995, 12.78 4.4399999999999995 C 12.66 4.949999999999999, 12.479999999999999 5.145, 12.54 5.46 C 12.78 5.58, 12.645 6.1049999999999995, 13.02 5.699999999999999 C 13.53 4.77, 13.815 4.47, 14.04 3.84 C 13.979999999999999 3.51, 14.189999999999998 2.805, 13.919999999999998 3.18 C 13.44 4.26, 13.2 4.65, 12.96 5.34 C 12.96 5.64, 12.690000000000001 6.1049999999999995, 12.96 5.9399999999999995 C 13.5 5.31, 13.875 5.234999999999999, 14.04 4.68 C 13.83 4.199999999999999, 14.055000000000001 3.3749999999999996, 13.620000000000001 3.7199999999999998 C 12.96 4.890000000000001, 12.57 5.085000000000001, 12.299999999999999 6.0600000000000005 C 12.419999999999998 6.84, 12.12 7.785, 12.54 7.62 C 13.26 6.51, 13.89 6.075, 13.98 5.4 C 13.44 5.16, 13.334999999999999 4.62, 12.899999999999999 4.92 C 12.57 5.76, 12.315 6.015000000000001, 12.24 6.6000000000000005 C 12.420000000000002 6.93, 12.465000000000002 7.26, 12.600000000000001 7.26 C 12.690000000000001 6.93, 12.735 6.765000000000001, 12.78 6.6000000000000005 L 12.78 6.6000000000000005" fill="none" stroke="black" stroke-width="2"></path></svg>