<svg width="48" height="48" viewBox="0 0 48 48" xmlns="http://www.w3.org/2000/svg"><path d="M 14.04 4.62 C 13.620000000000001 6.8100000000000005, 13.635000000000002 6.51, 13.200000000000001 9 C 12.75 11.790000000000001, 12.524999999999999 12.180000000000001, 12.299999999999999 14.580000000000002 C 12.299999999999999 16.590000000000003, 12.089999999999998 16.830000000000002, 12.299999999999999 18.6 C 12.719999999999999 20.130000000000003, 12.48 20.22, 13.14 21.66 C 14.040000000000001 23.009999999999998, 14.250000000000002 23.58, 14.940000000000001 24.36 C 15.42 24.57, 15.36 24.675, 15.899999999999999 24.78 C 16.5 24.78, 16.29 25.425, 17.1 24.78 C 18.12 23.490000000000002, 18.57 23.445000000000004, 19.14 22.200000000000003 C 19.259999999999998 21, 19.32 20.4, 19.38 19.799999999999997 C 19.38 19.799999999999997, 19.38 19.799999999999997, 19.38 19.799999999999997 C 19.38 19.799999999999997, 19.38 19.814999999999998, 19.38 19.799999999999997 C 19.38 19.77, 19.38 19.29, 19.38 19.740000000000002 C 19.38 20.67, 19.29 20.64, 19.38 21.6 C 19.560000000000002 22.590000000000003, 19.155 22.89, 19.740000000000002 23.580000000000002 C 20.73 23.97, 20.835 24.165, 21.72 24.36 C 22.5 24.36, 22.485 24.375, 23.28 24.36 C 24.090000000000003 24.33, 24.225 24.839999999999996, 24.900000000000002 24.299999999999997 C 25.44 23.25, 25.665 23.67, 25.98 22.200000000000003 C 26.07 20.310000000000002, 26.025000000000006 20.669999999999998, 26.160000000000004 18.419999999999998 C 26.340000000000003 15.809999999999999, 26.43 15.3, 26.52 13.200000000000001 C 26.52 11.61, 26.52 11.22, 26.52 10.02 C 26.52 9.209999999999999, 26.565 9.179999999999998, 26.52 8.399999999999999 C 26.43 7.649999999999999, 26.384999999999998 7.3199999999999985, 26.339999999999996 6.8999999999999995 C 26.339999999999996 6.8100000000000005, 26.339999999999996 6.765000000000001, 26.339999999999996 6.720000000000001 L 26.339999999999996 6.720000000000001" fill="none" stroke="black" stroke-width="2"></path><path d="M 19.62 10.74 C 19.05 11.25, 18.765 11.28, 18.48 11.76 C 18.48 12.21, 18.240000000000002 12.36, 18.48 12.66 C 18.96 12.81, 18.990000000000002 13.065000000000001, 19.44 12.96 C 19.86 12.600000000000001, 20.040000000000003 12.66, 20.28 12.24 C 20.34 11.76, 20.46 11.61, 20.4 11.28 C 20.22 11.1, 20.474999999999998 10.965, 20.04 10.92 C 19.35 11.010000000000002, 19.14 10.665000000000001, 18.66 11.100000000000001 C 18.39 11.88, 18.165 12.105, 18.12 12.66 C 18.3 12.99, 18.105 13.155000000000001, 18.48 13.32 C 19.05 13.32, 19.290000000000003 13.605, 19.62 13.32 C 19.71 12.75, 19.755 12.45, 19.799999999999997 12.18 C 19.799999999999997 12.21, 19.889999999999997 12.015, 19.799999999999997 12.24 C 19.619999999999997 12.66, 19.53 12.840000000000002, 19.44 13.080000000000002 L 19.44 13.200000000000001" fill="none" stroke="black" stroke-width="2"></path><path d="M 12.419999999999998 31.799999999999997 C 12.629999999999999 31.77, 11.594999999999999 31.755000000000003, 12.84 31.740000000000002 C 15.12 31.740000000000002, 15.299999999999997 31.740000000000002, 17.4 31.740000000000002 C 19.32 31.740000000000002, 19.26 31.650000000000006, 21.240000000000002 31.740000000000002 C 23.28 31.919999999999998, 23.58 32.01, 25.32 32.099999999999994 C 26.76 32.099999999999994, 27.405 32.099999999999994, 28.200000000000003 32.099999999999994 L 28.5 32.099999999999994" fill="none" stroke="black" stroke-width="2"></path></svg>