<svg width="48" height="48" viewBox="0 0 48 48" xmlns="http://www.w3.org/2000/svg"><path d="M 7.800000000000001 43.56 C 7.44 41.400000000000006, 7.32 42.42, 7.08 39.24 C 6.96 35.04, 6.9 34.425, 6.84 30.839999999999996 C 6.84 27.869999999999997, 6.84 27.330000000000002, 6.84 24.900000000000002 C 6.84 23.01, 6.825 23.385, 6.84 21.12 C 6.869999999999999 18.48, 6.84 18.06, 6.8999999999999995 15.84 C 6.99 14.04, 6.885 13.65, 7.08 12.24 C 7.38 11.219999999999999, 7.26 11.04, 7.68 10.2 C 8.219999999999999 9.54, 7.994999999999999 9.374999999999998, 8.76 8.879999999999999 C 9.75 8.55, 9.465 8.55, 10.74 8.22 C 12.3 7.890000000000001, 12.315 7.890000000000001, 13.86 7.5600000000000005 C 15.389999999999999 7.23, 15.794999999999998 7.0649999999999995, 16.919999999999998 6.8999999999999995 C 17.64 6.8999999999999995, 17.805 6.885, 18.36 6.8999999999999995 C 18.75 6.93, 18.825 6.914999999999999, 19.14 6.959999999999999 C 19.380000000000003 7.02, 19.23 6.84, 19.62 7.08 C 20.160000000000004 7.5, 20.130000000000003 7.05, 20.700000000000003 7.92 C 21.3 9.24, 21.33 8.25, 21.9 10.56 C 22.439999999999998 13.86, 22.59 13.995000000000001, 22.98 17.16 C 23.22 20.189999999999998, 23.28 19.814999999999998, 23.46 23.22 C 23.580000000000002 27, 23.64 27.51, 23.700000000000003 30.78 C 23.700000000000003 33.54, 23.760000000000005 33.885, 23.700000000000003 36.3 C 23.580000000000002 38.37, 23.535000000000004 39.18, 23.46 40.44 C 23.43 40.89, 23.474999999999998 40.8, 23.4 41.339999999999996 C 23.28 41.97, 23.22 42.239999999999995, 23.16 42.599999999999994 C 23.16 42.69, 23.16 42.735, 23.16 42.78 L 23.16 42.78" fill="none" stroke="black" stroke-width="2"></path></svg>