<svg width="48" height="48" viewBox="0 0 48 48" xmlns="http://www.w3.org/2000/svg"><path d="M 13.26 10.08 C 13.98 10.08, 13.785000000000002 10.08, 14.700000000000001 10.08 C 15.809999999999999 10.08, 16.02 10.08, 16.919999999999998 10.08 C 17.61 10.08, 17.654999999999998 10.08, 18.299999999999997 10.08 C 18.9 10.08, 19.064999999999998 10.08, 19.5 10.08 C 19.77 10.08, 19.905 10.08, 20.04 10.08 C 20.04 10.08, 20.04 10.08, 20.04 10.08 L 20.04 10.08" fill="none" stroke="black" stroke-width="2"></path><path d="M 13.799999999999999 4.5 C 13.799999999999999 5.3100000000000005, 13.799999999999999 5.265000000000001, 13.799999999999999 6.12 C 13.799999999999999 7.02, 13.799999999999999 6.96, 13.799999999999999 7.92 C 13.799999999999999 8.94, 13.799999999999999 8.924999999999999, 13.799999999999999 9.959999999999999 C 13.799999999999999 11.009999999999998, 13.799999999999999 11.054999999999998, 13.799999999999999 12.059999999999999 C 13.799999999999999 13.02, 13.799999999999999 12.780000000000001, 13.799999999999999 13.98 C 13.799999999999999 15.42, 13.844999999999999 15.09, 13.799999999999999 16.86 C 13.71 18.96, 13.665000000000001 19.275, 13.620000000000001 21.06 C 13.620000000000001 22.53, 13.650000000000002 22.71, 13.620000000000001 24 C 13.56 25.11, 13.56 24.825, 13.5 26.22 C 13.44 27.9, 13.454999999999998 28.049999999999997, 13.379999999999999 29.58 C 13.29 30.959999999999997, 13.305 31.004999999999995, 13.200000000000001 32.339999999999996 C 13.080000000000002 33.629999999999995, 13.065000000000001 33.84, 12.96 34.92 C 12.870000000000001 35.790000000000006, 12.87 35.64, 12.78 36.660000000000004 C 12.690000000000001 37.83, 12.645000000000001 38.07, 12.600000000000001 39 C 12.600000000000001 39.69, 12.600000000000001 39.855000000000004, 12.600000000000001 40.38 C 12.600000000000001 40.739999999999995, 12.600000000000001 40.919999999999995, 12.600000000000001 41.099999999999994 L 12.600000000000001 41.099999999999994" fill="none" stroke="black" stroke-width="2"></path><path d="M 14.34 16.799999999999997 C 14.7 16.799999999999997, 14.654999999999998 16.799999999999997, 15.059999999999999 16.799999999999997 C 15.51 16.799999999999997, 15.495000000000001 16.754999999999995, 15.96 16.799999999999997 C 16.439999999999998 16.89, 16.11 16.875, 16.919999999999998 16.98 C 18.060000000000002 17.1, 18.225 17.16, 19.200000000000003 17.22 C 20.01 17.22, 19.770000000000003 17.174999999999997, 20.82 17.22 C 22.11 17.31, 22.244999999999997 17.354999999999997, 23.4 17.4 C 24.42 17.4, 24.345 17.354999999999997, 25.44 17.4 C 26.61 17.490000000000002, 26.85 17.535, 27.78 17.580000000000002 C 28.470000000000002 17.580000000000002, 28.560000000000002 17.535000000000004, 29.160000000000004 17.580000000000002 C 29.67 17.67, 29.835 17.715, 30.18 17.759999999999998 C 30.36 17.759999999999998, 30.45 17.759999999999998, 30.54 17.759999999999998 L 30.54 17.759999999999998" fill="none" stroke="black" stroke-width="2"></path><path d="M 23.1 29.46 C 22.68 29.61, 22.5 29.459999999999997, 22.259999999999998 29.759999999999998 C 22.2 30.21, 21.975 30.345000000000002, 22.14 30.660000000000004 C 22.53 30.840000000000003, 22.65 30.945, 22.919999999999998 31.02 C 23.07 30.990000000000002, 23.189999999999998 31.365000000000002, 23.22 30.96 C 23.13 30.18, 23.28 29.865000000000002, 23.04 29.400000000000002 C 22.65 29.25, 22.799999999999997 28.979999999999997, 22.259999999999998 29.099999999999998 C 21.57 29.490000000000002, 21.24 29.475, 20.88 29.880000000000003 C 20.85 30.3, 20.73 30.314999999999998, 20.82 30.72 C 21.03 31.11, 20.970000000000002 31.305, 21.240000000000002 31.5 C 21.57 31.5, 21.465 31.65, 21.9 31.5 C 22.439999999999998 31.200000000000003, 22.71 31.305, 22.98 30.900000000000002 C 22.98 30.39, 23.04 30.240000000000002, 22.98 29.880000000000003 C 22.86 29.67, 22.92 29.61, 22.740000000000002 29.46 C 22.5 29.37, 22.619999999999997 29.145000000000003, 22.259999999999998 29.28 C 21.779999999999998 29.64, 21.54 29.655, 21.299999999999997 30 C 21.299999999999997 30.330000000000002, 21.194999999999997 30.375000000000004, 21.299999999999997 30.660000000000004 C 21.509999999999998 30.900000000000002, 21.584999999999997 31.005000000000003, 21.72 31.14 L 21.84 31.200000000000003" fill="none" stroke="black" stroke-width="2"></path></svg>