<svg width="48" height="48" viewBox="0 0 48 48" xmlns="http://www.w3.org/2000/svg"><path d="M 13.620000000000001 8.28 C 14.280000000000001 8.28, 13.860000000000001 8.28, 14.940000000000001 8.28 C 16.44 8.28, 16.89 8.28, 17.94 8.28 C 18.54 8.28, 18.75 8.28, 19.14 8.28 C 19.32 8.28, 19.275 8.28, 19.5 8.28 C 19.77 8.28, 19.77 8.28, 20.04 8.28 C 20.310000000000002 8.28, 20.445 8.28, 20.580000000000002 8.28 L 20.580000000000002 8.28" fill="none" stroke="black" stroke-width="2"></path><path d="M 13.919999999999998 2.82 C 13.77 3.24, 13.695 2.865, 13.620000000000001 3.66 C 13.620000000000001 4.83, 13.620000000000001 4.755, 13.620000000000001 6 C 13.620000000000001 7.32, 13.590000000000002 7.005000000000001, 13.620000000000001 8.64 C 13.68 10.59, 13.695 10.95, 13.74 12.54 C 13.77 13.77, 13.785 13.455, 13.799999999999999 15 C 13.799999999999999 16.86, 13.799999999999999 17.205, 13.799999999999999 18.72 C 13.799999999999999 19.89, 13.799999999999999 20.07, 13.799999999999999 21.06 C 13.799999999999999 21.869999999999997, 13.799999999999999 22.275, 13.799999999999999 22.68 L 13.799999999999999 22.68" fill="none" stroke="black" stroke-width="2"></path><path d="M 14.28 14.28 C 14.669999999999998 14.219999999999999, 14.579999999999998 14.19, 15.059999999999999 14.16 C 15.63 14.16, 15.540000000000003 13.905000000000001, 16.200000000000003 14.16 C 16.950000000000003 14.67, 17.040000000000003 14.64, 17.700000000000003 15.18 C 18.270000000000003 15.75, 18.345 15.525, 18.84 16.32 C 19.259999999999998 17.34, 19.365 17.28, 19.68 18.36 C 19.89 19.5, 19.995 19.995, 20.1 20.64 C 20.1 20.79, 20.1 20.865000000000002, 20.1 20.94 C 20.1 20.94, 20.1 20.94, 20.1 20.94 C 20.1 20.94, 20.055 21.150000000000002, 20.1 20.94 C 20.19 20.520000000000003, 19.845000000000002 21.18, 20.28 20.1 C 21.060000000000002 18.36, 21.12 18, 21.84 16.62 C 22.5 15.600000000000001, 22.56 15.225000000000001, 23.16 14.580000000000002 C 23.700000000000003 14.31, 23.265 14.355, 24.240000000000002 14.04 C 25.65 13.68, 26.009999999999998 13.5, 27.06 13.32 C 27.75 13.32, 27.75 13.215, 28.44 13.32 C 29.130000000000003 13.530000000000001, 29.400000000000002 13.620000000000001, 29.82 13.74 C 29.97 13.77, 30.044999999999998 13.785, 30.119999999999997 13.799999999999999 L 30.119999999999997 13.799999999999999" fill="none" stroke="black" stroke-width="2"></path><path d="M 25.380000000000003 14.64 C 25.380000000000003 16.08, 25.380000000000003 16.11, 25.380000000000003 17.52 C 25.380000000000003 18.9, 25.425000000000004 18.6, 25.380000000000003 20.28 C 25.290000000000003 22.26, 25.320000000000004 22.425000000000004, 25.200000000000003 24.240000000000002 C 25.050000000000004 25.89, 24.975 25.08, 24.900000000000002 27.54 C 24.900000000000002 30.81, 24.96 30.72, 24.900000000000002 34.08 C 24.78 37.53, 24.720000000000002 38.175000000000004, 24.660000000000004 40.980000000000004 C 24.660000000000004 43.14, 24.660000000000004 44.04, 24.660000000000004 45.3 C 24.660000000000004 45.66, 24.660000000000004 45.839999999999996, 24.660000000000004 46.019999999999996 L 24.660000000000004 46.019999999999996" fill="none" stroke="black" stroke-width="2"></path></svg>