<svg width="48" height="48" viewBox="0 0 48 48" xmlns="http://www.w3.org/2000/svg"><path d="M 6.8999999999999995 10.86 C 7.32 10.86, 7.095 10.86, 7.74 10.86 C 8.61 10.86, 8.790000000000001 10.86, 9.48 10.86 C 9.99 10.86, 9.975 10.815, 10.5 10.86 C 11.04 10.95, 11.085 10.995000000000001, 11.58 11.040000000000001 C 12.030000000000001 11.040000000000001, 12.09 11.040000000000001, 12.48 11.040000000000001 C 12.81 11.040000000000001, 12.81 11.040000000000001, 13.14 11.040000000000001 C 13.469999999999999 11.040000000000001, 13.559999999999999 11.040000000000001, 13.799999999999999 11.040000000000001 C 13.95 11.040000000000001, 14.025 11.040000000000001, 14.100000000000001 11.040000000000001 L 14.100000000000001 11.040000000000001" fill="none" stroke="black" stroke-width="2"></path><path d="M 8.64 2.4000000000000004 C 8.55 3.45, 8.61 3.33, 8.459999999999999 4.5 C 8.25 5.79, 8.205 5.925, 8.040000000000001 7.08 C 7.920000000000001 8.100000000000001, 7.875000000000001 7.9350000000000005, 7.800000000000001 9.120000000000001 C 7.7700000000000005 10.47, 7.890000000000001 10.425, 7.74 11.82 C 7.47 13.260000000000002, 7.364999999999999 13.290000000000001, 7.199999999999999 14.700000000000001 C 7.14 16.080000000000002, 7.17 16.215, 7.08 17.46 C 6.96 18.57, 6.9 18.494999999999997, 6.84 19.68 C 6.84 20.94, 6.84 21.180000000000003, 6.84 22.200000000000003 C 6.84 22.98, 6.84 23.084999999999997, 6.84 23.759999999999998 C 6.84 24.33, 6.8100000000000005 24.48, 6.84 24.900000000000002 C 6.8999999999999995 25.17, 6.674999999999999 25.125, 6.959999999999999 25.44 C 7.47 25.800000000000004, 7.545 25.905000000000005, 7.98 26.160000000000004 C 8.34 26.310000000000002, 8.129999999999999 26.205000000000002, 8.7 26.46 C 9.48 26.82, 9.12 26.85, 10.26 27.18 C 11.76 27.48, 11.82 27.57, 13.26 27.78 C 14.64 27.9, 14.895 27.96, 16.02 28.02 C 16.89 28.02, 16.769999999999996 28.02, 17.759999999999998 28.02 C 18.869999999999997 28.02, 18.96 27.974999999999998, 19.98 28.02 C 20.91 28.11, 21.21 28.155, 21.84 28.200000000000003 C 22.17 28.200000000000003, 22.29 28.200000000000003, 22.5 28.200000000000003 C 22.59 28.200000000000003, 22.634999999999998 28.200000000000003, 22.68 28.200000000000003 L 22.68 28.200000000000003" fill="none" stroke="black" stroke-width="2"></path><path d="M 20.700000000000003 35.099999999999994 C 20.25 34.65, 20.444999999999997 34.59, 19.799999999999997 34.2 C 18.96 33.870000000000005, 18.915 33.705, 18.12 33.54 C 17.37 33.54, 17.310000000000002 33.435, 16.62 33.54 C 15.99 33.75, 15.945 33.57, 15.36 33.96 C 14.82 34.53, 14.91 34.12499999999999, 14.28 35.099999999999994 C 13.559999999999999 36.48, 13.275 36.69, 12.84 37.86 C 12.69 38.82, 12.614999999999998 38.955, 12.54 39.78 C 12.54 40.47, 12.209999999999999 40.5, 12.54 41.160000000000004 C 13.2 41.790000000000006, 13.215 41.97, 13.86 42.42 C 14.49 42.69, 14.505 42.78, 15.120000000000001 42.96 C 15.72 43.05, 15.75 43.14, 16.32 43.14 C 16.86 43.05, 16.709999999999997 43.32, 17.4 42.96 C 18.240000000000002 42.33, 18.39 42.225, 19.080000000000002 41.7 C 19.62 41.28, 19.65 41.25, 20.16 40.86 C 20.64 40.5, 20.73 40.65, 21.12 40.14 C 21.42 39.480000000000004, 21.57 39.465, 21.72 38.82 C 21.72 38.19, 21.674999999999997 38.505, 21.72 37.56 C 21.81 36.3, 21.81 36.555, 21.9 35.04 C 21.990000000000002 33.269999999999996, 21.975 33.06, 22.080000000000002 31.5 C 22.200000000000003 30.15, 22.215 30.194999999999997, 22.32 28.799999999999997 C 22.41 27.36, 22.455 27.315, 22.5 25.92 C 22.5 24.57, 22.5 24.66, 22.5 23.22 C 22.5 21.689999999999998, 22.5 21.585, 22.5 20.16 C 22.5 18.84, 22.5 18.99, 22.5 17.52 C 22.5 15.899999999999999, 22.5 15.584999999999999, 22.5 14.28 C 22.5 13.29, 22.455 13.514999999999999, 22.5 12.299999999999999 C 22.59 10.86, 22.575 10.844999999999999, 22.68 9.42 C 22.799999999999997 8.01, 22.86 7.485, 22.919999999999998 6.6000000000000005 C 22.919999999999998 6.24, 22.889999999999997 6.33, 22.919999999999998 5.88 C 22.979999999999997 5.34, 22.965 5.280000000000001, 23.04 4.800000000000001 C 23.13 4.380000000000001, 23.174999999999997 4.17, 23.22 3.96 C 23.22 3.96, 23.22 3.96, 23.22 3.96 C 23.22 3.96, 23.22 3.96, 23.22 3.96 L 23.22 3.96" fill="none" stroke="black" stroke-width="2"></path></svg>