<svg width="48" height="48" viewBox="0 0 48 48" xmlns="http://www.w3.org/2000/svg"><path d="M 9.78 11.100000000000001 C 10.5 11.190000000000001, 10.305 11.129999999999999, 11.22 11.28 C 12.330000000000002 11.489999999999998, 12.480000000000002 11.594999999999999, 13.440000000000001 11.7 C 14.25 11.7, 14.264999999999999 11.669999999999998, 15.059999999999999 11.7 C 15.84 11.76, 15.96 11.79, 16.62 11.82 C 17.160000000000004 11.82, 17.1 11.82, 17.700000000000003 11.82 C 18.36 11.82, 18.645 11.82, 19.02 11.82 L 19.200000000000003 11.82" fill="none" stroke="black" stroke-width="2"></path><path d="M 12.72 2.04 C 12.45 2.49, 12.51 2.07, 12.18 2.94 C 11.79 4.23, 11.744999999999997 4.0200000000000005, 11.399999999999999 5.5200000000000005 C 11.1 7.23, 11.100000000000001 7.544999999999999, 10.8 8.94 C 10.5 10.02, 10.469999999999999 9.675, 10.2 11.100000000000001 C 9.96 12.870000000000001, 9.84 12.345, 9.72 14.64 C 9.72 17.46, 9.795000000000002 17.745, 9.72 20.28 C 9.57 22.53, 9.495000000000001 23.1, 9.42 24.78 C 9.42 25.89, 9.42 26.355, 9.42 27 L 9.42 27.36" fill="none" stroke="black" stroke-width="2"></path><path d="M 10.08 17.04 C 10.65 16.95, 10.65 16.89, 11.22 16.86 C 11.79 16.89, 11.459999999999999 16.244999999999997, 12.36 16.919999999999998 C 13.59 18.24, 13.83 17.759999999999998, 14.82 19.56 C 15.57 21.839999999999996, 15.825000000000001 22.634999999999998, 16.32 24.119999999999997 C 16.56 24.81, 16.68 24.975, 16.799999999999997 25.5 C 16.799999999999997 25.86, 16.799999999999997 26.04, 16.799999999999997 26.22 C 16.799999999999997 26.22, 16.754999999999995 26.189999999999998, 16.799999999999997 26.22 C 16.89 26.279999999999998, 16.83 26.774999999999995, 16.98 26.339999999999996 C 17.189999999999998 25.409999999999997, 16.89 25.83, 17.4 24.48 C 18.21 22.71, 18.33 22.185000000000002, 19.02 20.94 C 19.59 20.22, 19.35 20.205, 20.16 19.5 C 21.21 18.810000000000002, 20.909999999999997 18.69, 22.259999999999998 18.12 C 23.909999999999997 17.67, 24.18 17.445, 25.56 17.22 C 26.67 17.22, 26.79 17.055, 27.78 17.22 C 28.65 17.549999999999997, 28.545 17.279999999999998, 29.52 17.88 C 30.6 18.75, 30.855 18.57, 31.68 19.62 C 32.25 20.85, 32.535 20.94, 32.82 22.080000000000002 C 32.82 23.130000000000003, 32.82 23.175, 32.82 24.18 C 32.82 25.14, 32.82 25.514999999999997, 32.82 26.099999999999998 C 32.82 26.31, 32.82 26.384999999999998, 32.82 26.52 L 32.82 26.64" fill="none" stroke="black" stroke-width="2"></path><path d="M 25.92 17.34 C 26.13 18.990000000000002, 26.235 18.900000000000002, 26.339999999999996 20.64 C 26.339999999999996 22.47, 26.384999999999994 22.544999999999995, 26.339999999999996 24.299999999999997 C 26.25 25.98, 26.505000000000003 25.680000000000003, 26.160000000000004 27.660000000000004 C 25.560000000000002 29.94, 25.860000000000003 30.060000000000002, 24.96 32.22 C 23.759999999999998 34.26, 23.729999999999997 34.67999999999999, 22.56 36.3 C 21.42 37.5, 21.825000000000003 37.410000000000004, 20.28 38.7 C 18.33 40.08, 17.939999999999998 40.47, 16.38 41.46 C 15.209999999999999 42.06, 14.895 42.225, 14.04 42.660000000000004 C 13.5 42.93000000000001, 13.455000000000002 42.96000000000001, 12.96 43.2 C 12.51 43.41, 12.405 43.515, 12.059999999999999 43.62 L 11.58 43.62" fill="none" stroke="black" stroke-width="2"></path></svg>