<svg width="48" height="48" viewBox="0 0 48 48" xmlns="http://www.w3.org/2000/svg"><path d="M 9.06 9.66 C 9.870000000000001 9.66, 9.705 9.66, 10.68 9.66 C 11.82 9.66, 12.180000000000001 9.66, 12.96 9.66 C 13.379999999999999 9.66, 13.454999999999998 9.66, 13.799999999999999 9.66 C 14.07 9.66, 14.16 9.66, 14.34 9.66 L 14.52 9.66" fill="none" stroke="black" stroke-width="2"></path><path d="M 9.48 3.3600000000000003 C 9.33 3.8400000000000003, 9.33 3.5250000000000004, 9.18 4.32 C 9.03 5.430000000000001, 9.044999999999998 5.370000000000001, 8.879999999999999 6.540000000000001 C 8.7 7.7700000000000005, 8.61 7.710000000000001, 8.52 9 C 8.52 10.35, 8.52 10.53, 8.52 11.7 C 8.52 12.69, 8.52 12.39, 8.52 13.68 C 8.52 15.27, 8.52 15.059999999999999, 8.52 16.86 C 8.52 18.869999999999997, 8.504999999999999 18.494999999999997, 8.52 20.88 C 8.55 23.64, 8.52 24.180000000000003, 8.58 26.400000000000002 C 8.67 28.08, 8.64 27.75, 8.76 29.759999999999998 C 8.91 32.099999999999994, 8.985 32.55, 9.06 34.44 C 9.06 35.879999999999995, 9.015 36, 9.06 37.32 C 9.15 38.519999999999996, 9.165000000000001 38.79, 9.24 39.72 C 9.3 40.379999999999995, 9.33 40.575, 9.36 41.04 C 9.36 41.31, 9.36 41.415, 9.36 41.58 C 9.36 41.64, 9.36 41.67, 9.36 41.7 L 9.36 41.7" fill="none" stroke="black" stroke-width="2"></path><path d="M 9.18 36.3 C 9.54 36.269999999999996, 9.149999999999999 36.255, 9.899999999999999 36.24 C 11.04 36.24, 10.995 36.24, 12.18 36.24 C 13.41 36.24, 13.620000000000001 36.285000000000004, 14.64 36.24 C 15.45 36.150000000000006, 15.494999999999997 36.165000000000006, 16.259999999999998 36.06 C 16.98 35.94, 17.340000000000003 35.88, 17.700000000000003 35.82 L 17.700000000000003 35.82" fill="none" stroke="black" stroke-width="2"></path><path d="M 10.26 29.339999999999996 C 11.04 29.339999999999996, 10.8 29.339999999999996, 11.82 29.339999999999996 C 13.08 29.339999999999996, 13.365 29.399999999999995, 14.34 29.339999999999996 C 15.030000000000001 29.22, 14.925 29.159999999999997, 15.72 29.099999999999998 C 16.62 29.099999999999998, 16.56 29.189999999999998, 17.52 29.099999999999998 C 18.54 28.92, 18.645 28.965, 19.56 28.740000000000002 C 20.369999999999997 28.470000000000002, 20.64 28.440000000000005, 21.18 28.200000000000003 C 21.45 27.990000000000002, 21.375 28.11, 21.72 27.78 C 22.14 27.330000000000002, 22.2 27.735000000000003, 22.56 26.880000000000003 C 22.86 25.62, 23.009999999999998 25.545, 23.16 24.36 C 23.16 23.25, 23.16 23.235, 23.16 22.14 C 23.16 21.060000000000002, 23.22 21.405, 23.16 19.98 C 23.04 18.21, 23.04 18.18, 22.919999999999998 16.44 C 22.799999999999997 14.73, 22.785 14.385, 22.68 13.02 C 22.59 12, 22.65 12.09, 22.5 10.98 C 22.29 9.780000000000001, 22.230000000000004 9.6, 22.080000000000002 8.58 C 21.990000000000002 7.74, 21.99 7.545, 21.9 6.8999999999999995 C 21.81 6.449999999999999, 21.765 6.27, 21.72 6 C 21.72 5.91, 21.72 5.985, 21.72 5.82 C 21.72 5.58, 21.72 5.46, 21.72 5.34 C 21.72 5.34, 21.72 5.34, 21.72 5.34 L 21.72 5.34" fill="none" stroke="black" stroke-width="2"></path></svg>