<svg width="48" height="48" viewBox="0 0 48 48" xmlns="http://www.w3.org/2000/svg"><path d="M 12.600000000000001 11.399999999999999 C 13.23 11.399999999999999, 13.274999999999999 11.399999999999999, 13.86 11.399999999999999 C 14.4 11.399999999999999, 14.280000000000001 11.399999999999999, 14.940000000000001 11.399999999999999 C 15.72 11.399999999999999, 15.72 11.399999999999999, 16.5 11.399999999999999 C 17.28 11.399999999999999, 17.325 11.399999999999999, 18.06 11.399999999999999 C 18.75 11.399999999999999, 18.915 11.459999999999997, 19.44 11.399999999999999 C 19.8 11.28, 19.845 11.235, 20.16 11.16 L 20.700000000000003 11.100000000000001" fill="none" stroke="black" stroke-width="2"></path><path d="M 13.799999999999999 3.54 C 13.799999999999999 4.050000000000001, 13.889999999999999 3.5250000000000004, 13.799999999999999 4.5600000000000005 C 13.620000000000001 6.12, 13.59 6.074999999999999, 13.440000000000001 7.68 C 13.32 9.33, 13.260000000000002 9.405000000000001, 13.200000000000001 10.98 C 13.200000000000001 12.48, 13.200000000000001 12.615, 13.200000000000001 13.98 C 13.200000000000001 15.21, 13.260000000000002 15.045000000000002, 13.200000000000001 16.44 C 13.080000000000002 18, 13.020000000000001 17.549999999999997, 12.96 19.56 C 12.96 22.02, 13.065000000000001 22.02, 12.96 24.48 C 12.75 26.94, 12.765 27.360000000000003, 12.54 29.400000000000002 C 12.299999999999999 31.020000000000003, 12.284999999999998 30.825, 12.059999999999999 32.64 C 11.85 34.650000000000006, 11.85 34.830000000000005, 11.64 36.660000000000004 C 11.43 38.31, 11.370000000000001 38.7, 11.22 39.96 C 11.13 40.83, 11.085 41.025000000000006, 11.040000000000001 41.7 C 11.040000000000001 42.18000000000001, 11.040000000000001 42.42, 11.040000000000001 42.660000000000004 C 11.040000000000001 42.660000000000004, 11.040000000000001 42.660000000000004, 11.040000000000001 42.660000000000004 L 11.040000000000001 42.660000000000004" fill="none" stroke="black" stroke-width="2"></path><path d="M 13.620000000000001 18.66 C 14.040000000000001 18.66, 13.815000000000001 18.645, 14.46 18.66 C 15.330000000000002 18.689999999999998, 14.970000000000002 18.705, 16.200000000000003 18.72 C 17.79 18.72, 17.805 18.72, 19.38 18.72 C 20.939999999999998 18.72, 21.18 18.689999999999998, 22.5 18.72 C 23.580000000000002 18.78, 23.400000000000006 18.78, 24.660000000000004 18.84 C 26.1 18.9, 26.235 18.84, 27.54 18.96 C 28.71 19.14, 28.950000000000003 19.14, 29.880000000000003 19.32 C 30.57 19.5, 30.645 19.455, 31.259999999999998 19.68 C 31.799999999999997 19.95, 31.754999999999995 19.604999999999997, 32.339999999999996 20.22 C 32.97 21.18, 33.224999999999994 20.535, 33.599999999999994 22.14 C 33.72 24.39, 33.779999999999994 24.255000000000003, 33.839999999999996 26.64 C 33.839999999999996 29.16, 34.065 29.505000000000003, 33.839999999999996 31.68 C 33.39 33.51, 33.345 33.464999999999996, 32.94 35.339999999999996 C 32.58 37.26, 32.504999999999995 37.74, 32.22 39.18 C 32.01 40.14, 31.904999999999998 40.349999999999994, 31.799999999999997 41.099999999999994 C 31.799999999999997 41.64, 31.799999999999997 41.879999999999995, 31.799999999999997 42.18 C 31.799999999999997 42.239999999999995, 31.799999999999997 42.269999999999996, 31.799999999999997 42.3 L 31.799999999999997 42.3" fill="none" stroke="black" stroke-width="2"></path><path d="M 22.98 26.400000000000002 C 22.8 26.400000000000002, 22.875 26.070000000000004, 22.62 26.400000000000002 C 22.29 27.060000000000002, 22.05 27.12, 21.96 27.72 C 22.11 28.259999999999998, 22.034999999999997 28.484999999999996, 22.259999999999998 28.799999999999997 C 22.56 28.89, 22.619999999999997 29.265, 22.86 28.98 C 23.04 28.32, 23.265 28.275000000000006, 23.22 27.660000000000004 C 22.95 27.090000000000003, 22.95 26.880000000000003, 22.68 26.52 C 22.41 26.369999999999997, 22.71 26.04, 22.14 26.22 C 21.27 26.73, 20.759999999999998 26.520000000000003, 20.4 27.240000000000002 C 20.55 28.17, 20.295 28.455, 20.700000000000003 29.099999999999998 C 21.36 29.46, 21.255000000000003 29.73, 22.02 29.82 C 22.89 29.64, 23.13 29.895000000000003, 23.759999999999998 29.46 C 24.15 28.77, 24.584999999999997 28.709999999999997, 24.54 28.08 C 24.060000000000002 27.509999999999998, 24.240000000000002 27.270000000000003, 23.580000000000002 26.94 C 22.740000000000002 26.85, 22.665 26.61, 21.9 26.759999999999998 C 21.21 27.15, 20.82 27.104999999999997, 20.52 27.54 C 20.61 28.02, 20.400000000000002 28.125, 20.700000000000003 28.5 C 21.21 28.77, 21.21 29.07, 21.72 29.04 C 22.23 28.71, 22.455000000000002 28.680000000000003, 22.740000000000002 28.380000000000003 C 22.8 28.11, 22.86 28.049999999999997, 22.86 27.839999999999996 L 22.740000000000002 27.54" fill="none" stroke="black" stroke-width="2"></path><path d="M 16.32 35.58 C 16.77 35.58, 16.14 35.64, 17.22 35.58 C 18.93 35.459999999999994, 19.155 35.4, 20.64 35.339999999999996 C 21.9 35.339999999999996, 22.005000000000003 35.339999999999996, 23.16 35.339999999999996 C 24.21 35.339999999999996, 24.314999999999998 35.279999999999994, 25.259999999999998 35.339999999999996 C 26.1 35.459999999999994, 26.490000000000002 35.519999999999996, 26.94 35.58 C 27 35.58, 27.03 35.58, 27.06 35.58 L 27.06 35.58" fill="none" stroke="black" stroke-width="2"></path></svg>