<svg width="48" height="48" viewBox="0 0 48 48" xmlns="http://www.w3.org/2000/svg"><path d="M 17.1 13.02 C 17.7 12.99, 17.685 12.975000000000001, 18.299999999999997 12.96 C 18.93 12.96, 18.509999999999998 12.96, 19.56 12.96 C 21.03 12.96, 21.165 12.96, 22.5 12.96 C 23.700000000000003 12.96, 23.67 13.005, 24.900000000000002 12.96 C 26.160000000000004 12.870000000000001, 26.595000000000002 12.825, 27.42 12.78 C 27.810000000000002 12.78, 27.975 12.78, 28.200000000000003 12.78 L 28.32 12.78" fill="none" stroke="black" stroke-width="2"></path><path d="M 18.54 3.54 C 18.33 4.4399999999999995, 18.285 3.99, 18.12 5.34 C 18 7.14, 17.985 7.545, 17.88 8.94 C 17.79 9.93, 17.85 9.645, 17.700000000000003 10.92 C 17.490000000000002 12.48, 17.415000000000003 12.374999999999998, 17.28 14.04 C 17.22 15.81, 17.205 15.780000000000001, 17.16 17.580000000000002 C 17.130000000000003 19.410000000000004, 17.115000000000002 19.695000000000004, 17.1 21.240000000000002 C 17.1 22.5, 17.1 22.56, 17.1 23.759999999999998 C 17.1 24.9, 17.1 25.424999999999997, 17.1 26.04 L 17.1 26.22" fill="none" stroke="black" stroke-width="2"></path><path d="M 16.62 32.88 C 16.439999999999998 32.88, 16.56 32.31, 16.259999999999998 32.88 C 15.839999999999998 34.02, 15.329999999999998 34.50000000000001, 15.419999999999998 35.160000000000004 C 16.02 35.34, 15.885000000000002 35.81999999999999, 16.62 35.519999999999996 C 17.490000000000002 34.739999999999995, 18.105 34.8, 18.36 33.96 C 18 33.06, 18.375 32.685, 17.64 32.160000000000004 C 16.53 32.010000000000005, 16.02 31.335, 15.419999999999998 31.86 C 15.329999999999998 33.06, 15.030000000000001 33.48, 15.24 34.26 C 15.75 34.620000000000005, 15.614999999999998 35.34, 16.259999999999998 34.980000000000004 C 17.04 33.900000000000006, 17.595 33.660000000000004, 17.82 32.82 C 17.490000000000002 32.22, 17.535 31.724999999999994, 17.16 31.619999999999997 C 16.740000000000002 32.010000000000005, 16.53 31.920000000000005, 16.32 32.400000000000006 L 16.32 33.54" fill="none" stroke="black" stroke-width="2"></path><path d="M 12.66 42.18 C 15.479999999999999 42.51, 16.334999999999997 42.629999999999995, 18.299999999999997 42.839999999999996 C 19.409999999999997 42.92999999999999, 19.29 42.959999999999994, 20.52 43.019999999999996 C 21.869999999999997 43.05, 22.035 43.065, 23.22 43.08 C 24.24 43.08, 24.705 43.08, 25.259999999999998 43.08 L 25.44 43.08" fill="none" stroke="black" stroke-width="2"></path></svg>