<svg width="48" height="48" viewBox="0 0 48 48" xmlns="http://www.w3.org/2000/svg"><path d="M 12.84 19.02 C 13.29 19.05, 13.17 19.065, 13.74 19.080000000000002 C 14.43 19.080000000000002, 13.935 19.080000000000002, 15.120000000000001 19.080000000000002 C 16.8 19.080000000000002, 17.34 19.080000000000002, 18.48 19.080000000000002 C 19.08 19.080000000000002, 19.38 19.080000000000002, 19.68 19.080000000000002 L 19.68 19.080000000000002" fill="none" stroke="black" stroke-width="2"></path><path d="M 16.62 13.200000000000001 C 16.08 14.100000000000001, 16.095 14.100000000000001, 15.54 15 C 14.969999999999999 15.899999999999999, 14.984999999999998 15.749999999999996, 14.399999999999999 16.799999999999997 C 13.8 18, 13.74 18.045, 13.200000000000001 19.200000000000003 C 12.72 20.310000000000002, 12.63 20.205, 12.24 21.419999999999998 C 11.940000000000001 22.74, 11.64 23.115, 11.64 24.06 C 11.940000000000001 24.630000000000003, 11.565000000000001 24.885, 12.24 25.200000000000003 C 13.29 25.26, 12.54 25.305, 14.34 25.32 C 16.89 25.29, 16.770000000000003 25.47, 19.44 25.259999999999998 C 22.23 24.869999999999997, 22.815 24.675, 25.02 24.48 C 26.64 24.48, 27 24.585, 28.259999999999998 24.48 C 29.159999999999997 24.27, 29.459999999999997 24.39, 30.06 24.06 C 30.36 23.61, 30.51 24.27, 30.660000000000004 23.16 C 30.660000000000004 21.39, 30.780000000000005 22.05, 30.660000000000004 19.62 C 30.42 16.53, 30.765 16.35, 30.18 13.440000000000001 C 29.25 10.71, 28.92 9.870000000000001, 28.32 7.98 C 28.05 6.93, 28.080000000000002 6.6899999999999995, 27.78 5.88 C 27.45 5.3100000000000005, 27.299999999999997 5.07, 27.119999999999997 4.74 C 27.089999999999996 4.65, 27.075 4.605, 27.06 4.5600000000000005 C 27.06 4.5600000000000005, 27.104999999999997 4.65, 27.06 4.5600000000000005 L 26.880000000000003 4.199999999999999" fill="none" stroke="black" stroke-width="2"></path><path d="M 22.68 24.660000000000004 C 21.96 25.680000000000003, 22.095000000000002 25.110000000000003, 21.240000000000002 26.700000000000003 C 20.25 28.86, 20.564999999999998 28.41, 19.259999999999998 31.02 C 17.64 34.08, 17.52 34.515, 16.02 37.14 C 14.64 39.33, 14.355 39.9, 13.26 41.519999999999996 L 11.64 43.62" fill="none" stroke="black" stroke-width="2"></path><path d="M 28.86 31.380000000000003 C 27.9 33.39, 28.14 33.480000000000004, 26.94 35.400000000000006 C 25.5 37.230000000000004, 25.455 37.260000000000005, 24.06 39.06 C 22.71 40.83, 22.2 41.504999999999995, 21.36 42.599999999999994 L 20.700000000000003 43.44" fill="none" stroke="black" stroke-width="2"></path></svg>