<svg width="48" height="48" viewBox="0 0 48 48" xmlns="http://www.w3.org/2000/svg"><path d="M 19.799999999999997 9.72 C 20.22 9.72, 20.085 9.63, 20.64 9.72 C 21.33 9.9, 21.240000000000002 9.9, 22.02 10.08 C 22.89 10.26, 23.055 10.305, 23.759999999999998 10.44 C 24.299999999999997 10.530000000000001, 24.059999999999995 10.575000000000001, 24.839999999999996 10.620000000000001 C 25.86 10.620000000000001, 26.01 10.620000000000001, 26.880000000000003 10.620000000000001 C 27.6 10.620000000000001, 27.87 10.620000000000001, 28.32 10.620000000000001 C 28.5 10.620000000000001, 28.59 10.620000000000001, 28.68 10.620000000000001 L 28.68 10.620000000000001" fill="none" stroke="black" stroke-width="2"></path><path d="M 21.240000000000002 2.82 C 21.240000000000002 3.54, 21.240000000000002 3.525, 21.240000000000002 4.26 C 21.240000000000002 5.01, 21.240000000000002 4.904999999999999, 21.240000000000002 5.76 C 21.240000000000002 6.72, 21.270000000000003 6.705, 21.240000000000002 7.68 C 21.18 8.67, 21.21 8.49, 21.12 9.66 C 21 11.01, 20.985 10.785, 20.88 12.36 C 20.79 14.16, 20.745 14.43, 20.700000000000003 15.96 C 20.700000000000003 17.22, 20.730000000000004 16.98, 20.700000000000003 18.48 C 20.64 20.22, 20.700000000000003 20.22, 20.580000000000002 21.96 C 20.4 23.700000000000003, 20.355 23.67, 20.22 25.44 C 20.13 27.240000000000002, 20.145 27.705, 20.04 29.04 C 19.919999999999998 29.91, 19.86 29.73, 19.799999999999997 30.78 C 19.799999999999997 32.010000000000005, 19.799999999999997 32.46, 19.799999999999997 33.24 L 19.799999999999997 33.900000000000006" fill="none" stroke="black" stroke-width="2"></path><path d="M 21 33.36 C 19.740000000000002 33.18, 19.35 33.075, 18.48 33 C 18 33.03, 18.09 32.7, 17.52 33.06 C 16.86 33.75, 16.665000000000003 33.18, 16.200000000000003 34.44 C 15.930000000000001 36.269999999999996, 15.9 36.419999999999995, 15.66 38.099999999999994 C 15.45 39.629999999999995, 15.254999999999999 39.870000000000005, 15.24 41.160000000000004 C 15.420000000000002 42.21, 14.940000000000001 42.375, 15.600000000000001 43.26 C 16.740000000000002 43.980000000000004, 16.439999999999998 44.31, 17.88 44.7 C 19.619999999999997 44.760000000000005, 19.919999999999998 45.015, 21.36 44.82 C 22.5 44.370000000000005, 22.755 44.715, 23.64 43.92 C 24.270000000000003 42.78, 24.465000000000003 42.945, 24.900000000000002 41.64 C 25.14 40.17, 25.26 40.035000000000004, 25.380000000000003 38.7 C 25.380000000000003 37.5, 25.620000000000005 37.155, 25.380000000000003 36.3 C 24.900000000000002 35.79, 24.945 35.67, 24.42 35.28 C 23.85 35.010000000000005, 24.075000000000003 34.965, 23.28 34.74 C 22.26 34.56, 22.14 34.59, 21.240000000000002 34.38 C 20.46 34.14, 20.205 34.095000000000006, 19.68 33.900000000000006 C 19.41 33.75, 19.275 33.675, 19.14 33.599999999999994 L 19.14 33.599999999999994" fill="none" stroke="black" stroke-width="2"></path></svg>