<svg width="48" height="48" viewBox="0 0 48 48" xmlns="http://www.w3.org/2000/svg"><path d="M 12.24 30.54 C 12.780000000000001 30.54, 12.345 30.54, 13.32 30.54 C 14.73 30.54, 14.760000000000002 30.54, 16.14 30.54 C 17.490000000000002 30.54, 17.595 30.6, 18.84 30.54 C 19.98 30.419999999999998, 19.875 30.404999999999998, 21.12 30.299999999999997 C 22.47 30.209999999999997, 22.650000000000002 30.209999999999997, 23.82 30.119999999999997 C 24.81 30.03, 24.884999999999998 30.015, 25.799999999999997 29.94 C 26.64 29.880000000000003, 26.715 29.85, 27.48 29.82 C 28.17 29.82, 28.305 29.82, 28.86 29.82 C 29.28 29.82, 29.445 29.82, 29.700000000000003 29.82 L 29.880000000000003 29.82" fill="none" stroke="black" stroke-width="2"></path><path d="M 21.12 19.259999999999998 C 20.759999999999998 18.06, 20.73 18.044999999999998, 20.4 16.86 C 20.099999999999998 15.69, 19.949999999999996 15.465, 19.799999999999997 14.52 C 19.799999999999997 13.8, 19.799999999999997 13.980000000000002, 19.799999999999997 13.080000000000002 C 19.799999999999997 12, 19.799999999999997 11.82, 19.799999999999997 10.92 C 19.799999999999997 10.2, 19.65 10.290000000000001, 19.799999999999997 9.48 C 20.099999999999998 8.58, 20.04 8.445, 20.4 7.68 C 20.82 7.05, 20.970000000000002 6.855, 21.240000000000002 6.42 C 21.36 6.18, 21.255000000000003 6.18, 21.48 5.9399999999999995 C 21.810000000000002 5.699999999999999, 21.810000000000002 5.609999999999999, 22.14 5.46 C 22.47 5.4, 22.529999999999998 5.37, 22.799999999999997 5.34 C 23.009999999999998 5.34, 22.904999999999998 5.295, 23.22 5.34 C 23.64 5.43, 23.61 5.265000000000001, 24.06 5.5200000000000005 C 24.54 5.94, 24.57 5.8500000000000005, 25.02 6.36 C 25.439999999999998 6.960000000000001, 25.485 6.915000000000001, 25.86 7.5600000000000005 C 26.189999999999998 8.25, 26.189999999999998 8.1, 26.52 8.94 C 26.85 9.93, 26.865 9.735, 27.18 10.92 C 27.48 12.3, 27.54 12.36, 27.78 13.68 C 27.96 14.940000000000001, 27.915 15.150000000000002, 28.14 16.200000000000003 C 28.41 17.04, 28.41 16.814999999999998, 28.68 17.88 C 28.95 19.17, 29.025 19.425, 29.22 20.46 C 29.34 21.240000000000002, 29.295 21.15, 29.46 22.02 C 29.67 22.98, 29.730000000000004 22.89, 29.880000000000003 23.94 C 29.97 25.08, 29.924999999999997 25.05, 30.06 26.22 C 30.240000000000002 27.419999999999998, 30.330000000000002 27.449999999999996, 30.42 28.619999999999997 C 30.42 29.759999999999998, 30.42 29.61, 30.42 30.900000000000002 C 30.42 32.34, 30.42 32.565000000000005, 30.42 33.78 C 30.42 34.769999999999996, 30.465000000000003 34.8, 30.42 35.76 C 30.330000000000002 36.69, 30.435000000000002 36.69, 30.240000000000002 37.62 C 29.94 38.55, 29.91 38.775000000000006, 29.64 39.480000000000004 C 29.400000000000002 39.96, 29.520000000000003 39.81, 29.160000000000004 40.44 C 28.680000000000003 41.22, 28.740000000000002 41.28, 28.200000000000003 42 C 27.6 42.66, 27.525000000000002 42.78, 27 43.32 C 26.549999999999997 43.74, 26.58 43.845000000000006, 26.099999999999998 44.160000000000004 C 25.589999999999996 44.370000000000005, 25.529999999999998 44.43, 25.08 44.58 C 24.689999999999998 44.67, 24.734999999999996 44.714999999999996, 24.299999999999997 44.76 C 23.82 44.76, 24.015 44.97, 23.34 44.76 C 22.47 44.34, 22.35 44.61, 21.6 43.92 C 20.97 42.96, 20.745 42.765, 20.34 42 C 20.16 41.43, 20.07 41.445, 19.98 40.86 C 19.98 40.260000000000005, 19.845 40.425000000000004, 19.98 39.660000000000004 C 20.25 38.730000000000004, 20.1 38.595, 20.52 37.8 C 21.09 37.14, 20.88 37.050000000000004, 21.66 36.480000000000004 C 22.65 36, 22.755 35.81999999999999, 23.64 35.519999999999996 C 24.42 35.4, 24.285000000000004 35.34, 25.200000000000003 35.28 C 26.25 35.28, 26.459999999999997 35.22, 27.299999999999997 35.28 C 27.93 35.4, 28.034999999999997 35.309999999999995, 28.56 35.519999999999996 C 28.98 35.81999999999999, 29.145000000000003 35.925, 29.400000000000002 36.12 C 29.490000000000002 36.209999999999994, 29.415 36.12, 29.58 36.3 C 29.82 36.56999999999999, 29.939999999999998 36.705, 30.06 36.839999999999996 C 30.06 36.839999999999996, 30.014999999999997 36.809999999999995, 30.06 36.839999999999996 C 30.15 36.9, 30.195 36.93, 30.240000000000002 36.96 L 30.240000000000002 36.96" fill="none" stroke="black" stroke-width="2"></path></svg>