<svg width="48" height="48" viewBox="0 0 48 48" xmlns="http://www.w3.org/2000/svg"><path d="M 12.84 3.96 C 12.42 5.91, 12.285 5.61, 12 7.86 C 11.85 10.41, 11.774999999999999 10.65, 11.7 12.96 C 11.7 15.030000000000001, 11.7 15.390000000000002, 11.7 17.1 C 11.7 18.45, 11.61 18.72, 11.7 19.799999999999997 C 11.879999999999999 20.61, 11.879999999999999 20.564999999999998, 12.059999999999999 21.419999999999998 C 12.239999999999998 22.32, 12.224999999999998 22.38, 12.419999999999998 23.22 C 12.629999999999999 24, 12.614999999999998 24.045, 12.84 24.78 C 13.08 25.470000000000002, 13.004999999999999 25.395000000000003, 13.32 26.160000000000004 C 13.71 27, 13.695 27.224999999999998, 14.100000000000001 27.839999999999996 C 14.520000000000001 28.229999999999997, 14.370000000000001 28.229999999999997, 14.940000000000001 28.619999999999997 C 15.66 29.009999999999998, 15.689999999999998 29.1, 16.38 29.400000000000002 C 17.04 29.61, 16.905 29.67, 17.700000000000003 29.82 C 18.630000000000003 29.91, 18.494999999999997 29.91, 19.56 30 C 20.759999999999998 30.09, 20.625 30.134999999999998, 21.96 30.18 C 23.43 30.18, 23.835 30.18, 24.900000000000002 30.18 C 25.560000000000002 30.18, 25.65 30.18, 26.22 30.18 C 26.7 30.18, 26.79 30.18, 27.18 30.18 C 27.48 30.18, 27.48 30.21, 27.78 30.18 C 28.080000000000002 30.119999999999997, 28.095000000000002 30.195, 28.380000000000003 30.06 C 28.650000000000002 29.85, 28.680000000000003 29.865, 28.92 29.64 C 29.13 29.400000000000002, 29.129999999999995 29.565000000000005, 29.339999999999996 29.160000000000004 C 29.549999999999997 28.590000000000003, 29.595 28.47, 29.759999999999998 28.02 C 29.88 27.689999999999998, 29.865000000000002 27.869999999999997, 30 27.36 C 30.15 26.67, 30.179999999999996 26.565, 30.299999999999997 25.98 C 30.39 25.5, 30.435 25.605, 30.48 25.02 C 30.48 24.33, 30.48 24.3, 30.48 23.64 C 30.48 23.009999999999998, 30.585 22.905, 30.48 22.38 C 30.27 21.96, 30.345 21.93, 30.06 21.54 C 29.699999999999996 21.18, 29.699999999999996 21.15, 29.339999999999996 20.82 C 28.979999999999997 20.52, 29.189999999999998 20.564999999999998, 28.619999999999997 20.22 C 27.839999999999996 19.83, 27.765 19.740000000000002, 27.06 19.44 C 26.43 19.23, 26.384999999999998 19.125, 25.799999999999997 19.02 C 25.259999999999998 19.02, 25.32 18.915, 24.72 19.02 C 24.06 19.23, 23.97 19.185000000000002, 23.4 19.44 C 22.92 19.740000000000002, 22.935000000000002 19.634999999999998, 22.44 20.04 C 21.93 20.549999999999997, 21.884999999999998 20.595, 21.419999999999998 21.06 C 21 21.479999999999997, 20.94 21.375, 20.580000000000002 21.9 C 20.28 22.53, 20.130000000000003 22.814999999999998, 19.98 23.16 C 19.98 23.22, 19.98 23.25, 19.98 23.28 C 19.98 23.28, 19.98 23.28, 19.98 23.28 L 19.98 23.28" fill="none" stroke="black" stroke-width="2"></path><path d="M 22.740000000000002 34.38 C 21.720000000000002 34.35, 21.540000000000003 34.17, 20.700000000000003 34.32 C 20.04 34.650000000000006, 19.95 34.48500000000001, 19.38 34.980000000000004 C 18.9 35.64, 18.764999999999997 35.685, 18.419999999999998 36.3 C 18.21 36.87, 18.105 36.794999999999995, 18 37.44 C 18 38.16, 18 38.07, 18 38.88 C 18 39.78, 17.88 39.81, 18 40.68 C 18.240000000000002 41.519999999999996, 18.060000000000002 41.64, 18.48 42.36 C 19.08 42.96, 19.215 43.155, 19.68 43.56 C 20.009999999999998 43.77, 19.86 43.800000000000004, 20.34 43.980000000000004 C 20.97 44.13, 20.970000000000002 44.205, 21.6 44.28 C 22.23 44.28, 22.29 44.415, 22.86 44.28 C 23.369999999999997 44.010000000000005, 23.43 44.07, 23.88 43.74 C 24.270000000000003 43.35, 24.330000000000002 43.410000000000004, 24.660000000000004 42.96 C 24.930000000000003 42.45, 25.005000000000003 42.495, 25.200000000000003 41.94 C 25.32 41.34, 25.335 41.385000000000005, 25.44 40.74 C 25.53 40.05, 25.575 39.99, 25.619999999999997 39.36 C 25.619999999999997 38.79, 25.619999999999997 38.58, 25.619999999999997 38.22 C 25.619999999999997 38.07, 25.664999999999996 38.19, 25.619999999999997 37.92 C 25.53 37.53, 25.605 37.5, 25.44 37.14 C 25.200000000000003 36.81, 25.26 36.825, 24.96 36.480000000000004 C 24.6 36.120000000000005, 24.495 36.06, 24.240000000000002 35.76 C 24.090000000000003 35.519999999999996, 24.18 35.535, 23.94 35.28 C 23.61 35.010000000000005, 23.580000000000002 34.935, 23.28 34.74 C 23.01 34.620000000000005, 22.995000000000005 34.59, 22.740000000000002 34.5 C 22.5 34.44, 22.38 34.410000000000004, 22.259999999999998 34.38 C 22.259999999999998 34.38, 22.259999999999998 34.38, 22.259999999999998 34.38 L 22.259999999999998 34.38" fill="none" stroke="black" stroke-width="2"></path></svg>