<svg width="48" height="48" viewBox="0 0 48 48" xmlns="http://www.w3.org/2000/svg"><path d="M 24.96 34.8 C 24.87 35.34, 24.87 35.28, 24.78 35.88 C 24.689999999999998 36.540000000000006, 24.735 36.540000000000006, 24.599999999999998 37.2 C 24.42 37.86, 24.450000000000003 37.934999999999995, 24.240000000000002 38.519999999999996 C 24 39.03, 24.134999999999998 39.06, 23.759999999999998 39.54 C 23.25 39.989999999999995, 23.415000000000003 39.915, 22.740000000000002 40.44 C 21.9 41.04, 21.884999999999998 41.16, 21.06 41.64 C 20.25 42, 20.04 42.18, 19.44 42.36 C 19.05 42.36, 19.23 42.39, 18.66 42.36 C 17.91 42.3, 17.88 42.435, 17.16 42.24 C 16.47 41.91, 16.29 41.849999999999994, 15.78 41.58 C 15.45 41.370000000000005, 15.465000000000002 41.44500000000001, 15.120000000000001 41.160000000000004 C 14.76 40.8, 14.79 40.95, 14.399999999999999 40.44 C 13.979999999999999 39.78, 13.889999999999997 39.794999999999995, 13.559999999999999 39.12 C 13.32 38.43, 13.215000000000002 38.49, 13.080000000000002 37.74 C 13.05 36.93, 13.035 36.855, 13.02 36.12 C 13.02 35.459999999999994, 12.975 35.55, 13.02 34.8 C 13.11 33.959999999999994, 12.990000000000002 33.915, 13.200000000000001 33.12 C 13.530000000000001 32.37, 13.635 32.114999999999995, 13.86 31.619999999999997 C 13.98 31.38, 13.815000000000001 31.439999999999998, 14.100000000000001 31.14 C 14.55 30.78, 14.415 30.795, 15 30.42 C 15.72 30.03, 15.510000000000002 29.985, 16.44 29.64 C 17.58 29.34, 17.835 29.189999999999998, 18.72 29.04 C 19.35 29.04, 19.47 29.04, 19.98 29.04 C 20.369999999999997 29.04, 20.25 29.009999999999998, 20.759999999999998 29.04 C 21.39 29.1, 21.39 29.070000000000004, 22.02 29.160000000000004 C 22.65 29.28, 22.650000000000002 29.340000000000003, 23.28 29.400000000000002 C 23.91 29.400000000000002, 23.955 29.400000000000002, 24.54 29.400000000000002 C 25.08 29.400000000000002, 25.199999999999996 29.415000000000003, 25.619999999999997 29.400000000000002 C 25.919999999999998 29.369999999999997, 25.86 29.519999999999996, 26.22 29.339999999999996 C 26.64 29.009999999999998, 26.564999999999998 29.145, 27.06 28.68 C 27.630000000000003 28.08, 27.750000000000004 28.185000000000002, 28.200000000000003 27.48 C 28.53 26.67, 28.59 26.73, 28.86 25.86 C 29.07 24.93, 29.115000000000002 25.005, 29.28 24 C 29.4 22.92, 29.46 22.86, 29.52 21.84 C 29.52 20.88, 29.52 21.075, 29.52 19.919999999999998 C 29.52 18.57, 29.655 18.525, 29.52 17.22 C 29.25 15.96, 29.25 15.915000000000001, 28.98 14.700000000000001 C 28.71 13.530000000000001, 28.68 13.274999999999999, 28.44 12.36 C 28.23 11.7, 28.23 11.610000000000001, 28.02 11.040000000000001 C 27.81 10.56, 27.884999999999998 10.74, 27.599999999999998 10.08 C 27.240000000000002 9.239999999999998, 27.165000000000003 8.954999999999998, 26.880000000000003 8.399999999999999 C 26.67 8.129999999999999, 26.700000000000003 8.115, 26.46 7.86 C 26.19 7.62, 26.175 7.5600000000000005, 25.92 7.38 C 25.68 7.26, 25.755000000000003 7.245, 25.44 7.14 C 25.050000000000004 7.049999999999999, 25.005000000000003 7.004999999999999, 24.660000000000004 6.959999999999999 C 24.36 6.959999999999999, 24.375 6.914999999999999, 24.06 6.959999999999999 C 23.729999999999997 7.049999999999999, 23.729999999999997 6.959999999999999, 23.4 7.14 C 23.07 7.41, 22.995 7.425, 22.740000000000002 7.68 C 22.560000000000002 7.92, 22.634999999999998 7.8, 22.38 8.16 C 22.049999999999997 8.64, 21.96 8.55, 21.72 9.120000000000001 C 21.57 9.780000000000001, 21.54 9.855, 21.419999999999998 10.44 C 21.33 10.95, 21.285 10.844999999999999, 21.240000000000002 11.459999999999999 C 21.240000000000002 12.18, 21.240000000000002 12.149999999999999, 21.240000000000002 12.899999999999999 C 21.240000000000002 13.68, 21.240000000000002 13.755, 21.240000000000002 14.46 C 21.240000000000002 15.09, 21.21 15.255, 21.240000000000002 15.72 C 21.3 16.02, 21.27 16.02, 21.36 16.32 C 21.48 16.619999999999997, 21.54 16.77, 21.6 16.919999999999998 C 21.6 16.919999999999998, 21.6 16.919999999999998, 21.6 16.919999999999998 L 21.6 16.919999999999998" fill="none" stroke="black" stroke-width="2"></path></svg>