<svg width="48" height="48" viewBox="0 0 48 48" xmlns="http://www.w3.org/2000/svg"><path d="M 10.74 8.879999999999999 C 10.65 11.1, 10.605 11.34, 10.56 13.32 C 10.56 15.059999999999999, 10.56 14.684999999999997, 10.56 16.799999999999997 C 10.56 19.29, 10.485000000000001 19.485, 10.56 21.78 C 10.71 23.880000000000003, 10.754999999999999 23.880000000000003, 10.86 25.98 C 10.92 28.08, 10.905000000000001 28.245, 10.98 30.18 C 11.07 31.95, 11.115 32.205, 11.16 33.72 C 11.16 34.980000000000004, 11.16 34.935, 11.16 36.24 C 11.16 37.59, 11.115 37.83, 11.16 38.94 C 11.25 39.81, 11.295 39.975, 11.34 40.68 C 11.34 41.22, 11.295 41.4, 11.34 41.76 C 11.43 41.94, 11.475 41.955, 11.52 42.12 C 11.52 42.269999999999996, 11.52 42.345, 11.52 42.42 C 11.52 42.42, 11.52 42.42, 11.52 42.42 C 11.52 42.42, 11.52 42.42, 11.52 42.42 C 11.52 42.42, 11.52 42.42, 11.52 42.42 C 11.52 42.42, 11.52 42.42, 11.52 42.42 L 11.52 42.42" fill="none" stroke="black" stroke-width="2"></path><path d="M 11.34 31.98 C 12.66 31.590000000000003, 12.240000000000002 31.740000000000002, 13.98 31.200000000000003 C 16.14 30.51, 16.634999999999998 30.165, 18.299999999999997 29.82 C 19.47 29.82, 19.68 29.82, 20.64 29.82 C 21.39 29.82, 21.51 29.82, 22.14 29.82 C 22.65 29.82, 22.560000000000002 29.82, 23.16 29.82 C 23.85 29.82, 23.925 29.82, 24.54 29.82 C 25.08 29.82, 25.11 29.865000000000002, 25.619999999999997 29.82 C 26.099999999999998 29.73, 26.205 29.925, 26.58 29.64 C 26.849999999999998 29.16, 26.924999999999997 29.52, 27.119999999999997 28.68 C 27.24 27.48, 27.299999999999997 27.735, 27.36 26.28 C 27.36 24.57, 27.375 24.63, 27.36 22.86 C 27.33 21.03, 27.389999999999997 21.075000000000003, 27.299999999999997 19.200000000000003 C 27.15 17.28, 27.18 17.085, 27 15.36 C 26.79 13.829999999999998, 26.805 13.814999999999998, 26.58 12.299999999999999 C 26.339999999999996 10.8, 26.324999999999996 10.455, 26.099999999999998 9.3 C 25.89 8.49, 25.875 8.25, 25.68 7.68 C 25.5 7.35, 25.545 7.244999999999999, 25.32 7.02 C 25.05 6.8999999999999995, 25.065 6.84, 24.78 6.779999999999999 C 24.48 6.779999999999999, 24.66 6.569999999999999, 24.18 6.779999999999999 C 23.52 7.199999999999999, 23.43 7.154999999999999, 22.86 7.62 C 22.38 8.13, 22.305 8.07, 21.9 8.64 C 21.57 9.27, 21.57 9.059999999999999, 21.240000000000002 9.899999999999999 C 20.910000000000004 10.95, 20.925000000000004 10.71, 20.580000000000002 12 C 20.22 13.53, 20.04 13.395, 19.86 15.059999999999999 C 19.86 16.86, 19.86 17.61, 19.86 18.66 C 19.86 18.96, 19.86 19.11, 19.86 19.259999999999998 L 19.86 19.259999999999998" fill="none" stroke="black" stroke-width="2"></path></svg>