<svg width="48" height="48" viewBox="0 0 48 48" xmlns="http://www.w3.org/2000/svg"><path d="M 10.5 29.160000000000004 C 11.129999999999999 29.130000000000003, 10.635 29.025, 11.76 29.099999999999998 C 13.379999999999999 29.28, 13.62 29.384999999999998, 15 29.46 C 16.14 29.43, 16.29 29.550000000000004, 17.28 29.400000000000002 C 18.12 29.130000000000003, 18 29.64, 18.96 28.86 C 20.04 27.57, 20.355 27.54, 21.12 26.28 C 21.57 25.05, 21.765 24.87, 22.02 23.82 C 22.08 22.950000000000003, 22.11 22.515, 22.14 22.080000000000002 C 22.14 22.080000000000002, 22.14 22.080000000000002, 22.14 22.080000000000002 C 22.14 22.080000000000002, 22.11 21.69, 22.14 22.080000000000002 C 22.2 22.86, 22.229999999999997 22.14, 22.259999999999998 23.64 C 22.259999999999998 25.86, 22.125 26.474999999999998, 22.259999999999998 28.08 C 22.529999999999998 29.07, 22.364999999999995 29.415, 22.799999999999997 30.06 C 23.4 30.36, 23.099999999999998 30.675000000000004, 24 30.660000000000004 C 25.200000000000003 30.330000000000002, 25.380000000000003 30.840000000000003, 26.400000000000002 30 C 27.240000000000002 28.65, 27.435 28.934999999999995, 28.08 27.299999999999997 C 28.53 25.38, 28.634999999999998 25.86, 28.98 23.46 C 29.22 20.580000000000002, 29.34 20.250000000000004, 29.46 17.700000000000003 C 29.46 15.48, 29.55 15.42, 29.46 13.26 C 29.28 11.16, 29.31 10.68, 29.099999999999998 9.06 C 28.86 7.92, 28.994999999999997 7.77, 28.619999999999997 6.779999999999999 C 28.11 5.9399999999999995, 28.08 5.7749999999999995, 27.599999999999998 5.1 C 27.15 4.59, 27.240000000000002 4.575, 26.700000000000003 4.08 C 26.07 3.6, 25.950000000000003 3.39, 25.44 3.12 C 25.050000000000004 3.06, 25.110000000000003 2.91, 24.660000000000004 3 C 24.150000000000002 3.2399999999999998, 24.105000000000004 3.1499999999999995, 23.64 3.4799999999999995 C 23.22 3.9, 23.279999999999998 3.6900000000000004, 22.799999999999997 4.32 C 22.259999999999998 5.16, 22.29 5.01, 21.72 6 C 21.119999999999997 7.14, 21.075 6.93, 20.52 8.28 C 20.009999999999998 9.84, 19.92 9.899999999999999, 19.5 11.399999999999999 C 19.17 12.84, 19.005 13.41, 18.84 14.28 C 18.84 14.579999999999998, 18.84 14.729999999999999, 18.84 14.879999999999999 L 18.84 14.879999999999999" fill="none" stroke="black" stroke-width="2"></path><path d="M 21.78 26.339999999999996 C 21.78 26.88, 21.810000000000002 26.805, 21.78 27.42 C 21.72 28.11, 21.735 28.139999999999997, 21.66 28.799999999999997 C 21.57 29.43, 21.585 29.235, 21.48 30.06 C 21.36 31.08, 21.435000000000002 30.914999999999996, 21.240000000000002 32.099999999999994 C 20.970000000000002 33.449999999999996, 21.000000000000004 33.629999999999995, 20.700000000000003 34.8 C 20.37 35.79, 20.31 35.985, 20.04 36.78 C 19.83 37.38, 19.905 37.35000000000001, 19.62 37.980000000000004 C 19.259999999999998 38.64, 19.335 38.64, 18.9 39.3 C 18.39 39.959999999999994, 18.479999999999997 39.974999999999994, 17.88 40.62 C 17.189999999999998 41.25, 17.13 41.355000000000004, 16.5 41.88 C 15.93 42.3, 15.885 42.375, 15.36 42.72 C 14.879999999999999 42.989999999999995, 14.939999999999998 42.989999999999995, 14.399999999999999 43.26 C 13.8 43.53, 13.575000000000001 43.62, 13.200000000000001 43.8 C 13.05 43.89, 12.975 43.935, 12.899999999999999 43.980000000000004 C 12.899999999999999 43.980000000000004, 12.899999999999999 43.980000000000004, 12.899999999999999 43.980000000000004 L 12.899999999999999 43.980000000000004" fill="none" stroke="black" stroke-width="2"></path></svg>