<svg width="48" height="48" viewBox="0 0 48 48" xmlns="http://www.w3.org/2000/svg"><path d="M 13.02 44.400000000000006 C 12.899999999999999 43.77, 12.93 43.935, 12.78 43.14 C 12.599999999999998 42.18, 12.554999999999998 42.12, 12.419999999999998 41.22 C 12.329999999999998 40.379999999999995, 12.3 40.394999999999996, 12.24 39.54 C 12.21 38.67, 12.209999999999999 38.504999999999995, 12.18 37.8 C 12.15 37.26, 12.135000000000002 37.14, 12.120000000000001 36.72 C 12.120000000000001 36.42, 12.120000000000001 36.54, 12.120000000000001 36.12 C 12.120000000000001 35.58, 12.120000000000001 35.504999999999995, 12.120000000000001 35.04 C 12.120000000000001 34.65, 12.015 34.724999999999994, 12.120000000000001 34.26 C 12.33 33.72, 12.375 33.54, 12.54 33.18 C 12.66 33, 12.674999999999999 32.955, 12.78 32.82 C 12.870000000000001 32.730000000000004, 12.795 32.715, 12.96 32.64 C 13.200000000000001 32.58, 12.975000000000001 32.55, 13.440000000000001 32.519999999999996 C 14.13 32.519999999999996, 14.325000000000001 32.519999999999996, 14.82 32.519999999999996 C 15.12 32.519999999999996, 14.954999999999998 32.504999999999995, 15.419999999999998 32.519999999999996 C 16.049999999999997 32.55, 15.93 32.489999999999995, 16.68 32.58 C 17.549999999999997 32.730000000000004, 17.685 32.805, 18.419999999999998 32.88 C 19.02 32.88, 19.08 32.88, 19.62 32.88 C 20.1 32.88, 20.07 32.88, 20.580000000000002 32.88 C 21.12 32.88, 21.21 32.88, 21.66 32.88 C 22.02 32.88, 21.96 32.895, 22.38 32.88 C 22.86 32.85, 22.935 32.88, 23.34 32.82 C 23.67 32.730000000000004, 23.595 32.760000000000005, 24 32.64 C 24.48 32.489999999999995, 24.57 32.474999999999994, 24.96 32.339999999999996 C 25.259999999999998 32.22, 25.244999999999997 32.26499999999999, 25.56 32.099999999999994 C 25.89 31.889999999999997, 25.95 31.919999999999998, 26.22 31.68 C 26.43 31.41, 26.43 31.62, 26.64 31.14 C 26.85 30.45, 26.865 30.645, 27.06 29.759999999999998 C 27.240000000000002 28.68, 27.27 28.589999999999996, 27.42 27.599999999999998 C 27.540000000000003 26.699999999999996, 27.510000000000005 26.804999999999996, 27.660000000000004 25.799999999999997 C 27.840000000000003 24.689999999999998, 27.93 24.72, 28.02 23.580000000000002 C 28.02 22.410000000000004, 28.02 22.605000000000004, 28.02 21.240000000000002 C 28.02 19.68, 28.11 19.665000000000003, 28.02 18.12 C 27.840000000000003 16.59, 27.855000000000004 16.365, 27.660000000000004 15.059999999999999 C 27.450000000000003 13.979999999999999, 27.450000000000003 14.129999999999999, 27.240000000000002 12.899999999999999 C 27.03 11.52, 26.985 11.1, 26.82 10.14 C 26.7 9.600000000000001, 26.729999999999997 9.615, 26.58 9.06 C 26.4 8.49, 26.369999999999997 8.4, 26.22 7.92 C 26.1 7.529999999999999, 26.16 7.619999999999999, 25.98 7.14 C 25.740000000000002 6.57, 25.68 6.404999999999999, 25.5 6 C 25.38 5.76, 25.409999999999997 5.73, 25.259999999999998 5.5200000000000005 C 25.08 5.34, 25.155 5.3100000000000005, 24.900000000000002 5.16 C 24.57 5.04, 24.51 4.98, 24.240000000000002 4.92 C 24.03 4.92, 24 4.92, 23.82 4.92 C 23.67 4.92, 23.64 4.92, 23.52 4.92 C 23.43 4.92, 23.505 4.875, 23.34 4.92 C 23.1 5.01, 23.085 4.92, 22.86 5.1 C 22.65 5.369999999999999, 22.695 5.1899999999999995, 22.44 5.64 C 22.14 6.27, 22.125 6.225, 21.84 6.8999999999999995 C 21.57 7.619999999999999, 21.584999999999997 7.529999999999999, 21.299999999999997 8.34 C 21 9.24, 20.94 9.360000000000001, 20.700000000000003 10.14 C 20.520000000000003 10.8, 20.52 10.575, 20.34 11.459999999999999 C 20.16 12.57, 20.175 12.584999999999999, 19.98 13.68 C 19.77 14.76, 19.695 14.94, 19.56 15.84 C 19.5 16.560000000000002, 19.47 16.92, 19.44 17.28 C 19.44 17.28, 19.44 17.28, 19.44 17.28 C 19.44 17.28, 19.44 17.28, 19.44 17.28 L 19.44 17.28" fill="none" stroke="black" stroke-width="2"></path></svg>