<svg width="48" height="48" viewBox="0 0 48 48" xmlns="http://www.w3.org/2000/svg"><path d="M 12.299999999999999 31.92 C 12.299999999999999 30.060000000000002, 12.299999999999999 29.595000000000006, 12.299999999999999 28.200000000000003 C 12.299999999999999 27.27, 12.299999999999999 27.119999999999997, 12.299999999999999 26.339999999999996 C 12.299999999999999 25.709999999999997, 12.299999999999999 25.694999999999997, 12.299999999999999 25.08 C 12.299999999999999 24.479999999999997, 12.27 24.419999999999998, 12.299999999999999 23.88 C 12.36 23.4, 12.389999999999999 23.264999999999997, 12.419999999999998 22.919999999999998 C 12.419999999999998 22.71, 12.344999999999997 22.74, 12.419999999999998 22.5 C 12.57 22.23, 12.585 22.17, 12.72 21.96 C 12.84 21.810000000000002, 12.660000000000002 21.825000000000003, 12.96 21.66 C 13.44 21.479999999999997, 13.409999999999998 21.419999999999998, 13.919999999999998 21.299999999999997 C 14.459999999999999 21.24, 14.309999999999999 21.21, 15 21.18 C 15.84 21.18, 15.84 21.165, 16.68 21.18 C 17.52 21.21, 17.4 21.225, 18.36 21.240000000000002 C 19.439999999999998 21.240000000000002, 19.53 21.195000000000004, 20.52 21.240000000000002 C 21.42 21.33, 21.57 21.375, 22.32 21.419999999999998 C 22.92 21.419999999999998, 22.98 21.419999999999998, 23.52 21.419999999999998 C 24 21.419999999999998, 23.97 21.389999999999997, 24.48 21.419999999999998 C 25.02 21.479999999999997, 25.064999999999998 21.509999999999998, 25.56 21.54 C 26.009999999999998 21.54, 26.085 21.54, 26.46 21.54 C 26.759999999999998 21.54, 26.744999999999997 21.54, 27.06 21.54 C 27.39 21.54, 27.375 21.54, 27.72 21.54 C 28.08 21.54, 28.095000000000002 21.54, 28.44 21.54 C 28.77 21.54, 28.814999999999998 21.585, 29.099999999999998 21.54 C 29.339999999999996 21.45, 29.279999999999998 21.57, 29.58 21.36 C 29.939999999999998 21.03, 29.999999999999996 21.120000000000005, 30.299999999999997 20.700000000000003 C 30.54 20.19, 30.57 20.25, 30.78 19.68 C 30.96 19.049999999999997, 31.005000000000003 19.29, 31.14 18.419999999999998 C 31.23 17.310000000000002, 31.275 17.145000000000003, 31.32 16.200000000000003 C 31.32 15.420000000000002, 31.380000000000003 15.39, 31.32 14.64 C 31.2 13.920000000000002, 31.229999999999997 13.89, 31.08 13.200000000000001 C 30.9 12.54, 30.99 12.75, 30.72 11.879999999999999 C 30.36 10.8, 30.465 10.635, 30 9.72 C 29.43 8.97, 29.445 8.895000000000001, 28.86 8.22 C 28.26 7.62, 28.155 7.425, 27.660000000000004 7.02 C 27.270000000000003 6.8100000000000005, 27.270000000000003 6.705, 26.880000000000003 6.6000000000000005 C 26.490000000000002 6.6000000000000005, 26.445 6.6000000000000005, 26.099999999999998 6.6000000000000005 C 25.799999999999997 6.6000000000000005, 25.785 6.510000000000001, 25.5 6.6000000000000005 C 25.23 6.779999999999999, 25.215 6.749999999999999, 24.96 6.959999999999999 C 24.72 7.199999999999999, 24.795 7.02, 24.48 7.4399999999999995 C 24.090000000000003 8.04, 24.060000000000002 8.010000000000002, 23.700000000000003 8.64 C 23.37 9.3, 23.37 8.895, 23.04 9.959999999999999 C 22.71 11.43, 22.575 11.759999999999998, 22.38 12.899999999999999 C 22.32 13.709999999999999, 22.29 14.114999999999998, 22.259999999999998 14.52 C 22.259999999999998 14.52, 22.259999999999998 14.52, 22.259999999999998 14.52 L 22.259999999999998 14.52" fill="none" stroke="black" stroke-width="2"></path><path d="M 20.46 22.32 C 20.34 23.1, 20.4 22.77, 20.22 23.88 C 19.98 25.32, 19.995 24.705, 19.740000000000002 26.759999999999998 C 19.470000000000002 29.429999999999996, 19.410000000000004 29.909999999999997, 19.200000000000003 32.099999999999994 C 19.05 33.809999999999995, 18.99 34.27499999999999, 18.9 35.519999999999996 C 18.869999999999997 36.3, 18.855 36.044999999999995, 18.84 37.08 C 18.84 38.370000000000005, 18.84 38.565000000000005, 18.84 39.660000000000004 C 18.84 40.56, 18.884999999999998 40.545, 18.84 41.46 C 18.75 42.39, 18.705 42.585, 18.66 43.32 C 18.66 43.86, 18.66 43.935, 18.66 44.400000000000006 C 18.66 44.790000000000006, 18.66 44.91, 18.66 45.18 C 18.66 45.33, 18.66 45.405, 18.66 45.480000000000004 C 18.66 45.480000000000004, 18.66 45.480000000000004, 18.66 45.480000000000004 C 18.66 45.480000000000004, 18.66 45.480000000000004, 18.66 45.480000000000004 L 18.66 45.480000000000004" fill="none" stroke="black" stroke-width="2"></path></svg>