<svg width="48" height="48" viewBox="0 0 48 48" xmlns="http://www.w3.org/2000/svg"><path d="M 13.620000000000001 31.380000000000003 C 14.82 31.560000000000002, 14.625 31.650000000000002, 16.02 31.740000000000002 C 17.61 31.740000000000002, 17.835 31.665000000000003, 19.200000000000003 31.740000000000002 C 20.340000000000003 31.89, 20.325000000000003 31.950000000000003, 21.48 32.04 C 22.65 32.06999999999999, 22.965 32.084999999999994, 23.82 32.099999999999994 C 24.36 32.099999999999994, 24.360000000000003 32.099999999999994, 24.900000000000002 32.099999999999994 C 25.44 32.099999999999994, 25.560000000000002 32.099999999999994, 25.98 32.099999999999994 C 26.28 32.099999999999994, 26.235 32.099999999999994, 26.58 32.099999999999994 C 26.97 32.099999999999994, 26.924999999999997 32.16, 27.36 32.099999999999994 C 27.84 31.979999999999997, 27.84 32.025, 28.32 31.86 C 28.8 31.65, 28.92 31.605, 29.28 31.44 C 29.52 31.32, 29.519999999999996 31.440000000000005, 29.759999999999998 31.200000000000003 C 30 30.840000000000003, 30.015 31.05, 30.240000000000002 30.48 C 30.450000000000003 29.700000000000003, 30.450000000000003 30.18, 30.660000000000004 28.92 C 30.87 27.18, 30.93 27, 31.08 25.44 C 31.169999999999998 24.060000000000002, 31.169999999999998 24.33, 31.259999999999998 22.68 C 31.35 20.759999999999998, 31.395 20.595, 31.44 18.84 C 31.44 17.25, 31.485000000000003 17.235, 31.44 15.66 C 31.35 14.1, 31.349999999999998 13.86, 31.259999999999998 12.54 C 31.169999999999998 11.459999999999999, 31.214999999999996 11.489999999999998, 31.08 10.379999999999999 C 30.9 9.24, 30.9 9.015, 30.72 8.100000000000001 C 30.54 7.410000000000001, 30.509999999999998 7.215000000000001, 30.36 6.720000000000001 C 30.24 6.42, 30.284999999999997 6.375, 30.119999999999997 6.12 C 29.91 5.91, 29.970000000000002 5.895, 29.700000000000003 5.699999999999999 C 29.37 5.52, 29.384999999999998 5.43, 29.04 5.34 C 28.68 5.34, 28.695 5.34, 28.32 5.34 C 27.93 5.34, 27.81 5.34, 27.54 5.34 C 27.39 5.34, 27.435000000000002 5.324999999999999, 27.240000000000002 5.34 C 27 5.37, 27.044999999999998 5.1450000000000005, 26.759999999999998 5.4 C 26.43 5.880000000000001, 26.415 5.805000000000001, 26.099999999999998 6.36 C 25.799999999999997 6.99, 25.77 6.99, 25.5 7.62 C 25.259999999999998 8.25, 25.275 8.129999999999999, 25.02 8.879999999999999 C 24.75 9.75, 24.72 9.63, 24.48 10.620000000000001 C 24.27 11.73, 24.299999999999997 11.655000000000001, 24.06 12.84 C 23.79 14.1, 23.744999999999997 14.19, 23.52 15.36 C 23.34 16.439999999999998, 23.25 16.905, 23.16 17.52 C 23.16 17.67, 23.16 17.7, 23.16 17.82 C 23.16 17.91, 23.16 17.955, 23.16 18 L 23.16 18" fill="none" stroke="black" stroke-width="2"></path><path d="M 21.36 36.900000000000006 C 20.58 37.74, 20.249999999999996 37.35, 19.799999999999997 38.58 C 19.68 40.2, 19.305 40.71, 19.56 41.82 C 20.189999999999998 42.42, 20.34 42.705, 20.82 43.019999999999996 C 21.15 43.05, 21.18 43.364999999999995, 21.48 43.08 C 21.75 42.480000000000004, 21.99 42.78, 22.02 41.88 C 21.810000000000002 40.68000000000001, 21.96 40.50000000000001, 21.6 39.480000000000004 C 21.090000000000003 38.64, 20.970000000000002 38.324999999999996, 20.580000000000002 37.8 C 20.310000000000002 37.59, 20.415 37.35, 20.04 37.38 C 19.560000000000002 37.650000000000006, 19.32 37.410000000000004, 19.080000000000002 37.92 C 19.080000000000002 38.67, 18.705000000000002 38.67, 19.080000000000002 39.42 C 19.830000000000002 40.17, 19.92 40.5, 20.580000000000002 40.92 C 21.15 41.01, 21.134999999999998 41.26499999999999, 21.72 41.099999999999994 C 22.32 40.67999999999999, 22.485 40.89, 22.919999999999998 40.26 C 23.189999999999998 39.42, 23.565 39.285, 23.46 38.58 C 22.98 38.01, 23.145 37.739999999999995, 22.5 37.44 C 21.689999999999998 37.41, 21.585 37.08, 20.88 37.38 C 20.28 38.010000000000005, 19.98 37.815, 19.68 38.64 C 19.68 39.66, 19.47 40.019999999999996, 19.68 40.68 C 20.1 40.980000000000004, 20.235 41.085, 20.52 41.28 L 20.82 41.46" fill="none" stroke="black" stroke-width="2"></path></svg>