<svg width="48" height="48" viewBox="0 0 48 48" xmlns="http://www.w3.org/2000/svg"><path d="M 18.12 12.36 C 18.060000000000002 11.55, 17.91 11.805, 18 10.74 C 18.240000000000002 9.420000000000002, 18.225 9.090000000000002, 18.48 8.100000000000001 C 18.75 7.44, 18.72 7.484999999999999, 19.02 6.779999999999999 C 19.35 6.029999999999999, 19.245 5.955, 19.68 5.28 C 20.22 4.68, 20.279999999999998 4.470000000000001, 20.759999999999998 4.08 C 21.18 3.9, 21.165 3.8099999999999996, 21.6 3.7199999999999998 C 22.05 3.7199999999999998, 21.93 3.465, 22.5 3.7199999999999998 C 23.189999999999998 4.23, 23.415 4.365, 23.88 4.74 C 24.119999999999997 4.98, 24.06 4.56, 24.36 5.22 C 24.72 6.3, 24.854999999999997 6.3149999999999995, 25.08 7.38 C 25.169999999999998 8.43, 25.125 8.190000000000001, 25.259999999999998 9.48 C 25.439999999999998 11.01, 25.529999999999998 11.084999999999999, 25.619999999999997 12.54 C 25.619999999999997 13.919999999999998, 25.619999999999997 13.874999999999998, 25.619999999999997 15.299999999999999 C 25.619999999999997 16.77, 25.619999999999997 16.995, 25.619999999999997 18.240000000000002 C 25.619999999999997 19.26, 25.619999999999997 19.26, 25.619999999999997 20.28 C 25.619999999999997 21.3, 25.619999999999997 21.555, 25.619999999999997 22.32 C 25.619999999999997 22.83, 25.619999999999997 22.77, 25.619999999999997 23.34 C 25.619999999999997 23.97, 25.619999999999997 23.894999999999996, 25.619999999999997 24.599999999999998 C 25.619999999999997 25.380000000000003, 25.619999999999997 25.515000000000004, 25.619999999999997 26.160000000000004 C 25.619999999999997 26.67, 25.619999999999997 26.73, 25.619999999999997 27.18 C 25.619999999999997 27.57, 25.604999999999997 27.6, 25.619999999999997 27.96 C 25.65 28.29, 25.665 28.455, 25.68 28.619999999999997 C 25.68 28.619999999999997, 25.68 28.619999999999997, 25.68 28.619999999999997 L 25.68 28.619999999999997" fill="none" stroke="black" stroke-width="2"></path><path d="M 26.339999999999996 33.12 C 25.439999999999998 33.56999999999999, 25.095 33.345, 24.54 34.019999999999996 C 24.33 34.92, 23.97 35.04, 24.119999999999997 35.82 C 24.63 36.480000000000004, 24.525 36.93, 25.14 37.14 C 25.86 36.900000000000006, 26.07 37.260000000000005, 26.58 36.660000000000004 C 26.88 35.7, 27.240000000000002 35.355000000000004, 27.18 34.74 C 26.759999999999998 34.47, 26.849999999999994 34.125, 26.339999999999996 34.2 C 25.74 34.620000000000005, 25.5 34.44, 25.14 35.04 C 25.020000000000003 35.81999999999999, 24.870000000000005 35.879999999999995, 24.900000000000002 36.599999999999994 C 25.08 37.26, 24.569999999999997 37.71, 25.259999999999998 37.92 C 26.46 37.68, 26.865000000000002 38.175, 27.660000000000004 37.44 C 28.050000000000004 36.21, 28.455000000000002 35.865, 28.44 34.980000000000004 C 28.02 34.440000000000005, 28.11 34.17, 27.599999999999998 33.900000000000006 C 27 33.900000000000006, 26.94 33.43500000000001, 26.400000000000002 33.900000000000006 C 25.92 34.83, 25.68 34.815, 25.44 35.76 C 25.44 36.72, 25.395000000000003 37.125, 25.44 37.68 L 25.619999999999997 37.980000000000004" fill="none" stroke="black" stroke-width="2"></path></svg>