<svg width="48" height="48" viewBox="0 0 48 48" xmlns="http://www.w3.org/2000/svg"><path d="M 15.24 4.08 C 15 5.220000000000001, 15.135 4.245000000000001, 14.76 6.36 C 14.25 9.45, 14.175 9.344999999999999, 13.74 12.54 C 13.379999999999999 15.84, 13.2 16.23, 13.02 19.14 C 13.02 21.66, 13.004999999999999 22.244999999999997, 13.02 24.18 C 13.05 25.53, 12.96 25.575000000000003, 13.080000000000002 26.880000000000003 C 13.290000000000001 28.14, 13.155000000000001 28.380000000000003, 13.5 29.400000000000002 C 13.98 30.18, 13.905000000000001 30.48, 14.46 30.96 C 15.09 31.14, 15.06 31.23, 15.72 31.32 C 16.41 31.32, 16.425 31.515, 17.1 31.32 C 17.759999999999998 30.93, 17.805 31.125, 18.419999999999998 30.54 C 18.99 29.759999999999998, 18.945 30, 19.56 28.98 C 20.22 27.72, 20.294999999999998 27.615000000000002, 20.88 26.46 C 21.39 25.41, 21.555 25.305, 21.9 24.36 C 22.08 23.52, 22.139999999999997 23.145, 22.259999999999998 22.68 C 22.32 22.59, 22.349999999999998 22.545, 22.38 22.5 C 22.38 22.5, 22.38 22.5, 22.38 22.5 C 22.38 22.5, 22.365 22.47, 22.38 22.5 C 22.41 22.560000000000002, 22.485 22.14, 22.44 22.62 C 22.32 23.520000000000003, 22.26 23.490000000000002, 22.200000000000003 24.42 C 22.200000000000003 25.38, 22.110000000000003 25.469999999999995, 22.200000000000003 26.339999999999996 C 22.380000000000003 27.119999999999997, 22.335 27.345000000000002, 22.56 27.900000000000002 C 22.83 28.23, 22.725 28.185, 23.1 28.56 C 23.58 28.98, 23.534999999999997 29.1, 24.06 29.400000000000002 C 24.630000000000003 29.58, 24.645000000000003 29.654999999999998, 25.200000000000003 29.759999999999998 C 25.740000000000002 29.79, 25.800000000000004 29.97, 26.28 29.82 C 26.7 29.490000000000002, 26.669999999999998 29.715000000000003, 27.119999999999997 29.160000000000004 C 27.599999999999998 28.380000000000003, 27.689999999999998 28.56, 28.08 27.599999999999998 C 28.38 26.46, 28.47 26.925, 28.68 25.32 C 28.8 23.25, 28.875 22.83, 28.92 21.18 C 28.89 19.95, 29.025 19.904999999999998, 28.86 18.72 C 28.56 17.58, 28.74 17.490000000000002, 28.259999999999998 16.44 C 27.6 15.48, 27.630000000000003 15.135, 26.94 14.52 C 26.22 14.25, 26.31 14.115, 25.5 13.98 C 24.6 13.98, 24.525000000000002 13.845, 23.700000000000003 13.98 C 22.950000000000003 14.25, 23.085000000000004 13.965, 22.200000000000003 14.52 C 21.18 15.360000000000001, 21.225 15.105000000000004, 20.16 16.200000000000003 C 19.05 17.55, 18.810000000000002 17.384999999999998, 17.94 18.9 C 17.310000000000002 20.58, 16.995 21.314999999999998, 16.68 22.259999999999998 C 16.68 22.47, 16.68 22.575, 16.68 22.68 L 16.68 22.68" fill="none" stroke="black" stroke-width="2"></path><path d="M 21.54 25.92 C 21.6 26.400000000000002, 21.63 26.310000000000002, 21.66 26.880000000000003 C 21.66 27.540000000000003, 21.69 27.510000000000005, 21.66 28.200000000000003 C 21.6 28.92, 21.75 28.365000000000002, 21.54 29.64 C 21.18 31.47, 21.12 31.65, 20.82 33.3 C 20.58 34.769999999999996, 20.46 35.040000000000006, 20.34 36.24 C 20.34 37.17, 20.34 36.989999999999995, 20.34 38.099999999999994 C 20.34 39.39, 20.34 39.57, 20.34 40.68 C 20.34 41.61, 20.34 41.655, 20.34 42.54 C 20.34 43.379999999999995, 20.34 43.455, 20.34 44.22 C 20.34 44.91, 20.34 45.10499999999999, 20.34 45.599999999999994 C 20.34 45.9, 20.205 45.81, 20.34 46.2 C 20.61 46.68000000000001, 20.744999999999997 46.92, 20.88 47.160000000000004 C 20.88 47.160000000000004, 20.805 47.13, 20.88 47.160000000000004 C 21.03 47.22, 21.03 47.49, 21.18 47.28 C 21.33 46.8, 21.27 46.95, 21.48 46.32 C 21.75 45.54, 21.72 45.614999999999995, 22.02 44.76 C 22.35 43.83, 22.305 43.71000000000001, 22.68 42.900000000000006 C 23.1 42.21, 23.055 42.12, 23.52 41.519999999999996 C 24.03 41.01, 23.7 41.1, 24.54 40.5 C 25.71 39.81, 25.905 39.54, 26.880000000000003 39.12 C 27.660000000000004 38.97, 27.945 38.894999999999996, 28.44 38.82 C 28.65 38.82, 28.665 38.805, 28.86 38.82 C 29.04 38.85, 29.13 38.865, 29.22 38.88 L 29.22 38.88" fill="none" stroke="black" stroke-width="2"></path></svg>