<svg width="48" height="48" viewBox="0 0 48 48" xmlns="http://www.w3.org/2000/svg"><path d="M 20.34 43.44 C 19.799999999999997 43.47, 19.77 43.485, 19.259999999999998 43.5 C 18.779999999999998 43.5, 18.959999999999997 43.425, 18.299999999999997 43.5 C 17.46 43.65, 17.235 43.724999999999994, 16.62 43.8 C 16.23 43.8, 16.395 43.754999999999995, 15.84 43.8 C 15.12 43.89, 14.954999999999998 43.905, 14.399999999999999 43.980000000000004 C 14.01 44.04, 14.010000000000002 44.05499999999999, 13.620000000000001 44.099999999999994 C 13.23 44.129999999999995, 13.23 44.1, 12.84 44.160000000000004 C 12.45 44.25, 12.254999999999999 44.295, 12.059999999999999 44.339999999999996 C 12.059999999999999 44.339999999999996, 12.134999999999998 44.355, 12.059999999999999 44.339999999999996 C 11.91 44.31, 11.94 44.58, 11.76 44.28 C 11.55 43.71, 11.535 44.055, 11.34 43.14 C 11.16 41.879999999999995, 11.16 41.985, 10.98 40.62 C 10.8 39.15, 10.71 39.254999999999995, 10.620000000000001 37.68 C 10.620000000000001 36, 10.620000000000001 35.82, 10.620000000000001 34.32 C 10.620000000000001 33, 10.620000000000001 33.195, 10.620000000000001 31.68 C 10.620000000000001 29.97, 10.620000000000001 29.894999999999996, 10.620000000000001 28.259999999999998 C 10.620000000000001 26.7, 10.620000000000001 26.490000000000002, 10.620000000000001 25.14 C 10.620000000000001 24, 10.485000000000001 23.82, 10.620000000000001 22.86 C 10.89 22.08, 10.92 22.004999999999995, 11.16 21.299999999999997 C 11.370000000000001 20.669999999999998, 11.325 20.595, 11.58 20.04 C 11.879999999999999 19.560000000000002, 11.91 19.380000000000003, 12.18 19.080000000000002 C 12.42 18.96, 12.42 18.9, 12.66 18.84 C 12.9 18.84, 12.915000000000001 18.84, 13.14 18.84 C 13.35 18.84, 13.305 18.75, 13.559999999999999 18.84 C 13.86 19.020000000000003, 13.86 18.915000000000003, 14.16 19.200000000000003 C 14.46 19.590000000000003, 14.385 19.380000000000003, 14.76 19.98 C 15.21 20.79, 15.24 20.835, 15.66 21.6 C 16.05 22.32, 16.05 22.035, 16.44 23.04 C 16.83 24.33, 16.845 24.24, 17.22 25.619999999999997 C 17.58 27.089999999999996, 17.715 27.525, 17.94 28.56 C 18.03 29.159999999999997, 18.075000000000003 29.459999999999997, 18.12 29.759999999999998 C 18.12 29.759999999999998, 18.12 29.775, 18.12 29.759999999999998 C 18.12 29.73, 18.12 30.120000000000005, 18.12 29.700000000000003 C 18.12 28.89, 18.12 28.994999999999997, 18.12 28.08 C 18.12 27.06, 18.075000000000003 27.18, 18.12 26.04 C 18.21 24.78, 18.209999999999997 24.45, 18.299999999999997 23.52 C 18.39 22.92, 18.33 23.01, 18.48 22.32 C 18.689999999999998 21.54, 18.645 21.464999999999996, 18.9 20.759999999999998 C 19.2 20.13, 19.23 20.009999999999998, 19.5 19.5 C 19.740000000000002 19.11, 19.665 19.049999999999997, 19.98 18.72 C 20.369999999999997 18.45, 20.354999999999997 18.405, 20.759999999999998 18.18 C 21.18 18, 20.985 17.955, 21.6 17.82 C 22.41 17.73, 22.545 17.685000000000002, 23.22 17.64 C 23.759999999999998 17.64, 23.609999999999996 17.715, 24.299999999999997 17.64 C 25.14 17.490000000000002, 25.155 17.58, 25.98 17.34 C 26.79 17.009999999999998, 26.955 17.055, 27.599999999999998 16.68 C 28.08 16.259999999999998, 28.2 16.335, 28.56 15.84 C 28.799999999999997 15.27, 28.875 15.450000000000001, 29.04 14.700000000000001 C 29.13 13.77, 29.13 14.055, 29.22 12.84 C 29.310000000000002 11.34, 29.355 11.145, 29.400000000000002 9.84 C 29.400000000000002 8.73, 29.475 8.685, 29.400000000000002 7.62 C 29.25 6.6, 29.339999999999996 6.42, 29.099999999999998 5.58 C 28.77 4.92, 28.830000000000002 4.965, 28.44 4.26 C 27.990000000000002 3.51, 27.99 3.3600000000000003, 27.54 2.7600000000000002 C 27.09 2.31, 27.03 2.2199999999999998, 26.64 1.8599999999999999 C 26.310000000000002 1.5899999999999999, 26.295 1.455, 25.98 1.32 C 25.68 1.32, 25.770000000000003 1.26, 25.380000000000003 1.32 C 24.900000000000002 1.44, 24.915000000000003 1.3050000000000002, 24.42 1.56 C 23.91 1.95, 23.82 1.98, 23.4 2.34 C 23.07 2.67, 23.130000000000003 2.625, 22.740000000000002 3 C 22.29 3.42, 22.245 3.255, 21.84 3.84 C 21.48 4.59, 21.450000000000003 4.515, 21.12 5.34 C 20.82 6.24, 20.67 6.359999999999999, 20.52 7.14 C 20.52 7.799999999999999, 20.52 7.904999999999999, 20.52 8.459999999999999 C 20.52 8.91, 20.52 9.09, 20.52 9.36 C 20.52 9.45, 20.52 9.450000000000001, 20.52 9.540000000000001 C 20.52 9.63, 20.52 9.675, 20.52 9.72 L 20.52 9.72" fill="none" stroke="black" stroke-width="2"></path></svg>