<svg width="48" height="48" viewBox="0 0 48 48" xmlns="http://www.w3.org/2000/svg"><path d="M 13.74 4.5 C 13.5 5.88, 13.5 5.865, 13.26 7.26 C 13.02 8.67, 12.975 8.61, 12.78 10.08 C 12.629999999999999 11.61, 12.495000000000001 11.55, 12.48 13.14 C 12.600000000000001 14.790000000000001, 12.615000000000002 15.060000000000002, 12.72 16.44 C 12.809999999999999 17.55, 12.779999999999998 17.7, 12.899999999999999 18.66 C 13.05 19.47, 13.005 19.71, 13.200000000000001 20.28 C 13.440000000000001 20.61, 13.334999999999999 20.475, 13.68 20.94 C 14.13 21.54, 13.905000000000001 21.69, 14.580000000000002 22.14 C 15.48 22.44, 14.969999999999999 22.590000000000003, 16.38 22.740000000000002 C 18.299999999999997 22.740000000000002, 18.375 22.770000000000003, 20.22 22.740000000000002 C 21.99 22.68, 22.365 22.665000000000003, 23.759999999999998 22.62 C 24.779999999999998 22.59, 24.839999999999996 22.619999999999997, 25.799999999999997 22.56 C 26.699999999999996 22.47, 26.955 22.47, 27.599999999999998 22.38 C 27.990000000000002 22.29, 28.065 22.26, 28.380000000000003 22.200000000000003 C 28.62 22.17, 28.62 22.275000000000002, 28.86 22.14 C 29.099999999999998 21.9, 28.979999999999997 22.02, 29.339999999999996 21.66 C 29.819999999999997 21.18, 29.939999999999998 21.345000000000002, 30.299999999999997 20.700000000000003 C 30.54 19.89, 30.615000000000002 20.025000000000002, 30.78 19.080000000000002 C 30.87 18, 30.87 18.014999999999997, 30.96 16.919999999999998 C 31.05 15.809999999999999, 31.11 15.825000000000001, 31.14 14.700000000000001 C 31.11 13.559999999999999, 31.199999999999996 13.62, 31.08 12.419999999999998 C 30.87 11.159999999999998, 30.825000000000003 10.814999999999998, 30.660000000000004 9.899999999999999 C 30.540000000000003 9.329999999999998, 30.570000000000004 9.254999999999999, 30.42 8.76 C 30.240000000000002 8.34, 30.45 8.4, 30.06 7.92 C 29.46 7.38, 29.505 7.32, 28.86 6.84 C 28.17 6.42, 28.125 6.33, 27.48 6 C 26.880000000000003 5.76, 26.82 5.640000000000001, 26.28 5.5200000000000005 C 25.8 5.5200000000000005, 25.875 5.175000000000001, 25.32 5.5200000000000005 C 24.689999999999998 6.21, 24.66 5.984999999999999, 24.06 6.8999999999999995 C 23.49 8.04, 23.369999999999997 8.174999999999999, 22.919999999999998 9.18 C 22.589999999999996 10.05, 22.514999999999997 9.945, 22.259999999999998 10.92 C 22.08 12, 21.99 12.090000000000002, 21.9 13.080000000000002 C 21.9 13.98, 21.9 14.43, 21.9 14.879999999999999 L 21.9 14.879999999999999" fill="none" stroke="black" stroke-width="2"></path><path d="M 20.28 22.259999999999998 C 20.28 23.07, 20.145000000000003 23.084999999999997, 20.28 23.88 C 20.55 24.66, 20.4 24.675, 20.82 25.44 C 21.39 26.19, 20.925 26.235000000000003, 21.96 26.94 C 23.46 27.6, 23.580000000000002 27.84, 24.96 28.259999999999998 C 26.22 28.439999999999998, 26.22 28.319999999999997, 27.48 28.619999999999997 C 28.740000000000002 29.04, 29.145 29.085, 30 29.46 C 30.450000000000003 29.79, 30.585 29.865, 30.900000000000002 30.119999999999997 C 31.08 30.299999999999997, 31.11 30.27, 31.259999999999998 30.48 C 31.38 30.72, 31.515 30.75, 31.5 30.96 C 31.35 31.14, 31.665000000000003 31.125, 31.200000000000003 31.32 C 30.42 31.53, 30.630000000000003 31.5, 29.64 31.740000000000002 C 28.44 32.010000000000005, 28.305 32.055, 27.240000000000002 32.28 C 26.310000000000002 32.46, 26.265 32.4, 25.380000000000003 32.64 C 24.540000000000003 32.94, 24.615000000000002 32.775000000000006, 23.700000000000003 33.24 C 22.71 33.870000000000005, 22.59 33.69, 21.72 34.5 C 20.97 35.49, 20.729999999999997 35.265, 20.22 36.480000000000004 C 19.95 37.92, 19.814999999999998 38.25, 19.68 39.36 C 19.68 40.14, 19.68 40.32, 19.68 40.92 C 19.68 41.34, 19.68 41.489999999999995, 19.68 41.76 C 19.68 41.879999999999995, 19.68 41.94, 19.68 42 L 19.68 42" fill="none" stroke="black" stroke-width="2"></path></svg>