<svg width="48" height="48" viewBox="0 0 48 48" xmlns="http://www.w3.org/2000/svg"><path d="M 12.96 31.98 C 13.379999999999999 32.13, 13.215 32.205, 13.799999999999999 32.28 C 14.549999999999999 32.28, 14.324999999999998 32.28, 15.299999999999999 32.28 C 16.5 32.28, 16.695000000000004 32.325, 17.700000000000003 32.28 C 18.51 32.19, 18.75 32.144999999999996, 19.32 32.099999999999994 C 19.65 32.099999999999994, 19.62 32.144999999999996, 19.98 32.099999999999994 C 20.369999999999997 32.01, 20.444999999999997 32.025, 20.759999999999998 31.92 C 21 31.8, 20.895000000000003 32.01, 21.240000000000002 31.68 C 21.69 31.14, 21.795 31.244999999999997, 22.14 30.599999999999998 C 22.380000000000003 29.849999999999998, 22.380000000000003 30.06, 22.62 29.099999999999998 C 22.86 27.93, 22.935000000000002 27.99, 23.1 26.759999999999998 C 23.19 25.47, 23.205000000000002 25.32, 23.28 24.18 C 23.34 23.19, 23.369999999999997 22.695, 23.4 22.200000000000003 C 23.4 22.200000000000003, 23.4 22.185000000000002, 23.4 22.200000000000003 C 23.4 22.23, 23.384999999999998 21.84, 23.4 22.259999999999998 C 23.43 23.07, 23.355 22.769999999999996, 23.46 23.88 C 23.64 25.29, 23.535 25.500000000000004, 23.82 26.700000000000003 C 24.21 27.69, 24.18 27.93, 24.599999999999998 28.68 C 25.049999999999997 29.19, 25.125 29.385, 25.5 29.700000000000003 C 25.799999999999997 29.82, 25.754999999999995 29.880000000000003, 26.099999999999998 29.94 C 26.490000000000002 29.94, 26.355 30.240000000000002, 26.880000000000003 29.94 C 27.540000000000003 29.340000000000003, 27.555000000000003 29.565, 28.200000000000003 28.740000000000002 C 28.830000000000002 27.69, 28.980000000000004 27.87, 29.46 26.64 C 29.79 25.23, 29.924999999999997 25.44, 30.119999999999997 23.82 C 30.18 21.990000000000002, 30.21 22.02, 30.240000000000002 20.16 C 30.240000000000002 18.27, 30.375 18.285, 30.240000000000002 16.38 C 29.970000000000002 14.459999999999999, 30.075000000000003 14.325, 29.700000000000003 12.54 C 29.220000000000002 10.89, 29.145000000000003 10.47, 28.740000000000002 9.24 C 28.41 8.43, 28.409999999999997 8.28, 28.08 7.62 C 27.75 7.11, 27.87 7.155, 27.42 6.6000000000000005 C 26.85 6, 26.85 5.925000000000001, 26.28 5.4 C 25.71 4.95, 25.635 4.86, 25.14 4.5 C 24.72 4.23, 24.749999999999996 4.125, 24.299999999999997 3.96 C 23.82 3.9, 23.744999999999997 3.8549999999999995, 23.34 3.84 C 23.009999999999998 3.87, 23.13 3.6000000000000005, 22.68 3.9000000000000004 C 22.11 4.470000000000001, 21.99 4.425, 21.54 5.04 C 21.21 5.7, 21.165 5.565, 20.88 6.36 C 20.64 7.290000000000001, 20.58 7.11, 20.4 8.22 C 20.28 9.510000000000002, 20.22 9.66, 20.16 10.8 C 20.16 11.79, 20.205 12.015, 20.16 12.78 C 20.07 13.32, 20.025 13.59, 19.98 13.86 L 19.98 13.86" fill="none" stroke="black" stroke-width="2"></path><path d="M 12.059999999999999 39.480000000000004 C 12.45 39.45, 12.03 39.525000000000006, 12.84 39.42 C 14.07 39.24, 13.875 39.255, 15.299999999999999 39.06 C 16.919999999999998 38.85, 16.575 38.925, 18.54 38.64 C 20.85 38.28, 21.509999999999998 38.175000000000004, 23.16 37.92 C 24.15 37.769999999999996, 24.075 37.695, 25.14 37.62 C 26.28 37.62, 26.580000000000002 37.62, 27.42 37.62 C 27.96 37.62, 28.185000000000002 37.62, 28.5 37.62 L 28.68 37.62" fill="none" stroke="black" stroke-width="2"></path><path d="M 13.14 45.24 C 14.25 45.09, 13.635 45.195, 15.36 44.94 C 17.7 44.58, 18.36 44.4, 20.04 44.22 C 21.060000000000002 44.22, 20.835 44.265, 22.080000000000002 44.22 C 23.55 44.129999999999995, 23.595 44.085, 25.02 44.04 C 26.4 44.04, 26.64 44.04, 27.78 44.04 C 28.68 44.04, 29.085 44.04, 29.58 44.04 C 29.669999999999998 44.04, 29.639999999999997 44.04, 29.759999999999998 44.04 L 30.06 44.04" fill="none" stroke="black" stroke-width="2"></path></svg>