<svg width="48" height="48" viewBox="0 0 48 48" xmlns="http://www.w3.org/2000/svg"><path d="M 17.34 14.399999999999999 C 17.34 13.649999999999999, 17.31 14.009999999999998, 17.34 12.899999999999999 C 17.4 11.43, 17.325000000000003 11.084999999999999, 17.46 9.959999999999999 C 17.67 9.18, 17.61 9.194999999999999, 17.88 8.399999999999999 C 18.21 7.589999999999999, 18.18 7.469999999999999, 18.54 6.779999999999999 C 18.93 6.209999999999999, 18.855 6.045, 19.32 5.64 C 19.86 5.4, 19.814999999999998 5.34, 20.4 5.16 C 21.03 5.04, 21.12 4.98, 21.66 4.92 C 22.11 4.92, 22.02 4.695, 22.56 4.92 C 23.189999999999998 5.37, 23.294999999999998 5.220000000000001, 23.82 5.82 C 24.240000000000002 6.57, 24.225000000000005 6.2700000000000005, 24.660000000000004 7.32 C 25.11 8.67, 25.29 8.79, 25.56 10.02 C 25.65 11.129999999999999, 25.59 10.71, 25.740000000000002 12.24 C 25.950000000000003 14.190000000000001, 26.010000000000005 14.370000000000001, 26.160000000000004 16.14 C 26.25 17.73, 26.294999999999998 17.985, 26.339999999999996 19.32 C 26.339999999999996 20.4, 26.294999999999995 20.445, 26.339999999999996 21.48 C 26.43 22.47, 26.474999999999998 22.245, 26.52 23.46 C 26.52 24.9, 26.52 24.914999999999996, 26.52 26.339999999999996 C 26.52 27.75, 26.52 28.050000000000004, 26.52 29.160000000000004 C 26.52 29.970000000000002, 26.52 29.880000000000003, 26.52 30.78 C 26.52 31.77, 26.52 32.07, 26.52 32.76 C 26.52 33.15, 26.52 33.239999999999995, 26.52 33.54 C 26.52 33.75, 26.52 33.855000000000004, 26.52 33.96 C 26.52 33.96, 26.549999999999997 33.915, 26.52 33.96 L 26.400000000000002 34.14" fill="none" stroke="black" stroke-width="2"></path><path d="M 20.16 24.42 C 20.16 25.5, 20.16 25.185, 20.16 26.58 C 20.16 28.29, 20.16 28.395, 20.16 30 C 20.16 31.5, 20.16 31.68, 20.16 33 C 20.16 34.14, 20.16 34.230000000000004, 20.16 35.28 C 20.16 36.24, 20.16 36.21, 20.16 37.2 C 20.16 38.22, 20.16 38.325, 20.16 39.24 C 20.16 40.05, 20.16 40.379999999999995, 20.16 40.86 C 20.16 41.010000000000005, 20.115000000000002 40.89, 20.16 41.160000000000004 L 20.34 41.94" fill="none" stroke="black" stroke-width="2"></path><path d="M 32.28 23.28 C 32.28 24.090000000000003, 32.415 22.815000000000005, 32.28 24.900000000000002 C 32.010000000000005 28.259999999999998, 31.950000000000003 28.77, 31.740000000000002 31.619999999999997 C 31.590000000000003 33.959999999999994, 31.590000000000003 34.544999999999995, 31.44 36.3 C 31.29 37.47, 31.215 37.59, 31.14 38.64 C 31.14 39.57, 31.14 39.585, 31.14 40.5 C 31.14 41.4, 31.14 41.775, 31.14 42.3 C 31.14 42.449999999999996, 31.155 42.47999999999999, 31.14 42.599999999999994 L 31.08 42.78" fill="none" stroke="black" stroke-width="2"></path></svg>