<svg width="48" height="48" viewBox="0 0 48 48" xmlns="http://www.w3.org/2000/svg"><path d="M 15.78 16.5 C 15.78 14.61, 15.629999999999999 14.535, 15.78 12.72 C 16.08 10.98, 15.975 10.665000000000001, 16.38 9.24 C 16.89 8.129999999999999, 16.979999999999997 7.875, 17.4 7.02 C 17.729999999999997 6.42, 17.7 6.33, 18.06 5.82 C 18.45 5.4, 18.33 5.295, 18.84 4.9799999999999995 C 19.47 4.77, 19.470000000000002 4.665, 20.1 4.5600000000000005 C 20.73 4.5600000000000005, 20.88 4.3950000000000005, 21.36 4.5600000000000005 C 21.689999999999998 4.890000000000001, 21.735 4.8149999999999995, 22.02 5.22 C 22.259999999999998 5.699999999999999, 22.245 5.489999999999999, 22.5 6.18 C 22.77 7.08, 22.83 6.84, 23.04 7.98 C 23.189999999999998 9.36, 23.265 9.165000000000001, 23.34 10.74 C 23.34 12.51, 23.34 12.765, 23.34 14.28 C 23.34 15.54, 23.34 14.969999999999997, 23.34 16.799999999999997 C 23.34 19.2, 23.445 19.485, 23.34 21.6 C 23.13 23.43, 23.099999999999998 23.79, 22.919999999999998 25.259999999999998 C 22.77 26.369999999999997, 22.71 26.655, 22.62 27.48 C 22.59 28.02, 22.619999999999997 28.049999999999997, 22.56 28.56 C 22.47 29.04, 22.424999999999997 29.25, 22.38 29.52 C 22.38 29.58, 22.38 29.61, 22.38 29.64 C 22.38 29.64, 22.38 29.64, 22.38 29.64 C 22.38 29.64, 22.38 29.64, 22.38 29.64 C 22.38 29.64, 22.38 29.64, 22.38 29.64 C 22.38 29.64, 22.38 29.64, 22.38 29.64 C 22.38 29.64, 22.41 29.61, 22.38 29.64 C 22.32 29.7, 22.29 29.729999999999997, 22.259999999999998 29.759999999999998 C 22.259999999999998 29.759999999999998, 22.485 29.685, 22.259999999999998 29.759999999999998 C 21.81 29.909999999999997, 21.9 29.685, 21.36 30.06 C 20.73 30.659999999999997, 20.655 30.659999999999997, 20.1 31.259999999999998 C 19.62 31.86, 19.47 31.965, 19.14 32.46 C 18.96 32.85, 18.96 32.7, 18.78 33.24 C 18.6 33.93, 18.509999999999998 33.915, 18.419999999999998 34.62 C 18.419999999999998 35.34, 18.345 35.43, 18.419999999999998 36.06 C 18.57 36.6, 18.375 36.63, 18.72 37.14 C 19.259999999999998 37.62, 19.29 37.739999999999995, 19.799999999999997 38.099999999999994 C 20.279999999999998 38.339999999999996, 20.084999999999997 38.415, 20.759999999999998 38.58 C 21.63 38.67, 21.615000000000002 38.73, 22.5 38.76 C 23.4 38.730000000000004, 23.354999999999997 39.015, 24.299999999999997 38.7 C 25.29 38.1, 25.53 38.1, 26.28 37.5 C 26.79 36.9, 26.909999999999997 36.885, 27.299999999999997 36.3 C 27.569999999999997 35.730000000000004, 27.705 35.775000000000006, 27.839999999999996 35.160000000000004 C 27.839999999999996 34.5, 27.914999999999996 34.529999999999994, 27.839999999999996 33.839999999999996 C 27.689999999999998 33.120000000000005, 27.72 32.970000000000006, 27.54 32.400000000000006 C 27.33 31.980000000000004, 27.374999999999996 31.935, 27.119999999999997 31.56 C 26.82 31.23, 26.85 31.23, 26.52 30.900000000000002 C 26.159999999999997 30.57, 26.264999999999997 30.570000000000004, 25.799999999999997 30.240000000000002 C 25.23 29.91, 25.17 29.775, 24.660000000000004 29.58 C 24.21 29.52, 24.299999999999997 29.490000000000002, 23.759999999999998 29.46 C 23.13 29.46, 23.025 29.445, 22.5 29.46 C 22.08 29.490000000000002, 21.93 29.490000000000002, 21.66 29.52 C 21.54 29.549999999999997, 21.479999999999997 29.564999999999998, 21.419999999999998 29.58 L 21.419999999999998 29.58" fill="none" stroke="black" stroke-width="2"></path></svg>