<svg width="48" height="48" viewBox="0 0 48 48" xmlns="http://www.w3.org/2000/svg"><path d="M 19.56 27.660000000000004 C 19.65 29.07, 19.605 29.025, 19.740000000000002 30.48 C 19.92 31.980000000000004, 19.965000000000003 32.145, 20.1 33.480000000000004 C 20.19 34.650000000000006, 20.235 34.905, 20.28 35.82 C 20.28 36.480000000000004, 20.28 36.495, 20.28 37.14 C 20.28 37.77, 20.295 37.935, 20.28 38.400000000000006 C 20.25 38.7, 20.384999999999998 38.67, 20.22 39 C 19.92 39.36, 19.98 39.405, 19.62 39.72 C 19.200000000000003 39.989999999999995, 19.200000000000003 39.989999999999995, 18.78 40.26 C 18.36 40.53, 18.18 40.665, 17.94 40.8 C 17.880000000000003 40.8, 17.97 40.8, 17.82 40.8 C 17.58 40.8, 17.535 40.8, 17.34 40.8 C 17.189999999999998 40.8, 17.235 40.815, 17.04 40.8 C 16.799999999999997 40.769999999999996, 16.919999999999998 40.875, 16.56 40.74 C 16.08 40.5, 16.065 40.635, 15.600000000000001 40.26 C 15.150000000000002 39.75, 15.045000000000002 39.735, 14.700000000000001 39.24 C 14.46 38.760000000000005, 14.520000000000001 38.85, 14.22 38.28 C 13.86 37.620000000000005, 13.92 37.785, 13.5 36.96 C 13.02 35.97, 12.915 36, 12.54 34.980000000000004 C 12.27 33.93000000000001, 12.24 33.900000000000006, 12 32.88 C 11.79 31.89, 11.76 31.875000000000004, 11.58 30.900000000000002 C 11.43 29.94, 11.385 29.85, 11.28 28.98 C 11.219999999999999 28.200000000000003, 11.19 28.080000000000002, 11.16 27.42 C 11.16 26.88, 11.16 26.849999999999994, 11.16 26.339999999999996 C 11.16 25.86, 11.16 25.770000000000003, 11.16 25.380000000000003 C 11.16 25.080000000000002, 11.16 25.155, 11.16 24.78 C 11.16 24.33, 11.145 24.419999999999998, 11.16 23.88 C 11.190000000000001 23.25, 11.115 23.175, 11.22 22.62 C 11.4 22.14, 11.43 22.02, 11.58 21.66 C 11.7 21.42, 11.595 21.495, 11.82 21.18 C 12.15 20.79, 12.075 20.729999999999997, 12.48 20.4 C 12.96 20.13, 12.915000000000001 20.099999999999998, 13.440000000000001 19.86 C 14.010000000000002 19.65, 13.725000000000001 19.68, 14.580000000000002 19.44 C 15.72 19.17, 15.855 19.064999999999998, 16.86 18.9 C 17.73 18.84, 17.595000000000002 18.825000000000003, 18.6 18.78 C 19.740000000000002 18.75, 19.725 18.735, 20.88 18.72 C 22.049999999999997 18.72, 22.514999999999997 18.72, 23.22 18.72 C 23.46 18.72, 23.580000000000002 18.72, 23.700000000000003 18.72 C 23.700000000000003 18.72, 23.700000000000003 18.72, 23.700000000000003 18.72 L 23.700000000000003 18.72" fill="none" stroke="black" stroke-width="2"></path><path d="M 14.580000000000002 12.96 C 14.700000000000001 12.36, 14.64 12.435, 14.82 11.76 C 15.059999999999999 11.01, 15.03 10.92, 15.299999999999999 10.26 C 15.599999999999998 9.690000000000001, 15.539999999999997 9.705000000000002, 15.899999999999999 9.120000000000001 C 16.32 8.52, 16.275000000000002 8.445, 16.740000000000002 7.92 C 17.25 7.47, 17.294999999999998 7.364999999999999, 17.759999999999998 7.02 C 18.18 6.78, 18.240000000000002 6.66, 18.6 6.540000000000001 C 18.900000000000002 6.540000000000001, 18.930000000000003 6.540000000000001, 19.200000000000003 6.540000000000001 C 19.44 6.540000000000001, 19.44 6.495000000000001, 19.68 6.540000000000001 C 19.92 6.630000000000001, 19.92 6.5550000000000015, 20.16 6.720000000000001 C 20.4 6.96, 20.355 6.779999999999999, 20.64 7.199999999999999 C 20.97 7.799999999999999, 20.985 7.784999999999998, 21.299999999999997 8.399999999999999 C 21.599999999999998 9.03, 21.644999999999996 8.835, 21.9 9.66 C 22.11 10.68, 22.17 10.77, 22.32 11.7 C 22.41 12.54, 22.365000000000002 12.434999999999999, 22.5 13.379999999999999 C 22.68 14.43, 22.71 14.415, 22.86 15.48 C 22.98 16.560000000000002, 22.92 16.335, 23.1 17.64 C 23.340000000000003 19.17, 23.310000000000002 19.020000000000003, 23.580000000000002 20.700000000000003 C 23.880000000000003 22.53, 23.895 22.635, 24.18 24.36 C 24.45 25.979999999999997, 24.494999999999997 25.694999999999997, 24.72 27.599999999999998 C 24.9 29.79, 24.854999999999997 30.045, 25.08 31.98 C 25.349999999999998 33.66, 25.439999999999998 33.824999999999996, 25.619999999999997 35.339999999999996 C 25.709999999999997 36.69, 25.754999999999995 36.959999999999994, 25.799999999999997 38.04 C 25.799999999999997 38.85, 25.799999999999997 39.225, 25.799999999999997 39.660000000000004 C 25.799999999999997 39.72, 25.799999999999997 39.75, 25.799999999999997 39.78 C 25.799999999999997 39.78, 25.799999999999997 39.78, 25.799999999999997 39.78 L 25.799999999999997 39.78" fill="none" stroke="black" stroke-width="2"></path></svg>