<svg width="48" height="48" viewBox="0 0 48 48" xmlns="http://www.w3.org/2000/svg"><path d="M 15.84 28.380000000000003 C 15.93 29.07, 15.87 28.71, 16.02 29.759999999999998 C 16.23 31.169999999999998, 16.29 31.064999999999998, 16.44 32.58 C 16.53 34.2, 16.575000000000003 34.41, 16.62 35.82 C 16.62 37.019999999999996, 16.62 36.945, 16.62 38.22 C 16.62 39.57, 16.68 39.705, 16.62 40.92 C 16.5 42, 16.68 42.195, 16.38 43.08 C 15.899999999999999 43.769999999999996, 15.869999999999997 43.95, 15.419999999999998 44.46 C 15 44.79, 15.000000000000002 44.849999999999994, 14.580000000000002 45.12 C 14.16 45.33, 14.190000000000001 45.48, 13.74 45.54 C 13.26 45.45, 13.26 45.615, 12.78 45.36 C 12.3 44.94, 12.435 45.3, 11.82 44.519999999999996 C 11.07 43.379999999999995, 10.95 43.394999999999996, 10.32 42.24 C 9.81 41.07000000000001, 9.72 41.415000000000006, 9.3 39.900000000000006 C 8.97 38.040000000000006, 8.925 38.28, 8.64 36.18 C 8.4 33.84, 8.280000000000001 33.825, 8.16 31.5 C 8.16 29.19, 8.145 28.695, 8.16 26.880000000000003 C 8.190000000000001 25.560000000000002, 8.100000000000001 25.785000000000004, 8.22 24.240000000000002 C 8.43 22.470000000000002, 8.415000000000001 22.440000000000005, 8.64 20.700000000000003 C 8.88 18.990000000000002, 8.940000000000001 18.735000000000003, 9.120000000000001 17.28 C 9.24 16.08, 9.209999999999999 15.899999999999999, 9.36 14.879999999999999 C 9.54 14.04, 9.495000000000001 14.115, 9.72 13.200000000000001 C 9.99 12.21, 10.004999999999999 12.030000000000001, 10.26 11.22 C 10.5 10.59, 10.455 10.53, 10.74 9.959999999999999 C 11.07 9.45, 10.979999999999999 9.45, 11.399999999999999 8.94 C 11.909999999999998 8.43, 12.089999999999998 8.205, 12.419999999999998 7.92 C 12.57 7.86, 12.405000000000001 7.7700000000000005, 12.72 7.800000000000001 C 13.2 7.920000000000001, 13.14 7.695000000000001, 13.68 8.040000000000001 C 14.28 8.61, 14.325 8.445, 14.879999999999999 9.18 C 15.389999999999999 10.08, 15.464999999999998 10.125, 15.899999999999999 10.98 C 16.259999999999998 11.790000000000001, 16.305 11.535000000000002, 16.62 12.600000000000001 C 16.89 13.920000000000002, 16.935000000000002 13.875, 17.16 15.24 C 17.34 16.65, 17.384999999999998 16.86, 17.52 18.06 C 17.61 19.049999999999997, 17.625000000000004 19.349999999999998, 17.700000000000003 20.04 C 17.76 20.43, 17.775000000000002 20.505000000000003, 17.82 20.82 C 17.85 21.06, 17.865 21.18, 17.88 21.299999999999997 C 17.88 21.299999999999997, 17.865 21.254999999999995, 17.88 21.299999999999997 C 17.91 21.39, 17.925 21.435, 17.94 21.48 C 17.94 21.48, 17.925 21.465, 17.94 21.48 C 17.97 21.509999999999998, 17.985 21.525, 18 21.54 C 18 21.54, 17.595 21.674999999999997, 18 21.54 C 18.810000000000002 21.27, 18.84 21.24, 19.62 21 C 20.37 20.79, 20.235 20.805, 21.12 20.580000000000002 C 22.14 20.340000000000003, 22.125 20.220000000000002, 23.16 20.1 C 24.21 20.1, 24.194999999999997 20.1, 25.259999999999998 20.1 C 26.34 20.1, 26.535000000000004 20.040000000000003, 27.42 20.1 C 28.11 20.22, 28.229999999999997 20.265, 28.799999999999997 20.34 C 29.25 20.369999999999997, 29.475 20.384999999999998, 29.700000000000003 20.4 C 29.700000000000003 20.4, 29.67 20.384999999999998, 29.700000000000003 20.4 L 29.82 20.46" fill="none" stroke="black" stroke-width="2"></path><path d="M 22.740000000000002 15.36 C 22.740000000000002 14.91, 22.740000000000002 15, 22.740000000000002 14.46 C 22.740000000000002 13.830000000000002, 22.695000000000004 14.07, 22.740000000000002 13.200000000000001 C 22.83 12.09, 22.724999999999998 11.91, 22.919999999999998 10.98 C 23.22 10.23, 23.13 10.185, 23.52 9.48 C 24 8.82, 23.985 8.745000000000001, 24.48 8.16 C 24.990000000000002 7.65, 25.02 7.455, 25.5 7.14 C 25.950000000000003 7.02, 25.965000000000003 6.914999999999999, 26.400000000000002 6.8999999999999995 C 26.82 6.99, 26.730000000000004 6.63, 27.240000000000002 7.08 C 27.840000000000003 7.89, 27.93 7.739999999999999, 28.44 8.7 C 28.86 9.809999999999999, 28.950000000000003 10.05, 29.28 10.92 C 29.52 11.55, 29.625 11.174999999999999, 29.759999999999998 12.18 C 29.79 13.56, 29.759999999999998 13.410000000000002, 29.82 14.940000000000001 C 29.91 16.619999999999997, 29.955 16.229999999999997, 30 18.299999999999997 C 30 20.759999999999998, 30 20.775, 30 23.22 C 30 25.65, 30 24.705, 30 28.08 C 30 32.4, 30.075 33.045, 30 36.72 C 29.85 39.75, 29.820000000000004 40.92, 29.700000000000003 42.78 C 29.61 43.47, 29.58 43.77, 29.52 44.160000000000004 L 29.46 44.339999999999996" fill="none" stroke="black" stroke-width="2"></path></svg>