<svg width="48" height="48" viewBox="0 0 48 48" xmlns="http://www.w3.org/2000/svg"><path d="M 16.14 4.38 C 16.08 5.82, 16.064999999999998 5.3549999999999995, 16.02 7.26 C 15.99 9.629999999999999, 16.035 10.2, 15.96 12 C 15.84 13.23, 15.870000000000001 12.75, 15.72 14.46 C 15.54 16.65, 15.45 17.1, 15.36 18.84 C 15.36 20.13, 15.225 20.22, 15.36 21.419999999999998 C 15.629999999999999 22.53, 15.479999999999999 22.740000000000002, 15.899999999999999 23.64 C 16.47 24.33, 16.544999999999998 24.48, 17.04 25.02 C 17.46 25.409999999999997, 17.46 25.455, 17.88 25.799999999999997 C 18.299999999999997 26.1, 18.36 26.235, 18.72 26.400000000000002 C 19.02 26.43, 19.005 26.445, 19.32 26.46 C 19.65 26.46, 19.62 26.55, 19.98 26.46 C 20.369999999999997 26.28, 20.189999999999998 26.625, 20.759999999999998 26.099999999999998 C 21.509999999999998 25.229999999999997, 21.629999999999995 25.5, 22.259999999999998 24.36 C 22.77 22.95, 22.875 22.695, 23.28 21.54 C 23.58 20.64, 23.73 20.355, 23.88 19.740000000000002 C 23.88 19.410000000000004, 23.88 19.245, 23.88 19.080000000000002 C 23.88 19.080000000000002, 23.849999999999998 19.005000000000003, 23.88 19.080000000000002 C 23.939999999999998 19.23, 23.94 18.72, 24 19.38 C 24.06 20.549999999999997, 23.939999999999998 20.639999999999997, 24.119999999999997 21.72 C 24.419999999999998 22.71, 24.419999999999998 22.905, 24.72 23.700000000000003 C 25.02 24.300000000000004, 24.93 24.345000000000002, 25.32 24.900000000000002 C 25.8 25.410000000000004, 25.665 25.515, 26.28 25.92 C 27.03 26.22, 26.880000000000003 26.4, 27.78 26.52 C 28.830000000000002 26.46, 29.085 26.535000000000004, 29.880000000000003 26.400000000000002 C 30.42 26.19, 30.465000000000003 26.490000000000002, 30.96 25.98 C 31.41 25.17, 31.605 25.35, 31.86 24.36 C 31.92 23.189999999999998, 31.95 23.174999999999997, 31.98 22.02 C 31.98 20.880000000000003, 32.055 20.790000000000003, 31.98 19.740000000000002 C 31.83 18.78, 32.01 18.885, 31.68 17.82 C 31.17 16.65, 31.17 16.47, 30.660000000000004 15.48 C 30.150000000000002 14.67, 30.240000000000002 14.565, 29.64 13.86 C 28.95 13.26, 28.875 13.065, 28.259999999999998 12.66 C 27.72 12.45, 27.93 12.345, 27.18 12.24 C 26.22 12.24, 26.4 11.985, 25.259999999999998 12.24 C 23.939999999999998 12.75, 23.67 12.674999999999999, 22.62 13.26 C 21.84 13.920000000000002, 21.765 13.815000000000001, 21.06 14.580000000000002 C 20.43 15.450000000000001, 20.264999999999997 15.510000000000002, 19.799999999999997 16.32 C 19.5 17.07, 19.395000000000003 17.16, 19.200000000000003 17.82 C 19.11 18.39, 19.065 18.675, 19.02 18.96 L 19.02 18.96" fill="none" stroke="black" stroke-width="2"></path><path d="M 23.759999999999998 22.56 C 23.85 22.74, 23.895 22.529999999999998, 23.94 22.919999999999998 C 23.94 23.519999999999996, 24 23.205, 23.94 24.119999999999997 C 23.82 25.349999999999998, 23.76 25.319999999999997, 23.700000000000003 26.58 C 23.700000000000003 27.87, 23.700000000000003 27.750000000000004, 23.700000000000003 29.160000000000004 C 23.700000000000003 30.69, 23.700000000000003 30.884999999999998, 23.700000000000003 32.22 C 23.700000000000003 33.36, 23.700000000000003 33.21, 23.700000000000003 34.5 C 23.700000000000003 35.94, 23.700000000000003 36.015, 23.700000000000003 37.38 C 23.700000000000003 38.67, 23.700000000000003 39.045, 23.700000000000003 39.96 C 23.700000000000003 40.5, 23.700000000000003 40.545, 23.700000000000003 41.04 C 23.700000000000003 41.489999999999995, 23.700000000000003 41.519999999999996, 23.700000000000003 41.94 C 23.700000000000003 42.33, 23.700000000000003 42.405, 23.700000000000003 42.72 C 23.700000000000003 42.96, 23.700000000000003 43.08, 23.700000000000003 43.2 C 23.700000000000003 43.2, 23.700000000000003 43.2, 23.700000000000003 43.2 L 23.700000000000003 43.2" fill="none" stroke="black" stroke-width="2"></path></svg>