<svg width="48" height="48" viewBox="0 0 48 48" xmlns="http://www.w3.org/2000/svg"><path d="M 14.82 32.94 C 14.04 31.41, 14.025 31.695, 13.26 29.880000000000003 C 12.51 27.78, 12.51 28.08, 11.76 25.68 C 11.01 22.98, 10.799999999999999 22.59, 10.26 20.28 C 9.93 18.36, 9.945000000000002 18.435000000000002, 9.600000000000001 16.44 C 9.24 14.370000000000001, 9.059999999999999 13.875, 8.879999999999999 12.299999999999999 C 8.879999999999999 11.219999999999999, 8.879999999999999 11.085, 8.879999999999999 10.14 C 8.879999999999999 9.33, 8.805 9.209999999999999, 8.879999999999999 8.52 C 9.03 7.949999999999999, 9.059999999999999 7.74, 9.18 7.38 C 9.27 7.23, 9.195 7.26, 9.36 7.08 C 9.6 6.87, 9.524999999999999 6.84, 9.84 6.66 C 10.23 6.51, 10.185 6.4350000000000005, 10.620000000000001 6.36 C 11.100000000000001 6.36, 11.115 6.33, 11.58 6.36 C 12.030000000000001 6.42, 12 6.315, 12.48 6.48 C 12.99 6.75, 12.975 6.584999999999999, 13.5 7.02 C 14.040000000000001 7.62, 13.935000000000002 7.260000000000001, 14.580000000000002 8.22 C 15.330000000000002 9.54, 15.435000000000002 9.54, 16.080000000000002 10.86 C 16.62 12.18, 16.725 11.82, 17.16 13.5 C 17.490000000000002 15.540000000000001, 17.61 15.840000000000002, 17.82 17.580000000000002 C 17.91 19.020000000000003, 17.955 19.62, 18 20.46 C 18 20.700000000000003, 18 20.82, 18 20.94 C 18 20.94, 18 20.94, 18 20.94 C 18 20.94, 18 20.94, 18 20.94 C 18 20.94, 17.985 20.895000000000003, 18 20.94 C 18.03 21.03, 17.939999999999998 21.075000000000003, 18.06 21.12 C 18.27 21.12, 17.97 21.240000000000002, 18.48 21.12 C 19.29 20.880000000000003, 19.335 20.895, 20.1 20.64 C 20.82 20.37, 20.715 20.235, 21.54 20.1 C 22.47 20.1, 22.47 20.1, 23.4 20.1 C 24.33 20.1, 24.434999999999995 20.1, 25.259999999999998 20.1 C 25.98 20.1, 26.07 20.1, 26.700000000000003 20.1 C 27.240000000000002 20.1, 27.39 20.1, 27.78 20.1 C 28.02 20.1, 28.019999999999996 20.07, 28.259999999999998 20.1 C 28.5 20.16, 28.62 20.189999999999998, 28.740000000000002 20.22 C 28.740000000000002 20.22, 28.695 20.189999999999998, 28.740000000000002 20.22 C 28.830000000000002 20.28, 28.875 20.31, 28.92 20.34 L 28.92 20.34" fill="none" stroke="black" stroke-width="2"></path><path d="M 22.02 14.16 C 21.810000000000002 13.2, 21.705000000000002 13.26, 21.6 12.24 C 21.6 11.16, 21.42 11.475, 21.6 10.08 C 21.96 8.370000000000001, 21.990000000000002 7.83, 22.32 6.66 C 22.619999999999997 6.03, 22.695 5.805000000000001, 22.919999999999998 5.4 C 23.07 5.220000000000001, 22.935 5.175, 23.22 5.04 C 23.64 4.95, 23.58 4.86, 24.06 4.86 C 24.6 4.95, 24.66 4.875, 25.14 5.04 C 25.560000000000002 5.28, 25.47 5.040000000000001, 25.98 5.5200000000000005 C 26.58 6.24, 26.7 6.299999999999999, 27.18 6.959999999999999 C 27.54 7.56, 27.57 7.32, 27.900000000000002 8.16 C 28.200000000000003 9.24, 28.275000000000002 9.075, 28.5 10.32 C 28.65 11.73, 28.724999999999998 11.535, 28.799999999999997 13.14 C 28.799999999999997 14.940000000000001, 28.814999999999998 15.345000000000002, 28.799999999999997 16.740000000000002 C 28.77 17.73, 28.92 17.445, 28.740000000000002 18.72 C 28.41 20.28, 28.529999999999998 20.07, 28.08 21.84 C 27.509999999999998 23.82, 27.48 24.224999999999998, 26.94 25.799999999999997 C 26.43 26.97, 26.340000000000003 27.134999999999998, 25.92 28.14 C 25.59 28.98, 25.485 29.205000000000002, 25.259999999999998 29.82 C 25.14 30.21, 25.08 30.404999999999998, 25.02 30.599999999999998 C 25.02 30.599999999999998, 25.02 30.525, 25.02 30.599999999999998 C 25.02 30.75, 25.02 30.78, 25.02 30.900000000000002 C 25.02 30.990000000000002, 25.02 31.005, 25.02 31.08 L 25.02 31.200000000000003" fill="none" stroke="black" stroke-width="2"></path><path d="M 11.94 33.18 C 13.98 32.82, 13.889999999999999 32.82, 16.02 32.46 C 18.240000000000002 32.1, 18.3 31.92, 20.46 31.740000000000002 C 22.560000000000002 31.740000000000002, 22.605000000000004 31.740000000000002, 24.660000000000004 31.740000000000002 C 26.67 31.740000000000002, 27.405 31.695, 28.68 31.740000000000002 C 29.22 31.830000000000002, 29.415 31.845000000000002, 29.759999999999998 31.92 C 29.909999999999997 31.98, 29.985 32.01, 30.06 32.04 L 30.06 32.04" fill="none" stroke="black" stroke-width="2"></path><path d="M 11.76 39.599999999999994 C 12.690000000000001 39.209999999999994, 11.655000000000001 39.3, 13.620000000000001 38.82 C 16.62 38.25, 17.265 38.04, 19.62 37.68 C 21.33 37.53, 21.12 37.455, 23.04 37.38 C 25.169999999999998 37.38, 25.559999999999995 37.335, 27.299999999999997 37.38 C 28.65 37.47, 29.25 37.515, 30 37.56 L 30.299999999999997 37.56" fill="none" stroke="black" stroke-width="2"></path></svg>