<svg width="48" height="48" viewBox="0 0 48 48" xmlns="http://www.w3.org/2000/svg"><path d="M 14.22 28.380000000000003 C 14.7 28.47, 14.64 28.515, 15.18 28.56 C 15.78 28.56, 15.66 28.514999999999997, 16.38 28.56 C 17.22 28.65, 17.294999999999998 28.695, 18.06 28.740000000000002 C 18.75 28.740000000000002, 18.78 28.770000000000003, 19.44 28.740000000000002 C 20.07 28.68, 19.995000000000005 29.04, 20.700000000000003 28.619999999999997 C 21.48 27.839999999999996, 21.54 28.169999999999998, 22.259999999999998 27.06 C 22.92 25.619999999999997, 23.04 25.515, 23.580000000000002 24.18 C 24 22.95, 24.045 22.935, 24.42 21.72 C 24.75 20.52, 24.9 20.025, 25.08 19.32 C 25.11 19.11, 25.125 19.005, 25.14 18.9 C 25.14 18.9, 25.245 18.18, 25.14 18.9 C 24.93 20.34, 24.869999999999997 20.61, 24.72 21.78 C 24.63 22.68, 24.509999999999998 22.620000000000005, 24.54 23.580000000000002 C 24.689999999999998 24.6, 24.494999999999997 24.674999999999997, 24.839999999999996 25.619999999999997 C 25.38 26.49, 25.41 26.775, 25.92 27.36 C 26.400000000000002 27.66, 26.445 27.810000000000002, 26.880000000000003 27.96 C 27.270000000000003 27.96, 27.120000000000005 28.155, 27.660000000000004 27.96 C 28.35 27.57, 28.29 27.9, 29.04 27.18 C 29.85 26.13, 30.000000000000004 26.22, 30.660000000000004 25.08 C 31.17 23.85, 31.215000000000003 23.91, 31.68 22.62 C 32.099999999999994 21.27, 32.205 21.375, 32.519999999999996 19.919999999999998 C 32.73 18.36, 32.834999999999994 18.33, 32.94 16.799999999999997 C 32.94 15.299999999999997, 33.135 15.299999999999997, 32.94 13.799999999999999 C 32.55 12.3, 32.535000000000004 12.15, 32.160000000000004 10.8 C 31.800000000000004 9.6, 31.695 9.315, 31.44 8.399999999999999 C 31.29 7.77, 31.35 7.739999999999999, 31.14 7.14 C 30.869999999999997 6.57, 30.81 6.495, 30.599999999999998 6 C 30.449999999999996 5.58, 30.464999999999996 5.445, 30.299999999999997 5.16 C 30.119999999999997 5.01, 30.15 4.995, 29.94 4.86 C 29.700000000000003 4.74, 29.775000000000002 4.68, 29.46 4.62 C 29.07 4.62, 29.1 4.62, 28.68 4.62 C 28.23 4.62, 28.26 4.5, 27.78 4.62 C 27.27 4.859999999999999, 27.18 4.8, 26.759999999999998 5.1 C 26.43 5.46, 26.444999999999997 5.3100000000000005, 26.099999999999998 5.82 C 25.740000000000002 6.48, 25.755000000000003 6.42, 25.380000000000003 7.14 C 24.990000000000002 7.92, 24.945 7.829999999999999, 24.599999999999998 8.7 C 24.299999999999997 9.66, 24.21 10.02, 24 10.620000000000001 C 23.88 10.860000000000001, 23.82 10.98, 23.759999999999998 11.100000000000001 L 23.759999999999998 11.100000000000001" fill="none" stroke="black" stroke-width="2"></path><path d="M 24.299999999999997 23.94 C 24.15 24.36, 24.165 23.985000000000003, 24 24.78 C 23.82 25.95, 23.73 26.069999999999997, 23.64 27.119999999999997 C 23.64 28.049999999999997, 23.505000000000003 28.155, 23.64 28.98 C 23.91 29.700000000000003, 23.73 29.535000000000004, 24.18 30.42 C 24.810000000000002 31.47, 24.765 31.589999999999996, 25.44 32.519999999999996 C 26.160000000000004 33.33, 25.965000000000003 33.555, 26.880000000000003 34.14 C 27.990000000000002 34.5, 27.974999999999998 34.56, 29.099999999999998 34.86 C 30.240000000000002 35.099999999999994, 30.69 35.175, 31.380000000000003 35.339999999999996 C 31.62 35.42999999999999, 31.68 35.41499999999999, 31.86 35.519999999999996 C 31.979999999999997 35.64, 32.03999999999999 35.625, 32.099999999999994 35.76 C 32.099999999999994 35.91, 32.099999999999994 35.985, 32.099999999999994 36.06 C 32.099999999999994 36.06, 32.21999999999999 35.955, 32.099999999999994 36.06 C 31.859999999999996 36.27, 32.03999999999999 36.330000000000005, 31.619999999999997 36.480000000000004 C 31.02 36.57000000000001, 31.365000000000002 36.525000000000006, 30.42 36.660000000000004 C 29.13 36.84, 29.054999999999996 36.794999999999995, 27.839999999999996 37.019999999999996 C 26.699999999999996 37.29, 26.595 37.2, 25.56 37.56 C 24.630000000000003 38.010000000000005, 24.42 38.07, 23.700000000000003 38.46 C 23.19 38.79, 23.28 38.61, 22.68 39.12 C 21.99 39.81, 21.944999999999997 39.795, 21.299999999999997 40.5 C 20.7 41.22, 20.64 41.06999999999999, 20.1 41.94 C 19.62 42.96, 19.425 43.125, 19.14 43.980000000000004 C 19.05 44.67, 19.005000000000003 44.895, 18.96 45.36 C 18.96 45.599999999999994, 18.96 45.72, 18.96 45.839999999999996 C 18.96 45.839999999999996, 18.96 45.839999999999996, 18.96 45.839999999999996 L 18.96 45.839999999999996" fill="none" stroke="black" stroke-width="2"></path><path d="M 16.080000000000002 35.7 C 17.37 36.33, 17.475 36.42, 18.66 36.96 C 19.740000000000002 37.41, 19.8 37.245, 20.82 37.86 C 21.78 38.64, 22.155 38.91, 22.740000000000002 39.42 C 22.950000000000003 39.660000000000004, 23.055 39.78, 23.16 39.900000000000006 C 23.16 39.900000000000006, 23.16 39.900000000000006, 23.16 39.900000000000006 L 23.16 39.900000000000006" fill="none" stroke="black" stroke-width="2"></path></svg>