<svg width="48" height="48" viewBox="0 0 48 48" xmlns="http://www.w3.org/2000/svg"><path d="M 12.899999999999999 3.96 C 12.99 4.859999999999999, 12.990000000000002 4.5, 13.080000000000002 5.76 C 13.170000000000002 7.38, 13.29 7.35, 13.26 9 C 13.11 10.68, 13.065000000000001 10.754999999999999, 12.96 12.36 C 12.9 13.889999999999999, 12.870000000000001 14.084999999999997, 12.84 15.419999999999998 C 12.84 16.560000000000002, 12.84 16.53, 12.84 17.700000000000003 C 12.84 18.900000000000002, 12.84 19.035000000000004, 12.84 20.1 C 12.84 21.03, 12.75 21.270000000000003, 12.84 21.96 C 13.02 22.41, 12.945 22.439999999999998, 13.200000000000001 22.86 C 13.530000000000001 23.25, 13.53 23.325000000000003, 13.86 23.64 C 14.19 23.88, 14.114999999999998 23.894999999999996, 14.52 24.119999999999997 C 15 24.33, 15.075 24.375, 15.48 24.54 C 15.81 24.66, 15.66 24.675, 16.14 24.78 C 16.77 24.87, 16.814999999999998 24.885, 17.4 24.96 C 17.939999999999998 25.02, 17.94 25.049999999999997, 18.48 25.08 C 19.02 25.08, 18.99 25.08, 19.56 25.08 C 20.159999999999997 25.08, 19.919999999999998 25.08, 20.759999999999998 25.08 C 21.839999999999996 25.08, 21.839999999999996 25.08, 22.919999999999998 25.08 C 24 25.08, 24.194999999999997 25.124999999999996, 25.08 25.08 C 25.77 24.990000000000002, 25.845 24.945, 26.46 24.900000000000002 C 27 24.900000000000002, 27.119999999999997 24.900000000000002, 27.54 24.900000000000002 C 27.84 24.900000000000002, 27.75 24.945000000000004, 28.14 24.900000000000002 C 28.619999999999997 24.810000000000002, 28.709999999999997 24.795, 29.099999999999998 24.72 C 29.4 24.659999999999997, 29.415000000000003 24.674999999999997, 29.700000000000003 24.599999999999998 C 29.970000000000002 24.509999999999998, 30.03 24.48, 30.240000000000002 24.42 C 30.39 24.39, 30.345 24.48, 30.54 24.36 C 30.78 24.15, 30.84 24.21, 31.02 23.94 C 31.14 23.61, 31.2 23.790000000000003, 31.259999999999998 23.28 C 31.259999999999998 22.59, 31.259999999999998 22.56, 31.259999999999998 21.9 C 31.259999999999998 21.27, 31.305 21.345, 31.259999999999998 20.64 C 31.169999999999998 19.86, 31.259999999999998 20.130000000000003, 31.08 19.080000000000002 C 30.81 17.76, 30.735 17.325000000000003, 30.54 16.44 C 30.419999999999998 15.99, 30.36 15.765, 30.299999999999997 15.54 C 30.299999999999997 15.54, 30.299999999999997 15.54, 30.299999999999997 15.54 L 30.299999999999997 15.54" fill="none" stroke="black" stroke-width="2"></path><path d="M 24.06 19.5 C 24.509999999999998 19.5, 24.345 19.5, 24.96 19.5 C 25.740000000000002 19.5, 25.845 19.5, 26.52 19.5 C 27.090000000000003 19.5, 27.015000000000004 19.5, 27.660000000000004 19.5 C 28.380000000000003 19.5, 28.515 19.455, 29.099999999999998 19.5 C 29.549999999999997 19.59, 29.58 19.634999999999998, 30 19.68 C 30.39 19.68, 30.465000000000003 19.68, 30.78 19.68 C 31.02 19.68, 31.14 19.68, 31.259999999999998 19.68 L 31.259999999999998 19.68" fill="none" stroke="black" stroke-width="2"></path><path d="M 22.14 25.32 C 22.17 25.8, 22.020000000000003 25.785000000000004, 22.200000000000003 26.28 C 22.53 26.79, 22.425 26.654999999999998, 22.86 27.299999999999997 C 23.4 28.08, 23.400000000000002 28.08, 23.94 28.86 C 24.48 29.64, 24.45 29.64, 25.02 30.42 C 25.619999999999997 31.200000000000003, 25.77 31.425, 26.22 31.98 C 26.52 32.31, 26.37 32.19, 26.82 32.64 C 27.42 33.21, 27.48 33.33, 28.02 33.78 C 28.5 34.11, 28.605 34.214999999999996, 28.98 34.44 C 29.25 34.56, 29.265 34.515, 29.52 34.68 C 29.759999999999998 34.89, 29.79 34.904999999999994, 30 35.099999999999994 C 30.18 35.28, 30.195 35.205, 30.36 35.46 C 30.51 35.79, 30.585 35.835, 30.660000000000004 36.12 C 30.660000000000004 36.36, 30.660000000000004 36.449999999999996, 30.660000000000004 36.599999999999994 C 30.660000000000004 36.66, 30.660000000000004 36.644999999999996, 30.660000000000004 36.72 C 30.660000000000004 36.81, 30.870000000000005 36.720000000000006, 30.660000000000004 36.900000000000006 C 30.240000000000002 37.17, 30.315 37.2, 29.82 37.44 C 29.25 37.65, 29.37 37.605, 28.68 37.86 C 27.869999999999997 38.16, 27.884999999999998 38.175, 27.06 38.46 C 26.22 38.730000000000004, 26.265 38.7, 25.380000000000003 39 C 24.450000000000003 39.33, 24.285 39.375, 23.52 39.660000000000004 C 22.92 39.900000000000006, 22.905 39.885000000000005, 22.32 40.14 C 21.75 40.41, 21.93 40.32, 21.18 40.68 C 20.25 41.129999999999995, 20.13 41.1, 19.32 41.58 C 18.630000000000003 42.089999999999996, 18.72 42.01499999999999, 17.94 42.599999999999994 C 17.07 43.26, 16.755000000000003 43.455, 16.200000000000003 43.92 C 15.96 44.19, 15.945000000000002 44.205, 15.72 44.46 C 15.51 44.7, 15.45 44.775, 15.299999999999999 44.94 C 15.21 45.03, 15.165000000000001 45.074999999999996, 15.120000000000001 45.12 C 15.120000000000001 45.12, 15.120000000000001 45.12, 15.120000000000001 45.12 L 15.120000000000001 45.12" fill="none" stroke="black" stroke-width="2"></path></svg>