<svg width="48" height="48" viewBox="0 0 48 48" xmlns="http://www.w3.org/2000/svg"><path d="M 13.86 29.52 C 13.59 28.14, 13.5 27.93, 13.32 26.759999999999998 C 13.23 25.799999999999997, 13.2 25.649999999999995, 13.14 24.839999999999996 C 13.110000000000001 24.18, 13.095000000000002 24.299999999999997, 13.080000000000002 23.52 C 13.080000000000002 22.619999999999997, 13.080000000000002 22.439999999999998, 13.080000000000002 21.72 C 13.080000000000002 21.18, 12.960000000000003 21.240000000000002, 13.080000000000002 20.64 C 13.32 19.98, 13.334999999999999 19.785, 13.559999999999999 19.32 C 13.77 19.05, 13.65 19.05, 13.98 18.78 C 14.43 18.51, 14.28 18.51, 14.879999999999999 18.240000000000002 C 15.629999999999999 17.970000000000002, 15.66 17.925000000000004, 16.38 17.700000000000003 C 17.07 17.520000000000003, 17.13 17.43, 17.759999999999998 17.34 C 18.33 17.34, 18.134999999999998 17.34, 18.9 17.34 C 19.86 17.34, 19.92 17.34, 20.82 17.34 C 21.66 17.34, 21.84 17.34, 22.5 17.34 C 22.98 17.34, 23.07 17.34, 23.46 17.34 C 23.759999999999998 17.34, 23.685 17.34, 24.06 17.34 C 24.509999999999998 17.34, 24.54 17.34, 24.96 17.34 C 25.35 17.34, 25.335 17.415, 25.740000000000002 17.34 C 26.16 17.189999999999998, 26.25 17.175, 26.58 17.04 C 26.82 16.919999999999998, 26.759999999999998 17.129999999999995, 27.06 16.799999999999997 C 27.42 16.259999999999998, 27.51 16.275, 27.78 15.72 C 27.96 15.150000000000002, 28.05 15.225000000000001, 28.14 14.580000000000002 C 28.14 13.860000000000001, 28.155 13.89, 28.14 13.14 C 28.11 12.36, 28.139999999999997 12.51, 28.08 11.58 C 27.990000000000002 10.5, 28.020000000000003 10.455, 27.900000000000002 9.42 C 27.75 8.43, 27.674999999999997 8.16, 27.599999999999998 7.4399999999999995 C 27.599999999999998 6.99, 27.599999999999998 6.765000000000001, 27.599999999999998 6.540000000000001 C 27.599999999999998 6.540000000000001, 27.629999999999995 6.585000000000001, 27.599999999999998 6.540000000000001 L 27.48 6.36" fill="none" stroke="black" stroke-width="2"></path><path d="M 20.82 11.399999999999999 C 21.36 11.309999999999999, 21.33 11.265, 21.9 11.22 C 22.5 11.22, 22.455000000000002 11.22, 23.1 11.22 C 23.79 11.22, 23.895 11.22, 24.48 11.22 C 24.96 11.22, 24.93 11.265, 25.44 11.22 C 25.98 11.13, 26.055 11.085, 26.52 11.040000000000001 C 26.909999999999997 11.040000000000001, 27.029999999999998 11.040000000000001, 27.299999999999997 11.040000000000001 C 27.449999999999996 11.040000000000001, 27.525 11.040000000000001, 27.599999999999998 11.040000000000001 L 27.599999999999998 11.040000000000001" fill="none" stroke="black" stroke-width="2"></path><path d="M 21.299999999999997 18.6 C 21.36 19.23, 21.36 19.064999999999998, 21.419999999999998 19.86 C 21.479999999999997 20.82, 21.494999999999997 20.565, 21.54 21.78 C 21.57 23.25, 21.585 23.49, 21.6 24.72 C 21.6 25.71, 21.6 25.875000000000004, 21.6 26.700000000000003 C 21.6 27.36, 21.630000000000003 27.18, 21.6 28.02 C 21.54 29.04, 21.615000000000002 29.04, 21.48 30.06 C 21.27 31.08, 21.299999999999997 31.079999999999995, 21.06 32.099999999999994 C 20.79 33.12, 20.73 33.33, 20.52 34.14 C 20.369999999999997 34.739999999999995, 20.49 34.709999999999994, 20.22 35.339999999999996 C 19.83 36, 19.905 35.940000000000005, 19.44 36.660000000000004 C 18.9 37.44, 19.05 37.394999999999996, 18.36 38.22 C 17.52 39.09, 17.46 39.285, 16.68 39.96 C 15.96 40.44, 15.945 40.47, 15.24 40.92 C 14.55 41.34, 14.205 41.55, 13.86 41.76 C 13.86 41.76, 13.86 41.76, 13.86 41.76 C 13.86 41.76, 13.86 41.76, 13.86 41.76 L 13.86 41.76" fill="none" stroke="black" stroke-width="2"></path><path d="M 20.04 36.3 C 21.54 36.3, 21.689999999999998 36.39, 23.04 36.3 C 24.240000000000002 36.12, 24.495 36.074999999999996, 25.44 35.94 C 26.130000000000003 35.849999999999994, 26.175 35.805, 26.82 35.76 C 27.42 35.76, 27.6 35.76, 28.02 35.76 C 28.259999999999998 35.76, 28.335 35.76, 28.5 35.76 L 28.68 35.76" fill="none" stroke="black" stroke-width="2"></path></svg>