<svg width="48" height="48" viewBox="0 0 48 48" xmlns="http://www.w3.org/2000/svg"><path d="M 9.600000000000001 9.959999999999999 C 9.870000000000001 14.939999999999998, 10.005 15.704999999999998, 10.14 19.919999999999998 C 10.14 23.369999999999997, 10.14 23.475, 10.14 26.82 C 10.14 30.06, 10.14 30.779999999999994, 10.14 33.3 C 10.14 35.1, 10.02 35.190000000000005, 10.14 36.900000000000006 C 10.38 38.52, 10.275000000000002 38.985, 10.620000000000001 40.14 C 11.07 40.83, 10.575 41.084999999999994, 11.52 41.519999999999996 C 12.959999999999999 41.7, 13.004999999999999 41.79, 14.399999999999999 41.88 C 15.75 41.88, 15.66 41.910000000000004, 17.1 41.88 C 18.630000000000003 41.82, 18.810000000000002 41.805, 20.16 41.76 C 21.33 41.730000000000004, 21.54 41.97, 22.5 41.7 C 23.25 41.19, 23.4 41.265, 24 40.68 C 24.450000000000003 40.019999999999996, 24.555 40.92, 24.900000000000002 39.36 C 25.14 36.9, 25.26 37.485, 25.380000000000003 34.44 C 25.380000000000003 30.81, 25.380000000000003 30.39, 25.380000000000003 27.18 C 25.380000000000003 24.39, 25.380000000000003 24.585, 25.380000000000003 21.6 C 25.380000000000003 18.42, 25.380000000000003 17.715, 25.380000000000003 15.24 C 25.380000000000003 13.469999999999999, 25.380000000000003 12.825, 25.380000000000003 11.7 C 25.380000000000003 11.219999999999999, 25.380000000000003 10.98, 25.380000000000003 10.74 C 25.380000000000003 10.74, 25.380000000000003 10.74, 25.380000000000003 10.74 C 25.380000000000003 10.74, 25.380000000000003 10.74, 25.380000000000003 10.74 C 25.380000000000003 10.74, 25.380000000000003 10.74, 25.380000000000003 10.74 L 25.380000000000003 10.74" fill="none" stroke="black" stroke-width="2"></path><path d="M 16.14 17.64 C 16.59 17.67, 16.049999999999997 17.685000000000002, 17.04 17.700000000000003 C 18.57 17.700000000000003, 18.765 17.700000000000003, 20.1 17.700000000000003 C 21.240000000000002 17.700000000000003, 21.645 17.700000000000003, 22.38 17.700000000000003 C 22.71 17.700000000000003, 22.724999999999998 17.655000000000005, 23.04 17.700000000000003 C 23.34 17.79, 23.445 17.835, 23.64 17.88 C 23.73 17.88, 23.700000000000003 17.88, 23.82 17.88 C 23.97 17.88, 23.924999999999997 17.88, 24.119999999999997 17.88 C 24.36 17.88, 24.449999999999996 17.88, 24.599999999999998 17.88 C 24.659999999999997 17.88, 24.689999999999998 17.88, 24.72 17.88 L 24.72 17.88" fill="none" stroke="black" stroke-width="2"></path></svg>