<svg width="48" height="48" viewBox="0 0 48 48" xmlns="http://www.w3.org/2000/svg"><path d="M 13.98 29.880000000000003 C 13.98 29.37, 14.025 29.865000000000002, 13.98 28.86 C 13.89 27.36, 13.844999999999999 27.119999999999997, 13.799999999999999 25.86 C 13.799999999999999 24.84, 13.799999999999999 24.54, 13.799999999999999 23.82 C 13.799999999999999 23.4, 13.799999999999999 23.595, 13.799999999999999 22.98 C 13.799999999999999 22.17, 13.799999999999999 21.99, 13.799999999999999 21.36 C 13.799999999999999 20.91, 13.589999999999998 20.925, 13.799999999999999 20.46 C 14.219999999999999 19.98, 14.07 19.905, 14.64 19.5 C 15.360000000000001 19.17, 15.345000000000002 18.96, 16.080000000000002 18.84 C 16.830000000000002 18.93, 16.815 18.869999999999997, 17.580000000000002 19.02 C 18.36 19.23, 18.240000000000002 19.26, 19.14 19.44 C 20.16 19.590000000000003, 20.175 19.635, 21.18 19.740000000000002 C 22.17 19.8, 22.29 19.785, 23.16 19.86 C 23.910000000000004 19.95, 23.910000000000004 19.994999999999997, 24.660000000000004 20.04 C 25.410000000000004 20.04, 25.590000000000003 20.04, 26.160000000000004 20.04 C 26.550000000000004 20.04, 26.550000000000004 20.055, 26.94 20.04 C 27.33 20.009999999999998, 27.36 20.1, 27.72 19.98 C 28.05 19.77, 28.080000000000002 19.83, 28.380000000000003 19.56 C 28.650000000000002 19.229999999999997, 28.725 19.305, 28.92 18.9 C 29.040000000000003 18.42, 29.1 18.450000000000003, 29.160000000000004 17.94 C 29.160000000000004 17.4, 29.190000000000005 17.64, 29.160000000000004 16.86 C 29.1 15.84, 29.16 15.765, 29.04 14.82 C 28.86 13.950000000000001, 28.86 14.205000000000002, 28.68 13.080000000000002 C 28.5 11.700000000000001, 28.439999999999998 11.190000000000001, 28.32 10.32 C 28.26 9.96, 28.260000000000005 9.975000000000001, 28.200000000000003 9.600000000000001 C 28.14 9.21, 28.11 9.015, 28.08 8.82 L 28.08 8.82" fill="none" stroke="black" stroke-width="2"></path><path d="M 22.56 13.559999999999999 C 23.31 13.559999999999999, 23.264999999999997 13.559999999999999, 24.06 13.559999999999999 C 24.9 13.559999999999999, 24.990000000000002 13.559999999999999, 25.740000000000002 13.559999999999999 C 26.4 13.559999999999999, 26.505 13.559999999999999, 27.06 13.559999999999999 C 27.509999999999998 13.559999999999999, 27.57 13.514999999999999, 27.96 13.559999999999999 C 28.29 13.649999999999999, 28.379999999999995 13.65, 28.619999999999997 13.74 C 28.77 13.829999999999998, 28.8 13.874999999999998, 28.92 13.919999999999998 L 29.099999999999998 13.919999999999998" fill="none" stroke="black" stroke-width="2"></path><path d="M 22.32 20.16 C 22.32 20.700000000000003, 22.32 20.745, 22.32 21.240000000000002 C 22.32 21.69, 22.32 21.645000000000003, 22.32 22.14 C 22.32 22.68, 22.32 22.605, 22.32 23.22 C 22.32 23.909999999999997, 22.32 24.059999999999995, 22.32 24.599999999999998 C 22.32 24.990000000000002, 22.32 25.080000000000002, 22.32 25.380000000000003 C 22.32 25.59, 22.32 25.424999999999997, 22.32 25.799999999999997 C 22.32 26.34, 22.32 26.370000000000005, 22.32 26.880000000000003 C 22.32 27.36, 22.32 27.33, 22.32 27.839999999999996 C 22.32 28.38, 22.335 28.455, 22.32 28.92 C 22.29 29.310000000000002, 22.349999999999998 29.235000000000003, 22.259999999999998 29.700000000000003 C 22.11 30.240000000000002, 22.05 30.270000000000003, 21.96 30.78 C 21.93 31.26, 21.974999999999998 31.275000000000002, 21.9 31.740000000000002 C 21.78 32.19, 21.765 32.295, 21.66 32.64 C 21.57 32.879999999999995, 21.585 32.864999999999995, 21.48 33.12 C 21.36 33.39, 21.375 33.330000000000005, 21.240000000000002 33.660000000000004 C 21.090000000000003 34.05, 21.12 34.035, 20.94 34.44 C 20.73 34.86, 20.67 34.995000000000005, 20.52 35.28 C 20.43 35.43, 20.46 35.37, 20.34 35.58 C 20.189999999999998 35.849999999999994, 20.189999999999998 35.864999999999995, 20.04 36.12 C 19.89 36.36, 19.905 36.285, 19.740000000000002 36.599999999999994 C 19.560000000000002 36.989999999999995, 19.605 36.975, 19.38 37.38 C 19.11 37.8, 19.095 37.845, 18.84 38.22 C 18.6 38.55, 18.615 38.535000000000004, 18.36 38.88 C 18.09 39.239999999999995, 18.12 39.254999999999995, 17.82 39.599999999999994 C 17.490000000000002 39.92999999999999, 17.52 39.885, 17.16 40.26 C 16.77 40.67999999999999, 16.68 40.769999999999996, 16.38 41.099999999999994 C 16.17 41.339999999999996, 16.185000000000002 41.37, 15.96 41.58 C 15.72 41.76, 15.72 41.76, 15.48 41.94 C 15.24 42.12, 15.33 42.074999999999996, 15 42.3 C 14.58 42.56999999999999, 14.415 42.675, 14.16 42.839999999999996 C 14.07 42.9, 14.145 42.885, 13.98 42.96 C 13.74 43.05, 13.620000000000001 43.095, 13.5 43.14 C 13.5 43.14, 13.5 43.14, 13.5 43.14 C 13.5 43.14, 13.5 43.14, 13.5 43.14 L 13.5 43.14" fill="none" stroke="black" stroke-width="2"></path><path d="M 22.38 29.400000000000002 C 22.38 29.880000000000003, 22.47 29.805, 22.38 30.36 C 22.2 30.99, 22.11 31.305, 22.02 31.619999999999997 C 22.02 31.619999999999997, 21.99 31.47, 22.02 31.619999999999997 C 22.08 31.919999999999998, 22.095 31.619999999999997, 22.14 32.22 C 22.17 33.12, 22.185000000000002 33.495, 22.200000000000003 34.019999999999996 C 22.200000000000003 34.17, 22.110000000000003 34.14, 22.200000000000003 34.32 C 22.380000000000003 34.53, 22.395 34.245000000000005, 22.56 34.74 C 22.71 35.519999999999996, 22.755 35.864999999999995, 22.86 36.3 C 22.92 36.39, 22.845 36.27, 22.98 36.480000000000004 C 23.189999999999998 36.81, 23.205 36.795, 23.4 37.14 C 23.58 37.5, 23.564999999999998 37.575, 23.759999999999998 37.86 C 23.97 38.07, 23.955 38.04, 24.18 38.28 C 24.42 38.55, 24.375000000000004 38.565, 24.660000000000004 38.82 C 24.990000000000002 39.06, 24.945 39.045, 25.32 39.3 C 25.740000000000002 39.56999999999999, 25.665000000000006 39.52499999999999, 26.160000000000004 39.839999999999996 C 26.73 40.2, 26.849999999999998 40.32, 27.299999999999997 40.56 C 27.63 40.68, 27.585 40.65, 27.96 40.8 C 28.38 40.980000000000004, 28.47 41.010000000000005, 28.799999999999997 41.160000000000004 C 29.04 41.28, 29.04 41.28000000000001, 29.28 41.400000000000006 C 29.52 41.52, 29.474999999999998 41.505, 29.759999999999998 41.64 C 30.09 41.79, 30.135 41.82, 30.42 41.94 C 30.660000000000004 42.03, 30.705000000000002 42.074999999999996, 30.900000000000002 42.12 C 31.050000000000004 42.12, 31.125000000000004 42.12, 31.200000000000003 42.12 L 31.200000000000003 42.12" fill="none" stroke="black" stroke-width="2"></path></svg>