<svg width="48" height="48" viewBox="0 0 48 48" xmlns="http://www.w3.org/2000/svg"><path d="M 11.16 3.3600000000000003 C 11.01 5.040000000000001, 11.04 4.5600000000000005, 10.86 6.720000000000001 C 10.649999999999999 9.36, 10.649999999999999 9.6, 10.44 12 C 10.23 14.16, 10.125 14.205, 10.02 16.32 C 10.02 18.39, 10.02 18.915, 10.02 20.46 C 10.02 21.48, 9.93 21.45, 10.02 22.5 C 10.2 23.580000000000002, 10.139999999999999 23.715000000000003, 10.379999999999999 24.660000000000004 C 10.68 25.470000000000002, 10.695 25.755000000000003, 10.98 26.28 C 11.25 26.52, 11.145 26.61, 11.52 26.759999999999998 C 12 26.82, 12.09 26.85, 12.48 26.880000000000003 C 12.780000000000001 26.880000000000003, 12.630000000000003 27.180000000000003, 13.080000000000002 26.880000000000003 C 13.68 26.28, 13.665 26.655, 14.28 25.68 C 14.91 24.33, 15.12 24.51, 15.54 22.98 C 15.75 21.27, 15.81 20.82, 15.96 19.56 C 16.05 18.75, 16.11 18.84, 16.14 17.94 C 16.11 16.950000000000003, 16.095000000000002 16.455000000000002, 16.080000000000002 15.96 C 16.080000000000002 15.96, 16.035000000000004 15.93, 16.080000000000002 15.96 C 16.17 16.020000000000003, 16.14 15.585, 16.259999999999998 16.080000000000002 C 16.409999999999997 17.01, 16.439999999999998 17.130000000000003, 16.56 17.94 C 16.65 18.630000000000003, 16.575000000000003 18.375, 16.740000000000002 19.32 C 16.98 20.52, 16.919999999999998 20.79, 17.22 21.72 C 17.58 22.38, 17.505000000000003 22.424999999999997, 17.94 23.04 C 18.450000000000003 23.61, 18.450000000000003 23.775, 18.96 24.18 C 19.47 24.42, 19.47 24.450000000000003, 19.98 24.660000000000004 C 20.490000000000002 24.840000000000003, 20.325 24.84, 21 25.02 C 21.84 25.200000000000003, 21.96 25.275000000000002, 22.68 25.380000000000003 C 23.28 25.410000000000004, 23.384999999999998 25.380000000000003, 23.88 25.44 C 24.270000000000003 25.53, 24.300000000000004 25.575, 24.660000000000004 25.619999999999997 C 24.990000000000002 25.619999999999997, 25.005000000000003 25.619999999999997, 25.32 25.619999999999997 C 25.62 25.619999999999997, 25.650000000000002 25.619999999999997, 25.92 25.619999999999997 C 26.160000000000004 25.619999999999997, 26.205000000000002 25.634999999999998, 26.400000000000002 25.619999999999997 C 26.550000000000004 25.589999999999996, 26.505000000000003 25.65, 26.700000000000003 25.56 C 26.94 25.409999999999997, 26.939999999999998 25.65, 27.18 25.259999999999998 C 27.42 24.63, 27.42 24.78, 27.660000000000004 24 C 27.900000000000002 23.07, 27.975 23.145, 28.14 22.14 C 28.23 21.060000000000002, 28.275 21.135, 28.32 19.98 C 28.32 18.75, 28.32 18.57, 28.32 17.52 C 28.32 16.65, 28.32 16.365, 28.32 15.78 C 28.32 15.48, 28.335 15.405, 28.32 15.18 C 28.29 15.03, 28.275 14.954999999999998, 28.259999999999998 14.879999999999999 C 28.259999999999998 14.879999999999999, 28.259999999999998 14.879999999999999, 28.259999999999998 14.879999999999999 L 28.259999999999998 14.879999999999999" fill="none" stroke="black" stroke-width="2"></path><path d="M 22.799999999999997 18.84 C 23.79 18.84, 23.895000000000003 18.84, 24.78 18.84 C 25.56 18.84, 25.679999999999996 18.84, 26.339999999999996 18.84 C 26.88 18.84, 27.075000000000003 18.84, 27.42 18.84 C 27.57 18.84, 27.645 18.84, 27.72 18.84 C 27.72 18.84, 27.72 18.84, 27.72 18.84 L 27.72 18.84" fill="none" stroke="black" stroke-width="2"></path><path d="M 20.580000000000002 24.78 C 20.43 25.23, 20.505000000000003 24.990000000000002, 20.28 25.68 C 19.98 26.61, 20.009999999999998 26.595, 19.68 27.54 C 19.32 28.5, 19.365000000000002 28.65, 18.96 29.46 C 18.509999999999998 30.12, 18.63 30.090000000000003, 18.06 30.78 C 17.369999999999997 31.5, 17.28 31.65, 16.68 32.22 C 16.17 32.64, 16.35 32.550000000000004, 15.66 33.06 C 14.79 33.66, 14.669999999999998 33.78, 13.919999999999998 34.26 C 13.29 34.620000000000005, 13.094999999999999 34.755, 12.66 34.980000000000004 C 12.42 35.07000000000001, 12.3 35.115, 12.18 35.160000000000004 C 12.18 35.160000000000004, 12.27 35.160000000000004, 12.18 35.160000000000004 L 11.82 35.160000000000004" fill="none" stroke="black" stroke-width="2"></path><path d="M 24.72 32.04 C 24.24 33.18, 24.194999999999997 33.345, 23.759999999999998 34.32 C 23.369999999999997 35.129999999999995, 23.535 35.01, 22.98 35.94 C 22.259999999999998 36.989999999999995, 22.544999999999998 36.9, 21.54 38.04 C 20.25 39.269999999999996, 20.01 39.585, 18.96 40.5 C 18.15 41.1, 18.33 41.010000000000005, 17.34 41.7 C 16.17 42.480000000000004, 16.155 42.555, 15 43.26 C 13.86 43.89, 13.485000000000001 44.099999999999994, 12.72 44.519999999999996 C 12.33 44.73, 12.18 44.834999999999994, 11.94 44.94 C 11.85 44.94, 11.805 44.94, 11.76 44.94 L 11.76 44.94" fill="none" stroke="black" stroke-width="2"></path></svg>