<svg width="48" height="48" viewBox="0 0 48 48" xmlns="http://www.w3.org/2000/svg"><path d="M 13.620000000000001 3.3600000000000003 C 13.83 4.710000000000001, 13.934999999999999 4.005000000000001, 14.04 6.0600000000000005 C 14.04 8.82, 14.04 9.45, 14.04 11.58 C 14.04 13.080000000000002, 14.04 13.020000000000001, 14.04 14.580000000000002 C 14.04 16.200000000000003, 13.934999999999999 16.44, 14.04 17.82 C 14.25 18.96, 14.325 19.200000000000003, 14.46 20.1 C 14.520000000000001 20.759999999999998, 14.46 20.79, 14.580000000000002 21.419999999999998 C 14.760000000000002 22.02, 14.730000000000002 22.005000000000003, 14.940000000000001 22.62 C 15.18 23.25, 15.239999999999998 23.445, 15.419999999999998 23.88 C 15.54 24.119999999999997, 15.465 24.18, 15.66 24.36 C 15.930000000000001 24.479999999999997, 15.825000000000003 24.464999999999996, 16.200000000000003 24.599999999999998 C 16.68 24.75, 16.560000000000002 24.765, 17.16 24.900000000000002 C 17.880000000000003 25.020000000000003, 17.625 25.065, 18.6 25.14 C 19.83 25.17, 19.95 25.185000000000002, 21.06 25.200000000000003 C 22.049999999999997 25.200000000000003, 21.945 25.200000000000003, 23.04 25.200000000000003 C 24.240000000000002 25.200000000000003, 24.405 25.200000000000003, 25.44 25.200000000000003 C 26.310000000000002 25.200000000000003, 26.355 25.200000000000003, 27.18 25.200000000000003 C 27.96 25.200000000000003, 28.185000000000002 25.200000000000003, 28.740000000000002 25.200000000000003 C 29.07 25.200000000000003, 29.070000000000004 25.290000000000006, 29.400000000000002 25.200000000000003 C 29.73 25.02, 29.73 25.049999999999997, 30.06 24.839999999999996 C 30.39 24.599999999999998, 30.479999999999997 24.599999999999998, 30.72 24.36 C 30.869999999999997 24.119999999999997, 30.915 24.165, 31.02 23.88 C 31.08 23.549999999999997, 31.11 23.564999999999998, 31.14 23.22 C 31.14 22.86, 31.095 23.4, 31.14 22.5 C 31.23 21.060000000000002, 31.23 21.03, 31.32 19.62 C 31.41 18.240000000000002, 31.455 18.54, 31.5 16.86 C 31.5 14.879999999999999, 31.5 14.564999999999998, 31.5 12.899999999999999 C 31.5 11.549999999999999, 31.515 11.474999999999998, 31.5 10.2 C 31.47 9, 31.53 8.715, 31.44 7.800000000000001 C 31.29 7.170000000000001, 31.305 7.125000000000001, 31.14 6.540000000000001 C 30.96 6, 30.945 5.895, 30.78 5.46 C 30.630000000000003 5.130000000000001, 30.555 4.965000000000001, 30.48 4.800000000000001 C 30.48 4.800000000000001, 30.48 4.800000000000001, 30.48 4.800000000000001 C 30.48 4.800000000000001, 30.48 4.800000000000001, 30.48 4.800000000000001 C 30.48 4.800000000000001, 30.48 4.800000000000001, 30.48 4.800000000000001 L 30.48 4.800000000000001" fill="none" stroke="black" stroke-width="2"></path><path d="M 25.44 10.98 C 25.800000000000004 10.98, 25.740000000000006 10.965, 26.160000000000004 10.98 C 26.64 11.010000000000002, 26.685 10.995000000000001, 27.119999999999997 11.040000000000001 C 27.509999999999998 11.100000000000001, 27.435000000000002 11.085, 27.900000000000002 11.16 C 28.44 11.25, 28.425 11.25, 28.98 11.34 C 29.549999999999997 11.43, 29.654999999999998 11.475, 30.119999999999997 11.52 C 30.479999999999997 11.52, 30.569999999999993 11.475, 30.839999999999996 11.52 C 31.02 11.61, 31.11 11.655, 31.200000000000003 11.7 C 31.200000000000003 11.7, 31.200000000000003 11.7, 31.200000000000003 11.7 L 31.200000000000003 11.7" fill="none" stroke="black" stroke-width="2"></path><path d="M 22.86 30.660000000000004 C 22.2 30.69, 22.215 30.509999999999998, 21.54 30.72 C 20.85 31.11, 20.67 31.005, 20.16 31.5 C 19.83 32.1, 19.74 32.040000000000006, 19.5 32.7 C 19.35 33.42, 19.275000000000002 33.42, 19.200000000000003 34.14 C 19.200000000000003 34.86, 19.155000000000005 34.86, 19.200000000000003 35.58 C 19.29 36.3, 19.125 36.404999999999994, 19.38 37.019999999999996 C 19.799999999999997 37.53, 19.71 37.53, 20.22 38.04 C 20.82 38.55, 20.88 38.685, 21.419999999999998 39.06 C 21.9 39.3, 21.794999999999998 39.36, 22.38 39.54 C 23.07 39.66, 23.115 39.72, 23.759999999999998 39.78 C 24.36 39.78, 24.36 40.005, 24.96 39.78 C 25.560000000000002 39.33, 25.725 39.39, 26.160000000000004 38.88 C 26.430000000000003 38.31, 26.520000000000003 38.25, 26.700000000000003 37.74 C 26.790000000000003 37.29, 26.790000000000003 37.425, 26.880000000000003 36.839999999999996 C 26.97 36.120000000000005, 27.06 36.150000000000006, 27.06 35.400000000000006 C 26.97 34.620000000000005, 27.015 34.425, 26.880000000000003 33.839999999999996 C 26.700000000000003 33.45, 26.73 33.435, 26.52 33.06 C 26.28 32.7, 26.294999999999998 32.625, 26.04 32.339999999999996 C 25.77 32.129999999999995, 25.845 32.16, 25.5 31.92 C 25.080000000000002 31.650000000000002, 25.110000000000003 31.620000000000005, 24.660000000000004 31.380000000000003 C 24.180000000000003 31.17, 24.060000000000002 31.155, 23.700000000000003 30.96 C 23.46 30.78, 23.384999999999998 30.689999999999998, 23.22 30.599999999999998 C 23.13 30.599999999999998, 23.115 30.599999999999998, 23.04 30.599999999999998 C 22.979999999999997 30.599999999999998, 22.95 30.599999999999998, 22.919999999999998 30.599999999999998 L 22.919999999999998 30.599999999999998" fill="none" stroke="black" stroke-width="2"></path></svg>