<svg width="48" height="48" viewBox="0 0 48 48" xmlns="http://www.w3.org/2000/svg"><path d="M 27.42 10.32 C 27.900000000000002 10.32, 27.870000000000005 10.365, 28.380000000000003 10.32 C 28.92 10.23, 28.965000000000003 10.185, 29.46 10.14 C 29.91 10.14, 29.865 10.14, 30.36 10.14 C 30.9 10.14, 30.855 10.14, 31.44 10.14 C 32.07 10.14, 32.160000000000004 10.14, 32.7 10.14 C 33.15 10.14, 33.17999999999999 10.14, 33.599999999999994 10.14 C 33.989999999999995 10.14, 34.035 10.14, 34.38 10.14 C 34.68000000000001 10.14, 34.68000000000001 10.14, 34.980000000000004 10.14 C 35.28 10.14, 35.355 10.14, 35.58 10.14 C 35.730000000000004 10.14, 35.760000000000005 10.14, 35.88 10.14 C 35.97 10.14, 36.015 10.14, 36.06 10.14 L 36.06 10.14" fill="none" stroke="black" stroke-width="2"></path><path d="M 37.32 3 C 37.17 3.27, 37.275 2.76, 37.019999999999996 3.54 C 36.66 4.83, 36.525 5.055, 36.3 6.12 C 36.209999999999994 6.960000000000001, 36.209999999999994 6.960000000000001, 36.12 7.800000000000001 C 36.03 8.64, 36.044999999999995 8.64, 35.94 9.48 C 35.82 10.32, 35.790000000000006 10.2, 35.7 11.16 C 35.64 12.24, 35.655 12.059999999999999, 35.58 13.32 C 35.49 14.760000000000002, 35.535000000000004 14.520000000000003, 35.400000000000006 16.200000000000003 C 35.22 18.12, 35.16 18.48, 35.04 20.04 C 34.980000000000004 21.240000000000002, 34.965 21.165, 34.92 22.44 C 34.89 23.79, 34.92 23.73, 34.86 25.14 C 34.769999999999996 26.61, 34.725 26.775, 34.68 28.08 C 34.68 29.22, 34.68 29.205, 34.68 30.36 C 34.68 31.53, 34.68 31.650000000000002, 34.68 32.7 C 34.68 33.63, 34.68 33.435, 34.68 34.56 C 34.68 35.88, 34.725 36.135000000000005, 34.68 37.2 C 34.59 38.010000000000005, 34.545 38.175, 34.5 38.82 C 34.5 39.3, 34.5 39.36, 34.5 39.78 C 34.5 40.14, 34.5 40.275, 34.5 40.5 C 34.5 40.59, 34.5 40.515, 34.5 40.68 C 34.5 40.92, 34.5 41.040000000000006, 34.5 41.160000000000004 C 34.5 41.160000000000004, 34.5 41.160000000000004, 34.5 41.160000000000004 L 34.5 41.160000000000004" fill="none" stroke="black" stroke-width="2"></path><path d="M 35.22 17.64 C 35.129999999999995 17.61, 35.325 17.595000000000002, 35.04 17.580000000000002 C 34.56 17.580000000000002, 34.71 17.580000000000002, 34.08 17.580000000000002 C 33.3 17.580000000000002, 33.404999999999994 17.580000000000002, 32.519999999999996 17.580000000000002 C 31.529999999999998 17.580000000000002, 31.365 17.580000000000002, 30.54 17.580000000000002 C 29.88 17.580000000000002, 30.075 17.625000000000004, 29.22 17.580000000000002 C 28.169999999999998 17.490000000000002, 27.974999999999998 17.445, 27.119999999999997 17.4 C 26.459999999999997 17.4, 26.489999999999995 17.4, 25.799999999999997 17.4 C 25.08 17.4, 25.125 17.4, 24.36 17.4 C 23.55 17.4, 23.325000000000003 17.4, 22.740000000000002 17.4 C 22.380000000000003 17.4, 22.41 17.354999999999997, 22.02 17.4 C 21.6 17.490000000000002, 21.675 17.28, 21.18 17.580000000000002 C 20.61 18.090000000000003, 20.58 17.985000000000003, 20.04 18.6 C 19.53 19.32, 19.455 19.365000000000002, 19.02 20.04 C 18.659999999999997 20.669999999999998, 18.599999999999998 20.58, 18.299999999999997 21.299999999999997 C 18.06 22.11, 18.03 21.93, 17.82 22.919999999999998 C 17.64 24.089999999999996, 17.595 24.24, 17.46 25.259999999999998 C 17.37 26.13, 17.400000000000002 26.04, 17.28 27 C 17.130000000000003 28.049999999999997, 17.085 28.049999999999997, 16.98 29.099999999999998 C 16.92 30.15, 16.89 30.270000000000003, 16.86 31.200000000000003 C 16.86 32.010000000000005, 16.905 32.1, 16.86 32.82 C 16.77 33.45, 16.77 33.57, 16.68 34.08 C 16.59 34.47, 16.545 34.394999999999996, 16.5 34.86 C 16.5 35.4, 16.5 35.4, 16.5 35.94 C 16.5 36.48, 16.5 36.48, 16.5 37.019999999999996 C 16.5 37.559999999999995, 16.5 37.754999999999995, 16.5 38.099999999999994 C 16.5 38.25, 16.47 38.205000000000005, 16.5 38.400000000000006 C 16.560000000000002 38.64, 16.53 38.625, 16.62 38.88 C 16.740000000000002 39.150000000000006, 16.71 39.21, 16.86 39.42 C 17.04 39.57, 17.099999999999998 39.599999999999994, 17.22 39.72 C 17.28 39.81, 17.22 39.795, 17.34 39.900000000000006 C 17.520000000000003 40.02, 17.490000000000002 40.035000000000004, 17.700000000000003 40.14 C 17.94 40.230000000000004, 17.865000000000002 40.26, 18.18 40.32 C 18.57 40.35, 18.405 40.335, 18.96 40.38 C 19.68 40.44, 19.589999999999996 40.47, 20.4 40.5 C 21.3 40.5, 21.39 40.5, 22.200000000000003 40.5 C 22.92 40.5, 22.980000000000004 40.5, 23.64 40.5 C 24.24 40.5, 24.179999999999996 40.5, 24.839999999999996 40.5 C 25.56 40.5, 25.845 40.5, 26.28 40.5 C 26.43 40.5, 26.46 40.5, 26.58 40.5 C 26.669999999999998 40.5, 26.714999999999996 40.5, 26.759999999999998 40.5 C 26.759999999999998 40.5, 26.759999999999998 40.5, 26.759999999999998 40.5 C 26.759999999999998 40.5, 26.759999999999998 40.5, 26.759999999999998 40.5 L 26.759999999999998 40.5" fill="none" stroke="black" stroke-width="2"></path></svg>