<svg width="48" height="48" viewBox="0 0 48 48" xmlns="http://www.w3.org/2000/svg"><path d="M 10.92 35.400000000000006 C 10.59 33.480000000000004, 10.665 33.765, 10.26 31.56 C 9.780000000000001 29.07, 9.735000000000001 29.055, 9.3 26.58 C 8.91 24.119999999999997, 8.76 23.46, 8.52 21.66 C 8.43 20.52, 8.43 20.835, 8.34 19.38 C 8.25 17.61, 8.205 17.235, 8.16 15.84 C 8.16 14.82, 8.16 14.669999999999998, 8.16 13.799999999999999 C 8.16 13.079999999999998, 8.07 13.004999999999999, 8.16 12.36 C 8.34 11.79, 8.325 11.790000000000001, 8.52 11.22 C 8.73 10.65, 8.73 10.530000000000001, 8.94 10.08 C 9.149999999999999 9.75, 9 9.81, 9.36 9.42 C 9.87 8.969999999999999, 10.049999999999999 8.76, 10.379999999999999 8.52 C 10.53 8.489999999999998, 10.455 8.475, 10.68 8.459999999999999 C 10.98 8.459999999999999, 10.919999999999998 8.384999999999998, 11.28 8.459999999999999 C 11.7 8.61, 11.745000000000001 8.58, 12.120000000000001 8.76 C 12.45 8.969999999999999, 12.405 8.834999999999999, 12.78 9.18 C 13.2 9.66, 13.290000000000001 9.690000000000001, 13.620000000000001 10.14 C 13.860000000000001 10.56, 13.785000000000002 10.350000000000001, 14.100000000000001 10.98 C 14.49 11.82, 14.52 11.76, 14.879999999999999 12.66 C 15.209999999999999 13.620000000000001, 15.239999999999998 13.530000000000001, 15.54 14.580000000000002 C 15.81 15.72, 15.870000000000001 15.885, 16.080000000000002 16.86 C 16.23 17.67, 16.2 17.445, 16.38 18.48 C 16.589999999999996 19.740000000000002, 16.619999999999997 19.95, 16.799999999999997 21 C 16.95 21.84, 16.950000000000003 22.02, 17.1 22.68 C 17.25 23.16, 17.189999999999998 23.28, 17.4 23.64 C 17.67 23.88, 17.64 23.894999999999996, 17.94 24.119999999999997 C 18.270000000000003 24.33, 18.135 24.435, 18.6 24.54 C 19.2 24.54, 19.064999999999998 24.54, 19.799999999999997 24.54 C 20.669999999999998 24.54, 20.744999999999997 24.54, 21.54 24.54 C 22.259999999999998 24.54, 22.08 24.54, 22.98 24.54 C 24.060000000000002 24.54, 23.985 24.63, 25.14 24.54 C 26.369999999999997 24.36, 26.58 24.285, 27.599999999999998 24.18 C 28.409999999999997 24.15, 28.575 24.165, 29.22 24.119999999999997 C 29.7 24.06, 29.564999999999998 24.119999999999997, 30.18 24 C 30.93 23.82, 31.185 23.745, 31.68 23.64 C 31.92 23.61, 32.040000000000006 23.595000000000002, 32.160000000000004 23.580000000000002 C 32.160000000000004 23.580000000000002, 32.160000000000004 23.580000000000002, 32.160000000000004 23.580000000000002 L 32.160000000000004 23.580000000000002" fill="none" stroke="black" stroke-width="2"></path><path d="M 21.6 16.740000000000002 C 21.990000000000002 16.65, 21.674999999999997 16.695, 22.38 16.56 C 23.4 16.380000000000003, 23.400000000000002 16.425000000000004, 24.42 16.200000000000003 C 25.44 15.930000000000001, 25.62 15.84, 26.46 15.66 C 27.12 15.57, 27.105 15.525, 27.78 15.48 C 28.470000000000002 15.48, 28.575000000000003 15.48, 29.160000000000004 15.48 C 29.64 15.48, 29.729999999999997 15.48, 30.119999999999997 15.48 C 30.419999999999998 15.48, 30.54 15.48, 30.72 15.48 C 30.779999999999998 15.48, 30.764999999999997 15.48, 30.839999999999996 15.48 C 30.93 15.48, 30.915 15.555, 31.02 15.48 L 31.259999999999998 15.18" fill="none" stroke="black" stroke-width="2"></path><path d="M 30.54 6.6000000000000005 C 30.45 7.17, 30.405 6.63, 30.36 7.74 C 30.36 9.39, 30.36 9.57, 30.36 11.040000000000001 C 30.36 12.330000000000002, 30.36 12.435000000000002, 30.36 13.620000000000001 C 30.36 14.7, 30.345 14.655, 30.36 15.78 C 30.39 16.95, 30.360000000000003 16.77, 30.42 18.12 C 30.509999999999998 19.65, 30.509999999999998 19.875, 30.599999999999998 21.18 C 30.689999999999998 22.259999999999998, 30.69 22.215, 30.78 23.34 C 30.87 24.509999999999998, 30.915 24.69, 30.96 25.68 C 30.96 26.49, 30.87 26.369999999999997, 30.96 27.299999999999997 C 31.14 28.35, 31.2 28.545, 31.32 29.400000000000002 C 31.380000000000003 30.060000000000002, 31.365000000000002 30, 31.44 30.72 C 31.53 31.5, 31.575 31.89, 31.619999999999997 32.28 C 31.619999999999997 32.28, 31.619999999999997 32.28, 31.619999999999997 32.28 L 31.619999999999997 32.28" fill="none" stroke="black" stroke-width="2"></path><path d="M 18.18 24.839999999999996 C 18.48 26.88, 18.450000000000003 26.4, 18.78 28.92 C 19.14 31.92, 19.14 32.205, 19.5 34.92 C 19.86 37.35, 19.994999999999997 37.92, 20.22 39.78 C 20.31 41.07, 20.279999999999998 41.295, 20.4 42.36 C 20.55 43.2, 20.565 43.230000000000004, 20.700000000000003 44.04 C 20.82 44.81999999999999, 20.82 44.96999999999999, 20.94 45.599999999999994 C 21.060000000000002 46.08, 21.060000000000002 46.2, 21.18 46.56 C 21.299999999999997 46.8, 21.314999999999998 46.83, 21.419999999999998 47.04 C 21.509999999999998 47.22, 21.51 47.28000000000001, 21.6 47.400000000000006 C 21.69 47.46, 21.705000000000002 47.489999999999995, 21.78 47.519999999999996 C 21.84 47.519999999999996, 21.794999999999998 47.58, 21.9 47.519999999999996 C 22.05 47.4, 22.020000000000003 47.61, 22.200000000000003 47.28 C 22.410000000000004 46.74, 22.365000000000002 46.875, 22.62 46.2 C 22.92 45.39, 22.814999999999998 45.375, 23.22 44.58 C 23.73 43.8, 23.730000000000004 43.66499999999999, 24.240000000000002 43.019999999999996 C 24.75 42.51, 24.45 42.75, 25.259999999999998 42 C 26.369999999999997 41.01, 26.31 40.815, 27.48 40.019999999999996 C 28.71 39.42, 28.695 39.165, 29.94 38.82 C 31.200000000000003 38.730000000000004, 31.275000000000002 38.64, 32.46 38.64 C 33.57 38.730000000000004, 34.125 38.775, 34.68 38.82 C 34.68 38.82, 34.68 38.82, 34.68 38.82 L 34.68 38.82" fill="none" stroke="black" stroke-width="2"></path></svg>