<svg width="48" height="48" viewBox="0 0 48 48" xmlns="http://www.w3.org/2000/svg"><path d="M 25.92 10.26 C 26.28 10.26, 25.875 10.395, 26.64 10.26 C 27.810000000000002 9.99, 28.08 9.855, 28.98 9.72 C 29.61 9.72, 29.520000000000003 9.72, 30.240000000000002 9.72 C 31.05 9.72, 31.14 9.72, 31.86 9.72 C 32.489999999999995 9.72, 32.625 9.72, 33.12 9.72 C 33.48 9.72, 33.495 9.705000000000002, 33.839999999999996 9.72 C 34.17 9.75, 34.185 9.735, 34.5 9.78 C 34.8 9.84, 34.949999999999996 9.87, 35.099999999999994 9.899999999999999 L 35.099999999999994 9.899999999999999" fill="none" stroke="black" stroke-width="2"></path><path d="M 36.24 3.18 C 36.24 3.5700000000000003, 36.24 3.57, 36.24 3.96 C 36.24 4.35, 36.315000000000005 4.11, 36.24 4.74 C 36.09 5.61, 36.105 5.625, 35.94 6.48 C 35.76 7.32, 35.714999999999996 7.275, 35.58 8.16 C 35.49 9.09, 35.49000000000001 8.865, 35.400000000000006 10.02 C 35.31 11.399999999999999, 35.265 11.579999999999998, 35.22 12.78 C 35.22 13.8, 35.265 13.35, 35.22 14.82 C 35.129999999999995 16.740000000000002, 35.085 17.175, 35.04 18.66 C 35.04 19.71, 35.04 19.814999999999998, 35.04 20.759999999999998 C 35.04 21.6, 35.085 21.795, 35.04 22.44 C 34.95 22.89, 34.95 22.8, 34.86 23.34 C 34.769999999999996 23.97, 34.725 24.06, 34.68 24.599999999999998 C 34.68 25.049999999999997, 34.68 25.035, 34.68 25.5 C 34.68 25.98, 34.68 26.22, 34.68 26.46 C 34.68 26.46, 34.68 26.46, 34.68 26.46 C 34.68 26.46, 34.695 26.43, 34.68 26.46 L 34.62 26.58" fill="none" stroke="black" stroke-width="2"></path><path d="M 34.44 15.66 C 33.9 15.57, 33.885 15.525, 33.36 15.48 C 32.849999999999994 15.48, 33.029999999999994 15.510000000000002, 32.339999999999996 15.48 C 31.47 15.42, 31.379999999999995 15.39, 30.599999999999998 15.36 C 29.909999999999997 15.36, 29.894999999999996 15.209999999999999, 29.22 15.36 C 28.560000000000002 15.66, 28.650000000000002 15.495000000000001, 27.900000000000002 15.96 C 27.060000000000002 16.59, 26.79 16.634999999999998, 26.22 17.22 C 25.919999999999998 17.759999999999998, 25.919999999999998 17.504999999999995, 25.619999999999997 18.299999999999997 C 25.32 19.349999999999998, 25.29 19.305, 25.02 20.4 C 24.78 21.54, 24.735 21.75, 24.54 22.68 C 24.39 23.4, 24.315 23.759999999999998, 24.240000000000002 24.119999999999997 C 24.240000000000002 24.119999999999997, 24.240000000000002 24.119999999999997, 24.240000000000002 24.119999999999997 C 24.240000000000002 24.119999999999997, 24.240000000000002 24.164999999999996, 24.240000000000002 24.119999999999997 C 24.240000000000002 24.03, 24.240000000000002 24.465, 24.240000000000002 23.94 C 24.240000000000002 22.98, 24.375 23.295, 24.240000000000002 22.02 C 23.970000000000002 20.43, 23.880000000000003 19.919999999999998, 23.700000000000003 18.84 C 23.61 18.270000000000003, 23.715 18.330000000000002, 23.52 17.700000000000003 C 23.22 17.01, 23.174999999999997 16.785, 22.919999999999998 16.32 C 22.71 16.08, 22.725 16.02, 22.5 15.84 C 22.259999999999998 15.72, 22.335 15.66, 22.02 15.600000000000001 C 21.630000000000003 15.600000000000001, 21.585 15.600000000000001, 21.240000000000002 15.600000000000001 C 20.94 15.600000000000001, 21.12 15.495000000000001, 20.64 15.600000000000001 C 19.98 15.81, 19.89 15.795, 19.32 16.02 C 18.84 16.259999999999998, 18.975 16.05, 18.36 16.5 C 17.61 17.16, 17.46 17.25, 16.86 17.82 C 16.41 18.3, 16.395 18.075000000000003, 15.96 18.78 C 15.540000000000001 19.71, 15.420000000000002 19.755000000000003, 15.120000000000001 20.64 C 14.940000000000001 21.48, 14.895 21.51, 14.76 22.32 C 14.670000000000002 23.1, 14.625000000000002 23.294999999999998, 14.580000000000002 23.88 C 14.580000000000002 24.270000000000003, 14.580000000000002 24.255000000000003, 14.580000000000002 24.660000000000004 C 14.580000000000002 25.080000000000002, 14.580000000000002 25.29, 14.580000000000002 25.5 L 14.580000000000002 25.5" fill="none" stroke="black" stroke-width="2"></path><path d="M 24.06 24.299999999999997 C 23.79 25.68, 23.759999999999998 25.814999999999998, 23.52 27.06 C 23.310000000000002 28.17, 23.325000000000003 28.080000000000002, 23.1 29.28 C 22.86 30.57, 22.740000000000002 30.735, 22.62 31.86 C 22.62 32.82, 22.665 32.625, 22.62 33.78 C 22.53 35.13, 22.53 35.205000000000005, 22.44 36.480000000000004 C 22.35 37.68000000000001, 22.305 37.470000000000006, 22.259999999999998 38.88 C 22.259999999999998 40.5, 22.259999999999998 40.98, 22.259999999999998 42.12 C 22.259999999999998 42.78, 22.259999999999998 42.78, 22.259999999999998 43.44 C 22.259999999999998 44.099999999999994, 22.259999999999998 44.355, 22.259999999999998 44.76 C 22.259999999999998 44.91, 22.259999999999998 44.985, 22.259999999999998 45.06 C 22.259999999999998 45.06, 22.259999999999998 45.06, 22.259999999999998 45.06 L 22.259999999999998 45.06" fill="none" stroke="black" stroke-width="2"></path><path d="M 30.299999999999997 15.72 C 30.209999999999997 17.009999999999998, 30.165 16.845, 30.119999999999997 18.299999999999997 C 30.119999999999997 19.919999999999998, 30.179999999999996 20.159999999999997, 30.119999999999997 21.54 C 30 22.68, 29.985 22.455, 29.880000000000003 23.82 C 29.790000000000003 25.41, 29.835000000000004 25.380000000000003, 29.700000000000003 27 C 29.52 28.65, 29.519999999999996 28.739999999999995, 29.339999999999996 30.299999999999997 C 29.159999999999997 31.77, 29.115000000000002 32.1, 28.98 33.24 C 28.89 34.05, 28.889999999999997 33.765, 28.799999999999997 34.86 C 28.709999999999997 36.239999999999995, 28.724999999999994 36.48, 28.619999999999997 37.62 C 28.5 38.519999999999996, 28.470000000000002 38.61, 28.380000000000003 39.42 C 28.32 40.14, 28.29 40.185, 28.259999999999998 40.86 C 28.259999999999998 41.489999999999995, 28.259999999999998 41.73, 28.259999999999998 42.12 C 28.259999999999998 42.269999999999996, 28.259999999999998 42.195, 28.259999999999998 42.42 C 28.259999999999998 42.72, 28.259999999999998 42.629999999999995, 28.259999999999998 43.019999999999996 C 28.259999999999998 43.5, 28.259999999999998 43.635000000000005, 28.259999999999998 43.980000000000004 C 28.259999999999998 44.190000000000005, 28.259999999999998 44.295, 28.259999999999998 44.400000000000006 C 28.259999999999998 44.400000000000006, 28.259999999999998 44.400000000000006, 28.259999999999998 44.400000000000006 C 28.259999999999998 44.400000000000006, 28.259999999999998 44.400000000000006, 28.259999999999998 44.400000000000006 L 28.259999999999998 44.400000000000006" fill="none" stroke="black" stroke-width="2"></path></svg>