<svg width="48" height="48" viewBox="0 0 48 48" xmlns="http://www.w3.org/2000/svg"><path d="M 16.080000000000002 13.74 C 17.130000000000003 13.829999999999998, 17.265 13.874999999999998, 18.18 13.919999999999998 C 18.96 13.919999999999998, 18.810000000000002 13.919999999999998, 19.740000000000002 13.919999999999998 C 20.82 13.919999999999998, 20.924999999999997 13.919999999999998, 21.9 13.919999999999998 C 22.77 13.919999999999998, 22.905 13.919999999999998, 23.64 13.919999999999998 C 24.24 13.919999999999998, 24.419999999999995 13.919999999999998, 24.839999999999996 13.919999999999998 C 25.08 13.919999999999998, 25.005 13.919999999999998, 25.32 13.919999999999998 C 25.71 13.919999999999998, 25.86 13.919999999999998, 26.099999999999998 13.919999999999998 C 26.189999999999998 13.919999999999998, 26.205 13.919999999999998, 26.28 13.919999999999998 C 26.340000000000003 13.919999999999998, 26.325000000000003 13.919999999999998, 26.400000000000002 13.919999999999998 C 26.490000000000002 13.919999999999998, 26.505 13.919999999999998, 26.58 13.919999999999998 C 26.64 13.919999999999998, 26.67 13.919999999999998, 26.700000000000003 13.919999999999998 L 26.700000000000003 13.919999999999998" fill="none" stroke="black" stroke-width="2"></path><path d="M 26.339999999999996 3.9000000000000004 C 26.339999999999996 5.34, 26.339999999999996 5.414999999999999, 26.339999999999996 6.779999999999999 C 26.339999999999996 8.07, 26.324999999999996 8.16, 26.339999999999996 9.36 C 26.369999999999997 10.469999999999999, 26.385 10.32, 26.400000000000002 11.58 C 26.400000000000002 12.989999999999998, 26.400000000000002 13.019999999999998, 26.400000000000002 14.399999999999999 C 26.400000000000002 15.75, 26.400000000000002 15.96, 26.400000000000002 17.1 C 26.400000000000002 18.03, 26.400000000000002 17.85, 26.400000000000002 18.96 C 26.400000000000002 20.25, 26.400000000000002 20.235, 26.400000000000002 21.54 C 26.400000000000002 22.86, 26.400000000000002 22.814999999999998, 26.400000000000002 24.18 C 26.400000000000002 25.59, 26.400000000000002 25.725, 26.400000000000002 27 C 26.400000000000002 28.14, 26.400000000000002 28.095, 26.400000000000002 29.28 C 26.400000000000002 30.51, 26.400000000000002 30.525000000000002, 26.400000000000002 31.740000000000002 C 26.400000000000002 32.94, 26.445000000000004 33.120000000000005, 26.400000000000002 34.14 C 26.310000000000002 34.980000000000004, 26.31 35.115, 26.22 35.82 C 26.13 36.39, 26.22 36.24, 26.04 36.96 C 25.77 37.83, 25.77 37.935, 25.5 38.7 C 25.23 39.36, 25.305 39.42, 24.96 40.019999999999996 C 24.54 40.559999999999995, 24.434999999999995 40.66499999999999, 24.119999999999997 41.099999999999994 C 23.91 41.42999999999999, 24.105000000000004 41.41499999999999, 23.700000000000003 41.76 C 23.1 42.120000000000005, 23.04 42.195, 22.5 42.480000000000004 C 22.02 42.690000000000005, 21.93 42.795, 21.54 42.900000000000006 C 21.240000000000002 42.900000000000006, 21.21 42.900000000000006, 20.94 42.900000000000006 C 20.700000000000003 42.900000000000006, 20.655 42.93000000000001, 20.46 42.900000000000006 C 20.310000000000002 42.84, 20.415 42.96, 20.16 42.78 C 19.8 42.480000000000004, 19.740000000000002 42.57, 19.44 42.18 C 19.200000000000003 41.7, 19.155 41.67, 18.96 41.22 C 18.810000000000002 40.8, 18.765 40.86, 18.66 40.38 C 18.6 39.84, 18.63 39.839999999999996, 18.54 39.3 C 18.419999999999998 38.76, 18.36 38.879999999999995, 18.299999999999997 38.22 C 18.299999999999997 37.44, 18.299999999999997 37.425000000000004, 18.299999999999997 36.660000000000004 C 18.299999999999997 35.910000000000004, 18.314999999999998 36.150000000000006, 18.299999999999997 35.160000000000004 C 18.27 33.93000000000001, 18.330000000000002 33.96000000000001, 18.240000000000002 32.7 C 18.090000000000003 31.41, 18.060000000000002 31.275, 17.94 30.119999999999997 C 17.85 29.099999999999998, 17.805 28.694999999999997, 17.759999999999998 28.08 C 17.759999999999998 27.87, 17.759999999999998 27.765, 17.759999999999998 27.660000000000004 L 17.759999999999998 27.660000000000004" fill="none" stroke="black" stroke-width="2"></path></svg>