<svg width="48" height="48" viewBox="0 0 48 48" xmlns="http://www.w3.org/2000/svg"><path d="M 13.32 3 C 13.5 4.26, 13.59 4.305000000000001, 13.68 5.5200000000000005 C 13.68 6.69, 13.68 6.33, 13.68 7.86 C 13.68 9.75, 13.68 9.840000000000002, 13.68 11.64 C 13.68 13.35, 13.68 13.274999999999999, 13.68 15.059999999999999 C 13.68 16.92, 13.68 17.310000000000002, 13.68 18.78 C 13.68 19.86, 13.68 19.785000000000004, 13.68 20.94 C 13.68 22.17, 13.68 22.439999999999998, 13.68 23.4 C 13.68 24.09, 13.665 24.21, 13.68 24.78 C 13.71 25.23, 13.620000000000001 25.32, 13.74 25.68 C 13.95 25.95, 13.845 25.86, 14.16 26.22 C 14.58 26.669999999999998, 14.625 26.79, 15 27.119999999999997 C 15.33 27.33, 15.254999999999999 27.33, 15.66 27.54 C 16.14 27.75, 15.96 27.810000000000002, 16.62 27.96 C 17.46 28.05, 17.339999999999996 28.095, 18.299999999999997 28.14 C 19.38 28.14, 19.59 28.155, 20.46 28.14 C 21.12 28.11, 21 28.125, 21.78 28.08 C 22.68 28.02, 22.815000000000005 28.035, 23.580000000000002 27.96 C 24.21 27.87, 24.15 27.915, 24.839999999999996 27.78 C 25.589999999999996 27.6, 25.649999999999995 27.57, 26.339999999999996 27.42 C 26.97 27.3, 27.089999999999996 27.255000000000003, 27.599999999999998 27.18 C 27.990000000000002 27.15, 27.990000000000002 27.165, 28.380000000000003 27.119999999999997 C 28.770000000000003 27.06, 28.815000000000005 27.044999999999998, 29.160000000000004 27 C 29.46 26.97, 29.49 27, 29.759999999999998 26.94 C 30 26.85, 30 26.834999999999997, 30.240000000000002 26.759999999999998 C 30.48 26.7, 30.555 26.7, 30.72 26.64 C 30.810000000000002 26.58, 30.795 26.64, 30.900000000000002 26.52 C 31.020000000000003 26.340000000000003, 31.065 26.445000000000004, 31.14 26.160000000000004 C 31.17 25.770000000000003, 31.17 25.815000000000005, 31.200000000000003 25.380000000000003 C 31.23 24.900000000000002, 31.244999999999997 25.020000000000003, 31.259999999999998 24.42 C 31.259999999999998 23.700000000000003, 31.259999999999998 23.685000000000002, 31.259999999999998 22.98 C 31.259999999999998 22.29, 31.259999999999998 22.200000000000003, 31.259999999999998 21.6 C 31.259999999999998 21.090000000000003, 31.394999999999996 21.375000000000004, 31.259999999999998 20.580000000000002 C 30.99 19.5, 30.93 19.275, 30.72 18.419999999999998 C 30.57 17.79, 30.495 17.475, 30.42 17.16 C 30.42 17.16, 30.42 17.16, 30.42 17.16 C 30.42 17.16, 30.42 17.16, 30.42 17.16 L 30.42 17.16" fill="none" stroke="black" stroke-width="2"></path><path d="M 26.04 21.419999999999998 C 26.34 21.419999999999998, 26.205 21.419999999999998, 26.64 21.419999999999998 C 27.21 21.419999999999998, 27.255000000000003 21.435, 27.78 21.419999999999998 C 28.26 21.39, 28.26 21.404999999999998, 28.740000000000002 21.36 C 29.220000000000002 21.3, 29.310000000000002 21.270000000000003, 29.700000000000003 21.240000000000002 C 30 21.240000000000002, 30.075 21.240000000000002, 30.299999999999997 21.240000000000002 C 30.449999999999996 21.240000000000002, 30.449999999999996 21.240000000000002, 30.599999999999998 21.240000000000002 C 30.75 21.240000000000002, 30.825000000000003 21.240000000000002, 30.900000000000002 21.240000000000002 L 30.900000000000002 21.240000000000002" fill="none" stroke="black" stroke-width="2"></path><path d="M 27.18 27.36 C 27.27 27.42, 27.119999999999997 27.405, 27.36 27.48 C 27.75 27.57, 27.735 27.525000000000006, 28.14 27.660000000000004 C 28.560000000000002 27.840000000000003, 28.515 27.675, 28.98 28.02 C 29.490000000000002 28.53, 29.565 28.455, 30 29.04 C 30.36 29.7, 30.435 29.79, 30.72 30.36 C 30.93 30.84, 30.915 30.765, 31.14 31.32 C 31.38 31.95, 31.455 31.875, 31.619999999999997 32.58 C 31.709999999999997 33.36, 31.859999999999996 33.015, 31.799999999999997 34.14 C 31.59 35.61, 31.845000000000002 35.595, 31.380000000000003 37.08 C 30.660000000000004 38.58, 30.450000000000003 39.12, 29.94 40.08 C 29.64 40.5, 29.744999999999997 40.5, 29.339999999999996 40.92 C 28.83 41.34, 29.04 41.324999999999996, 28.32 41.76 C 27.39 42.21, 27.585 42.21, 26.46 42.660000000000004 C 25.14 43.11, 24.975 43.290000000000006, 23.82 43.56 C 22.83 43.650000000000006, 22.725 43.650000000000006, 21.84 43.74 C 21.060000000000002 43.83, 21.18 43.875, 20.28 43.92 C 19.26 43.92, 18.915000000000003 44.085, 18.240000000000002 43.92 C 17.910000000000004 43.59, 17.970000000000002 43.83, 17.580000000000002 43.26 C 17.130000000000003 42.45, 17.025 42.705, 16.68 41.64 C 16.44 40.32, 16.455000000000002 40.215, 16.200000000000003 39 C 15.930000000000001 37.89, 15.795000000000002 37.485, 15.66 36.78 C 15.66 36.480000000000004, 15.66 36.33, 15.66 36.18 C 15.66 36.18, 15.66 36.225, 15.66 36.18 L 15.66 36" fill="none" stroke="black" stroke-width="2"></path></svg>