<svg width="48" height="48" viewBox="0 0 48 48" xmlns="http://www.w3.org/2000/svg"><path d="M 7.800000000000001 43.86 C 7.62 42.510000000000005, 7.619999999999999 42.60000000000001, 7.4399999999999995 41.160000000000004 C 7.26 39.629999999999995, 7.245 39.69, 7.08 38.099999999999994 C 6.93 36.449999999999996, 6.885 36.315, 6.779999999999999 34.8 C 6.72 33.42, 6.6899999999999995 33.525, 6.66 32.04 C 6.66 30.45, 6.66 30.54, 6.66 28.86 C 6.66 27.09, 6.66 26.925, 6.66 25.32 C 6.66 23.880000000000003, 6.66 23.97, 6.66 22.44 C 6.66 20.82, 6.645 20.580000000000005, 6.66 19.200000000000003 C 6.69 18.060000000000002, 6.630000000000001 17.924999999999997, 6.720000000000001 16.919999999999998 C 6.87 16.049999999999997, 6.81 15.989999999999998, 7.02 15.18 C 7.29 14.43, 7.305 14.295, 7.5600000000000005 13.68 C 7.800000000000001 13.2, 7.620000000000001 13.290000000000001, 8.040000000000001 12.72 C 8.64 12.059999999999999, 8.865 11.804999999999998, 9.24 11.399999999999999 C 9.39 11.25, 9.345 11.175, 9.540000000000001 11.100000000000001 C 9.780000000000001 11.100000000000001, 9.735 11.070000000000002, 10.02 11.100000000000001 C 10.35 11.16, 10.365 11.115000000000002, 10.68 11.22 C 10.98 11.370000000000001, 11.04 11.37, 11.28 11.52 C 11.46 11.67, 11.475000000000001 11.64, 11.64 11.82 C 11.79 12.030000000000001, 11.655 11.835, 11.94 12.24 C 12.36 12.84, 12.42 12.900000000000002, 12.78 13.440000000000001 C 13.079999999999998 13.92, 13.125 13.905, 13.379999999999999 14.399999999999999 C 13.59 14.909999999999998, 13.634999999999998 14.909999999999997, 13.799999999999999 15.419999999999998 C 13.919999999999998 15.93, 13.905 15.870000000000001, 14.04 16.44 C 14.19 17.07, 14.174999999999999 17.01, 14.34 17.700000000000003 C 14.52 18.450000000000003, 14.55 18.555000000000003, 14.700000000000001 19.200000000000003 C 14.82 19.740000000000002, 14.820000000000002 19.725, 14.940000000000001 20.28 C 15.06 20.85, 15.06 20.939999999999998, 15.18 21.419999999999998 C 15.299999999999999 21.810000000000002, 15.344999999999999 21.96, 15.419999999999998 22.200000000000003 C 15.45 22.29, 15.465 22.335, 15.48 22.38 C 15.48 22.38, 15.48 22.38, 15.48 22.38 C 15.48 22.38, 15.48 22.38, 15.48 22.38 C 15.48 22.38, 15.48 22.38, 15.48 22.38 C 15.48 22.38, 15.45 22.365, 15.48 22.38 C 15.540000000000001 22.41, 15.57 22.470000000000002, 15.600000000000001 22.44 C 15.600000000000001 22.35, 15.600000000000001 22.455, 15.600000000000001 22.259999999999998 C 15.600000000000001 21.96, 15.600000000000001 21.96, 15.600000000000001 21.66 C 15.600000000000001 21.36, 15.600000000000001 21.285, 15.600000000000001 21.06 C 15.600000000000001 20.909999999999997, 15.600000000000001 20.999999999999996, 15.600000000000001 20.759999999999998 C 15.600000000000001 20.43, 15.600000000000001 20.565, 15.600000000000001 20.1 C 15.600000000000001 19.5, 15.525000000000002 19.544999999999998, 15.600000000000001 18.9 C 15.75 18.21, 15.779999999999998 18.06, 15.899999999999999 17.52 C 15.99 17.130000000000003, 15.990000000000002 17.1, 16.080000000000002 16.740000000000002 C 16.17 16.410000000000004, 16.14 16.44, 16.259999999999998 16.080000000000002 C 16.409999999999997 15.690000000000001, 16.395 15.704999999999998, 16.56 15.299999999999999 C 16.74 14.879999999999999, 16.694999999999997 14.850000000000001, 16.919999999999998 14.46 C 17.189999999999998 14.100000000000001, 17.175 14.040000000000001, 17.46 13.74 C 17.759999999999998 13.5, 17.669999999999998 13.53, 18.06 13.26 C 18.54 12.96, 18.33 13.08, 19.02 12.66 C 19.92 12.120000000000001, 19.935000000000002 12, 20.82 11.58 C 21.689999999999998 11.280000000000001, 21.974999999999998 11.16, 22.56 10.98 C 22.86 10.92, 22.634999999999998 10.89, 23.16 10.86 C 23.910000000000004 10.86, 23.730000000000004 10.86, 24.660000000000004 10.86 C 25.770000000000003 10.86, 25.905000000000005 10.86, 26.880000000000003 10.86 C 27.72 10.86, 27.945 10.844999999999999, 28.56 10.86 C 28.949999999999996 10.89, 29.144999999999996 10.905, 29.339999999999996 10.92 L 29.339999999999996 10.92" fill="none" stroke="black" stroke-width="2"></path><path d="M 20.34 33.24 C 19.83 33.269999999999996, 19.875 33.165, 19.32 33.3 C 18.72 33.54, 18.57 33.495000000000005, 18.12 33.78 C 17.82 34.11, 17.58 34.05, 17.52 34.44 C 17.7 34.89, 17.459999999999997 35.01, 17.88 35.339999999999996 C 18.54 35.55, 18.720000000000002 35.655, 19.200000000000003 35.76 C 19.5 35.76, 19.29 36.269999999999996, 19.799999999999997 35.76 C 20.52 34.739999999999995, 20.880000000000003 34.5, 21.240000000000002 33.72 C 21.240000000000002 33.18, 21.285000000000004 33.045, 21.240000000000002 32.64 C 21.15 32.37, 21.345 32.279999999999994, 21.06 32.099999999999994 C 20.58 32.01, 20.595 31.875, 20.1 31.92 C 19.590000000000003 32.1, 19.410000000000004 31.950000000000003, 19.080000000000002 32.28 C 18.93 32.760000000000005, 18.765 32.7, 18.78 33.24 C 18.96 33.84, 18.915 34.05, 19.14 34.44 C 19.41 34.62, 19.41 34.69499999999999, 19.68 34.8 C 19.95 34.83, 20.025 35.16, 20.22 34.86 C 20.34 34.23, 20.4 34.13999999999999, 20.46 33.599999999999994 C 20.46 33.15, 20.505000000000003 33.045, 20.46 32.7 C 20.37 32.46, 20.61 32.385, 20.28 32.22 C 19.71 32.129999999999995, 19.740000000000002 31.95, 19.14 32.04 C 18.509999999999998 32.31, 18.345 32.114999999999995, 17.88 32.58 C 17.58 33.24, 17.295 33.39000000000001, 17.28 33.900000000000006 C 17.55 34.260000000000005, 17.385 34.425, 17.82 34.62 C 18.42 34.65, 18.57 34.8, 19.02 34.68 C 19.32 34.41, 19.41 34.47, 19.62 34.14 C 19.740000000000002 33.75, 19.8 33.81, 19.86 33.36 C 19.86 32.849999999999994, 19.905 32.684999999999995, 19.86 32.339999999999996 C 19.77 32.16, 19.8 32.115, 19.68 31.98 L 19.38 31.799999999999997" fill="none" stroke="black" stroke-width="2"></path></svg>