<svg width="48" height="48" viewBox="0 0 48 48" xmlns="http://www.w3.org/2000/svg"><path d="M 13.200000000000001 30.36 C 13.440000000000001 30.42, 12.99 30.48, 13.68 30.48 C 14.82 30.42, 14.625 30.509999999999998, 15.96 30.36 C 17.490000000000002 30.12, 17.805 30, 19.02 29.880000000000003 C 19.92 29.880000000000003, 20.145 29.925000000000004, 20.82 29.880000000000003 C 21.27 29.790000000000003, 21.225 29.910000000000004, 21.72 29.700000000000003 C 22.259999999999998 29.37, 22.319999999999997 29.67, 22.799999999999997 29.04 C 23.22 28.11, 23.325 28.425, 23.64 27.18 C 23.85 25.619999999999997, 23.955 24.915, 24.06 24.06 C 24.06 23.909999999999997, 24.06 23.834999999999997, 24.06 23.759999999999998 C 24.06 23.759999999999998, 24.06 23.685, 24.06 23.759999999999998 C 24.06 23.909999999999997, 24.044999999999998 23.474999999999998, 24.06 24.06 C 24.089999999999996 25.08, 23.775 24.824999999999996, 24.119999999999997 26.099999999999998 C 24.78 27.630000000000003, 24.810000000000002 28.230000000000004, 25.44 29.160000000000004 C 26.04 29.490000000000002, 26.19 29.655, 26.64 29.82 C 26.94 29.82, 26.925 29.91, 27.240000000000002 29.82 C 27.57 29.64, 27.630000000000003 29.82, 27.900000000000002 29.46 C 28.11 28.92, 27.990000000000002 29.235000000000003, 28.32 28.380000000000003 C 28.77 27.21, 28.814999999999998 27.134999999999998, 29.22 26.04 C 29.58 25.02, 29.76 25.23, 29.94 24 C 29.94 22.560000000000002, 30.015 22.905, 29.94 21.12 C 29.79 18.990000000000002, 29.94 19.35, 29.64 16.86 C 29.19 14.01, 29.160000000000004 13.545, 28.740000000000002 11.16 C 28.35 9.24, 28.26 8.595, 27.96 7.32 C 27.75 6.69, 27.705 6.540000000000001, 27.54 6.0600000000000005 C 27.419999999999998 5.73, 27.36 5.565, 27.299999999999997 5.4 C 27.299999999999997 5.4, 27.299999999999997 5.4, 27.299999999999997 5.4 L 27.299999999999997 5.4" fill="none" stroke="black" stroke-width="2"></path><path d="M 15 20.16 C 15.48 19.740000000000002, 15.315000000000001 20.355, 15.96 19.32 C 16.770000000000003 17.67, 16.71 17.985, 17.580000000000002 16.02 C 18.51 13.739999999999998, 18.69 13.11, 19.44 11.459999999999999 C 20.01 10.44, 20.295 9.93, 20.580000000000002 9.42 C 20.580000000000002 9.42, 20.520000000000003 9.51, 20.580000000000002 9.42 C 20.700000000000003 9.24, 20.625 9.120000000000001, 20.82 9.06 C 21.09 9.120000000000001, 20.939999999999998 8.835, 21.36 9.18 C 21.93 9.809999999999999, 21.735 9.57, 22.5 10.44 C 23.46 11.55, 23.445 11.58, 24.42 12.66 C 25.410000000000004 13.71, 25.560000000000002 13.92, 26.400000000000002 14.76 C 27.090000000000003 15.39, 27.285 15.629999999999999, 27.78 16.02 C 28.080000000000002 16.17, 28.110000000000003 16.185000000000002, 28.380000000000003 16.32 C 28.62 16.439999999999998, 28.740000000000002 16.5, 28.86 16.56 L 28.86 16.56" fill="none" stroke="black" stroke-width="2"></path><path d="M 23.52 35.58 C 22.2 35.339999999999996, 22.11 35.099999999999994, 20.88 35.099999999999994 C 19.740000000000002 35.339999999999996, 19.62 34.98, 18.6 35.58 C 17.7 36.54, 17.354999999999997 36.45, 16.799999999999997 37.5 C 16.589999999999996 38.64, 16.439999999999998 38.475, 16.38 39.78 C 16.47 41.25, 16.14 41.355, 16.56 42.72 C 17.31 43.980000000000004, 17.145 44.34, 18.06 45.24 C 19.14 45.78, 19.29 46.005, 20.22 46.32 C 21 46.41, 20.895000000000003 46.695, 21.78 46.5 C 22.77 46.019999999999996, 22.979999999999997 46.26, 23.759999999999998 45.54 C 24.33 44.58, 24.54 44.55, 24.900000000000002 43.62 C 25.050000000000004 42.72, 25.125000000000004 42.615, 25.200000000000003 41.82 C 25.200000000000003 41.129999999999995, 25.305000000000003 41.415, 25.200000000000003 40.44 C 24.990000000000002 39.18, 25.035000000000004 38.895, 24.78 37.92 C 24.48 37.230000000000004, 24.54 37.215, 24.18 36.54 C 23.759999999999998 35.879999999999995, 23.745 35.61, 23.34 35.22 C 22.95 35.1, 22.755 35.040000000000006, 22.56 34.980000000000004 L 22.56 34.980000000000004" fill="none" stroke="black" stroke-width="2"></path><path d="M 15.899999999999999 41.76 C 17.31 41.25, 17.009999999999998 41.28, 18.72 40.74 C 20.73 40.17, 21.495 39.885, 22.740000000000002 39.599999999999994 C 23.220000000000002 39.599999999999994, 23.430000000000003 39.599999999999994, 23.700000000000003 39.599999999999994 C 23.76 39.599999999999994, 23.700000000000003 39.599999999999994, 23.82 39.599999999999994 L 24.18 39.599999999999994" fill="none" stroke="black" stroke-width="2"></path></svg>