<svg width="48" height="48" viewBox="0 0 48 48" xmlns="http://www.w3.org/2000/svg"><path d="M 7.02 42.24 C 6.72 37.41, 6.6899999999999995 36.87, 6.42 32.58 C 6.18 28.83, 6.1499999999999995 27.915, 5.9399999999999995 25.08 C 5.76 23.16, 5.355 23.910000000000004, 5.58 21.240000000000002 C 6.21 17.82, 6.0600000000000005 17.189999999999998, 6.84 14.399999999999999 C 7.77 12.239999999999998, 8.009999999999998 11.445, 8.7 10.08 C 9.15 9.51, 9.165000000000001 9.39, 9.600000000000001 8.94 C 10.02 8.61, 9.9 8.174999999999999, 10.44 8.28 C 11.1 8.82, 10.95 8.504999999999999, 11.76 9.36 C 12.719999999999999 10.53, 12.719999999999999 10.02, 13.68 11.7 C 14.64 13.89, 14.790000000000003 13.725000000000001, 15.600000000000001 16.080000000000002 C 16.259999999999998 18.6, 16.47 18.630000000000003, 16.919999999999998 21.12 C 17.159999999999997 23.58, 17.279999999999998 24.21, 17.4 26.04 C 17.4 27.240000000000002, 17.4 27.84, 17.4 28.44 C 17.4 28.44, 17.324999999999996 28.485000000000003, 17.4 28.44 C 17.55 28.35, 17.400000000000002 28.74, 17.700000000000003 28.259999999999998 C 18.150000000000002 27.39, 18.045 27.134999999999998, 18.6 26.52 C 19.259999999999998 26.159999999999997, 18.93 25.979999999999997, 19.919999999999998 25.799999999999997 C 21.24 25.799999999999997, 21.314999999999998 25.604999999999997, 22.56 25.799999999999997 C 23.73 26.189999999999998, 23.865000000000002 25.979999999999997, 24.900000000000002 26.58 C 25.800000000000004 27.39, 25.950000000000003 27.105000000000004, 26.700000000000003 28.200000000000003 C 27.300000000000004 29.580000000000002, 27.465000000000003 28.830000000000002, 27.900000000000002 30.96 C 28.17 33.84, 28.185000000000002 34.455, 28.44 36.72 C 28.68 38.37, 28.755000000000003 38.77499999999999, 28.92 40.019999999999996 C 29.009999999999998 40.86, 29.055 41.25, 29.099999999999998 41.7 L 29.099999999999998 41.82" fill="none" stroke="black" stroke-width="2"></path><path d="M 15.120000000000001 15.66 C 15.57 15.15, 14.850000000000001 15.81, 16.02 14.64 C 17.909999999999997 12.81, 18.345 12.495000000000001, 19.799999999999997 10.98 C 20.82 9.780000000000001, 21.255 9.3, 21.84 8.58 C 21.990000000000002 8.34, 22.065 8.22, 22.14 8.100000000000001 L 22.14 8.100000000000001" fill="none" stroke="black" stroke-width="2"></path><path d="M 21.06 7.38 C 21.9 8.85, 21.66 8.49, 22.740000000000002 10.32 C 24.060000000000002 12.510000000000002, 24.255000000000003 12.885000000000002, 25.380000000000003 14.700000000000001 C 26.310000000000002 16.14, 26.430000000000003 16.515, 27.240000000000002 17.580000000000002 L 28.619999999999997 18.96" fill="none" stroke="black" stroke-width="2"></path></svg>