<svg width="48" height="48" viewBox="0 0 48 48" xmlns="http://www.w3.org/2000/svg"><path d="M 14.82 20.46 C 15.809999999999999 17.939999999999998, 15.959999999999997 17.43, 16.799999999999997 15.419999999999998 C 17.49 13.919999999999998, 17.369999999999997 14.114999999999998, 18.18 12.419999999999998 C 19.11 10.53, 19.064999999999998 10.455, 20.04 8.64 C 21.060000000000002 6.9, 21.42 6.33, 22.080000000000002 5.16 C 22.380000000000003 4.5600000000000005, 22.515 4.305, 22.68 3.96 C 22.71 3.87, 22.680000000000003 3.87, 22.740000000000002 3.7800000000000002 C 22.83 3.69, 22.724999999999998 3.6599999999999997, 22.919999999999998 3.5999999999999996 C 23.22 3.57, 23.115 3.15, 23.52 3.54 C 24.03 4.35, 24.06 3.84, 24.54 5.16 C 24.990000000000002 6.99, 24.9 6.585, 25.44 8.82 C 26.07 11.46, 26.025000000000002 11.595000000000002, 26.700000000000003 14.100000000000001 C 27.42 16.47, 27.57 17.205, 28.14 18.84 C 28.560000000000002 19.740000000000002, 28.740000000000002 20.145, 28.98 20.64 C 29.04 20.73, 29.07 20.775, 29.099999999999998 20.82 L 29.099999999999998 20.82" fill="none" stroke="black" stroke-width="2"></path><path d="M 22.740000000000002 26.82 C 21.990000000000002 26.67, 22.050000000000004 26.564999999999998, 21.240000000000002 26.52 C 20.37 26.58, 20.384999999999998 26.19, 19.5 26.64 C 18.6 27.48, 18.570000000000004 26.865000000000002, 17.700000000000003 28.32 C 16.86 30.39, 16.53 30.885, 16.02 32.46 C 15.84 33.54, 15.75 33.56999999999999, 15.66 34.62 C 15.66 35.64, 15.435 35.535000000000004, 15.66 36.660000000000004 C 16.11 37.89, 16.035 38.265, 16.56 39.12 C 17.159999999999997 39.599999999999994, 17.144999999999996 39.675, 17.759999999999998 40.08 C 18.39 40.41, 18.284999999999997 40.485, 19.02 40.74 C 19.86 40.92, 19.830000000000002 41.01, 20.700000000000003 41.099999999999994 C 21.6 41.099999999999994, 21.57 41.33999999999999, 22.5 41.099999999999994 C 23.46 40.62, 23.625 40.635, 24.42 40.14 C 25.05 39.629999999999995, 25.02 39.78, 25.68 39.12 C 26.369999999999997 38.31, 26.52 38.34, 27.06 37.5 C 27.449999999999996 36.629999999999995, 27.644999999999996 36.735, 27.839999999999996 35.76 C 27.839999999999996 34.67999999999999, 27.869999999999997 34.48499999999999, 27.839999999999996 33.599999999999994 C 27.779999999999998 32.91, 27.944999999999997 32.849999999999994, 27.72 32.22 C 27.33 31.65, 27.345000000000002 31.619999999999997, 26.94 31.08 C 26.52 30.57, 26.639999999999997 30.599999999999998, 26.099999999999998 30.06 C 25.439999999999998 29.490000000000002, 25.275000000000002 29.415000000000003, 24.78 28.92 C 24.45 28.5, 24.509999999999998 28.5, 24.119999999999997 28.08 C 23.669999999999998 27.66, 23.564999999999998 27.555, 23.22 27.240000000000002 C 22.98 27.03, 22.935000000000002 26.94, 22.740000000000002 26.82 C 22.590000000000003 26.79, 22.560000000000002 26.775, 22.44 26.759999999999998 L 22.259999999999998 26.759999999999998" fill="none" stroke="black" stroke-width="2"></path></svg>