<svg width="48" height="48" viewBox="0 0 48 48" xmlns="http://www.w3.org/2000/svg"><path d="M 15 5.34 C 15.03 6.09, 15.044999999999998 4.8, 15.059999999999999 6.84 C 15.059999999999999 10.17, 15.059999999999999 10.41, 15.059999999999999 13.5 C 15.059999999999999 16.35, 15.014999999999999 17.025000000000002, 15.059999999999999 19.200000000000003 C 15.149999999999999 20.700000000000003, 15.15 20.415000000000006, 15.24 22.200000000000003 C 15.329999999999998 24.27, 15.359999999999998 25.124999999999996, 15.419999999999998 26.339999999999996 C 15.45 26.699999999999996, 15.36 26.759999999999998, 15.48 27.06 C 15.69 27.299999999999997, 15.494999999999997 27.285, 15.899999999999999 27.54 C 16.5 27.81, 16.29 27.915, 17.1 28.08 C 18.12 28.14, 18.090000000000003 28.14, 19.14 28.200000000000003 C 20.22 28.26, 20.115 28.335, 21.299999999999997 28.32 C 22.589999999999996 28.23, 22.83 28.23, 23.88 28.14 C 24.689999999999998 28.05, 24.825 28.05, 25.5 27.96 C 26.04 27.87, 25.964999999999996 27.87, 26.58 27.78 C 27.27 27.689999999999998, 27.450000000000003 27.674999999999997, 27.96 27.599999999999998 C 28.29 27.54, 28.349999999999998 27.509999999999998, 28.619999999999997 27.48 C 28.83 27.48, 28.845 27.51, 29.04 27.48 C 29.22 27.42, 29.175 27.645, 29.400000000000002 27.36 C 29.67 26.849999999999998, 29.76 27.014999999999993, 29.94 26.339999999999996 C 30.03 25.5, 30.029999999999998 25.605000000000004, 30.119999999999997 24.660000000000004 C 30.209999999999997 23.61, 30.209999999999997 24.405, 30.299999999999997 22.56 C 30.39 19.92, 30.435 20.055, 30.48 17.28 C 30.48 14.370000000000001, 30.66 14.174999999999999, 30.48 11.459999999999999 C 30.119999999999997 8.94, 29.939999999999998 7.845, 29.759999999999998 6.42 C 29.759999999999998 6.09, 29.759999999999998 5.925, 29.759999999999998 5.76 C 29.759999999999998 5.76, 29.79 5.88, 29.759999999999998 5.76 C 29.7 5.52, 29.67 5.4, 29.64 5.28 L 29.64 5.28" fill="none" stroke="black" stroke-width="2"></path><path d="M 15.84 17.94 C 17.91 15.690000000000001, 18.45 15.315000000000001, 19.98 13.440000000000001 C 20.97 11.940000000000001, 21.18 11.895, 21.96 10.44 C 22.53 9.03, 22.665 8.73, 23.1 7.62 C 23.400000000000002 6.8100000000000005, 23.550000000000004 6.4350000000000005, 23.700000000000003 6 C 23.700000000000003 5.9399999999999995, 23.67 5.925, 23.700000000000003 5.88 C 23.76 5.85, 23.745 5.625, 23.82 5.82 C 23.91 6.24, 23.880000000000003 5.67, 24 6.66 C 24.15 8.219999999999999, 24.089999999999996 8.445, 24.299999999999997 9.78 C 24.569999999999997 10.89, 24.33 10.89, 24.839999999999996 12 C 25.589999999999996 13.11, 25.619999999999997 13.395000000000001, 26.339999999999996 14.22 C 27.029999999999998 14.76, 27 14.774999999999999, 27.72 15.299999999999999 C 28.47 15.809999999999999, 28.589999999999996 15.87, 29.22 16.32 C 29.73 16.71, 29.895000000000003 16.86, 30.240000000000002 17.1 C 30.42 17.19, 30.509999999999998 17.235, 30.599999999999998 17.28 C 30.599999999999998 17.28, 30.599999999999998 17.28, 30.599999999999998 17.28 L 30.599999999999998 17.28" fill="none" stroke="black" stroke-width="2"></path><path d="M 15.120000000000001 36.54 C 16.08 36.39, 15.69 36.435, 17.04 36.24 C 18.78 36, 18.705 35.94, 20.52 35.76 C 22.409999999999997 35.64, 22.784999999999997 35.58, 24.299999999999997 35.519999999999996 C 25.439999999999998 35.519999999999996, 25.679999999999996 35.519999999999996, 26.58 35.519999999999996 C 27.240000000000002 35.519999999999996, 27.18 35.519999999999996, 27.900000000000002 35.519999999999996 C 28.68 35.519999999999996, 28.755000000000003 35.519999999999996, 29.46 35.519999999999996 C 30.09 35.519999999999996, 30.405 35.519999999999996, 30.72 35.519999999999996 L 30.72 35.519999999999996" fill="none" stroke="black" stroke-width="2"></path></svg>