<svg width="48" height="48" viewBox="0 0 48 48" xmlns="http://www.w3.org/2000/svg"><path d="M 14.04 22.86 C 14.91 21.36, 14.745 21.689999999999998, 15.78 19.86 C 16.98 17.7, 16.875 17.775, 18.18 15.54 C 19.59 13.23, 19.92 12.84, 21 10.92 C 21.75 9.39, 21.990000000000002 8.955, 22.5 7.86 C 22.77 7.200000000000001, 22.83 7.110000000000001, 23.04 6.540000000000001 C 23.189999999999998 6.0600000000000005, 23.265 5.82, 23.34 5.58 C 23.34 5.58, 23.295 5.625, 23.34 5.58 C 23.43 5.49, 23.355 5.460000000000001, 23.52 5.4 C 23.759999999999998 5.37, 23.55 4.68, 24 5.34 C 24.66 6.69, 24.465 6.045000000000001, 25.32 8.040000000000001 C 26.37 10.68, 26.385 11.01, 27.42 13.32 C 28.44 15.3, 28.68 15.96, 29.46 17.28 C 30 17.94, 30.165 18.195, 30.54 18.6 C 30.75 18.75, 30.78 18.794999999999998, 30.96 18.9 C 31.11 18.96, 31.185 18.99, 31.259999999999998 19.02 C 31.259999999999998 19.02, 31.259999999999998 19.02, 31.259999999999998 19.02 L 31.259999999999998 19.02" fill="none" stroke="black" stroke-width="2"></path><path d="M 23.64 5.34 C 23.55 5.34, 23.505000000000003 4.89, 23.46 5.34 C 23.46 6.24, 23.46 5.715, 23.46 7.14 C 23.46 9.09, 23.46 9.33, 23.46 11.040000000000001 C 23.46 12.510000000000002, 23.46 12.42, 23.46 13.98 C 23.46 15.63, 23.46 15.780000000000001, 23.46 17.28 C 23.46 18.630000000000003, 23.505000000000003 18.495, 23.46 19.98 C 23.37 21.6, 23.325000000000003 21.84, 23.28 23.22 C 23.28 24.36, 23.325000000000003 24.15, 23.28 25.5 C 23.19 27.06, 23.25 26.805, 23.1 28.619999999999997 C 22.89 30.689999999999998, 22.875 30.989999999999995, 22.68 32.76 C 22.5 34.230000000000004, 22.41 34.335, 22.32 35.7 C 22.32 36.96, 22.365000000000002 36.84, 22.32 38.22 C 22.23 39.72, 22.185000000000002 40.155, 22.14 41.22 C 22.14 41.85, 22.14 41.80500000000001, 22.14 42.480000000000004 C 22.14 43.2, 22.185000000000002 43.290000000000006, 22.14 43.92 C 22.05 44.46, 22.005000000000003 44.535, 21.96 45 C 21.96 45.39, 21.96 45.39, 21.96 45.78 C 21.96 46.17, 21.96 46.365, 21.96 46.56 C 21.96 46.56, 21.96 46.53, 21.96 46.56 C 21.96 46.620000000000005, 21.96 46.65, 21.96 46.68 L 21.96 46.68" fill="none" stroke="black" stroke-width="2"></path></svg>