<svg width="48" height="48" viewBox="0 0 48 48" xmlns="http://www.w3.org/2000/svg"><path d="M 15.36 42.839999999999996 C 15.209999999999999 39.36, 15.119999999999997 39.135000000000005, 15.059999999999999 35.88 C 15.09 32.85, 15.045000000000002 32.085, 15.120000000000001 29.82 C 15.24 28.32, 15.135 28.83, 15.36 26.82 C 15.69 24.3, 15.825 23.43, 16.02 21.78 C 16.08 21, 16.11 20.79, 16.14 20.22 C 16.14 19.86, 16.05 19.92, 16.14 19.5 C 16.32 19.02, 16.29 19.035, 16.5 18.54 C 16.740000000000002 18.03, 16.695 17.88, 16.98 17.52 C 17.310000000000002 17.310000000000002, 17.01 17.25, 17.64 17.1 C 18.57 17.009999999999998, 18.435000000000002 16.965, 19.5 16.919999999999998 C 20.7 16.919999999999998, 20.384999999999998 16.919999999999998, 21.9 16.919999999999998 C 23.729999999999997 16.919999999999998, 24.134999999999998 16.919999999999998, 25.56 16.919999999999998 C 26.58 16.919999999999998, 26.699999999999996 16.919999999999998, 27.599999999999998 16.919999999999998 C 28.380000000000003 16.919999999999998, 28.530000000000005 16.845, 29.160000000000004 16.919999999999998 C 29.64 17.07, 29.759999999999998 17.084999999999997, 30.119999999999997 17.22 C 30.36 17.34, 30.314999999999998 17.28, 30.599999999999998 17.46 C 30.93 17.700000000000003, 30.884999999999998 17.46, 31.259999999999998 17.94 C 31.679999999999996 18.66, 31.634999999999994 18.18, 32.099999999999994 19.38 C 32.61 21.060000000000002, 32.77499999999999 21.03, 33.12 22.740000000000002 C 33.3 24.48, 33.345 24.06, 33.480000000000004 26.22 C 33.57000000000001 28.8, 33.615 29.025000000000002, 33.660000000000004 31.380000000000003 C 33.660000000000004 33.510000000000005, 33.765 33.825, 33.660000000000004 35.64 C 33.45 37.14, 33.42 37.545, 33.24 38.64 C 33.09 39.33, 33.33 39.19499999999999, 32.94 40.019999999999996 C 32.31 40.98, 32.28 41.235, 31.68 41.94 C 31.11 42.39, 31.064999999999998 42.51, 30.54 42.839999999999996 C 30.06 43.05, 29.939999999999998 43.14, 29.58 43.26 C 29.339999999999996 43.29, 29.339999999999996 43.38, 29.099999999999998 43.32 C 28.86 43.17, 28.949999999999996 43.394999999999996, 28.619999999999997 43.019999999999996 C 28.2 42.42, 28.11 42.66, 27.78 41.82 C 27.54 40.74, 27.464999999999996 40.71000000000001, 27.299999999999997 39.660000000000004 C 27.209999999999997 38.64, 27.224999999999994 38.76, 27.119999999999997 37.62 C 27 36.36, 26.985 36.49499999999999, 26.880000000000003 35.099999999999994 C 26.790000000000003 33.56999999999999, 26.745000000000005 33.285, 26.700000000000003 32.04 C 26.700000000000003 31.08, 26.700000000000003 30.674999999999997, 26.700000000000003 30.119999999999997 C 26.700000000000003 29.97, 26.700000000000003 30.015, 26.700000000000003 29.82 C 26.700000000000003 29.58, 26.700000000000003 29.459999999999997, 26.700000000000003 29.339999999999996 L 26.700000000000003 29.339999999999996" fill="none" stroke="black" stroke-width="2"></path><path d="M 15.78 12.84 C 16.02 12.99, 15.839999999999998 13.530000000000001, 16.259999999999998 13.14 C 16.86 12.21, 16.695 12.555, 17.46 11.28 C 18.39 9.66, 18.525 9.39, 19.32 8.040000000000001 C 19.98 6.960000000000001, 20.07 6.720000000000001, 20.64 5.88 C 21.12 5.279999999999999, 21.015 5.369999999999999, 21.6 4.68 C 22.29 3.9, 22.47 3.66, 22.98 3.12 C 23.310000000000002 2.8200000000000003, 23.43 2.685, 23.64 2.52 C 23.73 2.49, 23.55 2.445, 23.82 2.46 C 24.27 2.52, 24.21 2.265, 24.72 2.58 C 25.29 3.15, 24.78 2.265, 25.86 3.7199999999999998 C 27.45 6.059999999999999, 27.915 6.599999999999999, 29.04 8.399999999999999 C 29.7 9.66, 29.939999999999998 10.08, 30.36 10.92 C 30.54 11.34, 30.615 11.52, 30.72 11.76 L 30.78 11.879999999999999" fill="none" stroke="black" stroke-width="2"></path></svg>