<svg width="48" height="48" viewBox="0 0 48 48" xmlns="http://www.w3.org/2000/svg"><path d="M 13.620000000000001 44.7 C 12.84 44.7, 12.899999999999999 44.745000000000005, 12.059999999999999 44.7 C 11.16 44.61, 10.965 44.565, 10.26 44.519999999999996 C 9.75 44.519999999999996, 9.690000000000001 44.519999999999996, 9.24 44.519999999999996 C 8.85 44.519999999999996, 8.655 44.519999999999996, 8.459999999999999 44.519999999999996 C 8.459999999999999 44.519999999999996, 8.489999999999998 44.519999999999996, 8.459999999999999 44.519999999999996 C 8.399999999999999 44.519999999999996, 8.415 44.519999999999996, 8.34 44.519999999999996 C 8.25 44.519999999999996, 8.235 44.535, 8.16 44.519999999999996 C 8.100000000000001 44.489999999999995, 8.205000000000002 44.7, 8.040000000000001 44.46 C 7.7700000000000005 44.010000000000005, 7.695 44.175000000000004, 7.5 43.56 C 7.38 42.78, 7.395 42.945, 7.26 42 C 7.109999999999999 40.89, 7.109999999999999 40.92, 6.959999999999999 39.78 C 6.81 38.61, 6.81 38.864999999999995, 6.66 37.44 C 6.51 35.76, 6.525 35.58, 6.36 34.08 C 6.18 32.76, 6.09 32.49, 6 31.44 C 6 30.660000000000004, 6 30.975, 6 29.880000000000003 C 6 28.47, 5.925 28.229999999999997, 6 27.06 C 6.15 26.130000000000003, 6.165000000000001 25.980000000000004, 6.300000000000001 25.200000000000003 C 6.420000000000001 24.57, 6.375000000000002 24.495, 6.540000000000001 23.94 C 6.75 23.46, 6.719999999999999 23.505000000000003, 6.959999999999999 22.98 C 7.2299999999999995 22.41, 7.185 22.275, 7.5 21.84 C 7.86 21.54, 7.875000000000001 21.480000000000004, 8.22 21.240000000000002 C 8.55 21.060000000000002, 8.52 21, 8.879999999999999 20.88 C 9.27 20.82, 9.135 20.865, 9.66 20.759999999999998 C 10.32 20.61, 10.215 20.595, 10.98 20.46 C 11.850000000000001 20.34, 11.850000000000001 20.325, 12.72 20.22 C 13.59 20.13, 13.71 20.085, 14.46 20.04 C 15.09 20.04, 15.21 20.04, 15.72 20.04 C 16.11 20.04, 16.065 19.979999999999997, 16.5 20.04 C 16.98 20.16, 17.145000000000003 20.22, 17.46 20.28 C 17.61 20.28, 17.639999999999997 20.28, 17.759999999999998 20.28 C 17.85 20.28, 17.775000000000002 20.25, 17.94 20.28 C 18.18 20.34, 18.299999999999997 20.369999999999997, 18.419999999999998 20.4 C 18.419999999999998 20.4, 18.419999999999998 20.4, 18.419999999999998 20.4 L 18.419999999999998 20.4" fill="none" stroke="black" stroke-width="2"></path><path d="M 6.36 15.48 C 7.529999999999999 13.86, 7.664999999999999 13.665000000000001, 8.7 12.24 C 9.6 11.01, 9.81 10.799999999999999, 10.5 9.78 C 10.98 8.969999999999999, 11.024999999999999 8.865, 11.459999999999999 8.16 C 11.85 7.56, 11.985 7.379999999999999, 12.24 6.959999999999999 C 12.36 6.72, 12.42 6.6, 12.48 6.48 C 12.48 6.48, 12.48 6.48, 12.48 6.48 C 12.48 6.48, 12.435 6.540000000000001, 12.48 6.48 C 12.57 6.36, 12.585 6.300000000000001, 12.66 6.24 C 12.719999999999999 6.24, 12.54 5.985, 12.78 6.24 C 13.2 6.75, 13.110000000000001 6.51, 13.620000000000001 7.26 C 14.22 8.25, 14.265 8.31, 14.82 9.24 C 15.33 10.11, 15.434999999999999 10.305, 15.84 10.98 C 16.14 11.46, 16.275000000000002 11.655, 16.44 11.94 C 16.47 12.030000000000001, 16.41 12.000000000000002, 16.5 12.120000000000001 C 16.65 12.27, 16.619999999999997 12.209999999999997, 16.799999999999997 12.419999999999998 C 17.009999999999998 12.69, 17.025 12.645, 17.22 12.96 C 17.4 13.32, 17.46 13.425, 17.580000000000002 13.68 C 17.64 13.83, 17.67 13.905000000000001, 17.700000000000003 13.98 C 17.700000000000003 13.98, 17.685000000000002 13.935, 17.700000000000003 13.98 C 17.73 14.07, 17.744999999999997 14.115, 17.759999999999998 14.16 L 17.759999999999998 14.16" fill="none" stroke="black" stroke-width="2"></path></svg>