<svg width="48" height="48" viewBox="0 0 48 48" xmlns="http://www.w3.org/2000/svg"><path d="M 12.36 27.06 C 12.84 27.240000000000002, 12.285 27.255000000000003, 13.32 27.42 C 14.91 27.57, 14.76 27.689999999999998, 16.5 27.72 C 18.39 27.63, 19.14 27.705, 20.28 27.54 C 20.67 27.299999999999997, 20.505 27.525, 21.06 27.06 C 21.78 26.369999999999997, 21.96 26.43, 22.5 25.68 C 22.86 24.869999999999997, 22.95 25.034999999999997, 23.22 24.06 C 23.4 22.92, 23.490000000000002 22.455000000000002, 23.580000000000002 21.78 C 23.580000000000002 21.57, 23.580000000000002 21.45, 23.580000000000002 21.36 C 23.580000000000002 21.39, 23.580000000000002 20.97, 23.580000000000002 21.419999999999998 C 23.580000000000002 22.29, 23.355000000000004 22.125, 23.580000000000002 23.16 C 24.03 24.36, 23.76 24.779999999999998, 24.48 25.56 C 25.47 25.92, 25.605 26.13, 26.46 26.28 C 27.18 26.220000000000002, 27.39 26.415000000000006, 27.900000000000002 26.160000000000004 C 28.200000000000003 25.71, 28.26 26.22, 28.5 25.259999999999998 C 28.68 23.79, 28.77 24.18, 28.86 22.32 C 28.86 20.07, 28.965 20.07, 28.86 17.82 C 28.65 15.57, 28.815 15.525, 28.44 13.32 C 27.9 11.16, 27.794999999999998 10.89, 27.36 9 C 27.03 7.38, 26.910000000000004 6.675, 26.700000000000003 5.76 C 26.61 5.55, 26.625 5.595, 26.52 5.34 C 26.4 5.04, 26.385 5.01, 26.28 4.74 C 26.189999999999998 4.5, 26.145 4.38, 26.099999999999998 4.26 C 26.099999999999998 4.26, 26.099999999999998 4.26, 26.099999999999998 4.26 C 26.099999999999998 4.26, 26.099999999999998 4.26, 26.099999999999998 4.26 C 26.099999999999998 4.26, 26.099999999999998 4.26, 26.099999999999998 4.26 C 26.099999999999998 4.26, 26.099999999999998 4.26, 26.099999999999998 4.26 L 26.099999999999998 4.26" fill="none" stroke="black" stroke-width="2"></path><path d="M 12.54 17.52 C 13.41 16.86, 13.11 17.700000000000003, 14.28 16.200000000000003 C 15.75 13.860000000000001, 16.049999999999997 13.635, 17.22 11.52 C 18.09 9.629999999999999, 18.39 8.94, 18.96 7.74 C 19.23 7.23, 19.335 7.0200000000000005, 19.5 6.720000000000001 C 19.560000000000002 6.630000000000001, 19.455000000000002 6.405000000000001, 19.62 6.540000000000001 C 19.89 6.9, 19.755 6.494999999999999, 20.16 7.26 C 20.700000000000003 8.43, 20.355 8.055000000000001, 21.240000000000002 9.600000000000001 C 22.470000000000002 11.520000000000001, 22.635000000000005 11.970000000000002, 23.700000000000003 13.440000000000001 C 24.6 14.46, 24.645000000000003 14.715, 25.5 15.48 C 26.31 15.99, 26.669999999999998 16.23, 27.119999999999997 16.5 C 27.209999999999997 16.53, 27.254999999999995 16.544999999999998, 27.299999999999997 16.56 C 27.299999999999997 16.56, 27.224999999999998 16.514999999999997, 27.299999999999997 16.56 C 27.449999999999996 16.65, 27.434999999999995 16.680000000000003, 27.599999999999998 16.740000000000002 C 27.78 16.77, 27.795 16.74, 27.96 16.799999999999997 C 28.11 16.89, 28.185 16.935, 28.259999999999998 16.98 L 28.259999999999998 16.98" fill="none" stroke="black" stroke-width="2"></path><path d="M 20.580000000000002 33.480000000000004 C 19.35 33.39, 19.44 33.089999999999996, 18.12 33.3 C 16.71 33.81, 16.244999999999997 33.51, 15.299999999999999 34.32 C 14.82 35.43, 14.58 35.4, 14.34 36.54 C 14.34 37.71, 14.129999999999999 37.935, 14.34 38.88 C 14.76 39.6, 14.579999999999998 39.81, 15.18 40.32 C 15.96 40.620000000000005, 15.615000000000002 40.65, 16.740000000000002 40.92 C 18.21 41.160000000000004, 18.54 41.370000000000005, 19.68 41.400000000000006 C 20.49 41.22, 20.624999999999996 41.46, 21.299999999999997 41.04 C 21.839999999999996 40.379999999999995, 21.99 40.32, 22.38 39.72 C 22.619999999999997 39.18, 22.74 39.225, 22.86 38.64 C 22.86 38.010000000000005, 22.905 38.07, 22.86 37.38 C 22.77 36.63, 22.89 36.525000000000006, 22.68 35.88 C 22.35 35.34, 22.32 35.25, 22.02 34.8 C 21.75 34.44, 21.78 34.425, 21.48 34.08 C 21.15 33.75, 21.105 33.6, 20.82 33.42 C 20.58 33.39, 20.46 33.375, 20.34 33.36 L 20.34 33.36" fill="none" stroke="black" stroke-width="2"></path></svg>