<svg width="48" height="48" viewBox="0 0 48 48" xmlns="http://www.w3.org/2000/svg"><path d="M 13.620000000000001 27.96 C 14.55 28.05, 13.05 28.26, 15.48 28.14 C 19.41 27.810000000000002, 20.235 27.675, 23.34 27.48 C 25.62 27.42, 26.145000000000003 27.435, 27.900000000000002 27.36 C 29.130000000000003 27.27, 29.52 27.255, 30.36 27.18 C 30.81 27.119999999999997, 30.915 27.104999999999997, 31.259999999999998 27.06 C 31.5 27.03, 31.470000000000002 27.15, 31.740000000000002 27 C 32.04 26.73, 32.04 27.270000000000003, 32.339999999999996 26.46 C 32.64 25.11, 32.76 25.049999999999997, 32.94 23.759999999999998 C 33 22.529999999999998, 33.09 22.739999999999995, 33.06 21.299999999999997 C 32.94 19.65, 32.985 19.95, 32.82 18 C 32.61 15.75, 32.7 15.945, 32.400000000000006 13.5 C 32.010000000000005 10.86, 31.875 10.05, 31.619999999999997 8.22 C 31.5 7.2, 31.575000000000003 7.26, 31.380000000000003 6.18 C 31.11 5.04, 30.974999999999998 4.53, 30.839999999999996 3.9000000000000004 C 30.839999999999996 3.7800000000000002, 30.839999999999996 3.72, 30.839999999999996 3.66 L 30.839999999999996 3.66" fill="none" stroke="black" stroke-width="2"></path><path d="M 16.259999999999998 20.88 C 17.339999999999996 19.439999999999998, 17.235 20.13, 18.419999999999998 18 C 19.71 15.18, 20.009999999999998 14.745, 21 12.36 C 21.689999999999998 10.41, 22.02 9.479999999999999, 22.38 8.459999999999999 C 22.41 8.37, 22.425 8.325, 22.44 8.28 C 22.44 8.28, 22.410000000000004 8.325, 22.44 8.28 C 22.5 8.190000000000001, 22.365 8.070000000000002, 22.56 8.100000000000001 C 22.89 8.25, 22.77 7.964999999999999, 23.22 8.399999999999999 C 23.79 9.12, 23.564999999999998 8.805, 24.36 9.84 C 25.380000000000003 11.19, 25.290000000000003 11.309999999999999, 26.400000000000002 12.54 C 27.6 13.649999999999999, 27.644999999999996 13.844999999999999, 28.799999999999997 14.76 C 29.909999999999997 15.48, 30.21 15.735000000000003, 31.02 16.200000000000003 C 31.53 16.410000000000004, 31.74 16.5, 32.04 16.62 C 32.129999999999995 16.65, 32.175 16.665, 32.22 16.68 C 32.22 16.68, 32.22 16.68, 32.22 16.68 L 32.22 16.68" fill="none" stroke="black" stroke-width="2"></path><path d="M 24.48 27.42 C 24.48 27.87, 24.48 27.225, 24.48 28.32 C 24.48 30.06, 24.48 29.79, 24.48 31.799999999999997 C 24.48 34.08, 24.48 34.2, 24.48 36.36 C 24.48 38.4, 24.48 39.015, 24.48 40.44 C 24.48 41.25, 24.48 41.355000000000004, 24.48 42.06 C 24.48 42.66, 24.48 42.81, 24.48 43.26 C 24.48 43.56, 24.48 43.53, 24.48 43.86 C 24.48 44.22, 24.48 44.339999999999996, 24.48 44.58 C 24.48 44.7, 24.48 44.76, 24.48 44.82 C 24.48 44.82, 24.48 44.82, 24.48 44.82 L 24.48 44.82" fill="none" stroke="black" stroke-width="2"></path></svg>