<svg width="48" height="48" viewBox="0 0 48 48" xmlns="http://www.w3.org/2000/svg"><path d="M 17.580000000000002 36.06 C 17.340000000000003 35.010000000000005, 17.385 35.49, 17.1 33.96 C 16.770000000000003 31.950000000000003, 16.830000000000002 32.025000000000006, 16.44 29.94 C 15.99 27.78, 15.765 27.224999999999998, 15.54 25.619999999999997 C 15.54 24.57, 15.54 24.66, 15.54 23.52 C 15.54 22.29, 15.57 22.005, 15.54 21.06 C 15.479999999999999 20.4, 15.45 20.220000000000002, 15.419999999999998 19.740000000000002 C 15.419999999999998 19.44, 15.329999999999998 19.53, 15.419999999999998 19.14 C 15.599999999999998 18.66, 15.479999999999999 18.585, 15.78 18.18 C 16.2 17.85, 16.14 17.775, 16.62 17.52 C 17.160000000000004 17.34, 16.995000000000005 17.265, 17.700000000000003 17.16 C 18.57 17.130000000000003, 18.015 17.115000000000002, 19.44 17.1 C 21.42 17.1, 21.765 17.1, 23.4 17.1 C 24.689999999999998 17.1, 24.87 17.1, 25.98 17.1 C 26.909999999999997 17.1, 27.149999999999995 17.1, 27.839999999999996 17.1 C 28.29 17.1, 28.515 17.1, 28.740000000000002 17.1 C 28.740000000000002 17.1, 28.635 16.98, 28.740000000000002 17.1 C 28.950000000000003 17.340000000000003, 29.010000000000005 16.980000000000004, 29.160000000000004 17.580000000000002 C 29.25 18.54, 29.249999999999996 18.6, 29.339999999999996 19.5 C 29.43 20.34, 29.534999999999997 20.07, 29.52 21.18 C 29.4 22.560000000000002, 29.535 22.275000000000002, 29.28 23.94 C 28.89 25.89, 28.83 26.294999999999998, 28.5 27.839999999999996 C 28.23 28.979999999999997, 28.335 28.904999999999994, 27.96 30.119999999999997 C 27.48 31.41, 27.36 31.68, 27 32.7 C 26.759999999999998 33.45, 26.685000000000002 33.660000000000004, 26.52 34.2 C 26.43 34.53, 26.399999999999995 34.5, 26.339999999999996 34.86 C 26.31 35.25, 26.310000000000002 35.415, 26.28 35.64 C 26.25 35.7, 26.235 35.73, 26.22 35.76 C 26.22 35.76, 26.22 35.76, 26.22 35.76 L 26.22 35.76" fill="none" stroke="black" stroke-width="2"></path><path d="M 16.02 36.480000000000004 C 17.04 36.480000000000004, 17.009999999999998 36.480000000000004, 18.06 36.480000000000004 C 19.14 36.480000000000004, 18.9 36.480000000000004, 20.22 36.480000000000004 C 21.78 36.480000000000004, 21.87 36.525000000000006, 23.34 36.480000000000004 C 24.72 36.39, 24.944999999999997 36.345, 26.099999999999998 36.3 C 27.03 36.3, 27.345 36.3, 27.96 36.3 C 28.259999999999998 36.3, 28.365 36.3, 28.56 36.3 L 28.740000000000002 36.3" fill="none" stroke="black" stroke-width="2"></path><path d="M 15.299999999999999 40.26 C 15.299999999999999 40.32, 15.104999999999999 40.35, 15.299999999999999 40.38 C 15.690000000000001 40.38, 15.255 40.38, 16.080000000000002 40.38 C 17.340000000000003 40.38, 17.46 40.38, 18.6 40.38 C 19.62 40.38, 19.560000000000002 40.395, 20.64 40.38 C 21.78 40.35, 21.75 40.335, 22.919999999999998 40.32 C 24.119999999999997 40.32, 24.285 40.35, 25.32 40.32 C 26.189999999999998 40.260000000000005, 26.339999999999996 40.230000000000004, 27.06 40.2 C 27.630000000000003 40.2, 27.720000000000002 40.2, 28.200000000000003 40.2 C 28.590000000000003 40.2, 28.68 40.2, 28.98 40.2 L 29.400000000000002 40.2" fill="none" stroke="black" stroke-width="2"></path><path d="M 16.86 13.98 C 17.16 13.59, 16.935000000000002 14.430000000000001, 17.46 13.200000000000001 C 18.21 11.13, 18.18 10.71, 18.96 9.06 C 19.770000000000003 7.83, 19.875 7.590000000000001, 20.580000000000002 6.6000000000000005 C 21.18 5.85, 21.360000000000003 5.654999999999999, 21.78 5.1 C 22.02 4.74, 22.14 4.56, 22.259999999999998 4.38 C 22.259999999999998 4.38, 22.214999999999996 4.425, 22.259999999999998 4.38 C 22.35 4.289999999999999, 22.32 4.26, 22.44 4.199999999999999 C 22.590000000000003 4.17, 22.500000000000004 4.109999999999999, 22.740000000000002 4.14 C 23.07 4.23, 23.04 4.065, 23.4 4.32 C 23.79 4.74, 23.46 3.9450000000000003, 24.18 5.16 C 25.23 7.17, 25.455000000000002 7.484999999999999, 26.28 9.18 C 26.880000000000003 10.559999999999999, 27.045 11.04, 27.48 11.94 C 27.75 12.36, 27.794999999999998 12.389999999999999, 28.02 12.78 C 28.200000000000003 13.14, 28.290000000000003 13.32, 28.380000000000003 13.5 L 28.380000000000003 13.5" fill="none" stroke="black" stroke-width="2"></path></svg>