<svg width="48" height="48" viewBox="0 0 48 48" xmlns="http://www.w3.org/2000/svg"><path d="M 14.580000000000002 30.18 C 15.21 30.18, 13.89 30.225, 15.84 30.18 C 19.11 30.09, 19.845 30.045, 22.38 30 C 24.18 30, 24.615000000000002 30, 25.98 30 C 26.909999999999997 30, 26.984999999999996 30, 27.839999999999996 30 C 28.619999999999997 30, 28.935000000000002 30.03, 29.400000000000002 30 C 29.550000000000004 29.94, 29.430000000000003 30.135, 29.700000000000003 29.880000000000003 C 30.090000000000003 29.43, 30.165 29.445, 30.48 28.98 C 30.72 28.5, 30.75 28.83, 30.96 28.02 C 31.14 26.880000000000003, 31.185000000000002 27.075000000000003, 31.32 25.740000000000002 C 31.41 24.21, 31.455 24.314999999999998, 31.5 22.68 C 31.5 20.94, 31.5 21.21, 31.5 19.200000000000003 C 31.5 16.92, 31.575 17.64, 31.5 14.64 C 31.35 10.92, 31.320000000000004 10.079999999999998, 31.200000000000003 7.199999999999999 C 31.11 5.16, 31.065 4.14, 31.02 3.12 C 31.02 3.12, 31.035 3.165, 31.02 3.12 L 30.96 2.94" fill="none" stroke="black" stroke-width="2"></path><path d="M 13.98 20.52 C 14.64 20.310000000000002, 14.19 21.075000000000003, 15.299999999999999 20.1 C 16.86 18.36, 16.305 19.245, 18.419999999999998 16.62 C 21.089999999999996 13.110000000000001, 22.259999999999998 11.610000000000001, 23.759999999999998 9.600000000000001 C 24.09 9.09, 24.255000000000003 8.835, 24.42 8.58 C 24.42 8.58, 24.42 8.58, 24.42 8.58 C 24.42 8.58, 24.285000000000004 8.535, 24.42 8.58 C 24.69 8.67, 24.450000000000003 8.1, 24.96 8.76 C 25.71 9.99, 25.62 10.020000000000001, 26.46 11.22 C 27.39 12.39, 27.48 12.524999999999999, 28.32 13.559999999999999 C 29.07 14.459999999999999, 29.145 14.61, 29.82 15.36 C 30.42 15.959999999999999, 30.72 16.259999999999998, 31.02 16.56 C 31.02 16.56, 31.02 16.56, 31.02 16.56 L 31.02 16.56" fill="none" stroke="black" stroke-width="2"></path><path d="M 19.44 30.660000000000004 C 19.29 32.040000000000006, 19.32 31.620000000000005, 19.14 33.42 C 18.93 35.64, 18.915 35.925, 18.72 37.86 C 18.54 39.510000000000005, 18.494999999999997 39.720000000000006, 18.36 41.160000000000004 C 18.27 42.39, 18.27 42.675, 18.18 43.62 C 18.09 44.28, 18.045 44.565, 18 44.94 L 18 45.12" fill="none" stroke="black" stroke-width="2"></path><path d="M 26.04 31.200000000000003 C 25.95 32.67, 26.009999999999998 32.475, 25.86 34.14 C 25.65 36, 25.590000000000003 36.18, 25.44 37.86 C 25.35 39.36, 25.305 39.465, 25.259999999999998 40.86 C 25.259999999999998 42.15, 25.259999999999998 42.48, 25.259999999999998 43.44 C 25.259999999999998 44.07, 25.259999999999998 44.31, 25.259999999999998 44.7 C 25.259999999999998 44.85, 25.259999999999998 44.925, 25.259999999999998 45 L 25.259999999999998 45" fill="none" stroke="black" stroke-width="2"></path></svg>