<svg width="48" height="48" viewBox="0 0 48 48" xmlns="http://www.w3.org/2000/svg"><path d="M 13.68 2.7600000000000002 C 13.65 4.47, 13.935000000000002 3.48, 13.620000000000001 6.18 C 13.02 9.87, 12.839999999999998 9.899999999999999, 12.419999999999998 13.559999999999999 C 12.18 17.189999999999998, 12.059999999999999 17.265, 11.94 20.82 C 11.94 24.3, 11.94 24.585, 11.94 27.78 C 11.94 30.689999999999998, 11.94 30.764999999999993, 11.94 33.599999999999994 C 11.94 36.36, 11.94 37.27499999999999, 11.94 39.12 C 11.94 40.05, 11.895 40.080000000000005, 11.94 40.980000000000004 C 12.030000000000001 41.85, 12.015 42.045, 12.120000000000001 42.72 C 12.24 43.2, 12.3 43.44, 12.36 43.68 C 12.36 43.68, 12.36 43.68, 12.36 43.68 L 12.36 43.68" fill="none" stroke="black" stroke-width="2"></path><path d="M 11.76 37.2 C 12.36 37.230000000000004, 12.09 37.245, 12.96 37.26 C 14.100000000000001 37.26, 13.71 37.334999999999994, 15.24 37.26 C 17.16 37.11, 17.775000000000002 37.065, 19.080000000000002 36.96 C 19.770000000000003 36.9, 19.86 36.87, 20.46 36.839999999999996 L 21.48 36.839999999999996" fill="none" stroke="black" stroke-width="2"></path><path d="M 12.059999999999999 30.54 C 13.08 30.39, 13.095 30.795, 14.100000000000001 30.240000000000002 C 15.090000000000002 29.28, 15.195000000000002 29.490000000000002, 16.080000000000002 28.32 C 16.86 26.939999999999998, 16.935000000000002 26.97, 17.64 25.56 C 18.27 24.119999999999997, 18.585 23.4, 18.9 22.68 C 18.9 22.68, 18.854999999999997 22.725, 18.9 22.68 C 18.990000000000002 22.59, 18.945 22.53, 19.080000000000002 22.5 C 19.26 22.53, 19.290000000000003 22.125, 19.44 22.56 C 19.560000000000002 23.4, 19.47 23.235000000000003, 19.68 24.240000000000002 C 19.98 25.41, 19.845000000000002 25.515, 20.28 26.58 C 20.85 27.54, 20.669999999999998 27.674999999999997, 21.419999999999998 28.5 C 22.35 29.19, 22.185000000000002 29.400000000000002, 23.28 29.880000000000003 C 24.54 30.150000000000002, 24.735 30.285000000000004, 25.799999999999997 30.42 C 26.669999999999998 30.42, 26.985 30.42, 27.54 30.42 C 27.78 30.42, 27.78 30.450000000000003, 28.02 30.42 L 28.5 30.299999999999997" fill="none" stroke="black" stroke-width="2"></path><path d="M 11.459999999999999 18.12 C 11.91 18.12, 11.924999999999999 18.165, 12.36 18.12 C 12.780000000000001 18.03, 12.66 18.345000000000002, 13.200000000000001 17.94 C 13.86 17.22, 13.29 18.060000000000002, 14.52 16.5 C 16.32 14.1, 16.635 13.649999999999999, 18.12 11.7 C 19.29 10.2, 19.665000000000003 9.659999999999998, 20.46 8.7 C 20.88 8.28, 20.909999999999997 8.25, 21.299999999999997 7.86 C 21.659999999999997 7.5, 21.81 7.335, 22.02 7.14 C 22.08 7.109999999999999, 21.990000000000002 7.05, 22.14 7.08 C 22.380000000000003 7.17, 22.335 6.93, 22.62 7.26 C 22.950000000000003 7.829999999999999, 22.575000000000003 6.629999999999999, 23.28 8.399999999999999 C 24.36 11.37, 24.345 11.669999999999998, 25.44 14.34 C 26.550000000000004 16.71, 27.000000000000004 17.67, 27.660000000000004 19.080000000000002 C 27.87 19.53, 27.945 19.68, 28.08 19.98 C 28.14 20.130000000000003, 28.17 20.205000000000002, 28.200000000000003 20.28 L 28.200000000000003 20.28" fill="none" stroke="black" stroke-width="2"></path></svg>