<svg width="48" height="48" viewBox="0 0 48 48" xmlns="http://www.w3.org/2000/svg"><path d="M 15.24 17.64 C 16.71 17.64, 16.455 17.715, 18.18 17.64 C 20.16 17.490000000000002, 20.535 17.43, 22.14 17.34 C 23.369999999999997 17.310000000000002, 23.625 17.295, 24.599999999999998 17.28 C 25.32 17.28, 25.305 17.28, 26.04 17.28 C 26.79 17.28, 26.85 17.28, 27.54 17.28 C 28.169999999999998 17.28, 28.259999999999998 17.28, 28.799999999999997 17.28 C 29.25 17.28, 29.310000000000002 17.28, 29.700000000000003 17.28 C 30.03 17.28, 30.165 17.28, 30.36 17.28 C 30.42 17.28, 30.27 17.115000000000002, 30.48 17.28 C 30.840000000000003 17.61, 30.900000000000002 17.64, 31.200000000000003 17.94 C 31.44 18.21, 31.455000000000002 18.135, 31.68 18.48 C 31.889999999999997 18.9, 31.904999999999994 18.84, 32.099999999999994 19.32 C 32.28 19.86, 32.37 19.86, 32.46 20.4 C 32.46 20.939999999999998, 32.46 20.895, 32.46 21.48 C 32.46 22.11, 32.46 22.095000000000002, 32.46 22.740000000000002 C 32.46 23.4, 32.46 23.174999999999997, 32.46 24.06 C 32.46 25.17, 32.475 25.32, 32.46 26.28 C 32.43000000000001 27.090000000000003, 32.415000000000006 27.450000000000003, 32.400000000000006 27.900000000000002 C 32.400000000000006 27.990000000000002, 32.400000000000006 28.035, 32.400000000000006 28.08 C 32.400000000000006 28.08, 32.43000000000001 28.034999999999997, 32.400000000000006 28.08 L 32.28 28.259999999999998" fill="none" stroke="black" stroke-width="2"></path><path d="M 15.48 13.02 C 15.66 13.02, 15.48 13.17, 15.84 13.02 C 16.38 12.719999999999999, 15.974999999999998 13.379999999999999, 16.919999999999998 12.419999999999998 C 18.27 10.799999999999999, 18.315 10.665, 19.62 9.18 C 20.880000000000003 7.83, 21.255000000000003 7.32, 22.14 6.48 C 22.65 6.15, 22.62 6.195, 23.16 5.82 C 23.729999999999997 5.4, 23.97 5.22, 24.299999999999997 4.9799999999999995 C 24.39 4.92, 24.36 4.905, 24.48 4.86 C 24.630000000000003 4.83, 24.450000000000003 4.680000000000001, 24.78 4.800000000000001 C 25.29 5.07, 24.944999999999997 4.484999999999999, 25.799999999999997 5.34 C 27 6.78, 27.120000000000005 6.840000000000001, 28.200000000000003 8.22 C 29.16 9.54, 29.474999999999998 9.975, 30.119999999999997 10.86 C 30.45 11.309999999999999, 30.615000000000002 11.535, 30.78 11.76 C 30.78 11.76, 30.75 11.715, 30.78 11.76 L 30.900000000000002 11.94" fill="none" stroke="black" stroke-width="2"></path><path d="M 23.16 17.94 C 23.16 19.14, 23.07 18.69, 23.16 20.34 C 23.34 22.439999999999998, 22.995 22.244999999999997, 23.52 24.54 C 24.39 27.03, 24.36 27.39, 25.259999999999998 29.52 C 26.189999999999998 31.29, 26.354999999999997 31.875000000000004, 27.119999999999997 33.06 C 27.72 33.66, 27.855 33.885, 28.32 34.26 C 28.65 34.41, 28.5 34.38, 28.98 34.56 C 29.61 34.77, 29.715000000000003 34.77, 30.240000000000002 34.980000000000004 C 30.66 35.190000000000005, 30.674999999999997 35.14500000000001, 31.08 35.400000000000006 C 31.47 35.7, 31.589999999999996 35.730000000000004, 31.86 36 C 32.010000000000005 36.24, 32.085 36.285000000000004, 32.160000000000004 36.480000000000004 C 32.160000000000004 36.63, 32.160000000000004 36.585, 32.160000000000004 36.78 C 32.160000000000004 37.019999999999996, 32.370000000000005 37.019999999999996, 32.160000000000004 37.26 C 31.740000000000002 37.5, 31.755000000000003 37.56, 31.32 37.74 C 30.87 37.86, 30.975 37.905, 30.42 37.980000000000004 C 29.759999999999998 38.010000000000005, 30.209999999999997 37.935, 29.099999999999998 38.04 C 27.54 38.22, 27.225 37.995000000000005, 25.98 38.400000000000006 C 25.049999999999997 39.03, 24.944999999999997 38.98500000000001, 24.119999999999997 39.660000000000004 C 23.4 40.379999999999995, 23.505 39.974999999999994, 22.68 41.099999999999994 C 21.75 42.629999999999995, 21.405 42.900000000000006, 20.82 44.160000000000004 C 20.58 45.150000000000006, 20.46 45.480000000000004, 20.34 46.14 C 20.34 46.47, 20.31 46.605, 20.34 46.8 L 20.46 46.92" fill="none" stroke="black" stroke-width="2"></path></svg>