<svg width="48" height="48" viewBox="0 0 48 48" xmlns="http://www.w3.org/2000/svg"><path d="M 13.080000000000002 43.8 C 12.690000000000001 42.239999999999995, 12.809999999999999 42.915, 12.299999999999999 40.68 C 11.67 37.769999999999996, 11.4 37.215, 11.040000000000001 34.86 C 10.95 33.06, 10.905 33.015, 10.86 31.259999999999998 C 10.86 29.549999999999997, 10.86 29.624999999999996, 10.86 27.839999999999996 C 10.86 25.979999999999997, 10.86 25.574999999999996, 10.86 24.119999999999997 C 10.86 23.07, 10.77 23.115, 10.86 22.02 C 11.04 20.880000000000003, 11.025 20.745, 11.22 19.740000000000002 C 11.43 18.87, 11.475000000000001 18.555, 11.64 18 C 11.76 17.759999999999998, 11.61 17.7, 11.879999999999999 17.52 C 12.3 17.4, 12.36 17.34, 12.72 17.28 C 13.02 17.28, 12.975 17.28, 13.32 17.28 C 13.71 17.28, 13.740000000000002 17.19, 14.100000000000001 17.28 C 14.43 17.46, 14.385 17.385, 14.76 17.64 C 15.18 17.97, 15.225000000000001 17.849999999999998, 15.600000000000001 18.299999999999997 C 15.93 18.869999999999997, 15.93 18.795, 16.259999999999998 19.44 C 16.589999999999996 20.16, 16.634999999999998 19.994999999999997, 16.919999999999998 20.88 C 17.159999999999997 21.93, 17.189999999999998 21.84, 17.4 22.98 C 17.58 24.21, 17.58 24.465, 17.759999999999998 25.44 C 17.939999999999998 26.160000000000004, 18.03 26.370000000000005, 18.12 26.880000000000003 C 18.12 27.18, 18.12 27.330000000000002, 18.12 27.48 C 18.12 27.48, 18.12 27.48, 18.12 27.48 C 18.12 27.48, 18.075000000000003 27.765, 18.12 27.48 C 18.21 26.909999999999997, 18.209999999999997 27.194999999999997, 18.299999999999997 26.339999999999996 C 18.39 25.199999999999996, 18.375 25.049999999999997, 18.48 24.06 C 18.6 23.22, 18.555 23.13, 18.72 22.38 C 18.93 21.72, 18.884999999999998 21.674999999999997, 19.14 21.06 C 19.44 20.49, 19.455000000000002 20.415, 19.740000000000002 19.919999999999998 C 20.01 19.5, 19.935000000000002 19.455000000000002, 20.28 19.080000000000002 C 20.700000000000003 18.75, 20.655 18.705, 21.12 18.419999999999998 C 21.630000000000003 18.18, 21.555 18.075000000000003, 22.14 17.94 C 22.8 17.91, 22.905 17.895, 23.46 17.88 C 23.91 17.88, 24.045 17.88, 24.36 17.88 C 24.54 17.88, 24.63 17.88, 24.72 17.88 L 24.72 17.88" fill="none" stroke="black" stroke-width="2"></path><path d="M 26.46 13.14 C 26.16 13.32, 26.4 13.32, 25.86 13.5 C 25.08 13.68, 25.049999999999997 13.77, 24.299999999999997 13.86 C 23.58 13.86, 23.52 13.86, 22.86 13.86 C 22.259999999999998 13.86, 22.335 13.98, 21.66 13.86 C 20.91 13.62, 20.7 13.604999999999999, 20.16 13.379999999999999 C 19.83 13.17, 19.83 13.305, 19.5 12.96 C 19.17 12.48, 19.064999999999998 12.615, 18.84 12 C 18.72 11.25, 18.66 11.19, 18.6 10.5 C 18.6 9.870000000000001, 18.48 9.765, 18.6 9.24 C 18.840000000000003 8.82, 18.705000000000002 8.79, 19.080000000000002 8.399999999999999 C 19.590000000000003 8.04, 19.560000000000002 8.024999999999999, 20.1 7.68 C 20.67 7.35, 20.790000000000003 7.185, 21.240000000000002 7.02 C 21.57 7.02, 21.63 7.02, 21.9 7.02 C 22.11 7.02, 21.96 6.8999999999999995, 22.32 7.02 C 22.83 7.26, 22.965 7.215, 23.34 7.5 C 23.58 7.83, 23.535 7.665, 23.82 8.16 C 24.15 8.82, 24.15 8.385000000000002, 24.48 9.48 C 24.810000000000002 11.01, 24.9 10.875, 25.14 12.54 C 25.29 14.34, 25.305 14.445, 25.44 16.14 C 25.560000000000002 17.73, 25.575 17.34, 25.68 19.32 C 25.77 21.689999999999998, 25.814999999999998 21.765, 25.86 24.06 C 25.86 26.28, 25.86 26.28, 25.86 28.5 C 25.86 30.72, 25.875 30.854999999999997, 25.86 32.94 C 25.83 34.89, 25.86 35.355, 25.799999999999997 36.839999999999996 C 25.709999999999997 37.86, 25.739999999999995 37.965, 25.619999999999997 38.88 C 25.47 39.69, 25.575 39.81, 25.32 40.5 C 24.96 41.07, 25.019999999999996 41.16, 24.599999999999998 41.64 C 24.119999999999997 42.03, 24.045 42.18000000000001, 23.64 42.42 C 23.310000000000002 42.51, 23.22 42.55499999999999, 22.98 42.599999999999994 C 22.83 42.599999999999994, 22.875 42.614999999999995, 22.68 42.599999999999994 C 22.44 42.56999999999999, 22.53 42.72, 22.200000000000003 42.54 C 21.78 42.21, 21.735 42.255, 21.36 41.88 C 21.03 41.46, 20.925000000000004 41.415, 20.700000000000003 41.04 C 20.580000000000002 40.71, 20.55 40.815000000000005, 20.46 40.38 C 20.4 39.84, 20.37 39.9, 20.34 39.3 C 20.34 38.64, 20.235 38.865, 20.34 37.980000000000004 C 20.549999999999997 36.870000000000005, 20.474999999999998 36.675, 20.759999999999998 35.76 C 21.119999999999997 35.04, 21.06 34.89, 21.48 34.32 C 21.96 33.900000000000006, 21.93 33.81, 22.44 33.480000000000004 C 22.98 33.24, 22.98 33.120000000000005, 23.52 33 C 24.06 33, 24.209999999999997 32.985, 24.599999999999998 33 C 24.839999999999996 33.03, 24.839999999999996 33.015, 25.08 33.06 C 25.32 33.120000000000005, 25.439999999999998 33.15, 25.56 33.18 C 25.56 33.18, 25.56 33.18, 25.56 33.18 L 25.56 33.18" fill="none" stroke="black" stroke-width="2"></path></svg>