<svg width="48" height="48" viewBox="0 0 48 48" xmlns="http://www.w3.org/2000/svg"><path d="M 14.34 28.44 C 14.49 28.47, 14.265 28.485, 14.64 28.5 C 15.24 28.5, 15.135 28.5, 15.84 28.5 C 16.65 28.5, 16.65 28.59, 17.46 28.5 C 18.270000000000003 28.32, 18.270000000000003 28.275, 19.080000000000002 28.14 C 19.89 28.05, 19.785000000000004 28.095000000000002, 20.700000000000003 27.96 C 21.720000000000002 27.78, 21.870000000000005 27.689999999999998, 22.740000000000002 27.599999999999998 C 23.46 27.599999999999998, 23.58 27.644999999999996, 24.18 27.599999999999998 C 24.66 27.509999999999998, 24.6 27.465, 25.14 27.42 C 25.74 27.42, 25.739999999999995 27.42, 26.339999999999996 27.42 C 26.939999999999998 27.42, 27.06 27.465000000000003, 27.54 27.42 C 27.9 27.330000000000002, 27.9 27.405, 28.259999999999998 27.240000000000002 C 28.619999999999997 27, 28.68 27.119999999999997, 28.98 26.759999999999998 C 29.22 26.279999999999998, 29.19 26.474999999999998, 29.46 25.799999999999997 C 29.759999999999998 24.93, 29.744999999999997 25.275, 30.06 24.06 C 30.39 22.5, 30.509999999999998 22.29, 30.72 20.94 C 30.810000000000002 19.8, 30.855 19.875, 30.900000000000002 18.66 C 30.900000000000002 17.37, 30.990000000000002 17.355000000000004, 30.900000000000002 16.080000000000002 C 30.72 14.82, 30.63 14.625, 30.54 13.559999999999999 C 30.54 12.69, 30.585 12.675, 30.54 11.82 C 30.45 10.98, 30.494999999999997 10.8, 30.36 10.14 C 30.18 9.66, 30.21 9.705, 30 9.18 C 29.759999999999998 8.61, 29.759999999999998 8.595, 29.52 8.040000000000001 C 29.28 7.5, 29.325 7.469999999999999, 29.04 6.959999999999999 C 28.71 6.4799999999999995, 28.725 6.404999999999999, 28.380000000000003 6 C 28.020000000000003 5.67, 28.005000000000003 5.609999999999999, 27.660000000000004 5.34 C 27.330000000000002 5.13, 27.36 5.07, 27 4.92 C 26.61 4.83, 26.61 4.785, 26.22 4.74 C 25.83 4.74, 25.755000000000003 4.74, 25.44 4.74 C 25.200000000000003 4.74, 25.275000000000002 4.605, 24.96 4.74 C 24.57 5.01, 24.615000000000002 4.890000000000001, 24.18 5.28 C 23.7 5.790000000000001, 23.61 5.760000000000001, 23.22 6.300000000000001 C 22.92 6.87, 22.8 6.885, 22.62 7.4399999999999995 C 22.560000000000002 7.9799999999999995, 22.53 7.949999999999999, 22.5 8.52 C 22.5 9.120000000000001, 22.439999999999998 9.105, 22.5 9.72 C 22.62 10.350000000000001, 22.560000000000002 10.38, 22.740000000000002 10.98 C 22.98 11.55, 22.86 11.64, 23.22 12.120000000000001 C 23.7 12.51, 23.744999999999997 12.629999999999999, 24.18 12.899999999999999 C 24.57 13.05, 24.525 13.080000000000002, 24.96 13.200000000000001 C 25.44 13.29, 25.485 13.334999999999999, 25.92 13.379999999999999 C 26.310000000000002 13.379999999999999, 26.205000000000002 13.379999999999999, 26.700000000000003 13.379999999999999 C 27.300000000000004 13.379999999999999, 27.450000000000003 13.379999999999999, 27.900000000000002 13.379999999999999 C 28.200000000000003 13.379999999999999, 28.23 13.379999999999999, 28.5 13.379999999999999 C 28.740000000000002 13.379999999999999, 28.785 13.379999999999999, 28.98 13.379999999999999 C 29.130000000000003 13.379999999999999, 29.130000000000003 13.379999999999999, 29.28 13.379999999999999 C 29.43 13.379999999999999, 29.43 13.379999999999999, 29.58 13.379999999999999 C 29.73 13.379999999999999, 29.730000000000004 13.379999999999999, 29.880000000000003 13.379999999999999 C 30.03 13.379999999999999, 30.015 13.379999999999999, 30.18 13.379999999999999 C 30.36 13.379999999999999, 30.45 13.379999999999999, 30.54 13.379999999999999 C 30.54 13.379999999999999, 30.54 13.379999999999999, 30.54 13.379999999999999 C 30.54 13.379999999999999, 30.54 13.379999999999999, 30.54 13.379999999999999 L 30.54 13.379999999999999" fill="none" stroke="black" stroke-width="2"></path><path d="M 20.580000000000002 27.660000000000004 C 20.580000000000002 28.200000000000003, 20.580000000000002 28.245000000000005, 20.580000000000002 28.740000000000002 C 20.580000000000002 29.19, 20.565 28.785, 20.580000000000002 29.64 C 20.61 30.900000000000002, 20.625 30.915000000000006, 20.64 32.160000000000004 C 20.64 33.39, 20.64 33.39, 20.64 34.62 C 20.64 35.849999999999994, 20.64 35.835, 20.64 37.08 C 20.64 38.339999999999996, 20.64 38.60999999999999, 20.64 39.599999999999994 C 20.64 40.31999999999999, 20.64 40.26, 20.64 41.04 C 20.64 41.879999999999995, 20.595 41.835, 20.64 42.72 C 20.73 43.65, 20.7 43.83, 20.82 44.58 C 20.97 45.15, 20.955000000000002 45.345, 21.12 45.72 C 21.3 45.9, 21.27 45.885, 21.48 46.08 C 21.72 46.29, 21.84 46.394999999999996, 21.96 46.5 C 21.96 46.5, 21.87 46.5, 21.96 46.5 C 22.14 46.5, 22.2 46.59, 22.32 46.5 C 22.380000000000003 46.32, 22.365000000000002 46.455, 22.44 46.14 C 22.53 45.69, 22.575000000000003 45.78, 22.62 45.24 C 22.62 44.61, 22.545 44.685, 22.62 43.980000000000004 C 22.77 43.2, 22.665 43.275000000000006, 22.919999999999998 42.42 C 23.28 41.49, 23.265 41.355000000000004, 23.64 40.56 C 24.03 39.900000000000006, 23.895000000000003 39.99, 24.42 39.24 C 25.080000000000002 38.400000000000006, 25.020000000000003 38.28, 25.740000000000002 37.56 C 26.52 36.96, 26.415 36.81, 27.299999999999997 36.36 C 28.29 36.06, 28.425 35.91, 29.28 35.76 C 30 35.76, 30.314999999999998 35.76, 30.72 35.76 C 30.810000000000002 35.76, 30.855 35.76, 30.900000000000002 35.76 L 30.900000000000002 35.76" fill="none" stroke="black" stroke-width="2"></path></svg>