<svg width="48" height="48" viewBox="0 0 48 48" xmlns="http://www.w3.org/2000/svg"><path d="M 13.32 44.28 C 13.200000000000001 42.99, 13.170000000000002 42.75, 13.080000000000002 41.7 C 13.020000000000001 40.89, 13.005000000000003 41.295, 12.96 40.08 C 12.93 38.459999999999994, 12.915 38.339999999999996, 12.899999999999999 36.839999999999996 C 12.899999999999999 35.459999999999994, 12.899999999999999 35.22, 12.899999999999999 34.08 C 12.899999999999999 33.18, 12.899999999999999 33.36, 12.899999999999999 32.28 C 12.899999999999999 31.02, 12.899999999999999 30.705, 12.899999999999999 29.759999999999998 C 12.899999999999999 29.13, 12.899999999999999 29.22, 12.899999999999999 28.5 C 12.899999999999999 27.69, 12.824999999999998 27.660000000000004, 12.899999999999999 26.880000000000003 C 13.05 26.130000000000003, 13.065000000000001 25.92, 13.200000000000001 25.380000000000003 C 13.32 25.05, 13.170000000000002 25.14, 13.440000000000001 24.72 C 13.86 24.21, 13.86 24.105000000000004, 14.28 23.700000000000003 C 14.7 23.400000000000002, 14.625000000000002 23.37, 15.120000000000001 23.1 C 15.69 22.86, 15.779999999999998 22.785, 16.259999999999998 22.62 C 16.65 22.53, 16.575 22.485, 17.04 22.44 C 17.58 22.44, 17.46 22.44, 18.12 22.44 C 18.9 22.44, 18.825 22.44, 19.68 22.44 C 20.61 22.44, 20.564999999999998 22.44, 21.54 22.44 C 22.560000000000002 22.44, 22.665 22.44, 23.580000000000002 22.44 C 24.39 22.44, 24.570000000000004 22.44, 25.200000000000003 22.44 C 25.65 22.44, 25.799999999999997 22.44, 26.099999999999998 22.44 C 26.25 22.44, 26.325000000000003 22.44, 26.400000000000002 22.44 C 26.400000000000002 22.44, 26.400000000000002 22.44, 26.400000000000002 22.44 C 26.400000000000002 22.44, 26.400000000000002 22.44, 26.400000000000002 22.44 L 26.400000000000002 22.44" fill="none" stroke="black" stroke-width="2"></path><path d="M 27.18 15.96 C 26.67 16.17, 26.820000000000004 16.215, 26.160000000000004 16.38 C 25.35 16.5, 25.305 16.47, 24.54 16.62 C 23.82 16.8, 23.700000000000003 16.89, 23.1 16.98 C 22.62 16.98, 22.545 17.16, 22.14 16.98 C 21.810000000000002 16.619999999999997, 21.795 16.68, 21.48 16.259999999999998 C 21.18 15.779999999999998, 21.119999999999997 16.034999999999997, 20.88 15.299999999999999 C 20.7 14.309999999999999, 20.655 14.280000000000001, 20.52 13.32 C 20.43 12.39, 20.37 12.405, 20.34 11.459999999999999 C 20.369999999999997 10.5, 20.265 10.515, 20.4 9.540000000000001 C 20.64 8.55, 20.655 8.295, 20.88 7.5600000000000005 C 21.089999999999996 7.08, 21.029999999999998 7.095000000000001, 21.299999999999997 6.6000000000000005 C 21.63 6.09, 21.509999999999998 6.0600000000000005, 21.96 5.58 C 22.53 5.13, 22.560000000000002 4.904999999999999, 23.1 4.68 C 23.61 4.68, 23.775 4.68, 24.119999999999997 4.68 C 24.299999999999997 4.68, 24.285 4.635, 24.48 4.68 C 24.69 4.77, 24.675 4.62, 24.900000000000002 4.86 C 25.14 5.25, 25.140000000000004 5.13, 25.380000000000003 5.64 C 25.62 6.27, 25.65 6.225, 25.86 6.8999999999999995 C 26.04 7.619999999999999, 26.04 7.395, 26.22 8.34 C 26.4 9.51, 26.445 9.555, 26.58 10.68 C 26.669999999999998 11.76, 26.669999999999998 11.745000000000001, 26.759999999999998 12.84 C 26.85 13.95, 26.895 13.979999999999999, 26.94 15.059999999999999 C 26.94 16.11, 26.94 16.02, 26.94 17.16 C 26.94 18.39, 26.94 18.315, 26.94 19.62 C 26.94 21, 27 20.924999999999997, 26.94 22.38 C 26.82 23.91, 26.835 24.225, 26.700000000000003 25.44 C 26.550000000000004 26.340000000000003, 26.520000000000003 26.565, 26.400000000000002 27.240000000000002 C 26.310000000000002 27.69, 26.52 27.48, 26.22 28.14 C 25.71 29.01, 25.740000000000002 29.040000000000003, 25.200000000000003 29.880000000000003 C 24.630000000000003 30.69, 24.63 30.78, 24.06 31.5 C 23.49 32.129999999999995, 23.415 32.25, 22.919999999999998 32.76 C 22.5 33.15, 22.575000000000003 33.105, 22.080000000000002 33.54 C 21.51 34.019999999999996, 21.435000000000002 34.125, 20.94 34.5 C 20.520000000000003 34.769999999999996, 20.355000000000004 34.86, 20.1 35.04 C 20.009999999999998 35.129999999999995, 19.965 35.175, 19.919999999999998 35.22 C 19.919999999999998 35.22, 19.935 35.205, 19.919999999999998 35.22 C 19.89 35.25, 19.785 35.235, 19.86 35.28 C 20.04 35.34, 19.65 35.43000000000001, 20.22 35.400000000000006 C 21.18 35.28, 21.405 35.220000000000006, 22.14 35.160000000000004 C 22.65 35.160000000000004, 22.605 35.160000000000004, 23.16 35.160000000000004 C 23.759999999999998 35.160000000000004, 23.775 35.07000000000001, 24.36 35.160000000000004 C 24.93 35.34, 25.005000000000003 35.22, 25.5 35.519999999999996 C 25.919999999999998 35.94, 25.844999999999995 35.864999999999995, 26.339999999999996 36.36 C 26.909999999999997 36.93, 27.06 36.96, 27.48 37.5 C 27.75 38.01, 27.855 38.03999999999999, 28.02 38.519999999999996 C 28.08 38.97, 28.125 38.925, 28.14 39.42 C 28.11 39.96, 28.259999999999998 39.93, 28.08 40.5 C 27.75 41.1, 27.705000000000002 41.235, 27.42 41.7 C 27.18 42.03, 27.270000000000003 42, 26.94 42.36 C 26.52 42.75, 26.7 42.78, 26.099999999999998 43.14 C 25.32 43.47, 25.29 43.635, 24.54 43.8 C 23.82 43.8, 23.700000000000003 43.89, 23.1 43.8 C 22.62 43.62, 22.425 43.53, 22.14 43.44 C 22.05 43.44, 22.11 43.485, 21.96 43.44 C 21.75 43.349999999999994, 21.75 43.349999999999994, 21.54 43.26 L 21.12 43.08" fill="none" stroke="black" stroke-width="2"></path></svg>