<svg width="48" height="48" viewBox="0 0 48 48" xmlns="http://www.w3.org/2000/svg"><path d="M 14.34 25.08 C 14.01 24.959999999999997, 13.98 25.229999999999997, 13.68 24.839999999999996 C 13.41 24.18, 13.275 24.044999999999998, 13.14 23.52 C 13.14 23.130000000000003, 13.185 23.130000000000003, 13.14 22.740000000000002 C 13.05 22.35, 13.005 22.380000000000003, 12.96 21.96 C 12.96 21.509999999999998, 12.96 21.645, 12.96 21.06 C 12.96 20.34, 12.93 20.25, 12.96 19.62 C 13.020000000000001 19.08, 13.035000000000002 18.93, 13.080000000000002 18.54 C 13.110000000000001 18.299999999999997, 13.065000000000001 18.404999999999998, 13.14 18.06 C 13.26 17.61, 13.184999999999999 17.625, 13.379999999999999 17.16 C 13.649999999999999 16.68, 13.724999999999998 16.53, 13.919999999999998 16.200000000000003 C 14.04 16.020000000000003, 13.934999999999999 16.035, 14.16 15.84 C 14.49 15.629999999999999, 14.46 15.554999999999998, 14.82 15.419999999999998 C 15.21 15.36, 14.970000000000002 15.419999999999998, 15.600000000000001 15.299999999999999 C 16.47 15.120000000000001, 16.5 15.075000000000001, 17.34 14.940000000000001 C 18.15 14.850000000000001, 18.27 14.805, 18.96 14.76 C 19.53 14.76, 19.545 14.76, 20.1 14.76 C 20.64 14.76, 20.445 14.715, 21.18 14.76 C 22.11 14.850000000000001, 22.02 14.850000000000001, 23.04 14.940000000000001 C 24.15 15.030000000000001, 24.33 14.985000000000001, 25.259999999999998 15.120000000000001 C 26.009999999999998 15.3, 26.144999999999996 15.345, 26.759999999999998 15.48 C 27.24 15.57, 27.18 15.615, 27.72 15.66 C 28.32 15.66, 28.455000000000002 15.615, 28.92 15.66 L 29.58 15.84" fill="none" stroke="black" stroke-width="2"></path><path d="M 30.78 10.620000000000001 C 30 10.920000000000002, 30.104999999999997 10.920000000000002, 29.22 11.22 C 28.23 11.52, 28.14 11.67, 27.240000000000002 11.82 C 26.43 11.82, 26.474999999999998 11.835, 25.619999999999997 11.82 C 24.72 11.79, 24.6 12.015, 23.82 11.76 C 23.16 11.280000000000001, 23.04 11.385000000000002, 22.5 10.8 C 22.08 10.11, 21.884999999999998 10.005, 21.66 9.42 C 21.630000000000003 8.94, 21.525000000000002 9.149999999999999, 21.6 8.459999999999999 C 21.78 7.56, 21.615000000000002 7.47, 21.96 6.66 C 22.47 5.9399999999999995, 22.35 5.91, 22.98 5.22 C 23.73 4.5600000000000005, 23.85 4.365, 24.48 3.9000000000000004 C 24.990000000000002 3.6300000000000003, 24.93 3.5550000000000006, 25.5 3.3600000000000003 C 26.13 3.24, 26.174999999999997 3.12, 26.759999999999998 3.12 C 27.299999999999997 3.24, 27.269999999999996 3.0150000000000006, 27.839999999999996 3.3600000000000003 C 28.439999999999998 3.93, 28.619999999999997 4.005, 29.04 4.5 C 29.28 4.92, 29.265 4.62, 29.52 5.34 C 29.79 6.359999999999999, 29.924999999999997 6.255, 30.06 7.38 C 30.06 8.61, 30.06 8.61, 30.06 9.84 C 30.06 11.07, 30.06 11.19, 30.06 12.299999999999999 C 30.06 13.29, 30.119999999999997 12.944999999999999, 30.06 14.28 C 29.939999999999998 15.96, 30.09 15.825000000000001, 29.82 17.64 C 29.4 19.59, 29.325 19.845, 28.98 21.54 C 28.71 22.98, 28.62 23.295, 28.44 24.42 C 28.35 25.23, 28.319999999999997 25.560000000000002, 28.259999999999998 26.04 C 28.23 26.189999999999998, 28.215000000000003 26.264999999999997, 28.200000000000003 26.339999999999996 L 28.200000000000003 26.339999999999996" fill="none" stroke="black" stroke-width="2"></path><path d="M 10.32 42.06 C 10.5 42.21, 10.215 42.36, 10.68 42.36 C 11.43 42.21, 11.204999999999998 42.525000000000006, 12.18 42.06 C 13.38 41.28, 13.500000000000002 41.415, 14.580000000000002 40.5 C 15.540000000000001 39.45, 15.675 39.45, 16.5 38.400000000000006 C 17.189999999999998 37.35, 17.294999999999998 37.335, 17.88 36.3 C 18.36 35.28, 18.405 35.355, 18.84 34.26 C 19.23 33.09, 19.185000000000002 33.375, 19.62 31.92 C 20.1 30.18, 20.19 30.21, 20.580000000000002 28.44 C 20.880000000000003 26.64, 20.985 26.354999999999997, 21.18 24.839999999999996 C 21.27 23.61, 21.27 23.669999999999998, 21.36 22.38 C 21.45 21.03, 21.494999999999997 20.685, 21.54 19.68 C 21.54 19.02, 21.54 19.11, 21.54 18.36 C 21.54 17.52, 21.54 17.369999999999997, 21.54 16.68 C 21.54 16.14, 21.54 15.915000000000003, 21.54 15.600000000000001 C 21.54 15.51, 21.54 15.465, 21.54 15.419999999999998 C 21.54 15.419999999999998, 21.54 15.419999999999998, 21.54 15.419999999999998 L 21.54 15.419999999999998" fill="none" stroke="black" stroke-width="2"></path><path d="M 20.700000000000003 28.44 C 20.61 29.67, 20.565 29.415000000000003, 20.52 30.900000000000002 C 20.52 32.64, 20.49 33.015, 20.52 34.38 C 20.58 35.370000000000005, 20.4 35.205, 20.64 36.36 C 21.060000000000002 37.68, 20.895 37.8, 21.48 39 C 22.23 40.08, 22.17 40.245000000000005, 22.98 41.160000000000004 C 23.85 41.910000000000004, 23.88 42.075, 24.72 42.660000000000004 C 25.529999999999998 43.08, 25.664999999999996 43.2, 26.339999999999996 43.5 C 26.88 43.68, 27.15 43.769999999999996, 27.42 43.86 C 27.42 43.86, 27.42 43.86, 27.42 43.86 L 27.42 43.86" fill="none" stroke="black" stroke-width="2"></path></svg>