<svg width="48" height="48" viewBox="0 0 48 48" xmlns="http://www.w3.org/2000/svg"><path d="M 12.299999999999999 32.04 C 12.09 31.35, 12.03 31.320000000000004, 11.879999999999999 30.660000000000004 C 11.79 30.03, 11.82 30.21, 11.7 29.400000000000002 C 11.549999999999999 28.410000000000004, 11.474999999999998 28.35, 11.399999999999999 27.42 C 11.399999999999999 26.55, 11.444999999999999 26.61, 11.399999999999999 25.68 C 11.309999999999999 24.69, 11.370000000000001 24.51, 11.22 23.700000000000003 C 11.010000000000002 23.07, 10.920000000000002 23.145000000000003, 10.8 22.44 C 10.77 21.66, 10.695 21.48, 10.74 20.88 C 10.86 20.46, 10.605 20.564999999999998, 10.98 20.04 C 11.61 19.41, 11.625 19.275000000000002, 12.24 18.78 C 12.84 18.42, 12.840000000000002 18.27, 13.440000000000001 18.06 C 14.040000000000001 18, 13.920000000000002 17.97, 14.64 17.94 C 15.48 17.94, 15.195 17.895000000000003, 16.32 17.94 C 17.73 18.03, 17.895000000000003 18.03, 19.14 18.12 C 20.22 18.21, 20.129999999999995 18.209999999999997, 21.299999999999997 18.299999999999997 C 22.56 18.39, 22.799999999999997 18.435, 23.82 18.48 C 24.6 18.48, 24.990000000000002 18.48, 25.380000000000003 18.48 C 25.380000000000003 18.48, 25.380000000000003 18.48, 25.380000000000003 18.48 C 25.380000000000003 18.48, 25.380000000000003 18.48, 25.380000000000003 18.48 C 25.380000000000003 18.48, 25.380000000000003 18.48, 25.380000000000003 18.48 L 25.380000000000003 18.48" fill="none" stroke="black" stroke-width="2"></path><path d="M 25.98 11.879999999999999 C 25.5 12.149999999999999, 25.935 12.194999999999999, 25.02 12.419999999999998 C 23.67 12.599999999999998, 23.58 12.69, 22.32 12.78 C 21.15 12.78, 20.925 12.809999999999999, 19.98 12.78 C 19.259999999999998 12.719999999999999, 19.169999999999998 12.855, 18.54 12.66 C 18 12.33, 18 12.525, 17.46 12 C 16.92 11.280000000000001, 16.665 11.175, 16.38 10.56 C 16.35 10.05, 16.365 10.215000000000002, 16.32 9.540000000000001 C 16.26 8.700000000000001, 16.080000000000005 8.700000000000001, 16.200000000000003 7.86 C 16.5 7.02, 16.349999999999998 6.99, 16.799999999999997 6.18 C 17.4 5.4, 17.43 5.16, 18 4.62 C 18.54 4.32, 18.480000000000004 4.245000000000001, 19.080000000000002 4.0200000000000005 C 19.740000000000002 3.87, 19.575 3.7649999999999997, 20.4 3.7199999999999998 C 21.39 3.78, 21.584999999999997 3.66, 22.38 3.84 C 22.98 4.14, 23.07 4.079999999999999, 23.580000000000002 4.4399999999999995 C 24 4.859999999999999, 24.060000000000002 4.725, 24.42 5.28 C 24.72 5.970000000000001, 24.825 5.82, 25.02 6.66 C 25.11 7.65, 25.155 7.305000000000001, 25.200000000000003 8.64 C 25.200000000000003 10.32, 25.200000000000003 10.530000000000001, 25.200000000000003 12 C 25.200000000000003 13.26, 25.200000000000003 12.765, 25.200000000000003 14.52 C 25.200000000000003 16.77, 25.200000000000003 17.025, 25.200000000000003 19.02 C 25.200000000000003 20.759999999999998, 25.200000000000003 21.03, 25.200000000000003 22.5 C 25.200000000000003 23.700000000000003, 25.200000000000003 23.955000000000002, 25.200000000000003 24.900000000000002 C 25.200000000000003 25.590000000000003, 25.200000000000003 25.755000000000003, 25.200000000000003 26.28 C 25.200000000000003 26.64, 25.200000000000003 26.55, 25.200000000000003 27 C 25.200000000000003 27.54, 25.200000000000003 27.54, 25.200000000000003 28.08 C 25.200000000000003 28.62, 25.200000000000003 28.695000000000004, 25.200000000000003 29.160000000000004 C 25.200000000000003 29.550000000000004, 25.200000000000003 29.700000000000003, 25.200000000000003 29.94 L 25.200000000000003 30.119999999999997" fill="none" stroke="black" stroke-width="2"></path><path d="M 18.66 17.4 C 18.54 17.79, 18.525 17.61, 18.419999999999998 18.18 C 18.33 18.93, 18.39 18.689999999999998, 18.240000000000002 19.68 C 18.03 20.91, 18.015 20.745, 17.82 22.14 C 17.64 23.7, 17.505000000000003 23.729999999999997, 17.46 25.259999999999998 C 17.55 26.759999999999998, 17.37 26.834999999999997, 17.64 28.259999999999998 C 18.09 29.61, 18.134999999999998 30.03, 18.54 30.96 C 18.9 31.47, 18.735 31.425, 19.259999999999998 31.98 C 19.95 32.58, 19.77 32.595, 20.64 33.18 C 21.69 33.75, 21.630000000000003 33.855000000000004, 22.740000000000002 34.32 C 23.91 34.68, 24.075 34.754999999999995, 25.08 35.04 C 25.919999999999998 35.25, 26.144999999999996 35.25, 26.759999999999998 35.46 C 27.15 35.67, 27.134999999999998 35.565000000000005, 27.54 35.88 C 27.96 36.3, 28.155 36.315, 28.380000000000003 36.72 C 28.410000000000004 37.11, 28.425 37.230000000000004, 28.44 37.5 C 28.44 37.65, 28.470000000000002 37.65, 28.44 37.8 C 28.380000000000003 37.949999999999996, 28.635 37.94999999999999, 28.32 38.099999999999994 C 27.75 38.25, 28.035 38.295, 27.18 38.400000000000006 C 26.04 38.46, 26.040000000000003 38.43, 24.900000000000002 38.519999999999996 C 23.76 38.64, 23.880000000000003 38.535, 22.62 38.76 C 21.240000000000002 39.09, 21.195 39.015, 19.86 39.42 C 18.57 39.900000000000006, 18.495 39.765, 17.28 40.38 C 16.14 41.13, 15.825 41.145, 15 41.88 C 14.49 42.6, 14.43 42.510000000000005, 13.98 43.32 C 13.59 44.22, 13.395000000000001 44.4, 13.200000000000001 45.12 C 13.200000000000001 45.66, 13.200000000000001 45.93, 13.200000000000001 46.2 C 13.200000000000001 46.2, 13.200000000000001 46.2, 13.200000000000001 46.2 L 13.200000000000001 46.2" fill="none" stroke="black" stroke-width="2"></path></svg>