<svg width="48" height="48" viewBox="0 0 48 48" xmlns="http://www.w3.org/2000/svg"><path d="M 12.66 35.94 C 13.53 35.73, 13.575 35.565, 14.399999999999999 35.519999999999996 C 15.18 35.64, 15.225000000000001 35.504999999999995, 15.96 35.76 C 16.65 36.15, 16.785 36.089999999999996, 17.34 36.54 C 17.759999999999998 37.05, 17.79 36.975, 18.18 37.56 C 18.54 38.22, 18.674999999999997 38.115, 18.9 38.88 C 18.990000000000002 39.75, 19.080000000000002 39.81, 19.080000000000002 40.62 C 18.990000000000002 41.37, 19.244999999999997 41.294999999999995, 18.9 42.12 C 18.3 43.019999999999996, 18.345000000000002 43.2, 17.700000000000003 43.92 C 17.01 44.46, 16.785 44.685, 16.32 45 C 16.08 45.09, 16.185 45.135, 15.84 45.18 C 15.39 45.18, 15.360000000000001 45.195, 14.940000000000001 45.18 C 14.55 45.15, 14.505 45.254999999999995, 14.16 45.12 C 13.86 44.879999999999995, 13.814999999999998 45.045, 13.559999999999999 44.64 C 13.35 44.07, 13.29 44.22, 13.14 43.5 C 13.05 42.629999999999995, 13.080000000000002 42.525, 12.96 41.76 C 12.81 41.099999999999994, 12.825000000000001 41.129999999999995, 12.66 40.44 C 12.48 39.72, 12.434999999999999 39.629999999999995, 12.299999999999999 39 C 12.21 38.46, 12.165000000000001 38.505, 12.120000000000001 37.92 C 12.120000000000001 37.290000000000006, 12.120000000000001 37.290000000000006, 12.120000000000001 36.660000000000004 C 12.120000000000001 36.03, 12.120000000000001 36.120000000000005, 12.120000000000001 35.400000000000006 C 12.120000000000001 34.59, 12.120000000000001 34.575, 12.120000000000001 33.78 C 12.120000000000001 33, 12.120000000000001 33.075, 12.120000000000001 32.22 C 12.120000000000001 31.29, 12.120000000000001 31.064999999999998, 12.120000000000001 30.36 C 12.120000000000001 29.880000000000003, 12.105 29.94, 12.120000000000001 29.400000000000002 C 12.15 28.800000000000004, 12.135 28.815000000000005, 12.18 28.200000000000003 C 12.239999999999998 27.57, 12.224999999999998 27.525000000000002, 12.299999999999999 26.94 C 12.39 26.4, 12.345 26.415, 12.48 25.86 C 12.66 25.29, 12.675 25.2, 12.84 24.72 C 12.99 24.33, 12.84 24.375, 13.14 23.94 C 13.59 23.46, 13.53 23.400000000000002, 14.04 22.98 C 14.61 22.619999999999997, 14.625 22.439999999999998, 15.18 22.259999999999998 C 15.719999999999999 22.259999999999998, 15.719999999999999 22.304999999999996, 16.259999999999998 22.259999999999998 C 16.799999999999997 22.17, 16.56 22.125, 17.34 22.080000000000002 C 18.36 22.080000000000002, 18.15 22.080000000000002, 19.38 22.080000000000002 C 20.82 22.080000000000002, 20.955 22.080000000000002, 22.259999999999998 22.080000000000002 C 23.43 22.080000000000002, 23.294999999999998 22.080000000000002, 24.599999999999998 22.080000000000002 C 26.04 22.080000000000002, 26.16 22.14, 27.48 22.080000000000002 C 28.68 21.96, 28.815 21.975, 29.880000000000003 21.84 C 30.810000000000002 21.689999999999998, 31.125000000000004 21.615, 31.740000000000002 21.54 C 32.04 21.54, 32.19 21.54, 32.339999999999996 21.54 L 32.339999999999996 21.54" fill="none" stroke="black" stroke-width="2"></path><path d="M 31.619999999999997 14.879999999999999 C 31.589999999999996 15.03, 31.68 15, 31.56 15.18 C 31.35 15.39, 31.59 15.39, 31.14 15.600000000000001 C 30.45 15.81, 30.525 15.87, 29.759999999999998 16.02 C 28.919999999999998 16.11, 28.814999999999998 16.215000000000003, 28.08 16.200000000000003 C 27.45 16.080000000000002, 27.345 16.11, 26.82 15.96 C 26.4 15.780000000000001, 26.384999999999998 16.095000000000002, 25.98 15.600000000000001 C 25.590000000000003 14.790000000000001, 25.470000000000002 14.685, 25.200000000000003 13.98 C 25.050000000000004 13.379999999999999, 24.975 13.5, 24.900000000000002 12.78 C 24.900000000000002 11.940000000000001, 24.810000000000002 11.850000000000001, 24.900000000000002 11.100000000000001 C 25.08 10.440000000000001, 24.99 10.32, 25.259999999999998 9.78 C 25.619999999999997 9.36, 25.56 9.299999999999999, 25.98 8.94 C 26.46 8.64, 26.385 8.52, 26.94 8.34 C 27.57 8.280000000000001, 27.765000000000004 8.25, 28.200000000000003 8.22 C 28.44 8.22, 28.41 8.22, 28.68 8.22 C 28.98 8.22, 29.025 8.010000000000002, 29.28 8.22 C 29.490000000000002 8.64, 29.430000000000003 8.565000000000001, 29.700000000000003 9.06 C 30.03 9.629999999999999, 30.075000000000003 9.57, 30.36 10.2 C 30.599999999999998 10.89, 30.584999999999994 10.905000000000001, 30.839999999999996 11.58 C 31.11 12.239999999999998, 31.14 12.194999999999999, 31.380000000000003 12.899999999999999 C 31.59 13.649999999999999, 31.619999999999997 13.604999999999997, 31.799999999999997 14.399999999999999 C 31.949999999999996 15.24, 31.979999999999993 15.225000000000001, 32.099999999999994 16.080000000000002 C 32.19 16.950000000000003, 32.235 16.515, 32.28 17.82 C 32.28 19.56, 32.28 19.784999999999997, 32.28 21.299999999999997 C 32.28 22.589999999999996, 32.28 22.634999999999998, 32.28 23.88 C 32.28 25.08, 32.28 25.05, 32.28 26.28 C 32.28 27.54, 32.28 27.54, 32.28 28.799999999999997 C 32.28 30.06, 32.355000000000004 29.79, 32.28 31.32 C 32.13 33.120000000000005, 32.145 33.285000000000004, 31.98 34.92 C 31.799999999999997 36.39, 31.784999999999997 36.75, 31.619999999999997 37.86 C 31.47 38.61, 31.439999999999998 38.76, 31.32 39.36 C 31.23 39.81, 31.215 39.75, 31.14 40.26 C 31.08 40.83, 31.14 40.785000000000004, 31.02 41.400000000000006 C 30.840000000000003 42.06, 30.795 42.24, 30.660000000000004 42.72 C 30.57 43.019999999999996, 30.525000000000002 43.17, 30.48 43.32 C 30.48 43.32, 30.555 43.26, 30.48 43.32 L 30.18 43.56" fill="none" stroke="black" stroke-width="2"></path></svg>