<svg width="48" height="48" viewBox="0 0 48 48" xmlns="http://www.w3.org/2000/svg"><path d="M 15.54 29.52 C 15.36 29.04, 15.524999999999999 29.625, 15.18 28.56 C 14.67 26.909999999999997, 14.58 26.924999999999997, 14.16 25.259999999999998 C 13.83 23.58, 13.785 23.4, 13.5 21.9 C 13.26 20.58, 13.155 20.4, 13.02 19.259999999999998 C 12.99 18.299999999999997, 12.975000000000001 18.165, 12.96 17.34 C 12.96 16.65, 12.915000000000001 16.545, 12.96 15.96 C 13.05 15.48, 13.05 15.315, 13.14 15 C 13.23 14.850000000000001, 13.08 14.895000000000001, 13.32 14.700000000000001 C 13.71 14.46, 13.740000000000002 14.370000000000001, 14.100000000000001 14.22 C 14.43 14.16, 14.46 13.995000000000001, 14.76 14.100000000000001 C 15.03 14.370000000000001, 15.014999999999999 14.265, 15.299999999999999 14.64 C 15.599999999999998 15.120000000000001, 15.584999999999999 14.940000000000001, 15.899999999999999 15.600000000000001 C 16.229999999999997 16.44, 16.154999999999998 16.065, 16.56 17.28 C 17.04 18.87, 17.174999999999997 19.095, 17.52 20.46 C 17.73 21.6, 17.805 22.005000000000003, 17.94 22.740000000000002 C 18 23.07, 18.03 23.235, 18.06 23.4 C 18.06 23.4, 18.06 23.474999999999998, 18.06 23.4 C 18.06 23.25, 18.014999999999997 23.76, 18.06 23.1 C 18.15 21.93, 18.105 21.96, 18.240000000000002 20.759999999999998 C 18.42 19.529999999999998, 18.465000000000003 19.409999999999997, 18.6 18.299999999999997 C 18.69 17.31, 18.615000000000002 17.13, 18.78 16.32 C 19.02 15.69, 18.93 15.584999999999999, 19.259999999999998 15.059999999999999 C 19.68 14.64, 19.77 14.49, 20.1 14.22 C 20.340000000000003 14.100000000000001, 20.295 14.01, 20.580000000000002 13.98 C 20.910000000000004 14.040000000000001, 20.865000000000002 13.935000000000002, 21.240000000000002 14.100000000000001 C 21.660000000000004 14.370000000000001, 21.720000000000002 14.385000000000002, 22.080000000000002 14.64 C 22.380000000000003 14.88, 22.2 14.775000000000002, 22.68 15.120000000000001 C 23.34 15.57, 23.13 15.600000000000001, 24 16.02 C 25.080000000000002 16.409999999999997, 25.125000000000004 16.589999999999996, 26.160000000000004 16.799999999999997 C 27.150000000000002 16.83, 27.405 16.845, 28.14 16.86 C 28.619999999999997 16.86, 28.574999999999996 17.025, 29.099999999999998 16.86 C 29.67 16.53, 29.85 16.605000000000004, 30.240000000000002 16.200000000000003 C 30.450000000000003 15.720000000000002, 30.510000000000005 15.810000000000002, 30.660000000000004 15.24 C 30.75 14.579999999999998, 30.749999999999996 14.849999999999998, 30.839999999999996 13.919999999999998 C 30.93 12.719999999999999, 31.02 12.674999999999999, 31.02 11.52 C 30.93 10.41, 31.064999999999998 10.530000000000001, 30.839999999999996 9.3 C 30.479999999999997 7.950000000000001, 30.434999999999995 7.515000000000001, 30.119999999999997 6.6000000000000005 C 29.849999999999998 6.12, 29.924999999999997 6.015, 29.58 5.64 C 29.16 5.369999999999999, 29.145000000000003 5.25, 28.740000000000002 5.1 C 28.35 5.07, 28.335 5.025, 27.96 5.04 C 27.6 5.1, 27.660000000000004 5.025, 27.240000000000002 5.16 C 26.76 5.37, 26.685000000000002 5.3100000000000005, 26.28 5.58 C 25.95 5.91, 26.084999999999997 5.775, 25.619999999999997 6.24 C 25.02 6.84, 24.93 6.8549999999999995, 24.42 7.4399999999999995 C 24 8.01, 23.895000000000003 7.95, 23.580000000000002 8.58 C 23.37 9.27, 23.355 9.299999999999999, 23.16 9.959999999999999 C 22.979999999999997 10.59, 22.934999999999995 10.35, 22.799999999999997 11.22 C 22.71 12.330000000000002, 22.665 12.105000000000002, 22.62 13.440000000000001 C 22.62 15, 22.62 15.165, 22.62 16.56 C 22.62 17.79, 22.560000000000002 17.91, 22.62 19.02 C 22.740000000000002 20.009999999999998, 22.725 20.13, 22.86 21 C 23.009999999999998 21.75, 23.04 21.705, 23.16 22.5 C 23.25 23.34, 23.205 23.265, 23.34 24.18 C 23.520000000000003 25.17, 23.610000000000003 25.065000000000005, 23.700000000000003 26.160000000000004 C 23.700000000000003 27.36, 23.700000000000003 27.674999999999997, 23.700000000000003 28.56 C 23.700000000000003 29.130000000000003, 23.700000000000003 28.980000000000004, 23.700000000000003 29.700000000000003 C 23.700000000000003 30.57, 23.700000000000003 30.51, 23.700000000000003 31.44 C 23.700000000000003 32.43, 23.730000000000004 32.565000000000005, 23.700000000000003 33.42 C 23.64 34.14, 23.67 34.2, 23.580000000000002 34.86 C 23.46 35.46, 23.595 35.34, 23.34 36.06 C 22.95 36.900000000000006, 23.07 36.975, 22.56 37.74 C 21.93 38.43, 21.869999999999997 38.519999999999996, 21.299999999999997 39.12 C 20.79 39.629999999999995, 20.865000000000002 39.6, 20.28 40.14 C 19.62 40.71, 19.71 40.725, 18.96 41.28 C 18.12 41.82, 17.805 42, 17.28 42.36 C 17.07 42.54, 16.965 42.629999999999995, 16.86 42.72 C 16.86 42.72, 16.86 42.72, 16.86 42.72 L 16.86 42.72" fill="none" stroke="black" stroke-width="2"></path><path d="M 24 28.98 C 24 29.73, 23.97 29.745, 24 30.48 C 24.06 31.200000000000003, 23.924999999999997 31.305000000000003, 24.119999999999997 31.92 C 24.45 32.43, 24.3 32.099999999999994, 24.78 32.94 C 25.41 34.11, 25.53 34.32, 26.04 35.28 C 26.43 36.03, 26.310000000000002 36.105000000000004, 26.82 36.78 C 27.45 37.38, 27.375 37.53, 28.08 37.980000000000004 C 28.86 38.28, 28.86 38.295, 29.64 38.58 C 30.42 38.849999999999994, 30.375000000000004 38.985, 31.200000000000003 39.12 C 32.07 39.12, 32.415 39.12, 32.94 39.12 C 33.12 39.12, 33.17999999999999 39.12, 33.3 39.12 C 33.36 39.12, 33.39 39.12, 33.42 39.12 C 33.42 39.12, 33.375 39.12, 33.42 39.12 L 33.599999999999994 39.12" fill="none" stroke="black" stroke-width="2"></path></svg>