<svg width="48" height="48" viewBox="0 0 48 48" xmlns="http://www.w3.org/2000/svg"><path d="M 14.52 26.94 C 14.76 27.060000000000002, 14.16 27.075, 15 27.18 C 16.439999999999998 27.27, 16.02 27.314999999999998, 17.88 27.36 C 20.16 27.36, 20.43 27.314999999999998, 22.44 27.36 C 24.18 27.45, 24.615000000000002 27.45, 25.92 27.54 C 26.790000000000003 27.63, 27.000000000000004 27.674999999999997, 27.660000000000004 27.72 C 28.11 27.72, 28.14 27.72, 28.56 27.72 C 28.949999999999996 27.72, 28.934999999999995 27.81, 29.339999999999996 27.72 C 29.759999999999998 27.54, 29.64 27.705, 30.18 27.36 C 30.84 26.849999999999998, 31.005 26.759999999999998, 31.5 26.339999999999996 C 31.830000000000002 26.009999999999998, 31.845000000000006 26.099999999999998, 32.160000000000004 25.68 C 32.46 25.17, 32.504999999999995 25.470000000000002, 32.76 24.660000000000004 C 32.97 23.550000000000004, 33.045 23.82, 33.18 22.44 C 33.239999999999995 20.79, 33.269999999999996 20.880000000000003, 33.3 19.14 C 33.3 17.310000000000002, 33.3 16.92, 33.3 15.48 C 33.3 14.43, 33.404999999999994 14.684999999999999, 33.3 13.379999999999999 C 33.09 11.82, 33.09 11.504999999999999, 32.88 10.26 C 32.67 9.329999999999998, 32.715 9.314999999999998, 32.46 8.399999999999999 C 32.16 7.5, 32.144999999999996 7.335, 31.86 6.6000000000000005 C 31.59 6.03, 31.65 5.955, 31.32 5.46 C 30.93 5.04, 31.02 4.98, 30.54 4.62 C 29.97 4.32, 30.03 4.17, 29.400000000000002 4.0200000000000005 C 28.71 4.0200000000000005, 28.740000000000002 3.9450000000000003, 28.02 4.0200000000000005 C 27.27 4.17, 27.134999999999998 4.065, 26.52 4.32 C 26.04 4.68, 26.055 4.455, 25.56 5.04 C 25.049999999999997 5.85, 24.93 5.88, 24.54 6.66 C 24.27 7.41, 24.134999999999998 7.5, 24 8.16 C 24 8.73, 23.88 8.700000000000001, 24 9.3 C 24.240000000000002 9.93, 24.134999999999998 9.915000000000001, 24.48 10.56 C 24.93 11.219999999999999, 24.900000000000002 11.249999999999998, 25.380000000000003 11.879999999999999 C 25.89 12.48, 25.770000000000003 12.555000000000001, 26.400000000000002 13.080000000000002 C 27.150000000000002 13.530000000000001, 27.270000000000003 13.665000000000001, 27.900000000000002 13.98 C 28.410000000000004 14.16, 28.335 14.25, 28.92 14.34 C 29.580000000000002 14.34, 29.685000000000002 14.34, 30.240000000000002 14.34 C 30.69 14.34, 30.72 14.34, 31.14 14.34 C 31.53 14.34, 31.575000000000003 14.34, 31.92 14.34 C 32.22 14.34, 32.25 14.355, 32.519999999999996 14.34 C 32.76 14.309999999999999, 32.879999999999995 14.295, 33 14.28 C 33 14.28, 33 14.28, 33 14.28 C 33 14.28, 33 14.28, 33 14.28 C 33 14.28, 33 14.28, 33 14.28 C 33 14.28, 33 14.28, 33 14.28 C 33 14.28, 33 14.28, 33 14.28 C 33 14.28, 32.925 14.28, 33 14.28 C 33.15 14.28, 33.224999999999994 14.28, 33.3 14.28 C 33.3 14.28, 33.3 14.28, 33.3 14.28 L 33.3 14.28" fill="none" stroke="black" stroke-width="2"></path><path d="M 24.119999999999997 28.799999999999997 C 24.06 29.31, 24.03 29.16, 24 29.82 C 24 30.630000000000003, 23.865000000000002 30.6, 24 31.44 C 24.27 32.31, 24.165 32.445, 24.54 33.18 C 25.02 33.78, 24.975 33.870000000000005, 25.5 34.38 C 26.07 34.8, 25.89 34.785, 26.64 35.22 C 27.57 35.67, 27.615000000000002 35.775, 28.5 36.12 C 29.34 36.36, 29.595 36.419999999999995, 30.18 36.599999999999994 C 30.509999999999998 36.72, 30.674999999999997 36.779999999999994, 30.839999999999996 36.839999999999996 C 30.839999999999996 36.839999999999996, 30.839999999999996 36.839999999999996, 30.839999999999996 36.839999999999996 C 30.839999999999996 36.839999999999996, 30.794999999999995 36.735, 30.839999999999996 36.839999999999996 C 30.93 37.05, 31.08 37.035, 31.02 37.26 C 30.81 37.5, 30.915 37.515, 30.599999999999998 37.74 C 30.18 37.95, 30.209999999999997 37.95, 29.759999999999998 38.160000000000004 C 29.279999999999998 38.370000000000005, 29.354999999999997 38.415, 28.799999999999997 38.58 C 28.169999999999998 38.7, 28.244999999999997 38.7, 27.54 38.82 C 26.759999999999998 38.94, 26.805 38.910000000000004, 25.98 39.06 C 25.11 39.24, 25.290000000000003 39.18000000000001, 24.240000000000002 39.42 C 23.01 39.72, 22.815 39.629999999999995, 21.78 40.019999999999996 C 20.94 40.5, 20.805 40.440000000000005, 20.1 40.980000000000004 C 19.53 41.58, 19.395000000000003 41.64, 18.96 42.18 C 18.66 42.66, 18.75 42.45, 18.36 43.14 C 17.88 44.04, 17.729999999999997 44.114999999999995, 17.4 44.94 C 17.22 45.69, 17.13 45.87, 17.04 46.44 C 17.04 46.83, 17.04 46.995, 17.04 47.22 C 17.04 47.28, 17.04 47.309999999999995, 17.04 47.339999999999996 L 17.04 47.339999999999996" fill="none" stroke="black" stroke-width="2"></path><path d="M 13.32 34.56 C 13.68 34.650000000000006, 13.5 34.425000000000004, 14.04 34.74 C 14.76 35.28, 14.655000000000001 35.145, 15.48 35.82 C 16.41 36.629999999999995, 16.5 36.69, 17.34 37.44 C 18.09 38.129999999999995, 18.465 38.475, 18.84 38.82 C 18.84 38.82, 18.765 38.7, 18.84 38.82 C 18.990000000000002 39.06, 18.990000000000002 39.089999999999996, 19.14 39.3 C 19.29 39.480000000000004, 19.335 39.495000000000005, 19.44 39.660000000000004 C 19.5 39.81, 19.424999999999997 39.75, 19.56 39.96 C 19.77 40.230000000000004, 19.875 40.365, 19.98 40.5 C 19.98 40.5, 19.98 40.5, 19.98 40.5 L 19.98 40.5" fill="none" stroke="black" stroke-width="2"></path></svg>