<svg width="48" height="48" viewBox="0 0 48 48" xmlns="http://www.w3.org/2000/svg"><path d="M 15.419999999999998 27.900000000000002 C 15.239999999999998 27.33, 15.284999999999998 27.735, 15.059999999999999 26.759999999999998 C 14.79 25.38, 14.7 25.035, 14.52 24 C 14.43 23.310000000000002, 14.385 23.25, 14.34 22.62 C 14.34 22.05, 14.34 21.885, 14.34 21.48 C 14.34 21.240000000000002, 14.309999999999999 21.240000000000002, 14.34 21 C 14.4 20.759999999999998, 14.325000000000001 20.7, 14.46 20.52 C 14.67 20.4, 14.459999999999999 20.37, 14.879999999999999 20.28 C 15.51 20.22, 15.375 20.25, 16.14 20.16 C 17.04 20.04, 17.085 19.979999999999997, 17.94 19.919999999999998 C 18.75 19.919999999999998, 18.509999999999998 19.919999999999998, 19.56 19.919999999999998 C 20.85 19.919999999999998, 21.075 19.919999999999998, 22.14 19.919999999999998 C 22.98 19.919999999999998, 23.085 19.919999999999998, 23.82 19.919999999999998 C 24.45 19.919999999999998, 24.33 19.919999999999998, 25.08 19.919999999999998 C 25.95 19.919999999999998, 26.085 19.919999999999998, 26.82 19.919999999999998 C 27.42 19.919999999999998, 27.405 19.935, 28.02 19.919999999999998 C 28.65 19.89, 28.89 19.935, 29.28 19.86 C 29.43 19.740000000000002, 29.369999999999997 19.89, 29.58 19.62 C 29.849999999999998 19.200000000000003, 29.819999999999997 19.32, 30.119999999999997 18.78 C 30.45 18.12, 30.6 17.985, 30.78 17.46 C 30.81 17.07, 30.764999999999997 17.13, 30.839999999999996 16.68 C 30.959999999999997 16.17, 30.989999999999995 16.35, 31.08 15.66 C 31.14 14.79, 31.17 14.79, 31.200000000000003 13.919999999999998 C 31.200000000000003 13.049999999999999, 31.215000000000003 12.975, 31.200000000000003 12.18 C 31.17 11.46, 31.230000000000004 11.370000000000001, 31.14 10.74 C 30.99 10.2, 30.989999999999995 10.095, 30.839999999999996 9.66 C 30.689999999999998 9.33, 30.75 9.33, 30.54 9 C 30.27 8.67, 30.36 8.7, 30 8.34 C 29.549999999999997 7.95, 29.445 7.845000000000001, 29.099999999999998 7.5600000000000005 C 28.86 7.38, 28.889999999999997 7.319999999999999, 28.619999999999997 7.199999999999999 C 28.32 7.14, 28.485 7.109999999999999, 28.02 7.08 C 27.39 7.08, 27.36 6.975, 26.759999999999998 7.08 C 26.189999999999998 7.29, 26.069999999999997 7.244999999999999, 25.619999999999997 7.5 C 25.29 7.800000000000001, 25.275 7.710000000000001, 24.96 8.100000000000001 C 24.66 8.580000000000002, 24.645 8.535, 24.36 9.06 C 24.09 9.629999999999999, 24.09 9.51, 23.82 10.2 C 23.55 11.01, 23.535000000000004 11.04, 23.28 11.82 C 23.04 12.57, 23.009999999999998 12.6, 22.799999999999997 13.32 C 22.619999999999997 14.010000000000002, 22.62 13.860000000000001, 22.44 14.700000000000001 C 22.26 15.690000000000001, 22.26 15.525, 22.080000000000002 16.68 C 21.9 18, 21.855 17.745, 21.72 19.32 C 21.63 21.15, 21.63 21.48, 21.54 22.98 C 21.45 24.15, 21.405 24.3, 21.36 25.32 C 21.36 26.189999999999998, 21.405 26.009999999999998, 21.36 27.06 C 21.27 28.29, 21.27 28.32, 21.18 29.52 C 21.09 30.689999999999998, 21.075 30.81, 21 31.86 C 20.939999999999998 32.79, 21 32.79, 20.88 33.72 C 20.7 34.65, 20.7 34.83, 20.52 35.58 C 20.34 36.15, 20.4 36.105, 20.16 36.72 C 19.86 37.379999999999995, 19.904999999999998 37.275, 19.56 38.04 C 19.17 38.91, 19.275 38.925, 18.78 39.78 C 18.18 40.620000000000005, 18.090000000000003 40.785, 17.580000000000002 41.46 C 17.160000000000004 41.97, 17.235000000000003 41.955000000000005, 16.740000000000002 42.480000000000004 C 16.17 43.02, 16.005000000000003 43.2, 15.600000000000001 43.56 C 15.360000000000001 43.74, 15.285 43.785000000000004, 15.120000000000001 43.92 C 15.030000000000001 44.01, 14.985000000000001 44.05499999999999, 14.940000000000001 44.099999999999994 C 14.940000000000001 44.099999999999994, 14.940000000000001 44.099999999999994, 14.940000000000001 44.099999999999994 L 14.940000000000001 44.099999999999994" fill="none" stroke="black" stroke-width="2"></path><path d="M 21.18 31.619999999999997 C 21.21 32.04, 21.060000000000002 31.814999999999998, 21.240000000000002 32.46 C 21.57 33.33, 21.555 33.330000000000005, 21.9 34.2 C 22.259999999999998 35.07, 22.29 35.16, 22.62 35.94 C 22.92 36.629999999999995, 22.905 36.644999999999996, 23.22 37.32 C 23.549999999999997 37.980000000000004, 23.415 37.965, 23.88 38.64 C 24.479999999999997 39.33, 24.449999999999996 39.495, 25.08 40.019999999999996 C 25.740000000000002 40.379999999999995, 25.8 40.410000000000004, 26.400000000000002 40.74 C 26.94 41.04, 26.685000000000002 40.949999999999996, 27.48 41.339999999999996 C 28.53 41.81999999999999, 28.904999999999998 42.01499999999999, 29.58 42.3 C 29.88 42.39, 29.985 42.435, 30.18 42.480000000000004 C 30.27 42.480000000000004, 30.314999999999998 42.480000000000004, 30.36 42.480000000000004 C 30.36 42.480000000000004, 30.33 42.480000000000004, 30.36 42.480000000000004 L 30.48 42.480000000000004" fill="none" stroke="black" stroke-width="2"></path></svg>