<svg width="48" height="48" viewBox="0 0 48 48" xmlns="http://www.w3.org/2000/svg"><path d="M 13.74 32.04 C 13.74 31.169999999999998, 13.785 31.349999999999998, 13.74 30.299999999999997 C 13.649999999999999 29.069999999999997, 13.604999999999999 29.114999999999995, 13.559999999999999 27.839999999999996 C 13.559999999999999 26.52, 13.559999999999999 26.19, 13.559999999999999 25.200000000000003 C 13.559999999999999 24.54, 13.559999999999999 24.405, 13.559999999999999 23.88 C 13.559999999999999 23.490000000000002, 13.469999999999999 23.505000000000003, 13.559999999999999 23.1 C 13.739999999999998 22.68, 13.529999999999998 22.799999999999997, 13.919999999999998 22.259999999999998 C 14.52 21.6, 14.535 21.42, 15.120000000000001 20.94 C 15.69 20.64, 15.749999999999998 20.535, 16.259999999999998 20.34 C 16.71 20.25, 16.56 20.19, 17.16 20.16 C 17.91 20.189999999999998, 17.58 20.115, 18.66 20.22 C 20.07 20.4, 19.995 20.490000000000002, 21.48 20.580000000000002 C 23.04 20.580000000000002, 23.354999999999997 20.580000000000002, 24.599999999999998 20.580000000000002 C 25.53 20.580000000000002, 25.740000000000002 20.580000000000002, 26.46 20.580000000000002 C 26.97 20.580000000000002, 27.03 20.580000000000002, 27.48 20.580000000000002 C 27.869999999999997 20.580000000000002, 27.884999999999998 20.580000000000002, 28.259999999999998 20.580000000000002 C 28.619999999999997 20.580000000000002, 28.605 20.610000000000003, 28.98 20.580000000000002 C 29.369999999999997 20.520000000000003, 29.43 20.55, 29.759999999999998 20.46 C 30.029999999999998 20.34, 29.999999999999996 20.4, 30.299999999999997 20.22 C 30.63 19.98, 30.630000000000003 20.07, 30.96 19.740000000000002 C 31.29 19.32, 31.335 19.365, 31.619999999999997 18.9 C 31.859999999999996 18.39, 31.919999999999995 18.405, 32.099999999999994 17.88 C 32.22 17.339999999999996, 32.279999999999994 17.264999999999997, 32.339999999999996 16.799999999999997 C 32.339999999999996 16.409999999999997, 32.339999999999996 16.485, 32.339999999999996 16.02 C 32.339999999999996 15.48, 32.44499999999999 15.555000000000001, 32.339999999999996 14.940000000000001 C 32.129999999999995 14.25, 32.31 14.354999999999999, 31.92 13.559999999999999 C 31.35 12.66, 31.275000000000002 12.48, 30.78 11.76 C 30.36 11.219999999999999, 30.360000000000003 11.175, 29.94 10.68 C 29.52 10.23, 29.52 10.184999999999999, 29.099999999999998 9.78 C 28.68 9.42, 28.724999999999998 9.375, 28.259999999999998 9.06 C 27.75 8.79, 27.645000000000003 8.655, 27.240000000000002 8.52 C 26.94 8.52, 26.94 8.52, 26.64 8.52 C 26.34 8.52, 26.31 8.385, 26.04 8.52 C 25.799999999999997 8.79, 25.875 8.715, 25.56 9.06 C 25.17 9.48, 25.095000000000002 9.434999999999999, 24.78 9.899999999999999 C 24.54 10.41, 24.525 10.469999999999999, 24.299999999999997 10.92 C 24.089999999999996 11.309999999999999, 24.089999999999996 11.159999999999998, 23.88 11.7 C 23.67 12.39, 23.715 12.240000000000002, 23.46 13.080000000000002 C 23.16 14.07, 23.115 14.07, 22.86 15.059999999999999 C 22.65 16.049999999999997, 22.635 15.989999999999998, 22.44 17.04 C 22.26 18.15, 22.245 18.06, 22.080000000000002 19.259999999999998 C 21.93 20.549999999999997, 21.96 20.189999999999998, 21.78 21.84 C 21.57 23.85, 21.509999999999998 24.06, 21.36 25.86 C 21.27 27.45, 21.225 27.765, 21.18 29.04 C 21.18 30, 21.18 29.700000000000003, 21.18 30.96 C 21.18 32.519999999999996, 21.18 32.625, 21.18 34.08 C 21.18 35.43, 21.18 35.52, 21.18 36.78 C 21.18 37.95, 21.18 38.084999999999994, 21.18 39.12 C 21.18 40.019999999999996, 21.18 40.005, 21.18 40.92 C 21.18 41.85, 21.18 41.97, 21.18 42.78 C 21.18 43.47, 21.18 43.815000000000005, 21.18 44.160000000000004 C 21.18 44.160000000000004, 21.18 44.160000000000004, 21.18 44.160000000000004 C 21.18 44.160000000000004, 21.18 44.13, 21.18 44.160000000000004 C 21.18 44.22, 21.18 44.205, 21.18 44.28 C 21.18 44.370000000000005, 21.165 44.295, 21.18 44.46 C 21.21 44.7, 21.225 44.82, 21.240000000000002 44.94 C 21.240000000000002 44.94, 21.240000000000002 44.94, 21.240000000000002 44.94 L 21.240000000000002 44.94" fill="none" stroke="black" stroke-width="2"></path></svg>