<svg width="48" height="48" viewBox="0 0 48 48" xmlns="http://www.w3.org/2000/svg"><path d="M 13.440000000000001 27.299999999999997 C 13.350000000000001 25.589999999999996, 13.305 25.394999999999996, 13.26 23.88 C 13.26 22.560000000000002, 13.305 22.635, 13.26 21.240000000000002 C 13.170000000000002 19.77, 13.125000000000002 19.679999999999996, 13.080000000000002 18.299999999999997 C 13.080000000000002 17.009999999999998, 12.990000000000002 16.785, 13.080000000000002 15.72 C 13.260000000000002 14.879999999999999, 13.290000000000003 14.625, 13.440000000000001 14.04 C 13.56 13.709999999999999, 13.515 13.709999999999999, 13.68 13.379999999999999 C 13.89 13.05, 13.755000000000003 12.99, 14.100000000000001 12.72 C 14.58 12.51, 14.579999999999998 12.375, 15.059999999999999 12.299999999999999 C 15.54 12.36, 15.66 12.284999999999998, 16.02 12.419999999999998 C 16.259999999999998 12.629999999999999, 16.23 12.524999999999999, 16.5 12.84 C 16.8 13.26, 16.755000000000003 12.93, 17.1 13.68 C 17.490000000000002 14.76, 17.46 14.355, 17.88 15.84 C 18.33 17.73, 18.435000000000002 18.09, 18.78 19.62 C 19.02 20.79, 19.14 21.075000000000003, 19.259999999999998 21.96 C 19.259999999999998 22.560000000000002, 19.259999999999998 22.86, 19.259999999999998 23.16 C 19.259999999999998 23.16, 19.259999999999998 23.295, 19.259999999999998 23.16 C 19.259999999999998 22.89, 19.259999999999998 23.415, 19.259999999999998 22.62 C 19.259999999999998 21.3, 19.169999999999998 21.42, 19.259999999999998 19.98 C 19.439999999999998 18.42, 19.455000000000002 18.134999999999998, 19.62 16.86 C 19.77 15.87, 19.83 15.479999999999999, 19.919999999999998 14.879999999999999 C 19.95 14.67, 19.875 14.73, 19.98 14.46 C 20.16 14.129999999999999, 20.13 14.07, 20.34 13.799999999999999 C 20.58 13.59, 20.505 13.529999999999998, 20.82 13.379999999999999 C 21.21 13.29, 21.165000000000003 13.155000000000001, 21.6 13.200000000000001 C 22.08 13.379999999999999, 22.155 13.35, 22.56 13.559999999999999 C 22.89 13.799999999999999, 22.77 13.709999999999999, 23.22 14.04 C 23.79 14.459999999999999, 23.595 14.25, 24.36 14.879999999999999 C 25.32 15.719999999999999, 25.23 15.779999999999998, 26.28 16.56 C 27.42 17.28, 27.57 17.52, 28.56 18 C 29.4 18.240000000000002, 29.55 18.36, 30.240000000000002 18.48 C 30.78 18.48, 30.795 18.69, 31.32 18.48 C 31.83 18.060000000000002, 31.934999999999995 18.21, 32.339999999999996 17.64 C 32.64 16.92, 32.714999999999996 16.890000000000004, 32.94 16.200000000000003 C 33.09 15.540000000000001, 33.075 15.855, 33.24 14.879999999999999 C 33.42 13.59, 33.51 13.424999999999999, 33.599999999999994 12.299999999999999 C 33.599999999999994 11.34, 33.82499999999999 11.534999999999998, 33.599999999999994 10.379999999999999 C 33.15 9.03, 33.120000000000005 8.67, 32.7 7.68 C 32.31 7.05, 32.415000000000006 7.02, 31.92 6.42 C 31.32 5.85, 31.185 5.640000000000001, 30.72 5.28 C 30.39 5.13, 30.54 5.0249999999999995, 30.06 4.9799999999999995 C 29.43 5.039999999999999, 29.309999999999995 4.949999999999999, 28.799999999999997 5.1 C 28.409999999999997 5.34, 28.395 5.3100000000000005, 28.02 5.58 C 27.659999999999997 5.88, 27.599999999999998 5.775, 27.299999999999997 6.18 C 27.06 6.6899999999999995, 27.060000000000002 6.614999999999999, 26.82 7.199999999999999 C 26.58 7.859999999999999, 26.549999999999997 7.739999999999999, 26.339999999999996 8.52 C 26.159999999999997 9.42, 26.115000000000002 9.57, 25.98 10.32 C 25.89 10.92, 25.845 10.605, 25.799999999999997 11.52 C 25.799999999999997 12.75, 25.799999999999997 12.855, 25.799999999999997 13.98 C 25.799999999999997 15, 25.799999999999997 14.73, 25.799999999999997 16.02 C 25.799999999999997 17.58, 25.739999999999995 17.625, 25.799999999999997 19.14 C 25.919999999999998 20.61, 25.935 20.535000000000004, 26.04 22.080000000000002 C 26.13 23.700000000000003, 26.13 23.700000000000003, 26.22 25.32 C 26.310000000000002 26.939999999999998, 26.310000000000002 27.15, 26.400000000000002 28.56 C 26.490000000000002 29.759999999999998, 26.535 30.105, 26.58 30.96 C 26.58 31.47, 26.714999999999996 30.93, 26.58 31.98 C 26.31 33.57, 26.595 33.42, 26.04 35.160000000000004 C 25.2 37.05, 25.095 37.485, 24.36 38.94 C 23.73 39.96, 23.895000000000003 39.99, 23.1 40.980000000000004 C 22.14 41.940000000000005, 22.095 42.150000000000006, 21.18 42.900000000000006 C 20.310000000000002 43.440000000000005, 20.43 43.48500000000001, 19.44 43.980000000000004 C 18.33 44.43000000000001, 17.939999999999998 44.595000000000006, 17.22 44.88 C 16.89 45, 16.724999999999998 45.06, 16.56 45.12 C 16.56 45.12, 16.56 45.12, 16.56 45.12 L 16.56 45.12" fill="none" stroke="black" stroke-width="2"></path></svg>