<svg width="48" height="48" viewBox="0 0 48 48" xmlns="http://www.w3.org/2000/svg"><path d="M 13.440000000000001 28.200000000000003 C 14.040000000000001 28.200000000000003, 14.025000000000002 28.200000000000003, 14.64 28.200000000000003 C 15.27 28.200000000000003, 15.224999999999998 28.200000000000003, 15.899999999999999 28.200000000000003 C 16.619999999999997 28.200000000000003, 16.619999999999997 28.200000000000003, 17.34 28.200000000000003 C 18.060000000000002 28.200000000000003, 18.270000000000003 28.215000000000003, 18.78 28.200000000000003 C 19.08 28.17, 19.064999999999998 28.245, 19.38 28.14 C 19.71 27.96, 19.575 28.14, 20.04 27.78 C 20.64 27.240000000000002, 20.775000000000002 27.150000000000002, 21.240000000000002 26.700000000000003 C 21.57 26.340000000000003, 21.63 26.355, 21.9 25.98 C 22.11 25.590000000000003, 22.11 25.680000000000003, 22.32 25.200000000000003 C 22.53 24.630000000000003, 22.53 24.63, 22.740000000000002 24.06 C 22.950000000000003 23.49, 22.995 23.474999999999998, 23.16 22.919999999999998 C 23.28 22.38, 23.31 22.155, 23.4 21.84 C 23.46 21.75, 23.49 21.705, 23.52 21.66 C 23.52 21.66, 23.52 21.585, 23.52 21.66 C 23.52 21.810000000000002, 23.535 21.615000000000002, 23.52 21.96 C 23.490000000000002 22.5, 23.475 22.455, 23.46 23.04 C 23.46 23.669999999999998, 23.46 23.804999999999996, 23.46 24.299999999999997 C 23.46 24.659999999999997, 23.37 24.585, 23.46 25.02 C 23.64 25.53, 23.52 25.56, 23.82 26.04 C 24.240000000000002 26.490000000000002, 24.195000000000004 26.565, 24.660000000000004 26.94 C 25.17 27.240000000000002, 25.185000000000002 27.27, 25.68 27.54 C 26.16 27.78, 26.130000000000003 27.854999999999997, 26.64 28.02 C 27.18 28.11, 27.225 28.155, 27.72 28.200000000000003 C 28.169999999999998 28.200000000000003, 28.184999999999995 28.290000000000006, 28.619999999999997 28.200000000000003 C 29.04 28.02, 29.175 28.139999999999997, 29.46 27.839999999999996 C 29.61 27.419999999999998, 29.58 27.45, 29.759999999999998 27 C 29.97 26.52, 29.939999999999998 26.625, 30.18 26.04 C 30.45 25.35, 30.435 25.650000000000002, 30.72 24.660000000000004 C 31.02 23.370000000000005, 31.125 23.220000000000002, 31.32 22.080000000000002 C 31.41 21.090000000000003, 31.41 20.985000000000003, 31.5 20.1 C 31.59 19.32, 31.634999999999998 19.53, 31.68 18.54 C 31.68 17.34, 31.68 17.325, 31.68 16.14 C 31.68 14.969999999999999, 31.695 14.924999999999999, 31.68 13.799999999999999 C 31.65 12.719999999999999, 31.665 12.495000000000001, 31.619999999999997 11.64 C 31.56 11.01, 31.619999999999997 11.235, 31.5 10.379999999999999 C 31.32 9.3, 31.23 9.120000000000001, 31.14 8.22 C 31.14 7.5, 31.185000000000002 7.289999999999999, 31.14 6.779999999999999 C 31.05 6.4799999999999995, 31.065 6.449999999999999, 30.96 6.18 C 30.84 5.9399999999999995, 30.84 5.909999999999999, 30.72 5.699999999999999 C 30.6 5.52, 30.585 5.49, 30.48 5.34 C 30.39 5.22, 30.389999999999997 5.205, 30.299999999999997 5.1 C 30.209999999999997 5.01, 30.239999999999995 5.01, 30.119999999999997 4.92 C 29.97 4.83, 29.985 4.785, 29.82 4.74 C 29.64 4.74, 29.685000000000002 4.74, 29.46 4.74 C 29.19 4.74, 29.175 4.74, 28.92 4.74 C 28.68 4.74, 28.635 4.695, 28.44 4.74 C 28.29 4.83, 28.365000000000002 4.755, 28.14 4.92 C 27.84 5.16, 27.795 5.115, 27.54 5.4 C 27.33 5.73, 27.419999999999998 5.610000000000001, 27.119999999999997 6.0600000000000005 C 26.729999999999997 6.63, 26.939999999999998 6.375, 26.339999999999996 7.199999999999999 C 25.529999999999998 8.28, 25.275 8.579999999999998, 24.72 9.36 C 24.419999999999998 9.84, 24.404999999999998 9.825, 24.119999999999997 10.32 C 23.85 10.83, 23.835 10.8, 23.580000000000002 11.34 C 23.340000000000003 11.91, 23.220000000000002 12.195, 23.1 12.48 L 23.1 12.48" fill="none" stroke="black" stroke-width="2"></path><path d="M 23.52 3.42 C 23.43 3.51, 23.73 3.21, 23.34 3.5999999999999996 C 22.65 4.289999999999999, 22.515 4.424999999999999, 21.96 4.9799999999999995 C 21.54 5.4, 21.585 5.355, 21.12 5.82 C 20.61 6.33, 20.625 6.225, 20.1 6.84 C 19.560000000000002 7.56, 19.515 7.4399999999999995, 19.02 8.28 C 18.57 9.239999999999998, 18.405 9.6, 18.12 10.2 L 17.88 10.68" fill="none" stroke="black" stroke-width="2"></path><path d="M 19.740000000000002 27.96 C 19.740000000000002 28.35, 19.740000000000002 28.290000000000003, 19.740000000000002 28.740000000000002 C 19.740000000000002 29.25, 19.635 29.189999999999998, 19.740000000000002 29.759999999999998 C 19.950000000000003 30.39, 19.89 30.375, 20.16 31.02 C 20.490000000000002 31.68, 20.445 31.694999999999997, 20.82 32.339999999999996 C 21.240000000000002 32.97, 21.240000000000002 33.11999999999999, 21.66 33.599999999999994 C 22.08 33.92999999999999, 21.87 33.9, 22.5 34.26 C 23.34 34.65, 23.265 34.739999999999995, 24.18 35.04 C 25.17 35.25, 25.290000000000003 35.235, 26.160000000000004 35.46 C 26.910000000000004 35.7, 27.030000000000005 35.714999999999996, 27.660000000000004 35.94 C 28.17 36.15, 28.17 36.075, 28.68 36.36 C 29.19 36.72, 29.415000000000003 36.885, 29.700000000000003 37.08 C 29.76 37.11, 29.715000000000003 37.035, 29.82 37.14 C 29.97 37.32, 30.104999999999997 37.29, 30.119999999999997 37.5 C 30 37.74, 30.060000000000002 37.800000000000004, 29.880000000000003 37.980000000000004 C 29.64 38.1, 29.775000000000002 38.1, 29.400000000000002 38.22 C 28.89 38.34, 28.950000000000003 38.4, 28.380000000000003 38.46 C 27.75 38.46, 27.794999999999998 38.415, 27.119999999999997 38.46 C 26.4 38.55, 26.354999999999997 38.595, 25.68 38.64 C 25.05 38.64, 25.200000000000003 38.64, 24.42 38.64 C 23.490000000000002 38.64, 23.235 38.58, 22.56 38.64 C 22.14 38.760000000000005, 22.244999999999997 38.64, 21.72 38.88 C 21.09 39.239999999999995, 20.97 39.254999999999995, 20.46 39.599999999999994 C 20.07 39.92999999999999, 20.115000000000002 39.809999999999995, 19.68 40.26 C 19.2 40.83, 19.169999999999998 40.830000000000005, 18.72 41.400000000000006 C 18.299999999999997 41.97, 18.255 41.955, 17.88 42.54 C 17.549999999999997 43.14, 17.415 43.095, 17.22 43.74 C 17.16 44.43, 17.130000000000003 44.73, 17.1 45.12 C 17.1 45.209999999999994, 17.1 45.15, 17.1 45.3 C 17.1 45.51, 17.1 45.54, 17.1 45.72 C 17.1 45.87, 17.1 45.94499999999999, 17.1 46.019999999999996 C 17.1 46.019999999999996, 17.1 46.019999999999996, 17.1 46.019999999999996 L 17.1 46.019999999999996" fill="none" stroke="black" stroke-width="2"></path></svg>