<svg width="48" height="48" viewBox="0 0 48 48" xmlns="http://www.w3.org/2000/svg"><path d="M 26.700000000000003 4.62 C 26.37 5.279999999999999, 26.475 5.084999999999999, 26.04 5.9399999999999995 C 25.5 6.99, 25.515 7.155000000000001, 24.96 8.040000000000001 C 24.39 8.760000000000002, 24.72 8.565000000000001, 23.82 9.48 C 22.59 10.59, 22.68 10.649999999999999, 21.36 11.7 C 19.95 12.69, 19.619999999999997 12.915, 18.54 13.68 C 17.79 14.219999999999999, 17.415 14.49, 17.04 14.76 L 17.04 14.76" fill="none" stroke="black" stroke-width="2"></path><path d="M 31.56 10.68 C 30.93 11.46, 31.094999999999995 11.235, 30.299999999999997 12.24 C 29.34 13.47, 29.25 13.560000000000002, 28.380000000000003 14.700000000000001 C 27.6 15.75, 27.51 15.884999999999998, 26.82 16.799999999999997 C 26.22 17.58, 26.31 17.474999999999998, 25.619999999999997 18.36 C 24.839999999999996 19.35, 24.839999999999996 19.395, 24.06 20.34 C 23.28 21.240000000000002, 23.58 21.150000000000002, 22.5 22.14 C 21.12 23.22, 20.895000000000003 23.4, 19.740000000000002 24.299999999999997 C 18.810000000000002 25.02, 18.645 25.17, 17.88 25.740000000000002 C 17.28 26.16, 17.189999999999998 26.25, 16.68 26.58 C 16.259999999999998 26.82, 16.215 26.849999999999998, 15.84 27.06 C 15.51 27.240000000000002, 15.465 27.330000000000002, 15.18 27.42 L 14.700000000000001 27.42" fill="none" stroke="black" stroke-width="2"></path><path d="M 23.52 32.88 C 22.71 32.760000000000005, 22.74 32.67, 21.9 32.64 C 21.03 32.7, 21.09 32.474999999999994, 20.16 32.76 C 19.17 33.269999999999996, 19.095 33.03, 18.18 33.78 C 17.34 34.769999999999996, 17.085 34.964999999999996, 16.5 35.76 C 16.17 36.36, 16.05 36.15, 15.84 36.96 C 15.75 37.980000000000004, 15.66 38.01, 15.66 39 C 15.75 39.96, 15.495000000000001 40.095, 15.84 40.92 C 16.439999999999998 41.61, 16.485 41.745, 17.04 42.3 C 17.549999999999997 42.72, 17.519999999999996 42.705, 18.06 43.14 C 18.630000000000003 43.59, 18.300000000000004 43.665, 19.200000000000003 44.04 C 20.43 44.34, 20.535 44.505, 21.66 44.64 C 22.68 44.61, 22.680000000000003 44.835, 23.700000000000003 44.58 C 24.720000000000002 44.099999999999994, 24.930000000000003 44.084999999999994, 25.740000000000002 43.62 C 26.340000000000003 43.17, 26.355000000000004 43.364999999999995, 26.94 42.72 C 27.509999999999998 41.879999999999995, 27.689999999999998 41.835, 28.08 41.04 C 28.29 40.29, 28.38 40.29, 28.5 39.54 C 28.53 38.79, 28.575 38.82, 28.56 38.04 C 28.5 37.230000000000004, 28.695 37.155, 28.44 36.42 C 27.990000000000002 35.76, 27.99 35.654999999999994, 27.54 35.099999999999994 C 27.09 34.65, 26.985 34.5, 26.64 34.2 C 26.400000000000002 34.050000000000004, 26.475 34.065000000000005, 26.160000000000004 33.900000000000006 C 25.770000000000003 33.72, 25.860000000000003 33.69, 25.380000000000003 33.54 C 24.810000000000002 33.42, 24.645000000000003 33.375, 24.240000000000002 33.3 C 24 33.269999999999996, 24.075 33.27, 23.759999999999998 33.24 C 23.369999999999997 33.21, 23.175 33.195, 22.98 33.18 L 22.98 33.18" fill="none" stroke="black" stroke-width="2"></path><path d="M 15.36 38.64 C 15.959999999999999 38.64, 15.659999999999998 38.64, 16.56 38.64 C 17.759999999999998 38.64, 17.130000000000003 38.64, 18.96 38.64 C 21.42 38.64, 22.23 38.64, 23.88 38.64 C 24.72 38.64, 24.915 38.64, 25.56 38.64 C 26.009999999999998 38.64, 26.115000000000002 38.595, 26.46 38.64 C 26.700000000000003 38.730000000000004, 26.580000000000002 38.685, 26.94 38.82 C 27.42 39, 27.540000000000003 39.09, 27.900000000000002 39.18 C 28.14 39.18, 28.185000000000002 39.18, 28.380000000000003 39.18 C 28.53 39.18, 28.605 39.18, 28.68 39.18 L 28.68 39.18" fill="none" stroke="black" stroke-width="2"></path></svg>