<svg width="48" height="48" viewBox="0 0 48 48" xmlns="http://www.w3.org/2000/svg"><path d="M 11.64 5.16 C 11.82 5.8500000000000005, 11.925 5.415000000000001, 12 6.540000000000001 C 11.969999999999999 8.100000000000001, 12 8.055, 11.94 9.66 C 11.85 11.31, 11.805 11.565000000000001, 11.76 12.96 C 11.76 14.100000000000001, 11.76 13.965, 11.76 15.24 C 11.76 16.65, 11.76 16.86, 11.76 18.06 C 11.76 19.049999999999997, 11.73 19.034999999999997, 11.76 20.04 C 11.82 21.060000000000002, 11.79 21.360000000000003, 11.879999999999999 22.080000000000002 C 12 22.5, 11.940000000000001 22.5, 12.120000000000001 22.919999999999998 C 12.360000000000001 23.339999999999996, 12.360000000000001 23.459999999999997, 12.600000000000001 23.759999999999998 C 12.840000000000002 23.939999999999998, 12.675000000000002 23.97, 13.080000000000002 24.119999999999997 C 13.650000000000002 24.24, 13.395000000000001 24.284999999999997, 14.22 24.36 C 15.3 24.39, 15.479999999999999 24.375, 16.38 24.42 C 17.1 24.48, 16.545 24.45, 17.82 24.54 C 19.65 24.66, 19.92 24.630000000000003, 21.48 24.78 C 22.77 24.96, 22.799999999999997 25.05, 24.06 25.14 C 25.29 25.14, 25.56 25.14, 26.52 25.14 C 27.21 25.14, 27.315 25.14, 27.900000000000002 25.14 C 28.380000000000003 25.14, 28.544999999999998 25.14, 28.86 25.14 C 29.01 25.14, 29.025000000000002 25.335, 29.160000000000004 25.14 C 29.28 24.75, 29.295 24.75, 29.400000000000002 24.36 C 29.490000000000002 23.97, 29.49 24.015, 29.58 23.580000000000002 C 29.669999999999998 23.1, 29.639999999999997 23.160000000000004, 29.759999999999998 22.62 C 29.909999999999997 22.02, 29.849999999999998 22.29, 30.06 21.419999999999998 C 30.33 20.28, 30.374999999999996 20.265, 30.599999999999998 19.14 C 30.78 18.03, 30.825 18.209999999999997, 30.96 16.919999999999998 C 31.05 15.45, 31.05 15.375, 31.14 13.98 C 31.23 12.66, 31.275 12.315, 31.32 11.34 C 31.32 10.71, 31.32 10.635, 31.32 10.08 C 31.32 9.600000000000001, 31.365000000000002 9.72, 31.32 9.120000000000001 C 31.23 8.4, 31.23 8.325, 31.14 7.68 C 31.05 7.11, 31.005000000000003 6.855, 30.96 6.540000000000001 C 30.96 6.48, 31.020000000000003 6.57, 30.96 6.42 C 30.84 6.18, 30.78 6.06, 30.72 5.9399999999999995 C 30.72 5.9399999999999995, 30.779999999999998 5.984999999999999, 30.72 5.9399999999999995 C 30.6 5.85, 30.66 5.699999999999999, 30.48 5.76 C 30.240000000000002 5.97, 30.42 5.82, 30 6.18 C 29.4 6.6899999999999995, 29.309999999999995 6.734999999999999, 28.799999999999997 7.199999999999999 C 28.38 7.62, 28.515 7.455, 27.96 8.040000000000001 C 27.27 8.790000000000001, 27.45 8.565000000000001, 26.58 9.540000000000001 C 25.53 10.74, 25.35 11.04, 24.48 11.94 C 23.79 12.54, 23.535 12.780000000000001, 23.1 13.14 C 22.92 13.26, 22.950000000000003 13.305, 22.740000000000002 13.379999999999999 L 22.259999999999998 13.440000000000001" fill="none" stroke="black" stroke-width="2"></path><path d="M 24.78 3.84 C 24.66 4.109999999999999, 24.9 3.9899999999999998, 24.54 4.38 C 23.939999999999998 4.890000000000001, 24.045 4.785, 23.34 5.4 C 22.53 6.12, 22.485 6.18, 21.72 6.84 C 21 7.44, 20.895000000000003 7.395000000000001, 20.28 8.040000000000001 C 19.77 8.73, 19.769999999999996 8.805, 19.259999999999998 9.42 C 18.75 9.96, 18.615000000000002 10.065, 18.240000000000002 10.5 L 17.759999999999998 11.16" fill="none" stroke="black" stroke-width="2"></path><path d="M 19.44 30.42 C 18.869999999999997 30.509999999999998, 18.93 30.224999999999998, 18.299999999999997 30.599999999999998 C 17.61 31.259999999999998, 17.58 31.095, 16.919999999999998 31.92 C 16.29 32.910000000000004, 16.17 33.00000000000001, 15.66 33.900000000000006 C 15.27 34.71, 15.059999999999999 34.785, 14.879999999999999 35.519999999999996 C 14.91 36.17999999999999, 14.760000000000002 36.37499999999999, 14.940000000000001 36.839999999999996 C 15.270000000000001 37.11, 15.270000000000003 37.17, 15.600000000000001 37.38 C 15.93 37.53, 15.899999999999999 37.515, 16.259999999999998 37.68 C 16.65 37.86, 16.575 37.92, 17.04 38.04 C 17.58 38.1, 17.55 38.08500000000001, 18.12 38.160000000000004 C 18.72 38.25, 18.645 38.25, 19.32 38.339999999999996 C 20.07 38.42999999999999, 19.98 38.474999999999994, 20.82 38.519999999999996 C 21.75 38.519999999999996, 21.78 38.714999999999996, 22.68 38.519999999999996 C 23.55 38.129999999999995, 23.700000000000003 38.205, 24.42 37.74 C 24.990000000000002 37.2, 25.275 37.155, 25.56 36.660000000000004 C 25.56 36.21, 25.56 36.254999999999995, 25.56 35.76 C 25.56 35.22, 25.589999999999996 35.19, 25.56 34.68 C 25.5 34.2, 25.635 34.17, 25.44 33.72 C 25.11 33.3, 25.095000000000002 33.255, 24.78 32.88 C 24.48 32.55, 24.509999999999998 32.55, 24.18 32.22 C 23.82 31.89, 23.805 31.935, 23.46 31.56 C 23.13 31.14, 23.159999999999997 31.02, 22.799999999999997 30.72 C 22.409999999999997 30.54, 22.439999999999998 30.509999999999998, 22.02 30.36 C 21.57 30.24, 21.675 30.18, 21.12 30.119999999999997 C 20.46 30.119999999999997, 20.205 30.119999999999997, 19.799999999999997 30.119999999999997 C 19.65 30.119999999999997, 19.575 30.119999999999997, 19.5 30.119999999999997 L 19.5 30.119999999999997" fill="none" stroke="black" stroke-width="2"></path></svg>