<svg width="48" height="48" viewBox="0 0 48 48" xmlns="http://www.w3.org/2000/svg"><path d="M 14.76 28.86 C 15.96 28.77, 16.035 28.77, 17.16 28.68 C 18.21 28.59, 18.36 28.545, 19.259999999999998 28.5 C 20.009999999999998 28.5, 19.979999999999997 28.5, 20.759999999999998 28.5 C 21.57 28.5, 21.494999999999997 28.5, 22.38 28.5 C 23.339999999999996 28.5, 23.414999999999996 28.5, 24.299999999999997 28.5 C 25.11 28.5, 25.08 28.545, 25.92 28.5 C 26.790000000000003 28.41, 27.000000000000004 28.395, 27.660000000000004 28.32 C 28.11 28.26, 28.215 28.290000000000003, 28.56 28.200000000000003 C 28.799999999999997 28.080000000000002, 28.665 28.275000000000002, 29.04 27.96 C 29.549999999999997 27.450000000000003, 29.64 27.525000000000002, 30.06 26.94 C 30.39 26.28, 30.479999999999997 26.189999999999998, 30.72 25.619999999999997 C 30.869999999999997 25.14, 30.884999999999998 25.230000000000004, 31.02 24.660000000000004 C 31.14 24, 31.049999999999997 24.42, 31.259999999999998 23.34 C 31.56 21.84, 31.665 22.17, 31.86 20.34 C 31.95 18.18, 31.935 18.06, 32.04 16.02 C 32.16 14.1, 32.22 13.59, 32.28 12.18 C 32.28 11.28, 32.28 11.264999999999999, 32.28 10.379999999999999 C 32.28 9.51, 32.28 9.36, 32.28 8.64 C 32.28 8.07, 32.34 7.98, 32.28 7.5 C 32.16 7.11, 32.129999999999995 7.0200000000000005, 32.04 6.720000000000001 C 31.98 6.510000000000001, 32.04 6.510000000000001, 31.92 6.300000000000001 C 31.740000000000002 6.09, 31.725 6.075, 31.56 5.88 C 31.409999999999997 5.7, 31.334999999999997 5.61, 31.259999999999998 5.5200000000000005 C 31.259999999999998 5.5200000000000005, 31.259999999999998 5.5200000000000005, 31.259999999999998 5.5200000000000005 C 31.259999999999998 5.5200000000000005, 31.275 5.535, 31.259999999999998 5.5200000000000005 C 31.23 5.49, 31.215000000000003 5.475, 31.200000000000003 5.46 C 31.200000000000003 5.46, 31.230000000000004 5.46, 31.200000000000003 5.46 C 31.14 5.46, 31.275 5.34, 31.08 5.46 C 30.75 5.699999999999999, 30.72 5.699999999999999, 30.42 5.9399999999999995 C 30.150000000000002 6.18, 30.165000000000003 6.09, 29.880000000000003 6.42 C 29.580000000000002 6.84, 29.64 6.734999999999999, 29.28 7.26 C 28.86 7.89, 28.830000000000002 7.8149999999999995, 28.44 8.52 C 28.08 9.3, 28.14 9.24, 27.72 10.08 C 27.24 10.98, 27.165 10.95, 26.759999999999998 11.879999999999999 C 26.43 12.84, 26.354999999999997 13.034999999999998, 26.099999999999998 13.799999999999999 C 25.92 14.370000000000001, 25.830000000000002 14.625000000000002, 25.740000000000002 14.940000000000001 C 25.740000000000002 15, 25.755000000000003 14.985, 25.740000000000002 15.059999999999999 L 25.68 15.24" fill="none" stroke="black" stroke-width="2"></path><path d="M 24.54 5.5200000000000005 C 24.6 5.880000000000001, 24.825000000000003 5.640000000000001, 24.660000000000004 6.24 C 24.270000000000003 7.08, 24.21 7.245, 23.88 7.92 C 23.61 8.43, 23.73 8.16, 23.34 8.94 C 22.83 9.99, 22.8 10.035, 22.32 11.040000000000001 C 21.869999999999997 12, 21.764999999999997 11.955000000000002, 21.419999999999998 12.96 C 21.18 14.01, 21.165 14.114999999999998, 20.94 15.059999999999999 C 20.73 15.9, 20.67 16.14, 20.52 16.740000000000002 C 20.43 17.1, 20.384999999999998 17.28, 20.34 17.46 L 20.34 17.46" fill="none" stroke="black" stroke-width="2"></path><path d="M 21.12 28.86 C 21.03 29.49, 21.060000000000002 29.444999999999997, 20.94 30.119999999999997 C 20.79 30.839999999999996, 20.82 30.989999999999995, 20.64 31.56 C 20.43 31.980000000000004, 20.49 31.905000000000005, 20.22 32.400000000000006 C 19.89 32.97, 20.055 32.760000000000005, 19.56 33.54 C 18.9 34.53, 18.87 34.724999999999994, 18.240000000000002 35.519999999999996 C 17.64 36.12, 17.595 36.165, 17.04 36.72 C 16.53 37.230000000000004, 16.56 37.230000000000004, 16.02 37.74 C 15.45 38.25, 15.165 38.504999999999995, 14.879999999999999 38.76 C 14.879999999999999 38.76, 14.985 38.699999999999996, 14.879999999999999 38.76 L 14.46 39" fill="none" stroke="black" stroke-width="2"></path><path d="M 25.5 34.5 C 25.59 34.65, 25.845 34.23, 25.68 34.8 C 25.259999999999998 35.79, 25.244999999999997 35.91, 24.839999999999996 36.78 C 24.449999999999996 37.53, 24.389999999999997 37.605000000000004, 24.06 38.28 C 23.79 38.88, 23.939999999999998 38.85000000000001, 23.52 39.480000000000004 C 22.95 40.14, 23.025 40.17, 22.38 40.8 C 21.66 41.4, 21.795 41.385, 20.94 42 C 19.950000000000003 42.629999999999995, 19.71 42.795, 18.96 43.26 C 18.450000000000003 43.56, 18.240000000000002 43.68, 17.94 43.86 C 17.85 43.92, 17.805 43.95, 17.759999999999998 43.980000000000004 C 17.759999999999998 43.980000000000004, 17.879999999999995 43.965, 17.759999999999998 43.980000000000004 L 17.28 44.04" fill="none" stroke="black" stroke-width="2"></path></svg>