<svg width="48" height="48" viewBox="0 0 48 48" xmlns="http://www.w3.org/2000/svg"><path d="M 15.66 26.64 C 15.45 26.13, 15.405000000000001 26.279999999999998, 15.24 25.619999999999997 C 15.120000000000001 24.81, 15.105 24.765, 15 24 C 14.91 23.28, 14.895 23.205, 14.82 22.56 C 14.760000000000002 21.99, 14.73 21.974999999999998, 14.700000000000001 21.419999999999998 C 14.700000000000001 20.88, 14.700000000000001 20.865, 14.700000000000001 20.34 C 14.700000000000001 19.83, 14.700000000000001 19.77, 14.700000000000001 19.32 C 14.700000000000001 18.93, 14.655000000000001 18.855, 14.700000000000001 18.54 C 14.79 18.299999999999997, 14.67 18.33, 14.879999999999999 18.06 C 15.209999999999999 17.759999999999998, 15.12 17.745, 15.54 17.46 C 16.049999999999997 17.189999999999998, 15.84 17.085, 16.56 16.919999999999998 C 17.49 16.86, 17.685 16.874999999999996, 18.419999999999998 16.799999999999997 C 18.96 16.71, 18.84 16.665, 19.5 16.62 C 20.28 16.62, 19.935 16.53, 21.06 16.62 C 22.53 16.8, 22.56 16.8, 24 16.98 C 25.41 17.16, 25.755000000000003 17.25, 26.82 17.34 C 27.54 17.34, 27.615 17.31, 28.259999999999998 17.34 C 28.83 17.4, 28.755000000000003 17.37, 29.400000000000002 17.46 C 30.119999999999997 17.580000000000002, 30.179999999999996 17.64, 30.839999999999996 17.700000000000003 C 31.439999999999998 17.700000000000003, 31.544999999999998 17.67, 32.04 17.700000000000003 C 32.43 17.76, 32.46 17.745, 32.82 17.82 C 33.150000000000006 17.91, 33.315000000000005 17.955, 33.480000000000004 18 C 33.480000000000004 18, 33.480000000000004 18, 33.480000000000004 18 C 33.480000000000004 18, 33.480000000000004 18, 33.480000000000004 18 L 33.480000000000004 18" fill="none" stroke="black" stroke-width="2"></path><path d="M 26.64 2.52 C 26.13 2.85, 26.43 2.7150000000000003, 25.619999999999997 3.18 C 24.509999999999998 3.7800000000000002, 24.479999999999997 3.69, 23.4 4.38 C 22.349999999999998 5.16, 22.229999999999997 5.265, 21.299999999999997 5.9399999999999995 C 20.49 6.51, 20.549999999999997 6.51, 19.68 7.08 C 18.75 7.65, 18.54 7.770000000000001, 17.82 8.22 C 17.31 8.55, 17.174999999999997 8.594999999999999, 16.799999999999997 8.879999999999999 C 16.56 9.12, 16.439999999999998 9.239999999999998, 16.32 9.36 L 16.32 9.36" fill="none" stroke="black" stroke-width="2"></path><path d="M 34.56 3.7199999999999998 C 34.02 4.199999999999999, 34.215 4.109999999999999, 33.480000000000004 4.68 C 32.55 5.34, 32.67 5.265, 31.619999999999997 6 C 30.45 6.8100000000000005, 30.405 6.9, 29.28 7.62 C 28.2 8.25, 28.019999999999996 8.34, 27.119999999999997 8.879999999999999 C 26.4 9.329999999999998, 26.415 9.254999999999999, 25.68 9.78 C 24.93 10.379999999999999, 24.6 10.665, 24.18 10.98 L 24 11.040000000000001" fill="none" stroke="black" stroke-width="2"></path><path d="M 23.759999999999998 16.86 C 23.759999999999998 17.369999999999997, 23.804999999999996 17.159999999999997, 23.759999999999998 17.88 C 23.67 18.810000000000002, 23.715000000000003 18.57, 23.580000000000002 19.740000000000002 C 23.4 21.15, 23.31 21.33, 23.22 22.56 C 23.22 23.61, 23.205 23.595000000000002, 23.22 24.660000000000004 C 23.25 25.740000000000002, 23.115000000000002 25.845000000000002, 23.28 26.82 C 23.58 27.689999999999998, 23.43 27.689999999999998, 23.88 28.56 C 24.479999999999997 29.43, 24.479999999999997 29.594999999999995, 25.08 30.299999999999997 C 25.68 30.84, 25.515 30.885, 26.28 31.380000000000003 C 27.21 31.830000000000002, 27.42 31.965000000000003, 28.14 32.28 C 28.650000000000002 32.46, 28.485000000000007 32.325, 29.160000000000004 32.64 C 30 33.09, 30.119999999999997 33.09, 30.839999999999996 33.54 C 31.439999999999998 33.989999999999995, 31.695 34.17, 32.04 34.44 C 32.129999999999995 34.53, 32.16 34.53, 32.22 34.62 C 32.25 34.709999999999994, 32.385000000000005 34.485, 32.28 34.8 C 32.04 35.34, 32.19 35.505, 31.799999999999997 35.88 C 31.259999999999998 36.09, 31.455 36.15, 30.72 36.3 C 29.79 36.39, 29.595 36.375, 28.86 36.480000000000004 C 28.32 36.6, 28.560000000000002 36.51, 27.78 36.72 C 26.76 37.019999999999996, 26.715000000000003 36.96, 25.740000000000002 37.32 C 24.810000000000002 37.74, 24.705 37.68000000000001, 23.88 38.160000000000004 C 23.16 38.7, 23.175 38.580000000000005, 22.44 39.24 C 21.69 40.019999999999996, 21.675 39.915, 20.94 40.8 C 20.22 41.79, 20.055 41.879999999999995, 19.5 42.78 C 19.11 43.59, 19.005 43.72500000000001, 18.72 44.400000000000006 C 18.54 44.940000000000005, 18.45 45.165000000000006, 18.36 45.480000000000004 C 18.36 45.57000000000001, 18.36 45.615, 18.36 45.660000000000004 C 18.36 45.660000000000004, 18.36 45.660000000000004, 18.36 45.660000000000004 C 18.36 45.660000000000004, 18.36 45.660000000000004, 18.36 45.660000000000004 C 18.36 45.660000000000004, 18.36 45.660000000000004, 18.36 45.660000000000004 C 18.36 45.660000000000004, 18.36 45.660000000000004, 18.36 45.660000000000004 L 18.36 45.660000000000004" fill="none" stroke="black" stroke-width="2"></path><path d="M 15.120000000000001 34.08 C 15.48 34.08, 15.375 34.035, 15.84 34.08 C 16.41 34.17, 16.41 34.095, 16.98 34.26 C 17.55 34.5, 17.625 34.485, 18.12 34.74 C 18.54 35.010000000000005, 18.42 34.935, 18.96 35.28 C 19.62 35.7, 19.740000000000002 35.699999999999996, 20.28 36.12 C 20.700000000000003 36.54, 20.835 36.705, 21.12 36.96 C 21.27 37.05, 21.209999999999997 36.9, 21.419999999999998 37.14 C 21.689999999999998 37.53, 21.810000000000002 37.68000000000001, 21.96 37.92 C 21.990000000000002 38.01, 21.99 38.00999999999999, 22.02 38.099999999999994 C 22.05 38.19, 22.065 38.235, 22.080000000000002 38.28 C 22.080000000000002 38.28, 22.05 38.235, 22.080000000000002 38.28 C 22.14 38.370000000000005, 22.125000000000004 38.385000000000005, 22.200000000000003 38.46 C 22.29 38.519999999999996, 22.335 38.55, 22.38 38.58 C 22.38 38.58, 22.38 38.58, 22.38 38.58 C 22.38 38.58, 22.38 38.58, 22.38 38.58 L 22.38 38.58" fill="none" stroke="black" stroke-width="2"></path></svg>