<svg width="48" height="48" viewBox="0 0 48 48" xmlns="http://www.w3.org/2000/svg"><path d="M 16.32 4.26 C 16.32 4.71, 16.395 4.08, 16.32 5.16 C 16.17 6.87, 16.245 6.78, 16.02 8.58 C 15.719999999999999 10.469999999999999, 15.614999999999998 10.5, 15.419999999999998 12.36 C 15.329999999999998 14.19, 15.3 14.549999999999999, 15.24 16.02 C 15.21 17.130000000000003, 15.225 17.25, 15.18 18.240000000000002 C 15.12 19.11, 15.09 19.395, 15.059999999999999 19.98 C 15.059999999999999 20.28, 14.879999999999999 20.265, 15.059999999999999 20.580000000000002 C 15.419999999999998 20.910000000000004, 15.48 21.015, 15.78 21.240000000000002 C 16.02 21.36, 15.974999999999998 21.330000000000002, 16.259999999999998 21.48 C 16.589999999999996 21.66, 16.439999999999998 21.675, 16.919999999999998 21.84 C 17.549999999999997 21.990000000000002, 17.43 21.975, 18.18 22.14 C 19.049999999999997 22.32, 19.095 22.38, 19.919999999999998 22.5 C 20.7 22.560000000000002, 20.505 22.515, 21.48 22.62 C 22.65 22.77, 22.665 22.77, 23.82 22.919999999999998 C 24.96 23.07, 25.139999999999997 23.145, 26.099999999999998 23.22 C 26.880000000000003 23.22, 26.955000000000002 23.22, 27.660000000000004 23.22 C 28.290000000000003 23.22, 28.365000000000002 23.22, 28.92 23.22 C 29.400000000000002 23.22, 29.460000000000004 23.22, 29.880000000000003 23.22 C 30.240000000000002 23.22, 30.18 23.265, 30.599999999999998 23.22 C 31.08 23.13, 31.229999999999997 23.13, 31.56 23.04 C 31.740000000000002 22.95, 31.71 22.994999999999997, 31.92 22.86 C 32.160000000000004 22.68, 32.14500000000001 22.71, 32.400000000000006 22.5 C 32.67 22.259999999999998, 32.7 22.275, 32.94 22.02 C 33.15 21.75, 33.224999999999994 21.765, 33.36 21.48 C 33.42 21.18, 33.36000000000001 21.345, 33.480000000000004 20.88 C 33.66 20.25, 33.675 20.28, 33.839999999999996 19.62 C 33.989999999999995 18.93, 34.019999999999996 19.080000000000002, 34.14 18.240000000000002 C 34.230000000000004 17.25, 34.2 17.34, 34.32 16.259999999999998 C 34.47 15.089999999999998, 34.53 14.939999999999998, 34.62 13.919999999999998 C 34.65 13.049999999999999, 34.62 13.079999999999998, 34.68 12.18 C 34.769999999999996 11.25, 34.815 11.190000000000001, 34.86 10.32 C 34.86 9.51, 34.86 9.45, 34.86 8.7 C 34.86 8.01, 34.86 7.905, 34.86 7.32 C 34.86 6.84, 34.89 6.9, 34.86 6.36 C 34.8 5.76, 34.800000000000004 5.58, 34.74 5.16 C 34.68 4.92, 34.724999999999994 4.859999999999999, 34.62 4.68 C 34.47 4.56, 34.425 4.5, 34.32 4.4399999999999995 C 34.260000000000005 4.4399999999999995, 34.35 4.424999999999999, 34.2 4.4399999999999995 C 33.96 4.47, 33.915 4.455, 33.72 4.5 C 33.57 4.5600000000000005, 33.660000000000004 4.425, 33.42 4.62 C 33.09 4.95, 33.18 4.815, 32.76 5.28 C 32.25 5.880000000000001, 32.205 5.970000000000001, 31.740000000000002 6.48 C 31.32 6.9, 31.455000000000002 6.705, 30.900000000000002 7.32 C 30.21 8.129999999999999, 30.315 8.04, 29.52 8.94 C 28.619999999999997 9.93, 28.455 10.035, 27.72 10.92 C 27.15 11.7, 27 11.895, 26.58 12.48 C 26.31 12.870000000000001, 26.294999999999998 12.93, 26.04 13.26 C 25.799999999999997 13.53, 25.695 13.62, 25.56 13.799999999999999 C 25.53 13.89, 25.56 13.92, 25.5 13.98 L 25.32 14.04" fill="none" stroke="black" stroke-width="2"></path><path d="M 28.44 3.06 C 28.380000000000003 3.09, 28.575 2.97, 28.32 3.12 C 27.87 3.39, 28.005000000000003 3.2700000000000005, 27.42 3.66 C 26.700000000000003 4.17, 26.715 4.08, 25.98 4.68 C 25.23 5.37, 25.065 5.460000000000001, 24.48 6.0600000000000005 C 24.060000000000002 6.57, 24.105 6.495000000000001, 23.64 7.08 C 23.130000000000003 7.739999999999999, 23.085 7.739999999999998, 22.62 8.399999999999999 C 22.200000000000003 9.059999999999999, 22.05 9.3, 21.78 9.72 C 21.66 9.9, 21.6 9.99, 21.54 10.08 C 21.54 10.08, 21.645 9.975, 21.54 10.08 L 21.12 10.5" fill="none" stroke="black" stroke-width="2"></path><path d="M 23.64 22.32 C 23.64 22.5, 23.64 22.29, 23.64 22.68 C 23.64 23.28, 23.64 23.174999999999997, 23.64 23.88 C 23.64 24.689999999999998, 23.520000000000003 24.81, 23.64 25.5 C 23.88 26.07, 23.79 26.07, 24.119999999999997 26.64 C 24.54 27.21, 24.495 27.285000000000004, 24.96 27.78 C 25.47 28.2, 25.395000000000003 28.244999999999997, 25.98 28.619999999999997 C 26.64 28.95, 26.699999999999996 29.025, 27.299999999999997 29.28 C 27.84 29.46, 27.765 29.445, 28.380000000000003 29.64 C 29.07 29.85, 29.115 29.82, 29.759999999999998 30.06 C 30.36 30.33, 30.495 30.374999999999996, 30.96 30.599999999999998 C 31.29 30.78, 31.319999999999997 30.795, 31.619999999999997 30.96 C 31.89 31.11, 31.995000000000005 31.139999999999997, 32.160000000000004 31.259999999999998 C 32.22 31.35, 32.22 31.230000000000004, 32.28 31.44 C 32.34 31.769999999999996, 32.415000000000006 31.859999999999992, 32.400000000000006 32.099999999999994 C 32.31 32.25, 32.385 32.265, 32.22 32.400000000000006 C 31.98 32.52, 31.935000000000002 32.535000000000004, 31.740000000000002 32.64 C 31.590000000000003 32.730000000000004, 31.68 32.76, 31.44 32.82 C 31.11 32.85, 31.23 32.790000000000006, 30.78 32.88 C 30.21 33.03, 30.240000000000002 33.015, 29.64 33.18 C 29.01 33.36, 28.950000000000003 33.39, 28.380000000000003 33.54 C 27.87 33.66, 28.14 33.57, 27.36 33.78 C 26.31 34.08, 26.264999999999997 33.96, 25.259999999999998 34.38 C 24.299999999999997 34.92, 24.104999999999997 35.025000000000006, 23.34 35.46 C 22.770000000000003 35.79, 22.650000000000002 35.79, 22.200000000000003 36.12 C 21.87 36.45, 21.915 36.285000000000004, 21.54 36.78 C 21.12 37.44, 21.120000000000005 37.41, 20.700000000000003 38.099999999999994 C 20.28 38.81999999999999, 20.235 38.849999999999994, 19.86 39.54 C 19.53 40.2, 19.470000000000002 40.26, 19.200000000000003 40.86 C 18.990000000000002 41.4, 18.93 41.42999999999999, 18.78 41.94 C 18.69 42.42, 18.69 42.495000000000005, 18.6 42.900000000000006 C 18.509999999999998 43.230000000000004, 18.465 43.2, 18.419999999999998 43.56 C 18.419999999999998 43.95, 18.419999999999998 44.04, 18.419999999999998 44.339999999999996 C 18.419999999999998 44.55, 18.419999999999998 44.655, 18.419999999999998 44.76 C 18.419999999999998 44.76, 18.419999999999998 44.76, 18.419999999999998 44.76 L 18.419999999999998 44.76" fill="none" stroke="black" stroke-width="2"></path><path d="M 14.52 30.06 C 14.85 30.21, 14.774999999999999 30.209999999999997, 15.18 30.36 C 15.66 30.51, 15.735000000000001 30.510000000000005, 16.14 30.660000000000004 C 16.47 30.810000000000002, 16.349999999999998 30.720000000000002, 16.799999999999997 30.96 C 17.369999999999997 31.29, 17.310000000000002 31.169999999999998, 17.94 31.619999999999997 C 18.630000000000003 32.19, 18.63 32.099999999999994, 19.32 32.76 C 20.01 33.51, 20.190000000000005 33.644999999999996, 20.700000000000003 34.26 C 21.03 34.739999999999995, 21.15 34.934999999999995, 21.36 35.22 C 21.45 35.31, 21.465 35.26500000000001, 21.54 35.400000000000006 C 21.6 35.58, 21.6 35.64, 21.66 35.76 C 21.72 35.82, 21.75 35.85, 21.78 35.88 C 21.78 35.88, 21.78 35.88, 21.78 35.88 L 21.78 35.88" fill="none" stroke="black" stroke-width="2"></path></svg>