<svg width="48" height="48" viewBox="0 0 48 48" xmlns="http://www.w3.org/2000/svg"><path d="M 15.600000000000001 2.58 C 15.21 3.21, 15.39 3.0149999999999997, 14.82 3.84 C 14.07 4.859999999999999, 13.98 4.8149999999999995, 13.32 5.88 C 12.75 6.99, 12.51 7.320000000000001, 12.18 8.100000000000001 C 12.09 8.55, 12.045 8.58, 12 9 C 12 9.39, 12 9.51, 12 9.78 C 12 9.93, 12 9.96, 12 10.08 C 12 10.17, 11.79 10.11, 12 10.26 C 12.42 10.469999999999999, 11.879999999999999 10.53, 12.84 10.68 C 14.34 10.77, 14.415 10.829999999999998, 15.84 10.86 C 17.189999999999998 10.83, 16.575 10.920000000000002, 18.54 10.8 C 21.12 10.59, 20.985000000000003 10.485, 23.700000000000003 10.379999999999999 C 26.550000000000004 10.379999999999999, 26.955000000000002 10.439999999999998, 29.400000000000002 10.379999999999999 C 31.440000000000005 10.26, 32.07000000000001 10.245000000000001, 33.480000000000004 10.14 C 34.260000000000005 10.05, 34.65 10.004999999999999, 35.04 9.959999999999999 L 35.04 9.959999999999999" fill="none" stroke="black" stroke-width="2"></path><path d="M 17.4 10.68 C 17.25 11.1, 17.325000000000003 10.965, 17.1 11.52 C 16.8 12.209999999999999, 16.89 11.939999999999998, 16.5 12.899999999999999 C 16.02 14.129999999999999, 16.064999999999998 13.95, 15.54 15.36 C 14.969999999999999 16.95, 14.939999999999998 17.115, 14.399999999999999 18.54 C 13.889999999999999 19.799999999999997, 13.905 19.634999999999998, 13.379999999999999 21.06 C 12.84 22.65, 12.735 22.725, 12.299999999999999 24.240000000000002 C 11.969999999999999 25.68, 11.865 25.709999999999997, 11.64 27.119999999999997 C 11.52 28.5, 11.549999999999999 28.830000000000002, 11.399999999999999 29.880000000000003 C 11.219999999999999 30.6, 11.235 30.555, 11.040000000000001 31.32 C 10.830000000000002 32.129999999999995, 10.725000000000001 32.175, 10.620000000000001 32.94 C 10.620000000000001 33.66, 10.620000000000001 33.705, 10.620000000000001 34.38 C 10.620000000000001 35.010000000000005, 10.620000000000001 35.13, 10.620000000000001 35.64 C 10.620000000000001 36.03, 10.545000000000002 35.985, 10.620000000000001 36.42 C 10.77 36.900000000000006, 10.77 36.900000000000006, 10.92 37.38 C 11.07 37.86, 11.07 37.86, 11.22 38.339999999999996 C 11.370000000000001 38.81999999999999, 11.25 38.879999999999995, 11.52 39.3 C 11.91 39.66, 11.939999999999998 39.74999999999999, 12.299999999999999 40.019999999999996 C 12.629999999999999 40.2, 12.465 40.245000000000005, 12.96 40.38 C 13.620000000000001 40.47, 13.125 40.575, 14.28 40.56 C 15.93 40.44, 16.125 40.74, 17.580000000000002 40.32 C 18.840000000000003 39.6, 19.005000000000003 39.675000000000004, 20.1 38.88 C 21.03 38.010000000000005, 20.955000000000002 38.160000000000004, 21.96 37.14 C 23.04 35.97, 22.619999999999997 36.044999999999995, 24.119999999999997 34.8 C 26.04 33.480000000000004, 26.1 33.045, 27.96 32.160000000000004 C 29.759999999999998 31.71, 30.104999999999997 31.455, 31.56 31.259999999999998 C 32.67 31.32, 32.805 31.035000000000004, 33.78 31.380000000000003 C 34.620000000000005 32.010000000000005, 34.71 31.830000000000002, 35.46 32.64 C 36.120000000000005 33.629999999999995, 36.36 33.599999999999994, 36.78 34.62 C 36.96 35.67, 37.275 35.595, 37.14 36.72 C 36.69 37.92, 36.885000000000005 38.235, 36.24 39.12 C 35.400000000000006 39.69, 35.535000000000004 39.855, 34.56 40.26 C 33.45 40.5, 33.51 40.650000000000006, 32.339999999999996 40.74 C 31.11 40.68, 30.555 40.665, 29.880000000000003 40.62 C 29.76 40.59, 29.76 40.605000000000004, 29.64 40.56 L 29.400000000000002 40.44" fill="none" stroke="black" stroke-width="2"></path></svg>