<svg width="48" height="48" viewBox="0 0 48 48" xmlns="http://www.w3.org/2000/svg"><path d="M 17.580000000000002 3.66 C 16.98 4.35, 17.07 4.125, 16.38 5.04 C 15.6 6.18, 15.39 6.315, 14.82 7.32 C 14.46 8.190000000000001, 14.340000000000002 8.43, 14.100000000000001 9.06 C 13.98 9.45, 13.92 9.525, 13.86 9.84 C 13.86 10.08, 13.86 10.125, 13.86 10.32 C 13.86 10.47, 13.62 10.440000000000001, 13.86 10.620000000000001 C 14.34 10.830000000000002, 14.235 10.935, 14.82 11.040000000000001 C 15.510000000000002 11.040000000000001, 15.105000000000002 11.055000000000001, 16.200000000000003 11.040000000000001 C 17.700000000000003 11.010000000000002, 17.070000000000004 10.995000000000001, 19.200000000000003 10.98 C 21.96 10.98, 21.975 11.085, 24.72 10.98 C 27.45 10.77, 28.2 10.725000000000001, 30.18 10.56 C 31.41 10.440000000000001, 31.695 10.38, 32.64 10.32 C 33.3 10.32, 33.63 10.32, 33.96 10.32 L 33.96 10.32" fill="none" stroke="black" stroke-width="2"></path><path d="M 18.6 10.98 C 18.12 11.46, 18.3 11.07, 17.64 11.94 C 16.8 13.2, 16.815 12.945, 15.96 14.46 C 15.09 16.23, 14.88 16.47, 14.22 18 C 13.77 19.29, 13.695 19.365000000000002, 13.32 20.580000000000002 C 13.02 21.72, 12.96 21.975, 12.72 22.86 C 12.54 23.49, 12.54 23.324999999999996, 12.36 24.119999999999997 C 12.18 25.08, 12.09 25.2, 12 26.04 C 12 26.759999999999998, 12 26.88, 12 27.48 C 12 27.96, 11.955 28.035000000000004, 12 28.44 C 12.09 28.77, 11.955 28.755, 12.18 29.099999999999998 C 12.54 29.46, 12.374999999999998 29.52, 12.899999999999999 29.82 C 13.59 30.06, 13.379999999999999 30.074999999999996, 14.28 30.299999999999997 C 15.39 30.509999999999998, 15.285 30.615, 16.5 30.72 C 17.82 30.72, 17.505000000000003 30.779999999999998, 19.14 30.72 C 21.09 30.6, 21.104999999999997 30.689999999999998, 23.04 30.48 C 24.96 30.18, 25.560000000000002 30.075000000000003, 26.880000000000003 29.880000000000003 C 27.6 29.790000000000003, 27.96 29.745000000000005, 28.32 29.700000000000003 L 28.32 29.700000000000003" fill="none" stroke="black" stroke-width="2"></path><path d="M 11.64 36.24 C 11.7 36.72, 11.535 36.540000000000006, 11.76 37.2 C 12.149999999999999 38.040000000000006, 11.969999999999999 38.040000000000006, 12.54 38.88 C 13.29 39.72, 13.305 39.885000000000005, 14.04 40.56 C 14.76 41.07, 14.715 41.22, 15.48 41.58 C 16.29 41.79, 16.215000000000003 41.894999999999996, 17.1 42 C 18.060000000000002 42, 17.985 42.03, 19.02 42 C 20.130000000000003 41.94, 20.37 42.015, 21.240000000000002 41.88 C 21.87 41.67, 21.84 41.730000000000004, 22.5 41.46 C 23.189999999999998 41.129999999999995, 23.189999999999998 41.309999999999995, 23.88 40.8 C 24.57 40.11, 24.645 40.125, 25.259999999999998 39.42 C 25.799999999999997 38.7, 25.799999999999997 38.85000000000001, 26.339999999999996 37.980000000000004 C 26.88 36.96, 27 36.975, 27.42 35.94 C 27.72 34.89, 27.75 35.05499999999999, 28.02 33.839999999999996 C 28.259999999999998 32.459999999999994, 28.2 32.73, 28.5 31.08 C 28.86 29.16, 28.799999999999997 29.445, 29.22 27.240000000000002 C 29.7 24.75, 29.895 24.299999999999997, 30.18 22.259999999999998 C 30.27 20.67, 30.27 20.55, 30.36 19.080000000000002 C 30.45 17.73, 30.435 17.73, 30.54 16.38 C 30.66 15.03, 30.69 14.67, 30.78 13.68 C 30.840000000000003 13.049999999999999, 30.87 12.809999999999999, 30.900000000000002 12.419999999999998 C 30.900000000000002 12.27, 30.855000000000004 12.555, 30.900000000000002 12.120000000000001 C 30.990000000000002 11.4, 31.035 11.04, 31.08 10.68 L 31.08 10.68" fill="none" stroke="black" stroke-width="2"></path></svg>