<svg width="48" height="48" viewBox="0 0 48 48" xmlns="http://www.w3.org/2000/svg"><path d="M 15.24 3.12 C 14.7 3.63, 14.85 3.4349999999999996, 14.16 4.14 C 13.32 5.039999999999999, 13.155000000000001 5.039999999999999, 12.48 5.9399999999999995 C 11.969999999999999 6.84, 11.864999999999998 6.93, 11.459999999999999 7.74 C 11.16 8.46, 11.055 8.684999999999999, 10.86 9.18 C 10.77 9.45, 10.725 9.465, 10.68 9.72 C 10.68 9.96, 10.68 10.035, 10.68 10.2 C 10.68 10.29, 10.68 10.305, 10.68 10.379999999999999 C 10.68 10.44, 10.515 10.41, 10.68 10.5 C 11.01 10.620000000000001, 10.185 10.695, 11.34 10.74 C 13.32 10.71, 13.094999999999999 10.695, 15.299999999999999 10.68 C 17.73 10.68, 17.985 10.725, 20.16 10.68 C 22.08 10.59, 22.185 10.65, 24 10.5 C 25.71 10.29, 25.92 10.275, 27.42 10.08 C 28.71 9.9, 28.935000000000002 9.825000000000001, 30 9.72 C 30.84 9.690000000000001, 31.23 9.705, 31.68 9.66 C 31.74 9.600000000000001, 31.769999999999996 9.57, 31.799999999999997 9.540000000000001 L 31.799999999999997 9.540000000000001" fill="none" stroke="black" stroke-width="2"></path><path d="M 13.74 10.5 C 13.23 11.399999999999999, 13.32 10.785, 12.72 12.299999999999999 C 12.030000000000001 14.43, 11.91 14.474999999999998, 11.34 16.56 C 10.89 18.6, 10.77 18.945, 10.44 20.64 C 10.23 21.990000000000002, 10.125 22.035, 10.02 23.34 C 10.02 24.6, 10.02 24.9, 10.02 25.86 C 10.02 26.52, 9.989999999999998 26.655, 10.02 27.18 C 10.08 27.57, 10.08 27.465, 10.14 27.96 C 10.2 28.560000000000002, 10.2 28.470000000000006, 10.26 29.160000000000004 C 10.32 29.94, 10.274999999999999 30.060000000000002, 10.379999999999999 30.72 C 10.53 31.259999999999998, 10.53 31.364999999999995, 10.68 31.799999999999997 C 10.83 32.129999999999995, 10.8 32.19, 10.98 32.46 C 11.19 32.67, 10.95 32.790000000000006, 11.399999999999999 32.88 C 12.09 32.85, 11.985 33.18, 12.78 32.82 C 13.68 32.13, 13.725000000000001 32.49, 14.580000000000002 31.44 C 15.390000000000002 30.03, 15.675000000000004 30.194999999999997, 16.200000000000003 28.619999999999997 C 16.44 26.88, 16.560000000000002 26.07, 16.68 25.14 C 16.68 25.020000000000003, 16.814999999999998 24.240000000000002, 16.68 24.900000000000002 C 16.41 26.340000000000003, 16.17 26.220000000000002, 16.14 27.78 C 16.35 29.46, 15.629999999999999 29.94, 16.56 31.14 C 18.21 31.86, 17.55 32.265, 19.86 32.58 C 22.83 32.49, 22.934999999999995 33.06, 25.799999999999997 32.400000000000006 C 28.56 31.17, 29.895 30.585, 31.32 29.94 L 31.5 29.82" fill="none" stroke="black" stroke-width="2"></path><path d="M 9.84 39.599999999999994 C 12.030000000000001 39.599999999999994, 11.715 39.629999999999995, 14.22 39.599999999999994 C 17.04 39.54, 16.125 39.510000000000005, 19.86 39.480000000000004 C 24.51 39.480000000000004, 26.070000000000004 39.480000000000004, 29.160000000000004 39.480000000000004 C 30.69 39.480000000000004, 31.125 39.465, 32.22 39.480000000000004 L 33.54 39.54" fill="none" stroke="black" stroke-width="2"></path></svg>