<svg width="48" height="48" viewBox="0 0 48 48" xmlns="http://www.w3.org/2000/svg"><path d="M 16.62 3.54 C 16.35 4.17, 16.485000000000003 3.945000000000001, 16.080000000000002 4.800000000000001 C 15.540000000000001 5.88, 15.48 5.999999999999999, 15 6.959999999999999 C 14.58 7.8, 14.415 8.115, 14.16 8.64 C 14.07 8.850000000000001, 14.025 8.895, 13.98 9.06 C 13.98 9.18, 13.935 9.120000000000001, 13.98 9.3 C 14.07 9.54, 13.83 9.645, 14.16 9.78 C 14.73 9.809999999999999, 14.625 9.825, 15.299999999999999 9.84 C 16.08 9.84, 15.344999999999999 9.899999999999999, 16.86 9.84 C 19.11 9.72, 19.034999999999997 9.66, 21.36 9.600000000000001 C 23.76 9.600000000000001, 23.700000000000003 9.600000000000001, 26.160000000000004 9.600000000000001 C 28.680000000000003 9.600000000000001, 29.190000000000005 9.600000000000001, 31.200000000000003 9.600000000000001 C 32.7 9.600000000000001, 33.405 9.600000000000001, 34.2 9.600000000000001 C 34.290000000000006 9.600000000000001, 34.335 9.600000000000001, 34.38 9.600000000000001 L 34.38 9.600000000000001" fill="none" stroke="black" stroke-width="2"></path><path d="M 14.16 43.980000000000004 C 13.89 42.63, 13.815000000000001 43.425, 13.620000000000001 41.28 C 13.5 38.34, 13.44 37.935, 13.379999999999999 35.400000000000006 C 13.379999999999999 33.27, 13.29 33.09, 13.379999999999999 31.14 C 13.559999999999999 29.369999999999997, 13.395 29.759999999999998, 13.74 27.599999999999998 C 14.25 25.049999999999997, 14.31 24.45, 14.76 22.5 C 15.149999999999999 21.15, 15.075 20.864999999999995, 15.54 19.799999999999997 C 16.08 19.02, 16.095 18.885, 16.62 18.240000000000002 C 17.130000000000003 17.73, 17.220000000000002 17.535, 17.64 17.22 C 17.97 17.1, 17.894999999999996 16.86, 18.299999999999997 16.98 C 18.779999999999998 17.340000000000003, 18.764999999999997 17.160000000000004, 19.259999999999998 17.700000000000003 C 19.77 18.42, 19.755000000000003 18.21, 20.28 19.14 C 20.82 20.28, 20.925 20.459999999999997, 21.36 21.419999999999998 C 21.689999999999998 22.2, 21.78 22.395, 22.02 22.98 C 22.17 23.369999999999997, 22.245 23.564999999999998, 22.32 23.759999999999998 C 22.32 23.759999999999998, 22.305 23.714999999999996, 22.32 23.759999999999998 C 22.35 23.85, 22.335 24.135, 22.38 23.94 C 22.439999999999998 23.46, 22.32 24.195, 22.5 22.98 C 22.8 21.03, 22.71 20.595000000000002, 23.1 19.080000000000002 C 23.58 18, 23.625 17.669999999999998, 24.06 16.919999999999998 C 24.449999999999996 16.5, 24.194999999999997 16.395000000000003, 24.839999999999996 16.080000000000002 C 25.74 15.870000000000001, 25.424999999999997 15.72, 26.64 15.66 C 28.17 15.75, 28.440000000000005 15.525, 29.700000000000003 15.84 C 30.69 16.38, 30.93 16.394999999999996, 31.68 16.919999999999998 C 32.19 17.43, 32.07 16.950000000000003, 32.7 17.94 C 33.45 19.41, 33.540000000000006 19.125, 34.2 20.88 C 34.769999999999996 22.92, 34.83 22.845000000000002, 35.339999999999996 24.96 C 35.79 27.15, 35.97 27.644999999999996, 36.24 29.339999999999996 C 36.33 30.54, 36.375 30.57, 36.42 31.740000000000002 C 36.42 32.879999999999995, 36.435 33.074999999999996, 36.42 34.019999999999996 C 36.39 34.769999999999996, 36.614999999999995 34.8, 36.36 35.519999999999996 C 35.88 36.21, 35.82000000000001 36.39, 35.400000000000006 36.900000000000006 C 35.040000000000006 37.230000000000004, 35.115 37.155, 34.68 37.56 C 34.17 38.04, 34.125 38.16, 33.660000000000004 38.519999999999996 C 33.24 38.76, 33.225 38.835, 32.82 39 C 32.43 39.09, 32.49 39.09, 32.04 39.18 C 31.53 39.269999999999996, 31.5 39.315, 31.02 39.36 C 30.57 39.36, 30.554999999999996 39.45, 30.119999999999997 39.36 C 29.7 39.18, 29.745 39.3, 29.28 39 C 28.77 38.58, 28.845 38.745000000000005, 28.259999999999998 38.160000000000004 C 27.6 37.410000000000004, 27.435000000000002 37.425000000000004, 26.94 36.660000000000004 C 26.61 35.879999999999995, 26.490000000000002 36.059999999999995, 26.28 35.099999999999994 C 26.189999999999998 33.959999999999994, 26.145 33.765, 26.099999999999998 32.82 C 26.099999999999998 32.07, 26.099999999999998 31.740000000000002, 26.099999999999998 31.32 L 26.099999999999998 31.14" fill="none" stroke="black" stroke-width="2"></path></svg>