<svg width="48" height="48" viewBox="0 0 48 48" xmlns="http://www.w3.org/2000/svg"><path d="M 14.700000000000001 3.66 C 13.47 4.92, 13.290000000000001 4.965, 12.24 6.18 C 11.370000000000001 7.35, 11.115 7.529999999999999, 10.5 8.52 C 10.14 9.33, 9.989999999999998 9.525, 9.78 10.14 C 9.719999999999999 10.56, 9.69 10.635000000000002, 9.66 10.98 C 9.66 11.25, 9.54 11.265, 9.66 11.52 C 9.9 11.76, 9.75 11.835, 10.14 12 C 10.68 12.09, 10.035 12.135, 11.22 12.18 C 13.05 12.18, 12.645 12.285, 14.879999999999999 12.18 C 17.52 11.969999999999999, 17.655 11.985, 20.16 11.76 C 22.53 11.52, 22.770000000000003 11.535, 24.900000000000002 11.28 C 26.79 11.01, 27.345 10.935, 28.68 10.74 C 29.46 10.620000000000001, 29.595000000000002 10.605, 30.240000000000002 10.5 C 30.75 10.41, 30.93 10.365, 31.259999999999998 10.32 C 31.409999999999997 10.32, 31.485 10.32, 31.56 10.32 L 31.56 10.32" fill="none" stroke="black" stroke-width="2"></path><path d="M 15 12.78 C 14.61 13.379999999999999, 14.745000000000001 12.855, 14.22 13.98 C 13.559999999999999 15.63, 13.499999999999998 15.690000000000001, 12.899999999999999 17.28 C 12.36 18.810000000000002, 12.36 18.48, 11.82 20.34 C 11.280000000000001 22.53, 11.205 22.544999999999998, 10.74 24.72 C 10.35 26.88, 10.305 27.255, 9.959999999999999 29.04 C 9.66 30.45, 9.645 30.345, 9.36 31.86 C 9.09 33.48, 9.045 33.46499999999999, 8.82 35.099999999999994 C 8.64 36.75, 8.565 36.915000000000006, 8.459999999999999 38.400000000000006 C 8.43 39.72, 8.415 39.975, 8.399999999999999 41.04 C 8.399999999999999 41.85, 8.399999999999999 41.730000000000004, 8.399999999999999 42.660000000000004 C 8.399999999999999 43.71, 8.399999999999999 44.085, 8.399999999999999 44.76 C 8.399999999999999 45.06, 8.399999999999999 45.18, 8.399999999999999 45.36 C 8.399999999999999 45.42, 8.399999999999999 45.45, 8.399999999999999 45.480000000000004 L 8.399999999999999 45.480000000000004" fill="none" stroke="black" stroke-width="2"></path><path d="M 8.58 40.8 C 9.06 40.92, 8.73 40.98, 9.540000000000001 41.04 C 10.68 41.04, 10.665000000000001 41.055, 11.82 41.04 C 12.99 41.010000000000005, 13.455 40.995000000000005, 14.16 40.980000000000004 L 14.64 40.980000000000004" fill="none" stroke="black" stroke-width="2"></path><path d="M 10.26 35.58 C 11.940000000000001 35.25, 12.075000000000001 35.595, 13.620000000000001 34.92 C 15.030000000000001 33.900000000000006, 15.060000000000002 34.230000000000004, 16.44 32.88 C 17.79 31.200000000000003, 18.255000000000003 30.645, 19.14 29.52 C 19.560000000000002 28.950000000000003, 19.77 28.665000000000003, 19.98 28.380000000000003 C 19.98 28.380000000000003, 19.965 28.110000000000003, 19.98 28.380000000000003 C 20.009999999999998 28.92, 19.919999999999998 28.740000000000002, 20.04 29.46 C 20.25 30.36, 20.025 30.419999999999998, 20.46 31.259999999999998 C 21.12 32.04, 20.97 32.19, 21.78 32.82 C 22.740000000000002 33.3, 22.605000000000004 33.45, 23.700000000000003 33.78 C 24.930000000000003 33.96, 25.200000000000003 34.185, 26.160000000000004 34.14 C 26.85 33.87, 26.82 34.199999999999996, 27.54 33.599999999999994 C 28.29 32.67, 28.515 32.775, 29.04 31.740000000000002 C 29.34 30.6, 29.445 30.975, 29.64 29.46 C 29.73 27.57, 29.775 27.315, 29.82 25.68 C 29.82 24.299999999999997, 29.97 24.269999999999996, 29.82 22.919999999999998 C 29.52 21.6, 29.58 22.080000000000002, 29.22 20.28 C 28.8 18, 28.800000000000004 17.565, 28.380000000000003 15.72 C 27.96 14.309999999999999, 27.87 13.86, 27.54 12.899999999999999 C 27.299999999999997 12.389999999999999, 27.224999999999998 12.209999999999999, 27.06 11.879999999999999 C 26.97 11.73, 26.925 11.655, 26.880000000000003 11.58 C 26.880000000000003 11.58, 26.880000000000003 11.58, 26.880000000000003 11.58 L 26.880000000000003 11.58" fill="none" stroke="black" stroke-width="2"></path></svg>