<svg width="48" height="48" viewBox="0 0 48 48" xmlns="http://www.w3.org/2000/svg"><path d="M 18.299999999999997 5.64 C 17.669999999999998 8.31, 17.834999999999997 8.505, 17.04 10.98 C 16.08 13.26, 16.47 13.62, 15.120000000000001 15.54 C 13.38 17.1, 13.200000000000001 17.490000000000002, 11.64 18.66 L 8.879999999999999 20.22" fill="none" stroke="black" stroke-width="2"></path><path d="M 14.879999999999999 14.580000000000002 C 15.36 14.64, 14.625 14.64, 15.84 14.700000000000001 C 17.79 14.760000000000002, 17.430000000000003 14.790000000000001, 19.740000000000002 14.82 C 22.41 14.82, 22.994999999999997 14.82, 25.08 14.82 C 26.58 14.82, 27.254999999999995 14.82, 28.08 14.82 L 28.380000000000003 14.82" fill="none" stroke="black" stroke-width="2"></path><path d="M 7.68 43.08 C 8.07 43.08, 7.919999999999999 43.184999999999995, 8.459999999999999 43.08 C 9.149999999999999 42.870000000000005, 8.535 43.59, 9.84 42.660000000000004 C 11.76 41.010000000000005, 12.254999999999999 40.89, 13.68 39.36 C 14.61 37.95, 14.834999999999999 38.01, 15.54 36.54 C 16.02 35.010000000000005, 16.17 34.74, 16.5 33.480000000000004 C 16.68 32.49, 16.56 32.910000000000004, 16.86 31.5 C 17.28 29.669999999999998, 17.295 29.609999999999996, 17.700000000000003 27.839999999999996 C 18.090000000000003 26.13, 18.060000000000002 26.130000000000003, 18.48 24.42 C 18.93 22.71, 19.035 22.365000000000002, 19.38 21 C 19.619999999999997 19.98, 19.634999999999998 19.89, 19.86 18.96 C 20.07 18.12, 20.175 18.015, 20.28 17.28 C 20.28 16.65, 20.235 16.5, 20.28 16.02 C 20.37 15.69, 20.415 15.57, 20.46 15.36 C 20.46 15.27, 20.46 15.225, 20.46 15.18 C 20.46 15.18, 20.415 15.21, 20.46 15.18 C 20.55 15.12, 20.58 14.459999999999997, 20.64 15.059999999999999 C 20.67 16.32, 20.685000000000002 16.41, 20.700000000000003 17.580000000000002 C 20.700000000000003 18.660000000000004, 20.745000000000005 18.270000000000003, 20.700000000000003 19.740000000000002 C 20.61 21.6, 20.505000000000003 21.285, 20.52 23.46 C 20.64 25.950000000000003, 20.354999999999997 25.785000000000004, 20.759999999999998 28.44 C 21.45 31.259999999999998, 21.54 32.01, 22.14 34.08 C 22.65 35.4, 22.59 35.43, 23.16 36.72 C 23.79 37.980000000000004, 23.715000000000003 38.265, 24.42 39.24 C 25.200000000000003 39.93, 25.155 40.095, 25.98 40.62 C 26.85 40.98, 27.06 41.099999999999994, 27.72 41.339999999999996 C 28.169999999999998 41.459999999999994, 28.394999999999996 41.519999999999996, 28.619999999999997 41.58 C 28.619999999999997 41.58, 28.619999999999997 41.58, 28.619999999999997 41.58 L 28.619999999999997 41.58" fill="none" stroke="black" stroke-width="2"></path></svg>