<svg width="48" height="48" viewBox="0 0 48 48" xmlns="http://www.w3.org/2000/svg"><path d="M 19.02 4.14 C 18.78 4.74, 19.02 4.08, 18.54 5.34 C 17.82 7.26, 17.835 7.47, 17.1 9.18 C 16.35 10.68, 16.425 10.844999999999999, 15.600000000000001 12.18 C 14.7 13.35, 14.655 13.605, 13.799999999999999 14.52 C 12.989999999999998 15.18, 13.17 15.135, 12.18 15.84 C 11.01 16.59, 10.635 16.86, 9.84 17.34 C 9.42 17.549999999999997, 9.24 17.639999999999997, 9 17.759999999999998 L 8.879999999999999 17.82" fill="none" stroke="black" stroke-width="2"></path><path d="M 15.54 12.54 C 15.959999999999999 12.54, 15.375 12.54, 16.38 12.54 C 17.97 12.54, 17.88 12.54, 19.56 12.54 C 21.33 12.54, 21.495 12.524999999999999, 23.1 12.54 C 24.54 12.57, 24.675 12.585, 25.98 12.600000000000001 C 27.15 12.600000000000001, 27.63 12.600000000000001, 28.32 12.600000000000001 C 28.53 12.600000000000001, 28.590000000000003 12.600000000000001, 28.740000000000002 12.600000000000001 L 28.92 12.600000000000001" fill="none" stroke="black" stroke-width="2"></path><path d="M 28.14 7.26 C 28.29 8.370000000000001, 28.185000000000002 8.235, 28.44 9.48 C 28.800000000000004 10.86, 28.800000000000004 10.695, 29.160000000000004 12.24 C 29.520000000000003 13.95, 29.475 13.815, 29.880000000000003 15.66 C 30.330000000000002 17.64, 30.525000000000002 18.075000000000003, 30.78 19.62 C 30.840000000000003 20.73, 30.87 20.565, 30.900000000000002 21.84 C 30.900000000000002 23.28, 31.155 23.115, 30.900000000000002 24.72 C 30.39 26.49, 30.435000000000002 26.819999999999997, 29.880000000000003 28.259999999999998 C 29.28 29.369999999999997, 29.22 29.7, 28.68 30.48 C 28.2 30.93, 28.305 31.095000000000002, 27.72 31.380000000000003 C 27.029999999999998 31.5, 27.164999999999996 31.814999999999998, 26.339999999999996 31.619999999999997 C 25.38 31.11, 25.380000000000003 31.439999999999998, 24.42 30.599999999999998 C 23.46 29.43, 23.22 29.369999999999997, 22.5 28.259999999999998 C 22.02 27.21, 21.81 26.790000000000003, 21.54 26.160000000000004 C 21.479999999999997 25.950000000000003, 21.464999999999996 25.890000000000004, 21.419999999999998 25.740000000000002 C 21.39 25.65, 21.33 25.59, 21.36 25.56 C 21.45 25.589999999999996, 21.494999999999997 25.064999999999998, 21.54 25.619999999999997 C 21.54 26.7, 21.54 26.745, 21.54 27.78 C 21.54 28.77, 21.735 28.74, 21.54 29.759999999999998 C 21.15 30.81, 21.54 30.945, 20.759999999999998 31.86 C 19.589999999999996 32.64, 19.694999999999997 32.94, 18.419999999999998 33.42 C 17.04 33.6, 16.98 33.69, 15.66 33.78 C 14.4 33.78, 14.49 33.885000000000005, 13.14 33.78 C 11.7 33.57, 11.219999999999999 33.525, 10.26 33.36 C 9.780000000000001 33.239999999999995, 9.765 33.239999999999995, 9.3 33.12 C 8.85 33, 8.79 32.955, 8.399999999999999 32.88 C 8.07 32.85, 7.949999999999999 32.865, 7.74 32.82 L 7.5600000000000005 32.7" fill="none" stroke="black" stroke-width="2"></path><path d="M 17.52 33.36 C 17.43 34.08, 17.384999999999998 33.78, 17.34 34.8 C 17.34 36.12, 17.325 35.97, 17.34 37.44 C 17.369999999999997 39.06, 17.339999999999996 39.48, 17.4 40.68 C 17.490000000000002 41.46, 17.535 41.445, 17.580000000000002 42.24 C 17.580000000000002 43.05, 17.580000000000002 43.11, 17.580000000000002 43.86 C 17.580000000000002 44.55, 17.580000000000002 44.745000000000005, 17.580000000000002 45.24 C 17.580000000000002 45.54, 17.580000000000002 45.525, 17.580000000000002 45.839999999999996 C 17.580000000000002 46.17, 17.580000000000002 46.335, 17.580000000000002 46.5 C 17.580000000000002 46.5, 17.580000000000002 46.5, 17.580000000000002 46.5 L 17.580000000000002 46.5" fill="none" stroke="black" stroke-width="2"></path></svg>