<svg width="48" height="48" viewBox="0 0 48 48" xmlns="http://www.w3.org/2000/svg"><path d="M 16.740000000000002 4.32 C 15.75 5.49, 15.63 5.535, 14.76 6.66 C 14.01 7.74, 13.83 8.025, 13.26 8.82 C 12.870000000000001 9.33, 12.735 9.344999999999999, 12.48 9.84 C 12.36 10.32, 12.3 10.41, 12.24 10.8 C 12.24 11.1, 12.105 11.084999999999999, 12.24 11.399999999999999 C 12.51 11.729999999999999, 12.524999999999999 11.774999999999999, 12.78 12.059999999999999 C 13.02 12.299999999999999, 12.719999999999999 12.389999999999999, 13.26 12.54 C 14.100000000000001 12.6, 13.755 12.72, 14.940000000000001 12.66 C 16.47 12.48, 16.395 12.45, 18 12.299999999999999 C 19.68 12.18, 19.65 12.179999999999998, 21.36 12.059999999999999 C 23.099999999999998 11.94, 23.039999999999996 11.925, 24.839999999999996 11.82 C 26.699999999999996 11.73, 26.265 11.760000000000002, 28.56 11.64 C 31.29 11.49, 32.01 11.475, 34.019999999999996 11.34 C 35.309999999999995 11.22, 35.489999999999995 11.175, 36.599999999999994 11.100000000000001 C 37.53 11.07, 37.875 11.055000000000001, 38.46 11.040000000000001 C 38.7 11.040000000000001, 38.82 11.040000000000001, 38.94 11.040000000000001 C 38.94 11.040000000000001, 38.94 11.040000000000001, 38.94 11.040000000000001 L 38.94 11.040000000000001" fill="none" stroke="black" stroke-width="2"></path><path d="M 17.88 12.78 C 17.4 13.71, 17.325 13.665000000000001, 16.919999999999998 14.64 C 16.589999999999996 15.66, 16.619999999999997 15.27, 16.259999999999998 16.68 C 15.87 18.48, 15.825 18.465, 15.48 20.28 C 15.18 22.11, 15.12 22.275000000000002, 14.879999999999999 23.94 C 14.7 25.44, 14.61 25.515, 14.52 26.94 C 14.52 28.29, 14.52 28.575, 14.52 29.64 C 14.52 30.42, 14.52 30.270000000000003, 14.52 31.200000000000003 C 14.52 32.28, 14.52 32.355000000000004, 14.52 33.36 C 14.52 34.29, 14.52 34.125, 14.52 35.22 C 14.52 36.480000000000004, 14.52 36.705, 14.52 37.74 C 14.52 38.55, 14.43 38.49, 14.52 39.36 C 14.7 40.29, 14.7 40.29, 14.879999999999999 41.22 C 15.059999999999999 42.15, 15.09 42.375, 15.24 43.08 C 15.36 43.56, 15.39 43.725, 15.48 44.04 C 15.540000000000001 44.19, 15.57 44.265, 15.600000000000001 44.339999999999996 C 15.600000000000001 44.339999999999996, 15.600000000000001 44.339999999999996, 15.600000000000001 44.339999999999996 C 15.600000000000001 44.339999999999996, 15.600000000000001 44.339999999999996, 15.600000000000001 44.339999999999996 C 15.600000000000001 44.339999999999996, 15.600000000000001 44.339999999999996, 15.600000000000001 44.339999999999996 C 15.600000000000001 44.339999999999996, 15.450000000000001 44.339999999999996, 15.600000000000001 44.339999999999996 C 15.900000000000002 44.339999999999996, 15.360000000000003 44.504999999999995, 16.200000000000003 44.339999999999996 C 17.580000000000002 44.01, 17.565 43.89, 18.96 43.68 C 20.37 43.59, 20.475 43.545, 21.78 43.5 C 22.98 43.5, 23.265 43.5, 24.18 43.5 C 24.810000000000002 43.5, 25.020000000000003 43.485, 25.44 43.5 C 25.65 43.53, 25.71 43.515, 25.86 43.56 C 25.95 43.620000000000005, 25.994999999999997 43.65, 26.04 43.68 L 26.04 43.68" fill="none" stroke="black" stroke-width="2"></path><path d="M 14.76 33.3 C 14.79 33.36, 14.415000000000001 33.45, 14.82 33.42 C 15.6 33.3, 15.014999999999999 33.465, 16.38 33.18 C 18.33 32.730000000000004, 18.165000000000003 32.64, 20.28 32.28 C 22.56 32.010000000000005, 22.275 31.875, 24.839999999999996 31.740000000000002 C 27.689999999999998 31.740000000000002, 28.394999999999996 31.740000000000002, 30.54 31.740000000000002 C 31.98 31.740000000000002, 32.010000000000005 31.740000000000002, 33.42 31.740000000000002 C 34.8 31.740000000000002, 35.13 31.740000000000002, 36.18 31.740000000000002 C 36.9 31.740000000000002, 37.11 31.740000000000002, 37.62 31.740000000000002 C 37.92 31.740000000000002, 38.04 31.740000000000002, 38.22 31.740000000000002 C 38.28 31.740000000000002, 38.309999999999995 31.740000000000002, 38.339999999999996 31.740000000000002 C 38.339999999999996 31.740000000000002, 38.339999999999996 31.740000000000002, 38.339999999999996 31.740000000000002 L 38.339999999999996 31.740000000000002" fill="none" stroke="black" stroke-width="2"></path></svg>