<svg width="48" height="48" viewBox="0 0 48 48" xmlns="http://www.w3.org/2000/svg"><path d="M 16.5 4.5600000000000005 C 15.78 5.220000000000001, 15.689999999999998 5.28, 15.059999999999999 5.88 C 14.52 6.42, 14.565 6.3149999999999995, 13.98 6.959999999999999 C 13.350000000000001 7.709999999999999, 13.200000000000001 7.799999999999999, 12.72 8.459999999999999 C 12.39 9.030000000000001, 12.329999999999998 9.105, 12.059999999999999 9.600000000000001 C 11.85 10.02, 11.76 10.11, 11.64 10.44 C 11.61 10.68, 11.595 10.8, 11.58 10.92 C 11.58 10.92, 11.46 10.785, 11.58 10.92 C 11.82 11.19, 11.549999999999999 11.235, 12.059999999999999 11.459999999999999 C 12.84 11.64, 12.540000000000001 11.685, 13.620000000000001 11.82 C 15 11.91, 14.849999999999998 11.955, 16.38 12 C 18.060000000000002 12, 17.955000000000002 12.015, 19.740000000000002 12 C 21.630000000000003 11.969999999999999, 21.075 11.955, 23.52 11.94 C 26.52 11.94, 27.09 12, 29.52 11.94 C 31.380000000000003 11.82, 31.995 11.76, 33.24 11.7 C 33.870000000000005 11.7, 34.155 11.7, 34.5 11.7 L 34.62 11.7" fill="none" stroke="black" stroke-width="2"></path><path d="M 10.74 44.519999999999996 C 10.74 42.87, 10.68 43.635, 10.74 41.22 C 10.86 38.04, 10.86 37.739999999999995, 10.98 34.86 C 11.100000000000001 32.28, 11.16 31.740000000000002, 11.22 29.700000000000003 C 11.22 28.200000000000003, 11.22 27.885000000000005, 11.22 26.700000000000003 C 11.22 25.830000000000002, 11.175 25.905, 11.22 24.96 C 11.309999999999999 23.939999999999998, 11.264999999999999 23.924999999999997, 11.399999999999999 22.919999999999998 C 11.579999999999998 21.93, 11.459999999999999 21.720000000000002, 11.76 20.94 C 12.18 20.369999999999997, 12.135000000000002 20.369999999999997, 12.600000000000001 19.799999999999997 C 13.110000000000001 19.229999999999997, 12.780000000000001 19.185, 13.620000000000001 18.66 C 14.790000000000001 18.18, 14.64 18.015000000000004, 15.96 17.700000000000003 C 17.43 17.55, 17.325 17.52, 18.9 17.4 C 20.58 17.31, 20.714999999999996 17.265, 22.259999999999998 17.22 C 23.669999999999998 17.22, 23.865 17.22, 25.08 17.22 C 26.099999999999998 17.22, 26.055 17.22, 27.119999999999997 17.22 C 28.229999999999997 17.22, 28.424999999999997 17.22, 29.339999999999996 17.22 C 30.06 17.22, 30.18 17.174999999999997, 30.78 17.22 C 31.26 17.31, 31.335 17.22, 31.740000000000002 17.4 C 32.07000000000001 17.67, 31.980000000000004 17.43, 32.400000000000006 17.94 C 32.910000000000004 18.69, 33.045 18.225, 33.42 19.44 C 33.660000000000004 21.119999999999997, 33.79500000000001 20.7, 33.900000000000006 22.799999999999997 C 33.870000000000005 25.319999999999997, 33.959999999999994 25.679999999999996, 33.839999999999996 27.839999999999996 C 33.629999999999995 29.64, 33.63 29.475, 33.42 31.44 C 33.21 33.57, 33.15 34.035000000000004, 33 35.7 C 32.91 36.9, 32.91 36.94499999999999, 32.82 38.099999999999994 C 32.730000000000004 39.209999999999994, 32.715 39.405, 32.64 40.32 C 32.58 41.04, 32.55 41.16, 32.519999999999996 41.76 C 32.519999999999996 42.239999999999995, 32.565 42.33, 32.519999999999996 42.72 C 32.42999999999999 43.019999999999996, 32.385 43.17, 32.339999999999996 43.32 C 32.339999999999996 43.32, 32.339999999999996 43.32, 32.339999999999996 43.32 L 32.339999999999996 43.32" fill="none" stroke="black" stroke-width="2"></path><path d="M 21.96 25.08 C 21.270000000000003 25.29, 21.21 25.155, 20.580000000000002 25.5 C 20.01 25.98, 20.1 25.71, 19.44 26.46 C 18.69 27.48, 18.42 27.495, 17.94 28.5 C 17.73 29.490000000000002, 17.625 29.505, 17.52 30.48 C 17.52 31.440000000000005, 17.49 31.545000000000005, 17.52 32.400000000000006 C 17.58 33.150000000000006, 17.415 33.315000000000005, 17.64 33.900000000000006 C 18.03 34.32000000000001, 17.97 34.35, 18.419999999999998 34.74 C 18.93 35.1, 18.720000000000002 35.22, 19.44 35.46 C 20.369999999999997 35.58, 20.174999999999997 35.715, 21.299999999999997 35.7 C 22.619999999999997 35.550000000000004, 22.83 35.67000000000001, 23.94 35.400000000000006 C 24.840000000000003 35.010000000000005, 25.125 35.07, 25.740000000000002 34.62 C 26.07 34.11, 26.175000000000004 34.12499999999999, 26.400000000000002 33.599999999999994 C 26.520000000000003 33.059999999999995, 26.580000000000002 33.089999999999996, 26.64 32.519999999999996 C 26.64 31.919999999999998, 26.775000000000002 32.175, 26.64 31.32 C 26.369999999999997 30.21, 26.4 30.074999999999996, 26.099999999999998 29.099999999999998 C 25.77 28.259999999999998, 25.755000000000003 28.05, 25.44 27.42 C 25.14 27, 25.214999999999996 27.03, 24.839999999999996 26.58 C 24.39 26.099999999999998, 24.495 25.934999999999995, 23.94 25.619999999999997 C 23.28 25.47, 23.235 25.395, 22.62 25.32 C 22.05 25.32, 21.765 25.32, 21.48 25.32 C 21.48 25.32, 21.48 25.32, 21.48 25.32 L 21.48 25.32" fill="none" stroke="black" stroke-width="2"></path></svg>