<svg width="48" height="48" viewBox="0 0 48 48" xmlns="http://www.w3.org/2000/svg"><path d="M 16.86 4.74 C 16.86 5.1899999999999995, 16.919999999999998 4.949999999999999, 16.86 5.64 C 16.740000000000002 6.57, 16.770000000000003 6.4350000000000005, 16.62 7.5 C 16.439999999999998 8.7, 16.604999999999997 8.714999999999998, 16.259999999999998 9.899999999999999 C 15.75 11.07, 16.02 11.01, 15.24 12.24 C 14.190000000000001 13.530000000000001, 14.31 13.725, 13.14 14.82 C 11.850000000000001 15.72, 11.43 16.020000000000003, 10.56 16.62 L 9.66 17.22" fill="none" stroke="black" stroke-width="2"></path><path d="M 15.48 12.36 C 16.08 12.36, 15.735 12.419999999999998, 16.68 12.36 C 17.97 12.24, 17.97 12.18, 19.259999999999998 12.120000000000001 C 20.549999999999997 12.120000000000001, 20.04 12.135000000000002, 21.84 12.120000000000001 C 24.15 12.09, 24.84 12.104999999999999, 26.46 12.059999999999999 C 27.39 12, 27.705 11.969999999999999, 28.32 11.94 C 28.62 11.94, 28.770000000000003 11.94, 28.92 11.94 L 28.92 11.94" fill="none" stroke="black" stroke-width="2"></path><path d="M 28.68 5.16 C 28.68 5.55, 28.68 5.1899999999999995, 28.68 5.9399999999999995 C 28.68 7.05, 28.68 7.155, 28.68 8.16 C 28.68 9.059999999999999, 28.56 8.729999999999999, 28.68 9.959999999999999 C 28.92 11.52, 28.905 11.265000000000002, 29.160000000000004 13.080000000000002 C 29.430000000000003 15.15, 29.430000000000003 15.285, 29.700000000000003 17.22 C 29.970000000000002 19.02, 29.895000000000003 18.84, 30.240000000000002 20.82 C 30.66 22.98, 30.765 23.085, 31.08 25.14 C 31.29 27.09, 31.335 27.104999999999997, 31.5 29.04 C 31.62 30.96, 31.635 30.915, 31.740000000000002 32.88 C 31.830000000000002 34.89, 31.875 34.935, 31.92 36.900000000000006 C 31.92 38.82000000000001, 31.980000000000004 39.19500000000001, 31.92 40.74 C 31.8 41.91, 31.950000000000003 41.97, 31.68 43.08 C 31.259999999999998 44.129999999999995, 31.544999999999995 44.46, 30.839999999999996 45.18 C 29.849999999999998 45.57, 29.894999999999996 45.81, 28.86 45.96 C 27.78 45.870000000000005, 27.57 45.975, 26.700000000000003 45.78 C 26.040000000000003 45.480000000000004, 25.980000000000004 45.6, 25.380000000000003 45.18 C 24.84 44.64, 24.509999999999998 45.044999999999995, 24.299999999999997 44.099999999999994 C 24.419999999999998 42.75, 23.88 42.55500000000001, 24.54 41.400000000000006 C 25.740000000000002 40.440000000000005, 26.04 40.050000000000004, 26.94 39.480000000000004 C 27.54 39.3, 27.45 39.21, 28.14 39.12 C 28.92 39.12, 29.085000000000004 39.12, 29.700000000000003 39.12 C 30.15 39.12, 30.255 39.105, 30.599999999999998 39.12 C 30.839999999999996 39.15, 30.915 39.165, 31.08 39.18 C 31.169999999999998 39.18, 31.214999999999996 39.18, 31.259999999999998 39.18 L 31.259999999999998 39.18" fill="none" stroke="black" stroke-width="2"></path><path d="M 31.200000000000003 31.68 C 30.090000000000003 32.040000000000006, 30.330000000000002 32.010000000000005, 28.98 32.400000000000006 C 27.39 32.82000000000001, 27.24 33.03, 25.799999999999997 33.24 C 24.509999999999998 33.24, 24.555 33.660000000000004, 23.22 33.24 C 21.84 32.4, 21.54 32.805, 20.46 31.56 C 19.68 29.909999999999997, 19.41 29.519999999999996, 18.9 28.259999999999998 C 18.659999999999997 27.39, 18.555 26.985, 18.419999999999998 26.52 C 18.39 26.46, 18.615 26.1, 18.36 26.400000000000002 C 17.88 27.060000000000002, 18.24 26.31, 17.4 27.72 C 16.2 29.88, 15.989999999999998 30.525, 15 32.04 C 14.22 32.91, 14.475000000000001 33.075, 13.440000000000001 33.78 C 12.15 34.32, 11.895 34.53, 10.86 34.86 C 10.08 34.98, 9.765 35.05499999999999, 9.3 35.099999999999994 L 9 35.04" fill="none" stroke="black" stroke-width="2"></path></svg>