<svg width="48" height="48" viewBox="0 0 48 48" xmlns="http://www.w3.org/2000/svg"><path d="M 15.48 5.28 C 15.48 5.58, 15.615 5.31, 15.48 5.88 C 15.21 6.720000000000001, 15.3 6.4350000000000005, 14.940000000000001 7.5600000000000005 C 14.49 8.969999999999999, 14.73 9.014999999999999, 14.04 10.379999999999999 C 13.11 11.7, 13.11 11.924999999999999, 12.18 13.02 C 11.25 13.89, 10.86 14.265, 10.32 14.76 C 10.17 14.879999999999999, 10.094999999999999 14.94, 10.02 15 L 10.02 15" fill="none" stroke="black" stroke-width="2"></path><path d="M 13.32 10.74 C 13.68 10.77, 13.605 10.785, 14.04 10.8 C 14.549999999999999 10.8, 14.189999999999998 10.8, 15.059999999999999 10.8 C 16.29 10.8, 16.259999999999998 10.8, 17.52 10.8 C 18.810000000000002 10.8, 18.855 10.815000000000001, 20.1 10.8 C 21.3 10.77, 21.465 10.755, 22.5 10.74 C 23.37 10.74, 23.355000000000004 10.74, 24.240000000000002 10.74 C 25.14 10.74, 25.439999999999998 10.74, 26.04 10.74 C 26.34 10.74, 26.46 10.74, 26.64 10.74 C 26.7 10.74, 26.729999999999997 10.74, 26.759999999999998 10.74 L 26.759999999999998 10.74" fill="none" stroke="black" stroke-width="2"></path><path d="M 8.879999999999999 32.28 C 9.48 32.22, 9.135 32.23500000000001, 10.08 32.160000000000004 C 11.370000000000001 32.07, 11.4 32.025, 12.66 31.98 C 13.89 31.98, 13.830000000000002 32.07, 15.120000000000001 31.98 C 16.47 31.799999999999997, 16.560000000000002 31.709999999999997, 17.82 31.619999999999997 C 18.990000000000002 31.619999999999997, 19.155 31.619999999999997, 20.16 31.619999999999997 C 21 31.619999999999997, 21.134999999999998 31.619999999999997, 21.84 31.619999999999997 C 22.41 31.619999999999997, 22.335 31.619999999999997, 22.98 31.619999999999997 C 23.700000000000003 31.619999999999997, 23.745 31.559999999999995, 24.42 31.619999999999997 C 25.05 31.74, 25.200000000000003 31.71, 25.68 31.86 C 26.009999999999998 32.04, 25.964999999999996 31.994999999999997, 26.339999999999996 32.22 C 26.759999999999998 32.489999999999995, 26.865 32.489999999999995, 27.18 32.76 C 27.39 33.03, 27.314999999999998 32.80499999999999, 27.599999999999998 33.3 C 27.96 34.019999999999996, 28.08 34.065, 28.32 34.74 C 28.439999999999998 35.370000000000005, 28.5 35.49, 28.56 36 C 28.56 36.39, 28.77 36.27, 28.56 36.78 C 28.14 37.41, 28.38 37.364999999999995, 27.72 38.04 C 26.82 38.760000000000005, 26.94 38.88, 25.92 39.480000000000004 C 24.78 39.96, 24.945 39.959999999999994, 23.64 40.44 C 22.17 40.92, 21.78 41.160000000000004, 20.700000000000003 41.400000000000006 C 20.01 41.400000000000006, 20.130000000000003 41.355000000000004, 19.32 41.400000000000006 C 18.39 41.49, 17.925 41.535, 17.46 41.58 L 17.46 41.58" fill="none" stroke="black" stroke-width="2"></path><path d="M 22.38 31.32 C 22.740000000000002 31.29, 22.68 31.275, 23.1 31.259999999999998 C 23.58 31.259999999999998, 23.415 31.47, 24.06 31.259999999999998 C 24.869999999999997 30.84, 25.005 31.005000000000003, 25.68 30.42 C 26.22 29.67, 26.339999999999996 29.625000000000004, 26.759999999999998 28.92 C 27.06 28.259999999999998, 27.09 28.169999999999998, 27.36 27.599999999999998 C 27.599999999999998 27.119999999999997, 27.614999999999995 27.21, 27.839999999999996 26.64 C 28.049999999999997 25.98, 28.124999999999996 25.950000000000003, 28.259999999999998 25.32 C 28.32 24.72, 28.35 24.854999999999997, 28.380000000000003 24.119999999999997 C 28.380000000000003 23.25, 28.425000000000004 23.189999999999998, 28.380000000000003 22.38 C 28.290000000000003 21.63, 28.335000000000004 21.779999999999998, 28.200000000000003 20.88 C 28.02 19.83, 28.034999999999997 19.785, 27.839999999999996 18.78 C 27.63 17.82, 27.630000000000003 17.85, 27.42 16.86 C 27.21 15.84, 27.15 15.66, 27 14.82 C 26.91 14.16, 26.97 14.61, 26.82 13.5 C 26.61 11.94, 26.595000000000002 11.834999999999999, 26.400000000000002 10.379999999999999 C 26.22 9.03, 26.19 8.91, 26.04 7.68 C 25.919999999999998 6.57, 25.889999999999997 6.165, 25.799999999999997 5.46 C 25.74 5.16, 25.71 5.01, 25.68 4.86 L 25.68 4.86" fill="none" stroke="black" stroke-width="2"></path></svg>