<svg width="48" height="48" viewBox="0 0 48 48" xmlns="http://www.w3.org/2000/svg"><path d="M 16.799999999999997 5.34 C 16.619999999999997 5.970000000000001, 16.935000000000002 5.835000000000001, 16.44 6.6000000000000005 C 15.63 7.5, 15.525 7.454999999999999, 14.82 8.399999999999999 C 14.22 9.389999999999999, 14.220000000000002 9.509999999999998, 13.620000000000001 10.379999999999999 C 13.02 11.129999999999999, 13.034999999999998 11.084999999999999, 12.419999999999998 11.879999999999999 C 11.79 12.719999999999999, 11.7 12.93, 11.16 13.559999999999999 C 10.71 13.979999999999999, 10.485 14.189999999999998, 10.26 14.399999999999999 C 10.26 14.399999999999999, 10.29 14.354999999999997, 10.26 14.399999999999999 L 10.14 14.580000000000002" fill="none" stroke="black" stroke-width="2"></path><path d="M 13.799999999999999 10.5 C 14.04 10.5, 13.934999999999999 10.455, 14.28 10.5 C 14.73 10.59, 14.354999999999999 10.635, 15.18 10.68 C 16.380000000000003 10.68, 16.380000000000003 10.68, 17.580000000000002 10.68 C 18.78 10.68, 18.810000000000002 10.68, 19.98 10.68 C 21.119999999999997 10.68, 21.075 10.68, 22.259999999999998 10.68 C 23.49 10.68, 23.505 10.68, 24.72 10.68 C 25.919999999999998 10.68, 26.235 10.68, 27.119999999999997 10.68 C 27.689999999999998 10.68, 27.629999999999995 10.68, 28.259999999999998 10.68 C 28.95 10.68, 29.07 10.68, 29.64 10.68 C 30.09 10.68, 30.240000000000002 10.68, 30.54 10.68 C 30.689999999999998 10.68, 30.764999999999997 10.68, 30.839999999999996 10.68 L 30.839999999999996 10.68" fill="none" stroke="black" stroke-width="2"></path><path d="M 30.839999999999996 4.68 C 30.81 5.13, 30.795 5.1, 30.78 5.58 C 30.78 6.09, 30.825000000000003 5.865, 30.78 6.6000000000000005 C 30.689999999999998 7.5600000000000005, 30.645 7.5, 30.599999999999998 8.52 C 30.599999999999998 9.6, 30.599999999999998 9.66, 30.599999999999998 10.68 C 30.599999999999998 11.64, 30.599999999999998 11.595, 30.599999999999998 12.600000000000001 C 30.599999999999998 13.650000000000002, 30.644999999999996 13.620000000000001, 30.599999999999998 14.700000000000001 C 30.509999999999998 15.809999999999999, 30.48 15.915, 30.42 16.919999999999998 C 30.39 17.82, 30.435000000000002 17.729999999999997, 30.36 18.72 C 30.24 19.799999999999997, 30.224999999999998 19.919999999999998, 30.119999999999997 20.88 C 30.03 21.72, 29.985 21.794999999999998, 29.94 22.56 C 29.94 23.25, 29.985000000000003 23.28, 29.94 23.94 C 29.85 24.57, 29.865 24.675000000000004, 29.759999999999998 25.200000000000003 C 29.64 25.62, 29.64 25.71, 29.52 26.04 C 29.4 26.28, 29.64 26.189999999999998, 29.28 26.52 C 28.68 26.939999999999998, 28.814999999999998 27, 28.08 27.36 C 27.209999999999997 27.66, 27.314999999999998 27.735, 26.339999999999996 27.96 C 25.259999999999998 28.11, 25.259999999999998 28.185, 24.18 28.259999999999998 C 23.1 28.259999999999998, 23.490000000000002 28.259999999999998, 22.02 28.259999999999998 C 20.159999999999997 28.259999999999998, 20.025 28.319999999999997, 18.299999999999997 28.259999999999998 C 16.71 28.14, 16.425 28.08, 15.120000000000001 28.02 C 14.100000000000001 28.02, 13.995000000000003 27.915, 13.080000000000002 28.02 C 12.27 28.23, 12.165 28.110000000000003, 11.459999999999999 28.44 C 10.86 28.89, 10.83 28.844999999999995, 10.26 29.339999999999996 C 9.719999999999999 29.88, 9.584999999999999 29.865000000000002, 9.18 30.42 C 8.91 30.990000000000002, 8.775 31.035, 8.64 31.56 C 8.64 32.04, 8.580000000000002 32.01, 8.64 32.519999999999996 C 8.76 33.059999999999995, 8.504999999999999 32.98499999999999, 8.879999999999999 33.599999999999994 C 9.51 34.29, 9.45 34.410000000000004, 10.14 34.980000000000004 C 10.89 35.43000000000001, 10.920000000000002 35.52, 11.64 35.88 C 12.33 36.150000000000006, 12.135 36.27, 13.02 36.42 C 14.1 36.45, 14.16 36.720000000000006, 15.18 36.480000000000004 C 16.14 35.97, 16.35 36.06, 17.1 35.46 C 17.64 34.769999999999996, 17.775 34.695, 18.18 34.08 C 18.45 33.54, 18.555 33.675, 18.72 33 C 18.78 32.19, 18.81 32.05500000000001, 18.84 31.380000000000003 C 18.84 30.84, 18.884999999999998 30.93, 18.84 30.299999999999997 C 18.75 29.58, 18.735 29.339999999999996, 18.66 28.86 C 18.6 28.62, 18.57 28.575000000000003, 18.54 28.380000000000003 C 18.54 28.23, 18.54 28.155, 18.54 28.08 L 18.54 28.08" fill="none" stroke="black" stroke-width="2"></path></svg>