<svg width="48" height="48" viewBox="0 0 48 48" xmlns="http://www.w3.org/2000/svg"><path d="M 15.66 6.24 C 14.85 7.56, 14.91 7.124999999999999, 14.04 8.879999999999999 C 13.11 11.07, 12.78 11.67, 12.18 13.26 C 11.91 14.25, 11.775 14.745000000000001, 11.64 15.24 C 11.64 15.24, 11.505 15.09, 11.64 15.24 C 11.91 15.54, 11.55 15.69, 12.18 15.84 C 13.17 15.84, 12.93 16.05, 14.16 15.84 C 15.63 15.42, 15.705000000000002 15.24, 17.1 15 C 18.42 14.94, 17.340000000000003 15.18, 19.740000000000002 14.879999999999999 C 23.220000000000002 14.34, 23.715000000000003 14.249999999999998, 26.700000000000003 13.799999999999999 C 29.19 13.440000000000001, 30.375 13.260000000000002, 31.68 13.080000000000002 C 31.8 13.080000000000002, 31.86 13.080000000000002, 31.92 13.080000000000002 L 31.92 13.080000000000002" fill="none" stroke="black" stroke-width="2"></path><path d="M 16.68 15 C 16.14 15.48, 16.17 15.255, 15.600000000000001 15.96 C 15 16.89, 15.285 16.23, 14.399999999999999 17.82 C 13.229999999999999 20.07, 13.034999999999998 20.01, 12.059999999999999 22.32 C 11.28 24.689999999999998, 11.055 25.08, 10.5 27.06 C 10.17 28.65, 10.094999999999999 28.89, 9.84 30.240000000000002 C 9.66 31.35, 9.690000000000001 31.245000000000005, 9.48 32.46 C 9.24 33.78, 9.18 33.974999999999994, 9 35.099999999999994 C 8.879999999999999 36.03, 8.865 36.06, 8.76 36.96 C 8.67 37.83, 8.625 38.115, 8.58 38.7 C 8.58 39, 8.46 39.12, 8.58 39.3 C 8.82 39.36, 8.67 39.345, 9.06 39.42 C 9.600000000000001 39.51, 9.495000000000001 39.839999999999996, 10.14 39.599999999999994 C 10.89 39.03, 10.935 39.225, 11.64 38.46 C 12.3 37.5, 12.315000000000001 37.575, 12.96 36.54 C 13.59 35.43, 13.59 35.73, 14.22 34.32 C 14.850000000000001 32.61, 15.120000000000001 31.875, 15.48 30.900000000000002 C 15.57 30.660000000000004, 15.615 30.540000000000003, 15.66 30.42 C 15.66 30.42, 15.72 30.165000000000003, 15.66 30.42 C 15.54 30.93, 15.524999999999999 30.720000000000002, 15.419999999999998 31.44 C 15.329999999999998 32.37, 15.254999999999999 32.309999999999995, 15.24 33.3 C 15.3 34.35, 15.18 34.56, 15.36 35.400000000000006 C 15.66 36.03, 15.72 36.21000000000001, 15.96 36.660000000000004 C 16.14 36.93000000000001, 16.065 36.915000000000006, 16.32 37.2 C 16.65 37.5, 16.59 37.62, 16.98 37.8 C 17.43 37.86, 17.354999999999997 38.010000000000005, 17.88 37.92 C 18.48 37.68, 18.135 38.085, 19.080000000000002 37.44 C 20.37 36.39, 20.475 36.53999999999999, 21.66 35.339999999999996 C 22.740000000000002 33.989999999999995, 22.86 33.615, 23.82 32.64 C 24.66 32.04, 24.615000000000002 31.785000000000004, 25.5 31.44 C 26.43 31.35, 26.445 31.169999999999998, 27.36 31.259999999999998 C 28.26 31.529999999999998, 28.425000000000004 31.275, 29.160000000000004 31.799999999999997 C 29.73 32.58, 30.104999999999997 32.445, 30.299999999999997 33.36 C 30.119999999999997 34.41, 30.795 34.35, 29.94 35.46 C 28.410000000000004 36.629999999999995, 28.410000000000004 36.959999999999994, 26.880000000000003 37.8 C 25.35 38.31, 24.900000000000002 38.55, 23.82 38.82 C 23.189999999999998 38.85, 22.875 38.865, 22.56 38.88 L 22.56 38.88" fill="none" stroke="black" stroke-width="2"></path></svg>