<svg width="48" height="48" viewBox="0 0 48 48" xmlns="http://www.w3.org/2000/svg"><path d="M 20.28 4.38 C 20.25 4.98, 20.61 3.99, 20.22 5.58 C 19.47 8.16, 19.485 8.64, 18.72 10.74 C 17.939999999999998 12.36, 18.435 12.42, 17.16 13.98 C 15.39 15.48, 15.255 15.765, 13.620000000000001 16.98 C 12.120000000000001 17.91, 11.475000000000001 18.36, 10.620000000000001 18.84 L 10.2 18.9" fill="none" stroke="black" stroke-width="2"></path><path d="M 17.22 12.059999999999999 C 17.58 12.18, 17.115000000000002 12.194999999999999, 17.94 12.299999999999999 C 19.23 12.39, 18.705 12.450000000000001, 20.52 12.48 C 22.86 12.45, 22.665000000000003 12.524999999999999, 25.200000000000003 12.419999999999998 C 27.930000000000003 12.239999999999998, 28.680000000000007 12.224999999999998, 30.660000000000004 12.059999999999999 C 31.89 11.91, 32.325 11.834999999999999, 33.12 11.76 L 33.839999999999996 11.76" fill="none" stroke="black" stroke-width="2"></path><path d="M 23.88 12.120000000000001 C 23.88 12.9, 23.88 12.225, 23.88 13.68 C 23.88 15.81, 23.64 15.84, 23.88 17.94 C 24.36 20.01, 24.194999999999997 20.265, 24.839999999999996 22.080000000000002 C 25.65 23.64, 25.665 24.075000000000003, 26.46 25.200000000000003 C 27.240000000000002 25.89, 27.12 25.994999999999997, 28.02 26.58 C 29.04 27.06, 29.13 27.15, 30.06 27.54 C 30.9 27.84, 31.095000000000002 27.93, 31.740000000000002 28.14 C 32.19 28.26, 32.175000000000004 28.275000000000002, 32.64 28.380000000000003 C 33.12 28.47, 33.285 28.515, 33.599999999999994 28.56 C 33.75 28.56, 33.825 28.56, 33.900000000000006 28.56 C 33.900000000000006 28.56, 33.900000000000006 28.56, 33.900000000000006 28.56 C 33.900000000000006 28.56, 33.900000000000006 28.56, 33.900000000000006 28.56 C 33.900000000000006 28.56, 34.30500000000001 28.56, 33.900000000000006 28.56 C 33.09 28.56, 33.465 28.409999999999997, 32.28 28.56 C 30.720000000000002 28.86, 31.020000000000003 28.680000000000003, 29.160000000000004 29.160000000000004 C 27 29.82, 26.699999999999996 29.67, 24.839999999999996 30.48 C 23.279999999999998 31.440000000000005, 23.025 31.470000000000006, 21.72 32.400000000000006 C 20.67 33.300000000000004, 20.64 32.98500000000001, 19.62 34.2 C 18.630000000000003 35.730000000000004, 18.315 36.03, 17.64 37.26 C 17.28 38.19, 17.144999999999996 38.235, 16.919999999999998 39.12 C 16.83 39.959999999999994, 16.935000000000002 40.31999999999999, 16.740000000000002 40.8 L 16.14 41.04" fill="none" stroke="black" stroke-width="2"></path><path d="M 10.32 26.400000000000002 C 11.4 26.400000000000002, 10.95 25.71, 12.48 26.400000000000002 C 14.46 27.78, 14.715000000000002 27.915000000000003, 16.44 29.160000000000004 C 17.91 30.270000000000003, 18.15 30.225, 19.38 31.380000000000003 C 20.369999999999997 32.58, 20.805 33, 21.36 33.78 C 21.48 34.14, 21.54 34.32, 21.6 34.5 L 21.6 34.5" fill="none" stroke="black" stroke-width="2"></path></svg>