<svg width="48" height="48" viewBox="0 0 48 48" xmlns="http://www.w3.org/2000/svg"><path d="M 16.68 3.9000000000000004 C 15.45 5.16, 15.66 4.859999999999999, 14.22 6.42 C 12.57 8.280000000000001, 12.09 8.760000000000002, 10.92 10.14 C 10.23 11.04, 10.065000000000001 11.19, 9.540000000000001 11.94 C 9.18 12.54, 9.015 12.765, 8.82 13.14 C 8.79 13.290000000000001, 8.625 13.305000000000001, 8.76 13.440000000000001 C 9.059999999999999 13.56, 8.924999999999999 13.620000000000001, 9.36 13.68 C 9.93 13.68, 9.33 13.68, 10.5 13.68 C 12.27 13.68, 12.059999999999999 13.77, 14.04 13.68 C 16.229999999999997 13.5, 15.944999999999997 13.665000000000001, 18.419999999999998 13.32 C 21.18 12.809999999999999, 21.585 12.69, 23.94 12.299999999999999 C 25.89 12.03, 26.084999999999997 12, 27.839999999999996 11.76 C 29.4 11.55, 29.955 11.46, 30.96 11.34 C 31.41 11.309999999999999, 31.365000000000002 11.295, 31.86 11.28 C 32.4 11.28, 32.474999999999994 11.28, 32.94 11.28 C 33.33 11.28, 33.254999999999995 11.309999999999999, 33.72 11.28 C 34.26 11.219999999999999, 34.485 11.205, 34.8 11.16 L 34.980000000000004 11.100000000000001" fill="none" stroke="black" stroke-width="2"></path><path d="M 11.7 35.519999999999996 C 10.59 33.45, 10.395 33.465, 9.48 31.380000000000003 C 8.760000000000002 29.28, 8.445 28.875, 8.040000000000001 27.18 C 7.950000000000001 25.89, 7.905 25.799999999999997, 7.86 24.599999999999998 C 7.86 23.49, 7.65 23.459999999999997, 7.86 22.38 C 8.28 21.33, 8.325 20.97, 8.7 20.28 C 9.03 19.950000000000003, 9.03 19.8, 9.36 19.62 C 9.69 19.59, 9.614999999999998 19.455, 10.02 19.56 C 10.5 19.799999999999997, 10.185 19.23, 10.98 20.04 C 12.09 21.419999999999998, 12.255 21.509999999999998, 13.200000000000001 22.799999999999997 C 13.98 24, 14.22 24.36, 14.76 25.200000000000003 C 15.059999999999999 25.680000000000003, 15.209999999999999 25.92, 15.36 26.160000000000004 C 15.36 26.160000000000004, 15.344999999999999 26.295000000000005, 15.36 26.160000000000004 C 15.389999999999999 25.89, 15.389999999999997 26.49, 15.419999999999998 25.619999999999997 C 15.45 24.15, 15.315 23.79, 15.48 22.68 C 15.780000000000001 21.93, 15.720000000000002 21.81, 16.080000000000002 21.18 C 16.5 20.67, 16.08 20.64, 16.919999999999998 20.16 C 18.18 19.71, 17.745 19.74, 19.44 19.259999999999998 C 21.57 18.75, 22.140000000000004 18.615000000000002, 23.700000000000003 18.240000000000002 C 24.69 18, 24.42 17.955, 25.68 17.759999999999998 C 27.21 17.61, 27.42 17.685000000000002, 28.740000000000002 17.46 C 29.85 17.16, 30.255000000000003 17.055, 30.96 16.86 C 31.259999999999998 16.77, 31.244999999999997 16.725, 31.56 16.68 C 31.89 16.68, 32.055 16.68, 32.22 16.68 L 32.22 16.68" fill="none" stroke="black" stroke-width="2"></path><path d="M 21.84 18.9 C 21.810000000000002 19.409999999999997, 21.735 18.779999999999998, 21.78 19.919999999999998 C 21.9 21.689999999999998, 21.66 21.945, 22.02 23.46 C 22.619999999999997 24.72, 22.575 24.945, 23.22 25.98 C 23.909999999999997 26.79, 23.864999999999995 26.909999999999997, 24.599999999999998 27.599999999999998 C 25.380000000000003 28.17, 25.290000000000003 28.23, 26.160000000000004 28.740000000000002 C 27.12 29.19, 27.045 29.325000000000003, 28.08 29.64 C 29.189999999999998 29.82, 29.264999999999997 29.865000000000002, 30.299999999999997 30 C 31.259999999999998 30.09, 31.589999999999996 30.119999999999997, 32.22 30.18 C 32.519999999999996 30.21, 32.595 30.21, 32.82 30.240000000000002 C 32.97 30.27, 33.045 30.284999999999997, 33.12 30.299999999999997 C 33.12 30.299999999999997, 33.074999999999996 30.299999999999997, 33.12 30.299999999999997 C 33.209999999999994 30.299999999999997, 33.254999999999995 30.299999999999997, 33.3 30.299999999999997 C 33.3 30.299999999999997, 33.254999999999995 30.239999999999995, 33.3 30.299999999999997 C 33.39 30.419999999999998, 34.080000000000005 30.18, 33.480000000000004 30.54 C 32.190000000000005 31.14, 32.325 31.065, 30.900000000000002 31.740000000000002 C 29.340000000000003 32.49, 28.965 32.67, 27.78 33.24 C 26.970000000000002 33.629999999999995, 27.585000000000004 33.269999999999996, 26.160000000000004 34.019999999999996 C 24.120000000000005 35.129999999999995, 23.880000000000003 35.25, 22.080000000000002 36.24 C 20.520000000000003 37.11, 20.325000000000003 37.050000000000004, 18.96 37.980000000000004 C 17.79 38.97, 17.61 38.925000000000004, 16.62 39.96 C 15.81 41.04, 15.675 40.605, 15 42.12 C 14.459999999999999 44.06999999999999, 14.189999999999998 44.58, 13.919999999999998 46.019999999999996 C 13.919999999999998 46.95, 13.919999999999998 47.31, 13.919999999999998 47.88 L 13.919999999999998 48.300000000000004" fill="none" stroke="black" stroke-width="2"></path></svg>