<svg width="48" height="48" viewBox="0 0 48 48" xmlns="http://www.w3.org/2000/svg"><path d="M 14.46 5.22 C 13.56 6.99, 13.290000000000001 7.4399999999999995, 12.66 8.76 C 12.3 9.629999999999999, 12.165 9.84, 11.94 10.5 C 11.85 10.95, 11.805 11.024999999999999, 11.76 11.399999999999999 C 11.76 11.7, 11.715 11.745000000000001, 11.76 12 C 11.85 12.209999999999999, 11.579999999999998 12.149999999999999, 11.94 12.419999999999998 C 12.57 12.75, 12.3 12.915000000000001, 13.200000000000001 13.080000000000002 C 14.370000000000001 13.080000000000002, 14.025 13.140000000000002, 15.54 13.080000000000002 C 17.4 12.96, 16.68 13.11, 19.259999999999998 12.84 C 22.56 12.42, 23.265 12.225, 25.86 12 C 27.75 11.969999999999999, 28.305 11.955, 29.64 11.94 C 30.42 11.94, 30.810000000000002 11.94, 31.200000000000003 11.94 L 31.200000000000003 11.94" fill="none" stroke="black" stroke-width="2"></path><path d="M 14.22 12.84 C 13.98 14.34, 13.995000000000001 14.024999999999999, 13.74 15.84 C 13.47 17.97, 13.38 18.165, 13.200000000000001 20.1 C 13.11 21.840000000000003, 13.245000000000001 21.105000000000004, 13.02 23.580000000000002 C 12.66 26.79, 12.645 27.285, 12.299999999999999 30 C 11.969999999999999 32.22, 11.895 32.625, 11.64 34.44 C 11.46 35.849999999999994, 11.459999999999999 35.985, 11.28 37.26 C 11.1 38.4, 11.1 38.339999999999996, 10.92 39.54 C 10.74 40.8, 10.65 41.07, 10.56 42.06 C 10.56 42.78, 10.47 42.885000000000005, 10.56 43.5 C 10.74 44.01, 10.575 44.05499999999999, 10.92 44.519999999999996 C 11.43 44.94, 11.219999999999999 45.135, 11.94 45.36 C 12.87 45.39, 12.495 45.465, 13.799999999999999 45.42 C 15.48 45.3, 15.87 45.585, 17.16 45.18 C 18.060000000000002 44.489999999999995, 18.405 44.489999999999995, 18.96 43.8 C 19.17 43.11, 19.349999999999998 43.260000000000005, 19.38 42.42 C 19.23 41.43, 19.470000000000002 41.385, 19.080000000000002 40.44 C 18.450000000000003 39.54, 18.645 39.315, 17.82 38.64 C 16.8 38.19, 17.025 38.010000000000005, 15.78 37.74 C 14.309999999999999 37.650000000000006, 13.725 37.56, 12.84 37.56 C 12.54 37.650000000000006, 12.39 37.695, 12.24 37.74 L 12.24 37.74" fill="none" stroke="black" stroke-width="2"></path><path d="M 12.66 33.78 C 14.16 33.36, 14.46 33.644999999999996, 15.66 32.94 C 16.560000000000002 31.95, 16.635 32.355000000000004, 17.46 30.96 C 18.21 29.16, 18.48 28.77, 18.96 27.36 C 19.17 26.34, 19.275 25.83, 19.38 25.32 C 19.38 25.32, 19.38 25.305, 19.38 25.32 C 19.38 25.35, 19.38 24.945000000000004, 19.38 25.380000000000003 C 19.38 26.22, 19.29 25.86, 19.38 27.06 C 19.560000000000002 28.619999999999997, 19.14 28.86, 19.740000000000002 30.18 C 20.76 31.259999999999998, 20.535000000000004 31.485, 21.78 32.339999999999996 C 23.25 32.97, 22.41 33.31499999999999, 24.72 33.599999999999994 C 27.869999999999997 33.54, 29.159999999999997 33.645, 31.02 33.480000000000004 C 31.590000000000003 33.21, 31.755000000000003 33.209999999999994, 32.160000000000004 32.94 L 32.64 32.400000000000006" fill="none" stroke="black" stroke-width="2"></path></svg>