<svg width="48" height="48" viewBox="0 0 48 48" xmlns="http://www.w3.org/2000/svg"><path d="M 9.18 43.019999999999996 C 9.18 40.769999999999996, 9.18 40.31999999999999, 9.18 38.519999999999996 C 9.18 37.17, 9.135 37.394999999999996, 9.18 35.82 C 9.27 34.019999999999996, 9.165 34.08, 9.36 32.22 C 9.66 30.3, 9.629999999999999 30.21, 9.959999999999999 28.380000000000003 C 10.32 26.64, 10.305 26.505000000000003, 10.68 24.900000000000002 C 11.07 23.43, 11.099999999999998 23.1, 11.459999999999999 21.96 C 11.79 21.15, 11.670000000000002 21.18, 12.120000000000001 20.34 C 12.690000000000001 19.47, 12.645 19.365000000000002, 13.26 18.6 C 13.920000000000002 17.94, 13.785000000000002 17.925, 14.580000000000002 17.28 C 15.510000000000002 16.65, 15.555000000000001 16.439999999999998, 16.44 16.02 C 17.28 15.81, 17.265 15.750000000000002, 18.12 15.600000000000001 C 18.990000000000002 15.51, 19.05 15.465, 19.86 15.419999999999998 C 20.61 15.419999999999998, 20.655 15.284999999999997, 21.36 15.419999999999998 C 22.02 15.69, 22.02 15.57, 22.68 15.96 C 23.34 16.47, 23.46 16.53, 24 16.98 C 24.419999999999998 17.369999999999997, 24.33 17.189999999999998, 24.839999999999996 17.759999999999998 C 25.439999999999998 18.509999999999998, 25.529999999999998 18.419999999999998, 26.04 19.259999999999998 C 26.46 20.189999999999998, 26.490000000000002 20.1, 26.880000000000003 21.12 C 27.240000000000002 22.23, 27.314999999999998 22.29, 27.599999999999998 23.34 C 27.81 24.33, 27.825 24.15, 28.02 25.32 C 28.200000000000003 26.67, 28.245000000000005 26.625, 28.380000000000003 28.02 C 28.47 29.46, 28.515 29.67, 28.56 30.900000000000002 C 28.56 31.92, 28.56 32.07, 28.56 32.94 C 28.56 33.66, 28.56 33.45, 28.56 34.38 C 28.56 35.52, 28.56 35.595000000000006, 28.56 36.660000000000004 C 28.56 37.650000000000006, 28.56 37.74, 28.56 38.64 C 28.56 39.45, 28.65 39.48, 28.56 40.26 C 28.380000000000003 41.01, 28.290000000000003 41.22, 28.200000000000003 41.76 C 28.200000000000003 42.09, 28.245000000000005 42.105000000000004, 28.200000000000003 42.42 C 28.11 42.72, 28.065 42.87, 28.02 43.019999999999996 C 28.02 43.019999999999996, 28.02 43.019999999999996, 28.02 43.019999999999996 C 28.02 43.019999999999996, 28.02 43.019999999999996, 28.02 43.019999999999996 C 28.02 43.019999999999996, 28.02 43.019999999999996, 28.02 43.019999999999996 L 28.02 43.019999999999996" fill="none" stroke="black" stroke-width="2"></path><path d="M 28.02 43.019999999999996 C 18.78 42.78, 13.620000000000001 42.66, 9.540000000000001 42.54 C 10.620000000000001 42.54, 10.605 42.54, 11.7 42.54 C 12.809999999999999 42.54, 12.944999999999997 42.525, 13.919999999999998 42.54 C 14.76 42.56999999999999, 14.475000000000001 42.584999999999994, 15.600000000000001 42.599999999999994 C 17.009999999999998 42.599999999999994, 17.22 42.599999999999994, 18.419999999999998 42.599999999999994 C 19.409999999999997 42.599999999999994, 19.439999999999998 42.599999999999994, 20.4 42.599999999999994 C 21.33 42.599999999999994, 21.434999999999995 42.599999999999994, 22.259999999999998 42.599999999999994 C 22.98 42.599999999999994, 22.950000000000003 42.599999999999994, 23.700000000000003 42.599999999999994 C 24.48 42.599999999999994, 24.75 42.599999999999994, 25.259999999999998 42.599999999999994 C 25.5 42.599999999999994, 25.5 42.599999999999994, 25.740000000000002 42.599999999999994 C 25.98 42.599999999999994, 25.95 42.56999999999999, 26.22 42.599999999999994 C 26.52 42.66, 26.595 42.69, 26.82 42.72 C 26.97 42.72, 26.879999999999995 42.675, 27.119999999999997 42.72 C 27.45 42.81, 27.54 42.855000000000004, 27.78 42.900000000000006 C 27.93 42.900000000000006, 28.005 42.900000000000006, 28.08 42.900000000000006 L 28.08 42.900000000000006" fill="none" stroke="black" stroke-width="2"></path></svg>