<svg width="48" height="48" viewBox="0 0 48 48" xmlns="http://www.w3.org/2000/svg"><path d="M 16.259999999999998 2.64 C 16.08 3.21, 16.034999999999997 2.8200000000000003, 15.899999999999999 3.7800000000000002 C 15.809999999999999 5.130000000000001, 15.765 5.025, 15.72 6.48 C 15.72 8.040000000000001, 15.705000000000002 7.815000000000001, 15.72 9.600000000000001 C 15.75 11.610000000000001, 15.765 11.985000000000001, 15.78 13.620000000000001 C 15.78 14.88, 15.69 14.790000000000001, 15.78 16.14 C 15.96 17.58, 16.05 17.715, 16.14 19.02 C 16.14 20.189999999999998, 16.02 20.4, 16.14 21.36 C 16.380000000000003 22.11, 16.41 22.32, 16.62 22.86 C 16.8 23.189999999999998, 16.635 23.13, 16.98 23.52 C 17.490000000000002 23.97, 17.505 24.075000000000003, 18 24.42 C 18.48 24.660000000000004, 18.48 24.735000000000003, 18.96 24.900000000000002 C 19.439999999999998 24.990000000000002, 19.47 25.035, 19.919999999999998 25.08 C 20.339999999999996 25.08, 20.279999999999998 25.169999999999998, 20.759999999999998 25.08 C 21.299999999999997 24.9, 21.405 24.99, 21.84 24.72 C 22.17 24.36, 22.2 24.54, 22.5 24 C 22.77 23.28, 22.74 23.4, 23.04 22.56 C 23.37 21.6, 23.370000000000005 21.54, 23.700000000000003 20.64 C 24.03 19.8, 24.195 19.575000000000003, 24.36 18.96 C 24.36 18.57, 24.36 18.45, 24.36 18.18 C 24.36 18.03, 24.36 17.955, 24.36 17.88 C 24.36 17.88, 24.36 17.88, 24.36 17.88 C 24.36 17.88, 24.345 17.88, 24.36 17.88 C 24.39 17.88, 24.345 17.729999999999997, 24.42 17.88 C 24.540000000000003 18.18, 24.6 17.97, 24.660000000000004 18.48 C 24.660000000000004 19.2, 24.630000000000003 19.394999999999996, 24.660000000000004 19.919999999999998 C 24.720000000000002 20.25, 24.675000000000004 20.175, 24.78 20.580000000000002 C 24.93 21.060000000000002, 24.915 21.105, 25.08 21.54 C 25.259999999999998 21.93, 25.185000000000002 21.825, 25.44 22.32 C 25.77 22.92, 25.709999999999997 23.04, 26.099999999999998 23.52 C 26.549999999999997 23.880000000000003, 26.61 23.955000000000002, 27 24.240000000000002 C 27.330000000000002 24.450000000000003, 27.300000000000004 24.450000000000003, 27.660000000000004 24.660000000000004 C 28.050000000000004 24.87, 28.050000000000004 24.93, 28.44 25.08 C 28.83 25.169999999999998, 28.86 25.259999999999998, 29.22 25.259999999999998 C 29.55 25.169999999999998, 29.625 25.29, 29.880000000000003 25.08 C 30.060000000000002 24.75, 30.015 24.795, 30.240000000000002 24.42 C 30.51 24, 30.54 24.03, 30.78 23.580000000000002 C 30.990000000000002 23.1, 30.975 23.220000000000002, 31.200000000000003 22.62 C 31.44 21.9, 31.47 21.75, 31.68 21.18 C 31.86 20.759999999999998, 31.86 21, 32.04 20.34 C 32.22 19.439999999999998, 32.220000000000006 19.515, 32.400000000000006 18.54 C 32.58 17.490000000000002, 32.67 17.580000000000002, 32.76 16.44 C 32.76 15.21, 32.76 15.105, 32.76 13.98 C 32.76 12.96, 32.76 12.96, 32.76 11.94 C 32.76 10.919999999999998, 32.82 10.874999999999998, 32.76 9.899999999999999 C 32.64 8.969999999999999, 32.63999999999999 8.775, 32.519999999999996 8.040000000000001 C 32.4 7.5, 32.4 7.514999999999999, 32.28 6.959999999999999 C 32.16 6.39, 32.1 6.285, 32.04 5.82 C 32.04 5.46, 32.085 5.52, 32.04 5.1 C 31.95 4.619999999999999, 31.905 4.455, 31.86 4.14 C 31.86 3.9899999999999998, 31.86 3.915, 31.86 3.84 C 31.86 3.84, 31.875 3.885, 31.86 3.84 C 31.83 3.75, 31.874999999999996 3.7800000000000002, 31.799999999999997 3.66 C 31.68 3.5100000000000002, 31.755 3.5100000000000002, 31.56 3.3600000000000003 C 31.29 3.21, 31.185 3.1500000000000004, 31.02 3.06 C 30.96 3.0300000000000002, 30.93 3.015, 30.900000000000002 3 C 30.900000000000002 3, 30.900000000000002 3, 30.900000000000002 3 C 30.900000000000002 3, 30.945000000000004 3.015, 30.900000000000002 3 C 30.810000000000002 2.9699999999999998, 30.765 2.955, 30.72 2.94 C 30.72 2.94, 30.765 2.94, 30.72 2.94 C 30.63 2.94, 30.615 2.91, 30.54 2.94 C 30.48 3, 30.540000000000003 2.94, 30.42 3.06 C 30.240000000000002 3.24, 30.225 3.21, 30.06 3.42 C 29.909999999999997 3.66, 30 3.6450000000000005, 29.759999999999998 3.9000000000000004 C 29.43 4.17, 29.4 4.185, 29.099999999999998 4.4399999999999995 C 28.83 4.68, 28.86 4.665, 28.56 4.92 C 28.23 5.1899999999999995, 28.23 5.115, 27.900000000000002 5.46 C 27.57 5.880000000000001, 27.570000000000004 5.8500000000000005, 27.240000000000002 6.300000000000001 C 26.91 6.78, 26.924999999999997 6.765000000000001, 26.58 7.26 C 26.22 7.77, 26.235 7.6499999999999995, 25.86 8.28 C 25.47 9.03, 25.47 9.194999999999999, 25.08 9.78 C 24.689999999999998 10.2, 24.525 10.365, 24.299999999999997 10.620000000000001 C 24.24 10.71, 24.21 10.755, 24.18 10.8 C 24.18 10.8, 24.21 10.785, 24.18 10.8 L 24.06 10.86" fill="none" stroke="black" stroke-width="2"></path><path d="M 24.36 20.52 C 24.36 20.82, 24.33 20.625, 24.36 21.12 C 24.42 21.810000000000002, 24.39 21.795, 24.48 22.5 C 24.6 23.22, 24.615 23.22, 24.72 23.94 C 24.810000000000002 24.660000000000004, 24.810000000000002 24.705000000000002, 24.900000000000002 25.380000000000003 C 24.990000000000002 26.01, 25.035 26.07, 25.08 26.64 C 25.08 27.150000000000002, 25.08 27.045000000000005, 25.08 27.660000000000004 C 25.08 28.380000000000003, 25.08 28.32, 25.08 29.099999999999998 C 25.08 29.939999999999998, 25.095 30.060000000000002, 25.08 30.78 C 25.049999999999997 31.380000000000003, 25.11 31.425, 25.02 31.98 C 24.869999999999997 32.49, 24.884999999999998 32.385, 24.72 33 C 24.54 33.72, 24.57 33.705, 24.36 34.44 C 24.119999999999997 35.19, 24.15 35.205, 23.88 35.94 C 23.58 36.66, 23.595 36.69, 23.28 37.38 C 22.950000000000003 38.040000000000006, 22.92 38.13, 22.62 38.7 C 22.35 39.18000000000001, 22.545 39.03, 22.080000000000002 39.660000000000004 C 21.42 40.44, 21.525 40.35, 20.759999999999998 41.22 C 19.89 42.18, 19.755 42.42, 19.02 43.14 C 18.42 43.62, 18.240000000000002 43.754999999999995, 17.82 44.099999999999994 C 17.58 44.309999999999995, 17.55 44.355, 17.34 44.519999999999996 C 17.16 44.64, 17.1 44.684999999999995, 16.98 44.76 C 16.92 44.79, 17.055 44.775, 16.86 44.82 C 16.53 44.879999999999995, 16.365000000000002 44.91, 16.200000000000003 44.94 C 16.200000000000003 44.94, 16.230000000000004 44.94, 16.200000000000003 44.94 L 16.080000000000002 44.94" fill="none" stroke="black" stroke-width="2"></path></svg>