<svg width="48" height="48" viewBox="0 0 48 48" xmlns="http://www.w3.org/2000/svg"><path d="M 15.84 32.04 C 15.66 30.33, 15.675 29.79, 15.48 28.619999999999997 C 15.27 27.99, 15.224999999999998 28.169999999999998, 15.059999999999999 27.36 C 14.94 26.37, 15.03 26.415000000000003, 14.82 25.380000000000003 C 14.52 24.3, 14.415000000000001 24.06, 14.22 23.22 C 14.129999999999999 22.619999999999997, 14.129999999999999 22.605, 14.04 22.02 C 13.95 21.45, 13.95 21.39, 13.86 20.88 C 13.77 20.43, 13.725 20.52, 13.68 19.98 C 13.68 19.35, 13.68 19.335, 13.68 18.72 C 13.68 18.119999999999997, 13.68 18.134999999999998, 13.68 17.52 C 13.68 16.89, 13.65 16.694999999999997, 13.68 16.259999999999998 C 13.739999999999998 16.02, 13.739999999999998 15.944999999999999, 13.799999999999999 15.78 C 13.86 15.690000000000001, 13.559999999999999 15.915000000000001, 13.919999999999998 15.600000000000001 C 14.579999999999998 15.06, 14.669999999999998 14.865, 15.24 14.52 C 15.720000000000002 14.370000000000001, 15.615000000000002 14.34, 16.200000000000003 14.22 C 16.89 14.129999999999999, 16.815000000000005 14.129999999999999, 17.580000000000002 14.04 C 18.42 13.95, 18.57 13.95, 19.259999999999998 13.86 C 19.799999999999997 13.77, 19.71 13.725, 20.34 13.68 C 21.060000000000002 13.68, 21.105 13.68, 21.78 13.68 C 22.41 13.68, 22.575 13.68, 23.04 13.68 C 23.34 13.68, 23.415 13.68, 23.64 13.68 C 23.79 13.68, 23.745 13.65, 23.94 13.68 C 24.18 13.739999999999998, 24.255000000000003 13.739999999999998, 24.42 13.799999999999999 C 24.509999999999998 13.86, 24.464999999999996 13.814999999999998, 24.599999999999998 13.919999999999998 C 24.78 14.07, 24.75 13.98, 24.96 14.22 C 25.200000000000003 14.55, 25.275000000000002 14.594999999999999, 25.44 14.879999999999999 C 25.53 15.12, 25.56 15.09, 25.619999999999997 15.36 C 25.65 15.66, 25.665 15.540000000000001, 25.68 15.96 C 25.68 16.5, 25.68 16.395, 25.68 17.04 C 25.68 17.79, 25.68 17.79, 25.68 18.54 C 25.68 19.29, 25.68 19.154999999999998, 25.68 20.04 C 25.68 21.060000000000002, 25.77 20.985, 25.68 22.080000000000002 C 25.5 23.25, 25.545 23.220000000000002, 25.32 24.42 C 25.05 25.650000000000002, 25.05 25.770000000000003, 24.78 26.880000000000003 C 24.51 27.87, 24.450000000000003 28.08, 24.240000000000002 28.86 C 24.090000000000003 29.43, 24.060000000000002 29.4, 23.94 30 C 23.85 30.63, 23.805 30.9, 23.759999999999998 31.259999999999998 C 23.759999999999998 31.35, 23.759999999999998 31.365000000000002, 23.759999999999998 31.44 C 23.759999999999998 31.5, 23.759999999999998 31.53, 23.759999999999998 31.56 C 23.759999999999998 31.56, 23.759999999999998 31.56, 23.759999999999998 31.56 C 23.759999999999998 31.56, 23.759999999999998 31.56, 23.759999999999998 31.56 C 23.759999999999998 31.56, 23.759999999999998 31.56, 23.759999999999998 31.56 C 23.759999999999998 31.56, 23.759999999999998 31.56, 23.759999999999998 31.56 C 23.759999999999998 31.56, 23.759999999999998 31.56, 23.759999999999998 31.56 C 23.759999999999998 31.56, 23.759999999999998 31.56, 23.759999999999998 31.56 L 23.759999999999998 31.56" fill="none" stroke="black" stroke-width="2"></path><path d="M 13.799999999999999 32.22 C 13.799999999999999 32.22, 13.754999999999999 32.235, 13.799999999999999 32.22 C 13.89 32.19, 13.425 32.205000000000005, 13.98 32.160000000000004 C 15 32.1, 14.895 32.144999999999996, 16.02 32.04 C 17.25 31.89, 17.22 31.815, 18.48 31.740000000000002 C 19.77 31.740000000000002, 19.875 31.740000000000002, 21.06 31.740000000000002 C 22.14 31.740000000000002, 22.244999999999997 31.740000000000002, 23.22 31.740000000000002 C 24.09 31.740000000000002, 24.36 31.740000000000002, 24.96 31.740000000000002 C 25.29 31.740000000000002, 25.424999999999997 31.725, 25.619999999999997 31.740000000000002 C 25.68 31.77, 25.71 31.784999999999997, 25.740000000000002 31.799999999999997 L 25.740000000000002 31.799999999999997" fill="none" stroke="black" stroke-width="2"></path><path d="M 13.32 36.78 C 14.61 36.480000000000004, 14.774999999999999 36.405, 15.899999999999999 36.18 C 16.86 36.03, 16.725 35.955, 17.82 35.88 C 19.05 35.88, 19.05 35.88, 20.28 35.88 C 21.51 35.88, 21.495000000000005 35.88, 22.740000000000002 35.88 C 24 35.88, 24.345 35.88, 25.259999999999998 35.88 C 25.83 35.88, 25.965000000000003 35.88, 26.400000000000002 35.88 C 26.700000000000003 35.88, 26.85 35.88, 27 35.88 L 27 35.88" fill="none" stroke="black" stroke-width="2"></path><path d="M 23.88 2.04 C 23.28 2.7, 23.4 2.6100000000000003, 22.68 3.3600000000000003 C 21.84 4.2, 21.675 4.305, 21 5.04 C 20.490000000000002 5.67, 20.61 5.550000000000001, 19.98 6.300000000000001 C 19.23 7.170000000000001, 19.065 7.395000000000001, 18.48 8.040000000000001 C 18.060000000000002 8.46, 17.985 8.549999999999999, 17.64 8.879999999999999 C 17.37 9.12, 17.235 9.239999999999998, 17.1 9.36 L 17.1 9.36" fill="none" stroke="black" stroke-width="2"></path></svg>