<svg width="48" height="48" viewBox="0 0 48 48" xmlns="http://www.w3.org/2000/svg"><path d="M 14.580000000000002 3.24 C 14.73 3.3000000000000003, 14.79 2.7450000000000006, 14.879999999999999 3.3600000000000003 C 14.91 4.529999999999999, 15.240000000000002 3.8249999999999993, 14.940000000000001 5.699999999999999 C 14.31 8.28, 14.1 8.25, 13.68 10.86 C 13.469999999999999 13.5, 13.365 13.425, 13.26 16.14 C 13.26 18.93, 13.26 19.589999999999996, 13.26 21.72 C 13.26 23.19, 13.26 22.740000000000002, 13.26 24.660000000000004 C 13.26 27.03, 13.17 27.495000000000005, 13.26 29.400000000000002 C 13.440000000000001 30.840000000000003, 13.365000000000002 31.230000000000004, 13.620000000000001 32.28 C 13.95 32.94, 13.965 33.105, 14.28 33.599999999999994 C 14.579999999999998 33.92999999999999, 14.565 34.035, 14.879999999999999 34.26 C 15.209999999999999 34.379999999999995, 15.149999999999999 34.44, 15.54 34.5 C 15.99 34.5, 15.795000000000002 34.71, 16.44 34.5 C 17.28 34.08, 17.37 34.32000000000001, 18.12 33.660000000000004 C 18.78 32.760000000000005, 18.900000000000002 32.730000000000004, 19.44 31.86 C 19.86 31.02, 19.950000000000003 31.155, 20.28 30.18 C 20.52 29.07, 20.445 29.055, 20.759999999999998 27.96 C 21.15 26.88, 21.299999999999997 26.429999999999996, 21.54 25.799999999999997 C 21.63 25.619999999999997, 21.63 25.575000000000003, 21.72 25.44 C 21.81 25.35, 21.779999999999998 25.2, 21.9 25.259999999999998 C 22.05 25.47, 22.125 24.945, 22.200000000000003 25.68 C 22.200000000000003 26.94, 22.155000000000005 27.105000000000004, 22.200000000000003 28.200000000000003 C 22.29 29.130000000000003, 22.215 29.13, 22.38 30.06 C 22.619999999999997 30.990000000000002, 22.425 31.110000000000003, 22.86 31.92 C 23.49 32.61, 23.234999999999996 32.73, 24.119999999999997 33.3 C 25.259999999999998 33.75, 25.11 33.945, 26.400000000000002 34.2 C 27.840000000000003 34.260000000000005, 28.275000000000002 34.32, 29.28 34.32 C 29.85 34.260000000000005, 30.060000000000002 34.290000000000006, 30.42 34.2 C 30.57 34.08, 30.585 34.11, 30.72 33.96 L 30.96 33.599999999999994" fill="none" stroke="black" stroke-width="2"></path><path d="M 24.900000000000002 3.96 C 24.810000000000002 4.83, 25.095 4.634999999999999, 24.72 5.699999999999999 C 24.06 6.96, 24 7.140000000000001, 23.4 8.22 C 22.86 9.120000000000001, 23.009999999999998 8.985, 22.32 10.02 C 21.48 11.19, 21.48 11.34, 20.64 12.36 C 19.8 13.23, 19.725 13.305000000000001, 18.96 14.100000000000001 C 18.270000000000003 14.82, 18.135 14.954999999999998, 17.580000000000002 15.54 C 17.160000000000004 15.99, 17.205000000000002 16.035, 16.740000000000002 16.44 C 16.23 16.8, 16.200000000000003 16.830000000000002, 15.72 17.16 C 15.27 17.46, 15.075 17.595, 14.82 17.759999999999998 C 14.760000000000002 17.79, 14.82 17.759999999999998, 14.700000000000001 17.82 C 14.52 17.91, 14.475 17.94, 14.34 18 C 14.25 18.03, 14.280000000000001 18.044999999999998, 14.16 18.06 C 14.01 18.06, 13.934999999999999 18.06, 13.86 18.06 C 13.86 18.06, 13.86 18.06, 13.86 18.06 C 13.86 18.06, 13.86 18.06, 13.86 18.06 L 13.86 18.06" fill="none" stroke="black" stroke-width="2"></path><path d="M 12.600000000000001 39.480000000000004 C 14.22 39.510000000000005, 14.31 39.525, 15.84 39.54 C 17.28 39.54, 17.145 39.54, 18.72 39.54 C 20.43 39.54, 20.310000000000002 39.54, 22.14 39.54 C 24.09 39.54, 24.525 39.54, 26.04 39.54 C 27.12 39.54, 27.060000000000002 39.449999999999996, 28.200000000000003 39.54 C 29.4 39.72, 29.625 39.81, 30.599999999999998 39.900000000000006 C 31.349999999999994 39.900000000000006, 31.724999999999994 39.900000000000006, 32.099999999999994 39.900000000000006 L 32.099999999999994 39.900000000000006" fill="none" stroke="black" stroke-width="2"></path><path d="M 10.44 45.18 C 11.58 45.21, 10.53 45.225, 12.72 45.24 C 15.96 45.24, 16.470000000000002 45.24, 19.200000000000003 45.24 C 21.42 45.24, 21.990000000000002 45.195, 23.64 45.24 C 24.72 45.33, 24.239999999999995 45.27, 25.799999999999997 45.42 C 27.84 45.629999999999995, 28.185000000000002 45.644999999999996, 29.880000000000003 45.839999999999996 C 31.23 46.019999999999996, 31.68 46.11, 32.58 46.2 L 33.480000000000004 46.2" fill="none" stroke="black" stroke-width="2"></path></svg>