<svg width="48" height="48" viewBox="0 0 48 48" xmlns="http://www.w3.org/2000/svg"><path d="M 14.28 3.66 C 14.25 4.05, 14.235 3.3149999999999995, 14.22 4.4399999999999995 C 14.22 6.3, 14.22 6.359999999999999, 14.22 8.16 C 14.22 9.9, 14.22 9.795000000000002, 14.22 11.64 C 14.22 13.59, 14.22 13.695, 14.22 15.54 C 14.22 17.28, 14.22 17.58, 14.22 19.02 C 14.22 20.159999999999997, 14.175 20.354999999999997, 14.22 21.299999999999997 C 14.309999999999999 22.049999999999997, 14.145 22.139999999999997, 14.399999999999999 22.799999999999997 C 14.82 23.369999999999997, 14.91 23.52, 15.24 23.94 C 15.48 24.21, 15.345 24.225, 15.72 24.48 C 16.23 24.72, 16.335 24.75, 16.740000000000002 24.96 C 17.04 25.14, 17.025 25.215, 17.34 25.32 C 17.67 25.35, 17.535 25.365000000000002, 18 25.380000000000003 C 18.6 25.380000000000003, 18.705000000000002 25.380000000000003, 19.200000000000003 25.380000000000003 C 19.590000000000003 25.380000000000003, 19.71 25.380000000000003, 19.98 25.380000000000003 C 20.130000000000003 25.380000000000003, 20.115000000000002 25.515000000000004, 20.28 25.380000000000003 C 20.46 25.11, 20.535 25.169999999999998, 20.64 24.839999999999996 C 20.67 24.449999999999996, 20.595000000000002 24.57, 20.700000000000003 24.06 C 20.880000000000003 23.43, 20.82 23.58, 21.06 22.799999999999997 C 21.36 21.869999999999997, 21.435 21.72, 21.66 20.94 C 21.810000000000002 20.310000000000002, 21.885 20.355, 21.96 19.68 C 21.96 18.96, 21.87 18.96, 21.96 18.240000000000002 C 22.14 17.52, 22.215 17.354999999999997, 22.32 16.799999999999997 C 22.35 16.409999999999997, 22.335 16.259999999999998, 22.38 16.02 C 22.439999999999998 15.93, 22.439999999999998 15.9, 22.5 15.84 C 22.560000000000002 15.809999999999999, 22.560000000000002 15.57, 22.62 15.78 C 22.68 16.23, 22.71 16.259999999999998, 22.740000000000002 16.68 C 22.740000000000002 17.07, 22.635 16.905, 22.740000000000002 17.46 C 22.950000000000003 18.18, 22.995 18.24, 23.16 18.9 C 23.28 19.5, 23.189999999999998 19.515, 23.4 20.1 C 23.7 20.67, 23.744999999999997 20.745, 24 21.240000000000002 C 24.21 21.660000000000004, 24.150000000000002 21.630000000000003, 24.42 22.080000000000002 C 24.75 22.560000000000002, 24.75 22.62, 25.08 23.04 C 25.41 23.4, 25.53 23.534999999999997, 25.740000000000002 23.759999999999998 C 25.830000000000002 23.85, 25.830000000000002 23.85, 25.92 23.94 C 26.009999999999998 24.03, 26.009999999999998 24.06, 26.099999999999998 24.119999999999997 C 26.189999999999998 24.15, 26.205 24.165, 26.28 24.18 C 26.340000000000003 24.18, 26.325000000000003 24.18, 26.400000000000002 24.18 C 26.490000000000002 24.18, 26.535 24.18, 26.58 24.18 C 26.58 24.18, 26.549999999999997 24.18, 26.58 24.18 C 26.64 24.18, 26.67 24.18, 26.700000000000003 24.18 C 26.700000000000003 24.18, 26.625000000000004 24.225, 26.700000000000003 24.18 C 26.85 24.09, 26.79 24.15, 27 24 C 27.27 23.79, 27.33 23.715000000000003, 27.54 23.580000000000002 C 27.689999999999998 23.520000000000003, 27.644999999999996 23.595000000000002, 27.839999999999996 23.46 C 28.08 23.25, 28.064999999999998 23.235, 28.32 23.04 C 28.59 22.86, 28.65 22.89, 28.86 22.68 C 29.01 22.44, 28.995000000000005 22.605000000000004, 29.160000000000004 22.200000000000003 C 29.340000000000003 21.630000000000003, 29.355 21.735, 29.52 21.06 C 29.67 20.28, 29.7 20.505, 29.82 19.5 C 29.91 18.27, 29.955 18.21, 30 17.04 C 30 15.93, 30 15.915, 30 14.82 C 30 13.74, 30 13.845, 30 12.66 C 30 11.370000000000001, 30.060000000000002 11.235, 30 10.08 C 29.88 9.06, 29.894999999999996 8.805000000000001, 29.759999999999998 8.040000000000001 C 29.61 7.53, 29.565 7.545, 29.46 7.02 C 29.4 6.4799999999999995, 29.459999999999997 6.539999999999999, 29.339999999999996 5.9399999999999995 C 29.159999999999997 5.279999999999999, 29.115000000000002 5.1, 28.98 4.62 C 28.89 4.32, 28.874999999999996 4.260000000000001, 28.799999999999997 4.0200000000000005 C 28.74 3.8400000000000003, 28.74 3.7800000000000002, 28.68 3.66 C 28.619999999999997 3.6, 28.695 3.66, 28.56 3.54 C 28.35 3.3600000000000003, 28.365 3.33, 28.14 3.18 C 27.900000000000002 3.06, 27.855000000000004 3.015, 27.660000000000004 2.94 C 27.51 2.91, 27.51 2.925, 27.36 2.88 C 27.21 2.8200000000000003, 27.18 2.79, 27.06 2.7600000000000002 C 26.97 2.7600000000000002, 27.000000000000004 2.7600000000000002, 26.880000000000003 2.7600000000000002 C 26.73 2.7600000000000002, 26.775 2.7150000000000003, 26.58 2.7600000000000002 C 26.339999999999996 2.85, 26.309999999999995 2.85, 26.099999999999998 2.94 C 25.92 3.0300000000000002, 25.995 2.895, 25.740000000000002 3.12 C 25.41 3.48, 25.395 3.495, 25.08 3.84 C 24.78 4.17, 24.825 4.08, 24.48 4.5 C 24.090000000000003 5.01, 24.135 4.9350000000000005, 23.700000000000003 5.5200000000000005 C 23.220000000000002 6.18, 23.295 6.06, 22.740000000000002 6.84 C 22.11 7.74, 21.915 7.98, 21.48 8.64 C 21.240000000000002 9.06, 21.18 9.15, 21 9.48 C 20.88 9.719999999999999, 20.834999999999997 9.794999999999998, 20.759999999999998 9.959999999999999 C 20.73 10.05, 20.715000000000003 10.095, 20.700000000000003 10.14 C 20.700000000000003 10.14, 20.745000000000005 10.095, 20.700000000000003 10.14 L 20.52 10.32" fill="none" stroke="black" stroke-width="2"></path><path d="M 22.68 19.56 C 22.71 20.009999999999998, 22.725 19.95, 22.740000000000002 20.46 C 22.740000000000002 21.03, 22.875 20.580000000000002, 22.740000000000002 21.6 C 22.470000000000002 23.07, 22.425000000000004 23.235, 22.200000000000003 24.54 C 22.020000000000003 25.68, 21.93 25.845, 21.84 26.82 C 21.84 27.630000000000003, 21.84 27.42, 21.84 28.44 C 21.84 29.67, 21.884999999999998 29.745, 21.84 30.900000000000002 C 21.75 31.980000000000004, 21.705 32.04, 21.66 33.06 C 21.66 34.02, 21.66 34.02, 21.66 34.980000000000004 C 21.66 35.940000000000005, 21.66 36.120000000000005, 21.66 36.900000000000006 C 21.66 37.5, 21.66 37.334999999999994, 21.66 38.099999999999994 C 21.66 39.03, 21.615000000000002 39.09, 21.66 39.96 C 21.75 40.769999999999996, 21.705 40.86, 21.84 41.58 C 22.020000000000003 42.209999999999994, 22.080000000000002 42.33, 22.200000000000003 42.839999999999996 C 22.26 43.23, 22.23 43.305, 22.32 43.62 C 22.439999999999998 43.86, 22.455 43.934999999999995, 22.56 44.099999999999994 C 22.65 44.19, 22.62 44.205, 22.740000000000002 44.28 C 22.89 44.34, 22.875 44.34, 23.04 44.400000000000006 C 23.22 44.46, 23.264999999999997 44.489999999999995, 23.4 44.519999999999996 C 23.490000000000002 44.519999999999996, 23.505000000000003 44.519999999999996, 23.580000000000002 44.519999999999996 C 23.64 44.519999999999996, 23.610000000000003 44.595, 23.700000000000003 44.519999999999996 C 23.82 44.37, 23.82 44.504999999999995, 23.94 44.22 C 24.060000000000002 43.8, 24.015 43.83, 24.18 43.38 C 24.39 42.900000000000006, 24.375 42.900000000000006, 24.599999999999998 42.42 C 24.839999999999996 41.94, 24.81 42.06, 25.08 41.46 C 25.38 40.739999999999995, 25.409999999999997 40.815, 25.68 40.019999999999996 C 25.92 39.15, 25.905 39.075, 26.160000000000004 38.28 C 26.430000000000003 37.56, 26.340000000000003 37.635, 26.700000000000003 36.839999999999996 C 27.15 35.97, 27.089999999999996 35.81999999999999, 27.599999999999998 35.099999999999994 C 28.17 34.53, 28.065 34.32, 28.740000000000002 33.96 C 29.52 33.81, 29.534999999999997 33.765, 30.299999999999997 33.660000000000004 C 31.049999999999997 33.6, 31.244999999999997 33.57, 31.799999999999997 33.54 C 32.16 33.54, 32.309999999999995 33.54, 32.519999999999996 33.54 C 32.58 33.54, 32.61 33.54, 32.64 33.54 L 32.64 33.54" fill="none" stroke="black" stroke-width="2"></path></svg>