<svg width="48" height="48" viewBox="0 0 48 48" xmlns="http://www.w3.org/2000/svg"><path d="M 18.72 44.160000000000004 C 18.509999999999998 44.160000000000004, 18.644999999999996 44.11500000000001, 18.299999999999997 44.160000000000004 C 17.82 44.25, 17.82 44.25, 17.34 44.339999999999996 C 16.86 44.42999999999999, 16.979999999999997 44.39999999999999, 16.38 44.519999999999996 C 15.66 44.67, 15.615000000000002 44.655, 14.940000000000001 44.82 C 14.31 45, 14.190000000000001 45.09, 13.68 45.18 C 13.29 45.18, 13.094999999999999 45.18, 12.899999999999999 45.18 C 12.899999999999999 45.18, 12.899999999999999 45.18, 12.899999999999999 45.18 C 12.899999999999999 45.18, 12.899999999999999 45.18, 12.899999999999999 45.18 C 12.899999999999999 45.18, 12.899999999999999 45.18, 12.899999999999999 45.18 C 12.899999999999999 45.18, 13.034999999999998 45.495, 12.899999999999999 45.18 C 12.629999999999999 44.55, 12.555 44.7, 12.36 43.92 C 12.24 42.99, 12.18 43.230000000000004, 12.120000000000001 42.06 C 12.120000000000001 40.650000000000006, 12.120000000000001 40.650000000000006, 12.120000000000001 39.24 C 12.120000000000001 37.83, 12.120000000000001 37.995000000000005, 12.120000000000001 36.42 C 12.120000000000001 34.68, 12.150000000000002 34.455, 12.120000000000001 32.94 C 12.06 31.65, 12.045 31.74, 12 30.36 C 11.969999999999999 28.89, 11.955 28.92, 11.94 27.42 C 11.94 25.89, 11.895 25.814999999999998, 11.94 24.36 C 12.030000000000001 22.98, 12.015 22.575000000000003, 12.120000000000001 21.6 C 12.24 21.03, 12.149999999999999 21.18, 12.36 20.46 C 12.66 19.59, 12.600000000000001 19.5, 12.96 18.72 C 13.379999999999999 18.03, 13.424999999999999 17.744999999999997, 13.799999999999999 17.34 C 14.129999999999999 17.22, 14.175 17.16, 14.46 17.1 C 14.700000000000001 17.1, 14.670000000000002 17.07, 14.940000000000001 17.1 C 15.24 17.16, 15.18 16.89, 15.54 17.22 C 15.959999999999999 17.82, 15.899999999999999 17.61, 16.38 18.419999999999998 C 16.92 19.439999999999998, 17.025 19.35, 17.46 20.46 C 17.79 21.66, 17.835 21.63, 18.12 22.86 C 18.36 24.12, 18.435000000000002 24.405, 18.6 25.380000000000003 C 18.69 26.07, 18.735 26.415, 18.78 26.759999999999998 C 18.78 26.759999999999998, 18.795 26.805, 18.78 26.759999999999998 C 18.75 26.669999999999998, 18.72 27.269999999999996, 18.72 26.58 C 18.75 25.29, 18.6 25.485, 18.78 24 C 19.11 22.32, 19.125 21.915, 19.44 20.64 C 19.740000000000002 19.77, 19.724999999999998 19.544999999999998, 20.04 18.9 C 20.37 18.479999999999997, 20.310000000000002 18.464999999999996, 20.700000000000003 18.06 C 21.150000000000002 17.67, 21.195 17.475, 21.6 17.28 C 21.96 17.28, 21.885 17.145000000000003, 22.32 17.28 C 22.83 17.55, 22.875 17.445, 23.34 17.82 C 23.759999999999998 18.3, 23.79 18.21, 24.18 18.78 C 24.54 19.44, 24.465000000000003 19.080000000000002, 24.900000000000002 20.1 C 25.410000000000004 21.48, 25.470000000000002 21.375, 25.92 22.86 C 26.310000000000002 24.45, 26.400000000000006 24.39, 26.700000000000003 26.04 C 26.91 27.75, 26.909999999999997 27.435000000000002, 27.119999999999997 29.46 C 27.33 31.8, 27.435 32.28, 27.54 34.14 C 27.54 35.52, 27.54 35.760000000000005, 27.54 36.900000000000006 C 27.54 37.800000000000004, 27.54 37.845000000000006, 27.54 38.7 C 27.54 39.510000000000005, 27.54 39.69, 27.54 40.32 C 27.54 40.769999999999996, 27.54 40.725, 27.54 41.22 C 27.54 41.76, 27.54 41.684999999999995, 27.54 42.3 C 27.54 42.989999999999995, 27.54 43.17, 27.54 43.68 C 27.54 44.01, 27.54 44.175, 27.54 44.339999999999996 C 27.54 44.339999999999996, 27.54 44.339999999999996, 27.54 44.339999999999996 L 27.54 44.339999999999996" fill="none" stroke="black" stroke-width="2"></path><path d="M 25.98 2.58 C 25.590000000000003 3.12, 25.755000000000003 2.9400000000000004, 25.200000000000003 3.66 C 24.48 4.5600000000000005, 24.765 4.35, 23.759999999999998 5.46 C 22.47 6.780000000000001, 22.305 6.7650000000000015, 21.18 8.100000000000001 C 20.22 9.450000000000001, 19.889999999999997 9.885000000000002, 19.259999999999998 10.8 L 18.66 11.76" fill="none" stroke="black" stroke-width="2"></path></svg>