<svg width="48" height="48" viewBox="0 0 48 48" xmlns="http://www.w3.org/2000/svg"><path d="M 11.58 37.86 C 11.91 37.89, 11.775 38.010000000000005, 12.24 37.92 C 12.84 37.71, 12.840000000000002 37.695, 13.440000000000001 37.5 C 14.040000000000001 37.32, 14.100000000000001 37.29, 14.64 37.14 C 15.120000000000001 37.02, 15.090000000000002 37.03500000000001, 15.600000000000001 36.900000000000006 C 16.14 36.75, 16.125 36.72, 16.68 36.599999999999994 C 17.25 36.51, 17.385 36.465, 17.82 36.42 C 18.119999999999997 36.42, 18.074999999999996 36.42, 18.419999999999998 36.42 C 18.810000000000002 36.42, 18.855000000000004 36.42, 19.200000000000003 36.42 C 19.5 36.42, 19.65 36.42, 19.799999999999997 36.42 C 19.799999999999997 36.42, 19.799999999999997 36.42, 19.799999999999997 36.42 L 19.799999999999997 36.42" fill="none" stroke="black" stroke-width="2"></path><path d="M 12.899999999999999 45 C 12.719999999999999 43.83, 12.825 44.05500000000001, 12.54 42.660000000000004 C 12.149999999999999 41.040000000000006, 12 40.605000000000004, 11.76 39.42 C 11.67 38.67, 11.655000000000001 38.565000000000005, 11.58 37.92 C 11.52 37.379999999999995, 11.52 37.665, 11.459999999999999 36.839999999999996 C 11.399999999999999 35.73, 11.385 35.91, 11.34 34.62 C 11.309999999999999 33.15, 11.295 33.285, 11.28 31.68 C 11.28 29.94, 11.28 29.865000000000002, 11.28 28.200000000000003 C 11.28 26.61, 11.28 26.384999999999998, 11.28 25.02 C 11.28 23.880000000000003, 11.28 23.64, 11.28 22.740000000000002 C 11.28 22.08, 11.28 22.125, 11.28 21.419999999999998 C 11.28 20.669999999999998, 11.28 20.654999999999998, 11.28 19.919999999999998 C 11.28 19.2, 11.235 19.05, 11.28 18.48 C 11.37 18.060000000000002, 11.354999999999999 17.97, 11.459999999999999 17.64 C 11.579999999999998 17.4, 11.625 17.310000000000002, 11.7 17.16 C 11.73 17.1, 11.55 17.145, 11.76 17.04 C 12.149999999999999 16.89, 11.954999999999998 16.800000000000004, 12.54 16.740000000000002 C 13.32 16.77, 13.5 16.68, 14.100000000000001 16.799999999999997 C 14.520000000000001 17.009999999999998, 14.565000000000001 17.025, 14.940000000000001 17.22 C 15.270000000000001 17.4, 15.225000000000001 17.19, 15.600000000000001 17.580000000000002 C 16.020000000000003 18.18, 16.020000000000003 17.910000000000004, 16.44 18.78 C 16.86 19.92, 16.98 20.04, 17.28 21.06 C 17.46 21.96, 17.475 22.02, 17.64 22.86 C 17.79 23.64, 17.865000000000002 23.79, 17.94 24.42 C 17.94 24.900000000000002, 17.94 25.14, 17.94 25.380000000000003 C 17.94 25.380000000000003, 17.955000000000002 25.980000000000004, 17.94 25.380000000000003 C 17.91 24.18, 17.895 24.045, 17.88 22.98 C 17.88 22.05, 17.849999999999998 22.065, 17.88 21.12 C 17.939999999999998 20.160000000000004, 17.895 19.890000000000004, 18 19.200000000000003 C 18.15 18.78, 17.985 18.795, 18.299999999999997 18.36 C 18.779999999999998 17.91, 18.525 17.85, 19.259999999999998 17.46 C 20.25 17.13, 20.46 17.009999999999998, 21.240000000000002 16.799999999999997 C 21.810000000000002 16.71, 21.735 16.71, 22.38 16.62 C 23.1 16.53, 23.189999999999998 16.485, 23.82 16.44 C 24.36 16.44, 24.435000000000002 16.44, 24.900000000000002 16.44 C 25.29 16.44, 25.41 16.44, 25.68 16.44 C 25.83 16.44, 25.905 16.44, 25.98 16.44 L 25.98 16.44" fill="none" stroke="black" stroke-width="2"></path><path d="M 25.92 2.0999999999999996 C 25.59 2.19, 25.71 1.98, 25.259999999999998 2.2800000000000002 C 24.689999999999998 2.79, 24.794999999999998 2.67, 24.119999999999997 3.3000000000000003 C 23.339999999999996 4.050000000000001, 23.294999999999998 4.050000000000001, 22.56 4.800000000000001 C 21.869999999999997 5.550000000000001, 21.9 5.565000000000001, 21.18 6.300000000000001 C 20.43 7.0200000000000005, 20.4 6.99, 19.68 7.74 C 18.99 8.52, 19.049999999999997 8.520000000000001, 18.299999999999997 9.3 C 17.49 10.08, 17.16 10.379999999999999, 16.68 10.86 C 16.53 11.04, 16.455 11.13, 16.38 11.22 L 16.38 11.22" fill="none" stroke="black" stroke-width="2"></path></svg>