<svg width="48" height="48" viewBox="0 0 48 48" xmlns="http://www.w3.org/2000/svg"><path d="M 10.86 3.4799999999999995 C 10.14 7.769999999999999, 9.84 8.294999999999998, 9.42 12.059999999999999 C 9.3 15.299999999999999, 9.36 15.689999999999998, 9.18 18.54 C 8.94 21, 8.864999999999998 20.64, 8.7 23.46 C 8.61 26.64, 8.684999999999999 27.015, 8.52 29.82 C 8.280000000000001 32.25, 8.25 32.67, 8.040000000000001 34.68 C 7.86 36.269999999999996, 7.859999999999999 36.165, 7.68 37.86 C 7.5 39.66, 7.41 40.275000000000006, 7.32 41.46 C 7.32 42.03, 7.155 42.13499999999999, 7.32 42.599999999999994 C 7.65 42.959999999999994, 7.545 43.065, 7.98 43.32 C 8.52 43.47, 8.505 43.5, 9.06 43.62 C 9.629999999999999 43.709999999999994, 9.645 43.754999999999995, 10.2 43.8 C 10.739999999999998 43.8, 10.77 43.89, 11.28 43.8 C 11.76 43.62, 11.67 43.89, 12.24 43.44 C 12.899999999999999 42.72, 12.825 43.14, 13.559999999999999 42 C 14.37 40.44, 14.16 41.07, 15.18 38.88 C 16.41 36.06, 16.68 35.745000000000005, 17.64 33.24 C 18.33 31.05, 18.675 30.18, 19.02 28.86 C 19.02 28.41, 19.02 28.185000000000002, 19.02 27.96 C 19.02 27.96, 19.05 27.705000000000002, 19.02 27.96 C 18.96 28.47, 19.32 27.75, 18.9 28.98 C 18.119999999999997 30.93, 17.82 31.350000000000005, 17.34 32.88 C 17.16 33.989999999999995, 17.07 33.91499999999999, 16.98 35.099999999999994 C 16.98 36.36, 16.89 36.434999999999995, 16.98 37.62 C 17.16 38.73, 16.95 38.985, 17.34 39.839999999999996 C 17.939999999999998 40.44, 18 40.665, 18.54 41.04 C 19.02 41.19, 18.825 41.24999999999999, 19.5 41.339999999999996 C 20.37 41.370000000000005, 20.355000000000004 41.655, 21.240000000000002 41.400000000000006 C 22.14 40.86, 22.08 41.370000000000005, 23.04 40.32 C 24.06 38.760000000000005, 24.18 38.790000000000006, 25.08 37.2 C 25.86 35.58, 25.86 35.205, 26.64 33.96 C 27.42 33.09, 27.360000000000003 32.85, 28.200000000000003 32.22 C 29.1 31.83, 29.115000000000002 31.68, 30 31.44 C 30.87 31.35, 30.900000000000002 31.11, 31.740000000000002 31.259999999999998 C 32.55 31.65, 32.76 31.439999999999998, 33.36 32.04 C 33.75 32.85, 33.81 32.190000000000005, 34.14 33.660000000000004 C 34.41 35.790000000000006, 34.545 36.39, 34.68 37.92 C 34.68 38.85, 34.845 38.985, 34.68 39.78 C 34.349999999999994 40.44, 34.559999999999995 40.559999999999995, 34.019999999999996 41.099999999999994 C 33.269999999999996 41.519999999999996, 33.599999999999994 41.565, 32.519999999999996 41.94 C 31.11 42.269999999999996, 30.720000000000002 42.449999999999996, 29.700000000000003 42.599999999999994 C 29.07 42.56999999999999, 29.055 42.81, 28.44 42.54 C 27.840000000000003 42.03, 27.75 42.089999999999996, 27.240000000000002 41.519999999999996 C 26.82 40.89, 26.760000000000005 40.875, 26.400000000000002 40.26 C 26.1 39.66, 26.115 39.6, 25.799999999999997 39.06 C 25.47 38.58, 25.35 38.42999999999999, 25.14 38.099999999999994 C 25.05 37.92, 25.005000000000003 37.83, 24.96 37.74 C 24.96 37.74, 24.96 37.74, 24.96 37.74 L 24.96 37.74" fill="none" stroke="black" stroke-width="2"></path><path d="M 27 4.5600000000000005 C 26.43 5.73, 26.43 5.7749999999999995, 25.86 6.8999999999999995 C 25.29 7.98, 25.56 7.7700000000000005, 24.72 9.06 C 23.61 10.559999999999999, 23.564999999999998 10.665, 22.5 12.059999999999999 C 21.48 13.35, 21.675 13.335, 20.46 14.64 C 19.05 15.96, 18.93 16.125, 17.64 17.28 C 16.47 18.27, 16.455 18.314999999999998, 15.299999999999999 19.259999999999998 C 14.16 20.159999999999997, 14.024999999999999 20.324999999999996, 13.02 21.06 C 12.149999999999999 21.630000000000003, 11.805 21.870000000000005, 11.28 22.200000000000003 C 11.1 22.29, 11.084999999999999 22.305, 10.92 22.38 C 10.77 22.439999999999998, 10.845 22.47, 10.620000000000001 22.5 C 10.32 22.5, 10.26 22.5, 10.02 22.5 C 9.84 22.5, 9.75 22.5, 9.66 22.5 C 9.66 22.5, 9.66 22.5, 9.66 22.5 C 9.66 22.5, 9.69 22.5, 9.66 22.5 L 9.540000000000001 22.5" fill="none" stroke="black" stroke-width="2"></path></svg>