<svg width="48" height="48" viewBox="0 0 48 48" xmlns="http://www.w3.org/2000/svg"><path d="M 15.84 28.14 C 16.08 28.14, 15.975000000000001 28.14, 16.32 28.14 C 16.77 28.14, 16.65 28.14, 17.22 28.14 C 17.91 28.14, 17.85 28.14, 18.6 28.14 C 19.41 28.14, 19.455 28.14, 20.22 28.14 C 20.939999999999998 28.14, 21.015 28.185000000000002, 21.66 28.14 C 22.229999999999997 28.05, 22.139999999999997 28.005000000000003, 22.799999999999997 27.96 C 23.549999999999997 27.96, 23.58 28.005000000000003, 24.299999999999997 27.96 C 24.99 27.87, 25.095 27.855, 25.68 27.78 C 26.16 27.720000000000002, 26.22 27.690000000000005, 26.64 27.660000000000004 C 27 27.660000000000004, 26.985 27.705000000000005, 27.36 27.660000000000004 C 27.75 27.57, 27.78 27.57, 28.14 27.48 C 28.47 27.39, 28.514999999999997 27.359999999999996, 28.799999999999997 27.299999999999997 C 29.04 27.27, 29.04 27.3, 29.28 27.240000000000002 C 29.52 27.15, 29.519999999999996 27.165, 29.759999999999998 27.06 C 30 26.939999999999998, 30 27.135, 30.240000000000002 26.82 C 30.48 26.31, 30.57 26.279999999999998, 30.72 25.799999999999997 C 30.779999999999998 25.35, 30.809999999999995 25.275000000000002, 30.839999999999996 24.900000000000002 C 30.839999999999996 24.6, 30.809999999999995 24.689999999999998, 30.839999999999996 24.299999999999997 C 30.9 23.82, 30.93 23.805, 30.96 23.34 C 30.96 22.89, 30.915 23.1, 30.96 22.44 C 31.05 21.57, 31.095 21.495000000000005, 31.14 20.700000000000003 C 31.14 19.98, 31.14 20.099999999999998, 31.14 19.259999999999998 C 31.14 18.299999999999997, 31.14 18.345, 31.14 17.34 C 31.14 16.29, 31.215000000000003 16.44, 31.14 15.24 C 30.99 13.89, 30.974999999999998 13.694999999999999, 30.839999999999996 12.54 C 30.72 11.58, 30.749999999999996 11.43, 30.599999999999998 10.620000000000001 C 30.42 9.96, 30.405 9.93, 30.240000000000002 9.3 C 30.090000000000003 8.700000000000001, 30.060000000000002 8.760000000000002, 29.94 8.100000000000001 C 29.85 7.380000000000001, 29.865 7.335000000000001, 29.759999999999998 6.66 C 29.64 6.03, 29.625 5.955, 29.52 5.4 C 29.43 4.92, 29.399999999999995 4.8, 29.339999999999996 4.4399999999999995 C 29.31 4.199999999999999, 29.34 4.154999999999999, 29.28 3.96 C 29.189999999999998 3.81, 29.145 3.7350000000000003, 29.099999999999998 3.66 C 29.099999999999998 3.66, 29.115 3.705, 29.099999999999998 3.66 C 29.07 3.57, 29.055 3.5249999999999995, 29.04 3.4799999999999995 C 29.04 3.4799999999999995, 29.145 3.494999999999999, 29.04 3.4799999999999995 C 28.83 3.4499999999999997, 28.724999999999998 3.4349999999999996, 28.619999999999997 3.42 C 28.619999999999997 3.42, 28.694999999999997 3.42, 28.619999999999997 3.42 C 28.47 3.42, 28.5 3.42, 28.32 3.42 C 28.11 3.42, 28.005000000000003 3.42, 27.900000000000002 3.42 C 27.900000000000002 3.42, 28.065 3.33, 27.900000000000002 3.42 C 27.57 3.6, 27.405 3.6900000000000004, 27.240000000000002 3.7800000000000002 C 27.240000000000002 3.7800000000000002, 27.330000000000002 3.615, 27.240000000000002 3.7800000000000002 C 27.060000000000002 4.109999999999999, 27.075000000000003 4.0649999999999995, 26.880000000000003 4.4399999999999995 C 26.67 4.859999999999999, 26.715000000000003 4.785, 26.46 5.28 C 26.16 5.85, 26.145 5.85, 25.86 6.42 C 25.59 6.99, 25.619999999999997 6.945, 25.32 7.5600000000000005 C 24.990000000000002 8.219999999999999, 25.035000000000004 8.129999999999999, 24.660000000000004 8.879999999999999 C 24.240000000000002 9.719999999999999, 24.21 9.795, 23.82 10.56 C 23.46 11.25, 23.400000000000002 11.34, 23.1 11.94 C 22.86 12.45, 22.755000000000003 12.66, 22.62 12.96 C 22.59 13.05, 22.619999999999997 13.005, 22.56 13.14 C 22.47 13.32, 22.455 13.379999999999999, 22.38 13.5 C 22.32 13.56, 22.29 13.59, 22.259999999999998 13.620000000000001 C 22.259999999999998 13.620000000000001, 22.275 13.575000000000001, 22.259999999999998 13.620000000000001 L 22.200000000000003 13.799999999999999" fill="none" stroke="black" stroke-width="2"></path><path d="M 15.36 44.94 C 16.08 44.73, 16.154999999999998 44.879999999999995, 16.799999999999997 44.519999999999996 C 17.369999999999997 44.01, 17.34 44.055, 17.94 43.5 C 18.57 42.9, 18.645000000000003 42.92999999999999, 19.200000000000003 42.3 C 19.68 41.64, 19.71 41.625, 20.16 40.980000000000004 C 20.58 40.35, 20.58 40.5, 21 39.72 C 21.42 38.79, 21.48 38.805, 21.84 37.86 C 22.14 36.9, 22.155 37.08, 22.44 35.94 C 22.71 34.62, 22.8 34.31999999999999, 22.98 33.3 C 23.07 32.58, 23.115000000000002 32.535, 23.16 31.86 C 23.16 31.229999999999997, 23.115000000000002 31.139999999999997, 23.16 30.599999999999998 C 23.25 30.15, 23.295 30.195000000000004, 23.34 29.700000000000003 C 23.34 29.16, 23.34 28.964999999999996, 23.34 28.619999999999997 C 23.34 28.47, 23.34 28.515, 23.34 28.32 C 23.34 28.08, 23.34 27.959999999999997, 23.34 27.839999999999996 C 23.34 27.839999999999996, 23.34 27.839999999999996, 23.34 27.839999999999996 C 23.34 27.839999999999996, 23.34 27.839999999999996, 23.34 27.839999999999996 C 23.34 27.839999999999996, 23.34 27.674999999999997, 23.34 27.839999999999996 C 23.34 28.169999999999998, 23.384999999999998 27.945, 23.34 28.5 C 23.25 29.28, 23.205 29.31, 23.16 30.06 C 23.16 30.78, 23.16 30.735, 23.16 31.5 C 23.16 32.31, 23.16 32.519999999999996, 23.16 33.12 C 23.16 33.510000000000005, 23.04 33.39, 23.16 33.900000000000006 C 23.4 34.53, 23.385 34.470000000000006, 23.64 35.160000000000004 C 23.91 35.910000000000004, 23.955 36.075, 24.18 36.660000000000004 C 24.36 37.08, 24.36 37.125, 24.54 37.5 C 24.72 37.83, 24.660000000000004 37.785000000000004, 24.900000000000002 38.160000000000004 C 25.200000000000003 38.58, 25.095 38.535000000000004, 25.5 39 C 26.009999999999998 39.51, 26.009999999999998 39.584999999999994, 26.52 40.019999999999996 C 27.03 40.379999999999995, 27.044999999999998 40.394999999999996, 27.54 40.74 C 28.02 41.07000000000001, 28.095 41.14500000000001, 28.5 41.400000000000006 C 28.830000000000002 41.58, 28.755000000000003 41.565, 29.160000000000004 41.76 C 29.64 41.97, 29.669999999999998 42, 30.119999999999997 42.18 C 30.54 42.33, 30.6 42.37500000000001, 30.96 42.480000000000004 C 31.259999999999998 42.54, 31.29 42.56999999999999, 31.56 42.599999999999994 C 31.799999999999997 42.599999999999994, 31.919999999999998 42.599999999999994, 32.04 42.599999999999994 C 32.04 42.599999999999994, 32.04 42.599999999999994, 32.04 42.599999999999994 L 32.04 42.599999999999994" fill="none" stroke="black" stroke-width="2"></path></svg>