<svg width="48" height="48" viewBox="0 0 48 48" xmlns="http://www.w3.org/2000/svg"><path d="M 13.26 3.54 C 13.26 4.4399999999999995, 13.26 3.4499999999999993, 13.26 5.34 C 13.26 8.22, 13.26 8.805000000000001, 13.26 11.100000000000001 C 13.26 12.81, 13.185 12.899999999999999, 13.26 14.52 C 13.41 16.05, 13.305 16.14, 13.559999999999999 17.580000000000002 C 13.919999999999998 18.93, 13.905 19.395000000000003, 14.28 20.28 C 14.669999999999998 20.700000000000003, 14.594999999999999 20.835, 15.059999999999999 21.12 C 15.6 21.27, 15.54 21.284999999999997, 16.14 21.419999999999998 C 16.8 21.54, 16.560000000000002 21.6, 17.46 21.66 C 18.6 21.66, 18.435000000000002 21.75, 19.740000000000002 21.66 C 21.21 21.479999999999997, 21.435000000000002 21.449999999999996, 22.68 21.299999999999997 C 23.7 21.18, 23.549999999999997 21.119999999999997, 24.72 21.06 C 26.04 21.06, 26.31 21.06, 27.36 21.06 C 28.14 21.06, 28.35 21.075, 28.92 21.06 C 29.28 21.03, 29.46 21.015, 29.64 21 C 29.64 21, 29.625 21.015, 29.64 21 L 29.700000000000003 20.94" fill="none" stroke="black" stroke-width="2"></path><path d="M 23.04 4.62 C 22.68 5.34, 22.740000000000002 5.265000000000001, 22.32 6.0600000000000005 C 21.84 6.930000000000001, 21.96 6.945, 21.36 7.800000000000001 C 20.64 8.64, 20.79 8.52, 19.919999999999998 9.48 C 18.9 10.56, 18.689999999999998 10.845, 17.88 11.64 C 17.28 12.15, 17.369999999999997 12.135, 16.68 12.66 C 15.9 13.2, 15.66 13.395, 15.120000000000001 13.74 C 14.82 13.89, 14.879999999999999 13.889999999999999, 14.52 14.04 C 14.1 14.19, 13.934999999999999 14.265, 13.68 14.34 C 13.59 14.34, 13.575 14.34, 13.5 14.34 C 13.44 14.34, 13.41 14.34, 13.379999999999999 14.34 L 13.379999999999999 14.34" fill="none" stroke="black" stroke-width="2"></path><path d="M 18.54 21 C 18.54 21, 18.525 20.985, 18.54 21 C 18.57 21.03, 18.465 20.865, 18.6 21.06 C 18.840000000000003 21.42, 18.96 21.165, 19.080000000000002 21.78 C 19.080000000000002 22.65, 19.080000000000002 22.53, 19.080000000000002 23.52 C 19.080000000000002 24.630000000000003, 19.095000000000002 24.345000000000002, 19.080000000000002 25.740000000000002 C 19.05 27.42, 19.08 27.33, 19.02 29.099999999999998 C 18.93 30.96, 18.884999999999998 30.69, 18.84 32.82 C 18.84 35.22, 18.855 35.775, 18.84 37.62 C 18.810000000000002 38.91, 18.825000000000003 39.120000000000005, 18.78 40.2 C 18.72 41.07, 18.69 41.114999999999995, 18.66 41.94 C 18.66 42.72, 18.66 42.93, 18.66 43.5 C 18.66 43.86, 18.66 44.04, 18.66 44.22 L 18.66 44.22" fill="none" stroke="black" stroke-width="2"></path><path d="M 26.82 21.419999999999998 C 26.82 22.979999999999997, 26.985 22.575, 26.82 24.54 C 26.490000000000002 26.91, 26.430000000000003 26.745, 26.160000000000004 29.28 C 25.950000000000003 31.98, 25.905 32.535, 25.740000000000002 34.68 C 25.62 36.269999999999996, 25.560000000000002 36.435, 25.5 37.86 C 25.5 39.120000000000005, 25.5 39.435, 25.5 40.38 C 25.5 41.010000000000005, 25.5 41.13, 25.5 41.64 C 25.5 42.03, 25.5 42.195, 25.5 42.42 C 25.5 42.480000000000004, 25.5 42.51, 25.5 42.54 C 25.5 42.54, 25.5 42.495, 25.5 42.54 C 25.5 42.629999999999995, 25.5 42.435, 25.5 42.72 C 25.5 43.2, 25.5 43.44, 25.5 43.68 L 25.5 43.68" fill="none" stroke="black" stroke-width="2"></path></svg>