<svg width="48" height="48" viewBox="0 0 48 48" xmlns="http://www.w3.org/2000/svg"><path d="M 13.200000000000001 31.5 C 12.96 30.12, 12.930000000000001 30.045, 12.72 28.740000000000002 C 12.54 27.51, 12.495 27.270000000000003, 12.36 26.28 C 12.27 25.53, 12.225 25.455000000000002, 12.18 24.78 C 12.18 24.18, 12.135 24.195, 12.18 23.580000000000002 C 12.27 22.950000000000003, 12.285 22.755000000000003, 12.36 22.32 C 12.42 22.08, 12.3 22.11, 12.48 21.84 C 12.780000000000001 21.54, 12.585 21.465000000000003, 13.080000000000002 21.240000000000002 C 13.770000000000001 21.090000000000003, 13.635000000000002 21.105, 14.46 20.94 C 15.42 20.76, 15.45 20.67, 16.38 20.580000000000002 C 17.28 20.580000000000002, 17.25 20.580000000000002, 18.18 20.580000000000002 C 19.14 20.580000000000002, 19.290000000000003 20.580000000000002, 20.1 20.580000000000002 C 20.759999999999998 20.580000000000002, 20.564999999999998 20.535000000000004, 21.419999999999998 20.580000000000002 C 22.47 20.67, 22.725 20.715, 23.52 20.759999999999998 C 24.06 20.759999999999998, 24.134999999999998 20.714999999999996, 24.599999999999998 20.759999999999998 C 24.990000000000002 20.85, 25.035000000000004 20.895, 25.380000000000003 20.94 C 25.68 20.94, 25.68 20.94, 25.98 20.94 C 26.28 20.94, 26.264999999999997 20.925, 26.58 20.94 C 26.91 20.97, 26.955000000000002 20.955, 27.240000000000002 21 C 27.48 21.060000000000002, 27.494999999999997 21.09, 27.72 21.12 C 27.93 21.12, 28.035 21.12, 28.14 21.12 C 28.14 21.12, 28.14 21.12, 28.14 21.12 L 28.14 21.12" fill="none" stroke="black" stroke-width="2"></path><path d="M 26.400000000000002 5.88 C 25.89 6.12, 25.980000000000004 6.0600000000000005, 25.380000000000003 6.36 C 24.69 6.720000000000001, 25.095 6.465, 24 7.08 C 22.5 7.95, 22.245 8.01, 21 8.82 C 20.009999999999998 9.57, 20.025 9.615, 19.02 10.32 C 18 10.98, 17.79 11.115000000000002, 16.98 11.64 C 16.38 12.03, 16.29 12.075, 15.78 12.419999999999998 C 15.36 12.719999999999999, 15.24 12.84, 14.940000000000001 13.02 L 14.580000000000002 13.14" fill="none" stroke="black" stroke-width="2"></path><path d="M 20.04 20.46 C 20.07 20.91, 20.085 20.85, 20.1 21.36 C 20.1 21.93, 20.1 21.75, 20.1 22.5 C 20.1 23.43, 20.175000000000004 23.205, 20.1 24.36 C 19.95 25.74, 19.935 25.754999999999995, 19.799999999999997 27.119999999999997 C 19.68 28.47, 19.665 28.605, 19.56 29.82 C 19.47 30.9, 19.424999999999997 30.435000000000002, 19.38 31.98 C 19.38 33.99, 19.38 34.365, 19.38 36 C 19.38 37.26, 19.38 37.30499999999999, 19.38 38.519999999999996 C 19.38 39.69, 19.38 39.989999999999995, 19.38 40.86 C 19.38 41.43, 19.38 41.325, 19.38 42 C 19.38 42.78, 19.38 42.975, 19.38 43.56 C 19.38 43.95, 19.38 43.995, 19.38 44.339999999999996 C 19.38 44.64, 19.38 44.745, 19.38 44.94 C 19.38 45.03, 19.38 45.074999999999996, 19.38 45.12 C 19.38 45.12, 19.38 45.12, 19.38 45.12 L 19.38 45.12" fill="none" stroke="black" stroke-width="2"></path></svg>