<svg width="48" height="48" viewBox="0 0 48 48" xmlns="http://www.w3.org/2000/svg"><path d="M 23.759999999999998 3.7800000000000002 C 23.82 4.41, 23.805 4.29, 23.88 5.04 C 23.97 5.91, 23.939999999999998 5.954999999999999, 24.06 6.779999999999999 C 24.21 7.56, 24.27 7.4399999999999995, 24.36 8.34 C 24.39 9.36, 24.405 9.389999999999999, 24.42 10.379999999999999 C 24.42 11.34, 24.42 11.459999999999999, 24.42 12.299999999999999 C 24.42 13.02, 24.42 12.945, 24.42 13.74 C 24.42 14.61, 24.465000000000003 14.67, 24.42 15.48 C 24.330000000000002 16.23, 24.39 16.32, 24.240000000000002 16.98 C 24.03 17.55, 24.03 17.64, 23.82 18.12 C 23.61 18.509999999999998, 23.715 18.404999999999998, 23.4 18.9 C 22.979999999999997 19.5, 23.115 19.455000000000002, 22.56 20.1 C 21.869999999999997 20.79, 21.78 20.880000000000003, 21.18 21.48 C 20.67 21.990000000000002, 20.58 22.095, 20.16 22.5 C 19.83 22.8, 19.665 22.950000000000003, 19.5 23.1 C 19.5 23.1, 19.5 23.1, 19.5 23.1 L 19.5 23.1" fill="none" stroke="black" stroke-width="2"></path><path d="M 22.32 20.22 C 22.56 20.22, 22.559999999999995 20.145, 22.799999999999997 20.22 C 23.04 20.369999999999997, 22.995 20.369999999999997, 23.28 20.52 C 23.61 20.67, 23.625 20.535, 23.94 20.82 C 24.240000000000002 21.240000000000002, 24.285 21.135, 24.54 21.66 C 24.75 22.29, 24.810000000000002 22.334999999999997, 24.96 22.919999999999998 C 25.05 23.46, 25.095 23.384999999999998, 25.14 24 C 25.14 24.69, 25.14 24.675000000000004, 25.14 25.380000000000003 C 25.14 26.1, 25.14 26.025000000000002, 25.14 26.82 C 25.14 27.689999999999998, 25.14 27.659999999999997, 25.14 28.56 C 25.14 29.490000000000002, 25.155 29.565, 25.14 30.42 C 25.11 31.200000000000003, 25.11 31.23, 25.08 31.98 C 25.049999999999997 32.7, 25.064999999999998 32.550000000000004, 25.02 33.42 C 24.96 34.44, 24.975 34.59, 24.900000000000002 35.46 C 24.810000000000002 36.18000000000001, 24.765 36.24000000000001, 24.72 36.900000000000006 C 24.72 37.5, 24.72 37.605, 24.72 38.099999999999994 C 24.72 38.489999999999995, 24.72 38.295, 24.72 38.88 C 24.72 39.66, 24.63 39.795, 24.72 40.44 C 24.9 40.95, 24.854999999999997 41.01, 25.08 41.46 C 25.349999999999998 41.85, 25.305 41.895, 25.619999999999997 42.24 C 25.979999999999997 42.54, 26.039999999999996 42.69, 26.339999999999996 42.839999999999996 C 26.58 42.839999999999996, 26.46 42.794999999999995, 26.82 42.839999999999996 C 27.3 42.92999999999999, 27.165 42.974999999999994, 27.78 43.019999999999996 C 28.53 43.019999999999996, 28.305 43.245, 29.28 43.019999999999996 C 30.48 42.56999999999999, 30.705 42.56999999999999, 31.68 42.12 C 32.43 41.67, 32.58 41.73, 33.18 41.22 C 33.629999999999995 40.65, 33.765 40.815, 34.08 40.08 C 34.26 39.18, 34.29 39.405, 34.44 38.28 C 34.56 36.93, 34.59 36.839999999999996, 34.68 35.58 C 34.739999999999995 34.41, 34.815 34.260000000000005, 34.8 33.24 C 34.709999999999994 32.370000000000005, 34.739999999999995 32.22, 34.62 31.5 C 34.47 30.93, 34.394999999999996 30.645, 34.32 30.36 C 34.32 30.36, 34.32 30.36, 34.32 30.36 L 34.32 30.36" fill="none" stroke="black" stroke-width="2"></path></svg>