<svg width="48" height="48" viewBox="0 0 48 48" xmlns="http://www.w3.org/2000/svg"><path d="M 16.02 44.339999999999996 C 15.75 43.8, 15.615 44.684999999999995, 15.48 43.26 C 15.48 40.95, 15.48 40.695, 15.48 38.64 C 15.48 36.84, 15.465 36.69, 15.48 35.04 C 15.51 33.54, 15.524999999999999 33.405, 15.54 32.04 C 15.54 30.81, 15.555 30.765, 15.54 29.58 C 15.51 28.439999999999998, 15.495000000000001 28.29, 15.48 27.299999999999997 C 15.48 26.459999999999997, 15.465 26.309999999999995, 15.48 25.619999999999997 C 15.51 25.08, 15.524999999999999 25.005, 15.54 24.54 C 15.54 24.15, 15.465 24.15, 15.54 23.759999999999998 C 15.69 23.369999999999997, 15.54 23.415, 15.84 22.98 C 16.29 22.5, 16.230000000000004 22.35, 16.740000000000002 22.02 C 17.310000000000002 21.84, 17.28 21.84, 17.88 21.66 C 18.509999999999998 21.479999999999997, 18.12 21.464999999999996, 19.14 21.299999999999997 C 20.55 21.15, 20.595000000000002 21.134999999999998, 21.96 21 C 23.28 20.88, 23.31 20.865, 24.599999999999998 20.759999999999998 C 25.86 20.67, 26.264999999999997 20.625, 27.119999999999997 20.580000000000002 C 27.57 20.580000000000002, 27.479999999999997 20.580000000000002, 28.02 20.580000000000002 C 28.65 20.580000000000002, 28.89 20.580000000000002, 29.28 20.580000000000002 C 29.43 20.580000000000002, 29.43 20.580000000000002, 29.58 20.580000000000002 C 29.73 20.580000000000002, 29.685000000000002 20.490000000000002, 29.880000000000003 20.580000000000002 C 30.12 20.76, 30.12 20.610000000000003, 30.36 20.94 C 30.599999999999998 21.42, 30.644999999999996 21.27, 30.839999999999996 21.9 C 30.99 22.68, 31.02 22.275, 31.14 23.46 C 31.23 25.05, 31.275 25.08, 31.32 26.64 C 31.32 28.17, 31.455 27.630000000000003, 31.32 29.700000000000003 C 31.05 32.31, 31.035000000000004 32.775000000000006, 30.78 34.92 C 30.54 36.6, 30.434999999999995 36.99, 30.299999999999997 38.28 C 30.27 39.18, 30.255000000000003 39.375, 30.240000000000002 40.08 C 30.240000000000002 40.589999999999996, 30.285000000000004 40.67999999999999, 30.240000000000002 41.099999999999994 C 30.15 41.42999999999999, 30.105 41.44499999999999, 30.06 41.76 C 30.06 42.06, 30.06 42.165, 30.06 42.36 C 30.06 42.45, 30.06 42.42, 30.06 42.54 C 30.06 42.69, 30.06 42.765, 30.06 42.839999999999996 C 30.06 42.839999999999996, 30.06 42.72, 30.06 42.839999999999996 C 30.06 43.08, 30.06 43.17, 30.06 43.32 L 30.06 43.44" fill="none" stroke="black" stroke-width="2"></path><path d="M 22.799999999999997 29.339999999999996 C 22.439999999999998 29.64, 22.275000000000002 29.34, 22.080000000000002 29.94 C 22.05 30.840000000000003, 21.78 31.005000000000003, 22.02 31.740000000000002 C 22.53 32.31, 22.59 32.565000000000005, 23.04 32.88 C 23.43 32.94, 23.505000000000003 33.09, 23.82 33 C 24.06 32.76, 24.165 33.089999999999996, 24.299999999999997 32.519999999999996 C 24.33 31.619999999999997, 24.585 31.559999999999995, 24.36 30.72 C 23.88 29.94, 23.759999999999998 29.610000000000003, 23.4 29.160000000000004 C 23.159999999999997 29.040000000000003, 23.279999999999998 28.860000000000003, 22.919999999999998 28.92 C 22.439999999999998 29.160000000000004, 22.29 28.830000000000002, 21.96 29.400000000000002 C 21.78 30.300000000000004, 21.6 30.420000000000005, 21.6 31.200000000000003 C 21.78 31.86, 21.660000000000004 32.05499999999999, 21.96 32.519999999999996 C 22.38 32.79, 22.334999999999997 33.09, 22.799999999999997 33.06 C 23.31 32.730000000000004, 23.535 32.82000000000001, 23.82 32.400000000000006 C 23.880000000000003 31.890000000000004, 23.91 31.785000000000004, 23.94 31.380000000000003 C 23.94 31.080000000000002, 24.03 31.035000000000004, 23.94 30.78 C 23.76 30.57, 24.075000000000003 30.285, 23.580000000000002 30.36 C 22.770000000000003 30.72, 22.380000000000003 30.779999999999998, 21.96 31.08 C 21.93 31.32, 21.915 31.439999999999998, 21.9 31.56 L 21.9 31.56" fill="none" stroke="black" stroke-width="2"></path><path d="M 32.339999999999996 4.32 C 31.77 4.86, 32.055 4.665000000000001, 31.200000000000003 5.4 C 30.060000000000002 6.33, 30.225 6.105, 28.92 7.26 C 27.450000000000003 8.64, 27.39 8.61, 25.98 10.02 C 24.630000000000003 11.459999999999999, 24.240000000000002 11.879999999999999, 23.28 12.899999999999999 C 22.71 13.5, 22.47 13.755, 22.14 14.100000000000001 L 21.96 14.28" fill="none" stroke="black" stroke-width="2"></path></svg>