<svg width="48" height="48" viewBox="0 0 48 48" xmlns="http://www.w3.org/2000/svg"><path d="M 15.899999999999999 30.48 C 16.17 30.72, 16.095 30.075000000000003, 16.44 30.96 C 16.86 32.489999999999995, 17.025000000000002 32.654999999999994, 17.28 34.019999999999996 C 17.37 35.22, 17.415 35.34, 17.46 36.42 C 17.46 37.379999999999995, 17.46 37.545, 17.46 38.339999999999996 C 17.46 38.97, 17.535 38.95499999999999, 17.46 39.599999999999994 C 17.310000000000002 40.26, 17.46 40.26, 17.16 40.92 C 16.71 41.58, 16.814999999999998 41.64, 16.259999999999998 42.24 C 15.6 42.78, 15.540000000000001 42.93, 14.940000000000001 43.32 C 14.4 43.56, 14.415 43.635, 13.86 43.8 C 13.29 43.89, 13.110000000000001 43.935, 12.72 43.980000000000004 C 12.51 43.980000000000004, 12.704999999999998 44.190000000000005, 12.299999999999999 43.980000000000004 C 11.7 43.56, 11.715000000000002 43.980000000000004, 11.100000000000001 43.14 C 10.47 41.879999999999995, 10.440000000000001 41.849999999999994, 9.84 40.62 C 9.27 39.42, 9.27 39.705, 8.7 38.22 C 8.129999999999999 36.45, 8.040000000000001 36.345, 7.5600000000000005 34.68 C 7.17 33.12, 6.975 33.345, 6.779999999999999 31.56 C 6.779999999999999 29.549999999999997, 6.764999999999999 29.625, 6.779999999999999 27.54 C 6.81 25.38, 6.75 24.9, 6.84 23.22 C 6.99 22.02, 6.975 22.095, 7.14 20.82 C 7.32 19.47, 7.26 19.41, 7.5 18.12 C 7.800000000000001 16.89, 7.800000000000002 16.635, 8.100000000000001 15.66 C 8.4 14.940000000000001, 8.399999999999999 14.790000000000001, 8.7 14.22 C 9 13.8, 8.850000000000001 13.83, 9.3 13.379999999999999 C 9.9 12.899999999999999, 9.99 12.794999999999998, 10.5 12.419999999999998 C 10.92 12.149999999999999, 10.905 12.089999999999998, 11.34 11.879999999999999 C 11.79 11.73, 11.850000000000001 11.655, 12.24 11.58 C 12.57 11.58, 12.509999999999998 11.58, 12.899999999999999 11.58 C 13.349999999999998 11.58, 13.409999999999998 11.505, 13.799999999999999 11.58 C 14.129999999999999 11.73, 14.13 11.655, 14.46 11.879999999999999 C 14.790000000000001 12.18, 14.700000000000001 11.97, 15.120000000000001 12.48 C 15.63 13.2, 15.705000000000002 13.139999999999997, 16.14 13.919999999999998 C 16.5 14.76, 16.59 14.505000000000003, 16.86 15.600000000000001 C 17.04 16.95, 17.085 17.144999999999996, 17.22 18.299999999999997 C 17.31 19.259999999999998, 17.325 19.275, 17.4 20.22 C 17.46 21.15, 17.49 21.615000000000002, 17.52 22.080000000000002 C 17.52 22.080000000000002, 17.52 22.035000000000004, 17.52 22.080000000000002 C 17.52 22.17, 17.52 22.185, 17.52 22.259999999999998 C 17.52 22.32, 17.52 22.349999999999998, 17.52 22.38 C 17.52 22.38, 17.52 22.38, 17.52 22.38 C 17.52 22.38, 17.474999999999998 22.349999999999998, 17.52 22.38 C 17.61 22.439999999999998, 17.580000000000002 22.56, 17.700000000000003 22.5 C 17.85 22.32, 17.64 22.35, 18 22.14 C 18.57 21.9, 18.525 21.825, 19.14 21.66 C 19.8 21.57, 20.01 21.57, 20.46 21.48 C 20.700000000000003 21.39, 20.535 21.299999999999997, 20.94 21.299999999999997 C 21.51 21.39, 21.42 21.225, 22.080000000000002 21.48 C 22.830000000000002 21.9, 22.965000000000003 21.945, 23.580000000000002 22.32 C 24.060000000000002 22.65, 24.09 22.59, 24.54 22.98 C 24.96 23.43, 24.96 23.325, 25.380000000000003 23.88 C 25.8 24.54, 25.83 24.390000000000004, 26.22 25.200000000000003 C 26.58 26.16, 26.700000000000003 26.129999999999995, 26.94 27.119999999999997 C 27.060000000000002 28.14, 27.12 28.065000000000005, 27.18 29.160000000000004 C 27.18 30.330000000000002, 27.18 30.105, 27.18 31.5 C 27.18 33.120000000000005, 27.18 33.135000000000005, 27.18 34.74 C 27.18 36.33, 27.18 36.81, 27.18 37.92 C 27.18 38.55, 27.18 38.595, 27.18 39.18 C 27.18 39.72, 27.18 39.795, 27.18 40.26 C 27.18 40.65, 27.18 40.695, 27.18 41.04 C 27.18 41.34, 27.18 41.49, 27.18 41.64 L 27.18 41.64" fill="none" stroke="black" stroke-width="2"></path><path d="M 25.08 8.459999999999999 C 25.08 9.059999999999999, 25.214999999999996 8.91, 25.08 9.66 C 24.81 10.559999999999999, 24.93 10.634999999999998, 24.54 11.459999999999999 C 24.03 12.21, 24.165 12.21, 23.52 12.96 C 22.740000000000002 13.71, 22.8 13.71, 21.96 14.46 C 21.060000000000002 15.21, 20.94 15.375000000000002, 20.16 15.96 C 19.5 16.38, 19.41 16.439999999999998, 18.84 16.799999999999997 C 18.36 17.099999999999998, 18.21 17.235, 17.88 17.4 C 17.7 17.43, 17.64 17.445, 17.52 17.46 L 17.4 17.46" fill="none" stroke="black" stroke-width="2"></path></svg>