<svg width="48" height="48" viewBox="0 0 48 48" xmlns="http://www.w3.org/2000/svg"><path d="M 14.76 23.64 C 14.670000000000002 22.68, 14.625000000000002 22.634999999999998, 14.580000000000002 21.72 C 14.580000000000002 20.85, 14.580000000000002 20.775, 14.580000000000002 19.98 C 14.580000000000002 19.259999999999998, 14.580000000000002 19.2, 14.580000000000002 18.54 C 14.580000000000002 17.939999999999998, 14.580000000000002 17.88, 14.580000000000002 17.34 C 14.580000000000002 16.86, 14.550000000000002 16.845, 14.580000000000002 16.38 C 14.64 15.93, 14.445 15.870000000000001, 14.700000000000001 15.48 C 15.150000000000002 15.15, 14.820000000000002 15.105, 15.600000000000001 14.82 C 16.71 14.58, 16.635 14.504999999999999, 17.82 14.34 C 19.08 14.25, 19.2 14.295, 20.34 14.16 C 21.36 13.98, 21.314999999999998 13.889999999999999, 22.38 13.799999999999999 C 23.49 13.799999999999999, 23.685 13.799999999999999, 24.599999999999998 13.799999999999999 C 25.32 13.799999999999999, 25.455 13.799999999999999, 26.04 13.799999999999999 C 26.490000000000002 13.799999999999999, 26.55 13.724999999999998, 26.94 13.799999999999999 C 27.27 13.95, 27.389999999999997 14.010000000000002, 27.599999999999998 14.100000000000001 C 27.689999999999998 14.13, 27.645 14.100000000000001, 27.78 14.16 C 27.96 14.25, 27.93 14.175, 28.14 14.34 C 28.38 14.58, 28.394999999999996 14.49, 28.619999999999997 14.82 C 28.83 15.24, 28.799999999999997 14.879999999999999, 29.04 15.66 C 29.31 16.8, 29.354999999999997 16.815, 29.58 17.94 C 29.759999999999998 19.05, 29.85 19.155, 29.94 20.16 C 29.94 21.060000000000002, 29.94 21.435000000000002, 29.94 21.96 C 29.94 22.11, 29.94 22.154999999999998, 29.94 22.259999999999998 C 29.94 22.32, 29.94 22.349999999999998, 29.94 22.38 L 29.94 22.38" fill="none" stroke="black" stroke-width="2"></path><path d="M 27.54 2.2800000000000002 C 26.88 2.6100000000000003, 27.104999999999997 2.325, 26.22 2.94 C 25.11 3.84, 25.2 3.7350000000000003, 24 4.74 C 22.71 5.85, 22.485 6.029999999999999, 21.419999999999998 6.959999999999999 C 20.58 7.709999999999999, 20.415000000000003 7.829999999999998, 19.740000000000002 8.459999999999999 C 19.23 8.969999999999999, 18.975 9.225, 18.72 9.48 C 18.72 9.48, 18.75 9.435, 18.72 9.48 L 18.6 9.66" fill="none" stroke="black" stroke-width="2"></path><path d="M 22.5 13.86 C 22.83 14.22, 22.95 13.725000000000001, 23.16 14.580000000000002 C 23.25 15.930000000000001, 23.295 16.035000000000004, 23.34 17.28 C 23.34 18.42, 23.295 18.255, 23.34 19.56 C 23.43 21.03, 23.415 21.18, 23.52 22.5 C 23.64 23.669999999999998, 23.625 23.729999999999997, 23.759999999999998 24.839999999999996 C 23.909999999999997 25.89, 23.985 25.845, 24.06 26.94 C 24.06 28.08, 24.089999999999996 27.87, 24.06 29.22 C 24 30.779999999999998, 24.12 30.809999999999995, 23.94 32.339999999999996 C 23.64 33.839999999999996, 23.64 34.019999999999996, 23.34 35.339999999999996 C 23.04 36.48, 23.1 36.56999999999999, 22.740000000000002 37.62 C 22.32 38.58, 22.335 38.73, 21.9 39.54 C 21.45 40.2, 21.525 40.155, 21 40.86 C 20.4 41.61, 20.549999999999997 41.58, 19.799999999999997 42.36 C 18.9 43.17, 18.585 43.455000000000005, 18 43.980000000000004 C 17.73 44.22, 17.64 44.295, 17.46 44.46 C 17.37 44.55, 17.400000000000002 44.535, 17.28 44.64 L 16.98 44.88" fill="none" stroke="black" stroke-width="2"></path></svg>