<svg width="48" height="48" viewBox="0 0 48 48" xmlns="http://www.w3.org/2000/svg"><path d="M 16.080000000000002 44.64 C 15 44.7, 14.895 44.685, 13.919999999999998 44.76 C 13.049999999999999 44.849999999999994, 12.854999999999999 44.864999999999995, 12.18 44.94 C 11.7 45, 11.625 44.985, 11.22 45.06 C 10.89 45.150000000000006, 10.83 45.195, 10.56 45.24 C 10.350000000000001 45.24, 10.365 45.195, 10.14 45.24 C 9.9 45.33, 9.825 45.375, 9.66 45.42 C 9.57 45.42, 9.525 45.42, 9.48 45.42 C 9.48 45.42, 9.555 45.42, 9.48 45.42 C 9.33 45.42, 9.33 45.435, 9.18 45.42 C 9.03 45.39, 9.03 45.675, 8.879999999999999 45.36 C 8.73 44.760000000000005, 8.7 45.06, 8.58 44.160000000000004 C 8.489999999999998 42.96, 8.444999999999999 43.11, 8.399999999999999 41.76 C 8.399999999999999 40.26, 8.399999999999999 40.364999999999995, 8.399999999999999 38.76 C 8.399999999999999 37.05, 8.399999999999999 36.9, 8.399999999999999 35.339999999999996 C 8.399999999999999 33.92999999999999, 8.399999999999999 34.30499999999999, 8.399999999999999 32.519999999999996 C 8.399999999999999 30.36, 8.399999999999999 29.985, 8.399999999999999 28.200000000000003 C 8.399999999999999 26.790000000000003, 8.339999999999998 26.625000000000004, 8.399999999999999 25.380000000000003 C 8.52 24.3, 8.445 24.509999999999998, 8.64 23.22 C 8.91 21.72, 8.94 21.36, 9.18 20.22 C 9.39 19.439999999999998, 9.360000000000001 19.5, 9.600000000000001 18.66 C 9.870000000000001 17.759999999999998, 9.855 17.73, 10.14 16.86 C 10.440000000000001 16.02, 10.335 15.975, 10.74 15.18 C 11.25 14.43, 11.295 14.309999999999999, 11.76 13.68 C 12.18 13.17, 12.270000000000001 12.975000000000001, 12.600000000000001 12.66 C 12.840000000000002 12.54, 12.810000000000002 12.464999999999998, 13.080000000000002 12.419999999999998 C 13.38 12.45, 13.365 12.344999999999999, 13.68 12.48 C 14.01 12.72, 13.95 12.585, 14.34 12.96 C 14.79 13.47, 14.850000000000001 13.41, 15.24 13.98 C 15.57 14.61, 15.54 14.445, 15.899999999999999 15.24 C 16.29 16.2, 16.365 15.885, 16.68 17.16 C 16.92 18.75, 16.935 18.585, 17.16 20.34 C 17.37 22.259999999999998, 17.475 22.59, 17.580000000000002 24.18 C 17.580000000000002 25.44, 17.55 25.545, 17.580000000000002 26.700000000000003 C 17.64 27.75, 17.67 27.9, 17.700000000000003 28.799999999999997 C 17.700000000000003 29.549999999999997, 17.700000000000003 29.879999999999995, 17.700000000000003 30.299999999999997 C 17.700000000000003 30.39, 17.67 30.39, 17.700000000000003 30.48 C 17.76 30.57, 17.745 30.630000000000003, 17.82 30.660000000000004 C 17.91 30.630000000000003, 17.61 30.81, 18 30.599999999999998 C 18.689999999999998 30.21, 18.75 30.044999999999998, 19.38 29.82 C 19.95 29.76, 19.814999999999998 29.730000000000004, 20.52 29.700000000000003 C 21.36 29.700000000000003, 21.360000000000003 29.685000000000002, 22.200000000000003 29.700000000000003 C 23.04 29.73, 23.085 29.625, 23.88 29.759999999999998 C 24.630000000000003 30, 24.75 29.910000000000004, 25.380000000000003 30.240000000000002 C 25.89 30.66, 25.92 30.615000000000002, 26.400000000000002 31.08 C 26.85 31.589999999999996, 26.909999999999997 31.514999999999993, 27.299999999999997 32.099999999999994 C 27.63 32.76, 27.75 32.595, 27.96 33.42 C 28.05 34.410000000000004, 28.095 34.230000000000004, 28.14 35.400000000000006 C 28.14 36.75, 28.14 36.839999999999996, 28.14 38.099999999999994 C 28.14 39.269999999999996, 28.14 39.39, 28.14 40.44 C 28.14 41.37, 28.23 41.42999999999999, 28.14 42.3 C 27.96 43.11, 27.87 43.515, 27.78 43.92 C 27.78 43.92, 27.78 43.92, 27.78 43.92 C 27.78 43.92, 27.78 43.92, 27.78 43.92 C 27.78 43.92, 27.825000000000003 43.86, 27.78 43.92 L 27.599999999999998 44.160000000000004" fill="none" stroke="black" stroke-width="2"></path><path d="M 26.82 12.78 C 26.85 13.14, 26.865000000000002 12.93, 26.880000000000003 13.5 C 26.880000000000003 14.28, 26.970000000000002 14.325, 26.880000000000003 15.059999999999999 C 26.700000000000003 15.75, 26.82 15.630000000000003, 26.52 16.44 C 26.1 17.369999999999997, 26.145 17.504999999999995, 25.68 18.299999999999997 C 25.17 18.96, 25.260000000000005 18.945, 24.660000000000004 19.62 C 23.970000000000002 20.310000000000002, 23.835 20.46, 23.28 21 C 22.86 21.39, 22.98 21.405, 22.44 21.78 C 21.78 22.14, 21.78 22.2, 21.12 22.5 C 20.46 22.740000000000002, 20.354999999999997 22.8, 19.799999999999997 22.98 C 19.349999999999998 23.1, 19.214999999999996 23.115, 18.9 23.22 C 18.72 23.31, 18.63 23.354999999999997, 18.54 23.4 C 18.54 23.4, 18.54 23.4, 18.54 23.4 C 18.54 23.4, 18.615 23.354999999999997, 18.54 23.4 C 18.39 23.490000000000002, 18.315 23.535, 18.240000000000002 23.580000000000002 C 18.240000000000002 23.580000000000002, 18.240000000000002 23.580000000000002, 18.240000000000002 23.580000000000002 C 18.240000000000002 23.580000000000002, 18.285000000000004 23.580000000000002, 18.240000000000002 23.580000000000002 L 18.06 23.580000000000002" fill="none" stroke="black" stroke-width="2"></path></svg>