<svg width="48" height="48" viewBox="0 0 48 48" xmlns="http://www.w3.org/2000/svg"><path d="M 14.399999999999999 42.36 C 14.309999999999999 41.34, 14.265 41.415, 14.22 40.32 C 14.22 39.150000000000006, 14.22 38.925000000000004, 14.22 37.980000000000004 C 14.22 37.260000000000005, 14.235000000000001 37.545, 14.22 36.54 C 14.190000000000001 35.25, 14.205 35.025, 14.16 33.96 C 14.1 33.120000000000005, 14.07 33.27, 14.04 32.28 C 14.04 31.14, 14.04 30.765, 14.04 30 C 14.04 29.61, 14.04 29.759999999999998, 14.04 29.22 C 14.04 28.529999999999998, 13.979999999999999 28.604999999999997, 14.04 27.839999999999996 C 14.16 27, 14.16 26.85, 14.28 26.160000000000004 C 14.399999999999999 25.62, 14.444999999999999 25.47, 14.52 25.08 C 14.55 24.839999999999996, 14.490000000000002 24.884999999999998, 14.580000000000002 24.599999999999998 C 14.73 24.27, 14.76 24.3, 14.879999999999999 23.94 C 14.969999999999999 23.55, 14.954999999999998 23.475, 15.059999999999999 23.16 C 15.18 22.92, 15.12 23.04, 15.299999999999999 22.68 C 15.54 22.2, 15.554999999999998 22.14, 15.78 21.72 C 15.990000000000002 21.36, 15.915000000000003 21.345, 16.200000000000003 21 C 16.560000000000002 20.67, 16.544999999999998 20.61, 16.919999999999998 20.34 C 17.310000000000002 20.13, 17.19 20.069999999999997, 17.700000000000003 19.919999999999998 C 18.330000000000002 19.83, 18.495 19.785, 18.96 19.740000000000002 C 19.259999999999998 19.740000000000002, 19.035 19.740000000000002, 19.56 19.740000000000002 C 20.31 19.740000000000002, 20.415 19.740000000000002, 21.06 19.740000000000002 C 21.6 19.740000000000002, 21.555 19.740000000000002, 22.14 19.740000000000002 C 22.77 19.740000000000002, 22.845 19.725, 23.4 19.740000000000002 C 23.88 19.77, 23.865 19.724999999999998, 24.36 19.799999999999997 C 24.87 19.919999999999998, 24.915000000000003 19.935, 25.380000000000003 20.04 C 25.8 20.13, 25.77 20.159999999999997, 26.22 20.22 C 26.7 20.25, 26.775 20.22, 27.18 20.28 C 27.509999999999998 20.37, 27.524999999999995 20.415, 27.839999999999996 20.46 C 28.14 20.46, 28.26 20.46, 28.44 20.46 C 28.5 20.46, 28.53 20.46, 28.56 20.46 L 28.56 20.46" fill="none" stroke="black" stroke-width="2"></path><path d="M 28.86 5.1 C 28.05 5.73, 28.11 5.715, 27.240000000000002 6.36 C 26.310000000000002 7.02, 26.175000000000004 7.05, 25.380000000000003 7.68 C 24.72 8.28, 24.81 8.129999999999999, 24.06 8.879999999999999 C 23.22 9.78, 23.07 9.959999999999999, 22.38 10.68 C 21.839999999999996 11.219999999999999, 22.019999999999996 11.085, 21.299999999999997 11.76 C 20.4 12.57, 20.189999999999998 12.809999999999999, 19.5 13.379999999999999 C 19.02 13.709999999999999, 18.78 13.875, 18.54 14.04 C 18.54 14.04, 18.54 14.04, 18.54 14.04 L 18.54 14.04" fill="none" stroke="black" stroke-width="2"></path><path d="M 22.799999999999997 26.82 C 22.529999999999998 26.97, 22.455 26.849999999999998, 22.259999999999998 27.119999999999997 C 22.14 27.509999999999998, 22.08 27.555, 22.02 27.900000000000002 C 22.02 28.200000000000003, 21.9 28.275000000000002, 22.02 28.5 C 22.259999999999998 28.65, 22.305 28.679999999999996, 22.5 28.799999999999997 C 22.65 28.89, 22.65 29.055, 22.799999999999997 28.98 C 22.95 28.740000000000002, 23.025 28.695, 23.1 28.5 C 23.1 28.35, 23.1 28.35, 23.1 28.200000000000003 C 23.1 28.050000000000004, 23.175000000000004 28.080000000000002, 23.1 27.900000000000002 C 22.95 27.69, 22.964999999999996 27.6, 22.799999999999997 27.48 C 22.619999999999997 27.450000000000003, 22.635 27.435000000000002, 22.44 27.42 C 22.23 27.42, 22.23 27.255000000000003, 22.02 27.42 C 21.810000000000002 27.75, 21.720000000000002 27.794999999999998, 21.6 28.08 C 21.57 28.32, 21.555 28.32, 21.54 28.56 C 21.54 28.799999999999997, 21.45 28.889999999999997, 21.54 29.04 C 21.72 29.1, 21.689999999999998 29.085000000000004, 21.9 29.160000000000004 C 22.14 29.25, 22.259999999999998 29.294999999999998, 22.38 29.339999999999996 C 22.38 29.339999999999996, 22.305 29.339999999999996, 22.38 29.339999999999996 C 22.53 29.339999999999996, 22.53 29.384999999999994, 22.68 29.339999999999996 C 22.83 29.25, 22.875 29.355000000000004, 22.98 29.160000000000004 C 23.04 28.86, 23.07 28.86, 23.1 28.56 C 23.1 28.259999999999998, 23.1 28.23, 23.1 27.96 C 23.1 27.72, 23.1 27.6, 23.1 27.48 C 23.1 27.48, 23.130000000000003 27.555, 23.1 27.48 C 23.04 27.33, 23.22 27.165, 22.98 27.18 C 22.560000000000002 27.36, 22.425 27.33, 22.14 27.54 C 21.990000000000002 27.78, 21.945 27.854999999999997, 21.84 28.02 C 21.78 28.11, 21.75 28.155, 21.72 28.200000000000003 C 21.72 28.200000000000003, 21.72 28.200000000000003, 21.72 28.200000000000003 L 21.72 28.200000000000003" fill="none" stroke="black" stroke-width="2"></path><path d="M 18.9 34.68 C 19.619999999999997 34.53, 19.544999999999998 34.5, 20.34 34.38 C 21.21 34.290000000000006, 21.255000000000003 34.290000000000006, 22.080000000000002 34.2 C 22.86 34.11, 22.845000000000002 34.065, 23.64 34.019999999999996 C 24.45 34.019999999999996, 24.494999999999997 34.019999999999996, 25.259999999999998 34.019999999999996 C 25.98 34.019999999999996, 26.07 34.019999999999996, 26.700000000000003 34.019999999999996 C 27.240000000000002 34.019999999999996, 27.465000000000003 34.019999999999996, 27.78 34.019999999999996 C 27.87 34.019999999999996, 27.915 34.019999999999996, 27.96 34.019999999999996 L 27.96 34.019999999999996" fill="none" stroke="black" stroke-width="2"></path></svg>