<svg width="48" height="48" viewBox="0 0 48 48" xmlns="http://www.w3.org/2000/svg"><path d="M 16.98 15.54 C 17.46 15.54, 17.340000000000003 15.54, 17.94 15.54 C 18.66 15.54, 18.39 15.57, 19.38 15.54 C 20.64 15.479999999999999, 20.744999999999997 15.554999999999998, 21.9 15.419999999999998 C 22.95 15.209999999999999, 23.16 15.105, 24 15 C 24.63 15, 24.63 15, 25.259999999999998 15 C 25.89 15, 25.935 15, 26.52 15 C 27.06 15, 27.029999999999998 15, 27.599999999999998 15 C 28.199999999999996 15, 28.379999999999995 15, 28.799999999999997 15 C 29.04 15, 28.935000000000002 15, 29.28 15 C 29.73 15, 29.745 15, 30.18 15 C 30.6 15, 30.735 14.969999999999999, 31.02 15 C 31.17 15.06, 31.2 15.075000000000001, 31.32 15.120000000000001 C 31.41 15.15, 31.365000000000002 15.075, 31.5 15.18 C 31.68 15.36, 31.665 15.329999999999998, 31.86 15.54 C 32.07 15.78, 32.13 15.854999999999999, 32.28 16.02 C 32.370000000000005 16.11, 32.325 15.945000000000004, 32.46 16.200000000000003 C 32.64 16.62, 32.7 16.71, 32.82 17.04 C 32.879999999999995 17.28, 32.864999999999995 17.13, 32.94 17.52 C 33.03 18.060000000000002, 33.074999999999996 18.060000000000002, 33.12 18.6 C 33.12 19.14, 33.12 18.990000000000002, 33.12 19.68 C 33.12 20.52, 33.12 20.625, 33.12 21.36 C 33.12 21.990000000000002, 33.135 22.125, 33.12 22.62 C 33.09 22.98, 33.075 23.13, 33.06 23.34 C 33.06 23.4, 33.06 23.235, 33.06 23.46 C 33.06 23.85, 33.06 23.970000000000002, 33.06 24.240000000000002 C 33.06 24.39, 33.105000000000004 24.27, 33.06 24.54 C 32.97 24.93, 32.925000000000004 25.125, 32.88 25.32 C 32.88 25.32, 32.88 25.32, 32.88 25.32 C 32.88 25.32, 32.88 25.32, 32.88 25.32 L 32.88 25.32" fill="none" stroke="black" stroke-width="2"></path><path d="M 29.880000000000003 2.58 C 29.28 2.9400000000000004, 29.385 2.805, 28.68 3.3000000000000003 C 27.869999999999997 3.9300000000000006, 28.034999999999997 3.7350000000000003, 27.06 4.5600000000000005 C 25.92 5.58, 25.62 5.835000000000001, 24.78 6.6000000000000005 C 24.240000000000002 7.11, 24.270000000000003 7.065, 23.700000000000003 7.62 C 23.1 8.22, 23.055 8.295, 22.5 8.82 C 21.990000000000002 9.27, 21.915 9.315000000000001, 21.48 9.72 C 21.119999999999997 10.08, 20.939999999999998 10.26, 20.759999999999998 10.44 C 20.759999999999998 10.44, 20.759999999999998 10.44, 20.759999999999998 10.44 L 20.759999999999998 10.44" fill="none" stroke="black" stroke-width="2"></path><path d="M 24.299999999999997 15.18 C 24.33 15.42, 24.345 15.285, 24.36 15.66 C 24.36 16.17, 24.36 16.064999999999998, 24.36 16.68 C 24.36 17.4, 24.375 17.175, 24.36 18.12 C 24.33 19.29, 24.314999999999998 19.575000000000003, 24.299999999999997 20.46 C 24.299999999999997 21.060000000000002, 24.299999999999997 20.925, 24.299999999999997 21.66 C 24.299999999999997 22.53, 24.299999999999997 22.38, 24.299999999999997 23.4 C 24.299999999999997 24.57, 24.299999999999997 24.675, 24.299999999999997 25.740000000000002 C 24.299999999999997 26.700000000000003, 24.345 26.760000000000005, 24.299999999999997 27.660000000000004 C 24.209999999999997 28.5, 24.194999999999997 28.394999999999996, 24.119999999999997 29.339999999999996 C 24.06 30.39, 24.18 30.315, 24 31.44 C 23.7 32.64, 23.744999999999997 32.63999999999999, 23.4 33.839999999999996 C 23.009999999999998 35.04, 22.95 35.325, 22.62 36.24 C 22.35 36.870000000000005, 22.395000000000003 36.81, 22.080000000000002 37.5 C 21.72 38.25, 21.75 38.295, 21.36 39 C 20.939999999999998 39.66, 21.075 39.6, 20.52 40.32 C 19.83 41.1, 19.905 41.05500000000001, 19.14 41.88 C 18.3 42.75, 18.21 42.93, 17.46 43.62 C 16.8 44.129999999999995, 16.785 44.129999999999995, 16.14 44.64 C 15.51 45.150000000000006, 15.239999999999998 45.36000000000001, 14.879999999999999 45.660000000000004 C 14.79 45.75, 14.745000000000001 45.795, 14.700000000000001 45.839999999999996 C 14.700000000000001 45.839999999999996, 14.700000000000001 45.839999999999996, 14.700000000000001 45.839999999999996 L 14.700000000000001 45.839999999999996" fill="none" stroke="black" stroke-width="2"></path><path d="M 21 40.019999999999996 C 21.36 40.019999999999996, 21.15 40.019999999999996, 21.72 40.019999999999996 C 22.5 40.019999999999996, 22.35 40.019999999999996, 23.28 40.019999999999996 C 24.36 40.019999999999996, 24.450000000000003 40.019999999999996, 25.44 40.019999999999996 C 26.340000000000003 40.019999999999996, 26.385 40.019999999999996, 27.240000000000002 40.019999999999996 C 28.05 40.019999999999996, 28.17 39.989999999999995, 28.86 40.019999999999996 C 29.43 40.08, 29.549999999999997 40.095, 30 40.14 C 30.330000000000002 40.17, 30.465000000000003 40.185, 30.660000000000004 40.2 C 30.720000000000002 40.2, 30.630000000000003 40.2, 30.78 40.2 C 31.02 40.2, 31.064999999999998 40.2, 31.259999999999998 40.2 C 31.409999999999997 40.2, 31.485 40.2, 31.56 40.2 L 31.56 40.2" fill="none" stroke="black" stroke-width="2"></path></svg>