<svg width="48" height="48" viewBox="0 0 48 48" xmlns="http://www.w3.org/2000/svg"><path d="M 14.28 2.46 C 14.28 3.15, 14.43 2.115, 14.28 3.84 C 13.98 6.6, 14.07 6.959999999999999, 13.68 9.36 C 13.2 11.4, 13.095 11.535, 12.72 13.440000000000001 C 12.45 15.21, 12.525 14.97, 12.18 16.98 C 11.76 19.23, 11.64 19.68, 11.34 21.48 C 11.16 22.83, 11.025 22.95, 10.98 24.18 C 11.07 25.29, 10.935 25.665000000000003, 11.16 26.400000000000002 C 11.52 26.759999999999998, 11.669999999999998 26.939999999999998, 11.879999999999999 27.119999999999997 C 11.94 27.119999999999997, 11.67 27.254999999999995, 12 27.119999999999997 C 12.600000000000001 26.849999999999998, 12.39 27.059999999999995, 13.200000000000001 26.58 C 14.22 25.89, 14.370000000000001 25.845000000000002, 15.24 25.200000000000003 C 15.96 24.6, 16.08 24.630000000000003, 16.68 24 C 17.16 23.34, 17.025 23.655, 17.64 22.68 C 18.39 21.39, 18.57 21.18, 19.14 20.1 C 19.53 19.23, 19.709999999999997 18.825, 19.919999999999998 18.36 C 19.95 18.3, 19.905 18.105000000000004, 19.98 18.240000000000002 C 20.1 18.57, 20.16 18.24, 20.22 18.9 C 20.22 19.89, 20.235 19.965, 20.22 20.88 C 20.189999999999998 21.72, 20.04 21.75, 20.16 22.56 C 20.43 23.339999999999996, 20.175000000000004 23.384999999999998, 20.700000000000003 24.119999999999997 C 21.48 24.81, 21.479999999999997 25.11, 22.259999999999998 25.5 C 23.04 25.59, 22.71 25.634999999999998, 23.82 25.68 C 25.26 25.68, 25.365000000000002 25.725, 26.700000000000003 25.68 C 27.930000000000003 25.59, 28.440000000000005 25.59, 29.160000000000004 25.5 C 29.37 25.41, 29.445 25.365000000000002, 29.58 25.32 C 29.64 25.32, 29.67 25.32, 29.700000000000003 25.32 L 29.700000000000003 25.32" fill="none" stroke="black" stroke-width="2"></path><path d="M 23.82 4.4399999999999995 C 23.369999999999997 5.13, 23.339999999999996 5.130000000000001, 22.919999999999998 5.82 C 22.53 6.51, 22.785 6.344999999999999, 22.14 7.199999999999999 C 21.240000000000002 8.219999999999999, 21.285 8.265, 20.34 9.24 C 19.35 10.170000000000002, 19.2 10.290000000000001, 18.36 11.100000000000001 C 17.67 11.790000000000001, 17.655 11.88, 16.98 12.48 C 16.32 12.99, 16.155 13.17, 15.66 13.5 C 15.33 13.649999999999999, 15.33 13.634999999999998, 15 13.799999999999999 C 14.67 13.98, 14.67 13.98, 14.34 14.16 C 14.01 14.34, 13.89 14.399999999999999, 13.68 14.52 C 13.59 14.58, 13.545 14.61, 13.5 14.64 C 13.5 14.64, 13.545 14.625, 13.5 14.64 L 13.32 14.700000000000001" fill="none" stroke="black" stroke-width="2"></path><path d="M 10.56 43.08 C 11.190000000000001 43.17, 10.875 43.29, 11.82 43.26 C 13.08 43.11, 13.215 43.38, 14.34 42.96 C 15.33 42.269999999999996, 15.435 42.269999999999996, 16.32 41.58 C 17.1 40.89, 17.205 41.415000000000006, 17.88 40.2 C 18.45 38.46, 18.66 38.325, 19.02 36.72 C 19.17 35.25, 19.2 35.235, 19.32 33.78 C 19.41 32.34, 19.41 32.28, 19.5 30.900000000000002 C 19.59 29.58, 19.634999999999998 29.52, 19.68 28.259999999999998 C 19.68 27.06, 19.68 26.865, 19.68 25.86 C 19.68 25.05, 19.68 24.87, 19.68 24.240000000000002 C 19.68 23.79, 19.68 23.61, 19.68 23.34 C 19.68 23.25, 19.725 23.28, 19.68 23.16 C 19.59 23.009999999999998, 19.545 22.98, 19.5 22.86 C 19.5 22.77, 19.5 22.725, 19.5 22.68 C 19.5 22.68, 19.5 22.575, 19.5 22.68 C 19.5 22.89, 19.59 22.32, 19.5 23.1 C 19.32 24.45, 19.29 24.209999999999997, 19.14 25.799999999999997 C 19.02 27.63, 18.96 27.675, 18.9 29.46 C 18.9 31.2, 18.839999999999996 31.544999999999998, 18.9 32.94 C 19.02 33.989999999999995, 18.765 33.795, 19.14 35.04 C 19.77 36.480000000000004, 19.83 36.870000000000005, 20.4 37.92 C 20.909999999999997 38.58, 20.82 38.565000000000005, 21.419999999999998 39.24 C 22.11 39.93, 22.244999999999997 40.08, 22.799999999999997 40.62 C 23.22 41.010000000000005, 23.04 41.040000000000006, 23.64 41.400000000000006 C 24.42 41.730000000000004, 24.480000000000004 41.790000000000006, 25.200000000000003 42.06 C 25.86 42.27, 25.875 42.300000000000004, 26.52 42.480000000000004 C 27.15 42.63, 27.345000000000002 42.660000000000004, 27.78 42.78 C 28.02 42.870000000000005, 28.14 42.915, 28.259999999999998 42.96 C 28.259999999999998 42.96, 28.259999999999998 42.96, 28.259999999999998 42.96 L 28.259999999999998 42.96" fill="none" stroke="black" stroke-width="2"></path></svg>