<svg width="48" height="48" viewBox="0 0 48 48" xmlns="http://www.w3.org/2000/svg"><path d="M 17.4 3.06 C 16.05 4.65, 15.75 4.9350000000000005, 14.700000000000001 6.24 C 13.950000000000001 7.26, 13.815000000000001 7.125, 13.200000000000001 8.28 C 12.72 9.57, 12.600000000000001 9.719999999999999, 12.24 10.86 C 12 11.85, 11.879999999999999 12.045, 11.76 12.84 C 11.76 13.44, 11.52 13.424999999999999, 11.76 14.04 C 12.24 14.669999999999998, 11.715 14.745, 12.72 15.299999999999999 C 14.25 15.779999999999998, 14.475 15.974999999999998, 15.78 16.259999999999998 C 16.86 16.35, 16.395 16.395, 17.94 16.44 C 19.950000000000003 16.44, 20.205000000000002 16.44, 21.96 16.44 C 23.46 16.44, 23.775 16.44, 24.96 16.44 C 25.830000000000002 16.44, 26.265 16.44, 26.700000000000003 16.44 C 26.700000000000003 16.44, 26.700000000000003 16.44, 26.700000000000003 16.44 L 26.700000000000003 16.44" fill="none" stroke="black" stroke-width="2"></path><path d="M 16.259999999999998 16.5 C 16.17 18.27, 16.125 18.165, 16.080000000000002 20.04 C 16.080000000000002 22.02, 16.080000000000002 22.035, 16.080000000000002 24 C 16.080000000000002 25.950000000000003, 16.080000000000002 26.175, 16.080000000000002 27.900000000000002 C 16.080000000000002 29.400000000000002, 16.14 29.115000000000002, 16.080000000000002 30.900000000000002 C 15.96 32.97, 15.945 33.39, 15.84 35.04 C 15.75 36.269999999999996, 15.735 36.555, 15.66 37.5 C 15.6 38.16, 15.57 38.46, 15.54 38.82 C 15.54 38.879999999999995, 15.584999999999999 38.79, 15.54 38.94 C 15.45 39.18, 15.405 39.105000000000004, 15.36 39.42 C 15.36 39.81, 15.36 39.885000000000005, 15.36 40.2 L 15.36 40.68" fill="none" stroke="black" stroke-width="2"></path><path d="M 22.56 17.34 C 22.409999999999997 19.32, 22.47 18.959999999999997, 22.259999999999998 21.299999999999997 C 21.99 24, 21.96 24.585, 21.72 26.700000000000003 C 21.509999999999998 28.23, 21.569999999999997 27.959999999999997, 21.299999999999997 29.759999999999998 C 20.97 31.830000000000002, 20.85 32.415000000000006, 20.64 33.900000000000006 C 20.55 34.800000000000004, 20.535 34.830000000000005, 20.46 35.7 C 20.4 36.540000000000006, 20.415 36.615, 20.34 37.38 C 20.25 38.07, 20.25 38.175, 20.16 38.76 C 20.07 39.239999999999995, 20.04 39.254999999999995, 19.98 39.72 C 19.95 40.17, 19.965 40.349999999999994, 19.919999999999998 40.62 C 19.86 40.709999999999994, 19.83 40.754999999999995, 19.799999999999997 40.8 L 19.799999999999997 40.8" fill="none" stroke="black" stroke-width="2"></path></svg>