<svg width="48" height="48" viewBox="0 0 48 48" xmlns="http://www.w3.org/2000/svg"><path d="M 16.080000000000002 4.38 C 15.72 5.67, 16.02 5.039999999999999, 15.36 6.959999999999999 C 14.4 9.509999999999998, 14.205000000000002 9.929999999999998, 13.440000000000001 12.059999999999999 C 12.870000000000001 13.77, 12.93 13.920000000000002, 12.299999999999999 15.48 C 11.61 16.89, 11.55 16.845, 10.92 18.299999999999997 C 10.35 19.799999999999997, 10.305 19.784999999999997, 9.78 21.299999999999997 C 9.3 22.83, 9.09 23.235, 8.82 24.36 C 8.76 25.08, 8.774999999999999 25.154999999999998, 8.7 25.799999999999997 C 8.61 26.369999999999997, 8.565 26.355, 8.52 26.94 C 8.52 27.54, 8.475 27.615000000000002, 8.52 28.14 C 8.61 28.59, 8.489999999999998 28.71, 8.7 29.04 C 9.03 29.25, 9.03 29.265, 9.36 29.46 C 9.69 29.64, 9.524999999999999 29.565, 10.02 29.82 C 10.68 30.15, 10.785 30.315, 11.34 30.48 C 11.79 30.48, 11.775 30.48, 12.24 30.48 C 12.72 30.48, 12.555000000000001 30.6, 13.200000000000001 30.48 C 14.010000000000002 30.240000000000002, 13.98 30.33, 14.82 30 C 15.69 29.580000000000002, 15.704999999999998 29.565000000000005, 16.56 29.160000000000004 C 17.4 28.770000000000003, 17.490000000000002 28.725, 18.240000000000002 28.380000000000003 C 18.9 28.080000000000002, 18.599999999999998 28.035000000000004, 19.56 27.78 C 20.82 27.57, 20.67 27.57, 22.080000000000002 27.36 C 23.64 27.15, 23.880000000000003 27.045, 25.200000000000003 26.94 C 26.28 26.94, 26.46 26.82, 27.36 26.94 C 28.08 27.18, 28.169999999999995 26.985000000000003, 28.799999999999997 27.42 C 29.34 28.05, 29.565 28.17, 29.880000000000003 28.68 C 29.97 29.07, 29.985 28.950000000000003, 30.06 29.46 C 30.119999999999997 30.09, 30.24 30.075, 30.18 30.72 C 30 31.38, 30.195 31.409999999999997, 29.82 32.04 C 29.25 32.64, 29.205 32.805, 28.68 33.24 C 28.2 33.510000000000005, 28.259999999999998 33.645, 27.72 33.78 C 27.119999999999997 33.78, 27.104999999999997 33.795, 26.52 33.78 C 25.950000000000003 33.75, 25.860000000000003 33.765, 25.380000000000003 33.72 C 24.990000000000002 33.66, 24.825 33.66, 24.599999999999998 33.599999999999994 C 24.54 33.54, 24.509999999999998 33.510000000000005, 24.48 33.480000000000004 L 24.48 33.480000000000004" fill="none" stroke="black" stroke-width="2"></path></svg>