<svg width="48" height="48" viewBox="0 0 48 48" xmlns="http://www.w3.org/2000/svg"><path d="M 13.559999999999999 13.379999999999999 C 14.459999999999999 13.559999999999999, 14.564999999999998 13.65, 15.36 13.74 C 16.05 13.74, 16.005000000000003 13.86, 16.740000000000002 13.74 C 17.52 13.5, 17.624999999999996 13.53, 18.299999999999997 13.26 C 18.869999999999997 12.96, 18.810000000000002 13.185, 19.44 12.66 C 20.130000000000003 11.91, 20.46 11.7, 20.82 11.16 C 20.85 10.83, 20.82 11.205, 20.88 10.5 C 20.97 9.42, 21.029999999999998 9.15, 21.06 8.34 C 21.03 7.8, 21.255 7.859999999999999, 21 7.26 C 20.52 6.6, 20.49 6.42, 20.04 5.9399999999999995 C 19.62 5.64, 19.680000000000003 5.535, 19.200000000000003 5.34 C 18.660000000000004 5.25, 18.630000000000003 5.115, 18.12 5.16 C 17.64 5.34, 17.595 5.220000000000001, 17.16 5.5200000000000005 C 16.77 5.94, 16.814999999999998 5.6850000000000005, 16.38 6.36 C 15.899999999999999 7.290000000000001, 15.884999999999998 7.335000000000001, 15.419999999999998 8.22 C 14.969999999999999 9.059999999999999, 14.879999999999999 9.075, 14.52 9.899999999999999 C 14.25 10.709999999999999, 14.22 10.68, 13.98 11.52 C 13.77 12.39, 13.874999999999998 11.655, 13.559999999999999 13.26 C 13.14 15.600000000000001, 13.035 15.72, 12.72 17.94 C 12.51 20.04, 12.495 20.355, 12.299999999999999 22.14 C 12.12 23.61, 12.075 23.939999999999998, 11.94 25.08 C 11.85 25.89, 11.805 25.785000000000004, 11.76 26.700000000000003 C 11.76 27.720000000000002, 11.76 27.870000000000005, 11.76 28.740000000000002 C 11.76 29.46, 11.76 29.64, 11.76 30.18 C 11.76 30.54, 11.67 30.42, 11.76 30.900000000000002 C 11.940000000000001 31.5, 11.895000000000001 31.694999999999997, 12.120000000000001 32.099999999999994 C 12.39 32.309999999999995, 12.135 32.324999999999996, 12.66 32.519999999999996 C 13.440000000000001 32.7, 13.11 32.79, 14.22 32.88 C 15.66 32.88, 15.675000000000002 32.835, 17.1 32.88 C 18.509999999999998 32.97, 18.854999999999997 33.015, 19.919999999999998 33.06 C 20.64 33.06, 20.849999999999998 33.06, 21.36 33.06 C 21.66 33.06, 21.810000000000002 33.06, 21.96 33.06 L 21.96 33.06" fill="none" stroke="black" stroke-width="2"></path><path d="M 11.28 36.54 C 11.849999999999998 36.54, 11.054999999999998 36.54, 12.419999999999998 36.54 C 14.58 36.54, 15.000000000000002 36.54, 16.740000000000002 36.54 C 18.060000000000002 36.54, 18.15 36.449999999999996, 19.38 36.54 C 20.52 36.72, 20.94 36.81, 21.66 36.900000000000006 L 22.259999999999998 36.900000000000006" fill="none" stroke="black" stroke-width="2"></path><path d="M 11.100000000000001 41.46 C 12.120000000000001 41.46, 11.625 41.46, 13.14 41.46 C 15.15 41.46, 15.585 41.4, 17.16 41.46 C 18.3 41.58, 18.405 41.550000000000004, 19.44 41.7 C 20.369999999999997 41.88, 20.459999999999997 41.925000000000004, 21.299999999999997 42.06 C 22.049999999999997 42.150000000000006, 22.424999999999997 42.195, 22.799999999999997 42.24 L 22.799999999999997 42.24" fill="none" stroke="black" stroke-width="2"></path></svg>