<svg width="48" height="48" viewBox="0 0 48 48" xmlns="http://www.w3.org/2000/svg"><path d="M 15.299999999999999 14.100000000000001 C 15.66 13.08, 15.809999999999999 12.989999999999998, 16.02 12.059999999999999 C 16.08 11.219999999999999, 16.11 11.114999999999998, 16.14 10.379999999999999 C 16.14 9.75, 16.200000000000003 9.675, 16.14 9.120000000000001 C 16.02 8.64, 16.185 8.685, 15.899999999999999 8.16 C 15.45 7.59, 15.57 7.379999999999999, 15 7.02 C 14.31 6.87, 14.475000000000001 6.795, 13.620000000000001 6.720000000000001 C 12.600000000000001 6.720000000000001, 12.375 6.630000000000001, 11.58 6.720000000000001 C 11.01 6.9, 11.024999999999999 6.69, 10.44 7.08 C 9.84 7.68, 9.705 7.619999999999999, 9.24 8.28 C 8.91 9, 8.805 9.015, 8.58 9.72 C 8.46 10.41, 8.4 10.560000000000002, 8.34 11.100000000000001 C 8.34 11.49, 8.235 11.415, 8.34 11.879999999999999 C 8.55 12.42, 8.49 12.510000000000002, 8.76 12.96 C 9.09 13.32, 8.985 13.440000000000001, 9.42 13.68 C 9.96 13.799999999999999, 9.885 13.814999999999998, 10.5 13.919999999999998 C 11.19 14.01, 11.084999999999999 14.055, 11.879999999999999 14.100000000000001 C 12.78 14.100000000000001, 12.719999999999999 14.100000000000001, 13.68 14.100000000000001 C 14.7 14.100000000000001, 14.850000000000001 14.115000000000002, 15.72 14.100000000000001 C 16.44 14.07, 16.095 14.115, 17.16 14.04 C 18.57 13.919999999999998, 18.6 13.934999999999999, 19.98 13.799999999999999 C 21.33 13.649999999999999, 21.57 13.575, 22.68 13.5 C 23.55 13.5, 23.700000000000003 13.425, 24.42 13.5 C 24.990000000000002 13.649999999999999, 25.11 13.59, 25.56 13.799999999999999 C 25.89 14.07, 25.799999999999997 13.935, 26.22 14.34 C 26.73 14.879999999999999, 26.790000000000003 14.864999999999998, 27.240000000000002 15.419999999999998 C 27.630000000000003 15.989999999999998, 27.765 16.08, 28.02 16.56 C 28.14 16.95, 28.185 16.83, 28.259999999999998 17.34 C 28.29 17.97, 28.305 17.94, 28.32 18.6 C 28.32 19.29, 28.32 19.44, 28.32 19.98 C 28.32 20.369999999999997, 28.32 20.564999999999998, 28.32 20.759999999999998 C 28.32 20.759999999999998, 28.32 20.759999999999998, 28.32 20.759999999999998 L 28.32 20.759999999999998" fill="none" stroke="black" stroke-width="2"></path><path d="M 7.92 40.14 C 10.23 39.09, 10.815 39.09, 12.54 38.04 C 13.68 36.989999999999995, 13.95 36.87, 14.82 35.94 C 15.42 35.129999999999995, 15.42 35.445, 16.02 34.32 C 16.619999999999997 32.88, 16.724999999999998 33, 17.22 31.44 C 17.61 29.759999999999998, 17.759999999999998 29.505, 18 28.08 C 18.09 26.91, 18.119999999999997 26.880000000000003, 18.18 25.740000000000002 C 18.21 24.630000000000003, 18.195 24.915, 18.240000000000002 23.52 C 18.3 21.84, 18.285 21.57, 18.36 20.16 C 18.45 19.02, 18.494999999999997 18.674999999999997, 18.54 17.88 C 18.54 17.43, 18.54 17.25, 18.54 16.98 C 18.54 16.89, 18.54 16.994999999999997, 18.54 16.799999999999997 C 18.54 16.5, 18.54 16.545, 18.54 16.200000000000003 C 18.54 15.81, 18.54 15.794999999999998, 18.54 15.419999999999998 C 18.54 15.059999999999999, 18.54 14.88, 18.54 14.700000000000001 C 18.54 14.700000000000001, 18.54 14.700000000000001, 18.54 14.700000000000001 L 18.54 14.700000000000001" fill="none" stroke="black" stroke-width="2"></path><path d="M 18.54 14.580000000000002 C 18.479999999999997 15.510000000000002, 18.479999999999997 14.820000000000002, 18.419999999999998 16.44 C 18.36 18.75, 18.33 19.08, 18.299999999999997 21.06 C 18.299999999999997 22.71, 18.299999999999997 22.83, 18.299999999999997 24.36 C 18.299999999999997 25.77, 18.299999999999997 25.665, 18.299999999999997 27.18 C 18.299999999999997 28.8, 18.134999999999998 28.695, 18.299999999999997 30.42 C 18.63 32.25, 18.525 32.535, 18.96 34.08 C 19.5 35.339999999999996, 19.395 35.63999999999999, 20.04 36.599999999999994 C 20.79 37.26, 20.685 37.35, 21.54 37.92 C 22.5 38.400000000000006, 22.770000000000003 38.580000000000005, 23.46 38.88 C 23.88 39, 24.089999999999996 39.06, 24.299999999999997 39.12 C 24.299999999999997 39.12, 24.224999999999998 39.105, 24.299999999999997 39.12 L 24.599999999999998 39.18" fill="none" stroke="black" stroke-width="2"></path></svg>