<svg width="48" height="48" viewBox="0 0 48 48" xmlns="http://www.w3.org/2000/svg"><path d="M 12.96 12.899999999999999 C 13.68 12.899999999999999, 13.184999999999999 12.989999999999998, 14.399999999999999 12.899999999999999 C 16.11 12.719999999999999, 16.259999999999998 12.944999999999999, 17.82 12.54 C 19.23 11.91, 19.740000000000002 11.924999999999999, 20.64 11.28 C 21.03 10.62, 21.224999999999998 10.544999999999998, 21.419999999999998 9.959999999999999 C 21.419999999999998 9.45, 21.494999999999997 9.524999999999999, 21.419999999999998 8.94 C 21.27 8.28, 21.3 8.055, 21.12 7.62 C 20.910000000000004 7.41, 20.970000000000002 7.469999999999999, 20.700000000000003 7.199999999999999 C 20.37 6.87, 20.490000000000002 6.870000000000001, 20.04 6.540000000000001 C 19.47 6.210000000000001, 19.529999999999998 6.135, 18.9 5.88 C 18.21 5.7, 18.09 5.61, 17.52 5.5200000000000005 C 17.07 5.5200000000000005, 17.04 5.505000000000001, 16.62 5.5200000000000005 C 16.23 5.550000000000001, 16.395 5.235, 15.84 5.58 C 15.12 6.24, 14.999999999999998 6.239999999999999, 14.399999999999999 6.8999999999999995 C 13.92 7.5600000000000005, 13.815000000000001 7.485, 13.440000000000001 8.22 C 13.17 9.030000000000001, 13.155 9.06, 12.899999999999999 9.84 C 12.659999999999998 10.59, 12.689999999999998 10.41, 12.419999999999998 11.34 C 12.12 12.45, 12.06 12.374999999999998, 11.82 13.559999999999999 C 11.64 14.82, 11.549999999999999 14.895000000000003, 11.459999999999999 16.080000000000002 C 11.459999999999999 17.189999999999998, 11.444999999999999 17.384999999999998, 11.459999999999999 18.299999999999997 C 11.489999999999998 19.02, 11.219999999999999 19.05, 11.52 19.740000000000002 C 12.09 20.4, 12 20.595, 12.66 21.06 C 13.41 21.33, 13.215 21.315, 14.16 21.6 C 15.3 21.900000000000002, 15.18 21.975, 16.44 22.200000000000003 C 17.82 22.35, 17.730000000000004 22.41, 19.200000000000003 22.5 C 20.76 22.53, 20.61 22.604999999999997, 22.32 22.56 C 24.18 22.439999999999998, 24.57 22.485, 26.04 22.32 C 27.12 22.11, 27.39 22.08, 28.200000000000003 21.9 C 28.740000000000002 21.75, 28.965000000000003 21.675, 29.28 21.6 L 29.46 21.6" fill="none" stroke="black" stroke-width="2"></path><path d="M 22.98 26.04 C 22.23 25.68, 22.62 25.5, 21.48 25.32 C 19.95 25.32, 19.74 25.065, 18.419999999999998 25.32 C 17.310000000000002 25.83, 17.19 25.664999999999996, 16.200000000000003 26.339999999999996 C 15.330000000000002 27.18, 15.060000000000002 27.224999999999998, 14.46 28.02 C 14.129999999999999 28.77, 13.995 28.544999999999998, 13.799999999999999 29.52 C 13.739999999999998 30.72, 13.59 30.825, 13.68 31.92 C 13.92 32.910000000000004, 13.635 32.970000000000006, 14.16 33.900000000000006 C 14.969999999999999 34.77, 14.669999999999998 34.89, 15.78 35.64 C 17.19 36.27, 17.28 36.540000000000006, 18.6 36.900000000000006 C 19.83 36.99, 19.83 37.17, 21.06 37.08 C 22.29 36.81, 22.515 37.05, 23.52 36.54 C 24.299999999999997 35.79, 24.509999999999998 35.864999999999995, 25.08 35.04 C 25.439999999999998 34.14, 25.485 34.260000000000005, 25.799999999999997 33.24 C 26.069999999999997 32.1, 26.189999999999994 32.175, 26.339999999999996 30.96 C 26.369999999999997 29.67, 26.46 29.370000000000005, 26.400000000000002 28.380000000000003 C 26.25 27.69, 26.354999999999997 27.525, 26.099999999999998 27 C 25.740000000000002 26.64, 25.8 26.61, 25.380000000000003 26.28 C 24.900000000000002 25.98, 25.050000000000004 25.935000000000002, 24.42 25.68 C 23.64 25.47, 23.34 25.365, 22.86 25.259999999999998 L 22.5 25.259999999999998" fill="none" stroke="black" stroke-width="2"></path><path d="M 13.86 30.78 C 15.54 30.66, 14.729999999999999 30.84, 17.22 30.54 C 20.52 30.06, 21.72 29.82, 23.82 29.58 C 24.72 29.58, 25.169999999999998 29.58, 25.619999999999997 29.58 C 25.619999999999997 29.58, 25.619999999999997 29.58, 25.619999999999997 29.58 L 25.619999999999997 29.58" fill="none" stroke="black" stroke-width="2"></path></svg>