<svg width="48" height="48" viewBox="0 0 48 48" xmlns="http://www.w3.org/2000/svg"><path d="M 9.120000000000001 12.96 C 9.66 13.05, 9.03 13.095, 10.2 13.14 C 12 13.14, 12.285 13.170000000000002, 13.799999999999999 13.14 C 15.029999999999998 13.08, 15.149999999999997 13.425, 16.259999999999998 13.02 C 17.25 12.27, 17.700000000000003 12.254999999999999, 18.240000000000002 11.52 C 18.33 10.8, 18.555 11.129999999999999, 18.419999999999998 10.08 C 18.060000000000002 8.7, 18.03 8.295, 17.700000000000003 7.32 C 17.400000000000002 6.75, 17.67 6.66, 17.1 6.18 C 16.259999999999998 5.79, 16.305 5.58, 15.419999999999998 5.4 C 14.489999999999998 5.43, 14.489999999999998 5.28, 13.559999999999999 5.46 C 12.629999999999999 5.79, 12.344999999999999 5.7, 11.7 6.12 C 11.34 6.63, 11.34 6.4799999999999995, 10.98 7.14 C 10.620000000000001 7.949999999999999, 10.575 7.755, 10.26 8.76 C 9.99 9.96, 9.96 9.96, 9.72 11.16 C 9.510000000000002 12.36, 9.495000000000001 11.91, 9.3 13.559999999999999 C 9.120000000000001 15.659999999999998, 9.03 15.689999999999998, 8.94 17.759999999999998 C 8.94 19.799999999999997, 8.94 19.619999999999997, 8.94 21.84 C 8.94 24.240000000000002, 8.985 24.795, 8.94 26.64 C 8.85 27.93, 8.805 28.005, 8.76 29.22 C 8.76 30.36, 8.805 30.345, 8.76 31.5 C 8.67 32.67, 8.625 32.745, 8.58 33.839999999999996 C 8.58 34.86, 8.52 35.205, 8.58 35.88 C 8.7 36.21, 8.52 36.075, 8.82 36.54 C 9.3 37.14, 9.209999999999999 37.14, 9.78 37.74 C 10.440000000000001 38.34, 10.425 38.4, 11.100000000000001 38.94 C 11.790000000000001 39.42, 11.895 39.525000000000006, 12.48 39.900000000000006 C 12.96 40.17, 12.810000000000002 40.17, 13.440000000000001 40.44 C 14.22 40.71, 14.25 40.845, 15 40.980000000000004 C 15.72 40.980000000000004, 15.555000000000001 41.07000000000001, 16.44 40.980000000000004 C 17.490000000000002 40.8, 17.535 40.875, 18.54 40.62 C 19.5 40.29, 19.5 40.32, 20.46 39.96 C 21.42 39.57, 21.735 39.45, 22.38 39.18 C 22.71 39.03, 22.875 38.955, 23.04 38.88 C 23.04 38.88, 22.904999999999998 39.015, 23.04 38.88 C 23.310000000000002 38.61, 23.37 38.64, 23.580000000000002 38.339999999999996 C 23.73 38.01, 23.805 37.845, 23.88 37.68 C 23.88 37.68, 23.88 37.68, 23.88 37.68 L 23.88 37.68" fill="none" stroke="black" stroke-width="2"></path><path d="M 9.24 30.240000000000002 C 11.22 30.54, 11.055000000000001 30.584999999999997, 13.200000000000001 30.839999999999996 C 15.510000000000002 31.049999999999997, 15.540000000000001 31.095, 17.82 31.259999999999998 C 20.07 31.38, 20.295 31.439999999999998, 22.32 31.5 C 24.12 31.5, 24.720000000000002 31.5, 25.92 31.5 C 26.52 31.5, 26.82 31.5, 27.119999999999997 31.5 L 27.119999999999997 31.5" fill="none" stroke="black" stroke-width="2"></path></svg>