<svg width="48" height="48" viewBox="0 0 48 48" xmlns="http://www.w3.org/2000/svg"><path d="M 16.44 14.82 C 16.560000000000002 13.92, 16.575 13.934999999999999, 16.68 13.02 C 16.77 12.09, 16.814999999999998 11.985, 16.86 11.16 C 16.86 10.440000000000001, 16.994999999999997 10.47, 16.86 9.72 C 16.59 8.940000000000001, 16.62 8.73, 16.32 8.16 C 15.99 7.8, 16.035 7.77, 15.66 7.4399999999999995 C 15.24 7.14, 15.27 7.095, 14.82 6.84 C 14.34 6.63, 14.385 6.57, 13.86 6.42 C 13.29 6.33, 13.275 6.21, 12.72 6.24 C 12.18 6.390000000000001, 12.315000000000001 6.105, 11.64 6.540000000000001 C 10.83 7.260000000000001, 10.62 7.365, 10.02 7.98 C 9.629999999999999 8.49, 9.645 8.415, 9.24 9 C 8.82 9.66, 8.654999999999998 9.51, 8.399999999999999 10.32 C 8.309999999999999 11.280000000000001, 8.265 11.355, 8.22 12.24 C 8.22 13.05, 8.22 13.305, 8.22 13.86 C 8.22 14.16, 8.13 14.205000000000002, 8.22 14.46 C 8.4 14.67, 8.295 14.73, 8.58 14.879999999999999 C 8.969999999999999 14.969999999999999, 8.82 14.969999999999999, 9.36 15.059999999999999 C 10.05 15.149999999999999, 10.035 15.15, 10.74 15.24 C 11.46 15.329999999999998, 11.34 15.374999999999998, 12.18 15.419999999999998 C 13.14 15.419999999999998, 13.080000000000002 15.524999999999999, 14.100000000000001 15.419999999999998 C 15.18 15.209999999999999, 15.329999999999998 15.195, 16.259999999999998 15 C 17.04 14.82, 16.814999999999998 14.805, 17.82 14.64 C 19.05 14.49, 18.945 14.415, 20.28 14.34 C 21.72 14.34, 21.810000000000002 14.34, 23.16 14.34 C 24.42 14.34, 24.705 14.295, 25.68 14.34 C 26.369999999999997 14.43, 26.43 14.309999999999999, 27.06 14.52 C 27.630000000000003 14.85, 27.630000000000003 14.715, 28.200000000000003 15.18 C 28.77 15.78, 28.979999999999997 15.854999999999999, 29.339999999999996 16.38 C 29.49 16.83, 29.564999999999998 16.770000000000003, 29.64 17.28 C 29.64 17.85, 29.64 17.909999999999997, 29.64 18.419999999999998 C 29.64 18.869999999999997, 29.73 18.72, 29.64 19.32 C 29.46 20.07, 29.37 20.445, 29.28 20.82 C 29.28 20.82, 29.28 20.82, 29.28 20.82 L 29.28 20.82" fill="none" stroke="black" stroke-width="2"></path><path d="M 21.06 14.64 C 21.03 14.790000000000001, 21.015 14.385000000000002, 21 14.940000000000001 C 21 15.9, 21 15.719999999999999, 21 16.86 C 21 18.18, 21 18.12, 21 19.5 C 21 20.939999999999998, 21 20.744999999999997, 21 22.38 C 21 24.21, 21.18 24.165, 21 26.04 C 20.64 27.96, 20.775000000000002 28.065000000000005, 20.28 29.880000000000003 C 19.65 31.59, 19.56 32.01, 19.02 33.3 C 18.57 34.17, 18.765 33.9, 18.12 35.04 C 17.28 36.45, 17.175 36.81, 16.44 37.86 C 15.81 38.55, 15.66 38.745000000000005, 15.18 39.24 C 14.85 39.54, 14.774999999999999 39.629999999999995, 14.52 39.839999999999996 L 14.16 40.08" fill="none" stroke="black" stroke-width="2"></path></svg>