<svg width="48" height="48" viewBox="0 0 48 48" xmlns="http://www.w3.org/2000/svg"><path d="M 11.82 12.66 C 12.63 12.93, 12.540000000000003 12.975000000000001, 13.440000000000001 13.200000000000001 C 14.43 13.379999999999999, 14.579999999999998 13.469999999999999, 15.419999999999998 13.559999999999999 C 16.11 13.559999999999999, 15.929999999999996 13.665, 16.799999999999997 13.559999999999999 C 17.849999999999998 13.35, 17.939999999999998 13.545, 18.9 13.14 C 19.77 12.54, 20.04 12.57, 20.64 11.94 C 20.97 11.280000000000001, 21.104999999999997 11.190000000000001, 21.299999999999997 10.620000000000001 C 21.36 10.14, 21.464999999999996 10.17, 21.419999999999998 9.66 C 21.27 9.120000000000001, 21.33 9.06, 21.12 8.58 C 20.85 8.16, 21.015 8.205, 20.580000000000002 7.74 C 19.98 7.23, 19.89 7.140000000000001, 19.38 6.720000000000001 C 18.96 6.390000000000001, 19.005 6.36, 18.54 6.0600000000000005 C 18.03 5.790000000000001, 18 5.655, 17.52 5.5200000000000005 C 17.07 5.5200000000000005, 17.07 5.5200000000000005, 16.62 5.5200000000000005 C 16.17 5.5200000000000005, 16.065 5.460000000000001, 15.72 5.5200000000000005 C 15.48 5.640000000000001, 15.57 5.535, 15.24 5.76 C 14.82 6.09, 14.79 6.045, 14.399999999999999 6.42 C 14.04 6.84, 14.009999999999998 6.84, 13.68 7.26 C 13.38 7.680000000000001, 13.350000000000001 7.650000000000001, 13.080000000000002 8.100000000000001 C 12.840000000000002 8.580000000000002, 12.825000000000003 8.505, 12.600000000000001 9.06 C 12.39 9.690000000000001, 12.36 9.675, 12.18 10.32 C 12.03 10.98, 12.044999999999998 10.635000000000002, 11.879999999999999 11.64 C 11.7 12.99, 11.61 13.02, 11.52 14.34 C 11.52 15.629999999999999, 11.52 15.494999999999997, 11.52 16.919999999999998 C 11.52 18.479999999999997, 11.37 18.599999999999998, 11.52 20.04 C 11.82 21.36, 11.865000000000002 21.735, 12.120000000000001 22.68 C 12.33 23.25, 12.434999999999999 23.535, 12.54 23.82 L 12.54 23.82" fill="none" stroke="black" stroke-width="2"></path><path d="M 11.879999999999999 18.36 C 12.57 18.36, 11.084999999999999 18.255, 13.26 18.36 C 16.92 18.57, 17.520000000000003 18.465, 20.580000000000002 18.78 C 23.04 19.200000000000003, 23.025 19.335, 25.5 19.62 C 27.990000000000002 19.77, 28.439999999999998 19.784999999999997, 30.48 19.919999999999998 C 32.07 20.04, 32.64 20.1, 33.660000000000004 20.16 C 34.11 20.16, 34.335 20.16, 34.56 20.16 L 34.56 20.16" fill="none" stroke="black" stroke-width="2"></path><path d="M 24.78 19.919999999999998 C 24.689999999999998 21.99, 24.705 22.124999999999996, 24.599999999999998 24.06 C 24.479999999999997 25.86, 24.509999999999998 25.800000000000004, 24.36 27.660000000000004 C 24.18 29.580000000000002, 24.27 29.775, 24 31.5 C 23.64 33.03, 23.79 33.045, 23.28 34.56 C 22.62 36.06, 23.115000000000002 35.895, 21.96 37.56 C 20.310000000000002 39.39, 20.310000000000002 39.585, 18.66 41.22 C 17.009999999999998 42.66, 16.349999999999998 43.22999999999999, 15.36 44.099999999999994 C 15.030000000000001 44.4, 14.91 44.505, 14.700000000000001 44.7 L 14.52 44.88" fill="none" stroke="black" stroke-width="2"></path></svg>