<svg width="48" height="48" viewBox="0 0 48 48" xmlns="http://www.w3.org/2000/svg"><path d="M 20.16 16.32 C 20.880000000000003 15.87, 20.82 16.02, 21.6 15.419999999999998 C 22.44 14.669999999999998, 22.545 14.714999999999998, 23.28 13.919999999999998 C 23.91 13.079999999999998, 23.985 13.125, 24.54 12.24 C 25.02 11.309999999999999, 25.155 11.219999999999999, 25.5 10.379999999999999 C 25.71 9.629999999999999, 25.815 9.479999999999999, 25.92 8.879999999999999 C 25.92 8.43, 26.055 8.775, 25.92 7.98 C 25.650000000000002 6.84, 25.740000000000002 6.4799999999999995, 25.380000000000003 5.699999999999999 C 24.93 5.279999999999999, 25.020000000000003 5.175000000000001, 24.48 4.86 C 23.85 4.65, 24.21 4.59, 23.22 4.4399999999999995 C 21.869999999999997 4.35, 21.54 4.215, 20.52 4.26 C 19.83 4.4399999999999995, 19.830000000000002 4.23, 19.14 4.62 C 18.45 5.220000000000001, 18.24 5.325, 17.759999999999998 5.82 C 17.49 6.210000000000001, 17.49 5.955000000000001, 17.22 6.6000000000000005 C 16.95 7.5, 16.814999999999998 7.649999999999999, 16.68 8.399999999999999 C 16.68 9, 16.665 9.06, 16.68 9.600000000000001 C 16.71 10.080000000000002, 16.635 10.155000000000001, 16.740000000000002 10.56 C 16.92 10.89, 16.905 10.815000000000001, 17.1 11.22 C 17.310000000000002 11.7, 17.295 11.7, 17.52 12.18 C 17.759999999999998 12.66, 17.775 12.690000000000001, 18 13.14 C 18.21 13.56, 18.165 13.47, 18.419999999999998 13.98 C 18.72 14.58, 18.689999999999998 14.64, 19.02 15.18 C 19.380000000000003 15.66, 19.290000000000003 15.525, 19.740000000000002 16.14 C 20.28 16.89, 20.355 16.965, 20.82 17.64 C 21.21 18.240000000000002, 21.075000000000003 18, 21.6 18.84 C 22.259999999999998 19.92, 22.29 19.785, 22.919999999999998 21 C 23.519999999999996 22.35, 23.58 22.245000000000005, 24.119999999999997 23.700000000000003 C 24.599999999999998 25.26, 24.809999999999995 25.53, 25.08 26.82 C 25.14 27.84, 25.125 27.78, 25.200000000000003 28.86 C 25.290000000000003 30, 25.335 30.105, 25.380000000000003 31.14 C 25.380000000000003 32.07, 25.455000000000005 32.175, 25.380000000000003 33 C 25.23 33.72, 25.35 33.81, 25.08 34.44 C 24.689999999999998 34.98, 24.839999999999996 34.875, 24.299999999999997 35.519999999999996 C 23.61 36.269999999999996, 23.459999999999997 36.56999999999999, 22.919999999999998 37.019999999999996 C 22.53 37.17, 22.575 37.245, 22.14 37.32 C 21.66 37.32, 21.765 37.32, 21.18 37.32 C 20.49 37.32, 20.294999999999995 37.32, 19.799999999999997 37.32 C 19.5 37.32, 19.425000000000004 37.32, 19.200000000000003 37.32 C 19.05 37.32, 19.185 37.65, 18.9 37.32 C 18.479999999999997 36.66, 18.36 36.6, 18.06 36 C 17.880000000000003 35.46, 17.835 35.730000000000004, 17.700000000000003 34.92 C 17.61 33.84, 17.565 33.9, 17.52 32.76 C 17.52 31.56, 17.52 31.32, 17.52 30.36 C 17.52 29.64, 17.505 29.745, 17.52 28.92 C 17.55 27.990000000000002, 17.565 27.825, 17.580000000000002 27.06 C 17.580000000000002 26.46, 17.580000000000002 26.205, 17.580000000000002 25.86 C 17.580000000000002 25.77, 17.580000000000002 25.725, 17.580000000000002 25.68 C 17.580000000000002 25.68, 17.580000000000002 25.68, 17.580000000000002 25.68 L 17.580000000000002 25.68" fill="none" stroke="black" stroke-width="2"></path></svg>