<svg width="48" height="48" viewBox="0 0 48 48" xmlns="http://www.w3.org/2000/svg"><path d="M 17.34 25.259999999999998 C 17.520000000000003 24.42, 17.655 24.735, 17.700000000000003 23.580000000000002 C 17.61 22.11, 17.655 21.630000000000003, 17.52 20.64 C 17.34 20.130000000000003, 17.46 20.1, 17.16 19.62 C 16.740000000000002 19.17, 16.815 19.035, 16.32 18.72 C 15.75 18.54, 15.780000000000001 18.405, 15.18 18.36 C 14.549999999999999 18.45, 14.444999999999997 18.27, 13.919999999999998 18.54 C 13.5 18.990000000000002, 13.455000000000002 18.78, 13.080000000000002 19.44 C 12.75 20.310000000000002, 12.584999999999999 20.325, 12.419999999999998 21.18 C 12.419999999999998 22.02, 12.374999999999996 22.215, 12.419999999999998 22.86 C 12.51 23.31, 12.315000000000001 23.369999999999997, 12.600000000000001 23.759999999999998 C 13.08 24.09, 13.034999999999998 24.105, 13.559999999999999 24.42 C 14.129999999999999 24.72, 13.950000000000001 24.810000000000002, 14.700000000000001 25.02 C 15.629999999999999 25.14, 15.795 25.185, 16.56 25.259999999999998 C 17.159999999999997 25.29, 17.084999999999997 25.395, 17.759999999999998 25.32 C 18.509999999999998 25.14, 18.54 25.41, 19.259999999999998 24.96 C 19.95 24.240000000000002, 20.04 24.54, 20.64 23.52 C 21.15 22.2, 21.315 21.93, 21.66 20.88 C 21.84 20.1, 21.93 19.905, 22.02 19.32 C 22.02 18.93, 22.02 18.735, 22.02 18.54 C 22.02 18.54, 22.02 18.54, 22.02 18.54 L 22.02 18.54" fill="none" stroke="black" stroke-width="2"></path><path d="M 22.02 19.62 C 22.02 20.700000000000003, 22.02 20.76, 22.02 21.78 C 22.02 22.740000000000002, 21.855 22.935000000000002, 22.02 23.700000000000003 C 22.35 24.27, 22.23 24.314999999999998, 22.68 24.839999999999996 C 23.25 25.319999999999997, 23.04 25.334999999999994, 23.82 25.799999999999997 C 24.81 26.25, 24.749999999999996 26.505000000000003, 25.799999999999997 26.700000000000003 C 26.909999999999997 26.64, 27.15 26.97, 28.02 26.58 C 28.65 25.86, 28.755000000000003 26.025, 29.28 25.14 C 29.7 24.09, 29.79 24.375, 30.119999999999997 23.04 C 30.36 21.419999999999998, 30.479999999999997 21.314999999999998, 30.599999999999998 19.799999999999997 C 30.599999999999998 18.39, 30.749999999999996 18.465, 30.599999999999998 16.98 C 30.299999999999997 15.42, 30.345 15.465, 30 13.86 C 29.61 12.21, 29.655 12.3, 29.22 10.56 C 28.74 8.73, 28.68 8.174999999999999, 28.259999999999998 6.8999999999999995 C 27.9 6.18, 27.75 5.88, 27.54 5.46 C 27.48 5.34, 27.450000000000003 5.279999999999999, 27.42 5.22 L 27.42 5.22" fill="none" stroke="black" stroke-width="2"></path><path d="M 25.44 26.099999999999998 C 25.5 26.909999999999997, 25.695 26.31, 25.56 27.72 C 25.23 29.73, 25.215000000000003 30.3, 24.900000000000002 31.740000000000002 C 24.6 32.61, 24.9 32.31, 24.299999999999997 33.480000000000004 C 23.4 34.95, 23.85 34.965, 22.5 36.42 C 20.7 37.86, 20.445 38.205, 18.9 39.3 C 17.61 40.05, 17.295 40.26, 16.32 40.8 C 15.66 41.129999999999995, 15.54 41.19, 15 41.46 C 14.58 41.67, 14.415 41.760000000000005, 14.16 41.88 L 13.98 41.94" fill="none" stroke="black" stroke-width="2"></path></svg>