<svg width="48" height="48" viewBox="0 0 48 48" xmlns="http://www.w3.org/2000/svg"><path d="M 13.799999999999999 14.52 C 13.559999999999999 13.05, 13.845 13.02, 13.32 11.58 C 12.51 10.17, 12.51 9.885, 11.7 8.76 C 10.89 7.92, 10.965 7.38, 10.08 7.08 C 9.120000000000001 7.32, 9.33 6.2700000000000005, 8.16 7.5600000000000005 C 6.78 9.9, 6.165000000000001 10.59, 5.4 12.24 C 5.25 13.2, 4.92 13.41, 5.1 14.16 C 5.609999999999999 14.7, 5.205 14.91, 6.12 15.24 C 7.4399999999999995 15.36, 7.08 15.42, 8.76 15.48 C 10.8 15.48, 10.844999999999999 15.675, 12.84 15.48 C 14.790000000000001 15.09, 15.465000000000002 14.91, 16.740000000000002 14.700000000000001 C 17.340000000000003 14.670000000000002, 17.385 14.475000000000001, 17.94 14.64 C 18.450000000000003 15, 18.51 14.625, 18.96 15.36 C 19.35 16.47, 19.785000000000004 15.975000000000001, 19.740000000000002 17.580000000000002 C 19.26 19.68, 19.650000000000002 19.62, 18.78 21.78 C 17.52 24, 17.505 23.79, 16.259999999999998 26.22 C 15.029999999999998 28.86, 14.579999999999998 29.67, 13.799999999999999 31.5 C 13.469999999999999 32.519999999999996, 13.305 32.94, 13.14 33.54 C 13.14 33.72, 13.14 33.81, 13.14 33.900000000000006 C 13.14 33.900000000000006, 13.14 33.900000000000006, 13.14 33.900000000000006 L 13.14 33.900000000000006" fill="none" stroke="black" stroke-width="2"></path></svg>