<svg width="48" height="48" viewBox="0 0 48 48" xmlns="http://www.w3.org/2000/svg"><path d="M 9.600000000000001 12.600000000000001 C 10.23 12.600000000000001, 9.945 12.600000000000001, 10.86 12.600000000000001 C 12.059999999999999 12.600000000000001, 12.329999999999998 12.660000000000002, 13.26 12.600000000000001 C 13.920000000000002 12.48, 14.010000000000002 12.495000000000001, 14.580000000000002 12.36 C 15.06 12.209999999999999, 15.134999999999998 12.54, 15.54 12.059999999999999 C 15.870000000000001 11.25, 16.020000000000003 11.415, 16.200000000000003 10.44 C 16.23 9.3, 16.29 9.24, 16.259999999999998 8.16 C 16.17 7.140000000000001, 16.305 7.050000000000001, 16.080000000000002 6.12 C 15.72 5.279999999999999, 15.735 5.069999999999999, 15.36 4.4399999999999995 C 14.97 4.02, 14.895000000000001 3.869999999999999, 14.580000000000002 3.5999999999999996 C 14.340000000000002 3.48, 14.415000000000003 3.42, 14.100000000000001 3.3600000000000003 C 13.71 3.3600000000000003, 13.920000000000002 3.1500000000000004, 13.32 3.3600000000000003 C 12.51 3.78, 12.465 3.6149999999999993, 11.7 4.199999999999999 C 10.98 4.949999999999999, 10.77 5.084999999999999, 10.26 5.699999999999999 C 9.96 6.18, 9.870000000000001 5.955, 9.66 6.66 C 9.54 7.59, 9.48 7.515, 9.42 8.52 C 9.42 9.6, 9.42 9.78, 9.42 10.68 C 9.42 11.4, 9.42 11.16, 9.42 12.120000000000001 C 9.42 13.32, 9.42 13.485, 9.42 14.52 C 9.42 15.389999999999999, 9.42 15.209999999999997, 9.42 16.259999999999998 C 9.42 17.49, 9.42 17.505, 9.42 18.72 C 9.42 19.92, 9.375 20.025, 9.42 21.12 C 9.510000000000002 22.11, 9.510000000000002 22.17, 9.600000000000001 23.1 C 9.690000000000001 23.97, 9.645 23.999999999999996, 9.78 24.839999999999996 C 9.96 25.65, 10.005 25.814999999999998, 10.14 26.46 C 10.23 26.94, 10.14 26.895000000000003, 10.32 27.42 C 10.59 27.990000000000002, 10.62 28.169999999999998, 10.86 28.56 C 11.07 28.77, 10.89 28.83, 11.28 28.98 C 11.849999999999998 29.07, 11.459999999999997 29.070000000000004, 12.419999999999998 29.160000000000004 C 13.77 29.25, 13.74 29.294999999999998, 15.120000000000001 29.339999999999996 C 16.53 29.339999999999996, 16.785 29.354999999999997, 17.94 29.339999999999996 C 18.840000000000003 29.31, 19.065 29.325, 19.740000000000002 29.28 C 20.19 29.220000000000002, 20.04 29.295, 20.64 29.160000000000004 C 21.39 28.950000000000003, 21.330000000000002 29.220000000000002, 22.14 28.740000000000002 C 23.009999999999998 27.990000000000002, 23.22 28.020000000000003, 23.88 27.240000000000002 C 24.33 26.43, 24.39 26.79, 24.78 25.619999999999997 C 25.11 24.089999999999996, 25.275000000000002 24.674999999999997, 25.44 22.56 C 25.44 19.86, 25.44 19.439999999999998, 25.44 17.16 C 25.44 15.3, 25.560000000000002 15.405000000000001, 25.44 13.440000000000001 C 25.200000000000003 11.370000000000001, 25.080000000000002 10.875000000000002, 24.96 9.3 C 24.96 8.22, 24.975 8.04, 24.96 7.14 C 24.93 6.42, 24.930000000000003 6.104999999999999, 24.900000000000002 5.699999999999999 C 24.869999999999997 5.609999999999999, 24.854999999999997 5.595000000000001, 24.839999999999996 5.5200000000000005 C 24.839999999999996 5.460000000000001, 24.839999999999996 5.430000000000001, 24.839999999999996 5.4 C 24.839999999999996 5.4, 24.839999999999996 5.4, 24.839999999999996 5.4 C 24.839999999999996 5.4, 24.869999999999997 5.445, 24.839999999999996 5.4 L 24.72 5.22" fill="none" stroke="black" stroke-width="2"></path><path d="M 11.459999999999999 35.160000000000004 C 13.379999999999999 34.95, 13.454999999999998 34.965, 15.299999999999999 34.74 C 17.07 34.5, 17.64 34.379999999999995, 18.84 34.26 C 19.47 34.26, 19.740000000000002 34.26, 20.1 34.26 C 20.19 34.26, 20.205000000000002 34.26, 20.28 34.26 C 20.34 34.26, 20.25 34.26, 20.4 34.26 C 20.64 34.26, 20.445 34.199999999999996, 20.88 34.26 C 21.509999999999998 34.379999999999995, 21.66 34.425, 22.14 34.5 C 22.47 34.53, 22.559999999999995 34.545, 22.799999999999997 34.56 C 22.95 34.56, 23.025 34.56, 23.1 34.56 L 23.1 34.56" fill="none" stroke="black" stroke-width="2"></path><path d="M 10.620000000000001 40.32 C 11.4 40.32, 10.965 40.32, 12.18 40.32 C 13.83 40.32, 13.920000000000002 40.32, 15.48 40.32 C 16.95 40.32, 17.279999999999998 40.32, 18.419999999999998 40.32 C 19.229999999999997 40.32, 19.229999999999997 40.32, 20.04 40.32 C 20.85 40.32, 20.805 40.32, 21.66 40.32 C 22.560000000000002 40.32, 22.89 40.365, 23.46 40.32 C 23.700000000000003 40.230000000000004, 23.775000000000002 40.185, 23.94 40.14 L 24.119999999999997 40.14" fill="none" stroke="black" stroke-width="2"></path></svg>