<svg width="48" height="48" viewBox="0 0 48 48" xmlns="http://www.w3.org/2000/svg"><path d="M 12.72 15.96 C 13.41 16.17, 13.005 16.305, 14.100000000000001 16.38 C 15.600000000000001 16.32, 15.435000000000002 16.574999999999996, 17.1 16.259999999999998 C 18.93 15.69, 19.575 15.705000000000002, 20.759999999999998 15.120000000000001 C 21.299999999999997 14.52, 21.405 14.579999999999998, 21.84 13.919999999999998 C 22.17 13.2, 22.5 13.215, 22.5 12.48 C 22.17 11.73, 22.439999999999998 11.7, 21.84 10.98 C 20.97 10.290000000000001, 20.880000000000003 10.110000000000001, 20.1 9.600000000000001 C 19.41 9.27, 19.575 9.105, 18.72 8.94 C 17.7 8.94, 17.58 8.625, 16.68 8.94 C 15.9 9.57, 15.780000000000001 9.479999999999999, 15.120000000000001 10.2 C 14.58 11.01, 14.415 11.055, 14.04 11.82 C 13.83 12.54, 13.8 12.225, 13.620000000000001 13.26 C 13.47 14.61, 13.440000000000001 14.505, 13.32 15.96 C 13.23 17.520000000000003, 13.185 17.175, 13.14 19.080000000000002 C 13.14 21.330000000000002, 13.14 21.825000000000003, 13.14 23.580000000000002 C 13.14 24.84, 13.14 24.66, 13.14 26.099999999999998 C 13.14 27.72, 13.14 27.524999999999995, 13.14 29.339999999999996 C 13.14 31.349999999999998, 13.14 31.845, 13.14 33.36 C 13.14 34.38, 13.14 34.38000000000001, 13.14 35.400000000000006 C 13.14 36.42, 13.095 36.495, 13.14 37.44 C 13.23 38.31, 13.065000000000001 38.4, 13.32 39.18 C 13.74 39.870000000000005, 13.77 40.050000000000004, 14.16 40.56 C 14.52 40.89, 14.415 40.83, 14.879999999999999 41.22 C 15.45 41.67, 15.375 41.76, 16.02 42.12 C 16.740000000000002 42.39, 16.665 42.495000000000005, 17.46 42.660000000000004 C 18.330000000000002 42.72, 18.300000000000004 42.795, 19.200000000000003 42.78 C 20.130000000000003 42.69, 19.98 43.05, 21.06 42.599999999999994 C 22.29 41.79, 22.365 41.760000000000005, 23.52 40.980000000000004 C 24.6 40.230000000000004, 24.555 40.17, 25.68 39.480000000000004 C 26.85 38.85, 26.82 38.79, 28.02 38.22 C 29.25 37.71, 29.445 37.455, 30.48 37.2 C 31.32 37.2, 31.365000000000002 37.065000000000005, 32.160000000000004 37.2 C 32.910000000000004 37.47, 32.940000000000005 37.260000000000005, 33.660000000000004 37.74 C 34.35 38.43, 34.59 38.504999999999995, 35.04 39.12 C 35.25 39.66, 35.355000000000004 39.675000000000004, 35.46 40.2 C 35.46 40.71, 35.49 40.725, 35.46 41.22 C 35.4 41.7, 35.64 41.67, 35.339999999999996 42.18 C 34.8 42.72, 34.8 42.855, 34.26 43.26 C 33.72 43.53, 33.93 43.589999999999996, 33.18 43.8 C 32.22 43.949999999999996, 32.07 43.97999999999999, 31.259999999999998 44.099999999999994 C 30.6 44.19, 30.51 44.295, 29.94 44.28 C 29.46 44.16, 29.475 44.25, 28.98 44.04 C 28.47 43.739999999999995, 28.485 43.815, 27.96 43.44 C 27.42 42.989999999999995, 27.330000000000002 43.05, 26.880000000000003 42.54 C 26.520000000000003 41.97, 26.430000000000007 41.85000000000001, 26.160000000000004 41.400000000000006 C 25.98 41.07000000000001, 25.904999999999998 40.95, 25.799999999999997 40.74 C 25.77 40.650000000000006, 25.845 40.83, 25.740000000000002 40.56 C 25.560000000000002 40.11, 25.470000000000002 39.885000000000005, 25.380000000000003 39.660000000000004 L 25.380000000000003 39.660000000000004" fill="none" stroke="black" stroke-width="2"></path></svg>