<svg width="48" height="48" viewBox="0 0 48 48" xmlns="http://www.w3.org/2000/svg"><path d="M 19.38 22.44 C 19.5 21.96, 19.605 22.305, 19.62 21.48 C 19.53 20.310000000000002, 19.665000000000003 20.25, 19.44 19.14 C 19.08 18.09, 19.41 17.759999999999998, 18.72 17.04 C 17.7 16.65, 17.564999999999998 16.455, 16.68 16.259999999999998 C 15.93 16.259999999999998, 15.915 16.199999999999996, 15.18 16.259999999999998 C 14.46 16.38, 14.295 16.23, 13.74 16.5 C 13.350000000000001 16.92, 13.275 16.845, 12.96 17.34 C 12.72 17.91, 12.690000000000001 17.7, 12.48 18.48 C 12.3 19.47, 12.165000000000001 19.560000000000002, 12.120000000000001 20.46 C 12.21 21.270000000000003, 12.09 21.480000000000004, 12.299999999999999 22.080000000000002 C 12.629999999999999 22.47, 12.555000000000001 22.62, 12.96 22.86 C 13.44 22.95, 13.214999999999998 22.965, 13.919999999999998 23.04 C 14.849999999999998 23.1, 14.564999999999998 23.13, 15.78 23.16 C 17.28 23.16, 17.205000000000002 23.16, 18.78 23.16 C 20.43 23.16, 20.76 23.115000000000002, 22.080000000000002 23.16 C 23.07 23.25, 22.979999999999997 23.25, 24.06 23.34 C 25.23 23.43, 25.650000000000002 23.475, 26.400000000000002 23.52 C 26.73 23.52, 26.759999999999998 23.685, 27.06 23.52 C 27.33 23.189999999999998, 27.33 23.325, 27.599999999999998 22.86 C 27.869999999999997 22.259999999999998, 27.915 22.560000000000002, 28.14 21.66 C 28.32 20.46, 28.619999999999997 21.029999999999998, 28.5 19.259999999999998 C 28.080000000000002 16.92, 28.110000000000003 16.545, 27.660000000000004 14.580000000000002 C 27.180000000000003 12.99, 27.42 13.229999999999999, 26.700000000000003 11.399999999999999 C 25.740000000000002 9.329999999999998, 25.635 8.715, 24.78 7.26 C 24.03 6.42, 23.745 6.0600000000000005, 23.28 5.58 C 23.1 5.46, 23.159999999999997 5.49, 22.919999999999998 5.34 C 22.619999999999997 5.16, 22.575 5.174999999999999, 22.32 4.9799999999999995 C 22.11 4.77, 22.005 4.665, 21.9 4.5600000000000005 L 21.9 4.5600000000000005" fill="none" stroke="black" stroke-width="2"></path><path d="M 20.16 21.9 C 20.16 22.8, 20.265 22.425000000000004, 20.16 23.700000000000003 C 19.950000000000003 25.35, 20.040000000000003 25.485, 19.740000000000002 27 C 19.35 28.38, 19.89 28.095, 18.96 29.759999999999998 C 17.490000000000002 31.71, 17.595 31.845000000000006, 16.02 33.660000000000004 C 14.34 35.34, 14.085 35.745, 12.66 37.019999999999996 C 11.49 37.89, 10.995000000000001 38.28, 10.32 38.76 L 9.959999999999999 38.94" fill="none" stroke="black" stroke-width="2"></path><path d="M 25.08 31.200000000000003 C 24.57 32.58, 24.794999999999998 32.115, 24.06 33.96 C 23.1 36.269999999999996, 23.565 36.3, 22.14 38.58 C 20.25 40.83, 19.98 41.58, 18.36 43.08 L 15.66 44.58" fill="none" stroke="black" stroke-width="2"></path></svg>