<svg width="48" height="48" viewBox="0 0 48 48" xmlns="http://www.w3.org/2000/svg"><path d="M 19.44 14.100000000000001 C 19.92 14.22, 19.5 14.19, 20.4 14.34 C 21.72 14.52, 22.125 14.610000000000001, 23.04 14.700000000000001 C 23.549999999999997 14.700000000000001, 23.445 14.700000000000001, 24.06 14.700000000000001 C 24.78 14.700000000000001, 24.615000000000002 14.940000000000001, 25.5 14.700000000000001 C 26.549999999999997 14.22, 26.834999999999997 14.280000000000001, 27.599999999999998 13.74 C 28.08 13.14, 28.154999999999998 13.094999999999999, 28.56 12.54 C 28.89 12.03, 28.845 12.285, 29.22 11.52 C 29.64 10.5, 29.849999999999998 10.35, 30.06 9.48 C 30.06 8.760000000000002, 30.15 8.88, 30.06 8.040000000000001 C 29.880000000000003 7.08, 30.105000000000004 6.915, 29.700000000000003 6.12 C 29.07 5.49, 28.935000000000002 5.28, 28.44 4.86 C 28.08 4.65, 28.229999999999997 4.694999999999999, 27.72 4.4399999999999995 C 27.060000000000002 4.14, 27.225 3.9899999999999998, 26.400000000000002 3.84 C 25.410000000000004 3.84, 25.200000000000003 3.795, 24.42 3.84 C 23.85 3.93, 23.910000000000004 3.7200000000000006, 23.28 4.0200000000000005 C 22.59 4.53, 22.439999999999998 4.455, 21.9 5.04 C 21.509999999999998 5.7, 21.45 5.58, 21.12 6.36 C 20.85 7.26, 20.730000000000004 7.38, 20.580000000000002 8.16 C 20.55 8.82, 20.58 8.655000000000001, 20.52 9.48 C 20.43 10.469999999999999, 20.384999999999998 10.32, 20.34 11.459999999999999 C 20.34 12.75, 20.384999999999998 12.825, 20.34 14.04 C 20.25 15.18, 20.205 15.344999999999999, 20.16 16.32 C 20.16 17.130000000000003, 20.16 16.770000000000003, 20.16 17.94 C 20.16 19.47, 20.16 19.5, 20.16 21 C 20.16 22.47, 20.16 22.605000000000004, 20.16 23.94 C 20.16 25.14, 20.16 24.959999999999997, 20.16 26.339999999999996 C 20.16 27.9, 20.16 28.14, 20.16 29.46 C 20.16 30.54, 20.16 30.569999999999997, 20.16 31.619999999999997 C 20.16 32.64, 20.16 32.80500000000001, 20.16 33.660000000000004 C 20.16 34.35, 20.205 34.47, 20.16 35.04 C 20.07 35.489999999999995, 20.025 35.55, 19.98 35.94 C 19.98 36.269999999999996, 19.98 36.33, 19.98 36.599999999999994 C 19.98 36.809999999999995, 19.98 36.839999999999996, 19.98 37.019999999999996 C 19.98 37.17, 19.98 37.245, 19.98 37.32 C 19.98 37.32, 19.98 37.32, 19.98 37.32 L 19.98 37.32" fill="none" stroke="black" stroke-width="2"></path><path d="M 16.02 27.599999999999998 C 15.81 29.79, 15.765 29.925, 15.600000000000001 31.98 C 15.48 33.9, 15.465 34.515, 15.36 35.82 C 15.27 36.510000000000005, 15.225 36.375, 15.18 37.2 C 15.18 38.16, 15.225 38.31, 15.18 39.12 C 15.09 39.78, 15.045 39.75, 15 40.44 C 15 41.16, 15 41.25, 15 41.88 C 15 42.42, 15 42.42, 15 42.96 C 15 43.5, 15 43.665, 15 44.04 C 15 44.25, 15 44.355000000000004, 15 44.46 L 15 44.46" fill="none" stroke="black" stroke-width="2"></path><path d="M 25.740000000000002 27.240000000000002 C 25.590000000000003 28.380000000000003, 25.635 27.915, 25.44 29.52 C 25.200000000000003 31.590000000000003, 25.155 31.950000000000003, 24.96 33.660000000000004 C 24.810000000000002 35.010000000000005, 24.825000000000003 35.01, 24.660000000000004 36.36 C 24.48 37.71, 24.435 38.010000000000005, 24.299999999999997 39.06 C 24.209999999999997 39.81, 24.224999999999998 39.615, 24.119999999999997 40.56 C 24 41.7, 24 41.925, 23.88 42.839999999999996 C 23.759999999999998 43.53, 23.7 43.83, 23.64 44.22 C 23.64 44.31, 23.64 44.355000000000004, 23.64 44.400000000000006 C 23.64 44.400000000000006, 23.64 44.400000000000006, 23.64 44.400000000000006 C 23.64 44.400000000000006, 23.64 44.400000000000006, 23.64 44.400000000000006 L 23.64 44.400000000000006" fill="none" stroke="black" stroke-width="2"></path></svg>