<svg width="48" height="48" viewBox="0 0 48 48" xmlns="http://www.w3.org/2000/svg"><path d="M 7.62 11.879999999999999 C 8.610000000000001 12.18, 8.235000000000001 12.33, 9.600000000000001 12.48 C 11.340000000000002 12.48, 11.340000000000003 12.600000000000001, 13.080000000000002 12.48 C 14.82 12.24, 15.015 12.525, 16.56 12 C 17.909999999999997 11.19, 18.45 11.25, 19.259999999999998 10.379999999999999 C 19.529999999999998 9.45, 19.754999999999995 9.315, 19.799999999999997 8.52 C 19.619999999999997 7.859999999999999, 19.98 7.979999999999999, 19.44 7.199999999999999 C 18.54 6.3, 18.885 6.195, 17.64 5.4 C 16.05 4.710000000000001, 15.63 4.455, 14.46 4.0200000000000005 C 13.71 3.8400000000000003, 14.025000000000002 3.66, 12.96 3.66 C 11.58 3.8400000000000003, 11.37 3.5550000000000006, 10.2 4.0200000000000005 C 9.239999999999998 4.7700000000000005, 9.045 4.710000000000001, 8.28 5.5200000000000005 C 7.709999999999999 6.390000000000001, 7.47 6.3149999999999995, 7.14 7.26 C 7.049999999999999 8.280000000000001, 7.004999999999999 7.98, 6.959999999999999 9.3 C 6.959999999999999 10.92, 6.884999999999999 10.605, 6.959999999999999 12.54 C 7.109999999999999 14.79, 6.989999999999999 15.104999999999999, 7.26 17.04 C 7.65 18.66, 7.65 18.615000000000002, 8.040000000000001 20.28 C 8.43 21.990000000000002, 8.49 22.365000000000002, 8.82 23.700000000000003 C 9.09 24.66, 9.105 24.81, 9.36 25.619999999999997 C 9.6 26.28, 9.719999999999999 26.61, 9.84 26.94 C 9.84 26.94, 9.84 26.94, 9.84 26.94 C 9.84 26.94, 9.84 26.94, 9.84 26.94 L 9.84 26.94" fill="none" stroke="black" stroke-width="2"></path><path d="M 7.5600000000000005 16.56 C 7.800000000000001 16.5, 7.395000000000001 16.605, 8.040000000000001 16.44 C 9.09 16.17, 9.120000000000001 16.08, 10.14 15.899999999999999 C 11.13 15.809999999999999, 11.310000000000002 15.735, 12.120000000000001 15.72 C 12.75 15.780000000000001, 12.674999999999999 15.675, 13.379999999999999 15.84 C 14.16 16.11, 14.25 16.02, 14.940000000000001 16.38 C 15.540000000000001 16.83, 15.555 16.62, 16.14 17.28 C 16.71 18.15, 16.815 18.075, 17.28 19.02 C 17.64 20.04, 17.775 20.264999999999997, 18 21.06 C 18.09 21.630000000000003, 18.105 21.885, 18.18 22.200000000000003 C 18.24 22.26, 18.269999999999996 22.29, 18.299999999999997 22.32 C 18.299999999999997 22.32, 18.299999999999997 22.32, 18.299999999999997 22.32 C 18.299999999999997 22.32, 18.299999999999997 22.32, 18.299999999999997 22.32 C 18.299999999999997 22.32, 18.284999999999997 22.275, 18.299999999999997 22.32 C 18.33 22.41, 18.299999999999997 22.455, 18.36 22.5 C 18.45 22.5, 17.835 22.68, 18.54 22.5 C 19.86 22.14, 19.86 22.05, 21.18 21.78 C 22.5 21.6, 22.62 21.509999999999998, 23.82 21.419999999999998 C 24.9 21.419999999999998, 25.035 21.36, 25.98 21.419999999999998 C 26.79 21.54, 26.849999999999998 21.285, 27.599999999999998 21.66 C 28.29 22.29, 28.425 22.38, 28.98 22.919999999999998 C 29.4 23.369999999999997, 29.445 23.25, 29.82 23.82 C 30.15 24.51, 30.3 24.735000000000003, 30.48 25.200000000000003 C 30.509999999999998 25.44, 30.525 25.560000000000002, 30.54 25.68 C 30.54 25.68, 30.54 25.68, 30.54 25.68 L 30.54 25.68" fill="none" stroke="black" stroke-width="2"></path><path d="M 18.96 22.68 C 18.96 24.03, 18.990000000000002 24, 18.96 25.380000000000003 C 18.9 26.790000000000003, 19.11 26.325000000000003, 18.84 28.200000000000003 C 18.36 30.540000000000003, 18.494999999999997 30.855000000000004, 17.88 32.88 C 17.13 34.59, 17.22 34.739999999999995, 16.38 36.3 C 15.45 37.709999999999994, 15.48 37.964999999999996, 14.52 39.12 C 13.53 40.019999999999996, 13.544999999999998 40.050000000000004, 12.54 40.92 C 11.52 41.76, 11.1 42.089999999999996, 10.5 42.599999999999994 C 10.32 42.78, 10.395 42.75, 10.14 42.96 C 9.81 43.2, 9.645 43.32, 9.48 43.44 L 9.48 43.44" fill="none" stroke="black" stroke-width="2"></path><path d="M 24.72 31.86 C 23.73 34.05, 23.55 34.410000000000004, 22.740000000000002 36.24 C 22.11 37.71, 22.14 37.8, 21.48 39.18 C 20.79 40.47, 21.015 40.695, 20.1 41.76 C 18.96 42.599999999999994, 18.855 42.72, 17.82 43.44 C 16.89 44.04, 16.470000000000002 44.295, 15.96 44.64 L 15.78 44.82" fill="none" stroke="black" stroke-width="2"></path></svg>