<svg width="48" height="48" viewBox="0 0 48 48" xmlns="http://www.w3.org/2000/svg"><path d="M 7.74 10.98 C 8.7 11.31, 8.01 11.370000000000001, 9.66 11.64 C 12 11.85, 12.675 12.014999999999999, 14.34 12.059999999999999 C 15.33 11.94, 15.525 12.195, 16.32 11.82 C 16.92 11.190000000000001, 17.1 11.34, 17.52 10.56 C 17.759999999999998 9.629999999999999, 17.985 9.66, 18 8.7 C 17.79 7.71, 17.970000000000002 7.545, 17.580000000000002 6.720000000000001 C 17.01 6.0600000000000005, 17.19 5.925000000000001, 16.44 5.4 C 15.510000000000002 5.01, 15.615000000000002 4.905, 14.580000000000002 4.62 C 13.440000000000001 4.4399999999999995, 13.41 4.199999999999999, 12.299999999999999 4.26 C 11.219999999999999 4.5600000000000005, 11.145 4.095000000000001, 10.14 4.86 C 9.21 6.09, 8.895 6.300000000000001, 8.28 7.32 C 7.9799999999999995 8.129999999999999, 7.83 7.755, 7.68 8.94 C 7.68 10.5, 7.635 10.049999999999999, 7.68 12.059999999999999 C 7.77 14.52, 7.695 14.79, 7.86 16.98 C 8.1 18.9, 8.13 19.185000000000002, 8.34 20.82 C 8.52 22.17, 8.565 22.725, 8.7 23.52 C 8.79 23.759999999999998, 8.834999999999999 23.88, 8.879999999999999 24 L 8.879999999999999 24" fill="none" stroke="black" stroke-width="2"></path><path d="M 8.28 17.16 C 8.61 16.8, 8.28 16.665000000000003, 8.94 16.44 C 9.93 16.35, 9.96 16.064999999999998, 10.92 16.259999999999998 C 11.85 16.74, 11.94 16.38, 12.78 17.22 C 13.53 18.42, 13.844999999999999 18.6, 14.28 19.62 C 14.399999999999999 20.46, 14.415 20.564999999999998, 14.52 21.299999999999997 C 14.61 21.93, 14.655000000000001 22.244999999999997, 14.700000000000001 22.56 C 14.700000000000001 22.56, 14.700000000000001 22.56, 14.700000000000001 22.56 C 14.700000000000001 22.56, 14.700000000000001 22.56, 14.700000000000001 22.56 C 14.700000000000001 22.56, 14.700000000000001 22.56, 14.700000000000001 22.56 C 14.700000000000001 22.56, 14.670000000000002 23.115, 14.700000000000001 22.56 C 14.760000000000002 21.45, 14.685 21.285, 14.82 20.34 C 15.030000000000001 19.560000000000002, 14.76 19.650000000000002, 15.24 18.78 C 15.990000000000002 17.82, 15.900000000000002 17.655, 16.740000000000002 16.86 C 17.67 16.23, 17.64 16.020000000000003, 18.6 15.600000000000001 C 19.590000000000003 15.39, 19.590000000000003 15.285, 20.580000000000002 15.18 C 21.57 15.18, 21.555 15.18, 22.56 15.18 C 23.58 15.18, 23.865 15.18, 24.599999999999998 15.18 C 25.049999999999997 15.18, 24.884999999999998 14.775, 25.5 15.18 C 26.28 15.989999999999998, 26.4 15.824999999999996, 27.06 16.799999999999997 C 27.6 17.939999999999998, 27.735 17.94, 28.14 19.080000000000002 C 28.41 20.22, 28.545 20.46, 28.68 21.36 C 28.68 22.02, 28.68 22.305, 28.68 22.68 C 28.68 22.77, 28.68 22.77, 28.68 22.86 L 28.68 23.04" fill="none" stroke="black" stroke-width="2"></path><path d="M 20.94 14.879999999999999 C 20.94 16.439999999999998, 21.03 16.185, 20.94 18 C 20.76 20.07, 20.895000000000003 19.605, 20.580000000000002 22.14 C 20.130000000000003 25.14, 20.43 25.020000000000003, 19.68 28.14 C 18.630000000000003 31.38, 18.645000000000003 32.025, 17.580000000000002 34.62 C 16.5 36.56999999999999, 16.395 37.095, 15.419999999999998 38.519999999999996 C 14.549999999999999 39.42, 14.61 39.465, 13.68 40.32 C 12.69 41.129999999999995, 12.54 41.25, 11.7 41.94 C 11.01 42.51, 10.71 42.78, 10.32 43.08 L 10.14 43.14" fill="none" stroke="black" stroke-width="2"></path><path d="M 25.08 31.02 C 24.419999999999998 32.91, 24.54 32.625, 23.759999999999998 34.8 C 22.86 37.26, 22.665 38.025, 21.96 39.72 C 21.450000000000003 40.65, 21.555 40.589999999999996, 20.94 41.58 C 20.22 42.629999999999995, 20.130000000000003 42.84, 19.5 43.68 L 18.419999999999998 44.94" fill="none" stroke="black" stroke-width="2"></path></svg>