<svg width="48" height="48" viewBox="0 0 48 48" xmlns="http://www.w3.org/2000/svg"><path d="M 13.98 15.600000000000001 C 15.24 15.690000000000001, 15.195 15.735, 16.5 15.78 C 17.85 15.78, 18.225 15.93, 19.200000000000003 15.78 C 19.8 15.48, 19.77 15.675, 20.4 15.18 C 21.06 14.489999999999998, 21.209999999999997 14.79, 21.72 13.799999999999999 C 22.08 12.51, 22.32 12.465, 22.44 11.22 C 22.32 10.02, 22.365000000000002 9.870000000000001, 22.200000000000003 8.82 C 21.990000000000002 7.92, 22.125 7.859999999999999, 21.78 7.02 C 21.3 6.24, 21.345 6, 20.82 5.46 C 20.25 5.16, 20.415 4.92, 19.68 4.86 C 18.78 5.04, 18.674999999999997 4.83, 17.88 5.22 C 17.189999999999998 5.82, 17.28 5.625, 16.5 6.42 C 15.629999999999999 7.409999999999999, 15.495000000000001 7.304999999999998, 14.76 8.399999999999999 C 14.16 9.6, 14.28 9.27, 13.559999999999999 10.8 C 12.719999999999999 12.66, 12.494999999999997 13.02, 11.879999999999999 14.52 C 11.49 15.659999999999998, 11.490000000000002 15.374999999999996, 11.100000000000001 16.799999999999997 C 10.71 18.509999999999998, 10.605 18.644999999999996, 10.32 20.22 C 10.14 21.66, 10.094999999999999 21.900000000000002, 9.959999999999999 23.1 C 9.87 24.060000000000002, 9.735 24.225, 9.78 25.02 C 9.96 25.65, 9.84 25.755000000000003, 10.14 26.28 C 10.56 26.7, 10.485 26.699999999999996, 10.98 27.119999999999997 C 11.55 27.54, 11.625 27.689999999999998, 12.120000000000001 27.96 C 12.540000000000001 28.080000000000002, 12.495000000000001 28.14, 12.96 28.200000000000003 C 13.47 28.200000000000003, 13.38 28.410000000000004, 13.98 28.200000000000003 C 14.67 27.78, 14.625 27.945, 15.36 27.36 C 16.14 26.61, 16.11 26.85, 16.919999999999998 25.86 C 17.759999999999998 24.63, 18 24.36, 18.6 23.4 C 18.96 22.71, 19.080000000000002 22.515, 19.32 22.02 C 19.439999999999998 21.72, 19.5 21.57, 19.56 21.419999999999998 C 19.56 21.419999999999998, 19.529999999999998 21.314999999999998, 19.56 21.419999999999998 C 19.619999999999997 21.63, 19.65 21.285, 19.68 21.84 C 19.68 22.740000000000002, 19.59 22.875, 19.68 23.64 C 19.86 24.270000000000003, 19.665 24.300000000000004, 20.04 24.900000000000002 C 20.61 25.47, 20.13 25.349999999999998, 21.18 26.04 C 22.71 26.85, 22.770000000000003 27.210000000000004, 24.240000000000002 27.660000000000004 C 25.65 27.75, 25.83 27.869999999999997, 27.06 27.839999999999996 C 28.11 27.689999999999998, 28.575000000000003 27.63, 29.160000000000004 27.54 L 29.400000000000002 27.48" fill="none" stroke="black" stroke-width="2"></path><path d="M 23.64 27.36 C 23.52 27.93, 23.64 27.465, 23.4 28.5 C 23.04 30, 23.175 30.09, 22.68 31.5 C 22.049999999999997 32.82, 22.034999999999997 32.955, 21.419999999999998 34.14 C 20.82 35.19, 20.955 35.160000000000004, 20.22 36.24 C 19.35 37.35, 19.275 37.56, 18.48 38.46 C 17.759999999999998 39.15, 17.924999999999997 39.269999999999996, 17.04 39.839999999999996 C 15.99 40.29, 15.975000000000001 40.41, 14.940000000000001 40.74 C 13.92 40.95, 13.77 40.995000000000005, 12.899999999999999 41.160000000000004 C 12.18 41.28, 11.819999999999999 41.34, 11.459999999999999 41.400000000000006 L 11.459999999999999 41.400000000000006" fill="none" stroke="black" stroke-width="2"></path></svg>