<svg width="48" height="48" viewBox="0 0 48 48" xmlns="http://www.w3.org/2000/svg"><path d="M 16.02 43.38 C 15.99 42.540000000000006, 16.125 43.230000000000004, 15.96 41.7 C 15.66 39.480000000000004, 15.555 38.955, 15.36 37.26 C 15.27 36.09, 15.33 36.6, 15.18 34.92 C 14.969999999999999 32.730000000000004, 14.91 32.28, 14.76 30.54 C 14.670000000000002 29.25, 14.625000000000002 29.07, 14.580000000000002 27.96 C 14.580000000000002 27.03, 14.550000000000002 26.985, 14.580000000000002 26.099999999999998 C 14.64 25.259999999999998, 14.430000000000001 25.380000000000003, 14.700000000000001 24.42 C 15.18 23.34, 15.255 23.009999999999998, 15.66 22.259999999999998 C 15.99 21.839999999999996, 15.945 21.735, 16.32 21.419999999999998 C 16.740000000000002 21.21, 16.605 21.15, 17.16 21 C 17.85 20.91, 17.759999999999998 20.865000000000002, 18.54 20.82 C 19.41 20.82, 19.200000000000003 20.76, 20.28 20.82 C 21.57 20.939999999999998, 21.585 21, 22.86 21.06 C 24.12 21.06, 24.285000000000004 21.06, 25.380000000000003 21.06 C 26.310000000000002 21.06, 26.385000000000005 21.18, 27.240000000000002 21.06 C 28.02 20.82, 27.915 20.94, 28.799999999999997 20.580000000000002 C 29.79 20.1, 29.91 20.235, 30.78 19.62 C 31.53 18.87, 31.830000000000002 18.810000000000002, 32.28 18.12 C 32.43 17.490000000000002, 32.504999999999995 17.565, 32.58 16.86 C 32.58 16.08, 32.64 16.095, 32.58 15.299999999999999 C 32.459999999999994 14.489999999999998, 32.654999999999994 14.34, 32.339999999999996 13.68 C 31.83 13.17, 31.919999999999998 13.125, 31.32 12.66 C 30.630000000000003 12.24, 30.855 12.135000000000002, 29.94 11.82 C 28.800000000000004 11.61, 28.635000000000005 11.549999999999999, 27.660000000000004 11.399999999999999 C 26.85 11.309999999999999, 26.79 11.175, 26.04 11.22 C 25.35 11.4, 25.050000000000004 11.475, 24.660000000000004 11.58 L 24.48 11.64" fill="none" stroke="black" stroke-width="2"></path><path d="M 25.619999999999997 21.419999999999998 C 26.61 22.049999999999997, 26.729999999999997 21.99, 27.599999999999998 22.68 C 28.349999999999998 23.43, 28.499999999999996 23.325, 29.099999999999998 24.18 C 29.549999999999997 25.14, 29.565 24.884999999999998, 30 26.099999999999998 C 30.419999999999998 27.57, 30.509999999999998 27.525, 30.839999999999996 29.04 C 31.08 30.6, 31.125 30.900000000000006, 31.32 32.160000000000004 C 31.47 33.120000000000005, 31.544999999999998 33.21, 31.619999999999997 34.08 C 31.619999999999997 34.86, 31.619999999999997 34.605000000000004, 31.619999999999997 35.64 C 31.619999999999997 36.93, 31.619999999999997 36.989999999999995, 31.619999999999997 38.22 C 31.619999999999997 39.39, 31.619999999999997 39.675000000000004, 31.619999999999997 40.56 C 31.619999999999997 41.16, 31.664999999999996 41.37, 31.619999999999997 41.76 C 31.53 41.94, 31.485 42, 31.44 42.12 C 31.44 42.18, 31.44 42.135000000000005, 31.44 42.24 C 31.44 42.39, 31.44 42.465, 31.44 42.54 C 31.44 42.54, 31.44 42.54, 31.44 42.54 L 31.44 42.54" fill="none" stroke="black" stroke-width="2"></path><path d="M 22.38 30.48 C 22.049999999999997 30.93, 21.884999999999998 30.96, 21.72 31.380000000000003 C 21.72 31.770000000000003, 21.72 31.875000000000007, 21.72 32.160000000000004 C 21.72 32.34, 21.375 32.37, 21.72 32.519999999999996 C 22.41 32.64, 22.47 32.834999999999994, 23.1 32.76 C 23.67 32.489999999999995, 23.805000000000003 32.61, 24.240000000000002 32.22 C 24.54 31.71, 24.689999999999998 31.53, 24.839999999999996 31.200000000000003 C 24.839999999999996 31.050000000000004, 25.229999999999997 31.14, 24.839999999999996 30.900000000000002 C 24.06 30.57, 24.240000000000002 30.405, 23.28 30.240000000000002 C 22.14 30.240000000000002, 21.705 30.195, 21 30.240000000000002 C 20.73 30.330000000000002, 20.625 29.955000000000005, 20.46 30.42 C 20.4 31.259999999999998, 20.19 31.244999999999997, 20.34 32.099999999999994 C 20.7 32.97, 20.61 33.3, 21.06 33.839999999999996 C 21.6 34.05, 21.509999999999998 34.425, 22.14 34.26 C 22.86 33.72, 23.07 34.004999999999995, 23.580000000000002 33.18 C 23.880000000000003 32.07, 24.195 31.83, 24.18 30.96 C 23.85 30.330000000000002, 23.925 30.015, 23.52 29.700000000000003 C 23.04 29.700000000000003, 22.979999999999997 29.505000000000003, 22.56 29.700000000000003 C 22.2 30.090000000000003, 22.064999999999998 29.880000000000003, 21.84 30.48 C 21.75 31.29, 21.615000000000002 31.589999999999996, 21.66 32.099999999999994 C 21.84 32.309999999999995, 21.825 32.41499999999999, 22.02 32.519999999999996 C 22.23 32.519999999999996, 22.17 32.745, 22.44 32.519999999999996 C 22.770000000000003 32.06999999999999, 22.935000000000002 31.889999999999997, 23.1 31.619999999999997 C 23.1 31.53, 23.145000000000003 31.53, 23.1 31.44 C 23.009999999999998 31.35, 23.099999999999998 31.154999999999998, 22.919999999999998 31.259999999999998 C 22.65 31.56, 22.529999999999998 31.515, 22.38 31.86 C 22.35 32.25, 22.245 32.235, 22.32 32.64 L 22.68 33.480000000000004" fill="none" stroke="black" stroke-width="2"></path></svg>