<svg width="48" height="48" viewBox="0 0 48 48" xmlns="http://www.w3.org/2000/svg"><path d="M 15.84 1.8599999999999999 C 15.96 2.6399999999999997, 15.975000000000001 2.28, 16.080000000000002 3.42 C 16.17 4.92, 16.169999999999998 4.8149999999999995, 16.259999999999998 6.42 C 16.35 8.129999999999999, 16.32 8.025, 16.44 9.84 C 16.590000000000003 11.76, 16.560000000000002 11.76, 16.740000000000002 13.68 C 16.950000000000003 15.6, 16.935000000000002 15.99, 17.16 17.52 C 17.4 18.659999999999997, 17.43 18.689999999999998, 17.64 19.799999999999997 C 17.82 20.88, 17.91 20.94, 18 21.96 C 18 22.92, 17.97 22.98, 18 23.88 C 18.060000000000002 24.72, 18 24.735, 18.12 25.56 C 18.3 26.369999999999997, 18.315 26.535, 18.48 27.18 C 18.630000000000003 27.66, 18.66 27.825, 18.78 28.14 C 18.87 28.29, 18.66 28.17, 18.96 28.44 C 19.47 28.83, 19.485 28.904999999999998, 19.98 29.22 C 20.46 29.46, 20.385 29.490000000000002, 20.94 29.700000000000003 C 21.57 29.880000000000003, 21.405000000000005 29.97, 22.200000000000003 30.06 C 23.16 30.06, 23.235 30.06, 24.119999999999997 30.06 C 24.93 30.06, 24.735 30.075, 25.740000000000002 30.06 C 26.94 30.03, 26.94 30.06, 28.14 30 C 29.34 29.91, 29.46 29.955, 30.54 29.82 C 31.5 29.64, 31.740000000000002 29.67, 32.46 29.46 C 32.94 29.22, 32.865 29.355, 33.42 28.98 C 34.05 28.47, 34.185 28.545, 34.68 27.96 C 35.040000000000006 27.3, 35.07000000000001 27.285, 35.400000000000006 26.64 C 35.7 26.01, 35.85 25.935000000000002, 36 25.380000000000003 C 36 24.900000000000002, 36 25.020000000000003, 36 24.42 C 36 23.700000000000003, 36.045 23.625, 36 22.98 C 35.91 22.41, 36.03 22.365000000000002, 35.82 21.84 C 35.49 21.36, 35.625 21.314999999999998, 35.160000000000004 20.88 C 34.56 20.490000000000002, 34.605000000000004 20.37, 33.96 20.1 C 33.269999999999996 19.95, 33.435 19.919999999999998, 32.58 19.799999999999997 C 31.56 19.71, 31.32 19.665, 30.54 19.62 C 30 19.62, 30.015 19.455000000000002, 29.46 19.62 C 28.89 19.950000000000003, 28.65 20.07, 28.32 20.28 C 28.23 20.37, 28.23 20.37, 28.14 20.46 C 28.05 20.55, 28.005000000000003 20.595, 27.96 20.64 L 27.96 20.64" fill="none" stroke="black" stroke-width="2"></path><path d="M 19.02 35.519999999999996 C 19.05 35.64, 18.915000000000003 35.655, 19.080000000000002 35.76 C 19.380000000000003 35.849999999999994, 19.14 35.894999999999996, 19.68 35.94 C 20.46 35.94, 20.340000000000003 35.94, 21.240000000000002 35.94 C 22.26 35.94, 22.035000000000004 35.94, 23.28 35.94 C 24.75 35.94, 24.78 35.955, 26.22 35.94 C 27.63 35.91, 27.9 35.895, 29.04 35.88 C 29.91 35.88, 29.76 35.88, 30.78 35.88 C 31.95 35.88, 32.19 35.895, 33.12 35.88 C 33.81 35.85, 34.035 35.85, 34.5 35.82 C 34.74 35.79, 34.86 35.775, 34.980000000000004 35.76 C 34.980000000000004 35.76, 34.980000000000004 35.76, 34.980000000000004 35.76 L 34.980000000000004 35.76" fill="none" stroke="black" stroke-width="2"></path><path d="M 17.88 42.06 C 18.36 42.06, 18.09 42.06, 18.84 42.06 C 19.86 42.06, 19.935 42.06, 20.88 42.06 C 21.75 42.06, 21.39 42.150000000000006, 22.62 42.06 C 24.21 41.88, 24.359999999999996 41.83500000000001, 25.799999999999997 41.7 C 27.09 41.61, 27.120000000000005 41.654999999999994, 28.380000000000003 41.519999999999996 C 29.61 41.34, 29.819999999999997 41.25, 30.839999999999996 41.160000000000004 C 31.65 41.160000000000004, 31.59 41.205000000000005, 32.46 41.160000000000004 C 33.39 41.07000000000001, 33.644999999999996 41.025000000000006, 34.32 40.980000000000004 C 34.74 40.980000000000004, 34.95 40.980000000000004, 35.160000000000004 40.980000000000004 L 35.160000000000004 40.980000000000004" fill="none" stroke="black" stroke-width="2"></path></svg>