<svg width="48" height="48" viewBox="0 0 48 48" xmlns="http://www.w3.org/2000/svg"><path d="M 11.399999999999999 27.839999999999996 C 10.379999999999999 24.54, 10.035 23.94, 9.36 21.240000000000002 C 9.03 19.14, 8.969999999999999 19.259999999999998, 8.7 17.04 C 8.489999999999998 14.7, 8.43 14.174999999999999, 8.28 12.36 C 8.190000000000001 11.07, 8.055000000000001 10.889999999999999, 8.100000000000001 9.78 C 8.280000000000001 8.85, 8.204999999999998 8.64, 8.459999999999999 7.92 C 8.79 7.41, 8.595 7.379999999999999, 9.120000000000001 6.8999999999999995 C 9.84 6.449999999999999, 9.84 6.225, 10.56 6 C 11.280000000000001 6, 11.175 5.715, 12 6 C 12.93 6.57, 13.11 6.54, 13.86 7.14 C 14.43 7.77, 14.43 7.439999999999999, 15 8.399999999999999 C 15.57 9.69, 15.72 9.36, 16.14 10.98 C 16.41 12.93, 16.485 13.169999999999998, 16.68 14.879999999999999 C 16.799999999999997 16.35, 16.86 16.935000000000002, 16.919999999999998 17.82 C 16.919999999999998 18.119999999999997, 16.919999999999998 18.119999999999997, 16.919999999999998 18.419999999999998 C 16.919999999999998 18.72, 16.919999999999998 18.869999999999997, 16.919999999999998 19.02 C 16.919999999999998 19.02, 16.919999999999998 19.02, 16.919999999999998 19.02 C 16.919999999999998 19.02, 16.904999999999998 18.974999999999998, 16.919999999999998 19.02 C 16.95 19.11, 16.905 19.140000000000004, 16.98 19.200000000000003 C 17.1 19.23, 16.575 19.244999999999997, 17.22 19.259999999999998 C 18.39 19.259999999999998, 18.645 19.259999999999998, 19.56 19.259999999999998 C 20.22 19.259999999999998, 20.055 19.349999999999998, 20.88 19.259999999999998 C 21.869999999999997 19.08, 21.974999999999998 19.169999999999998, 22.86 18.9 C 23.64 18.54, 23.655 18.675, 24.42 18.18 C 25.17 17.549999999999997, 25.380000000000003 17.49, 25.92 16.919999999999998 C 26.25 16.409999999999997, 26.25 16.575, 26.58 15.899999999999999 C 26.91 15.059999999999999, 27.075000000000003 15.030000000000001, 27.240000000000002 14.22 C 27.240000000000002 13.440000000000001, 27.255000000000003 13.44, 27.240000000000002 12.66 C 27.21 11.88, 27.3 11.685000000000002, 27.18 11.100000000000001 C 26.97 10.71, 27.165 10.725000000000001, 26.759999999999998 10.32 C 26.159999999999997 9.9, 26.354999999999997 9.765, 25.56 9.48 C 24.57 9.33, 24.345000000000002 9.225, 23.580000000000002 9.18 C 23.04 9.24, 22.89 9.21, 22.5 9.3 C 22.259999999999998 9.420000000000002, 22.14 9.48, 22.02 9.540000000000001 C 22.02 9.540000000000001, 22.125 9.405000000000001, 22.02 9.540000000000001 C 21.810000000000002 9.81, 21.705000000000002 9.945, 21.6 10.08 L 21.6 10.08" fill="none" stroke="black" stroke-width="2"></path><path d="M 23.759999999999998 18.54 C 24.48 18.9, 24.555000000000003 18.794999999999998, 25.200000000000003 19.259999999999998 C 25.77 19.83, 25.904999999999998 19.86, 26.339999999999996 20.4 C 26.64 20.909999999999997, 26.715 20.82, 26.94 21.419999999999998 C 27.090000000000003 22.11, 27.165000000000003 22.064999999999998, 27.240000000000002 22.799999999999997 C 27.240000000000002 23.58, 27.240000000000002 23.729999999999997, 27.240000000000002 24.36 C 27.240000000000002 24.84, 27.240000000000002 25.05, 27.240000000000002 25.32 C 27.240000000000002 25.380000000000003, 27.240000000000002 25.41, 27.240000000000002 25.44 L 27.240000000000002 25.44" fill="none" stroke="black" stroke-width="2"></path><path d="M 17.46 18.6 C 17.520000000000003 18.87, 17.46 18.375, 17.580000000000002 19.14 C 17.76 20.4, 17.805 20.265, 17.94 21.66 C 18.03 23.189999999999998, 18.045 23.505, 18.12 24.72 C 18.18 25.619999999999997, 18.195000000000004 25.32, 18.240000000000002 26.52 C 18.27 28.02, 18.584999999999997 27.93, 18.299999999999997 29.52 C 17.7 31.200000000000003, 17.895 31.26, 17.1 32.88 C 16.11 34.44, 16.095000000000002 34.695, 15.120000000000001 36 C 14.16 37.05, 13.98 37.27499999999999, 13.200000000000001 38.099999999999994 C 12.600000000000001 38.699999999999996, 12.3 39, 12 39.3 L 12 39.3" fill="none" stroke="black" stroke-width="2"></path><path d="M 24.54 31.08 C 24.33 32.31, 24.345 32.25, 24.119999999999997 33.54 C 23.88 34.89, 23.955 34.845, 23.64 36.24 C 23.25 37.68, 23.369999999999997 37.905, 22.86 39.12 C 22.23 40.11, 22.455000000000002 40.07999999999999, 21.6 41.099999999999994 C 20.520000000000003 42.15, 20.580000000000002 42.39, 19.44 43.2 C 18.240000000000002 43.769999999999996, 17.685 44.025, 17.04 44.339999999999996 L 16.86 44.46" fill="none" stroke="black" stroke-width="2"></path></svg>