<svg width="48" height="48" viewBox="0 0 48 48" xmlns="http://www.w3.org/2000/svg"><path d="M 16.740000000000002 2.34 C 16.380000000000003 2.9099999999999997, 16.5 2.5049999999999994, 16.02 3.4799999999999995 C 15.42 4.859999999999999, 15.345 4.86, 14.82 6.24 C 14.37 7.62, 14.369999999999997 7.470000000000001, 13.919999999999998 9 C 13.469999999999999 10.68, 13.349999999999998 10.709999999999999, 13.02 12.36 C 12.81 13.98, 12.885000000000002 13.755, 12.600000000000001 15.600000000000001 C 12.24 17.67, 12.135 17.940000000000005, 11.879999999999999 19.740000000000002 C 11.73 21.27, 11.61 21.299999999999997, 11.58 22.799999999999997 C 11.67 24.27, 11.61 24.69, 11.76 25.740000000000002 C 11.969999999999999 26.37, 11.834999999999999 26.535, 12.18 27 C 12.66 27.299999999999997, 12.585 27.374999999999996, 13.14 27.599999999999998 C 13.77 27.75, 13.814999999999998 27.825000000000003, 14.399999999999999 27.900000000000002 C 14.94 27.900000000000002, 14.969999999999999 27.945000000000004, 15.48 27.900000000000002 C 15.96 27.810000000000002, 16.035 27.93, 16.44 27.72 C 16.770000000000003 27.39, 16.560000000000002 27.659999999999997, 17.1 27.06 C 17.85 26.189999999999998, 17.925000000000004 26.37, 18.6 25.32 C 19.2 24.09, 19.244999999999997 24.15, 19.799999999999997 22.86 C 20.31 21.509999999999998, 20.445 21.39, 20.82 20.16 C 21.06 19.05, 21.18 18.495, 21.299999999999997 17.94 C 21.299999999999997 17.94, 21.299999999999997 17.895000000000003, 21.299999999999997 17.94 C 21.299999999999997 18.03, 21.464999999999996 17.580000000000002, 21.299999999999997 18.12 C 20.97 19.11, 20.85 19.26, 20.64 20.1 C 20.55 20.79, 20.505000000000003 20.700000000000003, 20.46 21.48 C 20.46 22.35, 20.37 22.335, 20.46 23.22 C 20.64 24.119999999999997, 20.355 24.045, 20.82 25.02 C 21.57 26.07, 21.39 26.205, 22.32 27.119999999999997 C 23.43 27.9, 23.61 28.244999999999997, 24.54 28.68 C 25.29 28.77, 25.185 28.77, 26.04 28.86 C 27 28.95, 27.240000000000002 29.085, 27.96 29.04 C 28.44 28.86, 28.455000000000002 28.98, 28.92 28.68 C 29.37 28.259999999999998, 29.46 28.259999999999998, 29.82 27.839999999999996 C 30.09 27.419999999999998, 30.165 27.375, 30.36 27 C 30.479999999999997 26.669999999999998, 30.525 26.775, 30.599999999999998 26.339999999999996 C 30.630000000000003 25.799999999999997, 30.735000000000003 26.084999999999997, 30.660000000000004 25.259999999999998 C 30.48 24.15, 30.555 23.955, 30.299999999999997 23.04 C 29.97 22.32, 29.895 22.125, 29.64 21.6 C 29.46 21.270000000000003, 29.625 21.330000000000002, 29.28 20.94 C 28.77 20.490000000000002, 28.904999999999998 20.384999999999998, 28.259999999999998 20.04 C 27.48 19.799999999999997, 27.285000000000004 19.68, 26.700000000000003 19.56 C 26.310000000000002 19.56, 26.235000000000003 19.56, 25.92 19.56 C 25.68 19.56, 25.560000000000002 19.56, 25.44 19.56 C 25.44 19.56, 25.44 19.56, 25.44 19.56 L 25.44 19.56" fill="none" stroke="black" stroke-width="2"></path><path d="M 20.04 23.52 C 20.13 23.82, 20.174999999999997 23.685, 20.22 24.119999999999997 C 20.22 24.689999999999998, 20.325 24.179999999999996, 20.22 25.259999999999998 C 20.009999999999998 26.85, 20.054999999999996 26.34, 19.799999999999997 28.44 C 19.5 31.050000000000004, 19.35 31.335000000000004, 19.200000000000003 33.660000000000004 C 19.200000000000003 35.7, 19.200000000000003 36, 19.200000000000003 37.74 C 19.200000000000003 39.18, 19.200000000000003 39.405, 19.200000000000003 40.62 C 19.200000000000003 41.61, 19.200000000000003 41.834999999999994, 19.200000000000003 42.599999999999994 C 19.200000000000003 43.14, 19.200000000000003 43.379999999999995, 19.200000000000003 43.68 C 19.200000000000003 43.739999999999995, 19.200000000000003 43.724999999999994, 19.200000000000003 43.8 C 19.200000000000003 43.89, 19.230000000000004 43.68000000000001, 19.200000000000003 43.980000000000004 C 19.14 44.49, 19.125000000000004 44.55, 19.080000000000002 45 C 19.05 45.39, 19.035 45.585, 19.02 45.78 L 19.02 45.78" fill="none" stroke="black" stroke-width="2"></path></svg>