<svg width="48" height="48" viewBox="0 0 48 48" xmlns="http://www.w3.org/2000/svg"><path d="M 11.879999999999999 17.16 C 12.12 17.130000000000003, 11.684999999999999 17.01, 12.36 17.1 C 13.47 17.310000000000002, 13.275000000000002 17.369999999999997, 14.580000000000002 17.52 C 16.080000000000002 17.61, 16.095000000000002 17.655, 17.580000000000002 17.700000000000003 C 19.05 17.700000000000003, 19.38 17.67, 20.52 17.700000000000003 C 21.33 17.76, 21.21 17.775000000000002, 22.14 17.82 C 23.19 17.85, 23.370000000000005 17.865, 24.240000000000002 17.88 C 24.93 17.88, 24.959999999999997 17.924999999999997, 25.619999999999997 17.88 C 26.25 17.79, 26.295 17.820000000000004, 26.880000000000003 17.700000000000003 C 27.42 17.55, 27.435000000000002 17.655, 27.96 17.4 C 28.47 17.04, 28.515 17.07, 28.98 16.68 C 29.4 16.259999999999998, 29.46 16.365, 29.82 15.84 C 30.12 15.21, 30.195 15.285000000000002, 30.42 14.580000000000002 C 30.57 13.8, 30.645 13.635, 30.72 13.02 C 30.72 12.57, 30.72 12.645000000000001, 30.72 12.120000000000001 C 30.72 11.52, 30.81 11.415, 30.72 10.92 C 30.54 10.530000000000001, 30.66 10.5, 30.36 10.14 C 29.939999999999998 9.81, 29.895 9.72, 29.52 9.48 C 29.189999999999998 9.33, 29.294999999999998 9.315, 28.86 9.18 C 28.32 9.059999999999999, 28.365000000000002 9.045, 27.78 8.94 C 27.15 8.85, 27.18 8.775, 26.52 8.76 C 25.83 8.82, 25.62 8.79, 25.14 8.879999999999999 C 24.869999999999997 9, 24.735 9.06, 24.599999999999998 9.120000000000001 L 24.599999999999998 9.120000000000001" fill="none" stroke="black" stroke-width="2"></path><path d="M 24.900000000000002 17.88 C 25.14 17.88, 25.050000000000004 17.79, 25.380000000000003 17.88 C 25.8 18.060000000000002, 25.845 18.03, 26.22 18.240000000000002 C 26.55 18.48, 26.580000000000002 18.435, 26.880000000000003 18.72 C 27.150000000000002 19.049999999999997, 27.165000000000003 19.005, 27.42 19.38 C 27.660000000000004 19.799999999999997, 27.705000000000002 19.77, 27.900000000000002 20.22 C 28.050000000000004 20.7, 28.125000000000004 20.625, 28.200000000000003 21.18 C 28.200000000000003 21.810000000000002, 28.200000000000003 21.825000000000003, 28.200000000000003 22.44 C 28.200000000000003 23.04, 28.200000000000003 23.07, 28.200000000000003 23.64 C 28.200000000000003 24.18, 28.320000000000004 24.195, 28.200000000000003 24.72 C 27.96 25.23, 28.005 25.200000000000003, 27.72 25.740000000000002 C 27.39 26.310000000000002, 27.314999999999998 26.475, 27.06 26.880000000000003 C 26.880000000000003 27.12, 26.790000000000003 27.240000000000002, 26.700000000000003 27.36 C 26.700000000000003 27.36, 26.700000000000003 27.36, 26.700000000000003 27.36 L 26.700000000000003 27.36" fill="none" stroke="black" stroke-width="2"></path><path d="M 19.38 17.88 C 19.560000000000002 18.509999999999998, 19.575000000000003 18.36, 19.740000000000002 19.14 C 19.89 20.07, 19.965 19.86, 20.04 21 C 20.04 22.35, 19.994999999999997 22.605000000000004, 20.04 23.700000000000003 C 20.13 24.540000000000003, 20.174999999999997 24.495000000000005, 20.22 25.380000000000003 C 20.22 26.310000000000002, 20.279999999999998 26.250000000000004, 20.22 27.240000000000002 C 20.1 28.29, 20.13 28.439999999999998, 19.98 29.339999999999996 C 19.8 30.089999999999996, 19.785 30.044999999999995, 19.62 30.839999999999996 C 19.47 31.679999999999996, 19.575 31.484999999999992, 19.32 32.519999999999996 C 18.96 33.75, 19.005000000000003 33.81, 18.6 34.980000000000004 C 18.150000000000002 36.09, 18.075000000000003 36.27, 17.700000000000003 37.2 C 17.400000000000002 37.95, 17.415000000000003 37.995000000000005, 17.1 38.7 C 16.770000000000003 39.36, 16.845000000000002 39.36, 16.44 40.019999999999996 C 15.96 40.67999999999999, 15.885000000000002 40.8, 15.48 41.339999999999996 C 15.15 41.76, 15.345 41.595, 14.82 42.18 C 14.1 42.93, 13.875 43.185, 13.379999999999999 43.68 C 13.11 43.92, 12.975 44.040000000000006, 12.84 44.160000000000004 C 12.84 44.160000000000004, 12.84 44.160000000000004, 12.84 44.160000000000004 C 12.84 44.160000000000004, 12.84 44.160000000000004, 12.84 44.160000000000004 L 12.84 44.160000000000004" fill="none" stroke="black" stroke-width="2"></path><path d="M 15.96 38.400000000000006 C 16.32 38.400000000000006, 15.99 38.355000000000004, 16.68 38.400000000000006 C 17.7 38.49, 17.82 38.49, 18.72 38.58 C 19.5 38.67, 19.200000000000003 38.714999999999996, 20.28 38.76 C 21.66 38.76, 21.795 38.76, 23.04 38.76 C 24.15 38.76, 24.299999999999997 38.76, 25.259999999999998 38.76 C 26.07 38.76, 26.325000000000003 38.76, 26.880000000000003 38.76 C 27.18 38.76, 27.330000000000002 38.76, 27.48 38.76 L 27.48 38.76" fill="none" stroke="black" stroke-width="2"></path></svg>