<svg width="48" height="48" viewBox="0 0 48 48" xmlns="http://www.w3.org/2000/svg"><path d="M 19.32 43.5 C 18.81 43.5, 18.959999999999997 43.5, 18.299999999999997 43.5 C 17.49 43.5, 17.4 43.5, 16.68 43.5 C 16.049999999999997 43.5, 15.929999999999998 43.5, 15.419999999999998 43.5 C 15.03 43.5, 14.985 43.5, 14.64 43.5 C 14.34 43.5, 14.385 43.5, 14.04 43.5 C 13.649999999999999 43.5, 13.649999999999999 43.5, 13.26 43.5 C 12.870000000000001 43.5, 12.795 43.5, 12.48 43.5 C 12.24 43.5, 12.195 43.53, 12 43.5 C 11.85 43.44, 11.864999999999998 43.455, 11.7 43.38 C 11.52 43.290000000000006, 11.489999999999998 43.485, 11.34 43.2 C 11.22 42.72, 11.205000000000002 42.855000000000004, 11.100000000000001 42.24 C 11.010000000000002 41.49, 10.98 41.52, 10.92 40.74 C 10.89 39.93, 10.889999999999999 39.885, 10.86 39.12 C 10.83 38.4, 10.86 38.67, 10.8 37.68 C 10.71 36.42, 10.665000000000001 36.315000000000005, 10.620000000000001 35.160000000000004 C 10.620000000000001 34.11, 10.620000000000001 34.02, 10.620000000000001 33.06 C 10.620000000000001 32.19, 10.620000000000001 32.16, 10.620000000000001 31.32 C 10.620000000000001 30.51, 10.620000000000001 30.660000000000004, 10.620000000000001 29.700000000000003 C 10.620000000000001 28.590000000000003, 10.605 28.455000000000002, 10.620000000000001 27.48 C 10.65 26.64, 10.59 26.624999999999996, 10.68 25.799999999999997 C 10.83 24.99, 10.845 24.915, 10.98 24.18 C 11.100000000000001 23.52, 11.055 23.475, 11.22 22.86 C 11.43 22.29, 11.415000000000001 22.215, 11.64 21.72 C 11.88 21.299999999999997, 11.745000000000001 21.33, 12.120000000000001 20.88 C 12.63 20.4, 12.765 20.25, 13.14 19.919999999999998 C 13.38 19.74, 13.335 19.709999999999997, 13.620000000000001 19.56 C 13.95 19.439999999999998, 13.92 19.425, 14.28 19.32 C 14.669999999999998 19.23, 14.565 19.185000000000002, 15.059999999999999 19.14 C 15.659999999999998 19.14, 15.704999999999998 19.14, 16.259999999999998 19.14 C 16.77 19.14, 16.65 19.14, 17.28 19.14 C 18.03 19.14, 17.970000000000002 19.14, 18.78 19.14 C 19.65 19.14, 19.695 19.14, 20.52 19.14 C 21.3 19.14, 21.345000000000002 19.23, 22.080000000000002 19.14 C 22.770000000000003 18.96, 22.665000000000003 19.095000000000002, 23.46 18.78 C 24.36 18.33, 24.509999999999998 18.39, 25.259999999999998 17.88 C 25.86 17.310000000000002, 25.965 17.355000000000004, 26.46 16.740000000000002 C 26.85 16.08, 26.94 16.035, 27.240000000000002 15.419999999999998 C 27.450000000000003 14.849999999999998, 27.555000000000003 14.94, 27.660000000000004 14.28 C 27.660000000000004 13.53, 27.735000000000007 13.725, 27.660000000000004 12.78 C 27.51 11.64, 27.705 11.58, 27.36 10.5 C 26.82 9.48, 26.73 9.239999999999998, 26.28 8.459999999999999 C 25.92 7.92, 25.994999999999997 7.935, 25.56 7.38 C 25.049999999999997 6.8100000000000005, 25.11 6.720000000000001, 24.54 6.24 C 23.91 5.85, 23.835 5.7, 23.28 5.46 C 22.8 5.37, 22.755000000000003 5.325, 22.32 5.28 C 21.93 5.28, 22.064999999999998 5.220000000000001, 21.54 5.28 C 20.88 5.4, 20.849999999999998 5.340000000000001, 20.22 5.5200000000000005 C 19.619999999999997 5.76, 19.485 5.805, 19.02 6 C 18.689999999999998 6.15, 18.525 6.2250000000000005, 18.36 6.300000000000001 C 18.36 6.300000000000001, 18.36 6.300000000000001, 18.36 6.300000000000001 L 18.36 6.300000000000001" fill="none" stroke="black" stroke-width="2"></path></svg>