<svg width="48" height="48" viewBox="0 0 48 48" xmlns="http://www.w3.org/2000/svg"><path d="M 12.66 30.06 C 12.66 30.06, 12.765 30.255, 12.66 30.06 C 12.45 29.67, 12.675 30.645000000000003, 12.24 29.28 C 11.58 26.939999999999998, 11.505 27.209999999999997, 10.92 24.599999999999998 C 10.41 21.72, 10.2 20.955, 9.899999999999999 18.84 C 9.809999999999999 17.490000000000002, 9.705 17.385, 9.72 16.14 C 9.84 15, 9.78 14.684999999999999, 9.959999999999999 13.86 C 10.2 13.35, 10.155 13.305, 10.44 12.84 C 10.77 12.42, 10.770000000000001 12.225, 11.100000000000001 12 C 11.43 11.969999999999999, 11.385 11.925, 11.76 11.94 C 12.18 12, 12.165000000000001 11.834999999999999, 12.600000000000001 12.059999999999999 C 13.05 12.45, 12.945 12.315, 13.5 12.84 C 14.16 13.5, 14.085 12.99, 14.82 14.16 C 15.63 15.84, 15.795000000000002 15.915, 16.44 17.52 C 16.92 19.05, 17.099999999999998 19.545, 17.4 20.580000000000002 C 17.52 21.12, 17.535 21.27, 17.64 21.66 C 17.73 21.9, 17.775 21.975, 17.82 22.14 C 17.82 22.23, 17.82 22.275, 17.82 22.32 C 17.82 22.32, 17.82 22.515, 17.82 22.32 C 17.82 21.93, 17.82 22.049999999999997, 17.82 21.54 C 17.82 20.91, 17.82 21.03, 17.82 20.28 C 17.82 19.41, 17.82 19.455, 17.82 18.54 C 17.82 17.58, 17.775 17.580000000000002, 17.82 16.62 C 17.91 15.66, 17.880000000000003 15.39, 18 14.700000000000001 C 18.15 14.280000000000001, 18.044999999999998 14.295, 18.299999999999997 13.86 C 18.659999999999997 13.41, 18.63 13.335, 19.02 12.96 C 19.439999999999998 12.66, 19.455 12.555, 19.86 12.36 C 20.25 12.27, 20.130000000000003 12, 20.64 12.18 C 21.27 12.63, 21.27 12.705000000000002, 21.9 13.080000000000002 C 22.53 13.38, 22.395 13.38, 23.16 13.68 C 24.060000000000002 13.98, 23.985 14.129999999999999, 24.96 14.28 C 26.009999999999998 14.28, 26.174999999999997 14.415, 27.06 14.28 C 27.78 14.01, 27.93 14.04, 28.5 13.74 C 28.919999999999998 13.41, 28.934999999999995 13.500000000000002, 29.339999999999996 13.080000000000002 C 29.729999999999997 12.57, 29.804999999999996 12.66, 30.119999999999997 12.059999999999999 C 30.36 11.37, 30.479999999999997 11.655, 30.599999999999998 10.68 C 30.599999999999998 9.42, 30.644999999999996 9.045, 30.599999999999998 8.16 C 30.509999999999998 7.65, 30.630000000000003 7.695, 30.42 7.14 C 30.09 6.539999999999999, 30.314999999999998 6.5249999999999995, 29.759999999999998 5.9399999999999995 C 28.98 5.37, 29.175000000000004 5.235000000000001, 28.200000000000003 4.800000000000001 C 27.03 4.5, 26.895 4.424999999999999, 25.86 4.199999999999999 C 24.96 4.05, 25.095 3.915, 24.06 3.9000000000000004 C 22.89 4.02, 22.575 3.945, 21.72 4.14 C 21.18 4.41, 20.97 4.5, 20.64 4.68 L 20.4 4.86" fill="none" stroke="black" stroke-width="2"></path><path d="M 17.22 21 C 17.22 21.66, 17.099999999999998 21.45, 17.22 22.32 C 17.46 23.4, 17.475 23.37, 17.700000000000003 24.48 C 17.910000000000004 25.619999999999997, 17.865000000000002 25.349999999999998, 18.12 26.759999999999998 C 18.42 28.439999999999998, 18.509999999999998 28.11, 18.72 30.119999999999997 C 18.84 32.459999999999994, 18.855 32.985, 18.96 34.8 C 19.05 36.09, 19.065 36.375, 19.14 37.38 C 19.2 38.1, 19.2 38.04, 19.259999999999998 38.82 C 19.32 39.66, 19.29 39.63, 19.38 40.5 C 19.5 41.4, 19.44 41.504999999999995, 19.62 42.3 C 19.86 42.989999999999995, 19.965000000000003 43.185, 20.1 43.68 C 20.130000000000003 43.980000000000004, 20.07 44.010000000000005, 20.16 44.28 C 20.310000000000002 44.519999999999996, 20.385 44.64, 20.46 44.76 C 20.46 44.76, 20.46 44.76, 20.46 44.76 C 20.46 44.76, 20.445 44.745, 20.46 44.76 C 20.490000000000002 44.79, 20.46 44.88, 20.52 44.82 C 20.61 44.67, 20.655 44.864999999999995, 20.700000000000003 44.519999999999996 C 20.700000000000003 43.98, 20.700000000000003 44.235, 20.700000000000003 43.44 C 20.700000000000003 42.39, 20.610000000000003 42.464999999999996, 20.700000000000003 41.339999999999996 C 20.880000000000003 40.14, 20.85 39.959999999999994, 21.06 38.94 C 21.299999999999997 38.099999999999994, 21.015 38.64, 21.54 37.26 C 22.35 35.34, 22.38 34.995000000000005, 23.16 33.42 C 23.910000000000004 32.19, 23.805000000000003 31.92, 24.660000000000004 30.96 C 25.62 30.27, 25.65 30.089999999999996, 26.58 29.58 C 27.48 29.25, 27.525000000000002 29.085, 28.380000000000003 28.92 C 29.19 28.92, 29.445 28.92, 30 28.92 C 30.299999999999997 28.92, 30.45 28.92, 30.599999999999998 28.92 L 30.599999999999998 28.92" fill="none" stroke="black" stroke-width="2"></path></svg>