<svg width="48" height="48" viewBox="0 0 48 48" xmlns="http://www.w3.org/2000/svg"><path d="M 16.200000000000003 10.74 C 16.62 10.170000000000002, 16.545 10.245000000000001, 17.04 9.600000000000001 C 17.61 8.88, 17.58 8.850000000000001, 18.18 8.16 C 18.810000000000002 7.5, 18.795 7.41, 19.44 6.84 C 20.1 6.359999999999999, 20.159999999999997 6.165, 20.759999999999998 5.88 C 21.299999999999997 5.789999999999999, 21 5.7299999999999995, 21.84 5.699999999999999 C 22.979999999999997 5.7299999999999995, 23.039999999999996 5.609999999999999, 24.119999999999997 5.76 C 25.14 6.03, 25.440000000000005 6.045000000000001, 26.160000000000004 6.300000000000001 C 26.580000000000002 6.54, 26.43 6.3149999999999995, 27 6.779999999999999 C 27.72 7.47, 27.765 7.32, 28.44 8.16 C 29.07 9.15, 29.265000000000004 9.135000000000002, 29.700000000000003 10.14 C 29.94 11.16, 30.015 11.265, 30.18 12.18 C 30.27 12.989999999999998, 30.314999999999998 12.989999999999998, 30.36 13.799999999999999 C 30.36 14.61, 30.36 14.714999999999998, 30.36 15.419999999999998 C 30.36 16.02, 30.465 15.84, 30.36 16.62 C 30.15 17.58, 30.450000000000003 17.549999999999997, 29.94 18.54 C 29.130000000000003 19.560000000000002, 28.98 19.815, 28.32 20.580000000000002 C 27.81 21.090000000000003, 28.124999999999996 21.045, 27.299999999999997 21.6 C 26.159999999999997 22.2, 26.174999999999997 22.349999999999998, 25.02 22.799999999999997 C 23.85 23.099999999999998, 23.97 23.205, 22.68 23.4 C 21.27 23.490000000000002, 20.82 23.535, 19.86 23.580000000000002 C 19.35 23.580000000000002, 19.29 23.580000000000002, 18.84 23.580000000000002 C 18.45 23.580000000000002, 18.299999999999997 23.580000000000002, 18.06 23.580000000000002 C 17.97 23.580000000000002, 17.955 23.580000000000002, 17.88 23.580000000000002 C 17.82 23.580000000000002, 17.849999999999998 23.67, 17.759999999999998 23.580000000000002 C 17.64 23.4, 17.58 23.31, 17.52 23.22 L 17.52 23.22" fill="none" stroke="black" stroke-width="2"></path><path d="M 23.94 26.22 C 23.64 26.07, 23.805 25.950000000000003, 23.34 25.92 C 22.71 26.009999999999998, 22.785000000000004 25.799999999999997, 22.080000000000002 26.099999999999998 C 21.3 26.61, 21.27 26.459999999999997, 20.52 27.119999999999997 C 19.8 27.93, 19.71 27.765, 19.080000000000002 28.740000000000002 C 18.54 29.880000000000003, 18.405 29.939999999999998, 18 31.02 C 17.73 32.04, 17.595 31.845000000000002, 17.46 33.06 C 17.46 34.47, 17.325000000000003 34.725, 17.46 35.88 C 17.73 36.78, 17.61 36.855000000000004, 18 37.68 C 18.509999999999998 38.43, 18.509999999999998 38.55, 19.02 39.18 C 19.53 39.69, 19.439999999999998 39.765, 20.04 40.2 C 20.729999999999997 40.56, 20.654999999999998 40.68, 21.419999999999998 40.92 C 22.259999999999998 41.040000000000006, 22.155 41.1, 23.1 41.160000000000004 C 24.150000000000002 41.160000000000004, 24.360000000000003 41.23500000000001, 25.200000000000003 41.160000000000004 C 25.830000000000002 41.010000000000005, 25.845 41.205, 26.46 40.86 C 27.060000000000002 40.32, 27.105000000000004 40.38, 27.660000000000004 39.78 C 28.17 39.120000000000005, 28.32 39.075, 28.68 38.46 C 28.89 37.89, 28.949999999999996 37.845, 29.099999999999998 37.32 C 29.189999999999998 36.84, 29.205 36.93, 29.28 36.36 C 29.340000000000003 35.7, 29.325000000000003 35.879999999999995, 29.400000000000002 35.04 C 29.490000000000002 34.019999999999996, 29.58 33.93, 29.58 33 C 29.490000000000002 32.16, 29.55 32.025, 29.400000000000002 31.32 C 29.19 30.75, 29.22 30.75, 28.98 30.18 C 28.71 29.61, 28.71 29.564999999999998, 28.44 29.04 C 28.17 28.56, 28.245000000000005 28.575, 27.900000000000002 28.08 C 27.48 27.57, 27.599999999999998 27.54, 27.06 27.06 C 26.4 26.61, 26.415000000000003 26.490000000000002, 25.740000000000002 26.160000000000004 C 25.05 25.950000000000003, 25.244999999999997 25.92, 24.36 25.740000000000002 C 23.28 25.590000000000003, 23.055000000000003 25.515, 22.200000000000003 25.44 C 21.57 25.44, 21.300000000000004 25.44, 20.94 25.44 C 20.85 25.44, 20.88 25.410000000000004, 20.759999999999998 25.44 L 20.46 25.56" fill="none" stroke="black" stroke-width="2"></path></svg>