<svg width="48" height="48" viewBox="0 0 48 48" xmlns="http://www.w3.org/2000/svg"><path d="M 19.32 42.78 C 18.54 42.84, 18.825 42.870000000000005, 17.759999999999998 42.900000000000006 C 16.409999999999997 42.900000000000006, 16.185 42.900000000000006, 15.059999999999999 42.900000000000006 C 14.16 42.900000000000006, 14.07 42.900000000000006, 13.26 42.900000000000006 C 12.54 42.900000000000006, 12.225 42.900000000000006, 11.82 42.900000000000006 C 11.73 42.900000000000006, 11.685 42.900000000000006, 11.64 42.900000000000006 C 11.64 42.900000000000006, 11.64 42.900000000000006, 11.64 42.900000000000006 C 11.64 42.900000000000006, 11.64 42.900000000000006, 11.64 42.900000000000006 C 11.64 42.900000000000006, 11.64 42.900000000000006, 11.64 42.900000000000006 C 11.64 42.900000000000006, 11.64 42.94500000000001, 11.64 42.900000000000006 C 11.64 42.81, 11.610000000000001 43.035, 11.64 42.72 C 11.7 42.18, 11.73 42.225, 11.76 41.64 C 11.76 41.010000000000005, 11.76 40.965, 11.76 40.38 C 11.76 39.84, 11.775 40.004999999999995, 11.76 39.3 C 11.73 38.43, 11.715 38.64, 11.7 37.56 C 11.7 36.27, 11.7 36.06, 11.7 34.980000000000004 C 11.7 34.11, 11.7 34.14, 11.7 33.24 C 11.7 32.31, 11.7 32.28, 11.7 31.380000000000003 C 11.7 30.51, 11.7 30.705000000000002, 11.7 29.64 C 11.7 28.38, 11.7 28.275, 11.7 27.119999999999997 C 11.7 26.07, 11.7 25.994999999999997, 11.7 25.02 C 11.7 24.119999999999997, 11.7 24.39, 11.7 23.22 C 11.7 21.78, 11.7 21.615, 11.7 20.34 C 11.7 19.23, 11.7 19.215, 11.7 18.12 C 11.7 17.04, 11.7 16.89, 11.7 15.96 C 11.7 15.18, 11.684999999999999 15.059999999999999, 11.7 14.399999999999999 C 11.73 13.86, 11.684999999999999 13.905000000000001, 11.76 13.32 C 11.879999999999999 12.69, 11.835 12.614999999999998, 12 12.059999999999999 C 12.209999999999999 11.58, 12.149999999999999 11.64, 12.419999999999998 11.100000000000001 C 12.75 10.5, 12.705000000000002 10.424999999999999, 13.080000000000002 9.899999999999999 C 13.5 9.45, 13.62 9.315, 13.919999999999998 9 C 14.099999999999998 8.82, 13.995 8.775, 14.28 8.64 C 14.669999999999998 8.55, 14.639999999999999 8.489999999999998, 15.059999999999999 8.459999999999999 C 15.51 8.489999999999998, 15.45 8.43, 15.96 8.52 C 16.53 8.67, 16.605 8.58, 17.1 8.82 C 17.520000000000003 9.15, 17.520000000000003 9.015, 17.94 9.48 C 18.36 10.08, 18.450000000000003 10.17, 18.78 10.68 C 19.02 11.1, 18.99 10.844999999999999, 19.259999999999998 11.52 C 19.56 12.45, 19.68 12.195, 19.86 13.379999999999999 C 19.92 14.819999999999999, 19.95 14.669999999999998, 19.98 16.259999999999998 C 19.98 18, 19.98 18.330000000000002, 19.98 19.740000000000002 C 19.98 20.82, 19.98 21.06, 19.98 21.9 C 19.98 22.5, 19.965 22.755000000000003, 19.98 23.1 C 20.009999999999998 23.19, 20.009999999999998 23.220000000000002, 20.04 23.28 C 20.07 23.310000000000002, 20.01 23.325, 20.1 23.34 C 20.25 23.34, 19.875 23.34, 20.4 23.34 C 21.3 23.34, 21.135 23.34, 22.200000000000003 23.34 C 23.430000000000003 23.34, 23.565000000000005 23.34, 24.660000000000004 23.34 C 25.62 23.34, 25.83 23.34, 26.58 23.34 C 27.12 23.34, 27.000000000000004 23.34, 27.660000000000004 23.34 C 28.44 23.34, 28.47 23.43, 29.22 23.34 C 29.94 23.16, 29.970000000000002 23.28, 30.660000000000004 22.98 C 31.32 22.560000000000002, 31.395000000000003 22.605, 31.98 22.14 C 32.49 21.630000000000003, 32.46 21.795, 33 21.12 C 33.57 20.28, 33.825 20.25, 34.14 19.44 C 34.2 18.66, 34.29 18.66, 34.26 17.88 C 34.14 17.1, 34.28999999999999 16.92, 34.019999999999996 16.32 C 33.599999999999994 15.9, 34.035 16.02, 33.18 15.48 C 31.89 14.82, 31.889999999999997 14.595, 30.599999999999998 14.16 C 29.31 13.95, 29.025 13.845, 28.02 13.74 C 27.299999999999997 13.74, 27.119999999999997 13.71, 26.58 13.74 C 26.22 13.8, 26.04 13.83, 25.86 13.86 L 25.86 13.86" fill="none" stroke="black" stroke-width="2"></path><path d="M 25.5 22.86 C 25.59 22.86, 25.47 22.77, 25.68 22.86 C 26.009999999999998 23.04, 25.919999999999995 22.799999999999997, 26.339999999999996 23.22 C 26.849999999999998 23.88, 26.909999999999997 23.88, 27.36 24.54 C 27.75 25.2, 27.78 25.08, 28.14 25.86 C 28.47 26.76, 28.5 26.775000000000002, 28.799999999999997 27.660000000000004 C 29.069999999999997 28.53, 29.054999999999996 27.915000000000006, 29.339999999999996 29.400000000000002 C 29.64 31.5, 29.745 31.874999999999996, 29.94 33.599999999999994 C 30.03 34.949999999999996, 30.089999999999996 34.754999999999995, 30.119999999999997 36.3 C 30.089999999999996 38.04, 30.134999999999998 38.52, 30.06 39.78 C 29.939999999999998 40.56, 29.985 40.515, 29.82 41.339999999999996 C 29.61 42.209999999999994, 29.550000000000004 42.48, 29.400000000000002 43.08 C 29.310000000000002 43.41, 29.265 43.575, 29.22 43.74 C 29.22 43.74, 29.22 43.74, 29.22 43.74 C 29.22 43.74, 29.25 43.695, 29.22 43.74 L 29.099999999999998 43.92" fill="none" stroke="black" stroke-width="2"></path></svg>