<svg width="48" height="48" viewBox="0 0 48 48" xmlns="http://www.w3.org/2000/svg"><path d="M 10.32 6.0600000000000005 C 10.32 7.65, 10.2 7.44, 10.32 9.24 C 10.56 11.25, 10.47 11.055, 10.8 13.26 C 11.22 15.66, 11.265 15.645, 11.64 18.06 C 11.969999999999999 20.49, 12.09 20.79, 12.299999999999999 22.919999999999998 C 12.39 24.75, 12.39 24.764999999999997, 12.48 26.58 C 12.57 28.38, 12.615 28.545, 12.66 30.18 C 12.66 31.65, 12.66 31.589999999999996, 12.66 33.12 C 12.66 34.709999999999994, 12.66 34.785, 12.66 36.3 C 12.66 37.739999999999995, 12.66 38.19, 12.66 39.18 C 12.66 39.72, 12.555 39.78, 12.66 40.26 C 12.870000000000001 40.67999999999999, 12.750000000000002 40.724999999999994, 13.080000000000002 41.099999999999994 C 13.530000000000001 41.42999999999999, 13.530000000000001 41.489999999999995, 13.98 41.76 C 14.43 41.97, 14.489999999999998 42.03, 14.879999999999999 42.18 C 15.209999999999999 42.269999999999996, 15.149999999999999 42.315, 15.54 42.36 C 15.99 42.36, 15.885000000000002 42.51, 16.44 42.36 C 17.1 42.06, 17.084999999999997 42.195, 17.759999999999998 41.76 C 18.45 41.19, 18.57 41.16, 19.14 40.62 C 19.59 40.11, 19.68 40.12499999999999, 20.04 39.599999999999994 C 20.310000000000002 39.059999999999995, 20.355 39.38999999999999, 20.580000000000002 38.519999999999996 C 20.76 37.31999999999999, 20.970000000000002 37.41, 20.94 36.12 C 20.700000000000003 34.739999999999995, 20.73 34.23, 20.46 33.36 C 20.16 33, 20.13 32.82, 19.86 32.64 C 19.619999999999997 32.64, 19.799999999999997 32.685, 19.38 32.64 C 18.78 32.55, 18.825 32.505, 18.18 32.46 C 17.49 32.46, 17.49 32.43, 16.799999999999997 32.46 C 16.11 32.519999999999996, 16.034999999999997 32.43, 15.419999999999998 32.58 C 14.879999999999999 32.82, 14.774999999999999 32.85, 14.34 33.06 C 14.01 33.24, 13.965 33.27, 13.68 33.42 C 13.440000000000001 33.540000000000006, 13.41 33.540000000000006, 13.200000000000001 33.660000000000004 C 13.02 33.78, 13.005 33.78000000000001, 12.84 33.900000000000006 C 12.69 34.02, 12.614999999999998 34.08, 12.54 34.14 L 12.54 34.14" fill="none" stroke="black" stroke-width="2"></path><path d="M 12 27.54 C 12.18 27.54, 11.985 27.525, 12.36 27.54 C 12.93 27.57, 12.465 27.479999999999997, 13.5 27.599999999999998 C 15 27.81, 14.82 27.794999999999998, 16.5 28.02 C 18.36 28.259999999999998, 18.81 28.38, 20.22 28.5 C 21.18 28.5, 21.240000000000002 28.5, 22.14 28.5 C 22.98 28.5, 23.04 28.5, 23.82 28.5 C 24.54 28.5, 24.674999999999997 28.5, 25.259999999999998 28.5 C 25.71 28.5, 25.785000000000004 28.5, 26.160000000000004 28.5 C 26.46 28.5, 26.49 28.545, 26.759999999999998 28.5 C 27 28.41, 26.955000000000002 28.65, 27.240000000000002 28.32 C 27.57 27.75, 27.705000000000002 27.72, 27.900000000000002 27.18 C 27.96 26.67, 28.02 26.700000000000003, 28.02 26.160000000000004 C 27.96 25.590000000000003, 28.17 25.785, 27.900000000000002 25.02 C 27.42 24.060000000000002, 27.435000000000002 24.060000000000002, 26.94 23.1 C 26.43 22.14, 26.445000000000004 22.095, 25.92 21.18 C 25.38 20.310000000000002, 25.319999999999997 20.265, 24.839999999999996 19.44 C 24.419999999999998 18.66, 24.419999999999998 18.645, 24 17.88 C 23.58 17.13, 23.565 17.055, 23.16 16.38 C 22.77 15.78, 22.634999999999998 15.555, 22.38 15.18 C 22.259999999999998 15.03, 22.2 14.954999999999998, 22.14 14.879999999999999 C 22.14 14.879999999999999, 22.14 14.879999999999999, 22.14 14.879999999999999 C 22.14 14.879999999999999, 22.02 14.895, 22.14 14.879999999999999 C 22.380000000000003 14.85, 22.185000000000002 14.79, 22.62 14.82 C 23.25 14.91, 23.265 14.955, 23.88 15 C 24.479999999999997 15, 24.54 15.045, 25.08 15 C 25.56 14.91, 25.394999999999996 15.165, 26.04 14.82 C 26.85 14.22, 27.075000000000003 14.250000000000002, 27.660000000000004 13.620000000000001 C 28.020000000000003 12.96, 28.200000000000003 12.959999999999999, 28.380000000000003 12.299999999999999 C 28.380000000000003 11.64, 28.395000000000003 11.64, 28.380000000000003 10.98 C 28.35 10.32, 28.53 10.245000000000001, 28.32 9.66 C 27.93 9.15, 28.035 9.165000000000001, 27.54 8.64 C 26.939999999999998 8.100000000000001, 26.879999999999995 7.98, 26.339999999999996 7.5600000000000005 C 25.86 7.26, 25.935000000000002 7.124999999999999, 25.380000000000003 6.959999999999999 C 24.75 6.93, 24.659999999999997 6.914999999999999, 24.119999999999997 6.8999999999999995 C 23.669999999999998 6.8999999999999995, 23.759999999999998 6.885, 23.22 6.8999999999999995 C 22.59 6.93, 22.41 6.794999999999999, 21.96 6.959999999999999 C 21.689999999999998 7.26, 21.57 7.365, 21.419999999999998 7.5600000000000005 C 21.39 7.65, 21.375 7.695, 21.36 7.74 L 21.36 7.74" fill="none" stroke="black" stroke-width="2"></path></svg>