<svg width="48" height="48" viewBox="0 0 48 48" xmlns="http://www.w3.org/2000/svg"><path d="M 25.68 4.62 C 26.19 4.38, 26.220000000000002 4.26, 26.700000000000003 4.14 C 27.15 4.14, 26.985 4.125, 27.599999999999998 4.14 C 28.380000000000003 4.17, 28.395000000000003 4.049999999999999, 29.160000000000004 4.199999999999999 C 29.910000000000004 4.47, 30.030000000000005 4.455, 30.660000000000004 4.74 C 31.17 5.04, 31.32 5.055, 31.68 5.34 C 31.889999999999997 5.609999999999999, 31.949999999999996 5.415, 32.099999999999994 5.88 C 32.19 6.539999999999999, 32.31 6.539999999999999, 32.28 7.199999999999999 C 32.13 7.859999999999999, 32.265 7.845, 31.98 8.52 C 31.560000000000002 9.209999999999999, 31.71 9.404999999999998, 31.14 9.899999999999999 C 30.42 10.2, 30.330000000000005 10.29, 29.700000000000003 10.5 C 29.16 10.620000000000001, 29.279999999999998 10.665, 28.619999999999997 10.74 C 27.839999999999996 10.77, 27.54 10.755, 27.06 10.8 C 26.880000000000003 10.86, 26.940000000000005 10.844999999999999, 26.700000000000003 10.92 C 26.4 11.010000000000002, 26.294999999999998 11.040000000000001, 26.099999999999998 11.100000000000001 C 26.009999999999998 11.13, 25.98 11.025, 25.92 11.16 C 25.89 11.4, 25.619999999999997 11.31, 25.86 11.64 C 26.37 12.06, 26.385000000000005 12.105, 26.880000000000003 12.48 C 27.36 12.81, 27.345 12.81, 27.839999999999996 13.14 C 28.349999999999998 13.469999999999999, 28.394999999999996 13.485, 28.86 13.799999999999999 C 29.28 14.099999999999998, 29.235000000000003 14.009999999999998, 29.700000000000003 14.399999999999999 C 30.21 14.879999999999999, 30.314999999999998 14.909999999999998, 30.72 15.36 C 31.02 15.780000000000001, 31.05 15.750000000000004, 31.32 16.200000000000003 C 31.56 16.68, 31.619999999999997 16.725, 31.799999999999997 17.16 C 31.919999999999998 17.55, 31.935 17.37, 32.04 17.94 C 32.129999999999995 18.69, 32.175 18.525000000000002, 32.22 19.44 C 32.22 20.520000000000003, 32.22 20.67, 32.22 21.6 C 32.22 22.380000000000003, 32.22 22.5, 32.22 23.16 C 32.22 23.700000000000003, 32.22 23.610000000000003, 32.22 24.240000000000002 C 32.22 24.96, 32.22 25.02, 32.22 25.68 C 32.22 26.28, 32.22 26.310000000000002, 32.22 26.880000000000003 C 32.22 27.42, 32.22 27.465000000000003, 32.22 27.96 C 32.22 28.41, 32.22 28.32, 32.22 28.86 C 32.22 29.49, 32.22 29.504999999999995, 32.22 30.119999999999997 C 32.22 30.72, 32.22 30.9, 32.22 31.32 C 32.22 31.56, 32.22 31.559999999999995, 32.22 31.799999999999997 C 32.22 32.04, 32.22 32.16, 32.22 32.28 C 32.22 32.28, 32.265 32.115, 32.22 32.28 C 32.129999999999995 32.61, 32.175 32.655, 32.04 32.94 C 31.86 33.18, 32.055 33.09, 31.68 33.42 C 31.11 33.84, 31.08 33.945, 30.54 34.26 C 30.03 34.47, 30.165 34.425, 29.52 34.68 C 28.740000000000002 34.980000000000004, 28.635 35.010000000000005, 27.96 35.28 C 27.39 35.519999999999996, 27.105 35.64, 26.82 35.76 C 26.82 35.76, 26.82 35.76, 26.82 35.76 C 26.82 35.76, 26.835 35.745, 26.82 35.76 C 26.79 35.79, 26.669999999999998 35.805, 26.759999999999998 35.82 C 26.97 35.82, 26.595 35.730000000000004, 27.18 35.82 C 28.14 36, 28.29 36.03, 29.099999999999998 36.18 C 29.759999999999998 36.3, 29.790000000000003 36.24, 30.42 36.42 C 31.02 36.660000000000004, 31.11 36.58500000000001, 31.619999999999997 36.900000000000006 C 32.04 37.290000000000006, 32.115 37.275000000000006, 32.46 37.68 C 32.730000000000004 38.099999999999994, 32.85 37.934999999999995, 33 38.519999999999996 C 33.03 39.269999999999996, 33.045 39.419999999999995, 33.06 40.019999999999996 C 33.06 40.47, 33.06 40.455, 33.06 40.92 C 33.06 41.400000000000006, 33.24 41.43000000000001, 33.06 41.88 C 32.7 42.3, 32.80499999999999 42.33, 32.339999999999996 42.72 C 31.77 43.08, 31.785000000000004 43.155, 31.200000000000003 43.44 C 30.6 43.65, 30.735 43.68, 30 43.86 C 29.13 44.010000000000005, 29.13 44.085, 28.259999999999998 44.160000000000004 C 27.39 44.160000000000004, 27.299999999999997 44.160000000000004, 26.52 44.160000000000004 C 25.83 44.160000000000004, 25.635 44.160000000000004, 25.14 44.160000000000004 C 24.84 44.160000000000004, 24.735 44.160000000000004, 24.54 44.160000000000004 C 24.45 44.160000000000004, 24.45 44.160000000000004, 24.36 44.160000000000004 C 24.27 44.160000000000004, 24.225 44.160000000000004, 24.18 44.160000000000004 L 24.18 44.160000000000004" fill="none" stroke="black" stroke-width="2"></path><path d="M 31.86 27.18 C 31.08 27.27, 31.47 27.225, 30.299999999999997 27.36 C 28.74 27.54, 28.455 27.584999999999997, 27.18 27.72 C 26.19 27.810000000000002, 26.1 27.855, 25.200000000000003 27.900000000000002 C 24.39 27.900000000000002, 24.300000000000004 27.900000000000002, 23.580000000000002 27.900000000000002 C 22.950000000000003 27.900000000000002, 22.935000000000002 27.900000000000002, 22.32 27.900000000000002 C 21.72 27.900000000000002, 21.795 27.900000000000002, 21.12 27.900000000000002 C 20.37 27.900000000000002, 20.145000000000003 27.900000000000002, 19.62 27.900000000000002 C 19.32 27.900000000000002, 19.215 27.930000000000003, 19.02 27.900000000000002 C 18.93 27.840000000000003, 18.990000000000002 27.915000000000003, 18.84 27.78 C 18.63 27.57, 18.705 27.96, 18.419999999999998 27.36 C 18.060000000000002 26.37, 18.03 26.835, 17.700000000000003 25.380000000000003 C 17.400000000000002 23.46, 17.25 23.64, 17.1 21.54 C 17.1 19.259999999999998, 17.085 19.14, 17.1 16.98 C 17.130000000000003 14.94, 17.145 14.369999999999997, 17.16 12.899999999999999 C 17.16 12, 17.16 12.255, 17.16 11.100000000000001 C 17.16 9.690000000000001, 17.16 9.629999999999999, 17.16 8.28 C 17.16 6.989999999999999, 17.16 6.809999999999999, 17.16 5.699999999999999 C 17.16 4.77, 17.16 4.425, 17.16 3.84 C 17.16 3.6, 17.16 3.5100000000000002, 17.16 3.3600000000000003 C 17.16 3.3000000000000003, 17.16 3.2700000000000005, 17.16 3.24 C 17.16 3.24, 17.16 3.24, 17.16 3.24 L 17.16 3.24" fill="none" stroke="black" stroke-width="2"></path></svg>