<svg width="48" height="48" viewBox="0 0 48 48" xmlns="http://www.w3.org/2000/svg"><path d="M 14.34 6.0600000000000005 C 14.76 5.73, 14.46 5.835000000000001, 15.18 5.4 C 16.2 4.86, 16.11 4.59, 17.22 4.32 C 18.42 4.32, 18.645 4.245, 19.62 4.32 C 20.37 4.470000000000001, 20.16 4.215, 21.12 4.62 C 22.29 5.279999999999999, 22.44 5.295, 23.46 5.9399999999999995 C 24.330000000000002 6.569999999999999, 24.495000000000005 6.465, 25.200000000000003 7.199999999999999 C 25.740000000000002 8.04, 25.92 7.829999999999999, 26.28 8.879999999999999 C 26.46 10.139999999999999, 26.55 10.2, 26.64 11.399999999999999 C 26.64 12.54, 26.85 12.524999999999999, 26.64 13.68 C 26.22 14.85, 26.234999999999996 15.044999999999998, 25.799999999999997 16.02 C 25.35 16.8, 25.425 16.89, 24.900000000000002 17.580000000000002 C 24.300000000000004 18.18, 24.450000000000003 18.270000000000003, 23.700000000000003 18.78 C 22.8 19.200000000000003, 22.98 19.275000000000002, 21.9 19.62 C 20.64 19.89, 20.685 19.95, 19.38 20.16 C 18.03 20.310000000000002, 17.925 20.400000000000002, 16.68 20.46 C 15.54 20.43, 15.059999999999999 20.445, 14.399999999999999 20.4 C 14.219999999999999 20.34, 14.174999999999999 20.355, 14.04 20.28 C 13.95 20.19, 13.905 20.145000000000003, 13.86 20.1 L 13.86 20.1" fill="none" stroke="black" stroke-width="2"></path><path d="M 18.96 20.4 C 19.020000000000003 21.84, 19.005000000000003 21.87, 19.080000000000002 23.28 C 19.17 24.66, 19.275 24.615, 19.259999999999998 26.04 C 19.14 27.509999999999998, 19.244999999999997 27.525, 19.02 28.98 C 18.689999999999998 30.42, 18.675 30.645, 18.36 31.86 C 18.06 32.849999999999994, 18.299999999999997 32.55, 17.759999999999998 33.839999999999996 C 16.98 35.42999999999999, 16.89 35.894999999999996, 16.200000000000003 37.019999999999996 C 15.600000000000001 37.67999999999999, 15.735000000000001 37.574999999999996, 15 38.339999999999996 C 14.129999999999999 39.209999999999994, 14.085 39.375, 13.26 40.08 C 12.48 40.620000000000005, 12.12 40.86, 11.7 41.160000000000004 C 11.64 41.22, 11.7 41.25, 11.58 41.28 L 11.22 41.28" fill="none" stroke="black" stroke-width="2"></path><path d="M 19.14 32.160000000000004 C 19.47 33.03, 19.424999999999997 33.00000000000001, 19.799999999999997 33.900000000000006 C 20.22 34.83, 20.115000000000002 34.83, 20.64 35.76 C 21.27 36.69, 21.33 36.9, 21.9 37.62 C 22.409999999999997 38.129999999999995, 22.139999999999997 38.1, 22.919999999999998 38.64 C 23.97 39.21, 24.134999999999998 39.405, 25.02 39.78 C 25.740000000000002 39.96, 25.755000000000003 40.005, 26.46 40.14 C 27.15 40.230000000000004, 27.464999999999996 40.275, 27.839999999999996 40.32 C 27.9 40.32, 27.689999999999998 40.29, 27.96 40.32 L 28.92 40.44" fill="none" stroke="black" stroke-width="2"></path></svg>