<svg width="48" height="48" viewBox="0 0 48 48" xmlns="http://www.w3.org/2000/svg"><path d="M 13.86 30 C 16.17 30.299999999999997, 16.634999999999998 30.45, 18.48 30.599999999999998 C 19.86 30.599999999999998, 19.815 30.599999999999998, 21.240000000000002 30.599999999999998 C 22.71 30.599999999999998, 23.055 30.599999999999998, 24.18 30.599999999999998 C 24.96 30.599999999999998, 25.11 30.599999999999998, 25.740000000000002 30.599999999999998 C 26.220000000000002 30.599999999999998, 26.025000000000002 30.599999999999998, 26.700000000000003 30.599999999999998 C 27.57 30.599999999999998, 27.585 30.599999999999998, 28.44 30.599999999999998 C 29.28 30.599999999999998, 29.504999999999995 30.644999999999996, 30.119999999999997 30.599999999999998 C 30.509999999999998 30.509999999999998, 30.585 30.465, 30.900000000000002 30.42 C 31.14 30.42, 31.140000000000004 30.51, 31.380000000000003 30.42 C 31.62 30.240000000000002, 31.65 30.27, 31.86 30.06 C 32.04 29.82, 32.01 29.939999999999998, 32.22 29.58 C 32.46 29.099999999999998, 32.565000000000005 29.099999999999994, 32.7 28.619999999999997 C 32.730000000000004 28.14, 32.745 28.050000000000004, 32.76 27.660000000000004 C 32.76 27.36, 32.76 27.48, 32.76 27.06 C 32.76 26.52, 32.879999999999995 26.535, 32.76 25.98 C 32.519999999999996 25.409999999999997, 32.760000000000005 25.679999999999996, 32.28 24.839999999999996 C 31.56 23.729999999999997, 31.499999999999996 23.58, 30.839999999999996 22.62 C 30.24 21.810000000000002, 30.33 21.855, 29.64 21 C 28.86 20.1, 28.86 20.040000000000003, 28.08 19.200000000000003 C 27.299999999999997 18.42, 27.165 18.255000000000003, 26.52 17.64 C 26.009999999999998 17.19, 25.92 17.145000000000003, 25.5 16.740000000000002 C 25.169999999999998 16.380000000000003, 25.139999999999997 16.32, 24.839999999999996 16.02 C 24.569999999999997 15.78, 24.464999999999996 15.825, 24.299999999999997 15.54 C 24.24 15.209999999999999, 24.24 15.194999999999999, 24.18 14.879999999999999 C 24.119999999999997 14.579999999999998, 24.09 14.474999999999998, 24.06 14.28 C 24.06 14.190000000000001, 24.06 14.175, 24.06 14.100000000000001 C 24.06 14.040000000000001, 23.985 14.055000000000001, 24.06 13.98 C 24.21 13.89, 24 13.799999999999999, 24.36 13.799999999999999 C 24.93 13.89, 24.884999999999998 13.89, 25.5 13.98 C 26.16 14.07, 26.295 14.115, 26.82 14.16 C 27.21 14.16, 26.97 14.16, 27.599999999999998 14.16 C 28.47 14.16, 28.454999999999995 14.16, 29.339999999999996 14.16 C 30.24 14.16, 30.39 14.205, 31.14 14.16 C 31.74 14.07, 31.949999999999996 14.07, 32.339999999999996 13.98 C 32.519999999999996 13.89, 32.52 14.07, 32.7 13.799999999999999 C 32.88 13.349999999999998, 32.925000000000004 13.469999999999999, 33.06 12.899999999999999 C 33.150000000000006 12.209999999999999, 33.195 12.135, 33.24 11.52 C 33.24 10.98, 33.27 10.995, 33.24 10.44 C 33.18 9.870000000000001, 33.254999999999995 9.93, 33.12 9.3 C 32.91 8.61, 32.985 8.655, 32.7 7.92 C 32.34 7.140000000000001, 32.445 7.08, 31.98 6.36 C 31.409999999999997 5.7, 31.364999999999995 5.565, 30.839999999999996 5.04 C 30.36 4.65, 30.450000000000003 4.56, 29.880000000000003 4.26 C 29.22 4.05, 29.265 3.915, 28.56 3.84 C 27.81 3.9, 27.689999999999998 3.7199999999999998, 27.06 3.96 C 26.549999999999997 4.380000000000001, 26.445 4.425000000000001, 26.04 4.800000000000001 C 25.740000000000002 5.130000000000001, 25.605 5.25, 25.44 5.46 L 25.380000000000003 5.64" fill="none" stroke="black" stroke-width="2"></path><path d="M 19.32 31.200000000000003 C 19.05 32.88, 18.975 32.85, 18.78 34.56 C 18.66 36.3, 18.689999999999998 36.555, 18.54 38.04 C 18.36 39.269999999999996, 18.27 39.165, 18.18 40.5 C 18.18 41.94, 18.18 42.33, 18.18 43.38 C 18.18 44.040000000000006, 18.18 44.1, 18.18 44.7 C 18.18 45.24, 18.18 45.465, 18.18 45.78 C 18.18 45.870000000000005, 18.18 45.915, 18.18 45.96 L 18.18 45.96" fill="none" stroke="black" stroke-width="2"></path><path d="M 25.86 30.599999999999998 C 25.95 30.869999999999997, 25.994999999999997 30.525, 26.04 31.14 C 26.04 32.1, 26.055 31.53, 26.04 33.06 C 26.009999999999998 35.16, 25.995 35.129999999999995, 25.98 37.26 C 25.98 39.42, 25.98 40.05, 25.98 41.58 C 25.98 42.480000000000004, 26.01 42.660000000000004, 25.98 43.38 C 25.92 43.92, 25.905 44.145, 25.86 44.46 C 25.83 44.55, 25.814999999999998 44.595, 25.799999999999997 44.64 C 25.799999999999997 44.64, 25.799999999999997 44.64, 25.799999999999997 44.64 L 25.799999999999997 44.64" fill="none" stroke="black" stroke-width="2"></path></svg>