<svg width="48" height="48" viewBox="0 0 48 48" xmlns="http://www.w3.org/2000/svg"><path d="M 17.4 36.96 C 16.95 35.519999999999996, 16.86 35.4, 16.5 34.08 C 16.23 32.879999999999995, 16.26 33.03, 15.96 31.68 C 15.629999999999999 30.18, 15.645 30.134999999999998, 15.299999999999999 28.68 C 14.940000000000001 27.27, 14.850000000000001 27.225, 14.580000000000002 25.86 C 14.400000000000002 24.54, 14.31 24.195, 14.22 23.22 C 14.22 22.59, 14.22 22.755000000000003, 14.22 21.96 C 14.22 21, 14.100000000000001 20.925, 14.22 20.04 C 14.46 19.229999999999997, 14.370000000000001 19.2, 14.700000000000001 18.419999999999998 C 15.120000000000001 17.669999999999998, 15.194999999999999 17.43, 15.54 16.919999999999998 C 15.81 16.65, 15.630000000000003 16.665, 16.080000000000002 16.38 C 16.71 16.08, 16.59 15.944999999999999, 17.34 15.78 C 18.21 15.75, 18.345000000000002 15.735, 19.080000000000002 15.72 C 19.68 15.72, 19.755000000000003 15.72, 20.28 15.72 C 20.73 15.72, 20.445 15.72, 21.18 15.72 C 22.2 15.72, 22.095 15.72, 23.22 15.72 C 24.45 15.72, 24.735 15.81, 25.68 15.72 C 26.34 15.54, 26.46 15.614999999999998, 27 15.36 C 27.419999999999998 15.030000000000001, 27.494999999999997 15.120000000000001, 27.839999999999996 14.700000000000001 C 28.11 14.190000000000001, 28.200000000000003 14.205, 28.380000000000003 13.68 C 28.47 13.14, 28.515 13.245000000000001, 28.56 12.600000000000001 C 28.56 11.850000000000001, 28.56 11.625000000000002, 28.56 11.100000000000001 C 28.56 10.8, 28.665 10.89, 28.56 10.5 C 28.35 10.02, 28.395 9.930000000000001, 28.14 9.540000000000001 C 27.84 9.24, 28.005 9.18, 27.54 8.94 C 26.91 8.76, 26.955000000000002 8.715, 26.28 8.58 C 25.56 8.489999999999998, 25.559999999999995 8.43, 24.839999999999996 8.399999999999999 C 24.119999999999997 8.43, 23.999999999999996 8.37, 23.4 8.459999999999999 C 22.92 8.61, 22.68 8.684999999999999, 22.44 8.76 L 22.44 8.76" fill="none" stroke="black" stroke-width="2"></path><path d="M 24.299999999999997 16.080000000000002 C 24.9 16.770000000000003, 25.095 16.695, 25.5 17.46 C 25.71 18.3, 25.71 18.225, 25.92 19.14 C 26.13 20.130000000000003, 26.235 20.22, 26.339999999999996 21.12 C 26.339999999999996 21.93, 26.339999999999996 21.825000000000003, 26.339999999999996 22.740000000000002 C 26.339999999999996 23.76, 26.339999999999996 23.94, 26.339999999999996 24.78 C 26.339999999999996 25.439999999999998, 26.474999999999994 25.214999999999996, 26.339999999999996 26.099999999999998 C 26.069999999999997 27.21, 26.039999999999996 27.135, 25.799999999999997 28.32 C 25.59 29.58, 25.590000000000003 29.79, 25.380000000000003 30.839999999999996 C 25.17 31.679999999999996, 25.17 31.799999999999997, 24.96 32.519999999999996 C 24.75 33.12, 24.75 33.135, 24.54 33.72 C 24.33 34.29, 24.269999999999996 34.455, 24.119999999999997 34.86 C 24.03 35.099999999999994, 24.03 35.099999999999994, 23.94 35.339999999999996 C 23.85 35.58, 23.805 35.625, 23.759999999999998 35.82 C 23.759999999999998 35.97, 23.759999999999998 36.045, 23.759999999999998 36.12 C 23.759999999999998 36.12, 23.759999999999998 36.12, 23.759999999999998 36.12 C 23.759999999999998 36.12, 23.759999999999998 36.12, 23.759999999999998 36.12 C 23.759999999999998 36.12, 23.759999999999998 36.12, 23.759999999999998 36.12 C 23.759999999999998 36.12, 23.759999999999998 36.12, 23.759999999999998 36.12 C 23.759999999999998 36.12, 23.759999999999998 36.12, 23.759999999999998 36.12 C 23.759999999999998 36.12, 23.759999999999998 36.12, 23.759999999999998 36.12 C 23.759999999999998 36.12, 23.759999999999998 36.12, 23.759999999999998 36.12 C 23.759999999999998 36.12, 23.775 36.074999999999996, 23.759999999999998 36.12 C 23.73 36.209999999999994, 23.715000000000003 36.254999999999995, 23.700000000000003 36.3 C 23.700000000000003 36.3, 23.700000000000003 36.3, 23.700000000000003 36.3 C 23.700000000000003 36.3, 23.715000000000003 36.269999999999996, 23.700000000000003 36.3 C 23.67 36.36, 23.655 36.39, 23.64 36.42 C 23.64 36.42, 23.64 36.42, 23.64 36.42 C 23.64 36.42, 23.64 36.42, 23.64 36.42 C 23.64 36.42, 23.64 36.42, 23.64 36.42 L 23.64 36.42" fill="none" stroke="black" stroke-width="2"></path><path d="M 13.5 37.019999999999996 C 13.649999999999999 37.019999999999996, 13.469999999999999 37.019999999999996, 13.799999999999999 37.019999999999996 C 14.309999999999999 37.019999999999996, 13.905 37.095, 14.82 37.019999999999996 C 16.14 36.87, 15.975000000000001 36.809999999999995, 17.46 36.72 C 19.11 36.69, 19.29 36.675000000000004, 20.759999999999998 36.660000000000004 C 22.049999999999997 36.660000000000004, 22.41 36.61500000000001, 23.34 36.660000000000004 C 23.91 36.75, 23.775 36.75, 24.48 36.839999999999996 C 25.32 36.92999999999999, 25.395000000000003 36.94499999999999, 26.160000000000004 37.019999999999996 C 26.85 37.08, 27.12 37.11, 27.54 37.14 C 27.689999999999998 37.14, 27.764999999999997 37.14, 27.839999999999996 37.14 L 27.839999999999996 37.14" fill="none" stroke="black" stroke-width="2"></path></svg>