<svg width="48" height="48" viewBox="0 0 48 48" xmlns="http://www.w3.org/2000/svg"><path d="M 14.64 39.36 C 14.190000000000001 37.59, 14.07 37.05, 13.74 35.82 C 13.530000000000001 35.129999999999995, 13.605 35.37, 13.32 34.44 C 12.96 33.269999999999996, 12.900000000000002 33.269999999999996, 12.600000000000001 32.099999999999994 C 12.360000000000001 30.929999999999996, 12.375000000000002 31.275, 12.120000000000001 29.759999999999998 C 11.850000000000001 27.9, 11.760000000000002 27.435, 11.58 26.04 C 11.489999999999998 25.11, 11.489999999999998 25.244999999999997, 11.399999999999999 24.18 C 11.309999999999999 22.98, 11.265 22.89, 11.22 21.78 C 11.22 20.76, 11.22 20.67, 11.22 19.740000000000002 C 11.22 18.9, 11.205000000000002 18.93, 11.22 18.06 C 11.25 17.159999999999997, 11.205 17.069999999999997, 11.28 16.259999999999998 C 11.399999999999999 15.54, 11.309999999999999 15.495000000000001, 11.52 14.82 C 11.82 14.19, 11.73 14.25, 12.120000000000001 13.559999999999999 C 12.600000000000001 12.809999999999999, 12.630000000000003 12.659999999999998, 13.080000000000002 12.059999999999999 C 13.5 11.61, 13.454999999999998 11.535, 13.919999999999998 11.16 C 14.43 10.86, 14.445 10.77, 14.940000000000001 10.56 C 15.42 10.440000000000001, 15.509999999999998 10.38, 15.899999999999999 10.32 C 16.2 10.32, 16.11 10.290000000000001, 16.5 10.32 C 16.98 10.379999999999999, 17.055 10.305, 17.46 10.44 C 17.79 10.649999999999999, 17.79 10.635, 18.12 10.86 C 18.450000000000003 11.1, 18.465000000000003 11.01, 18.78 11.34 C 19.08 11.76, 19.169999999999998 11.805, 19.38 12.18 C 19.5 12.51, 19.515 12.18, 19.62 12.84 C 19.71 13.83, 19.755 13.68, 19.799999999999997 14.82 C 19.799999999999997 16.11, 19.799999999999997 16.29, 19.799999999999997 17.4 C 19.799999999999997 18.33, 19.799999999999997 18.33, 19.799999999999997 19.259999999999998 C 19.799999999999997 20.189999999999998, 19.799999999999997 20.295, 19.799999999999997 21.12 C 19.799999999999997 21.84, 19.724999999999994 21.779999999999998, 19.799999999999997 22.56 C 19.95 23.4, 19.98 23.655, 20.1 24.240000000000002 C 20.19 24.57, 20.16 24.630000000000003, 20.28 24.900000000000002 C 20.43 25.11, 20.265 25.185000000000002, 20.580000000000002 25.32 C 21.060000000000002 25.380000000000003, 20.985 25.455000000000002, 21.54 25.44 C 22.169999999999998 25.35, 22.169999999999998 25.334999999999997, 22.799999999999997 25.259999999999998 C 23.43 25.2, 23.43 25.215, 24.06 25.14 C 24.689999999999998 25.05, 24.78 25.005000000000003, 25.32 24.96 C 25.77 24.96, 25.68 24.825000000000003, 26.22 24.96 C 26.85 25.23, 26.97 25.125, 27.48 25.5 C 27.869999999999997 25.98, 27.944999999999997 25.905, 28.259999999999998 26.46 C 28.5 27.09, 28.545 27.09, 28.740000000000002 27.72 C 28.89 28.35, 28.965 28.425, 29.04 28.98 C 29.04 29.46, 29.04 29.34, 29.04 29.94 C 29.04 30.660000000000004, 29.205 30.555000000000003, 29.04 31.380000000000003 C 28.71 32.31, 28.89 32.190000000000005, 28.380000000000003 33.24 C 27.69 34.41, 27.645000000000003 34.589999999999996, 27 35.58 C 26.4 36.39, 26.249999999999996 36.495000000000005, 25.799999999999997 37.2 C 25.5 37.800000000000004, 25.425 37.935, 25.200000000000003 38.400000000000006 C 25.050000000000004 38.730000000000004, 25.005000000000003 38.85, 24.900000000000002 39.06 C 24.840000000000003 39.150000000000006, 24.825000000000003 39.165000000000006, 24.78 39.24 L 24.72 39.36" fill="none" stroke="black" stroke-width="2"></path><path d="M 20.22 18.12 C 21.63 17.97, 21.674999999999997 18.09, 23.04 17.82 C 24.36 17.43, 24.689999999999998 17.25, 25.68 17.04 C 26.34 17.009999999999998, 26.475 16.995, 27 16.98 C 27.39 16.98, 27.555 16.98, 27.78 16.98 L 27.900000000000002 16.98" fill="none" stroke="black" stroke-width="2"></path><path d="M 11.64 40.86 C 11.76 40.620000000000005, 11.504999999999999 40.68, 11.879999999999999 40.38 C 12.51 40.02, 12.27 39.97500000000001, 13.14 39.660000000000004 C 14.25 39.39, 14.355 39.315, 15.36 39.12 C 16.259999999999998 39, 16.17 38.94, 17.16 38.88 C 18.240000000000002 38.88, 18.06 38.88, 19.32 38.88 C 20.76 38.88, 21.015000000000004 38.88, 22.200000000000003 38.88 C 23.130000000000003 38.88, 23.22 38.790000000000006, 24.06 38.88 C 24.81 39.06, 24.99 39.09, 25.56 39.24 C 25.949999999999996 39.36, 25.934999999999995 39.300000000000004, 26.339999999999996 39.480000000000004 C 26.759999999999998 39.72, 26.849999999999998 39.78, 27.18 39.96 L 27.660000000000004 40.2" fill="none" stroke="black" stroke-width="2"></path></svg>