<svg width="48" height="48" viewBox="0 0 48 48" xmlns="http://www.w3.org/2000/svg"><path d="M 12.48 7.92 C 12.99 7.95, 12.495000000000001 7.965, 13.5 7.98 C 15 7.98, 15.15 7.98, 16.5 7.98 C 17.7 7.98, 17.58 7.98, 18.9 7.98 C 20.34 7.98, 20.625 7.98, 21.78 7.98 C 22.65 7.98, 22.44 7.995000000000001, 23.52 7.98 C 24.81 7.95, 24.839999999999996 7.98, 26.099999999999998 7.92 C 27.33 7.83, 27.509999999999998 7.785, 28.56 7.74 C 29.43 7.74, 29.534999999999997 7.74, 30.299999999999997 7.74 C 30.959999999999997 7.74, 30.915 7.74, 31.619999999999997 7.74 C 32.37 7.74, 32.519999999999996 7.74, 33.12 7.74 C 33.56999999999999 7.74, 33.74999999999999 7.74, 34.019999999999996 7.74 C 34.11 7.74, 34.155 7.74, 34.2 7.74 L 34.2 7.74" fill="none" stroke="black" stroke-width="2"></path><path d="M 21.36 7.800000000000001 C 20.85 8.280000000000001, 20.775 8.175, 20.34 8.76 C 19.98 9.45, 19.965 9.375, 19.62 10.14 C 19.29 10.98, 19.305 10.725000000000001, 18.96 11.82 C 18.6 13.17, 18.555 13.184999999999999, 18.240000000000002 14.52 C 17.970000000000002 15.84, 17.910000000000004 16.035, 17.700000000000003 17.16 C 17.55 18.09, 17.58 17.925, 17.4 19.02 C 17.189999999999998 20.28, 17.205 20.22, 16.98 21.54 C 16.740000000000002 22.919999999999998, 16.695 22.904999999999998, 16.5 24.299999999999997 C 16.35 25.709999999999997, 16.365000000000002 25.784999999999997, 16.200000000000003 27.119999999999997 C 16.020000000000003 28.38, 15.96 28.38, 15.84 29.64 C 15.780000000000001 30.900000000000002, 15.795000000000002 30.975, 15.72 32.160000000000004 C 15.629999999999999 33.27, 15.645 33.18000000000001, 15.54 34.38 C 15.419999999999998 35.67, 15.36 35.955, 15.299999999999999 36.96 C 15.299999999999999 37.68000000000001, 15.299999999999999 37.71000000000001, 15.299999999999999 38.400000000000006 C 15.299999999999999 39.06, 15.299999999999999 39, 15.299999999999999 39.72 C 15.299999999999999 40.5, 15.299999999999999 40.815, 15.299999999999999 41.28 C 15.299999999999999 41.43, 15.299999999999999 41.385, 15.299999999999999 41.58 C 15.299999999999999 41.82, 15.299999999999999 41.895, 15.299999999999999 42.06 C 15.299999999999999 42.150000000000006, 15.299999999999999 42.195, 15.299999999999999 42.24 C 15.299999999999999 42.24, 15.299999999999999 42.24, 15.299999999999999 42.24 C 15.299999999999999 42.24, 15.299999999999999 42.24, 15.299999999999999 42.24 C 15.299999999999999 42.24, 15.299999999999999 42.21, 15.299999999999999 42.24 L 15.299999999999999 42.36" fill="none" stroke="black" stroke-width="2"></path><path d="M 15.24 32.82 C 15.45 32.58, 14.73 32.625, 15.66 32.339999999999996 C 17.310000000000002 32.01, 17.37 31.845, 18.96 31.68 C 20.490000000000002 31.68, 20.43 31.725, 22.02 31.68 C 23.67 31.59, 23.955 31.545, 25.32 31.5 C 26.4 31.5, 26.28 31.5, 27.48 31.5 C 28.799999999999997 31.5, 28.979999999999997 31.455, 30.119999999999997 31.5 C 31.08 31.59, 31.32 31.59, 32.04 31.68 C 32.519999999999996 31.77, 32.685 31.799999999999997, 33 31.86 C 33.15 31.89, 33.105 31.875, 33.3 31.92 C 33.54 31.98, 33.585 32.01, 33.78 32.04 C 33.93 32.04, 33.885 32.01, 34.08 32.04 C 34.32 32.1, 34.44 32.13, 34.56 32.160000000000004 L 34.56 32.160000000000004" fill="none" stroke="black" stroke-width="2"></path></svg>