<svg width="48" height="48" viewBox="0 0 48 48" xmlns="http://www.w3.org/2000/svg"><path d="M 11.100000000000001 45.839999999999996 C 11.010000000000002 45.089999999999996, 11.325 46.214999999999996, 10.92 44.339999999999996 C 10.2 41.339999999999996, 9.975000000000001 40.724999999999994, 9.48 38.339999999999996 C 9.21 36.56999999999999, 9.21 36.974999999999994, 8.94 34.8 C 8.669999999999998 32.22, 8.564999999999998 32.565, 8.399999999999999 29.64 C 8.34 26.37, 8.309999999999999 25.470000000000002, 8.28 23.1 C 8.28 21.630000000000003, 8.235 21.195, 8.28 20.16 C 8.37 19.560000000000002, 8.235 19.8, 8.459999999999999 18.96 C 8.82 17.88, 8.864999999999998 17.699999999999996, 9.18 16.799999999999997 C 9.45 16.08, 9.540000000000001 15.84, 9.72 15.36 C 9.809999999999999 15.12, 9.764999999999999 15.014999999999999, 9.899999999999999 14.879999999999999 C 10.079999999999998 14.85, 9.84 14.504999999999999, 10.26 14.82 C 10.92 15.48, 10.965 15.375, 11.58 16.14 C 12.15 17.009999999999998, 12.15 16.86, 12.72 17.88 C 13.29 19.049999999999997, 13.424999999999999 19.335, 13.86 20.22 C 14.16 20.82, 14.295000000000002 21.074999999999996, 14.46 21.419999999999998 C 14.49 21.509999999999998, 14.504999999999999 21.555, 14.52 21.6 C 14.52 21.6, 14.475 21.705000000000002, 14.52 21.6 C 14.61 21.39, 14.64 21.54, 14.700000000000001 21.18 C 14.73 20.67, 14.655 20.835, 14.76 20.16 C 14.940000000000001 19.32, 14.91 19.215, 15.120000000000001 18.48 C 15.360000000000001 17.85, 15.225000000000001 17.849999999999998, 15.600000000000001 17.22 C 16.11 16.59, 16.080000000000002 16.515, 16.62 15.96 C 17.189999999999998 15.48, 16.965 15.45, 17.759999999999998 15 C 18.779999999999998 14.58, 18.824999999999996 14.415, 19.799999999999997 14.16 C 20.729999999999997 14.07, 20.625 14.025, 21.66 13.98 C 22.8 13.98, 22.905 13.8, 23.94 13.98 C 24.869999999999997 14.34, 25.08 14.265, 25.799999999999997 14.700000000000001 C 26.31 15.21, 26.294999999999998 14.850000000000001, 26.82 15.72 C 27.36 16.95, 27.6 17.025, 27.900000000000002 18.18 C 27.96 19.259999999999998, 27.990000000000002 19.32, 28.02 20.34 C 28.02 21.299999999999997, 28.065 21.584999999999997, 28.02 22.259999999999998 C 27.93 22.65, 28.184999999999995 22.515, 27.839999999999996 23.04 C 27.24 23.7, 27.494999999999997 23.805, 26.64 24.36 C 25.53 24.81, 25.245 25.004999999999995, 24.42 25.259999999999998 C 23.880000000000003 25.32, 23.775 25.365000000000002, 23.34 25.380000000000003 C 23.009999999999998 25.35, 23.16 25.695, 22.68 25.32 C 22.049999999999997 24.6, 21.959999999999997 24.72, 21.419999999999998 23.88 C 20.97 22.92, 20.88 23.04, 20.52 21.96 C 20.25 20.759999999999998, 20.115000000000002 20.61, 19.98 19.56 C 19.98 18.659999999999997, 19.98 18.674999999999997, 19.98 17.759999999999998 C 19.98 16.83, 19.98 16.544999999999998, 19.98 15.899999999999999 C 19.98 15.54, 19.95 15.524999999999999, 19.98 15.18 C 20.04 14.85, 20.07 14.684999999999999, 20.1 14.52 C 20.1 14.52, 20.1 14.52, 20.1 14.52 L 20.1 14.52" fill="none" stroke="black" stroke-width="2"></path><path d="M 7.32 6.48 C 9.120000000000001 6.48, 8.715 6.48, 10.92 6.48 C 13.530000000000001 6.48, 13.755 6.48, 16.14 6.48 C 18.3 6.48, 18.645000000000003 6.4350000000000005, 20.46 6.48 C 21.93 6.57, 22.424999999999997 6.6, 23.4 6.66 C 23.88 6.69, 23.955 6.630000000000001, 24.36 6.720000000000001 C 24.689999999999998 6.87, 24.57 6.945, 25.02 7.02 L 26.160000000000004 7.02" fill="none" stroke="black" stroke-width="2"></path></svg>