<svg width="48" height="48" viewBox="0 0 48 48" xmlns="http://www.w3.org/2000/svg"><path d="M 15.299999999999999 6.36 C 15.75 6.33, 15.690000000000003 6.315, 16.200000000000003 6.300000000000001 C 16.770000000000003 6.300000000000001, 16.35 6.4350000000000005, 17.34 6.300000000000001 C 18.75 6.03, 18.84 5.895, 20.16 5.76 C 21.39 5.76, 21.270000000000003 5.805, 22.62 5.76 C 24.09 5.67, 24.404999999999998 5.625, 25.56 5.58 C 26.4 5.58, 26.175 5.61, 27.240000000000002 5.58 C 28.53 5.52, 28.68 5.505, 29.82 5.46 C 30.81 5.43, 30.869999999999997 5.415, 31.799999999999997 5.4 C 32.67 5.4, 32.864999999999995 5.4, 33.54 5.4 C 34.019999999999996 5.4, 33.99 5.4, 34.5 5.4 C 35.04 5.4, 35.114999999999995 5.385000000000001, 35.58 5.4 C 35.97 5.43, 36.105000000000004 5.415, 36.36 5.46 C 36.48 5.52, 36.53999999999999 5.55, 36.599999999999994 5.58 L 36.599999999999994 5.58" fill="none" stroke="black" stroke-width="2"></path><path d="M 21.299999999999997 5.16 C 21.21 5.16, 21.33 4.995, 21.12 5.16 C 20.79 5.49, 20.895000000000003 5.130000000000001, 20.46 5.82 C 19.92 6.87, 19.814999999999998 6.87, 19.38 7.92 C 19.049999999999997 8.969999999999999, 19.02 8.834999999999999, 18.72 10.02 C 18.45 11.34, 18.48 11.235, 18.18 12.66 C 17.85 14.190000000000001, 17.759999999999998 14.505, 17.52 15.72 C 17.369999999999997 16.62, 17.4 16.455, 17.22 17.52 C 17.009999999999998 18.75, 16.949999999999996 18.78, 16.799999999999997 19.98 C 16.71 21.15, 16.665 21.225, 16.62 22.32 C 16.62 23.34, 16.62 23.564999999999998, 16.62 24.36 C 16.62 24.93, 16.59 24.735, 16.62 25.5 C 16.68 26.46, 16.605000000000004 26.64, 16.740000000000002 27.42 C 16.950000000000003 28.02, 16.89 28.11, 17.16 28.619999999999997 C 17.490000000000002 29.04, 17.535 29.16, 17.82 29.46 C 18.06 29.64, 17.819999999999997 29.625, 18.299999999999997 29.82 C 19.02 30.03, 19.080000000000002 30.105000000000004, 19.740000000000002 30.240000000000002 C 20.340000000000003 30.3, 20.28 30.33, 20.94 30.36 C 21.66 30.36, 21.689999999999998 30.36, 22.38 30.36 C 23.04 30.36, 23.025000000000002 30.36, 23.700000000000003 30.36 C 24.39 30.36, 24.36 30.314999999999998, 25.08 30.36 C 25.83 30.45, 25.934999999999995 30.404999999999998, 26.58 30.54 C 27.12 30.72, 27.030000000000005 30.675, 27.660000000000004 30.900000000000002 C 28.380000000000003 31.17, 28.335 31.110000000000003, 29.099999999999998 31.44 C 29.909999999999997 31.83, 29.939999999999998 31.709999999999997, 30.72 32.22 C 31.47 32.85, 31.634999999999998 32.925000000000004, 32.22 33.480000000000004 C 32.64 33.96, 32.67 33.855, 33.06 34.44 C 33.42 35.129999999999995, 33.555 35.07, 33.78 35.82 C 33.870000000000005 36.629999999999995, 33.915 36.72, 33.96 37.44 C 33.96 38.07, 34.095 38.13, 33.96 38.7 C 33.69 39.21, 33.63 39.3, 33.42 39.72 C 33.269999999999996 40.05, 33.495 39.96, 33.12 40.38 C 32.519999999999996 40.89, 32.505 41.025000000000006, 31.92 41.400000000000006 C 31.35 41.64, 31.560000000000002 41.580000000000005, 30.78 41.88 C 29.79 42.239999999999995, 29.669999999999998 42.36, 28.799999999999997 42.599999999999994 C 28.049999999999997 42.72, 27.915 42.72, 27.299999999999997 42.839999999999996 C 26.819999999999997 42.959999999999994, 26.624999999999993 43.019999999999996, 26.339999999999996 43.08 L 26.160000000000004 43.08" fill="none" stroke="black" stroke-width="2"></path><path d="M 30.299999999999997 31.44 C 30.54 31.47, 30.48 31.485, 30.78 31.5 C 31.14 31.5, 31.185000000000002 31.634999999999998, 31.5 31.5 C 31.77 31.23, 31.68 31.545, 32.04 30.96 C 32.489999999999995 30.060000000000002, 32.519999999999996 29.955000000000005, 32.94 29.160000000000004 C 33.33 28.470000000000002, 33.435 28.380000000000003, 33.72 27.78 C 33.9 27.27, 33.945 27.584999999999997, 34.08 26.759999999999998 C 34.17 25.619999999999997, 34.214999999999996 25.89, 34.26 24.48 C 34.26 22.8, 34.349999999999994 22.86, 34.26 21.12 C 34.08 19.32, 34.065000000000005 18.9, 33.900000000000006 17.52 C 33.75 16.560000000000002, 33.76499999999999 16.71, 33.599999999999994 15.600000000000001 C 33.42 14.340000000000002, 33.45 14.265000000000002, 33.24 13.080000000000002 C 33 11.97, 32.955 11.85, 32.76 10.86 C 32.61 9.99, 32.64 9.84, 32.46 9.120000000000001 C 32.25 8.55, 32.235 8.505, 32.04 7.98 C 31.86 7.5, 31.86 7.425, 31.68 7.02 C 31.5 6.6899999999999995, 31.425 6.57, 31.32 6.36 C 31.29 6.27, 31.275 6.225, 31.259999999999998 6.18 C 31.259999999999998 6.18, 31.259999999999998 6.18, 31.259999999999998 6.18 L 31.259999999999998 6.18" fill="none" stroke="black" stroke-width="2"></path></svg>