<svg width="48" height="48" viewBox="0 0 48 48" xmlns="http://www.w3.org/2000/svg"><path d="M 12.299999999999999 43.92 C 11.73 41.97, 11.55 41.849999999999994, 11.16 40.019999999999996 C 10.95 38.309999999999995, 11.01 38.294999999999995, 10.74 36.599999999999994 C 10.41 34.92, 10.35 35.085, 10.08 33.24 C 9.870000000000001 31.23, 9.765 31.244999999999997, 9.66 29.22 C 9.66 27.18, 9.645 27.060000000000002, 9.66 25.14 C 9.690000000000001 23.34, 9.57 23.189999999999998, 9.72 21.54 C 9.99 20.04, 10.004999999999999 19.575, 10.26 18.54 C 10.5 17.97, 10.440000000000001 17.895, 10.74 17.4 C 11.1 16.979999999999997, 10.995 16.994999999999997, 11.459999999999999 16.56 C 12.030000000000001 16.11, 12.120000000000001 15.93, 12.600000000000001 15.66 C 12.99 15.57, 12.989999999999998 15.525, 13.379999999999999 15.48 C 13.77 15.48, 13.71 15.255, 14.16 15.48 C 14.67 15.93, 14.745000000000001 15.959999999999999, 15.18 16.38 C 15.54 16.77, 15.524999999999999 16.515, 15.899999999999999 17.16 C 16.29 18.060000000000002, 16.38 17.85, 16.68 18.96 C 16.89 20.28, 16.995 20.400000000000002, 17.1 21.6 C 17.1 22.68, 17.1 23.025, 17.1 23.759999999999998 C 17.1 24.15, 17.055 24.27, 17.1 24.54 C 17.19 24.689999999999998, 17.19 24.719999999999995, 17.28 24.839999999999996 C 17.37 24.93, 17.265 24.96, 17.46 25.02 C 17.759999999999998 25.049999999999997, 17.775 25.275, 18.06 25.08 C 18.33 24.66, 18.39 24.645000000000003, 18.6 24.240000000000002 C 18.75 23.85, 18.705 23.985, 18.9 23.46 C 19.14 22.8, 19.2 22.725, 19.38 22.14 C 19.5 21.630000000000003, 19.29 22.080000000000002, 19.62 21.12 C 20.160000000000004 19.71, 20.280000000000005 19.334999999999997, 20.700000000000003 18.299999999999997 C 21 17.64, 20.97 17.564999999999998, 21.299999999999997 16.98 C 21.659999999999997 16.47, 21.645 16.335, 22.02 15.96 C 22.409999999999997 15.72, 22.319999999999997 15.66, 22.799999999999997 15.48 C 23.369999999999997 15.36, 23.355 15.24, 23.94 15.24 C 24.54 15.36, 24.6 15.285, 25.14 15.48 C 25.619999999999997 15.75, 25.47 15.54, 26.099999999999998 16.02 C 26.880000000000003 16.71, 26.910000000000004 16.47, 27.660000000000004 17.4 C 28.380000000000003 18.57, 28.424999999999997 18.315, 29.099999999999998 19.740000000000002 C 29.729999999999997 21.42, 29.925 21.480000000000004, 30.36 23.1 C 30.599999999999998 24.66, 30.72 24.63, 30.839999999999996 26.22 C 30.839999999999996 27.84, 30.839999999999996 27.255000000000003, 30.839999999999996 29.46 C 30.839999999999996 32.25, 30.884999999999994 32.94, 30.839999999999996 35.04 C 30.75 36.45, 30.795 36.675, 30.660000000000004 37.86 C 30.48 38.82, 30.435 38.94, 30.299999999999997 39.78 C 30.209999999999997 40.5, 30.254999999999995 40.455, 30.119999999999997 41.22 C 29.939999999999998 42.03, 29.909999999999997 42.19499999999999, 29.759999999999998 42.839999999999996 C 29.64 43.31999999999999, 29.595 43.485, 29.52 43.8 C 29.490000000000002 43.949999999999996, 29.475 44.02499999999999, 29.46 44.099999999999994 C 29.46 44.099999999999994, 29.46 44.099999999999994, 29.46 44.099999999999994 L 29.46 44.099999999999994" fill="none" stroke="black" stroke-width="2"></path><path d="M 8.94 6.0600000000000005 C 10.98 6.15, 10.844999999999999 6.195, 13.02 6.24 C 15.33 6.24, 15.555 6.24, 17.64 6.24 C 19.5 6.24, 19.83 6.24, 21.36 6.24 C 22.56 6.24, 22.604999999999997 6.195, 23.759999999999998 6.24 C 24.869999999999997 6.33, 25.185 6.375, 25.98 6.42 C 26.46 6.42, 26.580000000000002 6.42, 26.94 6.42 L 27.42 6.42" fill="none" stroke="black" stroke-width="2"></path><path d="M 18.96 33.78 C 18.57 33.96, 18.509999999999998 33.735, 18.18 34.14 C 17.91 34.77, 17.415 34.980000000000004, 17.64 35.400000000000006 C 18.36 35.61, 18.360000000000003 36.075, 19.080000000000002 35.82 C 19.8 35.1, 20.19 35.025000000000006, 20.52 34.38 C 20.46 33.81, 20.58 33.690000000000005, 20.4 33.24 C 20.099999999999998 32.91, 20.309999999999995 32.67, 19.799999999999997 32.58 C 19.08 32.730000000000004, 18.974999999999998 32.31, 18.36 32.88 C 17.85 33.870000000000005, 17.34 34.26, 17.34 34.86 C 17.85 35.07, 17.835 35.235, 18.36 35.28 C 18.9 35.16, 19.11 35.415, 19.44 35.04 C 19.560000000000002 34.41, 19.62 34.125, 19.68 33.78 C 19.68 33.72, 19.845 33.63, 19.68 33.660000000000004 C 19.35 33.78, 19.32 33.465, 19.02 33.900000000000006 C 18.75 34.650000000000006, 18.45 34.80000000000001, 18.48 35.400000000000006 C 18.810000000000002 35.85, 18.66 36.3, 19.14 36.3 C 19.77 35.85, 20.025 35.86500000000001, 20.4 35.400000000000006 C 20.52 34.92, 20.73 34.769999999999996, 20.64 34.44 C 20.34 34.26, 20.31 34.17, 20.04 34.08 L 19.56 34.08" fill="none" stroke="black" stroke-width="2"></path></svg>