<svg width="48" height="48" viewBox="0 0 48 48" xmlns="http://www.w3.org/2000/svg"><path d="M 7.92 43.14 C 8.399999999999999 43.11, 8.04 43.095, 8.879999999999999 43.08 C 10.079999999999998 43.08, 9.614999999999998 43.08, 11.28 43.08 C 13.41 43.08, 13.979999999999999 43.08, 15.54 43.08 C 16.53 43.08, 17.025 43.08, 17.52 43.08 C 17.52 43.08, 17.474999999999998 43.305, 17.52 43.08 C 17.61 42.629999999999995, 17.790000000000003 42.93, 17.700000000000003 42.18 C 17.43 41.129999999999995, 17.415 40.935, 17.16 40.08 C 16.92 39.42, 16.8 39.089999999999996, 16.68 38.76 C 16.68 38.76, 16.68 38.79, 16.68 38.76 C 16.68 38.7, 16.605 38.7, 16.68 38.64 C 16.83 38.58, 16.59 38.28, 16.98 38.519999999999996 C 17.61 39.059999999999995, 17.25 38.62499999999999, 18.240000000000002 39.599999999999994 C 19.590000000000003 41.01, 19.725 41.415, 20.94 42.42 C 22.020000000000003 43.019999999999996, 22.425 43.275, 23.1 43.62 C 23.37 43.709999999999994, 23.25 43.98, 23.64 43.8 C 24.150000000000002 43.35, 24.105000000000004 44.010000000000005, 24.660000000000004 42.900000000000006 C 25.26 41.13, 25.59 41.205, 25.86 39.36 C 25.8 37.44, 26.205000000000002 37.529999999999994, 25.740000000000002 35.519999999999996 C 24.87 33.42, 24.825 33.045, 24 31.32 C 23.22 29.97, 23.340000000000003 30.33, 22.44 28.619999999999997 C 21.42 26.549999999999997, 21.209999999999997 26.175, 20.4 24.48 C 19.8 23.16, 19.665000000000003 22.875, 19.200000000000003 21.84 C 18.87 21.09, 18.884999999999998 21.06, 18.54 20.34 C 18.18 19.65, 18 19.305, 17.82 18.96 C 17.82 18.96, 17.82 18.96, 17.82 18.96 L 17.82 18.96" fill="none" stroke="black" stroke-width="2"></path><path d="M 8.100000000000001 18.84 C 10.23 18.78, 10.065 18.884999999999998, 12.36 18.72 C 14.82 18.45, 15.330000000000002 18.36, 17.28 18.18 C 18.72 18.09, 18.735 18.045, 20.16 18 C 21.57 18, 22.05 18, 22.98 18 C 23.43 18, 23.58 18, 23.88 18 L 24.18 18" fill="none" stroke="black" stroke-width="2"></path></svg>