<svg width="48" height="48" viewBox="0 0 48 48" xmlns="http://www.w3.org/2000/svg"><path d="M 11.34 28.14 C 10.86 25.35, 10.68 24.659999999999997, 10.379999999999999 22.56 C 10.26 21.15, 10.2 21.060000000000002, 10.14 19.740000000000002 C 10.14 18.51, 10.05 18.21, 10.14 17.28 C 10.32 16.65, 10.365 16.515, 10.5 16.02 C 10.59 15.66, 10.515 15.54, 10.68 15.299999999999999 C 10.92 15.18, 10.83 14.939999999999998, 11.16 15.059999999999999 C 11.58 15.419999999999998, 11.49 15.195, 12 15.78 C 12.600000000000001 16.59, 12.63 16.544999999999998, 13.200000000000001 17.4 C 13.74 18.3, 13.77 18.240000000000002, 14.28 19.200000000000003 C 14.76 20.220000000000002, 14.895 20.520000000000003, 15.24 21.240000000000002 C 15.45 21.660000000000004, 15.555 21.87, 15.66 22.080000000000002 C 15.66 22.080000000000002, 15.66 22.080000000000002, 15.66 22.080000000000002 C 15.66 22.080000000000002, 15.585 22.380000000000003, 15.66 22.080000000000002 C 15.81 21.48, 15.795000000000002 21.72, 15.96 20.88 C 16.14 19.799999999999997, 16.14 19.65, 16.32 18.72 C 16.5 17.939999999999998, 16.515 17.745, 16.68 17.16 C 16.83 16.77, 16.65 16.724999999999998, 16.98 16.38 C 17.490000000000002 16.08, 17.28 15.974999999999998, 18 15.78 C 18.93 15.690000000000001, 18.465 15.690000000000001, 19.86 15.600000000000001 C 21.72 15.51, 22.05 15.509999999999998, 23.580000000000002 15.419999999999998 C 24.78 15.329999999999998, 25.125 15.33, 25.98 15.24 C 26.490000000000002 15.149999999999999, 26.745 15.104999999999999, 27 15.059999999999999 L 27 15.059999999999999" fill="none" stroke="black" stroke-width="2"></path><path d="M 11.82 8.7 C 13.950000000000001 8.7, 13.980000000000002 8.7, 16.080000000000002 8.7 C 18.15 8.7, 18.314999999999998 8.7, 20.22 8.7 C 21.96 8.7, 22.395000000000003 8.7, 23.700000000000003 8.7 C 24.57 8.7, 24.855000000000004 8.7, 25.44 8.7 C 25.740000000000002 8.7, 25.665 8.7, 26.04 8.7 C 26.490000000000002 8.7, 26.67 8.7, 26.94 8.7 L 27.119999999999997 8.7" fill="none" stroke="black" stroke-width="2"></path><path d="M 21.12 15.48 C 20.759999999999998 17.43, 20.744999999999997 17.354999999999997, 20.4 19.38 C 20.07 21.48, 20.04 20.955000000000002, 19.740000000000002 23.580000000000002 C 19.470000000000002 26.730000000000004, 19.395000000000003 27.3, 19.200000000000003 29.880000000000003 C 19.080000000000002 31.890000000000004, 19.020000000000003 32.040000000000006, 18.96 33.900000000000006 C 18.96 35.61, 18.96 35.955, 18.96 37.32 C 18.96 38.34, 18.96 38.22, 18.96 39.36 C 18.96 40.620000000000005, 18.96 40.785000000000004, 18.96 41.88 C 18.96 42.81, 18.96 43.2, 18.96 43.74 C 18.96 43.89, 18.96 43.965, 18.96 44.04 L 18.96 44.04" fill="none" stroke="black" stroke-width="2"></path></svg>