<svg width="48" height="48" viewBox="0 0 48 48" xmlns="http://www.w3.org/2000/svg"><path d="M 11.76 6.300000000000001 C 11.85 6.24, 11.565 6.21, 11.94 6.18 C 12.6 6.18, 12.495 6.18, 13.26 6.18 C 14.129999999999999 6.18, 13.74 6.18, 15 6.18 C 16.65 6.18, 16.724999999999998 6.194999999999999, 18.299999999999997 6.18 C 19.799999999999997 6.15, 19.994999999999997 6.21, 21.299999999999997 6.12 C 22.409999999999997 5.970000000000001, 22.349999999999998 5.8950000000000005, 23.52 5.82 C 24.75 5.82, 24.69 5.82, 25.98 5.82 C 27.33 5.82, 27.615 5.82, 28.68 5.82 C 29.46 5.82, 29.37 5.82, 30.240000000000002 5.82 C 31.200000000000003 5.82, 31.425000000000004 5.82, 32.160000000000004 5.82 C 32.67 5.82, 32.61 5.82, 33.18 5.82 C 33.81 5.82, 33.824999999999996 5.82, 34.44 5.82 C 35.04 5.82, 35.1 5.82, 35.64 5.82 C 36.12 5.82, 36.209999999999994 5.8500000000000005, 36.599999999999994 5.82 C 36.9 5.76, 37.05 5.7299999999999995, 37.2 5.699999999999999 L 37.2 5.699999999999999" fill="none" stroke="black" stroke-width="2"></path><path d="M 19.62 6.0600000000000005 C 19.47 6.09, 19.785 5.73, 19.32 6.12 C 18.54 6.87, 18.509999999999998 6.48, 17.759999999999998 7.62 C 17.04 9.15, 17.04 8.895, 16.32 10.68 C 15.6 12.719999999999999, 15.54 12.69, 14.879999999999999 14.76 C 14.28 16.86, 14.325 16.8, 13.68 18.96 C 12.989999999999998 21.18, 12.959999999999999 21.375, 12.299999999999999 23.4 C 11.67 25.229999999999997, 11.445 25.214999999999996, 11.040000000000001 27.06 C 10.86 28.92, 10.8 29.355, 10.68 30.78 C 10.620000000000001 31.77, 10.71 31.409999999999997, 10.56 32.76 C 10.32 34.47, 10.26 34.68, 10.08 36.18 C 9.96 37.47, 9.855 37.905, 9.84 38.76 C 9.93 39.17999999999999, 9.855 39.224999999999994, 10.02 39.599999999999994 C 10.26 39.92999999999999, 10.215 39.92999999999999, 10.5 40.26 C 10.83 40.59, 10.8 40.755, 11.16 40.92 C 11.55 40.92, 11.445 40.92, 11.94 40.92 C 12.54 40.92, 12.57 41.010000000000005, 13.14 40.92 C 13.68 40.74, 13.545000000000002 41.160000000000004, 14.22 40.56 C 15.030000000000001 39.54, 15.105 39.78, 15.84 38.519999999999996 C 16.5 37.019999999999996, 16.515 37.49999999999999, 17.16 35.519999999999996 C 17.79 33.059999999999995, 18 32.42999999999999, 18.419999999999998 30.599999999999998 C 18.63 29.4, 18.66 29.01, 18.84 28.200000000000003 C 18.990000000000002 27.78, 19.05 27.585, 19.14 27.36 C 19.17 27.33, 19.17 26.939999999999998, 19.200000000000003 27.299999999999997 C 19.23 28.049999999999997, 19.259999999999998 27.734999999999996, 19.259999999999998 28.799999999999997 C 19.23 30.18, 19.215000000000003 30.435, 19.200000000000003 31.56 C 19.200000000000003 32.43, 19.200000000000003 32.16, 19.200000000000003 33.3 C 19.200000000000003 34.709999999999994, 19.125000000000004 35.06999999999999, 19.200000000000003 36.12 C 19.35 36.81, 19.275 36.975, 19.5 37.5 C 19.8 37.86, 19.785000000000004 37.965, 20.1 38.22 C 20.43 38.37, 20.279999999999998 38.294999999999995, 20.759999999999998 38.519999999999996 C 21.39 38.81999999999999, 21.465 38.925, 22.02 39.12 C 22.5 39.209999999999994, 22.38 39.48, 22.98 39.3 C 23.700000000000003 38.85, 23.805 39.55500000000001, 24.42 38.400000000000006 C 24.93 36.540000000000006, 24.87 36.525, 25.44 34.68 C 26.07 32.85, 25.890000000000004 32.685, 26.700000000000003 31.02 C 27.69 29.52, 27.855 28.89, 28.68 28.02 C 29.34 27.78, 29.445 27.57, 30 27.54 C 30.450000000000003 27.72, 30.42 27.57, 30.900000000000002 27.900000000000002 C 31.410000000000004 28.380000000000003, 31.290000000000003 27.87, 31.92 28.86 C 32.67 30.36, 32.940000000000005 30.689999999999998, 33.42 31.86 C 33.629999999999995 32.7, 33.735 32.504999999999995, 33.839999999999996 33.54 C 33.839999999999996 34.769999999999996, 34.035 34.875, 33.839999999999996 36 C 33.45 37.019999999999996, 33.645 37.019999999999996, 33.06 38.04 C 32.28 39.06, 32.1 39.449999999999996, 31.5 40.08 C 31.080000000000002 40.32, 31.17 40.38, 30.660000000000004 40.56 C 30.060000000000002 40.68, 30.12 40.86, 29.46 40.8 C 28.740000000000002 40.56, 28.8 40.769999999999996, 28.02 40.32 C 27.18 39.66, 26.969999999999995 39.72, 26.339999999999996 39 C 25.919999999999998 38.22, 25.77 37.905, 25.5 37.44 C 25.38 37.29, 25.365 37.305, 25.259999999999998 37.14 C 25.169999999999998 36.96, 25.139999999999997 36.9, 25.08 36.78 C 25.049999999999997 36.72, 25.035 36.690000000000005, 25.02 36.660000000000004 L 25.02 36.660000000000004" fill="none" stroke="black" stroke-width="2"></path></svg>