<svg width="48" height="48" viewBox="0 0 48 48" xmlns="http://www.w3.org/2000/svg"><path d="M 14.940000000000001 4.4399999999999995 C 15.570000000000002 4.4399999999999995, 15.555000000000003 4.4399999999999995, 16.200000000000003 4.4399999999999995 C 16.86 4.4399999999999995, 16.545 4.4399999999999995, 17.52 4.4399999999999995 C 18.810000000000002 4.4399999999999995, 18.990000000000002 4.4399999999999995, 20.1 4.4399999999999995 C 21.03 4.4399999999999995, 21.105 4.454999999999999, 21.96 4.4399999999999995 C 22.740000000000002 4.41, 22.86 4.38, 23.52 4.38 C 24.06 4.41, 23.744999999999997 4.379999999999999, 24.599999999999998 4.4399999999999995 C 25.77 4.529999999999999, 25.755000000000003 4.575, 26.94 4.62 C 28.14 4.62, 28.289999999999996 4.62, 29.339999999999996 4.62 C 30.24 4.62, 30.509999999999998 4.62, 31.14 4.62 C 31.5 4.62, 31.515 4.62, 31.86 4.62 C 32.19 4.62, 32.205 4.62, 32.519999999999996 4.62 C 32.81999999999999 4.62, 32.925 4.62, 33.12 4.62 C 33.209999999999994 4.62, 33.105 4.62, 33.3 4.62 C 33.6 4.62, 33.75 4.62, 33.900000000000006 4.62 C 33.900000000000006 4.62, 33.900000000000006 4.62, 33.900000000000006 4.62 L 33.900000000000006 4.62" fill="none" stroke="black" stroke-width="2"></path><path d="M 20.22 4.5 C 20.13 5.22, 20.31 4.935, 20.04 5.9399999999999995 C 19.59 7.2299999999999995, 19.53 7.35, 19.14 8.52 C 18.810000000000002 9.57, 18.735 9.510000000000002, 18.48 10.620000000000001 C 18.3 11.790000000000001, 18.21 12.030000000000001, 18.12 12.96 C 18.12 13.65, 18.165 13.5, 18.12 14.34 C 18.03 15.33, 18.03 15.57, 17.94 16.32 C 17.85 16.83, 17.895 16.56, 17.759999999999998 17.34 C 17.58 18.39, 17.534999999999997 18.525000000000002, 17.4 19.44 C 17.31 20.22, 17.31 20.145, 17.22 21 C 17.13 21.93, 17.115 21.93, 17.04 22.86 C 16.979999999999997 23.79, 16.95 24.104999999999997, 16.919999999999998 24.72 C 16.919999999999998 25.02, 16.919999999999998 24.945, 16.919999999999998 25.32 C 16.919999999999998 25.77, 16.754999999999995 25.74, 16.919999999999998 26.22 C 17.25 26.73, 17.175 26.925, 17.580000000000002 27.240000000000002 C 18.060000000000002 27.36, 18.06 27.36, 18.54 27.48 C 19.02 27.6, 18.945 27.599999999999998, 19.5 27.72 C 20.13 27.84, 19.799999999999997 27.855, 20.759999999999998 27.96 C 22.049999999999997 28.05, 22.035 28.095, 23.34 28.14 C 24.66 28.14, 24.93 28.11, 25.98 28.14 C 26.759999999999998 28.2, 26.669999999999998 28.214999999999996, 27.54 28.259999999999998 C 28.5 28.29, 28.545 28.305, 29.46 28.32 C 30.330000000000002 28.32, 30.6 28.365000000000002, 31.200000000000003 28.32 C 31.53 28.23, 31.545 28.35, 31.86 28.14 C 32.16 27.810000000000002, 32.28 27.84, 32.46 27.48 C 32.519999999999996 27.090000000000003, 32.55 27.225, 32.58 26.700000000000003 C 32.58 26.040000000000003, 32.535 26.115000000000002, 32.58 25.380000000000003 C 32.67 24.57, 32.714999999999996 24.555, 32.76 23.759999999999998 C 32.76 22.98, 32.714999999999996 23.175000000000004, 32.76 22.200000000000003 C 32.849999999999994 21.03, 32.894999999999996 21.134999999999998, 32.94 19.86 C 32.94 18.48, 32.985 18.330000000000002, 32.94 17.1 C 32.849999999999994 16.020000000000003, 32.879999999999995 16.305, 32.76 14.940000000000001 C 32.61 13.290000000000001, 32.625 12.945, 32.46 11.64 C 32.28 10.68, 32.294999999999995 10.635000000000002, 32.099999999999994 9.72 C 31.889999999999997 8.850000000000001, 31.845 8.565000000000001, 31.68 7.98 C 31.560000000000002 7.68, 31.590000000000003 7.695, 31.44 7.38 C 31.259999999999998 7.050000000000001, 31.23 7.050000000000001, 31.08 6.720000000000001 C 30.959999999999997 6.390000000000001, 31.004999999999995 6.510000000000001, 30.839999999999996 6.0600000000000005 C 30.63 5.49, 30.54 5.265000000000001, 30.42 4.92 C 30.39 4.8, 30.375 4.74, 30.36 4.68 C 30.36 4.68, 30.36 4.68, 30.36 4.68 L 30.36 4.68" fill="none" stroke="black" stroke-width="2"></path><path d="M 26.94 27.900000000000002 C 26.97 28.800000000000004, 26.94 28.710000000000004, 27 29.700000000000003 C 27.09 30.78, 27.134999999999998 30.494999999999997, 27.18 31.86 C 27.18 33.510000000000005, 27.18 34.005, 27.18 35.160000000000004 C 27.18 35.82000000000001, 27.18 35.745000000000005, 27.18 36.480000000000004 C 27.18 37.29, 27.24 37.334999999999994, 27.18 38.099999999999994 C 27.060000000000002 38.81999999999999, 27.285000000000004 38.745, 26.94 39.54 C 26.369999999999997 40.41, 26.339999999999996 40.545, 25.799999999999997 41.28 C 25.29 41.88, 25.29 41.970000000000006, 24.78 42.480000000000004 C 24.27 42.900000000000006, 24.404999999999998 42.9, 23.759999999999998 43.32 C 22.98 43.74, 22.92 43.800000000000004, 22.200000000000003 44.160000000000004 C 21.54 44.46, 21.81 44.415, 20.88 44.76 C 19.68 45.15, 19.32 45.285, 18.48 45.54 C 18 45.66, 17.805 45.69, 17.52 45.78 C 17.43 45.84, 17.46 45.855000000000004, 17.34 45.900000000000006 L 17.04 45.96" fill="none" stroke="black" stroke-width="2"></path></svg>