<svg width="48" height="48" viewBox="0 0 48 48" xmlns="http://www.w3.org/2000/svg"><path d="M 11.399999999999999 43.980000000000004 C 10.889999999999999 40.71, 10.829999999999998 40.53, 10.379999999999999 37.44 C 9.99 34.53, 9.840000000000002 33.72, 9.600000000000001 31.619999999999997 C 9.510000000000002 30.33, 9.495000000000001 30.45, 9.42 29.04 C 9.36 27.509999999999998, 9.33 27.314999999999998, 9.3 25.98 C 9.3 24.840000000000003, 9.3 24.615000000000002, 9.3 23.700000000000003 C 9.3 23.01, 9.285 22.965, 9.3 22.32 C 9.33 21.72, 9.27 21.66, 9.36 21.12 C 9.51 20.64, 9.42 20.655, 9.66 20.16 C 9.99 19.65, 9.705 19.695, 10.32 19.14 C 11.22 18.54, 11.235000000000001 18.405, 12.120000000000001 17.94 C 12.99 17.61, 12.66 17.445, 13.86 17.28 C 15.389999999999999 17.28, 15.089999999999998 17.28, 16.919999999999998 17.28 C 19.049999999999997 17.28, 19.305 17.325000000000003, 21.18 17.28 C 22.8 17.19, 23.535000000000004 17.145000000000003, 24.42 17.1 L 24.72 17.1" fill="none" stroke="black" stroke-width="2"></path><path d="M 9.42 8.34 C 9.66 8.37, 8.834999999999999 8.384999999999998, 9.899999999999999 8.399999999999999 C 11.79 8.399999999999999, 11.655 8.459999999999997, 13.68 8.399999999999999 C 15.84 8.28, 15.84 8.219999999999999, 18 8.16 C 20.16 8.16, 20.7 8.16, 22.32 8.16 C 23.4 8.16, 23.91 8.16, 24.48 8.16 L 24.599999999999998 8.16" fill="none" stroke="black" stroke-width="2"></path><path d="M 19.32 26.700000000000003 C 18.54 26.970000000000002, 18.45 26.730000000000004, 17.759999999999998 27.240000000000002 C 17.159999999999997 27.990000000000002, 16.964999999999996 28.065, 16.56 28.740000000000002 C 16.35 29.340000000000003, 16.335 28.965000000000003, 16.14 29.94 C 15.96 31.29, 15.794999999999998 31.395, 15.78 32.64 C 15.93 33.78, 15.780000000000001 34.035000000000004, 16.080000000000002 34.92 C 16.53 35.55, 16.5 35.64, 16.98 36.18 C 17.490000000000002 36.629999999999995, 17.13 36.765, 18 37.08 C 19.23 37.26, 19.29 37.485, 20.46 37.44 C 21.57 37.17, 21.825 37.33500000000001, 22.68 36.900000000000006 C 23.28 36.300000000000004, 23.475 36.315000000000005, 23.88 35.7 C 24.089999999999996 35.07, 24.194999999999997 35.355, 24.299999999999997 34.44 C 24.299999999999997 33.239999999999995, 24.359999999999996 33.269999999999996, 24.299999999999997 32.04 C 24.18 30.78, 24.314999999999998 30.674999999999997, 24.06 29.52 C 23.67 28.47, 23.67 28.155, 23.28 27.42 C 22.89 27, 23.115000000000002 26.985, 22.5 26.58 C 21.66 26.189999999999998, 21.6 25.994999999999997, 20.82 25.799999999999997 C 20.1 25.799999999999997, 19.83 25.769999999999996, 19.38 25.799999999999997 C 19.2 25.86, 19.185 25.83, 19.02 25.92 C 18.869999999999997 26.040000000000003, 18.884999999999998 25.935000000000002, 18.72 26.160000000000004 L 18.36 26.82" fill="none" stroke="black" stroke-width="2"></path><path d="M 16.38 33 C 17.67 32.7, 17.805 32.67, 18.96 32.400000000000006 C 19.98 32.160000000000004, 20.025 32.1, 21 31.92 C 21.93 31.8, 22.035 31.740000000000002, 22.86 31.68 C 23.58 31.68, 23.939999999999998 31.68, 24.299999999999997 31.68 L 24.299999999999997 31.68" fill="none" stroke="black" stroke-width="2"></path></svg>