<svg width="48" height="48" viewBox="0 0 48 48" xmlns="http://www.w3.org/2000/svg"><path d="M 13.26 6.36 C 13.920000000000002 6.36, 13.485000000000001 6.300000000000001, 14.580000000000002 6.36 C 16.11 6.48, 16.155 6.450000000000001, 17.64 6.6000000000000005 C 19.08 6.779999999999999, 19.14 6.824999999999999, 20.52 6.959999999999999 C 21.84 7.049999999999999, 21.975 7.095, 23.16 7.14 C 24.21 7.14, 24.314999999999998 7.095, 25.259999999999998 7.14 C 26.1 7.23, 26.025 7.275, 26.94 7.32 C 27.93 7.32, 28.200000000000003 7.32, 28.92 7.32 C 29.37 7.32, 29.475 7.32, 29.82 7.32 C 30.06 7.32, 30.18 7.32, 30.299999999999997 7.32 L 30.299999999999997 7.32" fill="none" stroke="black" stroke-width="2"></path><path d="M 18.299999999999997 6.300000000000001 C 18.06 6.57, 18.405 5.58, 17.82 6.84 C 16.89 9.09, 16.98 8.61, 15.96 11.34 C 14.850000000000001 14.549999999999999, 14.385000000000002 15.134999999999998, 13.74 17.759999999999998 C 13.559999999999999 19.799999999999997, 13.469999999999999 20.22, 13.379999999999999 21.84 C 13.379999999999999 23.04, 13.245 23.130000000000003, 13.379999999999999 24.240000000000002 C 13.649999999999999 25.26, 13.634999999999998 25.71, 13.919999999999998 26.28 C 14.219999999999999 26.4, 14.04 26.549999999999997, 14.52 26.52 C 15.18 26.340000000000003, 15.075 26.865000000000002, 15.84 26.160000000000004 C 16.71 24.930000000000003, 16.89 25.290000000000006, 17.580000000000002 23.700000000000003 C 18.090000000000003 21.75, 18.255000000000003 21.314999999999998, 18.6 19.799999999999997 C 18.78 18.72, 18.87 18.18, 18.96 17.64 C 18.96 17.64, 18.93 17.37, 18.96 17.64 C 19.020000000000003 18.18, 19.05 17.88, 19.080000000000002 18.72 C 19.080000000000002 19.86, 18.855000000000004 19.8, 19.080000000000002 21 C 19.53 22.259999999999998, 19.41 22.634999999999998, 19.98 23.52 C 20.67 24.03, 20.595 24.044999999999998, 21.36 24.54 C 22.2 25.02, 22.125 25.259999999999998, 23.04 25.5 C 24.03 25.5, 23.985 25.560000000000002, 25.02 25.5 C 26.1 25.38, 26.31 25.394999999999996, 27.18 25.259999999999998 C 27.84 25.11, 28.08 25.08, 28.5 24.96 C 28.68 24.87, 28.695 24.825000000000003, 28.86 24.78 C 29.01 24.78, 29.085 24.78, 29.160000000000004 24.78 L 29.160000000000004 24.78" fill="none" stroke="black" stroke-width="2"></path><path d="M 13.86 44.22 C 14.43 44.22, 13.905 44.714999999999996, 15 44.22 C 16.62 43.230000000000004, 16.875 43.260000000000005, 18.240000000000002 42.24 C 19.35 41.19, 19.545 41.205, 20.46 40.14 C 21.18 39.06, 21.375 39.045, 21.9 37.980000000000004 C 22.229999999999997 36.93000000000001, 22.169999999999998 37.260000000000005, 22.56 35.88 C 23.009999999999998 34.17, 23.145 34.11, 23.46 32.46 C 23.64 30.87, 23.73 30.51, 23.82 29.28 C 23.82 28.41, 23.82 28.17, 23.82 27.54 C 23.82 27.15, 23.85 27.224999999999998, 23.82 26.759999999999998 C 23.76 26.22, 23.775000000000002 26.07, 23.700000000000003 25.68 C 23.61 25.44, 23.58 25.395000000000003, 23.52 25.200000000000003 C 23.490000000000002 25.050000000000004, 23.475 24.975, 23.46 24.900000000000002 C 23.46 24.900000000000002, 23.580000000000002 24.615000000000002, 23.46 24.900000000000002 C 23.22 25.47, 23.19 25.23, 22.98 26.04 C 22.8 27.09, 22.71 27.27, 22.62 28.14 C 22.62 28.83, 22.62 28.695, 22.62 29.52 C 22.62 30.48, 22.62 30.39, 22.62 31.44 C 22.62 32.58, 22.53 32.16, 22.62 33.72 C 22.8 35.7, 22.695 36.015, 22.98 37.68 C 23.369999999999997 39.03, 23.339999999999996 39.375, 23.759999999999998 40.38 C 24.21 41.040000000000006, 24.150000000000006 41.08500000000001, 24.660000000000004 41.7 C 25.23 42.269999999999996, 25.349999999999998 42.449999999999996, 25.799999999999997 42.839999999999996 C 26.13 43.05, 25.98 43.019999999999996, 26.46 43.26 C 27.09 43.53, 27.06 43.574999999999996, 27.72 43.8 C 28.409999999999997 43.980000000000004, 28.349999999999998 44.040000000000006, 29.099999999999998 44.160000000000004 C 29.909999999999997 44.22, 30.24 44.25, 30.72 44.28 C 30.869999999999997 44.28, 30.9 44.28, 31.02 44.28 C 31.11 44.28, 31.155 44.28, 31.200000000000003 44.28 L 31.200000000000003 44.28" fill="none" stroke="black" stroke-width="2"></path></svg>