<svg width="48" height="48" viewBox="0 0 48 48" xmlns="http://www.w3.org/2000/svg"><path d="M 13.02 7.74 C 13.35 7.74, 13.245 7.725, 13.68 7.74 C 14.219999999999999 7.7700000000000005, 14.25 7.785, 14.76 7.800000000000001 C 15.24 7.800000000000001, 15.165000000000001 7.770000000000001, 15.72 7.800000000000001 C 16.35 7.86, 16.44 7.845, 16.98 7.92 C 17.43 8.010000000000002, 17.07 8.055000000000001, 17.88 8.100000000000001 C 19.049999999999997 8.100000000000001, 19.08 8.100000000000001, 20.22 8.100000000000001 C 21.33 8.100000000000001, 21.450000000000003 8.100000000000001, 22.44 8.100000000000001 C 23.310000000000002 8.100000000000001, 23.22 8.100000000000001, 24.18 8.100000000000001 C 25.23 8.100000000000001, 25.47 8.100000000000001, 26.28 8.100000000000001 C 26.85 8.100000000000001, 26.910000000000004 8.100000000000001, 27.42 8.100000000000001 C 27.87 8.100000000000001, 27.900000000000002 8.100000000000001, 28.32 8.100000000000001 C 28.71 8.100000000000001, 28.83 8.100000000000001, 29.099999999999998 8.100000000000001 C 29.25 8.100000000000001, 29.28 8.100000000000001, 29.400000000000002 8.100000000000001 C 29.490000000000002 8.100000000000001, 29.34 8.100000000000001, 29.58 8.100000000000001 C 29.97 8.100000000000001, 30.134999999999998 8.100000000000001, 30.36 8.100000000000001 C 30.42 8.100000000000001, 30.45 8.100000000000001, 30.48 8.100000000000001 L 30.48 8.100000000000001" fill="none" stroke="black" stroke-width="2"></path><path d="M 19.98 8.94 C 19.71 9.780000000000001, 19.665 9.765, 19.44 10.620000000000001 C 19.26 11.49, 19.380000000000003 11.37, 19.080000000000002 12.36 C 18.660000000000004 13.47, 18.705000000000002 13.320000000000002, 18.240000000000002 14.580000000000002 C 17.73 15.99, 17.7 16.049999999999997, 17.22 17.4 C 16.77 18.689999999999998, 16.725 18.915, 16.32 19.98 C 15.96 20.82, 15.96 20.79, 15.600000000000001 21.66 C 15.24 22.560000000000002, 15.239999999999998 22.53, 14.879999999999999 23.46 C 14.52 24.42, 14.4 24.675000000000004, 14.16 25.380000000000003 C 14.04 25.830000000000002, 13.979999999999999 25.740000000000002, 13.919999999999998 26.28 C 13.919999999999998 26.91, 13.904999999999998 26.985, 13.919999999999998 27.54 C 13.95 28.02, 13.86 28.14, 13.98 28.5 C 14.19 28.740000000000002, 14.174999999999999 28.845, 14.399999999999999 28.98 C 14.639999999999999 29.009999999999998, 14.415 28.935, 14.879999999999999 29.04 C 15.569999999999999 29.22, 15.449999999999998 29.310000000000002, 16.259999999999998 29.400000000000002 C 17.189999999999998 29.400000000000002, 17.07 29.400000000000002, 18.12 29.400000000000002 C 19.29 29.400000000000002, 19.245 29.400000000000002, 20.46 29.400000000000002 C 21.72 29.400000000000002, 21.585 29.415000000000003, 22.98 29.400000000000002 C 24.509999999999998 29.369999999999997, 24.869999999999997 29.354999999999997, 26.04 29.339999999999996 C 26.85 29.339999999999996, 27.060000000000002 29.339999999999996, 27.660000000000004 29.339999999999996 C 28.050000000000004 29.339999999999996, 28.17 29.309999999999995, 28.44 29.339999999999996 C 28.590000000000003 29.4, 28.53 29.325, 28.740000000000002 29.46 C 29.01 29.67, 29.025000000000002 29.535000000000004, 29.28 29.880000000000003 C 29.52 30.36, 29.549999999999997 30.18, 29.759999999999998 30.839999999999996 C 29.939999999999998 31.679999999999996, 30.014999999999997 31.739999999999995, 30.119999999999997 32.519999999999996 C 30.15 33.239999999999995, 30.119999999999997 33.239999999999995, 30.18 33.96 C 30.27 34.68000000000001, 30.314999999999998 34.665000000000006, 30.36 35.400000000000006 C 30.36 36.150000000000006, 30.494999999999997 36.075, 30.36 36.900000000000006 C 30.09 37.800000000000004, 30.105 38.010000000000005, 29.82 38.7 C 29.52 39.18000000000001, 29.685 39.03, 29.22 39.660000000000004 C 28.59 40.44, 28.65 40.44, 27.96 41.22 C 27.21 42, 27.135 42.105000000000004, 26.46 42.78 C 25.86 43.35, 25.755 43.56, 25.259999999999998 43.92 C 24.869999999999997 44.07, 25.185 44.055, 24.48 44.22 C 23.46 44.4, 23.235000000000003 44.489999999999995, 22.44 44.58 C 21.869999999999997 44.58, 21.734999999999996 44.58, 21.299999999999997 44.58 C 21 44.58, 21.060000000000002 44.714999999999996, 20.700000000000003 44.58 C 20.28 44.31, 20.28 44.55, 19.86 44.04 C 19.439999999999998 43.29, 19.439999999999998 43.5, 19.02 42.54 C 18.6 41.370000000000005, 18.39 41.190000000000005, 18.18 40.2 C 18.18 39.39, 18.27 39.51, 18.18 38.58 C 18 37.53, 17.97 37.365, 17.82 36.480000000000004 C 17.700000000000003 35.760000000000005, 17.655 35.475, 17.580000000000002 35.04 C 17.55 34.89, 17.535 34.86, 17.52 34.74 C 17.52 34.650000000000006, 17.52 34.620000000000005, 17.52 34.56 L 17.52 34.5" fill="none" stroke="black" stroke-width="2"></path></svg>