<svg width="48" height="48" viewBox="0 0 48 48" xmlns="http://www.w3.org/2000/svg"><path d="M 13.68 5.04 C 14.91 5.04, 14.940000000000001 4.995, 16.14 5.04 C 17.310000000000002 5.13, 17.415 5.085, 18.48 5.22 C 19.439999999999998 5.4, 19.005 5.385, 20.4 5.58 C 22.229999999999997 5.79, 22.349999999999998 5.85, 24.06 6 C 25.65 6.09, 25.770000000000003 6.135, 27.240000000000002 6.18 C 28.590000000000003 6.18, 28.980000000000004 6.18, 29.94 6.18 C 30.509999999999998 6.18, 30.72 6.18, 31.08 6.18 C 31.23 6.18, 31.305 6.18, 31.380000000000003 6.18 L 31.380000000000003 6.18" fill="none" stroke="black" stroke-width="2"></path><path d="M 12.24 44.88 C 12.149999999999999 43.5, 12.194999999999999 43.44, 12.059999999999999 42.12 C 11.879999999999999 40.86, 11.79 40.84499999999999, 11.7 39.599999999999994 C 11.7 38.37, 11.7 38.175, 11.7 37.14 C 11.7 36.3, 11.7 36.495000000000005, 11.7 35.46 C 11.7 34.230000000000004, 11.7 34.095, 11.7 33 C 11.7 32.04, 11.7 32.324999999999996, 11.7 31.08 C 11.7 29.549999999999997, 11.7 29.415, 11.7 28.02 C 11.7 26.759999999999998, 11.7 26.64, 11.7 25.5 C 11.7 24.48, 11.684999999999999 24.375, 11.7 23.46 C 11.73 22.65, 11.655 22.56, 11.76 21.84 C 11.940000000000001 21.21, 11.940000000000001 21.39, 12.120000000000001 20.580000000000002 C 12.3 19.590000000000003, 12.24 19.53, 12.48 18.6 C 12.780000000000001 17.73, 12.825000000000003 17.535, 13.080000000000002 16.86 C 13.290000000000001 16.38, 13.260000000000002 16.349999999999998, 13.5 15.899999999999999 C 13.77 15.479999999999999, 13.649999999999999 15.434999999999999, 14.04 15.059999999999999 C 14.549999999999999 14.729999999999999, 14.325 14.7, 15.059999999999999 14.399999999999999 C 16.02 14.129999999999999, 16.095 14.01, 16.98 13.86 C 17.79 13.829999999999998, 17.565 13.815, 18.6 13.799999999999999 C 19.86 13.799999999999999, 19.815 13.799999999999999, 21.12 13.799999999999999 C 22.47 13.799999999999999, 22.59 13.799999999999999, 23.82 13.799999999999999 C 24.93 13.799999999999999, 25.005 13.799999999999999, 26.04 13.799999999999999 C 27 13.799999999999999, 27.240000000000002 13.754999999999999, 27.96 13.799999999999999 C 28.44 13.89, 28.515 13.86, 28.92 13.98 C 29.25 14.129999999999999, 29.174999999999997 14.1, 29.58 14.28 C 30.06 14.49, 30.089999999999996 14.4, 30.54 14.700000000000001 C 30.96 15.09, 31.050000000000004 15.090000000000002, 31.380000000000003 15.48 C 31.62 15.87, 31.575000000000003 15.389999999999997, 31.86 16.259999999999998 C 32.19 17.61, 32.309999999999995 17.295, 32.519999999999996 18.96 C 32.61 20.939999999999998, 32.655 20.939999999999998, 32.7 22.919999999999998 C 32.7 24.9, 32.7 25.155, 32.7 26.880000000000003 C 32.7 28.35, 32.835 28.005000000000003, 32.7 29.82 C 32.43000000000001 31.98, 32.415000000000006 32.19, 32.160000000000004 34.14 C 31.92 35.879999999999995, 31.89 36.224999999999994, 31.68 37.62 C 31.5 38.67, 31.515 38.82, 31.32 39.72 C 31.11 40.47, 31.14 40.545, 30.900000000000002 41.22 C 30.630000000000003 41.82, 30.72 41.865, 30.36 42.42 C 29.91 42.93, 29.85 43.08, 29.46 43.44 C 29.13 43.65, 29.174999999999997 43.68, 28.799999999999997 43.86 C 28.38 44.010000000000005, 28.365000000000002 44.10000000000001, 27.96 44.160000000000004 C 27.57 44.129999999999995, 27.54 44.205, 27.18 44.099999999999994 C 26.85 43.92, 26.91 44.1, 26.52 43.74 C 26.07 43.2, 25.949999999999996 43.14, 25.619999999999997 42.660000000000004 C 25.41 42.24, 25.470000000000002 42.480000000000004, 25.200000000000003 41.82 C 24.87 40.92, 24.75 40.785, 24.54 40.019999999999996 C 24.45 39.39, 24.405 39.33, 24.36 38.76 C 24.36 38.25, 24.33 38.415, 24.36 37.74 C 24.42 36.900000000000006, 24.285 36.870000000000005, 24.48 36.06 C 24.810000000000002 35.28, 24.735 35.265, 25.14 34.5 C 25.619999999999997 33.75, 25.56 33.69, 26.099999999999998 33 C 26.699999999999996 32.370000000000005, 26.669999999999998 32.265, 27.299999999999997 31.740000000000002 C 27.959999999999997 31.32, 28.124999999999996 31.200000000000003, 28.619999999999997 30.900000000000002 C 28.95 30.72, 28.935000000000002 30.63, 29.28 30.54 C 29.64 30.54, 29.73 30.54, 30 30.54 C 30.18 30.54, 30.119999999999997 30.54, 30.36 30.54 C 30.66 30.54, 30.69 30.525, 30.96 30.54 C 31.200000000000003 30.57, 31.245 30.569999999999997, 31.44 30.599999999999998 C 31.590000000000003 30.630000000000003, 31.590000000000003 30.600000000000005, 31.740000000000002 30.660000000000004 C 31.89 30.75, 31.92 30.779999999999998, 32.04 30.839999999999996 C 32.129999999999995 30.869999999999997, 32.175 30.885, 32.22 30.900000000000002 C 32.22 30.900000000000002, 32.22 30.900000000000002, 32.22 30.900000000000002 C 32.22 30.900000000000002, 32.129999999999995 30.810000000000002, 32.22 30.900000000000002 C 32.4 31.08, 32.445 31.125, 32.58 31.259999999999998 C 32.67 31.35, 32.714999999999996 31.395, 32.76 31.44 C 32.76 31.44, 32.76 31.44, 32.76 31.44 L 32.76 31.44" fill="none" stroke="black" stroke-width="2"></path></svg>