<svg width="48" height="48" viewBox="0 0 48 48" xmlns="http://www.w3.org/2000/svg"><path d="M 12.66 7.68 C 13.2 7.68, 12.975 7.725, 13.74 7.68 C 14.73 7.59, 14.76 7.59, 15.72 7.5 C 16.650000000000002 7.41, 16.665000000000003 7.41, 17.580000000000002 7.32 C 18.48 7.23, 18.435 7.23, 19.38 7.14 C 20.369999999999997 7.049999999999999, 20.475 7.004999999999999, 21.36 6.959999999999999 C 22.14 6.959999999999999, 22.08 6.959999999999999, 22.919999999999998 6.959999999999999 C 23.82 6.959999999999999, 23.834999999999997 6.959999999999999, 24.72 6.959999999999999 C 25.59 6.959999999999999, 25.65 6.959999999999999, 26.46 6.959999999999999 C 27.21 6.959999999999999, 27.195 6.914999999999999, 27.96 6.959999999999999 C 28.740000000000002 7.049999999999999, 28.935000000000002 7.095, 29.52 7.14 C 29.909999999999997 7.14, 29.984999999999996 7.14, 30.299999999999997 7.14 C 30.54 7.14, 30.555 7.14, 30.78 7.14 C 30.990000000000002 7.14, 30.930000000000003 7.14, 31.200000000000003 7.14 C 31.53 7.14, 31.665 7.14, 31.86 7.14 L 31.98 7.14" fill="none" stroke="black" stroke-width="2"></path><path d="M 17.88 7.5 C 17.88 8.04, 17.88 7.9350000000000005, 17.88 8.58 C 17.88 9.33, 18.015 9.09, 17.88 10.08 C 17.61 11.309999999999999, 17.595 11.205, 17.34 12.54 C 17.1 13.979999999999999, 17.07 14.129999999999997, 16.86 15.419999999999998 C 16.68 16.560000000000002, 16.725 16.365000000000002, 16.5 17.700000000000003 C 16.23 19.23, 16.245 19.155, 15.96 20.759999999999998 C 15.66 22.439999999999998, 15.629999999999999 22.559999999999995, 15.36 24.119999999999997 C 15.12 25.56, 15.059999999999999 25.785, 14.879999999999999 27 C 14.76 27.990000000000002, 14.835 27.765, 14.64 28.98 C 14.370000000000001 30.42, 14.370000000000001 30.495, 14.100000000000001 31.86 C 13.83 33.15, 13.844999999999999 33.135, 13.559999999999999 34.44 C 13.26 35.76, 13.17 36.074999999999996, 12.96 37.08 C 12.84 37.769999999999996, 12.825000000000001 37.665, 12.72 38.46 C 12.629999999999999 39.36, 12.584999999999999 39.449999999999996, 12.54 40.26 C 12.54 40.980000000000004, 12.509999999999998 41.025000000000006, 12.54 41.7 C 12.6 42.33, 12.524999999999999 42.495000000000005, 12.66 42.96 C 12.870000000000001 43.260000000000005, 12.780000000000001 43.35, 13.080000000000002 43.56 C 13.47 43.68, 13.5 43.68, 13.86 43.8 C 14.19 43.92, 14.129999999999999 43.935, 14.52 44.04 C 14.969999999999999 44.129999999999995, 14.969999999999999 44.175, 15.419999999999998 44.22 C 15.87 44.22, 15.899999999999999 44.22, 16.32 44.22 C 16.71 44.22, 16.53 44.415, 17.1 44.22 C 17.85 43.83, 17.94 43.8, 18.6 43.44 C 19.17 43.11, 19.080000000000002 43.11, 19.740000000000002 42.78 C 20.490000000000002 42.45, 20.580000000000002 42.449999999999996, 21.240000000000002 42.12 C 21.810000000000002 41.79, 21.884999999999998 41.76, 22.38 41.46 C 22.799999999999997 41.19, 22.799999999999997 41.235, 23.22 40.92 C 23.64 40.56, 23.685 40.620000000000005, 24.06 40.2 C 24.39 39.72, 24.494999999999997 39.75, 24.72 39.24 C 24.84 38.7, 24.87 38.550000000000004, 24.96 38.160000000000004 C 25.02 37.92, 25.034999999999997 37.845, 25.08 37.68 C 25.11 37.59, 25.125 37.545, 25.14 37.5 L 25.14 37.5" fill="none" stroke="black" stroke-width="2"></path><path d="M 14.580000000000002 30.900000000000002 C 14.610000000000001 31.08, 14.355 31.095, 14.64 31.259999999999998 C 15.18 31.409999999999997, 14.88 31.529999999999998, 15.72 31.56 C 16.86 31.47, 16.740000000000002 31.590000000000003, 18 31.380000000000003 C 19.38 31.05, 19.485 30.96, 20.759999999999998 30.72 C 21.93 30.57, 22.185000000000002 30.525000000000002, 23.1 30.42 C 23.76 30.36, 23.700000000000003 30.375, 24.42 30.299999999999997 C 25.200000000000003 30.209999999999997, 25.35 30.254999999999995, 25.98 30.119999999999997 C 26.46 29.939999999999998, 26.490000000000002 29.97, 26.94 29.759999999999998 C 27.36 29.52, 27.465 29.685000000000002, 27.78 29.28 C 27.990000000000002 28.71, 28.095000000000002 28.635, 28.200000000000003 28.14 C 28.200000000000003 27.72, 28.200000000000003 28.394999999999996, 28.200000000000003 27.299999999999997 C 28.200000000000003 25.529999999999998, 28.350000000000005 25.455, 28.200000000000003 23.759999999999998 C 27.9 22.14, 27.9 22.169999999999998, 27.599999999999998 20.52 C 27.299999999999997 18.84, 27.24 18.735, 27 17.16 C 26.82 15.690000000000001, 26.835 15.435, 26.64 14.22 C 26.43 13.26, 26.43 13.245, 26.22 12.299999999999999 C 26.009999999999998 11.37, 25.994999999999997 11.295, 25.799999999999997 10.44 C 25.619999999999997 9.66, 25.635 9.555, 25.44 8.879999999999999 C 25.23 8.309999999999999, 25.17 8.175, 25.02 7.74 C 24.93 7.4399999999999995, 24.899999999999995 7.335, 24.839999999999996 7.14 C 24.81 7.049999999999999, 24.795 7.004999999999999, 24.78 6.959999999999999 C 24.78 6.959999999999999, 24.78 6.959999999999999, 24.78 6.959999999999999 L 24.78 6.959999999999999" fill="none" stroke="black" stroke-width="2"></path></svg>