<svg width="48" height="48" viewBox="0 0 48 48" xmlns="http://www.w3.org/2000/svg"><path d="M 14.940000000000001 6.18 C 15.540000000000001 6.18, 15.435000000000002 6.18, 16.14 6.18 C 16.95 6.18, 17.025 6.135, 17.759999999999998 6.18 C 18.42 6.27, 18.12 6.27, 19.080000000000002 6.36 C 20.340000000000003 6.450000000000001, 20.310000000000002 6.450000000000001, 21.6 6.540000000000001 C 22.92 6.630000000000001, 23.145000000000003 6.630000000000001, 24.240000000000002 6.720000000000001 C 25.11 6.8100000000000005, 25.26 6.84, 25.98 6.8999999999999995 C 26.549999999999997 6.93, 26.49 6.914999999999999, 27.119999999999997 6.959999999999999 C 27.81 7.02, 27.735 7.035, 28.5 7.08 C 29.34 7.109999999999999, 29.445 7.109999999999999, 30.18 7.14 C 30.810000000000002 7.17, 31.020000000000003 7.185, 31.44 7.199999999999999 C 31.65 7.199999999999999, 31.56 7.199999999999999, 31.86 7.199999999999999 C 32.25 7.199999999999999, 32.325 7.199999999999999, 32.64 7.199999999999999 C 32.879999999999995 7.199999999999999, 32.925 7.199999999999999, 33.12 7.199999999999999 C 33.269999999999996 7.199999999999999, 33.345 7.199999999999999, 33.42 7.199999999999999 C 33.42 7.199999999999999, 33.375 7.169999999999999, 33.42 7.199999999999999 L 33.599999999999994 7.32" fill="none" stroke="black" stroke-width="2"></path><path d="M 21.78 6.42 C 21.42 7.11, 21.645 6.495000000000001, 21.06 7.800000000000001 C 20.25 9.72, 20.25 9.600000000000001, 19.44 11.64 C 18.630000000000003 13.8, 18.57 13.770000000000001, 17.82 15.96 C 17.130000000000003 18.18, 17.025000000000002 18.404999999999998, 16.44 20.4 C 15.96 22.17, 15.81 22.365000000000002, 15.48 23.94 C 15.3 25.32, 15.21 25.485000000000003, 15.120000000000001 26.700000000000003 C 15.120000000000001 27.75, 15.045000000000002 27.794999999999998, 15.120000000000001 28.799999999999997 C 15.27 29.759999999999998, 15.224999999999998 30, 15.419999999999998 30.72 C 15.659999999999998 31.2, 15.555 31.29, 15.899999999999999 31.68 C 16.349999999999998 31.98, 16.424999999999997 32.085, 16.799999999999997 32.28 C 17.099999999999998 32.370000000000005, 17.055 32.445, 17.4 32.46 C 17.79 32.4, 17.775 32.625, 18.18 32.339999999999996 C 18.6 31.83, 18.48 32.265, 19.02 31.32 C 19.68 29.939999999999998, 19.83 29.82, 20.34 28.56 C 20.7 27.42, 20.88 26.85, 21.06 26.28 C 21.06 26.28, 20.924999999999997 26.325000000000003, 21.06 26.28 C 21.33 26.189999999999998, 21.3 25.724999999999998, 21.6 26.099999999999998 C 21.93 26.939999999999998, 21.9 26.91, 22.259999999999998 27.78 C 22.65 28.68, 22.619999999999997 28.695, 23.04 29.58 C 23.490000000000002 30.45, 23.46 30.54, 23.94 31.32 C 24.450000000000003 32.010000000000005, 24.375 32.22, 24.96 32.7 C 25.62 32.97, 25.560000000000002 33.06, 26.28 33.24 C 27.06 33.33, 26.819999999999997 33.375, 27.839999999999996 33.42 C 29.099999999999998 33.42, 29.505 33.465, 30.36 33.42 C 30.81 33.33, 30.689999999999998 33.510000000000005, 31.259999999999998 33.24 C 31.95 32.79, 32.19 32.80499999999999, 32.64 32.339999999999996 C 32.85 31.86, 32.865 31.935000000000002, 33.06 31.380000000000003 C 33.24 30.75, 33.33 30.945, 33.42 30.119999999999997 C 33.42 29.099999999999998, 33.375 29.309999999999995, 33.42 28.08 C 33.51 26.64, 33.675 27.105000000000004, 33.599999999999994 25.200000000000003 C 33.36 22.830000000000002, 33.39 22.53, 33.12 20.46 C 32.81999999999999 18.689999999999998, 32.91 18.584999999999997, 32.519999999999996 16.919999999999998 C 32.04 15.36, 31.979999999999997 15.044999999999998, 31.56 13.799999999999999 C 31.199999999999996 12.87, 31.229999999999997 12.945, 30.839999999999996 11.94 C 30.419999999999998 10.86, 30.299999999999997 10.545, 30 9.78 C 29.82 9.329999999999998, 29.805 9.36, 29.64 8.879999999999999 C 29.49 8.37, 29.459999999999994 8.175, 29.339999999999996 7.86 C 29.25 7.74, 29.205000000000002 7.68, 29.160000000000004 7.62 C 29.160000000000004 7.62, 29.160000000000004 7.62, 29.160000000000004 7.62 C 29.160000000000004 7.62, 29.160000000000004 7.62, 29.160000000000004 7.62 L 29.160000000000004 7.62" fill="none" stroke="black" stroke-width="2"></path><path d="M 14.399999999999999 39 C 14.7 39, 14.535 39, 15 39 C 15.629999999999999 39, 15.524999999999999 39.075, 16.259999999999998 39 C 17.1 38.85, 16.965 38.865, 17.94 38.7 C 19.05 38.519999999999996, 18.96 38.535, 20.16 38.339999999999996 C 21.450000000000003 38.129999999999995, 21.465000000000003 38.1, 22.740000000000002 37.92 C 24 37.769999999999996, 24.119999999999997 37.695, 25.259999999999998 37.62 C 26.279999999999998 37.62, 26.474999999999998 37.62, 27.299999999999997 37.62 C 27.93 37.62, 27.779999999999998 37.62, 28.56 37.62 C 29.490000000000002 37.62, 29.535000000000004 37.559999999999995, 30.42 37.62 C 31.259999999999998 37.739999999999995, 31.364999999999995 37.769999999999996, 32.099999999999994 37.86 C 32.73 37.92, 32.925 37.95, 33.36 37.980000000000004 C 33.599999999999994 37.980000000000004, 33.584999999999994 37.980000000000004, 33.839999999999996 37.980000000000004 L 34.38 37.980000000000004" fill="none" stroke="black" stroke-width="2"></path><path d="M 13.620000000000001 45.72 C 13.860000000000001 45.72, 13.485000000000001 45.72, 14.100000000000001 45.72 C 15.090000000000002 45.72, 14.775000000000002 45.87, 16.080000000000002 45.72 C 17.700000000000003 45.42, 17.64 45.48, 19.32 45.12 C 21.06 44.7, 21.299999999999997 44.625, 22.799999999999997 44.28 C 24.06 44.010000000000005, 23.835 43.92, 25.32 43.74 C 27.03 43.650000000000006, 27.405 43.605000000000004, 28.740000000000002 43.56 C 29.700000000000003 43.56, 29.685000000000002 43.56, 30.660000000000004 43.56 C 31.650000000000002 43.56, 31.89 43.56, 32.64 43.56 C 33.150000000000006 43.56, 33.255 43.53, 33.660000000000004 43.56 C 33.96 43.620000000000005, 34.065 43.635, 34.26 43.68 L 34.44 43.74" fill="none" stroke="black" stroke-width="2"></path></svg>