<svg width="48" height="48" viewBox="0 0 48 48" xmlns="http://www.w3.org/2000/svg"><path d="M 12.66 4.74 C 12.96 4.71, 12.825 4.695, 13.26 4.68 C 13.829999999999998 4.68, 13.634999999999998 4.68, 14.399999999999999 4.68 C 15.36 4.68, 14.985 4.68, 16.32 4.68 C 18.03 4.68, 18.120000000000005 4.68, 19.740000000000002 4.68 C 21.27 4.68, 21.33 4.68, 22.799999999999997 4.68 C 24.209999999999997 4.68, 24.584999999999997 4.68, 25.619999999999997 4.68 C 26.28 4.68, 26.295 4.68, 26.94 4.68 C 27.57 4.68, 27.615000000000002 4.68, 28.200000000000003 4.68 C 28.740000000000002 4.68, 28.785000000000004 4.68, 29.28 4.68 C 29.73 4.68, 29.955 4.68, 30.18 4.68 C 30.18 4.68, 30.18 4.68, 30.18 4.68 L 30.18 4.68" fill="none" stroke="black" stroke-width="2"></path><path d="M 18.72 4.74 C 18.57 5.28, 18.735 4.905000000000001, 18.419999999999998 5.82 C 17.939999999999998 7.109999999999999, 17.94 7.064999999999999, 17.46 8.399999999999999 C 16.98 9.78, 16.92 9.780000000000001, 16.5 11.16 C 16.14 12.54, 16.155 12.629999999999999, 15.78 13.919999999999998 C 15.39 15.12, 15.33 15.33, 15 16.32 C 14.73 17.1, 14.790000000000001 17.085, 14.46 17.88 C 14.07 18.689999999999998, 13.995 18.75, 13.68 19.5 C 13.440000000000001 20.189999999999998, 13.335 20.294999999999998, 13.200000000000001 20.88 C 13.170000000000002 21.36, 13.155000000000001 21.405, 13.14 21.84 C 13.14 22.23, 13.14 22.32, 13.14 22.62 C 13.14 22.83, 13.095 22.799999999999997, 13.14 23.04 C 13.23 23.310000000000002, 13.11 23.37, 13.32 23.580000000000002 C 13.65 23.73, 13.620000000000001 23.715, 13.98 23.88 C 14.370000000000001 24.060000000000002, 14.219999999999999 24.060000000000002, 14.76 24.240000000000002 C 15.45 24.42, 15.255 24.509999999999998, 16.14 24.599999999999998 C 17.22 24.599999999999998, 17.054999999999996 24.615, 18.299999999999997 24.599999999999998 C 19.71 24.57, 19.95 24.645, 21.12 24.54 C 22.05 24.36, 22.125 24.33, 22.98 24.18 C 23.759999999999998 24.060000000000002, 23.759999999999998 24.060000000000002, 24.54 23.94 C 25.32 23.82, 25.305 23.85, 26.099999999999998 23.700000000000003 C 26.909999999999997 23.520000000000003, 27.119999999999997 23.475, 27.72 23.34 C 28.11 23.25, 28.185 23.205, 28.5 23.16 C 28.740000000000002 23.16, 28.785 23.16, 28.98 23.16 C 29.130000000000003 23.16, 29.085 23.16, 29.28 23.16 C 29.52 23.16, 29.64 23.16, 29.759999999999998 23.16 C 29.759999999999998 23.16, 29.759999999999998 23.16, 29.759999999999998 23.16 L 29.759999999999998 23.16" fill="none" stroke="black" stroke-width="2"></path><path d="M 20.04 30.42 C 19.38 31.200000000000003, 18.959999999999997 31.380000000000003, 18.72 31.98 C 18.9 32.4, 18.615000000000002 32.595, 19.080000000000002 32.82 C 19.830000000000002 32.85, 20.025000000000002 33.06, 20.580000000000002 32.88 C 20.939999999999998 32.489999999999995, 21.284999999999997 32.565, 21.299999999999997 32.099999999999994 C 20.97 31.559999999999995, 21.075 31.424999999999997, 20.64 31.02 C 20.1 30.75, 20.159999999999997 30.39, 19.56 30.48 C 18.9 30.93, 18.465000000000003 30.78, 18.240000000000002 31.380000000000003 C 18.450000000000003 32.13, 18.315 32.400000000000006, 18.66 32.88 C 19.14 33.09, 19.215 33.315, 19.62 33.3 C 19.950000000000003 33.06, 20.145000000000003 33.24, 20.28 32.82 C 20.22 32.22, 20.235 32.01, 20.16 31.619999999999997 C 20.07 31.439999999999998, 20.16 31.409999999999997, 19.98 31.259999999999998 C 19.71 31.14, 19.605 30.9, 19.44 31.02 C 19.380000000000003 31.380000000000003, 19.35 31.515, 19.32 31.740000000000002 L 19.32 31.92" fill="none" stroke="black" stroke-width="2"></path><path d="M 14.28 39.78 C 14.55 39.78, 14.13 39.84, 14.82 39.78 C 15.93 39.66, 15.87 39.629999999999995, 17.04 39.54 C 18.27 39.480000000000004, 18.285 39.45, 19.5 39.42 C 20.7 39.42, 20.805 39.465, 21.9 39.42 C 22.89 39.33, 22.979999999999997 39.285000000000004, 23.88 39.24 C 24.689999999999998 39.24, 24.855 39.24, 25.5 39.24 C 25.98 39.24, 26.025 39.27, 26.46 39.24 C 26.85 39.18, 27 39.165, 27.240000000000002 39.12 C 27.330000000000002 39.09, 27.375 39.075, 27.42 39.06 L 27.42 39.06" fill="none" stroke="black" stroke-width="2"></path></svg>