<svg width="48" height="48" viewBox="0 0 48 48" xmlns="http://www.w3.org/2000/svg"><path d="M 18.240000000000002 43.14 C 17.490000000000002 43.14, 17.580000000000002 43.14, 16.740000000000002 43.14 C 15.81 43.14, 15.495 43.14, 14.879999999999999 43.14 C 14.579999999999998 43.14, 14.549999999999999 43.14, 14.28 43.14 C 14.04 43.14, 14.114999999999998 43.095, 13.799999999999999 43.14 C 13.41 43.230000000000004, 13.305 43.275, 13.02 43.32 C 12.84 43.32, 12.825 43.32, 12.66 43.32 C 12.51 43.32, 12.51 43.32, 12.36 43.32 C 12.209999999999999 43.32, 12.134999999999998 43.32, 12.059999999999999 43.32 C 12.059999999999999 43.32, 12.059999999999999 43.32, 12.059999999999999 43.32 C 12.059999999999999 43.32, 12.089999999999998 43.32, 12.059999999999999 43.32 C 12 43.32, 12.014999999999999 43.32, 11.94 43.32 C 11.85 43.32, 11.805 43.32, 11.76 43.32 C 11.76 43.32, 11.865 43.365, 11.76 43.32 C 11.55 43.230000000000004, 11.445 43.485, 11.34 43.14 C 11.34 42.54, 11.34 43.14, 11.34 41.94 C 11.34 40.14, 11.295 40.019999999999996, 11.34 38.339999999999996 C 11.43 36.78, 11.385 36.795, 11.52 35.22 C 11.7 33.629999999999995, 11.774999999999999 33.825, 11.879999999999999 32.04 C 11.91 30.06, 11.924999999999999 29.549999999999997, 11.94 28.08 C 11.94 27.12, 11.879999999999999 27.6, 11.94 26.160000000000004 C 12.059999999999999 24.240000000000002, 12.075 23.955000000000002, 12.18 22.32 C 12.27 20.97, 12.254999999999999 20.565, 12.36 19.62 C 12.48 19.08, 12.3 19.215, 12.600000000000001 18.54 C 13.08 17.729999999999997, 13.11 17.549999999999997, 13.559999999999999 16.919999999999998 C 13.979999999999999 16.47, 13.889999999999997 16.244999999999997, 14.399999999999999 16.02 C 15 16.02, 15.09 15.93, 15.600000000000001 16.02 C 16.020000000000003 16.2, 16.065 16.185, 16.44 16.38 C 16.770000000000003 16.589999999999996, 16.770000000000003 16.559999999999995, 17.1 16.799999999999997 C 17.43 17.07, 17.384999999999998 16.86, 17.759999999999998 17.34 C 18.18 18.03, 18.195 17.46, 18.6 18.72 C 18.990000000000002 20.549999999999997, 19.155 20.805, 19.38 22.38 C 19.439999999999998 23.7, 19.47 23.955, 19.5 25.02 C 19.5 25.83, 19.5 25.935000000000002, 19.5 26.64 C 19.5 27.24, 19.485 27.464999999999996, 19.5 27.839999999999996 C 19.53 27.99, 19.544999999999998 28.064999999999998, 19.56 28.14 C 19.56 28.14, 19.56 28.14, 19.56 28.14 C 19.56 28.14, 19.529999999999998 28.155, 19.56 28.14 C 19.619999999999997 28.11, 19.605 28.335, 19.68 28.08 C 19.77 27.599999999999998, 19.695 27.689999999999998, 19.86 27.119999999999997 C 20.1 26.459999999999997, 20.115000000000002 26.429999999999996, 20.34 25.799999999999997 C 20.549999999999997 25.199999999999996, 20.52 25.275, 20.759999999999998 24.599999999999998 C 21.029999999999998 23.85, 20.999999999999996 23.85, 21.299999999999997 23.1 C 21.63 22.35, 21.63 22.35, 21.96 21.6 C 22.29 20.85, 22.380000000000003 20.64, 22.62 20.1 C 22.77 19.770000000000003, 22.68 19.740000000000002, 22.919999999999998 19.44 C 23.25 19.17, 23.085 19.14, 23.580000000000002 18.9 C 24.240000000000002 18.689999999999998, 24.270000000000003 18.615000000000002, 24.900000000000002 18.48 C 25.5 18.42, 25.589999999999996 18.3, 26.099999999999998 18.36 C 26.52 18.54, 26.505000000000003 18.419999999999998, 26.94 18.72 C 27.39 19.14, 27.374999999999996 18.945, 27.839999999999996 19.56 C 28.319999999999997 20.369999999999997, 28.455 19.965, 28.799999999999997 21.18 C 29.009999999999998 22.8, 29.055 22.515, 29.22 24.42 C 29.34 26.61, 29.4 26.429999999999996, 29.46 28.799999999999997 C 29.46 31.35, 29.46 31.770000000000003, 29.46 33.900000000000006 C 29.46 35.61, 29.565 35.55, 29.46 37.32 C 29.25 39.150000000000006, 29.189999999999998 39.615, 29.04 40.980000000000004 C 28.95 41.88, 28.994999999999997 41.910000000000004, 28.86 42.78 C 28.68 43.620000000000005, 28.59 43.965, 28.5 44.46 C 28.5 44.61, 28.5 44.685, 28.5 44.76 C 28.5 44.76, 28.575 44.805, 28.5 44.76 L 28.200000000000003 44.58" fill="none" stroke="black" stroke-width="2"></path><path d="M 13.98 8.52 C 14.22 8.52, 14.145000000000001 8.52, 14.46 8.52 C 14.850000000000001 8.52, 14.505 8.459999999999999, 15.24 8.52 C 16.32 8.64, 15.674999999999999 8.7, 17.4 8.76 C 19.77 8.76, 19.995 8.76, 22.14 8.76 C 24.060000000000002 8.76, 24.435000000000002 8.684999999999999, 25.98 8.76 C 27.15 8.91, 27.15 8.91, 28.32 9.06 C 29.490000000000002 9.21, 29.955000000000005 9.285, 30.660000000000004 9.36 C 30.900000000000002 9.36, 31.020000000000003 9.36, 31.14 9.36 L 31.14 9.36" fill="none" stroke="black" stroke-width="2"></path></svg>