<svg width="48" height="48" viewBox="0 0 48 48" xmlns="http://www.w3.org/2000/svg"><path d="M 14.82 7.5600000000000005 C 14.91 7.5600000000000005, 14.73 7.5600000000000005, 15 7.5600000000000005 C 15.45 7.5600000000000005, 15.059999999999999 7.5600000000000005, 15.899999999999999 7.5600000000000005 C 17.13 7.5600000000000005, 17.31 7.5600000000000005, 18.36 7.5600000000000005 C 19.23 7.5600000000000005, 19.080000000000002 7.5600000000000005, 20.1 7.5600000000000005 C 21.270000000000003 7.5600000000000005, 21.270000000000003 7.5600000000000005, 22.44 7.5600000000000005 C 23.61 7.5600000000000005, 23.535 7.5600000000000005, 24.78 7.5600000000000005 C 26.1 7.5600000000000005, 26.400000000000002 7.5600000000000005, 27.42 7.5600000000000005 C 28.14 7.5600000000000005, 28.035 7.605, 28.86 7.5600000000000005 C 29.79 7.470000000000001, 30.03 7.425, 30.72 7.38 C 31.169999999999998 7.38, 31.199999999999996 7.38, 31.619999999999997 7.38 C 32.010000000000005 7.38, 31.980000000000004 7.38, 32.400000000000006 7.38 C 32.85 7.38, 33.03 7.38, 33.3 7.38 C 33.39 7.38, 33.435 7.38, 33.480000000000004 7.38 L 33.480000000000004 7.38" fill="none" stroke="black" stroke-width="2"></path><path d="M 22.14 7.62 C 22.14 8.85, 22.155 8.145, 22.14 10.08 C 22.11 12.719999999999999, 22.095000000000002 12.9, 22.080000000000002 15.36 C 22.080000000000002 17.64, 22.080000000000002 17.924999999999997, 22.080000000000002 19.919999999999998 C 22.080000000000002 21.63, 22.080000000000002 21.72, 22.080000000000002 23.34 C 22.080000000000002 24.87, 22.080000000000002 24.840000000000003, 22.080000000000002 26.400000000000002 C 22.080000000000002 27.990000000000002, 22.080000000000002 28.139999999999997, 22.080000000000002 29.58 C 22.080000000000002 30.87, 22.080000000000002 31.020000000000003, 22.080000000000002 32.160000000000004 C 22.080000000000002 33.150000000000006, 22.080000000000002 33, 22.080000000000002 34.14 C 22.080000000000002 35.43, 22.125000000000004 35.535, 22.080000000000002 36.72 C 21.990000000000002 37.8, 21.945 38.025000000000006, 21.9 38.88 C 21.9 39.510000000000005, 21.9 39.480000000000004, 21.9 40.14 C 21.9 40.83, 21.884999999999998 40.88999999999999, 21.9 41.519999999999996 C 21.93 42.09, 21.825 42.135000000000005, 21.96 42.660000000000004 C 22.200000000000003 43.14, 22.230000000000004 43.26, 22.44 43.62 C 22.619999999999997 43.86, 22.634999999999998 43.904999999999994, 22.799999999999997 44.099999999999994 C 22.95 44.25, 22.950000000000003 44.325, 23.1 44.400000000000006 C 23.25 44.400000000000006, 23.325 44.400000000000006, 23.4 44.400000000000006 C 23.4 44.400000000000006, 23.4 44.400000000000006, 23.4 44.400000000000006 C 23.4 44.400000000000006, 23.339999999999996 44.415000000000006, 23.4 44.400000000000006 C 23.52 44.370000000000005, 23.564999999999998 44.535, 23.64 44.339999999999996 C 23.67 43.98, 23.595000000000002 44.06999999999999, 23.700000000000003 43.62 C 23.880000000000003 43.08, 23.895 43.185, 24.06 42.54 C 24.21 41.79, 24.225 41.775, 24.36 41.04 C 24.479999999999997 40.31999999999999, 24.435 40.44, 24.599999999999998 39.599999999999994 C 24.81 38.64, 24.78 38.714999999999996, 25.02 37.68 C 25.29 36.57, 25.32 36.315, 25.56 35.46 C 25.77 34.86, 25.634999999999998 35.025, 25.98 34.26 C 26.46 33.33, 26.445 33.165000000000006, 26.94 32.400000000000006 C 27.450000000000003 31.800000000000004, 27.405 31.725000000000005, 27.96 31.200000000000003 C 28.560000000000002 30.75, 28.620000000000005 30.689999999999998, 29.160000000000004 30.299999999999997 C 29.64 29.97, 29.64 29.895, 30.119999999999997 29.64 C 30.599999999999998 29.46, 30.569999999999997 29.415000000000003, 31.08 29.28 C 31.62 29.189999999999998, 31.530000000000005 29.174999999999997, 32.160000000000004 29.099999999999998 C 32.879999999999995 29.04, 32.97 29.009999999999998, 33.599999999999994 28.98 C 34.14 28.98, 34.379999999999995 28.98, 34.68 28.98 C 34.739999999999995 28.98, 34.724999999999994 28.98, 34.8 28.98 L 34.980000000000004 28.98" fill="none" stroke="black" stroke-width="2"></path></svg>