<svg width="48" height="48" viewBox="0 0 48 48" xmlns="http://www.w3.org/2000/svg"><path d="M 13.14 8.16 C 13.65 8.16, 13.005 8.16, 14.16 8.16 C 15.959999999999999 8.16, 16.08 8.16, 17.759999999999998 8.16 C 19.32 8.16, 19.349999999999998 8.16, 20.88 8.16 C 22.38 8.16, 22.544999999999998 8.16, 23.88 8.16 C 25.049999999999997 8.16, 25.049999999999997 8.16, 26.22 8.16 C 27.39 8.16, 27.674999999999997 8.16, 28.56 8.16 C 29.159999999999997 8.16, 29.25 8.115, 29.759999999999998 8.16 C 30.18 8.25, 30.239999999999995 8.295, 30.599999999999998 8.34 C 30.9 8.34, 30.945000000000004 8.34, 31.200000000000003 8.34 L 31.619999999999997 8.34" fill="none" stroke="black" stroke-width="2"></path><path d="M 15.419999999999998 37.44 C 14.79 36.06, 14.79 36.195, 14.16 34.68 C 13.53 33.03, 13.364999999999998 32.955, 12.899999999999999 31.380000000000003 C 12.599999999999998 29.880000000000003, 12.555 29.835000000000004, 12.299999999999999 28.380000000000003 C 12.09 26.97, 12.03 26.925, 11.879999999999999 25.56 C 11.79 24.24, 11.745 23.939999999999998, 11.7 22.919999999999998 C 11.7 22.2, 11.7 22.2, 11.7 21.48 C 11.7 20.759999999999998, 11.669999999999998 20.64, 11.7 20.04 C 11.76 19.560000000000002, 11.64 19.650000000000002, 11.82 19.080000000000002 C 12.12 18.42, 11.985 18.284999999999997, 12.419999999999998 17.759999999999998 C 12.989999999999998 17.369999999999997, 12.54 17.355, 13.559999999999999 16.98 C 15.03 16.619999999999997, 14.864999999999998 16.634999999999998, 16.5 16.259999999999998 C 18.3 15.87, 18.810000000000002 15.675, 20.1 15.48 C 20.880000000000003 15.48, 20.595 15.48, 21.66 15.48 C 23.009999999999998 15.48, 23.07 15.48, 24.36 15.48 C 25.59 15.48, 25.755000000000003 15.435, 26.82 15.48 C 27.72 15.57, 28.049999999999997 15.57, 28.619999999999997 15.66 C 28.86 15.75, 28.784999999999997 15.525, 29.099999999999998 15.84 C 29.490000000000002 16.38, 29.580000000000002 16.349999999999998, 29.880000000000003 16.919999999999998 C 30.09 17.52, 30.195 17.19, 30.299999999999997 18.12 C 30.299999999999997 19.380000000000003, 30.404999999999994 19.305, 30.299999999999997 20.64 C 30.09 22.05, 30.165 21.720000000000002, 29.880000000000003 23.46 C 29.520000000000003 25.53, 29.520000000000003 25.65, 29.160000000000004 27.599999999999998 C 28.800000000000004 29.43, 28.800000000000004 29.714999999999996, 28.44 31.259999999999998 C 28.08 32.519999999999996, 27.99 32.82, 27.72 33.78 C 27.54 34.44, 27.465 34.64999999999999, 27.36 35.099999999999994 C 27.33 35.339999999999996, 27.374999999999996 35.205, 27.299999999999997 35.58 C 27.18 36.089999999999996, 27.119999999999997 36.269999999999996, 27.06 36.599999999999994 C 27.06 36.75, 27.089999999999996 36.78, 27.06 36.900000000000006 C 27 36.99, 26.985 36.915, 26.94 37.08 C 26.910000000000004 37.32, 26.895000000000003 37.44, 26.880000000000003 37.56 C 26.880000000000003 37.56, 26.880000000000003 37.56, 26.880000000000003 37.56 L 26.880000000000003 37.56" fill="none" stroke="black" stroke-width="2"></path><path d="M 12.299999999999999 37.92 C 12.78 37.89, 12.48 37.92, 13.26 37.86 C 14.34 37.769999999999996, 13.844999999999999 37.815, 15.419999999999998 37.68 C 17.49 37.5, 17.865 37.41, 19.56 37.32 C 20.880000000000003 37.32, 20.865000000000002 37.32, 22.200000000000003 37.32 C 23.550000000000004 37.32, 23.715000000000003 37.275, 24.900000000000002 37.32 C 25.92 37.41, 26.160000000000004 37.38, 26.94 37.5 C 27.48 37.65, 27.585 37.724999999999994, 28.02 37.8 C 28.35 37.8, 28.439999999999998 37.8, 28.68 37.8 L 28.98 37.8" fill="none" stroke="black" stroke-width="2"></path><path d="M 13.14 43.56 C 13.8 43.56, 13.245000000000001 43.605000000000004, 14.46 43.56 C 16.23 43.47, 16.305 43.425000000000004, 18 43.38 C 19.62 43.38, 19.785000000000004 43.38, 21.240000000000002 43.38 C 22.53 43.38, 22.65 43.38, 23.82 43.38 C 24.87 43.38, 25.065 43.38, 25.92 43.38 C 26.580000000000002 43.38, 26.67 43.38, 27.240000000000002 43.38 C 27.720000000000002 43.38, 27.735000000000003 43.38, 28.200000000000003 43.38 C 28.65 43.38, 28.68 43.38, 29.099999999999998 43.38 L 29.880000000000003 43.38" fill="none" stroke="black" stroke-width="2"></path></svg>