<svg width="48" height="48" viewBox="0 0 48 48" xmlns="http://www.w3.org/2000/svg"><path d="M 25.5 9.66 C 24.18 9.84, 24.33 9.45, 22.86 10.02 C 21.240000000000002 10.98, 20.79 10.934999999999999, 19.62 11.94 C 18.9 12.989999999999998, 18.63 12.93, 18.18 14.04 C 18 15.209999999999999, 17.685000000000002 15.149999999999999, 17.82 16.38 C 18.27 17.67, 18.015 17.82, 18.72 18.96 C 19.68 19.950000000000003, 19.44 20.115000000000002, 20.64 20.94 C 22.08 21.6, 22.185 21.884999999999998, 23.52 22.259999999999998 C 24.75 22.35, 24.975 22.71, 25.98 22.44 C 26.759999999999998 21.810000000000002, 26.88 21.87, 27.54 21.18 C 28.08 20.43, 28.199999999999996 20.31, 28.619999999999997 19.68 C 28.919999999999998 19.17, 29.055 19.2, 29.22 18.66 C 29.25 18.09, 29.265 18.195, 29.28 17.52 C 29.28 16.740000000000002, 29.340000000000003 17.055, 29.28 15.96 C 29.16 14.55, 29.295 14.355, 29.04 13.14 C 28.65 12.120000000000001, 28.56 11.805000000000001, 28.259999999999998 11.100000000000001 C 28.049999999999997 10.71, 28.184999999999995 10.71, 27.839999999999996 10.32 C 27.36 9.93, 27.435000000000002 9.825000000000001, 26.880000000000003 9.540000000000001 C 26.25 9.36, 26.159999999999997 9.27, 25.619999999999997 9.18 C 25.169999999999998 9.18, 24.945 9.18, 24.72 9.18 L 24.72 9.18" fill="none" stroke="black" stroke-width="2"></path><path d="M 26.58 24.06 C 26.22 23.67, 26.52 23.565, 25.86 23.28 C 24.9 23.1, 25.005000000000003 22.814999999999998, 23.94 22.919999999999998 C 22.770000000000003 23.310000000000002, 22.485000000000003 23.115000000000002, 21.6 23.700000000000003 C 21 24.48, 20.835 24.419999999999998, 20.4 25.259999999999998 C 20.13 26.159999999999997, 20.115 25.784999999999997, 19.86 27.06 C 19.619999999999997 28.71, 19.5 28.875, 19.38 30.36 C 19.38 31.68, 19.259999999999998 31.725, 19.38 33 C 19.619999999999997 34.230000000000004, 19.544999999999998 34.545, 19.86 35.46 C 20.25 36.06, 20.115000000000002 36.075, 20.64 36.660000000000004 C 21.3 37.230000000000004, 20.865000000000002 37.335, 21.96 37.8 C 23.490000000000002 38.16, 23.655 38.294999999999995, 25.02 38.519999999999996 C 26.22 38.61, 26.415000000000003 38.835, 27.42 38.7 C 28.23 38.34, 28.41 38.44500000000001, 29.04 37.980000000000004 C 29.490000000000002 37.41, 29.46 37.739999999999995, 29.94 36.839999999999996 C 30.450000000000003 35.61, 30.645 35.730000000000004, 30.96 34.38 C 31.080000000000002 32.910000000000004, 31.14 32.835, 31.200000000000003 31.44 C 31.200000000000003 30.119999999999997, 31.245000000000005 29.834999999999997, 31.200000000000003 28.799999999999997 C 31.11 28.049999999999997, 31.23 28.049999999999997, 31.02 27.299999999999997 C 30.689999999999998 26.549999999999997, 30.825 26.459999999999994, 30.36 25.799999999999997 C 29.76 25.23, 29.805000000000003 25.095000000000002, 29.160000000000004 24.660000000000004 C 28.470000000000002 24.36, 28.335 24.27, 27.78 24.06 C 27.36 23.939999999999998, 27.345 23.88, 26.94 23.82 C 26.550000000000004 23.82, 26.625000000000004 23.82, 26.160000000000004 23.82 C 25.62 23.82, 25.35 23.82, 25.08 23.82 L 25.08 23.82" fill="none" stroke="black" stroke-width="2"></path></svg>