<svg width="48" height="48" viewBox="0 0 48 48" xmlns="http://www.w3.org/2000/svg"><path d="M 12.18 39.839999999999996 C 12.719999999999999 39.839999999999996, 12.629999999999999 39.88499999999999, 13.26 39.839999999999996 C 13.98 39.75, 14.145000000000001 39.75, 14.700000000000001 39.660000000000004 C 15.09 39.57000000000001, 15.015 39.55500000000001, 15.48 39.480000000000004 C 16.02 39.42, 16.08 39.480000000000004, 16.56 39.36 C 16.979999999999997 39.18, 17.115 39.09, 17.4 39 C 17.55 39, 17.595000000000002 39, 17.700000000000003 39 C 17.76 39, 17.79 39, 17.82 39 L 17.82 39" fill="none" stroke="black" stroke-width="2"></path><path d="M 13.02 45.660000000000004 C 12.93 45.03, 12.96 45.27000000000001, 12.84 44.400000000000006 C 12.69 43.290000000000006, 12.614999999999998 43.035, 12.54 42.18 C 12.54 41.58, 12.54 41.80500000000001, 12.54 40.980000000000004 C 12.54 39.93000000000001, 12.54 40.050000000000004, 12.54 38.88 C 12.54 37.59, 12.614999999999998 37.769999999999996, 12.54 36.3 C 12.39 34.65, 12.36 34.515, 12.24 33 C 12.149999999999999 31.62, 12.134999999999998 31.770000000000003, 12.059999999999999 30.240000000000002 C 12 28.560000000000002, 11.969999999999999 28.35, 11.94 26.880000000000003 C 11.94 25.62, 11.895 25.605, 11.94 24.36 C 12.030000000000001 23.13, 11.985000000000001 22.935, 12.120000000000001 21.9 C 12.3 21.06, 12.225000000000001 21.195, 12.48 20.22 C 12.81 19.11, 12.75 18.915, 13.14 18 C 13.59 17.28, 13.725 16.979999999999997, 14.04 16.56 C 14.219999999999999 16.439999999999998, 14.084999999999999 16.41, 14.399999999999999 16.32 C 14.849999999999998 16.26, 14.879999999999999 16.215000000000003, 15.299999999999999 16.200000000000003 C 15.690000000000001 16.23, 15.585 16.034999999999997, 16.080000000000002 16.259999999999998 C 16.68 16.68, 16.8 16.605, 17.28 17.1 C 17.64 17.67, 17.61 17.295, 18 18.240000000000002 C 18.42 19.560000000000002, 18.585 19.665, 18.84 20.88 C 18.93 21.990000000000002, 18.93 22.005000000000003, 19.02 23.1 C 19.11 24.18, 19.110000000000003 24.299999999999997, 19.200000000000003 25.259999999999998 C 19.29 26.1, 19.29 26.025, 19.38 26.94 C 19.47 27.93, 19.515 28.425, 19.56 28.92 C 19.56 28.92, 19.56 28.92, 19.56 28.92 C 19.56 28.92, 19.485 28.905, 19.56 28.92 C 19.71 28.950000000000003, 19.59 29.04, 19.86 28.98 C 20.25 28.83, 20.205 28.8, 20.64 28.68 C 21.12 28.59, 20.925 28.545, 21.6 28.5 C 22.47 28.5, 22.41 28.5, 23.34 28.5 C 24.33 28.5, 24.45 28.335, 25.32 28.5 C 26.07 28.830000000000002, 26.205 28.815000000000005, 26.82 29.160000000000004 C 27.3 29.520000000000003, 27.135 29.085000000000004, 27.78 29.880000000000003 C 28.590000000000003 31.11, 28.860000000000003 31.214999999999996, 29.400000000000002 32.339999999999996 C 29.67 33.36, 29.805 33.24, 29.94 34.38 C 29.94 35.64, 29.94 35.86500000000001, 29.94 36.900000000000006 C 29.94 37.71, 29.94 37.68, 29.94 38.519999999999996 C 29.94 39.39, 29.955000000000002 39.525, 29.94 40.26 C 29.910000000000004 40.86, 29.910000000000004 40.935, 29.880000000000003 41.46 C 29.85 41.91, 29.85 42.06, 29.82 42.36 C 29.79 42.510000000000005, 29.865 42.345000000000006, 29.759999999999998 42.660000000000004 C 29.58 43.14, 29.490000000000002 43.379999999999995, 29.400000000000002 43.62 C 29.400000000000002 43.62, 29.430000000000003 43.559999999999995, 29.400000000000002 43.62 L 29.28 43.86" fill="none" stroke="black" stroke-width="2"></path><path d="M 28.259999999999998 16.62 C 27.779999999999998 16.560000000000002, 27.779999999999998 16.44, 27.299999999999997 16.5 C 26.819999999999997 16.68, 26.864999999999995 16.455, 26.339999999999996 16.86 C 25.77 17.490000000000002, 25.68 17.355, 25.200000000000003 18.12 C 24.810000000000002 19.02, 24.615000000000002 19.005, 24.42 19.919999999999998 C 24.42 20.85, 24.21 20.985, 24.42 21.78 C 24.84 22.44, 24.884999999999998 22.695, 25.259999999999998 23.1 C 25.59 23.25, 25.380000000000003 23.294999999999998, 25.92 23.4 C 26.67 23.46, 26.775000000000002 23.505, 27.42 23.52 C 27.96 23.490000000000002, 28.064999999999998 23.580000000000002, 28.5 23.46 C 28.830000000000002 23.25, 28.785000000000004 23.415, 29.160000000000004 23.04 C 29.580000000000002 22.5, 29.76 22.515, 30 21.96 C 30.06 21.39, 30.089999999999996 21.48, 30.119999999999997 20.82 C 30.119999999999997 20.07, 30.299999999999997 19.950000000000003, 30.119999999999997 19.32 C 29.759999999999998 18.81, 29.715000000000003 18.674999999999997, 29.400000000000002 18.299999999999997 C 29.130000000000003 18.06, 29.07 18.015, 28.86 17.82 C 28.71 17.67, 28.68 17.61, 28.56 17.52 C 28.47 17.490000000000002, 28.500000000000004 17.490000000000002, 28.380000000000003 17.46 C 28.23 17.43, 28.2 17.415, 28.08 17.4 C 27.990000000000002 17.4, 27.945 17.4, 27.900000000000002 17.4 L 27.900000000000002 17.4" fill="none" stroke="black" stroke-width="2"></path></svg>