<svg width="48" height="48" viewBox="0 0 48 48" xmlns="http://www.w3.org/2000/svg"><path d="M 21.48 3.12 C 21.03 3.12, 21.360000000000003 2.9400000000000004, 20.580000000000002 3.12 C 19.47 3.48, 19.23 3.2699999999999996, 18.36 3.84 C 17.73 4.62, 17.475 4.7700000000000005, 17.1 5.4 C 16.98 5.880000000000001, 16.89 5.790000000000001, 16.86 6.36 C 16.92 7.02, 16.62 6.81, 16.98 7.68 C 17.64 8.76, 17.534999999999997 8.895, 18.299999999999997 9.84 C 19.169999999999998 10.649999999999999, 19.125 10.785, 20.04 11.459999999999999 C 21 12, 21.03 12.209999999999999, 21.96 12.54 C 22.86 12.66, 22.904999999999998 12.719999999999999, 23.759999999999998 12.78 C 24.57 12.78, 24.645000000000003 13.049999999999999, 25.380000000000003 12.78 C 26.040000000000003 12.239999999999998, 26.190000000000005 12.27, 26.700000000000003 11.7 C 27.060000000000002 11.1, 27.195000000000004 11.024999999999999, 27.42 10.5 C 27.509999999999998 10.05, 27.555 10.215000000000002, 27.599999999999998 9.600000000000001 C 27.599999999999998 8.82, 27.705 8.88, 27.599999999999998 8.040000000000001 C 27.39 7.140000000000001, 27.45 7.0200000000000005, 27.18 6.24 C 26.85 5.58, 26.88 5.43, 26.52 4.92 C 26.130000000000003 4.56, 26.175 4.514999999999999, 25.740000000000002 4.199999999999999 C 25.26 3.9299999999999997, 25.380000000000003 3.825, 24.78 3.66 C 24.060000000000002 3.6, 24.03 3.66, 23.34 3.54 C 22.68 3.3600000000000003, 22.439999999999998 3.27, 22.02 3.18 C 21.84 3.18, 21.78 3.18, 21.66 3.18 C 21.6 3.18, 21.615 3.18, 21.54 3.18 L 21.36 3.18" fill="none" stroke="black" stroke-width="2"></path><path d="M 15.54 42.06 C 15.06 40.11, 15.030000000000001 40.245000000000005, 14.580000000000002 38.160000000000004 C 14.16 35.94, 14.145 36.075, 13.74 33.72 C 13.350000000000001 31.23, 13.200000000000001 30.57, 12.96 28.740000000000002 C 12.870000000000001 27.57, 12.87 27.570000000000004, 12.78 26.400000000000002 C 12.690000000000001 25.23, 12.645000000000001 25.049999999999997, 12.600000000000001 24.06 C 12.600000000000001 23.25, 12.510000000000002 23.16, 12.600000000000001 22.44 C 12.780000000000001 21.810000000000002, 12.75 21.75, 12.96 21.18 C 13.200000000000001 20.67, 13.200000000000003 20.58, 13.440000000000001 20.16 C 13.68 19.83, 13.439999999999998 19.8, 13.919999999999998 19.5 C 14.639999999999999 19.23, 14.399999999999999 19.095, 15.36 18.96 C 16.56 18.96, 16.095 19.05, 17.759999999999998 18.96 C 19.89 18.78, 19.665 18.765, 22.02 18.6 C 24.6 18.45, 25.32 18.375, 27.18 18.299999999999997 C 28.32 18.299999999999997, 28.560000000000002 18.209999999999997, 29.46 18.299999999999997 C 30.12 18.479999999999997, 30.375 18.555, 30.78 18.66 C 30.93 18.689999999999998, 30.945 18.645, 31.08 18.72 C 31.2 18.84, 31.215 18.810000000000002, 31.32 18.96 C 31.41 19.14, 31.380000000000003 18.990000000000002, 31.5 19.32 C 31.65 19.8, 31.724999999999998 19.785000000000004, 31.799999999999997 20.28 C 31.799999999999997 20.79, 31.799999999999997 20.354999999999997, 31.799999999999997 21.299999999999997 C 31.799999999999997 22.68, 31.964999999999996 22.485, 31.799999999999997 24.06 C 31.47 25.83, 31.485 25.754999999999995, 31.14 27.599999999999998 C 30.78 29.52, 30.75 29.73, 30.42 31.44 C 30.12 32.94, 30.075 33.15, 29.82 34.44 C 29.61 35.519999999999996, 29.64 35.504999999999995, 29.400000000000002 36.599999999999994 C 29.130000000000003 37.709999999999994, 29.13 37.71, 28.86 38.82 C 28.59 39.93, 28.47 40.44, 28.32 41.04 C 28.29 41.129999999999995, 28.275 41.175, 28.259999999999998 41.22 C 28.259999999999998 41.22, 28.259999999999998 41.22, 28.259999999999998 41.22 C 28.259999999999998 41.22, 28.259999999999998 41.144999999999996, 28.259999999999998 41.22 C 28.259999999999998 41.37, 28.259999999999998 41.44499999999999, 28.259999999999998 41.519999999999996 C 28.259999999999998 41.519999999999996, 28.259999999999998 41.41499999999999, 28.259999999999998 41.519999999999996 C 28.259999999999998 41.73, 28.275 41.745, 28.259999999999998 41.94 C 28.23 42.12, 28.245000000000005 42.17999999999999, 28.200000000000003 42.3 C 28.14 42.36, 28.11 42.39, 28.08 42.42 L 28.08 42.42" fill="none" stroke="black" stroke-width="2"></path><path d="M 10.86 43.26 C 11.19 43.26, 10.829999999999998 43.364999999999995, 11.52 43.26 C 12.57 43.05, 12.195 43.08, 13.620000000000001 42.839999999999996 C 15.42 42.56999999999999, 15.645 42.434999999999995, 17.22 42.3 C 18.57 42.3, 18.255 42.285, 19.919999999999998 42.3 C 21.9 42.33, 21.66 42.345, 23.88 42.36 C 26.339999999999996 42.36, 26.969999999999995 42.36, 28.799999999999997 42.36 C 30 42.36, 30.21 42.269999999999996, 31.200000000000003 42.36 C 31.98 42.54, 32.325 42.629999999999995, 32.76 42.72 L 32.94 42.72" fill="none" stroke="black" stroke-width="2"></path></svg>