<svg width="48" height="48" viewBox="0 0 48 48" xmlns="http://www.w3.org/2000/svg"><path d="M 12.66 43.980000000000004 C 12.39 42.870000000000005, 12.495000000000001 43.394999999999996, 12.120000000000001 41.76 C 11.64 39.599999999999994, 11.52 39.36, 11.16 37.44 C 10.92 35.76, 10.8 35.504999999999995, 10.68 34.08 C 10.68 32.91, 10.725 32.7, 10.68 31.740000000000002 C 10.59 30.990000000000002, 10.545 30.945, 10.5 30.240000000000002 C 10.5 29.580000000000002, 10.5 29.565, 10.5 28.92 C 10.5 28.290000000000003, 10.5 28.215000000000003, 10.5 27.660000000000004 C 10.5 27.180000000000003, 10.5 27.165000000000006, 10.5 26.700000000000003 C 10.5 26.25, 10.5 26.249999999999996, 10.5 25.799999999999997 C 10.5 25.35, 10.5 25.275000000000002, 10.5 24.900000000000002 C 10.5 24.6, 10.5 24.615, 10.5 24.299999999999997 C 10.5 23.97, 10.335 24.134999999999998, 10.5 23.64 C 10.83 22.98, 10.815000000000001 22.815, 11.16 22.32 C 11.52 21.990000000000002, 11.489999999999998 22.035, 11.879999999999999 21.66 C 12.3 21.240000000000002, 12.120000000000001 21.225, 12.72 20.82 C 13.5 20.43, 13.274999999999999 20.34, 14.28 20.04 C 15.510000000000002 19.83, 15.510000000000002 19.8, 16.740000000000002 19.62 C 17.970000000000002 19.47, 17.430000000000003 19.380000000000003, 19.200000000000003 19.32 C 21.51 19.35, 21.9 19.365, 23.82 19.38 C 25.35 19.38, 25.785000000000004 19.38, 26.880000000000003 19.38 C 27.540000000000003 19.38, 27.765000000000004 19.38, 28.200000000000003 19.38 L 28.619999999999997 19.38" fill="none" stroke="black" stroke-width="2"></path><path d="M 20.759999999999998 3.96 C 19.86 4.5, 19.92 4.05, 18.96 5.04 C 17.939999999999998 6.48, 17.595 6.66, 16.919999999999998 7.92 C 16.589999999999996 9, 16.439999999999998 8.76, 16.259999999999998 10.08 C 16.23 11.64, 15.930000000000003 12.015, 16.200000000000003 13.200000000000001 C 16.770000000000003 14.010000000000002, 16.5 14.235000000000001, 17.34 14.82 C 18.45 15.18, 18.465 15.375, 19.56 15.54 C 20.64 15.51, 20.61 15.795, 21.72 15.48 C 22.86 14.879999999999999, 23.25 14.879999999999999, 24 14.28 C 24.36 13.68, 24.54 13.680000000000001, 24.72 13.080000000000002 C 24.72 12.48, 24.75 12.584999999999999, 24.72 11.879999999999999 C 24.659999999999997 11.07, 24.794999999999998 11.084999999999999, 24.599999999999998 10.26 C 24.27 9.42, 24.255000000000003 9.345, 23.94 8.58 C 23.64 7.89, 23.655 7.77, 23.34 7.199999999999999 C 23.009999999999998 6.75, 22.935 6.615, 22.68 6.300000000000001 C 22.5 6.12, 22.665 6.285, 22.32 5.9399999999999995 C 21.81 5.43, 21.72 5.25, 21.299999999999997 4.92 C 20.97 4.77, 20.88 4.74, 20.64 4.62 C 20.490000000000002 4.529999999999999, 20.415 4.484999999999999, 20.34 4.4399999999999995 L 20.34 4.4399999999999995" fill="none" stroke="black" stroke-width="2"></path><path d="M 21.96 25.259999999999998 C 21.03 25.89, 20.925 25.695, 20.1 26.52 C 19.380000000000003 27.54, 19.305 27.224999999999998, 18.66 28.56 C 18.09 30.21, 17.895 30.435, 17.52 31.86 C 17.34 33.06, 17.16 33.059999999999995, 17.16 34.26 C 17.34 35.46, 17.235 35.790000000000006, 17.52 36.660000000000004 C 17.909999999999997 37.2, 17.415 37.290000000000006, 18.299999999999997 37.74 C 19.68 38.1, 19.784999999999997 38.355000000000004, 21.06 38.46 C 22.229999999999997 38.31, 22.259999999999998 38.595000000000006, 23.4 38.160000000000004 C 24.509999999999998 37.44, 24.824999999999996 37.515, 25.619999999999997 36.72 C 26.099999999999998 35.85, 26.249999999999996 35.985, 26.58 34.980000000000004 C 26.759999999999998 33.84, 26.91 33.765, 26.94 32.7 C 26.82 31.71, 27.045 31.845, 26.700000000000003 30.72 C 26.130000000000003 29.46, 26.16 29.220000000000002, 25.56 28.200000000000003 C 24.93 27.42, 24.824999999999996 27.240000000000002, 24.299999999999997 26.64 C 23.88 26.22, 23.835 26.114999999999995, 23.46 25.799999999999997 C 23.13 25.59, 23.084999999999997 25.485, 22.799999999999997 25.380000000000003 C 22.56 25.380000000000003, 22.439999999999998 25.380000000000003, 22.32 25.380000000000003 L 22.32 25.380000000000003" fill="none" stroke="black" stroke-width="2"></path><path d="M 17.82 32.04 C 18.21 32.34, 17.790000000000003 32.535, 18.6 32.64 C 19.83 32.55, 19.56 32.58, 21.06 32.46 C 22.83 32.31, 23.205 32.235, 24.599999999999998 32.160000000000004 C 25.619999999999997 32.160000000000004, 26.13 32.160000000000004, 26.64 32.160000000000004 C 26.64 32.160000000000004, 26.595 32.160000000000004, 26.64 32.160000000000004 C 26.73 32.160000000000004, 26.775 32.160000000000004, 26.82 32.160000000000004 L 26.82 32.160000000000004" fill="none" stroke="black" stroke-width="2"></path></svg>