<svg width="48" height="48" viewBox="0 0 48 48" xmlns="http://www.w3.org/2000/svg"><path d="M 14.879999999999999 6.0600000000000005 C 14.73 7.050000000000001, 14.700000000000003 7.215000000000002, 14.580000000000002 8.040000000000001 C 14.49 8.7, 14.579999999999998 8.37, 14.399999999999999 9.36 C 14.129999999999999 10.68, 14.129999999999999 10.32, 13.86 12 C 13.59 14.040000000000001, 13.620000000000001 14.175, 13.32 16.080000000000002 C 12.99 17.85, 12.870000000000001 18.12, 12.66 19.62 C 12.57 20.85, 12.57 20.745, 12.48 22.080000000000002 C 12.39 23.520000000000003, 12.344999999999999 23.490000000000002, 12.299999999999999 24.96 C 12.299999999999999 26.46, 12.165 26.73, 12.299999999999999 27.96 C 12.57 28.92, 12.54 29.190000000000005, 12.84 29.880000000000003 C 13.17 30.3, 13.004999999999999 30.36, 13.5 30.72 C 14.16 31.02, 13.98 31.08, 14.82 31.32 C 15.84 31.5, 15.75 31.59, 16.86 31.68 C 18.06 31.68, 17.924999999999997 31.68, 19.259999999999998 31.68 C 20.73 31.68, 21.105000000000004 31.68, 22.200000000000003 31.68 C 22.92 31.68, 23.1 31.68, 23.64 31.68 C 24 31.68, 24.18 31.68, 24.36 31.68 C 24.36 31.68, 24.36 31.68, 24.36 31.68 L 24.36 31.68" fill="none" stroke="black" stroke-width="2"></path><path d="M 25.200000000000003 37.38 C 24.6 36.96, 24.675 36.795, 24 36.54 C 23.25 36.45, 23.22 36.375, 22.5 36.36 C 21.810000000000002 36.42, 21.855 36.165000000000006, 21.12 36.480000000000004 C 20.34 37.05, 20.174999999999997 36.93, 19.56 37.62 C 19.11 38.43, 18.75 38.370000000000005, 18.66 39.24 C 18.93 40.17, 18.795 40.425, 19.200000000000003 41.099999999999994 C 19.740000000000002 41.519999999999996, 19.770000000000003 41.669999999999995, 20.28 41.94 C 20.76 42.06, 20.715000000000003 42.165, 21.240000000000002 42.18 C 21.810000000000002 42.09, 21.615000000000002 42.375, 22.38 42 C 23.339999999999996 41.34, 23.459999999999997 41.715, 24.299999999999997 40.68 C 25.02 39.269999999999996, 25.230000000000004 39.285, 25.740000000000002 37.86 C 26.04 36.42, 26.144999999999996 36.855000000000004, 26.339999999999996 34.980000000000004 C 26.43 32.67, 26.415 32.865, 26.52 30.36 C 26.64 27.66, 26.534999999999997 27.615000000000002, 26.759999999999998 24.96 C 27.09 22.35, 27.015 21.885, 27.42 19.740000000000002 C 27.900000000000002 18.060000000000002, 27.855000000000004 18.585, 28.380000000000003 16.38 C 28.950000000000003 13.649999999999999, 29.145 12.93, 29.52 10.92 C 29.700000000000003 9.629999999999999, 29.790000000000003 8.985, 29.880000000000003 8.34 C 29.880000000000003 8.34, 29.880000000000003 8.34, 29.880000000000003 8.34 C 29.880000000000003 8.34, 29.880000000000003 8.34, 29.880000000000003 8.34 L 29.880000000000003 8.34" fill="none" stroke="black" stroke-width="2"></path><path d="M 20.52 14.52 C 19.86 14.76, 19.785000000000004 14.579999999999998, 19.200000000000003 15 C 18.69 15.600000000000001, 18.525 15.630000000000003, 18.18 16.200000000000003 C 18 16.740000000000002, 17.939999999999998 16.695, 17.82 17.28 C 17.76 17.91, 17.595000000000002 17.895, 17.700000000000003 18.54 C 17.970000000000002 19.2, 17.745000000000005 19.365, 18.240000000000002 19.86 C 18.96 20.189999999999998, 19.05 20.34, 19.68 20.52 C 20.22 20.55, 20.294999999999998 20.565, 20.759999999999998 20.580000000000002 C 21.15 20.580000000000002, 21.104999999999997 20.880000000000003, 21.54 20.580000000000002 C 22.02 19.98, 22.11 20.07, 22.5 19.38 C 22.8 18.6, 22.905 18.435000000000002, 23.1 17.82 C 23.19 17.369999999999997, 23.235 17.384999999999998, 23.28 16.919999999999998 C 23.28 16.439999999999998, 23.37 16.335, 23.28 15.96 C 23.1 15.69, 23.22 15.659999999999998, 22.919999999999998 15.419999999999998 C 22.5 15.209999999999999, 22.485000000000003 15.12, 22.080000000000002 15 C 21.689999999999998 14.97, 21.494999999999997 14.955000000000002, 21.299999999999997 14.940000000000001 C 21.299999999999997 14.940000000000001, 21.419999999999995 14.940000000000001, 21.299999999999997 14.940000000000001 L 20.82 14.940000000000001" fill="none" stroke="black" stroke-width="2"></path><path d="M 23.46 31.259999999999998 C 23.91 31.259999999999998, 23.895 31.259999999999998, 24.36 31.259999999999998 C 24.84 31.259999999999998, 24.975 31.259999999999998, 25.32 31.259999999999998 C 25.53 31.259999999999998, 25.635 31.259999999999998, 25.740000000000002 31.259999999999998 L 25.740000000000002 31.259999999999998" fill="none" stroke="black" stroke-width="2"></path></svg>