<svg width="48" height="48" viewBox="0 0 48 48" xmlns="http://www.w3.org/2000/svg"><path d="M 14.82 5.4 C 14.82 6.8100000000000005, 14.82 6.945, 14.82 8.22 C 14.82 9.36, 14.805 9.51, 14.82 10.5 C 14.85 11.34, 14.76 11.399999999999999, 14.879999999999999 12.18 C 15.09 12.9, 15.014999999999999 13.05, 15.299999999999999 13.620000000000001 C 15.66 14.040000000000001, 15.51 14.115000000000002, 16.02 14.46 C 16.68 14.73, 16.740000000000002 14.82, 17.34 15 C 17.88 15.09, 17.415 14.969999999999999, 18.419999999999998 15.18 C 19.89 15.51, 20.009999999999998 15.66, 21.36 15.84 C 22.59 15.87, 22.515 15.839999999999998, 23.82 15.899999999999999 C 25.2 15.99, 25.529999999999998 16.035, 26.58 16.080000000000002 C 27.299999999999997 16.080000000000002, 27.33 16.200000000000003, 28.02 16.080000000000002 C 28.68 15.840000000000002, 28.844999999999995 16.005000000000003, 29.339999999999996 15.600000000000001 C 29.669999999999998 15.030000000000001, 29.7 15.180000000000001, 30 14.46 C 30.27 13.59, 30.27 13.725000000000001, 30.54 12.72 C 30.81 11.58, 30.945 11.73, 31.08 10.44 C 31.08 9, 31.08 8.700000000000001, 31.08 7.5600000000000005 C 31.08 6.720000000000001, 31.08 6.45, 31.08 5.88 C 31.08 5.58, 31.08 5.4750000000000005, 31.08 5.28 C 31.08 5.1899999999999995, 31.08 5.145, 31.08 5.1 C 31.08 5.1, 31.08 5.1, 31.08 5.1 L 31.08 5.1" fill="none" stroke="black" stroke-width="2"></path><path d="M 23.4 5.34 C 22.29 5.79, 22.05 5.640000000000001, 21.18 6.24 C 20.549999999999997 6.99, 20.279999999999998 7.050000000000001, 19.919999999999998 7.74 C 19.83 8.370000000000001, 19.740000000000002 8.49, 19.740000000000002 9 C 19.83 9.39, 19.515 9.36, 19.919999999999998 9.78 C 20.64 10.23, 20.595 10.32, 21.36 10.68 C 22.17 10.95, 22.305 11.085, 22.98 11.22 C 23.52 11.22, 23.625 11.235000000000001, 24.06 11.22 C 24.39 11.190000000000001, 24.314999999999998 11.505, 24.72 11.16 C 25.2 10.5, 25.305 10.455, 25.68 9.84 C 25.95 9.27, 26.07 9.134999999999998, 26.22 8.7 C 26.25 8.4, 26.355 8.46, 26.28 8.100000000000001 C 26.1 7.680000000000001, 26.25 7.725, 25.92 7.26 C 25.44 6.75, 25.425 6.705, 24.96 6.24 C 24.509999999999998 5.82, 24.404999999999998 5.7, 24.06 5.4 C 23.82 5.220000000000001, 23.700000000000003 5.13, 23.580000000000002 5.04 C 23.580000000000002 5.04, 23.610000000000003 5.07, 23.580000000000002 5.04 L 23.46 4.92" fill="none" stroke="black" stroke-width="2"></path><path d="M 21.240000000000002 15.600000000000001 C 21.240000000000002 16.41, 21.240000000000002 15.899999999999999, 21.240000000000002 17.22 C 21.240000000000002 19.049999999999997, 21.300000000000004 19.064999999999998, 21.240000000000002 20.88 C 21.12 22.68, 21.225 22.725, 21 24.48 C 20.67 26.19, 20.775 26.580000000000002, 20.34 27.900000000000002 C 19.799999999999997 28.83, 20.115 28.785, 19.259999999999998 29.759999999999998 C 18.089999999999996 30.779999999999998, 17.654999999999998 31.199999999999996, 16.919999999999998 31.799999999999997 L 16.32 32.160000000000004" fill="none" stroke="black" stroke-width="2"></path><path d="M 26.099999999999998 23.1 C 26.07 24.45, 26.279999999999998 23.894999999999996, 26.04 25.799999999999997 C 25.59 28.259999999999998, 25.71 28.544999999999998, 25.14 30.72 C 24.45 32.61, 24.72 32.67, 23.759999999999998 34.5 C 22.529999999999998 36.269999999999996, 22.634999999999998 36.45, 21.299999999999997 38.04 C 19.86 39.45, 19.814999999999998 39.644999999999996, 18.419999999999998 40.86 C 17.07 41.88, 16.560000000000002 42.285000000000004, 15.72 42.900000000000006 L 15.059999999999999 43.32" fill="none" stroke="black" stroke-width="2"></path></svg>