<svg width="48" height="48" viewBox="0 0 48 48" xmlns="http://www.w3.org/2000/svg"><path d="M 11.22 26.339999999999996 C 11.7 26.43, 11.37 26.43, 12.18 26.52 C 13.32 26.61, 13.5 26.655, 14.46 26.700000000000003 C 15.24 26.700000000000003, 15.27 26.820000000000004, 16.02 26.700000000000003 C 16.740000000000002 26.46, 16.740000000000002 26.61, 17.46 26.22 C 18.18 25.68, 18.18 25.77, 18.9 25.14 C 19.619999999999997 24.42, 19.575 24.795, 20.34 23.700000000000003 C 21.15 22.23, 21.48 21.75, 21.96 20.759999999999998 C 22.11 20.25, 22.154999999999998 20.040000000000003, 22.259999999999998 19.740000000000002 C 22.32 19.65, 22.349999999999998 19.605, 22.38 19.56 C 22.38 19.56, 22.439999999999998 19.455, 22.38 19.56 C 22.259999999999998 19.77, 22.575 18.945, 22.14 19.98 C 21.39 21.840000000000003, 21.075000000000003 22.245000000000005, 20.64 23.700000000000003 C 20.52 24.75, 20.46 25.11, 20.4 25.799999999999997 C 20.4 26.13, 20.189999999999998 26.085, 20.4 26.46 C 20.82 26.88, 20.610000000000003 26.955, 21.240000000000002 27.299999999999997 C 22.08 27.569999999999997, 22.02 27.705, 22.919999999999998 27.839999999999996 C 23.879999999999995 27.839999999999996, 24.119999999999997 27.884999999999994, 24.839999999999996 27.839999999999996 C 25.319999999999997 27.75, 25.229999999999997 27.915000000000003, 25.799999999999997 27.660000000000004 C 26.459999999999997 27.240000000000002, 26.369999999999997 27.435000000000002, 27.119999999999997 26.82 C 27.959999999999997 26.01, 28.154999999999994 25.935000000000002, 28.799999999999997 25.200000000000003 C 29.25 24.54, 29.325000000000003 24.555, 29.700000000000003 23.88 C 30 23.189999999999998, 30.059999999999995 23.46, 30.299999999999997 22.5 C 30.48 21.27, 30.57 21.299999999999997, 30.660000000000004 20.04 C 30.660000000000004 18.75, 30.660000000000004 18.825, 30.660000000000004 17.46 C 30.660000000000004 16.020000000000003, 30.780000000000005 16.020000000000003, 30.660000000000004 14.580000000000002 C 30.42 13.14, 30.465 13.17, 30.18 11.7 C 29.85 10.2, 29.939999999999998 10.004999999999999, 29.52 8.7 C 29.009999999999998 7.59, 28.935 7.29, 28.5 6.48 C 28.14 5.970000000000001, 28.005000000000003 5.76, 27.78 5.46 C 27.689999999999998 5.37, 27.645 5.325, 27.599999999999998 5.28 C 27.599999999999998 5.28, 27.644999999999996 5.325, 27.599999999999998 5.28 L 27.42 5.1" fill="none" stroke="black" stroke-width="2"></path><path d="M 19.38 7.14 C 18.54 7.41, 18.585 7.305, 17.700000000000003 7.68 C 16.770000000000003 8.16, 16.635 8.07, 15.84 8.64 C 15.18 9.3, 14.954999999999998 9.27, 14.52 9.959999999999999 C 14.31 10.68, 14.205000000000002 10.575, 14.100000000000001 11.399999999999999 C 14.100000000000001 12.329999999999998, 13.875000000000002 12.36, 14.100000000000001 13.26 C 14.55 14.129999999999999, 14.16 14.28, 15 15 C 16.23 15.57, 16.41 15.855, 17.46 16.14 C 18.330000000000002 16.14, 18.510000000000005 16.23, 19.200000000000003 16.14 C 19.71 15.96, 19.65 16.2, 20.22 15.78 C 20.85 15.120000000000001, 21.015 15.105, 21.48 14.46 C 21.78 13.830000000000002, 21.915000000000003 13.71, 22.080000000000002 13.200000000000001 C 22.11 12.809999999999999, 22.200000000000003 12.989999999999998, 22.14 12.419999999999998 C 21.990000000000002 11.669999999999998, 21.990000000000002 11.459999999999999, 21.84 10.92 C 21.689999999999998 10.59, 21.78 10.665, 21.54 10.26 C 21.21 9.780000000000001, 21.195 9.705, 20.88 9.3 C 20.58 8.97, 20.64 8.985000000000001, 20.28 8.64 C 19.86 8.280000000000001, 19.785000000000004 8.175, 19.44 7.92 C 19.17 7.77, 19.155 7.755, 18.9 7.62 C 18.659999999999997 7.5, 18.54 7.4399999999999995, 18.419999999999998 7.38 L 18.419999999999998 7.38" fill="none" stroke="black" stroke-width="2"></path><path d="M 9.72 45.96 C 10.38 45.72, 10.065000000000001 45.825, 11.040000000000001 45.480000000000004 C 12.330000000000002 45.03, 12.510000000000002 45.075, 13.620000000000001 44.58 C 14.55 44.04, 14.535 44.235, 15.48 43.5 C 16.439999999999998 42.57, 16.409999999999997 42.99, 17.4 41.64 C 18.42 39.87, 18.435000000000002 39.959999999999994, 19.44 38.099999999999994 C 20.43 36.15, 20.775 35.52, 21.419999999999998 34.2 C 21.72 33.510000000000005, 21.735 33.75, 22.02 32.82 C 22.29 31.65, 22.335 31.515, 22.56 30.48 C 22.74 29.58, 22.83 29.355, 22.919999999999998 28.68 C 22.919999999999998 28.23, 22.919999999999998 28.005000000000003, 22.919999999999998 27.78 C 22.919999999999998 27.78, 22.919999999999998 27.78, 22.919999999999998 27.78 C 22.919999999999998 27.78, 22.964999999999996 27.645000000000003, 22.919999999999998 27.78 C 22.83 28.05, 22.875 27.84, 22.740000000000002 28.32 C 22.560000000000002 29.01, 22.53 28.965000000000003, 22.38 29.700000000000003 C 22.259999999999998 30.48, 22.23 30.584999999999997, 22.14 31.259999999999998 C 22.08 31.830000000000002, 22.08 31.590000000000003, 22.02 32.400000000000006 C 21.96 33.45, 21.93 33.495000000000005, 21.9 34.5 C 21.9 35.46, 21.869999999999997 35.355000000000004, 21.9 36.42 C 21.96 37.59, 21.765 37.785, 22.02 38.76 C 22.47 39.54, 22.514999999999997 39.765, 22.919999999999998 40.32 C 23.28 40.650000000000006, 23.085 40.455000000000005, 23.64 40.980000000000004 C 24.39 41.7, 24.36 41.85, 25.14 42.42 C 25.95 42.84, 25.875 42.87, 26.759999999999998 43.26 C 27.72 43.620000000000005, 27.689999999999998 43.71000000000001, 28.68 43.980000000000004 C 29.7 44.16, 30.104999999999997 44.25, 30.72 44.339999999999996 C 30.93 44.339999999999996, 30.915 44.339999999999996, 31.14 44.339999999999996 C 31.38 44.339999999999996, 31.5 44.339999999999996, 31.619999999999997 44.339999999999996 L 31.619999999999997 44.339999999999996" fill="none" stroke="black" stroke-width="2"></path></svg>