<svg width="48" height="48" viewBox="0 0 48 48" xmlns="http://www.w3.org/2000/svg"><path d="M 20.16 2.82 C 18.93 3.45, 18.810000000000002 3.285, 17.700000000000003 4.08 C 16.71 5.04, 16.305 4.9350000000000005, 15.72 6 C 15.54 7.17, 15.36 7.35, 15.36 8.34 C 15.54 9.149999999999999, 15.015 9.165, 15.72 9.959999999999999 C 16.95 10.739999999999998, 16.8 10.905, 18.18 11.52 C 19.71 11.969999999999999, 20.160000000000004 12.194999999999999, 21.240000000000002 12.419999999999998 C 21.87 12.419999999999998, 21.87 12.554999999999998, 22.5 12.419999999999998 C 23.13 12.149999999999999, 23.115 12.36, 23.759999999999998 11.879999999999999 C 24.419999999999998 11.19, 24.615 11.129999999999999, 25.08 10.5 C 25.349999999999998 9.93, 25.439999999999998 9.945, 25.619999999999997 9.36 C 25.709999999999997 8.76, 25.784999999999997 8.879999999999999, 25.799999999999997 8.16 C 25.74 7.32, 25.83 7.1850000000000005, 25.68 6.48 C 25.44 5.91, 25.455000000000002 5.82, 25.200000000000003 5.34 C 24.930000000000003 4.95, 25.080000000000005 4.92, 24.660000000000004 4.5600000000000005 C 24.090000000000003 4.23, 24.134999999999998 4.155, 23.52 3.9000000000000004 C 22.86 3.72, 22.740000000000002 3.72, 22.200000000000003 3.54 C 21.78 3.3600000000000003, 21.795 3.27, 21.36 3.18 C 20.91 3.18, 20.76 3.18, 20.46 3.18 L 20.16 3.18" fill="none" stroke="black" stroke-width="2"></path><path d="M 12.78 26.759999999999998 C 12.690000000000001 25.2, 12.645000000000001 25.155, 12.600000000000001 23.64 C 12.600000000000001 22.17, 12.600000000000001 21.795, 12.600000000000001 20.700000000000003 C 12.600000000000001 19.98, 12.39 19.845, 12.600000000000001 19.259999999999998 C 13.020000000000001 18.81, 12.840000000000002 18.63, 13.440000000000001 18.36 C 14.22 18.27, 13.785 18.225, 15 18.18 C 16.65 18.18, 15.959999999999997 18.12, 18.299999999999997 18.18 C 21.33 18.299999999999997, 21.869999999999997 18.33, 24.36 18.419999999999998 C 26.31 18.479999999999997, 26.805 18.494999999999997, 28.259999999999998 18.54 C 29.22 18.57, 29.355 18.585, 30.18 18.6 C 30.869999999999997 18.6, 31.02 18.555, 31.56 18.6 L 32.339999999999996 18.78" fill="none" stroke="black" stroke-width="2"></path><path d="M 21.419999999999998 18.419999999999998 C 21.45 19.919999999999998, 21.465 19.964999999999996, 21.48 21.419999999999998 C 21.48 22.83, 21.72 22.515, 21.48 24.240000000000002 C 21 26.28, 21.315 26.37, 20.52 28.32 C 19.409999999999997 30.18, 19.424999999999997 30.39, 18.299999999999997 32.04 C 17.159999999999997 33.480000000000004, 17.13 33.78, 16.02 34.92 C 14.94 35.76, 14.7 35.99999999999999, 13.86 36.599999999999994 C 13.26 36.959999999999994, 13.17 37.05, 12.66 37.32 L 11.82 37.68" fill="none" stroke="black" stroke-width="2"></path><path d="M 28.44 28.14 C 28.200000000000003 29.400000000000002, 28.47 28.905, 27.96 30.660000000000004 C 27.18 32.910000000000004, 26.970000000000002 33.405, 26.400000000000002 35.160000000000004 C 26.04 36.42, 26.25 36.3, 25.68 37.68 C 24.9 39.18, 24.824999999999996 39.54, 24.119999999999997 40.68 C 23.49 41.46, 24.029999999999998 41.31, 22.86 42.24 C 21.15 43.32000000000001, 20.925 43.650000000000006, 19.44 44.400000000000006 C 18.18 44.82000000000001, 17.834999999999997 44.925000000000004, 16.919999999999998 45.24 C 16.349999999999998 45.45, 16.11 45.540000000000006, 15.78 45.660000000000004 L 15.600000000000001 45.72" fill="none" stroke="black" stroke-width="2"></path></svg>