<svg width="48" height="48" viewBox="0 0 48 48" xmlns="http://www.w3.org/2000/svg"><path d="M 15 30.839999999999996 C 15.03 30.839999999999996, 14.774999999999999 30.839999999999996, 15.059999999999999 30.839999999999996 C 15.6 30.839999999999996, 15.27 30.839999999999996, 16.14 30.839999999999996 C 17.34 30.839999999999996, 17.294999999999998 30.839999999999996, 18.54 30.839999999999996 C 19.83 30.839999999999996, 19.83 30.839999999999996, 21.12 30.839999999999996 C 22.410000000000004 30.839999999999996, 22.545 30.839999999999996, 23.700000000000003 30.839999999999996 C 24.720000000000002 30.839999999999996, 24.6 30.839999999999996, 25.740000000000002 30.839999999999996 C 27 30.839999999999996, 27.299999999999997 30.839999999999996, 28.259999999999998 30.839999999999996 C 28.919999999999998 30.839999999999996, 28.86 30.839999999999996, 29.58 30.839999999999996 C 30.36 30.839999999999996, 30.525 30.839999999999996, 31.14 30.839999999999996 C 31.59 30.839999999999996, 31.77 30.839999999999996, 32.04 30.839999999999996 L 32.22 30.839999999999996" fill="none" stroke="black" stroke-width="2"></path><path d="M 17.16 36.24 C 17.4 36.900000000000006, 17.175 36.480000000000004, 17.64 37.56 C 18.33 39.06, 18.405 39.525000000000006, 19.02 40.56 C 19.560000000000002 41.13, 19.425 41.205000000000005, 20.1 41.7 C 20.91 42.120000000000005, 20.759999999999998 42.15, 21.72 42.54 C 22.83 42.9, 22.83 43.035, 23.94 43.26 C 25.050000000000004 43.349999999999994, 25.215000000000003 43.425, 26.160000000000004 43.44 C 26.94 43.379999999999995, 26.745 43.769999999999996, 27.72 43.32 C 28.89 42.480000000000004, 29.099999999999998 42.57, 30.06 41.64 C 30.81 40.62, 31.11 40.49999999999999, 31.56 39.599999999999994 C 31.71 38.81999999999999, 31.725 38.81999999999999, 31.86 38.04 C 31.979999999999997 37.260000000000005, 31.949999999999996 37.635000000000005, 32.099999999999994 36.480000000000004 C 32.28 34.95, 32.37 34.965, 32.46 33.42 C 32.46 31.86, 32.415 32.265, 32.46 30.299999999999997 C 32.55 27.93, 32.595 27.644999999999996, 32.64 25.56 C 32.64 23.759999999999998, 32.61 23.94, 32.64 21.96 C 32.7 19.8, 32.714999999999996 19.455000000000002, 32.76 17.64 C 32.79 16.17, 32.805 15.990000000000002, 32.82 14.700000000000001 C 32.82 13.59, 32.82 13.545000000000002, 32.82 12.48 C 32.82 11.46, 32.82 11.219999999999999, 32.82 10.44 C 32.82 9.899999999999999, 32.82 9.674999999999999, 32.82 9.36 C 32.82 9.27, 32.82 9.225, 32.82 9.18 C 32.82 9.18, 32.82 9.18, 32.82 9.18 L 32.82 9.18" fill="none" stroke="black" stroke-width="2"></path><path d="M 24.54 13.5 C 24.15 13.44, 24.389999999999997 13.29, 23.759999999999998 13.379999999999999 C 22.89 13.62, 22.98 13.065, 22.02 13.86 C 20.97 15.209999999999999, 20.519999999999996 15.149999999999999, 19.919999999999998 16.56 C 19.77 18.03, 19.395 18, 19.62 19.5 C 20.22 21.03, 20.085 21.419999999999998, 20.82 22.56 C 21.689999999999998 23.31, 20.909999999999997 23.729999999999997, 22.56 24.06 C 24.990000000000002 23.97, 25.35 24.615, 27.42 23.88 C 29.13 22.5, 29.834999999999997 22.485, 30.839999999999996 21.12 C 31.14 19.77, 31.47 19.439999999999998, 31.44 18.419999999999998 C 31.08 17.729999999999997, 31.259999999999998 17.744999999999997, 30.72 17.04 C 30 16.32, 30.165 16.275000000000002, 29.28 15.600000000000001 C 28.23 14.97, 28.125 14.745000000000001, 27.18 14.34 C 26.34 14.16, 26.28 14.07, 25.5 13.98 C 24.78 13.98, 24.419999999999998 13.98, 24.06 13.98 L 24.06 13.98" fill="none" stroke="black" stroke-width="2"></path></svg>