<svg width="48" height="48" viewBox="0 0 48 48" xmlns="http://www.w3.org/2000/svg"><path d="M 12.419999999999998 4.199999999999999 C 12.12 5.85, 12.21 5.145, 11.82 7.5 C 11.34 10.56, 11.174999999999999 10.905000000000001, 10.86 13.620000000000001 C 10.71 15.99, 10.635 16.155, 10.56 18.36 C 10.56 20.4, 10.56 20.700000000000003, 10.56 22.44 C 10.56 23.880000000000003, 10.56 23.67, 10.56 25.32 C 10.56 27.18, 10.56 27.735, 10.56 29.04 C 10.56 29.79, 10.350000000000001 29.939999999999998, 10.56 30.54 C 10.98 30.990000000000002, 10.874999999999998 31.065, 11.399999999999999 31.44 C 12.03 31.740000000000002, 11.475 31.724999999999998, 12.66 32.04 C 14.4 32.370000000000005, 14.625 32.475, 16.14 32.7 C 17.43 32.82, 17.88 32.879999999999995, 18.72 32.94 C 19.11 32.94, 19.155 32.955, 19.5 32.94 C 19.8 32.91, 19.725 33.42, 20.1 32.88 C 20.55 31.830000000000002, 20.55 32.325, 21 30.78 C 21.45 28.740000000000002, 21.674999999999997 28.950000000000003, 21.9 26.700000000000003 C 21.9 24.240000000000002, 21.9 24.060000000000002, 21.9 21.78 C 21.9 19.68, 21.9 19.815, 21.9 17.580000000000002 C 21.9 15.21, 21.9 14.85, 21.9 12.84 C 21.9 11.190000000000001, 21.9 11.025, 21.9 9.540000000000001 C 21.9 8.22, 21.9 7.875, 21.9 6.8999999999999995 C 21.9 6.27, 21.9 6.1499999999999995, 21.9 5.64 C 21.9 5.25, 21.9 5.055, 21.9 4.86 C 21.9 4.86, 21.9 4.86, 21.9 4.86 C 21.9 4.86, 21.9 4.86, 21.9 4.86 L 21.9 4.86" fill="none" stroke="black" stroke-width="2"></path><path d="M 10.5 37.019999999999996 C 10.8 36.989999999999995, 10.23 36.885, 11.100000000000001 36.96 C 12.540000000000001 37.14, 12.510000000000002 37.230000000000004, 13.98 37.32 C 15.48 37.32, 15.885000000000002 37.275, 16.98 37.32 C 17.67 37.41, 17.7 37.41, 18.36 37.5 C 18.990000000000002 37.59, 19.305 37.635, 19.62 37.68 L 19.62 37.68" fill="none" stroke="black" stroke-width="2"></path><path d="M 9.42 42.42 C 11.669999999999998 42.39, 12.149999999999999 42.375, 13.919999999999998 42.36 C 15.209999999999999 42.36, 15.149999999999999 42.36, 16.5 42.36 C 17.91 42.36, 18.435000000000002 42.36, 19.32 42.36 C 19.68 42.36, 19.83 42.36, 20.04 42.36 L 20.16 42.36" fill="none" stroke="black" stroke-width="2"></path></svg>