<svg width="48" height="48" viewBox="0 0 48 48" xmlns="http://www.w3.org/2000/svg"><path d="M 14.76 3.18 C 14.76 4.95, 14.715 5.07, 14.76 6.720000000000001 C 14.850000000000001 8.25, 14.775000000000002 8.76, 14.940000000000001 9.78 C 15.18 10.29, 14.834999999999997 10.41, 15.419999999999998 10.8 C 16.35 11.07, 15.72 11.129999999999999, 17.28 11.34 C 19.47 11.49, 20.25 11.52, 21.66 11.64 C 22.29 11.73, 22.259999999999998 11.745000000000001, 22.919999999999998 11.82 C 23.61 11.879999999999999, 23.58 11.91, 24.299999999999997 11.94 C 25.049999999999997 11.94, 25.349999999999998 11.94, 25.799999999999997 11.94 C 25.949999999999996 11.94, 25.83 12.149999999999999, 26.099999999999998 11.94 C 26.490000000000002 11.52, 26.505000000000003 11.955000000000002, 26.880000000000003 11.100000000000001 C 27.240000000000002 9.81, 27.419999999999998 10.08, 27.599999999999998 8.52 C 27.599999999999998 6.6899999999999995, 27.659999999999997 6.57, 27.599999999999998 4.86 C 27.479999999999997 3.2700000000000005, 27.419999999999998 2.475, 27.36 1.6800000000000002 C 27.36 1.6800000000000002, 27.36 1.6800000000000002, 27.36 1.6800000000000002 L 27.36 1.6800000000000002" fill="none" stroke="black" stroke-width="2"></path><path d="M 8.94 42.36 C 9.69 42.09, 9.48 42.525, 10.44 41.82 C 11.61 40.68, 11.639999999999999 41.025, 12.78 39.54 C 13.89 37.71, 14.055 37.545, 15 35.88 C 15.78 34.38, 15.825 34.485, 16.56 32.88 C 17.25 31.17, 17.385 31.200000000000003, 17.94 29.46 C 18.36 27.69, 18.36 27.885, 18.78 25.92 C 19.200000000000003 23.76, 19.41 23.385, 19.62 21.6 C 19.62 20.19, 19.605 20.37, 19.62 18.78 C 19.65 17.01, 19.635 16.455000000000002, 19.68 15.24 C 19.74 14.579999999999998, 19.769999999999996 14.399999999999999, 19.799999999999997 13.919999999999998 C 19.799999999999997 13.62, 19.799999999999997 13.515, 19.799999999999997 13.32 C 19.799999999999997 13.23, 19.799999999999997 13.290000000000001, 19.799999999999997 13.14 C 19.799999999999997 12.93, 19.769999999999996 12.990000000000002, 19.799999999999997 12.72 C 19.86 12.39, 19.889999999999997 12.344999999999999, 19.919999999999998 12.059999999999999 C 19.919999999999998 11.82, 19.919999999999998 11.7, 19.919999999999998 11.58 C 19.919999999999998 11.58, 19.919999999999998 11.58, 19.919999999999998 11.58 L 19.919999999999998 11.58" fill="none" stroke="black" stroke-width="2"></path><path d="M 19.919999999999998 12.78 C 19.919999999999998 14.01, 19.919999999999998 13.92, 19.919999999999998 15.24 C 19.919999999999998 16.65, 19.889999999999997 16.154999999999998, 19.919999999999998 18.06 C 19.979999999999997 20.46, 19.89 20.82, 20.04 22.86 C 20.28 24.54, 20.294999999999998 24.689999999999998, 20.52 26.22 C 20.73 27.6, 20.67 27.494999999999997, 20.94 28.98 C 21.270000000000003 30.57, 21.060000000000002 30.510000000000005, 21.6 32.160000000000004 C 22.35 33.870000000000005, 22.380000000000003 34.29, 23.1 35.58 C 23.79 36.45, 23.85 36.585, 24.48 37.32 C 25.049999999999997 37.92, 24.959999999999997 37.87499999999999, 25.619999999999997 38.519999999999996 C 26.369999999999997 39.21, 26.414999999999996 39.39, 27.119999999999997 39.900000000000006 C 27.78 40.230000000000004, 27.9 40.290000000000006, 28.44 40.56 C 28.86 40.77, 28.905 40.830000000000005, 29.28 40.980000000000004 C 29.61 41.07000000000001, 29.775000000000002 41.115, 29.94 41.160000000000004 L 29.94 41.160000000000004" fill="none" stroke="black" stroke-width="2"></path></svg>