<svg width="48" height="48" viewBox="0 0 48 48" xmlns="http://www.w3.org/2000/svg"><path d="M 9.24 4.26 C 9.120000000000001 4.83, 9.195 4.59, 9 5.4 C 8.73 6.45, 8.684999999999999 6.57, 8.459999999999999 7.5 C 8.280000000000001 8.31, 8.235000000000001 8.25, 8.100000000000001 9.120000000000001 C 8.010000000000002 10.05, 8.055 9.825000000000001, 7.92 10.98 C 7.74 12.36, 7.755000000000001 12.465, 7.5600000000000005 13.74 C 7.35 14.91, 7.32 14.940000000000003, 7.14 16.080000000000002 C 6.99 17.189999999999998, 7.005 17.04, 6.84 18.299999999999997 C 6.66 19.71, 6.57 19.845, 6.48 21.12 C 6.48 22.259999999999998, 6.525 22.275, 6.48 23.4 C 6.390000000000001 24.509999999999998, 6.390000000000001 24.449999999999996, 6.300000000000001 25.619999999999997 C 6.210000000000001 26.849999999999998, 6.165 26.849999999999998, 6.12 28.08 C 6.12 29.31, 6.03 29.28, 6.12 30.54 C 6.300000000000001 31.83, 6.300000000000001 32.055, 6.48 33.12 C 6.66 33.959999999999994, 6.615 34.08, 6.84 34.8 C 7.109999999999999 35.4, 7.17 35.535, 7.38 36 C 7.529999999999999 36.33, 7.484999999999999 36.39, 7.68 36.660000000000004 C 7.92 36.870000000000005, 7.665 36.72, 8.16 37.08 C 8.91 37.589999999999996, 9 37.69499999999999, 9.66 38.099999999999994 C 10.23 38.4, 10.260000000000002 38.43, 10.8 38.7 C 11.31 38.94, 11.445 39, 11.82 39.18 C 12.059999999999999 39.3, 11.954999999999998 39.36, 12.299999999999999 39.42 C 12.75 39.42, 12.63 39.42, 13.200000000000001 39.42 C 13.89 39.42, 13.560000000000002 39.615, 14.580000000000002 39.42 C 15.930000000000001 39.03, 16.23 39.015, 17.28 38.64 C 18.03 38.28, 18 38.400000000000006, 18.78 37.92 C 19.59 37.32, 19.95 37.065, 20.4 36.72 C 20.490000000000002 36.629999999999995, 20.535 36.585, 20.580000000000002 36.54 C 20.580000000000002 36.54, 20.580000000000002 36.54, 20.580000000000002 36.54 C 20.580000000000002 36.54, 20.580000000000002 36.54, 20.580000000000002 36.54 L 20.580000000000002 36.54" fill="none" stroke="black" stroke-width="2"></path><path d="M 6.66 26.52 C 7.529999999999999 26.58, 6.854999999999999 26.625, 8.399999999999999 26.64 C 10.62 26.61, 10.995 26.639999999999997, 12.84 26.58 C 14.309999999999999 26.490000000000002, 14.684999999999999 26.505000000000003, 15.78 26.400000000000002 C 16.5 26.28, 16.575 26.310000000000006, 17.22 26.160000000000004 C 17.79 25.98, 17.64 26.174999999999997, 18.36 25.799999999999997 C 19.23 25.23, 19.44 25.320000000000004, 20.1 24.660000000000004 C 20.55 23.910000000000004, 20.58 24.135, 21 23.16 C 21.39 21.96, 21.585 22.049999999999997, 21.78 20.759999999999998 C 21.78 19.38, 21.78 19.8, 21.78 18 C 21.78 15.78, 21.795 15.404999999999998, 21.78 13.559999999999999 C 21.75 12.09, 21.78 11.895000000000001, 21.72 10.620000000000001 C 21.63 9.54, 21.63 9.12, 21.54 8.459999999999999 C 21.45 8.219999999999999, 21.405 8.295, 21.36 7.98 C 21.36 7.59, 21.39 7.559999999999999, 21.36 7.199999999999999 C 21.3 6.87, 21.270000000000003 6.9750000000000005, 21.240000000000002 6.540000000000001 C 21.240000000000002 6, 21.270000000000003 5.775, 21.240000000000002 5.46 C 21.18 5.37, 21.150000000000002 5.325, 21.12 5.28 L 21.12 5.28" fill="none" stroke="black" stroke-width="2"></path></svg>