<svg width="48" height="48" viewBox="0 0 48 48" xmlns="http://www.w3.org/2000/svg"><path d="M 11.34 5.4 C 11.34 6.33, 11.415 5.79, 11.34 7.26 C 11.190000000000001 9.27, 11.115 9.66, 11.040000000000001 11.28 C 11.040000000000001 12.51, 11.040000000000001 12.57, 11.040000000000001 13.74 C 11.040000000000001 14.850000000000001, 11.040000000000001 14.520000000000001, 11.040000000000001 15.96 C 11.040000000000001 17.73, 11.025 17.189999999999998, 11.040000000000001 19.5 C 11.07 22.35, 10.905000000000001 22.53, 11.100000000000001 25.200000000000003 C 11.46 27.69, 11.535 28.32, 11.82 30.18 C 12.030000000000001 31.41, 11.985 31.410000000000004, 12.24 32.64 C 12.54 33.87, 12.585 33.86999999999999, 12.84 35.099999999999994 C 13.05 36.33, 13.065 36.57, 13.26 37.56 C 13.440000000000001 38.31, 13.530000000000001 38.61, 13.620000000000001 39.06 C 13.620000000000001 39.21, 13.620000000000001 39.285, 13.620000000000001 39.36 L 13.620000000000001 39.36" fill="none" stroke="black" stroke-width="2"></path><path d="M 11.82 12.059999999999999 C 12.809999999999999 12.09, 12.764999999999999 11.805, 13.799999999999999 12.120000000000001 C 14.879999999999999 12.72, 15 12.33, 15.96 13.32 C 16.8 14.700000000000001, 17.115000000000002 14.460000000000003, 17.64 16.080000000000002 C 17.85 17.939999999999998, 17.955 18.749999999999996, 18.06 19.799999999999997 C 18.06 20.04, 18.06 20.16, 18.06 20.28 C 18.06 20.28, 18.014999999999997 20.355, 18.06 20.28 C 18.15 20.130000000000003, 17.805000000000003 20.805, 18.240000000000002 19.98 C 19.02 18.48, 19.019999999999996 17.94, 19.799999999999997 16.98 C 20.58 16.560000000000002, 20.384999999999998 16.53, 21.36 16.14 C 22.53 15.78, 22.680000000000003 15.584999999999997, 23.700000000000003 15.419999999999998 C 24.57 15.45, 24.450000000000003 15.045, 25.44 15.48 C 26.550000000000004 16.32, 26.835000000000004 16.305, 27.660000000000004 17.16 C 28.200000000000003 18.03, 28.320000000000004 17.46, 28.740000000000002 18.9 C 29.04 20.909999999999997, 29.189999999999998 21.044999999999998, 29.339999999999996 22.919999999999998 C 29.339999999999996 24.66, 29.699999999999996 24.360000000000003, 29.339999999999996 26.400000000000002 C 28.619999999999997 28.740000000000002, 28.665 29.084999999999997, 27.900000000000002 31.08 C 27.090000000000003 32.730000000000004, 27.045 32.895, 26.28 34.38 C 25.56 35.7, 25.455 35.79, 24.839999999999996 37.019999999999996 C 24.33 38.16, 24.15 38.519999999999996, 23.82 39.3 C 23.67 39.72, 23.61 39.9, 23.52 40.14 L 23.46 40.26" fill="none" stroke="black" stroke-width="2"></path><path d="M 9.48 39.18 C 11.100000000000001 38.91, 10.8 38.775, 12.72 38.64 C 14.940000000000001 38.64, 15.09 38.64, 17.16 38.64 C 19.08 38.64, 19.095 38.565, 21 38.64 C 22.89 38.79, 23.415 38.82, 24.78 38.94 C 25.62 39.03, 25.935000000000002 39.044999999999995, 26.46 39.12 L 26.880000000000003 39.24" fill="none" stroke="black" stroke-width="2"></path><path d="M 9.18 44.160000000000004 C 11.07 44.19, 10.335 44.4, 12.96 44.22 C 16.32 43.83, 16.965 43.635, 19.68 43.44 C 21.75 43.44, 21.63 43.44, 23.82 43.44 C 26.130000000000003 43.44, 27.105 43.44, 28.44 43.44 L 29.160000000000004 43.44" fill="none" stroke="black" stroke-width="2"></path></svg>