<svg width="48" height="48" viewBox="0 0 48 48" xmlns="http://www.w3.org/2000/svg"><path d="M 27.72 4.5 C 26.55 4.5, 26.505000000000003 4.5, 25.380000000000003 4.5 C 24.3 4.5, 24.240000000000002 4.5600000000000005, 23.22 4.5 C 22.259999999999998 4.38, 22.349999999999998 4.32, 21.299999999999997 4.26 C 20.159999999999997 4.26, 19.59 4.26, 19.02 4.26 C 19.02 4.26, 19.02 4.26, 19.02 4.26 C 19.02 4.26, 19.064999999999998 4.26, 19.02 4.26 C 18.93 4.26, 18.945 4.005, 18.84 4.26 C 18.72 4.77, 18.705000000000002 4.68, 18.6 5.28 C 18.509999999999998 5.970000000000001, 18.555 5.880000000000001, 18.419999999999998 6.66 C 18.24 7.529999999999999, 18.15 7.304999999999998, 18.06 8.399999999999999 C 18.06 9.719999999999999, 18.06 9.66, 18.06 11.040000000000001 C 18.06 12.48, 18.06 12.659999999999998, 18.06 13.919999999999998 C 18.06 15, 18.06 15.375, 18.06 16.080000000000002 C 18.06 16.410000000000004, 18.06 16.500000000000004, 18.06 16.740000000000002 C 18.06 16.89, 18.06 16.905, 18.06 17.04 C 18.06 17.16, 18.06 17.22, 18.06 17.28 C 18.06 17.28, 18.06 17.28, 18.06 17.28 C 18.06 17.28, 18.06 17.235, 18.06 17.28 C 18.06 17.37, 18.014999999999997 17.385, 18.06 17.46 C 18.15 17.520000000000003, 17.865000000000002 17.295, 18.240000000000002 17.580000000000002 C 18.9 18.090000000000003, 18.9 17.955000000000002, 19.56 18.6 C 20.22 19.380000000000003, 20.205 19.44, 20.88 20.16 C 21.57 20.82, 21.554999999999996 20.745, 22.259999999999998 21.48 C 22.98 22.29, 22.89 22.23, 23.700000000000003 23.1 C 24.6 24.03, 24.675 24.12, 25.5 24.96 C 26.25 25.71, 26.325 25.815, 27 26.46 C 27.6 27, 27.690000000000005 27.134999999999998, 28.200000000000003 27.54 C 28.62 27.81, 28.619999999999997 27.765, 29.04 28.08 C 29.46 28.439999999999998, 29.67 28.619999999999997, 29.880000000000003 28.799999999999997 C 29.880000000000003 28.799999999999997, 29.820000000000004 28.754999999999995, 29.880000000000003 28.799999999999997 C 30 28.89, 29.985 28.8, 30.119999999999997 28.98 C 30.27 29.25, 31.05 28.86, 30.42 29.52 C 29.009999999999998 30.57, 28.919999999999998 30.659999999999997, 27.599999999999998 31.619999999999997 C 26.369999999999997 32.489999999999995, 26.28 32.504999999999995, 25.14 33.36 C 24.09 34.2, 24 34.095, 23.04 35.04 C 22.169999999999998 36.09, 22.199999999999996 36.195, 21.299999999999997 37.14 C 20.369999999999997 37.980000000000004, 20.355 37.905, 19.44 38.82 C 18.54 39.81, 18.435000000000002 40.004999999999995, 17.64 40.8 C 16.95 41.4, 16.604999999999997 41.7, 16.259999999999998 42 C 16.259999999999998 42, 16.304999999999996 41.97, 16.259999999999998 42 L 16.080000000000002 42.12" fill="none" stroke="black" stroke-width="2"></path></svg>