<svg width="48" height="48" viewBox="0 0 48 48" xmlns="http://www.w3.org/2000/svg"><path d="M 16.62 6.42 C 16.05 6.42, 16.725 6.404999999999999, 15.48 6.42 C 13.56 6.45, 13.05 6.465, 11.64 6.48 C 10.74 6.48, 10.425 6.48, 9.84 6.48 C 9.57 6.48, 9.465 6.48, 9.3 6.48 C 9.24 6.48, 9.21 6.48, 9.18 6.48 C 9.18 6.48, 9.24 6.465, 9.18 6.48 C 9.059999999999999 6.510000000000001, 9.015 6.315000000000001, 8.94 6.540000000000001 C 8.91 6.960000000000001, 8.895 6.675000000000001, 8.879999999999999 7.38 C 8.879999999999999 8.37, 8.879999999999999 8.34, 8.879999999999999 9.36 C 8.879999999999999 10.41, 8.879999999999999 10.514999999999999, 8.879999999999999 11.459999999999999 C 8.879999999999999 12.3, 8.879999999999999 12.195, 8.879999999999999 13.14 C 8.879999999999999 14.190000000000001, 8.879999999999999 14.31, 8.879999999999999 15.24 C 8.879999999999999 16.05, 8.879999999999999 15.93, 8.879999999999999 16.86 C 8.879999999999999 17.91, 8.879999999999999 17.955000000000002, 8.879999999999999 18.96 C 8.879999999999999 19.92, 8.819999999999999 20.099999999999998, 8.879999999999999 20.88 C 9 21.48, 8.97 21.51, 9.120000000000001 22.080000000000002 C 9.3 22.62, 9.315000000000001 22.755, 9.48 23.16 C 9.629999999999999 23.43, 9.495 23.310000000000002, 9.78 23.700000000000003 C 10.2 24.21, 10.185 24.255, 10.620000000000001 24.72 C 11.07 25.14, 10.995 25.229999999999997, 11.52 25.56 C 12.120000000000001 25.799999999999997, 11.7 25.814999999999998, 12.72 26.04 C 14.16 26.25, 14.025000000000002 26.295, 15.600000000000001 26.46 C 17.310000000000002 26.580000000000002, 17.46 26.64, 19.02 26.700000000000003 C 20.43 26.700000000000003, 20.55 26.700000000000003, 21.84 26.700000000000003 C 23.009999999999998 26.700000000000003, 23.19 26.700000000000003, 24.18 26.700000000000003 C 24.99 26.700000000000003, 25.154999999999998 26.700000000000003, 25.799999999999997 26.700000000000003 C 26.279999999999998 26.700000000000003, 26.205 26.700000000000003, 26.759999999999998 26.700000000000003 C 27.39 26.700000000000003, 27.54 26.700000000000003, 28.02 26.700000000000003 C 28.35 26.700000000000003, 28.47 26.700000000000003, 28.68 26.700000000000003 C 28.77 26.700000000000003, 28.814999999999998 26.700000000000003, 28.86 26.700000000000003 L 28.86 26.700000000000003" fill="none" stroke="black" stroke-width="2"></path><path d="M 10.44 32.64 C 11.37 32.760000000000005, 11.069999999999999 32.730000000000004, 12.299999999999999 32.88 C 13.829999999999998 33.06, 13.844999999999999 33.150000000000006, 15.36 33.24 C 16.86 33.24, 16.86 33.24, 18.36 33.24 C 19.86 33.24, 20.009999999999998 33.24, 21.36 33.24 C 22.56 33.24, 22.665 33.24, 23.759999999999998 33.24 C 24.75 33.24, 24.885 33.24, 25.740000000000002 33.24 C 26.46 33.24, 26.79 33.24, 27.18 33.24 C 27.24 33.24, 27.209999999999997 33.24, 27.299999999999997 33.24 C 27.419999999999998 33.24, 27.479999999999997 33.24, 27.54 33.24 L 27.54 33.24" fill="none" stroke="black" stroke-width="2"></path><path d="M 9.42 39.42 C 10.32 39.42, 10.005 39.42, 11.22 39.42 C 12.75 39.42, 12.93 39.42, 14.28 39.42 C 15.45 39.42, 15.525 39.42, 16.62 39.42 C 17.64 39.42, 17.4 39.42, 18.66 39.42 C 20.16 39.42, 20.265 39.42, 21.66 39.42 C 22.950000000000003 39.42, 23.265 39.42, 24.240000000000002 39.42 C 24.9 39.42, 25.095 39.42, 25.56 39.42 C 25.83 39.42, 25.665 39.42, 26.099999999999998 39.42 C 26.699999999999996 39.42, 26.684999999999995 39.36, 27.299999999999997 39.42 C 27.93 39.540000000000006, 28.125 39.6, 28.56 39.660000000000004 C 28.799999999999997 39.660000000000004, 28.919999999999998 39.660000000000004, 29.04 39.660000000000004 L 29.04 39.660000000000004" fill="none" stroke="black" stroke-width="2"></path></svg>