<svg width="48" height="48" viewBox="0 0 48 48" xmlns="http://www.w3.org/2000/svg"><path d="M 21.78 6 C 21.51 6.03, 22.26 6.045, 21.240000000000002 6.0600000000000005 C 19.470000000000002 6.0600000000000005, 19.92 6.075000000000001, 17.700000000000003 6.0600000000000005 C 15.030000000000001 6.03, 13.74 6.03, 12.36 6 C 12.27 5.97, 12.225 5.955, 12.18 5.9399999999999995 C 12.18 5.9399999999999995, 12.18 5.9399999999999995, 12.18 5.9399999999999995 C 12.18 5.9399999999999995, 12.18 5.9399999999999995, 12.18 5.9399999999999995 C 12.18 5.9399999999999995, 12.195 5.969999999999999, 12.18 5.9399999999999995 C 12.15 5.88, 12.135000000000002 5.85, 12.120000000000001 5.82 C 12.120000000000001 5.82, 12.120000000000001 5.82, 12.120000000000001 5.82 C 12.120000000000001 5.82, 12.120000000000001 5.82, 12.120000000000001 5.82 C 12.120000000000001 5.82, 12.120000000000001 5.82, 12.120000000000001 5.82 C 12.120000000000001 5.82, 12.090000000000002 5.775, 12.120000000000001 5.82 C 12.18 5.91, 12.21 5.79, 12.24 6 C 12.24 6.33, 12.24 5.985, 12.24 6.66 C 12.24 7.68, 12.3 7.754999999999999, 12.24 8.7 C 12.120000000000001 9.57, 12.120000000000001 9.39, 12 10.44 C 11.879999999999999 11.669999999999998, 11.85 11.759999999999998, 11.76 12.899999999999999 C 11.7 13.95, 11.67 13.754999999999999, 11.64 15 C 11.64 16.439999999999998, 11.64 16.53, 11.64 17.88 C 11.64 19.14, 11.64 19.275, 11.64 20.4 C 11.64 21.39, 11.565000000000001 21.224999999999998, 11.64 22.38 C 11.79 23.7, 11.835 23.88, 11.94 25.02 C 12 25.98, 12.03 25.89, 12.059999999999999 26.94 C 12.059999999999999 28.08, 12.059999999999999 28.229999999999997, 12.059999999999999 29.22 C 12.059999999999999 30.060000000000002, 12.014999999999999 30.090000000000003, 12.059999999999999 30.900000000000002 C 12.149999999999999 31.68, 12.135 31.71, 12.24 32.46 C 12.36 33.18000000000001, 12.345 33.09, 12.48 33.900000000000006 C 12.629999999999999 34.800000000000004, 12.705 34.89, 12.78 35.7 C 12.78 36.42, 12.629999999999999 36.36, 12.78 37.14 C 13.079999999999998 37.980000000000004, 13.094999999999999 38.07, 13.379999999999999 38.82 C 13.649999999999999 39.480000000000004, 13.604999999999997 39.615, 13.919999999999998 40.14 C 14.28 40.53, 14.265 40.605000000000004, 14.64 40.92 C 15.03 41.160000000000004, 14.954999999999998 41.26500000000001, 15.419999999999998 41.400000000000006 C 15.959999999999999 41.43000000000001, 15.765 41.43000000000001, 16.5 41.46 C 17.43 41.489999999999995, 17.265 41.504999999999995, 18.36 41.519999999999996 C 19.619999999999997 41.519999999999996, 19.755 41.80499999999999, 20.88 41.519999999999996 C 21.869999999999997 40.95, 21.825 41.265, 22.86 40.38 C 23.939999999999998 39.18000000000001, 23.805 39.510000000000005, 25.02 37.980000000000004 C 26.369999999999997 36.120000000000005, 26.595 35.685, 27.72 34.26 C 28.619999999999997 33.269999999999996, 28.65 33.015, 29.52 32.28 C 30.36 31.8, 30.555000000000003 31.560000000000002, 31.200000000000003 31.32 C 31.65 31.32, 31.694999999999993 31.305, 32.099999999999994 31.32 C 32.459999999999994 31.35, 32.235 30.870000000000005, 32.82 31.380000000000003 C 33.629999999999995 32.370000000000005, 33.855 32.415, 34.44 33.36 C 34.8 34.260000000000005, 34.935 34.30500000000001, 35.160000000000004 35.160000000000004 C 35.25 35.97, 35.295 36, 35.339999999999996 36.78 C 35.339999999999996 37.53, 35.62499999999999 37.5, 35.339999999999996 38.28 C 34.769999999999996 39.09, 34.665 39.330000000000005, 34.2 39.900000000000006 C 33.84 40.230000000000004, 33.84 40.33500000000001, 33.480000000000004 40.56 C 33.120000000000005 40.68, 33.24 40.739999999999995, 32.76 40.8 C 32.16 40.8, 32.25 40.89, 31.56 40.8 C 30.78 40.62, 30.855 40.785, 30 40.44 C 29.07 39.93, 29.025 39.975, 28.14 39.42 C 27.3 38.82, 27.255000000000003 38.91, 26.46 38.22 C 25.71 37.44, 25.380000000000003 37.155, 24.96 36.660000000000004 C 24.87 36.45, 24.825000000000003 36.345, 24.78 36.24 C 24.78 36.24, 24.78 36.24, 24.78 36.24 L 24.78 36.24" fill="none" stroke="black" stroke-width="2"></path></svg>