<svg width="48" height="48" viewBox="0 0 48 48" xmlns="http://www.w3.org/2000/svg"><path d="M 17.22 8.399999999999999 C 17.22 8.399999999999999, 17.325 8.429999999999998, 17.22 8.399999999999999 C 17.009999999999998 8.34, 17.609999999999996 8.354999999999999, 16.799999999999997 8.28 C 15.389999999999999 8.190000000000001, 15.105 8.16, 13.98 8.100000000000001 C 13.14 8.07, 13.139999999999999 8.085, 12.299999999999999 8.040000000000001 C 11.46 7.98, 11.145000000000001 7.95, 10.620000000000001 7.92 C 10.41 7.92, 10.305 7.92, 10.2 7.92 C 10.2 7.92, 10.2 7.92, 10.2 7.92 C 10.2 7.92, 10.274999999999999 7.904999999999999, 10.2 7.92 C 10.049999999999999 7.95, 9.974999999999998 7.59, 9.899999999999999 7.98 C 9.899999999999999 8.73, 9.899999999999999 8.55, 9.899999999999999 9.48 C 9.899999999999999 10.59, 9.899999999999999 10.829999999999998, 9.899999999999999 11.7 C 9.899999999999999 12.33, 9.854999999999999 12.06, 9.899999999999999 12.96 C 9.989999999999998 14.129999999999999, 9.945 14.219999999999999, 10.08 15.299999999999999 C 10.26 16.29, 10.29 16.365000000000002, 10.44 17.28 C 10.559999999999999 18.12, 10.5 18.270000000000003, 10.68 18.96 C 10.92 19.5, 10.83 19.604999999999997, 11.16 20.04 C 11.58 20.37, 11.385 20.310000000000002, 12 20.700000000000003 C 12.81 21.150000000000002, 12.75 21.240000000000002, 13.620000000000001 21.6 C 14.55 21.87, 14.415000000000001 21.900000000000002, 15.48 22.14 C 16.68 22.35, 16.8 22.409999999999997, 17.88 22.56 C 18.839999999999996 22.65, 18.779999999999998 22.695, 19.799999999999997 22.740000000000002 C 20.88 22.740000000000002, 20.85 22.740000000000002, 21.96 22.740000000000002 C 23.1 22.740000000000002, 23.220000000000002 22.740000000000002, 24.240000000000002 22.740000000000002 C 25.14 22.740000000000002, 25.335 22.740000000000002, 26.04 22.740000000000002 C 26.549999999999997 22.740000000000002, 26.505 22.740000000000002, 27.06 22.740000000000002 C 27.659999999999997 22.740000000000002, 27.734999999999996 22.740000000000002, 28.259999999999998 22.740000000000002 C 28.71 22.740000000000002, 28.800000000000004 22.740000000000002, 29.160000000000004 22.740000000000002 C 29.430000000000003 22.740000000000002, 29.520000000000003 22.740000000000002, 29.700000000000003 22.740000000000002 C 29.790000000000003 22.740000000000002, 29.835 22.740000000000002, 29.880000000000003 22.740000000000002 L 29.880000000000003 22.740000000000002" fill="none" stroke="black" stroke-width="2"></path><path d="M 9.66 42.3 C 10.89 42.3, 10.950000000000001 42.48, 12.120000000000001 42.3 C 13.23 41.94, 13.41 41.879999999999995, 14.34 41.58 C 15.09 41.339999999999996, 15.059999999999999 41.669999999999995, 15.84 41.099999999999994 C 16.65 40.199999999999996, 16.755000000000003 40.529999999999994, 17.46 39.3 C 18.060000000000002 37.739999999999995, 18.15 37.739999999999995, 18.66 36.18 C 19.08 34.620000000000005, 19.23 34.44, 19.5 33.06 C 19.62 31.860000000000003, 19.68 31.650000000000006, 19.740000000000002 30.660000000000004 C 19.740000000000002 29.880000000000003, 19.680000000000003 29.955, 19.740000000000002 29.099999999999998 C 19.86 28.17, 19.875 28.065, 19.98 27.240000000000002 C 20.07 26.52, 20.115000000000002 26.415, 20.16 25.799999999999997 C 20.16 25.29, 20.16 25.125, 20.16 24.78 C 20.16 24.6, 20.16 24.69, 20.16 24.42 C 20.16 24.060000000000002, 20.16 24.045, 20.16 23.700000000000003 C 20.16 23.37, 20.16 23.205, 20.16 23.04 C 20.16 23.04, 20.16 23.04, 20.16 23.04 C 20.16 23.04, 20.16 23.04, 20.16 23.04 C 20.16 23.04, 20.16 22.83, 20.16 23.04 C 20.16 23.46, 20.16 23.055, 20.16 23.88 C 20.16 25.11, 20.16 25.304999999999996, 20.16 26.339999999999996 C 20.16 27.18, 20.16 27.075, 20.16 28.02 C 20.16 29.07, 20.115000000000002 29.205, 20.16 30.119999999999997 C 20.25 30.9, 20.25 30.854999999999997, 20.34 31.68 C 20.43 32.55, 20.369999999999997 32.7, 20.52 33.42 C 20.73 33.99, 20.700000000000003 33.93000000000001, 20.94 34.56 C 21.21 35.25, 21.240000000000002 35.355, 21.48 35.94 C 21.689999999999998 36.42, 21.615 36.345000000000006, 21.9 36.900000000000006 C 22.259999999999998 37.53, 22.275 37.650000000000006, 22.62 38.160000000000004 C 22.950000000000003 38.55, 22.830000000000002 38.489999999999995, 23.28 38.94 C 23.85 39.45, 23.85 39.51, 24.42 39.96 C 24.990000000000002 40.35, 25.049999999999997 40.44, 25.56 40.74 C 26.009999999999998 40.95, 25.92 40.965, 26.46 41.160000000000004 C 27.09 41.34, 27.18 41.355, 27.72 41.519999999999996 C 28.169999999999998 41.67, 28.124999999999996 41.7, 28.619999999999997 41.82 C 29.16 41.91, 29.220000000000002 41.91, 29.700000000000003 42 C 30.12 42.09, 30.285 42.135, 30.54 42.18 C 30.63 42.18, 30.674999999999997 42.18, 30.72 42.18 L 30.72 42.18" fill="none" stroke="black" stroke-width="2"></path></svg>