<svg width="48" height="48" viewBox="0 0 48 48" xmlns="http://www.w3.org/2000/svg"><path d="M 11.040000000000001 20.94 C 11.040000000000001 22.23, 11.040000000000001 22.365000000000002, 11.040000000000001 23.52 C 11.040000000000001 24.54, 11.040000000000001 24.9, 11.040000000000001 25.56 C 11.040000000000001 25.86, 11.040000000000001 26.01, 11.040000000000001 26.160000000000004 C 11.040000000000001 26.160000000000004, 11.040000000000001 26.160000000000004, 11.040000000000001 26.160000000000004 C 11.040000000000001 26.160000000000004, 11.040000000000001 26.160000000000004, 11.040000000000001 26.160000000000004 C 11.040000000000001 26.160000000000004, 11.040000000000001 26.160000000000004, 11.040000000000001 26.160000000000004 C 11.040000000000001 26.160000000000004, 11.040000000000001 26.160000000000004, 11.040000000000001 26.160000000000004 C 11.040000000000001 26.160000000000004, 10.995000000000001 26.070000000000004, 11.040000000000001 26.160000000000004 C 11.13 26.340000000000003, 10.860000000000001 26.4, 11.22 26.52 C 11.850000000000001 26.58, 11.775 26.505000000000003, 12.48 26.64 C 13.26 26.85, 12.974999999999998 26.895, 14.04 27.06 C 15.39 27.18, 15.630000000000003 27.165, 16.740000000000002 27.299999999999997 C 17.61 27.449999999999996, 17.385 27.419999999999998, 18.48 27.599999999999998 C 19.8 27.81, 20.130000000000003 27.915, 21.12 28.02 C 21.78 28.02, 21.765 28.02, 22.44 28.02 C 23.130000000000003 28.02, 23.220000000000002 28.02, 23.82 28.02 C 24.33 28.02, 24.404999999999998 28.02, 24.839999999999996 28.02 C 25.199999999999996 28.02, 25.244999999999997 28.185, 25.56 28.02 C 25.83 27.689999999999998, 25.845 27.78, 26.099999999999998 27.36 C 26.339999999999996 26.849999999999998, 26.415 26.984999999999996, 26.58 26.339999999999996 C 26.669999999999998 25.56, 26.714999999999996 25.59, 26.759999999999998 24.78 C 26.759999999999998 23.94, 26.79 23.925, 26.759999999999998 23.1 C 26.7 22.29, 26.955 22.53, 26.64 21.48 C 26.07 20.189999999999998, 26.25 20.22, 25.5 18.9 C 24.57 17.55, 24.57 17.505000000000003, 23.64 16.200000000000003 C 22.71 14.940000000000001, 22.770000000000003 14.955, 21.78 13.68 C 20.73 12.39, 20.55 12.180000000000001, 19.68 11.100000000000001 C 18.99 10.23, 19.049999999999997 10.26, 18.299999999999997 9.36 C 17.49 8.43, 17.505 8.475, 16.68 7.5 C 15.84 6.48, 15.51 6.105, 15 5.46 C 14.82 5.1899999999999995, 14.73 5.055, 14.64 4.92 C 14.64 4.92, 14.64 4.92, 14.64 4.92 L 14.64 4.92" fill="none" stroke="black" stroke-width="2"></path><path d="M 18.48 28.200000000000003 C 18.48 29.790000000000003, 18.48 29.835, 18.48 31.380000000000003 C 18.48 32.88, 18.48 32.80500000000001, 18.48 34.38 C 18.48 36.03, 18.48 36.225, 18.48 37.68 C 18.48 38.94, 18.48 39.150000000000006, 18.48 40.2 C 18.48 41.040000000000006, 18.48 41.160000000000004, 18.48 41.88 C 18.48 42.480000000000004, 18.48 42.51, 18.48 43.08 C 18.48 43.620000000000005, 18.48 43.785000000000004, 18.48 44.160000000000004 C 18.48 44.370000000000005, 18.48 44.34, 18.48 44.58 C 18.48 44.849999999999994, 18.48 44.985, 18.48 45.12 C 18.48 45.12, 18.48 45.12, 18.48 45.12 C 18.48 45.12, 18.48 45.059999999999995, 18.48 45.12 C 18.48 45.239999999999995, 18.48 45.3, 18.48 45.36 C 18.48 45.36, 18.48 45.36, 18.48 45.36 C 18.48 45.36, 18.48 45.36, 18.48 45.36 L 18.48 45.36" fill="none" stroke="black" stroke-width="2"></path></svg>