<svg width="48" height="48" viewBox="0 0 48 48" xmlns="http://www.w3.org/2000/svg"><path d="M 20.94 5.64 C 20.340000000000003 5.49, 20.925 5.55, 19.740000000000002 5.34 C 17.970000000000002 5.07, 17.655000000000005 4.9350000000000005, 16.200000000000003 4.800000000000001 C 15.06 4.800000000000001, 14.774999999999999 4.800000000000001, 13.919999999999998 4.800000000000001 C 13.349999999999998 4.800000000000001, 13.065 4.800000000000001, 12.78 4.800000000000001 C 12.78 4.800000000000001, 12.78 4.800000000000001, 12.78 4.800000000000001 C 12.78 4.800000000000001, 12.854999999999999 4.800000000000001, 12.78 4.800000000000001 C 12.629999999999999 4.800000000000001, 12.615 4.800000000000001, 12.48 4.800000000000001 C 12.36 4.800000000000001, 12.3 4.800000000000001, 12.24 4.800000000000001 C 12.24 4.800000000000001, 12.24 4.800000000000001, 12.24 4.800000000000001 C 12.24 4.800000000000001, 12.24 4.800000000000001, 12.24 4.800000000000001 C 12.24 4.800000000000001, 12.3 4.755000000000001, 12.24 4.800000000000001 C 12.120000000000001 4.890000000000001, 12.06 4.619999999999999, 12 4.9799999999999995 C 12 5.609999999999999, 12 5.6850000000000005, 12 6.24 C 12 6.72, 12 6.569999999999999, 12 7.199999999999999 C 12 7.9799999999999995, 12 8.1, 12 8.76 C 12 9.3, 12 9.21, 12 9.84 C 12 10.559999999999999, 12 10.41, 12 11.28 C 12 12.3, 12 12.36, 12 13.32 C 12 14.22, 12.06 14.310000000000002, 12 15.120000000000001 C 11.879999999999999 15.84, 11.879999999999999 15.555, 11.76 16.56 C 11.64 17.85, 11.594999999999999 18.045, 11.52 19.14 C 11.489999999999998 20.04, 11.534999999999998 20.01, 11.459999999999999 20.94 C 11.34 21.9, 11.325 22.065, 11.22 22.86 C 11.13 23.49, 11.13 23.189999999999998, 11.040000000000001 24.119999999999997 C 10.95 25.349999999999998, 10.965 25.365, 10.86 26.58 C 10.74 27.78, 10.770000000000001 27.615000000000002, 10.620000000000001 28.98 C 10.440000000000001 30.509999999999998, 10.41 30.66, 10.26 32.04 C 10.14 33.269999999999996, 10.125 33.255, 10.02 34.5 C 9.93 35.76, 9.885 35.849999999999994, 9.84 37.019999999999996 C 9.84 38.099999999999994, 9.885 38.1, 9.84 39.18 C 9.75 40.26, 9.66 40.455, 9.66 41.339999999999996 C 9.75 42.03, 9.675 42.209999999999994, 9.84 42.72 C 10.08 43.05, 10.05 43.14, 10.32 43.38 C 10.620000000000001 43.53, 10.455 43.53, 10.92 43.68 C 11.55 43.83, 11.58 43.830000000000005, 12.18 43.980000000000004 C 12.75 44.13, 12.344999999999999 44.1, 13.32 44.28 C 14.700000000000001 44.49, 15.060000000000002 44.595, 16.080000000000002 44.7 C 16.740000000000002 44.7, 16.695 44.80500000000001, 17.4 44.7 C 18.15 44.49, 18.284999999999997 44.7, 18.9 44.28 C 19.38 43.65, 19.619999999999997 43.605, 19.86 43.019999999999996 C 19.86 42.48, 19.799999999999997 42.584999999999994, 19.86 41.94 C 19.98 41.19, 20.04 41.084999999999994, 20.1 40.44 C 20.1 39.9, 20.265 40.019999999999996, 20.1 39.36 C 19.770000000000003 38.58, 19.725 38.43, 19.44 37.8 C 19.200000000000003 37.31999999999999, 19.41 37.379999999999995, 18.96 36.839999999999996 C 18.3 36.239999999999995, 18.39 36.12, 17.64 35.64 C 16.8 35.28, 17.04 35.160000000000004, 15.96 34.92 C 14.64 34.8, 14.445 34.74, 13.32 34.68 C 12.39 34.68, 12.18 34.62, 11.459999999999999 34.68 C 10.95 34.8, 10.739999999999998 34.845, 10.44 34.92 C 10.35 34.95, 10.44 34.905, 10.26 34.980000000000004 C 9.99 35.1, 9.855 35.16, 9.72 35.22 C 9.72 35.22, 9.72 35.22, 9.72 35.22 L 9.72 35.22" fill="none" stroke="black" stroke-width="2"></path><path d="M 11.34 28.259999999999998 C 11.85 28.259999999999998, 11.625 28.349999999999998, 12.36 28.259999999999998 C 13.32 28.08, 13.515 28.080000000000002, 14.28 27.900000000000002 C 14.849999999999998 27.72, 14.924999999999999 27.735, 15.419999999999998 27.54 C 15.839999999999998 27.33, 15.644999999999998 27.464999999999996, 16.259999999999998 27.119999999999997 C 17.07 26.64, 17.055 26.715000000000003, 17.88 26.160000000000004 C 18.72 25.53, 18.959999999999997 25.575000000000003, 19.56 24.900000000000002 C 19.92 24.18, 20.1 24.225, 20.28 23.46 C 20.28 22.65, 20.28 22.455, 20.28 21.84 C 20.28 21.42, 20.28 21.21, 20.28 21 C 20.28 21, 20.28 21, 20.28 21 C 20.28 21, 20.25 20.865000000000002, 20.28 21 C 20.34 21.27, 20.369999999999997 21.104999999999997, 20.4 21.54 C 20.4 22.14, 20.4 22.065, 20.4 22.740000000000002 C 20.4 23.490000000000002, 20.4 23.520000000000003, 20.4 24.240000000000002 C 20.4 24.93, 20.25 24.869999999999997, 20.4 25.619999999999997 C 20.7 26.43, 20.655 26.535, 21 27.240000000000002 C 21.39 27.840000000000003, 21.36 27.975, 21.78 28.44 C 22.23 28.77, 22.08 28.799999999999997, 22.68 29.099999999999998 C 23.43 29.369999999999997, 23.43 29.43, 24.18 29.64 C 24.93 29.79, 24.57 29.79, 25.68 29.94 C 27.15 30.090000000000003, 27.299999999999997 30.165000000000003, 28.619999999999997 30.240000000000002 C 29.79 30.240000000000002, 30.045 30.240000000000002, 30.96 30.240000000000002 C 31.62 30.240000000000002, 31.755000000000003 30.240000000000002, 32.28 30.240000000000002 C 32.67 30.240000000000002, 32.865 30.240000000000002, 33.06 30.240000000000002 L 33.06 30.240000000000002" fill="none" stroke="black" stroke-width="2"></path></svg>