<svg width="48" height="48" viewBox="0 0 48 48" xmlns="http://www.w3.org/2000/svg"><path d="M 11.52 19.86 C 11.52 20.58, 11.655 20.099999999999994, 11.52 21.299999999999997 C 11.25 22.98, 11.190000000000001 23.430000000000003, 10.98 24.660000000000004 C 10.83 25.44, 10.8 25.41, 10.68 26.22 C 10.59 27.060000000000002, 10.545 27.39, 10.5 27.900000000000002 C 10.5 28.08, 10.365 28.11, 10.5 28.259999999999998 C 10.77 28.38, 10.680000000000001 28.38, 11.040000000000001 28.5 C 11.49 28.62, 11.265 28.68, 11.94 28.740000000000002 C 12.84 28.740000000000002, 12.645 28.740000000000002, 13.74 28.740000000000002 C 15.030000000000001 28.740000000000002, 15.030000000000001 28.740000000000002, 16.32 28.740000000000002 C 17.61 28.740000000000002, 17.265 28.815, 18.9 28.740000000000002 C 20.88 28.590000000000003, 21.27 28.665000000000003, 22.86 28.44 C 24.06 28.14, 24.434999999999995 28.064999999999998, 25.259999999999998 27.839999999999996 C 25.71 27.689999999999998, 25.815000000000005 27.945, 26.160000000000004 27.54 C 26.400000000000002 26.88, 26.46 26.924999999999997, 26.64 26.22 C 26.76 25.47, 26.865000000000002 25.74, 26.880000000000003 24.72 C 26.790000000000003 23.43, 27.165000000000003 23.745, 26.700000000000003 22.14 C 25.86 20.22, 25.8 20.054999999999996, 25.02 18.299999999999997 C 24.3 16.71, 24.405 16.77, 23.580000000000002 15.120000000000001 C 22.65 13.41, 22.59 13.379999999999999, 21.72 11.7 C 20.91 10.049999999999999, 20.85 9.764999999999999, 20.1 8.399999999999999 C 19.41 7.319999999999999, 19.244999999999997 7.17, 18.72 6.24 C 18.36 5.46, 18.33 5.25, 18 4.68 C 17.7 4.32, 17.564999999999998 4.2, 17.4 3.96 C 17.369999999999997 3.84, 17.355 3.78, 17.34 3.7199999999999998 C 17.34 3.7199999999999998, 17.34 3.7199999999999998, 17.34 3.7199999999999998 L 17.34 3.7199999999999998" fill="none" stroke="black" stroke-width="2"></path><path d="M 16.98 33.24 C 15.540000000000001 33.24, 15.150000000000002 33.045, 14.100000000000001 33.24 C 13.440000000000001 33.629999999999995, 13.365 33.375, 12.78 34.019999999999996 C 12.27 34.92, 12.165 35.04, 11.76 35.82 C 11.46 36.480000000000004, 11.295 36.255, 11.16 37.14 C 11.190000000000001 38.25, 11.010000000000002 38.43, 11.22 39.36 C 11.61 40.11, 11.475 40.245, 12 40.86 C 12.66 41.34, 12.615 41.385000000000005, 13.32 41.82 C 14.07 42.209999999999994, 13.950000000000001 42.254999999999995, 14.82 42.599999999999994 C 15.809999999999999 42.9, 15.944999999999997 43.035000000000004, 16.799999999999997 43.2 C 17.52 43.230000000000004, 17.295 43.29, 18.240000000000002 43.26 C 19.410000000000004 43.17, 19.605000000000004 43.334999999999994, 20.580000000000002 43.08 C 21.36 42.66, 21.525000000000002 42.75, 22.14 42.24 C 22.59 41.64, 22.71 41.7, 23.04 41.04 C 23.25 40.31999999999999, 23.355 40.24499999999999, 23.46 39.599999999999994 C 23.46 39.03, 23.46 39.15, 23.46 38.46 C 23.46 37.65, 23.67 37.515, 23.46 36.839999999999996 C 23.04 36.3, 23.160000000000004 36.345, 22.62 35.76 C 21.96 35.129999999999995, 21.9 34.964999999999996, 21.299999999999997 34.5 C 20.759999999999998 34.2, 20.865 34.215, 20.22 33.900000000000006 C 19.47 33.57000000000001, 19.335 33.465, 18.72 33.24 C 18.24 33.120000000000005, 18.209999999999997 33.06, 17.759999999999998 33 C 17.339999999999996 33, 17.205 33, 16.919999999999998 33 L 16.62 33" fill="none" stroke="black" stroke-width="2"></path></svg>