<svg width="48" height="48" viewBox="0 0 48 48" xmlns="http://www.w3.org/2000/svg"><path d="M 12.84 6.540000000000001 C 12.809999999999999 6.99, 12.795 6.824999999999999, 12.78 7.4399999999999995 C 12.78 8.219999999999999, 12.78 8.115, 12.78 9 C 12.78 9.99, 12.825 10.14, 12.78 10.98 C 12.690000000000001 11.67, 12.645000000000001 11.76, 12.600000000000001 12.36 C 12.600000000000001 12.87, 12.600000000000001 13.034999999999998, 12.600000000000001 13.379999999999999 C 12.600000000000001 13.559999999999999, 12.600000000000001 13.575, 12.600000000000001 13.74 C 12.600000000000001 13.89, 12.600000000000001 13.905, 12.600000000000001 14.04 C 12.600000000000001 14.16, 12.600000000000001 14.219999999999999, 12.600000000000001 14.28 C 12.600000000000001 14.28, 12.585 14.204999999999998, 12.600000000000001 14.28 C 12.63 14.43, 12.57 14.490000000000002, 12.66 14.580000000000002 C 12.81 14.610000000000001, 12.75 14.625, 12.96 14.64 C 13.23 14.64, 13.245000000000001 14.64, 13.5 14.64 C 13.74 14.64, 13.635000000000002 14.64, 13.98 14.64 C 14.43 14.64, 14.444999999999999 14.64, 14.879999999999999 14.64 C 15.3 14.64, 15.15 14.685, 15.72 14.64 C 16.44 14.55, 16.425 14.535, 17.16 14.46 C 17.91 14.4, 17.895 14.370000000000001, 18.66 14.34 C 19.439999999999998 14.34, 19.604999999999997 14.399999999999999, 20.22 14.34 C 20.67 14.22, 20.565 14.16, 21.12 14.100000000000001 C 21.78 14.100000000000001, 21.93 14.100000000000001, 22.44 14.100000000000001 C 22.8 14.100000000000001, 22.725 14.100000000000001, 23.16 14.100000000000001 C 23.67 14.100000000000001, 23.744999999999997 14.040000000000003, 24.18 14.100000000000001 C 24.54 14.22, 24.525000000000002 14.16, 24.900000000000002 14.34 C 25.29 14.58, 25.305 14.535, 25.68 14.82 C 26.04 15.15, 26.040000000000003 15.135, 26.400000000000002 15.48 C 26.759999999999998 15.840000000000002, 26.82 15.870000000000005, 27.119999999999997 16.200000000000003 C 27.36 16.5, 27.374999999999996 16.514999999999997, 27.599999999999998 16.799999999999997 C 27.81 17.07, 27.81 16.86, 28.02 17.34 C 28.23 18.03, 28.305 18.015, 28.44 18.72 C 28.5 19.439999999999998, 28.53 19.545, 28.56 20.16 C 28.56 20.67, 28.56 20.58, 28.56 21.18 C 28.56 21.869999999999997, 28.619999999999997 21.884999999999998, 28.56 22.56 C 28.439999999999998 23.22, 28.38 23.505, 28.32 23.88 C 28.32 23.97, 28.32 24.015, 28.32 24.06 L 28.32 24.06" fill="none" stroke="black" stroke-width="2"></path><path d="M 19.44 15.48 C 19.44 16.98, 19.44 17.175, 19.44 18.48 C 19.44 19.590000000000003, 19.455000000000002 19.395000000000003, 19.44 20.700000000000003 C 19.41 22.200000000000003, 19.455 22.290000000000006, 19.38 23.700000000000003 C 19.259999999999998 25.02, 19.2 25.095, 19.14 26.339999999999996 C 19.14 27.509999999999998, 19.14 27.525, 19.14 28.68 C 19.14 29.82, 19.14 29.61, 19.14 30.96 C 19.14 32.519999999999996, 19.14 32.37, 19.14 34.08 C 19.14 35.94, 19.14 36.089999999999996, 19.14 37.8 C 19.14 39.36, 19.14 39.81, 19.14 40.92 C 19.14 41.58, 19.14 41.44500000000001, 19.14 42.24 C 19.14 43.17, 19.080000000000002 43.47, 19.14 44.099999999999994 C 19.259999999999998 44.42999999999999, 19.32 44.519999999999996, 19.38 44.76 C 19.38 44.91, 19.38 44.985, 19.38 45.06 C 19.38 45.06, 19.38 45.06, 19.38 45.06 L 19.38 45.06" fill="none" stroke="black" stroke-width="2"></path></svg>