<svg width="48" height="48" viewBox="0 0 48 48" xmlns="http://www.w3.org/2000/svg"><path d="M 17.1 5.82 C 16.650000000000002 5.76, 17.115000000000002 5.7299999999999995, 16.200000000000003 5.699999999999999 C 14.820000000000002 5.699999999999999, 14.445000000000002 5.699999999999999, 13.440000000000001 5.699999999999999 C 12.81 5.699999999999999, 12.690000000000001 5.699999999999999, 12.18 5.699999999999999 C 11.79 5.699999999999999, 11.849999999999998 5.609999999999999, 11.399999999999999 5.699999999999999 C 10.889999999999999 5.88, 10.86 5.970000000000001, 10.379999999999999 6.0600000000000005 C 9.93 6.0600000000000005, 9.75 6.045000000000001, 9.48 6.0600000000000005 C 9.39 6.09, 9.345 6.105, 9.3 6.12 C 9.3 6.12, 9.3 6.12, 9.3 6.12 C 9.3 6.12, 9.270000000000001 5.8950000000000005, 9.3 6.12 C 9.36 6.57, 9.39 6.015, 9.42 7.02 C 9.42 8.58, 9.42 8.745000000000001, 9.42 10.14 C 9.42 11.370000000000001, 9.42 11.490000000000002, 9.42 12.600000000000001 C 9.42 13.590000000000002, 9.42 13.770000000000003, 9.42 14.580000000000002 C 9.42 15.21, 9.42 15.105, 9.42 15.84 C 9.42 16.68, 9.36 16.605, 9.42 17.52 C 9.54 18.509999999999998, 9.555 18.615000000000002, 9.66 19.5 C 9.75 20.28, 9.735 20.445, 9.84 21.06 C 9.96 21.509999999999998, 9.84 21.495, 10.08 21.96 C 10.440000000000001 22.439999999999998, 10.485000000000001 22.619999999999997, 10.8 22.919999999999998 C 11.07 23.04, 11.085 23.1, 11.34 23.16 C 11.58 23.16, 11.58 23.16, 11.82 23.16 C 12.059999999999999 23.16, 11.79 23.490000000000002, 12.299999999999999 23.16 C 13.079999999999998 22.5, 13.229999999999999 22.740000000000002, 13.86 21.84 C 14.34 20.7, 14.370000000000001 20.97, 14.82 19.56 C 15.24 17.880000000000003, 15.405000000000001 17.580000000000002, 15.66 16.200000000000003 C 15.75 15.120000000000001, 15.795 14.58, 15.84 14.04 C 15.84 14.04, 15.795 14.055, 15.84 14.04 C 15.93 14.01, 15.84 13.545, 16.02 13.98 C 16.29 14.879999999999999, 16.38 14.895, 16.56 15.78 C 16.65 16.65, 16.53 16.74, 16.740000000000002 17.52 C 17.07 18.21, 16.875 18.09, 17.4 18.9 C 18.119999999999997 19.83, 18.255 20.084999999999997, 18.84 20.759999999999998 C 19.29 21.18, 19.110000000000003 21.240000000000002, 19.740000000000002 21.6 C 20.55 21.900000000000002, 20.58 21.990000000000002, 21.36 22.200000000000003 C 22.11 22.32, 21.945 22.380000000000003, 22.86 22.44 C 23.939999999999998 22.44, 23.939999999999998 22.605, 25.02 22.44 C 26.1 22.11, 26.55 21.990000000000002, 27.18 21.78 C 27.36 21.69, 27.45 21.645000000000003, 27.54 21.6 C 27.54 21.6, 27.54 21.6, 27.54 21.6 L 27.54 21.6" fill="none" stroke="black" stroke-width="2"></path><path d="M 18.6 20.34 C 18.54 20.67, 18.51 20.205, 18.48 21 C 18.48 22.259999999999998, 18.48 22.29, 18.48 23.52 C 18.48 24.72, 18.48 24.555, 18.48 25.92 C 18.48 27.450000000000003, 18.45 27.39, 18.48 28.98 C 18.54 30.630000000000003, 18.48 30.540000000000003, 18.6 32.28 C 18.78 34.11, 18.825000000000003 34.44, 18.96 35.94 C 19.05 37.11, 19.095 36.9, 19.14 38.28 C 19.14 39.870000000000005, 19.14 40.56, 19.14 41.46 C 19.14 41.67, 19.14 41.67, 19.14 41.88 C 19.14 42.09, 19.11 41.97, 19.14 42.3 C 19.2 42.75, 19.185 42.84, 19.259999999999998 43.2 C 19.35 43.47, 19.380000000000003 43.32, 19.44 43.74 C 19.47 44.31, 19.485 44.595, 19.5 44.88 C 19.5 44.88, 19.47 45.03, 19.5 44.88 C 19.560000000000002 44.58, 19.425 45.015, 19.62 44.28 C 19.950000000000003 43.11, 19.695 43.56, 20.28 41.94 C 21.12 39.87, 21.285 39.209999999999994, 21.96 37.8 C 22.47 37.05, 22.335 37.004999999999995, 22.98 36.3 C 23.759999999999998 35.64, 23.895 35.43000000000001, 24.54 34.980000000000004 C 25.049999999999997 34.74, 24.9 34.725, 25.56 34.5 C 26.369999999999997 34.29, 26.43 34.185, 27.18 34.08 C 27.869999999999997 34.08, 28.005 34.08, 28.56 34.08 C 28.98 34.08, 29.055 34.08, 29.400000000000002 34.08 C 29.67 34.08, 29.805 34.08, 29.94 34.08 L 29.94 34.08" fill="none" stroke="black" stroke-width="2"></path></svg>