<svg width="48" height="48" viewBox="0 0 48 48" xmlns="http://www.w3.org/2000/svg"><path d="M 18.36 12.36 C 17.79 12.36, 18.029999999999998 12.36, 17.22 12.36 C 16.17 12.36, 15.915000000000001 12.299999999999999, 15.120000000000001 12.36 C 14.58 12.48, 14.34 12.540000000000001, 14.04 12.600000000000001 C 13.979999999999999 12.600000000000001, 13.95 12.600000000000001, 13.919999999999998 12.600000000000001 C 13.919999999999998 12.600000000000001, 13.919999999999998 12.600000000000001, 13.919999999999998 12.600000000000001 C 13.919999999999998 12.600000000000001, 14.039999999999997 12.420000000000002, 13.919999999999998 12.600000000000001 C 13.68 12.96, 13.56 12.855, 13.440000000000001 13.32 C 13.440000000000001 13.89, 13.530000000000001 13.695, 13.440000000000001 14.46 C 13.260000000000002 15.42, 13.230000000000002 15.36, 13.080000000000002 16.38 C 12.96 17.46, 12.9 17.595, 12.84 18.54 C 12.84 19.35, 12.765 19.395, 12.84 20.16 C 12.99 20.880000000000003, 13.02 21.09, 13.14 21.6 C 13.23 21.900000000000002, 13.185 21.915000000000003, 13.32 22.200000000000003 C 13.5 22.470000000000002, 13.41 22.425000000000004, 13.68 22.740000000000002 C 14.04 23.1, 13.814999999999998 23.1, 14.399999999999999 23.46 C 15.209999999999999 23.82, 15.134999999999998 23.895, 16.02 24.18 C 16.98 24.39, 16.845000000000002 24.449999999999996, 17.94 24.599999999999998 C 19.17 24.689999999999998, 19.155 24.720000000000002, 20.4 24.78 C 21.659999999999997 24.81, 21.689999999999998 24.794999999999995, 22.919999999999998 24.839999999999996 C 24.119999999999997 24.9, 24.45 24.93, 25.32 24.96 C 25.86 24.96, 25.92 24.96, 26.400000000000002 24.96 C 26.82 24.96, 26.76 25.05, 27.240000000000002 24.96 C 27.78 24.78, 27.705 25.08, 28.32 24.599999999999998 C 29.01 23.82, 29.235000000000003 23.865, 29.700000000000003 23.04 C 29.94 22.169999999999998, 29.985 22.409999999999997, 30.18 21.299999999999997 C 30.33 19.95, 30.405 20.055, 30.48 18.6 C 30.48 17.04, 30.57 17.130000000000003, 30.48 15.48 C 30.299999999999997 13.74, 30.224999999999998 12.99, 30.119999999999997 12 C 30.089999999999996 11.76, 30.075 11.64, 30.06 11.52 C 30.06 11.52, 30.06 11.61, 30.06 11.52 C 30.06 11.34, 30.06 11.28, 30.06 11.16 C 30.06 11.100000000000001, 30.06 11.07, 30.06 11.040000000000001 C 30.06 11.040000000000001, 30.06 11.040000000000001, 30.06 11.040000000000001 L 30.06 11.040000000000001" fill="none" stroke="black" stroke-width="2"></path><path d="M 22.14 29.46 C 20.97 29.490000000000002, 21.089999999999996 29.1, 19.799999999999997 29.52 C 18.39 30.33, 17.985 30.165, 16.98 31.14 C 16.38 32.28, 16.125 32.295, 15.78 33.42 C 15.690000000000001 34.53, 15.645000000000001 34.44, 15.600000000000001 35.64 C 15.600000000000001 36.93, 15.270000000000003 37.08, 15.600000000000001 38.22 C 16.259999999999998 39.21, 16.064999999999998 39.435, 16.919999999999998 40.2 C 17.97 40.74, 17.939999999999998 40.92, 19.02 41.28 C 20.130000000000003 41.46, 19.89 41.58, 21.240000000000002 41.64 C 22.830000000000002 41.58, 23.235000000000003 41.985, 24.42 41.519999999999996 C 25.200000000000003 40.65, 25.47 40.83, 25.98 39.78 C 26.22 38.55, 26.34 38.46, 26.46 37.32 C 26.46 36.269999999999996, 26.595 36.285, 26.46 35.22 C 26.19 34.14, 26.355000000000004 33.975, 25.92 33.06 C 25.32 32.31, 25.335 32.129999999999995, 24.72 31.56 C 24.09 31.17, 24.12 31.005, 23.46 30.78 C 22.770000000000003 30.720000000000002, 22.5 30.690000000000005, 22.080000000000002 30.660000000000004 L 21.78 30.660000000000004" fill="none" stroke="black" stroke-width="2"></path><path d="M 14.28 35.339999999999996 C 15.419999999999998 35.339999999999996, 14.444999999999999 35.26499999999999, 16.56 35.339999999999996 C 19.65 35.489999999999995, 20.37 35.565, 22.740000000000002 35.64 C 24.39 35.64, 25.11 35.64, 26.04 35.64 C 26.25 35.64, 26.325000000000003 35.64, 26.46 35.64 L 26.58 35.64" fill="none" stroke="black" stroke-width="2"></path></svg>