<svg width="48" height="48" viewBox="0 0 48 48" xmlns="http://www.w3.org/2000/svg"><path d="M 17.4 13.68 C 16.59 13.56, 16.634999999999998 13.605, 15.78 13.440000000000001 C 14.879999999999999 13.23, 14.745000000000001 13.17, 13.98 13.02 C 13.350000000000001 12.93, 13.14 12.885, 12.72 12.84 C 12.51 12.84, 12.45 12.84, 12.299999999999999 12.84 C 12.21 12.84, 12.165000000000001 12.84, 12.120000000000001 12.84 C 12.120000000000001 12.84, 12.195 12.795, 12.120000000000001 12.84 C 11.97 12.93, 11.985000000000001 12.329999999999998, 11.82 13.02 C 11.64 14.31, 11.655 14.205000000000002, 11.459999999999999 15.600000000000001 C 11.25 17.1, 11.190000000000001 17.055, 11.040000000000001 18.6 C 10.95 20.19, 10.905 20.46, 10.86 21.78 C 10.86 22.83, 10.86 22.89, 10.86 23.88 C 10.86 24.810000000000002, 10.815 24.96, 10.86 25.740000000000002 C 10.95 26.37, 10.905000000000001 26.505000000000003, 11.040000000000001 27 C 11.219999999999999 27.36, 10.919999999999998 27.24, 11.399999999999999 27.72 C 12.18 28.32, 11.82 28.395000000000003, 12.96 28.92 C 14.46 29.37, 14.445 29.55, 15.96 29.82 C 17.490000000000002 29.91, 17.79 29.91, 19.02 30 C 19.95 30.09, 20.009999999999998 30.134999999999998, 20.88 30.18 C 21.689999999999998 30.18, 21.705 30.21, 22.5 30.18 C 23.28 30.119999999999997, 23.445 30.255, 24.06 30.06 C 24.509999999999998 29.73, 24.615000000000002 29.700000000000003, 24.96 29.400000000000002 C 25.200000000000003 29.130000000000003, 25.095000000000002 29.43, 25.44 28.86 C 25.89 27.99, 25.919999999999998 28.874999999999996, 26.339999999999996 27.119999999999997 C 26.729999999999997 24.479999999999997, 26.789999999999996 25.29, 27.119999999999997 21.84 C 27.39 17.58, 27.525000000000002 16.575, 27.660000000000004 13.32 C 27.660000000000004 11.07, 27.660000000000004 10.23, 27.660000000000004 8.82 C 27.660000000000004 8.25, 27.660000000000004 8.309999999999999, 27.660000000000004 7.68 C 27.660000000000004 6.99, 27.660000000000004 6.6450000000000005, 27.660000000000004 6.300000000000001 L 27.660000000000004 6.300000000000001" fill="none" stroke="black" stroke-width="2"></path><path d="M 9.42 35.28 C 10.559999999999999 35.43, 9.27 35.37, 11.7 35.58 C 15.42 35.849999999999994, 16.32 35.985, 19.14 36.12 C 21.060000000000002 36.12, 21.735 36.12, 22.98 36.12 C 23.549999999999997 36.12, 23.834999999999997 36.12, 24.119999999999997 36.12 L 24.119999999999997 36.12" fill="none" stroke="black" stroke-width="2"></path><path d="M 9.24 42.06 C 11.01 41.88, 10.725 41.865, 12.78 41.7 C 15.120000000000001 41.550000000000004, 15.285 41.47500000000001, 17.46 41.400000000000006 C 19.47 41.400000000000006, 19.875 41.34, 21.48 41.400000000000006 C 22.68 41.52, 22.83 41.535000000000004, 23.88 41.64 L 25.68 41.82" fill="none" stroke="black" stroke-width="2"></path></svg>