<svg width="48" height="48" viewBox="0 0 48 48" xmlns="http://www.w3.org/2000/svg"><path d="M 11.399999999999999 5.76 C 11.399999999999999 6.51, 11.399999999999999 6.48, 11.399999999999999 7.26 C 11.399999999999999 8.07, 11.399999999999999 8.114999999999998, 11.399999999999999 8.879999999999999 C 11.399999999999999 9.6, 11.399999999999999 9.525, 11.399999999999999 10.32 C 11.399999999999999 11.19, 11.399999999999999 11.069999999999999, 11.399999999999999 12.059999999999999 C 11.399999999999999 13.169999999999998, 11.459999999999997 13.125, 11.399999999999999 14.28 C 11.28 15.48, 11.219999999999999 15.75, 11.16 16.68 C 11.16 17.34, 11.16 17.4, 11.16 18 C 11.16 18.54, 11.16 18.69, 11.16 19.080000000000002 C 11.16 19.32, 11.16 19.395, 11.16 19.56 C 11.16 19.65, 11.16 19.695, 11.16 19.740000000000002 C 11.16 19.740000000000002, 11.16 19.740000000000002, 11.16 19.740000000000002 C 11.16 19.740000000000002, 11.16 19.740000000000002, 11.16 19.740000000000002 L 11.16 19.740000000000002" fill="none" stroke="black" stroke-width="2"></path><path d="M 12.18 10.08 C 12.96 10.26, 12.945 9.885, 13.74 10.44 C 14.55 11.37, 14.774999999999999 11.294999999999998, 15.36 12.299999999999999 C 15.72 13.379999999999999, 15.825000000000003 13.365, 16.080000000000002 14.46 C 16.23 15.57, 16.244999999999997 15.795, 16.38 16.68 C 16.5 17.34, 16.560000000000002 17.625, 16.62 18 C 16.62 18.09, 16.605 18.09, 16.62 18.18 C 16.65 18.27, 16.665 18.314999999999998, 16.68 18.36 C 16.68 18.36, 16.68 18.36, 16.68 18.36 C 16.68 18.36, 16.65 18.375, 16.68 18.36 C 16.74 18.33, 16.74 18.749999999999996, 16.799999999999997 18.299999999999997 C 16.86 17.43, 16.68 17.415, 16.919999999999998 16.56 C 17.339999999999996 15.719999999999999, 17.324999999999996 15.584999999999999, 17.759999999999998 14.879999999999999 C 18.21 14.309999999999999, 17.955 14.28, 18.66 13.74 C 19.62 13.23, 19.635 13.14, 20.580000000000002 12.72 C 21.51 12.39, 21.42 12.375, 22.44 12.059999999999999 C 23.550000000000004 11.759999999999998, 23.625000000000004 11.625, 24.660000000000004 11.459999999999999 C 25.62 11.43, 25.575 11.415, 26.58 11.399999999999999 C 27.63 11.399999999999999, 27.81 11.459999999999997, 28.68 11.399999999999999 C 29.369999999999997 11.28, 29.625 11.219999999999999, 30.06 11.16 C 30.240000000000002 11.16, 30.330000000000002 11.16, 30.42 11.16 L 30.42 11.16" fill="none" stroke="black" stroke-width="2"></path><path d="M 23.1 12.120000000000001 C 23.1 12.9, 22.995 12.510000000000002, 23.1 13.68 C 23.310000000000002 15.239999999999998, 23.009999999999998 14.849999999999998, 23.52 16.799999999999997 C 24.33 19.14, 24.51 19.814999999999998, 25.14 21.48 C 25.59 22.47, 25.409999999999997 22.335, 26.04 23.46 C 26.85 24.72, 26.880000000000003 24.945, 27.660000000000004 25.98 C 28.410000000000004 26.79, 28.470000000000006 26.924999999999997, 29.160000000000004 27.599999999999998 C 29.790000000000003 28.14, 30.060000000000002 28.395, 30.42 28.68 C 30.509999999999998 28.71, 30.419999999999998 28.665000000000003, 30.599999999999998 28.740000000000002 C 30.869999999999997 28.86, 31.005 28.92, 31.14 28.98 C 31.14 28.98, 31.14 28.98, 31.14 28.98 C 31.14 28.98, 31.14 28.98, 31.14 28.98 C 31.14 28.98, 31.14 28.98, 31.14 28.98 C 31.14 28.98, 31.23 28.98, 31.14 28.98 C 30.96 28.98, 31.560000000000002 28.875, 30.78 28.98 C 29.4 29.19, 29.685000000000002 29.055000000000003, 28.02 29.400000000000002 C 26.07 29.880000000000003, 25.694999999999997 29.91, 24.119999999999997 30.36 C 22.919999999999998 30.78, 22.86 30.75, 21.72 31.200000000000003 C 20.64 31.680000000000003, 20.714999999999996 31.470000000000006, 19.56 32.160000000000004 C 18.33 33.06, 18.21 32.97, 17.1 33.96 C 16.11 35.04, 15.870000000000001 35.114999999999995, 15.120000000000001 36.12 C 14.610000000000001 37.05, 14.580000000000002 36.885000000000005, 14.100000000000001 37.980000000000004 C 13.650000000000002 39.24, 13.485000000000001 39.36, 13.200000000000001 40.5 C 13.080000000000002 41.519999999999996, 13.020000000000001 41.489999999999995, 12.96 42.54 C 12.96 43.620000000000005, 12.96 44.040000000000006, 12.96 44.7 C 12.96 44.94, 12.96 45.06, 12.96 45.18 L 12.96 45.18" fill="none" stroke="black" stroke-width="2"></path><path d="M 11.100000000000001 26.759999999999998 C 11.850000000000001 27.419999999999998, 11.790000000000003 27.375, 12.600000000000001 28.08 C 13.47 28.83, 13.620000000000001 28.919999999999998, 14.34 29.58 C 14.91 30.15, 15.015 30.24, 15.48 30.72 C 15.840000000000002 31.11, 15.855000000000004 31.125, 16.200000000000003 31.5 C 16.53 31.86, 16.575 31.89, 16.86 32.22 C 17.1 32.519999999999996, 17.175 32.595, 17.34 32.82 C 17.43 32.97, 17.475 33.045, 17.52 33.12 C 17.52 33.12, 17.52 33.12, 17.52 33.12 C 17.52 33.12, 17.52 33.12, 17.52 33.12 L 17.52 33.12" fill="none" stroke="black" stroke-width="2"></path></svg>