<svg width="48" height="48" viewBox="0 0 48 48" xmlns="http://www.w3.org/2000/svg"><path d="M 13.26 3.5999999999999996 C 13.170000000000002 4.92, 13.125000000000002 4.484999999999999, 13.080000000000002 6.24 C 13.080000000000002 8.43, 13.080000000000002 8.580000000000002, 13.080000000000002 10.620000000000001 C 13.080000000000002 12.51, 13.080000000000002 12.375, 13.080000000000002 14.399999999999999 C 13.080000000000002 16.56, 13.065000000000001 16.709999999999997, 13.080000000000002 18.72 C 13.110000000000001 20.58, 13.125 20.595000000000002, 13.14 22.44 C 13.14 24.27, 13.095 24.119999999999997, 13.14 26.099999999999998 C 13.23 28.229999999999997, 13.275 28.529999999999998, 13.32 30.36 C 13.32 31.89, 13.32 32.1, 13.32 33.42 C 13.32 34.53, 13.275 34.53, 13.32 35.64 C 13.41 36.75, 13.455 36.75, 13.5 37.86 C 13.5 38.97, 13.5 39.285, 13.5 40.08 C 13.5 40.56, 13.5 40.739999999999995, 13.5 41.04 L 13.5 41.28" fill="none" stroke="black" stroke-width="2"></path><path d="M 13.200000000000001 10.620000000000001 C 13.59 10.620000000000001, 13.095 10.620000000000001, 13.98 10.620000000000001 C 15.360000000000001 10.620000000000001, 15.315000000000001 10.620000000000001, 16.740000000000002 10.620000000000001 C 18.21 10.620000000000001, 18.345 10.620000000000001, 19.68 10.620000000000001 C 20.880000000000003 10.620000000000001, 21.150000000000002 10.620000000000001, 22.080000000000002 10.620000000000001 C 22.740000000000002 10.620000000000001, 22.47 10.620000000000001, 23.4 10.620000000000001 C 24.599999999999998 10.620000000000001, 24.989999999999995 10.605, 25.799999999999997 10.620000000000001 C 26.22 10.65, 26.145 10.53, 26.64 10.68 C 27.21 10.95, 27.15 10.530000000000001, 27.78 11.22 C 28.470000000000002 12.330000000000002, 28.815000000000005 12.885000000000002, 29.160000000000004 13.440000000000001 C 29.160000000000004 13.440000000000001, 29.160000000000004 13.440000000000001, 29.160000000000004 13.440000000000001 C 29.160000000000004 13.440000000000001, 28.770000000000003 10.89, 29.160000000000004 13.440000000000001 C 29.94 18.54, 30.33 20.07, 30.72 23.64 C 30.72 25.68, 30.72 25.875, 30.72 27.72 C 30.72 29.369999999999997, 30.72 29.79, 30.72 31.02 C 30.72 31.83, 30.72 31.725, 30.72 32.64 C 30.72 33.66, 30.884999999999998 33.675, 30.72 34.68 C 30.39 35.67, 30.375 35.835, 30.06 36.660000000000004 C 29.759999999999998 37.32000000000001, 29.91 37.35000000000001, 29.46 37.980000000000004 C 28.86 38.58, 28.709999999999997 38.76, 28.259999999999998 39.18 C 27.96 39.42, 27.930000000000003 39.525000000000006, 27.660000000000004 39.660000000000004 C 27.42 39.69, 27.48 39.705, 27.18 39.72 C 26.82 39.72, 26.895 39.735, 26.46 39.72 C 25.950000000000003 39.69, 25.830000000000002 39.765, 25.44 39.660000000000004 C 25.17 39.480000000000004, 25.200000000000003 39.599999999999994, 24.900000000000002 39.3 C 24.57 38.879999999999995, 24.525000000000002 39.06, 24.240000000000002 38.46 C 24 37.68000000000001, 23.939999999999998 37.86000000000001, 23.759999999999998 36.900000000000006 C 23.64 35.760000000000005, 23.61 35.97, 23.52 34.62 C 23.46 33.06, 23.43 33.239999999999995, 23.4 31.5 C 23.4 29.580000000000002, 23.4 29.220000000000006, 23.4 27.660000000000004 C 23.4 26.46, 23.4 26.16, 23.4 25.259999999999998 C 23.4 24.659999999999997, 23.4 24.419999999999998, 23.4 24.06 C 23.4 23.939999999999998, 23.4 23.88, 23.4 23.82 L 23.4 23.82" fill="none" stroke="black" stroke-width="2"></path></svg>