<svg width="48" height="48" viewBox="0 0 48 48" xmlns="http://www.w3.org/2000/svg"><path d="M 11.22 4.800000000000001 C 11.100000000000001 5.58, 11.145 5.205, 10.98 6.36 C 10.77 7.890000000000001, 10.68 8.1, 10.56 9.42 C 10.530000000000001 10.530000000000001, 10.56 10.200000000000001, 10.5 11.64 C 10.41 13.41, 10.365 13.14, 10.32 15.18 C 10.32 17.49, 10.32 17.354999999999997, 10.32 19.799999999999997 C 10.32 22.38, 10.32 23.130000000000003, 10.32 24.96 C 10.32 26.04, 10.32 25.889999999999997, 10.32 27.119999999999997 C 10.32 28.5, 10.32 28.32, 10.32 29.880000000000003 C 10.32 31.62, 10.275 31.89, 10.32 33.36 C 10.41 34.56, 10.41 34.589999999999996, 10.5 35.76 C 10.59 36.9, 10.635 36.735, 10.68 38.04 C 10.68 39.510000000000005, 10.68 39.57000000000001, 10.68 40.980000000000004 C 10.68 42.33, 10.68 42.69, 10.68 43.68 C 10.68 44.31, 10.62 44.519999999999996, 10.68 44.94 C 10.8 45.15, 10.86 45.254999999999995, 10.92 45.36 C 10.92 45.36, 10.92 45.36, 10.92 45.36 L 10.92 45.36" fill="none" stroke="black" stroke-width="2"></path><path d="M 10.02 15.24 C 10.469999999999999 15.24, 10.41 15.24, 10.92 15.24 C 11.489999999999998 15.24, 10.995 15.27, 12.059999999999999 15.24 C 13.62 15.18, 13.559999999999999 15.255, 15.18 15.120000000000001 C 16.86 14.91, 17.174999999999997 14.82, 18.54 14.700000000000001 C 19.59 14.670000000000002, 19.785 14.655000000000001, 20.64 14.64 C 21.3 14.64, 21.165 14.64, 21.96 14.64 C 22.89 14.64, 23.130000000000003 14.64, 23.82 14.64 C 24.27 14.64, 24.255 14.49, 24.72 14.64 C 25.2 14.940000000000001, 25.185 14.805, 25.68 15.24 C 26.19 15.809999999999999, 26.250000000000004 15.825, 26.700000000000003 16.38 C 27.090000000000003 16.92, 27.105 16.68, 27.48 17.46 C 27.840000000000003 18.48, 27.915000000000003 18.57, 28.200000000000003 19.5 C 28.41 20.34, 28.515 20.25, 28.619999999999997 21.18 C 28.619999999999997 22.2, 28.574999999999996 21.93, 28.619999999999997 23.22 C 28.709999999999997 24.779999999999998, 28.769999999999996 24.179999999999996, 28.799999999999997 26.339999999999996 C 28.77 29.099999999999998, 28.755000000000003 29.64, 28.740000000000002 31.86 C 28.740000000000002 33.54, 28.785000000000004 33.584999999999994, 28.740000000000002 35.22 C 28.65 36.81, 28.665 37.17, 28.56 38.400000000000006 C 28.439999999999998 39.27, 28.44 39.255, 28.32 40.14 C 28.2 41.04, 28.154999999999998 41.295, 28.08 41.94 C 28.049999999999997 42.33, 28.035 42.39, 28.02 42.72 C 28.02 42.989999999999995, 28.065 42.989999999999995, 28.02 43.26 C 27.93 43.53, 27.899999999999995 43.62, 27.839999999999996 43.8 C 27.81 43.89, 27.795 43.935, 27.78 43.980000000000004 C 27.78 43.980000000000004, 27.855 43.905, 27.78 43.980000000000004 L 27.48 44.28" fill="none" stroke="black" stroke-width="2"></path><path d="M 20.4 22.14 C 19.95 22.14, 20.22 21.93, 19.5 22.14 C 18.509999999999998 22.560000000000002, 18.36 22.32, 17.52 22.98 C 16.83 23.880000000000003, 16.635 23.775000000000002, 16.14 24.78 C 15.84 25.89, 15.69 25.89, 15.54 27 C 15.54 28.11, 15.509999999999998 27.81, 15.54 29.22 C 15.6 30.93, 15.24 31.095, 15.66 32.64 C 16.439999999999998 34.02, 16.544999999999998 34.440000000000005, 17.22 35.400000000000006 C 17.79 35.940000000000005, 17.85 36.045, 18.36 36.480000000000004 C 18.81 36.81, 18.644999999999996 36.945, 19.259999999999998 37.14 C 20.04 37.2, 20.16 37.379999999999995, 20.82 37.26 C 21.36 36.96, 21.299999999999997 37.275000000000006, 21.9 36.660000000000004 C 22.56 35.730000000000004, 22.665 35.64, 23.22 34.8 C 23.669999999999998 34.05, 23.819999999999997 34.199999999999996, 24.119999999999997 33.3 C 24.27 32.25, 24.450000000000003 32.295, 24.42 31.200000000000003 C 24.21 30.060000000000002, 24.435000000000002 30.21, 24 28.92 C 23.34 27.48, 23.189999999999998 26.97, 22.68 26.04 C 22.32 25.62, 22.32 25.650000000000002, 21.96 25.200000000000003 C 21.6 24.720000000000002, 21.660000000000004 24.660000000000004, 21.240000000000002 24.240000000000002 C 20.76 23.880000000000003, 20.700000000000003 23.79, 20.28 23.52 C 19.92 23.34, 19.77 23.28, 19.56 23.16 C 19.5 23.1, 19.53 23.085, 19.44 23.04 L 19.200000000000003 22.98" fill="none" stroke="black" stroke-width="2"></path><path d="M 15.48 28.98 C 16.740000000000002 29.19, 16.68 29.19, 18 29.400000000000002 C 19.38 29.61, 19.544999999999998 29.655, 20.759999999999998 29.82 C 21.81 29.939999999999998, 22.169999999999998 29.97, 22.86 30.06 C 23.189999999999998 30.119999999999997, 23.325 30.15, 23.52 30.18 C 23.58 30.18, 23.505000000000003 30.18, 23.64 30.18 C 23.85 30.18, 23.924999999999997 30.18, 24.06 30.18 L 24.18 30.18" fill="none" stroke="black" stroke-width="2"></path></svg>