<svg width="48" height="48" viewBox="0 0 48 48" xmlns="http://www.w3.org/2000/svg"><path d="M 13.080000000000002 5.46 C 13.170000000000002 7.35, 13.215 6.87, 13.26 9.24 C 13.26 12.09, 13.26 12.915000000000001, 13.26 14.940000000000001 C 13.26 16.14, 13.26 16.05, 13.26 17.34 C 13.26 18.72, 13.26 19.110000000000003, 13.26 20.1 C 13.26 20.7, 13.26 21, 13.26 21.299999999999997 L 13.26 21.299999999999997" fill="none" stroke="black" stroke-width="2"></path><path d="M 13.919999999999998 12.24 C 13.95 12.120000000000001, 13.71 12.06, 13.98 12 C 14.49 12, 13.965 12, 15 12 C 16.560000000000002 12, 16.785 12.06, 18.12 12 C 19.23 11.879999999999999, 19.065 11.91, 20.34 11.76 C 21.78 11.579999999999998, 21.869999999999997 11.549999999999999, 23.22 11.399999999999999 C 24.48 11.28, 24.825000000000003 11.219999999999999, 25.740000000000002 11.16 C 26.310000000000002 11.16, 26.310000000000002 11.16, 26.880000000000003 11.16 C 27.450000000000003 11.16, 27.314999999999998 11.16, 28.02 11.16 C 28.86 11.16, 29.055000000000003 11.025, 29.700000000000003 11.16 C 30.15 11.43, 30.224999999999998 10.995, 30.599999999999998 11.7 C 30.9 12.84, 31.05 12.855, 31.200000000000003 13.98 C 31.200000000000003 15.090000000000002, 31.200000000000003 15.165000000000003, 31.200000000000003 16.200000000000003 C 31.200000000000003 17.160000000000004, 31.200000000000003 17.235, 31.200000000000003 18.12 C 31.200000000000003 18.93, 31.200000000000003 19.035000000000004, 31.200000000000003 19.740000000000002 C 31.200000000000003 20.340000000000003, 31.200000000000003 20.64, 31.200000000000003 20.94 C 31.200000000000003 20.94, 31.200000000000003 20.880000000000003, 31.200000000000003 20.94 L 31.200000000000003 21.18" fill="none" stroke="black" stroke-width="2"></path><path d="M 19.5 11.82 C 19.29 13.5, 19.230000000000004 13.59, 19.080000000000002 15.18 C 18.990000000000002 16.68, 18.9 16.71, 18.9 18.18 C 18.990000000000002 19.619999999999997, 18.75 19.68, 19.080000000000002 21.06 C 19.65 22.380000000000003, 19.53 22.560000000000002, 20.22 23.700000000000003 C 21.03 24.66, 20.985 24.93, 21.84 25.619999999999997 C 22.740000000000002 26.04, 22.29 26.07, 23.64 26.46 C 25.44 26.82, 25.785000000000004 26.955, 27.240000000000002 27.18 C 28.35 27.27, 28.770000000000003 27.255, 29.46 27.36 C 29.73 27.479999999999997, 29.82 27.525, 30 27.599999999999998 C 30.09 27.630000000000003, 30.075 27.615000000000002, 30.18 27.660000000000004 C 30.3 27.720000000000002, 30.495 27.495000000000005, 30.42 27.78 C 30.150000000000002 28.29, 30.585000000000004 28.275, 29.880000000000003 28.799999999999997 C 28.740000000000002 29.34, 29.099999999999998 29.175000000000004, 27.599999999999998 29.880000000000003 C 25.74 30.75, 25.455 30.75, 23.88 31.619999999999997 C 22.589999999999996 32.489999999999995, 22.665 32.415, 21.299999999999997 33.36 C 19.86 34.38, 19.694999999999997 34.215, 18.419999999999998 35.400000000000006 C 17.310000000000002 36.75, 17.160000000000004 36.56999999999999, 16.200000000000003 38.099999999999994 C 15.390000000000002 39.809999999999995, 15.075000000000003 39.974999999999994, 14.580000000000002 41.519999999999996 C 14.400000000000002 42.9, 14.31 43.185, 14.22 44.28 C 14.22 45.09, 14.22 45.495000000000005, 14.22 45.900000000000006 L 14.22 45.900000000000006" fill="none" stroke="black" stroke-width="2"></path><path d="M 12 30 C 13.56 31.740000000000002, 13.905000000000001 32.145, 15.120000000000001 33.480000000000004 C 15.99 34.41, 16.305 34.739999999999995, 16.86 35.339999999999996 C 17.1 35.61, 17.22 35.745000000000005, 17.34 35.88 C 17.34 35.88, 17.34 35.88, 17.34 35.88 L 17.34 35.88" fill="none" stroke="black" stroke-width="2"></path></svg>