<svg width="48" height="48" viewBox="0 0 48 48" xmlns="http://www.w3.org/2000/svg"><path d="M 10.379999999999999 3.9000000000000004 C 10.379999999999999 4.98, 10.575 4.470000000000001, 10.379999999999999 6.0600000000000005 C 9.99 8.16, 9.885000000000002 8.325, 9.600000000000001 10.26 C 9.420000000000002 12.03, 9.495000000000001 11.85, 9.24 13.799999999999999 C 8.91 15.93, 9.06 15.269999999999998, 8.58 18.06 C 7.95 21.509999999999998, 7.800000000000001 22.125, 7.32 24.96 C 6.99 27.18, 6.93 27.525000000000002, 6.66 29.400000000000002 C 6.45 30.93, 6.48 30.48, 6.24 32.46 C 5.97 34.89, 5.834999999999999 35.34, 5.699999999999999 37.32 C 5.699999999999999 38.85, 5.699999999999999 39.285000000000004, 5.699999999999999 40.38 C 5.699999999999999 41.040000000000006, 5.414999999999999 41.175000000000004, 5.699999999999999 41.7 C 6.27 42.09, 6.209999999999999 42.105000000000004, 6.84 42.480000000000004 C 7.53 42.84, 7.470000000000001 43.005, 8.22 43.2 C 9.030000000000001 43.230000000000004, 8.85 43.245, 9.84 43.26 C 11.01 43.26, 11.219999999999999 43.545, 12.18 43.26 C 12.93 42.69, 13.17 42.644999999999996, 13.68 42.12 C 13.95 41.64, 14.085 41.730000000000004, 14.22 41.160000000000004 C 14.22 40.5, 14.22 40.47, 14.22 39.839999999999996 C 14.22 39.239999999999995, 14.265 39.135, 14.22 38.64 C 14.129999999999999 38.25, 14.235 38.28, 14.04 37.86 C 13.74 37.41, 13.935000000000002 37.365, 13.440000000000001 36.96 C 12.75 36.6, 12.78 36.525000000000006, 12.059999999999999 36.24 C 11.309999999999999 36.03, 11.145 35.955, 10.56 35.82 C 10.14 35.760000000000005, 10.305 35.730000000000004, 9.72 35.7 C 8.97 35.7, 9 35.7, 8.22 35.7 C 7.41 35.7, 7.260000000000001 35.61, 6.6000000000000005 35.7 C 6.09 35.88, 5.835 35.97, 5.58 36.06 C 5.58 36.06, 5.58 36.06, 5.58 36.06 L 5.58 36.06" fill="none" stroke="black" stroke-width="2"></path><path d="M 9.600000000000001 12.600000000000001 C 10.47 12.870000000000001, 10.545 12.810000000000002, 11.34 13.14 C 12.059999999999999 13.53, 12.09 13.259999999999998, 12.78 13.919999999999998 C 13.440000000000001 14.849999999999998, 13.635000000000002 14.91, 14.100000000000001 15.78 C 14.370000000000001 16.59, 14.400000000000002 16.2, 14.64 17.4 C 14.85 18.990000000000002, 14.909999999999998 19.185000000000002, 15.059999999999999 20.580000000000002 C 15.149999999999999 21.78, 15.21 21.915000000000003, 15.24 22.98 C 15.21 23.909999999999997, 15.195 24.374999999999996, 15.18 24.839999999999996 C 15.18 24.839999999999996, 15.18 24.839999999999996, 15.18 24.839999999999996 C 15.18 24.839999999999996, 15.18 24.839999999999996, 15.18 24.839999999999996 C 15.18 24.839999999999996, 14.879999999999999 24.779999999999994, 15.18 24.839999999999996 C 15.78 24.959999999999997, 15.6 25.019999999999996, 16.38 25.08 C 17.339999999999996 25.08, 17.519999999999996 25.08, 18.299999999999997 25.08 C 18.9 25.08, 18.794999999999998 25.019999999999996, 19.5 25.08 C 20.310000000000002 25.2, 20.355 25.08, 21.12 25.32 C 21.84 25.68, 21.645 25.335, 22.56 26.04 C 23.67 27.09, 23.91 27.195, 24.78 28.14 C 25.41 28.98, 25.41 28.695, 26.04 29.82 C 26.669999999999998 31.23, 26.864999999999995 31.215000000000003, 27.299999999999997 32.64 C 27.54 34.08, 27.645000000000003 34.31999999999999, 27.78 35.519999999999996 C 27.81 36.48, 27.824999999999996 36.51, 27.839999999999996 37.44 C 27.839999999999996 38.34, 27.839999999999996 38.355000000000004, 27.839999999999996 39.24 C 27.839999999999996 40.11, 27.839999999999996 40.245000000000005, 27.839999999999996 40.980000000000004 C 27.839999999999996 41.58, 27.839999999999996 41.655, 27.839999999999996 42.18 C 27.839999999999996 42.629999999999995, 27.839999999999996 42.824999999999996, 27.839999999999996 43.08 C 27.839999999999996 43.14, 27.899999999999995 42.975, 27.839999999999996 43.2 C 27.72 43.59, 27.735 43.650000000000006, 27.599999999999998 43.980000000000004 C 27.449999999999996 44.25, 27.419999999999998 44.324999999999996, 27.299999999999997 44.519999999999996 L 27.119999999999997 44.76" fill="none" stroke="black" stroke-width="2"></path></svg>