<svg width="48" height="48" viewBox="0 0 48 48" xmlns="http://www.w3.org/2000/svg"><path d="M 19.14 14.399999999999999 C 18.12 14.399999999999999, 18.405 14.399999999999999, 17.1 14.399999999999999 C 15.51 14.399999999999999, 14.715 14.399999999999999, 13.919999999999998 14.399999999999999 C 13.919999999999998 14.399999999999999, 13.919999999999998 14.399999999999999, 13.919999999999998 14.399999999999999 C 13.919999999999998 14.399999999999999, 13.919999999999998 14.399999999999999, 13.919999999999998 14.399999999999999 C 13.919999999999998 14.399999999999999, 13.949999999999998 14.399999999999999, 13.919999999999998 14.399999999999999 C 13.86 14.399999999999999, 13.919999999999998 14.339999999999998, 13.799999999999999 14.399999999999999 C 13.620000000000001 14.52, 13.680000000000001 13.815, 13.440000000000001 14.64 C 13.14 16.17, 13.02 16.35, 12.84 17.700000000000003 C 12.780000000000001 18.87, 12.75 19.064999999999998, 12.72 20.04 C 12.72 20.82, 12.72 20.85, 12.72 21.6 C 12.72 22.32, 12.675 22.38, 12.72 23.04 C 12.809999999999999 23.64, 12.719999999999999 23.700000000000003, 12.899999999999999 24.240000000000002 C 13.17 24.720000000000002, 13.05 24.750000000000004, 13.440000000000001 25.200000000000003 C 13.950000000000001 25.62, 13.815000000000001 25.65, 14.46 26.04 C 15.24 26.4, 14.864999999999998 26.474999999999998, 16.02 26.759999999999998 C 17.55 26.97, 17.76 27.03, 19.080000000000002 27.18 C 20.189999999999998 27.27, 20.444999999999997 27.314999999999998, 21.299999999999997 27.36 C 21.9 27.36, 21.795 27.36, 22.5 27.36 C 23.31 27.36, 23.444999999999997 27.36, 24.119999999999997 27.36 C 24.66 27.36, 24.795 27.39, 25.200000000000003 27.36 C 25.470000000000002 27.3, 25.470000000000002 27.39, 25.740000000000002 27.240000000000002 C 26.01 27, 25.935000000000002 27.165, 26.28 26.759999999999998 C 26.7 26.189999999999998, 26.759999999999998 26.22, 27.119999999999997 25.619999999999997 C 27.419999999999998 24.99, 27.36 25.049999999999997, 27.72 24.36 C 28.14 23.61, 28.244999999999997 23.88, 28.56 22.86 C 28.77 21.57, 28.815 21.48, 28.98 20.28 C 29.1 19.17, 29.16 19.695, 29.22 18.06 C 29.22 15.899999999999999, 29.235 15.735, 29.22 13.74 C 29.19 11.91, 29.175000000000004 10.995000000000001, 29.160000000000004 10.08 C 29.160000000000004 10.08, 29.160000000000004 10.08, 29.160000000000004 10.08 L 29.160000000000004 10.08" fill="none" stroke="black" stroke-width="2"></path><path d="M 19.68 34.68 C 19.41 34.68, 19.455000000000002 34.365, 19.14 34.68 C 18.78 35.31, 18.345 35.489999999999995, 18.419999999999998 35.94 C 18.93 36.21, 18.84 36.58500000000001, 19.44 36.480000000000004 C 20.130000000000003 36, 20.43 36.15, 20.82 35.519999999999996 C 20.91 34.739999999999995, 21.134999999999998 34.515, 21 33.96 C 20.64 33.629999999999995, 20.895000000000003 33.18, 20.28 33.3 C 19.41 33.87, 19.049999999999997 33.644999999999996, 18.54 34.44 C 18.39 35.46, 18.240000000000002 35.85, 18.240000000000002 36.480000000000004 C 18.39 36.72, 17.97 37.14, 18.54 36.96 C 19.53 36.36, 19.935 36.675, 20.52 35.76 C 20.7 34.53, 21 34.214999999999996, 20.88 33.3 C 20.46 32.699999999999996, 20.834999999999997 31.964999999999996, 20.04 32.099999999999994 C 18.87 32.97, 18.345000000000002 33.13499999999999, 17.700000000000003 33.839999999999996 C 17.580000000000002 34.379999999999995, 17.505000000000003 34.605000000000004, 17.46 34.92 L 17.52 35.099999999999994" fill="none" stroke="black" stroke-width="2"></path><path d="M 12.899999999999999 43.56 C 15.69 43.08, 16.08 42.839999999999996, 18.48 42.599999999999994 C 20.490000000000002 42.599999999999994, 20.985 42.599999999999994, 22.5 42.599999999999994 C 23.52 42.599999999999994, 23.985 42.599999999999994, 24.54 42.599999999999994 L 24.72 42.599999999999994" fill="none" stroke="black" stroke-width="2"></path></svg>