<svg width="48" height="48" viewBox="0 0 48 48" xmlns="http://www.w3.org/2000/svg"><path d="M 18.6 4.5 C 18.21 4.38, 18.555 4.154999999999999, 17.82 4.26 C 16.740000000000002 4.59, 16.62 4.335, 15.66 4.92 C 14.82 5.76, 14.49 5.610000000000001, 13.98 6.6000000000000005 C 13.8 7.74, 13.755 7.8149999999999995, 13.620000000000001 8.879999999999999 C 13.530000000000001 9.87, 13.185000000000002 10.035, 13.440000000000001 10.86 C 14.040000000000001 11.52, 13.995000000000001 11.805, 14.64 12.18 C 15.33 12.27, 15.405 12.315, 16.02 12.36 C 16.560000000000002 12.36, 16.650000000000002 12.36, 17.1 12.36 C 17.46 12.36, 17.55 12.315, 17.82 12.36 C 18 12.45, 18.045 12.45, 18.18 12.54 C 18.27 12.629999999999999, 18.24 12.600000000000001, 18.36 12.72 C 18.509999999999998 12.870000000000001, 18.555 12.75, 18.66 13.02 C 18.72 13.41, 18.75 13.485, 18.78 13.799999999999999 C 18.78 14.04, 18.93 13.875, 18.78 14.28 C 18.48 14.849999999999998, 18.63 14.774999999999999, 18.18 15.419999999999998 C 17.58 16.14, 17.7 15.959999999999999, 16.98 16.86 C 16.14 17.939999999999998, 16.005 18.03, 15.299999999999999 19.02 C 14.73 19.92, 14.52 20.205, 14.16 20.82 C 14.01 21.15, 13.98 21.105, 13.86 21.48 C 13.77 21.9, 13.59 21.87, 13.68 22.32 C 13.95 22.8, 13.920000000000002 22.965, 14.22 23.28 C 14.55 23.43, 14.489999999999998 23.445, 14.879999999999999 23.580000000000002 C 15.329999999999998 23.700000000000003, 14.939999999999998 23.685000000000002, 15.78 23.82 C 17.01 23.97, 16.590000000000003 24.044999999999998, 18.240000000000002 24.119999999999997 C 20.310000000000002 24.119999999999997, 20.625 24.119999999999997, 22.38 24.119999999999997 C 23.82 24.119999999999997, 24.075 24.119999999999997, 25.259999999999998 24.119999999999997 C 26.189999999999998 24.119999999999997, 26.415 24.15, 27.119999999999997 24.119999999999997 C 27.599999999999998 24.06, 27.674999999999997 24.18, 28.08 24 C 28.41 23.7, 28.380000000000003 23.835, 28.740000000000002 23.4 C 29.130000000000003 22.83, 29.145 22.949999999999996, 29.52 22.259999999999998 C 29.880000000000003 21.45, 29.955000000000002 21.285, 30.240000000000002 20.64 C 30.450000000000003 20.16, 30.465000000000003 20.384999999999998, 30.660000000000004 19.68 C 30.840000000000003 18.75, 30.945 19.17, 31.02 17.82 C 30.990000000000002 16.05, 31.155 16.2, 30.96 14.28 C 30.6 12.21, 30.555 11.7, 30.240000000000002 10.14 C 29.970000000000002 9.09, 29.910000000000004 8.865000000000002, 29.700000000000003 8.040000000000001 C 29.550000000000004 7.44, 29.550000000000004 7.35, 29.400000000000002 6.84 C 29.25 6.42, 29.22 6.405, 29.099999999999998 6 C 29.009999999999998 5.609999999999999, 28.965 5.415, 28.92 5.22 C 28.92 5.22, 28.92 5.22, 28.92 5.22 L 28.92 5.22" fill="none" stroke="black" stroke-width="2"></path><path d="M 20.22 23.580000000000002 C 20.28 24.39, 20.055 24.180000000000003, 20.34 25.200000000000003 C 20.85 26.430000000000003, 20.865 26.655000000000005, 21.36 27.660000000000004 C 21.84 28.44, 21.675 28.41, 22.32 29.22 C 23.130000000000003 30.060000000000002, 23.175 30.165, 23.94 30.900000000000002 C 24.660000000000004 31.53, 24.735000000000003 31.680000000000003, 25.380000000000003 32.160000000000004 C 25.950000000000003 32.49, 26.07 32.58, 26.52 32.82 C 26.85 32.97, 26.895 32.97, 27.18 33.12 C 27.42 33.269999999999996, 27.540000000000003 33.345, 27.660000000000004 33.42 C 27.660000000000004 33.42, 27.660000000000004 33.42, 27.660000000000004 33.42 C 27.660000000000004 33.42, 27.645000000000003 33.405, 27.660000000000004 33.42 C 27.69 33.45, 27.705 33.465, 27.72 33.480000000000004 C 27.72 33.480000000000004, 27.72 33.480000000000004, 27.72 33.480000000000004 C 27.72 33.480000000000004, 27.779999999999998 33.330000000000005, 27.72 33.480000000000004 C 27.6 33.78, 27.795 33.825, 27.48 34.08 C 26.97 34.29, 27.060000000000002 34.23, 26.46 34.5 C 25.77 34.83, 25.799999999999997 34.830000000000005, 25.08 35.160000000000004 C 24.33 35.49, 24.435000000000002 35.370000000000005, 23.580000000000002 35.82 C 22.62 36.39, 22.5 36.39, 21.66 36.96 C 20.939999999999998 37.53, 21 37.13999999999999, 20.22 38.099999999999994 C 19.38 39.449999999999996, 19.215 39.52499999999999, 18.54 40.8 C 18.03 42, 17.85 42.105000000000004, 17.52 43.2 C 17.369999999999997 44.19, 17.294999999999998 44.52, 17.22 45.18 C 17.22 45.51, 17.22 45.599999999999994, 17.22 45.839999999999996 C 17.22 45.989999999999995, 17.22 46.065, 17.22 46.14 L 17.22 46.14" fill="none" stroke="black" stroke-width="2"></path><path d="M 12 34.8 C 12.959999999999999 34.83, 12.825 34.575, 13.919999999999998 34.86 C 15.149999999999999 35.4, 15.404999999999998 35.385, 16.38 35.94 C 17.1 36.51, 17.235 36.54, 17.82 37.08 C 18.27 37.589999999999996, 18.314999999999998 37.67999999999999, 18.72 38.099999999999994 C 19.08 38.42999999999999, 19.185000000000002 38.55, 19.44 38.76 C 19.590000000000003 38.849999999999994, 19.665000000000003 38.894999999999996, 19.740000000000002 38.94 L 19.740000000000002 38.94" fill="none" stroke="black" stroke-width="2"></path></svg>