<svg width="48" height="48" viewBox="0 0 48 48" xmlns="http://www.w3.org/2000/svg"><path d="M 19.02 5.76 C 18.57 5.76, 18.630000000000003 5.715, 18.12 5.76 C 17.55 5.85, 17.46 5.789999999999999, 16.98 5.9399999999999995 C 16.590000000000003 6.15, 16.71 5.970000000000001, 16.200000000000003 6.36 C 15.570000000000002 6.93, 15.495000000000001 6.84, 14.940000000000001 7.5 C 14.46 8.25, 14.355 8.280000000000001, 13.98 9 C 13.71 9.69, 13.575000000000001 9.509999999999998, 13.440000000000001 10.379999999999999 C 13.440000000000001 11.43, 13.350000000000001 11.64, 13.440000000000001 12.48 C 13.620000000000001 13.11, 13.424999999999999 13.32, 13.799999999999999 13.74 C 14.370000000000001 13.95, 14.46 14.055, 14.940000000000001 14.16 C 15.330000000000002 14.16, 15.195 14.190000000000001, 15.72 14.16 C 16.38 14.1, 16.38 14.129999999999999, 17.04 14.04 C 17.7 13.919999999999998, 17.955 13.86, 18.36 13.799999999999999 C 18.509999999999998 13.799999999999999, 18.585 13.799999999999999, 18.66 13.799999999999999 C 18.66 13.799999999999999, 18.66 13.799999999999999, 18.66 13.799999999999999 C 18.66 13.799999999999999, 18.675 13.724999999999998, 18.66 13.799999999999999 C 18.630000000000003 13.95, 19.05 13.740000000000002, 18.6 14.100000000000001 C 17.73 14.670000000000002, 17.64 14.64, 16.86 15.24 C 16.17 15.870000000000001, 16.14 15.825, 15.48 16.5 C 14.850000000000001 17.22, 14.775 16.995, 14.22 17.94 C 13.74 19.11, 13.575 19.05, 13.26 20.28 C 13.11 21.57, 13.035 21.93, 12.96 22.86 C 12.96 23.43, 12.765 23.549999999999997, 12.96 24 C 13.350000000000001 24.330000000000002, 13.065000000000001 24.285000000000004, 13.74 24.660000000000004 C 14.7 25.080000000000002, 14.685 25.26, 15.66 25.5 C 16.65 25.56, 16.98 25.845, 17.64 25.619999999999997 C 17.97 25.11, 18.029999999999998 25.124999999999996, 18.299999999999997 24.599999999999998 C 18.509999999999998 24.06, 18.375 24.165, 18.72 23.52 C 19.2 22.77, 19.244999999999997 22.92, 19.68 22.02 C 20.07 20.97, 20.25 20.595, 20.46 19.919999999999998 C 20.490000000000002 19.619999999999997, 20.505 19.47, 20.52 19.32 C 20.52 19.32, 20.49 19.335, 20.52 19.32 C 20.58 19.29, 20.61 18.93, 20.64 19.259999999999998 C 20.64 19.95, 20.64 20.025, 20.64 20.64 C 20.64 21.18, 20.64 21.299999999999997, 20.64 21.72 C 20.64 22.02, 20.46 22.005, 20.64 22.32 C 21 22.65, 20.865 22.665, 21.36 22.98 C 21.990000000000002 23.28, 21.915 23.37, 22.62 23.580000000000002 C 23.4 23.700000000000003, 23.28 23.76, 24.18 23.82 C 25.2 23.82, 25.32 23.91, 26.22 23.82 C 27 23.64, 27.15 23.805, 27.78 23.46 C 28.26 22.950000000000003, 28.32 23.085, 28.740000000000002 22.44 C 29.1 21.66, 29.205000000000002 21.689999999999998, 29.46 20.88 C 29.61 20.04, 29.595 20.250000000000004, 29.759999999999998 19.200000000000003 C 29.939999999999998 17.94, 30.029999999999998 18.075, 30.119999999999997 16.68 C 30.119999999999997 15.15, 30.164999999999996 15.165000000000001, 30.119999999999997 13.620000000000001 C 30.03 12.06, 30.045 11.67, 29.94 10.5 C 29.82 9.719999999999999, 29.850000000000005 9.735, 29.700000000000003 8.94 C 29.52 8.129999999999999, 29.504999999999995 7.9350000000000005, 29.339999999999996 7.32 C 29.189999999999998 6.9, 29.144999999999996 6.765000000000001, 29.04 6.48 L 28.92 6.18" fill="none" stroke="black" stroke-width="2"></path><path d="M 21.72 22.14 C 21.72 22.89, 21.72 22.650000000000002, 21.72 23.64 C 21.72 24.869999999999997, 21.72 24.915, 21.72 26.099999999999998 C 21.72 27.240000000000002, 21.779999999999998 26.865000000000002, 21.72 28.380000000000003 C 21.6 30.270000000000003, 21.555 30.360000000000007, 21.48 32.160000000000004 C 21.45 33.870000000000005, 21.479999999999997 33.96, 21.419999999999998 35.58 C 21.33 37.11, 21.375 37.365, 21.240000000000002 38.64 C 21.060000000000002 39.66, 21.015 39.78, 20.88 40.68 C 20.79 41.46, 20.805000000000003 41.550000000000004, 20.700000000000003 42.24 C 20.580000000000002 42.84, 20.520000000000003 42.915, 20.46 43.44 C 20.46 43.89, 20.46 43.964999999999996, 20.46 44.339999999999996 C 20.46 44.64, 20.37 44.654999999999994, 20.46 44.94 C 20.64 45.21, 20.61 45.330000000000005, 20.82 45.480000000000004 C 21.06 45.510000000000005, 21.104999999999997 45.525, 21.299999999999997 45.54 C 21.45 45.54, 21.225 45.705, 21.6 45.54 C 22.2 45.21, 22.259999999999998 45.465, 22.799999999999997 44.88 C 23.279999999999998 44.040000000000006, 23.43 43.905, 23.759999999999998 43.2 C 23.939999999999998 42.63, 23.879999999999995 42.870000000000005, 24.119999999999997 42.06 C 24.419999999999998 41.010000000000005, 24.419999999999998 40.86, 24.72 39.96 C 25.02 39.21, 25.05 39.120000000000005, 25.32 38.46 C 25.56 37.89, 25.259999999999998 38.055, 25.799999999999997 37.32 C 26.64 36.42, 26.67 36.224999999999994, 27.48 35.519999999999996 C 28.259999999999998 35.01, 28.244999999999997 34.86, 29.04 34.5 C 29.85 34.29, 30.210000000000004 34.185, 30.660000000000004 34.08 C 30.75 34.08, 30.764999999999997 34.08, 30.839999999999996 34.08 C 30.9 34.08, 30.93 34.08, 30.96 34.08 L 30.96 34.08" fill="none" stroke="black" stroke-width="2"></path></svg>