<svg width="48" height="48" viewBox="0 0 48 48" xmlns="http://www.w3.org/2000/svg"><path d="M 18.12 3.7199999999999998 C 17.64 3.45, 17.715 3.33, 17.16 3.18 C 16.53 3.1500000000000004, 16.575 3.12, 15.899999999999999 3.12 C 15.18 3.1500000000000004, 15.27 3.015, 14.46 3.18 C 13.56 3.4800000000000004, 13.350000000000001 3.435, 12.66 3.7800000000000002 C 12.18 4.17, 12.315 3.8850000000000007, 11.7 4.5600000000000005 C 10.95 5.5200000000000005, 10.754999999999999 5.430000000000001, 10.2 6.48 C 9.84 7.62, 9.765 7.6049999999999995, 9.48 8.76 C 9.27 9.93, 9.105 10.170000000000002, 9.06 11.100000000000001 C 9.18 11.790000000000001, 8.955000000000002 11.850000000000001, 9.3 12.48 C 9.870000000000001 13.05, 9.66 13.215, 10.44 13.620000000000001 C 11.43 13.860000000000001, 11.129999999999997 13.98, 12.419999999999998 14.100000000000001 C 14.01 14.100000000000001, 14.25 14.325000000000001, 15.600000000000001 14.100000000000001 C 16.71 13.650000000000002, 17.22 13.470000000000002, 17.82 13.200000000000001 C 17.91 13.11, 17.955 13.065, 18 13.02 C 18 13.02, 18 13.02, 18 13.02 C 18 13.02, 18.54 12.75, 18 13.02 C 16.92 13.56, 16.785 13.590000000000002, 15.84 14.100000000000001 C 15.030000000000001 14.58, 15.09 14.385, 14.22 15.059999999999999 C 13.29 15.929999999999998, 13.094999999999999 15.854999999999997, 12.36 16.799999999999997 C 11.82 17.82, 11.594999999999999 17.79, 11.28 18.84 C 11.190000000000001 19.92, 11.085 19.89, 11.100000000000001 21 C 11.22 22.14, 10.965 22.41, 11.34 23.28 C 11.97 23.880000000000003, 11.505 24.134999999999998, 12.600000000000001 24.48 C 14.16 24.57, 14.16 24.765000000000004, 15.72 24.660000000000004 C 17.28 24.36, 17.64 24.509999999999998, 18.84 24.06 C 19.68 23.46, 19.695 23.775, 20.52 22.86 C 21.33 21.63, 21.435000000000002 21.854999999999997, 22.14 20.4 C 22.740000000000002 18.72, 22.95 18.314999999999998, 23.34 17.04 C 23.520000000000003 16.169999999999998, 23.610000000000003 15.735, 23.700000000000003 15.299999999999999 C 23.700000000000003 15.299999999999999, 23.700000000000003 15.284999999999998, 23.700000000000003 15.299999999999999 C 23.700000000000003 15.329999999999998, 23.790000000000003 15.045, 23.700000000000003 15.36 C 23.520000000000003 15.959999999999999, 23.55 15.884999999999998, 23.34 16.56 C 23.1 17.31, 22.98 17.235, 22.86 18.06 C 22.86 18.96, 22.83 19.215, 22.86 19.86 C 22.92 20.25, 22.725 20.130000000000003, 22.98 20.64 C 23.43 21.27, 23.369999999999997 21.419999999999998, 23.88 21.9 C 24.45 22.229999999999997, 24.075 22.395, 25.02 22.56 C 26.340000000000003 22.56, 26.535000000000004 22.56, 27.660000000000004 22.56 C 28.590000000000003 22.56, 28.35 22.845, 29.52 22.56 C 30.93 21.99, 31.409999999999997 21.884999999999998, 32.339999999999996 21.419999999999998 C 32.79 21.060000000000002, 32.985 20.925000000000004, 33.24 20.700000000000003 C 33.3 20.61, 33.33 20.565, 33.36 20.52 L 33.36 20.52" fill="none" stroke="black" stroke-width="2"></path><path d="M 28.259999999999998 22.44 C 28.259999999999998 23.369999999999997, 28.349999999999998 23.22, 28.259999999999998 24.299999999999997 C 28.08 25.529999999999998, 28.275000000000002 25.154999999999998, 27.900000000000002 26.759999999999998 C 27.33 28.74, 27.33 28.919999999999998, 26.759999999999998 30.72 C 26.189999999999998 32.34, 26.144999999999996 32.685, 25.619999999999997 33.96 C 25.14 34.89, 25.185000000000002 34.815, 24.660000000000004 35.82 C 24.090000000000003 36.900000000000006, 24.18 36.94500000000001, 23.52 37.980000000000004 C 22.77 38.97, 22.875 39.09, 22.02 39.96 C 21.060000000000002 40.71, 21 40.83, 20.1 41.46 C 19.259999999999998 41.97, 19.185 42.03, 18.419999999999998 42.480000000000004 C 17.729999999999997 42.870000000000005, 17.7 42.915, 17.04 43.26 C 16.41 43.56, 16.335 43.59, 15.78 43.86 C 15.3 44.099999999999994, 15.06 44.22, 14.82 44.339999999999996 C 14.82 44.339999999999996, 14.82 44.339999999999996, 14.82 44.339999999999996 C 14.82 44.339999999999996, 14.82 44.339999999999996, 14.82 44.339999999999996 L 14.82 44.339999999999996" fill="none" stroke="black" stroke-width="2"></path></svg>