<svg width="48" height="48" viewBox="0 0 48 48" xmlns="http://www.w3.org/2000/svg"><path d="M 19.919999999999998 20.28 C 19.5 19.92, 19.650000000000002 19.86, 19.080000000000002 19.56 C 18.36 19.32, 18.345000000000002 19.23, 17.64 19.080000000000002 C 16.95 19.020000000000003, 16.889999999999997 18.900000000000002, 16.259999999999998 18.96 C 15.69 19.14, 15.795000000000002 18.884999999999998, 15.120000000000001 19.32 C 14.34 20.01, 14.084999999999999 19.980000000000004, 13.559999999999999 20.700000000000003 C 13.29 21.450000000000003, 13.155 21.330000000000005, 13.02 22.200000000000003 C 13.02 23.19, 13.004999999999999 23.445, 13.02 24.18 C 13.05 24.66, 12.690000000000001 24.645, 13.080000000000002 25.14 C 13.830000000000002 25.650000000000002, 13.500000000000004 25.740000000000002, 14.580000000000002 26.160000000000004 C 15.99 26.490000000000002, 16.005 26.565, 17.4 26.82 C 18.78 27, 19.05 27.045, 20.16 27.18 C 21 27.27, 20.835 27.33, 21.84 27.36 C 23.009999999999998 27.33, 23.19 27.479999999999997, 24.18 27.299999999999997 C 24.99 26.97, 25.019999999999996 27.060000000000002, 25.799999999999997 26.64 C 26.549999999999997 26.13, 26.849999999999998 25.994999999999997, 27.299999999999997 25.619999999999997 C 27.449999999999996 25.38, 27.419999999999998 25.575, 27.599999999999998 25.14 C 27.81 24.509999999999998, 27.869999999999997 24.645, 28.02 23.88 C 28.11 22.98, 28.200000000000003 23.025000000000002, 28.200000000000003 22.080000000000002 C 28.11 21.090000000000003, 28.155 20.94, 28.02 20.1 C 27.840000000000003 19.41, 28.005000000000003 19.83, 27.660000000000004 18.72 C 27.150000000000002 17.189999999999998, 27.150000000000002 16.965, 26.64 15.66 C 26.13 14.58, 26.114999999999995 14.55, 25.619999999999997 13.5 C 25.14 12.48, 25.095000000000002 12.405, 24.660000000000004 11.459999999999999 C 24.270000000000003 10.59, 24.285 10.56, 23.88 9.72 C 23.46 8.91, 23.43 8.865000000000002, 23.04 8.100000000000001 C 22.68 7.380000000000001, 22.71 7.275, 22.32 6.66 C 21.9 6.15, 21.69 5.895, 21.48 5.64 C 21.48 5.64, 21.48 5.64, 21.48 5.64 L 21.48 5.64" fill="none" stroke="black" stroke-width="2"></path><path d="M 13.080000000000002 35.04 C 13.32 35.04, 13.245 35.04, 13.559999999999999 35.04 C 13.95 35.04, 13.709999999999999 35.04, 14.34 35.04 C 15.21 35.04, 14.865000000000002 35.04, 16.080000000000002 35.04 C 17.64 35.04, 17.715000000000003 35.04, 19.200000000000003 35.04 C 20.61 35.04, 20.67 35.04, 22.02 35.04 C 23.31 35.04, 23.444999999999997 35.04, 24.599999999999998 35.04 C 25.619999999999997 35.04, 25.95 35.04, 26.64 35.04 C 27 35.04, 27.18 35.04, 27.36 35.04 L 27.36 35.04" fill="none" stroke="black" stroke-width="2"></path></svg>