<svg width="48" height="48" viewBox="0 0 48 48" xmlns="http://www.w3.org/2000/svg"><path d="M 19.56 17.88 C 19.32 17.61, 19.395000000000003 17.564999999999998, 19.080000000000002 17.34 C 18.689999999999998 17.16, 18.689999999999998 17.115000000000002, 18.299999999999997 16.98 C 17.909999999999997 16.89, 17.955 16.845, 17.52 16.799999999999997 C 17.04 16.799999999999997, 17.174999999999997 16.724999999999994, 16.56 16.799999999999997 C 15.809999999999999 16.95, 15.644999999999998 16.92, 15.059999999999999 17.1 C 14.64 17.310000000000002, 14.595 17.295, 14.22 17.52 C 13.89 17.759999999999998, 13.934999999999999 17.58, 13.559999999999999 18 C 13.14 18.6, 13.065000000000001 18.540000000000003, 12.72 19.200000000000003 C 12.45 19.92, 12.315 20.055, 12.18 20.64 C 12.18 21.09, 12.18 20.97, 12.18 21.54 C 12.18 22.229999999999997, 11.969999999999999 22.394999999999996, 12.18 22.919999999999998 C 12.6 23.28, 12.524999999999999 23.31, 13.02 23.64 C 13.59 23.94, 13.59 23.985, 14.16 24.240000000000002 C 14.73 24.450000000000003, 14.459999999999999 24.495000000000005, 15.299999999999999 24.660000000000004 C 16.41 24.78, 16.395 24.765, 17.52 24.900000000000002 C 18.659999999999997 25.050000000000004, 18.734999999999996 25.125000000000004, 19.799999999999997 25.200000000000003 C 20.79 25.200000000000003, 20.91 25.260000000000005, 21.78 25.200000000000003 C 22.53 25.080000000000002, 22.485 25.17, 23.28 24.96 C 24.12 24.66, 24.240000000000002 24.689999999999998, 24.96 24.36 C 25.560000000000002 24, 25.650000000000006 24.15, 26.160000000000004 23.64 C 26.580000000000002 22.98, 26.73 22.89, 27 22.32 C 27.12 21.84, 27.18 21.794999999999998, 27.240000000000002 21.36 C 27.240000000000002 20.97, 27.240000000000002 21.105000000000004, 27.240000000000002 20.580000000000002 C 27.240000000000002 19.92, 27.405 20.13, 27.240000000000002 19.259999999999998 C 26.91 18.18, 26.939999999999998 18.150000000000002, 26.58 17.1 C 26.189999999999998 16.08, 26.174999999999997 15.945, 25.799999999999997 15.059999999999999 C 25.439999999999998 14.309999999999999, 25.529999999999998 14.549999999999997, 25.08 13.559999999999999 C 24.54 12.33, 24.494999999999997 12.225000000000001, 24 11.100000000000001 C 23.55 10.080000000000002, 23.580000000000002 10.080000000000002, 23.1 9.06 C 22.590000000000003 8.04, 22.560000000000002 7.92, 22.080000000000002 7.02 C 21.630000000000003 6.24, 21.585 6.12, 21.18 5.46 C 20.82 4.92, 20.79 4.8149999999999995, 20.46 4.38 C 20.16 4.05, 20.1 4.005, 19.86 3.7199999999999998 C 19.68 3.48, 19.59 3.3600000000000003, 19.5 3.24 L 19.5 3.24" fill="none" stroke="black" stroke-width="2"></path><path d="M 16.38 24.42 C 16.38 24.78, 16.41 24.405, 16.38 25.14 C 16.32 26.25, 16.38 26.1, 16.259999999999998 27.36 C 16.08 28.77, 16.095 28.755, 15.899999999999999 30.18 C 15.69 31.62, 15.585 31.68, 15.48 33.06 C 15.48 34.38, 15.525 34.290000000000006, 15.48 35.7 C 15.39 37.2, 15.344999999999999 37.5, 15.299999999999999 38.7 C 15.299999999999999 39.6, 15.299999999999999 39.675, 15.299999999999999 40.5 C 15.299999999999999 41.25, 15.299999999999999 41.34, 15.299999999999999 42 C 15.299999999999999 42.57, 15.299999999999999 42.555, 15.299999999999999 43.14 C 15.299999999999999 43.739999999999995, 15.299999999999999 43.845, 15.299999999999999 44.339999999999996 C 15.299999999999999 44.73, 15.299999999999999 44.849999999999994, 15.299999999999999 45.12 C 15.299999999999999 45.269999999999996, 15.27 45.255, 15.299999999999999 45.42 C 15.36 45.6, 15.389999999999999 45.69, 15.419999999999998 45.78 C 15.419999999999998 45.78, 15.419999999999998 45.78, 15.419999999999998 45.78 C 15.419999999999998 45.78, 15.359999999999998 45.735, 15.419999999999998 45.78 C 15.54 45.870000000000005, 15.584999999999999 45.93, 15.66 45.96 C 15.690000000000001 45.93000000000001, 15.675 45.96000000000001, 15.72 45.900000000000006 C 15.780000000000001 45.81, 15.705 45.93, 15.84 45.72 C 16.049999999999997 45.39, 16.049999999999997 45.39, 16.259999999999998 45.06 C 16.47 44.730000000000004, 16.395 44.940000000000005, 16.68 44.400000000000006 C 17.04 43.650000000000006, 17.084999999999997 43.59, 17.4 42.900000000000006 C 17.67 42.27, 17.535 42.495000000000005, 17.94 41.64 C 18.48 40.56, 18.45 40.5, 19.02 39.480000000000004 C 19.619999999999997 38.52, 19.575 38.385000000000005, 20.22 37.56 C 20.91 36.870000000000005, 20.925 36.705, 21.6 36.18 C 22.259999999999998 35.82, 22.169999999999998 35.745000000000005, 22.919999999999998 35.46 C 23.759999999999998 35.25, 23.939999999999998 35.175, 24.599999999999998 35.04 C 25.08 34.980000000000004, 25.229999999999997 34.95, 25.56 34.92 C 25.740000000000002 34.92, 25.830000000000002 34.92, 25.92 34.92 C 25.92 34.92, 25.92 34.92, 25.92 34.92 L 25.92 34.92" fill="none" stroke="black" stroke-width="2"></path></svg>