<svg width="48" height="48" viewBox="0 0 48 48" xmlns="http://www.w3.org/2000/svg"><path d="M 17.46 4.26 C 17.22 4.26, 17.445 4.215, 16.98 4.26 C 16.29 4.35, 16.185000000000002 4.305, 15.600000000000001 4.4399999999999995 C 15.120000000000001 4.62, 15.255 4.575000000000001, 14.64 4.800000000000001 C 13.89 5.07, 13.755 5.01, 13.14 5.34 C 12.66 5.73, 12.615 5.61, 12.18 6.12 C 11.79 6.75, 11.594999999999999 6.66, 11.399999999999999 7.38 C 11.399999999999999 8.19, 11.384999999999998 8.22, 11.399999999999999 9 C 11.43 9.75, 11.37 9.96, 11.459999999999999 10.5 C 11.61 10.83, 11.43 10.74, 11.76 11.16 C 12.27 11.67, 12.285 11.775, 12.78 12.18 C 13.26 12.48, 13.29 12.555, 13.74 12.78 C 14.16 12.93, 14.250000000000002 12.96, 14.580000000000002 13.080000000000002 C 14.82 13.170000000000002, 14.654999999999998 13.215, 15.059999999999999 13.26 C 15.63 13.26, 15.450000000000003 13.274999999999999, 16.200000000000003 13.26 C 17.130000000000003 13.23, 17.13 13.260000000000002, 18.06 13.200000000000001 C 18.99 13.11, 19.169999999999998 13.11, 19.919999999999998 13.02 C 20.49 12.93, 20.279999999999998 12.96, 21.06 12.84 C 22.049999999999997 12.69, 22.11 12.674999999999999, 23.04 12.54 C 23.91 12.419999999999998, 23.955000000000002 12.389999999999999, 24.78 12.299999999999999 C 25.56 12.239999999999998, 25.604999999999997 12.254999999999999, 26.339999999999996 12.18 C 27.029999999999998 12.09, 26.97 12.045, 27.72 12 C 28.529999999999998 12, 28.514999999999997 12, 29.339999999999996 12 C 30.18 12, 30.254999999999995 11.94, 31.02 12 C 31.71 12.120000000000001, 31.800000000000004 12.015, 32.400000000000006 12.24 C 32.910000000000004 12.57, 33.075 12.659999999999998, 33.42 12.899999999999999 C 33.6 13.05, 33.54 12.945, 33.78 13.200000000000001 C 34.08 13.559999999999999, 34.17 13.469999999999999, 34.38 13.919999999999998 C 34.5 14.459999999999999, 34.545 14.489999999999998, 34.62 15 C 34.65 15.48, 34.665 15.435, 34.68 15.96 C 34.68 16.53, 34.725 16.5, 34.68 17.1 C 34.59 17.73, 34.65 17.67, 34.5 18.36 C 34.29 19.11, 34.245 19.244999999999997, 34.08 19.86 C 33.959999999999994 20.34, 33.9 20.58, 33.839999999999996 20.82 C 33.839999999999996 20.82, 33.91499999999999 20.76, 33.839999999999996 20.82 L 33.54 21.06" fill="none" stroke="black" stroke-width="2"></path><path d="M 17.16 12.66 C 16.71 13.14, 16.634999999999998 13.065000000000001, 16.259999999999998 13.620000000000001 C 15.959999999999999 14.25, 15.870000000000001 14.264999999999999, 15.66 14.879999999999999 C 15.54 15.48, 15.524999999999999 15.180000000000001, 15.419999999999998 16.080000000000002 C 15.329999999999998 17.28, 15.285 17.34, 15.24 18.48 C 15.24 19.560000000000002, 15.18 19.68, 15.24 20.64 C 15.36 21.48, 15.39 21.855, 15.48 22.32 C 15.540000000000001 22.41, 15.57 22.455, 15.600000000000001 22.5 L 15.600000000000001 22.5" fill="none" stroke="black" stroke-width="2"></path><path d="M 25.08 12.54 C 25.169999999999998 13.049999999999999, 25.214999999999996 12.764999999999999, 25.259999999999998 13.559999999999999 C 25.259999999999998 14.64, 25.259999999999998 14.34, 25.259999999999998 15.72 C 25.259999999999998 17.400000000000002, 25.275 17.55, 25.259999999999998 19.080000000000002 C 25.23 20.46, 25.290000000000003 20.384999999999998, 25.200000000000003 21.84 C 25.050000000000004 23.37, 25.035000000000004 23.610000000000003, 24.900000000000002 24.900000000000002 C 24.78 25.950000000000003, 24.855000000000004 25.68, 24.660000000000004 27 C 24.39 28.59, 24.555 28.605, 24.119999999999997 30.18 C 23.519999999999996 31.74, 23.625 31.754999999999995, 22.919999999999998 33.3 C 22.11 34.83, 21.959999999999997 35.16, 21.299999999999997 36.36 C 20.79 37.23, 21.045 37.154999999999994, 20.28 38.099999999999994 C 19.26 39.12, 19.215000000000003 39.269999999999996, 18.240000000000002 40.14 C 17.310000000000002 40.86, 17.175 41.04, 16.38 41.58 C 15.719999999999999 41.94, 15.419999999999998 42.089999999999996, 15.059999999999999 42.3 C 15 42.36, 15.015 42.375, 14.940000000000001 42.42 C 14.850000000000001 42.45, 14.805 42.465, 14.76 42.480000000000004 L 14.76 42.480000000000004" fill="none" stroke="black" stroke-width="2"></path><path d="M 22.799999999999997 34.62 C 23.04 34.62, 22.98 34.62, 23.28 34.62 C 23.64 34.62, 23.295 34.559999999999995, 24 34.62 C 25.049999999999997 34.739999999999995, 25.11 34.724999999999994, 26.099999999999998 34.86 C 27.03 35.010000000000005, 27.03 34.995000000000005, 27.96 35.160000000000004 C 28.89 35.34, 29.04 35.339999999999996, 29.82 35.519999999999996 C 30.45 35.7, 30.599999999999998 35.775000000000006, 31.08 35.88 C 31.41 35.91, 31.575000000000003 35.925, 31.740000000000002 35.94 L 31.740000000000002 35.94" fill="none" stroke="black" stroke-width="2"></path></svg>