<svg width="48" height="48" viewBox="0 0 48 48" xmlns="http://www.w3.org/2000/svg"><path d="M 16.200000000000003 4.0200000000000005 C 16.020000000000003 4.0200000000000005, 16.29 3.9750000000000005, 15.84 4.0200000000000005 C 15.12 4.109999999999999, 15.014999999999999 4.0649999999999995, 14.399999999999999 4.199999999999999 C 13.889999999999999 4.38, 13.875 4.3500000000000005, 13.379999999999999 4.5600000000000005 C 12.899999999999999 4.800000000000001, 13.049999999999997 4.635, 12.419999999999998 5.04 C 11.639999999999999 5.609999999999999, 11.564999999999998 5.58, 10.86 6.18 C 10.23 6.81, 10.155000000000001 6.614999999999999, 9.600000000000001 7.4399999999999995 C 9.120000000000001 8.46, 8.955000000000002 8.415000000000001, 8.64 9.48 C 8.49 10.59, 8.370000000000001 10.635, 8.34 11.7 C 8.43 12.719999999999999, 8.265 12.99, 8.52 13.74 C 8.94 14.22, 8.895 14.355, 9.36 14.700000000000001 C 9.87 14.91, 10.004999999999999 14.970000000000002, 10.379999999999999 15.120000000000001 C 10.62 15.21, 10.635 15.254999999999999, 10.86 15.299999999999999 C 11.07 15.299999999999999, 10.829999999999998 15.599999999999998, 11.28 15.299999999999999 C 11.969999999999999 14.7, 11.97 14.850000000000001, 12.66 14.100000000000001 C 13.35 13.2, 13.559999999999999 12.885, 14.04 12.299999999999999 C 14.31 12.03, 14.295000000000002 11.955, 14.580000000000002 11.76 C 14.88 11.64, 14.73 11.325, 15.18 11.52 C 15.78 12.03, 15.915 12.03, 16.38 12.54 C 16.71 13.049999999999999, 16.74 13.064999999999998, 17.04 13.559999999999999 C 17.310000000000002 14.04, 17.325000000000003 13.754999999999999, 17.580000000000002 14.52 C 17.82 15.57, 17.895 15.810000000000002, 18.06 16.62 C 18.15 17.189999999999998, 18.195 17.474999999999998, 18.240000000000002 17.759999999999998 C 18.240000000000002 17.759999999999998, 18.240000000000002 17.759999999999998, 18.240000000000002 17.759999999999998 C 18.240000000000002 17.759999999999998, 18.21 17.804999999999996, 18.240000000000002 17.759999999999998 C 18.3 17.67, 18.15 18.270000000000003, 18.36 17.580000000000002 C 18.72 16.29, 18.675 16.11, 19.080000000000002 15 C 19.53 14.07, 19.59 13.785, 19.98 13.14 C 20.310000000000002 12.78, 20.115000000000002 12.764999999999999, 20.64 12.419999999999998 C 21.36 12.09, 21.300000000000004 12.03, 22.080000000000002 11.76 C 22.92 11.55, 23.04 11.475, 23.759999999999998 11.34 C 24.36 11.280000000000001, 24.42 11.25, 24.96 11.22 C 25.44 11.22, 25.485 11.16, 25.92 11.22 C 26.310000000000002 11.34, 26.295 11.295, 26.700000000000003 11.459999999999999 C 27.12 11.669999999999998, 27.075 11.61, 27.54 11.879999999999999 C 28.049999999999997 12.209999999999999, 28.14 12.239999999999998, 28.56 12.54 C 28.89 12.81, 28.935 12.825000000000003, 29.22 13.080000000000002 C 29.46 13.32, 29.430000000000003 13.274999999999999, 29.700000000000003 13.559999999999999 C 30 13.89, 29.999999999999996 13.8, 30.299999999999997 14.22 C 30.6 14.73, 30.645000000000003 14.700000000000001, 30.900000000000002 15.24 C 31.11 15.809999999999999, 31.17 15.854999999999999, 31.32 16.38 C 31.41 16.86, 31.425 16.92, 31.5 17.34 C 31.56 17.7, 31.589999999999996 17.64, 31.619999999999997 18.06 C 31.619999999999997 18.54, 31.619999999999997 18.75, 31.619999999999997 19.02 C 31.619999999999997 19.08, 31.619999999999997 19.11, 31.619999999999997 19.14 L 31.619999999999997 19.14" fill="none" stroke="black" stroke-width="2"></path><path d="M 11.52 15.24 C 11.19 15.420000000000002, 11.265 15.015, 10.86 15.600000000000001 C 10.379999999999999 16.590000000000003, 10.154999999999998 16.62, 9.899999999999999 17.580000000000002 C 9.87 18.51, 9.735 18.225, 9.84 19.44 C 10.08 20.94, 10.08 21.315, 10.32 22.44 C 10.56 23.19, 10.665000000000001 23.535000000000004, 10.8 23.94 L 10.86 24.06" fill="none" stroke="black" stroke-width="2"></path><path d="M 22.98 11.16 C 22.89 12, 22.889999999999997 11.594999999999999, 22.799999999999997 12.84 C 22.71 14.49, 22.71 14.61, 22.62 16.14 C 22.53 17.55, 22.44 17.490000000000002, 22.44 18.96 C 22.53 20.490000000000002, 22.470000000000002 20.985, 22.62 22.02 C 22.83 22.560000000000002, 22.65 22.380000000000003, 23.04 23.1 C 23.61 24, 23.55 24.105000000000004, 24.18 24.900000000000002 C 24.869999999999997 25.590000000000003, 24.884999999999998 25.755000000000003, 25.56 26.28 C 26.22 26.64, 26.310000000000002 26.685000000000002, 26.880000000000003 27 C 27.36 27.27, 27.239999999999995 27.27, 27.839999999999996 27.54 C 28.56 27.81, 28.725 27.884999999999998, 29.28 28.08 C 29.67 28.2, 29.82 28.23, 30.06 28.32 C 30.15 28.380000000000003, 30.135 28.380000000000003, 30.240000000000002 28.44 C 30.36 28.5, 30.405 28.41, 30.48 28.56 C 30.509999999999998 28.799999999999997, 30.525 28.799999999999997, 30.54 29.04 C 30.54 29.28, 30.54 29.325, 30.54 29.52 C 30.54 29.67, 30.615 29.67, 30.54 29.82 C 30.39 29.97, 30.6 30, 30.240000000000002 30.119999999999997 C 29.67 30.209999999999997, 30.029999999999998 30.239999999999995, 29.099999999999998 30.299999999999997 C 27.81 30.33, 28.2 30.165, 26.52 30.36 C 24.45 30.72, 24.015 30.765, 22.38 31.08 C 21.18 31.349999999999998, 20.925 31.365, 19.98 31.619999999999997 C 19.29 31.859999999999996, 19.62 31.529999999999994, 18.6 32.099999999999994 C 17.25 33, 17.04 33, 15.899999999999999 33.900000000000006 C 14.969999999999999 34.800000000000004, 14.774999999999999 34.815000000000005, 14.04 35.7 C 13.5 36.57, 13.365000000000002 36.614999999999995, 12.96 37.44 C 12.69 38.22, 12.555 38.205, 12.419999999999998 39 C 12.419999999999998 39.81, 12.419999999999998 39.974999999999994, 12.419999999999998 40.62 C 12.419999999999998 41.099999999999994, 12.344999999999997 41.22, 12.419999999999998 41.58 C 12.57 41.82, 12.615 41.865, 12.72 42.06 C 12.780000000000001 42.21, 12.81 42.285, 12.84 42.36 L 12.84 42.36" fill="none" stroke="black" stroke-width="2"></path></svg>