<svg width="48" height="48" viewBox="0 0 48 48" xmlns="http://www.w3.org/2000/svg"><path d="M 26.94 5.04 C 26.759999999999998 4.68, 27.044999999999998 4.710000000000001, 26.58 4.32 C 25.83 3.9, 25.904999999999998 3.7649999999999997, 25.08 3.4799999999999995 C 24.18 3.33, 24.36 3.1500000000000004, 23.28 3.18 C 22.02 3.3899999999999997, 21.884999999999998 3.09, 20.759999999999998 3.5999999999999996 C 19.77 4.41, 19.485 4.484999999999999, 18.78 5.22 C 18.36 5.880000000000001, 18.3 5.745000000000001, 17.94 6.540000000000001 C 17.64 7.47, 17.595 6.989999999999998, 17.34 8.399999999999999 C 17.13 10.29, 16.919999999999998 10.53, 16.919999999999998 12.18 C 17.13 13.59, 16.89 13.875, 17.34 15 C 18.03 15.84, 17.985 16.005, 18.72 16.68 C 19.5 17.19, 19.35 17.340000000000003, 20.28 17.700000000000003 C 21.36 17.910000000000004, 21.195 17.985, 22.44 18.12 C 23.85 18.18, 24 18.315, 25.259999999999998 18.240000000000002 C 26.369999999999997 18.03, 26.67 18.03, 27.48 17.82 C 27.990000000000002 17.61, 28.2 17.52, 28.5 17.4 C 28.59 17.369999999999997, 28.634999999999998 17.355, 28.68 17.34 L 28.68 17.34" fill="none" stroke="black" stroke-width="2"></path><path d="M 23.34 18.06 C 23.58 18.96, 23.655 18.915, 23.82 19.86 C 23.91 20.85, 23.895 20.445, 24 21.84 C 24.12 23.64, 24.195 23.505000000000003, 24.240000000000002 25.44 C 24.21 27.509999999999998, 24.345 27.584999999999997, 24.18 29.58 C 23.880000000000003 31.5, 23.865000000000002 31.905, 23.580000000000002 33.42 C 23.310000000000002 34.53, 23.46 34.365, 23.04 35.64 C 22.47 37.08, 22.514999999999997 37.334999999999994, 21.9 38.519999999999996 C 21.240000000000002 39.45, 21.465000000000003 39.480000000000004, 20.580000000000002 40.38 C 19.47 41.25, 18.915 41.685, 18.36 42.12 C 18.36 42.12, 18.405 42.074999999999996, 18.36 42.12 C 18.27 42.209999999999994, 18.225 42.254999999999995, 18.18 42.3 L 18.18 42.3" fill="none" stroke="black" stroke-width="2"></path></svg>