<svg width="48" height="48" viewBox="0 0 48 48" xmlns="http://www.w3.org/2000/svg"><path d="M 17.04 3.84 C 16.65 3.84, 16.68 3.84, 16.259999999999998 3.84 C 15.809999999999999 3.84, 15.93 3.75, 15.36 3.84 C 14.67 4.02, 14.61 3.9449999999999994, 13.98 4.199999999999999 C 13.41 4.529999999999999, 13.305 4.5, 12.84 4.86 C 12.48 5.25, 12.450000000000001 5.16, 12.120000000000001 5.64 C 11.82 6.209999999999999, 11.82 6.164999999999999, 11.52 6.779999999999999 C 11.219999999999999 7.44, 11.1 7.530000000000001, 10.92 8.100000000000001 C 10.86 8.580000000000002, 10.83 8.520000000000001, 10.8 9.06 C 10.8 9.66, 10.8 9.84, 10.8 10.26 C 10.8 10.5, 10.635000000000002 10.41, 10.8 10.74 C 11.129999999999999 11.16, 11.084999999999999 11.205, 11.459999999999999 11.58 C 11.879999999999999 11.91, 11.774999999999999 11.940000000000001, 12.299999999999999 12.24 C 12.93 12.51, 12.839999999999998 12.569999999999999, 13.559999999999999 12.78 C 14.37 12.93, 14.415 13.005, 15.18 13.080000000000002 C 15.9 13.080000000000002, 15.675 13.125000000000004, 16.62 13.080000000000002 C 17.79 12.99, 17.76 13.035, 18.96 12.899999999999999 C 20.189999999999998 12.719999999999999, 20.384999999999998 12.704999999999998, 21.419999999999998 12.54 C 22.259999999999998 12.39, 22.215 12.42, 23.1 12.24 C 24.03 12.030000000000001, 23.970000000000002 12.075, 24.96 11.82 C 26.009999999999998 11.52, 26.235 11.505, 27.06 11.22 C 27.659999999999997 10.95, 27.554999999999996 10.95, 28.259999999999998 10.68 C 29.07 10.41, 29.055000000000003 10.38, 29.880000000000003 10.14 C 30.72 9.93, 30.81 9.96, 31.56 9.72 C 32.22 9.45, 32.295 9.42, 32.88 9.18 C 33.39 8.969999999999999, 33.57000000000001 8.879999999999999, 33.900000000000006 8.76 C 34.050000000000004 8.73, 34.050000000000004 8.729999999999999, 34.2 8.7 C 34.35 8.67, 34.425 8.655000000000001, 34.5 8.64 L 34.5 8.64" fill="none" stroke="black" stroke-width="2"></path><path d="M 16.080000000000002 13.080000000000002 C 15.39 13.41, 15.375000000000002 13.275, 14.700000000000001 13.74 C 14.04 14.34, 13.844999999999999 14.475000000000001, 13.379999999999999 14.940000000000001 C 13.11 15.270000000000001, 12.99 15.120000000000001, 12.84 15.600000000000001 C 12.809999999999999 16.23, 12.84 16.275, 12.78 16.86 C 12.690000000000001 17.4, 12.645000000000001 17.355, 12.600000000000001 17.94 C 12.600000000000001 18.57, 12.510000000000002 18.630000000000003, 12.600000000000001 19.200000000000003 C 12.780000000000001 19.71, 12.75 19.634999999999998, 12.96 20.22 C 13.200000000000001 20.88, 13.200000000000003 20.895, 13.440000000000001 21.54 C 13.68 22.169999999999998, 13.589999999999998 22.184999999999995, 13.919999999999998 22.799999999999997 C 14.34 23.4, 14.34 23.445, 14.76 24 C 15.18 24.509999999999998, 15.015 24.405, 15.600000000000001 25.02 C 16.35 25.740000000000002, 16.650000000000002 25.935000000000002, 17.1 26.46 C 17.25 26.79, 17.325 26.955, 17.4 27.119999999999997 L 17.4 27.119999999999997" fill="none" stroke="black" stroke-width="2"></path><path d="M 23.82 11.64 C 23.76 11.91, 23.565000000000005 11.385, 23.700000000000003 12.18 C 24.03 13.5, 24.03 13.44, 24.36 14.82 C 24.689999999999998 16.26, 24.72 16.320000000000004, 25.02 17.700000000000003 C 25.29 19.020000000000003, 25.424999999999997 19.05, 25.56 20.34 C 25.56 21.6, 25.56 21.75, 25.56 22.86 C 25.56 23.82, 25.56 23.490000000000002, 25.56 24.78 C 25.56 26.4, 25.56 26.52, 25.56 28.02 C 25.56 29.4, 25.65 29.490000000000002, 25.56 30.78 C 25.380000000000003 31.98, 25.380000000000003 32.25, 25.200000000000003 33.18 C 25.02 33.84, 25.169999999999998 33.66, 24.839999999999996 34.5 C 24.36 35.519999999999996, 24.525 35.445, 23.88 36.54 C 23.07 37.71, 23.009999999999998 37.935, 22.259999999999998 38.88 C 21.57 39.6, 21.689999999999998 39.525, 20.88 40.32 C 19.95 41.19, 19.814999999999998 41.400000000000006, 19.02 42.06 C 18.36 42.510000000000005, 18.42 42.525000000000006, 17.700000000000003 42.96 C 16.92 43.379999999999995, 16.650000000000002 43.5, 16.14 43.8 C 15.9 43.980000000000004, 15.9 44.010000000000005, 15.66 44.160000000000004 C 15.42 44.28, 15.3 44.34, 15.18 44.400000000000006 C 15.18 44.400000000000006, 15.18 44.400000000000006, 15.18 44.400000000000006 L 15.18 44.400000000000006" fill="none" stroke="black" stroke-width="2"></path><path d="M 33.18 22.740000000000002 C 33.269999999999996 23.160000000000004, 33.225 22.950000000000003, 33.36 23.580000000000002 C 33.54 24.42, 33.584999999999994 24.195, 33.72 25.259999999999998 C 33.81 26.549999999999997, 33.855000000000004 26.774999999999995, 33.900000000000006 27.839999999999996 C 33.900000000000006 28.68, 33.915000000000006 28.695, 33.900000000000006 29.52 C 33.870000000000005 30.33, 34.08 30.03, 33.839999999999996 31.14 C 33.39 32.55, 33.39 32.7, 32.94 33.96 C 32.489999999999995 35.07, 32.474999999999994 35.31, 32.04 36.18 C 31.62 36.81, 31.665000000000003 36.75, 31.200000000000003 37.44 C 30.69 38.19, 30.72 38.22, 30.18 38.94 C 29.61 39.629999999999995, 29.52 39.765, 29.04 40.32 C 28.65 40.74, 28.665 40.74, 28.259999999999998 41.160000000000004 C 27.84 41.58, 27.630000000000003 41.79, 27.42 42 C 27.42 42, 27.42 42, 27.42 42 L 27.42 42" fill="none" stroke="black" stroke-width="2"></path></svg>