<svg width="48" height="48" viewBox="0 0 48 48" xmlns="http://www.w3.org/2000/svg"><path d="M 17.700000000000003 5.16 C 17.25 5.07, 17.22 5.0249999999999995, 16.799999999999997 4.9799999999999995 C 16.409999999999997 4.9799999999999995, 16.365 4.9799999999999995, 16.02 4.9799999999999995 C 15.719999999999999 4.9799999999999995, 15.974999999999998 4.89, 15.419999999999998 4.9799999999999995 C 14.61 5.16, 14.399999999999999 5.145, 13.799999999999999 5.34 C 13.41 5.55, 13.44 5.459999999999999, 13.02 5.76 C 12.57 6.15, 12.525000000000002 6.0600000000000005, 12.120000000000001 6.540000000000001 C 11.76 7.11, 11.654999999999998 7.154999999999999, 11.399999999999999 7.68 C 11.25 8.16, 11.175 8.16, 11.100000000000001 8.64 C 11.100000000000001 9.120000000000001, 10.890000000000002 9.150000000000002, 11.100000000000001 9.600000000000001 C 11.52 10.02, 11.475 10.065, 11.94 10.44 C 12.45 10.77, 12.540000000000001 10.830000000000002, 12.96 11.100000000000001 C 13.290000000000001 11.31, 13.215 11.31, 13.620000000000001 11.52 C 14.100000000000001 11.73, 14.070000000000002 11.834999999999999, 14.580000000000002 11.94 C 15.120000000000001 11.94, 15.165000000000001 11.94, 15.66 11.94 C 16.11 11.94, 15.794999999999998 12.014999999999999, 16.56 11.94 C 17.64 11.79, 17.685 11.85, 18.72 11.64 C 19.71 11.370000000000001, 19.875000000000004 11.250000000000002, 20.700000000000003 11.100000000000001 C 21.36 11.07, 21.285 11.055000000000001, 22.02 11.040000000000001 C 22.83 11.040000000000001, 23.01 11.040000000000001, 23.64 11.040000000000001 C 24.09 11.040000000000001, 23.985 10.920000000000002, 24.54 11.040000000000001 C 25.2 11.280000000000001, 25.455 11.355, 25.86 11.52 C 26.01 11.61, 25.935000000000002 11.489999999999998, 26.160000000000004 11.7 C 26.46 12.03, 26.564999999999998 11.985, 26.759999999999998 12.36 C 26.85 12.780000000000001, 26.85 12.72, 26.94 13.200000000000001 C 27.03 13.74, 27.075 13.635, 27.119999999999997 14.28 C 27.119999999999997 15.03, 27.134999999999998 15.104999999999999, 27.119999999999997 15.78 C 27.089999999999996 16.38, 27.119999999999997 16.515, 27.06 16.98 C 26.97 17.310000000000002, 26.925 17.445, 26.880000000000003 17.64 C 26.880000000000003 17.7, 26.880000000000003 17.729999999999997, 26.880000000000003 17.759999999999998 C 26.880000000000003 17.759999999999998, 26.910000000000004 17.669999999999998, 26.880000000000003 17.759999999999998 C 26.82 17.939999999999998, 26.79 18, 26.759999999999998 18.12 C 26.759999999999998 18.18, 26.759999999999998 18.21, 26.759999999999998 18.240000000000002 L 26.759999999999998 18.240000000000002" fill="none" stroke="black" stroke-width="2"></path><path d="M 15.72 11.399999999999999 C 15.96 11.639999999999999, 16.080000000000002 11.264999999999999, 16.200000000000003 11.879999999999999 C 16.200000000000003 12.87, 16.260000000000005 12.75, 16.200000000000003 13.86 C 16.080000000000002 15.09, 16.11 15.045, 15.96 16.32 C 15.780000000000001 17.64, 15.840000000000002 17.19, 15.600000000000001 18.96 C 15.3 21.18, 15.315000000000001 21.18, 15 23.4 C 14.67 25.619999999999997, 14.58 26.084999999999994, 14.34 27.839999999999996 C 14.19 29.13, 14.28 28.725, 14.04 30.42 C 13.709999999999999 32.519999999999996, 13.589999999999998 33.059999999999995, 13.379999999999999 34.62 C 13.29 35.64, 13.305 35.730000000000004, 13.200000000000001 36.660000000000004 C 13.080000000000002 37.5, 13.095 37.605, 12.96 38.339999999999996 C 12.81 38.97, 12.735 39.209999999999994, 12.66 39.599999999999994 C 12.66 39.75, 12.690000000000001 39.63, 12.66 39.900000000000006 C 12.6 40.290000000000006, 12.57 40.32, 12.54 40.68 C 12.54 41.01, 12.54 41.06999999999999, 12.54 41.339999999999996 C 12.54 41.55, 12.54 41.655, 12.54 41.76 C 12.54 41.76, 12.54 41.76, 12.54 41.76 L 12.54 41.76" fill="none" stroke="black" stroke-width="2"></path><path d="M 21.18 10.26 C 21.299999999999997 10.41, 21.314999999999998 10.215, 21.419999999999998 10.56 C 21.509999999999998 11.100000000000001, 21.51 10.875, 21.6 11.64 C 21.69 12.63, 21.735 12.315000000000001, 21.78 13.620000000000001 C 21.78 15.24, 21.78 15.375, 21.78 16.86 C 21.78 18.21, 21.78 18, 21.78 19.56 C 21.78 21.33, 21.840000000000003 21.225, 21.78 23.1 C 21.66 25.08, 21.689999999999998 25.335, 21.54 27.06 C 21.36 28.53, 21.39 28.59, 21.18 30 C 20.94 31.35, 20.880000000000003 31.650000000000002, 20.700000000000003 32.7 C 20.580000000000002 33.45, 20.61 33.22500000000001, 20.46 34.2 C 20.28 35.4, 20.28 35.55, 20.1 36.599999999999994 C 19.92 37.5, 19.875000000000004 37.635000000000005, 19.740000000000002 38.400000000000006 C 19.65 39.03, 19.665 39.03, 19.56 39.660000000000004 C 19.439999999999998 40.290000000000006, 19.395 40.56, 19.32 40.92 C 19.29 41.01, 19.275 41.05499999999999, 19.259999999999998 41.099999999999994 C 19.259999999999998 41.099999999999994, 19.259999999999998 41.099999999999994, 19.259999999999998 41.099999999999994 C 19.259999999999998 41.099999999999994, 19.259999999999998 41.099999999999994, 19.259999999999998 41.099999999999994 L 19.259999999999998 41.099999999999994" fill="none" stroke="black" stroke-width="2"></path></svg>