<svg width="48" height="48" viewBox="0 0 48 48" xmlns="http://www.w3.org/2000/svg"><path d="M 17.04 1.1400000000000001 C 17.1 1.7100000000000002, 17.13 1.56, 17.16 2.2800000000000002 C 17.16 3.1500000000000004, 17.16 3.0600000000000005, 17.16 4.0200000000000005 C 17.16 5.07, 17.07 5.085, 17.16 6.12 C 17.34 7.140000000000001, 17.28 7.11, 17.52 8.16 C 17.82 9.24, 17.835 9.405000000000001, 18.12 10.32 C 18.39 11.07, 18.285 11.010000000000002, 18.66 11.82 C 19.14 12.69, 19.065 12.584999999999999, 19.62 13.559999999999999 C 20.25 14.64, 20.174999999999997 14.745000000000001, 20.88 15.72 C 21.66 16.59, 21.84 16.785, 22.44 17.46 C 22.86 17.939999999999998, 22.650000000000002 17.775, 23.28 18.419999999999998 C 24.12 19.229999999999997, 24.165 19.365, 24.96 20.04 C 25.71 20.58, 25.755000000000003 20.625, 26.46 21.12 C 27.12 21.57, 27.39 21.765, 27.78 22.02 C 27.9 22.08, 27.884999999999998 22.065, 28.02 22.14 C 28.17 22.23, 28.245 22.275, 28.32 22.32 C 28.32 22.32, 28.32 22.32, 28.32 22.32 L 28.32 22.32" fill="none" stroke="black" stroke-width="2"></path><path d="M 25.619999999999997 19.68 C 24.93 19.86, 25.11 19.77, 24.240000000000002 20.04 C 23.19 20.4, 22.71 20.564999999999998, 22.14 20.759999999999998 C 22.05 20.79, 22.125 20.745, 21.96 20.82 C 21.72 20.939999999999998, 21.66 20.88, 21.48 21.06 C 21.36 21.299999999999997, 21.345000000000002 21.075, 21.240000000000002 21.54 C 21.15 22.229999999999997, 21.15 22.154999999999998, 21.06 22.919999999999998 C 20.97 23.759999999999998, 20.909999999999997 23.369999999999997, 20.88 24.599999999999998 C 20.91 26.22, 20.880000000000003 26.354999999999997, 20.94 27.839999999999996 C 21.03 29.189999999999998, 21.135 29.189999999999998, 21.12 30.54 C 21 31.89, 20.939999999999998 32.205, 20.88 33.24 C 20.88 33.96, 20.88 34.05, 20.88 34.68 C 20.88 35.22, 20.88 35.265, 20.88 35.76 C 20.88 36.21, 20.88 36.315000000000005, 20.88 36.660000000000004 C 20.88 36.900000000000006, 20.88 36.945, 20.88 37.14 C 20.88 37.29, 20.88 37.32, 20.88 37.44 C 20.88 37.53, 20.88 37.574999999999996, 20.88 37.62 C 20.88 37.62, 20.88 37.62, 20.88 37.62 C 20.88 37.62, 20.88 37.30499999999999, 20.88 37.62 C 20.88 38.25, 20.924999999999997 38.13, 20.88 38.88 C 20.79 39.75, 20.745 39.765, 20.700000000000003 40.62 C 20.700000000000003 41.459999999999994, 20.730000000000004 41.805, 20.700000000000003 42.3 C 20.64 42.449999999999996, 20.610000000000003 42.52499999999999, 20.580000000000002 42.599999999999994 L 20.580000000000002 42.599999999999994" fill="none" stroke="black" stroke-width="2"></path></svg>