<svg width="48" height="48" viewBox="0 0 48 48" xmlns="http://www.w3.org/2000/svg"><path d="M 15.24 4.26 C 15.21 4.71, 15.15 4.545, 15.18 5.16 C 15.27 5.94, 15.149999999999999 5.865, 15.36 6.720000000000001 C 15.69 7.65, 15.629999999999999 7.815, 16.02 8.58 C 16.47 9.18, 16.424999999999997 9.165, 16.919999999999998 9.78 C 17.46 10.41, 17.25 10.38, 18 11.040000000000001 C 18.96 11.73, 19.019999999999996 11.969999999999999, 19.919999999999998 12.419999999999998 C 20.759999999999998 12.629999999999999, 20.76 12.674999999999999, 21.6 12.84 C 22.44 12.96, 22.230000000000004 13.110000000000001, 23.28 13.080000000000002 C 24.54 12.900000000000002, 24.659999999999997 13.080000000000002, 25.799999999999997 12.72 C 26.819999999999997 12.18, 26.879999999999995 12.3, 27.839999999999996 11.64 C 28.74 10.86, 28.845 10.95, 29.64 10.08 C 30.33 9.120000000000001, 30.525 8.97, 31.02 8.16 C 31.32 7.5, 31.349999999999998 7.455, 31.619999999999997 6.84 C 31.859999999999996 6.27, 31.949999999999996 6.18, 32.099999999999994 5.699999999999999 C 32.16 5.31, 32.16 5.385, 32.22 4.92 C 32.28 4.38, 32.309999999999995 4.185, 32.339999999999996 3.84 C 32.339999999999996 3.69, 32.339999999999996 3.615, 32.339999999999996 3.54 L 32.339999999999996 3.54" fill="none" stroke="black" stroke-width="2"></path><path d="M 14.64 20.16 C 14.64 21.6, 14.64 21.779999999999998, 14.64 23.04 C 14.64 24.12, 14.46 24.135000000000005, 14.64 25.200000000000003 C 15 26.25, 14.925 26.384999999999998, 15.36 27.299999999999997 C 15.87 28.08, 15.87 28.29, 16.38 28.86 C 16.89 29.22, 16.784999999999997 29.22, 17.4 29.58 C 18.119999999999997 29.939999999999998, 17.835 30.089999999999996, 18.84 30.299999999999997 C 20.13 30.36, 20.159999999999997 30.39, 21.419999999999998 30.42 C 22.65 30.42, 22.845 30.51, 23.88 30.42 C 24.72 30.240000000000002, 24.645 30.36, 25.56 30.06 C 26.549999999999997 29.64, 26.73 29.685, 27.54 29.22 C 28.169999999999998 28.71, 27.989999999999995 29.115000000000002, 28.799999999999997 28.200000000000003 C 29.79 26.880000000000003, 29.97 27.15, 30.78 25.56 C 31.41 23.7, 31.59 23.61, 32.04 21.84 C 32.31 20.16, 32.445 19.35, 32.58 18.48 C 32.58 18.42, 32.58 18.39, 32.58 18.36 L 32.58 18.36" fill="none" stroke="black" stroke-width="2"></path></svg>