<svg width="48" height="48" viewBox="0 0 48 48" xmlns="http://www.w3.org/2000/svg"><path d="M 10.26 38.76 C 10.59 38.4, 10.38 38.339999999999996, 10.92 38.04 C 11.669999999999998 37.8, 11.654999999999998 37.71, 12.419999999999998 37.56 C 13.2 37.5, 13.379999999999999 37.47, 13.98 37.44 C 14.4 37.44, 14.34 37.379999999999995, 14.82 37.44 C 15.36 37.56, 15.419999999999998 37.425, 15.899999999999999 37.68 C 16.32 38.07, 16.335 37.935, 16.740000000000002 38.46 C 17.130000000000003 39.120000000000005, 17.25 39.075, 17.52 39.78 C 17.67 40.53, 17.745 40.71, 17.82 41.28 C 17.82 41.67, 17.88 41.550000000000004, 17.82 42.06 C 17.700000000000003 42.69, 17.910000000000004 42.66, 17.580000000000002 43.32 C 17.04 44.010000000000005, 17.175 44.13, 16.5 44.7 C 15.69 45.15, 15.66 45.239999999999995, 14.879999999999999 45.599999999999994 C 14.129999999999999 45.87, 13.979999999999999 45.975, 13.379999999999999 46.14 C 12.93 46.2, 12.870000000000001 46.23, 12.48 46.26 C 12.15 46.26, 12.06 46.29, 11.82 46.26 C 11.67 46.2, 11.73 46.275, 11.52 46.14 C 11.25 45.93, 11.25 46.065, 10.98 45.72 C 10.71 45.239999999999995, 10.635 45.209999999999994, 10.44 44.76 C 10.32 44.34, 10.32 44.370000000000005, 10.2 43.92 C 10.079999999999998 43.44, 10.094999999999999 43.47, 9.959999999999999 42.96 C 9.809999999999999 42.42, 9.75 42.42, 9.66 41.88 C 9.63 41.34, 9.615000000000002 41.324999999999996, 9.600000000000001 40.8 C 9.600000000000001 40.29, 9.600000000000001 40.35, 9.600000000000001 39.78 C 9.600000000000001 39.15, 9.600000000000001 39.059999999999995, 9.600000000000001 38.519999999999996 C 9.600000000000001 38.06999999999999, 9.600000000000001 38.19, 9.600000000000001 37.62 C 9.600000000000001 36.93, 9.645000000000001 37.05, 9.600000000000001 36.24 C 9.510000000000002 35.31, 9.465 35.13, 9.42 34.38 C 9.42 33.81, 9.42 34.065000000000005, 9.42 33.24 C 9.42 32.16, 9.42 32.325, 9.42 31.08 C 9.42 29.669999999999998, 9.42 29.519999999999996, 9.42 28.259999999999998 C 9.42 27.15, 9.42 26.909999999999997, 9.42 26.04 C 9.42 25.41, 9.42 25.44, 9.42 24.78 C 9.42 24.09, 9.42 24.044999999999998, 9.42 23.4 C 9.42 22.8, 9.42 22.740000000000002, 9.42 22.200000000000003 C 9.42 21.720000000000002, 9.42 21.675000000000004, 9.42 21.240000000000002 C 9.42 20.85, 9.375 20.880000000000003, 9.42 20.46 C 9.510000000000002 20.009999999999998, 9.465000000000002 20.04, 9.600000000000001 19.56 C 9.780000000000001 19.049999999999997, 9.795 18.99, 9.959999999999999 18.54 C 10.11 18.15, 10.14 17.999999999999996, 10.26 17.759999999999998 C 10.35 17.67, 10.274999999999999 17.685000000000002, 10.44 17.580000000000002 C 10.68 17.46, 10.605 17.4, 10.92 17.34 C 11.309999999999999 17.34, 11.295 17.25, 11.7 17.34 C 12.12 17.520000000000003, 12.209999999999999 17.490000000000002, 12.54 17.700000000000003 C 12.78 17.94, 12.765 17.895, 13.02 18.18 C 13.29 18.509999999999998, 13.259999999999998 18.375, 13.559999999999999 18.84 C 13.89 19.439999999999998, 13.905000000000001 19.215, 14.22 20.04 C 14.52 21.09, 14.58 21.12, 14.82 22.14 C 15 23.13, 15.015 23.04, 15.18 24.119999999999997 C 15.33 25.29, 15.405000000000001 25.725, 15.48 26.46 C 15.48 26.759999999999998, 15.48 26.91, 15.48 27.06 C 15.48 27.06, 15.48 27.06, 15.48 27.06 C 15.48 27.06, 15.48 27.119999999999997, 15.48 27.06 C 15.48 26.939999999999998, 15.48 27.225, 15.48 26.82 C 15.48 26.130000000000003, 15.48 26.085, 15.48 25.44 C 15.48 24.840000000000003, 15.48 24.825000000000003, 15.48 24.240000000000002 C 15.48 23.67, 15.45 23.700000000000003, 15.48 23.1 C 15.540000000000001 22.47, 15.525000000000002 22.275, 15.600000000000001 21.84 C 15.690000000000001 21.6, 15.675 21.63, 15.78 21.36 C 15.899999999999999 21.06, 15.854999999999999 21.074999999999996, 16.02 20.759999999999998 C 16.23 20.43, 16.14 20.490000000000002, 16.44 20.1 C 16.83 19.650000000000002, 16.875 19.560000000000002, 17.22 19.200000000000003 C 17.52 18.93, 17.43 18.885, 17.82 18.66 C 18.3 18.479999999999997, 18.345000000000002 18.434999999999995, 18.78 18.299999999999997 C 19.17 18.21, 19.095 18.165, 19.56 18.12 C 20.1 18.12, 20.175 18.150000000000002, 20.64 18.12 C 21.03 18.060000000000002, 21.104999999999997 18.03, 21.419999999999998 18 C 21.659999999999997 18, 21.674999999999997 18, 21.9 18 C 22.11 18, 22.17 18, 22.32 18 C 22.41 18, 22.425 18, 22.5 18 C 22.560000000000002 18, 22.44 18, 22.62 18 C 22.92 18, 22.919999999999998 18, 23.22 18 C 23.52 18, 23.595 18, 23.82 18 C 23.97 18, 24.044999999999998 18, 24.119999999999997 18 C 24.119999999999997 18, 24.074999999999996 18, 24.119999999999997 18 C 24.209999999999997 18, 24.254999999999995 18, 24.299999999999997 18 C 24.299999999999997 18, 24.299999999999997 18, 24.299999999999997 18 C 24.299999999999997 18, 24.299999999999997 18, 24.299999999999997 18 C 24.299999999999997 18, 24.299999999999997 18, 24.299999999999997 18 C 24.299999999999997 18, 24.299999999999997 18, 24.299999999999997 18 C 24.299999999999997 18, 24.299999999999997 18, 24.299999999999997 18 C 24.299999999999997 18, 24.299999999999997 18, 24.299999999999997 18 C 24.299999999999997 18, 24.299999999999997 18, 24.299999999999997 18 L 24.299999999999997 18" fill="none" stroke="black" stroke-width="2"></path><path d="M 24.54 17.82 C 24.509999999999998 17.43, 24.495 17.415, 24.48 17.04 C 24.48 16.68, 24.48 16.77, 24.48 16.32 C 24.48 15.780000000000001, 24.525000000000002 15.795, 24.48 15.24 C 24.39 14.670000000000002, 24.345 14.745000000000001, 24.299999999999997 14.100000000000001 C 24.299999999999997 13.38, 24.299999999999997 13.350000000000001, 24.299999999999997 12.66 C 24.299999999999997 12, 24.299999999999997 12.045, 24.299999999999997 11.34 C 24.299999999999997 10.59, 24.299999999999997 10.53, 24.299999999999997 9.84 C 24.299999999999997 9.21, 24.299999999999997 9.045, 24.299999999999997 8.58 C 24.299999999999997 8.280000000000001, 24.299999999999997 8.175, 24.299999999999997 7.98 C 24.299999999999997 7.890000000000001, 24.299999999999997 7.845000000000001, 24.299999999999997 7.800000000000001 L 24.299999999999997 7.800000000000001" fill="none" stroke="black" stroke-width="2"></path></svg>