<svg width="48" height="48" viewBox="0 0 48 48" xmlns="http://www.w3.org/2000/svg"><path d="M 14.82 29.04 C 15.15 29.04, 14.73 29.13, 15.48 29.04 C 16.65 28.86, 16.65 28.77, 17.82 28.68 C 18.990000000000002 28.68, 18.990000000000002 28.68, 20.16 28.68 C 21.33 28.68, 21.465 28.68, 22.5 28.68 C 23.4 28.68, 23.415 28.68, 24.299999999999997 28.68 C 25.169999999999998 28.68, 25.365 28.68, 26.04 28.68 C 26.52 28.68, 26.490000000000002 28.725, 27 28.68 C 27.54 28.59, 27.689999999999998 28.59, 28.08 28.5 C 28.32 28.41, 28.244999999999997 28.41, 28.56 28.32 C 28.949999999999996 28.23, 29.009999999999994 28.26, 29.339999999999996 28.14 C 29.61 27.99, 29.625 28.154999999999994, 29.880000000000003 27.839999999999996 C 30.12 27.36, 30.105 27.39, 30.36 26.880000000000003 C 30.630000000000003 26.34, 30.69 26.474999999999998, 30.900000000000002 25.799999999999997 C 31.050000000000004 24.99, 31.080000000000002 24.96, 31.200000000000003 24.18 C 31.290000000000003 23.43, 31.335 23.64, 31.380000000000003 22.68 C 31.380000000000003 21.509999999999998, 31.380000000000003 21.465, 31.380000000000003 20.34 C 31.380000000000003 19.259999999999998, 31.380000000000003 19.53, 31.380000000000003 18.18 C 31.380000000000003 16.560000000000002, 31.380000000000003 16.335, 31.380000000000003 14.940000000000001 C 31.380000000000003 13.770000000000001, 31.395000000000003 13.545000000000002, 31.380000000000003 12.600000000000001 C 31.35 11.88, 31.35 11.97, 31.32 11.16 C 31.29 10.26, 31.305 10.2, 31.259999999999998 9.36 C 31.2 8.58, 31.2 8.55, 31.14 7.800000000000001 C 31.08 7.08, 31.05 6.885000000000001, 31.02 6.36 C 31.02 6.029999999999999, 31.02 5.969999999999999, 31.02 5.699999999999999 C 31.02 5.49, 31.02 5.46, 31.02 5.28 C 31.02 5.13, 31.02 5.1, 31.02 4.9799999999999995 C 31.02 4.890000000000001, 31.049999999999997 4.890000000000001, 31.02 4.800000000000001 C 30.96 4.710000000000001, 30.93 4.665, 30.900000000000002 4.62 C 30.900000000000002 4.62, 30.915000000000003 4.65, 30.900000000000002 4.62 C 30.869999999999997 4.5600000000000005, 30.899999999999995 4.575, 30.839999999999996 4.5 C 30.75 4.41, 30.78 4.3950000000000005, 30.660000000000004 4.32 C 30.51 4.26, 30.630000000000003 4.2299999999999995, 30.36 4.199999999999999 C 29.97 4.199999999999999, 29.895 4.199999999999999, 29.58 4.199999999999999 C 29.339999999999996 4.199999999999999, 29.324999999999996 4.199999999999999, 29.099999999999998 4.199999999999999 C 28.89 4.199999999999999, 28.979999999999997 4.199999999999999, 28.68 4.199999999999999 C 28.29 4.199999999999999, 28.335 4.199999999999999, 27.900000000000002 4.199999999999999 C 27.42 4.199999999999999, 27.360000000000003 4.199999999999999, 26.94 4.199999999999999 C 26.58 4.199999999999999, 26.595 4.184999999999999, 26.22 4.199999999999999 C 25.83 4.2299999999999995, 25.8 4.244999999999999, 25.44 4.26 C 25.11 4.26, 25.065 4.215, 24.78 4.26 C 24.54 4.35, 24.419999999999998 4.395, 24.299999999999997 4.4399999999999995 C 24.299999999999997 4.4399999999999995, 24.299999999999997 4.4399999999999995, 24.299999999999997 4.4399999999999995 L 24.299999999999997 4.4399999999999995" fill="none" stroke="black" stroke-width="2"></path><path d="M 23.34 33.72 C 22.68 33.72, 22.65 33.585, 22.02 33.72 C 21.42 33.989999999999995, 21.555 33.705, 20.82 34.26 C 19.950000000000003 35.099999999999994, 19.770000000000003 35.16, 19.080000000000002 35.94 C 18.57 36.66, 18.375 36.69, 18.06 37.38 C 17.939999999999998 38.040000000000006, 17.925 37.755, 17.82 38.7 C 17.73 39.93000000000001, 17.685000000000002 40.215, 17.64 41.160000000000004 C 17.64 41.82000000000001, 17.475 41.82000000000001, 17.64 42.480000000000004 C 17.97 43.14, 17.879999999999995 43.26, 18.299999999999997 43.8 C 18.81 44.22, 18.75 44.37, 19.32 44.64 C 19.950000000000003 44.760000000000005, 19.950000000000003 44.82, 20.580000000000002 44.88 C 21.21 44.88, 21.15 44.970000000000006, 21.84 44.88 C 22.59 44.7, 22.62 44.79, 23.34 44.519999999999996 C 24.03 44.16, 23.849999999999998 44.355, 24.72 43.8 C 25.77 43.05, 25.875 43.154999999999994, 26.82 42.3 C 27.66 41.34, 27.93 41.385000000000005, 28.5 40.38 C 28.799999999999997 39.33, 28.95 39.225, 29.099999999999998 38.28 C 29.099999999999998 37.44, 29.129999999999995 37.31999999999999, 29.099999999999998 36.599999999999994 C 29.04 36, 29.28 35.970000000000006, 28.98 35.400000000000006 C 28.44 34.86, 28.485000000000003 34.71, 27.900000000000002 34.32 C 27.270000000000003 34.08, 27.195 34.004999999999995, 26.64 33.839999999999996 C 26.16 33.75, 26.325 33.75, 25.68 33.660000000000004 C 24.869999999999997 33.57000000000001, 24.72 33.525000000000006, 24.06 33.480000000000004 C 23.549999999999997 33.480000000000004, 23.49 33.465, 23.04 33.480000000000004 C 22.65 33.510000000000005, 22.455 33.525, 22.259999999999998 33.54 L 22.259999999999998 33.54" fill="none" stroke="black" stroke-width="2"></path><path d="M 18.6 39.12 C 20.43 39.12, 20.669999999999998 39.12, 22.259999999999998 39.12 C 23.61 39.12, 23.94 39.12, 24.96 39.12 C 25.65 39.12, 25.799999999999997 39.12, 26.339999999999996 39.12 C 26.729999999999997 39.12, 26.729999999999997 39.12, 27.119999999999997 39.12 C 27.509999999999998 39.12, 27.660000000000004 39.12, 27.900000000000002 39.12 C 27.990000000000002 39.12, 28.035 39.12, 28.08 39.12 L 28.08 39.12" fill="none" stroke="black" stroke-width="2"></path></svg>