<svg width="48" height="48" viewBox="0 0 48 48" xmlns="http://www.w3.org/2000/svg"><path d="M 12.600000000000001 3.24 C 12.600000000000001 4.5600000000000005, 12.540000000000003 4.26, 12.600000000000001 5.88 C 12.72 7.800000000000001, 12.780000000000001 7.9350000000000005, 12.84 9.72 C 12.84 11.370000000000001, 12.719999999999999 11.399999999999999, 12.84 13.02 C 13.08 14.610000000000001, 13.035 14.670000000000002, 13.32 16.200000000000003 C 13.65 17.67, 13.71 18.12, 13.98 19.14 C 14.19 19.71, 14.264999999999999 19.935000000000002, 14.399999999999999 20.28 C 14.459999999999999 20.4, 14.265 20.295, 14.52 20.52 C 14.969999999999999 20.85, 14.939999999999998 20.85, 15.419999999999998 21.18 C 15.93 21.509999999999998, 15.96 21.675, 16.44 21.84 C 16.89 21.84, 16.62 21.84, 17.34 21.84 C 18.33 21.84, 18.345 21.855, 19.32 21.84 C 20.28 21.810000000000002, 20.25 21.855, 21.240000000000002 21.78 C 22.26 21.66, 22.455000000000002 21.63, 23.28 21.54 C 23.91 21.479999999999997, 24.03 21.45, 24.54 21.419999999999998 C 24.93 21.419999999999998, 24.855 21.419999999999998, 25.32 21.419999999999998 C 25.86 21.419999999999998, 25.980000000000004 21.45, 26.400000000000002 21.419999999999998 C 26.700000000000003 21.36, 26.655 21.374999999999996, 27 21.299999999999997 C 27.39 21.21, 27.42 21.21, 27.78 21.12 C 28.11 21.03, 28.200000000000003 20.985, 28.44 20.94 C 28.590000000000003 20.94, 28.62 20.955000000000002, 28.740000000000002 20.94 C 28.830000000000002 20.91, 28.800000000000004 20.939999999999998, 28.92 20.88 C 29.07 20.79, 29.099999999999998 20.76, 29.22 20.700000000000003 C 29.310000000000002 20.67, 29.310000000000002 20.685000000000002, 29.400000000000002 20.64 C 29.490000000000002 20.58, 29.43 20.685, 29.58 20.52 C 29.79 20.25, 29.895 20.235, 30 19.98 C 30 19.740000000000002, 30 19.845, 30 19.5 C 30 19.05, 30 19.065, 30 18.6 C 30 18.12, 30.015 18.18, 30 17.64 C 29.97 17.04, 29.955000000000002 16.86, 29.94 16.44 C 29.94 16.200000000000003, 29.985000000000003 16.23, 29.94 15.96 C 29.85 15.66, 29.805 15.555, 29.759999999999998 15.36 C 29.759999999999998 15.27, 29.79 15.344999999999999, 29.759999999999998 15.18 C 29.7 14.940000000000001, 29.67 14.865000000000002, 29.64 14.700000000000001 C 29.64 14.61, 29.64 14.565, 29.64 14.52 C 29.64 14.52, 29.64 14.52, 29.64 14.52 L 29.64 14.52" fill="none" stroke="black" stroke-width="2"></path><path d="M 21.9 21.54 C 21.9 21.93, 21.839999999999996 21.735, 21.9 22.32 C 22.02 23.1, 22.064999999999998 22.935, 22.14 23.88 C 22.17 24.99, 22.185000000000002 25.199999999999996, 22.200000000000003 26.099999999999998 C 22.200000000000003 26.79, 22.200000000000003 26.7, 22.200000000000003 27.48 C 22.200000000000003 28.35, 22.200000000000003 28.365, 22.200000000000003 29.22 C 22.200000000000003 30.060000000000002, 22.215000000000003 30.075000000000003, 22.200000000000003 30.900000000000002 C 22.17 31.71, 22.275000000000002 31.604999999999997, 22.14 32.519999999999996 C 21.9 33.54, 21.96 33.57, 21.66 34.56 C 21.3 35.52, 21.375 35.43000000000001, 20.94 36.480000000000004 C 20.43 37.620000000000005, 20.4 37.785, 19.919999999999998 38.76 C 19.47 39.57, 19.5 39.705, 19.02 40.38 C 18.509999999999998 40.92, 18.509999999999998 40.92, 18 41.46 C 17.490000000000002 42, 17.325 42.195, 16.98 42.54 C 16.8 42.69, 16.71 42.765, 16.62 42.839999999999996 C 16.62 42.839999999999996, 16.62 42.839999999999996, 16.62 42.839999999999996 L 16.62 42.839999999999996" fill="none" stroke="black" stroke-width="2"></path><path d="M 21.12 36.839999999999996 C 21.810000000000002 36.92999999999999, 21.48 36.974999999999994, 22.5 37.019999999999996 C 23.85 37.019999999999996, 24.075000000000003 37.019999999999996, 25.200000000000003 37.019999999999996 C 26.1 37.019999999999996, 25.965000000000003 37.019999999999996, 27 37.019999999999996 C 28.169999999999998 37.019999999999996, 28.275 37.019999999999996, 29.339999999999996 37.019999999999996 C 30.299999999999997 37.019999999999996, 30.705 37.019999999999996, 31.259999999999998 37.019999999999996 C 31.409999999999997 37.019999999999996, 31.485 37.019999999999996, 31.56 37.019999999999996 L 31.56 37.019999999999996" fill="none" stroke="black" stroke-width="2"></path></svg>