<svg width="48" height="48" viewBox="0 0 48 48" xmlns="http://www.w3.org/2000/svg"><path d="M 13.14 27.54 C 12.93 26.97, 12.930000000000001 27.03, 12.72 26.400000000000002 C 12.51 25.71, 12.419999999999998 25.785, 12.299999999999999 25.02 C 12.27 24.18, 12.3 24, 12.24 23.34 C 12.149999999999999 22.86, 12.104999999999999 22.935, 12.059999999999999 22.38 C 12.059999999999999 21.75, 12.059999999999999 21.78, 12.059999999999999 21.12 C 12.059999999999999 20.43, 12.059999999999999 20.28, 12.059999999999999 19.740000000000002 C 12.059999999999999 19.35, 11.999999999999998 19.32, 12.059999999999999 18.96 C 12.18 18.63, 12.09 18.674999999999997, 12.299999999999999 18.299999999999997 C 12.599999999999998 17.88, 12.434999999999999 17.895, 12.899999999999999 17.46 C 13.53 17.009999999999998, 13.605 16.904999999999998, 14.16 16.56 C 14.64 16.32, 14.595000000000002 16.245, 15.120000000000001 16.080000000000002 C 15.69 15.99, 15.584999999999997 15.945, 16.259999999999998 15.899999999999999 C 17.04 15.899999999999999, 16.995 15.915, 17.82 15.899999999999999 C 18.689999999999998 15.87, 18.735 15.885, 19.56 15.84 C 20.34 15.780000000000001, 20.310000000000002 15.780000000000001, 21.12 15.72 C 21.96 15.66, 22.005 15.63, 22.799999999999997 15.600000000000001 C 23.549999999999997 15.600000000000001, 23.609999999999996 15.600000000000001, 24.299999999999997 15.600000000000001 C 24.93 15.600000000000001, 25.064999999999998 15.600000000000001, 25.56 15.600000000000001 C 25.92 15.600000000000001, 25.785 15.600000000000001, 26.28 15.600000000000001 C 26.91 15.600000000000001, 27.075 15.600000000000001, 27.54 15.600000000000001 C 27.84 15.600000000000001, 27.72 15.600000000000001, 28.14 15.600000000000001 C 28.68 15.600000000000001, 28.83 15.600000000000001, 29.22 15.600000000000001 C 29.46 15.600000000000001, 29.430000000000003 15.600000000000001, 29.700000000000003 15.600000000000001 C 30 15.600000000000001, 30.075 15.645000000000003, 30.299999999999997 15.600000000000001 C 30.449999999999996 15.51, 30.389999999999997 15.584999999999997, 30.599999999999998 15.419999999999998 C 30.869999999999997 15.18, 30.945 15.18, 31.14 14.940000000000001 C 31.26 14.700000000000001, 31.32 14.700000000000001, 31.380000000000003 14.46 C 31.380000000000003 14.22, 31.380000000000003 14.34, 31.380000000000003 13.98 C 31.380000000000003 13.5, 31.440000000000005 13.725, 31.380000000000003 13.02 C 31.26 12.09, 31.245 12.09, 31.14 11.16 C 31.05 10.23, 31.08 10.185, 30.96 9.3 C 30.810000000000002 8.46, 30.780000000000005 8.43, 30.660000000000004 7.62 C 30.57 6.84, 30.57 6.66, 30.48 6.0600000000000005 C 30.39 5.640000000000001, 30.345 5.43, 30.299999999999997 5.22 C 30.299999999999997 5.22, 30.299999999999997 5.22, 30.299999999999997 5.22 L 30.299999999999997 5.22" fill="none" stroke="black" stroke-width="2"></path><path d="M 23.28 15.66 C 23.28 16.47, 23.235 16.245, 23.28 17.28 C 23.37 18.54, 23.310000000000002 18.525, 23.46 19.799999999999997 C 23.67 21.089999999999996, 23.775 21.119999999999997, 23.88 22.38 C 23.88 23.61, 23.88 23.654999999999998, 23.88 24.839999999999996 C 23.88 25.979999999999997, 23.895 25.949999999999996, 23.88 27.119999999999997 C 23.85 28.32, 23.955 28.47, 23.82 29.52 C 23.58 30.42, 23.61 30.3, 23.34 31.32 C 23.04 32.459999999999994, 23.025000000000002 32.60999999999999, 22.740000000000002 33.599999999999994 C 22.470000000000002 34.44, 22.545 34.394999999999996, 22.200000000000003 35.28 C 21.78 36.21, 21.735 36.375, 21.36 37.14 C 21.03 37.739999999999995, 21.315000000000005 37.485, 20.700000000000003 38.339999999999996 C 19.8 39.45, 19.785 39.57, 18.9 40.56 C 18.03 41.43, 17.865 41.64, 17.16 42.3 C 16.62 42.75, 16.44 42.885000000000005, 16.080000000000002 43.2 C 15.900000000000002 43.38, 15.81 43.47, 15.72 43.56 C 15.72 43.56, 15.72 43.56, 15.72 43.56 L 15.72 43.56" fill="none" stroke="black" stroke-width="2"></path></svg>