<svg width="48" height="48" viewBox="0 0 48 48" xmlns="http://www.w3.org/2000/svg"><path d="M 15.120000000000001 29.52 C 15.780000000000001 29.52, 15.66 29.565, 16.44 29.52 C 17.340000000000003 29.43, 17.205000000000002 29.384999999999998, 18.240000000000002 29.339999999999996 C 19.410000000000004 29.339999999999996, 19.335 29.429999999999996, 20.580000000000002 29.339999999999996 C 21.9 29.159999999999997, 22.125 29.07, 23.22 28.98 C 24.09 28.98, 24.240000000000002 28.98, 24.96 28.98 C 25.53 28.98, 25.619999999999997 28.98, 26.099999999999998 28.98 C 26.490000000000002 28.98, 26.46 29.025000000000002, 26.880000000000003 28.98 C 27.330000000000002 28.89, 27.345000000000002 28.889999999999997, 27.78 28.799999999999997 C 28.2 28.709999999999997, 28.334999999999997 28.694999999999997, 28.619999999999997 28.619999999999997 C 28.77 28.56, 28.695 28.71, 28.92 28.5 C 29.22 28.14, 29.22 28.275000000000002, 29.52 27.78 C 29.82 27.15, 29.955 27.285, 30.119999999999997 26.52 C 30.15 25.619999999999997, 30.165 25.785, 30.18 24.72 C 30.18 23.49, 30.18 23.264999999999997, 30.18 22.259999999999998 C 30.18 21.48, 30.18 21.705000000000002, 30.18 20.700000000000003 C 30.18 19.470000000000002, 30.18 19.755000000000003, 30.18 18.240000000000002 C 30.18 16.44, 30.18 16.11, 30.18 14.64 C 30.18 13.5, 30.18 13.334999999999999, 30.18 12.36 C 30.18 11.55, 30.225 11.685, 30.18 10.74 C 30.09 9.66, 30.045 9.42, 30 8.58 C 30 7.98, 30 7.92, 30 7.38 C 30 6.9, 30 6.81, 30 6.42 C 30 6.12, 30 6.075, 30 5.82 C 30 5.61, 30.03 5.595000000000001, 30 5.4 C 29.94 5.220000000000001, 29.925000000000004 5.16, 29.880000000000003 5.04 C 29.85 4.98, 29.85 5.04, 29.82 4.92 C 29.79 4.74, 29.805 4.680000000000001, 29.759999999999998 4.5600000000000005 C 29.7 4.5, 29.715 4.5, 29.64 4.4399999999999995 C 29.55 4.38, 29.535000000000004 4.35, 29.46 4.32 C 29.4 4.32, 29.414999999999996 4.32, 29.339999999999996 4.32 C 29.25 4.32, 29.310000000000002 4.305000000000001, 29.160000000000004 4.32 C 28.950000000000003 4.35, 28.92 4.365, 28.740000000000002 4.38 C 28.590000000000003 4.38, 28.62 4.38, 28.44 4.38 C 28.23 4.38, 28.29 4.365, 28.02 4.38 C 27.689999999999998 4.41, 27.794999999999998 4.379999999999999, 27.36 4.4399999999999995 C 26.82 4.529999999999999, 26.745 4.5600000000000005, 26.28 4.62 C 25.89 4.65, 25.89 4.619999999999999, 25.5 4.68 C 25.11 4.77, 25.08 4.815, 24.72 4.86 C 24.39 4.86, 24.299999999999997 4.86, 24.06 4.86 C 23.909999999999997 4.86, 23.834999999999997 4.86, 23.759999999999998 4.86 C 23.759999999999998 4.86, 23.759999999999998 4.86, 23.759999999999998 4.86 C 23.759999999999998 4.86, 23.759999999999998 4.86, 23.759999999999998 4.86 C 23.759999999999998 4.86, 23.759999999999998 4.86, 23.759999999999998 4.86 L 23.759999999999998 4.86" fill="none" stroke="black" stroke-width="2"></path><path d="M 20.64 35.7 C 20.16 36.480000000000004, 19.965 36.57, 19.68 37.26 C 19.59 37.86, 19.29 37.92, 19.5 38.46 C 20.009999999999998 38.94, 19.95 39.105000000000004, 20.52 39.42 C 21.15 39.57, 21.270000000000003 39.81, 21.78 39.72 C 22.17 39.39, 22.259999999999998 39.495000000000005, 22.56 39.06 C 22.77 38.52, 22.89 38.7, 22.98 37.980000000000004 C 22.95 37.08, 23.099999999999998 36.93, 22.919999999999998 36.18 C 22.589999999999996 35.58, 22.724999999999998 35.34, 22.259999999999998 34.980000000000004 C 21.659999999999997 34.86, 21.494999999999997 34.725, 21.06 34.74 C 20.79 34.89, 20.64 34.725, 20.52 35.04 C 20.55 35.519999999999996, 20.415000000000003 35.535, 20.580000000000002 36 C 20.880000000000003 36.45, 20.79 36.57000000000001, 21.18 36.900000000000006 C 21.66 37.11, 21.735 37.260000000000005, 22.14 37.32 C 22.47 37.230000000000004, 22.559999999999995 37.47, 22.799999999999997 37.14 C 22.95 36.57, 23.235 36.375, 23.1 36 C 22.68 35.82, 22.665 35.730000000000004, 22.259999999999998 35.64 C 21.869999999999997 35.64, 21.75 35.445, 21.48 35.64 C 21.33 36.03, 21.285 35.97, 21.18 36.42 C 21.119999999999997 36.93, 21.09 36.915, 21.06 37.44 C 21.06 37.98, 20.939999999999998 38.144999999999996, 21.06 38.519999999999996 C 21.299999999999997 38.73, 21.27 38.834999999999994, 21.54 38.94 C 21.84 38.94, 21.855 39.254999999999995, 22.14 38.94 C 22.41 38.31, 22.515 38.25, 22.68 37.68 C 22.74 37.17, 23.025 36.96, 22.799999999999997 36.660000000000004 C 22.29 36.57000000000001, 22.335 36.525000000000006, 21.78 36.480000000000004 C 21.18 36.480000000000004, 20.925000000000004 36.435, 20.580000000000002 36.480000000000004 L 20.4 36.660000000000004" fill="none" stroke="black" stroke-width="2"></path><path d="M 17.34 45 C 19.020000000000003 44.67, 19.290000000000003 44.504999999999995, 20.700000000000003 44.339999999999996 C 21.840000000000003 44.339999999999996, 21.96 44.38499999999999, 22.98 44.339999999999996 C 23.880000000000003 44.25, 23.955000000000002 44.205, 24.78 44.160000000000004 C 25.53 44.160000000000004, 25.5 44.160000000000004, 26.28 44.160000000000004 C 27.090000000000003 44.160000000000004, 27.345000000000002 44.160000000000004, 27.900000000000002 44.160000000000004 C 28.200000000000003 44.160000000000004, 28.32 44.160000000000004, 28.5 44.160000000000004 L 28.619999999999997 44.160000000000004" fill="none" stroke="black" stroke-width="2"></path></svg>