<svg width="48" height="48" viewBox="0 0 48 48" xmlns="http://www.w3.org/2000/svg"><path d="M 10.86 35.76 C 11.25 35.67, 10.89 35.714999999999996, 11.64 35.58 C 12.75 35.4, 12.945 35.22, 13.86 35.22 C 14.579999999999998 35.4, 14.639999999999999 35.235, 15.299999999999999 35.58 C 15.899999999999999 36.089999999999996, 15.975 36.10499999999999, 16.5 36.599999999999994 C 16.95 37.08, 17.115 37.05, 17.4 37.56 C 17.52 38.1, 17.58 38.010000000000005, 17.64 38.64 C 17.64 39.36, 17.985 39.254999999999995, 17.64 40.08 C 16.95 41.01, 16.814999999999998 41.235, 16.259999999999998 41.94 C 15.839999999999998 42.42, 15.869999999999997 42.525000000000006, 15.419999999999998 42.900000000000006 C 14.94 43.17, 15.015 43.305, 14.46 43.44 C 13.830000000000002 43.44, 13.740000000000002 43.44, 13.200000000000001 43.44 C 12.75 43.44, 12.645 43.485, 12.299999999999999 43.44 C 12.059999999999999 43.349999999999994, 12.075 43.379999999999995, 11.82 43.26 C 11.55 43.11, 11.489999999999998 43.2, 11.28 42.96 C 11.129999999999999 42.629999999999995, 11.115 42.675, 10.98 42.3 C 10.86 41.879999999999995, 10.8 41.94, 10.74 41.46 C 10.74 40.92, 10.74 40.980000000000004, 10.74 40.38 C 10.74 39.72, 10.77 39.690000000000005, 10.74 39.06 C 10.68 38.46, 10.71 38.475, 10.620000000000001 37.86 C 10.5 37.23, 10.44 37.44, 10.379999999999999 36.599999999999994 C 10.379999999999999 35.55, 10.424999999999999 35.76, 10.379999999999999 34.5 C 10.29 33.03, 10.245 32.985, 10.2 31.56 C 10.2 30.18, 10.2 30.344999999999995, 10.2 28.799999999999997 C 10.2 27.09, 10.2 26.64, 10.2 25.380000000000003 C 10.2 24.57, 10.2 24.599999999999998, 10.2 23.759999999999998 C 10.2 22.89, 10.2 22.77, 10.2 22.02 C 10.2 21.39, 10.094999999999999 21.389999999999997, 10.2 20.759999999999998 C 10.41 20.13, 10.365 20.07, 10.620000000000001 19.5 C 10.920000000000002 18.990000000000002, 10.860000000000001 18.975, 11.22 18.48 C 11.64 18, 11.639999999999999 17.955, 12.059999999999999 17.52 C 12.479999999999999 17.130000000000003, 12.45 17.025000000000002, 12.899999999999999 16.740000000000002 C 13.379999999999999 16.560000000000002, 13.349999999999998 16.47, 13.86 16.38 C 14.4 16.38, 14.310000000000002 16.38, 14.940000000000001 16.38 C 15.66 16.38, 15.45 16.38, 16.38 16.38 C 17.52 16.38, 17.490000000000002 16.38, 18.66 16.38 C 19.86 16.38, 20.025 16.38, 21.06 16.38 C 21.93 16.38, 22.08 16.38, 22.799999999999997 16.38 C 23.369999999999997 16.38, 23.295 16.365, 23.94 16.38 C 24.660000000000004 16.41, 24.915000000000003 16.425, 25.380000000000003 16.44 C 25.59 16.44, 25.619999999999997 16.44, 25.799999999999997 16.44 C 25.949999999999996 16.44, 26.025 16.44, 26.099999999999998 16.44 L 26.099999999999998 16.44" fill="none" stroke="black" stroke-width="2"></path><path d="M 25.5 5.64 C 25.5 6.6, 25.5 6.495000000000001, 25.5 7.5600000000000005 C 25.5 8.73, 25.485 8.819999999999999, 25.5 9.899999999999999 C 25.53 10.889999999999999, 25.544999999999998 10.724999999999998, 25.56 11.879999999999999 C 25.56 13.2, 25.56 13.02, 25.56 14.52 C 25.56 16.2, 25.56 15.959999999999997, 25.56 17.88 C 25.56 20.04, 25.56 20.535000000000004, 25.56 22.200000000000003 C 25.56 23.37, 25.514999999999997 23.04, 25.56 24.54 C 25.65 26.37, 25.695 26.025000000000002, 25.740000000000002 28.200000000000003 C 25.740000000000002 30.720000000000002, 25.740000000000002 30.480000000000004, 25.740000000000002 33.24 C 25.740000000000002 36.24, 25.740000000000002 36.765, 25.740000000000002 39.24 C 25.740000000000002 41.19, 25.740000000000002 41.49, 25.740000000000002 43.14 C 25.740000000000002 44.489999999999995, 25.740000000000002 45.044999999999995, 25.740000000000002 45.839999999999996 C 25.740000000000002 46.08, 25.740000000000002 46.2, 25.740000000000002 46.32 C 25.740000000000002 46.32, 25.740000000000002 46.305, 25.740000000000002 46.32 L 25.740000000000002 46.38" fill="none" stroke="black" stroke-width="2"></path></svg>