<svg width="48" height="48" viewBox="0 0 48 48" xmlns="http://www.w3.org/2000/svg"><path d="M 13.98 27.96 C 14.55 27.96, 14.610000000000001 27.96, 15.120000000000001 27.96 C 15.57 27.96, 15.524999999999999 27.96, 16.02 27.96 C 16.560000000000002 27.96, 16.71 27.96, 17.1 27.96 C 17.340000000000003 27.96, 17.310000000000002 27.96, 17.580000000000002 27.96 C 17.880000000000003 27.96, 17.76 28.005000000000003, 18.18 27.96 C 18.72 27.87, 18.674999999999997 28.020000000000003, 19.259999999999998 27.78 C 19.89 27.39, 19.905 27.42, 20.52 27 C 21.119999999999997 26.549999999999997, 21.27 26.58, 21.72 26.099999999999998 C 22.02 25.589999999999996, 22.05 25.74, 22.32 25.08 C 22.56 24.27, 22.68 24.21, 22.799999999999997 23.46 C 22.799999999999997 22.770000000000003, 22.799999999999997 22.575000000000003, 22.799999999999997 22.080000000000002 C 22.799999999999997 21.78, 22.799999999999997 21.630000000000003, 22.799999999999997 21.48 C 22.799999999999997 21.48, 22.799999999999997 21.48, 22.799999999999997 21.48 C 22.799999999999997 21.48, 22.769999999999996 21.465, 22.799999999999997 21.48 C 22.86 21.509999999999998, 22.845 21.255, 22.919999999999998 21.54 C 23.009999999999998 22.08, 23.01 22.11, 23.1 22.62 C 23.19 23.1, 23.175 23.025000000000002, 23.28 23.580000000000002 C 23.4 24.21, 23.355 24.239999999999995, 23.52 24.839999999999996 C 23.73 25.409999999999997, 23.715 25.515, 23.94 25.98 C 24.18 26.340000000000003, 24.12 26.430000000000003, 24.42 26.700000000000003 C 24.78 26.880000000000003, 24.78 26.895, 25.14 27.06 C 25.5 27.21, 25.560000000000002 27.27, 25.86 27.36 C 26.099999999999998 27.39, 26.069999999999997 27.435000000000002, 26.339999999999996 27.42 C 26.64 27.36, 26.61 27.479999999999997, 26.94 27.299999999999997 C 27.300000000000004 27, 27.315000000000005 27.015, 27.660000000000004 26.700000000000003 C 27.990000000000002 26.37, 28.005000000000003 26.415, 28.32 26.04 C 28.62 25.62, 28.71 25.680000000000003, 28.92 25.200000000000003 C 29.040000000000003 24.66, 29.040000000000003 24.869999999999997, 29.160000000000004 24.119999999999997 C 29.28 23.16, 29.310000000000002 23.07, 29.400000000000002 22.200000000000003 C 29.46 21.42, 29.445 21.735, 29.52 20.64 C 29.61 19.23, 29.655 19.23, 29.700000000000003 17.82 C 29.700000000000003 16.41, 29.700000000000003 16.14, 29.700000000000003 15 C 29.700000000000003 14.129999999999999, 29.700000000000003 14.309999999999999, 29.700000000000003 13.26 C 29.700000000000003 12.030000000000001, 29.700000000000003 11.835, 29.700000000000003 10.8 C 29.700000000000003 9.96, 29.700000000000003 10.110000000000001, 29.700000000000003 9.120000000000001 C 29.700000000000003 7.98, 29.700000000000003 7.65, 29.700000000000003 6.84 C 29.700000000000003 6.359999999999999, 29.700000000000003 6.195, 29.700000000000003 5.88 C 29.700000000000003 5.73, 29.730000000000004 5.775, 29.700000000000003 5.58 C 29.64 5.34, 29.625 5.25, 29.58 5.1 C 29.549999999999997 5.039999999999999, 29.58 5.039999999999999, 29.52 4.9799999999999995 C 29.43 4.92, 29.429999999999996 4.890000000000001, 29.339999999999996 4.86 C 29.25 4.86, 29.235000000000003 4.86, 29.160000000000004 4.86 C 29.1 4.86, 29.265 4.86, 29.04 4.86 C 28.65 4.86, 28.755 4.86, 28.259999999999998 4.86 C 27.659999999999997 4.86, 27.705 4.86, 27.06 4.86 C 26.369999999999997 4.86, 26.295 4.86, 25.68 4.86 C 25.14 4.86, 25.034999999999997 4.845000000000001, 24.599999999999998 4.86 C 24.27 4.890000000000001, 24.135 4.905, 23.94 4.92 C 23.880000000000003 4.92, 24.045 4.92, 23.82 4.92 C 23.43 4.92, 23.235 4.92, 23.04 4.92 C 23.04 4.92, 23.04 4.92, 23.04 4.92 C 23.04 4.92, 23.04 4.92, 23.04 4.92 L 23.04 4.92" fill="none" stroke="black" stroke-width="2"></path><path d="M 22.38 25.32 C 22.38 25.71, 22.38 25.68, 22.38 26.099999999999998 C 22.38 26.549999999999997, 22.38 26.445, 22.38 27 C 22.38 27.66, 22.424999999999997 27.525, 22.38 28.32 C 22.29 29.25, 22.335 29.475, 22.200000000000003 30.18 C 22.020000000000003 30.66, 22.125 30.42, 21.84 31.14 C 21.45 32.1, 21.435 32.22, 21.06 33.06 C 20.7 33.78, 20.625 33.885000000000005, 20.34 34.5 C 20.13 35.01, 20.144999999999996 35.02499999999999, 19.919999999999998 35.519999999999996 C 19.68 36, 19.725 35.910000000000004, 19.44 36.480000000000004 C 19.11 37.14, 19.17 37.185, 18.78 37.8 C 18.33 38.37, 18.405 38.309999999999995, 17.88 38.94 C 17.28 39.629999999999995, 17.369999999999997 39.57, 16.68 40.32 C 15.9 41.129999999999995, 15.795000000000002 41.294999999999995, 15.120000000000001 41.94 C 14.55 42.42, 14.46 42.540000000000006, 13.98 42.900000000000006 C 13.59 43.14, 13.605 43.155, 13.200000000000001 43.38 C 12.780000000000001 43.59, 12.57 43.695, 12.36 43.8 L 12.36 43.8" fill="none" stroke="black" stroke-width="2"></path><path d="M 19.919999999999998 37.019999999999996 C 20.25 38.01, 20.235000000000003 38.205, 20.580000000000002 39 C 20.939999999999998 39.6, 20.894999999999996 39.645, 21.299999999999997 40.2 C 21.75 40.71, 21.585 40.65, 22.200000000000003 41.22 C 22.98 41.85, 23.115 41.955000000000005, 23.759999999999998 42.480000000000004 C 24.27 42.900000000000006, 24.270000000000003 42.99, 24.78 43.32 C 25.29 43.56, 25.139999999999997 43.559999999999995, 25.799999999999997 43.8 C 26.61 44.04, 26.775 44.16, 27.42 44.28 C 27.900000000000002 44.28, 28.14 44.28, 28.380000000000003 44.28 C 28.380000000000003 44.28, 28.380000000000003 44.28, 28.380000000000003 44.28 L 28.380000000000003 44.28" fill="none" stroke="black" stroke-width="2"></path></svg>