<svg width="48" height="48" viewBox="0 0 48 48" xmlns="http://www.w3.org/2000/svg"><path d="M 15.54 32.160000000000004 C 15.54 32.7, 15.524999999999999 32.655, 15.54 33.24 C 15.57 33.870000000000005, 15.510000000000002 33.765, 15.600000000000001 34.5 C 15.75 35.34, 15.779999999999998 35.31, 15.899999999999999 36.18 C 15.99 37.08, 16.035 37.290000000000006, 16.080000000000002 37.980000000000004 C 16.080000000000002 38.46, 16.17 38.385, 16.080000000000002 38.94 C 15.900000000000002 39.57, 16.065 39.540000000000006, 15.72 40.2 C 15.21 40.89, 15.120000000000001 41.07, 14.700000000000001 41.58 C 14.370000000000001 41.91, 14.37 42, 14.04 42.24 C 13.709999999999999 42.39, 13.665 42.435, 13.379999999999999 42.54 C 13.139999999999999 42.6, 13.29 42.63, 12.899999999999999 42.660000000000004 C 12.36 42.660000000000004, 12.165 42.660000000000004, 11.82 42.660000000000004 C 11.67 42.660000000000004, 11.865 42.93000000000001, 11.52 42.660000000000004 C 10.98 42.120000000000005, 11.01 42.375, 10.44 41.58 C 9.84 40.53, 9.735 40.56, 9.24 39.480000000000004 C 8.85 38.370000000000005, 8.834999999999999 38.535, 8.459999999999999 37.26 C 8.1 35.82, 7.995 35.985, 7.74 34.38 C 7.59 32.61, 7.574999999999999 32.489999999999995, 7.4399999999999995 30.839999999999996 C 7.319999999999999 29.31, 7.2749999999999995 29.61, 7.199999999999999 27.78 C 7.17 25.65, 7.154999999999999 25.395, 7.14 23.52 C 7.14 21.9, 7.14 21.450000000000003, 7.14 20.28 C 7.14 19.560000000000002, 7.14 19.560000000000002, 7.14 18.84 C 7.14 18.119999999999997, 7.0649999999999995 18.089999999999996, 7.14 17.4 C 7.289999999999999 16.740000000000002, 7.2299999999999995 16.740000000000002, 7.4399999999999995 16.080000000000002 C 7.71 15.420000000000002, 7.7700000000000005 15.285, 7.98 14.76 C 8.129999999999999 14.370000000000001, 8.16 14.295, 8.28 13.98 C 8.37 13.74, 8.415 13.620000000000001, 8.459999999999999 13.5 C 8.459999999999999 13.5, 8.444999999999999 13.545, 8.459999999999999 13.5 C 8.489999999999998 13.41, 8.354999999999999 13.47, 8.52 13.32 C 8.82 13.11, 8.82 13.034999999999998, 9.120000000000001 12.899999999999999 C 9.420000000000002 12.84, 9.420000000000002 12.809999999999999, 9.72 12.78 C 10.02 12.78, 10.05 12.78, 10.32 12.78 C 10.56 12.78, 10.515 12.66, 10.8 12.78 C 11.129999999999999 13.02, 11.204999999999998 13.049999999999999, 11.459999999999999 13.26 C 11.64 13.440000000000001, 11.58 13.365000000000002, 11.82 13.620000000000001 C 12.12 13.95, 11.999999999999998 13.665, 12.419999999999998 14.28 C 12.959999999999999 15.18, 13.065 15.240000000000002, 13.5 16.080000000000002 C 13.83 16.86, 13.89 16.770000000000003, 14.16 17.64 C 14.370000000000001 18.6, 14.385000000000002 18.81, 14.580000000000002 19.56 C 14.760000000000002 20.1, 14.805000000000001 20.13, 14.940000000000001 20.64 C 15.030000000000001 21.12, 15.075000000000001 21.285000000000004, 15.120000000000001 21.6 C 15.120000000000001 21.75, 15.120000000000001 21.825, 15.120000000000001 21.9 C 15.120000000000001 21.9, 15.090000000000002 21.9, 15.120000000000001 21.9 C 15.18 21.9, 15.21 22.185, 15.24 21.9 C 15.24 21.33, 15.24 21.299999999999997, 15.24 20.759999999999998 C 15.24 20.25, 15.195 20.37, 15.24 19.740000000000002 C 15.329999999999998 18.990000000000002, 15.344999999999999 18.840000000000003, 15.419999999999998 18.240000000000002 C 15.479999999999999 17.79, 15.464999999999998 17.775, 15.54 17.34 C 15.629999999999999 16.92, 15.600000000000001 16.905, 15.72 16.5 C 15.870000000000001 16.11, 15.84 16.155, 16.02 15.72 C 16.23 15.24, 16.245 15.135, 16.44 14.76 C 16.619999999999997 14.49, 16.65 14.475000000000001, 16.799999999999997 14.22 C 16.919999999999998 13.98, 16.814999999999998 14.01, 17.04 13.74 C 17.37 13.440000000000001, 17.370000000000005 13.365, 17.700000000000003 13.14 C 18.03 12.99, 17.925 12.915, 18.36 12.84 C 18.9 12.84, 18.93 12.885, 19.44 12.84 C 19.92 12.75, 20.009999999999998 12.705, 20.4 12.66 C 20.7 12.66, 20.655 12.66, 21 12.66 C 21.39 12.66, 21.39 12.705, 21.78 12.66 C 22.17 12.57, 22.169999999999998 12.525, 22.56 12.48 C 22.95 12.48, 22.994999999999997 12.48, 23.34 12.48 C 23.64 12.48, 23.745 12.48, 23.94 12.48 C 24.03 12.48, 24.044999999999998 12.48, 24.119999999999997 12.48 C 24.18 12.48, 24.165 12.48, 24.240000000000002 12.48 C 24.330000000000002 12.48, 24.375 12.48, 24.42 12.48 L 24.42 12.48" fill="none" stroke="black" stroke-width="2"></path><path d="M 24.36 11.64 C 24.3 11.25, 24.315 11.37, 24.240000000000002 10.86 C 24.15 10.23, 24.15 10.260000000000002, 24.06 9.600000000000001 C 23.97 8.91, 23.97 8.895000000000001, 23.88 8.22 C 23.79 7.5600000000000005, 23.745 7.455, 23.700000000000003 6.8999999999999995 C 23.700000000000003 6.449999999999999, 23.700000000000003 6.72, 23.700000000000003 6 C 23.700000000000003 5.01, 23.700000000000003 4.65, 23.700000000000003 4.0200000000000005 C 23.700000000000003 3.75, 23.700000000000003 3.6149999999999998, 23.700000000000003 3.4799999999999995 C 23.700000000000003 3.4799999999999995, 23.700000000000003 3.4799999999999995, 23.700000000000003 3.4799999999999995 L 23.700000000000003 3.4799999999999995" fill="none" stroke="black" stroke-width="2"></path></svg>