<svg width="48" height="48" viewBox="0 0 48 48" xmlns="http://www.w3.org/2000/svg"><path d="M 16.56 4.62 C 16.439999999999998 6.27, 16.38 6.075, 16.32 7.92 C 16.32 9.96, 16.32 9.72, 16.32 12 C 16.32 14.52, 16.32 14.52, 16.32 17.04 C 16.32 19.560000000000002, 16.365000000000002 19.89, 16.32 22.080000000000002 C 16.23 23.939999999999998, 16.185000000000002 24.36, 16.14 25.799999999999997 C 16.14 26.819999999999997, 16.14 26.744999999999997, 16.14 27.839999999999996 C 16.14 29.009999999999998, 16.005000000000003 29.174999999999997, 16.14 30.18 C 16.41 31.02, 16.365000000000002 31.11, 16.68 31.86 C 17.04 32.519999999999996, 17.07 32.7, 17.4 33.18 C 17.7 33.480000000000004, 17.73 33.585, 18 33.78 C 18.240000000000002 33.870000000000005, 18.165 33.870000000000005, 18.48 33.96 C 18.869999999999997 34.05, 18.72 34.095, 19.259999999999998 34.14 C 19.95 34.14, 20.055 34.155, 20.64 34.14 C 21.12 34.11, 21.03 34.14, 21.6 34.08 C 22.259999999999998 33.99, 22.185 33.99000000000001, 22.919999999999998 33.900000000000006 C 23.729999999999997 33.81, 23.744999999999997 33.765, 24.54 33.72 C 25.32 33.72, 25.349999999999998 33.75, 26.099999999999998 33.72 C 26.82 33.66, 26.82 33.629999999999995, 27.54 33.599999999999994 C 28.259999999999998 33.599999999999994, 28.215 33.52499999999999, 28.98 33.599999999999994 C 29.79 33.75, 29.939999999999998 33.645, 30.599999999999998 33.900000000000006 C 31.11 34.260000000000005, 31.109999999999996 34.23, 31.619999999999997 34.62 C 32.129999999999995 35.04, 32.175 34.995, 32.64 35.46 C 33.06 35.97, 33.135000000000005 35.940000000000005, 33.480000000000004 36.480000000000004 C 33.75 37.05, 33.839999999999996 37.065, 34.019999999999996 37.62 C 34.11 38.16, 34.155 38.085, 34.2 38.7 C 34.2 39.39, 34.245000000000005 39.495, 34.2 40.08 C 34.11 40.56, 34.275 40.56, 34.019999999999996 41.04 C 33.599999999999994 41.519999999999996, 33.72 41.505, 33.18 42 C 32.519999999999996 42.51, 32.519999999999996 42.644999999999996, 31.86 43.019999999999996 C 31.2 43.26, 31.095 43.335, 30.54 43.5 C 30.09 43.59, 30.48 43.59, 29.64 43.68 C 28.41 43.769999999999996, 28.065 43.815, 27.18 43.86 C 26.64 43.86, 26.519999999999996 43.86, 26.099999999999998 43.86 C 25.799999999999997 43.86, 25.65 43.86, 25.5 43.86 C 25.5 43.86, 25.5 43.86, 25.5 43.86 L 25.5 43.86" fill="none" stroke="black" stroke-width="2"></path><path d="M 26.64 33.839999999999996 C 27 33.839999999999996, 26.985 33.855, 27.36 33.839999999999996 C 27.75 33.81, 27.795 33.87, 28.14 33.78 C 28.44 33.63, 28.440000000000005 33.720000000000006, 28.740000000000002 33.480000000000004 C 29.04 33.150000000000006, 29.009999999999998 33.315, 29.339999999999996 32.82 C 29.699999999999996 32.16, 29.685 32.175, 30.06 31.5 C 30.449999999999996 30.81, 30.584999999999997 30.705, 30.839999999999996 30.119999999999997 C 30.959999999999997 29.64, 30.959999999999997 29.85, 31.08 29.160000000000004 C 31.2 28.26, 31.215 28.29, 31.32 27.36 C 31.41 26.4, 31.455 26.505000000000003, 31.5 25.44 C 31.5 24.270000000000003, 31.5 24.18, 31.5 23.1 C 31.5 22.11, 31.5 22.23, 31.5 21.12 C 31.5 19.89, 31.5 19.92, 31.5 18.66 C 31.5 17.37, 31.5 17.430000000000003, 31.5 16.080000000000002 C 31.5 14.670000000000002, 31.5 14.43, 31.5 13.26 C 31.5 12.329999999999998, 31.575 12.27, 31.5 11.399999999999999 C 31.35 10.59, 31.320000000000004 10.694999999999999, 31.200000000000003 9.78 C 31.11 8.76, 31.08 8.58, 31.02 7.74 C 30.990000000000002 7.08, 30.975 6.9, 30.96 6.42 C 30.96 6.12, 30.96 5.970000000000001, 30.96 5.82 C 30.96 5.82, 30.96 5.82, 30.96 5.82 C 30.96 5.82, 31.005000000000003 5.91, 30.96 5.82 C 30.87 5.640000000000001, 30.945 5.595, 30.78 5.46 C 30.54 5.37, 30.54 5.34, 30.299999999999997 5.28 C 30.06 5.25, 30.09 5.234999999999999, 29.82 5.22 C 29.52 5.22, 29.564999999999998 5.22, 29.22 5.22 C 28.83 5.22, 28.86 5.22, 28.44 5.22 C 27.990000000000002 5.22, 27.96 5.22, 27.54 5.22 C 27.15 5.22, 27.375 5.22, 26.759999999999998 5.22 C 25.919999999999998 5.22, 25.799999999999997 5.22, 25.08 5.22 C 24.479999999999997 5.22, 24.419999999999998 5.22, 23.88 5.22 C 23.4 5.22, 23.235 5.22, 22.919999999999998 5.22 C 22.77 5.22, 22.815 5.22, 22.62 5.22 C 22.380000000000003 5.22, 22.26 5.22, 22.14 5.22 L 22.14 5.22" fill="none" stroke="black" stroke-width="2"></path></svg>