<svg width="48" height="48" viewBox="0 0 48 48" xmlns="http://www.w3.org/2000/svg"><path d="M 13.02 2.7600000000000002 C 13.14 3.33, 13.125 2.7750000000000004, 13.26 3.9000000000000004 C 13.41 5.58, 13.439999999999998 5.4, 13.559999999999999 7.26 C 13.649999999999999 9.3, 13.65 9.48, 13.74 11.34 C 13.829999999999998 13.02, 13.769999999999998 13.095000000000002, 13.919999999999998 14.700000000000001 C 14.129999999999999 16.23, 14.204999999999998 16.529999999999998, 14.34 17.759999999999998 C 14.4 18.689999999999998, 14.325000000000001 18.585, 14.46 19.62 C 14.67 20.759999999999998, 14.7 21.09, 14.879999999999999 21.9 C 15.03 22.38, 14.985 22.409999999999997, 15.18 22.86 C 15.42 23.28, 15.405 23.370000000000005, 15.66 23.700000000000003 C 15.930000000000001 23.94, 15.945000000000004 23.925, 16.200000000000003 24.18 C 16.44 24.45, 16.47 24.509999999999998, 16.68 24.72 C 16.86 24.869999999999997, 16.755 24.869999999999997, 17.04 25.02 C 17.43 25.17, 17.34 25.215, 17.82 25.32 C 18.39 25.380000000000003, 18.42 25.41, 18.96 25.44 C 19.47 25.44, 19.23 25.395000000000003, 19.98 25.44 C 20.97 25.53, 21 25.575, 21.96 25.619999999999997 C 22.89 25.619999999999997, 23.04 25.619999999999997, 23.82 25.619999999999997 C 24.45 25.619999999999997, 24.54 25.619999999999997, 25.08 25.619999999999997 C 25.53 25.619999999999997, 25.605 25.619999999999997, 25.98 25.619999999999997 C 26.28 25.619999999999997, 26.264999999999997 25.619999999999997, 26.58 25.619999999999997 C 26.91 25.619999999999997, 26.925000000000004 25.65, 27.240000000000002 25.619999999999997 C 27.54 25.56, 27.569999999999997 25.59, 27.839999999999996 25.5 C 28.08 25.38, 28.155 25.439999999999998, 28.32 25.259999999999998 C 28.41 25.02, 28.395 25.05, 28.5 24.78 C 28.62 24.48, 28.68 24.525, 28.740000000000002 24.18 C 28.740000000000002 23.79, 28.71 23.909999999999997, 28.740000000000002 23.4 C 28.8 22.77, 28.83 22.875, 28.86 22.14 C 28.86 21.3, 28.95 21.36, 28.86 20.46 C 28.68 19.5, 28.665 19.29, 28.5 18.54 C 28.35 18, 28.305000000000003 17.865000000000002, 28.200000000000003 17.46 C 28.14 17.189999999999998, 28.11 17.055, 28.08 16.919999999999998 C 28.08 16.919999999999998, 28.08 16.919999999999998, 28.08 16.919999999999998 C 28.08 16.919999999999998, 28.08 16.919999999999998, 28.08 16.919999999999998 L 28.08 16.919999999999998" fill="none" stroke="black" stroke-width="2"></path><path d="M 22.38 25.92 C 22.53 26.400000000000002, 22.605 26.340000000000003, 22.68 26.880000000000003 C 22.68 27.48, 22.68 27.03, 22.68 28.08 C 22.68 29.58, 22.68 29.534999999999997, 22.68 31.08 C 22.68 32.67, 22.68 33.03, 22.68 34.26 C 22.68 35.129999999999995, 22.65 35.175, 22.68 36 C 22.74 36.78, 22.754999999999995 36.825, 22.799999999999997 37.56 C 22.83 38.25, 22.845 38.129999999999995, 22.86 38.94 C 22.86 39.87, 22.814999999999998 40.004999999999995, 22.86 40.8 C 22.95 41.459999999999994, 22.994999999999997 41.565, 23.04 42.12 C 23.04 42.56999999999999, 23.04 42.644999999999996, 23.04 43.019999999999996 C 23.04 43.31999999999999, 23.04 43.31999999999999, 23.04 43.62 C 23.04 43.92, 23.04 43.995, 23.04 44.22 C 23.04 44.37, 23.04 44.44499999999999, 23.04 44.519999999999996 C 23.04 44.519999999999996, 23.04 44.519999999999996, 23.04 44.519999999999996 L 23.04 44.519999999999996" fill="none" stroke="black" stroke-width="2"></path></svg>