<svg width="48" height="48" viewBox="0 0 48 48" xmlns="http://www.w3.org/2000/svg"><path d="M 13.68 29.04 C 13.32 28.08, 13.395000000000001 29.205, 12.96 27.119999999999997 C 12.45 23.91, 12.285 23.265, 11.94 20.700000000000003 C 11.76 18.78, 11.775 18.884999999999998, 11.58 16.86 C 11.370000000000001 14.73, 11.265 14.475000000000001, 11.16 12.600000000000001 C 11.16 10.98, 11.115 10.635, 11.16 9.36 C 11.25 8.43, 11.115 8.325, 11.34 7.5 C 11.7 6.78, 11.624999999999998 6.69, 12.059999999999999 6.0600000000000005 C 12.57 5.52, 12.675 5.295, 13.080000000000002 4.9799999999999995 C 13.38 4.890000000000001, 13.215 4.845000000000001, 13.68 4.800000000000001 C 14.31 4.800000000000001, 14.475000000000001 4.785000000000001, 14.940000000000001 4.800000000000001 C 15.24 4.83, 15.135 4.680000000000001, 15.54 4.86 C 16.049999999999997 5.19, 16.08 4.98, 16.56 5.5200000000000005 C 17.009999999999998 6.27, 17.04 6.09, 17.46 7.02 C 17.85 8.129999999999999, 17.955000000000002 8.19, 18.240000000000002 9.24 C 18.42 10.23, 18.42 10.080000000000002, 18.6 11.22 C 18.78 12.51, 18.87 12.299999999999999, 18.96 13.799999999999999 C 18.96 15.509999999999998, 18.915 16.049999999999997, 18.96 17.22 C 19.05 17.85, 19.095 18.015, 19.14 18.48 C 19.14 18.78, 19.11 18.885, 19.14 19.080000000000002 C 19.2 19.17, 19.139999999999997 19.2, 19.259999999999998 19.259999999999998 C 19.439999999999998 19.29, 19.155 19.32, 19.62 19.32 C 20.37 19.29, 20.325000000000003 19.334999999999997, 21.12 19.259999999999998 C 21.96 19.14, 21.9 19.14, 22.799999999999997 19.02 C 23.759999999999998 18.9, 23.744999999999997 18.915, 24.72 18.78 C 25.71 18.630000000000003, 26.055000000000003 18.57, 26.700000000000003 18.48 C 27 18.45, 27.119999999999997 18.435, 27.299999999999997 18.419999999999998 C 27.36 18.419999999999998, 27.345000000000002 18.419999999999998, 27.42 18.419999999999998 C 27.509999999999998 18.419999999999998, 27.479999999999997 18.419999999999998, 27.599999999999998 18.419999999999998 C 27.75 18.419999999999998, 27.825000000000003 18.419999999999998, 27.900000000000002 18.419999999999998 C 27.900000000000002 18.419999999999998, 27.900000000000002 18.419999999999998, 27.900000000000002 18.419999999999998 L 27.900000000000002 18.419999999999998" fill="none" stroke="black" stroke-width="2"></path><path d="M 26.160000000000004 4.9799999999999995 C 26.310000000000002 5.459999999999999, 26.310000000000002 4.725, 26.46 5.9399999999999995 C 26.61 7.89, 26.625 7.904999999999999, 26.759999999999998 9.84 C 26.88 11.76, 26.835 11.895, 27 13.68 C 27.21 15.33, 27.240000000000002 15.495000000000001, 27.42 16.98 C 27.57 18.3, 27.599999999999998 18.525000000000002, 27.72 19.62 C 27.810000000000002 20.490000000000002, 27.810000000000002 20.4, 27.900000000000002 21.36 C 27.990000000000002 22.41, 27.99 22.560000000000002, 28.08 23.46 C 28.169999999999998 24.21, 28.184999999999995 24.285, 28.259999999999998 24.96 C 28.32 25.560000000000002, 28.35 25.815000000000005, 28.380000000000003 26.160000000000004 C 28.380000000000003 26.25, 28.380000000000003 26.294999999999998, 28.380000000000003 26.339999999999996 L 28.380000000000003 26.339999999999996" fill="none" stroke="black" stroke-width="2"></path><path d="M 19.32 19.56 C 19.68 20.52, 19.814999999999998 20.325, 20.04 21.48 C 20.13 22.83, 20.174999999999997 22.845, 20.22 24.18 C 20.22 25.5, 20.22 25.65, 20.22 26.82 C 20.22 27.84, 20.339999999999996 27.689999999999998, 20.22 28.86 C 19.98 30.18, 20.055 30.315, 19.740000000000002 31.5 C 19.35 32.55, 19.5 32.474999999999994, 18.96 33.599999999999994 C 18.270000000000003 34.8, 18.180000000000003 35.085, 17.580000000000002 36 C 17.07 36.629999999999995, 16.904999999999998 36.87, 16.56 37.26 C 16.380000000000003 37.41, 16.410000000000004 37.38, 16.200000000000003 37.56 C 15.96 37.77, 15.840000000000002 37.875, 15.72 37.980000000000004 L 15.72 37.980000000000004" fill="none" stroke="black" stroke-width="2"></path><path d="M 27.599999999999998 30.96 C 27.599999999999998 32.1, 27.764999999999997 31.815, 27.599999999999998 33.24 C 27.27 34.95, 27.3 35.220000000000006, 26.94 36.660000000000004 C 26.550000000000004 37.83, 26.835000000000004 37.635000000000005, 26.160000000000004 39 C 25.200000000000003 40.56, 25.665000000000003 40.425, 24.240000000000002 42.12 C 22.35 43.95, 22.095 44.49, 20.46 45.78 C 19.080000000000002 46.53, 18.585000000000004 46.8, 17.700000000000003 47.28 C 17.310000000000002 47.49, 17.159999999999997 47.580000000000005, 16.919999999999998 47.7 L 16.740000000000002 47.76" fill="none" stroke="black" stroke-width="2"></path></svg>