<svg width="48" height="48" viewBox="0 0 48 48" xmlns="http://www.w3.org/2000/svg"><path d="M 15.72 3.3000000000000003 C 15.72 4.53, 15.66 4.095000000000001, 15.72 5.76 C 15.84 7.859999999999999, 15.9 8.129999999999999, 15.96 9.959999999999999 C 15.96 11.52, 15.96 11.925, 15.96 13.080000000000002 C 15.96 13.830000000000002, 15.96 13.650000000000002, 15.96 14.580000000000002 C 15.96 15.69, 15.96 15.779999999999998, 15.96 16.799999999999997 C 15.96 17.729999999999997, 15.93 17.88, 15.96 18.66 C 16.020000000000003 19.29, 15.96 19.334999999999997, 16.080000000000002 19.919999999999998 C 16.26 20.46, 16.245 20.445, 16.44 21 C 16.65 21.57, 16.65 21.69, 16.86 22.14 C 17.07 22.47, 16.98 22.485, 17.28 22.799999999999997 C 17.67 23.099999999999998, 17.7 23.205, 18.06 23.4 C 18.39 23.490000000000002, 18.089999999999996 23.505000000000003, 18.72 23.580000000000002 C 19.65 23.64, 19.44 23.625000000000004, 20.580000000000002 23.700000000000003 C 21.93 23.79, 21.840000000000003 23.835, 23.28 23.88 C 24.81 23.88, 25.109999999999996 23.88, 26.339999999999996 23.88 C 27.27 23.88, 27.435000000000002 23.88, 28.200000000000003 23.88 C 28.800000000000004 23.88, 28.830000000000002 23.924999999999997, 29.400000000000002 23.88 C 29.94 23.79, 30 23.790000000000003, 30.48 23.700000000000003 C 30.9 23.61, 30.945 23.685000000000002, 31.32 23.52 C 31.65 23.28, 31.665 23.369999999999997, 31.98 23.04 C 32.28 22.62, 32.355 22.725, 32.58 22.200000000000003 C 32.730000000000004 21.57, 32.805 21.57, 32.88 20.94 C 32.88 20.310000000000002, 32.835 20.49, 32.88 19.68 C 32.97 18.69, 32.97 18.645000000000003, 33.06 17.700000000000003 C 33.150000000000006 16.8, 33.150000000000006 16.785, 33.24 15.899999999999999 C 33.33 15.03, 33.330000000000005 15.195, 33.42 14.16 C 33.51 12.96, 33.52499999999999 12.78, 33.599999999999994 11.76 C 33.66 10.92, 33.69 10.905000000000001, 33.72 10.08 C 33.72 9.27, 33.72 9.059999999999999, 33.72 8.459999999999999 C 33.72 8.07, 33.72 8.1, 33.72 7.68 C 33.72 7.2299999999999995, 33.72 7.124999999999999, 33.72 6.779999999999999 C 33.72 6.54, 33.72 6.465000000000001, 33.72 6.300000000000001 C 33.72 6.210000000000001, 33.825 6.375, 33.72 6.12 C 33.51 5.7, 33.449999999999996 5.565, 33.3 5.28 C 33.209999999999994 5.13, 33.224999999999994 5.145, 33.12 4.9799999999999995 C 33 4.8, 32.97 4.725, 32.88 4.62 C 32.82 4.59, 32.91 4.620000000000001, 32.76 4.5600000000000005 C 32.519999999999996 4.470000000000001, 32.715 4.425, 32.28 4.38 C 31.65 4.38, 31.74 4.365, 31.02 4.38 C 30.21 4.41, 30.18 4.379999999999999, 29.400000000000002 4.4399999999999995 C 28.650000000000002 4.529999999999999, 28.470000000000002 4.575, 27.900000000000002 4.62 C 27.509999999999998 4.62, 27.584999999999997 4.62, 27.119999999999997 4.62 C 26.58 4.62, 26.43 4.62, 26.04 4.62 C 25.799999999999997 4.62, 25.68 4.62, 25.56 4.62 C 25.56 4.62, 25.56 4.62, 25.56 4.62 L 25.56 4.62" fill="none" stroke="black" stroke-width="2"></path><path d="M 23.759999999999998 28.02 C 23.58 28.259999999999998, 23.685 27.93, 23.4 28.5 C 23.009999999999998 29.4, 22.815 29.58, 22.62 30.299999999999997 C 22.62 30.84, 22.32 30.885, 22.62 31.380000000000003 C 23.22 31.830000000000002, 23.325000000000003 32.010000000000005, 23.82 32.28 C 24.21 32.370000000000005, 24.299999999999997 32.61, 24.599999999999998 32.46 C 24.81 32.07, 24.915 32.115, 25.02 31.68 C 25.02 31.2, 25.095 31.229999999999997, 25.02 30.72 C 24.869999999999997 30.18, 24.869999999999997 30.03, 24.72 29.64 C 24.57 29.400000000000002, 24.645000000000003 29.325000000000003, 24.42 29.160000000000004 C 24.12 29.07, 24.18 28.98, 23.82 28.98 C 23.4 29.07, 23.28 28.830000000000005, 22.98 29.160000000000004 C 22.8 29.73, 22.695 29.775, 22.62 30.299999999999997 C 22.65 30.779999999999998, 22.56 30.839999999999996, 22.68 31.259999999999998 C 22.89 31.619999999999997, 22.635 31.695, 23.1 31.98 C 23.82 32.190000000000005, 23.91 32.44500000000001, 24.54 32.400000000000006 C 25.08 32.1, 25.305 32.205, 25.619999999999997 31.799999999999997 C 25.709999999999997 31.29, 25.964999999999996 31.259999999999998, 25.799999999999997 30.78 C 25.38 30.330000000000002, 25.425 30.300000000000004, 24.96 29.880000000000003 C 24.450000000000003 29.490000000000002, 24.315 29.354999999999997, 23.94 29.099999999999998 C 23.700000000000003 28.979999999999997, 23.715000000000003 28.875, 23.46 28.86 C 23.189999999999998 28.95, 23.085 28.83, 22.919999999999998 29.04 C 22.86 29.37, 22.694999999999997 29.430000000000003, 22.799999999999997 29.700000000000003 C 23.07 29.91, 23.009999999999998 29.955, 23.34 30.119999999999997 C 23.729999999999997 30.24, 23.849999999999998 30.345, 24.119999999999997 30.36 C 24.27 30.27, 24.345 30.375, 24.42 30.18 C 24.42 29.88, 24.495000000000005 29.775, 24.42 29.58 C 24.27 29.490000000000002, 24.33 29.385, 24.119999999999997 29.400000000000002 C 23.85 29.520000000000003, 23.775000000000002 29.28, 23.580000000000002 29.64 C 23.46 30.24, 23.265 30.33, 23.34 30.839999999999996 C 23.61 31.259999999999998, 23.669999999999998 31.455, 23.88 31.68 L 24.18 31.740000000000002" fill="none" stroke="black" stroke-width="2"></path></svg>