<svg width="48" height="48" viewBox="0 0 48 48" xmlns="http://www.w3.org/2000/svg"><path d="M 13.440000000000001 5.4 C 13.620000000000001 5.4, 13.544999999999998 5.4, 13.799999999999999 5.4 C 14.129999999999999 5.4, 13.995000000000001 5.4, 14.46 5.4 C 15.06 5.4, 15.09 5.4, 15.66 5.4 C 16.200000000000003 5.4, 16.200000000000003 5.445, 16.740000000000002 5.4 C 17.28 5.3100000000000005, 17.43 5.265, 17.82 5.22 C 18.06 5.22, 18.029999999999998 5.22, 18.299999999999997 5.22 C 18.599999999999998 5.22, 18.584999999999997 5.22, 18.9 5.22 C 19.229999999999997 5.22, 19.32 5.22, 19.56 5.22 C 19.71 5.22, 19.68 5.22, 19.86 5.22 C 20.07 5.22, 20.1 5.22, 20.28 5.22 C 20.43 5.22, 20.415000000000003 5.22, 20.580000000000002 5.22 C 20.76 5.22, 20.82 5.22, 20.94 5.22 C 21 5.22, 20.985 5.205, 21.06 5.22 C 21.15 5.25, 21.150000000000002 5.25, 21.240000000000002 5.28 C 21.33 5.3100000000000005, 21.375 5.325, 21.419999999999998 5.34 C 21.419999999999998 5.34, 21.389999999999997 5.31, 21.419999999999998 5.34 C 21.479999999999997 5.4, 21.479999999999997 5.4, 21.54 5.46 C 21.6 5.52, 21.57 5.43, 21.66 5.58 C 21.78 5.82, 21.825 5.82, 21.9 6.0600000000000005 C 21.93 6.300000000000001, 21.915 6.225000000000001, 21.96 6.540000000000001 C 22.020000000000003 6.930000000000001, 22.05 6.855, 22.080000000000002 7.32 C 22.080000000000002 7.859999999999999, 22.080000000000002 7.889999999999999, 22.080000000000002 8.399999999999999 C 22.080000000000002 8.879999999999999, 22.05 8.774999999999999, 22.080000000000002 9.36 C 22.14 10.05, 22.17 10.095, 22.200000000000003 10.74 C 22.200000000000003 11.34, 22.200000000000003 11.37, 22.200000000000003 11.94 C 22.200000000000003 12.48, 22.200000000000003 12.584999999999999, 22.200000000000003 13.02 C 22.200000000000003 13.35, 22.200000000000003 13.365, 22.200000000000003 13.68 C 22.200000000000003 13.98, 22.200000000000003 13.934999999999999, 22.200000000000003 14.28 C 22.200000000000003 14.669999999999998, 22.200000000000003 14.594999999999999, 22.200000000000003 15.059999999999999 C 22.200000000000003 15.6, 22.200000000000003 15.719999999999999, 22.200000000000003 16.14 C 22.200000000000003 16.44, 22.200000000000003 16.44, 22.200000000000003 16.740000000000002 C 22.200000000000003 17.04, 22.200000000000003 17.07, 22.200000000000003 17.34 C 22.200000000000003 17.58, 22.260000000000005 17.505, 22.200000000000003 17.82 C 22.080000000000002 18.21, 22.125 18.195, 21.96 18.6 C 21.75 19.020000000000003, 21.794999999999998 19.020000000000003, 21.54 19.44 C 21.240000000000002 19.86, 21.255000000000003 19.785000000000004, 20.94 20.28 C 20.61 20.85, 20.625 20.805, 20.28 21.419999999999998 C 19.92 22.08, 19.875 22.14, 19.56 22.740000000000002 C 19.29 23.28, 19.275 23.19, 19.02 23.82 C 18.78 24.54, 18.705 24.584999999999997, 18.54 25.259999999999998 C 18.45 25.89, 18.405 25.919999999999998, 18.36 26.52 C 18.36 27.090000000000003, 18.39 26.850000000000005, 18.36 27.660000000000004 C 18.3 28.71, 18.270000000000003 28.799999999999997, 18.240000000000002 29.759999999999998 C 18.240000000000002 30.63, 18.240000000000002 30.585, 18.240000000000002 31.5 C 18.240000000000002 32.46, 18.240000000000002 32.505, 18.240000000000002 33.42 C 18.240000000000002 34.290000000000006, 18.240000000000002 34.5, 18.240000000000002 35.160000000000004 C 18.240000000000002 35.61, 18.240000000000002 35.565000000000005, 18.240000000000002 36.06 C 18.240000000000002 36.6, 18.240000000000002 36.675, 18.240000000000002 37.14 C 18.240000000000002 37.53, 18.240000000000002 37.605000000000004, 18.240000000000002 37.92 C 18.240000000000002 38.160000000000004, 18.240000000000002 38.10000000000001, 18.240000000000002 38.400000000000006 C 18.240000000000002 38.760000000000005, 18.225 38.745, 18.240000000000002 39.12 C 18.27 39.510000000000005, 18.24 39.540000000000006, 18.299999999999997 39.900000000000006 C 18.39 40.230000000000004, 18.33 40.275000000000006, 18.48 40.56 C 18.689999999999998 40.8, 18.674999999999997 40.86, 18.9 41.04 C 19.14 41.16, 19.185 41.22, 19.38 41.28 C 19.53 41.28, 19.56 41.28, 19.68 41.28 C 19.77 41.28, 19.755 41.28, 19.86 41.28 C 19.98 41.28, 20.025000000000002 41.355000000000004, 20.1 41.28 C 20.130000000000003 41.13, 20.16 41.25, 20.16 40.980000000000004 C 20.130000000000003 40.59, 20.115000000000002 40.620000000000005, 20.1 40.2 C 20.1 39.75, 20.1 39.78, 20.1 39.3 C 20.1 38.79, 20.040000000000003 38.85, 20.1 38.28 C 20.22 37.65, 20.13 37.815, 20.34 37.019999999999996 C 20.64 36.059999999999995, 20.580000000000002 36.074999999999996, 20.94 35.099999999999994 C 21.36 34.11, 21.375 33.885, 21.78 33.12 C 22.17 32.58, 22.035 32.655, 22.56 32.04 C 23.22 31.35, 23.265 31.155000000000005, 23.88 30.660000000000004 C 24.45 30.36, 24.375 30.255, 25.02 30.06 C 25.740000000000002 29.97, 25.950000000000003 29.925, 26.46 29.880000000000003 C 26.759999999999998 29.880000000000003, 26.835 29.880000000000003, 27.06 29.880000000000003 C 27.21 29.880000000000003, 27.24 29.865000000000002, 27.36 29.880000000000003 C 27.45 29.910000000000004, 27.42 29.880000000000003, 27.54 29.94 C 27.689999999999998 30.03, 27.764999999999997 30.075, 27.839999999999996 30.119999999999997 C 27.839999999999996 30.119999999999997, 27.839999999999996 30.119999999999997, 27.839999999999996 30.119999999999997 L 27.839999999999996 30.119999999999997" fill="none" stroke="black" stroke-width="2"></path></svg>