<svg width="48" height="48" viewBox="0 0 48 48" xmlns="http://www.w3.org/2000/svg"><path d="M 15.299999999999999 2.0999999999999996 C 15.03 3.3, 14.94 3.225, 14.76 4.5 C 14.670000000000002 5.85, 14.790000000000003 5.459999999999999, 14.580000000000002 7.199999999999999 C 14.25 9.329999999999998, 14.129999999999999 9.555, 13.919999999999998 11.459999999999999 C 13.829999999999998 13.14, 13.785 13.245000000000001, 13.74 14.82 C 13.74 16.29, 13.74 16.694999999999997, 13.74 17.759999999999998 C 13.74 18.42, 13.74 18.18, 13.74 19.080000000000002 C 13.74 20.22, 13.65 20.415, 13.74 21.36 C 13.920000000000002 22.11, 13.830000000000002 22.335, 14.100000000000001 22.86 C 14.46 23.16, 14.475000000000001 23.19, 14.82 23.46 C 15.15 23.700000000000003, 15.135 23.730000000000004, 15.48 23.94 C 15.840000000000002 24.119999999999997, 15.645000000000003 24.089999999999996, 16.200000000000003 24.299999999999997 C 16.950000000000003 24.54, 16.815000000000005 24.66, 17.700000000000003 24.78 C 18.720000000000002 24.78, 18.810000000000002 24.78, 19.740000000000002 24.78 C 20.58 24.78, 20.655 24.78, 21.419999999999998 24.78 C 22.11 24.78, 21.989999999999995 24.795, 22.799999999999997 24.78 C 23.73 24.75, 23.730000000000004 24.765, 24.660000000000004 24.72 C 25.590000000000003 24.659999999999997, 25.815 24.63, 26.52 24.599999999999998 C 27 24.599999999999998, 27.045 24.644999999999996, 27.48 24.599999999999998 C 27.869999999999997 24.509999999999998, 27.944999999999997 24.51, 28.259999999999998 24.42 C 28.5 24.330000000000002, 28.575000000000003 24.285000000000004, 28.740000000000002 24.240000000000002 C 28.830000000000002 24.240000000000002, 28.875 24.240000000000002, 28.92 24.240000000000002 C 28.92 24.240000000000002, 28.89 24.240000000000002, 28.92 24.240000000000002 C 28.98 24.240000000000002, 29.009999999999998 24.240000000000002, 29.04 24.240000000000002 C 29.04 24.240000000000002, 29.04 24.240000000000002, 29.04 24.240000000000002 C 29.04 24.240000000000002, 29.04 24.240000000000002, 29.04 24.240000000000002 C 29.04 24.240000000000002, 29.04 24.240000000000002, 29.04 24.240000000000002 C 29.04 24.240000000000002, 29.04 24.240000000000002, 29.04 24.240000000000002 C 29.04 24.240000000000002, 29.04 24.240000000000002, 29.04 24.240000000000002 C 29.04 24.240000000000002, 29.04 24.240000000000002, 29.04 24.240000000000002 L 29.04 24.240000000000002" fill="none" stroke="black" stroke-width="2"></path><path d="M 27.78 17.52 C 27.9 18, 27.884999999999998 18.045, 28.02 18.48 C 28.17 18.869999999999997, 28.14 18.705, 28.32 19.259999999999998 C 28.53 19.98, 28.545 20.1, 28.740000000000002 20.700000000000003 C 28.92 21.18, 29.009999999999998 21.075000000000003, 29.099999999999998 21.66 C 29.099999999999998 22.35, 29.099999999999998 22.425, 29.099999999999998 23.04 C 29.099999999999998 23.58, 29.099999999999998 23.459999999999997, 29.099999999999998 24.119999999999997 C 29.099999999999998 24.9, 29.099999999999998 24.825, 29.099999999999998 25.68 C 29.099999999999998 26.61, 29.099999999999998 26.474999999999998, 29.099999999999998 27.54 C 29.099999999999998 28.740000000000002, 29.115 28.800000000000004, 29.099999999999998 29.94 C 29.07 31.019999999999996, 29.145 31.169999999999995, 29.04 32.099999999999994 C 28.86 32.879999999999995, 28.994999999999997 32.7, 28.68 33.660000000000004 C 28.23 34.8, 28.305 34.98, 27.78 35.94 C 27.18 36.72, 27.089999999999996 36.9, 26.58 37.5 C 26.16 37.92, 26.340000000000003 37.904999999999994, 25.740000000000002 38.339999999999996 C 24.96 38.79, 24.855 38.925000000000004, 24.18 39.24 C 23.61 39.42, 23.64 39.48, 23.04 39.599999999999994 C 22.41 39.66, 22.395 39.69, 21.78 39.72 C 21.18 39.72, 21.12 39.765, 20.580000000000002 39.72 C 20.1 39.629999999999995, 20.07 39.66, 19.62 39.54 C 19.200000000000003 39.39, 19.245 39.615, 18.78 39.24 C 18.27 38.64, 18.345 38.97, 17.759999999999998 38.04 C 17.1 36.78, 17.01 36.72, 16.44 35.519999999999996 C 15.96 34.379999999999995, 15.75 34.11, 15.48 33.24 C 15.42 32.64, 15.42 32.37, 15.36 32.04 C 15.3 31.98, 15.27 31.950000000000003, 15.24 31.92 C 15.24 31.92, 15.225000000000001 31.965000000000003, 15.24 31.92 L 15.299999999999999 31.740000000000002" fill="none" stroke="black" stroke-width="2"></path></svg>