<svg width="48" height="48" viewBox="0 0 48 48" xmlns="http://www.w3.org/2000/svg"><path d="M 13.919999999999998 3.7199999999999998 C 13.68 5.130000000000001, 13.605 5.07, 13.440000000000001 6.540000000000001 C 13.350000000000001 8.07, 13.44 7.800000000000002, 13.26 9.600000000000001 C 12.99 11.670000000000002, 12.9 11.88, 12.72 13.74 C 12.629999999999999 15.39, 12.584999999999999 15.525, 12.54 17.04 C 12.54 18.419999999999998, 12.54 18.705, 12.54 19.799999999999997 C 12.54 20.61, 12.45 20.639999999999997, 12.54 21.419999999999998 C 12.719999999999999 22.169999999999998, 12.689999999999998 22.259999999999998, 12.899999999999999 22.919999999999998 C 13.139999999999999 23.49, 13.034999999999998 23.49, 13.379999999999999 24.06 C 13.829999999999998 24.630000000000003, 13.875 24.795, 14.28 25.200000000000003 C 14.64 25.44, 14.61 25.485, 15 25.68 C 15.42 25.83, 15.48 25.905, 15.84 25.98 C 16.14 25.98, 16.11 26.01, 16.44 25.98 C 16.8 25.92, 16.830000000000002 26.1, 17.16 25.86 C 17.46 25.439999999999998, 17.415 25.605, 17.759999999999998 25.02 C 18.15 24.27, 18.224999999999998 24.255, 18.54 23.52 C 18.78 22.8, 18.794999999999998 22.8, 19.02 22.080000000000002 C 19.23 21.36, 19.245 21.345000000000002, 19.44 20.64 C 19.619999999999997 19.95, 19.634999999999998 20.144999999999996, 19.799999999999997 19.259999999999998 C 19.95 18.18, 19.950000000000003 17.895, 20.1 17.1 C 20.25 16.590000000000003, 20.31 16.380000000000003, 20.4 16.080000000000002 C 20.43 15.99, 20.445 15.945, 20.46 15.899999999999999 C 20.46 15.899999999999999, 20.43 15.704999999999998, 20.46 15.899999999999999 C 20.520000000000003 16.29, 20.505000000000003 16.169999999999998, 20.580000000000002 16.68 C 20.67 17.310000000000002, 20.669999999999998 17.310000000000002, 20.759999999999998 17.94 C 20.85 18.57, 20.880000000000003 18.645000000000003, 20.94 19.200000000000003 C 20.97 19.68, 20.955 19.605, 21 20.16 C 21.060000000000002 20.79, 21 20.79, 21.12 21.419999999999998 C 21.3 22.049999999999997, 21.285 22.2, 21.48 22.68 C 21.689999999999998 23.009999999999998, 21.659999999999997 23.055, 21.9 23.34 C 22.17 23.58, 22.26 23.655, 22.44 23.82 C 22.53 23.91, 22.41 23.82, 22.62 24 C 22.950000000000003 24.27, 22.830000000000002 24.299999999999997, 23.28 24.54 C 23.85 24.75, 23.925000000000004 24.84, 24.42 24.96 C 24.84 24.990000000000002, 24.81 24.990000000000002, 25.259999999999998 25.02 C 25.74 25.049999999999997, 25.755 25.064999999999998, 26.22 25.08 C 26.669999999999998 25.08, 26.699999999999996 25.08, 27.119999999999997 25.08 C 27.509999999999998 25.08, 27.555 25.08, 27.900000000000002 25.08 C 28.200000000000003 25.08, 28.23 25.08, 28.5 25.08 C 28.740000000000002 25.08, 28.86 25.08, 28.98 25.08 C 28.98 25.08, 28.935 25.08, 28.98 25.08 C 29.07 25.08, 29.070000000000004 25.275, 29.160000000000004 25.08 C 29.25 24.689999999999998, 29.294999999999998 24.794999999999995, 29.339999999999996 24.299999999999997 C 29.339999999999996 23.7, 29.339999999999996 23.745, 29.339999999999996 23.1 C 29.339999999999996 22.41, 29.384999999999994 22.545, 29.339999999999996 21.72 C 29.25 20.759999999999998, 29.250000000000004 20.699999999999996, 29.160000000000004 19.799999999999997 C 29.07 18.96, 29.025000000000002 18.84, 28.98 18.12 C 28.98 17.52, 28.98 17.534999999999997, 28.98 16.919999999999998 C 28.98 16.29, 28.98 15.975, 28.98 15.66 C 28.98 15.66, 28.98 15.66, 28.98 15.66 L 28.98 15.66" fill="none" stroke="black" stroke-width="2"></path><path d="M 20.34 21.48 C 20.43 21.840000000000003, 20.415 21.735000000000003, 20.52 22.200000000000003 C 20.64 22.770000000000003, 20.654999999999998 22.635, 20.759999999999998 23.34 C 20.85 24.18, 20.895 24.105, 20.94 25.02 C 20.94 26.009999999999998, 20.94 26.175, 20.94 27 C 20.94 27.66, 20.94 27.495, 20.94 28.32 C 20.94 29.31, 21.03 29.309999999999995, 20.94 30.299999999999997 C 20.76 31.29, 20.82 31.335, 20.580000000000002 32.28 C 20.28 33.18, 20.295 33.239999999999995, 19.98 34.08 C 19.65 34.86, 19.635 34.875, 19.32 35.64 C 19.02 36.39, 19.08 36.435, 18.72 37.14 C 18.299999999999997 37.8, 18.345 37.755, 17.88 38.46 C 17.369999999999997 39.21, 17.369999999999997 39.33, 16.86 39.96 C 16.35 40.47, 16.425 40.440000000000005, 15.84 40.980000000000004 C 15.18 41.55, 15.375 41.519999999999996, 14.52 42.12 C 13.469999999999999 42.75, 13.064999999999998 42.99, 12.419999999999998 43.38 C 12.18 43.53, 12.104999999999999 43.575, 11.94 43.68 C 11.85 43.739999999999995, 11.805 43.769999999999996, 11.76 43.8 L 11.76 43.8" fill="none" stroke="black" stroke-width="2"></path></svg>