<svg width="48" height="48" viewBox="0 0 48 48" xmlns="http://www.w3.org/2000/svg"><path d="M 13.68 3.9000000000000004 C 13.469999999999999 5.7, 13.469999999999999 5.3100000000000005, 13.26 7.5 C 13.05 10.08, 13.004999999999999 10.59, 12.84 12.66 C 12.72 14.219999999999999, 12.66 14.084999999999999, 12.600000000000001 15.78 C 12.600000000000001 17.61, 12.540000000000003 18.03, 12.600000000000001 19.44 C 12.72 20.43, 12.66 20.64, 12.84 21.419999999999998 C 13.08 21.99, 12.99 22.08, 13.32 22.56 C 13.74 22.95, 13.695 22.98, 14.16 23.34 C 14.67 23.67, 14.775 23.835, 15.18 24 C 15.48 24, 15.45 24.045, 15.78 24 C 16.14 23.91, 16.125 24.255000000000003, 16.5 23.82 C 16.89 23.04, 16.770000000000003 23.279999999999998, 17.28 22.259999999999998 C 17.91 21, 18.03 21.045, 18.54 19.740000000000002 C 18.93 18.39, 19.035 18.105, 19.32 17.04 C 19.5 16.259999999999998, 19.59 15.870000000000001, 19.68 15.48 C 19.68 15.48, 19.65 15.45, 19.68 15.48 C 19.74 15.540000000000001, 19.709999999999997 15.030000000000001, 19.799999999999997 15.600000000000001 C 19.919999999999998 16.68, 19.845 16.71, 20.04 17.759999999999998 C 20.310000000000002 18.779999999999998, 20.115000000000002 18.839999999999996, 20.580000000000002 19.799999999999997 C 21.240000000000002 20.7, 21.24 20.91, 21.9 21.6 C 22.56 22.08, 22.08 22.049999999999997, 23.22 22.56 C 24.84 23.1, 24.855 23.355, 26.46 23.64 C 28.05 23.67, 28.485 23.685000000000002, 29.64 23.700000000000003 C 30.36 23.700000000000003, 30.555 23.700000000000003, 31.08 23.700000000000003 C 31.41 23.700000000000003, 31.455000000000002 23.715000000000003, 31.740000000000002 23.700000000000003 C 31.98 23.67, 31.965 23.85, 32.22 23.64 C 32.489999999999995 23.25, 32.535 23.325, 32.76 22.86 C 32.94 22.32, 32.985 22.71, 33.12 21.78 C 33.209999999999994 20.46, 33.209999999999994 20.565, 33.3 19.14 C 33.39 17.61, 33.435 18.000000000000004, 33.480000000000004 16.080000000000002 C 33.480000000000004 13.77, 33.480000000000004 13.62, 33.480000000000004 11.459999999999999 C 33.480000000000004 9.45, 33.480000000000004 9.209999999999999, 33.480000000000004 7.4399999999999995 C 33.480000000000004 5.91, 33.525000000000006 5.265, 33.480000000000004 4.38 C 33.39 4.140000000000001, 33.345 4.0200000000000005, 33.3 3.9000000000000004 C 33.3 3.9000000000000004, 33.3 3.9000000000000004, 33.3 3.9000000000000004 L 33.3 3.9000000000000004" fill="none" stroke="black" stroke-width="2"></path><path d="M 25.799999999999997 4.38 C 25.77 4.83, 25.875 4.1850000000000005, 25.740000000000002 5.28 C 25.5 7.02, 25.515 6.75, 25.259999999999998 8.76 C 24.99 11.04, 24.854999999999997 11.505, 24.72 13.32 C 24.72 14.67, 24.72 14.504999999999999, 24.72 16.02 C 24.72 17.7, 24.689999999999998 17.865, 24.72 19.38 C 24.779999999999998 20.73, 24.584999999999994 20.925, 24.839999999999996 22.080000000000002 C 25.29 23.04, 25.215 23.145, 25.740000000000002 24 C 26.340000000000003 24.75, 26.28 24.810000000000002, 26.94 25.5 C 27.660000000000004 26.13, 27.480000000000004 26.144999999999996, 28.380000000000003 26.759999999999998 C 29.46 27.36, 29.505000000000003 27.405, 30.54 27.96 C 31.529999999999998 28.47, 31.769999999999996 28.575000000000003, 32.519999999999996 28.98 C 33.03 29.28, 33.12 29.31, 33.54 29.58 C 33.870000000000005 29.82, 33.945 29.849999999999998, 34.2 30.06 C 34.38 30.240000000000002, 34.47 30.330000000000002, 34.56 30.42 C 34.56 30.42, 34.56 30.42, 34.56 30.42 C 34.56 30.42, 34.56 30.42, 34.56 30.42 C 34.56 30.42, 34.515 30.345000000000002, 34.56 30.42 C 34.650000000000006 30.57, 34.935 30.465, 34.74 30.72 C 34.260000000000005 31.08, 34.260000000000005 31.125, 33.78 31.44 C 33.3 31.71, 33.39 31.725, 32.82 31.98 C 32.16 32.22, 32.325 32.175000000000004, 31.5 32.46 C 30.509999999999998 32.79, 30.66 32.714999999999996, 29.52 33.12 C 28.23 33.599999999999994, 27.93 33.69, 26.94 34.08 C 26.25 34.379999999999995, 26.28 34.275, 25.56 34.68 C 24.81 35.19, 24.81 35.085, 24.06 35.7 C 23.31 36.42, 23.205 36.3, 22.56 37.14 C 22.02 38.1, 21.990000000000002 38.145, 21.48 39.06 C 21 39.93, 20.985 39.78, 20.52 40.8 C 20.07 41.97, 20.01 42.06, 19.62 43.14 C 19.29 44.129999999999995, 19.200000000000003 44.235, 18.96 45.12 C 18.810000000000002 45.9, 18.735 46.29, 18.66 46.68 C 18.66 46.68, 18.66 46.65, 18.66 46.68 L 18.66 46.8" fill="none" stroke="black" stroke-width="2"></path><path d="M 14.04 31.259999999999998 C 14.52 31.409999999999997, 14.55 31.334999999999997, 15 31.56 C 15.42 31.86, 15.225 31.680000000000003, 15.84 32.160000000000004 C 16.65 32.82000000000001, 16.755000000000003 32.895, 17.46 33.480000000000004 C 18.060000000000002 33.99, 18.03 33.96, 18.66 34.5 C 19.32 35.07, 19.35 35.13, 19.98 35.64 C 20.58 36.09, 20.715 36.18, 21.18 36.54 C 21.509999999999998 36.81, 21.675 36.945, 21.84 37.08 C 21.84 37.08, 21.84 37.08, 21.84 37.08 L 21.84 37.08" fill="none" stroke="black" stroke-width="2"></path></svg>