<svg width="48" height="48" viewBox="0 0 48 48" xmlns="http://www.w3.org/2000/svg"><path d="M 11.16 4.38 C 11.13 5.52, 11.205000000000002 4.845, 11.100000000000001 6.66 C 10.920000000000002 9.15, 10.83 8.82, 10.74 11.64 C 10.74 14.790000000000001, 10.8 15.525000000000002, 10.74 17.94 C 10.620000000000001 19.619999999999997, 10.605 19.154999999999998, 10.5 21.299999999999997 C 10.41 23.909999999999997, 10.41 24.15, 10.32 26.52 C 10.23 28.65, 10.185 29.04, 10.14 30.78 C 10.14 32.13, 10.14 32.400000000000006, 10.14 33.480000000000004 C 10.14 34.29, 10.14 34.334999999999994, 10.14 35.099999999999994 C 10.14 35.81999999999999, 10.005 35.81999999999999, 10.14 36.54 C 10.41 37.260000000000005, 10.41 37.365, 10.68 37.980000000000004 C 10.95 38.49, 10.950000000000001 38.535000000000004, 11.22 39 C 11.49 39.42, 11.28 39.36, 11.76 39.839999999999996 C 12.45 40.379999999999995, 12.465 40.485, 13.14 40.92 C 13.8 41.25, 13.860000000000001 41.339999999999996, 14.46 41.58 C 15 41.730000000000004, 14.955 41.805, 15.54 41.88 C 16.169999999999998 41.88, 16.229999999999997 41.895, 16.799999999999997 41.88 C 17.31 41.85, 17.189999999999998 41.985, 17.82 41.82 C 18.57 41.519999999999996, 18.57 41.625, 19.32 41.22 C 20.07 40.71, 20.25 40.665000000000006, 20.82 40.2 C 21.21 39.78, 21.285 39.78, 21.6 39.36 C 21.840000000000003 38.94, 21.840000000000003 39.01499999999999, 22.080000000000002 38.519999999999996 C 22.32 37.95, 22.395 37.995000000000005, 22.56 37.38 C 22.65 36.72, 22.695 36.705000000000005, 22.740000000000002 36.06 C 22.740000000000002 35.43, 22.845000000000002 35.37, 22.740000000000002 34.8 C 22.53 34.29, 22.485 34.185, 22.32 33.78 C 22.200000000000003 33.480000000000004, 22.35 33.405, 22.080000000000002 33.18 C 21.660000000000004 33.03, 21.795 33.06, 21.240000000000002 32.88 C 20.55 32.67, 20.61 32.655, 19.86 32.46 C 19.05 32.28, 18.93 32.19, 18.240000000000002 32.099999999999994 C 17.67 32.099999999999994, 17.73 32.099999999999994, 17.1 32.099999999999994 C 16.41 32.099999999999994, 16.485 31.964999999999993, 15.72 32.099999999999994 C 14.879999999999999 32.37, 14.79 32.31, 14.04 32.64 C 13.379999999999999 33.03, 13.245000000000001 33.045, 12.72 33.42 C 12.33 33.78, 12.36 33.72, 11.94 34.14 C 11.49 34.62, 11.34 34.724999999999994, 11.040000000000001 35.099999999999994 C 10.89 35.37, 10.815000000000001 35.504999999999995, 10.74 35.64 C 10.74 35.64, 10.74 35.64, 10.74 35.64 L 10.74 35.64" fill="none" stroke="black" stroke-width="2"></path><path d="M 10.379999999999999 25.08 C 11.43 25.23, 11.31 25.305, 12.48 25.380000000000003 C 13.77 25.380000000000003, 13.98 25.665000000000003, 15.059999999999999 25.380000000000003 C 15.929999999999998 24.810000000000002, 16.154999999999998 25.005000000000003, 16.799999999999997 24.240000000000002 C 17.22 23.28, 17.384999999999998 23.34, 17.64 22.32 C 17.73 21.240000000000002, 17.745 20.985, 17.82 20.16 C 17.880000000000003 19.59, 17.91 19.305, 17.94 19.02 C 17.94 19.02, 17.94 19.02, 17.94 19.02 C 17.94 19.02, 17.94 18.825, 17.94 19.02 C 17.94 19.409999999999997, 17.865000000000002 18.854999999999997, 17.94 19.799999999999997 C 18.090000000000003 21.299999999999997, 17.925 21.464999999999996, 18.240000000000002 22.799999999999997 C 18.720000000000002 23.97, 18.615000000000002 24.21, 19.200000000000003 25.14 C 19.89 25.83, 19.830000000000002 26.07, 20.580000000000002 26.52 C 21.39 26.73, 21.195000000000004 26.835, 22.200000000000003 26.94 C 23.4 26.94, 23.549999999999997 27.105, 24.599999999999998 26.94 C 25.5 26.61, 25.68 26.745, 26.400000000000002 26.28 C 26.94 25.68, 26.94 25.845, 27.48 25.08 C 28.02 24.15, 28.2 24.18, 28.56 23.22 C 28.740000000000002 22.23, 28.740000000000002 22.62, 28.92 21.240000000000002 C 29.1 19.470000000000002, 29.19 19.365000000000002, 29.28 17.700000000000003 C 29.28 16.14, 29.28 15.975000000000001, 29.28 14.580000000000002 C 29.28 13.350000000000001, 29.355 13.275000000000002, 29.28 12.120000000000001 C 29.130000000000003 11.04, 29.175 11.19, 28.98 9.959999999999999 C 28.740000000000002 8.579999999999998, 28.695 8.294999999999998, 28.5 7.199999999999999 C 28.35 6.39, 28.275000000000002 6.015, 28.200000000000003 5.58 C 28.200000000000003 5.52, 28.275000000000002 5.73, 28.200000000000003 5.46 C 28.050000000000004 4.98, 27.975 4.74, 27.900000000000002 4.5 L 27.900000000000002 4.5" fill="none" stroke="black" stroke-width="2"></path><path d="M 20.22 2.7 C 20.07 3.57, 20.13 2.8649999999999993, 19.919999999999998 4.4399999999999995 C 19.65 6.72, 19.56 7.395, 19.38 9 C 19.29 9.93, 19.245 9.855, 19.200000000000003 10.86 C 19.200000000000003 11.94, 19.230000000000004 12.18, 19.200000000000003 13.02 C 19.14 13.620000000000001, 19.110000000000003 13.845, 19.080000000000002 14.22 C 19.080000000000002 14.370000000000001, 19.125000000000004 14.385, 19.080000000000002 14.52 L 18.9 14.76" fill="none" stroke="black" stroke-width="2"></path></svg>