<svg width="48" height="48" viewBox="0 0 48 48" xmlns="http://www.w3.org/2000/svg"><path d="M 15.96 16.68 C 16.89 16.59, 16.425 16.619999999999997, 17.82 16.5 C 19.68 16.35, 19.89 16.305000000000003, 21.54 16.200000000000003 C 22.98 16.14, 23.295 16.095000000000002, 24.42 16.080000000000002 C 25.23 16.11, 25.229999999999997 16.125, 26.04 16.14 C 26.85 16.14, 26.835000000000004 16.080000000000002, 27.660000000000004 16.14 C 28.5 16.259999999999998, 28.559999999999995 16.275, 29.339999999999996 16.38 C 30.06 16.47, 30.18 16.439999999999998, 30.78 16.56 C 31.26 16.71, 31.335 16.74, 31.740000000000002 16.86 C 32.07000000000001 16.95, 31.995000000000005 16.875, 32.400000000000006 17.04 C 32.88 17.28, 32.97 17.22, 33.36 17.52 C 33.66 17.880000000000003, 33.705 17.715000000000003, 33.96 18.240000000000002 C 34.17 18.93, 34.230000000000004 18.69, 34.38 19.62 C 34.47 20.79, 34.485 21.060000000000002, 34.56 21.96 C 34.620000000000005 22.59, 34.65 22.544999999999998, 34.68 23.22 C 34.68 23.94, 34.68 23.85, 34.68 24.660000000000004 C 34.68 25.560000000000002, 34.769999999999996 25.605000000000004, 34.68 26.46 C 34.5 27.27, 34.425 27.555, 34.32 28.08 C 34.29 28.32, 34.275 28.439999999999998, 34.26 28.56 C 34.26 28.56, 34.26 28.56, 34.26 28.56 L 34.26 28.56" fill="none" stroke="black" stroke-width="2"></path><path d="M 24.36 4.38 C 24.36 5.67, 24.405 5.354999999999999, 24.36 6.959999999999999 C 24.27 8.879999999999999, 24.3 9.105, 24.18 10.8 C 24.03 12.27, 24.015 12.27, 23.88 13.74 C 23.759999999999998 15.21, 23.7 15.495, 23.64 16.68 C 23.64 17.58, 23.64 17.490000000000002, 23.64 18.48 C 23.64 19.560000000000002, 23.64 19.365000000000002, 23.64 20.64 C 23.64 22.11, 23.595 22.305, 23.64 23.580000000000002 C 23.73 24.660000000000004, 23.685000000000002 24.78, 23.82 25.740000000000002 C 24 26.580000000000002, 23.85 26.505000000000003, 24.18 27.42 C 24.66 28.410000000000004, 24.69 28.590000000000003, 25.14 29.400000000000002 C 25.560000000000002 30.03, 25.5 30.045000000000005, 25.98 30.660000000000004 C 26.52 31.26, 26.58 31.41, 27.06 31.86 C 27.48 32.16, 27.360000000000003 32.115, 27.900000000000002 32.46 C 28.560000000000002 32.85, 28.634999999999998 32.925000000000004, 29.22 33.24 C 29.73 33.480000000000004, 29.700000000000003 33.48, 30.240000000000002 33.72 C 30.810000000000002 33.96, 30.945000000000004 34.02, 31.380000000000003 34.2 C 31.68 34.32, 31.545 34.305, 31.98 34.44 C 32.55 34.59, 32.565 34.620000000000005, 33.12 34.74 C 33.66 34.83, 33.57 34.74, 34.2 34.92 C 34.92 35.19, 35.19 35.295, 35.64 35.46 C 35.82 35.519999999999996, 35.91 35.55, 36 35.58 C 36 35.58, 35.955 35.535, 36 35.58 C 36.09 35.67, 36.135 35.714999999999996, 36.18 35.76 C 36.18 35.76, 36.18 35.714999999999996, 36.18 35.76 C 36.18 35.849999999999994, 36.405 35.79, 36.18 35.94 C 35.730000000000004 36.15, 35.79 36.165, 35.28 36.36 C 34.71 36.54, 34.695 36.629999999999995, 34.14 36.72 C 33.6 36.72, 33.675000000000004 36.675, 33.06 36.72 C 32.370000000000005 36.81, 32.265 36.795, 31.68 36.900000000000006 C 31.2 37.02, 31.275 37.02, 30.72 37.14 C 30.09 37.260000000000005, 30.165 37.2, 29.46 37.38 C 28.68 37.620000000000005, 28.71 37.575, 27.900000000000002 37.86 C 27.060000000000002 38.19, 27.015 38.16, 26.22 38.519999999999996 C 25.47 38.91, 25.349999999999998 38.955, 24.72 39.3 C 24.21 39.6, 24.285000000000004 39.45, 23.700000000000003 39.900000000000006 C 23.04 40.5, 22.994999999999997 40.51499999999999, 22.38 41.099999999999994 C 21.810000000000002 41.67, 21.78 41.61, 21.240000000000002 42.24 C 20.73 42.93, 20.7 42.9, 20.22 43.62 C 19.77 44.37, 19.605 44.489999999999995, 19.32 45.12 C 19.200000000000003 45.629999999999995, 19.14 45.84, 19.080000000000002 46.14 C 19.080000000000002 46.230000000000004, 19.095000000000002 46.155, 19.080000000000002 46.32 C 19.05 46.56, 19.035 46.68, 19.02 46.8 C 19.02 46.8, 19.02 46.8, 19.02 46.8 L 19.02 46.8" fill="none" stroke="black" stroke-width="2"></path><path d="M 15.299999999999999 30 C 16.14 30.75, 16.125 30.6, 16.98 31.5 C 17.85 32.55, 17.82 32.60999999999999, 18.72 33.599999999999994 C 19.65 34.53, 19.830000000000002 34.635, 20.580000000000002 35.46 C 21.15 36.18000000000001, 21.134999999999998 36.18000000000001, 21.72 36.900000000000006 C 22.32 37.620000000000005, 22.455 37.69499999999999, 22.919999999999998 38.339999999999996 C 23.25 38.91, 23.325000000000003 39.03, 23.580000000000002 39.480000000000004 C 23.76 39.81, 23.85 39.975, 23.94 40.14 C 23.94 40.14, 23.925 40.095, 23.94 40.14 C 23.97 40.230000000000004, 23.985 40.275, 24 40.32 L 24 40.32" fill="none" stroke="black" stroke-width="2"></path></svg>