<svg width="48" height="48" viewBox="0 0 48 48" xmlns="http://www.w3.org/2000/svg"><path d="M 21.96 2.94 C 22.020000000000003 4.2, 22.020000000000003 4.005, 22.080000000000002 5.46 C 22.14 7.109999999999999, 22.17 6.975, 22.200000000000003 8.76 C 22.200000000000003 10.68, 22.200000000000003 10.860000000000001, 22.200000000000003 12.600000000000001 C 22.200000000000003 14.16, 22.200000000000003 14.505, 22.200000000000003 15.72 C 22.200000000000003 16.59, 22.305000000000003 16.380000000000003, 22.200000000000003 17.46 C 21.990000000000002 18.75, 22.26 18.794999999999998, 21.78 20.04 C 21.03 21.240000000000002, 21.045 21.315, 20.28 22.44 C 19.5 23.490000000000002, 19.259999999999998 23.835, 18.72 24.54 C 18.42 24.9, 18.27 25.08, 18.12 25.259999999999998 L 18.12 25.259999999999998" fill="none" stroke="black" stroke-width="2"></path><path d="M 17.759999999999998 17.4 C 17.759999999999998 18.63, 17.729999999999997 18.689999999999998, 17.759999999999998 19.86 C 17.82 20.97, 17.834999999999997 20.955000000000002, 17.88 22.080000000000002 C 17.91 23.22, 17.805 23.025, 17.94 24.36 C 18.18 25.89, 18.224999999999998 26.085, 18.419999999999998 27.42 C 18.57 28.560000000000002, 18.45 28.545, 18.72 29.700000000000003 C 19.11 30.87, 18.975 30.66, 19.5 32.04 C 20.16 33.629999999999995, 20.055 33.795, 20.82 35.22 C 21.689999999999998 36.480000000000004, 21.585 36.645, 22.56 37.74 C 23.64 38.67, 23.685 38.894999999999996, 24.72 39.599999999999994 C 25.71 40.08, 26.205000000000002 40.32, 26.700000000000003 40.56 L 26.700000000000003 40.56" fill="none" stroke="black" stroke-width="2"></path></svg>