<svg width="48" height="48" viewBox="0 0 48 48" xmlns="http://www.w3.org/2000/svg"><path d="M 13.5 7.86 C 12.27 11.19, 12.075000000000001 11.145, 11.040000000000001 14.52 C 10.2 17.939999999999998, 10.2 17.655, 9.36 21.36 C 8.52 25.349999999999998, 8.475 25.904999999999998, 7.68 29.339999999999996 C 6.93 32.22, 6.569999999999999 32.834999999999994, 6.18 35.099999999999994 C 6.15 36.75, 6.165 37.2, 6.12 38.400000000000006 C 6.0600000000000005 39.150000000000006, 5.805 39.19500000000001, 6 39.900000000000006 C 6.449999999999999 40.56, 6.435 40.815, 6.8999999999999995 41.22 C 7.38 41.37, 7.365 41.78999999999999, 7.86 41.519999999999996 C 8.37 40.83, 7.9799999999999995 41.25, 8.879999999999999 40.14 C 10.169999999999998 38.61, 10.349999999999998 38.504999999999995, 11.459999999999999 37.08 C 12.39 35.76, 12.705 35.415, 13.32 34.44 C 13.62 33.81, 13.77 33.495, 13.919999999999998 33.18 C 13.919999999999998 33.18, 13.874999999999996 33.195, 13.919999999999998 33.18 C 14.01 33.15, 14.040000000000001 32.58, 14.100000000000001 33.12 C 14.13 34.23, 13.965 34.08, 14.16 35.339999999999996 C 14.52 36.75, 14.459999999999999 37.155, 14.879999999999999 38.160000000000004 C 15.36 38.760000000000005, 15.105 38.730000000000004, 15.84 39.36 C 16.83 40.019999999999996, 16.5 40.14, 17.82 40.68 C 19.47 41.099999999999994, 19.23 41.26499999999999, 21.12 41.519999999999996 C 23.25 41.61, 23.67 41.655, 25.380000000000003 41.7 C 26.67 41.7, 27.315 41.7, 27.96 41.7 L 27.96 41.7" fill="none" stroke="black" stroke-width="2"></path><path d="M 19.919999999999998 10.92 C 19.83 13.23, 19.905 13.049999999999999, 19.740000000000002 15.54 C 19.5 18.21, 19.439999999999998 18.435, 19.259999999999998 20.88 C 19.14 23.1, 19.08 23.49, 19.02 25.32 C 19.02 26.76, 19.02 27.225, 19.02 28.200000000000003 C 19.02 28.71, 19.02 28.965, 19.02 29.22 L 19.02 29.22" fill="none" stroke="black" stroke-width="2"></path></svg>