<svg width="48" height="48" viewBox="0 0 48 48" xmlns="http://www.w3.org/2000/svg"><path d="M 10.620000000000001 27.900000000000002 C 10.530000000000001 27.240000000000002, 10.485 27.674999999999997, 10.44 26.58 C 10.44 25.049999999999997, 10.44 25.035, 10.44 23.52 C 10.44 22.02, 10.395 21.825, 10.44 20.52 C 10.530000000000001 19.409999999999997, 10.575000000000001 19.109999999999996, 10.620000000000001 18.299999999999997 C 10.620000000000001 17.79, 10.530000000000001 17.985, 10.620000000000001 17.28 C 10.8 16.380000000000003, 10.725000000000001 16.32, 10.98 15.48 C 11.31 14.7, 11.22 14.579999999999998, 11.64 13.919999999999998 C 12.15 13.379999999999999, 12.24 13.2, 12.66 12.84 C 12.99 12.66, 12.96 12.51, 13.32 12.48 C 13.71 12.600000000000001, 13.755 12.450000000000001, 14.100000000000001 12.72 C 14.400000000000002 13.14, 14.340000000000002 13.02, 14.700000000000001 13.559999999999999 C 15.120000000000001 14.219999999999999, 15.225 14.204999999999998, 15.54 14.879999999999999 C 15.75 15.569999999999999, 15.765 15.119999999999997, 15.96 16.259999999999998 C 16.14 17.85, 16.185000000000002 17.925, 16.32 19.44 C 16.41 20.880000000000003, 16.455 21.42, 16.5 22.32 C 16.5 22.68, 16.5 22.86, 16.5 23.04 C 16.5 23.04, 16.425 23.43, 16.5 23.04 C 16.65 22.259999999999998, 16.604999999999997 22.560000000000002, 16.799999999999997 21.48 C 17.04 20.1, 17.115000000000002 19.814999999999998, 17.28 18.72 C 17.37 17.91, 17.310000000000002 17.805, 17.46 17.1 C 17.67 16.5, 17.625 16.529999999999998, 17.88 15.899999999999999 C 18.18 15.24, 18.03 15.105000000000002, 18.48 14.580000000000002 C 19.08 14.190000000000001, 19.11 14.07, 19.68 13.799999999999999 C 20.22 13.649999999999999, 20.04 13.62, 20.759999999999998 13.5 C 21.659999999999997 13.41, 21.689999999999998 13.41, 22.56 13.32 C 23.4 13.23, 23.355000000000004 13.185, 24.240000000000002 13.14 C 25.17 13.14, 25.32 13.14, 26.099999999999998 13.14 C 26.729999999999997 13.14, 26.805 13.095, 27.36 13.14 C 27.84 13.23, 27.915 13.2, 28.32 13.32 C 28.65 13.47, 28.695 13.500000000000002, 28.98 13.620000000000001 C 29.22 13.71, 29.22 13.695, 29.46 13.799999999999999 C 29.700000000000003 13.919999999999998, 29.730000000000004 13.919999999999998, 29.94 14.04 C 30.119999999999997 14.16, 30.089999999999996 14.129999999999999, 30.299999999999997 14.28 C 30.54 14.46, 30.509999999999998 14.385000000000002, 30.78 14.64 C 31.080000000000002 14.969999999999999, 31.095000000000002 14.805, 31.380000000000003 15.299999999999999 C 31.650000000000002 15.96, 31.695 15.555000000000001, 31.92 16.62 C 32.1 18.09, 32.19 18.134999999999998, 32.28 19.56 C 32.28 20.939999999999998, 32.28 21, 32.28 22.32 C 32.28 23.58, 32.34 23.819999999999997, 32.28 24.839999999999996 C 32.16 25.619999999999997, 32.175 25.590000000000003, 32.04 26.400000000000002 C 31.89 27.240000000000002, 31.845000000000002 27.584999999999997, 31.740000000000002 28.08 C 31.68 28.23, 31.65 28.305, 31.619999999999997 28.380000000000003 L 31.619999999999997 28.380000000000003" fill="none" stroke="black" stroke-width="2"></path><path d="M 22.56 3.18 C 22.56 3.66, 22.65 3.2999999999999994, 22.56 4.14 C 22.380000000000003 5.34, 22.380000000000003 5.100000000000001, 22.200000000000003 6.540000000000001 C 22.020000000000003 8.219999999999999, 22.02 8.204999999999998, 21.84 9.899999999999999 C 21.66 11.61, 21.66 11.82, 21.48 13.32 C 21.3 14.61, 21.21 14.549999999999999, 21.12 15.899999999999999 C 21.12 17.31, 21.12 17.354999999999997, 21.12 18.72 C 21.12 20.04, 21.12 20.115, 21.12 21.36 C 21.12 22.53, 21 22.470000000000002, 21.12 23.700000000000003 C 21.36 24.990000000000002, 21.330000000000002 24.990000000000002, 21.6 26.28 C 21.900000000000002 27.57, 21.750000000000004 27.63, 22.200000000000003 28.86 C 22.8 30.03, 22.83 30.345000000000002, 23.4 31.200000000000003 C 23.939999999999998 31.740000000000002, 23.955 31.89, 24.48 32.28 C 24.990000000000002 32.519999999999996, 24.81 32.489999999999995, 25.5 32.76 C 26.37 33.06, 26.385 33.105, 27.240000000000002 33.36 C 28.080000000000002 33.57, 28.020000000000003 33.585, 28.92 33.78 C 29.88 33.96, 30.194999999999997 34.005, 30.839999999999996 34.14 C 31.169999999999998 34.230000000000004, 31.095 34.155, 31.5 34.32 C 31.98 34.56, 32.13 34.589999999999996, 32.46 34.8 C 32.64 34.980000000000004, 32.655 34.980000000000004, 32.82 35.160000000000004 C 32.97 35.34, 33.015 35.355, 33.12 35.519999999999996 C 33.18 35.67, 33.225 35.625, 33.24 35.82 C 33.21 36.06, 33.315 36.135, 33.18 36.3 C 32.94 36.39, 33.120000000000005 36.435, 32.7 36.480000000000004 C 32.1 36.480000000000004, 32.205 36.480000000000004, 31.5 36.480000000000004 C 30.69 36.480000000000004, 30.810000000000002 36.480000000000004, 29.880000000000003 36.480000000000004 C 28.830000000000002 36.480000000000004, 29.025000000000002 36.435, 27.78 36.480000000000004 C 26.340000000000003 36.57000000000001, 26.355000000000004 36.480000000000004, 24.900000000000002 36.660000000000004 C 23.43 36.93000000000001, 23.475 36.93000000000001, 21.96 37.2 C 20.4 37.47, 20.205 37.455000000000005, 18.84 37.74 C 17.67 38.04, 17.76 37.83, 16.5 38.339999999999996 C 15.149999999999999 39.06, 14.895 38.985, 13.799999999999999 39.78 C 12.96 40.65, 12.72 40.544999999999995, 12.120000000000001 41.519999999999996 C 11.76 42.599999999999994, 11.594999999999999 42.855, 11.399999999999999 43.68 C 11.37 44.25, 11.355 44.31, 11.34 44.82 C 11.34 45.269999999999996, 11.34 45.449999999999996, 11.34 45.72 C 11.34 45.81, 11.34 45.855000000000004, 11.34 45.900000000000006 L 11.34 45.900000000000006" fill="none" stroke="black" stroke-width="2"></path></svg>