<svg width="48" height="48" viewBox="0 0 48 48" xmlns="http://www.w3.org/2000/svg"><path d="M 13.919999999999998 3.7800000000000002 C 13.77 5.130000000000001, 13.98 4.335000000000001, 13.620000000000001 6.48 C 13.05 9.42, 12.9 9.51, 12.48 12.36 C 12.21 15.12, 11.985 15.329999999999998, 11.94 17.88 C 12.12 20.22, 11.79 20.744999999999997, 12.299999999999999 22.56 C 13.14 23.85, 13.44 24.45, 13.98 25.14 C 14.22 25.23, 14.085 25.545, 14.46 25.32 C 14.97 24.78, 14.790000000000001 25.545, 15.48 24.240000000000002 C 16.35 22.17, 16.695 21.405, 17.22 20.1 C 17.4 19.560000000000002, 17.490000000000002 19.455, 17.580000000000002 19.02 C 17.580000000000002 18.689999999999998, 17.580000000000002 18.525, 17.580000000000002 18.36 C 17.580000000000002 18.36, 17.535000000000004 18.375, 17.580000000000002 18.36 C 17.67 18.33, 17.595 17.819999999999997, 17.759999999999998 18.299999999999997 C 18 19.29, 18.015 19.47, 18.240000000000002 20.28 C 18.450000000000003 20.91, 18.330000000000002 20.85, 18.66 21.54 C 19.11 22.29, 18.945 22.47, 19.56 23.04 C 20.34 23.43, 20.19 23.58, 21.12 23.82 C 22.200000000000003 23.91, 21.93 23.91, 23.28 24 C 24.9 24.09, 25.275 24.09, 26.52 24.18 C 27.39 24.27, 27.464999999999996 24.314999999999998, 28.259999999999998 24.36 C 28.98 24.36, 29.175000000000004 24.36, 29.700000000000003 24.36 C 30.03 24.36, 30.06 24.494999999999997, 30.36 24.36 C 30.630000000000003 24.09, 30.705000000000002 24.39, 30.900000000000002 23.82 C 31.020000000000003 22.950000000000003, 30.975 23.19, 31.14 22.080000000000002 C 31.35 20.73, 31.439999999999998 21.09, 31.56 19.38 C 31.589999999999996 17.31, 31.604999999999997 17.265, 31.619999999999997 15.24 C 31.619999999999997 13.26, 31.619999999999997 13.094999999999999, 31.619999999999997 11.28 C 31.619999999999997 9.629999999999999, 31.619999999999997 9.27, 31.619999999999997 7.98 C 31.619999999999997 7.050000000000001, 31.619999999999997 6.735, 31.619999999999997 6.12 C 31.619999999999997 5.82, 31.619999999999997 5.7, 31.619999999999997 5.5200000000000005 L 31.619999999999997 5.4" fill="none" stroke="black" stroke-width="2"></path><path d="M 25.14 6.24 C 25.14 7.5, 25.14 7.26, 25.14 8.76 C 25.14 10.5, 25.185000000000002 10.53, 25.14 12.24 C 25.05 13.920000000000002, 25.065 13.530000000000001, 24.96 15.600000000000001 C 24.84 18.060000000000002, 24.9 18.3, 24.72 20.52 C 24.48 22.5, 24.540000000000003 22.56, 24.240000000000002 24.48 C 23.880000000000003 26.340000000000003, 23.895 26.700000000000003, 23.52 28.200000000000003 C 23.130000000000003 29.340000000000003, 23.445 28.830000000000002, 22.740000000000002 30.48 C 21.720000000000002 32.64, 21.690000000000005 32.985, 20.700000000000003 34.8 C 19.740000000000002 36.269999999999996, 19.650000000000002 36.540000000000006, 18.78 37.74 C 18 38.67, 18.06 38.78999999999999, 17.22 39.599999999999994 C 16.32 40.29, 16.125 40.455, 15.419999999999998 40.980000000000004 C 14.909999999999998 41.34, 14.999999999999998 41.325, 14.399999999999999 41.7 C 13.709999999999999 42.09, 13.575 42.165000000000006, 13.02 42.480000000000004 C 12.6 42.72, 12.69 42.675000000000004, 12.18 42.96 C 11.58 43.29, 11.280000000000001 43.455, 10.98 43.62 C 10.98 43.62, 10.98 43.62, 10.98 43.62 L 10.98 43.62" fill="none" stroke="black" stroke-width="2"></path></svg>