<svg width="48" height="48" viewBox="0 0 48 48" xmlns="http://www.w3.org/2000/svg"><path d="M 11.040000000000001 2.94 C 11.040000000000001 4.29, 11.040000000000001 3.6299999999999994, 11.040000000000001 5.64 C 11.040000000000001 8.31, 11.040000000000001 7.98, 11.040000000000001 10.98 C 11.040000000000001 14.31, 11.100000000000001 14.355, 11.040000000000001 17.64 C 10.920000000000002 20.88, 10.920000000000002 21.36, 10.8 24.119999999999997 C 10.68 26.4, 10.755 26.28, 10.56 28.68 C 10.29 31.2, 10.185 31.5, 10.02 33.72 C 9.959999999999999 35.64, 9.915 36.015, 9.899999999999999 37.56 C 9.93 38.730000000000004, 9.794999999999998 38.86500000000001, 9.959999999999999 39.900000000000006 C 10.26 40.800000000000004, 10.23 41.08500000000001, 10.56 41.7 C 10.92 42.03, 10.844999999999999 42.045, 11.28 42.36 C 11.79 42.66, 11.774999999999999 42.72, 12.299999999999999 42.96 C 12.84 43.14, 12.794999999999998 43.215, 13.379999999999999 43.32 C 14.01 43.35, 14.100000000000001 43.365, 14.64 43.38 C 15.09 43.38, 14.985 43.53, 15.54 43.38 C 16.2 43.08, 15.915 43.425000000000004, 16.86 42.78 C 18.09 41.79, 18.255 41.775, 19.32 40.8 C 20.22 39.84, 20.295 39.81, 21.12 38.88 C 21.87 37.980000000000004, 21.705000000000002 38.025, 22.62 37.08 C 23.700000000000003 36.089999999999996, 23.745 35.95499999999999, 24.78 35.099999999999994 C 25.77 34.379999999999995, 25.95 34.11, 26.759999999999998 33.660000000000004 C 27.39 33.480000000000004, 27.419999999999998 33.435, 28.02 33.3 C 28.590000000000003 33.209999999999994, 28.680000000000003 33.12, 29.160000000000004 33.12 C 29.550000000000004 33.209999999999994, 29.46 33.089999999999996, 29.94 33.3 C 30.509999999999998 33.629999999999995, 30.525 33.54, 31.08 33.96 C 31.62 34.47, 31.635000000000005 34.275000000000006, 32.160000000000004 34.980000000000004 C 32.67 35.88, 32.88 35.940000000000005, 33.18 36.78 C 33.269999999999996 37.56, 33.269999999999996 37.66499999999999, 33.36 38.339999999999996 C 33.45 38.91, 33.525 38.88, 33.54 39.480000000000004 C 33.480000000000004 40.11, 33.63 40.095, 33.42 40.74 C 33.06 41.400000000000006, 33.045 41.550000000000004, 32.7 42.06 C 32.370000000000005 42.42, 32.61 42.42, 32.04 42.78 C 31.23 43.14, 31.095000000000002 43.275, 30.42 43.5 C 29.88 43.59, 30.014999999999997 43.635, 29.339999999999996 43.68 C 28.529999999999998 43.68, 28.439999999999998 43.68, 27.72 43.68 C 27.09 43.68, 27.165 43.83, 26.46 43.68 C 25.68 43.379999999999995, 25.53 43.35, 24.900000000000002 43.08 C 24.42 42.839999999999996, 24.39 42.86999999999999, 23.94 42.599999999999994 C 23.520000000000003 42.3, 23.475 42.405, 23.1 42 C 22.770000000000003 41.49, 22.71 41.44500000000001, 22.44 40.980000000000004 C 22.23 40.56, 22.245 40.545, 22.02 40.14 C 21.78 39.75, 21.689999999999998 39.675, 21.54 39.36 C 21.479999999999997 39.120000000000005, 21.494999999999997 39.120000000000005, 21.419999999999998 38.88 C 21.33 38.64, 21.285 38.52, 21.240000000000002 38.400000000000006 C 21.240000000000002 38.400000000000006, 21.240000000000002 38.400000000000006, 21.240000000000002 38.400000000000006 C 21.240000000000002 38.400000000000006, 21.240000000000002 38.400000000000006, 21.240000000000002 38.400000000000006 L 21.240000000000002 38.400000000000006" fill="none" stroke="black" stroke-width="2"></path><path d="M 20.759999999999998 4.32 C 20.97 4.5600000000000005, 20.97 3.765000000000001, 21.18 4.800000000000001 C 21.39 6.63, 21.435000000000002 6.659999999999999, 21.6 8.459999999999999 C 21.72 10.23, 21.705 10.094999999999999, 21.84 12 C 21.990000000000002 14.040000000000001, 21.990000000000002 14.385000000000002, 22.14 16.080000000000002 C 22.29 17.43, 22.23 17.19, 22.44 18.78 C 22.71 20.61, 22.845 20.835, 22.98 22.44 C 22.98 23.82, 22.98 24.405000000000005, 22.98 25.200000000000003 C 22.98 25.41, 22.98 25.515, 22.98 25.619999999999997 L 22.98 25.619999999999997" fill="none" stroke="black" stroke-width="2"></path></svg>