<svg width="48" height="48" viewBox="0 0 48 48" xmlns="http://www.w3.org/2000/svg"><path d="M 14.100000000000001 4.62 C 13.770000000000001 5.9399999999999995, 13.875000000000002 4.71, 13.440000000000001 7.26 C 12.9 11.04, 12.719999999999999 11.895, 12.36 14.82 C 12.18 16.89, 12.03 16.98, 12 18.96 C 12.120000000000001 20.85, 12.015 20.985000000000003, 12.24 22.740000000000002 C 12.57 24.36, 12.509999999999998 24.645000000000003, 12.899999999999999 25.98 C 13.349999999999998 27.03, 13.395 27.299999999999997, 13.799999999999999 28.08 C 14.16 28.589999999999996, 14.084999999999999 28.74, 14.52 29.099999999999998 C 15.03 29.31, 15.014999999999999 29.415, 15.54 29.52 C 16.08 29.52, 15.990000000000002 29.94, 16.62 29.52 C 17.34 28.68, 17.445 28.83, 18.06 27.839999999999996 C 18.57 26.699999999999996, 18.66 26.744999999999997, 19.080000000000002 25.56 C 19.410000000000004 24.33, 19.575000000000003 23.835, 19.740000000000002 23.1 C 19.740000000000002 22.86, 19.740000000000002 22.740000000000002, 19.740000000000002 22.62 C 19.740000000000002 22.62, 19.71 22.560000000000002, 19.740000000000002 22.62 C 19.8 22.740000000000002, 19.665 22.305, 19.86 22.86 C 20.189999999999998 23.849999999999998, 20.205 24.059999999999995, 20.52 24.839999999999996 C 20.82 25.409999999999997, 20.76 25.439999999999998, 21.12 25.98 C 21.54 26.490000000000002, 21.495 26.595, 21.96 27 C 22.47 27.299999999999997, 22.335 27.345, 22.98 27.599999999999998 C 23.759999999999998 27.81, 23.61 27.9, 24.54 28.02 C 25.62 28.049999999999997, 25.755000000000003 28.125, 26.700000000000003 28.08 C 27.51 27.959999999999997, 27.78 28.004999999999995, 28.32 27.839999999999996 C 28.59 27.63, 28.56 27.855, 28.86 27.42 C 29.189999999999998 26.759999999999998, 29.13 27.134999999999998, 29.52 26.099999999999998 C 29.97 24.689999999999998, 30.090000000000003 24.555, 30.42 23.28 C 30.63 22.14, 30.735 22.095, 30.839999999999996 21 C 30.839999999999996 19.95, 30.839999999999996 20.174999999999997, 30.839999999999996 18.9 C 30.839999999999996 17.4, 30.899999999999995 17.924999999999997, 30.839999999999996 15.899999999999999 C 30.72 13.35, 30.659999999999997 12.885, 30.599999999999998 10.8 C 30.599999999999998 9.18, 30.599999999999998 8.535, 30.599999999999998 7.5600000000000005 C 30.599999999999998 7.23, 30.599999999999998 7.0649999999999995, 30.599999999999998 6.8999999999999995 L 30.599999999999998 6.8999999999999995" fill="none" stroke="black" stroke-width="2"></path><path d="M 22.740000000000002 4.26 C 22.35 5.97, 22.32 5.76, 21.96 7.68 C 21.63 9.809999999999999, 21.509999999999998 10.215, 21.299999999999997 11.94 C 21.21 13.260000000000002, 21.165 13.350000000000001, 21.12 14.580000000000002 C 21.12 15.72, 21.12 16.08, 21.12 16.86 C 21.12 17.28, 21.12 17.490000000000002, 21.12 17.700000000000003 L 21.12 17.700000000000003" fill="none" stroke="black" stroke-width="2"></path><path d="M 21.6 34.86 C 21.060000000000002 35.04, 21.015 34.905, 20.52 35.22 C 20.07 35.67, 20.07 35.565, 19.62 36.12 C 19.17 36.78, 19.185 36.66, 18.72 37.44 C 18.24 38.34, 18.044999999999998 38.46, 17.759999999999998 39.24 C 17.67 39.900000000000006, 17.580000000000002 39.870000000000005, 17.580000000000002 40.56 C 17.67 41.28, 17.43 41.31, 17.759999999999998 42 C 18.33 42.66, 18.284999999999997 42.78, 18.9 43.32 C 19.56 43.74, 19.439999999999998 43.785000000000004, 20.22 44.160000000000004 C 21.119999999999997 44.49, 21.225 44.655, 22.02 44.82 C 22.71 44.82, 22.709999999999997 44.94, 23.4 44.82 C 24.09 44.58, 24.165 44.80499999999999, 24.78 44.339999999999996 C 25.32 43.65, 25.395 43.665, 25.86 42.96 C 26.25 42.239999999999995, 26.295 42.3, 26.64 41.519999999999996 C 26.94 40.67999999999999, 27.105000000000004 40.67999999999999, 27.240000000000002 39.839999999999996 C 27.21 39, 27.314999999999998 39.06, 27.18 38.160000000000004 C 26.94 37.2, 27.03 36.96, 26.700000000000003 36.24 C 26.28 35.760000000000005, 26.31 35.625, 25.86 35.28 C 25.380000000000003 35.07, 25.35 35.01, 24.900000000000002 34.86 C 24.48 34.769999999999996, 24.54 34.769999999999996, 24.06 34.68 C 23.52 34.59, 23.55 34.545, 22.98 34.5 C 22.380000000000003 34.5, 22.395000000000003 34.29, 21.78 34.5 C 21.15 34.92, 20.85 35.084999999999994, 20.52 35.339999999999996 L 20.46 35.519999999999996" fill="none" stroke="black" stroke-width="2"></path><path d="M 16.86 40.5 C 18.119999999999997 40.41, 18.165 40.365, 19.38 40.32 C 20.549999999999997 40.32, 20.115 40.32, 21.72 40.32 C 23.759999999999998 40.32, 24.074999999999996 40.32, 25.799999999999997 40.32 C 27.209999999999997 40.32, 27.915 40.32, 28.619999999999997 40.32 L 28.619999999999997 40.32" fill="none" stroke="black" stroke-width="2"></path></svg>