<svg width="48" height="48" viewBox="0 0 48 48" xmlns="http://www.w3.org/2000/svg"><path d="M 17.700000000000003 29.52 C 17.82 31.08, 17.880000000000003 31.23, 17.94 32.64 C 17.94 33.900000000000006, 17.94 34.065000000000005, 17.94 35.160000000000004 C 17.94 36.09, 17.955000000000002 36.269999999999996, 17.94 37.019999999999996 C 17.91 37.59, 18.09 37.38, 17.88 38.160000000000004 C 17.490000000000002 39.150000000000006, 17.52 39.285000000000004, 17.1 40.14 C 16.650000000000002 40.86, 16.785000000000004 40.905, 16.200000000000003 41.58 C 15.48 42.209999999999994, 15.330000000000002 42.419999999999995, 14.76 42.839999999999996 C 14.34 43.05, 14.204999999999998 43.125, 13.919999999999998 43.26 C 13.77 43.32, 13.815000000000001 43.35, 13.620000000000001 43.38 C 13.38 43.38, 13.59 43.605000000000004, 13.14 43.38 C 12.48 42.93000000000001, 12.345 43.02, 11.82 42.480000000000004 C 11.43 41.85, 11.370000000000001 42.03, 11.040000000000001 41.22 C 10.77 40.230000000000004, 10.77 40.545, 10.5 39.24 C 10.23 37.620000000000005, 10.139999999999999 38.085, 9.959999999999999 36 C 9.87 33.45, 9.825 33.6, 9.78 30.900000000000002 C 9.78 28.050000000000004, 9.78 27.630000000000003, 9.78 25.200000000000003 C 9.78 23.19, 9.78 23.46, 9.78 21.18 C 9.78 18.630000000000003, 9.704999999999998 18.255000000000003, 9.78 16.080000000000002 C 9.93 14.280000000000001, 9.915 13.965, 10.08 12.48 C 10.26 11.31, 10.29 10.89, 10.44 10.14 C 10.559999999999999 9.81, 10.559999999999999 9.870000000000001, 10.68 9.48 C 10.8 9.030000000000001, 10.785 8.895, 10.92 8.58 C 11.07 8.4, 10.8 8.46, 11.22 8.22 C 11.91 7.92, 12.135000000000002 7.800000000000001, 12.600000000000001 7.62 C 12.840000000000002 7.5600000000000005, 12.810000000000002 7.53, 13.080000000000002 7.5 C 13.38 7.5, 13.365 7.425, 13.68 7.5 C 14.01 7.65, 13.995000000000001 7.590000000000001, 14.34 7.800000000000001 C 14.7 8.07, 14.669999999999998 7.95, 15.059999999999999 8.34 C 15.479999999999999 8.85, 15.584999999999997 8.94, 15.899999999999999 9.36 C 16.11 9.69, 16.095 9.42, 16.32 10.02 C 16.56 10.89, 16.544999999999998 10.665, 16.799999999999997 11.76 C 17.07 13.079999999999998, 17.16 13.049999999999999, 17.34 14.399999999999999 C 17.43 15.78, 17.43 16.02, 17.52 17.16 C 17.61 18.060000000000002, 17.610000000000003 18.285, 17.700000000000003 18.96 C 17.79 19.41, 17.79 19.47, 17.88 19.86 C 17.97 20.189999999999998, 18.015 20.355, 18.06 20.52 C 18.06 20.52, 18.044999999999998 20.49, 18.06 20.52 C 18.09 20.58, 18.09 20.565, 18.12 20.64 C 18.15 20.73, 18.045 20.775, 18.18 20.82 C 18.42 20.82, 18.195 20.88, 18.66 20.82 C 19.35 20.700000000000003, 19.395 20.64, 20.04 20.580000000000002 C 20.64 20.580000000000002, 20.625 20.625000000000004, 21.240000000000002 20.580000000000002 C 21.87 20.490000000000002, 21.765 20.445, 22.5 20.4 C 23.34 20.4, 23.369999999999997 20.264999999999997, 24.18 20.4 C 24.96 20.67, 25.005000000000003 20.475, 25.740000000000002 20.94 C 26.43 21.6, 26.595 21.615, 27.119999999999997 22.259999999999998 C 27.479999999999997 22.89, 27.524999999999995 22.619999999999997, 27.839999999999996 23.52 C 28.11 24.689999999999998, 28.200000000000003 24.509999999999998, 28.380000000000003 25.86 C 28.47 27.39, 28.515 27.12, 28.56 28.92 C 28.56 30.990000000000002, 28.634999999999998 31.095000000000002, 28.56 33.06 C 28.409999999999997 34.92, 28.455 35.295, 28.259999999999998 36.78 C 28.02 37.89, 28.020000000000003 37.695, 27.78 39 C 27.54 40.5, 27.479999999999997 40.86, 27.299999999999997 42 C 27.18 42.78, 27.119999999999997 43.125, 27.06 43.56 C 27.06 43.650000000000006, 27.06 43.695, 27.06 43.74 L 27.06 43.74" fill="none" stroke="black" stroke-width="2"></path><path d="M 22.86 21.12 C 22.86 20.67, 22.86 21.18, 22.86 20.22 C 22.86 18.75, 22.86 19.005000000000003, 22.86 17.28 C 22.86 15.3, 22.86 14.940000000000001, 22.86 13.32 C 22.86 12.06, 22.86 12.09, 22.86 10.8 C 22.86 9.48, 22.86 8.88, 22.86 8.16 C 22.86 8.04, 22.86 7.98, 22.86 7.92 C 22.86 7.92, 22.83 8.04, 22.86 7.92 L 22.98 7.4399999999999995" fill="none" stroke="black" stroke-width="2"></path></svg>