<svg width="48" height="48" viewBox="0 0 48 48" xmlns="http://www.w3.org/2000/svg"><path d="M 13.200000000000001 33.839999999999996 C 12.510000000000002 31.259999999999998, 12.435 30.779999999999998, 11.82 28.68 C 11.280000000000001 27.060000000000002, 11.145 26.865000000000002, 10.74 25.44 C 10.469999999999999 24.21, 10.424999999999999 24.195, 10.2 22.98 C 10.02 21.78, 9.975 21.69, 9.84 20.580000000000002 C 9.75 19.560000000000002, 9.69 19.5, 9.66 18.54 C 9.690000000000001 17.64, 9.600000000000001 17.490000000000002, 9.72 16.740000000000002 C 9.93 16.14, 9.885000000000002 16.259999999999998, 10.14 15.54 C 10.440000000000001 14.7, 10.395 14.579999999999998, 10.74 13.86 C 11.129999999999999 13.26, 11.115 13.125, 11.52 12.66 C 11.94 12.33, 12.03 12.18, 12.36 12 C 12.6 11.969999999999999, 12.615 11.955, 12.84 11.94 C 13.05 11.94, 12.945 11.85, 13.26 11.94 C 13.68 12.12, 13.770000000000001 12.134999999999998, 14.100000000000001 12.299999999999999 C 14.340000000000002 12.45, 14.310000000000002 12.315000000000001, 14.580000000000002 12.600000000000001 C 14.88 13.020000000000001, 14.865 12.96, 15.18 13.440000000000001 C 15.51 13.98, 15.54 13.74, 15.84 14.52 C 16.11 15.54, 16.125 15.299999999999999, 16.38 16.56 C 16.619999999999997 18.06, 16.695 17.97, 16.86 19.56 C 16.95 21.24, 16.994999999999997 22.08, 17.04 22.919999999999998 C 17.04 22.919999999999998, 17.04 22.919999999999998, 17.04 22.919999999999998 C 17.04 22.919999999999998, 17.04 23.264999999999997, 17.04 22.919999999999998 C 17.04 22.229999999999997, 16.875 22.755, 17.04 21.54 C 17.37 19.799999999999997, 17.220000000000002 19.65, 17.700000000000003 18.06 C 18.330000000000002 16.619999999999997, 18.450000000000003 16.215, 18.96 15.18 C 19.35 14.549999999999999, 19.395000000000003 14.414999999999997, 19.740000000000002 13.919999999999998 C 20.04 13.559999999999999, 19.905 13.440000000000001, 20.34 13.200000000000001 C 20.91 13.080000000000002, 21 12.975000000000001, 21.48 12.96 C 21.869999999999997 13.05, 21.9 12.96, 22.259999999999998 13.14 C 22.589999999999996 13.41, 22.604999999999997 13.305, 22.919999999999998 13.68 C 23.22 14.16, 23.189999999999998 13.995000000000001, 23.52 14.64 C 23.880000000000003 15.45, 23.955000000000002 15.179999999999998, 24.240000000000002 16.259999999999998 C 24.450000000000003 17.61, 24.555000000000003 17.64, 24.660000000000004 18.96 C 24.660000000000004 20.25, 24.660000000000004 20.384999999999998, 24.660000000000004 21.54 C 24.660000000000004 22.560000000000002, 24.705000000000005 22.275000000000002, 24.660000000000004 23.580000000000002 C 24.57 25.17, 24.705000000000002 25.275, 24.48 26.759999999999998 C 24.119999999999997 28.14, 24.18 28.14, 23.759999999999998 29.52 C 23.279999999999998 30.9, 23.219999999999995 30.975, 22.799999999999997 32.28 C 22.439999999999998 33.510000000000005, 22.425 33.72, 22.080000000000002 34.74 C 21.75 35.55, 21.585 35.955, 21.419999999999998 36.36 C 21.419999999999998 36.36, 21.45 36.315, 21.419999999999998 36.36 L 21.299999999999997 36.54" fill="none" stroke="black" stroke-width="2"></path><path d="M 12.72 32.94 C 12.99 33.18, 13.05 33.09, 13.26 33.42 C 13.41 33.84, 13.379999999999999 33.855, 13.559999999999999 34.26 C 13.77 34.65, 13.815 34.754999999999995, 13.98 35.04 C 14.100000000000001 35.22, 14.115000000000002 35.26500000000001, 14.22 35.400000000000006 C 14.309999999999999 35.49, 14.339999999999998 35.49, 14.399999999999999 35.58 L 14.46 35.76" fill="none" stroke="black" stroke-width="2"></path><path d="M 10.86 37.08 C 10.86 37.019999999999996, 10.44 37.02, 10.86 36.96 C 11.7 36.9, 11.145 36.974999999999994, 12.54 36.839999999999996 C 14.49 36.629999999999995, 14.46 36.51, 16.44 36.42 C 18.450000000000003 36.45, 18.765 36.37500000000001, 20.46 36.480000000000004 C 21.84 36.66, 22.14 36.675, 23.22 36.839999999999996 C 24 36.989999999999995, 24.270000000000003 37.004999999999995, 24.78 37.14 C 25.02 37.260000000000005, 25.14 37.32, 25.259999999999998 37.38 L 25.259999999999998 37.38" fill="none" stroke="black" stroke-width="2"></path><path d="M 16.919999999999998 18.6 C 16.979999999999997 18.33, 16.95 18.525, 17.04 18.06 C 17.16 17.4, 17.16 17.385, 17.28 16.740000000000002 C 17.4 16.11, 17.4 16.215, 17.52 15.48 C 17.64 14.64, 17.654999999999998 14.625, 17.759999999999998 13.799999999999999 C 17.85 12.989999999999998, 17.85 13.184999999999999, 17.94 12.18 C 18.03 10.98, 18.075000000000003 11.19, 18.12 9.78 C 18.12 8.16, 18.12 7.815000000000001, 18.12 6.540000000000001 C 18.12 5.61, 18.12 5.265000000000001, 18.12 4.68 C 18.12 4.4399999999999995, 18.12 4.634999999999999, 18.12 4.199999999999999 C 18.12 3.5699999999999994, 18.12 3.4349999999999996, 18.12 2.94 C 18.12 2.58, 18.12 2.6399999999999997, 18.12 2.2199999999999998 C 18.12 1.7399999999999998, 18.12 1.5, 18.12 1.26 L 18.12 1.26" fill="none" stroke="black" stroke-width="2"></path></svg>