<svg width="48" height="48" viewBox="0 0 48 48" xmlns="http://www.w3.org/2000/svg"><path d="M 15.48 4.199999999999999 C 15.42 4.4399999999999995, 15.344999999999999 4.244999999999999, 15.36 4.68 C 15.45 5.31, 15.495 5.01, 15.54 5.9399999999999995 C 15.54 7.169999999999999, 15.479999999999999 7.079999999999998, 15.54 8.399999999999999 C 15.66 9.809999999999999, 15.69 9.870000000000001, 15.78 11.22 C 15.84 12.51, 15.87 12.854999999999999, 15.899999999999999 13.799999999999999 C 15.899999999999999 14.399999999999999, 15.854999999999997 14.31, 15.899999999999999 15 C 15.99 15.78, 16.005000000000003 15.764999999999999, 16.080000000000002 16.56 C 16.14 17.369999999999997, 16.095000000000002 17.46, 16.200000000000003 18.18 C 16.35 18.810000000000002, 16.395 18.96, 16.5 19.44 C 16.560000000000002 19.770000000000003, 16.5 19.695, 16.62 20.1 C 16.8 20.58, 16.830000000000002 20.759999999999998, 16.98 21.06 C 17.1 21.18, 16.904999999999998 21.209999999999997, 17.22 21.299999999999997 C 17.73 21.36, 17.55 21.299999999999997, 18.240000000000002 21.419999999999998 C 19.11 21.6, 18.840000000000003 21.645, 19.98 21.78 C 21.39 21.87, 21.419999999999998 21.87, 22.799999999999997 21.96 C 24.15 22.05, 24.165 22.095, 25.5 22.14 C 26.82 22.14, 27.18 22.14, 28.14 22.14 C 28.74 22.14, 28.679999999999996 22.14, 29.339999999999996 22.14 C 30.06 22.14, 30.3 22.155, 30.78 22.14 C 31.02 22.11, 30.99 22.32, 31.259999999999998 22.080000000000002 C 31.56 21.630000000000003, 31.619999999999997 21.93, 31.86 21.18 C 32.04 20.130000000000003, 32.084999999999994 20.1, 32.22 19.080000000000002 C 32.31 18.090000000000003, 32.355000000000004 18.435000000000002, 32.400000000000006 17.1 C 32.400000000000006 15.420000000000002, 32.415000000000006 15.225000000000001, 32.400000000000006 13.74 C 32.370000000000005 12.45, 32.4 12.39, 32.339999999999996 11.16 C 32.25 9.99, 32.235 9.690000000000001, 32.160000000000004 8.82 C 32.1 8.25, 32.115 8.115, 32.04 7.68 C 31.95 7.38, 31.95 7.35, 31.86 7.08 C 31.77 6.84, 31.785 6.930000000000001, 31.68 6.6000000000000005 L 31.44 5.76" fill="none" stroke="black" stroke-width="2"></path><path d="M 23.94 3.84 C 23.76 4.92, 23.67 4.71, 23.580000000000002 6 C 23.580000000000002 7.5, 23.625000000000004 7.71, 23.580000000000002 9 C 23.490000000000002 10.08, 23.445 10.125, 23.4 11.16 C 23.4 12.15, 23.4 12.18, 23.4 13.14 C 23.4 14.07, 23.4 13.995000000000001, 23.4 15 C 23.4 16.08, 23.4 16.125, 23.4 17.16 C 23.4 18.15, 23.4 18.450000000000003, 23.4 19.14 C 23.4 19.53, 23.4 19.65, 23.4 19.919999999999998 C 23.4 20.07, 23.4 20.025, 23.4 20.22 C 23.4 20.46, 23.354999999999997 20.385, 23.4 20.700000000000003 C 23.490000000000002 21.090000000000003, 23.535 21.165, 23.580000000000002 21.48 C 23.580000000000002 21.72, 23.580000000000002 21.84, 23.580000000000002 21.96 C 23.580000000000002 21.96, 23.580000000000002 21.96, 23.580000000000002 21.96 L 23.580000000000002 21.96" fill="none" stroke="black" stroke-width="2"></path><path d="M 19.44 21.299999999999997 C 19.44 21.96, 19.44 21.72, 19.44 22.62 C 19.44 23.76, 19.44 23.550000000000004, 19.44 24.900000000000002 C 19.44 26.46, 19.44 26.445, 19.44 28.02 C 19.44 29.61, 19.425 29.625000000000004, 19.44 31.200000000000003 C 19.47 32.760000000000005, 19.44 33.015, 19.5 34.32 C 19.59 35.370000000000005, 19.619999999999997 35.28, 19.68 36.42 C 19.71 37.650000000000006, 19.695 37.74, 19.740000000000002 38.88 C 19.8 39.93000000000001, 19.785 40.050000000000004, 19.86 40.980000000000004 C 19.95 41.79, 19.965 41.925, 20.04 42.599999999999994 C 20.1 43.14, 20.13 43.379999999999995, 20.16 43.68 C 20.16 43.739999999999995, 20.16 43.769999999999996, 20.16 43.8 C 20.16 43.8, 20.16 43.8, 20.16 43.8 C 20.16 43.8, 20.16 43.8, 20.16 43.8 L 20.16 43.8" fill="none" stroke="black" stroke-width="2"></path><path d="M 27.119999999999997 22.919999999999998 C 27.119999999999997 23.91, 26.955 23.325000000000003, 27.119999999999997 24.900000000000002 C 27.45 27.060000000000002, 27.57 27.21, 27.78 29.22 C 27.87 31.08, 27.915 31.29, 27.96 32.94 C 27.96 34.379999999999995, 27.96 34.695, 27.96 35.82 C 27.96 36.629999999999995, 27.96 36.644999999999996, 27.96 37.44 C 27.96 38.22, 27.96 38.265, 27.96 39 C 27.96 39.69, 27.96 39.72, 27.96 40.38 C 27.96 41.010000000000005, 27.96 41.13, 27.96 41.64 C 27.96 42.03, 27.96 42.120000000000005, 27.96 42.42 C 27.96 42.629999999999995, 27.96 42.614999999999995, 27.96 42.839999999999996 C 27.96 43.08, 27.96 43.2, 27.96 43.32 C 27.96 43.32, 27.96 43.32, 27.96 43.32 L 27.96 43.32" fill="none" stroke="black" stroke-width="2"></path></svg>