<svg width="48" height="48" viewBox="0 0 48 48" xmlns="http://www.w3.org/2000/svg"><path d="M 20.88 1.5 C 20.88 2.04, 20.88 1.9050000000000002, 20.88 2.58 C 20.88 3.3899999999999997, 20.88 3.3149999999999995, 20.88 4.199999999999999 C 20.88 5.16, 20.88 5.145, 20.88 6.12 C 20.88 7.110000000000001, 20.88 7.080000000000002, 20.88 8.100000000000001 C 20.88 9.15, 20.88 9.24, 20.88 10.2 C 20.88 11.07, 20.88 10.89, 20.88 11.94 C 20.88 13.169999999999998, 20.88 13.214999999999998, 20.88 14.399999999999999 C 20.88 15.54, 20.88 15.84, 20.88 16.68 C 20.88 17.22, 20.88 17.369999999999997, 20.88 17.759999999999998 C 20.88 18, 20.88 17.970000000000002, 20.88 18.240000000000002 C 20.88 18.54, 20.88 18.495, 20.88 18.84 C 20.88 19.23, 20.88 19.425, 20.88 19.62 L 20.88 19.62" fill="none" stroke="black" stroke-width="2"></path><path d="M 13.86 17.04 C 13.829999999999998 17.759999999999998, 13.665 17.4, 13.799999999999999 18.48 C 14.099999999999998 19.92, 13.874999999999998 20.115, 14.399999999999999 21.36 C 15.149999999999999 22.41, 14.864999999999998 22.455, 15.899999999999999 23.46 C 17.22 24.42, 17.115 24.555000000000003, 18.54 25.380000000000003 C 20.07 26.07, 19.965000000000003 26.13, 21.6 26.759999999999998 C 23.34 27.33, 23.294999999999998 27.315, 25.08 27.900000000000002 C 26.91 28.5, 27.39 28.65, 28.740000000000002 29.099999999999998 C 29.61 29.4, 29.880000000000003 29.355000000000004, 30.48 29.700000000000003 C 30.810000000000002 30.090000000000003, 30.915 30.045, 31.14 30.48 C 31.26 30.96, 31.32 30.825000000000003, 31.380000000000003 31.44 C 31.380000000000003 32.19, 31.500000000000004 32.4, 31.380000000000003 32.94 C 31.14 33.269999999999996, 31.365000000000002 33.315, 30.900000000000002 33.599999999999994 C 30.21 33.839999999999996, 30.509999999999998 33.885, 29.52 34.08 C 28.23 34.230000000000004, 28.560000000000002 34.155, 26.94 34.38 C 24.990000000000002 34.68000000000001, 24.57 34.635000000000005, 23.04 34.980000000000004 C 21.93 35.370000000000005, 21.75 35.235, 20.82 35.76 C 20.07 36.42, 19.965 36.224999999999994, 19.32 37.08 C 18.78 38.129999999999995, 18.630000000000003 38.085, 18.240000000000002 39.18 C 18 40.32, 17.88 40.5, 17.759999999999998 41.46 C 17.759999999999998 42.239999999999995, 17.729999999999997 42.495, 17.759999999999998 43.019999999999996 C 17.82 43.29, 17.849999999999998 43.425, 17.88 43.56 L 17.88 43.56" fill="none" stroke="black" stroke-width="2"></path></svg>