<svg width="48" height="48" viewBox="0 0 48 48" xmlns="http://www.w3.org/2000/svg"><path d="M 18.54 2.4000000000000004 C 18.479999999999997 2.7, 18.45 2.31, 18.419999999999998 3 C 18.419999999999998 4.08, 18.419999999999998 4.065, 18.419999999999998 5.16 C 18.419999999999998 6.27, 18.404999999999998 6.105, 18.419999999999998 7.38 C 18.45 8.82, 18.465 8.85, 18.48 10.26 C 18.48 11.64, 18.48 11.625, 18.48 13.02 C 18.48 14.43, 18.495 14.7, 18.48 15.84 C 18.45 16.71, 18.435 17.025000000000002, 18.419999999999998 17.580000000000002 C 18.419999999999998 17.82, 18.419999999999998 17.939999999999998, 18.419999999999998 18.06 L 18.419999999999998 18.06" fill="none" stroke="black" stroke-width="2"></path><path d="M 17.580000000000002 24.78 C 17.580000000000002 25.86, 17.580000000000002 25.560000000000002, 17.580000000000002 26.94 C 17.580000000000002 28.619999999999997, 17.580000000000002 28.74, 17.580000000000002 30.299999999999997 C 17.580000000000002 31.74, 17.580000000000002 31.77, 17.580000000000002 33.18 C 17.580000000000002 34.56, 17.580000000000002 34.455, 17.580000000000002 35.94 C 17.580000000000002 37.53, 17.580000000000002 37.89, 17.580000000000002 39.12 C 17.580000000000002 39.989999999999995, 17.55 40.019999999999996, 17.580000000000002 40.86 C 17.64 41.67, 17.640000000000004 41.895, 17.700000000000003 42.480000000000004 C 17.76 42.84, 17.775000000000002 42.99, 17.82 43.2 C 17.85 43.260000000000005, 17.79 43.215, 17.88 43.32 C 18.03 43.47, 17.985 43.5, 18.18 43.62 C 18.42 43.709999999999994, 18.18 43.754999999999995, 18.66 43.8 C 19.380000000000003 43.8, 19.125 43.8, 20.1 43.8 C 21.33 43.8, 21.39 43.8, 22.56 43.8 C 23.67 43.8, 23.61 43.8, 24.78 43.8 C 26.01 43.8, 26.28 43.8, 27.240000000000002 43.8 C 27.93 43.8, 28.244999999999997 43.8, 28.619999999999997 43.8 C 28.68 43.8, 28.71 43.8, 28.740000000000002 43.8 L 28.740000000000002 43.8" fill="none" stroke="black" stroke-width="2"></path></svg>