<svg width="48" height="48" viewBox="0 0 48 48" xmlns="http://www.w3.org/2000/svg"><path d="M 20.64 2.2199999999999998 C 20.490000000000002 2.67, 20.46 2.6550000000000002, 20.34 3.12 C 20.25 3.6, 20.25 3.6, 20.16 4.08 C 20.07 4.5600000000000005, 20.025 4.605, 19.98 5.04 C 19.98 5.43, 20.01 5.340000000000001, 19.98 5.82 C 19.92 6.39, 19.89 6.479999999999999, 19.86 6.959999999999999 C 19.86 7.35, 19.86 7.380000000000001, 19.86 7.74 C 19.86 8.07, 19.86 8.04, 19.86 8.399999999999999 C 19.86 8.79, 19.86 8.76, 19.86 9.18 C 19.86 9.629999999999999, 19.86 9.645, 19.86 10.08 C 19.86 10.5, 19.86 10.47, 19.86 10.92 C 19.86 11.399999999999999, 19.86 11.385, 19.86 11.879999999999999 C 19.86 12.389999999999999, 19.86 12.374999999999998, 19.86 12.899999999999999 C 19.86 13.44, 19.86 13.455, 19.86 13.98 C 19.86 14.49, 19.86 14.445, 19.86 15 C 19.86 15.600000000000001, 19.86 15.705000000000002, 19.86 16.200000000000003 C 19.86 16.590000000000003, 19.86 16.590000000000003, 19.86 16.98 C 19.86 17.369999999999997, 19.86 17.369999999999997, 19.86 17.759999999999998 C 19.86 18.15, 19.89 18.284999999999997, 19.86 18.54 C 19.8 18.66, 19.770000000000003 18.72, 19.740000000000002 18.78 C 19.740000000000002 18.78, 19.740000000000002 18.78, 19.740000000000002 18.78 C 19.740000000000002 18.78, 19.740000000000002 18.78, 19.740000000000002 18.78 L 19.740000000000002 18.78" fill="none" stroke="transparent" stroke-width="2"></path><path d="M 19.799999999999997 22.740000000000002 C 19.56 22.71, 19.515 22.665, 19.32 22.68 C 19.17 22.74, 19.245 22.619999999999997, 19.02 22.799999999999997 C 18.72 23.099999999999998, 18.644999999999996 23.084999999999997, 18.419999999999998 23.4 C 18.27 23.729999999999997, 18.18 23.775, 18.12 24.06 C 18.15 24.299999999999997, 18.03 24.299999999999997, 18.18 24.54 C 18.45 24.78, 18.375 24.825, 18.72 25.02 C 19.14 25.17, 19.229999999999997 25.2, 19.56 25.32 C 19.799999999999997 25.41, 19.89 25.455, 20.04 25.5 C 20.1 25.5, 20.009999999999998 25.515, 20.16 25.5 C 20.4 25.47, 20.415 25.635, 20.64 25.44 C 20.85 25.08, 20.924999999999997 24.99, 21.06 24.72 C 21.119999999999997 24.54, 21.15 24.6, 21.18 24.36 C 21.18 24.06, 21.18 24, 21.18 23.759999999999998 C 21.18 23.58, 21.24 23.519999999999996, 21.18 23.4 C 21.060000000000002 23.34, 21.105 23.355, 20.94 23.28 C 20.73 23.19, 20.775 23.175, 20.52 23.1 C 20.22 23.04, 20.294999999999998 23.01, 19.919999999999998 22.98 C 19.47 22.98, 19.38 22.92, 19.02 22.98 C 18.75 23.1, 18.735 22.994999999999997, 18.48 23.22 C 18.240000000000002 23.549999999999997, 18.12 23.49, 18 23.88 C 18 24.33, 17.79 24.36, 18 24.78 C 18.42 25.17, 18.465 25.259999999999998, 18.84 25.56 C 19.17 25.77, 19.245 25.845, 19.5 25.98 C 19.68 26.04, 19.68 26.07, 19.86 26.099999999999998 C 20.04 26.099999999999998, 19.965 26.144999999999996, 20.22 26.099999999999998 C 20.549999999999997 26.009999999999998, 20.58 26.205000000000002, 20.88 25.92 C 21.15 25.44, 21.18 25.44, 21.419999999999998 24.96 C 21.63 24.48, 21.735 24.435000000000002, 21.84 24 C 21.84 23.61, 21.84 23.474999999999998, 21.84 23.22 C 21.84 23.1, 21.884999999999998 23.085, 21.84 22.98 C 21.75 22.89, 21.9 22.874999999999996, 21.66 22.799999999999997 C 21.27 22.74, 21.299999999999997 22.71, 20.88 22.68 C 20.43 22.68, 20.4 22.665, 19.98 22.68 C 19.590000000000003 22.71, 19.635 22.590000000000003, 19.200000000000003 22.740000000000002 C 18.720000000000002 23.01, 18.615000000000002 22.935000000000002, 18.240000000000002 23.28 C 17.970000000000002 23.7, 17.865000000000002 23.58, 17.700000000000003 24.119999999999997 C 17.64 24.78, 17.535000000000004 24.795, 17.580000000000002 25.44 C 17.73 26.07, 17.685 26.250000000000004, 17.88 26.700000000000003 C 18.119999999999997 26.970000000000002, 18.09 27.090000000000003, 18.36 27.240000000000002 C 18.66 27.27, 18.57 27.284999999999997, 18.96 27.299999999999997 C 19.439999999999998 27.299999999999997, 19.38 27.479999999999997, 19.919999999999998 27.299999999999997 C 20.52 26.939999999999998, 20.655 26.97, 21.12 26.58 C 21.450000000000003 26.16, 21.615000000000002 26.115000000000002, 21.78 25.740000000000002 C 21.78 25.41, 21.885 25.455, 21.78 25.08 C 21.57 24.66, 21.645 24.57, 21.36 24.240000000000002 C 21 24, 20.880000000000003 23.909999999999997, 20.64 23.759999999999998 C 20.52 23.7, 20.52 23.685, 20.4 23.64 C 20.28 23.61, 20.4 23.505000000000003, 20.16 23.580000000000002 C 19.8 23.76, 19.725 23.61, 19.44 23.94 C 19.23 24.42, 19.125 24.465000000000003, 19.02 24.900000000000002 C 19.02 25.29, 18.93 25.365, 19.02 25.68 C 19.2 25.92, 19.2 25.980000000000004, 19.38 26.160000000000004 C 19.560000000000002 26.28, 19.62 26.325000000000003, 19.740000000000002 26.400000000000002 C 19.8 26.43, 19.83 26.445, 19.86 26.46 C 19.86 26.46, 19.845 26.595, 19.86 26.46 C 19.89 26.19, 19.904999999999998 26.28, 19.919999999999998 25.92 C 19.919999999999998 25.47, 19.919999999999998 25.275, 19.919999999999998 25.02 C 19.919999999999998 24.96, 19.919999999999998 24.93, 19.919999999999998 24.900000000000002 C 19.919999999999998 24.900000000000002, 19.919999999999998 24.900000000000002, 19.919999999999998 24.900000000000002 C 19.919999999999998 24.900000000000002, 19.919999999999998 24.900000000000002, 19.919999999999998 24.900000000000002 L 19.919999999999998 24.900000000000002" fill="none" stroke="black" stroke-width="2"></path><path d="M 19.259999999999998 31.380000000000003 C 19.29 31.560000000000002, 19.275 31.425000000000004, 19.32 31.740000000000002 C 19.380000000000003 32.19, 19.395000000000003 32.22, 19.44 32.64 C 19.47 33.03, 19.44 32.985, 19.5 33.42 C 19.59 33.900000000000006, 19.59 33.945, 19.68 34.38 C 19.77 34.77, 19.814999999999998 34.800000000000004, 19.86 35.160000000000004 C 19.86 35.49, 19.83 35.49, 19.86 35.82 C 19.92 36.150000000000006, 19.95 36.09, 19.98 36.480000000000004 C 19.98 36.93000000000001, 19.98 36.855000000000004, 19.98 37.38 C 19.98 37.980000000000004, 19.98 38.025, 19.98 38.58 C 19.98 39.089999999999996, 19.98 39.14999999999999, 19.98 39.599999999999994 C 19.98 39.989999999999995, 19.98 39.96, 19.98 40.38 C 19.98 40.83, 19.98 40.86, 19.98 41.28 C 19.98 41.67, 19.995 41.67, 19.98 42.06 C 19.95 42.45, 19.935 42.449999999999996, 19.919999999999998 42.839999999999996 C 19.919999999999998 43.23, 19.919999999999998 43.184999999999995, 19.919999999999998 43.62 C 19.919999999999998 44.099999999999994, 19.919999999999998 44.28, 19.919999999999998 44.58 C 19.919999999999998 44.7, 19.919999999999998 44.67, 19.919999999999998 44.82 C 19.919999999999998 45, 19.935 45, 19.919999999999998 45.18 C 19.89 45.36, 19.89 45.42, 19.86 45.54 C 19.83 45.6, 19.814999999999998 45.510000000000005, 19.799999999999997 45.660000000000004 C 19.799999999999997 45.900000000000006, 19.799999999999997 45.99, 19.799999999999997 46.14 C 19.799999999999997 46.2, 19.799999999999997 46.155, 19.799999999999997 46.26 C 19.799999999999997 46.41, 19.799999999999997 46.455, 19.799999999999997 46.56 C 19.799999999999997 46.620000000000005, 19.799999999999997 46.65, 19.799999999999997 46.68 C 19.799999999999997 46.68, 19.799999999999997 46.65, 19.799999999999997 46.68 C 19.799999999999997 46.739999999999995, 19.799999999999997 46.769999999999996, 19.799999999999997 46.8 C 19.799999999999997 46.8, 19.799999999999997 46.8, 19.799999999999997 46.8 C 19.799999999999997 46.8, 19.799999999999997 46.8, 19.799999999999997 46.8 C 19.799999999999997 46.8, 19.799999999999997 46.8, 19.799999999999997 46.8 C 19.799999999999997 46.8, 19.799999999999997 46.8, 19.799999999999997 46.8 L 19.799999999999997 46.8" fill="none" stroke="transparent" stroke-width="2"></path></svg>