<svg width="48" height="48" viewBox="0 0 48 48" xmlns="http://www.w3.org/2000/svg"><path d="M 11.58 2.88 C 11.07 4.35, 11.07 3.615, 10.56 5.82 C 10.05 8.76, 9.795000000000002 9.225, 9.540000000000001 11.7 C 9.540000000000001 13.71, 9.345 14.355, 9.540000000000001 15.72 C 9.93 16.44, 10.035 16.77, 10.32 17.16 C 10.5 17.22, 10.395 17.295, 10.68 17.28 C 11.07 17.19, 10.815 17.580000000000002, 11.459999999999999 17.1 C 12.36 16.23, 12.434999999999999 16.275, 13.26 15.36 C 14.01 14.4, 14.325 14.265, 14.76 13.440000000000001 C 14.879999999999999 12.75, 14.91 12.434999999999999, 15 12.059999999999999 C 15.06 12, 15.09 11.969999999999999, 15.120000000000001 11.94 C 15.120000000000001 11.94, 15.120000000000001 11.94, 15.120000000000001 11.94 C 15.120000000000001 11.94, 15.120000000000001 11.94, 15.120000000000001 11.94 C 15.120000000000001 11.94, 15.120000000000001 11.94, 15.120000000000001 11.94 C 15.120000000000001 11.94, 15.120000000000001 11.94, 15.120000000000001 11.94 L 15.120000000000001 11.94" fill="none" stroke="black" stroke-width="2"></path><path d="M 14.940000000000001 11.7 C 14.580000000000002 12.87, 14.4 12.809999999999999, 14.22 14.04 C 14.22 15.33, 14.22 15.540000000000001, 14.22 16.62 C 14.22 17.490000000000002, 13.965 17.67, 14.22 18.36 C 14.73 18.869999999999997, 14.535 18.915, 15.24 19.38 C 16.14 19.799999999999997, 16.049999999999997 20.009999999999998, 17.04 20.22 C 18.12 20.22, 17.955000000000002 20.31, 19.200000000000003 20.22 C 20.61 20.04, 21.075 20.07, 22.02 19.86 C 22.5 19.619999999999997, 22.41 19.724999999999998, 22.98 19.38 C 23.64 18.93, 23.49 19.335, 24.299999999999997 18.48 C 25.259999999999998 17.22, 25.395 17.595000000000002, 26.22 15.96 C 26.909999999999997 13.95, 27.044999999999998 14.115, 27.599999999999998 11.94 C 28.02 9.6, 28.125 9.584999999999999, 28.44 7.26 C 28.65 4.95, 28.755 3.93, 28.86 2.64 L 28.86 2.0999999999999996" fill="none" stroke="black" stroke-width="2"></path><path d="M 16.5 20.22 C 16.65 21.39, 16.304999999999996 21.15, 16.799999999999997 22.56 C 17.64 24.21, 17.505 24.705, 18.48 25.86 C 19.590000000000003 26.52, 19.695000000000004 26.805, 20.700000000000003 27.18 C 21.6 27.27, 21.885 27.27, 22.5 27.36 C 22.83 27.45, 22.995 27.494999999999997, 23.16 27.54 L 23.16 27.54" fill="none" stroke="black" stroke-width="2"></path><path d="M 23.1 27.54 C 21.78 27.87, 21.915 27.645000000000003, 20.46 28.200000000000003 C 18.87 28.98, 18.525000000000002 28.935, 17.28 29.759999999999998 C 16.380000000000003 30.63, 16.47 29.835, 15.48 31.5 C 14.4 33.96, 13.92 34.335, 13.32 36.42 C 13.200000000000001 38.129999999999995, 13.14 38.535, 13.080000000000002 39.839999999999996 L 13.080000000000002 41.64" fill="none" stroke="black" stroke-width="2"></path><path d="M 8.94 26.94 C 10.11 28.44, 10.139999999999999 28.575, 11.28 29.94 C 12.39 31.17, 12.674999999999999 31.455000000000005, 13.5 32.400000000000006 C 14.040000000000001 33.06, 14.310000000000002 33.39, 14.580000000000002 33.72 L 14.580000000000002 33.72" fill="none" stroke="black" stroke-width="2"></path></svg>