<svg width="48" height="48" viewBox="0 0 48 48" xmlns="http://www.w3.org/2000/svg"><path d="M 40.32 3.3000000000000003 C 40.32 4.71, 40.26 4.62, 40.32 6.12 C 40.44 7.710000000000001, 40.5 7.590000000000001, 40.56 9.3 C 40.56 11.13, 40.620000000000005 11.010000000000002, 40.56 12.96 C 40.44 15.030000000000001, 40.59 15.645000000000001, 40.32 17.1 C 39.900000000000006 17.94, 40.050000000000004 18.03, 39.480000000000004 18.78 C 38.760000000000005 19.44, 38.685 19.725, 38.04 20.1 C 37.47 20.19, 37.650000000000006 20.265, 36.900000000000006 20.28 C 35.97 20.22, 35.82 20.67, 35.04 20.16 C 34.41 19.200000000000003, 34.35 19.455000000000002, 33.78 18.240000000000002 C 33.269999999999996 16.77, 33.105 16.425, 32.76 15.299999999999999 C 32.58 14.52, 32.52 14.25, 32.400000000000006 13.74 C 32.34 13.5, 32.31 13.379999999999999, 32.28 13.26 C 32.28 13.26, 32.46 12.765, 32.28 13.26 C 31.92 14.25, 31.814999999999998 14.37, 31.56 15.24 C 31.409999999999997 15.990000000000002, 31.529999999999998 16.155, 31.259999999999998 16.740000000000002 C 30.869999999999997 17.160000000000004, 31.455 17.07, 30.48 17.580000000000002 C 28.92 18.18, 29.025 18.375, 27.36 18.78 C 25.59 18.990000000000002, 25.14 19.050000000000004, 23.82 19.200000000000003 C 22.950000000000003 19.29, 23.1 19.35, 22.080000000000002 19.38 C 20.910000000000004 19.35, 20.685000000000002 19.38, 19.740000000000002 19.32 C 19.02 19.23, 18.779999999999998 19.185000000000002, 18.299999999999997 19.14 C 18.06 19.14, 17.939999999999998 19.14, 17.82 19.14 L 17.82 19.14" fill="none" stroke="black" stroke-width="2"></path><path d="M 21.84 19.38 C 21.9 20.339999999999996, 22.065 19.379999999999995, 21.96 21.299999999999997 C 21.689999999999998 24.18, 21.615 24.345, 21.419999999999998 27.06 C 21.299999999999997 29.61, 21.285 30.015000000000004, 21.18 32.160000000000004 C 21.09 33.900000000000006, 21.045 33.585, 21 35.64 C 21 38.010000000000005, 21 38.43000000000001, 21 40.38 C 21 41.91, 21.045 42.165, 21 43.44 C 20.91 44.46, 20.865000000000002 44.865, 20.82 45.480000000000004 C 20.82 45.690000000000005, 20.82 45.795, 20.82 45.900000000000006 L 20.82 45.900000000000006" fill="none" stroke="black" stroke-width="2"></path><path d="M 30.299999999999997 18.36 C 30.299999999999997 19.95, 30.314999999999998 19.23, 30.299999999999997 21.54 C 30.27 24.57, 30.315 25.334999999999997, 30.240000000000002 27.599999999999998 C 30.12 29.099999999999998, 30.105 28.649999999999995, 30 30.599999999999998 C 29.91 33, 29.865000000000002 33.330000000000005, 29.82 35.400000000000006 C 29.82 37.14, 29.82 37.455000000000005, 29.82 38.88 C 29.82 39.989999999999995, 29.82 40.12499999999999, 29.82 41.099999999999994 C 29.82 41.94, 29.85 42.015, 29.82 42.78 C 29.76 43.47, 29.745000000000005 43.665000000000006, 29.700000000000003 44.160000000000004 C 29.67 44.46, 29.655 44.61, 29.64 44.76 L 29.64 44.76" fill="none" stroke="black" stroke-width="2"></path></svg>