<svg width="48" height="48" viewBox="0 0 48 48" xmlns="http://www.w3.org/2000/svg"><path d="M 5.16 45.18 C 5.07 44.129999999999995, 5.069999999999999 45.15, 4.9799999999999995 43.08 C 4.890000000000001 39.99, 4.845000000000001 39.825, 4.800000000000001 36.900000000000006 C 4.800000000000001 34.14, 4.800000000000001 33.915000000000006, 4.800000000000001 31.380000000000003 C 4.800000000000001 29.07, 4.800000000000001 28.74, 4.800000000000001 26.759999999999998 C 4.800000000000001 25.11, 4.65 25.65, 4.800000000000001 23.46 C 5.1000000000000005 20.73, 5.115 20.04, 5.4 18 C 5.67 16.65, 5.654999999999999 16.455, 5.9399999999999995 15.299999999999999 C 6.24 14.34, 6.195 14.174999999999999, 6.540000000000001 13.379999999999999 C 6.930000000000001 12.75, 6.855 12.63, 7.32 12.120000000000001 C 7.859999999999999 11.73, 7.934999999999999 11.58, 8.399999999999999 11.34 C 8.79 11.25, 8.76 11.205, 9.18 11.16 C 9.629999999999999 11.16, 9.645 11.025, 10.08 11.16 C 10.5 11.43, 10.53 11.399999999999999, 10.92 11.7 C 11.280000000000001 12.03, 11.280000000000001 11.94, 11.64 12.36 C 12 12.87, 11.94 12.659999999999998, 12.36 13.379999999999999 C 12.84 14.309999999999999, 12.81 13.89, 13.32 15.24 C 13.86 17.01, 13.919999999999998 16.815, 14.399999999999999 18.78 C 14.82 20.94, 14.955 21.345000000000002, 15.24 23.1 C 15.39 24.45, 15.419999999999998 24.525, 15.54 25.799999999999997 C 15.629999999999999 27, 15.63 27.330000000000002, 15.72 28.200000000000003 C 15.809999999999999 28.740000000000002, 15.854999999999999 28.965000000000003, 15.899999999999999 29.28 C 15.899999999999999 29.37, 15.869999999999997 29.385, 15.899999999999999 29.46 C 15.959999999999999 29.52, 15.989999999999998 29.549999999999997, 16.02 29.58 C 16.02 29.58, 16.02 29.58, 16.02 29.58 C 16.02 29.58, 16.02 29.58, 16.02 29.58 C 16.02 29.58, 15.735 29.61, 16.02 29.58 C 16.59 29.52, 16.32 29.595, 17.16 29.46 C 18.27 29.25, 18.195 29.22, 19.38 29.04 C 20.64 28.89, 20.985 28.815, 21.9 28.740000000000002 C 22.47 28.740000000000002, 22.544999999999998 28.695, 23.04 28.740000000000002 C 23.46 28.830000000000002, 23.46 28.665000000000003, 23.88 28.92 C 24.299999999999997 29.34, 24.33 29.189999999999998, 24.72 29.759999999999998 C 25.08 30.48, 25.08 30.285000000000004, 25.44 31.200000000000003 C 25.800000000000004 32.31, 25.935000000000006 32.13, 26.160000000000004 33.42 C 26.25 34.89, 26.294999999999998 35.22, 26.339999999999996 36.36 C 26.339999999999996 37.17, 26.339999999999996 36.93000000000001, 26.339999999999996 37.980000000000004 C 26.339999999999996 39.27, 26.384999999999994 39.435, 26.339999999999996 40.56 C 26.25 41.52, 26.295 41.7, 26.160000000000004 42.480000000000004 C 25.98 43.08, 25.935 43.185, 25.799999999999997 43.68 C 25.709999999999997 44.07, 25.665 44.145, 25.619999999999997 44.46 C 25.619999999999997 44.7, 25.619999999999997 44.82, 25.619999999999997 44.94 C 25.619999999999997 44.94, 25.619999999999997 44.94, 25.619999999999997 44.94 L 25.619999999999997 44.94" fill="none" stroke="black" stroke-width="2"></path></svg>