<svg width="48" height="48" viewBox="0 0 48 48" xmlns="http://www.w3.org/2000/svg"><path d="M 10.26 22.919999999999998 C 9.99 22.29, 10.035 22.89, 9.72 21.66 C 9.36 19.83, 9.225 19.560000000000002, 9 18 C 8.91 16.71, 8.865 17.144999999999996, 8.82 15.419999999999998 C 8.82 13.26, 8.7 12.675, 8.82 11.100000000000001 C 9.06 10.110000000000001, 8.625 10.185000000000002, 9.3 9.120000000000001 C 10.41 7.98, 10.32 7.86, 11.52 6.84 C 12.81 5.9399999999999995, 13.215000000000002 5.52, 14.100000000000001 5.04 C 14.58 4.98, 14.474999999999998 4.59, 15.059999999999999 4.92 C 15.75 5.640000000000001, 15.795000000000002 5.460000000000001, 16.44 6.36 C 17.04 7.4399999999999995, 17.1 7.305, 17.64 8.52 C 18.12 9.870000000000001, 18.195 9.825, 18.6 11.22 C 18.93 12.66, 19.02 12.915000000000001, 19.259999999999998 14.100000000000001 C 19.409999999999997 15.030000000000001, 19.455 15.375, 19.56 15.96 C 19.619999999999997 16.200000000000003, 19.62 16.200000000000003, 19.68 16.44 C 19.74 16.68, 19.769999999999996 16.799999999999997, 19.799999999999997 16.919999999999998 C 19.799999999999997 16.919999999999998, 19.784999999999997 16.799999999999997, 19.799999999999997 16.919999999999998 C 19.83 17.159999999999997, 19.845 17.159999999999997, 19.86 17.4 C 19.86 17.64, 19.86 17.759999999999998, 19.86 17.88 L 19.86 17.88" fill="none" stroke="black" stroke-width="2"></path><path d="M 20.22 17.759999999999998 C 21.18 17.4, 20.835 17.22, 22.14 17.04 C 23.79 17.04, 24 17.04, 25.44 17.04 C 26.67 17.04, 26.610000000000003 16.979999999999997, 27.900000000000002 17.04 C 29.25 17.16, 29.595 17.07, 30.599999999999998 17.28 C 31.259999999999998 17.58, 31.275000000000002 17.46, 31.92 17.88 C 32.55 18.42, 32.715 18.36, 33.18 18.96 C 33.480000000000004 19.62, 33.510000000000005 19.605, 33.78 20.28 C 34.019999999999996 20.97, 34.095 20.97, 34.26 21.66 C 34.349999999999994 22.35, 34.364999999999995 22.619999999999997, 34.44 23.04 L 34.56 23.34" fill="none" stroke="black" stroke-width="2"></path><path d="M 20.1 17.16 C 20.340000000000003 18.09, 20.325000000000003 17.58, 20.580000000000002 19.02 C 20.85 20.97, 20.880000000000003 20.849999999999998, 21.12 22.919999999999998 C 21.33 25.11, 21.525 25.199999999999996, 21.54 27.299999999999997 C 21.36 29.31, 21.6 29.669999999999998, 21.18 31.32 C 20.52 32.61, 21.134999999999998 32.11500000000001, 19.86 33.900000000000006 C 17.97 36.18000000000001, 17.385 36.99, 16.080000000000002 38.46 C 15.360000000000001 39.120000000000005, 15.21 39.255, 14.64 39.78 L 13.799999999999999 40.56" fill="none" stroke="black" stroke-width="2"></path><path d="M 27.06 31.799999999999997 C 26.939999999999998 34.05, 27.135 34.26, 26.82 36.3 C 26.31 38.129999999999995, 26.534999999999997 38.46, 25.799999999999997 39.96 C 24.839999999999996 41.129999999999995, 24.72 41.415, 23.88 42.3 C 23.16 42.9, 22.965 43.125, 22.44 43.5 L 21.78 43.8" fill="none" stroke="black" stroke-width="2"></path></svg>