<svg width="48" height="48" viewBox="0 0 48 48" xmlns="http://www.w3.org/2000/svg"><path d="M 13.86 41.94 C 13.139999999999999 42.03, 13.29 42.03, 12.419999999999998 42.12 C 11.399999999999999 42.209999999999994, 11.235 42.209999999999994, 10.379999999999999 42.3 C 9.69 42.39, 9.81 42.435, 9 42.480000000000004 C 8.07 42.480000000000004, 7.6049999999999995 42.480000000000004, 7.14 42.480000000000004 C 7.14 42.480000000000004, 7.14 42.480000000000004, 7.14 42.480000000000004 C 7.14 42.480000000000004, 7.14 42.480000000000004, 7.14 42.480000000000004 L 7.14 42.480000000000004" fill="none" stroke="black" stroke-width="2"></path><path d="M 7.5 41.94 C 7.2299999999999995 40.92, 7.199999999999999 41.160000000000004, 6.959999999999999 39.900000000000006 C 6.75 38.400000000000006, 6.6450000000000005 38.355000000000004, 6.540000000000001 36.900000000000006 C 6.540000000000001 35.49, 6.585000000000001 35.79, 6.540000000000001 34.08 C 6.450000000000001 32.07, 6.405 31.604999999999997, 6.36 30.06 C 6.36 28.98, 6.465000000000001 29.610000000000003, 6.36 27.900000000000002 C 6.15 25.560000000000002, 6.045 25.2, 5.9399999999999995 23.22 C 5.9399999999999995 21.6, 5.895 21.585, 5.9399999999999995 19.98 C 6.029999999999999 18.39, 5.955 18.269999999999996, 6.12 16.799999999999997 C 6.36 15.45, 6.345000000000001 15.39, 6.6000000000000005 14.100000000000001 C 6.87 12.870000000000001, 6.8549999999999995 12.57, 7.14 11.64 C 7.4399999999999995 11.01, 7.305000000000001 11.07, 7.74 10.379999999999999 C 8.309999999999999 9.629999999999999, 8.459999999999999 9.375, 8.879999999999999 8.879999999999999 C 9.149999999999999 8.639999999999999, 8.985 8.52, 9.42 8.399999999999999 C 10.02 8.399999999999999, 10.170000000000002 8.399999999999999, 10.620000000000001 8.399999999999999 C 10.920000000000002 8.399999999999999, 10.905000000000001 8.325, 11.22 8.399999999999999 C 11.55 8.549999999999999, 11.565 8.52, 11.879999999999999 8.7 C 12.18 8.91, 12.18 8.850000000000001, 12.48 9.120000000000001 C 12.780000000000001 9.45, 12.660000000000002 9.225, 13.080000000000002 9.78 C 13.620000000000001 10.559999999999999, 13.755 10.53, 14.16 11.34 C 14.43 12.18, 14.490000000000002 12.149999999999999, 14.700000000000001 13.02 C 14.850000000000001 13.92, 14.88 13.665, 15 14.82 C 15.09 16.23, 15.09 16.41, 15.18 17.64 C 15.27 18.69, 15.315 18.78, 15.36 19.740000000000002 C 15.36 20.61, 15.329999999999998 20.700000000000003, 15.36 21.48 C 15.42 22.17, 15.45 22.29, 15.48 22.86 C 15.48 23.31, 15.435 23.249999999999996, 15.48 23.759999999999998 C 15.57 24.33, 15.585 24.585, 15.66 24.900000000000002 C 15.719999999999999 24.96, 15.735 24.945, 15.78 25.02 C 15.809999999999999 25.11, 15.78 25.110000000000003, 15.84 25.200000000000003 C 15.93 25.290000000000003, 15.93 25.320000000000004, 16.02 25.380000000000003 C 16.11 25.410000000000004, 15.945000000000004 25.425, 16.200000000000003 25.44 C 16.62 25.44, 16.29 25.5, 17.04 25.44 C 18.12 25.32, 18.045 25.335, 19.200000000000003 25.200000000000003 C 20.43 25.050000000000004, 20.745 24.975, 21.66 24.900000000000002 C 22.259999999999998 24.900000000000002, 22.365 24.900000000000002, 22.86 24.900000000000002 C 23.25 24.900000000000002, 23.235 24.795, 23.64 24.900000000000002 C 24.060000000000002 25.11, 24.015 24.900000000000002, 24.48 25.32 C 24.990000000000002 25.95, 25.08 25.86, 25.5 26.58 C 25.830000000000002 27.39, 25.935000000000002 27.480000000000004, 26.160000000000004 28.200000000000003 C 26.28 28.830000000000002, 26.295 28.380000000000003, 26.400000000000002 29.46 C 26.490000000000002 30.99, 26.535 31.259999999999998, 26.58 32.519999999999996 C 26.58 33.51, 26.654999999999998 33.269999999999996, 26.58 34.5 C 26.43 35.97, 26.46 36.209999999999994, 26.28 37.44 C 26.07 38.43, 26.009999999999998 38.625, 25.86 39.42 C 25.77 40.019999999999996, 25.740000000000002 40.155, 25.68 40.62 C 25.65 40.95, 25.665 40.89, 25.619999999999997 41.28 C 25.56 41.730000000000004, 25.53 41.955, 25.5 42.18 C 25.5 42.18, 25.5 42.18, 25.5 42.18 L 25.5 42.18" fill="none" stroke="black" stroke-width="2"></path></svg>