<svg width="48" height="48" viewBox="0 0 48 48" xmlns="http://www.w3.org/2000/svg"><path d="M 14.04 5.58 C 13.799999999999999 7.590000000000001, 13.86 6.600000000000001, 13.559999999999999 9.600000000000001 C 13.2 13.590000000000002, 13.14 14.310000000000002, 12.84 17.580000000000002 C 12.6 20.130000000000003, 12.524999999999999 20.46, 12.36 22.68 C 12.27 24.57, 12.225 25.02, 12.18 26.46 C 12.18 27.450000000000003, 11.969999999999999 27.6, 12.18 28.44 C 12.6 29.130000000000003, 12.495 29.415, 13.02 29.82 C 13.649999999999999 29.939999999999998, 12.974999999999998 29.909999999999997, 14.28 30.06 C 16.26 30.240000000000002, 16.5 30.345000000000002, 18.240000000000002 30.42 C 19.740000000000002 30.39, 19.275000000000002 30.54, 21.240000000000002 30.36 C 23.67 30.03, 24.345 29.910000000000004, 26.099999999999998 29.700000000000003 C 27.18 29.61, 27.689999999999998 29.565, 28.259999999999998 29.52 C 28.32 29.52, 28.35 29.52, 28.380000000000003 29.52 L 28.380000000000003 29.52" fill="none" stroke="black" stroke-width="2"></path><path d="M 29.58 34.980000000000004 C 28.53 34.59, 28.53 34.38, 27.48 34.2 C 26.43 34.230000000000004, 26.490000000000002 33.975, 25.380000000000003 34.26 C 24.21 34.8, 23.939999999999998 34.785, 23.04 35.339999999999996 C 22.41 35.91, 22.32 35.67, 21.78 36.480000000000004 C 21.33 37.53, 21.09 37.605, 20.88 38.58 C 20.91 39.480000000000004, 20.64 39.585, 20.94 40.38 C 21.51 41.07, 21.180000000000003 41.07, 22.080000000000002 41.76 C 23.310000000000002 42.45, 23.235 42.644999999999996, 24.54 43.14 C 25.919999999999998 43.44, 26.22 43.635000000000005, 27.299999999999997 43.74 C 28.08 43.650000000000006, 28.29 43.980000000000004, 28.86 43.56 C 29.22 42.81, 29.265 42.870000000000005, 29.58 42.06 C 29.849999999999998 41.19, 29.849999999999994 41.175, 30.119999999999997 40.32 C 30.39 39.480000000000004, 30.525000000000002 39.6, 30.660000000000004 38.64 C 30.660000000000004 37.56, 30.795000000000005 37.48500000000001, 30.660000000000004 36.480000000000004 C 30.39 35.55, 30.345 35.699999999999996, 30.119999999999997 34.62 C 29.939999999999998 33.39, 29.849999999999998 33.375, 29.759999999999998 32.160000000000004 C 29.759999999999998 30.96, 29.759999999999998 31.71, 29.759999999999998 29.759999999999998 C 29.759999999999998 27.06, 29.759999999999998 26.79, 29.759999999999998 24.36 C 29.759999999999998 22.2, 29.759999999999998 21.884999999999998, 29.759999999999998 20.04 C 29.759999999999998 18.509999999999998, 29.759999999999998 18.42, 29.759999999999998 16.98 C 29.759999999999998 15.629999999999999, 29.714999999999996 15.315, 29.759999999999998 14.28 C 29.85 13.559999999999999, 29.895 13.905, 29.94 12.84 C 29.94 11.43, 29.94 11.25, 29.94 10.02 C 29.94 8.969999999999999, 29.94 8.85, 29.94 7.92 C 29.94 7.11, 29.94 6.705, 29.94 6.300000000000001 C 29.94 6.300000000000001, 29.94 6.300000000000001, 29.94 6.300000000000001 L 29.94 6.300000000000001" fill="none" stroke="black" stroke-width="2"></path><path d="M 27.900000000000002 29.82 C 28.53 29.64, 28.635000000000005 29.61, 29.160000000000004 29.46 C 29.580000000000002 29.34, 29.64 29.28, 30 29.22 C 30.299999999999997 29.22, 30.45 29.22, 30.599999999999998 29.22 L 30.599999999999998 29.22" fill="none" stroke="black" stroke-width="2"></path><path d="M 21 12.059999999999999 C 20.73 12.719999999999999, 20.580000000000002 12.825, 20.46 13.379999999999999 C 20.490000000000002 13.829999999999998, 20.25 13.77, 20.52 14.28 C 21.03 14.849999999999998, 20.895 15.134999999999998, 21.54 15.419999999999998 C 22.32 15.419999999999998, 22.470000000000002 15.734999999999998, 23.1 15.419999999999998 C 23.58 14.79, 23.82 14.594999999999999, 24.06 14.16 C 24.06 13.92, 24.389999999999997 13.98, 24.06 13.68 C 23.4 13.32, 23.310000000000002 13.215, 22.740000000000002 12.96 C 22.26 12.81, 22.23 12.495000000000001, 21.78 12.66 C 21.36 13.14, 21.150000000000002 13.14, 20.94 13.620000000000001 C 20.94 14.100000000000001, 20.73 14.190000000000001, 20.94 14.580000000000002 C 21.36 14.88, 21.3 15.165, 21.78 15.18 C 22.32 14.91, 22.575 15.120000000000001, 22.86 14.64 C 22.89 13.95, 22.964999999999996 13.665, 22.919999999999998 13.26 C 22.799999999999997 13.14, 22.845 13.08, 22.68 13.02 C 22.47 13.02, 22.74 12.735, 22.259999999999998 13.02 L 20.759999999999998 14.16" fill="none" stroke="black" stroke-width="2"></path><path d="M 17.64 21.72 C 19.11 21.72, 19.230000000000004 21.765, 20.580000000000002 21.72 C 21.810000000000002 21.63, 21.96 21.585, 23.04 21.54 C 23.97 21.54, 24.135 21.54, 24.900000000000002 21.54 C 25.5 21.54, 25.68 21.54, 26.099999999999998 21.54 C 26.339999999999996 21.54, 26.429999999999996 21.54, 26.58 21.54 L 26.700000000000003 21.54" fill="none" stroke="black" stroke-width="2"></path></svg>