<svg width="48" height="48" viewBox="0 0 48 48" xmlns="http://www.w3.org/2000/svg"><path d="M 13.02 3.54 C 13.05 3.84, 13.020000000000001 2.8199999999999994, 13.080000000000002 4.14 C 13.170000000000002 6.48, 13.29 6.495, 13.26 8.82 C 13.11 11.13, 13.080000000000002 11.520000000000001, 12.96 13.440000000000001 C 12.870000000000001 14.97, 12.87 14.715, 12.78 16.5 C 12.690000000000001 18.54, 12.645000000000001 18.945, 12.600000000000001 20.580000000000002 C 12.600000000000001 21.810000000000002, 12.600000000000001 21.96, 12.600000000000001 23.04 C 12.600000000000001 23.97, 12.495000000000001 24.12, 12.600000000000001 24.900000000000002 C 12.81 25.53, 12.675 25.515000000000004, 13.02 26.160000000000004 C 13.5 26.82, 13.41 26.85, 13.98 27.48 C 14.64 28.08, 14.52 28.29, 15.299999999999999 28.68 C 16.2 28.86, 16.065 28.83, 17.1 29.04 C 18.270000000000003 29.28, 18.03 29.354999999999997, 19.44 29.52 C 21.090000000000003 29.61, 20.67 29.67, 22.740000000000002 29.700000000000003 C 25.23 29.67, 26.07 29.655, 27.72 29.64 C 28.529999999999998 29.64, 28.83 29.64, 29.339999999999996 29.64 C 29.549999999999997 29.64, 29.654999999999998 29.64, 29.759999999999998 29.64 L 29.759999999999998 29.64" fill="none" stroke="black" stroke-width="2"></path><path d="M 20.16 9.18 C 20.130000000000003 9.66, 20.040000000000003 9.585, 20.1 10.14 C 20.25 10.77, 19.965 10.919999999999998, 20.4 11.399999999999999 C 21.119999999999997 11.729999999999999, 21.09 12.149999999999999, 21.84 12.059999999999999 C 22.619999999999997 11.55, 23.009999999999998 11.49, 23.4 11.040000000000001 C 23.4 10.65, 23.49 10.725, 23.4 10.26 C 23.22 9.719999999999999, 23.294999999999998 9.51, 23.04 9.18 C 22.71 9.059999999999999, 22.74 8.954999999999998, 22.38 8.94 C 21.990000000000002 9.030000000000001, 21.915 8.760000000000002, 21.6 9.120000000000001 C 21.36 9.75, 21.240000000000002 9.84, 21.12 10.379999999999999 C 21.12 10.829999999999998, 21.12 10.965, 21.12 11.28 C 21.12 11.46, 20.91 11.7, 21.12 11.64 C 21.54 11.34, 21.630000000000003 11.520000000000001, 21.96 11.040000000000001 C 22.200000000000003 10.38, 22.32 10.200000000000001, 22.44 9.72 C 22.44 9.420000000000002, 22.44 9.315000000000001, 22.44 9.120000000000001 C 22.44 9.030000000000001, 22.560000000000002 8.925, 22.44 8.94 L 21.96 9.18" fill="none" stroke="black" stroke-width="2"></path><path d="M 17.4 20.4 C 17.7 20.369999999999997, 17.25 20.34, 18 20.34 C 19.2 20.369999999999997, 19.11 20.384999999999998, 20.4 20.4 C 21.78 20.4, 21.735 20.4, 23.16 20.4 C 24.63 20.4, 25.154999999999998 20.4, 26.099999999999998 20.4 C 26.52 20.4, 26.73 20.4, 26.94 20.4 L 26.94 20.4" fill="none" stroke="black" stroke-width="2"></path><path d="M 12.54 36 C 13.59 36.21, 12.96 36.285000000000004, 14.64 36.42 C 16.95 36.480000000000004, 17.189999999999998 36.525, 19.259999999999998 36.54 C 21.089999999999996 36.510000000000005, 21.15 36.540000000000006, 22.919999999999998 36.480000000000004 C 24.629999999999995 36.39, 24.899999999999995 36.435, 26.339999999999996 36.3 C 27.509999999999998 36.12, 27.854999999999997 36.074999999999996, 28.68 35.94 C 29.16 35.849999999999994, 29.355 35.805, 29.64 35.76 L 29.82 35.76" fill="none" stroke="black" stroke-width="2"></path><path d="M 12.78 43.14 C 13.620000000000001 43.14, 12.855 43.14, 14.46 43.14 C 16.830000000000002 43.14, 16.725 43.155, 19.200000000000003 43.14 C 21.78 43.11, 22.215 43.095, 24.36 43.08 C 26.07 43.08, 26.115000000000002 43.17, 27.78 43.08 C 29.4 42.9, 29.895 42.81, 31.02 42.72 C 31.65 42.72, 31.905 42.72, 32.28 42.72 L 32.519999999999996 42.72" fill="none" stroke="black" stroke-width="2"></path></svg>