<svg width="48" height="48" viewBox="0 0 48 48" xmlns="http://www.w3.org/2000/svg"><path d="M 14.52 27.96 C 14.129999999999999 26.73, 13.98 26.97, 13.74 25.5 C 13.649999999999999 23.79, 13.604999999999999 23.55, 13.559999999999999 22.080000000000002 C 13.559999999999999 20.85, 13.559999999999999 20.685000000000002, 13.559999999999999 19.62 C 13.559999999999999 18.72, 13.409999999999998 18.69, 13.559999999999999 17.82 C 13.86 16.98, 13.74 16.845, 14.16 16.14 C 14.7 15.57, 14.805 15.39, 15.24 15 C 15.57 14.790000000000001, 15.569999999999999 14.685000000000002, 15.899999999999999 14.580000000000002 C 16.229999999999997 14.580000000000002, 16.2 14.535000000000002, 16.56 14.580000000000002 C 16.95 14.670000000000002, 16.814999999999998 14.205000000000002, 17.34 14.76 C 18 15.779999999999998, 18.15 15.659999999999997, 18.66 16.799999999999997 C 19.02 18.06, 19.08 18.18, 19.38 19.32 C 19.619999999999997 20.34, 19.71 20.61, 19.86 21.36 C 19.92 21.84, 19.95 22.08, 19.98 22.32 C 19.98 22.32, 19.98 22.59, 19.98 22.32 C 19.98 21.78, 19.935000000000002 21.825000000000003, 19.98 21.240000000000002 C 20.07 20.61, 19.86 20.925, 20.16 19.98 C 20.67 18.72, 20.73 18.435000000000002, 21.18 17.46 C 21.57 16.770000000000003, 21.525000000000002 16.635, 21.96 16.080000000000002 C 22.439999999999998 15.66, 21.945 15.540000000000001, 22.919999999999998 15.24 C 24.39 15.059999999999999, 24.54 14.985, 25.86 14.879999999999999 C 27.03 14.85, 27.120000000000005 14.835, 28.200000000000003 14.82 C 29.19 14.82, 29.564999999999998 14.805, 30.18 14.82 C 30.42 14.85, 30.510000000000005 14.834999999999999, 30.660000000000004 14.879999999999999 L 30.78 15" fill="none" stroke="black" stroke-width="2"></path><path d="M 21.54 3.7199999999999998 C 21.419999999999998 4.26, 21.239999999999995 4.290000000000001, 21.299999999999997 4.800000000000001 C 21.54 5.28, 21.375 5.52, 21.78 5.76 C 22.35 5.76, 22.439999999999998 5.984999999999999, 22.919999999999998 5.76 C 23.310000000000002 5.3100000000000005, 23.490000000000002 5.235, 23.700000000000003 4.86 C 23.73 4.5600000000000005, 24.015 4.47, 23.759999999999998 4.26 C 23.22 4.140000000000001, 23.174999999999997 4.08, 22.68 4.0200000000000005 C 22.23 4.0200000000000005, 22.26 3.7650000000000006, 21.78 4.0200000000000005 C 21.27 4.53, 21.044999999999998 4.635, 20.759999999999998 5.04 C 20.7 5.34, 20.475 5.444999999999999, 20.64 5.64 C 21.03 5.73, 20.909999999999997 6.03, 21.419999999999998 5.82 C 22.049999999999997 5.3100000000000005, 22.349999999999998 5.1000000000000005, 22.68 4.800000000000001 C 22.71 4.710000000000001, 22.725 4.665, 22.740000000000002 4.62 C 22.740000000000002 4.62, 22.725 4.635, 22.740000000000002 4.62 L 22.799999999999997 4.5600000000000005" fill="none" stroke="black" stroke-width="2"></path><path d="M 17.4 10.379999999999999 C 18.81 10.379999999999999, 18.705 10.395, 20.22 10.379999999999999 C 21.84 10.35, 22.35 10.335, 23.46 10.32 C 24.060000000000002 10.32, 24.120000000000005 10.32, 24.660000000000004 10.32 C 25.14 10.32, 25.349999999999998 10.32, 25.619999999999997 10.32 C 25.68 10.32, 25.665 10.32, 25.740000000000002 10.32 L 25.92 10.32" fill="none" stroke="black" stroke-width="2"></path><path d="M 24.54 14.82 C 24.509999999999998 15.87, 24.495 15.134999999999998, 24.48 16.919999999999998 C 24.48 19.439999999999998, 24.48 20.025, 24.48 21.96 C 24.48 23.310000000000002, 24.525000000000002 22.905000000000005, 24.48 24.660000000000004 C 24.39 26.82, 24.345 26.85, 24.299999999999997 28.98 C 24.299999999999997 31.08, 24.299999999999997 31.305, 24.299999999999997 33.18 C 24.299999999999997 34.83, 24.299999999999997 35.07000000000001, 24.299999999999997 36.480000000000004 C 24.299999999999997 37.650000000000006, 24.299999999999997 37.785000000000004, 24.299999999999997 38.82 C 24.299999999999997 39.72, 24.299999999999997 39.809999999999995, 24.299999999999997 40.62 C 24.299999999999997 41.34, 24.299999999999997 41.58, 24.299999999999997 42.06 C 24.299999999999997 42.3, 24.299999999999997 42.42, 24.299999999999997 42.54 C 24.299999999999997 42.54, 24.299999999999997 42.465, 24.299999999999997 42.54 C 24.299999999999997 42.69, 24.299999999999997 42.449999999999996, 24.299999999999997 42.839999999999996 C 24.299999999999997 43.47, 24.299999999999997 43.559999999999995, 24.299999999999997 44.099999999999994 C 24.299999999999997 44.55, 24.299999999999997 44.655, 24.299999999999997 45 C 24.299999999999997 45.24, 24.299999999999997 45.315000000000005, 24.299999999999997 45.480000000000004 C 24.299999999999997 45.57000000000001, 24.299999999999997 45.615, 24.299999999999997 45.660000000000004 L 24.299999999999997 45.660000000000004" fill="none" stroke="black" stroke-width="2"></path></svg>