<svg width="48" height="48" viewBox="0 0 48 48" xmlns="http://www.w3.org/2000/svg"><path d="M 13.32 4.0200000000000005 C 13.32 5.73, 13.32 4.6049999999999995, 13.32 7.4399999999999995 C 13.32 11.399999999999999, 13.32 12.45, 13.32 15.36 C 13.32 17.22, 13.200000000000001 17.505000000000003, 13.32 19.080000000000002 C 13.559999999999999 20.37, 13.62 20.565, 13.799999999999999 21.66 C 13.919999999999998 22.560000000000002, 13.844999999999999 22.815, 14.04 23.46 C 14.31 23.85, 14.280000000000001 23.970000000000002, 14.580000000000002 24.240000000000002 C 14.91 24.39, 14.73 24.45, 15.24 24.54 C 15.93 24.57, 15.735000000000001 24.584999999999997, 16.62 24.599999999999998 C 17.700000000000003 24.599999999999998, 17.46 24.599999999999998, 18.78 24.599999999999998 C 20.34 24.599999999999998, 20.729999999999997 24.644999999999996, 21.9 24.599999999999998 C 22.68 24.509999999999998, 22.665 24.51, 23.46 24.42 C 24.27 24.330000000000002, 24.674999999999997 24.285000000000004, 25.08 24.240000000000002 C 25.08 24.240000000000002, 25.08 24.240000000000002, 25.08 24.240000000000002 L 25.08 24.240000000000002" fill="none" stroke="black" stroke-width="2"></path><path d="M 13.5 30.72 C 13.8 31.95, 13.770000000000001 31.814999999999998, 14.100000000000001 33.18 C 14.46 34.68, 14.490000000000002 35.1, 14.82 36.18 C 15.12 36.84, 14.954999999999998 36.93, 15.419999999999998 37.5 C 16.049999999999997 37.980000000000004, 15.989999999999998 38.16, 16.68 38.46 C 17.43 38.58, 17.34 38.64, 18.18 38.7 C 19.11 38.7, 19.23 38.80500000000001, 20.04 38.7 C 20.729999999999997 38.49, 20.805 38.67, 21.419999999999998 38.28 C 21.96 37.71, 22.064999999999998 37.8, 22.5 37.14 C 22.83 36.39, 22.845 36.36, 23.16 35.64 C 23.46 34.95, 23.505 34.949999999999996, 23.759999999999998 34.26 C 23.97 33.57, 23.895 33.900000000000006, 24.18 32.88 C 24.54 31.53, 24.675000000000004 31.29, 24.900000000000002 30.18 C 24.990000000000002 29.310000000000002, 25.035 29.520000000000003, 25.08 28.44 C 25.08 27.15, 24.974999999999998 27.675, 25.08 25.86 C 25.29 23.52, 25.395 23.369999999999997, 25.5 21.18 C 25.5 19.14, 25.455 19.290000000000003, 25.5 17.1 C 25.59 14.76, 25.634999999999998 14.325, 25.68 12.419999999999998 C 25.68 10.95, 25.634999999999998 10.575, 25.68 9.48 C 25.77 8.760000000000002, 25.814999999999998 8.985000000000001, 25.86 8.040000000000001 C 25.86 6.87, 25.86 6.465, 25.86 5.699999999999999 C 25.86 5.34, 25.86 5.159999999999999, 25.86 4.9799999999999995 C 25.86 4.9799999999999995, 25.905 5.1899999999999995, 25.86 4.9799999999999995 L 25.68 4.14" fill="none" stroke="black" stroke-width="2"></path><path d="M 19.38 8.399999999999999 C 19.2 8.459999999999999, 19.125 8.25, 19.02 8.52 C 18.990000000000002 9, 18.810000000000002 9.135000000000002, 18.96 9.48 C 19.29 9.69, 19.410000000000004 9.78, 19.62 9.899999999999999 C 19.71 9.93, 19.679999999999996 10.139999999999999, 19.799999999999997 9.959999999999999 C 19.95 9.57, 20.07 9.465, 20.1 9.18 C 20.009999999999998 9, 20.174999999999997 8.97, 19.919999999999998 8.82 C 19.5 8.7, 19.665 8.595, 19.080000000000002 8.58 C 18.330000000000002 8.67, 17.985000000000003 8.49, 17.580000000000002 8.76 C 17.520000000000003 9.21, 17.25 9.315, 17.46 9.66 C 17.939999999999998 9.9, 17.985 10.02, 18.419999999999998 10.14 C 18.810000000000002 10.14, 18.930000000000003 10.365, 19.200000000000003 10.14 C 19.35 9.690000000000001, 19.425 9.51, 19.5 9.24 C 19.5 9.15, 19.5 9.105, 19.5 9.06 L 19.5 9.06" fill="none" stroke="black" stroke-width="2"></path><path d="M 15.36 15.899999999999999 C 15.87 15.899999999999999, 15.629999999999999 15.899999999999999, 16.38 15.899999999999999 C 17.369999999999997 15.899999999999999, 17.115 15.899999999999999, 18.36 15.899999999999999 C 19.86 15.899999999999999, 20.265 15.899999999999999, 21.36 15.899999999999999 C 22.05 15.899999999999999, 22.215000000000003 15.899999999999999, 22.740000000000002 15.899999999999999 C 23.1 15.899999999999999, 23.28 15.899999999999999, 23.46 15.899999999999999 L 23.46 15.899999999999999" fill="none" stroke="black" stroke-width="2"></path></svg>