<svg width="48" height="48" viewBox="0 0 48 48" xmlns="http://www.w3.org/2000/svg"><path d="M 14.399999999999999 22.98 C 14.099999999999998 21, 14.04 20.43, 13.799999999999999 19.02 C 13.620000000000001 18.18, 13.515 17.91, 13.440000000000001 17.34 C 13.47 17.04, 13.2 17.040000000000003, 13.5 16.740000000000002 C 14.07 16.44, 13.545000000000002 16.44, 14.64 16.14 C 16.259999999999998 15.84, 16.515 15.69, 17.88 15.54 C 18.990000000000002 15.54, 18.87 15.524999999999999, 20.1 15.54 C 21.45 15.57, 21.449999999999996 15.540000000000001, 22.799999999999997 15.600000000000001 C 24.15 15.690000000000001, 24.435 15.69, 25.5 15.78 C 26.28 15.870000000000001, 26.505 15.855, 27.06 15.96 C 27.39 16.080000000000002, 27.419999999999998 15.915000000000003, 27.72 16.200000000000003 C 27.99 16.650000000000002, 28.08 16.410000000000004, 28.259999999999998 17.1 C 28.35 18.03, 28.41 17.43, 28.44 18.96 C 28.410000000000004 21.09, 28.395000000000003 22.005, 28.380000000000003 23.22 C 28.380000000000003 23.52, 28.380000000000003 23.67, 28.380000000000003 23.82 L 28.380000000000003 23.82" fill="none" stroke="black" stroke-width="2"></path><path d="M 20.4 4.38 C 19.77 4.5, 19.740000000000002 4.08, 19.14 4.62 C 18.57 5.58, 18.105 5.775000000000001, 18 6.540000000000001 C 18.36 7.11, 18.24 7.41, 18.72 7.68 C 19.32 7.65, 19.485 8.07, 19.919999999999998 7.62 C 20.189999999999998 6.75, 20.445 6.45, 20.46 5.88 C 20.22 5.609999999999999, 20.265 5.535, 19.98 5.34 C 19.65 5.22, 19.71 4.695, 19.32 5.1 C 18.869999999999997 6.029999999999999, 18.509999999999998 6.359999999999999, 18.419999999999998 6.959999999999999 C 18.689999999999998 7.2299999999999995, 18.795 7.365, 18.96 7.5 L 19.080000000000002 7.5" fill="none" stroke="black" stroke-width="2"></path><path d="M 13.799999999999999 11.82 C 14.399999999999999 11.82, 13.605 11.700000000000001, 15 11.82 C 17.189999999999998 12.059999999999999, 17.369999999999997 12.09, 19.38 12.299999999999999 C 21.21 12.48, 21.974999999999998 12.525, 23.04 12.66 L 23.64 12.84" fill="none" stroke="black" stroke-width="2"></path><path d="M 15 42.54 C 16.14 41.91, 16.32 41.985, 17.28 41.28 C 18.060000000000002 40.5, 18.060000000000002 40.875, 18.84 39.72 C 19.619999999999997 38.19, 19.86 38.415000000000006, 20.4 36.660000000000004 C 20.7 34.68000000000001, 20.805 34.89, 21 32.7 C 21.09 30.300000000000004, 21.134999999999998 29.790000000000003, 21.18 27.900000000000002 C 21.18 26.520000000000003, 21.24 26.76, 21.18 25.14 C 21.060000000000002 23.28, 21 22.875, 20.94 21.419999999999998 C 20.94 20.369999999999997, 20.970000000000002 20.25, 20.94 19.32 C 20.880000000000003 18.51, 20.865000000000002 18.450000000000003, 20.82 17.700000000000003 C 20.79 17.01, 20.775 16.740000000000002, 20.759999999999998 16.32 C 20.759999999999998 16.17, 20.759999999999998 16.095, 20.759999999999998 16.02 C 20.759999999999998 16.02, 20.759999999999998 16.005, 20.759999999999998 16.02 C 20.759999999999998 16.05, 20.804999999999996 15.540000000000003, 20.759999999999998 16.080000000000002 C 20.67 17.130000000000003, 20.625 16.68, 20.580000000000002 18.18 C 20.580000000000002 20.130000000000003, 20.55 19.590000000000003, 20.580000000000002 22.080000000000002 C 20.64 25.11, 20.535000000000004 25.740000000000002, 20.700000000000003 28.14 C 20.970000000000002 29.91, 20.970000000000002 30.15, 21.240000000000002 31.68 C 21.51 32.97, 21.195 32.894999999999996, 21.78 34.26 C 22.68 35.7, 22.740000000000002 36.03, 23.580000000000002 37.14 C 24.36 37.92, 24 37.935, 25.14 38.7 C 26.64 39.45, 27.045 39.78, 28.14 40.2 C 28.83 40.290000000000006, 29.175 40.335, 29.52 40.38 C 29.52 40.38, 29.52 40.38, 29.52 40.38 L 29.52 40.38" fill="none" stroke="black" stroke-width="2"></path></svg>