<svg width="48" height="48" viewBox="0 0 48 48" xmlns="http://www.w3.org/2000/svg"><path d="M 16.080000000000002 5.699999999999999 C 15.72 7.5, 15.6 7.425000000000001, 15.36 9.3 C 15.24 11.25, 15.225000000000001 11.34, 15.120000000000001 13.200000000000001 C 15.030000000000001 14.970000000000002, 15.030000000000001 14.910000000000002, 14.940000000000001 16.740000000000002 C 14.850000000000001 18.630000000000003, 14.76 19.11, 14.76 20.52 C 14.850000000000001 21.45, 14.805000000000001 21.494999999999997, 14.940000000000001 22.38 C 15.120000000000001 23.22, 15 23.115, 15.299999999999999 24.06 C 15.719999999999999 25.11, 15.795 25.425000000000004, 16.14 26.160000000000004 C 16.41 26.580000000000002, 16.305 26.655, 16.68 27 C 17.16 27.27, 16.92 27.285, 17.64 27.54 C 18.6 27.78, 17.985 27.884999999999998, 19.56 28.02 C 21.75 28.049999999999997, 21.885 28.064999999999998, 23.94 28.08 C 25.86 28.08, 25.905 28.305, 27.78 28.08 C 29.61 27.63, 30.345 27.435, 31.44 27.18 C 31.800000000000004 27.119999999999997, 31.950000000000003 27.09, 32.160000000000004 27.06 C 32.22 27.06, 32.25 27.06, 32.28 27.06 L 32.28 27.06" fill="none" stroke="black" stroke-width="2"></path><path d="M 23.52 10.379999999999999 C 22.95 11.19, 22.68 11.43, 22.38 12 C 22.35 12.33, 22.245 12.315000000000001, 22.32 12.66 C 22.5 13.02, 22.23 13.29, 22.68 13.379999999999999 C 23.4 13.2, 23.699999999999996 13.2, 24.119999999999997 13.02 C 24.24 12.84, 24.195 12.99, 24.36 12.66 C 24.57 12.18, 24.675 12.09, 24.78 11.7 C 24.78 11.4, 24.915 11.490000000000002, 24.78 11.100000000000001 C 24.51 10.620000000000001, 24.645000000000003 10.440000000000001, 24.240000000000002 10.14 C 23.700000000000003 10.02, 23.565 9.719999999999999, 23.16 9.899999999999999 C 22.89 10.379999999999999, 22.740000000000002 10.454999999999998, 22.62 10.86 C 22.65 11.19, 22.56 11.28, 22.68 11.52 C 22.89 11.67, 22.740000000000002 11.955, 23.1 11.82 C 23.61 11.4, 23.865 11.190000000000001, 24.119999999999997 10.98 C 24.119999999999997 10.98, 24.119999999999997 10.98, 24.119999999999997 10.98 L 24.119999999999997 10.98" fill="none" stroke="black" stroke-width="2"></path><path d="M 18.96 19.259999999999998 C 19.23 19.439999999999998, 19.14 19.47, 19.5 19.62 C 19.95 19.740000000000002, 19.275 19.74, 20.4 19.86 C 22.2 19.98, 22.545 20.04, 24 20.1 C 25.11 20.1, 25.485 20.1, 26.22 20.1 C 26.58 20.1, 26.64 20.1, 26.94 20.1 C 27.18 20.1, 27.225 20.1, 27.42 20.1 L 27.72 20.1" fill="none" stroke="black" stroke-width="2"></path><path d="M 23.34 32.64 C 22.68 33.06, 22.425 32.970000000000006, 22.02 33.480000000000004 C 21.869999999999997 34.08, 21.63 34.230000000000004, 21.72 34.68 C 22.049999999999997 34.980000000000004, 21.825 35.085, 22.38 35.28 C 23.16 35.370000000000005, 23.310000000000002 35.61, 23.94 35.46 C 24.42 35.07, 24.645000000000003 35.25, 24.900000000000002 34.68 C 24.93 33.93, 25.080000000000002 33.705, 24.96 33.18 C 24.69 32.879999999999995, 24.810000000000002 32.73, 24.42 32.58 C 23.91 32.58, 23.865 32.445, 23.4 32.58 C 22.979999999999997 32.849999999999994, 22.83 32.699999999999996, 22.56 33.12 C 22.439999999999998 33.69, 22.275 33.87, 22.32 34.26 C 22.53 34.47, 22.365000000000002 34.605, 22.740000000000002 34.68 C 23.28 34.620000000000005, 23.265 34.77, 23.82 34.56 C 24.39 34.2, 24.675 34.019999999999996, 24.96 33.839999999999996 C 24.96 33.839999999999996, 24.915 33.88499999999999, 24.96 33.839999999999996 C 25.05 33.75, 25.11 33.735, 25.14 33.660000000000004 C 25.11 33.6, 25.335 33.495000000000005, 25.08 33.54 C 24.599999999999998 33.69, 24.494999999999997 33.705, 24.119999999999997 33.839999999999996 C 23.85 33.959999999999994, 23.745 33.989999999999995, 23.580000000000002 34.08 C 23.520000000000003 34.14, 23.490000000000002 34.17, 23.46 34.2 L 23.46 34.2" fill="none" stroke="black" stroke-width="2"></path><path d="M 17.4 42.599999999999994 C 17.849999999999998 42.66, 16.964999999999996 42.66, 18.299999999999997 42.72 C 20.52 42.78, 20.505000000000003 42.824999999999996, 22.740000000000002 42.839999999999996 C 24.990000000000002 42.81, 25.485000000000003 42.84, 27.240000000000002 42.78 C 28.5 42.69, 29.099999999999998 42.644999999999996, 29.759999999999998 42.599999999999994 C 29.82 42.599999999999994, 29.85 42.599999999999994, 29.880000000000003 42.599999999999994 L 29.880000000000003 42.599999999999994" fill="none" stroke="black" stroke-width="2"></path></svg>