<svg width="48" height="48" viewBox="0 0 48 48" xmlns="http://www.w3.org/2000/svg"><path d="M 12.059999999999999 3.96 C 12.059999999999999 5.220000000000001, 12.134999999999998 4.470000000000001, 12.059999999999999 6.48 C 11.91 9.24, 11.94 9.135, 11.76 12 C 11.55 14.97, 11.445 15.360000000000001, 11.34 17.94 C 11.34 20.130000000000003, 11.31 20.775000000000002, 11.34 22.32 C 11.399999999999999 23.22, 11.204999999999998 23.415, 11.459999999999999 24.119999999999997 C 11.91 24.63, 11.94 24.869999999999997, 12.36 25.14 C 12.75 25.17, 12.495000000000001 25.275000000000006, 13.14 25.200000000000003 C 14.040000000000001 25.02, 13.98 25.499999999999996, 14.940000000000001 24.839999999999996 C 15.96 23.699999999999996, 16.32 23.79, 16.98 22.56 C 17.28 21.24, 17.385 20.805, 17.580000000000002 19.919999999999998 C 17.67 19.47, 17.685 19.29, 17.759999999999998 19.02 C 17.82 18.93, 17.805 18.9, 17.88 18.84 C 17.97 18.810000000000002, 17.895 18.645000000000003, 18.06 18.78 C 18.299999999999997 19.08, 18.299999999999997 18.869999999999997, 18.54 19.38 C 18.78 20.1, 18.735 20.13, 19.02 20.82 C 19.35 21.48, 19.23 21.51, 19.68 22.14 C 20.25 22.740000000000002, 20.115000000000002 22.814999999999998, 20.82 23.34 C 21.66 23.79, 21.69 23.865000000000002, 22.5 24.240000000000002 C 23.28 24.54, 23.144999999999996 24.599999999999994, 24.06 24.839999999999996 C 25.11 25.02, 25.305000000000003 25.200000000000003, 26.160000000000004 25.200000000000003 C 26.82 25.02, 26.85 25.409999999999997, 27.48 24.839999999999996 C 28.08 23.879999999999995, 28.2 23.909999999999997, 28.68 22.919999999999998 C 29.04 21.9, 29.1 22.259999999999998, 29.400000000000002 20.88 C 29.64 19.14, 29.805000000000003 19.544999999999998, 29.880000000000003 17.4 C 29.790000000000003 14.849999999999998, 29.940000000000005 14.879999999999999, 29.700000000000003 12.299999999999999 C 29.310000000000002 9.69, 29.205000000000002 8.85, 28.92 7.08 C 28.740000000000002 6.15, 28.65 6.029999999999999, 28.56 5.22 C 28.56 4.529999999999999, 28.575 4.305, 28.56 3.84 C 28.53 3.6, 28.515 3.4800000000000004, 28.5 3.3600000000000003 L 28.5 3.3600000000000003" fill="none" stroke="black" stroke-width="2"></path><path d="M 19.68 6.18 C 19.560000000000002 6.75, 19.5 6.855, 19.44 7.32 C 19.44 7.680000000000001, 19.185000000000002 7.710000000000001, 19.44 8.040000000000001 C 19.950000000000003 8.34, 19.830000000000002 8.700000000000001, 20.46 8.64 C 21.21 8.22, 21.54 8.22, 21.96 7.800000000000001 C 22.05 7.38, 22.14 7.274999999999999, 22.14 6.959999999999999 C 22.05 6.75, 22.485 6.69, 21.96 6.540000000000001 C 21 6.450000000000001, 20.669999999999998 6.2250000000000005, 20.04 6.36 C 19.740000000000002 6.720000000000001, 19.59 6.57, 19.44 7.08 C 19.44 7.739999999999999, 19.395000000000003 7.949999999999999, 19.44 8.399999999999999 C 19.53 8.639999999999999, 19.335 8.79, 19.62 8.879999999999999 C 20.1 8.82, 20.205000000000002 9.03, 20.580000000000002 8.76 C 20.85 8.280000000000001, 20.985 8.16, 21.12 7.800000000000001 C 21.12 7.5600000000000005, 21.165 7.515000000000001, 21.12 7.32 C 21.03 7.17, 21.150000000000002 7.14, 20.94 7.02 C 20.61 6.93, 20.520000000000003 6.824999999999999, 20.28 6.84 L 19.98 7.08" fill="none" stroke="black" stroke-width="2"></path><path d="M 15.48 13.14 C 15.69 13.14, 15.614999999999998 13.14, 15.899999999999999 13.14 C 16.259999999999998 13.14, 16.05 13.14, 16.62 13.14 C 17.4 13.14, 17.235 13.200000000000001, 18.18 13.14 C 19.29 13.02, 19.455 13.034999999999998, 20.4 12.899999999999999 C 21.18 12.75, 21.330000000000002 12.675, 21.96 12.600000000000001 C 22.439999999999998 12.600000000000001, 22.38 12.600000000000001, 22.919999999999998 12.600000000000001 C 23.519999999999996 12.600000000000001, 23.775 12.600000000000001, 24.119999999999997 12.600000000000001 C 24.209999999999997 12.600000000000001, 24.179999999999996 12.600000000000001, 24.299999999999997 12.600000000000001 C 24.449999999999996 12.600000000000001, 24.525 12.600000000000001, 24.599999999999998 12.600000000000001 L 24.599999999999998 12.600000000000001" fill="none" stroke="black" stroke-width="2"></path><path d="M 22.5 30.299999999999997 C 21.42 30.119999999999997, 21.405 29.97, 20.34 29.94 C 19.29 30.060000000000002, 19.245 29.835, 18.240000000000002 30.18 C 17.28 30.75, 17.175 30.630000000000003, 16.32 31.32 C 15.57 32.129999999999995, 15.555 31.89, 14.82 32.94 C 14.1 34.23, 13.799999999999999 34.41, 13.379999999999999 35.519999999999996 C 13.26 36.45, 13.08 36.585, 13.14 37.38 C 13.38 38.040000000000006, 13.23 38.115, 13.620000000000001 38.7 C 14.16 39.21, 13.875000000000002 39.195, 14.700000000000001 39.72 C 15.809999999999999 40.26, 15.719999999999999 40.515, 16.919999999999998 40.8 C 18.21 40.83, 18.3 40.89, 19.5 40.86 C 20.61 40.769999999999996, 20.82 41.04, 21.72 40.68 C 22.41 40.05, 22.650000000000002 40.05, 23.1 39.42 C 23.310000000000002 38.790000000000006, 23.28 39.06, 23.52 38.160000000000004 C 23.79 36.99, 23.91 36.795, 24.06 35.82 C 24.089999999999996 35.04, 24.194999999999997 35.025, 24.119999999999997 34.26 C 23.939999999999998 33.51, 23.924999999999997 33.3, 23.759999999999998 32.76 C 23.61 32.42999999999999, 23.700000000000003 32.55, 23.46 32.099999999999994 C 23.13 31.529999999999998, 23.174999999999997 31.5, 22.799999999999997 30.96 C 22.38 30.450000000000003, 22.17 30.195, 21.96 29.94 C 21.96 29.94, 22.05 30.015, 21.96 29.94 L 21.6 29.64" fill="none" stroke="black" stroke-width="2"></path><path d="M 13.02 35.400000000000006 C 14.19 35.07000000000001, 14.175 35.025000000000006, 15.36 34.74 C 16.56 34.5, 16.439999999999998 34.44, 17.759999999999998 34.26 C 19.2 34.14, 19.29 34.10999999999999, 20.64 34.019999999999996 C 21.9 33.96, 22.259999999999998 33.915000000000006, 23.16 33.900000000000006 C 23.700000000000003 33.93000000000001, 23.94 33.945, 24.240000000000002 33.96 C 24.3 33.96, 24.33 33.96, 24.36 33.96 L 24.36 33.96" fill="none" stroke="black" stroke-width="2"></path></svg>