<svg width="48" height="48" viewBox="0 0 48 48" xmlns="http://www.w3.org/2000/svg"><path d="M 14.04 27.96 C 15.149999999999999 28.29, 15.179999999999998 28.439999999999998, 16.259999999999998 28.619999999999997 C 17.31 28.65, 17.369999999999997 28.695, 18.36 28.68 C 19.29 28.619999999999997, 19.409999999999997 28.86, 20.22 28.56 C 20.91 28.02, 20.880000000000003 28.14, 21.6 27.48 C 22.35 26.700000000000003, 22.5 26.880000000000003, 23.1 25.92 C 23.55 24.78, 23.73 24.630000000000003, 24 23.64 C 24.09 22.8, 24.134999999999998 22.425, 24.18 21.96 C 24.18 21.87, 24.21 21.840000000000003, 24.18 21.78 C 24.119999999999997 21.75, 24.09 21.405, 24.06 21.72 C 24.06 22.38, 23.909999999999997 21.599999999999998, 24.06 23.04 C 24.36 25.259999999999998, 24.315000000000005 25.86, 24.660000000000004 27.48 C 25.050000000000004 28.5, 24.795 28.905, 25.44 29.52 C 26.340000000000003 29.73, 26.46 30.015, 27.240000000000002 29.94 C 27.9 29.58, 27.884999999999998 30, 28.56 29.22 C 29.25 28.02, 29.505000000000003 28.245, 29.94 26.82 C 30.119999999999997 25.17, 30.209999999999997 25.575, 30.299999999999997 23.52 C 30.299999999999997 21.060000000000002, 30.419999999999995 20.76, 30.299999999999997 18.6 C 30.06 16.740000000000002, 30.36 17.189999999999998, 29.82 14.879999999999999 C 28.98 12.12, 28.770000000000003 11.459999999999999, 28.14 9.36 C 27.72 7.92, 27.734999999999996 7.710000000000001, 27.299999999999997 6.48 C 26.85 5.46, 26.64 4.994999999999999, 26.400000000000002 4.4399999999999995 C 26.369999999999997 4.35, 26.354999999999997 4.305, 26.339999999999996 4.26 C 26.339999999999996 4.26, 26.354999999999997 4.29, 26.339999999999996 4.26 L 26.28 4.14" fill="none" stroke="black" stroke-width="2"></path><path d="M 19.14 9.540000000000001 C 18.72 10.620000000000001, 18.33 10.89, 18.299999999999997 11.7 C 18.659999999999997 12.239999999999998, 18.405 12.6, 19.02 12.78 C 19.89 12.599999999999998, 20.264999999999997 12.929999999999998, 20.759999999999998 12.419999999999998 C 20.88 11.579999999999998, 21.105 11.370000000000001, 21 10.74 C 20.67 10.32, 20.7 10.139999999999999, 20.34 9.899999999999999 C 19.95 9.84, 19.89 9.509999999999998, 19.56 9.78 C 19.29 10.379999999999999, 19.155 10.365, 19.02 10.98 C 19.02 11.61, 18.93 11.865, 19.02 12.24 C 19.2 12.36, 19.169999999999998 12.645, 19.38 12.48 L 19.86 11.58" fill="none" stroke="black" stroke-width="2"></path><path d="M 16.259999999999998 17.04 C 16.619999999999997 17.04, 16.11 17.04, 16.98 17.04 C 18.36 17.04, 18.375 17.04, 19.740000000000002 17.04 C 21.090000000000003 17.04, 21.435000000000002 17.04, 22.44 17.04 C 23.1 17.04, 23.354999999999997 17.04, 23.759999999999998 17.04 L 24.06 17.04" fill="none" stroke="black" stroke-width="2"></path><path d="M 13.200000000000001 35.76 C 14.190000000000001 35.79, 13.785 35.82, 15.18 35.82 C 16.98 35.79, 16.89 35.864999999999995, 18.78 35.76 C 20.76 35.58, 21.225 35.535000000000004, 22.740000000000002 35.400000000000006 C 23.79 35.31, 23.984999999999996 35.31, 24.839999999999996 35.22 C 25.5 35.129999999999995, 25.635 35.085, 26.160000000000004 35.04 C 26.550000000000004 35.04, 26.415000000000003 35.07, 26.94 35.04 C 27.6 34.980000000000004, 27.884999999999998 34.965, 28.259999999999998 34.92 L 28.44 34.86" fill="none" stroke="black" stroke-width="2"></path><path d="M 13.919999999999998 42.54 C 15.659999999999998 42.480000000000004, 15.614999999999998 42.465, 17.4 42.42 C 19.229999999999997 42.39, 19.544999999999998 42.375, 21.06 42.36 C 22.259999999999998 42.36, 22.155 42.36, 23.46 42.36 C 24.87 42.36, 24.990000000000002 42.405, 26.28 42.36 C 27.45 42.269999999999996, 27.735 42.225, 28.619999999999997 42.18 C 29.22 42.18, 29.52 42.18, 29.82 42.18 L 29.82 42.18" fill="none" stroke="black" stroke-width="2"></path></svg>