<svg width="48" height="48" viewBox="0 0 48 48" xmlns="http://www.w3.org/2000/svg"><path d="M 15.120000000000001 27.839999999999996 C 15.99 27.839999999999996, 15.675 27.794999999999995, 16.86 27.839999999999996 C 18.36 27.93, 18.285 27.974999999999998, 19.86 28.02 C 21.509999999999998 28.02, 21.9 28.02, 23.16 28.02 C 24.03 28.02, 23.955000000000002 28.02, 24.900000000000002 28.02 C 25.92 28.02, 25.98 28.02, 26.94 28.02 C 27.840000000000003 28.02, 27.975 28.02, 28.740000000000002 28.02 C 29.37 28.02, 29.415 28.065, 30 28.02 C 30.54 27.93, 30.689999999999998 27.974999999999994, 31.08 27.839999999999996 C 31.32 27.659999999999997, 31.29 27.78, 31.56 27.48 C 31.86 27.060000000000002, 31.815000000000005 27.09, 32.160000000000004 26.64 C 32.55 26.16, 32.64 26.16, 32.94 25.68 C 33.15 25.2, 33.254999999999995 25.214999999999996, 33.36 24.72 C 33.36 24.21, 33.435 24.615000000000002, 33.36 23.700000000000003 C 33.21 22.380000000000003, 33.465 22.814999999999998, 33.06 21.06 C 32.400000000000006 18.869999999999997, 32.28 18.645, 31.740000000000002 16.68 C 31.32 14.940000000000001, 31.290000000000003 15.075000000000001, 30.900000000000002 13.200000000000001 C 30.54 11.190000000000001, 30.585 11.1, 30.18 9.18 C 29.73 7.35, 29.67 7.11, 29.28 5.5200000000000005 C 28.95 4.17, 28.845 3.615, 28.619999999999997 2.82 C 28.5 2.58, 28.44 2.46, 28.380000000000003 2.34 L 28.380000000000003 2.34" fill="none" stroke="black" stroke-width="2"></path><path d="M 21.18 9.3 C 20.64 10.83, 20.325000000000003 11.265, 20.1 12.36 C 20.19 13.02, 20.025000000000002 13.26, 20.28 13.68 C 20.700000000000003 13.86, 20.580000000000002 14.639999999999999, 21.12 14.04 C 21.78 12.66, 22.125 12.239999999999998, 22.44 11.28 C 22.41 10.739999999999998, 22.515 10.53, 22.38 10.2 C 22.14 10.079999999999998, 22.439999999999998 9.704999999999998, 21.9 9.959999999999999 C 21.06 10.59, 20.685 10.620000000000001, 20.22 11.22 C 20.13 11.79, 19.965 11.879999999999999, 20.04 12.36 C 20.28 12.75, 20.16 12.975000000000001, 20.52 13.14 C 21 13.08, 21.105 13.545, 21.48 13.02 C 21.75 12.030000000000001, 22.035 11.64, 22.02 11.040000000000001 L 21.419999999999998 10.620000000000001" fill="none" stroke="black" stroke-width="2"></path><path d="M 18.72 19.799999999999997 C 21.119999999999997 19.65, 21.659999999999997 19.575, 23.52 19.5 C 24.840000000000003 19.5, 25.500000000000004 19.5, 26.160000000000004 19.5 L 26.160000000000004 19.5" fill="none" stroke="black" stroke-width="2"></path><path d="M 23.82 33.06 C 22.86 33.06, 22.86 32.940000000000005, 21.9 33.06 C 20.939999999999998 33.3, 20.82 32.91, 19.98 33.54 C 19.259999999999998 34.56, 18.96 34.574999999999996, 18.54 35.58 C 18.419999999999998 36.57, 18.36 36.6, 18.299999999999997 37.56 C 18.299999999999997 38.49, 18.209999999999997 38.64, 18.299999999999997 39.42 C 18.479999999999997 40.05, 18.285 40.2, 18.66 40.68 C 19.229999999999997 41.01, 19.034999999999997 40.98, 19.799999999999997 41.339999999999996 C 20.759999999999998 41.73, 20.79 41.834999999999994, 21.72 42.12 C 22.619999999999997 42.3, 22.65 42.45, 23.52 42.480000000000004 C 24.36 42.36, 24.390000000000004 42.63, 25.200000000000003 42.24 C 25.98 41.58, 26.13 41.61, 26.759999999999998 40.92 C 27.24 40.2, 27.404999999999998 40.035000000000004, 27.72 39.480000000000004 C 27.869999999999997 39.09, 27.9 39.345, 28.02 38.7 C 28.11 37.800000000000004, 28.290000000000003 37.69500000000001, 28.200000000000003 36.900000000000006 C 27.930000000000003 36.21, 28.050000000000004 36.105, 27.660000000000004 35.519999999999996 C 27.150000000000002 35.04, 27.135 34.965, 26.64 34.56 C 26.16 34.230000000000004, 26.130000000000003 34.215, 25.68 33.900000000000006 C 25.259999999999998 33.6, 25.169999999999995 33.51, 24.839999999999996 33.3 C 24.599999999999998 33.18, 24.599999999999998 33.18, 24.36 33.06 C 24.119999999999997 32.94, 24 32.88, 23.88 32.82 L 23.88 32.82" fill="none" stroke="black" stroke-width="2"></path></svg>