<svg width="48" height="48" viewBox="0 0 48 48" xmlns="http://www.w3.org/2000/svg"><path d="M 15.36 15.419999999999998 C 16.92 15.09, 16.605 15.105, 18.48 14.76 C 20.67 14.399999999999999, 21.195 14.25, 22.86 14.04 C 24 13.979999999999999, 24.255 13.904999999999998, 25.14 13.919999999999998 C 25.770000000000003 14.01, 25.965000000000003 14.010000000000002, 26.400000000000002 14.100000000000001 C 26.64 14.190000000000001, 26.535000000000004 14.024999999999999, 26.880000000000003 14.28 C 27.330000000000002 14.7, 27.345000000000002 14.58, 27.78 15.120000000000001 C 28.2 15.780000000000001, 28.199999999999996 15.525000000000002, 28.619999999999997 16.44 C 29.04 17.61, 29.1 17.565, 29.46 18.78 C 29.759999999999998 20.04, 29.82 19.334999999999997, 30.06 21.299999999999997 C 30.240000000000002 23.97, 30.330000000000002 24.015, 30.42 26.64 C 30.42 29.22, 30.435000000000002 29.805, 30.42 31.799999999999997 C 30.39 33.209999999999994, 30.375 33.285, 30.36 34.62 C 30.36 35.879999999999995, 30.36 36.09, 30.36 37.14 C 30.36 37.980000000000004, 30.405 37.935, 30.36 38.82 C 30.27 39.75, 30.225 39.87, 30.18 40.68 C 30.18 41.370000000000005, 30.18 41.52, 30.18 42.06 C 30.18 42.45, 30.18 42.644999999999996, 30.18 42.839999999999996 L 30.18 42.839999999999996" fill="none" stroke="black" stroke-width="2"></path><path d="M 20.22 2.46 C 20.04 3.15, 19.799999999999997 3.195, 19.86 3.84 C 20.16 4.4399999999999995, 19.965 4.905, 20.46 5.04 C 21.15 4.71, 21.45 5.115, 21.84 4.38 C 21.93 3.2399999999999998, 22.425 2.8049999999999997, 22.02 2.0999999999999996 C 21.119999999999997 1.8299999999999998, 21 1.125, 20.22 1.56 C 19.56 2.7, 19.095 2.9699999999999998, 18.9 3.84 C 19.17 4.4399999999999995, 18.900000000000002 5.235, 19.44 5.04 C 20.25 4.05, 20.655 3.75, 21.06 3.06 C 21.06 2.67, 21.089999999999996 2.49, 21.06 2.2800000000000002 L 20.94 2.2199999999999998" fill="none" stroke="black" stroke-width="2"></path><path d="M 16.14 9.48 C 17.7 9.45, 17.369999999999997 9.48, 19.259999999999998 9.42 C 21.48 9.33, 22.290000000000003 9.33, 23.700000000000003 9.24 C 24.300000000000004 9.15, 24.555000000000003 9.105, 24.900000000000002 9.06 L 25.08 9.06" fill="none" stroke="black" stroke-width="2"></path><path d="M 21.419999999999998 23.64 C 21.24 24.48, 21.104999999999997 24.75, 21.06 25.32 C 21.15 25.62, 20.985 25.860000000000003, 21.240000000000002 25.92 C 21.660000000000004 25.740000000000002, 22.020000000000003 26.325, 22.080000000000002 25.56 C 21.78 24.21, 21.810000000000002 23.7, 21.48 22.86 C 21.119999999999997 22.53, 21.044999999999998 22.215000000000003, 20.759999999999998 22.200000000000003 C 20.549999999999997 22.5, 20.354999999999997 22.409999999999997, 20.34 22.799999999999997 C 20.520000000000003 23.279999999999998, 20.460000000000004 23.534999999999997, 20.700000000000003 23.759999999999998 C 21 23.73, 21.194999999999997 23.955000000000002, 21.299999999999997 23.700000000000003 C 21.21 23.220000000000002, 21.405 22.71, 21.12 22.740000000000002 C 20.64 23.28, 20.445 23.43, 20.16 23.82 L 19.98 24.299999999999997" fill="none" stroke="black" stroke-width="2"></path><path d="M 16.32 34.019999999999996 C 16.98 34.019999999999996, 16.62 34.019999999999996, 17.64 34.019999999999996 C 19.02 34.019999999999996, 19.215 34.019999999999996, 20.4 34.019999999999996 C 21.39 34.019999999999996, 21.78 34.019999999999996, 22.38 34.019999999999996 C 22.589999999999996 34.019999999999996, 22.65 34.019999999999996, 22.799999999999997 34.019999999999996 L 22.98 34.019999999999996" fill="none" stroke="black" stroke-width="2"></path><path d="M 17.46 34.32 C 18.09 34.32, 17.43 34.32, 18.72 34.32 C 20.67 34.32, 21.345 34.32, 22.62 34.32 C 23.22 34.32, 23.43 34.32, 23.82 34.32 C 24 34.32, 24.09 34.32, 24.18 34.32 L 24.18 34.32" fill="none" stroke="black" stroke-width="2"></path><path d="M 21.96 24.900000000000002 C 21.810000000000002 25.47, 21.615000000000002 25.634999999999998, 21.66 26.04 C 21.9 26.28, 21.945 26.384999999999998, 22.14 26.52 C 22.29 26.549999999999997, 22.470000000000002 27.299999999999997, 22.44 26.58 C 22.23 25.11, 22.365000000000002 24.42, 22.02 23.64 C 21.54 23.55, 21.689999999999998 22.815, 21.06 23.46 C 20.28 24.84, 19.725 25.29, 19.5 26.22 C 19.83 26.7, 19.815 26.955, 20.16 27.18 C 20.52 27.15, 20.655 27.374999999999996, 20.88 27.119999999999997 L 21.06 26.160000000000004" fill="none" stroke="black" stroke-width="2"></path></svg>