<svg width="48" height="48" viewBox="0 0 48 48" xmlns="http://www.w3.org/2000/svg"><path d="M 16.02 39.900000000000006 C 15.69 38.46, 15.75 38.415, 15.36 37.019999999999996 C 14.91 35.67, 14.805 35.565, 14.46 34.32 C 14.22 33.18, 14.280000000000001 33.21, 13.98 32.04 C 13.620000000000001 30.84, 13.469999999999999 30.855, 13.26 29.64 C 13.2 28.41, 13.17 28.455, 13.14 27.18 C 13.14 25.86, 13.14 25.755, 13.14 24.54 C 13.14 23.43, 13.125 23.295, 13.14 22.32 C 13.170000000000002 21.48, 13.110000000000001 21.585, 13.200000000000001 20.64 C 13.350000000000001 19.59, 13.305 19.53, 13.5 18.54 C 13.74 17.61, 13.755 17.415, 13.98 16.68 C 14.19 16.14, 14.189999999999998 16.035, 14.399999999999999 15.600000000000001 C 14.61 15.270000000000001, 14.52 15.285000000000002, 14.82 14.940000000000001 C 15.21 14.580000000000002, 15.3 14.505, 15.600000000000001 14.22 C 15.81 14.01, 15.765 13.905, 16.02 13.799999999999999 C 16.32 13.799999999999999, 16.395000000000003 13.799999999999999, 16.62 13.799999999999999 C 16.77 13.799999999999999, 16.709999999999997 13.754999999999999, 16.919999999999998 13.799999999999999 C 17.189999999999998 13.89, 17.16 13.725, 17.46 13.98 C 17.79 14.4, 17.745 14.205, 18.12 14.82 C 18.54 15.63, 18.645000000000003 15.765, 18.96 16.44 C 19.17 16.98, 19.11 16.634999999999998, 19.38 17.52 C 19.71 18.75, 19.74 18.69, 20.04 19.98 C 20.310000000000002 21.33, 20.415 21.855, 20.580000000000002 22.68 C 20.64 22.98, 20.67 23.130000000000003, 20.700000000000003 23.28 C 20.700000000000003 23.28, 20.700000000000003 23.325000000000003, 20.700000000000003 23.28 C 20.700000000000003 23.19, 20.700000000000003 23.61, 20.700000000000003 23.1 C 20.700000000000003 22.17, 20.700000000000003 22.110000000000003, 20.700000000000003 21.240000000000002 C 20.700000000000003 20.43, 20.655000000000005 20.340000000000003, 20.700000000000003 19.62 C 20.79 18.990000000000002, 20.655 19.05, 20.88 18.36 C 21.240000000000002 17.61, 21.225 17.445, 21.6 16.86 C 21.990000000000002 16.439999999999998, 21.9 16.41, 22.38 16.02 C 22.95 15.66, 22.95 15.524999999999999, 23.52 15.299999999999999 C 24.090000000000003 15.21, 24.225000000000005 15.165000000000001, 24.660000000000004 15.120000000000001 C 24.96 15.120000000000001, 24.9 14.955000000000002, 25.259999999999998 15.120000000000001 C 25.68 15.45, 25.679999999999996 15.254999999999999, 26.099999999999998 15.78 C 26.52 16.5, 26.61 16.485, 26.94 17.22 C 27.18 17.97, 27.21 17.805, 27.42 18.72 C 27.6 19.799999999999997, 27.645000000000003 19.71, 27.78 20.88 C 27.87 22.14, 27.915 22.095, 27.96 23.4 C 27.96 24.75, 28.005000000000003 24.93, 27.96 26.099999999999998 C 27.87 27.089999999999996, 27.915 26.985, 27.78 28.08 C 27.6 29.28, 27.6 29.22, 27.42 30.48 C 27.240000000000002 31.799999999999997, 27.195 32.025, 27.06 33.12 C 26.97 33.989999999999995, 26.970000000000002 34.11, 26.880000000000003 34.86 C 26.790000000000003 35.489999999999995, 26.820000000000004 35.4, 26.700000000000003 36.12 C 26.550000000000004 36.93, 26.475 37.14, 26.400000000000002 37.74 C 26.400000000000002 38.129999999999995, 26.430000000000003 38.25, 26.400000000000002 38.519999999999996 C 26.340000000000003 38.67, 26.325000000000003 38.67, 26.28 38.82 C 26.25 38.97, 26.25 38.879999999999995, 26.22 39.12 C 26.19 39.45, 26.175000000000004 39.615, 26.160000000000004 39.78 C 26.160000000000004 39.78, 26.160000000000004 39.78, 26.160000000000004 39.78 L 26.160000000000004 39.78" fill="none" stroke="black" stroke-width="2"></path><path d="M 19.919999999999998 2.34 C 19.439999999999998 2.4299999999999997, 19.35 2.145, 18.96 2.52 C 18.66 3.1799999999999997, 18.525 3.2699999999999996, 18.36 3.84 C 18.33 4.32, 18.029999999999998 4.485000000000001, 18.299999999999997 4.800000000000001 C 18.869999999999997 4.95, 19.05 5.025, 19.44 5.1 C 19.65 5.1, 19.65 5.22, 19.86 5.1 C 20.07 4.859999999999999, 20.16 4.9350000000000005, 20.28 4.62 C 20.310000000000002 4.23, 20.34 4.2299999999999995, 20.34 3.84 C 20.310000000000002 3.45, 20.355 3.315, 20.28 3.06 C 20.16 2.94, 20.31 2.8949999999999996, 20.04 2.82 C 19.62 2.79, 19.53 2.5050000000000003, 19.200000000000003 2.7600000000000002 C 18.96 3.3, 18.84 3.375, 18.72 3.84 C 18.72 4.23, 18.555 4.305, 18.72 4.62 C 19.049999999999997 4.859999999999999, 18.93 5.069999999999999, 19.38 5.1 C 19.95 4.92, 20.205 4.98, 20.52 4.74 C 20.58 4.4399999999999995, 20.61 4.455, 20.64 4.14 C 20.64 3.8099999999999996, 20.835 3.6749999999999994, 20.64 3.4799999999999995 C 20.25 3.42, 20.085 3.39, 19.86 3.3600000000000003 C 19.8 3.3600000000000003, 19.830000000000002 3.3150000000000004, 19.740000000000002 3.3600000000000003 C 19.62 3.45, 19.59 3.45, 19.5 3.54 L 19.38 3.7199999999999998" fill="none" stroke="black" stroke-width="2"></path><path d="M 15.419999999999998 8.399999999999999 C 15.389999999999999 8.489999999999998, 15.209999999999999 8.504999999999999, 15.36 8.58 C 15.69 8.64, 15.6 8.639999999999999, 16.02 8.7 C 16.53 8.76, 16.035 8.73, 17.04 8.82 C 18.54 8.940000000000001, 18.6 9, 20.04 9.06 C 21.419999999999998 9.06, 21.674999999999997 9.06, 22.799999999999997 9.06 C 23.669999999999998 9.06, 24.104999999999997 9.06, 24.54 9.06 L 24.54 9.06" fill="none" stroke="black" stroke-width="2"></path><path d="M 13.32 40.08 C 15 40.019999999999996, 14.91 40.125, 16.68 39.96 C 18.54 39.69, 18.464999999999996 39.705, 20.4 39.42 C 22.41 39.120000000000005, 22.770000000000003 38.97, 24.42 38.82 C 25.71 38.82, 25.905 38.82, 27 38.82 C 27.9 38.82, 28.139999999999997 38.775, 28.799999999999997 38.82 C 29.22 38.91, 29.43 38.955, 29.64 39 L 29.64 39" fill="none" stroke="black" stroke-width="2"></path></svg>