<svg width="48" height="48" viewBox="0 0 48 48" xmlns="http://www.w3.org/2000/svg"><path d="M 10.74 18.419999999999998 C 10.559999999999999 17.43, 10.544999999999998 17.325000000000003, 10.379999999999999 16.44 C 10.23 15.66, 10.29 15.825, 10.08 14.879999999999999 C 9.81 13.77, 9.675 13.515, 9.540000000000001 12.66 C 9.540000000000001 12.059999999999999, 9.540000000000001 11.954999999999998, 9.540000000000001 11.459999999999999 C 9.540000000000001 11.07, 9.495000000000001 11.19, 9.540000000000001 10.68 C 9.63 10.05, 9.39 10.035, 9.72 9.42 C 10.29 8.82, 10.29 8.745000000000001, 10.86 8.22 C 11.43 7.7700000000000005, 11.129999999999999 7.680000000000001, 12 7.32 C 13.17 7.05, 12.675 7.02, 14.34 6.779999999999999 C 16.5 6.57, 16.83 6.525, 18.66 6.36 C 20.16 6.24, 19.83 6.18, 21.66 6.12 C 23.82 6.12, 24.240000000000002 6.12, 25.98 6.12 C 27.299999999999997 6.12, 27.24 6.12, 28.619999999999997 6.12 C 30.06 6.12, 30.435 6.12, 31.5 6.12 C 32.19 6.12, 32.265 6.12, 32.88 6.12 C 33.42 6.12, 33.6 6.12, 33.96 6.12 C 34.14 6.12, 34.230000000000004 6.12, 34.32 6.12 L 34.32 6.12" fill="none" stroke="black" stroke-width="2"></path><path d="M 21 7.62 C 21.03 8.82, 21.06 8.264999999999999, 21.06 10.02 C 21.03 12.33, 21.09 12.600000000000001, 21 14.64 C 20.85 16.41, 20.955000000000002 16.17, 20.700000000000003 18.18 C 20.340000000000003 20.43, 20.415 20.4, 19.98 22.68 C 19.47 24.99, 19.53 25.304999999999996, 18.96 27.299999999999997 C 18.330000000000002 28.98, 18.285000000000004 29.220000000000002, 17.700000000000003 30.660000000000004 C 17.160000000000004 31.860000000000003, 17.160000000000004 32.05500000000001, 16.62 33.06 C 16.08 33.870000000000005, 16.125 33.81, 15.54 34.68 C 14.91 35.61, 15.03 35.504999999999995, 14.28 36.54 C 13.41 37.68, 13.26 37.95, 12.54 38.82 C 11.969999999999999 39.42, 11.729999999999999 39.675, 11.399999999999999 40.019999999999996 C 11.309999999999999 40.11, 11.265 40.155, 11.22 40.2 L 11.22 40.2" fill="none" stroke="black" stroke-width="2"></path><path d="M 28.86 19.919999999999998 C 28.5 21.810000000000002, 28.59 21.660000000000004, 28.14 23.700000000000003 C 27.6 25.89, 27.72 26.055, 27.06 28.08 C 26.28 29.939999999999998, 26.295 30.104999999999997, 25.5 31.799999999999997 C 24.689999999999998 33.33, 24.509999999999998 33.735, 23.88 34.86 C 23.43 35.58, 23.85 35.355, 22.98 36.3 C 21.689999999999998 37.47, 21.345 37.8, 20.4 38.64 C 19.8 39.150000000000006, 19.590000000000003 39.345, 19.200000000000003 39.660000000000004 C 19.020000000000003 39.78, 19.005000000000003 39.79500000000001, 18.84 39.900000000000006 L 18.54 40.08" fill="none" stroke="black" stroke-width="2"></path></svg>