<svg width="48" height="48" viewBox="0 0 48 48" xmlns="http://www.w3.org/2000/svg"><path d="M 13.559999999999999 43.14 C 11.729999999999999 43.14, 11.144999999999998 43.14, 9.899999999999999 43.14 C 9.239999999999998 43.14, 9.105 43.14, 8.58 43.14 C 8.190000000000001 43.14, 8.040000000000001 43.14, 7.800000000000001 43.14 C 7.710000000000001 43.14, 7.665 43.14, 7.62 43.14 C 7.62 43.14, 7.62 43.14, 7.62 43.14 C 7.62 43.14, 7.62 43.14, 7.62 43.14 C 7.62 43.14, 7.62 43.14, 7.62 43.14 C 7.62 43.14, 7.62 43.14, 7.62 43.14 C 7.62 43.14, 7.62 43.14, 7.62 43.14 C 7.62 43.14, 7.65 43.14, 7.62 43.14 C 7.5600000000000005 43.14, 7.53 43.14, 7.5 43.14 C 7.5 43.14, 7.5 43.14, 7.5 43.14 C 7.5 43.14, 7.5 43.14, 7.5 43.14 L 7.5 43.14" fill="none" stroke="black" stroke-width="2"></path><path d="M 7.5600000000000005 43.14 C 7.5600000000000005 42.75, 7.5600000000000005 43.35, 7.5600000000000005 42.36 C 7.5600000000000005 40.769999999999996, 7.5600000000000005 40.605, 7.5600000000000005 39.18 C 7.5600000000000005 37.92, 7.5600000000000005 37.74, 7.5600000000000005 36.660000000000004 C 7.5600000000000005 35.760000000000005, 7.5600000000000005 35.88, 7.5600000000000005 34.86 C 7.5600000000000005 33.72, 7.5600000000000005 33.795, 7.5600000000000005 32.58 C 7.5600000000000005 31.29, 7.5600000000000005 31.305, 7.5600000000000005 30 C 7.5600000000000005 28.68, 7.5600000000000005 28.53, 7.5600000000000005 27.36 C 7.5600000000000005 26.34, 7.5600000000000005 26.34, 7.5600000000000005 25.32 C 7.5600000000000005 24.3, 7.5600000000000005 24.270000000000003, 7.5600000000000005 23.28 C 7.5600000000000005 22.32, 7.5600000000000005 22.395, 7.5600000000000005 21.36 C 7.5600000000000005 20.25, 7.5600000000000005 20.085, 7.5600000000000005 19.14 C 7.5600000000000005 18.36, 7.5600000000000005 18.300000000000004, 7.5600000000000005 17.580000000000002 C 7.5600000000000005 16.92, 7.470000000000001 17.04, 7.5600000000000005 16.259999999999998 C 7.74 15.36, 7.74 15.165, 7.92 14.46 C 8.1 13.950000000000001, 7.994999999999999 13.905000000000001, 8.28 13.440000000000001 C 8.67 13.020000000000001, 8.46 13.170000000000002, 9.06 12.600000000000001 C 9.870000000000001 11.88, 9.945 11.67, 10.68 11.16 C 11.34 10.86, 11.115 10.935, 12 10.56 C 13.11 10.11, 13.155000000000001 9.99, 14.22 9.66 C 15.239999999999998 9.45, 15.209999999999999 9.39, 16.259999999999998 9.24 C 17.339999999999996 9.15, 17.519999999999996 9.105, 18.419999999999998 9.06 C 19.14 9.06, 18.96 9.06, 19.86 9.06 C 20.939999999999998 9.06, 20.985 8.97, 22.02 9.06 C 23.009999999999998 9.24, 23.295 9.285, 24 9.42 C 24.419999999999998 9.510000000000002, 24.599999999999994 9.540000000000001, 24.839999999999996 9.600000000000001 L 24.96 9.66" fill="none" stroke="black" stroke-width="2"></path></svg>