<svg width="48" height="48" viewBox="0 0 48 48" xmlns="http://www.w3.org/2000/svg"><path d="M 29.04 4.86 C 29.549999999999997 5.19, 29.549999999999997 5.130000000000001, 30.06 5.5200000000000005 C 30.57 5.970000000000001, 30.554999999999996 5.85, 31.08 6.42 C 31.62 7.11, 31.785000000000004 7.065000000000001, 32.160000000000004 7.800000000000001 C 32.370000000000005 8.58, 32.475 8.67, 32.58 9.36 C 32.58 9.96, 32.61 9.945, 32.58 10.56 C 32.519999999999996 11.190000000000001, 32.595 11.34, 32.46 11.82 C 32.25 12.15, 32.34 12.165, 32.04 12.48 C 31.65 12.780000000000001, 31.964999999999996 12.840000000000002, 31.259999999999998 13.080000000000002 C 30.24 13.260000000000002, 30.659999999999997 13.305000000000001, 29.22 13.440000000000001 C 27.36 13.530000000000001, 27.015 13.515, 25.5 13.620000000000001 C 24.33 13.74, 24.915 13.695, 23.16 13.86 C 20.82 14.07, 19.905 14.129999999999999, 18.48 14.28 C 17.97 14.370000000000001, 17.91 14.415000000000001, 17.46 14.46 C 17.07 14.46, 16.994999999999997 14.46, 16.68 14.46 C 16.44 14.46, 16.590000000000003 14.46, 16.200000000000003 14.46 C 15.660000000000002 14.46, 15.39 14.46, 15.120000000000001 14.46 C 15.120000000000001 14.46, 15.120000000000001 14.46, 15.120000000000001 14.46 L 15.120000000000001 14.46" fill="none" stroke="black" stroke-width="2"></path><path d="M 20.28 14.04 C 20.52 15.39, 20.714999999999996 15.180000000000001, 20.759999999999998 16.740000000000002 C 20.61 18.51, 20.64 18.18, 20.46 20.28 C 20.25 22.71, 20.25 22.71, 20.04 25.14 C 19.83 27.57, 19.725 27.6, 19.62 30 C 19.62 32.370000000000005, 19.665 33.03, 19.62 34.74 C 19.53 35.79, 19.485 35.879999999999995, 19.44 36.839999999999996 C 19.44 37.709999999999994, 19.455000000000002 38.099999999999994, 19.44 38.58 L 19.38 38.76" fill="none" stroke="black" stroke-width="2"></path><path d="M 19.02 39 C 19.02 38.22, 18.869999999999997 38.22, 19.02 37.44 C 19.32 36.66, 18.915 37.125, 19.62 35.88 C 20.73 34.17, 20.955 33.69, 21.84 32.46 C 22.5 31.71, 22.125 31.755000000000003, 23.16 30.96 C 24.57 30.12, 23.94 30.405, 25.98 29.28 C 28.65 27.87, 29.43 27.39, 31.32 26.46 C 32.43 26.009999999999998, 32.894999999999996 25.799999999999997, 33.54 25.56 L 33.900000000000006 25.5" fill="none" stroke="black" stroke-width="2"></path></svg>