<svg width="48" height="48" viewBox="0 0 48 48" xmlns="http://www.w3.org/2000/svg"><path d="M 14.940000000000001 4.0200000000000005 C 14.97 4.62, 14.865 4.38, 15 5.22 C 15.24 6.3, 15.255 6.465, 15.48 7.38 C 15.69 8.129999999999999, 15.479999999999999 8.129999999999999, 15.899999999999999 8.879999999999999 C 16.53 9.629999999999999, 16.515 9.764999999999999, 17.16 10.379999999999999 C 17.82 10.86, 17.805 11.1, 18.48 11.34 C 19.17 11.34, 19.14 11.34, 19.86 11.34 C 20.61 11.34, 20.46 11.504999999999999, 21.36 11.34 C 22.41 11.01, 22.605 11.19, 23.46 10.68 C 24.12 9.99, 24.135 10.215, 24.78 9.3 C 25.41 8.16, 25.56 8.084999999999999, 26.04 7.02 C 26.37 6.029999999999999, 26.535000000000004 6.0600000000000005, 26.700000000000003 5.04 C 26.700000000000003 3.99, 26.700000000000003 3.645, 26.700000000000003 2.94 C 26.700000000000003 2.58, 26.700000000000003 2.4, 26.700000000000003 2.2199999999999998 C 26.700000000000003 2.2199999999999998, 26.700000000000003 2.2199999999999998, 26.700000000000003 2.2199999999999998 C 26.700000000000003 2.2199999999999998, 26.700000000000003 2.2199999999999998, 26.700000000000003 2.2199999999999998 L 26.700000000000003 2.2199999999999998" fill="none" stroke="black" stroke-width="2"></path><path d="M 16.259999999999998 14.700000000000001 C 16.589999999999996 15.030000000000001, 16.214999999999996 14.49, 16.919999999999998 15.36 C 18 16.77, 18.060000000000002 16.89, 19.080000000000002 18.18 C 20.04 19.35, 20.25 19.665, 21 20.52 C 21.54 21.060000000000002, 21.375 20.865000000000002, 22.080000000000002 21.6 C 22.950000000000003 22.53, 23.085 22.740000000000002, 23.82 23.46 C 24.42 23.97, 24.555 24.09, 25.02 24.48 C 25.35 24.75, 25.41 24.765, 25.68 25.02 C 25.89 25.259999999999998, 25.949999999999996 25.215, 26.099999999999998 25.5 C 26.189999999999998 25.830000000000002, 26.235 25.845000000000006, 26.28 26.160000000000004 C 26.28 26.46, 26.415 26.235, 26.28 26.759999999999998 C 26.01 27.509999999999998, 26.115000000000002 27.525, 25.740000000000002 28.259999999999998 C 25.26 28.98, 25.455000000000002 28.545, 24.78 29.700000000000003 C 23.91 31.290000000000003, 23.715 31.635000000000005, 23.04 32.88 C 22.560000000000002 33.78, 22.68 33.645, 22.080000000000002 34.68 C 21.36 35.849999999999994, 21.240000000000002 36, 20.64 37.019999999999996 C 20.16 37.89, 20.25 37.754999999999995, 19.68 38.76 C 19.02 39.9, 18.84 40.214999999999996, 18.36 41.04 C 18.06 41.55, 17.924999999999997 41.715, 17.759999999999998 42.06 C 17.73 42.24, 17.715000000000003 42.33, 17.700000000000003 42.42 C 17.700000000000003 42.42, 17.700000000000003 42.42, 17.700000000000003 42.42 L 17.700000000000003 42.42" fill="none" stroke="black" stroke-width="2"></path><path d="M 15.18 22.919999999999998 C 15.48 23.07, 15.329999999999998 22.755, 15.78 23.22 C 16.38 24, 16.29 23.775, 16.98 24.78 C 17.759999999999998 26.01, 17.924999999999997 26.25, 18.54 27.240000000000002 C 18.990000000000002 27.990000000000002, 18.990000000000002 28.14, 19.44 28.740000000000002 C 19.89 29.19, 19.905 29.130000000000003, 20.34 29.64 C 20.759999999999998 30.21, 20.805 30.21, 21.18 30.78 C 21.509999999999998 31.35, 21.615 31.470000000000002, 21.84 31.92 C 21.96 32.25, 22.005000000000003 32.37, 22.080000000000002 32.58 C 22.11 32.67, 22.125 32.684999999999995, 22.14 32.76 C 22.14 32.82, 22.14 32.85, 22.14 32.88 C 22.14 32.88, 22.14 32.88, 22.14 32.88 C 22.14 32.88, 22.14 32.88, 22.14 32.88 L 22.14 32.88" fill="none" stroke="black" stroke-width="2"></path></svg>