<svg width="48" height="48" viewBox="0 0 48 48" xmlns="http://www.w3.org/2000/svg"><path d="M 14.700000000000001 44.28 C 14.670000000000002 43.41, 14.865000000000002 43.59, 14.64 42.54 C 14.219999999999999 41.31, 14.25 41.849999999999994, 13.799999999999999 40.08 C 13.32 37.769999999999996, 13.2 37.425, 12.84 35.46 C 12.6 33.84, 12.48 33.765, 12.36 32.22 C 12.36 30.75, 12.36 30.450000000000003, 12.36 29.28 C 12.36 28.41, 12.36 28.485, 12.36 27.54 C 12.36 26.52, 12.315 26.4, 12.36 25.5 C 12.45 24.72, 12.434999999999999 24.525000000000002, 12.54 23.94 C 12.66 23.55, 12.66 23.445, 12.78 23.16 C 12.899999999999999 22.979999999999997, 12.809999999999999 23.099999999999998, 13.02 22.799999999999997 C 13.32 22.38, 13.47 22.17, 13.620000000000001 21.96 C 13.620000000000001 21.96, 13.485000000000001 22.020000000000003, 13.620000000000001 21.96 C 13.89 21.84, 13.86 21.825, 14.16 21.72 C 14.49 21.63, 14.46 21.585, 14.82 21.54 C 15.21 21.54, 15.180000000000001 21.299999999999997, 15.600000000000001 21.54 C 16.05 22.02, 16.11 21.93, 16.5 22.5 C 16.83 23.16, 16.89 23.130000000000003, 17.16 23.82 C 17.37 24.54, 17.340000000000003 24.509999999999998, 17.580000000000002 25.259999999999998 C 17.85 26.04, 17.865000000000002 26.055, 18.12 26.82 C 18.36 27.57, 18.435000000000002 27.855, 18.6 28.32 C 18.69 28.5, 18.735 28.59, 18.78 28.68 C 18.78 28.68, 18.765 28.814999999999998, 18.78 28.68 C 18.810000000000002 28.41, 18.825 28.605, 18.84 28.14 C 18.84 27.48, 18.84 27.810000000000002, 18.84 26.82 C 18.84 25.5, 18.795 25.005, 18.84 24.18 C 18.93 23.85, 18.915 23.895, 19.02 23.52 C 19.14 23.1, 19.139999999999997 23.009999999999998, 19.259999999999998 22.68 C 19.38 22.44, 19.275 22.53, 19.5 22.200000000000003 C 19.83 21.78, 19.86 21.69, 20.16 21.36 C 20.43 21.119999999999997, 20.355000000000004 21.15, 20.700000000000003 20.88 C 21.12 20.58, 20.939999999999998 20.520000000000003, 21.54 20.28 C 22.32 20.1, 22.185000000000002 20.009999999999998, 23.1 19.919999999999998 C 24.150000000000002 19.919999999999998, 23.730000000000004 19.919999999999998, 25.200000000000003 19.919999999999998 C 27.090000000000003 19.919999999999998, 28.035 19.919999999999998, 28.98 19.919999999999998 L 28.98 19.919999999999998" fill="none" stroke="black" stroke-width="2"></path><path d="M 13.98 15.96 C 15.840000000000002 15.96, 15.780000000000003 15.975000000000001, 17.700000000000003 15.96 C 19.68 15.93, 19.695 15.915, 21.66 15.899999999999999 C 23.61 15.899999999999999, 24.015 15.899999999999999, 25.56 15.899999999999999 C 26.699999999999996 15.899999999999999, 27.269999999999996 15.899999999999999, 27.839999999999996 15.899999999999999 L 27.839999999999996 15.899999999999999" fill="none" stroke="black" stroke-width="2"></path><path d="M 14.64 10.379999999999999 C 16.560000000000002 10.29, 16.665 10.245, 18.48 10.2 C 20.189999999999998 10.2, 20.145 10.2, 21.9 10.2 C 23.7 10.2, 23.91 10.2, 25.5 10.2 C 26.88 10.2, 27.464999999999996 10.2, 28.259999999999998 10.2 L 28.68 10.2" fill="none" stroke="black" stroke-width="2"></path><path d="M 24.119999999999997 31.68 C 23.369999999999997 32.31, 23.19 32.339999999999996, 22.62 32.94 C 22.23 33.51, 22.17 33.165, 21.84 34.08 C 21.57 35.339999999999996, 21.435 35.39999999999999, 21.299999999999997 36.599999999999994 C 21.299999999999997 37.739999999999995, 21.119999999999997 37.995000000000005, 21.299999999999997 38.88 C 21.659999999999997 39.510000000000005, 21.435 39.615, 22.02 40.14 C 22.83 40.56, 22.635 40.74000000000001, 23.64 40.980000000000004 C 24.84 41.04, 24.96 41.16, 26.04 41.099999999999994 C 27 40.92, 27.18 41.085, 27.96 40.74 C 28.560000000000002 40.230000000000004, 28.740000000000002 40.335, 29.160000000000004 39.72 C 29.400000000000002 39, 29.520000000000003 38.985, 29.64 38.28 C 29.64 37.59, 29.67 37.53000000000001, 29.64 36.900000000000006 C 29.58 36.33, 29.7 36.465, 29.52 35.76 C 29.22 34.92, 29.175 34.845, 28.92 34.08 C 28.71 33.39, 28.785 33.24, 28.5 32.7 C 28.14 32.31, 28.26 32.190000000000005, 27.78 31.92 C 27.18 31.77, 27.18 31.74, 26.58 31.619999999999997 C 25.98 31.53, 25.830000000000002 31.485, 25.380000000000003 31.44 C 25.080000000000002 31.44, 25.110000000000003 31.35, 24.78 31.44 C 24.42 31.619999999999997, 24.27 31.665, 24.06 31.799999999999997 L 23.94 31.98" fill="none" stroke="black" stroke-width="2"></path><path d="M 20.88 36.72 C 20.939999999999998 36.93, 20.535 37.019999999999996, 21 37.14 C 21.87 37.17, 21.660000000000004 37.185, 22.740000000000002 37.2 C 24.03 37.2, 24.09 37.2, 25.32 37.2 C 26.490000000000002 37.2, 26.745000000000005 37.2, 27.660000000000004 37.2 C 28.32 37.2, 28.53 37.2, 28.98 37.2 C 29.22 37.2, 29.34 37.2, 29.46 37.2 C 29.46 37.2, 29.46 37.2, 29.46 37.2 L 29.46 37.2" fill="none" stroke="black" stroke-width="2"></path></svg>