<svg width="48" height="48" viewBox="0 0 48 48" xmlns="http://www.w3.org/2000/svg"><path d="M 15.299999999999999 4.62 C 15.599999999999998 4.62, 15.389999999999999 4.62, 15.899999999999999 4.62 C 16.619999999999997 4.62, 16.244999999999997 4.62, 17.34 4.62 C 18.810000000000002 4.62, 19.065 4.62, 20.28 4.62 C 21.240000000000002 4.62, 21.150000000000002 4.62, 22.200000000000003 4.62 C 23.340000000000003 4.62, 23.1 4.62, 24.48 4.62 C 26.1 4.62, 26.265 4.65, 27.72 4.62 C 29.009999999999998 4.5600000000000005, 28.859999999999996 4.545, 30.299999999999997 4.5 C 31.89 4.47, 32.28 4.455, 33.480000000000004 4.4399999999999995 C 34.29 4.4399999999999995, 34.574999999999996 4.4399999999999995, 35.099999999999994 4.4399999999999995 C 35.339999999999996 4.4399999999999995, 35.459999999999994 4.4399999999999995, 35.58 4.4399999999999995 L 35.58 4.4399999999999995" fill="none" stroke="black" stroke-width="2"></path><path d="M 14.700000000000001 10.32 C 14.940000000000001 10.32, 14.4 10.32, 15.18 10.32 C 16.5 10.32, 16.439999999999998 10.32, 17.82 10.32 C 19.26 10.32, 19.290000000000003 10.32, 20.700000000000003 10.32 C 22.080000000000002 10.32, 21.945 10.41, 23.46 10.32 C 25.11 10.14, 25.019999999999996 10.155, 26.759999999999998 9.959999999999999 C 28.59 9.75, 29.04 9.705, 30.42 9.540000000000001 C 31.35 9.420000000000002, 31.425000000000004 9.360000000000001, 32.28 9.3 C 33.06 9.3, 33 9.345, 33.839999999999996 9.3 C 34.739999999999995 9.21, 34.92 9.165000000000001, 35.64 9.120000000000001 C 36.18 9.120000000000001, 36.375 9.120000000000001, 36.72 9.120000000000001 C 36.87 9.120000000000001, 36.94499999999999 9.120000000000001, 37.019999999999996 9.120000000000001 L 37.019999999999996 9.120000000000001" fill="none" stroke="black" stroke-width="2"></path><path d="M 19.44 10.26 C 19.44 10.86, 19.44 10.604999999999999, 19.44 11.459999999999999 C 19.44 12.57, 19.44 12.495, 19.44 13.68 C 19.44 14.940000000000001, 19.560000000000002 14.865000000000002, 19.44 16.200000000000003 C 19.200000000000003 17.61, 19.23 17.685000000000002, 18.96 19.02 C 18.66 20.28, 18.645 20.31, 18.36 21.54 C 18.09 22.740000000000002, 18 23.145000000000003, 17.82 23.94 C 17.73 24.33, 17.685000000000002 24.255, 17.64 24.72 C 17.64 25.259999999999998, 17.64 25.259999999999998, 17.64 25.799999999999997 C 17.64 26.34, 17.64 26.430000000000003, 17.64 26.880000000000003 C 17.64 27.240000000000002, 17.595 27.299999999999997, 17.64 27.599999999999998 C 17.73 27.839999999999996, 17.595 27.825, 17.82 28.08 C 18.18 28.349999999999998, 18.075 28.365, 18.54 28.619999999999997 C 19.11 28.86, 18.825 28.845, 19.68 29.099999999999998 C 20.82 29.369999999999997, 20.415 29.49, 21.96 29.64 C 23.91 29.67, 24.42 29.685000000000002, 25.86 29.700000000000003 C 26.79 29.700000000000003, 26.88 29.700000000000003, 27.72 29.700000000000003 C 28.47 29.700000000000003, 28.575 29.700000000000003, 29.22 29.700000000000003 C 29.759999999999998 29.700000000000003, 29.714999999999996 29.730000000000004, 30.299999999999997 29.700000000000003 C 30.93 29.64, 31.005 29.685, 31.56 29.58 C 32.04 29.43, 32.114999999999995 29.415, 32.519999999999996 29.28 C 32.849999999999994 29.16, 32.985 29.13, 33.18 29.04 C 33.239999999999995 28.98, 33.209999999999994 29.19, 33.3 28.92 C 33.42 28.44, 33.435 28.725, 33.54 27.96 C 33.629999999999995 26.91, 33.675 27.045, 33.72 25.86 C 33.72 24.54, 33.765 24.419999999999998, 33.72 23.22 C 33.629999999999995 22.14, 33.735 22.32, 33.54 21.06 C 33.239999999999995 19.619999999999997, 33.285 19.515, 32.94 18.18 C 32.55 16.95, 32.415000000000006 16.755000000000003, 32.160000000000004 15.72 C 32.040000000000006 14.879999999999999, 32.07 14.969999999999999, 31.92 14.04 C 31.740000000000002 13.02, 31.68 12.735, 31.56 12 C 31.5 11.55, 31.5 11.415000000000001, 31.44 11.100000000000001 C 31.380000000000003 10.920000000000002, 31.38 10.905000000000001, 31.32 10.74 C 31.26 10.59, 31.230000000000004 10.515, 31.200000000000003 10.44 C 31.200000000000003 10.44, 31.215000000000003 10.485, 31.200000000000003 10.44 C 31.17 10.35, 31.155 10.305, 31.14 10.26 L 31.14 10.26" fill="none" stroke="black" stroke-width="2"></path><path d="M 24.06 29.160000000000004 C 24.03 29.700000000000003, 24.015 29.625000000000004, 24 30.240000000000002 C 24 30.93, 24.060000000000002 30.99, 24 31.619999999999997 C 23.88 32.19, 24 32.114999999999995, 23.759999999999998 32.76 C 23.4 33.480000000000004, 23.564999999999998 33.465, 23.04 34.2 C 22.35 34.95, 22.425 34.995000000000005, 21.66 35.7 C 20.82 36.36, 20.7 36.525, 19.98 37.019999999999996 C 19.380000000000003 37.349999999999994, 19.275000000000002 37.41, 18.78 37.68 C 18.39 37.89, 18.36 37.964999999999996, 18 38.099999999999994 L 17.34 38.22" fill="none" stroke="black" stroke-width="2"></path><path d="M 30.48 35.22 C 30.48 35.67, 30.645 35.144999999999996, 30.48 36.12 C 30.15 37.62, 30.21 37.86, 29.82 39.12 C 29.37 40.14, 29.655 40.02, 28.92 41.160000000000004 C 27.900000000000002 42.42, 27.810000000000002 42.705, 26.880000000000003 43.68 C 26.040000000000003 44.370000000000005, 26.250000000000004 44.385000000000005, 25.200000000000003 45.06 C 23.94 45.72, 23.76 45.915000000000006, 22.68 46.38 C 21.78 46.650000000000006, 21.33 46.785000000000004, 20.88 46.92 L 20.88 46.92" fill="none" stroke="black" stroke-width="2"></path></svg>