<svg width="48" height="48" viewBox="0 0 48 48" xmlns="http://www.w3.org/2000/svg"><path d="M 16.200000000000003 5.9399999999999995 C 16.770000000000003 5.9399999999999995, 16.395 5.9399999999999995, 17.34 5.9399999999999995 C 18.66 5.9399999999999995, 18.795 5.9399999999999995, 19.98 5.9399999999999995 C 21.03 5.9399999999999995, 20.985000000000003 5.969999999999999, 22.080000000000002 5.9399999999999995 C 23.22 5.88, 23.265 5.865, 24.36 5.82 C 25.41 5.79, 25.5 5.82, 26.46 5.76 C 27.330000000000002 5.67, 27.510000000000005 5.625, 28.200000000000003 5.58 C 28.71 5.58, 28.65 5.58, 29.22 5.58 C 29.85 5.58, 29.985 5.58, 30.48 5.58 C 30.840000000000003 5.58, 30.855000000000004 5.58, 31.200000000000003 5.58 C 31.53 5.58, 31.59 5.58, 31.86 5.58 C 32.07 5.58, 32.055 5.58, 32.28 5.58 C 32.519999999999996 5.58, 32.595 5.58, 32.76 5.58 L 32.94 5.58" fill="none" stroke="black" stroke-width="2"></path><path d="M 15.899999999999999 12.54 C 16.619999999999997 12.54, 16.575 12.54, 17.34 12.54 C 18.15 12.54, 18.060000000000002 12.584999999999999, 18.96 12.54 C 19.950000000000003 12.45, 19.635 12.495, 20.94 12.36 C 22.560000000000002 12.18, 22.695 12.09, 24.18 12 C 25.53 12, 25.380000000000003 11.94, 26.880000000000003 12 C 28.53 12.120000000000001, 29.115000000000002 12.15, 30.18 12.24 C 30.66 12.3, 30.660000000000004 12.33, 31.14 12.36 C 31.619999999999997 12.36, 31.754999999999995 12.36, 32.099999999999994 12.36 C 32.309999999999995 12.36, 32.339999999999996 12.36, 32.519999999999996 12.36 C 32.67 12.36, 32.745 12.36, 32.82 12.36 L 32.82 12.36" fill="none" stroke="black" stroke-width="2"></path><path d="M 18.9 22.5 C 19.08 21.93, 18.824999999999996 21.945, 19.259999999999998 21.36 C 19.95 20.759999999999998, 19.755000000000003 20.73, 20.64 20.16 C 21.72 19.62, 21.764999999999997 19.5, 22.799999999999997 19.080000000000002 C 23.79 18.78, 24.09 18.630000000000003, 24.78 18.48 C 25.17 18.48, 25.064999999999998 18.48, 25.56 18.48 C 26.159999999999997 18.48, 25.994999999999997 18.3, 26.759999999999998 18.48 C 27.689999999999998 18.840000000000003, 27.644999999999996 18.480000000000004, 28.619999999999997 19.200000000000003 C 29.64 20.28, 29.955000000000002 20.4, 30.660000000000004 21.36 C 31.050000000000004 22.2, 31.14 21.795, 31.44 23.04 C 31.65 24.689999999999998, 31.755 24.794999999999995, 31.86 26.339999999999996 C 31.86 27.779999999999998, 31.86 27.824999999999996, 31.86 29.22 C 31.86 30.57, 31.95 30.825000000000003, 31.86 31.92 C 31.68 32.76, 31.77 32.62499999999999, 31.5 33.599999999999994 C 31.14 34.709999999999994, 31.17 34.875, 30.78 35.82 C 30.36 36.6, 30.450000000000003 36.705000000000005, 29.94 37.38 C 29.340000000000003 37.95, 29.37 38.01, 28.740000000000002 38.519999999999996 C 28.080000000000002 38.97, 28.095000000000002 38.955, 27.42 39.42 C 26.73 39.900000000000006, 26.805 39.945, 26.04 40.38 C 25.2 40.77, 25.095 40.905, 24.36 41.160000000000004 C 23.73 41.28, 23.580000000000002 41.34, 23.1 41.400000000000006 C 22.770000000000003 41.400000000000006, 22.845000000000002 41.47500000000001, 22.44 41.400000000000006 C 21.96 41.25, 22.11 41.58, 21.48 41.099999999999994 C 20.7 40.29, 20.625 40.32, 19.919999999999998 39.480000000000004 C 19.29 38.61, 19.035 38.760000000000005, 18.66 37.74 C 18.54 36.57000000000001, 18.525 36.25500000000001, 18.419999999999998 35.400000000000006 C 18.33 34.86, 18.285 34.665000000000006, 18.240000000000002 34.32 L 18.240000000000002 34.019999999999996" fill="none" stroke="black" stroke-width="2"></path></svg>