<svg width="48" height="48" viewBox="0 0 48 48" xmlns="http://www.w3.org/2000/svg"><path d="M 8.64 37.44 C 9.690000000000001 37.019999999999996, 9.690000000000001 36.959999999999994, 10.74 36.599999999999994 C 11.79 36.3, 11.73 36.239999999999995, 12.84 36 C 14.01 35.82, 14.145 35.775, 15.18 35.64 C 16.08 35.55, 16.200000000000003 35.415, 16.98 35.46 C 17.64 35.64, 17.714999999999996 35.370000000000005, 18.299999999999997 35.82 C 18.81 36.54, 19.005 36.54, 19.32 37.26 C 19.439999999999998 37.980000000000004, 19.5 38.160000000000004, 19.56 38.7 C 19.56 39.06, 19.619999999999997 38.82000000000001, 19.56 39.42 C 19.439999999999998 40.26, 19.71 40.334999999999994, 19.32 41.099999999999994 C 18.66 41.79, 18.75 41.80500000000001, 18 42.480000000000004 C 17.16 43.14, 17.115000000000002 43.349999999999994, 16.32 43.8 C 15.57 44.04, 15.525 44.07, 14.82 44.28 C 14.16 44.46, 14.025 44.55, 13.5 44.64 C 13.11 44.64, 13.065000000000001 44.685, 12.72 44.64 C 12.420000000000002 44.55, 12.48 44.625, 12.120000000000001 44.46 C 11.7 44.22, 11.745 44.31, 11.28 43.980000000000004 C 10.77 43.56, 10.68 43.53, 10.26 43.14 C 9.93 42.78, 9.96 42.855000000000004, 9.600000000000001 42.42 C 9.21 41.910000000000004, 9.165000000000001 41.940000000000005, 8.82 41.400000000000006 C 8.52 40.83, 8.43 40.95, 8.22 40.26 C 8.100000000000001 39.45, 8.085 39.644999999999996, 7.98 38.64 C 7.890000000000001 37.44, 7.845000000000001 37.515, 7.800000000000001 36.24 C 7.800000000000001 34.89, 7.800000000000001 34.8, 7.800000000000001 33.54 C 7.800000000000001 32.370000000000005, 7.785000000000001 32.535000000000004, 7.800000000000001 31.200000000000003 C 7.83 29.700000000000003, 7.845000000000001 29.745000000000005, 7.86 28.200000000000003 C 7.86 26.61, 7.7700000000000005 26.58, 7.86 25.02 C 8.040000000000001 23.490000000000002, 7.995000000000001 23.145, 8.22 21.96 C 8.49 21.12, 8.504999999999999 21.12, 8.76 20.28 C 9 19.44, 9 19.380000000000003, 9.24 18.6 C 9.48 17.880000000000003, 9.465 17.82, 9.72 17.16 C 9.99 16.560000000000002, 10.11 16.305, 10.26 15.96 C 10.29 15.870000000000001, 10.305 15.825, 10.32 15.78 C 10.32 15.78, 10.26 15.854999999999999, 10.32 15.78 C 10.440000000000001 15.629999999999999, 10.215 15.63, 10.56 15.48 C 11.129999999999999 15.33, 11.174999999999999 15.225, 11.7 15.18 C 12.18 15.239999999999998, 12.3 15.209999999999999, 12.66 15.299999999999999 C 12.9 15.419999999999998, 12.885000000000002 15.225, 13.14 15.54 C 13.41 16.049999999999997, 13.44 15.944999999999999, 13.68 16.56 C 13.89 17.28, 13.935000000000002 17.384999999999998, 14.100000000000001 18 C 14.22 18.509999999999998, 14.205 18.27, 14.34 19.02 C 14.49 20.009999999999998, 14.52 20.175, 14.64 21 C 14.73 21.66, 14.745000000000001 21.78, 14.82 22.32 C 14.88 22.740000000000002, 14.91 22.95, 14.940000000000001 23.16 C 14.940000000000001 23.16, 14.940000000000001 23.16, 14.940000000000001 23.16 C 14.940000000000001 23.16, 14.940000000000001 23.16, 14.940000000000001 23.16 C 14.940000000000001 23.16, 14.895000000000001 23.445, 14.940000000000001 23.16 C 15.030000000000001 22.59, 15.075000000000001 22.545, 15.120000000000001 22.02 C 15.120000000000001 21.54, 15.075000000000001 21.57, 15.120000000000001 21.06 C 15.21 20.52, 15.209999999999999 20.445, 15.299999999999999 19.98 C 15.39 19.590000000000003, 15.315 19.725, 15.48 19.200000000000003 C 15.72 18.54, 15.735000000000001 18.45, 15.96 17.88 C 16.17 17.4, 16.244999999999997 17.235, 16.38 16.919999999999998 C 16.439999999999998 16.77, 16.32 16.905, 16.5 16.62 C 16.8 16.2, 16.590000000000003 16.185, 17.1 15.78 C 17.82 15.39, 17.475 15.285, 18.54 15 C 19.95 14.82, 20.055 14.73, 21.36 14.64 C 22.56 14.64, 22.619999999999997 14.595, 23.759999999999998 14.64 C 24.84 14.73, 25.380000000000003 14.775, 25.92 14.82 C 25.92 14.82, 25.92 14.82, 25.92 14.82 L 25.92 14.82" fill="none" stroke="black" stroke-width="2"></path><path d="M 11.58 10.26 C 13.41 9.96, 13.41 9.855, 15.24 9.66 C 17.07 9.57, 17.189999999999998 9.525, 18.9 9.48 C 20.490000000000002 9.48, 20.82 9.48, 22.080000000000002 9.48 C 23.01 9.48, 22.935000000000002 9.48, 23.94 9.48 C 25.02 9.48, 25.529999999999998 9.48, 26.099999999999998 9.48 L 26.22 9.48" fill="none" stroke="black" stroke-width="2"></path><path d="M 10.32 4.38 C 11.309999999999999 4.38, 11.19 4.38, 12.299999999999999 4.38 C 13.53 4.38, 13.094999999999999 4.38, 14.76 4.38 C 16.86 4.38, 16.98 4.38, 18.96 4.38 C 20.82 4.38, 20.91 4.365, 22.68 4.38 C 24.36 4.41, 24.915 4.425, 26.04 4.4399999999999995 C 26.61 4.4399999999999995, 26.895 4.4399999999999995, 27.18 4.4399999999999995 L 27.18 4.4399999999999995" fill="none" stroke="black" stroke-width="2"></path></svg>