<svg width="48" height="48" viewBox="0 0 48 48" xmlns="http://www.w3.org/2000/svg"><path d="M 15.36 7.199999999999999 C 16.619999999999997 6.96, 16.755 6.915000000000001, 17.88 6.720000000000001 C 18.869999999999997 6.57, 18.674999999999997 6.495, 19.86 6.42 C 21.240000000000002 6.42, 21.630000000000003 6.42, 22.62 6.42 C 23.22 6.42, 23.055 6.42, 23.82 6.42 C 24.75 6.42, 24.93 6.42, 25.68 6.42 C 26.25 6.42, 26.235 6.42, 26.82 6.42 C 27.42 6.42, 27.48 6.42, 28.02 6.42 C 28.5 6.42, 28.395 6.42, 28.98 6.42 C 29.67 6.42, 29.865 6.42, 30.36 6.42 C 30.66 6.42, 30.615000000000002 6.42, 30.96 6.42 C 31.35 6.42, 31.395000000000003 6.42, 31.740000000000002 6.42 C 32.04 6.42, 32.06999999999999 6.42, 32.339999999999996 6.42 C 32.58 6.42, 32.625 6.42, 32.82 6.42 C 32.97 6.42, 32.97 6.42, 33.12 6.42 C 33.269999999999996 6.42, 33.345 6.42, 33.42 6.42 L 33.42 6.42" fill="none" stroke="black" stroke-width="2"></path><path d="M 15.299999999999999 13.559999999999999 C 15.989999999999998 13.59, 15.465 13.605, 16.68 13.620000000000001 C 18.42 13.620000000000001, 18.375 13.620000000000001, 20.16 13.620000000000001 C 21.990000000000002 13.620000000000001, 22.29 13.620000000000001, 23.82 13.620000000000001 C 25.05 13.620000000000001, 25.17 13.620000000000001, 26.28 13.620000000000001 C 27.27 13.620000000000001, 27.345 13.635000000000002, 28.259999999999998 13.620000000000001 C 29.1 13.59, 29.025 13.62, 29.94 13.559999999999999 C 30.93 13.469999999999999, 31.05 13.485, 31.92 13.379999999999999 C 32.67 13.26, 32.895 13.215, 33.42 13.14 C 33.72 13.110000000000001, 33.87 13.095000000000002, 34.019999999999996 13.080000000000002 C 34.019999999999996 13.080000000000002, 34.019999999999996 13.080000000000002, 34.019999999999996 13.080000000000002 L 34.019999999999996 13.080000000000002" fill="none" stroke="black" stroke-width="2"></path><path d="M 27.18 13.559999999999999 C 27.39 13.709999999999999, 27.345 13.305, 27.599999999999998 13.86 C 27.9 14.82, 28.005000000000003 14.834999999999999, 28.200000000000003 15.78 C 28.290000000000003 16.71, 28.290000000000003 16.47, 28.380000000000003 17.64 C 28.47 19.05, 28.424999999999997 19.215, 28.56 20.46 C 28.740000000000002 21.54, 28.785000000000004 21.585, 28.92 22.62 C 29.009999999999998 23.61, 29.009999999999998 23.444999999999997, 29.099999999999998 24.599999999999998 C 29.189999999999998 25.92, 29.19 26.085, 29.28 27.240000000000002 C 29.37 28.23, 29.295 27.99, 29.46 29.22 C 29.700000000000003 30.69, 29.76 30.810000000000002, 29.94 32.160000000000004 C 30.060000000000002 33.39, 30.12 33.629999999999995, 30.18 34.62 C 30.18 35.37, 30.21 35.294999999999995, 30.18 36.12 C 30.119999999999997 37.019999999999996, 30.255 36.96, 30.06 37.92 C 29.73 38.94, 29.790000000000003 39.045, 29.400000000000002 39.96 C 28.950000000000003 40.769999999999996, 28.92 40.935, 28.5 41.58 C 28.11 42.06, 28.08 42.15, 27.72 42.54 C 27.39 42.84, 27.449999999999996 42.945, 27.06 43.14 C 26.61 43.230000000000004, 26.610000000000003 43.275, 26.160000000000004 43.32 C 25.71 43.32, 25.725 43.335, 25.259999999999998 43.32 C 24.779999999999998 43.29, 25.094999999999995 43.425, 24.299999999999997 43.26 C 23.189999999999998 42.96, 22.965000000000003 43.155, 22.080000000000002 42.660000000000004 C 21.42 41.97, 21.255 42.045, 20.759999999999998 41.28 C 20.43 40.44, 20.310000000000002 40.379999999999995, 20.1 39.599999999999994 C 20.009999999999998 38.879999999999995, 19.965 39.105000000000004, 19.919999999999998 38.160000000000004 C 19.919999999999998 36.99, 19.919999999999998 36.99, 19.919999999999998 35.82 C 19.919999999999998 34.650000000000006, 19.919999999999998 34.59, 19.919999999999998 33.480000000000004 C 19.919999999999998 32.43000000000001, 19.919999999999998 32.05500000000001, 19.919999999999998 31.380000000000003 C 19.919999999999998 31.080000000000002, 19.919999999999998 30.93, 19.919999999999998 30.78 L 19.919999999999998 30.78" fill="none" stroke="black" stroke-width="2"></path></svg>