<svg width="48" height="48" viewBox="0 0 48 48" xmlns="http://www.w3.org/2000/svg"><path d="M 13.68 5.34 C 14.25 5.25, 13.815 5.25, 14.82 5.16 C 16.26 5.07, 15.975000000000003 5.0249999999999995, 17.700000000000003 4.9799999999999995 C 19.71 4.9799999999999995, 19.905 4.9799999999999995, 21.72 4.9799999999999995 C 23.34 4.9799999999999995, 22.92 5.039999999999999, 24.96 4.9799999999999995 C 27.42 4.859999999999999, 27.930000000000003 4.86, 29.880000000000003 4.74 C 31.32 4.62, 31.77 4.5600000000000005, 32.76 4.5 C 33.3 4.5, 33.56999999999999 4.5, 33.839999999999996 4.5 L 33.839999999999996 4.5" fill="none" stroke="black" stroke-width="2"></path><path d="M 13.200000000000001 10.56 C 14.129999999999999 10.56, 13.905 10.635000000000002, 15.059999999999999 10.56 C 16.439999999999998 10.41, 16.395 10.365, 17.82 10.26 C 19.29 10.2, 19.125 10.215, 20.759999999999998 10.14 C 22.56 10.05, 22.89 10.004999999999999, 24.36 9.959999999999999 C 25.5 9.959999999999999, 25.485 9.959999999999999, 26.64 9.959999999999999 C 27.810000000000002 9.959999999999999, 27.885 9.959999999999999, 28.98 9.959999999999999 C 30 9.959999999999999, 30.105 9.959999999999999, 31.02 9.959999999999999 C 31.83 9.959999999999999, 32.01 9.959999999999999, 32.64 9.959999999999999 C 33.09 9.959999999999999, 33.075 9.944999999999999, 33.54 9.959999999999999 C 34.019999999999996 9.989999999999998, 34.230000000000004 10.004999999999999, 34.5 10.02 L 34.62 10.02" fill="none" stroke="black" stroke-width="2"></path><path d="M 20.82 9.78 C 20.52 10.05, 20.49 9.84, 20.22 10.32 C 19.98 11.01, 20.085 10.89, 19.740000000000002 11.7 C 19.29 12.629999999999999, 19.32 12.329999999999998, 18.84 13.559999999999999 C 18.33 15.09, 18.330000000000002 14.985, 17.82 16.62 C 17.31 18.36, 17.22 18.450000000000003, 16.799999999999997 20.1 C 16.47 21.66, 16.395 22.035, 16.14 23.22 C 15.96 24.029999999999998, 15.87 24.134999999999998, 15.78 24.839999999999996 C 15.78 25.439999999999998, 15.825 25.455, 15.78 26.04 C 15.690000000000001 26.61, 15.435 26.775, 15.600000000000001 27.18 C 16.020000000000003 27.42, 15.975000000000001 27.480000000000004, 16.44 27.660000000000004 C 16.950000000000003 27.78, 16.635 27.750000000000004, 17.46 27.900000000000002 C 18.6 28.08, 18.630000000000003 28.169999999999998, 19.740000000000002 28.259999999999998 C 20.82 28.259999999999998, 20.744999999999997 28.259999999999998, 21.9 28.259999999999998 C 23.13 28.259999999999998, 23.31 28.305, 24.36 28.259999999999998 C 25.229999999999997 28.169999999999998, 25.125 28.185, 26.099999999999998 28.08 C 27.18 27.959999999999997, 27.525 27.929999999999996, 28.259999999999998 27.839999999999996 C 28.65 27.779999999999998, 28.74 27.764999999999997, 29.04 27.72 C 29.25 27.69, 29.22 27.735000000000003, 29.46 27.660000000000004 C 29.73 27.540000000000003, 29.805 27.6, 30 27.42 C 30.12 27.18, 30.150000000000002 27.255000000000003, 30.240000000000002 26.94 C 30.3 26.550000000000004, 30.285 26.715000000000003, 30.36 26.160000000000004 C 30.45 25.44, 30.494999999999997 25.41, 30.54 24.72 C 30.54 24.06, 30.54 24.314999999999998, 30.54 23.4 C 30.54 22.229999999999997, 30.63 22.259999999999998, 30.54 21.06 C 30.36 19.83, 30.39 19.71, 30.18 18.6 C 29.94 17.61, 29.970000000000002 17.565, 29.700000000000003 16.62 C 29.4 15.72, 29.4 15.735, 29.099999999999998 14.82 C 28.799999999999997 13.89, 28.755 13.680000000000001, 28.5 12.96 C 28.29 12.45, 28.305 12.48, 28.08 11.94 C 27.839999999999996 11.370000000000001, 27.72 11.085, 27.599999999999998 10.8 C 27.599999999999998 10.8, 27.599999999999998 10.8, 27.599999999999998 10.8 C 27.599999999999998 10.8, 27.615 10.875, 27.599999999999998 10.8 C 27.57 10.65, 27.555 10.575, 27.54 10.5 C 27.54 10.5, 27.57 10.530000000000001, 27.54 10.5 L 27.42 10.379999999999999" fill="none" stroke="black" stroke-width="2"></path><path d="M 21.96 27.96 C 21.96 28.98, 22.065 28.725, 21.96 30 C 21.75 31.53, 21.794999999999998 31.305000000000003, 21.54 33.06 C 21.240000000000002 35.04, 21.09 35.114999999999995, 20.94 37.019999999999996 C 20.94 38.849999999999994, 20.94 39.42, 20.94 40.68 C 20.94 41.370000000000005, 20.895000000000003 41.43, 20.94 42.06 C 21.03 42.63, 20.91 42.765, 21.12 43.2 C 21.450000000000003 43.5, 21.405 43.53, 21.78 43.8 C 22.200000000000003 44.04, 22.29 44.16, 22.62 44.28 C 22.86 44.28, 22.950000000000003 44.28, 23.1 44.28 C 23.16 44.28, 23.16 44.31, 23.22 44.28 C 23.28 44.22, 23.175 44.47500000000001, 23.34 44.160000000000004 C 23.61 43.59, 23.415 43.785, 23.88 43.019999999999996 C 24.54 42.059999999999995, 24.555000000000003 41.99999999999999, 25.200000000000003 41.099999999999994 C 25.830000000000002 40.26, 25.815 40.05, 26.46 39.42 C 27.12 39, 27.105 38.91, 27.78 38.58 C 28.470000000000002 38.339999999999996, 28.515000000000004 38.24999999999999, 29.160000000000004 38.099999999999994 C 29.76 38.04, 29.76 37.95, 30.36 37.980000000000004 C 30.96 38.1, 31.185 38.144999999999996, 31.56 38.22 L 31.86 38.28" fill="none" stroke="black" stroke-width="2"></path></svg>