<svg width="48" height="48" viewBox="0 0 48 48" xmlns="http://www.w3.org/2000/svg"><path d="M 14.76 4.92 C 16.23 4.71, 15.930000000000003 4.695, 17.700000000000003 4.5 C 19.770000000000003 4.32, 19.950000000000003 4.289999999999999, 21.84 4.14 C 23.549999999999997 4.02, 23.534999999999997 3.96, 25.259999999999998 3.9000000000000004 C 27 3.9000000000000004, 27.495 3.9000000000000004, 28.740000000000002 3.9000000000000004 C 29.490000000000002 3.9000000000000004, 29.340000000000003 3.8850000000000007, 30.240000000000002 3.9000000000000004 C 31.29 3.93, 31.65 3.915, 32.339999999999996 3.96 L 33 4.08" fill="none" stroke="black" stroke-width="2"></path><path d="M 14.940000000000001 10.32 C 16.14 10.32, 15.735 10.395, 17.34 10.32 C 19.35 10.17, 19.305 10.14, 21.36 10.02 C 23.46 9.93, 23.354999999999997 10.035, 25.56 9.84 C 27.869999999999997 9.54, 28.545 9.435, 30.18 9.24 C 31.139999999999997 9.15, 31.154999999999994 9.105, 32.099999999999994 9.06 C 33.03 9.06, 33.165 9.06, 33.96 9.06 C 34.620000000000005 9.06, 34.905 9.06, 35.28 9.06 L 35.46 9.06" fill="none" stroke="black" stroke-width="2"></path><path d="M 28.259999999999998 9.24 C 28.38 9.51, 28.05 8.715, 28.5 9.78 C 29.28 11.64, 29.369999999999997 11.595, 30.06 13.5 C 30.659999999999997 15.45, 30.72 15.599999999999998, 31.259999999999998 17.4 C 31.74 19.05, 31.845 19.290000000000003, 32.22 20.700000000000003 C 32.489999999999995 21.87, 32.504999999999995 21.93, 32.76 23.04 C 33 24.09, 33.120000000000005 24.285, 33.24 25.14 C 33.24 25.8, 33.24 26.025, 33.24 26.46 C 33.24 26.67, 33.285000000000004 26.700000000000003, 33.24 26.880000000000003 C 33.150000000000006 27.03, 33.405 27.075000000000003, 33.06 27.18 C 32.46 27.24, 32.745 27.599999999999998, 31.86 27.299999999999997 C 30.689999999999998 26.64, 30.585 26.85, 29.52 25.98 C 28.56 24.9, 28.275 24.66, 27.599999999999998 23.82 C 27.21 23.22, 27.21 23.37, 26.82 22.62 C 26.43 21.72, 26.295 21.495, 26.04 20.82 C 25.919999999999998 20.369999999999997, 25.874999999999996 20.189999999999998, 25.799999999999997 19.919999999999998 C 25.77 19.83, 25.770000000000003 19.8, 25.740000000000002 19.740000000000002 C 25.71 19.71, 25.665 19.17, 25.68 19.68 C 25.74 20.73, 25.709999999999997 20.67, 25.799999999999997 21.78 C 25.919999999999998 22.95, 25.935 23.084999999999997, 26.04 24.119999999999997 C 26.13 25.02, 26.174999999999997 25.275, 26.22 25.92 C 26.22 26.310000000000002, 26.31 26.310000000000002, 26.22 26.700000000000003 C 26.04 27.090000000000003, 26.235 27.045, 25.86 27.48 C 25.29 27.96, 25.724999999999998 28.125, 24.72 28.44 C 23.28 28.590000000000003, 23.295 28.665000000000003, 21.84 28.740000000000002 C 20.369999999999997 28.740000000000002, 20.205 28.785000000000004, 18.9 28.740000000000002 C 17.759999999999998 28.65, 17.310000000000002 28.605, 16.62 28.56 C 16.380000000000003 28.56, 16.380000000000003 28.56, 16.14 28.56 C 15.9 28.56, 16.245 28.65, 15.66 28.56 L 13.799999999999999 28.200000000000003" fill="none" stroke="black" stroke-width="2"></path><path d="M 24.240000000000002 27.599999999999998 C 24.21 27.599999999999998, 24.21 27.419999999999998, 24.18 27.599999999999998 C 24.15 27.96, 24.074999999999996 27.81, 24.119999999999997 28.32 C 24.24 28.98, 24.165 28.755000000000003, 24.36 29.64 C 24.630000000000003 30.75, 24.735000000000003 30.825, 24.900000000000002 31.86 C 24.96 32.82, 25.005 32.760000000000005, 25.02 33.78 C 24.990000000000002 34.86, 25.05 35.084999999999994, 24.96 35.94 C 24.810000000000002 36.57, 24.930000000000003 36.465, 24.660000000000004 37.2 C 24.270000000000003 38.040000000000006, 24.36 38.07000000000001, 23.88 38.88 C 23.310000000000002 39.66, 23.28 39.809999999999995, 22.740000000000002 40.44 C 22.23 40.92, 22.38 40.95, 21.72 41.400000000000006 C 20.91 41.82000000000001, 21.015 41.83500000000001, 20.1 42.24 C 19.08 42.629999999999995, 18.72 42.765, 18.06 43.019999999999996 C 17.759999999999998 43.14, 17.64 43.199999999999996, 17.46 43.26 L 17.34 43.26" fill="none" stroke="black" stroke-width="2"></path></svg>