<svg width="48" height="48" viewBox="0 0 48 48" xmlns="http://www.w3.org/2000/svg"><path d="M 13.080000000000002 6.540000000000001 C 13.89 6.540000000000001, 13.740000000000002 6.5550000000000015, 14.700000000000001 6.540000000000001 C 15.809999999999999 6.510000000000001, 14.969999999999999 6.540000000000001, 16.919999999999998 6.48 C 19.71 6.390000000000001, 20.235 6.345000000000001, 22.5 6.300000000000001 C 24.240000000000002 6.300000000000001, 24.435000000000002 6.300000000000001, 25.98 6.300000000000001 C 27.33 6.300000000000001, 27.39 6.300000000000001, 28.68 6.300000000000001 C 29.91 6.300000000000001, 30.33 6.300000000000001, 31.14 6.300000000000001 C 31.53 6.300000000000001, 31.725 6.300000000000001, 31.92 6.300000000000001 L 31.92 6.300000000000001" fill="none" stroke="black" stroke-width="2"></path><path d="M 12.54 11.22 C 12.54 11.22, 12.45 11.175, 12.54 11.22 C 12.719999999999999 11.309999999999999, 12.089999999999998 11.354999999999999, 12.899999999999999 11.399999999999999 C 14.34 11.399999999999999, 13.965 11.399999999999999, 15.78 11.399999999999999 C 17.97 11.399999999999999, 18 11.399999999999999, 20.16 11.399999999999999 C 22.29 11.399999999999999, 22.665000000000003 11.399999999999999, 24.42 11.399999999999999 C 25.8 11.399999999999999, 25.575000000000003 11.399999999999999, 27.18 11.399999999999999 C 29.009999999999998 11.399999999999999, 29.549999999999997 11.399999999999999, 30.839999999999996 11.399999999999999 C 31.589999999999996 11.399999999999999, 31.769999999999996 11.399999999999999, 32.339999999999996 11.399999999999999 L 33.12 11.399999999999999" fill="none" stroke="black" stroke-width="2"></path><path d="M 27.42 10.74 C 27.39 10.95, 27.27 10.68, 27.36 11.16 C 27.57 11.91, 27.39 11.55, 27.78 12.66 C 28.35 14.13, 28.335 13.98, 28.92 15.600000000000001 C 29.52 17.37, 29.61 17.535, 30.119999999999997 19.14 C 30.54 20.58, 30.689999999999998 20.685, 30.96 22.02 C 31.080000000000002 23.25, 31.110000000000003 23.115000000000002, 31.200000000000003 24.48 C 31.26 25.98, 31.305 26.235, 31.32 27.48 C 31.29 28.47, 31.365 28.725, 31.259999999999998 29.46 C 31.08 29.94, 31.065 30.105000000000004, 30.900000000000002 30.42 C 30.75 30.57, 30.915 30.705, 30.599999999999998 30.72 C 30.119999999999997 30.6, 30.36 31.02, 29.64 30.48 C 28.68 29.52, 28.5 29.445, 27.72 28.56 C 27.119999999999997 27.75, 27.09 27.705000000000002, 26.52 26.94 C 25.98 26.22, 25.950000000000003 26.22, 25.44 25.5 C 24.96 24.78, 24.735 24.45, 24.48 24.06 C 24.450000000000003 24, 24.435000000000002 23.97, 24.42 23.94 C 24.42 23.94, 24.42 23.94, 24.42 23.94 C 24.42 23.94, 24.42 23.94, 24.42 23.94 C 24.42 23.94, 24.450000000000003 23.01, 24.42 23.94 C 24.36 25.800000000000004, 24.33 26.460000000000004, 24.299999999999997 27.660000000000004 C 24.299999999999997 28.200000000000003, 24.314999999999998 28.275000000000002, 24.299999999999997 28.740000000000002 C 24.27 29.130000000000003, 24.6 29.130000000000003, 24.240000000000002 29.52 C 23.55 29.909999999999997, 23.805 29.939999999999998, 22.86 30.299999999999997 C 21.66 30.63, 21.645 30.689999999999998, 20.46 30.96 C 19.29 31.17, 19.125 31.230000000000004, 18.12 31.380000000000003 C 17.28 31.47, 17.325000000000003 31.515, 16.44 31.56 C 15.510000000000002 31.56, 15.330000000000002 31.56, 14.580000000000002 31.56 C 14.010000000000002 31.56, 13.725000000000001 31.56, 13.440000000000001 31.56 L 13.440000000000001 31.56" fill="none" stroke="black" stroke-width="2"></path><path d="M 22.56 37.26 C 21.96 37.980000000000004, 21.63 37.815000000000005, 21.36 38.7 C 21.42 39.75, 21.105 40.17, 21.48 40.8 C 22.17 41.01, 22.335 41.46, 22.86 41.22 C 23.22 40.53, 23.490000000000002 40.605, 23.580000000000002 39.839999999999996 C 23.4 39, 23.715 38.565000000000005, 23.22 38.160000000000004 C 22.41 38.19, 22.26 37.74, 21.6 38.22 C 21.090000000000003 39.15, 20.610000000000003 39.224999999999994, 20.580000000000002 40.08 C 21.03 40.86, 20.865000000000002 41.235, 21.48 41.64 C 22.259999999999998 41.67, 22.544999999999998 42.075, 23.04 41.7 C 23.25 40.92, 23.475 40.83, 23.46 40.14 C 23.22 39.54, 23.295 39.03, 22.98 38.94 C 22.590000000000003 39.36, 22.395000000000003 39.255, 22.200000000000003 39.78 C 22.200000000000003 40.41, 22.17 40.665, 22.200000000000003 41.04 L 22.32 41.28" fill="none" stroke="black" stroke-width="2"></path></svg>