<svg width="48" height="48" viewBox="0 0 48 48" xmlns="http://www.w3.org/2000/svg"><path d="M 12.18 6.12 C 13.17 5.970000000000001, 13.005 5.91, 14.16 5.82 C 15.479999999999999 5.79, 15.509999999999998 5.775, 16.799999999999997 5.76 C 18.06 5.76, 18.27 5.805, 19.32 5.76 C 20.16 5.67, 19.965 5.625, 21 5.58 C 22.23 5.58, 22.14 5.58, 23.46 5.58 C 24.87 5.58, 25.095 5.58, 26.28 5.58 C 27.240000000000002 5.58, 27.360000000000003 5.58, 28.200000000000003 5.58 C 28.92 5.58, 29.160000000000004 5.58, 29.64 5.58 C 29.88 5.58, 30 5.58, 30.119999999999997 5.58 L 30.119999999999997 5.58" fill="none" stroke="black" stroke-width="2"></path><path d="M 12.059999999999999 11.76 C 12.87 11.7, 12.495000000000001 11.67, 13.68 11.64 C 15.239999999999998 11.64, 15.269999999999998 11.64, 16.799999999999997 11.64 C 18.299999999999997 11.64, 18.33 11.64, 19.799999999999997 11.64 C 21.24 11.64, 21.225 11.64, 22.68 11.64 C 24.15 11.64, 23.955 11.64, 25.619999999999997 11.64 C 27.479999999999997 11.64, 27.884999999999994 11.73, 29.339999999999996 11.64 C 30.39 11.46, 30.765 11.37, 31.44 11.28 C 31.740000000000002 11.28, 31.89 11.28, 32.04 11.28 L 32.04 11.28" fill="none" stroke="black" stroke-width="2"></path><path d="M 17.64 11.7 C 16.53 13.62, 16.455 13.634999999999998, 15.419999999999998 15.54 C 14.459999999999999 17.43, 14.129999999999999 17.759999999999998, 13.5 19.32 C 13.2 20.55, 13.049999999999999 20.55, 12.899999999999999 21.78 C 12.899999999999999 23.01, 12.899999999999999 22.980000000000004, 12.899999999999999 24.240000000000002 C 12.899999999999999 25.53, 12.824999999999998 25.83, 12.899999999999999 26.82 C 13.05 27.51, 12.81 27.615000000000002, 13.200000000000001 28.200000000000003 C 13.830000000000002 28.680000000000003, 13.830000000000002 28.980000000000004, 14.46 29.160000000000004 C 15.09 29.040000000000003, 15.075000000000001 29.265, 15.72 28.92 C 16.38 28.35, 16.259999999999998 28.800000000000004, 17.04 27.78 C 17.939999999999998 26.31, 18.21 25.994999999999997, 18.84 24.839999999999996 C 19.2 24, 19.365 23.61, 19.56 23.16 C 19.59 23.1, 19.5 23.145, 19.62 23.04 C 19.83 22.89, 19.785 22.5, 20.04 22.740000000000002 C 20.34 23.37, 20.4 23.130000000000003, 20.64 24 C 20.82 25.11, 20.775 25.38, 21 26.22 C 21.27 26.79, 21.119999999999997 26.97, 21.54 27.36 C 22.11 27.57, 22.08 27.675, 22.68 27.78 C 23.310000000000002 27.78, 23.310000000000002 27.87, 23.94 27.78 C 24.57 27.6, 24.540000000000003 27.885, 25.200000000000003 27.42 C 25.89 26.67, 26.115 26.505000000000003, 26.58 25.92 C 26.82 25.5, 26.82 25.74, 27.06 25.08 C 27.299999999999997 24.18, 27.419999999999998 24.255000000000003, 27.54 23.28 C 27.54 22.23, 27.63 22.275, 27.54 21.18 C 27.36 20.04, 27.405 20.159999999999997, 27.18 18.9 C 26.91 17.52, 26.925 17.325, 26.64 16.14 C 26.34 15.15, 26.25 14.850000000000001, 26.04 14.16 C 25.919999999999998 13.77, 25.904999999999998 13.649999999999999, 25.799999999999997 13.379999999999999 C 25.709999999999997 13.23, 25.739999999999995 13.320000000000002, 25.619999999999997 13.080000000000002 C 25.47 12.75, 25.424999999999997 12.629999999999999, 25.32 12.419999999999998 C 25.26 12.329999999999998, 25.230000000000004 12.285, 25.200000000000003 12.24 L 25.200000000000003 12.24" fill="none" stroke="black" stroke-width="2"></path><path d="M 23.1 28.14 C 23.1 29.07, 23.1 29.025, 23.1 30 C 23.1 31.02, 23.07 30.9, 23.1 32.04 C 23.16 33.3, 23.13 33.405, 23.22 34.56 C 23.34 35.61, 23.355 35.745000000000005, 23.46 36.660000000000004 C 23.55 37.44, 23.595 37.5, 23.64 38.22 C 23.64 38.879999999999995, 23.595 38.73, 23.64 39.54 C 23.73 40.5, 23.73 40.65, 23.82 41.46 C 23.91 42.120000000000005, 23.91 42.3, 24 42.78 C 24.09 43.08, 24.134999999999998 43.155, 24.18 43.38 C 24.18 43.53, 24.15 43.485, 24.18 43.68 C 24.24 43.92, 24.269999999999996 43.92, 24.299999999999997 44.160000000000004 C 24.299999999999997 44.400000000000006, 24.299999999999997 44.475, 24.299999999999997 44.64 C 24.299999999999997 44.730000000000004, 24.299999999999997 44.625, 24.299999999999997 44.82 C 24.299999999999997 45.120000000000005, 24.254999999999995 45.15, 24.299999999999997 45.42 C 24.39 45.660000000000004, 24.435 45.78, 24.48 45.900000000000006 L 24.48 45.900000000000006" fill="none" stroke="black" stroke-width="2"></path></svg>