<svg width="48" height="48" viewBox="0 0 48 48" xmlns="http://www.w3.org/2000/svg"><path d="M 12.899999999999999 43.68 C 12.899999999999999 42.45, 12.854999999999997 42.705, 12.899999999999999 41.22 C 12.99 39.480000000000004, 12.990000000000002 39.3, 13.080000000000002 37.74 C 13.170000000000002 36.36, 13.17 36.36000000000001, 13.26 34.980000000000004 C 13.350000000000001 33.6, 13.275000000000002 33.585, 13.440000000000001 32.22 C 13.68 30.869999999999997, 13.634999999999998 30.9, 13.919999999999998 29.52 C 14.25 28.11, 14.220000000000002 28.365000000000002, 14.580000000000002 26.700000000000003 C 14.97 24.78, 14.954999999999998 24.509999999999998, 15.36 22.86 C 15.780000000000001 21.48, 15.855000000000002 21.285, 16.200000000000003 20.1 C 16.470000000000002 19.11, 16.425000000000004 18.96, 16.740000000000002 18.12 C 17.1 17.43, 17.025000000000002 17.475, 17.46 16.740000000000002 C 17.97 15.96, 18.195 15.585, 18.48 15.18 C 18.54 15.15, 18.435000000000002 15.165000000000001, 18.6 15.120000000000001 C 18.87 15.06, 18.75 14.91, 19.14 15 C 19.65 15.24, 19.695 15.195, 20.16 15.48 C 20.58 15.81, 20.61 15.615, 21 16.14 C 21.36 16.86, 21.345 16.755000000000003, 21.72 17.580000000000002 C 22.11 18.51, 22.215 18.450000000000003, 22.5 19.44 C 22.68 20.490000000000002, 22.725 20.685, 22.86 21.54 C 22.95 22.2, 22.95 22.259999999999998, 23.04 22.86 C 23.13 23.4, 23.174999999999997 23.67, 23.22 23.94 C 23.22 23.94, 23.205 24.045, 23.22 23.94 C 23.25 23.73, 23.085 24.3, 23.28 23.52 C 23.64 22.17, 23.67 21.885, 24 20.82 C 24.299999999999997 20.04, 24.33 19.86, 24.599999999999998 19.259999999999998 C 24.839999999999996 18.839999999999996, 24.794999999999998 18.884999999999998, 25.08 18.419999999999998 C 25.41 17.909999999999997, 25.245 17.834999999999997, 25.740000000000002 17.4 C 26.4 17.04, 26.564999999999998 16.86, 27.06 16.68 C 27.39 16.68, 27.404999999999998 16.575, 27.72 16.68 C 28.02 16.89, 28.064999999999998 16.86, 28.32 17.1 C 28.53 17.37, 28.455000000000002 17.145, 28.740000000000002 17.64 C 29.1 18.36, 29.1 18.270000000000003, 29.46 19.080000000000002 C 29.82 19.98, 29.895 19.62, 30.18 20.88 C 30.39 22.5, 30.419999999999998 22.694999999999997, 30.599999999999998 24.119999999999997 C 30.75 25.349999999999998, 30.825000000000003 25.049999999999997, 30.900000000000002 26.58 C 30.900000000000002 28.41, 30.795 28.455000000000002, 30.900000000000002 30.240000000000002 C 31.11 31.98, 31.215 32.325, 31.32 33.72 C 31.32 34.769999999999996, 31.32 34.875, 31.32 35.82 C 31.32 36.66, 31.32 36.585, 31.32 37.5 C 31.32 38.49, 31.32 38.715, 31.32 39.480000000000004 C 31.32 40.02, 31.32 40.260000000000005, 31.32 40.56 C 31.32 40.620000000000005, 31.32 40.53, 31.32 40.68 C 31.32 40.92, 31.32 40.89, 31.32 41.160000000000004 C 31.32 41.46, 31.32 41.565, 31.32 41.76 L 31.32 41.94" fill="none" stroke="black" stroke-width="2"></path><path d="M 18.84 10.44 C 19.89 10.44, 19.740000000000002 10.44, 20.94 10.44 C 22.29 10.44, 22.26 10.424999999999999, 23.64 10.44 C 25.05 10.469999999999999, 25.200000000000003 10.485, 26.46 10.5 C 27.57 10.5, 27.855 10.5, 28.68 10.5 C 29.22 10.5, 29.189999999999998 10.5, 29.759999999999998 10.5 C 30.36 10.5, 30.66 10.5, 30.96 10.5 L 30.96 10.5" fill="none" stroke="black" stroke-width="2"></path><path d="M 18.18 5.34 C 19.259999999999998 5.1, 18.975 5.1000000000000005, 20.34 4.86 C 21.990000000000002 4.62, 22.14 4.545, 23.64 4.38 C 24.99 4.289999999999999, 25.169999999999995 4.244999999999999, 26.339999999999996 4.199999999999999 C 27.33 4.199999999999999, 27.255 4.184999999999999, 28.32 4.199999999999999 C 29.46 4.2299999999999995, 29.744999999999997 4.185, 30.599999999999998 4.26 C 31.17 4.38, 31.335 4.425, 31.740000000000002 4.5 C 31.98 4.53, 32.1 4.545, 32.22 4.5600000000000005 L 32.22 4.5600000000000005" fill="none" stroke="black" stroke-width="2"></path><path d="M 19.799999999999997 29.759999999999998 C 19.71 30.33, 19.560000000000002 30.345000000000002, 19.62 30.900000000000002 C 19.83 31.44, 19.74 31.665, 20.04 31.98 C 20.43 32.07, 20.43 32.205000000000005, 20.82 32.160000000000004 C 21.21 31.98, 21.270000000000003 32.16, 21.6 31.799999999999997 C 21.87 31.259999999999998, 22.005000000000003 31.064999999999998, 22.14 30.72 C 22.14 30.57, 22.17 30.57, 22.14 30.42 C 22.08 30.27, 22.29 30.209999999999997, 22.02 30.119999999999997 C 21.54 30.089999999999996, 21.404999999999998 29.909999999999997, 21.06 30.06 C 20.85 30.39, 20.745 30.255, 20.64 30.72 C 20.64 31.32, 20.52 31.5, 20.64 31.92 C 20.880000000000003 32.160000000000004, 20.775000000000002 32.415000000000006, 21.12 32.400000000000006 C 21.57 32.13, 21.72 32.34, 22.02 31.86 C 22.17 31.17, 22.245 30.945, 22.32 30.48 C 22.32 30.240000000000002, 22.515 30.134999999999998, 22.32 30 C 21.93 29.97, 21.96 29.745, 21.54 29.94 C 21.09 30.36, 20.88 30.450000000000003, 20.64 30.78 L 20.580000000000002 31.259999999999998" fill="none" stroke="black" stroke-width="2"></path><path d="M 17.64 37.019999999999996 C 17.64 37.019999999999996, 17.625 37.019999999999996, 17.64 37.019999999999996 C 17.67 37.019999999999996, 17.265000000000004 37.125, 17.700000000000003 37.019999999999996 C 18.54 36.809999999999995, 18.39 36.85499999999999, 19.38 36.599999999999994 C 20.52 36.3, 20.85 36.195, 21.66 36 C 22.14 35.91, 22.11 35.865, 22.62 35.82 C 23.160000000000004 35.82, 22.965000000000003 35.82, 23.700000000000003 35.82 C 24.630000000000003 35.82, 24.869999999999997 35.82, 25.56 35.82 C 26.009999999999998 35.82, 26.235 35.82, 26.46 35.82 C 26.46 35.82, 26.46 35.82, 26.46 35.82 L 26.46 35.82" fill="none" stroke="black" stroke-width="2"></path></svg>