<svg width="48" height="48" viewBox="0 0 48 48" xmlns="http://www.w3.org/2000/svg"><path d="M 22.5 7.4399999999999995 C 21.75 7.35, 21.675 7.2749999999999995, 21 7.26 C 20.4 7.32, 20.429999999999996 7.154999999999999, 19.799999999999997 7.38 C 19.14 7.77, 19.125 7.575, 18.48 8.16 C 17.85 8.940000000000001, 17.805 8.700000000000001, 17.22 9.72 C 16.68 10.98, 16.575 11.190000000000001, 16.14 12.24 C 15.81 13.079999999999998, 15.66 13.034999999999998, 15.48 13.919999999999998 C 15.45 14.849999999999998, 15.239999999999998 14.954999999999998, 15.419999999999998 15.78 C 15.81 16.5, 15.750000000000004 16.5, 16.200000000000003 17.22 C 16.71 17.939999999999998, 16.755 18.134999999999998, 17.22 18.66 C 17.64 18.990000000000002, 17.459999999999997 18.975, 18.06 19.32 C 18.84 19.68, 18.78 19.814999999999998, 19.62 20.04 C 20.52 20.13, 20.52 20.174999999999997, 21.419999999999998 20.22 C 22.32 20.22, 22.334999999999997 20.339999999999996, 23.22 20.22 C 24.09 19.98, 24.060000000000002 20.115000000000002, 24.96 19.740000000000002 C 25.89 19.23, 26.1 19.365, 26.82 18.72 C 27.33 17.939999999999998, 27.359999999999996 18.195, 27.839999999999996 17.16 C 28.29 15.870000000000001, 28.425 15.570000000000002, 28.740000000000002 14.580000000000002 C 28.92 13.89, 29.025 14.100000000000001, 29.099999999999998 13.200000000000001 C 29.07 12.09, 29.384999999999998 12.105, 29.04 10.98 C 28.38 9.84, 28.259999999999998 9.524999999999999, 27.72 8.7 C 27.3 8.19, 27.300000000000004 8.115, 26.880000000000003 7.68 C 26.46 7.319999999999999, 26.564999999999998 7.214999999999999, 26.04 6.959999999999999 C 25.41 6.81, 25.41 6.75, 24.78 6.66 C 24.15 6.630000000000001, 24.165 6.615, 23.52 6.6000000000000005 C 22.86 6.6000000000000005, 22.770000000000003 6.585000000000001, 22.200000000000003 6.6000000000000005 C 21.720000000000002 6.630000000000001, 21.480000000000004 6.6450000000000005, 21.240000000000002 6.66 L 21.240000000000002 6.66" fill="none" stroke="black" stroke-width="2"></path><path d="M 16.259999999999998 12.899999999999999 C 17.25 12.99, 16.995 13.035, 18.240000000000002 13.080000000000002 C 19.740000000000002 13.080000000000002, 19.680000000000003 13.095000000000002, 21.240000000000002 13.080000000000002 C 22.86 13.05, 23.1 13.08, 24.48 13.02 C 25.619999999999997 12.93, 25.904999999999998 12.885, 26.759999999999998 12.84 C 27.33 12.84, 27.585 12.84, 27.900000000000002 12.84 C 27.96 12.84, 27.9 12.84, 28.02 12.84 C 28.200000000000003 12.84, 28.185000000000002 12.84, 28.380000000000003 12.84 C 28.59 12.84, 28.65 12.84, 28.799999999999997 12.84 L 28.98 12.84" fill="none" stroke="black" stroke-width="2"></path><path d="M 23.34 24.96 C 22.799999999999997 24.96, 22.904999999999998 24.825000000000003, 22.259999999999998 24.96 C 21.509999999999998 25.23, 21.479999999999997 25.02, 20.759999999999998 25.5 C 20.07 26.19, 19.875 26.130000000000003, 19.38 26.880000000000003 C 19.08 27.69, 19.020000000000003 27.645000000000003, 18.78 28.5 C 18.6 29.4, 18.555 29.339999999999996, 18.419999999999998 30.299999999999997 C 18.33 31.319999999999997, 18.21 31.319999999999993, 18.240000000000002 32.339999999999996 C 18.39 33.36, 18.24 33.63, 18.54 34.38 C 18.990000000000002 34.86, 18.93 34.875, 19.44 35.339999999999996 C 20.01 35.79, 19.980000000000004 35.91, 20.580000000000002 36.24 C 21.21 36.45, 21.105 36.525000000000006, 21.84 36.660000000000004 C 22.68 36.72, 22.83 36.75, 23.52 36.78 C 24.06 36.78, 24.014999999999997 36.825, 24.599999999999998 36.78 C 25.229999999999997 36.69, 25.2 36.855, 25.86 36.599999999999994 C 26.55 36.17999999999999, 26.715000000000003 36.254999999999995, 27.240000000000002 35.76 C 27.6 35.19, 27.675 35.294999999999995, 27.96 34.62 C 28.17 33.84, 28.26 33.93, 28.380000000000003 33.06 C 28.410000000000004 32.1, 28.470000000000002 32.085, 28.44 31.14 C 28.35 30.21, 28.514999999999997 30.12, 28.259999999999998 29.28 C 27.84 28.53, 27.840000000000003 28.455000000000002, 27.42 27.78 C 27 27.18, 27.044999999999998 27.104999999999997, 26.58 26.58 C 26.07 26.13, 25.935 25.95, 25.56 25.68 C 25.32 25.59, 25.424999999999997 25.545, 25.08 25.5 C 24.63 25.5, 24.525 25.515, 24.18 25.5 C 23.94 25.47, 24.045 25.485, 23.700000000000003 25.44 L 22.799999999999997 25.32" fill="none" stroke="black" stroke-width="2"></path></svg>