<svg width="48" height="48" viewBox="0 0 48 48" xmlns="http://www.w3.org/2000/svg"><path d="M 21.6 3.84 C 21.150000000000002 3.84, 21.300000000000004 3.8099999999999996, 20.700000000000003 3.84 C 19.950000000000003 3.9, 20.205000000000005 3.57, 19.200000000000003 3.96 C 17.94 4.68, 17.505000000000003 4.695, 16.68 5.4 C 16.29 6.09, 16.259999999999998 5.819999999999999, 15.899999999999999 6.779999999999999 C 15.57 8.01, 15.405 8.235, 15.24 9.24 C 15.24 10.02, 15.045 9.975000000000001, 15.24 10.8 C 15.629999999999999 11.67, 15.48 11.684999999999999, 16.02 12.54 C 16.71 13.379999999999999, 16.724999999999998 13.665000000000001, 17.4 14.22 C 18.06 14.49, 17.909999999999997 14.52, 18.72 14.76 C 19.68 14.969999999999999, 19.725 15.075, 20.64 15.18 C 21.509999999999998 15.18, 21.435 15.315, 22.38 15.18 C 23.4 14.91, 23.700000000000003 15.030000000000001, 24.42 14.64 C 24.84 14.13, 24.96 14.07, 25.259999999999998 13.620000000000001 C 25.439999999999998 13.23, 25.47 13.32, 25.619999999999997 12.84 C 25.74 12.27, 25.755 12.389999999999999, 25.86 11.7 C 25.95 10.89, 25.994999999999997 10.83, 26.04 10.08 C 26.04 9.39, 26.04 9.36, 26.04 8.7 C 26.04 8.07, 26.07 7.964999999999999, 26.04 7.4399999999999995 C 25.98 7.02, 26.130000000000003 7.11, 25.92 6.6000000000000005 C 25.560000000000002 6, 25.530000000000005 5.91, 25.200000000000003 5.4 C 24.9 4.98, 25.034999999999997 4.965000000000001, 24.599999999999998 4.5600000000000005 C 24.03 4.17, 23.895 3.9750000000000005, 23.46 3.7800000000000002 C 23.16 3.7800000000000002, 23.174999999999997 3.7800000000000002, 22.86 3.7800000000000002 C 22.53 3.7800000000000002, 22.545 3.7800000000000002, 22.200000000000003 3.7800000000000002 C 21.840000000000003 3.7800000000000002, 21.810000000000002 3.7800000000000002, 21.48 3.7800000000000002 C 21.18 3.7800000000000002, 21.06 3.7800000000000002, 20.88 3.7800000000000002 L 20.759999999999998 3.7800000000000002" fill="none" stroke="black" stroke-width="2"></path><path d="M 15.36 9 C 15.809999999999999 9.18, 15.554999999999998 9.27, 16.259999999999998 9.36 C 17.22 9.36, 17.174999999999997 9.315, 18.18 9.36 C 19.23 9.45, 19.335 9.450000000000001, 20.28 9.540000000000001 C 21.12 9.63, 21.015 9.615000000000002, 21.96 9.72 C 23.009999999999998 9.84, 23.13 9.87, 24.06 9.959999999999999 C 24.869999999999997 10.02, 24.96 10.05, 25.68 10.08 C 26.310000000000002 10.08, 26.580000000000002 10.08, 26.94 10.08 C 27.03 10.08, 27.075 10.08, 27.119999999999997 10.08 L 27.119999999999997 10.08" fill="none" stroke="black" stroke-width="2"></path><path d="M 20.46 16.14 C 20.310000000000002 17.490000000000002, 20.25 17.415, 20.16 18.84 C 20.130000000000003 20.34, 20.115000000000002 20.355, 20.1 21.84 C 20.1 23.310000000000002, 20.1 22.725, 20.1 24.78 C 20.1 27.42, 20.1 27.9, 20.1 30.06 C 20.1 31.740000000000002, 20.220000000000002 31.830000000000002, 20.1 33.42 C 19.86 34.92, 19.770000000000003 35.160000000000004, 19.62 36.42 C 19.560000000000002 37.44, 19.53 37.47, 19.5 38.46 C 19.5 39.42, 19.5 39.63, 19.5 40.38 C 19.5 40.92, 19.5 40.995000000000005, 19.5 41.46 C 19.5 41.85, 19.5 41.82, 19.5 42.24 C 19.5 42.69, 19.47 42.795, 19.5 43.14 C 19.560000000000002 43.379999999999995, 19.545 43.334999999999994, 19.62 43.62 C 19.71 43.95, 19.709999999999997 44.1, 19.799999999999997 44.28 C 19.89 44.31, 19.86 44.324999999999996, 19.98 44.339999999999996 C 20.130000000000003 44.339999999999996, 20.130000000000003 44.339999999999996, 20.28 44.339999999999996 C 20.43 44.339999999999996, 20.295 44.294999999999995, 20.580000000000002 44.339999999999996 C 21 44.42999999999999, 20.924999999999997 44.474999999999994, 21.419999999999998 44.519999999999996 C 21.99 44.519999999999996, 21.765 44.474999999999994, 22.56 44.519999999999996 C 23.58 44.61, 23.624999999999996 44.655, 24.599999999999998 44.7 C 25.53 44.7, 25.56 44.7, 26.46 44.7 C 27.330000000000002 44.7, 27.585 44.7, 28.200000000000003 44.7 C 28.560000000000002 44.7, 28.695000000000004 44.7, 28.92 44.7 C 29.009999999999998 44.7, 29.009999999999998 44.7, 29.099999999999998 44.7 C 29.189999999999998 44.7, 29.205 44.7, 29.28 44.7 C 29.340000000000003 44.7, 29.37 44.7, 29.400000000000002 44.7 C 29.400000000000002 44.7, 29.400000000000002 44.7, 29.400000000000002 44.7 L 29.400000000000002 44.7" fill="none" stroke="black" stroke-width="2"></path></svg>