<svg width="48" height="48" viewBox="0 0 48 48" xmlns="http://www.w3.org/2000/svg"><path d="M 12.54 5.64 C 12.45 6.51, 12.495 6.1499999999999995, 12.36 7.38 C 12.18 8.97, 12.195 9.015, 12 10.56 C 11.79 12.059999999999999, 11.715 12.059999999999999, 11.58 13.559999999999999 C 11.52 15.059999999999999, 11.489999999999998 15.119999999999997, 11.459999999999999 16.56 C 11.459999999999999 17.939999999999998, 11.415 17.939999999999998, 11.459999999999999 19.32 C 11.55 20.700000000000003, 11.49 21, 11.64 22.080000000000002 C 11.85 22.86, 11.774999999999999 22.89, 12.059999999999999 23.64 C 12.419999999999998 24.36, 12.254999999999999 24.465, 12.78 25.08 C 13.469999999999999 25.589999999999996, 13.35 25.665, 14.16 26.099999999999998 C 15.09 26.46, 15.09 26.55, 16.02 26.82 C 16.95 27, 16.919999999999998 27.045, 17.88 27.18 C 18.869999999999997 27.27, 18.66 27.314999999999998, 19.86 27.36 C 21.27 27.36, 21.255 27.36, 22.68 27.36 C 24.119999999999997 27.36, 24.284999999999997 27.405, 25.56 27.36 C 26.67 27.27, 26.76 27.27, 27.78 27.18 C 28.71 27.09, 28.755000000000003 27.119999999999997, 29.64 27 C 30.48 26.85, 30.585 26.835, 31.32 26.700000000000003 C 31.95 26.580000000000002, 32.19 26.520000000000003, 32.58 26.46 C 32.730000000000004 26.46, 32.805 26.46, 32.88 26.46 L 32.88 26.46" fill="none" stroke="black" stroke-width="2"></path><path d="M 24.599999999999998 9.540000000000001 C 23.97 9.540000000000001, 24.03 9.48, 23.34 9.540000000000001 C 22.59 9.66, 22.575 9.209999999999999, 21.84 9.78 C 21.119999999999997 10.8, 21.224999999999998 10.605, 20.4 11.82 C 19.47 13.23, 19.125 13.350000000000001, 18.54 14.64 C 18.299999999999997 15.81, 18.104999999999997 15.84, 18.06 16.98 C 18.21 18.090000000000003, 17.865 18.105000000000004, 18.36 19.200000000000003 C 19.2 20.28, 19.064999999999998 20.595, 20.04 21.36 C 21.15 21.81, 21.33 22.064999999999998, 22.259999999999998 22.259999999999998 C 23.009999999999998 22.2, 22.74 22.47, 23.759999999999998 22.14 C 25.049999999999997 21.54, 25.124999999999996 21.69, 26.339999999999996 20.94 C 27.479999999999997 20.04, 27.9 20.1, 28.619999999999997 19.14 C 28.919999999999998 18.12, 29.099999999999998 18.330000000000002, 29.22 17.1 C 29.159999999999997 15.66, 29.369999999999997 15.465, 29.099999999999998 14.22 C 28.619999999999997 13.170000000000002, 28.635 12.915000000000001, 28.14 12.120000000000001 C 27.63 11.580000000000002, 27.659999999999997 11.505, 27.119999999999997 11.040000000000001 C 26.549999999999997 10.65, 26.490000000000002 10.515, 25.98 10.26 C 25.53 10.14, 25.65 10.08, 25.08 10.02 C 24.39 10.02, 24.165000000000003 10.004999999999999, 23.700000000000003 10.02 L 23.22 10.08" fill="none" stroke="black" stroke-width="2"></path><path d="M 19.080000000000002 16.200000000000003 C 20.880000000000003 16.080000000000002, 21.195 16.095000000000002, 22.68 15.96 C 23.85 15.81, 23.88 15.75, 25.02 15.66 C 26.130000000000003 15.63, 26.490000000000002 15.660000000000002, 27.240000000000002 15.600000000000001 C 27.630000000000003 15.51, 27.705 15.465, 28.02 15.419999999999998 C 28.259999999999998 15.419999999999998, 28.305 15.419999999999998, 28.5 15.419999999999998 C 28.65 15.419999999999998, 28.724999999999998 15.419999999999998, 28.799999999999997 15.419999999999998 L 28.799999999999997 15.419999999999998" fill="none" stroke="black" stroke-width="2"></path><path d="M 23.94 31.5 C 23.04 31.59, 23.235 31.335, 22.14 31.68 C 20.85 32.28, 20.625 32.265, 19.56 32.88 C 18.72 33.510000000000005, 18.57 33.51, 17.88 34.14 C 17.339999999999996 34.77, 17.189999999999998 34.620000000000005, 16.799999999999997 35.400000000000006 C 16.56 36.33, 16.439999999999998 36.480000000000004, 16.32 37.26 C 16.32 37.89, 16.26 37.785, 16.32 38.519999999999996 C 16.439999999999998 39.36, 16.169999999999998 39.45, 16.56 40.2 C 17.22 40.86, 17.265 40.949999999999996, 17.88 41.519999999999996 C 18.45 42, 18.48 42.120000000000005, 19.02 42.480000000000004 C 19.53 42.72, 19.53 42.795, 20.04 42.96 C 20.549999999999997 43.05, 20.459999999999997 43.095, 21.06 43.14 C 21.75 43.14, 21.78 43.215, 22.44 43.14 C 23.07 42.989999999999995, 23.085 43.11, 23.700000000000003 42.839999999999996 C 24.300000000000004 42.45, 24.300000000000004 42.585, 24.900000000000002 42.06 C 25.5 41.400000000000006, 25.575 41.400000000000006, 26.099999999999998 40.74 C 26.549999999999997 40.08, 26.64 40.125, 27 39.42 C 27.27 38.67, 27.405 38.64, 27.54 37.92 C 27.54 37.230000000000004, 27.674999999999997 37.335, 27.54 36.54 C 27.27 35.64, 27.39 35.535000000000004, 27 34.74 C 26.490000000000002 34.05, 26.535 33.93, 25.98 33.36 C 25.380000000000003 32.91, 25.275000000000002 32.79, 24.78 32.46 C 24.39 32.25, 24.36 32.205, 24 32.04 C 23.67 31.919999999999998, 23.625 31.874999999999996, 23.34 31.799999999999997 C 23.1 31.77, 22.98 31.755000000000003, 22.86 31.740000000000002 L 22.86 31.740000000000002" fill="none" stroke="black" stroke-width="2"></path><path d="M 16.919999999999998 37.38 C 17.729999999999997 37.38, 16.979999999999997 37.440000000000005, 18.54 37.38 C 20.85 37.260000000000005, 21.42 37.245000000000005, 23.16 37.14 C 24.33 37.05, 24.6 37.05, 25.5 36.96 C 26.13 36.870000000000005, 26.369999999999997 36.825, 26.759999999999998 36.78 C 26.909999999999997 36.78, 26.865 36.78, 27.06 36.78 C 27.299999999999997 36.78, 27.419999999999998 36.78, 27.54 36.78 L 27.54 36.78" fill="none" stroke="black" stroke-width="2"></path></svg>