<svg width="48" height="48" viewBox="0 0 48 48" xmlns="http://www.w3.org/2000/svg"><path d="M 8.879999999999999 4.74 C 8.879999999999999 5.4, 8.879999999999999 4.155000000000001, 8.879999999999999 6.0600000000000005 C 8.879999999999999 9.21, 8.879999999999999 9.42, 8.879999999999999 12.36 C 8.879999999999999 15.09, 8.909999999999998 14.52, 8.879999999999999 17.82 C 8.82 21.689999999999998, 8.865 22.349999999999998, 8.76 25.56 C 8.61 28.11, 8.639999999999999 28.275000000000006, 8.459999999999999 30.660000000000004 C 8.25 32.879999999999995, 8.145 33.38999999999999, 8.040000000000001 35.099999999999994 C 8.040000000000001 36.3, 8.040000000000001 36.57, 8.040000000000001 37.5 C 8.040000000000001 38.16, 8.040000000000001 38.07, 8.040000000000001 38.82 C 8.040000000000001 39.66, 7.875000000000002 39.855, 8.040000000000001 40.5 C 8.370000000000001 40.95, 8.115 41.08500000000001, 8.7 41.400000000000006 C 9.54 41.58, 9.434999999999999 41.625, 10.379999999999999 41.76 C 11.43 41.849999999999994, 10.545 41.849999999999994, 12.48 41.94 C 15.3 42.03, 15.555 42.135, 18.12 42.12 C 20.43 42, 20.820000000000004 42.06, 22.740000000000002 41.88 C 24.27 41.64, 24.599999999999998 41.61000000000001, 25.799999999999997 41.400000000000006 C 26.669999999999998 41.22, 26.865 41.175, 27.54 41.04 C 28.02 40.95, 28.05 41.07, 28.5 40.86 C 28.919999999999998 40.53, 28.979999999999997 41.25, 29.339999999999996 40.2 C 29.64 38.43000000000001, 29.79 38.47500000000001, 29.94 36.660000000000004 C 29.94 34.8, 30 35.37, 29.94 32.94 C 29.82 29.939999999999998, 29.820000000000004 30.225, 29.700000000000003 26.94 C 29.580000000000002 23.369999999999997, 29.520000000000003 22.964999999999996, 29.46 19.799999999999997 C 29.46 17.04, 29.520000000000003 16.785, 29.46 14.28 C 29.34 12.03, 29.28 11.43, 29.22 9.78 C 29.22 8.73, 29.325 8.834999999999999, 29.22 7.68 C 29.009999999999998 6.42, 28.934999999999995 5.88, 28.799999999999997 5.16 C 28.74 4.98, 28.71 4.890000000000001, 28.68 4.800000000000001 L 28.68 4.800000000000001" fill="none" stroke="black" stroke-width="2"></path><path d="M 18.84 7.86 C 17.91 8.31, 17.865000000000002 7.965, 16.98 8.76 C 16.14 9.9, 15.809999999999999 9.9, 15.299999999999999 11.040000000000001 C 15.120000000000001 12.18, 15.030000000000001 12.18, 14.940000000000001 13.32 C 14.940000000000001 14.46, 14.730000000000002 14.115000000000002, 14.940000000000001 15.600000000000001 C 15.36 17.43, 15.195 18.044999999999998, 15.78 19.259999999999998 C 16.53 19.86, 16.515 20.13, 17.28 20.46 C 18.060000000000002 20.520000000000003, 17.955 20.835, 18.84 20.580000000000002 C 19.83 20.01, 19.845 20.445, 20.82 19.44 C 21.78 18, 22.14 17.564999999999998, 22.740000000000002 16.56 C 22.98 15.989999999999998, 23.025 16.259999999999998, 23.22 15.419999999999998 C 23.369999999999997 14.309999999999999, 23.535 14.235000000000001, 23.52 13.200000000000001 C 23.34 12.24, 23.505 12.09, 23.16 11.28 C 22.65 10.62, 22.65 10.544999999999998, 22.14 9.959999999999999 C 21.630000000000003 9.45, 21.630000000000003 9.344999999999999, 21.12 8.94 C 20.61 8.64, 20.430000000000003 8.52, 20.1 8.34 C 19.95 8.280000000000001, 19.919999999999998 8.280000000000001, 19.799999999999997 8.22 L 19.62 8.100000000000001" fill="none" stroke="black" stroke-width="2"></path><path d="M 14.940000000000001 14.46 C 16.590000000000003 14.61, 16.515 14.715, 18.240000000000002 14.76 C 20.04 14.7, 20.700000000000003 14.685, 21.84 14.64 C 22.32 14.610000000000001, 22.439999999999998 14.595000000000002, 22.799999999999997 14.580000000000002 C 23.04 14.580000000000002, 23.04 14.670000000000002, 23.28 14.580000000000002 L 23.759999999999998 14.22" fill="none" stroke="black" stroke-width="2"></path></svg>