<svg width="48" height="48" viewBox="0 0 48 48" xmlns="http://www.w3.org/2000/svg"><path d="M 13.080000000000002 27.96 C 12.780000000000001 26.16, 12.675 26.13, 12.48 24.36 C 12.39 22.619999999999997, 12.344999999999999 22.034999999999997, 12.299999999999999 20.88 C 12.299999999999999 20.310000000000002, 12.27 20.340000000000003, 12.299999999999999 19.740000000000002 C 12.36 19.11, 12.164999999999997 18.990000000000002, 12.419999999999998 18.48 C 12.87 18.090000000000003, 12.315 18.060000000000002, 13.32 17.700000000000003 C 14.88 17.37, 14.925 17.25, 16.44 17.04 C 17.91 16.95, 18.105 16.905, 19.38 16.86 C 20.46 16.86, 20.369999999999997 16.814999999999998, 21.54 16.86 C 22.799999999999997 16.95, 22.74 16.905, 24.06 17.04 C 25.439999999999998 17.22, 25.845 17.25, 26.82 17.4 C 27.39 17.52, 27.51 17.490000000000002, 27.96 17.64 C 28.29 17.82, 28.244999999999997 17.655, 28.619999999999997 18 C 29.04 18.509999999999998, 29.145 18.09, 29.46 19.02 C 29.67 20.369999999999997, 29.730000000000004 20.325, 29.880000000000003 21.72 C 29.97 23.159999999999997, 30.015 23.534999999999997, 30.06 24.599999999999998 C 30.06 25.29, 30.014999999999997 25.35, 30.06 25.98 C 30.15 26.549999999999997, 30.195 26.729999999999997, 30.240000000000002 27.119999999999997 C 30.240000000000002 27.33, 30.240000000000002 27.36, 30.240000000000002 27.54 L 30.240000000000002 27.839999999999996" fill="none" stroke="black" stroke-width="2"></path><path d="M 18 3.3000000000000003 C 16.89 3.42, 16.845 3.18, 15.78 3.54 C 14.76 4.140000000000001, 14.58 3.99, 13.74 4.74 C 13.079999999999998 5.640000000000001, 12.824999999999998 5.295000000000001, 12.419999999999998 6.540000000000001 C 12.27 8.13, 12.075 8.370000000000001, 12.120000000000001 9.72 C 12.360000000000001 10.83, 12.135000000000002 11.025, 12.600000000000001 11.94 C 13.290000000000001 12.66, 12.96 12.659999999999998, 13.98 13.379999999999999 C 15.33 14.1, 15.434999999999999 14.295, 16.68 14.82 C 17.82 15.15, 17.67 15.330000000000002, 18.96 15.48 C 20.4 15.45, 20.745 15.704999999999998, 21.84 15.419999999999998 C 22.59 14.879999999999999, 22.814999999999998 15.09, 23.34 14.34 C 23.64 13.379999999999999, 23.685000000000002 13.739999999999998, 23.94 12.419999999999998 C 24.15 10.739999999999998, 24.255 10.425, 24.36 9.06 C 24.36 8.01, 24.465 7.934999999999999, 24.36 6.959999999999999 C 24.15 6.06, 24.495 5.9399999999999995, 23.94 5.16 C 23.04 4.5, 23.07 4.4399999999999995, 22.14 3.84 C 21.18 3.3, 21.134999999999998 3.06, 20.22 2.7600000000000002 C 19.35 2.7, 19.2 2.5500000000000003, 18.48 2.64 C 17.91 2.88, 17.79 2.865, 17.34 3.12 L 16.68 3.66" fill="none" stroke="black" stroke-width="2"></path><path d="M 12 8.879999999999999 C 12.18 9.03, 11.459999999999999 9.03, 12.36 9.18 C 13.98 9.33, 13.98 9.405000000000001, 15.600000000000001 9.48 C 17.22 9.48, 17.205 9.585, 18.84 9.48 C 20.490000000000002 9.27, 20.94 9.165000000000001, 22.14 9.06 C 22.89 9.06, 23.115000000000002 9.06, 23.64 9.06 C 23.94 9.06, 24.045 9.06, 24.240000000000002 9.06 C 24.330000000000002 9.06, 24.375 9.06, 24.42 9.06 L 24.42 9.06" fill="none" stroke="black" stroke-width="2"></path><path d="M 20.52 17.22 C 20.52 18.06, 20.52 17.82, 20.52 18.9 C 20.52 20.22, 20.52 20.294999999999998, 20.52 21.54 C 20.52 22.71, 20.52 22.439999999999998, 20.52 23.88 C 20.52 25.589999999999996, 20.52 25.694999999999997, 20.52 27.299999999999997 C 20.52 28.799999999999997, 20.52 28.694999999999997, 20.52 30.299999999999997 C 20.52 32.01, 20.52 32.16, 20.52 33.72 C 20.52 35.129999999999995, 20.52 35.055, 20.52 36.54 C 20.52 38.1, 20.474999999999998 37.965, 20.52 39.660000000000004 C 20.61 41.49, 20.610000000000003 41.865, 20.700000000000003 43.32 C 20.79 44.400000000000006, 20.835 44.52, 20.88 45.480000000000004 C 20.88 46.32000000000001, 20.88 46.665000000000006, 20.88 47.160000000000004 C 20.88 47.31, 20.88 47.385000000000005, 20.88 47.46 C 20.88 47.46, 20.88 47.46, 20.88 47.46 L 20.88 47.46" fill="none" stroke="black" stroke-width="2"></path></svg>