<svg width="48" height="48" viewBox="0 0 48 48" xmlns="http://www.w3.org/2000/svg"><path d="M 22.5 6.18 C 21.39 6.18, 21.51 5.91, 20.28 6.18 C 18.93 6.72, 18.69 6.465, 17.580000000000002 7.26 C 16.71 8.309999999999999, 16.455 8.19, 15.84 9.36 C 15.48 10.649999999999999, 15.3 10.649999999999999, 15.120000000000001 11.94 C 15.120000000000001 13.23, 15.120000000000001 13.604999999999999, 15.120000000000001 14.52 C 15.120000000000001 15.06, 14.865000000000002 15.000000000000002, 15.120000000000001 15.600000000000001 C 15.63 16.259999999999998, 15.48 16.229999999999997, 16.14 16.919999999999998 C 16.95 17.64, 16.889999999999997 17.82, 17.759999999999998 18.36 C 18.689999999999998 18.72, 18.615000000000002 18.900000000000002, 19.62 19.080000000000002 C 20.700000000000003 19.080000000000002, 20.85 19.185000000000002, 21.78 19.080000000000002 C 22.560000000000002 18.87, 22.485 19.17, 23.34 18.66 C 24.270000000000003 17.85, 24.525000000000002 17.865, 25.200000000000003 17.04 C 25.62 16.2, 25.785 16.14, 26.04 15.36 C 26.13 14.639999999999999, 26.235 14.819999999999999, 26.22 13.919999999999998 C 26.1 12.84, 26.1 12.854999999999999, 25.98 11.76 C 25.86 10.65, 25.950000000000003 10.56, 25.740000000000002 9.540000000000001 C 25.44 8.61, 25.455000000000002 8.46, 25.14 7.68 C 24.810000000000002 7.05, 24.945 6.975, 24.48 6.42 C 23.880000000000003 5.9399999999999995, 23.82 5.775, 23.28 5.46 C 22.8 5.3100000000000005, 22.86 5.235, 22.32 5.16 C 21.72 5.16, 21.42 5.16, 21.12 5.16 L 21.12 5.16" fill="none" stroke="black" stroke-width="2"></path><path d="M 16.799999999999997 11.879999999999999 C 18.089999999999996 12.059999999999999, 18.195 12.15, 19.38 12.24 C 20.46 12.24, 20.535 12.24, 21.54 12.24 C 22.47 12.24, 22.695 12.24, 23.4 12.24 C 23.88 12.24, 23.97 12.24, 24.36 12.24 C 24.66 12.24, 24.66 12.24, 24.96 12.24 C 25.259999999999998 12.24, 25.29 12.24, 25.56 12.24 C 25.799999999999997 12.24, 25.919999999999998 12.24, 26.04 12.24 C 26.04 12.24, 26.04 12.24, 26.04 12.24 L 26.04 12.24" fill="none" stroke="black" stroke-width="2"></path><path d="M 14.879999999999999 24.240000000000002 C 15.540000000000001 23.37, 15.360000000000003 23.415, 16.200000000000003 22.5 C 17.220000000000002 21.54, 17.385 21.165000000000003, 18.240000000000002 20.580000000000002 C 18.93 20.37, 18.975 20.265, 19.62 20.16 C 20.22 20.16, 20.130000000000003 20.145, 20.82 20.16 C 21.6 20.189999999999998, 21.674999999999997 19.965, 22.38 20.22 C 23.009999999999998 20.7, 23.07 20.475, 23.64 21.18 C 24.150000000000002 22.11, 24.225 22.11, 24.660000000000004 23.04 C 25.020000000000003 23.97, 25.110000000000003 23.835, 25.380000000000003 24.900000000000002 C 25.560000000000002 26.1, 25.650000000000002 26.159999999999997, 25.740000000000002 27.299999999999997 C 25.740000000000002 28.38, 25.740000000000002 28.26, 25.740000000000002 29.46 C 25.740000000000002 30.779999999999998, 25.740000000000002 31.034999999999997, 25.740000000000002 32.099999999999994 C 25.740000000000002 32.91, 25.830000000000002 32.76, 25.740000000000002 33.72 C 25.560000000000002 34.83, 25.665000000000003 34.785, 25.380000000000003 35.94 C 24.990000000000002 37.14, 25.095 37.47, 24.599999999999998 38.339999999999996 C 24 38.879999999999995, 23.939999999999998 39.03, 23.4 39.42 C 22.92 39.660000000000004, 23.01 39.73500000000001, 22.44 39.900000000000006 C 21.78 39.99, 21.810000000000002 40.05, 21.12 40.08 C 20.4 40.05, 20.37 40.154999999999994, 19.68 40.019999999999996 C 19.02 39.78, 18.915 39.855, 18.36 39.54 C 17.91 39.15, 17.985 39.495, 17.46 38.76 C 16.86 37.67999999999999, 16.68 37.574999999999996, 16.259999999999998 36.599999999999994 C 16.02 35.73, 15.899999999999999 35.295, 15.78 34.86 L 15.78 34.86" fill="none" stroke="black" stroke-width="2"></path></svg>