<svg width="48" height="48" viewBox="0 0 48 48" xmlns="http://www.w3.org/2000/svg"><path d="M 22.32 5.1 C 21.36 5.1, 21.72 4.949999999999999, 20.4 5.1 C 18.72 5.3999999999999995, 18.134999999999998 5.414999999999999, 17.04 5.699999999999999 C 16.53 5.97, 16.544999999999998 5.715, 16.02 6.24 C 15.48 7.0200000000000005, 15.360000000000001 6.555000000000001, 14.940000000000001 7.800000000000001 C 14.64 9.510000000000002, 14.49 9.72, 14.34 11.22 C 14.34 12.51, 14.175 12.645, 14.34 13.799999999999999 C 14.67 14.82, 14.55 15.014999999999999, 15 15.84 C 15.57 16.47, 15.540000000000001 16.62, 16.14 17.1 C 16.77 17.43, 16.695 17.595, 17.4 17.759999999999998 C 18.18 17.759999999999998, 18.12 17.804999999999996, 18.96 17.759999999999998 C 19.86 17.67, 20.099999999999998 17.73, 20.759999999999998 17.580000000000002 C 21.18 17.37, 21.12 17.535, 21.6 17.16 C 22.14 16.62, 22.155 16.605000000000004, 22.68 16.080000000000002 C 23.19 15.57, 23.235000000000003 15.614999999999998, 23.700000000000003 15.059999999999999 C 24.12 14.459999999999999, 24.24 14.43, 24.54 13.86 C 24.72 13.32, 24.810000000000002 13.575, 24.900000000000002 12.78 C 24.900000000000002 11.73, 24.900000000000002 11.655, 24.900000000000002 10.68 C 24.900000000000002 9.78, 24.945000000000004 9.645, 24.900000000000002 8.879999999999999 C 24.810000000000002 8.25, 24.884999999999998 8.145, 24.72 7.62 C 24.48 7.199999999999999, 24.480000000000004 7.109999999999999, 24.240000000000002 6.779999999999999 C 24 6.54, 24.06 6.525, 23.759999999999998 6.300000000000001 C 23.4 6.09, 23.294999999999998 6.03, 23.04 5.88 C 22.89 5.789999999999999, 22.860000000000003 5.76, 22.740000000000002 5.699999999999999 C 22.65 5.67, 22.605 5.654999999999999, 22.56 5.64 L 22.56 5.64" fill="none" stroke="black" stroke-width="2"></path><path d="M 14.700000000000001 9.959999999999999 C 14.879999999999999 10.079999999999998, 14.28 10.049999999999999, 15.059999999999999 10.2 C 16.439999999999998 10.379999999999999, 16.695 10.47, 17.82 10.56 C 18.689999999999998 10.56, 18.479999999999997 10.56, 19.56 10.56 C 20.85 10.56, 21.105 10.56, 22.14 10.56 C 22.92 10.56, 23.145000000000003 10.56, 23.700000000000003 10.56 C 24.03 10.56, 24.09 10.56, 24.36 10.56 C 24.57 10.56, 24.630000000000003 10.56, 24.78 10.56 C 24.87 10.56, 24.915 10.56, 24.96 10.56 L 24.96 10.56" fill="none" stroke="black" stroke-width="2"></path><path d="M 18.12 17.580000000000002 C 18.12 17.79, 18.12 17.445, 18.12 18 C 18.12 18.9, 18.12 18.779999999999998, 18.12 19.799999999999997 C 18.12 20.939999999999998, 18.21 20.700000000000003, 18.12 22.080000000000002 C 17.939999999999998 23.700000000000003, 17.909999999999997 23.580000000000002, 17.759999999999998 25.32 C 17.64 27.18, 17.625 27.299999999999997, 17.52 29.04 C 17.43 30.66, 17.384999999999998 30.825000000000003, 17.34 32.28 C 17.34 33.57, 17.34 33.42, 17.34 34.86 C 17.34 36.45, 17.34 36.629999999999995, 17.34 38.04 C 17.34 39.269999999999996, 17.28 39.465, 17.34 40.5 C 17.46 41.34, 17.445 41.55, 17.580000000000002 42.18 C 17.73 42.599999999999994, 17.64 42.55499999999999, 17.88 43.019999999999996 C 18.21 43.53, 18.134999999999998 43.65, 18.54 44.04 C 19.02 44.31, 19.064999999999998 44.415, 19.5 44.58 C 19.89 44.64, 19.965000000000003 44.67, 20.28 44.7 C 20.52 44.7, 20.519999999999996 44.7, 20.759999999999998 44.7 C 21 44.7, 20.925 44.790000000000006, 21.240000000000002 44.7 C 21.630000000000003 44.519999999999996, 21.48 44.76, 22.02 44.339999999999996 C 22.71 43.67999999999999, 22.845 43.605, 23.4 43.019999999999996 C 23.82 42.51, 23.865000000000002 42.464999999999996, 24.240000000000002 42 C 24.57 41.58, 24.630000000000003 41.715, 24.900000000000002 41.160000000000004 C 25.11 40.47, 25.185000000000002 40.980000000000004, 25.32 39.78 C 25.380000000000003 38.07, 25.365000000000002 37.71, 25.44 36.36 C 25.53 35.370000000000005, 25.575 35.265, 25.619999999999997 34.38 C 25.619999999999997 33.6, 25.619999999999997 33.405, 25.619999999999997 32.82 C 25.619999999999997 32.43, 25.619999999999997 32.31, 25.619999999999997 32.04 L 25.619999999999997 31.740000000000002" fill="none" stroke="black" stroke-width="2"></path></svg>