<svg width="48" height="48" viewBox="0 0 48 48" xmlns="http://www.w3.org/2000/svg"><path d="M 13.200000000000001 41.22 C 13.74 41.22, 13.77 41.22, 14.28 41.22 C 14.76 41.22, 14.745000000000001 41.22, 15.24 41.22 C 15.75 41.22, 15.569999999999999 41.265, 16.259999999999998 41.22 C 17.13 41.129999999999995, 17.325 41.129999999999995, 18 41.04 C 18.48 40.95, 18.435000000000002 40.935, 18.96 40.86 C 19.53 40.8, 19.785000000000004 40.77, 20.1 40.74 C 20.16 40.74, 20.189999999999998 40.74, 20.22 40.74 L 20.22 40.74" fill="none" stroke="black" stroke-width="2"></path><path d="M 14.22 45.78 C 13.830000000000002 44.91, 13.680000000000001 44.775, 13.440000000000001 44.04 C 13.350000000000001 43.44, 13.379999999999999 43.529999999999994, 13.26 42.839999999999996 C 13.11 42.06, 13.080000000000002 42.18, 12.96 41.28 C 12.870000000000001 40.260000000000005, 12.87 40.455, 12.78 39.24 C 12.690000000000001 37.83, 12.750000000000002 38.235, 12.600000000000001 36.42 C 12.39 34.2, 12.285 33.69, 12.18 31.98 C 12.18 30.78, 12.24 30.9, 12.18 29.58 C 12.059999999999999 28.14, 12 27.96, 11.94 26.700000000000003 C 11.94 25.62, 11.895 25.41, 11.94 24.54 C 12.030000000000001 23.88, 11.985000000000001 23.865, 12.120000000000001 23.22 C 12.3 22.59, 12.285 22.47, 12.48 21.96 C 12.69 21.57, 12.569999999999999 21.63, 12.899999999999999 21.18 C 13.349999999999998 20.67, 13.409999999999998 20.505000000000003, 13.799999999999999 20.16 C 14.129999999999999 19.979999999999997, 14.13 19.904999999999998, 14.46 19.799999999999997 C 14.790000000000001 19.77, 14.670000000000002 19.590000000000003, 15.120000000000001 19.740000000000002 C 15.69 20.07, 15.659999999999998 19.784999999999997, 16.259999999999998 20.4 C 16.89 21.3, 17.009999999999998 21.315, 17.52 22.200000000000003 C 17.909999999999997 23.07, 17.955 23.040000000000003, 18.299999999999997 23.94 C 18.599999999999998 24.869999999999997, 18.705 25.139999999999997, 18.9 25.799999999999997 C 18.990000000000002 26.189999999999998, 19.035 26.384999999999998, 19.080000000000002 26.58 C 19.080000000000002 26.58, 19.065 26.534999999999997, 19.080000000000002 26.58 C 19.11 26.669999999999998, 19.11 26.744999999999997, 19.14 26.759999999999998 C 19.17 26.7, 19.185000000000002 26.925, 19.200000000000003 26.64 C 19.200000000000003 26.13, 19.200000000000003 26.144999999999996, 19.200000000000003 25.619999999999997 C 19.200000000000003 25.08, 19.200000000000003 25.049999999999997, 19.200000000000003 24.54 C 19.200000000000003 24.060000000000002, 19.200000000000003 24.045, 19.200000000000003 23.580000000000002 C 19.200000000000003 23.130000000000003, 19.17 23.07, 19.200000000000003 22.68 C 19.26 22.35, 19.215 22.425, 19.32 22.02 C 19.47 21.54, 19.44 21.494999999999997, 19.62 21.06 C 19.83 20.67, 19.814999999999998 20.64, 20.04 20.28 C 20.28 19.950000000000003, 20.145 19.965000000000003, 20.52 19.62 C 21.03 19.259999999999998, 20.955 19.2, 21.54 18.9 C 22.2 18.659999999999997, 22.125 18.54, 22.86 18.419999999999998 C 23.67 18.419999999999998, 23.55 18.419999999999998, 24.48 18.419999999999998 C 25.53 18.419999999999998, 25.77 18.419999999999998, 26.58 18.419999999999998 C 27.15 18.419999999999998, 27.15 18.374999999999996, 27.72 18.419999999999998 C 28.29 18.509999999999998, 28.38 18.555, 28.86 18.6 C 29.25 18.6, 29.28 18.51, 29.64 18.6 C 29.97 18.78, 30.134999999999998 18.87, 30.299999999999997 18.96 L 30.299999999999997 18.96" fill="none" stroke="black" stroke-width="2"></path><path d="M 20.28 3.12 C 19.53 3.39, 19.650000000000002 3.1500000000000004, 18.78 3.66 C 17.79 4.41, 17.744999999999997 4.215, 16.799999999999997 5.16 C 15.899999999999999 6.3, 15.54 6.119999999999999, 15 7.4399999999999995 C 14.82 8.94, 14.700000000000001 9.209999999999999, 14.64 10.44 C 14.7 11.399999999999999, 14.280000000000001 11.444999999999999, 14.76 12.36 C 15.66 13.23, 15.554999999999998 13.515, 16.56 14.100000000000001 C 17.67 14.400000000000002, 17.475 14.655000000000001, 18.78 14.700000000000001 C 20.28 14.49, 20.775000000000002 14.49, 21.78 14.28 C 22.29 14.07, 22.244999999999997 14.174999999999999, 22.799999999999997 13.86 C 23.4 13.44, 23.52 13.454999999999998, 24 13.02 C 24.36 12.57, 24.45 12.615, 24.72 12.120000000000001 C 24.9 11.580000000000002, 24.99 11.625000000000002, 25.08 11.040000000000001 C 25.08 10.41, 25.154999999999998 10.545, 25.08 9.78 C 24.93 8.879999999999999, 25.020000000000003 8.76, 24.78 7.98 C 24.45 7.32, 24.509999999999998 7.29, 24.119999999999997 6.66 C 23.669999999999998 6.0600000000000005, 23.61 5.97, 23.22 5.46 C 22.89 5.04, 22.935 5.025, 22.56 4.62 C 22.14 4.23, 22.275 4.125, 21.72 3.84 C 21.03 3.6599999999999997, 20.97 3.5999999999999996, 20.34 3.4799999999999995 C 19.770000000000003 3.42, 19.560000000000002 3.39, 19.200000000000003 3.3600000000000003 C 19.05 3.3600000000000003, 18.975 3.3600000000000003, 18.9 3.3600000000000003 L 18.9 3.3600000000000003" fill="none" stroke="black" stroke-width="2"></path><path d="M 15 9.66 C 15.629999999999999 9.66, 15.329999999999998 9.66, 16.259999999999998 9.66 C 17.49 9.66, 17.474999999999998 9.66, 18.72 9.66 C 19.98 9.66, 20.265 9.66, 21.240000000000002 9.66 C 21.93 9.66, 22.005000000000003 9.66, 22.62 9.66 C 23.160000000000004 9.66, 23.265000000000004 9.66, 23.700000000000003 9.66 C 24.03 9.66, 24.195 9.66, 24.36 9.66 C 24.36 9.66, 24.36 9.66, 24.36 9.66 L 24.36 9.66" fill="none" stroke="black" stroke-width="2"></path></svg>