<svg width="48" height="48" viewBox="0 0 48 48" xmlns="http://www.w3.org/2000/svg"><path d="M 11.76 5.1 C 11.49 6.27, 11.505 5.834999999999999, 11.22 7.4399999999999995 C 10.920000000000002 9.48, 10.845 9.555, 10.620000000000001 11.52 C 10.47 13.41, 10.395 13.454999999999998, 10.32 15.299999999999999 C 10.32 17.099999999999998, 10.32 17.369999999999997, 10.32 18.9 C 10.32 20.159999999999997, 10.32 19.904999999999998, 10.32 21.419999999999998 C 10.32 23.189999999999998, 10.32 23.385, 10.32 24.96 C 10.32 26.34, 10.290000000000001 26.669999999999998, 10.32 27.72 C 10.379999999999999 28.44, 10.274999999999999 28.590000000000003, 10.44 29.160000000000004 C 10.71 29.580000000000002, 10.59 29.595, 10.98 30 C 11.49 30.39, 11.46 30.465000000000003, 12 30.78 C 12.57 31.02, 12.15 31.14, 13.14 31.259999999999998 C 14.55 31.259999999999998, 14.400000000000002 31.379999999999995, 15.96 31.259999999999998 C 17.67 31.02, 17.67 31.05, 19.38 30.78 C 21.089999999999996 30.48, 21.104999999999997 30.45, 22.799999999999997 30.18 C 24.48 29.94, 24.810000000000002 29.880000000000003, 26.160000000000004 29.700000000000003 C 27.180000000000003 29.580000000000002, 27.435000000000002 29.385, 28.200000000000003 29.46 C 28.71 29.73, 28.799999999999997 29.655, 29.22 30 C 29.55 30.419999999999998, 29.520000000000003 30.284999999999997, 29.880000000000003 30.839999999999996 C 30.270000000000003 31.529999999999998, 30.360000000000007 31.365, 30.660000000000004 32.22 C 30.87 33.239999999999995, 30.96 33.405, 31.08 34.26 C 31.11 34.95, 31.125 34.95, 31.14 35.64 C 31.14 36.33, 31.245 36.345, 31.14 37.019999999999996 C 30.93 37.67999999999999, 31.365 37.51499999999999, 30.72 38.339999999999996 C 29.64 39.33, 29.894999999999996 39.375, 28.56 40.32 C 26.97 41.22, 26.595000000000002 41.58, 25.380000000000003 42.12 C 24.540000000000003 42.3, 24.675000000000004 42.36000000000001, 23.700000000000003 42.480000000000004 C 22.590000000000003 42.54, 22.305 42.644999999999996, 21.48 42.599999999999994 C 20.939999999999998 42.449999999999996, 20.924999999999997 42.48, 20.4 42.3 C 19.89 42.09, 19.634999999999998 41.985, 19.38 41.88 L 19.38 41.88" fill="none" stroke="black" stroke-width="2"></path><path d="M 27.36 28.98 C 27.630000000000003 28.86, 27.540000000000003 29.01, 27.900000000000002 28.740000000000002 C 28.35 28.32, 28.319999999999997 29.250000000000004, 28.799999999999997 27.900000000000002 C 29.31 25.62, 29.58 25.59, 29.82 23.34 C 29.79 21.119999999999997, 29.82 20.775, 29.759999999999998 18.9 C 29.669999999999998 17.369999999999997, 29.744999999999997 17.925, 29.58 15.84 C 29.339999999999996 13.2, 29.264999999999997 12.540000000000001, 29.099999999999998 10.56 C 29.009999999999998 9.24, 28.965 9.045, 28.92 7.92 C 28.92 6.99, 28.92 6.630000000000001, 28.92 6.0600000000000005 C 28.92 5.85, 28.965000000000003 5.835, 28.92 5.64 C 28.830000000000002 5.46, 28.785000000000004 5.37, 28.740000000000002 5.28 L 28.740000000000002 5.28" fill="none" stroke="black" stroke-width="2"></path><path d="M 19.080000000000002 10.08 C 18.36 10.68, 18.315 10.5, 17.64 11.28 C 17.009999999999998 12.24, 16.95 11.925, 16.38 13.200000000000001 C 15.87 14.79, 15.614999999999998 15.254999999999999, 15.36 16.38 C 15.36 17.04, 15.165 16.830000000000002, 15.36 17.700000000000003 C 15.75 18.78, 15.57 18.915, 16.14 19.86 C 16.89 20.67, 16.830000000000002 20.745, 17.64 21.48 C 18.509999999999998 22.14, 18.39 22.349999999999998, 19.38 22.799999999999997 C 20.490000000000002 23.04, 20.490000000000002 23.37, 21.6 23.28 C 22.71 22.86, 22.845 23.085, 23.82 22.44 C 24.66 21.57, 25.005000000000003 21.450000000000003, 25.5 20.700000000000003 C 25.65 20.07, 25.724999999999998 20.37, 25.799999999999997 19.44 C 25.799999999999997 18.21, 25.799999999999997 18.075000000000003, 25.799999999999997 16.98 C 25.799999999999997 16.02, 25.845 15.825, 25.799999999999997 15.059999999999999 C 25.709999999999997 14.489999999999998, 25.964999999999996 14.549999999999997, 25.619999999999997 13.919999999999998 C 25.02 13.229999999999999, 25.005000000000003 13.034999999999998, 24.42 12.54 C 23.85 12.239999999999998, 23.73 12.195, 23.28 11.94 C 22.950000000000003 11.73, 22.950000000000003 11.684999999999999, 22.62 11.52 C 22.29 11.399999999999999, 22.395000000000003 11.415, 21.96 11.28 C 21.42 11.129999999999999, 21.435 11.1, 20.88 10.98 C 20.310000000000002 10.89, 20.175 10.89, 19.740000000000002 10.8 C 19.44 10.71, 19.335 10.665000000000001, 19.14 10.620000000000001 C 19.05 10.620000000000001, 19.005000000000003 10.620000000000001, 18.96 10.620000000000001 L 18.96 10.620000000000001" fill="none" stroke="black" stroke-width="2"></path><path d="M 15.96 16.68 C 17.13 16.68, 16.485 16.68, 18.299999999999997 16.68 C 20.759999999999998 16.68, 21.419999999999998 16.68, 23.22 16.68 C 24.36 16.68, 24.884999999999998 16.68, 25.5 16.68 C 25.59 16.68, 25.515 16.634999999999998, 25.68 16.68 C 25.92 16.77, 26.040000000000003 16.814999999999998, 26.160000000000004 16.86 L 26.160000000000004 16.86" fill="none" stroke="black" stroke-width="2"></path></svg>