<svg width="48" height="48" viewBox="0 0 48 48" xmlns="http://www.w3.org/2000/svg"><path d="M 11.34 3.3600000000000003 C 11.1 4.140000000000001, 11.129999999999999 3.675, 10.86 4.92 C 10.559999999999999 6.63, 10.455 6.465, 10.26 8.34 C 10.17 10.379999999999999, 10.125 10.754999999999999, 10.08 12.419999999999998 C 10.08 13.709999999999999, 10.08 13.875, 10.08 15 C 10.08 15.959999999999999, 10.065 15.809999999999999, 10.08 16.919999999999998 C 10.11 18.18, 10.065000000000001 18.165, 10.14 19.44 C 10.26 20.73, 10.2 20.895, 10.379999999999999 22.02 C 10.62 22.98, 10.59 22.965, 10.86 23.94 C 11.16 24.93, 11.084999999999999 25.110000000000003, 11.459999999999999 25.92 C 11.91 26.55, 11.805 26.73, 12.36 27.18 C 13.02 27.45, 13.035 27.525, 13.68 27.72 C 14.31 27.84, 14.325000000000001 27.87, 14.940000000000001 27.96 C 15.540000000000001 28.02, 15.510000000000002 28.049999999999997, 16.14 28.08 C 16.8 28.08, 16.650000000000002 28.08, 17.46 28.08 C 18.42 28.08, 18.36 28.14, 19.38 28.08 C 20.46 27.959999999999997, 20.669999999999998 27.944999999999993, 21.54 27.839999999999996 C 22.2 27.75, 21.99 27.720000000000002, 22.86 27.660000000000004 C 23.939999999999998 27.630000000000003, 24.075 27.63, 25.02 27.599999999999998 C 25.83 27.57, 25.875 27.555, 26.64 27.54 C 27.36 27.54, 27.479999999999997 27.479999999999997, 28.08 27.54 C 28.56 27.66, 28.5 27.555, 29.04 27.78 C 29.64 28.11, 29.730000000000004 28.125, 30.240000000000002 28.44 C 30.66 28.740000000000002, 30.659999999999997 28.68, 31.08 29.04 C 31.5 29.46, 31.605000000000004 29.505000000000003, 31.92 29.880000000000003 C 32.129999999999995 30.21, 32.099999999999994 30.09, 32.339999999999996 30.54 C 32.61 31.11, 32.7 31.125, 32.88 31.68 C 32.97 32.22, 33.045 31.964999999999996, 33.06 32.76 C 33 33.81, 33.18 33.735, 32.94 34.86 C 32.519999999999996 36.06, 32.565 36.209999999999994, 32.099999999999994 37.26 C 31.589999999999996 38.16, 31.634999999999998 38.22, 31.08 39.06 C 30.48 39.84, 30.57 39.93, 29.880000000000003 40.62 C 29.1 41.22, 29.235 41.34, 28.32 41.82 C 27.27 42.18, 27.24 42.254999999999995, 26.22 42.54 C 25.23 42.75, 25.470000000000002 42.765, 24.240000000000002 42.96 C 22.77 43.14, 22.424999999999997 43.230000000000004, 21.299999999999997 43.32 C 20.52 43.32, 20.61 43.515, 19.740000000000002 43.32 C 18.78 42.93, 18.900000000000002 43.29, 17.82 42.54 C 16.619999999999997 41.43, 16.259999999999998 41.25, 15.419999999999998 40.32 C 14.94 39.57, 14.850000000000001 39.6, 14.46 38.82 C 14.16 38.010000000000005, 14.055 37.845, 13.86 37.2 C 13.77 36.72, 13.725 36.480000000000004, 13.68 36.24 L 13.68 36.24" fill="none" stroke="black" stroke-width="2"></path><path d="M 22.080000000000002 5.699999999999999 C 21.060000000000002 6.21, 21 6.045000000000001, 20.04 6.720000000000001 C 19.14 7.56, 19.095000000000002 7.274999999999999, 18.240000000000002 8.399999999999999 C 17.43 9.809999999999999, 17.115000000000002 9.780000000000001, 16.62 11.22 C 16.439999999999998 12.690000000000001, 16.305 12.795, 16.259999999999998 14.16 C 16.35 15.42, 16.065 15.285, 16.44 16.68 C 17.1 18.21, 17.084999999999997 18.585, 17.759999999999998 19.740000000000002 C 18.45 20.52, 18.255000000000003 20.624999999999996, 19.14 21.299999999999997 C 20.22 21.869999999999997, 20.264999999999997 22.11, 21.299999999999997 22.44 C 22.29 22.53, 22.17 22.725, 23.28 22.62 C 24.51 22.32, 24.855000000000004 22.38, 25.740000000000002 22.02 C 26.28 21.6, 26.385 21.585, 26.82 21.18 C 27.15 20.79, 27.134999999999998 20.985, 27.48 20.4 C 27.840000000000003 19.619999999999997, 27.855000000000004 19.95, 28.200000000000003 18.84 C 28.53 17.4, 28.665 17.25, 28.86 15.96 C 28.92 14.82, 28.95 14.745000000000001, 28.98 13.68 C 28.98 12.69, 29.055 12.614999999999998, 28.98 11.7 C 28.83 10.86, 28.995 10.83, 28.68 10.02 C 28.2 9.239999999999998, 28.214999999999996 9.09, 27.72 8.459999999999999 C 27.21 7.9799999999999995, 27.300000000000004 7.949999999999999, 26.700000000000003 7.5 C 26.01 7.08, 25.935000000000002 7.005, 25.32 6.66 C 24.78 6.390000000000001, 24.855000000000004 6.315, 24.240000000000002 6.12 C 23.55 6, 23.58 5.9399999999999995, 22.86 5.88 C 22.11 5.88, 21.855 5.82, 21.36 5.88 C 21.119999999999997 6, 21 6.0600000000000005, 20.88 6.12 L 20.88 6.12" fill="none" stroke="black" stroke-width="2"></path><path d="M 16.740000000000002 13.86 C 16.77 13.92, 16.589999999999996 13.95, 16.799999999999997 13.98 C 17.189999999999998 13.98, 16.455000000000002 14.040000000000001, 17.580000000000002 13.98 C 19.439999999999998 13.86, 19.604999999999997 13.935, 21.299999999999997 13.74 C 22.83 13.47, 23.055 13.38, 24.36 13.200000000000001 C 25.439999999999998 13.11, 25.53 13.065, 26.52 13.02 C 27.42 13.02, 27.615000000000002 13.02, 28.32 13.02 C 28.83 13.02, 28.964999999999996 13.02, 29.339999999999996 13.02 C 29.58 13.02, 29.655 13.02, 29.82 13.02 C 29.91 13.02, 29.955 13.02, 30 13.02 L 30 13.02" fill="none" stroke="black" stroke-width="2"></path></svg>