<svg width="48" height="48" viewBox="0 0 48 48" xmlns="http://www.w3.org/2000/svg"><path d="M 17.88 44.28 C 17.22 44.28, 17.4 44.28, 16.56 44.28 C 15.54 44.28, 15.45 44.325, 14.52 44.28 C 13.68 44.19, 13.335 44.144999999999996, 12.84 44.099999999999994 C 12.69 44.099999999999994, 12.764999999999999 44.099999999999994, 12.54 44.099999999999994 C 12.239999999999998 44.099999999999994, 12.209999999999999 44.099999999999994, 11.94 44.099999999999994 C 11.7 44.099999999999994, 11.7 44.099999999999994, 11.459999999999999 44.099999999999994 C 11.219999999999999 44.099999999999994, 11.1 44.099999999999994, 10.98 44.099999999999994 C 10.98 44.099999999999994, 11.07 44.21999999999999, 10.98 44.099999999999994 C 10.8 43.86, 10.71 44.324999999999996, 10.620000000000001 43.62 C 10.620000000000001 42.45, 10.530000000000001 42.39, 10.620000000000001 41.28 C 10.8 40.230000000000004, 10.86 40.26, 10.98 39.18 C 11.040000000000001 38.07, 11.055000000000001 37.875, 11.100000000000001 36.96 C 11.13 36.239999999999995, 11.145 36.525, 11.16 35.519999999999996 C 11.16 34.23, 11.115 34.065, 11.16 32.94 C 11.25 31.979999999999997, 11.295 32.129999999999995, 11.34 31.02 C 11.34 29.759999999999998, 11.295 29.73, 11.34 28.5 C 11.43 27.299999999999997, 11.43 27.029999999999998, 11.52 26.099999999999998 C 11.61 25.439999999999998, 11.61 25.59, 11.7 24.78 C 11.79 23.82, 11.805 23.655, 11.879999999999999 22.86 C 11.94 22.23, 11.969999999999999 22.215000000000003, 12 21.6 C 12 21, 11.925 21.015, 12 20.4 C 12.149999999999999 19.77, 12.195 19.575, 12.299999999999999 19.14 C 12.36 18.9, 12.119999999999997 19.02, 12.419999999999998 18.66 C 12.959999999999999 18.18, 12.855 18.150000000000002, 13.5 17.700000000000003 C 14.25 17.28, 14.355 17.1, 15 16.86 C 15.540000000000001 16.8, 15.390000000000002 16.860000000000003, 16.080000000000002 16.740000000000002 C 16.92 16.560000000000002, 16.724999999999998 16.515, 17.759999999999998 16.38 C 18.99 16.29, 19.2 16.290000000000003, 20.22 16.200000000000003 C 21.03 16.11, 21.015 16.065, 21.84 16.02 C 22.68 16.02, 22.875 16.02, 23.52 16.02 C 23.97 16.02, 23.925 16.02, 24.42 16.02 C 24.96 16.02, 25.080000000000002 16.02, 25.5 16.02 C 25.799999999999997 16.02, 25.86 15.989999999999998, 26.099999999999998 16.02 C 26.28 16.08, 26.205000000000002 16.035, 26.46 16.14 C 26.79 16.29, 26.834999999999997 16.275000000000002, 27.119999999999997 16.44 C 27.36 16.619999999999997, 27.314999999999998 16.604999999999997, 27.599999999999998 16.799999999999997 C 27.93 17.009999999999998, 27.9 16.904999999999998, 28.259999999999998 17.22 C 28.65 17.64, 28.71 17.595, 29.04 18.06 C 29.31 18.57, 29.265 18.36, 29.58 19.080000000000002 C 29.939999999999998 20.01, 29.999999999999996 19.635, 30.299999999999997 20.94 C 30.54 22.619999999999997, 30.615000000000002 22.634999999999998, 30.78 24.299999999999997 C 30.87 25.949999999999996, 30.915 26.144999999999996, 30.96 27.599999999999998 C 30.96 28.86, 30.96 28.604999999999997, 30.96 30.119999999999997 C 30.96 31.89, 30.975 31.695, 30.96 33.660000000000004 C 30.93 35.82000000000001, 30.96 36.075, 30.900000000000002 37.980000000000004 C 30.810000000000002 39.63, 30.81 39.96, 30.72 41.28 C 30.63 42.269999999999996, 30.63 42.45, 30.54 43.26 C 30.45 43.89, 30.405 44.03999999999999, 30.36 44.519999999999996 C 30.36 44.849999999999994, 30.36 45.015, 30.36 45.18 C 30.36 45.18, 30.36 45.18, 30.36 45.18 C 30.36 45.18, 30.39 45.15, 30.36 45.18 L 30.240000000000002 45.3" fill="none" stroke="black" stroke-width="2"></path><path d="M 22.38 1.8599999999999999 C 21.089999999999996 1.95, 21.119999999999997 1.605, 19.799999999999997 2.04 C 18.45 2.82, 18.18 2.625, 17.1 3.5999999999999996 C 16.29 4.77, 16.080000000000002 4.74, 15.48 5.9399999999999995 C 15.09 7.169999999999999, 14.940000000000001 6.989999999999998, 14.700000000000001 8.399999999999999 C 14.61 9.989999999999998, 14.370000000000001 10.41, 14.52 11.58 C 14.91 12.330000000000002, 14.654999999999998 12.375000000000002, 15.299999999999999 13.080000000000002 C 16.2 13.74, 15.645000000000001 14.04, 17.1 14.399999999999999 C 19.11 14.459999999999999, 19.305 14.594999999999999, 21.12 14.52 C 22.740000000000002 14.31, 23.04 14.505000000000003, 24.36 14.100000000000001 C 25.380000000000003 13.5, 25.665000000000003 13.829999999999998, 26.400000000000002 12.899999999999999 C 26.85 11.639999999999999, 27.029999999999998 11.654999999999998, 27.299999999999997 10.379999999999999 C 27.39 9.09, 27.525 8.925, 27.48 7.800000000000001 C 27.299999999999997 6.84, 27.494999999999997 6.795, 27.119999999999997 5.88 C 26.549999999999997 5.01, 26.490000000000002 4.8149999999999995, 25.98 4.14 C 25.53 3.66, 25.634999999999998 3.72, 25.08 3.18 C 24.419999999999998 2.58, 24.449999999999996 2.31, 23.759999999999998 1.98 C 23.04 1.92, 23.009999999999998 1.77, 22.32 1.8599999999999999 C 21.66 2.0999999999999996, 21.375 2.19, 21 2.34 L 20.82 2.46" fill="none" stroke="black" stroke-width="2"></path><path d="M 14.34 9.600000000000001 C 16.32 9.57, 16.665 9.555000000000001, 18.299999999999997 9.540000000000001 C 19.589999999999996 9.540000000000001, 19.365 9.525, 20.88 9.540000000000001 C 22.619999999999997 9.57, 22.95 9.570000000000002, 24.36 9.600000000000001 C 25.439999999999998 9.63, 25.725 9.615, 26.52 9.66 C 27.03 9.719999999999999, 27.09 9.75, 27.54 9.78 C 27.93 9.78, 28.125 9.78, 28.32 9.78 L 28.32 9.78" fill="none" stroke="black" stroke-width="2"></path></svg>