<svg width="48" height="48" viewBox="0 0 48 48" xmlns="http://www.w3.org/2000/svg"><path d="M 12.899999999999999 3.9000000000000004 C 12.899999999999999 4.8, 13.124999999999998 3.9599999999999995, 12.899999999999999 5.699999999999999 C 12.45 8.28, 12.39 8.475, 12 10.86 C 11.67 13.05, 11.7 12.765, 11.34 15.24 C 10.95 18, 10.785 18.659999999999997, 10.56 20.759999999999998 C 10.5 22.2, 10.245 22.740000000000002, 10.44 23.64 C 10.89 24, 10.89 24.15, 11.34 24.36 C 11.79 24.42, 11.685 24.645, 12.24 24.48 C 12.899999999999999 24.090000000000003, 12.884999999999998 24.495000000000005, 13.559999999999999 23.700000000000003 C 14.25 22.5, 14.295000000000002 22.65, 14.940000000000001 21.299999999999997 C 15.540000000000001 19.799999999999997, 15.84 19.049999999999997, 16.14 18.299999999999997 C 16.14 18.299999999999997, 16.05 18.33, 16.14 18.299999999999997 C 16.32 18.24, 16.259999999999998 17.88, 16.5 18.18 C 16.8 18.84, 16.71 18.81, 17.1 19.5 C 17.58 20.22, 17.549999999999997 20.325000000000003, 18.06 20.94 C 18.6 21.450000000000003, 18.57 21.51, 19.14 21.96 C 19.740000000000002 22.35, 19.395 22.365000000000002, 20.34 22.740000000000002 C 21.63 23.1, 21.555 23.28, 22.919999999999998 23.46 C 24.36 23.46, 24.644999999999996 23.595000000000002, 25.799999999999997 23.46 C 26.669999999999998 23.189999999999998, 27 23.369999999999997, 27.54 22.919999999999998 C 27.75 22.29, 27.69 22.86, 27.96 21.66 C 28.29 19.89, 28.394999999999996 19.68, 28.619999999999997 18.12 C 28.74 16.77, 28.799999999999997 16.889999999999997, 28.86 15.419999999999998 C 28.86 13.829999999999998, 28.86 13.725, 28.86 12.24 C 28.86 10.86, 28.875 11.040000000000001, 28.86 9.48 C 28.83 7.74, 28.86 7.425, 28.799999999999997 6 C 28.709999999999997 4.890000000000001, 28.679999999999996 4.365, 28.619999999999997 3.7800000000000002 C 28.589999999999996 3.72, 28.575 3.6900000000000004, 28.56 3.66 L 28.56 3.66" fill="none" stroke="black" stroke-width="2"></path><path d="M 21.84 4.26 C 21.21 4.5600000000000005, 21.090000000000003 4.635, 20.580000000000002 4.86 C 20.189999999999998 5.01, 20.294999999999998 4.785, 19.799999999999997 5.16 C 19.2 5.76, 19.200000000000003 5.655, 18.6 6.36 C 18 7.17, 17.805 7.095000000000001, 17.4 7.98 C 17.189999999999998 8.94, 17.175 8.985, 16.98 9.899999999999999 C 16.8 10.77, 16.485 10.905000000000001, 16.62 11.64 C 17.07 12.24, 16.86 12.285, 17.52 12.84 C 18.39 13.35, 18.555 13.544999999999998, 19.259999999999998 13.86 C 19.799999999999997 13.98, 19.634999999999998 14.010000000000002, 20.34 14.100000000000001 C 21.21 14.16, 21.105 14.520000000000001, 22.080000000000002 14.22 C 23.160000000000004 13.559999999999999, 23.355000000000004 13.724999999999998, 24.240000000000002 12.899999999999999 C 24.93 11.91, 25.244999999999997 11.655, 25.619999999999997 10.92 C 25.68 10.44, 25.71 10.395, 25.740000000000002 9.959999999999999 C 25.740000000000002 9.57, 25.905 9.705, 25.740000000000002 9.18 C 25.41 8.52, 25.455 8.58, 25.08 7.86 C 24.66 7.08, 24.630000000000003 6.855, 24.240000000000002 6.300000000000001 C 23.880000000000003 5.970000000000001, 23.985 5.97, 23.52 5.64 C 22.95 5.31, 22.89 5.174999999999999, 22.38 4.9799999999999995 C 21.93 4.92, 21.975 4.890000000000001, 21.48 4.86 C 20.939999999999998 4.86, 20.669999999999998 4.86, 20.4 4.86 L 20.4 4.86" fill="none" stroke="black" stroke-width="2"></path><path d="M 17.34 9.600000000000001 C 17.91 9.75, 17.7 9.794999999999998, 18.48 9.899999999999999 C 19.47 9.959999999999999, 19.29 9.975, 20.46 10.02 C 21.810000000000002 10.05, 22.185000000000002 10.065, 23.16 10.08 C 23.759999999999998 10.08, 23.745 10.08, 24.36 10.08 C 24.99 10.08, 25.229999999999997 10.08, 25.619999999999997 10.08 C 25.77 10.08, 25.845 10.08, 25.92 10.08 C 25.92 10.08, 25.92 10.08, 25.92 10.08 C 25.92 10.08, 25.92 10.08, 25.92 10.08 C 25.92 10.08, 25.92 10.08, 25.92 10.08 L 25.92 10.08" fill="none" stroke="black" stroke-width="2"></path><path d="M 24 22.919999999999998 C 24.06 23.1, 24.134999999999998 22.755000000000003, 24.119999999999997 23.28 C 24.03 24.15, 24.075 24.045, 23.94 25.02 C 23.76 26.1, 23.76 26.009999999999998, 23.580000000000002 27.18 C 23.4 28.44, 23.49 28.53, 23.22 29.700000000000003 C 22.86 30.78, 22.905 30.735, 22.5 31.86 C 22.05 33.03, 22.23 32.925000000000004, 21.6 34.2 C 20.79 35.58, 20.745 35.7, 19.98 36.96 C 19.259999999999998 38.1, 19.259999999999998 38.160000000000004, 18.54 39.24 C 17.82 40.260000000000005, 17.685000000000002 40.545, 17.1 41.28 C 16.650000000000002 41.730000000000004, 17.010000000000005 41.595, 16.200000000000003 42.18 C 15.030000000000001 42.9, 15.15 42.959999999999994, 13.86 43.62 C 12.45 44.22, 11.955000000000002 44.415, 11.040000000000001 44.82 C 10.620000000000001 45.03, 10.41 45.135000000000005, 10.2 45.24 C 10.2 45.24, 10.2 45.24, 10.2 45.24 L 10.2 45.24" fill="none" stroke="black" stroke-width="2"></path></svg>