<svg width="48" height="48" viewBox="0 0 48 48" xmlns="http://www.w3.org/2000/svg"><path d="M 15.72 27.72 C 16.11 27.779999999999998, 15.825000000000001 27.719999999999995, 16.5 27.839999999999996 C 17.46 28.02, 17.115 28.05, 18.419999999999998 28.200000000000003 C 20.07 28.32, 20.099999999999998 28.335, 21.72 28.44 C 23.310000000000002 28.53, 23.46 28.575, 24.900000000000002 28.619999999999997 C 26.19 28.619999999999997, 26.37 28.65, 27.48 28.619999999999997 C 28.409999999999997 28.56, 28.679999999999996 28.544999999999998, 29.339999999999996 28.5 C 29.729999999999997 28.47, 29.714999999999996 28.545, 30.119999999999997 28.44 C 30.54 28.259999999999998, 30.54 28.334999999999997, 30.96 28.08 C 31.38 27.75, 31.364999999999995 27.84, 31.799999999999997 27.42 C 32.25 26.910000000000004, 32.325 26.910000000000004, 32.7 26.400000000000002 C 33 25.89, 33.045 25.950000000000003, 33.3 25.380000000000003 C 33.51 24.75, 33.56999999999999 24.854999999999997, 33.72 24.119999999999997 C 33.81 23.28, 33.93000000000001 23.745, 33.900000000000006 22.44 C 33.75 20.67, 33.839999999999996 20.549999999999997, 33.599999999999994 18.9 C 33.269999999999996 17.369999999999997, 33.495 17.79, 32.94 15.84 C 32.16 13.47, 31.995 12.990000000000002, 31.380000000000003 11.100000000000001 C 30.93 9.690000000000001, 30.9 9.45, 30.48 8.28 C 30.090000000000003 7.35, 30.000000000000004 7.05, 29.700000000000003 6.42 C 29.490000000000002 6.09, 29.445 6.1049999999999995, 29.28 5.76 C 29.16 5.4, 29.22 5.445, 29.04 5.04 C 28.799999999999997 4.59, 28.68 4.365, 28.56 4.14 C 28.56 4.14, 28.56 4.14, 28.56 4.14 L 28.56 4.14" fill="none" stroke="black" stroke-width="2"></path><path d="M 21.96 11.28 C 21.21 11.79, 21.21 11.474999999999998, 20.46 12.299999999999999 C 19.71 13.440000000000001, 19.560000000000002 13.290000000000001, 18.96 14.580000000000002 C 18.509999999999998 16.020000000000003, 18.314999999999998 15.915000000000003, 18.06 17.46 C 18 19.11, 17.76 19.409999999999997, 17.94 20.759999999999998 C 18.36 21.81, 18.270000000000003 22.125, 18.78 22.86 C 19.380000000000003 23.28, 19.065 23.415000000000003, 19.98 23.700000000000003 C 21.21 23.85, 21.465000000000003 23.97, 22.44 24 C 23.16 23.91, 23.265 24.21, 23.88 23.82 C 24.39 23.130000000000003, 24.465000000000003 23.25, 24.900000000000002 22.44 C 25.259999999999998 21.51, 25.334999999999997 21.57, 25.619999999999997 20.580000000000002 C 25.83 19.53, 25.935 19.545, 26.04 18.48 C 26.04 17.4, 26.04 17.535, 26.04 16.32 C 26.04 14.97, 26.13 14.46, 26.04 13.620000000000001 C 25.86 13.290000000000001, 26.07 13.41, 25.68 12.96 C 25.08 12.39, 25.065 12.24, 24.48 11.82 C 23.91 11.55, 23.82 11.445, 23.34 11.28 C 22.95 11.219999999999999, 22.904999999999998 11.19, 22.56 11.16 C 22.259999999999998 11.16, 22.305 11.16, 21.96 11.16 C 21.57 11.16, 21.375 11.16, 21.18 11.16 L 21.18 11.16" fill="none" stroke="black" stroke-width="2"></path><path d="M 17.1 18.78 C 17.43 18.87, 16.979999999999997 18.825000000000003, 17.759999999999998 18.96 C 18.99 19.14, 19.095 19.23, 20.22 19.32 C 21.24 19.32, 21.345 19.29, 22.259999999999998 19.32 C 23.07 19.380000000000003, 23.144999999999996 19.365000000000002, 23.88 19.44 C 24.54 19.53, 24.87 19.575000000000003, 25.200000000000003 19.62 C 25.200000000000003 19.62, 25.110000000000003 19.575000000000003, 25.200000000000003 19.62 C 25.380000000000003 19.71, 25.365 19.755, 25.56 19.799999999999997 C 25.77 19.799999999999997, 25.875 19.799999999999997, 25.98 19.799999999999997 L 25.98 19.799999999999997" fill="none" stroke="black" stroke-width="2"></path><path d="M 24.42 29.099999999999998 C 24.330000000000002 30.39, 24.360000000000003 30.495, 24.240000000000002 31.68 C 24.090000000000003 32.76, 24.075000000000003 32.61, 23.94 33.839999999999996 C 23.82 35.22, 23.76 35.36999999999999, 23.700000000000003 36.599999999999994 C 23.700000000000003 37.67999999999999, 23.745000000000005 37.69499999999999, 23.700000000000003 38.76 C 23.61 39.81, 23.565 40.019999999999996, 23.52 40.86 C 23.52 41.489999999999995, 23.52 41.44499999999999, 23.52 42.12 C 23.52 42.84, 23.52 42.93, 23.52 43.56 C 23.52 44.1, 23.52 44.265, 23.52 44.64 C 23.52 44.85, 23.52 44.955, 23.52 45.06 C 23.52 45.06, 23.52 45.015, 23.52 45.06 C 23.52 45.150000000000006, 23.52 45.120000000000005, 23.52 45.24 C 23.52 45.39, 23.52 45.465, 23.52 45.54 C 23.52 45.54, 23.52 45.54, 23.52 45.54 C 23.52 45.54, 23.52 45.54, 23.52 45.54 L 23.52 45.54" fill="none" stroke="black" stroke-width="2"></path></svg>