<svg width="48" height="48" viewBox="0 0 48 48" xmlns="http://www.w3.org/2000/svg"><path d="M 13.379999999999999 30.299999999999997 C 14.28 30.299999999999997, 14.16 30.299999999999997, 15.18 30.299999999999997 C 16.32 30.299999999999997, 16.35 30.299999999999997, 17.46 30.299999999999997 C 18.54 30.299999999999997, 18.525000000000002 30.299999999999997, 19.62 30.299999999999997 C 20.73 30.299999999999997, 20.85 30.269999999999996, 21.84 30.299999999999997 C 22.71 30.36, 22.635 30.39, 23.580000000000002 30.42 C 24.6 30.42, 24.599999999999998 30.42, 25.619999999999997 30.42 C 26.64 30.42, 26.910000000000004 30.465000000000003, 27.660000000000004 30.42 C 28.14 30.330000000000002, 28.14 30.525000000000002, 28.619999999999997 30.240000000000002 C 29.099999999999998 29.76, 29.249999999999996 29.685000000000002, 29.58 29.28 C 29.759999999999998 28.95, 29.82 29.22, 29.94 28.619999999999997 C 30 27.75, 30.03 27.855000000000004, 30.06 26.880000000000003 C 30.06 25.8, 30.119999999999997 25.8, 30.06 24.72 C 29.939999999999998 23.64, 30.03 24.075, 29.82 22.56 C 29.52 20.61, 29.52 20.595, 29.22 18.66 C 28.919999999999998 16.740000000000002, 28.904999999999998 16.545, 28.619999999999997 14.82 C 28.349999999999998 13.29, 28.334999999999997 13.08, 28.08 11.76 C 27.839999999999996 10.65, 27.824999999999996 10.41, 27.599999999999998 9.540000000000001 C 27.39 8.91, 27.33 8.76, 27.18 8.28 C 27.09 7.949999999999999, 27.165 8.025, 27 7.62 C 26.759999999999998 7.140000000000001, 26.685000000000002 7.065, 26.52 6.66 C 26.43 6.33, 26.384999999999998 6.165, 26.339999999999996 6 C 26.339999999999996 6, 26.339999999999996 6, 26.339999999999996 6 L 26.339999999999996 6" fill="none" stroke="black" stroke-width="2"></path><path d="M 18.96 12.72 C 17.91 14.489999999999998, 17.58 14.849999999999998, 16.86 16.259999999999998 C 16.47 17.31, 16.305 17.325, 16.080000000000002 18.36 C 16.020000000000003 19.38, 15.765 19.455, 15.96 20.4 C 16.41 21.27, 16.215 21.435000000000002, 16.86 22.14 C 17.7 22.68, 17.924999999999997 22.905, 18.54 23.22 C 18.93 23.31, 18.735 23.354999999999997, 19.32 23.4 C 20.1 23.4, 20.159999999999997 23.564999999999998, 20.88 23.4 C 21.54 23.07, 21.570000000000004 23.295, 22.200000000000003 22.740000000000002 C 22.8 21.96, 23.04 21.84, 23.4 21.18 C 23.52 20.64, 23.535 20.685000000000002, 23.64 20.1 C 23.73 19.47, 23.775 19.560000000000002, 23.82 18.84 C 23.82 18.03, 24 18.029999999999998, 23.82 17.22 C 23.46 16.41, 23.535 16.245, 23.1 15.600000000000001 C 22.590000000000003 15.120000000000001, 22.470000000000002 14.985000000000001, 22.080000000000002 14.64 C 21.810000000000002 14.43, 21.96 14.490000000000002, 21.54 14.22 C 20.97 13.89, 20.88 13.77, 20.4 13.559999999999999 C 20.009999999999998 13.469999999999999, 20.085 13.454999999999998, 19.62 13.379999999999999 C 19.08 13.32, 18.855 13.29, 18.54 13.26 C 18.45 13.26, 18.42 13.26, 18.36 13.26 L 18.299999999999997 13.26" fill="none" stroke="black" stroke-width="2"></path><path d="M 15.36 20.28 C 15.99 20.28, 15.81 20.28, 16.62 20.28 C 17.61 20.28, 17.64 20.28, 18.6 20.28 C 19.53 20.28, 19.53 20.295, 20.46 20.28 C 21.39 20.25, 21.585 20.28, 22.32 20.22 C 22.86 20.13, 23.055 20.085, 23.4 20.04 L 23.700000000000003 20.04" fill="none" stroke="black" stroke-width="2"></path><path d="M 20.580000000000002 29.82 C 20.340000000000003 30.54, 20.430000000000003 30.509999999999998, 20.1 31.259999999999998 C 19.68 32.04, 19.77 31.965, 19.259999999999998 32.82 C 18.659999999999997 33.75, 18.884999999999998 33.525, 18.06 34.68 C 17.009999999999998 36.06, 16.875 36.464999999999996, 15.96 37.44 C 15.18 38.01, 14.864999999999998 38.265, 14.399999999999999 38.58 C 14.25 38.64, 14.43 38.535000000000004, 14.100000000000001 38.7 L 13.080000000000002 39.24" fill="none" stroke="black" stroke-width="2"></path><path d="M 26.400000000000002 34.92 C 25.98 35.97, 25.95 36.089999999999996, 25.56 37.019999999999996 C 25.199999999999996 37.83, 25.649999999999995 37.59, 24.839999999999996 38.64 C 23.58 39.93, 23.775 39.975, 22.32 41.22 C 20.67 42.42, 20.235 42.75, 19.02 43.62 C 18.240000000000002 44.16, 17.97 44.370000000000005, 17.46 44.7 L 16.98 44.94" fill="none" stroke="black" stroke-width="2"></path></svg>