<svg width="48" height="48" viewBox="0 0 48 48" xmlns="http://www.w3.org/2000/svg"><path d="M 13.32 23.700000000000003 C 14.37 23.79, 13.77 23.73, 15.419999999999998 23.88 C 17.669999999999998 24.089999999999996, 18.18 24.194999999999997, 19.919999999999998 24.299999999999997 C 21.15 24.299999999999997, 21 24.299999999999997, 22.38 24.299999999999997 C 23.91 24.299999999999997, 24.21 24.374999999999996, 25.44 24.299999999999997 C 26.369999999999997 24.15, 26.415 24.18, 27.299999999999997 24 C 28.14 23.79, 28.2 23.805, 28.98 23.580000000000002 C 29.700000000000003 23.340000000000003, 29.73 23.430000000000003, 30.42 23.1 C 31.080000000000002 22.68, 31.200000000000003 22.724999999999998, 31.740000000000002 22.259999999999998 C 32.16 21.75, 32.129999999999995 21.78, 32.58 21.240000000000002 C 33.06 20.67, 33.15 20.85, 33.54 20.1 C 33.84 19.17, 33.975 19.575000000000003, 34.14 18.240000000000002 C 34.17 16.5, 34.185 16.5, 34.2 14.76 C 34.2 13.02, 34.470000000000006 13.215, 34.2 11.28 C 33.66 9.149999999999999, 33.614999999999995 8.61, 33.12 7.02 C 32.67 5.97, 32.565 5.699999999999999, 32.22 4.92 C 31.98 4.41, 31.86 4.155, 31.740000000000002 3.9000000000000004 C 31.740000000000002 3.9000000000000004, 31.800000000000004 4.035, 31.740000000000002 3.9000000000000004 C 31.62 3.6300000000000003, 31.62 3.615, 31.5 3.3600000000000003 C 31.38 3.12, 31.349999999999998 3.045, 31.259999999999998 2.88 L 31.14 2.7" fill="none" stroke="black" stroke-width="2"></path><path d="M 21.72 7.86 C 20.61 8.16, 20.415 7.949999999999999, 19.5 8.459999999999999 C 18.78 9.18, 18.54 9.059999999999999, 18.06 9.899999999999999 C 17.82 10.86, 17.61 10.86, 17.580000000000002 11.82 C 17.76 12.780000000000001, 17.37 12.9, 17.94 13.74 C 18.9 14.46, 18.945 14.594999999999999, 19.86 15.18 C 20.73 15.63, 20.700000000000003 15.675000000000002, 21.6 16.080000000000002 C 22.53 16.439999999999998, 22.605 16.619999999999997, 23.46 16.799999999999997 C 24.240000000000002 16.799999999999997, 24.314999999999998 16.979999999999997, 25.02 16.799999999999997 C 25.65 16.439999999999998, 25.785 16.515, 26.28 16.080000000000002 C 26.64 15.57, 26.715 15.555, 27 15.059999999999999 C 27.21 14.58, 27.285000000000004 14.610000000000001, 27.42 14.100000000000001 C 27.48 13.56, 27.6 13.65, 27.54 13.02 C 27.36 12.3, 27.435 12.195, 27.18 11.58 C 26.85 11.07, 26.82 10.98, 26.52 10.56 C 26.25 10.23, 26.400000000000002 10.29, 25.98 9.899999999999999 C 25.409999999999997 9.45, 25.409999999999997 9.344999999999999, 24.839999999999996 9 C 24.27 8.76, 24.195 8.745, 23.700000000000003 8.52 C 23.28 8.31, 23.265 8.205000000000002, 22.86 8.100000000000001 C 22.47 8.100000000000001, 22.62 8.100000000000001, 22.080000000000002 8.100000000000001 C 21.39 8.100000000000001, 21.120000000000005 8.100000000000001, 20.700000000000003 8.100000000000001 C 20.55 8.100000000000001, 20.475 8.100000000000001, 20.4 8.100000000000001 L 20.4 8.100000000000001" fill="none" stroke="black" stroke-width="2"></path><path d="M 17.46 13.26 C 17.61 13.350000000000001, 17.084999999999997 13.440000000000001, 17.759999999999998 13.440000000000001 C 18.96 13.350000000000001, 18.915 13.469999999999999, 20.16 13.26 C 21.450000000000003 12.93, 21.555 12.840000000000002, 22.740000000000002 12.600000000000001 C 23.82 12.45, 24.135000000000005 12.375, 24.900000000000002 12.299999999999999 C 25.35 12.299999999999999, 25.319999999999997 12.299999999999999, 25.799999999999997 12.299999999999999 C 26.31 12.299999999999999, 26.490000000000002 12.299999999999999, 26.82 12.299999999999999 C 26.97 12.299999999999999, 27.044999999999998 12.299999999999999, 27.119999999999997 12.299999999999999 L 27.119999999999997 12.299999999999999" fill="none" stroke="black" stroke-width="2"></path><path d="M 20.46 24.660000000000004 C 20.64 25.35, 20.43 25.425, 20.82 26.04 C 21.42 26.58, 21.36 26.624999999999996, 22.02 27.119999999999997 C 22.740000000000002 27.57, 22.545 27.57, 23.46 28.02 C 24.57 28.47, 24.54 28.575000000000003, 25.68 28.92 C 26.85 29.160000000000004, 27.045 29.235000000000003, 28.02 29.400000000000002 C 28.799999999999997 29.490000000000002, 28.994999999999997 29.474999999999998, 29.58 29.58 C 29.97 29.7, 30.029999999999998 29.7, 30.36 29.82 C 30.630000000000003 29.939999999999998, 30.735000000000003 29.955, 30.900000000000002 30.06 C 30.96 30.15, 30.945 30.150000000000002, 31.02 30.240000000000002 C 31.11 30.330000000000002, 31.080000000000002 30.285000000000004, 31.200000000000003 30.42 C 31.35 30.6, 31.47 30.615000000000002, 31.5 30.78 C 31.41 30.93, 31.65 30.884999999999998, 31.32 31.08 C 30.75 31.32, 30.93 31.349999999999998, 30.18 31.56 C 29.25 31.740000000000002, 29.564999999999998 31.665000000000003, 28.32 31.92 C 26.76 32.25, 26.580000000000005 32.114999999999995, 25.200000000000003 32.58 C 24 33.18, 23.79 33.18, 22.799999999999997 33.78 C 22.02 34.38, 22.020000000000003 34.185, 21.240000000000002 34.980000000000004 C 20.46 35.97, 20.325 36, 19.68 36.96 C 19.17 37.89, 19.095 37.875, 18.66 38.82 C 18.3 39.78, 18.21 39.735, 17.94 40.74 C 17.76 41.79, 17.67 42.12, 17.580000000000002 42.839999999999996 C 17.580000000000002 43.23, 17.580000000000002 43.394999999999996, 17.580000000000002 43.62 C 17.580000000000002 43.68, 17.580000000000002 43.71, 17.580000000000002 43.74 L 17.580000000000002 43.74" fill="none" stroke="black" stroke-width="2"></path></svg>