<svg width="48" height="48" viewBox="0 0 48 48" xmlns="http://www.w3.org/2000/svg"><path d="M 15.600000000000001 15.059999999999999 C 16.62 15.059999999999999, 16.365000000000002 15.059999999999999, 17.64 15.059999999999999 C 19.17 15.059999999999999, 19.320000000000004 15.059999999999999, 20.700000000000003 15.059999999999999 C 21.93 15.059999999999999, 22.185000000000002 15.059999999999999, 23.16 15.059999999999999 C 23.88 15.059999999999999, 23.849999999999998 15.059999999999999, 24.599999999999998 15.059999999999999 C 25.380000000000003 15.059999999999999, 25.560000000000002 14.985, 26.160000000000004 15.059999999999999 C 26.580000000000002 15.209999999999999, 26.625 15.194999999999999, 27 15.36 C 27.330000000000002 15.54, 27.330000000000005 15.51, 27.660000000000004 15.72 C 27.990000000000002 15.96, 27.945 15.915000000000003, 28.32 16.200000000000003 C 28.740000000000002 16.53, 28.740000000000002 16.395, 29.160000000000004 16.86 C 29.580000000000002 17.46, 29.655 17.384999999999998, 30 18.06 C 30.27 18.81, 30.314999999999998 18.659999999999997, 30.54 19.56 C 30.72 20.61, 30.765 20.475, 30.900000000000002 21.66 C 30.990000000000002 22.979999999999997, 31.035 22.949999999999996, 31.08 24.299999999999997 C 31.08 25.68, 31.08 25.32, 31.08 27.06 C 31.08 29.159999999999997, 31.08 29.369999999999997, 31.08 31.259999999999998 C 31.08 32.94, 31.124999999999996 33.224999999999994, 31.08 34.62 C 30.990000000000002 35.73, 31.005000000000003 35.42999999999999, 30.900000000000002 36.839999999999996 C 30.78 38.55, 30.720000000000002 39, 30.660000000000004 40.26 C 30.660000000000004 41.07, 30.660000000000004 41.34, 30.660000000000004 41.88 C 30.660000000000004 42.150000000000006, 30.660000000000004 42.285000000000004, 30.660000000000004 42.42 C 30.660000000000004 42.42, 30.660000000000004 42.42, 30.660000000000004 42.42 C 30.660000000000004 42.42, 30.660000000000004 42.42, 30.660000000000004 42.42 L 30.660000000000004 42.42" fill="none" stroke="black" stroke-width="2"></path><path d="M 21.299999999999997 2.0999999999999996 C 20.369999999999997 2.73, 20.28 2.4600000000000004, 19.44 3.3600000000000003 C 18.69 4.529999999999999, 18.360000000000003 4.664999999999999, 17.94 5.699999999999999 C 17.85 6.6, 17.744999999999997 6.51, 17.759999999999998 7.5 C 17.88 8.58, 17.505 8.775, 18 9.66 C 18.87 10.350000000000001, 18.675000000000004 10.575000000000001, 19.740000000000002 11.040000000000001 C 21 11.280000000000001, 21.269999999999996 11.355, 22.259999999999998 11.52 C 22.98 11.61, 22.845000000000002 11.76, 23.700000000000003 11.7 C 24.69 11.489999999999998, 24.93 11.745, 25.68 11.28 C 26.19 10.559999999999999, 26.325000000000003 10.77, 26.700000000000003 9.84 C 26.94 8.7, 27.015 8.64, 27.18 7.5600000000000005 C 27.27 6.540000000000001, 27.45 6.33, 27.36 5.5200000000000005 C 27.09 4.92, 27.285 4.98, 26.82 4.32 C 26.16 3.6, 26.16 3.42, 25.5 2.88 C 24.84 2.52, 24.93 2.37, 24.18 2.16 C 23.34 2.1, 23.175 2.055, 22.5 2.04 C 21.990000000000002 2.07, 22.035 1.9349999999999996, 21.48 2.0999999999999996 C 20.880000000000003 2.4, 20.625 2.52, 20.28 2.7 L 20.1 2.82" fill="none" stroke="black" stroke-width="2"></path><path d="M 17.700000000000003 5.04 C 17.85 5.3100000000000005, 17.46 5.385, 18 5.58 C 18.93 5.7, 18.57 5.7, 19.86 5.82 C 21.509999999999998 5.94, 21.884999999999998 5.8950000000000005, 23.16 6.0600000000000005 C 24.060000000000002 6.2700000000000005, 24.315 6.33, 24.96 6.48 C 25.35 6.57, 25.335 6.540000000000001, 25.740000000000002 6.66 C 26.16 6.81, 26.294999999999998 6.869999999999999, 26.58 6.959999999999999 C 26.73 6.989999999999999, 26.76 6.975, 26.880000000000003 7.02 L 27.06 7.14" fill="none" stroke="black" stroke-width="2"></path><path d="M 21.9 23.16 C 20.939999999999998 23.310000000000002, 20.79 23.085, 19.98 23.46 C 19.32 24.060000000000002, 19.275 23.910000000000004, 18.66 24.660000000000004 C 18.09 25.560000000000002, 17.82 25.575000000000003, 17.52 26.46 C 17.490000000000002 27.330000000000002, 17.355 27.195000000000004, 17.46 28.200000000000003 C 17.700000000000003 29.340000000000003, 17.43 29.355, 17.94 30.48 C 18.72 31.590000000000003, 18.75 31.845000000000002, 19.5 32.7 C 20.22 33.300000000000004, 20.04 33.480000000000004, 20.94 33.900000000000006 C 22.020000000000003 34.14, 22.05 34.245000000000005, 23.1 34.38 C 24.12 34.41, 24.405 34.53, 25.14 34.44 C 25.59 34.23, 25.634999999999998 34.455, 26.04 34.019999999999996 C 26.4 33.36, 26.534999999999997 33.480000000000004, 26.759999999999998 32.7 C 26.85 31.800000000000004, 26.925 31.845000000000002, 26.94 30.900000000000002 C 26.880000000000003 29.910000000000004, 26.970000000000002 29.835, 26.82 28.92 C 26.58 28.080000000000002, 26.564999999999998 27.87, 26.339999999999996 27.240000000000002 C 26.13 26.82, 26.19 26.865000000000002, 25.92 26.400000000000002 C 25.59 25.89, 25.724999999999998 25.770000000000003, 25.259999999999998 25.380000000000003 C 24.659999999999997 25.11, 24.555 25.08, 24.06 24.839999999999996 C 23.67 24.63, 23.76 24.630000000000003, 23.28 24.42 C 22.71 24.21, 22.635 24.105, 22.14 24 C 21.72 24, 21.944999999999997 24, 21.299999999999997 24 C 20.43 24, 19.994999999999997 24, 19.56 24 L 19.56 24" fill="none" stroke="black" stroke-width="2"></path><path d="M 17.4 28.619999999999997 C 17.55 28.709999999999997, 16.650000000000002 28.814999999999998, 17.700000000000003 28.799999999999997 C 19.650000000000002 28.68, 20.265 28.665, 21.6 28.56 C 22.32 28.47, 22.215 28.425, 23.04 28.380000000000003 C 23.97 28.380000000000003, 24.075000000000003 28.365000000000002, 24.900000000000002 28.380000000000003 C 25.619999999999997 28.410000000000004, 25.874999999999996 28.425, 26.339999999999996 28.44 C 26.549999999999997 28.44, 26.654999999999998 28.44, 26.759999999999998 28.44 C 26.759999999999998 28.44, 26.759999999999998 28.44, 26.759999999999998 28.44 L 26.759999999999998 28.44" fill="none" stroke="black" stroke-width="2"></path></svg>