<svg width="48" height="48" viewBox="0 0 48 48" xmlns="http://www.w3.org/2000/svg"><path d="M 15.66 12.84 C 16.950000000000003 12.87, 17.115000000000002 12.884999999999998, 18.240000000000002 12.899999999999999 C 19.200000000000003 12.899999999999999, 19.11 12.899999999999999, 20.16 12.899999999999999 C 21.3 12.899999999999999, 21.105 12.989999999999998, 22.44 12.899999999999999 C 23.97 12.719999999999999, 24.240000000000002 12.629999999999999, 25.5 12.54 C 26.490000000000002 12.54, 26.625 12.54, 27.48 12.54 C 28.200000000000003 12.54, 28.365000000000002 12.479999999999999, 28.92 12.54 C 29.310000000000002 12.66, 29.295 12.57, 29.700000000000003 12.78 C 30.12 13.079999999999998, 30.21 12.989999999999998, 30.54 13.379999999999999 C 30.78 13.86, 30.794999999999998 13.815, 31.02 14.34 C 31.23 14.91, 31.335 14.805, 31.44 15.48 C 31.44 16.259999999999998, 31.44 16.215, 31.44 17.04 C 31.44 17.91, 31.44 17.67, 31.44 18.78 C 31.44 20.130000000000003, 31.44 20.55, 31.44 21.48 C 31.44 21.990000000000002, 31.44 22.2, 31.44 22.5 C 31.44 22.59, 31.470000000000002 22.605, 31.44 22.68 L 31.32 22.799999999999997" fill="none" stroke="black" stroke-width="2"></path><path d="M 23.04 1.2000000000000002 C 22.439999999999998 1.2000000000000002, 22.605 0.9300000000000002, 21.84 1.2000000000000002 C 20.91 1.7400000000000002, 20.76 1.5600000000000003, 19.98 2.2800000000000002 C 19.35 3.18, 19.185 3.075, 18.72 4.08 C 18.42 5.19, 18.27 5.340000000000001, 18.12 6.300000000000001 C 18.12 7.11, 17.85 6.945, 18.12 7.92 C 18.660000000000004 9.059999999999999, 18.630000000000003 9.389999999999999, 19.200000000000003 10.2 C 19.8 10.68, 19.5 10.725, 20.4 11.16 C 21.599999999999998 11.55, 21.525 11.774999999999999, 22.799999999999997 11.94 C 24.15 11.879999999999999, 24.494999999999997 12.09, 25.5 11.82 C 26.16 11.34, 26.295 11.34, 26.82 10.86 C 27.21 10.379999999999999, 27.209999999999997 10.499999999999998, 27.599999999999998 9.899999999999999 C 27.990000000000002 9.18, 28.125000000000004 9.209999999999999, 28.380000000000003 8.459999999999999 C 28.5 7.68, 28.589999999999996 7.859999999999999, 28.619999999999997 6.8999999999999995 C 28.56 5.76, 28.68 5.5649999999999995, 28.5 4.62 C 28.200000000000003 3.87, 28.35 3.795, 27.900000000000002 3.12 C 27.300000000000004 2.52, 27.240000000000002 2.325, 26.700000000000003 1.92 C 26.220000000000002 1.71, 26.325000000000003 1.65, 25.740000000000002 1.5 C 25.05 1.4100000000000001, 24.9 1.395, 24.36 1.32 C 23.97 1.2600000000000002, 24.135 1.2300000000000002, 23.580000000000002 1.2000000000000002 C 22.86 1.2000000000000002, 22.740000000000002 1.1550000000000002, 22.14 1.2000000000000002 L 21.18 1.3800000000000001" fill="none" stroke="black" stroke-width="2"></path><path d="M 21.06 6.0600000000000005 C 22.53 6.0600000000000005, 22.935 6.0600000000000005, 24 6.0600000000000005 C 24.66 6.0600000000000005, 24.645 6.0600000000000005, 25.32 6.0600000000000005 C 26.01 6.0600000000000005, 26.235000000000003 6.0600000000000005, 26.700000000000003 6.0600000000000005 C 26.94 6.0600000000000005, 27.03 6.0600000000000005, 27.18 6.0600000000000005 C 27.24 6.0600000000000005, 27.194999999999997 6.0600000000000005, 27.299999999999997 6.0600000000000005 C 27.449999999999996 6.0600000000000005, 27.449999999999996 6.0600000000000005, 27.599999999999998 6.0600000000000005 C 27.75 6.0600000000000005, 27.825000000000003 6.0600000000000005, 27.900000000000002 6.0600000000000005 C 27.900000000000002 6.0600000000000005, 27.78 6.015000000000001, 27.900000000000002 6.0600000000000005 C 28.14 6.15, 28.215000000000003 6.18, 28.380000000000003 6.24 C 28.47 6.2700000000000005, 28.515 6.285, 28.56 6.300000000000001 L 28.56 6.300000000000001" fill="none" stroke="black" stroke-width="2"></path><path d="M 22.68 5.4 C 22.2 5.4, 22.229999999999997 5.4, 21.72 5.4 C 21.18 5.4, 20.985 5.4, 20.64 5.4 C 20.490000000000002 5.4, 20.46 5.4, 20.34 5.4 C 20.25 5.4, 20.235 5.4, 20.16 5.4 C 20.1 5.4, 20.189999999999998 5.4, 20.04 5.4 C 19.799999999999997 5.4, 19.68 5.4, 19.56 5.4 C 19.56 5.4, 19.634999999999998 5.4, 19.56 5.4 C 19.409999999999997 5.4, 19.334999999999997 5.4, 19.259999999999998 5.4 L 19.259999999999998 5.4" fill="none" stroke="black" stroke-width="2"></path><path d="M 20.4 12 C 20.55 12.209999999999999, 20.625 12.014999999999997, 20.700000000000003 12.419999999999998 C 20.700000000000003 13.02, 20.655000000000005 12.39, 20.700000000000003 13.620000000000001 C 20.79 15.48, 20.835 15.315000000000001, 20.88 17.34 C 20.88 19.53, 20.775 19.709999999999997, 20.88 21.72 C 21.089999999999996 23.55, 21.15 23.655, 21.299999999999997 25.380000000000003 C 21.39 27, 21.435 26.775, 21.48 28.619999999999997 C 21.48 30.689999999999998, 21.48 30.809999999999995, 21.48 32.76 C 21.48 34.59, 21.48 34.455, 21.48 36.42 C 21.48 38.519999999999996, 21.48 38.849999999999994, 21.48 40.62 C 21.48 42.06, 21.48 42.18, 21.48 43.5 C 21.48 44.7, 21.48 44.88000000000001, 21.48 45.900000000000006 C 21.48 46.74, 21.48 47.16, 21.48 47.58 C 21.48 47.58, 21.48 47.58, 21.48 47.58 L 21.48 47.58" fill="none" stroke="black" stroke-width="2"></path><path d="M 26.22 14.580000000000002 C 26.22 17.4, 26.159999999999997 17.415, 26.22 20.22 C 26.34 23.009999999999998, 26.355 23.249999999999996, 26.46 25.799999999999997 C 26.55 28.11, 26.535 28.515, 26.64 30.42 C 26.76 31.92, 26.775000000000002 31.725, 26.880000000000003 33.42 C 26.97 35.31, 26.97 35.58, 27.06 37.2 C 27.15 38.550000000000004, 27.195 38.685, 27.240000000000002 39.900000000000006 C 27.240000000000002 40.980000000000004, 27.240000000000002 41.08500000000001, 27.240000000000002 42.06 C 27.240000000000002 42.93, 27.240000000000002 43.095, 27.240000000000002 43.8 C 27.240000000000002 44.34, 27.240000000000002 44.49, 27.240000000000002 44.88 C 27.240000000000002 45.120000000000005, 27.240000000000002 45.045, 27.240000000000002 45.36 C 27.240000000000002 45.75, 27.240000000000002 45.945, 27.240000000000002 46.14 C 27.240000000000002 46.14, 27.240000000000002 46.14, 27.240000000000002 46.14 C 27.240000000000002 46.14, 27.240000000000002 46.14, 27.240000000000002 46.14 L 27.240000000000002 46.14" fill="none" stroke="black" stroke-width="2"></path><path d="M 26.400000000000002 16.14 C 26.400000000000002 15.6, 26.370000000000005 15.629999999999999, 26.400000000000002 15.059999999999999 C 26.46 14.459999999999999, 26.490000000000002 14.354999999999999, 26.52 13.86 C 26.52 13.47, 26.52 13.395000000000001, 26.52 13.080000000000002 C 26.52 12.840000000000002, 26.52 12.825000000000003, 26.52 12.600000000000001 C 26.52 12.39, 26.52 12.285, 26.52 12.18 L 26.52 12.18" fill="none" stroke="black" stroke-width="2"></path></svg>