<svg width="48" height="48" viewBox="0 0 48 48" xmlns="http://www.w3.org/2000/svg"><path d="M 11.82 30.36 C 11.190000000000001 27.630000000000003, 10.875 27.375, 10.56 24.900000000000002 C 10.56 22.68, 10.545 22.14, 10.56 20.46 C 10.59 19.32, 10.395000000000001 19.08, 10.620000000000001 18.18 C 11.04 17.52, 11.055 17.31, 11.459999999999999 16.86 C 11.85 16.619999999999997, 11.834999999999999 16.515, 12.24 16.38 C 12.66 16.35, 12.735000000000001 16.215, 13.080000000000002 16.32 C 13.350000000000001 16.56, 13.305000000000001 16.379999999999995, 13.620000000000001 16.799999999999997 C 13.98 17.4, 13.965 17.189999999999998, 14.34 18 C 14.73 19.02, 14.73 18.96, 15.120000000000001 20.04 C 15.51 21.18, 15.584999999999999 21.465, 15.899999999999999 22.32 C 16.14 22.89, 16.229999999999997 23.16, 16.38 23.46 C 16.439999999999998 23.490000000000002, 16.35 23.91, 16.5 23.52 C 16.740000000000002 22.71, 16.785 22.755, 16.98 21.9 C 17.130000000000003 21, 17.07 20.925, 17.28 20.1 C 17.55 19.35, 17.355 19.200000000000003, 17.82 18.6 C 18.48 18.150000000000002, 18.495 18.015000000000004, 19.14 17.700000000000003 C 19.77 17.520000000000003, 19.575 17.52, 20.4 17.34 C 21.42 17.16, 21.57 17.055, 22.44 16.98 C 23.16 17.009999999999998, 23.205 17.009999999999998, 23.88 17.04 C 24.509999999999998 17.07, 24.75 17.04, 25.14 17.1 C 25.29 17.19, 25.155 17.085, 25.44 17.28 C 25.86 17.58, 25.830000000000002 17.325, 26.28 17.88 C 26.76 18.689999999999998, 26.865000000000002 18.375, 27.240000000000002 19.5 C 27.51 20.939999999999998, 27.6 21.119999999999997, 27.78 22.38 C 27.87 23.46, 27.915 23.61, 27.96 24.54 C 27.96 25.32, 27.96 25.349999999999998, 27.96 26.099999999999998 C 27.96 26.82, 27.96 26.849999999999998, 27.96 27.54 C 27.96 28.2, 27.96 28.41, 27.96 28.86 C 27.96 29.099999999999998, 27.96 29.069999999999997, 27.96 29.339999999999996 L 27.96 29.94" fill="none" stroke="black" stroke-width="2"></path><path d="M 16.68 3.7199999999999998 C 15.690000000000001 4.529999999999999, 15.735000000000001 4.095, 14.700000000000001 5.34 C 13.620000000000001 7.02, 13.094999999999999 7.319999999999999, 12.54 8.7 C 12.51 9.78, 12.254999999999999 9.674999999999999, 12.48 10.86 C 12.96 12.15, 12.780000000000001 12.39, 13.440000000000001 13.440000000000001 C 14.280000000000001 14.25, 13.635000000000002 14.459999999999999, 15.120000000000001 15.059999999999999 C 17.25 15.45, 17.924999999999997 15.825, 19.38 15.84 C 20.16 15.48, 20.25 15.63, 20.94 15.120000000000001 C 21.54 14.46, 21.69 14.715, 22.14 13.799999999999999 C 22.44 12.629999999999999, 22.590000000000003 12.69, 22.740000000000002 11.459999999999999 C 22.740000000000002 10.169999999999998, 22.905 10.155, 22.740000000000002 8.879999999999999 C 22.410000000000004 7.619999999999999, 22.425000000000004 7.275, 22.080000000000002 6.36 C 21.72 5.79, 21.96 5.79, 21.36 5.22 C 20.52 4.65, 20.325 4.41, 19.68 4.08 C 19.23 3.99, 19.35 3.8850000000000007, 18.78 3.9000000000000004 C 18.09 4.02, 17.835 4.005, 17.4 4.14 C 17.22 4.289999999999999, 17.189999999999998 4.2749999999999995, 17.04 4.4399999999999995 L 16.799999999999997 4.800000000000001" fill="none" stroke="black" stroke-width="2"></path><path d="M 13.200000000000001 9.66 C 14.04 9.84, 13.905 9.885, 14.879999999999999 10.02 C 15.99 10.11, 15.840000000000002 10.155, 17.1 10.2 C 18.509999999999998 10.2, 18.854999999999997 10.2, 19.919999999999998 10.2 C 20.64 10.2, 20.835 10.169999999999998, 21.36 10.2 C 21.689999999999998 10.26, 21.825 10.275, 22.02 10.32 C 22.08 10.35, 22.065 10.364999999999998, 22.14 10.379999999999999 L 22.32 10.379999999999999" fill="none" stroke="black" stroke-width="2"></path><path d="M 22.080000000000002 17.82 C 22.080000000000002 19.17, 22.080000000000002 19.41, 22.080000000000002 20.52 C 22.080000000000002 21.39, 22.080000000000002 21.24, 22.080000000000002 22.259999999999998 C 22.080000000000002 23.43, 22.080000000000002 23.22, 22.080000000000002 24.599999999999998 C 22.080000000000002 26.189999999999998, 22.080000000000002 26.055, 22.080000000000002 27.78 C 22.080000000000002 29.64, 22.095000000000002 29.535, 22.080000000000002 31.5 C 22.05 33.57, 22.035 33.84, 22.02 35.64 C 22.02 37.17, 22.02 37.425000000000004, 22.02 38.7 C 22.02 39.72, 22.02 39.72, 22.02 40.74 C 22.02 41.760000000000005, 22.064999999999998 41.835, 22.02 42.78 C 21.93 43.65, 21.915 43.739999999999995, 21.84 44.519999999999996 C 21.78 45.21, 21.75 45.480000000000004, 21.72 45.900000000000006 C 21.72 46.050000000000004, 21.72 45.97500000000001, 21.72 46.2 C 21.72 46.5, 21.72 46.65, 21.72 46.8 C 21.72 46.8, 21.72 46.8, 21.72 46.8 L 21.72 46.8" fill="none" stroke="black" stroke-width="2"></path></svg>