<svg width="48" height="48" viewBox="0 0 48 48" xmlns="http://www.w3.org/2000/svg"><path d="M 13.379999999999999 20.28 C 13.17 18.51, 13.125 18.360000000000003, 12.96 16.740000000000002 C 12.84 15.27, 12.855 15.03, 12.72 13.799999999999999 C 12.57 12.809999999999999, 12.495 12.42, 12.419999999999998 11.82 C 12.419999999999998 11.61, 12.419999999999998 11.504999999999999, 12.419999999999998 11.399999999999999 C 12.419999999999998 11.399999999999999, 12.419999999999998 11.399999999999999, 12.419999999999998 11.399999999999999 C 12.419999999999998 11.399999999999999, 12.419999999999998 11.399999999999999, 12.419999999999998 11.399999999999999 L 12.419999999999998 11.399999999999999" fill="none" stroke="black" stroke-width="2"></path><path d="M 12.600000000000001 11.16 C 13.110000000000001 11.16, 12.705000000000002 11.235, 13.620000000000001 11.16 C 14.94 11.01, 14.729999999999997 11.055, 16.259999999999998 10.86 C 18 10.62, 17.775000000000002 10.665, 19.740000000000002 10.379999999999999 C 21.93 10.05, 22.47 9.93, 24.119999999999997 9.72 C 25.229999999999997 9.63, 24.944999999999993 9.585, 26.339999999999996 9.540000000000001 C 28.02 9.540000000000001, 28.5 9.540000000000001, 29.700000000000003 9.540000000000001 C 30.42 9.540000000000001, 30.615000000000002 9.495000000000001, 31.14 9.540000000000001 C 31.47 9.63, 31.47 9.495000000000001, 31.799999999999997 9.72 C 32.129999999999995 10.08, 32.144999999999996 9.915, 32.46 10.44 C 32.760000000000005 11.129999999999999, 32.865 10.965, 33.06 11.82 C 33.150000000000006 12.84, 33.435 12.3, 33.24 13.86 C 32.760000000000005 15.959999999999999, 32.88 16.08, 32.28 18.06 C 31.56 19.92, 32.025 19.125, 30.839999999999996 21.78 C 29.189999999999998 25.23, 29.04 25.634999999999998, 27.54 28.68 C 26.189999999999998 31.32, 26.114999999999995 31.425, 24.839999999999996 33.96 C 23.64 36.39, 23.4 37.005, 22.44 38.82 C 21.72 40.019999999999996, 21.585 40.26, 21 41.22 C 20.55 41.94, 20.46 42.015, 20.1 42.660000000000004 C 19.83 43.230000000000004, 19.71 43.47, 19.56 43.8 C 19.53 43.89, 19.515 43.935, 19.5 43.980000000000004 C 19.5 43.980000000000004, 19.5 43.980000000000004, 19.5 43.980000000000004 C 19.5 43.980000000000004, 19.5 43.980000000000004, 19.5 43.980000000000004 C 19.5 43.980000000000004, 19.5 43.980000000000004, 19.5 43.980000000000004 C 19.5 43.980000000000004, 19.5 43.980000000000004, 19.5 43.980000000000004 L 19.5 43.980000000000004" fill="none" stroke="black" stroke-width="2"></path></svg>