<svg width="48" height="48" viewBox="0 0 48 48" xmlns="http://www.w3.org/2000/svg"><path d="M 13.14 6.6000000000000005 C 14.610000000000001 6.51, 14.325000000000003 6.57, 16.080000000000002 6.42 C 18.12 6.21, 18.495 6.15, 20.16 6 C 21.450000000000003 5.91, 21.315 5.865, 22.740000000000002 5.82 C 24.3 5.82, 24.6 5.82, 25.86 5.82 C 26.82 5.82, 27.18 5.790000000000001, 27.78 5.82 C 28.02 5.88, 27.93 5.76, 28.259999999999998 5.9399999999999995 C 28.68 6.24, 28.694999999999997 5.895000000000001, 29.099999999999998 6.540000000000001 C 29.490000000000002 7.53, 29.610000000000003 7.529999999999999, 29.880000000000003 8.52 C 30.03 9.51, 30.015 9.57, 30.18 10.5 C 30.36 11.370000000000001, 30.45 11.325, 30.54 12.24 C 30.54 13.2, 30.54 13.605, 30.54 14.16 L 30.54 14.46" fill="none" stroke="black" stroke-width="2"></path><path d="M 18.36 5.5200000000000005 C 18.15 6.45, 18.090000000000003 6.375, 17.94 7.38 C 17.85 8.46, 17.834999999999997 8.49, 17.759999999999998 9.540000000000001 C 17.7 10.56, 17.685 10.515, 17.64 11.58 C 17.61 12.69, 17.46 12.84, 17.580000000000002 13.799999999999999 C 17.85 14.61, 17.775000000000002 14.759999999999998, 18.12 15.419999999999998 C 18.54 15.93, 18.345 15.885000000000002, 18.96 16.44 C 19.770000000000003 17.04, 19.53 17.07, 20.580000000000002 17.64 C 21.87 18.18, 22.005 18.314999999999998, 23.16 18.72 C 24.18 18.99, 23.835000000000004 19.004999999999995, 25.200000000000003 19.259999999999998 C 26.91 19.5, 27.36 19.62, 28.619999999999997 19.740000000000002 C 29.43 19.740000000000002, 29.715000000000003 19.740000000000002, 30.240000000000002 19.740000000000002 C 30.48 19.740000000000002, 30.6 19.740000000000002, 30.72 19.740000000000002 L 30.72 19.740000000000002" fill="none" stroke="black" stroke-width="2"></path><path d="M 30.48 19.740000000000002 C 29.52 19.740000000000002, 29.715 19.740000000000002, 28.56 19.740000000000002 C 27.21 19.740000000000002, 27.03 19.650000000000002, 25.86 19.740000000000002 C 24.869999999999997 19.92, 24.794999999999998 19.650000000000002, 23.88 20.1 C 23.04 20.82, 22.830000000000002 20.88, 22.200000000000003 21.54 C 21.78 22.14, 21.810000000000002 21.975, 21.36 22.740000000000002 C 20.88 23.67, 20.88 23.61, 20.4 24.599999999999998 C 19.92 25.65, 19.935000000000002 25.44, 19.44 26.700000000000003 C 18.93 28.17, 18.794999999999998 28.17, 18.419999999999998 29.64 C 18.18 31.11, 18.105 31.32, 17.94 32.58 C 17.85 33.629999999999995, 17.805 33.765, 17.759999999999998 34.68 C 17.759999999999998 35.46, 17.759999999999998 35.730000000000004, 17.759999999999998 36.24 C 17.759999999999998 36.480000000000004, 17.759999999999998 36.6, 17.759999999999998 36.72 L 17.759999999999998 36.72" fill="none" stroke="black" stroke-width="2"></path><path d="M 12.66 22.62 C 12.96 22.68, 12.405 22.200000000000003, 13.26 22.740000000000002 C 14.670000000000002 23.76, 14.835 23.880000000000003, 16.080000000000002 24.78 C 17.160000000000004 25.56, 17.46 25.799999999999997, 18.240000000000002 26.339999999999996 C 18.720000000000002 26.64, 18.930000000000003 26.745, 19.200000000000003 26.94 C 19.26 27.03, 19.29 27.075, 19.32 27.119999999999997 L 19.32 27.119999999999997" fill="none" stroke="black" stroke-width="2"></path></svg>