<svg width="48" height="48" viewBox="0 0 48 48" xmlns="http://www.w3.org/2000/svg"><path d="M 8.82 8.58 C 8.82 11.219999999999999, 8.82 10.65, 8.82 13.86 C 8.82 17.64, 8.835 17.939999999999998, 8.82 21.419999999999998 C 8.79 24.6, 8.775 24.93, 8.76 27.78 C 8.76 30.3, 8.76 30.945, 8.76 32.82 C 8.76 34.05, 8.76 34.065, 8.76 35.28 C 8.76 36.480000000000004, 8.67 36.915, 8.76 37.68 C 8.940000000000001 38.01, 8.985000000000001 38.129999999999995, 9.120000000000001 38.339999999999996 C 9.21 38.42999999999999, 9.195 38.39999999999999, 9.3 38.519999999999996 C 9.420000000000002 38.67, 9.360000000000001 38.61, 9.540000000000001 38.82 C 9.780000000000001 39.09, 9.705 39.075, 10.02 39.36 C 10.41 39.66, 10.035 39.78, 10.8 39.96 C 11.940000000000001 40.019999999999996, 11.685000000000002 40.05, 13.080000000000002 40.08 C 14.73 40.08, 14.114999999999998 40.2, 16.38 40.08 C 19.259999999999998 39.839999999999996, 19.77 39.824999999999996, 22.14 39.599999999999994 C 24 39.39, 24.689999999999998 39.33, 25.86 39.18 C 26.34 39.09, 26.505000000000003 39.045, 26.82 39 C 26.97 39, 27.044999999999998 39, 27.119999999999997 39 L 27.119999999999997 39" fill="none" stroke="black" stroke-width="2"></path><path d="M 15.18 12 C 15.18 15.899999999999999, 15.18 16.244999999999997, 15.18 19.799999999999997 L 15.18 26.22" fill="none" stroke="black" stroke-width="2"></path><path d="M 20.4 13.68 C 20.849999999999998 17.25, 21.044999999999998 17.82, 21.299999999999997 20.82 C 21.36 23.25, 21.389999999999997 24.134999999999998, 21.419999999999998 25.68 C 21.419999999999998 26.34, 21.419999999999998 26.67, 21.419999999999998 27 L 21.419999999999998 27" fill="none" stroke="black" stroke-width="2"></path></svg>