<svg width="48" height="48" viewBox="0 0 48 48" xmlns="http://www.w3.org/2000/svg"><path d="M 13.98 46.2 C 14.07 44.13, 14.085 44.190000000000005, 14.16 42.06 C 14.219999999999999 39.870000000000005, 14.16 40.44, 14.28 37.68 C 14.46 34.35, 14.55 33.915, 14.64 31.02 C 14.64 28.56, 14.64 28.154999999999998, 14.64 26.099999999999998 C 14.64 24.449999999999996, 14.64 24.059999999999995, 14.64 22.799999999999997 C 14.64 21.93, 14.595 21.689999999999998, 14.64 21.06 C 14.73 20.67, 14.43 20.73, 14.82 20.28 C 15.510000000000002 19.77, 15.210000000000003 19.575, 16.200000000000003 19.259999999999998 C 17.490000000000002 19.14, 17.340000000000003 19.08, 18.78 19.02 C 20.37 19.02, 20.37 19.02, 21.96 19.02 C 23.55 19.02, 23.73 19.02, 25.14 19.02 C 26.369999999999997 19.02, 26.744999999999997 18.974999999999998, 27.599999999999998 19.02 C 28.08 19.11, 28.185 19.065000000000005, 28.56 19.200000000000003 C 28.83 19.380000000000003, 28.769999999999996 18.78, 29.099999999999998 19.56 C 29.490000000000002 20.939999999999998, 29.580000000000002 20.025, 29.880000000000003 22.32 C 30.09 25.53, 30.224999999999998 25.365000000000002, 30.299999999999997 28.740000000000002 C 30.24 32.28, 30.375 33.105000000000004, 30.18 35.82 C 29.85 37.709999999999994, 29.79 38.084999999999994, 29.52 39.599999999999994 C 29.31 40.739999999999995, 29.369999999999997 40.92, 29.099999999999998 41.88 C 28.77 42.66, 28.86 42.825, 28.44 43.44 C 27.93 43.89, 28.125000000000004 44.06999999999999, 27.42 44.339999999999996 C 26.52 44.42999999999999, 26.505 44.504999999999995, 25.619999999999997 44.519999999999996 C 24.75 44.46, 24.735 44.865, 23.88 44.400000000000006 C 23.04 43.53, 22.665000000000003 43.74000000000001, 22.200000000000003 42.660000000000004 C 22.11 41.370000000000005, 21.93 41.144999999999996, 22.02 40.08 C 22.29 39.24, 21.99 39.285000000000004, 22.56 38.400000000000006 C 23.43 37.47, 23.549999999999997 37.065, 24.299999999999997 36.54 C 24.93 36.42, 24.839999999999996 36.36, 25.56 36.3 C 26.369999999999997 36.3, 26.564999999999998 36.3, 27.18 36.3 C 27.6 36.3, 27.6 36.17999999999999, 28.02 36.3 C 28.439999999999998 36.54, 28.485 36.555, 28.86 36.78 C 29.189999999999998 36.99, 29.28 37.065000000000005, 29.52 37.2 C 29.67 37.260000000000005, 29.745 37.29, 29.82 37.32 C 29.82 37.32, 29.775 37.275, 29.82 37.32 L 30 37.5" fill="none" stroke="black" stroke-width="2"></path><path d="M 19.56 18.84 C 19.56 17.1, 19.56 17.46, 19.56 15.36 C 19.56 12.899999999999999, 19.455 12.389999999999999, 19.56 10.44 C 19.77 9, 19.845 8.505, 19.98 7.5600000000000005 C 20.04 7.11, 20.07 6.885, 20.1 6.66 L 20.1 6.66" fill="none" stroke="black" stroke-width="2"></path><path d="M 25.5 18.240000000000002 C 25.5 15.780000000000001, 25.439999999999998 15.75, 25.5 13.32 C 25.62 10.92, 25.560000000000002 10.245, 25.740000000000002 8.52 C 25.98 7.47, 26.085 7.14, 26.22 6.42 C 26.25 6.029999999999999, 26.265 5.835, 26.28 5.64 L 26.28 5.64" fill="none" stroke="black" stroke-width="2"></path></svg>