<svg width="48" height="48" viewBox="0 0 48 48" xmlns="http://www.w3.org/2000/svg"><path d="M 14.46 3.42 C 14.46 5.37, 14.595000000000002 5.265000000000001, 14.46 7.32 C 14.19 9.48, 14.174999999999997 9.075, 13.919999999999998 11.64 C 13.68 14.610000000000001, 13.56 14.865000000000002, 13.440000000000001 17.580000000000002 C 13.440000000000001 20.04, 13.485000000000001 20.19, 13.440000000000001 22.5 C 13.350000000000001 24.66, 13.305 25.08, 13.26 26.82 C 13.26 28.14, 13.245 28.125, 13.26 29.46 C 13.29 30.810000000000002, 13.215 30.855000000000004, 13.32 32.160000000000004 C 13.5 33.42, 13.485 33.69, 13.68 34.68 C 13.89 35.4, 13.770000000000001 35.459999999999994, 14.100000000000001 36.12 C 14.55 36.72, 14.655000000000001 36.96, 15 37.32 C 15.24 37.44, 15.21 37.5, 15.48 37.56 C 15.780000000000001 37.56, 15.765 37.56, 16.080000000000002 37.56 C 16.410000000000004 37.56, 16.335 37.620000000000005, 16.740000000000002 37.56 C 17.220000000000002 37.44, 17.235000000000003 37.575, 17.700000000000003 37.32 C 18.150000000000002 36.93, 17.715000000000003 37.365, 18.6 36.54 C 19.92 35.28, 19.92 35.459999999999994, 21.240000000000002 34.019999999999996 C 22.560000000000002 32.4, 22.755 31.905, 23.88 30.78 C 24.810000000000002 30.15, 24.51 30.21, 25.740000000000002 29.52 C 27.27 28.77, 27.525 28.424999999999997, 28.799999999999997 28.02 C 29.819999999999997 27.96, 29.955 27.750000000000004, 30.839999999999996 27.900000000000002 C 31.589999999999996 28.259999999999998, 31.664999999999996 28.185, 32.339999999999996 28.619999999999997 C 32.94 29.13, 32.955 28.935, 33.54 29.64 C 34.11 30.54, 34.275 30.675, 34.68 31.44 C 34.92 32.07, 35.040000000000006 32.010000000000005, 35.160000000000004 32.7 C 35.160000000000004 33.45, 35.295 33.315000000000005, 35.160000000000004 34.2 C 34.89 35.22, 35.055 35.49, 34.62 36.24 C 34.019999999999996 36.72, 34.455 36.75, 33.42 37.2 C 31.950000000000003 37.620000000000005, 31.560000000000002 37.755, 30.48 38.04 C 29.79 38.19, 29.685 38.309999999999995, 29.099999999999998 38.339999999999996 C 28.619999999999997 38.25, 28.635 38.475, 28.14 38.160000000000004 C 27.63 37.620000000000005, 27.794999999999998 37.845, 27.119999999999997 37.08 C 26.28 36.089999999999996, 26.055 36.13499999999999, 25.44 35.099999999999994 C 25.050000000000004 34.019999999999996, 25.005000000000003 33.959999999999994, 24.660000000000004 32.94 C 24.36 31.979999999999997, 24.255 31.619999999999997, 24.06 31.02 C 23.97 30.78, 23.924999999999997 30.66, 23.88 30.54 C 23.88 30.54, 23.88 30.54, 23.88 30.54 L 23.88 30.54" fill="none" stroke="black" stroke-width="2"></path><path d="M 19.38 7.02 C 19.41 10.11, 19.425 10.665000000000001, 19.44 13.200000000000001 C 19.44 15.18, 19.395000000000003 14.97, 19.44 17.16 C 19.53 19.560000000000002, 19.53 20.37, 19.62 21.96 C 19.71 22.740000000000002, 19.709999999999997 22.8, 19.799999999999997 23.52 C 19.89 24.18, 19.935 24.509999999999998, 19.98 24.839999999999996 L 19.98 24.839999999999996" fill="none" stroke="black" stroke-width="2"></path><path d="M 27.18 6.24 C 27.18 7.53, 27.195 7.215, 27.18 8.82 C 27.15 10.74, 27.165 10.605, 27.119999999999997 12.66 C 27.06 14.85, 27.03 15.105, 27 17.04 C 27 18.72, 26.955 18.96, 27 20.4 C 27.09 21.599999999999998, 27.134999999999998 21.869999999999997, 27.18 22.799999999999997 C 27.18 23.459999999999997, 27.18 23.744999999999997, 27.18 24.119999999999997 L 27.18 24.299999999999997" fill="none" stroke="black" stroke-width="2"></path></svg>