<svg width="48" height="48" viewBox="0 0 48 48" xmlns="http://www.w3.org/2000/svg"><path d="M 10.44 38.64 C 10.620000000000001 38.64, 10.41 38.64, 10.8 38.64 C 11.4 38.64, 11.055 38.655, 12 38.64 C 13.290000000000001 38.61, 13.605000000000002 38.625, 14.580000000000002 38.58 C 15.24 38.519999999999996, 15.344999999999999 38.49, 15.899999999999999 38.46 C 16.349999999999998 38.46, 16.379999999999995 38.46, 16.799999999999997 38.46 C 17.189999999999998 38.46, 17.19 38.46, 17.580000000000002 38.46 C 17.97 38.46, 17.97 38.505, 18.36 38.46 C 18.75 38.370000000000005, 18.9 38.325, 19.14 38.28 L 19.32 38.28" fill="none" stroke="black" stroke-width="2"></path><path d="M 11.040000000000001 45.599999999999994 C 10.920000000000002 44.67, 10.935 44.655, 10.8 43.74 C 10.65 42.84, 10.575 42.839999999999996, 10.5 41.94 C 10.5 41.04, 10.530000000000001 41.025, 10.5 40.14 C 10.44 39.27, 10.41 39.165000000000006, 10.379999999999999 38.400000000000006 C 10.379999999999999 37.74, 10.379999999999999 37.695, 10.379999999999999 37.08 C 10.379999999999999 36.51, 10.379999999999999 36.644999999999996, 10.379999999999999 35.94 C 10.379999999999999 35.099999999999994, 10.334999999999999 34.995, 10.379999999999999 34.26 C 10.469999999999999 33.629999999999995, 10.440000000000001 33.555, 10.56 33 C 10.71 32.519999999999996, 10.695 32.37, 10.86 32.04 C 11.04 31.86, 10.74 32.04, 11.22 31.68 C 12 31.14, 11.91 31.064999999999998, 12.78 30.599999999999998 C 13.74 30.21, 13.860000000000001 30.06, 14.700000000000001 29.82 C 15.420000000000002 29.73, 15.345 29.655, 16.14 29.64 C 17.009999999999998 29.7, 17.025 29.654999999999998, 17.88 29.759999999999998 C 18.72 29.909999999999997, 18.57 29.894999999999996, 19.56 30.06 C 20.7 30.240000000000002, 20.955 30.285000000000004, 21.84 30.42 C 22.47 30.509999999999998, 22.62 30.735, 23.1 30.599999999999998 C 23.43 30.240000000000002, 23.49 30.345000000000002, 23.759999999999998 29.880000000000003 C 23.97 29.310000000000002, 23.939999999999998 29.730000000000004, 24.18 28.740000000000002 C 24.45 27.330000000000002, 24.555 26.835, 24.72 25.92 C 24.779999999999998 25.5, 24.809999999999995 25.29, 24.839999999999996 25.08 C 24.839999999999996 25.08, 24.794999999999995 25.095, 24.839999999999996 25.08 C 24.93 25.049999999999997, 24.869999999999997 24.555, 25.02 25.02 C 25.23 25.98, 25.17 25.77, 25.44 26.94 C 25.77 28.32, 25.724999999999998 28.650000000000002, 26.099999999999998 29.700000000000003 C 26.52 30.42, 26.565 30.675, 26.94 31.14 C 27.27 31.35, 27.134999999999998 31.455, 27.599999999999998 31.56 C 28.199999999999996 31.56, 27.764999999999997 31.979999999999997, 28.799999999999997 31.56 C 30.27 30.72, 30.645000000000003 30.795, 31.740000000000002 29.880000000000003 C 32.46 28.89, 32.64 29.07, 33.18 27.900000000000002 C 33.540000000000006 26.550000000000004, 33.660000000000004 26.595000000000002, 33.900000000000006 25.200000000000003 C 34.02 23.76, 34.035000000000004 24.135, 34.14 22.32 C 34.230000000000004 20.130000000000003, 34.17 20.115000000000002, 34.32 17.94 C 34.53 15.780000000000001, 34.575 15.585, 34.74 13.620000000000001 C 34.86 11.850000000000001, 34.905 11.295, 34.980000000000004 10.08 C 35.010000000000005 9.42, 34.995 9.195, 35.04 8.76 L 35.160000000000004 8.34" fill="none" stroke="black" stroke-width="2"></path><path d="M 28.740000000000002 8.58 C 28.5 10.05, 28.424999999999997 10.02, 28.259999999999998 11.52 C 28.169999999999998 13.05, 28.125 13.245000000000001, 28.08 14.580000000000002 C 28.08 15.72, 28.08 16.005, 28.08 16.86 C 28.08 17.43, 28.095 17.67, 28.08 18 L 28.02 18.18" fill="none" stroke="black" stroke-width="2"></path><path d="M 19.98 10.26 C 19.590000000000003 13.14, 19.395000000000003 13.695, 19.200000000000003 16.02 C 19.200000000000003 17.79, 19.185000000000002 17.835, 19.200000000000003 19.56 C 19.23 21.24, 19.244999999999997 21.869999999999997, 19.259999999999998 22.919999999999998 L 19.259999999999998 23.759999999999998" fill="none" stroke="black" stroke-width="2"></path></svg>