<svg width="48" height="48" viewBox="0 0 48 48" xmlns="http://www.w3.org/2000/svg"><path d="M 13.98 4.38 C 13.530000000000001 6.27, 13.365000000000002 6.2700000000000005, 13.080000000000002 8.16 C 12.96 10.05, 12.9 9.645, 12.84 11.94 C 12.84 14.64, 12.885 14.67, 12.84 17.34 C 12.75 19.98, 12.825 20.025000000000002, 12.66 22.62 C 12.42 25.17, 12.3 25.56, 12.18 27.72 C 12.18 29.49, 12.15 29.775, 12.18 31.259999999999998 C 12.239999999999998 32.46, 11.985 32.625, 12.299999999999999 33.660000000000004 C 12.870000000000001 34.53, 12.660000000000002 34.980000000000004, 13.440000000000001 35.400000000000006 C 14.43 35.370000000000005, 14.204999999999998 35.834999999999994, 15.419999999999998 35.339999999999996 C 16.86 34.379999999999995, 16.679999999999996 35.265, 18.299999999999997 33.42 C 20.099999999999998 30.69, 20.729999999999997 30.3, 21.9 27.96 C 22.439999999999998 26.009999999999998, 22.68 25.215, 22.98 24.06 C 23.04 23.7, 23.07 23.52, 23.1 23.34 C 23.1 23.34, 23.205000000000002 22.74, 23.1 23.34 C 22.89 24.54, 22.995 24.060000000000002, 22.68 25.740000000000002 C 22.259999999999998 27.9, 22.095 28.439999999999998, 21.84 30.06 C 21.75 31.14, 21.405 31.29, 21.66 32.22 C 22.259999999999998 33, 22.155 33.03, 22.86 33.78 C 23.67 34.5, 23.490000000000002 35.025, 24.48 35.22 C 25.65 34.89, 25.35 34.92, 26.82 34.56 C 28.59 34.17, 28.964999999999996 34.05, 30.36 33.78 C 31.380000000000003 33.63, 31.560000000000006 33.465, 32.400000000000006 33.480000000000004 C 33.06 33.66, 33.21 33.495, 33.72 33.839999999999996 C 34.08 34.349999999999994, 34.214999999999996 34.155, 34.44 34.86 C 34.53 35.760000000000005, 34.589999999999996 35.49, 34.62 36.660000000000004 C 34.59 38.1, 34.68 38.295, 34.56 39.54 C 34.35 40.59, 34.425 40.845, 34.14 41.64 C 33.78 42.18, 33.855000000000004 42.405, 33.42 42.72 C 32.910000000000004 42.81, 33.705000000000005 42.870000000000005, 32.400000000000006 42.900000000000006 C 30.300000000000004 42.870000000000005, 29.835000000000004 42.93, 28.200000000000003 42.839999999999996 C 27.03 42.69, 26.55 42.629999999999995, 25.86 42.54 C 25.65 42.510000000000005, 25.665 42.540000000000006, 25.44 42.480000000000004 C 25.200000000000003 42.39, 25.17 42.39, 24.96 42.3 L 24.599999999999998 42.12" fill="none" stroke="black" stroke-width="2"></path><path d="M 29.099999999999998 34.32 C 29.52 34.41, 29.37 34.455, 29.94 34.5 C 30.660000000000004 34.5, 30.150000000000002 34.905, 31.380000000000003 34.5 C 33.120000000000005 33.69, 33.6 34.065000000000005, 34.86 32.88 C 35.64 31.32, 35.985 31.185, 36.42 29.759999999999998 C 36.51 28.47, 36.495 29.085, 36.599999999999994 27.18 C 36.72 24.66, 37.004999999999995 24.884999999999998, 36.839999999999996 22.14 C 36.39 19.17, 36.525 19.545, 35.94 16.200000000000003 C 35.22 12.48, 35.085 11.895, 34.5 8.76 C 34.05 6.21, 33.92999999999999 5.28, 33.599999999999994 3.66 C 33.39 2.97, 33.285 2.625, 33.18 2.2800000000000002 C 33.18 2.2800000000000002, 33.225 2.2950000000000004, 33.18 2.2800000000000002 L 33 2.2199999999999998" fill="none" stroke="black" stroke-width="2"></path><path d="M 29.759999999999998 3.7800000000000002 C 29.13 5.880000000000001, 29.055 5.115, 28.5 7.98 C 28.02 11.61, 27.945 11.865, 27.54 15.24 C 27.21 18.36, 27.045 19.425, 26.880000000000003 21.48 C 26.880000000000003 22.47, 26.880000000000003 22.845, 26.880000000000003 23.46 L 26.880000000000003 23.94" fill="none" stroke="black" stroke-width="2"></path><path d="M 19.919999999999998 6.540000000000001 C 19.169999999999998 7.800000000000001, 19.064999999999998 7.1850000000000005, 18.419999999999998 9.06 C 17.88 11.55, 17.7 10.92, 17.34 14.04 C 17.16 17.79, 17.07 18.689999999999998, 16.98 21.54 C 16.98 23.490000000000002, 16.95 24.18, 16.98 25.44 L 17.1 26.58" fill="none" stroke="black" stroke-width="2"></path></svg>