<svg width="48" height="48" viewBox="0 0 48 48" xmlns="http://www.w3.org/2000/svg"><path d="M 11.76 30.240000000000002 C 11.76 30.240000000000002, 11.79 30.255000000000003, 11.76 30.240000000000002 C 11.7 30.21, 11.940000000000001 31.53, 11.64 30.18 C 11.100000000000001 27.509999999999998, 10.875 27.33, 10.56 24.839999999999996 C 10.469999999999999 22.529999999999998, 10.514999999999999 22.214999999999996, 10.379999999999999 20.22 C 10.2 18.54, 10.094999999999999 18.75, 10.02 16.86 C 10.05 14.76, 9.96 14.355, 10.08 12.66 C 10.29 11.370000000000001, 10.095 11.52, 10.5 10.08 C 11.1 8.49, 11.129999999999999 7.965, 11.7 6.8999999999999995 C 12.239999999999998 6.359999999999999, 12.239999999999998 6.135, 12.78 5.82 C 13.32 5.73, 13.245 5.459999999999999, 13.86 5.64 C 14.55 6.09, 14.505 5.835000000000001, 15.24 6.540000000000001 C 16.02 7.5, 16.154999999999998 7.034999999999999, 16.799999999999997 8.459999999999999 C 17.31 10.35, 17.415 10.59, 17.82 12.24 C 18.119999999999997 13.649999999999999, 18.134999999999998 13.319999999999999, 18.419999999999998 15.059999999999999 C 18.689999999999998 17.130000000000003, 18.705 17.520000000000003, 18.96 19.200000000000003 C 19.200000000000003 20.490000000000002, 19.305 21.105000000000004, 19.44 21.78 C 19.47 21.84, 19.485 21.869999999999997, 19.5 21.9 C 19.5 21.9, 19.38 21.93, 19.5 21.9 C 19.740000000000002 21.84, 19.695 21.945, 19.98 21.78 C 20.310000000000002 21.51, 20.16 21.480000000000004, 20.64 21.240000000000002 C 21.27 21.03, 21.255 20.925, 21.9 20.82 C 22.56 20.82, 22.38 20.82, 23.22 20.82 C 24.24 20.82, 24.165 20.82, 25.259999999999998 20.82 C 26.43 20.82, 26.61 20.775, 27.599999999999998 20.82 C 28.409999999999997 20.91, 28.514999999999997 20.895, 29.22 21 C 29.82 21.12, 29.865000000000002 20.985000000000003, 30.42 21.240000000000002 C 30.93 21.630000000000003, 30.93 21.465, 31.44 22.02 C 31.950000000000003 22.740000000000002, 32.145 22.86, 32.46 23.46 C 32.58 23.94, 32.595 23.775000000000002, 32.7 24.42 C 32.790000000000006 25.23, 32.85 25.32, 32.88 26.04 C 32.85 26.669999999999998, 32.865 26.894999999999996, 32.82 27.299999999999997 C 32.760000000000005 27.48, 32.760000000000005 27.540000000000003, 32.7 27.660000000000004 L 32.58 27.78" fill="none" stroke="black" stroke-width="2"></path><path d="M 23.759999999999998 19.44 C 23.64 17.880000000000003, 23.625 18.39, 23.52 16.32 C 23.43 13.74, 23.384999999999998 12.99, 23.34 11.16 C 23.34 10.08, 23.34 9.885, 23.34 9 C 23.34 8.31, 23.34 8.13, 23.34 7.62 C 23.34 7.289999999999999, 23.34 7.349999999999999, 23.34 6.959999999999999 L 23.34 6.0600000000000005" fill="none" stroke="black" stroke-width="2"></path><path d="M 28.68 18.18 C 28.41 16.23, 28.335 16.365, 28.14 14.28 C 28.020000000000003 12.059999999999999, 27.96 11.64, 27.900000000000002 9.84 C 27.900000000000002 8.46, 27.900000000000002 7.95, 27.900000000000002 7.08 C 27.900000000000002 6.720000000000001, 27.900000000000002 6.54, 27.900000000000002 6.36 L 27.900000000000002 6.36" fill="none" stroke="black" stroke-width="2"></path><path d="M 19.62 21.299999999999997 C 19.62 21.659999999999997, 19.455000000000002 21.119999999999997, 19.62 22.02 C 19.950000000000003 23.46, 20.01 23.625000000000004, 20.28 24.900000000000002 C 20.490000000000002 26.009999999999998, 20.445000000000004 25.665, 20.700000000000003 27.119999999999997 C 21 28.919999999999998, 21.104999999999997 29.129999999999995, 21.299999999999997 30.72 C 21.39 32.1, 21.435 32.040000000000006, 21.48 33.480000000000004 C 21.48 34.980000000000004, 21.555 35.145, 21.48 36.480000000000004 C 21.33 37.650000000000006, 21.585 37.620000000000005, 21.18 38.82 C 20.52 40.05, 20.58 40.245000000000005, 19.86 41.28 C 19.08 42.120000000000005, 19.334999999999997 42.27, 18.299999999999997 42.96 C 17.009999999999998 43.5, 16.605 43.695, 15.72 44.04 C 15.24 44.19, 15.33 44.16, 14.76 44.339999999999996 C 14.100000000000001 44.55, 14.07 44.504999999999995, 13.440000000000001 44.76 C 12.84 45.06, 12.540000000000001 45.21, 12.24 45.36 L 12.24 45.36" fill="none" stroke="black" stroke-width="2"></path></svg>