<svg width="48" height="48" viewBox="0 0 48 48" xmlns="http://www.w3.org/2000/svg"><path d="M 10.620000000000001 31.08 C 10.32 29.91, 10.274999999999999 30.240000000000002, 10.02 28.740000000000002 C 9.81 26.91, 9.765 26.895, 9.600000000000001 25.08 C 9.48 23.28, 9.375 23.759999999999998, 9.36 21.48 C 9.45 18.72, 9.345 18.495, 9.540000000000001 15.96 C 9.84 13.65, 9.96 12.885, 10.14 11.34 C 10.2 10.559999999999999, 10.065 10.575, 10.26 9.78 C 10.59 8.969999999999999, 10.41 8.91, 10.92 8.16 C 11.61 7.47, 11.594999999999999 7.184999999999999, 12.299999999999999 6.779999999999999 C 13.02 6.66, 13.08 6.6000000000000005, 13.74 6.540000000000001 C 14.34 6.540000000000001, 14.490000000000002 6.540000000000001, 14.940000000000001 6.540000000000001 C 15.24 6.540000000000001, 15.075 6.210000000000001, 15.54 6.540000000000001 C 16.169999999999998 7.200000000000001, 16.334999999999997 6.885000000000001, 16.799999999999997 7.86 C 17.099999999999998 9.15, 17.205 9.104999999999999, 17.4 10.44 C 17.490000000000002 11.82, 17.490000000000002 11.940000000000001, 17.580000000000002 13.200000000000001 C 17.67 14.34, 17.595 14.100000000000001, 17.759999999999998 15.48 C 18 17.1, 17.94 17.235, 18.240000000000002 18.72 C 18.6 20.07, 18.675 20.534999999999997, 18.96 21.419999999999998 C 19.17 21.839999999999996, 19.275 22.049999999999997, 19.38 22.259999999999998 C 19.38 22.259999999999998, 19.095 22.229999999999997, 19.38 22.259999999999998 C 19.95 22.32, 19.59 22.455, 20.52 22.38 C 21.810000000000002 22.17, 21.975 22.065, 23.1 21.96 C 24.060000000000002 21.96, 23.865000000000002 21.96, 25.02 21.96 C 26.369999999999997 21.96, 26.685 21.96, 27.72 21.96 C 28.44 21.96, 28.515000000000004 21.855, 29.160000000000004 21.96 C 29.73 22.17, 29.894999999999996 22.17, 30.299999999999997 22.38 C 30.54 22.589999999999996, 30.42 22.229999999999997, 30.78 22.799999999999997 C 31.26 23.73, 31.455000000000002 23.970000000000002, 31.740000000000002 24.660000000000004 C 31.830000000000002 25.11, 31.830000000000005 25.035, 31.92 25.56 C 32.01 26.159999999999997, 32.05499999999999 26.189999999999998, 32.099999999999994 26.759999999999998 C 32.099999999999994 27.299999999999997, 32.099999999999994 27.374999999999996, 32.099999999999994 27.839999999999996 C 32.099999999999994 28.229999999999997, 32.099999999999994 28.424999999999997, 32.099999999999994 28.619999999999997 L 32.099999999999994 28.619999999999997" fill="none" stroke="black" stroke-width="2"></path><path d="M 22.98 22.5 C 22.95 21.87, 22.994999999999997 22.980000000000004, 22.919999999999998 21.240000000000002 C 22.799999999999997 18.39, 22.634999999999998 18.345, 22.68 15.54 C 22.89 12.78, 22.92 12.149999999999999, 23.1 10.02 C 23.25 8.52, 23.325 7.77, 23.4 7.02 C 23.4 7.02, 23.4 7.02, 23.4 7.02 L 23.4 7.02" fill="none" stroke="black" stroke-width="2"></path><path d="M 27.48 22.68 C 27.57 20.91, 27.615000000000002 21.18, 27.660000000000004 19.14 C 27.660000000000004 16.83, 27.555000000000007 16.725, 27.660000000000004 14.52 C 27.87 12.42, 27.975 11.850000000000001, 28.08 10.32 C 28.08 9.36, 28.08 9.27, 28.08 8.399999999999999 C 28.08 7.619999999999999, 28.08 7.424999999999999, 28.08 6.84 L 28.08 6.0600000000000005" fill="none" stroke="black" stroke-width="2"></path><path d="M 9.84 45.12 C 10.5 45.06, 10.245000000000001 45.285, 11.16 45 C 12.33 44.49, 12.21 44.775000000000006, 13.5 43.980000000000004 C 14.91 42.900000000000006, 15.195 43.125, 16.32 41.82 C 17.16 40.29, 17.37 40.14, 18 38.76 C 18.42 37.53, 18.435 38.19, 18.84 36.3 C 19.23 33.75, 19.425 33.63, 19.62 31.200000000000003 C 19.62 28.89, 19.62 28.544999999999998, 19.62 26.58 C 19.62 24.96, 19.62 24.39, 19.62 23.34 C 19.62 22.86, 19.62 22.74, 19.62 22.38 C 19.62 22.14, 19.62 22.02, 19.62 21.9 C 19.62 21.9, 19.62 21.9, 19.62 21.9 C 19.62 21.9, 19.665 21.479999999999997, 19.62 21.9 C 19.53 22.740000000000002, 19.545 22.32, 19.44 23.580000000000002 C 19.32 25.26, 19.26 25.005000000000003, 19.200000000000003 26.94 C 19.200000000000003 29.130000000000003, 19.065000000000005 29.07, 19.200000000000003 31.32 C 19.470000000000002 33.629999999999995, 19.290000000000003 33.9, 19.740000000000002 35.94 C 20.37 37.71, 20.415 38.190000000000005, 21 39.480000000000004 C 21.54 40.29, 21.195 40.154999999999994, 22.080000000000002 41.099999999999994 C 23.310000000000002 42.17999999999999, 23.415 42.525, 24.54 43.26 C 25.56 43.65, 25.695 43.815, 26.58 44.04 C 27.33 44.1, 27.374999999999996 44.13, 28.08 44.160000000000004 C 28.740000000000002 44.160000000000004, 28.71 44.160000000000004, 29.400000000000002 44.160000000000004 C 30.119999999999997 44.160000000000004, 30.449999999999996 44.145, 30.839999999999996 44.160000000000004 C 30.9 44.19, 30.884999999999998 44.175, 30.96 44.22 L 31.14 44.339999999999996" fill="none" stroke="black" stroke-width="2"></path></svg>