<svg width="48" height="48" viewBox="0 0 48 48" xmlns="http://www.w3.org/2000/svg"><path d="M 14.940000000000001 34.14 C 15.270000000000001 34.2, 15.060000000000002 34.23, 15.600000000000001 34.26 C 16.35 34.26, 15.870000000000001 34.275, 17.1 34.26 C 18.810000000000002 34.230000000000004, 18.66 34.29, 20.52 34.2 C 22.53 34.050000000000004, 22.95 34.035000000000004, 24.54 33.900000000000006 C 25.71 33.78, 26.115000000000002 33.720000000000006, 26.880000000000003 33.660000000000004 C 27.240000000000002 33.660000000000004, 27.15 33.660000000000004, 27.599999999999998 33.660000000000004 C 28.14 33.660000000000004, 28.005 33.75000000000001, 28.68 33.660000000000004 C 29.49 33.480000000000004, 29.684999999999995 33.555, 30.299999999999997 33.3 C 30.72 32.97, 30.78 33.06, 31.14 32.64 C 31.44 32.129999999999995, 31.455000000000002 32.339999999999996, 31.740000000000002 31.619999999999997 C 32.010000000000005 30.689999999999998, 32.055 30.824999999999996, 32.28 29.759999999999998 C 32.46 28.56, 32.505 28.634999999999998, 32.64 27.36 C 32.730000000000004 26.01, 32.775 25.965000000000003, 32.82 24.660000000000004 C 32.82 23.400000000000002, 32.865 23.19, 32.82 22.14 C 32.730000000000004 21.3, 32.775 21.51, 32.64 20.46 C 32.46 19.200000000000003, 32.475 19.425, 32.28 17.94 C 32.07 16.23, 32.055 15.93, 31.86 14.52 C 31.68 13.41, 31.634999999999998 13.409999999999998, 31.5 12.299999999999999 C 31.41 11.19, 31.365000000000002 10.68, 31.32 10.08 C 31.32 9.989999999999998, 31.32 9.944999999999999, 31.32 9.899999999999999 L 31.32 9.899999999999999" fill="none" stroke="black" stroke-width="2"></path><path d="M 25.98 11.399999999999999 C 25.86 12.51, 25.965000000000003 11.91, 25.740000000000002 13.620000000000001 C 25.41 15.930000000000001, 25.349999999999998 16.395000000000003, 25.08 18.240000000000002 C 24.87 19.62, 24.855000000000004 19.695, 24.660000000000004 21 C 24.48 22.23, 24.39 22.515, 24.299999999999997 23.46 C 24.299999999999997 24.12, 24.299999999999997 24.18, 24.299999999999997 24.78 C 24.299999999999997 25.32, 24.299999999999997 25.515, 24.299999999999997 25.86 C 24.299999999999997 26.01, 24.374999999999996 25.92, 24.299999999999997 26.160000000000004 L 24 26.82" fill="none" stroke="black" stroke-width="2"></path><path d="M 17.88 11.040000000000001 C 17.85 11.43, 17.925 10.83, 17.82 11.82 C 17.64 13.41, 17.655 13.335, 17.46 15 C 17.25 16.740000000000002, 17.189999999999998 16.62, 17.04 18.48 C 16.95 20.46, 16.905 20.85, 16.86 22.44 C 16.86 23.64, 16.86 23.969999999999995, 16.86 24.839999999999996 C 16.86 25.38, 16.86 25.485, 16.86 25.92 C 16.86 26.25, 16.89 26.384999999999998, 16.86 26.58 L 16.740000000000002 26.700000000000003" fill="none" stroke="black" stroke-width="2"></path><path d="M 19.799999999999997 39 C 19.409999999999997 39.75, 19.034999999999997 39.51, 19.02 40.5 C 19.380000000000003 41.730000000000004, 19.32 42.24, 19.740000000000002 42.96 C 20.220000000000002 43.17, 20.250000000000004 43.53, 20.700000000000003 43.38 C 21.12 42.870000000000005, 21.375 43.05, 21.54 42.36 C 21.45 41.489999999999995, 21.825 41.43, 21.36 40.62 C 20.52 39.87, 20.22 39.55499999999999, 19.68 39.12 C 19.44 39, 19.545 38.505, 19.200000000000003 38.88 C 18.75 39.75, 18.479999999999997 39.81, 18.299999999999997 40.62 C 18.39 41.37, 18.15 41.61, 18.48 42.12 C 19.05 42.39, 19.155 42.675000000000004, 19.62 42.660000000000004 C 19.98 42.36, 20.145 42.525000000000006, 20.34 42.06 C 20.369999999999997 41.43, 20.549999999999997 41.25, 20.4 40.8 C 20.07 40.53, 20.025000000000002 40.41, 19.740000000000002 40.26 C 19.5 40.230000000000004, 19.409999999999997 39.915, 19.259999999999998 40.2 C 19.2 40.800000000000004, 19.005000000000003 40.90500000000001, 19.14 41.400000000000006 C 19.47 41.790000000000006, 19.47 42, 19.799999999999997 42.18 L 20.46 42.12" fill="none" stroke="black" stroke-width="2"></path></svg>