<svg width="48" height="48" viewBox="0 0 48 48" xmlns="http://www.w3.org/2000/svg"><path d="M 14.76 24.599999999999998 C 14.670000000000002 23.49, 14.760000000000002 23.564999999999998, 14.580000000000002 22.38 C 14.31 21.119999999999997, 14.265 21.015, 14.04 19.86 C 13.86 18.81, 13.8 18.525, 13.68 17.759999999999998 C 13.62 17.279999999999998, 13.59 17.069999999999997, 13.559999999999999 16.799999999999997 C 13.559999999999999 16.74, 13.559999999999999 16.755, 13.559999999999999 16.68 C 13.559999999999999 16.59, 13.319999999999999 16.665, 13.559999999999999 16.5 C 14.04 16.259999999999998, 14.04 16.2, 14.52 16.02 C 15 15.899999999999999, 14.895 15.959999999999999, 15.48 15.78 C 16.17 15.54, 16.11 15.464999999999998, 16.86 15.299999999999999 C 17.67 15.21, 17.490000000000002 15.165000000000001, 18.48 15.120000000000001 C 19.65 15.120000000000001, 19.755 15.120000000000001, 20.82 15.120000000000001 C 21.78 15.120000000000001, 21.870000000000005 15.120000000000001, 22.740000000000002 15.120000000000001 C 23.52 15.120000000000001, 23.534999999999997 15.120000000000001, 24.299999999999997 15.120000000000001 C 25.049999999999997 15.120000000000001, 25.349999999999998 15.120000000000001, 25.799999999999997 15.120000000000001 C 25.949999999999996 15.120000000000001, 25.949999999999996 15.105, 26.099999999999998 15.120000000000001 C 26.25 15.15, 26.205000000000002 15.105, 26.400000000000002 15.18 C 26.64 15.299999999999999, 26.715000000000003 15.344999999999999, 26.880000000000003 15.419999999999998 C 26.97 15.45, 26.88 15.33, 27.06 15.48 C 27.33 15.75, 27.449999999999996 15.809999999999999, 27.599999999999998 16.02 C 27.630000000000003 16.17, 27.645000000000003 15.945, 27.660000000000004 16.32 C 27.660000000000004 16.92, 27.720000000000006 16.74, 27.660000000000004 17.52 C 27.540000000000003 18.48, 27.705000000000002 18.075000000000003, 27.42 19.44 C 26.97 21.21, 27.060000000000002 21.21, 26.52 22.98 C 25.89 24.75, 25.889999999999997 24.78, 25.259999999999998 26.52 C 24.63 28.23, 24.705 28.23, 24 29.94 C 23.22 31.65, 23.16 31.724999999999998, 22.44 33.36 C 21.78 34.92, 21.57 35.325, 21.12 36.480000000000004 C 20.880000000000003 37.230000000000004, 20.970000000000002 37.155, 20.64 37.980000000000004 C 20.22 38.88, 20.084999999999997 39.150000000000006, 19.799999999999997 39.78 C 19.65 40.14, 19.619999999999997 40.230000000000004, 19.5 40.5 C 19.41 40.68, 19.41 40.65, 19.32 40.86 C 19.23 41.099999999999994, 19.2 41.175, 19.14 41.339999999999996 C 19.11 41.42999999999999, 19.14 41.39999999999999, 19.080000000000002 41.519999999999996 C 18.990000000000002 41.67, 18.945 41.745, 18.9 41.82 C 18.9 41.82, 18.93 41.805, 18.9 41.82 L 18.78 41.88" fill="none" stroke="black" stroke-width="2"></path><path d="M 18 15.059999999999999 C 17.73 13.77, 17.685000000000002 13.77, 17.46 12.48 C 17.28 11.19, 17.25 11.28, 17.1 9.899999999999999 C 16.98 8.43, 16.92 8.174999999999999, 16.86 6.959999999999999 C 16.86 6, 16.86 5.52, 16.86 5.04 L 16.86 5.04" fill="none" stroke="black" stroke-width="2"></path><path d="M 22.98 13.799999999999999 C 22.89 12.059999999999999, 22.845 12.3, 22.799999999999997 10.32 C 22.799999999999997 8.1, 22.799999999999997 7.484999999999999, 22.799999999999997 5.88 C 22.799999999999997 4.890000000000001, 22.799999999999997 4.3950000000000005, 22.799999999999997 3.9000000000000004 L 22.799999999999997 3.9000000000000004" fill="none" stroke="black" stroke-width="2"></path></svg>