<svg width="48" height="48" viewBox="0 0 48 48" xmlns="http://www.w3.org/2000/svg"><path d="M 16.259999999999998 14.399999999999999 C 16.74 14.37, 16.365 14.445, 17.22 14.34 C 18.45 14.16, 18.6 14.07, 19.68 13.98 C 20.61 13.98, 20.655 13.98, 21.54 13.98 C 22.38 13.98, 22.29 13.98, 23.22 13.98 C 24.24 13.98, 24.435 14.025, 25.259999999999998 13.98 C 25.89 13.89, 25.65 13.875, 26.52 13.799999999999999 C 27.630000000000003 13.739999999999998, 27.75 13.725, 28.740000000000002 13.68 C 29.61 13.65, 29.895000000000003 13.635000000000002, 30.48 13.620000000000001 C 30.78 13.620000000000001, 30.854999999999997 13.620000000000001, 31.08 13.620000000000001 C 31.23 13.620000000000001, 31.155 13.38, 31.380000000000003 13.620000000000001 C 31.68 14.100000000000001, 31.785 14.070000000000002, 31.98 14.580000000000002 C 32.07 15.120000000000001, 32.115 14.97, 32.160000000000004 15.66 C 32.160000000000004 16.5, 32.160000000000004 16.56, 32.160000000000004 17.34 C 32.160000000000004 18.060000000000002, 32.160000000000004 17.985, 32.160000000000004 18.78 C 32.160000000000004 19.65, 32.205000000000005 19.92, 32.160000000000004 20.52 C 32.07 20.85, 32.025 20.835, 31.98 21.18 C 31.98 21.54, 31.98 21.63, 31.98 21.9 C 31.98 22.08, 31.98 22.169999999999998, 31.98 22.259999999999998 C 31.98 22.259999999999998, 31.98 22.259999999999998, 31.98 22.259999999999998 C 31.98 22.259999999999998, 32.01 22.229999999999997, 31.98 22.259999999999998 L 31.86 22.38" fill="none" stroke="black" stroke-width="2"></path><path d="M 21.240000000000002 13.799999999999999 C 21.21 13.620000000000001, 21.195 14.235000000000001, 21.18 13.440000000000001 C 21.18 12.030000000000001, 21.285 12.39, 21.18 10.620000000000001 C 20.97 8.49, 20.865 7.9350000000000005, 20.759999999999998 6.36 C 20.759999999999998 5.34, 20.759999999999998 4.95, 20.759999999999998 4.32 C 20.759999999999998 4.08, 20.759999999999998 3.96, 20.759999999999998 3.84 C 20.759999999999998 3.84, 20.759999999999998 3.87, 20.759999999999998 3.84 C 20.759999999999998 3.78, 20.759999999999998 3.8999999999999995, 20.759999999999998 3.7199999999999998 C 20.759999999999998 3.42, 20.759999999999998 3.27, 20.759999999999998 3.12 L 20.759999999999998 3.12" fill="none" stroke="black" stroke-width="2"></path><path d="M 27.18 13.68 C 27.060000000000002 13.17, 27.090000000000003 13.875, 26.94 12.66 C 26.759999999999998 10.74, 26.73 10.455, 26.58 8.82 C 26.459999999999997 7.470000000000001, 26.4 7.26, 26.339999999999996 6.12 C 26.339999999999996 5.1899999999999995, 26.339999999999996 4.8, 26.339999999999996 4.26 C 26.339999999999996 4.109999999999999, 26.339999999999996 4.035, 26.339999999999996 3.96 C 26.339999999999996 3.96, 26.339999999999996 3.96, 26.339999999999996 3.96 C 26.339999999999996 3.96, 26.339999999999996 3.96, 26.339999999999996 3.96 C 26.339999999999996 3.96, 26.339999999999996 3.96, 26.339999999999996 3.96 L 26.339999999999996 3.96" fill="none" stroke="black" stroke-width="2"></path><path d="M 23.28 13.620000000000001 C 23.310000000000002 13.77, 23.325 13.469999999999999, 23.34 13.919999999999998 C 23.34 14.669999999999998, 23.355 14.459999999999997, 23.34 15.419999999999998 C 23.310000000000002 16.589999999999996, 23.34 16.56, 23.28 17.759999999999998 C 23.19 18.99, 23.235 19.034999999999997, 23.1 20.22 C 22.92 21.36, 23.025000000000002 21.255, 22.740000000000002 22.5 C 22.35 23.85, 22.335 24.180000000000003, 21.96 25.200000000000003 C 21.6 25.89, 21.765 25.77, 21.240000000000002 26.58 C 20.55 27.509999999999998, 20.7 27.48, 19.86 28.44 C 18.869999999999997 29.43, 18.825 29.55, 17.88 30.42 C 16.98 31.17, 16.53 31.545, 16.080000000000002 31.92 C 16.080000000000002 31.92, 16.080000000000002 31.92, 16.080000000000002 31.92 L 16.080000000000002 31.92" fill="none" stroke="black" stroke-width="2"></path><path d="M 27.18 29.400000000000002 C 27.24 29.97, 27.359999999999996 29.82, 27.299999999999997 30.54 C 27.119999999999997 31.41, 27.195 31.245, 26.94 32.28 C 26.61 33.480000000000004, 26.610000000000003 33.585, 26.28 34.68 C 25.95 35.67, 26.115 35.730000000000004, 25.619999999999997 36.660000000000004 C 24.959999999999997 37.53, 25.019999999999996 37.56000000000001, 24.299999999999997 38.400000000000006 C 23.52 39.21, 23.775000000000002 39.209999999999994, 22.740000000000002 40.019999999999996 C 21.450000000000003 40.83, 21.36 41.01, 20.16 41.64 C 19.05 42.09, 18.735 42.254999999999995, 17.94 42.54 C 17.46 42.66, 17.52 42.645, 16.98 42.78 L 15.78 43.08" fill="none" stroke="black" stroke-width="2"></path></svg>