<svg width="48" height="48" viewBox="0 0 48 48" xmlns="http://www.w3.org/2000/svg"><path d="M 12.66 44.46 C 12.57 43.17, 12.63 43.38, 12.48 41.88 C 12.27 40.17, 12.27 40.38, 12.059999999999999 38.46 C 11.85 36.33, 11.805 36.435, 11.64 34.2 C 11.52 31.86, 11.459999999999999 31.380000000000003, 11.399999999999999 29.52 C 11.399999999999999 28.14, 11.399999999999999 27.884999999999998, 11.399999999999999 26.759999999999998 C 11.399999999999999 25.89, 11.279999999999998 26.099999999999998, 11.399999999999999 25.02 C 11.639999999999999 23.73, 11.655 23.625, 11.879999999999999 22.44 C 12.09 21.36, 12.059999999999999 21.105, 12.299999999999999 20.28 C 12.57 19.71, 12.629999999999999 19.59, 12.84 19.14 C 12.99 18.810000000000002, 12.825 18.705, 13.14 18.48 C 13.620000000000001 18.36, 13.245000000000001 18.315, 14.100000000000001 18.240000000000002 C 15.33 18.21, 15.719999999999999 18.225, 16.56 18.18 C 17.009999999999998 18.119999999999997, 17.025000000000002 17.955, 17.46 18.06 C 17.88 18.33, 17.864999999999995 18.075000000000003, 18.299999999999997 18.6 C 18.75 19.380000000000003, 18.660000000000004 18.915, 19.200000000000003 20.16 C 19.830000000000002 21.87, 19.875 21.555000000000003, 20.46 23.580000000000002 C 21 25.92, 21.21 26.7, 21.54 28.259999999999998 C 21.66 29.04, 21.69 29.355, 21.78 29.82 C 21.84 29.97, 21.869999999999997 30.044999999999998, 21.9 30.119999999999997 C 21.9 30.119999999999997, 21.9 30.239999999999995, 21.9 30.119999999999997 C 21.9 29.88, 21.854999999999997 30.42, 21.9 29.64 C 21.990000000000002 28.32, 22.035 28.545, 22.080000000000002 27 C 22.080000000000002 25.23, 21.930000000000003 24.72, 22.080000000000002 23.46 C 22.380000000000003 22.71, 22.32 22.815, 22.68 21.96 C 23.1 21, 23.25 20.61, 23.52 20.04 C 23.64 19.86, 23.49 19.875, 23.759999999999998 19.68 C 24.18 19.47, 24.194999999999997 19.319999999999997, 24.599999999999998 19.259999999999998 C 24.990000000000002 19.35, 24.87 19.275000000000002, 25.380000000000003 19.44 C 26.01 19.68, 26.085 19.604999999999997, 26.64 19.919999999999998 C 27.119999999999997 20.310000000000002, 27.15 20.250000000000004, 27.599999999999998 20.700000000000003 C 28.02 21.21, 27.885 20.835, 28.44 21.72 C 29.130000000000003 22.98, 29.220000000000002 22.815, 29.82 24.240000000000002 C 30.33 25.830000000000002, 30.314999999999998 25.425000000000004, 30.839999999999996 27.42 C 31.38 29.82, 31.515 30.045, 31.92 32.22 C 32.19 34.17, 32.235 34.26, 32.46 36.12 C 32.64 37.89, 32.730000000000004 38.475, 32.82 39.660000000000004 C 32.82 40.260000000000005, 32.82 40.41, 32.82 40.86 C 32.82 41.16, 32.82 41.07, 32.82 41.46 C 32.82 41.94, 32.82 41.985, 32.82 42.42 C 32.82 42.81, 32.82 42.885000000000005, 32.82 43.2 C 32.82 43.44, 32.82 43.515, 32.82 43.68 L 32.82 43.86" fill="none" stroke="black" stroke-width="2"></path><path d="M 20.52 33.96 C 19.8 34.59, 19.53 34.62, 19.080000000000002 35.22 C 18.9 35.79, 18.494999999999997 35.925, 18.72 36.36 C 19.35 36.66, 19.44 36.825, 19.98 36.96 C 20.43 36.93000000000001, 20.354999999999997 37.185, 20.88 36.900000000000006 C 21.48 36.36, 21.765 36.285000000000004, 22.080000000000002 35.82 C 22.11 35.43, 22.125 35.31, 22.14 35.04 C 22.14 34.89, 22.14 34.86, 22.14 34.74 C 22.14 34.650000000000006, 22.380000000000003 34.575, 22.14 34.56 C 21.66 34.620000000000005, 21.54 34.485, 21.18 34.68 C 20.94 35.01, 20.865000000000002 35.05499999999999, 20.700000000000003 35.339999999999996 C 20.61 35.58, 20.445 35.535, 20.52 35.82 C 20.759999999999998 36.150000000000006, 20.64 36.285000000000004, 21 36.480000000000004 C 21.48 36.54, 21.54 36.735, 21.96 36.599999999999994 C 22.32 36.269999999999996, 22.44 36.3, 22.68 35.94 C 22.799999999999997 35.55, 22.904999999999998 35.52, 22.919999999999998 35.160000000000004 C 22.83 34.83, 22.98 34.755, 22.740000000000002 34.5 C 22.35 34.32, 22.47 34.17, 21.96 34.14 C 21.330000000000002 34.260000000000005, 21.270000000000003 33.96, 20.700000000000003 34.38 C 20.19 35.1, 19.995 35.34, 19.68 35.82 C 19.560000000000002 36.06, 19.5 36.15, 19.44 36.3 L 19.44 36.42" fill="none" stroke="black" stroke-width="2"></path><path d="M 16.5 42.54 C 17.82 42.480000000000004, 17.76 42.585, 19.14 42.42 C 20.58 42.150000000000006, 20.73 42.045, 22.02 41.88 C 23.159999999999997 41.82, 23.205 41.835, 24.299999999999997 41.76 C 25.35 41.67, 25.755000000000003 41.625, 26.400000000000002 41.58 C 26.64 41.58, 26.730000000000004 41.58, 26.880000000000003 41.58 L 27 41.58" fill="none" stroke="black" stroke-width="2"></path><path d="M 15.78 18.66 C 15.78 17.67, 15.809999999999999 18.405, 15.78 16.68 C 15.719999999999999 14.219999999999999, 15.75 13.95, 15.66 11.76 C 15.54 9.84, 15.569999999999999 9.84, 15.419999999999998 7.92 C 15.239999999999998 6, 15.254999999999999 5.595000000000001, 15.059999999999999 4.08 C 14.85 2.9699999999999998, 14.775 2.61, 14.64 1.8599999999999999 C 14.58 1.47, 14.55 1.275, 14.52 1.08 L 14.52 1.08" fill="none" stroke="black" stroke-width="2"></path><path d="M 25.02 18.66 C 24.990000000000002 15.99, 25.125 16.155, 24.96 13.32 C 24.66 10.32, 24.555 9.63, 24.36 7.32 C 24.27 5.7, 24.27 5.235, 24.18 4.08 C 24.09 3.39, 24.045 3.075, 24 2.7 C 24 2.64, 24 2.6100000000000003, 24 2.58 L 24 2.58" fill="none" stroke="black" stroke-width="2"></path></svg>