<svg width="48" height="48" viewBox="0 0 48 48" xmlns="http://www.w3.org/2000/svg"><path d="M 14.28 21.78 C 15.690000000000001 21.87, 15.705000000000002 21.915, 17.1 21.96 C 18.48 21.96, 18.42 22.020000000000003, 19.86 21.96 C 21.36 21.84, 21.479999999999997 21.884999999999998, 22.86 21.72 C 24.12 21.509999999999998, 24.225 21.584999999999997, 25.380000000000003 21.299999999999997 C 26.43 20.939999999999998, 26.580000000000002 20.97, 27.48 20.580000000000002 C 28.23 20.160000000000004, 28.185 20.370000000000005, 28.98 19.740000000000002 C 29.82 18.9, 30.030000000000005 18.974999999999998, 30.660000000000004 18.06 C 31.080000000000002 17.07, 31.245 16.86, 31.5 16.080000000000002 C 31.59 15.510000000000002, 31.634999999999998 15.585, 31.68 14.940000000000001 C 31.68 14.22, 31.875 14.22, 31.68 13.5 C 31.29 12.78, 31.275000000000002 12.825, 30.900000000000002 12.059999999999999 C 30.54 11.25, 30.585 11.1, 30.18 10.44 C 29.73 9.93, 29.79 10.05, 29.28 9.42 C 28.71 8.67, 28.755000000000003 8.52, 28.14 7.92 C 27.48 7.47, 27.615000000000002 7.5, 26.82 7.02 C 25.89 6.51, 25.92 6.359999999999999, 24.96 6 C 23.97 5.79, 23.880000000000003 5.73, 22.98 5.58 C 22.17 5.49, 22.305 5.445, 21.36 5.4 C 20.28 5.4, 20.355000000000004 5.25, 19.200000000000003 5.4 C 17.970000000000002 5.7, 17.820000000000004 5.61, 16.740000000000002 6 C 15.81 6.4799999999999995, 15.645 6.509999999999999, 14.879999999999999 6.959999999999999 C 14.28 7.38, 14.415 7.200000000000001, 13.68 7.800000000000001 C 12.809999999999999 8.58, 12.719999999999999 8.535, 11.94 9.36 C 11.25 10.23, 11.16 10.065000000000001, 10.56 11.100000000000001 C 10.05 12.3, 10.020000000000001 12.254999999999999, 9.540000000000001 13.5 C 9.09 14.790000000000001, 8.985000000000001 14.850000000000001, 8.64 16.080000000000002 C 8.4 17.25, 8.34 17.279999999999998, 8.16 18.419999999999998 C 8.04 19.53, 7.98 19.365000000000002, 7.92 20.64 C 7.92 22.08, 7.92 22.155, 7.92 23.52 C 7.92 24.81, 7.845 24.9, 7.92 26.099999999999998 C 8.07 27.21, 7.9350000000000005 27.119999999999997, 8.22 28.32 C 8.64 29.61, 8.46 29.61, 9.06 30.900000000000002 C 9.84 32.190000000000005, 9.780000000000001 32.370000000000005, 10.620000000000001 33.480000000000004 C 11.52 34.41, 11.354999999999999 34.455, 12.419999999999998 35.339999999999996 C 13.649999999999999 36.17999999999999, 13.559999999999999 36.345, 14.879999999999999 37.019999999999996 C 16.29 37.53, 15.840000000000003 37.605, 17.700000000000003 38.04 C 20.01 38.4, 19.98 38.519999999999996, 22.32 38.76 C 24.689999999999998 38.879999999999995, 24.9 39.015, 27.06 39 C 29.009999999999998 38.85, 28.98 39, 30.96 38.7 C 32.97 38.25, 33.525000000000006 38.175, 34.980000000000004 37.8 C 35.88 37.5, 36.21 37.410000000000004, 36.78 37.2 C 37.019999999999996 37.08, 37.14 37.02, 37.26 36.96 L 37.26 36.96" fill="none" stroke="black" stroke-width="2"></path></svg>