<svg width="48" height="48" viewBox="0 0 48 48" xmlns="http://www.w3.org/2000/svg"><path d="M 19.200000000000003 19.259999999999998 C 19.200000000000003 17.64, 19.215000000000003 17.505, 19.200000000000003 16.02 C 19.17 14.67, 19.23 14.46, 19.14 13.32 C 18.990000000000002 12.39, 19.095 12.36, 18.84 11.459999999999999 C 18.48 10.59, 18.405 10.395, 18.12 9.72 C 17.910000000000004 9.24, 18.030000000000005 9.120000000000001, 17.700000000000003 8.76 C 17.25 8.52, 17.324999999999996 8.399999999999999, 16.799999999999997 8.28 C 16.2 8.28, 16.245 8.16, 15.600000000000001 8.28 C 14.91 8.52, 14.940000000000001 8.295, 14.22 8.76 C 13.47 9.45, 13.290000000000001 9.39, 12.72 10.14 C 12.33 10.95, 12.285 10.934999999999999, 11.94 11.76 C 11.64 12.600000000000001, 11.625 12.090000000000002, 11.34 13.440000000000001 C 11.07 15.3, 10.905000000000001 15.525, 10.8 17.16 C 10.86 18.57, 10.725 18.915, 10.92 19.98 C 11.25 20.7, 11.025 20.669999999999998, 11.58 21.419999999999998 C 12.36 22.2, 12.48 22.41, 13.14 22.98 C 13.68 23.340000000000003, 13.170000000000002 23.385, 14.22 23.700000000000003 C 15.780000000000001 23.970000000000002, 15.69 24.060000000000002, 17.34 24.240000000000002 C 19.08 24.330000000000002, 19.2 24.375, 20.82 24.42 C 22.32 24.42, 22.65 24.42, 23.82 24.42 C 24.66 24.42, 24.810000000000002 24.42, 25.5 24.42 C 26.04 24.42, 26.099999999999998 24.555000000000003, 26.58 24.42 C 27 24.15, 27.09 24.645, 27.42 23.88 C 27.660000000000004 22.619999999999997, 27.78 22.59, 27.900000000000002 21.36 C 27.900000000000002 20.16, 27.900000000000002 20.64, 27.900000000000002 18.96 C 27.900000000000002 16.8, 27.96 16.785, 27.900000000000002 14.64 C 27.78 12.51, 27.885000000000005 12.465, 27.660000000000004 10.379999999999999 C 27.330000000000002 8.34, 27.270000000000003 7.86, 27 6.300000000000001 C 26.79 5.220000000000001, 26.82 5.07, 26.58 4.14 C 26.31 3.36, 26.22 3.09, 26.04 2.58 C 25.95 2.34, 25.905 2.2199999999999998, 25.86 2.0999999999999996 L 25.86 2.0999999999999996" fill="none" stroke="black" stroke-width="2"></path><path d="M 16.02 23.759999999999998 C 16.11 24.09, 16.065000000000005 23.865000000000002, 16.200000000000003 24.42 C 16.380000000000003 25.200000000000003, 16.244999999999997 25.11, 16.56 25.98 C 17.009999999999998 26.94, 17.115000000000002 27.195000000000004, 17.46 27.900000000000002 C 17.700000000000003 28.35, 17.535 28.244999999999997, 17.94 28.799999999999997 C 18.51 29.459999999999997, 18.51 29.519999999999996, 19.080000000000002 30.119999999999997 C 19.65 30.66, 19.619999999999997 30.720000000000002, 20.22 31.200000000000003 C 20.85 31.62, 20.865000000000002 31.68, 21.48 32.04 C 22.08 32.34, 21.99 32.4, 22.68 32.64 C 23.46 32.82, 23.400000000000002 32.805, 24.240000000000002 33 C 25.14 33.21, 25.455 33.27, 26.04 33.42 C 26.31 33.51, 26.4 33.55499999999999, 26.58 33.599999999999994 C 26.669999999999998 33.599999999999994, 26.714999999999996 33.599999999999994, 26.759999999999998 33.599999999999994 C 26.759999999999998 33.599999999999994, 26.759999999999998 33.599999999999994, 26.759999999999998 33.599999999999994 C 26.759999999999998 33.599999999999994, 26.759999999999998 33.599999999999994, 26.759999999999998 33.599999999999994 C 26.759999999999998 33.599999999999994, 26.79 33.599999999999994, 26.759999999999998 33.599999999999994 C 26.7 33.599999999999994, 26.91 33.599999999999994, 26.64 33.599999999999994 C 26.16 33.599999999999994, 26.415 33.599999999999994, 25.68 33.599999999999994 C 24.69 33.599999999999994, 24.915000000000003 33.53999999999999, 23.700000000000003 33.599999999999994 C 22.26 33.72, 22.14 33.614999999999995, 20.82 33.839999999999996 C 19.619999999999997 34.17, 19.29 34.23, 18.419999999999998 34.5 C 17.88 34.71, 17.895 34.635000000000005, 17.34 34.92 C 16.770000000000003 35.28, 16.680000000000003 35.265, 16.200000000000003 35.64 C 15.81 36.03, 15.809999999999999 35.80500000000001, 15.419999999999998 36.42 C 15.03 37.26, 14.879999999999999 37.425, 14.64 38.099999999999994 C 14.55 38.61, 14.55 38.235, 14.46 39.12 C 14.370000000000001 40.379999999999995, 14.309999999999999 40.305, 14.28 41.64 C 14.309999999999999 43.05, 14.31 43.394999999999996, 14.34 44.46 C 14.37 45.18000000000001, 14.384999999999998 45.480000000000004, 14.399999999999999 45.900000000000006 L 14.399999999999999 46.14" fill="none" stroke="black" stroke-width="2"></path></svg>