<svg width="48" height="48" viewBox="0 0 48 48" xmlns="http://www.w3.org/2000/svg"><path d="M 20.4 14.28 C 20.369999999999997 13.05, 20.52 13.02, 20.34 11.82 C 20.009999999999998 10.65, 20.055 10.575000000000001, 19.68 9.48 C 19.259999999999998 8.46, 19.245 8.16, 18.84 7.4399999999999995 C 18.45 7.02, 18.479999999999997 7.0200000000000005, 18.06 6.6000000000000005 C 17.61 6.18, 17.655 6.105, 17.16 5.76 C 16.62 5.49, 16.71 5.369999999999999, 16.080000000000002 5.22 C 15.360000000000001 5.1899999999999995, 15.165000000000001 5.175, 14.64 5.16 C 14.31 5.16, 14.49 5.07, 13.98 5.16 C 13.290000000000001 5.34, 13.185000000000002 5.295, 12.600000000000001 5.5200000000000005 C 12.120000000000001 5.790000000000001, 12.120000000000001 5.550000000000001, 11.64 6.0600000000000005 C 11.16 6.8100000000000005, 10.995000000000001 6.915000000000001, 10.68 7.5600000000000005 C 10.53 8.100000000000001, 10.59 7.74, 10.379999999999999 8.64 C 10.11 9.9, 9.99 10.035, 9.84 11.16 C 9.809999999999999 12.15, 9.795 11.940000000000001, 9.78 13.14 C 9.78 14.55, 9.735 14.790000000000001, 9.78 15.96 C 9.87 16.89, 9.809999999999999 16.59, 9.959999999999999 17.82 C 10.169999999999998 19.35, 10.094999999999999 19.08, 10.379999999999999 20.88 C 10.74 22.95, 10.845000000000002 23.325, 11.100000000000001 25.02 C 11.25 26.340000000000003, 11.129999999999999 25.665000000000003, 11.399999999999999 27.660000000000004 C 11.79 30.330000000000002, 11.864999999999998 30.585, 12.18 33 C 12.42 35.16, 12.465 35.025, 12.66 37.32 C 12.81 39.75, 12.84 40.38, 12.96 42.18 C 13.05 43.349999999999994, 13.08 43.739999999999995, 13.14 44.519999999999996 C 13.170000000000002 44.91, 13.155000000000001 45.074999999999996, 13.200000000000001 45.3 C 13.260000000000002 45.36, 13.215 45.24, 13.32 45.42 C 13.47 45.72, 13.545000000000002 45.87, 13.620000000000001 46.019999999999996 C 13.620000000000001 46.019999999999996, 13.620000000000001 46.019999999999996, 13.620000000000001 46.019999999999996 C 13.620000000000001 46.019999999999996, 13.620000000000001 46.019999999999996, 13.620000000000001 46.019999999999996 L 13.620000000000001 46.019999999999996" fill="none" stroke="black" stroke-width="2"></path><path d="M 12.48 37.56 C 12.81 37.56, 12.9 37.56, 13.14 37.56 C 13.290000000000001 37.56, 12.855 37.56, 13.440000000000001 37.56 C 14.46 37.56, 14.085 37.68000000000001, 15.48 37.56 C 17.25 37.32, 17.43 37.349999999999994, 19.02 37.08 C 20.43 36.78, 20.58 36.690000000000005, 21.84 36.480000000000004 C 22.95 36.36, 23.009999999999998 36.39, 24.06 36.24 C 25.049999999999997 36.06, 25.095 36.045, 26.04 35.88 C 26.939999999999998 35.730000000000004, 27.179999999999996 35.655, 27.839999999999996 35.58 C 28.259999999999998 35.58, 28.47 35.58, 28.68 35.58 C 28.68 35.58, 28.545 35.58, 28.68 35.58 C 28.95 35.58, 29.009999999999998 35.58, 29.22 35.58 C 29.369999999999997 35.58, 29.384999999999998 35.58, 29.52 35.58 C 29.64 35.58, 29.7 35.58, 29.759999999999998 35.58 L 29.759999999999998 35.58" fill="none" stroke="black" stroke-width="2"></path></svg>