<svg width="48" height="48" viewBox="0 0 48 48" xmlns="http://www.w3.org/2000/svg"><path d="M 17.64 13.559999999999999 C 17.79 13.14, 17.895000000000003 13.665000000000001, 17.94 12.72 C 17.880000000000003 11.25, 17.955000000000002 10.89, 17.82 9.78 C 17.61 9.03, 17.625 9.014999999999999, 17.4 8.28 C 17.159999999999997 7.56, 17.264999999999997 7.484999999999999, 16.919999999999998 6.84 C 16.47 6.27, 16.439999999999998 6.089999999999999, 16.02 5.699999999999999 C 15.629999999999999 5.49, 15.69 5.46, 15.24 5.28 C 14.73 5.13, 14.835 4.845, 14.22 4.9799999999999995 C 13.5 5.4, 13.305 5.19, 12.78 5.82 C 12.45 6.66, 12.465000000000002 6.33, 12.120000000000001 7.5 C 11.76 9, 11.579999999999998 8.985, 11.399999999999999 10.5 C 11.399999999999999 12.03, 11.354999999999999 11.579999999999998, 11.399999999999999 13.559999999999999 C 11.489999999999998 15.989999999999998, 11.309999999999999 16.185, 11.58 18.419999999999998 C 12.030000000000001 20.46, 12.105 20.744999999999997, 12.48 22.5 C 12.780000000000001 23.97, 12.870000000000001 24.540000000000003, 13.080000000000002 25.44 C 13.200000000000001 25.77, 13.260000000000002 25.935, 13.32 26.099999999999998 L 13.32 26.099999999999998" fill="none" stroke="black" stroke-width="2"></path><path d="M 12.24 19.080000000000002 C 12.57 19.080000000000002, 11.579999999999998 19.35, 12.899999999999999 19.080000000000002 C 15.209999999999999 18.54, 15.254999999999999 18.405, 17.52 18 C 19.740000000000002 17.73, 20.400000000000002 17.595, 21.96 17.46 C 22.86 17.46, 22.709999999999997 17.46, 23.759999999999998 17.46 C 24.96 17.46, 25.200000000000003 17.355, 26.160000000000004 17.46 C 26.880000000000003 17.67, 27.075 17.52, 27.599999999999998 17.88 C 27.93 18.39, 27.794999999999998 17.775, 28.259999999999998 18.9 C 28.86 20.64, 29.055 21.15, 29.46 22.38 C 29.67 23.1, 29.775000000000002 23.46, 29.880000000000003 23.82 L 29.880000000000003 23.82" fill="none" stroke="black" stroke-width="2"></path><path d="M 22.86 17.700000000000003 C 23.04 18.450000000000003, 23.13 17.760000000000005, 23.22 19.200000000000003 C 23.22 21.330000000000002, 23.22 20.805, 23.22 23.46 C 23.22 26.64, 23.235 26.73, 23.22 29.82 C 23.189999999999998 32.82, 23.295 33.36, 23.16 35.82 C 22.92 37.74, 22.98 38.07000000000001, 22.68 39.660000000000004 C 22.32 40.92, 22.44 41.055, 21.96 42.18 C 21.36 43.17, 21.479999999999997 43.185, 20.759999999999998 44.160000000000004 C 19.92 45.120000000000005, 19.830000000000002 45.285, 19.080000000000002 46.08 C 18.42 46.709999999999994, 18.09 47.025, 17.759999999999998 47.339999999999996 L 17.759999999999998 47.339999999999996" fill="none" stroke="black" stroke-width="2"></path></svg>