<svg width="48" height="48" viewBox="0 0 48 48" xmlns="http://www.w3.org/2000/svg"><path d="M 19.080000000000002 11.16 C 18.57 9.600000000000001, 18.9 9.63, 18.06 8.040000000000001 C 16.89 6.420000000000001, 16.59 5.790000000000001, 15.72 4.800000000000001 C 15.150000000000002 4.44, 15.135000000000002 4.335, 14.580000000000002 4.08 C 14.040000000000001 3.93, 14.190000000000001 3.5250000000000004, 13.5 3.7800000000000002 C 12.66 4.4399999999999995, 12.405000000000001 4.335, 11.82 5.1 C 11.49 5.97, 11.325 5.82, 11.16 6.84 C 11.16 8.01, 11.175 7.26, 11.16 9.18 C 11.13 11.85, 10.875000000000002 12.149999999999999, 11.100000000000001 14.52 C 11.58 16.59, 11.625 16.965, 12.059999999999999 18.66 C 12.45 19.979999999999997, 12.555 20.354999999999997, 12.84 21.299999999999997 C 13.02 21.869999999999997, 13.080000000000002 21.990000000000002, 13.200000000000001 22.44 C 13.260000000000002 22.770000000000003, 13.275 22.89, 13.32 23.1 C 13.35 23.19, 13.29 23.1, 13.379999999999999 23.28 C 13.53 23.55, 13.605 23.685000000000002, 13.68 23.82 C 13.68 23.82, 13.68 23.82, 13.68 23.82 L 13.68 23.82" fill="none" stroke="black" stroke-width="2"></path><path d="M 12.66 17.22 C 13.8 17.189999999999998, 12.900000000000002 17.46, 14.940000000000001 17.16 C 17.880000000000003 16.59, 18.375 16.425, 20.82 16.02 C 22.77 15.78, 22.965 15.66, 24.72 15.54 C 26.279999999999998 15.54, 26.729999999999997 15.434999999999999, 27.839999999999996 15.54 C 28.5 15.75, 28.620000000000005 15.600000000000001, 29.160000000000004 15.96 C 29.580000000000002 16.47, 29.595 15.9, 30 16.98 C 30.39 18.630000000000003, 30.525000000000002 18.900000000000002, 30.78 20.28 C 30.9 21.39, 30.975 21.42, 31.02 22.5 L 30.96 24.599999999999998" fill="none" stroke="black" stroke-width="2"></path><path d="M 21.18 15.24 C 21.24 15.84, 21.24 14.955000000000002, 21.299999999999997 16.44 C 21.36 18.810000000000002, 21.644999999999996 18.705000000000002, 21.419999999999998 21.18 C 20.909999999999997 23.759999999999998, 21.134999999999998 23.474999999999994, 20.4 26.339999999999996 C 19.439999999999998 29.49, 19.515 29.97, 18.48 32.64 C 17.369999999999997 34.83, 17.31 35.06999999999999, 16.259999999999998 37.019999999999996 C 15.27 38.73, 15.27 39.165, 14.28 40.44 C 13.29 41.28, 12.884999999999998 41.669999999999995, 12.299999999999999 42.12 L 11.94 42.24" fill="none" stroke="black" stroke-width="2"></path><path d="M 26.28 32.04 C 25.71 34.29, 25.770000000000003 34.32, 25.14 36.54 C 24.45 38.730000000000004, 24.375 39.315, 23.759999999999998 40.92 C 23.22 41.94, 23.384999999999998 42.015, 22.68 42.96 C 21.810000000000002 43.83, 21.735 44.115, 20.94 44.7 L 19.5 45.3" fill="none" stroke="black" stroke-width="2"></path></svg>