<svg width="48" height="48" viewBox="0 0 48 48" xmlns="http://www.w3.org/2000/svg"><path d="M 18.9 12.66 C 18.96 12.18, 19.064999999999998 12.524999999999999, 19.02 11.7 C 18.869999999999997 10.53, 18.9 10.379999999999999, 18.72 9.36 C 18.509999999999998 8.49, 18.509999999999998 8.34, 18.299999999999997 7.62 C 18.089999999999996 7.050000000000001, 18.165 6.930000000000001, 17.88 6.48 C 17.52 6.15, 17.715 6.165000000000001, 17.16 5.82 C 16.41 5.46, 16.245 5.279999999999999, 15.66 5.1 C 15.24 5.1, 15.255 5.1, 14.82 5.1 C 14.37 5.1, 14.279999999999998 5.01, 13.919999999999998 5.1 C 13.649999999999999 5.279999999999999, 13.694999999999999 5.04, 13.379999999999999 5.46 C 13.02 6.119999999999999, 12.96 6.1049999999999995, 12.66 6.779999999999999 C 12.42 7.47, 12.344999999999999 7.425, 12.18 8.16 C 12.09 8.940000000000001, 12.06 8.97, 12 9.72 C 11.969999999999999 10.440000000000001, 11.955 10.29, 11.94 11.16 C 11.94 12.18, 11.94 12.120000000000001, 11.94 13.200000000000001 C 11.94 14.34, 11.94 14.325000000000001, 11.94 15.48 C 11.94 16.65, 11.895 16.53, 11.94 17.82 C 12.030000000000001 19.23, 11.985000000000001 19.455000000000002, 12.120000000000001 20.64 C 12.3 21.6, 12.285 21.255, 12.48 22.56 C 12.69 24.21, 12.614999999999998 24.24, 12.899999999999999 25.86 C 13.26 27.45, 13.365000000000002 27.765, 13.620000000000001 29.04 C 13.77 30, 13.769999999999998 30.240000000000002, 13.919999999999998 30.96 C 14.07 31.44, 14.085 31.32, 14.22 31.92 C 14.34 32.64, 14.34 32.7, 14.46 33.36 C 14.580000000000002 33.96, 14.580000000000002 34.08, 14.700000000000001 34.56 C 14.82 34.92, 14.820000000000002 34.965, 14.940000000000001 35.28 C 15.06 35.55, 15.120000000000001 35.685, 15.18 35.82 L 15.18 35.82" fill="none" stroke="black" stroke-width="2"></path><path d="M 12.600000000000001 19.56 C 12.840000000000002 19.439999999999998, 12.555000000000001 19.38, 13.080000000000002 19.32 C 13.89 19.32, 13.98 19.32, 14.700000000000001 19.32 C 15.330000000000002 19.32, 15.435000000000002 19.29, 15.96 19.32 C 16.38 19.380000000000003, 16.455 19.365000000000002, 16.799999999999997 19.44 C 17.07 19.53, 16.919999999999998 19.26, 17.34 19.62 C 17.91 20.25, 17.97 20.115, 18.48 20.88 C 18.93 21.78, 19.005 21.794999999999998, 19.38 22.68 C 19.68 23.55, 19.8 23.625, 19.98 24.42 C 20.04 25.14, 20.025000000000002 25.335, 20.1 25.86 C 20.19 26.189999999999998, 20.235 26.355, 20.28 26.52 C 20.28 26.52, 20.28 26.52, 20.28 26.52 C 20.28 26.52, 20.28 26.52, 20.28 26.52 C 20.28 26.52, 20.28 26.52, 20.28 26.52 C 20.28 26.52, 20.115000000000002 26.595, 20.28 26.52 C 20.61 26.369999999999997, 20.505000000000003 26.34, 20.94 26.22 C 21.48 26.13, 21.45 26.085, 22.02 26.04 C 22.619999999999997 26.04, 22.665 26.04, 23.22 26.04 C 23.73 26.04, 23.715000000000003 25.935, 24.240000000000002 26.04 C 24.78 26.25, 24.84 26.025, 25.32 26.46 C 25.740000000000002 27.12, 25.830000000000005 27.225, 26.160000000000004 27.78 C 26.400000000000002 28.23, 26.46 28.185000000000002, 26.64 28.68 C 26.76 29.22, 26.82 29.25, 26.880000000000003 29.759999999999998 C 26.880000000000003 30.24, 26.880000000000003 30.21, 26.880000000000003 30.72 C 26.880000000000003 31.259999999999998, 26.970000000000002 31.229999999999997, 26.880000000000003 31.799999999999997 C 26.700000000000003 32.4, 26.73 32.46, 26.52 33 C 26.28 33.480000000000004, 26.28 33.465, 26.04 33.96 C 25.799999999999997 34.47, 25.695 34.59, 25.56 34.980000000000004 C 25.53 35.25, 25.515 35.385, 25.5 35.519999999999996 L 25.5 35.519999999999996" fill="none" stroke="black" stroke-width="2"></path><path d="M 11.399999999999999 37.32 C 11.669999999999998 37.08, 11.28 37.11, 11.94 36.839999999999996 C 12.989999999999998 36.54, 12.645 36.66, 14.04 36.24 C 15.78 35.7, 15.405 35.550000000000004, 17.52 35.160000000000004 C 20.009999999999998 34.92, 20.009999999999998 34.980000000000004, 22.5 34.68 C 24.990000000000002 34.32, 25.740000000000002 34.065, 27.48 33.96 C 28.47 34.11, 28.755000000000003 34.155, 29.46 34.26 L 30.299999999999997 34.38" fill="none" stroke="black" stroke-width="2"></path><path d="M 11.34 40.44 C 11.85 40.44, 11.235 40.379999999999995, 12.36 40.44 C 14.1 40.56, 13.425 40.62, 15.84 40.68 C 18.93 40.68, 19.485 40.68, 22.02 40.68 C 24 40.68, 24.105 40.68, 25.98 40.68 C 27.75 40.68, 28.59 40.68, 29.52 40.68 L 29.700000000000003 40.68" fill="none" stroke="black" stroke-width="2"></path></svg>