<svg width="48" height="48" viewBox="0 0 48 48" xmlns="http://www.w3.org/2000/svg"><path d="M 20.52 17.22 C 20.58 17.04, 20.61 17.4, 20.64 16.86 C 20.64 15.959999999999999, 20.64 15.974999999999998, 20.64 15.059999999999999 C 20.64 14.129999999999999, 20.715 13.98, 20.64 13.200000000000001 C 20.490000000000002 12.57, 20.535 12.495, 20.34 11.94 C 20.1 11.46, 20.07 11.445, 19.86 10.98 C 19.68 10.530000000000001, 19.68 10.485, 19.5 10.08 C 19.32 9.719999999999999, 19.41 9.719999999999999, 19.14 9.36 C 18.78 9, 18.75 8.940000000000001, 18.419999999999998 8.64 C 18.119999999999997 8.4, 18.18 8.325, 17.82 8.16 C 17.4 8.07, 17.43 8.025, 16.98 7.98 C 16.5 7.98, 16.53 7.98, 16.02 7.98 C 15.48 7.98, 15.495000000000001 7.800000000000001, 14.940000000000001 7.98 C 14.370000000000001 8.34, 14.19 8.415, 13.799999999999999 8.7 C 13.59 8.91, 13.604999999999999 8.805000000000001, 13.379999999999999 9.120000000000001 C 13.139999999999999 9.54, 13.169999999999998 9.329999999999998, 12.899999999999999 9.959999999999999 C 12.599999999999998 10.8, 12.54 10.77, 12.299999999999999 11.64 C 12.12 12.540000000000001, 12.09 12.57, 11.94 13.440000000000001 C 11.82 14.280000000000001, 11.805 13.995000000000001, 11.7 15.120000000000001 C 11.61 16.53, 11.565 16.635, 11.52 17.94 C 11.52 19.14, 11.52 18.945, 11.52 20.34 C 11.52 21.93, 11.594999999999999 21.63, 11.52 23.52 C 11.370000000000001 25.71, 11.295 26.025000000000002, 11.22 27.900000000000002 C 11.22 29.46, 11.22 29.55, 11.22 31.02 C 11.22 32.4, 11.22 32.43, 11.22 33.78 C 11.22 35.1, 11.22 35.445, 11.22 36.42 C 11.22 37.05, 11.22 36.825, 11.22 37.68 C 11.22 38.76, 11.22 38.894999999999996, 11.22 39.839999999999996 C 11.22 40.65, 11.22 40.845, 11.22 41.46 C 11.22 41.879999999999995, 11.190000000000001 41.81999999999999, 11.22 42.3 C 11.280000000000001 42.84, 11.31 43.02, 11.34 43.38 C 11.34 43.56, 11.34 43.650000000000006, 11.34 43.74 L 11.34 43.74" fill="none" stroke="black" stroke-width="2"></path><path d="M 11.22 24.660000000000004 C 11.64 24.540000000000003, 11.339999999999998 24.570000000000004, 12.059999999999999 24.42 C 13.08 24.240000000000002, 13.020000000000001 24.21, 14.100000000000001 24.06 C 15.24 23.939999999999998, 15.044999999999998 23.88, 16.38 23.82 C 17.91 23.82, 18.105 23.805, 19.44 23.82 C 20.58 23.85, 20.835 23.685, 21.72 23.88 C 22.35 24.24, 22.23 24.014999999999997, 22.98 24.599999999999998 C 23.85 25.409999999999997, 24.015 25.349999999999998, 24.72 26.22 C 25.259999999999998 27.15, 25.334999999999997 27, 25.799999999999997 28.08 C 26.189999999999998 29.31, 26.309999999999995 29.595, 26.58 30.54 C 26.73 31.2, 26.790000000000003 31.019999999999996, 26.880000000000003 31.86 C 26.910000000000004 32.88, 26.925 33.120000000000005, 26.94 33.900000000000006 C 26.94 34.440000000000005, 26.94 34.68000000000001, 26.94 34.980000000000004 C 26.94 35.04, 26.910000000000004 34.99499999999999, 26.94 35.099999999999994 C 27 35.25, 27.03 35.325, 27.06 35.400000000000006 C 27.06 35.400000000000006, 27.029999999999998 35.355000000000004, 27.06 35.400000000000006 C 27.119999999999997 35.49, 27.029999999999998 35.625, 27.18 35.58 C 27.42 35.4, 27.165000000000003 35.504999999999995, 27.660000000000004 35.22 C 28.410000000000004 34.83, 28.455000000000005 34.68, 29.160000000000004 34.44 C 29.82 34.349999999999994, 29.895000000000003 34.305, 30.48 34.26 C 30.990000000000002 34.26, 31.02 34.095, 31.5 34.26 C 31.950000000000003 34.59, 31.830000000000005 34.395, 32.400000000000006 34.92 C 33.09 35.64, 33.27 35.715, 33.78 36.36 C 34.11 36.93, 34.245 36.84, 34.44 37.5 C 34.5 38.25, 34.53 38.415, 34.56 39 C 34.56 39.42, 34.56 39.495, 34.56 39.839999999999996 C 34.56 40.11, 34.56 39.99, 34.56 40.38 C 34.56 40.89, 34.56 41.010000000000005, 34.56 41.400000000000006 C 34.56 41.67, 34.56 41.805, 34.56 41.94 C 34.56 41.94, 34.56 41.91, 34.56 41.94 L 34.56 42.06" fill="none" stroke="black" stroke-width="2"></path><path d="M 17.700000000000003 29.46 C 17.520000000000003 29.43, 17.52 29.145000000000003, 17.34 29.400000000000002 C 17.16 29.94, 17.04 29.94, 16.98 30.48 C 17.04 31.02, 16.86 31.125, 17.1 31.56 C 17.520000000000003 31.89, 17.64 32.055, 17.94 32.22 C 18.119999999999997 32.22, 18.119999999999997 32.22, 18.299999999999997 32.22 C 18.479999999999997 32.22, 18.494999999999997 32.445, 18.66 32.22 C 18.810000000000002 31.77, 18.96 31.814999999999998, 18.96 31.32 C 18.810000000000002 30.78, 18.84 30.615000000000002, 18.66 30.240000000000002 C 18.450000000000003 30.03, 18.405 29.94, 18.240000000000002 29.82 C 18.12 29.79, 18.15 29.7, 18 29.759999999999998 C 17.82 29.909999999999997, 17.775 29.685, 17.64 30.06 C 17.55 30.659999999999997, 17.490000000000002 30.794999999999998, 17.46 31.259999999999998 C 17.490000000000002 31.59, 17.37 31.68, 17.52 31.92 C 17.79 32.07, 17.775 32.19, 18.06 32.22 C 18.36 32.129999999999995, 18.39 32.325, 18.66 32.04 C 18.9 31.56, 19.02 31.619999999999997, 19.14 31.08 C 19.14 30.48, 19.245 30.375000000000004, 19.14 29.880000000000003 C 18.93 29.490000000000002, 18.945 29.339999999999996, 18.72 29.099999999999998 C 18.48 29.009999999999998, 18.555 28.68, 18.240000000000002 28.92 C 17.85 29.490000000000002, 17.595 29.505, 17.46 30.06 C 17.580000000000002 30.6, 17.490000000000002 30.72, 17.700000000000003 31.14 L 18.299999999999997 31.740000000000002" fill="none" stroke="black" stroke-width="2"></path><path d="M 14.22 39.900000000000006 C 14.879999999999999 39.900000000000006, 14.61 39.900000000000006, 15.54 39.900000000000006 C 16.740000000000002 39.900000000000006, 16.770000000000003 39.885000000000005, 17.94 39.900000000000006 C 19.08 39.93000000000001, 19.424999999999997 39.885000000000005, 20.22 39.96 C 20.67 40.08, 20.82 40.14, 21.12 40.2 C 21.27 40.2, 21.284999999999997 40.2, 21.419999999999998 40.2 L 21.66 40.2" fill="none" stroke="black" stroke-width="2"></path></svg>