<svg width="48" height="48" viewBox="0 0 48 48" xmlns="http://www.w3.org/2000/svg"><path d="M 20.04 23.64 C 20.04 23.19, 20.04 23.325000000000003, 20.04 22.740000000000002 C 20.04 22.02, 20.16 22.169999999999998, 20.04 21.299999999999997 C 19.799999999999997 20.279999999999998, 19.845 20.339999999999996, 19.56 19.259999999999998 C 19.229999999999997 18.119999999999997, 19.185 17.775, 18.9 16.98 C 18.659999999999997 16.53, 18.644999999999996 16.380000000000003, 18.419999999999998 16.080000000000002 C 18.21 15.93, 18.375 15.915, 18 15.78 C 17.46 15.66, 17.4 15.584999999999999, 16.919999999999998 15.54 C 16.5 15.57, 16.605 15.315000000000001, 16.080000000000002 15.600000000000001 C 15.450000000000001 16.14, 15.345 16.185, 14.82 16.68 C 14.4 17.130000000000003, 14.55 16.785000000000004, 13.98 17.580000000000002 C 13.26 18.72, 13.11 18.78, 12.54 19.86 C 12.12 20.88, 11.969999999999999 20.985, 11.7 21.9 C 11.579999999999998 22.71, 11.52 22.65, 11.459999999999999 23.52 C 11.459999999999999 24.450000000000003, 11.384999999999998 24.735000000000003, 11.459999999999999 25.380000000000003 C 11.61 25.740000000000002, 11.43 25.665, 11.76 26.099999999999998 C 12.27 26.61, 12.014999999999999 26.624999999999996, 12.78 27.119999999999997 C 13.8 27.599999999999998, 13.53 27.705, 14.82 28.08 C 16.380000000000003 28.349999999999998, 16.695 28.455, 17.94 28.619999999999997 C 18.869999999999997 28.68, 18.764999999999997 28.71, 19.799999999999997 28.740000000000002 C 20.939999999999998 28.740000000000002, 20.775000000000002 28.830000000000002, 22.080000000000002 28.740000000000002 C 23.55 28.560000000000002, 23.82 28.725, 25.02 28.380000000000003 C 25.950000000000003 27.87, 26.19 27.735, 26.880000000000003 27.36 C 27.330000000000002 27.12, 27.270000000000003 27.21, 27.78 26.880000000000003 C 28.35 26.46, 28.515 26.445, 28.92 26.04 C 29.160000000000004 25.65, 29.250000000000004 26.009999999999998, 29.400000000000002 25.259999999999998 C 29.46 24.15, 29.52 24.674999999999997, 29.52 23.04 C 29.46 20.88, 29.700000000000003 20.955, 29.400000000000002 18.72 C 28.86 16.41, 28.86 16.425, 28.32 14.100000000000001 C 27.78 11.760000000000002, 27.75 11.235, 27.240000000000002 9.42 C 26.76 8.129999999999999, 26.76 8.07, 26.28 6.84 C 25.8 5.67, 25.695 5.355, 25.32 4.5 C 25.05 3.96, 24.96 3.78, 24.78 3.42 C 24.689999999999998 3.24, 24.735 3.33, 24.599999999999998 3.06 C 24.42 2.7, 24.330000000000002 2.52, 24.240000000000002 2.34 C 24.240000000000002 2.34, 24.240000000000002 2.34, 24.240000000000002 2.34 C 24.240000000000002 2.34, 24.240000000000002 2.34, 24.240000000000002 2.34 C 24.240000000000002 2.34, 24.240000000000002 2.34, 24.240000000000002 2.34 C 24.240000000000002 2.34, 24.240000000000002 2.34, 24.240000000000002 2.34 L 24.240000000000002 2.34" fill="none" stroke="black" stroke-width="2"></path><path d="M 15 28.02 C 15 28.619999999999997, 14.879999999999999 28.485, 15 29.22 C 15.24 30.09, 15.045 30.3, 15.48 30.96 C 16.11 31.41, 16.05 31.395, 16.740000000000002 31.86 C 17.490000000000002 32.34, 17.25 32.265, 18.240000000000002 32.82 C 19.470000000000002 33.45, 19.515000000000004 33.585, 20.700000000000003 34.08 C 21.840000000000003 34.44, 21.825000000000003 34.485, 22.98 34.8 C 24.15 35.06999999999999, 24.375 35.144999999999996, 25.32 35.339999999999996 C 26.04 35.459999999999994, 26.13 35.459999999999994, 26.759999999999998 35.58 C 27.299999999999997 35.7, 27.524999999999995 35.76, 27.839999999999996 35.82 C 27.93 35.82, 27.974999999999998 35.82, 28.02 35.82 C 28.02 35.82, 28.02 35.82, 28.02 35.82 C 28.02 35.82, 28.02 35.76, 28.02 35.82 C 28.02 35.94, 28.634999999999998 35.79, 28.02 36.06 C 26.79 36.480000000000004, 26.669999999999998 36.45, 25.56 36.900000000000006 C 24.57 37.38, 24.75 37.29, 23.580000000000002 37.86 C 22.23 38.519999999999996, 21.99 38.61, 20.88 39.18 C 20.009999999999998 39.66, 20.22 39.33, 19.14 40.14 C 17.85 41.28, 17.505 41.475, 16.56 42.42 C 15.959999999999999 43.17, 15.84 43.2, 15.36 43.92 C 15 44.61, 14.865 44.82, 14.64 45.3 C 14.55 45.56999999999999, 14.505 45.584999999999994, 14.46 45.839999999999996 C 14.46 46.08, 14.46 46.2, 14.46 46.32 L 14.46 46.32" fill="none" stroke="black" stroke-width="2"></path><path d="M 11.64 36.06 C 12 36.27, 11.774999999999999 36, 12.36 36.480000000000004 C 13.17 37.230000000000004, 13.23 37.30500000000001, 13.98 37.980000000000004 C 14.67 38.58, 14.715 38.625, 15.36 39.18 C 15.959999999999999 39.69, 16.125 39.81, 16.56 40.2 C 16.83 40.47, 16.815 40.455000000000005, 17.1 40.74 C 17.400000000000002 41.04, 17.550000000000004 41.19, 17.700000000000003 41.339999999999996 C 17.700000000000003 41.339999999999996, 17.700000000000003 41.339999999999996, 17.700000000000003 41.339999999999996 L 17.700000000000003 41.339999999999996" fill="none" stroke="black" stroke-width="2"></path></svg>