<svg width="48" height="48" viewBox="0 0 48 48" xmlns="http://www.w3.org/2000/svg"><path d="M 19.080000000000002 23.580000000000002 C 18.72 22.560000000000002, 18.705 22.38, 18.36 21.54 C 18.03 20.88, 18.225 21.18, 17.700000000000003 20.22 C 16.98 18.96, 16.95 18.690000000000005, 16.259999999999998 17.700000000000003 C 15.6 16.98, 15.48 16.814999999999998, 14.940000000000001 16.259999999999998 C 14.520000000000001 15.87, 14.430000000000001 15.809999999999999, 14.100000000000001 15.48 C 13.860000000000001 15.21, 13.875 15.090000000000002, 13.620000000000001 14.940000000000001 C 13.350000000000001 14.91, 13.530000000000001 14.864999999999998, 13.080000000000002 14.879999999999999 C 12.450000000000001 14.94, 12.375 14.58, 11.82 15 C 11.34 15.78, 11.25 15.87, 10.86 16.56 C 10.559999999999999 17.159999999999997, 10.515 16.889999999999997, 10.26 17.759999999999998 C 10.05 18.9, 9.945 19.08, 9.84 20.04 C 9.84 20.82, 9.84 20.745, 9.84 21.6 C 9.84 22.53, 9.75 22.410000000000004, 9.84 23.46 C 10.02 24.63, 10.004999999999999 24.944999999999997, 10.2 25.799999999999997 C 10.41 26.34, 10.275 26.430000000000003, 10.620000000000001 26.880000000000003 C 11.100000000000001 27.240000000000002, 10.635000000000002 27.24, 11.58 27.599999999999998 C 12.989999999999998 27.96, 12.794999999999998 28.14, 14.399999999999999 28.32 C 16.2 28.32, 16.38 28.32, 18 28.32 C 19.439999999999998 28.32, 19.59 28.32, 20.88 28.32 C 22.02 28.32, 22.02 28.44, 23.16 28.32 C 24.3 28.08, 24.495 28.184999999999995, 25.44 27.839999999999996 C 26.19 27.39, 26.415000000000003 27.465, 26.94 26.94 C 27.240000000000002 26.340000000000003, 27.39 26.385, 27.54 25.740000000000002 C 27.54 25.05, 27.54 25.395, 27.54 24.36 C 27.54 22.98, 27.705 23.355, 27.54 21.6 C 27.21 19.47, 27.255000000000003 19.995, 26.880000000000003 17.34 C 26.46 14.16, 26.43 13.695, 26.04 10.98 C 25.68 8.73, 25.605 8.07, 25.32 6.48 C 25.11 5.550000000000001, 25.005000000000003 5.085, 24.900000000000002 4.62 C 24.900000000000002 4.62, 24.900000000000002 4.62, 24.900000000000002 4.62 C 24.900000000000002 4.62, 24.900000000000002 4.62, 24.900000000000002 4.62 L 24.900000000000002 4.62" fill="none" stroke="black" stroke-width="2"></path><path d="M 17.82 33.599999999999994 C 17.76 33.72, 17.730000000000004 33.705, 17.700000000000003 33.839999999999996 C 17.700000000000003 33.989999999999995, 17.610000000000003 33.96, 17.700000000000003 34.14 C 17.880000000000003 34.35, 17.88 34.410000000000004, 18.06 34.56 C 18.24 34.650000000000006, 18.209999999999997 34.83, 18.419999999999998 34.74 C 18.659999999999997 34.47, 18.779999999999998 34.545, 18.9 34.2 C 18.9 33.78, 18.99 33.66, 18.9 33.36 C 18.72 33.18, 18.839999999999996 33.09, 18.54 33 C 18.12 33, 18.165000000000003 32.79, 17.700000000000003 33 C 17.19 33.42, 16.95 33.525, 16.68 33.839999999999996 C 16.65 34.05, 16.455000000000002 34.019999999999996, 16.62 34.26 C 16.98 34.53, 17.025 34.605, 17.34 34.8 C 17.61 34.92, 17.535 35.129999999999995, 17.88 35.04 C 18.299999999999997 34.739999999999995, 18.404999999999998 34.949999999999996, 18.72 34.44 C 18.93 33.72, 19.035 33.435, 19.14 33 C 19.14 32.85, 19.185000000000002 32.865, 19.14 32.7 C 19.05 32.519999999999996, 19.275000000000002 32.25, 18.96 32.339999999999996 C 18.42 32.7, 18.15 32.655, 17.88 33.06 C 17.88 33.510000000000005, 17.775 33.54, 17.88 33.96 C 18.089999999999996 34.35, 18.15 34.53, 18.299999999999997 34.74 C 18.39 34.769999999999996, 18.435 34.785, 18.48 34.8 C 18.48 34.8, 18.315 34.98, 18.48 34.8 C 18.810000000000002 34.44, 18.975 34.515, 19.14 34.08 C 19.14 33.57, 19.14 33.315, 19.14 33.06 C 19.14 33.06, 19.17 33.075, 19.14 33.06 C 19.08 33.03, 19.17 32.775, 19.02 33 C 18.78 33.480000000000004, 18.78 33.375, 18.54 33.96 C 18.299999999999997 34.65, 18.119999999999997 34.86, 18.06 35.339999999999996 C 18.18 35.61, 18.194999999999997 35.685, 18.299999999999997 35.88 C 18.39 36, 18.33 36.074999999999996, 18.48 36.12 C 18.689999999999998 36.09, 18.72 36.465, 18.9 36.06 C 19.05 35.28, 19.125 35.055, 19.200000000000003 34.5 C 19.200000000000003 34.17, 19.290000000000003 34.125, 19.200000000000003 33.839999999999996 C 19.020000000000003 33.599999999999994, 19.200000000000003 33.48, 18.84 33.36 L 17.759999999999998 33.36" fill="none" stroke="black" stroke-width="2"></path><path d="M 10.8 43.14 C 12.36 42.900000000000006, 12.27 42.93000000000001, 13.919999999999998 42.660000000000004 C 15.659999999999998 42.36, 15.509999999999998 42.375, 17.4 42.06 C 19.439999999999998 41.730000000000004, 19.605 41.64000000000001, 21.48 41.400000000000006 C 23.19 41.25, 23.445000000000004 41.175, 24.900000000000002 41.099999999999994 C 26.1 41.099999999999994, 26.7 41.099999999999994, 27.299999999999997 41.099999999999994 C 27.299999999999997 41.099999999999994, 27.299999999999997 41.099999999999994, 27.299999999999997 41.099999999999994 L 27.299999999999997 41.099999999999994" fill="none" stroke="black" stroke-width="2"></path></svg>