<svg width="48" height="48" viewBox="0 0 48 48" xmlns="http://www.w3.org/2000/svg"><path d="M 19.38 13.14 C 19.5 13.290000000000001, 19.650000000000002 14.130000000000003, 19.62 13.440000000000001 C 19.439999999999998 11.91, 19.529999999999998 11.7, 19.259999999999998 10.379999999999999 C 18.9 9.27, 18.854999999999997 9, 18.54 8.16 C 18.27 7.59, 18.314999999999998 7.545, 18 7.02 C 17.64 6.54, 17.595 6.36, 17.28 6.0600000000000005 C 17.01 5.94, 17.115000000000002 5.970000000000001, 16.740000000000002 5.82 C 16.26 5.640000000000001, 16.47 5.595, 15.78 5.46 C 14.879999999999999 5.37, 14.850000000000001 5.325, 13.98 5.28 C 13.14 5.28, 13.065 5.19, 12.299999999999999 5.28 C 11.61 5.46, 11.715 5.16, 10.92 5.64 C 10.02 6.42, 9.9 6.284999999999999, 9.120000000000001 7.199999999999999 C 8.46 8.25, 8.31 8.325, 7.800000000000001 9.3 C 7.44 10.200000000000001, 7.32 10.230000000000002, 7.08 11.100000000000001 C 6.96 11.940000000000001, 6.9 11.79, 6.84 12.78 C 6.84 13.919999999999998, 6.84 13.919999999999998, 6.84 15.059999999999999 C 6.84 16.2, 6.84 15.93, 6.84 17.34 C 6.84 19.020000000000003, 6.795 19.500000000000004, 6.84 20.700000000000003 C 6.93 21.42, 6.81 21.270000000000003, 7.02 22.14 C 7.35 23.16, 7.32 23.265, 7.68 24.18 C 8.07 24.99, 8.009999999999998 25.08, 8.459999999999999 25.799999999999997 C 8.969999999999999 26.43, 8.985 26.549999999999997, 9.48 27.06 C 9.96 27.449999999999996, 9.899999999999999 27.629999999999995, 10.44 27.839999999999996 C 11.04 27.869999999999997, 11.025 27.975, 11.64 27.900000000000002 C 12.27 27.72, 12.45 27.765, 12.899999999999999 27.54 C 13.17 27.27, 13.14 27.345, 13.440000000000001 27 C 13.770000000000001 26.580000000000002, 13.755000000000003 26.730000000000004, 14.100000000000001 26.160000000000004 C 14.46 25.44, 14.565000000000001 25.47, 14.82 24.72 C 14.97 23.939999999999998, 15.045000000000002 23.685, 15.120000000000001 23.16 C 15.120000000000001 22.89, 15.120000000000001 22.92, 15.120000000000001 22.62 C 15.120000000000001 22.29, 15.090000000000002 22.17, 15.120000000000001 21.96 C 15.18 21.87, 15.135000000000002 21.72, 15.24 21.78 C 15.39 21.990000000000002, 15.434999999999999 21.750000000000004, 15.54 22.200000000000003 C 15.6 22.89, 15.585 22.965000000000003, 15.66 23.580000000000002 C 15.75 24.120000000000005, 15.66 24.075000000000003, 15.84 24.660000000000004 C 16.11 25.290000000000003, 15.899999999999999 25.260000000000005, 16.38 25.92 C 17.07 26.61, 16.784999999999997 26.595, 17.759999999999998 27.299999999999997 C 19.02 28.02, 18.78 28.230000000000004, 20.28 28.740000000000002 C 22.02 29.04, 22.334999999999997 29.264999999999997, 23.759999999999998 29.339999999999996 C 24.869999999999997 29.189999999999998, 24.975 29.505, 25.98 29.04 C 26.880000000000003 28.259999999999998, 27.270000000000003 27.915, 27.78 27.48 C 27.9 27.39, 27.96 27.345, 28.02 27.299999999999997 L 28.02 27.299999999999997" fill="none" stroke="black" stroke-width="2"></path><path d="M 21 33.36 C 20.4 33.03, 20.564999999999998 32.94, 19.799999999999997 32.7 C 18.869999999999997 32.550000000000004, 19.02 32.17500000000001, 17.94 32.400000000000006 C 16.71 33, 16.650000000000002 32.684999999999995, 15.48 33.599999999999994 C 14.370000000000001 34.83, 14.055 35.04, 13.26 36.06 C 12.78 36.870000000000005, 12.6 36.81, 12.299999999999999 37.68 C 12.18 38.61, 12.075 38.355, 12.059999999999999 39.54 C 12.149999999999999 40.980000000000004, 11.955 41.385000000000005, 12.24 42.42 C 12.72 43.05, 12.540000000000001 43.155, 13.200000000000001 43.68 C 14.04 44.099999999999994, 13.889999999999999 44.25, 14.879999999999999 44.519999999999996 C 16.02 44.64, 15.915 44.834999999999994, 17.16 44.76 C 18.509999999999998 44.489999999999995, 18.855 44.714999999999996, 19.86 44.22 C 20.52 43.5, 20.7 43.605000000000004, 21.18 42.78 C 21.48 41.85, 21.615000000000002 41.760000000000005, 21.78 40.92 C 21.810000000000002 40.17, 21.795 40.38, 21.84 39.42 C 21.9 38.25, 21.945 38.1, 21.96 37.08 C 21.93 36.209999999999994, 22.095 36.13499999999999, 21.9 35.339999999999996 C 21.54 34.620000000000005, 21.494999999999997 34.515, 21.18 33.900000000000006 C 20.91 33.39, 20.91 33.19500000000001, 20.64 32.88 C 20.37 32.760000000000005, 20.295 32.730000000000004, 20.1 32.64 L 19.86 32.519999999999996" fill="none" stroke="black" stroke-width="2"></path><path d="M 11.94 39.599999999999994 C 12.57 39.69, 12.135 39.795, 13.200000000000001 39.78 C 14.700000000000003 39.66, 14.865000000000004 39.6, 16.200000000000003 39.54 C 17.37 39.54, 17.55 39.6, 18.54 39.54 C 19.35 39.42, 19.634999999999998 39.36, 20.16 39.3 C 20.4 39.3, 20.475 39.3, 20.64 39.3 C 20.73 39.3, 20.685000000000002 39.3, 20.82 39.3 C 21 39.3, 21.015 39.3, 21.18 39.3 C 21.33 39.3, 21.405 39.3, 21.48 39.3 L 21.48 39.3" fill="none" stroke="black" stroke-width="2"></path></svg>