<svg width="48" height="48" viewBox="0 0 48 48" xmlns="http://www.w3.org/2000/svg"><path d="M 19.080000000000002 12.54 C 19.05 11.79, 19.08 11.655000000000001, 19.02 11.040000000000001 C 18.93 10.56, 18.990000000000002 10.59, 18.84 10.08 C 18.63 9.54, 18.75 9.51, 18.419999999999998 9 C 17.97 8.52, 18.03 8.55, 17.52 8.040000000000001 C 16.95 7.5, 16.875 7.35, 16.38 6.959999999999999 C 15.959999999999999 6.72, 16.064999999999998 6.6, 15.54 6.48 C 14.91 6.48, 15.225 6.4350000000000005, 14.28 6.48 C 13.02 6.57, 12.705 6.33, 11.76 6.66 C 11.129999999999999 7.23, 11.04 7.23, 10.5 7.800000000000001 C 10.05 8.370000000000001, 10.005000000000003 8.295, 9.600000000000001 8.94 C 9.24 9.66, 9.239999999999998 9.524999999999999, 8.879999999999999 10.379999999999999 C 8.52 11.37, 8.475 11.16, 8.16 12.36 C 7.890000000000001 13.77, 7.815 13.785, 7.62 15.18 C 7.5 16.560000000000002, 7.4399999999999995 16.830000000000002, 7.38 17.94 C 7.38 18.78, 7.38 18.51, 7.38 19.62 C 7.38 21, 7.32 21.18, 7.38 22.38 C 7.5 23.4, 7.4399999999999995 23.520000000000003, 7.62 24.42 C 7.860000000000001 25.200000000000003, 7.710000000000002 25.17, 8.100000000000001 25.98 C 8.64 26.82, 8.64 26.970000000000002, 9.18 27.660000000000004 C 9.719999999999999 28.200000000000003, 9.78 28.35, 10.26 28.740000000000002 C 10.68 28.98, 10.71 29.055, 11.100000000000001 29.22 C 11.46 29.310000000000002, 11.46 29.355, 11.82 29.400000000000002 C 12.18 29.400000000000002, 12.194999999999999 29.400000000000002, 12.54 29.400000000000002 C 12.870000000000001 29.400000000000002, 12.825000000000001 29.415000000000003, 13.200000000000001 29.400000000000002 C 13.620000000000001 29.369999999999997, 13.485 29.729999999999997, 14.04 29.339999999999996 C 14.729999999999999 28.589999999999996, 14.864999999999998 28.544999999999995, 15.419999999999998 27.839999999999996 C 15.839999999999998 27.18, 15.899999999999999 27.284999999999997, 16.259999999999998 26.52 C 16.56 25.65, 16.65 25.635, 16.86 24.78 C 16.98 23.94, 17.04 23.520000000000003, 17.1 23.1 C 17.1 23.1, 17.1 23.1, 17.1 23.1 C 17.1 23.1, 17.1 23.07, 17.1 23.1 C 17.1 23.16, 17.1 22.935, 17.1 23.22 C 17.1 23.73, 17.1 23.730000000000004, 17.1 24.240000000000002 C 17.1 24.75, 17.055 24.735, 17.1 25.259999999999998 C 17.19 25.799999999999997, 17.1 25.754999999999995, 17.28 26.339999999999996 C 17.55 26.97, 17.4 27.15, 17.82 27.599999999999998 C 18.39 27.869999999999997, 18.36 27.84, 18.96 28.14 C 19.59 28.47, 19.68 28.514999999999997, 20.22 28.799999999999997 C 20.67 29.04, 20.490000000000002 29.13, 21.12 29.28 C 21.93 29.340000000000003, 21.645000000000003 29.37, 22.740000000000002 29.400000000000002 C 24.12 29.400000000000002, 24.509999999999998 29.430000000000003, 25.5 29.400000000000002 C 26.1 29.340000000000003, 26.400000000000002 29.310000000000002, 26.700000000000003 29.28 C 26.700000000000003 29.28, 26.700000000000003 29.28, 26.700000000000003 29.28 L 26.700000000000003 29.28" fill="none" stroke="black" stroke-width="2"></path><path d="M 7.62 37.980000000000004 C 8.25 37.980000000000004, 8.19 38.07000000000001, 8.879999999999999 37.980000000000004 C 9.629999999999999 37.8, 8.79 37.83, 10.379999999999999 37.62 C 12.809999999999999 37.379999999999995, 12.945 37.305, 15.24 37.14 C 17.4 37.05, 17.759999999999998 37.005, 19.56 36.96 C 21 36.96, 21.240000000000002 36.96, 22.44 36.96 C 23.4 36.96, 23.43 36.96, 24.36 36.96 C 25.26 36.96, 25.485000000000003 36.96, 26.160000000000004 36.96 C 26.61 36.96, 26.744999999999997 36.96, 27.06 36.96 C 27.240000000000002 36.96, 27.3 36.96, 27.42 36.96 L 27.54 36.96" fill="none" stroke="black" stroke-width="2"></path></svg>