<svg width="48" height="48" viewBox="0 0 48 48" xmlns="http://www.w3.org/2000/svg"><path d="M 19.5 15.120000000000001 C 19.5 14.280000000000001, 19.5 14.685000000000002, 19.5 13.440000000000001 C 19.5 11.790000000000001, 19.605 11.580000000000002, 19.5 10.14 C 19.29 8.91, 19.305 8.7, 19.080000000000002 7.68 C 18.840000000000003 6.87, 18.915000000000003 6.705, 18.6 6.0600000000000005 C 18.21 5.58, 18.12 5.445, 17.82 5.1 C 17.61 4.89, 17.715 4.8149999999999995, 17.4 4.68 C 16.979999999999997 4.62, 17.025 4.59, 16.56 4.5600000000000005 C 16.049999999999997 4.5600000000000005, 16.185 4.5600000000000005, 15.54 4.5600000000000005 C 14.76 4.5600000000000005, 14.655000000000001 4.425000000000001, 13.98 4.5600000000000005 C 13.41 4.83, 13.35 4.725, 12.84 5.1 C 12.39 5.58, 12.495 5.040000000000001, 11.94 6.0600000000000005 C 11.280000000000001 7.62, 11.100000000000001 7.305, 10.620000000000001 9.18 C 10.32 11.37, 10.23 11.415, 10.02 13.559999999999999 C 9.899999999999999 15.659999999999998, 9.84 15.629999999999997, 9.78 17.759999999999998 C 9.78 19.92, 9.78 19.68, 9.78 22.080000000000002 C 9.78 24.72, 9.764999999999999 24.75, 9.78 27.36 C 9.809999999999999 29.939999999999998, 9.825 29.984999999999996, 9.84 32.519999999999996 C 9.84 35.01, 9.795 35.655, 9.84 37.5 C 9.93 38.7, 9.719999999999999 38.370000000000005, 10.02 39.900000000000006 C 10.530000000000001 41.760000000000005, 10.515 42.21, 11.040000000000001 43.62 C 11.580000000000002 44.58, 11.475000000000001 44.864999999999995, 12.120000000000001 45.54 C 12.870000000000001 45.93, 13.080000000000002 46.095, 13.620000000000001 46.32 C 13.95 46.379999999999995, 14.04 46.41, 14.28 46.44 C 14.43 46.44, 14.310000000000002 46.589999999999996, 14.580000000000002 46.44 C 14.97 46.14, 14.715 46.47, 15.36 45.839999999999996 C 16.259999999999998 44.879999999999995, 16.35 44.775, 17.16 43.92 C 17.880000000000003 43.17, 18.045 43.08, 18.6 42.42 C 18.990000000000002 41.85, 19.08 42, 19.38 41.28 C 19.589999999999996 40.41, 19.694999999999997 40.545, 19.799999999999997 39.54 C 19.799999999999997 38.4, 19.799999999999997 37.83, 19.799999999999997 37.26 C 19.799999999999997 37.26, 19.799999999999997 37.26, 19.799999999999997 37.26 L 19.799999999999997 37.26" fill="none" stroke="black" stroke-width="2"></path><path d="M 10.56 21.299999999999997 C 11.88 21.33, 12.120000000000001 21.09, 13.200000000000001 21.36 C 14.04 21.869999999999997, 13.934999999999999 21.405, 14.879999999999999 22.38 C 15.93 23.82, 16.23 24.014999999999997, 16.98 25.259999999999998 C 17.43 26.31, 17.625 26.505, 17.88 27.36 C 17.939999999999998 28.02, 17.91 28.275, 18 28.68 C 18.12 28.83, 18.18 28.905, 18.240000000000002 28.98 C 18.240000000000002 28.98, 18.195000000000004 29.325000000000003, 18.240000000000002 28.98 C 18.33 28.29, 18.27 28.514999999999997, 18.419999999999998 27.599999999999998 C 18.63 26.46, 18.419999999999998 26.4, 18.84 25.32 C 19.47 24.3, 19.560000000000002 24.015, 20.1 23.28 C 20.55 22.83, 20.415 22.695, 21 22.38 C 21.72 22.2, 21.660000000000004 22.035, 22.44 22.02 C 23.28 22.17, 23.189999999999998 21.93, 24.119999999999997 22.32 C 25.14 22.950000000000003, 25.110000000000003 22.830000000000002, 26.160000000000004 23.580000000000002 C 27.240000000000002 24.450000000000003, 27.345000000000002 24.27, 28.32 25.32 C 29.189999999999998 26.55, 29.474999999999998 26.700000000000003, 30.06 27.78 C 30.36 28.71, 30.315000000000005 28.335, 30.660000000000004 29.64 C 31.050000000000004 31.32, 31.155 31.32, 31.44 33 C 31.619999999999997 34.68, 31.679999999999996 34.935, 31.799999999999997 36.36 C 31.86 37.53, 31.86 37.575, 31.92 38.7 C 31.98 39.78, 32.01 39.855000000000004, 32.04 40.86 C 32.04 41.79, 32.04 41.91, 32.04 42.72 C 32.04 43.41, 32.04 43.529999999999994, 32.04 44.099999999999994 C 32.04 44.55, 32.04 44.55, 32.04 45 C 32.04 45.45, 32.04 45.675000000000004, 32.04 45.900000000000006 C 32.04 45.900000000000006, 32.04 45.900000000000006, 32.04 45.900000000000006 C 32.04 45.900000000000006, 32.04 45.900000000000006, 32.04 45.900000000000006 L 32.04 45.900000000000006" fill="none" stroke="black" stroke-width="2"></path></svg>