<svg width="48" height="48" viewBox="0 0 48 48" xmlns="http://www.w3.org/2000/svg"><path d="M 14.16 9.120000000000001 C 14.79 8.88, 14.924999999999997 8.760000000000002, 15.419999999999998 8.64 C 15.78 8.64, 15.765 8.64, 16.14 8.64 C 16.53 8.64, 16.47 8.595, 16.919999999999998 8.64 C 17.43 8.73, 17.52 8.7, 17.94 8.82 C 18.270000000000003 8.97, 18.18 8.82, 18.6 9.120000000000001 C 19.11 9.57, 19.155 9.585, 19.62 10.02 C 20.04 10.44, 20.085 10.41, 20.46 10.86 C 20.79 11.34, 20.835 11.325, 21.12 11.82 C 21.36 12.33, 21.42 12.315000000000001, 21.6 12.84 C 21.72 13.379999999999999, 21.735 13.184999999999999, 21.84 13.919999999999998 C 21.93 14.849999999999998, 22.02 14.669999999999998, 22.02 15.78 C 21.93 17.07, 22.005 17.294999999999998, 21.84 18.36 C 21.6 19.2, 21.705 18.884999999999998, 21.36 20.04 C 20.91 21.509999999999998, 20.85 21.615000000000002, 20.46 22.98 C 20.13 24.240000000000002, 20.114999999999995 24.195, 19.799999999999997 25.5 C 19.5 26.85, 19.485000000000003 26.955000000000002, 19.200000000000003 28.200000000000003 C 18.93 29.340000000000003, 18.915 29.385, 18.66 30.48 C 18.42 31.53, 18.3 31.5, 18.18 32.58 C 18.18 33.69, 18.21 33.614999999999995, 18.18 34.8 C 18.119999999999997 36.06, 18.09 36.254999999999995, 18.06 37.32 C 18.06 38.19, 17.97 38.175000000000004, 18.06 39.06 C 18.24 39.96, 18.119999999999997 40.11, 18.419999999999998 40.86 C 18.839999999999996 41.46, 18.764999999999997 41.535000000000004, 19.259999999999998 42.06 C 19.83 42.510000000000005, 19.95 42.675, 20.4 42.96 C 20.729999999999997 43.08, 20.669999999999998 43.11, 21.06 43.2 C 21.509999999999998 43.260000000000005, 21.39 43.29, 21.96 43.32 C 22.65 43.32, 22.740000000000002 43.365, 23.34 43.32 C 23.85 43.230000000000004, 23.849999999999998 43.29, 24.36 43.14 C 24.87 42.93, 24.705000000000002 43.2, 25.380000000000003 42.72 C 26.22 41.97, 26.28 42.269999999999996, 27.06 41.22 C 27.78 39.87, 27.855 40.05, 28.5 38.519999999999996 C 29.07 36.809999999999995, 29.310000000000002 36.239999999999995, 29.64 35.099999999999994 C 29.73 34.53, 29.775 34.245, 29.82 33.96 C 29.82 33.96, 29.82 33.96, 29.82 33.96 L 29.82 33.96" fill="none" stroke="black" stroke-width="2"></path><path d="M 21.240000000000002 19.68 C 21.48 19.2, 21.525 19.259999999999998, 21.72 18.72 C 21.869999999999997 18.119999999999997, 21.794999999999998 18.15, 22.02 17.52 C 22.32 16.86, 22.41 16.755000000000003, 22.62 16.200000000000003 C 22.740000000000002 15.75, 22.65 15.855, 22.86 15.299999999999999 C 23.16 14.64, 23.145000000000003 14.67, 23.46 13.98 C 23.79 13.26, 23.79 13.155, 24.119999999999997 12.54 C 24.45 12.03, 24.405 11.985, 24.78 11.52 C 25.2 11.1, 25.11 11.129999999999999, 25.619999999999997 10.68 C 26.22 10.2, 26.205 10.08, 26.82 9.72 C 27.45 9.48, 27.509999999999998 9.36, 28.08 9.24 C 28.589999999999996 9.24, 28.574999999999996 9.165, 29.099999999999998 9.24 C 29.64 9.39, 29.625 9.330000000000002, 30.18 9.540000000000001 C 30.75 9.81, 30.87 9.795, 31.32 10.08 C 31.65 10.379999999999999, 31.68 10.365, 31.98 10.68 C 32.25 11.01, 32.385 11.175, 32.519999999999996 11.34 L 32.519999999999996 11.34" fill="none" stroke="black" stroke-width="2"></path></svg>