<svg width="48" height="48" viewBox="0 0 48 48" xmlns="http://www.w3.org/2000/svg"><path d="M 10.68 5.5200000000000005 C 11.309999999999999 5.609999999999999, 11.265 5.624999999999999, 11.94 5.699999999999999 C 12.66 5.76, 12.78 5.6850000000000005, 13.379999999999999 5.82 C 13.86 6.03, 13.89 6.03, 14.34 6.24 C 14.76 6.45, 14.64 6.33, 15.18 6.66 C 15.84 7.11, 15.87 7.095000000000001, 16.5 7.5600000000000005 C 17.1 8.04, 17.115000000000002 7.9799999999999995, 17.700000000000003 8.52 C 18.270000000000003 9.120000000000001, 18.315 9.135000000000002, 18.84 9.72 C 19.32 10.29, 19.424999999999997 10.365, 19.799999999999997 10.86 C 20.07 11.28, 20.085 11.25, 20.34 11.7 C 20.58 12.18, 20.565 12.105, 20.82 12.66 C 21.09 13.29, 21.119999999999997 13.319999999999999, 21.36 13.919999999999998 C 21.57 14.489999999999998, 21.645000000000003 14.609999999999998, 21.78 15.059999999999999 C 21.84 15.39, 21.765 15.195, 21.9 15.72 C 22.11 16.44, 22.17 16.485, 22.32 17.16 C 22.41 17.79, 22.41 17.58, 22.5 18.419999999999998 C 22.59 19.47, 22.634999999999998 19.695, 22.68 20.52 C 22.68 21.119999999999997, 22.68 20.939999999999998, 22.68 21.72 C 22.68 22.68, 22.695 22.68, 22.68 23.64 C 22.65 24.6, 22.755000000000003 24.57, 22.62 25.56 C 22.380000000000003 26.58, 22.485 26.519999999999996, 22.14 27.599999999999998 C 21.69 28.740000000000002, 21.630000000000003 29.01, 21.240000000000002 29.880000000000003 C 20.910000000000004 30.48, 21.015 30.36, 20.580000000000002 31.08 C 20.04 31.919999999999998, 20.07 31.904999999999998, 19.5 32.76 C 18.9 33.629999999999995, 18.809999999999995 33.78, 18.299999999999997 34.5 C 17.88 35.07, 17.88 35.13, 17.46 35.64 C 17.04 36.09, 17.310000000000002 35.94, 16.62 36.54 C 15.66 37.29, 15.510000000000002 37.455, 14.700000000000001 38.04 C 14.04 38.46, 14.07 38.49, 13.379999999999999 38.88 C 12.66 39.239999999999995, 12.299999999999999 39.419999999999995, 11.94 39.599999999999994 C 11.94 39.599999999999994, 11.94 39.599999999999994, 11.94 39.599999999999994 L 11.94 39.599999999999994" fill="none" stroke="black" stroke-width="2"></path><path d="M 22.259999999999998 16.200000000000003 C 22.23 16.23, 22.110000000000003 16.365, 22.200000000000003 16.259999999999998 C 22.410000000000004 16.02, 22.335 16.275, 22.62 15.78 C 22.98 15.03, 22.92 15.225, 23.34 14.28 C 23.82 13.14, 23.865 13.035, 24.299999999999997 12 C 24.689999999999998 11.07, 24.63 10.98, 25.08 10.14 C 25.589999999999996 9.39, 25.589999999999996 9.255, 26.099999999999998 8.64 C 26.61 8.16, 26.459999999999997 8.175, 27.119999999999997 7.68 C 27.93 7.17, 27.915 7.08, 28.740000000000002 6.66 C 29.580000000000002 6.33, 29.580000000000005 6.255, 30.42 6 C 31.259999999999998 5.82, 31.349999999999994 5.7749999999999995, 32.099999999999994 5.64 C 32.76 5.55, 33.015 5.505, 33.42 5.46 L 33.72 5.46" fill="none" stroke="black" stroke-width="2"></path><path d="M 29.58 28.56 C 29.64 28.799999999999997, 29.715000000000003 28.365, 29.700000000000003 29.04 C 29.61 30.15, 29.745 30.089999999999996, 29.52 31.259999999999998 C 29.159999999999997 32.489999999999995, 29.234999999999996 32.519999999999996, 28.799999999999997 33.72 C 28.29 34.89, 28.32 34.86, 27.78 36.06 C 27.21 37.29, 27.21 37.47, 26.64 38.519999999999996 C 26.07 39.39, 26.145 39.495, 25.5 40.26 C 24.78 40.92, 24.99 40.98, 24.06 41.58 C 22.92 42.120000000000005, 22.59 42.255, 21.78 42.660000000000004 C 21.3 42.93000000000001, 21.135 43.035000000000004, 20.82 43.2 L 20.52 43.32" fill="none" stroke="black" stroke-width="2"></path></svg>