<svg width="48" height="48" viewBox="0 0 48 48" xmlns="http://www.w3.org/2000/svg"><path d="M 14.100000000000001 5.4 C 14.07 7.29, 14.055 7.02, 14.04 9.18 C 14.04 11.61, 14.04 11.715, 14.04 14.04 C 14.04 16.259999999999998, 13.889999999999999 16.545, 14.04 18.48 C 14.34 20.130000000000003, 14.385000000000002 20.295, 14.64 21.78 C 14.85 23.1, 14.909999999999998 23.505000000000003, 15.059999999999999 24.42 C 15.149999999999999 24.93, 15.06 24.825000000000003, 15.24 25.44 C 15.51 26.160000000000004, 15.569999999999999 26.430000000000003, 15.78 26.880000000000003 C 15.93 27.060000000000002, 15.795000000000002 26.955000000000002, 16.080000000000002 27.240000000000002 C 16.5 27.630000000000003, 16.485 27.705, 16.919999999999998 28.02 C 17.369999999999997 28.259999999999998, 17.175 28.335, 17.82 28.5 C 18.66 28.59, 18.3 28.634999999999998, 19.5 28.68 C 21.060000000000002 28.68, 20.64 28.68, 22.62 28.68 C 25.020000000000003 28.68, 25.665000000000003 28.68, 27.42 28.68 C 28.53 28.68, 29.01 28.68, 29.64 28.68 C 29.79 28.68, 29.82 28.68, 29.94 28.68 C 30.03 28.68, 29.985 28.89, 30.119999999999997 28.68 C 30.299999999999997 28.259999999999998, 30.225 28.619999999999997, 30.48 27.839999999999996 C 30.810000000000002 26.699999999999996, 30.915 26.624999999999996, 31.14 25.56 C 31.26 24.57, 31.32 25.125, 31.380000000000003 23.580000000000002 C 31.380000000000003 21.48, 31.590000000000003 21.735, 31.380000000000003 19.38 C 30.96 16.77, 30.990000000000002 16.695, 30.54 14.16 C 30.06 11.7, 29.865 11.325, 29.58 9.24 C 29.490000000000002 7.53, 29.490000000000002 6.9, 29.400000000000002 5.82 C 29.310000000000002 5.37, 29.31 5.415, 29.22 4.92 C 29.13 4.38, 29.085 4.109999999999999, 29.04 3.84 C 29.04 3.84, 29.04 3.84, 29.04 3.84 L 29.04 3.84" fill="none" stroke="black" stroke-width="2"></path><path d="M 14.04 10.98 C 14.669999999999998 11.64, 14.37 11.204999999999998, 15.299999999999999 12.299999999999999 C 16.529999999999998 13.829999999999998, 16.589999999999996 14.055, 17.759999999999998 15.36 C 18.869999999999997 16.439999999999998, 18.93 16.545, 19.98 17.52 C 20.97 18.39, 21.195 18.525, 21.96 19.259999999999998 C 22.5 19.86, 22.634999999999998 19.995, 23.04 20.46 C 23.310000000000002 20.79, 23.445 20.955000000000002, 23.580000000000002 21.12 C 23.580000000000002 21.12, 23.37 21.255000000000003, 23.580000000000002 21.12 C 24 20.85, 23.82 21.360000000000003, 24.42 20.580000000000002 C 25.200000000000003 19.29, 25.305 19.41, 25.98 18 C 26.549999999999997 16.47, 26.58 16.275000000000002, 27.119999999999997 14.940000000000001 C 27.63 13.8, 27.555 13.695, 28.14 12.66 C 28.8 11.73, 29.07 11.34, 29.46 10.8 C 29.580000000000002 10.65, 29.565000000000005 10.71, 29.700000000000003 10.5 C 29.85 10.23, 29.925 10.094999999999999, 30 9.959999999999999 C 30 9.959999999999999, 30 9.959999999999999, 30 9.959999999999999 L 30 9.959999999999999" fill="none" stroke="black" stroke-width="2"></path><path d="M 16.62 40.08 C 16.560000000000002 40.14, 16.53 40.17, 16.5 40.2 C 16.5 40.2, 16.5 40.2, 16.5 40.2 C 16.5 40.2, 16.515 40.2, 16.5 40.2 C 16.47 40.2, 16.26 40.425000000000004, 16.44 40.2 C 16.83 39.75, 16.665 39.69, 17.22 39.3 C 17.939999999999998 38.97, 17.685 39, 18.66 38.64 C 19.89 38.25, 19.635 38.205, 21.12 37.86 C 22.86 37.56, 23.04 37.41, 24.599999999999998 37.26 C 25.979999999999997 37.26, 26.055 37.184999999999995, 27.36 37.26 C 28.59 37.41, 28.905 37.38, 29.82 37.56 C 30.42 37.77, 30.615 37.875, 31.02 37.980000000000004 L 31.44 37.980000000000004" fill="none" stroke="black" stroke-width="2"></path></svg>