<svg width="48" height="48" viewBox="0 0 48 48" xmlns="http://www.w3.org/2000/svg"><path d="M 13.68 43.08 C 13.68 41.04, 13.739999999999998 41.370000000000005, 13.68 39 C 13.56 36.3, 13.5 35.849999999999994, 13.440000000000001 33.599999999999994 C 13.440000000000001 31.799999999999997, 13.440000000000001 31.185, 13.440000000000001 30 C 13.440000000000001 29.43, 13.395000000000001 29.549999999999997, 13.440000000000001 28.86 C 13.530000000000001 28.05, 13.515 28.080000000000002, 13.620000000000001 27.240000000000002 C 13.74 26.37, 13.695 26.384999999999998, 13.86 25.5 C 14.07 24.6, 14.084999999999999 24.39, 14.28 23.700000000000003 C 14.46 23.220000000000002, 14.445 23.190000000000005, 14.64 22.740000000000002 C 14.85 22.32, 14.684999999999999 22.365, 15.059999999999999 21.9 C 15.6 21.39, 15.36 21.24, 16.14 20.88 C 17.16 20.67, 17.1 20.580000000000002, 18.18 20.46 C 19.32 20.43, 18.855 20.445, 20.46 20.4 C 22.53 20.34, 22.755 20.385, 24.599999999999998 20.28 C 26.22 20.130000000000003, 26.879999999999995 20.07, 27.839999999999996 19.98 C 28.14 19.95, 28.245 19.935, 28.44 19.919999999999998 C 28.53 19.919999999999998, 28.395 19.784999999999997, 28.619999999999997 19.919999999999998 C 28.979999999999997 20.189999999999998, 29.039999999999996 20.085, 29.339999999999996 20.46 C 29.58 20.939999999999998, 29.564999999999998 20.595, 29.82 21.419999999999998 C 30.09 22.589999999999996, 30.18 22.379999999999995, 30.36 23.759999999999998 C 30.45 25.35, 30.509999999999998 24.555, 30.54 26.94 C 30.509999999999998 30.119999999999997, 30.645 30.525, 30.48 33.3 C 30.18 35.67, 30.105000000000004 36.239999999999995, 29.880000000000003 38.04 C 29.73 39.269999999999996, 29.729999999999997 39.51, 29.58 40.5 C 29.43 41.25, 29.355 41.519999999999996, 29.28 42 C 29.28 42.21, 29.28 42.27, 29.28 42.42 C 29.28 42.51, 29.37 42.52499999999999, 29.28 42.599999999999994 L 28.92 42.72" fill="none" stroke="black" stroke-width="2"></path><path d="M 22.200000000000003 29.880000000000003 C 21.51 30.240000000000002, 21.405 29.744999999999997, 20.82 30.599999999999998 C 20.34 31.949999999999996, 20.04 32.415, 19.86 33.3 C 19.98 33.72, 19.62 33.989999999999995, 20.1 34.14 C 20.94 34.02, 21.060000000000002 34.35000000000001, 21.78 33.900000000000006 C 22.380000000000003 33.120000000000005, 22.665 33.239999999999995, 22.98 32.339999999999996 C 23.009999999999998 31.319999999999997, 23.205 31.034999999999997, 23.04 30.299999999999997 C 22.68 29.85, 22.95 29.43, 22.32 29.400000000000002 C 21.42 29.79, 21.075 29.37, 20.52 30.18 C 20.310000000000002 31.41, 19.98 31.725, 20.1 32.64 C 20.55 33.239999999999995, 20.505 33.705, 21 33.839999999999996 C 21.54 33.51, 21.795 33.615, 22.080000000000002 33.18 C 22.11 32.64, 22.17 32.41499999999999, 22.14 32.099999999999994 C 22.05 32.01, 22.275000000000002 31.755000000000003, 21.96 31.92 C 21.42 32.34, 21.18 32.324999999999996, 20.88 32.76 C 20.82 33.21, 20.775 33.345000000000006, 20.759999999999998 33.660000000000004 C 20.79 33.84, 20.655 33.915, 20.82 34.019999999999996 C 21.119999999999997 34.05, 21 34.515, 21.419999999999998 34.08 C 21.96 33.18, 22.23 32.775000000000006, 22.5 32.28 C 22.5 32.19, 22.5 32.144999999999996, 22.5 32.099999999999994 C 22.5 32.099999999999994, 22.5 32.129999999999995, 22.5 32.099999999999994 L 22.5 31.98" fill="none" stroke="black" stroke-width="2"></path><path d="M 15.24 6.779999999999999 C 15.66 7.44, 15.375000000000002 6.645000000000001, 16.080000000000002 8.100000000000001 C 17.07 10.350000000000001, 17.189999999999998 10.815000000000001, 18.06 12.600000000000001 C 18.81 13.920000000000002, 18.974999999999998 14.175, 19.56 15.24 C 19.979999999999997 16.05, 20.025 16.05, 20.4 16.86 C 20.729999999999997 17.67, 20.759999999999998 17.79, 21.06 18.48 C 21.33 19.05, 21.405 19.185000000000002, 21.6 19.62 C 21.72 19.92, 21.78 20.07, 21.84 20.22 C 21.84 20.22, 21.81 20.159999999999997, 21.84 20.22 C 21.9 20.34, 21.915 20.385, 21.96 20.46 C 21.990000000000002 20.490000000000002, 21.93 20.715, 22.02 20.52 C 22.17 20.1, 22.095 20.505, 22.32 19.68 C 22.619999999999997 18.45, 22.455 18.869999999999997, 22.919999999999998 17.22 C 23.549999999999997 15.15, 23.535 14.970000000000002, 24.18 13.080000000000002 C 24.84 11.370000000000001, 25.064999999999998 10.77, 25.5 9.66 C 25.71 9.15, 25.695 9.15, 25.92 8.64 C 26.160000000000004 8.13, 26.220000000000002 7.995, 26.400000000000002 7.62 C 26.520000000000003 7.38, 26.580000000000002 7.26, 26.64 7.14 L 26.64 7.14" fill="none" stroke="black" stroke-width="2"></path></svg>