<svg width="48" height="48" viewBox="0 0 48 48" xmlns="http://www.w3.org/2000/svg"><path d="M 11.58 28.68 C 12.030000000000001 28.95, 11.16 28.904999999999998, 12.48 29.22 C 14.67 29.58, 14.76 29.73, 16.86 29.94 C 18.869999999999997 30, 19.604999999999997 30.165, 20.88 30.06 C 21.42 29.79, 21.27 30.195, 21.96 29.52 C 22.8 28.439999999999998, 23.07 28.77, 23.64 27.36 C 23.94 25.619999999999997, 24.075000000000003 25.034999999999997, 24.240000000000002 23.88 C 24.27 23.310000000000002, 24.284999999999997 23.025000000000002, 24.299999999999997 22.740000000000002 C 24.299999999999997 22.740000000000002, 24.299999999999997 22.725, 24.299999999999997 22.740000000000002 C 24.299999999999997 22.77, 24.299999999999997 22.11, 24.299999999999997 22.799999999999997 C 24.299999999999997 24.15, 24.089999999999996 23.79, 24.299999999999997 25.5 C 24.72 27.57, 24.36 28.305, 25.14 29.64 C 26.28 30.24, 26.145000000000003 30.884999999999998, 27.42 30.839999999999996 C 28.830000000000002 30.15, 29.220000000000002 30.345, 30.240000000000002 29.46 C 30.87 28.38, 31.14 28.769999999999996, 31.5 27.299999999999997 C 31.59 25.439999999999998, 31.65 26.355, 31.68 23.580000000000002 C 31.65 19.89, 31.784999999999997 18.915000000000003, 31.619999999999997 16.200000000000003 C 31.32 14.46, 31.56 14.700000000000001, 31.02 12.72 C 30.240000000000002 10.5, 30.165 10.08, 29.46 8.28 C 28.830000000000002 6.9, 28.620000000000005 6.42, 28.200000000000003 5.5200000000000005 C 27.990000000000002 5.1, 27.885 4.965, 27.78 4.68 C 27.78 4.529999999999999, 27.78 4.484999999999999, 27.78 4.38 C 27.78 4.32, 27.78 4.29, 27.78 4.26 L 27.78 4.26" fill="none" stroke="black" stroke-width="2"></path><path d="M 14.34 6.959999999999999 C 15 8.37, 14.85 7.784999999999998, 15.66 9.78 C 16.62 12.36, 16.92 13.155000000000001, 17.580000000000002 14.940000000000001 C 17.939999999999998 15.93, 17.939999999999998 15.989999999999998, 18.299999999999997 16.919999999999998 C 18.659999999999997 17.79, 18.765 18.134999999999998, 19.02 18.66 C 19.17 18.84, 19.08 18.945, 19.32 19.02 C 19.65 18.990000000000002, 19.02 19.650000000000002, 19.98 18.96 C 21.57 17.61, 21.285 18.104999999999997, 23.16 16.259999999999998 C 25.32 13.919999999999998, 25.995 13.32, 27.48 11.58 C 28.29 10.440000000000001, 28.65 9.915000000000001, 29.099999999999998 9.3 C 29.189999999999998 9.21, 29.235 9.165000000000001, 29.28 9.120000000000001 C 29.28 9.120000000000001, 29.28 9.120000000000001, 29.28 9.120000000000001 C 29.28 9.120000000000001, 29.28 9.120000000000001, 29.28 9.120000000000001 L 29.28 9.120000000000001" fill="none" stroke="black" stroke-width="2"></path><path d="M 12 37.32 C 12 37.35, 10.875 37.515, 12 37.38 C 14.25 37.08, 13.965 37.2, 16.5 36.78 C 19.32 36.24, 19.365000000000002 36.105000000000004, 22.14 35.7 C 24.869999999999997 35.43000000000001, 25.574999999999996 35.325, 27.599999999999998 35.160000000000004 C 28.92 35.1, 29.34 35.07, 30.240000000000002 35.04 C 30.720000000000002 35.04, 30.96 35.04, 31.200000000000003 35.04 L 31.200000000000003 35.04" fill="none" stroke="black" stroke-width="2"></path><path d="M 10.44 44.76 C 11.7 44.61, 10.17 44.85, 12.96 44.46 C 17.28 43.83, 17.61 43.845, 21.6 43.2 C 25.26 42.540000000000006, 26.025000000000002 42.27, 28.92 41.88 C 31.05 41.760000000000005, 31.8 41.745000000000005, 33.18 41.64 L 34.44 41.46" fill="none" stroke="black" stroke-width="2"></path></svg>