<svg width="48" height="48" viewBox="0 0 48 48" xmlns="http://www.w3.org/2000/svg"><path d="M 14.22 31.200000000000003 C 13.86 28.98, 13.71 28.59, 13.5 26.759999999999998 C 13.44 25.32, 13.41 25.259999999999998, 13.379999999999999 23.88 C 13.379999999999999 22.560000000000002, 13.349999999999998 22.335, 13.379999999999999 21.240000000000002 C 13.44 20.37, 13.379999999999999 20.16, 13.5 19.5 C 13.68 19.05, 13.59 19.020000000000003, 13.86 18.6 C 14.22 18.21, 14.055000000000001 18.105, 14.580000000000002 17.82 C 15.270000000000001 17.64, 14.385000000000002 17.55, 15.96 17.46 C 18.42 17.46, 18.869999999999997 17.46, 20.88 17.46 C 22.439999999999998 17.46, 22.544999999999998 17.445, 24 17.46 C 25.35 17.490000000000002, 25.290000000000003 17.46, 26.700000000000003 17.52 C 28.17 17.61, 28.455000000000002 17.655, 29.64 17.700000000000003 C 30.54 17.700000000000003, 30.720000000000002 17.700000000000003, 31.44 17.700000000000003 C 31.979999999999997 17.700000000000003, 32.205 17.700000000000003, 32.519999999999996 17.700000000000003 C 32.61 17.700000000000003, 32.625 17.700000000000003, 32.7 17.700000000000003 L 32.82 17.700000000000003" fill="none" stroke="black" stroke-width="2"></path><path d="M 15.600000000000001 5.22 C 16.259999999999998 6.15, 16.034999999999997 5.79, 16.919999999999998 7.08 C 18.03 8.73, 18.27 9.014999999999999, 19.14 10.379999999999999 C 19.77 11.459999999999999, 19.83 11.625, 20.4 12.54 C 20.909999999999997 13.29, 20.88 13.079999999999998, 21.419999999999998 14.04 C 21.99 15.209999999999999, 22.185 15.629999999999999, 22.56 16.38 C 22.74 16.71, 22.769999999999996 16.74, 22.919999999999998 17.04 C 23.04 17.310000000000002, 23.1 17.445, 23.16 17.580000000000002 C 23.16 17.580000000000002, 23.16 17.580000000000002, 23.16 17.580000000000002 C 23.16 17.580000000000002, 23.16 17.580000000000002, 23.16 17.580000000000002 C 23.16 17.580000000000002, 22.92 17.925, 23.16 17.580000000000002 C 23.64 16.89, 23.534999999999997 17.295, 24.119999999999997 16.200000000000003 C 24.81 14.700000000000003, 24.735 14.715000000000002, 25.5 13.200000000000001 C 26.34 11.670000000000002, 26.295 11.505, 27.18 10.14 C 28.11 8.940000000000001, 28.32 8.595, 29.04 7.74 C 29.549999999999997 7.23, 29.505 7.140000000000001, 30.06 6.720000000000001 C 30.659999999999997 6.390000000000001, 30.779999999999998 6.330000000000001, 31.259999999999998 6.0600000000000005 C 31.619999999999997 5.85, 31.755 5.7749999999999995, 31.98 5.64 L 32.160000000000004 5.5200000000000005" fill="none" stroke="black" stroke-width="2"></path><path d="M 22.919999999999998 17.82 C 22.919999999999998 18.36, 22.889999999999997 18.104999999999997, 22.919999999999998 18.9 C 22.979999999999997 19.95, 22.919999999999998 19.875, 23.04 21 C 23.22 22.2, 23.174999999999997 22.395, 23.4 23.4 C 23.67 24.21, 23.475 23.97, 23.94 25.02 C 24.6 26.31, 24.509999999999998 26.444999999999997, 25.259999999999998 27.599999999999998 C 26.1 28.619999999999997, 26.25 28.89, 26.94 29.64 C 27.48 30.119999999999997, 27.285 30.104999999999997, 28.02 30.599999999999998 C 28.950000000000003 31.11, 28.650000000000002 31.094999999999995, 29.880000000000003 31.619999999999997 C 31.41 32.16, 31.665 32.25, 32.94 32.7 C 33.96 33.06, 34.425000000000004 33.225, 34.980000000000004 33.42 C 35.07000000000001 33.45, 35.115 33.465, 35.160000000000004 33.480000000000004 C 35.160000000000004 33.480000000000004, 35.1 33.39000000000001, 35.160000000000004 33.480000000000004 C 35.28 33.66, 35.355000000000004 33.675, 35.400000000000006 33.839999999999996 C 35.370000000000005 33.989999999999995, 35.55 33.945, 35.339999999999996 34.14 C 34.95 34.379999999999995, 35.370000000000005 34.364999999999995, 34.56 34.62 C 33.33 34.89, 33.345 34.92, 32.099999999999994 35.160000000000004 C 30.839999999999996 35.370000000000005, 30.884999999999998 35.355, 29.58 35.58 C 28.23 35.82, 28.35 35.655, 26.880000000000003 36.06 C 25.290000000000003 36.63, 24.960000000000004 36.660000000000004, 23.700000000000003 37.2 C 22.770000000000003 37.71, 22.740000000000002 37.575, 21.84 38.22 C 20.97 39, 21.03 38.895, 20.1 39.78 C 19.11 40.769999999999996, 18.825000000000003 40.86, 18.12 41.76 C 17.700000000000003 42.57, 17.565 42.75, 17.28 43.38 C 17.130000000000003 43.83, 17.07 43.86, 16.98 44.28 C 16.95 44.67, 16.935 44.865, 16.919999999999998 45.06 C 16.919999999999998 45.06, 16.919999999999998 45.06, 16.919999999999998 45.06 L 16.919999999999998 45.06" fill="none" stroke="black" stroke-width="2"></path></svg>