<svg width="48" height="48" viewBox="0 0 48 48" xmlns="http://www.w3.org/2000/svg"><path d="M 11.28 3.84 C 10.559999999999999 7.29, 10.365 7.83, 9.84 10.74 C 9.51 13.11, 9.39 13.38, 9.18 15.48 C 9.09 17.310000000000002, 9.105 16.95, 9 19.14 C 8.879999999999999 21.69, 8.865 21.885, 8.76 24.240000000000002 C 8.67 26.4, 8.625 26.64, 8.58 28.56 C 8.58 30.240000000000002, 8.58 30.255000000000003, 8.58 31.92 C 8.58 33.57, 8.445 33.84, 8.58 35.22 C 8.850000000000001 36.33, 8.82 36.525, 9.120000000000001 37.44 C 9.45 38.16, 9.434999999999999 38.13, 9.78 38.88 C 10.14 39.66, 10.11 39.75, 10.5 40.44 C 10.92 41.04, 10.92 41.1, 11.34 41.64 C 11.76 42.12, 11.684999999999999 42.19499999999999, 12.18 42.599999999999994 C 12.75 42.92999999999999, 12.84 43.065, 13.32 43.26 C 13.71 43.32, 13.635000000000002 43.35, 14.100000000000001 43.38 C 14.64 43.38, 14.594999999999999 43.38, 15.18 43.38 C 15.81 43.38, 15.795000000000002 43.605000000000004, 16.44 43.38 C 17.1 42.93000000000001, 17.174999999999997 42.96000000000001, 17.759999999999998 42.480000000000004 C 18.27 41.97, 18.375 41.925000000000004, 18.78 41.46 C 19.08 41.04, 19.049999999999997 41.22, 19.38 40.62 C 19.740000000000002 39.84, 19.92 39.81, 20.1 39.06 C 20.1 38.34, 20.1 38.28, 20.1 37.62 C 20.1 37.019999999999996, 20.265 37.02, 20.1 36.42 C 19.770000000000003 35.82, 19.815 35.79, 19.44 35.22 C 19.020000000000003 34.68, 19.125 34.65, 18.6 34.14 C 17.97 33.66, 18.12 33.57, 17.34 33.18 C 16.41 32.879999999999995, 16.275 32.73, 15.48 32.58 C 14.82 32.58, 14.805 32.58, 14.16 32.58 C 13.53 32.58, 13.634999999999998 32.4, 12.899999999999999 32.58 C 12.059999999999999 32.94, 11.805 32.94, 11.22 33.3 C 10.89 33.66, 10.815000000000001 33.72, 10.56 34.019999999999996 C 10.379999999999999 34.26, 10.379999999999999 34.230000000000004, 10.2 34.5 C 10.02 34.8, 10.05 34.66499999999999, 9.84 35.099999999999994 C 9.6 35.67, 9.54 35.835, 9.36 36.24 C 9.24 36.480000000000004, 9.18 36.6, 9.120000000000001 36.72 C 9.120000000000001 36.72, 9.120000000000001 36.72, 9.120000000000001 36.72 C 9.120000000000001 36.72, 9.120000000000001 36.72, 9.120000000000001 36.72 C 9.120000000000001 36.72, 9.120000000000001 36.72, 9.120000000000001 36.72 C 9.120000000000001 36.72, 9.120000000000001 36.72, 9.120000000000001 36.72 L 9.120000000000001 36.72" fill="none" stroke="black" stroke-width="2"></path><path d="M 8.94 26.82 C 9.48 26.880000000000003, 9.33 26.91, 10.02 26.94 C 10.86 26.94, 10.514999999999999 27.57, 11.7 26.94 C 13.23 25.68, 13.74 25.545, 14.76 24.42 C 15.27 23.43, 15.33 23.61, 15.78 22.44 C 16.169999999999998 21.090000000000003, 16.349999999999998 20.475, 16.56 19.740000000000002 C 16.59 19.62, 16.59 19.575, 16.62 19.5 C 16.65 19.47, 16.545 19.275000000000002, 16.68 19.44 C 16.92 19.8, 16.95 19.53, 17.16 20.16 C 17.34 21.060000000000002, 17.34 20.985, 17.52 21.96 C 17.7 23.009999999999998, 17.564999999999998 22.965, 17.88 24.06 C 18.33 25.199999999999996, 18.09 25.319999999999997, 18.78 26.339999999999996 C 19.71 27.24, 19.53 27.54, 20.64 28.14 C 21.93 28.44, 22.11 28.545, 23.22 28.740000000000002 C 24.15 28.830000000000002, 24.284999999999997 28.905, 25.08 28.92 C 25.740000000000002 28.86, 26.055 28.845, 26.400000000000002 28.799999999999997 C 26.43 28.77, 26.295 28.8, 26.46 28.740000000000002 L 27.06 28.56" fill="none" stroke="black" stroke-width="2"></path><path d="M 10.379999999999999 6.18 C 10.53 6.42, 10.35 6.285, 10.68 6.66 C 11.19 7.17, 11.235 7.215, 11.7 7.68 C 12.12 8.1, 11.849999999999998 7.739999999999999, 12.54 8.52 C 13.5 9.66, 13.635000000000002 9.81, 14.46 10.8 C 15.15 11.64, 15.09 11.565000000000001, 15.84 12.48 C 16.65 13.47, 16.995 13.89, 17.46 14.46 C 17.580000000000002 14.61, 17.505000000000003 14.52, 17.700000000000003 14.76 C 17.970000000000002 15.09, 18.105000000000004 15.254999999999999, 18.240000000000002 15.419999999999998 C 18.240000000000002 15.419999999999998, 18.165000000000003 15.404999999999998, 18.240000000000002 15.419999999999998 C 18.39 15.45, 18.09 15.885, 18.54 15.48 C 19.29 14.64, 19.08 14.864999999999998, 20.04 13.799999999999999 C 21.21 12.51, 21.419999999999998 12.255, 22.38 11.22 C 23.13 10.440000000000001, 23.265 10.215, 23.88 9.66 C 24.36 9.33, 24.404999999999998 9.254999999999999, 24.839999999999996 9 C 25.229999999999997 8.82, 25.169999999999995 8.88, 25.619999999999997 8.64 C 26.13 8.34, 26.235 8.22, 26.64 8.040000000000001 L 27.240000000000002 7.92" fill="none" stroke="black" stroke-width="2"></path></svg>