<svg width="48" height="48" viewBox="0 0 48 48" xmlns="http://www.w3.org/2000/svg"><path d="M 12.600000000000001 25.98 C 13.5 26.19, 11.999999999999998 26.145000000000003, 14.399999999999999 26.400000000000002 C 18.3 26.700000000000003, 19.14 26.85, 22.200000000000003 27 C 24.42 27, 25.14 27, 26.64 27 C 27.42 27, 27.345000000000002 27.045, 28.200000000000003 27 C 29.130000000000003 26.91, 29.145 27, 30.06 26.82 C 30.96 26.55, 31.035 26.535000000000004, 31.86 26.28 C 32.61 26.04, 32.76 26.055, 33.36 25.799999999999997 C 33.81 25.529999999999998, 33.809999999999995 25.604999999999997, 34.26 25.259999999999998 C 34.71 24.84, 34.830000000000005 25.05, 35.160000000000004 24.42 C 35.370000000000005 23.580000000000002, 35.55 24.435000000000002, 35.58 22.740000000000002 C 35.43 20.19, 35.34 20.64, 35.28 17.64 C 35.31 14.190000000000001, 35.385 13.425, 35.339999999999996 10.74 C 35.22 8.82, 35.16 8.145, 35.099999999999994 6.8999999999999995 C 35.099999999999994 6.33, 35.114999999999995 6.074999999999999, 35.099999999999994 5.76 C 35.06999999999999 5.699999999999999, 35.099999999999994 5.789999999999999, 35.04 5.64 C 34.95 5.4, 35.01 5.55, 34.86 5.16 C 34.65 4.62, 34.574999999999996 4.395, 34.44 4.08 C 34.379999999999995 3.99, 34.35 3.9450000000000003, 34.32 3.9000000000000004 L 34.32 3.9000000000000004" fill="none" stroke="black" stroke-width="2"></path><path d="M 15.54 4.4399999999999995 C 15.81 4.92, 15.270000000000001 4.32, 16.080000000000002 5.4 C 17.43 7.08, 17.325000000000003 6.869999999999999, 18.78 8.76 C 20.34 10.86, 20.715 11.22, 21.9 12.96 C 22.71 14.34, 22.83 14.445, 23.52 15.72 C 24.090000000000003 16.89, 24.165000000000003 17.009999999999998, 24.660000000000004 18.06 C 25.080000000000002 18.99, 25.29 19.455, 25.5 19.919999999999998 C 25.5 19.919999999999998, 25.439999999999998 19.83, 25.5 19.919999999999998 C 25.62 20.1, 25.635 20.19, 25.740000000000002 20.28 C 25.830000000000002 20.28, 25.68 20.67, 25.92 20.28 C 26.310000000000002 19.5, 26.1 19.95, 26.700000000000003 18.72 C 27.51 17.04, 27.6 16.814999999999998, 28.32 15.36 C 28.95 14.129999999999999, 28.89 14.145, 29.58 12.899999999999999 C 30.33 11.639999999999999, 30.36 11.384999999999998, 31.08 10.379999999999999 C 31.77 9.629999999999999, 32.025 9.36, 32.46 8.879999999999999 C 32.64 8.669999999999998, 32.55 8.579999999999998, 32.82 8.459999999999999 C 33.18 8.43, 33.21 8.474999999999998, 33.54 8.399999999999999 C 33.84 8.28, 33.84 8.28, 34.14 8.16 C 34.44 8.04, 34.5 8.025, 34.74 7.92 C 34.92 7.83, 35.01 7.785, 35.099999999999994 7.74 L 35.099999999999994 7.74" fill="none" stroke="black" stroke-width="2"></path><path d="M 24.96 27.06 C 25.05 27.659999999999997, 24.885 27.554999999999996, 25.14 28.259999999999998 C 25.560000000000002 29.07, 25.560000000000002 29.19, 25.98 29.880000000000003 C 26.4 30.450000000000003, 26.07 30.3, 26.82 31.02 C 27.9 31.89, 27.72 32.025, 28.98 32.76 C 30.42 33.36, 30.615 33.375, 31.86 33.96 C 32.91 34.53, 33.135 34.64999999999999, 33.96 35.099999999999994 C 34.56 35.42999999999999, 34.785000000000004 35.535, 35.160000000000004 35.76 C 35.31 35.879999999999995, 35.34 35.894999999999996, 35.46 36 C 35.55 36.09, 35.58 36.015, 35.64 36.18 C 35.67 36.42, 35.925000000000004 36.39, 35.7 36.660000000000004 C 35.22 36.96, 35.175000000000004 37.095, 34.74 37.26 C 34.35 37.29, 34.545 37.305, 33.96 37.32 C 33.18000000000001 37.32, 33.465 37.29, 32.400000000000006 37.32 C 31.050000000000004 37.379999999999995, 31.305000000000003 37.29, 29.700000000000003 37.44 C 27.840000000000003 37.68, 27.345 37.665, 25.98 37.92 C 25.11 38.19, 25.200000000000003 38.055, 24.240000000000002 38.46 C 23.19 39, 23.205000000000002 38.745, 22.14 39.54 C 21.060000000000002 40.59, 20.91 40.485, 19.98 41.64 C 19.2 42.900000000000006, 18.93 43.260000000000005, 18.419999999999998 44.160000000000004 C 18.18 44.7, 18.09 44.895, 17.94 45.24 C 17.880000000000003 45.39, 17.85 45.465, 17.82 45.54 C 17.82 45.54, 17.85 45.465, 17.82 45.54 L 17.700000000000003 45.839999999999996" fill="none" stroke="black" stroke-width="2"></path><path d="M 14.100000000000001 31.86 C 14.190000000000001 31.92, 14.085 31.875, 14.28 31.98 C 14.579999999999998 32.13, 14.235 31.950000000000003, 14.879999999999999 32.28 C 15.87 32.79, 15.989999999999998 32.73, 16.86 33.3 C 17.61 33.93, 17.655 33.795, 18.36 34.56 C 19.02 35.46, 19.14 35.58, 19.68 36.36 C 20.1 37.019999999999996, 20.22 37.185, 20.52 37.68 C 20.7 38.01, 20.715 38.03999999999999, 20.88 38.339999999999996 C 21.03 38.61, 21.045 38.625, 21.18 38.88 C 21.299999999999997 39.120000000000005, 21.36 39.24, 21.419999999999998 39.36 C 21.419999999999998 39.36, 21.419999999999998 39.36, 21.419999999999998 39.36 C 21.419999999999998 39.36, 21.419999999999998 39.36, 21.419999999999998 39.36 L 21.419999999999998 39.36" fill="none" stroke="black" stroke-width="2"></path></svg>