<svg width="48" height="48" viewBox="0 0 48 48" xmlns="http://www.w3.org/2000/svg"><path d="M 14.34 4.68 C 14.19 5.61, 14.535 4.230000000000001, 14.04 6.540000000000001 C 13.2 10.23, 13.004999999999999 10.394999999999998, 12.36 13.919999999999998 C 11.91 17.28, 11.774999999999999 17.79, 11.459999999999999 20.64 C 11.280000000000001 22.98, 11.235000000000001 23.595, 11.100000000000001 25.32 C 11.010000000000002 26.43, 10.965 26.79, 10.92 27.54 C 10.92 27.93, 10.71 27.945, 10.92 28.32 C 11.34 28.68, 11.1 28.86, 11.76 29.04 C 12.66 29.04, 12.495 29.595, 13.559999999999999 29.04 C 14.79 27.93, 15 28.155, 16.02 26.82 C 16.83 25.26, 16.995 25.140000000000004, 17.64 23.700000000000003 C 18.12 22.380000000000003, 18.255000000000003 21.884999999999998, 18.6 21.06 C 18.810000000000002 20.729999999999997, 18.855 20.519999999999996, 19.02 20.4 C 19.14 20.490000000000002, 19.439999999999998 19.5, 19.259999999999998 20.580000000000002 C 18.779999999999998 22.65, 18.584999999999997 22.905, 18.299999999999997 24.72 C 18.21 26.279999999999998, 17.955 26.744999999999997, 18.12 27.839999999999996 C 18.54 28.47, 17.475 28.679999999999996, 18.96 29.099999999999998 C 21.509999999999998 29.31, 21.479999999999997 29.384999999999998, 24.06 29.52 C 26.67 29.58, 27.705000000000002 29.61, 29.28 29.64 C 29.82 29.64, 30.09 29.64, 30.36 29.64 L 30.36 29.64" fill="none" stroke="black" stroke-width="2"></path><path d="M 13.559999999999999 8.040000000000001 C 14.07 8.43, 13.665000000000003 7.875, 14.580000000000002 8.82 C 15.9 10.32, 15.689999999999998 10.260000000000002, 17.22 11.82 C 18.96 13.44, 19.470000000000002 13.919999999999998, 20.700000000000003 15.059999999999999 C 21.42 15.719999999999999, 21.75 16.034999999999997, 22.14 16.38 C 22.2 16.41, 22.229999999999997 16.425, 22.259999999999998 16.44 C 22.259999999999998 16.44, 22.259999999999998 16.44, 22.259999999999998 16.44 C 22.259999999999998 16.44, 21.134999999999998 17.400000000000002, 22.259999999999998 16.44 C 24.509999999999998 14.520000000000001, 24.824999999999996 14.310000000000002, 26.759999999999998 12.600000000000001 C 28.38 11.100000000000001, 29.145 10.395000000000001, 30 9.600000000000001 C 30.09 9.510000000000002, 30.09 9.48, 30.18 9.42 C 30.27 9.39, 30.314999999999998 9.375, 30.36 9.36 L 30.36 9.36" fill="none" stroke="black" stroke-width="2"></path><path d="M 21.36 29.700000000000003 C 21.39 30.21, 21.464999999999996 29.46, 21.419999999999998 30.72 C 21.299999999999997 32.730000000000004, 21.299999999999997 32.46, 21.18 34.74 C 21.060000000000002 37.29, 20.985 37.605, 20.94 39.839999999999996 C 20.97 41.76, 20.880000000000003 42.39, 21 43.68 C 21.21 44.34, 21.299999999999997 44.49, 21.419999999999998 45 C 21.45 45.36, 21.51 45.495, 21.48 45.72 L 21.299999999999997 45.900000000000006" fill="none" stroke="black" stroke-width="2"></path></svg>