<svg width="48" height="48" viewBox="0 0 48 48" xmlns="http://www.w3.org/2000/svg"><path d="M 16.740000000000002 3.5999999999999996 C 16.23 5.369999999999999, 16.335 5.025, 15.72 7.14 C 15 9.6, 14.85 9.224999999999998, 14.28 12.059999999999999 C 13.86 15.27, 13.65 15.870000000000001, 13.440000000000001 18.48 C 13.440000000000001 20.490000000000002, 13.350000000000001 21.21, 13.440000000000001 22.5 C 13.620000000000001 23.07, 13.575 23.205, 13.799999999999999 23.64 C 14.07 23.94, 14.04 23.970000000000002, 14.34 24.240000000000002 C 14.67 24.48, 14.76 24.555, 15 24.72 C 15.149999999999999 24.810000000000002, 14.985 24.855, 15.299999999999999 24.900000000000002 C 15.779999999999998 24.900000000000002, 15.284999999999997 25.53, 16.259999999999998 24.900000000000002 C 17.73 23.64, 17.940000000000005 23.61, 19.200000000000003 22.38 C 20.25 21.18, 20.534999999999997 21, 21.299999999999997 19.98 C 21.779999999999998 19.14, 22.019999999999996 18.72, 22.259999999999998 18.299999999999997 C 22.259999999999998 18.299999999999997, 22.259999999999998 18.299999999999997, 22.259999999999998 18.299999999999997 C 22.259999999999998 18.299999999999997, 22.394999999999996 17.819999999999997, 22.259999999999998 18.299999999999997 C 21.99 19.259999999999998, 21.854999999999997 19.334999999999997, 21.72 20.22 C 21.72 21.03, 21.45 20.655, 21.72 21.84 C 22.259999999999998 23.4, 21.929999999999996 23.835, 22.799999999999997 24.96 C 24 25.65, 23.790000000000003 26.009999999999998, 25.200000000000003 26.339999999999996 C 26.82 26.31, 27.255000000000003 26.475, 28.44 26.28 C 29.19 25.92, 29.565 25.74, 29.94 25.56 L 29.94 25.56" fill="none" stroke="black" stroke-width="2"></path><path d="M 16.38 4.9799999999999995 C 16.439999999999998 5.43, 16.05 4.8149999999999995, 16.5 5.88 C 17.34 7.5600000000000005, 17.325 7.83, 18.18 9.24 C 19.049999999999997 10.379999999999999, 19.259999999999998 10.725, 19.919999999999998 11.52 C 20.369999999999997 11.969999999999999, 20.595 12.194999999999999, 20.82 12.419999999999998 C 20.82 12.419999999999998, 20.82 12.419999999999998, 20.82 12.419999999999998 C 20.82 12.419999999999998, 20.775 12.389999999999997, 20.82 12.419999999999998 C 20.91 12.479999999999999, 20.91 12.494999999999997, 21 12.54 C 21.09 12.57, 21.105 12.585, 21.18 12.600000000000001 C 21.24 12.600000000000001, 19.784999999999997 14.085, 21.299999999999997 12.600000000000001 C 24.27 9.63, 25.215 8.535, 27.240000000000002 6.66 C 28.32 5.88, 28.860000000000003 5.49, 29.400000000000002 5.1 C 29.400000000000002 5.1, 29.400000000000002 5.1, 29.400000000000002 5.1 L 29.400000000000002 5.1" fill="none" stroke="black" stroke-width="2"></path><path d="M 20.88 20.22 C 21 20.759999999999998, 21.015 20.234999999999996, 21.12 21.299999999999997 C 21.21 22.89, 21.209999999999997 23.189999999999998, 21.299999999999997 24.48 C 21.39 25.47, 21.39 25.23, 21.48 26.46 C 21.57 27.93, 21.57 28.005000000000003, 21.66 29.400000000000002 C 21.75 30.72, 21.795 30.765, 21.84 32.04 C 21.84 33.269999999999996, 21.96 33.435, 21.84 34.5 C 21.6 35.4, 21.72 35.295, 21.36 36.3 C 20.88 37.41, 20.895 37.66499999999999, 20.4 38.519999999999996 C 19.89 39.12, 20.145 39.059999999999995, 19.38 39.72 C 18.36 40.44, 18.465 40.485, 17.34 41.160000000000004 C 16.11 41.790000000000006, 15.93 41.925000000000004, 14.879999999999999 42.42 C 14.01 42.78, 13.8 42.855000000000004, 13.14 43.14 C 12.690000000000001 43.35, 12.57 43.440000000000005, 12.24 43.56 L 11.82 43.62" fill="none" stroke="black" stroke-width="2"></path></svg>