<svg width="48" height="48" viewBox="0 0 48 48" xmlns="http://www.w3.org/2000/svg"><path d="M 11.7 43.8 C 11.73 41.94, 11.745 42.285, 11.76 40.08 C 11.76 37.53, 11.73 37.455000000000005, 11.76 34.980000000000004 C 11.82 32.58, 11.759999999999998 32.160000000000004, 11.879999999999999 30.18 C 12.059999999999999 28.619999999999997, 11.82 28.53, 12.24 27.06 C 12.899999999999999 25.68, 13.034999999999998 25.199999999999996, 13.559999999999999 24.299999999999997 C 13.95 23.88, 13.95 23.7, 14.34 23.46 C 14.73 23.4, 14.595 23.115000000000002, 15.120000000000001 23.34 C 15.780000000000001 23.85, 15.96 23.265, 16.44 24.36 C 16.740000000000002 26.04, 16.89 26.04, 17.04 27.72 C 17.04 29.4, 17.04 29.97, 17.04 31.08 C 17.04 31.62, 17.04 31.89, 17.04 32.160000000000004 C 17.04 32.160000000000004, 17.04 32.160000000000004, 17.04 32.160000000000004 C 17.04 32.160000000000004, 16.95 32.85, 17.04 32.160000000000004 C 17.22 30.78, 17.115 30.690000000000005, 17.4 29.400000000000002 C 17.79 28.200000000000003, 17.595 28.185, 18.18 27 C 18.96 25.830000000000002, 19.080000000000002 25.440000000000005, 19.740000000000002 24.660000000000004 C 20.28 24.270000000000003, 20.295 24.15, 20.82 23.88 C 21.33 23.73, 21.255 23.565, 21.84 23.580000000000002 C 22.5 23.76, 22.425 23.400000000000002, 23.16 23.94 C 23.97 24.840000000000003, 24.135 24.645000000000003, 24.78 25.740000000000002 C 25.26 27.03, 25.365000000000002 26.835, 25.740000000000002 28.32 C 26.01 30, 26.145000000000003 29.7, 26.28 31.68 C 26.28 33.96, 26.28 34.635000000000005, 26.28 36.24 C 26.28 37.17, 26.295 37.035, 26.28 38.099999999999994 C 26.25 39.3, 26.265 39.54, 26.22 40.5 C 26.159999999999997 41.22, 26.174999999999997 41.459999999999994, 26.099999999999998 41.94 C 26.009999999999998 42.18, 25.965 42.135000000000005, 25.92 42.42 C 25.92 42.75, 25.92 42.915, 25.92 43.08 C 25.92 43.08, 25.995000000000005 43.035, 25.92 43.08 L 25.619999999999997 43.26" fill="none" stroke="black" stroke-width="2"></path><path d="M 14.34 12.36 C 15.09 14.19, 15.135 14.355, 15.84 16.02 C 16.5 17.52, 16.695 17.97, 17.16 19.02 C 17.43 19.619999999999997, 17.565 19.919999999999998, 17.700000000000003 20.22 L 17.700000000000003 20.22" fill="none" stroke="black" stroke-width="2"></path><path d="M 17.700000000000003 20.16 C 17.73 19.8, 17.009999999999998 20.700000000000003, 17.759999999999998 19.44 C 19.23 17.28, 19.425000000000004 16.770000000000003, 20.700000000000003 15.120000000000001 C 21.78 13.98, 22.095 13.59, 22.86 12.84 L 23.759999999999998 12.120000000000001" fill="none" stroke="black" stroke-width="2"></path></svg>