<svg xmlns="http://www.w3.org/2000/svg" viewBox="8.09999942779541 2.2948620319366455 23.08000087738037 40.691805601119995" width="23.08000087738037" height="40.691805601119995"><path d="M 12.899999999999999 25.98 C 12.059999999999999 24.090000000000003, 12.06 24.540000000000003, 11.22 22.200000000000003 C 10.38 19.410000000000004, 10.035 18.57, 9.540000000000001 16.62 C 9.39 15.51, 9.345 15.314999999999998, 9.24 14.399999999999999 C 9.18 13.68, 9.15 13.515, 9.120000000000001 12.96 C 9.120000000000001 12.57, 9.075000000000001 12.495000000000001, 9.120000000000001 12.18 C 9.21 11.94, 9.06 11.879999999999999, 9.3 11.7 C 9.690000000000001 11.579999999999998, 9.690000000000001 11.52, 10.08 11.459999999999999 C 10.469999999999999 11.459999999999999, 10.379999999999999 11.34, 10.86 11.459999999999999 C 11.43 11.7, 11.475 11.58, 12 11.94 C 12.48 12.419999999999998, 12.48 12.359999999999998, 12.96 12.899999999999999 C 13.44 13.5, 13.349999999999998 13.035, 13.919999999999998 14.100000000000001 C 14.579999999999998 15.63, 14.76 15.795000000000002, 15.24 17.16 C 15.54 18.36, 15.66 18.854999999999997, 15.84 19.56 C 15.9 19.77, 15.93 19.875, 15.96 19.98 C 15.96 19.98, 15.96 20.22, 15.96 19.98 C 15.96 19.5, 15.96 19.755, 15.96 19.02 C 15.96 18.03, 15.96 17.924999999999997, 15.96 17.04 C 15.96 16.259999999999998, 15.9 16.065, 15.96 15.48 C 16.080000000000002 15.09, 16.005000000000003 15.180000000000001, 16.200000000000003 14.700000000000001 C 16.470000000000002 14.129999999999999, 16.275000000000002 14.235, 16.740000000000002 13.559999999999999 C 17.4 12.78, 17.52 12.495, 18.06 12 C 18.479999999999997 11.79, 18.419999999999998 11.685, 18.9 11.58 C 19.439999999999998 11.58, 19.335 11.58, 19.98 11.58 C 20.73 11.58, 20.55 11.58, 21.48 11.58 C 22.590000000000003 11.58, 22.620000000000005 11.535, 23.700000000000003 11.58 C 24.75 11.67, 25.08 11.715, 25.799999999999997 11.76 C 26.189999999999998 11.76, 26.384999999999998 11.76, 26.58 11.76 L 26.58 11.76" fill="none" stroke="black" stroke-width="5"></path><path d="M 17.22 3.96 C 17.07 4.65, 16.904999999999998 4.77, 16.919999999999998 5.34 C 17.1 5.79, 16.995 6.015000000000001, 17.28 6.24 C 17.67 6.24, 17.744999999999997 6.525, 18.06 6.24 C 18.299999999999997 5.67, 18.72 5.744999999999999, 18.54 5.1 C 17.939999999999998 4.38, 17.835 4.08, 17.34 3.66 C 16.95 3.54, 17.174999999999997 3.075, 16.56 3.42 C 15.719999999999999 4.23, 15.254999999999999 4.23, 14.879999999999999 5.04 C 14.969999999999999 5.85, 14.669999999999998 6.165, 15.059999999999999 6.66 C 15.75 6.84, 15.84 7.17, 16.44 7.02 C 16.950000000000003 6.54, 17.19 6.45, 17.46 6.0600000000000005 C 17.490000000000002 5.76, 17.955 5.58, 17.52 5.46 C 16.62 5.52, 16.305 5.415, 15.72 5.58 L 15.18 6.12" fill="none" stroke="black" stroke-width="5"></path><path d="M 11.399999999999999 41.88 C 11.909999999999998 41.88, 11.79 42.120000000000005, 12.419999999999998 41.88 C 13.169999999999998 41.400000000000006, 12.929999999999998 41.775000000000006, 13.919999999999998 40.92 C 15.149999999999999 39.69, 15.464999999999998 39.57, 16.38 38.46 C 16.98 37.47, 17.01 37.605000000000004, 17.580000000000002 36.480000000000004 C 18.12 35.22, 18.255 35.085, 18.66 33.96 C 18.93 32.97, 18.870000000000005 33.36, 19.200000000000003 31.98 C 19.590000000000003 30.21, 19.650000000000002 30.285000000000004, 19.98 28.44 C 20.25 26.52, 20.325 26.159999999999997, 20.52 24.599999999999998 C 20.64 23.4, 20.7 23.265, 20.759999999999998 22.200000000000003 C 20.759999999999998 21.270000000000003, 20.714999999999996 21.345, 20.759999999999998 20.34 C 20.85 19.259999999999998, 20.895 19.14, 20.94 18.18 C 20.94 17.34, 20.94 17.145, 20.94 16.5 C 20.94 16.05, 20.94 16.020000000000003, 20.94 15.600000000000001 C 20.94 15.21, 20.94 15.315000000000001, 20.94 14.82 C 20.94 14.22, 20.94 14.115000000000002, 20.94 13.620000000000001 C 20.94 13.23, 20.94 13.185, 20.94 12.84 C 20.94 12.54, 20.94 12.39, 20.94 12.24 C 20.94 12.24, 20.94 12.24, 20.94 12.24 C 20.94 12.24, 20.94 12.24, 20.94 12.24 C 20.94 12.24, 20.94 12.24, 20.94 12.24 C 20.94 12.24, 20.94 12.120000000000001, 20.94 12.24 C 20.94 12.48, 21.060000000000002 12.075000000000001, 20.94 12.72 C 20.700000000000003 13.77, 20.64 13.725, 20.46 14.82 C 20.34 15.96, 20.28 15.720000000000002, 20.22 17.1 C 20.22 18.72, 20.22 18.375, 20.22 20.34 C 20.22 22.65, 20.145 23.04, 20.22 24.96 C 20.369999999999997 26.490000000000002, 20.325 26.595, 20.52 28.02 C 20.759999999999998 29.340000000000003, 20.655 29.100000000000005, 21 30.660000000000004 C 21.45 32.46, 21.494999999999997 32.94, 21.9 34.26 C 22.259999999999998 35.099999999999994, 22.14 35.144999999999996, 22.62 35.94 C 23.22 36.69, 23.22 36.765, 23.82 37.44 C 24.42 38.04, 24.465 38.205, 25.02 38.64 C 25.53 38.91, 25.47 38.894999999999996, 26.04 39.18 C 26.669999999999998 39.480000000000004, 26.669999999999998 39.510000000000005, 27.299999999999997 39.78 C 27.93 40.019999999999996, 28.049999999999997 40.08, 28.56 40.26 C 28.949999999999996 40.379999999999995, 29.024999999999995 40.394999999999996, 29.339999999999996 40.5 C 29.58 40.59, 29.61 40.635, 29.82 40.68 L 30.18 40.68" fill="none" stroke="black" stroke-width="5"></path></svg>