<svg xmlns="http://www.w3.org/2000/svg" viewBox="7.022708892822266 10.220000267028809 21.183958053588867 33.939998626708984" width="21.183958053588867" height="33.939998626708984"><path d="M 14.16 34.44 C 14.190000000000001 35.58, 14.16 35.73, 14.22 36.72 C 14.309999999999999 37.56, 14.325 37.51500000000001, 14.399999999999999 38.400000000000006 C 14.459999999999999 39.33, 14.489999999999998 39.45, 14.52 40.26 C 14.52 40.95, 14.52 41.144999999999996, 14.52 41.64 C 14.52 41.94, 14.594999999999999 41.955, 14.52 42.24 C 14.370000000000001 42.510000000000005, 14.58 42.555, 14.22 42.78 C 13.650000000000002 42.96, 13.695000000000002 43.05, 13.080000000000002 43.14 C 12.420000000000002 43.14, 12.405000000000001 43.185, 11.76 43.14 C 11.129999999999999 43.05, 11.115 43.17, 10.5 42.96 C 9.9 42.629999999999995, 9.81 42.72, 9.3 42.3 C 8.879999999999999 41.79, 8.729999999999999 41.91, 8.459999999999999 41.28 C 8.34 40.53, 8.325 40.515, 8.22 39.78 C 8.13 39.06, 8.07 39.015, 8.040000000000001 38.339999999999996 C 8.07 37.709999999999994, 7.950000000000001 37.665, 8.100000000000001 37.08 C 8.370000000000001 36.54, 8.325000000000001 36.48, 8.64 36 C 9 35.58, 8.879999999999999 35.580000000000005, 9.36 35.160000000000004 C 9.96 34.74, 10.11 34.56, 10.56 34.32 C 10.86 34.260000000000005, 10.77 34.230000000000004, 11.16 34.2 C 11.64 34.2, 11.625 34.11, 12.120000000000001 34.2 C 12.63 34.38, 12.345 34.290000000000006, 13.14 34.56 C 14.219999999999999 34.92, 14.25 34.95, 15.299999999999999 35.28 C 16.32 35.58, 16.425 35.535000000000004, 17.34 35.88 C 18.15 36.27, 18.255000000000003 36.300000000000004, 18.96 36.660000000000004 C 19.560000000000002 36.99, 19.455 37.11, 20.16 37.32 C 20.97 37.41, 20.835 37.605, 21.78 37.5 C 22.86 37.2, 23.01 37.35000000000001, 23.94 36.900000000000006 C 24.72 36.300000000000004, 24.884999999999998 36.525000000000006, 25.5 35.7 C 25.950000000000003 34.65, 25.995000000000005 34.919999999999995, 26.400000000000002 33.599999999999994 C 26.759999999999998 32.01, 26.939999999999998 32.205, 27.119999999999997 30.42 C 27.119999999999997 28.44, 27.314999999999998 28.575000000000003, 27.119999999999997 26.46 C 26.729999999999997 24.21, 26.939999999999998 24.09, 26.339999999999996 21.96 C 25.529999999999998 19.950000000000003, 25.439999999999998 19.905, 24.72 17.94 C 24.09 16.020000000000003, 24.075000000000003 15.780000000000001, 23.46 14.100000000000001 C 22.86 12.66, 22.56 11.940000000000001, 22.259999999999998 11.22 C 22.259999999999998 11.22, 22.259999999999998 11.22, 22.259999999999998 11.22 L 22.259999999999998 11.22" fill="none" stroke="black" stroke-width="5"></path><path d="M 17.04 22.44 C 16.62 22.65, 16.425000000000004 22.455, 16.200000000000003 22.86 C 16.17 23.46, 16.020000000000003 23.625, 16.14 24.06 C 16.41 24.33, 16.275 24.569999999999997, 16.68 24.599999999999998 C 17.22 24.39, 17.354999999999997 24.674999999999997, 17.759999999999998 24.18 C 18.029999999999998 23.4, 18.165 23.265, 18.299999999999997 22.62 C 18.299999999999997 22.11, 18.554999999999996 22.005000000000003, 18.299999999999997 21.6 C 17.79 21.3, 17.745 20.985, 17.28 21 C 16.86 21.33, 16.71 21.225, 16.44 21.66 C 16.32 22.200000000000003, 16.26 22.245, 16.200000000000003 22.740000000000002 C 16.200000000000003 23.19, 16.005000000000003 23.34, 16.200000000000003 23.64 C 16.590000000000003 23.79, 16.590000000000003 24, 16.98 23.94 C 17.369999999999997 23.67, 17.564999999999998 23.715, 17.759999999999998 23.4 C 17.759999999999998 23.04, 17.804999999999996 23.009999999999998, 17.759999999999998 22.68 C 17.67 22.380000000000003, 17.91 22.200000000000003, 17.580000000000002 22.080000000000002 C 17.01 22.14, 16.8 22.005000000000003, 16.44 22.200000000000003 C 16.29 22.53, 16.215 22.65, 16.14 22.86 L 16.14 23.04" fill="none" stroke="black" stroke-width="5"></path></svg>