<svg xmlns="http://www.w3.org/2000/svg" viewBox="10.220000267028809 0.7999999523162842 18.202796936035156 45.09333348274231" width="18.202796936035156" height="45.09333348274231"><path d="M 11.22 24.240000000000002 C 12.150000000000002 24.42, 11.730000000000002 24.464999999999996, 13.080000000000002 24.599999999999998 C 14.850000000000001 24.689999999999998, 14.910000000000002 24.765, 16.62 24.78 C 18.27 24.720000000000002, 18.54 25.125000000000004, 19.919999999999998 24.660000000000004 C 21.03 23.79, 21.33 24.119999999999997, 22.14 22.919999999999998 C 22.65 21.39, 22.905 20.97, 23.16 19.86 C 23.16 19.17, 23.16 18.855, 23.16 18.48 C 23.16 18.42, 23.16 18.285, 23.16 18.36 C 23.16 18.57, 23.16 18, 23.16 18.78 C 23.16 20.130000000000003, 22.98 20.505000000000003, 23.16 21.48 C 23.52 22.08, 23.43 22.275, 23.88 22.68 C 24.42 22.89, 24.42 22.995, 24.96 23.1 C 25.5 23.1, 25.515 23.505000000000003, 26.04 23.1 C 26.549999999999997 22.29, 26.744999999999997 22.455, 27.06 21.48 C 27.18 20.340000000000003, 27.254999999999995 20.685000000000002, 27.299999999999997 19.200000000000003 C 27.27 17.37, 27.630000000000003 17.564999999999998, 27.240000000000002 15.54 C 26.490000000000002 13.32, 26.715000000000003 13.425, 25.740000000000002 11.100000000000001 C 24.54 8.670000000000002, 24.495 8.31, 23.34 6.24 C 22.23 4.53, 21.825000000000003 3.9299999999999997, 21.12 2.82 C 20.82 2.3099999999999996, 20.67 2.0549999999999997, 20.52 1.7999999999999998 L 20.52 1.7999999999999998" fill="none" stroke="black" stroke-width="5"></path><path d="M 17.1 11.94 C 16.560000000000002 12.75, 16.2 12.884999999999998, 16.02 13.559999999999999 C 16.2 14.1, 16.064999999999998 14.355, 16.38 14.64 C 16.83 14.670000000000002, 16.95 14.760000000000002, 17.28 14.700000000000001 C 17.490000000000002 14.55, 17.535000000000004 14.79, 17.700000000000003 14.399999999999999 C 17.82 13.77, 17.955000000000002 13.485, 17.94 13.14 C 17.79 13.08, 17.85 12.975, 17.64 13.02 C 17.37 13.17, 17.295 12.99, 17.1 13.32 C 16.98 13.83, 16.725 13.86, 16.86 14.34 C 17.25 14.79, 17.295 15.015, 17.64 15.24 C 17.94 15.24, 17.985000000000003 15.540000000000001, 18.240000000000002 15.24 C 18.450000000000003 14.64, 18.630000000000003 14.535, 18.66 14.04 C 18.509999999999998 13.649999999999999, 18.675 13.559999999999999, 18.36 13.26 C 17.88 13.05, 17.714999999999996 12.945, 17.4 12.84 C 17.25 12.84, 17.19 12.69, 17.1 12.84 C 17.07 13.14, 17.055 13.260000000000002, 17.04 13.440000000000001 L 17.04 13.559999999999999" fill="none" stroke="black" stroke-width="5"></path><path d="M 15.419999999999998 25.200000000000003 C 15.209999999999999 27.060000000000002, 15.105 27.240000000000002, 15 28.92 C 15 30.42, 15.105 30.045, 15 31.92 C 14.790000000000001 34.17, 14.685000000000002 34.38, 14.580000000000002 36.42 C 14.580000000000002 38.25, 14.580000000000002 38.475, 14.580000000000002 40.08 C 14.580000000000002 41.459999999999994, 14.580000000000002 41.925, 14.580000000000002 42.839999999999996 C 14.580000000000002 43.29, 14.580000000000002 43.365, 14.580000000000002 43.74 C 14.580000000000002 44.04, 14.580000000000002 44.144999999999996, 14.580000000000002 44.339999999999996 C 14.580000000000002 44.42999999999999, 14.535000000000002 44.39999999999999, 14.580000000000002 44.519999999999996 C 14.670000000000002 44.67, 14.715 44.745, 14.76 44.82 C 14.76 44.82, 14.685 44.805, 14.76 44.82 C 14.91 44.85, 14.985 44.865, 15.059999999999999 44.88 C 15.059999999999999 44.88, 14.985 44.910000000000004, 15.059999999999999 44.88 C 15.209999999999999 44.82, 15.18 44.955, 15.36 44.76 C 15.57 44.42999999999999, 15.614999999999998 44.474999999999994, 15.78 44.099999999999994 C 15.899999999999999 43.67999999999999, 15.87 43.739999999999995, 16.02 43.26 C 16.2 42.72, 16.215 42.765, 16.38 42.18 C 16.53 41.55, 16.335 41.7, 16.68 40.92 C 17.22 39.99, 17.205 39.84, 17.759999999999998 39.06 C 18.33 38.43, 17.97 38.61, 18.9 37.8 C 20.189999999999998 36.81, 20.355 36.54, 21.48 35.82 C 22.439999999999998 35.370000000000005, 22.56 35.175000000000004, 23.4 34.92 C 24.119999999999997 34.86, 24.239999999999995 34.83, 24.839999999999996 34.8 C 25.319999999999997 34.8, 25.364999999999995 34.8, 25.799999999999997 34.8 C 26.189999999999998 34.8, 26.339999999999996 34.785, 26.58 34.8 L 26.759999999999998 34.86" fill="none" stroke="black" stroke-width="5"></path></svg>