<svg xmlns="http://www.w3.org/2000/svg" viewBox="10.859999656677246 3.5 18.040000915527344 37.52758026123047" width="18.040000915527344" height="37.52758026123047"><path d="M 12.48 4.5 C 12.33 6, 12.315 5.625, 12.18 7.5 C 12.059999999999999 9.75, 12 9.945, 11.94 12 C 11.94 13.86, 11.94 14.31, 11.94 15.72 C 11.94 16.68, 11.76 16.68, 11.94 17.64 C 12.3 18.6, 12.195 18.72, 12.66 19.56 C 13.23 20.28, 13.139999999999999 20.43, 13.799999999999999 21 C 14.549999999999999 21.42, 14.459999999999999 21.465, 15.299999999999999 21.84 C 16.23 22.17, 15.99 22.245, 17.16 22.5 C 18.57 22.68, 18.39 22.755, 19.98 22.86 C 21.75 22.89, 21.884999999999998 23.099999999999998, 23.52 22.919999999999998 C 25.02 22.53, 25.53 22.38, 26.52 22.14 C 27 22.05, 27.21 22.005000000000003, 27.48 21.96 C 27.54 21.96, 27.57 21.96, 27.599999999999998 21.96 C 27.599999999999998 21.96, 27.554999999999996 21.96, 27.599999999999998 21.96 C 27.689999999999998 21.96, 27.705 21.96, 27.78 21.96 C 27.840000000000003 21.96, 27.87 21.96, 27.900000000000002 21.96 L 27.900000000000002 21.96" fill="none" stroke="black" stroke-width="5"></path><path d="M 19.200000000000003 11.28 C 18.57 12.27, 18.225 12.405, 17.94 13.26 C 18 13.98, 17.805 14.250000000000002, 18.06 14.700000000000001 C 18.509999999999998 14.879999999999999, 18.525000000000002 15.104999999999999, 18.96 15.059999999999999 C 19.38 14.79, 19.574999999999996 15.03, 19.799999999999997 14.52 C 19.83 13.77, 19.89 13.635, 19.86 13.02 C 19.77 12.54, 19.845 12.45, 19.68 12.059999999999999 C 19.44 11.759999999999998, 19.605000000000004 11.639999999999999, 19.200000000000003 11.459999999999999 C 18.630000000000003 11.399999999999999, 18.465 11.024999999999999, 18.06 11.34 C 17.82 12.030000000000001, 17.61 12.09, 17.580000000000002 12.72 C 17.76 13.29, 17.400000000000002 13.514999999999999, 17.94 13.86 C 18.840000000000003 13.98, 19.125000000000004 14.085, 19.740000000000002 14.100000000000001 C 20.07 14.01, 20.13 14.129999999999999, 20.4 13.919999999999998 C 20.61 13.59, 20.715 13.545, 20.82 13.26 C 20.82 13.02, 20.985 12.975, 20.82 12.78 C 20.490000000000002 12.629999999999999, 20.355 12.555, 20.16 12.48 C 20.1 12.48, 20.115 12.48, 20.04 12.48 L 19.86 12.48" fill="none" stroke="black" stroke-width="5"></path><path d="M 20.34 29.94 C 19.71 29.85, 19.725 29.639999999999997, 19.080000000000002 29.759999999999998 C 18.42 30.09, 18.299999999999997 30, 17.759999999999998 30.42 C 17.339999999999996 30.93, 17.324999999999996 30.69, 16.919999999999998 31.44 C 16.53 32.43, 16.35 32.385000000000005, 16.14 33.42 C 16.11 34.5, 16.020000000000003 34.589999999999996, 16.080000000000002 35.58 C 16.23 36.480000000000004, 16.064999999999998 36.540000000000006, 16.38 37.38 C 16.86 38.16, 16.845 38.339999999999996, 17.34 38.94 C 17.85 39.36, 17.7 39.510000000000005, 18.36 39.78 C 19.17 39.9, 19.08 40.065, 19.98 40.019999999999996 C 20.97 39.809999999999995, 21.255000000000003 39.89999999999999, 21.96 39.599999999999994 C 22.38 39.209999999999994, 22.394999999999996 39.224999999999994, 22.799999999999997 38.82 C 23.189999999999998 38.400000000000006, 23.265 38.580000000000005, 23.580000000000002 37.980000000000004 C 23.82 37.2, 23.895 37.125, 24.06 36.42 C 24.15 35.790000000000006, 24.195 35.760000000000005, 24.240000000000002 35.160000000000004 C 24.240000000000002 34.59, 24.270000000000003 34.5, 24.240000000000002 34.019999999999996 C 24.18 33.629999999999995, 24.209999999999997 33.555, 24.119999999999997 33.24 C 24 33, 24.15 33.03, 23.88 32.76 C 23.46 32.46, 23.415 32.370000000000005, 23.04 32.160000000000004 C 22.71 32.040000000000006, 22.71 32.085, 22.38 31.92 C 22.049999999999997 31.71, 22.095 31.755, 21.72 31.5 C 21.299999999999997 31.200000000000003, 21.165 31.095000000000002, 20.88 30.900000000000002 C 20.73 30.810000000000002, 20.775000000000002 30.825, 20.580000000000002 30.72 C 20.340000000000003 30.6, 20.220000000000002 30.54, 20.1 30.48 L 20.1 30.48" fill="none" stroke="black" stroke-width="5"></path></svg>