<svg xmlns="http://www.w3.org/2000/svg" viewBox="9.680000305175781 3.3000569343566895 18.979999542236328 42.0399432182312" width="18.979999542236328" height="42.0399432182312"><path d="M 13.74 27.96 C 13.350000000000001 26.73, 13.65 27.885, 12.96 25.5 C 11.97 21.96, 11.55 21.044999999999998, 10.98 18.419999999999998 C 10.83 16.71, 10.74 16.35, 10.68 15 C 10.71 14.01, 10.65 13.695, 10.74 13.02 C 10.89 12.66, 10.785 12.629999999999999, 11.040000000000001 12.299999999999999 C 11.4 12, 11.265 11.715, 11.76 11.7 C 12.39 11.969999999999999, 12.39 11.67, 13.02 12.24 C 13.649999999999999 13.11, 13.695 12.975000000000001, 14.28 13.98 C 14.82 15.12, 14.73 14.819999999999997, 15.36 16.259999999999998 C 16.08 18, 16.199999999999996 18.255000000000003, 16.799999999999997 19.740000000000002 C 17.279999999999998 20.970000000000002, 17.49 21.480000000000004, 17.759999999999998 22.200000000000003 C 17.82 22.410000000000004, 17.849999999999998 22.590000000000003, 17.88 22.62 C 17.88 22.47, 17.79 23.235, 17.88 22.32 C 18.060000000000002 20.64, 18.045 20.415, 18.240000000000002 18.96 C 18.450000000000003 17.73, 18.36 17.58, 18.66 16.5 C 19.05 15.57, 19.035 15.3, 19.44 14.64 C 19.86 14.25, 19.380000000000003 14.28, 20.28 13.86 C 21.66 13.41, 21.674999999999997 13.275, 23.04 12.96 C 24.39 12.780000000000001, 24.75 12.690000000000001, 25.740000000000002 12.600000000000001 C 26.37 12.600000000000001, 26.52 12.600000000000001, 27 12.600000000000001 C 27.330000000000002 12.600000000000001, 27.495000000000005 12.600000000000001, 27.660000000000004 12.600000000000001 C 27.660000000000004 12.600000000000001, 27.660000000000004 12.600000000000001, 27.660000000000004 12.600000000000001 L 27.660000000000004 12.600000000000001" fill="none" stroke="black" stroke-width="5"></path><path d="M 18.36 5.22 C 18.03 5.880000000000001, 17.745000000000005 5.970000000000001, 17.700000000000003 6.540000000000001 C 17.94 7.0200000000000005, 17.79 7.245, 18.18 7.5 C 18.72 7.53, 18.81 7.815, 19.259999999999998 7.5600000000000005 C 19.619999999999997 7.0200000000000005, 19.755 7.065, 19.98 6.48 C 20.07 5.85, 20.355 5.76, 20.16 5.22 C 19.68 4.77, 19.845000000000002 4.5, 19.200000000000003 4.32 C 18.39 4.41, 18.240000000000002 4.125, 17.580000000000002 4.5 C 17.07 5.16, 16.785 5.07, 16.56 5.82 C 16.619999999999997 6.66, 16.14 6.885, 16.68 7.5 C 17.7 7.89, 17.865 8.145, 18.72 8.28 C 19.41 8.16, 19.62 8.34, 20.1 8.040000000000001 C 20.37 7.5600000000000005, 20.52 7.59, 20.64 7.08 C 20.61 6.54, 20.910000000000004 6.4350000000000005, 20.580000000000002 6 C 19.950000000000003 5.67, 19.830000000000002 5.49, 19.32 5.34 C 18.93 5.37, 18.855 5.16, 18.54 5.4 C 18.299999999999997 5.8500000000000005, 18.18 6.030000000000001, 18.06 6.300000000000001 L 18.06 6.48" fill="none" stroke="black" stroke-width="5"></path><path d="M 22.02 13.5 C 22.02 14.97, 22.02 14.475000000000001, 22.02 16.44 C 22.02 18.9, 21.9 19.169999999999998, 22.02 21.36 C 22.259999999999998 23.28, 22.275 22.560000000000002, 22.5 25.200000000000003 C 22.71 28.560000000000002, 22.814999999999998 28.980000000000004, 22.919999999999998 31.92 C 22.919999999999998 34.44, 22.86 34.77, 22.919999999999998 36.96 C 23.04 38.82, 23.055 39.3, 23.16 40.68 C 23.25 41.58, 23.295 41.790000000000006, 23.34 42.480000000000004 C 23.34 42.96, 23.34 43.17, 23.34 43.44 C 23.34 43.5, 23.34 43.455, 23.34 43.56 C 23.34 43.71, 23.34 43.665, 23.34 43.86 C 23.34 44.099999999999994, 23.34 44.22, 23.34 44.339999999999996 C 23.34 44.339999999999996, 23.34 44.339999999999996, 23.34 44.339999999999996 C 23.34 44.339999999999996, 23.34 44.339999999999996, 23.34 44.339999999999996 L 23.34 44.339999999999996" fill="none" stroke="black" stroke-width="5"></path></svg>