<svg xmlns="http://www.w3.org/2000/svg" viewBox="9.139999389648438 5.241048336029053 22.040000915527344 40.81895303726196" width="22.040000915527344" height="40.81895303726196"><path d="M 11.100000000000001 27.06 C 10.830000000000002 25.89, 10.785 25.919999999999998, 10.56 24.72 C 10.379999999999999 23.49, 10.29 23.31, 10.2 22.259999999999998 C 10.2 21.39, 10.065 21.48, 10.2 20.52 C 10.469999999999999 19.47, 10.47 19.334999999999997, 10.74 18.419999999999998 C 11.01 17.64, 10.995 17.64, 11.28 16.86 C 11.579999999999998 16.08, 11.625 15.915, 11.879999999999999 15.299999999999999 C 12.09 14.849999999999998, 12.029999999999998 14.79, 12.299999999999999 14.399999999999999 C 12.629999999999999 14.07, 12.585 13.875, 12.96 13.74 C 13.379999999999999 13.8, 13.305 13.575, 13.799999999999999 13.86 C 14.370000000000001 14.37, 14.355 14.325, 14.940000000000001 14.879999999999999 C 15.540000000000001 15.48, 15.690000000000001 15.495000000000001, 16.14 16.080000000000002 C 16.44 16.65, 16.53 16.605, 16.740000000000002 17.22 C 16.86 17.88, 16.875 17.715, 16.98 18.54 C 17.07 19.53, 17.07 19.65, 17.16 20.52 C 17.25 21.27, 17.295 21.645, 17.34 22.02 C 17.34 22.02, 17.34 22.32, 17.34 22.02 C 17.34 21.42, 17.295 21.585, 17.34 20.82 C 17.43 19.89, 17.384999999999998 19.905, 17.52 18.96 C 17.7 18, 17.7 17.759999999999998, 17.88 17.04 C 18.060000000000002 16.560000000000002, 17.85 16.575000000000003, 18.240000000000002 16.080000000000002 C 18.840000000000003 15.57, 18.765 15.45, 19.44 15.059999999999999 C 20.19 14.79, 19.995 14.745, 20.94 14.52 C 22.08 14.34, 22.215 14.265, 23.22 14.16 C 24.09 14.13, 24.165 14.115000000000002, 24.96 14.100000000000001 C 25.68 14.100000000000001, 25.860000000000003 14.055000000000001, 26.400000000000002 14.100000000000001 C 26.759999999999998 14.190000000000001, 26.744999999999997 14.19, 27.119999999999997 14.28 C 27.509999999999998 14.370000000000001, 27.480000000000004 14.415000000000001, 27.900000000000002 14.46 C 28.35 14.46, 28.334999999999997 14.46, 28.799999999999997 14.46 C 29.279999999999998 14.46, 29.444999999999997 14.46, 29.759999999999998 14.46 C 29.909999999999997 14.46, 29.955 14.46, 30.06 14.46 C 30.119999999999997 14.46, 30.15 14.46, 30.18 14.46 L 30.18 14.46" fill="none" stroke="black" stroke-width="5"></path><path d="M 19.98 7.26 C 19.619999999999997 7.59, 19.439999999999998 7.425, 19.259999999999998 7.92 C 19.259999999999998 8.58, 19.064999999999998 8.865, 19.259999999999998 9.24 C 19.65 9.33, 19.53 9.54, 20.04 9.42 C 20.669999999999998 9.09, 20.924999999999997 9.3, 21.299999999999997 8.76 C 21.419999999999998 8.01, 21.479999999999997 7.859999999999999, 21.54 7.26 C 21.54 6.8100000000000005, 21.72 6.6, 21.54 6.36 C 21.18 6.33, 21.225 6.150000000000001, 20.82 6.300000000000001 C 20.369999999999997 6.63, 20.279999999999998 6.539999999999999, 19.919999999999998 6.959999999999999 C 19.65 7.47, 19.544999999999998 7.53, 19.38 7.98 C 19.32 8.370000000000001, 19.259999999999998 8.49, 19.259999999999998 8.76 C 19.32 8.91, 19.275 8.985, 19.38 9.06 C 19.53 9.06, 19.425 9.24, 19.68 9.06 C 20.04 8.7, 20.189999999999998 8.64, 20.4 8.34 C 20.46 8.1, 20.49 7.98, 20.52 7.86 C 20.52 7.86, 20.52 7.86, 20.52 7.86 C 20.52 7.86, 20.52 7.86, 20.52 7.86 C 20.52 7.86, 20.52 7.86, 20.52 7.86 C 20.52 7.86, 20.52 7.86, 20.52 7.86 L 20.52 7.86" fill="none" stroke="black" stroke-width="5"></path><path d="M 23.82 14.76 C 23.82 15.54, 23.805 15.435, 23.82 16.32 C 23.85 17.31, 23.865 17.129999999999995, 23.88 18.299999999999997 C 23.88 19.65, 23.835 19.59, 23.88 21 C 23.97 22.47, 24.06 22.410000000000004, 24.06 23.94 C 23.97 25.53, 24.09 25.409999999999997, 23.88 27.119999999999997 C 23.549999999999997 28.95, 23.549999999999997 29.310000000000002, 23.22 30.78 C 22.89 31.89, 23.099999999999998 31.68, 22.56 33 C 21.81 34.53, 21.705 34.695, 21.06 36.06 C 20.52 37.260000000000005, 20.535 37.38, 19.98 38.46 C 19.41 39.42, 19.56 39.465, 18.84 40.38 C 17.97 41.25, 17.880000000000003 41.339999999999996, 17.1 42.12 C 16.41 42.81, 16.35 42.885, 15.72 43.5 C 15.150000000000002 44.04, 15.015000000000002 44.19, 14.580000000000002 44.58 C 14.280000000000001 44.82, 14.13 44.94, 13.98 45.06 C 13.98 45.06, 13.98 45.06, 13.98 45.06 L 13.98 45.06" fill="none" stroke="black" stroke-width="5"></path></svg>