<svg xmlns="http://www.w3.org/2000/svg" viewBox="9.013333320617676 4.579999923706055 22.919296264648438 40.46000099182129" width="22.919296264648438" height="40.46000099182129"><path d="M 12.78 44.04 C 12.690000000000001 43.5, 12.720000000000002 43.92, 12.600000000000001 42.96 C 12.45 41.58, 12.48 41.49, 12.299999999999999 40.2 C 12.09 39, 12.075 39.045, 11.879999999999999 37.8 C 11.7 36.51, 11.655 36.72, 11.52 35.22 C 11.43 33.51, 11.445 33.239999999999995, 11.34 31.799999999999997 C 11.22 30.63, 11.250000000000002 30.72, 11.100000000000001 29.46 C 10.920000000000002 28.11, 10.920000000000002 28.049999999999997, 10.74 26.759999999999998 C 10.559999999999999 25.529999999999998, 10.559999999999999 25.484999999999996, 10.379999999999999 24.299999999999997 C 10.2 23.159999999999997, 10.11 22.935, 10.02 22.02 C 10.02 21.33, 10.02 21.105, 10.02 20.64 C 10.02 20.4, 10.004999999999999 20.505000000000003, 10.02 20.16 C 10.05 19.71, 9.96 19.74, 10.08 19.259999999999998 C 10.29 18.75, 10.2 18.705000000000002, 10.5 18.240000000000002 C 10.89 17.82, 10.934999999999999 17.669999999999998, 11.28 17.4 C 11.579999999999998 17.28, 11.204999999999998 17.34, 11.879999999999999 17.16 C 12.93 16.92, 12.735 16.89, 13.98 16.68 C 15.42 16.5, 15.27 16.425, 16.86 16.32 C 18.6 16.29, 18.66 16.275, 20.34 16.259999999999998 C 21.96 16.259999999999998, 22.14 16.259999999999998, 23.580000000000002 16.259999999999998 C 24.84 16.259999999999998, 25.229999999999997 16.259999999999998, 26.099999999999998 16.259999999999998 C 26.58 16.259999999999998, 26.744999999999997 16.244999999999997, 27.06 16.259999999999998 C 27.21 16.29, 27.18 16.08, 27.36 16.32 C 27.57 16.77, 27.630000000000003 16.544999999999998, 27.78 17.22 C 27.87 18.119999999999997, 28.05 17.985, 27.96 19.02 C 27.69 20.189999999999998, 27.840000000000003 20.115, 27.42 21.36 C 26.85 22.68, 26.76 22.86, 26.28 24 C 25.89 24.96, 26.04 24.660000000000004, 25.5 25.92 C 24.81 27.48, 24.644999999999996 27.945, 24.119999999999997 29.04 C 23.759999999999998 29.669999999999998, 23.58 29.985, 23.4 30.299999999999997 C 23.4 30.299999999999997, 23.4 30.299999999999997, 23.4 30.299999999999997 C 23.4 30.299999999999997, 23.415 30.33, 23.4 30.299999999999997 C 23.369999999999997 30.24, 23.07 30.345, 23.34 30.18 C 23.91 29.91, 23.655 29.895, 24.48 29.64 C 25.560000000000002 29.400000000000002, 25.815 29.220000000000002, 26.64 29.160000000000004 C 27.21 29.28, 27.285000000000004 29.175000000000004, 27.78 29.400000000000002 C 28.2 29.73, 28.049999999999997 29.49, 28.619999999999997 30.06 C 29.339999999999996 30.869999999999997, 29.534999999999997 30.795, 30.06 31.68 C 30.39 32.64, 30.509999999999998 32.60999999999999, 30.72 33.599999999999994 C 30.810000000000002 34.62, 30.900000000000002 34.62, 30.900000000000002 35.64 C 30.810000000000002 36.66, 31.125 36.72, 30.72 37.68 C 30 38.58, 30.195 38.62500000000001, 29.28 39.480000000000004 C 28.17 40.29, 28.154999999999998 40.544999999999995, 27.06 41.099999999999994 C 25.98 41.4, 25.89 41.685, 24.900000000000002 41.7 C 24 41.43000000000001, 23.85 41.505, 23.1 41.160000000000004 C 22.5 40.74, 22.244999999999997 40.56, 21.9 40.32 C 21.81 40.260000000000005, 21.765 40.230000000000004, 21.72 40.2 L 21.72 40.2" fill="none" stroke="black" stroke-width="5"></path><path d="M 17.94 6.0600000000000005 C 17.520000000000003 6.09, 17.475 5.880000000000001, 17.1 6.12 C 16.770000000000003 6.57, 16.590000000000003 6.465, 16.44 7.02 C 16.47 7.68, 16.365000000000002 7.904999999999999, 16.5 8.34 C 16.740000000000002 8.55, 16.785 8.73, 16.98 8.76 C 17.130000000000003 8.61, 17.205000000000002 9.014999999999999, 17.28 8.459999999999999 C 17.28 7.5, 17.28 7.155000000000001, 17.28 6.540000000000001 C 17.28 6.2700000000000005, 17.400000000000002 6.24, 17.28 6 C 17.04 5.79, 17.235 5.58, 16.799999999999997 5.58 C 16.169999999999998 5.79, 16.095 5.4, 15.54 6 C 15.06 6.99, 14.745000000000001 7.11, 14.580000000000002 7.98 C 14.73 8.73, 14.325 9, 14.879999999999999 9.48 C 15.839999999999998 9.69, 16.034999999999997 10.004999999999999, 16.799999999999997 9.899999999999999 C 17.369999999999997 9.48, 17.565 9.645, 17.94 9.06 C 18.119999999999997 8.31, 18.209999999999997 8.145, 18.299999999999997 7.5600000000000005 C 18.299999999999997 7.140000000000001, 18.584999999999997 6.960000000000001, 18.299999999999997 6.720000000000001 C 17.729999999999997 6.66, 17.655 6.345000000000001, 17.16 6.6000000000000005 C 16.740000000000002 7.17, 16.53 7.2, 16.32 7.74 C 16.32 8.25, 16.23 8.309999999999999, 16.32 8.76 C 16.5 9.15, 16.305 9.495000000000001, 16.68 9.540000000000001 C 17.25 9.24, 17.445 9.66, 17.82 8.94 C 18 7.8, 18.18 7.41, 18.18 6.66 C 18 6.3, 18 6.135, 17.82 5.9399999999999995 L 17.46 5.88" fill="none" stroke="black" stroke-width="5"></path></svg>