<svg xmlns="http://www.w3.org/2000/svg" viewBox="9.199999809265137 4.760000228881836 19.81999969482422 36.71333122253418" width="19.81999969482422" height="36.71333122253418"><path d="M 13.02 6.42 C 12.66 8.79, 12.629999999999999 8.1, 12.299999999999999 11.16 C 12 14.91, 11.85 16.005, 11.7 18.66 C 11.7 20.22, 11.565 20.34, 11.7 21.78 C 11.969999999999999 23.1, 11.655000000000001 23.550000000000004, 12.24 24.42 C 13.14 24.84, 12.915 25.32, 14.04 25.259999999999998 C 15.39 24.72, 15.675000000000002 24.96, 16.740000000000002 24.18 C 17.52 23.16, 17.714999999999996 23.07, 18.299999999999997 22.14 C 18.689999999999998 21.3, 18.885 21.105, 19.080000000000002 20.46 C 19.080000000000002 20.009999999999998, 19.080000000000002 19.904999999999998, 19.080000000000002 19.56 C 19.080000000000002 19.32, 19.080000000000002 19.185000000000002, 19.080000000000002 19.080000000000002 C 19.080000000000002 19.11, 19.080000000000002 18.705000000000002, 19.080000000000002 19.14 C 19.080000000000002 19.98, 19.020000000000003 19.905, 19.080000000000002 20.82 C 19.200000000000003 21.81, 18.945 21.854999999999997, 19.32 22.799999999999997 C 19.950000000000003 23.699999999999996, 19.8 23.864999999999995, 20.580000000000002 24.599999999999998 C 21.51 25.17, 21.405 25.455000000000002, 22.44 25.740000000000002 C 23.58 25.740000000000002, 23.745 26.19, 24.72 25.740000000000002 C 25.529999999999998 24.840000000000003, 25.679999999999996 25.365000000000002, 26.339999999999996 23.94 C 26.849999999999998 21.990000000000002, 27 22.634999999999998, 27.36 20.04 C 27.57 16.799999999999997, 27.75 16.139999999999997, 27.78 13.559999999999999 C 27.630000000000003 11.64, 27.78 11.370000000000001, 27.48 9.72 C 27.03 8.34, 26.88 7.904999999999999, 26.58 6.959999999999999 C 26.43 6.449999999999999, 26.355 6.194999999999999, 26.28 5.9399999999999995 C 26.28 5.9399999999999995, 26.295 5.984999999999999, 26.28 5.9399999999999995 L 26.22 5.76" fill="none" stroke="black" stroke-width="5"></path><path d="M 18.78 10.2 C 18.33 10.559999999999999, 18.225 10.35, 17.88 10.92 C 17.64 11.7, 17.444999999999997 12.030000000000001, 17.4 12.48 C 17.55 12.600000000000001, 17.400000000000002 12.93, 17.700000000000003 12.72 C 18.150000000000002 12.18, 18.315 12.39, 18.6 11.64 C 18.72 10.68, 18.855 10.245000000000001, 18.84 9.72 C 18.689999999999998 9.63, 18.869999999999997 9.270000000000001, 18.54 9.540000000000001 C 18.03 10.170000000000002, 17.64 10.200000000000001, 17.52 10.8 C 17.79 11.370000000000001, 17.654999999999998 11.504999999999999, 18.06 11.94 C 18.6 12.239999999999998, 18.675 12.674999999999999, 19.14 12.54 C 19.53 11.969999999999999, 19.724999999999998 11.834999999999997, 19.919999999999998 11.399999999999999 C 19.919999999999998 11.1, 20.174999999999997 10.695, 19.919999999999998 10.8 C 19.409999999999997 11.31, 19.154999999999998 11.445, 18.9 11.82 C 18.9 12.059999999999999, 18.9 12.18, 18.9 12.299999999999999 L 18.9 12.299999999999999" fill="none" stroke="black" stroke-width="5"></path><path d="M 10.92 32.88 C 11.309999999999999 32.88, 11.28 32.88, 11.7 32.88 C 12.15 32.88, 11.16 32.940000000000005, 12.600000000000001 32.88 C 15.030000000000001 32.760000000000005, 15.240000000000002 32.7, 17.46 32.64 C 19.47 32.64, 19.935000000000002 32.64, 21.48 32.64 C 22.560000000000002 32.64, 22.86 32.64, 23.64 32.64 C 24.119999999999997 32.64, 24.06 32.64, 24.599999999999998 32.64 C 25.199999999999996 32.64, 25.379999999999995 32.64, 25.799999999999997 32.64 L 26.28 32.64" fill="none" stroke="black" stroke-width="5"></path><path d="M 10.2 40.44 C 11.1 40.44, 10.274999999999999 40.515, 12 40.44 C 14.55 40.29, 14.970000000000002 40.2, 17.1 40.14 C 18.810000000000002 40.17, 18.990000000000002 40.185, 20.52 40.2 C 21.869999999999997 40.2, 21.81 40.2, 23.22 40.2 C 24.69 40.2, 25.020000000000003 40.2, 26.160000000000004 40.2 C 26.970000000000002 40.2, 27.315 40.2, 27.78 40.2 C 27.9 40.2, 27.96 40.2, 28.02 40.2 L 28.02 40.2" fill="none" stroke="black" stroke-width="5"></path></svg>