<svg xmlns="http://www.w3.org/2000/svg" viewBox="9.426666259765625 6.549360275268555 23.273334503173828 40.23063850402832" width="23.273334503173828" height="40.23063850402832"><path d="M 10.8 37.68 C 11.73 37.379999999999995, 11.67 37.334999999999994, 12.66 37.08 C 13.71 36.870000000000005, 13.8 36.735, 14.76 36.660000000000004 C 15.629999999999999 36.72, 15.615 36.480000000000004, 16.5 36.78 C 17.4 37.32, 17.624999999999996 37.335, 18.299999999999997 37.86 C 18.75 38.370000000000005, 18.885 38.295, 19.200000000000003 38.88 C 19.380000000000003 39.540000000000006, 19.47 39.27, 19.56 40.2 C 19.56 41.4, 19.845 41.595, 19.56 42.599999999999994 C 18.99 43.41, 19.005 43.559999999999995, 18.419999999999998 44.22 C 17.82 44.730000000000004, 17.865 44.88, 17.22 45.24 C 16.53 45.45, 16.59 45.525000000000006, 15.84 45.660000000000004 C 15.030000000000001 45.72, 14.895 45.765, 14.22 45.78 C 13.68 45.75, 13.575000000000001 45.81, 13.14 45.72 C 12.81 45.57, 12.795000000000002 45.585, 12.48 45.42 C 12.18 45.24, 12.209999999999999 45.39, 11.879999999999999 45.06 C 11.52 44.58, 11.43 44.62499999999999, 11.16 44.099999999999994 C 10.98 43.53, 10.98 43.635, 10.8 42.96 C 10.620000000000001 42.18000000000001, 10.53 42.045, 10.44 41.400000000000006 C 10.44 40.89, 10.44 41.010000000000005, 10.44 40.38 C 10.44 39.63, 10.44 39.690000000000005, 10.44 38.88 C 10.44 38.010000000000005, 10.41 38.13, 10.44 37.14 C 10.5 36.03, 10.5 35.94, 10.56 34.92 C 10.620000000000001 33.99, 10.605 34.215, 10.68 33.06 C 10.77 31.68, 10.725 31.665, 10.86 30.299999999999997 C 11.04 28.949999999999996, 11.085 28.769999999999996, 11.22 27.599999999999998 C 11.309999999999999 26.61, 11.325 26.369999999999997, 11.399999999999999 25.619999999999997 C 11.459999999999999 25.11, 11.355 25.319999999999997, 11.52 24.599999999999998 C 11.79 23.67, 11.759999999999998 23.655, 12.059999999999999 22.740000000000002 C 12.39 21.840000000000003, 12.36 21.78, 12.72 20.94 C 13.11 20.16, 12.99 20.055, 13.5 19.38 C 14.129999999999999 18.810000000000002, 14.04 18.615000000000002, 14.76 18.240000000000002 C 15.57 18.060000000000002, 15.134999999999998 18.105, 16.38 17.88 C 18.060000000000002 17.61, 18.165000000000003 17.475, 19.740000000000002 17.34 C 21.21 17.34, 21.195 17.265, 22.68 17.34 C 24.18 17.490000000000002, 24.57 17.505000000000003, 25.68 17.64 C 26.4 17.759999999999998, 26.444999999999997 17.729999999999997, 27.119999999999997 17.88 C 27.75 18.060000000000002, 27.945 18.090000000000003, 28.380000000000003 18.240000000000002 C 28.62 18.36, 28.545 18.225, 28.86 18.48 C 29.25 18.869999999999997, 29.235 18.599999999999998, 29.64 19.259999999999998 C 30.060000000000002 20.189999999999998, 30.075000000000003 20.085, 30.48 21.12 C 30.869999999999997 22.259999999999998, 30.959999999999997 22.005, 31.259999999999998 23.4 C 31.47 25.05, 31.575 24.57, 31.68 26.700000000000003 C 31.68 29.310000000000002, 31.725 29.025000000000002, 31.68 31.92 C 31.59 35.1, 31.68 36.015, 31.5 38.28 C 31.23 39.63, 31.17 39.94500000000001, 30.96 40.980000000000004 C 30.810000000000002 41.7, 30.780000000000005 41.835, 30.660000000000004 42.42 C 30.57 42.870000000000005, 30.525000000000002 43.095, 30.48 43.32 C 30.48 43.32, 30.525000000000002 43.2, 30.48 43.32 C 30.39 43.56, 30.374999999999996 43.485, 30.299999999999997 43.8 C 30.24 44.19, 30.21 44.385, 30.18 44.58 C 30.18 44.58, 30.18 44.58, 30.18 44.58 C 30.18 44.58, 30.18 44.58, 30.18 44.58 L 30.18 44.58" fill="none" stroke="black" stroke-width="5"></path><path d="M 19.799999999999997 8.399999999999999 C 19.439999999999998 9.18, 19.080000000000002 9.09, 19.080000000000002 9.959999999999999 C 19.439999999999998 10.919999999999998, 19.169999999999998 11.325, 19.799999999999997 11.879999999999999 C 20.7 12.03, 21 12.3, 21.6 12.18 C 21.900000000000002 11.79, 22.095000000000002 11.985, 22.200000000000003 11.399999999999999 C 22.11 10.62, 22.275 10.379999999999999, 22.02 9.84 C 21.6 9.54, 21.57 9.345, 21.18 9.24 C 20.82 9.33, 20.700000000000003 9.120000000000001, 20.46 9.42 C 20.34 9.93, 20.07 9.87, 20.22 10.44 C 20.64 11.07, 20.58 11.309999999999999, 21.06 11.7 C 21.6 11.85, 21.645 12.36, 22.14 12 C 22.59 11.129999999999999, 22.875 11.205, 23.04 10.26 C 22.919999999999998 9.24, 23.099999999999998 8.88, 22.799999999999997 8.22 C 22.32 7.92, 22.5 7.35, 21.84 7.62 C 21 8.46, 20.685 8.235000000000001, 20.16 9.3 C 19.950000000000003 10.59, 19.830000000000002 11.19, 19.740000000000002 11.879999999999999 C 19.77 11.969999999999999, 19.724999999999998 11.954999999999998, 19.799999999999997 12.059999999999999 L 20.04 12.299999999999999" fill="none" stroke="black" stroke-width="5"></path></svg>