<svg xmlns="http://www.w3.org/2000/svg" viewBox="9.239144325256348 2.7799999713897705 19.780856132507324 41.35999941825867" width="19.780856132507324" height="41.35999941825867"><path d="M 12.78 3.7800000000000002 C 12.27 5.91, 12.285 5.505000000000002, 11.76 8.040000000000001 C 11.219999999999999 10.98, 11.055 10.829999999999998, 10.68 13.919999999999998 C 10.469999999999999 17.159999999999997, 10.155 18.299999999999997, 10.26 20.4 C 10.68 21.36, 10.725000000000001 21.78, 11.100000000000001 22.32 C 11.43 22.439999999999998, 10.56 23.369999999999997, 11.76 22.56 C 13.829999999999998 20.82, 14.384999999999998 20.970000000000002, 15.899999999999999 19.080000000000002 C 16.86 17.04, 17.34 16.02, 17.82 15 C 17.82 15, 17.82 15.015, 17.82 15 C 17.82 14.97, 17.865000000000002 14.625000000000002, 17.82 14.940000000000001 C 17.73 15.6, 17.73 15.314999999999998, 17.64 16.259999999999998 C 17.55 17.49, 17.415 17.564999999999998, 17.46 18.72 C 17.64 19.799999999999997, 17.4 20.159999999999997, 17.82 20.88 C 18.48 21.240000000000002, 18.585 21.42, 19.14 21.6 C 19.59 21.6, 19.32 21.6, 20.04 21.6 C 21.03 21.6, 21.09 21.705000000000002, 22.02 21.6 C 22.89 21.39, 22.979999999999997 21.525, 23.759999999999998 21.18 C 24.45 20.7, 24.66 20.7, 25.14 20.22 C 25.41 19.74, 25.424999999999997 20.31, 25.68 19.259999999999998 C 25.92 17.64, 26.115000000000002 18.494999999999997, 26.160000000000004 16.02 C 26.01 12.69, 25.995 11.82, 25.86 9.36 C 25.74 7.77, 25.68 6.975, 25.619999999999997 6.18 C 25.619999999999997 6.18, 25.619999999999997 6.18, 25.619999999999997 6.18 L 25.619999999999997 6.18" fill="none" stroke="black" stroke-width="5"></path><path d="M 17.64 8.58 C 17.19 9.21, 16.92 9.435, 16.740000000000002 9.84 C 16.83 10.02, 16.59 10.2, 16.919999999999998 10.2 C 17.49 10.02, 17.7 10.23, 18.06 9.84 C 18.21 9.24, 18.285 9.015, 18.36 8.64 C 18.36 8.49, 18.509999999999998 8.4, 18.36 8.34 C 18.06 8.37, 17.97 8.04, 17.759999999999998 8.399999999999999 C 17.64 9.09, 17.445 9.209999999999999, 17.52 9.78 C 17.79 10.23, 17.775 10.455, 18.06 10.68 C 18.36 10.68, 18.39 11.115, 18.66 10.68 C 18.9 9.809999999999999, 19.095 9.66, 19.14 8.94 C 18.990000000000002 8.370000000000001, 19.215 8.100000000000001, 18.84 7.800000000000001 C 18.240000000000002 7.7700000000000005, 18 7.5600000000000005, 17.64 7.74 C 17.52 8.129999999999999, 17.46 8.265, 17.4 8.52 L 17.4 8.76" fill="none" stroke="black" stroke-width="5"></path><path d="M 18.48 21.299999999999997 C 18.33 22.74, 18.6 21.93, 18.18 24.18 C 17.49 27.24, 17.414999999999996 27.449999999999996, 16.799999999999997 30.299999999999997 C 16.259999999999998 32.94, 16.17 33.57, 15.72 35.58 C 15.36 36.959999999999994, 15.27 36.959999999999994, 15 38.339999999999996 C 14.82 39.72, 14.73 40.25999999999999, 14.64 41.099999999999994 C 14.64 41.4, 14.64 41.475, 14.64 41.7 C 14.64 41.85, 14.505 41.79, 14.64 42 C 14.91 42.269999999999996, 14.925 42.3, 15.18 42.54 C 15.42 42.75, 15.45 42.825, 15.66 42.96 C 15.84 43.019999999999996, 15.93 43.05, 16.02 43.08 C 16.02 43.08, 15.945 43.08, 16.02 43.08 C 16.17 43.08, 16.11 43.214999999999996, 16.32 43.08 C 16.59 42.81, 16.56 42.93, 16.86 42.54 C 17.189999999999998 42.03, 17.22 42.089999999999996, 17.52 41.519999999999996 C 17.79 40.89, 17.7 40.98, 18.06 40.26 C 18.509999999999998 39.45, 18.045 39.69, 18.96 38.64 C 20.34 37.35, 20.174999999999997 37.095, 21.72 36.06 C 23.43 35.28, 23.64 35.025, 25.14 34.5 C 26.43 34.230000000000004, 27 34.095, 27.72 33.96 C 27.869999999999997 33.96, 27.945 33.96, 28.02 33.96 L 28.02 33.96" fill="none" stroke="black" stroke-width="5"></path></svg>