<svg xmlns="http://www.w3.org/2000/svg" viewBox="10.34000015258789 4.529866695404053 17.360000610351562 38.23013162612915" width="17.360000610351562" height="38.23013162612915"><path d="M 15.24 35.28 C 14.79 33.9, 14.925 34.169999999999995, 14.34 32.519999999999996 C 13.62 30.599999999999998, 13.514999999999999 30.674999999999997, 12.899999999999999 28.68 C 12.389999999999999 26.61, 12.209999999999999 26.31, 11.879999999999999 24.54 C 11.73 23.07, 11.7 22.965, 11.58 21.6 C 11.489999999999998 20.340000000000003, 11.444999999999999 20.07, 11.399999999999999 19.080000000000002 C 11.399999999999999 18.36, 11.264999999999999 18.375, 11.399999999999999 17.64 C 11.669999999999998 16.89, 11.594999999999999 16.845, 11.94 16.14 C 12.36 15.48, 12.434999999999999 15.285, 12.78 14.82 C 13.05 14.55, 13.08 14.43, 13.32 14.28 C 13.530000000000001 14.25, 13.350000000000001 14.190000000000001, 13.74 14.22 C 14.309999999999999 14.309999999999999, 14.34 14.145, 14.879999999999999 14.399999999999999 C 15.389999999999999 14.82, 15.419999999999998 14.67, 15.899999999999999 15.24 C 16.349999999999998 15.96, 16.424999999999997 15.975, 16.799999999999997 16.68 C 17.099999999999998 17.369999999999997, 17.069999999999997 17.205, 17.4 18.06 C 17.759999999999998 19.08, 17.865000000000002 19.26, 18.12 20.1 C 18.27 20.759999999999998, 18.284999999999997 20.88, 18.419999999999998 21.419999999999998 C 18.54 21.839999999999996, 18.6 22.049999999999997, 18.66 22.259999999999998 C 18.66 22.259999999999998, 18.63 22.379999999999995, 18.66 22.259999999999998 C 18.72 22.02, 18.75 22.44, 18.78 21.78 C 18.78 20.700000000000003, 18.78 20.67, 18.78 19.62 C 18.78 18.6, 18.75 18.375, 18.78 17.580000000000002 C 18.84 17.01, 18.81 16.875, 18.9 16.44 C 19.02 16.14, 18.885 16.14, 19.14 15.84 C 19.53 15.54, 19.409999999999997 15.435, 19.919999999999998 15.24 C 20.549999999999997 15.149999999999999, 20.625 15.03, 21.18 15.059999999999999 C 21.66 15.209999999999999, 21.630000000000003 15.149999999999999, 22.14 15.36 C 22.68 15.629999999999999, 22.68 15.314999999999998, 23.22 15.899999999999999 C 23.759999999999998 16.8, 23.79 16.545, 24.299999999999997 17.700000000000003 C 24.779999999999998 19.11, 24.974999999999998 19.275, 25.259999999999998 20.52 C 25.35 21.6, 25.395 21.285, 25.44 22.68 C 25.44 24.39, 25.470000000000002 24.284999999999997, 25.44 26.099999999999998 C 25.380000000000003 28.02, 25.470000000000002 28.35, 25.32 29.94 C 25.08 31.200000000000003, 25.019999999999996 31.425, 24.839999999999996 32.46 C 24.72 33.269999999999996, 24.749999999999996 33.254999999999995, 24.599999999999998 34.08 C 24.42 34.92, 24.345000000000002 35.235, 24.240000000000002 35.76 C 24.21 35.97, 24.195 36.075, 24.18 36.18 L 24.18 36.18" fill="none" stroke="black" stroke-width="5"></path><path d="M 16.740000000000002 5.76 C 16.5 6.33, 16.349999999999998 6.284999999999999, 16.259999999999998 6.8999999999999995 C 16.32 7.5600000000000005, 16.244999999999997 7.7250000000000005, 16.38 8.22 C 16.589999999999996 8.55, 16.559999999999995 8.774999999999999, 16.799999999999997 8.879999999999999 C 17.07 8.76, 17.1 9.045, 17.34 8.64 C 17.549999999999997 7.95, 17.654999999999998 7.83, 17.759999999999998 7.26 C 17.759999999999998 6.8100000000000005, 17.849999999999998 6.720000000000001, 17.759999999999998 6.36 C 17.58 6.09, 17.654999999999998 6.015000000000001, 17.4 5.82 C 17.07 5.7, 17.025000000000002 5.415, 16.740000000000002 5.58 C 16.5 6.03, 16.365 5.775, 16.259999999999998 6.48 C 16.29 7.4399999999999995, 16.095 7.754999999999999, 16.32 8.399999999999999 C 16.740000000000002 8.73, 16.605 8.985, 17.16 9.06 C 17.85 8.879999999999999, 18.134999999999998 9.075, 18.54 8.7 C 18.66 8.129999999999999, 18.72 7.95, 18.78 7.5600000000000005 C 18.78 7.35, 18.855 7.32, 18.78 7.14 C 18.630000000000003 6.99, 18.675 6.915, 18.48 6.84 C 18.240000000000002 6.84, 18.15 6.795, 18 6.84 C 17.939999999999998 6.93, 17.924999999999997 6.93, 17.88 7.02 C 17.85 7.109999999999999, 17.835 7.079999999999999, 17.82 7.199999999999999 L 17.82 7.5" fill="none" stroke="black" stroke-width="5"></path><path d="M 12.84 35.7 C 14.309999999999999 35.58, 14.355 35.49, 15.78 35.46 C 17.16 35.519999999999996, 16.904999999999998 35.415, 18.54 35.58 C 20.43 35.849999999999994, 20.61 35.94, 22.32 36.12 C 23.85 36.209999999999994, 24.525000000000002 36.239999999999995, 25.380000000000003 36.3 C 25.560000000000002 36.33, 25.485000000000003 36.254999999999995, 25.740000000000002 36.36 C 26.07 36.54, 26.160000000000004 36.6, 26.400000000000002 36.72 L 26.700000000000003 36.839999999999996" fill="none" stroke="black" stroke-width="5"></path><path d="M 13.5 41.76 C 14.850000000000001 41.64, 14.070000000000004 41.745, 16.200000000000003 41.519999999999996 C 19.11 41.19, 19.875 41.025, 22.02 40.86 C 23.4 40.86, 23.745 40.86, 24.78 40.86 C 25.470000000000002 40.86, 25.785000000000004 40.86, 26.160000000000004 40.86 C 26.220000000000002 40.86, 26.25 40.86, 26.28 40.86 L 26.28 40.86" fill="none" stroke="black" stroke-width="5"></path></svg>