<svg xmlns="http://www.w3.org/2000/svg" viewBox="11.399999618530273 4.363886833190918 19 40.37611484527588" width="19" height="40.37611484527588"><path d="M 21.6 6.0600000000000005 C 21.33 6.78, 21.075 6.855, 21.06 7.5 C 21.299999999999997 8.07, 21.27 8.355, 21.54 8.64 C 21.84 8.64, 21.855 8.655000000000001, 22.14 8.64 C 22.41 8.61, 22.485 8.97, 22.68 8.58 C 22.799999999999997 7.83, 22.86 7.83, 22.919999999999998 7.08 C 22.919999999999998 6.33, 23.4 6, 22.919999999999998 5.58 C 21.96 5.49, 21.72 5.28, 21 5.4 C 20.52 5.73, 20.325 5.625000000000001, 20.04 6.0600000000000005 C 19.95 6.6, 19.545 6.6, 19.86 7.14 C 20.58 7.68, 20.744999999999997 7.920000000000001, 21.299999999999997 8.22 C 21.689999999999998 8.280000000000001, 21.705000000000002 8.475, 22.080000000000002 8.34 C 22.439999999999998 8.01, 22.619999999999997 8.07, 22.799999999999997 7.68 C 22.799999999999997 7.2299999999999995, 23.249999999999996 6.989999999999999, 22.799999999999997 6.779999999999999 C 21.9 6.81, 21.509999999999998 6.6, 21 6.84 C 20.88 7.29, 20.82 7.4399999999999995, 20.759999999999998 7.74 L 20.759999999999998 8.040000000000001" fill="none" stroke="black" stroke-width="5"></path><path d="M 15.54 38.339999999999996 C 15.36 37.019999999999996, 15.615 37.59, 15.18 35.7 C 14.489999999999998 33.24, 14.34 33.345, 13.799999999999999 30.78 C 13.41 28.11, 13.365 27.48, 13.02 25.44 C 12.719999999999999 24.03, 12.569999999999999 23.805, 12.419999999999998 22.62 C 12.419999999999998 21.660000000000004, 12.374999999999996 21.675000000000004, 12.419999999999998 20.700000000000003 C 12.51 19.71, 12.465 19.56, 12.600000000000001 18.72 C 12.780000000000001 18.03, 12.615000000000002 18.119999999999997, 12.96 17.34 C 13.47 16.47, 13.455000000000002 16.215000000000003, 13.98 15.600000000000001 C 14.52 15.24, 14.384999999999998 15.149999999999999, 15.059999999999999 14.879999999999999 C 15.87 14.7, 15.465 14.61, 16.68 14.52 C 18.299999999999997 14.52, 17.82 14.399999999999999, 19.919999999999998 14.52 C 22.5 14.76, 23.369999999999997 14.835, 25.08 15 C 25.919999999999998 15.09, 26.264999999999997 15.105, 26.759999999999998 15.18 C 26.909999999999997 15.239999999999998, 26.805 15.134999999999998, 27.06 15.299999999999999 C 27.42 15.57, 27.465 15.299999999999999, 27.78 15.84 C 28.05 16.65, 28.14 16.635, 28.32 17.46 C 28.41 18.3, 28.455 18.195, 28.5 19.14 C 28.5 20.19, 28.5 20.025000000000002, 28.5 21.240000000000002 C 28.5 22.62, 28.575 22.23, 28.5 24 C 28.35 26.16, 28.485000000000003 26.07, 28.200000000000003 28.32 C 27.78 30.66, 27.630000000000003 31.305, 27.36 33 C 27.24 34.05, 27.269999999999996 34.154999999999994, 27.119999999999997 35.099999999999994 C 26.939999999999998 35.94, 26.909999999999997 36.12, 26.759999999999998 36.78 C 26.64 37.260000000000005, 26.58 37.5, 26.52 37.74 C 26.52 37.74, 26.52 37.74, 26.52 37.74 C 26.52 37.74, 26.52 37.74, 26.52 37.74 C 26.52 37.74, 26.52 37.74, 26.52 37.74 L 26.52 37.74" fill="none" stroke="black" stroke-width="5"></path><path d="M 12.899999999999999 38.099999999999994 C 13.26 38.04, 12.555 38.010000000000005, 13.620000000000001 37.980000000000004 C 15.39 37.980000000000004, 14.865000000000002 38.040000000000006, 17.16 37.980000000000004 C 19.979999999999997 37.86, 20.909999999999997 37.800000000000004, 22.799999999999997 37.74 C 23.759999999999998 37.74, 23.79 37.74, 24.72 37.74 C 25.619999999999997 37.74, 25.845 37.695, 26.52 37.74 C 26.97 37.83, 26.925 37.800000000000004, 27.42 37.92 C 27.96 38.07, 28.035 38.144999999999996, 28.5 38.22 L 29.28 38.22" fill="none" stroke="black" stroke-width="5"></path><path d="M 13.26 42.54 C 14.7 42.54, 14.31 42.39, 16.14 42.54 C 18.36 42.84, 18.615000000000002 42.885, 20.580000000000002 43.14 C 22.29 43.35, 22.35 43.410000000000004, 24 43.56 C 25.59 43.650000000000006, 26.04 43.695, 27.18 43.74 C 27.869999999999997 43.74, 28.005 43.74, 28.56 43.74 C 28.98 43.74, 29.19 43.74, 29.400000000000002 43.74 L 29.400000000000002 43.74" fill="none" stroke="black" stroke-width="5"></path></svg>