<svg xmlns="http://www.w3.org/2000/svg" viewBox="14.180000305175781 2.180000066757202 20.593334197998047 41.40666604042053" width="20.593334197998047" height="41.40666604042053"><path d="M 15.18 30.299999999999997 C 15.48 30.299999999999997, 15.254999999999999 30.299999999999997, 15.78 30.299999999999997 C 16.53 30.299999999999997, 15.96 30.419999999999995, 17.28 30.299999999999997 C 19.17 30.06, 19.35 29.939999999999998, 21.06 29.82 C 22.589999999999996 29.82, 22.799999999999997 29.865000000000002, 24.119999999999997 29.82 C 25.229999999999997 29.73, 25.409999999999997 29.73, 26.339999999999996 29.64 C 27.089999999999996 29.55, 27.059999999999995 29.58, 27.839999999999996 29.46 C 28.65 29.310000000000002, 28.68 29.355000000000004, 29.46 29.160000000000004 C 30.21 28.92, 30.39 28.905, 30.96 28.68 C 31.35 28.47, 31.215000000000003 28.604999999999997, 31.740000000000002 28.259999999999998 C 32.400000000000006 27.779999999999998, 32.58 27.974999999999998, 33.06 27.299999999999997 C 33.36 26.43, 33.510000000000005 26.744999999999997, 33.660000000000004 25.56 C 33.660000000000004 24.06, 33.915000000000006 24.479999999999997, 33.660000000000004 22.56 C 33.150000000000006 20.22, 33.165 19.845, 32.64 17.88 C 32.1 16.29, 32.07 16.485, 31.56 14.700000000000001 C 31.08 12.72, 31.11 12.540000000000001, 30.599999999999998 10.74 C 30.06 9.120000000000001, 29.97 8.76, 29.52 7.5 C 29.159999999999997 6.6, 29.009999999999998 6.209999999999999, 28.799999999999997 5.699999999999999 C 28.74 5.58, 28.83 5.76, 28.68 5.46 C 28.44 4.98, 28.425000000000004 5.01, 28.200000000000003 4.5 C 27.990000000000002 3.96, 27.900000000000002 3.75, 27.78 3.42 L 27.72 3.18" fill="none" stroke="black" stroke-width="5"></path><path d="M 21.84 14.700000000000001 C 21.63 15.24, 21.435 15, 21.419999999999998 15.78 C 21.6 16.8, 21.51 17.115, 21.78 17.82 C 22.14 18.21, 22.125 18.39, 22.5 18.6 C 22.89 18.630000000000003, 22.965000000000003 18.96, 23.28 18.66 C 23.52 18.03, 23.64 18.119999999999997, 23.759999999999998 17.4 C 23.759999999999998 16.59, 23.759999999999998 16.259999999999998, 23.759999999999998 15.78 C 23.759999999999998 15.629999999999999, 24.089999999999996 15.66, 23.759999999999998 15.48 C 23.1 15.27, 22.905 15.044999999999998, 22.44 15.059999999999999 C 22.17 15.299999999999999, 22.095 15.029999999999998, 21.9 15.54 C 21.78 16.32, 21.63 16.455000000000002, 21.66 17.1 C 21.84 17.61, 21.81 17.745, 22.02 18.12 C 22.259999999999998 18.36, 22.215 18.42, 22.5 18.6 C 22.83 18.72, 22.905 19.17, 23.16 18.84 C 23.34 18.060000000000002, 23.43 17.715, 23.52 17.28 C 23.52 17.19, 23.564999999999998 17.175, 23.52 17.1 C 23.43 17.04, 23.415 17.04, 23.34 16.98 C 23.28 16.92, 23.369999999999997 16.89, 23.22 16.86 L 22.740000000000002 16.86" fill="none" stroke="black" stroke-width="5"></path><path d="M 15.66 37.019999999999996 C 17.22 37.05, 17.205000000000002 37.065, 18.78 37.08 C 20.37 37.08, 20.37 37.125, 21.96 37.08 C 23.55 36.99, 23.655 36.97500000000001, 25.14 36.900000000000006 C 26.520000000000003 36.84, 26.67 36.885000000000005, 27.900000000000002 36.78 C 28.98 36.63, 29.25 36.58500000000001, 30.06 36.480000000000004 C 30.6 36.42, 30.705000000000002 36.465, 31.14 36.36 C 31.47 36.21, 31.634999999999998 36.135000000000005, 31.799999999999997 36.06 L 31.799999999999997 36.06" fill="none" stroke="black" stroke-width="5"></path><path d="M 15.36 42.54 C 16.08 42.54, 15.419999999999998 42.644999999999996, 16.799999999999997 42.54 C 18.839999999999996 42.33, 19.14 42.224999999999994, 20.88 42.12 C 22.32 42.12, 22.409999999999997 42.165, 23.759999999999998 42.12 C 25.02 42.03, 25.245 41.985, 26.28 41.94 C 27.090000000000003 41.94, 27.03 41.94, 27.900000000000002 41.94 C 28.83 41.94, 28.95 41.94, 29.759999999999998 41.94 C 30.45 41.94, 30.525 41.94, 31.14 41.94 C 31.68 41.94, 31.755 41.94, 32.22 41.94 L 33 41.94" fill="none" stroke="black" stroke-width="5"></path></svg>