<svg xmlns="http://www.w3.org/2000/svg" viewBox="10.139999389648438 3.0199999809265137 19.30666732788086 34.6933331489563" width="19.30666732788086" height="34.6933331489563"><path d="M 12.96 4.0200000000000005 C 12.75 5.130000000000001, 12.75 4.515000000000001, 12.54 6.24 C 12.33 8.58, 12.375 8.64, 12.120000000000001 10.92 C 11.82 13.14, 11.76 13.65, 11.52 15.36 C 11.34 16.56, 11.25 16.845, 11.16 17.759999999999998 C 11.16 18.39, 11.115 18.465, 11.16 19.02 C 11.25 19.5, 11.04 19.56, 11.34 19.98 C 11.85 20.340000000000003, 11.76 20.355000000000004, 12.36 20.700000000000003 C 13.05 21.03, 13.094999999999999 21.060000000000002, 13.74 21.36 C 14.34 21.63, 13.860000000000001 21.659999999999997, 14.940000000000001 21.9 C 16.5 22.11, 16.2 22.185, 18.06 22.32 C 20.22 22.380000000000003, 20.79 22.41, 22.38 22.44 C 23.4 22.44, 23.64 22.44, 24.42 22.44 C 24.96 22.44, 25.005 22.44, 25.5 22.44 C 25.950000000000003 22.44, 26.1 22.44, 26.400000000000002 22.44 C 26.550000000000004 22.44, 26.535000000000004 22.44, 26.700000000000003 22.44 C 26.880000000000003 22.44, 26.939999999999998 22.44, 27.06 22.44 C 27.119999999999997 22.44, 27.15 22.44, 27.18 22.44 L 27.18 22.44" fill="none" stroke="black" stroke-width="5"></path><path d="M 11.34 28.44 C 11.43 29.28, 11.325 29.084999999999997, 11.52 30.119999999999997 C 11.82 31.349999999999998, 11.715 31.589999999999996, 12.120000000000001 32.58 C 12.63 33.33, 12.525 33.405, 13.14 34.08 C 13.860000000000001 34.68, 13.605000000000002 34.695, 14.580000000000002 35.28 C 15.81 35.85, 15.78 36.075, 17.04 36.42 C 18.33 36.540000000000006, 18.705 36.6, 19.62 36.660000000000004 C 20.160000000000004 36.660000000000004, 20.160000000000004 36.78, 20.700000000000003 36.660000000000004 C 21.240000000000002 36.42, 21.315 36.615, 21.78 36.18 C 22.17 35.55, 22.125 35.730000000000004, 22.56 34.92 C 23.04 33.93, 23.145 33.69, 23.52 32.94 C 23.79 32.43, 23.7 32.565, 24.06 31.92 C 24.509999999999998 31.14, 24.555 31.335, 24.96 30.36 C 25.32 29.189999999999998, 25.335 29.34, 25.68 28.02 C 26.009999999999998 26.549999999999997, 26.054999999999996 26.564999999999998, 26.339999999999996 25.08 C 26.58 23.58, 26.505 24.015, 26.82 22.080000000000002 C 27.21 19.71, 27.254999999999995 19.71, 27.599999999999998 17.34 C 27.9 14.97, 27.990000000000002 14.55, 28.200000000000003 12.600000000000001 C 28.32 11.07, 28.380000000000003 10.305000000000001, 28.44 9.540000000000001 C 28.44 9.540000000000001, 28.44 9.540000000000001, 28.44 9.540000000000001 C 28.44 9.540000000000001, 28.44 9.66, 28.44 9.540000000000001 C 28.44 9.3, 28.455000000000002 9.945, 28.44 9.06 C 28.410000000000004 7.53, 28.395000000000003 6.825, 28.380000000000003 6 C 28.380000000000003 5.88, 28.380000000000003 5.82, 28.380000000000003 5.76 L 28.380000000000003 5.76" fill="none" stroke="black" stroke-width="5"></path><path d="M 19.44 9.899999999999999 C 19.32 10.26, 19.35 10.110000000000001, 19.200000000000003 10.620000000000001 C 19.020000000000003 11.280000000000001, 18.87 11.325, 18.84 11.94 C 18.96 12.510000000000002, 18.900000000000002 12.735000000000001, 19.080000000000002 13.080000000000002 C 19.32 13.200000000000001, 19.244999999999997 13.350000000000001, 19.56 13.32 C 19.95 13.14, 20.07 13.395000000000001, 20.34 12.96 C 20.490000000000002 12.27, 20.565 12.195, 20.64 11.58 C 20.64 11.04, 20.64 10.8, 20.64 10.5 C 20.64 10.44, 20.835 10.514999999999999, 20.64 10.379999999999999 C 20.25 10.169999999999998, 20.189999999999998 10.034999999999998, 19.86 9.959999999999999 C 19.59 10.02, 19.560000000000002 9.84, 19.32 10.08 C 19.11 10.5, 19.005 10.515, 18.9 10.92 C 18.9 11.309999999999999, 18.764999999999997 11.34, 18.9 11.7 C 19.17 12.03, 19.275000000000002 12.18, 19.44 12.36 C 19.5 12.389999999999999, 19.455 12.404999999999998, 19.56 12.419999999999998 C 19.71 12.419999999999998, 19.785 12.524999999999999, 19.86 12.419999999999998 C 19.86 12.209999999999999, 19.86 12.344999999999999, 19.86 12 C 19.86 11.52, 19.86 11.385000000000002, 19.86 11.040000000000001 C 19.86 10.830000000000002, 19.86 10.740000000000002, 19.86 10.620000000000001 C 19.86 10.59, 19.89 10.56, 19.86 10.56 C 19.8 10.59, 19.770000000000003 10.305000000000001, 19.740000000000002 10.620000000000001 C 19.740000000000002 11.22, 19.650000000000002 11.355, 19.740000000000002 11.82 C 19.92 12.15, 19.845000000000002 12.18, 20.1 12.48 C 20.43 12.75, 20.595 12.885, 20.759999999999998 13.02 L 20.759999999999998 13.02" fill="none" stroke="black" stroke-width="5"></path></svg>