<svg xmlns="http://www.w3.org/2000/svg" viewBox="9.133333206176758 4.21999979019165 24.3266658782959 41.180001735687256" width="24.3266658782959" height="41.180001735687256"><path d="M 13.379999999999999 44.400000000000006 C 12.719999999999999 43.08, 12.569999999999999 42.945, 12.059999999999999 41.76 C 11.7 40.71, 11.67 41.07000000000001, 11.34 39.660000000000004 C 11.04 37.89, 10.98 37.515, 10.74 36.12 C 10.559999999999999 35.099999999999994, 10.485 35.22, 10.379999999999999 34.08 C 10.35 32.82, 10.335 32.76, 10.32 31.56 C 10.32 30.42, 10.365 30.270000000000003, 10.32 29.28 C 10.23 28.439999999999998, 10.185 28.349999999999998, 10.14 27.599999999999998 C 10.14 26.939999999999998, 10.125 27.240000000000002, 10.14 26.28 C 10.17 25.02, 10.11 24.779999999999998, 10.2 23.759999999999998 C 10.35 22.98, 10.335 22.875000000000004, 10.5 22.200000000000003 C 10.68 21.630000000000003, 10.665 21.63, 10.86 21.06 C 11.07 20.49, 11.055 20.459999999999997, 11.28 19.919999999999998 C 11.52 19.409999999999997, 11.49 19.319999999999997, 11.76 18.9 C 12.059999999999999 18.57, 12 18.6, 12.36 18.240000000000002 C 12.780000000000001 17.85, 12.675 17.790000000000003, 13.200000000000001 17.46 C 13.830000000000002 17.189999999999998, 13.200000000000001 17.294999999999998, 14.46 16.919999999999998 C 16.35 16.439999999999998, 16.410000000000004 16.29, 18.240000000000002 15.96 C 20.01 15.780000000000001, 20.235 15.690000000000001, 21.78 15.600000000000001 C 23.1 15.600000000000001, 23.130000000000003 15.600000000000001, 24.42 15.600000000000001 C 25.68 15.600000000000001, 25.92 15.600000000000001, 26.94 15.600000000000001 C 27.72 15.600000000000001, 27.705000000000002 15.600000000000001, 28.5 15.600000000000001 C 29.31 15.600000000000001, 29.595 15.600000000000001, 30.119999999999997 15.600000000000001 C 30.36 15.600000000000001, 30.33 15.600000000000001, 30.599999999999998 15.600000000000001 C 30.9 15.600000000000001, 30.855000000000004 15.600000000000001, 31.200000000000003 15.600000000000001 C 31.590000000000003 15.600000000000001, 31.665 15.600000000000001, 31.98 15.600000000000001 C 32.22 15.600000000000001, 32.34 15.600000000000001, 32.46 15.600000000000001 L 32.46 15.600000000000001" fill="none" stroke="black" stroke-width="5"></path><path d="M 21.36 5.22 C 20.73 5.49, 20.520000000000003 5.279999999999999, 20.1 5.76 C 19.89 6.449999999999999, 19.575 6.569999999999999, 19.68 7.14 C 20.1 7.59, 20.189999999999998 7.815, 20.52 8.040000000000001 C 20.759999999999998 8.040000000000001, 20.685 8.085, 21 8.040000000000001 C 21.39 7.950000000000001, 21.495 8.190000000000001, 21.78 7.86 C 21.96 7.290000000000001, 22.26 7.1850000000000005, 22.14 6.720000000000001 C 21.72 6.36, 21.749999999999996 6.285, 21.299999999999997 6 C 20.82 5.79, 20.865 5.6850000000000005, 20.34 5.58 C 19.770000000000003 5.58, 19.680000000000003 5.220000000000001, 19.200000000000003 5.58 C 18.810000000000002 6.3, 18.494999999999997 6.4799999999999995, 18.419999999999998 7.02 C 18.659999999999997 7.38, 18.615 7.53, 18.9 7.74 C 19.229999999999997 7.800000000000001, 19.2 7.83, 19.56 7.86 C 19.95 7.86, 19.98 8.100000000000001, 20.34 7.86 C 20.67 7.38, 20.835 7.455, 21 6.8999999999999995 C 21 6.27, 21 5.984999999999999, 21 5.64 C 21 5.58, 21.345 5.5200000000000005, 21 5.5200000000000005 C 20.310000000000002 5.58, 20.205000000000002 5.28, 19.62 5.64 C 19.14 6.299999999999999, 18.735 6.344999999999999, 18.66 6.959999999999999 C 18.990000000000002 7.53, 18.915 7.755000000000001, 19.32 8.100000000000001 C 19.8 8.22, 19.740000000000002 8.280000000000001, 20.28 8.34 C 20.880000000000003 8.34, 21.075000000000003 8.37, 21.48 8.34 C 21.689999999999998 8.280000000000001, 21.794999999999998 8.25, 21.9 8.22 L 21.9 8.22" fill="none" stroke="black" stroke-width="5"></path><path d="M 22.86 25.98 C 22.02 25.98, 22.035 25.740000000000002, 21.18 25.98 C 20.310000000000002 26.46, 20.175 26.34, 19.44 26.94 C 18.840000000000003 27.660000000000004, 18.615000000000002 27.375000000000004, 18.240000000000002 28.380000000000003 C 18.090000000000003 29.67, 17.94 29.970000000000002, 17.94 30.96 C 18.090000000000003 31.65, 17.970000000000002 31.559999999999995, 18.240000000000002 32.339999999999996 C 18.630000000000003 33.209999999999994, 18.45 33.33, 19.02 34.08 C 19.77 34.709999999999994, 19.785 34.98, 20.52 35.339999999999996 C 21.240000000000002 35.42999999999999, 21.18 35.489999999999995, 21.96 35.519999999999996 C 22.8 35.489999999999995, 22.68 35.85, 23.64 35.46 C 24.72 34.71, 25.064999999999998 34.755, 25.799999999999997 33.96 C 26.189999999999998 33.120000000000005, 26.354999999999997 33.09, 26.58 32.28 C 26.64 31.5, 26.715000000000003 31.53, 26.700000000000003 30.72 C 26.61 29.88, 26.835 30.06, 26.52 29.04 C 25.98 27.84, 25.89 27.405, 25.44 26.64 C 25.08 26.310000000000002, 25.14 26.25, 24.72 25.98 C 24.24 25.77, 24.224999999999998 25.665, 23.759999999999998 25.56 C 23.31 25.56, 23.279999999999998 25.56, 22.86 25.56 C 22.47 25.56, 22.395000000000003 25.529999999999998, 22.080000000000002 25.56 C 21.840000000000003 25.619999999999997, 21.720000000000002 25.65, 21.6 25.68 L 21.6 25.68" fill="none" stroke="black" stroke-width="5"></path></svg>