<svg xmlns="http://www.w3.org/2000/svg" viewBox="15.873332977294922 5.711061477661133 11.526666641235352 37.35446643829346" width="11.526666641235352" height="37.35446643829346"><path d="M 18.419999999999998 6.84 C 18.18 7.44, 18.060000000000002 7.470000000000001, 17.94 8.040000000000001 C 17.94 8.580000000000002, 17.895000000000003 8.505, 17.94 9.120000000000001 C 18.03 9.81, 17.535 9.915000000000001, 18.12 10.5 C 19.200000000000003 10.98, 19.23 11.309999999999999, 20.28 11.459999999999999 C 21.3 11.280000000000001, 21.66 11.370000000000001, 22.32 11.100000000000001 C 22.619999999999997 10.74, 22.919999999999998 10.92, 22.919999999999998 10.379999999999999 C 22.619999999999997 9.66, 22.68 9.584999999999999, 22.32 8.94 C 21.9 8.370000000000001, 21.945 8.31, 21.48 7.800000000000001 C 20.97 7.35, 21.015 7.17, 20.46 6.8999999999999995 C 19.86 6.8100000000000005, 19.799999999999997 6.675000000000001, 19.259999999999998 6.720000000000001 C 18.779999999999998 6.9, 18.689999999999998 6.705, 18.299999999999997 7.08 C 18 7.65, 17.895000000000003 7.545000000000001, 17.700000000000003 8.22 C 17.61 9, 17.475 9.195, 17.52 9.78 C 17.7 10.17, 17.52 10.290000000000001, 17.88 10.56 C 18.42 10.71, 18.66 10.785, 18.96 10.86 C 19.020000000000003 10.86, 18.855000000000004 11.16, 19.080000000000002 10.86 C 19.47 10.26, 19.634999999999998 10.275, 19.86 9.66 C 19.92 9.03, 19.95 8.864999999999998, 19.98 8.399999999999999 C 19.98 8.1, 20.055 7.995, 19.98 7.800000000000001 C 19.83 7.710000000000001, 19.92 7.575, 19.68 7.62 C 19.35 7.800000000000001, 19.23 7.5, 19.02 7.98 C 18.93 8.760000000000002, 18.675 8.925, 18.84 9.540000000000001 C 19.259999999999998 9.99, 19.215 10.215, 19.68 10.44 C 20.19 10.44, 20.175000000000004 10.575, 20.700000000000003 10.44 C 21.240000000000002 10.169999999999998, 21.51 10.184999999999999, 21.78 9.899999999999999 C 21.78 9.6, 21.825000000000003 9.48, 21.78 9.3 C 21.69 9.24, 21.645000000000003 9.21, 21.6 9.18 L 21.6 9.18" fill="none" stroke="black" stroke-width="5"></path><path d="M 19.98 14.879999999999999 C 19.77 15.81, 19.919999999999998 15.270000000000003, 19.56 16.740000000000002 C 19.049999999999997 18.75, 18.93 19.049999999999997, 18.54 20.759999999999998 C 18.27 22.17, 18.255 21.93, 18 23.580000000000002 C 17.759999999999998 25.47, 17.79 25.395, 17.52 27.36 C 17.22 29.4, 17.07 29.715000000000003, 16.919999999999998 31.44 C 16.919999999999998 32.85, 16.919999999999998 33.015, 16.919999999999998 34.26 C 16.919999999999998 35.34, 16.814999999999998 35.535000000000004, 16.919999999999998 36.42 C 17.13 37.11, 17.1 37.095, 17.34 37.8 C 17.61 38.519999999999996, 17.625 38.595, 17.88 39.24 C 18.119999999999997 39.81, 18 39.84, 18.36 40.38 C 18.84 40.89, 18.96 41.05500000000001, 19.32 41.400000000000006 C 19.56 41.58, 19.484999999999996 41.625, 19.799999999999997 41.76 C 20.189999999999998 41.849999999999994, 20.115000000000002 41.879999999999995, 20.580000000000002 41.94 C 21.12 41.97, 21.03 42.165, 21.66 42 C 22.380000000000003 41.64, 22.395000000000003 41.760000000000005, 23.1 41.28 C 23.79 40.68, 23.895 40.769999999999996, 24.48 40.08 C 24.96 39.3, 25.005000000000003 39.644999999999996, 25.44 38.519999999999996 C 25.83 37.05, 26.025 36.629999999999995, 26.22 35.58 C 26.22 34.95, 26.174999999999997 34.905, 26.22 34.32 C 26.310000000000002 33.78, 26.355 33.555, 26.400000000000002 33.24 C 26.400000000000002 33.150000000000006, 26.400000000000002 33.105000000000004, 26.400000000000002 33.06 L 26.400000000000002 33.06" fill="none" stroke="black" stroke-width="5"></path><path d="M 20.46 8.28 C 20.88 8.64, 21.044999999999998 8.805, 21.299999999999997 9 C 21.39 9.030000000000001, 21.435 9.045, 21.48 9.06 L 21.48 9.06" fill="none" stroke="black" stroke-width="5"></path></svg>