<svg xmlns="http://www.w3.org/2000/svg" viewBox="8.380000114440918 4.760000228881836 20.759998321533203 39.14000129699707" width="20.759998321533203" height="39.14000129699707"><path d="M 11.64 42.900000000000006 C 11.43 41.85, 11.415000000000001 41.79, 11.22 40.8 C 11.04 39.87, 10.995 39.94499999999999, 10.86 38.94 C 10.77 37.86, 10.815 37.89, 10.68 36.78 C 10.5 35.64, 10.515 35.730000000000004, 10.32 34.5 C 10.11 33.18, 10.034999999999998 32.805, 9.899999999999999 31.86 C 9.84 31.29, 9.854999999999999 31.619999999999997, 9.78 30.72 C 9.690000000000001 29.49, 9.690000000000001 29.459999999999997, 9.600000000000001 28.259999999999998 C 9.510000000000002 27.09, 9.465 26.94, 9.42 25.92 C 9.42 25.05, 9.42 24.93, 9.42 24.18 C 9.42 23.549999999999997, 9.42 23.669999999999998, 9.42 22.919999999999998 C 9.42 22.049999999999997, 9.33 21.96, 9.42 21.18 C 9.6 20.49, 9.584999999999999 20.339999999999996, 9.78 19.799999999999997 C 9.989999999999998 19.409999999999997, 9.944999999999999 19.424999999999997, 10.2 19.02 C 10.5 18.6, 10.530000000000001 18.495, 10.8 18.18 C 11.04 17.97, 10.995 18, 11.28 17.759999999999998 C 11.61 17.49, 11.61 17.43, 11.94 17.22 C 12.27 17.07, 12.195000000000002 17.084999999999997, 12.600000000000001 16.919999999999998 C 13.08 16.74, 13.125 16.665, 13.559999999999999 16.56 C 13.95 16.53, 13.754999999999999 16.575, 14.34 16.5 C 15.12 16.38, 14.744999999999997 16.365, 15.899999999999999 16.259999999999998 C 17.43 16.17, 17.265 16.11, 18.96 16.080000000000002 C 20.82 16.11, 21.165 16.035, 22.68 16.14 C 23.85 16.32, 23.88 16.365000000000002, 25.02 16.5 C 26.130000000000003 16.59, 26.46 16.634999999999998, 27.240000000000002 16.68 C 27.69 16.68, 27.915 16.68, 28.14 16.68 C 28.14 16.68, 28.14 16.68, 28.14 16.68 L 28.14 16.68" fill="none" stroke="black" stroke-width="5"></path><path d="M 19.740000000000002 5.9399999999999995 C 19.11 6.12, 18.975 5.955, 18.48 6.300000000000001 C 18.119999999999997 6.8100000000000005, 17.939999999999998 6.915000000000001, 17.759999999999998 7.32 C 17.759999999999998 7.62, 17.474999999999998 7.65, 17.759999999999998 7.92 C 18.33 8.16, 18.494999999999997 8.28, 18.9 8.399999999999999 C 19.14 8.399999999999999, 19.185 8.639999999999999, 19.38 8.399999999999999 C 19.53 7.919999999999999, 19.74 7.994999999999999, 19.68 7.4399999999999995 C 19.41 6.81, 19.44 6.6, 19.14 6.18 C 18.810000000000002 5.97, 18.87 5.805, 18.48 5.76 C 18.03 5.88, 18.000000000000004 5.625, 17.580000000000002 6 C 17.189999999999998 6.63, 16.935 6.765, 16.799999999999997 7.26 C 16.919999999999998 7.62, 16.665 7.695, 17.04 7.98 C 17.669999999999998 8.19, 17.714999999999996 8.294999999999998, 18.299999999999997 8.399999999999999 C 18.839999999999996 8.399999999999999, 18.959999999999997 8.564999999999998, 19.38 8.399999999999999 C 19.68 8.07, 19.83 8.129999999999999, 19.98 7.74 C 19.98 7.29, 20.07 7.14, 19.98 6.84 C 19.8 6.69, 19.98 6.615, 19.62 6.540000000000001 C 19.08 6.540000000000001, 19.08 6.330000000000001, 18.54 6.540000000000001 C 18 6.960000000000001, 17.745 6.945, 17.46 7.38 L 17.4 8.28" fill="none" stroke="black" stroke-width="5"></path><path d="M 19.14 27.900000000000002 C 18.9 27.810000000000002, 18.825 27.765, 18.66 27.72 C 18.57 27.72, 18.54 27.555, 18.48 27.72 C 18.45 28.05, 18.224999999999998 28.095000000000002, 18.419999999999998 28.380000000000003 C 18.839999999999996 28.62, 18.9 28.695, 19.259999999999998 28.86 C 19.56 28.95, 19.485 29.235, 19.86 29.04 C 20.31 28.56, 20.444999999999997 28.935, 20.759999999999998 28.08 C 20.939999999999998 26.849999999999998, 21.225 26.294999999999995, 21.12 25.619999999999997 C 20.73 25.5, 21.06 25.05, 20.34 25.380000000000003 C 19.29 26.160000000000004, 18.87 26.160000000000004, 18.240000000000002 26.94 C 18.03 27.72, 17.925 27.795, 17.82 28.5 C 17.82 29.13, 17.535 29.22, 17.82 29.759999999999998 C 18.39 30.21, 18.39 30.525000000000006, 18.96 30.660000000000004 C 19.53 30.48, 19.635 30.794999999999998, 20.1 30.299999999999997 C 20.46 29.49, 20.745 29.564999999999998, 20.82 28.68 C 20.61 27.72, 20.58 27.284999999999997, 20.4 26.759999999999998 C 20.25 26.669999999999998, 20.295 26.58, 20.1 26.58 C 19.86 26.669999999999998, 19.785 26.445, 19.62 26.759999999999998 C 19.53 27.299999999999997, 19.395000000000003 27.254999999999995, 19.44 27.839999999999996 C 19.619999999999997 28.47, 19.514999999999997 28.694999999999997, 19.799999999999997 29.099999999999998 C 20.189999999999998 29.28, 20.355 29.37, 20.580000000000002 29.46 L 20.700000000000003 29.46" fill="none" stroke="black" stroke-width="5"></path></svg>