<svg xmlns="http://www.w3.org/2000/svg" viewBox="17.538372039794922 9.457571983337402 8.48162841796875 25.26503086090088" width="8.48162841796875" height="25.26503086090088"><path d="M 20.34 11.64 C 19.799999999999997 12.24, 19.529999999999998 12.21, 19.259999999999998 12.84 C 19.259999999999998 13.5, 18.915 13.485, 19.259999999999998 14.16 C 19.95 14.85, 19.965 15.044999999999998, 20.64 15.54 C 21.3 15.84, 21.015 16.11, 21.96 16.14 C 23.19 15.9, 23.655 16.095, 24.42 15.66 C 24.72 15.03, 24.975 15.104999999999999, 25.02 14.399999999999999 C 24.81 13.62, 25.214999999999996 13.725, 24.599999999999998 12.84 C 23.58 11.85, 23.729999999999997 11.37, 22.56 10.86 C 21.24 10.83, 20.79 10.59, 19.919999999999998 10.8 C 19.5 11.25, 19.335 11.114999999999998, 19.080000000000002 11.7 C 18.990000000000002 12.42, 18.81 12.42, 18.9 13.14 C 19.17 13.860000000000001, 18.990000000000002 14.055000000000001, 19.44 14.580000000000002 C 20.07 14.91, 19.830000000000005 15.255, 20.700000000000003 15.24 C 21.810000000000002 14.879999999999999, 22.259999999999998 15, 22.919999999999998 14.52 C 23.13 13.92, 23.16 14.175, 23.34 13.32 C 23.490000000000002 12.21, 23.91 11.790000000000001, 23.64 11.100000000000001 C 22.95 10.830000000000002, 22.904999999999998 10.215, 22.259999999999998 10.56 C 21.659999999999997 11.52, 21.284999999999997 11.49, 21.06 12.48 C 21.21 13.5, 21 13.62, 21.36 14.52 C 21.93 15.3, 21.915 16.05, 22.5 16.080000000000002 C 23.1 15.360000000000001, 23.520000000000003 15.330000000000002, 23.700000000000003 14.64 C 23.46 13.98, 23.744999999999997 13.695, 23.22 13.32 C 22.41 13.23, 22.155 13.095, 21.6 13.14 L 21 13.5" fill="none" stroke="black" stroke-width="5"></path><path d="M 21.72 28.380000000000003 C 20.49 28.71, 20.055 28.32, 19.259999999999998 29.04 C 18.9 30.15, 18.509999999999998 30.269999999999996, 18.54 31.259999999999998 C 18.96 32.129999999999995, 18.54 32.4, 19.38 33 C 20.64 33.33, 20.895 33.915000000000006, 21.9 33.660000000000004 C 22.65 32.82, 23.04 33, 23.4 31.98 C 23.369999999999997 30.78, 23.85 30.375, 23.34 29.58 C 22.35 29.189999999999998, 22.155 28.919999999999998, 21.36 28.799999999999997 C 20.759999999999998 28.949999999999996, 20.505 28.574999999999996, 20.16 29.099999999999998 C 20.07 30, 19.8 30.12, 19.98 30.900000000000002 C 20.43 31.560000000000002, 20.325 31.965, 20.88 32.22 C 21.54 32.07, 21.78 32.475, 22.200000000000003 31.92 C 22.380000000000003 30.96, 22.634999999999998 30.705000000000002, 22.56 30 C 22.229999999999997 29.549999999999997, 22.619999999999997 29.055, 21.9 29.099999999999998 C 20.79 29.64, 20.325 29.415, 19.68 30.18 C 19.5 31.17, 19.14 31.395000000000003, 19.32 32.160000000000004 C 19.86 32.7, 19.95 32.895, 20.4 33.24 L 21.12 33.54" fill="none" stroke="black" stroke-width="5"></path><path d="M 21.06 10.98 C 21.689999999999998 11.43, 21.795 11.535, 22.32 11.879999999999999 C 22.740000000000002 12.12, 22.92 12.195, 23.16 12.36 L 23.28 12.54" fill="none" stroke="black" stroke-width="5"></path><path d="M 20.4 30.78 C 20.88 30.81, 20.955 30.749999999999996, 21.36 30.839999999999996 C 21.689999999999998 30.99, 21.855 31.064999999999998, 22.02 31.14 L 22.02 31.14" fill="none" stroke="black" stroke-width="5"></path></svg>