<svg xmlns="http://www.w3.org/2000/svg" viewBox="10.220000267028809 5.9066667556762695 18.73999786376953 40.39333200454712" width="18.73999786376953" height="40.39333200454712"><path d="M 11.22 21.06 C 11.46 18.9, 11.385 18.57, 11.7 16.740000000000002 C 12.09 15.240000000000002, 12.030000000000001 15.24, 12.48 13.74 C 12.99 12.24, 12.915 11.82, 13.5 10.74 C 14.16 10.08, 13.74 10.185, 14.82 9.42 C 16.32 8.55, 16.44 8.235, 17.82 7.68 C 19.08 7.4399999999999995, 19.185 7.364999999999999, 20.34 7.199999999999999 C 21.39 7.109999999999999, 21.495 7.0649999999999995, 22.44 7.02 C 23.28 7.02, 23.279999999999998 6.764999999999999, 24.119999999999997 7.02 C 24.959999999999997 7.53, 25.154999999999994 7.425000000000001, 25.799999999999997 8.040000000000001 C 26.25 8.760000000000002, 26.295 8.46, 26.700000000000003 9.48 C 27.060000000000002 10.8, 27.150000000000002 10.89, 27.42 12.120000000000001 C 27.6 13.26, 27.645000000000003 13.319999999999999, 27.78 14.399999999999999 C 27.87 15.42, 27.915 15.510000000000002, 27.96 16.44 C 27.96 17.28, 27.96 17.67, 27.96 18.12 C 27.96 18.18, 27.96 18.21, 27.96 18.240000000000002 L 27.96 18.240000000000002" fill="none" stroke="black" stroke-width="5"></path><path d="M 20.4 7.68 C 20.22 10.68, 20.205 10.77, 20.04 13.68 C 19.89 16.5, 19.935000000000002 16.47, 19.740000000000002 19.32 C 19.5 22.2, 19.485 22.634999999999998, 19.259999999999998 25.08 C 19.049999999999997 27.089999999999996, 19.095 26.775, 18.84 29.099999999999998 C 18.54 31.740000000000002, 18.51 31.995, 18.240000000000002 34.38 C 18 36.510000000000005, 18.029999999999998 36.57, 17.759999999999998 38.64 C 17.46 40.650000000000006, 17.37 41.025000000000006, 17.16 42.660000000000004 C 17.04 43.92, 17.009999999999998 44.52, 16.919999999999998 45.18 C 16.86 45.239999999999995, 16.83 45.269999999999996, 16.799999999999997 45.3 L 16.799999999999997 45.3" fill="none" stroke="black" stroke-width="5"></path></svg>