<svg xmlns="http://www.w3.org/2000/svg" viewBox="4.793333530426025 1.0399999618530273 17.926665782928467 46.87999725341797" width="17.926665782928467" height="46.87999725341797"><path d="M 6.18 8.399999999999999 C 6.99 8.309999999999999, 6.945 8.355, 7.800000000000001 8.22 C 8.700000000000001 8.040000000000001, 8.55 8.040000000000001, 9.600000000000001 7.86 C 10.8 7.68, 11.25 7.59, 12 7.5 C 12.3 7.5, 12.375000000000002 7.5, 12.600000000000001 7.5 C 12.75 7.5, 12.825 7.5, 12.899999999999999 7.5 L 12.899999999999999 7.5" fill="none" stroke="black" stroke-width="5"></path><path d="M 6.0600000000000005 2.04 C 6.0600000000000005 4.2, 6.120000000000001 4.0200000000000005, 6.0600000000000005 6.36 C 5.94 8.879999999999999, 5.880000000000001 8.879999999999999, 5.82 11.399999999999999 C 5.82 13.92, 5.82 13.875, 5.82 16.44 C 5.82 19.05, 5.76 18.84, 5.82 21.66 C 5.94 24.689999999999998, 5.94 25.455, 6.0600000000000005 27.72 C 6.180000000000001 29.22, 6.24 28.814999999999998, 6.300000000000001 30.72 C 6.300000000000001 33.03, 6.255000000000001 33.419999999999995, 6.300000000000001 35.339999999999996 C 6.390000000000001 36.870000000000005, 6.4350000000000005 36.915000000000006, 6.48 38.400000000000006 C 6.48 39.84, 6.48 39.93000000000001, 6.48 41.28 C 6.48 42.54, 6.48 42.584999999999994, 6.48 43.8 C 6.48 44.97, 6.48 45.36, 6.48 46.14 C 6.48 46.53, 6.48 46.725, 6.48 46.92 L 6.48 46.92" fill="none" stroke="black" stroke-width="5"></path><path d="M 6.300000000000001 14.82 C 6.930000000000001 14.85, 7.005000000000001 14.715, 7.5600000000000005 14.879999999999999 C 8.04 15.18, 7.89 14.805, 8.52 15.48 C 9.3 16.53, 9.345 15.945000000000002, 10.08 17.580000000000002 C 10.77 19.8, 11.055 19.86, 11.459999999999999 22.02 C 11.579999999999998 24.119999999999997, 11.639999999999999 24.869999999999997, 11.7 26.22 C 11.7 26.82, 11.7 27.12, 11.7 27.42 C 11.7 27.42, 11.7 27.765, 11.7 27.42 C 11.7 26.73, 11.325 27.795, 11.7 26.04 C 12.45 23.22, 12.075 22.83, 13.200000000000001 20.4 C 14.700000000000003 18.36, 14.820000000000004 17.73, 16.200000000000003 16.32 C 17.46 15.54, 17.384999999999998 15.3, 18.72 14.76 C 20.13 14.46, 20.79 14.31, 21.54 14.16 L 21.72 14.16" fill="none" stroke="black" stroke-width="5"></path></svg>