<svg xmlns="http://www.w3.org/2000/svg" viewBox="7.880000114440918 2.7200000286102295 24.09999942779541 44.13154721260071" width="24.09999942779541" height="44.13154721260071"><path d="M 12.24 21.96 C 12.93 21.96, 12.840000000000002 21.96, 13.620000000000001 21.96 C 14.49 21.96, 14.489999999999998 21.96, 15.36 21.96 C 16.23 21.96, 16.29 21.96, 17.1 21.96 C 17.85 21.96, 17.880000000000003 21.96, 18.6 21.96 C 19.29 21.96, 19.17 22.05, 19.98 21.96 C 20.91 21.78, 21.375 21.69, 21.84 21.6 L 21.84 21.6" fill="none" stroke="black" stroke-width="5"></path><path d="M 15.66 17.759999999999998 C 15.18 18.39, 15.150000000000002 18.36, 14.700000000000001 19.02 C 14.280000000000001 19.71, 14.295 19.634999999999998, 13.86 20.4 C 13.41 21.240000000000002, 13.395 21.090000000000003, 12.96 22.080000000000002 C 12.540000000000001 23.22, 12.405000000000001 23.295, 12.120000000000001 24.36 C 11.97 25.349999999999998, 11.895 25.679999999999996, 11.82 26.339999999999996 C 11.82 26.669999999999998, 11.535 26.655, 11.82 27 C 12.39 27.36, 12.150000000000002 27.419999999999998, 12.96 27.72 C 14.01 27.96, 13.919999999999998 28.035000000000004, 15.059999999999999 28.200000000000003 C 16.29 28.290000000000003, 16.185 28.275000000000006, 17.52 28.380000000000003 C 18.96 28.5, 18.72 28.56, 20.4 28.619999999999997 C 22.32 28.619999999999997, 22.29 28.619999999999997, 24.240000000000002 28.619999999999997 C 26.220000000000002 28.619999999999997, 26.835 28.65, 28.200000000000003 28.619999999999997 C 28.950000000000003 28.56, 29.085 28.695, 29.700000000000003 28.5 C 30.180000000000003 28.169999999999998, 30.360000000000003 28.304999999999996, 30.660000000000004 27.839999999999996 C 30.78 27.24, 30.840000000000003 27.509999999999998, 30.900000000000002 26.64 C 30.900000000000002 25.5, 31.080000000000002 25.875, 30.900000000000002 24.36 C 30.54 22.47, 30.735 23.01, 30.18 20.580000000000002 C 29.43 17.61, 29.58 17.700000000000003, 28.68 14.64 C 27.63 11.49, 27.389999999999997 10.815, 26.58 8.34 C 26.009999999999998 6.54, 25.8 5.835, 25.44 4.74 C 25.29 4.35, 25.26 4.215, 25.14 3.96 C 25.05 3.84, 25.005000000000003 3.78, 24.96 3.7199999999999998 L 24.96 3.7199999999999998" fill="none" stroke="black" stroke-width="5"></path><path d="M 8.879999999999999 45.599999999999994 C 10.05 45.629999999999995, 9.84 46.11, 11.22 45.660000000000004 C 12.809999999999999 44.730000000000004, 13.11 44.76, 14.399999999999999 43.8 C 15.389999999999999 42.81, 15.614999999999998 42.75, 16.38 41.82 C 16.92 40.95, 16.815 41.37, 17.46 40.08 C 18.21 38.370000000000005, 18.435000000000002 38.265, 18.96 36.660000000000004 C 19.259999999999998 35.160000000000004, 19.259999999999998 35.1, 19.56 33.660000000000004 C 19.86 32.28, 19.92 31.905, 20.16 30.900000000000002 C 20.34 30.270000000000003, 20.43 30.090000000000003, 20.52 29.64 C 20.52 29.369999999999997, 20.52 29.235, 20.52 29.099999999999998 C 20.52 29.099999999999998, 20.52 29.099999999999998, 20.52 29.099999999999998 C 20.52 29.099999999999998, 20.52 29.099999999999998, 20.52 29.099999999999998 C 20.52 29.099999999999998, 20.52 29.009999999999998, 20.52 29.099999999999998 C 20.52 29.28, 20.685 28.89, 20.52 29.46 C 20.189999999999998 30.42, 20.07 30.285000000000004, 19.86 31.380000000000003 C 19.77 32.61, 19.725 32.864999999999995, 19.68 33.839999999999996 C 19.68 34.56, 19.68 34.38, 19.68 35.28 C 19.68 36.36, 19.53 36.269999999999996, 19.68 37.44 C 19.98 38.7, 19.92 39, 20.28 39.96 C 20.700000000000003 40.620000000000005, 20.700000000000003 40.725, 21.12 41.28 C 21.54 41.730000000000004, 21.42 41.61, 21.96 42.18 C 22.62 42.870000000000005, 22.62 43.035000000000004, 23.28 43.56 C 23.939999999999998 43.92, 23.939999999999998 44.025000000000006, 24.599999999999998 44.28 C 25.259999999999998 44.43, 25.17 44.474999999999994, 25.92 44.58 C 26.759999999999998 44.64, 26.82 44.655, 27.599999999999998 44.7 C 28.32 44.730000000000004, 28.589999999999996 44.745, 29.04 44.76 L 29.400000000000002 44.76" fill="none" stroke="black" stroke-width="5"></path></svg>