<svg xmlns="http://www.w3.org/2000/svg" viewBox="7.699999809265137 4.159999847412109 26.23999786376953 39.68000030517578" width="26.23999786376953" height="39.68000030517578"><path d="M 11.100000000000001 11.040000000000001 C 11.7 10.95, 11.549999999999999 10.965, 12.299999999999999 10.86 C 13.2 10.74, 13.035000000000002 10.725000000000001, 14.100000000000001 10.620000000000001 C 15.33 10.530000000000001, 15.57 10.53, 16.56 10.44 C 17.31 10.35, 17.52 10.305, 18.06 10.26 C 18.39 10.26, 18.464999999999996 10.26, 18.72 10.26 C 18.9 10.26, 18.990000000000002 10.26, 19.080000000000002 10.26 L 19.080000000000002 10.26" fill="none" stroke="black" stroke-width="5"></path><path d="M 11.22 5.16 C 11.190000000000001 5.76, 11.19 5.625, 11.16 6.36 C 11.13 7.23, 11.145000000000001 7.365000000000001, 11.100000000000001 8.100000000000001 C 11.040000000000001 8.700000000000001, 11.010000000000002 8.610000000000001, 10.98 9.3 C 10.98 10.08, 10.965 9.87, 10.98 10.86 C 11.010000000000002 12.059999999999999, 11.025 12.105, 11.040000000000001 13.26 C 11.040000000000001 14.370000000000001, 10.995000000000001 14.175, 11.040000000000001 15.48 C 11.13 16.98, 11.175 16.59, 11.22 18.48 C 11.22 20.759999999999998, 11.22 21.105, 11.22 23.04 C 11.22 24.63, 11.22 24.479999999999997, 11.22 26.22 C 11.22 28.11, 11.13 27.9, 11.22 30 C 11.4 32.31, 11.265 32.61, 11.58 34.62 C 12.030000000000001 36.33, 12.15 36.81, 12.48 38.04 C 12.69 38.79, 12.645 38.775, 12.899999999999999 39.54 C 13.2 40.31999999999999, 13.35 40.709999999999994, 13.5 41.099999999999994 C 13.5 41.099999999999994, 13.5 41.099999999999994, 13.5 41.099999999999994 L 13.5 41.099999999999994" fill="none" stroke="black" stroke-width="5"></path><path d="M 11.459999999999999 17.22 C 12.030000000000001 17.189999999999998, 11.46 17.175, 12.600000000000001 17.16 C 14.31 17.16, 14.58 16.905, 16.02 17.16 C 17.189999999999998 17.67, 17.265 17.475, 18.36 18.18 C 19.38 19.08, 19.455 18.87, 20.4 19.98 C 21.27 21.3, 21.555 21.3, 22.14 22.62 C 22.44 23.939999999999998, 22.515 23.999999999999996, 22.740000000000002 25.259999999999998 C 22.89 26.46, 22.965 26.655, 23.04 27.660000000000004 C 23.04 28.470000000000002, 23.04 28.875, 23.04 29.28 C 23.04 29.28, 23.04 29.28, 23.04 29.28 C 23.04 29.28, 23.025 29.265, 23.04 29.28 C 23.07 29.31, 22.830000000000002 29.414999999999996, 23.1 29.339999999999996 C 23.61 29.159999999999997, 23.4 29.13, 24.119999999999997 28.98 C 25.049999999999997 28.86, 25.14 28.8, 25.98 28.740000000000002 C 26.73 28.740000000000002, 26.835 28.605000000000004, 27.48 28.740000000000002 C 28.02 29.01, 27.945 28.650000000000002, 28.56 29.28 C 29.25 30.27, 29.475 30.33, 29.94 31.259999999999998 C 30.18 32.129999999999995, 30.3 32.055, 30.42 33 C 30.42 34.019999999999996, 30.51 34.065, 30.42 35.04 C 30.240000000000002 35.97, 30.419999999999998 35.925000000000004, 30.06 36.900000000000006 C 29.52 37.92, 29.25 38.43, 28.98 38.94 C 28.98 38.94, 28.98 38.94, 28.98 38.94 C 28.98 38.94, 28.98 38.94, 28.98 38.94 L 28.98 38.94" fill="none" stroke="black" stroke-width="5"></path><path d="M 8.7 42.839999999999996 C 9.239999999999998 42.39, 9.03 42.375, 9.78 41.94 C 10.739999999999998 41.519999999999996, 10.155 41.474999999999994, 11.7 41.099999999999994 C 13.83 40.769999999999996, 13.455000000000002 40.86, 15.96 40.44 C 18.84 39.93, 19.47 39.765, 21.72 39.42 C 23.34 39.24, 23.535 39.150000000000006, 24.96 39.06 C 26.19 39.06, 26.07 39.06, 27.42 39.06 C 28.89 39.06, 29.235 39.06, 30.36 39.06 C 31.14 39.06, 31.275000000000002 39.015, 31.92 39.06 C 32.43 39.150000000000006, 32.685 39.195, 32.94 39.24 L 32.94 39.24" fill="none" stroke="black" stroke-width="5"></path></svg>