<svg xmlns="http://www.w3.org/2000/svg" viewBox="8.920000076293945 3.739999771118164 26.27999973297119 40.040000915527344" width="26.27999973297119" height="40.040000915527344"><path d="M 10.32 9.84 C 11.309999999999999 9.87, 11.354999999999999 9.884999999999998, 12.299999999999999 9.899999999999999 C 13.2 9.899999999999999, 13.395000000000001 9.899999999999999, 14.100000000000001 9.899999999999999 C 14.610000000000001 9.899999999999999, 14.610000000000001 9.899999999999999, 15.120000000000001 9.899999999999999 C 15.63 9.899999999999999, 15.84 9.899999999999999, 16.14 9.899999999999999 C 16.23 9.899999999999999, 16.11 9.899999999999999, 16.32 9.899999999999999 C 16.65 9.899999999999999, 16.725 9.899999999999999, 16.98 9.899999999999999 C 17.16 9.899999999999999, 17.25 9.899999999999999, 17.34 9.899999999999999 L 17.34 9.899999999999999" fill="none" stroke="black" stroke-width="5"></path><path d="M 10.379999999999999 4.74 C 10.29 5.58, 10.305 5.355, 10.2 6.42 C 10.079999999999998 7.71, 10.02 7.425, 9.959999999999999 9 C 9.959999999999999 10.86, 9.959999999999999 11.31, 9.959999999999999 12.72 C 9.959999999999999 13.68, 9.959999999999999 13.335, 9.959999999999999 14.64 C 9.959999999999999 16.29, 9.959999999999999 15.915000000000001, 9.959999999999999 17.94 C 9.959999999999999 20.340000000000003, 9.87 20.25, 9.959999999999999 22.740000000000002 C 10.14 25.32, 10.185 25.665000000000003, 10.32 27.900000000000002 C 10.41 29.79, 10.455 29.415, 10.5 31.68 C 10.5 34.32, 10.5 34.815, 10.5 36.96 C 10.5 38.61, 10.5 38.97, 10.5 40.26 C 10.5 41.19, 10.5 41.535, 10.5 42.12 C 10.5 42.36, 10.469999999999999 42.434999999999995, 10.5 42.599999999999994 L 10.620000000000001 42.78" fill="none" stroke="black" stroke-width="5"></path><path d="M 10.86 17.4 C 11.91 17.07, 12.09 16.935000000000002, 12.96 16.740000000000002 C 13.65 16.68, 13.335 16.650000000000002, 14.34 16.62 C 15.66 16.62, 15.945 16.62, 16.98 16.62 C 17.73 16.62, 17.685000000000002 16.425, 18.48 16.62 C 19.32 17.009999999999998, 19.47 17.025, 20.16 17.4 C 20.700000000000003 17.759999999999998, 20.610000000000003 17.55, 21.240000000000002 18.12 C 21.96 18.9, 21.9 18.675, 22.68 19.68 C 23.52 20.91, 23.595 20.835, 24.36 22.14 C 25.05 23.520000000000003, 25.200000000000003 23.505000000000003, 25.740000000000002 24.900000000000002 C 26.130000000000003 26.310000000000002, 26.175 26.34, 26.52 27.72 C 26.82 29.07, 26.97 29.115000000000002, 27.119999999999997 30.42 C 27.119999999999997 31.68, 27.119999999999997 31.949999999999996, 27.119999999999997 32.94 C 27.119999999999997 33.66, 27.104999999999997 33.945, 27.119999999999997 34.38 C 27.15 34.53, 27.134999999999998 34.5, 27.18 34.68 C 27.24 34.89, 27.239999999999995 34.97999999999999, 27.299999999999997 35.099999999999994 C 27.36 35.129999999999995, 27.375 35.145, 27.42 35.160000000000004 C 27.450000000000003 35.160000000000004, 27.195 35.400000000000006, 27.48 35.160000000000004 C 28.02 34.68000000000001, 28.169999999999998 34.470000000000006, 28.56 34.2 C 28.799999999999997 34.14, 28.605 34.125, 29.04 34.08 C 29.669999999999998 34.05, 29.744999999999997 33.989999999999995, 30.299999999999997 34.019999999999996 C 30.779999999999998 34.11, 30.629999999999995 33.765, 31.259999999999998 34.2 C 32.04 34.980000000000004, 32.295 35.19, 32.82 35.76 C 33.09 36.120000000000005, 33.03 35.685, 33.36 36.480000000000004 C 33.75 37.71, 33.93 37.98, 34.14 38.94 C 34.17 39.629999999999995, 34.185 39.885, 34.2 40.32 C 34.2 40.5, 34.2 40.59, 34.2 40.68 C 34.2 40.68, 34.2 40.62, 34.2 40.68 L 34.2 40.92" fill="none" stroke="black" stroke-width="5"></path><path d="M 18.12 28.02 C 17.97 27.96, 18.135 27.555, 17.82 27.900000000000002 C 17.34 28.650000000000002, 16.965 28.770000000000003, 16.86 29.400000000000002 C 17.13 29.910000000000004, 17.055 30.405, 17.4 30.42 C 17.82 29.94, 18.015 29.94, 18.240000000000002 29.46 C 18.27 28.98, 18.674999999999997 28.785, 18.299999999999997 28.5 C 17.52 28.41, 17.235 27.78, 16.740000000000002 28.32 C 16.53 29.490000000000002, 16.29 29.835000000000004, 16.32 30.660000000000004 C 16.59 31.14, 16.005 31.515, 16.86 31.619999999999997 C 18.3 31.349999999999998, 18.885 31.439999999999998, 19.740000000000002 31.08 C 20.01 30.63, 20.415 30.509999999999998, 20.28 30.18 C 19.740000000000002 29.97, 19.545 29.865, 19.200000000000003 29.759999999999998 C 19.05 29.759999999999998, 19.169999999999998 29.474999999999998, 18.9 29.759999999999998 C 18.509999999999998 30.33, 18.12 30.435000000000002, 18.12 30.900000000000002 C 18.509999999999998 31.259999999999998, 18.57 31.439999999999998, 18.9 31.619999999999997 C 19.17 31.619999999999997, 19.305 31.919999999999995, 19.44 31.619999999999997 C 19.44 31.02, 19.695 30.96, 19.44 30.42 L 18.419999999999998 29.46" fill="none" stroke="black" stroke-width="5"></path></svg>