<svg xmlns="http://www.w3.org/2000/svg" viewBox="8.84000015258789 1.5799999237060547 26.799999237060547 44.41999816894531" width="26.799999237060547" height="44.41999816894531"><path d="M 9.84 10.86 C 10.68 10.86, 10.245 10.934999999999999, 11.52 10.86 C 13.23 10.71, 13.41 10.74, 14.940000000000001 10.56 C 16.29 10.350000000000001, 16.665 10.245000000000001, 17.64 10.14 C 18.240000000000002 10.14, 18.165 10.14, 18.84 10.14 C 19.59 10.14, 19.92 10.14, 20.34 10.14 L 20.52 10.14" fill="none" stroke="black" stroke-width="5"></path><path d="M 10.26 2.58 C 10.17 3.48, 10.14 2.9699999999999998, 10.08 4.38 C 10.05 6.300000000000001, 10.035 6.465000000000001, 10.02 8.22 C 10.02 9.809999999999999, 9.959999999999999 9.704999999999998, 10.02 11.399999999999999 C 10.14 13.2, 10.2 13.275, 10.26 15 C 10.26 16.65, 10.17 16.124999999999996, 10.26 18.299999999999997 C 10.440000000000001 21, 10.47 21.090000000000003, 10.620000000000001 23.700000000000003 C 10.74 26.220000000000002, 10.725 26.655, 10.86 28.740000000000002 C 11.01 30.39, 11.025 30.735, 11.16 32.04 C 11.28 33, 11.34 32.79, 11.399999999999999 33.96 C 11.399999999999999 35.34, 11.399999999999999 35.61, 11.399999999999999 36.72 C 11.399999999999999 37.56, 11.354999999999999 37.51500000000001, 11.399999999999999 38.400000000000006 C 11.489999999999998 39.33, 11.504999999999999 39.405, 11.58 40.26 C 11.64 41.04, 11.67 41.175, 11.7 41.82 C 11.7 42.33, 11.7 42.12, 11.7 42.839999999999996 C 11.7 43.769999999999996, 11.7 44.160000000000004, 11.7 44.7 C 11.7 44.85, 11.715 44.925, 11.7 45 L 11.64 45" fill="none" stroke="black" stroke-width="5"></path><path d="M 10.32 16.919999999999998 C 11.22 16.919999999999998, 10.545000000000002 16.979999999999997, 12.120000000000001 16.919999999999998 C 14.370000000000001 16.799999999999997, 14.73 16.77, 16.62 16.68 C 18.15 16.619999999999997, 18.45 16.365, 19.68 16.56 C 20.61 17.009999999999998, 20.58 16.665, 21.54 17.46 C 22.53 18.6, 22.86 18.660000000000004, 23.52 19.740000000000002 C 23.85 20.76, 23.835 20.475, 24.18 21.78 C 24.54 23.37, 24.660000000000004 23.400000000000002, 24.900000000000002 24.96 C 25.020000000000003 26.490000000000002, 25.080000000000002 26.715, 25.14 28.02 C 25.14 29.1, 25.14 29.58, 25.14 30.18 C 25.14 30.3, 25.14 30.36, 25.14 30.42 C 25.14 30.42, 25.125 30.405, 25.14 30.42 C 25.17 30.450000000000003, 25.020000000000003 30.645000000000003, 25.200000000000003 30.48 C 25.53 30.119999999999997, 25.305 30.15, 25.86 29.759999999999998 C 26.64 29.34, 26.715000000000003 29.115000000000002, 27.42 28.92 C 28.05 28.950000000000003, 27.72 28.605, 28.68 28.98 C 29.97 29.700000000000003, 30.209999999999997 29.475, 31.259999999999998 30.42 C 32.07 31.59, 32.145 31.335, 32.88 32.76 C 33.540000000000006 34.44, 33.795 34.665, 34.2 36.12 C 34.35 37.349999999999994, 34.425 37.515, 34.5 38.58 C 34.5 39.480000000000004, 34.815 39.57, 34.5 40.38 C 33.870000000000005 41.1, 34.17 41.160000000000004, 33.24 41.82 C 32.010000000000005 42.42, 31.89 42.629999999999995, 30.78 43.019999999999996 C 29.79 43.2, 29.684999999999995 43.275000000000006, 28.799999999999997 43.38 C 28.02 43.41, 27.855000000000004 43.515, 27.240000000000002 43.44 C 26.79 43.26, 26.729999999999997 43.68, 26.339999999999996 43.08 C 26.009999999999998 42.06, 25.845 41.79, 25.68 41.04 C 25.68 40.56, 25.575 40.695, 25.68 40.08 C 25.89 39.33, 25.574999999999996 39.209999999999994, 26.099999999999998 38.58 C 26.939999999999998 38.07, 26.79 37.980000000000004, 27.78 37.56 C 28.92 37.230000000000004, 29.189999999999998 37.065000000000005, 30.06 36.900000000000006 C 30.659999999999997 36.900000000000006, 30.659999999999997 36.900000000000006, 31.259999999999998 36.900000000000006 C 31.86 36.900000000000006, 31.965 36.79500000000001, 32.46 36.900000000000006 C 32.85 37.11, 33.045 37.215, 33.24 37.32 C 33.24 37.32, 33.195 37.275, 33.24 37.32 C 33.33 37.41, 33.330000000000005 37.41, 33.42 37.5 C 33.51 37.59, 33.449999999999996 37.545, 33.599999999999994 37.68 C 33.809999999999995 37.86, 33.824999999999996 37.89, 34.019999999999996 38.04 C 34.2 38.16, 34.29 38.22, 34.38 38.28 C 34.38 38.28, 34.38 38.28, 34.38 38.28 L 34.38 38.28" fill="none" stroke="black" stroke-width="5"></path></svg>