<svg xmlns="http://www.w3.org/2000/svg" viewBox="14.713333129882812 2.8399999141693115 20.426666259765625 42.24210000038147" width="20.426666259765625" height="42.24210000038147"><path d="M 15.72 3.84 C 15.72 6.3, 15.72 6.255, 15.72 8.76 C 15.72 11.309999999999999, 15.72 11.805, 15.72 13.86 C 15.72 15.42, 15.705000000000002 15.54, 15.72 16.98 C 15.75 18.3, 15.69 18.555, 15.78 19.62 C 15.93 20.43, 15.930000000000001 20.550000000000004, 16.080000000000002 21.240000000000002 C 16.23 21.810000000000002, 16.08 21.915, 16.38 22.38 C 16.83 22.740000000000002, 16.635 22.725, 17.28 23.1 C 18.12 23.490000000000002, 17.985 23.655, 18.96 23.88 C 20.07 23.939999999999998, 19.845 23.985, 21.18 24 C 22.74 23.97, 22.964999999999996 23.955000000000002, 24.299999999999997 23.94 C 25.409999999999997 23.94, 25.575 23.955000000000002, 26.52 23.94 C 27.299999999999997 23.91, 27.375 23.955, 28.08 23.88 C 28.709999999999997 23.759999999999998, 28.799999999999997 23.745, 29.339999999999996 23.64 C 29.79 23.55, 29.85 23.55, 30.240000000000002 23.46 C 30.57 23.37, 30.660000000000004 23.37, 30.900000000000002 23.28 C 31.050000000000004 23.19, 30.870000000000005 23.310000000000002, 31.200000000000003 23.1 C 31.71 22.770000000000003, 31.77 23.055, 32.22 22.44 C 32.61 21.54, 32.67 21.900000000000002, 33 20.64 C 33.269999999999996 19.02, 33.405 18.945, 33.54 17.4 C 33.54 15.93, 33.585 15.93, 33.54 14.46 C 33.45 12.99, 33.45 12.87, 33.36 11.52 C 33.269999999999996 10.29, 33.39 10.275, 33.18 9.06 C 32.849999999999994 7.86, 32.77499999999999 7.5, 32.519999999999996 6.66 C 32.34 6.18, 32.46 6.225, 32.160000000000004 5.699999999999999 C 31.740000000000002 5.13, 31.86 4.95, 31.32 4.5600000000000005 C 30.66 4.35, 30.705 4.245, 30 4.14 C 29.25 4.14, 29.28 3.9299999999999997, 28.5 4.14 C 27.69 4.56, 27.690000000000005 4.364999999999999, 26.880000000000003 4.9799999999999995 C 26.07 5.79, 25.95 5.49, 25.259999999999998 6.6000000000000005 C 24.689999999999998 8.01, 24.509999999999998 7.95, 24.119999999999997 9.42 C 23.91 10.95, 23.805 11.235000000000001, 23.700000000000003 12.48 C 23.700000000000003 13.44, 23.700000000000003 13.799999999999999, 23.700000000000003 14.399999999999999 C 23.700000000000003 14.639999999999999, 23.700000000000003 14.729999999999999, 23.700000000000003 14.879999999999999 L 23.700000000000003 15" fill="none" stroke="black" stroke-width="5"></path><path d="M 23.28 24.599999999999998 C 23.43 25.5, 23.445 24.57, 23.580000000000002 26.400000000000002 C 23.700000000000003 29.160000000000004, 23.745 29.355, 23.82 31.92 C 23.85 34.290000000000006, 23.7 34.36500000000001, 23.88 36.660000000000004 C 24.21 38.879999999999995, 24.314999999999998 39.495, 24.54 41.099999999999994 C 24.66 42.089999999999996, 24.66 42.419999999999995, 24.78 43.08 C 24.9 43.41, 24.93 43.545, 25.02 43.74 C 25.08 43.8, 25.11 43.83, 25.14 43.86 C 25.14 43.86, 25.065 43.815, 25.14 43.86 C 25.29 43.95, 25.245 44.175, 25.44 44.04 C 25.68 43.68, 25.725 43.74, 25.92 43.32 C 26.07 42.84, 26.099999999999998 42.855000000000004, 26.22 42.36 C 26.310000000000002 41.849999999999994, 26.205000000000002 42.16499999999999, 26.400000000000002 41.339999999999996 C 26.700000000000003 40.2, 26.535 40.2, 27 39.06 C 27.63 37.92, 27.57 37.785000000000004, 28.259999999999998 36.78 C 29.009999999999998 35.91, 28.964999999999996 35.82, 29.759999999999998 35.04 C 30.6 34.35, 30.705 34.065000000000005, 31.44 33.660000000000004 C 32.07 33.540000000000006, 32.1 33.465, 32.7 33.42 C 33.269999999999996 33.45, 33.48 33.465, 33.839999999999996 33.480000000000004 C 33.989999999999995 33.480000000000004, 34.065 33.480000000000004, 34.14 33.480000000000004 L 34.14 33.480000000000004" fill="none" stroke="black" stroke-width="5"></path></svg>