<svg xmlns="http://www.w3.org/2000/svg" viewBox="14.399999618530273 2.759999990463257 16.96666717529297 38.980003356933594" width="16.96666717529297" height="38.980003356933594"><path d="M 23.82 18.18 C 23.73 18.57, 23.775 18.465, 23.64 18.96 C 23.46 19.560000000000002, 23.46 19.575000000000003, 23.28 20.16 C 23.1 20.729999999999997, 23.205 20.759999999999998, 22.919999999999998 21.299999999999997 C 22.53 21.81, 22.545 21.855, 22.14 22.32 C 21.72 22.740000000000002, 21.809999999999995 22.785, 21.299999999999997 23.16 C 20.7 23.490000000000002, 20.745 23.55, 20.1 23.82 C 19.41 24.03, 19.17 24.135, 18.72 24.240000000000002 C 18.509999999999998 24.240000000000002, 18.525 24.240000000000002, 18.299999999999997 24.240000000000002 C 18.06 24.240000000000002, 18.24 24.495000000000005, 17.82 24.240000000000002 C 17.22 23.73, 17.085 23.759999999999998, 16.62 23.22 C 16.29 22.65, 16.23 22.650000000000002, 15.96 22.080000000000002 C 15.75 21.51, 15.675 21.465000000000003, 15.54 20.94 C 15.479999999999999 20.46, 15.45 20.475, 15.419999999999998 19.98 C 15.419999999999998 19.47, 15.374999999999996 19.5, 15.419999999999998 18.96 C 15.51 18.39, 15.525 18.27, 15.600000000000001 17.82 C 15.66 17.490000000000002, 15.615000000000002 17.490000000000002, 15.72 17.16 C 15.870000000000001 16.83, 15.855 16.77, 16.02 16.5 C 16.2 16.29, 15.989999999999998 16.395000000000003, 16.38 16.080000000000002 C 16.98 15.66, 16.935000000000002 15.555, 17.580000000000002 15.24 C 18.270000000000003 15.030000000000001, 18.36 14.925, 18.96 14.82 C 19.47 14.82, 19.365000000000002 14.82, 19.98 14.82 C 20.7 14.82, 20.474999999999998 14.82, 21.419999999999998 14.82 C 22.589999999999996 14.82, 22.529999999999998 14.82, 23.759999999999998 14.82 C 25.049999999999997 14.82, 25.214999999999996 14.82, 26.339999999999996 14.82 C 27.299999999999997 14.82, 27.509999999999998 14.82, 28.259999999999998 14.82 C 28.799999999999997 14.82, 28.949999999999996 14.82, 29.339999999999996 14.82 C 29.58 14.82, 29.669999999999998 14.82, 29.82 14.82 C 29.880000000000003 14.82, 29.91 14.82, 29.94 14.82 L 29.94 14.82" fill="none" stroke="black" stroke-width="5"></path><path d="M 21.06 9.42 C 21.09 8.73, 21.03 8.580000000000002, 21.12 8.040000000000001 C 21.27 7.65, 21.255 7.605, 21.419999999999998 7.26 C 21.6 6.96, 21.495 7.065, 21.78 6.66 C 22.17 6.15, 22.11 6.09, 22.56 5.64 C 23.07 5.25, 22.995 5.25, 23.580000000000002 4.86 C 24.240000000000002 4.470000000000001, 24.330000000000002 4.35, 24.900000000000002 4.08 C 25.380000000000003 3.93, 25.47 3.8550000000000004, 25.86 3.7800000000000002 C 26.16 3.7800000000000002, 26.115000000000002 3.7350000000000003, 26.46 3.7800000000000002 C 26.85 3.87, 26.745 3.7350000000000003, 27.240000000000002 3.96 C 27.840000000000003 4.32, 27.975 4.35, 28.44 4.68 C 28.77 4.98, 28.784999999999997 4.95, 29.099999999999998 5.28 C 29.4 5.640000000000001, 29.445000000000004 5.505, 29.700000000000003 6 C 29.91 6.63, 29.955 6.63, 30.119999999999997 7.26 C 30.24 7.89, 30.299999999999997 7.845, 30.36 8.52 C 30.36 9.239999999999998, 30.36 9.344999999999999, 30.36 9.959999999999999 C 30.36 10.469999999999999, 30.375 10.17, 30.36 10.98 C 30.33 12.09, 30.36 12.135000000000002, 30.299999999999997 13.200000000000001 C 30.209999999999997 14.22, 30.239999999999995 14.205, 30.119999999999997 15.24 C 29.97 16.29, 29.955 16.185, 29.82 17.34 C 29.7 18.6, 29.729999999999997 18.525, 29.58 19.86 C 29.4 21.27, 29.4 21.240000000000002, 29.22 22.68 C 29.04 24.15, 29.1 24.165, 28.86 25.619999999999997 C 28.56 27.06, 28.529999999999998 27.195, 28.259999999999998 28.5 C 28.02 29.669999999999998, 28.035 29.789999999999996, 27.78 30.839999999999996 C 27.51 31.77, 27.585 31.5, 27.240000000000002 32.7 C 26.82 34.17, 26.760000000000005 34.44, 26.400000000000002 35.64 C 26.1 36.57, 26.069999999999997 36.6, 25.799999999999997 37.5 C 25.56 38.370000000000005, 25.544999999999998 38.535000000000004, 25.32 39.24 C 25.11 39.78, 25.020000000000003 40.005, 24.900000000000002 40.32 C 24.869999999999997 40.41, 24.854999999999997 40.455, 24.839999999999996 40.5 C 24.839999999999996 40.5, 24.839999999999996 40.5, 24.839999999999996 40.5 C 24.839999999999996 40.5, 24.839999999999996 40.5, 24.839999999999996 40.5 C 24.839999999999996 40.5, 24.839999999999996 40.5, 24.839999999999996 40.5 C 24.839999999999996 40.5, 24.914999999999996 40.44, 24.839999999999996 40.5 L 24.54 40.74" fill="none" stroke="black" stroke-width="5"></path></svg>