<svg xmlns="http://www.w3.org/2000/svg" viewBox="12.073332786560059 1.1600000858306885 19.603958129882812 44.29999899864197" width="19.603958129882812" height="44.29999899864197"><path d="M 13.440000000000001 2.16 C 13.260000000000002 3.0900000000000003, 13.170000000000002 2.8050000000000006, 13.080000000000002 4.0200000000000005 C 13.080000000000002 5.52, 13.065000000000001 5.085, 13.080000000000002 7.02 C 13.110000000000001 9.39, 13.125 9.51, 13.14 11.76 C 13.14 13.89, 13.095 14.115, 13.14 16.02 C 13.23 17.7, 13.23 18.015, 13.32 19.38 C 13.41 20.43, 13.32 20.385, 13.5 21.48 C 13.77 22.619999999999997, 13.739999999999998 22.83, 14.04 23.759999999999998 C 14.370000000000001 24.48, 14.280000000000001 24.615000000000002, 14.700000000000001 25.200000000000003 C 15.21 25.65, 15.255 25.74, 15.72 26.099999999999998 C 16.14 26.369999999999997, 15.989999999999998 26.43, 16.56 26.64 C 17.28 26.79, 17.13 26.82, 18 26.94 C 19.02 27.03, 18.99 27.075, 20.04 27.119999999999997 C 21.12 27.119999999999997, 21.195000000000004 27.119999999999997, 22.200000000000003 27.119999999999997 C 23.130000000000003 27.119999999999997, 23.07 27.119999999999997, 24.06 27.119999999999997 C 25.11 27.119999999999997, 25.380000000000003 27.119999999999997, 26.160000000000004 27.119999999999997 C 26.67 27.119999999999997, 26.73 27.119999999999997, 27.18 27.119999999999997 C 27.57 27.119999999999997, 27.6 27.119999999999997, 27.96 27.119999999999997 C 28.29 27.119999999999997, 28.259999999999998 27.164999999999996, 28.619999999999997 27.119999999999997 C 29.009999999999998 27.03, 29.085 27.075000000000003, 29.400000000000002 26.94 C 29.64 26.759999999999998, 29.655000000000005 26.91, 29.880000000000003 26.58 C 30.09 26.099999999999998, 30.15 26.055, 30.299999999999997 25.619999999999997 C 30.39 25.229999999999997, 30.39 25.454999999999995, 30.48 24.839999999999996 C 30.57 24, 30.630000000000003 24.119999999999997, 30.660000000000004 23.16 C 30.630000000000003 22.08, 30.75 22.065, 30.599999999999998 21 C 30.33 19.95, 30.314999999999998 19.755, 30.06 18.9 C 29.82 18.240000000000002, 29.999999999999996 18.3, 29.58 17.580000000000002 C 28.98 16.8, 29.205000000000002 16.605, 28.380000000000003 16.02 C 27.330000000000002 15.629999999999999, 27.315 15.435, 26.28 15.24 C 25.26 15.24, 25.095000000000002 15.135, 24.240000000000002 15.24 C 23.55 15.45, 23.61 15.270000000000001, 22.86 15.66 C 22.05 16.229999999999997, 21.915000000000003 16.184999999999995, 21.240000000000002 16.799999999999997 C 20.700000000000003 17.46, 20.595 17.43, 20.16 18.12 C 19.83 18.84, 19.71 19.08, 19.5 19.56 C 19.41 19.799999999999997, 19.365000000000002 19.919999999999998, 19.32 20.04 L 19.32 20.04" fill="none" stroke="black" stroke-width="5"></path><path d="M 20.16 27.54 C 20.16 28.47, 20.085 28.080000000000002, 20.16 29.400000000000002 C 20.310000000000002 31.11, 20.385 31.365000000000002, 20.46 32.82 C 20.46 34.019999999999996, 20.415 34.11, 20.46 35.22 C 20.55 36.239999999999995, 20.595 36.239999999999995, 20.64 37.26 C 20.64 38.28, 20.595 38.385, 20.64 39.3 C 20.73 40.11, 20.73 40.35, 20.82 40.92 C 20.91 41.25, 20.955 41.265, 21 41.58 C 21 41.879999999999995, 20.939999999999998 41.79, 21 42.18 C 21.12 42.66, 21.18 42.9, 21.240000000000002 43.14 C 21.240000000000002 43.14, 21.240000000000002 43.14, 21.240000000000002 43.14 L 21.240000000000002 43.14" fill="none" stroke="black" stroke-width="5"></path><path d="M 26.700000000000003 26.880000000000003 C 26.76 27.39, 26.79 27.105000000000004, 26.82 27.900000000000002 C 26.82 28.98, 26.82 28.994999999999997, 26.82 30.06 C 26.82 31.11, 26.775 30.810000000000002, 26.82 32.160000000000004 C 26.91 33.81, 26.955 33.915000000000006, 27 35.46 C 27 36.9, 27 36.94499999999999, 27 38.339999999999996 C 27 39.69, 26.925 39.81, 27 41.04 C 27.15 42.15, 27.209999999999997 42.48, 27.299999999999997 43.26 C 27.33 43.71, 27.345 43.86, 27.36 44.160000000000004 C 27.36 44.31, 27.36 44.385000000000005, 27.36 44.46 L 27.36 44.46" fill="none" stroke="black" stroke-width="5"></path></svg>