<svg xmlns="http://www.w3.org/2000/svg" viewBox="15.020000457763672 5.300000190734863 22.975318908691406 41.90000057220459" width="22.975318908691406" height="41.90000057220459"><path d="M 16.32 18.18 C 16.86 18.119999999999997, 16.77 18.134999999999998, 17.4 18.06 C 18.119999999999997 17.97, 18.105 17.924999999999997, 18.84 17.88 C 19.59 17.88, 19.53 17.88, 20.34 17.88 C 21.21 17.88, 21.42 17.88, 22.080000000000002 17.88 C 22.53 17.88, 22.41 17.88, 22.98 17.88 C 23.67 17.88, 23.7 17.924999999999997, 24.36 17.88 C 24.99 17.79, 25.034999999999997 17.745, 25.619999999999997 17.700000000000003 C 26.16 17.700000000000003, 26.160000000000004 17.700000000000003, 26.700000000000003 17.700000000000003 C 27.240000000000002 17.700000000000003, 27.21 17.700000000000003, 27.78 17.700000000000003 C 28.380000000000003 17.700000000000003, 28.44 17.700000000000003, 28.98 17.700000000000003 C 29.46 17.700000000000003, 29.355 17.700000000000003, 29.94 17.700000000000003 C 30.630000000000003 17.700000000000003, 30.75 17.700000000000003, 31.32 17.700000000000003 C 31.77 17.700000000000003, 31.77 17.700000000000003, 32.22 17.700000000000003 C 32.67 17.700000000000003, 32.655 17.700000000000003, 33.12 17.700000000000003 C 33.599999999999994 17.700000000000003, 33.72 17.685000000000002, 34.08 17.700000000000003 C 34.32 17.73, 34.410000000000004 17.744999999999997, 34.56 17.759999999999998 C 34.620000000000005 17.759999999999998, 34.65 17.759999999999998, 34.68 17.759999999999998 L 34.68 17.759999999999998" fill="none" stroke="black" stroke-width="5"></path><path d="M 23.34 11.040000000000001 C 23.549999999999997 10.56, 23.354999999999997 10.620000000000001, 23.759999999999998 10.08 C 24.36 9.48, 24.375 9.389999999999999, 24.96 8.879999999999999 C 25.53 8.46, 25.485 8.46, 26.099999999999998 8.040000000000001 C 26.759999999999998 7.62, 26.805 7.56, 27.42 7.199999999999999 C 27.990000000000002 6.9, 28.064999999999998 6.8100000000000005, 28.56 6.6000000000000005 C 28.98 6.48, 28.92 6.42, 29.400000000000002 6.36 C 29.94 6.36, 29.925 6.2250000000000005, 30.48 6.36 C 31.049999999999997 6.63, 31.139999999999997 6.645, 31.619999999999997 6.8999999999999995 C 32.010000000000005 7.14, 32.07000000000001 7.125, 32.400000000000006 7.38 C 32.67 7.65, 32.655 7.575, 32.94 7.92 C 33.239999999999995 8.34, 33.269999999999996 8.235, 33.54 8.76 C 33.78 9.39, 33.885 9.375, 34.019999999999996 10.02 C 34.05 10.68, 34.065 10.77, 34.08 11.34 C 34.08 11.82, 34.08 11.669999999999998, 34.08 12.299999999999999 C 34.08 13.079999999999998, 34.08 13.139999999999999, 34.08 13.86 C 34.08 14.52, 34.08 14.309999999999999, 34.08 15.18 C 34.08 16.259999999999998, 34.08 16.365, 34.08 17.34 C 34.08 18.21, 34.08 18.060000000000002, 34.08 19.080000000000002 C 34.08 20.25, 34.08 20.325, 34.08 21.419999999999998 C 34.08 22.439999999999998, 34.08 22.635, 34.08 23.46 C 34.08 24.09, 34.08 24.375, 34.08 24.72 C 34.08 24.779999999999998, 34.08 24.809999999999995, 34.08 24.839999999999996 C 34.08 24.839999999999996, 34.08 24.839999999999996, 34.08 24.839999999999996 L 34.08 24.839999999999996" fill="none" stroke="black" stroke-width="5"></path><path d="M 25.44 17.16 C 25.35 17.64, 25.394999999999996 16.815, 25.259999999999998 18.12 C 25.08 20.25, 24.885 20.325, 24.900000000000002 22.38 C 25.11 24.36, 24.645000000000003 24.194999999999997, 25.32 26.339999999999996 C 26.46 28.65, 26.699999999999996 29.4, 27.599999999999998 30.96 C 28.259999999999998 31.77, 28.02 31.814999999999998, 28.92 32.58 C 30.060000000000002 33.3, 30.030000000000005 33.449999999999996, 31.200000000000003 34.019999999999996 C 32.4 34.44, 32.474999999999994 34.485, 33.599999999999994 34.86 C 34.65 35.19, 35.010000000000005 35.26499999999999, 35.7 35.519999999999996 C 36.03 35.7, 36.12 35.715, 36.36 35.88 C 36.510000000000005 36.03, 36.510000000000005 35.985, 36.660000000000004 36.18 C 36.81 36.42, 37.095 36.330000000000005, 36.96 36.660000000000004 C 36.54 37.08, 36.735 37.230000000000004, 36.12 37.5 C 35.31 37.620000000000005, 35.46 37.605000000000004, 34.5 37.74 C 33.39 37.89, 33.6 37.875, 32.28 38.04 C 30.75 38.22, 30.78 38.07000000000001, 29.22 38.400000000000006 C 27.63 38.88, 27.509999999999998 38.655, 26.04 39.36 C 24.689999999999998 40.29, 24.345 40.275, 23.34 41.22 C 22.68 42.18, 22.455 42.105000000000004, 22.02 43.14 C 21.810000000000002 44.25, 21.705000000000002 44.64, 21.6 45.36 C 21.6 45.69, 21.6 45.824999999999996, 21.6 46.019999999999996 C 21.6 46.08, 21.6 46.095, 21.6 46.14 L 21.6 46.2" fill="none" stroke="black" stroke-width="5"></path><path d="M 16.02 31.92 C 18.21 33.06, 18.54 33.045, 20.4 34.2 C 21.93 35.370000000000005, 22.365000000000002 35.67, 23.46 36.54 C 24.12 37.11, 24.105 37.05, 24.78 37.68 C 25.470000000000002 38.370000000000005, 25.785000000000004 38.67, 26.160000000000004 39.06 C 26.220000000000002 39.150000000000006, 26.25 39.195, 26.28 39.24 L 26.28 39.24" fill="none" stroke="black" stroke-width="5"></path></svg>