<svg xmlns="http://www.w3.org/2000/svg" viewBox="11.08666706085205 2.6600000858306885 26.033331871032715 45.26552939414978" width="26.033331871032715" height="45.26552939414978"><path d="M 13.5 30.599999999999998 C 13.41 29.31, 13.47 29.835, 13.32 28.02 C 13.11 25.68, 13.155 25.275, 12.899999999999999 23.34 C 12.599999999999998 21.810000000000002, 12.494999999999997 21.975, 12.299999999999999 20.28 C 12.21 18.42, 12.165000000000001 18.36, 12.120000000000001 16.56 C 12.120000000000001 14.82, 12.120000000000001 14.745000000000001, 12.120000000000001 13.080000000000002 C 12.120000000000001 11.49, 12.045000000000002 11.354999999999999, 12.120000000000001 9.899999999999999 C 12.27 8.579999999999998, 12.224999999999998 8.37, 12.419999999999998 7.26 C 12.659999999999998 6.359999999999999, 12.629999999999999 6.12, 12.899999999999999 5.46 C 13.2 5.04, 13.17 4.98, 13.5 4.62 C 13.86 4.32, 13.725000000000001 4.260000000000001, 14.22 4.0200000000000005 C 14.850000000000001 3.8400000000000003, 14.835 3.6900000000000004, 15.48 3.66 C 16.14 3.7800000000000002, 16.169999999999998 3.6750000000000003, 16.799999999999997 3.9000000000000004 C 17.4 4.23, 17.475 4.140000000000001, 18 4.5600000000000005 C 18.45 5.07, 18.45 4.83, 18.9 5.58 C 19.349999999999998 6.57, 19.364999999999995 6.345000000000001, 19.799999999999997 7.5600000000000005 C 20.22 9, 20.37 9.03, 20.64 10.44 C 20.759999999999998 11.82, 20.775 12, 20.88 13.200000000000001 C 20.97 14.22, 20.97 13.98, 21.06 15.24 C 21.15 16.740000000000002, 21.195 17.025000000000002, 21.240000000000002 18.240000000000002 C 21.240000000000002 19.17, 21.240000000000002 19.44, 21.240000000000002 20.1 C 21.240000000000002 20.490000000000002, 21.240000000000002 20.685, 21.240000000000002 20.88 C 21.240000000000002 20.88, 21.240000000000002 20.88, 21.240000000000002 20.88 C 21.240000000000002 20.88, 21.240000000000002 20.88, 21.240000000000002 20.88 C 21.240000000000002 20.88, 21.240000000000002 20.88, 21.240000000000002 20.88 C 21.240000000000002 20.88, 20.835 20.924999999999997, 21.240000000000002 20.88 C 22.05 20.79, 21.9 20.85, 22.86 20.700000000000003 C 23.97 20.490000000000002, 23.865 20.475, 25.08 20.28 C 26.4 20.1, 26.564999999999998 20.04, 27.72 19.919999999999998 C 28.71 19.86, 28.800000000000004 19.83, 29.700000000000003 19.799999999999997 C 30.51 19.799999999999997, 30.51 19.799999999999997, 31.32 19.799999999999997 C 32.129999999999995 19.799999999999997, 32.339999999999996 19.799999999999997, 32.94 19.799999999999997 C 33.33 19.799999999999997, 33.405 19.799999999999997, 33.72 19.799999999999997 C 33.96 19.799999999999997, 34.08 19.799999999999997, 34.2 19.799999999999997 L 34.2 19.799999999999997" fill="none" stroke="black" stroke-width="5"></path><path d="M 24.54 15.54 C 24.48 14.91, 24.450000000000003 15.075, 24.42 14.28 C 24.42 13.32, 24.315000000000005 13.559999999999999, 24.42 12.36 C 24.63 10.92, 24.479999999999997 10.8, 24.839999999999996 9.48 C 25.349999999999998 8.280000000000001, 25.32 8.085, 25.86 7.08 C 26.43 6.27, 26.16 6.225, 27 5.46 C 28.11 4.74, 28.439999999999998 4.44, 29.22 4.0200000000000005 C 29.669999999999998 3.9000000000000004, 29.684999999999995 3.7950000000000004, 30.119999999999997 3.7800000000000002 C 30.54 3.87, 30.435000000000002 3.51, 30.96 3.96 C 31.59 4.77, 31.68 4.635, 32.22 5.58 C 32.67 6.66, 32.80499999999999 6.51, 33.12 7.74 C 33.3 9.120000000000001, 33.39 9.21, 33.480000000000004 10.5 C 33.480000000000004 11.7, 33.39000000000001 11.564999999999998, 33.480000000000004 12.899999999999999 C 33.66 14.37, 33.735 14.355, 33.839999999999996 15.84 C 33.870000000000005 17.34, 33.78 17.31, 33.900000000000006 18.84 C 34.11 20.4, 34.14 20.55, 34.32 21.96 C 34.47 23.22, 34.5 23.43, 34.62 24.48 C 34.709999999999994 25.32, 34.754999999999995 25.440000000000005, 34.8 26.160000000000004 C 34.8 26.76, 34.8 26.805, 34.8 27.36 C 34.8 27.87, 34.8 27.810000000000002, 34.8 28.380000000000003 C 34.8 29.01, 34.8 29.25, 34.8 29.64 C 34.8 29.79, 34.8 29.865000000000002, 34.8 29.94 L 34.8 29.94" fill="none" stroke="black" stroke-width="5"></path><path d="M 21 20.88 C 21.12 22.83, 21.150000000000002 22.575, 21.240000000000002 24.78 C 21.3 27.240000000000002, 21.3 27.555000000000003, 21.36 29.700000000000003 C 21.42 31.53, 21.42 31.485, 21.48 33.36 C 21.54 35.28, 21.51 35.34, 21.6 37.2 C 21.72 39, 21.689999999999998 39.345, 21.84 40.8 C 22.020000000000003 41.91, 21.990000000000002 42.089999999999996, 22.200000000000003 43.019999999999996 C 22.44 43.769999999999996, 22.47 43.949999999999996, 22.68 44.519999999999996 C 22.86 44.91, 22.83 44.849999999999994, 23.04 45.3 C 23.28 45.81, 23.325 45.945, 23.52 46.32 C 23.67 46.56, 23.745 46.68, 23.82 46.8 C 23.82 46.8, 23.82 46.8, 23.82 46.8 C 23.82 46.8, 23.805 46.785, 23.82 46.8 C 23.85 46.83, 23.775 47.025, 23.88 46.86 C 24.060000000000002 46.5, 24.060000000000002 46.635, 24.240000000000002 46.14 C 24.42 45.510000000000005, 24.404999999999998 45.435, 24.599999999999998 44.88 C 24.81 44.400000000000006, 24.75 44.52, 25.02 43.92 C 25.35 43.2, 25.29 43.17, 25.68 42.480000000000004 C 26.13 41.82000000000001, 25.904999999999998 41.955000000000005, 26.58 41.160000000000004 C 27.48 40.230000000000004, 27.150000000000002 40.275, 28.380000000000003 39.3 C 29.94 38.28, 30.060000000000002 38.01, 31.5 37.26 C 32.82 36.78, 33.03 36.629999999999995, 34.14 36.3 C 35.04 36.12, 35.445 36.03, 35.94 35.94 C 36.03 35.94, 36.074999999999996 35.94, 36.12 35.94 L 36.12 35.94" fill="none" stroke="black" stroke-width="5"></path></svg>