<svg xmlns="http://www.w3.org/2000/svg" viewBox="12.960000038146973 5.039999961853027 20.38666534423828 40.719998359680176" width="20.38666534423828" height="40.719998359680176"><path d="M 14.100000000000001 32.28 C 14.100000000000001 31.62, 14.100000000000001 31.785, 14.100000000000001 30.96 C 14.100000000000001 29.97, 14.130000000000003 29.79, 14.100000000000001 28.98 C 14.040000000000001 28.35, 14.010000000000002 28.439999999999998, 13.98 27.72 C 13.98 26.909999999999997, 13.98 26.82, 13.98 26.099999999999998 C 13.98 25.47, 13.98 25.349999999999994, 13.98 24.839999999999996 C 13.98 24.449999999999996, 13.935 24.659999999999997, 13.98 24.06 C 14.07 23.25, 14.01 23.205000000000002, 14.16 22.44 C 14.370000000000001 21.72, 14.400000000000002 21.57, 14.580000000000002 21 C 14.73 20.58, 14.655 20.52, 14.879999999999999 20.16 C 15.18 19.86, 15.075 19.845, 15.48 19.56 C 15.99 19.29, 15.93 19.215, 16.5 19.02 C 17.13 18.9, 17.189999999999998 18.84, 17.759999999999998 18.78 C 18.27 18.78, 18.15 18.78, 18.78 18.78 C 19.53 18.78, 19.485 18.78, 20.28 18.78 C 21.12 18.78, 21.105 18.735, 21.96 18.78 C 22.830000000000002 18.87, 22.950000000000003 18.915, 23.700000000000003 18.96 C 24.330000000000002 18.96, 24.42 18.96, 24.96 18.96 C 25.41 18.96, 25.515 18.945, 25.86 18.96 C 26.099999999999998 18.990000000000002, 26.099999999999994 18.975, 26.339999999999996 19.02 C 26.58 19.08, 26.549999999999997 19.11, 26.82 19.14 C 27.12 19.14, 27.12 19.14, 27.42 19.14 C 27.72 19.14, 27.795 19.14, 28.02 19.14 C 28.17 19.14, 28.2 19.14, 28.32 19.14 C 28.41 19.14, 28.380000000000003 19.14, 28.5 19.14 C 28.65 19.14, 28.604999999999997 19.14, 28.799999999999997 19.14 C 29.04 19.14, 29.009999999999998 19.17, 29.28 19.14 C 29.580000000000002 19.08, 29.730000000000004 19.05, 29.880000000000003 19.02 C 29.880000000000003 19.02, 29.880000000000003 19.02, 29.880000000000003 19.02 C 29.880000000000003 19.02, 29.745000000000005 19.125, 29.880000000000003 19.02 C 30.150000000000002 18.810000000000002, 30.105000000000004 18.915000000000003, 30.42 18.6 C 30.78 18.18, 30.855 18.18, 31.14 17.759999999999998 C 31.35 17.339999999999996, 31.349999999999998 17.324999999999996, 31.56 16.919999999999998 C 31.77 16.53, 31.815 16.68, 31.98 16.14 C 32.1 15.45, 32.144999999999996 15.42, 32.22 14.76 C 32.25 14.129999999999999, 32.265 14.175, 32.28 13.5 C 32.28 12.78, 32.28 12.809999999999999, 32.28 12.059999999999999 C 32.28 11.28, 32.28 11.205, 32.28 10.5 C 32.28 9.870000000000001, 32.43 9.885, 32.28 9.24 C 31.98 8.58, 32.07 8.475, 31.68 7.92 C 31.2 7.47, 31.154999999999998 7.379999999999999, 30.72 7.02 C 30.33 6.75, 30.405 6.705, 29.94 6.48 C 29.4 6.300000000000001, 29.369999999999997 6.225, 28.86 6.12 C 28.380000000000003 6.09, 28.365000000000002 6.075, 27.900000000000002 6.0600000000000005 C 27.450000000000003 6.0600000000000005, 27.42 6.015000000000001, 27 6.0600000000000005 C 26.61 6.15, 26.625 6.03, 26.22 6.24 C 25.8 6.57, 25.800000000000004 6.4799999999999995, 25.380000000000003 6.8999999999999995 C 24.96 7.41, 24.93 7.335, 24.54 7.92 C 24.18 8.58, 24.03 8.67, 23.82 9.24 C 23.76 9.719999999999999, 23.730000000000004 9.959999999999999, 23.700000000000003 10.2 C 23.700000000000003 10.2, 23.700000000000003 10.2, 23.700000000000003 10.2 C 23.700000000000003 10.2, 23.700000000000003 10.2, 23.700000000000003 10.2 L 23.700000000000003 10.2" fill="none" stroke="black" stroke-width="5"></path><path d="M 21 18.72 C 20.85 19.259999999999998, 20.895000000000003 18.72, 20.700000000000003 19.799999999999997 C 20.46 21.419999999999998, 20.43 21.615, 20.22 23.04 C 20.04 24.27, 20.009999999999998 23.85, 19.86 25.5 C 19.740000000000002 27.57, 19.68 27.825000000000003, 19.62 29.64 C 19.62 31.2, 19.62 31.034999999999997, 19.62 32.76 C 19.62 34.65, 19.62 34.875, 19.62 36.54 C 19.62 37.980000000000004, 19.665 37.995000000000005, 19.62 39.42 C 19.53 40.83, 19.485 41.175000000000004, 19.44 42.24 C 19.44 42.96, 19.44 43.05, 19.44 43.68 C 19.44 44.22, 19.44 44.489999999999995, 19.44 44.76 C 19.44 44.76, 19.44 44.76, 19.44 44.76 L 19.44 44.76" fill="none" stroke="black" stroke-width="5"></path><path d="M 26.82 19.98 C 26.7 21.3, 26.685 21.42, 26.58 22.62 C 26.490000000000002 23.700000000000003, 26.445 23.37, 26.400000000000002 24.78 C 26.400000000000002 26.52, 26.400000000000002 26.7, 26.400000000000002 28.259999999999998 C 26.400000000000002 29.64, 26.400000000000002 29.4, 26.400000000000002 31.02 C 26.400000000000002 32.88, 26.445000000000004 33.24, 26.400000000000002 34.74 C 26.310000000000002 35.879999999999995, 26.31 35.78999999999999, 26.22 37.019999999999996 C 26.13 38.34, 26.085 38.595, 26.04 39.660000000000004 C 26.04 40.47, 26.04 40.605000000000004, 26.04 41.28 C 26.04 41.82, 26.07 41.894999999999996, 26.04 42.36 C 25.98 42.75, 25.950000000000003 42.78, 25.92 43.14 C 25.92 43.47, 25.92 43.53, 25.92 43.8 C 25.92 44.01, 25.92 44.04, 25.92 44.22 C 25.92 44.37, 25.92 44.44499999999999, 25.92 44.519999999999996 C 25.92 44.519999999999996, 25.92 44.519999999999996, 25.92 44.519999999999996 L 25.92 44.519999999999996" fill="none" stroke="black" stroke-width="5"></path></svg>