<svg xmlns="http://www.w3.org/2000/svg" viewBox="10.846667289733887 2.4800000190734863 19.813331604003906 42.92000198364258" width="19.813331604003906" height="42.92000198364258"><path d="M 11.879999999999999 3.4799999999999995 C 11.879999999999999 4.2299999999999995, 11.879999999999999 3.8999999999999995, 11.879999999999999 4.9799999999999995 C 11.879999999999999 6.390000000000001, 11.879999999999999 6.285, 11.879999999999999 7.800000000000001 C 11.879999999999999 9.420000000000002, 11.879999999999999 9.315000000000001, 11.879999999999999 11.040000000000001 C 11.879999999999999 12.870000000000001, 11.879999999999999 13.065000000000001, 11.879999999999999 14.700000000000001 C 11.879999999999999 16.14, 11.805 16.35, 11.879999999999999 17.580000000000002 C 12.03 18.6, 12.045 18.48, 12.18 19.62 C 12.299999999999999 20.880000000000003, 12.314999999999998 20.865000000000002, 12.419999999999998 22.14 C 12.51 23.43, 12.510000000000002 23.415, 12.600000000000001 24.72 C 12.690000000000001 26.04, 12.69 26.235, 12.78 27.36 C 12.870000000000001 28.29, 12.870000000000001 28.2, 12.96 29.22 C 13.05 30.33, 13.065000000000001 30.195, 13.14 31.44 C 13.2 32.82, 13.17 33.150000000000006, 13.26 34.2 C 13.379999999999999 34.92, 13.395 34.71, 13.5 35.64 C 13.59 36.78, 13.635 36.795, 13.68 37.92 C 13.68 39.03, 13.65 39.269999999999996, 13.68 40.14 C 13.739999999999998 40.77, 13.77 40.71000000000001, 13.799999999999999 41.400000000000006 C 13.799999999999999 42.150000000000006, 13.754999999999999 42.315000000000005, 13.799999999999999 42.900000000000006 C 13.89 43.32000000000001, 13.935 43.455000000000005, 13.98 43.74 C 13.98 43.89, 13.98 43.935, 13.98 44.04 C 13.98 44.1, 13.95 44.08500000000001, 13.98 44.160000000000004 C 14.040000000000001 44.25, 14.07 44.295, 14.100000000000001 44.339999999999996 C 14.100000000000001 44.339999999999996, 14.100000000000001 44.339999999999996, 14.100000000000001 44.339999999999996 C 14.100000000000001 44.339999999999996, 14.085 44.324999999999996, 14.100000000000001 44.339999999999996 L 14.16 44.400000000000006" fill="none" stroke="black" stroke-width="5"></path><path d="M 13.86 36.599999999999994 C 14.82 36.36, 14.834999999999999 36.269999999999996, 15.78 36.12 C 16.71 36.06, 16.755 36.12, 17.64 36 C 18.48 35.82, 18.495 35.745000000000005, 19.32 35.64 C 20.130000000000003 35.61, 20.07 35.64, 20.94 35.58 C 21.869999999999997 35.49, 21.959999999999997 35.44500000000001, 22.799999999999997 35.400000000000006 C 23.549999999999997 35.400000000000006, 23.819999999999997 35.400000000000006, 24.299999999999997 35.400000000000006 C 24.509999999999998 35.400000000000006, 24.615 35.400000000000006, 24.72 35.400000000000006 L 24.72 35.400000000000006" fill="none" stroke="black" stroke-width="5"></path><path d="M 13.200000000000001 29.099999999999998 C 14.04 29.099999999999998, 13.68 29.099999999999998, 14.879999999999999 29.099999999999998 C 16.439999999999998 29.099999999999998, 16.71 29.099999999999998, 18 29.099999999999998 C 19.02 29.099999999999998, 18.99 29.099999999999998, 20.04 29.099999999999998 C 21.12 29.099999999999998, 21.150000000000002 29.144999999999996, 22.200000000000003 29.099999999999998 C 23.220000000000002 29.009999999999998, 23.370000000000005 28.965, 24.240000000000002 28.92 C 24.96 28.92, 25.05 28.92, 25.68 28.92 C 26.22 28.92, 26.324999999999996 28.92, 26.759999999999998 28.92 C 27.09 28.92, 27.135 29.01, 27.42 28.92 C 27.660000000000004 28.740000000000002, 27.660000000000004 28.725, 27.900000000000002 28.56 C 28.14 28.409999999999997, 28.17 28.424999999999997, 28.380000000000003 28.259999999999998 C 28.560000000000002 28.08, 28.53 28.23, 28.740000000000002 27.900000000000002 C 28.98 27.42, 28.994999999999997 27.525000000000002, 29.22 26.94 C 29.43 26.25, 29.535 26.415, 29.64 25.56 C 29.64 24.54, 29.64 24.509999999999998, 29.64 23.52 C 29.64 22.560000000000002, 29.685000000000002 22.470000000000002, 29.64 21.6 C 29.55 20.82, 29.655 20.835, 29.46 20.04 C 29.16 19.229999999999997, 29.25 19.29, 28.86 18.419999999999998 C 28.380000000000003 17.49, 28.26 17.159999999999997, 27.900000000000002 16.56 C 27.660000000000004 16.29, 27.705000000000002 16.259999999999998, 27.42 16.02 C 27.09 15.81, 27.24 15.750000000000002, 26.759999999999998 15.600000000000001 C 26.13 15.51, 26.009999999999998 15.404999999999998, 25.5 15.419999999999998 C 25.11 15.54, 25.155 15.524999999999999, 24.72 15.66 C 24.24 15.81, 24.389999999999997 15.525000000000002, 23.759999999999998 15.96 C 22.98 16.68, 22.815000000000005 16.665, 22.200000000000003 17.4 C 21.75 18.15, 21.75 17.955, 21.299999999999997 18.9 C 20.849999999999998 20.04, 20.714999999999996 20.055, 20.4 21.18 C 20.22 22.29, 20.13 22.65, 20.04 23.4 C 20.04 23.79, 20.04 23.985, 20.04 24.18 C 20.04 24.18, 20.04 24.18, 20.04 24.18 L 20.04 24.18" fill="none" stroke="black" stroke-width="5"></path></svg>