<svg xmlns="http://www.w3.org/2000/svg" viewBox="12.960000038146973 6.842708587646484 19.480000495910645 39.93729019165039" width="19.480000495910645" height="39.93729019165039"><path d="M 14.34 31.86 C 14.16 30.72, 14.07 30.555, 13.98 29.58 C 13.98 28.77, 13.98 28.814999999999998, 13.98 27.96 C 13.98 27.060000000000002, 13.98 26.970000000000006, 13.98 26.160000000000004 C 13.98 25.44, 13.935 25.425, 13.98 24.72 C 14.07 24.03, 14.025 23.895, 14.16 23.34 C 14.34 22.92, 14.309999999999999 22.95, 14.52 22.5 C 14.76 22.02, 14.625 22.035, 15 21.54 C 15.51 21.03, 15.285 20.925, 16.02 20.52 C 16.98 20.22, 16.86 20.115, 17.94 19.919999999999998 C 19.14 19.83, 19.17 19.830000000000002, 20.34 19.740000000000002 C 21.48 19.65, 21.045 19.605, 22.62 19.56 C 24.630000000000003 19.56, 25.020000000000003 19.56, 26.64 19.56 C 27.869999999999997 19.56, 28.064999999999998 19.56, 29.099999999999998 19.56 C 29.939999999999998 19.56, 30.285 19.56, 30.78 19.56 C 30.93 19.56, 31.005 19.56, 31.08 19.56 L 31.08 19.56" fill="none" stroke="black" stroke-width="5"></path><path d="M 18.72 13.74 C 19.11 12.899999999999999, 19.064999999999998 12.87, 19.5 12.059999999999999 C 19.98 11.28, 19.815 11.25, 20.46 10.5 C 21.270000000000003 9.780000000000001, 21.315 9.63, 22.080000000000002 9.06 C 22.8 8.64, 22.77 8.520000000000001, 23.52 8.22 C 24.299999999999997 8.040000000000001, 24.314999999999998 7.9350000000000005, 25.08 7.86 C 25.83 7.890000000000001, 25.95 7.7700000000000005, 26.58 7.92 C 27.089999999999996 8.19, 27.029999999999998 8.04, 27.599999999999998 8.459999999999999 C 28.229999999999997 9.030000000000001, 28.365 8.985000000000001, 28.86 9.600000000000001 C 29.22 10.260000000000002, 29.294999999999998 10.155000000000001, 29.58 10.92 C 29.79 11.79, 29.805 11.775, 30 12.66 C 30.18 13.56, 30.195 13.38, 30.36 14.46 C 30.51 15.72, 30.525000000000002 15.645000000000001, 30.660000000000004 16.98 C 30.78 18.39, 30.795 18.509999999999998, 30.900000000000002 19.799999999999997 C 30.990000000000002 20.97, 30.99 21.075, 31.08 22.14 C 31.169999999999998 23.1, 31.169999999999998 22.845, 31.259999999999998 24.06 C 31.35 25.53, 31.395 25.634999999999998, 31.44 27 C 31.44 28.259999999999998, 31.44 28.32, 31.44 29.52 C 31.44 30.659999999999997, 31.44 31.154999999999998, 31.44 31.799999999999997 C 31.44 31.949999999999996, 31.44 32.00999999999999, 31.44 32.099999999999994 L 31.44 32.160000000000004" fill="none" stroke="black" stroke-width="5"></path><path d="M 24.06 19.080000000000002 C 24 19.71, 23.805 19.44, 23.94 20.34 C 24.27 21.509999999999998, 24.375 21.585, 24.599999999999998 22.68 C 24.72 23.7, 24.734999999999996 23.564999999999998, 24.839999999999996 24.72 C 24.93 26.009999999999998, 25.034999999999997 25.799999999999997, 25.02 27.299999999999997 C 24.9 29.009999999999998, 24.990000000000002 29.085, 24.78 30.72 C 24.48 32.28, 24.495 32.535, 24.18 33.839999999999996 C 23.85 34.89, 23.805 35.114999999999995, 23.52 35.94 C 23.28 36.54, 23.34 36.375, 23.04 37.14 C 22.68 38.07, 22.740000000000002 38.085, 22.32 39 C 21.84 39.9, 21.945 39.885, 21.36 40.8 C 20.67 41.730000000000004, 20.745 41.865, 19.98 42.660000000000004 C 19.14 43.32000000000001, 19.109999999999996 43.33500000000001, 18.299999999999997 43.980000000000004 C 17.52 44.61, 17.25 44.790000000000006, 16.740000000000002 45.24 C 16.5 45.510000000000005, 16.38 45.645, 16.259999999999998 45.78 C 16.259999999999998 45.78, 16.259999999999998 45.78, 16.259999999999998 45.78 L 16.259999999999998 45.78" fill="none" stroke="black" stroke-width="5"></path></svg>