<svg xmlns="http://www.w3.org/2000/svg" viewBox="16.779998779296875 4.306666851043701 11.040000915527344 37.279998779296875" width="11.040000915527344" height="37.279998779296875"><path d="M 17.82 15.24 C 17.82 14.22, 17.82 14.22, 17.82 13.200000000000001 C 17.82 12.18, 17.82 12.105, 17.82 11.16 C 17.82 10.29, 17.73 10.095, 17.82 9.42 C 18 8.94, 18.015 8.954999999999998, 18.18 8.459999999999999 C 18.33 7.949999999999999, 18.21 8.024999999999999, 18.48 7.4399999999999995 C 18.869999999999997 6.779999999999999, 18.764999999999997 6.615, 19.259999999999998 6.12 C 19.86 5.79, 19.89 5.655, 20.46 5.46 C 21 5.4, 21.044999999999998 5.37, 21.54 5.34 C 21.990000000000002 5.34, 22.005000000000003 5.265, 22.44 5.34 C 22.86 5.49, 22.950000000000003 5.385, 23.28 5.64 C 23.52 6, 23.445 5.835, 23.759999999999998 6.36 C 24.15 7.050000000000001, 24.284999999999997 7.095000000000001, 24.54 7.74 C 24.66 8.34, 24.675 8.16, 24.78 8.94 C 24.87 9.899999999999999, 24.915 9.899999999999999, 24.96 10.86 C 24.96 11.82, 25.035 11.774999999999999, 24.96 12.78 C 24.810000000000002 13.829999999999998, 24.975 13.784999999999998, 24.660000000000004 14.879999999999999 C 24.180000000000003 16.02, 24.405000000000005 15.45, 23.700000000000003 17.16 C 22.770000000000003 19.439999999999998, 22.68 19.784999999999997, 21.84 21.72 C 21.09 23.310000000000002, 20.82 23.805000000000003, 20.34 24.900000000000002 C 20.13 25.5, 20.13 25.409999999999997, 19.919999999999998 26.099999999999998 C 19.71 26.880000000000003, 19.755 26.655000000000005, 19.5 27.660000000000004 C 19.2 28.89, 19.095 29.159999999999997, 18.9 30.119999999999997 C 18.81 30.81, 18.794999999999998 30.93, 18.72 31.5 C 18.66 31.950000000000003, 18.630000000000003 31.725000000000005, 18.6 32.400000000000006 C 18.6 33.300000000000004, 18.6 33.480000000000004, 18.6 34.2 C 18.6 34.74, 18.6 34.785000000000004, 18.6 35.28 C 18.6 35.730000000000004, 18.585 35.715, 18.6 36.18 C 18.630000000000003 36.66, 18.525 36.644999999999996, 18.66 37.14 C 18.9 37.650000000000006, 18.93 37.755, 19.14 38.160000000000004 C 19.32 38.46, 19.215 38.385, 19.5 38.76 C 19.89 39.21, 19.965000000000003 39.36, 20.28 39.660000000000004 C 20.52 39.81, 20.354999999999997 39.78, 20.759999999999998 39.96 C 21.33 40.17, 21.224999999999998 40.230000000000004, 21.9 40.38 C 22.68 40.47, 22.8 40.515, 23.46 40.56 C 24 40.56, 24.195 40.620000000000005, 24.54 40.56 C 24.689999999999998 40.44, 24.614999999999995 40.665, 24.839999999999996 40.32 C 25.14 39.75, 25.17 39.81, 25.44 39.18 C 25.68 38.489999999999995, 25.695000000000004 38.535, 25.92 37.8 C 26.13 37.019999999999996, 26.159999999999997 37.305, 26.339999999999996 36.24 C 26.49 34.89, 26.549999999999997 34.695, 26.64 33.54 C 26.67 32.58, 26.655 32.745, 26.700000000000003 31.619999999999997 C 26.76 30.33, 26.79 29.79, 26.82 29.04 C 26.82 28.83, 26.82 28.724999999999998, 26.82 28.619999999999997 L 26.82 28.619999999999997" fill="none" stroke="black" stroke-width="5"></path></svg>