<svg xmlns="http://www.w3.org/2000/svg" viewBox="13.039999961853027 3.9200000762939453 18.619999885559082 40.840003967285156" width="18.619999885559082" height="40.840003967285156"><path d="M 23.88 10.98 C 24.119999999999997 10.98, 23.97 10.98, 24.36 10.98 C 24.9 10.98, 24.825000000000003 10.98, 25.44 10.98 C 26.130000000000003 10.98, 26.25 10.98, 26.82 10.98 C 27.27 10.98, 27.195 10.995000000000001, 27.72 10.98 C 28.32 10.95, 28.470000000000002 10.965, 28.92 10.92 C 29.22 10.86, 29.13 10.875, 29.52 10.8 C 30 10.71, 30.195 10.665000000000001, 30.48 10.620000000000001 C 30.57 10.620000000000001, 30.615000000000002 10.620000000000001, 30.660000000000004 10.620000000000001 L 30.660000000000004 10.620000000000001" fill="none" stroke="black" stroke-width="5"></path><path d="M 30.119999999999997 4.92 C 30.119999999999997 6.42, 30.119999999999997 6.449999999999999, 30.119999999999997 7.92 C 30.119999999999997 9.36, 30.134999999999998 9.48, 30.119999999999997 10.8 C 30.089999999999996 12, 30.15 11.73, 30.06 13.200000000000001 C 29.909999999999997 14.940000000000001, 29.819999999999997 14.805, 29.759999999999998 16.68 C 29.79 18.69, 29.759999999999998 18.690000000000005, 29.82 20.700000000000003 C 29.91 22.71, 29.955 23.055, 30 24.72 C 30 26.04, 29.955 25.799999999999997, 30 27.36 C 30.09 29.16, 30.134999999999998 29.235, 30.18 30.96 C 30.18 32.61, 30.18 32.82, 30.18 34.26 C 30.18 35.489999999999995, 30.18 35.73, 30.18 36.72 C 30.18 37.47, 30.18 37.44, 30.18 38.22 C 30.18 39.03, 30.285 39.059999999999995, 30.18 39.839999999999996 C 29.97 40.589999999999996, 30.104999999999997 40.67999999999999, 29.759999999999998 41.339999999999996 C 29.279999999999998 41.91, 29.369999999999997 41.940000000000005, 28.799999999999997 42.480000000000004 C 28.14 42.99, 27.975 43.185, 27.48 43.5 C 27.15 43.620000000000005, 27.240000000000002 43.68, 26.82 43.74 C 26.31 43.74, 26.354999999999997 43.74, 25.799999999999997 43.74 C 25.199999999999996 43.74, 25.004999999999995 43.785000000000004, 24.599999999999998 43.74 C 24.39 43.650000000000006, 24.525 43.725, 24.18 43.56 C 23.7 43.32, 23.564999999999998 43.485, 23.22 43.08 C 23.009999999999998 42.51, 22.859999999999996 42.54, 22.799999999999997 41.94 C 22.89 41.31, 22.814999999999998 41.265, 22.98 40.68 C 23.22 40.14, 23.055 40.28999999999999, 23.46 39.599999999999994 C 24.03 38.76, 24.119999999999997 38.55, 24.599999999999998 37.92 C 24.990000000000002 37.5, 24.840000000000003 37.425, 25.380000000000003 37.08 C 26.07 36.81, 26.189999999999998 36.69, 26.759999999999998 36.54 C 27.21 36.510000000000005, 27.075000000000003 36.465, 27.660000000000004 36.480000000000004 C 28.380000000000003 36.54, 28.589999999999996 36.52499999999999, 29.099999999999998 36.599999999999994 C 29.4 36.69, 29.505000000000003 36.72, 29.700000000000003 36.78 C 29.790000000000003 36.81, 29.790000000000003 36.809999999999995, 29.880000000000003 36.839999999999996 C 29.97 36.870000000000005, 29.97 36.855000000000004, 30.06 36.900000000000006 C 30.15 36.96, 30.195 36.989999999999995, 30.240000000000002 37.019999999999996 L 30.240000000000002 37.019999999999996" fill="none" stroke="black" stroke-width="5"></path><path d="M 29.22 28.259999999999998 C 28.560000000000002 28.529999999999998, 28.575000000000003 28.665, 27.900000000000002 28.799999999999997 C 27.21 28.799999999999997, 27.015 28.799999999999997, 26.52 28.799999999999997 C 26.22 28.799999999999997, 26.355 28.979999999999997, 25.92 28.799999999999997 C 25.35 28.439999999999998, 25.365000000000002 28.83, 24.78 28.08 C 24.18 26.939999999999998, 24.060000000000002 26.955, 23.580000000000002 25.799999999999997 C 23.22 24.63, 23.07 24.240000000000002, 22.86 23.46 C 22.8 23.07, 22.770000000000003 22.875, 22.740000000000002 22.68 C 22.740000000000002 22.68, 22.740000000000002 22.68, 22.740000000000002 22.68 C 22.740000000000002 22.68, 22.740000000000002 22.665, 22.740000000000002 22.68 C 22.740000000000002 22.71, 22.785000000000004 22.275000000000002, 22.740000000000002 22.740000000000002 C 22.65 23.64, 22.74 23.445, 22.56 24.54 C 22.29 25.83, 22.349999999999998 26.099999999999998, 22.02 27.119999999999997 C 21.630000000000003 27.869999999999997, 21.675 27.944999999999997, 21.240000000000002 28.619999999999997 C 20.76 29.22, 20.685000000000002 29.415, 20.28 29.82 C 19.950000000000003 30.03, 19.98 30.135, 19.62 30.240000000000002 C 19.23 30.240000000000002, 19.38 30.435000000000002, 18.84 30.240000000000002 C 18.15 29.85, 18.09 29.955000000000002, 17.46 29.46 C 16.89 28.86, 16.8 29.025, 16.32 28.259999999999998 C 15.93 27.33, 15.855 27.555, 15.54 26.400000000000002 C 15.299999999999999 25.020000000000003, 15.329999999999998 25.5, 15.059999999999999 23.64 C 14.76 21.3, 14.67 20.985, 14.46 18.96 C 14.34 17.25, 14.325000000000001 17.145, 14.22 15.54 C 14.129999999999999 14.04, 14.084999999999999 14.37, 14.04 12.54 C 14.04 10.379999999999999, 14.04 9.765, 14.04 8.22 C 14.04 7.290000000000001, 14.04 6.930000000000001, 14.04 6.36 C 14.04 6.15, 14.04 6.045, 14.04 5.9399999999999995 C 14.04 5.9399999999999995, 14.04 5.9399999999999995, 14.04 5.9399999999999995 C 14.04 5.9399999999999995, 14.04 5.9399999999999995, 14.04 5.9399999999999995 L 14.04 5.9399999999999995" fill="none" stroke="black" stroke-width="5"></path></svg>