<svg xmlns="http://www.w3.org/2000/svg" viewBox="16.639999389648438 1.6400001049041748 18.144699096679688 44.47999882698059" width="18.144699096679688" height="44.47999882698059"><path d="M 17.64 12.96 C 18.42 12.96, 18.405 12.96, 19.200000000000003 12.96 C 20.01 12.96, 20.01 12.96, 20.82 12.96 C 21.630000000000003 12.96, 21.75 12.96, 22.44 12.96 C 23.01 12.96, 22.89 12.96, 23.580000000000002 12.96 C 24.39 12.96, 24.525000000000002 12.96, 25.200000000000003 12.96 C 25.740000000000002 12.96, 25.815 12.96, 26.28 12.96 C 26.67 12.96, 26.759999999999998 12.96, 27.06 12.96 C 27.27 12.96, 27.375 12.96, 27.48 12.96 L 27.48 12.96" fill="none" stroke="black" stroke-width="5"></path><path d="M 27.72 2.64 C 27.72 2.91, 27.72 2.6550000000000002, 27.72 3.18 C 27.72 3.96, 27.72 3.7350000000000003, 27.72 4.74 C 27.72 5.97, 27.705 6.209999999999999, 27.72 7.199999999999999 C 27.75 7.949999999999999, 27.75 7.664999999999999, 27.78 8.7 C 27.81 10.02, 27.794999999999995 10.035, 27.839999999999996 11.34 C 27.9 12.629999999999999, 27.93 12.584999999999997, 27.96 13.919999999999998 C 27.96 15.299999999999999, 27.96 15.405, 27.96 16.68 C 27.96 17.85, 27.96 17.82, 27.96 19.02 C 27.96 20.25, 27.975 20.205000000000002, 27.96 21.48 C 27.93 22.799999999999997, 27.96 22.904999999999998, 27.900000000000002 24.119999999999997 C 27.810000000000002 25.229999999999997, 27.765 25.469999999999995, 27.72 26.339999999999996 C 27.72 26.97, 27.72 26.834999999999997, 27.72 27.599999999999998 C 27.72 28.5, 27.72 28.71, 27.72 29.400000000000002 C 27.72 29.880000000000003, 27.72 29.925, 27.72 30.36 C 27.72 30.75, 27.72 30.705000000000002, 27.72 31.14 C 27.72 31.619999999999997, 27.72 31.829999999999995, 27.72 32.099999999999994 C 27.72 32.16, 27.72 32.19, 27.72 32.22 L 27.72 32.22" fill="none" stroke="black" stroke-width="5"></path><path d="M 22.14 22.32 C 22.35 22.83, 22.455 22.455, 22.56 23.34 C 22.56 24.6, 22.5 24.105, 22.56 25.86 C 22.68 28.11, 22.74 28.56, 22.799999999999997 30.36 C 22.799999999999997 31.71, 22.799999999999997 31.665000000000003, 22.799999999999997 33.06 C 22.799999999999997 34.5, 22.799999999999997 34.545, 22.799999999999997 35.94 C 22.799999999999997 37.29, 22.799999999999997 37.47, 22.799999999999997 38.64 C 22.799999999999997 39.629999999999995, 22.814999999999998 39.69, 22.799999999999997 40.62 C 22.77 41.489999999999995, 22.755000000000003 41.655, 22.740000000000002 42.36 C 22.740000000000002 42.9, 22.755000000000003 42.974999999999994, 22.740000000000002 43.44 C 22.71 43.83, 22.695 44.025, 22.68 44.22 L 22.68 44.22" fill="none" stroke="black" stroke-width="5"></path><path d="M 33.599999999999994 21.54 C 33.69 22.95, 33.81 22.215, 33.78 24.36 C 33.63 27.24, 33.63 27.705, 33.480000000000004 30.119999999999997 C 33.33 32.06999999999999, 33.33 31.949999999999996, 33.18 34.019999999999996 C 33.03 36.21, 33 36.855000000000004, 32.88 38.400000000000006 C 32.790000000000006 39.300000000000004, 32.790000000000006 39.075, 32.7 40.2 C 32.61 41.550000000000004, 32.61 41.790000000000006, 32.519999999999996 42.900000000000006 C 32.42999999999999 43.77, 32.385 44.085, 32.339999999999996 44.64 C 32.339999999999996 44.879999999999995, 32.339999999999996 45, 32.339999999999996 45.12 C 32.339999999999996 45.12, 32.339999999999996 45.12, 32.339999999999996 45.12 L 32.339999999999996 45.12" fill="none" stroke="black" stroke-width="5"></path></svg>