<svg xmlns="http://www.w3.org/2000/svg" viewBox="14.806666374206543 3.739999771118164 21.173333168029785 42.079999923706055" width="21.173333168029785" height="42.079999923706055"><path d="M 26.46 13.02 C 26.64 13.02, 26.46 13.02, 26.82 13.02 C 27.36 13.02, 27.360000000000003 13.02, 27.900000000000002 13.02 C 28.44 13.02, 28.47 13.02, 28.98 13.02 C 29.46 13.02, 29.400000000000002 13.02, 29.94 13.02 C 30.54 13.02, 30.57 13.02, 31.14 13.02 C 31.68 13.02, 31.755 13.02, 32.22 13.02 C 32.61 13.02, 32.7 13.02, 33 13.02 C 33.21 13.02, 33.225 13.02, 33.42 13.02 C 33.6 13.02, 33.69 13.02, 33.78 13.02 C 33.78 13.02, 33.78 13.02, 33.78 13.02 L 33.78 13.02" fill="none" stroke="black" stroke-width="5"></path><path d="M 34.980000000000004 4.74 C 34.86 5.01, 34.830000000000005 4.875, 34.74 5.28 C 34.68 5.82, 34.695 5.745, 34.62 6.36 C 34.53 7.050000000000001, 34.62 6.825, 34.44 7.74 C 34.17 8.879999999999999, 34.095000000000006 8.969999999999999, 33.900000000000006 10.02 C 33.78 10.98, 33.765 11.114999999999998, 33.660000000000004 11.94 C 33.57000000000001 12.629999999999999, 33.55500000000001 12.6, 33.480000000000004 13.32 C 33.42 14.07, 33.39 13.754999999999999, 33.36 14.82 C 33.36 16.200000000000003, 33.36 16.35, 33.36 17.580000000000002 C 33.36 18.660000000000004, 33.36 18.840000000000003, 33.36 19.740000000000002 C 33.36 20.46, 33.36 20.325, 33.36 21.18 C 33.36 22.17, 33.36 22.29, 33.36 23.16 C 33.36 23.910000000000004, 33.36 24.090000000000003, 33.36 24.660000000000004 C 33.36 25.050000000000004, 33.36 25.17, 33.36 25.44 C 33.36 25.590000000000003, 33.36 25.575000000000003, 33.36 25.740000000000002 C 33.36 25.92, 33.36 25.979999999999997, 33.36 26.099999999999998 C 33.36 26.159999999999997, 33.36 26.115, 33.36 26.22 C 33.36 26.369999999999997, 33.36 26.445, 33.36 26.52 C 33.36 26.52, 33.375 26.505, 33.36 26.52 L 33.3 26.58" fill="none" stroke="black" stroke-width="5"></path><path d="M 33.660000000000004 19.5 C 33.33 19.29, 33.480000000000004 19.230000000000004, 33 19.080000000000002 C 32.370000000000005 18.990000000000002, 32.565 18.99, 31.740000000000002 18.9 C 30.720000000000002 18.81, 30.615000000000002 18.765, 29.700000000000003 18.72 C 28.89 18.72, 28.875 18.72, 28.08 18.72 C 27.299999999999997 18.72, 27.6 18.659999999999997, 26.52 18.72 C 25.14 18.84, 25.049999999999997 18.810000000000002, 23.759999999999998 18.96 C 22.56 19.14, 22.439999999999998 19.14, 21.36 19.32 C 20.4 19.5, 20.115000000000002 19.575, 19.44 19.68 C 19.05 19.71, 19.245 19.410000000000004, 18.66 19.740000000000002 C 17.880000000000003 20.37, 17.745 20.325, 17.1 21 C 16.590000000000003 21.72, 16.395000000000003 21.630000000000003, 16.080000000000002 22.44 C 15.96 23.340000000000003, 15.9 23.325000000000003, 15.84 24.240000000000002 C 15.84 25.17, 15.765 25.335, 15.84 26.099999999999998 C 15.99 26.699999999999996, 15.99 26.789999999999996, 16.14 27.299999999999997 C 16.29 27.72, 16.275000000000002 27.765, 16.44 28.14 C 16.619999999999997 28.47, 16.68 28.529999999999998, 16.799999999999997 28.799999999999997 C 16.86 29.009999999999998, 16.845 29.009999999999998, 16.919999999999998 29.22 C 17.009999999999998 29.43, 17.055 29.535, 17.1 29.64 C 17.1 29.64, 17.1 29.64, 17.1 29.64 L 17.1 29.64" fill="none" stroke="black" stroke-width="5"></path><path d="M 25.08 18.54 C 25.259999999999998 18.78, 25.35 18.645, 25.44 19.02 C 25.44 19.53, 25.5 18.84, 25.44 20.04 C 25.32 21.93, 25.350000000000005 21.990000000000002, 25.200000000000003 23.82 C 25.02 25.59, 24.974999999999994 25.77, 24.839999999999996 27.36 C 24.75 28.77, 24.705000000000002 28.995, 24.660000000000004 30.18 C 24.660000000000004 31.139999999999997, 24.660000000000004 30.599999999999994, 24.660000000000004 32.099999999999994 C 24.660000000000004 34.14, 24.660000000000004 34.44, 24.660000000000004 36.18 C 24.660000000000004 37.620000000000005, 24.660000000000004 37.68, 24.660000000000004 39.06 C 24.660000000000004 40.38, 24.660000000000004 40.725, 24.660000000000004 41.7 C 24.660000000000004 42.33, 24.660000000000004 42.57, 24.660000000000004 42.96 C 24.660000000000004 43.11, 24.660000000000004 43.08, 24.660000000000004 43.26 C 24.660000000000004 43.47, 24.660000000000004 43.455, 24.660000000000004 43.68 C 24.660000000000004 43.92, 24.660000000000004 43.965, 24.660000000000004 44.160000000000004 C 24.660000000000004 44.31, 24.660000000000004 44.385000000000005, 24.660000000000004 44.46 C 24.660000000000004 44.46, 24.660000000000004 44.46, 24.660000000000004 44.46 C 24.660000000000004 44.46, 24.660000000000004 44.46, 24.660000000000004 44.46 C 24.660000000000004 44.46, 24.660000000000004 44.46, 24.660000000000004 44.46 C 24.660000000000004 44.46, 24.660000000000004 44.445, 24.660000000000004 44.46 L 24.660000000000004 44.519999999999996" fill="none" stroke="black" stroke-width="5"></path><path d="M 29.400000000000002 19.5 C 29.22 20.34, 29.235 19.68, 29.04 21.18 C 28.83 23.34, 28.769999999999996 23.25, 28.619999999999997 25.5 C 28.53 27.84, 28.485 27.915, 28.44 30.18 C 28.44 32.370000000000005, 28.5 32.775000000000006, 28.44 34.56 C 28.32 35.94, 28.26 35.835, 28.200000000000003 37.32 C 28.200000000000003 38.91, 28.200000000000003 39.345, 28.200000000000003 40.5 C 28.200000000000003 41.22, 28.200000000000003 41.4, 28.200000000000003 41.94 C 28.200000000000003 42.3, 28.200000000000003 42.330000000000005, 28.200000000000003 42.660000000000004 C 28.200000000000003 42.96, 28.200000000000003 42.945, 28.200000000000003 43.26 C 28.200000000000003 43.59, 28.200000000000003 43.650000000000006, 28.200000000000003 43.92 C 28.200000000000003 44.129999999999995, 28.185000000000002 44.114999999999995, 28.200000000000003 44.339999999999996 C 28.23 44.58, 28.244999999999997 44.7, 28.259999999999998 44.82 L 28.259999999999998 44.82" fill="none" stroke="black" stroke-width="5"></path></svg>