<svg xmlns="http://www.w3.org/2000/svg" viewBox="13.199999809265137 2 18.27999973297119 45.13999938964844" width="18.27999973297119" height="45.13999938964844"><path d="M 15.66 3.3000000000000003 C 15.33 5.1, 15.254999999999999 5.13, 15 6.8999999999999995 C 14.82 8.639999999999999, 14.82 8.669999999999998, 14.64 10.379999999999999 C 14.46 12.059999999999999, 14.37 12.254999999999999, 14.28 13.74 C 14.28 15.030000000000001, 14.28 15.195, 14.28 16.32 C 14.28 17.28, 14.28 17.565, 14.28 18.240000000000002 C 14.28 18.630000000000003, 14.1 18.645, 14.28 19.02 C 14.64 19.380000000000003, 14.625 19.425, 15 19.740000000000002 C 15.39 20.01, 15.195 20.01, 15.78 20.28 C 16.56 20.55, 16.425 20.625, 17.34 20.82 C 18.39 20.939999999999998, 18.195 20.97, 19.44 21.06 C 20.880000000000003 21.119999999999997, 20.73 21.105, 22.32 21.18 C 24.06 21.27, 24.345 21.314999999999998, 25.799999999999997 21.36 C 26.97 21.36, 27.33 21.36, 28.14 21.36 C 28.59 21.36, 28.619999999999997 21.405, 29.04 21.36 C 29.43 21.27, 29.52 21.3, 29.82 21.18 C 30.03 21.03, 30.135 21.225, 30.240000000000002 20.88 C 30.240000000000002 20.339999999999996, 30.240000000000002 20.594999999999995, 30.240000000000002 19.799999999999997 C 30.240000000000002 18.75, 30.240000000000002 18.87, 30.240000000000002 17.700000000000003 C 30.240000000000002 16.410000000000004, 30.240000000000002 16.470000000000002, 30.240000000000002 15.120000000000001 C 30.240000000000002 13.71, 30.240000000000002 13.635, 30.240000000000002 12.299999999999999 C 30.240000000000002 11.04, 30.255000000000003 11.264999999999999, 30.240000000000002 9.78 C 30.21 8.07, 30.240000000000002 7.71, 30.18 6.36 C 30.09 5.37, 30.09 5.22, 30 4.38 C 29.91 3.69, 29.865000000000002 3.3449999999999998, 29.82 3 C 29.82 3, 29.82 3, 29.82 3 L 29.82 3" fill="none" stroke="black" stroke-width="5"></path><path d="M 23.580000000000002 9.18 C 24.060000000000002 9.3, 23.91 9.315, 24.54 9.42 C 25.32 9.510000000000002, 25.379999999999995 9.555000000000001, 26.099999999999998 9.600000000000001 C 26.759999999999998 9.600000000000001, 26.745 9.600000000000001, 27.42 9.600000000000001 C 28.11 9.600000000000001, 28.214999999999996 9.600000000000001, 28.799999999999997 9.600000000000001 C 29.279999999999998 9.600000000000001, 29.339999999999996 9.600000000000001, 29.759999999999998 9.600000000000001 C 30.119999999999997 9.600000000000001, 30.3 9.600000000000001, 30.48 9.600000000000001 L 30.48 9.600000000000001" fill="none" stroke="black" stroke-width="5"></path><path d="M 21.240000000000002 20.700000000000003 C 21.240000000000002 21.03, 21.240000000000002 20.865000000000002, 21.240000000000002 21.36 C 21.240000000000002 22.02, 21.255000000000003 21.84, 21.240000000000002 22.68 C 21.21 23.7, 21.240000000000002 23.924999999999997, 21.18 24.72 C 21.09 25.29, 21.119999999999997 25.215, 21 25.86 C 20.85 26.58, 20.970000000000002 26.504999999999995, 20.700000000000003 27.299999999999997 C 20.310000000000002 28.169999999999998, 20.49 28.125, 19.919999999999998 29.04 C 19.169999999999998 30, 19.139999999999997 30.135, 18.419999999999998 30.96 C 17.729999999999997 31.65, 17.729999999999997 31.739999999999995, 17.04 32.339999999999996 C 16.35 32.849999999999994, 16.14 33.015, 15.66 33.36 C 15.39 33.54, 15.375 33.54, 15.120000000000001 33.72 L 14.64 34.08" fill="none" stroke="black" stroke-width="5"></path><path d="M 27.96 29.28 C 27.63 30.75, 27.644999999999996 30.869999999999997, 27.299999999999997 32.22 C 26.939999999999998 33.45, 27 33.525, 26.58 34.68 C 26.099999999999998 35.76, 26.235 35.58, 25.619999999999997 36.839999999999996 C 24.869999999999997 38.28, 24.944999999999997 38.4, 24.119999999999997 39.72 C 23.22 40.92, 23.295 41.01, 22.32 42.12 C 21.27 43.14, 21.09 43.425000000000004, 20.22 44.160000000000004 C 19.53 44.61, 19.619999999999997 44.625, 18.84 45.06 C 17.97 45.480000000000004, 17.610000000000003 45.64500000000001, 17.1 45.900000000000006 C 16.95 45.99, 16.994999999999997 46.019999999999996, 16.799999999999997 46.08 L 16.32 46.14" fill="none" stroke="black" stroke-width="5"></path></svg>