<svg xmlns="http://www.w3.org/2000/svg" viewBox="9.220000267028809 2.7200000286102295 19.199999809265137 43.039998292922974" width="19.199999809265137" height="43.039998292922974"><path d="M 12.24 3.7199999999999998 C 12.24 4.529999999999999, 12.33 4.17, 12.24 5.34 C 12.059999999999999 6.869999999999999, 11.969999999999999 7.019999999999999, 11.879999999999999 8.399999999999999 C 11.879999999999999 9.629999999999999, 11.985 9.524999999999999, 11.879999999999999 10.86 C 11.669999999999998 12.3, 11.594999999999999 12.555, 11.459999999999999 13.74 C 11.399999999999999 14.670000000000002, 11.459999999999999 14.490000000000002, 11.34 15.600000000000001 C 11.16 16.89, 11.13 17.025, 10.98 18.18 C 10.86 19.2, 10.875 19.14, 10.74 20.22 C 10.59 21.36, 10.559999999999999 21.555, 10.44 22.5 C 10.35 23.25, 10.305 23.28, 10.26 24 C 10.26 24.69, 10.26 24.765, 10.26 25.380000000000003 C 10.26 25.92, 10.17 26.07, 10.26 26.46 C 10.440000000000001 26.700000000000003, 10.365000000000002 26.700000000000003, 10.620000000000001 26.94 C 10.95 27.18, 10.95 27.21, 11.28 27.42 C 11.61 27.6, 11.37 27.585, 11.94 27.78 C 12.75 27.990000000000002, 12.674999999999999 28.095000000000002, 13.559999999999999 28.200000000000003 C 14.52 28.200000000000003, 14.370000000000001 28.200000000000003, 15.48 28.200000000000003 C 16.740000000000002 28.200000000000003, 16.83 28.215000000000003, 18 28.200000000000003 C 19.08 28.17, 19.125 28.155, 20.16 28.14 C 21.15 28.14, 21.195 28.215000000000003, 22.14 28.14 C 23.04 27.99, 23.265 27.959999999999994, 23.94 27.839999999999996 C 24.39 27.75, 24.494999999999997 27.750000000000004, 24.839999999999996 27.660000000000004 C 25.08 27.57, 25.08 27.585, 25.32 27.48 C 25.56 27.36, 25.604999999999997 27.405, 25.799999999999997 27.240000000000002 C 25.949999999999996 27.03, 26.025 27.105, 26.099999999999998 26.82 C 26.099999999999998 26.46, 26.099999999999998 26.519999999999996, 26.099999999999998 26.099999999999998 C 26.099999999999998 25.619999999999997, 26.099999999999998 25.605, 26.099999999999998 25.14 C 26.099999999999998 24.69, 26.099999999999998 24.765, 26.099999999999998 24.240000000000002 C 26.099999999999998 23.64, 26.159999999999997 23.91, 26.099999999999998 23.04 C 25.979999999999997 21.9, 26.009999999999998 21.615, 25.86 20.759999999999998 C 25.68 20.189999999999998, 25.59 19.95, 25.5 19.62 C 25.5 19.53, 25.53 19.605, 25.5 19.44 C 25.44 19.200000000000003, 25.410000000000004 19.080000000000002, 25.380000000000003 18.96 C 25.380000000000003 18.96, 25.380000000000003 18.96, 25.380000000000003 18.96 L 25.380000000000003 18.96" fill="none" stroke="black" stroke-width="5"></path><path d="M 20.52 22.919999999999998 C 20.7 22.919999999999998, 20.61 22.919999999999998, 20.88 22.919999999999998 C 21.240000000000002 22.919999999999998, 21.225 22.919999999999998, 21.6 22.919999999999998 C 21.990000000000002 22.919999999999998, 21.869999999999997 22.964999999999996, 22.38 22.919999999999998 C 23.009999999999998 22.83, 23.175 22.785, 23.64 22.740000000000002 C 23.94 22.740000000000002, 24.015 22.740000000000002, 24.240000000000002 22.740000000000002 C 24.39 22.740000000000002, 24.345 22.740000000000002, 24.54 22.740000000000002 C 24.78 22.740000000000002, 24.78 22.740000000000002, 25.02 22.740000000000002 C 25.259999999999998 22.740000000000002, 25.35 22.740000000000002, 25.5 22.740000000000002 C 25.56 22.740000000000002, 25.589999999999996 22.740000000000002, 25.619999999999997 22.740000000000002 L 25.619999999999997 22.740000000000002" fill="none" stroke="black" stroke-width="5"></path><path d="M 22.799999999999997 28.200000000000003 C 23.009999999999998 28.44, 22.814999999999998 28.185000000000002, 23.22 28.68 C 23.82 29.43, 23.955000000000002 29.475, 24.42 30.18 C 24.75 30.84, 24.78 30.825, 25.08 31.5 C 25.349999999999998 32.19, 25.334999999999997 32.010000000000005, 25.619999999999997 32.88 C 25.919999999999998 33.93000000000001, 25.949999999999996 33.93000000000001, 26.22 34.980000000000004 C 26.46 36.03, 26.505000000000003 35.879999999999995, 26.700000000000003 37.08 C 26.85 38.43, 26.925 38.400000000000006, 27 39.78 C 27 41.19, 27 41.684999999999995, 27 42.599999999999994 C 27 43.019999999999996, 27.09 43.08, 27 43.44 C 26.82 43.739999999999995, 27.045 43.8, 26.64 44.04 C 26.01 44.22, 26.355000000000004 44.220000000000006, 25.380000000000003 44.400000000000006 C 24.060000000000002 44.58, 24.015 44.685, 22.740000000000002 44.76 C 21.51 44.730000000000004, 21.135 44.79, 20.28 44.7 C 19.8 44.550000000000004, 19.845 44.82000000000001, 19.32 44.400000000000006 C 18.75 43.71, 18.495 43.8, 18.18 43.019999999999996 C 18.119999999999997 42.15, 17.909999999999997 42.42, 18.06 41.28 C 18.42 39.870000000000005, 18.255000000000003 39.57, 18.78 38.46 C 19.47 37.65, 19.575 37.44, 20.16 36.839999999999996 C 20.64 36.45, 20.535 36.24, 21.12 36.06 C 21.810000000000002 36.09, 21.66 36.03, 22.5 36.12 C 23.490000000000002 36.269999999999996, 23.700000000000003 36.300000000000004, 24.48 36.42 C 25.049999999999997 36.51, 25.095 36.449999999999996, 25.619999999999997 36.599999999999994 C 26.099999999999998 36.809999999999995, 26.174999999999997 36.809999999999995, 26.58 37.019999999999996 C 26.91 37.23, 27.03 37.31999999999999, 27.240000000000002 37.44 C 27.330000000000002 37.47, 27.375 37.485, 27.42 37.5 C 27.42 37.5, 27.42 37.5, 27.42 37.5 L 27.42 37.5" fill="none" stroke="black" stroke-width="5"></path></svg>