<svg xmlns="http://www.w3.org/2000/svg" viewBox="13.039999961853027 3.6051621437072754 18.679999351501465 40.834835052490234" width="18.679999351501465" height="40.834835052490234"><path d="M 23.04 12 C 23.64 11.94, 23.625 11.954999999999998, 24.240000000000002 11.879999999999999 C 24.87 11.79, 24.915 11.745, 25.5 11.7 C 26.04 11.7, 26.04 11.7, 26.58 11.7 C 27.12 11.7, 27.090000000000003 11.7, 27.660000000000004 11.7 C 28.26 11.7, 28.32 11.7, 28.86 11.7 C 29.34 11.7, 29.43 11.7, 29.82 11.7 C 30.12 11.7, 30.270000000000003 11.7, 30.42 11.7 C 30.42 11.7, 30.42 11.7, 30.42 11.7 L 30.42 11.7" fill="none" stroke="black" stroke-width="5"></path><path d="M 30.660000000000004 4.62 C 30.51 4.8, 30.555 4.289999999999999, 30.36 4.9799999999999995 C 30.12 6.18, 30.060000000000002 5.97, 29.880000000000003 7.38 C 29.76 9, 29.700000000000003 9.405000000000001, 29.64 10.620000000000001 C 29.64 11.43, 29.64 11.265, 29.64 12.24 C 29.64 13.379999999999999, 29.64 13.215, 29.64 14.52 C 29.64 15.99, 29.64 16.185000000000002, 29.64 17.46 C 29.64 18.54, 29.64 18.720000000000002, 29.64 19.62 C 29.64 20.34, 29.64 19.814999999999998, 29.64 21.06 C 29.64 22.83, 29.64 22.994999999999997, 29.64 24.599999999999998 C 29.64 26.04, 29.64 26.145, 29.64 27.48 C 29.64 28.71, 29.64 28.98, 29.64 29.94 C 29.64 30.630000000000003, 29.64 30.345000000000002, 29.64 31.32 C 29.64 32.58, 29.55 32.669999999999995, 29.64 33.839999999999996 C 29.82 34.92, 29.91 35.055, 30 36 C 30 36.81, 29.955 36.824999999999996, 30 37.62 C 30.09 38.4, 30.134999999999998 38.489999999999995, 30.18 39.18 C 30.18 39.78, 30.134999999999998 39.84, 30.18 40.38 C 30.27 40.86, 30.285 40.905, 30.36 41.339999999999996 C 30.42 41.73, 30.45 41.805, 30.48 42.12 C 30.48 42.36, 30.435 42.35999999999999, 30.48 42.599999999999994 C 30.57 42.839999999999996, 30.615000000000002 42.885, 30.660000000000004 43.08 C 30.660000000000004 43.230000000000004, 30.660000000000004 43.305, 30.660000000000004 43.38 C 30.660000000000004 43.38, 30.645000000000003 43.365, 30.660000000000004 43.38 L 30.72 43.44" fill="none" stroke="black" stroke-width="5"></path><path d="M 29.160000000000004 19.38 C 28.680000000000003 19.47, 28.890000000000004 19.439999999999998, 28.200000000000003 19.56 C 27.300000000000004 19.71, 27.195000000000004 19.77, 26.400000000000002 19.86 C 25.71 19.89, 25.8 19.814999999999998, 25.02 19.919999999999998 C 24.15 20.1, 24.105 20.16, 23.28 20.28 C 22.5 20.34, 22.814999999999998 20.34, 21.72 20.4 C 20.31 20.46, 19.964999999999996 20.474999999999998, 18.9 20.52 C 18.18 20.55, 18.315 20.520000000000003, 17.46 20.580000000000002 C 16.47 20.67, 16.335 20.715, 15.48 20.759999999999998 C 14.76 20.759999999999998, 14.399999999999999 20.759999999999998, 14.04 20.759999999999998 C 14.04 20.759999999999998, 14.04 20.759999999999998, 14.04 20.759999999999998 C 14.04 20.759999999999998, 14.04 20.759999999999998, 14.04 20.759999999999998 L 14.04 20.759999999999998" fill="none" stroke="black" stroke-width="5"></path><path d="M 20.700000000000003 28.5 C 20.1 28.5, 20.07 28.245, 19.5 28.5 C 18.96 29.009999999999998, 18.825 28.979999999999997, 18.419999999999998 29.52 C 18.15 30.090000000000003, 18.075 30.045, 17.88 30.660000000000004 C 17.759999999999998 31.32, 17.7 31.155, 17.64 31.98 C 17.64 32.97, 17.64 32.94, 17.64 33.96 C 17.64 35.010000000000005, 17.475 35.235, 17.64 36.06 C 17.97 36.66, 17.759999999999998 36.705, 18.299999999999997 37.26 C 19.049999999999997 37.769999999999996, 18.929999999999996 37.83, 19.799999999999997 38.28 C 20.79 38.67, 20.985 38.865, 21.78 39.06 C 22.380000000000003 39.06, 22.560000000000002 39.075, 22.98 39.06 C 23.22 39.03, 23.175 39.135000000000005, 23.46 39 C 23.79 38.76, 23.79 38.97, 24.119999999999997 38.519999999999996 C 24.45 37.86, 24.6 37.86, 24.78 37.2 C 24.81 36.540000000000006, 24.824999999999996 36.36, 24.839999999999996 35.88 C 24.839999999999996 35.58, 24.839999999999996 35.94, 24.839999999999996 35.28 C 24.839999999999996 34.260000000000005, 24.959999999999994 34.035000000000004, 24.839999999999996 33.24 C 24.599999999999998 32.67, 24.54 32.535, 24.36 32.099999999999994 C 24.24 31.799999999999997, 24.374999999999996 31.95, 24.119999999999997 31.5 C 23.729999999999997 30.9, 23.655 30.764999999999997, 23.34 30.299999999999997 C 23.1 29.97, 23.16 29.97, 22.86 29.64 C 22.5 29.310000000000002, 22.44 29.205, 22.14 28.98 C 21.9 28.86, 21.855 28.875, 21.66 28.740000000000002 C 21.509999999999998 28.590000000000003, 21.525 28.53, 21.36 28.44 C 21.18 28.410000000000004, 21.09 28.395000000000003, 21 28.380000000000003 C 21 28.380000000000003, 21.075 28.380000000000003, 21 28.380000000000003 L 20.700000000000003 28.380000000000003" fill="none" stroke="black" stroke-width="5"></path></svg>