<svg xmlns="http://www.w3.org/2000/svg" viewBox="12.319999694824219 0.3200000524520874 15.613332748413086 47.119998931884766" width="15.613332748413086" height="47.119998931884766"><path d="M 13.32 21.54 C 14.73 21.509999999999998, 13.905000000000001 21.705, 16.14 21.48 C 19.2 21.060000000000002, 20.04 20.955000000000002, 22.259999999999998 20.64 C 23.64 20.43, 23.985 20.369999999999997, 25.02 20.22 C 25.71 20.13, 26.055 20.085, 26.400000000000002 20.04 L 26.400000000000002 20.04" fill="none" stroke="black" stroke-width="5"></path><path d="M 26.64 1.32 C 26.64 2.19, 26.58 1.5450000000000002, 26.64 3.06 C 26.76 5.220000000000001, 26.82 5.16, 26.880000000000003 7.38 C 26.880000000000003 9.66, 27.000000000000004 9.509999999999998, 26.880000000000003 11.94 C 26.64 14.52, 26.64 15.15, 26.400000000000002 17.1 C 26.160000000000004 18.42, 26.235000000000003 17.85, 25.92 19.740000000000002 C 25.53 22.200000000000003, 25.485 22.515000000000004, 25.14 24.660000000000004 C 24.84 26.490000000000002, 24.795 26.025000000000002, 24.54 28.32 C 24.33 31.08, 24.389999999999997 31.364999999999995, 24.119999999999997 33.839999999999996 C 23.79 36.03, 23.67 36.39, 23.46 38.22 C 23.37 39.69, 23.37 39.540000000000006, 23.28 41.160000000000004 C 23.19 42.93000000000001, 23.19 43.455000000000005, 23.1 44.7 C 23.009999999999998 45.42, 22.965 45.705, 22.919999999999998 46.14 C 22.919999999999998 46.29, 22.919999999999998 46.364999999999995, 22.919999999999998 46.44 L 22.919999999999998 46.44" fill="none" stroke="black" stroke-width="5"></path></svg>