<svg xmlns="http://www.w3.org/2000/svg" viewBox="11.460000038146973 4.880000114440918 16.539999961853027 42.2599983215332" width="16.539999961853027" height="42.2599983215332"><path d="M 14.580000000000002 46.14 C 14.340000000000002 44.129999999999995, 14.340000000000002 44.025, 14.100000000000001 42.12 C 13.860000000000001 40.31999999999999, 13.785 40.035, 13.620000000000001 38.519999999999996 C 13.530000000000001 37.29, 13.635000000000002 37.395, 13.440000000000001 36.06 C 13.14 34.620000000000005, 13.035 34.425, 12.84 33.18 C 12.75 32.129999999999995, 12.75 32.175, 12.66 31.08 C 12.57 29.939999999999998, 12.525 29.834999999999997, 12.48 28.799999999999997 C 12.48 27.869999999999997, 12.48 28.005000000000003, 12.48 26.94 C 12.48 25.740000000000002, 12.48 25.485, 12.48 24.54 C 12.48 23.85, 12.48 23.775, 12.48 23.16 C 12.48 22.62, 12.435 22.560000000000002, 12.48 22.080000000000002 C 12.57 21.660000000000004, 12.555 21.585, 12.66 21.240000000000002 C 12.78 20.970000000000002, 12.794999999999998 20.910000000000004, 12.899999999999999 20.700000000000003 C 12.99 20.55, 13.020000000000001 20.49, 13.080000000000002 20.4 C 13.110000000000001 20.369999999999997, 13.020000000000001 20.369999999999997, 13.14 20.34 C 13.35 20.310000000000002, 13.334999999999999 20.28, 13.559999999999999 20.28 C 13.799999999999999 20.310000000000002, 13.874999999999998 20.295, 14.04 20.34 C 14.129999999999999 20.4, 14.100000000000001 20.415, 14.22 20.46 C 14.370000000000001 20.490000000000002, 14.355 20.46, 14.52 20.52 C 14.7 20.61, 14.729999999999999 20.595000000000002, 14.879999999999999 20.700000000000003 C 15 20.82, 14.91 20.67, 15.120000000000001 20.94 C 15.420000000000002 21.36, 15.45 21.36, 15.72 21.78 C 15.96 22.200000000000003, 15.930000000000003 22.095000000000002, 16.200000000000003 22.62 C 16.5 23.25, 16.514999999999997 23.115, 16.799999999999997 23.88 C 17.07 24.78, 17.16 24.9, 17.34 25.68 C 17.43 26.34, 17.43 26.384999999999998, 17.52 27 C 17.61 27.57, 17.655 27.855, 17.700000000000003 28.14 C 17.700000000000003 28.14, 17.700000000000003 28.14, 17.700000000000003 28.14 C 17.700000000000003 28.14, 17.700000000000003 28.14, 17.700000000000003 28.14 C 17.700000000000003 28.14, 17.700000000000003 28.245, 17.700000000000003 28.14 C 17.700000000000003 27.93, 17.655000000000005 28.214999999999996, 17.700000000000003 27.72 C 17.79 26.94, 17.79 26.835000000000004, 17.88 26.160000000000004 C 17.97 25.590000000000003, 17.939999999999998 25.65, 18.06 25.02 C 18.21 24.33, 18.165 24.315, 18.36 23.64 C 18.6 22.98, 18.675 22.77, 18.84 22.32 C 18.93 22.08, 18.884999999999998 22.05, 19.02 21.84 C 19.2 21.66, 19.215 21.645, 19.38 21.48 C 19.53 21.33, 19.439999999999998 21.36, 19.68 21.18 C 20.009999999999998 20.97, 19.98 20.909999999999997, 20.34 20.759999999999998 C 20.73 20.67, 20.745 20.625, 21.12 20.580000000000002 C 21.48 20.580000000000002, 21.42 20.580000000000002, 21.84 20.580000000000002 C 22.32 20.580000000000002, 22.199999999999996 20.580000000000002, 22.799999999999997 20.580000000000002 C 23.52 20.580000000000002, 23.565 20.685000000000002, 24.240000000000002 20.580000000000002 C 24.87 20.37, 25.095 20.325000000000003, 25.5 20.16 C 25.68 20.04, 25.59 20.279999999999998, 25.86 19.919999999999998 C 26.22 19.32, 26.4 19.275, 26.58 18.72 C 26.58 18.21, 26.58 18.39, 26.58 17.700000000000003 C 26.58 16.830000000000002, 26.58 16.815, 26.58 15.96 C 26.58 15.120000000000001, 26.624999999999996 15.135, 26.58 14.28 C 26.490000000000002 13.41, 26.580000000000002 13.694999999999999, 26.400000000000002 12.54 C 26.130000000000003 11.1, 26.145 11.055, 25.86 9.66 C 25.56 8.309999999999999, 25.485 7.904999999999999, 25.259999999999998 6.959999999999999 C 25.11 6.42, 25.035 6.1499999999999995, 24.96 5.88 C 24.96 5.88, 24.96 5.88, 24.96 5.88 L 24.96 5.88" fill="none" stroke="black" stroke-width="5"></path><path d="M 20.16 12.36 C 20.729999999999997 12.36, 20.595 12.375, 21.299999999999997 12.36 C 22.14 12.329999999999998, 21.96 12.389999999999999, 22.98 12.299999999999999 C 24.18 12.149999999999999, 24.42 12.15, 25.380000000000003 12 C 26.1 11.85, 26.415 11.79, 26.82 11.7 C 26.91 11.67, 26.955 11.655000000000001, 27 11.64 L 27 11.64" fill="none" stroke="black" stroke-width="5"></path><path d="M 21 31.799999999999997 C 20.55 32.28, 20.355 32.22, 20.1 32.76 C 20.04 33.36, 19.965 33.42, 19.98 33.96 C 20.07 34.44, 20.115000000000002 34.68, 20.16 34.92 C 20.16 34.92, 19.995 34.95, 20.16 34.92 C 20.490000000000002 34.86, 20.52 34.995, 20.82 34.8 C 21.09 34.47, 21.15 34.47, 21.36 34.14 C 21.509999999999998 33.81, 21.495 33.78, 21.66 33.480000000000004 C 21.84 33.21, 21.9 33.269999999999996, 22.02 32.94 C 22.08 32.55, 22.23 32.475, 22.14 32.160000000000004 C 21.9 31.92, 21.975 31.8, 21.66 31.68 C 21.27 31.68, 21.285 31.424999999999997, 20.88 31.68 C 20.46 32.19, 20.25 32.25, 20.04 32.7 C 20.04 33.09, 19.814999999999998 32.955000000000005, 20.04 33.480000000000004 C 20.490000000000002 34.14, 20.520000000000003 34.379999999999995, 20.94 34.8 C 21.33 34.980000000000004, 21.285 35.13, 21.72 35.160000000000004 C 22.2 35.040000000000006, 22.259999999999998 35.22, 22.68 34.92 C 23.04 34.44, 23.235 34.44, 23.4 33.96 C 23.369999999999997 33.480000000000004, 23.61 33.42, 23.34 33 C 22.83 32.64, 22.65 32.49, 22.32 32.28 C 22.17 32.22, 22.215 32.190000000000005, 22.02 32.160000000000004 C 21.78 32.160000000000004, 21.81 32.07000000000001, 21.54 32.160000000000004 C 21.240000000000002 32.34, 21.15 32.084999999999994, 20.94 32.519999999999996 C 20.82 33.21, 20.775000000000002 33.405, 20.700000000000003 33.900000000000006 C 20.67 34.2, 20.535 34.260000000000005, 20.64 34.5 C 20.880000000000003 34.68, 20.715000000000003 34.8, 21.12 34.86 C 21.689999999999998 34.8, 21.81 34.980000000000004, 22.259999999999998 34.74 C 22.589999999999996 34.32000000000001, 22.709999999999997 34.38000000000001, 22.919999999999998 33.900000000000006 C 23.009999999999998 33.36, 23.07 33.21, 23.1 32.82 C 23.07 32.58, 23.43 32.504999999999995, 23.04 32.339999999999996 C 22.29 32.25, 22.14 32.115, 21.54 32.160000000000004 C 21.09 32.34, 20.865000000000002 32.43, 20.64 32.519999999999996 L 20.64 32.519999999999996" fill="none" stroke="black" stroke-width="5"></path><path d="M 18.36 40.980000000000004 C 19.32 40.95, 19.200000000000003 41.13, 20.28 40.92 C 21.48 40.53, 21.615000000000002 40.425, 22.68 40.14 C 23.61 39.96, 23.849999999999998 39.9, 24.54 39.78 C 24.990000000000002 39.72, 25.095 39.720000000000006, 25.44 39.660000000000004 C 25.68 39.6, 25.8 39.57, 25.92 39.54 C 25.92 39.54, 25.875000000000004 39.54, 25.92 39.54 C 26.009999999999998 39.54, 26.009999999999998 39.57, 26.099999999999998 39.54 L 26.28 39.42" fill="none" stroke="black" stroke-width="5"></path></svg>