<svg xmlns="http://www.w3.org/2000/svg" viewBox="12.199999809265137 4.639999866485596 18.381439208984375 36.85239362716675" width="18.381439208984375" height="36.85239362716675"><path d="M 13.200000000000001 29.759999999999998 C 13.8 29.759999999999998, 13.77 29.759999999999998, 14.399999999999999 29.759999999999998 C 15.059999999999999 29.759999999999998, 15.075 29.759999999999998, 15.72 29.759999999999998 C 16.35 29.759999999999998, 16.395 29.759999999999998, 16.98 29.759999999999998 C 17.52 29.759999999999998, 17.64 29.775, 18.06 29.759999999999998 C 18.36 29.73, 18.18 29.910000000000004, 18.66 29.700000000000003 C 19.32 29.310000000000002, 19.365000000000002 29.550000000000004, 19.98 28.92 C 20.55 28.05, 20.625 28.185, 21.12 27.18 C 21.54 26.04, 21.735 25.71, 21.96 24.900000000000002 C 21.990000000000002 24.42, 21.945 24.42, 22.02 23.94 C 22.14 23.46, 22.2 23.22, 22.259999999999998 22.98 C 22.259999999999998 22.98, 22.154999999999998 22.875, 22.259999999999998 22.98 C 22.47 23.189999999999998, 22.545 22.994999999999997, 22.68 23.4 C 22.74 24, 22.499999999999996 23.775, 22.799999999999997 24.599999999999998 C 23.339999999999996 25.65, 23.325 25.980000000000004, 23.88 26.700000000000003 C 24.45 27.090000000000003, 24.405 27.165, 25.02 27.48 C 25.68 27.72, 25.83 27.84, 26.339999999999996 27.96 C 26.699999999999996 27.96, 26.714999999999996 28.05, 27.06 27.96 C 27.39 27.78, 27.389999999999997 28.019999999999996, 27.72 27.599999999999998 C 28.05 26.939999999999998, 28.050000000000004 27, 28.380000000000003 26.28 C 28.71 25.5, 28.785 25.395, 29.04 24.72 C 29.22 24.15, 29.265 24.315, 29.400000000000002 23.580000000000002 C 29.490000000000002 22.68, 29.595 22.935000000000002, 29.58 21.78 C 29.459999999999997 20.37, 29.58 20.445, 29.339999999999996 18.96 C 28.979999999999997 17.4, 29.054999999999996 17.565, 28.619999999999997 15.84 C 28.11 13.95, 28.08 13.589999999999998, 27.599999999999998 12.059999999999999 C 27.15 10.89, 27.165000000000003 10.755, 26.700000000000003 9.72 C 26.220000000000002 8.82, 26.160000000000004 8.685, 25.740000000000002 7.92 C 25.380000000000003 7.29, 25.335 7.1850000000000005, 25.02 6.66 C 24.75 6.24, 24.615000000000002 6.03, 24.48 5.82 C 24.48 5.82, 24.48 5.82, 24.48 5.82 C 24.48 5.82, 24.495 5.865, 24.48 5.82 L 24.42 5.64" fill="none" stroke="black" stroke-width="5"></path><path d="M 21.36 11.879999999999999 C 21.66 11.969999999999999, 21.615000000000002 12.014999999999999, 21.96 12.059999999999999 C 22.35 12.059999999999999, 22.32 12.059999999999999, 22.740000000000002 12.059999999999999 C 23.19 12.059999999999999, 23.085 12.059999999999999, 23.64 12.059999999999999 C 24.3 12.059999999999999, 24.435000000000002 12.059999999999999, 24.96 12.059999999999999 C 25.35 12.059999999999999, 25.425000000000004 12.059999999999999, 25.740000000000002 12.059999999999999 C 25.98 12.059999999999999, 25.95 12.059999999999999, 26.22 12.059999999999999 C 26.52 12.059999999999999, 26.55 12.059999999999999, 26.82 12.059999999999999 C 27.06 12.059999999999999, 27.18 12.059999999999999, 27.299999999999997 12.059999999999999 L 27.299999999999997 12.059999999999999" fill="none" stroke="black" stroke-width="5"></path><path d="M 21.6 36.660000000000004 C 21.33 36.81, 21.21 36.405, 21.06 36.96 C 21.03 37.92, 20.805 38.205, 21 38.88 C 21.42 39.27, 21.405 39.465, 21.84 39.660000000000004 C 22.29 39.660000000000004, 22.395000000000003 39.94500000000001, 22.740000000000002 39.660000000000004 C 22.98 39.09, 23.1 39.044999999999995, 23.22 38.519999999999996 C 23.22 38.04, 23.43 37.965, 23.22 37.56 C 22.799999999999997 37.230000000000004, 22.935 37.11000000000001, 22.38 36.900000000000006 C 21.689999999999998 36.81, 21.63 36.585, 21 36.72 C 20.43 37.08, 20.265 36.915, 19.86 37.44 C 19.619999999999997 38.129999999999995, 19.259999999999998 38.175, 19.38 38.82 C 19.86 39.42, 19.71 39.66, 20.34 40.019999999999996 C 21.119999999999997 40.14, 21.24 40.379999999999995, 21.9 40.26 C 22.439999999999998 39.9, 22.665 40.004999999999995, 22.98 39.54 C 23.07 38.97, 23.205000000000002 38.940000000000005, 23.16 38.400000000000006 C 22.979999999999997 37.89, 23.174999999999997 37.785000000000004, 22.799999999999997 37.38 C 22.229999999999997 37.08, 22.125 36.75, 21.66 36.78 C 21.3 37.14, 21.18 36.885, 20.94 37.5 C 20.82 38.370000000000005, 20.715000000000003 38.52, 20.700000000000003 39.24 C 20.79 39.81, 20.759999999999998 40.080000000000005, 20.88 40.38 C 21.03 40.41, 21.03 40.575, 21.18 40.44 C 21.33 40.14, 21.405 40.23, 21.48 39.839999999999996 C 21.48 39.36, 21.48 39.120000000000005, 21.48 38.88 C 21.48 38.88, 21.51 38.895, 21.48 38.88 C 21.42 38.85, 21.45 38.805, 21.36 38.82 L 21.12 38.94" fill="none" stroke="black" stroke-width="5"></path></svg>