<svg xmlns="http://www.w3.org/2000/svg" viewBox="9.84666633605957 4.940000057220459 19.953332901000977 39.62000131607056" width="19.953332901000977" height="39.62000131607056"><path d="M 12.120000000000001 30.42 C 11.76 29.61, 11.669999999999998 29.714999999999996, 11.399999999999999 28.799999999999997 C 11.219999999999999 27.779999999999998, 11.175 27.734999999999996, 11.040000000000001 26.759999999999998 C 10.95 25.83, 10.905 25.755000000000003, 10.86 24.900000000000002 C 10.86 24.12, 10.829999999999998 24.060000000000002, 10.86 23.34 C 10.92 22.68, 10.8 22.814999999999998, 10.98 22.02 C 11.280000000000001 21.09, 11.295 21, 11.58 20.16 C 11.850000000000001 19.41, 11.700000000000001 19.515, 12.120000000000001 18.66 C 12.690000000000001 17.700000000000003, 12.84 17.385, 13.26 16.740000000000002 C 13.53 16.410000000000004, 13.469999999999999 16.305000000000003, 13.799999999999999 16.080000000000002 C 14.190000000000001 15.96, 14.055000000000001 15.765, 14.580000000000002 15.84 C 15.24 16.11, 15.239999999999998 16.049999999999997, 15.899999999999999 16.38 C 16.56 16.77, 16.724999999999998 16.785, 17.22 17.16 C 17.549999999999997 17.52, 17.549999999999997 17.46, 17.88 17.88 C 18.21 18.36, 18.27 18.24, 18.54 18.84 C 18.75 19.560000000000002, 18.795 19.605, 18.96 20.28 C 19.080000000000002 20.91, 19.095000000000002 21, 19.200000000000003 21.54 C 19.29 21.990000000000002, 19.335 22.215, 19.38 22.44 C 19.38 22.44, 19.38 22.44, 19.38 22.44 C 19.38 22.44, 19.38 22.44, 19.38 22.44 C 19.38 22.44, 19.38 22.5, 19.38 22.44 C 19.38 22.32, 19.38 22.485000000000003, 19.38 22.200000000000003 C 19.38 21.75, 19.38 21.9, 19.38 21.299999999999997 C 19.38 20.549999999999997, 19.349999999999998 20.564999999999998, 19.38 19.799999999999997 C 19.439999999999998 19.02, 19.41 18.75, 19.5 18.240000000000002 C 19.62 18, 19.605000000000004 17.985, 19.740000000000002 17.759999999999998 C 19.89 17.549999999999997, 19.65 17.445, 20.04 17.34 C 20.669999999999998 17.34, 20.595 17.34, 21.299999999999997 17.34 C 22.08 17.34, 22.095 17.31, 22.86 17.34 C 23.61 17.4, 23.715 17.4, 24.36 17.46 C 24.9 17.520000000000003, 24.93 17.55, 25.44 17.580000000000002 C 25.92 17.580000000000002, 25.800000000000004 17.805000000000003, 26.400000000000002 17.580000000000002 C 27.119999999999997 17.130000000000003, 27.269999999999996 17.22, 27.839999999999996 16.68 C 28.259999999999998 16.049999999999997, 28.47 16.185, 28.68 15.419999999999998 C 28.68 14.52, 28.68 14.49, 28.68 13.620000000000001 C 28.68 12.780000000000001, 28.799999999999997 12.99, 28.68 11.94 C 28.44 10.68, 28.500000000000004 10.68, 28.200000000000003 9.42 C 27.840000000000003 8.16, 27.69 7.739999999999999, 27.48 6.8999999999999995 C 27.42 6.48, 27.419999999999998 6.300000000000001, 27.36 6.0600000000000005 C 27.3 6, 27.270000000000003 5.97, 27.240000000000002 5.9399999999999995 C 27.240000000000002 5.9399999999999995, 27.240000000000002 5.9399999999999995, 27.240000000000002 5.9399999999999995 L 27.240000000000002 5.9399999999999995" fill="none" stroke="black" stroke-width="5"></path><path d="M 20.759999999999998 11.399999999999999 C 21.509999999999998 11.399999999999999, 21.449999999999996 11.399999999999999, 22.259999999999998 11.399999999999999 C 23.13 11.399999999999999, 23.1 11.399999999999999, 24 11.399999999999999 C 24.93 11.399999999999999, 25.035 11.399999999999999, 25.86 11.399999999999999 C 26.58 11.399999999999999, 26.789999999999996 11.399999999999999, 27.299999999999997 11.399999999999999 C 27.6 11.399999999999999, 27.555 11.399999999999999, 27.900000000000002 11.399999999999999 C 28.29 11.399999999999999, 28.455000000000002 11.399999999999999, 28.68 11.399999999999999 C 28.74 11.399999999999999, 28.769999999999996 11.399999999999999, 28.799999999999997 11.399999999999999 L 28.799999999999997 11.399999999999999" fill="none" stroke="black" stroke-width="5"></path><path d="M 19.5 22.38 C 19.5 22.560000000000002, 19.455 22.455000000000002, 19.5 22.740000000000002 C 19.59 23.130000000000003, 19.634999999999998 23.055, 19.68 23.52 C 19.68 24.06, 19.68 24.089999999999996, 19.68 24.599999999999998 C 19.68 25.08, 19.68 25.064999999999998, 19.68 25.56 C 19.68 26.07, 19.665 26.084999999999997, 19.68 26.58 C 19.71 27.06, 19.695 27.06, 19.740000000000002 27.54 C 19.8 28.02, 19.83 27.96, 19.86 28.5 C 19.86 29.1, 19.86 29.250000000000004, 19.86 29.700000000000003 C 19.86 30, 19.86 29.834999999999997, 19.86 30.299999999999997 C 19.86 30.93, 19.89 31.019999999999996, 19.86 31.56 C 19.8 32.01, 19.830000000000002 31.875, 19.740000000000002 32.46 C 19.62 33.18000000000001, 19.65 33.22500000000001, 19.5 33.900000000000006 C 19.32 34.53, 19.305 34.605000000000004, 19.14 35.160000000000004 C 18.990000000000002 35.64, 18.96 35.7, 18.84 36.12 C 18.75 36.48, 18.78 36.419999999999995, 18.66 36.839999999999996 C 18.509999999999998 37.31999999999999, 18.57 37.30499999999999, 18.36 37.8 C 18.09 38.31, 18.240000000000002 38.235, 17.82 38.82 C 17.25 39.480000000000004, 17.325 39.42, 16.68 40.14 C 15.96 40.92, 15.675 41.22, 15.24 41.7 C 15.09 41.88, 15.180000000000001 41.82, 14.940000000000001 42.06 C 14.61 42.36, 14.655 42.39, 14.28 42.660000000000004 C 13.86 42.900000000000006, 13.785000000000002 42.93, 13.440000000000001 43.14 C 13.17 43.32, 13.065 43.394999999999996, 12.899999999999999 43.5 C 12.84 43.53, 12.809999999999999 43.545, 12.78 43.56 C 12.78 43.56, 12.78 43.56, 12.78 43.56 L 12.78 43.56" fill="none" stroke="black" stroke-width="5"></path></svg>