<svg xmlns="http://www.w3.org/2000/svg" viewBox="10.399999618530273 2.180000066757202 16.940000534057617 41.299999475479126" width="16.940000534057617" height="41.299999475479126"><path d="M 13.799999999999999 3.18 C 13.799999999999999 3.9299999999999997, 13.799999999999999 3.7199999999999998, 13.799999999999999 4.68 C 13.799999999999999 5.85, 13.724999999999998 5.955, 13.799999999999999 7.02 C 13.95 7.9799999999999995, 13.785000000000002 8.07, 14.100000000000001 8.94 C 14.58 9.719999999999999, 14.385 9.825, 15.059999999999999 10.5 C 15.929999999999998 11.07, 15.929999999999996 11.280000000000001, 16.799999999999997 11.64 C 17.669999999999998 11.79, 17.31 11.865, 18.54 11.94 C 20.13 11.94, 20.61 12.03, 21.72 11.94 C 22.35 11.76, 22.425 11.79, 22.98 11.58 C 23.46 11.34, 23.445 11.505000000000003, 23.94 11.100000000000001 C 24.450000000000003 10.530000000000001, 24.405 10.815, 24.96 9.959999999999999 C 25.560000000000002 8.82, 25.845000000000006 8.715, 26.160000000000004 7.68 C 26.19 6.75, 26.175 6.69, 26.22 5.82 C 26.279999999999998 5.01, 26.309999999999995 4.784999999999999, 26.339999999999996 4.199999999999999 C 26.339999999999996 3.8399999999999994, 26.339999999999996 3.6599999999999993, 26.339999999999996 3.4799999999999995 C 26.339999999999996 3.4799999999999995, 26.339999999999996 3.4799999999999995, 26.339999999999996 3.4799999999999995 L 26.339999999999996 3.4799999999999995" fill="none" stroke="black" stroke-width="5"></path><path d="M 19.5 16.38 C 19.5 16.92, 19.5 16.665, 19.5 17.46 C 19.5 18.509999999999998, 19.455 18.36, 19.5 19.56 C 19.59 20.909999999999997, 19.634999999999998 21.044999999999998, 19.68 22.259999999999998 C 19.68 23.34, 19.68 23.175, 19.68 24.42 C 19.68 25.830000000000002, 19.799999999999997 25.89, 19.68 27.240000000000002 C 19.44 28.53, 19.545 28.53, 19.200000000000003 29.82 C 18.75 31.110000000000003, 18.794999999999998 31.185000000000006, 18.299999999999997 32.400000000000006 C 17.759999999999998 33.540000000000006, 17.714999999999996 33.735, 17.22 34.68 C 16.77 35.43, 16.845 35.295, 16.32 36.18 C 15.72 37.2, 15.765 37.349999999999994, 15.120000000000001 38.22 C 14.43 38.94, 14.370000000000001 39.09, 13.74 39.660000000000004 C 13.170000000000002 40.08, 13.110000000000001 40.185, 12.600000000000001 40.5 C 12.15 40.71, 12 40.785000000000004, 11.7 40.92 C 11.549999999999999 40.980000000000004, 11.474999999999998 41.01, 11.399999999999999 41.04 L 11.399999999999999 41.04" fill="none" stroke="black" stroke-width="5"></path><path d="M 18.96 28.92 C 18.96 29.759999999999998, 18.96 29.519999999999996, 18.96 30.599999999999998 C 18.96 31.92, 18.885 31.830000000000002, 18.96 33.24 C 19.11 34.74, 18.974999999999998 34.935, 19.259999999999998 36.24 C 19.68 37.35, 19.590000000000003 37.455, 20.1 38.46 C 20.7 39.36, 20.79 39.629999999999995, 21.299999999999997 40.26 C 21.72 40.620000000000005, 21.585 40.620000000000005, 22.14 40.980000000000004 C 22.83 41.34, 22.83 41.400000000000006, 23.52 41.7 C 24.21 41.94, 24.285000000000004 42, 24.900000000000002 42.18 C 25.44 42.3, 25.635 42.345, 25.98 42.42 C 26.130000000000003 42.45, 26.205000000000002 42.465, 26.28 42.480000000000004 L 26.28 42.480000000000004" fill="none" stroke="black" stroke-width="5"></path></svg>