<svg xmlns="http://www.w3.org/2000/svg" viewBox="10.562708854675293 2 19.5972900390625 43.220001220703125" width="19.5972900390625" height="43.220001220703125"><path d="M 13.02 3 C 12.69 3.9899999999999998, 12.719999999999999 2.8649999999999998, 12.36 4.9799999999999995 C 11.969999999999999 8.219999999999999, 11.76 8.7, 11.58 11.459999999999999 C 11.61 13.739999999999998, 11.49 13.709999999999999, 11.64 16.02 C 11.91 18.36, 11.925 18.765000000000004, 12.18 20.700000000000003 C 12.42 22.23, 12.375 22.709999999999997, 12.66 23.759999999999998 C 12.99 24.33, 13.065000000000001 24.555, 13.32 24.900000000000002 C 13.5 25.020000000000003, 13.515 25.080000000000002, 13.68 25.14 C 13.83 25.14, 13.545000000000002 25.47, 13.98 25.14 C 14.7 24.48, 14.729999999999997 24.72, 15.419999999999998 23.82 C 16.08 22.68, 16.155 22.634999999999998, 16.740000000000002 21.54 C 17.25 20.490000000000002, 17.369999999999997 20.265, 17.759999999999998 19.44 C 18.029999999999998 18.840000000000003, 18.119999999999997 18.615000000000002, 18.299999999999997 18.240000000000002 C 18.39 18.090000000000003, 18.405 18.015, 18.48 17.94 C 18.54 17.94, 18.525000000000002 17.46, 18.6 17.94 C 18.69 18.9, 18.645000000000003 18.855, 18.78 19.86 C 18.96 20.91, 18.945 20.97, 19.14 21.96 C 19.35 22.89, 19.095 22.98, 19.56 23.82 C 20.28 24.57, 19.994999999999997 24.810000000000002, 21 25.32 C 22.29 25.59, 22.365000000000002 25.725, 23.580000000000002 25.86 C 24.72 25.86, 24.72 25.92, 25.86 25.86 C 27 25.74, 27.450000000000003 25.68, 28.14 25.619999999999997 C 28.38 25.619999999999997, 28.424999999999997 25.619999999999997, 28.619999999999997 25.619999999999997 C 28.77 25.619999999999997, 28.845 25.619999999999997, 28.92 25.619999999999997 C 28.92 25.619999999999997, 28.86 25.679999999999996, 28.92 25.619999999999997 L 29.160000000000004 25.380000000000003" fill="none" stroke="black" stroke-width="5"></path><path d="M 11.879999999999999 14.16 C 12.57 13.440000000000001, 11.91 14.265, 13.26 12.72 C 15.27 10.350000000000001, 15.600000000000001 9.825000000000001, 17.28 7.98 C 18.630000000000003 6.66, 19.17 6.135, 19.98 5.34 C 20.25 5.07, 20.22 4.905000000000001, 20.52 4.800000000000001 C 20.85 4.86, 20.58 4.29, 21.18 4.92 C 22.049999999999997 6.12, 21.959999999999997 5.94, 22.919999999999998 7.32 C 23.97 8.879999999999999, 24.09 9.225, 25.02 10.44 C 25.83 11.309999999999999, 26.235 11.745, 26.64 12.18 L 26.64 12.18" fill="none" stroke="black" stroke-width="5"></path><path d="M 20.34 24.72 C 20.43 25.23, 20.475 25.11, 20.52 25.740000000000002 C 20.52 26.490000000000002, 20.474999999999998 26.490000000000002, 20.52 27.240000000000002 C 20.61 27.990000000000002, 20.685000000000002 28.020000000000003, 20.700000000000003 28.740000000000002 C 20.64 29.43, 20.940000000000005 29.339999999999996, 20.580000000000002 30.119999999999997 C 19.92 30.99, 20.159999999999997 31.005, 19.259999999999998 31.86 C 18.119999999999997 32.7, 18.15 32.775, 16.98 33.54 C 15.780000000000001 34.230000000000004, 15.420000000000002 34.455, 14.580000000000002 34.92 C 14.100000000000001 35.160000000000004, 13.860000000000001 35.28, 13.620000000000001 35.400000000000006 L 13.620000000000001 35.400000000000006" fill="none" stroke="black" stroke-width="5"></path><path d="M 26.28 31.799999999999997 C 26.25 32.730000000000004, 26.535 32.49, 26.22 33.660000000000004 C 25.619999999999997 35.07000000000001, 25.65 35.08500000000001, 25.02 36.480000000000004 C 24.36 37.86, 24.51 37.875, 23.700000000000003 39.24 C 22.740000000000002 40.59, 22.875 40.86, 21.78 41.94 C 20.55 42.75, 20.52 43.02, 19.32 43.56 C 18.15 43.83, 17.655 43.934999999999995, 16.98 44.099999999999994 L 16.62 44.22" fill="none" stroke="black" stroke-width="5"></path></svg>