<svg xmlns="http://www.w3.org/2000/svg" viewBox="11.84000015258789 0.24000000953674316 20.239999771118164 44.01999831199646" width="20.239999771118164" height="44.01999831199646"><path d="M 14.34 25.08 C 14.25 24.36, 14.4 24.915, 14.16 23.64 C 13.77 21.810000000000002, 13.649999999999999 21.39, 13.379999999999999 19.98 C 13.23 18.990000000000002, 13.155000000000001 18.645, 13.080000000000002 18 C 13.080000000000002 17.7, 13.080000000000002 17.669999999999998, 13.080000000000002 17.4 C 13.080000000000002 17.159999999999997, 13.080000000000002 17.084999999999997, 13.080000000000002 16.919999999999998 C 13.080000000000002 16.83, 12.540000000000003 16.875, 13.080000000000002 16.740000000000002 C 14.16 16.560000000000002, 13.725000000000001 16.47, 15.24 16.38 C 17.19 16.38, 17.01 16.38, 19.14 16.38 C 21.45 16.38, 21.72 16.38, 23.759999999999998 16.38 C 25.529999999999998 16.38, 25.934999999999995 16.38, 27.299999999999997 16.38 C 28.259999999999998 16.38, 28.455 16.38, 29.22 16.38 C 29.79 16.38, 30 16.38, 30.36 16.38 C 30.51 16.38, 30.480000000000004 16.305, 30.660000000000004 16.38 C 30.87 16.53, 30.99 16.185, 31.08 16.68 C 31.049999999999997 17.52, 31.08 17.55, 31.02 18.36 C 30.93 19.14, 30.974999999999994 18.824999999999996, 30.839999999999996 19.919999999999998 C 30.659999999999997 21.33, 30.615000000000002 21.615000000000002, 30.48 22.740000000000002 C 30.39 23.580000000000002, 30.345 24, 30.299999999999997 24.42 L 30.299999999999997 24.42" fill="none" stroke="black" stroke-width="5"></path><path d="M 15.18 12.18 C 15.18 12.21, 15.15 12.225, 15.18 12.24 C 15.239999999999998 12.24, 14.909999999999998 13.02, 15.299999999999999 12.24 C 16.02 10.68, 15.255 11.355, 16.740000000000002 9.120000000000001 C 18.990000000000002 6.210000000000001, 19.695000000000004 5.1450000000000005, 21.240000000000002 3.3000000000000003 C 22.08 2.52, 22.38 2.205, 22.919999999999998 1.7399999999999998 C 23.159999999999997 1.5899999999999999, 23.189999999999998 1.545, 23.4 1.44 C 23.58 1.38, 23.669999999999998 1.35, 23.759999999999998 1.32 C 23.759999999999998 1.32, 23.534999999999997 1.1400000000000001, 23.759999999999998 1.32 C 24.21 1.6800000000000002, 24.090000000000003 1.08, 24.660000000000004 2.04 C 25.35 3.6, 25.335 3.675, 26.04 5.16 C 26.759999999999998 6.57, 27.015 7.125, 27.48 7.98 C 27.69 8.280000000000001, 27.795 8.43, 27.900000000000002 8.58 C 27.900000000000002 8.58, 27.900000000000002 8.58, 27.900000000000002 8.58 L 27.900000000000002 8.58" fill="none" stroke="black" stroke-width="5"></path><path d="M 18.84 16.32 C 18.78 16.35, 18.735 15.855, 18.72 16.38 C 18.75 17.4, 18.765 16.994999999999997, 18.78 18.419999999999998 C 18.78 20.25, 18.78 20.505000000000003, 18.78 22.080000000000002 C 18.78 23.4, 18.78 23.22, 18.78 24.72 C 18.78 26.4, 18.795 26.025, 18.78 28.08 C 18.75 30.509999999999998, 18.735 30.345, 18.72 32.94 C 18.72 35.7, 18.72 36.525, 18.72 38.46 C 18.72 39.57, 18.72 39.975, 18.72 40.68 C 18.72 40.980000000000004, 18.72 40.980000000000004, 18.72 41.28 C 18.72 41.58, 18.72 41.46, 18.72 41.88 C 18.72 42.42, 18.72 42.615, 18.72 42.96 C 18.72 43.11, 18.72 43.185, 18.72 43.26 L 18.72 43.26" fill="none" stroke="black" stroke-width="5"></path><path d="M 24.599999999999998 16.44 C 24.599999999999998 18.240000000000002, 24.554999999999996 17.655, 24.599999999999998 20.04 C 24.689999999999998 23.009999999999998, 24.675 22.95, 24.78 25.98 C 24.9 29.07, 24.96 30.015000000000004, 25.02 32.160000000000004 C 25.02 33.36, 25.02 33.135000000000005, 25.02 34.56 C 25.02 36.21, 25.02 36.555, 25.02 37.86 C 25.02 38.82, 25.02 39.03, 25.02 39.78 C 25.02 40.32, 25.02 40.425, 25.02 40.86 C 25.02 41.19, 25.02 41.235, 25.02 41.519999999999996 C 25.02 41.76, 25.02 41.879999999999995, 25.02 42 L 25.02 42" fill="none" stroke="black" stroke-width="5"></path></svg>