<svg xmlns="http://www.w3.org/2000/svg" viewBox="12.435447692871094 2.359999895095825 20.184553146362305 44.299999952316284" width="20.184553146362305" height="44.299999952316284"><path d="M 13.68 3.3600000000000003 C 13.68 4.5600000000000005, 13.739999999999998 3.7649999999999997, 13.68 5.76 C 13.56 8.55, 13.485000000000001 8.58, 13.440000000000001 11.34 C 13.47 14.069999999999999, 13.38 14.534999999999997, 13.5 16.799999999999997 C 13.709999999999999 18.599999999999998, 13.709999999999997 19.08, 13.919999999999998 20.4 C 14.129999999999999 21.240000000000002, 14.145 21.285, 14.34 22.080000000000002 C 14.52 22.830000000000002, 14.580000000000002 23.01, 14.700000000000001 23.580000000000002 C 14.760000000000002 23.97, 14.700000000000001 23.97, 14.82 24.36 C 15 24.75, 14.985 24.855, 15.18 25.14 C 15.39 25.32, 15.195000000000002 25.395, 15.600000000000001 25.5 C 16.2 25.53, 16.229999999999997 25.53, 16.799999999999997 25.56 C 17.339999999999996 25.589999999999996, 16.83 25.574999999999996, 17.88 25.619999999999997 C 19.439999999999998 25.68, 19.605 25.71, 21 25.740000000000002 C 22.23 25.740000000000002, 22.23 25.740000000000002, 23.46 25.740000000000002 C 24.69 25.740000000000002, 24.855000000000004 25.740000000000002, 25.92 25.740000000000002 C 26.82 25.740000000000002, 27.03 25.785000000000004, 27.72 25.740000000000002 C 28.2 25.65, 28.17 25.65, 28.68 25.56 C 29.22 25.47, 29.339999999999996 25.425, 29.759999999999998 25.380000000000003 C 30.06 25.380000000000003, 30.165 25.395000000000003, 30.36 25.380000000000003 C 30.45 25.35, 30.375 25.395000000000003, 30.54 25.32 C 30.78 25.2, 30.794999999999998 25.485, 31.02 25.08 C 31.23 24.39, 31.290000000000003 24.945, 31.44 23.700000000000003 C 31.53 21.900000000000002, 31.619999999999997 21.87, 31.619999999999997 20.1 C 31.53 18.36, 31.605 18.630000000000003, 31.44 16.62 C 31.200000000000003 14.34, 31.23 13.919999999999998, 30.96 12.059999999999999 C 30.66 10.62, 30.585 10.379999999999999, 30.36 9.18 C 30.21 8.219999999999999, 30.18 8.025, 30.06 7.26 C 29.97 6.6899999999999995, 30.015 6.8100000000000005, 29.880000000000003 6.12 C 29.700000000000003 5.3100000000000005, 29.61 4.9350000000000005, 29.52 4.5 C 29.52 4.4399999999999995, 29.52 4.41, 29.52 4.38 C 29.52 4.38, 29.52 4.38, 29.52 4.38 L 29.52 4.38" fill="none" stroke="black" stroke-width="5"></path><path d="M 13.620000000000001 19.02 C 13.98 18.93, 13.86 19.62, 14.34 18.84 C 14.94 17.369999999999997, 14.594999999999999 17.909999999999997, 15.54 15.899999999999999 C 16.83 13.35, 17.175 12.600000000000001, 18.12 10.8 C 18.72 9.75, 18.630000000000003 10.08, 19.32 8.7 C 20.1 6.99, 20.294999999999998 6.48, 20.88 5.28 C 21.27 4.59, 21.45 4.290000000000001, 21.66 3.9000000000000004 C 21.689999999999998 3.81, 21.63 3.825, 21.72 3.7199999999999998 C 21.869999999999997 3.5999999999999996, 21.735 3.3449999999999998, 22.02 3.4799999999999995 C 22.439999999999998 3.8699999999999997, 22.395 3.405, 22.86 4.26 C 23.369999999999997 5.58, 23.34 5.579999999999999, 23.88 6.8999999999999995 C 24.45 8.22, 24.345 8.13, 25.02 9.540000000000001 C 25.799999999999997 11.04, 25.634999999999998 11.04, 26.58 12.54 C 27.689999999999998 14.04, 28.034999999999997 14.535, 28.799999999999997 15.54 C 29.22 16.049999999999997, 29.310000000000002 16.215, 29.64 16.56 C 29.88 16.74, 29.729999999999997 16.665, 30.119999999999997 16.919999999999998 C 30.66 17.25, 30.93 17.415, 31.200000000000003 17.580000000000002 C 31.200000000000003 17.580000000000002, 31.200000000000003 17.580000000000002, 31.200000000000003 17.580000000000002 L 31.200000000000003 17.580000000000002" fill="none" stroke="black" stroke-width="5"></path><path d="M 21.18 25.56 C 21.09 26.4, 21.045 25.785, 21 27.240000000000002 C 21 29.310000000000002, 20.985 29.265, 21 31.380000000000003 C 21.03 33.540000000000006, 21 34.005, 21.06 35.7 C 21.15 36.93000000000001, 21.195 36.885000000000005, 21.240000000000002 38.160000000000004 C 21.240000000000002 39.480000000000004, 21.240000000000002 39.675, 21.240000000000002 40.8 C 21.240000000000002 41.730000000000004, 21.240000000000002 41.925000000000004, 21.240000000000002 42.660000000000004 C 21.240000000000002 43.2, 21.240000000000002 43.14, 21.240000000000002 43.74 C 21.240000000000002 44.400000000000006, 21.240000000000002 44.58, 21.240000000000002 45.06 C 21.240000000000002 45.36, 21.240000000000002 45.510000000000005, 21.240000000000002 45.660000000000004 L 21.240000000000002 45.660000000000004" fill="none" stroke="black" stroke-width="5"></path><path d="M 26.700000000000003 26.400000000000002 C 26.700000000000003 28.740000000000002, 26.700000000000003 28.695, 26.700000000000003 31.08 C 26.700000000000003 33.51, 26.700000000000003 34.155, 26.700000000000003 35.94 C 26.700000000000003 37.08, 26.655 36.959999999999994, 26.700000000000003 38.22 C 26.790000000000003 39.6, 26.835 39.75, 26.880000000000003 40.980000000000004 C 26.880000000000003 42.06, 26.835000000000004 42.135000000000005, 26.880000000000003 43.14 C 26.97 44.07, 27.015 44.535, 27.06 45 C 27.06 45, 27.06 45, 27.06 45 L 27.06 45" fill="none" stroke="black" stroke-width="5"></path></svg>