<svg xmlns="http://www.w3.org/2000/svg" viewBox="9.433333396911621 4.490382671356201 16.826666831970215 39.34961748123169" width="16.826666831970215" height="39.34961748123169"><path d="M 12.299999999999999 42.839999999999996 C 11.879999999999999 40.08, 11.834999999999999 39.72, 11.459999999999999 37.32 C 11.129999999999999 35.28, 11.055 35.895, 10.8 33.24 C 10.620000000000001 29.970000000000002, 10.53 29.175000000000004, 10.44 26.700000000000003 C 10.44 25.020000000000003, 10.424999999999999 24.645, 10.44 23.34 C 10.469999999999999 22.41, 10.485 22.065, 10.5 21.48 C 10.5 21.240000000000002, 10.5 21.12, 10.5 21 C 10.5 21, 10.485 21.045, 10.5 21 C 10.530000000000001 20.91, 10.455 20.880000000000003, 10.56 20.82 C 10.74 20.79, 10.620000000000001 20.549999999999997, 10.92 20.759999999999998 C 11.34 21.21, 11.355 21.195, 11.76 21.66 C 12.149999999999999 22.14, 12.059999999999999 21.84, 12.54 22.62 C 13.11 23.700000000000003, 13.125 23.685000000000002, 13.68 24.78 C 14.219999999999999 25.89, 14.37 26.145, 14.76 27 C 15 27.6, 15.075000000000001 27.825000000000003, 15.24 28.200000000000003 C 15.329999999999998 28.35, 15.374999999999998 28.425, 15.419999999999998 28.5 C 15.419999999999998 28.5, 15.419999999999998 28.545, 15.419999999999998 28.5 C 15.419999999999998 28.41, 15.419999999999998 28.815, 15.419999999999998 28.32 C 15.419999999999998 27.42, 15.419999999999998 27.72, 15.419999999999998 26.52 C 15.419999999999998 25.02, 15.419999999999998 24.765, 15.419999999999998 23.52 C 15.419999999999998 22.53, 15.374999999999996 22.2, 15.419999999999998 21.54 C 15.51 21.21, 15.555 21.044999999999998, 15.600000000000001 20.88 C 15.600000000000001 20.88, 15.450000000000001 20.97, 15.600000000000001 20.88 C 15.900000000000002 20.7, 15.585000000000004 20.61, 16.200000000000003 20.52 C 17.130000000000003 20.52, 16.95 20.55, 18.06 20.52 C 19.35 20.46, 19.455000000000002 20.445, 20.64 20.4 C 21.72 20.369999999999997, 21.764999999999997 20.4, 22.799999999999997 20.34 C 23.79 20.25, 24.165 20.205, 24.78 20.16 C 25.02 20.16, 25.14 20.16, 25.259999999999998 20.16 C 25.259999999999998 20.16, 25.259999999999998 20.16, 25.259999999999998 20.16 L 25.259999999999998 20.16" fill="none" stroke="black" stroke-width="5"></path><path d="M 12.72 15.66 C 13.59 14.16, 13.485000000000001 14.475000000000001, 14.46 12.66 C 15.540000000000001 10.53, 15.885000000000002 9.884999999999998, 16.62 8.399999999999999 C 17.009999999999998 7.56, 17.099999999999998 7.3950000000000005, 17.4 6.720000000000001 C 17.61 6.21, 17.715 5.955, 17.82 5.699999999999999 C 17.82 5.699999999999999, 17.82 5.699999999999999, 17.82 5.699999999999999 C 17.82 5.699999999999999, 17.82 5.699999999999999, 17.82 5.699999999999999 C 17.82 5.699999999999999, 17.79 5.729999999999999, 17.82 5.699999999999999 C 17.880000000000003 5.64, 17.805 5.595, 17.94 5.58 C 18.15 5.609999999999999, 18.12 5.324999999999999, 18.36 5.64 C 18.63 6.24, 18.57 6.075, 18.9 6.84 C 19.29 7.77, 19.215 7.604999999999999, 19.68 8.7 C 20.22 9.96, 20.339999999999996 10.275, 20.759999999999998 11.22 C 21.06 11.850000000000001, 20.97 11.73, 21.36 12.48 C 21.84 13.350000000000001, 21.915 13.485000000000001, 22.32 14.22 C 22.65 14.82, 22.77 15.104999999999999, 22.98 15.419999999999998 C 23.07 15.45, 23.025 15.434999999999999, 23.16 15.48 L 23.52 15.600000000000001" fill="none" stroke="black" stroke-width="5"></path><path d="M 19.14 33.42 C 18.54 34.35, 18.285000000000004 34.620000000000005, 17.94 35.28 C 17.85 35.67, 17.564999999999998 35.715, 17.759999999999998 36.06 C 18.24 36.36, 18.224999999999998 36.690000000000005, 18.72 36.660000000000004 C 19.23 36.3, 19.485 36.464999999999996, 19.740000000000002 35.94 C 19.740000000000002 35.25, 19.770000000000003 35.1, 19.740000000000002 34.56 C 19.68 34.17, 19.71 34.005, 19.62 33.78 C 19.5 33.72, 19.68 33.480000000000004, 19.38 33.660000000000004 C 18.9 34.08, 18.659999999999997 34.14, 18.419999999999998 34.5 C 18.419999999999998 34.8, 18.134999999999998 34.785, 18.419999999999998 35.099999999999994 C 18.99 35.42999999999999, 18.959999999999997 35.684999999999995, 19.56 35.76 C 20.189999999999998 35.58, 20.4 35.775000000000006, 20.82 35.400000000000006 C 21.03 34.83, 21.270000000000003 34.68, 21.240000000000002 34.26 C 20.970000000000002 33.989999999999995, 21.015000000000004 33.839999999999996, 20.700000000000003 33.72 C 20.340000000000003 33.75, 20.175 33.6, 19.98 33.78 C 19.95 34.11, 19.935 34.125, 19.919999999999998 34.44 C 19.919999999999998 34.739999999999995, 19.919999999999998 34.89, 19.919999999999998 35.04 L 19.919999999999998 35.04" fill="none" stroke="black" stroke-width="5"></path></svg>