<svg xmlns="http://www.w3.org/2000/svg" viewBox="13.279999732971191 2.059999942779541 20.067420959472656 37.87685537338257" width="20.067420959472656" height="37.87685537338257"><path d="M 14.28 29.400000000000002 C 16.26 29.490000000000002, 16.545 29.535, 18.240000000000002 29.58 C 19.65 29.58, 19.905 29.759999999999998, 21.06 29.58 C 21.96 29.22, 22.2 29.115, 22.86 28.86 C 23.28 28.71, 23.28 28.845, 23.700000000000003 28.56 C 24.12 28.14, 24.18 28.47, 24.54 27.72 C 24.84 26.64, 24.84 27.209999999999997, 25.14 25.56 C 25.44 23.34, 25.590000000000003 22.23, 25.740000000000002 21.12 C 25.740000000000002 21.12, 25.740000000000002 21.12, 25.740000000000002 21.12 C 25.740000000000002 21.12, 25.620000000000005 20.64, 25.740000000000002 21.12 C 25.98 22.08, 25.83 21.884999999999998, 26.22 23.04 C 26.759999999999998 24.39, 26.714999999999996 24.825000000000003, 27.299999999999997 25.740000000000002 C 27.93 26.220000000000002, 27.93 26.415000000000003, 28.56 26.700000000000003 C 29.189999999999998 26.790000000000003, 29.294999999999998 26.880000000000003, 29.82 26.880000000000003 C 30.240000000000002 26.790000000000003, 30.240000000000002 27.150000000000006, 30.660000000000004 26.700000000000003 C 31.080000000000002 25.89, 31.185000000000002 25.935, 31.5 25.08 C 31.71 24.18, 31.71 24.825000000000003, 31.92 23.28 C 32.129999999999995 21.09, 32.279999999999994 21.314999999999998, 32.339999999999996 18.9 C 32.25 16.259999999999998, 32.505 16.23, 32.160000000000004 13.620000000000001 C 31.560000000000002 11.04, 31.425000000000004 10.379999999999999, 30.96 8.459999999999999 C 30.63 7.199999999999999, 30.629999999999995 6.944999999999999, 30.299999999999997 5.9399999999999995 C 29.97 5.1899999999999995, 29.97 5.114999999999999, 29.64 4.4399999999999995 C 29.310000000000002 3.84, 29.16 3.585, 28.98 3.24 C 28.950000000000003 3.1500000000000004, 28.935000000000002 3.105, 28.92 3.06 C 28.92 3.06, 28.92 3.06, 28.92 3.06 L 28.92 3.06" fill="none" stroke="black" stroke-width="5"></path><path d="M 16.259999999999998 18.9 C 17.46 17.52, 17.73 17.715, 18.66 16.14 C 19.32 14.370000000000001, 19.29 14.64, 19.98 12.600000000000001 C 20.7 10.290000000000001, 20.955 9.420000000000002, 21.419999999999998 7.98 C 21.63 7.41, 21.689999999999998 7.199999999999999, 21.84 6.84 C 21.93 6.69, 21.93 6.660000000000001, 22.02 6.540000000000001 C 22.11 6.450000000000001, 22.050000000000004 6.4350000000000005, 22.200000000000003 6.36 C 22.410000000000004 6.300000000000001, 22.305 6.135000000000001, 22.62 6.24 C 23.04 6.51, 22.875 6.164999999999999, 23.46 6.779999999999999 C 24.21 7.739999999999999, 24.255000000000003 7.829999999999999, 24.96 8.7 C 25.62 9.48, 25.455000000000002 9.524999999999999, 26.28 10.26 C 27.27 10.95, 27.089999999999996 11.100000000000001, 28.259999999999998 11.64 C 29.61 12.03, 30.105 12.179999999999998, 30.96 12.419999999999998 C 31.32 12.51, 31.425 12.510000000000002, 31.68 12.600000000000001 C 31.83 12.690000000000001, 31.86 12.735, 31.98 12.78 C 32.07 12.78, 32.115 12.78, 32.160000000000004 12.78 L 32.160000000000004 12.78" fill="none" stroke="black" stroke-width="5"></path><path d="M 21.6 35.519999999999996 C 20.520000000000003 36.39, 19.815 36.495, 19.44 37.26 C 19.770000000000003 37.92, 19.635 38.205, 20.1 38.58 C 20.7 38.67, 20.669999999999998 39.209999999999994, 21.299999999999997 38.76 C 21.96 37.769999999999996, 22.245 37.545, 22.62 36.78 C 22.71 36.24, 22.949999999999996 36.06, 22.799999999999997 35.7 C 22.409999999999997 35.519999999999996, 22.439999999999998 35.235, 22.02 35.339999999999996 C 21.57 35.73, 21.285 35.565, 21.12 36.12 C 21.240000000000002 36.84, 21.06 37.005, 21.36 37.56 C 21.84 37.95, 21.915 38.324999999999996, 22.32 38.339999999999996 C 22.65 37.98, 22.86 37.98, 22.98 37.62 C 22.89 37.260000000000005, 23.04 37.185, 22.799999999999997 36.900000000000006 C 22.409999999999997 36.690000000000005, 22.335 36.42, 22.02 36.480000000000004 C 21.78 36.81, 21.705 36.66, 21.54 37.14 C 21.45 37.77, 21.33 37.995000000000005, 21.36 38.400000000000006 C 21.509999999999998 38.58, 21.585 38.67, 21.66 38.76 L 21.66 38.76" fill="none" stroke="black" stroke-width="5"></path></svg>