<svg xmlns="http://www.w3.org/2000/svg" viewBox="10.100000381469727 1.4547815322875977 15.739999771118164 44.66521739959717" width="15.739999771118164" height="44.66521739959717"><path d="M 16.98 38.160000000000004 C 15.99 36.24, 15.96 37.05, 15 34.32 C 14.07 30.78, 13.83 29.880000000000003, 13.14 27.240000000000002 C 12.690000000000001 25.5, 12.48 25.275, 12.24 23.759999999999998 C 12.21 22.47, 12.195 22.395, 12.18 21.18 C 12.18 20.04, 12.135 19.755, 12.18 18.9 C 12.27 18.33, 12.239999999999998 18.209999999999997, 12.36 17.759999999999998 C 12.51 17.43, 12.45 17.37, 12.66 17.1 C 12.93 16.89, 12.96 16.785, 13.200000000000001 16.68 C 13.41 16.68, 13.275 16.455, 13.620000000000001 16.68 C 14.100000000000001 17.130000000000003, 14.175000000000002 17.055, 14.580000000000002 17.580000000000002 C 14.91 18.18, 14.595 17.445, 15.24 18.78 C 16.2 20.85, 16.485 21.465, 17.16 22.919999999999998 C 17.55 23.759999999999998, 17.745 24.18, 17.94 24.599999999999998 C 17.94 24.599999999999998, 17.910000000000004 24.599999999999998, 17.94 24.599999999999998 C 18 24.599999999999998, 18.03 25.319999999999997, 18.06 24.599999999999998 C 18.06 23.159999999999997, 18.06 23.13, 18.06 21.72 C 18.06 20.34, 17.88 20.130000000000003, 18.06 18.96 C 18.42 18, 18.39 17.669999999999998, 18.78 17.04 C 19.200000000000003 16.740000000000002, 18.855 16.77, 19.62 16.44 C 20.73 16.080000000000002, 20.97 15.9, 21.84 15.72 C 22.47 15.72, 22.755000000000003 15.72, 23.1 15.72 C 23.16 15.72, 23.189999999999998 15.72, 23.22 15.72 L 23.22 15.72" fill="none" stroke="black" stroke-width="5"></path><path d="M 11.100000000000001 11.76 C 11.940000000000001 9.870000000000001, 12.015 9.66, 12.78 7.98 C 13.469999999999999 6.51, 13.530000000000001 6.315, 14.16 5.04 C 14.73 3.96, 15.014999999999999 3.42, 15.299999999999999 2.88 C 15.299999999999999 2.88, 15.134999999999998 2.985, 15.299999999999999 2.88 C 15.629999999999999 2.67, 15.63 2.415, 15.96 2.46 C 16.29 2.76, 16.080000000000002 2.505, 16.62 3.06 C 17.37 3.87, 17.34 3.705, 18.12 4.68 C 18.93 5.819999999999999, 19.005000000000003 5.895, 19.740000000000002 6.959999999999999 C 20.4 7.949999999999999, 20.67 8.325, 21.06 8.94 C 21.18 9.18, 21.24 9.3, 21.299999999999997 9.42 C 21.299999999999997 9.42, 21.299999999999997 9.42, 21.299999999999997 9.42 L 21.299999999999997 9.42" fill="none" stroke="black" stroke-width="5"></path><path d="M 12 39.24 C 12.540000000000001 39.150000000000006, 12.360000000000003 39.195, 13.080000000000002 39.06 C 13.98 38.88, 13.905 38.83500000000001, 14.879999999999999 38.7 C 15.93 38.61, 15.795 38.654999999999994, 16.98 38.519999999999996 C 18.3 38.34, 18.555 38.25, 19.62 38.160000000000004 C 20.43 38.160000000000004, 20.400000000000002 38.160000000000004, 21.240000000000002 38.160000000000004 C 22.11 38.160000000000004, 22.47 38.160000000000004, 22.98 38.160000000000004 C 23.130000000000003 38.160000000000004, 23.205000000000002 38.160000000000004, 23.28 38.160000000000004 L 23.28 38.160000000000004" fill="none" stroke="black" stroke-width="5"></path><path d="M 12.18 45.12 C 13.02 44.91, 12.825 44.985, 13.86 44.7 C 15.09 44.34, 15.27 44.175000000000004, 16.32 43.980000000000004 C 17.189999999999998 43.95, 17.13 43.995000000000005, 18.06 43.92 C 19.049999999999997 43.8, 18.974999999999998 43.74, 20.04 43.68 C 21.18 43.68, 21.509999999999998 43.68, 22.32 43.68 C 22.8 43.68, 22.755000000000003 43.605, 23.28 43.68 C 23.85 43.83, 24.03 43.905, 24.42 43.980000000000004 C 24.63 43.980000000000004, 24.735 43.980000000000004, 24.839999999999996 43.980000000000004 L 24.839999999999996 43.980000000000004" fill="none" stroke="black" stroke-width="5"></path></svg>