<svg xmlns="http://www.w3.org/2000/svg" viewBox="9.146666526794434 5.960000038146973 16.98568058013916 40.58000087738037" width="16.98568058013916" height="40.58000087738037"><path d="M 10.26 44.04 C 10.26 41.7, 10.26 42.03, 10.26 39.36 C 10.26 36.36, 10.26 36.045, 10.26 33.36 C 10.26 30.99, 10.26 30.479999999999997, 10.26 28.619999999999997 C 10.26 27.27, 10.004999999999999 27.045, 10.26 25.92 C 10.77 25.02, 10.635 25.095, 11.28 24.119999999999997 C 12.059999999999999 23.07, 12.075 22.74, 12.84 22.02 C 13.59 21.630000000000003, 13.364999999999998 21.525000000000002, 14.34 21.240000000000002 C 15.540000000000001 21.060000000000002, 14.970000000000002 21.015, 16.740000000000002 20.88 C 19.08 20.79, 19.814999999999998 20.745, 21.419999999999998 20.700000000000003 C 22.29 20.700000000000003, 22.59 20.700000000000003, 23.16 20.700000000000003 C 23.43 20.700000000000003, 23.445000000000004 20.625000000000004, 23.700000000000003 20.700000000000003 C 23.94 20.85, 23.91 20.535, 24.18 21 C 24.48 21.78, 24.555 21.119999999999997, 24.78 22.56 C 24.93 24.659999999999997, 25.259999999999998 23.895, 25.08 26.759999999999998 C 24.57 30.389999999999997, 24.615 30.989999999999995, 24.06 34.019999999999996 C 23.46 36.45, 23.445 36.345, 22.86 38.88 C 22.29 41.52, 22.049999999999997 42.525000000000006, 21.72 44.160000000000004 C 21.63 44.790000000000006, 21.585 45.105000000000004, 21.54 45.42 C 21.54 45.42, 21.555 45.39, 21.54 45.42 L 21.48 45.54" fill="none" stroke="black" stroke-width="5"></path><path d="M 11.459999999999999 15.84 C 12.6 14.4, 12.255 14.82, 13.74 12.96 C 15.57 10.68, 16.244999999999997 9.87, 17.4 8.399999999999999 C 17.88 7.739999999999999, 18.09 7.4399999999999995, 18.36 7.08 L 18.48 6.959999999999999" fill="none" stroke="black" stroke-width="5"></path><path d="M 18 7.4399999999999995 C 19.259999999999998 10.530000000000001, 19.56 11.520000000000001, 20.52 13.620000000000001 C 21.18 14.73, 21.405 15.135, 21.84 15.84 L 22.259999999999998 16.44" fill="none" stroke="black" stroke-width="5"></path></svg>