<svg xmlns="http://www.w3.org/2000/svg" viewBox="14.219999313354492 2.4200000762939453 19.1733341217041 39.19999933242798" width="19.1733341217041" height="39.19999933242798"><path d="M 16.919999999999998 4.9799999999999995 C 16.919999999999998 6.029999999999999, 17.025 5.505, 16.919999999999998 7.08 C 16.71 9.18, 16.725 8.985, 16.5 11.28 C 16.259999999999998 13.77, 16.244999999999997 13.949999999999998, 16.02 16.259999999999998 C 15.81 18.39, 15.750000000000002 18.869999999999997, 15.600000000000001 20.52 C 15.51 21.689999999999998, 15.509999999999998 21.615, 15.419999999999998 22.86 C 15.329999999999998 24.18, 15.285 24.405, 15.24 25.5 C 15.24 26.37, 15.24 26.490000000000002, 15.24 27.240000000000002 C 15.24 27.87, 15.195 27.945, 15.24 28.5 C 15.329999999999998 28.98, 15.254999999999999 29.085, 15.419999999999998 29.46 C 15.659999999999998 29.73, 15.599999999999998 29.745, 15.899999999999999 30 C 16.259999999999998 30.240000000000002, 16.32 30.3, 16.62 30.48 C 16.86 30.6, 16.755000000000003 30.66, 17.1 30.72 C 17.55 30.72, 17.625 30.72, 18 30.72 C 18.3 30.72, 18.165 30.72, 18.6 30.72 C 19.17 30.72, 18.96 30.81, 19.740000000000002 30.72 C 20.73 30.54, 20.595 30.494999999999997, 21.72 30.36 C 22.98 30.27, 23.310000000000002 30.27, 24.240000000000002 30.18 C 24.840000000000003 30.09, 24.78 30.045, 25.44 30 C 26.160000000000004 30, 26.280000000000005 29.97, 26.880000000000003 30 C 27.36 30.06, 27.389999999999997 29.939999999999998, 27.839999999999996 30.119999999999997 C 28.259999999999998 30.419999999999998, 28.214999999999996 30.404999999999998, 28.68 30.72 C 29.19 31.05, 29.190000000000005 30.96, 29.700000000000003 31.380000000000003 C 30.21 31.890000000000004, 30.240000000000002 31.845000000000006, 30.72 32.400000000000006 C 31.169999999999998 33, 31.229999999999997 32.94, 31.619999999999997 33.599999999999994 C 31.95 34.31999999999999, 32.115 34.455, 32.28 35.04 C 32.28 35.489999999999995, 32.28 35.43, 32.28 35.94 C 32.28 36.51, 32.535000000000004 36.464999999999996, 32.28 37.08 C 31.77 37.74, 31.919999999999998 37.71000000000001, 31.259999999999998 38.400000000000006 C 30.45 39.120000000000005, 30.42 39.375, 29.64 39.839999999999996 C 28.89 40.05, 29.19 40.065, 28.14 40.26 C 26.79 40.44, 26.475 40.53, 25.44 40.62 C 24.72 40.62, 24.555 40.62, 24 40.62 C 23.61 40.62, 23.46 40.62, 23.22 40.62 L 23.04 40.62" fill="none" stroke="black" stroke-width="5"></path><path d="M 25.799999999999997 29.880000000000003 C 26.189999999999998 29.880000000000003, 26.07 29.880000000000003, 26.58 29.880000000000003 C 27.209999999999997 29.880000000000003, 27.374999999999996 29.910000000000004, 27.839999999999996 29.880000000000003 C 28.14 29.82, 28.08 29.895, 28.44 29.759999999999998 C 28.86 29.549999999999997, 28.875 29.534999999999997, 29.28 29.339999999999996 C 29.67 29.159999999999997, 29.654999999999998 29.355, 30.06 28.98 C 30.48 28.409999999999997, 30.645000000000003 28.469999999999995, 30.900000000000002 27.839999999999996 C 30.990000000000002 27.15, 30.99 27.285, 31.08 26.46 C 31.169999999999998 25.5, 31.214999999999996 25.994999999999997, 31.259999999999998 24.54 C 31.259999999999998 22.59, 31.259999999999998 22.365000000000002, 31.259999999999998 20.64 C 31.259999999999998 19.14, 31.275 19.41, 31.259999999999998 17.64 C 31.23 15.6, 31.26 15.224999999999998, 31.200000000000003 13.559999999999999 C 31.11 12.27, 31.11 12.24, 31.02 10.98 C 30.93 9.75, 30.959999999999997 9.9, 30.839999999999996 8.52 C 30.689999999999998 6.99, 30.674999999999997 6.51, 30.54 5.46 C 30.419999999999998 4.890000000000001, 30.404999999999998 4.83, 30.299999999999997 4.32 C 30.209999999999997 3.87, 30.165 3.645, 30.119999999999997 3.42 C 30.119999999999997 3.42, 30.119999999999997 3.42, 30.119999999999997 3.42 L 30.119999999999997 3.42" fill="none" stroke="black" stroke-width="5"></path><path d="M 15.36 20.700000000000003 C 15.629999999999999 20.55, 15.104999999999999 21.27, 15.899999999999999 20.4 C 17.22 18.81, 16.919999999999998 19.275, 18.54 17.22 C 20.46 14.7, 20.775 14.309999999999999, 22.38 12.18 C 23.67 10.44, 24.240000000000002 9.69, 24.96 8.7 C 25.11 8.46, 25.154999999999998 8.385, 25.259999999999998 8.22 C 25.32 8.13, 25.35 8.085, 25.380000000000003 8.040000000000001 C 25.380000000000003 8.040000000000001, 25.230000000000004 7.905000000000001, 25.380000000000003 8.040000000000001 C 25.68 8.31, 25.695 8.040000000000001, 25.98 8.58 C 26.25 9.39, 26.175 8.94, 26.52 10.2 C 26.939999999999998 11.91, 26.91 12.075000000000001, 27.36 13.620000000000001 C 27.84 15, 27.75 15.105, 28.32 16.38 C 28.98 17.549999999999997, 29.130000000000003 17.909999999999997, 29.64 18.72 C 30 19.17, 29.97 19.215, 30.36 19.62 C 30.78 19.98, 30.990000000000002 20.16, 31.200000000000003 20.34 C 31.200000000000003 20.34, 31.200000000000003 20.34, 31.200000000000003 20.34 L 31.200000000000003 20.34" fill="none" stroke="black" stroke-width="5"></path></svg>