<svg xmlns="http://www.w3.org/2000/svg" viewBox="10.880000114440918 1.0999999046325684 22.75999927520752 43.76298141479492" width="22.75999927520752" height="43.76298141479492"><path d="M 14.82 2.0999999999999996 C 14.97 2.61, 15.045000000000002 2.49, 15.120000000000001 3.12 C 15.120000000000001 3.87, 15.135000000000002 3.825, 15.120000000000001 4.62 C 15.09 5.460000000000001, 15.18 5.175000000000001, 15.059999999999999 6.300000000000001 C 14.85 7.710000000000001, 14.82 7.710000000000001, 14.64 9.120000000000001 C 14.49 10.530000000000001, 14.49 10.32, 14.34 11.94 C 14.19 13.77, 14.129999999999999 14.055000000000001, 14.04 15.600000000000001 C 14.01 16.86, 14.100000000000001 16.47, 13.98 18.12 C 13.77 20.160000000000004, 13.844999999999999 20.175000000000004, 13.559999999999999 22.200000000000003 C 13.2 24.21, 13.2 24.240000000000002, 12.84 26.22 C 12.48 28.169999999999998, 12.345 28.574999999999996, 12.120000000000001 30.119999999999997 C 12.030000000000001 31.26, 11.985 31.275000000000006, 11.94 32.400000000000006 C 11.94 33.510000000000005, 11.805 33.974999999999994, 11.94 34.62 C 12.21 34.8, 12.15 34.845, 12.48 34.980000000000004 C 12.870000000000001 35.07000000000001, 12.780000000000001 35.220000000000006, 13.26 35.160000000000004 C 13.829999999999998 34.95, 13.604999999999999 35.31, 14.399999999999999 34.74 C 15.42 33.81, 15.600000000000001 34.035000000000004, 16.44 32.88 C 17.1 31.5, 17.145 31.394999999999996, 17.759999999999998 30.119999999999997 C 18.33 28.95, 18.54 28.725, 18.9 27.78 C 19.05 27.06, 19.125 26.699999999999996, 19.200000000000003 26.339999999999996 C 19.200000000000003 26.339999999999996, 19.125000000000004 26.354999999999997, 19.200000000000003 26.339999999999996 C 19.35 26.31, 19.425 26.07, 19.5 26.28 C 19.5 26.73, 19.455 26.52, 19.5 27.18 C 19.59 28.05, 19.56 28.080000000000002, 19.68 28.92 C 19.83 29.73, 19.8 29.759999999999998, 19.98 30.54 C 20.189999999999998 31.29, 20.145 31.455, 20.4 32.04 C 20.7 32.46, 20.549999999999997 32.415, 21 32.88 C 21.6 33.39, 21.735000000000003 33.58500000000001, 22.200000000000003 33.900000000000006 C 22.53 34.02, 22.545 34.08, 22.86 34.14 C 23.16 34.14, 23.085 34.14, 23.46 34.14 C 23.91 34.14, 23.595 34.14, 24.36 34.14 C 25.439999999999998 34.14, 25.53 34.11, 26.52 34.14 C 27.42 34.2, 27.435000000000002 33.96, 28.32 34.26 C 29.189999999999998 34.8, 29.339999999999996 34.724999999999994, 30.06 35.339999999999996 C 30.630000000000003 36.03, 30.765000000000004 35.985, 31.200000000000003 36.72 C 31.5 37.5, 31.619999999999997 37.260000000000005, 31.799999999999997 38.28 C 31.86 39.54, 31.995 39.735, 31.92 40.8 C 31.71 41.67, 31.92 41.864999999999995, 31.5 42.54 C 30.87 43.019999999999996, 31.080000000000002 43.185, 30.240000000000002 43.5 C 29.19 43.65, 29.28 43.709999999999994, 28.14 43.8 C 26.91 43.83, 26.67 43.875, 25.68 43.86 C 24.93 43.8, 24.585 43.785000000000004, 24.18 43.74 C 24.119999999999997 43.71, 24.09 43.695, 24.06 43.68 L 24.06 43.68" fill="none" stroke="black" stroke-width="5"></path><path d="M 24.48 34.44 C 24.869999999999997 34.56, 24.764999999999997 34.62, 25.259999999999998 34.68 C 25.86 34.68, 25.755000000000003 34.74, 26.46 34.68 C 27.27 34.56, 27.39 34.83, 28.08 34.44 C 28.65 33.78, 28.68 33.809999999999995, 29.22 33.12 C 29.73 32.4, 29.655 32.82, 30.240000000000002 31.68 C 30.9 30.119999999999997, 31.019999999999996 30.465, 31.56 28.56 C 31.980000000000004 26.31, 32.13 26.459999999999997, 32.400000000000006 24.06 C 32.52 21.509999999999998, 32.61 21.03, 32.64 18.96 C 32.58 17.37, 32.699999999999996 17.49, 32.519999999999996 15.78 C 32.22 13.95, 32.145 13.920000000000002, 31.92 12.120000000000001 C 31.77 10.350000000000001, 31.784999999999997 10.02, 31.619999999999997 8.58 C 31.439999999999998 7.470000000000001, 31.379999999999995 7.035, 31.259999999999998 6.36 C 31.2 6.12, 31.23 6.375, 31.14 5.88 C 31.020000000000003 5.13, 31.005000000000003 4.995, 30.900000000000002 4.38 C 30.810000000000002 3.9, 30.765 3.66, 30.72 3.42 L 30.72 3.42" fill="none" stroke="black" stroke-width="5"></path><path d="M 13.799999999999999 18.54 C 15.09 16.979999999999997, 15.225 17.04, 16.38 15.419999999999998 C 17.4 13.739999999999998, 17.325 13.859999999999998, 18.419999999999998 12.059999999999999 C 19.589999999999996 10.14, 19.83 9.75, 20.759999999999998 8.22 C 21.45 7.08, 21.645 6.75, 22.14 5.9399999999999995 C 22.44 5.459999999999999, 22.590000000000003 5.22, 22.740000000000002 4.9799999999999995 C 22.740000000000002 4.9799999999999995, 22.740000000000002 4.9799999999999995, 22.740000000000002 4.9799999999999995 C 22.740000000000002 4.9799999999999995, 22.650000000000002 5.0249999999999995, 22.740000000000002 4.9799999999999995 C 22.92 4.890000000000001, 22.905 4.53, 23.1 4.800000000000001 C 23.310000000000002 5.430000000000001, 23.16 4.965000000000001, 23.52 6.0600000000000005 C 24.03 7.62, 23.895 7.545, 24.54 9.18 C 25.32 10.89, 25.29 10.995000000000001, 26.099999999999998 12.600000000000001 C 26.939999999999998 14.100000000000001, 27.135 14.505000000000003, 27.78 15.600000000000001 C 28.23 16.29, 28.2 16.29, 28.68 16.98 C 29.19 17.67, 29.310000000000002 17.88, 29.700000000000003 18.36 C 29.970000000000002 18.63, 29.895000000000003 18.57, 30.240000000000002 18.9 C 30.66 19.29, 30.705 19.38, 31.08 19.68 C 31.41 19.89, 31.455000000000002 19.92, 31.740000000000002 20.1 C 31.98 20.25, 32.1 20.325, 32.22 20.4 C 32.22 20.4, 32.22 20.4, 32.22 20.4 L 32.22 20.4" fill="none" stroke="black" stroke-width="5"></path></svg>