<svg xmlns="http://www.w3.org/2000/svg" viewBox="10.65999984741211 5.238059043884277 17.639999389648438 40.40194034576416" width="17.639999389648438" height="40.40194034576416"><path d="M 13.559999999999999 44.64 C 13.44 43.71, 13.44 43.74, 13.32 42.78 C 13.200000000000001 41.79, 13.260000000000002 42.105, 13.080000000000002 40.8 C 12.840000000000002 39.18, 12.840000000000002 39.24, 12.600000000000001 37.56 C 12.360000000000001 35.82, 12.3 35.355, 12.120000000000001 34.08 C 12 33.269999999999996, 11.985 33.36, 11.879999999999999 32.46 C 11.79 31.47, 11.745 31.5, 11.7 30.48 C 11.7 29.43, 11.7 29.265, 11.7 28.380000000000003 C 11.7 27.660000000000004, 11.7 27.525000000000002, 11.7 26.94 C 11.7 26.490000000000002, 11.61 26.7, 11.7 26.04 C 11.879999999999999 25.169999999999998, 11.834999999999997 25.049999999999997, 12.059999999999999 24.299999999999997 C 12.33 23.669999999999998, 12.345 23.474999999999998, 12.600000000000001 23.04 C 12.840000000000002 22.799999999999997, 12.765000000000002 22.814999999999998, 13.080000000000002 22.56 C 13.47 22.29, 13.41 22.29, 13.86 22.02 C 14.37 21.75, 14.34 21.75, 14.879999999999999 21.48 C 15.45 21.21, 15.51 21.075000000000003, 16.02 20.94 C 16.47 20.94, 16.47 20.94, 16.919999999999998 20.94 C 17.369999999999997 20.94, 17.25 20.94, 17.82 20.94 C 18.51 20.94, 18.405 20.94, 19.200000000000003 20.94 C 20.1 20.94, 20.025 20.94, 21 20.94 C 22.05 20.94, 22.26 20.94, 23.1 20.94 C 23.73 20.94, 23.82 20.94, 24.36 20.94 C 24.81 20.94, 24.959999999999997 20.94, 25.259999999999998 20.94 C 25.409999999999997 20.94, 25.485 20.94, 25.56 20.94 C 25.56 20.94, 25.56 20.94, 25.56 20.94 C 25.56 20.94, 25.47 20.94, 25.56 20.94 C 25.740000000000002 20.94, 25.830000000000002 20.94, 25.92 20.94 C 25.92 20.94, 25.92 20.94, 25.92 20.94 L 25.92 20.94" fill="none" stroke="black" stroke-width="5"></path><path d="M 27.299999999999997 13.74 C 26.73 13.89, 26.865000000000002 13.875, 26.160000000000004 14.04 C 25.32 14.219999999999999, 25.365000000000002 14.249999999999998, 24.48 14.399999999999999 C 23.55 14.52, 23.385 14.594999999999999, 22.62 14.64 C 22.02 14.610000000000001, 21.884999999999998 14.700000000000003, 21.419999999999998 14.580000000000002 C 21.089999999999996 14.370000000000001, 21.194999999999997 14.565000000000001, 20.759999999999998 14.16 C 20.22 13.56, 20.115 13.59, 19.68 12.96 C 19.35 12.3, 19.185 12.120000000000001, 19.02 11.64 C 19.02 11.34, 19.005 11.46, 19.02 11.040000000000001 C 19.05 10.5, 18.78 10.575, 19.080000000000002 9.959999999999999 C 19.65 9.27, 19.634999999999998 9.225, 20.22 8.58 C 20.82 7.98, 20.865 7.89, 21.419999999999998 7.38 C 21.93 6.960000000000001, 22.11 6.795000000000001, 22.44 6.540000000000001 C 22.590000000000003 6.450000000000001, 22.470000000000002 6.4350000000000005, 22.740000000000002 6.36 C 23.130000000000003 6.300000000000001, 23.085 6.2250000000000005, 23.52 6.24 C 24 6.33, 24.075 6.27, 24.48 6.42 C 24.810000000000002 6.63, 24.87 6.63, 25.14 6.84 C 25.35 7.05, 25.29 6.87, 25.56 7.26 C 25.89 7.829999999999999, 25.95 7.829999999999998, 26.22 8.399999999999999 C 26.43 8.969999999999999, 26.490000000000002 8.805, 26.64 9.540000000000001 C 26.73 10.440000000000001, 26.775 10.41, 26.82 11.34 C 26.82 12.3, 26.880000000000003 11.85, 26.82 13.26 C 26.7 15.120000000000001, 26.685 15.165000000000001, 26.58 16.98 C 26.490000000000002 18.75, 26.445 18.96, 26.400000000000002 20.52 C 26.400000000000002 21.869999999999997, 26.400000000000002 21.974999999999998, 26.400000000000002 23.22 C 26.400000000000002 24.36, 26.400000000000002 24.06, 26.400000000000002 25.5 C 26.400000000000002 27.240000000000002, 26.400000000000002 27.255, 26.400000000000002 28.98 C 26.400000000000002 30.690000000000005, 26.400000000000002 30.795000000000005, 26.400000000000002 32.400000000000006 C 26.400000000000002 33.900000000000006, 26.400000000000002 33.825, 26.400000000000002 35.400000000000006 C 26.400000000000002 37.050000000000004, 26.400000000000002 37.48500000000001, 26.400000000000002 38.7 C 26.400000000000002 39.480000000000004, 26.445000000000004 39.33, 26.400000000000002 40.26 C 26.310000000000002 41.34, 26.265 41.64, 26.22 42.42 C 26.22 42.900000000000006, 26.22 43.14, 26.22 43.38 C 26.22 43.38, 26.25 43.335, 26.22 43.38 L 26.099999999999998 43.56" fill="none" stroke="black" stroke-width="5"></path><path d="M 19.62 27.839999999999996 C 19.29 27.869999999999997, 19.17 27.660000000000004, 18.96 27.900000000000002 C 18.87 28.35, 18.855 28.304999999999996, 18.78 28.799999999999997 C 18.72 29.34, 18.435000000000002 29.355, 18.66 29.880000000000003 C 19.17 30.39, 19.23 30.645000000000003, 19.68 30.900000000000002 C 20.07 30.900000000000002, 20.1 31.230000000000004, 20.46 30.900000000000002 C 20.79 30.240000000000002, 21.015 30.15, 21.12 29.58 C 21 29.099999999999998, 21.165 29.084999999999997, 20.88 28.619999999999997 C 20.43 28.169999999999998, 20.73 27.959999999999997, 19.98 27.72 C 18.93 27.69, 18.555 27.465000000000003, 17.88 27.660000000000004 C 17.58 28.080000000000002, 17.34 28.095, 17.28 28.5 C 17.46 28.89, 17.385 28.995, 17.64 29.28 C 17.97 29.46, 17.985 29.55, 18.299999999999997 29.64 C 18.599999999999998 29.64, 18.674999999999997 29.85, 18.9 29.64 C 19.05 29.22, 19.125 29.129999999999995, 19.200000000000003 28.799999999999997 C 19.200000000000003 28.56, 19.200000000000003 28.455, 19.200000000000003 28.32 C 19.200000000000003 28.29, 19.305000000000003 28.244999999999997, 19.200000000000003 28.259999999999998 C 18.990000000000002 28.32, 18.885 28.050000000000004, 18.78 28.380000000000003 C 18.78 28.98, 18.615000000000002 28.994999999999997, 18.78 29.58 C 19.11 30.15, 18.96 30.479999999999997, 19.44 30.72 L 20.700000000000003 30.54" fill="none" stroke="black" stroke-width="5"></path><path d="M 16.5 36.12 C 16.8 36.12, 16.71 36.165, 17.1 36.12 C 17.58 36.03, 17.549999999999997 35.985, 18.06 35.94 C 18.6 35.94, 18.495 35.94, 19.14 35.94 C 19.89 35.94, 19.86 35.94, 20.64 35.94 C 21.45 35.94, 21.435 35.985, 22.259999999999998 35.94 C 23.1 35.849999999999994, 23.490000000000002 35.805, 23.94 35.76 C 24 35.76, 24.015 35.79, 24.06 35.76 L 24.119999999999997 35.64" fill="none" stroke="black" stroke-width="5"></path></svg>