<svg xmlns="http://www.w3.org/2000/svg" viewBox="10.760000228881836 2.0399999618530273 22.46000099182129 43.78970432281494" width="22.46000099182129" height="43.78970432281494"><path d="M 11.76 29.759999999999998 C 12 29.88, 11.790000000000001 29.939999999999998, 12.24 30 C 12.899999999999999 30, 12.689999999999998 30.03, 13.559999999999999 30 C 14.64 29.94, 14.775 30.015, 15.72 29.880000000000003 C 16.53 29.67, 16.74 29.67, 17.34 29.46 C 17.73 29.25, 17.67 29.294999999999998, 18.12 29.04 C 18.630000000000003 28.740000000000002, 18.57 28.935000000000002, 19.14 28.44 C 19.77 27.75, 19.845 27.825, 20.4 27.06 C 20.88 26.22, 20.97 26.220000000000002, 21.36 25.380000000000003 C 21.66 24.540000000000003, 21.675 24.495000000000005, 21.96 23.700000000000003 C 22.23 22.950000000000003, 22.365000000000002 22.845000000000002, 22.5 22.200000000000003 C 22.5 21.660000000000004, 22.5 21.39, 22.5 21.12 C 22.5 21.12, 22.5 21.12, 22.5 21.12 C 22.5 21.12, 22.515 20.895000000000003, 22.5 21.12 C 22.47 21.57, 22.5 21.24, 22.44 22.02 C 22.35 23.130000000000003, 22.305 23.205000000000002, 22.259999999999998 24.240000000000002 C 22.259999999999998 25.200000000000003, 22.199999999999996 25.395000000000003, 22.259999999999998 26.160000000000004 C 22.38 26.73, 22.11 26.654999999999998, 22.5 27.299999999999997 C 23.16 28.02, 23.130000000000003 28.230000000000004, 23.82 28.740000000000002 C 24.54 29.04, 24.494999999999997 29.174999999999997, 25.259999999999998 29.339999999999996 C 26.07 29.369999999999997, 26.19 29.520000000000003, 26.880000000000003 29.400000000000002 C 27.450000000000003 29.130000000000003, 27.36 29.385, 28.02 28.86 C 28.77 28.08, 28.755 28.574999999999996, 29.52 27.299999999999997 C 30.299999999999997 25.529999999999998, 30.57 25.604999999999997, 31.08 23.759999999999998 C 31.32 21.839999999999996, 31.439999999999998 21.555, 31.56 19.919999999999998 C 31.56 18.57, 31.56 18.735, 31.56 17.22 C 31.56 15.54, 31.589999999999996 15.645, 31.56 13.86 C 31.5 11.969999999999999, 31.59 11.73, 31.44 10.08 C 31.200000000000003 8.67, 31.185000000000002 8.415, 30.96 7.26 C 30.75 6.359999999999999, 30.884999999999998 6.27, 30.54 5.46 C 30.06 4.74, 30.165 4.590000000000001, 29.58 4.0200000000000005 C 28.89 3.6000000000000005, 28.965000000000003 3.4050000000000002, 28.200000000000003 3.18 C 27.36 3.1500000000000004, 27.134999999999998 3.1350000000000002, 26.52 3.12 C 26.130000000000003 3.12, 26.415000000000003 2.9400000000000004, 25.740000000000002 3.12 C 24.78 3.48, 24.75 3.3, 23.82 3.84 C 22.92 4.5600000000000005, 22.725 4.425000000000001, 22.02 5.28 C 21.509999999999998 6.27, 21.3 6.27, 21 7.26 C 20.91 8.25, 20.73 8.13, 20.82 9.24 C 21.09 10.469999999999999, 20.925 10.77, 21.36 11.7 C 21.96 12.33, 21.794999999999998 12.39, 22.56 12.96 C 23.490000000000002 13.47, 23.46 13.68, 24.42 13.98 C 25.410000000000004 14.07, 25.335 14.115, 26.400000000000002 14.16 C 27.54 14.16, 27.615 14.31, 28.68 14.16 C 29.67 13.86, 29.775000000000006 13.95, 30.660000000000004 13.559999999999999 C 31.44 13.08, 31.83 12.84, 32.22 12.600000000000001 C 32.22 12.600000000000001, 32.22 12.600000000000001, 32.22 12.600000000000001 C 32.22 12.600000000000001, 32.22 12.600000000000001, 32.22 12.600000000000001 L 32.22 12.600000000000001" fill="none" stroke="black" stroke-width="5"></path><path d="M 23.22 33.54 C 22.2 33.45, 22.185 33.405, 21.18 33.36 C 20.19 33.36, 20.1 33.03, 19.200000000000003 33.36 C 18.39 34.019999999999996, 18.360000000000003 33.675, 17.580000000000002 34.68 C 16.830000000000002 36.03, 16.575000000000003 36.045, 16.080000000000002 37.38 C 15.840000000000002 38.7, 15.315000000000001 38.63999999999999, 15.600000000000001 40.019999999999996 C 16.41 41.46, 16.439999999999998 41.85000000000001, 17.22 42.900000000000006 C 17.97 43.56, 17.625 43.74, 18.72 44.22 C 20.16 44.519999999999996, 19.995 44.894999999999996, 21.6 44.82 C 23.37 44.370000000000005, 23.880000000000003 44.85, 25.14 43.92 C 25.89 42.51, 26.16 42.224999999999994, 26.64 41.099999999999994 C 26.85 40.26, 26.955 40.5, 27.06 39.42 C 27.06 38.1, 27.27 37.815, 27.06 36.78 C 26.64 36.03, 26.729999999999997 35.925, 26.22 35.28 C 25.619999999999997 34.74, 25.71 34.605000000000004, 25.02 34.2 C 24.240000000000002 33.93000000000001, 24.045 33.825, 23.46 33.660000000000004 C 23.07 33.6, 23.025 33.57, 22.68 33.54 C 22.380000000000003 33.54, 22.23 33.54, 22.080000000000002 33.54 L 22.080000000000002 33.54" fill="none" stroke="black" stroke-width="5"></path></svg>