<svg xmlns="http://www.w3.org/2000/svg" viewBox="11.526666641235352 4.039999961853027 19.593334197998047 34.59333515167236" width="19.593334197998047" height="34.59333515167236"><path d="M 12.899999999999999 5.04 C 12.87 6.0600000000000005, 12.93 5.7, 12.84 7.08 C 12.69 8.82, 12.614999999999998 9, 12.54 10.56 C 12.54 11.940000000000001, 12.54 12.06, 12.54 13.32 C 12.54 14.46, 12.54 14.355000000000002, 12.54 15.600000000000001 C 12.54 16.95, 12.54 17.054999999999996, 12.54 18.299999999999997 C 12.54 19.439999999999998, 12.509999999999998 19.725, 12.54 20.580000000000002 C 12.6 21.15, 12.615 21.03, 12.66 21.72 C 12.690000000000001 22.53, 12.645 22.725, 12.72 23.34 C 12.84 23.759999999999998, 12.855 23.849999999999998, 12.96 24.18 C 13.05 24.42, 12.945 24.330000000000005, 13.14 24.660000000000004 C 13.440000000000001 25.080000000000002, 13.515 25.215000000000003, 13.74 25.5 C 13.89 25.65, 13.844999999999999 25.694999999999997, 14.04 25.799999999999997 C 14.28 25.86, 14.235 25.86, 14.52 25.92 C 14.85 25.98, 14.79 25.965, 15.18 26.04 C 15.63 26.13, 15.510000000000002 26.174999999999997, 16.080000000000002 26.22 C 16.770000000000003 26.22, 16.62 26.22, 17.46 26.22 C 18.450000000000003 26.22, 18.465000000000003 26.22, 19.44 26.22 C 20.4 26.22, 20.34 26.22, 21.36 26.22 C 22.439999999999998 26.22, 22.71 26.22, 23.52 26.22 C 24.06 26.22, 23.985 26.265, 24.599999999999998 26.22 C 25.29 26.13, 25.41 26.085, 25.98 26.04 C 26.43 26.04, 26.535000000000004 26.085, 26.880000000000003 26.04 C 27.12 25.95, 27.12 25.965, 27.36 25.86 C 27.599999999999998 25.74, 27.584999999999994 25.739999999999995, 27.839999999999996 25.619999999999997 C 28.11 25.5, 28.080000000000002 25.605000000000004, 28.380000000000003 25.380000000000003 C 28.71 25.05, 28.725 25.185, 29.04 24.72 C 29.34 24.119999999999997, 29.43 24.075, 29.64 23.52 C 29.76 23.009999999999998, 29.805000000000003 23.235, 29.880000000000003 22.5 C 29.910000000000004 21.54, 29.955000000000002 21.525000000000002, 29.94 20.580000000000002 C 29.880000000000003 19.65, 30.015 19.634999999999998, 29.82 18.72 C 29.490000000000002 17.82, 29.430000000000003 17.519999999999996, 29.160000000000004 16.919999999999998 C 28.950000000000003 16.619999999999997, 29.055000000000003 16.59, 28.740000000000002 16.32 C 28.32 16.08, 28.380000000000003 15.96, 27.900000000000002 15.84 C 27.36 15.84, 27.21 15.84, 26.82 15.84 C 26.58 15.84, 26.564999999999998 15.84, 26.339999999999996 15.84 C 26.13 15.84, 26.145 15.84, 25.92 15.84 C 25.68 15.84, 25.725 15.629999999999999, 25.44 15.84 C 25.11 16.259999999999998, 25.035 16.259999999999998, 24.78 16.68 C 24.6 17.1, 24.555 17.175, 24.42 17.52 C 24.330000000000002 17.79, 24.285000000000004 17.729999999999997, 24.240000000000002 18.06 C 24.240000000000002 18.45, 24.21 18.48, 24.240000000000002 18.84 C 24.3 19.17, 24.225 19.17, 24.36 19.5 C 24.57 19.83, 24.555 19.89, 24.78 20.16 C 25.02 20.37, 24.974999999999998 20.400000000000002, 25.259999999999998 20.580000000000002 C 25.59 20.73, 25.560000000000002 20.759999999999998, 25.92 20.88 C 26.310000000000002 20.97, 26.265 20.97, 26.700000000000003 21.06 C 27.180000000000003 21.15, 27.180000000000007 21.195, 27.660000000000004 21.240000000000002 C 28.14 21.240000000000002, 28.229999999999997 21.240000000000002, 28.619999999999997 21.240000000000002 C 28.919999999999998 21.240000000000002, 28.964999999999996 21.240000000000002, 29.22 21.240000000000002 C 29.43 21.240000000000002, 29.490000000000002 21.240000000000002, 29.64 21.240000000000002 C 29.73 21.240000000000002, 29.73 21.240000000000002, 29.82 21.240000000000002 C 29.91 21.240000000000002, 29.925 21.240000000000002, 30 21.240000000000002 C 30.06 21.240000000000002, 30.089999999999996 21.240000000000002, 30.119999999999997 21.240000000000002 L 30.119999999999997 21.240000000000002" fill="none" stroke="black" stroke-width="5"></path><path d="M 27.54 26.04 C 27.87 26.28, 27.870000000000005 26.235, 28.200000000000003 26.52 C 28.53 26.85, 28.575000000000003 26.759999999999998, 28.86 27.18 C 29.099999999999998 27.69, 29.129999999999995 27.78, 29.339999999999996 28.200000000000003 C 29.52 28.53, 29.565 28.47, 29.700000000000003 28.86 C 29.790000000000003 29.31, 29.835 29.294999999999998, 29.880000000000003 29.759999999999998 C 29.880000000000003 30.24, 29.910000000000004 30.21, 29.880000000000003 30.72 C 29.82 31.259999999999998, 29.895 31.319999999999997, 29.759999999999998 31.799999999999997 C 29.549999999999997 32.22, 29.549999999999997 32.19, 29.339999999999996 32.64 C 29.13 33.12, 29.175 33.14999999999999, 28.92 33.599999999999994 C 28.62 34.019999999999996, 28.755000000000003 34.05, 28.32 34.44 C 27.75 34.8, 27.72 34.785000000000004, 27.18 35.160000000000004 C 26.67 35.55, 26.865000000000002 35.504999999999995, 26.160000000000004 35.94 C 25.26 36.42, 25.185000000000002 36.525000000000006, 24.36 36.900000000000006 C 23.61 37.17, 23.549999999999997 37.26, 22.86 37.44 C 22.23 37.53, 22.185000000000002 37.574999999999996, 21.6 37.62 C 21.060000000000002 37.62, 21.105 37.65, 20.52 37.62 C 19.89 37.56, 19.86 37.635, 19.259999999999998 37.5 C 18.689999999999998 37.29, 18.69 37.44, 18.12 37.08 C 17.55 36.57, 17.445 36.54, 16.98 36.06 C 16.619999999999997 35.61, 16.634999999999998 35.82000000000001, 16.259999999999998 35.160000000000004 C 15.87 34.290000000000006, 15.690000000000001 33.93000000000001, 15.48 33.42 C 15.45 33.269999999999996, 15.434999999999999 33.195, 15.419999999999998 33.12 C 15.419999999999998 33.12, 15.419999999999998 33.12, 15.419999999999998 33.12 L 15.419999999999998 33.12" fill="none" stroke="black" stroke-width="5"></path></svg>