<svg xmlns="http://www.w3.org/2000/svg" viewBox="9.533333778381348 4.1518235206604 23.80666732788086 41.30817413330078" width="23.80666732788086" height="41.30817413330078"><path d="M 11.040000000000001 34.68 C 11.34 34.68, 11.22 34.68, 11.64 34.68 C 12.18 34.68, 11.940000000000001 34.68, 12.72 34.68 C 13.74 34.68, 13.905 34.68, 14.76 34.68 C 15.45 34.68, 15.525 34.68, 16.14 34.68 C 16.68 34.68, 16.634999999999998 34.68, 17.22 34.68 C 17.85 34.68, 17.97 34.68, 18.48 34.68 C 18.869999999999997 34.68, 18.915 34.68, 19.259999999999998 34.68 C 19.56 34.68, 19.68 34.68, 19.86 34.68 L 19.98 34.68" fill="none" stroke="black" stroke-width="5"></path><path d="M 11.64 44.46 C 11.61 44.04, 11.625 44.06999999999999, 11.58 43.62 C 11.52 43.14, 11.579999999999998 43.2, 11.459999999999999 42.660000000000004 C 11.280000000000001 42.06, 11.280000000000001 42.18, 11.100000000000001 41.46 C 10.920000000000002 40.620000000000005, 10.845 40.56, 10.74 39.78 C 10.71 39.06, 10.725 39.03, 10.68 38.339999999999996 C 10.620000000000001 37.67999999999999, 10.59 37.87499999999999, 10.56 37.019999999999996 C 10.56 35.97, 10.5 36.315, 10.56 34.92 C 10.68 33.18, 10.74 33.150000000000006, 10.8 31.44 C 10.8 29.759999999999998, 10.8 29.714999999999996, 10.8 28.08 C 10.8 26.490000000000002, 10.8 26.235, 10.8 24.900000000000002 C 10.8 23.82, 10.755 24.180000000000003, 10.8 22.740000000000002 C 10.89 20.94, 10.830000000000002 20.76, 10.98 19.14 C 11.19 17.7, 11.249999999999998 17.61, 11.399999999999999 16.259999999999998 C 11.489999999999998 15, 11.445 14.835, 11.58 13.74 C 11.76 12.809999999999999, 11.73 13.004999999999999, 11.94 11.879999999999999 C 12.18 10.559999999999999, 12.164999999999997 10.305, 12.419999999999998 9.24 C 12.69 8.43, 12.600000000000001 8.4, 12.96 7.62 C 13.41 6.87, 13.379999999999999 6.720000000000001, 13.86 6.12 C 14.37 5.67, 14.384999999999998 5.46, 14.879999999999999 5.22 C 15.36 5.1899999999999995, 15.27 5.13, 15.84 5.16 C 16.5 5.25, 16.5 5.115, 17.16 5.34 C 17.82 5.7, 17.97 5.715, 18.48 6.0600000000000005 C 18.840000000000003 6.390000000000001, 18.885 6.24, 19.200000000000003 6.720000000000001 C 19.470000000000002 7.3500000000000005, 19.455000000000002 6.735000000000001, 19.740000000000002 7.98 C 20.04 9.84, 20.145 9.809999999999999, 20.34 11.7 C 20.43 13.62, 20.475 13.59, 20.52 15.54 C 20.52 17.52, 20.52 17.67, 20.52 19.5 C 20.52 21.18, 20.52 21.825, 20.52 22.86 C 20.52 23.25, 20.52 23.445, 20.52 23.64 C 20.52 23.64, 20.52 23.64, 20.52 23.64 C 20.52 23.64, 20.52 23.64, 20.52 23.64 C 20.52 23.64, 20.52 23.64, 20.52 23.64 C 20.52 23.64, 20.52 23.64, 20.52 23.64 C 20.52 23.64, 20.369999999999997 23.700000000000003, 20.52 23.64 C 20.82 23.52, 20.73 23.505, 21.12 23.4 C 21.6 23.31, 21.6 23.294999999999998, 22.080000000000002 23.22 C 22.560000000000002 23.16, 22.38 23.130000000000003, 23.04 23.1 C 23.88 23.1, 23.865 23.1, 24.72 23.1 C 25.59 23.1, 25.59 23.1, 26.46 23.1 C 27.330000000000002 23.1, 27.450000000000003 23.1, 28.200000000000003 23.1 C 28.830000000000002 23.1, 28.830000000000002 23.1, 29.46 23.1 C 30.09 23.1, 30.195 23.025000000000002, 30.72 23.1 C 31.14 23.25, 31.32 23.325, 31.56 23.4 C 31.619999999999997 23.4, 31.605 23.4, 31.68 23.4 C 31.77 23.4, 31.785 23.369999999999997, 31.86 23.4 C 31.92 23.46, 31.95 23.49, 31.98 23.52 C 31.98 23.52, 31.935 23.505, 31.98 23.52 C 32.07 23.55, 32.07000000000001 23.520000000000003, 32.160000000000004 23.580000000000002 C 32.25 23.67, 32.295 23.715, 32.339999999999996 23.759999999999998 C 32.339999999999996 23.759999999999998, 32.339999999999996 23.759999999999998, 32.339999999999996 23.759999999999998 C 32.339999999999996 23.759999999999998, 32.339999999999996 23.759999999999998, 32.339999999999996 23.759999999999998 C 32.339999999999996 23.759999999999998, 32.339999999999996 23.759999999999998, 32.339999999999996 23.759999999999998 L 32.339999999999996 23.759999999999998" fill="none" stroke="black" stroke-width="5"></path><path d="M 31.86 16.5 C 31.380000000000003 16.62, 31.62 16.635, 30.900000000000002 16.740000000000002 C 29.94 16.83, 29.775000000000002 16.875, 28.98 16.919999999999998 C 28.35 16.919999999999998, 28.275 16.964999999999996, 27.72 16.919999999999998 C 27.24 16.83, 27.269999999999996 16.965000000000003, 26.759999999999998 16.740000000000002 C 26.22 16.380000000000003, 26.16 16.47, 25.68 16.02 C 25.259999999999998 15.48, 25.124999999999996 15.510000000000002, 24.839999999999996 14.940000000000001 C 24.689999999999998 14.34, 24.615 14.55, 24.54 13.74 C 24.54 12.719999999999999, 24.479999999999997 12.57, 24.54 11.7 C 24.66 10.98, 24.495 11.129999999999999, 24.78 10.26 C 25.23 9.24, 25.08 9.165000000000001, 25.68 8.22 C 26.43 7.3500000000000005, 26.49 7.065, 27.18 6.48 C 27.810000000000002 6.18, 27.96 6.03, 28.44 5.88 C 28.77 5.88, 28.74 5.79, 29.099999999999998 5.88 C 29.490000000000002 6.0600000000000005, 29.43 5.775, 29.880000000000003 6.24 C 30.39 6.99, 30.525000000000002 6.885, 30.900000000000002 7.74 C 31.14 8.7, 31.185000000000002 8.685, 31.380000000000003 9.66 C 31.53 10.65, 31.53 10.290000000000001, 31.68 11.64 C 31.83 13.35, 31.905 13.034999999999998, 31.98 15.059999999999999 C 31.98 17.4, 31.98 17.61, 31.98 19.740000000000002 C 31.98 21.660000000000004, 31.995 21.645000000000003, 31.98 23.580000000000002 C 31.950000000000003 25.53, 32.055 25.77, 31.92 27.48 C 31.68 28.950000000000003, 31.740000000000002 28.53, 31.44 30.42 C 31.08 32.730000000000004, 31.05 33.06, 30.72 35.04 C 30.419999999999998 36.69, 30.314999999999998 37.14, 30.119999999999997 38.339999999999996 C 30.03 39.089999999999996, 30.075000000000003 38.985, 29.94 39.839999999999996 C 29.759999999999998 40.8, 29.7 41.05499999999999, 29.58 41.76 C 29.52 42.21, 29.490000000000002 42.39, 29.46 42.660000000000004 C 29.46 42.75, 29.46 42.795, 29.46 42.839999999999996 L 29.46 42.839999999999996" fill="none" stroke="black" stroke-width="5"></path></svg>