<svg xmlns="http://www.w3.org/2000/svg" viewBox="12.460000038146973 11.020000457763672 20.040000915527344 35.52000045776367" width="20.040000915527344" height="35.52000045776367"><path d="M 16.14 45.54 C 15.9 45.18, 15.9 45.51, 15.66 44.82 C 15.42 43.8, 15.36 43.8, 15.18 42.78 C 15.06 41.760000000000005, 15.09 41.865, 14.940000000000001 40.74 C 14.760000000000002 39.510000000000005, 14.745000000000003 39.36, 14.580000000000002 38.28 C 14.43 37.35, 14.445 37.455, 14.28 36.42 C 14.099999999999998 35.28, 14.069999999999999 35.34, 13.919999999999998 34.14 C 13.799999999999999 32.879999999999995, 13.785 32.699999999999996, 13.68 31.619999999999997 C 13.59 30.72, 13.545 30.81, 13.5 29.82 C 13.5 28.740000000000002, 13.5 28.725000000000005, 13.5 27.660000000000004 C 13.5 26.61, 13.5 26.505, 13.5 25.56 C 13.5 24.72, 13.41 24.54, 13.5 23.88 C 13.68 23.4, 13.665 23.354999999999997, 13.86 22.919999999999998 C 14.07 22.53, 14.145 22.425, 14.28 22.14 C 14.34 21.96, 14.219999999999999 22.035, 14.399999999999999 21.78 C 14.7 21.450000000000003, 14.715 21.375, 15 21.12 C 15.27 20.939999999999998, 15.18 20.909999999999997, 15.54 20.759999999999998 C 15.99 20.64, 16.05 20.61, 16.44 20.52 C 16.770000000000003 20.46, 16.665000000000003 20.43, 17.1 20.4 C 17.64 20.4, 17.61 20.4, 18.18 20.4 C 18.78 20.4, 18.825 20.4, 19.38 20.4 C 19.89 20.4, 19.68 20.4, 20.4 20.4 C 21.33 20.4, 21.134999999999998 20.4, 22.259999999999998 20.4 C 23.58 20.4, 23.925 20.354999999999997, 24.900000000000002 20.4 C 25.53 20.490000000000002, 25.560000000000006 20.535, 26.160000000000004 20.580000000000002 C 26.73 20.580000000000002, 26.759999999999998 20.580000000000002, 27.299999999999997 20.580000000000002 C 27.81 20.580000000000002, 27.735 20.730000000000004, 28.32 20.580000000000002 C 28.98 20.28, 29.1 20.325, 29.64 19.98 C 30.060000000000002 19.590000000000003, 30.12 19.635, 30.48 19.200000000000003 C 30.78 18.720000000000002, 30.884999999999998 18.720000000000002, 31.08 18.240000000000002 C 31.169999999999998 17.76, 31.169999999999998 17.835, 31.259999999999998 17.28 C 31.35 16.65, 31.395 16.634999999999998, 31.44 16.02 C 31.44 15.42, 31.53 15.315000000000001, 31.44 14.82 C 31.259999999999998 14.43, 31.29 14.444999999999999, 31.08 14.04 C 30.839999999999996 13.620000000000001, 31.004999999999995 13.575000000000001, 30.599999999999998 13.200000000000001 C 30.03 12.870000000000001, 30.105 12.795, 29.46 12.54 C 28.740000000000002 12.36, 28.68 12.3, 28.02 12.18 C 27.42 12.12, 27.225 12.09, 26.82 12.059999999999999 C 26.61 12.059999999999999, 26.64 11.969999999999999, 26.400000000000002 12.059999999999999 C 26.130000000000003 12.239999999999998, 26.115 12.089999999999998, 25.86 12.419999999999998 C 25.62 12.899999999999999, 25.53 12.869999999999997, 25.380000000000003 13.379999999999999 C 25.32 13.92, 25.29 13.995000000000001, 25.259999999999998 14.46 C 25.259999999999998 14.850000000000001, 25.244999999999997 14.985, 25.259999999999998 15.24 C 25.29 15.36, 25.11 15.3, 25.32 15.48 C 25.71 15.72, 25.694999999999997 15.735000000000001, 26.099999999999998 15.96 C 26.52 16.17, 26.490000000000002 16.2, 26.94 16.38 C 27.42 16.53, 27.465000000000003 16.56, 27.900000000000002 16.68 C 28.29 16.77, 28.335 16.814999999999998, 28.68 16.86 C 28.98 16.86, 28.98 16.86, 29.28 16.86 C 29.580000000000002 16.86, 29.685000000000002 16.86, 29.880000000000003 16.86 C 29.97 16.86, 29.97 16.86, 30.06 16.86 C 30.15 16.86, 30.12 16.814999999999998, 30.240000000000002 16.86 C 30.39 16.95, 30.345 16.979999999999997, 30.54 17.04 C 30.78 17.07, 30.825 17.07, 31.02 17.1 C 31.17 17.130000000000003, 31.2 17.145, 31.32 17.16 C 31.41 17.16, 31.455 17.16, 31.5 17.16 C 31.5 17.16, 31.5 17.16, 31.5 17.16 L 31.5 17.16" fill="none" stroke="black" stroke-width="5"></path><path d="M 27.78 20.88 C 27.81 20.88, 27.659999999999997 20.744999999999997, 27.839999999999996 20.88 C 28.169999999999998 21.15, 28.2 21.165, 28.5 21.419999999999998 C 28.77 21.659999999999997, 28.785 21.615, 29.04 21.9 C 29.28 22.229999999999997, 29.25 22.139999999999997, 29.52 22.56 C 29.82 23.07, 29.894999999999996 23.01, 30.119999999999997 23.580000000000002 C 30.27 24.21, 30.315 24.15, 30.42 24.839999999999996 C 30.48 25.589999999999996, 30.509999999999998 25.679999999999996, 30.54 26.339999999999996 C 30.54 26.909999999999997, 30.63 26.88, 30.54 27.48 C 30.36 28.11, 30.375 28.185000000000002, 30.18 28.740000000000002 C 29.97 29.220000000000002, 30.134999999999998 29.160000000000004, 29.759999999999998 29.700000000000003 C 29.22 30.300000000000004, 29.16 30.405, 28.68 30.900000000000002 C 28.259999999999998 31.29, 28.349999999999994 31.32, 27.839999999999996 31.68 C 27.24 32.01, 27.24 32.129999999999995, 26.64 32.339999999999996 C 26.04 32.42999999999999, 25.935000000000002 32.474999999999994, 25.44 32.519999999999996 C 25.050000000000004 32.519999999999996, 25.020000000000003 32.535, 24.660000000000004 32.519999999999996 C 24.330000000000002 32.489999999999995, 24.405 32.595, 24 32.46 C 23.52 32.22, 23.49 32.25, 23.04 31.98 C 22.62 31.68, 22.575000000000003 31.680000000000003, 22.200000000000003 31.380000000000003 C 21.87 31.080000000000002, 21.81 31.050000000000004, 21.54 30.78 C 21.33 30.54, 21.255000000000003 30.464999999999996, 21.12 30.299999999999997 C 21.060000000000002 30.209999999999997, 21.03 30.239999999999995, 21 30.119999999999997 L 21 29.82" fill="none" stroke="black" stroke-width="5"></path></svg>