<svg xmlns="http://www.w3.org/2000/svg" viewBox="9.026666641235352 2.240000009536743 23.64666748046875 45.31999969482422" width="23.64666748046875" height="45.31999969482422"><path d="M 14.82 3.24 C 14.37 4.92, 14.399999999999999 4.755000000000001, 13.919999999999998 6.6000000000000005 C 13.409999999999998 8.610000000000001, 13.424999999999997 8.610000000000001, 12.899999999999999 10.620000000000001 C 12.36 12.63, 12.24 12.825000000000001, 11.82 14.64 C 11.52 16.259999999999998, 11.55 16.41, 11.22 17.88 C 10.86 19.2, 10.74 19.35, 10.5 20.52 C 10.379999999999999 21.54, 10.365 21.36, 10.26 22.56 C 10.17 23.939999999999998, 10.125 24.33, 10.08 25.32 C 10.08 25.92, 9.96 26.04, 10.08 26.52 C 10.32 26.880000000000003, 10.32 27.060000000000002, 10.56 27.240000000000002 C 10.8 27.240000000000002, 10.770000000000001 27.330000000000002, 11.040000000000001 27.240000000000002 C 11.34 27.060000000000002, 11.190000000000001 27.330000000000002, 11.64 26.880000000000003 C 12.24 26.160000000000004, 12.165 26.385, 12.84 25.44 C 13.59 24.270000000000003, 13.815 23.955000000000002, 14.34 23.1 C 14.64 22.560000000000002, 14.535 22.86, 14.940000000000001 22.02 C 15.450000000000001 20.880000000000003, 15.57 20.775000000000002, 15.96 19.740000000000002 C 16.23 18.810000000000002, 16.26 18.6, 16.5 17.88 C 16.71 17.369999999999997, 16.814999999999998 17.115, 16.919999999999998 16.86 C 16.919999999999998 16.86, 16.874999999999996 16.89, 16.919999999999998 16.86 C 17.009999999999998 16.8, 16.995 16.755000000000003, 17.1 16.740000000000002 C 17.22 16.77, 17.28 16.514999999999997, 17.34 16.799999999999997 C 17.34 17.339999999999996, 17.415 17.25, 17.34 17.88 C 17.189999999999998 18.6, 17.25 18.435000000000002, 17.04 19.32 C 16.77 20.369999999999997, 16.634999999999998 20.549999999999997, 16.5 21.419999999999998 C 16.5 22.11, 16.5 22.034999999999997, 16.5 22.799999999999997 C 16.5 23.64, 16.41 23.775, 16.5 24.48 C 16.68 25.049999999999997, 16.56 25.004999999999995, 16.86 25.619999999999997 C 17.28 26.28, 17.205000000000002 26.4, 17.700000000000003 26.94 C 18.270000000000003 27.36, 18.27 27.450000000000003, 18.84 27.78 C 19.41 28.02, 19.245 28.08, 19.98 28.259999999999998 C 20.880000000000003 28.38, 20.880000000000003 28.439999999999998, 21.78 28.5 C 22.68 28.5, 22.575000000000003 28.5, 23.580000000000002 28.5 C 24.689999999999998 28.5, 24.944999999999997 28.605, 25.799999999999997 28.5 C 26.4 28.29, 26.325 28.334999999999997, 27 28.08 C 27.75 27.78, 27.84 27.93, 28.5 27.48 C 29.07 26.880000000000003, 29.19 26.925, 29.64 26.28 C 29.97 25.590000000000003, 29.97 25.755000000000003, 30.299999999999997 24.900000000000002 C 30.63 23.880000000000003, 30.705 23.865000000000002, 30.96 22.86 C 31.14 21.869999999999997, 31.155 21.96, 31.32 20.88 C 31.47 19.71, 31.544999999999998 19.485, 31.619999999999997 18.54 C 31.619999999999997 17.82, 31.619999999999997 17.580000000000002, 31.619999999999997 17.1 C 31.619999999999997 16.86, 31.739999999999995 16.965, 31.619999999999997 16.62 C 31.38 16.17, 31.47 16.11, 31.14 15.72 C 30.72 15.39, 30.854999999999997 15.314999999999998, 30.299999999999997 15.059999999999999 C 29.61 14.879999999999999, 29.64 14.775, 28.92 14.700000000000001 C 28.17 14.73, 28.275000000000002 14.55, 27.42 14.76 C 26.46 15.149999999999999, 26.325000000000003 15.044999999999998, 25.5 15.54 C 24.81 16.14, 24.824999999999996 15.885000000000002, 24.119999999999997 16.740000000000002 C 23.4 17.85, 23.22 17.97, 22.68 18.96 C 22.32 19.830000000000002, 22.245 19.695000000000004, 21.96 20.700000000000003 C 21.75 21.840000000000003, 21.689999999999998 21.75, 21.54 22.98 C 21.45 24.299999999999997, 21.405 24.389999999999997, 21.36 25.619999999999997 C 21.36 26.759999999999998, 21.314999999999998 26.775000000000002, 21.36 27.900000000000002 C 21.45 29.009999999999998, 21.36 29.235, 21.54 30.119999999999997 C 21.810000000000002 30.78, 21.615000000000002 30.705, 22.080000000000002 31.44 C 22.740000000000002 32.25, 22.65 32.34, 23.4 33.06 C 24.24 33.69, 24.284999999999997 33.825, 25.08 34.32 C 25.83 34.68, 25.754999999999995 34.65, 26.58 35.04 C 27.48 35.46, 27.645000000000003 35.52, 28.380000000000003 35.88 C 28.950000000000003 36.18000000000001, 29.07 36.21000000000001, 29.52 36.480000000000004 C 29.85 36.72, 30.015 36.84, 30.18 36.96 C 30.18 36.96, 30.18 36.96, 30.18 36.96 C 30.18 36.96, 30.119999999999997 36.84, 30.18 36.96 C 30.3 37.2, 30.39 37.245, 30.42 37.44 C 30.36 37.59, 30.419999999999998 37.665, 30.299999999999997 37.74 C 30.119999999999997 37.74, 30.18 37.74, 29.94 37.74 C 29.64 37.74, 29.865 37.74, 29.339999999999996 37.74 C 28.589999999999996 37.74, 28.754999999999995 37.74, 27.839999999999996 37.74 C 26.759999999999998 37.74, 26.685 37.74, 25.68 37.74 C 24.75 37.74, 24.825 37.74, 23.82 37.74 C 22.740000000000002 37.74, 22.740000000000002 37.650000000000006, 21.66 37.74 C 20.58 37.92, 20.475 37.769999999999996, 19.5 38.099999999999994 C 18.63 38.58, 18.525 38.505, 17.759999999999998 39.06 C 17.1 39.69, 17.07 39.585, 16.44 40.32 C 15.84 41.16, 15.75 41.19, 15.24 42 C 14.82 42.78, 14.7 42.81, 14.399999999999999 43.56 C 14.219999999999999 44.28, 14.129999999999999 44.475, 14.04 45 C 14.04 45.33, 14.024999999999999 45.300000000000004, 14.04 45.660000000000004 C 14.07 46.05, 14.085 46.214999999999996, 14.100000000000001 46.44 C 14.100000000000001 46.5, 14.100000000000001 46.53, 14.100000000000001 46.56 L 14.100000000000001 46.56" fill="none" stroke="black" stroke-width="5"></path></svg>