<svg xmlns="http://www.w3.org/2000/svg" viewBox="11.166666984558105 1.880000114440918 21.213333129882812 40.57999897003174" width="21.213333129882812" height="40.57999897003174"><path d="M 12.72 2.88 C 12.900000000000002 3.27, 13.005000000000003 2.535, 13.080000000000002 3.66 C 13.05 5.52, 13.11 5.58, 13.02 7.38 C 12.870000000000001 9.12, 12.885000000000002 9.09, 12.72 10.86 C 12.54 12.66, 12.45 12.57, 12.36 14.46 C 12.36 16.439999999999998, 12.405 16.755, 12.36 18.419999999999998 C 12.27 19.77, 12.225 20.055, 12.18 21.12 C 12.18 21.9, 12.18 21.765, 12.18 22.68 C 12.18 23.73, 12.15 23.94, 12.18 24.78 C 12.239999999999998 25.41, 12.165 25.395, 12.299999999999999 26.04 C 12.51 26.7, 12.405000000000001 26.82, 12.72 27.36 C 13.14 27.78, 13.274999999999999 27.975, 13.559999999999999 28.200000000000003 C 13.709999999999999 28.23, 13.44 28.155, 13.86 28.259999999999998 C 14.55 28.439999999999998, 14.370000000000001 28.485, 15.24 28.619999999999997 C 16.29 28.709999999999997, 16.23 28.754999999999995, 17.34 28.799999999999997 C 18.509999999999998 28.799999999999997, 18.735 28.799999999999997, 19.68 28.799999999999997 C 20.4 28.799999999999997, 20.145 28.799999999999997, 21.12 28.799999999999997 C 22.35 28.799999999999997, 22.410000000000004 28.799999999999997, 23.580000000000002 28.799999999999997 C 24.689999999999998 28.799999999999997, 24.749999999999996 28.799999999999997, 25.799999999999997 28.799999999999997 C 26.79 28.799999999999997, 27.015 28.799999999999997, 27.78 28.799999999999997 C 28.32 28.799999999999997, 28.275 28.83, 28.86 28.799999999999997 C 29.49 28.74, 29.699999999999996 28.814999999999998, 30.119999999999997 28.68 C 30.33 28.47, 30.39 28.56, 30.54 28.259999999999998 C 30.63 27.869999999999997, 30.674999999999997 27.945, 30.72 27.48 C 30.72 26.94, 30.705 26.880000000000003, 30.72 26.400000000000002 C 30.75 25.98, 30.69 26.189999999999998, 30.78 25.56 C 30.93 24.72, 30.974999999999998 24.659999999999997, 31.08 23.88 C 31.14 23.16, 31.17 23.235, 31.200000000000003 22.44 C 31.200000000000003 21.57, 31.305000000000003 21.360000000000003, 31.200000000000003 20.700000000000003 C 30.990000000000002 20.25, 31.080000000000002 20.384999999999998, 30.78 19.799999999999997 C 30.39 19.08, 30.39 18.93, 30 18.36 C 29.61 17.939999999999998, 29.744999999999997 17.895, 29.22 17.52 C 28.560000000000002 17.189999999999998, 28.470000000000002 17.025, 27.900000000000002 16.86 C 27.42 16.86, 27.48 16.845, 26.94 16.86 C 26.340000000000003 16.89, 26.295 16.695, 25.740000000000002 16.919999999999998 C 25.23 17.339999999999996, 25.11 17.384999999999998, 24.72 17.759999999999998 C 24.45 18.089999999999996, 24.48 17.97, 24.18 18.419999999999998 C 23.85 18.99, 23.685 19.154999999999998, 23.52 19.56 C 23.52 19.799999999999997, 23.49 19.77, 23.52 20.04 C 23.58 20.34, 23.415 20.265, 23.64 20.64 C 24.03 21.09, 24.060000000000002 21.195, 24.42 21.54 C 24.75 21.78, 24.674999999999997 21.78, 25.08 22.02 C 25.56 22.259999999999998, 25.515 22.29, 26.04 22.5 C 26.61 22.68, 26.655 22.74, 27.18 22.86 C 27.66 22.92, 27.75 22.95, 28.14 22.98 C 28.44 22.98, 28.365000000000002 22.98, 28.740000000000002 22.98 C 29.19 22.98, 29.175 22.98, 29.64 22.98 C 30.119999999999997 22.98, 30.255 22.98, 30.599999999999998 22.98 C 30.81 22.98, 30.915 22.98, 31.02 22.98 C 31.02 22.98, 31.02 22.98, 31.02 22.98 C 31.02 22.98, 30.93 22.98, 31.02 22.98 C 31.200000000000003 22.98, 31.290000000000003 22.98, 31.380000000000003 22.98 L 31.380000000000003 22.98" fill="none" stroke="black" stroke-width="5"></path><path d="M 28.5 28.68 C 28.77 28.74, 28.665 28.665, 29.04 28.799999999999997 C 29.52 29.009999999999998, 29.625 29.025, 30 29.22 C 30.27 29.4, 30.285 29.31, 30.54 29.58 C 30.78 29.939999999999998, 30.854999999999997 29.759999999999998, 31.02 30.299999999999997 C 31.11 31.02, 31.125000000000004 31.185000000000002, 31.200000000000003 31.740000000000002 C 31.26 32.129999999999995, 31.29 32.025, 31.32 32.519999999999996 C 31.32 33.12, 31.32 32.985, 31.32 33.72 C 31.32 34.59, 31.365000000000002 34.71, 31.32 35.46 C 31.23 36.09, 31.26 36.12, 31.14 36.72 C 30.99 37.29, 31.004999999999995 37.41, 30.839999999999996 37.86 C 30.659999999999997 38.19, 30.689999999999998 38.03999999999999, 30.48 38.519999999999996 C 30.240000000000002 39.15, 30.225 39.345, 30 39.78 C 29.79 40.019999999999996, 29.744999999999997 40.019999999999996, 29.58 40.26 C 29.459999999999997 40.5, 29.58 40.53, 29.339999999999996 40.74 C 28.979999999999997 40.92, 29.114999999999995 40.919999999999995, 28.619999999999997 41.099999999999994 C 27.99 41.28, 27.945 41.385, 27.36 41.46 C 26.82 41.43000000000001, 26.715000000000003 41.49000000000001, 26.28 41.400000000000006 C 25.95 41.25, 26.069999999999997 41.519999999999996, 25.619999999999997 41.099999999999994 C 25.049999999999997 40.41, 24.915 40.349999999999994, 24.48 39.72 C 24.18 39.15, 24.06 39.239999999999995, 23.88 38.58 C 23.82 37.83, 23.669999999999998 37.739999999999995, 23.759999999999998 37.08 C 24 36.51, 23.955000000000002 36.435, 24.240000000000002 35.94 C 24.57 35.519999999999996, 24.405 35.519999999999996, 24.900000000000002 35.099999999999994 C 25.560000000000002 34.67999999999999, 25.575 34.53, 26.22 34.26 C 26.85 34.14, 26.97 34.08, 27.48 34.019999999999996 C 27.869999999999997 34.019999999999996, 27.825 34.004999999999995, 28.259999999999998 34.019999999999996 C 28.74 34.05, 28.784999999999997 33.989999999999995, 29.22 34.08 C 29.61 34.230000000000004, 29.685 34.215, 30 34.38 C 30.240000000000002 34.56, 30.270000000000003 34.575, 30.48 34.74 C 30.659999999999997 34.89, 30.749999999999996 34.965, 30.839999999999996 35.04 C 30.839999999999996 35.04, 30.749999999999993 34.949999999999996, 30.839999999999996 35.04 C 31.02 35.22, 31.095000000000002 35.26500000000001, 31.200000000000003 35.400000000000006 C 31.23 35.49, 31.244999999999997 35.535, 31.259999999999998 35.58 C 31.259999999999998 35.58, 31.259999999999998 35.58, 31.259999999999998 35.58 C 31.259999999999998 35.58, 31.259999999999998 35.58, 31.259999999999998 35.58 C 31.259999999999998 35.58, 31.259999999999998 35.58, 31.259999999999998 35.58 L 31.259999999999998 35.58" fill="none" stroke="black" stroke-width="5"></path></svg>