<svg xmlns="http://www.w3.org/2000/svg" viewBox="12.319999694824219 2 17.65999984741211 40.099998474121094" width="17.65999984741211" height="40.099998474121094"><path d="M 17.28 34.980000000000004 C 16.92 33.63, 16.845 33.45, 16.56 32.28 C 16.35 31.29, 16.38 31.214999999999996, 16.14 30.299999999999997 C 15.870000000000001 29.459999999999997, 15.855 29.819999999999997, 15.600000000000001 28.619999999999997 C 15.360000000000001 27.06, 15.360000000000001 27.015, 15.120000000000001 25.5 C 14.88 24.03, 14.760000000000002 23.775, 14.64 22.56 C 14.64 21.6, 14.625 21.57, 14.64 20.64 C 14.670000000000002 19.740000000000002, 14.535000000000002 19.755, 14.700000000000001 18.84 C 15 17.91, 14.954999999999998 17.775, 15.299999999999999 16.98 C 15.690000000000001 16.32, 15.765000000000002 16.155, 16.080000000000002 15.66 C 16.32 15.33, 16.32 15.27, 16.56 15 C 16.799999999999997 14.790000000000001, 16.755 14.670000000000002, 17.04 14.580000000000002 C 17.37 14.610000000000001, 17.325000000000003 14.520000000000001, 17.700000000000003 14.64 C 18.12 14.85, 18.165 14.745, 18.54 15.059999999999999 C 18.87 15.479999999999999, 18.885000000000005 15.374999999999998, 19.200000000000003 15.899999999999999 C 19.5 16.53, 19.529999999999998 16.5, 19.799999999999997 17.16 C 20.04 17.85, 20.055 17.73, 20.28 18.54 C 20.490000000000002 19.47, 20.550000000000004 19.724999999999998, 20.700000000000003 20.4 C 20.79 20.82, 20.835 21.03, 20.88 21.240000000000002 C 20.88 21.240000000000002, 20.88 21.240000000000002, 20.88 21.240000000000002 C 20.88 21.240000000000002, 20.88 21.375, 20.88 21.240000000000002 C 20.88 20.970000000000002, 20.775 21.285000000000004, 20.88 20.700000000000003 C 21.089999999999996 19.8, 21.029999999999998 19.755, 21.299999999999997 18.9 C 21.63 18.09, 21.645 17.895, 21.96 17.28 C 22.259999999999998 16.86, 22.154999999999998 16.89, 22.56 16.44 C 23.07 15.96, 23.085 15.84, 23.580000000000002 15.48 C 24.060000000000002 15.24, 24.18 15.120000000000001, 24.54 15 C 24.78 15, 24.78 15, 25.02 15 C 25.259999999999998 15, 25.215 14.745000000000001, 25.5 15 C 25.830000000000002 15.51, 25.935000000000002 15.6, 26.160000000000004 16.02 C 26.28 16.35, 26.28 16.215, 26.400000000000002 16.68 C 26.520000000000003 17.28, 26.535 17.235, 26.64 17.88 C 26.73 18.57, 26.775 18.599999999999998, 26.82 19.259999999999998 C 26.82 19.89, 26.865000000000002 19.724999999999998, 26.82 20.52 C 26.73 21.48, 26.73 21.495, 26.64 22.44 C 26.55 23.369999999999997, 26.700000000000003 22.859999999999996, 26.46 24.299999999999997 C 26.07 26.25, 26.009999999999998 26.790000000000003, 25.68 28.200000000000003 C 25.41 29.07, 25.41 29.01, 25.14 29.94 C 24.869999999999997 30.93, 24.839999999999996 31.065, 24.599999999999998 31.92 C 24.39 32.64, 24.3 32.925, 24.18 33.36 C 24.15 33.510000000000005, 24.134999999999998 33.585, 24.119999999999997 33.660000000000004 C 24.119999999999997 33.660000000000004, 24.119999999999997 33.660000000000004, 24.119999999999997 33.660000000000004 C 24.119999999999997 33.660000000000004, 24.119999999999997 33.660000000000004, 24.119999999999997 33.660000000000004 C 24.119999999999997 33.660000000000004, 24.15 33.58500000000001, 24.119999999999997 33.660000000000004 C 24.06 33.81, 24.044999999999998 33.84, 24 33.96 C 23.97 34.05, 23.955000000000002 34.095, 23.94 34.14 C 23.94 34.14, 23.94 34.14, 23.94 34.14 L 23.94 34.14" fill="none" stroke="black" stroke-width="5"></path><path d="M 13.32 36.06 C 13.65 35.88, 13.080000000000002 35.940000000000005, 13.98 35.7 C 15.45 35.4, 15.344999999999999 35.294999999999995, 16.919999999999998 35.099999999999994 C 18.6 35.01, 18.285 34.965, 20.28 34.92 C 22.590000000000003 34.92, 23.130000000000003 34.92, 24.900000000000002 34.92 C 26.130000000000003 34.92, 26.505 34.845, 27.36 34.92 C 27.84 35.07, 27.915 35.085, 28.32 35.22 L 28.98 35.46" fill="none" stroke="black" stroke-width="5"></path><path d="M 13.919999999999998 41.099999999999994 C 14.01 40.949999999999996, 13.56 41.01, 14.100000000000001 40.8 C 15.090000000000002 40.53, 15.000000000000004 40.394999999999996, 16.080000000000002 40.26 C 17.25 40.26, 17.4 40.245, 18.419999999999998 40.26 C 19.29 40.29, 19.244999999999997 40.305, 20.16 40.32 C 21.12 40.32, 21.135 40.275, 22.080000000000002 40.32 C 23.01 40.41, 23.130000000000003 40.455, 23.94 40.5 C 24.630000000000003 40.5, 24.66 40.455, 25.32 40.5 C 25.95 40.59, 26.145 40.635, 26.58 40.68 C 26.82 40.68, 26.939999999999998 40.68, 27.06 40.68 L 27.06 40.68" fill="none" stroke="black" stroke-width="5"></path><path d="M 22.5 3 C 22.14 3.42, 22.71 3.195, 21.78 3.84 C 20.28 4.71, 20.055 4.83, 18.78 5.58 C 17.73 6.21, 17.475 6.285, 16.68 6.84 C 16.14 7.32, 15.96 7.470000000000001, 15.600000000000001 7.800000000000001 L 15.24 8.16" fill="none" stroke="black" stroke-width="5"></path><path d="M 28.92 4.92 C 28.259999999999998 5.43, 28.214999999999996 5.43, 27.599999999999998 5.9399999999999995 C 27.03 6.449999999999999, 27.375 6.1949999999999985, 26.46 6.959999999999999 C 25.200000000000003 7.9799999999999995, 24.900000000000002 8.25, 23.94 9 C 23.28 9.48, 23.16 9.569999999999999, 22.62 9.959999999999999 L 21.78 10.56" fill="none" stroke="black" stroke-width="5"></path></svg>