<svg xmlns="http://www.w3.org/2000/svg" viewBox="8.300000190734863 6.320000171661377 20.659998893737793 36.74000120162964" width="20.659998893737793" height="36.74000120162964"><path d="M 12.18 28.32 C 12 27.27, 12 27.225, 11.82 26.22 C 11.64 25.259999999999998, 11.594999999999999 24.944999999999997, 11.459999999999999 24.299999999999997 C 11.37 23.97, 11.325 24, 11.28 23.64 C 11.28 23.25, 11.19 23.325, 11.28 22.86 C 11.46 22.32, 11.505 22.17, 11.64 21.78 C 11.73 21.54, 11.73 21.464999999999996, 11.82 21.299999999999997 C 11.91 21.21, 11.745000000000001 21.315, 12 21.12 C 12.42 20.82, 12.27 20.79, 12.84 20.52 C 13.559999999999999 20.28, 13.559999999999999 20.25, 14.28 20.04 C 15 19.86, 14.955 19.814999999999998, 15.72 19.68 C 16.53 19.59, 16.545 19.59, 17.34 19.5 C 18.119999999999997 19.41, 17.759999999999998 19.365000000000002, 18.9 19.32 C 20.4 19.32, 20.474999999999998 19.32, 21.9 19.32 C 23.25 19.32, 23.474999999999998 19.32, 24.599999999999998 19.32 C 25.5 19.32, 25.725 19.305, 26.400000000000002 19.32 C 26.85 19.35, 27.029999999999998 19.365, 27.299999999999997 19.38 C 27.39 19.38, 27.314999999999998 19.349999999999998, 27.48 19.38 L 27.96 19.5" fill="none" stroke="black" stroke-width="5"></path><path d="M 19.259999999999998 7.32 C 18.57 7.710000000000001, 19.02 7.500000000000002, 17.88 8.100000000000001 C 16.29 8.91, 15.795000000000002 9.09, 14.700000000000001 9.72 C 14.100000000000001 10.170000000000002, 13.935 10.32, 13.5 10.620000000000001 C 13.23 10.77, 13.095 10.845, 12.96 10.92 L 12.96 10.92" fill="none" stroke="black" stroke-width="5"></path><path d="M 27.119999999999997 9 C 26.61 9.39, 26.879999999999995 9.239999999999998, 26.099999999999998 9.78 C 25.049999999999997 10.469999999999999, 25.259999999999998 10.425, 24 11.16 C 22.53 11.940000000000001, 22.125 12.165000000000001, 21.06 12.72 L 19.740000000000002 13.379999999999999" fill="none" stroke="black" stroke-width="5"></path><path d="M 19.5 19.98 C 19.5 21.090000000000003, 19.5 21.165000000000003, 19.5 22.200000000000003 C 19.5 23.16, 19.5 23.25, 19.5 24.119999999999997 C 19.5 24.9, 19.53 24.884999999999998, 19.5 25.68 C 19.439999999999998 26.49, 19.47 26.489999999999995, 19.38 27.299999999999997 C 19.259999999999998 28.11, 19.245 28.23, 19.14 28.92 C 19.05 29.490000000000002, 19.11 29.43, 18.96 30.06 C 18.75 30.75, 18.854999999999997 30.585, 18.54 31.44 C 18.12 32.46, 18.105000000000004 32.550000000000004, 17.700000000000003 33.480000000000004 C 17.310000000000002 34.32000000000001, 17.294999999999998 34.440000000000005, 16.919999999999998 35.160000000000004 C 16.560000000000002 35.760000000000005, 16.815 35.58, 16.200000000000003 36.36 C 15.330000000000002 37.32, 15.285000000000002 37.425, 14.46 38.28 C 13.68 39.03, 13.724999999999998 39.09, 12.899999999999999 39.78 C 12.03 40.41, 11.969999999999999 40.515, 11.16 41.04 C 10.41 41.46, 10.125 41.625, 9.66 41.88 C 9.48 41.97, 9.39 42.015, 9.3 42.06 C 9.3 42.06, 9.3 42.06, 9.3 42.06 L 9.3 42.06" fill="none" stroke="black" stroke-width="5"></path><path d="M 16.799999999999997 37.14 C 18.419999999999998 37.05, 18.555 37.05, 20.04 36.96 C 21.39 36.870000000000005, 21.270000000000003 36.825, 22.740000000000002 36.78 C 24.330000000000002 36.78, 24.93 36.78, 25.92 36.78 C 26.310000000000002 36.78, 26.430000000000003 36.78, 26.700000000000003 36.78 C 26.85 36.78, 26.880000000000003 36.78, 27 36.78 C 27.09 36.78, 27.134999999999998 36.78, 27.18 36.78 L 27.18 36.78" fill="none" stroke="black" stroke-width="5"></path></svg>