<svg xmlns="http://www.w3.org/2000/svg" viewBox="12.5 4.539999961853027 22.346668243408203 37.91999912261963" width="22.346668243408203" height="37.91999912261963"><path d="M 14.100000000000001 34.32 C 14.25 34.32, 14.1 34.32, 14.399999999999999 34.32 C 14.849999999999998 34.32, 14.849999999999998 34.32, 15.299999999999999 34.32 C 15.75 34.32, 15.495000000000003 34.32, 16.200000000000003 34.32 C 17.160000000000004 34.32, 17.160000000000004 34.32, 18.12 34.32 C 19.08 34.32, 18.96 34.32, 20.04 34.32 C 21.240000000000002 34.32, 21.465 34.365, 22.44 34.32 C 23.19 34.230000000000004, 23.055 34.185, 23.94 34.14 C 24.96 34.14, 25.125 34.185, 25.98 34.14 C 26.67 34.05, 26.535 34.065, 27.36 33.96 C 28.32 33.84, 28.560000000000002 33.87, 29.28 33.72 C 29.76 33.54, 29.745000000000005 33.585, 30.240000000000002 33.36 C 30.75 33.09, 30.825 33.24, 31.259999999999998 32.82 C 31.619999999999997 32.25, 31.619999999999997 32.28, 31.98 31.68 C 32.34 31.05, 32.385000000000005 31.185000000000002, 32.7 30.42 C 32.97 29.52, 32.955000000000005 29.595, 33.24 28.619999999999997 C 33.54 27.57, 33.69 27.81, 33.839999999999996 26.52 C 33.839999999999996 24.990000000000002, 33.839999999999996 24.705000000000002, 33.839999999999996 23.46 C 33.839999999999996 22.5, 33.839999999999996 22.604999999999997, 33.839999999999996 21.54 C 33.839999999999996 20.37, 33.855 20.415000000000003, 33.839999999999996 19.200000000000003 C 33.81 17.94, 33.795 17.91, 33.78 16.68 C 33.78 15.48, 33.795 15.315, 33.78 14.28 C 33.75 13.41, 33.765 13.424999999999999, 33.72 12.54 C 33.66 11.64, 33.66 11.504999999999999, 33.599999999999994 10.74 C 33.54 10.11, 33.6 10.065000000000001, 33.480000000000004 9.48 C 33.3 8.94, 33.254999999999995 8.909999999999998, 33.12 8.399999999999999 C 33.03 7.919999999999999, 33.015 7.799999999999999, 32.94 7.4399999999999995 C 32.879999999999995 7.199999999999999, 32.94 7.289999999999999, 32.82 6.959999999999999 C 32.64 6.539999999999999, 32.565 6.359999999999999, 32.46 6.12 C 32.43000000000001 6.0600000000000005, 32.52 6.135, 32.400000000000006 6 C 32.190000000000005 5.79, 32.13 5.6850000000000005, 31.98 5.58 C 31.89 5.58, 31.994999999999997 5.58, 31.799999999999997 5.58 C 31.5 5.58, 31.590000000000003 5.49, 31.200000000000003 5.58 C 30.720000000000002 5.76, 30.6 5.7749999999999995, 30.240000000000002 5.9399999999999995 C 30 6.09, 30.06 5.985, 29.759999999999998 6.24 C 29.4 6.6, 29.49 6.42, 29.04 6.959999999999999 C 28.5 7.679999999999999, 28.560000000000002 7.439999999999998, 27.96 8.399999999999999 C 27.3 9.6, 27.39 9.420000000000002, 26.64 10.8 C 25.8 12.36, 25.635 12.494999999999997, 24.96 13.919999999999998 C 24.450000000000003 15.209999999999999, 24.345000000000002 15.48, 23.94 16.5 C 23.64 17.25, 23.58 17.384999999999998, 23.34 18 C 23.16 18.48, 23.115000000000002 18.675, 22.98 18.96 L 22.799999999999997 19.14" fill="none" stroke="black" stroke-width="5"></path><path d="M 22.68 5.699999999999999 C 22.32 6.21, 22.395 6.015000000000001, 21.96 6.720000000000001 C 21.450000000000003 7.62, 21.375 7.71, 20.94 8.52 C 20.58 9.239999999999998, 20.685 8.879999999999999, 20.22 9.959999999999999 C 19.65 11.399999999999999, 19.560000000000002 11.594999999999999, 19.080000000000002 12.84 C 18.689999999999998 13.89, 18.689999999999998 13.860000000000001, 18.299999999999997 14.940000000000001 C 17.909999999999997 16.05, 17.744999999999997 16.575, 17.52 17.16 L 17.4 17.28" fill="none" stroke="black" stroke-width="5"></path><path d="M 13.5 41.46 C 13.8 41.370000000000005, 13.695 41.325, 14.100000000000001 41.28 C 14.610000000000001 41.28, 14.370000000000001 41.325, 15.120000000000001 41.28 C 16.11 41.19, 15.900000000000002 41.19, 17.1 41.099999999999994 C 18.509999999999998 41.01, 18.375 41.01, 19.919999999999998 40.92 C 21.6 40.83, 22.005000000000003 40.785000000000004, 23.28 40.74 C 24.15 40.74, 24.045 40.74, 25.02 40.74 C 26.1 40.74, 26.145 40.725, 27.18 40.74 C 28.17 40.769999999999996, 28.140000000000004 40.739999999999995, 29.160000000000004 40.8 C 30.21 40.89, 30.615 40.92, 31.259999999999998 40.980000000000004 C 31.5 41.010000000000005, 31.5 40.965, 31.740000000000002 41.04 C 31.98 41.16, 32.1 41.22, 32.22 41.28 C 32.22 41.28, 32.22 41.28, 32.22 41.28 L 32.22 41.28" fill="none" stroke="black" stroke-width="5"></path></svg>