<svg xmlns="http://www.w3.org/2000/svg" viewBox="12.006667137145996 3.619999885559082 17.673333168029785 41.693331718444824" width="17.673333168029785" height="41.693331718444824"><path d="M 13.620000000000001 24.660000000000004 C 13.5 23.64, 13.53 23.715000000000003, 13.379999999999999 22.62 C 13.2 21.450000000000003, 13.11 21.240000000000002, 13.02 20.28 C 13.02 19.53, 13.02 19.35, 13.02 18.78 C 13.02 18.39, 12.989999999999998 18.435000000000002, 13.02 18 C 13.08 17.52, 12.975000000000001 17.43, 13.14 17.04 C 13.41 16.740000000000002, 13.29 16.755000000000003, 13.68 16.44 C 14.190000000000001 16.11, 14.055000000000001 16.05, 14.700000000000001 15.78 C 15.48 15.57, 15.539999999999997 15.48, 16.259999999999998 15.36 C 16.92 15.329999999999998, 16.53 15.315, 17.580000000000002 15.299999999999999 C 19.020000000000003 15.299999999999999, 18.885 15.299999999999999, 20.46 15.299999999999999 C 22.17 15.299999999999999, 22.814999999999998 15.299999999999999, 23.88 15.299999999999999 C 24.299999999999997 15.299999999999999, 24.314999999999998 15.299999999999999, 24.72 15.299999999999999 C 25.11 15.299999999999999, 25.23 15.299999999999999, 25.5 15.299999999999999 C 25.65 15.299999999999999, 25.634999999999998 15.254999999999999, 25.799999999999997 15.299999999999999 C 25.98 15.39, 25.950000000000003 15.27, 26.160000000000004 15.48 C 26.400000000000002 15.81, 26.445 15.495000000000001, 26.64 16.14 C 26.79 17.1, 26.835 17.159999999999997, 26.94 18.06 C 27 18.9, 27.03 18.915000000000003, 27.06 19.740000000000002 C 27.06 20.55, 27.06 20.715, 27.06 21.36 C 27.06 21.84, 27.06 21.810000000000002, 27.06 22.32 C 27.06 22.86, 27.06 23.055, 27.06 23.4 C 27.06 23.55, 27.06 23.625, 27.06 23.700000000000003 C 27.06 23.700000000000003, 27.06 23.700000000000003, 27.06 23.700000000000003 C 27.06 23.700000000000003, 27.06 23.700000000000003, 27.06 23.700000000000003 L 27.06 23.700000000000003" fill="none" stroke="black" stroke-width="5"></path><path d="M 20.16 4.62 C 18.93 5.550000000000001, 18.750000000000004 5.7, 17.700000000000003 6.48 C 16.830000000000002 7.11, 16.89 7.065, 15.96 7.74 C 14.97 8.46, 14.55 8.73, 13.98 9.18 C 13.83 9.36, 13.8 9.420000000000002, 13.68 9.540000000000001 L 13.5 9.66" fill="none" stroke="black" stroke-width="5"></path><path d="M 28.68 4.74 C 27.9 5.37, 28.275 5.25, 27.119999999999997 6 C 25.589999999999996 6.87, 25.394999999999996 6.99, 24.06 7.74 C 22.92 8.370000000000001, 22.635 8.52, 21.78 9 C 21.21 9.33, 20.97 9.45, 20.64 9.66 L 20.46 9.84" fill="none" stroke="black" stroke-width="5"></path><path d="M 18.419999999999998 15 C 18.39 15.03, 18.375 14.805, 18.36 15.059999999999999 C 18.36 15.54, 18.39 15.419999999999998, 18.36 16.02 C 18.3 16.740000000000002, 18.315 16.665, 18.240000000000002 17.46 C 18.15 18.330000000000002, 18.165 18.105000000000004, 18.06 19.200000000000003 C 17.939999999999998 20.520000000000003, 17.88 20.37, 17.82 21.84 C 17.82 23.46, 17.82 23.415, 17.82 25.08 C 17.82 26.79, 17.82 26.7, 17.82 28.5 C 17.82 30.39, 17.82 30.765, 17.82 32.28 C 17.82 33.42, 17.82 33.27, 17.82 34.56 C 17.82 36, 17.73 36.03, 17.82 37.44 C 18 38.82, 18.060000000000002 39, 18.18 40.2 C 18.24 41.22, 18.209999999999997 41.445, 18.299999999999997 42.24 C 18.419999999999998 42.81, 18.404999999999998 42.93000000000001, 18.54 43.38 C 18.689999999999998 43.71, 18.674999999999997 43.83, 18.84 44.04 C 19.020000000000003 44.129999999999995, 19.035000000000004 44.16, 19.200000000000003 44.22 C 19.35 44.25, 19.425 44.265, 19.5 44.28 C 19.5 44.28, 19.455 44.28, 19.5 44.28 C 19.59 44.28, 19.56 44.355000000000004, 19.68 44.28 C 19.83 44.13, 19.77 44.400000000000006, 19.98 43.980000000000004 C 20.25 43.29, 20.325 43.184999999999995, 20.52 42.599999999999994 C 20.64 42.12, 20.61 42.165, 20.759999999999998 41.64 C 20.939999999999998 41.07, 20.955000000000002 41.144999999999996, 21.12 40.5 C 21.27 39.78, 21.195 39.885000000000005, 21.419999999999998 39.06 C 21.72 38.13, 21.63 38.1, 22.02 37.2 C 22.5 36.33, 22.485 36.150000000000006, 22.98 35.46 C 23.490000000000002 34.95, 23.295 34.934999999999995, 24 34.44 C 24.9 33.96, 25.08 33.72, 25.799999999999997 33.480000000000004 C 26.34 33.480000000000004, 26.490000000000002 33.480000000000004, 26.880000000000003 33.480000000000004 C 27.12 33.480000000000004, 27.165 33.480000000000004, 27.36 33.480000000000004 C 27.51 33.480000000000004, 27.585 33.480000000000004, 27.660000000000004 33.480000000000004 L 27.660000000000004 33.480000000000004" fill="none" stroke="black" stroke-width="5"></path></svg>