<svg xmlns="http://www.w3.org/2000/svg" viewBox="8.460000038146973 2.7799999713897705 20.68000030517578 44.30000281333923" width="20.68000030517578" height="44.30000281333923"><path d="M 11.94 31.56 C 11.64 30.839999999999996, 11.684999999999999 31.185, 11.34 30.119999999999997 C 10.95 28.709999999999997, 10.89 28.619999999999997, 10.56 27.299999999999997 C 10.29 26.069999999999997, 10.2 25.994999999999997, 10.02 24.839999999999996 C 9.93 23.759999999999998, 9.93 23.61, 9.84 22.68 C 9.75 21.9, 9.75 22.095, 9.66 21.12 C 9.57 19.950000000000003, 9.525 19.590000000000003, 9.48 18.78 C 9.48 18.33, 9.435 18.39, 9.48 17.88 C 9.57 17.310000000000002, 9.540000000000001 17.19, 9.66 16.740000000000002 C 9.809999999999999 16.410000000000004, 9.629999999999999 16.470000000000002, 9.959999999999999 16.080000000000002 C 10.469999999999999 15.63, 10.605 15.405000000000001, 10.98 15.18 C 11.219999999999999 15.18, 11.219999999999999 15.18, 11.459999999999999 15.18 C 11.7 15.18, 11.7 15.135, 11.94 15.18 C 12.18 15.27, 12.164999999999997 15.195, 12.419999999999998 15.36 C 12.69 15.6, 12.690000000000001 15.434999999999999, 12.96 15.84 C 13.23 16.41, 13.215 16.185000000000002, 13.5 16.98 C 13.8 18, 13.905000000000001 18.105, 14.100000000000001 19.02 C 14.190000000000001 19.83, 14.19 20.025, 14.28 20.64 C 14.370000000000001 21.060000000000002, 14.415000000000001 21.165, 14.46 21.48 C 14.46 21.689999999999998, 14.46 21.794999999999998, 14.46 21.9 C 14.46 21.9, 14.46 21.9, 14.46 21.9 C 14.46 21.9, 14.46 21.9, 14.46 21.9 C 14.46 21.9, 14.46 22.154999999999998, 14.46 21.9 C 14.46 21.39, 14.415000000000001 21.435, 14.46 20.88 C 14.55 20.28, 14.565000000000001 20.22, 14.64 19.68 C 14.7 19.2, 14.684999999999999 19.11, 14.76 18.72 C 14.850000000000001 18.42, 14.775000000000002 18.450000000000003, 14.940000000000001 18.12 C 15.18 17.759999999999998, 14.999999999999998 17.849999999999998, 15.419999999999998 17.4 C 16.02 16.86, 16.02 16.785, 16.62 16.32 C 17.22 15.93, 17.28 15.855, 17.82 15.54 C 18.3 15.299999999999999, 18.03 15.224999999999998, 18.78 15.059999999999999 C 19.8 14.969999999999999, 19.875 14.985, 20.82 14.879999999999999 C 21.689999999999998 14.76, 21.765 14.7, 22.56 14.64 C 23.28 14.64, 23.37 14.64, 24 14.64 C 24.54 14.64, 24.45 14.595, 25.08 14.64 C 25.799999999999997 14.73, 25.89 14.73, 26.52 14.82 C 27.06 14.91, 27.24 14.940000000000001, 27.599999999999998 15 C 27.78 15.03, 27.825 15.014999999999999, 27.96 15.059999999999999 L 28.14 15.18" fill="none" stroke="black" stroke-width="5"></path><path d="M 20.22 3.7800000000000002 C 19.29 4.5, 19.575 4.365, 18.36 5.22 C 16.86 6.209999999999999, 16.98 6.134999999999999, 15.36 7.199999999999999 C 13.62 8.34, 13.034999999999998 8.7, 11.879999999999999 9.48 C 11.309999999999999 9.9, 11.115 10.035, 10.74 10.32 L 10.379999999999999 10.620000000000001" fill="none" stroke="black" stroke-width="5"></path><path d="M 27.36 4.800000000000001 C 26.729999999999997 5.49, 27.269999999999996 5.265000000000001, 26.099999999999998 6.18 C 24.39 7.319999999999999, 24.119999999999997 7.4399999999999995, 22.68 8.459999999999999 C 21.509999999999998 9.36, 21.09 9.66, 20.34 10.26 L 19.68 10.86" fill="none" stroke="black" stroke-width="5"></path><path d="M 18.96 15.96 C 18.96 17.04, 18.93 17.19, 18.96 18.12 C 19.020000000000003 18.9, 19.005000000000003 18.6, 19.080000000000002 19.68 C 19.17 21.060000000000002, 19.215 20.865000000000002, 19.259999999999998 22.44 C 19.259999999999998 24.21, 19.259999999999998 24.345, 19.259999999999998 25.98 C 19.259999999999998 27.48, 19.259999999999998 27.645, 19.259999999999998 28.98 C 19.259999999999998 30.15, 19.259999999999998 30.09, 19.259999999999998 31.32 C 19.259999999999998 32.61, 19.259999999999998 32.595000000000006, 19.259999999999998 33.900000000000006 C 19.259999999999998 35.22, 19.259999999999998 35.25, 19.259999999999998 36.54 C 19.259999999999998 37.8, 19.304999999999996 38.145, 19.259999999999998 39.06 C 19.17 39.63, 19.125 39.55500000000001, 19.080000000000002 40.2 C 19.080000000000002 40.92, 19.095000000000002 40.935, 19.080000000000002 41.64 C 19.05 42.33, 19.065 42.434999999999995, 19.02 43.019999999999996 C 18.96 43.5, 18.945 43.33500000000001, 18.9 43.980000000000004 C 18.869999999999997 44.79, 18.869999999999997 45.074999999999996, 18.84 45.599999999999994 C 18.810000000000002 45.839999999999996, 18.795 45.959999999999994, 18.78 46.08 L 18.78 46.08" fill="none" stroke="black" stroke-width="5"></path><path d="M 23.94 14.64 C 24.03 14.670000000000002, 24.075 14.280000000000001, 24.119999999999997 14.700000000000001 C 24.119999999999997 15.510000000000002, 24.119999999999997 15.105, 24.119999999999997 16.32 C 24.119999999999997 17.939999999999998, 24.074999999999996 18.134999999999998, 24.119999999999997 19.56 C 24.209999999999997 20.79, 24.254999999999995 20.985, 24.299999999999997 22.02 C 24.299999999999997 22.86, 24.299999999999997 22.425000000000004, 24.299999999999997 23.700000000000003 C 24.299999999999997 25.41, 24.299999999999997 25.529999999999998, 24.299999999999997 27.119999999999997 C 24.299999999999997 28.589999999999996, 24.284999999999997 28.71, 24.299999999999997 30.06 C 24.33 31.29, 24.314999999999998 31.409999999999997, 24.36 32.519999999999996 C 24.42 33.51, 24.405 33.555, 24.48 34.5 C 24.57 35.4, 24.615000000000002 35.235, 24.660000000000004 36.3 C 24.660000000000004 37.53, 24.660000000000004 37.739999999999995, 24.660000000000004 38.76 C 24.660000000000004 39.57, 24.660000000000004 39.480000000000004, 24.660000000000004 40.38 C 24.660000000000004 41.370000000000005, 24.660000000000004 41.535, 24.660000000000004 42.36 C 24.660000000000004 43.019999999999996, 24.660000000000004 43.05, 24.660000000000004 43.68 C 24.660000000000004 44.28, 24.660000000000004 44.535000000000004, 24.660000000000004 44.88 C 24.660000000000004 44.97, 24.660000000000004 45.015, 24.660000000000004 45.06 C 24.660000000000004 45.06, 24.660000000000004 45.06, 24.660000000000004 45.06 C 24.660000000000004 45.06, 24.660000000000004 45.06, 24.660000000000004 45.06 L 24.660000000000004 45.06" fill="none" stroke="black" stroke-width="5"></path></svg>