<svg xmlns="http://www.w3.org/2000/svg" viewBox="12.680000305175781 3.380000114440918 18.194026947021484 41.36000156402588" width="18.194026947021484" height="41.36000156402588"><path d="M 25.02 4.38 C 24.54 4.77, 24.525 4.71, 24.06 5.16 C 23.61 5.67, 23.67 5.595, 23.16 6.18 C 22.59 6.84, 22.65 6.825, 22.02 7.5 C 21.33 8.19, 21.405 8.19, 20.64 8.879999999999999 C 19.8 9.57, 19.815 9.615, 18.96 10.26 C 18.09 10.86, 18.119999999999997 10.799999999999999, 17.22 11.459999999999999 C 16.29 12.18, 15.989999999999998 12.45, 15.36 12.899999999999999 C 15.030000000000001 13.079999999999998, 14.91 13.155, 14.700000000000001 13.26 L 14.52 13.32" fill="none" stroke="black" stroke-width="5"></path><path d="M 29.82 6.300000000000001 C 29.76 6.720000000000001, 30.045 6.525, 29.700000000000003 7.14 C 29.07 7.949999999999999, 29.055 7.89, 28.44 8.76 C 27.840000000000003 9.690000000000001, 27.825000000000003 9.735000000000001, 27.240000000000002 10.620000000000001 C 26.67 11.46, 26.805 11.385, 26.099999999999998 12.299999999999999 C 25.259999999999998 13.29, 25.200000000000003 13.41, 24.42 14.28 C 23.700000000000003 15.03, 23.895000000000003 15.03, 22.98 15.78 C 21.869999999999997 16.53, 21.779999999999998 16.575, 20.759999999999998 17.28 C 19.83 17.94, 19.755 17.985, 18.9 18.6 C 18.119999999999997 19.17, 17.985 19.290000000000003, 17.34 19.740000000000002 C 16.83 20.07, 16.62 20.189999999999998, 16.32 20.4 C 16.23 20.490000000000002, 16.425 20.415000000000003, 16.14 20.580000000000002 C 15.66 20.82, 15.54 20.865, 15.18 21.06 C 14.940000000000001 21.21, 15.030000000000001 21.15, 14.700000000000001 21.36 C 14.280000000000001 21.63, 14.115 21.72, 13.86 21.9 C 13.77 21.990000000000002, 13.725 22.035, 13.68 22.080000000000002 L 13.68 22.080000000000002" fill="none" stroke="black" stroke-width="5"></path><path d="M 22.080000000000002 17.04 C 21.96 17.669999999999998, 22.05 17.58, 21.84 18.299999999999997 C 21.54 19.11, 21.480000000000004 18.779999999999998, 21.240000000000002 19.919999999999998 C 21.060000000000002 21.39, 21.015 21.555, 20.88 22.86 C 20.79 24, 20.820000000000004 24.075000000000003, 20.700000000000003 25.14 C 20.55 26.13, 20.49 26.04, 20.4 27.119999999999997 C 20.369999999999997 28.29, 20.355 28.365000000000002, 20.34 29.46 C 20.34 30.48, 20.384999999999998 30.494999999999997, 20.34 31.5 C 20.25 32.49, 20.205 32.61, 20.16 33.480000000000004 C 20.16 34.230000000000004, 20.16 34.080000000000005, 20.16 34.980000000000004 C 20.16 36.03, 20.16 35.955, 20.16 37.08 C 20.16 38.28, 20.16 38.43000000000001, 20.16 39.480000000000004 C 20.16 40.38, 20.16 40.53, 20.16 41.28 C 20.16 41.88, 20.16 41.895, 20.16 42.480000000000004 C 20.16 43.05, 20.16 43.305, 20.16 43.62 C 20.16 43.68, 20.16 43.71, 20.16 43.74 C 20.16 43.74, 20.16 43.74, 20.16 43.74 C 20.16 43.74, 20.16 43.74, 20.16 43.74 L 20.16 43.74" fill="none" stroke="black" stroke-width="5"></path></svg>