<svg xmlns="http://www.w3.org/2000/svg" viewBox="11.479999542236328 3.679999828338623 21.499999046325684 41.77999925613403" width="21.499999046325684" height="41.77999925613403"><path d="M 17.46 4.68 C 17.310000000000002 5.01, 17.445 4.935, 17.16 5.34 C 16.740000000000002 5.82, 16.8 5.73, 16.32 6.300000000000001 C 15.780000000000001 6.960000000000001, 15.735 6.99, 15.24 7.62 C 14.79 8.22, 14.79 8.19, 14.34 8.82 C 13.89 9.48, 13.815000000000001 9.555, 13.440000000000001 10.14 C 13.14 10.65, 13.065000000000001 10.635, 12.84 11.16 C 12.69 11.7, 12.614999999999998 11.85, 12.54 12.24 C 12.54 12.48, 12.54 12.450000000000001, 12.54 12.72 C 12.54 13.02, 12.465 13.110000000000001, 12.54 13.32 C 12.69 13.44, 12.48 13.424999999999999, 12.84 13.559999999999999 C 13.41 13.709999999999999, 13.05 13.785, 13.98 13.86 C 15.27 13.86, 15.419999999999998 13.86, 16.56 13.86 C 17.549999999999997 13.86, 17.415 13.86, 18.54 13.86 C 19.799999999999997 13.86, 19.485 13.86, 21.06 13.86 C 22.949999999999996 13.86, 23.189999999999994 13.86, 24.839999999999996 13.86 C 26.25 13.86, 26.520000000000003 13.86, 27.660000000000004 13.86 C 28.53 13.86, 28.680000000000003 13.829999999999998, 29.400000000000002 13.86 C 29.97 13.92, 29.97 13.89, 30.54 13.98 C 31.11 14.100000000000001, 31.32 14.16, 31.68 14.22 C 31.83 14.22, 31.905 14.22, 31.98 14.22 L 31.98 14.22" fill="none" stroke="black" stroke-width="5"></path><path d="M 12.48 20.4 C 14.22 20.4, 14.100000000000001 20.4, 15.96 20.4 C 17.939999999999998 20.4, 18.15 20.4, 19.919999999999998 20.4 C 21.479999999999997 20.4, 21.404999999999998 20.4, 23.04 20.4 C 24.75 20.4, 25.05 20.445, 26.46 20.4 C 27.57 20.31, 27.884999999999998 20.265, 28.68 20.22 C 29.16 20.22, 29.25 20.22, 29.64 20.22 C 29.94 20.22, 30.000000000000004 20.174999999999997, 30.240000000000002 20.22 C 30.42 20.31, 30.419999999999998 20.279999999999998, 30.599999999999998 20.4 C 30.78 20.55, 30.825 20.46, 30.96 20.700000000000003 C 31.05 21.03, 31.095 20.655, 31.14 21.36 C 31.14 22.439999999999998, 31.14 22.455, 31.14 23.52 C 31.14 24.57, 31.259999999999998 24.314999999999998, 31.14 25.619999999999997 C 30.900000000000002 27.18, 30.930000000000003 27.135, 30.660000000000004 28.740000000000002 C 30.36 30.39, 30.375 30.63, 30.06 32.04 C 29.73 33.21, 29.805 33.09, 29.400000000000002 34.38 C 28.92 35.790000000000006, 28.875 35.82, 28.44 37.2 C 28.050000000000004 38.550000000000004, 27.990000000000006 38.790000000000006, 27.660000000000004 39.900000000000006 C 27.39 40.77, 27.314999999999998 40.92, 27.119999999999997 41.64 C 27 42.21, 26.94 42.345, 26.880000000000003 42.78 C 26.880000000000003 43.08, 26.925000000000004 42.96, 26.880000000000003 43.38 C 26.790000000000003 43.92, 26.745000000000005 44.19, 26.700000000000003 44.46 C 26.700000000000003 44.46, 26.700000000000003 44.46, 26.700000000000003 44.46 C 26.700000000000003 44.46, 26.700000000000003 44.46, 26.700000000000003 44.46 L 26.700000000000003 44.46" fill="none" stroke="black" stroke-width="5"></path><path d="M 19.56 28.98 C 18.479999999999997 30.119999999999997, 17.834999999999997 30.255, 17.4 31.259999999999998 C 17.61 32.129999999999995, 16.98 32.295, 17.82 33 C 19.29 33.54, 19.515 34.17, 20.759999999999998 34.08 C 21.779999999999998 33.36, 22.229999999999997 33.525, 22.799999999999997 32.64 C 22.919999999999998 31.59, 23.534999999999997 31.305, 23.04 30.54 C 21.93 30.06, 21.84 29.549999999999997, 20.82 29.58 C 19.89 30.12, 19.395 29.775000000000006, 18.96 30.660000000000004 C 19.020000000000003 31.89, 18.855000000000004 32.309999999999995, 19.080000000000002 33.12 C 19.47 33.510000000000005, 19.275 33.99000000000001, 19.86 33.900000000000006 C 20.64 33.33, 20.939999999999998 33.78, 21.419999999999998 32.76 C 21.6 31.29, 21.915 30.66, 21.78 29.82 C 21.33 29.61, 21.405 29.130000000000003, 20.88 29.400000000000002 C 20.28 30.150000000000002, 19.935 30.120000000000005, 19.68 30.900000000000002 C 19.77 31.71, 19.785 32.099999999999994, 19.86 32.519999999999996 L 19.98 32.58" fill="none" stroke="black" stroke-width="5"></path></svg>