<svg xmlns="http://www.w3.org/2000/svg" viewBox="5.119999885559082 4.099999904632568 29.60000228881836 44.35999917984009" width="29.60000228881836" height="44.35999917984009"><path d="M 14.700000000000001 5.1 C 13.29 6.63, 13.29 6.4350000000000005, 11.879999999999999 8.16 C 10.469999999999999 10.08, 9.780000000000001 10.77, 9.06 12 C 9.030000000000001 12.540000000000001, 8.85 12.660000000000002, 9 13.080000000000002 C 9.33 13.38, 9.15 13.455, 9.66 13.68 C 10.350000000000001 13.83, 9.27 13.905000000000001, 11.040000000000001 13.98 C 13.89 13.98, 13.410000000000002 14.055, 16.740000000000002 13.98 C 20.55 13.83, 20.88 13.754999999999999, 24.36 13.68 C 27.51 13.68, 28.590000000000003 13.68, 30.660000000000004 13.68 C 31.650000000000002 13.68, 32.1 13.68, 32.64 13.68 L 32.82 13.68" fill="none" stroke="black" stroke-width="5"></path><path d="M 13.919999999999998 13.86 C 13.59 14.280000000000001, 14.01 13.440000000000001, 13.26 14.700000000000001 C 12.09 16.8, 11.955 16.47, 10.92 18.9 C 10.02 21.66, 9.705000000000002 22.080000000000002, 9.120000000000001 24.42 C 8.850000000000001 26.34, 8.715 26.729999999999997, 8.58 28.259999999999998 C 8.58 29.4, 8.4 29.729999999999997, 8.58 30.54 C 8.940000000000001 31.02, 8.25 31.155, 9.3 31.5 C 11.04 31.71, 11.07 32.355000000000004, 12.78 31.92 C 14.46 30.84, 14.67 31.38, 16.14 29.759999999999998 C 17.4 27.6, 18 26.655, 18.66 25.44 C 18.72 25.17, 18.720000000000002 24.975, 18.78 24.900000000000002 C 18.84 25.020000000000003, 18.825 24.405, 18.9 25.14 C 18.990000000000002 26.49, 18.705000000000002 26.624999999999996, 19.080000000000002 27.839999999999996 C 19.740000000000002 28.919999999999998, 19.575 29.174999999999997, 20.4 30 C 21.39 30.57, 21.18 30.825000000000003, 22.38 31.14 C 23.79 31.2, 23.970000000000002 31.574999999999996, 25.200000000000003 31.259999999999998 C 26.25 30.57, 26.519999999999996 30.735000000000003, 27.299999999999997 29.880000000000003 C 27.81 28.86, 27.78 29.309999999999995, 28.32 27.839999999999996 C 28.89 25.919999999999998, 29.16 25.544999999999998, 29.46 24 C 29.490000000000002 22.83, 29.564999999999998 23.07, 29.52 21.66 C 29.4 20.009999999999998, 29.520000000000003 19.89, 29.28 18.36 C 28.92 16.95, 28.98 16.665, 28.56 15.54 C 28.08 14.7, 27.9 14.399999999999999, 27.599999999999998 13.86 C 27.479999999999997 13.62, 27.419999999999998 13.5, 27.36 13.379999999999999 C 27.36 13.379999999999999, 27.36 13.379999999999999, 27.36 13.379999999999999 L 27.36 13.379999999999999" fill="none" stroke="black" stroke-width="5"></path><path d="M 6.12 47.46 C 7.470000000000001 47.07, 6.2700000000000005 47.82, 8.82 46.68 C 12.57 44.790000000000006, 12.81 45.21000000000001, 16.32 42.900000000000006 C 19.59 40.17, 20.759999999999998 39.57, 22.86 37.44 C 23.79 35.91, 24.075 35.730000000000004, 24.72 34.38 C 25.08 33.21, 25.26 32.625, 25.44 32.04 C 25.44 32.04, 25.44 32.04, 25.44 32.04 C 25.44 32.04, 25.44 32.04, 25.44 32.04 C 25.44 32.04, 25.44 32.025, 25.44 32.04 C 25.44 32.06999999999999, 25.44 31.769999999999996, 25.44 32.099999999999994 C 25.44 32.73, 25.305 32.19, 25.44 33.36 C 25.71 35.07, 25.275000000000002 35.010000000000005, 25.98 36.78 C 27.119999999999997 38.61, 27.029999999999998 39.089999999999996, 28.259999999999998 40.44 C 29.58 41.31, 29.730000000000004 41.685, 30.900000000000002 42.18 C 31.92 42.3, 32.235 42.36, 32.94 42.42 L 33.72 42.42" fill="none" stroke="black" stroke-width="5"></path></svg>