<svg xmlns="http://www.w3.org/2000/svg" viewBox="10.819999694824219 3.320000171661377 29.779998779296875 42.49999952316284" width="29.779998779296875" height="42.49999952316284"><path d="M 16.14 4.32 C 15.360000000000001 5.4, 15.480000000000002 5.115, 14.580000000000002 6.48 C 13.56 8.129999999999999, 13.215 8.655, 12.54 9.78 C 12.209999999999999 10.379999999999999, 12.044999999999998 10.605, 11.879999999999999 10.98 C 11.879999999999999 11.129999999999999, 11.879999999999999 11.114999999999998, 11.879999999999999 11.28 C 11.879999999999999 11.46, 11.745 11.43, 11.879999999999999 11.64 C 12.149999999999999 11.88, 11.939999999999998 11.850000000000001, 12.419999999999998 12.120000000000001 C 13.11 12.420000000000002, 12.869999999999997 12.57, 13.799999999999999 12.72 C 14.969999999999999 12.72, 14.370000000000001 12.72, 16.14 12.72 C 18.509999999999998 12.72, 18.285 12.72, 20.88 12.72 C 23.7 12.72, 22.634999999999998 12.72, 26.52 12.72 C 31.47 12.72, 33.225 12.72, 36.42 12.72 C 37.86 12.72, 38.504999999999995 12.72, 39.3 12.72 C 39.449999999999996 12.72, 39.52499999999999 12.72, 39.599999999999994 12.72 L 39.599999999999994 12.72" fill="none" stroke="black" stroke-width="5"></path><path d="M 16.740000000000002 13.200000000000001 C 16.5 13.98, 16.755 13.425, 16.259999999999998 14.76 C 15.509999999999998 16.65, 15.315 17.04, 14.76 18.54 C 14.399999999999999 19.65, 14.325 19.755, 14.04 20.759999999999998 C 13.83 21.659999999999997, 13.77 21.659999999999997, 13.620000000000001 22.56 C 13.530000000000001 23.46, 13.485000000000001 23.685, 13.440000000000001 24.36 C 13.440000000000001 24.81, 13.425 24.869999999999997, 13.440000000000001 25.259999999999998 C 13.47 25.59, 13.425 25.635, 13.5 25.92 C 13.620000000000001 26.160000000000004, 13.5 26.115000000000002, 13.74 26.400000000000002 C 14.100000000000001 26.73, 14.07 26.744999999999997, 14.46 27.06 C 14.879999999999999 27.36, 14.715 27.390000000000004, 15.299999999999999 27.660000000000004 C 16.049999999999997 27.900000000000002, 16.004999999999995 27.93, 16.799999999999997 28.14 C 17.64 28.32, 16.92 28.305, 18.48 28.5 C 20.759999999999998 28.71, 20.445 28.815, 23.04 28.92 C 25.95 28.92, 25.68 28.995000000000005, 28.86 28.92 C 32.31 28.77, 33.765 28.695, 35.76 28.619999999999997 C 36.3 28.619999999999997, 36.404999999999994 28.619999999999997, 36.839999999999996 28.619999999999997 C 37.17 28.619999999999997, 37.335 28.634999999999998, 37.5 28.619999999999997 L 37.5 28.56" fill="none" stroke="black" stroke-width="5"></path><path d="M 23.64 27.839999999999996 C 23.58 28.619999999999997, 23.79 28.185000000000002, 23.52 29.400000000000002 C 23.04 31.050000000000004, 23.07 31.350000000000005, 22.56 32.7 C 22.02 33.75, 22.725 33.464999999999996, 21.48 34.8 C 19.53 36.42, 19.230000000000004 36.644999999999996, 17.580000000000002 38.04 C 16.23 39.21, 15.614999999999998 39.78, 14.879999999999999 40.38 L 14.64 40.44" fill="none" stroke="black" stroke-width="5"></path><path d="M 33.12 33.839999999999996 C 32.519999999999996 35.489999999999995, 32.46 35.85, 31.92 37.14 C 31.44 38.07, 31.68 37.995, 30.96 39 C 30 40.08, 30.509999999999998 40.005, 29.04 41.160000000000004 C 27.06 42.39, 26.564999999999998 42.809999999999995, 25.08 43.62 C 24.09 44.010000000000005, 23.880000000000003 44.10000000000001, 23.1 44.400000000000006 L 21.96 44.82" fill="none" stroke="black" stroke-width="5"></path></svg>