<svg xmlns="http://www.w3.org/2000/svg" viewBox="10.220000267028809 2.4200000762939453 17.659998893737793 32.07828712463379" width="17.659998893737793" height="32.07828712463379"><path d="M 17.88 3.42 C 17.88 4.140000000000001, 18 3.2400000000000007, 17.88 4.86 C 17.64 7.379999999999999, 17.834999999999997 7.394999999999999, 17.4 9.899999999999999 C 16.77 12.389999999999999, 16.95 12.554999999999998, 16.14 14.879999999999999 C 15.15 17.04, 15 17.745, 14.16 19.200000000000003 C 13.469999999999999 19.950000000000003, 13.485 19.980000000000004, 12.78 20.700000000000003 C 12.059999999999999 21.39, 11.73 21.720000000000002, 11.34 22.080000000000002 L 11.22 22.14" fill="none" stroke="black" stroke-width="5"></path><path d="M 16.5 12.84 C 16.68 12.93, 16.424999999999997 12.915, 16.86 13.02 C 17.55 13.14, 17.055 13.155, 18.240000000000002 13.26 C 19.92 13.350000000000001, 19.875 13.395000000000001, 21.6 13.440000000000001 C 23.37 13.440000000000001, 23.895000000000003 13.440000000000001, 25.14 13.440000000000001 C 25.86 13.440000000000001, 26.144999999999996 13.440000000000001, 26.58 13.440000000000001 L 26.880000000000003 13.440000000000001" fill="none" stroke="black" stroke-width="5"></path><path d="M 18.18 27.96 C 17.28 29.700000000000003, 16.544999999999998 30.105000000000004, 16.38 31.44 C 16.95 32.37, 15.719999999999999 34.08, 17.52 33.3 C 20.55 30.81, 22.125 30.060000000000002, 23.580000000000002 28.32 C 23.46 27.33, 24.255000000000003 26.504999999999995, 23.34 26.339999999999996 C 21.63 27, 21.044999999999998 26.505000000000003, 19.919999999999998 27.660000000000004 C 19.38 29.310000000000002, 18.735 30, 18.84 30.96 C 19.59 31.23, 19.5 32.58, 20.34 31.5 C 21.270000000000003 29.07, 22.080000000000002 28.26, 22.200000000000003 26.64 C 21.51 25.83, 22.185000000000002 24.105, 20.82 25.02 C 18.78 27.659999999999997, 17.655 28.214999999999996, 16.740000000000002 30.299999999999997 C 16.950000000000003 31.83, 16.35 32.91, 17.16 33.36 C 18.57 32.73, 19.065 33.105, 19.98 32.099999999999994 L 20.82 29.339999999999996" fill="none" stroke="black" stroke-width="5"></path></svg>