<svg xmlns="http://www.w3.org/2000/svg" viewBox="8.5600004196167 3.619999885559082 24.239998817443848 41.53999996185303" width="24.239998817443848" height="41.53999996185303"><path d="M 13.98 4.62 C 13.5 5.16, 13.545 4.994999999999999, 13.02 5.699999999999999 C 12.45 6.569999999999999, 12.299999999999999 6.839999999999999, 11.879999999999999 7.4399999999999995 C 11.61 7.7700000000000005, 11.655 7.635000000000002, 11.34 8.100000000000001 C 10.98 8.700000000000001, 10.905000000000001 8.760000000000002, 10.620000000000001 9.3 C 10.41 9.780000000000001, 10.35 9.855, 10.2 10.26 C 10.11 10.59, 10.065 10.65, 10.02 10.92 C 10.02 11.129999999999999, 10.004999999999999 11.07, 10.02 11.34 C 10.05 11.67, 9.825 11.655, 10.08 12 C 10.56 12.36, 10.47 12.345, 11.040000000000001 12.72 C 11.7 13.11, 11.684999999999999 13.245000000000001, 12.36 13.5 C 13.05 13.620000000000001, 12.690000000000001 13.635000000000002, 13.74 13.74 C 15.149999999999999 13.829999999999998, 15.045 13.889999999999999, 16.56 13.919999999999998 C 18.18 13.889999999999999, 18.014999999999997 13.995, 19.799999999999997 13.86 C 21.75 13.62, 22.065000000000005 13.604999999999999, 23.700000000000003 13.379999999999999 C 25.02 13.17, 25.034999999999997 13.170000000000002, 26.339999999999996 12.96 C 27.63 12.75, 27.825000000000003 12.69, 28.92 12.54 C 29.82 12.45, 30.075 12.405, 30.72 12.36 C 31.11 12.36, 31.23 12.36, 31.5 12.36 C 31.65 12.36, 31.724999999999998 12.36, 31.799999999999997 12.36 L 31.799999999999997 12.36" fill="none" stroke="black" stroke-width="5"></path><path d="M 20.700000000000003 22.740000000000002 C 20.55 23.310000000000002, 20.85 22.935, 20.4 23.88 C 19.65 25.2, 19.544999999999998 25.38, 18.9 26.52 C 18.36 27.48, 18.345 27.57, 17.82 28.44 C 17.31 29.22, 17.354999999999997 29.43, 16.799999999999997 30 C 16.2 30.36, 16.305 30.494999999999997, 15.600000000000001 30.72 C 14.790000000000001 30.810000000000002, 14.64 30.915, 13.98 30.900000000000002 C 13.47 30.78, 13.71 31.125000000000004, 12.96 30.660000000000004 C 11.97 29.85, 11.73 29.985, 10.98 29.04 C 10.469999999999999 27.96, 10.305 28.215000000000003, 9.959999999999999 26.880000000000003 C 9.780000000000001 25.290000000000003, 9.690000000000001 24.930000000000003, 9.600000000000001 23.700000000000003 C 9.600000000000001 22.830000000000002, 9.510000000000002 22.785000000000004, 9.600000000000001 21.96 C 9.780000000000001 21.18, 9.524999999999999 21.134999999999998, 9.959999999999999 20.4 C 10.649999999999999 19.71, 10.515 19.56, 11.34 19.02 C 12.3 18.630000000000003, 12 18.540000000000003, 13.26 18.240000000000002 C 14.82 18.03, 14.715 17.97, 16.38 17.82 C 18.15 17.73, 18.345 17.685000000000002, 19.919999999999998 17.64 C 21.299999999999997 17.64, 21.33 17.64, 22.68 17.64 C 24 17.64, 24.255 17.64, 25.32 17.64 C 26.130000000000003 17.64, 26.25 17.535, 26.94 17.64 C 27.509999999999998 17.85, 27.525 17.669999999999998, 28.08 18.06 C 28.62 18.630000000000003, 28.740000000000002 18.480000000000004, 29.160000000000004 19.200000000000003 C 29.46 20.07, 29.549999999999997 20.145000000000003, 29.759999999999998 20.94 C 29.88 21.66, 29.939999999999998 21.45, 30 22.38 C 30 23.520000000000003, 30.15 23.310000000000002, 30 24.660000000000004 C 29.700000000000003 26.220000000000002, 29.940000000000005 26.085, 29.400000000000002 27.78 C 28.619999999999997 29.61, 28.529999999999998 29.955000000000002, 27.839999999999996 31.44 C 27.24 32.58, 27.15 32.73, 26.64 33.72 C 26.22 34.56, 26.294999999999995 34.425000000000004, 25.799999999999997 35.400000000000006 C 25.23 36.510000000000005, 25.185000000000002 36.599999999999994, 24.660000000000004 37.62 C 24.180000000000003 38.55, 24.105000000000004 38.67, 23.700000000000003 39.480000000000004 C 23.37 40.17, 23.46 40.14, 23.04 40.86 C 22.53 41.61, 22.365 41.775, 22.02 42.36 C 21.84 42.78, 21.855 42.795, 21.66 43.2 C 21.450000000000003 43.59, 21.345000000000002 43.74, 21.240000000000002 43.980000000000004 C 21.240000000000002 44.07000000000001, 21.240000000000002 44.115, 21.240000000000002 44.160000000000004 L 21.240000000000002 44.160000000000004" fill="none" stroke="black" stroke-width="5"></path></svg>