<svg xmlns="http://www.w3.org/2000/svg" viewBox="8.600000381469727 4.940000057220459 24.926668167114258 39.22626733779907" width="24.926668167114258" height="39.22626733779907"><path d="M 15.54 5.9399999999999995 C 15.120000000000001 6.42, 15.39 6.029999999999999, 14.700000000000001 6.8999999999999995 C 13.74 8.16, 13.62 8.235, 12.78 9.42 C 12.059999999999999 10.530000000000001, 11.879999999999999 10.83, 11.34 11.64 C 10.98 12.15, 10.920000000000002 12.285, 10.620000000000001 12.66 C 10.38 12.9, 10.260000000000002 13.02, 10.14 13.14 C 10.14 13.14, 10.14 13.14, 10.14 13.14 C 10.14 13.14, 10.14 13.14, 10.14 13.14 L 10.14 13.14" fill="none" stroke="black" stroke-width="5"></path><path d="M 10.08 13.620000000000001 C 10.739999999999998 13.65, 10.499999999999998 13.665, 11.399999999999999 13.68 C 12.54 13.68, 12 13.68, 13.68 13.68 C 15.9 13.68, 16.185000000000002 13.695, 18.12 13.68 C 19.77 13.65, 20.055 13.68, 21.419999999999998 13.620000000000001 C 22.5 13.530000000000001, 22.23 13.530000000000001, 23.580000000000002 13.440000000000001 C 25.200000000000003 13.350000000000001, 25.23 13.35, 26.82 13.26 C 28.380000000000003 13.170000000000002, 28.770000000000003 13.170000000000002, 29.94 13.080000000000002 C 30.72 12.99, 31.065 12.945, 31.5 12.899999999999999 L 31.68 12.899999999999999" fill="none" stroke="black" stroke-width="5"></path><path d="M 31.68 12.899999999999999 C 29.28 13.44, 28.035000000000004 13.29, 26.880000000000003 13.98 C 26.97 14.82, 26.759999999999998 14.219999999999999, 27.06 15.66 C 27.57 17.700000000000003, 27.509999999999998 17.985000000000003, 28.08 19.740000000000002 C 28.709999999999997 21.21, 28.874999999999996 21.39, 29.339999999999996 22.68 C 29.64 23.79, 29.625 23.715000000000003, 29.94 24.900000000000002 C 30.27 26.160000000000004, 30.209999999999997 26.085, 30.599999999999998 27.42 C 31.049999999999997 28.830000000000002, 31.169999999999998 29.205000000000002, 31.5 30.240000000000002 C 31.71 30.9, 31.740000000000002 30.9, 31.92 31.56 C 32.07 32.22, 32.07 31.965000000000003, 32.22 32.88 C 32.37 34.05, 32.44499999999999 34.17, 32.519999999999996 35.22 C 32.519999999999996 36.15, 32.519999999999996 36.3, 32.519999999999996 37.08 C 32.519999999999996 37.709999999999994, 32.519999999999996 37.83, 32.519999999999996 38.339999999999996 C 32.519999999999996 38.73, 32.535 38.775, 32.519999999999996 39.12 C 32.489999999999995 39.42, 32.505 39.449999999999996, 32.46 39.72 C 32.4 39.96, 32.474999999999994 39.870000000000005, 32.339999999999996 40.2 C 32.129999999999995 40.620000000000005, 32.175 40.665, 31.92 41.04 C 31.62 41.370000000000005, 31.605 41.400000000000006, 31.32 41.7 C 31.05 41.97, 31.035000000000004 42.03, 30.78 42.24 C 30.54 42.39, 30.509999999999998 42.42, 30.299999999999997 42.54 C 30.119999999999997 42.629999999999995, 30.225 42.6, 29.94 42.72 C 29.550000000000004 42.87, 29.430000000000003 42.91499999999999, 29.160000000000004 43.019999999999996 C 29.01 43.08, 29.01 43.11, 28.86 43.14 C 28.71 43.14, 28.799999999999997 43.185, 28.56 43.14 C 28.23 43.05, 28.305 43.35, 27.900000000000002 42.96 C 27.42 42.269999999999996, 27.360000000000003 42.36, 26.94 41.58 C 26.58 40.709999999999994, 26.535 40.86, 26.22 39.839999999999996 C 25.95 38.67, 25.845 38.16, 25.68 37.5 C 25.619999999999997 37.35, 25.59 37.275000000000006, 25.56 37.2 C 25.56 37.2, 25.56 37.2, 25.56 37.2 C 25.56 37.2, 25.619999999999997 37.17, 25.56 37.2 C 25.439999999999998 37.260000000000005, 25.44 37.035000000000004, 25.32 37.32 C 25.2 37.83, 25.214999999999996 37.724999999999994, 25.08 38.339999999999996 C 24.93 39.06, 25.035 39.045, 24.78 39.78 C 24.42 40.53, 24.375 40.77, 24.06 41.28 C 23.79 41.55, 23.939999999999998 41.505, 23.52 41.82 C 22.95 42.18, 22.965 42.269999999999996, 22.38 42.54 C 21.78 42.72, 21.974999999999998 42.81, 21.18 42.900000000000006 C 20.19 42.900000000000006, 20.085 42.900000000000006, 19.200000000000003 42.900000000000006 C 18.42 42.900000000000006, 18.645000000000003 42.900000000000006, 17.64 42.900000000000006 C 16.41 42.900000000000006, 16.155 42.900000000000006, 15.18 42.900000000000006 C 14.46 42.900000000000006, 14.34 42.900000000000006, 13.74 42.900000000000006 C 13.26 42.900000000000006, 13.365 42.900000000000006, 12.78 42.900000000000006 C 12.09 42.900000000000006, 11.894999999999998 42.900000000000006, 11.399999999999999 42.900000000000006 C 11.1 42.900000000000006, 11.07 42.900000000000006, 10.8 42.900000000000006 C 10.56 42.900000000000006, 10.47 42.900000000000006, 10.32 42.900000000000006 C 10.26 42.900000000000006, 10.379999999999999 42.900000000000006, 10.2 42.900000000000006 C 9.9 42.900000000000006, 9.75 42.900000000000006, 9.600000000000001 42.900000000000006 C 9.600000000000001 42.900000000000006, 9.600000000000001 42.900000000000006, 9.600000000000001 42.900000000000006 L 9.600000000000001 42.900000000000006" fill="none" stroke="black" stroke-width="5"></path></svg>