<svg xmlns="http://www.w3.org/2000/svg" viewBox="9.4399995803833 2.299999952316284 24.499999046325684 41.43999695777893" width="24.499999046325684" height="41.43999695777893"><path d="M 18.66 3.3000000000000003 C 18.42 4.74, 18.87 3.795, 18.18 6.18 C 17.04 9.51, 17.025 10.125, 15.899999999999999 12.84 C 14.79 14.94, 14.55 15.675, 13.68 17.04 C 13.049999999999999 17.669999999999998, 13.229999999999999 17.639999999999997, 12.419999999999998 18.299999999999997 L 10.44 19.68" fill="none" stroke="black" stroke-width="5"></path><path d="M 16.5 11.76 C 17.85 11.969999999999999, 16.590000000000003 11.834999999999999, 19.200000000000003 12.18 C 23.07 12.66, 24.435000000000002 12.9, 26.94 13.14 C 28.08 13.14, 28.14 13.14, 29.22 13.14 C 30.24 13.14, 30.72 13.14, 31.259999999999998 13.14 L 31.380000000000003 13.14" fill="none" stroke="black" stroke-width="5"></path><path d="M 22.259999999999998 12.059999999999999 C 22.049999999999997 13.86, 22.064999999999998 13.425, 21.84 15.66 C 21.6 18.33, 21.66 17.7, 21.36 21 C 21 24.93, 21.03 25.439999999999998, 20.64 28.86 C 20.22 31.77, 20.129999999999995 32.205, 19.799999999999997 34.68 C 19.56 36.72, 19.439999999999998 37.14, 19.32 38.76 C 19.32 39.96, 19.32 40.32000000000001, 19.32 41.160000000000004 C 19.32 41.64, 19.32 41.835, 19.32 42.12 C 19.32 42.209999999999994, 19.29 42.224999999999994, 19.32 42.3 C 19.380000000000003 42.36, 19.41 42.39, 19.44 42.42 C 19.44 42.42, 19.425 42.42, 19.44 42.42 C 19.47 42.42, 19.32 43.14, 19.5 42.42 C 19.83 40.980000000000004, 19.59 41.34, 20.16 39.54 C 20.97 37.379999999999995, 20.700000000000003 37.26, 21.78 35.22 C 23.130000000000003 33.3, 22.875 32.82, 24.48 31.380000000000003 C 26.340000000000003 30.42, 26.250000000000004 30.075000000000003, 28.200000000000003 29.46 C 30.240000000000002 29.19, 31.095000000000002 29.055, 32.28 28.92 L 32.94 28.92" fill="none" stroke="black" stroke-width="5"></path></svg>