<svg xmlns="http://www.w3.org/2000/svg" viewBox="9.042646408081055 2.180000066757202 24.89735221862793 45.13999962806702" width="24.89735221862793" height="45.13999962806702"><path d="M 15.54 3.18 C 14.49 4.3500000000000005, 14.655000000000001 3.9000000000000004, 13.440000000000001 5.5200000000000005 C 12.06 7.59, 11.46 8.445, 10.68 9.66 C 10.5 10.02, 10.455 10.125, 10.32 10.379999999999999 C 10.23 10.53, 10.14 10.5, 10.14 10.68 C 10.23 10.89, 9.765 10.950000000000001, 10.32 11.100000000000001 C 11.34 11.190000000000001, 10.995 11.235, 12.36 11.28 C 14.07 11.28, 13.724999999999998 11.354999999999999, 15.78 11.28 C 18.18 11.129999999999999, 17.865000000000002 11.115, 20.580000000000002 10.98 C 23.61 10.86, 23.835 10.845, 26.64 10.74 C 29.22 10.65, 30.224999999999998 10.605, 31.799999999999997 10.56 C 32.37 10.56, 32.655 10.56, 32.94 10.56 L 32.94 10.56" fill="none" stroke="black" stroke-width="5"></path><path d="M 14.580000000000002 12.78 C 14.040000000000001 14.16, 14.085 14.069999999999999, 13.5 15.54 C 12.870000000000001 17.1, 12.705 17.28, 12.24 18.66 C 11.940000000000001 19.86, 11.835 20.009999999999998, 11.64 21.06 C 11.55 21.96, 11.504999999999999 22.169999999999998, 11.459999999999999 22.86 C 11.459999999999999 23.34, 11.459999999999999 23.31, 11.459999999999999 23.82 C 11.459999999999999 24.36, 11.43 24.435000000000002, 11.459999999999999 24.900000000000002 C 11.52 25.29, 11.445 25.365, 11.58 25.68 C 11.79 25.92, 11.73 25.860000000000003, 12 26.160000000000004 C 12.33 26.520000000000003, 12.33 26.595000000000006, 12.66 26.880000000000003 C 12.99 27.09, 12.795 27.029999999999998, 13.32 27.299999999999997 C 14.04 27.63, 13.965 27.75, 14.76 27.96 C 15.629999999999999 28.05, 15.21 28.095, 16.5 28.14 C 18.21 28.14, 17.939999999999998 28.245, 19.919999999999998 28.14 C 22.17 27.93, 22.305 27.945, 24.42 27.72 C 26.400000000000002 27.48, 27.015 27.36, 28.380000000000003 27.240000000000002 C 29.130000000000003 27.240000000000002, 29.385000000000005 27.240000000000002, 29.880000000000003 27.240000000000002 C 30.12 27.240000000000002, 30.165 27.240000000000002, 30.36 27.240000000000002 C 30.51 27.240000000000002, 30.585 27.240000000000002, 30.660000000000004 27.240000000000002 L 30.660000000000004 27.240000000000002" fill="none" stroke="black" stroke-width="5"></path><path d="M 17.46 28.14 C 17.34 30.09, 17.34 29.64, 17.22 32.04 C 17.1 34.89, 17.04 35.58, 16.98 37.74 C 16.98 39.21, 16.965 39.195, 16.98 40.68 C 17.009999999999998 42.18, 16.98 42.42, 17.04 43.68 C 17.13 44.7, 17.159999999999997 45.06, 17.22 45.72 L 17.28 46.32" fill="none" stroke="black" stroke-width="5"></path><path d="M 25.259999999999998 27.240000000000002 C 25.169999999999998 28.68, 25.125 28.695, 25.08 30.119999999999997 C 25.08 31.529999999999998, 25.08 31.124999999999996, 25.08 32.94 C 25.08 35.16, 25.019999999999996 34.875, 25.08 37.38 C 25.2 40.17, 25.155 40.965, 25.32 42.96 C 25.53 44.16, 25.635 44.685, 25.740000000000002 45.36 C 25.740000000000002 45.510000000000005, 25.740000000000002 45.585, 25.740000000000002 45.660000000000004 L 25.740000000000002 45.660000000000004" fill="none" stroke="black" stroke-width="5"></path></svg>