<svg xmlns="http://www.w3.org/2000/svg" viewBox="7.853333473205566 1.4600000381469727 26.926666259765625 42.620001792907715" width="26.926666259765625" height="42.620001792907715"><path d="M 16.080000000000002 2.46 C 15.24 3.09, 15.75 2.58, 14.399999999999999 3.7199999999999998 C 12.54 5.369999999999999, 12 5.699999999999999, 10.68 7.02 C 9.9 8.01, 9.555000000000001 8.385, 9.120000000000001 9 C 9.030000000000001 9.24, 8.985 9.285, 8.94 9.48 C 8.94 9.629999999999999, 8.745 9.51, 8.94 9.78 C 9.33 10.17, 9.18 10.23, 9.72 10.56 C 10.41 10.830000000000002, 9.945000000000002 10.905000000000001, 11.100000000000001 11.100000000000001 C 12.72 11.22, 12.375 11.415, 14.34 11.34 C 16.65 11.07, 15.45 11.25, 18.96 10.8 C 23.67 10.170000000000002, 24.945 9.990000000000002, 28.380000000000003 9.540000000000001 C 30.540000000000003 9.27, 31.620000000000005 9.135, 32.7 9 C 32.7 9, 32.67 9, 32.7 9 L 32.82 9" fill="none" stroke="black" stroke-width="5"></path><path d="M 14.399999999999999 11.28 C 14.099999999999998 12.24, 14.235 11.91, 13.799999999999999 13.200000000000001 C 13.23 14.82, 13.125 14.985000000000001, 12.66 16.44 C 12.3 17.73, 12.254999999999999 17.82, 11.94 19.02 C 11.669999999999998 20.130000000000003, 11.609999999999998 20.400000000000002, 11.399999999999999 21.240000000000002 C 11.25 21.810000000000002, 11.175 21.9, 11.100000000000001 22.38 C 11.100000000000001 22.77, 11.100000000000001 22.740000000000002, 11.100000000000001 23.16 C 11.100000000000001 23.61, 11.070000000000002 23.685, 11.100000000000001 24.06 C 11.16 24.36, 11.085 24.300000000000004, 11.22 24.660000000000004 C 11.43 25.080000000000002, 11.370000000000001 25.11, 11.64 25.5 C 11.969999999999999 25.86, 12.014999999999999 25.935, 12.299999999999999 26.22 C 12.54 26.43, 12.45 26.415, 12.78 26.64 C 13.2 26.88, 12.795 26.909999999999997, 13.620000000000001 27.119999999999997 C 14.850000000000001 27.299999999999997, 14.760000000000002 27.39, 16.080000000000002 27.48 C 17.490000000000002 27.48, 16.455 27.555, 18.9 27.48 C 22.38 27.33, 22.53 27.48, 25.86 27.18 C 29.04 26.73, 30.24 26.55, 32.22 26.28 C 33 26.189999999999998, 33.39 26.145, 33.78 26.099999999999998 C 33.78 26.099999999999998, 33.78 26.099999999999998, 33.78 26.099999999999998 L 33.78 26.099999999999998" fill="none" stroke="black" stroke-width="5"></path><path d="M 26.52 25.44 C 26.82 25.560000000000002, 26.894999999999996 25.38, 27.119999999999997 25.68 C 27.27 26.16, 27.21 26.055, 27.42 26.64 C 27.69 27.33, 27.675 27.119999999999997, 27.96 28.02 C 28.259999999999998 29.130000000000003, 28.41 29.145, 28.56 30.240000000000002 C 28.56 31.320000000000004, 28.65 31.440000000000005, 28.56 32.400000000000006 C 28.380000000000003 33.24, 28.560000000000002 33.225, 28.200000000000003 34.08 C 27.66 34.95, 27.75 34.92, 27.119999999999997 35.82 C 26.4 36.75, 26.369999999999997 36.9, 25.68 37.68 C 25.02 38.31, 25.05 38.37, 24.36 38.94 C 23.64 39.45, 23.61 39.54, 22.919999999999998 39.96 C 22.259999999999998 40.29, 22.485 40.214999999999996, 21.6 40.62 C 20.490000000000002 41.099999999999994, 20.384999999999998 41.175, 19.38 41.58 C 18.48 41.91, 18.675 41.895, 17.580000000000002 42.24 C 16.29 42.6, 15.93 42.75, 15 42.96 C 14.43 43.019999999999996, 14.145 43.05, 13.86 43.08 L 13.86 43.08" fill="none" stroke="black" stroke-width="5"></path></svg>