<svg xmlns="http://www.w3.org/2000/svg" viewBox="8.173333168029785 4.940000057220459 22.466666221618652 40.760000705718994" width="22.466666221618652" height="40.760000705718994"><path d="M 14.100000000000001 5.9399999999999995 C 13.2 7.29, 13.094999999999999 7.425000000000001, 12.299999999999999 8.64 C 11.61 9.72, 11.415 9.945, 10.92 10.8 C 10.620000000000001 11.43, 10.5 11.594999999999999, 10.32 12.059999999999999 C 10.26 12.36, 10.23 12.39, 10.2 12.66 C 10.2 12.9, 9.989999999999998 12.885000000000002, 10.2 13.14 C 10.620000000000001 13.41, 10.305 13.53, 11.040000000000001 13.68 C 12.09 13.71, 12.225000000000001 13.74, 13.14 13.74 C 13.920000000000002 13.71, 13.575000000000001 13.785, 14.700000000000001 13.68 C 16.17 13.5, 15.750000000000002 13.59, 17.64 13.32 C 19.95 12.96, 20.174999999999997 12.885000000000002, 22.259999999999998 12.600000000000001 C 24.119999999999997 12.39, 24.645 12.3, 25.98 12.18 C 26.79 12.15, 26.955 12.135000000000002, 27.599999999999998 12.120000000000001 C 28.08 12.120000000000001, 28.125 12.120000000000001, 28.56 12.120000000000001 C 28.949999999999996 12.120000000000001, 29.069999999999997 12.120000000000001, 29.339999999999996 12.120000000000001 C 29.49 12.120000000000001, 29.564999999999998 12.120000000000001, 29.64 12.120000000000001 L 29.64 12.120000000000001" fill="none" stroke="black" stroke-width="5"></path><path d="M 10.08 44.7 C 9.84 43.2, 9.825000000000001 43.485, 9.600000000000001 41.7 C 9.39 39.63, 9.285 39.63, 9.18 37.56 C 9.18 35.49, 9.165 35.52, 9.18 33.42 C 9.21 31.290000000000003, 9.18 30.810000000000002, 9.24 29.160000000000004 C 9.33 27.990000000000002, 9.255 28.200000000000003, 9.42 26.82 C 9.66 25.23, 9.689999999999998 24.885, 9.899999999999999 23.64 C 10.079999999999998 22.740000000000002, 9.945 22.845, 10.26 21.84 C 10.71 20.73, 10.65 20.580000000000002, 11.16 19.62 C 11.73 18.810000000000002, 11.849999999999998 18.509999999999998, 12.299999999999999 18 C 12.629999999999999 17.79, 12.72 17.685000000000002, 12.96 17.580000000000002 C 13.11 17.580000000000002, 12.9 17.355000000000004, 13.26 17.580000000000002 C 13.829999999999998 18.03, 13.844999999999999 17.895000000000003, 14.399999999999999 18.48 C 14.94 19.2, 15.015 19.185, 15.48 19.919999999999998 C 15.87 20.669999999999998, 15.899999999999999 20.474999999999998, 16.259999999999998 21.419999999999998 C 16.589999999999996 22.560000000000002, 16.74 22.35, 16.919999999999998 23.700000000000003 C 16.95 25.26, 16.965 25.44, 16.98 26.82 C 16.98 28.02, 16.98 28.619999999999997, 16.98 29.22 C 16.98 29.22, 16.98 29.22, 16.98 29.22 C 16.98 29.22, 16.98 29.325, 16.98 29.22 C 16.98 29.009999999999998, 16.95 29.534999999999997, 16.98 28.799999999999997 C 17.04 27.54, 16.965000000000003 27.525, 17.1 26.28 C 17.310000000000002 25.05, 17.28 24.915, 17.52 23.82 C 17.79 22.86, 17.82 22.68, 18.06 21.9 C 18.27 21.3, 18.09 21.435000000000002, 18.48 20.700000000000003 C 19.05 19.830000000000002, 19.11 19.590000000000003, 19.62 18.96 C 20.07 18.57, 20.055 18.48, 20.52 18.18 C 21 17.97, 20.745 17.955, 21.48 17.759999999999998 C 22.47 17.58, 22.485 17.534999999999997, 23.46 17.4 C 24.42 17.31, 24.750000000000004 17.265, 25.380000000000003 17.22 C 25.68 17.22, 25.53 17.025, 25.98 17.22 C 26.58 17.61, 26.564999999999998 17.355, 27.18 18 C 27.810000000000002 18.9, 27.975 18.884999999999998, 28.44 19.799999999999997 C 28.740000000000002 20.729999999999997, 28.845 20.775, 29.04 21.66 C 29.13 22.5, 29.174999999999997 21.93, 29.22 23.34 C 29.22 25.32, 29.235 25.229999999999997, 29.22 27.299999999999997 C 29.19 29.459999999999997, 29.250000000000004 30.029999999999994, 29.160000000000004 31.619999999999997 C 29.01 32.64, 29.04 32.475, 28.86 33.660000000000004 C 28.65 35.010000000000005, 28.650000000000002 35.265, 28.44 36.36 C 28.23 37.2, 28.259999999999998 37.08, 28.02 38.04 C 27.75 39.120000000000005, 27.765 39.135000000000005, 27.48 40.2 C 27.18 41.25, 27.075000000000003 41.535, 26.880000000000003 42.3 C 26.790000000000003 42.78, 26.775000000000006 42.915, 26.700000000000003 43.26 C 26.64 43.47, 26.61 43.575, 26.58 43.68 C 26.58 43.68, 26.58 43.68, 26.58 43.68 L 26.58 43.68" fill="none" stroke="black" stroke-width="5"></path></svg>