<svg xmlns="http://www.w3.org/2000/svg" viewBox="10.85547161102295 3.0799999237060547 21.284526824951172 42.19999885559082" width="21.284526824951172" height="42.19999885559082"><path d="M 17.52 4.08 C 17.159999999999997 4.5600000000000005, 17.324999999999996 4.455, 16.799999999999997 5.04 C 16.11 5.73, 16.034999999999997 5.79, 15.419999999999998 6.42 C 14.879999999999999 6.99, 14.76 7.035, 14.34 7.5600000000000005 C 14.04 8.04, 13.935 7.994999999999999, 13.74 8.52 C 13.649999999999999 9.09, 13.604999999999999 9.15, 13.559999999999999 9.66 C 13.559999999999999 10.11, 13.559999999999999 10.215, 13.559999999999999 10.56 C 13.559999999999999 10.8, 13.439999999999998 10.830000000000002, 13.559999999999999 11.040000000000001 C 13.799999999999999 11.219999999999999, 13.499999999999998 11.264999999999999, 14.04 11.399999999999999 C 14.879999999999999 11.489999999999998, 14.73 11.535, 15.72 11.58 C 16.86 11.58, 16.68 11.58, 18 11.58 C 19.5 11.58, 19.395 11.595, 21 11.58 C 22.71 11.55, 22.875 11.58, 24.42 11.52 C 25.8 11.43, 26.16 11.415, 27.18 11.34 C 27.84 11.280000000000001, 28.064999999999998 11.25, 28.5 11.22 C 28.71 11.22, 28.650000000000002 11.22, 28.92 11.22 C 29.25 11.22, 29.339999999999996 11.22, 29.58 11.22 C 29.73 11.22, 29.805 11.22, 29.880000000000003 11.22 L 29.880000000000003 11.22" fill="none" stroke="black" stroke-width="5"></path><path d="M 12.66 27.42 C 12.6 27.09, 12.69 27.9, 12.54 26.759999999999998 C 12.299999999999999 24.81, 12.224999999999998 24.404999999999998, 12.059999999999999 22.86 C 11.969999999999999 21.72, 11.79 21.825000000000003, 11.879999999999999 20.580000000000002 C 12.149999999999999 19.23, 12.059999999999999 18.81, 12.419999999999998 17.88 C 12.87 17.369999999999997, 12.945 17.13, 13.32 16.86 C 13.62 16.83, 13.485 16.604999999999997, 13.919999999999998 16.799999999999997 C 14.489999999999998 17.22, 14.579999999999998 17.145, 15.059999999999999 17.64 C 15.45 18.21, 15.39 17.85, 15.84 18.78 C 16.35 20.07, 16.53 20.43, 16.86 21.36 C 17.009999999999998 21.93, 17.009999999999998 22.095, 17.16 22.5 C 17.310000000000002 22.740000000000002, 17.385 22.86, 17.46 22.98 C 17.46 22.98, 17.445 23.085, 17.46 22.98 C 17.490000000000002 22.77, 17.505 23.325, 17.52 22.56 C 17.52 21.24, 17.445 20.909999999999997, 17.52 19.919999999999998 C 17.67 19.259999999999998, 17.61 19.095, 17.82 18.6 C 18.09 18.270000000000003, 17.939999999999998 18.225, 18.36 17.94 C 18.93 17.700000000000003, 18.36 17.700000000000003, 19.5 17.46 C 21.21 17.22, 21.314999999999998 17.19, 22.919999999999998 16.98 C 24.42 16.8, 24.87 16.71, 25.92 16.62 C 26.52 16.62, 26.58 16.575000000000003, 27.119999999999997 16.62 C 27.599999999999998 16.71, 27.54 16.499999999999996, 28.08 16.799999999999997 C 28.68 17.31, 28.755000000000003 17.235, 29.28 17.82 C 29.73 18.48, 29.805 18.21, 30.18 19.14 C 30.48 20.34, 30.555 20.505, 30.78 21.54 C 30.93 22.41, 30.99 22.44, 31.08 23.28 C 31.11 24.090000000000003, 31.125 24.450000000000003, 31.14 24.900000000000002 L 31.14 25.08" fill="none" stroke="black" stroke-width="5"></path><path d="M 23.700000000000003 17.64 C 23.880000000000003 19.41, 23.91 19.185000000000002, 24.06 21.18 C 24.18 23.4, 24.284999999999997 23.474999999999998, 24.299999999999997 25.619999999999997 C 24.209999999999997 27.689999999999998, 24.345 27.689999999999998, 24.119999999999997 29.759999999999998 C 23.759999999999998 31.830000000000002, 23.909999999999997 31.905000000000005, 23.4 33.900000000000006 C 22.740000000000002 35.82000000000001, 22.830000000000002 36.120000000000005, 22.080000000000002 37.74 C 21.240000000000002 39.06, 21.134999999999998 39.375, 20.4 40.38 C 19.77 41.07, 19.8 41.085, 19.14 41.76 C 18.45 42.42, 18.314999999999998 42.525, 17.759999999999998 43.08 C 17.339999999999996 43.53, 17.174999999999997 43.72500000000001, 16.919999999999998 43.980000000000004 C 16.83 44.04, 16.830000000000002 44.02499999999999, 16.740000000000002 44.099999999999994 L 16.56 44.28" fill="none" stroke="black" stroke-width="5"></path></svg>