<svg xmlns="http://www.w3.org/2000/svg" viewBox="9.133333206176758 2.4800000190734863 25.22666835784912 42.91999959945679" width="25.22666835784912" height="42.91999959945679"><path d="M 15.18 3.4799999999999995 C 14.52 4.38, 14.34 4.575, 13.86 5.28 C 13.559999999999999 5.790000000000001, 13.575 5.760000000000001, 13.26 6.300000000000001 C 12.93 6.87, 12.870000000000001 6.945, 12.600000000000001 7.4399999999999995 C 12.39 7.859999999999999, 12.3 7.994999999999999, 12.18 8.28 C 12.15 8.43, 12.135000000000002 8.43, 12.120000000000001 8.58 C 12.120000000000001 8.73, 12.045000000000002 8.684999999999999, 12.120000000000001 8.879999999999999 C 12.27 9.12, 12.075 9.209999999999999, 12.419999999999998 9.36 C 12.959999999999999 9.42, 12.87 9.45, 13.5 9.48 C 14.22 9.48, 13.755 9.495000000000001, 14.940000000000001 9.48 C 16.590000000000003 9.45, 16.455000000000002 9.435, 18.240000000000002 9.42 C 20.160000000000004 9.42, 20.175000000000004 9.42, 22.080000000000002 9.42 C 23.97 9.42, 24.12 9.42, 25.86 9.42 C 27.45 9.42, 27.855 9.51, 29.04 9.42 C 29.82 9.24, 29.819999999999997 9.195, 30.599999999999998 9.06 C 31.380000000000003 8.969999999999999, 31.620000000000005 8.924999999999999, 32.160000000000004 8.879999999999999 C 32.46 8.879999999999999, 32.535 8.879999999999999, 32.76 8.879999999999999 C 32.91 8.879999999999999, 32.94 8.879999999999999, 33.06 8.879999999999999 C 33.150000000000006 8.879999999999999, 33.165000000000006 8.879999999999999, 33.24 8.879999999999999 L 33.36 8.879999999999999" fill="none" stroke="black" stroke-width="5"></path><path d="M 15.78 9.899999999999999 C 15 11.55, 14.940000000000001 11.595, 14.22 13.200000000000001 C 13.559999999999999 14.760000000000002, 13.634999999999998 14.385, 12.899999999999999 16.32 C 12.09 18.630000000000003, 11.864999999999998 18.975, 11.28 20.94 C 10.92 22.560000000000002, 10.845 22.605, 10.56 24.18 C 10.350000000000001 25.71, 10.245000000000001 25.8, 10.14 27.240000000000002 C 10.14 28.590000000000003, 10.14 28.635, 10.14 29.94 C 10.14 31.200000000000003, 10.14 31.425, 10.14 32.46 C 10.14 33.269999999999996, 10.14 33.21, 10.14 34.08 C 10.14 35.01, 10.125 35.025, 10.14 35.94 C 10.17 36.84, 10.079999999999998 36.945, 10.2 37.74 C 10.41 38.43, 10.455000000000002 38.519999999999996, 10.620000000000001 39.12 C 10.74 39.629999999999995, 10.665 39.525, 10.86 40.14 C 11.129999999999999 40.86, 11.159999999999998 41.01, 11.399999999999999 41.58 C 11.61 42, 11.46 42, 11.82 42.42 C 12.33 42.84, 12.3 42.93, 12.84 43.26 C 13.41 43.5, 13.395 43.545, 13.98 43.74 C 14.58 43.89, 14.385 43.89, 15.18 44.04 C 16.17 44.19, 15.99 44.265, 17.16 44.339999999999996 C 18.509999999999998 44.339999999999996, 18.57 44.474999999999994, 19.86 44.339999999999996 C 21.09 44.06999999999999, 21.33 44.114999999999995, 22.32 43.8 C 23.07 43.44, 22.98 43.754999999999995, 23.82 43.08 C 24.75 42.089999999999996, 25.11 41.78999999999999, 25.68 41.099999999999994 C 25.89 40.709999999999994, 25.994999999999997 40.515, 26.099999999999998 40.32 C 26.099999999999998 40.32, 26.099999999999998 40.32, 26.099999999999998 40.32 L 26.099999999999998 40.32" fill="none" stroke="black" stroke-width="5"></path><path d="M 10.379999999999999 34.26 C 11.7 34.26, 10.785 34.425, 13.02 34.26 C 16.17 33.92999999999999, 16.815 33.89999999999999, 19.32 33.599999999999994 C 21.18 33.33, 21.494999999999997 33.27, 23.04 33.06 C 24.27 32.91, 24.36 32.879999999999995, 25.5 32.76 C 26.549999999999997 32.67, 26.759999999999998 32.669999999999995, 27.599999999999998 32.58 C 28.229999999999997 32.49, 28.2 32.52000000000001, 28.86 32.400000000000006 C 29.55 32.25, 29.76 32.309999999999995, 30.240000000000002 32.099999999999994 C 30.51 31.83, 30.54 31.904999999999998, 30.78 31.56 C 30.990000000000002 31.14, 31.050000000000004 31.2, 31.200000000000003 30.72 C 31.290000000000003 30.18, 31.335 30.42, 31.380000000000003 29.64 C 31.380000000000003 28.619999999999997, 31.380000000000003 28.755, 31.380000000000003 27.599999999999998 C 31.380000000000003 26.31, 31.500000000000004 26.655, 31.380000000000003 25.02 C 31.14 23.04, 31.14 22.904999999999998, 30.900000000000002 21.06 C 30.660000000000004 19.35, 30.705000000000002 19.275, 30.42 17.64 C 30.09 16.08, 30.134999999999998 15.93, 29.759999999999998 14.52 C 29.34 13.26, 29.19 12.825, 28.92 12 C 28.8 11.61, 28.785 11.505, 28.68 11.22 C 28.59 11.04, 28.56 11.024999999999999, 28.5 10.86 C 28.47 10.71, 28.515 10.755, 28.44 10.56 C 28.32 10.32, 28.26 10.275, 28.200000000000003 10.08 C 28.200000000000003 9.93, 28.200000000000003 9.855, 28.200000000000003 9.78 L 28.200000000000003 9.78" fill="none" stroke="black" stroke-width="5"></path></svg>