<svg xmlns="http://www.w3.org/2000/svg" viewBox="10.333333015441895 3.1399998664855957 24.686668395996094 41.753333568573" width="24.686668395996094" height="41.753333568573"><path d="M 18.299999999999997 4.14 C 17.729999999999997 4.71, 17.82 4.575, 17.16 5.28 C 16.41 6.119999999999999, 16.455 6.119999999999999, 15.66 6.959999999999999 C 14.82 7.8, 14.745000000000001 7.815, 13.98 8.64 C 13.290000000000001 9.45, 13.155000000000001 9.48, 12.600000000000001 10.26 C 12.18 11.01, 12.045 11.174999999999999, 11.76 11.76 C 11.61 12.18, 11.535 12.270000000000001, 11.459999999999999 12.600000000000001 C 11.459999999999999 12.840000000000002, 11.415 12.870000000000001, 11.459999999999999 13.080000000000002 C 11.55 13.260000000000002, 11.235 13.260000000000002, 11.64 13.440000000000001 C 12.360000000000001 13.620000000000001, 11.865000000000002 13.665, 13.080000000000002 13.799999999999999 C 14.790000000000001 13.89, 15.09 13.995000000000001, 16.5 13.98 C 17.61 13.86, 17.384999999999998 13.845, 18.72 13.74 C 20.28 13.649999999999999, 19.77 13.649999999999999, 21.84 13.559999999999999 C 24.42 13.469999999999999, 24.810000000000002 13.499999999999998, 27 13.379999999999999 C 28.799999999999997 13.23, 29.265 13.185000000000002, 30.599999999999998 13.080000000000002 C 31.47 13.020000000000001, 31.484999999999996 12.990000000000002, 32.339999999999996 12.96 C 33.17999999999999 12.96, 33.599999999999994 12.96, 34.019999999999996 12.96 C 34.019999999999996 12.96, 34.019999999999996 12.96, 34.019999999999996 12.96 L 34.019999999999996 12.96" fill="none" stroke="black" stroke-width="5"></path><path d="M 12 35.28 C 12.75 35.19, 12.719999999999999 35.19, 13.5 35.099999999999994 C 14.31 35.01, 14.385000000000002 34.965, 15.120000000000001 34.92 C 15.780000000000001 34.92, 15.885000000000002 34.92, 16.44 34.92 C 16.89 34.92, 16.95 34.83, 17.34 34.92 C 17.67 35.1, 17.64 34.935, 18 35.28 C 18.39 35.79, 18.555 35.81999999999999, 18.78 36.3 C 18.84 36.75, 18.825 36.63, 18.9 37.2 C 18.990000000000002 37.89, 19.035 37.95, 19.080000000000002 38.58 C 19.080000000000002 39.15, 19.17 39.105, 19.080000000000002 39.72 C 18.9 40.379999999999995, 18.884999999999998 40.545, 18.72 41.04 C 18.57 41.370000000000005, 18.674999999999997 41.325, 18.419999999999998 41.7 C 18.060000000000002 42.120000000000005, 18.090000000000003 42.135, 17.700000000000003 42.54 C 17.28 42.93, 17.145 43.065, 16.86 43.32 C 16.71 43.44, 16.799999999999997 43.440000000000005, 16.56 43.56 C 16.229999999999997 43.68, 16.259999999999998 43.739999999999995, 15.899999999999999 43.8 C 15.51 43.8, 15.39 43.8, 15.120000000000001 43.8 C 14.97 43.8, 15.030000000000001 43.8, 14.82 43.8 C 14.55 43.8, 14.655 44.01, 14.28 43.8 C 13.8 43.379999999999995, 13.74 43.38, 13.32 42.96 C 12.96 42.54, 12.930000000000001 42.51, 12.600000000000001 42.12 C 12.3 41.760000000000005, 12.225000000000001 41.82000000000001, 12 41.400000000000006 C 11.85 40.92, 11.864999999999998 40.875, 11.7 40.44 C 11.52 40.05, 11.43 40.185, 11.34 39.660000000000004 C 11.34 39, 11.34 39.135, 11.34 38.339999999999996 C 11.34 37.41, 11.325 37.35, 11.34 36.480000000000004 C 11.37 35.67, 11.339999999999998 35.49, 11.399999999999999 34.86 C 11.489999999999998 34.41, 11.535 34.725, 11.58 33.96 C 11.58 32.879999999999995, 11.52 33.059999999999995, 11.58 31.799999999999997 C 11.7 30.36, 11.67 30.15, 11.82 28.92 C 12 27.900000000000002, 11.955 27.735000000000003, 12.18 26.880000000000003 C 12.45 26.19, 12.405000000000001 26.34, 12.72 25.5 C 13.080000000000002 24.509999999999998, 13.035000000000002 24.45, 13.440000000000001 23.52 C 13.89 22.65, 13.92 22.515, 14.34 21.78 C 14.73 21.18, 14.865000000000002 20.970000000000002, 15.120000000000001 20.580000000000002 C 15.24 20.4, 15.225 20.369999999999997, 15.36 20.22 C 15.51 20.1, 15.33 19.95, 15.66 19.98 C 16.17 20.16, 16.275 20.07, 16.68 20.34 C 16.98 20.7, 16.92 20.64, 17.28 21.06 C 17.700000000000003 21.54, 17.64 21.435, 18.12 22.02 C 18.660000000000004 22.71, 18.690000000000005 22.575, 19.200000000000003 23.4 C 19.68 24.36, 19.785 24.405, 20.16 25.32 C 20.43 26.189999999999998, 20.535000000000004 26.46, 20.700000000000003 27.06 C 20.76 27.39, 20.79 27.555, 20.82 27.72 C 20.82 27.72, 20.82 27.735, 20.82 27.72 C 20.82 27.69, 20.775 28.005000000000003, 20.82 27.660000000000004 C 20.91 27, 20.82 27.15, 21 26.339999999999996 C 21.27 25.38, 21.21 25.41, 21.54 24.42 C 21.93 23.4, 21.884999999999998 23.28, 22.32 22.38 C 22.8 21.6, 22.770000000000003 21.465, 23.28 20.82 C 23.82 20.31, 23.52 20.249999999999996, 24.36 19.799999999999997 C 25.5 19.409999999999997, 25.785 19.259999999999998, 26.64 19.02 C 27.21 18.93, 27.240000000000002 18.705, 27.78 18.84 C 28.29 19.2, 28.334999999999997 19.169999999999998, 28.799999999999997 19.56 C 29.22 19.979999999999997, 29.115 19.59, 29.64 20.4 C 30.270000000000003 21.599999999999998, 30.345000000000002 21.404999999999998, 30.900000000000002 22.799999999999997 C 31.380000000000003 24.39, 31.395 24.36, 31.86 25.98 C 32.31 27.630000000000003, 32.445 27.795, 32.76 29.28 C 32.94 30.6, 33.03 30.675000000000004, 33.12 31.92 C 33.12 33.09, 33.165 33.239999999999995, 33.12 34.26 C 33.03 35.129999999999995, 33.03 35.19, 32.94 36 C 32.849999999999994 36.75, 32.864999999999995 36.870000000000005, 32.76 37.5 C 32.64 38.01, 32.684999999999995 37.86, 32.519999999999996 38.519999999999996 C 32.309999999999995 39.33, 32.24999999999999 39.375, 32.099999999999994 40.14 C 32.01 40.86, 32.01 40.935, 31.92 41.58 C 31.830000000000002 42.15, 31.785000000000004 42.36, 31.740000000000002 42.72 C 31.740000000000002 42.87, 31.740000000000002 42.94499999999999, 31.740000000000002 43.019999999999996 L 31.740000000000002 43.019999999999996" fill="none" stroke="black" stroke-width="5"></path></svg>