<svg xmlns="http://www.w3.org/2000/svg" viewBox="7.460000038146973 4.519999980926514 24.993629455566406 41.00000047683716" width="24.993629455566406" height="41.00000047683716"><path d="M 16.799999999999997 5.9399999999999995 C 16.799999999999997 7.0200000000000005, 16.874999999999996 6.795000000000002, 16.799999999999997 8.100000000000001 C 16.65 9.63, 16.935 9.825, 16.5 11.16 C 15.78 12.3, 16.215 12.285000000000002, 15.059999999999999 13.440000000000001 C 13.469999999999999 14.61, 13.079999999999998 14.969999999999999, 11.879999999999999 15.78 C 11.07 16.23, 10.844999999999999 16.365, 10.26 16.68 L 9.540000000000001 17.04" fill="none" stroke="black" stroke-width="5"></path><path d="M 16.32 11.94 C 16.98 11.94, 16.125 11.94, 17.64 11.94 C 20.009999999999998 11.94, 20.28 11.94, 22.38 11.94 C 24.21 11.94, 24.45 11.94, 26.04 11.94 C 27.39 11.94, 27.735000000000003 11.94, 28.740000000000002 11.94 L 30.06 11.94" fill="none" stroke="black" stroke-width="5"></path><path d="M 29.880000000000003 5.5200000000000005 C 29.55 6.33, 29.415 6.045, 29.22 7.14 C 29.159999999999997 8.52, 29.025 8.714999999999998, 29.099999999999998 9.899999999999999 C 29.31 10.889999999999999, 29.28 10.649999999999999, 29.52 11.879999999999999 C 29.79 13.35, 29.685 13.26, 30.06 14.82 C 30.54 16.47, 30.689999999999998 16.65, 31.02 18.12 C 31.200000000000003 19.410000000000004, 31.290000000000003 19.275000000000002, 31.380000000000003 20.700000000000003 C 31.380000000000003 22.26, 31.410000000000004 22.560000000000002, 31.380000000000003 23.82 C 31.32 24.78, 31.65 24.630000000000003, 31.259999999999998 25.740000000000002 C 30.54 27, 30.6 27.18, 29.82 28.259999999999998 C 28.98 29.159999999999997, 28.845 29.505, 28.14 30.06 C 27.57 30.27, 27.675 30.45, 27 30.48 C 26.22 30.33, 26.37 30.855, 25.44 30.18 C 24.36 28.98, 24.330000000000002 29.43, 23.28 27.78 C 22.26 25.68, 21.810000000000002 24.900000000000002, 21.240000000000002 23.580000000000002 C 21.12 23.04, 21.060000000000002 22.77, 21 22.5 C 21 22.5, 21.015 22.245, 21 22.5 C 20.97 23.009999999999998, 20.895000000000003 22.38, 20.94 23.52 C 21.060000000000002 25.29, 21.15 25.575, 21.18 27.06 C 21.119999999999997 28.259999999999998, 21.345 28.485, 21.06 29.46 C 20.549999999999997 30.21, 21.09 30.300000000000004, 20.04 30.96 C 18.45 31.529999999999998, 18.39 31.694999999999993, 16.86 32.099999999999994 C 15.389999999999999 32.339999999999996, 15.179999999999998 32.459999999999994, 13.919999999999998 32.58 C 12.87 32.58, 12.795 32.61, 11.82 32.58 C 10.92 32.519999999999996, 10.86 32.64, 10.02 32.46 L 8.459999999999999 31.86" fill="none" stroke="black" stroke-width="5"></path><path d="M 15.48 32.160000000000004 C 15.27 33.96, 15.224999999999998 33.87, 15.059999999999999 35.76 C 14.94 37.739999999999995, 14.879999999999999 38.055, 14.82 39.72 C 14.82 41.07, 14.82 41.22, 14.82 42.42 C 14.82 43.47, 14.82 43.995, 14.82 44.519999999999996 C 14.82 44.519999999999996, 14.82 44.519999999999996, 14.82 44.519999999999996 L 14.82 44.519999999999996" fill="none" stroke="black" stroke-width="5"></path><path d="M 23.94 32.339999999999996 C 23.67 33.3, 23.49 32.955, 23.4 34.26 C 23.490000000000002 35.91, 23.415000000000003 35.910000000000004, 23.580000000000002 37.56 C 23.82 39.21, 23.895 39.57, 24.06 40.86 C 24.15 41.79, 24.195 42.089999999999996, 24.240000000000002 42.72 C 24.240000000000002 43.05, 24.240000000000002 43.215, 24.240000000000002 43.38 C 24.240000000000002 43.38, 24.240000000000002 43.38, 24.240000000000002 43.38 L 24.240000000000002 43.38" fill="none" stroke="black" stroke-width="5"></path></svg>