<svg xmlns="http://www.w3.org/2000/svg" viewBox="8.180000305175781 3.0199999809265137 27.079998016357422 45.07999849319458" width="27.079998016357422" height="45.07999849319458"><path d="M 16.56 4.0200000000000005 C 15.66 5.370000000000001, 15.48 5.490000000000001, 14.76 6.720000000000001 C 14.219999999999999 7.83, 14.115 8.055, 13.68 8.94 C 13.35 9.6, 13.32 9.719999999999999, 13.02 10.26 C 12.75 10.68, 12.66 10.695000000000002, 12.48 11.100000000000001 C 12.39 11.49, 12.375 11.61, 12.299999999999999 11.879999999999999 C 12.239999999999998 12.03, 12.209999999999999 11.94, 12.18 12.18 C 12.18 12.51, 12.18 12.645, 12.18 12.84 C 12.18 12.9, 12.059999999999999 12.81, 12.18 12.96 C 12.42 13.200000000000001, 12.3 13.245000000000001, 12.66 13.440000000000001 C 13.14 13.59, 12.495000000000001 13.620000000000001, 13.620000000000001 13.74 C 15.39 13.829999999999998, 15.06 13.874999999999998, 17.16 13.919999999999998 C 19.59 13.919999999999998, 19.08 14.054999999999998, 22.02 13.919999999999998 C 25.47 13.649999999999999, 26.415000000000003 13.575, 28.92 13.379999999999999 C 30.48 13.26, 30.990000000000002 13.2, 32.04 13.14 C 32.58 13.14, 32.775 13.14, 33.12 13.14 C 33.269999999999996 13.14, 33.345 13.14, 33.42 13.14 L 33.42 13.14" fill="none" stroke="black" stroke-width="5"></path><path d="M 11.879999999999999 36.96 C 11.37 35.25, 11.309999999999999 35.625, 10.86 33.54 C 10.469999999999999 31.08, 10.32 30.9, 10.08 28.619999999999997 C 9.989999999999998 26.52, 9.915 25.950000000000003, 9.899999999999999 24.42 C 9.959999999999999 23.46, 9.794999999999998 23.445, 10.02 22.5 C 10.41 21.57, 10.095 21.39, 10.8 20.64 C 11.82 20.07, 11.805 19.815, 12.84 19.5 C 13.89 19.439999999999998, 13.98 19.275, 14.940000000000001 19.38 C 15.81 19.65, 15.915 19.5, 16.68 19.919999999999998 C 17.34 20.49, 17.369999999999997 20.4, 18 21.06 C 18.6 21.81, 18.615000000000002 21.419999999999998, 19.200000000000003 22.56 C 19.770000000000003 24.089999999999996, 19.905 24.449999999999996, 20.34 25.619999999999997 C 20.64 26.43, 20.745 26.745, 20.94 27.240000000000002 C 21.03 27.42, 21.060000000000002 27.479999999999997, 21.12 27.599999999999998 C 21.15 27.659999999999997, 21.165 27.689999999999998, 21.18 27.72 C 21.18 27.72, 21.12 27.735, 21.18 27.72 C 21.299999999999997 27.69, 21.209999999999997 27.825000000000003, 21.419999999999998 27.660000000000004 C 21.72 27.36, 21.255 27.36, 22.02 27.06 C 23.25 26.759999999999998, 23.19 26.61, 24.48 26.46 C 25.83 26.46, 26.1 26.37, 27.18 26.46 C 27.99 26.64, 28.109999999999996 26.55, 28.799999999999997 26.82 C 29.369999999999997 27.18, 29.37 27.075, 29.94 27.54 C 30.509999999999998 28.11, 30.494999999999997 28.035, 31.08 28.68 C 31.68 29.4, 31.695 29.279999999999998, 32.28 30.119999999999997 C 32.85 31.08, 33.015 31.32, 33.42 32.04 C 33.660000000000004 32.519999999999996, 33.690000000000005 32.55, 33.900000000000006 33 L 34.26 33.839999999999996" fill="none" stroke="black" stroke-width="5"></path><path d="M 21.18 27.54 C 21.6 28.11, 21.57 27.57, 22.02 28.68 C 22.5 30.33, 22.44 30.69, 22.98 31.98 C 23.58 32.91, 23.295 32.669999999999995, 24.18 33.839999999999996 C 25.35 35.25, 25.41 35.64, 26.52 36.660000000000004 C 27.57 37.290000000000006, 27.644999999999996 37.455000000000005, 28.619999999999997 37.92 C 29.52 38.22, 29.595 38.309999999999995, 30.42 38.519999999999996 C 31.17 38.64, 31.17 38.64, 31.92 38.76 C 32.67 38.879999999999995, 32.925 38.879999999999995, 33.42 39 C 33.660000000000004 39.120000000000005, 33.73500000000001 39.18, 33.900000000000006 39.24 C 33.99 39.24, 34.035 39.24, 34.08 39.24 C 34.08 39.24, 34.08 39.24, 34.08 39.24 C 34.08 39.24, 34.17 39.195, 34.08 39.24 C 33.9 39.33, 34.364999999999995 39.315, 33.72 39.42 C 32.61 39.540000000000006, 32.955 39.480000000000004, 31.5 39.660000000000004 C 29.700000000000003 39.900000000000006, 29.745000000000005 39.855000000000004, 27.900000000000002 40.14 C 26.009999999999998 40.47, 25.799999999999997 40.394999999999996, 24.119999999999997 40.8 C 22.65 41.28, 22.32 41.235, 21.18 41.76 C 20.369999999999997 42.33, 20.31 42.135000000000005, 19.56 42.900000000000006 C 18.869999999999997 43.86, 18.689999999999998 43.89, 18.18 44.82 C 17.85 45.72, 17.685 46.05, 17.52 46.62 C 17.52 46.86, 17.52 46.98, 17.52 47.099999999999994 L 17.52 47.099999999999994" fill="none" stroke="black" stroke-width="5"></path><path d="M 9.18 43.38 C 9.629999999999999 43.05, 9.045 42.93, 10.08 42.72 C 11.7 42.629999999999995, 11.82 42.585, 13.32 42.54 C 14.700000000000001 42.54, 14.910000000000002 42.36, 16.080000000000002 42.54 C 17.04 42.9, 17.4 43.004999999999995, 18 43.26 C 18.240000000000002 43.41, 18.36 43.485, 18.48 43.56 L 18.48 43.56" fill="none" stroke="black" stroke-width="5"></path></svg>