<svg xmlns="http://www.w3.org/2000/svg" viewBox="10.273333549499512 3.0210485458374023 19.52666473388672 41.118950843811035" width="19.52666473388672" height="41.118950843811035"><path d="M 11.58 32.22 C 11.43 30.029999999999998, 11.355 30.029999999999994, 11.28 27.839999999999996 C 11.28 25.65, 11.264999999999999 25.23, 11.28 23.46 C 11.309999999999999 22.11, 11.235 21.854999999999997, 11.34 20.759999999999998 C 11.52 19.92, 11.445 19.815, 11.7 19.080000000000002 C 12.03 18.450000000000003, 11.985 18.345, 12.36 17.82 C 12.780000000000001 17.4, 12.870000000000001 17.25, 13.200000000000001 16.98 C 13.440000000000001 16.86, 13.44 16.815, 13.68 16.740000000000002 C 13.92 16.71, 13.89 16.485, 14.16 16.68 C 14.46 17.1, 14.37 16.86, 14.76 17.52 C 15.24 18.42, 15.225 18.375, 15.72 19.32 C 16.23 20.31, 16.26 20.264999999999997, 16.740000000000002 21.299999999999997 C 17.19 22.38, 17.37 22.59, 17.64 23.46 C 17.73 24.12, 17.73 24.285, 17.82 24.78 C 17.91 25.11, 17.955 25.275000000000002, 18 25.44 C 18 25.44, 18 25.44, 18 25.44 C 18 25.44, 18 25.755000000000003, 18 25.44 C 18 24.810000000000002, 17.955 25.11, 18 24.18 C 18.09 22.95, 18.015 22.755, 18.18 21.72 C 18.42 20.88, 18.375 20.79, 18.66 20.04 C 18.990000000000002 19.38, 18.945 19.29, 19.32 18.72 C 19.740000000000002 18.24, 19.545 18.119999999999997, 20.16 17.759999999999998 C 20.97 17.52, 21.045 17.4, 21.78 17.28 C 22.44 17.28, 22.410000000000004 17.28, 23.1 17.28 C 23.82 17.28, 23.91 17.28, 24.54 17.28 C 25.08 17.28, 25.199999999999996 17.28, 25.619999999999997 17.28 C 25.919999999999998 17.28, 25.949999999999996 17.235, 26.22 17.28 C 26.46 17.37, 26.445 17.325000000000003, 26.700000000000003 17.46 C 26.970000000000002 17.64, 26.970000000000002 17.565, 27.240000000000002 17.82 C 27.51 18.15, 27.48 17.955000000000002, 27.78 18.48 C 28.11 19.2, 28.185000000000002 19.049999999999997, 28.44 19.919999999999998 C 28.619999999999997 20.939999999999998, 28.709999999999997 20.73, 28.799999999999997 21.96 C 28.799999999999997 23.4, 28.799999999999997 23.429999999999996, 28.799999999999997 24.839999999999996 C 28.799999999999997 26.22, 28.799999999999997 26.459999999999997, 28.799999999999997 27.599999999999998 C 28.799999999999997 28.5, 28.799999999999997 28.635, 28.799999999999997 29.400000000000002 C 28.799999999999997 30.03, 28.799999999999997 30.045000000000005, 28.799999999999997 30.660000000000004 C 28.799999999999997 31.26, 28.799999999999997 31.365000000000002, 28.799999999999997 31.86 C 28.799999999999997 32.25, 28.799999999999997 32.445, 28.799999999999997 32.64 L 28.799999999999997 32.64" fill="none" stroke="black" stroke-width="5"></path><path d="M 28.5 4.14 C 28.049999999999997 4.109999999999999, 28.529999999999998 3.9299999999999997, 27.599999999999998 4.08 C 26.189999999999998 4.41, 26.310000000000002 4.23, 24.78 4.74 C 23.130000000000003 5.43, 23.325000000000003 5.325, 21.48 6.12 C 19.439999999999998 7.02, 19.064999999999998 7.14, 17.4 7.92 L 14.82 9.24" fill="none" stroke="black" stroke-width="5"></path><path d="M 22.259999999999998 17.1 C 22.32 17.43, 22.349999999999998 16.634999999999998, 22.38 17.759999999999998 C 22.38 19.68, 22.439999999999998 19.950000000000003, 22.38 21.6 C 22.259999999999998 22.98, 22.305 22.575, 22.14 24.36 C 21.93 26.55, 21.945 26.775000000000002, 21.72 28.740000000000002 C 21.48 30.48, 21.435000000000002 30.42, 21.240000000000002 32.22 C 21.090000000000003 34.08, 21.015 34.5, 20.94 35.94 C 20.94 36.96, 20.94 36.900000000000006, 20.94 37.980000000000004 C 20.94 39.120000000000005, 20.94 39.12, 20.94 40.26 C 20.94 41.4, 20.94 41.85, 20.94 42.54 C 20.94 42.78, 20.94 42.87, 20.94 43.019999999999996 C 20.94 43.08, 20.94 43.11, 20.94 43.14 C 20.94 43.14, 20.94 43.14, 20.94 43.14 C 20.94 43.14, 20.94 43.14, 20.94 43.14 L 20.94 43.14" fill="none" stroke="black" stroke-width="5"></path></svg>