<svg xmlns="http://www.w3.org/2000/svg" viewBox="11.697264671325684 2.8399999141693115 16.062735557556152 35.240001916885376" width="16.062735557556152" height="35.240001916885376"><path d="M 17.759999999999998 35.82 C 17.31 34.5, 17.205 34.26, 16.86 33.18 C 16.619999999999997 32.34, 16.65 32.37, 16.38 31.5 C 16.08 30.6, 16.14 30.720000000000002, 15.78 29.700000000000003 C 15.36 28.560000000000002, 15.285000000000002 28.365000000000002, 14.940000000000001 27.42 C 14.67 26.67, 14.639999999999999 26.580000000000002, 14.399999999999999 25.92 C 14.19 25.35, 14.16 25.425, 13.98 24.78 C 13.83 24.060000000000002, 13.8 23.97, 13.68 23.34 C 13.59 22.799999999999997, 13.59 22.77, 13.5 22.259999999999998 C 13.41 21.779999999999998, 13.365 21.734999999999996, 13.32 21.299999999999997 C 13.32 20.909999999999997, 13.32 20.82, 13.32 20.52 C 13.32 20.310000000000002, 13.32 20.25, 13.32 20.1 C 13.32 20.009999999999998, 13.32 20.04, 13.32 19.919999999999998 C 13.32 19.77, 13.305 19.740000000000002, 13.32 19.62 C 13.35 19.53, 13.2 19.650000000000002, 13.379999999999999 19.44 C 13.709999999999999 19.11, 13.709999999999999 19.005000000000003, 14.04 18.78 C 14.370000000000001 18.66, 14.25 18.689999999999998, 14.700000000000001 18.54 C 15.27 18.36, 15.33 18.27, 15.84 18.18 C 16.29 18.18, 16.185000000000002 18.225, 16.740000000000002 18.18 C 17.4 18.09, 17.49 18.045, 18.06 18 C 18.54 18, 18.419999999999998 18, 19.02 18 C 19.740000000000002 18, 19.695 17.939999999999998, 20.46 18 C 21.270000000000003 18.12, 21.270000000000003 18.135, 22.080000000000002 18.240000000000002 C 22.89 18.33, 23.1 18.345, 23.700000000000003 18.419999999999998 C 24.090000000000003 18.479999999999997, 24.090000000000003 18.509999999999998, 24.48 18.54 C 24.869999999999997 18.54, 24.974999999999998 18.494999999999997, 25.259999999999998 18.54 C 25.439999999999998 18.63, 25.529999999999998 18.674999999999997, 25.619999999999997 18.72 L 25.619999999999997 18.72" fill="none" stroke="black" stroke-width="5"></path><path d="M 26.759999999999998 3.84 C 26.1 4.14, 26.445 3.8399999999999994, 25.44 4.4399999999999995 C 24.090000000000003 5.34, 24.225 5.16, 22.740000000000002 6.24 C 21.12 7.5, 20.835 7.71, 19.5 8.76 C 18.45 9.6, 18.015 9.945, 17.4 10.44 C 17.22 10.59, 17.13 10.665, 17.04 10.74 C 17.04 10.74, 17.04 10.74, 17.04 10.74 C 17.04 10.74, 17.04 10.74, 17.04 10.74 L 17.04 10.74" fill="none" stroke="black" stroke-width="5"></path><path d="M 12.84 37.08 C 12.87 37.05, 12.464999999999998 37.12499999999999, 12.899999999999999 37.019999999999996 C 13.74 36.84, 13.665000000000003 36.825, 14.580000000000002 36.660000000000004 C 15.57 36.510000000000005, 15.419999999999998 36.495000000000005, 16.56 36.36 C 17.85 36.239999999999995, 18.09 36.18, 19.14 36.12 C 19.95 36.12, 19.904999999999998 36.12, 20.759999999999998 36.12 C 21.659999999999997 36.12, 21.794999999999998 36.12, 22.56 36.12 C 23.189999999999998 36.12, 23.22 36.12, 23.82 36.12 C 24.39 36.12, 24.555 36.12, 24.96 36.12 C 25.200000000000003 36.12, 25.275000000000002 36.12, 25.44 36.12 L 25.619999999999997 36.12" fill="none" stroke="black" stroke-width="5"></path></svg>