<svg xmlns="http://www.w3.org/2000/svg" viewBox="12.140000343322754 1.1600000858306885 18.200000762939453 37.040000677108765" width="18.200000762939453" height="37.040000677108765"><path d="M 22.02 2.16 C 22.02 2.7, 22.02 2.64, 22.02 3.24 C 22.02 3.9000000000000004, 22.02 3.7350000000000003, 22.02 4.5600000000000005 C 22.02 5.550000000000001, 22.02 5.520000000000001, 22.02 6.540000000000001 C 22.02 7.590000000000001, 22.02 7.845000000000001, 22.02 8.64 C 22.02 9.18, 21.974999999999998 9.135000000000002, 22.02 9.72 C 22.11 10.350000000000001, 22.110000000000003 10.245000000000001, 22.200000000000003 10.98 C 22.29 11.82, 22.335 11.745000000000001, 22.38 12.66 C 22.38 13.65, 22.38 13.8, 22.38 14.64 C 22.38 15.33, 22.38 15.27, 22.38 16.02 C 22.38 16.83, 22.424999999999997 16.830000000000002, 22.38 17.64 C 22.29 18.45, 22.335 18.54, 22.200000000000003 19.259999999999998 C 22.020000000000003 19.89, 22.05 19.905, 21.84 20.52 C 21.6 21.119999999999997, 21.63 21.029999999999998, 21.36 21.72 C 21.06 22.5, 21.134999999999998 22.605, 20.759999999999998 23.28 C 20.31 23.85, 20.265 23.925000000000004, 19.86 24.42 C 19.5 24.84, 19.53 24.84, 19.14 25.259999999999998 C 18.72 25.68, 18.839999999999996 25.604999999999997, 18.299999999999997 26.099999999999998 C 17.64 26.67, 17.595 26.73, 16.98 27.240000000000002 C 16.41 27.69, 16.215 27.84, 15.84 28.14 C 15.66 28.29, 15.57 28.365000000000002, 15.48 28.44 C 15.48 28.44, 15.48 28.44, 15.48 28.44 L 15.48 28.44" fill="none" stroke="black" stroke-width="5"></path><path d="M 13.14 37.019999999999996 C 13.440000000000001 37.019999999999996, 13.185 36.974999999999994, 13.74 37.019999999999996 C 14.55 37.11, 14.445 37.155, 15.36 37.2 C 16.38 37.2, 16.455 37.2, 17.4 37.2 C 18.27 37.2, 17.985 37.2, 19.14 37.2 C 20.58 37.2, 20.64 37.2, 22.02 37.2 C 23.340000000000003 37.2, 23.415000000000003 37.2, 24.660000000000004 37.2 C 25.830000000000002 37.2, 26.19 37.2, 27 37.2 C 27.450000000000003 37.2, 27.315000000000005 37.2, 27.900000000000002 37.2 C 28.619999999999997 37.2, 28.979999999999997 37.2, 29.339999999999996 37.2 L 29.339999999999996 37.2" fill="none" stroke="black" stroke-width="5"></path></svg>