<svg xmlns="http://www.w3.org/2000/svg" viewBox="13.220000267028809 3.260000228881836 17.493332862854004 43.03999900817871" width="17.493332862854004" height="43.03999900817871"><path d="M 14.22 4.38 C 14.43 4.5, 14.52 4.05, 14.64 4.62 C 14.670000000000002 5.640000000000001, 14.685 5.43, 14.700000000000001 6.66 C 14.700000000000001 8.100000000000001, 14.700000000000001 8.175, 14.700000000000001 9.540000000000001 C 14.700000000000001 10.830000000000002, 14.700000000000001 10.875000000000002, 14.700000000000001 12.120000000000001 C 14.700000000000001 13.32, 14.700000000000001 13.035, 14.700000000000001 14.52 C 14.700000000000001 16.29, 14.700000000000001 16.409999999999997, 14.700000000000001 18.06 C 14.700000000000001 19.59, 14.700000000000001 19.77, 14.700000000000001 21.12 C 14.700000000000001 22.29, 14.700000000000001 22.470000000000002, 14.700000000000001 23.46 C 14.700000000000001 24.27, 14.565000000000001 24.39, 14.700000000000001 25.08 C 14.97 25.65, 14.940000000000001 25.755, 15.24 26.22 C 15.57 26.58, 15.569999999999999 26.685000000000002, 15.899999999999999 26.94 C 16.229999999999997 27.090000000000003, 16.275 27.150000000000002, 16.56 27.240000000000002 C 16.799999999999997 27.27, 16.724999999999998 27.24, 17.04 27.299999999999997 C 17.43 27.39, 17.43 27.435, 17.82 27.48 C 18.21 27.48, 18.150000000000002 27.645, 18.6 27.48 C 19.11 27.15, 19.200000000000003 27.165, 19.62 26.82 C 19.950000000000003 26.46, 19.860000000000003 26.564999999999998, 20.28 26.099999999999998 C 20.79 25.53, 20.939999999999998 25.5, 21.299999999999997 24.96 C 21.509999999999998 24.450000000000003, 21.555 24.465000000000003, 21.72 23.94 C 21.84 23.4, 21.855 23.505, 21.96 22.86 C 22.05 22.11, 22.065 21.9, 22.14 21.36 C 22.2 21.03, 22.229999999999997 20.940000000000005, 22.259999999999998 20.700000000000003 C 22.259999999999998 20.55, 22.259999999999998 20.475, 22.259999999999998 20.4 C 22.259999999999998 20.4, 22.229999999999997 20.415, 22.259999999999998 20.4 C 22.32 20.369999999999997, 22.305 20.28, 22.38 20.34 C 22.47 20.490000000000002, 22.424999999999997 20.355, 22.56 20.64 C 22.74 21.060000000000002, 22.83 20.85, 22.919999999999998 21.48 C 22.919999999999998 22.32, 22.919999999999998 22.545, 22.919999999999998 23.16 C 22.919999999999998 23.55, 22.845 23.55, 22.919999999999998 23.94 C 23.07 24.33, 23.025 24.36, 23.22 24.72 C 23.46 25.05, 23.445 25.080000000000002, 23.700000000000003 25.380000000000003 C 23.970000000000002 25.650000000000002, 23.94 25.620000000000005, 24.240000000000002 25.92 C 24.57 26.25, 24.6 26.325, 24.900000000000002 26.58 C 25.17 26.759999999999998, 25.23 26.835, 25.44 26.94 C 25.590000000000003 26.97, 25.590000000000003 26.985, 25.740000000000002 27 C 25.89 27, 25.814999999999998 27, 26.04 27 C 26.34 27, 26.325000000000003 27.03, 26.64 27 C 26.97 26.94, 27.014999999999997 27.015, 27.299999999999997 26.880000000000003 C 27.54 26.67, 27.57 26.64, 27.78 26.46 C 27.96 26.310000000000002, 28.005000000000003 26.325000000000003, 28.14 26.160000000000004 C 28.23 25.98, 28.245 26.084999999999997, 28.32 25.799999999999997 C 28.380000000000003 25.409999999999997, 28.32 25.53, 28.44 25.02 C 28.619999999999997 24.39, 28.589999999999996 24.735, 28.799999999999997 23.759999999999998 C 29.04 22.439999999999998, 29.055 22.485, 29.28 21.12 C 29.490000000000002 19.71, 29.595000000000002 19.409999999999997, 29.700000000000003 18.299999999999997 C 29.700000000000003 17.49, 29.700000000000003 17.82, 29.700000000000003 16.68 C 29.700000000000003 15.21, 29.730000000000004 15.09, 29.700000000000003 13.74 C 29.64 12.51, 29.654999999999998 12.36, 29.58 11.28 C 29.490000000000002 10.35, 29.46 10.184999999999999, 29.400000000000002 9.42 C 29.369999999999997 8.82, 29.415 8.88, 29.339999999999996 8.22 C 29.22 7.5, 29.22 7.425, 29.099999999999998 6.779999999999999 C 28.979999999999997 6.209999999999999, 29.009999999999998 6.164999999999999, 28.86 5.64 C 28.68 5.16, 28.59 4.92, 28.5 4.68 C 28.5 4.68, 28.515 4.725, 28.5 4.68 C 28.47 4.59, 28.47 4.575, 28.44 4.5 C 28.410000000000004 4.4399999999999995, 28.44 4.4399999999999995, 28.380000000000003 4.38 C 28.290000000000003 4.32, 28.410000000000004 4.2749999999999995, 28.200000000000003 4.26 C 27.87 4.29, 27.825 4.245, 27.54 4.32 C 27.299999999999997 4.44, 27.299999999999997 4.455, 27.06 4.5600000000000005 C 26.82 4.65, 26.7 4.695, 26.58 4.74 C 26.58 4.74, 26.7 4.605, 26.58 4.74 C 26.339999999999996 5.01, 26.384999999999998 4.9350000000000005, 26.099999999999998 5.28 C 25.77 5.7, 25.8 5.655, 25.44 6.12 C 25.050000000000004 6.63, 25.035000000000004 6.555, 24.660000000000004 7.14 C 24.300000000000004 7.799999999999999, 24.39 7.679999999999999, 23.94 8.459999999999999 C 23.4 9.36, 23.28 9.51, 22.86 10.26 C 22.56 10.86, 22.485 10.995, 22.259999999999998 11.459999999999999 C 22.11 11.79, 22.08 11.865, 21.96 12.120000000000001 C 21.87 12.3, 21.825000000000003 12.39, 21.78 12.48 C 21.78 12.48, 21.78 12.48, 21.78 12.48 L 21.78 12.48" fill="none" stroke="black" stroke-width="5"></path><path d="M 17.34 26.400000000000002 C 17.34 26.85, 17.37 26.714999999999996, 17.34 27.299999999999997 C 17.28 28.02, 17.294999999999998 27.705000000000002, 17.22 28.740000000000002 C 17.13 30.090000000000003, 17.145 30, 17.04 31.44 C 16.919999999999998 32.97, 16.86 33.015, 16.799999999999997 34.5 C 16.799999999999997 35.94, 16.799999999999997 35.97, 16.799999999999997 37.38 C 16.799999999999997 38.760000000000005, 16.799999999999997 38.745000000000005, 16.799999999999997 40.14 C 16.799999999999997 41.55, 16.799999999999997 41.82, 16.799999999999997 42.96 C 16.799999999999997 43.83, 16.799999999999997 44.115, 16.799999999999997 44.7 C 16.799999999999997 45, 16.799999999999997 45.15, 16.799999999999997 45.3 C 16.799999999999997 45.3, 16.799999999999997 45.3, 16.799999999999997 45.3 L 16.799999999999997 45.3" fill="none" stroke="black" stroke-width="5"></path><path d="M 25.92 27.06 C 25.77 28.08, 25.814999999999998 27.705, 25.619999999999997 29.099999999999998 C 25.38 30.869999999999997, 25.35 31.005, 25.14 32.64 C 24.96 34.14, 24.87 34.38, 24.78 35.64 C 24.78 36.66, 24.78 36.51, 24.78 37.68 C 24.78 39, 24.825000000000003 39.18, 24.78 40.32 C 24.689999999999998 41.28, 24.645 41.445, 24.599999999999998 42.24 C 24.599999999999998 42.870000000000005, 24.599999999999998 42.945, 24.599999999999998 43.5 C 24.599999999999998 43.980000000000004, 24.599999999999998 44.22, 24.599999999999998 44.46 C 24.599999999999998 44.46, 24.615 44.415, 24.599999999999998 44.46 L 24.54 44.64" fill="none" stroke="black" stroke-width="5"></path></svg>