<svg xmlns="http://www.w3.org/2000/svg" viewBox="10.886666297912598 3.4133334159851074 20.51333522796631 42.14124774932861" width="20.51333522796631" height="42.14124774932861"><path d="M 11.94 5.82 C 11.94 6.69, 11.82 5.955, 11.94 7.5600000000000005 C 12.18 9.9, 12.254999999999997 9.975, 12.419999999999998 12.24 C 12.51 14.43, 12.555 14.64, 12.600000000000001 16.62 C 12.600000000000001 18.39, 12.540000000000003 18.525, 12.600000000000001 20.16 C 12.72 21.66, 12.780000000000001 21.48, 12.84 23.16 C 12.84 25.020000000000003, 12.84 25.26, 12.84 26.880000000000003 C 12.84 28.26, 12.84 28.215000000000003, 12.84 29.64 C 12.84 31.11, 12.84 31.29, 12.84 32.58 C 12.84 33.69, 12.84 33.42, 12.84 34.8 C 12.84 36.449999999999996, 12.84 36.584999999999994, 12.84 38.099999999999994 C 12.84 39.48, 12.84 39.644999999999996, 12.84 40.86 C 12.84 41.91, 12.719999999999999 42.225, 12.84 42.96 C 13.08 43.379999999999995, 12.915 43.455, 13.32 43.8 C 13.89 44.06999999999999, 13.905000000000001 44.16, 14.46 44.339999999999996 C 15 44.42999999999999, 15 44.474999999999994, 15.54 44.519999999999996 C 16.08 44.519999999999996, 16.155 44.519999999999996, 16.62 44.519999999999996 C 17.009999999999998 44.519999999999996, 16.814999999999998 44.55, 17.4 44.519999999999996 C 18.18 44.46, 18.21 44.7, 18.96 44.400000000000006 C 19.68 43.86, 19.964999999999996 43.785000000000004, 20.4 43.32 C 20.55 42.93, 20.625 42.975, 20.700000000000003 42.54 C 20.700000000000003 42.06, 20.700000000000003 42, 20.700000000000003 41.58 C 20.700000000000003 41.22, 20.700000000000003 41.355000000000004, 20.700000000000003 40.86 C 20.700000000000003 40.23, 20.700000000000003 40.184999999999995, 20.700000000000003 39.599999999999994 C 20.700000000000003 39.059999999999995, 20.700000000000003 38.91, 20.700000000000003 38.519999999999996 C 20.700000000000003 38.28, 20.865000000000002 38.37, 20.700000000000003 38.04 C 20.37 37.620000000000005, 20.384999999999998 37.620000000000005, 20.04 37.2 C 19.68 36.78, 19.71 36.735, 19.32 36.36 C 18.9 36.03, 18.810000000000002 35.910000000000004, 18.48 35.7 C 18.240000000000002 35.61, 18.195 35.565, 18 35.519999999999996 C 17.85 35.519999999999996, 17.925000000000004 35.519999999999996, 17.700000000000003 35.519999999999996 C 17.400000000000002 35.519999999999996, 17.445 35.519999999999996, 17.1 35.519999999999996 C 16.71 35.519999999999996, 16.785 35.519999999999996, 16.32 35.519999999999996 C 15.780000000000001 35.519999999999996, 15.705 35.504999999999995, 15.24 35.519999999999996 C 14.850000000000001 35.55, 14.805000000000001 35.55, 14.46 35.58 C 14.16 35.61, 14.1 35.58, 13.86 35.64 C 13.68 35.730000000000004, 13.71 35.76, 13.5 35.82 C 13.26 35.85, 13.334999999999999 35.775000000000006, 13.02 35.88 C 12.629999999999999 36.06, 12.435 36.150000000000006, 12.24 36.24 C 12.24 36.24, 12.24 36.24, 12.24 36.24 L 12.24 36.24" fill="none" stroke="black" stroke-width="5"></path><path d="M 12.600000000000001 29.700000000000003 C 12.840000000000002 29.700000000000003, 12.810000000000002 29.700000000000003, 13.080000000000002 29.700000000000003 C 13.38 29.700000000000003, 13.26 29.700000000000003, 13.68 29.700000000000003 C 14.219999999999999 29.700000000000003, 14.25 29.715000000000003, 14.76 29.700000000000003 C 15.24 29.67, 15.09 30.045, 15.72 29.64 C 16.5 28.86, 16.68 28.724999999999998, 17.28 28.08 C 17.700000000000003 27.57, 17.700000000000003 27.644999999999996, 18.12 27.06 C 18.54 26.4, 18.675 26.355000000000004, 18.96 25.740000000000002 C 19.11 25.17, 19.08 25.38, 19.259999999999998 24.599999999999998 C 19.47 23.61, 19.5 23.43, 19.68 22.62 C 19.83 21.990000000000002, 19.905 21.675, 19.98 21.36 C 19.98 21.36, 19.935000000000002 21.375, 19.98 21.36 C 20.07 21.33, 20.055 21.089999999999996, 20.16 21.299999999999997 C 20.28 21.75, 20.294999999999998 21.615000000000002, 20.4 22.200000000000003 C 20.490000000000002 22.92, 20.43 22.89, 20.580000000000002 23.64 C 20.79 24.42, 20.775 24.39, 21 25.200000000000003 C 21.240000000000002 26.040000000000003, 21.255000000000003 26.295, 21.48 26.880000000000003 C 21.689999999999998 27.21, 21.525 27.165, 21.9 27.54 C 22.439999999999998 27.96, 22.56 28.095000000000002, 22.98 28.380000000000003 C 23.28 28.53, 23.265 28.59, 23.580000000000002 28.68 C 23.910000000000004 28.71, 23.880000000000003 28.665000000000003, 24.240000000000002 28.740000000000002 C 24.630000000000003 28.86, 24.585 28.92, 25.02 28.98 C 25.5 28.98, 25.545 28.98, 25.98 28.98 C 26.369999999999997 28.98, 26.415 29.025000000000002, 26.759999999999998 28.98 C 27.06 28.89, 27.044999999999998 28.964999999999996, 27.36 28.799999999999997 C 27.689999999999998 28.56, 27.705 28.65, 28.02 28.32 C 28.32 27.9, 28.349999999999998 27.975, 28.619999999999997 27.48 C 28.86 26.909999999999997, 28.934999999999995 26.909999999999997, 29.099999999999998 26.339999999999996 C 29.189999999999998 25.77, 29.145 25.950000000000003, 29.28 25.200000000000003 C 29.46 24.270000000000003, 29.505000000000003 24.21, 29.64 23.34 C 29.73 22.53, 29.73 22.74, 29.82 21.72 C 29.91 20.49, 29.880000000000003 20.685, 30 19.259999999999998 C 30.15 17.64, 30.209999999999997 17.58, 30.299999999999997 16.02 C 30.33 14.52, 30.345 14.475, 30.36 13.02 C 30.36 11.61, 30.36 11.475, 30.36 10.2 C 30.36 9.059999999999999, 30.45 8.925, 30.36 7.92 C 30.18 7.05, 30.165 6.8549999999999995, 30 6.18 C 29.85 5.699999999999999, 29.775000000000002 5.535, 29.700000000000003 5.22 C 29.700000000000003 5.07, 29.745000000000005 5.1, 29.700000000000003 4.92 C 29.61 4.71, 29.61 4.62, 29.52 4.5 C 29.43 4.47, 29.459999999999997 4.455, 29.339999999999996 4.4399999999999995 C 29.189999999999998 4.4399999999999995, 29.144999999999996 4.4399999999999995, 29.04 4.4399999999999995 C 28.98 4.4399999999999995, 29.040000000000003 4.4399999999999995, 28.92 4.4399999999999995 C 28.740000000000002 4.4399999999999995, 28.799999999999997 4.379999999999999, 28.56 4.4399999999999995 C 28.259999999999998 4.56, 28.200000000000003 4.545, 27.96 4.68 C 27.78 4.83, 27.779999999999998 4.784999999999999, 27.599999999999998 4.9799999999999995 C 27.42 5.22, 27.450000000000003 5.175, 27.240000000000002 5.46 C 27 5.79, 27.089999999999996 5.745, 26.759999999999998 6.12 C 26.34 6.539999999999999, 26.43 6.39, 25.92 6.959999999999999 C 25.32 7.679999999999999, 25.439999999999998 7.604999999999999, 24.72 8.399999999999999 C 23.88 9.27, 23.744999999999997 9.345, 23.04 10.14 C 22.47 10.86, 22.259999999999998 11.100000000000001, 21.9 11.58 C 21.75 11.82, 21.855 11.774999999999999, 21.6 12.059999999999999 C 21.240000000000002 12.39, 21.18 12.42, 20.88 12.72 C 20.64 12.99, 20.52 13.125, 20.4 13.26 C 20.4 13.26, 20.4 13.26, 20.4 13.26 L 20.4 13.26" fill="none" stroke="black" stroke-width="5"></path></svg>