<svg xmlns="http://www.w3.org/2000/svg" viewBox="16.219999313354492 3.320000171661377 21.33333396911621 42.08054733276367" width="21.33333396911621" height="42.08054733276367"><path d="M 34.68 4.32 C 34.8 5.37, 34.71 4.9350000000000005, 34.92 6.42 C 35.22 8.34, 35.265 8.295, 35.519999999999996 10.26 C 35.73 12.27, 35.73 12.18, 35.94 14.28 C 36.15 16.47, 36.254999999999995 16.83, 36.36 18.66 C 36.36 20.130000000000003, 36.315 20.175, 36.36 21.6 C 36.45 22.98, 36.495 23.16, 36.54 24.36 C 36.54 25.380000000000003, 36.54 25.020000000000003, 36.54 26.400000000000002 C 36.54 28.14, 36.54 28.44, 36.54 29.880000000000003 C 36.54 31.020000000000003, 36.54 31.125000000000007, 36.54 32.160000000000004 C 36.54 33.09, 36.54 32.834999999999994, 36.54 34.019999999999996 C 36.54 35.46, 36.54 35.385000000000005, 36.54 36.900000000000006 C 36.54 38.49, 36.54 38.91, 36.54 40.08 C 36.54 40.83, 36.57 41.084999999999994, 36.54 41.58 C 36.480000000000004 41.82, 36.6 41.745000000000005, 36.42 42.06 C 36.120000000000005 42.45, 36.315 42.419999999999995, 35.82 42.839999999999996 C 35.129999999999995 43.29, 35.25 43.38, 34.44 43.74 C 33.51 44.010000000000005, 33.39 44.13, 32.58 44.28 C 31.89 44.31, 31.845000000000002 44.324999999999996, 31.200000000000003 44.339999999999996 C 30.6 44.339999999999996, 30.585 44.37, 30 44.339999999999996 C 29.43 44.28, 29.549999999999997 44.58, 28.86 44.22 C 28.05 43.56, 27.78 43.75500000000001, 27.240000000000002 42.900000000000006 C 26.970000000000002 41.85, 26.880000000000003 41.61, 26.700000000000003 40.8 C 26.61 40.230000000000004, 26.490000000000002 40.410000000000004, 26.52 39.660000000000004 C 26.67 38.730000000000004, 26.565 38.519999999999996, 26.82 37.8 C 27.18 37.29, 27.06 37.26, 27.54 36.78 C 28.14 36.33, 28.200000000000003 36.255, 28.740000000000002 35.88 C 29.220000000000002 35.58, 29.175000000000004 35.49, 29.700000000000003 35.28 C 30.27 35.16, 30.345 35.1, 30.839999999999996 35.04 C 31.259999999999998 35.04, 31.11 35.04, 31.68 35.04 C 32.4 35.04, 32.4 35.04, 33.12 35.04 C 33.84 35.04, 34.08 35.01, 34.56 35.04 C 34.8 35.1, 34.8 35.08500000000001, 35.04 35.160000000000004 C 35.28 35.25, 35.309999999999995 35.265, 35.519999999999996 35.339999999999996 C 35.7 35.4, 35.79 35.43, 35.88 35.46 C 35.88 35.46, 35.85 35.43, 35.88 35.46 C 35.94 35.519999999999996, 35.925 35.535, 36 35.58 C 36.09 35.61, 36.09 35.61, 36.18 35.64 C 36.269999999999996 35.67, 36.269999999999996 35.655, 36.36 35.7 C 36.45 35.760000000000005, 36.495 35.79, 36.54 35.82 C 36.54 35.82, 36.54 35.82, 36.54 35.82 C 36.54 35.82, 36.54 35.82, 36.54 35.82 C 36.54 35.82, 36.54 35.82, 36.54 35.82 L 36.54 35.82" fill="none" stroke="black" stroke-width="5"></path><path d="M 33.900000000000006 4.5600000000000005 C 33.6 5.220000000000001, 33.525 5.355, 33.3 5.88 C 33.15 6.27, 33.18 6.21, 33 6.66 C 32.79 7.17, 32.79 7.185, 32.58 7.68 C 32.370000000000005 8.16, 32.400000000000006 8.07, 32.160000000000004 8.64 C 31.89 9.3, 31.875 9.344999999999999, 31.619999999999997 9.959999999999999 C 31.38 10.530000000000001, 31.545 10.440000000000001, 31.14 11.100000000000001 C 30.57 11.850000000000001, 30.494999999999997 11.985000000000003, 30 12.600000000000001 C 29.580000000000002 13.08, 29.685000000000002 12.989999999999998, 29.160000000000004 13.559999999999999 C 28.53 14.219999999999999, 28.215000000000003 14.549999999999999, 27.900000000000002 14.879999999999999 C 27.900000000000002 14.879999999999999, 27.900000000000002 14.879999999999999, 27.900000000000002 14.879999999999999 L 27.900000000000002 14.879999999999999" fill="none" stroke="black" stroke-width="5"></path><path d="M 35.94 27.48 C 34.8 27.39, 34.92 27.389999999999997, 33.660000000000004 27.299999999999997 C 32.28 27.209999999999997, 32.1 27.15, 30.900000000000002 27.119999999999997 C 29.880000000000003 27.15, 29.745 27.09, 28.86 27.18 C 28.11 27.33, 28.29 27.315, 27.36 27.48 C 26.25 27.659999999999997, 26.325 27.659999999999997, 25.14 27.839999999999996 C 23.880000000000003 28.02, 23.79 27.990000000000002, 22.62 28.200000000000003 C 21.54 28.44, 21.495 28.41, 20.46 28.68 C 19.47 28.98, 19.17 29.085, 18.48 29.28 C 18.090000000000003 29.37, 18.015000000000004 29.385, 17.700000000000003 29.46 C 17.46 29.52, 17.34 29.549999999999997, 17.22 29.58 L 17.22 29.58" fill="none" stroke="black" stroke-width="5"></path></svg>