<svg xmlns="http://www.w3.org/2000/svg" viewBox="11.339999198913574 3.8000001907348633 16.480000495910645 39.679999351501465" width="16.480000495910645" height="39.679999351501465"><path d="M 13.440000000000001 4.800000000000001 C 12.99 7.800000000000001, 12.809999999999999 8.430000000000001, 12.54 10.8 C 12.45 12.54, 12.405 12.735, 12.36 14.28 C 12.36 15.629999999999999, 12.315 15.69, 12.36 16.98 C 12.45 18.21, 12.315 18.090000000000003, 12.54 19.44 C 12.899999999999999 20.91, 12.945 21.345, 13.26 22.38 C 13.53 22.98, 13.454999999999998 22.995, 13.799999999999999 23.580000000000002 C 14.219999999999999 24.15, 14.1 24.09, 14.64 24.72 C 15.3 25.409999999999997, 15.150000000000002 25.514999999999997, 15.96 26.099999999999998 C 16.92 26.58, 16.799999999999997 26.685, 17.88 27.06 C 19.08 27.33, 19.035 27.464999999999996, 20.28 27.599999999999998 C 21.57 27.599999999999998, 21.54 27.599999999999998, 22.86 27.599999999999998 C 24.21 27.599999999999998, 24.735 27.599999999999998, 25.56 27.599999999999998 C 25.86 27.599999999999998, 25.965000000000003 27.599999999999998, 26.160000000000004 27.599999999999998 C 26.25 27.599999999999998, 26.294999999999998 27.599999999999998, 26.339999999999996 27.599999999999998 C 26.339999999999996 27.599999999999998, 26.339999999999996 27.599999999999998, 26.339999999999996 27.599999999999998 L 26.339999999999996 27.599999999999998" fill="none" stroke="black" stroke-width="5"></path><path d="M 13.32 33.12 C 13.62 33.09, 13.514999999999997 33.075, 13.919999999999998 33.06 C 14.43 33.06, 13.740000000000002 32.925000000000004, 14.940000000000001 33.06 C 16.83 33.33, 17.009999999999998 33.345, 18.72 33.599999999999994 C 20.25 33.839999999999996, 20.34 33.915, 21.78 34.08 C 23.130000000000003 34.17, 23.475 34.199999999999996, 24.48 34.26 C 25.14 34.29, 25.304999999999996 34.275, 25.799999999999997 34.32 C 26.13 34.379999999999995, 26.295 34.41, 26.46 34.44 L 26.46 34.44" fill="none" stroke="black" stroke-width="5"></path><path d="M 13.440000000000001 41.22 C 15.3 41.55, 15.344999999999999 41.61, 17.16 41.88 C 18.93 42.09, 19.110000000000003 42.15, 20.700000000000003 42.3 C 22.11 42.39, 22.380000000000003 42.435, 23.52 42.480000000000004 C 24.39 42.480000000000004, 24.555 42.480000000000004, 25.259999999999998 42.480000000000004 C 25.799999999999997 42.480000000000004, 25.949999999999996 42.480000000000004, 26.339999999999996 42.480000000000004 C 26.58 42.480000000000004, 26.7 42.480000000000004, 26.82 42.480000000000004 L 26.82 42.480000000000004" fill="none" stroke="black" stroke-width="5"></path><path d="M 21.9 4.800000000000001 C 21.96 5.19, 22.095 4.995, 22.02 5.58 C 21.810000000000002 6.359999999999999, 22.095000000000002 6.074999999999999, 21.6 7.14 C 20.82 8.49, 20.82 8.7, 20.04 9.84 C 19.259999999999998 10.77, 19.215 10.815, 18.48 11.7 C 17.79 12.54, 17.82 12.524999999999999, 17.1 13.379999999999999 C 16.35 14.25, 16.290000000000003 14.34, 15.600000000000001 15.120000000000001 C 14.97 15.81, 14.94 15.975000000000001, 14.34 16.5 C 13.77 16.86, 13.530000000000001 16.994999999999997, 13.200000000000001 17.22 C 13.11 17.31, 13.11 17.31, 13.02 17.4 C 12.93 17.490000000000002, 12.885 17.535, 12.84 17.580000000000002 L 12.84 17.580000000000002" fill="none" stroke="black" stroke-width="5"></path></svg>