<svg xmlns="http://www.w3.org/2000/svg" viewBox="10.193510055541992 2.5399999618530273 20.079824447631836 42.559998512268066" width="20.079824447631836" height="42.559998512268066"><path d="M 14.64 3.54 C 14.46 4.41, 14.774999999999999 3.4350000000000005, 14.28 5.28 C 13.469999999999999 8.1, 13.41 8.129999999999999, 12.66 10.92 C 11.969999999999999 13.68, 11.639999999999999 14.295000000000002, 11.28 16.44 C 11.25 17.97, 11.145 18.27, 11.22 19.5 C 11.4 20.43, 11.235 20.625, 11.58 21.36 C 12.09 21.9, 11.955000000000002 22.035, 12.600000000000001 22.44 C 13.38 22.71, 13.575 22.845, 14.16 22.98 C 14.55 22.98, 14.310000000000002 23.355, 14.940000000000001 22.98 C 15.81 22.23, 15.96 22.275000000000002, 16.68 21.48 C 17.25 20.64, 17.415 20.609999999999996, 17.82 19.799999999999997 C 18.06 19.02, 18.074999999999996 18.915, 18.299999999999997 18.240000000000002 C 18.509999999999998 17.67, 18.615 17.385, 18.72 17.1 C 18.72 17.1, 18.659999999999997 17.115000000000002, 18.72 17.1 C 18.84 17.07, 18.84 16.905, 18.96 17.04 C 19.080000000000002 17.34, 19.14 17.145, 19.200000000000003 17.64 C 19.200000000000003 18.33, 19.140000000000004 18.285, 19.200000000000003 19.02 C 19.32 19.8, 19.185000000000002 19.875, 19.44 20.580000000000002 C 19.83 21.21, 19.814999999999998 21.375, 20.22 21.84 C 20.64 22.14, 20.4 22.14, 21.06 22.44 C 21.96 22.740000000000002, 21.765 22.83, 22.86 23.04 C 24.15 23.16, 24.42 23.175, 25.44 23.28 C 26.19 23.37, 26.325000000000003 23.415, 26.94 23.46 C 27.42 23.46, 27.405 23.490000000000002, 27.900000000000002 23.46 C 28.410000000000004 23.4, 28.620000000000005 23.384999999999998, 28.92 23.34 C 29.009999999999998 23.310000000000002, 29.055 23.295, 29.099999999999998 23.28 C 29.099999999999998 23.28, 29.099999999999998 23.28, 29.099999999999998 23.28 L 29.099999999999998 23.28" fill="none" stroke="black" stroke-width="5"></path><path d="M 25.200000000000003 6.12 C 23.400000000000002 7.800000000000001, 23.01 8.235, 21.6 9.48 C 20.58 10.290000000000001, 20.61 10.380000000000003, 19.56 11.100000000000001 C 18.479999999999997 11.73, 18.269999999999996 11.879999999999999, 17.4 12.36 C 16.740000000000002 12.69, 16.830000000000002 12.75, 16.080000000000002 13.02 C 15.24 13.23, 15.075 13.245000000000001, 14.399999999999999 13.440000000000001 C 13.889999999999999 13.620000000000001, 13.754999999999999 13.709999999999999, 13.379999999999999 13.799999999999999 C 13.139999999999999 13.799999999999999, 13.124999999999998 13.799999999999999, 12.899999999999999 13.799999999999999 C 12.69 13.799999999999999, 12.63 13.799999999999999, 12.48 13.799999999999999 C 12.39 13.799999999999999, 12.375 13.799999999999999, 12.299999999999999 13.799999999999999 L 12.18 13.799999999999999" fill="none" stroke="black" stroke-width="5"></path><path d="M 18.66 19.259999999999998 C 18.66 19.5, 18.705 19.230000000000004, 18.66 19.740000000000002 C 18.57 20.52, 18.525 20.384999999999998, 18.48 21.299999999999997 C 18.48 22.349999999999998, 18.435000000000002 22.424999999999997, 18.48 23.4 C 18.57 24.3, 18.3 24.270000000000003, 18.66 25.200000000000003 C 19.29 26.16, 19.005 26.205, 19.919999999999998 27.119999999999997 C 21.119999999999997 27.99, 21.06 28.064999999999998, 22.32 28.86 C 23.64 29.58, 23.61 29.624999999999996, 24.96 30.299999999999997 C 26.34 30.93, 26.775 31.095, 27.72 31.56 C 28.23 31.86, 28.380000000000003 31.860000000000003, 28.740000000000002 32.160000000000004 C 28.950000000000003 32.46, 29.055000000000003 32.34, 29.160000000000004 32.76 C 29.160000000000004 33.3, 29.415000000000006 33.285, 29.160000000000004 33.839999999999996 C 28.650000000000002 34.41, 28.515 34.650000000000006, 28.14 34.980000000000004 C 27.900000000000002 35.07000000000001, 27.975 35.115, 27.660000000000004 35.160000000000004 C 27.270000000000003 35.160000000000004, 27.615000000000002 35.1, 26.880000000000003 35.160000000000004 C 25.8 35.28, 26.07 35.14500000000001, 24.72 35.400000000000006 C 23.1 35.790000000000006, 23.055 35.7, 21.48 36.18 C 19.95 36.75, 19.575 36.795, 18.419999999999998 37.32 C 17.64 37.8, 17.7 37.38, 16.86 38.28 C 15.959999999999999 39.6, 15.674999999999999 39.84, 15.059999999999999 40.92 C 14.729999999999999 41.76, 14.564999999999998 41.925, 14.399999999999999 42.599999999999994 C 14.399999999999999 43.11, 14.399999999999999 43.31999999999999, 14.399999999999999 43.62 C 14.399999999999999 43.709999999999994, 14.384999999999998 43.68, 14.399999999999999 43.8 C 14.43 43.949999999999996, 14.445 44.02499999999999, 14.46 44.099999999999994 L 14.46 44.099999999999994" fill="none" stroke="black" stroke-width="5"></path></svg>