<svg xmlns="http://www.w3.org/2000/svg" viewBox="8.800000190734863 3.440000057220459 16.800000190734863 40.83087778091431" width="16.800000190734863" height="40.83087778091431"><path d="M 10.56 34.26 C 10.77 34.230000000000004, 10.635000000000002 34.30500000000001, 10.98 34.2 C 11.46 34.019999999999996, 11.49 33.974999999999994, 11.94 33.839999999999996 C 12.36 33.75, 12.45 33.705, 12.78 33.660000000000004 C 13.02 33.660000000000004, 12.899999999999999 33.660000000000004, 13.26 33.660000000000004 C 13.74 33.660000000000004, 13.785 33.61500000000001, 14.22 33.660000000000004 C 14.61 33.75, 14.565 33.66, 15 33.839999999999996 C 15.48 34.11, 15.450000000000001 34.005, 15.96 34.38 C 16.5 34.86, 16.59 34.845, 17.04 35.339999999999996 C 17.4 35.849999999999994, 17.369999999999997 35.699999999999996, 17.759999999999998 36.36 C 18.18 37.17, 18.345 37.30500000000001, 18.6 37.980000000000004 C 18.69 38.52, 18.735 38.595000000000006, 18.78 39.06 C 18.78 39.45, 18.87 39.405, 18.78 39.839999999999996 C 18.6 40.31999999999999, 18.765 40.30499999999999, 18.419999999999998 40.8 C 17.909999999999997 41.31, 17.985 41.4, 17.4 41.82 C 16.740000000000002 42.150000000000006, 16.695 42.18000000000001, 16.080000000000002 42.480000000000004 C 15.510000000000002 42.75, 15.540000000000003 42.824999999999996, 14.940000000000001 43.019999999999996 C 14.31 43.14, 14.235 43.199999999999996, 13.68 43.26 C 13.2 43.26, 13.065000000000001 43.26, 12.72 43.26 C 12.51 43.26, 12.524999999999999 43.275, 12.299999999999999 43.26 C 12.059999999999999 43.230000000000004, 12.105 43.335, 11.82 43.2 C 11.49 42.96, 11.46 43.05, 11.16 42.72 C 10.89 42.3, 10.830000000000002 42.375, 10.620000000000001 41.88 C 10.47 41.31, 10.440000000000001 41.295, 10.32 40.74 C 10.23 40.2, 10.215 40.245000000000005, 10.14 39.660000000000004 C 10.08 39.03, 10.05 38.89500000000001, 10.02 38.400000000000006 C 10.02 38.040000000000006, 10.02 38.1, 10.02 37.68 C 10.02 37.2, 10.02 37.155, 10.02 36.72 C 10.02 36.33, 10.02 36.36, 10.02 35.94 C 10.02 35.489999999999995, 10.02 35.61, 10.02 35.04 C 10.02 34.35, 10.065 34.32, 10.02 33.660000000000004 C 9.93 33.03, 9.885 32.970000000000006, 9.84 32.400000000000006 C 9.84 31.890000000000004, 9.84 32.025000000000006, 9.84 31.380000000000003 C 9.84 30.6, 9.84 30.735, 9.84 29.82 C 9.84 28.77, 9.84 28.725, 9.84 27.72 C 9.84 26.759999999999998, 9.84 26.669999999999995, 9.84 25.799999999999997 C 9.84 25.02, 9.84 24.810000000000002, 9.84 24.240000000000002 C 9.84 23.880000000000003, 9.84 23.895, 9.84 23.52 C 9.84 23.130000000000003, 9.75 23.220000000000002, 9.84 22.740000000000002 C 10.02 22.17, 10.049999999999999 22.080000000000002, 10.2 21.6 C 10.32 21.21, 10.32 21.135, 10.44 20.82 C 10.559999999999999 20.58, 10.5 20.595, 10.68 20.34 C 10.92 20.07, 10.71 20.084999999999997, 11.16 19.799999999999997 C 11.82 19.5, 11.850000000000001 19.425000000000004, 12.48 19.200000000000003 C 13.08 19.05, 13.065 19.02, 13.68 18.9 C 14.31 18.81, 14.220000000000002 18.765, 14.940000000000001 18.72 C 15.75 18.72, 15.809999999999999 18.72, 16.56 18.72 C 17.25 18.72, 17.1 18.72, 17.94 18.72 C 18.93 18.72, 19.125 18.72, 19.919999999999998 18.72 C 20.52 18.72, 20.565 18.674999999999997, 21.12 18.72 C 21.630000000000003 18.81, 21.765 18.854999999999997, 22.14 18.9 C 22.380000000000003 18.9, 22.47 18.869999999999997, 22.62 18.9 C 22.68 18.96, 22.590000000000003 18.974999999999998, 22.740000000000002 19.02 C 22.98 19.05, 22.905 19.065, 23.22 19.080000000000002 C 23.61 19.080000000000002, 23.685 19.080000000000002, 24 19.080000000000002 C 24.240000000000002 19.080000000000002, 24.330000000000002 19.080000000000002, 24.48 19.080000000000002 C 24.54 19.080000000000002, 24.57 19.080000000000002, 24.599999999999998 19.080000000000002 L 24.599999999999998 19.080000000000002" fill="none" stroke="black" stroke-width="5"></path><path d="M 23.64 4.4399999999999995 C 23.130000000000003 5.1, 23.175 5.1, 22.62 5.76 C 22.02 6.42, 22.034999999999997 6.359999999999999, 21.419999999999998 7.08 C 20.79 7.86, 20.925 7.74, 20.16 8.64 C 19.259999999999998 9.66, 19.155 9.795, 18.36 10.68 C 17.67 11.43, 17.58 11.475, 16.98 12.18 C 16.47 12.84, 16.425 12.885, 15.96 13.5 C 15.540000000000001 14.07, 15.360000000000001 14.31, 15.120000000000001 14.64 C 15.06 14.73, 15.030000000000001 14.775, 15 14.82 L 15 14.82" fill="none" stroke="black" stroke-width="5"></path></svg>