<svg xmlns="http://www.w3.org/2000/svg" viewBox="8.713333129882812 11.166666984558105 24.166667938232422 31.713333129882812" width="24.166667938232422" height="31.713333129882812"><path d="M 10.56 41.88 C 10.41 40.56, 10.41 40.815000000000005, 10.26 39.24 C 10.11 37.41, 10.094999999999999 37.455, 9.959999999999999 35.58 C 9.84 33.66, 9.780000000000001 33.405, 9.72 31.740000000000002 C 9.72 30.330000000000002, 9.72 30.225, 9.72 28.92 C 9.72 27.72, 9.705000000000002 28.05, 9.72 26.52 C 9.75 24.659999999999997, 9.719999999999999 24.509999999999998, 9.78 22.799999999999997 C 9.87 21.24, 9.78 21.044999999999998, 9.959999999999999 19.68 C 10.23 18.509999999999998, 10.26 18.39, 10.5 17.34 C 10.71 16.41, 10.695 16.245, 10.92 15.48 C 11.16 14.879999999999999, 10.995 14.879999999999999, 11.399999999999999 14.28 C 11.969999999999999 13.68, 12.014999999999999 13.515000000000002, 12.54 13.080000000000002 C 13.02 12.81, 12.945 12.765, 13.5 12.54 C 14.129999999999999 12.36, 14.265 12.27, 14.76 12.18 C 15.120000000000001 12.18, 15.06 12.15, 15.48 12.18 C 15.96 12.239999999999998, 16.080000000000002 12.209999999999999, 16.44 12.299999999999999 C 16.68 12.419999999999998, 16.665 12.36, 16.919999999999998 12.54 C 17.189999999999998 12.78, 17.07 12.629999999999999, 17.46 13.02 C 17.97 13.56, 18.03 13.590000000000002, 18.48 14.100000000000001 C 18.869999999999997 14.58, 18.839999999999996 14.489999999999998, 19.259999999999998 15.059999999999999 C 19.71 15.719999999999999, 19.83 15.614999999999998, 20.16 16.38 C 20.37 17.25, 20.415000000000003 17.130000000000003, 20.580000000000002 18.12 C 20.700000000000003 19.23, 20.67 19.14, 20.82 20.34 C 21 21.63, 21.015 21.555, 21.18 22.919999999999998 C 21.33 24.36, 21.36 24.539999999999996, 21.48 25.799999999999997 C 21.57 26.88, 21.615000000000002 27.195, 21.66 27.96 C 21.66 28.41, 21.615000000000002 28.47, 21.66 28.86 C 21.75 29.189999999999998, 21.795 29.355, 21.84 29.52 C 21.84 29.52, 21.84 29.52, 21.84 29.52 C 21.84 29.52, 21.84 29.52, 21.84 29.52 C 21.84 29.52, 21.81 29.505, 21.84 29.52 C 21.9 29.549999999999997, 21.765 29.685, 21.96 29.58 C 22.29 29.339999999999996, 22.26 29.324999999999996, 22.62 29.099999999999998 C 23.009999999999998 28.89, 22.845 28.83, 23.4 28.68 C 24.119999999999997 28.59, 24.299999999999997 28.56, 24.839999999999996 28.5 C 25.199999999999996 28.47, 25.229999999999997 28.455000000000002, 25.56 28.44 C 25.86 28.44, 25.725000000000005 28.365000000000002, 26.160000000000004 28.44 C 26.73 28.590000000000003, 26.82 28.560000000000002, 27.299999999999997 28.740000000000002 C 27.689999999999998 28.950000000000003, 27.599999999999998 28.935000000000002, 28.08 29.160000000000004 C 28.65 29.400000000000002, 28.724999999999998 29.37, 29.22 29.64 C 29.64 29.94, 29.625 29.880000000000003, 30.06 30.240000000000002 C 30.509999999999998 30.66, 30.63 30.674999999999997, 30.96 31.08 C 31.17 31.47, 31.200000000000003 31.275, 31.380000000000003 31.86 C 31.53 32.64, 31.560000000000002 32.550000000000004, 31.68 33.42 C 31.77 34.379999999999995, 31.814999999999998 34.44, 31.86 35.339999999999996 C 31.86 36.17999999999999, 31.905 36.239999999999995, 31.86 37.019999999999996 C 31.77 37.739999999999995, 31.77 37.86, 31.68 38.46 C 31.59 38.94, 31.59 39.06, 31.5 39.42 C 31.41 39.660000000000004, 31.395 39.63000000000001, 31.32 39.900000000000006 C 31.26 40.2, 31.230000000000004 40.35, 31.200000000000003 40.5 L 31.200000000000003 40.5" fill="none" stroke="black" stroke-width="5"></path><path d="M 30.06 13.620000000000001 C 30.119999999999997 13.98, 30.45 13.71, 30.18 14.34 C 29.58 15.24, 29.73 15.165, 28.98 16.14 C 28.08 17.19, 28.005 17.310000000000002, 27.18 18.240000000000002 C 26.43 19.05, 26.505 19.005, 25.68 19.86 C 24.78 20.759999999999998, 24.66 20.88, 23.88 21.66 C 23.22 22.32, 22.979999999999997 22.59, 22.56 22.98 C 22.380000000000003 23.1, 22.32 23.145, 22.200000000000003 23.22 C 22.14 23.25, 22.110000000000003 23.265, 22.080000000000002 23.28 C 22.080000000000002 23.28, 22.125000000000004 23.25, 22.080000000000002 23.28 L 21.9 23.4" fill="none" stroke="black" stroke-width="5"></path><path d="M 16.200000000000003 33.900000000000006 C 15.840000000000002 34.08, 15.690000000000001 34.05, 15.48 34.26 C 15.42 34.5, 15.254999999999999 34.455, 15.36 34.74 C 15.629999999999999 35.07000000000001, 15.569999999999999 35.160000000000004, 15.899999999999999 35.400000000000006 C 16.29 35.550000000000004, 16.275 35.775000000000006, 16.68 35.7 C 17.1 35.4, 17.265 35.44499999999999, 17.52 35.099999999999994 C 17.61 34.709999999999994, 17.745000000000005 34.62, 17.700000000000003 34.32 C 17.520000000000003 34.11, 17.61 34.065000000000005, 17.34 33.900000000000006 C 16.98 33.78, 16.92 33.73500000000001, 16.62 33.660000000000004 C 16.380000000000003 33.629999999999995, 16.41 33.449999999999996, 16.14 33.599999999999994 C 15.84 33.92999999999999, 15.629999999999999 33.824999999999996, 15.54 34.26 C 15.66 34.8, 15.645 35.01, 15.78 35.339999999999996 C 15.93 35.459999999999994, 15.720000000000002 35.44499999999999, 16.080000000000002 35.58 C 16.65 35.730000000000004, 16.86 36.09, 17.22 35.88 C 17.369999999999997 35.31, 17.445 35.1, 17.52 34.74 C 17.52 34.59, 17.685 34.589999999999996, 17.52 34.44 C 17.189999999999998 34.29, 17.13 34.215, 16.86 34.14 C 16.65 34.14, 16.68 33.855000000000004, 16.44 34.14 C 16.17 34.71, 16.035 34.905, 15.899999999999999 35.28 C 15.899999999999999 35.46, 15.674999999999999 35.49, 15.899999999999999 35.64 C 16.349999999999998 35.760000000000005, 16.304999999999996 36.120000000000005, 16.799999999999997 35.88 C 17.339999999999996 35.28, 17.654999999999998 35.22, 17.88 34.68 C 17.79 34.2, 18.21 33.945, 17.700000000000003 33.72 C 16.770000000000003 33.75, 16.47 33.54, 15.84 33.78 C 15.51 34.230000000000004, 15.344999999999999 34.185, 15.18 34.68 C 15.18 35.22, 15.09 35.415, 15.18 35.76 L 15.54 36.06" fill="none" stroke="black" stroke-width="5"></path></svg>