<svg xmlns="http://www.w3.org/2000/svg" viewBox="11.99333381652832 1.3399999141693115 15.946666717529297 43.400001764297485" width="15.946666717529297" height="43.400001764297485"><path d="M 13.620000000000001 23.04 C 13.59 22.62, 13.665 22.845000000000002, 13.559999999999999 22.200000000000003 C 13.379999999999999 21.330000000000002, 13.290000000000001 21.090000000000003, 13.200000000000001 20.46 C 13.200000000000001 20.07, 13.200000000000001 19.98, 13.200000000000001 19.68 C 13.200000000000001 19.47, 13.200000000000001 19.56, 13.200000000000001 19.259999999999998 C 13.200000000000001 18.869999999999997, 13.245000000000001 18.795, 13.200000000000001 18.48 C 13.11 18.240000000000002, 13.065 18.165, 13.02 18 C 13.02 17.91, 13.02 17.97, 13.02 17.82 C 13.02 17.61, 13.02 17.549999999999997, 13.02 17.4 C 13.02 17.31, 12.959999999999999 17.384999999999998, 13.02 17.22 C 13.14 16.98, 13.125 16.950000000000003, 13.26 16.740000000000002 C 13.41 16.560000000000002, 13.439999999999998 16.515, 13.559999999999999 16.38 C 13.649999999999999 16.29, 13.620000000000001 16.26, 13.74 16.200000000000003 C 13.89 16.17, 13.799999999999999 16.155, 14.04 16.14 C 14.370000000000001 16.14, 14.190000000000001 16.14, 14.700000000000001 16.14 C 15.39 16.14, 15.375000000000002 16.185000000000002, 16.080000000000002 16.14 C 16.8 16.05, 16.905 16.005000000000003, 17.52 15.96 C 18.03 15.96, 18.015 15.96, 18.54 15.96 C 19.08 15.96, 19.08 15.96, 19.62 15.96 C 20.160000000000004 15.96, 20.205000000000002 15.96, 20.700000000000003 15.96 C 21.150000000000002 15.96, 21.135 15.96, 21.6 15.96 C 22.08 15.96, 22.169999999999998 15.96, 22.56 15.96 C 22.86 15.96, 22.89 15.96, 23.16 15.96 C 23.4 15.96, 23.415 15.945, 23.64 15.96 C 23.85 15.99, 23.82 15.945, 24.06 16.02 C 24.33 16.14, 24.389999999999997 16.185, 24.599999999999998 16.259999999999998 C 24.75 16.29, 24.78 16.29, 24.900000000000002 16.32 C 24.990000000000002 16.35, 25.005 16.335, 25.08 16.38 C 25.14 16.439999999999998, 25.125 16.395, 25.200000000000003 16.5 C 25.290000000000003 16.65, 25.290000000000003 16.574999999999996, 25.380000000000003 16.799999999999997 C 25.47 17.099999999999998, 25.5 17.055, 25.56 17.4 C 25.589999999999996 17.79, 25.604999999999997 17.669999999999998, 25.619999999999997 18.18 C 25.619999999999997 18.810000000000002, 25.724999999999994 18.75, 25.619999999999997 19.44 C 25.41 20.19, 25.44 20.220000000000002, 25.200000000000003 20.94 C 24.930000000000003 21.630000000000003, 25.140000000000004 21.255, 24.660000000000004 22.32 C 23.970000000000002 23.76, 23.925 23.835, 23.28 25.200000000000003 C 22.68 26.490000000000002, 22.680000000000003 26.445, 22.080000000000002 27.78 C 21.48 29.16, 21.48 29.189999999999998, 20.88 30.54 C 20.28 31.86, 20.189999999999998 32.07, 19.68 33.18 C 19.259999999999998 34.08, 19.38 33.870000000000005, 18.84 34.980000000000004 C 18.18 36.3, 18.09 36.42, 17.52 37.62 C 17.04 38.7, 16.919999999999998 38.985, 16.56 39.78 C 16.32 40.29, 16.305 40.349999999999994, 16.080000000000002 40.8 C 15.870000000000001 41.19, 15.93 41.05499999999999, 15.66 41.58 C 15.33 42.24, 15.254999999999999 42.36000000000001, 15 42.900000000000006 C 14.82 43.32000000000001, 14.73 43.53, 14.64 43.74 C 14.64 43.74, 14.64 43.74, 14.64 43.74 L 14.64 43.74" fill="none" stroke="black" stroke-width="5"></path><path d="M 26.94 2.34 C 26.550000000000004 2.8200000000000003, 26.850000000000005 2.685, 26.160000000000004 3.3000000000000003 C 25.17 4.050000000000001, 25.275 3.9450000000000007, 24.18 4.800000000000001 C 22.98 5.760000000000001, 22.71 5.925000000000001, 21.78 6.720000000000001 C 21.12 7.3500000000000005, 21.135 7.32, 20.46 7.98 C 19.770000000000003 8.67, 19.725 8.715, 19.080000000000002 9.36 C 18.48 9.96, 18.39 10.05, 17.88 10.56 C 17.46 10.98, 17.34 11.099999999999998, 17.04 11.399999999999999 C 16.86 11.579999999999998, 16.77 11.67, 16.68 11.76 L 16.68 11.76" fill="none" stroke="black" stroke-width="5"></path></svg>