<svg xmlns="http://www.w3.org/2000/svg" viewBox="13.520000457763672 4.616237640380859 19.173331260681152 41.603763580322266" width="19.173331260681152" height="41.603763580322266"><path d="M 15.059999999999999 34.62 C 16.89 34.62, 17.189999999999998 34.62, 18.72 34.62 C 19.95 34.62, 20.025 34.62, 21.18 34.62 C 22.259999999999998 34.62, 22.365000000000002 34.635, 23.34 34.62 C 24.21 34.59, 24.345 34.605000000000004, 25.08 34.56 C 25.68 34.5, 25.740000000000002 34.515, 26.28 34.44 C 26.76 34.349999999999994, 26.85 34.305, 27.240000000000002 34.26 C 27.54 34.26, 27.449999999999996 34.305, 27.839999999999996 34.26 C 28.319999999999997 34.17, 28.439999999999998 34.169999999999995, 28.799999999999997 34.08 C 29.04 33.99, 29.009999999999998 33.96000000000001, 29.28 33.900000000000006 C 29.580000000000002 33.870000000000005, 29.730000000000004 33.855, 29.880000000000003 33.839999999999996 C 29.880000000000003 33.839999999999996, 29.790000000000003 33.9, 29.880000000000003 33.839999999999996 C 30.060000000000002 33.72, 30.015 33.974999999999994, 30.240000000000002 33.599999999999994 C 30.51 32.97, 30.495 33.13499999999999, 30.78 32.339999999999996 C 31.080000000000002 31.38, 31.155 31.35, 31.380000000000003 30.42 C 31.53 29.52, 31.605 29.354999999999997, 31.68 28.619999999999997 C 31.68 28.049999999999997, 31.68 28.215, 31.68 27.48 C 31.68 26.58, 31.68 26.82, 31.68 25.68 C 31.68 24.299999999999997, 31.71 24.15, 31.68 22.919999999999998 C 31.619999999999997 21.839999999999996, 31.619999999999997 21.689999999999998, 31.56 20.759999999999998 C 31.5 19.98, 31.515 20.190000000000005, 31.44 19.200000000000003 C 31.35 18, 31.349999999999998 17.97, 31.259999999999998 16.799999999999997 C 31.169999999999998 15.659999999999998, 31.185 15.36, 31.08 14.52 C 30.959999999999997 13.98, 30.959999999999997 13.995000000000001, 30.839999999999996 13.440000000000001 C 30.72 12.870000000000001, 30.749999999999996 13.049999999999999, 30.599999999999998 12.299999999999999 C 30.42 11.37, 30.375 11.219999999999999, 30.240000000000002 10.44 C 30.15 9.809999999999999, 30.134999999999998 9.764999999999999, 30.06 9.18 C 30 8.64, 30.015 8.46, 29.94 8.100000000000001 C 29.85 7.920000000000001, 29.805 7.905000000000001, 29.759999999999998 7.74 C 29.759999999999998 7.59, 29.79 7.56, 29.759999999999998 7.4399999999999995 C 29.7 7.35, 29.759999999999998 7.47, 29.64 7.26 C 29.46 6.93, 29.415000000000003 6.84, 29.28 6.6000000000000005 C 29.189999999999998 6.450000000000001, 29.235 6.465000000000001, 29.099999999999998 6.300000000000001 C 28.92 6.12, 28.875 6.074999999999999, 28.740000000000002 5.9399999999999995 C 28.65 5.85, 28.65 5.82, 28.56 5.76 C 28.47 5.7299999999999995, 28.455000000000002 5.7299999999999995, 28.380000000000003 5.699999999999999 C 28.32 5.67, 28.409999999999997 5.64, 28.259999999999998 5.64 C 28.02 5.67, 28.080000000000002 5.534999999999999, 27.78 5.699999999999999 C 27.42 6, 27.36 5.970000000000001, 27.06 6.300000000000001 C 26.82 6.66, 26.82 6.6, 26.58 7.02 C 26.339999999999996 7.5, 26.309999999999995 7.575, 26.099999999999998 7.98 C 25.92 8.31, 25.965 8.190000000000001, 25.740000000000002 8.64 C 25.470000000000002 9.21, 25.575000000000003 9.03, 25.200000000000003 9.78 C 24.720000000000002 10.71, 24.675000000000004 10.77, 24.240000000000002 11.64 C 23.85 12.45, 23.76 12.615, 23.46 13.26 C 23.25 13.74, 23.25 13.815000000000001, 23.04 14.22 C 22.83 14.55, 22.740000000000002 14.67, 22.62 14.879999999999999 C 22.59 14.969999999999999, 22.634999999999998 14.939999999999998, 22.56 15.059999999999999 C 22.439999999999998 15.209999999999999, 22.439999999999998 15.165, 22.32 15.36 C 22.200000000000003 15.6, 22.14 15.719999999999999, 22.080000000000002 15.84 L 22.080000000000002 15.84" fill="none" stroke="black" stroke-width="5"></path><path d="M 14.52 40.62 C 15 40.44, 14.64 40.5, 15.48 40.26 C 16.68 39.96, 16.785 39.885000000000005, 17.88 39.660000000000004 C 18.869999999999997 39.510000000000005, 18.96 39.435, 19.86 39.36 C 20.67 39.36, 20.490000000000002 39.39, 21.48 39.36 C 22.65 39.3, 22.905 39.285000000000004, 23.82 39.24 C 24.48 39.21, 24.285 39.195, 25.14 39.18 C 26.19 39.18, 26.295 39.18, 27.240000000000002 39.18 C 28.080000000000002 39.18, 28.35 39.18, 28.92 39.18 C 29.22 39.18, 29.37 39.18, 29.52 39.18 C 29.52 39.18, 29.4 39.21, 29.52 39.18 L 30 39.06" fill="none" stroke="black" stroke-width="5"></path><path d="M 15.84 45.18 C 17.46 45.18, 17.73 45.269999999999996, 19.080000000000002 45.18 C 20.160000000000004 45, 20.370000000000005 44.94, 21.240000000000002 44.82 C 21.9 44.760000000000005, 21.795 44.745000000000005, 22.56 44.7 C 23.43 44.67, 23.309999999999995 44.7, 24.299999999999997 44.64 C 25.409999999999997 44.55, 25.604999999999997 44.505, 26.52 44.46 C 27.240000000000002 44.46, 27.36 44.505, 27.96 44.46 C 28.44 44.370000000000005, 28.365000000000002 44.370000000000005, 28.92 44.28 C 29.55 44.19, 29.64 44.144999999999996, 30.18 44.099999999999994 C 30.63 44.099999999999994, 30.81 44.099999999999994, 31.08 44.099999999999994 L 31.259999999999998 44.099999999999994" fill="none" stroke="black" stroke-width="5"></path></svg>