<svg xmlns="http://www.w3.org/2000/svg" viewBox="8.537020683288574 4.920000076293945 21.456314086914062 39.67333221435547" width="21.456314086914062" height="39.67333221435547"><path d="M 16.200000000000003 33.480000000000004 C 16.470000000000002 33.900000000000006, 16.470000000000002 33.495000000000005, 16.740000000000002 34.32 C 17.01 35.55, 16.995 35.64, 17.28 36.78 C 17.58 37.83, 17.685 37.995000000000005, 17.88 38.88 C 17.97 39.6, 18.015 39.69, 18.06 40.32 C 18.06 40.86, 18.24 40.87500000000001, 18.06 41.400000000000006 C 17.7 41.910000000000004, 17.759999999999998 41.97, 17.34 42.42 C 16.86 42.81, 16.935 42.93000000000001, 16.38 43.2 C 15.75 43.35, 15.615000000000002 43.425, 15.120000000000001 43.5 C 14.76 43.5, 14.849999999999998 43.5, 14.399999999999999 43.5 C 13.86 43.5, 13.89 43.71, 13.32 43.5 C 12.72 43.08, 12.75 43.125, 12.120000000000001 42.660000000000004 C 11.46 42.150000000000006, 11.280000000000001 42.150000000000006, 10.8 41.64 C 10.5 41.129999999999995, 10.5 41.16, 10.2 40.62 C 9.9 40.05, 9.765 40.11000000000001, 9.600000000000001 39.480000000000004 C 9.57 38.79, 9.525000000000002 38.77499999999999, 9.540000000000001 38.099999999999994 C 9.600000000000001 37.44, 9.555 37.32, 9.66 36.78 C 9.809999999999999 36.36, 9.735 36.36, 9.959999999999999 35.94 C 10.26 35.519999999999996, 10.245000000000001 35.474999999999994, 10.56 35.099999999999994 C 10.89 34.769999999999996, 10.965 34.69499999999999, 11.22 34.44 C 11.4 34.26, 11.4 34.26, 11.58 34.08 C 11.76 33.9, 11.655 33.915, 11.94 33.72 C 12.33 33.51, 12.405000000000001 33.434999999999995, 12.72 33.3 C 12.96 33.239999999999995, 12.915000000000001 33.21, 13.200000000000001 33.18 C 13.530000000000001 33.18, 13.59 33.18, 13.86 33.18 C 14.07 33.18, 14.009999999999998 33.18, 14.28 33.18 C 14.61 33.18, 14.46 33.135, 14.940000000000001 33.18 C 15.570000000000002 33.269999999999996, 15.615000000000002 33.315, 16.200000000000003 33.36 C 16.740000000000002 33.36, 16.875 33.3, 17.28 33.36 C 17.55 33.48, 17.565 33.49499999999999, 17.82 33.599999999999994 C 18.06 33.69, 17.939999999999998 33.57, 18.299999999999997 33.78 C 18.779999999999998 34.11, 18.764999999999997 34.125, 19.259999999999998 34.44 C 19.77 34.739999999999995, 19.830000000000002 34.754999999999995, 20.28 35.04 C 20.67 35.31, 20.655 35.31, 21.06 35.58 C 21.479999999999997 35.849999999999994, 21.525 35.879999999999995, 21.9 36.12 C 22.229999999999997 36.33, 22.169999999999998 36.36, 22.56 36.54 C 23.009999999999998 36.69, 22.950000000000003 36.705, 23.46 36.839999999999996 C 24.03 36.959999999999994, 24.044999999999998 37.019999999999996, 24.599999999999998 37.08 C 25.14 37.08, 25.215 37.08, 25.68 37.08 C 26.07 37.08, 26.07 37.17, 26.46 37.08 C 26.85 36.9, 26.880000000000003 36.885, 27.240000000000002 36.72 C 27.57 36.57, 27.690000000000005 36.54, 27.900000000000002 36.42 C 27.990000000000002 36.33, 27.974999999999998 36.405, 28.08 36.24 C 28.2 36, 28.215 36.12, 28.32 35.76 C 28.41 35.28, 28.41 35.28, 28.5 34.8 C 28.59 34.31999999999999, 28.605 34.349999999999994, 28.68 33.839999999999996 C 28.74 33.3, 28.724999999999998 33.375, 28.799999999999997 32.76 C 28.89 32.07, 28.935 31.965000000000003, 28.98 31.380000000000003 C 28.98 30.900000000000002, 28.98 31.005000000000003, 28.98 30.42 C 28.98 29.73, 29.01 29.939999999999998, 28.98 29.04 C 28.92 27.93, 28.98 28.005000000000003, 28.86 26.82 C 28.68 25.56, 28.665 25.499999999999996, 28.5 24.299999999999997 C 28.35 23.159999999999997, 28.335 23.265, 28.200000000000003 22.02 C 28.080000000000002 20.67, 28.14 20.835, 27.96 19.32 C 27.72 17.64, 27.72 17.505000000000003, 27.48 15.96 C 27.240000000000002 14.55, 27.225 14.34, 27 13.14 C 26.79 12.15, 26.729999999999997 12.06, 26.58 11.16 C 26.490000000000002 10.350000000000001, 26.55 10.365, 26.400000000000002 9.540000000000001 C 26.19 8.700000000000001, 26.175 8.49, 25.98 7.86 C 25.799999999999997 7.4399999999999995, 25.754999999999995 7.305, 25.619999999999997 7.02 C 25.53 6.87, 25.575000000000003 6.9, 25.44 6.720000000000001 C 25.259999999999998 6.510000000000001, 25.214999999999996 6.450000000000001, 25.08 6.300000000000001 C 24.990000000000002 6.210000000000001, 24.990000000000002 6.18, 24.900000000000002 6.12 C 24.810000000000002 6.09, 24.81 6.105, 24.72 6.0600000000000005 C 24.63 6, 24.735 5.97, 24.54 5.9399999999999995 C 24.240000000000002 5.9399999999999995, 24.135 5.9399999999999995, 23.94 5.9399999999999995 C 23.85 5.9399999999999995, 23.834999999999997 5.9399999999999995, 23.759999999999998 5.9399999999999995 C 23.7 5.9399999999999995, 23.759999999999998 5.895, 23.64 5.9399999999999995 C 23.46 6.029999999999999, 23.445 5.9399999999999995, 23.28 6.12 C 23.130000000000003 6.390000000000001, 23.16 6.36, 22.98 6.66 C 22.77 6.99, 22.784999999999997 6.915000000000001, 22.56 7.32 C 22.32 7.8, 22.395000000000003 7.739999999999999, 22.080000000000002 8.28 C 21.689999999999998 8.879999999999999, 21.644999999999996 8.895, 21.299999999999997 9.48 C 21 10.05, 20.985000000000003 10.095, 20.700000000000003 10.620000000000001 C 20.43 11.100000000000001, 20.490000000000002 10.935, 20.16 11.58 C 19.77 12.39, 19.68 12.585, 19.38 13.200000000000001 C 19.17 13.620000000000001, 19.11 13.709999999999999, 18.96 14.04 C 18.87 14.28, 18.840000000000003 14.354999999999999, 18.78 14.52 C 18.75 14.61, 18.735 14.655000000000001, 18.72 14.700000000000001 C 18.72 14.700000000000001, 18.72 14.700000000000001, 18.72 14.700000000000001 L 18.72 14.700000000000001" fill="none" stroke="black" stroke-width="5"></path></svg>