<svg xmlns="http://www.w3.org/2000/svg" viewBox="8.678958892822266 11.65999984741211 20.941041946411133 34.83333396911621" width="20.941041946411133" height="34.83333396911621"><path d="M 10.379999999999999 37.2 C 12.03 36.99, 12.629999999999999 36.885000000000005, 13.68 36.78 C 14.13 36.78, 14.070000000000002 36.69, 14.580000000000002 36.78 C 15.150000000000002 36.96, 15.18 36.69, 15.72 37.14 C 16.23 37.86, 16.305000000000003 37.845, 16.740000000000002 38.58 C 17.1 39.33, 17.22 39.464999999999996, 17.46 40.08 C 17.580000000000002 40.56, 17.610000000000003 40.56, 17.700000000000003 41.04 C 17.76 41.519999999999996, 17.985 41.46, 17.82 42 C 17.43 42.6, 17.669999999999998 42.6, 17.04 43.2 C 16.169999999999998 43.800000000000004, 16.11 43.935, 15.299999999999999 44.400000000000006 C 14.549999999999999 44.730000000000004, 14.474999999999998 44.80500000000001, 13.799999999999999 45.06 C 13.2 45.24, 13.05 45.315, 12.600000000000001 45.42 C 12.3 45.45, 12.315000000000001 45.465, 12 45.480000000000004 C 11.67 45.480000000000004, 11.535 45.510000000000005, 11.34 45.480000000000004 C 11.280000000000001 45.42, 11.34 45.45, 11.22 45.36 C 11.04 45.239999999999995, 11.055 45.419999999999995, 10.86 45.12 C 10.649999999999999 44.64, 10.545 44.82, 10.44 44.160000000000004 C 10.44 43.32000000000001, 10.44 43.185, 10.44 42.480000000000004 C 10.44 41.91, 10.485 41.81999999999999, 10.44 41.339999999999996 C 10.35 40.95, 10.305 41.115, 10.26 40.56 C 10.26 39.84, 10.305 39.93, 10.26 39.12 C 10.17 38.22, 10.17 38.325, 10.08 37.32 C 9.989999999999998 36.209999999999994, 9.989999999999998 36.224999999999994, 9.899999999999999 35.099999999999994 C 9.809999999999999 33.959999999999994, 9.765 34.5, 9.72 32.82 C 9.72 30.6, 9.72 30.300000000000004, 9.72 28.380000000000003 C 9.72 26.76, 9.72 26.745, 9.72 25.14 C 9.72 23.55, 9.72 23.295, 9.72 21.96 C 9.72 20.88, 9.690000000000001 20.864999999999995, 9.72 19.799999999999997 C 9.780000000000001 18.75, 9.525 18.840000000000003, 9.84 17.700000000000003 C 10.41 16.470000000000002, 10.38 16.23, 10.98 15.24 C 11.61 14.49, 11.715 14.265, 12.24 13.74 C 12.66 13.440000000000001, 12.750000000000002 13.335, 13.080000000000002 13.14 C 13.32 13.05, 13.245 13.005, 13.559999999999999 12.96 C 13.95 12.96, 14.024999999999999 12.870000000000001, 14.34 12.96 C 14.58 13.14, 14.535 12.975000000000001, 14.82 13.32 C 15.15 13.83, 15.135 13.815000000000001, 15.48 14.34 C 15.840000000000002 14.879999999999999, 15.870000000000005 14.534999999999998, 16.200000000000003 15.419999999999998 C 16.5 16.65, 16.424999999999997 16.32, 16.799999999999997 17.88 C 17.25 19.77, 17.37 19.815, 17.700000000000003 21.66 C 17.910000000000004 23.46, 17.955000000000002 23.924999999999997, 18.12 25.259999999999998 C 18.240000000000002 26.13, 18.27 26.369999999999997, 18.36 27 C 18.42 27.39, 18.45 27.585, 18.48 27.78 C 18.48 27.78, 18.48 27.78, 18.48 27.78 C 18.48 27.78, 18.48 27.705000000000002, 18.48 27.78 C 18.48 27.93, 18.465 27.96, 18.48 28.08 C 18.509999999999998 28.169999999999998, 18.525 28.214999999999996, 18.54 28.259999999999998 C 18.54 28.259999999999998, 18.509999999999998 28.244999999999997, 18.54 28.259999999999998 C 18.6 28.29, 18.57 28.395, 18.66 28.32 C 18.78 28.14, 18.45 28.23, 18.9 27.96 C 19.68 27.6, 19.68 27.480000000000004, 20.46 27.240000000000002 C 21.240000000000002 27.12, 21.33 27.060000000000002, 22.02 27 C 22.619999999999997 27, 22.724999999999998 26.939999999999998, 23.22 27 C 23.61 27.12, 23.505 27, 24 27.240000000000002 C 24.6 27.6, 24.615000000000002 27.6, 25.200000000000003 27.96 C 25.77 28.32, 25.845 28.2, 26.339999999999996 28.68 C 26.759999999999998 29.28, 26.865 29.28, 27.18 29.880000000000003 C 27.39 30.48, 27.375 30.465, 27.599999999999998 31.08 C 27.839999999999996 31.709999999999997, 27.915 31.634999999999994, 28.08 32.339999999999996 C 28.169999999999998 33.120000000000005, 28.169999999999998 33.03, 28.259999999999998 33.900000000000006 C 28.35 34.86, 28.35 34.92, 28.44 35.82 C 28.53 36.66, 28.575 36.855, 28.619999999999997 37.5 C 28.619999999999997 37.95, 28.619999999999997 37.72500000000001, 28.619999999999997 38.400000000000006 C 28.619999999999997 39.300000000000004, 28.619999999999997 39.435, 28.619999999999997 40.2 C 28.619999999999997 40.83, 28.619999999999997 40.965, 28.619999999999997 41.46 C 28.619999999999997 41.82, 28.619999999999997 41.955, 28.619999999999997 42.18 C 28.619999999999997 42.269999999999996, 28.619999999999997 42.315, 28.619999999999997 42.36 L 28.619999999999997 42.36" fill="none" stroke="black" stroke-width="5"></path><path d="M 24.54 12.66 C 24.18 13.68, 24.15 13.875, 23.82 14.700000000000001 C 23.52 15.330000000000002, 23.625 15.165000000000001, 23.22 15.96 C 22.71 16.92, 22.755000000000003 17.07, 22.200000000000003 17.88 C 21.6 18.54, 21.6 18.570000000000004, 21 19.200000000000003 C 20.4 19.8, 20.264999999999997 19.935, 19.799999999999997 20.4 C 19.47 20.729999999999997, 19.439999999999998 20.775, 19.14 21.06 C 18.87 21.299999999999997, 18.78 21.404999999999998, 18.6 21.54 C 18.509999999999998 21.57, 18.465 21.585, 18.419999999999998 21.6 C 18.419999999999998 21.6, 18.419999999999998 21.6, 18.419999999999998 21.6 C 18.419999999999998 21.6, 18.494999999999997 21.585, 18.419999999999998 21.6 L 18.12 21.66" fill="none" stroke="black" stroke-width="5"></path></svg>