<svg xmlns="http://www.w3.org/2000/svg" viewBox="15.260000228881836 1.5199999809265137 13.366666793823242 44.9866681098938" width="13.366666793823242" height="44.9866681098938"><path d="M 23.22 2.52 C 23.31 3.3899999999999997, 23.265 3.3299999999999996, 23.4 4.26 C 23.58 5.25, 23.58 5.220000000000001, 23.759999999999998 6.24 C 23.939999999999998 7.29, 23.985 7.5, 24.119999999999997 8.34 C 24.209999999999997 8.97, 24.209999999999997 8.895000000000001, 24.299999999999997 9.600000000000001 C 24.39 10.38, 24.435 10.38, 24.48 11.16 C 24.48 11.940000000000001, 24.48 12.015, 24.48 12.72 C 24.48 13.350000000000001, 24.495 13.32, 24.48 13.98 C 24.450000000000003 14.67, 24.51 14.7, 24.42 15.36 C 24.27 15.99, 24.284999999999997 16.065, 24.119999999999997 16.62 C 23.939999999999998 17.1, 23.955 17.130000000000003, 23.759999999999998 17.580000000000002 C 23.549999999999997 18, 23.564999999999998 17.955, 23.34 18.419999999999998 C 23.1 18.93, 23.16 18.975, 22.86 19.44 C 22.5 19.86, 22.575 19.770000000000003, 22.14 20.28 C 21.630000000000003 20.880000000000003, 21.630000000000003 20.97, 21.12 21.48 C 20.61 21.9, 20.61 21.9, 20.1 22.32 C 19.590000000000003 22.740000000000002, 19.62 22.740000000000002, 19.080000000000002 23.16 C 18.51 23.58, 18.480000000000004 23.625, 17.94 24 C 17.43 24.330000000000002, 17.265 24.405000000000005, 16.919999999999998 24.660000000000004 C 16.74 24.840000000000003, 16.65 24.93, 16.56 25.02 C 16.56 25.02, 16.634999999999998 24.99, 16.56 25.02 L 16.259999999999998 25.14" fill="none" stroke="black" stroke-width="5"></path><path d="M 21.06 21.48 C 21.299999999999997 21.42, 21.195 21.39, 21.54 21.36 C 21.990000000000002 21.36, 21.93 21.345, 22.44 21.36 C 23.01 21.39, 23.145000000000003 21.36, 23.580000000000002 21.419999999999998 C 23.880000000000003 21.509999999999998, 23.82 21.39, 24.18 21.6 C 24.6 21.93, 24.6 21.825, 25.02 22.259999999999998 C 25.439999999999998 22.799999999999997, 25.47 22.634999999999998, 25.86 23.34 C 26.22 24.21, 26.294999999999998 24.209999999999997, 26.58 25.08 C 26.79 25.95, 26.79 25.92, 27 26.82 C 27.21 27.75, 27.270000000000003 27.689999999999998, 27.42 28.68 C 27.509999999999998 29.73, 27.555 29.685000000000002, 27.599999999999998 30.78 C 27.599999999999998 31.92, 27.599999999999998 32.085, 27.599999999999998 33.06 C 27.599999999999998 33.870000000000005, 27.599999999999998 33.885, 27.599999999999998 34.68 C 27.599999999999998 35.46, 27.599999999999998 35.46, 27.599999999999998 36.24 C 27.599999999999998 37.019999999999996, 27.599999999999998 37.11, 27.599999999999998 37.8 C 27.599999999999998 38.4, 27.599999999999998 38.385, 27.599999999999998 39 C 27.599999999999998 39.629999999999995, 27.659999999999997 39.614999999999995, 27.599999999999998 40.26 C 27.479999999999997 40.92, 27.525 40.995, 27.36 41.58 C 27.15 42.089999999999996, 27.135 42.14999999999999, 26.94 42.599999999999994 C 26.759999999999998 42.989999999999995, 26.924999999999997 42.93, 26.58 43.38 C 26.07 43.89, 25.979999999999997 44.040000000000006, 25.56 44.400000000000006 C 25.23 44.61, 25.275000000000002 44.595, 24.900000000000002 44.82 C 24.48 45.06, 24.419999999999998 45.135, 24.06 45.3 C 23.759999999999998 45.39, 23.85 45.435, 23.46 45.480000000000004 C 22.98 45.480000000000004, 23.04 45.480000000000004, 22.5 45.480000000000004 C 21.9 45.480000000000004, 21.869999999999997 45.540000000000006, 21.299999999999997 45.480000000000004 C 20.759999999999998 45.36, 20.519999999999996 45.330000000000005, 20.22 45.24 C 20.16 45.18, 20.22 45.18, 20.1 45.12 C 19.92 45.06, 20.040000000000003 45.36, 19.740000000000002 45 C 19.32 44.34, 19.349999999999998 44.58, 18.9 43.68 C 18.42 42.540000000000006, 18.285 42.39000000000001, 17.94 41.400000000000006 C 17.73 40.56, 17.7 40.425, 17.52 39.72 C 17.369999999999997 39.15, 17.325 39.18, 17.22 38.58 C 17.16 37.95, 17.130000000000003 37.905, 17.1 37.32 C 17.1 36.78, 17.1 36.660000000000004, 17.1 36.24 C 17.1 35.94, 17.1 35.91, 17.1 35.64 C 17.1 35.400000000000006, 17.1 35.400000000000006, 17.1 35.160000000000004 C 17.1 34.92, 17.1 34.905, 17.1 34.68 C 17.1 34.47, 17.1 34.364999999999995, 17.1 34.26 C 17.1 34.26, 17.1 34.26, 17.1 34.26 L 17.1 34.26" fill="none" stroke="black" stroke-width="5"></path></svg>