<svg xmlns="http://www.w3.org/2000/svg" viewBox="4.820000171661377 2.9000000953674316 22.940000534057617 32.44000053405762" width="22.940000534057617" height="32.44000053405762"><path d="M 12.96 3.9000000000000004 C 12.36 5.82, 12.675 4.875, 11.76 7.74 C 10.530000000000001 11.55, 10.245000000000001 12.285, 9.3 15.36 C 8.64 17.7, 8.685 17.46, 7.98 20.04 C 7.23 22.86, 7.005000000000001 23.55, 6.48 25.68 C 6.18 27.119999999999997, 6.03 27.224999999999998, 5.88 28.56 C 5.88 29.79, 5.745 30.06, 5.88 31.02 C 6.15 31.71, 6.075 31.920000000000005, 6.42 32.400000000000006 C 6.84 32.67, 6.885 32.76, 7.26 32.94 C 7.59 33.03, 7.5 33.074999999999996, 7.92 33.12 C 8.43 33.12, 8.19 33.224999999999994, 8.94 33.12 C 9.93 32.91, 10.05 33, 10.92 32.7 C 11.669999999999998 32.31, 11.744999999999997 32.31, 12.419999999999998 31.92 C 13.02 31.53, 12.675 31.77, 13.620000000000001 31.14 C 14.910000000000002 30.270000000000003, 14.925000000000004 30.240000000000002, 16.200000000000003 29.400000000000002 C 17.46 28.590000000000003, 17.384999999999998 28.41, 18.72 27.78 C 20.13 27.330000000000002, 20.294999999999998 27.180000000000003, 21.54 26.880000000000003 C 22.62 26.73, 22.980000000000004 26.655, 23.700000000000003 26.58 C 24.060000000000002 26.58, 23.940000000000005 26.369999999999997, 24.42 26.58 C 25.02 27, 25.11 26.910000000000004, 25.619999999999997 27.42 C 26.04 28.02, 26.189999999999998 28.004999999999995, 26.46 28.619999999999997 C 26.580000000000002 29.25, 26.64 29.355000000000004, 26.700000000000003 29.880000000000003 C 26.700000000000003 30.3, 26.835 30.18, 26.700000000000003 30.72 C 26.430000000000003 31.38, 26.505000000000003 31.455, 26.160000000000004 32.04 C 25.740000000000002 32.55, 25.86 32.550000000000004, 25.32 33.06 C 24.66 33.57, 24.495 33.765, 24 34.08 C 23.67 34.2, 23.73 34.26, 23.34 34.32 C 22.89 34.32, 22.86 34.32, 22.44 34.32 C 22.05 34.32, 22.05 34.365, 21.66 34.32 C 21.27 34.230000000000004, 21.285 34.32, 20.88 34.14 C 20.46 33.87, 20.459999999999997 33.89999999999999, 20.04 33.599999999999994 C 19.62 33.269999999999996, 19.575000000000003 33.36, 19.200000000000003 32.94 C 18.87 32.43, 18.81 32.445, 18.54 31.92 C 18.33 31.38, 18.375 31.439999999999998, 18.12 30.839999999999996 C 17.82 30.18, 17.73 29.97, 17.52 29.52 C 17.4 29.28, 17.34 29.16, 17.28 29.04 C 17.28 29.04, 17.28 29.04, 17.28 29.04 C 17.28 29.04, 17.28 29.04, 17.28 29.04 L 17.28 29.04" fill="none" stroke="black" stroke-width="5"></path></svg>