<svg xmlns="http://www.w3.org/2000/svg" viewBox="8.180000305175781 2.059999942779541 19.520000457763672 33.680001735687256" width="19.520000457763672" height="33.680001735687256"><path d="M 15.24 3.06 C 14.97 4.59, 15.045000000000002 4.575, 14.700000000000001 6.12 C 14.280000000000001 7.68, 14.129999999999999 8.040000000000001, 13.86 9.24 C 13.74 10.08, 13.68 9.959999999999999, 13.620000000000001 10.92 C 13.620000000000001 12, 13.38 12.105000000000002, 13.620000000000001 13.080000000000002 C 14.100000000000001 13.950000000000001, 14.010000000000002 14.175, 14.580000000000002 14.82 C 15.24 15.24, 15.134999999999998 15.375, 15.899999999999999 15.66 C 16.77 15.81, 16.5 15.84, 17.64 15.96 C 19.05 16.05, 19.17 16.11, 20.46 16.14 C 21.63 16.11, 21.809999999999995 16.14, 22.799999999999997 16.080000000000002 C 23.61 15.99, 23.64 16.02, 24.42 15.899999999999999 C 25.17 15.75, 25.440000000000005 15.675, 25.92 15.600000000000001 C 26.13 15.600000000000001, 26.144999999999996 15.630000000000003, 26.339999999999996 15.600000000000001 C 26.52 15.540000000000001, 26.61 15.510000000000002, 26.700000000000003 15.48 L 26.700000000000003 15.48" fill="none" stroke="black" stroke-width="5"></path><path d="M 17.88 16.32 C 17.91 17.4, 18.255000000000003 16.98, 17.94 18.48 C 17.28 20.4, 17.385 20.28, 16.62 22.32 C 15.75 24.48, 15.87 24.87, 14.879999999999999 26.64 C 13.77 28.020000000000003, 13.754999999999999 28.125, 12.66 29.400000000000002 C 11.58 30.57, 11.295 30.990000000000002, 10.5 31.740000000000002 C 9.99 32.07000000000001, 9.81 32.190000000000005, 9.48 32.400000000000006 L 9.18 32.58" fill="none" stroke="black" stroke-width="5"></path><path d="M 23.22 22.98 C 22.53 24.93, 22.5 25.200000000000003, 21.84 26.880000000000003 C 21.21 28.290000000000003, 21.225 28.335000000000004, 20.580000000000002 29.700000000000003 C 19.92 31.02, 20.07 31.275, 19.259999999999998 32.339999999999996 C 18.299999999999997 33.15, 18.119999999999997 33.36, 17.34 33.96 L 16.14 34.74" fill="none" stroke="black" stroke-width="5"></path></svg>