<svg xmlns="http://www.w3.org/2000/svg" viewBox="11.779999732971191 4.433333396911621 20.959999084472656 36.57999897003174" width="20.959999084472656" height="36.57999897003174"><path d="M 15.96 12.419999999999998 C 16.62 12.51, 16.455000000000002 12.510000000000002, 17.28 12.600000000000001 C 18.27 12.690000000000001, 18.269999999999996 12.795, 19.259999999999998 12.78 C 20.25 12.66, 20.535 12.809999999999999, 21.240000000000002 12.54 C 21.660000000000004 12.12, 21.660000000000004 12.194999999999999, 22.080000000000002 11.7 C 22.5 11.129999999999999, 22.68 11.115, 22.919999999999998 10.56 C 22.979999999999997 10.02, 23.025 10.200000000000001, 23.04 9.48 C 23.009999999999998 8.58, 23.07 8.325, 22.98 7.68 C 22.83 7.289999999999999, 22.845 7.215, 22.68 6.8999999999999995 C 22.5 6.66, 22.605 6.645, 22.32 6.42 C 21.93 6.21, 21.974999999999998 6.15, 21.54 6 C 21.060000000000002 5.91, 21.135 5.955, 20.580000000000002 5.82 C 19.950000000000003 5.640000000000001, 19.830000000000002 5.55, 19.32 5.46 C 18.93 5.46, 18.93 5.4, 18.54 5.46 C 18.15 5.58, 18.195 5.429999999999999, 17.759999999999998 5.699999999999999 C 17.279999999999998 6.12, 17.205 6.120000000000001, 16.799999999999997 6.540000000000001 C 16.47 6.960000000000001, 16.425 6.885, 16.14 7.38 C 15.9 7.949999999999999, 15.885 7.77, 15.66 8.52 C 15.45 9.45, 15.39 9.405, 15.24 10.379999999999999 C 15.149999999999999 11.399999999999999, 15.149999999999999 11.429999999999998, 15.059999999999999 12.419999999999998 C 14.969999999999999 13.379999999999999, 14.924999999999999 13.245000000000001, 14.879999999999999 14.34 C 14.879999999999999 15.569999999999999, 14.924999999999999 15.584999999999997, 14.879999999999999 16.799999999999997 C 14.79 18, 14.745000000000001 17.925000000000004, 14.700000000000001 19.200000000000003 C 14.700000000000001 20.55, 14.580000000000002 20.46, 14.700000000000001 21.9 C 14.940000000000001 23.43, 14.985 23.58, 15.18 24.96 C 15.33 26.19, 15.254999999999999 26.160000000000004, 15.48 27.42 C 15.780000000000001 28.71, 15.840000000000002 28.965, 16.080000000000002 30 C 16.26 30.78, 16.245 30.674999999999997, 16.44 31.56 C 16.65 32.55, 16.62 32.535, 16.86 33.54 C 17.13 34.56, 17.174999999999997 34.574999999999996, 17.4 35.58 C 17.58 36.57, 17.61 36.78, 17.759999999999998 37.56 C 17.88 38.13, 17.925 38.370000000000005, 18 38.7 C 18.03 38.790000000000006, 18.044999999999998 38.835, 18.06 38.88 L 18.06 38.88" fill="none" stroke="black" stroke-width="5"></path><path d="M 15.059999999999999 19.44 C 15.51 19.44, 15.3 19.44, 15.96 19.44 C 16.830000000000002 19.44, 16.680000000000003 19.44, 17.700000000000003 19.44 C 18.87 19.44, 18.990000000000002 19.44, 20.04 19.44 C 20.97 19.44, 20.61 19.44, 21.9 19.44 C 23.55 19.44, 23.85 19.44, 25.200000000000003 19.44 C 26.25 19.44, 26.459999999999997 19.44, 27.299999999999997 19.44 C 27.93 19.44, 28.169999999999998 19.44, 28.56 19.44 L 28.86 19.44" fill="none" stroke="black" stroke-width="5"></path><path d="M 12.78 39.96 C 13.23 39.96, 13.08 40.08, 13.68 39.96 C 14.43 39.72, 13.995000000000001 39.78, 15.18 39.480000000000004 C 16.799999999999997 39.120000000000005, 16.935 39.03, 18.419999999999998 38.76 C 19.77 38.58, 20.07 38.50500000000001, 21.12 38.400000000000006 C 21.87 38.370000000000005, 21.42 38.355, 22.62 38.339999999999996 C 24.270000000000003 38.339999999999996, 24.360000000000003 38.339999999999996, 25.92 38.339999999999996 C 27.39 38.339999999999996, 27.645 38.294999999999995, 28.86 38.339999999999996 C 29.82 38.42999999999999, 30.060000000000002 38.41499999999999, 30.78 38.519999999999996 C 31.26 38.64, 31.5 38.699999999999996, 31.740000000000002 38.76 L 31.740000000000002 38.76" fill="none" stroke="black" stroke-width="5"></path></svg>