<svg xmlns="http://www.w3.org/2000/svg" viewBox="3.4733333587646484 6.800000190734863 22.563018798828125 40.12666606903076" width="22.563018798828125" height="40.12666606903076"><path d="M 7.62 26.099999999999998 C 8.04 26.130000000000003, 7.919999999999999 26.115000000000002, 8.459999999999999 26.160000000000004 C 9.12 26.220000000000002, 9.209999999999999 26.25, 9.78 26.28 C 10.26 26.28, 10.23 26.325000000000003, 10.74 26.28 C 11.280000000000001 26.189999999999998, 11.175 26.294999999999998, 11.82 26.099999999999998 C 12.57 25.799999999999997, 12.690000000000001 25.919999999999998, 13.32 25.5 C 13.83 24.96, 13.98 24.96, 14.34 24.42 C 14.55 23.880000000000003, 14.61 24.045, 14.76 23.34 C 14.850000000000001 22.47, 14.895000000000001 22.335, 14.940000000000001 21.6 C 14.940000000000001 21, 15.000000000000002 20.82, 14.940000000000001 20.4 C 14.82 20.159999999999997, 14.88 20.144999999999996, 14.700000000000001 19.919999999999998 C 14.46 19.71, 14.55 19.725, 14.22 19.5 C 13.8 19.259999999999998, 13.784999999999998 19.185, 13.379999999999999 19.02 C 12.99 18.93, 12.945 18.884999999999998, 12.600000000000001 18.84 C 12.3 18.84, 12.345 18.84, 12 18.84 C 11.61 18.84, 11.670000000000002 18.66, 11.22 18.84 C 10.71 19.2, 10.709999999999999 19.125, 10.2 19.56 C 9.69 20.07, 9.615 20.07, 9.18 20.580000000000002 C 8.82 21.090000000000003, 8.864999999999998 20.94, 8.459999999999999 21.6 C 8.01 22.41, 8.025 22.095, 7.5600000000000005 23.22 C 7.08 24.659999999999997, 7.0200000000000005 24.779999999999998, 6.6000000000000005 26.099999999999998 C 6.24 27.299999999999997, 6.225 26.97, 5.88 28.5 C 5.55 30.36, 5.475 30.54, 5.22 32.22 C 5.04 33.72, 5.025 33.945, 4.86 35.22 C 4.710000000000001 36.269999999999996, 4.65 36.51, 4.5600000000000005 37.32 C 4.53 37.89, 4.515000000000001 37.815, 4.5 38.46 C 4.5 39.18000000000001, 4.4399999999999995 39.300000000000004, 4.5 39.900000000000006 C 4.62 40.38, 4.53 40.41, 4.74 40.86 C 5.04 41.28, 4.995 41.235, 5.34 41.7 C 5.73 42.21, 5.76 42.3, 6.12 42.72 C 6.449999999999999 43.05, 6.284999999999999 43.005, 6.779999999999999 43.38 C 7.44 43.8, 7.350000000000001 43.769999999999996, 8.100000000000001 44.22 C 8.940000000000001 44.7, 9.015 44.82, 9.78 45.18 C 10.469999999999999 45.42, 10.32 45.495000000000005, 11.16 45.660000000000004 C 12.15 45.75, 12.030000000000001 45.795, 13.14 45.839999999999996 C 14.370000000000001 45.839999999999996, 14.145000000000001 46.035, 15.600000000000001 45.839999999999996 C 17.28 45.45, 17.805 45.39, 18.96 45.06 C 19.59 44.79, 19.424999999999997 45.03, 20.22 44.519999999999996 C 21.18 43.769999999999996, 21.240000000000002 43.98, 22.14 43.019999999999996 C 22.98 41.849999999999994, 23.4 41.265, 23.82 40.68 C 23.82 40.68, 23.82 40.68, 23.82 40.68 C 23.82 40.68, 23.82 40.68, 23.82 40.68 L 23.82 40.68" fill="none" stroke="black" stroke-width="5"></path><path d="M 4.92 33.72 C 5.34 33.84, 4.6049999999999995 33.69, 5.76 33.96 C 7.65 34.379999999999995, 7.785000000000001 34.5, 9.540000000000001 34.8 C 11.16 34.980000000000004, 11.25 35.07, 12.78 35.160000000000004 C 14.219999999999999 35.160000000000004, 14.37 35.160000000000004, 15.66 35.160000000000004 C 16.8 35.160000000000004, 16.770000000000003 35.160000000000004, 17.94 35.160000000000004 C 19.14 35.160000000000004, 19.335 35.160000000000004, 20.34 35.160000000000004 C 21.15 35.160000000000004, 21.18 35.175000000000004, 21.96 35.160000000000004 C 22.71 35.129999999999995, 22.785 35.355, 23.46 35.099999999999994 C 24.060000000000002 34.62, 24.300000000000004 34.62, 24.660000000000004 34.14 C 24.78 33.66, 24.810000000000002 33.96, 24.900000000000002 33.18 C 24.96 32.1, 25.08 32.49, 25.02 31.02 C 24.840000000000003 29.159999999999997, 25.065000000000005 29.339999999999996, 24.660000000000004 27.299999999999997 C 24.03 25.08, 24.105 25.185, 23.4 22.86 C 22.619999999999997 20.43, 22.634999999999998 20.43, 21.84 18 C 21.03 15.57, 20.909999999999997 15.165000000000001, 20.22 13.14 C 19.65 11.52, 19.485 11.084999999999999, 19.080000000000002 9.899999999999999 C 18.840000000000003 9.149999999999999, 18.765 8.924999999999997, 18.6 8.399999999999999 C 18.509999999999998 8.1, 18.465 7.95, 18.419999999999998 7.800000000000001 C 18.419999999999998 7.800000000000001, 18.419999999999998 7.800000000000001, 18.419999999999998 7.800000000000001 L 18.419999999999998 7.800000000000001" fill="none" stroke="black" stroke-width="5"></path></svg>