<svg xmlns="http://www.w3.org/2000/svg" viewBox="6.766666889190674 4.960000038146973 18.053332805633545 41.040000915527344" width="18.053332805633545" height="41.040000915527344"><path d="M 9.78 16.56 C 10.23 16.65, 9.825 16.650000000000002, 10.68 16.740000000000002 C 11.940000000000001 16.83, 11.985000000000001 17.04, 13.200000000000001 16.919999999999998 C 14.370000000000001 16.589999999999996, 14.52 16.784999999999997, 15.54 16.259999999999998 C 16.41 15.54, 16.590000000000003 15.6, 17.28 14.82 C 17.79 13.98, 17.985 14.07, 18.299999999999997 13.14 C 18.419999999999998 12.120000000000001, 18.479999999999997 12.075000000000001, 18.54 11.100000000000001 C 18.54 10.170000000000002, 18.645 10.065000000000001, 18.54 9.24 C 18.33 8.52, 18.33 8.34, 18.12 7.800000000000001 C 17.910000000000004 7.44, 18.060000000000002 7.44, 17.700000000000003 7.08 C 17.19 6.720000000000001, 17.205 6.630000000000001, 16.68 6.36 C 16.14 6.18, 16.14 6.09, 15.600000000000001 6 C 15.06 6, 15.030000000000001 5.91, 14.52 6 C 14.04 6.18, 14.174999999999999 6.015000000000001, 13.559999999999999 6.36 C 12.809999999999999 6.87, 12.674999999999997 6.81, 12.059999999999999 7.38 C 11.58 8.01, 11.535 7.815, 11.100000000000001 8.64 C 10.71 9.66, 10.605 9.735, 10.32 10.68 C 10.14 11.549999999999999, 10.2 10.964999999999998, 9.959999999999999 12.419999999999998 C 9.66 14.459999999999999, 9.584999999999999 14.594999999999999, 9.36 16.5 C 9.21 18.27, 9.165000000000001 18.54, 9.06 20.04 C 9 21.27, 8.969999999999999 21.075, 8.94 22.5 C 8.94 24.12, 8.985 24.045, 8.94 25.740000000000002 C 8.85 27.51, 8.865 27.465000000000003, 8.76 29.28 C 8.64 31.14, 8.58 31.380000000000003, 8.52 33 C 8.52 34.379999999999995, 8.565 34.349999999999994, 8.52 35.76 C 8.43 37.2, 8.475 37.155, 8.34 38.64 C 8.16 40.17, 8.115 40.515, 7.98 41.7 C 7.890000000000001 42.540000000000006, 7.845000000000001 42.96, 7.800000000000001 43.38 C 7.800000000000001 43.38, 7.800000000000001 43.30500000000001, 7.800000000000001 43.38 C 7.800000000000001 43.53, 7.800000000000001 43.455, 7.800000000000001 43.68 C 7.800000000000001 43.980000000000004, 7.800000000000001 44.1, 7.800000000000001 44.28 C 7.800000000000001 44.34, 7.800000000000001 44.34, 7.800000000000001 44.400000000000006 C 7.800000000000001 44.46, 7.7250000000000005 44.489999999999995, 7.800000000000001 44.519999999999996 C 7.950000000000001 44.519999999999996, 7.875000000000002 44.519999999999996, 8.100000000000001 44.519999999999996 C 8.4 44.519999999999996, 8.355 44.519999999999996, 8.7 44.519999999999996 C 9.09 44.519999999999996, 9.165000000000001 44.519999999999996, 9.48 44.519999999999996 C 9.719999999999999 44.519999999999996, 9.569999999999999 44.504999999999995, 9.959999999999999 44.519999999999996 C 10.5 44.55, 10.47 44.504999999999995, 11.040000000000001 44.58 C 11.64 44.7, 11.535 44.76, 12.24 44.82 C 13.05 44.82, 13.08 44.79, 13.86 44.82 C 14.61 44.879999999999995, 14.565 44.894999999999996, 15.36 44.94 C 16.2 44.97, 16.59 44.985, 17.04 45 C 17.1 45, 17.13 45, 17.16 45 C 17.16 45, 17.16 45, 17.16 45 L 17.16 45" fill="none" stroke="black" stroke-width="5"></path><path d="M 10.14 24.240000000000002 C 11.28 24.240000000000002, 11.04 24.195, 12.419999999999998 24.240000000000002 C 14.04 24.330000000000002, 14.309999999999999 24.375, 15.66 24.42 C 16.740000000000002 24.42, 16.740000000000002 24.42, 17.82 24.42 C 18.9 24.42, 18.990000000000002 24.375000000000004, 19.98 24.42 C 20.880000000000003 24.509999999999998, 21.09 24.509999999999998, 21.78 24.599999999999998 C 22.26 24.689999999999998, 22.395000000000003 24.735, 22.740000000000002 24.78 C 22.950000000000003 24.78, 22.89 24.78, 23.16 24.78 L 23.82 24.78" fill="none" stroke="black" stroke-width="5"></path></svg>