<svg xmlns="http://www.w3.org/2000/svg" viewBox="14 9.270047187805176 24.68000030517578 36.249953269958496" width="24.68000030517578" height="36.249953269958496"><path d="M 15 15.48 C 17.04 15.36, 17.355000000000004 15.705, 19.080000000000002 15.24 C 20.490000000000002 14.43, 21.044999999999998 14.295000000000002, 21.9 13.620000000000001 C 22.2 13.08, 22.605 13.11, 22.5 12.54 C 21.990000000000002 11.94, 21.990000000000002 11.76, 21.48 11.34 C 20.97 11.1, 21.060000000000002 11.114999999999998, 20.46 10.86 C 19.770000000000003 10.59, 19.635 10.440000000000001, 19.080000000000002 10.32 C 18.660000000000004 10.35, 18.660000000000004 10.155, 18.240000000000002 10.379999999999999 C 17.82 10.8, 17.909999999999997 10.68, 17.4 11.22 C 16.8 11.879999999999999, 16.560000000000002 11.85, 16.200000000000003 12.54 C 16.080000000000002 13.26, 16.065 13.2, 15.96 13.98 C 15.870000000000001 14.82, 15.825 14.565000000000001, 15.78 15.66 C 15.78 17.009999999999998, 15.66 16.545, 15.78 18.36 C 16.02 20.64, 16.005 21.029999999999998, 16.259999999999998 22.919999999999998 C 16.529999999999998 24.42, 16.574999999999996 25.05, 16.799999999999997 25.92 C 16.979999999999997 26.160000000000004, 17.025 26.115000000000002, 17.16 26.400000000000002 L 17.34 27.06" fill="none" stroke="black" stroke-width="5"></path><path d="M 16.200000000000003 21.240000000000002 C 16.5 20.910000000000004, 15.854999999999997 21.090000000000003, 16.799999999999997 20.580000000000002 C 18.39 19.89, 18.975 19.470000000000002, 19.98 19.200000000000003 C 20.4 19.35, 20.22 18.990000000000002, 20.82 19.5 C 21.6 20.37, 21.674999999999997 20.01, 22.38 21.240000000000002 C 23.009999999999998 22.830000000000002, 23.325 23.475, 23.64 24.42 C 23.64 24.72, 23.64 24.87, 23.64 25.02 C 23.64 25.02, 23.685000000000002 25.155, 23.64 25.02 C 23.55 24.75, 23.505000000000003 25.26, 23.46 24.48 C 23.46 23.189999999999998, 23.235 22.965, 23.46 21.9 C 23.91 21.06, 23.685 20.955, 24.36 20.22 C 25.26 19.59, 24.555000000000003 19.53, 26.160000000000004 18.96 C 28.470000000000002 18.450000000000003, 28.47 18.18, 30.78 17.94 C 33.09 17.97, 33.675000000000004 17.895, 35.400000000000006 18 L 37.68 18.36" fill="none" stroke="black" stroke-width="5"></path><path d="M 29.28 20.04 C 29.37 21.66, 29.415 20.97, 29.46 23.28 C 29.46 26.28, 29.46 26.715000000000003, 29.46 29.28 C 29.46 31.41, 29.475 31.095, 29.46 33.54 C 29.43 36.3, 29.46 36.615, 29.400000000000002 39.06 C 29.310000000000002 41.19, 29.265 42.015, 29.22 43.32 C 29.22 43.8, 29.339999999999996 43.980000000000004, 29.22 44.28 L 28.740000000000002 44.519999999999996" fill="none" stroke="black" stroke-width="5"></path></svg>