<svg xmlns="http://www.w3.org/2000/svg" viewBox="8.300000190734863 3.645418643951416 17.863762855529785 43.9145827293396" width="17.863762855529785" height="43.9145827293396"><path d="M 11.34 13.379999999999999 C 12.51 13.59, 12.149999999999999 13.799999999999999, 13.68 13.799999999999999 C 15.57 13.59, 15.96 13.844999999999999, 17.46 13.379999999999999 C 18.57 12.66, 18.9 12.795, 19.68 11.94 C 20.130000000000003 10.95, 20.310000000000002 10.875, 20.580000000000002 9.959999999999999 C 20.67 9.12, 21.075 9.18, 20.759999999999998 8.28 C 20.04 7.32, 20.009999999999998 7.08, 19.32 6.36 C 18.66 5.880000000000001, 18.885 5.82, 18 5.4 C 16.89 5.04, 16.619999999999997 4.83, 15.78 4.68 C 15.21 4.74, 15.18 4.500000000000001, 14.64 4.800000000000001 C 14.13 5.34, 14.145000000000001 5.01, 13.620000000000001 5.88 C 13.08 7.08, 13.049999999999999 6.824999999999999, 12.54 8.28 C 12.059999999999999 9.989999999999998, 11.955 10.32, 11.58 11.7 C 11.31 12.75, 11.265 12.569999999999999, 11.040000000000001 13.799999999999999 C 10.86 15.21, 10.845 14.985000000000001, 10.68 16.62 C 10.53 18.48, 10.575 18.225, 10.379999999999999 20.34 C 10.139999999999999 22.71, 10.064999999999998 23.025, 9.899999999999999 25.08 C 9.809999999999999 26.82, 9.870000000000001 26.685, 9.72 28.56 C 9.510000000000002 30.57, 9.405000000000001 30.689999999999998, 9.3 32.58 C 9.3 34.349999999999994, 9.3 34.425, 9.3 36.12 C 9.3 37.739999999999995, 9.3 38.07, 9.3 39.36 C 9.3 40.32, 9.3 40.305, 9.3 41.28 C 9.3 42.269999999999996, 9.3 42.54, 9.3 43.26 C 9.3 43.71, 9.3 43.77, 9.3 44.160000000000004 C 9.3 44.49, 9.3 44.55, 9.3 44.82 C 9.3 45.03, 9.3 45.135000000000005, 9.3 45.24 C 9.3 45.24, 9.3 45.24, 9.3 45.24 L 9.3 45.24" fill="none" stroke="black" stroke-width="5"></path><path d="M 9.84 39.12 C 10.379999999999999 39.12, 10.035 39.12, 10.92 39.12 C 12.149999999999999 39.12, 12.389999999999999 39.12, 13.379999999999999 39.12 C 14.129999999999999 39.12, 13.934999999999999 39.074999999999996, 14.879999999999999 39.12 C 16.02 39.209999999999994, 16.59 39.254999999999995, 17.16 39.3 C 17.16 39.3, 17.115000000000002 39.3, 17.16 39.3 L 17.34 39.3" fill="none" stroke="black" stroke-width="5"></path><path d="M 9.959999999999999 20.34 C 10.41 20.34, 10.514999999999999 20.34, 10.86 20.34 C 11.1 20.34, 10.875 20.25, 11.34 20.34 C 12.030000000000001 20.520000000000003, 11.895 20.445000000000004, 12.72 20.700000000000003 C 13.68 21.03, 13.860000000000001 20.565, 14.64 21.36 C 15.24 22.619999999999997, 15.435 22.724999999999998, 15.84 23.88 C 16.049999999999997 24.93, 16.08 24.96, 16.259999999999998 25.98 C 16.409999999999997 26.97, 16.485 27.465, 16.56 27.96 C 16.56 27.96, 16.56 27.96, 16.56 27.96 C 16.56 27.96, 16.56 27.975, 16.56 27.96 C 16.56 27.93, 16.56 28.35, 16.56 27.900000000000002 C 16.56 27.03, 16.455 26.955000000000005, 16.56 26.160000000000004 C 16.77 25.44, 16.695 25.335, 16.98 24.72 C 17.340000000000003 24.21, 17.040000000000003 24.150000000000002, 17.700000000000003 23.700000000000003 C 18.660000000000004 23.310000000000002, 18.825000000000003 23.145, 19.62 22.919999999999998 C 20.25 22.86, 20.16 22.769999999999996, 20.88 22.799999999999997 C 21.689999999999998 22.919999999999998, 21.794999999999998 22.724999999999998, 22.5 23.04 C 23.1 23.549999999999997, 23.220000000000002 23.369999999999997, 23.700000000000003 24.06 C 24.060000000000002 24.93, 24.060000000000002 24.389999999999997, 24.42 25.799999999999997 C 24.78 27.75, 24.96 27.645000000000003, 25.14 29.700000000000003 C 25.14 31.86, 25.155 32.025, 25.14 34.019999999999996 C 25.11 35.849999999999994, 25.244999999999997 35.94, 25.08 37.68 C 24.78 39.33, 24.825 39.18000000000001, 24.48 40.980000000000004 C 24.090000000000003 42.93000000000001, 23.940000000000005 43.53, 23.700000000000003 44.88 C 23.61 45.63, 23.565 46.005, 23.52 46.38 C 23.52 46.38, 23.52 46.38, 23.52 46.38 C 23.52 46.38, 23.564999999999998 46.335, 23.52 46.38 L 23.34 46.56" fill="none" stroke="black" stroke-width="5"></path></svg>