<svg xmlns="http://www.w3.org/2000/svg" viewBox="6.853333950042725 3.1800003051757812 21.206664562225342 42.880001068115234" width="21.206664562225342" height="42.880001068115234"><path d="M 9.36 12.66 C 9.84 12.81, 9.57 12.855, 10.32 12.96 C 11.34 13.020000000000001, 11.129999999999999 13.110000000000003, 12.36 13.080000000000002 C 13.8 12.96, 14.100000000000001 13.185, 15.24 12.84 C 16.08 12.27, 16.29 12.225, 16.919999999999998 11.7 C 17.339999999999996 11.219999999999999, 17.31 11.415, 17.759999999999998 10.74 C 18.24 9.870000000000001, 18.435 9.78, 18.72 9 C 18.81 8.31, 19.125 8.4, 18.9 7.62 C 18.36 6.75, 18.42 6.57, 17.82 5.88 C 17.16 5.37, 17.145 5.25, 16.5 4.86 C 15.870000000000001 4.59, 15.870000000000001 4.470000000000001, 15.24 4.32 C 14.61 4.29, 14.655000000000001 4.275, 13.98 4.26 C 13.26 4.26, 13.11 4.08, 12.54 4.26 C 12.12 4.619999999999999, 12.165 4.545, 11.7 4.9799999999999995 C 11.19 5.49, 11.25 5.34, 10.68 6 C 10.05 6.8100000000000005, 9.975 6.585, 9.42 7.62 C 8.94 8.88, 8.79 9.120000000000001, 8.459999999999999 10.14 C 8.280000000000001 10.92, 8.235000000000001 10.59, 8.100000000000001 11.7 C 8.010000000000002 13.14, 7.965 12.96, 7.92 14.580000000000002 C 7.92 16.380000000000003, 7.77 16.38, 7.92 18.18 C 8.219999999999999 19.98, 8.28 20.595000000000002, 8.52 21.78 C 8.7 22.35, 8.745 22.544999999999998, 8.879999999999999 22.919999999999998 L 9.06 23.28" fill="none" stroke="black" stroke-width="5"></path><path d="M 8.459999999999999 17.64 C 8.91 17.55, 8.535 17.61, 9.36 17.46 C 10.559999999999999 17.25, 10.605 17.22, 11.76 17.04 C 12.870000000000001 16.89, 12.645 16.905, 13.98 16.740000000000002 C 15.540000000000001 16.560000000000002, 15.675 16.515, 17.1 16.38 C 18.39 16.29, 18.3 16.245, 19.68 16.200000000000003 C 21.15 16.200000000000003, 21.555 16.200000000000003, 22.62 16.200000000000003 C 23.28 16.200000000000003, 23.175 16.155000000000005, 23.94 16.200000000000003 C 24.810000000000002 16.29, 25.080000000000002 16.215, 25.68 16.38 C 26.009999999999998 16.619999999999997, 25.994999999999997 16.259999999999998, 26.339999999999996 16.86 C 26.699999999999996 17.82, 26.88 17.82, 27.06 18.78 C 27.06 19.740000000000002, 27.06 19.785000000000004, 27.06 20.700000000000003 C 27.06 21.57, 27.06 22.005000000000003, 27.06 22.44 C 27.06 22.44, 27.06 22.395000000000003, 27.06 22.44 L 27.06 22.62" fill="none" stroke="black" stroke-width="5"></path><path d="M 14.580000000000002 16.14 C 14.580000000000002 16.98, 14.580000000000002 16.515, 14.580000000000002 17.82 C 14.580000000000002 19.59, 14.340000000000003 19.575, 14.580000000000002 21.36 C 15.06 23.16, 14.955 23.475, 15.54 24.96 C 16.229999999999997 26.13, 15.689999999999998 25.874999999999996, 16.919999999999998 27.299999999999997 C 18.689999999999998 28.98, 18.855 29.490000000000002, 20.46 30.660000000000004 C 21.9 31.32, 22.02 31.560000000000002, 23.34 31.98 C 24.54 32.16, 25.020000000000003 32.205, 25.740000000000002 32.339999999999996 C 25.98 32.42999999999999, 25.95 32.474999999999994, 26.22 32.519999999999996 C 26.52 32.519999999999996, 26.625 32.519999999999996, 26.82 32.519999999999996 C 26.91 32.519999999999996, 26.955 32.519999999999996, 27 32.519999999999996 L 27 32.519999999999996" fill="none" stroke="black" stroke-width="5"></path><path d="M 26.94 32.519999999999996 C 26.160000000000004 32.519999999999996, 26.910000000000004 32.41499999999999, 25.380000000000003 32.519999999999996 C 23.1 32.73, 22.71 32.489999999999995, 20.82 32.94 C 19.32 33.629999999999995, 19.02 33.51, 17.82 34.32 C 16.92 35.25, 16.8 35.115, 16.02 36.18 C 15.36 37.379999999999995, 15.345 37.199999999999996, 14.700000000000001 38.58 C 14.07 40.14, 13.845 40.515, 13.440000000000001 41.7 C 13.260000000000002 42.510000000000005, 13.200000000000003 42.675, 13.080000000000002 43.32 C 13.020000000000001 43.8, 12.990000000000002 43.89, 12.96 44.28 C 12.96 44.58, 12.990000000000002 44.685, 12.96 44.88 L 12.84 45.06" fill="none" stroke="black" stroke-width="5"></path><path d="M 10.44 30.18 C 11.46 30.84, 11.475 30.765, 12.48 31.5 C 13.47 32.31, 13.515 32.16, 14.46 33.12 C 15.36 34.23, 15.645 34.529999999999994, 16.259999999999998 35.339999999999996 C 16.589999999999996 35.849999999999994, 16.755 36.105, 16.919999999999998 36.36 L 16.919999999999998 36.36" fill="none" stroke="black" stroke-width="5"></path></svg>