<svg xmlns="http://www.w3.org/2000/svg" viewBox="10.520000457763672 3.6627092361450195 17.899999618530273 40.6572904586792" width="17.899999618530273" height="40.6572904586792"><path d="M 12.419999999999998 8.16 C 12.959999999999999 7.68, 12.855 7.739999999999999, 13.5 7.199999999999999 C 14.25 6.6, 14.219999999999999 6.465, 15 6 C 15.81 5.67, 15.84 5.67, 16.62 5.34 C 17.37 5.01, 17.220000000000002 4.83, 18.12 4.68 C 19.17 4.71, 19.08 4.59, 20.22 4.74 C 21.45 5.01, 21.615 4.875, 22.68 5.28 C 23.58 5.82, 23.700000000000003 5.745, 24.48 6.36 C 25.14 7.050000000000001, 25.139999999999997 6.765000000000001, 25.799999999999997 7.74 C 26.459999999999997 9, 26.729999999999997 9.03, 27.119999999999997 10.26 C 27.24 11.46, 27.299999999999997 11.625, 27.36 12.66 C 27.36 13.53, 27.494999999999997 13.409999999999998, 27.36 14.399999999999999 C 27.09 15.51, 27.27 15.600000000000001, 26.82 16.62 C 26.189999999999998 17.55, 26.159999999999997 17.7, 25.56 18.48 C 24.990000000000002 19.11, 25.125 19.125, 24.42 19.740000000000002 C 23.580000000000002 20.340000000000003, 23.805000000000003 20.415000000000003, 22.740000000000002 20.94 C 21.450000000000003 21.39, 21.525 21.495, 20.16 21.84 C 18.72 22.08, 18.36 22.2, 17.28 22.32 C 16.560000000000002 22.32, 16.59 22.335, 15.84 22.32 C 15.059999999999999 22.29, 14.91 22.334999999999997, 14.28 22.259999999999998 C 13.8 22.14, 13.845 22.23, 13.32 22.02 C 12.75 21.72, 12.6 21.644999999999996, 12.18 21.419999999999998 C 11.91 21.27, 11.805 21.240000000000002, 11.64 21.12 C 11.58 21.03, 11.55 20.985, 11.52 20.94 L 11.52 20.94" fill="none" stroke="black" stroke-width="5"></path><path d="M 15.059999999999999 22.200000000000003 C 15.39 22.380000000000003, 15.540000000000001 21.99, 15.72 22.56 C 15.75 23.52, 15.765 23.475, 15.78 24.48 C 15.78 25.53, 15.78 25.2, 15.78 26.58 C 15.78 28.29, 15.794999999999998 28.259999999999998, 15.78 30 C 15.75 31.77, 15.735 31.875, 15.72 33.54 C 15.72 35.1, 15.72 35.08500000000001, 15.72 36.660000000000004 C 15.72 38.25, 15.72 38.699999999999996, 15.72 39.839999999999996 C 15.72 40.53, 15.72 40.665, 15.72 41.22 C 15.72 41.64, 15.72 41.85, 15.72 42.06 C 15.72 42.06, 15.72 42.06, 15.72 42.06 C 15.72 42.06, 15.72 42.015, 15.72 42.06 C 15.72 42.150000000000006, 15.735000000000001 42.120000000000005, 15.72 42.24 C 15.690000000000001 42.39, 15.675 42.465, 15.66 42.54 L 15.66 42.54" fill="none" stroke="black" stroke-width="5"></path><path d="M 21.9 20.88 C 21.9 22.619999999999997, 21.9 22.305, 21.9 24.36 C 21.9 26.729999999999997, 21.9 26.775, 21.9 29.099999999999998 C 21.9 31.380000000000003, 21.9 31.71, 21.9 33.660000000000004 C 21.9 35.28, 21.915 35.23500000000001, 21.9 36.900000000000006 C 21.869999999999997 38.61, 21.9 38.97, 21.84 40.32 C 21.75 41.31, 21.705 41.625, 21.66 42.3 C 21.66 42.66, 21.66 42.794999999999995, 21.66 43.019999999999996 C 21.66 43.11, 21.66 43.155, 21.66 43.2 C 21.66 43.2, 21.735 43.17, 21.66 43.2 L 21.36 43.32" fill="none" stroke="black" stroke-width="5"></path></svg>