<svg xmlns="http://www.w3.org/2000/svg" viewBox="8.84000015258789 1.4000000953674316 25.54666519165039 45.9800009727478" width="25.54666519165039" height="45.9800009727478"><path d="M 17.52 2.4000000000000004 C 17.52 2.91, 17.849999999999998 2.475, 17.52 3.42 C 16.86 4.8, 17.055000000000003 4.2299999999999995, 16.200000000000003 6.18 C 15.150000000000002 8.7, 14.970000000000002 8.595, 14.100000000000001 11.22 C 13.41 13.95, 13.155000000000001 14.745, 12.72 16.68 C 12.54 17.82, 12.54 17.565, 12.36 18.96 C 12.18 20.61, 12.045 20.955, 12 22.259999999999998 C 12.09 23.22, 12.015 23.4, 12.18 24.18 C 12.42 24.78, 12.375 24.945, 12.66 25.380000000000003 C 12.99 25.650000000000002, 12.84 25.665000000000003, 13.32 25.92 C 13.950000000000001 26.160000000000004, 13.920000000000002 26.220000000000002, 14.580000000000002 26.400000000000002 C 15.270000000000001 26.520000000000003, 15.3 26.55, 15.96 26.64 C 16.59 26.7, 16.695 26.759999999999998, 17.22 26.759999999999998 C 17.64 26.7, 17.61 26.865000000000002, 18.06 26.64 C 18.54 26.25, 18.494999999999997 26.384999999999998, 19.02 25.86 C 19.59 25.2, 19.65 25.32, 20.16 24.54 C 20.61 23.64, 20.625 23.715000000000003, 21.06 22.740000000000002 C 21.479999999999997 21.69, 21.57 21.51, 21.9 20.64 C 22.14 19.95, 22.215 19.845, 22.38 19.259999999999998 C 22.47 18.779999999999998, 22.515 18.54, 22.56 18.299999999999997 C 22.56 18.299999999999997, 22.56 18.299999999999997, 22.56 18.299999999999997 C 22.56 18.299999999999997, 22.56 18.284999999999997, 22.56 18.299999999999997 C 22.56 18.33, 22.529999999999998 18.15, 22.56 18.36 C 22.619999999999997 18.75, 22.65 18.75, 22.68 19.14 C 22.68 19.53, 22.68 19.455, 22.68 19.919999999999998 C 22.68 20.46, 22.68 20.535, 22.68 21 C 22.68 21.39, 22.68 21.255000000000003, 22.68 21.78 C 22.68 22.44, 22.56 22.32, 22.68 23.1 C 22.92 24, 22.845 24.150000000000002, 23.16 24.900000000000002 C 23.55 25.5, 23.535 25.604999999999997, 23.94 26.099999999999998 C 24.36 26.490000000000002, 24.195 26.520000000000003, 24.78 26.880000000000003 C 25.53 27.21, 25.470000000000002 27.240000000000002, 26.28 27.54 C 27.15 27.81, 27.39 27.945, 28.02 28.08 C 28.409999999999997 28.08, 28.319999999999997 28.2, 28.799999999999997 28.08 C 29.369999999999997 27.839999999999996, 29.28 27.99, 29.94 27.599999999999998 C 30.69 27.06, 30.915000000000003 26.955, 31.44 26.52 C 31.740000000000002 26.189999999999998, 31.77 26.265, 32.04 25.86 C 32.28 25.380000000000003, 32.235 25.605000000000004, 32.519999999999996 24.900000000000002 C 32.849999999999994 23.97, 32.97 23.805, 33.18 23.04 C 33.269999999999996 22.439999999999998, 33.315 22.38, 33.36 21.84 C 33.36 21.36, 33.42 21.33, 33.36 20.88 C 33.239999999999995 20.46, 33.3 20.34, 33.12 20.04 C 32.879999999999995 19.86, 32.97 19.89, 32.64 19.68 C 32.22 19.44, 32.28 19.365000000000002, 31.799999999999997 19.200000000000003 C 31.259999999999998 19.11, 31.29 19.065, 30.72 19.02 C 30.119999999999997 19.02, 30 19.005, 29.52 19.02 C 29.159999999999997 19.05, 29.099999999999998 19.035, 28.799999999999997 19.080000000000002 C 28.56 19.14, 28.604999999999997 19.095000000000002, 28.32 19.200000000000003 C 27.990000000000002 19.35, 27.870000000000005 19.41, 27.660000000000004 19.5 L 27.48 19.56" fill="none" stroke="black" stroke-width="5"></path><path d="M 21.96 22.98 C 21.810000000000002 23.189999999999998, 21.93 22.575, 21.66 23.4 C 21.27 24.84, 21.224999999999998 25.005000000000003, 20.88 26.28 C 20.58 27.39, 20.415 27.315, 20.28 28.5 C 20.310000000000002 29.759999999999998, 20.085 29.939999999999998, 20.34 31.02 C 20.82 31.92, 20.624999999999996 31.995, 21.299999999999997 32.82 C 22.169999999999998 33.57, 22.064999999999998 33.705, 23.04 34.32 C 24.12 34.8, 24.060000000000002 34.935, 25.200000000000003 35.28 C 26.4 35.49, 26.7 35.400000000000006, 27.599999999999998 35.7 C 28.199999999999996 36.09, 28.469999999999995 36.25500000000001, 28.799999999999997 36.480000000000004 C 28.86 36.54, 28.86 36.449999999999996, 28.92 36.599999999999994 C 28.98 36.839999999999996, 29.009999999999998 36.839999999999996, 29.04 37.08 C 29.04 37.32, 29.28 37.365, 29.04 37.56 C 28.56 37.71, 28.68 37.785, 28.08 37.86 C 27.36 37.86, 27.765 37.86, 26.64 37.86 C 25.11 37.86, 24.840000000000003 37.769999999999996, 23.580000000000002 37.86 C 22.590000000000003 38.04, 22.650000000000002 37.92, 21.6 38.22 C 20.490000000000002 38.64, 20.28 38.505, 19.38 39.06 C 18.689999999999998 39.75, 18.57 39.525, 18 40.44 C 17.55 41.58, 17.385 41.834999999999994, 17.1 42.72 C 16.98 43.35, 16.92 43.365, 16.86 43.980000000000004 C 16.86 44.58, 16.86 44.58, 16.86 45.18 C 16.86 45.78, 16.86 46.08, 16.86 46.38 L 16.86 46.38" fill="none" stroke="black" stroke-width="5"></path><path d="M 9.84 34.8 C 11.04 34.8, 11.325 34.724999999999994, 12.24 34.8 C 12.870000000000001 34.949999999999996, 12.48 34.785, 13.5 35.099999999999994 C 14.91 35.58, 15.285 35.52, 16.32 36.06 C 16.98 36.66, 17.01 36.705, 17.64 37.26 C 18.240000000000002 37.769999999999996, 18.435000000000002 37.905, 18.84 38.28 C 19.049999999999997 38.519999999999996, 19.064999999999998 38.474999999999994, 19.259999999999998 38.76 C 19.439999999999998 39.09, 19.53 39.255, 19.62 39.42 L 19.62 39.42" fill="none" stroke="black" stroke-width="5"></path></svg>