<svg xmlns="http://www.w3.org/2000/svg" viewBox="10.65999984741211 6.420000076293945 18.333332061767578 37.3266658782959" width="18.333332061767578" height="37.3266658782959"><path d="M 16.44 42.36 C 16.23 41.370000000000005, 16.395 41.835, 16.02 40.38 C 15.48 38.46, 15.360000000000001 37.92, 14.940000000000001 36.54 C 14.64 35.7, 14.715 35.79, 14.34 34.86 C 13.89 33.84, 13.8 33.795, 13.440000000000001 32.82 C 13.17 31.89, 13.139999999999999 31.98, 12.899999999999999 30.96 C 12.69 29.85, 12.705 29.835, 12.48 28.740000000000002 C 12.24 27.66, 12.195 27.555, 12 26.58 C 11.85 25.709999999999997, 11.774999999999999 25.604999999999997, 11.7 24.839999999999996 C 11.7 24.18, 11.7 24.104999999999997, 11.7 23.52 C 11.7 23.009999999999998, 11.61 23.115000000000002, 11.7 22.5 C 11.879999999999999 21.78, 11.849999999999998 21.63, 12.059999999999999 21.06 C 12.299999999999999 20.64, 12.165 20.625, 12.54 20.22 C 13.049999999999999 19.83, 13.094999999999999 19.770000000000003, 13.559999999999999 19.44 C 13.979999999999999 19.17, 13.994999999999997 19.095, 14.399999999999999 18.9 C 14.79 18.78, 14.79 18.72, 15.18 18.66 C 15.57 18.66, 15.540000000000001 18.66, 15.96 18.66 C 16.41 18.66, 16.259999999999998 18.66, 16.86 18.66 C 17.61 18.66, 17.549999999999997 18.66, 18.36 18.66 C 19.23 18.66, 19.305 18.66, 20.1 18.66 C 20.82 18.66, 20.73 18.66, 21.54 18.66 C 22.439999999999998 18.66, 22.53 18.705, 23.34 18.66 C 24.060000000000002 18.57, 24.090000000000003 18.69, 24.78 18.48 C 25.439999999999998 18.15, 25.589999999999996 18.12, 26.099999999999998 17.82 C 26.46 17.55, 26.505 17.535000000000004, 26.82 17.28 C 27.09 17.04, 27.134999999999998 17.129999999999995, 27.36 16.799999999999997 C 27.54 16.38, 27.57 16.41, 27.72 15.96 C 27.84 15.48, 27.9 15.465, 27.96 15 C 27.96 14.55, 27.96 14.655000000000001, 27.96 14.100000000000001 C 27.96 13.440000000000001, 28.035 13.469999999999999, 27.96 12.78 C 27.810000000000002 12.059999999999999, 27.795 11.865, 27.660000000000004 11.34 C 27.540000000000003 11.01, 27.630000000000003 11.055, 27.42 10.68 C 27.12 10.26, 27.18 10.305, 26.82 9.84 C 26.4 9.33, 26.52 9.285, 25.98 8.82 C 25.32 8.4, 25.350000000000005 8.31, 24.660000000000004 7.98 C 23.94 7.74, 23.775 7.635, 23.22 7.5 C 22.83 7.47, 22.935000000000002 7.455, 22.44 7.4399999999999995 C 21.840000000000003 7.4399999999999995, 21.900000000000002 7.395, 21.240000000000002 7.4399999999999995 C 20.52 7.529999999999999, 20.324999999999996 7.529999999999999, 19.799999999999997 7.62 C 19.47 7.710000000000001, 19.35 7.74, 19.14 7.800000000000001 C 19.05 7.83, 19.005000000000003 7.845000000000001, 18.96 7.86 L 18.96 7.86" fill="none" stroke="black" stroke-width="5"></path><path d="M 13.74 42.72 C 15.420000000000002 42.72, 15.555000000000001 42.78, 17.1 42.72 C 18.509999999999998 42.6, 18.599999999999998 42.58500000000001, 19.919999999999998 42.480000000000004 C 21.15 42.39, 21.404999999999998 42.39, 22.38 42.3 C 23.1 42.209999999999994, 23.205000000000002 42.209999999999994, 23.82 42.12 C 24.33 42.03, 24.419999999999995 41.985, 24.839999999999996 41.94 C 25.169999999999998 41.94, 25.259999999999998 41.94, 25.5 41.94 C 25.65 41.94, 25.694999999999997 41.94, 25.799999999999997 41.94 L 25.92 41.94" fill="none" stroke="black" stroke-width="5"></path></svg>