<svg xmlns="http://www.w3.org/2000/svg" viewBox="10.4399995803833 1.940000057220459 22.69333267211914 40.339998722076416" width="22.69333267211914" height="40.339998722076416"><path d="M 12.96 2.94 C 12.72 3.84, 12.855 3.15, 12.48 4.74 C 11.969999999999999 7.0200000000000005, 11.715 7.305000000000001, 11.459999999999999 9.3 C 11.459999999999999 11.010000000000002, 11.459999999999999 11.010000000000002, 11.459999999999999 12.72 C 11.459999999999999 14.43, 11.415 14.22, 11.459999999999999 16.14 C 11.55 18.27, 11.43 18.689999999999998, 11.64 20.4 C 11.969999999999999 21.689999999999998, 11.939999999999998 22.035, 12.299999999999999 22.98 C 12.690000000000001 23.58, 12.615000000000002 23.82, 13.080000000000002 24.18 C 13.620000000000001 24.3, 13.5 24.375, 14.16 24.42 C 14.940000000000001 24.39, 14.925 24.585, 15.72 24.36 C 16.53 23.939999999999998, 16.59 24.09, 17.34 23.52 C 18.03 22.8, 18.27 22.755000000000003, 18.72 22.080000000000002 C 18.93 21.450000000000003, 18.945 21.450000000000003, 19.14 20.82 C 19.32 20.189999999999998, 19.35 20.265, 19.5 19.56 C 19.62 18.78, 19.62 18.705, 19.740000000000002 18 C 19.86 17.37, 19.875 17.175000000000004, 19.98 16.740000000000002 C 20.07 16.5, 20.115000000000002 16.424999999999997, 20.16 16.259999999999998 C 20.16 16.17, 20.16 16.125, 20.16 16.080000000000002 C 20.16 16.080000000000002, 20.16 15.945000000000002, 20.16 16.080000000000002 C 20.16 16.35, 20.16 16.215, 20.16 16.62 C 20.16 17.160000000000004, 20.16 17.160000000000004, 20.16 17.700000000000003 C 20.16 18.240000000000002, 20.13 18.285000000000004, 20.16 18.78 C 20.22 19.23, 20.1 19.2, 20.28 19.68 C 20.58 20.19, 20.4 20.085, 20.88 20.700000000000003 C 21.54 21.42, 21.750000000000004 21.675, 22.200000000000003 22.14 C 22.44 22.35, 22.35 22.305, 22.68 22.56 C 23.1 22.86, 23.1 22.905, 23.52 23.16 C 23.939999999999998 23.37, 24 23.475, 24.36 23.580000000000002 C 24.66 23.580000000000002, 24.615000000000002 23.580000000000002, 24.96 23.580000000000002 C 25.35 23.580000000000002, 25.245 23.535000000000004, 25.740000000000002 23.580000000000002 C 26.340000000000003 23.67, 26.295 23.715, 26.94 23.759999999999998 C 27.630000000000003 23.759999999999998, 27.705 23.804999999999996, 28.32 23.759999999999998 C 28.86 23.67, 28.755000000000003 23.835, 29.400000000000002 23.580000000000002 C 30.150000000000002 23.160000000000004, 30.375000000000004 23.130000000000003, 30.900000000000002 22.740000000000002 C 31.200000000000003 22.380000000000003, 31.23 22.515, 31.5 22.02 C 31.740000000000002 21.39, 31.830000000000002 21.314999999999998, 31.98 20.759999999999998 C 32.04 20.279999999999998, 32.06999999999999 20.339999999999996, 32.099999999999994 19.799999999999997 C 32.099999999999994 19.2, 32.099999999999994 19.11, 32.099999999999994 18.6 C 32.099999999999994 18.18, 32.175 18.134999999999998, 32.099999999999994 17.759999999999998 C 31.949999999999996 17.43, 32.22 17.46, 31.799999999999997 17.1 C 31.11 16.71, 31.17 16.59, 30.42 16.32 C 29.61 16.17, 29.505 16.14, 28.799999999999997 16.02 C 28.199999999999996 15.93, 28.095 15.885, 27.599999999999998 15.84 C 27.21 15.84, 27.225 15.78, 26.82 15.84 C 26.4 15.96, 26.22 15.990000000000002, 25.98 16.080000000000002 C 25.92 16.14, 25.89 16.17, 25.86 16.200000000000003 L 25.86 16.200000000000003" fill="none" stroke="black" stroke-width="5"></path><path d="M 23.64 22.919999999999998 C 23.64 23.310000000000002, 23.64 23.19, 23.64 23.700000000000003 C 23.64 24.330000000000002, 23.64 24.360000000000003, 23.64 24.96 C 23.64 25.53, 23.64 25.38, 23.64 26.099999999999998 C 23.64 26.97, 23.67 26.834999999999997, 23.64 27.839999999999996 C 23.58 28.979999999999997, 23.805 28.949999999999996, 23.52 30.119999999999997 C 23.009999999999998 31.319999999999997, 22.92 31.619999999999997, 22.5 32.519999999999996 C 22.17 33.12, 22.425 32.849999999999994, 21.84 33.72 C 21 34.86, 20.91 35.055, 20.16 36 C 19.5 36.75, 19.515 36.81, 18.84 37.5 C 18.15 38.129999999999995, 18.405 38.084999999999994, 17.46 38.76 C 16.259999999999998 39.480000000000004, 16.14 39.63, 15.059999999999999 40.2 C 14.1 40.620000000000005, 13.754999999999999 40.769999999999996, 13.14 41.04 C 12.870000000000001 41.16, 12.735000000000001 41.22, 12.600000000000001 41.28 L 12.600000000000001 41.28" fill="none" stroke="black" stroke-width="5"></path><path d="M 20.1 36.900000000000006 C 20.64 36.900000000000006, 20.535 36.900000000000006, 21.18 36.900000000000006 C 21.93 36.900000000000006, 21.6 37.05000000000001, 22.68 36.900000000000006 C 24.09 36.6, 24.27 36.495, 25.5 36.3 C 26.549999999999997 36.209999999999994, 26.714999999999996 36.165, 27.599999999999998 36.12 C 28.32 36.12, 28.529999999999998 36.12, 29.04 36.12 C 29.34 36.12, 29.325000000000003 36.105, 29.64 36.12 C 29.97 36.15, 30.104999999999997 36.165, 30.299999999999997 36.18 L 30.42 36.18" fill="none" stroke="black" stroke-width="5"></path></svg>