<svg xmlns="http://www.w3.org/2000/svg" viewBox="12.306666374206543 9.069123268127441 15.960000038146973 34.710875511169434" width="15.960000038146973" height="34.710875511169434"><path d="M 17.1 38.7 C 16.740000000000002 37.800000000000004, 16.77 37.980000000000004, 16.38 36.900000000000006 C 15.959999999999999 35.64, 15.959999999999999 35.7, 15.54 34.38 C 15.120000000000001 33, 15.030000000000001 32.805, 14.700000000000001 31.619999999999997 C 14.46 30.63, 14.430000000000001 30.57, 14.22 29.64 C 14.04 28.770000000000003, 13.995 28.740000000000002, 13.86 27.900000000000002 C 13.77 27.090000000000003, 13.77 26.955000000000002, 13.68 26.28 C 13.59 25.740000000000002, 13.59 25.815000000000005, 13.5 25.200000000000003 C 13.41 24.51, 13.365 24.585, 13.32 23.82 C 13.32 22.98, 13.29 22.755000000000003, 13.32 22.14 C 13.38 21.75, 13.350000000000001 21.705, 13.440000000000001 21.36 C 13.56 21.06, 13.575 21, 13.68 20.759999999999998 C 13.77 20.58, 13.649999999999999 20.654999999999998, 13.86 20.4 C 14.19 20.07, 14.219999999999999 20.01, 14.52 19.740000000000002 C 14.79 19.53, 14.715 19.53, 15.059999999999999 19.32 C 15.479999999999999 19.11, 15.54 19.034999999999997, 15.899999999999999 18.9 C 16.2 18.84, 16.035 18.885, 16.5 18.78 C 17.13 18.630000000000003, 17.099999999999998 18.555, 17.759999999999998 18.48 C 18.45 18.48, 18.48 18.48, 19.14 18.48 C 19.77 18.48, 19.86 18.48, 20.4 18.48 C 20.849999999999998 18.48, 20.729999999999997 18.48, 21.299999999999997 18.48 C 21.99 18.48, 22.095 18.48, 22.68 18.48 C 23.16 18.48, 23.175 18.48, 23.64 18.48 C 24.09 18.48, 24.045 18.525000000000002, 24.54 18.48 C 25.08 18.39, 25.214999999999996 18.419999999999998, 25.619999999999997 18.299999999999997 C 25.89 18.15, 25.950000000000003 18.21, 26.160000000000004 18 C 26.310000000000002 17.73, 26.295 17.76, 26.46 17.46 C 26.64 17.13, 26.655 17.159999999999997, 26.82 16.799999999999997 C 26.97 16.409999999999997, 27.014999999999997 16.365, 27.119999999999997 16.02 C 27.18 15.719999999999999, 27.21 15.839999999999998, 27.240000000000002 15.419999999999998 C 27.240000000000002 14.879999999999999, 27.240000000000002 14.805, 27.240000000000002 14.34 C 27.240000000000002 13.95, 27.300000000000004 13.95, 27.240000000000002 13.559999999999999 C 27.12 13.169999999999998, 27.3 13.274999999999999, 27 12.78 C 26.52 12.18, 26.445 12.03, 26.04 11.58 C 25.71 11.280000000000001, 25.875000000000004 11.31, 25.380000000000003 10.98 C 24.72 10.620000000000001, 24.705 10.485, 24.06 10.26 C 23.43 10.17, 23.369999999999997 10.125, 22.799999999999997 10.08 C 22.29 10.08, 22.26 10.065, 21.78 10.08 C 21.33 10.11, 21.345 10.005, 20.88 10.14 C 20.4 10.38, 20.205 10.485000000000001, 19.919999999999998 10.620000000000001 C 19.83 10.65, 19.785 10.665, 19.740000000000002 10.68 C 19.740000000000002 10.68, 19.740000000000002 10.68, 19.740000000000002 10.68 L 19.740000000000002 10.68" fill="none" stroke="black" stroke-width="5"></path><path d="M 13.440000000000001 38.64 C 14.190000000000001 38.52, 14.220000000000002 38.50500000000001, 14.940000000000001 38.400000000000006 C 15.63 38.31, 15.540000000000001 38.265, 16.32 38.22 C 17.189999999999998 38.22, 16.919999999999998 38.22, 18.06 38.22 C 19.47 38.22, 19.544999999999998 38.22, 20.88 38.22 C 22.14 38.22, 22.529999999999998 38.22, 23.4 38.22 C 23.88 38.22, 23.88 38.22, 24.36 38.22 C 24.84 38.22, 25.08 38.22, 25.32 38.22 C 25.32 38.22, 25.245 38.22, 25.32 38.22 L 25.619999999999997 38.22" fill="none" stroke="black" stroke-width="5"></path><path d="M 14.34 42.78 C 16.11 42.66, 16.41 42.6, 17.88 42.54 C 19.049999999999997 42.54, 19.229999999999997 42.54, 20.22 42.54 C 21.03 42.54, 20.88 42.54, 21.84 42.54 C 22.95 42.54, 23.025 42.54, 24.06 42.54 C 25.02 42.54, 25.245 42.54, 25.98 42.54 C 26.490000000000002 42.54, 26.7 42.54, 27 42.54 C 27.09 42.54, 27.134999999999998 42.54, 27.18 42.54 L 27.18 42.54" fill="none" stroke="black" stroke-width="5"></path></svg>