<svg xmlns="http://www.w3.org/2000/svg" viewBox="9.719999313354492 6.939634799957275 18.52666664123535 37.693695068359375" width="18.52666664123535" height="37.693695068359375"><path d="M 18.54 42.900000000000006 C 17.1 42.900000000000006, 16.845 42.855000000000004, 15.66 42.900000000000006 C 14.73 42.99, 14.52 42.99, 13.799999999999999 43.08 C 13.29 43.17, 13.035 43.214999999999996, 12.78 43.26 C 12.78 43.26, 12.78 43.26, 12.78 43.26 C 12.78 43.26, 12.899999999999999 43.214999999999996, 12.78 43.26 C 12.54 43.349999999999994, 12.599999999999998 43.394999999999996, 12.299999999999999 43.44 C 11.94 43.44, 11.76 43.44, 11.58 43.44 C 11.58 43.44, 11.58 43.44, 11.58 43.44 C 11.58 43.44, 11.58 43.44, 11.58 43.44 C 11.58 43.44, 11.64 43.44, 11.58 43.44 C 11.46 43.44, 11.4 43.875, 11.34 43.44 C 11.34 42.57, 11.385 42.585, 11.34 41.7 C 11.25 40.800000000000004, 11.205 41.05500000000001, 11.16 39.900000000000006 C 11.16 38.49, 11.205 38.535, 11.16 37.08 C 11.07 35.58, 11.085 35.849999999999994, 10.98 34.08 C 10.86 32.04, 10.8 31.935000000000002, 10.74 30 C 10.74 28.169999999999998, 10.74 27.824999999999996, 10.74 26.339999999999996 C 10.74 25.199999999999996, 10.695 25.424999999999997, 10.74 24.06 C 10.83 22.47, 10.74 22.365, 10.92 20.88 C 11.19 19.5, 11.204999999999998 19.185000000000002, 11.459999999999999 18.12 C 11.7 17.37, 11.684999999999999 17.25, 11.94 16.62 C 12.21 16.11, 12.285 15.915000000000003, 12.48 15.600000000000001 C 12.600000000000001 15.48, 12.420000000000002 15.33, 12.72 15.36 C 13.2 15.54, 13.095 15.405000000000001, 13.68 15.72 C 14.37 16.17, 14.459999999999997 16.14, 15.059999999999999 16.62 C 15.57 17.130000000000003, 15.600000000000001 16.905, 16.080000000000002 17.64 C 16.53 18.6, 16.59 18.15, 16.98 19.56 C 17.310000000000002 21.42, 17.4 21.645000000000003, 17.64 23.28 C 17.79 24.689999999999998, 17.835 25.229999999999997, 17.94 26.099999999999998 C 18 26.43, 18.03 26.595, 18.06 26.759999999999998 C 18.06 26.759999999999998, 18.06 26.759999999999998, 18.06 26.759999999999998 C 18.06 26.759999999999998, 18.06 27, 18.06 26.759999999999998 C 18.06 26.279999999999998, 18.06 26.519999999999996, 18.06 25.799999999999997 C 18.06 24.839999999999996, 18.014999999999997 24.974999999999998, 18.06 23.88 C 18.15 22.65, 18.075000000000003 22.56, 18.240000000000002 21.419999999999998 C 18.48 20.369999999999997, 18.465 20.189999999999998, 18.72 19.32 C 18.99 18.630000000000003, 19.004999999999995 18.525000000000002, 19.259999999999998 17.94 C 19.5 17.46, 19.5 17.355, 19.740000000000002 16.98 C 19.98 16.71, 19.785 16.635, 20.22 16.44 C 20.85 16.32, 20.85 16.215000000000003, 21.48 16.200000000000003 C 22.11 16.29, 22.125 16.335, 22.740000000000002 16.38 C 23.340000000000003 16.38, 23.385 16.544999999999998, 23.94 16.38 C 24.450000000000003 16.05, 24.525000000000002 16.14, 24.96 15.72 C 25.32 15.21, 25.35 15.285000000000002, 25.68 14.700000000000001 C 25.98 14.04, 26.115000000000002 14.024999999999999, 26.28 13.379999999999999 C 26.31 12.75, 26.369999999999997 12.9, 26.339999999999996 12.120000000000001 C 26.25 11.190000000000001, 26.46 10.965, 26.160000000000004 10.26 C 25.650000000000002 9.780000000000001, 25.650000000000002 9.72, 25.14 9.3 C 24.63 8.940000000000001, 24.794999999999998 8.879999999999999, 24.119999999999997 8.58 C 23.28 8.34, 23.19 8.250000000000002, 22.44 8.100000000000001 C 21.78 8.040000000000001, 21.78 7.860000000000001, 21.12 7.98 C 20.46 8.280000000000001, 20.249999999999996 8.325, 19.799999999999997 8.58 C 19.56 8.79, 19.5 8.805, 19.32 9 C 19.200000000000003 9.18, 19.14 9.27, 19.080000000000002 9.36 L 19.080000000000002 9.36" fill="none" stroke="black" stroke-width="5"></path><path d="M 23.04 16.200000000000003 C 23.189999999999998 16.29, 22.905 15.96, 23.34 16.38 C 24.060000000000002 17.13, 24.135 16.875, 24.78 17.88 C 25.35 19.14, 25.44 18.63, 25.92 20.4 C 26.310000000000002 22.68, 26.475 23.145, 26.700000000000003 24.96 C 26.76 26.310000000000002, 26.685000000000002 26.025000000000006, 26.82 27.660000000000004 C 27.03 29.580000000000002, 27.135 29.79, 27.240000000000002 31.5 C 27.240000000000002 33, 27.240000000000002 33.105000000000004, 27.240000000000002 34.5 C 27.240000000000002 35.79, 27.255000000000003 36.045, 27.240000000000002 37.08 C 27.21 37.86, 27.255 37.769999999999996, 27.18 38.64 C 27.060000000000002 39.6, 27.060000000000002 39.765, 26.94 40.56 C 26.82 41.19, 26.76 41.475, 26.700000000000003 41.82 C 26.700000000000003 41.879999999999995, 26.700000000000003 41.864999999999995, 26.700000000000003 41.94 C 26.700000000000003 42.03, 26.700000000000003 42.044999999999995, 26.700000000000003 42.12 C 26.700000000000003 42.18, 26.700000000000003 42.135000000000005, 26.700000000000003 42.24 C 26.700000000000003 42.39, 26.700000000000003 42.465, 26.700000000000003 42.54 L 26.700000000000003 42.54" fill="none" stroke="black" stroke-width="5"></path></svg>