<svg xmlns="http://www.w3.org/2000/svg" viewBox="9.5600004196167 1.7000000476837158 20.5600004196167 39.799999952316284" width="20.5600004196167" height="39.799999952316284"><path d="M 14.399999999999999 2.7 C 14.399999999999999 3.09, 14.699999999999998 2.175, 14.399999999999999 3.4799999999999995 C 13.8 5.699999999999999, 13.830000000000002 5.505, 13.200000000000001 7.92 C 12.54 10.530000000000001, 12.344999999999999 11.040000000000001, 11.879999999999999 13.14 C 11.61 14.73, 11.64 14.34, 11.34 16.32 C 11.01 18.689999999999998, 10.8 19.259999999999998, 10.68 21.06 C 10.77 22.29, 10.559999999999999 22.695, 10.86 23.52 C 11.37 23.939999999999998, 11.34 24.06, 11.879999999999999 24.36 C 12.45 24.54, 12.239999999999998 24.57, 13.02 24.72 C 14.01 24.84, 14.085 25.08, 15 24.96 C 15.84 24.6, 15.915 24.855000000000004, 16.68 24.240000000000002 C 17.369999999999997 23.37, 17.49 23.61, 18.06 22.5 C 18.509999999999998 21.15, 18.630000000000003 20.79, 18.96 19.799999999999997 C 19.17 19.169999999999998, 19.23 19.064999999999998, 19.38 18.54 C 19.47 18.12, 19.515 17.910000000000004, 19.56 17.700000000000003 C 19.56 17.700000000000003, 19.56 17.700000000000003, 19.56 17.700000000000003 C 19.56 17.700000000000003, 19.56 17.535000000000004, 19.56 17.700000000000003 C 19.56 18.03, 19.56 17.865000000000002, 19.56 18.36 C 19.56 19.02, 19.56 18.945, 19.56 19.68 C 19.56 20.49, 19.455 20.58, 19.56 21.299999999999997 C 19.77 21.93, 19.53 21.9, 19.98 22.56 C 20.67 23.25, 20.58 23.400000000000002, 21.36 23.94 C 22.23 24.33, 22.14 24.479999999999997, 23.1 24.72 C 24.150000000000002 24.810000000000002, 24.255000000000003 24.915, 25.200000000000003 24.900000000000002 C 26.040000000000003 24.78, 26.085 24.870000000000005, 26.880000000000003 24.660000000000004 C 27.630000000000003 24.36, 27.885000000000005 24.42, 28.380000000000003 24.06 C 28.62 23.64, 28.68 23.7, 28.86 23.22 C 28.979999999999997 22.68, 29.04 22.740000000000002, 29.099999999999998 22.14 C 29.099999999999998 21.48, 29.099999999999998 21.495, 29.099999999999998 20.82 C 29.099999999999998 20.130000000000003, 29.144999999999996 19.950000000000003, 29.099999999999998 19.44 C 29.009999999999998 19.11, 29.130000000000003 19.11, 28.92 18.78 C 28.59 18.450000000000003, 28.784999999999997 18.435000000000002, 28.259999999999998 18.12 C 27.54 17.82, 27.465 17.715, 26.82 17.52 C 26.25 17.43, 26.115000000000002 17.43, 25.68 17.34 C 25.38 17.25, 25.47 17.205, 25.08 17.16 C 24.599999999999998 17.16, 24.389999999999997 17.145, 24.119999999999997 17.16 C 24.06 17.189999999999998, 24.075 17.189999999999998, 24 17.22 L 23.82 17.28" fill="none" stroke="black" stroke-width="5"></path><path d="M 18.66 21.9 C 18.75 22.349999999999998, 18.75 22.184999999999995, 18.84 22.799999999999997 C 18.93 23.58, 18.975 23.61, 19.02 24.36 C 19.02 25.08, 19.02 24.735, 19.02 25.799999999999997 C 19.02 27.209999999999997, 19.08 27.36, 19.02 28.619999999999997 C 18.9 29.729999999999997, 18.885 30.044999999999995, 18.78 30.839999999999996 C 18.69 31.319999999999997, 18.720000000000002 31.394999999999996, 18.6 31.799999999999997 C 18.45 32.129999999999995, 18.75 31.845, 18.299999999999997 32.46 C 17.549999999999997 33.36, 17.804999999999996 33.045, 16.799999999999997 34.26 C 15.54 35.79, 15.209999999999997 36.21, 14.28 37.32 C 13.68 38.010000000000005, 13.545000000000002 38.205000000000005, 13.080000000000002 38.7 C 12.75 39, 12.974999999999998 38.879999999999995, 12.419999999999998 39.3 C 11.639999999999999 39.84, 11.294999999999998 40.095, 10.86 40.38 C 10.77 40.41, 10.754999999999999 40.41, 10.68 40.44 L 10.56 40.5" fill="none" stroke="black" stroke-width="5"></path></svg>