<svg xmlns="http://www.w3.org/2000/svg" viewBox="8.222709655761719 5 22.003957748413086 36.14469909667969" width="22.003957748413086" height="36.14469909667969"><path d="M 28.56 35.160000000000004 C 28.11 35.85, 28.410000000000004 35.805, 27.660000000000004 36.54 C 26.61 37.31999999999999, 26.775 37.44, 25.56 38.099999999999994 C 24.18 38.64, 24.074999999999996 38.76, 22.799999999999997 39.18 C 21.63 39.480000000000004, 21.495 39.585, 20.46 39.78 C 19.560000000000002 39.870000000000005, 19.635 39.870000000000005, 18.66 39.96 C 17.61 40.05, 17.61 40.17, 16.56 40.14 C 15.51 39.989999999999995, 15.57 40.245, 14.46 39.839999999999996 C 13.290000000000001 39.17999999999999, 13.14 39.254999999999995, 12.120000000000001 38.519999999999996 C 11.25 37.71, 11.024999999999999 37.75500000000001, 10.379999999999999 36.900000000000006 C 9.96 36, 9.825000000000001 36.16499999999999, 9.540000000000001 35.099999999999994 C 9.39 33.87, 9.3 33.825, 9.24 32.64 C 9.27 31.5, 9.15 31.29, 9.3 30.36 C 9.57 29.64, 9.6 29.415, 9.84 28.92 C 10.05 28.650000000000002, 9.795 28.650000000000006, 10.26 28.380000000000003 C 10.98 28.11, 10.95 27.974999999999998, 11.7 27.839999999999996 C 12.48 27.839999999999996, 12.39 27.764999999999993, 13.26 27.839999999999996 C 14.219999999999999 27.99, 14.205 27.825, 15.18 28.14 C 16.17 28.619999999999997, 16.35 28.724999999999998, 17.16 29.099999999999998 C 17.79 29.369999999999997, 17.445 29.295, 18.419999999999998 29.64 C 19.74 30.060000000000002, 19.695 30.18, 21.06 30.48 C 22.47 30.659999999999997, 22.634999999999998 30.749999999999996, 23.88 30.839999999999996 C 24.96 30.839999999999996, 25.259999999999998 30.944999999999993, 26.04 30.839999999999996 C 26.52 30.63, 26.52 30.9, 27 30.42 C 27.48 29.67, 27.72 29.67, 27.96 28.92 C 27.96 28.17, 28.200000000000003 28.635, 27.96 27.42 C 27.48 25.740000000000002, 27.63 25.68, 27 24.06 C 26.22 22.5, 26.160000000000004 22.200000000000003, 25.44 20.94 C 24.78 19.98, 24.824999999999996 20.115000000000002, 24.119999999999997 19.02 C 23.369999999999997 17.79, 23.265 17.549999999999997, 22.62 16.56 C 22.08 15.809999999999999, 21.884999999999998 15.569999999999999, 21.54 15.059999999999999 C 21.39 14.79, 21.315 14.655, 21.240000000000002 14.52 C 21.240000000000002 14.52, 21.240000000000002 14.52, 21.240000000000002 14.52 C 21.240000000000002 14.52, 21.240000000000002 14.52, 21.240000000000002 14.52 C 21.240000000000002 14.52, 21.015 14.415, 21.240000000000002 14.52 C 21.69 14.73, 21.555 14.685000000000002, 22.14 14.940000000000001 C 22.86 15.24, 22.515 15.27, 23.580000000000002 15.54 C 24.990000000000002 15.78, 25.290000000000003 15.989999999999998, 26.400000000000002 16.02 C 27.21 15.84, 27.375 16.08, 28.02 15.66 C 28.5 15, 28.71 15.06, 28.98 14.34 C 29.04 13.559999999999999, 29.07 13.62, 29.099999999999998 12.78 C 29.099999999999998 11.879999999999999, 29.384999999999998 11.895, 29.099999999999998 10.98 C 28.53 10.05, 28.650000000000002 9.96, 27.96 9.120000000000001 C 27.15 8.370000000000001, 27.389999999999997 8.280000000000001, 26.339999999999996 7.62 C 25.049999999999997 7.050000000000001, 24.779999999999998 6.885000000000001, 23.759999999999998 6.48 C 23.009999999999998 6.24, 23.054999999999996 6.0600000000000005, 22.259999999999998 6 C 21.42 6.12, 21.090000000000003 6.15, 20.580000000000002 6.24 C 20.4 6.300000000000001, 20.31 6.33, 20.22 6.36 L 20.22 6.36" fill="none" stroke="black" stroke-width="5"></path></svg>