<svg xmlns="http://www.w3.org/2000/svg" viewBox="11.432475090026855 6.413333415985107 19.447524070739746 39.35333299636841" width="19.447524070739746" height="39.35333299636841"><path d="M 13.32 25.68 C 12.99 24.42, 12.870000000000001 24.255000000000003, 12.66 23.16 C 12.57 22.229999999999997, 12.525 22.154999999999998, 12.48 21.299999999999997 C 12.48 20.52, 12.45 20.505000000000003, 12.48 19.740000000000002 C 12.540000000000001 18.990000000000002, 12.270000000000001 19.005000000000003, 12.600000000000001 18.240000000000002 C 13.2 17.46, 13.29 17.205, 13.799999999999999 16.68 C 14.219999999999999 16.41, 13.98 16.32, 14.64 16.14 C 15.540000000000001 16.05, 15.615000000000002 16.005000000000003, 16.44 15.96 C 17.19 15.96, 17.025000000000002 15.96, 17.94 15.96 C 19.020000000000003 15.96, 19.035 15.96, 20.1 15.96 C 21.150000000000002 15.96, 21.03 15.96, 22.200000000000003 15.96 C 23.490000000000002 15.96, 23.520000000000003 16.035, 24.78 15.96 C 26.01 15.81, 26.145000000000003 16.125, 27.240000000000002 15.66 C 28.200000000000003 14.88, 28.575000000000003 14.790000000000003, 29.160000000000004 14.100000000000001 C 29.37 13.5, 29.475 13.604999999999999, 29.58 12.899999999999999 C 29.58 12.09, 29.64 12, 29.58 11.28 C 29.459999999999997 10.649999999999999, 29.714999999999996 10.709999999999999, 29.339999999999996 10.02 C 28.709999999999997 9.27, 28.559999999999995 9.03, 28.08 8.52 C 27.75 8.25, 27.885 8.25, 27.42 7.98 C 26.82 7.71, 26.82 7.574999999999999, 26.22 7.4399999999999995 C 25.619999999999997 7.4399999999999995, 25.634999999999998 7.4399999999999995, 25.02 7.4399999999999995 C 24.39 7.4399999999999995, 24.224999999999998 7.379999999999999, 23.759999999999998 7.4399999999999995 C 23.46 7.56, 23.355 7.59, 23.16 7.68 C 23.07 7.74, 23.025 7.7700000000000005, 22.98 7.800000000000001 L 22.98 7.800000000000001" fill="none" stroke="black" stroke-width="5"></path><path d="M 25.380000000000003 16.259999999999998 C 26.130000000000003 16.89, 26.235000000000003 16.77, 26.880000000000003 17.52 C 27.42 18.39, 27.57 18.209999999999997, 27.96 19.259999999999998 C 28.200000000000003 20.49, 28.305 20.685, 28.44 21.72 C 28.47 22.56, 28.485 22.695, 28.5 23.4 C 28.5 23.97, 28.545 24.104999999999997, 28.5 24.54 C 28.41 24.84, 28.365000000000002 24.945, 28.32 25.14 C 28.32 25.23, 28.32 25.275, 28.32 25.32 L 28.32 25.32" fill="none" stroke="black" stroke-width="5"></path><path d="M 19.62 16.200000000000003 C 19.62 17.25, 19.62 16.784999999999997, 19.62 18.299999999999997 C 19.62 20.279999999999998, 19.68 19.095, 19.62 22.259999999999998 C 19.5 26.61, 19.439999999999998 27.509999999999998, 19.38 30.96 C 19.38 33.510000000000005, 19.38 34.14, 19.38 36.06 C 19.38 37.35, 19.38 37.29, 19.38 38.64 C 19.38 40.05, 19.32 40.394999999999996, 19.38 41.46 C 19.5 42.18000000000001, 19.5 42.37500000000001, 19.62 42.900000000000006 C 19.740000000000002 43.230000000000004, 19.725 43.230000000000004, 19.86 43.56 C 20.009999999999998 43.89, 19.98 43.95, 20.16 44.22 C 20.37 44.43, 20.400000000000002 44.535, 20.580000000000002 44.64 C 20.73 44.64, 20.759999999999998 44.64, 20.88 44.64 C 20.97 44.64, 21.015 44.64, 21.06 44.64 C 21.06 44.64, 21.06 44.64, 21.06 44.64 C 21.06 44.64, 21.014999999999997 44.64, 21.06 44.64 C 21.15 44.64, 21.090000000000003 44.925, 21.240000000000002 44.64 C 21.450000000000003 44.07, 21.51 43.980000000000004, 21.66 43.5 C 21.75 43.11, 21.69 43.23, 21.84 42.72 C 22.049999999999997 42.09, 22.034999999999997 42.09, 22.259999999999998 41.46 C 22.5 40.83, 22.515 40.800000000000004, 22.740000000000002 40.2 C 22.950000000000003 39.63, 22.95 39.58500000000001, 23.16 39.06 C 23.37 38.58, 23.085 38.73, 23.580000000000002 38.099999999999994 C 24.36 37.31999999999999, 24.135 37.155, 25.14 36.54 C 26.369999999999997 36.09, 26.654999999999998 35.88, 27.599999999999998 35.64 C 28.259999999999998 35.61, 28.425 35.595, 28.92 35.58 C 29.25 35.58, 29.384999999999998 35.58, 29.58 35.58 C 29.64 35.58, 29.625 35.565, 29.700000000000003 35.58 C 29.790000000000003 35.61, 29.835 35.625, 29.880000000000003 35.64 L 29.880000000000003 35.64" fill="none" stroke="black" stroke-width="5"></path></svg>