<svg xmlns="http://www.w3.org/2000/svg" viewBox="2.2504820823669434 2.9544734954833984 25.648530960083008 41.54552459716797" width="25.648530960083008" height="41.54552459716797"><path d="M 9.899999999999999 43.5 C 9.03 41.76, 9.15 42.285, 8.16 40.019999999999996 C 7.05 37.23, 6.8999999999999995 37.29, 5.9399999999999995 34.44 C 5.13 31.529999999999998, 4.905 31.275, 4.32 28.619999999999997 C 3.96 26.22, 3.84 26.009999999999998, 3.5999999999999996 23.82 C 3.48 21.84, 3.4050000000000002 21.54, 3.3600000000000003 19.86 C 3.39 18.48, 3.0599999999999996 18.495, 3.42 17.1 C 4.11 15.690000000000001, 4.215000000000001 15.21, 4.800000000000001 14.28 C 5.28 13.829999999999998, 5.295 13.725, 5.76 13.379999999999999 C 6.21 13.139999999999999, 6.36 13.02, 6.66 12.899999999999999 C 6.81 12.899999999999999, 6.749999999999999 12.854999999999997, 6.959999999999999 12.899999999999999 C 7.2299999999999995 12.99, 7.2299999999999995 12.915000000000003, 7.5 13.080000000000002 C 7.7700000000000005 13.32, 7.695000000000001 13.184999999999999, 8.040000000000001 13.559999999999999 C 8.46 14.07, 8.459999999999999 13.920000000000002, 8.879999999999999 14.580000000000002 C 9.3 15.390000000000002, 9.375 15.435000000000002, 9.72 16.200000000000003 C 9.99 16.92, 10.02 16.8, 10.26 17.64 C 10.469999999999999 18.6, 10.455 18.419999999999998, 10.68 19.56 C 10.92 20.880000000000003, 10.95 21.120000000000005, 11.16 22.200000000000003 C 11.34 23.04, 11.415 23.265, 11.52 23.88 C 11.55 24.270000000000003, 11.565 24.465000000000003, 11.58 24.660000000000004 C 11.58 24.660000000000004, 11.58 24.660000000000004, 11.58 24.660000000000004 C 11.58 24.660000000000004, 11.565 24.645000000000003, 11.58 24.660000000000004 C 11.61 24.69, 11.625 24.915, 11.64 24.72 C 11.64 24.299999999999997, 11.64 24.404999999999998, 11.64 23.88 C 11.64 23.25, 11.64 23.205000000000002, 11.64 22.62 C 11.64 22.08, 11.595 22.125, 11.64 21.54 C 11.73 20.91, 11.655000000000001 20.955000000000002, 11.82 20.28 C 12.059999999999999 19.560000000000002, 12.014999999999999 19.515, 12.299999999999999 18.84 C 12.629999999999999 18.21, 12.705 18, 12.96 17.580000000000002 C 13.14 17.37, 13.110000000000001 17.355, 13.32 17.16 C 13.559999999999999 16.979999999999997, 13.274999999999999 16.904999999999998, 13.799999999999999 16.799999999999997 C 14.61 16.77, 14.579999999999998 16.755000000000003, 15.419999999999998 16.740000000000002 C 16.29 16.740000000000002, 16.125 16.740000000000002, 17.16 16.740000000000002 C 18.36 16.740000000000002, 18.33 16.695000000000004, 19.56 16.740000000000002 C 20.82 16.83, 20.985 16.919999999999998, 22.080000000000002 16.919999999999998 C 23.01 16.83, 23.175 17.085, 23.94 16.740000000000002 C 24.54 16.14, 24.645 16.155, 25.14 15.54 C 25.53 14.91, 25.53 15.03, 25.92 14.28 C 26.310000000000002 13.41, 26.46 13.575, 26.700000000000003 12.54 C 26.790000000000003 11.34, 26.955000000000002 11.265, 26.880000000000003 10.14 C 26.64 9.09, 26.76 9, 26.400000000000002 8.040000000000001 C 25.92 7.170000000000001, 25.92 6.975000000000001, 25.44 6.300000000000001 C 24.96 5.82, 25.125 5.79, 24.48 5.34 C 23.67 4.92, 23.73 4.8149999999999995, 22.86 4.5 C 21.93 4.29, 21.78 4.2, 21 4.08 C 20.37 4.050000000000001, 20.520000000000003 3.8550000000000004, 19.740000000000002 4.0200000000000005 C 18.810000000000002 4.380000000000001, 18.6 4.3950000000000005, 17.88 4.74 C 17.369999999999997 5.07, 17.279999999999998 5.07, 16.86 5.4 C 16.53 5.73, 16.365000000000002 5.8950000000000005, 16.200000000000003 6.0600000000000005 L 16.200000000000003 6.0600000000000005" fill="none" stroke="black" stroke-width="5"></path></svg>