<svg xmlns="http://www.w3.org/2000/svg" viewBox="4.770046710968018 6.423299789428711 26.862659454345703 38.67669677734375" width="26.862659454345703" height="38.67669677734375"><path d="M 10.379999999999999 44.099999999999994 C 10.2 42.449999999999996, 10.59 43.47, 10.02 40.8 C 9.06 37.11, 8.97 37.17, 8.100000000000001 33.42 C 7.320000000000001 29.61, 7.050000000000001 29.115, 6.540000000000001 25.799999999999997 C 6.300000000000001 22.979999999999997, 6.24 22.395, 6.0600000000000005 20.16 C 5.94 18.509999999999998, 5.865 18.54, 5.82 16.86 C 5.85 15.15, 5.654999999999999 14.985000000000001, 5.88 13.440000000000001 C 6.300000000000001 12.06, 6.210000000000001 11.955, 6.720000000000001 10.68 C 7.32 9.51, 7.41 9.09, 7.92 8.34 C 8.34 8.01, 8.4 7.904999999999999, 8.76 7.68 C 9.059999999999999 7.56, 8.85 7.364999999999999, 9.36 7.4399999999999995 C 10.08 7.71, 10.155000000000001 7.59, 10.8 7.98 C 11.370000000000001 8.49, 11.295 8.31, 11.94 9 C 12.66 9.870000000000001, 12.704999999999998 9.27, 13.379999999999999 10.74 C 14.01 12.809999999999999, 14.145 12.6, 14.64 14.879999999999999 C 15 17.369999999999997, 15.135 17.759999999999998, 15.36 19.86 C 15.45 21.57, 15.45 22.155, 15.54 23.28 C 15.629999999999999 23.82, 15.675 24.09, 15.72 24.36 C 15.72 24.36, 15.690000000000001 24.33, 15.72 24.36 C 15.780000000000001 24.42, 15.795 24.42, 15.84 24.48 C 15.87 24.54, 15.854999999999999 24.57, 15.899999999999999 24.599999999999998 C 15.959999999999999 24.599999999999998, 15.194999999999999 24.794999999999998, 16.02 24.599999999999998 C 17.61 24.21, 17.655 24.15, 19.200000000000003 23.82 C 20.700000000000003 23.55, 21.210000000000004 23.415, 22.200000000000003 23.28 C 22.68 23.28, 22.53 23.28, 23.16 23.28 C 23.939999999999998 23.28, 24.029999999999998 23.28, 24.72 23.28 C 25.32 23.28, 25.53 23.28, 25.92 23.28 C 26.1 23.28, 26.115000000000002 23.28, 26.28 23.28 C 26.43 23.28, 26.235 23.310000000000002, 26.58 23.28 C 27.12 23.22, 27.075000000000003 23.295, 27.660000000000004 23.16 C 28.290000000000003 22.950000000000003, 28.35 23.160000000000004, 28.92 22.740000000000002 C 29.43 22.11, 29.580000000000002 22.365000000000002, 29.94 21.48 C 30.15 20.340000000000003, 30.195 20.415000000000003, 30.36 19.200000000000003 C 30.479999999999997 17.910000000000004, 30.72 17.715000000000003, 30.599999999999998 16.62 C 30.240000000000002 15.72, 30.450000000000003 15.615, 29.880000000000003 14.82 C 29.1 14.13, 29.055 13.89, 28.32 13.440000000000001 C 27.630000000000003 13.23, 27.78 13.215, 26.94 13.02 C 25.950000000000003 12.84, 26.04 12.690000000000001, 24.96 12.66 C 23.79 12.78, 23.490000000000002 12.674999999999999, 22.62 12.899999999999999 C 22.05 13.229999999999999, 21.765 13.395, 21.48 13.559999999999999 C 21.48 13.559999999999999, 21.525000000000002 13.514999999999999, 21.48 13.559999999999999 L 21.299999999999997 13.74" fill="none" stroke="black" stroke-width="5"></path><path d="M 27.18 23.88 C 27.96 25.74, 28.14 26.099999999999998, 28.740000000000002 27.599999999999998 C 29.16 28.740000000000002, 29.235 28.185000000000002, 29.58 29.880000000000003 C 29.849999999999998 32.13, 29.985 32.745000000000005, 30.119999999999997 34.38 C 30.119999999999997 35.400000000000006, 30.284999999999997 35.415, 30.119999999999997 36.42 C 29.79 37.410000000000004, 29.73 37.635000000000005, 29.46 38.400000000000006 C 29.25 38.940000000000005, 29.58 38.85000000000001, 29.04 39.480000000000004 C 28.169999999999998 40.2, 28.139999999999997 40.410000000000004, 27.299999999999997 40.92 C 26.49 41.22, 26.52 41.37, 25.68 41.519999999999996 C 24.810000000000002 41.519999999999996, 24.84 41.684999999999995, 23.94 41.519999999999996 C 23.01 41.19, 22.800000000000004 41.415, 22.080000000000002 40.86 C 21.57 40.08, 21.33 40.305, 21.06 39.3 C 21.03 38.06999999999999, 20.655 38.03999999999999, 21 36.839999999999996 C 21.72 35.67, 21.51 35.37, 22.44 34.5 C 23.58 33.93, 23.58 33.78, 24.72 33.36 C 25.86 33.09, 26.145 32.865, 27 32.82 C 27.57 33, 27.69 32.97, 28.14 33.18 C 28.47 33.42, 28.514999999999997 33.405, 28.799999999999997 33.660000000000004 C 29.04 33.93000000000001, 29.025 33.94500000000001, 29.28 34.2 C 29.55 34.44, 29.64 34.515, 29.82 34.68 C 29.91 34.769999999999996, 29.955 34.815, 30 34.86 C 30 34.86, 30 34.86, 30 34.86 L 30 34.86" fill="none" stroke="black" stroke-width="5"></path></svg>