<svg xmlns="http://www.w3.org/2000/svg" viewBox="12.319999694824219 3.5580592155456543 21.92667007446289 41.901939868927" width="21.92667007446289" height="41.901939868927"><path d="M 13.32 31.14 C 14.4 31.14, 13.245000000000001 31.14, 15.48 31.14 C 18.869999999999997 31.14, 19.394999999999996 31.14, 22.259999999999998 31.14 C 24.6 31.14, 25.365000000000002 31.14, 26.94 31.14 C 27.75 31.14, 27.93 31.14, 28.56 31.14 C 29.009999999999998 31.14, 28.995 31.14, 29.46 31.14 C 29.94 31.14, 30 31.14, 30.42 31.14 C 30.78 31.14, 30.840000000000003 31.17, 31.14 31.14 C 31.38 31.08, 31.349999999999998 31.155, 31.619999999999997 31.02 C 31.919999999999998 30.81, 31.964999999999996 30.839999999999996, 32.22 30.599999999999998 C 32.43 30.33, 32.475 30.389999999999997, 32.64 30.06 C 32.760000000000005 29.67, 32.82 29.67, 32.88 29.28 C 32.88 28.89, 32.970000000000006 29.055, 32.88 28.5 C 32.7 27.78, 32.864999999999995 27.839999999999996, 32.519999999999996 27.06 C 32.01 26.22, 32.144999999999996 26.415000000000003, 31.5 25.380000000000003 C 30.72 24.15, 30.645000000000003 24, 29.94 22.919999999999998 C 29.310000000000002 21.99, 29.25 21.869999999999997, 28.68 21.06 C 28.17 20.369999999999997, 28.215000000000003 20.415, 27.660000000000004 19.68 C 27.060000000000002 18.9, 26.970000000000002 18.795, 26.46 18.12 C 26.04 17.55, 25.889999999999997 17.385, 25.619999999999997 16.98 C 25.5 16.740000000000002, 25.5 16.905, 25.380000000000003 16.5 C 25.26 15.93, 25.200000000000003 15.765, 25.14 15.36 C 25.14 15.12, 25.14 15.03, 25.14 14.879999999999999 C 25.14 14.82, 25.14 14.834999999999999, 25.14 14.76 C 25.14 14.670000000000002, 25.035 14.640000000000002, 25.14 14.580000000000002 C 25.35 14.55, 25.169999999999998 14.445, 25.56 14.52 C 26.130000000000003 14.7, 26.070000000000004 14.7, 26.700000000000003 14.879999999999999 C 27.39 15.059999999999999, 27.195 15.15, 28.08 15.24 C 29.16 15.24, 29.400000000000002 15.315, 30.240000000000002 15.24 C 30.840000000000003 15.09, 30.885 15.285000000000002, 31.44 14.940000000000001 C 31.950000000000003 14.4, 32.01 14.415, 32.46 13.86 C 32.85 13.29, 33.045 13.32, 33.24 12.72 C 33.24 12.09, 33.255 12.18, 33.24 11.459999999999999 C 33.21 10.649999999999999, 33.3 10.575, 33.18 9.84 C 32.97 9.18, 33.015 9.149999999999999, 32.76 8.52 C 32.46 7.92, 32.64 7.95, 32.160000000000004 7.32 C 31.5 6.66, 31.424999999999997 6.51, 30.839999999999996 6 C 30.33 5.640000000000001, 30.479999999999997 5.61, 29.82 5.28 C 29.01 4.98, 28.995000000000005 4.859999999999999, 28.200000000000003 4.68 C 27.42 4.62, 27.330000000000002 4.545, 26.64 4.5600000000000005 C 26.04 4.65, 25.86 4.635000000000001, 25.44 4.74 C 25.200000000000003 4.859999999999999, 25.080000000000002 4.92, 24.96 4.9799999999999995 L 24.96 4.9799999999999995" fill="none" stroke="black" stroke-width="5"></path><path d="M 20.94 35.82 C 19.950000000000003 35.82, 19.785 35.715, 18.96 35.82 C 18.3 36.03, 18.255000000000003 35.775000000000006, 17.64 36.24 C 17.07 36.96, 16.89 36.75, 16.5 37.68 C 16.29 38.82, 16.215000000000003 38.895, 16.080000000000002 39.96 C 16.020000000000003 40.95, 15.840000000000002 41.19, 15.96 41.94 C 16.259999999999998 42.45, 16.035 42.435, 16.56 42.96 C 17.31 43.5, 16.889999999999997 43.665, 18.06 44.04 C 19.65 44.25, 19.560000000000002 44.415, 21.240000000000002 44.46 C 23.01 44.34, 23.580000000000002 44.489999999999995, 24.78 44.22 C 25.41 43.8, 25.38 44.205, 26.04 43.38 C 26.73 42.150000000000006, 26.970000000000002 42.195, 27.42 40.92 C 27.63 39.6, 27.735 39.27, 27.839999999999996 38.28 C 27.839999999999996 37.620000000000005, 27.974999999999994 37.47, 27.839999999999996 36.96 C 27.569999999999997 36.6, 27.809999999999995 36.645, 27.299999999999997 36.24 C 26.549999999999997 35.79, 26.759999999999998 35.775, 25.799999999999997 35.339999999999996 C 24.63 34.92, 24.69 34.695, 23.46 34.5 C 22.17 34.53, 21.795 34.47, 20.88 34.56 C 20.339999999999996 34.71, 20.459999999999997 34.485, 19.799999999999997 34.86 C 19.02 35.46, 18.720000000000002 35.625, 18.240000000000002 36.06 C 18.060000000000002 36.33, 17.97 36.464999999999996, 17.88 36.599999999999994 L 17.88 36.599999999999994" fill="none" stroke="black" stroke-width="5"></path></svg>