<svg xmlns="http://www.w3.org/2000/svg" viewBox="10.579999923706055 5.539999961853027 25.30000114440918 37.845319747924805" width="25.30000114440918" height="37.845319747924805"><path d="M 11.58 7.74 C 12.69 7.7700000000000005, 12.569999999999999 7.785, 13.799999999999999 7.800000000000001 C 15.149999999999999 7.800000000000001, 15.105 7.815000000000001, 16.5 7.800000000000001 C 17.939999999999998 7.7700000000000005, 18.27 7.7700000000000005, 19.38 7.74 C 20.16 7.71, 20.1 7.755, 20.94 7.68 C 21.840000000000003 7.56, 21.855000000000004 7.545, 22.740000000000002 7.4399999999999995 C 23.61 7.35, 23.595 7.35, 24.48 7.26 C 25.380000000000003 7.17, 25.575000000000003 7.155, 26.28 7.08 C 26.79 7.02, 26.699999999999996 7.004999999999999, 27.299999999999997 6.959999999999999 C 27.99 6.93, 27.99 6.959999999999999, 28.68 6.8999999999999995 C 29.369999999999997 6.8100000000000005, 29.4 6.765000000000001, 30.06 6.720000000000001 C 30.689999999999998 6.720000000000001, 30.810000000000002 6.765000000000001, 31.32 6.720000000000001 C 31.709999999999997 6.630000000000001, 31.634999999999994 6.585000000000001, 32.099999999999994 6.540000000000001 C 32.64 6.540000000000001, 32.834999999999994 6.540000000000001, 33.18 6.540000000000001 C 33.33 6.540000000000001, 33.405 6.540000000000001, 33.480000000000004 6.540000000000001 L 33.480000000000004 6.540000000000001" fill="none" stroke="black" stroke-width="5"></path><path d="M 17.82 7.800000000000001 C 17.58 9, 17.73 8.504999999999999, 17.34 10.2 C 16.799999999999997 12.39, 16.634999999999998 12.660000000000002, 16.259999999999998 14.580000000000002 C 16.049999999999997 16.23, 16.11 16.08, 15.84 17.88 C 15.51 19.83, 15.584999999999999 19.725, 15.18 21.78 C 14.7 23.939999999999998, 14.700000000000001 23.895, 14.22 26.099999999999998 C 13.74 28.349999999999998, 13.785 28.334999999999997, 13.26 30.599999999999998 C 12.690000000000001 32.88, 12.435 33.55500000000001, 12.120000000000001 35.160000000000004 C 12.06 36.09, 12.030000000000001 36.089999999999996, 12 37.019999999999996 C 12 37.95, 11.925 37.995000000000005, 12 38.88 C 12.149999999999999 39.72, 12.104999999999999 39.825, 12.299999999999999 40.56 C 12.54 41.19, 12.614999999999998 41.415, 12.78 41.82 C 12.870000000000001 42, 12.9 42.075, 12.96 42.18 C 12.99 42.21, 12.93 42.21, 13.02 42.24 C 13.17 42.269999999999996, 12.825 42.51, 13.32 42.3 C 14.16 41.85, 14.295 41.86500000000001, 15 41.400000000000006 C 15.57 40.92, 15.420000000000002 41.144999999999996, 16.14 40.44 C 17.009999999999998 39.51, 17.025 39.795, 17.88 38.58 C 18.72 37.08, 18.854999999999997 37.184999999999995, 19.56 35.58 C 20.130000000000003 33.870000000000005, 20.355000000000004 33.24, 20.700000000000003 32.160000000000004 C 20.82 31.71, 20.880000000000003 31.515, 20.94 31.259999999999998 C 20.94 31.2, 20.94 31.095, 20.94 31.14 C 20.94 31.29, 21.165000000000003 30.57, 20.94 31.44 C 20.490000000000002 33.03, 20.384999999999998 33.345, 20.04 34.62 C 19.799999999999997 35.58, 19.724999999999998 35.64, 19.56 36.54 C 19.47 37.379999999999995, 19.334999999999997 37.379999999999995, 19.38 38.22 C 19.560000000000002 39.06, 19.44 39.25500000000001, 19.740000000000002 39.900000000000006 C 20.160000000000004 40.35, 20.295 40.53, 20.580000000000002 40.8 C 20.73 40.89, 20.73 40.935, 20.88 40.980000000000004 C 21.03 40.980000000000004, 20.775 41.205000000000005, 21.18 40.980000000000004 C 21.84 40.53, 21.689999999999998 40.845, 22.5 40.08 C 23.46 39, 23.580000000000002 38.910000000000004, 24.42 37.92 C 25.14 37.019999999999996, 25.185000000000002 36.885, 25.86 36.12 C 26.49 35.489999999999995, 26.369999999999997 35.4, 27.119999999999997 34.86 C 27.99 34.41, 27.93 34.335, 28.86 33.96 C 29.849999999999998 33.66, 30.104999999999997 33.39, 30.839999999999996 33.36 C 31.319999999999997 33.599999999999994, 31.349999999999994 33.51, 31.799999999999997 33.839999999999996 C 32.22 34.26, 32.16 34.065, 32.64 34.68 C 33.18 35.489999999999995, 33.239999999999995 35.474999999999994, 33.72 36.3 C 34.14 37.14, 34.290000000000006 37.32000000000001, 34.56 37.980000000000004 C 34.68 38.46, 34.739999999999995 38.58, 34.8 38.94 C 34.8 39.18, 34.98 39.075, 34.8 39.42 C 34.44 39.870000000000005, 34.62 39.870000000000005, 34.08 40.32 C 33.36 40.769999999999996, 33.435 40.905, 32.64 41.22 C 31.770000000000003 41.4, 31.770000000000003 41.459999999999994, 30.900000000000002 41.58 C 30.03 41.64, 29.835000000000004 41.67, 29.160000000000004 41.7 C 28.680000000000003 41.7, 28.545 41.7, 28.200000000000003 41.7 C 27.990000000000002 41.7, 27.885 41.7, 27.78 41.7 L 27.78 41.7" fill="none" stroke="black" stroke-width="5"></path></svg>