<svg xmlns="http://www.w3.org/2000/svg" viewBox="10.053333282470703 9.210046768188477 25.38666534423828 37.38995361328125" width="25.38666534423828" height="37.38995361328125"><path d="M 11.399999999999999 40.5 C 11.909999999999998 40.5, 11.819999999999999 40.5, 12.419999999999998 40.5 C 13.11 40.5, 13.2 40.5, 13.799999999999999 40.5 C 14.309999999999999 40.5, 14.040000000000001 40.56, 14.82 40.5 C 15.87 40.379999999999995, 15.869999999999997 40.425, 16.919999999999998 40.26 C 17.97 40.05, 18.165 39.989999999999995, 19.02 39.839999999999996 C 19.68 39.75, 19.89 39.720000000000006, 20.34 39.660000000000004 C 20.58 39.629999999999995, 20.595 39.614999999999995, 20.82 39.599999999999994 C 21.03 39.599999999999994, 21.135 39.599999999999994, 21.240000000000002 39.599999999999994 C 21.240000000000002 39.599999999999994, 21.195000000000004 39.599999999999994, 21.240000000000002 39.599999999999994 L 21.419999999999998 39.599999999999994" fill="none" stroke="black" stroke-width="5"></path><path d="M 12.18 45.599999999999994 C 11.969999999999999 44.97, 11.955 45.074999999999996, 11.76 44.339999999999996 C 11.579999999999998 43.5, 11.52 43.395, 11.399999999999999 42.660000000000004 C 11.34 42.03, 11.354999999999999 42.39000000000001, 11.28 41.400000000000006 C 11.190000000000001 40.050000000000004, 11.145000000000001 40.095000000000006, 11.100000000000001 38.7 C 11.100000000000001 37.260000000000005, 10.995000000000001 37.485, 11.100000000000001 35.82 C 11.31 33.93, 11.370000000000001 33.84, 11.52 32.04 C 11.61 30.33, 11.489999999999998 30.794999999999998, 11.7 28.619999999999997 C 12.03 25.979999999999997, 12.03 25.799999999999997, 12.36 23.34 C 12.69 21.060000000000002, 12.719999999999999 20.715, 13.02 18.78 C 13.29 17.19, 13.29 16.770000000000003, 13.559999999999999 15.600000000000001 C 13.83 14.850000000000001, 13.845 14.820000000000002, 14.100000000000001 14.100000000000001 C 14.340000000000002 13.41, 14.250000000000004 13.440000000000001, 14.580000000000002 12.72 C 15 11.97, 15.029999999999998 11.760000000000002, 15.419999999999998 11.22 C 15.78 10.89, 15.719999999999999 10.8, 16.14 10.56 C 16.62 10.41, 16.71 10.32, 17.1 10.26 C 17.400000000000002 10.29, 17.175000000000004 10.095, 17.700000000000003 10.32 C 18.450000000000003 10.74, 18.660000000000004 10.83, 19.200000000000003 11.16 C 19.53 11.4, 19.485 11.235000000000001, 19.86 11.64 C 20.28 12.21, 20.355000000000004 11.895, 20.700000000000003 12.78 C 20.970000000000002 13.98, 21.015 14.055, 21.240000000000002 15.18 C 21.42 16.23, 21.465000000000003 16.080000000000002, 21.6 17.28 C 21.69 18.630000000000003, 21.720000000000002 18.54, 21.78 19.98 C 21.810000000000002 21.509999999999998, 21.75 21.705, 21.84 23.04 C 21.990000000000002 24.18, 22.035 24.525, 22.14 25.32 C 22.2 25.77, 22.2 25.919999999999998, 22.259999999999998 26.22 C 22.32 26.369999999999997, 22.349999999999998 26.445, 22.38 26.52 C 22.38 26.52, 22.38 26.52, 22.38 26.52 C 22.38 26.52, 22.2 26.474999999999998, 22.38 26.52 C 22.740000000000002 26.61, 22.68 26.745000000000005, 23.1 26.700000000000003 C 23.58 26.52, 23.549999999999997 26.49, 24.06 26.339999999999996 C 24.6 26.22, 24.525 26.159999999999997, 25.14 26.099999999999998 C 25.83 26.099999999999998, 25.56 25.874999999999996, 26.52 26.099999999999998 C 27.75 26.549999999999997, 27.975 26.595, 28.98 27 C 29.759999999999998 27.36, 29.79 27.24, 30.54 27.72 C 31.259999999999998 28.32, 31.365000000000002 28.17, 31.98 28.92 C 32.49 29.82, 32.595 29.655, 33 30.72 C 33.3 31.95, 33.449999999999996 31.95, 33.599999999999994 33.18 C 33.599999999999994 34.41, 33.599999999999994 34.410000000000004, 33.599999999999994 35.64 C 33.599999999999994 36.87, 33.644999999999996 36.779999999999994, 33.599999999999994 38.099999999999994 C 33.51 39.51, 33.51 39.63, 33.42 40.92 C 33.33 42.09, 33.33 42.269999999999996, 33.24 43.26 C 33.150000000000006 44.07, 33.105000000000004 44.445, 33.06 44.88 C 33.06 44.94, 33.06 44.97, 33.06 45 C 33.06 45, 33.09 44.955, 33.06 45 L 32.94 45.18" fill="none" stroke="black" stroke-width="5"></path><path d="M 21.78 18.299999999999997 C 22.11 18.24, 22.005000000000003 18.195, 22.44 18.18 C 22.98 18.21, 22.740000000000002 18.225, 23.52 18.240000000000002 C 24.54 18.240000000000002, 24.36 18.255000000000003, 25.56 18.240000000000002 C 26.939999999999998 18.21, 26.94 18.195, 28.32 18.18 C 29.7 18.18, 29.865 18.18, 31.08 18.18 C 32.129999999999995 18.18, 32.49 18.225, 33.18 18.18 C 33.51 18.09, 33.55499999999999 18.045, 33.839999999999996 18 C 34.08 18, 34.17 18.015, 34.32 18 L 34.44 17.94" fill="none" stroke="black" stroke-width="5"></path></svg>