<svg xmlns="http://www.w3.org/2000/svg" viewBox="13.34000015258789 6.679999828338623 21.319998741149902 32.79333543777466" width="21.319998741149902" height="32.79333543777466"><path d="M 14.399999999999999 8.040000000000001 C 14.849999999999998 8.040000000000001, 14.805 8.040000000000001, 15.299999999999999 8.040000000000001 C 15.84 8.040000000000001, 15.735 8.040000000000001, 16.38 8.040000000000001 C 17.13 8.040000000000001, 17.145 8.055000000000001, 17.88 8.040000000000001 C 18.6 8.010000000000002, 18.495 8.025, 19.32 7.98 C 20.25 7.92, 20.04 7.890000000000001, 21.18 7.86 C 22.53 7.86, 22.604999999999997 7.905, 23.88 7.86 C 25.08 7.77, 25.290000000000003 7.725, 26.28 7.68 C 27.06 7.68, 27.254999999999995 7.68, 27.839999999999996 7.68 C 28.229999999999997 7.68, 28.08 7.68, 28.619999999999997 7.68 C 29.31 7.68, 29.43 7.68, 30 7.68 C 30.450000000000003 7.68, 30.480000000000004 7.68, 30.900000000000002 7.68 C 31.29 7.68, 31.365 7.68, 31.68 7.68 C 31.92 7.68, 32.010000000000005 7.68, 32.160000000000004 7.68 C 32.22 7.68, 32.25 7.68, 32.28 7.68 L 32.28 7.68" fill="none" stroke="black" stroke-width="5"></path><path d="M 14.34 29.52 C 14.7 29.52, 14.52 29.52, 15.059999999999999 29.52 C 15.78 29.52, 15.57 29.52, 16.5 29.52 C 17.64 29.52, 17.580000000000002 29.52, 18.78 29.52 C 20.04 29.52, 19.904999999999998 29.595, 21.299999999999997 29.52 C 22.83 29.369999999999997, 23.025 29.34, 24.36 29.22 C 25.5 29.13, 25.65 29.13, 26.64 29.04 C 27.48 28.95, 27.450000000000003 28.98, 28.32 28.86 C 29.22 28.71, 29.519999999999996 28.634999999999998, 30.119999999999997 28.56 C 30.419999999999998 28.56, 30.449999999999996 28.56, 30.72 28.56 C 30.96 28.56, 30.96 28.56, 31.200000000000003 28.56 C 31.44 28.56, 31.365000000000002 28.56, 31.68 28.56 C 32.07 28.56, 32.16 28.56, 32.46 28.56 L 32.88 28.56" fill="none" stroke="black" stroke-width="5"></path><path d="M 15.54 38.46 C 15.93 38.46, 15.57 38.46, 16.32 38.46 C 17.43 38.46, 17.295 38.49, 18.54 38.46 C 19.919999999999998 38.4, 19.769999999999996 38.41499999999999, 21.299999999999997 38.339999999999996 C 22.98 38.25, 23.205000000000005 38.220000000000006, 24.660000000000004 38.160000000000004 C 25.89 38.129999999999995, 25.935 38.16, 27.119999999999997 38.099999999999994 C 28.259999999999998 38.01, 28.380000000000003 37.965, 29.400000000000002 37.92 C 30.300000000000004 37.92, 30.450000000000003 37.92, 31.200000000000003 37.92 C 31.800000000000004 37.92, 31.980000000000004 37.92, 32.400000000000006 37.92 C 32.64 37.92, 32.565000000000005 37.92, 32.88 37.92 C 33.27 37.92, 33.465 37.92, 33.660000000000004 37.92 L 33.660000000000004 37.92" fill="none" stroke="black" stroke-width="5"></path></svg>