<svg xmlns="http://www.w3.org/2000/svg" viewBox="13.100000381469727 3.9800000190734863 20.659997940063477 38.88666486740112" width="20.659997940063477" height="38.88666486740112"><path d="M 14.100000000000001 5.5200000000000005 C 14.55 5.5200000000000005, 14.235 5.5200000000000005, 15 5.5200000000000005 C 16.08 5.5200000000000005, 16.095 5.5200000000000005, 17.16 5.5200000000000005 C 18.21 5.5200000000000005, 18.15 5.5200000000000005, 19.259999999999998 5.5200000000000005 C 20.43 5.5200000000000005, 20.55 5.550000000000001, 21.6 5.5200000000000005 C 22.53 5.460000000000001, 22.29 5.445, 23.46 5.4 C 24.87 5.37, 25.125 5.385, 26.28 5.34 C 27.18 5.279999999999999, 27.029999999999998 5.279999999999999, 28.08 5.22 C 29.28 5.16, 29.58 5.16, 30.48 5.1 C 31.08 5.039999999999999, 31.185 5.01, 31.68 4.9799999999999995 C 32.07 4.9799999999999995, 32.19 4.9799999999999995, 32.46 4.9799999999999995 C 32.61 4.9799999999999995, 32.685 4.9799999999999995, 32.76 4.9799999999999995 L 32.76 4.9799999999999995" fill="none" stroke="black" stroke-width="5"></path><path d="M 26.400000000000002 4.9799999999999995 C 26.700000000000003 5.31, 26.565 5.069999999999999, 27 5.64 C 27.57 6.449999999999999, 27.54 6.359999999999999, 28.14 7.26 C 28.770000000000003 8.25, 28.770000000000003 8.13, 29.400000000000002 9.24 C 30.03 10.469999999999999, 30.135000000000005 10.545, 30.660000000000004 11.7 C 31.080000000000002 12.78, 31.11 12.674999999999999, 31.5 13.86 C 31.86 15.15, 32.025 15.315000000000001, 32.22 16.44 C 32.25 17.4, 32.265 17.43, 32.28 18.36 C 32.28 19.259999999999998, 32.34 19.395, 32.28 20.16 C 32.16 20.79, 32.25 20.924999999999997, 32.04 21.419999999999998 C 31.740000000000002 21.78, 31.905 21.75, 31.44 22.14 C 30.810000000000002 22.560000000000002, 30.99 22.62, 30.18 22.98 C 29.19 23.28, 28.89 23.385, 28.200000000000003 23.580000000000002 C 27.810000000000002 23.67, 27.735000000000003 23.729999999999997, 27.42 23.759999999999998 C 27.18 23.73, 27.255000000000003 24.105000000000004, 26.94 23.700000000000003 C 26.550000000000004 22.92, 26.580000000000005 23.07, 26.160000000000004 22.14 C 25.71 21.060000000000002, 25.725 20.955, 25.259999999999998 19.98 C 24.779999999999998 19.11, 24.614999999999995 18.840000000000003, 24.299999999999997 18.240000000000002 C 24.15 17.910000000000004, 24.075 17.745, 24 17.580000000000002 C 24 17.580000000000002, 24.015 17.565, 24 17.580000000000002 C 23.97 17.61, 23.955000000000002 17.220000000000002, 23.94 17.64 C 23.94 18.45, 23.94 18.389999999999997, 23.94 19.259999999999998 C 23.94 20.189999999999998, 23.895000000000003 20.265, 23.94 21.12 C 24.03 21.9, 24.179999999999996 21.93, 24.119999999999997 22.68 C 23.91 23.4, 24.12 23.489999999999995, 23.700000000000003 24.119999999999997 C 23.07 24.66, 23.145000000000003 24.810000000000002, 22.44 25.200000000000003 C 21.66 25.44, 21.6 25.560000000000002, 20.88 25.68 C 20.22 25.68, 20.369999999999997 25.68, 19.56 25.68 C 18.6 25.68, 18.465 25.77, 17.64 25.68 C 16.95 25.5, 16.889999999999997 25.485, 16.259999999999998 25.32 C 15.69 25.17, 15.51 25.095, 15.120000000000001 25.02 C 14.91 25.02, 14.805000000000001 25.02, 14.700000000000001 25.02 C 14.700000000000001 25.02, 14.82 25.049999999999997, 14.700000000000001 25.02 L 14.22 24.900000000000002" fill="none" stroke="black" stroke-width="5"></path><path d="M 24.42 30.54 C 22.8 30.54, 22.395 30.36, 21.18 30.54 C 20.369999999999997 30.9, 20.25 30.72, 19.56 31.259999999999998 C 18.99 31.98, 18.705 31.740000000000002, 18.419999999999998 32.7 C 18.419999999999998 33.9, 18.464999999999996 34.08, 18.419999999999998 35.099999999999994 C 18.33 35.94, 18.240000000000002 36.12, 18.240000000000002 36.78 C 18.33 37.260000000000005, 18.134999999999998 37.14, 18.419999999999998 37.74 C 18.9 38.46, 18.689999999999998 38.385, 19.38 39.18 C 20.28 40.05, 20.295 40.305, 21.18 40.92 C 22.049999999999997 41.28, 22.11 41.43, 22.919999999999998 41.64 C 23.67 41.7, 23.67 41.73, 24.42 41.76 C 25.17 41.76, 25.125000000000004 42, 25.92 41.76 C 26.759999999999998 41.28, 26.97 41.26499999999999, 27.599999999999998 40.8 C 28.02 40.35, 28.155 40.36500000000001, 28.44 39.900000000000006 C 28.590000000000003 39.42, 28.650000000000002 39.6, 28.740000000000002 38.94 C 28.77 38.099999999999994, 28.784999999999997 38.055, 28.799999999999997 37.26 C 28.799999999999997 36.51, 28.859999999999996 36.599999999999994, 28.799999999999997 35.76 C 28.68 34.83, 28.724999999999998 34.56, 28.56 33.900000000000006 C 28.35 33.510000000000005, 28.455000000000002 33.54, 28.14 33.12 C 27.72 32.67, 27.764999999999997 32.58, 27.299999999999997 32.22 C 26.79 31.95, 26.85 31.95, 26.28 31.68 C 25.65 31.41, 25.53 31.305, 25.02 31.14 C 24.630000000000003 31.08, 24.585 31.095, 24.240000000000002 31.02 C 23.94 30.93, 23.880000000000003 30.929999999999996, 23.64 30.839999999999996 C 23.46 30.75, 23.400000000000002 30.705000000000002, 23.28 30.660000000000004 L 23.16 30.660000000000004" fill="none" stroke="black" stroke-width="5"></path></svg>