<svg xmlns="http://www.w3.org/2000/svg" viewBox="9.779999732971191 5.300000190734863 19.720001220703125 37.2400016784668" width="19.720001220703125" height="37.2400016784668"><path d="M 18.9 40.980000000000004 C 18.3 40.980000000000004, 18.795 40.95, 17.700000000000003 40.980000000000004 C 16.11 41.04, 15.81 41.01, 14.52 41.099999999999994 C 13.53 41.22, 13.155 41.24999999999999, 12.54 41.339999999999996 C 12.299999999999999 41.4, 12.18 41.43, 12.059999999999999 41.46 C 12.059999999999999 41.46, 12.059999999999999 41.46, 12.059999999999999 41.46 C 12.059999999999999 41.46, 12.224999999999998 41.64, 12.059999999999999 41.46 C 11.729999999999999 41.1, 11.714999999999998 41.580000000000005, 11.399999999999999 40.74 C 11.1 39.42, 10.95 39.37499999999999, 10.8 38.099999999999994 C 10.8 36.87, 10.8 36.795, 10.8 35.64 C 10.8 34.56, 10.8 34.95, 10.8 33.480000000000004 C 10.8 31.62, 10.8 31.755, 10.8 29.759999999999998 C 10.8 27.63, 10.8 27.48, 10.8 25.5 C 10.8 23.67, 10.8 23.384999999999998, 10.8 21.84 C 10.8 20.58, 10.8 20.13, 10.8 19.32 C 10.8 18.96, 10.755 19.14, 10.8 18.6 C 10.89 17.880000000000003, 10.845 17.94, 10.98 17.16 C 11.16 16.32, 11.145 16.17, 11.34 15.48 C 11.55 14.94, 11.55 14.79, 11.76 14.399999999999999 C 11.969999999999999 14.159999999999998, 11.76 14.249999999999996, 12.18 13.919999999999998 C 12.81 13.5, 12.675 13.305000000000001, 13.440000000000001 13.080000000000002 C 14.34 13.05, 14.52 12.915, 15.24 13.02 C 15.780000000000001 13.26, 15.9 13.14, 16.32 13.5 C 16.619999999999997 13.98, 16.665 13.950000000000001, 16.919999999999998 14.46 C 17.13 15, 17.174999999999997 14.82, 17.34 15.54 C 17.46 16.439999999999998, 17.520000000000003 16.59, 17.580000000000002 17.34 C 17.580000000000002 17.939999999999998, 17.580000000000002 18.24, 17.580000000000002 18.54 C 17.580000000000002 18.54, 17.55 18.555, 17.580000000000002 18.54 C 17.64 18.509999999999998, 17.550000000000004 18.93, 17.700000000000003 18.48 C 17.94 17.61, 17.91 17.685000000000002, 18.18 16.740000000000002 C 18.48 15.720000000000002, 18.555 15.570000000000002, 18.78 14.700000000000001 C 18.93 13.98, 18.87 13.83, 19.080000000000002 13.26 C 19.35 12.84, 19.185000000000002 12.764999999999999, 19.62 12.419999999999998 C 20.22 12.149999999999999, 19.635 12.059999999999999, 20.82 11.879999999999999 C 22.59 11.79, 22.77 11.594999999999999, 24.36 11.7 C 25.77 12, 26.145 12.075, 27.18 12.299999999999999 C 27.84 12.45, 28.17 12.525, 28.5 12.600000000000001 L 28.5 12.600000000000001" fill="none" stroke="black" stroke-width="5"></path><path d="M 12 6.6000000000000005 C 12 6.630000000000001, 11.715 6.615, 12 6.66 C 12.57 6.72, 12.27 6.794999999999999, 13.14 6.779999999999999 C 14.31 6.6899999999999995, 14.115 6.66, 15.48 6.6000000000000005 C 17.04 6.57, 16.545 6.615000000000001, 18.6 6.540000000000001 C 21.150000000000002 6.420000000000001, 22.035000000000004 6.360000000000001, 23.700000000000003 6.300000000000001 C 24.48 6.300000000000001, 24.794999999999998 6.300000000000001, 25.259999999999998 6.300000000000001 C 25.409999999999997 6.300000000000001, 25.32 6.300000000000001, 25.56 6.300000000000001 C 25.89 6.300000000000001, 26.025 6.300000000000001, 26.22 6.300000000000001 L 26.339999999999996 6.300000000000001" fill="none" stroke="black" stroke-width="5"></path></svg>