<svg xmlns="http://www.w3.org/2000/svg" viewBox="9.079999923706055 3.9000000953674316 25.140002250671387 40.180001735687256" width="25.140002250671387" height="40.180001735687256"><path d="M 12.48 26.759999999999998 C 12.48 26.759999999999998, 12.48 26.759999999999998, 12.48 26.759999999999998 C 12.48 26.759999999999998, 12.510000000000002 26.865, 12.48 26.759999999999998 C 12.42 26.549999999999997, 12.629999999999999 27.179999999999996, 12.36 26.339999999999996 C 11.879999999999999 24.869999999999997, 11.774999999999999 25.275, 11.399999999999999 23.4 C 11.129999999999999 21.119999999999997, 11.04 20.7, 10.86 18.84 C 10.77 17.4, 10.695 17.220000000000002, 10.68 15.96 C 10.74 14.879999999999999, 10.65 14.759999999999998, 10.8 13.799999999999999 C 11.04 12.96, 11.024999999999999 12.84, 11.28 12.120000000000001 C 11.55 11.52, 11.535 11.325, 11.82 10.92 C 12.12 10.71, 11.985 10.41, 12.419999999999998 10.5 C 12.989999999999998 10.89, 12.929999999999998 10.59, 13.559999999999999 11.28 C 14.25 12.27, 14.025000000000002 11.955, 14.940000000000001 13.26 C 16.08 14.879999999999999, 16.244999999999997 15.045, 17.22 16.5 C 18.03 17.79, 18.375 18.315, 18.84 19.080000000000002 C 18.96 19.32, 19.020000000000003 19.439999999999998, 19.080000000000002 19.56 C 19.080000000000002 19.56, 19.035000000000004 19.544999999999998, 19.080000000000002 19.56 C 19.17 19.59, 19.215 20.055, 19.259999999999998 19.62 C 19.259999999999998 18.72, 19.244999999999997 19.02, 19.259999999999998 17.82 C 19.29 16.32, 19.215 15.870000000000001, 19.32 14.82 C 19.5 14.22, 19.485 14.13, 19.68 13.620000000000001 C 19.89 13.2, 19.68 13.2, 20.1 12.78 C 20.73 12.36, 20.49 12.225, 21.36 11.94 C 22.47 11.79, 22.485 11.790000000000001, 23.580000000000002 11.64 C 24.660000000000004 11.49, 24.555000000000003 11.46, 25.740000000000002 11.34 C 27.03 11.25, 27.195 11.205, 28.32 11.16 C 29.28 11.16, 29.520000000000003 11.16, 30.240000000000002 11.16 C 30.720000000000002 11.16, 30.78 11.16, 31.200000000000003 11.16 C 31.560000000000002 11.16, 31.470000000000002 11.16, 31.92 11.16 C 32.46 11.16, 32.685 11.16, 33 11.16 L 33.18 11.16" fill="none" stroke="black" stroke-width="5"></path><path d="M 10.92 4.92 C 11.52 4.92, 10.995000000000001 4.875, 12.120000000000001 4.92 C 13.77 5.01, 13.739999999999998 5.055, 15.419999999999998 5.1 C 17.13 5.1, 17.415 5.1, 18.84 5.1 C 19.98 5.1, 19.380000000000003 5.055, 21.12 5.1 C 23.46 5.1899999999999995, 24.014999999999997 5.235, 25.799999999999997 5.28 C 27.029999999999998 5.28, 27.165 5.28, 28.259999999999998 5.28 C 29.22 5.28, 29.415 5.235, 30.18 5.28 C 30.75 5.37, 31.035 5.415, 31.32 5.46 L 31.32 5.46" fill="none" stroke="black" stroke-width="5"></path><path d="M 24 11.76 C 23.79 12.629999999999999, 23.730000000000004 12.315, 23.580000000000002 13.5 C 23.490000000000002 15, 23.34 14.91, 23.4 16.5 C 23.61 18.18, 23.475 18.33, 23.82 19.86 C 24.3 21.240000000000002, 24.150000000000002 21.270000000000003, 24.78 22.62 C 25.56 23.939999999999998, 25.529999999999998 24.104999999999997, 26.339999999999996 25.259999999999998 C 27.18 26.25, 27.104999999999997 26.415000000000003, 28.02 27.240000000000002 C 29.009999999999998 27.9, 29.025 27.9, 30 28.56 C 30.96 29.22, 31.275000000000002 29.445000000000004, 31.92 29.880000000000003 C 32.25 30.09, 32.325 30.15, 32.58 30.299999999999997 C 32.76 30.39, 32.79 30.314999999999998, 32.94 30.48 C 33.06 30.72, 33.12 30.765, 33.18 30.96 C 33.18 31.11, 33.269999999999996 31.019999999999996, 33.18 31.259999999999998 C 33 31.59, 33.075 31.62, 32.82 31.92 C 32.49 32.19, 32.85 32.175, 32.160000000000004 32.46 C 31.11 32.760000000000005, 31.244999999999997 32.760000000000005, 30.06 33.06 C 28.740000000000002 33.36, 28.965000000000003 33.19500000000001, 27.42 33.660000000000004 C 25.65 34.290000000000006, 25.59 34.245000000000005, 23.88 34.92 C 22.23 35.64, 22.035000000000004 35.7, 20.580000000000002 36.36 C 19.32 36.96, 19.08 36.945, 18.06 37.56 C 17.28 38.19, 17.16 38.13, 16.5 38.82 C 15.959999999999999 39.57, 15.779999999999998 39.675, 15.419999999999998 40.32 C 15.239999999999998 40.86, 15.224999999999998 40.92, 15.059999999999999 41.400000000000006 C 14.91 41.82000000000001, 14.864999999999998 41.82000000000001, 14.76 42.24 C 14.7 42.66, 14.67 42.87, 14.64 43.08 L 14.64 43.08" fill="none" stroke="black" stroke-width="5"></path><path d="M 10.08 32.7 C 11.34 32.760000000000005, 11.280000000000001 32.61, 12.600000000000001 32.82 C 13.98 33.18, 14.07 33.105, 15.36 33.54 C 16.56 34.05, 16.724999999999998 34.095, 17.759999999999998 34.56 C 18.63 34.980000000000004, 18.869999999999997 35.10000000000001, 19.5 35.400000000000006 C 19.89 35.58, 19.995 35.64, 20.28 35.76 L 20.64 35.88" fill="none" stroke="black" stroke-width="5"></path></svg>