<svg xmlns="http://www.w3.org/2000/svg" viewBox="10.933333396911621 5.840000152587891 25.22666645050049 41.22666549682617" width="25.22666645050049" height="41.22666549682617"><path d="M 14.04 6.8999999999999995 C 14.549999999999999 6.8999999999999995, 14.055 6.8999999999999995, 15.059999999999999 6.8999999999999995 C 16.56 6.8999999999999995, 16.665 6.8999999999999995, 18.06 6.8999999999999995 C 19.35 6.8999999999999995, 19.259999999999998 6.8999999999999995, 20.64 6.8999999999999995 C 22.11 6.8999999999999995, 22.245 6.8999999999999995, 23.580000000000002 6.8999999999999995 C 24.78 6.8999999999999995, 25.02 6.8999999999999995, 25.98 6.8999999999999995 C 26.700000000000003 6.8999999999999995, 26.700000000000003 6.8999999999999995, 27.42 6.8999999999999995 C 28.14 6.8999999999999995, 28.005000000000003 6.8999999999999995, 28.86 6.8999999999999995 C 29.849999999999998 6.8999999999999995, 30.104999999999997 6.914999999999999, 30.839999999999996 6.8999999999999995 C 31.319999999999997 6.869999999999999, 31.409999999999997 6.8549999999999995, 31.799999999999997 6.84 C 32.1 6.84, 32.220000000000006 6.84, 32.400000000000006 6.84 L 32.519999999999996 6.84" fill="none" stroke="black" stroke-width="5"></path><path d="M 13.919999999999998 25.92 C 13.379999999999999 23.880000000000003, 13.32 23.759999999999998, 12.84 21.84 C 12.42 20.04, 12.21 19.560000000000002, 12 18.240000000000002 C 12 17.4, 12 17.325, 12 16.56 C 12 15.87, 11.85 15.825, 12 15.18 C 12.3 14.58, 12.270000000000001 14.46, 12.600000000000001 13.98 C 12.96 13.620000000000001, 12.9 13.469999999999999, 13.32 13.26 C 13.8 13.2, 13.77 13.125, 14.28 13.14 C 14.82 13.23, 14.865 13.11, 15.36 13.32 C 15.809999999999999 13.65, 15.689999999999998 13.29, 16.259999999999998 13.98 C 16.95 15.030000000000001, 17.085 15.045000000000002, 17.64 16.080000000000002 C 18.060000000000002 17.1, 18.165 17.265, 18.48 18.12 C 18.689999999999998 18.810000000000002, 18.75 18.945, 18.9 19.5 C 18.990000000000002 19.92, 19.005000000000003 20.13, 19.080000000000002 20.34 C 19.14 20.34, 19.080000000000005 20.775, 19.200000000000003 20.34 C 19.380000000000003 19.47, 19.424999999999997 19.44, 19.56 18.6 C 19.65 17.79, 19.665000000000003 17.58, 19.740000000000002 16.98 C 19.8 16.590000000000003, 19.605 16.71, 19.86 16.200000000000003 C 20.31 15.570000000000002, 19.994999999999997 15.750000000000002, 20.759999999999998 14.940000000000001 C 21.839999999999996 13.950000000000001, 22.095 13.605, 22.919999999999998 12.96 C 23.49 12.66, 23.549999999999997 12.51, 24.06 12.36 C 24.509999999999998 12.36, 24.150000000000002 12.36, 24.96 12.36 C 26.13 12.36, 26.279999999999998 12.36, 27.299999999999997 12.36 C 28.169999999999998 12.36, 28.335 12.329999999999998, 29.04 12.36 C 29.58 12.42, 29.729999999999997 12.39, 30.119999999999997 12.48 C 30.36 12.600000000000001, 30.269999999999996 12.330000000000002, 30.599999999999998 12.72 C 31.02 13.379999999999999, 31.11 13.29, 31.44 14.04 C 31.68 14.879999999999999, 31.68 14.715, 31.92 15.72 C 32.160000000000004 16.89, 32.23500000000001 16.994999999999997, 32.400000000000006 18.06 C 32.49 19.02, 32.535 19.065, 32.58 19.98 C 32.58 20.85, 32.58 20.924999999999997, 32.58 21.72 C 32.58 22.439999999999998, 32.58 22.634999999999998, 32.58 23.16 C 32.58 23.490000000000002, 32.58 23.655, 32.58 23.82 L 32.58 23.82" fill="none" stroke="black" stroke-width="5"></path><path d="M 23.759999999999998 12.48 C 23.759999999999998 13.05, 23.744999999999997 12.540000000000003, 23.759999999999998 13.620000000000001 C 23.79 15.209999999999999, 23.805 14.864999999999998, 23.82 16.799999999999997 C 23.82 19.08, 23.82 19.275, 23.82 21.36 C 23.82 23.25, 23.835 22.62, 23.82 25.14 C 23.79 28.29, 23.775 28.785000000000004, 23.759999999999998 31.44 C 23.759999999999998 33.6, 23.759999999999998 33.9, 23.759999999999998 35.76 C 23.759999999999998 37.32, 23.759999999999998 37.47, 23.759999999999998 38.88 C 23.759999999999998 40.14, 23.759999999999998 40.2, 23.759999999999998 41.400000000000006 C 23.759999999999998 42.540000000000006, 23.759999999999998 42.81, 23.759999999999998 43.68 C 23.759999999999998 44.28, 23.744999999999997 44.415000000000006, 23.759999999999998 44.88 C 23.79 45.21, 23.73 45.315, 23.82 45.54 C 23.97 45.66, 23.955 45.660000000000004, 24.119999999999997 45.78 C 24.299999999999997 45.9, 24.39 45.959999999999994, 24.48 46.019999999999996 C 24.48 46.019999999999996, 24.3 46.125, 24.48 46.019999999999996 C 24.840000000000003 45.809999999999995, 24.915000000000003 45.989999999999995, 25.200000000000003 45.599999999999994 C 25.41 45.03, 25.455 45.12, 25.619999999999997 44.46 C 25.74 43.71, 25.634999999999998 43.785, 25.86 42.96 C 26.189999999999998 42.06, 26.16 42.120000000000005, 26.52 41.160000000000004 C 26.909999999999997 40.14, 26.939999999999998 39.974999999999994, 27.299999999999997 39.12 C 27.63 38.43, 27.57 38.475, 27.96 37.74 C 28.41 36.96, 28.41 36.87, 28.86 36.18 C 29.31 35.58, 29.205 35.550000000000004, 29.759999999999998 34.980000000000004 C 30.419999999999998 34.440000000000005, 30.39 34.30500000000001, 31.08 33.900000000000006 C 31.799999999999997 33.63, 31.844999999999995 33.495000000000005, 32.519999999999996 33.36 C 33.15 33.36, 33.15 33.3, 33.78 33.36 C 34.41 33.48, 34.695 33.53999999999999, 35.04 33.599999999999994 C 35.1 33.599999999999994, 35.13 33.599999999999994, 35.160000000000004 33.599999999999994 L 35.160000000000004 33.599999999999994" fill="none" stroke="black" stroke-width="5"></path></svg>