<svg xmlns="http://www.w3.org/2000/svg" viewBox="14.420000076293945 5.119999885559082 18.81333351135254 39.92000102996826" width="18.81333351135254" height="39.92000102996826"><path d="M 15.600000000000001 7.32 C 16.740000000000002 7.23, 16.74 7.185, 17.88 7.14 C 19.02 7.14, 19.125 7.14, 20.16 7.14 C 21.09 7.14, 20.939999999999998 7.185, 22.02 7.14 C 23.25 7.049999999999999, 23.19 7.139999999999999, 24.48 6.959999999999999 C 25.83 6.6899999999999995, 26.009999999999998 6.584999999999999, 27.18 6.42 C 28.17 6.36, 28.440000000000005 6.33, 29.160000000000004 6.300000000000001 C 29.61 6.300000000000001, 29.549999999999997 6.345000000000001, 30.06 6.300000000000001 C 30.630000000000003 6.210000000000001, 30.765000000000004 6.165, 31.200000000000003 6.12 C 31.5 6.12, 31.604999999999997 6.12, 31.799999999999997 6.12 C 31.89 6.12, 31.935 6.12, 31.98 6.12 L 31.98 6.12" fill="none" stroke="black" stroke-width="5"></path><path d="M 15.419999999999998 13.86 C 16.799999999999997 13.86, 16.74 13.905, 18.18 13.86 C 19.68 13.77, 19.619999999999997 13.83, 21.18 13.68 C 22.8 13.469999999999999, 22.950000000000003 13.425, 24.42 13.26 C 25.740000000000002 13.14, 25.799999999999997 13.11, 27.06 13.02 C 28.259999999999998 12.959999999999999, 28.56 12.93, 29.46 12.899999999999999 C 30.060000000000002 12.899999999999999, 30.195000000000004 12.854999999999997, 30.660000000000004 12.899999999999999 C 30.990000000000002 12.99, 30.990000000000002 12.900000000000002, 31.32 13.080000000000002 C 31.65 13.350000000000001, 31.755000000000003 13.245000000000001, 31.98 13.620000000000001 C 32.1 14.100000000000001, 32.16 14.115000000000002, 32.22 14.580000000000002 C 32.22 15.030000000000001, 32.25 14.895000000000001, 32.22 15.48 C 32.16 16.2, 32.26499999999999 15.869999999999997, 32.099999999999994 16.919999999999998 C 31.83 18.299999999999997, 31.875 18.24, 31.56 19.68 C 31.199999999999996 21.18, 31.229999999999997 21.24, 30.839999999999996 22.68 C 30.419999999999998 24.060000000000002, 30.525 23.85, 30 25.44 C 29.37 27.240000000000002, 29.295 27.45, 28.740000000000002 29.04 C 28.26 30.419999999999998, 28.365000000000002 30.119999999999997, 27.78 31.799999999999997 C 27.090000000000003 33.78, 26.940000000000005 34.095, 26.400000000000002 35.76 C 26.009999999999998 37.11, 25.964999999999996 37.35, 25.619999999999997 38.46 C 25.32 39.33, 25.29 39.435, 25.02 40.2 C 24.78 40.86, 24.689999999999998 41.04, 24.54 41.519999999999996 C 24.48 41.81999999999999, 24.450000000000003 41.97, 24.42 42.12 C 24.42 42.12, 24.42 42.12, 24.42 42.12 L 24.42 42.12" fill="none" stroke="black" stroke-width="5"></path><path d="M 15.899999999999999 42.54 C 16.08 42.480000000000004, 15.644999999999998 42.45, 16.259999999999998 42.42 C 17.31 42.42, 17.4 42.405, 18.36 42.42 C 19.23 42.45, 18.915 42.39, 20.1 42.480000000000004 C 21.6 42.63, 21.525000000000002 42.585, 23.1 42.78 C 24.75 43.019999999999996, 25.065 43.035, 26.400000000000002 43.26 C 27.42 43.47, 27.375 43.53, 28.44 43.68 C 29.550000000000004 43.769999999999996, 30.015000000000004 43.769999999999996, 30.660000000000004 43.86 C 30.840000000000003 43.95, 30.93 43.995, 31.02 44.04 L 31.02 44.04" fill="none" stroke="black" stroke-width="5"></path></svg>