<svg xmlns="http://www.w3.org/2000/svg" viewBox="10.039999961853027 7.460000038146973 19.102978706359863 37.36000061035156" width="19.102978706359863" height="37.36000061035156"><path d="M 11.040000000000001 8.459999999999999 C 11.07 10.8, 11.040000000000003 11.175, 11.100000000000001 13.14 C 11.190000000000001 14.73, 11.19 14.73, 11.28 16.32 C 11.37 17.91, 11.415 18.105, 11.459999999999999 19.5 C 11.459999999999999 20.7, 11.415 20.595, 11.459999999999999 21.9 C 11.55 23.31, 11.55 23.205, 11.64 24.72 C 11.73 26.34, 11.775 26.355, 11.82 27.96 C 11.82 29.55, 11.82 29.835, 11.82 31.14 C 11.82 32.16, 11.82 31.935000000000002, 11.82 33.18 C 11.82 34.65, 11.82 34.845, 11.82 36.12 C 11.82 37.2, 11.82 37.275, 11.82 38.28 C 11.82 39.21, 11.745000000000001 39.315, 11.82 40.14 C 11.97 40.86, 11.970000000000002 41.055, 12.120000000000001 41.58 C 12.27 41.91, 12.119999999999997 41.805, 12.419999999999998 42.24 C 12.87 42.78, 12.899999999999999 42.96, 13.32 43.32 C 13.71 43.5, 13.740000000000002 43.56, 14.100000000000001 43.68 C 14.43 43.739999999999995, 14.4 43.769999999999996, 14.76 43.8 C 15.149999999999999 43.8, 15.014999999999999 43.8, 15.54 43.8 C 16.2 43.8, 16.08 43.845, 16.86 43.8 C 17.759999999999998 43.709999999999994, 17.835 43.83, 18.66 43.62 C 19.41 43.29, 19.575 43.29, 20.16 42.96 C 20.58 42.629999999999995, 20.55 42.675, 21 42.3 C 21.48 41.879999999999995, 21.6 41.925, 21.96 41.46 C 22.200000000000003 40.95, 22.32 40.92, 22.44 40.44 C 22.44 39.989999999999995, 22.575000000000003 40.2, 22.44 39.54 C 22.17 38.67, 22.169999999999998 38.489999999999995, 21.9 37.8 C 21.63 37.29, 21.735 37.26, 21.36 36.78 C 20.88 36.33, 20.895 36.27, 20.4 35.88 C 19.89 35.55, 20.055 35.475, 19.38 35.22 C 18.54 35.04, 18.480000000000004 34.95, 17.700000000000003 34.86 C 16.98 34.86, 17.025 34.815, 16.259999999999998 34.86 C 15.45 34.95, 15.57 34.815, 14.64 35.04 C 13.59 35.4, 13.35 35.415, 12.54 35.76 C 11.969999999999999 36.09, 11.684999999999999 36.255, 11.399999999999999 36.42 C 11.399999999999999 36.42, 11.399999999999999 36.42, 11.399999999999999 36.42 C 11.399999999999999 36.42, 11.399999999999999 36.42, 11.399999999999999 36.42 L 11.399999999999999 36.42" fill="none" stroke="black" stroke-width="5"></path><path d="M 13.68 29.700000000000003 C 14.7 29.73, 14.475000000000001 29.655, 15.72 29.759999999999998 C 17.19 29.939999999999998, 17.205000000000002 29.97, 18.66 30.119999999999997 C 20.1 30.24, 20.384999999999998 30.299999999999997, 21.54 30.36 C 22.41 30.36, 22.560000000000002 30.36, 23.28 30.36 C 23.85 30.36, 23.865000000000002 30.36, 24.42 30.36 C 24.96 30.36, 24.990000000000002 30.42, 25.5 30.36 C 25.98 30.24, 26.1 30.239999999999995, 26.46 30.119999999999997 C 26.700000000000003 30, 26.655 30.165000000000003, 26.94 29.880000000000003 C 27.27 29.43, 27.314999999999998 29.520000000000003, 27.599999999999998 28.98 C 27.839999999999996 28.35, 27.944999999999997 28.424999999999997, 28.08 27.72 C 28.11 26.94, 28.155 27.045, 28.14 26.160000000000004 C 28.08 25.17, 28.2 25.365000000000002, 28.02 24.18 C 27.72 22.799999999999997, 27.75 22.784999999999997, 27.42 21.419999999999998 C 27.060000000000002 20.07, 27.030000000000005 20.459999999999997, 26.700000000000003 18.72 C 26.4 16.59, 26.339999999999996 16.215, 26.099999999999998 14.46 C 25.92 13.08, 25.92 12.855, 25.740000000000002 11.7 C 25.560000000000002 10.77, 25.485000000000003 10.334999999999999, 25.380000000000003 9.84 C 25.35 9.780000000000001, 25.335 9.75, 25.32 9.72 C 25.32 9.72, 25.32 9.72, 25.32 9.72 L 25.32 9.72" fill="none" stroke="black" stroke-width="5"></path><path d="M 18.6 16.56 C 17.97 16.71, 17.955 16.5, 17.34 16.86 C 16.740000000000002 17.43, 16.68 17.31, 16.14 18 C 15.66 18.810000000000002, 15.42 18.87, 15.18 19.62 C 15.18 20.310000000000002, 15 20.325, 15.18 21 C 15.54 21.66, 15.404999999999998 21.795, 15.899999999999999 22.32 C 16.53 22.71, 16.605 22.905, 17.16 23.1 C 17.64 23.1, 17.64 23.130000000000003, 18.12 23.1 C 18.6 23.04, 18.675 23.115000000000002, 19.080000000000002 22.98 C 19.410000000000004 22.77, 19.410000000000004 22.95, 19.740000000000002 22.56 C 20.07 21.99, 20.115 21.99, 20.4 21.419999999999998 C 20.64 20.85, 20.715 20.73, 20.88 20.28 C 20.97 19.950000000000003, 21.044999999999998 20.055, 21.06 19.62 C 21 19.08, 21.060000000000002 19.005, 20.94 18.54 C 20.76 18.15, 20.85 18.06, 20.580000000000002 17.759999999999998 C 20.22 17.549999999999997, 20.265 17.475, 19.86 17.34 C 19.41 17.28, 19.35 17.25, 18.96 17.22 C 18.63 17.22, 18.464999999999996 17.22, 18.299999999999997 17.22 C 18.299999999999997 17.22, 18.299999999999997 17.22, 18.299999999999997 17.22 L 18.299999999999997 17.22" fill="none" stroke="black" stroke-width="5"></path></svg>