<svg xmlns="http://www.w3.org/2000/svg" viewBox="9.661286354064941 3.8000001907348633 20.79871368408203 43.06018352508545" width="20.79871368408203" height="43.06018352508545"><path d="M 10.8 40.019999999999996 C 10.77 39.72, 10.545 39.765, 10.74 39.42 C 11.16 39.03, 11.1 38.894999999999996, 11.58 38.64 C 12.120000000000001 38.52, 11.879999999999999 38.46000000000001, 12.66 38.400000000000006 C 13.68 38.400000000000006, 13.785 38.400000000000006, 14.700000000000001 38.400000000000006 C 15.510000000000002 38.400000000000006, 15.585 38.220000000000006, 16.32 38.400000000000006 C 16.98 38.760000000000005, 17.145000000000003 38.67, 17.64 39.12 C 17.97 39.66, 18.119999999999997 39.405, 18.299999999999997 40.2 C 18.33 41.25, 18.36 41.415, 18.36 42.3 C 18.33 43.019999999999996, 18.644999999999996 43.05, 18.299999999999997 43.74 C 17.64 44.400000000000006, 17.55 44.550000000000004, 16.98 45.06 C 16.5 45.42, 16.455 45.585, 16.02 45.78 C 15.629999999999999 45.81, 15.81 45.9, 15.24 45.839999999999996 C 14.49 45.69, 14.415000000000001 45.72, 13.74 45.54 C 13.14 45.33, 12.989999999999998 45.3, 12.54 45.12 C 12.239999999999998 44.97, 12.165 45.015, 11.94 44.82 C 11.79 44.58, 11.760000000000002 44.76, 11.64 44.339999999999996 C 11.55 43.739999999999995, 11.549999999999999 43.95, 11.459999999999999 43.14 C 11.37 42.12, 11.37 42.089999999999996, 11.28 41.099999999999994 C 11.190000000000001 40.14, 11.145000000000001 40.095, 11.100000000000001 39.18 C 11.100000000000001 38.31, 11.100000000000001 38.595, 11.100000000000001 37.44 C 11.100000000000001 36, 10.995000000000001 36.54, 11.100000000000001 34.56 C 11.31 32.04, 11.205 31.605, 11.52 29.52 C 11.94 27.869999999999997, 12.03 27.494999999999997, 12.36 26.22 C 12.6 25.32, 12.6 25.410000000000004, 12.84 24.42 C 13.08 23.34, 13.14 22.919999999999998, 13.32 22.259999999999998 C 13.44 22.02, 13.334999999999999 22.005000000000003, 13.559999999999999 21.78 C 13.89 21.57, 13.965 21.45, 14.22 21.36 C 14.400000000000002 21.39, 14.325000000000003 21.299999999999997, 14.580000000000002 21.419999999999998 C 14.91 21.63, 14.955 21.525, 15.24 21.84 C 15.48 22.259999999999998, 15.435 22.095, 15.72 22.68 C 16.05 23.43, 16.125 23.4, 16.38 24.18 C 16.560000000000002 24.99, 16.650000000000002 25.124999999999996, 16.740000000000002 25.799999999999997 C 16.740000000000002 26.34, 16.740000000000002 26.61, 16.740000000000002 26.880000000000003 C 16.740000000000002 26.880000000000003, 16.740000000000002 26.880000000000003, 16.740000000000002 26.880000000000003 C 16.740000000000002 26.880000000000003, 16.740000000000002 27.045, 16.740000000000002 26.880000000000003 C 16.740000000000002 26.55, 16.650000000000002 26.775, 16.740000000000002 26.22 C 16.92 25.44, 16.935000000000002 25.515000000000004, 17.1 24.660000000000004 C 17.25 23.73, 17.189999999999998 23.519999999999996, 17.4 22.799999999999997 C 17.67 22.29, 17.445 22.26, 17.94 21.78 C 18.66 21.33, 18.405 21.314999999999998, 19.38 20.88 C 20.61 20.46, 20.595 20.28, 21.84 20.04 C 23.1 19.979999999999997, 23.145 19.95, 24.36 19.919999999999998 C 25.53 19.919999999999998, 25.470000000000002 19.83, 26.700000000000003 19.919999999999998 C 27.990000000000002 20.1, 28.590000000000003 20.175, 29.28 20.28 C 29.37 20.310000000000002, 29.415 20.325, 29.46 20.34 L 29.46 20.34" fill="none" stroke="black" stroke-width="5"></path><path d="M 21.54 4.800000000000001 C 20.85 5.040000000000001, 20.925 4.815, 20.16 5.28 C 19.32 5.970000000000001, 19.215 5.625, 18.48 6.66 C 17.85 8.04, 17.535 8.34, 17.22 9.42 C 17.22 10.2, 17.13 9.93, 17.22 10.98 C 17.4 12.3, 16.98 12.540000000000001, 17.580000000000002 13.620000000000001 C 18.6 14.46, 18.48 14.684999999999999, 19.62 15.299999999999999 C 20.880000000000003 15.690000000000001, 21.15 15.945000000000002, 22.14 16.080000000000002 C 22.86 15.96, 22.875 16.245, 23.580000000000002 15.84 C 24.270000000000003 15.15, 24.51 15.105, 24.96 14.46 C 25.17 13.86, 25.245000000000005 14.115, 25.380000000000003 13.26 C 25.44 12.15, 25.47 11.925, 25.5 11.040000000000001 C 25.5 10.38, 25.695 10.485000000000001, 25.5 9.72 C 25.11 8.850000000000001, 25.14 8.745000000000001, 24.72 7.98 C 24.27 7.32, 24.345 7.275, 23.82 6.66 C 23.22 6.09, 23.175 5.925000000000001, 22.62 5.5200000000000005 C 22.11 5.28, 22.155 5.205, 21.6 5.04 C 21 4.95, 20.7 4.905, 20.4 4.86 L 20.4 4.86" fill="none" stroke="black" stroke-width="5"></path></svg>