<svg xmlns="http://www.w3.org/2000/svg" viewBox="10.786666870117188 2.9000000953674316 19 39.62000036239624" width="19" height="39.62000036239624"><path d="M 12.54 5.04 C 12.36 6.0600000000000005, 12.36 5.91, 12.18 7.08 C 12 8.4, 11.91 8.385000000000002, 11.82 9.72 C 11.82 11.07, 11.82 11.384999999999998, 11.82 12.419999999999998 C 11.82 13.139999999999999, 11.745000000000001 13.049999999999999, 11.82 13.86 C 11.97 14.76, 11.91 14.925, 12.120000000000001 15.66 C 12.39 16.229999999999997, 12.36 16.409999999999997, 12.66 16.799999999999997 C 12.99 17.009999999999998, 12.675 16.935, 13.32 17.22 C 14.280000000000001 17.58, 13.98 17.655, 15.24 17.94 C 16.8 18.15, 16.905 18.134999999999998, 18.36 18.36 C 19.71 18.6, 19.77 18.675, 21.06 18.84 C 22.29 18.93, 22.395 18.975, 23.52 19.02 C 24.54 19.02, 24.735 19.02, 25.56 19.02 C 26.189999999999998 19.02, 26.43 19.02, 26.82 19.02 C 26.97 19.02, 26.879999999999995 19.2, 27.119999999999997 19.02 C 27.45 18.659999999999997, 27.555 18.674999999999997, 27.78 18.299999999999997 C 27.9 17.909999999999997, 27.84 18.195, 28.02 17.52 C 28.259999999999998 16.560000000000002, 28.32 16.665000000000003, 28.5 15.600000000000001 C 28.62 14.43, 28.68 14.64, 28.740000000000002 13.26 C 28.740000000000002 11.67, 28.740000000000002 11.504999999999999, 28.740000000000002 10.08 C 28.740000000000002 8.82, 28.845000000000002 8.805, 28.740000000000002 7.5600000000000005 C 28.53 6.33, 28.455 5.865, 28.32 5.1 C 28.26 4.8, 28.230000000000004 4.65, 28.200000000000003 4.5 C 28.200000000000003 4.5, 28.200000000000003 4.53, 28.200000000000003 4.5 C 28.200000000000003 4.4399999999999995, 28.230000000000004 4.529999999999999, 28.200000000000003 4.38 C 28.14 4.140000000000001, 28.11 4.0200000000000005, 28.08 3.9000000000000004 L 28.08 3.9000000000000004" fill="none" stroke="black" stroke-width="5"></path><path d="M 19.740000000000002 6.36 C 19.11 6.63, 19.215000000000003 6.359999999999999, 18.48 6.8999999999999995 C 17.64 7.709999999999999, 17.415 7.6499999999999995, 16.799999999999997 8.52 C 16.409999999999997 9.45, 16.185 9.524999999999999, 16.02 10.379999999999999 C 16.08 11.16, 15.735 11.219999999999999, 16.14 11.94 C 16.89 12.6, 16.89 12.795, 17.64 13.26 C 18.39 13.53, 18.27 13.635, 19.14 13.799999999999999 C 20.130000000000003 13.86, 20.295 14.114999999999998, 21.12 13.919999999999998 C 21.78 13.469999999999999, 21.87 13.544999999999998, 22.44 13.02 C 22.92 12.42, 23.115 12.42, 23.4 11.82 C 23.490000000000002 11.22, 23.535 11.16, 23.580000000000002 10.620000000000001 C 23.580000000000002 10.14, 23.625000000000004 10.275, 23.580000000000002 9.66 C 23.490000000000002 8.91, 23.669999999999998 8.790000000000001, 23.4 8.16 C 22.95 7.65, 22.905 7.529999999999999, 22.5 7.14 C 22.14 6.87, 22.200000000000003 6.795, 21.78 6.6000000000000005 C 21.3 6.48, 21.225 6.42, 20.82 6.36 C 20.490000000000002 6.36, 20.355 6.36, 20.16 6.36 C 20.1 6.36, 20.07 6.36, 20.04 6.36 C 20.04 6.36, 20.04 6.36, 20.04 6.36 L 20.04 6.36" fill="none" stroke="black" stroke-width="5"></path><path d="M 19.740000000000002 18.72 C 19.68 18.81, 19.635 18.735, 19.62 18.9 C 19.65 19.14, 19.62 19.034999999999997, 19.68 19.38 C 19.77 19.83, 19.814999999999998 19.455000000000002, 19.86 20.28 C 19.86 21.48, 19.86 20.895, 19.86 22.68 C 19.86 25.05, 19.86 25.395000000000003, 19.86 27.42 C 19.86 29.1, 19.86 29.37, 19.86 30.78 C 19.86 31.92, 19.86 31.935000000000002, 19.86 33.06 C 19.86 34.17, 19.86 34.065, 19.86 35.28 C 19.86 36.6, 19.86 36.795, 19.86 37.92 C 19.86 38.85, 19.86 39.075, 19.86 39.78 C 19.86 40.260000000000005, 19.83 40.38, 19.86 40.74 C 19.92 40.980000000000004, 19.95 41.025, 19.98 41.22 C 19.98 41.37, 19.98 41.44499999999999, 19.98 41.519999999999996 C 19.98 41.519999999999996, 19.98 41.519999999999996, 19.98 41.519999999999996 C 19.98 41.519999999999996, 19.98 41.519999999999996, 19.98 41.519999999999996 C 19.98 41.519999999999996, 19.98 41.519999999999996, 19.98 41.519999999999996 L 19.98 41.519999999999996" fill="none" stroke="black" stroke-width="5"></path></svg>