<svg xmlns="http://www.w3.org/2000/svg" viewBox="11.291061401367188 3.260000228881836 22.52893829345703 43.08664512634277" width="22.52893829345703" height="43.08664512634277"><path d="M 13.919999999999998 4.26 C 13.77 6.0600000000000005, 13.98 4.9350000000000005, 13.620000000000001 7.86 C 13.05 11.91, 12.81 13.080000000000002, 12.48 15.96 C 12.39 17.67, 12.254999999999999 17.82, 12.299999999999999 19.38 C 12.48 20.79, 12.3 21.135, 12.66 22.200000000000003 C 13.2 22.92, 13.11 23.07, 13.74 23.64 C 14.46 24.060000000000002, 14.37 24.435000000000002, 15.18 24.48 C 16.08 24.15, 15.9 25.11, 16.98 23.82 C 18.240000000000002 21.57, 18.855 20.700000000000003, 19.5 19.32 C 19.53 18.81, 19.544999999999998 18.629999999999995, 19.56 18.299999999999997 C 19.56 18.15, 19.56 18.075, 19.56 18 C 19.56 18, 19.514999999999997 17.745, 19.56 18 C 19.65 18.509999999999998, 19.560000000000002 18.134999999999998, 19.740000000000002 19.02 C 20.01 20.28, 19.860000000000003 20.549999999999997, 20.28 21.54 C 20.85 22.259999999999998, 20.61 22.335, 21.419999999999998 22.98 C 22.47 23.549999999999997, 22.485 23.819999999999997, 23.52 24.119999999999997 C 24.54 24.15, 24.45 24.119999999999997, 25.56 24.18 C 26.759999999999998 24.27, 26.91 24.314999999999998, 27.96 24.36 C 28.86 24.36, 29.025 24.525, 29.759999999999998 24.36 C 30.33 24.03, 30.345000000000002 24.435000000000002, 30.900000000000002 23.700000000000003 C 31.44 22.560000000000002, 31.560000000000002 23.265, 31.98 21.419999999999998 C 32.28 18.869999999999997, 32.43 18.66, 32.58 16.32 C 32.58 14.19, 32.58 14.219999999999999, 32.58 12.059999999999999 C 32.58 9.87, 32.58 9.33, 32.58 7.68 C 32.58 6.57, 32.61 6.045, 32.58 5.46 C 32.519999999999996 5.4, 32.49 5.37, 32.46 5.34 C 32.46 5.34, 32.475 5.37, 32.46 5.34 L 32.400000000000006 5.22" fill="none" stroke="black" stroke-width="5"></path><path d="M 24.78 6.540000000000001 C 24.060000000000002 6.6000000000000005, 24.195 6.495000000000001, 23.34 6.66 C 22.35 6.93, 22.095 6.944999999999999, 21.36 7.199999999999999 C 20.88 7.4399999999999995, 21.075 7.02, 20.4 7.68 C 19.53 8.76, 19.095 9, 18.66 9.84 C 18.66 10.440000000000001, 18.48 10.41, 18.66 11.040000000000001 C 19.02 11.7, 18.765 11.834999999999999, 19.38 12.36 C 20.25 12.75, 20.265 12.9, 21.12 13.14 C 21.96 13.23, 21.764999999999997 13.23, 22.799999999999997 13.32 C 24.029999999999998 13.41, 24.119999999999997 13.59, 25.259999999999998 13.5 C 26.31 13.23, 26.535 13.38, 27.36 12.96 C 27.96 12.39, 28.125 12.525, 28.56 11.82 C 28.83 10.98, 28.919999999999998 10.845, 29.099999999999998 10.14 C 29.189999999999998 9.57, 29.415 9.435, 29.28 9 C 28.92 8.7, 28.964999999999996 8.7, 28.56 8.399999999999999 C 28.11 8.1, 28.215000000000003 8.100000000000001, 27.660000000000004 7.800000000000001 C 27 7.5, 26.909999999999997 7.425, 26.339999999999996 7.199999999999999 C 25.86 7.049999999999999, 25.86 7.02, 25.380000000000003 6.8999999999999995 C 24.900000000000002 6.8100000000000005, 24.660000000000004 6.765000000000001, 24.42 6.720000000000001 C 24.42 6.720000000000001, 24.450000000000003 6.720000000000001, 24.42 6.720000000000001 L 24.299999999999997 6.720000000000001" fill="none" stroke="black" stroke-width="5"></path><path d="M 22.32 23.64 C 22.32 24.51, 22.335 24.21, 22.32 25.380000000000003 C 22.29 26.85, 22.275 26.97, 22.259999999999998 28.32 C 22.259999999999998 29.55, 22.259999999999998 29.355000000000004, 22.259999999999998 30.78 C 22.259999999999998 32.4, 22.259999999999998 32.474999999999994, 22.259999999999998 34.019999999999996 C 22.259999999999998 35.489999999999995, 22.349999999999998 35.415, 22.259999999999998 36.96 C 22.08 38.58, 22.08 38.80500000000001, 21.9 40.2 C 21.72 41.370000000000005, 21.63 41.76, 21.54 42.54 C 21.54 42.93, 21.54 42.855, 21.54 43.32 C 21.54 43.86, 21.54 44.05500000000001, 21.54 44.400000000000006 C 21.54 44.550000000000004, 21.54 44.550000000000004, 21.54 44.7 C 21.54 44.85, 21.54 44.88, 21.54 45 C 21.54 45.09, 21.54 45.135, 21.54 45.18 C 21.54 45.18, 21.465 45.15, 21.54 45.18 C 21.689999999999998 45.239999999999995, 21.645 45.434999999999995, 21.84 45.3 C 22.08 44.97, 22.035 44.97, 22.32 44.64 C 22.65 44.31, 22.71 44.355000000000004, 22.98 43.980000000000004 C 23.189999999999998 43.56, 23.25 43.620000000000005, 23.4 43.14 C 23.490000000000002 42.6, 23.43 42.81, 23.580000000000002 42.06 C 23.79 41.1, 23.76 41.025000000000006, 24 40.14 C 24.27 39.33, 24.134999999999998 39.419999999999995, 24.54 38.519999999999996 C 25.08 37.53, 24.735 37.53, 25.619999999999997 36.54 C 26.849999999999998 35.55, 26.699999999999996 35.22, 28.08 34.56 C 29.61 34.230000000000004, 30.15 34.080000000000005, 31.14 33.900000000000006 C 31.59 33.870000000000005, 31.619999999999997 33.855, 32.04 33.839999999999996 C 32.43 33.839999999999996, 32.625 33.839999999999996, 32.82 33.839999999999996 L 32.82 33.839999999999996" fill="none" stroke="black" stroke-width="5"></path></svg>