<svg xmlns="http://www.w3.org/2000/svg" viewBox="9.920000076293945 5.300000190734863 21.980000495910645 41.29999828338623" width="21.980000495910645" height="41.29999828338623"><path d="M 17.759999999999998 6.300000000000001 C 16.71 8.4, 16.905 7.41, 15.66 10.5 C 14.219999999999999 14.58, 13.739999999999998 15.36, 12.78 18.66 C 12.3 21.18, 12.045 21.6, 11.82 23.700000000000003 C 11.85 25.380000000000003, 11.745 25.83, 11.879999999999999 27.06 C 12.12 27.839999999999996, 11.73 28.289999999999996, 12.36 28.619999999999997 C 13.379999999999999 28.5, 13.079999999999998 29.295, 14.399999999999999 28.380000000000003 C 16.02 26.67, 16.395 26.61, 17.64 24.96 C 18.509999999999998 23.37, 18.884999999999998 22.845, 19.38 21.78 C 19.5 21.240000000000002, 19.5 20.985000000000003, 19.62 20.700000000000003 C 19.740000000000002 20.67, 19.725 20.400000000000002, 19.86 20.64 C 20.009999999999998 21.15, 20.04 20.535, 20.16 21.66 C 20.25 23.4, 20.009999999999998 23.73, 20.34 25.14 C 20.91 26.22, 20.7 26.504999999999995, 21.48 27.299999999999997 C 22.47 27.81, 21.825000000000003 27.93, 23.46 28.32 C 25.740000000000002 28.59, 26.235 28.785, 28.02 28.86 C 29.31 28.74, 29.879999999999995 28.68, 30.599999999999998 28.619999999999997 C 30.75 28.619999999999997, 30.825000000000003 28.619999999999997, 30.900000000000002 28.619999999999997 C 30.900000000000002 28.619999999999997, 30.900000000000002 28.619999999999997, 30.900000000000002 28.619999999999997 L 30.900000000000002 28.619999999999997" fill="none" stroke="black" stroke-width="5"></path><path d="M 25.799999999999997 11.040000000000001 C 24.869999999999997 11.13, 24.825000000000003 10.71, 23.94 11.22 C 23.1 12.150000000000002, 22.724999999999998 12.075000000000003, 22.259999999999998 13.080000000000002 C 22.17 14.16, 21.93 14.055, 22.080000000000002 15.24 C 22.47 16.53, 22.245 16.77, 22.86 17.82 C 23.7 18.630000000000003, 23.505 18.990000000000002, 24.54 19.44 C 25.77 19.53, 25.95 19.785, 27 19.62 C 27.87 19.200000000000003, 28.095000000000002 19.41, 28.740000000000002 18.78 C 29.16 17.94, 29.369999999999997 17.745, 29.58 17.1 C 29.58 16.650000000000002, 29.58 16.740000000000002, 29.58 16.200000000000003 C 29.58 15.570000000000002, 29.729999999999997 15.720000000000002, 29.58 14.940000000000001 C 29.28 14.010000000000002, 29.415 13.890000000000002, 28.98 13.080000000000002 C 28.409999999999997 12.39, 28.379999999999995 12.195, 27.839999999999996 11.7 C 27.33 11.4, 27.27 11.25, 26.82 11.100000000000001 C 26.43 11.100000000000001, 26.265 11.100000000000001, 26.04 11.100000000000001 C 25.98 11.100000000000001, 25.950000000000003 11.100000000000001, 25.92 11.100000000000001 L 25.92 11.100000000000001" fill="none" stroke="black" stroke-width="5"></path><path d="M 22.14 27.660000000000004 C 21.9 28.26, 21.825 28.065, 21.66 28.86 C 21.57 29.849999999999998, 21.405 29.804999999999996, 21.48 30.839999999999996 C 21.72 31.919999999999998, 21.585 32.1, 21.96 33 C 22.47 33.72, 22.47 33.795, 22.98 34.44 C 23.490000000000002 35.01, 23.445 35.025, 24 35.58 C 24.6 36.120000000000005, 24.435000000000002 36.225, 25.200000000000003 36.660000000000004 C 26.130000000000003 36.99, 26.145 37.11, 27.06 37.32 C 27.96 37.41, 28.185 37.41, 28.86 37.5 C 29.31 37.59, 29.504999999999995 37.635, 29.759999999999998 37.68 C 29.82 37.68, 29.85 37.68, 29.880000000000003 37.68 C 29.880000000000003 37.68, 29.880000000000003 37.68, 29.880000000000003 37.68 C 29.880000000000003 37.68, 29.880000000000003 37.68, 29.880000000000003 37.68 C 29.880000000000003 37.68, 29.970000000000002 37.68, 29.880000000000003 37.68 C 29.700000000000003 37.68, 30.03 37.695, 29.52 37.68 C 28.68 37.65, 28.83 37.635, 27.839999999999996 37.62 C 26.699999999999996 37.62, 26.61 37.62, 25.56 37.62 C 24.6 37.62, 24.57 37.589999999999996, 23.64 37.62 C 22.740000000000002 37.68, 22.845 37.545, 21.84 37.74 C 20.73 38.07000000000001, 20.715 38.025000000000006, 19.62 38.400000000000006 C 18.54 38.82000000000001, 18.465 38.715, 17.46 39.24 C 16.53 39.870000000000005, 16.380000000000003 39.855000000000004, 15.600000000000001 40.5 C 14.97 41.16, 14.865 41.01, 14.34 41.82 C 13.92 42.78, 13.725 42.975, 13.5 43.74 C 13.47 44.31, 13.455000000000002 44.445, 13.440000000000001 44.88 C 13.440000000000001 45.18000000000001, 13.440000000000001 45.330000000000005, 13.440000000000001 45.480000000000004 C 13.440000000000001 45.480000000000004, 13.440000000000001 45.45, 13.440000000000001 45.480000000000004 C 13.440000000000001 45.54, 13.440000000000001 45.56999999999999, 13.440000000000001 45.599999999999994 L 13.440000000000001 45.599999999999994" fill="none" stroke="black" stroke-width="5"></path><path d="M 10.92 34.56 C 11.34 34.71, 11.205 34.575, 11.76 34.86 C 12.45 35.28, 12.3 35.175000000000004, 13.14 35.7 C 14.13 36.33, 14.235000000000001 36.345, 15.120000000000001 36.96 C 15.9 37.56, 15.99 37.605000000000004, 16.68 38.160000000000004 C 17.28 38.67, 17.475 38.805, 17.88 39.18 C 18.089999999999996 39.42, 18.194999999999997 39.540000000000006, 18.299999999999997 39.660000000000004 C 18.299999999999997 39.660000000000004, 18.299999999999997 39.660000000000004, 18.299999999999997 39.660000000000004 L 18.299999999999997 39.660000000000004" fill="none" stroke="black" stroke-width="5"></path></svg>