<svg xmlns="http://www.w3.org/2000/svg" viewBox="9.739999771118164 3.5 21.920000076293945 41.47999954223633" width="21.920000076293945" height="41.47999954223633"><path d="M 17.52 4.5 C 17.009999999999998 5.7299999999999995, 17.16 5.264999999999999, 16.5 6.959999999999999 C 15.69 9.12, 15.584999999999999 8.864999999999998, 14.879999999999999 11.28 C 14.28 13.95, 14.024999999999999 14.040000000000001, 13.68 16.62 C 13.59 19.11, 13.545 19.905, 13.5 21.6 C 13.5 22.5, 13.17 22.725, 13.5 23.4 C 14.16 23.849999999999998, 13.755 24.345, 14.82 24.299999999999997 C 16.29 23.759999999999998, 16.349999999999998 24.314999999999998, 17.759999999999998 23.22 C 19.11 21.57, 19.635 21.029999999999998, 20.46 19.919999999999998 C 20.759999999999998 19.35, 20.88 19.14, 21.06 18.78 C 21.119999999999997 18.630000000000003, 21.15 18.555, 21.18 18.48 C 21.18 18.48, 21.18 17.985, 21.18 18.48 C 21.18 19.47, 21.165 19.515, 21.18 20.46 C 21.21 21.36, 21.075000000000003 21.479999999999997, 21.240000000000002 22.259999999999998 C 21.54 22.92, 21.375 22.98, 21.84 23.580000000000002 C 22.47 24.120000000000005, 21.93 24.195000000000004, 23.1 24.660000000000004 C 24.810000000000002 25.050000000000004, 25.035 25.32, 26.52 25.44 C 27.78 25.29, 28.169999999999998 25.35, 29.04 25.14 C 29.52 24.869999999999997, 29.64 24.794999999999998, 30 24.599999999999998 C 30.240000000000002 24.479999999999997, 30.36 24.419999999999998, 30.48 24.36 L 30.48 24.36" fill="none" stroke="black" stroke-width="5"></path><path d="M 28.619999999999997 8.64 C 27.81 8.4, 28.049999999999997 8.31, 27 8.16 C 25.71 8.100000000000001, 25.53 7.920000000000001, 24.42 8.040000000000001 C 23.490000000000002 8.34, 23.415 8.13, 22.56 8.64 C 21.78 9.36, 21.435 9.285, 21 10.08 C 20.91 10.95, 20.79 10.875, 20.82 11.82 C 20.97 12.84, 20.700000000000003 13.065, 21.12 13.86 C 21.810000000000002 14.43, 21.21 14.625, 22.5 15 C 24.39 15.18, 24.57 15.465, 26.28 15.36 C 27.81 14.97, 28.364999999999995 15.045000000000002, 29.339999999999996 14.580000000000002 C 29.759999999999998 14.040000000000001, 29.865 14.13, 30.18 13.5 C 30.39 12.78, 30.494999999999997 12.735, 30.599999999999998 12.059999999999999 C 30.599999999999998 11.43, 30.735 11.31, 30.599999999999998 10.8 C 30.33 10.41, 30.435 10.44, 30.06 10.02 C 29.58 9.57, 29.624999999999996 9.465, 29.099999999999998 9.120000000000001 C 28.53 8.88, 28.29 8.775, 27.96 8.64 C 27.87 8.61, 27.825000000000003 8.595, 27.78 8.58 L 27.78 8.58" fill="none" stroke="black" stroke-width="5"></path><path d="M 23.700000000000003 24.660000000000004 C 23.400000000000002 25.14, 23.475 24.9, 23.1 25.619999999999997 C 22.650000000000002 26.58, 23.055000000000003 26.174999999999997, 22.200000000000003 27.54 C 20.94 29.31, 20.79 29.669999999999998, 19.68 31.08 C 18.72 32.129999999999995, 19.455 31.845, 17.759999999999998 33.18 C 15.329999999999998 34.8, 14.654999999999998 35.265, 12.899999999999999 36.42 C 11.82 37.11, 11.28 37.455, 10.74 37.8 L 10.74 37.8" fill="none" stroke="black" stroke-width="5"></path><path d="M 26.339999999999996 31.68 C 26.25 32.370000000000005, 26.835 31.875, 26.160000000000004 33.06 C 24.900000000000002 34.74, 24.855000000000004 34.665000000000006, 23.64 36.42 C 22.47 38.25, 22.365 38.655, 21.299999999999997 40.08 C 20.339999999999996 41.099999999999994, 20.205 41.339999999999996, 19.38 42.12 C 18.689999999999998 42.66, 18.9 42.735, 18 43.2 C 16.89 43.59, 16.335 43.785000000000004, 15.78 43.980000000000004 L 15.78 43.980000000000004" fill="none" stroke="black" stroke-width="5"></path></svg>