<svg xmlns="http://www.w3.org/2000/svg" viewBox="6.3691229820251465 9.260000228881836 24.290876865386963 29.420000076293945" width="24.290876865386963" height="29.420000076293945"><path d="M 11.040000000000001 37.68 C 10.8 36.81, 10.995000000000001 37.62, 10.56 35.94 C 9.93 33.45, 9.885000000000002 33.375, 9.3 30.96 C 8.760000000000002 28.62, 8.700000000000001 28.650000000000002, 8.22 26.28 C 7.800000000000001 23.880000000000003, 7.59 23.19, 7.38 21.48 C 7.38 20.46, 7.365 20.655, 7.38 19.44 C 7.41 18.03, 7.305 17.925, 7.4399999999999995 16.62 C 7.68 15.420000000000002, 7.5600000000000005 15.375, 7.92 14.22 C 8.399999999999999 13.11, 8.489999999999998 12.72, 8.879999999999999 12 C 9.18 11.67, 8.985 11.73, 9.48 11.34 C 10.17 10.89, 10.17 10.709999999999999, 10.86 10.44 C 11.55 10.35, 11.46 10.26, 12.24 10.26 C 13.11 10.35, 13.305 10.305, 13.98 10.44 C 14.46 10.620000000000001, 14.280000000000001 10.5, 14.940000000000001 10.8 C 15.780000000000001 11.22, 15.840000000000002 11.025, 16.62 11.64 C 17.34 12.45, 17.43 12.225, 18.06 13.26 C 18.6 14.52, 18.705000000000002 14.534999999999998, 19.14 15.78 C 19.47 17.01, 19.499999999999996 16.860000000000003, 19.799999999999997 18.240000000000002 C 20.07 19.77, 20.205 19.874999999999996, 20.34 21.299999999999997 C 20.34 22.619999999999997, 20.295 23.01, 20.34 23.94 C 20.43 24.48, 20.475 24.75, 20.52 25.02 C 20.52 25.02, 20.52 25.02, 20.52 25.02 C 20.52 25.02, 20.474999999999998 24.96, 20.52 25.02 C 20.61 25.14, 20.385 25.2, 20.700000000000003 25.259999999999998 C 21.240000000000002 25.259999999999998, 21.21 25.259999999999998, 21.78 25.259999999999998 C 22.380000000000003 25.259999999999998, 22.455000000000002 25.259999999999998, 22.98 25.259999999999998 C 23.43 25.259999999999998, 23.34 25.259999999999998, 23.88 25.259999999999998 C 24.509999999999998 25.259999999999998, 24.54 25.199999999999996, 25.14 25.259999999999998 C 25.71 25.38, 25.8 25.335, 26.28 25.5 C 26.67 25.71, 26.7 25.605000000000004, 27.06 25.92 C 27.39 26.34, 27.299999999999997 26.144999999999996, 27.72 26.759999999999998 C 28.23 27.57, 28.335 27.555000000000003, 28.740000000000002 28.380000000000003 C 29.04 29.22, 29.144999999999996 29.265, 29.339999999999996 30.06 C 29.43 30.81, 29.445 30.825, 29.52 31.56 C 29.58 32.28, 29.61 32.4, 29.64 33 C 29.64 33.480000000000004, 29.64 33.555, 29.64 33.96 C 29.64 34.29, 29.64 34.455, 29.64 34.62 C 29.64 34.62, 29.64 34.62, 29.64 34.62 C 29.64 34.62, 29.64 34.62, 29.64 34.62 C 29.64 34.62, 29.655 34.574999999999996, 29.64 34.62 L 29.58 34.8" fill="none" stroke="black" stroke-width="5"></path><path d="M 24.96 12.72 C 24.54 13.2, 24.449999999999996 13.095, 24.119999999999997 13.68 C 23.88 14.37, 23.759999999999998 14.444999999999999, 23.64 15.059999999999999 C 23.64 15.6, 23.64 15.42, 23.64 16.14 C 23.64 17.04, 23.445 17.055, 23.64 17.94 C 24.03 18.810000000000002, 23.985 19.02, 24.42 19.68 C 24.900000000000002 20.130000000000003, 24.870000000000005 20.265, 25.380000000000003 20.580000000000002 C 25.92 20.76, 26.040000000000003 20.85, 26.46 20.94 C 26.759999999999998 20.94, 26.715 20.94, 27.06 20.94 C 27.449999999999996 20.94, 27.449999999999996 21.075000000000003, 27.839999999999996 20.94 C 28.229999999999997 20.67, 28.334999999999997 20.64, 28.619999999999997 20.4 C 28.799999999999997 20.189999999999998, 28.785 20.295, 28.98 19.98 C 29.19 19.560000000000002, 29.235000000000003 19.62, 29.400000000000002 19.14 C 29.520000000000003 18.6, 29.580000000000002 18.509999999999998, 29.64 18.06 C 29.64 17.7, 29.685000000000002 17.759999999999998, 29.64 17.34 C 29.55 16.86, 29.655 16.875, 29.46 16.38 C 29.16 15.87, 29.174999999999997 15.899999999999999, 28.86 15.36 C 28.53 14.79, 28.545 14.715, 28.200000000000003 14.22 C 27.840000000000003 13.8, 27.825000000000003 13.694999999999999, 27.48 13.379999999999999 C 27.15 13.17, 27.12 13.125, 26.82 12.96 C 26.55 12.84, 26.565 12.81, 26.28 12.72 C 25.98 12.66, 26.07 12.600000000000001, 25.68 12.600000000000001 C 25.2 12.66, 25.08 12.63, 24.72 12.72 C 24.48 12.84, 24.36 12.9, 24.240000000000002 12.96 C 24.240000000000002 12.96, 24.240000000000002 12.96, 24.240000000000002 12.96 L 24.240000000000002 12.96" fill="none" stroke="black" stroke-width="5"></path><path d="M 13.98 24.42 C 13.98 24.96, 13.89 25.035, 13.98 25.5 C 14.16 25.89, 14.175 26.085, 14.34 26.28 C 14.49 26.28, 14.49 26.700000000000003, 14.64 26.28 C 14.790000000000001 25.439999999999998, 14.865000000000002 25.394999999999996, 14.940000000000001 24.599999999999998 C 14.940000000000001 23.85, 15.030000000000001 23.595, 14.940000000000001 23.1 C 14.760000000000002 22.86, 14.865000000000002 22.71, 14.580000000000002 22.62 C 14.190000000000001 22.68, 14.16 22.380000000000003, 13.799999999999999 22.740000000000002 C 13.469999999999999 23.4, 13.26 23.46, 13.14 24.06 C 13.23 24.6, 13.035 24.705000000000002, 13.32 25.14 C 13.8 25.47, 13.965 25.634999999999998, 14.28 25.799999999999997 C 14.43 25.799999999999997, 14.355000000000002 26.009999999999998, 14.580000000000002 25.799999999999997 C 14.88 25.38, 15.015 25.44, 15.18 24.96 C 15.21 24.42, 15.27 24.27, 15.24 23.88 C 15.149999999999999 23.64, 15.224999999999998 23.549999999999997, 15.059999999999999 23.4 C 14.82 23.34, 14.895000000000001 23.205, 14.580000000000002 23.28 C 14.190000000000001 23.490000000000002, 14.1 23.430000000000003, 13.799999999999999 23.700000000000003 C 13.59 24.03, 13.469999999999999 23.880000000000003, 13.379999999999999 24.36 C 13.41 24.99, 13.290000000000001 25.185, 13.440000000000001 25.619999999999997 C 13.71 25.86, 13.8 25.949999999999996, 13.98 26.099999999999998 L 14.16 26.22" fill="none" stroke="black" stroke-width="5"></path></svg>