<svg xmlns="http://www.w3.org/2000/svg" viewBox="15.060001373291016 2.5245988368988037 13.479999542236328 41.01540207862854" width="13.479999542236328" height="41.01540207862854"><path d="M 23.4 3.9000000000000004 C 22.979999999999997 3.72, 23.159999999999997 3.63, 22.56 3.54 C 21.78 3.54, 21.825 3.51, 21 3.54 C 20.13 3.6, 20.084999999999997 3.4050000000000002, 19.259999999999998 3.66 C 18.48 4.11, 18.330000000000002 4.050000000000001, 17.700000000000003 4.5600000000000005 C 17.220000000000002 5.13, 17.115000000000002 4.709999999999999, 16.740000000000002 5.699999999999999 C 16.470000000000002 7.109999999999999, 16.335 7.139999999999999, 16.200000000000003 8.52 C 16.200000000000003 9.870000000000001, 15.885000000000003 10.14, 16.200000000000003 11.22 C 16.830000000000002 12.030000000000001, 16.71 12.195, 17.46 12.84 C 18.330000000000002 13.32, 18.345000000000002 13.485, 19.200000000000003 13.799999999999999 C 20.04 13.95, 19.965 14.025, 20.88 14.100000000000001 C 21.869999999999997 14.100000000000001, 21.915 14.205000000000002, 22.86 14.100000000000001 C 23.76 13.89, 23.985000000000003 13.86, 24.660000000000004 13.68 C 25.11 13.53, 25.125 13.725, 25.56 13.379999999999999 C 25.98 12.84, 26.130000000000003 12.959999999999999, 26.400000000000002 12.299999999999999 C 26.520000000000003 11.52, 26.580000000000002 11.46, 26.64 10.74 C 26.64 10.08, 26.64 9.915, 26.64 9.42 C 26.64 9.09, 26.73 9.24, 26.64 8.76 C 26.46 8.129999999999999, 26.475 8.055, 26.28 7.5 C 26.07 7.0200000000000005, 26.085 6.990000000000001, 25.86 6.540000000000001 C 25.62 6.12, 25.650000000000002 6.074999999999999, 25.380000000000003 5.699999999999999 C 25.080000000000002 5.369999999999999, 25.050000000000004 5.37, 24.78 5.04 C 24.54 4.71, 24.555 4.65, 24.299999999999997 4.38 C 24.029999999999998 4.17, 24.014999999999997 4.125, 23.759999999999998 3.96 C 23.52 3.84, 23.4 3.78, 23.28 3.7199999999999998 L 23.28 3.7199999999999998" fill="none" stroke="black" stroke-width="5"></path><path d="M 19.200000000000003 12.600000000000001 C 19.200000000000003 13.110000000000001, 19.200000000000003 12.765, 19.200000000000003 13.620000000000001 C 19.200000000000003 14.82, 19.200000000000003 14.985, 19.200000000000003 16.02 C 19.200000000000003 16.89, 19.245000000000005 16.619999999999997, 19.200000000000003 17.759999999999998 C 19.11 19.17, 19.11 18.96, 19.02 20.580000000000002 C 18.93 22.410000000000004, 18.884999999999998 22.605000000000004, 18.84 24.240000000000002 C 18.84 25.68, 18.84 25.86, 18.84 27.119999999999997 C 18.84 28.2, 18.93 27.615000000000002, 18.84 29.28 C 18.66 31.53, 18.585 31.905, 18.48 33.78 C 18.45 35.28, 18.435 35.595, 18.419999999999998 36.78 C 18.419999999999998 37.65, 18.419999999999998 37.8, 18.419999999999998 38.519999999999996 C 18.419999999999998 39.09, 18.419999999999998 39.03, 18.419999999999998 39.660000000000004 C 18.419999999999998 40.35, 18.419999999999998 40.620000000000005, 18.419999999999998 41.04 C 18.419999999999998 41.19, 18.419999999999998 41.19, 18.419999999999998 41.339999999999996 C 18.419999999999998 41.489999999999995, 18.374999999999996 41.49, 18.419999999999998 41.64 C 18.509999999999998 41.79, 18.405 41.805, 18.6 41.94 C 18.900000000000002 42.06, 18.975 42.12, 19.200000000000003 42.18 C 19.35 42.18, 19.335 42.18, 19.5 42.18 C 19.68 42.18, 19.56 42.18, 19.86 42.18 C 20.28 42.18, 19.995000000000005 42.18, 20.700000000000003 42.18 C 21.69 42.18, 21.810000000000002 42.135, 22.68 42.18 C 23.43 42.269999999999996, 23.58 42.269999999999996, 24.18 42.36 C 24.63 42.45, 24.584999999999997 42.495, 25.08 42.54 C 25.62 42.54, 25.770000000000003 42.54, 26.160000000000004 42.54 C 26.400000000000002 42.54, 26.400000000000002 42.54, 26.64 42.54 C 26.88 42.54, 26.97 42.54, 27.119999999999997 42.54 C 27.18 42.54, 27.135 42.54, 27.240000000000002 42.54 C 27.39 42.54, 27.465 42.54, 27.54 42.54 L 27.54 42.54" fill="none" stroke="black" stroke-width="5"></path></svg>