<svg xmlns="http://www.w3.org/2000/svg" viewBox="12.380000114440918 2.4200000762939453 22.340001106262207 44.01999855041504" width="22.340001106262207" height="44.01999855041504"><path d="M 13.379999999999999 25.08 C 13.98 25.08, 13.89 25.14, 14.580000000000002 25.08 C 15.360000000000001 24.959999999999997, 15.36 24.974999999999994, 16.14 24.839999999999996 C 16.92 24.689999999999998, 17.010000000000005 24.63, 17.700000000000003 24.54 C 18.3 24.509999999999998, 18.165 24.735, 18.9 24.48 C 19.77 24, 19.875 24.06, 20.64 23.52 C 21.3 22.92, 21.375 22.875, 21.96 22.32 C 22.47 21.81, 22.305 22.109999999999996, 22.98 21.299999999999997 C 23.82 20.189999999999998, 24.180000000000003 20.07, 24.660000000000004 19.080000000000002 C 24.78 18.21, 24.840000000000003 17.85, 24.900000000000002 17.34 C 24.900000000000002 17.189999999999998, 24.900000000000002 17.115, 24.900000000000002 17.04 C 24.900000000000002 17.04, 24.900000000000002 17.009999999999998, 24.900000000000002 17.04 C 24.900000000000002 17.1, 25.125000000000004 16.695, 24.900000000000002 17.16 C 24.450000000000003 18.03, 24.39 17.79, 24 18.9 C 23.67 20.25, 23.52 20.73, 23.34 21.6 C 23.310000000000002 21.990000000000002, 23.295 22.02, 23.28 22.38 C 23.28 22.71, 22.965000000000003 22.695, 23.28 23.04 C 23.91 23.4, 23.49 23.58, 24.54 23.759999999999998 C 26.009999999999998 23.759999999999998, 26.355 23.759999999999998, 27.48 23.759999999999998 C 28.259999999999998 23.759999999999998, 28.41 23.849999999999998, 29.04 23.759999999999998 C 29.52 23.58, 29.445 23.819999999999997, 30 23.4 C 30.63 22.740000000000002, 30.674999999999997 22.815, 31.259999999999998 22.080000000000002 C 31.799999999999997 21.270000000000003, 31.964999999999996 21.18, 32.339999999999996 20.46 C 32.55 19.830000000000002, 32.655 19.935000000000002, 32.76 19.200000000000003 C 32.76 18.36, 32.79 18.69, 32.76 17.52 C 32.7 16.02, 32.775 15.855, 32.64 14.52 C 32.43 13.35, 32.46 13.26, 32.22 12.18 C 31.95 11.19, 31.965 11.204999999999998, 31.68 10.2 C 31.38 9.18, 31.394999999999996 9.195, 31.08 8.16 C 30.75 7.11, 30.660000000000004 6.75, 30.42 6.0600000000000005 C 30.27 5.73, 30.39 5.8500000000000005, 30.119999999999997 5.4 C 29.729999999999997 4.83, 29.609999999999996 4.71, 29.339999999999996 4.26 C 29.189999999999998 3.9299999999999997, 29.13 3.8099999999999996, 29.04 3.5999999999999996 C 29.009999999999998 3.51, 28.995 3.465, 28.98 3.42 C 28.98 3.42, 28.98 3.42, 28.98 3.42 L 28.98 3.42" fill="none" stroke="black" stroke-width="5"></path><path d="M 20.94 4.92 C 20.130000000000003 5.55, 20.145 5.52, 19.32 6.18 C 18.48 6.87, 18.345 6.885000000000001, 17.64 7.5600000000000005 C 17.07 8.219999999999999, 16.965 8.04, 16.5 8.879999999999999 C 16.14 9.899999999999999, 15.915 10.08, 15.78 10.92 C 15.870000000000001 11.58, 15.63 11.805, 15.96 12.24 C 16.53 12.45, 16.62 12.555, 17.1 12.66 C 17.490000000000002 12.66, 17.46 12.66, 17.88 12.66 C 18.33 12.66, 18.150000000000002 12.72, 18.78 12.66 C 19.59 12.54, 19.604999999999997 12.779999999999998, 20.4 12.419999999999998 C 21.18 11.82, 21.3 11.835, 21.96 11.22 C 22.5 10.59, 22.634999999999998 10.604999999999999, 23.04 9.959999999999999 C 23.310000000000002 9.3, 23.520000000000003 9.285, 23.580000000000002 8.64 C 23.43 8.01, 23.490000000000002 7.98, 23.28 7.38 C 23.01 6.8100000000000005, 23.01 6.63, 22.740000000000002 6.24 C 22.470000000000002 6.03, 22.530000000000005 6.015000000000001, 22.200000000000003 5.82 C 21.810000000000002 5.640000000000001, 21.81 5.55, 21.419999999999998 5.46 C 21.03 5.46, 20.91 5.445, 20.64 5.46 C 20.490000000000002 5.49, 20.505 5.4750000000000005, 20.34 5.5200000000000005 L 19.98 5.64" fill="none" stroke="black" stroke-width="5"></path><path d="M 18.6 23.88 C 18.66 23.97, 18.645 23.354999999999997, 18.72 24.06 C 18.81 25.380000000000003, 18.81 25.305000000000003, 18.9 26.700000000000003 C 18.990000000000002 28.17, 18.975 27.96, 19.080000000000002 29.64 C 19.200000000000003 31.53, 19.26 31.92, 19.32 33.42 C 19.32 34.53, 19.32 34.44, 19.32 35.64 C 19.32 36.93, 19.32 36.9, 19.32 38.22 C 19.32 39.57, 19.32 39.735, 19.32 40.92 C 19.32 41.94, 19.29 42.21, 19.32 42.96 C 19.380000000000003 43.44, 19.32 43.44, 19.44 43.92 C 19.619999999999997 44.400000000000006, 19.665 44.52, 19.799999999999997 44.88 C 19.89 45.120000000000005, 19.86 45.225, 19.98 45.36 C 20.130000000000003 45.39, 20.16 45.405, 20.28 45.42 C 20.37 45.42, 20.355 45.465, 20.46 45.42 C 20.580000000000002 45.33, 20.475 45.540000000000006, 20.700000000000003 45.24 C 21.03 44.730000000000004, 21.09 44.745, 21.36 44.22 C 21.57 43.68, 21.615000000000002 43.74, 21.78 43.14 C 21.9 42.480000000000004, 21.81 42.6, 22.02 41.82 C 22.32 40.92, 22.275000000000002 40.949999999999996, 22.62 40.019999999999996 C 23.009999999999998 39.059999999999995, 22.935 38.955, 23.4 38.099999999999994 C 23.939999999999998 37.349999999999994, 23.895 37.19999999999999, 24.48 36.599999999999994 C 25.11 36.15, 24.810000000000002 36.195, 25.740000000000002 35.7 C 26.970000000000002 35.16, 26.640000000000004 35.055, 28.200000000000003 34.62 C 30.090000000000003 34.29, 30.645000000000003 34.125, 31.98 33.96 C 32.76 33.96, 33.105 33.96, 33.54 33.96 C 33.629999999999995 33.96, 33.675 33.96, 33.72 33.96 L 33.72 33.96" fill="none" stroke="black" stroke-width="5"></path></svg>