<svg xmlns="http://www.w3.org/2000/svg" viewBox="6.900000095367432 2.5399999618530273 25.47999906539917 41.45027542114258" width="25.47999906539917" height="41.45027542114258"><path d="M 11.459999999999999 3.54 C 11.399999999999999 4.109999999999999, 11.565 3.6899999999999995, 11.34 4.68 C 10.95 6.09, 10.89 6.21, 10.56 7.5 C 10.29 8.67, 10.185 8.865, 10.02 9.84 C 9.959999999999999 10.62, 9.989999999999998 10.379999999999999, 9.899999999999999 11.399999999999999 C 9.78 12.659999999999998, 9.809999999999999 12.614999999999998, 9.66 13.919999999999998 C 9.48 15.27, 9.435 15.27, 9.3 16.62 C 9.21 17.97, 9.285 17.685000000000002, 9.120000000000001 19.32 C 8.88 21.240000000000002, 8.865 21.39, 8.64 23.16 C 8.43 24.78, 8.355 24.915000000000003, 8.22 26.400000000000002 C 8.16 27.75, 8.175 27.959999999999997, 8.100000000000001 29.099999999999998 C 8.010000000000002 30.03, 7.965 29.895, 7.92 30.96 C 7.92 32.16, 7.92 32.4, 7.92 33.36 C 7.92 34.08, 7.875 34.004999999999995, 7.92 34.8 C 8.010000000000002 35.67, 7.8900000000000015 35.73, 8.100000000000001 36.54 C 8.43 37.29, 8.475 37.425, 8.76 38.04 C 9 38.519999999999996, 8.985 38.505, 9.24 39 C 9.51 39.51, 9.48 39.599999999999994, 9.78 40.019999999999996 C 10.11 40.349999999999994, 10.065 40.26, 10.44 40.68 C 10.86 41.19, 10.86 41.295, 11.28 41.7 C 11.7 42, 11.520000000000001 42.03, 12.120000000000001 42.3 C 12.9 42.54, 13.035 42.615, 13.68 42.78 C 14.190000000000001 42.870000000000005, 13.650000000000002 42.93, 14.700000000000001 42.96 C 16.29 42.93000000000001, 16.65 43.080000000000005, 17.88 42.900000000000006 C 18.75 42.57000000000001, 18.990000000000002 42.57000000000001, 19.62 42.24 C 20.009999999999998 41.91, 20.13 41.955, 20.4 41.58 C 20.55 41.16, 20.520000000000003 41.385000000000005, 20.700000000000003 40.74 C 20.910000000000004 39.870000000000005, 20.985 39.795, 21.12 39 C 21.18 38.28, 21.300000000000004 38.175000000000004, 21.240000000000002 37.56 C 21.060000000000002 37.05, 21.09 36.96, 20.88 36.54 C 20.64 36.21, 20.849999999999998 36.27, 20.4 35.88 C 19.740000000000002 35.43000000000001, 19.815 35.44500000000001, 19.080000000000002 34.980000000000004 C 18.270000000000003 34.5, 18.3 34.334999999999994, 17.46 34.019999999999996 C 16.59 33.87, 16.635 33.825, 15.72 33.72 C 14.76 33.66, 14.639999999999999 33.629999999999995, 13.799999999999999 33.599999999999994 C 13.079999999999998 33.599999999999994, 13.094999999999999 33.46499999999999, 12.36 33.599999999999994 C 11.61 33.87, 11.565 33.87, 10.86 34.14 C 10.2 34.41, 10.005 34.44, 9.540000000000001 34.68 C 9.27 34.89, 9.195 34.904999999999994, 9 35.099999999999994 C 8.879999999999999 35.28, 8.835 35.295, 8.76 35.46 C 8.73 35.61, 8.715 35.685, 8.7 35.76 C 8.7 35.76, 8.7 35.76, 8.7 35.76 L 8.7 35.76" fill="none" stroke="black" stroke-width="5"></path><path d="M 8.34 27.299999999999997 C 9 27.299999999999997, 8.34 27.299999999999997, 9.66 27.299999999999997 C 11.64 27.299999999999997, 11.175 27.299999999999997, 13.620000000000001 27.299999999999997 C 16.53 27.299999999999997, 17.325000000000003 27.299999999999997, 19.44 27.299999999999997 C 20.76 27.299999999999997, 20.655 27.209999999999994, 22.080000000000002 27.299999999999997 C 23.61 27.48, 23.700000000000003 27.525000000000006, 25.14 27.660000000000004 C 26.49 27.75, 26.609999999999996 27.749999999999996, 27.839999999999996 27.839999999999996 C 28.949999999999996 27.93, 29.174999999999997 27.974999999999998, 30.06 28.02 C 30.72 28.02, 31.05 28.02, 31.380000000000003 28.02 C 31.380000000000003 28.02, 31.380000000000003 28.02, 31.380000000000003 28.02 L 31.380000000000003 28.02" fill="none" stroke="black" stroke-width="5"></path><path d="M 22.259999999999998 8.94 C 21.57 8.94, 21.81 8.565, 20.88 8.94 C 19.71 9.69, 19.544999999999998 9.6, 18.54 10.44 C 17.7 11.37, 17.384999999999998 11.474999999999998, 16.86 12.299999999999999 C 16.65 13.02, 16.53 12.81, 16.44 13.74 C 16.47 14.879999999999999, 16.11 14.834999999999999, 16.5 16.02 C 17.25 17.25, 17.009999999999998 17.46, 18 18.48 C 19.23 19.29, 19.080000000000002 19.560000000000002, 20.46 20.1 C 21.990000000000002 20.37, 22.259999999999998 20.61, 23.52 20.64 C 24.509999999999998 20.43, 24.645 20.729999999999997, 25.5 20.22 C 26.22 19.41, 26.46 19.485, 26.94 18.6 C 27.18 17.64, 27.3 17.46, 27.42 16.68 C 27.42 16.08, 27.630000000000003 16.38, 27.42 15.48 C 27 14.280000000000001, 27.015 14.040000000000003, 26.58 13.080000000000002 C 26.13 12.360000000000001, 26.25 12.360000000000001, 25.68 11.64 C 24.99 10.92, 25.124999999999996 10.799999999999999, 24.299999999999997 10.2 C 23.339999999999996 9.719999999999999, 23.325 9.525, 22.38 9.24 C 21.45 9.15, 21.18 9.15, 20.52 9.06 C 20.130000000000003 8.969999999999999, 19.935000000000002 8.924999999999999, 19.740000000000002 8.879999999999999 L 19.740000000000002 8.879999999999999" fill="none" stroke="black" stroke-width="5"></path></svg>