<svg xmlns="http://www.w3.org/2000/svg" viewBox="10.49333381652832 3.1999998092651367 20.246667861938477 41.24666690826416" width="20.246667861938477" height="41.24666690826416"><path d="M 12.299999999999999 4.199999999999999 C 12.09 5.46, 12.03 5.3100000000000005, 11.879999999999999 6.720000000000001 C 11.79 8.280000000000001, 11.79 8.445, 11.7 9.84 C 11.61 11.07, 11.565 11.069999999999999, 11.52 12.299999999999999 C 11.52 13.53, 11.459999999999999 13.754999999999999, 11.52 14.76 C 11.64 15.54, 11.58 15.69, 11.76 16.32 C 12 16.8, 11.835 16.740000000000002, 12.24 17.28 C 12.809999999999999 17.880000000000003, 12.569999999999999 17.97, 13.379999999999999 18.48 C 14.43 18.9, 14.385000000000002 19.11, 15.48 19.32 C 16.619999999999997 19.32, 16.589999999999996 19.32, 17.759999999999998 19.32 C 18.96 19.32, 18.6 19.32, 20.16 19.32 C 22.08 19.32, 22.439999999999998 19.335, 24 19.32 C 25.200000000000003 19.29, 25.605000000000004 19.319999999999997, 26.400000000000002 19.259999999999998 C 26.79 19.17, 26.745 19.185000000000002, 27.18 19.080000000000002 C 27.66 18.96, 27.735 19.005000000000003, 28.14 18.84 C 28.47 18.63, 28.455 18.854999999999997, 28.799999999999997 18.419999999999998 C 29.159999999999997 17.759999999999998, 29.294999999999998 18.12, 29.52 17.1 C 29.61 15.72, 29.655 15.66, 29.700000000000003 14.34 C 29.700000000000003 13.08, 29.700000000000003 13.485, 29.700000000000003 11.82 C 29.700000000000003 9.75, 29.790000000000006 9.285, 29.700000000000003 7.68 C 29.52 6.54, 29.474999999999994 6.18, 29.339999999999996 5.4 C 29.25 4.98, 29.220000000000002 4.800000000000001, 29.160000000000004 4.5600000000000005 C 29.130000000000003 4.5, 29.115 4.47, 29.099999999999998 4.4399999999999995 C 29.099999999999998 4.4399999999999995, 29.099999999999998 4.4399999999999995, 29.099999999999998 4.4399999999999995 L 29.099999999999998 4.4399999999999995" fill="none" stroke="black" stroke-width="5"></path><path d="M 20.94 5.46 C 20.46 5.46, 20.73 5.25, 19.98 5.46 C 18.96 5.880000000000001, 18.75 5.760000000000001, 17.94 6.300000000000001 C 17.340000000000003 6.960000000000001, 17.175 6.945, 16.740000000000002 7.62 C 16.470000000000002 8.31, 16.365000000000002 8.34, 16.200000000000003 9 C 16.14 9.629999999999999, 16.020000000000003 9.39, 16.080000000000002 10.26 C 16.26 11.370000000000001, 16.005000000000003 11.595, 16.44 12.48 C 17.130000000000003 13.14, 17.16 13.395, 17.82 13.799999999999999 C 18.450000000000003 13.95, 18.42 13.98, 19.080000000000002 14.100000000000001 C 19.770000000000003 14.190000000000001, 19.740000000000002 14.37, 20.46 14.28 C 21.21 14.01, 21.36 14.175, 21.96 13.74 C 22.41 13.14, 22.485 13.155, 22.86 12.54 C 23.16 11.91, 23.25 11.924999999999999, 23.46 11.28 C 23.580000000000002 10.62, 23.64 10.68, 23.700000000000003 9.959999999999999 C 23.700000000000003 9.18, 23.790000000000003 9.134999999999998, 23.700000000000003 8.399999999999999 C 23.520000000000003 7.709999999999999, 23.685000000000002 7.664999999999999, 23.34 7.02 C 22.83 6.42, 22.695 6.225, 22.32 5.82 C 22.08 5.61, 22.005 5.505000000000001, 21.84 5.4 C 21.75 5.4, 21.735 5.4, 21.66 5.4 C 21.6 5.4, 21.57 5.4, 21.54 5.4 L 21.54 5.4" fill="none" stroke="black" stroke-width="5"></path><path d="M 17.1 18.96 C 17.130000000000003 19.11, 17.1 18.854999999999997, 17.16 19.259999999999998 C 17.25 19.92, 17.25 19.200000000000003, 17.34 20.580000000000002 C 17.43 22.68, 17.369999999999997 22.650000000000002, 17.52 24.78 C 17.73 26.939999999999998, 17.835 27.299999999999997, 17.94 29.099999999999998 C 17.94 30.54, 17.895000000000003 30.735, 17.94 31.98 C 18.03 33.03, 18.075000000000003 33.015, 18.12 34.08 C 18.12 35.16, 18.12 35.235, 18.12 36.24 C 18.12 37.17, 18.12 37.27499999999999, 18.12 38.099999999999994 C 18.12 38.81999999999999, 18.075000000000003 38.94, 18.12 39.54 C 18.21 40.019999999999996, 18.255 39.915, 18.299999999999997 40.5 C 18.299999999999997 41.19, 18.284999999999997 41.415000000000006, 18.299999999999997 41.88 C 18.33 42.120000000000005, 18.299999999999997 42.165, 18.36 42.36 C 18.45 42.510000000000005, 18.435 42.495000000000005, 18.54 42.660000000000004 C 18.66 42.84, 18.6 42.87, 18.78 43.019999999999996 C 19.02 43.14, 19.095 43.184999999999995, 19.259999999999998 43.26 C 19.35 43.29, 19.35 43.29, 19.44 43.32 C 19.53 43.35, 19.545 43.365, 19.62 43.38 C 19.68 43.38, 19.71 43.53, 19.740000000000002 43.38 C 19.740000000000002 43.08, 19.695000000000004 43.275, 19.740000000000002 42.78 C 19.83 42.09, 19.799999999999997 42.135000000000005, 19.919999999999998 41.400000000000006 C 20.07 40.620000000000005, 20.025 40.56, 20.22 39.839999999999996 C 20.46 39.17999999999999, 20.505000000000003 39.13499999999999, 20.700000000000003 38.519999999999996 C 20.85 37.95, 20.61 38.355000000000004, 21 37.38 C 21.63 36, 21.54 35.805, 22.259999999999998 34.62 C 23.07 33.629999999999995, 22.964999999999996 33.345, 23.88 32.64 C 24.9 32.22, 25.005000000000003 32.084999999999994, 25.92 31.799999999999997 C 26.73 31.65, 26.775 31.575, 27.54 31.5 C 28.259999999999998 31.5, 28.515 31.5, 28.98 31.5 C 29.19 31.5, 29.295 31.5, 29.400000000000002 31.5 C 29.400000000000002 31.5, 29.400000000000002 31.5, 29.400000000000002 31.5 L 29.400000000000002 31.5" fill="none" stroke="black" stroke-width="5"></path></svg>