<svg xmlns="http://www.w3.org/2000/svg" viewBox="11.420000076293945 4.21999979019165 17.079999923706055 40.099998474121094" width="17.079999923706055" height="40.099998474121094"><path d="M 12.419999999999998 5.22 C 12.57 6, 12.63 5.1899999999999995, 12.72 6.779999999999999 C 12.75 9.18, 12.765 9.344999999999999, 12.78 11.58 C 12.78 13.65, 12.78 14.145000000000001, 12.78 15.72 C 12.78 16.8, 12.735 16.544999999999998, 12.78 17.88 C 12.870000000000001 19.47, 12.870000000000001 19.575, 12.96 21.06 C 13.05 22.439999999999998, 13.095 22.35, 13.14 23.82 C 13.14 25.380000000000003, 13.14 25.35, 13.14 26.94 C 13.14 28.560000000000002, 13.14 28.8, 13.14 30.18 C 13.14 31.32, 13.095 31.17, 13.14 32.46 C 13.23 33.9, 13.275 34.05, 13.32 35.339999999999996 C 13.32 36.48, 13.32 36.735, 13.32 37.62 C 13.32 38.25, 13.32 38.205, 13.32 38.88 C 13.32 39.6, 13.32 39.525, 13.32 40.32 C 13.32 41.19, 13.32 41.31, 13.32 42.06 C 13.32 42.69, 13.32 43.005, 13.32 43.32 C 13.32 43.32, 13.32 43.32, 13.32 43.32 C 13.32 43.32, 13.32 43.32, 13.32 43.32 L 13.32 43.32" fill="none" stroke="black" stroke-width="5"></path><path d="M 13.919999999999998 37.68 C 14.309999999999999 37.71, 14.25 37.725, 14.700000000000001 37.74 C 15.21 37.74, 15.15 37.71, 15.72 37.74 C 16.35 37.8, 16.35 37.83, 16.98 37.86 C 17.61 37.86, 17.655 37.86, 18.240000000000002 37.86 C 18.78 37.86, 18.87 37.86, 19.32 37.86 C 19.68 37.86, 19.619999999999997 37.86, 20.04 37.86 C 20.52 37.86, 20.759999999999998 37.86, 21 37.86 C 21 37.86, 21 37.86, 21 37.86 L 21 37.86" fill="none" stroke="black" stroke-width="5"></path><path d="M 13.080000000000002 31.02 C 13.8 31.02, 13.545 31.02, 14.52 31.02 C 15.75 31.02, 15.735 31.035, 16.98 31.02 C 18.240000000000002 30.990000000000002, 18.255 30.975, 19.5 30.96 C 20.73 30.96, 20.91 30.96, 21.96 30.96 C 22.830000000000002 30.96, 22.845000000000002 31.005000000000003, 23.700000000000003 30.96 C 24.540000000000003 30.87, 24.750000000000004 30.900000000000002, 25.380000000000003 30.78 C 25.8 30.630000000000003, 25.814999999999998 30.72, 26.22 30.48 C 26.61 30.15, 26.685 30.375, 27 29.82 C 27.240000000000002 29.04, 27.36 29.235, 27.48 28.259999999999998 C 27.48 27.09, 27.525000000000002 27.135, 27.48 25.92 C 27.39 24.66, 27.464999999999996 24.854999999999997, 27.299999999999997 23.4 C 27.06 21.75, 26.97 21.465, 26.82 20.1 C 26.76 19.020000000000003, 26.820000000000004 19.35, 26.700000000000003 17.94 C 26.52 16.200000000000003, 26.534999999999997 16.275000000000002, 26.339999999999996 14.46 C 26.13 12.57, 26.115000000000002 12.285, 25.92 10.68 C 25.740000000000002 9.36, 25.695 8.985000000000001, 25.56 8.040000000000001 C 25.47 7.470000000000001, 25.425 7.185, 25.380000000000003 6.8999999999999995 C 25.380000000000003 6.8999999999999995, 25.380000000000003 6.8999999999999995, 25.380000000000003 6.8999999999999995 C 25.380000000000003 6.8999999999999995, 25.380000000000003 6.8999999999999995, 25.380000000000003 6.8999999999999995 C 25.380000000000003 6.8999999999999995, 25.380000000000003 6.8999999999999995, 25.380000000000003 6.8999999999999995 C 25.380000000000003 6.8999999999999995, 25.395000000000003 6.944999999999999, 25.380000000000003 6.8999999999999995 L 25.32 6.720000000000001" fill="none" stroke="black" stroke-width="5"></path></svg>