<svg xmlns="http://www.w3.org/2000/svg" viewBox="11.279999732971191 1.6400001049041748 23.26667022705078 42.679999589920044" width="23.26667022705078" height="42.679999589920044"><path d="M 13.32 43.32 C 12.99 42.03, 12.825 42.315000000000005, 12.66 40.74 C 12.66 38.879999999999995, 12.66 38.684999999999995, 12.66 37.019999999999996 C 12.66 35.55, 12.705 35.43, 12.66 34.08 C 12.57 32.849999999999994, 12.525 32.714999999999996, 12.48 31.619999999999997 C 12.48 30.66, 12.525 31.005000000000003, 12.48 29.700000000000003 C 12.39 28.050000000000004, 12.344999999999999 27.810000000000002, 12.299999999999999 26.400000000000002 C 12.299999999999999 25.23, 12.254999999999999 25.275, 12.299999999999999 24.06 C 12.39 22.799999999999997, 12.33 22.47, 12.48 21.54 C 12.69 20.939999999999998, 12.599999999999998 21.12, 12.899999999999999 20.34 C 13.29 19.38, 13.184999999999999 19.319999999999997, 13.68 18.419999999999998 C 14.28 17.58, 14.37 17.28, 14.879999999999999 16.740000000000002 C 15.3 16.5, 15.345 16.38, 15.72 16.259999999999998 C 16.05 16.259999999999998, 16.05 16.185, 16.38 16.259999999999998 C 16.71 16.409999999999997, 16.709999999999997 16.244999999999997, 17.04 16.56 C 17.37 17.04, 17.415000000000003 17.009999999999998, 17.700000000000003 17.52 C 17.94 18.060000000000002, 17.985 18, 18.18 18.6 C 18.33 19.259999999999998, 18.315 19.334999999999997, 18.48 19.919999999999998 C 18.66 20.43, 18.735 20.355, 18.84 20.94 C 18.869999999999997 21.6, 18.825 21.615, 18.9 22.259999999999998 C 19.02 22.89, 19.05 23.085, 19.14 23.52 C 19.2 23.759999999999998, 19.169999999999998 23.73, 19.259999999999998 24 C 19.38 24.299999999999997, 19.439999999999998 24.45, 19.5 24.599999999999998 C 19.5 24.599999999999998, 19.47 24.569999999999997, 19.5 24.599999999999998 C 19.560000000000002 24.659999999999997, 19.47 24.944999999999997, 19.62 24.72 C 19.86 24.21, 19.965000000000003 24.180000000000003, 20.1 23.700000000000003 C 20.130000000000003 23.25, 20.085 23.22, 20.16 22.799999999999997 C 20.28 22.409999999999997, 20.279999999999998 22.5, 20.4 22.02 C 20.52 21.45, 20.415 21.494999999999997, 20.64 20.88 C 20.97 20.22, 20.714999999999996 20.265, 21.299999999999997 19.56 C 22.14 18.81, 22.244999999999997 18.645, 22.98 18.06 C 23.61 17.64, 23.490000000000002 17.61, 24.240000000000002 17.22 C 25.11 16.86, 25.245 16.68, 25.98 16.5 C 26.58 16.5, 26.55 16.425, 27.18 16.5 C 27.84 16.65, 27.884999999999998 16.455, 28.5 16.799999999999997 C 29.07 17.339999999999996, 29.145 17.339999999999996, 29.64 17.88 C 30.060000000000002 18.42, 29.91 17.91, 30.48 18.96 C 31.200000000000003 20.520000000000003, 31.380000000000003 20.520000000000003, 31.92 22.080000000000002 C 32.28 23.64, 32.370000000000005 23.865000000000002, 32.64 25.200000000000003 C 32.82 26.310000000000002, 32.775 25.515, 33 27.42 C 33.269999999999996 30.12, 33.405 30.69, 33.54 32.82 C 33.54 34.379999999999995, 33.54 34.589999999999996, 33.54 35.94 C 33.54 37.08, 33.54 37.2, 33.54 38.22 C 33.54 39.12, 33.555 39.17999999999999, 33.54 40.019999999999996 C 33.510000000000005 40.8, 33.525000000000006 40.995, 33.480000000000004 41.58 C 33.42 41.97, 33.39 42.089999999999996, 33.36 42.36 C 33.36 42.510000000000005, 33.36 42.585, 33.36 42.660000000000004 C 33.36 42.660000000000004, 33.36 42.63, 33.36 42.660000000000004 C 33.36 42.72, 33.375 42.705, 33.36 42.78 L 33.3 42.96" fill="none" stroke="black" stroke-width="5"></path><path d="M 21.66 2.64 C 21.240000000000002 3.0599999999999996, 21.375 2.9699999999999998, 20.82 3.4799999999999995 C 20.130000000000003 4.08, 20.01 4.02, 19.44 4.68 C 18.990000000000002 5.4, 18.869999999999997 5.475, 18.54 6.12 C 18.33 6.6899999999999995, 18.225 6.345, 18.12 7.26 C 18.12 8.52, 17.91 8.745, 18.12 9.78 C 18.54 10.59, 18.39 10.754999999999999, 18.96 11.399999999999999 C 19.68 11.879999999999999, 19.619999999999997 12.044999999999998, 20.4 12.36 C 21.240000000000002 12.51, 20.955000000000002 12.765, 22.080000000000002 12.66 C 23.490000000000002 12.3, 23.895000000000003 12.42, 24.900000000000002 11.94 C 25.5 11.34, 25.724999999999998 11.280000000000001, 26.099999999999998 10.74 C 26.25 10.26, 26.295 10.29, 26.400000000000002 9.78 C 26.46 9.239999999999998, 26.52 9.434999999999999, 26.52 8.7 C 26.46 7.77, 26.565 7.694999999999999, 26.400000000000002 6.84 C 26.130000000000003 6.0600000000000005, 26.145 5.925000000000001, 25.86 5.28 C 25.56 4.77, 25.619999999999997 4.68, 25.259999999999998 4.26 C 24.84 3.9299999999999997, 24.975 3.9149999999999996, 24.42 3.5999999999999996 C 23.73 3.3, 23.655 3.1799999999999997, 23.04 3 C 22.5 2.94, 22.305 2.91, 21.96 2.88 C 21.810000000000002 2.88, 21.735 2.88, 21.66 2.88 L 21.66 2.88" fill="none" stroke="black" stroke-width="5"></path><path d="M 22.86 29.58 C 22.17 30.089999999999996, 22.155 30.014999999999997, 21.48 30.599999999999998 C 20.82 31.259999999999998, 20.82 31.2, 20.16 31.92 C 19.5 32.7, 19.275 32.655, 18.84 33.480000000000004 C 18.63 34.35, 18.525 34.275, 18.419999999999998 35.22 C 18.419999999999998 36.239999999999995, 18.284999999999997 36.224999999999994, 18.419999999999998 37.26 C 18.689999999999998 38.31, 18.48 38.519999999999996, 18.96 39.36 C 19.65 39.989999999999995, 19.545 40.214999999999996, 20.34 40.62 C 21.240000000000002 40.8, 21 41.07000000000001, 22.14 40.980000000000004 C 23.520000000000003 40.620000000000005, 23.82 40.785, 24.900000000000002 40.26 C 25.68 39.57, 25.98 39.495000000000005, 26.46 38.88 C 26.64 38.34, 26.73 38.43, 26.82 37.8 C 26.82 37.08, 26.835 37.35, 26.82 36.36 C 26.79 35.099999999999994, 26.834999999999997 34.845, 26.759999999999998 33.839999999999996 C 26.64 33.089999999999996, 26.775 33.044999999999995, 26.52 32.339999999999996 C 26.130000000000003 31.68, 26.220000000000002 31.544999999999998, 25.740000000000002 31.02 C 25.17 30.630000000000003, 25.229999999999997 30.51, 24.599999999999998 30.240000000000002 C 23.909999999999997 30.090000000000003, 23.849999999999998 30.015, 23.22 29.94 C 22.65 29.94, 22.395000000000003 29.94, 22.080000000000002 29.94 C 22.020000000000003 29.94, 21.990000000000002 29.94, 21.96 29.94 L 21.96 29.94" fill="none" stroke="black" stroke-width="5"></path></svg>