<svg xmlns="http://www.w3.org/2000/svg" viewBox="14.226666450500488 6.260000228881836 16.79709529876709 32.50000190734863" width="16.79709529876709" height="32.50000190734863"><path d="M 23.28 7.62 C 22.950000000000003 7.5, 23.235 7.41, 22.62 7.38 C 21.72 7.4399999999999995, 21.78 7.275, 20.82 7.5 C 19.8 7.89, 19.650000000000002 7.844999999999999, 18.78 8.28 C 18.060000000000002 8.76, 17.895 8.565, 17.34 9.24 C 16.95 10.11, 16.845 9.75, 16.56 10.98 C 16.380000000000003 12.57, 16.200000000000003 12.870000000000001, 16.200000000000003 14.16 C 16.380000000000003 15.15, 16.23 15.330000000000002, 16.56 16.14 C 17.04 16.77, 16.77 16.875, 17.52 17.4 C 18.54 17.82, 18.435 17.865000000000002, 19.56 18.240000000000002 C 20.79 18.57, 21.075 18.735, 22.02 18.9 C 22.68 18.9, 22.68 19.08, 23.34 18.9 C 24 18.54, 24.030000000000005 18.66, 24.660000000000004 18.18 C 25.26 17.58, 25.335 17.595, 25.86 16.98 C 26.31 16.35, 26.384999999999998 16.395, 26.759999999999998 15.72 C 27.06 15, 27.134999999999998 15.135, 27.36 14.28 C 27.51 13.29, 27.585 13.2, 27.660000000000004 12.299999999999999 C 27.660000000000004 11.489999999999998, 27.810000000000006 11.504999999999999, 27.660000000000004 10.68 C 27.36 9.84, 27.405 9.629999999999999, 27.06 9 C 26.67 8.58, 26.73 8.565, 26.28 8.16 C 25.77 7.77, 25.74 7.605, 25.259999999999998 7.38 C 24.81 7.32, 24.854999999999997 7.29, 24.36 7.26 C 23.82 7.26, 23.595 7.26, 23.28 7.26 C 23.19 7.26, 23.145000000000003 7.26, 23.1 7.26 L 23.1 7.26" fill="none" stroke="black" stroke-width="5"></path><path d="M 24.78 21.36 C 23.76 20.939999999999998, 23.685000000000002 20.744999999999997, 22.740000000000002 20.52 C 21.87 20.490000000000002, 21.96 20.22, 21 20.46 C 19.95 20.97, 19.875 20.775, 18.9 21.48 C 18 22.380000000000003, 17.880000000000003 22.14, 17.1 23.28 C 16.44 24.66, 16.23 24.465, 15.78 26.04 C 15.54 27.81, 15.419999999999998 28.169999999999998, 15.299999999999999 29.58 C 15.299999999999999 30.63, 15.134999999999998 30.479999999999997, 15.299999999999999 31.68 C 15.629999999999999 33.03, 15.36 33.195, 15.96 34.38 C 16.830000000000002 35.400000000000006, 16.53 35.64, 17.700000000000003 36.42 C 19.17 36.96, 19.395000000000003 37.185, 20.64 37.5 C 21.66 37.59, 21.630000000000003 37.635, 22.68 37.68 C 23.759999999999998 37.68, 23.924999999999997 37.86, 24.839999999999996 37.68 C 25.589999999999996 37.32, 25.619999999999997 37.47, 26.339999999999996 36.96 C 27.029999999999998 36.3, 27.134999999999998 36.36, 27.72 35.64 C 28.2 34.86, 28.155 35.235, 28.68 34.08 C 29.25 32.55, 29.490000000000002 32.235, 29.82 31.02 C 29.91 30.119999999999997, 29.97 29.895, 30 29.22 C 29.97 28.77, 30.105000000000004 28.875, 29.94 28.32 C 29.64 27.66, 29.684999999999995 27.66, 29.339999999999996 27 C 28.949999999999996 26.34, 28.994999999999997 26.355, 28.56 25.68 C 28.08 24.99, 28.004999999999995 24.884999999999998, 27.599999999999998 24.299999999999997 C 27.27 23.82, 27.315 23.729999999999997, 26.94 23.34 C 26.52 23.04, 26.549999999999997 23.055, 26.099999999999998 22.740000000000002 C 25.619999999999997 22.410000000000004, 25.59 22.380000000000003, 25.14 22.080000000000002 C 24.72 21.810000000000002, 24.509999999999998 21.675, 24.299999999999997 21.54 L 24.299999999999997 21.54" fill="none" stroke="black" stroke-width="5"></path><path d="M 15.96 29.160000000000004 C 15.93 29.19, 15.779999999999998 29.175, 15.899999999999999 29.22 C 16.17 29.279999999999998, 15.795000000000002 29.264999999999997, 16.44 29.339999999999996 C 17.46 29.43, 17.04 29.474999999999998, 18.48 29.52 C 20.340000000000003 29.52, 20.910000000000004 29.505, 22.200000000000003 29.52 C 22.92 29.549999999999997, 22.92 29.549999999999997, 23.64 29.58 C 24.36 29.61, 24.36 29.58, 25.08 29.64 C 25.799999999999997 29.73, 25.755 29.73, 26.52 29.82 C 27.33 29.91, 27.585 29.955, 28.14 30 C 28.44 30, 28.470000000000002 30, 28.740000000000002 30 C 28.98 30, 29.055 30, 29.22 30 L 29.400000000000002 30" fill="none" stroke="black" stroke-width="5"></path></svg>