<svg xmlns="http://www.w3.org/2000/svg" viewBox="13.979999542236328 3.9800000190734863 15.01333236694336 39.97999906539917" width="15.01333236694336" height="39.97999906539917"><path d="M 15 23.580000000000002 C 15 23.67, 15 23.715, 15 23.759999999999998 C 15 23.759999999999998, 15 23.759999999999998, 15 23.759999999999998 C 15 23.759999999999998, 15 23.804999999999996, 15 23.759999999999998 C 15 23.67, 15 23.91, 15 23.580000000000002 C 15 23.01, 15 23.19, 15 22.44 C 15 21.51, 15 21.375000000000004, 15 20.580000000000002 C 15 19.92, 15 19.814999999999998, 15 19.259999999999998 C 15 18.81, 15 18.615, 15 18.36 C 15 18.3, 15 18.270000000000003, 15 18.240000000000002 C 15 18.240000000000002, 15 18.240000000000002, 15 18.240000000000002 C 15 18.240000000000002, 14.955 18.300000000000004, 15 18.240000000000002 C 15.09 18.12, 14.94 18.105, 15.18 18 C 15.57 17.91, 15.495000000000001 17.94, 15.96 17.82 C 16.5 17.67, 16.56 17.64, 17.04 17.52 C 17.46 17.43, 17.369999999999997 17.43, 17.88 17.34 C 18.48 17.25, 18.3 17.25, 19.080000000000002 17.16 C 20.04 17.07, 19.830000000000002 17.025, 21 16.98 C 22.38 16.98, 22.769999999999996 16.95, 23.759999999999998 16.98 C 24.36 17.04, 24.42 16.965000000000003, 24.96 17.1 C 25.44 17.310000000000002, 25.560000000000002 17.355, 25.92 17.52 C 26.160000000000004 17.64, 26.130000000000003 17.549999999999997, 26.400000000000002 17.759999999999998 C 26.700000000000003 18.06, 26.700000000000003 18.044999999999998, 27 18.36 C 27.299999999999997 18.689999999999998, 27.36 18.54, 27.599999999999998 19.02 C 27.78 19.65, 27.87 19.71, 27.96 20.28 C 27.96 20.79, 28.035 20.264999999999997, 27.96 21.299999999999997 C 27.810000000000002 22.86, 28.020000000000003 22.62, 27.660000000000004 24.42 C 27.090000000000003 26.46, 27.165 26.595, 26.52 28.5 C 25.799999999999997 30.27, 26.055 30.06, 25.08 32.04 C 23.85 34.230000000000004, 23.61 34.77, 22.62 36.42 C 21.87 37.53, 21.765 37.575, 21.12 38.64 C 20.58 39.66, 20.46 39.93, 20.04 40.68 C 19.740000000000002 41.16, 19.71 41.144999999999996, 19.44 41.64 C 19.200000000000003 42.150000000000006, 19.11 42.330000000000005, 18.96 42.660000000000004 C 18.9 42.81, 18.87 42.885000000000005, 18.84 42.96 C 18.84 42.96, 18.84 42.96, 18.84 42.96 C 18.84 42.96, 18.84 42.96, 18.84 42.96 C 18.84 42.96, 18.84 42.96, 18.84 42.96 C 18.84 42.96, 18.84 42.96, 18.84 42.96 L 18.84 42.96" fill="none" stroke="black" stroke-width="5"></path><path d="M 21.36 4.9799999999999995 C 19.92 5.55, 19.845 5.28, 18.48 6.12 C 17.189999999999998 7.23, 16.74 7.484999999999999, 15.899999999999999 8.34 C 15.51 8.940000000000001, 15.285 8.835, 15.120000000000001 9.540000000000001 C 15.18 10.350000000000001, 14.73 10.17, 15.24 11.16 C 16.2 12.33, 15.945 12.675, 17.16 13.5 C 18.630000000000003 13.98, 18.885 14.175, 20.1 14.46 C 21.060000000000002 14.55, 21.045 15.045000000000002, 22.02 14.64 C 23.009999999999998 13.74, 23.384999999999998 13.77, 24 12.84 C 24.240000000000002 11.879999999999999, 24.405 11.91, 24.48 10.92 C 24.39 9.899999999999999, 24.54 9.794999999999998, 24.299999999999997 8.879999999999999 C 23.909999999999997 8.07, 23.955 7.875, 23.52 7.26 C 23.04 6.84, 23.205 6.765, 22.56 6.42 C 21.75 6.15, 21.630000000000003 6.015, 20.94 5.88 L 19.799999999999997 5.88" fill="none" stroke="black" stroke-width="5"></path></svg>