<svg xmlns="http://www.w3.org/2000/svg" viewBox="7.159999847412109 1.7599999904632568 21.660001754760742 43.64000153541565" width="21.660001754760742" height="43.64000153541565"><path d="M 11.100000000000001 17.28 C 10.98 18.450000000000003, 11.01 18.450000000000003, 10.86 19.62 C 10.68 20.79, 10.605 21.075000000000003, 10.5 21.96 C 10.469999999999999 22.560000000000002, 10.455 22.605, 10.44 23.16 C 10.44 23.67, 10.44 23.925, 10.44 24.18 C 10.44 24.18, 10.44 24.18, 10.44 24.18 C 10.44 24.18, 10.44 24.18, 10.44 24.18 C 10.44 24.18, 10.44 24.18, 10.44 24.18 C 10.44 24.18, 10.41 24.119999999999997, 10.44 24.18 C 10.5 24.3, 10.305 24.345000000000002, 10.56 24.42 C 11.01 24.450000000000003, 10.905 24.39, 11.459999999999999 24.48 C 12.12 24.630000000000003, 12.075 24.705000000000002, 12.78 24.78 C 13.53 24.78, 13.665 24.78, 14.28 24.78 C 14.76 24.78, 14.715 24.96, 15.24 24.78 C 15.809999999999999 24.42, 15.84 24.645, 16.38 24.06 C 16.89 23.25, 16.919999999999998 23.385, 17.4 22.44 C 17.849999999999998 21.36, 17.924999999999997 21.3, 18.299999999999997 20.28 C 18.599999999999998 19.32, 18.72 19.005, 18.9 18.36 C 18.96 18.03, 18.99 17.865000000000002, 19.02 17.700000000000003 C 19.02 17.700000000000003, 19.02 17.700000000000003, 19.02 17.700000000000003 C 19.02 17.700000000000003, 19.05 17.445000000000004, 19.02 17.700000000000003 C 18.96 18.21, 19.02 17.85, 18.9 18.72 C 18.72 19.95, 18.63 20.13, 18.54 21.18 C 18.54 22.049999999999997, 18.465 22.11, 18.54 22.919999999999998 C 18.689999999999998 23.67, 18.54 23.805, 18.84 24.42 C 19.29 24.900000000000002, 19.200000000000003 24.975, 19.740000000000002 25.380000000000003 C 20.37 25.71, 20.43 25.875, 21 26.04 C 21.509999999999998 26.04, 21.33 26.04, 22.02 26.04 C 22.89 26.04, 22.904999999999998 26.25, 23.759999999999998 26.04 C 24.6 25.62, 24.75 25.680000000000003, 25.44 25.200000000000003 C 25.98 24.66, 26.055 24.75, 26.52 24.119999999999997 C 26.909999999999997 23.4, 26.984999999999996 23.49, 27.299999999999997 22.68 C 27.54 21.78, 27.66 22.035, 27.78 20.88 C 27.78 19.47, 27.87 19.244999999999997, 27.78 18.06 C 27.6 17.1, 27.825000000000003 17.28, 27.42 16.14 C 26.790000000000003 14.82, 26.820000000000004 15.120000000000001, 26.160000000000004 13.5 C 25.470000000000002 11.58, 25.590000000000003 11.415, 24.78 9.66 C 23.85 8.07, 23.729999999999997 7.7250000000000005, 22.919999999999998 6.48 C 22.229999999999997 5.58, 22.11 5.445, 21.54 4.68 C 21.09 4.05, 20.925 3.795, 20.64 3.42 C 20.52 3.3, 20.505 3.285, 20.4 3.18 C 20.31 3.09, 20.31 3.06, 20.22 3 C 20.13 2.9699999999999998, 20.13 2.9699999999999998, 20.04 2.94 C 19.95 2.91, 19.95 2.925, 19.86 2.88 L 19.68 2.7600000000000002" fill="none" stroke="black" stroke-width="5"></path><path d="M 14.04 25.02 C 13.89 25.409999999999997, 13.875 25.29, 13.74 25.799999999999997 C 13.620000000000001 26.43, 13.56 26.49, 13.5 27.06 C 13.5 27.57, 13.5 27.659999999999997, 13.5 28.08 C 13.5 28.41, 13.425 28.305, 13.5 28.740000000000002 C 13.649999999999999 29.28, 13.59 29.325000000000003, 13.799999999999999 29.82 C 14.07 30.27, 14.025 30.299999999999997, 14.34 30.72 C 14.7 31.11, 14.7 31.155, 15.059999999999999 31.5 C 15.419999999999998 31.799999999999997, 15.254999999999999 31.769999999999996, 15.78 32.099999999999994 C 16.47 32.459999999999994, 16.47 32.504999999999995, 17.16 32.82 C 17.85 33.09, 17.64 33.12, 18.54 33.36 C 19.65 33.57, 19.904999999999998 33.675, 20.759999999999998 33.78 C 21.36 33.78, 21.285 33.735, 21.96 33.78 C 22.71 33.870000000000005, 22.950000000000003 33.885000000000005, 23.46 33.96 C 23.73 34.019999999999996, 23.835 34.05, 24 34.08 C 24.06 34.08, 24.089999999999996 34.08, 24.119999999999997 34.08 C 24.119999999999997 34.08, 24.119999999999997 34.08, 24.119999999999997 34.08 C 24.119999999999997 34.08, 24.119999999999997 34.08, 24.119999999999997 34.08 C 24.119999999999997 34.08, 24.089999999999996 34.08, 24.119999999999997 34.08 C 24.18 34.08, 24.465000000000003 33.974999999999994, 24.240000000000002 34.08 C 23.73 34.29, 24 34.275, 23.22 34.5 C 22.17 34.74, 22.05 34.69500000000001, 21.12 34.980000000000004 C 20.310000000000002 35.31, 20.415 35.295, 19.5 35.64 C 18.48 36, 18.39 35.94, 17.46 36.36 C 16.62 36.84, 16.68 36.75, 15.78 37.32 C 14.82 37.980000000000004, 14.655 37.995, 13.86 38.64 C 13.23 39.27, 13.155000000000001 39.21000000000001, 12.600000000000001 39.900000000000006 C 12.120000000000001 40.650000000000006, 11.985000000000001 40.68000000000001, 11.64 41.400000000000006 C 11.43 42.09, 11.415000000000001 42.06, 11.22 42.78 C 11.04 43.53, 10.965 43.875, 10.86 44.28 C 10.83 44.34, 10.815000000000001 44.370000000000005, 10.8 44.400000000000006 C 10.8 44.400000000000006, 10.8 44.400000000000006, 10.8 44.400000000000006 L 10.8 44.400000000000006" fill="none" stroke="black" stroke-width="5"></path><path d="M 8.16 34.44 C 8.52 34.62, 8.415 34.47, 8.879999999999999 34.8 C 9.45 35.28, 9.465 35.355, 10.02 35.76 C 10.56 36.09, 10.650000000000002 36.120000000000005, 11.100000000000001 36.42 C 11.46 36.69, 11.4 36.660000000000004, 11.82 36.96 C 12.3 37.29, 12.39 37.31999999999999, 12.78 37.62 C 13.079999999999998 37.89, 13.169999999999998 37.965, 13.379999999999999 38.160000000000004 C 13.5 38.28, 13.56 38.34, 13.620000000000001 38.400000000000006 C 13.620000000000001 38.400000000000006, 13.590000000000002 38.355000000000004, 13.620000000000001 38.400000000000006 C 13.68 38.49, 13.71 38.535, 13.74 38.58 C 13.74 38.58, 13.74 38.58, 13.74 38.58 L 13.74 38.58" fill="none" stroke="black" stroke-width="5"></path></svg>