<svg xmlns="http://www.w3.org/2000/svg" viewBox="10.399999618530273 5.360000133514404 21.020000457763672 42.139999866485596" width="21.020000457763672" height="42.139999866485596"><path d="M 12.36 6.36 C 12.3 7.74, 12.405000000000001 7.215000000000001, 12.24 9.120000000000001 C 11.969999999999999 11.55, 11.91 11.790000000000001, 11.7 13.98 C 11.549999999999999 15.93, 11.474999999999998 16.14, 11.399999999999999 17.88 C 11.399999999999999 19.41, 11.399999999999999 19.455000000000002, 11.399999999999999 20.94 C 11.399999999999999 22.380000000000003, 11.399999999999999 22.98, 11.399999999999999 23.82 C 11.399999999999999 24.06, 11.399999999999999 24.18, 11.399999999999999 24.299999999999997 L 11.399999999999999 24.299999999999997" fill="none" stroke="black" stroke-width="5"></path><path d="M 12.600000000000001 12.299999999999999 C 13.440000000000001 12.299999999999999, 13.545 12.149999999999999, 14.28 12.299999999999999 C 14.91 12.599999999999998, 14.895 11.969999999999999, 15.54 12.899999999999999 C 16.2 14.459999999999999, 16.335 13.92, 16.86 16.02 C 17.25 18.659999999999997, 17.415 19.754999999999995, 17.64 21.299999999999997 C 17.7 21.75, 17.729999999999997 21.915000000000003, 17.759999999999998 22.200000000000003 C 17.759999999999998 22.32, 17.759999999999998 22.380000000000003, 17.759999999999998 22.44 C 17.759999999999998 22.44, 17.639999999999997 23.700000000000003, 17.759999999999998 22.44 C 18 19.92, 17.82 19.244999999999997, 18.240000000000002 17.4 C 18.840000000000003 16.229999999999997, 18.69 16.169999999999998, 19.44 15.059999999999999 C 20.340000000000003 14.01, 20.340000000000003 13.59, 21.240000000000002 12.96 C 22.14 12.75, 21.915 12.465, 23.04 12.54 C 24.39 12.899999999999999, 24.42 12.51, 25.740000000000002 13.26 C 27.03 14.399999999999999, 27.240000000000002 14.084999999999999, 28.32 15.54 C 29.189999999999998 17.310000000000002, 29.534999999999997 17.220000000000002, 30.06 19.080000000000002 C 30.240000000000002 21.03, 30.330000000000002 21.285, 30.42 22.98 C 30.42 24.42, 30.42 25.125, 30.42 25.86 L 30.42 25.92" fill="none" stroke="black" stroke-width="5"></path><path d="M 23.82 11.52 C 23.82 11.52, 23.895 11.355, 23.82 11.52 C 23.67 11.85, 23.595 11.46, 23.52 12.18 C 23.52 13.29, 23.52 12.735, 23.52 14.399999999999999 C 23.52 16.619999999999997, 23.625 16.77, 23.52 18.84 C 23.310000000000002 20.759999999999998, 23.265 20.325, 23.1 22.68 C 22.98 25.47, 23.009999999999998 25.979999999999997, 22.86 28.259999999999998 C 22.68 30.029999999999998, 22.65 29.79, 22.5 31.799999999999997 C 22.38 34.05, 22.38 34.05, 22.259999999999998 36.3 C 22.14 38.55, 22.11 39.074999999999996, 22.02 40.8 C 21.96 42, 21.93 42.3, 21.9 43.2 C 21.9 43.800000000000004, 21.9 43.935, 21.9 44.400000000000006 C 21.9 44.730000000000004, 21.9 44.730000000000004, 21.9 45.06 C 21.9 45.39, 21.9 45.36, 21.9 45.72 C 21.9 46.11, 21.9 46.305, 21.9 46.5 L 21.9 46.5" fill="none" stroke="black" stroke-width="5"></path></svg>