<svg xmlns="http://www.w3.org/2000/svg" viewBox="9.373332977294922 8.479999542236328 19.079999923706055 33.48666763305664" width="19.079999923706055" height="33.48666763305664"><path d="M 18.299999999999997 12.54 C 17.189999999999998 12.54, 17.310000000000002 12.524999999999999, 16.080000000000002 12.54 C 14.73 12.57, 14.459999999999999 12.585, 13.379999999999999 12.600000000000001 C 12.57 12.600000000000001, 12.375 12.600000000000001, 11.76 12.600000000000001 C 11.34 12.600000000000001, 11.129999999999999 12.600000000000001, 10.92 12.600000000000001 C 10.92 12.600000000000001, 10.92 12.600000000000001, 10.92 12.600000000000001 C 10.92 12.600000000000001, 10.98 12.585, 10.92 12.600000000000001 C 10.8 12.63, 10.77 12.09, 10.68 12.66 C 10.620000000000001 13.77, 10.620000000000001 13.575, 10.56 14.879999999999999 C 10.5 16.38, 10.469999999999999 16.5, 10.44 17.88 C 10.44 19.14, 10.44 19.185, 10.44 20.4 C 10.44 21.57, 10.29 21.630000000000003, 10.44 22.740000000000002 C 10.74 23.79, 10.59 24.119999999999997, 11.040000000000001 24.839999999999996 C 11.64 25.229999999999997, 11.565000000000001 25.289999999999996, 12.24 25.619999999999997 C 12.99 25.89, 13.095 26.010000000000005, 13.74 26.160000000000004 C 14.280000000000001 26.19, 14.295 26.25, 14.82 26.22 C 15.33 26.13, 15.254999999999999 26.534999999999997, 15.84 26.04 C 16.5 25.14, 16.71 25.215000000000003, 17.16 24.240000000000002 C 17.4 23.19, 17.475 23.055, 17.64 22.14 C 17.73 21.36, 17.775 20.970000000000002, 17.82 20.580000000000002 C 17.82 20.580000000000002, 17.67 20.355000000000004, 17.82 20.580000000000002 C 18.119999999999997 21.03, 18.074999999999996 20.805, 18.419999999999998 21.48 C 18.810000000000002 22.380000000000003, 18.675000000000004 22.53, 19.200000000000003 23.28 C 19.86 23.880000000000003, 19.86 23.985, 20.52 24.48 C 21.18 24.869999999999997, 21.03 25.064999999999998, 21.84 25.259999999999998 C 22.799999999999997 25.259999999999998, 22.83 25.47, 23.759999999999998 25.259999999999998 C 24.659999999999997 24.84, 24.915 25.11, 25.56 24.42 C 25.949999999999996 23.46, 26.009999999999994 23.745, 26.339999999999996 22.5 C 26.61 20.97, 26.61 21.105, 26.880000000000003 19.44 C 27.150000000000002 17.64, 27.285000000000004 17.34, 27.42 15.84 C 27.42 14.64, 27.495000000000005 14.490000000000002, 27.42 13.440000000000001 C 27.27 12.540000000000001, 27.24 12.345, 27.119999999999997 11.64 C 27.03 11.13, 27.045 11.16, 26.94 10.620000000000001 C 26.82 10.05, 26.76 9.765, 26.700000000000003 9.48 L 26.700000000000003 9.48" fill="none" stroke="black" stroke-width="5"></path><path d="M 17.34 31.32 C 16.71 31.8, 16.545 31.725, 16.080000000000002 32.28 C 15.780000000000001 32.91, 15.405000000000001 32.955, 15.48 33.54 C 15.93 34.08, 15.825 34.455, 16.38 34.62 C 17.04 34.41, 17.190000000000005 34.95, 17.700000000000003 34.2 C 18.060000000000002 32.91, 18.24 32.504999999999995, 18.419999999999998 31.619999999999997 C 18.419999999999998 31.14, 18.72 30.870000000000005, 18.419999999999998 30.660000000000004 C 17.82 30.720000000000002, 17.775 30.135, 17.22 30.78 C 16.71 32.010000000000005, 16.26 32.25, 16.200000000000003 33.24 C 16.590000000000003 33.99, 16.590000000000003 34.290000000000006, 16.98 34.74 C 17.369999999999997 34.89, 17.279999999999998 35.34, 17.759999999999998 35.04 C 18.33 34.29, 18.615 34.215, 18.9 33.54 C 18.9 32.94, 19.049999999999997 32.714999999999996, 18.9 32.339999999999996 C 18.599999999999998 32.19, 18.569999999999997 32.025, 18.299999999999997 32.04 C 18.06 32.22, 17.939999999999998 31.965000000000003, 17.82 32.400000000000006 C 17.82 33.09, 17.685000000000002 33.21, 17.82 33.78 C 18.09 34.230000000000004, 18 34.485, 18.36 34.68 C 18.81 34.620000000000005, 18.93 35.115, 19.259999999999998 34.56 C 19.47 33.510000000000005, 19.619999999999997 33.195, 19.68 32.46 C 19.59 32.04, 19.545 31.83, 19.5 31.619999999999997 L 19.5 31.619999999999997" fill="none" stroke="black" stroke-width="5"></path><path d="M 11.7 40.92 C 12.33 40.92, 11.745000000000001 40.92, 12.96 40.92 C 14.76 40.92, 14.895 41.025000000000006, 16.56 40.92 C 18.09 40.71, 18.165 40.665, 19.62 40.5 C 21 40.379999999999995, 20.91 40.334999999999994, 22.38 40.26 C 23.939999999999998 40.230000000000004, 24.615 40.230000000000004, 25.5 40.2 L 25.92 40.14" fill="none" stroke="black" stroke-width="5"></path></svg>