<svg xmlns="http://www.w3.org/2000/svg" viewBox="10.49333381652832 3.619999885559082 25.84666633605957 40.58000183105469" width="25.84666633605957" height="40.58000183105469"><path d="M 11.52 4.62 C 11.52 5.3100000000000005, 11.52 4.215, 11.52 6 C 11.52 8.879999999999999, 11.459999999999999 9.315, 11.52 11.76 C 11.64 13.77, 11.64 13.709999999999999, 11.76 15.78 C 11.879999999999999 17.91, 11.94 17.61, 12 20.04 C 12 22.77, 12 23.145, 12 25.5 C 12 27.48, 12 27.57, 12 29.46 C 12 31.26, 12 31.215000000000003, 12 33.06 C 12 34.95, 12 35.535, 12 36.839999999999996 C 12 37.56, 12 37.47, 12 38.28 C 12 39.18, 12.06 39.254999999999995, 12 40.08 C 11.879999999999999 40.83, 11.865 40.845, 11.76 41.58 C 11.67 42.3, 11.625 42.66, 11.58 43.019999999999996 C 11.58 43.019999999999996, 11.595 42.974999999999994, 11.58 43.019999999999996 L 11.52 43.2" fill="none" stroke="black" stroke-width="5"></path><path d="M 11.76 12.96 C 12.420000000000002 12.93, 12.030000000000001 12.989999999999998, 13.080000000000002 12.899999999999999 C 14.520000000000001 12.75, 14.445 12.675, 15.96 12.600000000000001 C 17.55 12.600000000000001, 17.79 12.405000000000001, 19.14 12.600000000000001 C 20.25 12.99, 20.145 12.675, 21.36 13.379999999999999 C 22.68 14.399999999999999, 22.994999999999997 14.369999999999997, 24 15.419999999999998 C 24.69 16.5, 24.630000000000003 16.200000000000003, 25.380000000000003 17.580000000000002 C 26.19 19.26, 26.43 19.155, 27 20.94 C 27.330000000000002 22.83, 27.495000000000005 22.979999999999997, 27.660000000000004 24.72 C 27.660000000000004 26.310000000000002, 27.660000000000004 26.445, 27.660000000000004 27.900000000000002 C 27.660000000000004 29.22, 27.660000000000004 29.79, 27.660000000000004 30.54 C 27.660000000000004 30.72, 27.660000000000004 30.810000000000002, 27.660000000000004 30.900000000000002 C 27.660000000000004 30.900000000000002, 27.660000000000004 30.900000000000002, 27.660000000000004 30.900000000000002 C 27.660000000000004 30.900000000000002, 27.495000000000005 30.975, 27.660000000000004 30.900000000000002 C 27.990000000000002 30.75, 27.795 30.674999999999997, 28.32 30.599999999999998 C 29.04 30.599999999999998, 28.904999999999998 30.36, 29.759999999999998 30.599999999999998 C 30.75 31.08, 30.810000000000002 30.93, 31.740000000000002 31.56 C 32.61 32.339999999999996, 32.595000000000006 31.83, 33.480000000000004 33.12 C 34.38 34.92, 34.815000000000005 35.37, 35.28 36.72 C 35.31 37.62, 35.324999999999996 37.769999999999996, 35.339999999999996 38.519999999999996 C 35.339999999999996 39.12, 35.339999999999996 39.135, 35.339999999999996 39.72 C 35.339999999999996 40.29, 35.339999999999996 40.379999999999995, 35.339999999999996 40.86 C 35.339999999999996 41.25, 35.339999999999996 41.445, 35.339999999999996 41.64 L 35.339999999999996 41.64" fill="none" stroke="black" stroke-width="5"></path><path d="M 19.38 23.759999999999998 C 19.17 24.75, 18.915 24.900000000000002, 18.96 25.740000000000002 C 19.259999999999998 26.43, 18.915 27.33, 19.56 27.119999999999997 C 20.549999999999997 26.009999999999998, 21.224999999999998 25.905, 21.54 24.900000000000002 C 21.18 24, 21.645 23.43, 20.82 23.1 C 19.53 23.340000000000003, 18.930000000000003 22.605000000000004, 18.240000000000002 23.580000000000002 C 18.15 25.29, 17.7 26.07, 18.06 27 C 18.869999999999997 27.15, 19.064999999999998 27.974999999999998, 19.68 27.299999999999997 C 20.1 25.799999999999997, 20.505 25.289999999999996, 20.52 24.299999999999997 C 20.130000000000003 23.82, 20.055000000000003 23.115, 19.740000000000002 23.34 L 19.259999999999998 25.200000000000003" fill="none" stroke="black" stroke-width="5"></path><path d="M 16.259999999999998 34.44 C 18.24 34.41, 18.705 34.395, 20.22 34.38 C 21.27 34.38, 21.42 34.30500000000001, 22.32 34.38 C 23.07 34.53, 23.445 34.605000000000004, 23.82 34.68 L 23.82 34.68" fill="none" stroke="black" stroke-width="5"></path></svg>