<svg xmlns="http://www.w3.org/2000/svg" viewBox="10.579999923706055 6.980000019073486 24.739999771118164 37.97999906539917" width="24.739999771118164" height="37.97999906539917"><path d="M 11.94 7.98 C 11.79 9.81, 11.715 9.96, 11.64 11.64 C 11.64 13.170000000000002, 11.64 13.350000000000001, 11.64 14.700000000000001 C 11.64 15.870000000000001, 11.64 16.095, 11.64 17.04 C 11.64 17.759999999999998, 11.64 18.09, 11.64 18.48 C 11.64 18.54, 11.655000000000001 18.51, 11.64 18.6 L 11.58 18.84" fill="none" stroke="black" stroke-width="5"></path><path d="M 11.94 12.24 C 12.6 12.24, 12.15 12.24, 13.26 12.24 C 14.82 12.24, 14.985 12.24, 16.38 12.24 C 17.61 12.24, 17.61 12.24, 18.84 12.24 C 20.07 12.24, 19.904999999999998 12.24, 21.299999999999997 12.24 C 22.86 12.24, 22.950000000000003 12.24, 24.42 12.24 C 25.8 12.24, 25.8 12.24, 27.18 12.24 C 28.560000000000002 12.24, 28.86 12.24, 29.94 12.24 C 30.72 12.24, 30.75 12.24, 31.5 12.24 C 32.22 12.24, 32.415 12.24, 32.94 12.24 C 33.269999999999996 12.24, 33.34499999999999 12.24, 33.599999999999994 12.24 L 33.96 12.24" fill="none" stroke="black" stroke-width="5"></path><path d="M 21.419999999999998 12.24 C 21.119999999999997 13.379999999999999, 21.15 12.975, 20.82 14.52 C 20.46 16.47, 20.340000000000003 16.874999999999996, 20.1 18.419999999999998 C 19.98 19.560000000000002, 19.92 19.185000000000002, 19.86 20.700000000000003 C 19.86 22.590000000000003, 19.86 22.200000000000003, 19.86 24.48 C 19.86 27.15, 19.86 27.495, 19.86 29.82 C 19.86 31.8, 19.86 31.875, 19.86 33.78 C 19.86 35.61, 19.86 35.864999999999995, 19.86 37.44 C 19.86 38.76, 19.86 39.18, 19.86 40.08 C 19.86 40.56, 19.86 40.5, 19.86 41.04 C 19.86 41.64, 19.86 41.715, 19.86 42.24 C 19.86 42.69, 19.86 42.735, 19.86 43.14 C 19.86 43.5, 19.86 43.68, 19.86 43.86 C 19.86 43.86, 19.86 43.86, 19.86 43.86 C 19.86 43.86, 19.86 43.86, 19.86 43.86 C 19.86 43.86, 19.86 43.86, 19.86 43.86 C 19.86 43.86, 19.86 44.085, 19.86 43.86 C 19.86 43.41, 19.86 43.605000000000004, 19.86 42.96 C 19.86 42.120000000000005, 19.86 42.21, 19.86 41.28 C 19.86 40.260000000000005, 19.755 40.11, 19.86 39.24 C 20.07 38.519999999999996, 19.995 38.58, 20.28 37.8 C 20.64 36.959999999999994, 20.58 36.92999999999999, 21 36.12 C 21.48 35.34, 21.330000000000002 35.31, 21.96 34.56 C 22.740000000000002 33.84, 22.71 33.81, 23.52 33.12 C 24.36 32.459999999999994, 24.390000000000004 32.324999999999996, 25.200000000000003 31.799999999999997 C 25.98 31.409999999999997, 26.025 31.349999999999998, 26.759999999999998 31.02 C 27.45 30.75, 27.39 30.72, 28.14 30.48 C 28.95 30.27, 29.099999999999998 30.224999999999998, 29.759999999999998 30.06 C 30.27 29.939999999999998, 30.3 29.94, 30.78 29.82 C 31.23 29.7, 31.064999999999998 29.64, 31.68 29.58 C 32.46 29.58, 32.685 29.564999999999998, 33.24 29.58 C 33.57000000000001 29.61, 33.63000000000001 29.595, 33.900000000000006 29.64 C 34.11 29.7, 34.215 29.729999999999997, 34.32 29.759999999999998 L 34.32 29.759999999999998" fill="none" stroke="black" stroke-width="5"></path></svg>