<svg xmlns="http://www.w3.org/2000/svg" viewBox="9.873332977294922 6.619999885559082 27.91007900238037 38.78000259399414" width="27.91007900238037" height="38.78000259399414"><path d="M 10.92 7.62 C 10.92 11.610000000000001, 10.815 12.270000000000001, 10.92 15.600000000000001 C 11.129999999999999 18.270000000000003, 11.115 18.450000000000003, 11.34 20.94 C 11.58 23.25, 11.61 23.055, 11.82 25.56 C 12 28.259999999999998, 12.09 28.41, 12.18 30.96 C 12.18 33.36, 12.059999999999999 33.584999999999994, 12.18 35.76 C 12.42 37.71, 12.54 38.25, 12.66 39.660000000000004 C 12.66 40.53, 12.615 40.605000000000004, 12.66 41.400000000000006 C 12.75 42.120000000000005, 12.795 42.254999999999995, 12.84 42.839999999999996 C 12.84 43.29, 12.84 43.515, 12.84 43.74 C 12.84 43.74, 12.84 43.74, 12.84 43.74 C 12.84 43.74, 12.84 43.74, 12.84 43.74 C 12.84 43.74, 12.84 43.74, 12.84 43.74 C 12.84 43.74, 12.84 43.605000000000004, 12.84 43.74 C 12.84 44.010000000000005, 12.84 44.115, 12.84 44.28 C 12.84 44.34, 12.84 44.370000000000005, 12.84 44.400000000000006 L 12.84 44.400000000000006" fill="none" stroke="black" stroke-width="5"></path><path d="M 11.7 14.28 C 13.17 14.28, 13.035 14.25, 14.64 14.28 C 16.380000000000003 14.34, 16.695 14.084999999999999, 18.12 14.399999999999999 C 19.23 14.969999999999999, 19.215 14.565, 20.34 15.54 C 21.48 16.919999999999998, 21.630000000000003 16.424999999999997, 22.62 18.299999999999997 C 23.46 20.669999999999998, 23.654999999999998 20.43, 24.299999999999997 23.04 C 24.75 25.89, 24.975 26.910000000000004, 25.200000000000003 28.740000000000002 C 25.200000000000003 29.55, 25.200000000000003 29.955, 25.200000000000003 30.36 C 25.200000000000003 30.36, 25.200000000000003 30.36, 25.200000000000003 30.36 C 25.200000000000003 30.36, 25.035000000000004 30.57, 25.200000000000003 30.36 C 25.53 29.939999999999998, 24.975 30.03, 25.86 29.52 C 27.3 28.92, 27.6 28.665, 28.740000000000002 28.32 C 29.580000000000002 28.23, 29.445 27.9, 30.42 28.14 C 31.53 28.71, 31.485 28.395000000000003, 32.64 29.28 C 33.84 30.48, 34.08 30.21, 35.04 31.68 C 35.760000000000005 33.42, 36.06 33.660000000000004, 36.480000000000004 35.160000000000004 C 36.6 36.42, 36.765 36.27, 36.72 37.68 C 36.51 39.239999999999995, 37.214999999999996 39.57, 36.3 40.8 C 34.68 41.699999999999996, 34.695 42.029999999999994, 33.06 42.599999999999994 C 31.41 42.839999999999996, 30.945 42.959999999999994, 29.759999999999998 43.08 C 29.04 43.08, 29.37 43.379999999999995, 28.32 43.08 C 26.939999999999998 42.480000000000004, 26.445 42.57, 25.56 41.88 C 25.17 41.1, 24.75 41.4, 24.78 40.32 C 25.23 38.94, 24.915 38.550000000000004, 25.68 37.56 C 26.759999999999998 36.96, 26.819999999999997 36.69, 27.839999999999996 36.36 C 28.799999999999997 36.3, 28.695 36.21, 29.759999999999998 36.24 C 30.929999999999996 36.36, 31.109999999999992 36.135000000000005, 32.099999999999994 36.480000000000004 C 32.91 37.05, 33.059999999999995 36.93, 33.72 37.62 C 34.230000000000004 38.43, 34.395 38.61, 34.74 39.24 C 34.92 39.69, 34.98 39.75, 35.099999999999994 40.14 C 35.16 40.47, 35.19 40.635, 35.22 40.8 C 35.22 40.8, 35.22 40.8, 35.22 40.8 C 35.22 40.8, 35.22 40.8, 35.22 40.8 C 35.22 40.8, 35.22 40.8, 35.22 40.8 L 35.22 40.8" fill="none" stroke="black" stroke-width="5"></path></svg>