<svg xmlns="http://www.w3.org/2000/svg" viewBox="9.420000076293945 6.199999809265137 25.39288902282715 29.05999755859375" width="25.39288902282715" height="29.05999755859375"><path d="M 18 7.199999999999999 C 16.35 7.319999999999999, 16.02 7.379999999999999, 14.700000000000001 7.4399999999999995 C 13.71 7.4399999999999995, 13.47 7.4399999999999995, 12.72 7.4399999999999995 C 12.21 7.4399999999999995, 12.12 7.4399999999999995, 11.7 7.4399999999999995 C 11.370000000000001 7.4399999999999995, 11.205 7.4399999999999995, 11.040000000000001 7.4399999999999995 C 11.040000000000001 7.4399999999999995, 11.040000000000001 7.4399999999999995, 11.040000000000001 7.4399999999999995 C 11.040000000000001 7.4399999999999995, 11.040000000000001 7.4399999999999995, 11.040000000000001 7.4399999999999995 C 11.040000000000001 7.4399999999999995, 11.040000000000001 7.4399999999999995, 11.040000000000001 7.4399999999999995 C 11.040000000000001 7.4399999999999995, 11.085 7.424999999999999, 11.040000000000001 7.4399999999999995 C 10.95 7.47, 10.92 7.305, 10.86 7.5 C 10.83 7.86, 10.875 7.65, 10.8 8.22 C 10.68 9, 10.635000000000002 9.059999999999999, 10.56 9.78 C 10.530000000000001 10.440000000000001, 10.530000000000001 10.23, 10.5 11.100000000000001 C 10.469999999999999 12.18, 10.455 12.375, 10.44 13.26 C 10.44 13.95, 10.44 13.845, 10.44 14.64 C 10.44 15.540000000000001, 10.44 15.435000000000002, 10.44 16.44 C 10.44 17.55, 10.44 17.745, 10.44 18.66 C 10.44 19.380000000000003, 10.44 19.305, 10.44 20.1 C 10.44 20.97, 10.44 21.060000000000002, 10.44 21.84 C 10.44 22.53, 10.44 22.65, 10.44 23.22 C 10.44 23.669999999999998, 10.44 23.684999999999995, 10.44 24.119999999999997 C 10.44 24.54, 10.44 24.63, 10.44 24.96 C 10.44 25.200000000000003, 10.44 25.005000000000003, 10.44 25.44 C 10.44 26.07, 10.44 26.115000000000002, 10.44 26.700000000000003 C 10.44 27.240000000000002, 10.44 27.345000000000002, 10.44 27.78 C 10.44 28.11, 10.395 28.050000000000004, 10.44 28.44 C 10.530000000000001 28.89, 10.575000000000001 28.934999999999995, 10.620000000000001 29.339999999999996 C 10.620000000000001 29.699999999999996, 10.620000000000001 29.714999999999996, 10.620000000000001 30.06 C 10.620000000000001 30.39, 10.605 30.419999999999998, 10.620000000000001 30.72 C 10.65 30.99, 10.635 30.99, 10.68 31.259999999999998 C 10.74 31.529999999999998, 10.74 31.574999999999996, 10.8 31.799999999999997 C 10.86 31.98, 10.875 32.025000000000006, 10.92 32.160000000000004 C 10.95 32.25, 10.83 32.22, 10.98 32.339999999999996 C 11.25 32.489999999999995, 11.175 32.519999999999996, 11.52 32.64 C 11.94 32.730000000000004, 11.91 32.7, 12.36 32.82 C 12.84 32.97, 12.855 33.045, 13.32 33.12 C 13.77 33.12, 13.755 33.12, 14.22 33.12 C 14.7 33.12, 14.67 33.19499999999999, 15.18 33.12 C 15.719999999999999 32.97, 15.614999999999998 33.075, 16.259999999999998 32.82 C 17.009999999999998 32.459999999999994, 17.069999999999997 32.459999999999994, 17.759999999999998 32.099999999999994 C 18.39 31.74, 18.33 31.755000000000003, 19.02 31.380000000000003 C 19.77 30.990000000000002, 19.71 31.095, 20.52 30.599999999999998 C 21.39 30, 21.525 29.895000000000003, 22.259999999999998 29.400000000000002 C 22.86 29.009999999999998, 22.68 29.084999999999997, 23.46 28.619999999999997 C 24.42 28.08, 24.42 27.974999999999998, 25.380000000000003 27.54 C 26.34 27.21, 26.384999999999998 27.090000000000003, 27.299999999999997 26.880000000000003 C 28.169999999999998 26.790000000000003, 28.38 26.745000000000005, 29.04 26.700000000000003 C 29.490000000000002 26.700000000000003, 29.34 26.445000000000004, 29.94 26.700000000000003 C 30.69 27.21, 30.840000000000003 27.225, 31.44 27.72 C 31.89 28.2, 31.889999999999997 28.125, 32.339999999999996 28.68 C 32.79 29.310000000000002, 32.895 29.385, 33.24 29.94 C 33.480000000000004 30.42, 33.585 30.315, 33.72 30.900000000000002 C 33.75 31.590000000000003, 33.870000000000005 31.725, 33.78 32.28 C 33.57 32.7, 33.825 32.685, 33.36 33.12 C 32.64 33.56999999999999, 32.760000000000005 33.735, 31.92 34.019999999999996 C 30.96 34.14, 31.05 34.199999999999996, 30 34.26 C 28.86 34.26, 28.455 34.26, 27.72 34.26 C 27.39 34.26, 27.255 34.26, 27.06 34.26 C 27 34.26, 26.97 34.26, 26.94 34.26 L 26.94 34.26" fill="none" stroke="black" stroke-width="5"></path></svg>