<svg xmlns="http://www.w3.org/2000/svg" viewBox="11.960000038146973 3.9800000190734863 20.246665954589844 42.20000076293945" width="20.246665954589844" height="42.20000076293945"><path d="M 13.5 4.9799999999999995 C 13.5 6.18, 13.5 6.165, 13.5 7.38 C 13.5 8.61, 13.5 8.52, 13.5 9.84 C 13.5 11.25, 13.5 11.205, 13.5 12.66 C 13.5 14.16, 13.455 14.31, 13.5 15.66 C 13.59 16.86, 13.62 16.439999999999998, 13.68 18.06 C 13.71 20.1, 13.725 20.49, 13.74 22.14 C 13.74 23.400000000000002, 13.755 22.740000000000002, 13.74 24.660000000000004 C 13.71 27.240000000000002, 13.695 27.57, 13.68 29.82 C 13.68 31.740000000000002, 13.68 31.845000000000006, 13.68 33.660000000000004 C 13.68 35.370000000000005, 13.799999999999999 35.43, 13.68 37.08 C 13.440000000000001 38.67, 13.32 38.82, 13.200000000000001 40.26 C 13.200000000000001 41.55, 13.260000000000002 41.73, 13.200000000000001 42.839999999999996 C 13.080000000000002 43.769999999999996, 13.020000000000001 44.115, 12.96 44.7 C 12.96 44.94, 12.96 45.06, 12.96 45.18 L 12.96 45.18" fill="none" stroke="black" stroke-width="5"></path><path d="M 13.68 11.76 C 13.71 11.73, 13.440000000000001 11.745, 13.74 11.7 C 14.309999999999999 11.64, 13.95 11.685, 14.879999999999999 11.58 C 16.17 11.43, 16.14 11.355, 17.46 11.28 C 18.810000000000002 11.28, 18.9 11.28, 20.16 11.28 C 21.33 11.28, 21.36 11.174999999999999, 22.5 11.28 C 23.61 11.489999999999998, 23.61 11.489999999999998, 24.72 11.7 C 25.83 11.91, 25.8 11.760000000000002, 26.94 12.120000000000001 C 28.11 12.63, 28.41 12.585, 29.28 13.14 C 29.85 13.74, 29.970000000000002 13.395, 30.42 14.34 C 30.75 15.629999999999999, 30.915 15.54, 31.08 16.919999999999998 C 31.08 18.39, 31.365 18.75, 31.08 19.86 C 30.509999999999998 20.61, 30.675 20.669999999999998, 29.94 21.36 C 29.04 21.990000000000002, 28.905 22.215, 28.14 22.62 C 27.51 22.8, 27.42 22.89, 26.880000000000003 22.98 C 26.43 22.98, 26.520000000000003 23.085, 25.98 22.98 C 25.35 22.77, 25.29 22.98, 24.72 22.56 C 24.21 21.93, 24.03 21.854999999999997, 23.700000000000003 21.299999999999997 C 23.55 20.82, 23.475 20.91, 23.4 20.34 C 23.4 19.68, 23.4 19.65, 23.4 19.02 C 23.4 18.42, 23.4 18.39, 23.4 17.82 C 23.4 17.28, 23.279999999999998 17.340000000000003, 23.4 16.740000000000002 C 23.64 16.08, 23.595 15.989999999999998, 23.88 15.419999999999998 C 24.21 14.94, 24.015 15, 24.54 14.46 C 25.259999999999998 13.86, 25.395 13.68, 25.98 13.26 C 26.43 13.02, 26.400000000000002 12.959999999999999, 26.880000000000003 12.78 C 27.39 12.66, 27.585 12.629999999999999, 27.900000000000002 12.54 C 28.020000000000003 12.479999999999999, 28.080000000000002 12.45, 28.14 12.419999999999998 L 28.14 12.419999999999998" fill="none" stroke="black" stroke-width="5"></path></svg>