<svg xmlns="http://www.w3.org/2000/svg" viewBox="10.666666984558105 7.819999694824219 15.90000057220459 35.746490478515625" width="15.90000057220459" height="35.746490478515625"><path d="M 18.96 11.76 C 18.060000000000002 11.76, 18.09 11.805, 17.16 11.76 C 16.2 11.67, 16.065 11.625, 15.24 11.58 C 14.55 11.58, 14.25 11.58, 13.86 11.58 C 13.77 11.58, 13.77 11.58, 13.68 11.58 C 13.59 11.58, 13.545 11.58, 13.5 11.58 C 13.5 11.58, 13.5 11.58, 13.5 11.58 C 13.5 11.58, 13.605 11.325, 13.5 11.58 C 13.290000000000001 12.09, 13.290000000000003 11.625000000000002, 13.080000000000002 12.600000000000001 C 12.870000000000001 14.040000000000001, 12.81 14.370000000000001, 12.66 15.48 C 12.57 16.259999999999998, 12.57 16.095, 12.48 17.04 C 12.39 18.15, 12.434999999999999 18.014999999999997, 12.299999999999999 19.259999999999998 C 12.12 20.64, 12.03 20.909999999999997, 11.94 22.02 C 11.94 22.86, 11.94 22.965000000000003, 11.94 23.700000000000003 C 11.94 24.330000000000002, 11.879999999999999 24.375, 11.94 24.96 C 12.059999999999999 25.5, 11.895 25.59, 12.18 26.04 C 12.63 26.4, 12.645000000000003 26.505, 13.080000000000002 26.759999999999998 C 13.5 26.909999999999997, 13.409999999999998 26.939999999999998, 13.919999999999998 27.06 C 14.52 27.15, 14.325 27.135, 15.120000000000001 27.240000000000002 C 16.11 27.36, 15.915000000000003 27.375, 17.1 27.48 C 18.48 27.57, 18.525 27.615000000000002, 19.86 27.660000000000004 C 21.15 27.660000000000004, 21.39 27.690000000000005, 22.44 27.660000000000004 C 23.25 27.6, 23.43 27.630000000000003, 24.06 27.54 C 24.509999999999998 27.419999999999998, 24.63 27.374999999999996, 24.96 27.299999999999997 C 25.17 27.27, 25.275000000000002 27.255000000000003, 25.380000000000003 27.240000000000002 L 25.380000000000003 27.240000000000002" fill="none" stroke="black" stroke-width="5"></path><path d="M 11.76 33.54 C 11.76 34.8, 11.549999999999999 34.785000000000004, 11.76 36.06 C 12.18 37.35, 12.165000000000001 37.545, 12.600000000000001 38.64 C 13.05 39.54, 12.915 39.629999999999995, 13.5 40.44 C 14.22 41.16, 14.145000000000001 41.370000000000005, 14.940000000000001 41.88 C 15.81 42.18000000000001, 15.705 42.315000000000005, 16.68 42.480000000000004 C 17.759999999999998 42.510000000000005, 17.955 42.615, 18.84 42.54 C 19.53 42.36, 19.485 42.525, 20.22 42.18 C 21 41.67, 21.045 41.88, 21.78 41.160000000000004 C 22.47 40.230000000000004, 22.545 40.26, 23.16 39.3 C 23.700000000000003 38.31, 23.745 38.370000000000005, 24.240000000000002 37.32 C 24.69 36.209999999999994, 24.87 36.11999999999999, 25.14 35.099999999999994 C 25.23 34.17, 25.275 34.65, 25.32 33.24 C 25.32 31.35, 25.32 31.545, 25.32 29.46 C 25.32 27.18, 25.32 27.03, 25.32 24.900000000000002 C 25.32 22.92, 25.26 23.235000000000003, 25.32 20.94 C 25.439999999999998 18.330000000000002, 25.5 17.79, 25.56 15.72 C 25.56 14.190000000000001, 25.575 13.98, 25.56 12.66 C 25.53 11.55, 25.56 11.355, 25.5 10.44 C 25.41 9.719999999999999, 25.365000000000002 9.405, 25.32 9 C 25.32 8.91, 25.32 8.865, 25.32 8.82 L 25.32 8.82" fill="none" stroke="black" stroke-width="5"></path></svg>