<svg xmlns="http://www.w3.org/2000/svg" viewBox="10.559999465942383 6.739999771118164 18.47333335876465 39.980000495910645" width="18.47333335876465" height="39.980000495910645"><path d="M 11.58 7.74 C 11.58 8.76, 11.535 8.805, 11.58 9.78 C 11.67 10.71, 11.715 10.77, 11.76 11.64 C 11.76 12.45, 11.76 12.690000000000001, 11.76 13.26 C 11.76 13.59, 11.76 13.709999999999997, 11.76 13.919999999999998 C 11.76 14.01, 11.76 14.055, 11.76 14.100000000000001 C 11.76 14.100000000000001, 11.745 14.055000000000001, 11.76 14.100000000000001 C 11.79 14.190000000000001, 11.76 14.19, 11.82 14.28 C 11.91 14.370000000000001, 11.925 14.4, 12 14.46 C 12.06 14.49, 12.045000000000002 14.504999999999999, 12.120000000000001 14.52 C 12.21 14.52, 12.12 14.535, 12.299999999999999 14.52 C 12.57 14.49, 12.405 14.55, 12.84 14.46 C 13.44 14.31, 13.469999999999999 14.31, 14.04 14.16 C 14.58 14.01, 14.58 13.95, 15.120000000000001 13.86 C 15.660000000000002 13.829999999999998, 15.675000000000004 13.815, 16.200000000000003 13.799999999999999 C 16.71 13.799999999999999, 16.695 13.799999999999999, 17.22 13.799999999999999 C 17.759999999999998 13.799999999999999, 17.729999999999997 13.799999999999999, 18.299999999999997 13.799999999999999 C 18.9 13.799999999999999, 18.869999999999997 13.86, 19.5 13.799999999999999 C 20.16 13.68, 20.19 13.62, 20.82 13.559999999999999 C 21.42 13.559999999999999, 21.42 13.559999999999999, 22.02 13.559999999999999 C 22.619999999999997 13.559999999999999, 22.755 13.559999999999999, 23.22 13.559999999999999 C 23.549999999999997 13.559999999999999, 23.519999999999996 13.514999999999999, 23.88 13.559999999999999 C 24.270000000000003 13.649999999999999, 24.300000000000004 13.59, 24.660000000000004 13.74 C 24.990000000000002 13.95, 24.975 13.845, 25.32 14.16 C 25.68 14.58, 25.755 14.655000000000001, 26.04 15 C 26.25 15.27, 26.25 15.27, 26.46 15.54 C 26.67 15.81, 26.700000000000003 15.795000000000002, 26.880000000000003 16.080000000000002 C 27.03 16.380000000000003, 27 16.32, 27.18 16.68 C 27.39 17.1, 27.435 17.085, 27.599999999999998 17.52 C 27.72 17.97, 27.734999999999996 17.849999999999998, 27.839999999999996 18.419999999999998 C 27.93 19.11, 27.974999999999998 19.094999999999995, 28.02 19.799999999999997 C 28.02 20.52, 28.02 20.46, 28.02 21.240000000000002 C 28.02 22.08, 28.02 22.229999999999997, 28.02 22.919999999999998 C 28.02 23.46, 28.02 23.7, 28.02 24 C 28.02 24.06, 28.049999999999997 24.044999999999998, 28.02 24.119999999999997 L 27.900000000000002 24.299999999999997" fill="none" stroke="black" stroke-width="5"></path><path d="M 15.78 14.700000000000001 C 15.690000000000001 16.86, 15.645000000000001 17.175, 15.600000000000001 19.02 C 15.600000000000001 20.55, 15.600000000000001 20.295, 15.600000000000001 22.080000000000002 C 15.600000000000001 24.120000000000005, 15.600000000000001 24.570000000000004, 15.600000000000001 26.160000000000004 C 15.600000000000001 27.300000000000004, 15.645000000000003 27.150000000000002, 15.600000000000001 28.44 C 15.51 29.880000000000003, 15.465 29.970000000000002, 15.419999999999998 31.32 C 15.419999999999998 32.58, 15.419999999999998 32.654999999999994, 15.419999999999998 33.839999999999996 C 15.419999999999998 34.95, 15.419999999999998 35.115, 15.419999999999998 36.06 C 15.419999999999998 36.84, 15.419999999999998 36.69, 15.419999999999998 37.62 C 15.419999999999998 38.7, 15.419999999999998 38.775, 15.419999999999998 39.78 C 15.419999999999998 40.71, 15.419999999999998 40.77, 15.419999999999998 41.64 C 15.419999999999998 42.45, 15.419999999999998 42.54, 15.419999999999998 43.26 C 15.419999999999998 43.89, 15.419999999999998 43.98, 15.419999999999998 44.519999999999996 C 15.419999999999998 44.97, 15.419999999999998 45.120000000000005, 15.419999999999998 45.42 C 15.419999999999998 45.57, 15.419999999999998 45.644999999999996, 15.419999999999998 45.72 C 15.419999999999998 45.72, 15.419999999999998 45.72, 15.419999999999998 45.72 L 15.419999999999998 45.72" fill="none" stroke="black" stroke-width="5"></path><path d="M 21.36 13.74 C 21.57 14.34, 21.675 14.13, 21.78 14.940000000000001 C 21.78 15.96, 21.78 15.690000000000001, 21.78 16.98 C 21.78 18.54, 21.78 18.465000000000003, 21.78 20.1 C 21.78 21.810000000000002, 21.78 21.765, 21.78 23.52 C 21.78 25.32, 21.78 25.619999999999997, 21.78 27.119999999999997 C 21.78 28.32, 21.78 28.229999999999997, 21.78 29.52 C 21.78 30.9, 21.78 30.855, 21.78 32.28 C 21.78 33.75, 21.78 34.065, 21.78 35.22 C 21.78 36.06, 21.78 36.21000000000001, 21.78 36.900000000000006 C 21.78 37.440000000000005, 21.795 37.32000000000001, 21.78 37.980000000000004 C 21.75 38.760000000000005, 21.735 38.85, 21.72 39.54 C 21.72 40.14, 21.72 40.050000000000004, 21.72 40.74 C 21.72 41.519999999999996, 21.72 41.595, 21.72 42.3 C 21.72 42.93, 21.72 42.99, 21.72 43.56 C 21.72 44.07, 21.72 44.19, 21.72 44.58 C 21.72 44.849999999999994, 21.72 44.985, 21.72 45.12 C 21.72 45.12, 21.72 45.12, 21.72 45.12 L 21.72 45.12" fill="none" stroke="black" stroke-width="5"></path></svg>