<svg xmlns="http://www.w3.org/2000/svg" viewBox="9.633333206176758 4.159999847412109 21.440000534057617 38.29999923706055" width="21.440000534057617" height="38.29999923706055"><path d="M 11.58 5.16 C 11.46 5.76, 11.565 5.3100000000000005, 11.34 6.36 C 11.01 7.859999999999999, 10.844999999999999 7.965, 10.68 9.36 C 10.68 10.649999999999999, 10.68 10.86, 10.68 11.94 C 10.68 12.809999999999999, 10.68 12.9, 10.68 13.68 C 10.68 14.37, 10.575 14.159999999999998, 10.68 15.059999999999999 C 10.89 16.17, 10.89 15.990000000000002, 11.100000000000001 17.28 C 11.31 18.75, 11.295 18.884999999999998, 11.52 20.22 C 11.76 21.42, 11.82 21.630000000000003, 12 22.62 C 12.120000000000001 23.4, 11.969999999999999 23.145, 12.24 24.18 C 12.66 25.47, 12.720000000000002 25.65, 13.080000000000002 26.759999999999998 C 13.38 27.689999999999998, 13.395 27.629999999999995, 13.68 28.619999999999997 C 13.95 29.669999999999998, 13.965 29.685, 14.22 30.72 C 14.46 31.74, 14.445 31.694999999999997, 14.700000000000001 32.76 C 14.97 33.870000000000005, 14.955 33.945, 15.24 34.980000000000004 C 15.54 35.940000000000005, 15.51 35.970000000000006, 15.84 36.900000000000006 C 16.2 37.800000000000004, 16.275 37.965, 16.56 38.7 C 16.77 39.269999999999996, 16.83 39.419999999999995, 16.98 39.839999999999996 C 17.07 40.11, 17.085 40.2, 17.16 40.38 C 17.22 40.47, 17.25 40.515, 17.28 40.56 C 17.28 40.56, 17.28 40.56, 17.28 40.56 L 17.28 40.56" fill="none" stroke="black" stroke-width="5"></path><path d="M 11.100000000000001 13.68 C 12.030000000000001 13.469999999999999, 11.775000000000002 13.365, 12.96 13.26 C 14.4 13.26, 14.475000000000001 13.26, 15.84 13.26 C 17.13 13.26, 17.444999999999997 13.26, 18.419999999999998 13.26 C 19.08 13.26, 18.810000000000002 13.26, 19.740000000000002 13.26 C 20.94 13.26, 20.895000000000003 13.185, 22.14 13.26 C 23.43 13.41, 23.654999999999998 13.334999999999999, 24.72 13.559999999999999 C 25.560000000000002 13.86, 25.695 13.875, 26.400000000000002 14.16 C 26.97 14.43, 26.895 14.25, 27.54 14.700000000000001 C 28.259999999999998 15.330000000000002, 28.439999999999998 15.375000000000002, 28.98 15.96 C 29.340000000000003 16.5, 29.430000000000003 16.215, 29.700000000000003 17.04 C 29.880000000000003 18.15, 29.97 18.014999999999997, 30.06 19.259999999999998 C 30.06 20.64, 30.06 20.775, 30.06 22.02 C 30.06 23.130000000000003, 30.089999999999996 23.115000000000002, 30.06 24.240000000000002 C 30 25.380000000000003, 30.09 25.425, 29.94 26.52 C 29.700000000000003 27.57, 29.745 27.554999999999996, 29.46 28.619999999999997 C 29.13 29.7, 29.084999999999997 29.895, 28.799999999999997 30.78 C 28.56 31.470000000000002, 28.604999999999997 31.365000000000002, 28.32 32.160000000000004 C 27.990000000000002 33.06, 28.020000000000003 32.94, 27.660000000000004 33.96 C 27.270000000000003 35.1, 27.285000000000004 35.055, 26.880000000000003 36.24 C 26.46 37.47, 26.384999999999998 37.725, 26.04 38.7 C 25.77 39.42, 25.695 39.495000000000005, 25.5 40.14 C 25.38 40.71, 25.334999999999997 40.95, 25.259999999999998 41.28 C 25.23 41.370000000000005, 25.215000000000003 41.415, 25.200000000000003 41.46 L 25.200000000000003 41.46" fill="none" stroke="black" stroke-width="5"></path><path d="M 12.299999999999999 40.5 C 13.14 40.47, 12.915000000000001 40.455, 13.98 40.44 C 15.27 40.44, 15.434999999999999 40.44, 16.56 40.44 C 17.52 40.44, 17.19 40.44, 18.48 40.44 C 20.1 40.44, 20.369999999999997 40.425, 21.72 40.44 C 22.799999999999997 40.47, 22.695 40.394999999999996, 23.88 40.5 C 25.17 40.68, 25.455 40.725, 26.46 40.86 C 27.18 40.95, 27.42 40.995, 27.900000000000002 41.04 C 28.14 41.04, 28.26 41.04, 28.380000000000003 41.04 L 28.380000000000003 41.04" fill="none" stroke="black" stroke-width="5"></path></svg>