<svg xmlns="http://www.w3.org/2000/svg" viewBox="9.853333473205566 3.9200000762939453 25.046667098999023 41.30000305175781" width="25.046667098999023" height="41.30000305175781"><path d="M 11.34 4.92 C 11.34 6.36, 11.46 5.385, 11.34 7.800000000000001 C 11.1 11.190000000000001, 10.98 11.565000000000001, 10.86 14.580000000000002 C 10.86 17.22, 10.86 17.055, 10.86 19.86 C 10.86 22.83, 10.844999999999999 22.814999999999998, 10.86 25.799999999999997 C 10.89 28.799999999999997, 10.86 29.174999999999997, 10.92 31.799999999999997 C 11.010000000000002 34.05, 10.935000000000002 33.915, 11.100000000000001 36.3 C 11.34 38.81999999999999, 11.4 39.52499999999999, 11.58 41.339999999999996 C 11.7 42.45, 11.715 42.84, 11.82 43.56 C 11.91 43.89, 11.955 44.055, 12 44.22 L 12 44.22" fill="none" stroke="black" stroke-width="5"></path><path d="M 10.86 14.879999999999999 C 11.73 14.49, 11.805000000000001 14.325000000000001, 12.600000000000001 14.100000000000001 C 13.32 14.040000000000001, 13.26 13.515, 14.04 13.98 C 14.879999999999999 14.97, 15.015 14.655000000000001, 15.72 15.96 C 16.29 17.580000000000002, 16.47 17.685000000000002, 16.86 19.200000000000003 C 17.07 20.61, 17.145000000000003 21.27, 17.28 22.02 C 17.34 22.11, 17.294999999999998 22.245000000000005, 17.4 22.200000000000003 C 17.55 22.020000000000003, 17.25 22.86, 17.700000000000003 21.84 C 18.450000000000003 19.98, 18.300000000000004 19.62, 19.200000000000003 18.12 C 20.25 16.98, 20.07 16.634999999999998, 21.299999999999997 15.84 C 22.709999999999997 15.39, 22.499999999999996 15.030000000000001, 24.119999999999997 14.940000000000001 C 25.95 15.21, 26.115000000000002 14.610000000000001, 27.78 15.48 C 29.28 16.95, 29.64 16.845, 30.78 18.419999999999998 C 31.56 20.1, 31.589999999999996 19.29, 32.339999999999996 21.78 C 33.06 25.080000000000002, 33.39 25.575000000000003, 33.78 28.380000000000003 C 33.84 30.69, 33.885000000000005 30.465000000000003, 33.900000000000006 33 C 33.870000000000005 35.76, 33.855 36.56999999999999, 33.839999999999996 38.519999999999996 C 33.839999999999996 39.66, 33.9 39.72, 33.839999999999996 40.8 C 33.72 41.81999999999999, 33.66 42.239999999999995, 33.599999999999994 42.839999999999996 C 33.599999999999994 43.019999999999996, 33.644999999999996 43.050000000000004, 33.599999999999994 43.2 L 33.42 43.44" fill="none" stroke="black" stroke-width="5"></path><path d="M 24.299999999999997 27.599999999999998 C 23.58 27.54, 23.849999999999998 27.33, 22.86 27.48 C 21.6 27.840000000000003, 21.45 27.240000000000002, 20.34 28.200000000000003 C 19.38 29.76, 18.839999999999996 29.775, 18.419999999999998 31.32 C 18.54 32.85, 17.91 33.03, 18.66 34.38 C 20.04 35.55, 19.95 35.97, 21.419999999999998 36.72 C 22.979999999999997 37.05, 23.52 37.290000000000006, 24.54 37.38 C 25.02 37.230000000000004, 24.9 37.665, 25.5 37.08 C 26.22 36.06, 26.46 36.209999999999994, 26.94 35.04 C 27.18 33.72, 27.3 33.55500000000001, 27.42 32.400000000000006 C 27.42 31.410000000000004, 27.765 31.275000000000002, 27.42 30.42 C 26.73 29.700000000000003, 26.88 29.43, 26.04 28.98 C 25.049999999999997 28.799999999999997, 24.689999999999998 28.74, 24.06 28.619999999999997 L 23.52 28.5" fill="none" stroke="black" stroke-width="5"></path></svg>