<svg xmlns="http://www.w3.org/2000/svg" viewBox="15.139999389648438 2.5399999618530273 13.15999984741211 39.27333450317383" width="13.15999984741211" height="39.27333450317383"><path d="M 27.299999999999997 4.0200000000000005 C 26.009999999999998 4.0200000000000005, 25.919999999999998 4.0200000000000005, 24.72 4.0200000000000005 C 23.61 4.0200000000000005, 23.445 4.08, 22.5 4.0200000000000005 C 21.72 3.9000000000000004, 22.005000000000003 3.8850000000000007, 20.94 3.7800000000000002 C 19.590000000000003 3.69, 19.14 3.6449999999999996, 18.240000000000002 3.5999999999999996 C 17.79 3.5999999999999996, 17.61 3.5999999999999996, 17.34 3.5999999999999996 C 17.25 3.5999999999999996, 17.205 3.5999999999999996, 17.16 3.5999999999999996 C 17.16 3.5999999999999996, 17.205 3.5999999999999996, 17.16 3.5999999999999996 C 17.07 3.5999999999999996, 17.04 3.465, 16.98 3.5999999999999996 C 16.95 3.8699999999999997, 16.935 3.8399999999999994, 16.919999999999998 4.14 C 16.919999999999998 4.470000000000001, 16.919999999999998 4.335000000000001, 16.919999999999998 4.800000000000001 C 16.919999999999998 5.4, 16.919999999999998 5.265000000000001, 16.919999999999998 6 C 16.919999999999998 6.87, 16.814999999999998 6.675000000000001, 16.919999999999998 7.74 C 17.13 9, 16.995 9.105, 17.34 10.26 C 17.82 11.309999999999999, 17.864999999999995 11.489999999999998, 18.299999999999997 12.36 C 18.689999999999998 13.05, 18.465000000000003 12.809999999999999, 19.080000000000002 13.74 C 19.92 14.91, 19.904999999999998 14.880000000000003, 20.759999999999998 16.080000000000002 C 21.63 17.310000000000002, 21.72 17.265, 22.5 18.54 C 23.189999999999998 19.86, 23.25 19.95, 23.88 21.18 C 24.45 22.32, 24.494999999999997 22.095, 25.02 23.46 C 25.5 25.05, 25.695 24.975, 25.98 26.64 C 26.07 28.38, 26.115000000000002 28.544999999999998, 26.160000000000004 30.119999999999997 C 26.160000000000004 31.529999999999998, 26.160000000000004 31.589999999999996, 26.160000000000004 32.94 C 26.160000000000004 34.23, 26.160000000000004 34.394999999999996, 26.160000000000004 35.519999999999996 C 26.160000000000004 36.48, 26.310000000000006 36.48, 26.160000000000004 37.44 C 25.86 38.4, 25.935 38.685, 25.56 39.36 C 25.11 39.75, 25.140000000000004 39.795, 24.660000000000004 40.14 C 24.150000000000002 40.44, 24.195 40.575, 23.64 40.74 C 23.04 40.769999999999996, 22.995 40.785, 22.44 40.8 C 21.93 40.8, 21.974999999999998 40.83, 21.419999999999998 40.8 C 20.82 40.739999999999995, 20.685 40.785, 20.22 40.68 C 19.89 40.53, 19.89 40.56, 19.56 40.38 C 19.229999999999997 40.17, 19.349999999999998 40.35, 18.9 39.96 C 18.33 39.39, 18.345 39.69, 17.759999999999998 38.82 C 17.159999999999997 37.650000000000006, 16.964999999999996 37.875, 16.56 36.480000000000004 C 16.35 34.86, 16.245 34.965, 16.14 33.24 C 16.14 31.41, 16.14 31.229999999999997, 16.14 29.58 C 16.14 28.11, 16.14 27.54, 16.14 26.64 C 16.14 26.310000000000002, 16.14 26.145, 16.14 25.98 L 16.14 25.98" fill="none" stroke="black" stroke-width="5"></path></svg>