<svg xmlns="http://www.w3.org/2000/svg" viewBox="10.5 6.059999942779541 22.1200008392334 39.82000112533569" width="22.1200008392334" height="39.82000112533569"><path d="M 16.86 7.08 C 16.2 7.08, 16.095 7.08, 15.54 7.08 C 15.09 7.08, 15.120000000000001 7.08, 14.64 7.08 C 14.13 7.08, 14.100000000000001 7.08, 13.620000000000001 7.08 C 13.170000000000002 7.08, 13.110000000000001 7.035, 12.72 7.08 C 12.39 7.17, 12.329999999999998 7.154999999999999, 12.059999999999999 7.26 C 11.85 7.38, 11.745000000000001 7.4399999999999995, 11.64 7.5 C 11.64 7.5, 11.64 7.5, 11.64 7.5 C 11.64 7.5, 11.670000000000002 7.365, 11.64 7.5 C 11.58 7.7700000000000005, 11.55 7.245000000000001, 11.52 8.040000000000001 C 11.52 9.36, 11.52 9.495000000000001, 11.52 10.68 C 11.52 11.73, 11.52 11.655, 11.52 12.78 C 11.52 13.98, 11.52 14.07, 11.52 15.18 C 11.52 16.2, 11.475 16.349999999999998, 11.52 17.22 C 11.61 17.939999999999998, 11.565 17.88, 11.7 18.66 C 11.879999999999999 19.5, 11.895 19.62, 12.059999999999999 20.34 C 12.209999999999999 20.939999999999998, 12.194999999999999 20.97, 12.36 21.54 C 12.54 22.08, 12.465 22.11, 12.72 22.62 C 13.05 23.1, 12.854999999999999 23.115000000000002, 13.379999999999999 23.580000000000002 C 14.1 24.03, 13.995000000000001 24.105, 14.82 24.48 C 15.75 24.78, 15.465 24.735, 16.68 25.08 C 18.18 25.47, 17.805 25.545, 19.68 25.86 C 21.93 26.099999999999998, 22.095 26.22, 24.18 26.339999999999996 C 26.1 26.339999999999996, 26.490000000000002 26.339999999999996, 28.02 26.339999999999996 C 29.159999999999997 26.339999999999996, 29.49 26.339999999999996, 30.299999999999997 26.339999999999996 C 30.779999999999998 26.339999999999996, 30.93 26.339999999999996, 31.259999999999998 26.339999999999996 C 31.439999999999998 26.339999999999996, 31.529999999999998 26.339999999999996, 31.619999999999997 26.339999999999996 L 31.619999999999997 26.339999999999996" fill="none" stroke="black" stroke-width="5"></path><path d="M 24.36 32.339999999999996 C 23.31 32.25, 23.354999999999997 32.010000000000005, 22.259999999999998 32.160000000000004 C 21.119999999999997 32.55, 20.91 32.37, 19.98 32.94 C 19.259999999999998 33.69, 19.155 33.434999999999995, 18.54 34.44 C 18.03 35.7, 17.88 35.67, 17.52 36.96 C 17.310000000000002 38.28, 17.115000000000002 38.474999999999994, 17.1 39.599999999999994 C 17.28 40.53, 17.130000000000003 40.71, 17.46 41.46 C 17.939999999999998 42.03, 17.58 41.879999999999995, 18.419999999999998 42.599999999999994 C 19.619999999999997 43.47, 19.47 43.769999999999996, 20.82 44.339999999999996 C 22.32 44.61, 22.215 44.85, 23.82 44.88 C 25.53 44.67, 25.980000000000004 44.94, 27.240000000000002 44.46 C 28.05 43.71, 28.125 44.79, 28.86 42.96 C 29.52 40.05, 30.03 39.375, 30.18 37.14 C 29.82 35.58, 29.97 35.205, 29.46 34.019999999999996 C 28.8 33.21, 28.68 32.955000000000005, 28.14 32.400000000000006 C 27.72 32.1, 27.915 31.964999999999996, 27.299999999999997 31.799999999999997 C 26.49 31.77, 26.279999999999998 31.665000000000003, 25.68 31.740000000000002 C 25.29 31.919999999999998, 25.095000000000002 32.01, 24.900000000000002 32.099999999999994 L 24.900000000000002 32.099999999999994" fill="none" stroke="black" stroke-width="5"></path><path d="M 17.64 38.94 C 18.03 38.94, 16.95 38.94, 18.419999999999998 38.94 C 20.97 38.94, 21.645 39.015, 23.52 38.94 C 24.72 38.79, 24.705000000000002 38.715, 25.92 38.64 C 27.150000000000002 38.64, 27.360000000000003 38.685, 28.380000000000003 38.64 C 29.19 38.55, 29.46 38.505, 30 38.46 C 30.27 38.46, 30.405 38.46, 30.54 38.46 L 30.54 38.46" fill="none" stroke="black" stroke-width="5"></path></svg>