<svg xmlns="http://www.w3.org/2000/svg" viewBox="8.15999984741211 5.301671981811523 23.200000762939453 40.23832893371582" width="23.200000762939453" height="40.23832893371582"><path d="M 16.080000000000002 6.36 C 14.73 6.36, 14.594999999999999 6.36, 13.379999999999999 6.36 C 12.3 6.36, 12.105 6.36, 11.22 6.36 C 10.530000000000001 6.36, 10.35 6.36, 9.84 6.36 C 9.51 6.36, 9.344999999999999 6.36, 9.18 6.36 C 9.18 6.36, 9.18 6.36, 9.18 6.36 C 9.18 6.36, 9.18 6.36, 9.18 6.36 C 9.18 6.36, 9.135 6.315, 9.18 6.36 C 9.27 6.450000000000001, 9.299999999999999 6.075000000000001, 9.36 6.540000000000001 C 9.39 7.380000000000001, 9.405 7.440000000000001, 9.42 8.22 C 9.42 8.940000000000001, 9.42 8.805, 9.42 9.66 C 9.42 10.65, 9.42 10.920000000000002, 9.42 11.64 C 9.42 12.09, 9.42 11.864999999999998, 9.42 12.54 C 9.42 13.44, 9.344999999999999 13.545, 9.42 14.34 C 9.57 15.030000000000001, 9.600000000000001 15.105, 9.72 15.72 C 9.809999999999999 16.259999999999998, 9.735 16.349999999999998, 9.899999999999999 16.799999999999997 C 10.139999999999999 17.159999999999997, 10.079999999999998 17.085, 10.379999999999999 17.52 C 10.74 18.03, 10.635000000000002 18.134999999999998, 11.100000000000001 18.54 C 11.670000000000002 18.84, 11.685 18.915, 12.24 19.14 C 12.780000000000001 19.29, 12.6 19.305, 13.32 19.44 C 14.22 19.560000000000002, 14.250000000000002 19.62, 15.120000000000001 19.68 C 15.959999999999999 19.68, 15.824999999999998 19.68, 16.799999999999997 19.68 C 17.909999999999997 19.68, 17.865 19.68, 19.02 19.68 C 20.22 19.68, 20.279999999999998 19.725, 21.419999999999998 19.68 C 22.5 19.59, 22.725 19.605, 23.580000000000002 19.5 C 24.21 19.38, 24.074999999999996 19.365, 24.839999999999996 19.259999999999998 C 25.74 19.17, 25.785 19.215000000000003, 26.64 19.080000000000002 C 27.45 18.9, 27.599999999999998 18.81, 28.259999999999998 18.72 C 28.77 18.72, 28.845 18.765, 29.28 18.72 C 29.64 18.63, 29.73 18.585, 30 18.54 C 30.18 18.54, 30.27 18.54, 30.36 18.54 C 30.36 18.54, 30.36 18.54, 30.36 18.54 L 30.36 18.54" fill="none" stroke="black" stroke-width="5"></path><path d="M 15.120000000000001 19.5 C 15.120000000000001 19.92, 15.120000000000001 19.35, 15.120000000000001 20.34 C 15.120000000000001 21.9, 15.120000000000001 21.825, 15.120000000000001 23.46 C 15.120000000000001 25.17, 15.120000000000001 25.500000000000004, 15.120000000000001 26.880000000000003 C 15.120000000000001 27.93, 15.120000000000001 27.645000000000003, 15.120000000000001 28.98 C 15.120000000000001 30.6, 15.120000000000001 30.674999999999997, 15.120000000000001 32.22 C 15.120000000000001 33.69, 15.120000000000001 33.795, 15.120000000000001 35.160000000000004 C 15.120000000000001 36.42, 15.120000000000001 36.705, 15.120000000000001 37.68 C 15.120000000000001 38.370000000000005, 15.120000000000001 38.25, 15.120000000000001 39.06 C 15.120000000000001 39.99, 15.120000000000001 40.125, 15.120000000000001 40.92 C 15.120000000000001 41.58, 15.120000000000001 41.655, 15.120000000000001 42.24 C 15.120000000000001 42.75, 15.120000000000001 42.96, 15.120000000000001 43.26 C 15.120000000000001 43.349999999999994, 15.120000000000001 43.305, 15.120000000000001 43.44 C 15.120000000000001 43.62, 15.120000000000001 43.709999999999994, 15.120000000000001 43.8 C 15.120000000000001 43.8, 15.090000000000002 43.754999999999995, 15.120000000000001 43.8 C 15.18 43.89, 15.18 43.875, 15.24 43.980000000000004 C 15.3 44.1, 15.285 44.13, 15.36 44.22 C 15.45 44.28, 15.495 44.309999999999995, 15.54 44.339999999999996 C 15.54 44.339999999999996, 15.495 44.309999999999995, 15.54 44.339999999999996 C 15.629999999999999 44.4, 15.645 44.43, 15.72 44.46 C 15.780000000000001 44.46, 15.675 44.64, 15.84 44.46 C 16.11 44.1, 16.185 44.325, 16.38 43.74 C 16.5 42.93, 16.47 43.125, 16.62 42.12 C 16.8 40.92, 16.77 40.695, 16.98 39.72 C 17.22 38.97, 17.205000000000002 38.925, 17.46 38.22 C 17.73 37.56, 17.64 37.650000000000006, 18 36.900000000000006 C 18.45 36.06, 18.314999999999998 35.985, 18.9 35.22 C 19.619999999999997 34.53, 19.605 34.394999999999996, 20.34 33.839999999999996 C 21.09 33.42, 21.03 33.33, 21.84 33 C 22.71 32.76, 22.935000000000002 32.64, 23.580000000000002 32.519999999999996 C 24 32.519999999999996, 23.985000000000003 32.519999999999996, 24.42 32.519999999999996 C 24.87 32.519999999999996, 24.884999999999998 32.519999999999996, 25.32 32.519999999999996 C 25.740000000000002 32.519999999999996, 25.905000000000005 32.519999999999996, 26.160000000000004 32.519999999999996 C 26.25 32.519999999999996, 26.294999999999998 32.519999999999996, 26.339999999999996 32.519999999999996 L 26.339999999999996 32.519999999999996" fill="none" stroke="black" stroke-width="5"></path></svg>