<svg xmlns="http://www.w3.org/2000/svg" viewBox="11.28912353515625 4.28000020980835 17.790876388549805 39.44000244140625" width="17.790876388549805" height="39.44000244140625"><path d="M 12.600000000000001 5.28 C 12.45 7.109999999999999, 12.375 6.734999999999999, 12.299999999999999 8.94 C 12.299999999999999 11.52, 12.284999999999998 11.655000000000001, 12.299999999999999 14.100000000000001 C 12.329999999999998 16.41, 12.225 16.125, 12.36 18.72 C 12.6 21.6, 12.719999999999999 22.005000000000003, 12.84 24.48 C 12.84 26.549999999999997, 12.84 26.534999999999997, 12.84 28.619999999999997 C 12.84 30.72, 12.84 30.795, 12.84 32.82 C 12.84 34.769999999999996, 12.84 34.965, 12.84 36.72 C 12.84 38.28, 12.84 38.654999999999994, 12.84 39.839999999999996 C 12.84 40.65, 12.84 40.95, 12.84 41.46 C 12.84 41.67, 12.84 41.775000000000006, 12.84 41.88 C 12.84 41.88, 12.84 41.85, 12.84 41.88 C 12.84 41.94, 12.84 41.955, 12.84 42 C 12.84 42.03, 12.84 42.045, 12.84 42.06 C 12.84 42.06, 12.87 41.940000000000005, 12.84 42.06 C 12.780000000000001 42.3, 12.75 42.375, 12.72 42.54 L 12.72 42.72" fill="none" stroke="black" stroke-width="5"></path><path d="M 13.620000000000001 11.459999999999999 C 15.09 11.489999999999998, 15.36 11.145, 16.56 11.52 C 17.49 12.24, 17.549999999999997 12.015, 18.419999999999998 12.96 C 19.229999999999997 14.129999999999999, 19.439999999999998 13.965, 20.04 15.299999999999999 C 20.43 16.799999999999997, 20.58 17.474999999999998, 20.82 18.299999999999997 C 20.91 18.45, 20.955 18.525, 21 18.6 C 21 18.6, 21 18.615000000000002, 21 18.6 C 21 18.57, 21 19.095, 21 18.54 C 21 17.46, 20.564999999999998 17.43, 21 16.38 C 21.87 15.36, 21.765 15.225, 22.740000000000002 14.34 C 23.82 13.59, 23.775000000000002 13.395, 24.900000000000002 12.84 C 26.07 12.48, 26.445000000000004 12.315000000000001, 27.240000000000002 12.120000000000001 C 27.66 12.09, 27.869999999999997 12.075, 28.08 12.059999999999999 L 28.08 12.059999999999999" fill="none" stroke="black" stroke-width="5"></path><path d="M 23.700000000000003 26.46 C 22.5 26.79, 22.169999999999998 26.729999999999997, 21.299999999999997 27.119999999999997 C 20.759999999999998 27.57, 20.654999999999998 27.45, 20.22 28.02 C 19.89 28.71, 19.875 28.455000000000002, 19.56 29.400000000000002 C 19.259999999999998 30.6, 19.11 30.645, 18.96 31.799999999999997 C 18.96 32.91, 18.765 33.059999999999995, 18.96 34.019999999999996 C 19.35 34.83, 19.275000000000002 35.16, 19.740000000000002 35.64 C 20.28 35.79, 20.22 35.805, 20.82 35.94 C 21.48 36.06, 21.45 36.12, 22.14 36.18 C 22.86 36.18, 22.875 36.525, 23.580000000000002 36.18 C 24.270000000000003 35.489999999999995, 24.42 35.42999999999999, 24.96 34.8 C 25.35 34.230000000000004, 25.335 34.32, 25.740000000000002 33.660000000000004 C 26.16 32.910000000000004, 26.369999999999997 33.015, 26.58 32.160000000000004 C 26.58 31.200000000000003, 26.684999999999995 31.110000000000003, 26.58 30.240000000000002 C 26.37 29.46, 26.445000000000004 29.28, 26.160000000000004 28.68 C 25.800000000000004 28.259999999999998, 25.905 28.229999999999997, 25.44 27.839999999999996 C 24.869999999999997 27.479999999999997, 24.764999999999997 27.404999999999994, 24.299999999999997 27.119999999999997 C 23.939999999999998 26.91, 23.85 26.805, 23.580000000000002 26.700000000000003 C 23.4 26.700000000000003, 23.31 26.700000000000003, 23.22 26.700000000000003 L 23.22 26.700000000000003" fill="none" stroke="black" stroke-width="5"></path><path d="M 20.580000000000002 30.78 C 21.87 30.96, 22.2 31.005000000000003, 23.16 31.14 C 23.79 31.23, 23.745 31.215, 24.42 31.32 C 25.14 31.439999999999998, 25.2 31.5, 25.86 31.56 C 26.46 31.56, 26.759999999999998 31.56, 27.06 31.56 L 27.06 31.56" fill="none" stroke="black" stroke-width="5"></path></svg>