<svg xmlns="http://www.w3.org/2000/svg" viewBox="6.7310614585876465 2.240000009536743 24.988937377929688 42.919999837875366" width="24.988937377929688" height="42.919999837875366"><path d="M 16.799999999999997 3.96 C 16.32 3.69, 16.439999999999998 3.585, 15.84 3.42 C 15.12 3.3600000000000003, 15.134999999999998 3.33, 14.399999999999999 3.3000000000000003 C 13.649999999999999 3.3000000000000003, 13.679999999999998 3.1650000000000005, 12.899999999999999 3.3000000000000003 C 12.09 3.5700000000000003, 11.985 3.435, 11.28 3.84 C 10.68 4.38, 10.725 4.26, 10.08 4.92 C 9.39 5.7, 9.239999999999998 5.640000000000001, 8.7 6.48 C 8.309999999999999 7.38, 8.16 7.319999999999999, 7.92 8.28 C 7.83 9.3, 7.695 9.525, 7.74 10.32 C 7.920000000000001 10.89, 7.755000000000001 10.979999999999999, 8.100000000000001 11.459999999999999 C 8.610000000000001 11.85, 8.670000000000002 12, 9.120000000000001 12.24 C 9.51 12.329999999999998, 9.629999999999999 12.374999999999998, 9.899999999999999 12.419999999999998 C 10.049999999999999 12.419999999999998, 10.004999999999999 12.419999999999998, 10.2 12.419999999999998 C 10.44 12.419999999999998, 10.274999999999999 12.554999999999998, 10.68 12.419999999999998 C 11.25 12.149999999999999, 11.219999999999999 12.134999999999998, 11.82 11.879999999999999 C 12.450000000000001 11.639999999999999, 12.495000000000001 11.564999999999998, 13.080000000000002 11.399999999999999 C 13.620000000000001 11.309999999999999, 13.77 11.265, 14.16 11.22 C 14.4 11.22, 14.370000000000001 11.145000000000001, 14.64 11.22 C 14.940000000000001 11.370000000000001, 14.985 11.235, 15.24 11.52 C 15.45 11.94, 15.405000000000001 11.745, 15.66 12.36 C 15.959999999999999 13.17, 16.019999999999996 13.17, 16.259999999999998 13.98 C 16.439999999999998 14.790000000000001, 16.485 14.805000000000001, 16.62 15.600000000000001 C 16.71 16.380000000000003, 16.755 16.665, 16.799999999999997 17.16 C 16.799999999999997 17.37, 16.799999999999997 17.475, 16.799999999999997 17.580000000000002 C 16.799999999999997 17.580000000000002, 16.784999999999997 17.535000000000004, 16.799999999999997 17.580000000000002 C 16.83 17.67, 16.799999999999997 17.715, 16.86 17.759999999999998 C 16.95 17.759999999999998, 16.905 17.894999999999996, 17.04 17.759999999999998 C 17.22 17.49, 17.205 17.685, 17.4 17.22 C 17.61 16.56, 17.655 16.409999999999997, 17.82 15.899999999999999 C 17.939999999999998 15.54, 17.88 15.645, 18.06 15.18 C 18.299999999999997 14.61, 18.21 14.61, 18.54 14.04 C 18.96 13.469999999999999, 18.81 13.439999999999998, 19.38 12.899999999999999 C 20.1 12.389999999999999, 20.115 12.27, 20.82 11.879999999999999 C 21.51 11.61, 21.435000000000002 11.625, 22.200000000000003 11.34 C 23.04 11.04, 23.13 10.89, 23.88 10.74 C 24.54 10.74, 24.6 10.74, 25.200000000000003 10.74 C 25.740000000000002 10.74, 25.86 10.74, 26.28 10.74 C 26.580000000000002 10.74, 26.490000000000002 10.695, 26.880000000000003 10.74 C 27.36 10.83, 27.404999999999998 10.755, 27.839999999999996 10.92 C 28.229999999999997 11.16, 28.139999999999997 10.934999999999999, 28.619999999999997 11.399999999999999 C 29.189999999999998 12.09, 29.369999999999997 12.27, 29.759999999999998 12.78 C 29.97 13.11, 29.97 12.975000000000001, 30.18 13.440000000000001 C 30.39 14.040000000000001, 30.479999999999997 14.100000000000001, 30.599999999999998 14.64 C 30.630000000000003 15.120000000000001, 30.630000000000003 15.120000000000001, 30.660000000000004 15.600000000000001 C 30.69 16.08, 30.705 16.095, 30.72 16.56 C 30.72 17.009999999999998, 30.72 17.19, 30.72 17.46 C 30.72 17.55, 30.72 17.595, 30.72 17.64 L 30.72 17.64" fill="none" stroke="black" stroke-width="5"></path><path d="M 10.8 11.879999999999999 C 10.379999999999999 12.149999999999999, 10.395 11.999999999999998, 9.959999999999999 12.419999999999998 C 9.51 12.989999999999998, 9.36 13.109999999999998, 9.06 13.559999999999999 C 8.91 13.89, 8.865 13.635000000000002, 8.76 14.22 C 8.7 15.059999999999999, 8.67 14.924999999999999, 8.64 15.899999999999999 C 8.64 17.009999999999998, 8.580000000000002 17.265, 8.64 18.12 C 8.76 18.72, 8.684999999999999 18.705, 8.879999999999999 19.32 C 9.149999999999999 19.950000000000003, 9.225 20.07, 9.42 20.580000000000002 C 9.54 20.97, 9.6 21.165, 9.66 21.36 L 9.66 21.36" fill="none" stroke="black" stroke-width="5"></path><path d="M 21.240000000000002 11.34 C 21.18 11.97, 21.135 11.46, 21.12 12.600000000000001 C 21.15 14.25, 21 14.52, 21.18 15.899999999999999 C 21.509999999999998 17.009999999999998, 21.509999999999998 17.01, 21.84 18.12 C 22.17 19.23, 22.08 19.335, 22.5 20.34 C 23.009999999999998 21.240000000000002, 23.055 21.435000000000002, 23.52 22.14 C 23.939999999999998 22.65, 24 22.77, 24.36 23.16 C 24.66 23.43, 24.509999999999998 23.415000000000003, 24.96 23.700000000000003 C 25.560000000000002 24, 25.590000000000003 24.029999999999998, 26.160000000000004 24.299999999999997 C 26.700000000000003 24.54, 26.760000000000005 24.54, 27.240000000000002 24.78 C 27.66 25.02, 27.705 24.99, 28.08 25.259999999999998 C 28.41 25.56, 28.44 25.575, 28.740000000000002 25.86 C 29.01 26.130000000000003, 29.055 26.19, 29.28 26.400000000000002 C 29.46 26.550000000000004, 29.490000000000002 26.505000000000003, 29.64 26.700000000000003 C 29.76 26.94, 29.805000000000003 26.939999999999998, 29.880000000000003 27.18 C 29.910000000000004 27.42, 29.925 27.465000000000003, 29.94 27.660000000000004 C 29.94 27.810000000000002, 29.94 27.795, 29.94 27.96 C 29.94 28.14, 30.075000000000003 28.11, 29.94 28.32 C 29.67 28.56, 29.895000000000003 28.559999999999995, 29.400000000000002 28.799999999999997 C 28.68 29.04, 28.8 29.04, 27.96 29.28 C 27 29.52, 27.27 29.474999999999998, 26.04 29.759999999999998 C 24.54 30.09, 24.494999999999997 29.985, 23.04 30.42 C 21.63 30.96, 21.405 30.975, 20.22 31.5 C 19.259999999999998 32.01, 19.244999999999997 31.904999999999994, 18.299999999999997 32.519999999999996 C 17.369999999999997 33.239999999999995, 17.22 33.239999999999995, 16.44 33.96 C 15.81 34.68000000000001, 15.75 34.48500000000001, 15.18 35.400000000000006 C 14.67 36.510000000000005, 14.535 36.599999999999994, 14.16 37.62 C 13.92 38.55, 13.8 38.655, 13.68 39.480000000000004 C 13.68 40.2, 13.68 40.335, 13.68 40.92 C 13.68 41.370000000000005, 13.68 41.400000000000006, 13.68 41.82 C 13.68 42.209999999999994, 13.665 42.209999999999994, 13.68 42.599999999999994 C 13.71 42.989999999999995, 13.695 43.02, 13.74 43.38 C 13.8 43.71, 13.83 43.845, 13.86 44.04 C 13.86 44.1, 13.86 44.13, 13.86 44.160000000000004 L 13.86 44.160000000000004" fill="none" stroke="black" stroke-width="5"></path><path d="M 8.16 28.92 C 8.4 28.8, 8.280000000000001 28.71, 8.64 28.68 C 9.120000000000001 28.74, 9.120000000000001 28.679999999999996, 9.600000000000001 28.799999999999997 C 10.080000000000002 28.98, 9.96 28.950000000000003, 10.56 29.160000000000004 C 11.280000000000001 29.400000000000002, 11.4 29.400000000000002, 12 29.64 C 12.48 29.88, 12.345 29.82, 12.96 30.119999999999997 C 13.71 30.479999999999997, 13.875000000000002 30.494999999999997, 14.46 30.839999999999996 C 14.879999999999999 31.169999999999998, 14.954999999999998 31.2, 15.299999999999999 31.5 C 15.57 31.77, 15.629999999999999 31.814999999999998, 15.84 32.04 C 15.99 32.22, 16.065 32.31, 16.14 32.400000000000006 C 16.14 32.400000000000006, 16.095 32.370000000000005, 16.14 32.400000000000006 C 16.23 32.46, 16.17 32.355, 16.32 32.519999999999996 C 16.53 32.79, 16.635 32.925, 16.740000000000002 33.06 C 16.740000000000002 33.06, 16.740000000000002 33.06, 16.740000000000002 33.06 C 16.740000000000002 33.06, 16.740000000000002 33.06, 16.740000000000002 33.06 C 16.740000000000002 33.06, 16.740000000000002 33.06, 16.740000000000002 33.06 L 16.740000000000002 33.06" fill="none" stroke="black" stroke-width="5"></path></svg>