<svg xmlns="http://www.w3.org/2000/svg" viewBox="9.059999465942383 3.7800002098083496 24.50666618347168 43.05999994277954" width="24.50666618347168" height="43.05999994277954"><path d="M 17.46 5.34 C 17.1 5.16, 17.235000000000003 5.1, 16.740000000000002 4.9799999999999995 C 16.11 4.92, 16.11 4.890000000000001, 15.48 4.86 C 14.850000000000001 4.86, 14.985000000000001 4.680000000000001, 14.22 4.86 C 13.32 5.220000000000001, 13.214999999999998 5.055000000000001, 12.419999999999998 5.58 C 11.73 6.27, 11.625 6.209999999999999, 11.040000000000001 6.959999999999999 C 10.56 7.77, 10.32 7.859999999999999, 10.08 8.58 C 10.08 9.21, 10.035 9.285, 10.08 9.84 C 10.17 10.32, 9.93 10.260000000000002, 10.26 10.8 C 10.829999999999998 11.4, 10.904999999999998 11.55, 11.399999999999999 12 C 11.82 12.3, 11.82 12.375000000000002, 12.24 12.600000000000001 C 12.66 12.75, 12.600000000000001 12.764999999999999, 13.080000000000002 12.899999999999999 C 13.620000000000001 13.02, 13.365000000000002 13.08, 14.16 13.14 C 15.209999999999999 13.14, 15.419999999999998 13.14, 16.259999999999998 13.14 C 16.89 13.14, 17.085 13.14, 17.52 13.14 C 17.759999999999998 13.14, 17.835 13.110000000000001, 18 13.14 C 18.09 13.2, 18.075 13.17, 18.18 13.26 C 18.299999999999997 13.379999999999999, 18.345 13.395, 18.419999999999998 13.5 C 18.45 13.59, 18.435 13.53, 18.48 13.68 C 18.54 13.89, 18.6 13.875, 18.6 14.100000000000001 C 18.54 14.340000000000002, 18.66 14.310000000000002, 18.48 14.580000000000002 C 18.18 14.88, 18.33 14.715, 17.88 15.18 C 17.28 15.81, 17.235 15.825000000000001, 16.68 16.44 C 16.17 17.04, 16.125 17.085, 15.66 17.64 C 15.24 18.15, 15.375 17.925, 14.82 18.66 C 14.13 19.62, 14.025000000000002 19.590000000000003, 13.440000000000001 20.580000000000002 C 12.96 21.6, 13.020000000000001 21.555000000000003, 12.48 22.62 C 11.879999999999999 23.729999999999997, 11.7 23.97, 11.28 24.839999999999996 C 11.04 25.47, 10.92 25.439999999999998, 10.8 26.099999999999998 C 10.8 26.79, 10.8 26.805, 10.8 27.48 C 10.8 28.14, 10.635000000000002 28.184999999999995, 10.8 28.799999999999997 C 11.129999999999999 29.369999999999997, 11.04 29.4, 11.459999999999999 29.94 C 11.969999999999999 30.450000000000003, 11.82 30.51, 12.48 30.96 C 13.290000000000001 31.35, 13.110000000000001 31.425000000000004, 14.100000000000001 31.740000000000002 C 15.270000000000001 31.98, 15.060000000000002 32.04, 16.44 32.22 C 18.03 32.34, 18.255000000000003 32.415, 19.62 32.46 C 20.759999999999998 32.43000000000001, 20.7 32.46000000000001, 21.9 32.400000000000006 C 23.16 32.31, 23.43 32.355000000000004, 24.42 32.22 C 25.14 32.04, 25.155 32.025, 25.86 31.86 C 26.55 31.71, 26.64 31.68, 27.240000000000002 31.56 C 27.75 31.47, 27.674999999999997 31.575000000000003, 28.259999999999998 31.380000000000003 C 28.919999999999998 31.080000000000002, 28.964999999999996 31.065, 29.58 30.78 C 30.15 30.51, 30.21 30.6, 30.72 30.240000000000002 C 31.169999999999998 29.79, 31.275 29.729999999999997, 31.619999999999997 29.339999999999996 C 31.859999999999996 29.009999999999998, 31.874999999999993 29.205, 32.099999999999994 28.68 C 32.309999999999995 27.96, 32.41499999999999 28.080000000000002, 32.519999999999996 27.240000000000002 C 32.519999999999996 26.28, 32.519999999999996 26.16, 32.519999999999996 25.32 C 32.519999999999996 24.6, 32.519999999999996 25.08, 32.519999999999996 23.88 C 32.519999999999996 22.2, 32.625 22.23, 32.519999999999996 20.52 C 32.309999999999995 18.78, 32.41499999999999 18.915, 32.099999999999994 17.04 C 31.679999999999996 15.03, 31.679999999999996 14.864999999999998, 31.259999999999998 13.02 C 30.84 11.34, 30.795 11.04, 30.42 9.66 C 30.09 8.58, 30.104999999999997 8.46, 29.759999999999998 7.5 C 29.4 6.66, 29.265 6.315, 29.04 5.82 C 28.95 5.67, 28.905 5.595000000000001, 28.86 5.5200000000000005 C 28.86 5.5200000000000005, 28.86 5.5200000000000005, 28.86 5.5200000000000005 L 28.86 5.5200000000000005" fill="none" stroke="black" stroke-width="5"></path><path d="M 22.259999999999998 35.46 C 21.45 35.370000000000005, 21.48 35.28, 20.64 35.28 C 19.77 35.370000000000005, 19.59 35.28, 18.9 35.46 C 18.39 35.730000000000004, 18.494999999999997 35.49, 17.88 36 C 17.16 36.75, 16.935000000000002 36.72, 16.44 37.5 C 16.17 38.31, 16.035 38.205, 15.899999999999999 39.12 C 15.899999999999999 40.14, 15.899999999999999 40.32, 15.899999999999999 41.160000000000004 C 15.899999999999999 41.82000000000001, 15.719999999999999 41.760000000000005, 15.899999999999999 42.480000000000004 C 16.259999999999998 43.260000000000005, 16.23 43.44, 16.62 44.04 C 17.04 44.46, 16.89 44.49, 17.46 44.88 C 18.18 45.239999999999995, 18.255 45.37499999999999, 18.9 45.599999999999994 C 19.47 45.69, 19.349999999999998 45.735, 20.04 45.78 C 20.85 45.78, 20.775 45.915, 21.66 45.78 C 22.62 45.510000000000005, 22.665000000000003 45.705, 23.580000000000002 45.24 C 24.450000000000003 44.58, 24.795 44.49, 25.32 43.92 C 25.5 43.44, 25.53 43.515, 25.68 42.96 C 25.8 42.33, 25.875 42.435, 25.92 41.7 C 25.89 40.86, 25.935000000000002 40.739999999999995, 25.86 40.019999999999996 C 25.74 39.42, 25.754999999999995 39.33, 25.619999999999997 38.82 C 25.47 38.400000000000006, 25.59 38.47500000000001, 25.32 37.980000000000004 C 24.93 37.41, 24.945 37.379999999999995, 24.54 36.839999999999996 C 24.12 36.33, 24.120000000000005 36.225, 23.700000000000003 35.82 C 23.28 35.519999999999996, 23.235 35.475, 22.86 35.22 C 22.53 35.01, 22.515 34.919999999999995, 22.200000000000003 34.8 C 21.900000000000002 34.769999999999996, 21.75 34.755, 21.6 34.74 C 21.6 34.74, 21.6 34.74, 21.6 34.74 L 21.6 34.74" fill="none" stroke="black" stroke-width="5"></path></svg>