<svg xmlns="http://www.w3.org/2000/svg" viewBox="11.699999809265137 5.599999904632568 20.979999542236328 34.40000009536743" width="20.979999542236328" height="34.40000009536743"><path d="M 17.94 16.68 C 17.58 16.65, 17.58 16.635, 17.22 16.62 C 16.86 16.62, 16.995 16.575000000000003, 16.5 16.62 C 15.870000000000001 16.71, 15.9 16.47, 15.24 16.799999999999997 C 14.55 17.369999999999997, 14.415 17.310000000000002, 13.86 17.94 C 13.44 18.630000000000003, 13.305 18.735, 13.02 19.32 C 12.870000000000001 19.8, 12.795 19.68, 12.72 20.28 C 12.72 21, 12.675 20.88, 12.72 21.72 C 12.809999999999999 22.68, 12.554999999999998 22.89, 12.899999999999999 23.64 C 13.5 24.18, 13.425 24.24, 14.100000000000001 24.72 C 14.850000000000001 25.14, 14.835 25.199999999999996, 15.600000000000001 25.56 C 16.380000000000003 25.86, 16.305 25.995000000000005, 17.16 26.160000000000004 C 18.09 26.19, 17.88 26.235, 19.02 26.22 C 20.369999999999997 26.159999999999997, 20.58 26.474999999999998, 21.72 26.099999999999998 C 22.65 25.409999999999997, 23.01 25.409999999999997, 23.580000000000002 24.72 C 23.79 24.03, 23.895 23.91, 24 23.34 C 24 22.89, 24 22.71, 24 22.44 C 24 22.35, 24 22.305, 24 22.259999999999998 C 24 22.259999999999998, 23.97 22.275, 24 22.259999999999998 C 24.06 22.23, 24.029999999999998 21.990000000000002, 24.119999999999997 22.200000000000003 C 24.24 22.650000000000002, 24.195 22.545, 24.36 23.1 C 24.57 23.76, 24.51 23.880000000000003, 24.78 24.42 C 25.11 24.84, 24.990000000000002 24.945, 25.44 25.259999999999998 C 26.009999999999998 25.47, 26.055 25.545, 26.58 25.68 C 27.06 25.74, 26.894999999999996 25.949999999999996, 27.54 25.799999999999997 C 28.35 25.439999999999998, 28.485000000000003 25.514999999999997, 29.160000000000004 25.08 C 29.700000000000003 24.57, 29.805000000000003 24.63, 30.240000000000002 24.06 C 30.57 23.43, 30.630000000000003 23.49, 30.900000000000002 22.799999999999997 C 31.11 22.049999999999997, 31.14 22.275, 31.32 21.299999999999997 C 31.47 20.099999999999998, 31.544999999999998 20.25, 31.619999999999997 18.9 C 31.619999999999997 17.4, 31.754999999999995 17.055, 31.619999999999997 15.899999999999999 C 31.349999999999998 15.09, 31.424999999999997 15.149999999999999, 31.08 14.28 C 30.66 13.349999999999998, 30.810000000000002 13.454999999999998, 30.240000000000002 12.419999999999998 C 29.52 11.28, 29.595 11.205, 28.799999999999997 10.14 C 27.93 9.15, 27.794999999999998 8.955, 27.06 8.16 C 26.46 7.56, 26.235 7.349999999999999, 25.86 6.959999999999999 C 25.71 6.779999999999999, 25.634999999999998 6.69, 25.56 6.6000000000000005 C 25.56 6.6000000000000005, 25.56 6.6000000000000005, 25.56 6.6000000000000005 L 25.56 6.6000000000000005" fill="none" stroke="black" stroke-width="5"></path><path d="M 17.1 25.86 C 16.68 26.04, 16.634999999999998 25.994999999999997, 16.259999999999998 26.22 C 15.93 26.49, 15.96 26.415, 15.600000000000001 26.759999999999998 C 15.21 27.18, 15.075 27.119999999999997, 14.82 27.599999999999998 C 14.700000000000001 28.14, 14.685000000000002 28.064999999999998, 14.580000000000002 28.68 C 14.49 29.369999999999997, 14.489999999999998 29.31, 14.399999999999999 30.06 C 14.309999999999999 30.869999999999997, 14.265 30.75, 14.22 31.68 C 14.22 32.730000000000004, 14.205000000000002 32.865, 14.22 33.78 C 14.25 34.56, 14.115 34.394999999999996, 14.28 35.339999999999996 C 14.579999999999998 36.45, 14.579999999999998 36.72, 14.879999999999999 37.56 C 15.18 38.13, 15.3 38.34, 15.48 38.7 C 15.540000000000001 38.85, 15.57 38.925, 15.600000000000001 39 L 15.600000000000001 39" fill="none" stroke="black" stroke-width="5"></path></svg>