<svg xmlns="http://www.w3.org/2000/svg" viewBox="9.859999656677246 5.193333148956299 18.166667938232422 41.46666669845581" width="18.166667938232422" height="41.46666669845581"><path d="M 17.34 6.24 C 16.95 6.24, 17.07 6.135, 16.56 6.24 C 15.93 6.45, 15.944999999999999 6.345000000000001, 15.299999999999999 6.66 C 14.64 7.08, 14.49 7.14, 13.98 7.5 C 13.620000000000001 7.800000000000001, 13.815 7.485000000000001, 13.26 8.100000000000001 C 12.51 9.030000000000001, 12.299999999999999 9.195, 11.76 9.959999999999999 C 11.43 10.559999999999999, 11.325000000000001 10.5, 11.100000000000001 11.16 C 10.98 11.88, 10.875 12.015, 10.86 12.600000000000001 C 10.95 13.05, 10.785 13.08, 11.040000000000001 13.5 C 11.46 13.89, 11.43 13.979999999999999, 11.879999999999999 14.28 C 12.36 14.49, 12.36 14.535, 12.84 14.700000000000001 C 13.32 14.82, 13.29 14.88, 13.799999999999999 14.940000000000001 C 14.34 14.940000000000001, 14.339999999999998 14.940000000000001, 14.879999999999999 14.940000000000001 C 15.42 14.940000000000001, 15.495000000000001 14.940000000000001, 15.96 14.940000000000001 C 16.35 14.940000000000001, 16.44 14.940000000000001, 16.740000000000002 14.940000000000001 C 16.950000000000003 14.940000000000001, 17.01 14.940000000000001, 17.16 14.940000000000001 C 17.25 14.940000000000001, 17.295 14.940000000000001, 17.34 14.940000000000001 C 17.34 14.940000000000001, 17.325 14.910000000000002, 17.34 14.940000000000001 C 17.369999999999997 15, 17.865 14.744999999999997, 17.4 15.059999999999999 C 16.439999999999998 15.63, 16.395 15.600000000000001, 15.48 16.200000000000003 C 14.61 16.830000000000002, 14.31 16.98, 13.74 17.46 C 13.47 17.79, 13.455000000000002 17.625, 13.200000000000001 18.12 C 12.96 18.78, 12.885000000000002 18.885, 12.72 19.44 C 12.629999999999999 19.89, 12.6 19.8, 12.54 20.34 C 12.51 20.97, 12.495000000000001 21.060000000000002, 12.48 21.6 C 12.48 22.05, 12.345 22.02, 12.48 22.5 C 12.75 23.009999999999998, 12.719999999999999 23.1, 13.02 23.52 C 13.35 23.85, 13.305 23.835, 13.68 24.18 C 14.1 24.54, 13.995 24.645000000000003, 14.52 24.900000000000002 C 15.149999999999999 25.050000000000004, 15.149999999999999 25.125000000000004, 15.78 25.200000000000003 C 16.41 25.200000000000003, 16.515 25.305000000000003, 17.04 25.200000000000003 C 17.46 24.990000000000002, 17.445 25.230000000000004, 17.88 24.78 C 18.33 24.09, 18.36 24.24, 18.78 23.4 C 19.17 22.409999999999997, 19.32 22.275, 19.56 21.419999999999998 C 19.65 20.7, 19.695 20.505, 19.740000000000002 19.98 C 19.740000000000002 19.65, 19.740000000000002 19.485, 19.740000000000002 19.32 C 19.740000000000002 19.32, 19.740000000000002 19.305, 19.740000000000002 19.32 C 19.740000000000002 19.35, 19.740000000000002 19.14, 19.740000000000002 19.38 C 19.740000000000002 19.83, 19.740000000000002 19.560000000000002, 19.740000000000002 20.28 C 19.740000000000002 21.27, 19.605000000000004 21.33, 19.740000000000002 22.259999999999998 C 20.01 23.13, 19.860000000000003 23.369999999999997, 20.28 24 C 20.85 24.39, 20.805 24.555, 21.419999999999998 24.78 C 22.08 24.840000000000003, 21.96 25.005000000000003, 22.740000000000002 24.900000000000002 C 23.64 24.630000000000003, 23.805 24.735, 24.54 24.36 C 25.11 23.88, 25.2 24.089999999999996, 25.68 23.4 C 26.07 22.5, 26.175 22.41, 26.46 21.6 C 26.64 20.880000000000003, 26.685000000000002 21.015, 26.82 20.16 C 26.91 19.17, 26.955 19.35, 27 18.18 C 27 16.83, 27.060000000000002 16.92, 27 15.48 C 26.88 13.95, 26.909999999999997 13.769999999999998, 26.759999999999998 12.419999999999998 C 26.58 11.25, 26.625 11.205, 26.400000000000002 10.08 C 26.130000000000003 9, 26.085 8.745000000000001, 25.86 7.92 C 25.68 7.35, 25.605 7.109999999999999, 25.5 6.779999999999999 L 25.44 6.6000000000000005" fill="none" stroke="black" stroke-width="5"></path><path d="M 16.02 24.54 C 16.11 25.38, 16.155 25.244999999999997, 16.200000000000003 26.22 C 16.200000000000003 27.33, 16.200000000000003 27.105, 16.200000000000003 28.44 C 16.200000000000003 30, 16.260000000000005 30.224999999999998, 16.200000000000003 31.56 C 16.080000000000002 32.67, 16.065 32.46, 15.96 33.78 C 15.870000000000001 35.31, 15.915 35.25, 15.78 36.839999999999996 C 15.599999999999998 38.489999999999995, 15.509999999999998 38.64, 15.419999999999998 40.14 C 15.419999999999998 41.489999999999995, 15.419999999999998 41.849999999999994, 15.419999999999998 42.839999999999996 C 15.419999999999998 43.47, 15.419999999999998 43.709999999999994, 15.419999999999998 44.099999999999994 C 15.419999999999998 44.25, 15.419999999999998 44.205000000000005, 15.419999999999998 44.400000000000006 C 15.419999999999998 44.64, 15.419999999999998 44.730000000000004, 15.419999999999998 44.88 C 15.419999999999998 44.94, 15.419999999999998 44.85, 15.419999999999998 45 C 15.419999999999998 45.24, 15.449999999999998 45.315000000000005, 15.419999999999998 45.480000000000004 L 15.299999999999999 45.660000000000004" fill="none" stroke="black" stroke-width="5"></path><path d="M 22.919999999999998 24.96 C 22.919999999999998 25.200000000000003, 22.935 24.615000000000002, 22.919999999999998 25.44 C 22.89 26.85, 22.904999999999998 26.43, 22.86 28.259999999999998 C 22.8 30.509999999999998, 22.770000000000003 31.049999999999997, 22.740000000000002 32.76 C 22.740000000000002 33.92999999999999, 22.740000000000002 34.154999999999994, 22.740000000000002 35.099999999999994 C 22.740000000000002 35.81999999999999, 22.785000000000004 35.775, 22.740000000000002 36.54 C 22.65 37.35, 22.65 37.32, 22.56 38.160000000000004 C 22.47 39.03, 22.47 38.970000000000006, 22.38 39.900000000000006 C 22.29 40.89, 22.320000000000004 40.95, 22.200000000000003 41.88 C 22.05 42.75, 21.975 42.989999999999995, 21.9 43.62 C 21.9 44.010000000000005, 21.9 44.13, 21.9 44.400000000000006 C 21.9 44.550000000000004, 21.9 44.625, 21.9 44.7 C 21.9 44.7, 21.93 44.67, 21.9 44.7 C 21.84 44.760000000000005, 21.855 44.760000000000005, 21.78 44.82 L 21.6 44.94" fill="none" stroke="black" stroke-width="5"></path></svg>