<svg xmlns="http://www.w3.org/2000/svg" viewBox="12.025972366333008 4.519999980926514 19.514026641845703 40.52000093460083" width="19.514026641845703" height="40.52000093460083"><path d="M 19.080000000000002 15.059999999999999 C 18.630000000000003 14.94, 18.765 14.879999999999999, 18.18 14.82 C 17.46 14.82, 17.505000000000003 14.655000000000001, 16.740000000000002 14.82 C 15.930000000000001 15.15, 15.735000000000001 15.06, 15.120000000000001 15.48 C 14.7 15.99, 14.684999999999999 15.795000000000002, 14.28 16.5 C 13.89 17.4, 13.799999999999999 17.309999999999995, 13.5 18.299999999999997 C 13.290000000000001 19.38, 13.155000000000001 19.41, 13.080000000000002 20.46 C 13.14 21.48, 12.855 21.689999999999998, 13.200000000000001 22.5 C 13.830000000000002 23.1, 13.695000000000002 23.220000000000002, 14.46 23.700000000000003 C 15.36 24.060000000000002, 14.864999999999998 24.225, 16.259999999999998 24.42 C 18.15 24.450000000000003, 18.435 24.6, 20.04 24.48 C 21.36 24.21, 21.66 24.495, 22.68 23.94 C 23.4 23.1, 23.654999999999998 23.235, 24.119999999999997 22.259999999999998 C 24.33 21.15, 24.435 20.939999999999998, 24.54 20.04 C 24.54 19.35, 24.54 19.08, 24.54 18.66 C 24.54 18.509999999999998, 24.54 18.435, 24.54 18.36 C 24.54 18.36, 24.54 18.36, 24.54 18.36 C 24.54 18.36, 24.54 18.105, 24.54 18.36 C 24.54 18.869999999999997, 24.509999999999998 18.525, 24.54 19.38 C 24.6 20.58, 24.405000000000005 20.91, 24.660000000000004 21.78 C 25.11 22.32, 24.96 22.439999999999998, 25.56 22.86 C 26.31 23.16, 26.474999999999998 23.310000000000002, 27.06 23.46 C 27.48 23.46, 27.315 23.625, 27.900000000000002 23.46 C 28.650000000000002 23.13, 28.950000000000003 23.235, 29.400000000000002 22.799999999999997 C 29.550000000000004 22.259999999999998, 29.520000000000003 22.544999999999998, 29.700000000000003 21.72 C 29.91 20.61, 29.924999999999997 20.61, 30.119999999999997 19.5 C 30.299999999999997 18.39, 30.39 18.3, 30.48 17.28 C 30.48 16.35, 30.615000000000002 16.409999999999997, 30.48 15.419999999999998 C 30.21 14.37, 30.405 14.535, 29.94 13.32 C 29.28 11.940000000000001, 29.294999999999998 11.64, 28.619999999999997 10.56 C 27.93 9.780000000000001, 27.795 9.6, 27.240000000000002 9 C 26.82 8.58, 26.940000000000005 8.655000000000001, 26.400000000000002 8.16 C 25.740000000000002 7.59, 25.634999999999998 7.515, 25.08 7.02 C 24.63 6.6, 24.615 6.555, 24.18 6.18 C 23.759999999999998 5.85, 23.55 5.6850000000000005, 23.34 5.5200000000000005 C 23.34 5.5200000000000005, 23.34 5.5200000000000005, 23.34 5.5200000000000005 L 23.34 5.5200000000000005" fill="none" stroke="black" stroke-width="5"></path><path d="M 21.78 31.32 C 21.33 31.62, 21.27 31.020000000000003, 20.88 31.92 C 20.549999999999997 33.42, 20.34 33.885000000000005, 20.22 34.92 C 20.31 35.49, 20.07 35.760000000000005, 20.4 36.06 C 20.97 36.09, 21 37.035, 21.54 36.12 C 22.049999999999997 34.260000000000005, 22.485 33.690000000000005, 22.56 32.400000000000006 C 22.2 31.680000000000003, 22.29 31.365000000000002, 21.84 30.96 C 21.299999999999997 30.87, 21.27 30.495000000000005, 20.759999999999998 30.78 C 20.279999999999998 31.439999999999998, 19.979999999999997 31.364999999999995, 19.799999999999997 32.099999999999994 C 19.919999999999998 32.91, 19.74 33.209999999999994, 20.04 33.72 C 20.52 33.93, 20.52 34.305, 21 34.14 C 21.48 33.6, 21.705000000000002 33.78, 21.96 33.06 C 21.990000000000002 32.16, 22.38 31.799999999999997, 22.02 31.259999999999998 C 21.27 31.08, 21.255 30.660000000000004, 20.52 30.900000000000002 C 19.8 31.560000000000002, 19.44 31.77, 19.080000000000002 32.22 L 19.080000000000002 32.7" fill="none" stroke="black" stroke-width="5"></path><path d="M 16.200000000000003 43.68 C 17.310000000000002 43.44, 16.56 43.32, 18.419999999999998 43.2 C 21.03 43.2, 21.465 43.2, 23.64 43.2 C 25.38 43.2, 26.009999999999998 43.095000000000006, 27.119999999999997 43.2 C 27.599999999999998 43.41, 27.584999999999997 43.41, 28.08 43.62 L 29.099999999999998 44.04" fill="none" stroke="black" stroke-width="5"></path></svg>