<svg xmlns="http://www.w3.org/2000/svg" viewBox="4.340000152587891 2.380000114440918 24.0699520111084 41.15999984741211" width="24.0699520111084" height="41.15999984741211"><path d="M 17.04 3.4799999999999995 C 15.899999999999999 3.4799999999999995, 16.35 3.2549999999999994, 14.76 3.4799999999999995 C 12.719999999999999 3.9299999999999997, 12.225 3.675, 10.68 4.38 C 9.629999999999999 5.34, 9.405 5.355, 8.58 6.300000000000001 C 7.98 7.23, 7.77 6.975, 7.38 8.16 C 7.199999999999999 9.600000000000001, 6.839999999999999 9.735000000000001, 7.02 11.040000000000001 C 7.5600000000000005 12.21, 7.455000000000001 12.45, 8.100000000000001 13.379999999999999 C 8.850000000000001 14.07, 8.760000000000002 14.235, 9.600000000000001 14.76 C 10.530000000000001 15.120000000000001, 10.29 15.285, 11.459999999999999 15.48 C 12.87 15.51, 13.034999999999998 15.614999999999998, 14.28 15.54 C 15.36 15.36, 15.780000000000001 15.3, 16.44 15.18 C 16.68 15.12, 16.799999999999997 15.09, 16.919999999999998 15.059999999999999 C 16.919999999999998 15.059999999999999, 16.919999999999998 15.059999999999999, 16.919999999999998 15.059999999999999 C 16.919999999999998 15.059999999999999, 17.174999999999997 14.804999999999998, 16.919999999999998 15.059999999999999 C 16.409999999999997 15.57, 16.68 15.39, 15.899999999999999 16.080000000000002 C 14.849999999999998 16.950000000000003, 14.79 17.025000000000002, 13.799999999999999 17.82 C 12.87 18.54, 13.079999999999998 18.224999999999998, 11.94 19.259999999999998 C 10.59 20.61, 10.245000000000001 20.775, 9.24 21.96 C 8.58 22.98, 8.594999999999999 22.740000000000002, 7.92 24 C 7.23 25.5, 7.020000000000001 25.62, 6.540000000000001 27 C 6.2700000000000005 28.259999999999998, 6.18 28.259999999999998, 6 29.52 C 5.91 30.78, 5.865 30.974999999999998, 5.82 32.04 C 5.82 32.91, 5.82 32.88, 5.82 33.78 C 5.82 34.71, 5.715 34.71, 5.82 35.64 C 6.03 36.57, 5.925000000000001 36.66, 6.24 37.5 C 6.66 38.25, 6.675 38.370000000000005, 7.08 39 C 7.470000000000001 39.51, 7.32 39.375, 7.86 40.019999999999996 C 8.55 40.8, 8.565 41.01, 9.24 41.58 C 9.9 41.94, 9.81 42.074999999999996, 10.56 42.3 C 11.4 42.39, 11.190000000000001 42.435, 12.24 42.480000000000004 C 13.5 42.480000000000004, 13.92 42.61500000000001, 14.76 42.480000000000004 C 15.18 42.21, 15.105 42.33, 15.600000000000001 41.94 C 16.17 41.43, 16.290000000000003 41.535, 16.740000000000002 40.92 C 17.07 40.2, 17.13 40.230000000000004, 17.4 39.480000000000004 C 17.61 38.7, 17.715 38.505, 17.82 37.92 C 17.82 37.53, 17.865000000000002 37.5, 17.82 37.14 C 17.73 36.81, 17.985 36.915000000000006, 17.64 36.480000000000004 C 17.04 35.940000000000005, 17.16 35.80500000000001, 16.44 35.400000000000006 C 15.600000000000001 35.13, 15.57 35.04, 14.76 34.86 C 13.98 34.769999999999996, 13.965000000000002 34.769999999999996, 13.200000000000001 34.68 C 12.45 34.59, 12.39 34.515, 11.7 34.5 C 11.07 34.56, 11.055 34.44, 10.44 34.62 C 9.84 34.92, 9.825 34.815, 9.24 35.22 C 8.670000000000002 35.730000000000004, 8.565000000000001 35.775000000000006, 8.100000000000001 36.24 C 7.74 36.66, 7.575 36.795, 7.38 37.08 C 7.35 37.230000000000004, 7.335 37.260000000000005, 7.32 37.38 C 7.32 37.47, 7.32 37.515, 7.32 37.56 C 7.32 37.56, 7.32 37.56, 7.32 37.56 C 7.32 37.56, 7.32 37.56, 7.32 37.56 L 7.32 37.56" fill="none" stroke="black" stroke-width="5"></path><path d="M 5.34 29.28 C 5.88 29.490000000000002, 5.1899999999999995 29.520000000000003, 6.42 29.700000000000003 C 8.34 29.85, 8.52 30.225, 10.26 30 C 11.82 29.4, 11.969999999999999 29.924999999999997, 13.379999999999999 28.799999999999997 C 14.639999999999999 27.15, 14.985 26.91, 15.899999999999999 25.5 C 16.47 24.33, 16.755 23.745, 17.04 23.16 C 17.04 23.16, 17.04 23.16, 17.04 23.16 C 17.04 23.16, 17.04 23.1, 17.04 23.16 C 17.04 23.28, 17.205 22.98, 17.04 23.4 C 16.71 24.119999999999997, 16.589999999999996 24.029999999999994, 16.38 24.839999999999996 C 16.29 25.74, 16.230000000000004 25.905, 16.200000000000003 26.64 C 16.23 27.21, 15.959999999999999 27.135, 16.259999999999998 27.78 C 16.83 28.5, 16.424999999999997 28.725, 17.4 29.22 C 18.78 29.49, 18.555 29.625, 20.16 29.759999999999998 C 21.990000000000002 29.759999999999998, 22.485 29.924999999999997, 23.82 29.759999999999998 C 24.66 29.43, 24.75 29.654999999999998, 25.5 29.099999999999998 C 26.16 28.32, 26.4 28.619999999999997, 26.82 27.54 C 27 26.16, 27.045 26.46, 27.18 24.78 C 27.27 22.8, 27.33 22.965, 27.36 20.82 C 27.33 18.51, 27.525 18.345000000000002, 27.299999999999997 16.200000000000003 C 26.88 14.220000000000002, 26.925 14.190000000000001, 26.46 12.24 C 25.950000000000003 10.32, 25.875 9.779999999999998, 25.44 8.399999999999999 C 25.08 7.56, 24.945 7.26, 24.72 6.720000000000001 C 24.63 6.48, 24.75 6.69, 24.54 6.24 C 24.21 5.58, 24.119999999999997 5.55, 23.88 4.92 C 23.73 4.32, 23.655 4.02, 23.580000000000002 3.7199999999999998 C 23.580000000000002 3.7199999999999998, 23.580000000000002 3.7199999999999998, 23.580000000000002 3.7199999999999998 L 23.580000000000002 3.7199999999999998" fill="none" stroke="black" stroke-width="5"></path></svg>