<svg xmlns="http://www.w3.org/2000/svg" viewBox="8.5600004196167 3.186666488647461 22.979999542236328 39.33333492279053" width="22.979999542236328" height="39.33333492279053"><path d="M 16.32 4.38 C 15.93 4.289999999999999, 15.959999999999999 4.244999999999999, 15.54 4.199999999999999 C 15.09 4.199999999999999, 15.18 4.169999999999999, 14.64 4.199999999999999 C 14.01 4.26, 14.04 4.17, 13.379999999999999 4.32 C 12.69 4.5600000000000005, 12.645 4.485000000000001, 12 4.800000000000001 C 11.4 5.19, 11.265 5.220000000000001, 10.8 5.58 C 10.47 5.91, 10.440000000000001 5.76, 10.14 6.24 C 9.870000000000001 6.87, 9.735000000000001 6.765000000000001, 9.600000000000001 7.5 C 9.600000000000001 8.34, 9.600000000000001 8.385, 9.600000000000001 9.18 C 9.600000000000001 9.93, 9.510000000000002 9.885, 9.600000000000001 10.68 C 9.780000000000001 11.52, 9.704999999999998 11.729999999999999, 9.959999999999999 12.36 C 10.29 12.780000000000001, 10.200000000000001 12.765, 10.620000000000001 13.200000000000001 C 11.13 13.650000000000002, 11.07 13.740000000000002, 11.64 14.100000000000001 C 12.27 14.370000000000001, 12.314999999999998 14.505, 12.899999999999999 14.64 C 13.44 14.64, 13.469999999999999 14.655000000000001, 13.98 14.64 C 14.46 14.610000000000001, 14.220000000000002 14.715000000000002, 14.940000000000001 14.580000000000002 C 15.9 14.340000000000002, 16.02 14.220000000000002, 16.86 14.100000000000001 C 17.58 14.100000000000001, 17.624999999999996 14.055000000000001, 18.299999999999997 14.100000000000001 C 18.93 14.190000000000001, 18.99 14.07, 19.56 14.28 C 20.07 14.61, 20.115000000000002 14.535000000000002, 20.580000000000002 14.940000000000001 C 21 15.42, 21.044999999999998 15.329999999999998, 21.419999999999998 15.899999999999999 C 21.75 16.56, 21.855 16.65, 22.080000000000002 17.22 C 22.200000000000003 17.7, 22.26 17.939999999999998, 22.32 18.18 C 22.32 18.18, 22.32 18.18, 22.32 18.18 C 22.32 18.18, 22.32 18.314999999999998, 22.32 18.18 C 22.32 17.91, 22.23 18.075, 22.32 17.64 C 22.5 17.04, 22.425 17.040000000000003, 22.68 16.44 C 23.009999999999998 15.84, 23.009999999999998 15.705, 23.34 15.24 C 23.67 14.91, 23.49 14.865000000000002, 24 14.580000000000002 C 24.69 14.340000000000002, 24.435000000000002 14.295000000000002, 25.380000000000003 14.100000000000001 C 26.580000000000002 13.95, 26.685000000000002 13.875, 27.78 13.799999999999999 C 28.77 13.799999999999999, 29.115 13.799999999999999, 29.759999999999998 13.799999999999999 C 30.06 13.799999999999999, 30.165 13.799999999999999, 30.36 13.799999999999999 C 30.45 13.799999999999999, 30.494999999999997 13.799999999999999, 30.54 13.799999999999999 L 30.54 13.799999999999999" fill="none" stroke="black" stroke-width="5"></path><path d="M 16.62 13.799999999999999 C 16.2 13.89, 16.305 13.77, 15.78 13.98 C 15.149999999999999 14.31, 15.045 14.31, 14.52 14.64 C 14.1 14.969999999999999, 14.175 14.834999999999999, 13.68 15.299999999999999 C 13.11 15.899999999999999, 13.035 15.78, 12.54 16.5 C 12.12 17.34, 11.985 17.22, 11.7 18.18 C 11.549999999999999 19.259999999999998, 11.519999999999998 19.485, 11.399999999999999 20.34 C 11.309999999999999 20.97, 11.31 20.685000000000002, 11.22 21.6 C 11.13 22.8, 11.085 22.8, 11.040000000000001 24 C 11.040000000000001 25.200000000000003, 11.040000000000001 25.365000000000002, 11.040000000000001 26.400000000000002 C 11.040000000000001 27.270000000000003, 10.995000000000001 27.18, 11.040000000000001 28.14 C 11.13 29.19, 11.085 28.980000000000004, 11.22 30.240000000000002 C 11.4 31.71, 11.4 32.01, 11.58 33.18 C 11.76 34.05, 11.684999999999999 33.915, 11.94 34.92 C 12.27 36.06, 12.240000000000002 36.300000000000004, 12.600000000000001 37.2 C 12.99 37.86, 13.08 37.98, 13.379999999999999 38.519999999999996 C 13.59 38.94, 13.544999999999998 38.894999999999996, 13.799999999999999 39.36 C 14.099999999999998 39.870000000000005, 14.174999999999997 40.005, 14.399999999999999 40.38 C 14.55 40.620000000000005, 14.580000000000002 40.65, 14.700000000000001 40.86 C 14.79 41.04, 14.774999999999999 41.055, 14.879999999999999 41.22 C 15 41.37, 15.06 41.44499999999999, 15.120000000000001 41.519999999999996 C 15.120000000000001 41.519999999999996, 15.120000000000001 41.519999999999996, 15.120000000000001 41.519999999999996 L 15.120000000000001 41.519999999999996" fill="none" stroke="black" stroke-width="5"></path><path d="M 22.799999999999997 23.82 C 22.11 23.85, 22.184999999999995 23.52, 21.419999999999998 23.88 C 20.58 24.57, 20.37 24.525, 19.740000000000002 25.259999999999998 C 19.32 26.04, 19.2 26.009999999999998, 18.9 26.82 C 18.72 27.66, 18.645 27.630000000000003, 18.54 28.5 C 18.509999999999998 29.4, 18.285 29.474999999999998, 18.48 30.299999999999997 C 18.9 31.049999999999997, 18.705 31.214999999999996, 19.32 31.799999999999997 C 20.130000000000003 32.22, 20.175 32.415, 20.94 32.64 C 21.66 32.67, 21.555 32.685, 22.38 32.7 C 23.310000000000002 32.7, 23.19 33.09, 24.240000000000002 32.7 C 25.41 31.92, 25.845 31.905, 26.58 31.14 C 26.88 30.39, 27.015 30.33, 27.18 29.64 C 27.21 29.01, 27.255000000000003 29.025000000000002, 27.240000000000002 28.380000000000003 C 27.18 27.72, 27.419999999999998 27.765, 27.119999999999997 27.06 C 26.58 26.31, 26.7 26.31, 26.04 25.56 C 25.259999999999998 24.81, 25.11 24.555, 24.48 24.06 C 24 23.82, 23.97 23.76, 23.52 23.580000000000002 C 23.1 23.46, 23.189999999999998 23.4, 22.68 23.34 C 22.08 23.34, 21.825000000000003 23.34, 21.48 23.34 C 21.39 23.34, 21.389999999999997 23.325, 21.299999999999997 23.34 L 21.12 23.4" fill="none" stroke="black" stroke-width="5"></path></svg>