<svg xmlns="http://www.w3.org/2000/svg" viewBox="11.819999694824219 3.5199999809265137 23.920001983642578 43.27999925613403" width="23.920001983642578" height="43.27999925613403"><path d="M 18.54 4.5600000000000005 C 18.03 4.5600000000000005, 18 4.5600000000000005, 17.52 4.5600000000000005 C 17.07 4.5600000000000005, 17.130000000000003 4.470000000000001, 16.62 4.5600000000000005 C 16.05 4.74, 16.095 4.53, 15.48 4.92 C 14.82 5.52, 14.655000000000001 5.565, 14.16 6.12 C 13.83 6.63, 13.8 6.645, 13.5 7.14 C 13.23 7.620000000000001, 13.125 7.5150000000000015, 12.96 8.100000000000001 C 12.9 8.790000000000001, 12.870000000000001 8.775, 12.84 9.48 C 12.84 10.2, 12.795 10.32, 12.84 10.92 C 12.93 11.399999999999999, 12.855 11.52, 13.02 11.879999999999999 C 13.26 12.12, 13.2 12.03, 13.5 12.36 C 13.86 12.780000000000001, 13.845 12.840000000000002, 14.22 13.200000000000001 C 14.61 13.5, 14.52 13.5, 15 13.799999999999999 C 15.57 14.099999999999998, 15.57 14.189999999999998, 16.14 14.399999999999999 C 16.71 14.52, 16.605 14.535, 17.28 14.64 C 18.060000000000002 14.73, 17.64 14.73, 18.84 14.82 C 20.46 14.91, 20.880000000000003 14.985, 22.080000000000002 15 C 22.86 14.94, 22.725 15.03, 23.64 14.879999999999999 C 24.69 14.639999999999999, 24.78 14.639999999999999, 25.740000000000002 14.399999999999999 C 26.61 14.159999999999998, 26.61 14.234999999999998, 27.48 13.919999999999998 C 28.35 13.53, 28.395 13.469999999999999, 29.22 13.14 C 30 12.870000000000001, 29.97 12.900000000000002, 30.78 12.600000000000001 C 31.62 12.27, 31.845 12.135, 32.46 11.94 C 32.85 11.879999999999999, 32.97 11.88, 33.24 11.82 C 33.39 11.76, 33.465 11.73, 33.54 11.7 C 33.54 11.7, 33.54 11.7, 33.54 11.7 L 33.54 11.7" fill="none" stroke="black" stroke-width="5"></path><path d="M 19.56 14.700000000000001 C 18.96 14.700000000000001, 18.945 14.535000000000002, 18.36 14.700000000000001 C 17.79 15.030000000000001, 17.88 14.82, 17.22 15.36 C 16.47 16.11, 16.305 16.11, 15.72 16.86 C 15.3 17.61, 15.165 17.744999999999997, 14.879999999999999 18.36 C 14.73 18.84, 14.700000000000003 18.675, 14.580000000000002 19.32 C 14.49 20.130000000000003, 14.445 20.1, 14.399999999999999 20.94 C 14.399999999999999 21.810000000000002, 14.249999999999998 21.795, 14.399999999999999 22.68 C 14.7 23.58, 14.655 23.79, 15 24.48 C 15.39 24.96, 15.419999999999998 25.05, 15.78 25.44 C 16.11 25.740000000000002, 16.155 25.799999999999997, 16.44 26.04 L 16.919999999999998 26.400000000000002" fill="none" stroke="black" stroke-width="5"></path><path d="M 22.44 15.84 C 22.44 16.98, 22.44 16.89, 22.44 18.12 C 22.44 19.439999999999998, 22.380000000000003 19.514999999999997, 22.44 20.759999999999998 C 22.560000000000002 21.93, 22.62 21.840000000000003, 22.68 23.1 C 22.68 24.45, 22.634999999999998 24.509999999999998, 22.68 25.799999999999997 C 22.77 27.029999999999998, 22.814999999999998 26.669999999999995, 22.86 28.259999999999998 C 22.86 30.21, 22.86 30.495000000000005, 22.86 32.160000000000004 C 22.86 33.540000000000006, 22.86 33.795, 22.86 34.92 C 22.86 35.790000000000006, 22.814999999999998 35.67, 22.86 36.660000000000004 C 22.95 37.77, 22.95 37.935, 23.04 38.88 C 23.13 39.66, 23.174999999999997 39.72, 23.22 40.44 C 23.22 41.099999999999994, 23.174999999999997 41.16, 23.22 41.76 C 23.31 42.3, 23.325 42.345, 23.4 42.839999999999996 C 23.46 43.29, 23.49 43.35, 23.52 43.74 C 23.52 44.07000000000001, 23.474999999999998 44.11500000000001, 23.52 44.400000000000006 C 23.61 44.64, 23.595000000000002 44.64, 23.700000000000003 44.88 C 23.82 45.120000000000005, 23.865000000000002 45.195, 23.94 45.36 C 23.97 45.45, 23.985 45.495, 24 45.54 C 24 45.54, 23.955 45.51, 24 45.54 C 24.09 45.6, 24.09 45.6, 24.18 45.660000000000004 C 24.27 45.72, 24.195 45.75, 24.36 45.78 C 24.599999999999998 45.78, 24.689999999999998 45.78, 24.839999999999996 45.78 C 24.9 45.78, 24.884999999999998 45.825, 24.96 45.78 C 25.05 45.69, 25.065 45.76499999999999, 25.14 45.599999999999994 C 25.2 45.36, 25.185 45.51, 25.259999999999998 45.12 C 25.35 44.58, 25.29 44.655, 25.44 44.04 C 25.65 43.35, 25.695 43.17, 25.86 42.660000000000004 C 25.979999999999997 42.33, 25.889999999999997 42.585, 26.099999999999998 42 C 26.4 41.16, 26.325000000000003 41.07, 26.700000000000003 40.32 C 27.15 39.66, 27.15 39.63, 27.599999999999998 39 C 28.049999999999997 38.4, 28.065 38.309999999999995, 28.5 37.8 C 28.919999999999998 37.379999999999995, 28.769999999999996 37.41, 29.339999999999996 36.96 C 30.06 36.480000000000004, 30.090000000000003 36.405, 30.78 36 C 31.439999999999998 35.67, 31.454999999999995 35.565, 32.099999999999994 35.339999999999996 C 32.73 35.22, 32.805 35.18999999999999, 33.36 35.099999999999994 C 33.84 35.04, 34.005 35.010000000000005, 34.32 34.980000000000004 C 34.47 34.980000000000004, 34.515 34.980000000000004, 34.62 34.980000000000004 C 34.68 34.980000000000004, 34.71 34.980000000000004, 34.74 34.980000000000004 L 34.74 34.980000000000004" fill="none" stroke="black" stroke-width="5"></path></svg>