<svg xmlns="http://www.w3.org/2000/svg" viewBox="7.159999847412109 3.613333225250244 27.560001373291016 38.426666259765625" width="27.560001373291016" height="38.426666259765625"><path d="M 18.54 5.88 C 18.36 5.58, 18.66 5.58, 18.18 5.28 C 17.4 4.98, 17.34 4.83, 16.62 4.68 C 15.96 4.68, 16.08 4.529999999999999, 15.299999999999999 4.68 C 14.399999999999999 4.98, 14.415 4.8, 13.5 5.28 C 12.57 5.94, 12.63 5.445000000000001, 11.64 6.6000000000000005 C 10.59 8.25, 10.275000000000002 8.61, 9.540000000000001 9.899999999999999 C 9.120000000000001 10.829999999999998, 9.045 10.695, 8.7 11.76 C 8.43 12.96, 8.22 13.08, 8.16 14.16 C 8.309999999999999 15.120000000000001, 8.084999999999999 15.375000000000002, 8.459999999999999 16.080000000000002 C 9.059999999999999 16.53, 9.165 16.650000000000002, 9.66 16.98 C 10.05 17.189999999999998, 9.99 17.189999999999998, 10.44 17.4 C 10.95 17.61, 10.934999999999999 17.67, 11.459999999999999 17.82 C 12 17.91, 11.909999999999998 17.985, 12.54 18 C 13.26 17.939999999999998, 13.215 18.015, 13.98 17.88 C 14.790000000000001 17.67, 14.955000000000002 17.655, 15.600000000000001 17.46 C 16.08 17.28, 15.989999999999998 17.310000000000002, 16.56 17.1 C 17.22 16.86, 17.265 16.845, 17.88 16.62 C 18.45 16.410000000000004, 18.585 16.320000000000004, 19.02 16.200000000000003 C 19.32 16.17, 19.395000000000003 16.155, 19.62 16.14 C 19.77 16.14, 19.77 16.14, 19.919999999999998 16.14 C 20.07 16.14, 20.009999999999998 16.05, 20.22 16.14 C 20.49 16.32, 20.43 16.2, 20.759999999999998 16.5 C 21.15 16.92, 21.314999999999998 17.009999999999998, 21.54 17.34 C 21.6 17.58, 21.54 17.13, 21.66 17.82 C 21.84 18.96, 21.93 18.78, 22.02 20.1 C 22.02 21.6, 22.02 21.555, 22.02 23.1 C 22.02 24.69, 22.02 24.78, 22.02 26.28 C 22.02 27.689999999999998, 21.974999999999998 28.275, 22.02 29.099999999999998 C 22.11 29.339999999999996, 22.155 29.459999999999997, 22.200000000000003 29.58 C 22.200000000000003 29.58, 22.17 29.519999999999996, 22.200000000000003 29.58 C 22.26 29.7, 21.915 29.775, 22.32 29.82 C 23.07 29.79, 22.995 29.88, 23.82 29.759999999999998 C 24.72 29.549999999999997, 24.72 29.594999999999995, 25.619999999999997 29.339999999999996 C 26.52 29.04, 26.520000000000003 28.98, 27.42 28.740000000000002 C 28.32 28.560000000000002, 28.455 28.425000000000004, 29.22 28.380000000000003 C 29.85 28.47, 29.955 28.335, 30.48 28.56 C 30.9 28.92, 30.810000000000002 28.695, 31.32 29.28 C 31.919999999999998 30.090000000000003, 32.03999999999999 30.045, 32.519999999999996 30.900000000000002 C 32.879999999999995 31.800000000000004, 32.94 31.620000000000005, 33.24 32.7 C 33.480000000000004 33.96, 33.6 33.93, 33.72 35.22 C 33.72 36.54, 33.72 36.795, 33.72 37.86 C 33.72 38.67, 33.72 38.85, 33.72 39.480000000000004 C 33.72 39.93000000000001, 33.72 40.065000000000005, 33.72 40.38 C 33.72 40.56, 33.72 40.575, 33.72 40.74 C 33.72 40.89, 33.72 40.965, 33.72 41.04 L 33.72 41.04" fill="none" stroke="black" stroke-width="5"></path><path d="M 14.100000000000001 18 C 13.5 18.6, 13.35 18.615000000000002, 12.899999999999999 19.200000000000003 C 12.599999999999998 19.770000000000003, 12.555 19.47, 12.299999999999999 20.34 C 12.09 21.509999999999998, 12.03 21.345, 11.879999999999999 22.68 C 11.79 24.18, 11.745 23.85, 11.7 25.68 C 11.7 27.84, 11.684999999999999 28.38, 11.7 30 C 11.73 31.080000000000002, 11.73 30.915000000000003, 11.76 32.160000000000004 C 11.79 33.57000000000001, 11.7 33.73500000000001, 11.82 34.980000000000004 C 12.030000000000001 36.06, 12.045 36.27, 12.24 37.14 C 12.420000000000002 37.8, 12.465000000000002 37.935, 12.600000000000001 38.46 C 12.690000000000001 38.85, 12.719999999999999 38.85, 12.78 39.24 C 12.809999999999999 39.629999999999995, 12.795 39.705, 12.84 40.019999999999996 C 12.9 40.26, 12.9 40.305, 12.96 40.5 C 13.020000000000001 40.65, 13.05 40.724999999999994, 13.080000000000002 40.8 L 13.080000000000002 40.8" fill="none" stroke="black" stroke-width="5"></path><path d="M 13.080000000000002 36 C 15.06 35.91, 15.945 35.865, 17.04 35.82 C 17.25 35.82, 17.28 35.82, 17.46 35.82 C 17.61 35.82, 17.685 35.82, 17.759999999999998 35.82 L 17.759999999999998 35.82" fill="none" stroke="black" stroke-width="5"></path></svg>