<svg xmlns="http://www.w3.org/2000/svg" viewBox="11.479999542236328 4.1533331871032715 20.68000030517578 42.56666803359985" width="20.68000030517578" height="42.56666803359985"><path d="M 12.48 31.380000000000003 C 12.99 31.380000000000003, 12.45 31.335000000000004, 13.5 31.380000000000003 C 15.09 31.47, 15.344999999999999 31.515, 16.68 31.56 C 17.759999999999998 31.56, 17.61 31.47, 18.84 31.56 C 20.22 31.740000000000002, 20.325000000000003 31.830000000000002, 21.6 31.92 C 22.770000000000003 31.92, 22.935000000000002 31.92, 23.94 31.92 C 24.78 31.92, 24.869999999999997 31.92, 25.619999999999997 31.92 C 26.28 31.92, 26.37 31.995000000000005, 26.94 31.92 C 27.42 31.77, 27.42 31.845, 27.900000000000002 31.619999999999997 C 28.380000000000003 31.32, 28.41 31.41, 28.86 31.02 C 29.28 30.54, 29.355000000000004 30.509999999999998, 29.700000000000003 30.06 C 29.970000000000002 29.64, 30 29.805, 30.240000000000002 29.22 C 30.450000000000003 28.47, 30.480000000000004 28.544999999999998, 30.660000000000004 27.72 C 30.810000000000002 26.82, 30.840000000000003 27, 30.96 25.92 C 31.05 24.66, 31.095 24.599999999999998, 31.14 23.4 C 31.14 22.259999999999998, 31.14 22.5, 31.14 21.12 C 31.14 19.5, 31.14 19.5, 31.14 17.88 C 31.14 16.259999999999998, 31.14 16.11, 31.14 14.64 C 31.14 13.32, 31.14 13.125, 31.14 12 C 31.14 11.07, 31.14 11.16, 31.14 10.14 C 31.14 9.030000000000001, 31.14 8.835, 31.14 7.92 C 31.14 7.2, 31.14 6.99, 31.14 6.48 C 31.14 6.18, 31.14 6.0600000000000005, 31.14 5.88 C 31.14 5.82, 31.14 5.79, 31.14 5.76 C 31.14 5.76, 31.14 5.805, 31.14 5.76 C 31.14 5.67, 31.14 5.67, 31.14 5.58 C 31.14 5.49, 31.14 5.4750000000000005, 31.14 5.4 C 31.14 5.34, 31.185000000000002 5.34, 31.14 5.28 C 31.05 5.220000000000001, 31.035000000000004 5.19, 30.96 5.16 C 30.9 5.16, 30.944999999999997 5.16, 30.839999999999996 5.16 C 30.689999999999998 5.16, 30.735 5.16, 30.54 5.16 C 30.299999999999997 5.16, 30.299999999999997 5.16, 30.06 5.16 C 29.82 5.16, 29.849999999999998 5.1450000000000005, 29.58 5.16 C 29.28 5.1899999999999995, 29.37 5.205, 28.98 5.22 C 28.5 5.22, 28.515 5.22, 28.02 5.22 C 27.509999999999998 5.22, 27.495 5.22, 27 5.22 C 26.52 5.22, 26.354999999999997 5.22, 26.04 5.22 C 25.89 5.22, 25.845000000000002 5.22, 25.740000000000002 5.22 C 25.68 5.22, 25.65 5.22, 25.619999999999997 5.22 C 25.619999999999997 5.22, 25.619999999999997 5.22, 25.619999999999997 5.22 L 25.619999999999997 5.22" fill="none" stroke="black" stroke-width="5"></path><path d="M 22.62 32.28 C 22.62 33.09, 22.68 33.06, 22.62 33.900000000000006 C 22.5 34.77, 22.53 34.86, 22.38 35.64 C 22.2 36.33, 22.244999999999997 36.269999999999996, 22.02 37.019999999999996 C 21.75 37.83, 21.87 37.71, 21.48 38.64 C 20.97 39.69, 20.97 39.735, 20.46 40.74 C 19.950000000000003 41.7, 19.875 41.970000000000006, 19.44 42.660000000000004 C 19.08 43.08, 19.154999999999998 43.035000000000004, 18.72 43.5 C 18.21 44.01, 18.195 44.06999999999999, 17.700000000000003 44.519999999999996 C 17.220000000000002 44.91, 17.115000000000002 45, 16.740000000000002 45.3 C 16.470000000000002 45.51, 16.335 45.614999999999995, 16.200000000000003 45.72 C 16.200000000000003 45.72, 16.200000000000003 45.72, 16.200000000000003 45.72 C 16.200000000000003 45.72, 16.200000000000003 45.72, 16.200000000000003 45.72 C 16.200000000000003 45.72, 16.200000000000003 45.72, 16.200000000000003 45.72 L 16.200000000000003 45.72" fill="none" stroke="black" stroke-width="5"></path></svg>