<svg xmlns="http://www.w3.org/2000/svg" viewBox="10.640000343322754 3.739999771118164 18.326666831970215 36.506669998168945" width="18.326666831970215" height="36.506669998168945"><path d="M 13.02 4.74 C 12.84 5.79, 12.81 5.3100000000000005, 12.66 6.84 C 12.54 8.85, 12.54 8.895, 12.419999999999998 10.86 C 12.299999999999999 12.780000000000001, 12.239999999999998 12.72, 12.18 14.700000000000001 C 12.18 16.740000000000002, 12.165 16.815, 12.18 18.78 C 12.21 20.67, 12.120000000000001 20.549999999999997, 12.24 22.56 C 12.45 24.689999999999998, 12.435 25.155, 12.66 26.82 C 12.9 28.02, 12.795000000000002 28.395, 13.14 29.22 C 13.59 29.669999999999998, 13.605 29.775, 14.04 30.119999999999997 C 14.459999999999999 30.36, 14.399999999999999 30.434999999999995, 14.879999999999999 30.599999999999998 C 15.42 30.689999999999998, 15.405000000000001 30.87, 15.96 30.78 C 16.53 30.51, 16.545 30.630000000000003, 17.1 30.240000000000002 C 17.64 29.73, 17.535 30.134999999999998, 18.18 29.22 C 18.93 27.9, 19.2 27.525, 19.68 26.58 C 19.89 26.009999999999998, 19.995 25.995, 20.1 25.44 C 20.1 24.9, 20.1 24.794999999999998, 20.1 24.36 C 20.1 24.03, 20.1 23.970000000000002, 20.1 23.700000000000003 C 20.1 23.490000000000002, 20.1 23.385, 20.1 23.28 C 20.1 23.28, 20.025000000000002 23.235, 20.1 23.28 C 20.25 23.37, 20.325 23.22, 20.4 23.46 C 20.4 23.85, 20.4 23.82, 20.4 24.240000000000002 C 20.4 24.69, 20.354999999999997 24.675, 20.4 25.14 C 20.490000000000002 25.619999999999997, 20.46 25.5, 20.580000000000002 26.099999999999998 C 20.73 26.82, 20.7 26.97, 20.88 27.54 C 21.089999999999996 27.96, 21.059999999999995 27.990000000000002, 21.299999999999997 28.380000000000003 C 21.57 28.740000000000002, 21.405 28.814999999999998, 21.84 29.099999999999998 C 22.439999999999998 29.31, 22.439999999999998 29.415, 23.04 29.52 C 23.64 29.52, 23.64 29.595, 24.240000000000002 29.52 C 24.840000000000003 29.369999999999997, 24.915000000000003 29.595, 25.44 29.22 C 25.89 28.619999999999997, 26.069999999999997 28.575, 26.339999999999996 28.02 C 26.43 27.509999999999998, 26.354999999999997 27.78, 26.52 27 C 26.759999999999998 25.950000000000003, 26.79 26.235000000000003, 27 24.900000000000002 C 27.18 23.28, 27.195 23.355, 27.36 21.66 C 27.51 19.89, 27.510000000000005 19.635, 27.660000000000004 18.12 C 27.810000000000002 16.86, 27.885 16.950000000000003, 27.96 15.600000000000001 C 27.96 14.16, 27.96 13.98, 27.96 12.72 C 27.96 11.64, 27.96 11.46, 27.96 10.56 C 27.96 9.84, 27.96 9.885000000000002, 27.96 9.120000000000001 C 27.96 8.31, 27.96 8.01, 27.96 7.5 C 27.96 7.29, 27.975 7.35, 27.96 7.08 C 27.93 6.75, 27.915000000000003 6.615, 27.900000000000002 6.42 C 27.900000000000002 6.36, 27.900000000000002 6.33, 27.900000000000002 6.300000000000001 C 27.900000000000002 6.300000000000001, 27.915000000000003 6.345000000000001, 27.900000000000002 6.300000000000001 C 27.869999999999997 6.210000000000001, 27.869999999999997 6.210000000000001, 27.839999999999996 6.12 C 27.81 6.029999999999999, 27.795 5.984999999999999, 27.78 5.9399999999999995 C 27.78 5.9399999999999995, 27.87 5.954999999999999, 27.78 5.9399999999999995 C 27.6 5.91, 27.69 5.895, 27.42 5.88 C 27.060000000000002 5.88, 27.195000000000004 5.88, 26.700000000000003 5.88 C 26.07 5.88, 25.950000000000003 5.88, 25.44 5.88 C 25.050000000000004 5.88, 25.125000000000004 5.88, 24.660000000000004 5.88 C 24.120000000000005 5.88, 24.150000000000002 5.88, 23.580000000000002 5.88 C 22.98 5.88, 22.755 5.88, 22.38 5.88 C 22.23 5.88, 22.275000000000002 5.88, 22.080000000000002 5.88 C 21.840000000000003 5.88, 21.765 5.88, 21.6 5.88 C 21.509999999999998 5.88, 21.494999999999997 5.88, 21.419999999999998 5.88 L 21.299999999999997 5.88" fill="none" stroke="black" stroke-width="5"></path><path d="M 11.64 38.7 C 12.120000000000001 38.7, 11.715000000000002 38.61, 12.600000000000001 38.7 C 13.89 38.88, 14.205 38.97, 15.18 39.06 C 15.84 39.06, 15.495 39.015, 16.5 39.06 C 17.85 39.150000000000006, 18.060000000000002 39.195, 19.200000000000003 39.24 C 20.130000000000003 39.24, 19.965 39.255, 21.06 39.24 C 22.32 39.21, 22.590000000000003 39.225, 23.580000000000002 39.18 C 24.3 39.120000000000005, 24.345 39.18, 25.02 39.06 C 25.65 38.88, 25.845000000000002 38.83500000000001, 26.28 38.7 C 26.52 38.61, 26.64 38.565, 26.759999999999998 38.519999999999996 L 26.759999999999998 38.519999999999996" fill="none" stroke="black" stroke-width="5"></path></svg>