<svg xmlns="http://www.w3.org/2000/svg" viewBox="8.926667213439941 5.619999885559082 23.75333309173584 41.53333568572998" width="23.75333309173584" height="41.53333568572998"><path d="M 14.16 31.92 C 13.41 29.61, 13.485 30.224999999999998, 12.66 27.299999999999997 C 11.76 23.759999999999998, 11.415 22.799999999999997, 10.86 20.22 C 10.649999999999999 18.6, 10.665 18.63, 10.44 16.98 C 10.2 15.3, 10.079999999999998 14.88, 9.959999999999999 13.620000000000001 C 9.959999999999999 12.780000000000001, 9.884999999999998 12.75, 9.959999999999999 11.94 C 10.11 11.16, 10.035 11.084999999999999, 10.26 10.379999999999999 C 10.559999999999999 9.75, 10.5 9.825000000000001, 10.86 9.120000000000001 C 11.28 8.34, 11.28 8.13, 11.7 7.5600000000000005 C 12.12 7.2, 12.134999999999998 7.0649999999999995, 12.54 6.84 C 12.93 6.75, 12.809999999999999 6.705, 13.32 6.66 C 13.950000000000001 6.66, 13.950000000000003 6.57, 14.580000000000002 6.66 C 15.21 6.84, 15.27 6.674999999999999, 15.84 7.02 C 16.35 7.53, 16.439999999999998 7.575000000000001, 16.86 8.040000000000001 C 17.189999999999998 8.46, 17.16 8.25, 17.52 8.879999999999999 C 17.909999999999997 9.719999999999999, 17.999999999999996 9.705, 18.299999999999997 10.56 C 18.509999999999998 11.43, 18.525 11.444999999999999, 18.72 12.299999999999999 C 18.9 13.14, 18.945 12.945, 19.080000000000002 13.98 C 19.17 15.21, 19.154999999999998 15.435000000000002, 19.259999999999998 16.44 C 19.38 17.22, 19.38 17.415, 19.5 18 C 19.62 18.39, 19.650000000000002 18.54, 19.740000000000002 18.78 C 19.8 18.87, 19.725 18.795, 19.86 18.96 C 20.07 19.200000000000003, 20.175 19.32, 20.28 19.44 C 20.28 19.44, 20.25 19.410000000000004, 20.28 19.44 C 20.34 19.5, 20.325 19.53, 20.4 19.56 C 20.490000000000002 19.56, 20.505000000000003 19.56, 20.580000000000002 19.56 C 20.64 19.56, 20.505000000000003 19.589999999999996, 20.700000000000003 19.56 C 21.03 19.5, 20.79 19.53, 21.36 19.44 C 22.17 19.32, 22.185000000000002 19.35, 22.98 19.200000000000003 C 23.759999999999998 19.020000000000003, 23.79 18.93, 24.54 18.84 C 25.259999999999998 18.84, 25.259999999999998 18.884999999999998, 25.98 18.84 C 26.700000000000003 18.75, 26.790000000000003 18.705, 27.42 18.66 C 27.96 18.66, 27.915 18.66, 28.5 18.66 C 29.13 18.66, 29.25 18.66, 29.759999999999998 18.66 C 30.15 18.66, 30.255 18.66, 30.54 18.66 C 30.72 18.66, 30.810000000000002 18.66, 30.900000000000002 18.66 C 30.900000000000002 18.66, 30.900000000000002 18.66, 30.900000000000002 18.66 L 30.900000000000002 18.66" fill="none" stroke="black" stroke-width="5"></path><path d="M 29.400000000000002 7.5600000000000005 C 29.46 8.370000000000001, 29.355 7.424999999999999, 29.52 9.18 C 29.79 11.88, 29.82 12.285000000000002, 30.06 14.580000000000002 C 30.27 16.47, 30.33 16.8, 30.48 18.36 C 30.57 19.59, 30.555000000000003 19.41, 30.660000000000004 20.82 C 30.78 22.41, 30.840000000000003 22.425, 30.900000000000002 24 C 30.900000000000002 25.56, 30.900000000000002 25.949999999999996, 30.900000000000002 27.119999999999997 C 30.900000000000002 27.9, 30.885 28.125, 30.900000000000002 28.68 C 30.93 29.009999999999998, 30.945 29.174999999999997, 30.96 29.339999999999996 L 30.96 29.339999999999996" fill="none" stroke="black" stroke-width="5"></path><path d="M 19.740000000000002 19.68 C 19.740000000000002 21.21, 19.680000000000003 21.150000000000002, 19.740000000000002 22.740000000000002 C 19.86 24.39, 19.92 24.06, 19.98 26.04 C 19.98 28.35, 19.92 28.440000000000005, 19.98 30.660000000000004 C 20.1 32.790000000000006, 20.16 33.165000000000006, 20.22 34.92 C 20.22 36.3, 20.189999999999998 36.6, 20.22 37.68 C 20.28 38.46, 20.31 38.115, 20.34 39.24 C 20.34 40.71, 20.34 40.965, 20.34 42.18 C 20.34 43.14, 20.295 43.27499999999999, 20.34 44.099999999999994 C 20.43 44.79, 20.43 45.06, 20.52 45.480000000000004 C 20.61 45.63, 20.580000000000002 45.63, 20.700000000000003 45.78 C 20.85 45.93, 20.835 46.004999999999995, 21 46.08 C 21.18 46.08, 21.24 46.08, 21.36 46.08 C 21.42 46.08, 21.36 46.245, 21.48 46.08 C 21.66 45.75, 21.735 45.825, 21.84 45.42 C 21.869999999999997 44.94, 21.66 45.24, 21.9 44.46 C 22.349999999999998 43.379999999999995, 22.259999999999998 43.364999999999995, 22.799999999999997 42.3 C 23.43 41.25, 23.49 41.055, 24.06 40.2 C 24.57 39.540000000000006, 24.389999999999997 39.510000000000005, 25.08 38.88 C 25.95 38.28, 25.74 38.13, 26.82 37.68 C 28.11 37.379999999999995, 28.380000000000003 37.23, 29.400000000000002 37.08 C 30.150000000000002 37.08, 30.405 37.08, 30.900000000000002 37.08 C 31.14 37.08, 31.215000000000003 37.08, 31.380000000000003 37.08 C 31.47 37.08, 31.485 37.08, 31.56 37.08 L 31.68 37.08" fill="none" stroke="black" stroke-width="5"></path></svg>