<svg xmlns="http://www.w3.org/2000/svg" viewBox="9.330482482910156 3.4954476356506348 25.74951934814453 41.36455154418945" width="25.74951934814453" height="41.36455154418945"><path d="M 12.54 43.86 C 12.12 41.010000000000005, 12.12 42.135000000000005, 11.7 38.160000000000004 C 11.28 33.06, 11.174999999999999 32.910000000000004, 10.86 27.96 C 10.649999999999999 23.16, 10.545 21.585, 10.44 18.36 C 10.44 16.71, 10.424999999999999 16.965, 10.44 15.059999999999999 C 10.469999999999999 12.899999999999999, 10.14 12.629999999999999, 10.5 10.74 C 11.19 9.120000000000001, 11.28 8.745000000000001, 11.879999999999999 7.5 C 12.389999999999999 6.63, 12.36 6.4799999999999995, 12.899999999999999 5.76 C 13.469999999999999 5.1899999999999995, 13.589999999999998 4.9350000000000005, 14.04 4.62 C 14.370000000000001 4.5600000000000005, 14.325000000000001 4.515, 14.700000000000001 4.5 C 15.120000000000001 4.53, 15.18 4.44, 15.54 4.5600000000000005 C 15.84 4.77, 15.795000000000002 4.6049999999999995, 16.14 4.9799999999999995 C 16.53 5.52, 16.544999999999998 5.460000000000001, 16.919999999999998 6.0600000000000005 C 17.28 6.720000000000001, 17.25 6.4350000000000005, 17.64 7.38 C 18.060000000000002 8.61, 17.925 7.965, 18.48 9.84 C 19.17 12.36, 19.38 12.779999999999998, 19.86 14.879999999999999 C 20.13 16.560000000000002, 20.265 16.695, 20.4 18.240000000000002 C 20.4 19.65, 20.354999999999997 19.605, 20.4 21.06 C 20.490000000000002 22.56, 20.490000000000002 23.22, 20.580000000000002 24.06 C 20.67 24.240000000000002, 20.64 24.240000000000002, 20.759999999999998 24.42 C 20.909999999999997 24.6, 20.865 24.615000000000002, 21.06 24.78 C 21.299999999999997 24.93, 21.105 24.99, 21.54 25.08 C 22.169999999999998 25.11, 22.169999999999998 25.125, 22.799999999999997 25.14 C 23.43 25.14, 23.43 25.185000000000002, 24.06 25.14 C 24.689999999999998 25.05, 24.419999999999998 25.095000000000002, 25.32 24.96 C 26.490000000000002 24.78, 26.580000000000005 24.779999999999998, 27.660000000000004 24.599999999999998 C 28.650000000000002 24.42, 28.86 24.345000000000002, 29.64 24.240000000000002 C 30.21 24.21, 30.195 24.225, 30.78 24.18 C 31.380000000000003 24.119999999999997, 31.560000000000002 24.09, 31.98 24.06 C 32.22 24.06, 32.31 24.06, 32.46 24.06 C 32.519999999999996 24.06, 32.55 24.06, 32.58 24.06 L 32.58 24.06" fill="none" stroke="black" stroke-width="5"></path><path d="M 30.72 5.1 C 30.810000000000002 6.66, 30.615000000000002 6.0600000000000005, 30.900000000000002 8.22 C 31.380000000000003 10.98, 31.62 11.925, 31.86 13.74 C 31.86 14.61, 31.86 13.815000000000001, 31.86 15.48 C 31.86 17.939999999999998, 31.86 18.63, 31.86 20.4 C 31.86 21.479999999999997, 31.86 21.299999999999997, 31.86 22.56 C 31.86 24, 31.8 24.075000000000003, 31.86 25.44 C 31.979999999999997 26.73, 31.919999999999995 26.505, 32.099999999999994 28.02 C 32.339999999999996 29.759999999999998, 32.28 29.445, 32.58 31.5 C 32.94 33.870000000000005, 33.015 34.38, 33.3 36.24 C 33.51 37.59, 33.56999999999999 37.845, 33.72 38.94 C 33.81 39.78, 33.81 40.125, 33.900000000000006 40.62 C 33.99 40.769999999999996, 34.035 40.845, 34.08 40.92 L 34.08 40.92" fill="none" stroke="black" stroke-width="5"></path><path d="M 22.56 30.900000000000002 C 22.17 31.17, 22.080000000000002 31.065, 21.78 31.44 C 21.57 31.92, 21.3 31.845000000000006, 21.36 32.400000000000006 C 21.689999999999998 33.03, 21.494999999999997 33.285000000000004, 22.02 33.660000000000004 C 22.740000000000002 33.78, 22.515 34.080000000000005, 23.46 33.900000000000006 C 24.63 33.42, 25.11 33.465, 25.799999999999997 32.94 C 26.009999999999998 32.37, 26.339999999999996 32.279999999999994, 26.22 31.799999999999997 C 25.77 31.409999999999997, 25.83 31.215, 25.32 31.02 C 24.75 31.02, 24.675 30.974999999999998, 24.18 31.02 C 23.759999999999998 31.11, 23.73 30.660000000000004, 23.34 31.200000000000003 C 22.98 32.19, 22.605 32.535, 22.62 33.18 C 23.009999999999998 33.480000000000004, 22.845 33.66, 23.4 33.78 C 24.119999999999997 33.72, 24.224999999999994 34.33500000000001, 24.839999999999996 33.660000000000004 C 25.349999999999998 32.370000000000005, 26.025 31.875, 25.86 31.08 C 25.02 30.78, 25.155 30.285, 24.18 30.48 C 23.07 31.17, 22.515 31.259999999999998, 21.96 31.86 C 21.96 32.370000000000005, 21.795 32.475, 21.96 32.88 L 22.62 33.480000000000004" fill="none" stroke="black" stroke-width="5"></path><path d="M 20.1 39.839999999999996 C 21.840000000000003 39.42, 21.990000000000002 39.254999999999995, 23.580000000000002 39 C 25.020000000000003 38.91, 25.395000000000003 38.91, 26.46 38.82 C 27.15 38.730000000000004, 27.164999999999996 38.760000000000005, 27.839999999999996 38.64 L 29.160000000000004 38.339999999999996" fill="none" stroke="black" stroke-width="5"></path><path d="M 22.02 31.619999999999997 C 22.35 31.799999999999997, 22.064999999999998 31.784999999999997, 22.68 31.98 C 23.58 32.190000000000005, 23.79 32.145, 24.48 32.400000000000006 C 24.96 32.7, 25.200000000000003 32.85, 25.44 33 L 25.44 33" fill="none" stroke="black" stroke-width="5"></path></svg>