<svg xmlns="http://www.w3.org/2000/svg" viewBox="9.319999694824219 1.7000000476837158 20.539999961853027 41.959999799728394" width="20.539999961853027" height="41.959999799728394"><path d="M 11.94 28.02 C 11.669999999999998 27.450000000000003, 11.639999999999999 27.885, 11.399999999999999 26.880000000000003 C 11.19 25.44, 11.085 25.560000000000002, 10.98 24 C 10.98 22.32, 10.98 22.02, 10.98 20.64 C 10.98 19.560000000000002, 10.95 19.44, 10.98 18.48 C 11.040000000000001 17.64, 10.920000000000002 17.759999999999998, 11.100000000000001 16.799999999999997 C 11.4 15.719999999999999, 11.385 15.51, 11.7 14.64 C 12.03 13.98, 12.134999999999998 13.77, 12.36 13.32 C 12.48 13.08, 12.465000000000002 13.02, 12.600000000000001 12.84 C 12.75 12.72, 12.584999999999999 12.66, 12.899999999999999 12.600000000000001 C 13.379999999999999 12.600000000000001, 13.5 12.555000000000001, 13.86 12.600000000000001 C 14.1 12.690000000000001, 14.1 12.645, 14.34 12.78 C 14.58 12.96, 14.49 12.795, 14.82 13.14 C 15.24 13.65, 15.254999999999999 13.575, 15.66 14.16 C 16.05 14.82, 16.080000000000002 14.835, 16.44 15.48 C 16.770000000000003 16.11, 16.8 16.035000000000004, 17.1 16.740000000000002 C 17.37 17.52, 17.340000000000003 17.58, 17.64 18.299999999999997 C 17.97 18.96, 18.029999999999998 18.975, 18.299999999999997 19.62 C 18.509999999999998 20.25, 18.494999999999997 20.22, 18.72 20.88 C 18.96 21.57, 19.080000000000002 21.915, 19.200000000000003 22.259999999999998 C 19.200000000000003 22.259999999999998, 19.200000000000003 22.259999999999998, 19.200000000000003 22.259999999999998 C 19.200000000000003 22.259999999999998, 19.200000000000003 22.529999999999998, 19.200000000000003 22.259999999999998 C 19.200000000000003 21.72, 19.200000000000003 21.795, 19.200000000000003 21.18 C 19.200000000000003 20.49, 19.155000000000005 20.609999999999996, 19.200000000000003 19.799999999999997 C 19.29 18.869999999999997, 19.23 18.72, 19.38 17.94 C 19.589999999999996 17.310000000000002, 19.544999999999998 17.28, 19.799999999999997 16.68 C 20.099999999999998 16.11, 20.04 16.11, 20.4 15.54 C 20.82 14.969999999999999, 20.865000000000002 14.879999999999999, 21.240000000000002 14.399999999999999 C 21.57 14.01, 21.525 13.965, 21.9 13.620000000000001 C 22.32 13.32, 22.380000000000003 13.23, 22.740000000000002 13.02 C 23.04 12.899999999999999, 23.025 12.84, 23.34 12.78 C 23.67 12.78, 23.805 12.78, 24 12.78 C 24.06 12.78, 24.014999999999997 12.78, 24.119999999999997 12.78 C 24.27 12.78, 24.18 12.78, 24.42 12.78 C 24.75 12.78, 24.615 12.78, 25.08 12.78 C 25.68 12.78, 25.83 12.78, 26.28 12.78 C 26.580000000000002 12.78, 26.655 12.78, 26.880000000000003 12.78 C 27.03 12.78, 27.015 12.825, 27.18 12.78 C 27.36 12.690000000000001, 27.36 12.765, 27.54 12.600000000000001 C 27.72 12.360000000000001, 27.75 12.315000000000001, 27.900000000000002 12.120000000000001 C 28.020000000000003 11.97, 28.05 11.985000000000001, 28.14 11.82 C 28.2 11.64, 28.199999999999996 11.7, 28.259999999999998 11.459999999999999 C 28.32 11.16, 28.305000000000003 11.219999999999999, 28.380000000000003 10.86 C 28.47 10.44, 28.5 10.53, 28.56 10.02 C 28.589999999999996 9.42, 28.56 9.465, 28.619999999999997 8.82 C 28.709999999999997 8.129999999999999, 28.739999999999995 8.055, 28.799999999999997 7.4399999999999995 C 28.83 6.9, 28.845 6.945, 28.86 6.36 C 28.86 5.73, 28.86 5.82, 28.86 5.1 C 28.86 4.289999999999999, 28.86 4.004999999999999, 28.86 3.4799999999999995 C 28.86 3.2399999999999998, 28.86 3.195, 28.86 3 C 28.86 2.85, 28.86 2.7750000000000004, 28.86 2.7 L 28.86 2.7" fill="none" stroke="black" stroke-width="5"></path><path d="M 18.9 22.02 C 18.93 22.32, 18.915 22.11, 18.96 22.62 C 19.020000000000003 23.34, 19.005000000000003 23.369999999999997, 19.080000000000002 24.06 C 19.17 24.72, 19.215 24.555000000000003, 19.259999999999998 25.380000000000003 C 19.259999999999998 26.37, 19.259999999999998 26.595, 19.259999999999998 27.36 C 19.259999999999998 27.9, 19.259999999999998 27.900000000000002, 19.259999999999998 28.44 C 19.259999999999998 28.98, 19.349999999999998 28.89, 19.259999999999998 29.52 C 19.08 30.240000000000002, 19.154999999999998 30.225, 18.9 30.96 C 18.57 31.71, 18.630000000000003 31.485, 18.240000000000002 32.46 C 17.79 33.66, 17.79 33.825, 17.34 34.86 C 16.89 35.73, 16.815 35.955, 16.44 36.599999999999994 C 16.14 37.019999999999996, 16.305 36.809999999999995, 15.84 37.44 C 15.21 38.28, 15.21 38.415, 14.580000000000002 39.12 C 13.950000000000001 39.69, 14.100000000000001 39.599999999999994, 13.32 40.26 C 12.39 41.01, 12.12 41.235, 11.459999999999999 41.76 C 11.07 42.06, 10.965 42.135, 10.68 42.36 C 10.5 42.510000000000005, 10.41 42.585, 10.32 42.660000000000004 C 10.32 42.660000000000004, 10.32 42.660000000000004, 10.32 42.660000000000004 L 10.32 42.660000000000004" fill="none" stroke="black" stroke-width="5"></path></svg>