<svg xmlns="http://www.w3.org/2000/svg" viewBox="8.88912296295166 5.039999961853027 19.057544708251953 40.18000030517578" width="19.057544708251953" height="40.18000030517578"><path d="M 10.620000000000001 44.22 C 10.56 43.29, 10.59 43.305, 10.5 42.36 C 10.379999999999999 41.4, 10.41 41.235, 10.26 40.44 C 10.079999999999998 39.81, 9.989999999999998 39.69, 9.899999999999999 39.18 C 9.899999999999999 38.790000000000006, 9.899999999999999 38.940000000000005, 9.899999999999999 38.400000000000006 C 9.899999999999999 37.71, 9.899999999999999 37.665, 9.899999999999999 37.019999999999996 C 9.899999999999999 36.42, 9.899999999999999 36.269999999999996, 9.899999999999999 35.82 C 9.899999999999999 35.519999999999996, 9.899999999999999 35.37, 9.899999999999999 35.22 C 9.899999999999999 35.22, 9.899999999999999 35.339999999999996, 9.899999999999999 35.22 C 9.899999999999999 34.980000000000004, 9.899999999999999 34.86, 9.899999999999999 34.74 C 9.899999999999999 34.74, 9.884999999999998 34.815000000000005, 9.899999999999999 34.74 C 9.93 34.59, 9.825 34.545, 9.959999999999999 34.44 C 10.2 34.379999999999995, 10.215 34.35, 10.44 34.32 C 10.649999999999999 34.32, 10.44 34.32, 10.86 34.32 C 11.49 34.32, 11.490000000000002 34.365, 12.120000000000001 34.32 C 12.75 34.230000000000004, 12.764999999999999 34.185, 13.379999999999999 34.14 C 13.98 34.14, 14.130000000000003 34.14, 14.580000000000002 34.14 C 14.88 34.14, 14.685 34.155, 15.18 34.14 C 15.87 34.11, 16.005 34.275, 16.56 34.08 C 16.979999999999997 33.72, 17.099999999999998 33.705, 17.4 33.36 C 17.58 33.03, 17.564999999999998 33.075, 17.759999999999998 32.7 C 17.97 32.28, 17.939999999999998 32.355000000000004, 18.18 31.86 C 18.45 31.29, 18.464999999999996 31.35, 18.72 30.72 C 18.96 30.029999999999998, 18.990000000000002 30.059999999999995, 19.200000000000003 29.339999999999996 C 19.380000000000003 28.589999999999996, 19.455 28.364999999999995, 19.56 27.839999999999996 C 19.59 27.54, 19.575 27.435000000000002, 19.62 27.240000000000002 C 19.68 27.15, 19.71 27.105, 19.740000000000002 27.06 C 19.740000000000002 27.06, 19.740000000000002 26.895, 19.740000000000002 27.06 C 19.740000000000002 27.39, 19.665000000000003 27.21, 19.740000000000002 27.72 C 19.89 28.409999999999997, 19.965 28.544999999999998, 20.04 29.099999999999998 C 20.04 29.52, 19.904999999999998 29.325000000000003, 20.04 29.94 C 20.310000000000002 30.75, 20.28 30.9, 20.580000000000002 31.56 C 20.910000000000004 32.07, 20.865000000000002 32.129999999999995, 21.240000000000002 32.58 C 21.660000000000004 32.97, 21.705000000000002 33.089999999999996, 22.080000000000002 33.36 C 22.410000000000004 33.510000000000005, 22.380000000000003 33.585, 22.740000000000002 33.660000000000004 C 23.130000000000003 33.660000000000004, 23.1 33.675000000000004, 23.52 33.660000000000004 C 23.97 33.629999999999995, 23.925 33.855, 24.42 33.599999999999994 C 24.96 33.12, 25.125 33.075, 25.5 32.64 C 25.71 32.25, 25.695 32.385, 25.92 31.86 C 26.160000000000004 31.2, 26.235000000000003 31.185, 26.400000000000002 30.54 C 26.490000000000002 29.91, 26.474999999999998 30.12, 26.58 29.28 C 26.7 28.23, 26.73 28.245, 26.82 27.18 C 26.880000000000003 26.1, 26.91 26.28, 26.94 25.02 C 26.94 23.58, 26.94 23.565, 26.94 22.14 C 26.94 20.73, 26.94 20.685000000000002, 26.94 19.32 C 26.94 18, 26.955000000000002 18.03, 26.94 16.68 C 26.910000000000004 15.299999999999999, 26.925000000000004 14.999999999999998, 26.880000000000003 13.919999999999998 C 26.82 13.139999999999999, 26.835 13.305, 26.759999999999998 12.36 C 26.669999999999998 11.25, 26.625 11.115, 26.58 10.14 C 26.58 9.3, 26.624999999999996 9.104999999999999, 26.58 8.459999999999999 C 26.490000000000002 8.01, 26.445 7.95, 26.400000000000002 7.5600000000000005 C 26.400000000000002 7.23, 26.445000000000004 7.14, 26.400000000000002 6.8999999999999995 C 26.310000000000002 6.75, 26.265 6.720000000000001, 26.22 6.6000000000000005 C 26.22 6.51, 26.22 6.495, 26.22 6.42 C 26.22 6.36, 26.22 6.33, 26.22 6.300000000000001 C 26.22 6.300000000000001, 26.235 6.345000000000001, 26.22 6.300000000000001 C 26.19 6.210000000000001, 26.235000000000003 6.18, 26.160000000000004 6.12 C 26.040000000000003 6.09, 26.055000000000003 6.075, 25.92 6.0600000000000005 C 25.77 6.0600000000000005, 25.994999999999997 6.0600000000000005, 25.619999999999997 6.0600000000000005 C 25.02 6.0600000000000005, 24.915 6.015000000000001, 24.42 6.0600000000000005 C 24.03 6.15, 24.150000000000002 6.15, 23.64 6.24 C 23.009999999999998 6.33, 22.994999999999997 6.359999999999999, 22.38 6.42 C 21.78 6.45, 21.75 6.45, 21.18 6.48 C 20.64 6.510000000000001, 20.535 6.525, 20.1 6.540000000000001 C 19.770000000000003 6.540000000000001, 19.755000000000003 6.540000000000001, 19.44 6.540000000000001 C 19.14 6.540000000000001, 19.065 6.540000000000001, 18.84 6.540000000000001 C 18.689999999999998 6.540000000000001, 18.615 6.540000000000001, 18.54 6.540000000000001 C 18.54 6.540000000000001, 18.54 6.540000000000001, 18.54 6.540000000000001 L 18.54 6.540000000000001" fill="none" stroke="black" stroke-width="5"></path></svg>