<svg xmlns="http://www.w3.org/2000/svg" viewBox="12.59333324432373 0.6200000047683716 18.640000343322754 45.56000030040741" width="18.640000343322754" height="45.56000030040741"><path d="M 16.080000000000002 1.62 C 16.05 2.8200000000000003, 16.2 2.535, 16.02 4.0200000000000005 C 15.69 5.790000000000001, 15.855 4.815, 15.36 7.5600000000000005 C 14.7 11.280000000000001, 14.459999999999999 12.09, 14.04 15 C 13.86 17.1, 13.77 17.325000000000003, 13.68 19.200000000000003 C 13.68 20.85, 13.485 21.105, 13.68 22.5 C 14.07 23.64, 14.100000000000001 24.060000000000002, 14.46 24.78 C 14.790000000000001 25.080000000000002, 14.790000000000001 25.14, 15.120000000000001 25.380000000000003 C 15.45 25.560000000000002, 15.54 25.650000000000002, 15.78 25.740000000000002 C 15.93 25.740000000000002, 15.960000000000003 25.740000000000002, 16.080000000000002 25.740000000000002 C 16.17 25.740000000000002, 16.095 25.785000000000004, 16.259999999999998 25.740000000000002 C 16.5 25.65, 16.455000000000002 25.785, 16.740000000000002 25.56 C 17.07 25.199999999999996, 17.07 25.259999999999998, 17.4 24.839999999999996 C 17.729999999999997 24.36, 17.639999999999997 24.464999999999996, 18.06 23.88 C 18.57 23.189999999999998, 18.630000000000003 23.189999999999998, 19.080000000000002 22.5 C 19.47 21.810000000000002, 19.41 22.11, 19.86 21.12 C 20.369999999999997 19.83, 20.49 19.515, 20.88 18.54 C 21.15 17.88, 21.18 17.97, 21.419999999999998 17.22 C 21.63 16.38, 21.735 15.959999999999999, 21.84 15.54 C 21.84 15.54, 21.84 15.54, 21.84 15.54 C 21.84 15.54, 21.795 15.419999999999998, 21.84 15.54 C 21.93 15.78, 22.05 15.254999999999999, 22.02 16.02 C 21.869999999999997 17.310000000000002, 21.825 17.595000000000002, 21.72 18.6 C 21.66 19.32, 21.72 19.185, 21.6 20.04 C 21.42 21.03, 21.315000000000005 21.044999999999998, 21.240000000000002 22.02 C 21.27 22.98, 21.209999999999997 23.310000000000002, 21.299999999999997 23.94 C 21.45 24.240000000000002, 21.435000000000002 24.299999999999997, 21.6 24.54 C 21.78 24.72, 21.705000000000002 24.705000000000002, 21.96 24.900000000000002 C 22.29 25.11, 22.26 25.155, 22.62 25.32 C 23.009999999999998 25.439999999999998, 23.04 25.455, 23.4 25.56 C 23.729999999999997 25.65, 23.625 25.635, 24.06 25.740000000000002 C 24.6 25.86, 24.705000000000002 25.92, 25.14 25.98 C 25.47 25.98, 25.364999999999995 25.98, 25.799999999999997 25.98 C 26.34 25.98, 26.430000000000003 25.98, 26.880000000000003 25.98 C 27.240000000000002 25.98, 27.195 26.025000000000002, 27.599999999999998 25.98 C 28.049999999999997 25.89, 28.065 25.904999999999998, 28.5 25.799999999999997 C 28.919999999999998 25.68, 29.099999999999994 25.65, 29.339999999999996 25.56 C 29.4 25.5, 29.384999999999998 25.485, 29.46 25.44 C 29.55 25.410000000000004, 29.595 25.395000000000003, 29.64 25.380000000000003 C 29.64 25.380000000000003, 29.64 25.380000000000003, 29.64 25.380000000000003 C 29.64 25.380000000000003, 29.64 25.380000000000003, 29.64 25.380000000000003 C 29.64 25.380000000000003, 29.64 25.380000000000003, 29.64 25.380000000000003 C 29.64 25.380000000000003, 29.58 25.440000000000005, 29.64 25.380000000000003 C 29.76 25.26, 29.82 25.53, 29.880000000000003 25.14 C 29.880000000000003 24.48, 29.925000000000004 24.72, 29.880000000000003 23.82 C 29.790000000000003 22.68, 29.745000000000005 22.395, 29.700000000000003 21.54 C 29.700000000000003 20.97, 29.700000000000003 20.955, 29.700000000000003 20.4 C 29.700000000000003 19.86, 29.700000000000003 19.785, 29.700000000000003 19.32 C 29.700000000000003 18.93, 29.700000000000003 19.005, 29.700000000000003 18.54 C 29.700000000000003 18, 29.655 17.925, 29.700000000000003 17.46 C 29.790000000000003 17.07, 29.835 16.994999999999997, 29.880000000000003 16.68 C 29.880000000000003 16.44, 29.880000000000003 16.32, 29.880000000000003 16.200000000000003 C 29.880000000000003 16.200000000000003, 29.880000000000003 16.200000000000003, 29.880000000000003 16.200000000000003 L 29.880000000000003 16.200000000000003" fill="none" stroke="black" stroke-width="5"></path><path d="M 23.94 24.96 C 23.94 25.47, 23.94 25.455000000000002, 23.94 25.98 C 23.94 26.52, 23.775000000000002 26.31, 23.94 27.06 C 24.27 28.02, 24.24 28.259999999999998, 24.599999999999998 28.98 C 24.990000000000002 29.46, 24.900000000000002 29.445, 25.380000000000003 29.94 C 25.950000000000003 30.450000000000003, 26.025 30.585, 26.52 30.96 C 26.939999999999998 31.200000000000003, 26.91 31.200000000000003, 27.36 31.44 C 27.84 31.68, 27.825000000000003 31.605, 28.32 31.92 C 28.83 32.31, 28.934999999999995 32.295, 29.339999999999996 32.7 C 29.64 33.120000000000005, 29.73 33.21, 29.94 33.54 C 30.060000000000002 33.78, 30.12 33.779999999999994, 30.18 34.019999999999996 C 30.18 34.26, 30.18 34.230000000000004, 30.18 34.5 C 30.18 34.8, 30.299999999999997 34.904999999999994, 30.18 35.099999999999994 C 29.94 35.19, 30.090000000000003 35.235, 29.700000000000003 35.28 C 29.16 35.28, 29.159999999999997 35.28, 28.619999999999997 35.28 C 28.08 35.28, 28.38 35.205, 27.54 35.28 C 26.4 35.43, 26.445 35.355, 25.259999999999998 35.58 C 24.029999999999998 35.879999999999995, 23.879999999999995 35.82, 22.799999999999997 36.18 C 21.869999999999997 36.599999999999994, 21.6 36.584999999999994, 20.94 37.019999999999996 C 20.55 37.47, 20.625 37.11, 20.16 37.92 C 19.62 39.09, 19.485000000000003 39.06, 19.080000000000002 40.26 C 18.810000000000002 41.489999999999995, 18.675 41.76, 18.54 42.72 C 18.54 43.41, 18.45 43.48499999999999, 18.54 44.099999999999994 C 18.72 44.64, 18.81 44.91, 18.9 45.18 C 18.9 45.18, 18.9 45.18, 18.9 45.18 L 18.9 45.18" fill="none" stroke="black" stroke-width="5"></path></svg>