<svg xmlns="http://www.w3.org/2000/svg" viewBox="11.479999542236328 5.099999904632568 12.400001525878906 39.58000183105469" width="12.400001525878906" height="39.58000183105469"><path d="M 13.32 6.66 C 13.86 6.66, 13.784999999999998 6.705, 14.399999999999999 6.66 C 15.09 6.57, 15.075 6.525, 15.78 6.48 C 16.5 6.48, 16.259999999999998 6.57, 17.22 6.48 C 18.42 6.300000000000001, 18.78 6.21, 19.62 6.12 C 20.1 6.12, 20.025000000000002 6.12, 20.580000000000002 6.12 C 21.21 6.12, 21.495 6.12, 21.84 6.12 C 21.9 6.12, 21.885 6.12, 21.96 6.12 C 22.05 6.12, 22.05 6.12, 22.14 6.12 C 22.23 6.12, 22.215 6.075, 22.32 6.12 C 22.439999999999998 6.210000000000001, 22.47 6.165000000000001, 22.56 6.300000000000001 C 22.619999999999997 6.48, 22.605 6.45, 22.68 6.66 C 22.77 6.9, 22.814999999999998 6.945, 22.86 7.14 C 22.86 7.289999999999999, 22.86 7.289999999999999, 22.86 7.4399999999999995 C 22.86 7.59, 22.905 7.470000000000001, 22.86 7.74 C 22.77 8.129999999999999, 22.95 7.994999999999999, 22.68 8.52 C 22.23 9.18, 22.335 9.045, 21.78 9.84 C 21.12 10.77, 21.090000000000003 10.799999999999999, 20.46 11.7 C 19.86 12.57, 19.814999999999998 12.600000000000001, 19.259999999999998 13.440000000000001 C 18.75 14.25, 18.735 14.25, 18.240000000000002 15.059999999999999 C 17.76 15.87, 17.82 15.75, 17.28 16.68 C 16.68 17.73, 16.650000000000002 17.55, 16.080000000000002 18.78 C 15.540000000000001 20.19, 15.39 20.55, 15 21.6 C 14.76 22.29, 14.79 22.11, 14.52 22.98 C 14.219999999999999 24.03, 14.159999999999998 24.014999999999997, 13.919999999999998 25.08 C 13.739999999999998 26.16, 13.694999999999999 26.19, 13.559999999999999 27.240000000000002 C 13.469999999999999 28.26, 13.454999999999998 28.365000000000002, 13.379999999999999 29.28 C 13.32 30.090000000000003, 13.35 29.985000000000003, 13.26 30.900000000000002 C 13.14 31.92, 13.14 31.935, 13.02 32.94 C 12.899999999999999 33.93, 12.87 34.005, 12.78 34.92 C 12.719999999999999 35.76, 12.69 35.78999999999999, 12.66 36.599999999999994 C 12.66 37.379999999999995, 12.66 37.485, 12.66 38.160000000000004 C 12.66 38.730000000000004, 12.675 38.79, 12.66 39.3 C 12.63 39.75, 12.645000000000001 39.705, 12.600000000000001 40.2 C 12.540000000000001 40.74, 12.495000000000001 40.77, 12.48 41.28 C 12.51 41.760000000000005, 12.524999999999999 41.85, 12.54 42.24 C 12.54 42.54, 12.479999999999999 42.56999999999999, 12.54 42.839999999999996 C 12.66 43.08, 12.704999999999998 43.11, 12.78 43.32 C 12.809999999999999 43.5, 12.825 43.59, 12.84 43.68 L 12.84 43.68" fill="none" stroke="black" stroke-width="5"></path><path d="M 12.72 35.519999999999996 C 13.02 35.55, 12.885 35.519999999999996, 13.32 35.58 C 13.89 35.67, 13.785 35.684999999999995, 14.46 35.76 C 15.24 35.82, 15.105 35.730000000000004, 16.02 35.88 C 17.07 36.120000000000005, 17.25 36.135, 18.12 36.36 C 18.810000000000002 36.57, 18.66 36.615, 19.5 36.78 C 20.490000000000002 36.9, 20.745 36.92999999999999, 21.48 37.019999999999996 C 21.96 37.08, 22.110000000000003 37.11, 22.44 37.14 C 22.619999999999997 37.14, 22.709999999999997 37.14, 22.799999999999997 37.14 L 22.799999999999997 37.14" fill="none" stroke="black" stroke-width="5"></path></svg>