<svg xmlns="http://www.w3.org/2000/svg" viewBox="13.039999961853027 2.7133333683013916 19.22666645050049 44.66666769981384" width="19.22666645050049" height="44.66666769981384"><path d="M 15.18 29.400000000000002 C 15.63 29.369999999999997, 15.615000000000002 29.354999999999997, 16.080000000000002 29.339999999999996 C 16.560000000000002 29.339999999999996, 16.395 29.339999999999996, 17.04 29.339999999999996 C 17.85 29.339999999999996, 17.685 29.339999999999996, 18.66 29.339999999999996 C 19.8 29.339999999999996, 19.830000000000002 29.339999999999996, 20.94 29.339999999999996 C 22.020000000000003 29.339999999999996, 22.17 29.339999999999996, 23.1 29.339999999999996 C 23.880000000000003 29.339999999999996, 23.850000000000005 29.339999999999996, 24.660000000000004 29.339999999999996 C 25.5 29.339999999999996, 25.694999999999997 29.339999999999996, 26.339999999999996 29.339999999999996 C 26.79 29.339999999999996, 26.865000000000002 29.339999999999996, 27.240000000000002 29.339999999999996 C 27.54 29.339999999999996, 27.539999999999996 29.369999999999997, 27.839999999999996 29.339999999999996 C 28.14 29.279999999999998, 28.155 29.324999999999996, 28.44 29.22 C 28.71 29.07, 28.68 29.130000000000003, 28.98 28.92 C 29.310000000000002 28.650000000000002, 29.37 28.695, 29.64 28.380000000000003 C 29.85 28.020000000000003, 29.88 28.035000000000004, 30.06 27.660000000000004 C 30.21 27.270000000000003, 30.195 27.270000000000003, 30.36 26.880000000000003 C 30.54 26.490000000000002, 30.63 26.534999999999997, 30.72 26.099999999999998 C 30.72 25.619999999999997, 30.645 25.815, 30.72 25.14 C 30.869999999999997 24.27, 30.915 24.45, 31.02 23.4 C 31.08 22.17, 31.080000000000002 22.17, 31.14 20.94 C 31.2 19.71, 31.229999999999997 19.935000000000002, 31.259999999999998 18.48 C 31.259999999999998 16.8, 31.259999999999998 16.875, 31.259999999999998 15.120000000000001 C 31.259999999999998 13.29, 31.275 13.035, 31.259999999999998 11.459999999999999 C 31.23 10.14, 31.26 10.035, 31.200000000000003 8.82 C 31.11 7.710000000000001, 31.065 7.65, 31.02 6.6000000000000005 C 31.02 5.61, 31.049999999999997 5.265000000000001, 31.02 4.62 C 30.96 4.32, 30.93 4.17, 30.900000000000002 4.0200000000000005 C 30.900000000000002 4.0200000000000005, 30.900000000000002 4.0200000000000005, 30.900000000000002 4.0200000000000005 C 30.900000000000002 4.0200000000000005, 30.900000000000002 4.0200000000000005, 30.900000000000002 4.0200000000000005 C 30.900000000000002 4.0200000000000005, 30.930000000000003 4.065, 30.900000000000002 4.0200000000000005 C 30.840000000000003 3.93, 30.930000000000003 3.915, 30.78 3.84 C 30.54 3.78, 30.509999999999998 3.75, 30.299999999999997 3.7199999999999998 C 30.119999999999997 3.7199999999999998, 30.105 3.7199999999999998, 29.94 3.7199999999999998 C 29.79 3.7199999999999998, 29.82 3.7199999999999998, 29.64 3.7199999999999998 C 29.43 3.7199999999999998, 29.49 3.7199999999999998, 29.22 3.7199999999999998 C 28.89 3.7199999999999998, 28.949999999999996 3.7049999999999996, 28.56 3.7199999999999998 C 28.11 3.75, 28.200000000000003 3.7350000000000003, 27.660000000000004 3.7800000000000002 C 27.03 3.8400000000000003, 26.835 3.87, 26.400000000000002 3.9000000000000004 C 26.160000000000004 3.9000000000000004, 26.19 3.9000000000000004, 25.92 3.9000000000000004 C 25.62 3.9000000000000004, 25.5 3.9000000000000004, 25.32 3.9000000000000004 C 25.26 3.9000000000000004, 25.230000000000004 3.9000000000000004, 25.200000000000003 3.9000000000000004 C 25.200000000000003 3.9000000000000004, 25.200000000000003 3.9000000000000004, 25.200000000000003 3.9000000000000004 L 25.200000000000003 3.9000000000000004" fill="none" stroke="black" stroke-width="5"></path><path d="M 22.5 30.06 C 22.5 30.6, 22.634999999999998 30.465, 22.5 31.14 C 22.23 31.95, 22.335 31.935, 21.96 32.76 C 21.48 33.599999999999994, 21.48 33.705, 21 34.44 C 20.52 35.07, 20.775 34.92, 20.04 35.7 C 19.049999999999997 36.63, 19.064999999999998 36.705000000000005, 18.06 37.56 C 17.04 38.34, 17.025 38.445, 16.02 39.12 C 15.03 39.69, 14.535 39.974999999999994, 14.04 40.26 L 14.04 40.26" fill="none" stroke="black" stroke-width="5"></path><path d="M 28.380000000000003 34.68 C 27.810000000000002 35.67, 27.810000000000002 35.580000000000005, 27.240000000000002 36.660000000000004 C 26.67 37.83, 26.64 38.010000000000005, 26.099999999999998 39 C 25.589999999999996 39.81, 25.814999999999998 39.675, 25.08 40.62 C 24.119999999999997 41.7, 24.48 41.64, 23.16 42.78 C 21.479999999999997 43.980000000000004, 21.044999999999998 44.34, 19.799999999999997 45.18 C 18.99 45.66, 18.705 45.84, 18.18 46.14 L 17.700000000000003 46.38" fill="none" stroke="black" stroke-width="5"></path></svg>