<svg xmlns="http://www.w3.org/2000/svg" viewBox="12.41333293914795 5.300000190734863 17.87333393096924 41.24000072479248" width="17.87333393096924" height="41.24000072479248"><path d="M 13.440000000000001 6.300000000000001 C 13.440000000000001 8.879999999999999, 13.440000000000001 9.57, 13.440000000000001 11.459999999999999 C 13.440000000000001 12.66, 13.380000000000003 12.36, 13.440000000000001 13.86 C 13.56 15.66, 13.545 15.945, 13.68 17.46 C 13.83 18.689999999999998, 13.845 18.839999999999996, 13.98 19.919999999999998 C 14.100000000000001 20.85, 14.115000000000002 21.15, 14.22 21.78 C 14.309999999999999 22.11, 14.309999999999999 22.200000000000003, 14.399999999999999 22.44 C 14.49 22.590000000000003, 14.250000000000002 22.515, 14.580000000000002 22.740000000000002 C 15.150000000000002 23.04, 15.045000000000002 23.145, 15.72 23.34 C 16.5 23.43, 16.59 23.475, 17.28 23.52 C 17.880000000000003 23.52, 17.505000000000003 23.52, 18.48 23.52 C 19.83 23.52, 20.189999999999998 23.52, 21.18 23.52 C 21.810000000000002 23.52, 21.825000000000003 23.52, 22.44 23.52 C 23.04 23.52, 23.025 23.52, 23.64 23.52 C 24.270000000000003 23.52, 24.435000000000002 23.52, 24.900000000000002 23.52 C 25.200000000000003 23.52, 25.155 23.52, 25.5 23.52 C 25.89 23.52, 25.86 23.535, 26.28 23.52 C 26.73 23.490000000000002, 26.865000000000002 23.505000000000003, 27.18 23.46 C 27.36 23.4, 27.314999999999998 23.505000000000003, 27.54 23.34 C 27.81 23.07, 27.839999999999996 23.205, 28.08 22.799999999999997 C 28.29 22.259999999999998, 28.29 22.439999999999998, 28.5 21.72 C 28.71 20.82, 28.770000000000003 20.894999999999996, 28.92 19.919999999999998 C 29.009999999999998 18.869999999999997, 29.009999999999998 19.02, 29.099999999999998 17.82 C 29.189999999999998 16.47, 29.235 16.215, 29.28 15.120000000000001 C 29.28 14.280000000000001, 29.28 14.415000000000001, 29.28 13.440000000000001 C 29.28 12.330000000000002, 29.28 12.18, 29.28 11.22 C 29.28 10.41, 29.28 10.350000000000001, 29.28 9.600000000000001 C 29.28 8.91, 29.28 8.685, 29.28 8.22 C 29.28 7.98, 29.28 7.9350000000000005, 29.28 7.74 C 29.28 7.59, 29.28 7.515, 29.28 7.4399999999999995 C 29.28 7.4399999999999995, 29.295 7.56, 29.28 7.4399999999999995 C 29.25 7.199999999999999, 29.265 7.124999999999999, 29.22 6.959999999999999 C 29.159999999999997 6.869999999999999, 29.279999999999998 6.839999999999999, 29.099999999999998 6.779999999999999 C 28.799999999999997 6.75, 28.77 6.735, 28.5 6.720000000000001 C 28.259999999999998 6.720000000000001, 28.29 6.720000000000001, 28.02 6.720000000000001 C 27.72 6.720000000000001, 27.795 6.720000000000001, 27.42 6.720000000000001 C 26.97 6.720000000000001, 27.060000000000002 6.720000000000001, 26.52 6.720000000000001 C 25.89 6.720000000000001, 25.904999999999998 6.720000000000001, 25.259999999999998 6.720000000000001 C 24.6 6.720000000000001, 24.495 6.720000000000001, 23.94 6.720000000000001 C 23.490000000000002 6.720000000000001, 23.355 6.720000000000001, 23.04 6.720000000000001 C 22.86 6.720000000000001, 22.919999999999998 6.720000000000001, 22.68 6.720000000000001 C 22.380000000000003 6.720000000000001, 22.23 6.720000000000001, 22.080000000000002 6.720000000000001 C 22.080000000000002 6.720000000000001, 22.080000000000002 6.720000000000001, 22.080000000000002 6.720000000000001 C 22.080000000000002 6.720000000000001, 22.080000000000002 6.720000000000001, 22.080000000000002 6.720000000000001 L 22.080000000000002 6.720000000000001" fill="none" stroke="black" stroke-width="5"></path><path d="M 20.34 23.04 C 20.25 23.37, 20.295 22.965000000000003, 20.16 23.700000000000003 C 19.979999999999997 24.840000000000003, 19.889999999999997 24.990000000000002, 19.799999999999997 25.98 C 19.799999999999997 26.82, 19.574999999999996 26.895000000000003, 19.799999999999997 27.660000000000004 C 20.25 28.35, 20.235000000000003 28.485, 20.700000000000003 29.04 C 21.18 29.46, 21.045 29.430000000000003, 21.66 29.880000000000003 C 22.41 30.36, 22.5 30.449999999999996, 23.16 30.839999999999996 C 23.729999999999997 31.14, 23.685 31.215, 24.299999999999997 31.44 C 24.959999999999997 31.590000000000003, 25.169999999999998 31.62, 25.619999999999997 31.740000000000002 C 25.86 31.830000000000002, 25.919999999999998 31.830000000000005, 26.099999999999998 31.92 C 26.22 32.01, 26.129999999999995 31.889999999999993, 26.339999999999996 32.099999999999994 C 26.64 32.42999999999999, 26.745 32.504999999999995, 26.94 32.76 C 27.03 32.94, 27.075 32.955, 27.119999999999997 33.12 C 27.119999999999997 33.269999999999996, 27.119999999999997 33.255, 27.119999999999997 33.42 C 27.119999999999997 33.6, 27.239999999999995 33.63, 27.119999999999997 33.78 C 26.88 33.9, 27.119999999999997 33.839999999999996, 26.64 34.019999999999996 C 25.92 34.26, 25.800000000000004 34.305, 25.200000000000003 34.5 C 24.720000000000002 34.65, 24.645000000000003 34.665, 24.240000000000002 34.8 C 23.910000000000004 34.92, 24.12 34.739999999999995, 23.580000000000002 35.04 C 22.830000000000002 35.519999999999996, 22.785000000000004 35.505, 22.080000000000002 36 C 21.42 36.51, 21.345 36.464999999999996, 20.759999999999998 37.019999999999996 C 20.25 37.62, 20.28 37.485, 19.740000000000002 38.22 C 19.17 39.09, 19.035000000000004 39.105000000000004, 18.6 39.96 C 18.3 40.8, 18.240000000000002 40.8, 18 41.64 C 17.82 42.480000000000004, 17.775 42.54, 17.64 43.32 C 17.55 44.04, 17.505000000000003 44.205, 17.46 44.76 C 17.46 45.15, 17.46 45.345, 17.46 45.54 C 17.46 45.54, 17.46 45.54, 17.46 45.54 L 17.46 45.54" fill="none" stroke="black" stroke-width="5"></path><path d="M 14.52 32.64 C 14.879999999999999 33.06, 14.775 32.925000000000004, 15.24 33.480000000000004 C 15.809999999999999 34.17, 15.885 34.230000000000004, 16.38 34.86 C 16.799999999999997 35.43, 16.77 35.415, 17.22 36 C 17.7 36.6, 17.88 36.78, 18.18 37.2 C 18.299999999999997 37.44, 18.284999999999997 37.395, 18.419999999999998 37.68 C 18.57 38.01, 18.645 38.175, 18.72 38.339999999999996 C 18.72 38.339999999999996, 18.72 38.339999999999996, 18.72 38.339999999999996 C 18.72 38.339999999999996, 18.72 38.339999999999996, 18.72 38.339999999999996 C 18.72 38.339999999999996, 18.72 38.339999999999996, 18.72 38.339999999999996 L 18.72 38.339999999999996" fill="none" stroke="black" stroke-width="5"></path></svg>