<svg xmlns="http://www.w3.org/2000/svg" viewBox="12.800000190734863 4.159999847412109 23.47999858856201 43.63999938964844" width="23.47999858856201" height="43.63999938964844"><path d="M 15 30.240000000000002 C 14.7 27.93, 14.7 28.259999999999998, 14.399999999999999 25.619999999999997 C 14.099999999999998 22.65, 13.874999999999998 22.724999999999998, 13.799999999999999 19.68 C 13.95 16.560000000000002, 13.8 15.645000000000001, 14.100000000000001 13.440000000000001 C 14.55 12.15, 14.655000000000001 11.655, 15 10.86 C 15.24 10.559999999999999, 15.120000000000001 10.53, 15.48 10.26 C 15.96 10.02, 15.885000000000002 9.855, 16.44 9.78 C 17.07 9.87, 16.845000000000002 9.405, 17.700000000000003 9.959999999999999 C 18.78 10.98, 19.095 11.205, 19.86 12 C 20.31 12.57, 20.205 12.030000000000001, 20.759999999999998 13.14 C 21.42 14.790000000000001, 21.525000000000002 14.535000000000002, 22.080000000000002 16.44 C 22.53 18.6, 22.665 19.229999999999997, 22.98 20.759999999999998 C 23.16 21.659999999999997, 23.25 22.11, 23.34 22.56 C 23.34 22.56, 23.34 22.65, 23.34 22.56 C 23.34 22.380000000000003, 23.384999999999998 22.965000000000003, 23.34 22.200000000000003 C 23.25 20.85, 23.085 20.97, 23.16 19.5 C 23.4 17.91, 23.220000000000002 17.76, 23.64 16.32 C 24.24 15.030000000000001, 24.224999999999998 14.685, 24.839999999999996 13.74 C 25.47 13.14, 25.214999999999996 13.094999999999999, 26.099999999999998 12.54 C 27.240000000000002 12.03, 27.255000000000003 11.864999999999998, 28.380000000000003 11.52 C 29.490000000000002 11.34, 29.849999999999998 11.25, 30.599999999999998 11.16 C 30.990000000000002 11.16, 31.185000000000002 11.16, 31.380000000000003 11.16 L 31.380000000000003 11.16" fill="none" stroke="black" stroke-width="5"></path><path d="M 30.839999999999996 5.16 C 30.839999999999996 6.81, 30.839999999999996 6.914999999999999, 30.839999999999996 8.459999999999999 C 30.839999999999996 9.899999999999999, 30.839999999999996 10.004999999999999, 30.839999999999996 11.34 C 30.839999999999996 12.57, 30.839999999999996 12.45, 30.839999999999996 13.799999999999999 C 30.839999999999996 15.27, 30.839999999999996 15.465000000000002, 30.839999999999996 16.740000000000002 C 30.839999999999996 17.82, 30.839999999999996 17.564999999999998, 30.839999999999996 18.9 C 30.839999999999996 20.490000000000002, 30.839999999999996 20.775000000000002, 30.839999999999996 22.080000000000002 C 30.839999999999996 23.1, 30.839999999999996 23.22, 30.839999999999996 24.119999999999997 C 30.839999999999996 24.9, 30.839999999999996 25.064999999999998, 30.839999999999996 25.68 C 30.839999999999996 26.13, 30.839999999999996 26.07, 30.839999999999996 26.58 C 30.839999999999996 27.15, 30.839999999999996 27.405, 30.839999999999996 27.72 C 30.839999999999996 27.779999999999998, 30.839999999999996 27.644999999999996, 30.839999999999996 27.839999999999996 C 30.839999999999996 28.169999999999998, 30.839999999999996 28.335, 30.839999999999996 28.5 L 30.839999999999996 28.5" fill="none" stroke="black" stroke-width="5"></path><path d="M 23.46 22.740000000000002 C 23.37 23.94, 23.235 23.655, 23.28 25.14 C 23.46 26.91, 23.295 27.165, 23.64 28.68 C 24.150000000000002 29.94, 23.955000000000005 30.120000000000005, 24.660000000000004 31.200000000000003 C 25.560000000000002 32.1, 24.825000000000003 32.265, 26.46 33 C 28.830000000000002 33.57, 29.28 33.705, 31.200000000000003 34.14 C 32.67 34.44, 33.195 34.425, 34.14 34.74 C 34.56 35.07000000000001, 34.71000000000001 35.11500000000001, 34.980000000000004 35.400000000000006 C 35.1 35.64, 35.16 35.61, 35.22 35.88 C 35.22 36.18000000000001, 35.355 36.225, 35.22 36.480000000000004 C 34.95 36.690000000000005, 35.16 36.690000000000005, 34.68 36.900000000000006 C 33.989999999999995 37.11, 34.379999999999995 37.095, 33.3 37.32 C 31.83 37.56, 31.875 37.5, 30.36 37.8 C 28.8 38.16, 28.560000000000002 38.144999999999996, 27.240000000000002 38.519999999999996 C 26.16 38.91, 26.325 38.459999999999994, 25.08 39.3 C 23.669999999999998 40.59, 23.294999999999998 40.545, 22.259999999999998 41.88 C 21.6 43.260000000000005, 21.39 43.485, 20.94 44.64 C 20.700000000000003 45.57, 20.580000000000002 45.96, 20.46 46.5 C 20.46 46.65, 20.46 46.724999999999994, 20.46 46.8 L 20.46 46.8" fill="none" stroke="black" stroke-width="5"></path><path d="M 14.100000000000001 36.36 C 14.46 36.239999999999995, 13.485 35.97, 14.82 36.12 C 17.130000000000003 36.54, 17.61 36.555, 19.44 36.96 C 20.79 37.35, 21.18 37.290000000000006, 22.14 37.74 C 22.71 38.25, 22.755000000000003 38.25, 23.28 38.76 C 23.76 39.269999999999996, 23.910000000000004 39.39, 24.240000000000002 39.78 C 24.42 40.05, 24.45 40.11, 24.599999999999998 40.32 L 24.839999999999996 40.62" fill="none" stroke="black" stroke-width="5"></path></svg>