<svg xmlns="http://www.w3.org/2000/svg" viewBox="10.679999351501465 3.5 20.686668395996094 43.400001525878906" width="20.686668395996094" height="43.400001525878906"><path d="M 13.32 45.900000000000006 C 13.29 44.97, 13.395 45.36, 13.26 44.04 C 13.02 42.33, 13.049999999999999 42.39, 12.78 40.62 C 12.48 38.79, 12.405 38.475, 12.18 36.96 C 12.03 35.760000000000005, 12 35.895, 11.879999999999999 34.56 C 11.79 33.09, 11.745 32.67, 11.7 31.619999999999997 C 11.7 30.99, 11.7 31.185, 11.7 30.36 C 11.7 29.34, 11.655 29.22, 11.7 28.32 C 11.79 27.54, 11.79 27.419999999999998, 11.879999999999999 26.759999999999998 C 11.969999999999999 26.22, 11.924999999999999 26.115, 12.059999999999999 25.68 C 12.239999999999998 25.35, 12.209999999999997 25.35, 12.419999999999998 25.02 C 12.659999999999998 24.689999999999998, 12.449999999999998 24.72, 12.899999999999999 24.36 C 13.559999999999999 23.97, 13.5 23.880000000000003, 14.22 23.580000000000002 C 15 23.37, 15.045 23.325000000000003, 15.78 23.16 C 16.47 23.04, 16.29 23.025, 17.16 22.919999999999998 C 18.21 22.83, 18.06 22.875, 19.259999999999998 22.740000000000002 C 20.61 22.560000000000002, 20.64 22.47, 21.96 22.38 C 23.25 22.38, 23.564999999999998 22.424999999999997, 24.54 22.38 C 25.2 22.29, 25.35 22.245, 25.86 22.200000000000003 C 26.22 22.200000000000003, 26.324999999999996 22.200000000000003, 26.58 22.200000000000003 C 26.73 22.200000000000003, 26.685000000000002 22.200000000000003, 26.880000000000003 22.200000000000003 C 27.12 22.200000000000003, 27.12 22.155000000000005, 27.36 22.200000000000003 C 27.599999999999998 22.29, 27.584999999999994 22.275, 27.839999999999996 22.38 C 28.11 22.5, 28.11 22.380000000000003, 28.380000000000003 22.62 C 28.650000000000002 22.98, 28.635 22.71, 28.92 23.34 C 29.22 24.240000000000002, 29.25 23.925, 29.52 25.14 C 29.759999999999998 26.67, 29.82 26.985000000000003, 30 28.200000000000003 C 30.12 29.1, 30.150000000000002 28.71, 30.240000000000002 30 C 30.3 31.68, 30.33 31.83, 30.36 33.36 C 30.36 34.739999999999995, 30.36 34.65, 30.36 36.12 C 30.36 37.68, 30.36 37.845, 30.36 39.24 C 30.36 40.47, 30.375 40.5, 30.36 41.7 C 30.33 42.870000000000005, 30.36 43.275, 30.299999999999997 44.04 C 30.209999999999997 44.4, 30.165 44.58, 30.119999999999997 44.76 C 30.119999999999997 44.76, 30.194999999999997 44.699999999999996, 30.119999999999997 44.76 L 29.82 45" fill="none" stroke="black" stroke-width="5"></path><path d="M 21.299999999999997 32.7 C 21 33.09, 20.925000000000004 32.85000000000001, 20.700000000000003 33.480000000000004 C 20.55 34.35, 20.43 34.575, 20.4 35.22 C 20.490000000000002 35.64, 20.325000000000003 35.745000000000005, 20.580000000000002 36.06 C 21 36.27, 21.134999999999998 36.375, 21.419999999999998 36.480000000000004 C 21.57 36.480000000000004, 21.57 36.720000000000006, 21.72 36.480000000000004 C 21.869999999999997 36, 21.96 36.015, 22.02 35.519999999999996 C 21.990000000000002 35.01, 22.035 34.875, 21.96 34.5 C 21.84 34.26, 21.974999999999998 34.334999999999994, 21.72 34.019999999999996 C 21.33 33.629999999999995, 21.315 33.435, 20.94 33.24 C 20.58 33.24, 20.52 33.045, 20.22 33.24 C 19.98 33.629999999999995, 19.815 33.51, 19.740000000000002 34.019999999999996 C 19.83 34.65, 19.695 34.755, 19.919999999999998 35.28 C 20.28 35.7, 20.265 35.849999999999994, 20.64 36.12 C 21.03 36.239999999999995, 21.104999999999997 36.39, 21.419999999999998 36.36 C 21.659999999999997 36.18, 21.779999999999998 36.239999999999995, 21.9 36 C 21.9 35.7, 22.034999999999997 35.685, 21.9 35.400000000000006 C 21.63 35.13, 21.765 35.025, 21.36 34.86 C 20.82 34.8, 20.685000000000002 34.77, 20.28 34.74 C 20.01 34.74, 19.875 34.74, 19.740000000000002 34.74 L 19.740000000000002 34.74" fill="none" stroke="black" stroke-width="5"></path><path d="M 21 22.740000000000002 C 20.85 22.44, 20.790000000000003 22.560000000000002, 20.700000000000003 22.14 C 20.67 21.6, 20.700000000000003 21.689999999999998, 20.64 21.06 C 20.55 20.34, 20.55 20.595, 20.46 19.62 C 20.37 18.39, 20.340000000000003 18.555, 20.28 17.16 C 20.25 15.6, 20.28 15.195, 20.22 14.04 C 20.13 13.29, 20.13 13.364999999999998, 20.04 12.54 C 19.95 11.64, 19.95 11.715, 19.86 10.74 C 19.77 9.690000000000001, 19.77 9.63, 19.68 8.64 C 19.59 7.71, 19.545 7.739999999999999, 19.5 6.779999999999999 C 19.5 5.79, 19.5 5.370000000000001, 19.5 4.800000000000001 C 19.5 4.65, 19.5 4.575, 19.5 4.5 C 19.5 4.5, 19.5 4.5, 19.5 4.5 L 19.5 4.5" fill="none" stroke="black" stroke-width="5"></path></svg>