<svg xmlns="http://www.w3.org/2000/svg" viewBox="11.286666870117188 1.2200000286102295 18.873332977294922 45.62000107765198" width="18.873332977294922" height="45.62000107765198"><path d="M 12.299999999999999 40.32 C 12.690000000000001 40.260000000000005, 12.615000000000002 40.275000000000006, 13.080000000000002 40.2 C 13.620000000000001 40.11, 13.575000000000001 40.14, 14.16 40.019999999999996 C 14.79 39.87, 14.834999999999997 39.855, 15.419999999999998 39.72 C 15.959999999999999 39.6, 15.989999999999998 39.58500000000001, 16.5 39.480000000000004 C 16.98 39.39, 16.995 39.345, 17.46 39.3 C 17.91 39.3, 18.06 39.3, 18.36 39.3 C 18.509999999999998 39.3, 18.465 39.3, 18.66 39.3 C 18.9 39.3, 18.990000000000002 39.3, 19.14 39.3 L 19.259999999999998 39.3" fill="none" stroke="black" stroke-width="5"></path><path d="M 13.14 45.839999999999996 C 12.93 45.629999999999995, 12.930000000000001 45.855000000000004, 12.72 45.42 C 12.51 44.76, 12.405 44.654999999999994, 12.299999999999999 44.099999999999994 C 12.299999999999999 43.65, 12.299999999999999 43.815, 12.299999999999999 43.2 C 12.299999999999999 42.42, 12.299999999999999 42.33, 12.299999999999999 41.64 C 12.299999999999999 41.04, 12.299999999999999 41.129999999999995, 12.299999999999999 40.44 C 12.299999999999999 39.66, 12.299999999999999 39.81, 12.299999999999999 38.88 C 12.299999999999999 37.8, 12.299999999999999 37.754999999999995, 12.299999999999999 36.72 C 12.299999999999999 35.730000000000004, 12.27 35.955, 12.299999999999999 34.74 C 12.36 33.3, 12.314999999999998 33.33, 12.419999999999998 31.86 C 12.57 30.36, 12.555 30.3, 12.72 28.86 C 12.900000000000002 27.479999999999997, 12.945000000000002 27.18, 13.080000000000002 26.099999999999998 C 13.170000000000002 25.32, 13.125 25.439999999999998, 13.26 24.54 C 13.440000000000001 23.52, 13.5 23.384999999999998, 13.620000000000001 22.5 C 13.68 21.75, 13.575000000000001 21.78, 13.74 21 C 14.01 20.189999999999998, 14.055 20.055, 14.28 19.38 C 14.46 18.839999999999996, 14.385000000000002 18.779999999999998, 14.64 18.299999999999997 C 14.969999999999999 17.88, 14.774999999999999 17.925, 15.299999999999999 17.46 C 16.02 16.950000000000003, 16.155 16.68, 16.740000000000002 16.44 C 17.19 16.47, 17.28 16.380000000000003, 17.64 16.5 C 17.91 16.71, 17.82 16.409999999999997, 18.18 16.919999999999998 C 18.630000000000003 17.729999999999997, 18.765 17.61, 19.080000000000002 18.54 C 19.26 19.59, 19.35 19.635, 19.44 20.64 C 19.44 21.6, 19.44 21.599999999999998, 19.44 22.56 C 19.44 23.52, 19.44 23.715, 19.44 24.48 C 19.44 25.049999999999997, 19.44 25.304999999999996, 19.44 25.619999999999997 C 19.44 25.68, 19.44 25.71, 19.44 25.740000000000002 C 19.44 25.740000000000002, 19.470000000000002 25.89, 19.44 25.740000000000002 C 19.380000000000003 25.44, 19.35 25.815, 19.32 25.14 C 19.32 24.09, 19.275 24.18, 19.32 23.04 C 19.41 21.810000000000002, 19.365000000000002 21.585, 19.5 20.580000000000002 C 19.68 19.8, 19.634999999999998 19.74, 19.86 19.02 C 20.13 18.36, 20.115 18.240000000000002, 20.4 17.700000000000003 C 20.7 17.28, 20.595 17.295, 21 16.86 C 21.509999999999998 16.41, 21.42 16.29, 22.02 15.96 C 22.71 15.75, 22.515 15.66, 23.4 15.54 C 24.479999999999997 15.51, 24.585 15.344999999999999, 25.56 15.48 C 26.43 15.780000000000001, 26.609999999999996 15.750000000000004, 27.299999999999997 16.080000000000002 C 27.81 16.439999999999998, 27.9 16.439999999999998, 28.32 16.799999999999997 C 28.65 17.159999999999997, 28.77 17.31, 28.98 17.52 L 29.160000000000004 17.64" fill="none" stroke="black" stroke-width="5"></path><path d="M 22.740000000000002 15.18 C 22.53 13.62, 22.485 13.454999999999998, 22.32 12.059999999999999 C 22.200000000000003 10.83, 22.185000000000002 10.785, 22.080000000000002 9.600000000000001 C 21.990000000000002 8.46, 21.99 8.31, 21.9 7.32 C 21.81 6.48, 21.765 6.225, 21.72 5.64 C 21.72 5.31, 21.72 5.369999999999999, 21.72 4.9799999999999995 C 21.72 4.529999999999999, 21.72 4.5, 21.72 4.08 C 21.72 3.6900000000000004, 21.72 3.6900000000000004, 21.72 3.3000000000000003 C 21.72 2.91, 21.72 2.745, 21.72 2.52 C 21.72 2.46, 21.72 2.43, 21.72 2.4000000000000004 C 21.72 2.4000000000000004, 21.72 2.4000000000000004, 21.72 2.4000000000000004 C 21.72 2.4000000000000004, 21.72 2.4000000000000004, 21.72 2.4000000000000004 C 21.72 2.4000000000000004, 21.72 2.4000000000000004, 21.72 2.4000000000000004 C 21.72 2.4000000000000004, 21.72 2.4450000000000003, 21.72 2.4000000000000004 L 21.72 2.2199999999999998" fill="none" stroke="black" stroke-width="5"></path></svg>