<svg xmlns="http://www.w3.org/2000/svg" viewBox="9.533333778381348 2.4200000762939453 16.72666645050049 43.99999713897705" width="16.72666645050049" height="43.99999713897705"><path d="M 12.299999999999999 45.42 C 12.12 44.49, 12.135 44.715, 11.94 43.56 C 11.73 42.18, 11.82 42.765, 11.52 40.8 C 11.129999999999999 38.25, 10.98 38.13, 10.74 35.7 C 10.65 33.39, 10.605 33, 10.56 31.08 C 10.56 29.549999999999997, 10.56 29.505, 10.56 28.02 C 10.56 26.58, 10.56 26.43, 10.56 25.14 C 10.56 24, 10.56 23.925, 10.56 22.86 C 10.56 21.869999999999997, 10.56 21.615, 10.56 20.88 C 10.56 20.4, 10.5 20.43, 10.56 19.919999999999998 C 10.68 19.38, 10.635000000000002 19.29, 10.8 18.84 C 11.010000000000002 18.48, 10.860000000000001 18.48, 11.22 18.12 C 11.73 17.759999999999998, 11.790000000000001 17.625, 12.24 17.4 C 12.629999999999999 17.31, 12.584999999999999 17.265, 13.02 17.22 C 13.5 17.22, 13.635000000000002 17.145, 13.98 17.22 C 14.19 17.369999999999997, 14.099999999999998 17.235, 14.399999999999999 17.52 C 14.79 17.939999999999998, 14.82 17.82, 15.18 18.36 C 15.51 19.02, 15.555 19.005, 15.84 19.68 C 16.08 20.369999999999997, 16.05 20.235, 16.32 21.06 C 16.619999999999997 22.02, 16.68 22.095, 16.919999999999998 22.98 C 17.1 23.79, 17.145 24.044999999999998, 17.28 24.599999999999998 C 17.37 24.9, 17.415 25.05, 17.46 25.200000000000003 C 17.46 25.200000000000003, 17.505000000000003 25.410000000000004, 17.46 25.200000000000003 C 17.37 24.78, 17.325000000000003 24.9, 17.28 24.36 C 17.28 23.7, 17.325000000000003 23.835, 17.28 23.04 C 17.19 22.11, 17.145000000000003 22.05, 17.1 21.18 C 17.1 20.369999999999997, 17.01 20.325, 17.1 19.56 C 17.28 18.84, 17.28 18.69, 17.46 18.12 C 17.64 17.700000000000003, 17.535 17.67, 17.82 17.28 C 18.21 16.92, 18.015 16.919999999999998, 18.6 16.56 C 19.380000000000003 16.2, 19.380000000000003 16.02, 20.16 15.84 C 20.939999999999998 15.84, 20.97 15.84, 21.72 15.84 C 22.439999999999998 15.84, 22.395 15.84, 23.16 15.84 C 23.97 15.84, 24.255000000000003 15.809999999999999, 24.78 15.84 C 25.02 15.9, 25.14 15.93, 25.259999999999998 15.96 L 25.259999999999998 15.96" fill="none" stroke="black" stroke-width="5"></path><path d="M 19.44 15.120000000000001 C 19.17 14.040000000000001, 19.08 14.07, 18.9 12.96 C 18.81 11.82, 18.81 11.715, 18.72 10.68 C 18.63 9.75, 18.585 10.035, 18.54 8.82 C 18.54 7.32, 18.585 6.855, 18.54 5.82 C 18.45 5.25, 18.45 5.175, 18.36 4.68 C 18.27 4.26, 18.225 4.154999999999999, 18.18 3.84 C 18.18 3.63, 18.18 3.525, 18.18 3.42 C 18.18 3.42, 18.18 3.42, 18.18 3.42 L 18.18 3.42" fill="none" stroke="black" stroke-width="5"></path><path d="M 20.580000000000002 30.54 C 19.71 30.990000000000002, 19.575 30.645000000000003, 18.84 31.44 C 18.240000000000002 32.58, 18.105 32.714999999999996, 17.64 33.72 C 17.310000000000002 34.59, 17.145 34.56, 16.98 35.46 C 16.98 36.39, 16.98 36.525, 16.98 37.32 C 16.98 37.980000000000004, 16.89 37.95, 16.98 38.64 C 17.16 39.36, 17.04 39.465, 17.34 40.08 C 17.759999999999998 40.589999999999996, 17.655 40.69499999999999, 18.18 41.099999999999994 C 18.810000000000002 41.4, 18.885 41.505, 19.44 41.7 C 19.92 41.790000000000006, 19.83 41.865, 20.4 41.88 C 21.06 41.82, 21.15 41.985, 21.72 41.76 C 22.2 41.370000000000005, 22.29 41.505, 22.68 40.980000000000004 C 22.98 40.32000000000001, 23.025 40.30500000000001, 23.28 39.660000000000004 C 23.490000000000002 39.03, 23.550000000000004 39.01500000000001, 23.700000000000003 38.400000000000006 C 23.79 37.800000000000004, 23.835 37.935, 23.88 37.2 C 23.88 36.33, 23.895 36.33, 23.88 35.46 C 23.85 34.59, 23.955 34.53, 23.82 33.72 C 23.58 32.97, 23.595 32.76, 23.34 32.22 C 23.07 31.89, 23.099999999999998 31.875, 22.799999999999997 31.56 C 22.47 31.259999999999998, 22.47 31.200000000000003, 22.14 30.96 C 21.810000000000002 30.78, 21.84 30.689999999999998, 21.48 30.599999999999998 C 21.090000000000003 30.599999999999998, 21.075000000000003 30.599999999999998, 20.700000000000003 30.599999999999998 C 20.340000000000003 30.599999999999998, 20.310000000000002 30.525, 19.98 30.599999999999998 C 19.68 30.75, 19.53 30.825000000000003, 19.38 30.900000000000002 L 19.38 30.900000000000002" fill="none" stroke="black" stroke-width="5"></path><path d="M 17.28 36.96 C 17.97 36.989999999999995, 17.76 37.05, 18.66 37.019999999999996 C 19.77 36.92999999999999, 20.099999999999998 36.885, 20.88 36.839999999999996 C 21.33 36.839999999999996, 21.405 36.839999999999996, 21.78 36.839999999999996 C 22.08 36.839999999999996, 22.11 36.839999999999996, 22.38 36.839999999999996 C 22.619999999999997 36.839999999999996, 22.74 36.839999999999996, 22.86 36.839999999999996 C 22.86 36.839999999999996, 22.86 36.839999999999996, 22.86 36.839999999999996 C 22.86 36.839999999999996, 22.785 36.839999999999996, 22.86 36.839999999999996 C 23.009999999999998 36.839999999999996, 23.04 36.839999999999996, 23.16 36.839999999999996 C 23.25 36.839999999999996, 23.295 36.839999999999996, 23.34 36.839999999999996 L 23.34 36.839999999999996" fill="none" stroke="black" stroke-width="5"></path></svg>