<svg xmlns="http://www.w3.org/2000/svg" viewBox="11.231060981750488 2.5399999618530273 19.228939056396484 43.27999973297119" width="19.228939056396484" height="43.27999973297119"><path d="M 14.940000000000001 3.54 C 14.67 4.619999999999999, 14.819999999999999 3.674999999999999, 14.399999999999999 5.699999999999999 C 13.829999999999998 8.67, 13.68 9.225000000000001, 13.26 11.64 C 12.99 13.5, 12.930000000000001 13.59, 12.72 15.36 C 12.57 17.04, 12.54 17.22, 12.419999999999998 18.72 C 12.329999999999998 20.04, 12.195 20.235, 12.24 21.36 C 12.420000000000002 22.29, 12.345000000000002 22.424999999999997, 12.600000000000001 23.22 C 12.93 23.88, 12.96 23.97, 13.26 24.54 C 13.53 25.02, 13.469999999999999 25.14, 13.799999999999999 25.5 C 14.190000000000001 25.740000000000002, 14.070000000000002 25.814999999999998, 14.580000000000002 25.98 C 15.21 26.07, 15.195 26.250000000000004, 15.84 26.160000000000004 C 16.5 25.89, 16.665 26.07, 17.16 25.619999999999997 C 17.490000000000002 24.99, 17.445 25.439999999999998, 17.82 24.36 C 18.240000000000002 22.83, 18.375 22.499999999999996, 18.66 21.299999999999997 C 18.810000000000002 20.43, 18.885 19.994999999999997, 18.96 19.56 C 18.96 19.56, 18.87 19.529999999999998, 18.96 19.56 C 19.14 19.619999999999997, 19.185000000000002 19.41, 19.32 19.68 C 19.41 20.16, 19.32 20.04, 19.5 20.64 C 19.77 21.36, 19.68 21.42, 20.04 22.080000000000002 C 20.490000000000002 22.68, 20.295 22.68, 20.94 23.28 C 21.78 23.880000000000003, 21.75 24, 22.62 24.48 C 23.520000000000003 24.840000000000003, 23.46 24.930000000000003, 24.42 25.200000000000003 C 25.44 25.380000000000003, 25.59 25.515, 26.46 25.56 C 27.18 25.47, 27.345000000000002 25.515, 27.900000000000002 25.380000000000003 C 28.29 25.200000000000003, 28.29 25.17, 28.68 25.02 C 29.07 24.9, 29.265 24.84, 29.46 24.78 C 29.46 24.78, 29.46 24.78, 29.46 24.78 L 29.46 24.78" fill="none" stroke="black" stroke-width="5"></path><path d="M 19.799999999999997 15 C 19.89 14.76, 19.875 15.36, 19.98 14.52 C 20.1 13.08, 20.009999999999998 13.47, 20.22 11.64 C 20.52 9.42, 20.58 8.955, 20.82 7.199999999999999 C 21 5.91, 21.09 5.265, 21.18 4.62 L 21.18 4.62" fill="none" stroke="black" stroke-width="5"></path><path d="M 24.18 25.380000000000003 C 24.18 26.22, 24.18 25.979999999999997, 24.18 27.06 C 24.18 28.380000000000003, 24.18 28.455000000000002, 24.18 29.700000000000003 C 24.18 30.87, 24.24 30.765, 24.18 32.04 C 24.060000000000002 33.42, 24.12 33.584999999999994, 23.94 34.8 C 23.700000000000003 35.85, 23.685000000000002 36.075, 23.46 36.900000000000006 C 23.25 37.5, 23.445 37.379999999999995, 23.04 38.099999999999994 C 22.439999999999998 38.94, 22.5 38.985, 21.84 39.78 C 21.119999999999997 40.53, 21.299999999999997 40.5, 20.4 41.28 C 19.32 42.09, 19.065 42.330000000000005, 18.240000000000002 42.900000000000006 C 17.67 43.230000000000004, 17.715000000000003 43.230000000000004, 17.1 43.56 C 16.44 43.89, 16.365 43.935, 15.78 44.22 C 15.27 44.46, 15.045 44.550000000000004, 14.76 44.7 C 14.7 44.760000000000005, 14.67 44.79, 14.64 44.82 L 14.64 44.82" fill="none" stroke="black" stroke-width="5"></path></svg>