<svg xmlns="http://www.w3.org/2000/svg" viewBox="10.039999961853027 2.9600000381469727 21.533333778381348 40.53999948501587" width="21.533333778381348" height="40.53999948501587"><path d="M 11.040000000000001 31.92 C 11.4 31.98, 11.265 32.01, 11.76 32.04 C 12.39 32.04, 12.254999999999999 32.085, 13.02 32.04 C 13.92 31.95, 14.04 32.04, 14.82 31.86 C 15.48 31.59, 15.42 31.77, 16.14 31.32 C 16.92 30.689999999999998, 16.995000000000005 30.779999999999998, 17.700000000000003 30.06 C 18.330000000000002 29.25, 18.330000000000002 29.445, 18.96 28.44 C 19.59 27.240000000000002, 19.755 27.15, 20.22 26.04 C 20.52 25.02, 20.67 24.689999999999998, 20.82 24 C 20.82 23.64, 20.82 23.46, 20.82 23.28 C 20.82 23.28, 20.82 23.28, 20.82 23.28 C 20.82 23.28, 20.82 23.19, 20.82 23.28 C 20.82 23.46, 20.94 22.92, 20.82 23.64 C 20.58 24.900000000000002, 20.475 25.230000000000004, 20.34 26.160000000000004 C 20.310000000000002 26.76, 20.295 26.73, 20.28 27.36 C 20.28 28.02, 20.19 28.11, 20.28 28.68 C 20.46 29.16, 20.265 29.235, 20.64 29.64 C 21.21 29.97, 21.150000000000002 30.029999999999998, 21.78 30.299999999999997 C 22.47 30.509999999999998, 21.945 30.615, 23.16 30.72 C 24.9 30.72, 25.11 30.72, 26.64 30.72 C 27.96 30.72, 28.35 30.794999999999998, 29.28 30.72 C 29.82 30.57, 30.09 30.495, 30.36 30.42 C 30.36 30.42, 30.36 30.42, 30.36 30.42 L 30.36 30.42" fill="none" stroke="black" stroke-width="5"></path><path d="M 12.48 38.82 C 12.870000000000001 39.72, 12.705 39.885, 13.26 40.62 C 13.98 41.19, 13.83 41.37, 14.700000000000001 41.76 C 15.720000000000002 41.97, 15.555000000000001 42.015, 16.740000000000002 42.18 C 18.090000000000003 42.3, 18.075000000000003 42.36, 19.44 42.42 C 20.82 42.42, 20.715000000000003 42.6, 22.200000000000003 42.42 C 23.790000000000003 42.06, 24.165000000000003 42.255, 25.380000000000003 41.7 C 26.22 40.95, 26.49 40.830000000000005, 27.06 40.2 C 27.36 39.69, 27.375000000000004 39.84, 27.660000000000004 39.18 C 27.930000000000003 38.370000000000005, 27.915000000000006 38.400000000000006, 28.200000000000003 37.56 C 28.5 36.69, 28.424999999999997 36.78, 28.799999999999997 35.82 C 29.25 34.769999999999996, 29.340000000000003 34.754999999999995, 29.700000000000003 33.72 C 29.970000000000002 32.7, 30.03 32.865, 30.240000000000002 31.68 C 30.39 30.33, 30.465 30.42, 30.54 28.98 C 30.54 27.450000000000003, 30.615 27.75, 30.54 25.92 C 30.39 23.79, 30.360000000000003 23.4, 30.240000000000002 21.66 C 30.15 20.310000000000002, 30.15 20.79, 30.06 18.96 C 29.97 16.65, 29.925 16.26, 29.880000000000003 14.34 C 29.880000000000003 12.809999999999999, 29.925000000000004 12.854999999999999, 29.880000000000003 11.28 C 29.790000000000003 9.66, 29.790000000000003 9.3, 29.700000000000003 8.040000000000001 C 29.61 7.140000000000001, 29.565 6.720000000000001, 29.52 6.24 C 29.52 6.18, 29.52 6.390000000000001, 29.52 6.12 C 29.52 5.640000000000001, 29.52 5.5200000000000005, 29.52 5.16 C 29.52 4.92, 29.52 4.8, 29.52 4.68 L 29.52 4.68" fill="none" stroke="black" stroke-width="5"></path><path d="M 21.12 3.96 C 21.12 4.98, 21.135 4.695, 21.12 6 C 21.09 7.59, 21.119999999999997 7.904999999999999, 21.06 9.18 C 20.97 10.14, 20.924999999999997 10.110000000000001, 20.88 11.100000000000001 C 20.88 12.120000000000001, 20.88 12.120000000000001, 20.88 13.14 C 20.88 14.16, 20.88 14.4, 20.88 15.18 C 20.88 15.719999999999999, 20.88 15.915, 20.88 16.259999999999998 L 20.88 16.56" fill="none" stroke="black" stroke-width="5"></path></svg>