<svg xmlns="http://www.w3.org/2000/svg" viewBox="10.819999694824219 0.8600000143051147 20.18000030517578 45.139999985694885" width="20.18000030517578" height="45.139999985694885"><path d="M 11.82 29.400000000000002 C 12.27 29.400000000000002, 12.105 29.400000000000002, 12.72 29.400000000000002 C 13.5 29.400000000000002, 13.515 29.400000000000002, 14.28 29.400000000000002 C 15.03 29.400000000000002, 15.014999999999999 29.580000000000002, 15.78 29.400000000000002 C 16.56 29.04, 16.65 29.205000000000002, 17.34 28.68 C 17.939999999999998 27.99, 18.03 28.259999999999998, 18.54 27.299999999999997 C 18.96 26.069999999999997, 19.064999999999998 25.904999999999994, 19.38 24.839999999999996 C 19.589999999999996 23.939999999999998, 19.604999999999997 23.849999999999998, 19.799999999999997 23.04 C 19.979999999999997 22.32, 20.07 21.990000000000002, 20.16 21.6 C 20.16 21.54, 20.16 21.51, 20.16 21.48 C 20.16 21.48, 20.145 21.48, 20.16 21.48 C 20.189999999999998 21.48, 20.099999999999998 21.075, 20.22 21.48 C 20.43 22.29, 20.43 22.200000000000003, 20.64 23.1 C 20.85 24.09, 20.759999999999998 24.224999999999998, 21.06 25.08 C 21.45 25.799999999999997, 21.494999999999997 25.965, 21.84 26.52 C 22.14 26.909999999999997, 21.96 26.909999999999997, 22.44 27.299999999999997 C 23.1 27.689999999999998, 23.069999999999997 27.884999999999998, 23.759999999999998 28.08 C 24.48 28.08, 24.360000000000003 28.32, 25.200000000000003 28.08 C 26.16 27.599999999999998, 26.25 27.779999999999998, 27.119999999999997 27.119999999999997 C 27.9 26.28, 28.034999999999997 26.505000000000003, 28.68 25.44 C 29.19 24.15, 29.370000000000005 24.465, 29.700000000000003 22.86 C 29.85 20.939999999999998, 29.97 21.465, 30 19.02 C 29.91 16.05, 30 15.720000000000002, 29.82 13.080000000000002 C 29.55 10.77, 29.580000000000002 10.875, 29.28 8.459999999999999 C 28.95 5.9399999999999995, 28.83 5.07, 28.619999999999997 3.42 C 28.53 2.6399999999999997, 28.485 2.25, 28.44 1.8599999999999999 L 28.44 1.8599999999999999" fill="none" stroke="black" stroke-width="5"></path><path d="M 21.18 2.94 C 20.79 4.14, 20.715 3.6749999999999994, 20.4 5.34 C 20.159999999999997 7.470000000000001, 20.04 7.980000000000001, 19.919999999999998 9.600000000000001 C 19.919999999999998 10.71, 19.919999999999998 11.025, 19.919999999999998 11.82 C 19.919999999999998 12.3, 19.919999999999998 12.239999999999998, 19.919999999999998 12.78 C 19.919999999999998 13.379999999999999, 19.919999999999998 13.605, 19.919999999999998 13.98 C 19.919999999999998 14.129999999999999, 19.919999999999998 14.16, 19.919999999999998 14.28 L 19.919999999999998 14.46" fill="none" stroke="black" stroke-width="5"></path><path d="M 23.580000000000002 28.259999999999998 C 23.4 29.22, 23.535 29.115000000000002, 23.22 30.18 C 22.77 31.349999999999998, 22.92 31.439999999999998, 22.32 32.519999999999996 C 21.57 33.51, 21.51 33.72, 20.82 34.5 C 20.189999999999998 35.07, 20.685 34.86, 19.56 35.64 C 17.939999999999998 36.629999999999995, 17.715 36.839999999999996, 16.32 37.62 C 15.15 38.19, 14.685 38.415, 13.98 38.76 L 13.5 39" fill="none" stroke="black" stroke-width="5"></path><path d="M 25.92 36.36 C 25.950000000000003 36.96, 26.175 36.825, 25.98 37.56 C 25.560000000000002 38.43, 25.65 38.43, 25.14 39.3 C 24.54 40.17, 24.765 40.11, 23.94 41.04 C 22.89 42.03, 22.8 42.224999999999994, 21.84 43.019999999999996 C 20.97 43.62, 20.700000000000003 43.83, 20.1 44.22 C 19.770000000000003 44.4, 20.07 44.385, 19.44 44.58 C 18.51 44.79, 18.090000000000003 44.894999999999996, 17.580000000000002 45 L 17.4 45" fill="none" stroke="black" stroke-width="5"></path></svg>