<svg xmlns="http://www.w3.org/2000/svg" viewBox="11.600000381469727 4.21999979019165 20.34666633605957 39.1445517539978" width="20.34666633605957" height="39.1445517539978"><path d="M 12.600000000000001 30.660000000000004 C 13.47 30.69, 13.11 30.705, 14.34 30.72 C 15.93 30.72, 15.75 30.72, 17.52 30.72 C 19.47 30.72, 19.935 30.72, 21.419999999999998 30.72 C 22.439999999999998 30.72, 22.5 30.72, 23.46 30.72 C 24.36 30.72, 24.599999999999998 30.765, 25.259999999999998 30.72 C 25.68 30.63, 25.694999999999997 30.645, 26.099999999999998 30.54 C 26.490000000000002 30.419999999999998, 26.43 30.464999999999996, 26.880000000000003 30.299999999999997 C 27.39 30.09, 27.39 30.240000000000002, 27.900000000000002 29.880000000000003 C 28.410000000000004 29.37, 28.545 29.22, 28.92 28.86 C 29.160000000000004 28.65, 29.07 28.740000000000002, 29.400000000000002 28.44 C 29.82 28.050000000000004, 29.880000000000003 28.275000000000006, 30.240000000000002 27.660000000000004 C 30.54 26.82, 30.689999999999998 27.315, 30.839999999999996 25.98 C 30.839999999999996 24.15, 30.839999999999996 24.36, 30.839999999999996 22.32 C 30.839999999999996 20.07, 31.079999999999995 20.61, 30.839999999999996 17.82 C 30.36 14.49, 30.315 13.665, 29.880000000000003 11.16 C 29.490000000000002 9.48, 29.4 9.075000000000001, 29.099999999999998 7.800000000000001 C 28.89 6.930000000000001, 28.86 6.705000000000001, 28.68 6.0600000000000005 C 28.53 5.640000000000001, 28.455000000000002 5.43, 28.380000000000003 5.22 C 28.380000000000003 5.22, 28.380000000000003 5.22, 28.380000000000003 5.22 C 28.380000000000003 5.22, 28.380000000000003 5.22, 28.380000000000003 5.22 L 28.380000000000003 5.22" fill="none" stroke="black" stroke-width="5"></path><path d="M 21.48 5.4 C 21.45 7.44, 21.479999999999997 7.23, 21.419999999999998 9.48 C 21.33 11.94, 21.285 12.344999999999999, 21.240000000000002 14.399999999999999 C 21.240000000000002 16.05, 21.240000000000002 16.410000000000004, 21.240000000000002 17.700000000000003 C 21.240000000000002 18.630000000000003, 21.240000000000002 18.45, 21.240000000000002 19.56 C 21.240000000000002 20.85, 21.240000000000002 21.21, 21.240000000000002 22.14 C 21.240000000000002 22.71, 21.240000000000002 22.995, 21.240000000000002 23.28 L 21.240000000000002 23.28" fill="none" stroke="black" stroke-width="5"></path><path d="M 14.28 35.82 C 16.41 35.760000000000005, 16.814999999999998 35.775000000000006, 18.54 35.7 C 19.86 35.61, 19.56 35.64, 21.18 35.519999999999996 C 23.1 35.37, 23.445 35.325, 25.02 35.22 C 26.25 35.16, 26.46 35.129999999999995, 27.48 35.099999999999994 C 28.29 35.099999999999994, 28.665 35.099999999999994, 29.099999999999998 35.099999999999994 L 29.22 35.099999999999994" fill="none" stroke="black" stroke-width="5"></path><path d="M 13.74 42.36 C 15.030000000000001 42.33, 14.58 42.419999999999995, 16.32 42.3 C 18.51 42.09, 18.675000000000004 41.985, 20.700000000000003 41.88 C 22.560000000000002 41.88, 22.665000000000003 41.88, 24.42 41.88 C 26.07 41.88, 26.354999999999997 41.88, 27.72 41.88 C 28.8 41.88, 29.160000000000004 41.88, 29.880000000000003 41.88 L 30.599999999999998 41.88" fill="none" stroke="black" stroke-width="5"></path></svg>