<svg xmlns="http://www.w3.org/2000/svg" viewBox="10.139999389648438 0.7999999523162842 22.18666648864746 42.85999894142151" width="22.18666648864746" height="42.85999894142151"><path d="M 12.299999999999999 42.12 C 11.879999999999999 38.129999999999995, 11.7 37.815, 11.459999999999999 34.14 C 11.399999999999999 30.78, 11.415 29.61, 11.34 27.42 C 11.25 26.400000000000002, 11.205 26.385000000000005, 11.16 25.380000000000003 C 11.16 24.39, 11.16 24.285, 11.16 23.4 C 11.16 22.619999999999997, 11.16 22.47, 11.16 21.84 C 11.16 21.36, 11.115 21.345, 11.16 20.88 C 11.25 20.43, 11.265 20.490000000000002, 11.34 19.98 C 11.399999999999999 19.41, 11.384999999999998 19.275, 11.459999999999999 18.84 C 11.55 18.54, 11.58 18.555, 11.64 18.240000000000002 C 11.67 17.910000000000004, 11.655 17.775000000000002, 11.7 17.580000000000002 C 11.76 17.520000000000003, 11.775 17.535, 11.82 17.46 C 11.85 17.37, 11.82 17.415000000000003, 11.879999999999999 17.28 C 11.969999999999999 17.1, 11.79 17.174999999999997, 12.059999999999999 16.919999999999998 C 12.51 16.589999999999996, 12.345 16.589999999999996, 12.96 16.259999999999998 C 13.74 15.93, 13.754999999999999 15.825000000000001, 14.52 15.600000000000001 C 15.27 15.48, 14.969999999999999 15.51, 16.02 15.36 C 17.369999999999997 15.18, 17.25 15.21, 18.72 15 C 20.31 14.76, 20.534999999999997 14.7, 21.9 14.52 C 23.04 14.399999999999999, 23.34 14.34, 24.18 14.28 C 24.72 14.28, 24.72 14.28, 25.259999999999998 14.28 C 25.799999999999997 14.28, 25.949999999999996 14.28, 26.339999999999996 14.28 C 26.58 14.28, 26.58 14.219999999999999, 26.82 14.28 C 27.06 14.399999999999999, 26.97 14.265, 27.299999999999997 14.52 C 27.72 14.91, 27.705 14.895, 28.14 15.299999999999999 C 28.59 15.719999999999999, 28.65 15.555, 29.04 16.14 C 29.37 16.89, 29.265 16.335, 29.700000000000003 17.64 C 30.240000000000002 19.5, 30.450000000000003 19.755, 30.78 21.36 C 30.9 22.71, 30.884999999999998 22.845, 31.02 24.06 C 31.17 25.14, 31.245 24.974999999999998, 31.32 26.22 C 31.32 27.63, 31.32 27.555, 31.32 29.04 C 31.32 30.6, 31.335 30.78, 31.32 32.160000000000004 C 31.29 33.36, 31.305 33.6, 31.259999999999998 34.56 C 31.2 35.28, 31.335 35.055, 31.14 36 C 30.810000000000002 37.17, 30.78 37.379999999999995, 30.48 38.339999999999996 C 30.21 39.089999999999996, 30.255000000000003 39.13499999999999, 29.94 39.839999999999996 C 29.58 40.5, 29.564999999999998 40.650000000000006, 29.22 41.160000000000004 C 28.89 41.52, 29.009999999999998 41.565000000000005, 28.56 41.88 C 27.990000000000002 42.150000000000006, 27.975 42.24, 27.42 42.42 C 26.88 42.51, 26.849999999999994 42.55499999999999, 26.339999999999996 42.599999999999994 C 25.86 42.599999999999994, 25.755000000000003 42.73499999999999, 25.380000000000003 42.599999999999994 C 25.11 42.33, 25.244999999999997 42.6, 24.839999999999996 42.06 C 24.299999999999997 41.25, 24.179999999999996 41.325, 23.759999999999998 40.44 C 23.46 39.48, 23.415 39.48, 23.16 38.519999999999996 C 22.950000000000003 37.559999999999995, 22.965000000000003 37.574999999999996, 22.740000000000002 36.599999999999994 C 22.5 35.61, 22.424999999999997 35.81999999999999, 22.259999999999998 34.62 C 22.17 33.209999999999994, 22.125 33.15, 22.080000000000002 31.799999999999997 C 22.080000000000002 30.509999999999998, 22.080000000000002 29.865, 22.080000000000002 29.22 C 22.080000000000002 29.22, 22.080000000000002 29.22, 22.080000000000002 29.22 L 22.080000000000002 29.22" fill="none" stroke="black" stroke-width="5"></path><path d="M 19.44 15.18 C 19.44 14.85, 19.44 15.21, 19.44 14.52 C 19.44 13.469999999999999, 19.44 13.379999999999999, 19.44 12.419999999999998 C 19.44 11.549999999999999, 19.5 11.91, 19.44 10.68 C 19.32 9.09, 19.305000000000003 8.865, 19.200000000000003 7.5 C 19.11 6.359999999999999, 19.11 6.255, 19.02 5.22 C 18.93 4.29, 18.884999999999998 3.9450000000000003, 18.84 3.3600000000000003 C 18.84 3.12, 18.84 3.225, 18.84 2.88 C 18.84 2.4299999999999997, 18.855 2.25, 18.84 1.98 C 18.810000000000002 1.89, 18.795 1.8449999999999998, 18.78 1.7999999999999998 L 18.78 1.7999999999999998" fill="none" stroke="black" stroke-width="5"></path></svg>