<svg xmlns="http://www.w3.org/2000/svg" viewBox="12.020000457763672 2.5399999618530273 25.939997673034668 40.399999141693115" width="25.939997673034668" height="40.399999141693115"><path d="M 13.620000000000001 3.54 C 13.5 5.43, 13.44 5.4, 13.379999999999999 7.32 C 13.379999999999999 9.27, 13.334999999999999 9.195, 13.379999999999999 11.22 C 13.469999999999999 13.32, 13.454999999999998 13.844999999999999, 13.559999999999999 15.419999999999998 C 13.68 16.47, 13.529999999999998 16.68, 13.799999999999999 17.52 C 14.219999999999999 18.15, 13.950000000000001 18.255000000000003, 14.64 18.78 C 15.6 19.200000000000003, 15.419999999999998 19.245, 16.56 19.62 C 17.880000000000003 19.950000000000003, 17.865000000000002 20.07, 19.200000000000003 20.28 C 20.55 20.37, 20.145 20.415, 21.9 20.46 C 24.06 20.46, 24.195 20.565, 26.22 20.46 C 28.11 20.25, 28.17 20.294999999999998, 30 20.04 C 31.77 19.740000000000002, 32.235 19.635, 33.54 19.44 C 34.379999999999995 19.35, 34.44 19.305, 35.22 19.259999999999998 C 35.94 19.259999999999998, 36.225 19.259999999999998, 36.660000000000004 19.259999999999998 L 36.96 19.259999999999998" fill="none" stroke="black" stroke-width="5"></path><path d="M 23.22 5.64 C 22.98 6.66, 22.980000000000004 6.24, 22.740000000000002 7.68 C 22.5 9.54, 22.38 9.899999999999999, 22.259999999999998 11.399999999999999 C 22.259999999999998 12.54, 22.259999999999998 12.33, 22.259999999999998 13.68 C 22.259999999999998 15.239999999999998, 22.08 15.164999999999997, 22.259999999999998 16.799999999999997 C 22.619999999999997 18.509999999999998, 22.485 18.674999999999997, 22.98 20.22 C 23.61 21.6, 23.715000000000003 22.02, 24.240000000000002 22.98 C 24.66 23.52, 24.57 23.549999999999997, 25.08 24.06 C 25.68 24.54, 25.575 24.75, 26.28 25.02 C 27.090000000000003 25.08, 26.865000000000002 25.065, 27.900000000000002 25.14 C 29.160000000000004 25.23, 28.950000000000003 25.23, 30.42 25.32 C 32.1 25.41, 32.550000000000004 25.365000000000002, 33.78 25.5 C 34.56 25.68, 34.739999999999995 25.68, 35.339999999999996 25.86 C 35.76 26.04, 35.94 26.084999999999997, 36.18 26.22 C 36.239999999999995 26.310000000000002, 36.135 26.235, 36.3 26.400000000000002 C 36.56999999999999 26.64, 36.69 26.685000000000002, 36.839999999999996 26.880000000000003 C 36.870000000000005 27.03, 36.885000000000005 27.015, 36.900000000000006 27.18 C 36.900000000000006 27.36, 37.02000000000001 27.36, 36.900000000000006 27.54 C 36.660000000000004 27.72, 36.825 27.705000000000002, 36.42 27.900000000000002 C 35.85 28.11, 35.955 28.125, 35.28 28.32 C 34.5 28.5, 34.95 28.38, 33.72 28.68 C 32.04 29.1, 31.799999999999997 29.055, 30.36 29.52 C 29.16 30.03, 29.295 29.849999999999998, 27.96 30.54 C 26.490000000000002 31.41, 26.34 31.395000000000003, 25.02 32.28 C 23.85 33.18, 23.564999999999998 33.239999999999995, 22.68 34.08 C 22.08 34.86, 22.02 34.635000000000005, 21.48 35.64 C 21 36.87, 20.91 36.839999999999996, 20.52 38.099999999999994 C 20.22 39.39, 20.07 39.765, 19.919999999999998 40.68 C 19.919999999999998 41.22, 19.919999999999998 41.489999999999995, 19.919999999999998 41.76 C 19.919999999999998 41.76, 19.919999999999998 41.76, 19.919999999999998 41.76 C 19.919999999999998 41.76, 19.935 41.714999999999996, 19.919999999999998 41.76 L 19.86 41.94" fill="none" stroke="black" stroke-width="5"></path><path d="M 13.02 26.28 C 13.26 26.31, 13.02 26.054999999999996, 13.5 26.339999999999996 C 14.22 26.88, 14.190000000000001 26.805, 14.940000000000001 27.42 C 15.72 28.11, 15.645 28.08, 16.5 28.799999999999997 C 17.43 29.549999999999997, 17.564999999999998 29.639999999999997, 18.36 30.299999999999997 C 19.02 30.869999999999997, 19.05 30.855, 19.68 31.44 C 20.28 32.04, 20.4 32.160000000000004, 20.88 32.64 C 21.240000000000002 33, 21.3 33.06, 21.6 33.36 C 21.840000000000003 33.599999999999994, 21.96 33.72, 22.080000000000002 33.839999999999996 C 22.080000000000002 33.839999999999996, 22.080000000000002 33.839999999999996, 22.080000000000002 33.839999999999996 C 22.080000000000002 33.839999999999996, 22.080000000000002 33.839999999999996, 22.080000000000002 33.839999999999996 L 22.080000000000002 33.839999999999996" fill="none" stroke="black" stroke-width="5"></path></svg>