<svg xmlns="http://www.w3.org/2000/svg" viewBox="12.800000190734863 3.8000001907348633 18.7933349609375 41.91333293914795" width="18.7933349609375" height="41.91333293914795"><path d="M 13.799999999999999 28.08 C 14.82 28.11, 14.594999999999999 28.125, 15.84 28.14 C 17.310000000000002 28.14, 17.64 28.14, 18.78 28.14 C 19.59 28.14, 19.83 28.2, 20.4 28.14 C 20.729999999999997 28.020000000000003, 20.564999999999998 28.335, 21.06 27.900000000000002 C 21.72 27.150000000000002, 21.884999999999998 27.255000000000003, 22.38 26.400000000000002 C 22.71 25.44, 22.785 25.545, 23.04 24.48 C 23.22 23.310000000000002, 23.264999999999997 22.95, 23.4 22.14 C 23.490000000000002 21.69, 23.535 21.585, 23.580000000000002 21.240000000000002 C 23.580000000000002 21, 23.580000000000002 20.88, 23.580000000000002 20.759999999999998 C 23.580000000000002 20.759999999999998, 23.55 20.595, 23.580000000000002 20.759999999999998 C 23.64 21.089999999999996, 23.565000000000005 20.49, 23.700000000000003 21.419999999999998 C 23.91 22.95, 23.909999999999997 23.265, 24.119999999999997 24.48 C 24.33 25.380000000000003, 24.24 25.53, 24.54 26.28 C 24.93 26.880000000000003, 24.75 27.12, 25.32 27.48 C 26.07 27.6, 26.1 27.794999999999998, 26.82 27.72 C 27.51 27.45, 27.570000000000004 27.615, 28.200000000000003 27.18 C 28.77 26.58, 28.799999999999997 26.835, 29.339999999999996 25.98 C 29.849999999999998 24.869999999999997, 30.06 24.99, 30.36 23.759999999999998 C 30.45 22.409999999999997, 30.494999999999997 22.604999999999997, 30.54 21.06 C 30.54 19.32, 30.54 19.155, 30.54 17.580000000000002 C 30.54 16.17, 30.66 16.44, 30.54 14.76 C 30.299999999999997 12.809999999999999, 30.39 12.555, 30.06 10.86 C 29.64 9.42, 29.58 9.075, 29.22 7.98 C 28.919999999999998 7.23, 28.799999999999997 6.9, 28.619999999999997 6.48 C 28.56 6.390000000000001, 28.604999999999997 6.4350000000000005, 28.5 6.300000000000001 C 28.35 6.12, 28.380000000000003 6.225, 28.200000000000003 5.9399999999999995 C 27.990000000000002 5.55, 27.915 5.4, 27.78 5.16 C 27.720000000000002 5.07, 27.705000000000005 5.069999999999999, 27.660000000000004 4.9799999999999995 C 27.630000000000003 4.890000000000001, 27.615 4.845000000000001, 27.599999999999998 4.800000000000001 L 27.599999999999998 4.800000000000001" fill="none" stroke="black" stroke-width="5"></path><path d="M 21.66 5.699999999999999 C 21.66 6.96, 21.66 7.050000000000001, 21.66 8.22 C 21.66 9.3, 21.66 9.434999999999999, 21.66 10.379999999999999 C 21.66 11.19, 21.66 11.309999999999999, 21.66 12 C 21.66 12.57, 21.66 12.780000000000001, 21.66 13.14 C 21.66 13.290000000000001, 21.66 13.365000000000002, 21.66 13.440000000000001 C 21.66 13.440000000000001, 21.66 13.440000000000001, 21.66 13.440000000000001 L 21.66 13.440000000000001" fill="none" stroke="black" stroke-width="5"></path><path d="M 19.080000000000002 29.22 C 19.17 30.6, 19.169999999999998 30.675, 19.259999999999998 31.98 C 19.35 33.21, 19.395 33, 19.44 34.44 C 19.44 36.09, 19.44 36.315, 19.44 37.74 C 19.44 38.94, 19.395000000000003 39.18, 19.44 40.14 C 19.53 40.86, 19.53 41.055, 19.62 41.58 C 19.71 41.91, 19.679999999999996 41.79, 19.799999999999997 42.24 C 19.95 42.81, 19.995 43.02, 20.1 43.38 C 20.16 43.53, 20.085 43.47, 20.22 43.68 C 20.43 43.95, 20.46 44.025, 20.64 44.22 C 20.79 44.34, 20.82 44.385000000000005, 20.94 44.46 C 21.03 44.489999999999995, 21.03 44.474999999999994, 21.12 44.519999999999996 C 21.21 44.58, 21.224999999999998 44.61, 21.299999999999997 44.64 C 21.36 44.64, 21.284999999999997 44.805, 21.419999999999998 44.64 C 21.63 44.31, 21.63 44.385000000000005, 21.84 43.980000000000004 C 22.049999999999997 43.5, 22.034999999999997 43.709999999999994, 22.259999999999998 43.019999999999996 C 22.5 42.12, 22.365000000000002 42, 22.740000000000002 41.22 C 23.25 40.56, 23.174999999999997 40.59, 23.759999999999998 39.900000000000006 C 24.419999999999998 39.18000000000001, 24.224999999999998 39.225, 25.08 38.46 C 26.13 37.65, 26.28 37.379999999999995, 27.18 36.839999999999996 C 27.93 36.56999999999999, 28.005 36.434999999999995, 28.68 36.3 C 29.28 36.3, 29.475 36.3, 29.880000000000003 36.3 L 30.299999999999997 36.3" fill="none" stroke="black" stroke-width="5"></path></svg>