<svg xmlns="http://www.w3.org/2000/svg" viewBox="19.81999969482422 1.1600000858306885 3.200000762939453 43.220000982284546" width="3.200000762939453" height="43.220000982284546"><path d="M 21.66 2.16 C 21.54 3.15, 21.525 2.955, 21.419999999999998 4.14 C 21.33 5.52, 21.285 5.504999999999999, 21.240000000000002 6.8999999999999995 C 21.240000000000002 8.31, 21.240000000000002 8.370000000000001, 21.240000000000002 9.72 C 21.240000000000002 11.01, 21.240000000000002 10.934999999999999, 21.240000000000002 12.299999999999999 C 21.240000000000002 13.739999999999998, 21.240000000000002 13.905, 21.240000000000002 15.18 C 21.240000000000002 16.29, 21.240000000000002 16.575, 21.240000000000002 17.4 C 21.240000000000002 17.939999999999998, 21.240000000000002 18.21, 21.240000000000002 18.48 L 21.240000000000002 18.48" fill="none" stroke="black" stroke-width="5"></path><path d="M 20.82 26.82 C 20.97 27.66, 21 27.555, 21.12 28.5 C 21.21 29.549999999999997, 21.209999999999997 29.4, 21.299999999999997 30.599999999999998 C 21.39 31.949999999999996, 21.39 31.949999999999996, 21.48 33.3 C 21.57 34.65, 21.615000000000002 34.515, 21.66 36 C 21.66 37.620000000000005, 21.615000000000002 37.92, 21.66 39.24 C 21.75 40.260000000000005, 21.795 40.485, 21.84 41.28 C 21.84 41.85, 21.795 41.94, 21.84 42.42 C 21.93 42.81, 21.975 42.96, 22.02 43.2 C 22.02 43.290000000000006, 22.02 43.335, 22.02 43.38 C 22.02 43.38, 22.02 43.38, 22.02 43.38 L 22.02 43.38" fill="none" stroke="black" stroke-width="5"></path></svg>