<svg xmlns="http://www.w3.org/2000/svg" viewBox="6.980000019073486 8.899999618530273 20.08806610107422 34.86000061035156" width="20.08806610107422" height="34.86000061035156"><path d="M 7.98 42.42 C 8.790000000000001 42.42, 8.130000000000003 42.42, 9.600000000000001 42.42 C 11.73 42.42, 12.239999999999998 42.375, 13.86 42.42 C 14.97 42.51, 14.895000000000001 42.55499999999999, 16.080000000000002 42.599999999999994 C 17.340000000000003 42.599999999999994, 17.310000000000002 42.599999999999994, 18.6 42.599999999999994 C 19.92 42.599999999999994, 20.115000000000002 42.599999999999994, 21.240000000000002 42.599999999999994 C 22.17 42.599999999999994, 22.44 42.599999999999994, 23.1 42.599999999999994 C 23.490000000000002 42.599999999999994, 23.325 42.959999999999994, 23.88 42.599999999999994 C 24.6 41.879999999999995, 24.81 42.18000000000001, 25.32 41.160000000000004 C 25.62 39.84, 25.740000000000002 39.885, 25.92 38.519999999999996 C 25.98 37.11, 26.13 37.395, 26.04 35.7 C 25.799999999999997 33.72, 25.814999999999998 33.735, 25.56 31.740000000000002 C 25.29 29.73, 25.365 29.85, 25.02 27.72 C 24.6 25.47, 24.585 25.695, 24.18 23.22 C 23.79 20.52, 23.715 20.07, 23.4 17.82 C 23.159999999999997 16.02, 23.099999999999998 15.39, 22.919999999999998 14.22 C 22.799999999999997 13.68, 22.875 13.815000000000001, 22.68 13.14 C 22.41 12.33, 22.35 12.24, 22.14 11.52 C 21.990000000000002 10.89, 21.96 10.665, 21.84 10.26 C 21.75 10.079999999999998, 21.705 9.989999999999998, 21.66 9.899999999999999 C 21.66 9.899999999999999, 21.66 9.899999999999999, 21.66 9.899999999999999 L 21.66 9.899999999999999" fill="none" stroke="black" stroke-width="5"></path><path d="M 14.940000000000001 10.92 C 14.940000000000001 11.73, 15.060000000000002 10.889999999999999, 14.940000000000001 12.54 C 14.700000000000001 15.03, 14.700000000000001 14.955, 14.46 17.52 C 14.22 20.159999999999997, 14.205000000000002 19.874999999999996, 13.98 22.799999999999997 C 13.77 26.009999999999998, 13.665 26.939999999999998, 13.559999999999999 29.22 C 13.559999999999999 30.57, 13.559999999999999 31.245, 13.559999999999999 31.92 L 13.559999999999999 31.92" fill="none" stroke="black" stroke-width="5"></path></svg>