<svg xmlns="http://www.w3.org/2000/svg" viewBox="7.313333511352539 4.753333568572998 28.011220932006836 42.53333282470703" width="28.011220932006836" height="42.53333282470703"><path d="M 9.06 35.58 C 10.440000000000001 34.92, 10.530000000000001 34.709999999999994, 11.82 34.26 C 13.02 34.019999999999996, 13.155000000000001 33.93, 14.22 33.78 C 15.150000000000002 33.72, 15.315000000000001 33.60000000000001, 16.080000000000002 33.660000000000004 C 16.68 33.84, 16.590000000000003 33.629999999999995, 17.28 34.019999999999996 C 18.060000000000002 34.62, 18.195 34.47, 18.84 35.22 C 19.35 36.12, 19.515 36.029999999999994, 19.86 37.019999999999996 C 20.04 38.099999999999994, 20.115 38.28, 20.22 39.18 C 20.25 39.9, 20.43 39.644999999999996, 20.28 40.62 C 19.950000000000003 41.849999999999994, 20.145000000000003 42.059999999999995, 19.62 43.08 C 18.9 43.89, 19.11 44.025000000000006, 18.18 44.7 C 17.04 45.24, 16.86 45.39, 15.899999999999999 45.78 C 15.12 46.019999999999996, 14.925 46.14, 14.34 46.26 C 13.95 46.26, 13.994999999999997 46.32, 13.559999999999999 46.26 C 13.08 46.14, 13.170000000000002 46.245, 12.600000000000001 46.019999999999996 C 11.940000000000001 45.69, 11.835 45.735, 11.28 45.36 C 10.829999999999998 44.94, 10.754999999999999 45.01499999999999, 10.379999999999999 44.519999999999996 C 10.079999999999998 43.95, 10.035 43.95, 9.78 43.38 C 9.57 42.81, 9.57 43.02, 9.36 42.24 C 9.149999999999999 41.25, 9.149999999999999 41.114999999999995, 8.94 40.26 C 8.73 39.54, 8.67 39.54, 8.52 38.82 C 8.43 38.1, 8.385 38.190000000000005, 8.34 37.38 C 8.34 36.480000000000004, 8.34 36.345, 8.34 35.58 C 8.34 34.95, 8.34 35.144999999999996, 8.34 34.32 C 8.34 33.3, 8.34 33.315, 8.34 32.28 C 8.34 31.23, 8.34 31.245, 8.34 30.18 C 8.34 29.1, 8.34 28.935, 8.34 28.02 C 8.34 27.27, 8.34 27.57, 8.34 26.52 C 8.34 25.17, 8.28 25.305, 8.34 23.82 C 8.46 22.200000000000003, 8.475 22.125, 8.58 20.580000000000002 C 8.67 19.11, 8.625 18.96, 8.76 17.64 C 8.940000000000001 16.47, 9 16.185, 9.120000000000001 15.299999999999999 C 9.18 14.7, 9.165000000000001 14.745000000000001, 9.24 14.100000000000001 C 9.33 13.41, 9.285 13.485000000000001, 9.42 12.72 C 9.6 11.88, 9.614999999999998 11.745000000000001, 9.78 11.040000000000001 C 9.93 10.469999999999999, 9.975 10.29, 10.08 9.899999999999999 C 10.14 9.69, 10.155 9.705, 10.2 9.48 C 10.23 9.24, 10.155 9.285, 10.26 9 C 10.440000000000001 8.67, 10.425 8.64, 10.620000000000001 8.34 C 10.830000000000002 8.07, 10.875000000000002 8.010000000000002, 11.040000000000001 7.800000000000001 C 11.16 7.65, 11.19 7.605, 11.28 7.5 C 11.34 7.4399999999999995, 11.084999999999999 7.6049999999999995, 11.399999999999999 7.38 C 11.969999999999999 6.99, 12.044999999999998 6.9, 12.54 6.6000000000000005 C 12.959999999999999 6.390000000000001, 13.004999999999999 6.359999999999999, 13.379999999999999 6.18 C 13.709999999999999 6.029999999999999, 13.68 5.984999999999999, 14.04 5.88 C 14.43 5.82, 14.475000000000001 5.79, 14.82 5.76 C 15.12 5.76, 15.119999999999997 5.744999999999999, 15.419999999999998 5.76 C 15.719999999999999 5.79, 15.75 5.76, 16.02 5.82 C 16.259999999999998 5.91, 16.125 5.82, 16.5 6 C 17.009999999999998 6.2700000000000005, 17.085 6.270000000000001, 17.52 6.540000000000001 C 17.880000000000003 6.8100000000000005, 17.835 6.8100000000000005, 18.240000000000002 7.08 C 18.69 7.35, 18.795 7.365, 19.14 7.62 C 19.380000000000003 7.860000000000001, 19.365000000000002 7.770000000000001, 19.62 8.100000000000001 C 19.89 8.52, 19.86 8.370000000000001, 20.16 8.94 C 20.490000000000002 9.66, 20.565 9.434999999999999, 20.82 10.379999999999999 C 21 11.55, 21.045 11.625, 21.18 12.72 C 21.27 13.74, 21.314999999999998 13.514999999999999, 21.36 14.76 C 21.36 16.23, 21.39 16.290000000000003, 21.36 17.700000000000003 C 21.3 19.05, 21.3 19.29, 21.240000000000002 20.4 C 21.18 21.27, 21.150000000000002 21.675, 21.12 22.14 C 21.12 22.2, 21.075000000000003 22.08, 21.12 22.259999999999998 C 21.21 22.56, 21.134999999999998 22.634999999999998, 21.299999999999997 22.86 C 21.54 23.009999999999998, 21.495 23.085, 21.78 23.16 C 22.11 23.16, 22.05 23.16, 22.44 23.16 C 22.89 23.16, 22.89 23.16, 23.34 23.16 C 23.79 23.16, 23.745 23.16, 24.240000000000002 23.16 C 24.78 23.16, 24.705 23.16, 25.32 23.16 C 26.01 23.16, 25.875000000000004 23.13, 26.700000000000003 23.16 C 27.66 23.22, 27.81 23.145, 28.619999999999997 23.28 C 29.28 23.490000000000002, 29.235 23.295, 29.94 23.700000000000003 C 30.69 24.300000000000004, 30.75 24.270000000000003, 31.44 24.900000000000002 C 32.07 25.560000000000002, 32.160000000000004 25.349999999999998, 32.7 26.22 C 33.15 27.3, 33.239999999999995 27.330000000000002, 33.599999999999994 28.380000000000003 C 33.87 29.400000000000002, 33.96 29.115000000000002, 34.14 30.42 C 34.230000000000004 32.01, 34.29 31.994999999999997, 34.32 33.599999999999994 C 34.29 35.22, 34.379999999999995 35.00999999999999, 34.26 36.839999999999996 C 34.05 38.879999999999995, 34.004999999999995 39.45, 33.839999999999996 40.92 C 33.72 41.82, 33.68999999999999 42, 33.599999999999994 42.72 C 33.54 43.26, 33.525000000000006 43.455, 33.480000000000004 43.8 C 33.45 43.949999999999996, 33.45 43.904999999999994, 33.42 44.099999999999994 C 33.39 44.339999999999996, 33.375 44.459999999999994, 33.36 44.58 C 33.36 44.58, 33.45 44.55, 33.36 44.58 L 33 44.7" fill="none" stroke="black" stroke-width="5"></path><path d="M 27.240000000000002 22.740000000000002 C 27.240000000000002 22.740000000000002, 27.090000000000003 22.860000000000003, 27.240000000000002 22.740000000000002 C 27.54 22.5, 27.629999999999995 22.845, 27.839999999999996 22.259999999999998 C 27.959999999999997 21.33, 28.019999999999996 21.705, 28.08 20.4 C 28.08 18.72, 28.08 18.765, 28.08 17.04 C 28.08 15.27, 28.08 15.15, 28.08 13.5 C 28.08 11.969999999999999, 28.08 11.774999999999999, 28.08 10.44 C 28.08 9.3, 28.08 9.045, 28.08 8.16 C 28.08 7.529999999999999, 28.08 7.244999999999999, 28.08 6.8999999999999995 L 28.08 6.779999999999999" fill="none" stroke="black" stroke-width="5"></path></svg>