<svg xmlns="http://www.w3.org/2000/svg" viewBox="13.619999885559082 3.9200000762939453 19.553333282470703 41.959999084472656" width="19.553333282470703" height="41.959999084472656"><path d="M 14.64 4.92 C 14.64 6.15, 14.64 5.67, 14.64 7.38 C 14.64 9.57, 14.64 9.915, 14.64 11.76 C 14.64 13.26, 14.595 13.514999999999999, 14.64 14.76 C 14.73 15.75, 14.715 16.080000000000002, 14.82 16.740000000000002 C 14.94 17.07, 14.895 17.13, 15.059999999999999 17.4 C 15.27 17.61, 14.865 17.565, 15.48 17.82 C 16.5 18.119999999999997, 16.305 18.209999999999997, 17.52 18.419999999999998 C 18.93 18.54, 18.855 18.6, 20.34 18.66 C 21.9 18.66, 21.825 18.66, 23.46 18.66 C 25.17 18.66, 25.425000000000004 18.66, 26.880000000000003 18.66 C 28.080000000000002 18.66, 28.560000000000002 18.66, 29.28 18.66 C 29.52 18.66, 29.61 18.66, 29.759999999999998 18.66 C 29.82 18.66, 29.805000000000003 18.66, 29.880000000000003 18.66 C 29.97 18.66, 29.85 18.75, 30.06 18.66 C 30.39 18.479999999999997, 30.479999999999997 18.509999999999998, 30.72 18.299999999999997 C 30.869999999999997 18.06, 30.795 18.225, 31.02 17.82 C 31.32 17.25, 31.379999999999995 17.52, 31.619999999999997 16.68 C 31.799999999999997 15.57, 31.845 15.81, 31.98 14.46 C 32.07 12.870000000000001, 32.115 13.035, 32.160000000000004 11.28 C 32.160000000000004 9.36, 32.160000000000004 8.879999999999999, 32.160000000000004 7.4399999999999995 C 32.160000000000004 6.48, 32.160000000000004 6.075, 32.160000000000004 5.5200000000000005 C 32.160000000000004 5.37, 32.190000000000005 5.355, 32.160000000000004 5.22 L 32.04 4.9799999999999995" fill="none" stroke="black" stroke-width="5"></path><path d="M 22.740000000000002 4.92 C 22.560000000000002 6.42, 22.575 6.375, 22.38 7.92 C 22.17 9.510000000000002, 22.065 9.510000000000002, 21.96 11.100000000000001 C 21.96 12.690000000000001, 21.915 12.629999999999999, 21.96 14.28 C 22.05 15.990000000000002, 21.795 16.020000000000003, 22.14 17.700000000000003 C 22.740000000000002 19.35, 22.77 19.845, 23.34 21 C 23.880000000000003 21.66, 23.685000000000002 21.509999999999998, 24.42 22.32 C 25.35 23.28, 25.26 23.370000000000005, 26.28 24.240000000000002 C 27.39 25.02, 27.57 25.244999999999997, 28.5 25.799999999999997 C 29.25 26.13, 29.384999999999998 26.175, 30 26.46 C 30.48 26.700000000000003, 30.630000000000003 26.775000000000002, 30.96 26.94 C 31.14 27.03, 31.23 27.075, 31.32 27.119999999999997 C 31.32 27.119999999999997, 31.32 27.119999999999997, 31.32 27.119999999999997 C 31.32 27.119999999999997, 31.29 27.074999999999996, 31.32 27.119999999999997 C 31.380000000000003 27.209999999999997, 31.380000000000003 27.179999999999996, 31.44 27.299999999999997 C 31.5 27.449999999999996, 31.619999999999997 27.404999999999998, 31.56 27.599999999999998 C 31.380000000000003 27.839999999999996, 31.455000000000002 27.825, 31.200000000000003 28.08 C 30.87 28.349999999999998, 31.08 28.305, 30.54 28.619999999999997 C 29.79 28.979999999999997, 29.655 29.054999999999996, 29.04 29.339999999999996 C 28.56 29.549999999999997, 28.755 29.444999999999997, 28.08 29.759999999999998 C 27.209999999999997 30.18, 27.164999999999996 30.134999999999998, 26.339999999999996 30.599999999999998 C 25.56 31.11, 25.545 31.064999999999998, 24.78 31.619999999999997 C 24.03 32.22, 23.970000000000002 32.16, 23.28 32.82 C 22.65 33.54, 22.59 33.449999999999996, 22.02 34.26 C 21.509999999999998 35.16, 21.6 35.055, 21 36.06 C 20.310000000000002 37.17, 20.175 37.2, 19.62 38.28 C 19.200000000000003 39.33, 19.065 39.24, 18.78 40.38 C 18.630000000000003 41.61, 18.555 42.03, 18.48 42.839999999999996 C 18.48 43.23, 18.375 43.14, 18.48 43.62 C 18.689999999999998 44.19, 18.765 44.44499999999999, 18.9 44.76 L 19.02 44.88" fill="none" stroke="black" stroke-width="5"></path><path d="M 17.16 27.54 C 18.12 28.62, 18.225 28.725, 19.080000000000002 29.700000000000003 C 19.830000000000002 30.57, 19.980000000000004 30.675000000000004, 20.580000000000002 31.44 C 21.03 32.1, 21.12 32.295, 21.48 32.76 C 21.75 33.03, 21.884999999999998 33.165, 22.02 33.3 C 22.02 33.3, 22.02 33.3, 22.02 33.3 L 22.02 33.3" fill="none" stroke="black" stroke-width="5"></path></svg>