<svg xmlns="http://www.w3.org/2000/svg" viewBox="8.686666488647461 0.8600000143051147 21.720001220703125 46.299999833106995" width="21.720001220703125" height="46.299999833106995"><path d="M 9.959999999999999 38.7 C 9.959999999999999 38.46, 9.344999999999999 38.655, 9.959999999999999 38.22 C 11.189999999999998 37.59, 11.264999999999997 37.41, 12.419999999999998 36.96 C 13.5 36.69, 13.605 36.555, 14.580000000000002 36.42 C 15.450000000000001 36.42, 15.675 36.39, 16.32 36.42 C 16.740000000000002 36.480000000000004, 16.725 36.33, 17.16 36.54 C 17.61 36.9, 17.7 36.675, 18.06 37.26 C 18.33 38.07, 18.42 38.07, 18.6 38.88 C 18.69 39.69, 18.78 39.63, 18.78 40.5 C 18.69 41.43, 18.795 41.595, 18.6 42.36 C 18.3 42.96, 18.42 42.93, 18 43.56 C 17.46 44.22, 17.534999999999997 44.295, 16.919999999999998 44.88 C 16.229999999999997 45.39, 16.049999999999997 45.58500000000001, 15.54 45.900000000000006 C 15.209999999999999 46.02, 15.299999999999999 46.08, 14.879999999999999 46.14 C 14.37 46.14, 14.28 46.14, 13.86 46.14 C 13.530000000000001 46.14, 13.485000000000001 46.185, 13.200000000000001 46.14 C 12.96 46.05, 13.035 46.215, 12.72 45.96 C 12.33 45.54, 12.315 45.54, 11.94 45.12 C 11.58 44.7, 11.52 44.730000000000004, 11.22 44.28 C 10.98 43.8, 10.98 43.845, 10.74 43.32 C 10.5 42.75, 10.425 42.81, 10.26 42.18 C 10.17 41.489999999999995, 10.125 41.565, 10.08 40.8 C 10.08 39.959999999999994, 10.125 39.9, 10.08 39.12 C 9.989999999999998 38.4, 9.944999999999999 38.745, 9.899999999999999 37.68 C 9.899999999999999 36.269999999999996, 9.944999999999999 36.21, 9.899999999999999 34.86 C 9.809999999999999 33.57, 9.765 33.435, 9.72 32.28 C 9.72 31.26, 9.705000000000002 31.35, 9.72 30.240000000000002 C 9.75 29.04, 9.674999999999999 28.859999999999996, 9.78 27.839999999999996 C 9.96 27, 9.9 27.195, 10.14 26.160000000000004 C 10.440000000000001 24.930000000000003, 10.38 24.990000000000002, 10.74 23.700000000000003 C 11.16 22.35, 11.1 22.245, 11.58 21 C 12.120000000000001 19.86, 12.195 19.544999999999998, 12.66 18.72 C 13.05 18.21, 12.975000000000001 18.285000000000004, 13.440000000000001 17.700000000000003 C 13.98 17.04, 14.175 16.77, 14.52 16.38 C 14.67 16.259999999999998, 14.49 16.08, 14.82 16.14 C 15.33 16.380000000000003, 15.434999999999999 16.32, 15.84 16.62 C 16.14 16.98, 16.080000000000002 16.695, 16.44 17.34 C 16.86 18.270000000000003, 16.905 18.03, 17.28 19.200000000000003 C 17.61 20.61, 17.625 20.384999999999998, 17.94 22.02 C 18.240000000000002 23.880000000000003, 18.33 24.255000000000003, 18.54 25.740000000000002 C 18.66 26.85, 18.69 27.225, 18.78 27.96 C 18.84 28.32, 18.869999999999997 28.5, 18.9 28.68 C 18.9 28.68, 18.9 28.799999999999997, 18.9 28.68 C 18.9 28.44, 18.915 28.830000000000002, 18.9 28.200000000000003 C 18.869999999999997 27.180000000000003, 18.794999999999998 27.450000000000003, 18.84 26.160000000000004 C 18.96 24.6, 18.840000000000003 24.48, 19.080000000000002 23.04 C 19.439999999999998 21.72, 19.365 21.45, 19.799999999999997 20.4 C 20.31 19.619999999999997, 20.265 19.544999999999998, 20.82 18.84 C 21.42 18.21, 21.435 17.895000000000003, 22.02 17.580000000000002 C 22.59 17.580000000000002, 22.275 17.490000000000002, 23.16 17.580000000000002 C 24.36 17.76, 24.63 17.64, 25.56 17.94 C 26.22 18.36, 26.250000000000004 18.18, 26.880000000000003 18.78 C 27.48 19.560000000000002, 27.525 19.14, 28.08 20.34 C 28.589999999999996 21.96, 28.769999999999996 21.6, 29.099999999999998 23.580000000000002 C 29.25 25.92, 29.325000000000003 25.439999999999998, 29.400000000000002 28.259999999999998 C 29.400000000000002 31.56, 29.415000000000003 31.725, 29.400000000000002 34.86 C 29.369999999999997 37.83, 29.354999999999997 38.879999999999995, 29.339999999999996 40.8 C 29.339999999999996 41.67, 29.339999999999996 41.805, 29.339999999999996 42.54 C 29.339999999999996 43.14, 29.339999999999996 43.32, 29.339999999999996 43.74 C 29.339999999999996 43.980000000000004, 29.369999999999997 44.055, 29.339999999999996 44.22 L 29.22 44.400000000000006" fill="none" stroke="black" stroke-width="5"></path><path d="M 18.78 22.68 C 18.72 22.02, 18.69 22.244999999999997, 18.66 21.36 C 18.66 20.25, 18.66 20.04, 18.66 19.14 C 18.66 18.45, 18.66 18.464999999999996, 18.66 17.759999999999998 C 18.66 17.04, 18.675 17.235, 18.66 16.32 C 18.630000000000003 15.21, 18.615000000000002 15.180000000000001, 18.6 14.100000000000001 C 18.6 13.05, 18.645000000000003 13.185, 18.6 12 C 18.509999999999998 10.68, 18.465 10.83, 18.419999999999998 9.36 C 18.419999999999998 7.74, 18.419999999999998 7.545, 18.419999999999998 6.12 C 18.419999999999998 4.890000000000001, 18.419999999999998 4.605, 18.419999999999998 3.66 C 18.419999999999998 3, 18.419999999999998 2.79, 18.419999999999998 2.34 C 18.419999999999998 2.0999999999999996, 18.419999999999998 1.98, 18.419999999999998 1.8599999999999999 C 18.419999999999998 1.8599999999999999, 18.419999999999998 1.8599999999999999, 18.419999999999998 1.8599999999999999 L 18.419999999999998 1.8599999999999999" fill="none" stroke="black" stroke-width="5"></path></svg>