<svg xmlns="http://www.w3.org/2000/svg" viewBox="3.358246326446533 4.340000152587891 22.06175422668457 39.56330871582031" width="22.06175422668457" height="39.56330871582031"><path d="M 8.64 5.34 C 8.46 6.18, 8.535 5.744999999999999, 8.28 7.02 C 7.949999999999999 8.73, 7.9350000000000005 8.489999999999998, 7.62 10.44 C 7.32 12.629999999999999, 7.26 12.629999999999999, 7.02 14.82 C 6.84 17.01, 6.87 17.430000000000003, 6.66 19.200000000000003 C 6.42 20.55, 6.42 20.354999999999997, 6.18 21.9 C 5.9399999999999995 23.64, 5.909999999999999 23.835, 5.699999999999999 25.380000000000003 C 5.52 26.73, 5.595 26.46, 5.34 28.08 C 5.01 29.97, 4.92 30.375, 4.68 31.86 C 4.529999999999999 32.94, 4.455 32.925, 4.38 34.019999999999996 C 4.38 35.129999999999995, 4.35 35.115, 4.38 36.24 C 4.4399999999999995 37.379999999999995, 4.23 37.41, 4.5 38.519999999999996 C 4.98 39.599999999999994, 5.01 39.87, 5.46 40.68 C 5.880000000000001 41.22, 5.925000000000001 41.445, 6.300000000000001 41.76 C 6.63 41.849999999999994, 6.6 41.894999999999996, 6.959999999999999 41.94 C 7.35 41.94, 7.02 42.56999999999999, 7.74 41.94 C 8.79 40.68, 8.955 40.665, 9.84 39.42 C 10.559999999999999 38.19, 10.695 38.115, 11.28 36.96 C 11.73 35.879999999999995, 11.955 35.385, 12.18 34.8 C 12.18 34.709999999999994, 12.18 34.665, 12.18 34.62 C 12.18 34.62, 12.105 34.275, 12.18 34.62 C 12.33 35.31, 12.27 35.01, 12.48 36 C 12.75 37.29, 12.69 37.455, 13.02 38.58 C 13.41 39.54, 13.409999999999998 39.66, 13.799999999999999 40.5 C 14.190000000000001 41.22, 14.175000000000002 41.415, 14.580000000000002 41.94 C 15 42.269999999999996, 14.909999999999998 42.35999999999999, 15.419999999999998 42.599999999999994 C 16.02 42.75, 15.885000000000002 42.93000000000001, 16.62 42.900000000000006 C 17.490000000000002 42.690000000000005, 17.52 42.885000000000005, 18.36 42.480000000000004 C 19.17 41.88, 19.245 42.03, 19.98 41.28 C 20.64 40.38, 20.564999999999998 40.785000000000004, 21.299999999999997 39.480000000000004 C 22.11 37.77, 22.229999999999997 38.370000000000005, 22.919999999999998 36.06 C 23.49 33.150000000000006, 23.685 33.27, 24.06 30.240000000000002 C 24.240000000000002 27.090000000000003, 24.330000000000002 26.94, 24.42 23.94 C 24.42 21.090000000000003, 24.42 20.325000000000003, 24.42 18.240000000000002 C 24.42 16.92, 24.42 17.145000000000003, 24.42 15.600000000000001 C 24.42 13.83, 24.42 13.709999999999999, 24.42 12.059999999999999 C 24.42 10.53, 24.42 9.989999999999998, 24.42 9 C 24.42 8.55, 24.42 8.595000000000002, 24.42 8.100000000000001 C 24.42 7.5600000000000005, 24.42 7.365, 24.42 7.02 C 24.42 6.87, 24.42 6.795, 24.42 6.720000000000001 C 24.42 6.720000000000001, 24.42 6.720000000000001, 24.42 6.720000000000001 L 24.42 6.720000000000001" fill="none" stroke="black" stroke-width="5"></path></svg>