<svg xmlns="http://www.w3.org/2000/svg" viewBox="13.34000015258789 4.913332939147949 18.980000495910645 37.966668128967285" width="18.980000495910645" height="37.966668128967285"><path d="M 20.46 7.199999999999999 C 19.86 7.47, 19.665 7.23, 19.259999999999998 7.74 C 19.049999999999997 8.49, 18.63 8.595, 18.84 9.24 C 19.47 9.780000000000001, 19.29 10.02, 20.1 10.32 C 21.090000000000003 10.379999999999999, 21.375000000000004 10.725, 22.080000000000002 10.44 C 22.5 9.809999999999999, 22.965 10.094999999999999, 22.919999999999998 9.18 C 22.409999999999997 7.9799999999999995, 22.319999999999997 7.529999999999999, 21.9 6.779999999999999 C 21.57 6.4799999999999995, 21.525000000000002 6.33, 21.240000000000002 6.18 C 21 6.18, 21.029999999999998 5.58, 20.759999999999998 6.18 C 20.46 7.38, 20.189999999999998 7.83, 20.16 8.58 C 20.4 8.879999999999999, 20.37 9.075, 20.64 9.18 C 20.94 9.09, 20.985000000000003 9.495000000000001, 21.240000000000002 9 C 21.450000000000003 8.1, 21.93 7.574999999999999, 21.66 7.199999999999999 C 20.91 7.35, 20.67 6.945, 20.16 7.5 L 19.62 9.42" fill="none" stroke="black" stroke-width="5"></path><path d="M 14.34 16.56 C 14.64 16.56, 14.535 16.514999999999997, 14.940000000000001 16.56 C 15.450000000000001 16.65, 15.120000000000001 16.650000000000002, 15.96 16.740000000000002 C 17.13 16.83, 16.935 16.875, 18.299999999999997 16.919999999999998 C 19.86 16.919999999999998, 19.845 16.919999999999998, 21.419999999999998 16.919999999999998 C 23.009999999999998 16.919999999999998, 23.264999999999997 16.919999999999998, 24.599999999999998 16.919999999999998 C 25.68 16.919999999999998, 26.099999999999998 16.919999999999998, 26.759999999999998 16.919999999999998 C 27 16.919999999999998, 27.045 16.919999999999998, 27.240000000000002 16.919999999999998 L 27.54 16.919999999999998" fill="none" stroke="black" stroke-width="5"></path><path d="M 15.96 33.660000000000004 C 17.79 33.660000000000004, 18.225 33.660000000000004, 19.62 33.660000000000004 C 20.58 33.660000000000004, 20.475 33.660000000000004, 21.54 33.660000000000004 C 22.71 33.660000000000004, 22.86 33.660000000000004, 23.88 33.660000000000004 C 24.75 33.660000000000004, 24.959999999999997 33.660000000000004, 25.619999999999997 33.660000000000004 C 26.07 33.660000000000004, 26.1 33.660000000000004, 26.52 33.660000000000004 C 26.909999999999997 33.660000000000004, 26.955 33.660000000000004, 27.299999999999997 33.660000000000004 C 27.6 33.660000000000004, 27.75 33.660000000000004, 27.900000000000002 33.660000000000004 L 27.900000000000002 33.660000000000004" fill="none" stroke="black" stroke-width="5"></path><path d="M 15.120000000000001 40.44 C 17.55 40.59, 17.655 40.620000000000005, 19.98 40.74 C 22.200000000000003 40.83, 22.425 40.800000000000004, 24.42 40.92 C 26.19 41.07, 26.355000000000004 41.01, 27.96 41.22 C 29.4 41.489999999999995, 29.999999999999996 41.595, 30.839999999999996 41.76 C 31.08 41.82, 31.2 41.85, 31.32 41.88 L 31.32 41.88" fill="none" stroke="black" stroke-width="5"></path></svg>