<svg xmlns="http://www.w3.org/2000/svg" viewBox="10.606666564941406 3.074216842651367 22.025447845458984 39.92578315734863" width="22.025447845458984" height="39.92578315734863"><path d="M 12.72 28.92 C 12.3 26.37, 12.149999999999999 25.995, 11.879999999999999 23.82 C 11.76 22.02, 11.7 21.735, 11.64 20.22 C 11.64 18.99, 11.565000000000001 18.705, 11.64 17.759999999999998 C 11.79 17.1, 11.73 16.98, 11.94 16.44 C 12.21 16.020000000000003, 12.06 15.855000000000002, 12.48 15.600000000000001 C 13.05 15.51, 13.05 15.344999999999999, 13.620000000000001 15.419999999999998 C 14.190000000000001 15.659999999999998, 14.265 15.614999999999998, 14.76 15.899999999999999 C 15.18 16.229999999999997, 15.135000000000002 16.049999999999997, 15.600000000000001 16.56 C 16.11 17.25, 16.125 16.905, 16.62 17.94 C 17.1 19.32, 17.205000000000002 19.485000000000003, 17.580000000000002 20.700000000000003 C 17.85 21.75, 17.925 22.049999999999997, 18.12 22.799999999999997 C 18.240000000000002 23.25, 18.3 23.475, 18.36 23.700000000000003 C 18.36 23.700000000000003, 18.36 23.925000000000004, 18.36 23.700000000000003 C 18.36 23.25, 18.255 23.699999999999996, 18.36 22.799999999999997 C 18.57 21.45, 18.6 21.165, 18.78 20.1 C 18.93 19.32, 18.810000000000002 19.305, 19.080000000000002 18.54 C 19.47 17.79, 19.47 17.61, 19.86 17.04 C 20.25 16.65, 19.995 16.529999999999998, 20.64 16.259999999999998 C 21.54 16.11, 21.240000000000002 16.035, 22.44 15.96 C 23.94 15.96, 24.255000000000003 15.96, 25.44 15.96 C 26.310000000000002 15.96, 26.4 15.96, 27.18 15.96 C 27.869999999999997 15.96, 28.14 15.96, 28.56 15.96 C 28.71 15.96, 28.665 15.96, 28.86 15.96 C 29.099999999999998 15.96, 29.174999999999997 15.96, 29.339999999999996 15.96 C 29.43 15.96, 29.474999999999998 15.96, 29.52 15.96 L 29.52 15.96" fill="none" stroke="black" stroke-width="5"></path><path d="M 17.700000000000003 4.14 C 17.43 4.65, 17.295 4.605, 17.16 5.16 C 17.16 5.76, 16.755 5.880000000000001, 17.16 6.36 C 17.97 6.720000000000001, 18.075000000000003 6.99, 18.78 7.08 C 19.380000000000003 6.9, 19.62 6.960000000000001, 19.98 6.720000000000001 C 20.1 6.42, 20.174999999999997 6.54, 20.22 6.12 C 20.189999999999998 5.58, 20.384999999999998 5.505, 20.16 5.04 C 19.740000000000002 4.65, 19.8 4.484999999999999, 19.32 4.26 C 18.78 4.199999999999999, 18.69 3.96, 18.240000000000002 4.14 C 17.880000000000003 4.56, 17.715 4.6499999999999995, 17.52 4.9799999999999995 C 17.490000000000002 5.22, 17.325000000000003 5.22, 17.46 5.46 C 17.759999999999998 5.699999999999999, 17.744999999999997 5.819999999999999, 18.06 5.9399999999999995 C 18.39 5.9399999999999995, 18.525 5.984999999999999, 18.72 5.9399999999999995 C 18.78 5.85, 18.81 5.805, 18.84 5.76 L 18.84 5.76" fill="none" stroke="black" stroke-width="5"></path><path d="M 19.14 6.48 C 19.29 6.390000000000001, 19.305 6.48, 19.44 6.300000000000001 C 19.560000000000002 6.03, 19.62 5.895, 19.68 5.76 C 19.68 5.76, 19.68 5.819999999999999, 19.68 5.76 C 19.68 5.640000000000001, 19.86 5.595000000000001, 19.68 5.5200000000000005 C 19.32 5.49, 19.23 5.3100000000000005, 18.96 5.46 C 18.78 5.79, 18.69 5.955, 18.6 6.12 C 18.6 6.12, 18.6 6.12, 18.6 6.12 C 18.6 6.12, 18.6 6.12, 18.6 6.12 L 18.6 6.12" fill="none" stroke="black" stroke-width="5"></path><path d="M 15.120000000000001 11.459999999999999 C 16.71 11.34, 16.814999999999998 11.280000000000001, 18.299999999999997 11.22 C 19.68 11.22, 19.83 11.22, 21.06 11.22 C 22.14 11.22, 22.455 11.22, 23.22 11.22 C 23.669999999999998 11.22, 23.894999999999996 11.22, 24.119999999999997 11.22 L 24.119999999999997 11.22" fill="none" stroke="black" stroke-width="5"></path><path d="M 22.98 16.38 C 22.89 16.83, 22.919999999999998 16.5, 22.799999999999997 17.28 C 22.65 18.39, 22.439999999999998 18.255000000000003, 22.5 19.5 C 22.77 20.88, 22.665 20.805, 23.04 22.259999999999998 C 23.52 23.79, 23.490000000000002 23.939999999999998, 24 25.32 C 24.54 26.55, 24.224999999999998 26.55, 25.08 27.78 C 26.25 29.01, 26.385 29.490000000000002, 27.42 30.240000000000002 C 28.32 30.51, 28.275 30.6, 29.22 30.78 C 30.21 30.87, 30.630000000000003 30.900000000000002, 31.200000000000003 30.96 C 31.35 30.990000000000002, 31.425 31.005, 31.5 31.02 C 31.5 31.02, 31.5 31.02, 31.5 31.02 C 31.5 31.02, 31.485 30.96, 31.5 31.02 C 31.53 31.14, 31.74 31.11, 31.56 31.259999999999998 C 31.17 31.439999999999998, 31.215 31.47, 30.78 31.619999999999997 C 30.3 31.74, 30.435000000000002 31.799999999999997, 29.82 31.86 C 29.07 31.86, 29.265 31.77, 28.32 31.86 C 27.18 32.04, 27.195 31.919999999999998, 26.04 32.22 C 24.87 32.64, 24.630000000000003 32.715, 23.700000000000003 33.06 C 23.01 33.33, 23.19 33.224999999999994, 22.32 33.599999999999994 C 21.27 34.08, 21.15 33.945, 20.22 34.56 C 19.41 35.31, 19.245 35.1, 18.6 36.06 C 18.12 37.230000000000004, 17.97 37.33500000000001, 17.64 38.400000000000006 C 17.46 39.36, 17.415 39.6, 17.28 40.32 C 17.19 40.8, 17.145000000000003 40.86, 17.1 41.28 C 17.1 41.64, 17.1 41.82, 17.1 42 C 17.1 42, 17.1 42, 17.1 42 L 17.1 42" fill="none" stroke="black" stroke-width="5"></path></svg>