<svg xmlns="http://www.w3.org/2000/svg" viewBox="12.020000457763672 3.9800000190734863 20.059999465942383 40.12001371383667" width="20.059999465942383" height="40.12001371383667"><path d="M 15.419999999999998 4.9799999999999995 C 15.09 6.93, 14.924999999999999 7.004999999999999, 14.76 8.879999999999999 C 14.76 10.68, 14.76 10.83, 14.76 12.48 C 14.76 13.98, 14.685 14.265, 14.76 15.48 C 14.91 16.41, 14.79 16.395, 15.059999999999999 17.34 C 15.45 18.299999999999997, 15.434999999999999 18.599999999999998, 15.84 19.259999999999998 C 16.259999999999998 19.619999999999997, 16.125 19.71, 16.68 19.98 C 17.369999999999997 20.16, 17.07 20.25, 18.06 20.34 C 19.35 20.34, 19.095 20.46, 20.64 20.34 C 22.44 20.1, 22.875000000000004 20.1, 24.240000000000002 19.86 C 25.17 19.619999999999997, 24.974999999999998 19.724999999999998, 26.099999999999998 19.38 C 27.42 18.93, 27.885 18.765, 28.740000000000002 18.48 C 29.130000000000003 18.36, 29.28 18.330000000000002, 29.52 18.240000000000002 C 29.61 18.18, 29.655 18.150000000000002, 29.700000000000003 18.12 C 29.700000000000003 18.12, 29.700000000000003 18.12, 29.700000000000003 18.12 L 29.700000000000003 18.12" fill="none" stroke="black" stroke-width="5"></path><path d="M 22.200000000000003 7.98 C 21.78 8.16, 21.66 8.055, 21.36 8.34 C 21.18 8.73, 21.03 8.82, 21 9.120000000000001 C 21.12 9.330000000000002, 20.910000000000004 9.510000000000002, 21.240000000000002 9.540000000000001 C 21.78 9.39, 21.975 9.510000000000002, 22.32 9.24 C 22.47 8.85, 22.545 8.745, 22.62 8.459999999999999 C 22.62 8.280000000000001, 22.725 8.22, 22.62 8.100000000000001 C 22.410000000000004 8.040000000000001, 22.545 7.830000000000001, 22.200000000000003 7.98 C 21.720000000000002 8.34, 21.525000000000002 8.264999999999999, 21.240000000000002 8.7 L 21.06 9.72" fill="none" stroke="black" stroke-width="5"></path><path d="M 18.72 13.919999999999998 C 18.75 14.07, 18.255000000000003 14.13, 18.78 14.22 C 19.8 14.25, 19.86 14.28, 20.82 14.28 C 21.72 14.25, 21.525 14.265, 22.62 14.22 C 23.910000000000004 14.16, 24.240000000000002 14.160000000000002, 25.200000000000003 14.100000000000001 C 25.830000000000002 14.040000000000001, 26.07 14.025000000000002, 26.46 13.98 L 26.759999999999998 13.919999999999998" fill="none" stroke="black" stroke-width="5"></path><path d="M 13.02 43.019999999999996 C 13.59 42.87, 13.29 43.455, 14.16 42.72 C 15.33 41.4, 15.57 41.22, 16.5 40.08 C 17.189999999999998 39.120000000000005, 17.13 39.660000000000004, 17.88 38.160000000000004 C 18.689999999999998 36.120000000000005, 18.855 35.925, 19.5 34.08 C 19.98 32.43, 20.025 32.46, 20.46 30.78 C 20.85 29.07, 21.000000000000004 28.875, 21.240000000000002 27.36 C 21.33 26.04, 21.375 25.695, 21.419999999999998 24.72 C 21.419999999999998 24.09, 21.419999999999998 24.15, 21.419999999999998 23.46 C 21.419999999999998 22.71, 21.374999999999996 22.59, 21.419999999999998 21.96 C 21.509999999999998 21.450000000000003, 21.555 21.345000000000002, 21.6 20.94 C 21.6 20.64, 21.6 20.490000000000002, 21.6 20.34 C 21.6 20.34, 21.6 20.34, 21.6 20.34 C 21.6 20.34, 21.6 20.205, 21.6 20.34 C 21.6 20.61, 21.6 20.099999999999998, 21.6 20.88 C 21.6 22.17, 21.6 22.23, 21.6 23.46 C 21.6 24.63, 21.6 24.434999999999995, 21.6 25.799999999999997 C 21.6 27.36, 21.51 27.48, 21.6 28.92 C 21.78 30.240000000000002, 21.78 30.15, 21.96 31.56 C 22.14 33.06, 22.035 33.105000000000004, 22.32 34.56 C 22.71 35.97, 22.740000000000002 36.300000000000004, 23.1 37.38 C 23.43 38.13, 23.339999999999996 38.205000000000005, 23.759999999999998 38.88 C 24.27 39.480000000000004, 24.075000000000003 39.555, 24.78 40.08 C 25.68 40.53, 25.71 40.665000000000006, 26.58 40.980000000000004 C 27.419999999999998 41.16, 27.554999999999996 41.205, 28.259999999999998 41.339999999999996 C 28.83 41.42999999999999, 28.92 41.474999999999994, 29.400000000000002 41.519999999999996 C 29.79 41.519999999999996, 29.79 41.519999999999996, 30.18 41.519999999999996 C 30.57 41.519999999999996, 30.735 41.519999999999996, 30.96 41.519999999999996 C 31.02 41.519999999999996, 31.049999999999997 41.519999999999996, 31.08 41.519999999999996 L 31.08 41.519999999999996" fill="none" stroke="black" stroke-width="5"></path></svg>