<svg xmlns="http://www.w3.org/2000/svg" viewBox="11.479999542236328 3.6599998474121094 17.360000610351562 42.326663970947266" width="17.360000610351562" height="42.326663970947266"><path d="M 21.48 4.68 C 21.48 4.68, 21.6 4.635, 21.48 4.68 C 21.240000000000002 4.77, 21.735 4.665, 21 4.86 C 19.77 5.16, 19.424999999999997 4.890000000000001, 18.54 5.46 C 18 6.3, 17.61 6.405, 17.46 7.14 C 17.700000000000003 7.77, 17.445 8.099999999999998, 17.94 8.399999999999999 C 18.69 8.37, 18.825000000000003 8.535, 19.44 8.34 C 19.92 7.98, 20.084999999999997 8.085, 20.4 7.62 C 20.55 7.050000000000001, 20.625 6.915000000000001, 20.700000000000003 6.48 C 20.700000000000003 6.18, 20.925000000000004 6.15, 20.700000000000003 5.88 C 20.25 5.640000000000001, 20.174999999999997 5.415, 19.799999999999997 5.4 C 19.5 5.61, 19.380000000000003 5.355, 19.200000000000003 5.82 C 19.14 6.54, 18.765 6.72, 19.080000000000002 7.26 C 19.770000000000003 7.62, 19.845000000000002 7.965, 20.46 7.98 C 21 7.65, 21.21 7.755000000000001, 21.54 7.32 C 21.66 6.78, 21.975 6.885, 21.78 6.24 C 21.27 5.49, 21.314999999999998 5.085, 20.759999999999998 4.74 C 20.159999999999997 4.800000000000001, 19.919999999999998 4.665, 19.56 4.86 C 19.439999999999998 5.19, 19.38 5.085000000000001, 19.32 5.5200000000000005 L 19.32 6.6000000000000005" fill="none" stroke="black" stroke-width="5"></path><path d="M 12.48 13.799999999999999 C 13.92 13.799999999999999, 13.86 13.799999999999999, 15.36 13.799999999999999 C 16.92 13.799999999999999, 16.695 13.799999999999999, 18.48 13.799999999999999 C 20.490000000000002 13.799999999999999, 20.925 13.799999999999999, 22.5 13.799999999999999 C 23.64 13.799999999999999, 24.105 13.799999999999999, 24.78 13.799999999999999 C 24.990000000000002 13.799999999999999, 24.975 13.799999999999999, 25.200000000000003 13.799999999999999 C 25.44 13.799999999999999, 25.439999999999998 13.799999999999999, 25.68 13.799999999999999 C 25.92 13.799999999999999, 25.770000000000003 13.799999999999999, 26.160000000000004 13.799999999999999 C 26.700000000000003 13.799999999999999, 26.940000000000005 13.799999999999999, 27.240000000000002 13.799999999999999 L 27.36 13.799999999999999" fill="none" stroke="black" stroke-width="5"></path><path d="M 16.5 20.28 C 16.5 22.08, 16.5 21.825, 16.5 23.88 C 16.5 26.189999999999998, 16.560000000000002 26.07, 16.5 28.5 C 16.38 31.049999999999997, 16.38 31.544999999999995, 16.259999999999998 33.599999999999994 C 16.14 35.16, 16.08 35.504999999999995, 16.02 36.72 C 16.02 37.59, 16.02 37.575, 16.02 38.46 C 16.02 39.36, 16.05 39.48, 16.02 40.26 C 15.959999999999999 40.92, 15.93 41.055, 15.899999999999999 41.58 C 15.899999999999999 41.97, 15.899999999999999 41.94, 15.899999999999999 42.36 C 15.899999999999999 42.81, 15.899999999999999 42.795, 15.899999999999999 43.26 C 15.899999999999999 43.739999999999995, 15.884999999999998 43.95, 15.899999999999999 44.22 C 15.93 44.28, 15.870000000000001 44.22, 15.96 44.339999999999996 C 16.11 44.519999999999996, 16.08 44.550000000000004, 16.259999999999998 44.7 C 16.47 44.82, 16.5 44.879999999999995, 16.68 44.94 C 16.83 44.94, 16.83 44.94, 16.98 44.94 C 17.130000000000003 44.94, 17.130000000000003 44.94, 17.28 44.94 C 17.43 44.94, 17.46 45.045, 17.580000000000002 44.94 C 17.67 44.73, 17.64 44.94, 17.759999999999998 44.519999999999996 C 17.909999999999997 43.89, 17.88 43.964999999999996, 18.06 43.26 C 18.27 42.480000000000004, 18.21 42.675000000000004, 18.48 41.7 C 18.810000000000002 40.53, 18.795 40.38, 19.14 39.36 C 19.5 38.489999999999995, 19.38 38.595, 19.86 37.62 C 20.46 36.54, 20.354999999999997 36.465, 21.06 35.46 C 21.869999999999997 34.53, 21.975 34.24499999999999, 22.68 33.599999999999994 C 23.28 33.239999999999995, 23.07 33.075, 23.88 32.88 C 24.9 32.85, 25.080000000000002 32.835, 25.92 32.82 C 26.580000000000002 32.82, 26.760000000000005 32.82, 27.240000000000002 32.82 L 27.839999999999996 32.82" fill="none" stroke="black" stroke-width="5"></path></svg>