<svg xmlns="http://www.w3.org/2000/svg" viewBox="11.539999961853027 1.6868748664855957 20.060001373291016 43.89312696456909" width="20.060001373291016" height="43.89312696456909"><path d="M 14.64 26.759999999999998 C 14.370000000000001 26.1, 14.370000000000001 26.07, 14.100000000000001 25.44 C 13.83 24.840000000000003, 13.889999999999999 25.080000000000002, 13.559999999999999 24.240000000000002 C 13.169999999999998 23.160000000000004, 13.02 22.935000000000002, 12.78 22.080000000000002 C 12.690000000000001 21.450000000000003, 12.645000000000001 21.36, 12.600000000000001 20.82 C 12.600000000000001 20.369999999999997, 12.465000000000002 20.384999999999998, 12.600000000000001 19.919999999999998 C 12.870000000000001 19.439999999999998, 12.705000000000002 19.44, 13.14 18.96 C 13.74 18.48, 13.665 18.405, 14.34 18 C 15.09 17.67, 14.805 17.595, 15.84 17.34 C 17.16 17.16, 17.16 17.175, 18.48 16.98 C 19.8 16.77, 19.665000000000003 16.755, 21.12 16.56 C 22.71 16.380000000000003, 22.664999999999996 16.335, 24.299999999999997 16.200000000000003 C 25.98 16.11, 26.325000000000003 16.065, 27.660000000000004 16.02 C 28.650000000000002 16.02, 28.905 16.05, 29.64 16.02 C 30.119999999999997 15.959999999999999, 30.36 15.93, 30.599999999999998 15.899999999999999 L 30.599999999999998 15.899999999999999" fill="none" stroke="black" stroke-width="5"></path><path d="M 17.82 4.08 C 17.700000000000003 4.38, 17.400000000000002 4.41, 17.580000000000002 4.68 C 18.060000000000002 4.92, 18.105 5.04, 18.54 5.16 C 18.93 5.16, 19.05 5.16, 19.32 5.16 C 19.47 5.16, 19.455000000000002 5.385, 19.62 5.16 C 19.8 4.71, 19.86 4.8149999999999995, 19.98 4.26 C 20.04 3.5999999999999996, 20.07 3.27, 20.1 2.94 C 20.1 2.94, 20.415000000000003 2.985, 20.1 2.94 C 19.47 2.85, 19.365000000000002 2.5500000000000003, 18.84 2.7600000000000002 C 18.42 3.2700000000000005, 18.21 3.3000000000000003, 18 3.7800000000000002 C 18 4.23, 17.835 4.29, 18 4.68 C 18.33 5.01, 18.165 5.22, 18.66 5.34 C 19.32 5.25, 19.5 5.46, 19.98 5.16 C 20.28 4.65, 20.37 4.545, 20.580000000000002 4.14 C 20.700000000000003 3.84, 20.895 3.735, 20.82 3.54 C 20.55 3.45, 20.67 3.3150000000000004, 20.28 3.3600000000000003 L 19.259999999999998 3.7199999999999998" fill="none" stroke="black" stroke-width="5"></path><path d="M 14.16 12.120000000000001 C 14.940000000000001 11.91, 14.715 12.015, 15.72 11.7 C 16.95 11.28, 16.935 11.204999999999998, 18.18 10.86 C 19.44 10.59, 19.395000000000003 10.530000000000001, 20.700000000000003 10.32 C 22.05 10.17, 22.034999999999997 10.155, 23.4 10.02 C 24.78 9.899999999999999, 25.260000000000005 9.84, 26.160000000000004 9.78 C 26.580000000000002 9.78, 26.745 9.78, 27 9.78 L 27.18 9.78" fill="none" stroke="black" stroke-width="5"></path><path d="M 19.86 16.68 C 19.83 16.98, 19.619999999999997 16.5, 19.799999999999997 17.28 C 20.189999999999998 18.54, 20.16 18.104999999999997, 20.580000000000002 19.799999999999997 C 21.03 21.93, 21.195 22.229999999999997, 21.48 24.06 C 21.6 25.589999999999996, 21.615 25.874999999999996, 21.72 27.119999999999997 C 21.81 28.08, 21.854999999999997 27.825, 21.9 29.04 C 21.9 30.509999999999998, 22.229999999999997 30.405, 21.9 31.98 C 21.240000000000002 33.66, 21.330000000000002 33.839999999999996, 20.580000000000002 35.339999999999996 C 19.740000000000002 36.66, 19.575 37.005, 18.9 37.980000000000004 C 18.39 38.61, 18.525 38.49, 17.88 39.24 C 17.1 40.11, 16.77 40.470000000000006, 16.32 40.980000000000004 C 16.200000000000003 41.13, 16.14 41.205, 16.080000000000002 41.28 L 16.080000000000002 41.28" fill="none" stroke="black" stroke-width="5"></path><path d="M 28.32 29.28 C 28.32 29.880000000000003, 28.305 29.85, 28.32 30.48 C 28.35 31.14, 28.365000000000002 30.794999999999998, 28.380000000000003 31.799999999999997 C 28.380000000000003 33.15, 28.500000000000004 33.12, 28.380000000000003 34.5 C 28.14 35.91, 28.290000000000003 35.82, 27.900000000000002 37.32 C 27.36 38.91, 27.435000000000002 39.18, 26.82 40.5 C 26.130000000000003 41.55, 26.115000000000002 41.699999999999996, 25.44 42.599999999999994 C 24.78 43.349999999999994, 24.525 43.64999999999999, 24.119999999999997 44.099999999999994 C 23.97 44.25, 23.939999999999998 44.28, 23.82 44.400000000000006 L 23.64 44.58" fill="none" stroke="black" stroke-width="5"></path></svg>