<svg xmlns="http://www.w3.org/2000/svg" viewBox="7.340000152587891 7.913332939147949 23.936248779296875 33.04666614532471" width="23.936248779296875" height="33.04666614532471"><path d="M 13.5 39 C 13.05 37.71, 13.23 38.64, 12.600000000000001 36.42 C 11.790000000000001 33.269999999999996, 11.64 32.64, 10.98 30.119999999999997 C 10.469999999999999 28.229999999999997, 10.544999999999998 28.544999999999995, 9.959999999999999 26.339999999999996 C 9.3 23.819999999999997, 9.015 23.414999999999996, 8.64 21.299999999999997 C 8.55 19.589999999999996, 8.535 19.485, 8.459999999999999 17.88 C 8.399999999999999 16.38, 8.34 16.064999999999998, 8.34 14.879999999999999 C 8.399999999999999 14.01, 8.28 13.965, 8.459999999999999 13.14 C 8.76 12.36, 8.655000000000001 12.27, 9.06 11.58 C 9.57 10.98, 9.66 10.844999999999999, 10.08 10.379999999999999 C 10.41 10.05, 10.245000000000001 10.08, 10.74 9.72 C 11.399999999999999 9.33, 11.564999999999998 9.135, 12.059999999999999 8.94 C 12.39 8.94, 12.24 8.879999999999999, 12.72 8.94 C 13.350000000000001 9.059999999999999, 13.350000000000001 8.91, 13.98 9.18 C 14.61 9.6, 14.535 9.45, 15.24 10.02 C 16.02 10.739999999999998, 16.08 10.575, 16.799999999999997 11.459999999999999 C 17.46 12.509999999999998, 17.595 12.584999999999999, 18.12 13.559999999999999 C 18.509999999999998 14.459999999999999, 18.509999999999998 13.844999999999999, 18.9 15.36 C 19.29 17.490000000000002, 19.395 17.85, 19.68 19.62 C 19.86 21.03, 19.86 21.18, 20.04 22.44 C 20.22 23.550000000000004, 20.25 23.865000000000006, 20.4 24.660000000000004 C 20.52 25.14, 20.58 25.38, 20.64 25.619999999999997 C 20.64 25.619999999999997, 20.535 25.559999999999995, 20.64 25.619999999999997 C 20.85 25.74, 20.474999999999998 25.86, 21.06 25.86 C 22.02 25.74, 22.065 25.68, 22.98 25.619999999999997 C 23.85 25.619999999999997, 23.849999999999998 25.619999999999997, 24.72 25.619999999999997 C 25.59 25.619999999999997, 25.560000000000002 25.529999999999998, 26.46 25.619999999999997 C 27.39 25.799999999999997, 27.57 25.71, 28.32 25.98 C 28.89 26.340000000000003, 29.01 26.265000000000004, 29.46 26.700000000000003 C 29.79 27.21, 29.939999999999998 27.134999999999998, 30.119999999999997 27.72 C 30.15 28.38, 30.18 28.2, 30.18 29.04 C 30.15 30.06, 30.449999999999996 29.955, 30.119999999999997 31.08 C 29.49 32.31, 29.505 32.355, 28.86 33.54 C 28.2 34.68, 28.214999999999996 34.845, 27.54 35.82 C 26.85 36.629999999999995, 26.580000000000005 36.915, 26.160000000000004 37.44 C 26.01 37.68, 25.995 37.665, 25.86 37.92 C 25.74 38.19, 25.68 38.325, 25.619999999999997 38.46 L 25.619999999999997 38.46" fill="none" stroke="black" stroke-width="5"></path><path d="M 25.32 11.879999999999999 C 25.08 12.69, 24.794999999999995 12.795, 24.839999999999996 13.5 C 25.169999999999998 14.100000000000001, 25.14 14.4, 25.5 14.700000000000001 C 25.89 14.700000000000001, 26.04 15.000000000000002, 26.28 14.700000000000001 C 26.37 14.100000000000001, 26.76 14.16, 26.46 13.5 C 25.77 12.78, 25.575 12.284999999999998, 25.08 12.059999999999999 C 24.78 12.33, 24.63 12.180000000000001, 24.48 12.600000000000001 C 24.48 13.170000000000002, 24.150000000000002 13.275, 24.48 13.74 C 25.14 14.100000000000001, 25.349999999999998 14.475000000000001, 25.799999999999997 14.46 C 26.04 14.07, 26.205000000000002 14.1, 26.28 13.68 C 26.189999999999998 13.23, 26.415 12.899999999999999, 26.099999999999998 12.78 C 25.56 12.99, 25.305 12.675, 25.02 13.200000000000001 C 24.990000000000002 14.04, 24.84 14.355, 24.96 14.879999999999999 L 25.5 15.299999999999999" fill="none" stroke="black" stroke-width="5"></path><path d="M 19.799999999999997 20.88 C 19.77 20.79, 19.125 20.835, 19.740000000000002 20.700000000000003 C 21 20.520000000000003, 20.549999999999997 20.43, 22.259999999999998 20.34 C 24.419999999999998 20.34, 25.214999999999996 20.384999999999998, 26.58 20.34 C 27.15 20.25, 27.435 20.205, 27.72 20.16 L 27.72 20.16" fill="none" stroke="black" stroke-width="5"></path><path d="M 10.74 39.480000000000004 C 11.190000000000001 39.57000000000001, 10.32 39.63000000000001, 11.64 39.660000000000004 C 13.83 39.629999999999995, 13.665 39.614999999999995, 16.02 39.599999999999994 C 18.54 39.599999999999994, 19.005 39.599999999999994, 21.06 39.599999999999994 C 22.65 39.599999999999994, 22.845000000000002 39.56999999999999, 24.240000000000002 39.599999999999994 C 25.44 39.66, 25.5 39.629999999999995, 26.64 39.72 C 27.72 39.84, 28.259999999999998 39.9, 28.799999999999997 39.96 L 28.799999999999997 39.96" fill="none" stroke="black" stroke-width="5"></path></svg>