<svg xmlns="http://www.w3.org/2000/svg" viewBox="10.640000343322754 3.8600001335144043 20.540000915527344 39.6533317565918" width="20.540000915527344" height="39.6533317565918"><path d="M 11.64 4.86 C 11.76 7.02, 11.82 7.305, 11.879999999999999 9.18 C 11.879999999999999 10.77, 11.879999999999999 10.485, 11.879999999999999 12.36 C 11.879999999999999 14.52, 11.879999999999999 14.684999999999999, 11.879999999999999 16.68 C 11.879999999999999 18.509999999999998, 11.834999999999999 18.48, 11.879999999999999 20.34 C 11.969999999999999 22.229999999999997, 12.014999999999999 22.664999999999996, 12.059999999999999 24.119999999999997 C 12.059999999999999 25.14, 12.014999999999999 24.825000000000003, 12.059999999999999 26.160000000000004 C 12.149999999999999 27.810000000000002, 12.195 27.885, 12.24 29.46 C 12.24 30.96, 12.135 30.990000000000002, 12.24 32.46 C 12.45 33.9, 12.465 34.08, 12.66 35.339999999999996 C 12.84 36.42, 12.765 36.495, 13.02 37.5 C 13.35 38.43, 13.26 38.55, 13.68 39.36 C 14.190000000000001 40.05, 14.235000000000001 40.275000000000006, 14.700000000000001 40.74 C 15.120000000000001 40.980000000000004, 15 40.95, 15.54 41.22 C 16.2 41.519999999999996, 16.17 41.595, 16.86 41.82 C 17.58 41.97, 17.58 41.985, 18.299999999999997 42.12 C 19.02 42.239999999999995, 18.915 42.269999999999996, 19.740000000000002 42.36 C 20.67 42.42, 20.535000000000004 42.45, 21.6 42.480000000000004 C 22.8 42.480000000000004, 23.115000000000002 42.55500000000001, 24 42.480000000000004 C 24.57 42.33, 24.42 42.54, 25.14 42.18 C 26.01 41.61, 26.115000000000002 41.655, 26.880000000000003 41.04 C 27.540000000000003 40.379999999999995, 27.525000000000006 40.71, 28.200000000000003 39.72 C 28.89 38.4, 29.115 38.129999999999995, 29.58 37.08 C 29.82 36.3, 29.909999999999997 35.955, 30.06 35.519999999999996 C 30.119999999999997 35.42999999999999, 30.15 35.385, 30.18 35.339999999999996 L 30.18 35.339999999999996" fill="none" stroke="black" stroke-width="5"></path><path d="M 12.96 28.98 C 13.44 28.950000000000003, 13.334999999999999 29.145000000000003, 13.919999999999998 28.92 C 14.61 28.5, 14.594999999999999 28.619999999999997, 15.299999999999999 28.08 C 16.02 27.419999999999998, 16.14 27.659999999999997, 16.740000000000002 26.759999999999998 C 17.220000000000002 25.619999999999997, 17.340000000000003 25.35, 17.700000000000003 24.48 C 17.94 23.880000000000003, 17.925 23.865000000000002, 18.18 23.28 C 18.45 22.71, 18.585 22.425, 18.72 22.14 C 18.72 22.14, 18.689999999999998 22.200000000000003, 18.72 22.14 C 18.78 22.02, 18.765 21.96, 18.84 21.9 C 18.93 21.9, 18.9 21.705, 19.02 21.9 C 19.17 22.29, 19.245 22.155, 19.32 22.68 C 19.32 23.34, 19.32 23.445, 19.32 24 C 19.32 24.450000000000003, 19.245 24.51, 19.32 24.900000000000002 C 19.47 25.23, 19.245 25.095, 19.62 25.56 C 20.22 26.159999999999997, 20.16 26.25, 20.82 26.759999999999998 C 21.54 27.18, 21.404999999999998 27.179999999999996, 22.259999999999998 27.599999999999998 C 23.25 28.02, 23.355000000000004 28.155, 24.240000000000002 28.44 C 25.02 28.590000000000003, 25.184999999999995 28.665000000000003, 25.799999999999997 28.740000000000002 C 26.25 28.740000000000002, 26.055 28.830000000000002, 26.700000000000003 28.740000000000002 C 27.540000000000003 28.560000000000002, 27.705000000000002 28.590000000000003, 28.380000000000003 28.380000000000003 C 28.89 28.14, 29.115000000000002 28.020000000000003, 29.400000000000002 27.900000000000002 C 29.46 27.900000000000002, 29.445 27.930000000000003, 29.52 27.900000000000002 L 29.700000000000003 27.78" fill="none" stroke="black" stroke-width="5"></path><path d="M 21.72 7.5 C 21.48 7.74, 21.36 7.545, 21.240000000000002 7.98 C 21.240000000000002 8.61, 21.075000000000003 8.85, 21.240000000000002 9.24 C 21.57 9.39, 21.599999999999998 9.555000000000001, 21.9 9.540000000000001 C 22.17 9.36, 22.275000000000002 9.465, 22.44 9.18 C 22.5 8.79, 22.619999999999997 8.759999999999998, 22.56 8.399999999999999 C 22.380000000000003 8.07, 22.305000000000003 7.92, 22.200000000000003 7.74 C 22.17 7.71, 22.245 7.68, 22.14 7.68 C 21.96 7.71, 21.915 7.44, 21.78 7.74 C 21.69 8.309999999999999, 21.6 8.489999999999998, 21.6 8.879999999999999 C 21.69 9.09, 21.645000000000003 9.15, 21.78 9.3 C 21.96 9.39, 21.945 9.66, 22.14 9.48 C 22.35 9.030000000000001, 22.455 8.850000000000001, 22.56 8.58 C 22.56 8.489999999999998, 22.56 8.474999999999998, 22.56 8.399999999999999 L 22.56 8.28" fill="none" stroke="black" stroke-width="5"></path><path d="M 19.98 14.46 C 21.36 14.370000000000001, 21.405 14.265, 22.740000000000002 14.28 C 24.03 14.399999999999999, 24.495 14.459999999999999, 25.32 14.52 C 25.68 14.52, 25.86 14.52, 26.04 14.52 L 26.04 14.52" fill="none" stroke="black" stroke-width="5"></path></svg>