<svg xmlns="http://www.w3.org/2000/svg" viewBox="6.559999942779541 5.480000019073486 23.882099151611328 39.880001068115234" width="23.882099151611328" height="39.880001068115234"><path d="M 15.899999999999999 34.92 C 15.899999999999999 35.76, 15.959999999999997 35.62499999999999, 15.899999999999999 36.599999999999994 C 15.78 37.709999999999994, 15.855 37.724999999999994, 15.66 38.82 C 15.39 39.900000000000006, 15.360000000000001 40.155, 15.120000000000001 40.980000000000004 C 14.91 41.55, 14.895000000000001 41.64, 14.700000000000001 42.12 C 14.52 42.510000000000005, 14.61 42.495000000000005, 14.34 42.900000000000006 C 13.98 43.32000000000001, 13.920000000000002 43.395, 13.620000000000001 43.74 C 13.38 44.010000000000005, 13.305 44.13, 13.14 44.28 C 13.05 44.31, 13.155000000000001 44.324999999999996, 12.96 44.339999999999996 C 12.66 44.339999999999996, 12.809999999999999 44.38499999999999, 12.36 44.339999999999996 C 11.76 44.25, 11.67 44.325, 11.16 44.160000000000004 C 10.74 43.92, 10.89 44.19, 10.32 43.68 C 9.6 42.9, 9.405 42.839999999999996, 8.879999999999999 42.12 C 8.55 41.459999999999994, 8.49 41.324999999999996, 8.22 40.8 C 8.010000000000002 40.41, 7.965000000000001 40.49999999999999, 7.800000000000001 40.019999999999996 C 7.680000000000001 39.45, 7.5600000000000005 39.525000000000006, 7.5600000000000005 38.88 C 7.680000000000001 38.16, 7.500000000000001 38.22, 7.800000000000001 37.44 C 8.280000000000001 36.599999999999994, 8.355 36.39, 8.76 35.76 C 9.09 35.34, 9.120000000000001 35.235, 9.42 34.92 C 9.69 34.71, 9.54 34.68, 9.959999999999999 34.5 C 10.530000000000001 34.35, 10.665000000000001 34.275000000000006, 11.100000000000001 34.2 C 11.4 34.2, 11.355 34.17, 11.7 34.2 C 12.09 34.260000000000005, 12.120000000000001 34.215, 12.48 34.32 C 12.81 34.47, 12.66 34.425, 13.14 34.62 C 13.77 34.86, 13.799999999999999 34.82999999999999, 14.399999999999999 35.099999999999994 C 14.969999999999999 35.4, 15.044999999999998 35.43, 15.54 35.7 C 15.959999999999999 35.94, 15.869999999999997 35.64, 16.38 36.18 C 16.98 37.019999999999996, 17.025000000000002 37.05, 17.580000000000002 37.86 C 18.090000000000003 38.64, 18 38.535, 18.6 39.42 C 19.29 40.410000000000004, 19.380000000000003 40.650000000000006, 19.98 41.400000000000006 C 20.490000000000002 41.910000000000004, 20.415 41.985, 21 42.42 C 21.66 42.78, 21.825 42.93, 22.32 43.14 C 22.65 43.2, 22.545 43.26, 22.98 43.26 C 23.52 43.2, 23.445 43.425, 24.06 43.14 C 24.75 42.629999999999995, 24.705000000000002 42.9, 25.44 42.12 C 26.22 41.06999999999999, 26.205000000000002 41.58, 27 40.019999999999996 C 27.81 37.95, 28.064999999999998 37.725, 28.619999999999997 35.88 C 28.919999999999998 34.260000000000005, 29.025 34.395, 29.22 32.64 C 29.310000000000002 30.75, 29.535000000000004 30.884999999999998, 29.400000000000002 28.86 C 29.04 26.7, 29.115 26.415, 28.68 24.54 C 28.17 22.95, 28.380000000000003 23.04, 27.660000000000004 21.36 C 26.73 19.59, 26.805 19.77, 25.799999999999997 17.82 C 24.72 15.69, 24.675 15.374999999999998, 23.64 13.559999999999999 C 22.65 12.059999999999999, 22.455 11.775, 21.66 10.56 C 21.060000000000002 9.629999999999999, 20.955000000000002 9.434999999999999, 20.46 8.7 C 20.07 8.16, 20.025 8.1, 19.68 7.62 C 19.380000000000003 7.199999999999999, 19.275000000000002 7.0649999999999995, 19.080000000000002 6.779999999999999 L 18.9 6.48" fill="none" stroke="black" stroke-width="5"></path><path d="M 14.940000000000001 16.919999999999998 C 14.25 17.64, 13.905 17.805, 13.559999999999999 18.36 C 13.559999999999999 18.75, 13.319999999999999 18.915, 13.559999999999999 19.14 C 14.04 19.2, 14.1 19.229999999999997, 14.52 19.259999999999998 C 14.879999999999999 19.259999999999998, 14.879999999999999 19.544999999999998, 15.24 19.259999999999998 C 15.600000000000001 18.689999999999998, 15.780000000000001 18.66, 15.96 18.12 C 15.96 17.61, 15.96 17.61, 15.96 17.1 C 15.96 16.590000000000003, 16.005000000000003 16.395000000000003, 15.96 16.080000000000002 C 15.870000000000001 15.96, 15.899999999999999 15.645, 15.78 15.84 C 15.629999999999999 16.35, 15.555 16.365, 15.48 16.86 C 15.48 17.34, 15.48 17.475, 15.48 17.82 C 15.48 18.03, 15.48 18.090000000000003, 15.48 18.240000000000002 C 15.48 18.33, 15.405000000000001 18.54, 15.48 18.419999999999998 C 15.629999999999999 18.089999999999996, 15.705 18.165, 15.78 17.759999999999998 C 15.78 17.279999999999998, 15.825 17.084999999999997, 15.78 16.799999999999997 C 15.690000000000001 16.71, 15.930000000000001 16.59, 15.600000000000001 16.62 C 15.030000000000001 16.77, 14.775000000000002 16.65, 14.46 16.919999999999998 C 14.4 17.310000000000002, 14.370000000000001 17.385, 14.34 17.700000000000003 C 14.34 17.94, 14.34 18.060000000000002, 14.34 18.18 C 14.34 18.18, 14.34 18.15, 14.34 18.18 L 14.34 18.299999999999997" fill="none" stroke="black" stroke-width="5"></path><path d="M 12.54 25.08 C 14.52 24.839999999999996, 14.91 24.72, 16.5 24.599999999999998 C 17.7 24.599999999999998, 18.299999999999997 24.599999999999998, 18.9 24.599999999999998 C 18.9 24.599999999999998, 18.9 24.599999999999998, 18.9 24.599999999999998 L 18.9 24.599999999999998" fill="none" stroke="black" stroke-width="5"></path></svg>