<svg xmlns="http://www.w3.org/2000/svg" viewBox="5.880000114440918 8 16.58666706085205 35.880001068115234" width="16.58666706085205" height="35.880001068115234"><path d="M 19.02 35.519999999999996 C 19.17 36.03, 19.245 35.985, 19.32 36.54 C 19.32 37.14, 19.41 37.08, 19.32 37.74 C 19.14 38.46, 19.41 38.475, 18.96 39.18 C 18.240000000000002 39.870000000000005, 18.375 39.93, 17.52 40.56 C 16.53 41.13, 16.424999999999997 41.235, 15.54 41.7 C 14.76 42.06, 14.7 42.165000000000006, 13.98 42.42 C 13.32 42.57, 13.185 42.644999999999996, 12.66 42.72 C 12.27 42.72, 12.645 43.08, 11.879999999999999 42.72 C 10.74 42, 10.590000000000002 42.255, 9.600000000000001 41.28 C 8.760000000000002 40.05, 8.595 40.065, 7.92 38.82 C 7.41 37.56, 7.154999999999999 37.62, 6.8999999999999995 36.3 C 6.8999999999999995 34.92, 6.8999999999999995 34.739999999999995, 6.8999999999999995 33.54 C 6.8999999999999995 32.519999999999996, 6.8999999999999995 32.31, 6.8999999999999995 31.5 C 6.8999999999999995 30.9, 6.8549999999999995 30.764999999999997, 6.8999999999999995 30.299999999999997 C 6.99 29.97, 6.915 29.94, 7.08 29.64 C 7.32 29.369999999999997, 7.140000000000001 29.415, 7.5600000000000005 29.099999999999998 C 8.16 28.740000000000002, 8.19 28.560000000000002, 8.76 28.380000000000003 C 9.3 28.380000000000003, 9.285 28.380000000000003, 9.84 28.380000000000003 C 10.41 28.380000000000003, 10.275 28.305000000000003, 10.98 28.380000000000003 C 11.82 28.53, 11.49 28.32, 12.66 28.68 C 14.16 29.25, 13.95 29.355, 15.66 29.82 C 17.58 30.18, 18.24 30.36, 19.5 30.54 C 20.1 30.54, 20.220000000000002 30.825, 20.700000000000003 30.54 C 21.060000000000002 29.97, 21.24 30.465000000000003, 21.419999999999998 29.400000000000002 C 21.419999999999998 27.840000000000003, 21.525 28.020000000000003, 21.419999999999998 26.28 C 21.21 24.36, 21.24 24.240000000000002, 21 22.44 C 20.73 20.76, 20.91 20.64, 20.46 19.080000000000002 C 19.830000000000002 17.64, 19.875000000000004 17.685000000000002, 19.200000000000003 16.200000000000003 C 18.48 14.670000000000002, 18.345 14.415000000000001, 17.759999999999998 13.14 C 17.31 12.120000000000001, 17.189999999999998 11.895000000000001, 16.86 11.100000000000001 C 16.65 10.530000000000001, 16.635 10.485, 16.44 9.959999999999999 C 16.26 9.48, 16.17 9.24, 16.080000000000002 9 C 16.080000000000002 9, 16.080000000000002 9, 16.080000000000002 9 L 16.080000000000002 9" fill="none" stroke="black" stroke-width="5"></path><path d="M 11.040000000000001 13.32 C 10.74 13.950000000000001, 10.605 13.980000000000002, 10.44 14.580000000000002 C 10.41 15.150000000000002, 10.229999999999999 15.330000000000002, 10.379999999999999 15.72 C 10.71 15.93, 10.755 16.215, 11.040000000000001 16.14 C 11.280000000000001 15.78, 11.31 15.989999999999998, 11.52 15.419999999999998 C 11.7 14.639999999999999, 11.79 14.325, 11.879999999999999 13.86 C 11.879999999999999 13.709999999999999, 12.014999999999999 13.649999999999999, 11.879999999999999 13.559999999999999 C 11.61 13.53, 11.535 13.274999999999999, 11.34 13.5 C 11.22 13.98, 11.145000000000001 14.025, 11.100000000000001 14.46 C 11.13 14.850000000000001, 11.145 15.045, 11.16 15.24 C 11.16 15.24, 11.16 15.24, 11.16 15.24 L 11.16 15.24" fill="none" stroke="black" stroke-width="5"></path><path d="M 9.120000000000001 22.200000000000003 C 10.32 22.020000000000003, 10.2 21.93, 11.52 21.84 C 12.959999999999999 21.84, 13.454999999999998 21.84, 14.399999999999999 21.84 C 14.849999999999998 21.84, 15.075 21.84, 15.299999999999999 21.84 L 15.299999999999999 21.84" fill="none" stroke="black" stroke-width="5"></path></svg>