<svg xmlns="http://www.w3.org/2000/svg" viewBox="11.586372375488281 3.1399998664855957 18.993627548217773 38.76000165939331" width="18.993627548217773" height="38.76000165939331"><path d="M 14.879999999999999 4.14 C 14.25 6.24, 14.13 6.135, 13.620000000000001 8.34 C 13.23 10.65, 13.08 10.935, 12.84 12.96 C 12.75 14.700000000000001, 12.705 14.91, 12.66 16.44 C 12.66 17.76, 12.63 17.880000000000003, 12.66 19.080000000000002 C 12.719999999999999 20.160000000000004, 12.389999999999999 20.340000000000003, 12.78 21.240000000000002 C 13.5 21.96, 13.5 22.11, 14.22 22.68 C 14.940000000000001 23.1, 14.955 23.145, 15.66 23.52 C 16.35 23.85, 16.32 23.97, 17.04 24.18 C 17.79 24.27, 17.835 24.66, 18.54 24.36 C 19.2 23.67, 19.41 23.67, 19.86 22.98 C 20.1 22.29, 20.205 22.215000000000003, 20.34 21.6 C 20.369999999999997 21.060000000000002, 20.384999999999998 20.835, 20.4 20.52 C 20.4 20.43, 20.4 20.384999999999998, 20.4 20.34 C 20.4 20.34, 20.324999999999996 20.189999999999998, 20.4 20.34 C 20.55 20.64, 20.535000000000004 20.295, 20.700000000000003 20.94 C 20.880000000000003 21.93, 20.88 22.229999999999997, 21.06 22.919999999999998 C 21.24 23.310000000000002, 21.044999999999998 23.160000000000004, 21.419999999999998 23.700000000000003 C 21.99 24.39, 21.825 24.585, 22.56 25.08 C 23.46 25.38, 23.16 25.619999999999997, 24.36 25.68 C 25.86 25.5, 26.099999999999998 25.71, 27.36 25.32 C 28.380000000000003 24.72, 28.89 24.419999999999998, 29.400000000000002 24.119999999999997 C 29.400000000000002 24.119999999999997, 29.355000000000004 24.164999999999996, 29.400000000000002 24.119999999999997 L 29.58 23.94" fill="none" stroke="black" stroke-width="5"></path><path d="M 21.96 7.26 C 21.6 7.77, 21.480000000000004 7.709999999999999, 21.240000000000002 8.28 C 21.12 8.91, 21.03 9.030000000000001, 21 9.540000000000001 C 21.060000000000002 9.93, 20.895000000000003 10.08, 21.12 10.32 C 21.509999999999998 10.41, 21.45 10.71, 21.9 10.5 C 22.409999999999997 9.99, 22.589999999999996 9.975000000000001, 22.919999999999998 9.48 C 23.07 9, 23.189999999999998 8.91, 23.22 8.52 C 23.13 8.219999999999999, 23.28 8.129999999999999, 23.04 7.92 C 22.65 7.8, 22.65 7.725, 22.259999999999998 7.68 C 21.869999999999997 7.71, 21.84 7.335, 21.48 7.74 C 21.15 8.52, 20.985 8.670000000000002, 20.82 9.3 C 20.82 9.780000000000001, 20.61 9.945, 20.82 10.26 C 21.240000000000002 10.41, 21.12 10.68, 21.66 10.56 C 22.32 10.17, 22.62 10.125, 22.98 9.78 C 23.04 9.48, 23.07 9.344999999999999, 23.1 9.18 C 23.1 9.15, 23.175000000000004 9.165000000000001, 23.1 9.120000000000001 C 22.95 9.06, 22.919999999999998 9.06, 22.799999999999997 9 L 22.62 8.879999999999999" fill="none" stroke="black" stroke-width="5"></path><path d="M 17.759999999999998 14.34 C 18.089999999999996 14.4, 17.534999999999997 14.43, 18.419999999999998 14.46 C 19.86 14.46, 19.919999999999995 14.46, 21.299999999999997 14.46 C 22.619999999999997 14.46, 22.98 14.46, 23.94 14.46 C 24.54 14.46, 24.810000000000002 14.46, 25.14 14.46 L 25.259999999999998 14.46" fill="none" stroke="black" stroke-width="5"></path><path d="M 22.86 30.839999999999996 C 22.259999999999998 30.72, 22.35 30.569999999999997, 21.66 30.599999999999998 C 20.880000000000003 30.78, 20.790000000000003 30.615000000000002, 20.1 30.96 C 19.5 31.47, 19.439999999999998 31.395000000000003, 18.9 31.98 C 18.42 32.64, 18.345 32.61, 17.94 33.3 C 17.61 34.019999999999996, 17.490000000000002 34.065, 17.28 34.74 C 17.19 35.370000000000005, 17.145000000000003 35.265, 17.1 36 C 17.1 36.84, 17.01 36.945, 17.1 37.68 C 17.28 38.31, 17.160000000000004 38.37, 17.46 38.94 C 17.88 39.45, 17.79 39.51, 18.299999999999997 39.96 C 18.9 40.35, 18.975 40.515, 19.5 40.74 C 19.95 40.8, 19.86 40.83, 20.4 40.86 C 21.03 40.86, 20.985 40.95, 21.66 40.86 C 22.380000000000003 40.68, 22.455000000000002 40.8, 23.1 40.5 C 23.67 40.08, 23.790000000000003 40.095000000000006, 24.240000000000002 39.660000000000004 C 24.57 39.21, 24.555000000000003 39.525, 24.900000000000002 38.76 C 25.259999999999998 37.67999999999999, 25.439999999999998 37.63499999999999, 25.619999999999997 36.599999999999994 C 25.619999999999997 35.61, 25.709999999999997 35.489999999999995, 25.619999999999997 34.62 C 25.439999999999998 33.87, 25.424999999999997 33.644999999999996, 25.259999999999998 33.12 C 25.11 32.81999999999999, 25.215 32.879999999999995, 24.96 32.519999999999996 C 24.6 32.099999999999994, 24.585 32.07, 24.240000000000002 31.68 C 23.910000000000004 31.32, 24.03 31.245, 23.580000000000002 30.96 C 23.01 30.75, 22.875 30.645, 22.44 30.54 C 22.14 30.54, 21.990000000000002 30.54, 21.84 30.54 L 21.84 30.54" fill="none" stroke="black" stroke-width="5"></path><path d="M 17.46 35.82 C 18.48 35.82, 18.39 35.865, 19.5 35.82 C 20.7 35.730000000000004, 20.97 35.685, 21.9 35.64 C 22.56 35.64, 22.695 35.685, 23.22 35.64 C 23.61 35.55, 23.61 35.505, 24 35.46 C 24.39 35.46, 24.435000000000002 35.46, 24.78 35.46 C 25.080000000000002 35.46, 25.080000000000002 35.46, 25.380000000000003 35.46 C 25.68 35.46, 25.785 35.46, 25.98 35.46 L 26.160000000000004 35.46" fill="none" stroke="black" stroke-width="5"></path></svg>