<svg xmlns="http://www.w3.org/2000/svg" viewBox="11.646666526794434 3.260000228881836 19.053333282470703 38.75027275085449" width="19.053333282470703" height="38.75027275085449"><path d="M 13.86 4.26 C 13.530000000000001 5.52, 13.455000000000002 5.489999999999999, 13.200000000000001 6.779999999999999 C 13.02 8.1, 12.975 7.92, 12.84 9.42 C 12.75 11.1, 12.705 10.665, 12.66 12.78 C 12.66 15.329999999999998, 12.66 15.839999999999998, 12.66 17.88 C 12.66 19.41, 12.63 19.425, 12.66 20.94 C 12.719999999999999 22.44, 12.69 22.53, 12.78 23.94 C 12.899999999999999 25.259999999999998, 12.825 25.334999999999997, 13.02 26.58 C 13.29 27.75, 13.274999999999999 27.84, 13.559999999999999 28.92 C 13.86 29.910000000000004, 13.815 30.150000000000002, 14.16 30.900000000000002 C 14.55 31.410000000000004, 14.505000000000003 31.560000000000002, 14.940000000000001 31.92 C 15.42 32.129999999999995, 15.389999999999999 32.265, 15.899999999999999 32.339999999999996 C 16.439999999999998 32.28, 16.29 32.565, 16.98 32.22 C 17.82 31.59, 17.91 31.77, 18.66 30.96 C 19.32 29.97, 19.53 30.21, 19.98 28.98 C 20.22 27.509999999999998, 20.265 27.195, 20.46 26.04 C 20.61 25.2, 20.685 24.9, 20.759999999999998 24.36 C 20.759999999999998 24.119999999999997, 20.759999999999998 23.985, 20.759999999999998 23.88 C 20.759999999999998 23.91, 20.685 23.445, 20.759999999999998 23.94 C 20.909999999999997 24.9, 20.849999999999998 24.78, 21.06 25.86 C 21.33 27.06, 21.345 27.36, 21.6 28.259999999999998 C 21.840000000000003 28.86, 21.660000000000004 28.77, 22.080000000000002 29.46 C 22.68 30.240000000000002, 22.53 30.435000000000002, 23.28 31.02 C 24.18 31.409999999999997, 24.224999999999998 31.619999999999997, 25.08 31.799999999999997 C 25.89 31.77, 25.995 31.875, 26.700000000000003 31.740000000000002 C 27.300000000000004 31.5, 27.39 31.485, 27.900000000000002 31.259999999999998 C 28.32 31.049999999999997, 28.53 30.944999999999997, 28.740000000000002 30.839999999999996 C 28.740000000000002 30.839999999999996, 28.740000000000002 30.839999999999996, 28.740000000000002 30.839999999999996 L 28.740000000000002 30.839999999999996" fill="none" stroke="black" stroke-width="5"></path><path d="M 19.98 7.14 C 19.590000000000003 7.620000000000001, 19.35 7.500000000000001, 19.200000000000003 8.100000000000001 C 19.29 8.82, 19.095 9.000000000000002, 19.38 9.540000000000001 C 19.86 9.9, 19.83 10.065, 20.34 10.26 C 20.88 10.29, 21.044999999999998 10.74, 21.419999999999998 10.32 C 21.63 9.45, 21.825 9.18, 21.84 8.58 C 21.66 8.25, 21.735 8.145, 21.48 7.92 C 21.15 7.8, 21.075 7.709999999999999, 20.82 7.68 C 20.64 7.74, 20.655 7.3950000000000005, 20.46 7.800000000000001 C 20.25 8.55, 19.994999999999997 8.700000000000001, 20.04 9.3 C 20.34 9.75, 20.22 10.29, 20.64 10.2 C 21.18 9.57, 21.45 9.42, 21.72 8.94 L 21.72 8.28" fill="none" stroke="black" stroke-width="5"></path><path d="M 16.259999999999998 15.54 C 17.159999999999997 15.54, 16.919999999999998 15.614999999999998, 18.06 15.54 C 19.439999999999998 15.39, 19.365000000000002 15.435, 20.82 15.24 C 22.35 15, 22.784999999999997 14.924999999999999, 23.88 14.76 C 24.54 14.670000000000002, 24.87 14.625000000000002, 25.200000000000003 14.580000000000002 L 25.200000000000003 14.580000000000002" fill="none" stroke="black" stroke-width="5"></path><path d="M 13.559999999999999 40.980000000000004 C 13.979999999999999 40.95, 13.11 41.1, 14.399999999999999 40.92 C 16.56 40.59, 16.634999999999998 40.605, 18.72 40.26 C 20.73 39.9, 21.270000000000003 39.72, 22.740000000000002 39.54 C 23.67 39.54, 23.505 39.54, 24.599999999999998 39.54 C 25.86 39.54, 26.115 39.54, 27.119999999999997 39.54 C 27.869999999999997 39.54, 28.049999999999997 39.54, 28.619999999999997 39.54 C 29.009999999999998 39.54, 29.160000000000004 39.54, 29.400000000000002 39.54 C 29.490000000000002 39.54, 29.505 39.54, 29.58 39.54 L 29.700000000000003 39.54" fill="none" stroke="black" stroke-width="5"></path></svg>