<svg xmlns="http://www.w3.org/2000/svg" viewBox="14 1.4200000762939453 21.60000228881836 43.69333362579346" width="21.60000228881836" height="43.69333362579346"><path d="M 15 12.66 C 15.24 12.66, 14.955 12.66, 15.48 12.66 C 16.29 12.66, 15.615000000000002 12.780000000000001, 17.1 12.66 C 19.259999999999998 12.42, 19.529999999999998 12.33, 21.419999999999998 12.18 C 23.04 12.12, 23.115000000000002 12.134999999999998, 24.660000000000004 12.059999999999999 C 26.130000000000003 11.969999999999999, 26.534999999999997 11.924999999999999, 27.599999999999998 11.879999999999999 C 28.259999999999998 11.879999999999999, 28.485000000000003 11.879999999999999, 28.92 11.879999999999999 C 29.13 11.879999999999999, 29.069999999999997 11.864999999999998, 29.339999999999996 11.879999999999999 C 29.669999999999998 11.91, 29.58 11.684999999999999, 30 11.94 C 30.509999999999998 12.419999999999998, 30.495 12.134999999999998, 31.02 12.899999999999999 C 31.559999999999995 13.95, 31.694999999999993 13.965, 32.099999999999994 15 C 32.37 16.02, 32.43 15.509999999999998, 32.64 17.04 C 32.79 19.08, 32.82 18.975, 32.94 21.12 C 33.03 23.369999999999997, 32.94 23.459999999999997, 33.12 25.619999999999997 C 33.39 27.689999999999998, 33.45 28.11, 33.660000000000004 29.759999999999998 C 33.81 30.99, 33.78 30.644999999999996, 33.96 32.22 C 34.17 34.14, 34.230000000000004 34.32, 34.38 36.06 C 34.47 37.620000000000005, 34.515 37.92, 34.56 39.18 C 34.56 40.14, 34.56 40.214999999999996, 34.56 41.099999999999994 C 34.56 41.91, 34.650000000000006 42.15, 34.56 42.72 C 34.38 43.05, 34.5 43.095, 34.2 43.38 C 33.78 43.620000000000005, 33.945 43.68, 33.36 43.86 C 32.61 43.98, 32.46 44.03999999999999, 31.86 44.099999999999994 C 31.41 44.099999999999994, 31.455 44.129999999999995, 30.96 44.099999999999994 C 30.42 44.04, 30.39 44.190000000000005, 29.880000000000003 43.980000000000004 C 29.400000000000002 43.620000000000005, 29.415000000000003 44.085, 28.92 43.26 C 28.410000000000004 41.97, 28.425000000000004 42.69, 27.900000000000002 40.68 C 27.36 37.95, 27.12 37.41, 26.82 35.22 C 26.76 33.57, 26.730000000000004 32.745000000000005, 26.700000000000003 31.92 C 26.700000000000003 31.92, 26.700000000000003 31.92, 26.700000000000003 31.92 L 26.700000000000003 31.92" fill="none" stroke="black" stroke-width="5"></path><path d="M 21.96 2.88 C 21.87 2.9699999999999998, 21.69 2.895, 21.78 3.06 C 22.05 3.3, 22.065 3.42, 22.32 3.54 C 22.56 3.54, 22.559999999999995 3.66, 22.799999999999997 3.54 C 23.04 3.3, 23.16 3.315, 23.28 3.06 C 23.28 2.79, 23.475 2.6550000000000002, 23.28 2.52 C 22.89 2.52, 22.785 2.295, 22.5 2.52 C 22.32 2.9699999999999998, 22.23 3, 22.14 3.42 C 22.14 3.8099999999999996, 22.05 3.959999999999999, 22.14 4.199999999999999 C 22.32 4.289999999999999, 22.335 4.5, 22.5 4.38 C 22.65 4.05, 22.724999999999998 3.9749999999999996, 22.799999999999997 3.7199999999999998 C 22.799999999999997 3.54, 22.799999999999997 3.45, 22.799999999999997 3.3600000000000003 C 22.799999999999997 3.3600000000000003, 22.874999999999996 3.3750000000000004, 22.799999999999997 3.3600000000000003 L 22.5 3.3000000000000003" fill="none" stroke="black" stroke-width="5"></path><path d="M 16.32 8.94 C 17.64 8.82, 17.235 8.879999999999999, 18.96 8.7 C 21.09 8.46, 21.615 8.325000000000001, 23.22 8.22 C 24.3 8.25, 24.450000000000003 8.205, 25.380000000000003 8.28 C 26.160000000000004 8.399999999999999, 26.55 8.459999999999999, 26.94 8.52 L 26.94 8.52" fill="none" stroke="black" stroke-width="5"></path></svg>