<svg xmlns="http://www.w3.org/2000/svg" viewBox="10.880000114440918 4.313333511352539 25.87999725341797 38.86666679382324" width="25.87999725341797" height="38.86666679382324"><path d="M 11.879999999999999 6.779999999999999 C 13.17 6.449999999999999, 12.825000000000001 6.48, 14.46 6.12 C 16.439999999999998 5.73, 17.055 5.535, 18.419999999999998 5.34 C 19.169999999999998 5.34, 19.169999999999998 5.34, 19.919999999999998 5.34 C 20.669999999999998 5.34, 20.4 5.34, 21.419999999999998 5.34 C 22.71 5.34, 22.35 5.34, 24 5.34 C 26.009999999999998 5.34, 26.4 5.279999999999999, 28.02 5.34 C 29.25 5.46, 29.22 5.46, 30.48 5.58 C 31.770000000000003 5.7, 32.055 5.6850000000000005, 33.06 5.82 C 33.78 5.970000000000001, 33.945 5.985, 34.5 6.12 C 34.89 6.24, 34.995000000000005 6.2700000000000005, 35.28 6.36 C 35.46 6.42, 35.52 6.42, 35.64 6.48 L 35.76 6.6000000000000005" fill="none" stroke="black" stroke-width="5"></path><path d="M 12.299999999999999 13.5 C 12.719999999999999 13.23, 12.3 13.350000000000001, 13.14 12.96 C 14.4 12.45, 14.370000000000001 12.315, 15.66 11.94 C 16.979999999999997 11.7, 17.115 11.579999999999998, 18.299999999999997 11.459999999999999 C 19.349999999999998 11.459999999999999, 19.29 11.459999999999999, 20.4 11.459999999999999 C 21.57 11.459999999999999, 21.495 11.459999999999999, 22.740000000000002 11.459999999999999 C 24.060000000000002 11.459999999999999, 23.970000000000002 11.399999999999999, 25.380000000000003 11.459999999999999 C 26.880000000000003 11.579999999999998, 26.865000000000002 11.549999999999999, 28.380000000000003 11.7 C 29.910000000000004 11.879999999999999, 30.015 11.879999999999999, 31.44 12.059999999999999 C 32.76 12.239999999999998, 33.375 12.329999999999998, 34.08 12.419999999999998 C 34.17 12.419999999999998, 34.214999999999996 12.419999999999998, 34.26 12.419999999999998 L 34.26 12.419999999999998" fill="none" stroke="black" stroke-width="5"></path><path d="M 19.5 11.52 C 18.9 11.879999999999999, 18.9 11.76, 18.299999999999997 12.24 C 17.7 12.84, 17.835 12.600000000000001, 17.1 13.440000000000001 C 16.23 14.520000000000001, 16.11 14.55, 15.36 15.600000000000001 C 14.73 16.62, 14.475000000000001 16.77, 14.100000000000001 17.64 C 13.98 18.36, 13.92 18.42, 13.86 19.080000000000002 C 13.86 19.68, 13.86 19.785000000000004, 13.86 20.28 C 13.86 20.67, 13.86 20.474999999999998, 13.86 21.06 C 13.86 21.84, 13.86 21.990000000000002, 13.86 22.62 C 13.86 23.1, 13.725 23.130000000000003, 13.86 23.580000000000002 C 14.129999999999999 24, 14.099999999999998 24.090000000000003, 14.399999999999999 24.42 C 14.729999999999999 24.660000000000004, 14.609999999999998 24.630000000000003, 15.059999999999999 24.900000000000002 C 15.63 25.200000000000003, 15.510000000000002 25.23, 16.200000000000003 25.5 C 17.01 25.740000000000002, 16.905 25.725, 17.82 25.98 C 18.84 26.25, 19.05 26.384999999999998, 19.86 26.52 C 20.46 26.52, 20.04 26.58, 21.06 26.52 C 22.5 26.4, 22.44 26.565, 23.94 26.28 C 25.5 25.830000000000002, 25.365 25.815000000000005, 27.06 25.380000000000003 C 28.89 24.96, 29.415 24.84, 30.72 24.54 C 31.5 24.36, 31.62 24.314999999999998, 32.28 24.18 C 32.82 24.09, 33.09 24.045, 33.36 24 L 33.36 24" fill="none" stroke="black" stroke-width="5"></path><path d="M 23.46 25.98 C 23.64 26.159999999999997, 23.73 26.009999999999998, 23.82 26.339999999999996 C 23.82 26.819999999999997, 23.82 26.834999999999994, 23.82 27.299999999999997 C 23.82 27.75, 23.82 27.660000000000004, 23.82 28.200000000000003 C 23.82 28.830000000000002, 23.85 28.770000000000003, 23.82 29.46 C 23.76 30.21, 23.835 30.270000000000003, 23.700000000000003 30.96 C 23.490000000000002 31.59, 23.535000000000004 31.455, 23.28 32.22 C 22.98 33.12, 23.07 33.12, 22.68 34.019999999999996 C 22.2 34.92, 22.305 34.965, 21.72 35.82 C 21.03 36.629999999999995, 20.939999999999998 36.78, 20.34 37.44 C 19.83 37.95, 19.875 37.905, 19.32 38.46 C 18.72 39.06, 18.75 39.105000000000004, 18.12 39.660000000000004 C 17.46 40.17, 17.699999999999996 40.2, 16.799999999999997 40.68 C 15.659999999999998 41.129999999999995, 15.405 41.25, 14.52 41.58 C 13.89 41.79, 13.8 41.85, 13.26 42 C 12.809999999999999 42.09, 12.584999999999999 42.135, 12.36 42.18 L 12.36 42.18" fill="none" stroke="black" stroke-width="5"></path><path d="M 19.98 38.400000000000006 C 20.369999999999997 38.400000000000006, 19.875 38.43000000000001, 20.759999999999998 38.400000000000006 C 22.14 38.34, 22.155 38.34, 23.52 38.28 C 24.869999999999997 38.22, 24.66 38.175000000000004, 26.22 38.160000000000004 C 27.99 38.19, 28.634999999999998 38.144999999999996, 29.759999999999998 38.22 C 30.24 38.34, 30.24 38.34, 30.72 38.46 C 31.2 38.58, 31.395 38.64, 31.68 38.7 L 31.86 38.7" fill="none" stroke="black" stroke-width="5"></path></svg>