<svg xmlns="http://www.w3.org/2000/svg" viewBox="12.380000114440918 5.900000095367432 19.366666793823242 38.840001583099365" width="19.366666793823242" height="38.840001583099365"><path d="M 14.04 41.82 C 13.95 40.2, 13.934999999999999 39.989999999999995, 13.86 38.58 C 13.8 37.379999999999995, 13.8 37.769999999999996, 13.74 36.18 C 13.68 34.2, 13.65 33.93, 13.620000000000001 32.22 C 13.620000000000001 30.779999999999998, 13.620000000000001 30.614999999999995, 13.620000000000001 29.339999999999996 C 13.620000000000001 28.229999999999997, 13.620000000000001 28.275, 13.620000000000001 27.119999999999997 C 13.620000000000001 25.919999999999998, 13.620000000000001 25.709999999999997, 13.620000000000001 24.72 C 13.620000000000001 23.939999999999998, 13.620000000000001 23.91, 13.620000000000001 23.16 C 13.620000000000001 22.439999999999998, 13.575000000000001 22.275, 13.620000000000001 21.72 C 13.71 21.33, 13.695 21.3, 13.799999999999999 20.94 C 13.919999999999998 20.61, 13.889999999999999 20.61, 14.04 20.28 C 14.219999999999999 19.950000000000003, 14.249999999999998 19.875, 14.399999999999999 19.62 C 14.52 19.439999999999998, 14.31 19.485, 14.64 19.259999999999998 C 15.18 18.99, 15.09 18.9, 15.72 18.72 C 16.44 18.63, 16.23 18.63, 17.16 18.54 C 18.3 18.45, 18.39 18.405, 19.44 18.36 C 20.4 18.36, 20.265 18.405, 21.36 18.36 C 22.59 18.27, 22.905 18.225, 23.82 18.18 C 24.42 18.18, 24.48 18.18, 25.02 18.18 C 25.5 18.18, 25.5 18.15, 25.98 18.18 C 26.46 18.24, 26.475 18.209999999999997, 26.94 18.299999999999997 C 27.39 18.419999999999998, 27.449999999999996 18.404999999999998, 27.839999999999996 18.54 C 28.169999999999998 18.689999999999998, 28.2 18.674999999999997, 28.5 18.84 C 28.77 19.020000000000003, 28.725 18.840000000000003, 29.04 19.200000000000003 C 29.4 19.740000000000002, 29.49 19.650000000000002, 29.759999999999998 20.28 C 29.939999999999998 21, 29.924999999999997 20.475, 30.119999999999997 21.72 C 30.33 23.49, 30.39 23.61, 30.54 25.259999999999998 C 30.63 26.79, 30.674999999999997 26.475, 30.72 28.32 C 30.72 30.48, 30.72 30.615000000000002, 30.72 32.64 C 30.72 34.53, 30.779999999999998 34.785000000000004, 30.72 36.42 C 30.6 37.8, 30.585 37.89, 30.48 39.18 C 30.39 40.379999999999995, 30.404999999999998 40.605, 30.299999999999997 41.58 C 30.18 42.33, 30.134999999999998 42.599999999999994, 30.06 43.08 C 30.03 43.29, 30.134999999999998 43.335, 30 43.5 L 29.52 43.74" fill="none" stroke="black" stroke-width="5"></path><path d="M 15.18 13.379999999999999 C 16.560000000000002 13.35, 16.5 13.335, 17.94 13.32 C 19.44 13.32, 19.575000000000003 13.32, 20.94 13.32 C 22.17 13.32, 22.125 13.32, 23.4 13.32 C 24.72 13.32, 25.02 13.365, 26.04 13.32 C 26.759999999999998 13.23, 26.85 13.185, 27.48 13.14 C 28.02 13.14, 28.095 13.14, 28.56 13.14 C 28.949999999999996 13.14, 28.964999999999996 13.14, 29.339999999999996 13.14 C 29.699999999999996 13.14, 29.834999999999997 13.14, 30.06 13.14 L 30.240000000000002 13.14" fill="none" stroke="black" stroke-width="5"></path><path d="M 13.379999999999999 8.58 C 14.85 8.4, 14.535 8.505, 16.32 8.22 C 18.42 7.83, 18.81 7.725, 20.52 7.4399999999999995 C 21.84 7.26, 22.005 7.215, 23.16 7.08 C 24.15 6.99, 24.075 6.944999999999999, 25.14 6.8999999999999995 C 26.28 6.8999999999999995, 26.370000000000005 6.8999999999999995, 27.42 6.8999999999999995 C 28.38 6.8999999999999995, 28.665 6.8999999999999995, 29.339999999999996 6.8999999999999995 C 29.729999999999997 6.8999999999999995, 29.894999999999996 6.8999999999999995, 30.119999999999997 6.8999999999999995 L 30.240000000000002 6.8999999999999995" fill="none" stroke="black" stroke-width="5"></path><path d="M 22.38 26.22 C 21.78 26.34, 21.78 26.115000000000002, 21.18 26.46 C 20.58 27.03, 20.385 27.15, 19.98 27.599999999999998 C 19.77 27.93, 19.665 27.794999999999998, 19.56 28.259999999999998 C 19.56 28.86, 19.56 28.815, 19.56 29.46 C 19.56 30.15, 19.47 30.209999999999997, 19.56 30.839999999999996 C 19.74 31.409999999999997, 19.709999999999997 31.589999999999996, 19.919999999999998 31.98 C 20.159999999999997 32.190000000000005, 20.084999999999997 32.205000000000005, 20.4 32.400000000000006 C 20.79 32.58, 20.79 32.655, 21.18 32.76 C 21.57 32.79, 21.57 32.805, 21.96 32.82 C 22.35 32.82, 22.425000000000004 32.82, 22.740000000000002 32.82 C 22.98 32.82, 22.86 32.955, 23.22 32.82 C 23.7 32.55, 23.759999999999998 32.625, 24.18 32.28 C 24.54 31.86, 24.645000000000003 31.845, 24.900000000000002 31.44 C 25.050000000000004 31.050000000000004, 25.080000000000002 31.095000000000002, 25.200000000000003 30.660000000000004 C 25.290000000000003 30.180000000000003, 25.335 30.135000000000005, 25.380000000000003 29.700000000000003 C 25.380000000000003 29.310000000000002, 25.380000000000003 29.265, 25.380000000000003 28.92 C 25.380000000000003 28.62, 25.515000000000004 28.68, 25.380000000000003 28.32 C 25.11 27.9, 25.095 27.75, 24.839999999999996 27.48 C 24.599999999999998 27.36, 24.644999999999996 27.405, 24.36 27.240000000000002 C 24.03 27.03, 24.060000000000002 26.97, 23.700000000000003 26.82 C 23.310000000000002 26.73, 23.28 26.700000000000003, 22.919999999999998 26.64 C 22.589999999999996 26.61, 22.455 26.61, 22.259999999999998 26.58 C 22.2 26.549999999999997, 22.17 26.535, 22.14 26.52 L 22.14 26.52" fill="none" stroke="black" stroke-width="5"></path></svg>