<svg xmlns="http://www.w3.org/2000/svg" viewBox="13.220000267028809 4.679999828338623 23.65999984741211 43.060001850128174" width="23.65999984741211" height="43.060001850128174"><path d="M 14.580000000000002 6.0600000000000005 C 15.090000000000002 6.0600000000000005, 14.535000000000002 6.0600000000000005, 15.600000000000001 6.0600000000000005 C 17.22 6.0600000000000005, 17.490000000000002 6.0600000000000005, 18.84 6.0600000000000005 C 19.92 6.0600000000000005, 19.845 6.15, 21 6.0600000000000005 C 22.23 5.88, 22.32 5.789999999999999, 23.46 5.699999999999999 C 24.509999999999998 5.699999999999999, 24.405 5.699999999999999, 25.56 5.699999999999999 C 26.82 5.699999999999999, 26.939999999999998 5.699999999999999, 28.08 5.699999999999999 C 29.099999999999998 5.699999999999999, 29.159999999999997 5.699999999999999, 30.119999999999997 5.699999999999999 C 31.02 5.699999999999999, 31.065 5.699999999999999, 31.92 5.699999999999999 C 32.730000000000004 5.699999999999999, 32.94 5.654999999999999, 33.54 5.699999999999999 C 33.93 5.789999999999999, 34.125 5.835, 34.32 5.88 L 34.32 5.88" fill="none" stroke="black" stroke-width="5"></path><path d="M 14.22 11.16 C 15.059999999999999 11.16, 14.834999999999999 11.16, 15.899999999999999 11.16 C 17.189999999999998 11.16, 16.965 11.16, 18.48 11.16 C 20.22 11.16, 20.445 11.115, 21.96 11.16 C 23.25 11.25, 23.055 11.235, 24.54 11.34 C 26.22 11.46, 26.040000000000003 11.52, 27.900000000000002 11.58 C 29.94 11.58, 30.39 11.535, 31.98 11.58 C 33.12 11.67, 33.36 11.715, 34.26 11.76 C 34.92 11.76, 35.175 11.76, 35.58 11.76 C 35.730000000000004 11.76, 35.805 11.76, 35.88 11.76 L 35.88 11.76" fill="none" stroke="black" stroke-width="5"></path><path d="M 19.740000000000002 12.600000000000001 C 19.26 13.71, 19.17 13.740000000000002, 18.78 14.82 C 18.48 15.87, 18.405 15.764999999999997, 18.18 16.919999999999998 C 18.03 18.18, 18.09 18.255000000000003, 17.88 19.44 C 17.61 20.55, 17.61 20.535, 17.34 21.66 C 17.07 22.8, 17.025 22.92, 16.799999999999997 23.94 C 16.619999999999997 24.840000000000003, 16.575000000000003 24.765000000000004, 16.44 25.740000000000002 C 16.35 26.79, 16.334999999999997 26.939999999999998, 16.259999999999998 27.839999999999996 C 16.2 28.589999999999996, 16.125 28.649999999999995, 16.14 29.339999999999996 C 16.23 29.97, 16.065 30.074999999999996, 16.32 30.599999999999998 C 16.740000000000002 31.02, 16.635 31.125, 17.16 31.44 C 17.79 31.65, 17.52 31.665, 18.419999999999998 31.86 C 19.589999999999996 32.04, 19.365 32.084999999999994, 20.759999999999998 32.22 C 22.38 32.31, 22.65 32.355000000000004, 24 32.400000000000006 C 25.080000000000002 32.400000000000006, 25.290000000000003 32.400000000000006, 26.160000000000004 32.400000000000006 C 26.82 32.400000000000006, 26.880000000000003 32.400000000000006, 27.48 32.400000000000006 C 28.02 32.400000000000006, 27.974999999999998 32.370000000000005, 28.56 32.400000000000006 C 29.189999999999998 32.46, 29.385 32.489999999999995, 29.82 32.519999999999996 C 30.06 32.519999999999996, 30.104999999999997 32.565, 30.299999999999997 32.519999999999996 C 30.449999999999996 32.42999999999999, 30.509999999999998 32.535, 30.599999999999998 32.339999999999996 C 30.630000000000003 32.04, 30.615000000000002 32.235, 30.660000000000004 31.740000000000002 C 30.720000000000002 31.05, 30.69 31.035, 30.78 30.36 C 30.9 29.7, 30.915 29.985, 31.02 29.04 C 31.11 27.81, 31.155 27.9, 31.200000000000003 26.58 C 31.200000000000003 25.169999999999998, 31.230000000000004 25.214999999999996, 31.200000000000003 23.759999999999998 C 31.14 22.259999999999998, 31.23 22.125, 31.08 20.759999999999998 C 30.839999999999996 19.529999999999998, 30.809999999999995 19.514999999999997, 30.599999999999998 18.299999999999997 C 30.42 17.099999999999998, 30.405 16.83, 30.240000000000002 15.899999999999999 C 30.090000000000003 15.24, 30.12 15.165000000000003, 29.94 14.580000000000002 C 29.73 14.07, 29.655 13.844999999999999, 29.52 13.559999999999999 C 29.46 13.5, 29.535000000000004 13.755, 29.400000000000002 13.440000000000001 C 29.19 12.870000000000001, 29.145 12.735, 28.98 12.299999999999999 C 28.86 12, 28.8 11.85, 28.740000000000002 11.7 L 28.740000000000002 11.7" fill="none" stroke="black" stroke-width="5"></path><path d="M 20.759999999999998 31.56 C 20.759999999999998 31.56, 20.759999999999998 31.349999999999998, 20.759999999999998 31.56 C 20.759999999999998 31.980000000000004, 20.759999999999998 31.830000000000005, 20.759999999999998 32.400000000000006 C 20.759999999999998 33.120000000000005, 20.759999999999998 33, 20.759999999999998 33.839999999999996 C 20.759999999999998 34.8, 20.759999999999998 34.544999999999995, 20.759999999999998 35.76 C 20.759999999999998 37.230000000000004, 20.669999999999998 37.335, 20.759999999999998 38.7 C 20.939999999999998 39.96, 21.03 40.004999999999995, 21.12 41.22 C 21.12 42.39, 21.12 42.69, 21.12 43.56 C 21.12 44.13, 21.12 44.190000000000005, 21.12 44.7 C 21.12 45.15, 21.12 45.33, 21.12 45.599999999999994 C 21.12 45.69, 21.12 45.555, 21.12 45.78 C 21.12 46.14, 21.12 46.32, 21.12 46.5 C 21.12 46.5, 21.150000000000002 46.44, 21.12 46.5 L 21 46.74" fill="none" stroke="black" stroke-width="5"></path><path d="M 27.42 32.339999999999996 C 27.450000000000003 33.209999999999994, 27.465 32.81999999999999, 27.48 34.08 C 27.48 35.730000000000004, 27.48 35.85, 27.48 37.38 C 27.48 38.790000000000006, 27.48 39.105000000000004, 27.48 40.2 C 27.48 40.980000000000004, 27.48 40.935, 27.48 41.76 C 27.48 42.629999999999995, 27.48 42.644999999999996, 27.48 43.5 C 27.48 44.34, 27.48 44.685, 27.48 45.18 C 27.48 45.33, 27.48 45.405, 27.48 45.480000000000004 C 27.48 45.480000000000004, 27.48 45.480000000000004, 27.48 45.480000000000004 C 27.48 45.480000000000004, 27.48 45.480000000000004, 27.48 45.480000000000004 C 27.48 45.480000000000004, 27.48 45.435, 27.48 45.480000000000004 C 27.48 45.57000000000001, 27.48 45.58500000000001, 27.48 45.660000000000004 C 27.48 45.72, 27.48 45.75, 27.48 45.78 C 27.48 45.78, 27.48 45.78, 27.48 45.78 L 27.48 45.78" fill="none" stroke="black" stroke-width="5"></path></svg>