<svg xmlns="http://www.w3.org/2000/svg" viewBox="13.34000015258789 4.21999979019165 20.360000610351562 40.64000082015991" width="20.360000610351562" height="40.64000082015991"><path d="M 14.580000000000002 6.540000000000001 C 16.020000000000003 6.540000000000001, 16.14 6.540000000000001, 17.46 6.540000000000001 C 18.66 6.540000000000001, 18.165 6.645000000000001, 19.86 6.540000000000001 C 22.05 6.33, 22.515 6.315, 24.240000000000002 6.12 C 25.5 5.9399999999999995, 25.56 5.9399999999999995, 26.759999999999998 5.76 C 27.9 5.58, 28.155 5.535, 29.04 5.4 C 29.669999999999998 5.3100000000000005, 29.669999999999998 5.265, 30.299999999999997 5.22 C 30.93 5.22, 31.095 5.22, 31.56 5.22 C 31.86 5.22, 32.010000000000005 5.22, 32.160000000000004 5.22 L 32.160000000000004 5.22" fill="none" stroke="black" stroke-width="5"></path><path d="M 14.34 13.379999999999999 C 15.69 13.139999999999999, 15.389999999999999 13.154999999999998, 17.04 12.899999999999999 C 18.990000000000002 12.629999999999999, 18.93 12.645, 20.94 12.36 C 23.009999999999998 12.059999999999999, 23.49 11.955, 25.08 11.76 C 26.189999999999998 11.67, 26.235 11.67, 27.299999999999997 11.58 C 28.319999999999997 11.489999999999998, 28.379999999999995 11.444999999999999, 29.339999999999996 11.399999999999999 C 30.24 11.399999999999999, 30.494999999999997 11.399999999999999, 31.14 11.399999999999999 C 31.53 11.399999999999999, 31.53 11.384999999999998, 31.92 11.399999999999999 C 32.31 11.43, 32.505 11.444999999999999, 32.7 11.459999999999999 C 32.7 11.459999999999999, 32.7 11.459999999999999, 32.7 11.459999999999999 L 32.7 11.459999999999999" fill="none" stroke="black" stroke-width="5"></path><path d="M 28.56 11.879999999999999 C 28.799999999999997 12.66, 28.65 12.225000000000001, 29.04 13.440000000000001 C 29.58 15.090000000000002, 29.639999999999997 15.120000000000003, 30.119999999999997 16.740000000000002 C 30.54 18.33, 30.54 18.525, 30.96 19.919999999999998 C 31.38 21.119999999999997, 31.485 21.3, 31.799999999999997 22.32 C 32.01 23.16, 32.06999999999999 23.19, 32.22 24 C 32.31 24.78, 32.31 24.765, 32.400000000000006 25.56 C 32.49 26.369999999999997, 32.715 26.4, 32.58 27.18 C 32.22 27.93, 32.205 28.155, 31.86 28.68 C 31.53 28.98, 31.560000000000002 29.1, 31.200000000000003 29.28 C 30.810000000000002 29.340000000000003, 30.93 29.37, 30.42 29.400000000000002 C 29.790000000000003 29.400000000000002, 29.85 29.610000000000003, 29.160000000000004 29.400000000000002 C 28.410000000000004 28.98, 28.305000000000007 29.085, 27.660000000000004 28.56 C 27.12 27.93, 27.09 28.244999999999997, 26.58 27.299999999999997 C 26.099999999999998 26.04, 26.025 25.815, 25.619999999999997 24.78 C 25.29 23.97, 25.125 23.565, 24.96 23.16 C 24.96 23.16, 24.96 23.16, 24.96 23.16 C 24.96 23.16, 24.945 22.995, 24.96 23.16 C 24.990000000000002 23.490000000000002, 25.005 23.19, 25.02 23.82 C 25.02 24.75, 25.049999999999997 24.945, 25.02 25.68 C 24.96 26.22, 25.080000000000002 26.174999999999997, 24.900000000000002 26.759999999999998 C 24.6 27.39, 24.659999999999997 27.45, 24.299999999999997 28.02 C 23.88 28.53, 23.925 28.575, 23.46 29.04 C 22.950000000000003 29.46, 23.085 29.46, 22.44 29.880000000000003 C 21.66 30.3, 21.794999999999998 30.36, 20.88 30.72 C 19.83 31.02, 19.725 31.17, 18.78 31.32 C 17.94 31.32, 17.985000000000003 31.32, 17.1 31.32 C 16.17 31.32, 15.855 31.32, 15.24 31.32 L 14.64 31.32" fill="none" stroke="black" stroke-width="5"></path><path d="M 23.34 35.94 C 22.770000000000003 36.12, 22.545 35.94, 22.200000000000003 36.3 C 22.080000000000002 36.84, 21.975 36.975, 21.96 37.38 C 22.05 37.650000000000006, 21.945 37.71, 22.14 37.92 C 22.44 38.07, 22.395000000000003 38.144999999999996, 22.740000000000002 38.22 C 23.130000000000003 38.22, 23.115000000000002 38.4, 23.52 38.22 C 23.939999999999998 37.86, 24.105 38.055, 24.36 37.5 C 24.45 36.75, 24.494999999999997 36.525, 24.54 36 C 24.54 35.7, 24.705 35.61000000000001, 24.54 35.400000000000006 C 24.21 35.28, 24.375 35.190000000000005, 23.88 35.160000000000004 C 23.22 35.22, 23.13 35.025000000000006, 22.56 35.28 C 22.08 35.730000000000004, 21.84 35.730000000000004, 21.6 36.18 C 21.6 36.629999999999995, 21.345000000000002 36.705, 21.6 37.08 C 22.11 37.379999999999995, 22.17 37.515, 22.62 37.68 C 23.009999999999998 37.71, 23.085 37.965, 23.4 37.74 C 23.64 37.260000000000005, 23.759999999999998 37.095, 23.88 36.78 C 23.88 36.63, 23.88 36.60000000000001, 23.88 36.480000000000004 C 23.88 36.39, 24.029999999999998 36.375, 23.88 36.3 C 23.58 36.239999999999995, 23.475 36.165, 23.28 36.18 L 23.1 36.36" fill="none" stroke="black" stroke-width="5"></path><path d="M 16.14 43.86 C 16.98 43.769999999999996, 16.905 43.769999999999996, 17.82 43.68 C 18.81 43.59, 18.689999999999998 43.635, 19.799999999999997 43.5 C 21.029999999999998 43.32, 20.97 43.32, 22.259999999999998 43.14 C 23.61 42.96, 23.745 42.915000000000006, 24.96 42.78 C 26.04 42.69, 26.069999999999997 42.69, 27.119999999999997 42.599999999999994 C 28.14 42.51, 28.545 42.465, 29.160000000000004 42.42 C 29.37 42.42, 29.475 42.42, 29.58 42.42 L 29.58 42.42" fill="none" stroke="black" stroke-width="5"></path></svg>