<svg xmlns="http://www.w3.org/2000/svg" viewBox="9.986666679382324 5.606666564941406 25.513333320617676 40.99333190917969" width="25.513333320617676" height="40.99333190917969"><path d="M 11.52 26.28 C 11.280000000000001 24.39, 11.16 24.48, 11.040000000000001 22.5 C 11.040000000000001 20.43, 11.040000000000001 20.009999999999998, 11.040000000000001 18.36 C 11.040000000000001 17.13, 10.920000000000002 17.084999999999997, 11.040000000000001 15.899999999999999 C 11.280000000000001 14.76, 11.219999999999999 14.775, 11.52 13.620000000000001 C 11.879999999999999 12.45, 11.55 12.645, 12.24 11.28 C 13.26 9.719999999999999, 13.5 9.24, 14.28 8.16 C 14.82 7.56, 14.924999999999999 7.3199999999999985, 15.36 6.959999999999999 C 15.69 6.84, 15.629999999999999 6.78, 16.02 6.720000000000001 C 16.47 6.720000000000001, 16.455 6.465000000000001, 16.919999999999998 6.720000000000001 C 17.4 7.23, 17.415 7.095000000000001, 17.88 7.74 C 18.33 8.52, 18.330000000000002 8.46, 18.78 9.3 C 19.23 10.200000000000001, 19.35 9.750000000000002, 19.68 11.100000000000001 C 19.89 12.900000000000002, 19.950000000000003 13.365000000000002, 20.1 14.700000000000001 C 20.19 15.57, 20.19 15.480000000000002, 20.28 16.44 C 20.37 17.490000000000002, 20.415 18.015, 20.46 18.54 C 20.46 18.54, 20.445 18.494999999999997, 20.46 18.54 C 20.490000000000002 18.63, 20.505 18.674999999999997, 20.52 18.72 C 20.52 18.72, 20.52 18.72, 20.52 18.72 C 20.52 18.72, 20.52 18.72, 20.52 18.72 C 20.52 18.72, 19.83 18.72, 20.52 18.72 C 21.9 18.72, 21.87 18.72, 23.28 18.72 C 24.720000000000002 18.72, 25.050000000000004 18.72, 26.160000000000004 18.72 C 26.94 18.72, 27.015 18.585, 27.72 18.72 C 28.35 18.99, 28.395 18.824999999999996, 28.98 19.259999999999998 C 29.52 19.86, 29.639999999999997 19.875, 30.06 20.46 C 30.36 21.03, 30.495000000000005 20.985000000000003, 30.660000000000004 21.6 C 30.69 22.259999999999998, 30.705 22.305, 30.72 22.919999999999998 C 30.72 23.49, 30.72 23.58, 30.72 24.06 C 30.72 24.449999999999996, 30.72 24.494999999999997, 30.72 24.839999999999996 C 30.72 25.14, 30.75 25.275, 30.72 25.44 L 30.599999999999998 25.5" fill="none" stroke="black" stroke-width="5"></path><path d="M 20.759999999999998 13.620000000000001 C 22.83 13.530000000000001, 23.175 13.545000000000002, 24.900000000000002 13.440000000000001 C 26.28 13.32, 26.115000000000006 13.305000000000001, 27.660000000000004 13.200000000000001 C 29.37 13.11, 29.43 13.11, 31.08 13.02 C 32.67 12.93, 33.405 12.885, 34.26 12.84 L 34.5 12.84" fill="none" stroke="black" stroke-width="5"></path><path d="M 19.080000000000002 9.600000000000001 C 20.76 9.600000000000001, 20.925 9.600000000000001, 22.44 9.600000000000001 C 23.79 9.600000000000001, 23.805 9.705000000000002, 25.14 9.600000000000001 C 26.46 9.39, 26.595 9.345, 27.78 9.18 C 28.830000000000002 9.059999999999999, 29.010000000000005 9.015, 29.880000000000003 8.94 L 31.259999999999998 8.879999999999999" fill="none" stroke="black" stroke-width="5"></path><path d="M 20.34 19.080000000000002 C 20.34 19.770000000000003, 20.355 19.470000000000002, 20.34 20.46 C 20.310000000000002 21.75, 20.385 21.645, 20.28 23.04 C 20.1 24.54, 20.07 24.674999999999997, 19.919999999999998 26.04 C 19.799999999999997 27.27, 19.98 27.314999999999998, 19.68 28.5 C 19.2 29.64, 19.485 29.580000000000002, 18.72 30.78 C 17.67 32.04, 17.745 32.205, 16.62 33.3 C 15.420000000000002 34.230000000000004, 14.940000000000001 34.605000000000004, 14.22 35.160000000000004 L 13.74 35.519999999999996" fill="none" stroke="black" stroke-width="5"></path><path d="M 26.64 30.900000000000002 C 26.64 31.590000000000003, 26.85 31.095000000000002, 26.64 32.28 C 26.22 33.96, 26.384999999999998 34.11, 25.799999999999997 35.64 C 25.049999999999997 37.02, 25.064999999999998 37.2, 24.299999999999997 38.400000000000006 C 23.52 39.42, 23.67 39.36, 22.740000000000002 40.44 C 21.660000000000004 41.58, 21.675000000000004 41.745, 20.580000000000002 42.72 C 19.47 43.53, 19.44 43.62, 18.36 44.339999999999996 C 17.31 44.97, 16.83 45.285, 16.259999999999998 45.599999999999994 L 16.080000000000002 45.599999999999994" fill="none" stroke="black" stroke-width="5"></path></svg>