<svg xmlns="http://www.w3.org/2000/svg" viewBox="9.15333366394043 7.233333587646484 27.66666603088379 36.26070022583008" width="27.66666603088379" height="36.26070022583008"><path d="M 10.44 40.980000000000004 C 10.44 39.03, 10.5 39.99, 10.44 37.08 C 10.32 33.209999999999994, 10.26 32.775, 10.2 29.339999999999996 C 10.2 26.339999999999996, 10.2 26.1, 10.2 23.34 C 10.2 20.82, 10.2 20.205, 10.2 18.299999999999997 C 10.2 17.009999999999998, 10.2 16.785, 10.2 15.72 C 10.2 14.879999999999999, 10.094999999999999 14.85, 10.2 14.04 C 10.41 13.26, 10.275 13.23, 10.620000000000001 12.48 C 11.100000000000001 11.760000000000002, 11.175 11.610000000000001, 11.58 11.040000000000001 C 11.91 10.620000000000001, 11.82 10.62, 12.24 10.2 C 12.75 9.78, 12.615 9.78, 13.26 9.36 C 14.04 8.94, 14.145 8.79, 14.82 8.52 C 15.39 8.399999999999999, 15.435000000000002 8.34, 15.96 8.28 C 16.439999999999998 8.28, 16.529999999999998 8.28, 16.919999999999998 8.28 C 17.22 8.28, 17.085 8.174999999999999, 17.52 8.28 C 18.09 8.489999999999998, 18.165 8.37, 18.66 8.7 C 19.08 9.15, 19.095 9.075000000000001, 19.5 9.600000000000001 C 19.89 10.200000000000001, 19.845 10.005, 20.28 10.8 C 20.76 11.79, 20.880000000000003 11.61, 21.240000000000002 12.78 C 21.48 14.129999999999999, 21.555 13.965, 21.72 15.48 C 21.81 17.16, 21.915 17.25, 21.9 18.84 C 21.78 20.34, 21.72 20.64, 21.66 21.84 C 21.66 22.740000000000002, 21.66 22.8, 21.66 23.64 C 21.66 24.42, 21.66 24.690000000000005, 21.66 25.200000000000003 C 21.66 25.44, 21.66 25.560000000000002, 21.66 25.68 C 21.66 25.68, 21.66 25.68, 21.66 25.68 C 21.66 25.68, 21.66 25.68, 21.66 25.68 C 21.66 25.68, 21.66 25.68, 21.66 25.68 C 21.66 25.68, 21.66 25.68, 21.66 25.68 C 21.66 25.68, 21.66 25.68, 21.66 25.68 C 21.66 25.68, 21.54 25.634999999999998, 21.66 25.68 C 21.9 25.77, 21.315 25.785, 22.14 25.86 C 23.55 25.92, 23.865000000000002 25.86, 24.96 25.98 C 25.740000000000002 26.159999999999997, 25.8 26.069999999999997, 26.52 26.339999999999996 C 27.18 26.699999999999996, 27.254999999999995 26.625, 27.839999999999996 27.06 C 28.349999999999998 27.57, 28.544999999999998 27.584999999999997, 28.86 28.08 C 28.979999999999997 28.56, 29.04 28.455, 29.099999999999998 29.04 C 29.099999999999998 29.73, 29.4 29.67, 29.099999999999998 30.42 C 28.5 31.23, 28.545 31.424999999999997, 27.900000000000002 32.04 C 27.21 32.46, 27.66 32.625, 26.52 32.88 C 24.93 32.97, 24.375 33.015, 23.34 33.06 C 22.86 33.06, 22.71 33.06, 22.38 33.06 C 22.2 33.06, 22.11 33.06, 22.02 33.06 C 22.02 33.06, 22.02 33.06, 22.02 33.06 C 22.02 33.06, 22.02 33.06, 22.02 33.06 C 22.02 33.06, 21.99 33.06, 22.02 33.06 C 22.08 33.06, 21.555 33.06, 22.14 33.06 C 23.25 33.06, 23.46 33.015, 24.36 33.06 C 25.05 33.150000000000006, 25.23 33.135000000000005, 25.740000000000002 33.24 C 26.07 33.36, 25.950000000000003 33.255, 26.400000000000002 33.480000000000004 C 26.97 33.81, 27.044999999999998 33.78, 27.54 34.14 C 27.96 34.53, 28.020000000000003 34.485, 28.380000000000003 34.92 C 28.68 35.400000000000006, 28.755000000000003 35.205000000000005, 28.98 35.88 C 29.130000000000003 36.75, 29.205000000000002 36.945, 29.28 37.62 C 29.28 38.099999999999994, 29.520000000000003 37.964999999999996, 29.28 38.58 C 28.8 39.33, 28.935000000000002 39.434999999999995, 28.32 40.08 C 27.57 40.620000000000005, 27.885 40.575, 26.82 41.160000000000004 C 25.439999999999998 41.790000000000006, 25.08 42.09, 24.06 42.42 C 23.4 42.45, 23.505000000000003 42.525000000000006, 22.740000000000002 42.480000000000004 C 21.87 42.36, 21.675 42.36, 21 42.24 C 20.52 42.120000000000005, 20.28 42.06, 20.04 42 C 20.04 42, 20.085 42.03, 20.04 42 L 19.86 41.88" fill="none" stroke="black" stroke-width="5"></path><path d="M 21.18 13.620000000000001 C 21.509999999999998 13.530000000000001, 21.45 13.485000000000001, 21.84 13.440000000000001 C 22.29 13.440000000000001, 21.900000000000002 13.605000000000002, 22.740000000000002 13.440000000000001 C 23.970000000000002 13.11, 24.015000000000004 13.05, 25.200000000000003 12.78 C 26.340000000000003 12.57, 26.535 12.51, 27.48 12.36 C 28.23 12.27, 28.200000000000003 12.225, 28.98 12.18 C 29.79 12.18, 29.939999999999998 12.18, 30.599999999999998 12.18 L 31.619999999999997 12.18" fill="none" stroke="black" stroke-width="5"></path><path d="M 22.5 17.759999999999998 C 24.48 17.759999999999998, 24.39 17.819999999999997, 26.46 17.759999999999998 C 28.62 17.64, 28.8 17.58, 30.78 17.52 C 32.58 17.52, 33.120000000000005 17.505, 34.38 17.52 L 35.82 17.580000000000002" fill="none" stroke="black" stroke-width="5"></path></svg>