<svg xmlns="http://www.w3.org/2000/svg" viewBox="14.899999618530273 5.113333225250244 18.500001907348633 37.64666414260864" width="18.500001907348633" height="37.64666414260864"><path d="M 15.899999999999999 16.200000000000003 C 16.47 16.14, 15.915 16.26, 17.04 16.080000000000002 C 18.72 15.780000000000001, 18.75 15.780000000000001, 20.4 15.48 C 22.02 15.18, 22.365000000000002 15.075, 23.64 14.879999999999999 C 24.57 14.79, 24.765 14.775, 25.5 14.700000000000001 C 26.04 14.64, 25.994999999999997 14.610000000000001, 26.58 14.580000000000002 C 27.209999999999997 14.580000000000002, 27.33 14.580000000000002, 27.839999999999996 14.580000000000002 C 28.229999999999997 14.580000000000002, 28.244999999999997 14.490000000000002, 28.619999999999997 14.580000000000002 C 28.979999999999997 14.760000000000002, 28.949999999999996 14.640000000000002, 29.339999999999996 14.940000000000001 C 29.759999999999998 15.36, 29.805 15.315000000000001, 30.18 15.78 C 30.509999999999998 16.29, 30.509999999999998 16.199999999999996, 30.839999999999996 16.799999999999997 C 31.169999999999998 17.49, 31.229999999999997 17.369999999999997, 31.5 18.18 C 31.71 19.11, 31.770000000000003 19.11, 31.92 20.04 C 32.01 20.97, 32.00999999999999 20.669999999999998, 32.099999999999994 21.9 C 32.19 23.43, 32.235 23.415, 32.28 24.96 C 32.28 26.52, 32.385000000000005 26.265, 32.28 28.08 C 32.07 30.15, 32.01 30.674999999999997, 31.86 32.22 C 31.77 33.239999999999995, 31.77 33.074999999999996, 31.68 34.26 C 31.59 35.61, 31.59 35.85, 31.5 36.96 C 31.41 37.83, 31.41 37.965, 31.32 38.7 C 31.23 39.300000000000004, 31.26 39.36000000000001, 31.14 39.900000000000006 C 30.99 40.38, 30.915 40.53, 30.839999999999996 40.86 C 30.839999999999996 41.04, 30.884999999999994 41.055, 30.839999999999996 41.22 C 30.75 41.37, 30.750000000000004 41.385, 30.660000000000004 41.519999999999996 L 30.48 41.76" fill="none" stroke="black" stroke-width="5"></path><path d="M 17.28 11.22 C 19.23 11.07, 19.545 10.995000000000001, 21.18 10.92 C 22.5 10.92, 22.485 10.905, 23.82 10.92 C 25.17 10.95, 25.08 10.92, 26.52 10.98 C 28.049999999999997 11.07, 28.409999999999997 11.115, 29.58 11.16 C 30.39 11.16, 30.765 11.16, 31.200000000000003 11.16 L 31.32 11.16" fill="none" stroke="black" stroke-width="5"></path><path d="M 18.419999999999998 6.12 C 19.74 6.12, 19.455 6.12, 21.06 6.12 C 22.949999999999996 6.12, 23.324999999999996 6.12, 24.839999999999996 6.12 C 25.979999999999997 6.12, 26.069999999999997 6.12, 27.119999999999997 6.12 C 28.08 6.12, 28.154999999999998 6.105, 29.04 6.12 C 29.85 6.15, 29.82 6.165, 30.660000000000004 6.18 C 31.530000000000005 6.18, 31.965000000000003 6.18, 32.400000000000006 6.18 L 32.400000000000006 6.18" fill="none" stroke="black" stroke-width="5"></path><path d="M 22.86 24.900000000000002 C 22.86 25.29, 22.725 25.365, 22.86 25.68 C 23.13 25.92, 23.115 26.040000000000003, 23.4 26.160000000000004 C 23.7 26.160000000000004, 23.744999999999997 26.280000000000005, 24 26.160000000000004 C 24.21 25.92, 24.315 26.085, 24.42 25.68 C 24.42 25.11, 24.540000000000003 24.93, 24.42 24.54 C 24.18 24.33, 24.225 24.224999999999998, 23.94 24.119999999999997 C 23.61 24.119999999999997, 23.775000000000002 23.894999999999996, 23.28 24.119999999999997 C 22.62 24.57, 22.32 24.6, 21.96 25.02 C 21.9 25.409999999999997, 21.75 25.484999999999996, 21.84 25.799999999999997 C 22.08 26.04, 22.005 26.115000000000002, 22.32 26.28 C 22.71 26.37, 22.815 26.580000000000002, 23.1 26.46 C 23.28 26.13, 23.37 26.159999999999997, 23.46 25.799999999999997 C 23.46 25.409999999999997, 23.505000000000003 25.349999999999998, 23.46 25.02 C 23.37 24.75, 23.37 24.63, 23.28 24.48 C 23.19 24.450000000000003, 23.25 24.285000000000004, 23.1 24.42 C 22.89 24.72, 22.785 24.825, 22.68 25.02 L 22.68 25.200000000000003" fill="none" stroke="black" stroke-width="5"></path><path d="M 18.48 31.5 C 18.48 31.38, 18.435000000000002 31.334999999999997, 18.48 31.259999999999998 C 18.57 31.23, 18.285 31.26, 18.66 31.200000000000003 C 19.32 31.11, 19.155 31.065, 19.98 31.02 C 20.97 31.02, 21 31.02, 21.96 31.02 C 22.89 31.02, 22.86 31.02, 23.82 31.02 C 24.81 31.02, 25.004999999999995 31.02, 25.799999999999997 31.02 C 26.4 31.02, 26.534999999999997 31.02, 27 31.02 L 27.660000000000004 31.02" fill="none" stroke="black" stroke-width="5"></path></svg>