<svg xmlns="http://www.w3.org/2000/svg" viewBox="8.720000267028809 4.519999980926514 16.489617347717285 36.97999906539917" width="16.489617347717285" height="36.97999906539917"><path d="M 10.02 6.779999999999999 C 13.26 6.39, 13.425 6.3149999999999995, 16.5 6 C 19.41 5.76, 20.445 5.640000000000001, 22.32 5.5200000000000005 C 23.16 5.5200000000000005, 23.58 5.5200000000000005, 24 5.5200000000000005 L 24 5.5200000000000005" fill="none" stroke="black" stroke-width="5"></path><path d="M 10.02 11.879999999999999 C 12.120000000000001 11.879999999999999, 11.925 11.969999999999999, 14.22 11.879999999999999 C 16.71 11.7, 17.280000000000005 11.64, 19.200000000000003 11.52 C 20.55 11.459999999999999, 20.715 11.43, 21.9 11.399999999999999 L 23.94 11.399999999999999" fill="none" stroke="black" stroke-width="5"></path><path d="M 9.72 15.54 C 10.530000000000001 15.54, 9.93 15.54, 11.34 15.54 C 13.35 15.54, 13.485 15.54, 15.36 15.54 C 17.1 15.54, 17.4 15.495, 18.84 15.54 C 19.98 15.629999999999999, 20.07 15.555, 21.12 15.72 C 22.08 15.96, 22.38 15.900000000000004, 23.04 16.200000000000003 C 23.4 16.560000000000002, 23.49 16.365, 23.759999999999998 16.919999999999998 C 23.939999999999998 17.669999999999998, 24.044999999999998 17.264999999999997, 24.119999999999997 18.419999999999998 C 24.089999999999996 19.979999999999997, 24.375 19.814999999999998, 24.06 21.54 C 23.46 23.43, 23.865 23.25, 22.86 25.32 C 21.45 27.57, 21.465 27.42, 20.04 29.82 C 18.6 32.370000000000005, 18.42 32.565, 17.16 34.92 C 16.08 37.08, 15.690000000000001 37.905, 15 39.24 C 14.7 39.75, 14.549999999999999 40.004999999999995, 14.399999999999999 40.26 C 14.399999999999999 40.26, 14.474999999999998 40.199999999999996, 14.399999999999999 40.26 L 14.100000000000001 40.5" fill="none" stroke="black" stroke-width="5"></path></svg>