<svg xmlns="http://www.w3.org/2000/svg" viewBox="17.18000030517578 6.793333530426025 18.439998626708984 36.14666509628296" width="18.439998626708984" height="36.14666509628296"><path d="M 18.18 15.54 C 18.72 15.54, 18.479999999999997 15.54, 19.259999999999998 15.54 C 20.279999999999998 15.54, 20.294999999999995 15.54, 21.299999999999997 15.54 C 22.29 15.54, 22.080000000000002 15.584999999999999, 23.28 15.54 C 24.689999999999998 15.45, 25.125 15.405, 26.099999999999998 15.36 C 26.64 15.36, 26.55 15.36, 27.18 15.36 C 27.9 15.36, 27.929999999999996 15.36, 28.619999999999997 15.36 C 29.28 15.36, 29.46 15.329999999999998, 29.94 15.36 C 30.240000000000002 15.42, 30.299999999999997 15.405000000000001, 30.54 15.48 C 30.72 15.57, 30.69 15.51, 30.900000000000002 15.66 C 31.14 15.870000000000001, 31.155000000000005 15.780000000000001, 31.380000000000003 16.080000000000002 C 31.59 16.47, 31.634999999999998 16.5, 31.799999999999997 16.86 C 31.919999999999998 17.189999999999998, 31.949999999999996 17.115, 32.04 17.52 C 32.1 18, 32.190000000000005 17.82, 32.160000000000004 18.48 C 32.040000000000006 19.32, 32.05500000000001 19.245, 31.92 20.16 C 31.77 21.15, 31.83 21.045, 31.619999999999997 22.14 C 31.349999999999998 23.34, 31.394999999999996 23.445, 31.08 24.54 C 30.72 25.53, 30.779999999999998 25.229999999999997, 30.36 26.52 C 29.880000000000003 28.11, 29.835 28.380000000000003, 29.400000000000002 29.700000000000003 C 29.009999999999998 30.75, 29.054999999999996 30.584999999999997, 28.619999999999997 31.799999999999997 C 28.14 33.18, 27.975 33.525000000000006, 27.660000000000004 34.56 C 27.51 35.25, 27.54 35.355, 27.36 35.94 C 27.15 36.42, 27.045 36.660000000000004, 26.94 36.900000000000006 C 26.94 36.900000000000006, 26.94 36.900000000000006, 26.94 36.900000000000006 L 26.94 36.900000000000006" fill="none" stroke="black" stroke-width="5"></path><path d="M 18.240000000000002 11.76 C 18.9 11.91, 18.78 11.939999999999998, 19.56 12.059999999999999 C 20.46 12.149999999999999, 20.61 12.195, 21.36 12.24 C 21.96 12.24, 21.585 12.195, 22.56 12.24 C 23.909999999999997 12.329999999999998, 24.014999999999997 12.374999999999998, 25.259999999999998 12.419999999999998 C 26.4 12.419999999999998, 26.369999999999997 12.419999999999998, 27.54 12.419999999999998 C 28.740000000000002 12.419999999999998, 28.965 12.419999999999998, 29.94 12.419999999999998 C 30.69 12.419999999999998, 30.630000000000003 12.419999999999998, 31.44 12.419999999999998 C 32.31 12.419999999999998, 32.715 12.419999999999998, 33.18 12.419999999999998 L 33.3 12.419999999999998" fill="none" stroke="black" stroke-width="5"></path><path d="M 18.18 7.800000000000001 C 19.380000000000003 7.800000000000001, 19.395000000000003 7.800000000000001, 20.580000000000002 7.800000000000001 C 21.75 7.800000000000001, 21.63 7.785000000000001, 22.919999999999998 7.800000000000001 C 24.33 7.83, 24.450000000000003 7.845000000000001, 25.740000000000002 7.86 C 26.91 7.86, 26.955 7.86, 28.08 7.86 C 29.16 7.86, 29.37 7.86, 30.240000000000002 7.86 C 30.9 7.86, 30.78 7.86, 31.56 7.86 C 32.46 7.86, 32.67 7.86, 33.36 7.86 C 33.84 7.86, 34.005 7.86, 34.32 7.86 L 34.62 7.86" fill="none" stroke="black" stroke-width="5"></path><path d="M 19.740000000000002 37.14 C 20.46 37.14, 20.13 37.185, 21.18 37.14 C 22.560000000000002 37.05, 22.71 37.005, 23.94 36.96 C 25.02 36.96, 24.974999999999998 36.96, 26.099999999999998 36.96 C 27.27 36.96, 27.57 36.96, 28.44 36.96 C 29.009999999999998 36.96, 28.724999999999998 36.96, 29.58 36.96 C 30.72 36.96, 30.99 36.96, 31.86 36.96 C 32.46 36.96, 32.760000000000005 36.96, 33.06 36.96 L 33.06 36.96" fill="none" stroke="black" stroke-width="5"></path><path d="M 19.02 41.94 C 19.53 41.879999999999995, 19.244999999999997 41.85, 20.04 41.82 C 21.12 41.82, 21.120000000000005 41.805, 22.200000000000003 41.82 C 23.28 41.85, 23.07 41.865, 24.36 41.88 C 25.86 41.88, 25.395 41.88, 27.36 41.88 C 29.79 41.88, 30.54 41.88, 32.22 41.88 C 33.15 41.88, 33.54 41.88, 34.08 41.88 C 34.230000000000004 41.88, 34.305 41.88, 34.38 41.88 L 34.38 41.88" fill="none" stroke="black" stroke-width="5"></path></svg>