<svg xmlns="http://www.w3.org/2000/svg" viewBox="10.126667022705078 2.9600000381469727 20.273332595825195 41.47999858856201" width="20.273332595825195" height="41.47999858856201"><path d="M 12.54 28.86 C 12.059999999999999 27.24, 11.925 27.194999999999997, 11.58 25.619999999999997 C 11.370000000000001 24.089999999999996, 11.265 24.015, 11.16 22.56 C 11.16 21.18, 11.085 21.059999999999995, 11.16 19.799999999999997 C 11.309999999999999 18.659999999999997, 11.145 18.435, 11.459999999999999 17.52 C 11.939999999999998 16.83, 11.789999999999997 16.695, 12.419999999999998 16.14 C 13.2 15.719999999999999, 13.379999999999999 15.54, 13.98 15.299999999999999 C 14.4 15.239999999999998, 14.235 14.775, 14.82 15.18 C 15.57 16.049999999999997, 15.690000000000001 15.779999999999998, 16.32 16.919999999999998 C 16.83 18.33, 16.845 17.82, 17.34 19.740000000000002 C 17.82 22.17, 18.014999999999997 23.22, 18.299999999999997 24.599999999999998 C 18.39 24.93, 18.42 25.095, 18.48 25.259999999999998 C 18.509999999999998 25.259999999999998, 18.54 25.875, 18.54 25.259999999999998 C 18.509999999999998 24.029999999999998, 18.495 23.984999999999996, 18.48 22.799999999999997 C 18.48 21.659999999999997, 18.42 21.659999999999997, 18.48 20.52 C 18.6 19.380000000000003, 18.54 19.110000000000003, 18.72 18.240000000000002 C 18.96 17.64, 18.840000000000003 17.535, 19.200000000000003 17.04 C 19.68 16.65, 19.635 16.529999999999998, 20.16 16.259999999999998 C 20.729999999999997 16.11, 20.714999999999996 16.080000000000002, 21.299999999999997 15.96 C 21.9 15.870000000000001, 21.884999999999998 15.87, 22.5 15.78 C 23.13 15.690000000000001, 23.189999999999998 15.690000000000001, 23.759999999999998 15.600000000000001 C 24.27 15.51, 24.18 15.465, 24.78 15.419999999999998 C 25.470000000000002 15.419999999999998, 25.665000000000006 15.419999999999998, 26.160000000000004 15.419999999999998 C 26.46 15.419999999999998, 26.46 15.329999999999998, 26.759999999999998 15.419999999999998 C 27.06 15.599999999999998, 27.09 15.45, 27.36 15.78 C 27.599999999999998 16.26, 27.584999999999994 15.885000000000002, 27.839999999999996 16.740000000000002 C 28.11 17.970000000000002, 28.185000000000002 18.000000000000004, 28.380000000000003 19.200000000000003 C 28.5 20.37, 28.529999999999998 20.505, 28.619999999999997 21.54 C 28.68 22.439999999999998, 28.650000000000002 22.485, 28.740000000000002 23.34 C 28.86 24.15, 28.86 24.270000000000003, 28.98 24.96 C 29.1 25.53, 29.16 25.784999999999997, 29.22 26.099999999999998 C 29.22 26.159999999999997, 29.174999999999997 25.979999999999997, 29.22 26.22 C 29.310000000000002 26.64, 29.355 26.849999999999998, 29.400000000000002 27.06 L 29.400000000000002 27.06" fill="none" stroke="black" stroke-width="5"></path><path d="M 11.399999999999999 10.2 C 11.94 10.2, 11.34 10.2, 12.48 10.2 C 14.22 10.2, 13.98 10.2, 15.96 10.2 C 18.18 10.2, 18.615 10.245, 20.4 10.2 C 21.75 10.11, 22.020000000000003 10.065, 23.1 10.02 C 23.91 10.02, 24.045 10.02, 24.72 10.02 C 25.259999999999998 10.02, 25.334999999999997 10.02, 25.799999999999997 10.02 C 26.189999999999998 10.02, 26.354999999999997 10.02, 26.58 10.02 L 26.700000000000003 10.02" fill="none" stroke="black" stroke-width="5"></path><path d="M 12.120000000000001 3.96 C 14.07 4.17, 13.71 4.245, 16.02 4.38 C 18.689999999999998 4.4399999999999995, 19.05 4.47, 21.36 4.5 C 23.31 4.5, 23.775 4.5, 25.259999999999998 4.5 C 26.279999999999998 4.5, 26.79 4.5, 27.299999999999997 4.5 C 27.299999999999997 4.5, 27.299999999999997 4.5, 27.299999999999997 4.5 L 27.299999999999997 4.5" fill="none" stroke="black" stroke-width="5"></path><path d="M 22.68 17.1 C 22.68 18.69, 22.68 18.990000000000002, 22.68 20.28 C 22.68 21.27, 22.725 21.134999999999998, 22.68 22.259999999999998 C 22.59 23.52, 22.665 23.445, 22.5 24.78 C 22.259999999999998 26.189999999999998, 22.35 26.009999999999998, 22.02 27.599999999999998 C 21.6 29.369999999999997, 21.54 29.55, 21.18 31.14 C 20.880000000000003 32.55, 20.805 32.910000000000004, 20.580000000000002 33.96 C 20.43 34.65, 20.55 34.455, 20.28 35.339999999999996 C 19.89 36.42, 20.115000000000002 36.39, 19.5 37.5 C 18.66 38.64, 18.615000000000002 38.895, 17.82 39.78 C 17.07 40.41, 17.055 40.425, 16.32 41.04 C 15.6 41.64, 15.419999999999998 41.805, 14.879999999999999 42.24 C 14.52 42.510000000000005, 14.415 42.555, 14.16 42.78 C 14.01 42.96, 14.024999999999999 43.02, 13.86 43.14 C 13.68 43.2, 13.620000000000001 43.199999999999996, 13.5 43.26 C 13.44 43.32, 13.5 43.335, 13.379999999999999 43.38 L 13.02 43.44" fill="none" stroke="black" stroke-width="5"></path><path d="M 17.4 39.839999999999996 C 17.7 39.81, 17.7 39.81, 18 39.78 C 18.3 39.75, 18.135 39.84, 18.6 39.72 C 19.23 39.51, 19.14 39.48, 19.86 39.3 C 20.67 39.15, 20.85 39.09, 21.48 39 C 21.93 38.97, 21.915 38.97, 22.38 38.94 C 22.86 38.91, 22.755 38.925000000000004, 23.34 38.88 C 24.03 38.82, 24.044999999999998 38.79, 24.72 38.76 C 25.38 38.76, 25.275 38.79, 26.04 38.76 C 26.91 38.7, 27.18 38.67, 27.78 38.64 C 28.11 38.64, 28.095 38.64, 28.44 38.64 C 28.800000000000004 38.64, 28.980000000000004 38.64, 29.160000000000004 38.64 L 29.160000000000004 38.64" fill="none" stroke="black" stroke-width="5"></path></svg>