<svg xmlns="http://www.w3.org/2000/svg" viewBox="13.699999809265137 4.74666690826416 17.840001106262207 35.7666654586792" width="17.840001106262207" height="35.7666654586792"><path d="M 17.88 34.38 C 17.88 34.41, 18.15 35.339999999999996, 17.88 34.44 C 17.339999999999996 32.61, 17.294999999999998 32.7, 16.799999999999997 30.78 C 16.349999999999998 28.77, 16.244999999999997 28.439999999999998, 15.899999999999999 26.759999999999998 C 15.659999999999998 25.409999999999997, 15.629999999999999 25.485, 15.419999999999998 24.06 C 15.239999999999998 22.56, 15.194999999999999 22.259999999999998, 15.059999999999999 21.06 C 14.969999999999999 20.159999999999997, 14.924999999999999 20.069999999999997, 14.879999999999999 19.259999999999998 C 14.879999999999999 18.54, 14.879999999999999 18.375, 14.879999999999999 17.82 C 14.879999999999999 17.43, 14.774999999999999 17.445, 14.879999999999999 17.04 C 15.09 16.62, 15.044999999999998 16.620000000000005, 15.299999999999999 16.200000000000003 C 15.599999999999998 15.780000000000001, 15.629999999999999 15.675, 15.899999999999999 15.36 C 16.14 15.15, 15.974999999999998 15.150000000000002, 16.38 14.940000000000001 C 16.95 14.73, 17.115 14.64, 17.52 14.52 C 17.759999999999998 14.49, 17.67 14.475000000000001, 18 14.46 C 18.42 14.46, 18.42 14.4, 18.84 14.46 C 19.259999999999998 14.580000000000002, 19.35 14.490000000000002, 19.68 14.700000000000001 C 19.92 15, 19.845 14.775, 20.16 15.299999999999999 C 20.55 16.049999999999997, 20.55 15.839999999999996, 20.94 16.799999999999997 C 21.33 17.97, 21.404999999999998 17.985, 21.72 19.14 C 21.96 20.28, 22.050000000000004 20.58, 22.200000000000003 21.419999999999998 C 22.26 21.96, 22.29 22.23, 22.32 22.5 C 22.32 22.5, 22.26 22.725, 22.32 22.5 C 22.439999999999998 22.05, 22.335 22.335, 22.56 21.6 C 22.89 20.58, 22.875 20.505, 23.22 19.56 C 23.58 18.689999999999998, 23.535000000000004 18.63, 23.94 17.82 C 24.39 17.07, 24.374999999999996 16.845, 24.839999999999996 16.32 C 25.319999999999997 16.02, 25.274999999999995 15.735000000000001, 25.799999999999997 15.72 C 26.369999999999997 15.989999999999998, 26.445 15.914999999999997, 26.94 16.259999999999998 C 27.36 16.68, 27.465 16.575000000000003, 27.78 17.1 C 27.990000000000002 17.73, 28.020000000000003 17.49, 28.200000000000003 18.36 C 28.35 19.47, 28.425 19.455000000000002, 28.5 20.580000000000002 C 28.5 21.72, 28.5 21.81, 28.5 22.86 C 28.5 23.82, 28.560000000000002 23.61, 28.5 24.78 C 28.38 26.16, 28.47 26.25, 28.259999999999998 27.54 C 27.96 28.740000000000002, 27.990000000000002 28.830000000000002, 27.660000000000004 29.94 C 27.300000000000004 30.96, 27.240000000000002 31.17, 26.94 31.98 C 26.700000000000003 32.58, 26.655 32.685, 26.46 33.18 C 26.310000000000002 33.57, 26.265000000000004 33.645, 26.160000000000004 33.96 C 26.1 34.2, 26.07 34.32, 26.04 34.44 C 26.04 34.44, 26.04 34.44, 26.04 34.44 C 26.04 34.44, 26.07 34.394999999999996, 26.04 34.44 L 25.92 34.62" fill="none" stroke="black" stroke-width="5"></path><path d="M 14.879999999999999 10.620000000000001 C 16.439999999999998 10.71, 16.5 10.665000000000001, 18 10.8 C 19.439999999999998 10.98, 19.515 11.025, 20.88 11.16 C 22.17 11.25, 22.44 11.25, 23.46 11.34 C 24.21 11.43, 24.105 11.475, 24.96 11.52 C 25.92 11.52, 26.190000000000005 11.52, 26.880000000000003 11.52 C 27.3 11.52, 27.509999999999998 11.52, 27.72 11.52 L 27.72 11.52" fill="none" stroke="black" stroke-width="5"></path><path d="M 14.700000000000001 5.76 C 14.850000000000001 5.76, 14.46 5.76, 15 5.76 C 15.93 5.76, 15.69 5.7299999999999995, 16.86 5.76 C 18.27 5.82, 18.3 5.79, 19.68 5.88 C 21.03 6, 21.104999999999997 5.97, 22.38 6.12 C 23.58 6.300000000000001, 23.61 6.36, 24.78 6.48 C 25.92 6.540000000000001, 26.205 6.510000000000001, 27.06 6.6000000000000005 C 27.630000000000003 6.720000000000001, 27.885 6.78, 28.200000000000003 6.84 C 28.26 6.84, 28.14 6.825, 28.32 6.84 L 28.92 6.8999999999999995" fill="none" stroke="black" stroke-width="5"></path><path d="M 14.82 35.04 C 15.66 35.04, 15.285 35.129999999999995, 16.5 35.04 C 18.09 34.86, 17.985 34.769999999999996, 19.68 34.68 C 21.48 34.68, 21.795 34.68, 23.28 34.68 C 24.45 34.68, 24.584999999999997 34.68, 25.619999999999997 34.68 C 26.52 34.68, 26.64 34.59, 27.42 34.68 C 28.080000000000002 34.86, 28.290000000000003 34.905, 28.740000000000002 35.04 C 28.98 35.129999999999995, 29.07 35.175, 29.22 35.22 L 29.339999999999996 35.22" fill="none" stroke="black" stroke-width="5"></path><path d="M 14.940000000000001 39.480000000000004 C 15.840000000000002 39.480000000000004, 14.940000000000001 39.55500000000001, 16.740000000000002 39.480000000000004 C 19.44 39.33, 20.265 39.285, 22.14 39.18 C 23.19 39.120000000000005, 23.1 39.09, 24.240000000000002 39.06 C 25.470000000000002 39.06, 25.785000000000004 39.06, 26.700000000000003 39.06 C 27.300000000000004 39.06, 27.255000000000003 39.06, 27.900000000000002 39.06 C 28.590000000000003 39.06, 28.740000000000002 39.045, 29.28 39.06 C 29.67 39.09, 29.744999999999997 39.105, 30.06 39.12 L 30.54 39.12" fill="none" stroke="black" stroke-width="5"></path></svg>