<svg xmlns="http://www.w3.org/2000/svg" viewBox="8.09999942779541 2.5999999046325684 20.020000457763672 42.55999994277954" width="20.020000457763672" height="42.55999994277954"><path d="M 18.06 29.880000000000003 C 18.33 30.3, 18.270000000000003 30.105, 18.6 30.72 C 18.990000000000002 31.529999999999998, 19.035 31.289999999999996, 19.38 32.339999999999996 C 19.68 33.629999999999995, 19.740000000000002 33.84, 19.98 34.92 C 20.16 35.790000000000006, 20.25 35.685, 20.34 36.660000000000004 C 20.34 37.74, 20.46 37.77, 20.34 38.82 C 20.1 39.84, 20.115 40.065, 19.86 40.86 C 19.59 41.43, 19.575 41.505, 19.32 42 C 19.08 42.42, 19.14 42.419999999999995, 18.84 42.839999999999996 C 18.48 43.26, 18.495 43.365, 18.12 43.68 C 17.73 43.89, 17.775 43.995, 17.34 44.099999999999994 C 16.86 44.099999999999994, 16.814999999999998 44.099999999999994, 16.38 44.099999999999994 C 15.99 44.099999999999994, 15.990000000000002 44.23499999999999, 15.600000000000001 44.099999999999994 C 15.21 43.83, 15.315000000000001 44.07, 14.82 43.56 C 14.22 42.81, 14.310000000000002 43.155, 13.620000000000001 42.06 C 12.84 40.620000000000005, 12.75 40.86, 12.059999999999999 39.18 C 11.459999999999999 37.26, 11.354999999999999 37.125, 10.86 35.339999999999996 C 10.469999999999999 33.69, 10.395 33.6, 10.08 32.04 C 9.84 30.57, 9.840000000000002 30.72, 9.600000000000001 29.099999999999998 C 9.360000000000001 27.33, 9.240000000000002 27.014999999999997, 9.120000000000001 25.56 C 9.120000000000001 24.42, 9.120000000000001 24.135, 9.120000000000001 23.28 C 9.120000000000001 22.71, 9.120000000000001 22.725, 9.120000000000001 22.14 C 9.120000000000001 21.54, 9.075000000000001 21.450000000000003, 9.120000000000001 20.94 C 9.21 20.520000000000003, 9.21 20.46, 9.3 20.1 C 9.39 19.8, 9.315000000000001 19.935000000000002, 9.48 19.5 C 9.719999999999999 18.93, 9.794999999999998 18.735, 9.959999999999999 18.36 C 10.05 18.18, 10.095 18.09, 10.14 18 C 10.14 18, 10.125 18.03, 10.14 18 C 10.17 17.939999999999998, 10.049999999999999 17.97, 10.2 17.88 C 10.469999999999999 17.759999999999998, 10.32 17.745, 10.74 17.64 C 11.309999999999999 17.55, 11.444999999999999 17.505000000000003, 11.879999999999999 17.46 C 12.18 17.46, 12.18 17.46, 12.48 17.46 C 12.780000000000001 17.46, 12.795000000000002 17.325000000000003, 13.080000000000002 17.46 C 13.350000000000001 17.73, 13.305000000000001 17.58, 13.620000000000001 18 C 13.98 18.57, 14.04 18.66, 14.34 19.14 C 14.58 19.53, 14.58 19.485, 14.82 19.919999999999998 C 15.059999999999999 20.4, 15.03 20.339999999999996, 15.299999999999999 20.88 C 15.599999999999998 21.48, 15.689999999999998 21.705000000000002, 15.899999999999999 22.080000000000002 C 16.02 22.23, 16.08 22.305, 16.14 22.38 C 16.14 22.38, 16.14 22.38, 16.14 22.38 C 16.14 22.38, 16.125 22.365, 16.14 22.38 C 16.17 22.41, 16.17 22.545, 16.200000000000003 22.44 C 16.23 22.200000000000003, 16.244999999999997 22.245, 16.259999999999998 21.96 C 16.259999999999998 21.63, 16.259999999999998 21.689999999999998, 16.259999999999998 21.299999999999997 C 16.259999999999998 20.849999999999998, 16.259999999999998 20.849999999999998, 16.259999999999998 20.4 C 16.259999999999998 19.95, 16.214999999999996 20.009999999999998, 16.259999999999998 19.5 C 16.35 18.93, 16.35 18.765, 16.44 18.36 C 16.53 18.119999999999997, 16.395000000000003 18.18, 16.62 17.88 C 16.98 17.52, 16.845 17.46, 17.34 17.16 C 17.97 16.92, 17.94 16.845, 18.6 16.68 C 19.29 16.59, 19.32 16.59, 19.98 16.5 C 20.61 16.41, 20.385 16.365000000000002, 21.240000000000002 16.32 C 22.32 16.32, 22.56 16.32, 23.4 16.32 C 24 16.32, 24.104999999999997 16.32, 24.599999999999998 16.32 C 24.990000000000002 16.32, 25.035000000000004 16.275, 25.380000000000003 16.32 C 25.68 16.41, 25.62 16.41, 25.98 16.5 C 26.4 16.59, 26.535 16.59, 26.82 16.68 C 26.97 16.77, 27.044999999999998 16.814999999999998, 27.119999999999997 16.86 L 27.119999999999997 16.86" fill="none" stroke="black" stroke-width="5"></path><path d="M 16.14 3.5999999999999996 C 15.06 4.289999999999999, 14.925 4.244999999999999, 13.98 4.9799999999999995 C 13.17 5.76, 12.959999999999999 5.670000000000001, 12.36 6.540000000000001 C 11.969999999999999 7.5, 11.715 7.514999999999999, 11.58 8.459999999999999 C 11.7 9.39, 11.46 9.495000000000001, 11.82 10.32 C 12.42 11.04, 12.434999999999999 11.25, 13.02 11.76 C 13.59 12.059999999999999, 13.155000000000001 12.059999999999999, 14.16 12.36 C 15.6 12.66, 15.779999999999998 12.81, 17.04 12.96 C 18.12 12.96, 18.240000000000002 12.96, 19.200000000000003 12.96 C 20.04 12.96, 20.07 13.170000000000002, 20.88 12.96 C 21.66 12.540000000000001, 21.810000000000002 12.690000000000001, 22.44 12.120000000000001 C 22.92 11.4, 23.13 11.4, 23.4 10.68 C 23.46 9.96, 23.49 9.915, 23.52 9.24 C 23.52 8.61, 23.655 8.505, 23.52 7.98 C 23.25 7.5600000000000005, 23.58 7.755, 22.98 7.14 C 22.05 6.33, 21.96 6.0600000000000005, 21.12 5.5200000000000005 C 20.37 5.25, 20.310000000000002 5.205, 19.62 4.9799999999999995 C 18.990000000000002 4.8, 18.825 4.71, 18.36 4.62 C 18.06 4.62, 18.104999999999997 4.62, 17.759999999999998 4.62 C 17.369999999999997 4.62, 17.369999999999997 4.62, 16.98 4.62 C 16.590000000000003 4.62, 16.500000000000004 4.62, 16.200000000000003 4.62 C 15.990000000000002 4.62, 15.975000000000001 4.62, 15.78 4.62 C 15.599999999999998 4.62, 15.54 4.59, 15.419999999999998 4.62 L 15.299999999999999 4.74" fill="none" stroke="black" stroke-width="5"></path><path d="M 12.54 9.72 C 13.86 9.72, 13.754999999999999 9.765, 15.18 9.72 C 16.71 9.63, 16.785000000000004 9.63, 18.240000000000002 9.540000000000001 C 19.62 9.45, 19.995 9.405, 21 9.36 C 21.63 9.36, 21.824999999999996 9.36, 22.259999999999998 9.36 C 22.5 9.36, 22.545 9.36, 22.740000000000002 9.36 C 22.89 9.36, 22.965 9.36, 23.04 9.36 C 23.04 9.36, 23.04 9.36, 23.04 9.36 L 23.04 9.36" fill="none" stroke="black" stroke-width="5"></path></svg>