<svg xmlns="http://www.w3.org/2000/svg" viewBox="16.860984802246094 6.01611852645874 14.919015884399414 33.15054941177368" width="14.919015884399414" height="33.15054941177368"><path d="M 24.240000000000002 7.26 C 23.79 7.14, 23.955 6.989999999999999, 23.34 7.02 C 22.560000000000002 7.199999999999999, 22.47 6.99, 21.78 7.38 C 21.18 7.98, 21.270000000000003 7.6499999999999995, 20.580000000000002 8.58 C 19.8 9.84, 19.605 10.035000000000002, 19.02 11.100000000000001 C 18.630000000000003 11.97, 18.51 11.790000000000001, 18.240000000000002 12.84 C 18.090000000000003 14.07, 17.895000000000003 14.07, 17.94 15.299999999999999 C 18.18 16.529999999999998, 17.939999999999998 16.724999999999998, 18.419999999999998 17.759999999999998 C 19.14 18.6, 19.154999999999998 18.75, 19.86 19.44 C 20.55 19.98, 20.43 20.145, 21.240000000000002 20.52 C 22.17 20.73, 22.125 20.79, 23.1 20.94 C 24.12 21.03, 24.105 21.090000000000003, 25.14 21.12 C 26.19 21.09, 26.475 21.165, 27.240000000000002 21.06 C 27.720000000000002 20.880000000000003, 27.690000000000005 21.135, 28.200000000000003 20.700000000000003 C 28.740000000000002 20.01, 28.800000000000004 19.995, 29.28 19.32 C 29.7 18.66, 29.819999999999997 18.66, 30.119999999999997 18 C 30.299999999999997 17.34, 30.39 17.205, 30.48 16.68 C 30.48 16.29, 30.555 16.365, 30.48 15.899999999999999 C 30.33 15.36, 30.345 15.375, 30.18 14.82 C 30 14.25, 30.060000000000002 14.25, 29.82 13.68 C 29.52 13.11, 29.475 13.035, 29.22 12.54 C 29.009999999999998 12.12, 29.159999999999997 12.239999999999998, 28.799999999999997 11.7 C 28.29 11.04, 28.41 11.084999999999999, 27.78 10.379999999999999 C 27.03 9.629999999999999, 26.955000000000002 9.375, 26.28 8.879999999999999 C 25.68 8.639999999999999, 25.964999999999996 8.7, 25.08 8.399999999999999 C 23.91 8.04, 23.73 7.904999999999999, 22.740000000000002 7.68 C 21.93 7.59, 21.525000000000002 7.545, 21.12 7.5 L 21.12 7.5" fill="none" stroke="black" stroke-width="5"></path><path d="M 18.06 14.940000000000001 C 17.97 15.09, 17.805 15.09, 17.88 15.24 C 18.119999999999997 15.39, 17.85 15.405, 18.36 15.54 C 19.14 15.66, 18.915 15.704999999999998, 19.919999999999998 15.78 C 21.15 15.809999999999999, 21.314999999999998 15.825, 22.38 15.84 C 23.28 15.84, 23.294999999999998 15.84, 24.18 15.84 C 25.05 15.84, 25.155 15.84, 25.92 15.84 C 26.580000000000002 15.84, 26.715000000000003 15.84, 27.240000000000002 15.84 C 27.630000000000003 15.84, 27.675 15.84, 28.02 15.84 C 28.32 15.84, 28.244999999999997 15.795, 28.619999999999997 15.84 C 29.07 15.93, 29.294999999999998 15.975, 29.52 16.02 C 29.52 16.02, 29.52 16.02, 29.52 16.02 C 29.52 16.02, 29.384999999999998 15.974999999999998, 29.52 16.02 C 29.79 16.11, 29.79 16.110000000000003, 30.06 16.200000000000003 C 30.33 16.29, 30.419999999999998 16.335, 30.599999999999998 16.38 L 30.78 16.38" fill="none" stroke="black" stroke-width="5"></path><path d="M 23.580000000000002 28.32 C 23.310000000000002 28.71, 23.175 28.769999999999996, 23.04 29.099999999999998 C 23.04 29.369999999999997, 22.755 29.445, 23.04 29.64 C 23.61 29.76, 23.67 30.120000000000005, 24.18 29.880000000000003 C 24.63 29.28, 24.839999999999996 29.085, 25.08 28.68 C 25.11 28.47, 25.155 28.439999999999998, 25.14 28.259999999999998 C 25.08 28.11, 25.335 27.990000000000002, 25.02 27.96 C 24.45 28.05, 24.33 27.855, 23.88 28.14 C 23.549999999999997 28.619999999999997, 23.294999999999998 28.665, 23.22 29.099999999999998 C 23.4 29.490000000000002, 23.25 29.64, 23.580000000000002 29.880000000000003 C 24.060000000000002 29.97, 24.134999999999998 30.134999999999998, 24.54 30.06 C 24.87 29.82, 24.990000000000002 29.909999999999997, 25.200000000000003 29.58 C 25.290000000000003 29.16, 25.35 28.980000000000004, 25.380000000000003 28.740000000000002 C 25.35 28.68, 25.5 28.604999999999997, 25.32 28.619999999999997 C 24.990000000000002 28.709999999999997, 24.885000000000005 28.604999999999997, 24.660000000000004 28.799999999999997 C 24.540000000000003 29.1, 24.480000000000004 29.205000000000002, 24.42 29.400000000000002 C 24.42 29.490000000000002, 24.42 29.535, 24.42 29.58 L 24.42 29.58" fill="none" stroke="black" stroke-width="5"></path><path d="M 19.740000000000002 38.160000000000004 C 19.740000000000002 38.160000000000004, 19.755000000000003 38.175000000000004, 19.740000000000002 38.160000000000004 C 19.71 38.129999999999995, 19.515 38.114999999999995, 19.68 38.099999999999994 C 20.04 38.099999999999994, 19.59 38.144999999999996, 20.4 38.099999999999994 C 21.659999999999997 38.01, 21.689999999999998 38.055, 22.919999999999998 37.92 C 24.119999999999997 37.74, 24.225 37.650000000000006, 25.32 37.56 C 26.31 37.56, 26.415 37.605000000000004, 27.299999999999997 37.56 C 28.08 37.47, 28.125 37.425000000000004, 28.86 37.38 C 29.55 37.38, 29.82 37.38, 30.240000000000002 37.38 C 30.39 37.38, 30.465 37.38, 30.54 37.38 C 30.54 37.38, 30.54 37.38, 30.54 37.38 L 30.54 37.38" fill="none" stroke="black" stroke-width="5"></path></svg>