<svg xmlns="http://www.w3.org/2000/svg" viewBox="9.220000267028809 1.4600000381469727 22.799999237060547 44.29999828338623" width="22.799999237060547" height="44.29999828338623"><path d="M 12.54 2.46 C 12.27 3.87, 12.434999999999999 2.955, 12 5.28 C 11.4 8.52, 11.235000000000001 8.73, 10.8 11.76 C 10.530000000000001 14.579999999999998, 10.395 14.969999999999999, 10.26 17.4 C 10.26 19.439999999999998, 10.17 20.04, 10.26 21.48 C 10.440000000000001 22.32, 10.260000000000002 22.665, 10.620000000000001 23.16 C 11.16 23.310000000000002, 11.19 23.475, 11.7 23.46 C 12.18 23.28, 12.09 23.55, 12.66 23.1 C 13.32 22.380000000000003, 13.59 22.53, 13.98 21.66 C 14.100000000000001 20.64, 14.07 20.55, 14.22 19.62 C 14.400000000000002 18.78, 14.46 18.405, 14.580000000000002 17.94 C 14.64 17.85, 14.580000000000002 17.744999999999997, 14.700000000000001 17.759999999999998 C 14.879999999999999 17.88, 14.85 17.55, 15.059999999999999 18 C 15.299999999999999 18.78, 15.254999999999999 18.794999999999998, 15.54 19.56 C 15.870000000000001 20.31, 15.735000000000003 20.339999999999996, 16.200000000000003 21.06 C 16.8 21.75, 16.814999999999998 21.93, 17.4 22.44 C 17.97 22.770000000000003, 17.595 22.755000000000003, 18.54 23.1 C 19.86 23.46, 19.725 23.625, 21.18 23.82 C 22.77 23.85, 23.025 23.865, 24.36 23.88 C 25.439999999999998 23.88, 25.68 23.924999999999997, 26.52 23.88 C 27.119999999999997 23.79, 27.09 23.970000000000002, 27.72 23.700000000000003 C 28.38 23.25, 28.439999999999998 23.654999999999998, 29.04 22.799999999999997 C 29.58 21.54, 29.684999999999995 21.735, 30.119999999999997 20.28 C 30.45 18.630000000000003, 30.555 18.87, 30.78 16.98 C 30.9 14.850000000000001, 31.02 14.925, 31.02 12.72 C 30.9 10.440000000000001, 31.005000000000003 9.945, 30.78 8.16 C 30.45 6.87, 30.36 6.585, 30.119999999999997 5.58 C 29.97 4.859999999999999, 29.924999999999997 4.635, 29.82 4.14 C 29.76 3.8699999999999997, 29.790000000000003 3.9599999999999995, 29.700000000000003 3.5999999999999996 L 29.46 2.7" fill="none" stroke="black" stroke-width="5"></path><path d="M 21.240000000000002 5.1 C 20.28 5.369999999999999, 20.310000000000002 4.949999999999999, 19.32 5.64 C 18.3 6.75, 17.970000000000002 6.75, 17.28 7.86 C 16.92 8.97, 16.755 8.97, 16.56 10.08 C 16.53 11.19, 16.244999999999997 11.399999999999999, 16.5 12.299999999999999 C 17.04 12.989999999999998, 16.740000000000002 13.049999999999999, 17.580000000000002 13.68 C 18.72 14.25, 18.585 14.475000000000001, 19.86 14.82 C 21.27 14.94, 21.6 15.344999999999999, 22.68 15.059999999999999 C 23.43 14.37, 23.67 14.43, 24.18 13.68 C 24.45 12.87, 24.555 12.764999999999999, 24.72 12.059999999999999 C 24.779999999999998 11.459999999999999, 24.809999999999995 11.655, 24.839999999999996 10.86 C 24.839999999999996 9.87, 24.929999999999996 9.84, 24.839999999999996 8.879999999999999 C 24.659999999999997 7.949999999999999, 24.869999999999997 7.77, 24.48 7.02 C 23.880000000000003 6.449999999999999, 23.82 6.359999999999999, 23.28 5.88 C 22.8 5.49, 22.995 5.43, 22.32 5.1 C 21.450000000000003 4.83, 21.135 4.680000000000001, 20.580000000000002 4.5600000000000005 L 20.1 4.62" fill="none" stroke="black" stroke-width="5"></path><path d="M 17.34 10.98 C 17.97 10.98, 17.520000000000003 11.025, 18.6 10.98 C 20.130000000000003 10.89, 20.535 10.845, 21.66 10.8 C 22.380000000000003 10.8, 22.380000000000003 10.8, 23.1 10.8 C 23.82 10.8, 24.015 10.8, 24.54 10.8 L 25.200000000000003 10.8" fill="none" stroke="black" stroke-width="5"></path><path d="M 21.12 24.119999999999997 C 21.12 25.77, 21.12 25.485, 21.12 27.42 C 21.12 29.64, 21.12 29.565, 21.12 31.86 C 21.12 34.23, 21.075000000000003 34.169999999999995, 21.12 36.599999999999994 C 21.21 39.089999999999996, 21.24 39.92999999999999, 21.299999999999997 41.58 C 21.33 42.39, 21.299999999999997 42.480000000000004, 21.36 43.2 C 21.45 43.83, 21.494999999999997 44.07, 21.54 44.46 C 21.54 44.61, 21.54 44.685, 21.54 44.76 C 21.54 44.76, 21.54 44.76, 21.54 44.76 C 21.54 44.76, 21.54 44.76, 21.54 44.76 L 21.54 44.76" fill="none" stroke="black" stroke-width="5"></path></svg>