<svg xmlns="http://www.w3.org/2000/svg" viewBox="10.386221885681152 1.4600000381469727 21.453777313232422 42.620001792907715" width="21.453777313232422" height="42.620001792907715"><path d="M 13.32 3.84 C 12.96 5.49, 13.035000000000002 4.62, 12.600000000000001 7.14 C 12.09 10.53, 11.88 11.084999999999997, 11.58 13.919999999999998 C 11.489999999999998 16.2, 11.339999999999998 16.98, 11.399999999999999 18.48 C 11.61 19.2, 11.52 19.139999999999997, 11.82 19.919999999999998 C 12.21 20.759999999999998, 12.165000000000003 21.075000000000003, 12.600000000000001 21.6 C 13.08 21.810000000000002, 13.125 21.915, 13.559999999999999 22.02 C 13.95 22.02, 13.934999999999999 22.14, 14.34 22.02 C 14.76 21.78, 14.55 21.99, 15.18 21.54 C 16.02 20.88, 16.169999999999998 21.044999999999998, 16.86 20.22 C 17.4 19.23, 17.535 19.11, 17.94 18.240000000000002 C 18.21 17.490000000000002, 18.345 17.115000000000002, 18.48 16.740000000000002 C 18.48 16.740000000000002, 18.45 16.755000000000003, 18.48 16.740000000000002 C 18.54 16.71, 18.51 16.425, 18.6 16.68 C 18.72 17.22, 18.645 17.144999999999996, 18.84 17.759999999999998 C 19.11 18.45, 19.095 18.525, 19.38 19.14 C 19.68 19.68, 19.515 19.665, 19.98 20.22 C 20.61 20.79, 20.535000000000004 20.895, 21.240000000000002 21.36 C 22.02 21.72, 21.749999999999996 21.855000000000004, 22.799999999999997 22.080000000000002 C 24.119999999999997 22.17, 24.42 22.229999999999997, 25.44 22.259999999999998 C 26.160000000000004 22.23, 26.235000000000003 22.335, 26.880000000000003 22.200000000000003 C 27.450000000000003 21.96, 27.54 22.125, 28.02 21.72 C 28.409999999999997 21.15, 28.319999999999997 21.525000000000002, 28.799999999999997 20.580000000000002 C 29.369999999999997 19.26, 29.52 19.080000000000002, 29.94 17.94 C 30.21 16.98, 30.255000000000003 17.265, 30.48 16.02 C 30.659999999999997 14.49, 30.749999999999996 15.030000000000001, 30.839999999999996 12.96 C 30.839999999999996 10.350000000000001, 30.839999999999996 9.780000000000001, 30.839999999999996 7.74 C 30.839999999999996 6.2700000000000005, 30.839999999999996 5.760000000000001, 30.839999999999996 4.800000000000001 C 30.839999999999996 4.3500000000000005, 30.839999999999996 4.32, 30.839999999999996 3.9000000000000004 C 30.839999999999996 3.5100000000000002, 30.839999999999996 3.3150000000000004, 30.839999999999996 3.12 C 30.839999999999996 3.12, 30.839999999999996 3.12, 30.839999999999996 3.12 L 30.839999999999996 3.12" fill="none" stroke="black" stroke-width="5"></path><path d="M 22.080000000000002 2.46 C 21.18 2.73, 21.255000000000003 2.6550000000000002, 20.28 3 C 19.23 3.42, 18.990000000000002 3.165, 18.18 3.84 C 17.61 4.77, 17.43 4.664999999999999, 17.04 5.699999999999999 C 16.83 6.84, 16.68 6.9, 16.62 7.98 C 16.71 9, 16.334999999999997 9.165, 16.799999999999997 10.02 C 17.64 10.709999999999999, 17.61 10.874999999999998, 18.48 11.399999999999999 C 19.380000000000003 11.76, 19.155 12, 20.28 12.120000000000001 C 21.630000000000003 12, 22.065 12.149999999999999, 22.98 11.879999999999999 C 23.46 11.46, 23.43 11.58, 23.94 11.040000000000001 C 24.48 10.38, 24.63 10.260000000000002, 25.02 9.72 C 25.259999999999998 9.3, 25.335 9.45, 25.5 8.879999999999999 C 25.59 8.16, 25.634999999999998 8.055, 25.68 7.4399999999999995 C 25.68 6.93, 25.77 6.915, 25.68 6.42 C 25.5 5.9399999999999995, 25.53 5.91, 25.32 5.46 C 25.08 5.04, 25.139999999999997 4.995, 24.839999999999996 4.62 C 24.479999999999997 4.29, 24.494999999999997 4.245, 24.119999999999997 3.96 C 23.729999999999997 3.7199999999999998, 23.79 3.7049999999999996, 23.34 3.4799999999999995 C 22.83 3.2699999999999996, 22.725 3.21, 22.32 3.06 C 22.02 2.9699999999999998, 21.945 2.925, 21.72 2.88 C 21.57 2.88, 21.494999999999997 2.88, 21.419999999999998 2.88 L 21.419999999999998 2.88" fill="none" stroke="black" stroke-width="5"></path><path d="M 17.88 7.74 C 18.39 7.7700000000000005, 18.119999999999997 7.710000000000001, 18.9 7.800000000000001 C 19.95 7.950000000000001, 20.28 7.995000000000001, 21 8.100000000000001 C 21.39 8.16, 21.315 8.190000000000001, 21.78 8.22 C 22.32 8.22, 22.425 8.22, 22.86 8.22 C 23.189999999999998 8.22, 23.25 8.22, 23.52 8.22 C 23.73 8.22, 23.76 8.22, 23.94 8.22 C 24.090000000000003 8.22, 24.045 8.175, 24.240000000000002 8.22 C 24.48 8.309999999999999, 24.509999999999998 8.354999999999999, 24.72 8.399999999999999 C 24.9 8.399999999999999, 24.99 8.399999999999999, 25.08 8.399999999999999 C 25.08 8.399999999999999, 25.049999999999997 8.369999999999997, 25.08 8.399999999999999 C 25.14 8.459999999999999, 25.17 8.489999999999998, 25.200000000000003 8.52 L 25.200000000000003 8.52" fill="none" stroke="black" stroke-width="5"></path><path d="M 22.799999999999997 22.14 C 22.77 22.32, 22.8 22.125, 22.740000000000002 22.5 C 22.65 23.07, 22.71 22.995, 22.56 23.64 C 22.35 24.36, 22.485 24.21, 22.14 25.08 C 21.66 26.099999999999998, 21.78 26.205, 21.18 27.119999999999997 C 20.46 27.93, 20.76 27.78, 19.740000000000002 28.740000000000002 C 18.42 29.85, 18.42 29.97, 17.1 30.96 C 15.780000000000001 31.830000000000002, 15.450000000000001 32.07, 14.46 32.7 C 13.8 33.09, 13.47 33.285000000000004, 13.14 33.480000000000004 C 13.14 33.480000000000004, 13.215 33.465, 13.14 33.480000000000004 C 12.99 33.510000000000005, 12.915 33.525, 12.84 33.54 L 12.84 33.54" fill="none" stroke="black" stroke-width="5"></path><path d="M 26.160000000000004 29.22 C 26.1 29.7, 26.37 29.28, 26.04 30.18 C 25.439999999999998 31.5, 25.499999999999996 31.560000000000002, 24.839999999999996 32.82 C 24.119999999999997 34.019999999999996, 24.074999999999996 34.14, 23.4 35.22 C 22.77 36.18, 22.83 36.225, 22.14 37.14 C 21.39 38.010000000000005, 21.675 37.89, 20.64 38.88 C 19.32 39.989999999999995, 19.425 40.23, 18 41.099999999999994 C 16.47 41.73, 16.185000000000002 41.864999999999995, 14.940000000000001 42.36 C 13.98 42.72, 13.5 42.9, 13.02 43.08 C 13.02 43.08, 13.02 43.08, 13.02 43.08 L 13.02 43.08" fill="none" stroke="black" stroke-width="5"></path></svg>