<svg xmlns="http://www.w3.org/2000/svg" viewBox="9.546667098999023 5.840000152587891 23.73333168029785 39.87999963760376" width="23.73333168029785" height="39.87999963760376"><path d="M 11.100000000000001 7.5600000000000005 C 11.100000000000001 8.49, 11.145000000000001 7.949999999999999, 11.100000000000001 9.42 C 11.010000000000002 11.43, 11.01 11.625000000000002, 10.92 13.440000000000001 C 10.83 15.06, 10.785 14.969999999999999, 10.74 16.68 C 10.74 18.48, 10.785 18.675, 10.74 20.28 C 10.65 21.69, 10.605 21.555, 10.56 23.1 C 10.56 24.78, 10.56 24.825000000000003, 10.56 26.46 C 10.56 28.05, 10.56 28.065, 10.56 29.64 C 10.56 31.2, 10.530000000000001 31.544999999999998, 10.56 32.76 C 10.620000000000001 33.629999999999995, 10.545 33.54, 10.68 34.5 C 10.89 35.55, 10.785000000000002 35.39999999999999, 11.100000000000001 36.599999999999994 C 11.52 37.949999999999996, 11.49 38.22, 11.94 39.3 C 12.419999999999998 40.11, 12.405 40.29, 12.899999999999999 40.92 C 13.409999999999998 41.370000000000005, 13.229999999999997 41.325, 13.919999999999998 41.82 C 14.79 42.36, 14.805 42.480000000000004, 15.66 42.900000000000006 C 16.5 43.2, 16.305 43.155, 17.34 43.5 C 18.57 43.89, 18.659999999999997 43.995000000000005, 19.799999999999997 44.28 C 20.849999999999998 44.46, 20.684999999999995 44.55, 21.9 44.64 C 23.28 44.64, 23.415000000000003 44.82, 24.660000000000004 44.64 C 25.770000000000003 44.28, 25.665000000000003 44.58, 26.880000000000003 43.92 C 28.200000000000003 42.96, 28.59 42.78, 29.52 42 C 30.06 41.4, 30.224999999999998 41.265, 30.599999999999998 40.8 C 30.81 40.47, 30.915 40.305, 31.02 40.14 C 31.02 40.14, 31.02 40.14, 31.02 40.14 L 31.02 40.14" fill="none" stroke="black" stroke-width="5"></path><path d="M 10.74 33.36 C 11.399999999999999 33.63, 11.099999999999998 33.690000000000005, 12.059999999999999 33.900000000000006 C 13.32 34.050000000000004, 13.41 34.30500000000001, 14.580000000000002 34.2 C 15.660000000000002 33.84, 15.795000000000002 33.915000000000006, 16.740000000000002 33.480000000000004 C 17.55 32.97, 17.67 33.06, 18.36 32.46 C 18.93 31.77, 19.095 31.769999999999996, 19.5 31.08 C 19.740000000000002 30.39, 19.8 30.285000000000004, 19.98 29.700000000000003 C 20.1 29.220000000000002, 20.16 29.025000000000002, 20.22 28.740000000000002 C 20.22 28.65, 20.22 28.5, 20.22 28.56 C 20.22 28.77, 20.22 28.395, 20.22 28.98 C 20.22 29.94, 20.115 30.060000000000002, 20.22 30.900000000000002 C 20.43 31.619999999999997, 20.384999999999998 31.769999999999996, 20.64 32.339999999999996 C 20.94 32.76, 20.805000000000003 32.745, 21.240000000000002 33.18 C 21.810000000000002 33.629999999999995, 21.63 33.81, 22.38 34.08 C 23.310000000000002 34.17, 23.295 34.214999999999996, 24.240000000000002 34.26 C 25.200000000000003 34.26, 25.065000000000005 34.44, 26.160000000000004 34.26 C 27.39 33.9, 27.585 33.945, 28.619999999999997 33.54 C 29.459999999999997 33.09, 29.534999999999997 33.225, 30.299999999999997 32.64 C 30.99 31.92, 31.244999999999997 32.05500000000001, 31.68 31.200000000000003 C 31.86 30.21, 31.935000000000002 30.18, 32.04 29.22 C 32.06999999999999 28.29, 32.03999999999999 28.665, 32.099999999999994 27.36 C 32.19 25.68, 32.28 25.485, 32.28 24 C 32.19 22.71, 32.26499999999999 22.769999999999996, 32.099999999999994 21.419999999999998 C 31.859999999999996 20.009999999999998, 31.83 19.98, 31.619999999999997 18.6 C 31.439999999999998 17.25, 31.529999999999998 17.505, 31.259999999999998 15.899999999999999 C 30.9 14.04, 30.884999999999998 13.86, 30.54 12.18 C 30.21 10.68, 30.21 10.365, 29.880000000000003 9.18 C 29.55 8.309999999999999, 29.4 7.92, 29.22 7.4399999999999995 C 29.19 7.35, 29.205000000000005 7.35, 29.160000000000004 7.26 C 29.1 7.17, 29.07 7.125, 29.04 7.08 C 29.04 7.08, 29.04 7.08, 29.04 7.08 C 29.04 7.08, 29.04 7.08, 29.04 7.08 C 29.04 7.08, 29.1 7.140000000000001, 29.04 7.08 L 28.799999999999997 6.84" fill="none" stroke="black" stroke-width="5"></path><path d="M 21.419999999999998 10.26 C 20.729999999999997 10.26, 20.97 10.035, 20.04 10.26 C 18.87 10.71, 18.615000000000002 10.635, 17.700000000000003 11.16 C 17.04 11.76, 16.875 11.805, 16.38 12.36 C 16.05 12.87, 15.93 12.465, 15.72 13.379999999999999 C 15.629999999999999 14.7, 15.51 14.85, 15.54 16.02 C 15.69 17.04, 15.48 17.025, 15.84 18.06 C 16.41 19.11, 16.38 19.38, 16.98 20.16 C 17.61 20.67, 17.355000000000004 20.865000000000002, 18.240000000000002 21.18 C 19.380000000000003 21.299999999999997, 19.11 21.435, 20.52 21.419999999999998 C 22.2 21.27, 22.515 21.630000000000003, 23.88 21.12 C 24.93 20.25, 25.23 20.294999999999998, 25.98 19.38 C 26.43 18.42, 26.595000000000002 18.51, 26.880000000000003 17.46 C 27 16.32, 27.089999999999996 16.125, 27.119999999999997 15.18 C 27.06 14.43, 27.21 14.295, 27 13.68 C 26.64 13.2, 26.76 13.245000000000001, 26.28 12.72 C 25.68 12.15, 25.619999999999997 11.97, 25.08 11.58 C 24.599999999999998 11.370000000000001, 24.644999999999996 11.34, 24.119999999999997 11.16 C 23.549999999999997 11.01, 23.46 10.95, 22.98 10.86 C 22.590000000000003 10.83, 22.620000000000005 10.815000000000001, 22.200000000000003 10.8 C 21.75 10.8, 21.569999999999997 10.8, 21.299999999999997 10.8 C 21.21 10.8, 21.240000000000002 10.8, 21.12 10.8 C 20.97 10.8, 21.015 10.8, 20.82 10.8 L 20.34 10.8" fill="none" stroke="black" stroke-width="5"></path><path d="M 16.799999999999997 14.580000000000002 C 18.18 14.790000000000001, 17.939999999999998 14.850000000000001, 19.56 15 C 21.42 15.09, 21.69 15.135, 23.28 15.18 C 24.6 15.18, 25.185000000000002 15.18, 25.92 15.18 C 26.07 15.18, 26.099999999999998 15.18, 26.22 15.18 C 26.310000000000002 15.18, 26.355 15.18, 26.400000000000002 15.18 L 26.400000000000002 15.18" fill="none" stroke="black" stroke-width="5"></path></svg>