<svg xmlns="http://www.w3.org/2000/svg" viewBox="5.960000038146973 6.78000020980835 28.039999961853027 38.49333429336548" width="28.039999961853027" height="38.49333429336548"><path d="M 9.48 27.78 C 8.760000000000002 26.340000000000003, 8.580000000000002 26.310000000000002, 8.040000000000001 24.900000000000002 C 7.680000000000001 23.520000000000003, 7.545000000000001 23.205000000000002, 7.32 22.14 C 7.23 21.39, 7.23 21.645, 7.14 20.64 C 7.049999999999999 19.380000000000003, 6.959999999999999 19.35, 6.959999999999999 18.12 C 7.049999999999999 16.92, 7.049999999999999 16.68, 7.14 15.72 C 7.23 15, 7.1850000000000005 15.015, 7.32 14.28 C 7.5 13.53, 7.395 13.604999999999999, 7.68 12.78 C 8.07 11.879999999999999, 8.129999999999999 11.700000000000001, 8.459999999999999 10.98 C 8.73 10.44, 8.565 10.454999999999998, 9 9.899999999999999 C 9.6 9.329999999999998, 9.69 9.149999999999999, 10.2 8.76 C 10.620000000000001 8.55, 10.59 8.52, 11.040000000000001 8.34 C 11.52 8.190000000000001, 11.415000000000001 8.175, 12 8.040000000000001 C 12.69 7.920000000000001, 12.75 7.860000000000001, 13.379999999999999 7.800000000000001 C 13.95 7.800000000000001, 14.114999999999998 7.755000000000001, 14.52 7.800000000000001 C 14.76 7.890000000000001, 14.67 7.65, 15 7.98 C 15.42 8.55, 15.39 8.400000000000002, 15.84 9.120000000000001 C 16.32 9.99, 16.394999999999996 9.975, 16.799999999999997 10.86 C 17.13 11.76, 17.205 11.91, 17.46 12.66 C 17.64 13.26, 17.595 12.915, 17.82 13.86 C 18.09 15.15, 18.119999999999997 15.360000000000001, 18.36 16.44 C 18.57 17.310000000000002, 18.525000000000002 17.265, 18.78 18.18 C 19.08 19.14, 19.169999999999998 19.44, 19.38 20.1 C 19.5 20.46, 19.455000000000002 20.520000000000003, 19.62 20.82 C 19.83 21.06, 19.89 21.134999999999998, 20.04 21.299999999999997 C 20.13 21.39, 20.174999999999997 21.435, 20.22 21.48 C 20.22 21.48, 19.904999999999998 21.435000000000002, 20.22 21.48 C 20.85 21.57, 20.925 21.66, 21.48 21.66 C 21.96 21.57, 21.810000000000002 21.630000000000003, 22.44 21.48 C 23.22 21.27, 23.04 21.224999999999998, 24 21.06 C 25.14 20.939999999999998, 25.365000000000002 20.91, 26.28 20.82 C 26.970000000000002 20.76, 27.015000000000004 20.730000000000004, 27.660000000000004 20.700000000000003 C 28.26 20.700000000000003, 28.185000000000002 20.520000000000003, 28.86 20.700000000000003 C 29.61 21.060000000000002, 29.655 20.924999999999997, 30.36 21.419999999999998 C 31.02 22.049999999999997, 31.125 21.915, 31.68 22.68 C 32.129999999999995 23.58, 32.355 23.715, 32.58 24.48 C 32.58 25.11, 32.58 25.245, 32.58 25.740000000000002 C 32.58 26.1, 32.58 26.175, 32.58 26.46 C 32.58 26.67, 32.58 26.730000000000004, 32.58 26.880000000000003 L 32.58 27.06" fill="none" stroke="black" stroke-width="5"></path><path d="M 26.46 8.34 C 25.77 8.49, 25.709999999999997 8.16, 25.08 8.64 C 24.509999999999998 9.45, 24.36 9.105, 23.94 10.26 C 23.67 11.76, 23.58 12.105, 23.4 13.26 C 23.31 14.07, 23.22 13.95, 23.22 14.879999999999999 C 23.31 15.93, 23.13 16.125, 23.4 16.98 C 23.849999999999998 17.64, 23.684999999999995 17.865, 24.299999999999997 18.299999999999997 C 25.08 18.509999999999998, 25.005 18.615, 25.86 18.72 C 26.79 18.72, 26.91 18.854999999999997, 27.72 18.72 C 28.409999999999997 18.45, 28.409999999999997 18.689999999999998, 29.099999999999998 18.18 C 29.79 17.43, 30.03 17.384999999999998, 30.48 16.68 C 30.69 16.02, 30.720000000000002 16.155, 30.900000000000002 15.36 C 31.050000000000004 14.43, 31.125000000000004 14.7, 31.200000000000003 13.5 C 31.200000000000003 12.030000000000001, 31.260000000000005 11.505, 31.200000000000003 10.56 C 31.080000000000002 10.14, 31.275000000000002 10.290000000000001, 30.96 9.72 C 30.450000000000003 9, 30.51 8.7, 29.94 8.28 C 29.310000000000002 8.16, 29.325 8.100000000000001, 28.68 8.040000000000001 C 28.02 8.040000000000001, 27.854999999999997 7.965000000000002, 27.36 8.040000000000001 C 27.03 8.190000000000001, 26.895000000000003 8.265, 26.700000000000003 8.34 C 26.64 8.34, 26.7 8.34, 26.58 8.34 L 26.22 8.34" fill="none" stroke="black" stroke-width="5"></path><path d="M 23.64 13.080000000000002 C 23.64 13.260000000000002, 23.04 13.350000000000001, 23.64 13.440000000000001 C 24.84 13.440000000000001, 24.9 13.485000000000001, 26.04 13.440000000000001 C 27.12 13.350000000000001, 27.465000000000003 13.305, 28.200000000000003 13.26 C 28.590000000000003 13.26, 28.590000000000003 13.26, 28.98 13.26 C 29.369999999999997 13.26, 29.444999999999997 13.26, 29.759999999999998 13.26 C 30 13.26, 30.12 13.26, 30.240000000000002 13.26 C 30.240000000000002 13.26, 30.135 13.215, 30.240000000000002 13.26 C 30.450000000000003 13.350000000000001, 30.435000000000002 13.365000000000002, 30.660000000000004 13.440000000000001 C 30.900000000000002 13.5, 30.945 13.514999999999999, 31.14 13.559999999999999 L 31.44 13.620000000000001" fill="none" stroke="black" stroke-width="5"></path><path d="M 9.84 44.160000000000004 C 10.23 44.160000000000004, 9.75 44.415000000000006, 10.620000000000001 44.160000000000004 C 11.97 43.650000000000006, 11.865 43.980000000000004, 13.32 43.14 C 14.88 41.97, 15.225000000000001 41.879999999999995, 16.44 40.8 C 17.310000000000002 39.81, 17.310000000000002 39.99, 18.18 38.82 C 19.049999999999997 37.47, 19.2 37.724999999999994, 19.919999999999998 36.12 C 20.49 34.260000000000005, 20.595 34.230000000000004, 21.06 32.400000000000006 C 21.42 30.6, 21.6 30.089999999999996, 21.78 28.799999999999997 C 21.78 28.02, 21.78 27.975, 21.78 27.240000000000002 C 21.78 26.55, 21.78 26.55, 21.78 25.86 C 21.78 25.17, 21.78 25.095, 21.78 24.48 C 21.78 23.939999999999998, 21.78 23.865, 21.78 23.4 C 21.78 23.009999999999998, 21.78 22.965, 21.78 22.62 C 21.78 22.32, 21.78 22.17, 21.78 22.02 C 21.78 22.02, 21.78 22.02, 21.78 22.02 C 21.78 22.02, 21.795 22.035, 21.78 22.02 C 21.75 21.990000000000002, 21.765 21.825000000000003, 21.72 21.96 C 21.66 22.259999999999998, 21.630000000000003 22.095, 21.6 22.56 C 21.6 23.189999999999998, 21.630000000000003 23.16, 21.6 23.82 C 21.54 24.51, 21.51 24.630000000000003, 21.48 25.200000000000003 C 21.48 25.65, 21.48 25.529999999999998, 21.48 26.099999999999998 C 21.48 26.79, 21.435000000000002 26.505, 21.48 27.48 C 21.57 28.740000000000002, 21.435000000000002 28.5, 21.66 30 C 22.02 31.740000000000002, 22.005 31.755000000000003, 22.38 33.480000000000004 C 22.77 35.190000000000005, 22.77 35.50500000000001, 23.16 36.900000000000006 C 23.55 37.980000000000004, 23.475 38.190000000000005, 23.94 39.06 C 24.48 39.72, 24.495 39.900000000000006, 25.02 40.38 C 25.53 40.68000000000001, 25.544999999999998 40.74000000000001, 26.04 40.980000000000004 C 26.52 41.16, 26.384999999999998 41.175, 27 41.339999999999996 C 27.75 41.489999999999995, 27.810000000000002 41.565, 28.5 41.64 C 29.13 41.64, 29.084999999999997 41.64, 29.759999999999998 41.64 C 30.48 41.64, 30.585 41.7, 31.200000000000003 41.64 C 31.71 41.52, 31.77 41.49000000000001, 32.22 41.400000000000006 C 32.61 41.34, 32.805 41.31, 33 41.28 L 33 41.28" fill="none" stroke="black" stroke-width="5"></path></svg>