<svg xmlns="http://www.w3.org/2000/svg" viewBox="10.313333511352539 13.279999732971191 27.314733505249023 32.96000289916992" width="27.314733505249023" height="32.96000289916992"><path d="M 18.6 44.160000000000004 C 17.97 44.010000000000005, 17.97 43.980000000000004, 17.34 43.86 C 16.71 43.769999999999996, 16.650000000000002 43.769999999999996, 16.080000000000002 43.68 C 15.57 43.59, 15.794999999999998 43.545, 15.059999999999999 43.5 C 14.1 43.5, 13.77 43.5, 13.14 43.5 C 12.84 43.5, 12.735 43.5, 12.54 43.5 C 12.45 43.5, 12.434999999999999 43.485, 12.36 43.5 C 12.3 43.53, 12.39 43.56, 12.24 43.56 C 12 43.53, 11.94 43.755, 11.76 43.5 C 11.64 43.019999999999996, 11.625 43.335, 11.52 42.54 C 11.43 41.43, 11.385 41.325, 11.34 40.32 C 11.34 39.42, 11.28 39.629999999999995, 11.34 38.519999999999996 C 11.46 37.2, 11.43 37.395, 11.58 35.88 C 11.76 34.17, 11.73 34.215, 11.94 32.46 C 12.18 30.66, 12.134999999999998 30.645, 12.419999999999998 28.86 C 12.75 27.09, 12.555000000000001 27.09, 13.080000000000002 25.32 C 13.8 23.55, 13.965 23.295, 14.52 21.78 C 14.91 20.52, 14.939999999999998 20.265, 15.299999999999999 19.259999999999998 C 15.629999999999999 18.509999999999998, 15.36 18.599999999999998, 15.96 17.759999999999998 C 16.830000000000002 16.83, 16.590000000000003 16.755, 17.700000000000003 15.899999999999999 C 19.05 15.12, 19.544999999999998 14.73, 20.4 14.34 C 20.759999999999998 14.34, 20.685000000000002 14.205, 21.12 14.34 C 21.630000000000003 14.61, 21.54 14.384999999999998, 22.14 14.879999999999999 C 22.83 15.6, 22.965 15.614999999999998, 23.52 16.32 C 23.939999999999998 17.01, 24.044999999999998 17.040000000000003, 24.36 17.700000000000003 C 24.57 18.330000000000002, 24.630000000000003 17.790000000000003, 24.78 18.96 C 24.87 20.67, 24.93 20.46, 24.96 22.38 C 24.93 24.509999999999998, 24.96 24.945, 24.900000000000002 26.64 C 24.810000000000002 27.900000000000002, 24.765 28.185000000000002, 24.72 29.160000000000004 C 24.72 29.85, 24.72 30.105, 24.72 30.54 C 24.72 30.72, 24.72 30.78, 24.72 30.900000000000002 C 24.72 30.96, 24.674999999999997 31.005, 24.72 31.02 C 24.810000000000002 30.990000000000002, 24.6 31.14, 24.900000000000002 30.96 C 25.410000000000004 30.63, 25.470000000000002 30.525, 25.92 30.299999999999997 C 26.310000000000002 30.18, 26.115000000000002 30.15, 26.700000000000003 30.06 C 27.48 30, 27.479999999999997 29.895, 28.259999999999998 29.94 C 29.04 30.090000000000003, 29.13 30.045, 29.82 30.240000000000002 C 30.42 30.48, 30.375 30.33, 31.02 30.72 C 31.71 31.259999999999998, 31.785000000000004 31.049999999999997, 32.400000000000006 31.799999999999997 C 32.940000000000005 32.76, 33.00000000000001 32.55, 33.480000000000004 33.72 C 33.900000000000006 35.1, 34.065 35.295, 34.32 36.480000000000004 C 34.41 37.47, 34.41 37.545, 34.5 38.46 C 34.59 39.3, 34.65 39.435, 34.68 40.14 C 34.65 40.71, 34.709999999999994 40.605000000000004, 34.62 41.28 C 34.47 42.06, 34.485 42.089999999999996, 34.32 42.839999999999996 C 34.14 43.56, 34.14 43.68, 33.96 44.28 C 33.78 44.760000000000005, 33.69 45, 33.599999999999994 45.24 C 33.599999999999994 45.24, 33.599999999999994 45.24, 33.599999999999994 45.24 L 33.599999999999994 45.24" fill="none" stroke="black" stroke-width="5"></path><path d="M 30.18 15.48 C 29.28 16.619999999999997, 28.935000000000002 16.589999999999996, 28.380000000000003 17.759999999999998 C 28.17 18.96, 28.095000000000002 19.035, 27.96 20.16 C 27.9 21.21, 27.884999999999998 21.314999999999998, 27.839999999999996 22.259999999999998 C 27.81 23.1, 27.675 23.1, 27.78 23.94 C 28.02 24.78, 27.705 24.779999999999998, 28.259999999999998 25.619999999999997 C 29.13 26.459999999999997, 28.785 26.789999999999996, 30 27.299999999999997 C 31.56 27.48, 31.964999999999996 27.57, 33.12 27.660000000000004 C 33.87 27.660000000000004, 33.989999999999995 27.840000000000003, 34.62 27.660000000000004 C 35.129999999999995 27.300000000000004, 35.19 27.6, 35.64 26.94 C 36.03 25.98, 36.21 25.965, 36.42 25.02 C 36.45 24.09, 36.435 23.985, 36.480000000000004 23.16 C 36.54 22.439999999999998, 36.69 22.604999999999997, 36.599999999999994 21.72 C 36.36 20.67, 36.51 20.52, 36.12 19.62 C 35.58 18.87, 35.685 18.765, 35.04 18.12 C 34.29 17.58, 34.275 17.445, 33.54 17.04 C 32.81999999999999 16.77, 32.74499999999999 16.665, 32.099999999999994 16.5 C 31.529999999999998 16.439999999999998, 31.244999999999997 16.41, 30.96 16.38 C 30.96 16.38, 31.125 16.38, 30.96 16.38 C 30.63 16.38, 30.494999999999997 16.38, 30.299999999999997 16.38 L 30.18 16.38" fill="none" stroke="black" stroke-width="5"></path><path d="M 28.14 21.36 C 28.47 21.48, 28.034999999999997 21.42, 28.799999999999997 21.6 C 30 21.840000000000003, 30.120000000000005 21.945, 31.200000000000003 22.080000000000002 C 32.16 22.11, 32.19 22.080000000000002, 33.12 22.14 C 34.019999999999996 22.23, 34.155 22.23, 34.92 22.32 C 35.55 22.41, 35.82 22.455, 36.18 22.5 C 36.269999999999996 22.5, 36.315 22.5, 36.36 22.5 L 36.36 22.5" fill="none" stroke="black" stroke-width="5"></path></svg>