<svg xmlns="http://www.w3.org/2000/svg" viewBox="7.979999542236328 2.9000000953674316 19.946666717529297 42.91999816894531" width="19.946666717529297" height="42.91999816894531"><path d="M 9.24 39.660000000000004 C 9.66 39.69, 9.465 39.705, 10.08 39.72 C 10.89 39.72, 10.889999999999999 39.72, 11.7 39.72 C 12.51 39.72, 12.51 39.75, 13.32 39.72 C 14.13 39.66, 14.265 39.644999999999996, 14.940000000000001 39.599999999999994 C 15.48 39.56999999999999, 15.465 39.599999999999994, 16.02 39.54 C 16.59 39.45, 16.725 39.405, 17.16 39.36 C 17.46 39.36, 17.49 39.36, 17.759999999999998 39.36 C 18 39.36, 18.12 39.36, 18.240000000000002 39.36 L 18.240000000000002 39.36" fill="none" stroke="black" stroke-width="5"></path><path d="M 9.899999999999999 44.82 C 9.809999999999999 44.19, 9.885 44.565000000000005, 9.72 43.56 C 9.48 42.18, 9.42 41.925, 9.24 40.8 C 9.120000000000001 39.93, 9.06 39.99, 9 39.06 C 9 38.07, 9 37.965, 9 37.08 C 9 36.3, 9 36.3, 9 35.519999999999996 C 9 34.739999999999995, 8.955 34.575, 9 33.96 C 9.09 33.510000000000005, 9.09 33.36, 9.18 33.06 C 9.27 32.91, 8.954999999999998 32.97, 9.36 32.76 C 10.08 32.489999999999995, 9.975000000000001 32.355, 10.8 32.22 C 11.73 32.22, 11.625 32.22, 12.66 32.22 C 13.8 32.22, 13.590000000000002 32.22, 14.940000000000001 32.22 C 16.5 32.22, 16.814999999999998 32.22, 18.06 32.22 C 18.99 32.22, 18.839999999999996 32.22, 19.919999999999998 32.22 C 21.15 32.22, 21.345 32.22, 22.38 32.22 C 23.22 32.22, 23.22 32.31, 24.06 32.22 C 24.9 32.04, 25.125 32.265, 25.740000000000002 31.86 C 26.130000000000003 31.229999999999997, 26.265 31.424999999999997, 26.52 30.599999999999998 C 26.64 29.58, 26.669999999999998 29.685, 26.759999999999998 28.56 C 26.82 27.33, 26.85 27.525, 26.880000000000003 26.099999999999998 C 26.880000000000003 24.479999999999997, 26.985000000000003 24.959999999999997, 26.880000000000003 22.86 C 26.67 20.28, 26.685000000000002 19.695000000000004, 26.46 17.700000000000003 C 26.22 16.29, 26.205000000000002 16.5, 25.98 14.879999999999999 C 25.77 13.05, 25.799999999999997 12.975, 25.56 11.22 C 25.29 9.540000000000001, 25.2 9.135, 25.02 7.86 C 24.93 6.99, 24.929999999999996 6.795, 24.839999999999996 6.12 C 24.75 5.640000000000001, 24.750000000000004 5.475, 24.660000000000004 5.16 C 24.57 5.01, 24.525000000000002 5.1000000000000005, 24.48 4.86 C 24.48 4.529999999999999, 24.51 4.4399999999999995, 24.48 4.199999999999999 C 24.42 4.05, 24.39 3.975, 24.36 3.9000000000000004 C 24.36 3.9000000000000004, 24.36 3.9000000000000004, 24.36 3.9000000000000004 L 24.36 3.9000000000000004" fill="none" stroke="black" stroke-width="5"></path><path d="M 15.48 10.08 C 15.09 10.08, 15.285 9.96, 14.700000000000001 10.08 C 13.920000000000002 10.32, 13.830000000000002 10.17, 13.14 10.56 C 12.54 11.100000000000001, 12.54 10.74, 11.94 11.64 C 11.34 12.9, 11.175 13.065000000000001, 10.74 14.16 C 10.469999999999999 15.09, 10.379999999999999 14.85, 10.2 16.02 C 10.11 17.43, 9.959999999999999 17.43, 10.02 18.84 C 10.23 20.25, 9.885 20.43, 10.44 21.66 C 11.34 22.71, 11.34 23.055, 12.24 23.759999999999998 C 13.14 24.119999999999997, 13.02 24.240000000000002, 14.04 24.48 C 15.18 24.6, 15.36 24.794999999999998, 16.32 24.72 C 17.1 24.45, 17.205 24.72, 17.88 24.18 C 18.45 23.369999999999997, 18.555 23.384999999999998, 19.02 22.56 C 19.380000000000003 21.72, 19.395000000000003 21.869999999999997, 19.740000000000002 20.88 C 20.07 19.740000000000002, 20.235 19.665, 20.4 18.6 C 20.4 17.61, 20.445 17.520000000000003, 20.4 16.62 C 20.31 15.81, 20.43 15.735, 20.22 15 C 19.89 14.34, 19.845 14.219999999999999, 19.56 13.68 C 19.32 13.26, 19.380000000000003 13.215, 19.080000000000002 12.84 C 18.72 12.51, 18.705 12.525, 18.36 12.18 C 18.03 11.82, 18.075000000000003 11.79, 17.700000000000003 11.459999999999999 C 17.28 11.16, 17.235 11.084999999999999, 16.86 10.86 C 16.53 10.71, 16.485000000000003 10.68, 16.200000000000003 10.56 C 15.96 10.469999999999999, 15.915000000000003 10.424999999999999, 15.72 10.379999999999999 C 15.57 10.379999999999999, 15.495 10.379999999999999, 15.419999999999998 10.379999999999999 C 15.419999999999998 10.379999999999999, 15.419999999999998 10.379999999999999, 15.419999999999998 10.379999999999999 L 15.419999999999998 10.379999999999999" fill="none" stroke="black" stroke-width="5"></path><path d="M 10.86 16.98 C 11.73 17.130000000000003, 11.655000000000001 17.130000000000003, 12.600000000000001 17.28 C 13.620000000000001 17.43, 13.68 17.415000000000003, 14.64 17.580000000000002 C 15.540000000000001 17.76, 15.720000000000002 17.805, 16.44 17.94 C 16.98 18.03, 17.055 18.075000000000003, 17.52 18.12 C 17.909999999999997 18.12, 17.834999999999997 18.12, 18.299999999999997 18.12 C 18.839999999999996 18.12, 19.034999999999997 18.12, 19.38 18.12 C 19.53 18.12, 19.605 18.12, 19.68 18.12 C 19.68 18.12, 19.68 18.12, 19.68 18.12 L 19.68 18.12" fill="none" stroke="black" stroke-width="5"></path></svg>