<svg xmlns="http://www.w3.org/2000/svg" viewBox="11.420000076293945 2.7200000286102295 21.5 43.69999814033508" width="21.5" height="43.69999814033508"><path d="M 15.059999999999999 3.7199999999999998 C 14.79 5.01, 14.94 4.740000000000001, 14.52 6.300000000000001 C 13.95 8.129999999999999, 13.844999999999999 7.935, 13.379999999999999 9.959999999999999 C 13.02 12.18, 12.9 12.194999999999999, 12.66 14.399999999999999 C 12.54 16.59, 12.419999999999998 16.89, 12.419999999999998 18.78 C 12.54 20.37, 12.465 20.655, 12.66 21.96 C 12.93 22.98, 12.780000000000001 23.189999999999998, 13.200000000000001 24 C 13.77 24.6, 13.74 24.810000000000002, 14.34 25.200000000000003 C 14.97 25.380000000000003, 14.91 25.695, 15.600000000000001 25.56 C 16.35 25.11, 16.380000000000003 25.395000000000003, 17.1 24.660000000000004 C 17.79 23.64, 17.91 23.580000000000002, 18.48 22.62 C 18.93 21.72, 19.125 21.555, 19.38 20.82 C 19.439999999999998 20.25, 19.47 19.965, 19.5 19.68 C 19.5 19.68, 19.47 19.68, 19.5 19.68 C 19.560000000000002 19.68, 19.560000000000002 19.5, 19.62 19.68 C 19.68 20.04, 19.62 19.904999999999998, 19.740000000000002 20.4 C 19.92 21.03, 19.875 20.985, 20.1 21.66 C 20.37 22.380000000000003, 20.16 22.395000000000003, 20.64 23.1 C 21.33 23.79, 21.39 23.97, 22.02 24.48 C 22.59 24.810000000000002, 22.2 24.735, 23.16 25.14 C 24.509999999999998 25.619999999999997, 24.555 25.83, 25.86 26.099999999999998 C 27.12 26.159999999999997, 27.285000000000004 26.31, 28.380000000000003 26.22 C 29.310000000000002 25.98, 29.475 25.995, 30.240000000000002 25.740000000000002 C 30.840000000000003 25.470000000000002, 31.020000000000003 25.335, 31.44 25.200000000000003 C 31.68 25.200000000000003, 31.8 25.200000000000003, 31.92 25.200000000000003 L 31.92 25.200000000000003" fill="none" stroke="black" stroke-width="5"></path><path d="M 24.839999999999996 5.16 C 24.029999999999998 5.61, 23.955 5.5200000000000005, 23.22 6.0600000000000005 C 22.56 6.69, 22.589999999999996 6.45, 21.9 7.32 C 21.18 8.43, 20.865000000000002 8.370000000000001, 20.46 9.540000000000001 C 20.37 10.77, 20.25 10.77, 20.28 12 C 20.43 13.23, 20.25 13.5, 20.580000000000002 14.46 C 21.090000000000003 15.15, 20.955000000000002 15.255, 21.6 15.84 C 22.380000000000003 16.32, 22.455 16.514999999999997, 23.16 16.799999999999997 C 23.79 16.89, 23.64 17.07, 24.42 16.98 C 25.35 16.71, 25.53 16.71, 26.28 16.44 C 26.85 16.17, 26.910000000000004 16.2, 27.42 15.899999999999999 C 27.87 15.57, 28.005000000000003 15.645, 28.32 15.24 C 28.5 14.76, 28.545 14.79, 28.68 14.28 C 28.77 13.74, 28.814999999999998 13.695, 28.86 13.200000000000001 C 28.86 12.75, 28.875 13.004999999999999, 28.86 12.299999999999999 C 28.83 11.34, 28.889999999999997 11.174999999999999, 28.799999999999997 10.379999999999999 C 28.65 9.75, 28.724999999999998 9.780000000000001, 28.5 9.120000000000001 C 28.200000000000003 8.43, 28.230000000000004 8.415000000000001, 27.900000000000002 7.74 C 27.54 7.08, 27.495 6.87, 27.18 6.42 C 26.91 6.18, 26.97 6.194999999999999, 26.64 5.9399999999999995 C 26.25 5.67, 26.354999999999997 5.550000000000001, 25.86 5.4 C 25.26 5.37, 25.035000000000004 5.355, 24.660000000000004 5.34 C 24.51 5.34, 24.525 5.34, 24.36 5.34 L 24 5.34" fill="none" stroke="black" stroke-width="5"></path><path d="M 20.1 11.100000000000001 C 20.46 11.25, 20.19 11.325, 20.82 11.399999999999999 C 21.72 11.399999999999999, 21.69 11.399999999999999, 22.62 11.399999999999999 C 23.58 11.399999999999999, 23.625 11.399999999999999, 24.54 11.399999999999999 C 25.41 11.399999999999999, 25.575000000000003 11.399999999999999, 26.28 11.399999999999999 C 26.82 11.399999999999999, 26.925 11.399999999999999, 27.36 11.399999999999999 C 27.689999999999998 11.399999999999999, 27.75 11.399999999999999, 28.02 11.399999999999999 C 28.23 11.399999999999999, 28.290000000000003 11.369999999999997, 28.44 11.399999999999999 L 28.619999999999997 11.52" fill="none" stroke="black" stroke-width="5"></path><path d="M 22.86 25.619999999999997 C 22.619999999999997 26.52, 22.755 26.295, 22.38 27.42 C 21.869999999999997 28.77, 21.96 28.86, 21.36 30.119999999999997 C 20.67 31.29, 20.64 31.5, 19.98 32.46 C 19.35 33.21, 19.515 33.135000000000005, 18.72 33.96 C 17.759999999999998 34.86, 17.819999999999997 35.04, 16.799999999999997 35.76 C 15.719999999999999 36.3, 15.18 36.56999999999999, 14.64 36.839999999999996 L 14.64 36.839999999999996" fill="none" stroke="black" stroke-width="5"></path><path d="M 28.14 32.94 C 27.96 33.9, 28.245 33.765, 27.78 34.86 C 27.03 36.09, 27.03 36.255, 26.28 37.32 C 25.53 38.22, 25.725 38.07, 24.78 39.12 C 23.64 40.31999999999999, 23.79 40.425, 22.5 41.519999999999996 C 21.060000000000002 42.51, 20.835 42.735, 19.62 43.5 C 18.630000000000003 44.04, 18.48 44.099999999999994, 17.64 44.58 C 16.95 45, 16.604999999999997 45.21, 16.259999999999998 45.42 L 16.259999999999998 45.42" fill="none" stroke="black" stroke-width="5"></path></svg>