<svg xmlns="http://www.w3.org/2000/svg" viewBox="8.859999656677246 4.28000020980835 20.580001831054688 41.600000858306885" width="20.580001831054688" height="41.600000858306885"><path d="M 12.48 44.88 C 11.969999999999999 43.290000000000006, 11.954999999999998 43.155, 11.459999999999999 41.7 C 10.98 40.38, 10.844999999999999 40.35, 10.5 39.06 C 10.29 37.8, 10.23 37.905, 10.08 36.54 C 9.989999999999998 35.06999999999999, 9.944999999999999 35.06999999999999, 9.899999999999999 33.599999999999994 C 9.899999999999999 32.129999999999995, 9.899999999999999 31.845000000000002, 9.899999999999999 30.660000000000004 C 9.899999999999999 29.76, 9.809999999999999 29.94, 9.899999999999999 28.86 C 10.079999999999998 27.599999999999998, 9.855 27.584999999999997, 10.26 26.339999999999996 C 10.89 25.11, 10.98 24.884999999999998, 11.52 23.88 C 11.969999999999999 23.1, 12.029999999999998 22.92, 12.419999999999998 22.32 C 12.75 21.9, 12.585 21.96, 13.080000000000002 21.48 C 13.74 20.939999999999998, 13.889999999999999 20.79, 14.399999999999999 20.4 C 14.76 20.159999999999997, 14.775 19.994999999999997, 15.120000000000001 19.919999999999998 C 15.45 20.009999999999998, 15.434999999999999 19.845, 15.78 20.1 C 16.14 20.520000000000003, 16.215 20.520000000000003, 16.5 20.94 C 16.71 21.36, 16.769999999999996 21.255000000000003, 16.919999999999998 21.78 C 17.009999999999998 22.41, 16.965 22.185, 17.1 23.04 C 17.28 24.12, 17.37 24.375000000000004, 17.46 25.200000000000003 C 17.46 25.77, 17.43 25.904999999999998, 17.46 26.339999999999996 C 17.520000000000003 26.64, 17.490000000000002 26.745, 17.580000000000002 26.94 C 17.700000000000003 27.03, 17.580000000000002 27.45, 17.82 27.119999999999997 C 18.18 26.369999999999997, 18.27 26.339999999999996, 18.54 25.619999999999997 C 18.72 24.93, 18.75 24.915000000000003, 18.9 24.240000000000002 C 19.02 23.58, 18.975 23.49, 19.14 22.919999999999998 C 19.35 22.439999999999998, 19.2 22.365000000000002, 19.56 21.96 C 20.07 21.63, 19.650000000000002 21.54, 20.580000000000002 21.299999999999997 C 21.93 21.15, 22.425 21.075, 23.28 21 C 23.64 21, 23.52 20.759999999999998, 24 21 C 24.6 21.48, 24.630000000000003 21.195, 25.200000000000003 21.96 C 25.740000000000002 23.009999999999998, 25.800000000000004 22.965, 26.28 24.06 C 26.7 25.199999999999996, 26.79 25.334999999999997, 27.119999999999997 26.339999999999996 C 27.36 27.209999999999997, 27.389999999999997 26.894999999999996, 27.599999999999998 28.08 C 27.78 29.58, 27.78 29.714999999999996, 27.96 31.08 C 28.14 32.31, 28.2 32.43, 28.32 33.54 C 28.380000000000003 34.53, 28.41 34.544999999999995, 28.44 35.519999999999996 C 28.44 36.48, 28.44 36.434999999999995, 28.44 37.44 C 28.44 38.489999999999995, 28.44 38.625, 28.44 39.54 C 28.44 40.31999999999999, 28.44 40.425, 28.44 41.099999999999994 C 28.44 41.67, 28.44 41.88, 28.44 42.24 C 28.44 42.39, 28.44 42.315, 28.44 42.54 C 28.44 42.84, 28.44 42.99, 28.44 43.14 L 28.44 43.14" fill="none" stroke="black" stroke-width="5"></path><path d="M 18.240000000000002 5.28 C 17.1 5.880000000000001, 16.935000000000002 5.415, 15.96 6.48 C 15.15 8.010000000000002, 14.76 8.265, 14.34 9.540000000000001 C 14.309999999999999 10.56, 14.295 10.575000000000001, 14.28 11.58 C 14.28 12.57, 13.995 12.419999999999998, 14.28 13.559999999999999 C 14.849999999999998 14.85, 14.609999999999998 15.015, 15.419999999999998 16.14 C 16.47 17.1, 16.275 17.445, 17.52 18.06 C 18.96 18.33, 19.154999999999998 18.495, 20.4 18.6 C 21.45 18.54, 21.6 18.78, 22.5 18.48 C 23.25 17.939999999999998, 23.46 18, 24 17.4 C 24.330000000000002 16.740000000000002, 24.465000000000003 17.01, 24.660000000000004 16.080000000000002 C 24.720000000000002 14.88, 24.705000000000002 15.21, 24.78 13.68 C 24.87 11.82, 25.05 11.34, 24.96 9.959999999999999 C 24.69 9.059999999999999, 24.75 8.865, 24.42 8.16 C 24.03 7.65, 24.315 7.74, 23.64 7.14 C 22.68 6.449999999999999, 22.56 6.194999999999999, 21.72 5.76 C 21 5.58, 20.91 5.49, 20.28 5.4 C 19.740000000000002 5.4, 19.755000000000003 5.340000000000001, 19.200000000000003 5.4 C 18.630000000000003 5.52, 18.689999999999998 5.445, 18.06 5.64 C 17.369999999999997 5.91, 17.07 6.029999999999999, 16.68 6.18 L 16.5 6.24" fill="none" stroke="black" stroke-width="5"></path><path d="M 15.059999999999999 11.82 C 16.2 11.7, 15.825 11.64, 17.34 11.58 C 19.23 11.58, 19.650000000000002 11.58, 21.12 11.58 C 22.17 11.58, 22.425 11.58, 23.22 11.58 C 23.759999999999998 11.58, 23.909999999999997 11.565, 24.299999999999997 11.58 C 24.54 11.61, 24.66 11.625, 24.78 11.64 L 24.78 11.64" fill="none" stroke="black" stroke-width="5"></path><path d="M 19.200000000000003 32.46 C 18.630000000000003 32.46, 18.674999999999997 32.295, 18.06 32.46 C 17.4 32.79, 17.175 32.714999999999996, 16.740000000000002 33.12 C 16.53 33.599999999999994, 16.47 33.42, 16.32 34.08 C 16.23 34.92, 16.185000000000002 35.05499999999999, 16.14 35.76 C 16.14 36.33, 16.11 36.345000000000006, 16.14 36.900000000000006 C 16.2 37.440000000000005, 16.034999999999997 37.410000000000004, 16.259999999999998 37.980000000000004 C 16.65 38.58, 16.53 38.61, 17.04 39.18 C 17.669999999999998 39.72, 17.474999999999998 39.855, 18.299999999999997 40.26 C 19.32 40.53, 19.439999999999998 40.665, 20.34 40.8 C 21.119999999999997 40.8, 21.134999999999998 41.02499999999999, 21.9 40.8 C 22.65 40.35, 22.919999999999998 40.290000000000006, 23.4 39.900000000000006 C 23.61 39.57000000000001, 23.625 39.75, 23.82 39.24 C 24 38.55, 24 38.625, 24.18 37.86 C 24.36 37.019999999999996, 24.479999999999997 37.004999999999995, 24.54 36.18 C 24.48 35.370000000000005, 24.735 35.400000000000006, 24.42 34.56 C 23.85 33.69, 23.85 33.465, 23.28 32.82 C 22.71 32.4, 22.770000000000003 32.325, 22.14 31.98 C 21.45 31.71, 21.555 31.575000000000003, 20.759999999999998 31.44 C 19.86 31.44, 19.68 31.305, 18.96 31.44 C 18.42 31.71, 18.255 31.68, 17.88 31.98 C 17.67 32.31, 17.565 32.475, 17.46 32.64 L 17.46 32.64" fill="none" stroke="black" stroke-width="5"></path><path d="M 16.799999999999997 36.36 C 17.88 36.36, 17.91 36.315, 18.96 36.36 C 19.98 36.45, 20.13 36.495, 21 36.54 C 21.72 36.54, 21.810000000000002 36.555, 22.44 36.54 C 22.98 36.510000000000005, 23.13 36.495000000000005, 23.52 36.480000000000004 C 23.759999999999998 36.480000000000004, 23.88 36.480000000000004, 24 36.480000000000004 C 24 36.480000000000004, 23.955 36.495000000000005, 24 36.480000000000004 L 24.18 36.42" fill="none" stroke="black" stroke-width="5"></path></svg>