<svg xmlns="http://www.w3.org/2000/svg" viewBox="12.119999885559082 2.7799999713897705 22.65999984741211 37.87999987602234" width="22.65999984741211" height="37.87999987602234"><path d="M 15.120000000000001 6.6000000000000005 C 14.49 8.67, 14.295 8.940000000000001, 13.86 10.74 C 13.62 12.27, 13.544999999999998 12.209999999999999, 13.379999999999999 13.799999999999999 C 13.29 15.45, 13.245000000000001 15.675, 13.200000000000001 17.1 C 13.200000000000001 18.3, 13.200000000000001 18.465, 13.200000000000001 19.5 C 13.200000000000001 20.37, 13.200000000000001 20.28, 13.200000000000001 21.240000000000002 C 13.200000000000001 22.29, 13.020000000000001 22.44, 13.200000000000001 23.34 C 13.559999999999999 24.089999999999996, 13.484999999999998 24.209999999999997, 13.919999999999998 24.839999999999996 C 14.43 25.349999999999998, 14.145 25.38, 14.940000000000001 25.86 C 16.020000000000003 26.31, 15.480000000000002 26.459999999999997, 17.1 26.759999999999998 C 19.259999999999998 26.909999999999997, 19.185 26.985, 21.419999999999998 27.06 C 23.729999999999997 27.06, 24.24 27.06, 26.04 27.06 C 27.33 27.06, 27.494999999999997 27.06, 28.619999999999997 27.06 C 29.58 27.06, 29.805 27.224999999999998, 30.54 27.06 C 31.049999999999997 26.73, 31.095 26.85, 31.56 26.400000000000002 C 31.980000000000004 25.83, 32.07000000000001 25.83, 32.400000000000006 25.259999999999998 C 32.64 24.689999999999998, 32.64 24.854999999999997, 32.88 24.119999999999997 C 33.120000000000005 23.22, 33.18 23.61, 33.36 22.32 C 33.48 20.64, 33.49499999999999 21.435000000000002, 33.599999999999994 18.96 C 33.69 15.69, 33.75 15.239999999999998, 33.78 12.419999999999998 C 33.75 10.049999999999999, 33.735 8.924999999999999, 33.72 7.68 C 33.72 7.56, 33.735 7.6049999999999995, 33.72 7.4399999999999995 C 33.69 7.2299999999999995, 33.675000000000004 7.125, 33.660000000000004 7.02 L 33.660000000000004 7.02" fill="none" stroke="black" stroke-width="5"></path><path d="M 27.06 5.5200000000000005 C 26.699999999999996 7.890000000000001, 26.669999999999995 7.589999999999999, 26.339999999999996 10.26 C 26.04 13.23, 25.89 13.770000000000003, 25.740000000000002 16.200000000000003 C 25.740000000000002 18.090000000000003, 25.740000000000002 18.78, 25.740000000000002 19.98 C 25.740000000000002 20.490000000000002, 25.770000000000003 20.64, 25.740000000000002 21 L 25.619999999999997 21.419999999999998" fill="none" stroke="black" stroke-width="5"></path><path d="M 19.86 3.7800000000000002 C 19.77 5.07, 19.86 3.960000000000001, 19.68 6.36 C 19.41 9.87, 19.32 10.469999999999999, 19.14 13.379999999999999 C 19.05 15.69, 19.005000000000003 16.29, 18.96 18 C 18.96 19.11, 18.96 19.665, 18.96 20.22 L 18.96 20.22" fill="none" stroke="black" stroke-width="5"></path><path d="M 24.36 35.339999999999996 C 23.490000000000002 35.58, 23.355 35.114999999999995, 22.62 35.82 C 22.02 36.99, 21.599999999999998 37.2, 21.419999999999998 38.160000000000004 C 21.659999999999997 38.910000000000004, 21.33 39.39, 21.9 39.660000000000004 C 22.8 39.45, 23.145000000000003 39.99, 23.700000000000003 39.24 C 23.91 37.95, 24.509999999999998 37.74, 24.119999999999997 36.660000000000004 C 23.13 35.790000000000006, 22.83 35.445, 22.14 34.92 C 21.75 34.74, 21.72 34.095, 21.36 34.56 C 21.03 35.67, 20.625000000000004 35.94, 20.700000000000003 36.78 C 21.18 37.35, 21.045 37.755, 21.66 37.92 C 22.41 37.68, 22.8 38.19, 23.16 37.44 C 23.130000000000003 36.18, 23.655 35.64, 23.1 34.92 C 22.020000000000003 34.74, 21.630000000000003 33.81, 20.94 34.56 C 20.64 36.24, 20.310000000000002 36.825, 20.34 37.92 C 20.7 38.43, 20.52 38.81999999999999, 21.06 38.94 C 21.78 38.67, 22.17 38.745000000000005, 22.5 38.400000000000006 C 22.439999999999998 37.980000000000004, 22.41 37.77, 22.38 37.56 L 22.38 37.56" fill="none" stroke="black" stroke-width="5"></path></svg>