<svg xmlns="http://www.w3.org/2000/svg" viewBox="6.71999979019165 3.1999998092651367 18.82000160217285 41.63270282745361" width="18.82000160217285" height="41.63270282745361"><path d="M 14.580000000000002 31.799999999999997 C 14.760000000000002 32.58, 14.775000000000002 32.64, 14.940000000000001 33.36 C 15.09 34.019999999999996, 15.120000000000001 33.735, 15.24 34.68 C 15.329999999999998 35.91, 15.374999999999998 36.255, 15.419999999999998 37.14 C 15.419999999999998 37.68, 15.419999999999998 37.5, 15.419999999999998 38.22 C 15.419999999999998 39.12, 15.644999999999998 39.12, 15.419999999999998 40.019999999999996 C 14.969999999999999 40.92, 15.075 41.04, 14.52 41.82 C 13.86 42.480000000000004, 13.695 42.705, 13.200000000000001 43.14 C 12.870000000000001 43.35, 12.87 43.395, 12.54 43.56 C 12.209999999999999 43.68, 12.299999999999999 43.92, 11.879999999999999 43.8 C 11.37 43.44, 11.444999999999999 43.724999999999994, 10.86 43.08 C 10.2 42.15, 10.065000000000001 42.254999999999995, 9.540000000000001 41.22 C 9.15 40.08, 9.12 40.41, 8.76 38.94 C 8.43 37.14, 8.355 36.989999999999995, 8.100000000000001 35.339999999999996 C 7.920000000000001 33.839999999999996, 7.83 33.629999999999995, 7.74 32.339999999999996 C 7.74 31.259999999999998, 7.74 31.185, 7.74 30.18 C 7.74 29.25, 7.74 29.384999999999998, 7.74 28.32 C 7.74 27.12, 7.74 27.150000000000002, 7.74 25.92 C 7.74 24.66, 7.695 24.54, 7.74 23.4 C 7.83 22.38, 7.83 22.125, 7.92 21.36 C 8.010000000000002 20.85, 7.905000000000001 20.91, 8.100000000000001 20.34 C 8.4 19.71, 8.37 19.695, 8.7 19.080000000000002 C 9.059999999999999 18.48, 9.075 18.24, 9.42 17.88 C 9.75 17.759999999999998, 9.795 17.73, 10.08 17.64 C 10.32 17.58, 10.17 17.55, 10.56 17.52 C 11.100000000000001 17.52, 11.145000000000001 17.52, 11.64 17.52 C 12.09 17.52, 12.12 17.52, 12.54 17.52 C 12.93 17.52, 13.005 17.52, 13.32 17.52 C 13.559999999999999 17.52, 13.604999999999999 17.52, 13.799999999999999 17.52 C 13.95 17.52, 13.995000000000001 17.52, 14.100000000000001 17.52 C 14.16 17.52, 14.100000000000001 17.295, 14.22 17.52 C 14.400000000000002 17.97, 14.400000000000002 17.759999999999998, 14.580000000000002 18.419999999999998 C 14.760000000000002 19.29, 14.805000000000001 19.259999999999998, 14.940000000000001 20.16 C 15.030000000000001 21.09, 15.075000000000001 21.525, 15.120000000000001 22.02 C 15.120000000000001 22.08, 15.120000000000001 22.11, 15.120000000000001 22.14 C 15.120000000000001 22.14, 15.090000000000002 22.155, 15.120000000000001 22.14 C 15.18 22.11, 15.105 22.470000000000002, 15.24 22.080000000000002 C 15.45 21.330000000000002, 15.405000000000001 21.270000000000003, 15.66 20.580000000000002 C 15.959999999999999 19.950000000000003, 15.809999999999999 20.025000000000002, 16.259999999999998 19.32 C 16.86 18.54, 16.995 18.299999999999997, 17.46 17.759999999999998 C 17.79 17.46, 17.805 17.355, 18.12 17.16 C 18.42 17.07, 18.104999999999997 16.995, 18.72 16.98 C 19.65 17.04, 19.470000000000002 17.040000000000003, 20.580000000000002 17.1 C 21.87 17.16, 22.17 17.189999999999998, 23.16 17.22 C 23.85 17.22, 24.195 17.22, 24.54 17.22 C 24.54 17.22, 24.54 17.22, 24.54 17.22 L 24.54 17.22" fill="none" stroke="black" stroke-width="5"></path><path d="M 11.94 16.5 C 12.149999999999999 14.61, 12.209999999999999 14.475000000000001, 12.36 12.72 C 12.45 11.100000000000001, 12.375 11.040000000000001, 12.54 9.48 C 12.78 7.98, 12.854999999999999 7.575000000000001, 13.02 6.48 C 13.11 5.79, 13.155000000000001 5.67, 13.200000000000001 5.1 C 13.200000000000001 4.6499999999999995, 13.200000000000001 4.424999999999999, 13.200000000000001 4.199999999999999 L 13.200000000000001 4.199999999999999" fill="none" stroke="black" stroke-width="5"></path><path d="M 20.88 17.46 C 20.88 17.46, 20.88 18.045, 20.88 17.46 C 20.88 16.29, 20.775 16.575000000000003, 20.88 15.120000000000001 C 21.089999999999996 13.38, 21.119999999999997 13.41, 21.299999999999997 11.64 C 21.45 9.84, 21.495 9.405000000000001, 21.6 8.040000000000001 C 21.66 7.11, 21.689999999999998 6.645, 21.72 6.18 C 21.72 6.18, 21.72 6.255, 21.72 6.18 L 21.72 5.88" fill="none" stroke="black" stroke-width="5"></path></svg>