<svg xmlns="http://www.w3.org/2000/svg" viewBox="12.151944160461426 1.8199999332427979 18.008056640625 41.06000113487244" width="18.008056640625" height="41.06000113487244"><path d="M 13.26 22.38 C 13.26 20.25, 13.26 19.545, 13.26 18.12 C 13.26 17.4, 13.2 17.325, 13.26 16.68 C 13.379999999999999 16.11, 12.81 16.23, 13.5 15.54 C 14.76 14.729999999999999, 14.864999999999998 14.369999999999997, 16.02 13.919999999999998 C 17.07 13.829999999999998, 16.92 13.785, 18.12 13.74 C 19.47 13.74, 19.35 13.74, 20.82 13.74 C 22.41 13.74, 22.634999999999998 13.74, 24 13.74 C 25.14 13.74, 25.485 13.74, 26.28 13.74 C 26.73 13.74, 26.79 13.695, 27.18 13.74 C 27.509999999999998 13.829999999999998, 27.479999999999997 13.394999999999998, 27.839999999999996 13.919999999999998 C 28.229999999999997 14.879999999999999, 28.334999999999997 14.535, 28.619999999999997 15.84 C 28.799999999999997 17.490000000000002, 28.875 17.67, 28.98 19.14 C 29.009999999999998 20.43, 28.994999999999997 20.955, 29.04 21.72 C 29.1 21.96, 29.130000000000003 22.080000000000002, 29.160000000000004 22.200000000000003 L 29.160000000000004 22.200000000000003" fill="none" stroke="black" stroke-width="5"></path><path d="M 18.9 13.799999999999999 C 18.9 13.11, 18.9 13.619999999999997, 18.9 12.419999999999998 C 18.9 10.709999999999999, 18.9 10.74, 18.9 9 C 18.9 7.23, 18.9 6.75, 18.9 5.46 C 18.9 4.65, 18.9 4.5, 18.9 3.84 C 18.9 3.33, 18.9 3.0749999999999997, 18.9 2.82 L 18.9 2.82" fill="none" stroke="black" stroke-width="5"></path><path d="M 24.18 14.16 C 24.18 14.16, 24.18 14.88, 24.18 14.16 C 24.18 12.719999999999999, 24.18 12.959999999999999, 24.18 11.28 C 24.18 9.36, 24.165 9.014999999999999, 24.18 7.4399999999999995 C 24.21 6.209999999999999, 24.195 5.7749999999999995, 24.240000000000002 4.9799999999999995 C 24.3 4.619999999999999, 24.314999999999998 4.635, 24.36 4.26 C 24.39 3.8699999999999997, 24.375 3.7199999999999993, 24.42 3.4799999999999995 L 24.54 3.3000000000000003" fill="none" stroke="black" stroke-width="5"></path><path d="M 21.6 14.34 C 21.57 15.540000000000001, 21.555 15.39, 21.54 16.740000000000002 C 21.54 18.240000000000002, 21.479999999999997 17.895000000000003, 21.54 19.740000000000002 C 21.66 21.93, 21.72 22.139999999999997, 21.78 24.119999999999997 C 21.78 25.89, 21.78 25.980000000000004, 21.78 27.660000000000004 C 21.78 29.25, 21.855 29.354999999999997, 21.78 30.839999999999996 C 21.630000000000003 32.22, 21.66 32.489999999999995, 21.48 33.599999999999994 C 21.27 34.44, 21.45 34.215, 21.06 35.28 C 20.49 36.57, 20.685 36.644999999999996, 19.919999999999998 37.86 C 18.96 39, 18.735 39.375, 18 40.14 C 17.490000000000002 40.53, 17.310000000000002 40.695, 16.98 40.92 C 16.83 40.980000000000004, 16.92 40.875, 16.68 41.04 C 16.35 41.31, 16.305 41.37, 16.02 41.58 L 15.54 41.88" fill="none" stroke="black" stroke-width="5"></path></svg>