<svg xmlns="http://www.w3.org/2000/svg" viewBox="10.773333549499512 3.440000057220459 20.946664810180664 39.380001068115234" width="20.946664810180664" height="39.380001068115234"><path d="M 12 4.4399999999999995 C 11.91 5.46, 11.865 4.755000000000001, 11.82 6.48 C 11.82 8.91, 11.82 9.09, 11.82 11.34 C 11.82 13.41, 11.715 13.485, 11.82 15.48 C 12.030000000000001 17.4, 12.075 17.565, 12.24 19.32 C 12.36 20.91, 12.315000000000001 20.715, 12.48 22.5 C 12.69 24.48, 12.735 24.705000000000002, 12.899999999999999 26.46 C 13.02 27.990000000000002, 13.035 28.17, 13.14 29.52 C 13.23 30.689999999999998, 13.2 30.855, 13.32 31.86 C 13.47 32.7, 13.500000000000002 32.519999999999996, 13.620000000000001 33.54 C 13.71 34.739999999999995, 13.709999999999999 34.86, 13.799999999999999 35.94 C 13.89 36.9, 13.89 37.004999999999995, 13.98 37.86 C 14.07 38.61, 14.115 38.61, 14.16 39.36 C 14.16 40.11, 14.16 40.335, 14.16 40.86 C 14.16 41.16, 14.16 41.265, 14.16 41.46 C 14.16 41.55, 14.16 41.595, 14.16 41.64 C 14.16 41.64, 14.16 41.64, 14.16 41.64 C 14.16 41.64, 14.16 41.595, 14.16 41.64 L 14.16 41.82" fill="none" stroke="black" stroke-width="5"></path><path d="M 13.14 31.32 C 13.32 31.53, 13.17 31.605000000000004, 13.5 31.740000000000002 C 13.98 31.8, 14.025 31.8, 14.46 31.86 C 14.850000000000001 31.92, 14.715 31.95, 15.24 31.98 C 15.899999999999999 31.98, 15.899999999999999 32.1, 16.56 31.98 C 17.22 31.740000000000002, 17.099999999999998 32.144999999999996, 17.88 31.5 C 18.78 30.450000000000003, 18.974999999999998 30.255000000000003, 19.68 29.400000000000002 C 20.19 28.740000000000002, 20.190000000000005 28.814999999999998, 20.700000000000003 28.08 C 21.21 27.27, 21.285 27.435000000000002, 21.72 26.46 C 22.08 25.32, 22.185000000000002 25.155, 22.44 24.18 C 22.590000000000003 23.369999999999997, 22.665000000000003 22.965, 22.740000000000002 22.56 C 22.740000000000002 22.56, 22.740000000000002 22.56, 22.740000000000002 22.56 C 22.740000000000002 22.56, 22.71 22.544999999999998, 22.740000000000002 22.56 C 22.8 22.59, 22.83 21.990000000000002, 22.86 22.62 C 22.86 23.85, 22.86 23.759999999999998, 22.86 25.08 C 22.86 26.490000000000002, 22.799999999999997 26.880000000000003, 22.86 27.900000000000002 C 22.98 28.53, 22.89 28.635000000000005, 23.1 29.160000000000004 C 23.400000000000002 29.580000000000002, 23.265000000000004 29.580000000000002, 23.700000000000003 30 C 24.27 30.419999999999998, 24.269999999999996 30.569999999999997, 24.839999999999996 30.839999999999996 C 25.409999999999997 30.959999999999997, 25.439999999999998 30.989999999999995, 25.98 31.08 C 26.490000000000002 31.14, 26.28 31.17, 27 31.200000000000003 C 27.93 31.200000000000003, 28.02 31.260000000000005, 28.86 31.200000000000003 C 29.61 31.080000000000002, 29.909999999999997 31.065, 30.36 30.96 C 30.51 30.87, 30.585 30.825000000000003, 30.660000000000004 30.78 C 30.660000000000004 30.78, 30.645000000000003 30.810000000000002, 30.660000000000004 30.78 L 30.72 30.660000000000004" fill="none" stroke="black" stroke-width="5"></path><path d="M 26.339999999999996 20.46 C 26.4 20.46, 26.4 20.520000000000003, 26.46 20.46 C 26.52 20.34, 26.595 20.895, 26.58 20.22 C 26.490000000000002 18.99, 26.55 19.244999999999997, 26.400000000000002 17.759999999999998 C 26.19 16.02, 26.085 15.584999999999999, 25.98 14.28 C 25.98 13.41, 25.98 13.544999999999998, 25.98 12.54 C 25.98 11.399999999999999, 25.92 11.49, 25.98 10.26 C 26.1 8.94, 26.115 8.58, 26.22 7.62 C 26.310000000000002 7.02, 26.355 6.795, 26.400000000000002 6.42 L 26.400000000000002 6.12" fill="none" stroke="black" stroke-width="5"></path><path d="M 16.98 18.48 C 16.98 16.23, 16.98 15.885000000000002, 16.98 13.98 C 16.98 12.42, 16.89 12.434999999999999, 16.98 10.86 C 17.16 9.27, 17.205 8.924999999999999, 17.34 7.68 C 17.43 6.779999999999999, 17.445 6.4799999999999995, 17.52 5.88 C 17.58 5.58, 17.61 5.43, 17.64 5.28 L 17.64 5.28" fill="none" stroke="black" stroke-width="5"></path></svg>