<svg xmlns="http://www.w3.org/2000/svg" viewBox="13.319999694824219 1.0999999046325684 22.080001831054688 46.22000074386597" width="22.080001831054688" height="46.22000074386597"><path d="M 14.399999999999999 27.119999999999997 C 14.399999999999999 25.229999999999997, 14.219999999999999 25.605, 14.399999999999999 23.34 C 14.76 20.7, 14.940000000000001 19.604999999999997, 15.120000000000001 18.06 C 15.120000000000001 17.61, 15.060000000000002 17.55, 15.120000000000001 17.16 C 15.24 16.83, 14.79 16.875, 15.36 16.5 C 16.38 16.08, 15.719999999999999 16.14, 17.4 15.66 C 19.740000000000002 15.120000000000001, 20.1 14.970000000000002, 22.080000000000002 14.580000000000002 C 23.700000000000003 14.340000000000002, 23.85 14.265000000000002, 25.32 14.100000000000001 C 26.64 14.01, 26.655 13.965, 27.96 13.919999999999998 C 29.25 13.919999999999998, 29.58 13.919999999999998, 30.54 13.919999999999998 C 31.169999999999998 13.919999999999998, 31.29 13.844999999999997, 31.799999999999997 13.919999999999998 C 32.19 14.07, 32.25 14.085, 32.58 14.22 C 32.849999999999994 14.34, 32.81999999999999 14.250000000000002, 33.12 14.46 C 33.45 14.76, 33.465 14.52, 33.78 15.059999999999999 C 34.08 15.84, 34.230000000000004 15, 34.38 16.62 C 34.38 19.08, 34.38 19.845, 34.38 21.54 C 34.38 22.47, 34.38 22.56, 34.38 23.4 C 34.38 24.15, 34.425000000000004 24.090000000000003, 34.38 24.900000000000002 C 34.290000000000006 25.770000000000003, 34.410000000000004 26.07, 34.2 26.64 L 33.54 27.18" fill="none" stroke="black" stroke-width="5"></path><path d="M 21.299999999999997 15.299999999999999 C 21.36 15.299999999999999, 21.33 15.645, 21.419999999999998 15.299999999999999 C 21.54 14.61, 21.6 14.774999999999999, 21.66 13.919999999999998 C 21.66 12.899999999999999, 21.66 13.439999999999998, 21.66 11.879999999999999 C 21.66 9.78, 21.66 9.33, 21.66 7.68 C 21.66 6.48, 21.615000000000002 6.36, 21.66 5.28 C 21.75 4.32, 21.795 4.155, 21.84 3.3600000000000003 C 21.84 2.73, 21.84 2.415, 21.84 2.0999999999999996 L 21.84 2.0999999999999996" fill="none" stroke="black" stroke-width="5"></path><path d="M 27.42 14.46 C 27.42 14.520000000000001, 27.42 14.520000000000001, 27.42 14.580000000000002 C 27.42 14.64, 27.375000000000004 15.285000000000002, 27.42 14.700000000000001 C 27.509999999999998 13.47, 27.555 13.395, 27.599999999999998 12.24 C 27.599999999999998 11.16, 27.554999999999996 11.265, 27.599999999999998 10.08 C 27.689999999999998 8.79, 27.69 8.745000000000001, 27.78 7.5 C 27.87 6.3, 27.87 6.06, 27.96 5.1 C 28.05 4.38, 28.095 4.305, 28.14 3.66 L 28.14 2.52" fill="none" stroke="black" stroke-width="5"></path><path d="M 23.94 15.120000000000001 C 23.520000000000003 16.8, 23.535 16.380000000000003, 23.1 18.48 C 22.650000000000002 21, 22.455000000000002 21.134999999999998, 22.200000000000003 23.52 C 22.14 25.77, 21.840000000000003 26.294999999999998, 22.080000000000002 28.02 C 22.62 29.22, 22.575 29.505000000000003, 23.16 30.42 C 23.79 31.05, 23.430000000000003 31.035, 24.42 31.68 C 25.77 32.34, 25.754999999999995 32.655, 27.119999999999997 33 C 28.5 33.03, 28.635000000000005 32.955, 29.880000000000003 33.06 C 30.99 33.24, 31.334999999999994 33.285000000000004, 32.099999999999994 33.42 C 32.519999999999996 33.51, 32.684999999999995 33.404999999999994, 32.94 33.599999999999994 C 33.03 33.9, 33.089999999999996 33.660000000000004, 33.12 34.2 C 33.09 34.980000000000004, 33.255 35.19, 33.06 35.76 C 32.7 36.120000000000005, 32.834999999999994 36.225, 32.339999999999996 36.480000000000004 C 31.709999999999997 36.63, 32.025 36.615, 31.08 36.78 C 29.82 36.96, 30.165 36.885000000000005, 28.56 37.14 C 26.61 37.47, 26.400000000000002 37.41, 24.660000000000004 37.8 C 23.130000000000003 38.25, 22.950000000000003 38.175, 21.6 38.7 C 20.43 39.300000000000004, 20.31 38.98500000000001, 19.259999999999998 39.900000000000006 C 18.33 41.13, 18.029999999999998 41.04, 17.4 42.36 C 17.07 43.769999999999996, 16.905 44.19, 16.740000000000002 45.18 C 16.740000000000002 45.75, 16.740000000000002 46.035, 16.740000000000002 46.32 C 16.740000000000002 46.32, 16.740000000000002 46.32, 16.740000000000002 46.32 L 16.740000000000002 46.32" fill="none" stroke="black" stroke-width="5"></path></svg>