<svg xmlns="http://www.w3.org/2000/svg" viewBox="14.720000267028809 1.308351755142212 14.779999732971191 42.78893828392029" width="14.779999732971191" height="42.78893828392029"><path d="M 19.14 2.82 C 18.93 3.6900000000000004, 18.825 2.4300000000000006, 18.72 4.5600000000000005 C 18.72 7.95, 18.72 8.19, 18.72 11.34 C 18.72 14.25, 18.705 14.475, 18.72 17.16 C 18.75 19.62, 18.72 20.085, 18.78 22.080000000000002 C 18.87 23.61, 18.915 23.73, 18.96 25.14 C 18.96 26.43, 18.96 26.775, 18.96 27.72 C 18.96 28.32, 18.96 28.62, 18.96 28.92 L 18.96 28.92" fill="none" stroke="black" stroke-width="5"></path><path d="M 25.799999999999997 2.52 C 25.77 2.49, 25.830000000000002 2.1, 25.740000000000002 2.46 C 25.590000000000003 3.21, 25.605000000000004 2.4000000000000004, 25.44 3.96 C 25.259999999999998 6.33, 25.259999999999998 5.7749999999999995, 25.08 8.7 C 24.9 12.18, 24.854999999999997 12.629999999999999, 24.72 15.66 C 24.63 18.240000000000002, 24.585 18.615000000000002, 24.54 20.82 C 24.54 22.65, 24.54 23.07, 24.54 24.48 C 24.54 25.47, 24.54 25.845, 24.54 26.46 C 24.54 26.700000000000003, 24.54 26.625, 24.54 26.94 C 24.54 27.33, 24.54 27.525, 24.54 27.72 L 24.54 27.72" fill="none" stroke="black" stroke-width="5"></path><path d="M 20.16 33.54 C 19.740000000000002 34.08, 19.305 33.94499999999999, 19.32 34.62 C 19.77 35.43, 19.424999999999997 35.82, 20.22 36.24 C 21.36 36.269999999999996, 21.855 36.809999999999995, 22.5 36.3 C 22.65 35.25, 23.339999999999996 34.965, 22.799999999999997 34.2 C 21.57 33.72, 21.225 33.39, 20.34 33.24 C 19.799999999999997 33.42, 19.439999999999998 33.209999999999994, 19.259999999999998 33.599999999999994 C 19.439999999999998 34.199999999999996, 19.035 34.574999999999996, 19.62 34.8 C 20.61 34.65, 20.955000000000002 34.769999999999996, 21.6 34.5 C 21.900000000000002 34.11, 22.050000000000004 33.96, 22.200000000000003 33.72 C 22.200000000000003 33.629999999999995, 22.410000000000004 33.315, 22.200000000000003 33.54 C 21.78 34.08, 21.57 34.31999999999999, 21.36 34.62 C 21.36 34.68, 21.36 34.71, 21.36 34.74 C 21.36 34.74, 21.375 34.74, 21.36 34.74 C 21.33 34.74, 21.374999999999996 34.650000000000006, 21.299999999999997 34.74 L 21.06 35.099999999999994" fill="none" stroke="black" stroke-width="5"></path><path d="M 15.72 43.08 C 16.23 43.08, 15.495000000000001 43.08, 16.740000000000002 43.08 C 18.720000000000002 43.08, 18.915000000000003 43.095, 20.700000000000003 43.08 C 22.29 43.05, 22.244999999999997 43.169999999999995, 23.88 43.019999999999996 C 25.560000000000002 42.75, 26.085 42.615, 27.240000000000002 42.480000000000004 C 27.87 42.480000000000004, 28.185000000000002 42.480000000000004, 28.5 42.480000000000004 L 28.5 42.480000000000004" fill="none" stroke="black" stroke-width="5"></path></svg>