<svg xmlns="http://www.w3.org/2000/svg" viewBox="10.937119483947754 2.299999952316284 22.04288101196289 42.97999882698059" width="22.04288101196289" height="42.97999882698059"><path d="M 12.48 3.9000000000000004 C 12.51 4.17, 12.54 3.1049999999999995, 12.54 4.4399999999999995 C 12.51 6.84, 12.540000000000001 7.35, 12.48 9.24 C 12.39 10.620000000000001, 12.375 10.53, 12.299999999999999 12 C 12.239999999999998 13.56, 12.27 13.620000000000001, 12.18 15.120000000000001 C 12.059999999999999 16.560000000000002, 11.969999999999999 16.86, 11.94 18 C 12 18.84, 11.834999999999999 18.915, 12.059999999999999 19.68 C 12.45 20.369999999999997, 12.434999999999999 20.415, 12.84 21.06 C 13.26 21.659999999999997, 13.125 21.659999999999997, 13.68 22.259999999999998 C 14.37 22.86, 14.264999999999999 22.98, 15.059999999999999 23.46 C 15.959999999999999 23.82, 15.78 23.85, 16.86 24.18 C 18.119999999999997 24.48, 18.104999999999997 24.54, 19.38 24.78 C 20.67 24.96, 20.67 25.005000000000003, 21.96 25.14 C 23.25 25.23, 23.174999999999997 25.23, 24.54 25.32 C 25.98 25.41, 26.01 25.455, 27.42 25.5 C 28.8 25.5, 29.16 25.53, 30.18 25.5 C 30.84 25.44, 31.05 25.455000000000002, 31.5 25.380000000000003 C 31.740000000000002 25.290000000000003, 31.86 25.245000000000005, 31.98 25.200000000000003 L 31.98 25.200000000000003" fill="none" stroke="black" stroke-width="5"></path><path d="M 19.62 3.7199999999999998 C 19.5 4.74, 19.439999999999998 4.185, 19.38 5.76 C 19.38 7.89, 19.365 8.129999999999999, 19.38 10.02 C 19.41 11.67, 19.305 11.745000000000001, 19.44 13.32 C 19.68 14.82, 19.695 15.15, 19.919999999999998 16.32 C 20.13 17.16, 20.205 17.384999999999998, 20.34 18 L 20.46 18.78" fill="none" stroke="black" stroke-width="5"></path><path d="M 29.04 3.3000000000000003 C 29.009999999999998 4.890000000000001, 29.16 4.470000000000001, 28.98 6.48 C 28.65 8.91, 28.485 9.27, 28.32 11.34 C 28.32 13.05, 28.32 13.395, 28.32 14.76 C 28.32 15.779999999999998, 28.32 15.749999999999996, 28.32 16.799999999999997 C 28.32 17.88, 28.32 18.345, 28.32 18.96 L 28.32 19.259999999999998" fill="none" stroke="black" stroke-width="5"></path><path d="M 23.4 24.96 C 23.64 25.29, 23.759999999999998 25.199999999999996, 23.88 25.619999999999997 C 23.88 26.13, 23.835 25.89, 23.88 26.64 C 23.97 27.63, 24.015 27.224999999999998, 24.06 28.619999999999997 C 24.06 30.419999999999998, 24.06 30.555, 24.06 32.22 C 24.06 33.75, 24.06 33.765, 24.06 35.28 C 24.06 36.78, 24.06 37.005, 24.06 38.28 C 24.06 39.33, 24.06 39.495000000000005, 24.06 40.38 C 24.06 41.1, 24.06 41.160000000000004, 24.06 41.82 C 24.06 42.42, 24.06 42.525, 24.06 43.019999999999996 C 24.06 43.41, 24.06 43.574999999999996, 24.06 43.8 C 24.06 43.86, 24.06 43.8, 24.06 43.92 C 24.06 44.1, 24.06 44.19, 24.06 44.28 L 24.06 44.28" fill="none" stroke="black" stroke-width="5"></path></svg>