<svg xmlns="http://www.w3.org/2000/svg" viewBox="13.379999160766602 3.739999771118164 23.020002365112305 40.266666412353516" width="23.020002365112305" height="40.266666412353516"><path d="M 35.400000000000006 5.58 C 35.010000000000005 6.840000000000001, 35.114999999999995 5.625000000000002, 34.62 8.100000000000001 C 34.019999999999996 11.790000000000001, 33.96 12.015, 33.42 15.48 C 32.94 18.72, 32.835 19.17, 32.46 21.96 C 32.19 24.3, 32.115 24.435000000000002, 31.92 26.64 C 31.8 28.71, 31.740000000000002 28.965, 31.68 30.78 C 31.68 32.34, 31.725 32.49000000000001, 31.68 33.900000000000006 C 31.59 35.160000000000004, 31.59 35.46, 31.5 36.42 C 31.41 37.08, 31.515 36.99, 31.32 37.74 C 31.02 38.58, 31.365 38.49, 30.72 39.42 C 29.73 40.44, 29.64 40.725, 28.740000000000002 41.46 C 27.93 41.91, 27.915 42.06, 27.119999999999997 42.36 C 26.339999999999996 42.510000000000005, 26.595 42.510000000000005, 25.56 42.660000000000004 C 24.27 42.81, 24.645 42.885000000000005, 22.98 42.96 C 20.939999999999998 42.96, 20.099999999999998 42.96, 18.9 42.96 C 18.54 42.96, 18.689999999999998 43.065, 18.18 42.96 C 17.52 42.75, 17.55 43.035, 16.86 42.54 C 16.14 41.760000000000005, 15.989999999999998 41.970000000000006, 15.419999999999998 40.980000000000004 C 15 39.78, 14.835 40.019999999999996, 14.580000000000002 38.58 C 14.49 36.9, 14.445 36.495, 14.399999999999999 35.22 C 14.399999999999999 34.35, 14.354999999999997 34.2, 14.399999999999999 33.480000000000004 C 14.49 32.91, 14.535 32.625, 14.580000000000002 32.339999999999996 L 14.580000000000002 32.339999999999996" fill="none" stroke="black" stroke-width="5"></path><path d="M 31.32 25.619999999999997 C 30.33 25.619999999999997, 30.419999999999995 25.619999999999997, 29.339999999999996 25.619999999999997 C 28.169999999999998 25.619999999999997, 27.81 25.619999999999997, 27 25.619999999999997 C 26.549999999999997 25.619999999999997, 26.369999999999997 25.619999999999997, 26.099999999999998 25.619999999999997 C 26.009999999999998 25.619999999999997, 26.040000000000003 25.65, 25.92 25.619999999999997 C 25.77 25.56, 25.874999999999996 25.814999999999998, 25.619999999999997 25.5 C 25.259999999999998 24.93, 25.215000000000003 25.244999999999997, 24.900000000000002 24.36 C 24.630000000000003 23.16, 24.585 22.995, 24.36 21.96 C 24.18 21.09, 24.12 20.73, 24 20.22 C 23.939999999999998 20.07, 23.924999999999997 20.009999999999998, 23.88 19.919999999999998 C 23.85 19.89, 23.85 19.529999999999998, 23.82 19.86 C 23.79 20.55, 24.134999999999998 19.89, 23.759999999999998 21.240000000000002 C 23.04 23.25, 22.74 24.044999999999998, 22.32 25.259999999999998 C 22.200000000000003 25.68, 22.230000000000004 25.814999999999998, 22.080000000000002 26.099999999999998 C 21.9 26.25, 22.305 26.25, 21.72 26.400000000000002 C 20.73 26.550000000000004, 20.745 26.625000000000004, 19.740000000000002 26.700000000000003 C 18.720000000000002 26.700000000000003, 18.375000000000004 26.790000000000006, 17.700000000000003 26.700000000000003 C 17.37 26.52, 17.235 26.444999999999997, 17.04 26.339999999999996 C 16.979999999999997 26.31, 17.129999999999995 26.4, 16.919999999999998 26.28 C 16.560000000000002 26.07, 16.470000000000002 26.04, 16.200000000000003 25.86 C 16.020000000000003 25.71, 16.02 26.13, 15.84 25.56 C 15.66 24.57, 15.57 24.6, 15.48 23.580000000000002 C 15.48 22.53, 15.540000000000001 23.325, 15.48 21.48 C 15.36 18.840000000000003, 15.15 18.42, 15.24 16.200000000000003 C 15.54 14.400000000000002, 15.51 14.355000000000002, 15.84 12.600000000000001 C 16.2 10.89, 16.305 10.365, 16.56 9.18 C 16.71 8.52, 16.575 8.805, 16.86 7.86 C 17.28 6.630000000000001, 17.475 6.120000000000001, 17.700000000000003 5.4 C 17.73 5.1899999999999995, 17.744999999999997 5.085, 17.759999999999998 4.9799999999999995 C 17.759999999999998 4.9799999999999995, 17.759999999999998 4.9799999999999995, 17.759999999999998 4.9799999999999995 L 17.759999999999998 4.9799999999999995" fill="none" stroke="black" stroke-width="5"></path><path d="M 24.72 4.74 C 24.24 5.7, 24.299999999999997 5.43, 23.759999999999998 6.66 C 23.159999999999997 8.16, 23.009999999999998 8.13, 22.56 9.66 C 22.259999999999998 11.219999999999999, 22.305 11.325, 21.96 12.78 C 21.57 14.129999999999999, 21.45 14.4, 21.18 15.48 C 21.03 16.29, 20.955 16.665000000000003, 20.88 17.1 L 20.88 17.22" fill="none" stroke="black" stroke-width="5"></path><path d="M 30.299999999999997 7.199999999999999 C 30.299999999999997 8.61, 30.345 8.684999999999999, 30.299999999999997 10.02 C 30.209999999999997 11.28, 30.209999999999997 11.445, 30.119999999999997 12.54 C 30.03 13.469999999999999, 30.03 13.484999999999998, 29.94 14.399999999999999 C 29.85 15.3, 29.805 15.390000000000002, 29.759999999999998 16.200000000000003 C 29.759999999999998 16.92, 29.759999999999998 17.25, 29.759999999999998 17.64 L 29.759999999999998 17.759999999999998" fill="none" stroke="black" stroke-width="5"></path></svg>