<svg xmlns="http://www.w3.org/2000/svg" viewBox="6.473333358764648 8.490046501159668 24.14703369140625 33.43283462524414" width="24.14703369140625" height="33.43283462524414"><path d="M 15.419999999999998 26.22 C 15.45 27.96, 15.465 27.900000000000002, 15.48 29.700000000000003 C 15.48 31.560000000000002, 15.48 31.785000000000004, 15.48 33.42 C 15.48 34.83, 15.48 35.055, 15.48 36.24 C 15.48 37.2, 15.705 37.290000000000006, 15.48 38.160000000000004 C 15.030000000000001 38.94, 15.075000000000003 39.12, 14.580000000000002 39.72 C 14.040000000000001 40.14, 14.31 40.260000000000005, 13.5 40.56 C 12.42 40.74, 12.165 40.95, 11.34 40.92 C 10.77 40.68, 10.799999999999999 40.98, 10.2 40.44 C 9.57 39.599999999999994, 9.584999999999999 40.62, 8.94 38.76 C 8.28 35.879999999999995, 7.98 35.79, 7.62 33 C 7.5600000000000005 30.299999999999997, 7.53 29.909999999999997, 7.5 27.599999999999998 C 7.5 25.68, 7.4399999999999995 25.529999999999998, 7.5 23.759999999999998 C 7.62 22.14, 7.635 22.02, 7.74 20.52 C 7.83 19.14, 7.74 19.169999999999998, 7.92 17.759999999999998 C 8.19 16.32, 8.055 16.2, 8.459999999999999 14.879999999999999 C 9 13.68, 9 13.41, 9.540000000000001 12.48 C 10.080000000000002 11.82, 10.020000000000001 11.805, 10.620000000000001 11.16 C 11.280000000000001 10.53, 11.25 10.304999999999998, 11.94 9.899999999999999 C 12.66 9.719999999999999, 12.749999999999998 9.615, 13.379999999999999 9.540000000000001 C 13.92 9.57, 13.98 9.375000000000002, 14.46 9.600000000000001 C 14.879999999999999 10.02, 14.879999999999999 9.78, 15.299999999999999 10.44 C 15.719999999999999 11.34, 15.78 11.175, 16.14 12.24 C 16.44 13.47, 16.425000000000004 13.500000000000002, 16.740000000000002 14.700000000000001 C 17.07 15.870000000000001, 17.085 15.809999999999999, 17.4 17.04 C 17.7 18.33, 17.759999999999998 18.33, 18 19.62 C 18.18 20.910000000000004, 18.15 21.030000000000005, 18.36 22.200000000000003 C 18.6 23.25, 18.705 23.729999999999997, 18.84 24.299999999999997 C 18.869999999999997 24.39, 18.869999999999997 24.405, 18.9 24.48 C 18.93 24.54, 18.75 24.509999999999998, 18.96 24.599999999999998 C 19.35 24.72, 18.945 24.749999999999996, 19.740000000000002 24.839999999999996 C 20.94 24.9, 21.18 24.869999999999997, 22.14 24.96 C 22.86 25.080000000000002, 23.025000000000002 25.095000000000002, 23.580000000000002 25.200000000000003 C 23.97 25.290000000000003, 23.91 25.245000000000005, 24.36 25.380000000000003 C 24.87 25.560000000000002, 24.990000000000002 25.590000000000003, 25.380000000000003 25.740000000000002 C 25.650000000000002 25.86, 25.575000000000003 25.740000000000002, 25.92 25.98 C 26.34 26.340000000000003, 26.34 26.310000000000002, 26.759999999999998 26.700000000000003 C 27.18 27.12, 27.165 26.955, 27.599999999999998 27.54 C 28.049999999999997 28.29, 28.155 28.424999999999997, 28.5 29.04 C 28.740000000000002 29.52, 28.740000000000002 29.355, 28.98 30 C 29.22 30.81, 29.310000000000002 30.689999999999998, 29.46 31.619999999999997 C 29.52 32.67, 29.7 32.22, 29.58 33.72 C 29.28 35.67, 29.175 36.209999999999994, 28.98 37.62 C 28.89 38.489999999999995, 28.845 38.714999999999996, 28.799999999999997 39.36 C 28.799999999999997 39.78, 28.799999999999997 39.99, 28.799999999999997 40.2 C 28.799999999999997 40.2, 28.845 40.14, 28.799999999999997 40.2 L 28.619999999999997 40.44" fill="none" stroke="black" stroke-width="5"></path><path d="M 21.66 25.14 C 21.78 24.6, 21.645 25.71, 21.9 24.06 C 22.29 21.299999999999997, 22.439999999999998 20.895, 22.68 18.54 C 22.77 16.59, 22.8 16.11, 22.86 14.64 C 22.89 13.65, 22.904999999999998 13.545, 22.919999999999998 12.66 C 22.919999999999998 11.88, 22.919999999999998 11.565000000000001, 22.919999999999998 11.100000000000001 C 22.919999999999998 10.950000000000001, 22.889999999999997 11.085, 22.919999999999998 10.8 L 23.04 9.959999999999999" fill="none" stroke="black" stroke-width="5"></path><path d="M 26.58 26.28 C 26.79 24.72, 26.729999999999997 25.395, 27 23.16 C 27.330000000000002 20.25, 27.405000000000005 19.71, 27.660000000000004 17.34 C 27.840000000000003 15.51, 27.93 15.045, 28.02 13.68 C 28.02 12.78, 28.02 12.645, 28.02 11.879999999999999 C 28.02 11.25, 28.005 11.010000000000002, 28.02 10.620000000000001 C 28.049999999999997 10.47, 28.034999999999997 10.47, 28.08 10.32 L 28.200000000000003 10.02" fill="none" stroke="black" stroke-width="5"></path></svg>