<svg xmlns="http://www.w3.org/2000/svg" viewBox="7.533333778381348 5.386712551116943 25.793331146240234 39.41328811645508" width="25.793331146240234" height="39.41328811645508"><path d="M 9.72 43.8 C 9.18 39.72, 8.91 40.515, 8.64 35.64 C 8.64 29.97, 8.64 28.004999999999995, 8.64 24.299999999999997 C 8.64 22.56, 8.4 23.025, 8.64 20.82 C 9.120000000000001 18.15, 8.73 18.03, 9.600000000000001 15.48 C 10.860000000000001 13.05, 10.995000000000001 12.540000000000001, 12.120000000000001 10.620000000000001 C 13.110000000000001 9.21, 13.455000000000002 8.775, 14.100000000000001 7.800000000000001 C 14.400000000000002 7.260000000000001, 14.385000000000002 7.050000000000001, 14.700000000000001 6.720000000000001 C 15.030000000000001 6.6000000000000005, 14.865 6.210000000000001, 15.36 6.48 C 16.02 7.140000000000001, 16.035 6.960000000000001, 16.68 7.800000000000001 C 17.310000000000002 8.82, 17.415 8.895, 17.94 9.84 C 18.36 10.71, 18.345000000000002 10.155000000000001, 18.78 11.58 C 19.23 13.559999999999999, 19.41 13.124999999999998, 19.68 15.54 C 19.77 18.39, 19.814999999999998 18.93, 19.86 21.240000000000002 C 19.86 23.01, 19.814999999999998 23.310000000000002, 19.86 24.78 C 19.95 25.95, 19.95 26.369999999999997, 20.04 27.119999999999997 C 20.13 27.45, 20.174999999999997 27.615000000000002, 20.22 27.78 C 20.22 27.78, 20.145 27.720000000000002, 20.22 27.78 C 20.369999999999997 27.9, 20.055 28.095, 20.52 28.02 C 21.3 27.75, 21.270000000000003 27.66, 22.080000000000002 27.48 C 22.92 27.39, 22.89 27.345, 23.759999999999998 27.299999999999997 C 24.659999999999997 27.299999999999997, 24.57 27.254999999999995, 25.56 27.299999999999997 C 26.64 27.39, 26.805 27.3, 27.72 27.48 C 28.47 27.75, 28.544999999999998 27.675, 29.22 28.02 C 29.82 28.439999999999998, 29.835 28.2, 30.42 28.86 C 30.990000000000002 29.76, 31.095 29.580000000000005, 31.56 30.660000000000004 C 31.92 31.92, 32.1 31.770000000000003, 32.28 33.18 C 32.28 34.739999999999995, 32.385000000000005 35.025, 32.28 36.3 C 32.07 37.29, 32.37 37.215, 31.86 38.28 C 31.05 39.42, 31.14 39.45, 30.240000000000002 40.56 C 29.25 41.64, 28.935 42.075, 28.259999999999998 42.72 C 27.9 42.93, 28.455 43.035, 27.54 43.14 C 26.07 43.14, 25.799999999999997 43.215, 24.599999999999998 43.14 C 23.67 42.989999999999995, 23.55 43.14, 22.740000000000002 42.839999999999996 C 22.05 42.39, 21.884999999999998 42.48, 21.36 41.94 C 21 41.31, 20.82 41.535, 20.64 40.68 C 20.64 39.599999999999994, 20.64 39.55499999999999, 20.64 38.519999999999996 C 20.64 37.53, 20.64 37.305, 20.64 36.54 C 20.64 36, 20.64 35.85, 20.64 35.46 C 20.64 35.22, 20.64 35.145, 20.64 34.980000000000004 C 20.64 34.89, 20.64 34.845, 20.64 34.8 L 20.64 34.8" fill="none" stroke="black" stroke-width="5"></path><path d="M 25.5 27 C 25.5 24.42, 25.5 24.42, 25.5 21.84 C 25.5 19.259999999999998, 25.5 19.32, 25.5 16.68 C 25.5 13.98, 25.5 13.094999999999999, 25.5 11.28 C 25.5 10.35, 25.5 9.885, 25.5 9.42 L 25.5 9.42" fill="none" stroke="black" stroke-width="5"></path><path d="M 29.28 28.200000000000003 C 29.37 28.35, 29.415 28.425, 29.46 28.5 C 29.46 28.5, 29.46 28.5, 29.46 28.5 C 29.46 28.5, 29.46 28.5, 29.46 28.5 C 29.46 28.5, 29.43 28.53, 29.46 28.5 C 29.52 28.44, 29.49 29.775000000000002, 29.58 28.380000000000003 C 29.7 25.65, 29.58 25.964999999999996, 29.82 22.919999999999998 C 30.18 19.560000000000002, 30.255 18.96, 30.54 16.200000000000003 C 30.75 14.040000000000001, 30.855 13.26, 30.96 11.879999999999999 C 30.96 11.28, 30.96 11.129999999999999, 30.96 10.68 L 30.96 10.08" fill="none" stroke="black" stroke-width="5"></path></svg>