<svg xmlns="http://www.w3.org/2000/svg" viewBox="7.199999809265137 1.7599999904632568 22.060001373291016 43.6999990940094" width="22.060001373291016" height="43.6999990940094"><path d="M 14.580000000000002 44.46 C 13.620000000000001 43.05, 13.56 43.38, 12.66 41.64 C 11.82 39.57, 11.790000000000001 39.525, 10.98 37.5 C 10.2 35.519999999999996, 9.96 35.595, 9.42 33.54 C 9.120000000000001 31.41, 9.105 31.200000000000003, 8.82 29.28 C 8.55 27.57, 8.415 27.795, 8.28 25.86 C 8.28 23.7, 8.28 23.354999999999997, 8.28 21.54 C 8.28 20.07, 8.1 19.71, 8.28 18.6 C 8.64 17.85, 8.535 17.715000000000003, 9 17.1 C 9.57 16.62, 9.315000000000001 16.53, 10.14 16.14 C 11.219999999999999 15.84, 10.919999999999998 15.809999999999999, 12.299999999999999 15.54 C 13.98 15.299999999999999, 13.755 15.224999999999998, 15.66 15.059999999999999 C 17.79 14.969999999999999, 18.224999999999998 14.924999999999999, 19.919999999999998 14.879999999999999 C 21.18 14.879999999999999, 20.91 14.745, 22.44 14.879999999999999 C 24.240000000000002 15.149999999999999, 24.585 15.224999999999998, 26.04 15.419999999999998 C 27.15 15.54, 27.705 15.6, 28.259999999999998 15.66 L 28.259999999999998 15.66" fill="none" stroke="black" stroke-width="5"></path><path d="M 14.879999999999999 13.74 C 14.579999999999998 12, 14.489999999999998 12, 14.28 10.26 C 14.16 8.52, 14.1 8.129999999999999, 14.04 6.779999999999999 C 14.04 5.82, 14.04 5.7, 14.04 4.86 C 14.04 4.140000000000001, 14.04 3.945, 14.04 3.42 L 14.04 2.7600000000000002" fill="none" stroke="black" stroke-width="5"></path><path d="M 20.64 14.940000000000001 C 21.18 12.510000000000002, 21.375 12.165, 21.72 10.08 C 21.869999999999997 8.34, 21.945 7.86, 22.02 6.6000000000000005 C 22.02 5.82, 22.02 5.55, 22.02 5.04 C 22.02 4.800000000000001, 22.02 4.800000000000001, 22.02 4.5600000000000005 C 22.02 4.32, 22.02 4.32, 22.02 4.08 L 22.02 3.5999999999999996" fill="none" stroke="black" stroke-width="5"></path></svg>