<svg xmlns="http://www.w3.org/2000/svg" viewBox="5.672475337982178 7.399999618530273 23.167524337768555 36.13999938964844" width="23.167524337768555" height="36.13999938964844"><path d="M 7.86 8.399999999999999 C 7.68 13.68, 7.785 13.335, 7.5 18.96 C 7.11 24.93, 6.885000000000001 26.25, 6.720000000000001 30.900000000000002 C 6.78 34.230000000000004, 6.51 35.25, 6.84 37.56 C 7.44 38.85, 7.440000000000001 39.120000000000005, 8.040000000000001 40.14 C 8.64 40.89, 8.625 41.205, 9.24 41.64 C 9.870000000000001 41.760000000000005, 9.285 43.260000000000005, 10.5 41.88 C 12.3 39, 12.885000000000002 38.595, 14.100000000000001 36.12 C 14.73 34.05, 14.925 33.57, 15.36 31.98 C 15.6 30.869999999999997, 15.719999999999999 30.314999999999998, 15.84 29.759999999999998 C 15.84 29.759999999999998, 15.84 29.729999999999997, 15.84 29.759999999999998 C 15.84 29.82, 15.795 28.515, 15.84 29.880000000000003 C 15.93 32.55, 15.825 32.775, 16.02 35.22 C 16.32 37.44, 16.245 38.145, 16.62 39.660000000000004 C 17.07 40.47, 16.68 40.56, 17.52 41.28 C 18.75 41.91, 18.075 42.33, 19.98 42.54 C 22.560000000000002 42.33, 23.22 42.434999999999995, 25.14 42.12 C 26.400000000000002 41.7, 26.985000000000007 41.505, 27.660000000000004 41.28 C 27.75 41.25, 27.794999999999998 41.235, 27.839999999999996 41.22 L 27.839999999999996 41.22" fill="none" stroke="black" stroke-width="5"></path><path d="M 12.899999999999999 11.7 C 12.719999999999999 14.07, 12.719999999999999 13.650000000000002, 12.54 16.44 C 12.36 19.65, 12.27 20.82, 12.18 22.86 L 12.18 24.599999999999998" fill="none" stroke="black" stroke-width="5"></path><path d="M 23.34 15.48 C 23.34 17.340000000000003, 23.34 17.415000000000003, 23.34 19.200000000000003 C 23.34 20.910000000000004, 23.34 21.405, 23.34 22.62 C 23.34 23.34, 23.34 23.7, 23.34 24.06 L 23.34 24.06" fill="none" stroke="black" stroke-width="5"></path></svg>