<svg xmlns="http://www.w3.org/2000/svg" viewBox="9.800000190734863 1.5799999237060547 20.060001373291016 40.28000068664551" width="20.060001373291016" height="40.28000068664551"><path d="M 14.64 2.58 C 14.64 3.09, 15.015 2.01, 14.64 3.5999999999999996 C 13.89 6.27, 13.860000000000001 6.494999999999999, 13.14 8.94 C 12.45 11.16, 12.27 11.249999999999998, 11.76 13.379999999999999 C 11.43 15.42, 11.265 15.39, 11.100000000000001 17.46 C 11.100000000000001 19.560000000000002, 10.980000000000002 20.055, 11.100000000000001 21.66 C 11.34 22.77, 11.205 22.86, 11.58 23.88 C 12.09 24.810000000000002, 12.060000000000002 24.930000000000003, 12.600000000000001 25.740000000000002 C 13.170000000000002 26.43, 13.38 26.714999999999996, 13.74 27.119999999999997 C 13.89 27.24, 13.725 27.39, 14.04 27.36 C 14.52 27.18, 14.385 27.509999999999998, 15 27 C 15.75 26.16, 15.945 26.25, 16.5 25.32 C 16.86 24.3, 16.875 24.3, 17.22 23.28 C 17.549999999999997 22.26, 17.669999999999998 21.96, 17.88 21.240000000000002 C 17.97 20.82, 18.015 20.61, 18.06 20.4 C 18.06 20.4, 17.985 20.4, 18.06 20.4 C 18.21 20.4, 18.285 19.919999999999998, 18.36 20.4 C 18.36 21.36, 18.33 21.42, 18.36 22.32 C 18.42 23.16, 18.225 23.130000000000003, 18.48 24 C 18.93 24.9, 18.75 25.049999999999997, 19.38 25.799999999999997 C 20.189999999999998 26.4, 19.83 26.595, 21 27 C 22.53 27.21, 22.89 27.315, 24.06 27.42 C 24.869999999999997 27.42, 24.75 27.42, 25.68 27.42 C 26.73 27.42, 27.060000000000002 27.435000000000002, 27.78 27.42 C 28.17 27.39, 28.35 27.39, 28.56 27.36 L 28.619999999999997 27.299999999999997" fill="none" stroke="black" stroke-width="5"></path><path d="M 18.18 4.68 C 17.85 6, 17.865000000000002 5.5200000000000005, 17.52 7.32 C 17.159999999999997 9.6, 17.069999999999997 10.334999999999999, 16.799999999999997 11.879999999999999 C 16.619999999999997 12.69, 16.575000000000003 12.809999999999999, 16.44 13.5 C 16.35 14.07, 16.305 14.25, 16.259999999999998 14.64 L 16.259999999999998 15.059999999999999" fill="none" stroke="black" stroke-width="5"></path><path d="M 25.02 6.42 C 24.689999999999998 7.8, 24.794999999999998 7.35, 24.36 9.18 C 23.82 11.46, 23.61 12.075, 23.28 13.74 C 23.16 14.79, 23.1 14.94, 23.04 15.84 C 23.04 16.59, 23.085 16.755, 23.04 17.34 L 22.86 18.18" fill="none" stroke="black" stroke-width="5"></path><path d="M 10.8 33.54 C 11.46 33.54, 11.355 33.585, 12.120000000000001 33.54 C 12.99 33.45, 12.704999999999998 33.495, 13.86 33.36 C 15.3 33.18, 15.090000000000002 33.18, 16.740000000000002 33 C 18.6 32.82, 18.54 32.730000000000004, 20.46 32.64 C 22.44 32.64, 22.92 32.64, 24.42 32.64 C 25.44 32.64, 25.47 32.595, 26.46 32.64 C 27.42 32.730000000000004, 27.825000000000003 32.76, 28.380000000000003 32.82 C 28.53 32.85, 28.560000000000002 32.835, 28.68 32.88 L 28.86 33" fill="none" stroke="black" stroke-width="5"></path><path d="M 11.28 40.5 C 12.54 40.26, 12.555 40.184999999999995, 13.799999999999999 40.019999999999996 C 15.029999999999998 39.92999999999999, 14.564999999999998 39.885, 16.259999999999998 39.839999999999996 C 18.42 39.839999999999996, 18.630000000000003 39.824999999999996, 20.580000000000002 39.839999999999996 C 22.32 39.870000000000005, 22.62 39.795, 24.06 39.900000000000006 C 25.199999999999996 40.08, 25.394999999999996 40.05, 26.339999999999996 40.26 C 27.089999999999996 40.5, 27.329999999999995 40.59, 27.839999999999996 40.74 C 28.11 40.8, 28.245 40.83, 28.380000000000003 40.86 L 28.380000000000003 40.86" fill="none" stroke="black" stroke-width="5"></path></svg>