<svg xmlns="http://www.w3.org/2000/svg" viewBox="14.84000015258789 2.9600000381469727 17.700000762939453 39.65999794006348" width="17.700000762939453" height="39.65999794006348"><path d="M 15.84 14.940000000000001 C 17.28 14.940000000000001, 17.294999999999998 14.940000000000001, 18.72 14.940000000000001 C 20.13 14.940000000000001, 20.115 14.940000000000001, 21.54 14.940000000000001 C 22.98 14.940000000000001, 22.965000000000003 14.940000000000001, 24.42 14.940000000000001 C 25.89 14.940000000000001, 26.325 14.940000000000001, 27.36 14.940000000000001 C 27.96 14.940000000000001, 27.974999999999998 14.880000000000003, 28.56 14.940000000000001 C 29.130000000000003 15.06, 29.250000000000004 15.015, 29.700000000000003 15.18 C 30.03 15.39, 29.97 15.225000000000001, 30.36 15.600000000000001 C 30.81 16.14, 30.974999999999998 15.84, 31.259999999999998 16.68 C 31.38 17.82, 31.439999999999998 17.835, 31.5 18.96 C 31.5 20.07, 31.5 20.04, 31.5 21.18 C 31.5 22.35, 31.59 22.35, 31.5 23.52 C 31.32 24.689999999999998, 31.35 24.54, 31.14 25.86 C 30.900000000000002 27.33, 30.855000000000004 27.479999999999997, 30.660000000000004 28.799999999999997 C 30.51 29.97, 30.57 29.82, 30.36 31.14 C 30.09 32.61, 30.06 32.685, 29.82 34.08 C 29.61 35.4, 29.64 35.445, 29.400000000000002 36.72 C 29.130000000000003 37.95, 29.1 38.34, 28.86 39.18 C 28.65 39.629999999999995, 28.905 39.584999999999994, 28.44 40.08 C 27.72 40.620000000000005, 27.735 40.800000000000004, 27 41.160000000000004 C 26.25 41.34, 26.384999999999998 41.43, 25.5 41.519999999999996 C 24.48 41.519999999999996, 24.09 41.519999999999996, 23.46 41.519999999999996 C 23.22 41.519999999999996, 23.265 41.745, 22.98 41.519999999999996 C 22.65 41.06999999999999, 22.65 41.504999999999995, 22.32 40.62 C 21.990000000000002 39.3, 21.825 39.135000000000005, 21.66 37.980000000000004 C 21.66 36.99, 21.51 36.975, 21.66 36 C 21.96 35.04, 21.959999999999997 34.769999999999996, 22.259999999999998 34.08 C 22.56 33.66, 22.41 33.69, 22.86 33.24 C 23.46 32.760000000000005, 23.325 32.595, 24.06 32.28 C 24.93 32.13, 24.959999999999997 32.055, 25.799999999999997 31.98 C 26.61 31.98, 26.73 31.875, 27.42 31.98 C 27.990000000000002 32.190000000000005, 28.155 32.23500000000001, 28.56 32.400000000000006 C 28.799999999999997 32.52, 28.799999999999997 32.52, 29.04 32.64 C 29.28 32.760000000000005, 29.31 32.775000000000006, 29.52 32.88 C 29.700000000000003 32.97, 29.790000000000003 33.015, 29.880000000000003 33.06 C 29.880000000000003 33.06, 29.85 33.045, 29.880000000000003 33.06 C 29.94 33.09, 29.97 33.105, 30 33.12 C 30 33.12, 30 33.12, 30 33.12 L 30 33.12" fill="none" stroke="black" stroke-width="5"></path><path d="M 21.66 15.18 C 21.66 14.28, 21.585 14.459999999999999, 21.66 13.379999999999999 C 21.810000000000002 12.12, 21.810000000000002 12.225, 21.96 10.86 C 22.11 9.39, 22.185 8.94, 22.259999999999998 7.92 C 22.259999999999998 7.35, 22.259999999999998 7.289999999999999, 22.259999999999998 6.779999999999999 C 22.259999999999998 6.33, 22.229999999999997 6.359999999999999, 22.259999999999998 5.88 C 22.32 5.37, 22.349999999999998 5.265000000000001, 22.38 4.86 C 22.38 4.5600000000000005, 22.38 4.484999999999999, 22.38 4.26 C 22.38 4.109999999999999, 22.38 4.035, 22.38 3.96 L 22.38 3.96" fill="none" stroke="black" stroke-width="5"></path><path d="M 27.36 14.22 C 27.72 11.850000000000001, 27.824999999999996 11.385, 28.08 9.48 C 28.23 8.040000000000001, 28.230000000000004 7.815, 28.380000000000003 6.6000000000000005 C 28.53 5.61, 28.605 5.19, 28.68 4.62 C 28.68 4.470000000000001, 28.68 4.3950000000000005, 28.68 4.32 C 28.68 4.32, 28.68 4.32, 28.68 4.32 C 28.68 4.32, 28.68 4.32, 28.68 4.32 L 28.68 4.32" fill="none" stroke="black" stroke-width="5"></path></svg>