<svg xmlns="http://www.w3.org/2000/svg" viewBox="9.920000076293945 0.559999942779541 21.799999237060547 44.35999822616577" width="21.799999237060547" height="44.35999822616577"><path d="M 11.7 25.44 C 11.52 23.73, 11.325 23.82, 11.34 22.02 C 11.55 20.130000000000003, 11.325 19.830000000000002, 11.76 18.240000000000002 C 12.420000000000002 16.950000000000003, 12.375000000000002 16.635, 13.080000000000002 15.66 C 13.830000000000002 15, 13.530000000000001 15.045, 14.580000000000002 14.34 C 15.930000000000001 13.59, 16.485000000000003 13.245, 17.28 12.84 C 17.52 12.780000000000001, 17.369999999999997 12.375, 17.759999999999998 12.72 C 18.299999999999997 13.47, 18.39 13.260000000000002, 18.84 14.22 C 19.2 15.39, 19.29 15.495, 19.56 16.56 C 19.74 17.52, 19.83 17.85, 19.919999999999998 18.48 C 19.919999999999998 18.78, 19.919999999999998 18.93, 19.919999999999998 19.080000000000002 C 19.919999999999998 19.080000000000002, 19.889999999999997 19.095000000000002, 19.919999999999998 19.080000000000002 C 19.979999999999997 19.05, 19.935 19.575, 20.04 19.02 C 20.189999999999998 17.939999999999998, 20.16 17.85, 20.34 16.86 C 20.549999999999997 15.959999999999999, 20.415 15.899999999999999, 20.759999999999998 15.059999999999999 C 21.24 14.28, 21.119999999999997 14.19, 21.72 13.5 C 22.439999999999998 12.899999999999999, 22.575 12.614999999999998, 23.16 12.299999999999999 C 23.61 12.27, 23.34 12.195, 24.06 12.24 C 25.049999999999997 12.36, 25.215 12.315000000000001, 26.04 12.48 C 26.7 12.69, 26.775 12.614999999999998, 27.36 12.899999999999999 C 27.87 13.26, 27.93 13.11, 28.380000000000003 13.620000000000001 C 28.770000000000003 14.280000000000001, 28.785000000000004 13.89, 29.160000000000004 14.940000000000001 C 29.520000000000003 16.380000000000003, 29.610000000000003 16.515, 29.880000000000003 17.82 C 30.060000000000002 18.990000000000002, 30.150000000000002 19.064999999999998, 30.240000000000002 20.16 C 30.240000000000002 21.18, 30.240000000000002 21.465000000000003, 30.240000000000002 22.200000000000003 C 30.240000000000002 22.650000000000002, 30.240000000000002 22.680000000000003, 30.240000000000002 23.1 C 30.240000000000002 23.490000000000002, 30.240000000000002 23.685, 30.240000000000002 23.88 C 30.240000000000002 23.88, 30.240000000000002 23.88, 30.240000000000002 23.88 L 30.240000000000002 23.88" fill="none" stroke="black" stroke-width="5"></path><path d="M 15.54 13.5 C 15.629999999999999 11.67, 15.63 11.745, 15.72 9.84 C 15.809999999999999 7.859999999999999, 15.854999999999999 7.26, 15.899999999999999 5.88 C 15.899999999999999 5.1, 15.899999999999999 4.98, 15.899999999999999 4.32 C 15.899999999999999 3.7800000000000002, 15.899999999999999 3.7800000000000002, 15.899999999999999 3.24 C 15.899999999999999 2.7, 15.899999999999999 2.46, 15.899999999999999 2.16 C 15.899999999999999 2.1, 15.899999999999999 2.19, 15.899999999999999 2.04 L 15.899999999999999 1.56" fill="none" stroke="black" stroke-width="5"></path><path d="M 25.259999999999998 11.879999999999999 C 25.259999999999998 10.41, 25.259999999999998 10.364999999999998, 25.259999999999998 8.94 C 25.259999999999998 7.56, 25.259999999999998 7.334999999999999, 25.259999999999998 6.18 C 25.259999999999998 5.25, 25.214999999999996 5.025, 25.259999999999998 4.32 C 25.35 3.8400000000000003, 25.395 3.7500000000000004, 25.44 3.3600000000000003 C 25.44 3.0600000000000005, 25.44 2.955, 25.44 2.7600000000000002 C 25.44 2.67, 25.44 2.625, 25.44 2.58 L 25.44 2.58" fill="none" stroke="black" stroke-width="5"></path><path d="M 19.919999999999998 18.48 C 19.799999999999997 19.14, 19.755 19.109999999999996, 19.68 19.799999999999997 C 19.65 20.52, 19.635 20.64, 19.62 21.240000000000002 C 19.62 21.720000000000002, 19.62 21.390000000000004, 19.62 22.200000000000003 C 19.62 23.340000000000003, 19.665 23.340000000000003, 19.62 24.48 C 19.53 25.619999999999997, 19.515 25.799999999999997, 19.44 26.759999999999998 C 19.380000000000003 27.54, 19.455000000000002 27.3, 19.32 28.32 C 19.11 29.58, 19.095 29.834999999999997, 18.9 30.839999999999996 C 18.72 31.589999999999996, 18.75 31.469999999999995, 18.54 32.339999999999996 C 18.299999999999997 33.33, 18.345 33.45, 18.06 34.32 C 17.729999999999997 35.07, 17.805 34.86, 17.4 35.82 C 16.92 36.99, 16.89 37.2, 16.44 38.160000000000004 C 16.020000000000003 38.910000000000004, 16.035 38.98500000000001, 15.600000000000001 39.660000000000004 C 15.150000000000002 40.260000000000005, 15.180000000000001 40.275, 14.700000000000001 40.86 C 14.190000000000001 41.43, 14.13 41.565, 13.68 42 C 13.29 42.3, 13.305 42.285, 12.899999999999999 42.599999999999994 C 12.479999999999999 42.92999999999999, 12.479999999999999 42.959999999999994, 12.059999999999999 43.26 C 11.64 43.53, 11.505 43.635, 11.22 43.8 C 11.07 43.86, 10.995000000000001 43.89, 10.92 43.92 L 10.92 43.92" fill="none" stroke="black" stroke-width="5"></path><path d="M 18.96 31.380000000000003 C 18.96 32.1, 18.915 32.07, 18.96 32.82 C 19.05 33.6, 18.96 33.435, 19.14 34.38 C 19.41 35.489999999999995, 19.38 35.684999999999995, 19.68 36.599999999999994 C 20.009999999999998 37.31999999999999, 19.965 37.379999999999995, 20.34 38.04 C 20.759999999999998 38.64, 20.67 38.64, 21.18 39.24 C 21.78 39.84, 21.689999999999998 39.885, 22.38 40.44 C 23.16 40.95, 23.175 41.055, 23.94 41.46 C 24.69 41.760000000000005, 24.57 41.730000000000004, 25.44 42.06 C 26.43 42.42, 26.490000000000002 42.45, 27.42 42.78 C 28.290000000000003 43.08, 28.380000000000003 43.17, 29.160000000000004 43.38 C 29.85 43.5, 30.15 43.545, 30.54 43.62 C 30.63 43.65, 30.674999999999997 43.665, 30.72 43.68 L 30.72 43.68" fill="none" stroke="black" stroke-width="5"></path></svg>