<svg xmlns="http://www.w3.org/2000/svg" viewBox="12.199999809265137 0.9199999570846558 21.55999755859375 43.82000172138214" width="21.55999755859375" height="43.82000172138214"><path d="M 13.26 26.759999999999998 C 13.26 26.759999999999998, 13.26 27.194999999999997, 13.26 26.759999999999998 C 13.26 25.89, 13.26 26.265, 13.26 25.02 C 13.26 23.4, 13.26 23.04, 13.26 21.78 C 13.26 20.880000000000003, 13.17 20.925, 13.26 19.98 C 13.440000000000001 18.990000000000002, 13.275 18.975, 13.620000000000001 18 C 14.13 17.04, 14.025 17.040000000000003, 14.64 16.080000000000002 C 15.360000000000001 15.120000000000001, 15.645000000000003 14.73, 16.080000000000002 14.16 C 16.23 13.98, 16.14 13.905, 16.38 13.799999999999999 C 16.71 13.77, 16.56 13.68, 17.04 13.74 C 17.669999999999998 13.89, 17.714999999999996 13.815, 18.299999999999997 14.04 C 18.839999999999996 14.34, 18.869999999999997 14.34, 19.38 14.64 C 19.86 14.940000000000001, 19.86 14.85, 20.34 15.24 C 20.82 15.720000000000002, 20.879999999999995 15.540000000000003, 21.299999999999997 16.200000000000003 C 21.659999999999997 17.04, 21.75 17.04, 22.02 17.88 C 22.2 18.72, 22.244999999999997 19.02, 22.38 19.56 C 22.47 19.799999999999997, 22.515 19.919999999999998, 22.56 20.04 C 22.56 20.04, 22.56 20.04, 22.56 20.04 C 22.56 20.04, 22.56 20.04, 22.56 20.04 C 22.56 20.04, 22.56 20.04, 22.56 20.04 C 22.56 20.04, 22.56 20.07, 22.56 20.04 C 22.56 19.979999999999997, 22.455 20.384999999999998, 22.56 19.919999999999998 C 22.77 19.049999999999997, 22.634999999999998 19.155, 22.98 18.18 C 23.46 17.1, 23.445 16.95, 23.94 16.02 C 24.450000000000003 15.24, 24.315 15.09, 24.96 14.46 C 25.740000000000002 13.98, 25.785 13.815, 26.52 13.5 C 27.21 13.350000000000001, 27.225 13.215, 27.900000000000002 13.200000000000001 C 28.560000000000002 13.32, 28.5 13.125000000000002, 29.22 13.440000000000001 C 30 13.950000000000001, 30.045 13.77, 30.78 14.46 C 31.470000000000002 15.330000000000002, 31.680000000000003 15.360000000000003, 32.160000000000004 16.200000000000003 C 32.43000000000001 17.01, 32.550000000000004 16.725, 32.7 17.82 C 32.730000000000004 19.200000000000003, 32.745 19.245, 32.76 20.580000000000002 C 32.76 21.87, 32.76 22.125, 32.76 23.16 C 32.76 23.939999999999998, 32.76 24.165, 32.76 24.72 C 32.76 25.05, 32.76 24.930000000000003, 32.76 25.380000000000003 C 32.76 25.950000000000003, 32.76 26.205, 32.76 26.52 L 32.76 26.64" fill="none" stroke="black" stroke-width="5"></path><path d="M 28.259999999999998 13.440000000000001 C 28.11 12.84, 28.035 12.780000000000001, 27.96 12.24 C 27.96 11.76, 27.96 11.969999999999999, 27.96 11.28 C 27.96 10.379999999999999, 27.96 10.305, 27.96 9.48 C 27.96 8.73, 27.945 9, 27.96 7.98 C 27.990000000000002 6.69, 27.96 6.45, 28.02 5.4 C 28.11 4.59, 28.155 4.380000000000001, 28.200000000000003 3.7800000000000002 C 28.200000000000003 3.39, 28.200000000000003 3.27, 28.200000000000003 3 C 28.200000000000003 2.85, 28.200000000000003 2.97, 28.200000000000003 2.7 C 28.200000000000003 2.31, 28.200000000000003 2.115, 28.200000000000003 1.92 C 28.200000000000003 1.92, 28.200000000000003 1.92, 28.200000000000003 1.92 C 28.200000000000003 1.92, 28.200000000000003 1.92, 28.200000000000003 1.92 L 28.200000000000003 1.92" fill="none" stroke="black" stroke-width="5"></path><path d="M 17.1 13.98 C 17.16 13.350000000000001, 17.099999999999998 13.575000000000001, 17.22 12.72 C 17.4 11.64, 17.490000000000002 11.595, 17.580000000000002 10.56 C 17.580000000000002 9.57, 17.490000000000002 9.6, 17.580000000000002 8.58 C 17.76 7.53, 17.82 7.32, 17.94 6.48 C 18 5.85, 17.985 5.835, 18.06 5.22 C 18.15 4.62, 18.195 4.515000000000001, 18.240000000000002 4.0200000000000005 C 18.240000000000002 3.6300000000000003, 18.240000000000002 3.5100000000000002, 18.240000000000002 3.24 C 18.240000000000002 3.09, 18.240000000000002 3.045, 18.240000000000002 2.94 C 18.240000000000002 2.88, 18.240000000000002 2.8499999999999996, 18.240000000000002 2.82 L 18.240000000000002 2.82" fill="none" stroke="black" stroke-width="5"></path><path d="M 22.44 19.44 C 22.380000000000003 19.41, 22.395 19.14, 22.32 19.38 C 22.23 19.89, 22.185000000000002 19.919999999999998, 22.14 20.4 C 22.14 20.849999999999998, 22.14 20.804999999999996, 22.14 21.299999999999997 C 22.14 21.839999999999996, 22.14 21.674999999999997, 22.14 22.38 C 22.14 23.25, 22.17 23.369999999999997, 22.14 24.119999999999997 C 22.08 24.75, 22.14 24.660000000000004, 22.02 25.380000000000003 C 21.84 26.19, 21.855 26.205000000000002, 21.66 27 C 21.450000000000003 27.78, 21.450000000000003 27.9, 21.240000000000002 28.56 C 21.03 29.1, 21.135 28.95, 20.82 29.64 C 20.4 30.48, 20.445 30.509999999999998, 19.98 31.32 C 19.47 32.1, 19.545 32.205000000000005, 18.96 32.88 C 18.3 33.45, 18.21 33.55499999999999, 17.64 34.019999999999996 C 17.16 34.379999999999995, 17.295 34.38, 16.68 34.74 C 15.93 35.1, 15.809999999999999 35.145, 15.18 35.46 C 14.67 35.730000000000004, 14.655 35.745, 14.16 36 C 13.68 36.24, 13.440000000000001 36.36, 13.200000000000001 36.480000000000004 C 13.200000000000001 36.480000000000004, 13.200000000000001 36.480000000000004, 13.200000000000001 36.480000000000004 L 13.200000000000001 36.480000000000004" fill="none" stroke="black" stroke-width="5"></path><path d="M 28.86 30.96 C 28.74 31.38, 28.83 30.915, 28.619999999999997 31.799999999999997 C 28.32 33.15, 28.424999999999997 33.24, 28.02 34.5 C 27.509999999999998 35.67, 27.495 35.714999999999996, 27 36.839999999999996 C 26.52 37.92, 26.625 38.085, 26.04 39 C 25.35 39.75, 25.650000000000002 39.78, 24.660000000000004 40.5 C 23.370000000000005 41.19, 23.385 41.205, 22.080000000000002 41.88 C 20.76 42.540000000000006, 20.25 42.81, 19.44 43.2 C 19.14 43.32, 19.065 43.335, 18.84 43.44 C 18.689999999999998 43.53, 18.66 43.544999999999995, 18.54 43.62 L 18.36 43.74" fill="none" stroke="black" stroke-width="5"></path></svg>