<svg xmlns="http://www.w3.org/2000/svg" viewBox="4.619999885559082 4.119999885559082 23.47333288192749 41.980003356933594" width="23.47333288192749" height="41.980003356933594"><path d="M 17.700000000000003 15.48 C 17.28 14.040000000000001, 17.235 13.905000000000001, 16.86 12.600000000000001 C 16.53 11.43, 16.53 11.175, 16.200000000000003 10.26 C 15.870000000000001 9.6, 15.870000000000001 9.555, 15.54 8.94 C 15.209999999999999 8.370000000000001, 15.299999999999999 8.4, 14.879999999999999 7.800000000000001 C 14.37 7.170000000000001, 14.445 7.080000000000001, 13.86 6.540000000000001 C 13.2 6.09, 13.229999999999999 5.984999999999999, 12.54 5.64 C 11.82 5.4, 11.670000000000002 5.28, 11.100000000000001 5.16 C 10.68 5.16, 10.77 5.16, 10.26 5.16 C 9.66 5.16, 9.585 5.07, 9.06 5.16 C 8.61 5.34, 8.565000000000001 5.16, 8.16 5.5200000000000005 C 7.8 6.0600000000000005, 7.77 5.955, 7.4399999999999995 6.6000000000000005 C 7.14 7.350000000000001, 7.109999999999999 7.125000000000002, 6.84 8.100000000000001 C 6.6 9.3, 6.615 9.045000000000002, 6.36 10.5 C 6.09 12.209999999999999, 6 12.314999999999998, 5.82 13.919999999999998 C 5.73 15.419999999999998, 5.685 15.644999999999998, 5.64 16.919999999999998 C 5.64 17.97, 5.64 17.564999999999998, 5.64 19.02 C 5.64 20.880000000000003, 5.64 21.12, 5.64 22.740000000000002 C 5.64 24.12, 5.64 24.060000000000002, 5.64 25.5 C 5.64 27, 5.64 27.33, 5.64 28.5 C 5.64 29.34, 5.64 29.13, 5.64 30.18 C 5.64 31.44, 5.64 31.470000000000006, 5.64 32.7 C 5.64 33.9, 5.595 34.065, 5.64 35.099999999999994 C 5.73 35.97, 5.73 35.94, 5.82 36.839999999999996 C 5.91 37.769999999999996, 5.9399999999999995 37.965, 6 38.7 C 6.03 39.24, 5.925000000000001 39.165, 6.0600000000000005 39.78 C 6.300000000000001 40.47, 6.135000000000002 40.440000000000005, 6.540000000000001 41.160000000000004 C 7.11 41.910000000000004, 7.245 42.120000000000005, 7.68 42.660000000000004 C 7.9799999999999995 42.99, 7.889999999999999 43.02, 8.28 43.32 C 8.76 43.59, 8.79 43.62, 9.24 43.86 C 9.66 44.07, 9.540000000000001 44.1, 10.08 44.28 C 10.739999999999998 44.43, 10.829999999999998 44.43, 11.399999999999999 44.58 C 11.879999999999999 44.730000000000004, 11.655 44.760000000000005, 12.36 44.88 C 13.29 44.97, 13.515 45.015, 14.22 45.06 C 14.7 45.06, 14.67 45.150000000000006, 15.18 45.06 C 15.719999999999999 44.88, 15.779999999999998 44.985, 16.259999999999998 44.7 C 16.68 44.31, 16.665 44.355000000000004, 17.1 43.92 C 17.55 43.44, 17.655 43.47, 18 42.96 C 18.240000000000002 42.42, 18.33 42.42, 18.48 41.88 C 18.54 41.34, 18.51 41.294999999999995, 18.6 40.8 C 18.72 40.35, 18.84 40.290000000000006, 18.84 39.900000000000006 C 18.72 39.57000000000001, 18.795 39.525000000000006, 18.6 39.24 C 18.33 39, 18.284999999999997 38.925, 18.06 38.76 C 17.880000000000003 38.67, 17.925000000000004 38.699999999999996, 17.700000000000003 38.58 C 17.43 38.43, 17.490000000000002 38.400000000000006, 17.16 38.28 C 16.77 38.19, 16.875 38.24999999999999, 16.38 38.099999999999994 C 15.78 37.89, 15.795 37.815, 15.18 37.68 C 14.549999999999999 37.620000000000005, 14.489999999999998 37.59, 13.919999999999998 37.56 C 13.409999999999998 37.56, 13.484999999999998 37.56, 12.899999999999999 37.56 C 12.239999999999998 37.56, 12.24 37.56, 11.58 37.56 C 10.92 37.56, 10.95 37.56, 10.26 37.56 C 9.54 37.56, 9.345 37.56, 8.82 37.56 C 8.49 37.56, 8.46 37.485, 8.16 37.56 C 7.890000000000001 37.71, 7.800000000000001 37.754999999999995, 7.62 37.86 C 7.529999999999999 37.92, 7.574999999999999 37.92, 7.4399999999999995 37.980000000000004 C 7.26 38.04, 7.215 38.02499999999999, 7.08 38.099999999999994 C 6.99 38.19, 7.004999999999999 38.175, 6.8999999999999995 38.28 C 6.779999999999999 38.4, 6.72 38.459999999999994, 6.66 38.519999999999996 C 6.66 38.519999999999996, 6.675 38.504999999999995, 6.66 38.519999999999996 L 6.6000000000000005 38.58" fill="none" stroke="black" stroke-width="5"></path><path d="M 6.0600000000000005 31.619999999999997 C 6.9 31.589999999999996, 6.735 31.695, 7.74 31.56 C 8.91 31.32, 8.895 31.2, 10.08 31.08 C 11.280000000000001 31.08, 11.055 31.08, 12.48 31.08 C 14.129999999999999 31.08, 14.34 31.08, 15.78 31.08 C 17.01 31.08, 16.950000000000003 31.154999999999998, 18.240000000000002 31.08 C 19.590000000000003 30.93, 19.725 30.884999999999998, 20.94 30.78 C 22.020000000000003 30.720000000000002, 22.005000000000003 30.750000000000004, 23.1 30.660000000000004 C 24.21 30.540000000000003, 24.585 30.540000000000003, 25.32 30.42 C 25.68 30.3, 25.695 30.405, 26.04 30.18 C 26.37 29.85, 26.490000000000002 29.85, 26.700000000000003 29.52 C 26.790000000000003 29.189999999999998, 26.805000000000003 29.325, 26.880000000000003 28.86 C 26.94 28.26, 26.955000000000002 28.230000000000004, 27 27.660000000000004 C 27.03 27.12, 27.044999999999998 27.299999999999997, 27.06 26.58 C 27.06 25.68, 27.06 26.22, 27.06 24.78 C 27.06 22.8, 27.134999999999998 22.950000000000003, 27.06 20.82 C 26.909999999999997 18.54, 26.984999999999996 18.284999999999997, 26.759999999999998 16.259999999999998 C 26.46 14.489999999999998, 26.475 14.685, 26.160000000000004 12.72 C 25.830000000000002 10.559999999999999, 25.785 10.064999999999998, 25.5 8.399999999999999 C 25.259999999999998 7.2299999999999995, 25.185000000000002 6.75, 25.02 6.0600000000000005 C 24.93 5.85, 24.884999999999998 5.745, 24.839999999999996 5.64 C 24.839999999999996 5.64, 24.839999999999996 5.64, 24.839999999999996 5.64 L 24.839999999999996 5.64" fill="none" stroke="black" stroke-width="5"></path></svg>