<svg xmlns="http://www.w3.org/2000/svg" viewBox="6.013333320617676 5.87333345413208 22.886666774749756 40.00666809082031" width="22.886666774749756" height="40.00666809082031"><path d="M 19.740000000000002 16.259999999999998 C 19.740000000000002 15.299999999999999, 19.935000000000002 15.6, 19.740000000000002 14.34 C 19.35 12.780000000000001, 19.41 12.345, 18.96 11.22 C 18.450000000000003 10.530000000000001, 18.630000000000003 10.56, 17.94 9.84 C 17.07 9.09, 17.220000000000002 8.985, 16.200000000000003 8.34 C 15.030000000000001 7.8, 14.79 7.62, 13.86 7.26 C 13.17 7.08, 13.17 6.989999999999999, 12.48 6.8999999999999995 C 11.790000000000001 6.8999999999999995, 11.715000000000002 6.84, 11.100000000000001 6.8999999999999995 C 10.56 7.02, 10.635 6.795, 10.02 7.14 C 9.33 7.709999999999999, 9.195 7.544999999999999, 8.64 8.28 C 8.22 9.18, 8.100000000000001 9.015, 7.800000000000001 10.08 C 7.62 11.309999999999999, 7.635 11.19, 7.4399999999999995 12.54 C 7.2299999999999995 14.01, 7.125 14.19, 7.02 15.48 C 7.02 16.590000000000003, 7.02 16.410000000000004, 7.02 17.700000000000003 C 7.02 19.17, 7.02 18.735, 7.02 20.64 C 7.02 22.98, 7.004999999999999 23.37, 7.02 25.32 C 7.05 26.880000000000003, 7.005 27.225, 7.08 28.44 C 7.2 29.310000000000002, 7.17 29.055, 7.32 30.18 C 7.5 31.56, 7.515 31.68, 7.68 32.94 C 7.83 34.08, 7.7700000000000005 33.974999999999994, 7.98 35.22 C 8.25 36.57, 8.34 36.675, 8.52 37.92 C 8.61 39.06, 8.625 39.36, 8.7 40.2 C 8.76 40.74, 8.76 40.68000000000001, 8.82 41.28 C 8.879999999999999 41.94, 8.879999999999999 41.99999999999999, 8.94 42.599999999999994 C 9 43.14, 9.030000000000001 43.334999999999994, 9.06 43.68 C 9.06 43.83, 9.06 43.725, 9.06 43.980000000000004 C 9.06 44.34, 9.06 44.52, 9.06 44.7 C 9.06 44.7, 9.06 44.655, 9.06 44.7 C 9.06 44.790000000000006, 9.06 44.835, 9.06 44.88 L 9.06 44.88" fill="none" stroke="black" stroke-width="5"></path><path d="M 7.32 22.56 C 7.98 22.47, 8.040000000000001 22.395, 8.64 22.38 C 9.18 22.439999999999998, 9.09 22.215, 9.72 22.5 C 10.440000000000001 23.009999999999998, 10.56 23.04, 11.16 23.52 C 11.64 23.97, 11.595 23.55, 12.120000000000001 24.42 C 12.690000000000001 25.71, 12.825 25.845, 13.26 27 C 13.559999999999999 28.02, 13.695 28.2, 13.86 29.04 C 13.889999999999999 29.7, 13.889999999999997 30, 13.919999999999998 30.36 C 13.95 30.42, 13.965 30.45, 13.98 30.48 C 13.98 30.48, 13.98 30.48, 13.98 30.48 C 13.98 30.48, 13.98 30.585, 13.98 30.48 C 13.98 30.27, 13.89 30.81, 13.98 30.06 C 14.16 28.77, 13.965 28.634999999999998, 14.34 27.48 C 14.91 26.46, 14.865000000000002 26.505000000000003, 15.48 25.44 C 16.14 24.33, 16.184999999999995 24, 16.799999999999997 23.22 C 17.369999999999997 22.77, 17.07 22.725, 17.94 22.32 C 19.11 21.96, 18.630000000000003 21.840000000000003, 20.28 21.6 C 22.41 21.48, 23.009999999999998 21.42, 24.54 21.36 C 25.47 21.36, 25.86 21.36, 26.400000000000002 21.36 C 26.550000000000004 21.36, 26.535000000000004 21.36, 26.700000000000003 21.36 C 26.880000000000003 21.36, 26.835 21.33, 27.06 21.36 C 27.33 21.42, 27.389999999999997 21.435000000000002, 27.599999999999998 21.48 L 27.900000000000002 21.54" fill="none" stroke="black" stroke-width="5"></path><path d="M 19.86 34.5 C 19.23 35.19, 18.93 35.295, 18.6 35.88 C 18.57 36.36, 18.255 36.54, 18.54 36.839999999999996 C 19.14 36.959999999999994, 19.245 37.245, 19.740000000000002 37.08 C 20.130000000000003 36.629999999999995, 20.28 36.96, 20.52 36.18 C 20.61 35.07, 21.015000000000004 34.65, 20.700000000000003 33.96 C 19.98 33.69, 19.994999999999997 32.745000000000005, 19.259999999999998 33.42 C 18.509999999999998 35.040000000000006, 18.044999999999998 35.46000000000001, 17.759999999999998 36.660000000000004 C 17.939999999999998 37.44, 17.130000000000003 38.07, 18.12 38.22 C 19.92 37.739999999999995, 20.865 38.22, 21.72 37.26 C 21.63 35.82, 22.185 35.34, 21.54 34.38 C 20.34 33.900000000000006, 19.995 33.255, 19.14 33.42 C 18.630000000000003 34.230000000000004, 18.330000000000002 33.975, 18.12 35.04 C 18.21 36.36, 17.729999999999997 37.2, 18.299999999999997 37.68 C 19.349999999999998 37.32, 19.875 37.14, 20.4 36.96 L 20.4 36.96" fill="none" stroke="black" stroke-width="5"></path></svg>