<svg xmlns="http://www.w3.org/2000/svg" viewBox="7.878853797912598 1.7599999904632568 18.86114501953125 43.760000467300415" width="18.86114501953125" height="43.760000467300415"><path d="M 15.84 18.6 C 15.84 17.7, 16.05 18.269999999999996, 15.84 16.799999999999997 C 15.42 14.759999999999998, 15.375 14.055, 15 12.72 C 14.67 12.09, 14.625 11.924999999999999, 14.34 11.459999999999999 C 14.1 11.16, 14.204999999999998 11.084999999999999, 13.86 10.86 C 13.41 10.71, 13.59 10.545, 12.96 10.56 C 12.15 10.74, 12.135 10.485, 11.34 10.92 C 10.559999999999999 11.61, 10.305 11.639999999999999, 9.78 12.299999999999999 C 9.51 12.93, 9.405 12.854999999999999, 9.24 13.559999999999999 C 9.18 14.34, 9.21 14.010000000000002, 9.120000000000001 15.120000000000001 C 9 16.560000000000002, 8.864999999999998 16.845, 8.879999999999999 18 C 9.03 18.87, 8.895 18.93, 9.18 19.740000000000002 C 9.6 20.490000000000002, 9.6 20.700000000000003, 10.02 21.240000000000002 C 10.44 21.57, 10.334999999999999 21.57, 10.86 21.9 C 11.49 22.229999999999997, 11.025 22.259999999999998, 12.120000000000001 22.56 C 13.68 22.83, 13.41 22.98, 15.24 23.1 C 17.34 23.07, 17.82 23.055, 19.44 23.04 C 20.58 23.04, 20.715 23.055, 21.72 23.04 C 22.59 23.009999999999998, 22.725 23.265, 23.46 22.98 C 24.060000000000002 22.439999999999998, 24.195000000000004 22.755, 24.660000000000004 21.9 C 24.990000000000002 20.729999999999997, 25.065 20.729999999999997, 25.32 19.56 C 25.5 18.39, 25.59 18.869999999999997, 25.68 17.22 C 25.68 15.09, 25.814999999999998 15.120000000000001, 25.68 12.96 C 25.41 10.77, 25.485 10.65, 25.14 8.58 C 24.72 6.63, 24.569999999999997 5.88, 24.299999999999997 4.68 C 24.18 4.23, 24.165 4.26, 24.06 3.7800000000000002 C 23.97 3.2700000000000005, 23.924999999999997 3.015, 23.88 2.7600000000000002 L 23.88 2.7600000000000002" fill="none" stroke="black" stroke-width="5"></path><path d="M 13.98 22.5 C 13.98 22.98, 13.83 22.62, 13.98 23.46 C 14.280000000000001 24.66, 14.145000000000001 24.9, 14.580000000000002 25.86 C 15.150000000000002 26.58, 15.150000000000002 26.654999999999998, 15.72 27.299999999999997 C 16.29 27.869999999999997, 16.08 27.735, 16.86 28.44 C 17.85 29.28, 18.03 29.564999999999998, 18.84 30.119999999999997 C 19.47 30.39, 19.155 30.42, 20.1 30.660000000000004 C 21.36 30.87, 21.69 30.945, 22.62 31.08 C 23.22 31.14, 23.385 31.125, 23.82 31.200000000000003 C 24.09 31.290000000000003, 24.225 31.335, 24.36 31.380000000000003 C 24.36 31.380000000000003, 24.36 31.380000000000003, 24.36 31.380000000000003 C 24.36 31.380000000000003, 24.36 31.380000000000003, 24.36 31.380000000000003 C 24.36 31.380000000000003, 24.39 31.380000000000003, 24.36 31.380000000000003 C 24.3 31.380000000000003, 24.990000000000002 31.185000000000002, 24.240000000000002 31.380000000000003 C 22.8 31.770000000000003, 22.47 31.830000000000005, 21.36 32.160000000000004 C 20.58 32.43000000000001, 20.609999999999996 32.355000000000004, 19.799999999999997 32.7 C 18.96 33.120000000000005, 18.9 33.09, 18.12 33.54 C 17.4 34.019999999999996, 17.43 33.87, 16.68 34.5 C 15.9 35.28, 15.810000000000002 35.28, 15.120000000000001 36.06 C 14.52 36.84, 14.369999999999997 36.93, 13.919999999999998 37.62 C 13.62 38.22, 13.71 37.875, 13.32 38.82 C 12.84 40.11, 12.645 40.32000000000001, 12.36 41.400000000000006 C 12.27 42.27, 12.225 42.495000000000005, 12.18 43.14 C 12.18 43.56, 12.18 43.635000000000005, 12.18 43.980000000000004 C 12.18 44.25, 12.18 44.385, 12.18 44.519999999999996 L 12.18 44.519999999999996" fill="none" stroke="black" stroke-width="5"></path><path d="M 9.3 31.200000000000003 C 9.690000000000001 31.35, 9.45 31.095, 10.08 31.5 C 10.95 32.16, 11.145 32.235, 11.82 32.82 C 12.3 33.33, 12.239999999999998 33.3, 12.78 33.839999999999996 C 13.379999999999999 34.41, 13.620000000000001 34.665000000000006, 13.98 34.980000000000004 C 14.100000000000001 35.04, 14.115000000000002 35.02499999999999, 14.22 35.099999999999994 C 14.309999999999999 35.19, 14.309999999999999 35.175, 14.399999999999999 35.28 C 14.49 35.4, 14.475000000000001 35.44499999999999, 14.580000000000002 35.519999999999996 C 14.700000000000001 35.55, 14.760000000000002 35.565, 14.82 35.58 L 14.82 35.58" fill="none" stroke="black" stroke-width="5"></path></svg>