<svg xmlns="http://www.w3.org/2000/svg" viewBox="5.599999904632568 5.24666690826416 22.639999389648438 40.633334159851074" width="22.639999389648438" height="40.633334159851074"><path d="M 17.34 19.68 C 17.43 18.6, 17.445 18.945, 17.52 17.52 C 17.58 15.75, 17.61 15.615, 17.64 13.98 C 17.64 12.48, 17.73 12.285, 17.64 10.98 C 17.46 9.870000000000001, 17.55 9.645, 17.28 8.76 C 16.92 8.1, 16.95 7.9799999999999995, 16.56 7.4399999999999995 C 16.14 7.02, 16.14 6.885, 15.72 6.6000000000000005 C 15.3 6.450000000000001, 15.45 6.375000000000001, 14.879999999999999 6.300000000000001 C 14.16 6.300000000000001, 14.295000000000002 6.1800000000000015, 13.440000000000001 6.300000000000001 C 12.45 6.54, 12.344999999999999 6.255, 11.459999999999999 6.779999999999999 C 10.68 7.589999999999999, 10.575 7.304999999999998, 9.899999999999999 8.399999999999999 C 9.329999999999998 9.78, 9.299999999999999 9.39, 8.76 11.16 C 8.25 13.32, 8.205 13.065000000000001, 7.74 15.48 C 7.32 18.15, 7.185 17.97, 6.8999999999999995 20.82 C 6.75 23.85, 6.6000000000000005 24.525000000000002, 6.6000000000000005 26.880000000000003 C 6.75 28.560000000000002, 6.6 28.950000000000003, 6.8999999999999995 30.240000000000002 C 7.35 31.14, 7.215000000000001 31.485, 7.800000000000001 32.04 C 8.52 32.25, 8.235 32.49, 9.24 32.46 C 10.530000000000001 32.19, 10.785 32.445, 11.82 31.92 C 12.6 31.14, 12.719999999999999 31.17, 13.379999999999999 30.36 C 13.92 29.52, 14.055 29.759999999999998, 14.46 28.68 C 14.73 27.36, 14.865 26.729999999999997, 15 26.04 C 15 25.98, 15 25.950000000000003, 15 25.92 C 15 25.92, 15 25.770000000000003, 15 25.92 C 15 26.22, 14.955 25.965, 15 26.52 C 15.09 27.33, 15 27.525, 15.18 28.14 C 15.45 28.560000000000002, 15.195 28.5, 15.72 28.98 C 16.5 29.52, 16.68 29.655, 17.28 30.06 C 17.700000000000003 30.33, 17.475 30.419999999999998, 18.12 30.599999999999998 C 18.990000000000002 30.689999999999998, 19.065 30.675, 19.86 30.78 C 20.58 30.9, 20.534999999999997 30.975, 21.299999999999997 31.02 C 22.11 30.990000000000002, 22.199999999999996 31.215, 22.919999999999998 30.96 C 23.549999999999997 30.48, 23.625 30.555, 24.18 30 C 24.66 29.37, 24.69 29.700000000000003, 25.14 28.740000000000002 C 25.560000000000002 27.450000000000003, 25.605 27.450000000000003, 25.98 26.160000000000004 C 26.310000000000002 24.870000000000005, 26.325 25.665000000000003, 26.64 23.580000000000002 C 26.94 20.700000000000003, 27.135 20.985, 27.240000000000002 17.82 C 27.15 14.370000000000001, 27.21 13.455, 27.06 10.92 C 26.85 9.3, 26.82 8.76, 26.64 7.68 C 26.49 7.140000000000001, 26.415 6.87, 26.339999999999996 6.6000000000000005 L 26.339999999999996 6.6000000000000005" fill="none" stroke="black" stroke-width="5"></path><path d="M 19.68 31.02 C 19.83 31.559999999999995, 20.01 31.409999999999993, 19.98 32.099999999999994 C 19.77 32.94, 19.919999999999998 32.685, 19.56 33.78 C 19.049999999999997 35.13, 19.185 35.145, 18.54 36.480000000000004 C 17.759999999999998 37.8, 17.745 38.07, 16.98 39.12 C 16.23 39.9, 16.365000000000002 39.93, 15.48 40.68 C 14.46 41.4, 14.430000000000001 41.535, 13.440000000000001 42.12 C 12.48 42.56999999999999, 12.54 42.525, 11.52 43.019999999999996 C 10.44 43.559999999999995, 10.229999999999999 43.67999999999999, 9.36 44.099999999999994 C 8.7 44.4, 8.49 44.505, 8.040000000000001 44.7 L 7.5600000000000005 44.88" fill="none" stroke="black" stroke-width="5"></path><path d="M 12.66 42.599999999999994 C 12.690000000000001 42.449999999999996, 12.600000000000001 42.375, 12.72 42.3 C 12.93 42.3, 12.915000000000001 42.3, 13.14 42.3 C 13.38 42.3, 12.75 42.3, 13.620000000000001 42.3 C 15.120000000000001 42.3, 15 42.33, 16.62 42.3 C 18.36 42.239999999999995, 19.05 42.21, 20.1 42.18 C 20.46 42.18, 20.55 42.18, 20.82 42.18 L 21.18 42.18" fill="none" stroke="black" stroke-width="5"></path></svg>