<svg xmlns="http://www.w3.org/2000/svg" viewBox="12.65333366394043 4.880000114440918 18.303956985473633 40.57999897003174" width="18.303956985473633" height="40.57999897003174"><path d="M 24.900000000000002 24.48 C 24.869999999999997 23.73, 25.034999999999997 23.775000000000002, 24.839999999999996 22.98 C 24.479999999999997 22.14, 24.554999999999996 22.095, 24.119999999999997 21.299999999999997 C 23.61 20.549999999999997, 23.715 20.369999999999997, 23.1 19.799999999999997 C 22.380000000000003 19.409999999999997, 22.275 19.215, 21.66 19.02 C 21.15 19.02, 21.165 19.064999999999998, 20.64 19.02 C 20.1 18.93, 20.384999999999998 18.765, 19.56 18.84 C 18.45 19.08, 18.24 18.990000000000002, 17.34 19.32 C 16.65 19.740000000000002, 16.59 19.725, 15.96 20.16 C 15.39 20.61, 15.285 20.445, 14.82 21.06 C 14.46 21.84, 14.370000000000001 21.795, 14.100000000000001 22.62 C 13.920000000000002 23.490000000000002, 13.83 23.58, 13.74 24.36 C 13.74 25.05, 13.545 25.23, 13.74 25.740000000000002 C 14.129999999999999 26.07, 14.024999999999999 26.175000000000004, 14.52 26.400000000000002 C 15.120000000000001 26.520000000000003, 15.150000000000002 26.55, 15.72 26.64 C 16.259999999999998 26.7, 16.199999999999996 26.879999999999995, 16.799999999999997 26.759999999999998 C 17.46 26.46, 17.505000000000003 26.595000000000002, 18.12 26.160000000000004 C 18.689999999999998 25.590000000000003, 18.9 25.515, 19.259999999999998 25.02 C 19.409999999999997 24.6, 19.485 24.39, 19.56 24.18 C 19.56 24.18, 19.56 24.314999999999998, 19.56 24.18 C 19.56 23.91, 19.529999999999998 23.82, 19.56 23.64 C 19.619999999999997 23.55, 19.65 23.505000000000003, 19.68 23.46 C 19.68 23.46, 19.665 23.385, 19.68 23.46 C 19.71 23.61, 19.725 23.354999999999997, 19.740000000000002 23.759999999999998 C 19.740000000000002 24.419999999999998, 19.650000000000002 24.479999999999997, 19.740000000000002 25.08 C 19.92 25.62, 19.680000000000003 25.515, 20.1 26.160000000000004 C 20.759999999999998 26.910000000000004, 20.79 27.120000000000005, 21.419999999999998 27.660000000000004 C 22.02 27.990000000000002, 21.72 27.96, 22.62 28.32 C 23.82 28.71, 23.73 28.949999999999996, 25.02 29.099999999999998 C 26.4 29.009999999999998, 26.745 29.355, 27.78 28.92 C 28.470000000000002 28.14, 28.665000000000006 28.049999999999997, 29.160000000000004 27.36 C 29.46 26.76, 29.564999999999998 26.835, 29.759999999999998 26.160000000000004 C 29.85 25.410000000000004, 29.91 26.085000000000004, 29.94 24.660000000000004 C 29.910000000000004 22.560000000000002, 30.030000000000005 22.32, 29.880000000000003 20.46 C 29.61 18.84, 29.775 19.244999999999997, 29.339999999999996 17.22 C 28.74 14.79, 28.619999999999997 14.16, 28.14 12.36 C 27.78 11.19, 27.96 11.235, 27.42 10.02 C 26.700000000000003 8.76, 26.55 8.4, 25.98 7.5 C 25.560000000000002 6.96, 25.59 6.8100000000000005, 25.14 6.42 C 24.66 6.18, 24.465 6.074999999999999, 24.18 5.9399999999999995 C 24.09 5.91, 24.045 5.895, 24 5.88 C 24 5.88, 24 5.88, 24 5.88 C 24 5.88, 24 5.88, 24 5.88 L 24 5.88" fill="none" stroke="black" stroke-width="5"></path><path d="M 21.419999999999998 32.46 C 20.61 32.46, 20.684999999999995 32.19, 19.799999999999997 32.46 C 18.839999999999996 33, 18.81 32.625, 17.88 33.54 C 16.98 34.83, 16.650000000000002 34.754999999999995, 16.080000000000002 36.12 C 15.840000000000002 37.56, 15.765000000000002 37.815, 15.600000000000001 39 C 15.51 39.93, 15.284999999999998 39.96, 15.419999999999998 40.86 C 15.78 41.73, 15.555 41.849999999999994, 16.14 42.599999999999994 C 16.95 43.23, 16.665 43.394999999999996, 17.759999999999998 43.86 C 19.14 44.16, 19.439999999999998 44.43, 20.52 44.46 C 21.3 44.22, 21.21 44.535000000000004, 22.080000000000002 43.980000000000004 C 23.04 43.11, 23.295 43.02, 24 42.24 C 24.450000000000003 41.55, 24.615000000000002 41.715, 24.900000000000002 40.86 C 25.020000000000003 39.84, 25.080000000000002 39.644999999999996, 25.14 38.82 C 25.14 38.19, 25.35 38.295, 25.14 37.56 C 24.72 36.72, 24.735 36.660000000000004, 24.299999999999997 35.88 C 23.849999999999998 35.16, 23.819999999999997 35.01, 23.4 34.44 C 23.009999999999998 34.019999999999996, 22.905 33.88499999999999, 22.62 33.599999999999994 C 22.439999999999998 33.449999999999996, 22.544999999999998 33.495, 22.259999999999998 33.3 C 21.869999999999997 33.06, 22.11 33.045, 21.48 32.82 C 20.61 32.61, 20.175 32.505, 19.740000000000002 32.400000000000006 C 19.740000000000002 32.400000000000006, 19.740000000000002 32.400000000000006, 19.740000000000002 32.400000000000006 L 19.740000000000002 32.400000000000006" fill="none" stroke="black" stroke-width="5"></path></svg>