<svg xmlns="http://www.w3.org/2000/svg" viewBox="7.749095916748047 5.2133331298828125 25.290904998779297 38.50666809082031" width="25.290904998779297" height="38.50666809082031"><path d="M 19.080000000000002 13.200000000000001 C 18.689999999999998 11.91, 18.705 11.73, 18.299999999999997 10.620000000000001 C 17.88 9.690000000000001, 17.91 9.495000000000001, 17.46 8.76 C 16.98 8.219999999999999, 16.935 8.205, 16.5 7.68 C 16.11 7.17, 16.095 7.02, 15.72 6.66 C 15.36 6.45, 15.405 6.345000000000001, 15 6.24 C 14.55 6.24, 14.700000000000001 6.18, 14.100000000000001 6.24 C 13.350000000000001 6.36, 13.365000000000002 6.120000000000001, 12.600000000000001 6.48 C 11.82 7.08, 11.685000000000002 7.08, 11.040000000000001 7.68 C 10.530000000000001 8.28, 10.379999999999999 8.264999999999999, 10.02 8.879999999999999 C 9.81 9.51, 9.795000000000002 9.15, 9.600000000000001 10.14 C 9.420000000000002 11.49, 9.405000000000001 11.205, 9.24 12.84 C 9.09 14.76, 9.03 14.79, 8.94 16.68 C 8.91 18.54, 8.924999999999999 18.659999999999997, 8.879999999999999 20.4 C 8.82 22.02, 8.715 21.585, 8.76 23.64 C 8.91 26.13, 8.85 26.415, 9.06 28.619999999999997 C 9.330000000000002 30.54, 9.435000000000002 30.869999999999997, 9.600000000000001 32.46 C 9.66 33.72, 9.645000000000001 33.915000000000006, 9.72 34.980000000000004 C 9.809999999999999 35.85, 9.78 35.775, 9.899999999999999 36.72 C 10.049999999999999 37.739999999999995, 10.11 37.995, 10.2 38.76 C 10.23 39.269999999999996, 10.2 39.3, 10.26 39.78 C 10.35 40.230000000000004, 10.395 40.2, 10.44 40.68 C 10.44 41.19, 10.424999999999999 41.31, 10.44 41.7 C 10.469999999999999 41.97, 10.455 41.985, 10.5 42.24 C 10.56 42.480000000000004, 10.59 42.6, 10.620000000000001 42.72 C 10.620000000000001 42.72, 10.620000000000001 42.72, 10.620000000000001 42.72 L 10.620000000000001 42.72" fill="none" stroke="black" stroke-width="5"></path><path d="M 9.18 20.22 C 9.42 20.189999999999998, 9.225 20.175, 9.66 20.16 C 10.29 20.16, 9.855 20.16, 10.92 20.16 C 12.419999999999998 20.16, 12.374999999999998 20.16, 13.919999999999998 20.16 C 15.51 20.16, 15.915000000000001 20.145, 17.1 20.16 C 17.880000000000003 20.189999999999998, 17.805 20.145, 18.66 20.22 C 19.59 20.34, 19.74 20.265, 20.52 20.46 C 21.15 20.73, 21.165 20.61, 21.78 21 C 22.380000000000003 21.509999999999998, 22.5 21.345, 22.98 22.02 C 23.340000000000003 22.86, 23.415000000000003 22.650000000000002, 23.700000000000003 23.700000000000003 C 23.91 24.96, 24.015 25.095, 24.119999999999997 26.22 C 24.119999999999997 27.21, 24.119999999999997 27.075000000000003, 24.119999999999997 28.200000000000003 C 24.119999999999997 29.46, 24.15 29.685000000000002, 24.119999999999997 30.72 C 24.06 31.529999999999998, 24.06 31.754999999999995, 24 32.339999999999996 C 23.939999999999998 32.7, 23.91 32.760000000000005, 23.88 33.06 C 23.88 33.3, 23.88 33.42, 23.88 33.54 C 23.88 33.54, 23.88 33.54, 23.88 33.54 C 23.88 33.54, 23.88 33.54, 23.88 33.54 C 23.88 33.54, 23.61 33.585, 23.88 33.54 C 24.42 33.45, 24.345000000000002 33.42, 24.96 33.36 C 25.65 33.33, 25.619999999999997 33.315, 26.339999999999996 33.3 C 27.089999999999996 33.3, 27.134999999999994 33.135, 27.839999999999996 33.3 C 28.5 33.629999999999995, 28.605000000000004 33.63, 29.160000000000004 33.96 C 29.61 34.29, 29.535 34.05, 30.06 34.62 C 30.659999999999997 35.43, 30.825 35.52, 31.259999999999998 36.24 C 31.529999999999998 36.870000000000005, 31.604999999999997 36.9, 31.799999999999997 37.5 C 31.919999999999998 38.07, 31.979999999999997 38.19, 32.04 38.64 C 32.04 38.97, 32.04 38.94, 32.04 39.3 C 32.04 39.69, 32.04 39.855, 32.04 40.08 C 32.04 40.14, 32.04 40.17, 32.04 40.2 L 32.04 40.2" fill="none" stroke="black" stroke-width="5"></path><path d="M 15.96 27.660000000000004 C 15.69 27.660000000000004, 15.674999999999997 27.525000000000006, 15.419999999999998 27.660000000000004 C 15.18 27.930000000000003, 15.015 27.795, 14.940000000000001 28.200000000000003 C 15.030000000000001 28.740000000000002, 14.805 28.965000000000003, 15.120000000000001 29.28 C 15.660000000000002 29.37, 15.675000000000004 29.415, 16.200000000000003 29.46 C 16.71 29.46, 16.83 29.82, 17.22 29.46 C 17.49 28.740000000000002, 17.729999999999997 28.575, 17.759999999999998 28.02 C 17.549999999999997 27.630000000000003, 17.64 27.435000000000002, 17.34 27.240000000000002 C 16.95 27.240000000000002, 16.89 27.045, 16.56 27.240000000000002 C 16.29 27.630000000000003, 16.155 27.465, 16.02 28.02 C 16.02 28.740000000000002, 15.825 28.875, 16.02 29.46 C 16.409999999999997 29.91, 16.514999999999997 30.119999999999997, 16.799999999999997 30.36 C 16.979999999999997 30.39, 16.994999999999997 30.885, 17.16 30.42 C 17.310000000000002 29.46, 17.475 29.205000000000002, 17.46 28.5 C 17.28 28.049999999999997, 17.505000000000003 27.839999999999996, 17.1 27.599999999999998 C 16.47 27.57, 16.485 27.314999999999998, 15.84 27.54 C 15.18 28.02, 14.924999999999999 27.945, 14.52 28.5 C 14.370000000000001 29.13, 14.07 29.264999999999997, 14.22 29.759999999999998 C 14.670000000000002 30.119999999999997, 14.535000000000002 30.3, 15.120000000000001 30.48 C 15.84 30.48, 16.049999999999997 30.855, 16.56 30.48 C 16.86 29.73, 17.009999999999998 29.85, 17.16 28.98 C 17.16 27.990000000000002, 17.22 27.615000000000002, 17.16 27 C 17.04 26.759999999999998, 17.264999999999997 26.37, 16.919999999999998 26.52 C 16.349999999999998 27.06, 16.064999999999998 26.819999999999997, 15.78 27.599999999999998 C 15.78 28.619999999999997, 15.719999999999999 28.995, 15.78 29.64 C 15.899999999999999 29.91, 15.959999999999999 30.045, 16.02 30.18 L 16.02 30.18" fill="none" stroke="black" stroke-width="5"></path></svg>