<svg xmlns="http://www.w3.org/2000/svg" viewBox="7.676238059997559 4.293333530426025 22.12376117706299 40.98666524887085" width="22.12376117706299" height="40.98666524887085"><path d="M 18 13.32 C 17.91 12.06, 17.97 11.835, 17.82 10.8 C 17.61 9.99, 17.685 9.99, 17.4 9.18 C 17.04 8.370000000000001, 17.099999999999998 8.25, 16.68 7.5600000000000005 C 16.2 6.99, 16.275 6.885, 15.72 6.42 C 15.09 6.06, 15.045000000000002 5.954999999999999, 14.46 5.699999999999999 C 13.92 5.55, 13.92 5.475, 13.379999999999999 5.4 C 12.84 5.4, 12.869999999999997 5.4, 12.299999999999999 5.4 C 11.7 5.4, 11.655000000000001 5.16, 11.100000000000001 5.4 C 10.59 5.880000000000001, 10.440000000000001 5.8950000000000005, 10.08 6.36 C 9.870000000000001 6.8100000000000005, 9.9 6.569999999999999, 9.66 7.26 C 9.39 8.190000000000001, 9.360000000000001 8.025, 9.120000000000001 9.120000000000001 C 8.91 10.38, 8.805 10.32, 8.7 11.64 C 8.7 13.02, 8.7 13.049999999999999, 8.7 14.399999999999999 C 8.7 15.719999999999999, 8.684999999999999 15.555, 8.7 17.04 C 8.73 18.689999999999998, 8.594999999999999 18.78, 8.76 20.34 C 9.059999999999999 21.810000000000002, 9.12 22.11, 9.36 23.28 C 9.54 24.15, 9.63 24.465, 9.72 25.02 C 9.72 25.259999999999998, 9.72 25.38, 9.72 25.5 C 9.72 25.5, 9.72 25.5, 9.72 25.5 L 9.72 25.5" fill="none" stroke="black" stroke-width="5"></path><path d="M 9.24 16.259999999999998 C 10.170000000000002 16.049999999999997, 10.23 15.945, 11.100000000000001 15.84 C 11.91 15.84, 11.91 15.705, 12.72 15.84 C 13.530000000000001 16.11, 13.62 16.14, 14.34 16.38 C 14.97 16.589999999999996, 15.045000000000002 16.439999999999998, 15.600000000000001 16.799999999999997 C 16.08 17.31, 15.945 17.205, 16.56 17.82 C 17.31 18.54, 17.52 18.404999999999998, 18.06 19.259999999999998 C 18.39 20.25, 18.494999999999997 20.37, 18.72 21.240000000000002 C 18.84 21.990000000000002, 18.9 22.230000000000004, 18.96 22.740000000000002 C 18.96 23.01, 18.96 23.145000000000003, 18.96 23.28 C 18.96 23.28, 18.945 23.19, 18.96 23.28 C 18.990000000000002 23.46, 19.005 23.55, 19.02 23.64 C 19.02 23.64, 18.915 23.655, 19.02 23.64 C 19.23 23.61, 19.02 23.76, 19.44 23.580000000000002 C 20.07 23.25, 19.815000000000005 23.22, 20.700000000000003 22.919999999999998 C 21.840000000000003 22.65, 22.065 22.5, 22.98 22.38 C 23.67 22.41, 23.73 22.29, 24.36 22.44 C 24.93 22.71, 24.975 22.665, 25.5 22.98 C 25.98 23.340000000000003, 25.98 23.28, 26.46 23.700000000000003 C 26.94 24.180000000000003, 27.015 24.195000000000004, 27.42 24.660000000000004 C 27.75 25.11, 27.794999999999998 25.095, 28.08 25.56 C 28.32 26.04, 28.394999999999996 26.115, 28.56 26.52 C 28.65 26.85, 28.695 26.925, 28.740000000000002 27.18 C 28.740000000000002 27.36, 28.740000000000002 27.45, 28.740000000000002 27.54 L 28.740000000000002 27.54" fill="none" stroke="black" stroke-width="5"></path><path d="M 19.14 23.1 C 19.08 23.37, 18.945 23.07, 19.02 23.64 C 19.23 24.51, 19.29 24.270000000000003, 19.44 25.380000000000003 C 19.53 26.73, 19.575000000000003 26.895, 19.62 28.08 C 19.62 29.099999999999998, 19.635 28.799999999999997, 19.62 30.119999999999997 C 19.59 31.74, 19.575 31.769999999999996, 19.56 33.36 C 19.56 34.92, 19.56 35.010000000000005, 19.56 36.480000000000004 C 19.56 37.86, 19.56 38.07, 19.56 39.24 C 19.56 40.2, 19.56 40.17, 19.56 41.160000000000004 C 19.56 42.18000000000001, 19.56 42.525000000000006, 19.56 43.2 C 19.56 43.53, 19.56 43.695, 19.56 43.86 C 19.56 43.86, 19.56 43.86, 19.56 43.86 C 19.56 43.86, 19.56 43.8, 19.56 43.86 C 19.56 43.98, 19.56 44.03999999999999, 19.56 44.099999999999994 C 19.56 44.099999999999994, 19.485 44.504999999999995, 19.56 44.099999999999994 C 19.71 43.29, 19.544999999999998 43.410000000000004, 19.86 42.480000000000004 C 20.34 41.43000000000001, 20.310000000000002 41.220000000000006, 20.82 40.38 C 21.36 39.75, 21.255 39.705, 21.9 39.12 C 22.65 38.58, 22.455 38.445, 23.4 38.04 C 24.54 37.769999999999996, 24.72 37.74, 25.68 37.5 C 26.46 37.29, 26.625 37.185, 27.240000000000002 37.08 C 27.69 37.08, 27.795 37.08, 28.14 37.08 C 28.38 37.08, 28.455 37.08, 28.619999999999997 37.08 C 28.709999999999997 37.08, 28.754999999999995 37.08, 28.799999999999997 37.08 L 28.799999999999997 37.08" fill="none" stroke="black" stroke-width="5"></path></svg>