<svg xmlns="http://www.w3.org/2000/svg" viewBox="9.466667175292969 4.217119216918945 23.15333366394043 41.84288215637207" width="23.15333366394043" height="41.84288215637207"><path d="M 18.84 12.899999999999999 C 18.66 11.91, 18.825 12.209999999999999, 18.48 10.92 C 17.97 9.33, 17.880000000000003 8.82, 17.46 7.74 C 17.13 7.17, 17.249999999999996 7.095000000000001, 16.799999999999997 6.6000000000000005 C 16.229999999999997 6.18, 16.305 6.105, 15.66 5.76 C 14.940000000000001 5.49, 14.895 5.324999999999999, 14.22 5.22 C 13.59 5.279999999999999, 13.575000000000001 5.115, 12.96 5.34 C 12.36 5.73, 12.24 5.55, 11.76 6.12 C 11.4 6.87, 11.355 6.525, 11.040000000000001 7.62 C 10.77 9.06, 10.635 9.254999999999999, 10.5 10.5 C 10.5 11.55, 10.5 11.160000000000002, 10.5 12.600000000000001 C 10.5 14.43, 10.425 14.294999999999998, 10.5 16.259999999999998 C 10.65 18.36, 10.65 18.84, 10.8 20.46 C 10.950000000000001 21.6, 10.950000000000003 21.660000000000004, 11.100000000000001 22.740000000000002 C 11.25 23.76, 11.28 24.135, 11.399999999999999 24.78 C 11.489999999999998 25.05, 11.535 25.185000000000002, 11.58 25.32 L 11.58 25.32" fill="none" stroke="black" stroke-width="5"></path><path d="M 11.16 17.82 C 12.06 17.82, 11.34 17.82, 12.96 17.82 C 15.3 17.82, 15.015 17.82, 17.64 17.82 C 20.55 17.82, 21.240000000000002 17.82, 23.46 17.82 C 24.990000000000002 17.82, 25.185000000000002 17.805, 26.52 17.82 C 27.659999999999997 17.85, 27.749999999999996 17.805, 28.799999999999997 17.88 C 29.759999999999998 18, 30.15 18.060000000000002, 30.72 18.12 C 30.9 18.12, 30.854999999999997 18.075000000000003, 31.08 18.12 L 31.619999999999997 18.299999999999997" fill="none" stroke="black" stroke-width="5"></path><path d="M 21.18 17.52 C 21.060000000000002 18.810000000000002, 21 18.3, 20.94 20.1 C 20.94 22.41, 20.94 21.945, 20.94 24.72 C 20.94 27.96, 20.94 28.575000000000003, 20.94 31.200000000000003 C 20.94 33.21, 20.94 32.894999999999996, 20.94 35.22 C 20.94 37.86, 20.985000000000003 38.25, 20.94 40.5 C 20.85 42.36, 20.805 43.11, 20.759999999999998 44.22 C 20.759999999999998 44.58, 20.759999999999998 44.76, 20.759999999999998 44.94 C 20.759999999999998 44.94, 20.759999999999998 44.91, 20.759999999999998 44.94 C 20.759999999999998 45, 20.759999999999998 45.03, 20.759999999999998 45.06 C 20.759999999999998 45.06, 20.759999999999998 45.06, 20.759999999999998 45.06 C 20.759999999999998 45.06, 20.759999999999998 45.06, 20.759999999999998 45.06 C 20.759999999999998 45.06, 20.759999999999998 45.06, 20.759999999999998 45.06 L 20.759999999999998 45.06" fill="none" stroke="black" stroke-width="5"></path></svg>