<svg xmlns="http://www.w3.org/2000/svg" viewBox="7.473333358764648 4.716105937957764 22.986665725708008 39.96389436721802" width="22.986665725708008" height="39.96389436721802"><path d="M 18.240000000000002 13.68 C 18.12 12.24, 18.21 11.985000000000001, 18 10.8 C 17.7 9.870000000000001, 17.895 9.93, 17.4 8.94 C 16.71 7.89, 16.605 7.5, 16.02 6.84 C 15.54 6.57, 15.629999999999999 6.555000000000001, 15.059999999999999 6.300000000000001 C 14.399999999999999 6.0600000000000005, 14.49 5.8950000000000005, 13.74 5.82 C 12.899999999999999 5.91, 12.989999999999998 5.43, 12.059999999999999 6 C 11.04 7.050000000000001, 10.815 6.900000000000001, 10.02 8.100000000000001 C 9.45 9.450000000000001, 9.254999999999999 9.285, 8.879999999999999 10.8 C 8.7 12.48, 8.61 11.940000000000001, 8.52 14.16 C 8.52 16.92, 8.415 17.43, 8.52 19.68 C 8.73 21.42, 8.639999999999999 21.3, 8.94 23.16 C 9.33 25.14, 9.435 25.874999999999996, 9.72 27.119999999999997 C 9.9 27.63, 9.99 27.884999999999998, 10.08 28.14 L 10.08 28.14" fill="none" stroke="black" stroke-width="5"></path><path d="M 8.76 19.86 C 9.120000000000001 19.8, 8.805 19.815, 9.48 19.740000000000002 C 10.469999999999999 19.65, 10.754999999999999 19.59, 11.459999999999999 19.56 C 11.879999999999999 19.59, 11.745 19.29, 12.299999999999999 19.62 C 12.989999999999998 20.25, 12.975 19.77, 13.68 20.88 C 14.4 22.47, 14.625 22.515, 15.120000000000001 24.06 C 15.39 25.56, 15.495000000000001 26.174999999999997, 15.66 27.06 C 15.719999999999999 27.33, 15.75 27.464999999999996, 15.78 27.599999999999998 C 15.78 27.599999999999998, 15.78 27.599999999999998, 15.78 27.599999999999998 C 15.78 27.599999999999998, 15.645 28.439999999999998, 15.78 27.599999999999998 C 16.05 25.92, 16.065 25.365000000000002, 16.32 24.240000000000002 C 16.56 23.67, 16.275 23.625, 16.799999999999997 23.1 C 17.61 22.62, 17.339999999999996 22.545, 18.419999999999998 22.14 C 19.77 21.810000000000002, 19.68 21.75, 21.12 21.48 C 22.65 21.27, 23.13 21.165, 24.18 21.06 C 24.75 21.06, 24.735 21.06, 25.32 21.06 C 25.92 21.06, 25.875 20.79, 26.52 21.06 C 27.21 21.6, 27.270000000000003 21.495, 27.900000000000002 22.14 C 28.47 22.89, 28.65 22.740000000000002, 29.04 23.64 C 29.25 24.69, 29.355 24.93, 29.46 25.740000000000002 C 29.46 26.310000000000002, 29.46 26.385000000000005, 29.46 26.880000000000003 C 29.46 27.3, 29.46 27.509999999999998, 29.46 27.72 C 29.46 27.72, 29.46 27.72, 29.46 27.72 L 29.46 27.72" fill="none" stroke="black" stroke-width="5"></path><path d="M 21.96 21 C 21.93 21.990000000000002, 21.96 21.585, 21.9 22.98 C 21.81 24.78, 21.99 24.764999999999997, 21.72 26.58 C 21.27 28.41, 21.285 28.71, 20.82 30.240000000000002 C 20.34 31.470000000000002, 20.91 30.750000000000004, 19.86 32.7 C 18.240000000000002 35.370000000000005, 17.865000000000002 36.195, 16.62 38.04 C 15.75 39.06, 15.809999999999999 39.074999999999996, 14.879999999999999 40.08 C 13.889999999999999 41.07, 13.679999999999998 41.295, 12.899999999999999 42.06 C 12.329999999999998 42.6, 12.239999999999998 42.735, 11.76 43.14 C 11.370000000000001 43.41, 11.175 43.545, 10.98 43.68 L 10.98 43.68" fill="none" stroke="black" stroke-width="5"></path><path d="M 14.580000000000002 39.12 C 14.850000000000001 39.209999999999994, 14.715 39.254999999999995, 15.120000000000001 39.3 C 15.660000000000002 39.3, 15.270000000000003 39.3, 16.200000000000003 39.3 C 17.520000000000003 39.3, 17.325000000000003 39.3, 18.84 39.3 C 20.549999999999997 39.3, 20.58 39.315, 22.259999999999998 39.3 C 23.909999999999997 39.269999999999996, 24.464999999999996 39.255, 25.56 39.24 C 26.1 39.24, 26.31 39.24, 26.64 39.24 L 26.880000000000003 39.24" fill="none" stroke="black" stroke-width="5"></path></svg>