<svg xmlns="http://www.w3.org/2000/svg" viewBox="11.819999694824219 3.260000228881836 22.18000030517578 42.55999946594238" width="22.18000030517578" height="42.55999946594238"><path d="M 14.34 4.26 C 14.34 5.04, 14.58 4.305, 14.34 5.82 C 13.86 8.07, 13.62 8.385000000000002, 13.379999999999999 10.32 C 13.379999999999999 11.94, 13.469999999999999 11.819999999999999, 13.379999999999999 13.559999999999999 C 13.2 15.42, 13.155 15.315000000000001, 13.02 17.28 C 12.93 19.35, 12.885 19.59, 12.84 21.419999999999998 C 12.84 23.009999999999998, 12.795 23.354999999999997, 12.84 24.599999999999998 C 12.93 25.5, 12.765 25.605, 13.02 26.400000000000002 C 13.44 27.090000000000003, 13.41 27.3, 13.86 27.78 C 14.34 28.05, 13.815000000000001 28.14, 14.82 28.32 C 16.35 28.41, 16.439999999999998 28.455, 17.88 28.5 C 19.23 28.5, 19.005000000000003 28.575, 20.580000000000002 28.5 C 22.380000000000003 28.35, 22.08 28.485000000000003, 24.18 28.200000000000003 C 26.58 27.78, 27.075000000000003 27.735, 28.98 27.36 C 30.39 27.03, 30.869999999999997 26.865000000000002, 31.799999999999997 26.700000000000003 C 32.25 26.700000000000003, 32.400000000000006 26.700000000000003, 32.7 26.700000000000003 C 32.85 26.700000000000003, 32.925 26.700000000000003, 33 26.700000000000003 L 33 26.700000000000003" fill="none" stroke="black" stroke-width="5"></path><path d="M 13.32 8.22 C 13.71 8.73, 13.680000000000001 8.58, 14.100000000000001 9.24 C 14.55 10.05, 13.995000000000001 9.434999999999999, 15 10.86 C 16.560000000000002 12.9, 16.815 13.305000000000001, 18.12 14.940000000000001 C 19.17 16.17, 19.349999999999998 16.424999999999997, 20.22 17.4 C 20.91 18.119999999999997, 21.045 18.36, 21.6 18.84 C 22.020000000000003 19.08, 22.110000000000003 19.11, 22.44 19.32 C 22.68 19.5, 22.634999999999998 19.485, 22.919999999999998 19.68 C 23.25 19.89, 23.235000000000003 19.995, 23.580000000000002 20.1 C 23.939999999999998 20.1, 23.654999999999998 20.490000000000002, 24.299999999999997 20.1 C 25.23 19.32, 25.215000000000003 19.59, 26.160000000000004 18.54 C 27.12 17.22, 26.985 17.985, 28.08 15.899999999999999 C 29.31 13.049999999999999, 29.744999999999997 12.059999999999999, 30.54 10.2 C 30.9 9.329999999999998, 31.08 8.895, 31.259999999999998 8.459999999999999 C 31.259999999999998 8.459999999999999, 31.259999999999998 8.459999999999999, 31.259999999999998 8.459999999999999 C 31.259999999999998 8.459999999999999, 31.259999999999998 8.459999999999999, 31.259999999999998 8.459999999999999 L 31.259999999999998 8.459999999999999" fill="none" stroke="black" stroke-width="5"></path><path d="M 25.44 34.74 C 25.08 34.47, 25.259999999999998 34.335, 24.72 34.2 C 24 34.2, 24.18 33.855000000000004, 23.28 34.2 C 22.200000000000003 34.89, 22.005000000000003 34.605000000000004, 21.12 35.58 C 20.43 36.839999999999996, 20.130000000000003 36.824999999999996, 19.740000000000002 38.099999999999994 C 19.65 39.39, 19.47 39.405, 19.56 40.68 C 19.83 41.94, 19.455000000000002 42.165000000000006, 20.1 43.2 C 21.12 44.010000000000005, 20.805 44.505, 22.14 44.82 C 23.79 44.64, 24.045 44.97, 25.44 44.46 C 26.58 43.620000000000005, 26.939999999999998 43.620000000000005, 27.72 42.78 C 28.14 41.94, 28.259999999999998 42.269999999999996, 28.56 41.099999999999994 C 28.740000000000002 39.599999999999994, 28.965 39.37499999999999, 28.92 38.099999999999994 C 28.650000000000002 37.05, 28.845000000000002 36.96, 28.380000000000003 36 C 27.72 35.129999999999995, 28.005 34.754999999999995, 27.06 34.26 C 25.83 34.14, 25.394999999999996 34.08, 24.599999999999998 34.019999999999996 C 24.24 34.019999999999996, 24.06 34.019999999999996, 23.88 34.019999999999996 L 23.88 34.019999999999996" fill="none" stroke="black" stroke-width="5"></path></svg>