<svg xmlns="http://www.w3.org/2000/svg" viewBox="11.479999542236328 5 21.979999542236328 40.34000015258789" width="21.979999542236328" height="40.34000015258789"><path d="M 12.48 6 C 12.870000000000001 6.18, 12.645 5.94, 13.26 6.36 C 14.100000000000001 7.02, 14.190000000000001 7.005, 14.940000000000001 7.68 C 15.6 8.370000000000001, 15.599999999999998 8.370000000000001, 16.259999999999998 9.06 C 16.92 9.75, 17.01 9.719999999999999, 17.580000000000002 10.44 C 18.060000000000002 11.19, 18.165 11.28, 18.54 11.94 C 18.810000000000002 12.510000000000002, 18.795 12.285000000000002, 19.080000000000002 13.080000000000002 C 19.380000000000003 14.100000000000001, 19.38 14.025000000000002, 19.68 15.120000000000001 C 19.98 16.29, 20.055 16.5, 20.28 17.46 C 20.43 18.21, 20.445 18.345000000000002, 20.580000000000002 18.96 C 20.700000000000003 19.439999999999998, 20.76 19.575, 20.82 19.919999999999998 C 20.82 20.13, 20.82 20.235, 20.82 20.34 C 20.82 20.34, 20.82 20.34, 20.82 20.34 C 20.82 20.34, 20.82 20.34, 20.82 20.34 C 20.82 20.34, 20.76 20.43, 20.82 20.34 C 20.939999999999998 20.16, 20.865 20.4, 21.06 19.98 C 21.33 19.32, 21.315 19.32, 21.6 18.66 C 21.900000000000002 18, 21.960000000000004 17.865000000000002, 22.200000000000003 17.34 C 22.380000000000003 16.95, 22.335 17.04, 22.56 16.56 C 22.83 15.989999999999998, 22.8 16.019999999999996, 23.1 15.419999999999998 C 23.43 14.79, 23.294999999999998 14.955, 23.759999999999998 14.16 C 24.36 13.2, 24.405 13.125, 24.96 12.24 C 25.47 11.43, 25.41 11.415000000000001, 25.98 10.620000000000001 C 26.61 9.84, 26.535000000000004 9.81, 27.240000000000002 9.06 C 28.02 8.34, 27.9 8.205, 28.799999999999997 7.62 C 29.819999999999997 7.17, 29.969999999999995 7.050000000000001, 30.839999999999996 6.720000000000001 C 31.56 6.510000000000001, 31.875 6.420000000000001, 32.28 6.300000000000001 C 32.370000000000005 6.2700000000000005, 32.415 6.255000000000001, 32.46 6.24 L 32.46 6.24" fill="none" stroke="black" stroke-width="5"></path><path d="M 20.88 19.44 C 20.82 19.5, 20.775 19.29, 20.759999999999998 19.56 C 20.79 20.04, 20.82 19.98, 20.82 20.52 C 20.79 21.119999999999997, 20.759999999999998 21.029999999999998, 20.759999999999998 21.72 C 20.79 22.5, 20.685000000000002 22.560000000000002, 20.82 23.28 C 21.06 23.939999999999998, 20.819999999999997 23.819999999999997, 21.299999999999997 24.599999999999998 C 22.02 25.5, 21.990000000000002 25.605, 22.740000000000002 26.400000000000002 C 23.52 27.090000000000003, 23.474999999999998 27.180000000000003, 24.299999999999997 27.78 C 25.169999999999998 28.29, 25.349999999999998 28.424999999999997, 26.04 28.799999999999997 C 26.549999999999997 29.04, 26.564999999999998 29.009999999999998, 27.06 29.28 C 27.54 29.580000000000002, 27.599999999999998 29.610000000000003, 28.02 29.880000000000003 C 28.380000000000003 30.12, 28.395000000000003 30.060000000000002, 28.740000000000002 30.36 C 29.07 30.72, 29.115000000000002 30.779999999999998, 29.400000000000002 31.08 C 29.64 31.32, 29.745000000000005 31.394999999999996, 29.880000000000003 31.56 C 29.910000000000004 31.65, 29.895000000000003 31.665000000000003, 29.94 31.740000000000002 C 30 31.8, 30.03 31.83, 30.06 31.86 C 30.06 31.86, 30.06 31.83, 30.06 31.86 C 30.06 31.92, 30.24 31.86, 30.06 31.98 C 29.699999999999996 32.16, 29.789999999999996 32.205, 29.339999999999996 32.339999999999996 C 28.799999999999997 32.42999999999999, 29.009999999999998 32.39999999999999, 28.259999999999998 32.519999999999996 C 27.299999999999997 32.67, 27.404999999999994 32.61, 26.339999999999996 32.82 C 25.169999999999998 33.09, 25.2 32.985, 24 33.36 C 22.77 33.84, 22.544999999999998 33.825, 21.54 34.32 C 20.759999999999998 34.83, 20.7 34.635, 19.98 35.339999999999996 C 19.32 36.239999999999995, 19.14 36.345, 18.66 37.14 C 18.36 37.83, 18.345 37.574999999999996, 18.06 38.519999999999996 C 17.79 39.72, 17.759999999999998 39.72, 17.52 40.92 C 17.310000000000002 42.120000000000005, 17.205000000000002 42.495000000000005, 17.1 43.32 C 17.1 43.769999999999996, 17.1 43.995, 17.1 44.22 C 17.1 44.22, 17.1 44.19, 17.1 44.22 L 17.1 44.339999999999996" fill="none" stroke="black" stroke-width="5"></path></svg>