<svg xmlns="http://www.w3.org/2000/svg" viewBox="12.800000190734863 1.8199999332427979 17.233332633972168 41.49999976158142" width="17.233332633972168" height="41.49999976158142"><path d="M 13.799999999999999 3.9000000000000004 C 13.829999999999998 4.77, 13.784999999999998 3.765, 13.86 5.64 C 13.98 8.52, 13.98 8.759999999999998, 14.100000000000001 11.399999999999999 C 14.22 13.8, 14.280000000000001 14.220000000000002, 14.34 16.200000000000003 C 14.34 17.76, 14.28 17.535, 14.34 19.32 C 14.46 21.33, 14.385000000000002 21.615000000000002, 14.580000000000002 23.34 C 14.850000000000001 24.78, 14.865000000000002 25.32, 15.120000000000001 26.22 C 15.360000000000001 26.58, 15.21 26.715000000000003, 15.600000000000001 26.94 C 16.14 27.03, 16.17 27.075, 16.68 27.119999999999997 C 17.16 27.119999999999997, 16.89 27.119999999999997, 17.64 27.119999999999997 C 18.66 27.119999999999997, 18.48 27.119999999999997, 19.68 27.119999999999997 C 21.060000000000002 27.119999999999997, 21.255000000000003 27.119999999999997, 22.44 27.119999999999997 C 23.43 27.119999999999997, 23.805 27.119999999999997, 24.42 27.119999999999997 C 24.660000000000004 27.119999999999997, 24.555000000000003 27.119999999999997, 24.900000000000002 27.119999999999997 C 25.35 27.119999999999997, 25.259999999999998 27.164999999999996, 25.799999999999997 27.119999999999997 C 26.43 27.03, 26.534999999999997 27.075000000000003, 27.06 26.94 C 27.48 26.759999999999998, 27.69 26.669999999999998, 27.900000000000002 26.58 C 27.900000000000002 26.58, 27.855000000000004 26.595, 27.900000000000002 26.58 C 27.990000000000002 26.549999999999997, 27.959999999999997 26.64, 28.08 26.52 C 28.23 26.31, 28.200000000000003 26.49, 28.380000000000003 26.099999999999998 C 28.59 25.53, 28.65 25.71, 28.799999999999997 24.96 C 28.89 24.03, 28.935 24.765, 28.98 23.1 C 28.98 20.7, 29.1 20.714999999999996, 28.98 18.299999999999997 C 28.740000000000002 15.87, 28.815 15.435, 28.5 13.440000000000001 C 28.11 11.88, 27.96 11.625, 27.72 10.32 C 27.63 9.27, 27.72 9.405000000000001, 27.54 8.22 C 27.27 6.9, 27.18 6.51, 27 5.58 C 26.91 5.04, 26.91 5.13, 26.82 4.5 C 26.73 3.7800000000000002, 26.685000000000002 3.42, 26.64 3.06 C 26.64 3.06, 26.655 3.12, 26.64 3.06 L 26.58 2.82" fill="none" stroke="black" stroke-width="5"></path><path d="M 13.86 8.399999999999999 C 14.52 9.12, 14.325 8.73, 15.18 9.84 C 16.23 11.34, 16.335 11.52, 17.28 12.84 C 18.12 13.98, 18.3 14.115000000000002, 18.96 15.120000000000001 C 19.439999999999998 15.99, 19.455 15.989999999999998, 19.919999999999998 16.86 C 20.369999999999997 17.73, 20.475 17.91, 20.82 18.6 C 21.06 19.11, 21.165 19.32, 21.299999999999997 19.62 C 21.33 19.71, 21.345 19.755, 21.36 19.799999999999997 C 21.36 19.799999999999997, 21.285 19.784999999999997, 21.36 19.799999999999997 C 21.509999999999998 19.83, 21.225 20.43, 21.66 19.86 C 22.380000000000003 18.689999999999998, 22.455000000000002 18.765, 23.1 17.52 C 23.67 16.2, 23.76 15.974999999999998, 24.240000000000002 14.879999999999999 C 24.630000000000003 14.01, 24.54 14.085, 25.02 13.14 C 25.590000000000003 12.120000000000001, 25.725000000000005 11.865000000000002, 26.160000000000004 11.100000000000001 C 26.46 10.59, 26.535 10.5, 26.759999999999998 10.08 C 26.909999999999997 9.75, 26.955 9.66, 27.06 9.42 C 27.119999999999997 9.27, 27.15 9.195, 27.18 9.120000000000001 C 27.18 9.120000000000001, 27.18 9.120000000000001, 27.18 9.120000000000001 L 27.18 9.120000000000001" fill="none" stroke="black" stroke-width="5"></path><path d="M 22.32 32.76 C 21.630000000000003 32.97, 21.435000000000002 32.805, 20.94 33.18 C 20.64 33.72, 20.445 33.765, 20.34 34.26 C 20.43 34.71, 20.235 34.875, 20.52 35.160000000000004 C 21 35.28, 21.12 35.46000000000001, 21.48 35.400000000000006 C 21.72 35.160000000000004, 21.795 35.44500000000001, 21.96 34.92 C 22.05 34.11, 22.26 33.87, 22.14 33.3 C 21.810000000000002 32.97, 22.08 32.67, 21.48 32.64 C 20.61 32.91, 20.28 32.67, 19.740000000000002 33.18 C 19.53 33.93, 19.125 34.05, 19.32 34.68 C 19.92 35.19, 19.95 35.550000000000004, 20.52 35.7 C 21.060000000000002 35.49, 21.270000000000003 35.58, 21.6 35.28 C 21.72 34.89, 21.78 34.769999999999996, 21.84 34.5 C 21.84 34.35, 21.915 34.275000000000006, 21.84 34.2 C 21.689999999999998 34.2, 21.615 34.2, 21.54 34.2 L 21.54 34.2" fill="none" stroke="black" stroke-width="5"></path><path d="M 15 42.3 C 15.39 42.3, 15.254999999999999 42.345, 15.78 42.3 C 16.44 42.209999999999994, 16.005000000000003 42.209999999999994, 17.1 42.12 C 18.630000000000003 42.03, 18.509999999999998 41.985, 20.16 41.94 C 21.93 41.94, 22.095000000000002 41.94, 23.700000000000003 41.94 C 25.14 41.94, 25.634999999999998 41.94, 26.58 41.94 C 27.03 41.94, 27.18 41.94, 27.48 41.94 L 27.78 41.94" fill="none" stroke="black" stroke-width="5"></path></svg>