<svg xmlns="http://www.w3.org/2000/svg" viewBox="11.550046920776367 2.5999999046325684 22.362585067749023 42.14000177383423" width="22.362585067749023" height="42.14000177383423"><path d="M 12.78 43.74 C 12.899999999999999 41.07000000000001, 12.959999999999999 41.730000000000004, 13.02 38.400000000000006 C 13.02 34.410000000000004, 13.08 33.6, 13.02 30.42 C 12.899999999999999 28.05, 12.84 27.495, 12.78 25.68 C 12.78 24.42, 12.825 23.985, 12.78 23.16 C 12.690000000000001 22.77, 12.645000000000001 22.905, 12.600000000000001 22.38 C 12.600000000000001 21.72, 12.600000000000001 21.615, 12.600000000000001 21.06 C 12.600000000000001 20.61, 12.585 20.46, 12.600000000000001 20.16 C 12.63 20.009999999999998, 12.435 20.235, 12.66 19.86 C 13.08 19.259999999999998, 12.945 19.02, 13.5 18.66 C 14.19 18.54, 13.349999999999998 18.645, 14.879999999999999 18.419999999999998 C 17.25 18.089999999999996, 17.52 17.97, 19.62 17.759999999999998 C 21.450000000000003 17.67, 21.825000000000003 17.625, 23.28 17.580000000000002 C 24.36 17.580000000000002, 24.315 17.580000000000002, 25.44 17.580000000000002 C 26.61 17.580000000000002, 26.895000000000003 17.580000000000002, 27.78 17.580000000000002 C 28.380000000000003 17.580000000000002, 28.605 17.580000000000002, 28.98 17.580000000000002 C 29.130000000000003 17.580000000000002, 29.07 17.490000000000002, 29.28 17.580000000000002 C 29.55 17.76, 29.475 17.400000000000002, 29.82 17.94 C 30.240000000000002 18.840000000000003, 30.255000000000003 18.330000000000002, 30.660000000000004 19.740000000000002 C 31.050000000000004 21.660000000000004, 31.035000000000004 21.075000000000003, 31.44 23.580000000000002 C 31.86 26.67, 31.965 27.299999999999997, 32.28 29.759999999999998 C 32.49 31.59, 32.550000000000004 31.68, 32.7 33.42 C 32.790000000000006 35.07, 32.88 35.325, 32.88 36.72 C 32.790000000000006 37.86, 33.105000000000004 37.92, 32.7 39 C 31.98 40.019999999999996, 31.86 40.335, 31.259999999999998 41.04 C 30.779999999999998 41.43, 30.705 41.55, 30.299999999999997 41.82 C 29.97 41.97, 30.045 42.045, 29.64 42.12 C 29.16 42.12, 29.055 42.209999999999994, 28.68 42.12 C 28.41 41.94, 28.44 42.074999999999996, 28.14 41.76 C 27.810000000000002 41.31, 27.810000000000002 41.699999999999996, 27.48 40.86 C 27.15 39.63, 27.165 40.050000000000004, 26.82 38.400000000000006 C 26.46 36.33, 26.43 36.045, 26.099999999999998 34.26 C 25.799999999999997 32.76, 25.695 32.265, 25.5 31.259999999999998 C 25.41 30.75, 25.365000000000002 30.645000000000003, 25.32 30.240000000000002 C 25.32 29.94, 25.32 29.79, 25.32 29.64 L 25.32 29.64" fill="none" stroke="black" stroke-width="5"></path><path d="M 15.899999999999999 3.5999999999999996 C 16.11 4.289999999999999, 15.705 3.104999999999999, 16.32 4.9799999999999995 C 17.34 8.040000000000001, 17.490000000000002 8.64, 18.36 11.100000000000001 C 19.08 12.96, 19.334999999999997 13.635000000000002, 19.799999999999997 14.82 C 20.009999999999998 15.33, 19.979999999999997 15.345, 20.22 15.84 C 20.49 16.32, 20.549999999999997 16.439999999999998, 20.759999999999998 16.799999999999997 C 20.909999999999997 17.04, 20.985 17.115000000000002, 21.06 17.28 C 21.06 17.37, 21.029999999999998 17.385, 21.06 17.46 C 21.119999999999997 17.520000000000003, 21.134999999999998 17.520000000000003, 21.18 17.580000000000002 C 21.21 17.64, 21.12 17.745000000000005, 21.240000000000002 17.700000000000003 C 21.450000000000003 17.55, 21.045 18.509999999999998, 21.66 17.4 C 22.68 15.329999999999998, 22.410000000000004 15.704999999999998, 23.700000000000003 13.26 C 25.26 10.44, 25.695 9.585, 26.82 7.62 C 27.51 6.51, 27.705000000000005 6.255000000000001, 28.200000000000003 5.4 C 28.5 4.8, 28.65 4.5, 28.799999999999997 4.199999999999999 C 28.799999999999997 4.199999999999999, 28.799999999999997 4.199999999999999, 28.799999999999997 4.199999999999999 L 28.799999999999997 4.199999999999999" fill="none" stroke="black" stroke-width="5"></path></svg>