<svg xmlns="http://www.w3.org/2000/svg" viewBox="11.84000015258789 1.940000057220459 18.260000228881836 42.9200005531311" width="18.260000228881836" height="42.9200005531311"><path d="M 15.48 2.94 C 15.629999999999999 3.1799999999999997, 15.705 2.76, 15.78 3.42 C 15.78 4.5, 15.959999999999999 3.9600000000000004, 15.78 5.58 C 15.419999999999998 7.739999999999999, 15.374999999999998 7.724999999999999, 15.059999999999999 9.899999999999999 C 14.79 12.09, 14.715 12.03, 14.52 14.28 C 14.399999999999999 16.59, 14.34 16.95, 14.28 18.9 C 14.28 20.490000000000002, 14.235 20.580000000000002, 14.28 22.080000000000002 C 14.370000000000001 23.490000000000002, 14.280000000000001 23.745, 14.46 24.900000000000002 C 14.73 25.800000000000004, 14.655000000000001 26.145000000000003, 15 26.700000000000003 C 15.42 26.91, 15.315 26.939999999999998, 15.84 27.119999999999997 C 16.47 27.27, 16.62 27.345, 17.1 27.42 C 17.43 27.42, 17.46 27.585, 17.759999999999998 27.42 C 18.029999999999998 27.09, 18.074999999999996 27.284999999999997, 18.299999999999997 26.759999999999998 C 18.479999999999997 26.04, 18.345 26.625, 18.66 25.32 C 19.11 23.43, 19.335 22.545, 19.56 21.54 C 19.56 21.419999999999998, 19.56 21.404999999999998, 19.56 21.299999999999997 C 19.56 21.21, 19.485 21.405, 19.56 21.12 C 19.71 20.64, 19.77 20.475, 19.86 20.16 C 19.89 20.009999999999998, 19.889999999999997 19.98, 19.919999999999998 19.86 C 19.95 19.77, 19.86 19.605, 19.98 19.68 C 20.189999999999998 19.92, 20.279999999999998 19.62, 20.4 20.16 C 20.43 21, 20.34 20.88, 20.46 21.84 C 20.67 22.92, 20.549999999999997 23.07, 20.88 24 C 21.33 24.78, 21.345 24.915, 21.78 25.56 C 22.200000000000003 26.07, 22.125 26.13, 22.62 26.58 C 23.189999999999998 26.97, 23.354999999999997 27.165, 23.759999999999998 27.36 C 24 27.36, 23.865000000000002 27.42, 24.240000000000002 27.36 C 24.75 27.24, 24.825 27.389999999999997, 25.259999999999998 27.119999999999997 C 25.619999999999997 26.7, 25.695 26.865000000000002, 25.98 26.28 C 26.19 25.53, 26.265 25.425, 26.400000000000002 24.78 C 26.46 24.240000000000002, 26.37 24.675000000000004, 26.52 23.700000000000003 C 26.759999999999998 22.29, 26.715 22.740000000000002, 27 20.88 C 27.330000000000002 18.57, 27.315000000000005 18.644999999999996, 27.660000000000004 16.259999999999998 C 28.020000000000003 13.799999999999999, 28.140000000000004 13.184999999999999, 28.380000000000003 11.34 C 28.5 10.11, 28.515 10.11, 28.619999999999997 8.879999999999999 C 28.709999999999997 7.6499999999999995, 28.739999999999995 7.335, 28.799999999999997 6.42 C 28.83 5.82, 28.83 5.79, 28.86 5.22 C 28.89 4.68, 28.905 4.56, 28.92 4.14 C 28.92 3.84, 28.92 3.69, 28.92 3.54 C 28.92 3.54, 28.92 3.54, 28.92 3.54 L 28.92 3.54" fill="none" stroke="black" stroke-width="5"></path><path d="M 15.120000000000001 6.42 C 15.57 6.42, 15.51 6.33, 16.02 6.42 C 16.59 6.6, 16.53 6.5249999999999995, 17.16 6.779999999999999 C 17.85 7.109999999999999, 17.91 7.02, 18.54 7.4399999999999995 C 19.11 7.949999999999999, 19.11 7.739999999999998, 19.68 8.459999999999999 C 20.25 9.39, 20.385 9.375, 20.82 10.32 C 21.119999999999997 11.280000000000001, 21.224999999999998 11.535, 21.419999999999998 12.24 C 21.509999999999998 12.690000000000001, 21.54 12.870000000000001, 21.6 13.14 C 21.630000000000003 13.23, 21.645 13.275, 21.66 13.32 C 21.66 13.32, 21.645 13.379999999999999, 21.66 13.32 C 21.689999999999998 13.200000000000001, 21.54 13.635000000000002, 21.72 13.080000000000002 C 22.049999999999997 12.090000000000002, 21.945 11.940000000000001, 22.38 11.100000000000001 C 22.92 10.41, 22.905 10.425, 23.46 9.72 C 24.03 9, 23.924999999999997 8.879999999999999, 24.599999999999998 8.28 C 25.380000000000003 7.8, 25.545 7.575, 26.160000000000004 7.32 C 26.61 7.29, 26.685 7.275, 27.06 7.26 C 27.36 7.26, 27.360000000000003 7.26, 27.660000000000004 7.26 C 27.96 7.26, 28.035 7.26, 28.259999999999998 7.26 C 28.409999999999997 7.26, 28.439999999999998 7.244999999999999, 28.56 7.26 C 28.65 7.29, 28.605000000000004 7.23, 28.740000000000002 7.32 C 28.92 7.470000000000001, 29.009999999999998 7.545, 29.099999999999998 7.62 L 29.099999999999998 7.62" fill="none" stroke="black" stroke-width="5"></path><path d="M 19.5 22.32 C 19.59 22.53, 19.575 22.515, 19.68 22.740000000000002 C 19.799999999999997 22.98, 19.784999999999997 22.86, 19.919999999999998 23.22 C 20.07 23.7, 20.099999999999998 23.625, 20.22 24.18 C 20.31 24.810000000000002, 20.31 24.810000000000002, 20.4 25.44 C 20.490000000000002 26.07, 20.535 26.115000000000002, 20.580000000000002 26.700000000000003 C 20.580000000000002 27.240000000000002, 20.580000000000002 26.985, 20.580000000000002 27.78 C 20.580000000000002 28.830000000000002, 20.595000000000002 28.89, 20.580000000000002 29.880000000000003 C 20.55 30.810000000000002, 20.535 30.96, 20.52 31.740000000000002 C 20.52 32.370000000000005, 20.595 32.445, 20.52 33 C 20.369999999999997 33.480000000000004, 20.415 33.36, 20.22 33.96 C 19.98 34.68000000000001, 20.01 34.71000000000001, 19.740000000000002 35.400000000000006 C 19.44 36.06, 19.455000000000002 36.015, 19.14 36.72 C 18.810000000000002 37.47, 18.795 37.575, 18.48 38.22 C 18.18 38.76, 18.375 38.61, 17.88 39.3 C 17.189999999999998 40.14, 17.1 40.30500000000001, 16.5 40.980000000000004 C 15.99 41.49, 16.095 41.475, 15.48 42 C 14.76 42.54, 14.565 42.72, 14.04 43.08 C 13.709999999999999 43.26, 13.589999999999998 43.31999999999999, 13.379999999999999 43.44 C 13.29 43.5, 13.335 43.455, 13.200000000000001 43.56 C 13.02 43.71, 12.93 43.785, 12.84 43.86 L 12.84 43.86" fill="none" stroke="black" stroke-width="5"></path><path d="M 20.580000000000002 34.08 C 20.580000000000002 34.56, 20.580000000000002 34.62, 20.580000000000002 35.04 C 20.580000000000002 35.4, 20.535000000000004 35.265, 20.580000000000002 35.76 C 20.67 36.39, 20.7 36.51, 20.759999999999998 37.019999999999996 C 20.79 37.41, 20.7 37.31999999999999, 20.82 37.8 C 21.03 38.37, 20.970000000000002 38.44499999999999, 21.240000000000002 38.94 C 21.57 39.36, 21.555 39.405, 21.9 39.78 C 22.259999999999998 40.11, 22.23 40.08, 22.62 40.44 C 23.04 40.83, 22.995 40.815, 23.46 41.22 C 23.97 41.64, 23.985 41.7, 24.48 42.06 C 24.96 42.36, 24.825000000000003 42.330000000000005, 25.44 42.660000000000004 C 26.19 43.02, 26.490000000000002 43.17, 26.94 43.38 C 27.090000000000003 43.44, 27.165000000000003 43.47, 27.240000000000002 43.5 C 27.240000000000002 43.5, 27.240000000000002 43.5, 27.240000000000002 43.5 L 27.240000000000002 43.5" fill="none" stroke="black" stroke-width="5"></path></svg>