<svg xmlns="http://www.w3.org/2000/svg" viewBox="9.242709159851074 9.84666633605957 25.837292671203613 34.05803680419922" width="25.837292671203613" height="34.05803680419922"><path d="M 17.700000000000003 31.92 C 18.03 32.58, 18.045 32.325, 18.36 33.24 C 18.66 34.41, 18.69 34.605, 18.96 35.58 C 19.200000000000003 36.36, 19.26 36.195, 19.44 37.14 C 19.560000000000002 38.25, 19.62 38.385, 19.68 39.36 C 19.68 40.2, 19.77 40.379999999999995, 19.68 41.04 C 19.5 41.519999999999996, 19.439999999999998 41.685, 19.32 42 C 19.26 42.15, 19.470000000000002 42.12, 19.200000000000003 42.3 C 18.720000000000002 42.51, 18.870000000000005 42.56999999999999, 18.240000000000002 42.72 C 17.46 42.81, 17.625 42.93000000000001, 16.68 42.900000000000006 C 15.57 42.75, 15.225000000000001 42.705, 14.46 42.599999999999994 C 14.040000000000001 42.54, 13.935 42.645, 13.620000000000001 42.480000000000004 C 13.41 42.21, 13.650000000000002 42.87, 13.200000000000001 41.94 C 12.510000000000002 40.349999999999994, 12.450000000000001 41.04, 11.82 38.76 C 11.25 35.79, 11.01 35.28, 10.68 32.82 C 10.59 30.87, 10.605 30.630000000000003, 10.5 28.92 C 10.379999999999999 27.450000000000003, 10.305 27.705000000000002, 10.26 25.98 C 10.29 24, 10.17 23.73, 10.32 22.02 C 10.59 20.58, 10.605 20.475, 10.86 19.14 C 11.1 17.91, 11.145 17.655, 11.34 16.68 C 11.49 15.96, 11.43 16.02, 11.64 15.24 C 11.91 14.399999999999999, 11.895 14.339999999999998, 12.18 13.559999999999999 C 12.48 12.84, 12.344999999999999 12.75, 12.78 12.120000000000001 C 13.349999999999998 11.580000000000002, 13.544999999999998 11.340000000000002, 13.919999999999998 11.040000000000001 C 14.099999999999998 10.98, 13.995 10.95, 14.28 10.92 C 14.669999999999998 10.92, 14.639999999999999 10.754999999999999, 15.059999999999999 10.92 C 15.51 11.25, 15.48 11.205, 15.96 11.58 C 16.47 12, 16.47 11.939999999999998, 16.98 12.419999999999998 C 17.490000000000002 12.959999999999999, 17.595 12.989999999999998, 18 13.5 C 18.3 13.98, 18.21 13.56, 18.6 14.46 C 19.08 15.780000000000001, 19.125 15.765000000000002, 19.56 17.1 C 19.95 18.45, 20.04 18.375, 20.34 19.799999999999997 C 20.549999999999997 21.299999999999997, 20.595 21.464999999999996, 20.759999999999998 22.799999999999997 C 20.88 23.97, 20.939999999999998 24.33, 21 25.14 C 21 25.59, 21 25.814999999999998, 21 26.04 C 21 26.04, 21 26.04, 21 26.04 C 21 26.04, 21 26.04, 21 26.04 C 21 26.04, 21 26.04, 21 26.04 C 21 26.04, 20.91 26.1, 21 26.04 C 21.18 25.919999999999998, 21.09 26.069999999999997, 21.36 25.799999999999997 C 21.72 25.38, 21.735 25.244999999999997, 22.080000000000002 24.96 C 22.410000000000004 24.810000000000002, 22.200000000000003 24.735000000000003, 22.740000000000002 24.660000000000004 C 23.490000000000002 24.660000000000004, 23.46 24.660000000000004, 24.240000000000002 24.660000000000004 C 25.05 24.660000000000004, 24.990000000000002 24.645000000000003, 25.86 24.660000000000004 C 26.79 24.69, 26.924999999999997 24.615000000000002, 27.72 24.72 C 28.38 24.9, 28.409999999999997 24.794999999999998, 29.04 25.08 C 29.64 25.47, 29.655 25.32, 30.240000000000002 25.86 C 30.810000000000002 26.55, 30.825000000000003 26.28, 31.380000000000003 27.240000000000002 C 31.92 28.470000000000002, 32.055 28.500000000000004, 32.46 29.700000000000003 C 32.730000000000004 30.87, 32.745 30.855, 33 32.04 C 33.24 33.239999999999995, 33.36 33.269999999999996, 33.480000000000004 34.44 C 33.480000000000004 35.58, 33.510000000000005 35.565, 33.480000000000004 36.72 C 33.42 37.89, 33.45 38.22, 33.36 39.06 C 33.239999999999995 39.57, 33.18 39.72, 33.12 40.08 C 33.12 40.29, 33.12 40.394999999999996, 33.12 40.5 C 33.12 40.5, 33.12 40.5, 33.12 40.5 L 33.12 40.5" fill="none" stroke="black" stroke-width="5"></path><path d="M 18.18 14.22 C 18.6 14.190000000000001, 18.36 14.085, 19.02 14.16 C 19.92 14.34, 19.905 14.28, 20.82 14.52 C 21.75 14.82, 21.810000000000002 14.7, 22.68 15.120000000000001 C 23.49 15.660000000000002, 23.624999999999996 15.585000000000003, 24.299999999999997 16.200000000000003 C 24.84 16.89, 24.825000000000003 16.695, 25.380000000000003 17.580000000000002 C 25.950000000000003 18.660000000000004, 26.13 18.885, 26.52 19.740000000000002 C 26.73 20.37, 26.82 20.655, 26.94 21 C 26.97 21.060000000000002, 26.985 21.09, 27 21.12 C 27 21.12, 26.939999999999998 21.165, 27 21.12 C 27.12 21.03, 26.85 21.57, 27.240000000000002 20.94 C 27.9 19.770000000000003, 27.869999999999997 19.605000000000004, 28.56 18.6 C 29.28 17.759999999999998, 29.31 17.58, 30 16.919999999999998 C 30.66 16.439999999999998, 30.375 16.455, 31.32 15.96 C 32.55 15.450000000000001, 33.09 15.195, 33.78 14.940000000000001 C 33.93 14.940000000000001, 34.004999999999995 14.940000000000001, 34.08 14.940000000000001 L 34.08 14.940000000000001" fill="none" stroke="black" stroke-width="5"></path></svg>