<svg xmlns="http://www.w3.org/2000/svg" viewBox="11.600000381469727 -0.2200000286102295 20.95654296875 46.58000063896179" width="20.95654296875" height="46.58000063896179"><path d="M 12.600000000000001 28.740000000000002 C 13.14 28.740000000000002, 12.3 28.800000000000004, 13.68 28.740000000000002 C 15.9 28.62, 15.72 28.665, 18.12 28.5 C 20.700000000000003 28.29, 21.285000000000004 28.185, 23.28 28.08 C 24.689999999999998 28.08, 24.705 28.154999999999998, 26.099999999999998 28.08 C 27.479999999999997 27.93, 27.869999999999997 27.915, 28.86 27.78 C 29.46 27.66, 29.595 27.645, 30.06 27.54 C 30.39 27.45, 30.509999999999998 27.42, 30.72 27.36 C 30.810000000000002 27.33, 30.795 27.374999999999996, 30.900000000000002 27.299999999999997 C 31.020000000000003 27.18, 30.990000000000002 27.689999999999998, 31.14 27.06 C 31.32 25.92, 31.425 26.43, 31.5 24.78 C 31.47 22.62, 31.68 22.650000000000002, 31.44 20.46 C 30.990000000000002 18.240000000000002, 30.9 17.97, 30.54 16.02 C 30.27 14.34, 30.3 14.7, 30 12.66 C 29.669999999999998 10.26, 29.609999999999996 9.915000000000001, 29.339999999999996 7.86 C 29.13 6.15, 29.115000000000002 6.1049999999999995, 28.92 4.4399999999999995 C 28.740000000000002 2.82, 28.68 2.115, 28.56 1.2000000000000002 C 28.5 0.9900000000000001, 28.47 0.885, 28.44 0.78 L 28.44 0.78" fill="none" stroke="black" stroke-width="5"></path><path d="M 14.16 5.9399999999999995 C 15.72 9.09, 15.930000000000001 9.75, 17.28 12.24 C 18.42 14.07, 18.615 14.564999999999998, 19.56 15.899999999999999 C 20.31 16.740000000000002, 20.505 16.950000000000003, 21.06 17.580000000000002 C 21.42 18, 21.6 18.21, 21.78 18.419999999999998 C 21.78 18.419999999999998, 21.75 18.389999999999997, 21.78 18.419999999999998 C 21.84 18.479999999999997, 21.869999999999997 18.509999999999998, 21.9 18.54 C 21.9 18.54, 21.779999999999998 18.57, 21.9 18.54 C 22.14 18.479999999999997, 21.599999999999998 19.724999999999998, 22.38 18.419999999999998 C 23.7 15.87, 23.73 15.915, 25.02 13.32 C 26.28 10.68, 26.685 9.915000000000001, 27.54 8.040000000000001 C 27.990000000000002 6.930000000000001, 28.080000000000002 6.705, 28.44 5.82 C 28.71 5.16, 28.845 4.83, 28.98 4.5 C 28.98 4.5, 28.98 4.5, 28.98 4.5 L 28.98 4.5" fill="none" stroke="black" stroke-width="5"></path><path d="M 22.62 29.160000000000004 C 22.62 30.36, 22.62 30.09, 22.62 31.56 C 22.62 33.3, 22.59 33.464999999999996, 22.62 35.04 C 22.68 36.45, 22.635 36.705, 22.740000000000002 37.86 C 22.89 38.760000000000005, 22.875 38.61, 23.04 39.660000000000004 C 23.22 40.86, 23.264999999999997 41.07000000000001, 23.4 42.06 C 23.490000000000002 42.84, 23.505000000000003 42.989999999999995, 23.580000000000002 43.62 C 23.64 44.099999999999994, 23.67 44.265, 23.700000000000003 44.58 C 23.700000000000003 44.730000000000004, 23.700000000000003 44.805, 23.700000000000003 44.88 C 23.700000000000003 44.88, 23.700000000000003 44.88, 23.700000000000003 44.88 C 23.700000000000003 44.88, 23.700000000000003 44.88, 23.700000000000003 44.88 C 23.700000000000003 44.88, 23.655000000000005 44.760000000000005, 23.700000000000003 44.88 C 23.79 45.120000000000005, 23.835 45.24, 23.88 45.36 C 23.88 45.36, 23.88 45.36, 23.88 45.36 C 23.88 45.36, 23.88 45.36, 23.88 45.36 C 23.88 45.36, 23.88 45.36, 23.88 45.36 L 23.88 45.36" fill="none" stroke="black" stroke-width="5"></path></svg>