<svg width="48" height="48" viewBox="0 0 48 48" xmlns="http://www.w3.org/2000/svg"><path d="M 13.02 42.480000000000004 C 12.6 41.25, 12.585 41.535, 12.18 40.019999999999996 C 11.79 38.22, 11.79 38.400000000000006, 11.399999999999999 36.42 C 11.01 34.26, 10.920000000000002 34.09499999999999, 10.620000000000001 32.099999999999994 C 10.41 30.269999999999996, 10.35 30.255000000000003, 10.2 28.44 C 10.11 26.64, 10.065 26.534999999999997, 10.02 24.839999999999996 C 10.02 23.25, 10.02 23.099999999999998, 10.02 21.66 C 10.02 20.37, 9.989999999999998 20.1, 10.02 19.080000000000002 C 10.08 18.330000000000002, 9.975000000000001 18.270000000000003, 10.14 17.580000000000002 C 10.41 16.950000000000003, 10.485 16.8, 10.68 16.32 C 10.8 15.99, 10.8 15.93, 10.92 15.66 C 11.04 15.45, 10.98 15.345, 11.16 15.24 C 11.4 15.24, 11.325000000000001 15.225000000000001, 11.64 15.24 C 12.03 15.27, 12.029999999999998 15.209999999999999, 12.419999999999998 15.299999999999999 C 12.809999999999999 15.45, 12.84 15.39, 13.200000000000001 15.600000000000001 C 13.530000000000001 15.870000000000001, 13.514999999999999 15.795000000000002, 13.86 16.14 C 14.22 16.560000000000002, 14.160000000000002 16.245, 14.580000000000002 16.98 C 15.06 18.03, 15.09 17.880000000000003, 15.54 19.080000000000002 C 15.959999999999999 20.43, 16.005 20.67, 16.38 21.78 C 16.71 22.65, 16.814999999999998 22.89, 17.04 23.52 C 17.16 23.909999999999997, 17.22 24.104999999999997, 17.28 24.299999999999997 C 17.28 24.299999999999997, 17.265 24.299999999999997, 17.28 24.299999999999997 C 17.310000000000002 24.299999999999997, 17.325 24.659999999999997, 17.34 24.299999999999997 C 17.34 23.58, 17.34 23.865, 17.34 22.86 C 17.34 21.57, 17.34 21.21, 17.34 20.28 C 17.34 19.71, 17.34 19.815, 17.34 19.14 C 17.34 18.36, 17.31 18.090000000000003, 17.34 17.580000000000002 C 17.4 17.340000000000003, 17.295 17.37, 17.46 17.1 C 17.73 16.8, 17.655 16.755, 18 16.5 C 18.42 16.29, 18.465 16.245, 18.84 16.080000000000002 C 19.17 15.96, 19.035 15.9, 19.5 15.84 C 20.1 15.84, 20.115000000000002 15.795, 20.700000000000003 15.84 C 21.270000000000003 15.93, 21.36 15.885, 21.84 16.02 C 22.23 16.2, 22.125 16.08, 22.62 16.38 C 23.22 16.799999999999997, 23.205000000000002 16.665, 23.82 17.22 C 24.45 17.91, 24.299999999999997 17.43, 25.08 18.6 C 26.009999999999998 20.25, 26.28 20.43, 26.94 21.9 C 27.33 23.189999999999998, 27.375 22.845, 27.72 24.48 C 28.02 26.46, 28.11 26.565, 28.32 28.44 C 28.439999999999998 30.21, 28.5 30.375, 28.56 31.98 C 28.56 33.42, 28.65 33.495, 28.56 34.86 C 28.380000000000003 36.15, 28.395000000000003 36.464999999999996, 28.200000000000003 37.44 C 27.990000000000002 38.099999999999994, 27.945 38.28, 27.78 38.76 C 27.66 39.06, 27.735 39.15, 27.54 39.36 C 27.27 39.48, 27.36 39.53999999999999, 27 39.599999999999994 C 26.549999999999997 39.599999999999994, 26.519999999999996 39.599999999999994, 26.099999999999998 39.599999999999994 C 25.71 39.599999999999994, 25.725 39.614999999999995, 25.32 39.599999999999994 C 24.9 39.56999999999999, 25.005000000000003 39.765, 24.48 39.54 C 23.85 39.120000000000005, 23.849999999999998 39.285000000000004, 23.22 38.7 C 22.59 37.95, 22.395 37.815000000000005, 21.96 37.2 C 21.72 36.72, 21.675 37.005, 21.48 36.24 C 21.33 35.19, 21.15 35.13, 21.18 34.14 C 21.39 33.21, 21.375 32.94, 21.6 32.28 C 21.840000000000003 31.89, 21.675000000000004 31.86, 22.080000000000002 31.5 C 22.65 31.169999999999998, 22.575 31.08, 23.22 30.839999999999996 C 23.94 30.689999999999998, 24.000000000000004 30.644999999999996, 24.660000000000004 30.54 C 25.26 30.48, 25.44 30.450000000000003, 25.86 30.42 C 26.099999999999998 30.42, 26.054999999999996 30.375000000000004, 26.339999999999996 30.42 C 26.669999999999998 30.509999999999998, 26.669999999999998 30.479999999999997, 27 30.599999999999998 C 27.330000000000002 30.75, 27.405000000000005 30.735000000000003, 27.660000000000004 30.900000000000002 C 27.840000000000003 31.08, 27.93 31.169999999999998, 28.02 31.259999999999998 C 28.02 31.259999999999998, 27.99 31.244999999999997, 28.02 31.259999999999998 C 28.08 31.29, 28.02 31.23, 28.14 31.32 L 28.5 31.619999999999997" fill="none" stroke="black" stroke-width="5"></path><path d="M 15.419999999999998 5.16 C 14.94 5.52, 14.745000000000001 5.46, 14.46 5.88 C 14.370000000000001 6.359999999999999, 14.325 6.3, 14.28 6.84 C 14.28 7.44, 13.995 7.380000000000001, 14.28 8.040000000000001 C 14.849999999999998 8.760000000000002, 14.924999999999999 9.030000000000001, 15.419999999999998 9.48 C 15.839999999999998 9.66, 15.974999999999998 9.735, 16.259999999999998 9.84 C 16.409999999999997 9.87, 16.32 10.049999999999999, 16.56 9.899999999999999 C 16.89 9.57, 17.04 9.78, 17.22 9.24 C 17.25 8.49, 17.265 8.265, 17.28 7.74 C 17.28 7.4399999999999995, 17.28 7.455, 17.28 7.14 C 17.28 6.8100000000000005, 17.415 6.855, 17.28 6.48 C 17.01 6.0600000000000005, 17.040000000000003 5.984999999999999, 16.740000000000002 5.64 C 16.410000000000004 5.369999999999999, 16.290000000000003 5.265, 16.080000000000002 5.1 C 15.99 5.039999999999999, 16.08 4.904999999999999, 15.899999999999999 4.9799999999999995 C 15.629999999999999 5.1899999999999995, 15.555 5.055, 15.36 5.4 C 15.24 5.880000000000001, 15.18 5.970000000000001, 15.120000000000001 6.36 C 15.120000000000001 6.66, 15.120000000000001 6.584999999999999, 15.120000000000001 6.959999999999999 C 15.120000000000001 7.41, 14.865000000000002 7.5, 15.120000000000001 7.86 C 15.63 8.129999999999999, 15.855 8.264999999999999, 16.14 8.399999999999999 C 16.2 8.399999999999999, 16.169999999999998 8.399999999999999, 16.259999999999998 8.399999999999999 C 16.38 8.399999999999999, 16.38 8.639999999999999, 16.5 8.399999999999999 C 16.62 7.919999999999999, 16.725 7.949999999999999, 16.740000000000002 7.4399999999999995 C 16.65 6.9, 16.634999999999998 6.675000000000001, 16.56 6.36 C 16.5 6.27, 16.485 6.24, 16.44 6.18 C 16.41 6.15, 16.485 6.15, 16.38 6.12 C 16.2 6.09, 16.125 5.970000000000001, 16.02 6.0600000000000005 C 15.99 6.2700000000000005, 15.975000000000001 6.105, 15.96 6.48 C 15.96 7.0200000000000005, 15.96 7.140000000000001, 15.96 7.5600000000000005 L 15.96 8.16" fill="none" stroke="black" stroke-width="5"></path></svg>