<svg width="48" height="48" viewBox="0 0 48 48" xmlns="http://www.w3.org/2000/svg"><path d="M 9.24 6.36 C 9 8.25, 8.925 8.13, 8.76 10.14 C 8.67 12.27, 8.7 12.314999999999998, 8.58 14.399999999999999 C 8.43 16.439999999999998, 8.385 16.395, 8.28 18.48 C 8.219999999999999 20.61, 8.219999999999999 20.895000000000003, 8.16 22.740000000000002 C 8.100000000000001 24.3, 8.085 24.21, 8.040000000000001 25.86 C 8.010000000000002 27.599999999999998, 7.995000000000001 27.629999999999995, 7.98 29.339999999999996 C 7.98 31.02, 8.025 31.17, 7.98 32.7 C 7.890000000000001 34.08, 7.845000000000001 34.35, 7.800000000000001 35.46 C 7.800000000000001 36.3, 7.710000000000001 36.225, 7.800000000000001 37.14 C 7.98 38.129999999999995, 7.9350000000000005 38.324999999999996, 8.16 39.12 C 8.43 39.72, 8.37 39.855, 8.7 40.32 C 9.09 40.650000000000006, 9.030000000000001 40.755, 9.48 40.980000000000004 C 9.99 41.1, 10.05 41.16, 10.5 41.22 C 10.89 41.22, 10.905 41.22, 11.28 41.22 C 11.64 41.22, 11.61 41.385, 12 41.22 C 12.42 40.89, 12.39 41.1, 12.84 40.56 C 13.32 39.81, 13.184999999999999 40.125, 13.799999999999999 39.06 C 14.549999999999999 37.68, 14.714999999999998 37.739999999999995, 15.299999999999999 36.3 C 15.719999999999999 34.8, 15.885 34.62, 16.14 33.3 C 16.23 32.16, 16.275 31.919999999999998, 16.32 31.02 C 16.32 30.36, 16.32 30.03, 16.32 29.700000000000003 C 16.32 29.700000000000003, 16.32 29.700000000000003, 16.32 29.700000000000003 C 16.32 29.700000000000003, 16.32 29.550000000000004, 16.32 29.700000000000003 C 16.32 30, 16.41 29.549999999999997, 16.32 30.299999999999997 C 16.14 31.5, 16.095000000000002 31.545, 15.96 32.7 C 15.870000000000001 33.81, 15.825 33.900000000000006, 15.78 34.92 C 15.78 35.85, 15.735 35.91, 15.78 36.78 C 15.870000000000001 37.59, 15.75 37.74000000000001, 15.96 38.400000000000006 C 16.29 38.910000000000004, 16.125 38.925000000000004, 16.62 39.42 C 17.28 39.900000000000006, 17.28 39.975, 17.94 40.38 C 18.6 40.71, 18.525 40.725, 19.259999999999998 41.04 C 20.07 41.34, 20.144999999999996 41.445, 20.88 41.64 C 21.54 41.730000000000004, 21.315 41.775, 22.200000000000003 41.82 C 23.310000000000002 41.82, 23.43 41.85, 24.42 41.82 C 25.290000000000003 41.760000000000005, 25.500000000000004 41.745000000000005, 26.160000000000004 41.7 C 26.61 41.67, 26.685 41.655, 27.06 41.64 C 27.36 41.64, 27.51 41.64, 27.660000000000004 41.64 L 27.660000000000004 41.64" fill="none" stroke="black" stroke-width="5"></path><path d="M 16.740000000000002 13.620000000000001 C 16.470000000000002 13.74, 16.380000000000003 13.545, 16.200000000000003 13.86 C 16.11 14.37, 15.9 14.52, 16.02 14.879999999999999 C 16.35 15.09, 16.439999999999998 15.18, 16.68 15.299999999999999 C 16.83 15.329999999999998, 16.71 15.54, 16.98 15.36 C 17.369999999999997 14.97, 17.519999999999996 14.895000000000001, 17.759999999999998 14.580000000000002 C 17.85 14.340000000000002, 17.985 14.355000000000002, 17.94 14.100000000000001 C 17.76 13.83, 17.955000000000002 13.754999999999999, 17.580000000000002 13.559999999999999 C 17.01 13.44, 17.130000000000003 13.094999999999999, 16.44 13.32 C 15.63 13.89, 15.285 13.815000000000001, 14.82 14.46 C 14.700000000000001 15.18, 14.385000000000002 15.315, 14.580000000000002 15.899999999999999 C 15.090000000000002 16.349999999999998, 15.045000000000002 16.904999999999998, 15.600000000000001 16.799999999999997 C 16.2 16.14, 16.439999999999998 15.99, 16.799999999999997 15.48 C 16.919999999999998 15.120000000000001, 16.979999999999997 14.985, 17.04 14.76 C 17.04 14.670000000000002, 17.205 14.415000000000003, 17.04 14.580000000000002 C 16.71 15, 16.544999999999998 14.985, 16.38 15.419999999999998 C 16.38 15.87, 16.215 15.989999999999998, 16.38 16.32 C 16.71 16.53, 16.665 17.1, 17.04 16.740000000000002 C 17.46 15.81, 17.714999999999996 15.6, 17.88 14.879999999999999 C 17.79 14.37, 18.12 14.129999999999999, 17.700000000000003 13.86 C 16.950000000000003 13.829999999999998, 16.740000000000002 13.41, 16.200000000000003 13.799999999999999 C 15.870000000000001 14.61, 15.705 14.609999999999998, 15.54 15.419999999999998 C 15.54 16.229999999999997, 15.329999999999998 16.439999999999998, 15.54 17.04 C 15.959999999999999 17.43, 15.854999999999999 17.985, 16.38 17.82 C 17.009999999999998 17.1, 17.25 17.235, 17.64 16.38 C 17.79 15.389999999999999, 18.3 14.909999999999998, 17.94 14.399999999999999 C 17.07 14.37, 16.680000000000003 14.16, 16.200000000000003 14.34 C 16.11 14.73, 16.065 14.88, 16.02 15.120000000000001 L 16.02 15.299999999999999" fill="none" stroke="black" stroke-width="5"></path></svg>