<svg width="48" height="48" viewBox="0 0 48 48" xmlns="http://www.w3.org/2000/svg"><path d="M 16.44 13.02 C 16.740000000000002 13.08, 16.425 13.11, 17.04 13.14 C 17.97 13.14, 17.729999999999997 13.14, 18.9 13.14 C 20.31 13.14, 20.715 13.14, 21.72 13.14 C 22.32 13.14, 22.259999999999998 13.14, 22.919999999999998 13.14 C 23.64 13.14, 23.685 13.14, 24.36 13.14 C 24.99 13.14, 24.989999999999995 13.05, 25.619999999999997 13.14 C 26.25 13.32, 26.415000000000003 13.41, 26.880000000000003 13.5 C 27.18 13.5, 27.195 13.425, 27.48 13.5 C 27.75 13.649999999999999, 27.765 13.514999999999999, 28.02 13.799999999999999 C 28.259999999999998 14.219999999999999, 28.259999999999998 13.98, 28.5 14.64 C 28.740000000000002 15.540000000000001, 28.770000000000003 15.435000000000002, 28.98 16.44 C 29.159999999999997 17.55, 29.174999999999997 17.580000000000002, 29.339999999999996 18.66 C 29.49 19.71, 29.52 19.604999999999997, 29.64 20.759999999999998 C 29.73 22.02, 29.73 21.93, 29.82 23.28 C 29.91 24.720000000000002, 29.955 24.315000000000005, 30 26.160000000000004 C 30 28.410000000000004, 30 28.620000000000005, 30 30.660000000000004 C 30 32.49, 30 32.865, 30 34.32 C 30 35.400000000000006, 30.015 35.265, 30 36.480000000000004 C 29.97 37.83, 30 38.115, 29.94 39.18 C 29.85 39.96, 29.834999999999997 40.11, 29.759999999999998 40.74 C 29.7 41.22, 29.67 41.46, 29.64 41.7 L 29.64 41.7" fill="none" stroke="black" stroke-width="5"></path><path d="M 21.6 4.199999999999999 C 21.42 4.709999999999999, 21.285000000000004 4.754999999999999, 21.240000000000002 5.22 C 21.33 5.640000000000001, 21.209999999999997 5.745, 21.419999999999998 6.0600000000000005 C 21.75 6.2700000000000005, 21.615000000000002 6.750000000000001, 22.080000000000002 6.48 C 22.68 5.73, 22.905 5.64, 23.28 4.9799999999999995 C 23.43 4.41, 23.67 4.2299999999999995, 23.580000000000002 3.84 C 23.25 3.63, 23.4 3.2399999999999998, 22.919999999999998 3.42 C 22.29 3.99, 22.035 3.9900000000000007, 21.66 4.5600000000000005 C 21.54 5.13, 21.479999999999997 5.055, 21.419999999999998 5.699999999999999 C 21.419999999999998 6.42, 21.165 6.404999999999999, 21.419999999999998 7.14 C 21.93 7.890000000000001, 21.96 8.52, 22.44 8.64 C 22.89 8.13, 23.1 8.505, 23.34 7.62 C 23.369999999999997 6.359999999999999, 23.43 5.955, 23.4 5.1 C 23.31 4.6499999999999995, 23.325 4.4399999999999995, 23.22 4.199999999999999 C 23.1 4.17, 23.22 3.8399999999999994, 22.98 4.14 C 22.619999999999997 4.77, 22.485 4.92, 22.259999999999998 5.4 C 22.17 5.73, 22.125 5.82, 22.080000000000002 6.0600000000000005 L 22.080000000000002 6.36" fill="none" stroke="black" stroke-width="5"></path><path d="M 22.5 24.96 C 21.75 24.96, 21.509999999999998 24.6, 21 24.96 C 20.73 25.68, 20.505000000000003 25.800000000000004, 20.46 26.400000000000002 C 20.64 26.880000000000003, 20.415 27.105, 20.82 27.36 C 21.450000000000003 27.39, 21.6 27.615000000000002, 22.080000000000002 27.42 C 22.410000000000004 27, 22.590000000000003 27.18, 22.740000000000002 26.58 C 22.71 25.799999999999997, 22.86 25.455, 22.68 25.02 C 22.35 24.93, 22.47 24.569999999999997, 22.02 24.839999999999996 C 21.45 25.47, 21.165 25.544999999999998, 20.88 26.099999999999998 C 20.88 26.58, 20.79 26.669999999999998, 20.88 27.06 C 21.060000000000002 27.36, 20.955000000000002 27.690000000000005, 21.240000000000002 27.660000000000004 C 21.630000000000003 27.300000000000004, 21.84 27.480000000000004, 22.02 26.94 C 21.990000000000002 26.22, 22.05 25.875, 21.96 25.5 C 21.810000000000002 25.47, 21.795 25.17, 21.66 25.44 C 21.54 26.009999999999998, 21.479999999999997 26.264999999999997, 21.419999999999998 26.58 L 21.419999999999998 26.700000000000003" fill="none" stroke="black" stroke-width="5"></path><path d="M 16.44 32.94 C 16.92 33.06, 16.619999999999997 33.12, 17.4 33.18 C 18.479999999999997 33.18, 18.06 33.135, 19.56 33.18 C 21.479999999999997 33.269999999999996, 21.99 33.315, 23.4 33.36 C 24.3 33.36, 24.720000000000002 33.345, 25.200000000000003 33.36 C 25.26 33.39, 25.29 33.405, 25.32 33.42 L 25.32 33.42" fill="none" stroke="black" stroke-width="5"></path></svg>