<svg width="48" height="48" viewBox="0 0 48 48" xmlns="http://www.w3.org/2000/svg"><path d="M 13.86 6.6000000000000005 C 13.86 7.200000000000001, 13.86 6.615000000000001, 13.86 7.800000000000001 C 13.86 9.57, 13.86 9.795, 13.86 11.34 C 13.86 12.66, 13.829999999999998 12.765, 13.86 13.98 C 13.92 15.090000000000002, 13.845 15.195000000000004, 13.98 16.200000000000003 C 14.19 17.1, 14.174999999999999 17.415, 14.399999999999999 18 C 14.639999999999999 18.27, 14.294999999999998 18.299999999999997, 14.879999999999999 18.54 C 15.81 18.75, 15.750000000000002 18.75, 16.740000000000002 18.96 C 17.79 19.17, 17.505 19.155, 18.84 19.38 C 20.46 19.619999999999997, 20.37 19.74, 22.080000000000002 19.86 C 23.880000000000003 19.86, 24.39 19.845, 25.68 19.86 C 26.46 19.89, 26.61 19.889999999999997, 27.240000000000002 19.919999999999998 C 27.720000000000002 19.95, 27.765000000000004 19.965, 28.200000000000003 19.98 C 28.590000000000003 19.98, 28.47 20.1, 28.98 19.98 C 29.61 19.740000000000002, 29.790000000000003 19.725, 30.240000000000002 19.5 C 30.51 19.29, 30.57 19.26, 30.78 19.080000000000002 C 30.93 18.93, 30.81 19.200000000000003, 31.08 18.78 C 31.47 18.09, 31.665 18.645, 31.86 17.4 C 31.86 15.599999999999998, 31.965 15.599999999999998, 31.86 13.799999999999999 C 31.65 12, 31.650000000000002 11.489999999999998, 31.44 10.2 C 31.23 9.42, 31.23 9.36, 31.02 8.64 C 30.81 7.98, 30.764999999999997 7.905, 30.599999999999998 7.32 C 30.479999999999997 6.8100000000000005, 30.45 6.630000000000001, 30.36 6.300000000000001 C 30.3 6.15, 30.285000000000004 6.12, 30.240000000000002 6 L 30.18 5.82" fill="none" stroke="black" stroke-width="5"></path><path d="M 22.38 9.66 C 21.810000000000002 10.350000000000001, 21.525000000000002 10.350000000000001, 21.240000000000002 11.040000000000001 C 21.240000000000002 11.73, 20.985000000000003 11.744999999999997, 21.240000000000002 12.419999999999998 C 21.75 13.079999999999998, 21.705 13.395, 22.259999999999998 13.74 C 22.86 13.77, 23.055 13.995, 23.46 13.799999999999999 C 23.67 13.379999999999999, 23.775 13.530000000000001, 23.88 12.96 C 23.88 12.24, 23.955 12.24, 23.88 11.52 C 23.73 10.8, 23.805 10.545, 23.580000000000002 10.08 C 23.28 9.870000000000001, 23.355 9.45, 22.98 9.66 C 22.53 10.29, 22.32 10.44, 22.080000000000002 10.92 C 22.05 11.25, 21.945 11.25, 22.02 11.58 C 22.2 11.91, 22.259999999999998 12.030000000000001, 22.38 12.24 C 22.439999999999998 12.329999999999998, 22.47 12.374999999999998, 22.5 12.419999999999998 L 22.5 12.419999999999998" fill="none" stroke="black" stroke-width="5"></path><path d="M 24.54 25.14 C 23.82 25.35, 24.150000000000002 24.915, 23.1 25.56 C 21.72 26.64, 21.36 26.52, 20.34 27.72 C 19.68 29.04, 19.485 29.1, 19.02 30.36 C 18.75 31.56, 18.585 31.724999999999998, 18.48 32.76 C 18.54 33.629999999999995, 18.150000000000002 33.57, 18.6 34.5 C 19.44 35.49, 19.455000000000002 35.760000000000005, 20.28 36.480000000000004 C 21.09 36.93000000000001, 20.895 37.080000000000005, 21.9 37.38 C 23.099999999999998 37.53, 23.294999999999995 37.86, 24.299999999999997 37.68 C 25.11 37.17, 25.29 37.17, 25.92 36.660000000000004 C 26.37 36.150000000000006, 26.400000000000002 36.255, 26.82 35.64 C 27.21 34.92, 27.389999999999997 35.040000000000006, 27.599999999999998 34.2 C 27.630000000000003 33.24, 27.720000000000002 33.42, 27.660000000000004 32.28 C 27.51 30.96, 27.630000000000003 30.645000000000003, 27.36 29.64 C 26.97 28.95, 27.119999999999997 28.994999999999997, 26.58 28.259999999999998 C 25.89 27.48, 25.785000000000004 27.255000000000003, 25.200000000000003 26.700000000000003 C 24.720000000000002 26.37, 24.525000000000002 26.22, 24.240000000000002 26.04 C 24.15 26.009999999999998, 24.134999999999998 25.995, 24.06 25.98 L 23.94 25.98" fill="none" stroke="black" stroke-width="5"></path></svg>