<svg width="48" height="48" viewBox="0 0 48 48" xmlns="http://www.w3.org/2000/svg"><path d="M 12.059999999999999 42.42 C 11.79 40.56, 11.834999999999999 40.410000000000004, 11.52 38.7 C 11.16 37.14, 11.07 37.05, 10.8 35.58 C 10.620000000000001 34.2, 10.575 33.93, 10.44 32.82 C 10.35 31.98, 10.379999999999999 31.995, 10.26 31.14 C 10.11 30.270000000000003, 10.049999999999999 30.360000000000003, 9.959999999999999 29.400000000000002 C 9.93 28.35, 9.915 28.394999999999996, 9.899999999999999 27.299999999999997 C 9.899999999999999 26.159999999999997, 9.899999999999999 25.994999999999997, 9.899999999999999 25.02 C 9.899999999999999 24.21, 9.899999999999999 24.224999999999998, 9.899999999999999 23.4 C 9.899999999999999 22.56, 9.899999999999999 22.439999999999998, 9.899999999999999 21.72 C 9.899999999999999 21.119999999999997, 9.779999999999998 21.06, 9.899999999999999 20.52 C 10.139999999999999 20.04, 10.034999999999998 20.009999999999998, 10.379999999999999 19.56 C 10.829999999999998 19.14, 10.815 19.125, 11.28 18.72 C 11.76 18.33, 11.76 18.21, 12.24 17.94 C 12.72 17.79, 12.510000000000002 17.805, 13.200000000000001 17.64 C 14.100000000000001 17.46, 13.8 17.475, 15 17.28 C 16.5 17.07, 16.71 16.965, 18 16.86 C 19.08 16.86, 18.884999999999998 16.86, 20.16 16.86 C 21.630000000000003 16.86, 21.630000000000003 16.845, 23.1 16.86 C 24.57 16.89, 24.990000000000002 16.904999999999998, 26.04 16.919999999999998 C 26.669999999999998 16.919999999999998, 26.955 16.919999999999998, 27.299999999999997 16.919999999999998 C 27.36 16.919999999999998, 27.39 16.919999999999998, 27.42 16.919999999999998 L 27.42 16.919999999999998" fill="none" stroke="black" stroke-width="5"></path><path d="M 16.98 5.9399999999999995 C 16.619999999999997 6.569999999999999, 16.514999999999997 6.434999999999999, 16.259999999999998 7.199999999999999 C 16.11 8.1, 15.72 8.445, 15.96 9 C 16.59 9.21, 16.71 9.36, 17.22 9.42 C 17.61 9.33, 17.7 9.48, 18 9.24 C 18.21 8.85, 18.36 8.864999999999998, 18.419999999999998 8.459999999999999 C 18.33 8.04, 18.48 7.98, 18.240000000000002 7.62 C 17.85 7.32, 17.895000000000003 7.2299999999999995, 17.46 7.02 C 16.98 6.8999999999999995, 16.92 6.659999999999999, 16.5 6.779999999999999 C 16.14 7.14, 16.005 7.005, 15.78 7.5 C 15.690000000000001 8.129999999999999, 15.315000000000001 8.28, 15.600000000000001 8.76 C 16.259999999999998 9.09, 16.244999999999997 9.254999999999999, 16.919999999999998 9.42 C 17.61 9.42, 17.819999999999997 9.585, 18.299999999999997 9.42 C 18.57 9.09, 18.705 9.405, 18.84 8.76 C 18.84 7.8, 19.005 7.47, 18.84 6.84 C 18.509999999999998 6.54, 18.645 6.345000000000001, 18.18 6.24 C 17.58 6.33, 17.52 6, 16.98 6.42 C 16.5 7.17, 16.244999999999997 7.395, 16.02 7.92 C 16.05 8.219999999999999, 15.915000000000003 8.28, 16.080000000000002 8.52 C 16.380000000000003 8.7, 16.305 8.924999999999999, 16.68 8.879999999999999 C 17.130000000000003 8.61, 17.340000000000003 8.745, 17.580000000000002 8.34 C 17.61 7.8, 17.625 7.529999999999999, 17.64 7.26 C 17.64 7.26, 17.64 7.26, 17.64 7.26 C 17.64 7.26, 17.64 7.26, 17.64 7.26 L 17.64 7.26" fill="none" stroke="black" stroke-width="5"></path><path d="M 20.16 23.64 C 19.71 23.79, 19.964999999999996 23.400000000000002, 19.259999999999998 23.94 C 18.299999999999997 24.869999999999997, 17.939999999999998 24.825, 17.34 25.799999999999997 C 17.1 26.819999999999997, 16.98 26.969999999999995, 16.86 27.839999999999996 C 16.86 28.56, 16.665 28.38, 16.86 29.28 C 17.25 30.36, 17.07 30.57, 17.64 31.44 C 18.39 32.1, 18.195 32.25, 19.14 32.76 C 20.28 33.120000000000005, 20.415 33.300000000000004, 21.419999999999998 33.480000000000004 C 22.29 33.480000000000004, 22.169999999999998 33.720000000000006, 23.16 33.480000000000004 C 24.270000000000003 33, 24.630000000000003 33.209999999999994, 25.380000000000003 32.519999999999996 C 25.770000000000003 31.619999999999997, 26.040000000000006 31.769999999999996, 26.160000000000004 30.72 C 26.01 29.52, 26.085 29.28, 25.86 28.32 C 25.56 27.6, 25.665 27.525000000000002, 25.259999999999998 26.880000000000003 C 24.75 26.310000000000002, 24.75 26.265, 24.240000000000002 25.740000000000002 C 23.73 25.26, 23.759999999999998 25.185000000000002, 23.22 24.78 C 22.65 24.45, 22.635 24.36, 22.080000000000002 24.119999999999997 C 21.54 23.97, 21.51 23.939999999999998, 21 23.82 C 20.52 23.73, 20.52 23.655, 20.04 23.64 L 19.080000000000002 23.759999999999998" fill="none" stroke="black" stroke-width="5"></path><path d="M 18.48 29.759999999999998 C 20.16 29.49, 20.52 29.43, 21.84 29.22 C 22.799999999999997 29.07, 23.04 29.01, 23.759999999999998 28.92 C 24.24 28.89, 24.479999999999997 28.875, 24.72 28.86 C 24.72 28.86, 24.689999999999998 28.86, 24.72 28.86 C 24.779999999999998 28.86, 24.689999999999998 28.86, 24.839999999999996 28.86 C 25.08 28.86, 25.169999999999998 28.86, 25.32 28.86 C 25.380000000000003 28.86, 25.41 28.86, 25.44 28.86 L 25.44 28.86" fill="none" stroke="black" stroke-width="5"></path></svg>