<svg width="48" height="48" viewBox="0 0 48 48" xmlns="http://www.w3.org/2000/svg"><path d="M 13.559999999999999 23.64 C 12.989999999999998 22.05, 12.839999999999998 21.78, 12.419999999999998 20.46 C 12.149999999999999 19.41, 12.12 19.23, 11.879999999999999 18.36 C 11.669999999999998 17.67, 11.594999999999999 17.55, 11.459999999999999 16.98 C 11.399999999999999 16.53, 11.235 16.590000000000003, 11.34 16.080000000000002 C 11.61 15.510000000000002, 11.325 15.585, 11.879999999999999 14.940000000000001 C 12.719999999999999 14.22, 12.825 13.95, 13.559999999999999 13.5 C 14.19 13.32, 14.145 13.290000000000001, 14.82 13.14 C 15.54 13.02, 15.075 12.959999999999999, 16.259999999999998 12.899999999999999 C 17.909999999999997 12.899999999999999, 17.534999999999997 12.839999999999998, 19.56 12.899999999999999 C 21.96 13.02, 22.605 13.08, 24.36 13.14 C 25.47 13.14, 25.515 13.095, 26.58 13.14 C 27.599999999999998 13.23, 27.659999999999997 13.23, 28.619999999999997 13.32 C 29.52 13.41, 29.580000000000002 13.455, 30.42 13.5 C 31.200000000000003 13.5, 31.44 13.5, 31.98 13.5 C 32.28 13.5, 32.309999999999995 13.5, 32.58 13.5 C 32.82 13.5, 32.94 13.5, 33.06 13.5 L 33.06 13.5" fill="none" stroke="black" stroke-width="5"></path><path d="M 22.38 5.04 C 21.93 5.3100000000000005, 21.765 5.22, 21.48 5.58 C 21.36 6.03, 21.180000000000003 6.120000000000001, 21.240000000000002 6.48 C 21.48 6.75, 21.435 6.885, 21.72 7.02 C 22.049999999999997 7.02, 22.095 7.215, 22.38 7.02 C 22.619999999999997 6.63, 22.74 6.525, 22.86 6.24 C 22.86 6.0600000000000005, 23.085 5.97, 22.86 5.88 C 22.41 5.88, 22.53 5.745, 21.96 5.88 C 21.270000000000003 6.15, 20.955000000000002 6.075, 20.580000000000002 6.42 C 20.520000000000003 6.84, 20.25 6.945, 20.46 7.26 C 20.939999999999998 7.47, 20.775 7.755, 21.419999999999998 7.68 C 22.229999999999997 7.319999999999999, 22.575 7.454999999999999, 23.04 6.959999999999999 C 23.16 6.329999999999999, 23.46 6.179999999999999, 23.28 5.699999999999999 C 22.8 5.369999999999999, 22.725 5.279999999999999, 22.32 5.04 C 21.990000000000002 4.890000000000001, 22.26 4.65, 21.66 4.74 C 20.79 5.07, 20.49 4.9350000000000005, 19.919999999999998 5.4 C 19.65 6, 19.424999999999997 5.985, 19.38 6.6000000000000005 C 19.560000000000002 7.23, 19.380000000000003 7.44, 19.740000000000002 7.86 C 20.28 8.07, 20.385 8.174999999999999, 20.82 8.28 C 21.15 8.28, 21.315 8.28, 21.48 8.28 L 21.48 8.28" fill="none" stroke="black" stroke-width="5"></path><path d="M 21.18 13.26 C 21.18 13.59, 21.18 13.364999999999998, 21.18 13.919999999999998 C 21.18 14.7, 21.075 14.565, 21.18 15.48 C 21.39 16.53, 21.270000000000003 16.605000000000004, 21.6 17.580000000000002 C 22.05 18.48, 22.035 18.555, 22.5 19.38 C 22.98 20.13, 22.875 20.16, 23.46 20.88 C 24.15 21.57, 24.134999999999998 21.644999999999996, 24.839999999999996 22.259999999999998 C 25.56 22.799999999999997, 25.5 22.875, 26.28 23.34 C 27.12 23.729999999999997, 27.255000000000003 23.834999999999997, 27.96 24.119999999999997 C 28.53 24.299999999999997, 28.455 24.36, 29.099999999999998 24.48 C 29.82 24.54, 29.939999999999998 24.509999999999998, 30.54 24.599999999999998 C 31.02 24.72, 31.185000000000002 24.749999999999996, 31.5 24.839999999999996 C 31.65 24.9, 31.634999999999998 24.884999999999998, 31.799999999999997 24.96 C 31.98 25.05, 32.025000000000006 25.08, 32.160000000000004 25.14 C 32.25 25.17, 32.295 25.185000000000002, 32.339999999999996 25.200000000000003 C 32.339999999999996 25.200000000000003, 32.309999999999995 25.185000000000002, 32.339999999999996 25.200000000000003 C 32.4 25.23, 32.385 25.2, 32.46 25.259999999999998 C 32.55 25.35, 32.58 25.23, 32.64 25.44 C 32.67 25.77, 32.80500000000001 25.814999999999998, 32.7 26.099999999999998 C 32.46 26.339999999999996, 32.64 26.294999999999998, 32.22 26.58 C 31.619999999999997 26.91, 31.724999999999998 26.835, 31.02 27.240000000000002 C 30.21 27.720000000000002, 30.450000000000003 27.555000000000003, 29.400000000000002 28.200000000000003 C 28.11 29.01, 27.96 29.07, 26.82 29.82 C 25.83 30.51, 26.144999999999996 30.270000000000003, 24.839999999999996 31.200000000000003 C 23.22 32.370000000000005, 22.86 32.55, 21.6 33.54 C 20.7 34.35, 20.849999999999998 34.080000000000005, 19.799999999999997 35.160000000000004 C 18.599999999999998 36.510000000000005, 18.345 36.465, 17.4 37.86 C 16.71 39.3, 16.47 39.525000000000006, 16.02 40.74 C 15.81 41.730000000000004, 15.705000000000002 41.82, 15.600000000000001 42.72 C 15.600000000000001 43.53, 15.600000000000001 43.739999999999995, 15.600000000000001 44.339999999999996 C 15.600000000000001 44.73, 15.600000000000001 44.849999999999994, 15.600000000000001 45.12 C 15.600000000000001 45.269999999999996, 15.600000000000001 45.345, 15.600000000000001 45.42 L 15.600000000000001 45.42" fill="none" stroke="black" stroke-width="5"></path><path d="M 14.940000000000001 28.259999999999998 C 15.39 28.89, 15.21 28.695, 15.84 29.52 C 16.65 30.54, 16.755000000000003 30.72, 17.46 31.56 C 18.060000000000002 32.22, 18.105 32.295, 18.66 32.88 C 19.17 33.39, 19.29 33.540000000000006, 19.68 33.900000000000006 C 19.95 34.11, 20.085 34.215, 20.22 34.32 L 20.22 34.32" fill="none" stroke="black" stroke-width="5"></path></svg>