<svg width="48" height="48" viewBox="0 0 48 48" xmlns="http://www.w3.org/2000/svg"><path d="M 12.600000000000001 44.339999999999996 C 12.420000000000002 42.120000000000005, 12.33 42.165000000000006, 12.24 39.900000000000006 C 12.24 37.59, 12.255 37.5, 12.24 35.28 C 12.21 33.15, 12.225 32.76, 12.18 31.02 C 12.12 29.67, 12.194999999999999 29.64, 12.059999999999999 28.32 C 11.85 27.03, 11.745000000000001 26.955000000000002, 11.64 25.740000000000002 C 11.64 24.6, 11.64 24.465000000000003, 11.64 23.46 C 11.64 22.59, 11.64 22.59, 11.64 21.72 C 11.64 20.85, 11.64 20.895, 11.64 19.98 C 11.64 19.02, 11.595 18.869999999999997, 11.64 18.06 C 11.73 17.4, 11.505 17.565, 11.82 16.740000000000002 C 12.36 15.75, 12.465 15.48, 12.899999999999999 14.76 C 13.229999999999999 14.309999999999999, 12.839999999999998 14.309999999999999, 13.559999999999999 13.86 C 14.669999999999998 13.41, 14.805 13.32, 15.78 12.96 C 16.62 12.69, 16.35 12.645, 17.46 12.419999999999998 C 18.84 12.239999999999998, 18.99 12.149999999999999, 20.22 12.059999999999999 C 21.299999999999997 12.059999999999999, 21.435 12.059999999999999, 22.38 12.059999999999999 C 23.189999999999998 12.059999999999999, 23.265 12.044999999999998, 24 12.059999999999999 C 24.66 12.09, 24.66 11.985, 25.32 12.120000000000001 C 25.98 12.360000000000001, 25.995 12.375000000000002, 26.64 12.600000000000001 C 27.270000000000003 12.81, 27.255000000000003 12.75, 27.900000000000002 13.02 C 28.560000000000002 13.35, 28.724999999999998 13.41, 29.22 13.68 C 29.55 13.89, 29.520000000000003 13.785, 29.880000000000003 14.100000000000001 C 30.270000000000003 14.520000000000001, 30.345000000000006 14.490000000000002, 30.660000000000004 14.940000000000001 C 30.900000000000002 15.42, 30.975 15.419999999999998, 31.14 15.899999999999999 C 31.23 16.38, 31.275 16.32, 31.32 16.86 C 31.32 17.46, 31.335 17.595, 31.32 18.06 C 31.29 18.39, 31.439999999999998 18.165, 31.259999999999998 18.72 C 30.93 19.5, 31.004999999999995 19.560000000000002, 30.599999999999998 20.28 C 30.119999999999997 20.94, 30.105 21.075000000000003, 29.64 21.6 C 29.19 21.990000000000002, 29.355000000000004 21.96, 28.740000000000002 22.38 C 27.96 22.83, 28.155 22.89, 27.18 23.28 C 26.009999999999998 23.61, 25.889999999999997 23.745, 24.839999999999996 23.94 C 23.909999999999997 24, 23.475 24.03, 22.98 24.06 C 22.92 24.06, 22.89 24.06, 22.86 24.06 L 22.86 24.06" fill="none" stroke="black" stroke-width="5"></path><path d="M 19.259999999999998 4.38 C 18.72 4.74, 18.48 4.725, 18.18 5.1 C 18.119999999999997 5.49, 17.909999999999997 5.415, 18.06 5.88 C 18.42 6.42, 18.075000000000003 6.599999999999999, 18.78 6.959999999999999 C 19.83 7.14, 20.174999999999997 7.32, 20.88 7.32 C 21.240000000000002 7.14, 21.315 7.334999999999999, 21.6 6.959999999999999 C 21.810000000000002 6.39, 22.08 6.390000000000001, 22.02 5.82 C 21.689999999999998 5.25, 21.615 5.055, 21.36 4.68 C 21.18 4.5, 21.314999999999998 4.44, 21 4.32 C 20.55 4.26, 20.595000000000002 3.914999999999999, 20.1 4.199999999999999 C 19.560000000000002 4.83, 19.29 4.904999999999999, 19.02 5.46 C 19.02 5.9399999999999995, 18.81 5.955, 19.02 6.42 C 19.439999999999998 6.87, 19.365 7.23, 19.86 7.32 C 20.43 7.05, 20.625 7.2299999999999995, 21 6.779999999999999 C 21.18 6.15, 21.27 5.970000000000001, 21.36 5.5200000000000005 C 21.36 5.25, 21.674999999999997 5.13, 21.36 4.9799999999999995 C 20.73 4.949999999999999, 20.580000000000002 4.77, 20.1 4.92 C 19.770000000000003 5.25, 19.605 5.295, 19.44 5.58 C 19.44 5.82, 19.44 5.925000000000001, 19.44 6.0600000000000005 L 19.44 6.12" fill="none" stroke="black" stroke-width="5"></path></svg>