<svg width="48" height="48" viewBox="0 0 48 48" xmlns="http://www.w3.org/2000/svg"><path d="M 8.22 7.86 C 8.100000000000001 8.82, 8.280000000000001 8.055, 7.98 9.78 C 7.5 12.27, 7.334999999999999 12.674999999999999, 7.02 14.76 C 6.87 16.44, 6.9 16.545, 6.720000000000001 18.12 C 6.510000000000001 19.59, 6.510000000000001 19.11, 6.300000000000001 21.06 C 6.09 23.490000000000002, 6.045 23.535000000000004, 5.88 25.92 C 5.76 28.259999999999998, 5.699999999999999 28.769999999999996, 5.64 30.599999999999998 C 5.64 31.92, 5.64 31.89, 5.64 33.24 C 5.64 34.620000000000005, 5.625 34.95, 5.64 36 C 5.67 36.72, 5.5649999999999995 36.66, 5.699999999999999 37.44 C 5.9399999999999995 38.28, 5.699999999999999 38.42999999999999, 6.18 39.12 C 6.9 39.66, 6.93 39.81, 7.62 40.2 C 8.28 40.44, 8.25 40.44, 8.94 40.68 C 9.66 40.92, 9.584999999999999 40.980000000000004, 10.379999999999999 41.160000000000004 C 11.25 41.28, 11.040000000000001 41.34, 12.120000000000001 41.400000000000006 C 13.41 41.400000000000006, 13.425 41.400000000000006, 14.700000000000001 41.400000000000006 C 15.96 41.400000000000006, 15.749999999999998 41.47500000000001, 17.22 41.400000000000006 C 18.9 41.25, 19.185000000000002 41.25, 20.580000000000002 41.099999999999994 C 21.689999999999998 40.949999999999996, 21.93 40.934999999999995, 22.799999999999997 40.8 C 23.43 40.68, 23.744999999999997 40.620000000000005, 24.06 40.56 C 24.06 40.56, 24.014999999999997 40.575, 24.06 40.56 C 24.15 40.53, 24.195 40.515, 24.240000000000002 40.5 L 24.240000000000002 40.5" fill="none" stroke="black" stroke-width="5"></path><path d="M 15.24 20.28 C 15.18 20.46, 15.090000000000002 20.4, 15.120000000000001 20.64 C 15.24 20.94, 14.985 20.955000000000002, 15.36 21.240000000000002 C 15.99 21.51, 16.23 21.645000000000003, 16.62 21.78 C 16.77 21.78, 16.724999999999998 21.885, 16.919999999999998 21.78 C 17.159999999999997 21.57, 17.279999999999998 21.66, 17.4 21.36 C 17.4 20.97, 17.445 20.895000000000003, 17.4 20.580000000000002 C 17.31 20.340000000000003, 17.43 20.325000000000003, 17.22 20.1 C 16.89 19.89, 16.875 19.785, 16.56 19.68 C 16.259999999999998 19.68, 16.395 19.634999999999998, 15.96 19.68 C 15.39 19.77, 15.21 19.65, 14.82 19.86 C 14.61 20.189999999999998, 14.52 20.085, 14.399999999999999 20.52 C 14.37 21.060000000000002, 14.19 21.18, 14.34 21.6 C 14.67 21.900000000000002, 14.76 22.050000000000004, 15 22.200000000000003 C 15.149999999999999 22.200000000000003, 15.134999999999998 22.260000000000005, 15.299999999999999 22.200000000000003 C 15.48 22.080000000000002, 15.42 22.365000000000002, 15.66 21.96 C 15.959999999999999 21.270000000000003, 16.11 21.060000000000002, 16.259999999999998 20.580000000000002 C 16.259999999999998 20.310000000000002, 16.409999999999997 20.22, 16.259999999999998 20.04 C 15.959999999999999 19.95, 15.975 19.905, 15.66 19.86 C 15.33 19.86, 15.36 19.68, 15 19.86 C 14.61 20.22, 14.415000000000001 20.160000000000004, 14.22 20.580000000000002 C 14.22 21.060000000000002, 14.010000000000002 21.134999999999998, 14.22 21.54 C 14.64 21.87, 14.729999999999999 22.035000000000004, 15.059999999999999 22.200000000000003 C 15.299999999999999 22.200000000000003, 15.209999999999999 22.335000000000004, 15.54 22.200000000000003 C 15.959999999999999 21.93, 16.049999999999997 22.065, 16.38 21.66 C 16.619999999999997 21.12, 16.74 21.075000000000003, 16.86 20.580000000000002 C 16.86 20.130000000000003, 16.95 20.01, 16.86 19.68 C 16.68 19.47, 16.71 19.365, 16.5 19.259999999999998 C 16.259999999999998 19.259999999999998, 16.335 18.959999999999997, 16.02 19.259999999999998 C 15.629999999999999 19.86, 15.435 19.86, 15.24 20.46 C 15.24 21.060000000000002, 15.195 21.195, 15.24 21.66 C 15.329999999999998 21.990000000000002, 15.299999999999997 22.11, 15.419999999999998 22.32 C 15.57 22.41, 15.524999999999999 22.59, 15.72 22.5 C 15.96 22.23, 15.990000000000004 22.41, 16.200000000000003 21.96 C 16.380000000000003 21.330000000000002, 16.47 21.135000000000005, 16.56 20.700000000000003 C 16.56 20.46, 16.77 20.445, 16.56 20.22 C 16.14 20.009999999999998, 16.005000000000003 19.904999999999998, 15.72 19.799999999999997 C 15.57 19.799999999999997, 15.569999999999999 19.634999999999998, 15.419999999999998 19.799999999999997 C 15.27 20.13, 15.195 20.265, 15.120000000000001 20.46 L 15.120000000000001 20.580000000000002" fill="none" stroke="black" stroke-width="5"></path></svg>