<svg width="48" height="48" viewBox="0 0 48 48" xmlns="http://www.w3.org/2000/svg"><path d="M 15 5.46 C 14.73 6.959999999999999, 14.64 6.944999999999999, 14.46 8.459999999999999 C 14.370000000000001 9.989999999999998, 14.325 10.32, 14.28 11.52 C 14.28 12.39, 14.19 12.584999999999999, 14.28 13.26 C 14.46 13.74, 14.280000000000001 13.665000000000001, 14.64 14.22 C 15.18 14.850000000000001, 15.165000000000001 15.045, 15.72 15.48 C 16.29 15.72, 15.989999999999998 15.735000000000001, 16.86 15.96 C 18.03 16.17, 18.120000000000005 16.244999999999997, 19.200000000000003 16.38 C 20.19 16.439999999999998, 19.98 16.425, 21.18 16.5 C 22.59 16.59, 22.619999999999997 16.634999999999998, 24 16.68 C 25.35 16.68, 25.650000000000002 16.725, 26.700000000000003 16.68 C 27.450000000000003 16.59, 27.675000000000004 16.545, 28.200000000000003 16.5 C 28.5 16.5, 28.499999999999996 16.5, 28.799999999999997 16.5 C 29.1 16.5, 29.1 16.5, 29.400000000000002 16.5 C 29.700000000000003 16.5, 29.655 16.5, 30 16.5 C 30.39 16.5, 30.39 16.5, 30.78 16.5 C 31.17 16.5, 31.32 16.5, 31.56 16.5 C 31.65 16.5, 31.695 16.5, 31.740000000000002 16.5 L 31.740000000000002 16.5" fill="none" stroke="black" stroke-width="5"></path><path d="M 22.38 9.84 C 22.23 10.2, 21.96 10.26, 22.080000000000002 10.56 C 22.47 10.8, 22.395 10.98, 22.86 11.040000000000001 C 23.4 10.920000000000002, 23.565 11.085, 23.94 10.8 C 24.15 10.35, 24.345 10.395, 24.36 9.899999999999999 C 24.18 9.36, 24.48 9.3, 24 8.82 C 23.22 8.4, 23.01 8.100000000000001, 22.44 7.98 C 22.08 8.16, 21.945 7.935, 21.72 8.34 C 21.63 8.97, 21.405 9.015, 21.54 9.600000000000001 C 21.9 10.14, 21.884999999999998 10.35, 22.259999999999998 10.68 C 22.65 10.8, 22.665 10.95, 23.04 10.92 C 23.4 10.74, 23.564999999999998 10.725000000000001, 23.759999999999998 10.56 C 23.79 10.41, 23.805 10.395, 23.82 10.26 C 23.82 10.14, 24.060000000000002 10.14, 23.82 10.02 C 23.34 9.899999999999999, 23.355 9.674999999999999, 22.86 9.78 C 22.35 10.11, 22.125 10.079999999999998, 21.84 10.44 C 21.78 10.83, 21.659999999999997 10.92, 21.72 11.22 C 21.9 11.43, 21.78 11.715, 22.080000000000002 11.64 C 22.5 11.280000000000001, 22.71 11.25, 22.919999999999998 10.92 C 22.919999999999998 10.620000000000001, 22.919999999999998 10.785, 22.919999999999998 10.32 C 22.919999999999998 9.690000000000001, 22.919999999999998 9.405000000000001, 22.919999999999998 9.06 C 22.919999999999998 9, 22.919999999999998 8.969999999999999, 22.919999999999998 8.94 L 22.919999999999998 8.94" fill="none" stroke="black" stroke-width="5"></path><path d="M 19.5 16.200000000000003 C 19.439999999999998 16.53, 19.439999999999998 16.425, 19.38 16.86 C 19.32 17.4, 19.29 17.235, 19.259999999999998 17.94 C 19.259999999999998 18.810000000000002, 19.049999999999997 18.825, 19.259999999999998 19.68 C 19.68 20.52, 19.650000000000002 20.64, 20.1 21.36 C 20.58 21.96, 20.384999999999998 21.854999999999997, 21.06 22.56 C 21.93 23.369999999999997, 21.839999999999996 23.535, 22.799999999999997 24.18 C 23.85 24.66, 23.76 24.705, 24.900000000000002 25.14 C 26.130000000000003 25.53, 26.325 25.575000000000003, 27.36 25.92 C 28.2 26.22, 28.335 26.295, 29.04 26.52 C 29.61 26.67, 29.85 26.73, 30.18 26.82 C 30.27 26.85, 30.24 26.820000000000004, 30.36 26.880000000000003 C 30.51 26.97, 30.525000000000002 26.82, 30.660000000000004 27.06 C 30.78 27.449999999999996, 30.840000000000003 27.554999999999996, 30.900000000000002 27.839999999999996 C 30.900000000000002 28.02, 31.065 27.96, 30.900000000000002 28.200000000000003 C 30.57 28.5, 30.750000000000004 28.529999999999998, 30.240000000000002 28.799999999999997 C 29.55 29.04, 29.805 29.009999999999998, 28.86 29.28 C 27.66 29.580000000000002, 27.69 29.520000000000003, 26.46 29.880000000000003 C 25.200000000000003 30.3, 25.185000000000002 30.119999999999997, 23.94 30.72 C 22.71 31.5, 22.47 31.575000000000003, 21.48 32.28 C 20.73 32.91, 20.64 32.805, 19.98 33.54 C 19.41 34.379999999999995, 19.275 34.44, 18.84 35.22 C 18.54 35.94, 18.465000000000003 35.760000000000005, 18.240000000000002 36.660000000000004 C 18.090000000000003 37.74, 18.015 37.980000000000004, 17.94 38.82 C 17.94 39.42, 17.880000000000003 39.584999999999994, 17.94 40.019999999999996 C 18.060000000000002 40.29, 18.09 40.38, 18.18 40.56 C 18.24 40.650000000000006, 18.269999999999996 40.695, 18.299999999999997 40.74 L 18.299999999999997 40.74" fill="none" stroke="black" stroke-width="5"></path></svg>