<svg width="48" height="48" viewBox="0 0 48 48" xmlns="http://www.w3.org/2000/svg"><path d="M 13.74 28.380000000000003 C 13.11 27.42, 12.99 27.480000000000004, 12.48 26.46 C 12.09 25.38, 12.165 26.054999999999996, 11.7 24.299999999999997 C 11.16 21.869999999999997, 10.935 21.585, 10.620000000000001 19.44 C 10.530000000000001 17.580000000000002, 10.485 17.265, 10.44 15.72 C 10.44 14.49, 10.125 14.46, 10.44 13.26 C 11.07 12.09, 11.264999999999999 11.52, 11.7 10.92 C 11.94 10.89, 11.73 10.709999999999999, 12.18 10.86 C 12.84 11.19, 12.855 10.92, 13.5 11.52 C 14.129999999999999 12.39, 14.114999999999998 12.12, 14.76 13.26 C 15.420000000000002 14.670000000000002, 15.585 14.880000000000003, 16.080000000000002 16.080000000000002 C 16.410000000000004 17.07, 16.485000000000003 17.355, 16.740000000000002 18.06 C 16.92 18.479999999999997, 17.01 18.689999999999998, 17.1 18.9 C 17.1 18.9, 17.1 18.99, 17.1 18.9 C 17.1 18.72, 17.1 19.2, 17.1 18.54 C 17.1 17.4, 17.1 17.22, 17.1 16.259999999999998 C 17.1 15.48, 16.965000000000003 15.375, 17.1 14.700000000000001 C 17.37 14.129999999999999, 17.310000000000002 14.024999999999999, 17.64 13.559999999999999 C 18.03 13.2, 17.669999999999998 13.29, 18.419999999999998 12.84 C 19.53 12.3, 19.53 12.18, 20.64 11.76 C 21.75 11.46, 21.84 11.34, 22.86 11.16 C 23.79 11.100000000000001, 23.775 11.07, 24.72 11.040000000000001 C 25.68 11.040000000000001, 25.68 10.995000000000001, 26.64 11.040000000000001 C 27.6 11.13, 27.825 11.13, 28.56 11.22 C 29.07 11.309999999999999, 29.325 11.354999999999999, 29.58 11.399999999999999 L 29.58 11.399999999999999" fill="none" stroke="black" stroke-width="5"></path><path d="M 17.82 5.46 C 17.58 5.699999999999999, 17.55 5.5649999999999995, 17.34 5.9399999999999995 C 17.16 6.449999999999999, 16.62 6.614999999999998, 16.98 6.959999999999999 C 17.880000000000003 7.14, 18.09 7.38, 18.78 7.32 C 19.26 7.0200000000000005, 19.485000000000003 7.110000000000001, 19.740000000000002 6.720000000000001 C 19.77 6.24, 19.904999999999998 6.105, 19.799999999999997 5.76 C 19.56 5.55, 19.725 5.445, 19.32 5.34 C 18.75 5.34, 18.66 5.055, 18.18 5.34 C 17.79 5.91, 17.595 5.67, 17.4 6.48 C 17.4 7.53, 17.13 8.01, 17.4 8.58 C 17.939999999999998 8.67, 18.045 8.85, 18.48 8.76 C 18.810000000000002 8.49, 18.825 9.06, 19.14 8.22 C 19.44 6.8100000000000005, 19.755000000000003 6.210000000000001, 19.740000000000002 5.4 C 19.410000000000004 5.1899999999999995, 19.335 5.039999999999999, 19.080000000000002 4.9799999999999995 L 18.72 5.16" fill="none" stroke="black" stroke-width="5"></path><path d="M 22.080000000000002 11.52 C 22.020000000000003 12.06, 21.990000000000002 11.745000000000001, 21.96 12.600000000000001 C 21.96 13.770000000000001, 21.84 13.395000000000001, 21.96 14.940000000000001 C 22.200000000000003 16.86, 22.05 16.98, 22.44 18.78 C 22.98 20.46, 22.995 20.55, 23.52 22.14 C 24.03 23.64, 23.97 23.685000000000002, 24.54 25.14 C 25.169999999999998 26.55, 25.049999999999997 26.58, 25.799999999999997 27.96 C 26.669999999999998 29.310000000000002, 26.82 29.730000000000004, 27.54 30.660000000000004 C 28.11 31.17, 28.02 31.23, 28.68 31.68 C 29.43 32.07, 29.384999999999998 32.145, 30.18 32.46 C 31.02 32.7, 31.32 32.775, 31.86 32.94 C 32.099999999999994 33.03, 32.22 33.074999999999996, 32.339999999999996 33.12 C 32.339999999999996 33.12, 32.339999999999996 33.12, 32.339999999999996 33.12 C 32.339999999999996 33.12, 32.339999999999996 33.12, 32.339999999999996 33.12 C 32.339999999999996 33.12, 32.44499999999999 33.12, 32.339999999999996 33.12 C 32.129999999999995 33.12, 32.64 33.12, 31.92 33.12 C 30.69 33.12, 30.96 33.12, 29.46 33.12 C 27.69 33.12, 27.540000000000003 33.074999999999996, 25.92 33.12 C 24.450000000000003 33.209999999999994, 24.39 33.029999999999994, 22.98 33.3 C 21.630000000000003 33.75, 21.495 33.63, 20.28 34.2 C 19.200000000000003 34.89, 19.125 34.56, 18.12 35.58 C 17.189999999999998 36.93, 16.935 36.72, 16.259999999999998 38.28 C 15.839999999999998 40.05, 15.704999999999998 39.945, 15.419999999999998 41.82 C 15.27 43.8, 15.195 44.565, 15.120000000000001 45.78 C 15.120000000000001 46.230000000000004, 15.120000000000001 46.455, 15.120000000000001 46.68 L 15.120000000000001 46.68" fill="none" stroke="black" stroke-width="5"></path></svg>