<svg width="48" height="48" viewBox="0 0 48 48" xmlns="http://www.w3.org/2000/svg"><path d="M 13.440000000000001 27.240000000000002 C 13.17 26.220000000000002, 13.11 26.580000000000005, 12.899999999999999 25.200000000000003 C 12.75 23.46, 12.720000000000002 23.43, 12.600000000000001 21.72 C 12.51 20.04, 12.465 19.53, 12.419999999999998 18.36 C 12.419999999999998 17.7, 12.419999999999998 17.835, 12.419999999999998 17.04 C 12.419999999999998 16.11, 12.284999999999997 16.305, 12.419999999999998 15.18 C 12.69 13.86, 12.600000000000001 13.68, 12.96 12.54 C 13.41 11.58, 13.5 11.355, 13.86 10.620000000000001 C 14.129999999999999 10.110000000000001, 14.069999999999999 10.035000000000002, 14.399999999999999 9.600000000000001 C 14.79 9.24, 14.684999999999999 9.105, 15.18 8.879999999999999 C 15.78 8.79, 15.84 8.745, 16.38 8.7 C 16.86 8.7, 16.89 8.594999999999999, 17.34 8.7 C 17.759999999999998 8.91, 17.715 8.745000000000001, 18.18 9.120000000000001 C 18.69 9.66, 18.765000000000004 9.629999999999999, 19.200000000000003 10.2 C 19.560000000000002 10.799999999999999, 19.59 10.665, 19.919999999999998 11.399999999999999 C 20.22 12.27, 20.31 12.27, 20.52 13.14 C 20.64 14.01, 20.61 13.844999999999999, 20.759999999999998 14.879999999999999 C 20.939999999999998 16.08, 20.94 16.365000000000002, 21.12 17.28 C 21.3 17.91, 21.375 18.06, 21.48 18.54 C 21.509999999999998 18.87, 21.525 19.035000000000004, 21.54 19.200000000000003 C 21.54 19.200000000000003, 21.54 19.200000000000003, 21.54 19.200000000000003 C 21.54 19.200000000000003, 21.54 19.200000000000003, 21.54 19.200000000000003 C 21.54 19.200000000000003, 21.435 19.17, 21.54 19.200000000000003 C 21.75 19.26, 21.69 19.395000000000003, 21.96 19.32 C 22.29 19.11, 22.29 19.034999999999997, 22.62 18.9 C 22.950000000000003 18.84, 22.815 18.810000000000002, 23.28 18.78 C 23.880000000000003 18.78, 23.91 18.78, 24.48 18.78 C 25.02 18.78, 25.005 18.675, 25.56 18.78 C 26.130000000000003 18.990000000000002, 26.250000000000004 19.035000000000004, 26.700000000000003 19.200000000000003 C 27.03 19.32, 26.955 19.215000000000003, 27.36 19.44 C 27.84 19.770000000000003, 27.75 19.590000000000003, 28.32 20.1 C 28.98 20.79, 29.175 20.895, 29.64 21.48 C 29.91 21.96, 29.91 21.915, 30.18 22.44 C 30.45 23.01, 30.555 23.055000000000003, 30.72 23.580000000000002 C 30.779999999999998 24.060000000000002, 30.809999999999995 24.105, 30.839999999999996 24.54 C 30.839999999999996 24.93, 30.839999999999996 25.095, 30.839999999999996 25.32 C 30.839999999999996 25.380000000000003, 30.839999999999996 25.41, 30.839999999999996 25.44 C 30.839999999999996 25.44, 30.839999999999996 25.44, 30.839999999999996 25.44 L 30.839999999999996 25.44" fill="none" stroke="black" stroke-width="5"></path><path d="M 24.78 11.58 C 24.54 12.09, 24.419999999999998 12.195, 24.299999999999997 12.600000000000001 C 24.299999999999997 12.900000000000002, 24.044999999999995 12.765, 24.299999999999997 13.200000000000001 C 24.81 13.77, 24.794999999999998 14.025, 25.32 14.34 C 25.86 14.4, 26.01 14.595, 26.400000000000002 14.46 C 26.64 14.129999999999999, 26.730000000000004 14.16, 26.880000000000003 13.799999999999999 C 26.94 13.41, 27.075000000000003 13.5, 27 13.02 C 26.79 12.45, 26.82 12.434999999999999, 26.58 11.879999999999999 C 26.31 11.34, 26.265 11.100000000000001, 26.04 10.8 C 25.86 10.74, 25.905 10.62, 25.68 10.68 C 25.41 10.86, 25.335 10.755, 25.14 11.040000000000001 C 25.020000000000003 11.43, 24.96 11.43, 24.900000000000002 11.82 C 24.900000000000002 12.21, 24.900000000000002 12.330000000000002, 24.900000000000002 12.600000000000001 C 24.900000000000002 12.75, 24.735000000000003 12.794999999999998, 24.900000000000002 12.899999999999999 C 25.23 12.959999999999999, 25.32 12.989999999999998, 25.56 13.02 C 25.71 13.02, 25.785 13.2, 25.86 13.02 C 25.86 12.66, 25.86 12.569999999999999, 25.86 12.299999999999999 C 25.86 12.12, 25.86 12.03, 25.86 11.94 C 25.86 11.94, 25.86 11.94, 25.86 11.94 C 25.86 11.94, 25.86 11.94, 25.86 11.94 L 25.86 11.94" fill="none" stroke="black" stroke-width="5"></path><path d="M 21.84 19.080000000000002 C 21.75 19.410000000000004, 21.705 19.380000000000003, 21.66 19.740000000000002 C 21.66 20.130000000000003, 21.66 20.175, 21.66 20.52 C 21.66 20.82, 21.66 20.79, 21.66 21.12 C 21.66 21.48, 21.66 21.3, 21.66 21.84 C 21.66 22.560000000000002, 21.66 22.425, 21.66 23.28 C 21.66 24.27, 21.66 24.375, 21.66 25.259999999999998 C 21.66 26.04, 21.735 26.085, 21.66 26.82 C 21.509999999999998 27.51, 21.54 27.375000000000004, 21.36 28.200000000000003 C 21.15 29.16, 21.165 29.22, 20.94 30.119999999999997 C 20.700000000000003 30.959999999999997, 20.745 31.049999999999997, 20.46 31.799999999999997 C 20.13 32.459999999999994, 20.174999999999997 32.489999999999995, 19.799999999999997 33.12 C 19.38 33.72, 19.38 33.735, 18.96 34.32 C 18.54 34.89, 18.585 34.875, 18.12 35.46 C 17.61 36.06, 17.655 36.06, 17.1 36.660000000000004 C 16.5 37.260000000000005, 16.455 37.38, 15.899999999999999 37.86 C 15.389999999999999 38.22, 15.254999999999999 38.339999999999996, 14.879999999999999 38.58 C 14.639999999999999 38.7, 14.52 38.76, 14.399999999999999 38.82 C 14.399999999999999 38.82, 14.399999999999999 38.82, 14.399999999999999 38.82 L 14.399999999999999 38.82" fill="none" stroke="black" stroke-width="5"></path><path d="M 17.34 36.18 C 17.58 36.18, 17.28 36.18, 17.82 36.18 C 18.66 36.18, 18.03 36.254999999999995, 19.5 36.18 C 21.6 36.03, 22.230000000000004 35.985, 23.700000000000003 35.88 C 24.540000000000003 35.82, 24.480000000000004 35.79, 25.380000000000003 35.76 C 26.34 35.76, 26.369999999999997 35.745, 27.299999999999997 35.76 C 28.199999999999996 35.79, 28.485 35.775, 29.099999999999998 35.82 C 29.43 35.879999999999995, 29.49 35.91, 29.759999999999998 35.94 C 29.97 35.94, 30.075 35.94, 30.18 35.94 L 30.18 35.94" fill="none" stroke="black" stroke-width="5"></path></svg>