<svg width="48" height="48" viewBox="0 0 48 48" xmlns="http://www.w3.org/2000/svg"><path d="M 14.100000000000001 3.18 C 14.100000000000001 3.75, 14.130000000000003 2.9850000000000003, 14.100000000000001 4.32 C 14.040000000000001 6.42, 14.25 5.505, 13.98 8.52 C 13.5 12.45, 13.29 12.93, 13.02 16.38 C 12.959999999999999 19.35, 12.659999999999998 20.535, 12.899999999999999 22.32 C 13.44 22.92, 13.515 23.22, 13.98 23.52 C 14.370000000000001 23.52, 13.725 24.435, 14.76 23.52 C 16.44 21.689999999999998, 17.115000000000002 21.54, 18.12 19.86 C 18.450000000000003 18.33, 18.615000000000002 17.729999999999997, 18.78 16.799999999999997 C 18.78 16.47, 18.78 16.305, 18.78 16.14 C 18.78 16.14, 18.705000000000002 16.065, 18.78 16.14 C 18.93 16.29, 18.900000000000002 15.855, 19.080000000000002 16.44 C 19.29 17.46, 19.065 17.46, 19.5 18.48 C 20.16 19.5, 20.235 19.815, 20.82 20.52 C 21.33 20.909999999999997, 21.18 20.939999999999998, 21.84 21.299999999999997 C 22.65 21.63, 22.785 21.795, 23.46 21.96 C 24 21.96, 23.88 22.11, 24.54 21.96 C 25.32 21.66, 25.379999999999995 21.705, 26.099999999999998 21.36 C 26.759999999999998 20.97, 26.775000000000002 21.105000000000004, 27.42 20.580000000000002 C 28.05 19.92, 28.095 20.564999999999998, 28.68 19.259999999999998 C 29.22 17.31, 29.49 17.369999999999997, 29.759999999999998 15.36 C 29.759999999999998 13.29, 29.819999999999997 12.795, 29.759999999999998 11.22 C 29.64 10.14, 29.669999999999998 10.020000000000001, 29.52 9.06 C 29.340000000000003 8.22, 29.310000000000002 8.025, 29.160000000000004 7.38 C 29.040000000000003 6.93, 28.980000000000004 6.705, 28.92 6.48 C 28.92 6.48, 28.92 6.48, 28.92 6.48 C 28.92 6.48, 28.995000000000005 6.870000000000001, 28.92 6.48 C 28.77 5.7, 28.695 5.37, 28.619999999999997 4.92 C 28.619999999999997 4.8, 28.65 4.8, 28.619999999999997 4.68 L 28.5 4.4399999999999995" fill="none" stroke="black" stroke-width="5"></path><path d="M 20.64 9.48 C 20.1 10.68, 19.71 11.055, 19.56 11.879999999999999 C 19.799999999999997 12.329999999999998, 19.47 12.69, 20.04 12.78 C 20.939999999999998 12.51, 21.299999999999997 12.675, 21.84 12.24 C 22.020000000000003 11.64, 22.110000000000003 11.610000000000001, 22.200000000000003 11.040000000000001 C 22.200000000000003 10.5, 22.320000000000004 10.29, 22.200000000000003 9.959999999999999 C 21.96 9.84, 21.915 9.645, 21.72 9.72 C 21.57 9.99, 21.494999999999997 9.705, 21.419999999999998 10.26 C 21.419999999999998 11.1, 21.209999999999997 11.309999999999999, 21.419999999999998 11.94 C 21.839999999999996 12.36, 21.884999999999998 12.899999999999999, 22.259999999999998 12.78 C 22.589999999999996 12.12, 22.755 12.075, 22.919999999999998 11.459999999999999 C 22.919999999999998 10.89, 23.174999999999997 10.68, 22.919999999999998 10.32 L 21.9 10.02" fill="none" stroke="black" stroke-width="5"></path><path d="M 10.44 41.88 C 10.919999999999998 41.97, 10.349999999999998 42.24, 11.399999999999999 42.06 C 13.02 41.61, 12.9 42.015, 14.64 41.160000000000004 C 16.5 39.900000000000006, 16.86 40.065, 18.36 38.64 C 19.5 37.05, 19.8 36.69, 20.64 35.46 C 21.18 34.59, 21.15 34.935, 21.72 33.72 C 22.32 32.16, 22.409999999999997 32.55, 22.919999999999998 30.599999999999998 C 23.339999999999996 28.259999999999998, 23.459999999999997 27.900000000000002, 23.759999999999998 25.92 C 23.939999999999998 24.3, 24.029999999999998 23.55, 24.119999999999997 22.68 C 24.119999999999997 22.560000000000002, 24.119999999999997 22.5, 24.119999999999997 22.44 C 24.119999999999997 22.44, 24.119999999999997 22.44, 24.119999999999997 22.44 C 24.119999999999997 22.44, 24.119999999999997 22.455000000000002, 24.119999999999997 22.44 C 24.119999999999997 22.41, 24.119999999999997 22.08, 24.119999999999997 22.38 C 24.119999999999997 23.009999999999998, 24.209999999999997 22.425, 24.119999999999997 23.64 C 23.939999999999998 25.44, 23.97 25.380000000000003, 23.759999999999998 27.240000000000002 C 23.52 29.16, 23.445 29.505, 23.28 31.08 C 23.19 32.31, 23.145000000000003 32.415, 23.1 33.54 C 23.1 34.56, 22.89 34.515, 23.1 35.58 C 23.520000000000003 36.69, 23.325000000000003 36.765, 23.94 37.8 C 24.75 38.76, 24.63 39, 25.56 39.72 C 26.61 40.2, 26.895000000000003 40.364999999999995, 27.660000000000004 40.68 C 28.14 40.83, 28.08 40.86, 28.619999999999997 40.980000000000004 C 29.22 41.07000000000001, 29.28 41.115, 29.82 41.160000000000004 C 30.3 41.160000000000004, 30.39 41.160000000000004, 30.78 41.160000000000004 C 31.080000000000002 41.160000000000004, 31.230000000000004 41.160000000000004, 31.380000000000003 41.160000000000004 L 31.380000000000003 41.160000000000004" fill="none" stroke="black" stroke-width="5"></path></svg>