<svg width="48" height="48" viewBox="0 0 48 48" xmlns="http://www.w3.org/2000/svg"><path d="M 13.26 24.96 C 12.809999999999999 23.91, 12.75 23.924999999999997, 12.36 22.86 C 12.03 21.78, 11.94 21.525000000000002, 11.7 20.700000000000003 C 11.549999999999999 20.130000000000003, 11.549999999999997 20.16, 11.399999999999999 19.56 C 11.25 18.93, 11.175 18.839999999999996, 11.100000000000001 18.299999999999997 C 11.100000000000001 17.849999999999998, 11.100000000000001 17.865, 11.100000000000001 17.4 C 11.100000000000001 16.92, 11.010000000000002 16.92, 11.100000000000001 16.44 C 11.280000000000001 15.96, 11.16 16.005000000000003, 11.459999999999999 15.48 C 11.879999999999999 14.91, 11.834999999999999 14.865, 12.299999999999999 14.34 C 12.809999999999999 13.86, 12.795 13.739999999999998, 13.32 13.379999999999999 C 13.86 13.139999999999999, 13.724999999999998 13.11, 14.399999999999999 12.899999999999999 C 15.209999999999999 12.719999999999999, 15.134999999999998 12.674999999999999, 16.02 12.54 C 16.98 12.45, 16.755000000000003 12.45, 17.94 12.36 C 19.35 12.27, 19.544999999999998 12.27, 20.759999999999998 12.18 C 21.779999999999998 12.09, 21.779999999999998 12.045, 22.799999999999997 12 C 23.819999999999997 12, 23.849999999999994 11.985, 24.839999999999996 12 C 25.799999999999997 12.03, 25.919999999999995 12.014999999999999, 26.759999999999998 12.059999999999999 C 27.48 12.12, 27.615000000000002 12.149999999999999, 28.200000000000003 12.18 C 28.65 12.18, 28.65 12.18, 29.099999999999998 12.18 C 29.549999999999997 12.18, 29.535 12.18, 30 12.18 C 30.48 12.18, 30.615000000000002 12.18, 30.96 12.18 C 31.17 12.18, 31.230000000000004 12.18, 31.380000000000003 12.18 C 31.47 12.18, 31.515 12.18, 31.56 12.18 L 31.56 12.18" fill="none" stroke="black" stroke-width="5"></path><path d="M 20.94 4.14 C 20.64 4.109999999999999, 20.715 3.96, 20.34 4.08 C 19.89 4.35, 19.725 4.17, 19.44 4.62 C 19.32 5.25, 19.185000000000002 5.445, 19.200000000000003 5.88 C 19.35 6.12, 19.200000000000003 6.21, 19.5 6.36 C 19.95 6.42, 19.919999999999998 6.540000000000001, 20.4 6.48 C 20.909999999999997 6.300000000000001, 21.134999999999998 6.405, 21.419999999999998 6.12 C 21.479999999999997 5.73, 21.555 5.7, 21.54 5.34 C 21.45 5.01, 21.525 4.904999999999999, 21.36 4.68 C 21.119999999999997 4.56, 21.36 4.5, 20.88 4.4399999999999995 C 20.16 4.4399999999999995, 20.04 4.26, 19.44 4.4399999999999995 C 18.96 4.8, 18.78 4.845000000000001, 18.48 5.16 C 18.36 5.43, 18.240000000000002 5.459999999999999, 18.240000000000002 5.699999999999999 C 18.36 5.91, 18.315 6.015, 18.48 6.12 C 18.689999999999998 6.12, 18.63 6.255, 18.9 6.12 C 19.229999999999997 5.85, 19.349999999999998 5.835, 19.56 5.58 C 19.65 5.34, 19.695 5.265, 19.740000000000002 5.1 C 19.740000000000002 5.01, 19.740000000000002 4.965, 19.740000000000002 4.92 C 19.740000000000002 4.92, 19.800000000000004 4.905, 19.740000000000002 4.92 C 19.62 4.949999999999999, 19.575 4.8149999999999995, 19.5 4.9799999999999995 C 19.47 5.279999999999999, 19.365000000000002 5.355, 19.44 5.58 C 19.619999999999997 5.73, 19.514999999999997 5.715, 19.799999999999997 5.88 C 20.189999999999998 6.0600000000000005, 20.310000000000002 6.15, 20.580000000000002 6.24 C 20.73 6.24, 20.73 6.405, 20.88 6.24 C 21.03 5.91, 21.105 5.82, 21.18 5.58 C 21.18 5.43, 21.255 5.4, 21.18 5.28 C 21.03 5.1899999999999995, 21.075 5.175, 20.88 5.1 C 20.64 5.039999999999999, 20.669999999999998 4.874999999999999, 20.4 4.9799999999999995 C 20.099999999999998 5.25, 20.009999999999998 5.265000000000001, 19.799999999999997 5.5200000000000005 L 19.56 6" fill="none" stroke="black" stroke-width="5"></path><path d="M 19.919999999999998 12.120000000000001 C 19.89 12.420000000000002, 19.785 11.985000000000001, 19.86 12.72 C 20.04 13.89, 20.025 13.844999999999999, 20.22 15.059999999999999 C 20.43 16.32, 20.445 16.35, 20.64 17.580000000000002 C 20.82 18.78, 20.88 18.810000000000002, 21 19.98 C 21.060000000000002 21.119999999999997, 21.150000000000002 20.849999999999998, 21.12 22.259999999999998 C 21 23.939999999999998, 21.03 24.254999999999995, 20.88 25.619999999999997 C 20.7 26.669999999999998, 20.79 26.519999999999996, 20.52 27.72 C 20.159999999999997 29.07, 19.979999999999997 29.745, 19.799999999999997 30.42 C 19.799999999999997 30.42, 19.799999999999997 30.42, 19.799999999999997 30.42 C 19.799999999999997 30.42, 20.714999999999996 28.26, 19.799999999999997 30.42 C 17.97 34.74, 17.25 36.645, 16.14 39.06 C 15.75 39.57, 15.899999999999999 39.435, 15.36 40.08 C 14.67 40.86, 14.445 41.085, 13.98 41.64 C 13.74 41.97, 13.620000000000001 42.135, 13.5 42.3 C 13.5 42.3, 13.5 42.3, 13.5 42.3 C 13.5 42.3, 13.5 42.3, 13.5 42.3 C 13.5 42.3, 13.545 42.254999999999995, 13.5 42.3 C 13.41 42.39, 13.365 42.435, 13.32 42.480000000000004 C 13.32 42.480000000000004, 13.32 42.480000000000004, 13.32 42.480000000000004 L 13.32 42.480000000000004" fill="none" stroke="black" stroke-width="5"></path><path d="M 16.799999999999997 37.38 C 17.939999999999998 37.14, 17.61 37.245000000000005, 19.080000000000002 36.900000000000006 C 20.880000000000003 36.45, 21.060000000000002 36.36, 22.68 36 C 24.119999999999997 35.730000000000004, 24.314999999999998 35.685, 25.56 35.46 C 26.61 35.28, 26.610000000000003 35.23499999999999, 27.660000000000004 35.099999999999994 C 28.71 35.01, 28.86 34.965, 29.759999999999998 34.92 C 30.509999999999998 34.92, 30.81 34.92, 31.259999999999998 34.92 C 31.409999999999997 34.92, 31.485 34.92, 31.56 34.92 L 31.56 34.92" fill="none" stroke="black" stroke-width="5"></path></svg>