<svg width="48" height="48" viewBox="0 0 48 48" xmlns="http://www.w3.org/2000/svg"><path d="M 18.48 11.28 C 19.68 11.37, 19.56 11.294999999999998, 20.88 11.459999999999999 C 22.32 11.7, 22.499999999999996 11.774999999999999, 23.759999999999998 11.94 C 24.84 12.030000000000001, 25.17 12.075000000000001, 25.92 12.120000000000001 C 26.34 12.120000000000001, 26.46 12.120000000000001, 26.759999999999998 12.120000000000001 C 26.939999999999998 12.120000000000001, 27.029999999999998 12.120000000000001, 27.119999999999997 12.120000000000001 L 27.119999999999997 12.120000000000001" fill="none" stroke="black" stroke-width="5"></path><path d="M 19.799999999999997 4.0200000000000005 C 19.68 4.62, 19.724999999999998 4.125, 19.56 5.22 C 19.35 6.809999999999999, 19.395 7.094999999999999, 19.14 8.399999999999999 C 18.84 9.419999999999998, 18.735 9.209999999999999, 18.54 10.44 C 18.45 11.879999999999999, 18.57 11.64, 18.36 13.32 C 18.03 15.24, 17.925000000000004 15.405000000000001, 17.700000000000003 17.16 C 17.580000000000002 18.75, 17.520000000000003 19.485, 17.46 20.34 C 17.46 20.46, 17.46 20.490000000000002, 17.46 20.580000000000002 C 17.46 20.64, 17.46 20.655000000000005, 17.46 20.700000000000003 C 17.46 20.73, 17.37 20.744999999999997, 17.46 20.759999999999998 C 17.64 20.759999999999998, 17.7 20.759999999999998, 17.82 20.759999999999998 C 17.880000000000003 20.759999999999998, 17.82 20.759999999999998, 17.94 20.759999999999998 C 18.119999999999997 20.759999999999998, 18.209999999999997 20.759999999999998, 18.299999999999997 20.759999999999998 C 18.299999999999997 20.759999999999998, 18.254999999999995 20.759999999999998, 18.299999999999997 20.759999999999998 C 18.39 20.759999999999998, 18.314999999999998 20.654999999999998, 18.48 20.759999999999998 C 18.72 20.97, 18.825000000000003 21.03, 18.96 21.18 C 18.990000000000002 21.27, 18.87 21.104999999999997, 19.02 21.36 C 19.29 21.78, 19.275 21.750000000000004, 19.56 22.200000000000003 C 19.86 22.68, 19.875 22.68, 20.16 23.16 C 20.43 23.64, 20.28 23.549999999999997, 20.700000000000003 24.119999999999997 C 21.270000000000003 24.78, 21.225 24.795, 21.84 25.44 C 22.5 26.07, 22.425 25.935000000000002, 23.16 26.700000000000003 C 23.97 27.6, 24.135 27.840000000000003, 24.78 28.5 C 25.26 28.919999999999998, 25.125 28.859999999999996, 25.740000000000002 29.339999999999996 C 26.490000000000002 29.88, 26.490000000000002 29.925, 27.240000000000002 30.42 C 27.990000000000002 30.87, 28.32 31.05, 28.740000000000002 31.32 C 28.830000000000002 31.41, 28.875 31.455, 28.92 31.5 C 28.92 31.5, 28.92 31.5, 28.92 31.5 C 28.92 31.5, 28.92 31.5, 28.92 31.5 C 28.92 31.5, 28.92 31.5, 28.92 31.5 C 28.92 31.5, 28.905 31.455, 28.92 31.5 C 28.950000000000003 31.59, 29.895000000000003 30.990000000000002, 28.98 31.68 C 27.119999999999997 32.97, 26.654999999999998 33.209999999999994, 25.259999999999998 34.26 C 24.33 35.07, 24.54 34.74, 23.4 35.88 C 22.05 37.35, 21.795 37.515, 20.700000000000003 38.82 C 19.86 39.959999999999994, 19.740000000000002 40.10999999999999, 19.02 41.099999999999994 C 18.42 41.94, 18.195 42.21, 17.82 42.78 C 17.67 43.08, 17.67 43.185, 17.52 43.38 L 17.22 43.56" fill="none" stroke="black" stroke-width="5"></path><path d="M 15.24 25.44 C 15.48 25.89, 15.255 25.724999999999994, 15.72 26.339999999999996 C 16.41 27.119999999999997, 16.365000000000002 26.895000000000003, 17.1 27.900000000000002 C 17.880000000000003 29.130000000000003, 17.805 29.13, 18.66 30.36 C 19.59 31.59, 19.8 31.875, 20.52 32.82 C 21.03 33.480000000000004, 21.21 33.705, 21.54 34.14 C 21.689999999999998 34.35, 21.765 34.455, 21.84 34.56 C 21.84 34.56, 21.84 34.56, 21.84 34.56 C 21.84 34.56, 21.78 34.47, 21.84 34.56 C 21.96 34.74, 21.855 34.635000000000005, 22.080000000000002 34.92 C 22.410000000000004 35.31, 22.500000000000004 35.44500000000001, 22.740000000000002 35.7 C 22.89 35.82, 22.92 35.79, 23.04 35.94 L 23.22 36.3" fill="none" stroke="black" stroke-width="5"></path></svg>