<svg width="48" height="48" viewBox="0 0 48 48" xmlns="http://www.w3.org/2000/svg"><path d="M 9.84 10.08 C 10.05 10.17, 9.495000000000001 10.215, 10.26 10.26 C 11.579999999999998 10.26, 11.745 10.26, 12.899999999999999 10.26 C 13.889999999999999 10.26, 14.04 10.26, 14.879999999999999 10.26 C 15.569999999999999 10.26, 15.749999999999998 10.26, 16.259999999999998 10.26 C 16.589999999999996 10.26, 16.755 10.26, 16.919999999999998 10.26 L 16.919999999999998 10.26" fill="none" stroke="black" stroke-width="5"></path><path d="M 11.100000000000001 3.9000000000000004 C 10.830000000000002 4.2, 10.740000000000002 3.9, 10.56 4.5 C 10.469999999999999 5.4, 10.454999999999998 5.4750000000000005, 10.379999999999999 6.300000000000001 C 10.32 7.050000000000001, 10.29 6.735000000000001, 10.26 7.800000000000001 C 10.26 9.18, 10.32 9.255, 10.26 10.56 C 10.14 11.79, 10.125 11.61, 10.02 13.02 C 9.93 14.610000000000001, 9.945 14.715000000000003, 9.84 16.200000000000003 C 9.72 17.580000000000002, 9.66 17.775000000000002, 9.600000000000001 18.96 C 9.600000000000001 19.950000000000003, 9.540000000000003 20.175, 9.600000000000001 20.94 C 9.72 21.48, 9.57 21.525, 9.84 22.02 C 10.26 22.47, 10.2 22.665, 10.68 22.919999999999998 C 11.219999999999999 22.979999999999997, 10.92 23.009999999999998, 11.76 23.04 C 12.899999999999999 23.04, 12.704999999999998 23.04, 14.04 23.04 C 15.57 23.04, 15.705000000000002 23.04, 17.1 23.04 C 18.36 23.04, 18.765 23.04, 19.62 23.04 C 20.07 23.04, 20.085 23.04, 20.52 23.04 C 20.939999999999998 23.04, 20.985 23.055, 21.36 23.04 C 21.689999999999998 23.009999999999998, 21.54 23.16, 22.02 22.98 C 22.65 22.65, 22.785 22.77, 23.28 22.32 C 23.64 21.75, 23.73 22.29, 24 21.18 C 24.18 19.53, 24.21 19.875, 24.36 17.88 C 24.479999999999997 15.54, 24.54 15.3, 24.599999999999998 13.200000000000001 C 24.599999999999998 11.34, 24.599999999999998 11.22, 24.599999999999998 9.48 C 24.599999999999998 7.86, 24.599999999999998 7.275, 24.599999999999998 6.24 C 24.599999999999998 5.79, 24.644999999999996 5.699999999999999, 24.599999999999998 5.34 C 24.509999999999998 5.07, 24.465 4.9350000000000005, 24.42 4.800000000000001 L 24.42 4.800000000000001" fill="none" stroke="black" stroke-width="5"></path><path d="M 15.059999999999999 25.619999999999997 C 15.059999999999999 27.119999999999997, 15.059999999999999 27.284999999999997, 15.059999999999999 28.619999999999997 C 15.059999999999999 29.79, 15.059999999999999 29.925, 15.059999999999999 30.96 C 15.059999999999999 31.86, 15.014999999999999 31.439999999999998, 15.059999999999999 32.76 C 15.149999999999999 34.5, 15.195 34.485, 15.24 36.24 C 15.24 38.010000000000005, 15.24 38.28, 15.24 39.78 C 15.24 41.010000000000005, 15.24 41.355000000000004, 15.24 42.24 C 15.24 42.78, 15.24 43.05, 15.24 43.32 C 15.24 43.32, 15.24 43.32, 15.24 43.32 C 15.24 43.32, 15.24 43.32, 15.24 43.32 C 15.24 43.32, 15.24 43.32, 15.24 43.32 C 15.24 43.32, 15.24 43.32, 15.24 43.32 C 15.24 43.32, 15.195 43.29, 15.24 43.32 C 15.329999999999998 43.379999999999995, 15.314999999999998 43.635, 15.419999999999998 43.44 C 15.54 42.989999999999995, 15.48 43.335, 15.66 42.54 C 15.9 41.4, 15.705000000000002 41.625, 16.14 40.26 C 16.77 38.67, 16.784999999999997 38.25, 17.4 37.08 C 18 36.33, 17.925 36.195, 18.6 35.58 C 19.35 35.099999999999994, 19.14 35.025, 20.1 34.62 C 21.270000000000003 34.29, 21.645000000000003 34.125, 22.44 33.96 C 22.86 33.96, 23.07 33.96, 23.28 33.96 L 23.28 33.96" fill="none" stroke="black" stroke-width="5"></path><path d="M 14.940000000000001 26.94 C 14.940000000000001 26.340000000000003, 14.940000000000001 26.220000000000002, 14.940000000000001 25.740000000000002 C 14.940000000000001 25.380000000000003, 14.940000000000001 25.44, 14.940000000000001 25.02 C 14.940000000000001 24.54, 14.940000000000001 24.494999999999997, 14.940000000000001 24.06 C 14.940000000000001 23.67, 14.925 23.505000000000003, 14.940000000000001 23.28 C 14.97 23.22, 14.97 23.235, 15 23.16 C 15.03 23.07, 15.044999999999998 23.025, 15.059999999999999 22.98 L 15.059999999999999 22.98" fill="none" stroke="black" stroke-width="5"></path></svg>