<svg width="48" height="48" viewBox="0 0 48 48" xmlns="http://www.w3.org/2000/svg"><path d="M 13.379999999999999 10.02 C 14.25 10.02, 13.830000000000002 10.02, 15.120000000000001 10.02 C 16.83 10.02, 17.325 10.02, 18.54 10.02 C 19.259999999999998 10.02, 19.62 10.02, 19.98 10.02 L 19.98 10.02" fill="none" stroke="black" stroke-width="5"></path><path d="M 14.34 4.68 C 14.19 5.61, 14.25 5.340000000000001, 14.04 6.540000000000001 C 13.77 8.010000000000002, 13.695 7.98, 13.5 9.48 C 13.379999999999999 11.01, 13.364999999999998 11.43, 13.26 12.54 C 13.170000000000002 13.229999999999999, 13.125000000000002 13.139999999999997, 13.080000000000002 13.919999999999998 C 13.080000000000002 14.79, 12.735000000000003 14.940000000000001, 13.080000000000002 15.66 C 13.770000000000001 16.229999999999997, 13.665000000000003 16.394999999999996, 14.46 16.799999999999997 C 15.36 17.04, 14.985 17.115000000000002, 16.259999999999998 17.28 C 17.909999999999997 17.37, 18.06 17.415, 19.56 17.46 C 20.909999999999997 17.46, 20.474999999999998 17.385, 22.259999999999998 17.46 C 24.48 17.61, 24.840000000000003 17.639999999999997, 26.700000000000003 17.759999999999998 C 28.200000000000003 17.85, 28.590000000000003 17.865000000000002, 29.700000000000003 17.94 C 30.42 18, 30.69 17.97, 31.14 18.06 C 31.32 18.18, 31.305 17.639999999999997, 31.5 18.299999999999997 C 31.71 19.5, 31.815 19.455000000000002, 31.92 20.700000000000003 C 31.92 21.990000000000002, 31.965000000000003 22.155, 31.92 23.28 C 31.830000000000002 24.240000000000002, 31.89 24.405, 31.740000000000002 25.200000000000003 C 31.53 25.830000000000002, 31.425 26.145000000000003, 31.32 26.46 L 31.32 26.46" fill="none" stroke="black" stroke-width="5"></path><path d="M 20.94 17.04 C 20.91 18, 21.044999999999998 17.145000000000003, 20.88 18.96 C 20.58 21.63, 20.685000000000002 21.854999999999997, 20.28 24.299999999999997 C 19.77 26.52, 19.994999999999997 26.205000000000002, 19.259999999999998 28.740000000000002 C 18.299999999999997 31.59, 18.45 31.979999999999997, 17.34 34.44 C 16.08 36.51, 16.02 36.855, 14.82 38.58 C 13.68 39.959999999999994, 13.53 40.184999999999995, 12.54 41.339999999999996 C 11.7 42.269999999999996, 11.28 42.735, 10.86 43.2 L 10.86 43.2" fill="none" stroke="black" stroke-width="5"></path><path d="M 16.799999999999997 36.72 C 17.46 36.75, 16.634999999999998 36.645, 18.12 36.78 C 20.43 37.019999999999996, 20.445000000000004 37.065, 22.740000000000002 37.26 C 25.02 37.41, 25.754999999999995 37.410000000000004, 27.299999999999997 37.56 L 28.92 37.86" fill="none" stroke="black" stroke-width="5"></path></svg>