<svg width="48" height="48" viewBox="0 0 48 48" xmlns="http://www.w3.org/2000/svg"><path d="M 13.440000000000001 9.36 C 13.89 9.36, 13.68 9.36, 14.34 9.36 C 15.21 9.36, 15.150000000000002 9.465, 16.080000000000002 9.36 C 17.07 9.149999999999999, 17.294999999999998 9.09, 18.06 8.94 C 18.6 8.85, 18.645 8.85, 19.14 8.76 C 19.59 8.67, 19.77 8.625, 20.04 8.58 L 20.22 8.58" fill="none" stroke="black" stroke-width="5"></path><path d="M 14.04 4.199999999999999 C 14.04 4.8, 14.04 4.7250000000000005, 14.04 5.4 C 14.04 6.15, 14.04 6.06, 14.04 6.8999999999999995 C 14.04 7.83, 14.04 8.04, 14.04 8.76 C 14.04 9.27, 14.024999999999999 8.955, 14.04 9.78 C 14.07 10.919999999999998, 13.98 10.859999999999998, 14.100000000000001 12.059999999999999 C 14.31 13.32, 14.295 13.155000000000001, 14.52 14.580000000000002 C 14.76 16.17, 14.79 16.439999999999998, 15 17.759999999999998 C 15.18 18.81, 15.225 18.9, 15.36 19.86 C 15.45 20.73, 15.495 21.12, 15.54 21.6 L 15.54 21.78" fill="none" stroke="black" stroke-width="5"></path><path d="M 15.18 14.82 C 15.989999999999998 14.82, 15.659999999999997 14.925, 16.799999999999997 14.82 C 18.27 14.61, 18.345000000000002 14.504999999999999, 19.740000000000002 14.399999999999999 C 21.060000000000002 14.399999999999999, 21.119999999999997 14.399999999999999, 22.38 14.399999999999999 C 23.58 14.399999999999999, 23.355 14.399999999999999, 24.78 14.399999999999999 C 26.43 14.399999999999999, 26.744999999999997 14.399999999999999, 28.08 14.399999999999999 C 29.099999999999998 14.399999999999999, 29.384999999999998 14.399999999999999, 30.119999999999997 14.399999999999999 C 30.57 14.399999999999999, 30.765 14.399999999999999, 31.02 14.399999999999999 L 31.14 14.399999999999999" fill="none" stroke="black" stroke-width="5"></path><path d="M 20.88 15.299999999999999 C 20.939999999999998 16.049999999999997, 20.97 15.734999999999998, 21 16.799999999999997 C 21 18.18, 20.925 18.299999999999997, 21 19.56 C 21.15 20.7, 21.165 20.73, 21.299999999999997 21.84 C 21.419999999999998 22.92, 21.419999999999998 22.71, 21.54 24 C 21.66 25.5, 21.72 25.5, 21.78 27 C 21.78 28.5, 21.735 28.47, 21.78 30 C 21.87 31.56, 21.87 31.784999999999997, 21.96 33.12 C 22.05 34.23, 22.095 34.41, 22.14 35.339999999999996 C 22.14 36.089999999999996, 22.14 36.059999999999995, 22.14 36.839999999999996 C 22.14 37.65, 22.080000000000002 37.754999999999995, 22.14 38.46 C 22.259999999999998 39.06, 22.32 39.19500000000001, 22.38 39.660000000000004 C 22.38 39.99, 22.38 40.155, 22.38 40.32 C 22.38 40.32, 22.38 40.32, 22.38 40.32 C 22.38 40.32, 22.38 40.32, 22.38 40.32 C 22.38 40.32, 22.38 40.32, 22.38 40.32 C 22.38 40.32, 22.38 40.32, 22.38 40.32 C 22.38 40.32, 22.38 40.32, 22.38 40.32 C 22.38 40.32, 22.38 40.32, 22.38 40.32 C 22.38 40.32, 22.38 40.32, 22.38 40.32 C 22.38 40.32, 22.38 40.32, 22.38 40.32 C 22.38 40.32, 22.38 40.32, 22.38 40.32 C 22.38 40.32, 22.335 40.14, 22.38 40.32 C 22.47 40.68, 22.515 40.695, 22.56 41.04 C 22.56 41.370000000000005, 22.56 41.34, 22.56 41.7 C 22.56 42.09, 22.56 42.09, 22.56 42.480000000000004 C 22.56 42.870000000000005, 22.544999999999998 42.885, 22.56 43.26 C 22.59 43.620000000000005, 22.605 43.800000000000004, 22.62 43.980000000000004 C 22.62 43.980000000000004, 22.62 43.980000000000004, 22.62 43.980000000000004 C 22.62 43.980000000000004, 22.605 44.010000000000005, 22.62 43.980000000000004 C 22.65 43.92, 22.665 44.4, 22.68 43.86 C 22.68 42.84, 22.68 43.185, 22.68 41.82 C 22.68 40.11, 22.68 39.84, 22.68 38.400000000000006 C 22.68 37.230000000000004, 22.62 36.96000000000001, 22.68 36.06 C 22.799999999999997 35.43, 22.634999999999998 35.474999999999994, 22.919999999999998 34.8 C 23.369999999999997 34.08, 23.085 34.17, 23.82 33.36 C 24.84 32.46, 25.005 32.22, 25.86 31.56 C 26.55 31.14, 26.565 30.974999999999998, 27.240000000000002 30.72 C 27.9 30.63, 27.689999999999998 30.63, 28.56 30.54 C 29.64 30.45, 29.955 30.405, 30.72 30.36 C 31.169999999999998 30.36, 31.349999999999998 30.36, 31.619999999999997 30.36 C 31.709999999999997 30.36, 31.754999999999995 30.36, 31.799999999999997 30.36 L 31.799999999999997 30.36" fill="none" stroke="black" stroke-width="5"></path></svg>