<svg width="48" height="48" viewBox="0 0 48 48" xmlns="http://www.w3.org/2000/svg"><path d="M 12.059999999999999 9.540000000000001 C 12.78 9.540000000000001, 12.675 9.540000000000001, 13.5 9.540000000000001 C 14.43 9.540000000000001, 14.114999999999998 9.585, 15.36 9.540000000000001 C 16.92 9.45, 17.19 9.405, 18.48 9.36 C 19.5 9.36, 19.935 9.36, 20.52 9.36 C 20.67 9.36, 20.745 9.36, 20.82 9.36 L 20.82 9.36" fill="none" stroke="black" stroke-width="5"></path><path d="M 14.22 3.12 C 13.98 3.8400000000000003, 13.98 3.9000000000000004, 13.74 4.5600000000000005 C 13.5 5.16, 13.53 4.89, 13.26 5.76 C 12.96 6.9, 12.93 6.705, 12.66 8.040000000000001 C 12.42 9.57, 12.405 9.885000000000002, 12.18 11.100000000000001 C 11.969999999999999 12, 11.79 11.954999999999998, 11.76 12.899999999999999 C 11.91 13.889999999999999, 11.52 14.159999999999998, 12.059999999999999 14.879999999999999 C 12.989999999999998 15.329999999999998, 13.019999999999998 15.555, 13.919999999999998 15.78 C 14.79 15.78, 14.655 15.78, 15.66 15.78 C 16.8 15.78, 16.515 15.825, 17.94 15.78 C 19.65 15.690000000000001, 19.665 15.765, 21.36 15.600000000000001 C 23.04 15.360000000000001, 23.415 15.240000000000002, 24.72 15.120000000000001 C 25.65 15.120000000000001, 25.994999999999997 15.120000000000001, 26.58 15.120000000000001 C 26.82 15.120000000000001, 26.654999999999998 14.865000000000002, 27.06 15.120000000000001 C 27.630000000000003 15.63, 27.78 15.375, 28.200000000000003 16.14 C 28.470000000000002 17.16, 28.620000000000005 16.875, 28.740000000000002 18.18 C 28.71 19.77, 28.905 19.575, 28.68 21.36 C 28.259999999999998 23.34, 28.394999999999996 23.265, 27.839999999999996 25.32 C 27.15 27.45, 27.33 27.39, 26.46 29.58 C 25.41 31.83, 25.245 32.339999999999996, 24.36 34.08 C 23.64 35.31, 23.88 35.175, 22.919999999999998 36.54 C 21.72 38.04, 21.54 38.4, 20.52 39.54 C 19.68 40.31999999999999, 19.59 40.559999999999995, 18.84 41.099999999999994 C 18.18 41.4, 18.015 41.55, 17.52 41.7 C 17.189999999999998 41.7, 17.25 41.835, 16.86 41.7 C 16.41 41.43000000000001, 16.425 42.165000000000006, 15.96 41.160000000000004 C 15.48 39.42, 15.24 38.925, 15 37.68 C 15 36.93, 14.745000000000001 37.05, 15 36.18 C 15.51 35.19, 15.239999999999998 35.265, 16.02 34.2 C 17.07 33.06, 17.115000000000002 32.580000000000005, 18.12 31.92 C 19.08 31.740000000000002, 19.365 31.65, 20.04 31.56 C 20.43 31.56, 20.4 31.56, 20.82 31.56 C 21.27 31.56, 21.404999999999998 31.514999999999997, 21.72 31.56 C 21.9 31.65, 21.900000000000002 31.650000000000002, 22.080000000000002 31.740000000000002 C 22.26 31.830000000000002, 22.200000000000003 31.755000000000003, 22.44 31.92 C 22.740000000000002 32.160000000000004, 22.86 32.26500000000001, 23.04 32.400000000000006 C 23.1 32.43000000000001, 23.025 32.34, 23.16 32.46 C 23.37 32.67, 23.37 32.685, 23.580000000000002 32.88 C 23.79 33.06, 23.82 33.06, 24 33.24 C 24.15 33.42, 24.165 33.449999999999996, 24.299999999999997 33.599999999999994 C 24.419999999999998 33.72, 24.479999999999997 33.779999999999994, 24.54 33.839999999999996 L 24.54 33.839999999999996" fill="none" stroke="black" stroke-width="5"></path></svg>