<svg width="48" height="48" viewBox="0 0 48 48" xmlns="http://www.w3.org/2000/svg"><path d="M 8.459999999999999 9.959999999999999 C 9.329999999999998 9.959999999999999, 8.774999999999999 9.959999999999999, 10.2 9.959999999999999 C 12.18 9.959999999999999, 13.11 9.959999999999999, 14.16 9.959999999999999 L 14.399999999999999 9.959999999999999" fill="none" stroke="black" stroke-width="5"></path><path d="M 8.459999999999999 5.22 C 8.280000000000001 6.57, 8.250000000000002 5.97, 8.100000000000001 7.92 C 7.98 10.469999999999999, 7.920000000000001 10.68, 7.86 13.02 C 7.86 15.15, 7.86 14.790000000000001, 7.86 17.28 C 7.86 20.130000000000003, 7.86 20.655, 7.86 22.98 C 7.86 24.78, 7.92 24.404999999999998, 7.86 26.58 C 7.74 29.13, 7.68 29.46, 7.62 31.68 C 7.62 33.57, 7.62 33.825, 7.62 35.46 C 7.62 36.84, 7.62 37.275, 7.62 38.22 C 7.62 38.730000000000004, 7.62 38.685, 7.62 39.24 C 7.62 39.84, 7.62 39.9, 7.62 40.44 C 7.62 40.92, 7.62 41.13000000000001, 7.62 41.400000000000006 C 7.62 41.46, 7.62 41.489999999999995, 7.62 41.519999999999996 C 7.62 41.519999999999996, 7.62 41.519999999999996, 7.62 41.519999999999996 L 7.62 41.519999999999996" fill="none" stroke="black" stroke-width="5"></path><path d="M 7.5600000000000005 41.7 C 8.46 30.660000000000004, 8.04 25.14, 9.36 19.62 C 11.1 19.62, 10.965 19.62, 12.84 19.62 C 14.85 19.62, 15.09 19.665, 16.86 19.62 C 18.39 19.53, 18.824999999999996 19.485, 19.919999999999998 19.44 C 20.58 19.44, 20.475 19.395000000000003, 21.240000000000002 19.44 C 22.11 19.53, 22.215000000000003 19.365000000000002, 22.98 19.62 C 23.64 20.04, 23.714999999999996 19.89, 24.299999999999997 20.46 C 24.81 21.18, 24.990000000000002 21, 25.32 21.9 C 25.47 22.979999999999997, 25.544999999999998 22.515, 25.619999999999997 24.06 C 25.619999999999997 26.07, 25.619999999999997 26.084999999999997, 25.619999999999997 28.08 C 25.619999999999997 30.06, 25.724999999999994 30.24, 25.619999999999997 32.04 C 25.41 33.66, 25.425000000000004 33.735, 25.200000000000003 35.28 C 24.96 36.75, 24.87 37.305, 24.72 38.22 C 24.659999999999997 38.58, 24.63 38.76, 24.599999999999998 38.94 C 24.599999999999998 38.94, 24.599999999999998 38.94, 24.599999999999998 38.94 C 24.599999999999998 38.94, 24.599999999999998 38.894999999999996, 24.599999999999998 38.94 C 24.599999999999998 39.03, 24.599999999999998 39.044999999999995, 24.599999999999998 39.12 C 24.599999999999998 39.18, 24.689999999999998 38.85, 24.599999999999998 39.24 C 24.42 39.96, 24.330000000000002 40.245, 24.240000000000002 40.68 C 24.240000000000002 40.83, 24.240000000000002 40.905, 24.240000000000002 40.980000000000004 L 24.240000000000002 40.980000000000004" fill="none" stroke="black" stroke-width="5"></path></svg>