<svg width="48" height="48" viewBox="0 0 48 48" xmlns="http://www.w3.org/2000/svg"><path d="M 9.72 12.96 C 10.2 12.96, 9.9 12.96, 10.68 12.96 C 11.76 12.96, 11.925 12.96, 12.84 12.96 C 13.59 12.96, 13.71 12.96, 14.34 12.96 C 14.85 12.96, 14.73 12.96, 15.36 12.96 C 16.11 12.96, 16.169999999999998 12.96, 16.86 12.96 C 17.490000000000002 12.96, 17.805 12.96, 18.12 12.96 L 18.12 12.96" fill="none" stroke="black" stroke-width="5"></path><path d="M 10.379999999999999 4.62 C 10.29 5.1899999999999995, 10.35 4.859999999999999, 10.2 5.76 C 9.989999999999998 6.99, 9.93 6.780000000000001, 9.78 8.22 C 9.690000000000001 9.870000000000001, 9.645000000000001 10.08, 9.600000000000001 11.52 C 9.600000000000001 12.75, 9.600000000000001 12.675, 9.600000000000001 13.98 C 9.600000000000001 15.360000000000001, 9.600000000000001 15.450000000000003, 9.600000000000001 16.740000000000002 C 9.600000000000001 17.94, 9.600000000000001 17.805, 9.600000000000001 19.14 C 9.600000000000001 20.61, 9.600000000000001 20.82, 9.600000000000001 22.080000000000002 C 9.600000000000001 23.130000000000003, 9.600000000000001 23.655, 9.600000000000001 24.18 L 9.600000000000001 24.18" fill="none" stroke="black" stroke-width="5"></path><path d="M 9.18 16.68 C 9.809999999999999 16.53, 9.885 16.485, 10.44 16.38 C 10.919999999999998 16.32, 10.784999999999998 16.259999999999998, 11.399999999999999 16.259999999999998 C 12.149999999999999 16.32, 12.119999999999997 15.899999999999999, 12.899999999999999 16.38 C 13.709999999999999 17.28, 13.724999999999998 16.935, 14.52 18.18 C 15.3 19.77, 15.540000000000003 19.905, 16.080000000000002 21.36 C 16.380000000000003 22.68, 16.53 23.34, 16.68 24 C 16.68 24, 16.68 24, 16.68 24 C 16.68 24, 16.665 23.955, 16.68 24 C 16.71 24.09, 16.725 24.27, 16.740000000000002 24.18 C 16.740000000000002 23.91, 16.740000000000002 24.345, 16.740000000000002 23.64 C 16.740000000000002 22.5, 16.485000000000003 22.395, 16.740000000000002 21.36 C 17.25 20.43, 17.189999999999998 20.189999999999998, 17.759999999999998 19.5 C 18.39 19.05, 18.36 18.885, 19.02 18.6 C 19.71 18.48, 19.439999999999998 18.555, 20.4 18.36 C 21.63 18.09, 21.479999999999997 18.015, 22.86 17.82 C 24.39 17.700000000000003, 24.630000000000003 17.685000000000002, 25.92 17.580000000000002 C 26.97 17.490000000000002, 27.255 17.445, 28.02 17.4 C 28.5 17.4, 28.47 17.115, 28.98 17.4 C 29.52 17.97, 29.564999999999998 17.4, 30.06 18.54 C 30.509999999999998 20.25, 30.69 20.28, 30.96 21.96 C 31.05 23.61, 31.095 24.269999999999996, 31.14 25.259999999999998 C 31.14 25.59, 31.14 25.755000000000003, 31.14 25.92 L 31.14 25.92" fill="none" stroke="black" stroke-width="5"></path><path d="M 20.34 19.200000000000003 C 20.34 20.37, 20.34 20.265, 20.34 21.54 C 20.34 22.919999999999998, 20.175 22.874999999999996, 20.34 24.299999999999997 C 20.67 25.77, 20.445 25.92, 21 27.240000000000002 C 21.78 28.41, 21.93 28.77, 22.56 29.58 C 23.04 30.03, 22.74 29.985, 23.52 30.48 C 24.6 31.02, 24.48 31.139999999999997, 25.68 31.56 C 27 31.86, 27.015 31.890000000000004, 28.32 32.160000000000004 C 29.61 32.400000000000006, 30.18 32.52, 30.900000000000002 32.64 C 31.050000000000004 32.64, 31.065000000000005 32.64, 31.200000000000003 32.64 C 31.32 32.64, 31.380000000000003 32.64, 31.44 32.64 C 31.44 32.64, 31.485000000000003 32.64, 31.44 32.64 C 31.35 32.64, 31.59 32.58, 31.259999999999998 32.64 C 30.689999999999998 32.760000000000005, 31.034999999999997 32.67, 30.119999999999997 32.88 C 28.86 33.18000000000001, 29.684999999999995 33.015, 27.599999999999998 33.480000000000004 C 24.689999999999998 34.11, 24.3 34.17, 21.78 34.74 C 19.65 35.25, 19.125 35.175, 17.52 35.76 C 16.439999999999998 36.42, 16.32 36.285, 15.36 37.08 C 14.52 38.01, 14.325 37.949999999999996, 13.68 38.94 C 13.23 39.989999999999995, 13.049999999999999 39.885, 12.78 41.04 C 12.690000000000001 42.3, 12.645000000000001 42.705, 12.600000000000001 43.56 C 12.600000000000001 44.010000000000005, 12.600000000000001 44.205, 12.600000000000001 44.46 C 12.600000000000001 44.519999999999996, 12.600000000000001 44.519999999999996, 12.600000000000001 44.58 L 12.600000000000001 44.7" fill="none" stroke="black" stroke-width="5"></path></svg>