<svg width="48" height="48" viewBox="0 0 48 48" xmlns="http://www.w3.org/2000/svg"><path d="M 11.459999999999999 10.98 C 12.57 10.98, 12.629999999999999 10.98, 13.68 10.98 C 14.67 10.98, 14.655 10.98, 15.66 10.98 C 16.68 10.98, 17.115000000000002 10.98, 17.700000000000003 10.98 L 18 10.98" fill="none" stroke="black" stroke-width="5"></path><path d="M 12.48 3.96 C 12.24 5.43, 12.225 5.249999999999999, 12 6.8999999999999995 C 11.79 8.73, 11.73 9.180000000000001, 11.58 10.56 C 11.489999999999998 11.489999999999998, 11.549999999999999 11.054999999999998, 11.399999999999999 12.419999999999998 C 11.19 14.219999999999999, 11.085 13.86, 10.98 16.02 C 10.98 18.54, 10.98 18.584999999999997, 10.98 21.06 C 10.98 23.490000000000002, 10.98 23.67, 10.98 25.92 C 10.98 27.990000000000002, 10.965 27.9, 10.98 30.06 C 11.010000000000002 32.31, 11.010000000000002 32.67, 11.040000000000001 34.56 C 11.07 36.09, 11.055000000000001 36.285, 11.100000000000001 37.62 C 11.16 38.760000000000005, 11.190000000000001 39.045, 11.22 39.900000000000006 C 11.22 40.47, 11.22 40.394999999999996, 11.22 41.04 C 11.22 41.760000000000005, 11.22 42.120000000000005, 11.22 42.480000000000004 C 11.22 42.480000000000004, 11.22 42.480000000000004, 11.22 42.480000000000004 L 11.22 42.480000000000004" fill="none" stroke="black" stroke-width="5"></path><path d="M 11.22 18.36 C 11.49 18.36, 11.25 18.36, 11.76 18.36 C 12.51 18.36, 12.149999999999999 18.419999999999998, 13.26 18.36 C 14.73 18.240000000000002, 14.625000000000004 18.345, 16.200000000000003 18.12 C 17.880000000000003 17.79, 18.18 17.67, 19.56 17.46 C 20.64 17.37, 20.669999999999998 17.325000000000003, 21.72 17.28 C 22.74 17.28, 22.979999999999997 17.28, 23.759999999999998 17.28 C 24.299999999999997 17.28, 24.404999999999994 17.235, 24.839999999999996 17.28 C 25.169999999999998 17.37, 25.169999999999998 17.235, 25.5 17.46 C 25.830000000000002 17.82, 25.650000000000006 16.77, 26.160000000000004 18.18 C 26.85 20.64, 27.015 20.46, 27.54 23.1 C 27.9 25.92, 27.9 26.025000000000002, 28.259999999999998 28.740000000000002 C 28.619999999999997 31.35, 28.725 31.830000000000002, 28.98 33.96 C 29.130000000000003 35.61, 29.205000000000002 35.805, 29.28 37.26 C 29.28 38.519999999999996, 29.355 38.88, 29.28 39.78 C 29.130000000000003 40.32, 29.28 40.32, 28.98 40.86 C 28.53 41.4, 28.604999999999997 41.55, 28.08 41.94 C 27.48 42.18, 27.375000000000004 42.3, 26.880000000000003 42.42 C 26.490000000000002 42.42, 26.505 42.42, 26.099999999999998 42.42 C 25.68 42.42, 25.559999999999995 42.480000000000004, 25.259999999999998 42.42 C 25.08 42.3, 25.215000000000003 42.465, 24.900000000000002 42.18 C 24.450000000000003 41.730000000000004, 24.585 42.195, 24 41.28 C 23.28 39.9, 23.189999999999998 39.91499999999999, 22.56 38.519999999999996 C 22.02 37.11, 21.795 37.17, 21.48 35.7 C 21.39 34.17, 21.345 34.44, 21.299999999999997 32.64 C 21.299999999999997 30.57, 21.299999999999997 29.715, 21.299999999999997 28.5 L 21.299999999999997 27.78" fill="none" stroke="black" stroke-width="5"></path></svg>