<svg width="48" height="48" viewBox="0 0 48 48" xmlns="http://www.w3.org/2000/svg"><path d="M 11.399999999999999 11.040000000000001 C 11.969999999999999 11.07, 11.055 10.935000000000002, 12.54 11.100000000000001 C 14.94 11.4, 15.945 11.55, 17.34 11.7 C 17.73 11.7, 17.865000000000002 11.7, 18.12 11.7 L 18.36 11.7" fill="none" stroke="black" stroke-width="5"></path><path d="M 13.200000000000001 2.88 C 12.900000000000002 5.3100000000000005, 12.840000000000002 5.79, 12.600000000000001 7.74 C 12.420000000000002 9.21, 12.33 9.3, 12.24 10.68 C 12.24 11.969999999999999, 12.345 11.684999999999999, 12.24 13.26 C 12.030000000000001 15.120000000000001, 12.045 14.775, 11.82 16.98 C 11.58 19.53, 11.52 20.085, 11.34 22.080000000000002 C 11.22 23.520000000000003, 11.16 23.445, 11.100000000000001 24.96 C 11.100000000000001 26.55, 11.010000000000002 26.895, 11.100000000000001 28.14 C 11.280000000000001 29.04, 11.309999999999999 29.340000000000003, 11.459999999999999 29.94 C 11.579999999999998 30.240000000000002, 11.504999999999999 30.27, 11.7 30.54 C 11.969999999999999 30.78, 11.879999999999999 30.9, 12.24 31.02 C 12.690000000000001 31.02, 12.315000000000001 31.665, 13.14 31.02 C 14.34 29.73, 14.73 29.715, 15.54 28.44 C 15.959999999999999 27.18, 16.169999999999998 27.12, 16.38 25.92 C 16.38 24.78, 16.38 24.21, 16.38 23.64 C 16.38 23.64, 16.38 23.64, 16.38 23.64 C 16.38 23.64, 16.32 23.43, 16.38 23.64 C 16.5 24.060000000000002, 16.53 23.34, 16.62 24.48 C 16.68 26.340000000000003, 16.575000000000003 26.805000000000003, 16.740000000000002 28.200000000000003 C 17.01 29.130000000000003, 16.89 29.235, 17.28 30.06 C 17.79 30.78, 17.684999999999995 31.035, 18.299999999999997 31.5 C 19.02 31.71, 18.375 31.770000000000003, 19.740000000000002 31.92 C 21.75 32.01, 21.93 32.23499999999999, 23.759999999999998 32.099999999999994 C 25.409999999999997 31.74, 25.74 31.725, 27.06 31.380000000000003 C 28.049999999999997 31.05, 28.23 30.945, 29.04 30.72 C 29.669999999999998 30.6, 29.97 30.615000000000002, 30.299999999999997 30.48 L 30.36 30.18" fill="none" stroke="black" stroke-width="5"></path><path d="M 18.66 31.619999999999997 C 18.66 32.58, 18.945 31.71, 18.66 33.54 C 18.09 36.239999999999995, 18 36.48, 17.52 38.94 C 17.130000000000003 41.16, 16.980000000000004 41.760000000000005, 16.740000000000002 43.38 C 16.65 44.400000000000006, 16.665 44.760000000000005, 16.56 45.42 L 16.32 46.019999999999996" fill="none" stroke="black" stroke-width="5"></path><path d="M 24.42 33.3 C 24.42 33.989999999999995, 24.555000000000003 32.61, 24.42 34.68 C 24.15 38.129999999999995, 24.015 38.985, 23.88 41.58 C 23.88 43.32, 23.88 43.905, 23.88 45.06 C 23.88 45.63, 23.88 45.75, 23.88 46.2 L 23.88 46.86" fill="none" stroke="black" stroke-width="5"></path></svg>