<svg width="48" height="48" viewBox="0 0 48 48" xmlns="http://www.w3.org/2000/svg"><path d="M 12.899999999999999 10.68 C 13.8 10.68, 13.155000000000001 10.695, 14.700000000000001 10.68 C 16.89 10.65, 17.46 10.680000000000001, 19.080000000000002 10.620000000000001 C 20.130000000000003 10.530000000000001, 20.490000000000002 10.485, 21.18 10.44 C 21.509999999999998 10.44, 21.63 10.44, 21.84 10.44 L 22.02 10.44" fill="none" stroke="black" stroke-width="5"></path><path d="M 13.32 4.199999999999999 C 13.08 4.859999999999999, 13.125 4.575, 12.84 5.5200000000000005 C 12.51 6.75, 12.375 6.705, 12.18 7.98 C 12.12 9.3, 12.149999999999999 9.39, 12.059999999999999 10.620000000000001 C 11.94 11.76, 11.879999999999999 11.774999999999999, 11.82 12.899999999999999 C 11.82 14.01, 11.82 14.010000000000002, 11.82 15.120000000000001 C 11.82 16.23, 11.73 16.515, 11.82 17.34 C 12 17.88, 11.73 17.819999999999997, 12.18 18.419999999999998 C 12.9 19.08, 12.915000000000001 19.23, 13.620000000000001 19.740000000000002 C 14.31 20.1, 13.785 19.965000000000003, 15 20.46 C 16.740000000000002 21.09, 16.785 21.314999999999998, 18.48 21.72 C 20.130000000000003 21.9, 20.16 21.990000000000002, 21.78 22.080000000000002 C 23.37 22.080000000000002, 23.580000000000002 22.17, 24.96 22.080000000000002 C 26.13 21.9, 26.144999999999996 21.945, 27.299999999999997 21.72 C 28.439999999999998 21.45, 28.634999999999998 21.39, 29.58 21.18 C 30.33 21.03, 30.659999999999997 20.955, 31.08 20.88 C 31.169999999999998 20.88, 31.08 20.924999999999997, 31.259999999999998 20.88 L 31.799999999999997 20.700000000000003" fill="none" stroke="black" stroke-width="5"></path><path d="M 19.14 22.200000000000003 C 19.02 23.46, 19.095 23.46, 18.9 24.72 C 18.63 25.98, 18.765 25.62, 18.36 27.240000000000002 C 17.82 29.220000000000002, 17.97 29.385000000000005, 17.28 31.200000000000003 C 16.44 32.85, 16.71 32.775000000000006, 15.600000000000001 34.5 C 14.22 36.3, 14.46 36.38999999999999, 12.84 38.099999999999994 C 10.98 39.72, 10.425 40.31999999999999, 9.120000000000001 41.339999999999996 C 8.370000000000001 41.76, 8.040000000000001 41.955, 7.62 42.18 L 7.4399999999999995 42.24" fill="none" stroke="black" stroke-width="5"></path><path d="M 26.46 31.08 C 26.13 32.61, 26.279999999999998 32.67, 25.799999999999997 34.14 C 25.169999999999998 35.55, 25.32 35.55, 24.54 36.96 C 23.61 38.370000000000005, 24.044999999999998 38.325, 22.68 39.78 C 20.880000000000003 41.28, 20.310000000000002 41.835, 19.080000000000002 42.78 C 18.42 43.17, 18.435 43.17, 17.759999999999998 43.56 C 17.07 43.95, 16.724999999999998 44.144999999999996, 16.38 44.339999999999996 L 16.38 44.339999999999996" fill="none" stroke="black" stroke-width="5"></path></svg>