<svg width="48" height="48" viewBox="0 0 48 48" xmlns="http://www.w3.org/2000/svg"><path d="M 13.32 11.459999999999999 C 14.43 11.459999999999999, 14.444999999999999 11.459999999999999, 15.54 11.459999999999999 C 16.62 11.459999999999999, 16.905 11.459999999999999, 17.700000000000003 11.459999999999999 C 18.21 11.459999999999999, 18.21 11.415, 18.72 11.459999999999999 C 19.23 11.55, 19.425 11.595, 19.740000000000002 11.64 L 19.98 11.64" fill="none" stroke="black" stroke-width="5"></path><path d="M 15.72 5.5200000000000005 C 15.39 6.18, 15.434999999999999 5.985, 15.059999999999999 6.84 C 14.64 7.89, 14.655000000000001 7.725, 14.22 8.94 C 13.77 10.32, 13.59 10.575, 13.32 11.7 C 13.23 12.57, 13.290000000000001 12.330000000000002, 13.14 13.440000000000001 C 12.93 14.790000000000001, 12.735 14.790000000000001, 12.72 16.14 C 12.900000000000002 17.490000000000002, 12.540000000000003 17.505, 13.080000000000002 18.84 C 13.98 20.16, 13.965 20.595, 14.879999999999999 21.48 C 15.81 21.93, 15.555000000000001 21.93, 16.740000000000002 22.38 C 18.18 22.83, 18.36 22.995, 19.62 23.28 C 20.700000000000003 23.4, 20.895000000000003 23.46, 21.78 23.52 C 22.47 23.52, 22.53 23.67, 23.16 23.52 C 23.729999999999997 23.22, 23.864999999999995 23.22, 24.299999999999997 22.919999999999998 C 24.6 22.619999999999997, 24.720000000000002 22.53, 24.900000000000002 22.32 C 24.96 22.200000000000003, 24.990000000000002 22.14, 25.02 22.080000000000002 L 25.02 22.080000000000002" fill="none" stroke="black" stroke-width="5"></path><path d="M 13.379999999999999 15.72 C 14.309999999999999 15.72, 13.59 15.705000000000002, 15.24 15.72 C 17.61 15.75, 17.64 15.69, 19.98 15.78 C 22.29 15.93, 22.575 15.885000000000002, 24.599999999999998 16.080000000000002 C 26.339999999999996 16.32, 26.759999999999998 16.275, 28.08 16.56 C 28.98 16.89, 29.115000000000002 16.65, 29.880000000000003 17.22 C 30.51 18.03, 30.705000000000002 17.97, 31.14 18.84 C 31.38 19.770000000000003, 31.485 19.590000000000003, 31.619999999999997 20.700000000000003 C 31.65 21.990000000000002, 31.905 21.69, 31.68 23.28 C 31.2 25.17, 31.724999999999998 24.765, 30.72 27.06 C 29.19 29.759999999999998, 28.875000000000004 30.27, 27.660000000000004 32.46 C 26.76 34.14, 26.565 34.545, 25.86 35.82 C 25.349999999999998 36.69, 25.244999999999997 36.81, 24.839999999999996 37.56 C 24.54 38.19, 24.57 38.16, 24.240000000000002 38.82 C 23.880000000000003 39.510000000000005, 23.82 39.63, 23.52 40.2 C 23.28 40.65, 23.16 40.875, 23.04 41.099999999999994 C 23.04 41.099999999999994, 23.04 41.099999999999994, 23.04 41.099999999999994 L 23.04 41.099999999999994" fill="none" stroke="black" stroke-width="5"></path></svg>