<svg width="48" height="48" viewBox="0 0 48 48" xmlns="http://www.w3.org/2000/svg"><path d="M 16.259999999999998 18.66 C 16.589999999999996 19.77, 16.619999999999997 19.799999999999997, 16.919999999999998 20.88 C 17.189999999999998 21.93, 17.235 22.185000000000002, 17.46 22.98 C 17.64 23.52, 17.715 23.445, 17.82 24.06 C 17.85 24.75, 17.955 24.78, 17.88 25.44 C 17.7 26.07, 17.895 26.235000000000003, 17.52 26.700000000000003 C 16.95 27, 16.905 27.119999999999997, 16.38 27.299999999999997 C 15.899999999999999 27.36, 15.779999999999998 27.435000000000002, 15.419999999999998 27.42 C 15.18 27.330000000000002, 15.360000000000001 27.615000000000002, 14.940000000000001 27.240000000000002 C 14.34 26.580000000000002, 14.25 26.745, 13.74 25.92 C 13.32 24.93, 13.274999999999999 24.78, 12.899999999999999 23.94 C 12.57 23.25, 12.45 23.099999999999998, 12.24 22.56 C 12.149999999999999 22.17, 12.104999999999999 22.005000000000003, 12.059999999999999 21.78 C 12.059999999999999 21.72, 12.059999999999999 21.855, 12.059999999999999 21.66 C 12.059999999999999 21.33, 12.014999999999999 21.315, 12.059999999999999 21 C 12.149999999999999 20.7, 12.030000000000001 20.729999999999997, 12.24 20.4 C 12.57 20.04, 12.554999999999998 19.979999999999997, 12.899999999999999 19.68 C 13.26 19.44, 13.32 19.380000000000003, 13.620000000000001 19.200000000000003 C 13.860000000000001 19.080000000000002, 13.635000000000002 19.11, 14.100000000000001 18.96 C 14.790000000000001 18.78, 14.670000000000002 18.69, 15.48 18.6 C 16.41 18.6, 16.41 18.6, 17.34 18.6 C 18.270000000000003 18.6, 18.270000000000003 18.6, 19.200000000000003 18.6 C 20.130000000000003 18.6, 20.205 18.6, 21.06 18.6 C 21.84 18.6, 22.065 18.57, 22.62 18.6 C 22.950000000000003 18.66, 22.995 18.645, 23.28 18.72 C 23.52 18.81, 23.64 18.854999999999997, 23.759999999999998 18.9 C 23.759999999999998 18.9, 23.759999999999998 18.9, 23.759999999999998 18.9 L 23.759999999999998 18.9" fill="none" stroke="black" stroke-width="5"></path><path d="M 16.080000000000002 13.26 C 16.080000000000002 12.66, 15.960000000000003 12.704999999999998, 16.080000000000002 12.059999999999999 C 16.32 11.37, 16.169999999999998 11.475, 16.56 10.68 C 17.1 9.78, 17.025 9.629999999999999, 17.64 8.879999999999999 C 18.33 8.28, 18.39 8.115, 19.02 7.68 C 19.59 7.41, 19.68 7.2749999999999995, 20.16 7.14 C 20.55 7.14, 20.67 7.14, 20.94 7.14 C 21.090000000000003 7.14, 20.955000000000002 7.005, 21.240000000000002 7.14 C 21.660000000000004 7.41, 21.645000000000003 7.26, 22.080000000000002 7.68 C 22.53 8.25, 22.635 8.280000000000001, 22.98 8.82 C 23.22 9.33, 23.265 9.36, 23.46 9.84 C 23.61 10.29, 23.654999999999998 10.125, 23.759999999999998 10.74 C 23.82 11.52, 23.849999999999998 11.264999999999999, 23.88 12.299999999999999 C 23.88 13.59, 23.91 13.589999999999998, 23.88 14.879999999999999 C 23.82 16.17, 23.849999999999998 16.29, 23.759999999999998 17.46 C 23.64 18.509999999999998, 23.625 18.33, 23.52 19.56 C 23.43 20.97, 23.46 20.955, 23.34 22.38 C 23.189999999999998 23.82, 23.265 23.669999999999998, 23.04 25.259999999999998 C 22.740000000000002 27, 22.8 26.700000000000003, 22.44 28.740000000000002 C 22.020000000000003 31.080000000000002, 21.96 31.395000000000003, 21.6 33.42 C 21.3 35.129999999999995, 21.3 35.06999999999999, 21 36.839999999999996 C 20.7 38.67, 20.669999999999998 38.82, 20.4 40.5 C 20.159999999999997 42.03, 20.04 42.42, 19.919999999999998 43.56 C 19.919999999999998 44.31, 19.919999999999998 44.64, 19.919999999999998 45.06 C 19.919999999999998 45.150000000000006, 19.919999999999998 45.195, 19.919999999999998 45.24 L 19.919999999999998 45.24" fill="none" stroke="black" stroke-width="5"></path></svg>