<svg width="48" height="48" viewBox="0 0 48 48" xmlns="http://www.w3.org/2000/svg"><path d="M 13.74 28.619999999999997 C 15.18 28.619999999999997, 15.120000000000001 28.619999999999997, 16.62 28.619999999999997 C 18.18 28.619999999999997, 17.955000000000002 28.694999999999997, 19.740000000000002 28.619999999999997 C 21.75 28.47, 22.185 28.485, 23.759999999999998 28.32 C 24.9 28.14, 25.229999999999997 28.095, 26.04 27.96 C 26.52 27.87, 26.475 27.885, 27 27.78 C 27.57 27.66, 27.630000000000003 27.645, 28.14 27.54 C 28.59 27.45, 28.604999999999997 27.465, 29.04 27.36 C 29.46 27.24, 29.505000000000003 27.254999999999995, 29.880000000000003 27.119999999999997 C 30.21 26.97, 30.3 26.955, 30.54 26.82 C 30.689999999999998 26.7, 30.614999999999995 26.895, 30.839999999999996 26.58 C 31.14 26.07, 31.245 26.4, 31.44 25.56 C 31.53 24.39, 31.575 24.794999999999998, 31.619999999999997 23.22 C 31.619999999999997 21.24, 31.679999999999996 20.894999999999996, 31.619999999999997 19.259999999999998 C 31.5 17.97, 31.590000000000003 18.405, 31.380000000000003 16.68 C 31.080000000000002 14.52, 31.110000000000003 14.25, 30.78 12.36 C 30.42 10.74, 30.404999999999998 10.47, 30.06 9.120000000000001 C 29.73 8.04, 29.76 7.859999999999999, 29.400000000000002 6.959999999999999 C 29.009999999999998 6.24, 28.935 6.09, 28.619999999999997 5.5200000000000005 C 28.38 5.1, 28.47 5.115, 28.14 4.68 C 27.72 4.23, 27.674999999999997 4.095000000000001, 27.299999999999997 3.7800000000000002 C 26.97 3.6, 26.955 3.51, 26.64 3.42 C 26.34 3.42, 26.31 3.42, 26.04 3.42 C 25.799999999999997 3.42, 25.845 3.285, 25.56 3.42 C 25.23 3.69, 25.185000000000002 3.66, 24.900000000000002 3.96 C 24.660000000000004 4.29, 24.675000000000004 4.125, 24.42 4.62 C 24.15 5.279999999999999, 24.045 5.385, 23.88 5.9399999999999995 C 23.82 6.39, 23.834999999999997 6.21, 23.759999999999998 6.84 C 23.67 7.6499999999999995, 23.625 7.334999999999999, 23.580000000000002 8.459999999999999 C 23.580000000000002 9.899999999999999, 23.580000000000002 9.945, 23.580000000000002 11.34 C 23.580000000000002 12.69, 23.535000000000004 12.93, 23.580000000000002 14.04 C 23.67 14.91, 23.715 15.299999999999999, 23.759999999999998 15.78 C 23.759999999999998 15.870000000000001, 23.759999999999998 15.915000000000001, 23.759999999999998 15.96 L 23.759999999999998 15.96" fill="none" stroke="black" stroke-width="5"></path><path d="M 13.379999999999999 43.980000000000004 C 15.12 42.99, 15.584999999999999 42.870000000000005, 16.86 42 C 17.67 41.25, 17.79 41.43, 18.48 40.5 C 19.05 39.39, 19.020000000000003 39.6, 19.62 38.28 C 20.25 36.75, 20.415 36.435, 20.88 35.22 C 21.18 34.32, 21.195 34.245000000000005, 21.48 33.42 C 21.75 32.67, 21.855 32.535000000000004, 22.02 31.92 C 22.08 31.44, 22.065 31.395000000000003, 22.14 30.96 C 22.23 30.57, 22.23 30.57, 22.32 30.18 C 22.41 29.79, 22.455 29.67, 22.5 29.400000000000002 C 22.5 29.25, 22.5 29.174999999999997, 22.5 29.099999999999998 C 22.5 29.099999999999998, 22.5 29.099999999999998, 22.5 29.099999999999998 C 22.5 29.099999999999998, 22.5 29.099999999999998, 22.5 29.099999999999998 C 22.5 29.099999999999998, 22.5 28.889999999999997, 22.5 29.099999999999998 C 22.5 29.52, 22.5 29.475, 22.5 29.94 C 22.5 30.450000000000003, 22.5 30.375, 22.5 30.96 C 22.5 31.62, 22.455 31.47, 22.5 32.28 C 22.59 33.24, 22.455 33.165000000000006, 22.68 34.2 C 23.04 35.31, 22.979999999999997 35.355000000000004, 23.4 36.42 C 23.88 37.44, 23.82 37.56, 24.36 38.46 C 24.96 39.239999999999995, 24.96 39.36, 25.56 40.019999999999996 C 26.159999999999997 40.559999999999995, 26.205 40.67999999999999, 26.759999999999998 41.099999999999994 C 27.27 41.4, 27.285 41.445, 27.78 41.7 C 28.26 41.91, 28.335 41.955, 28.740000000000002 42.12 C 29.07 42.239999999999995, 28.995000000000005 42.24, 29.400000000000002 42.36 C 29.880000000000003 42.48, 29.925 42.49499999999999, 30.36 42.599999999999994 C 30.75 42.69, 30.945 42.735, 31.14 42.78 C 31.14 42.78, 31.14 42.78, 31.14 42.78 L 31.14 42.78" fill="none" stroke="black" stroke-width="5"></path></svg>