<svg width="48" height="48" viewBox="0 0 48 48" xmlns="http://www.w3.org/2000/svg"><path d="M 17.4 12.899999999999999 C 17.43 11.04, 17.37 10.53, 17.46 9.18 C 17.61 8.34, 17.58 8.19, 17.759999999999998 7.5 C 17.97 6.96, 17.805 6.99, 18.18 6.42 C 18.72 5.82, 18.629999999999995 5.7299999999999995, 19.259999999999998 5.22 C 19.98 4.8, 20.220000000000002 4.59, 20.700000000000003 4.38 C 20.94 4.38, 20.880000000000003 4.245, 21.18 4.38 C 21.54 4.65, 21.45 4.335, 21.9 4.92 C 22.439999999999998 5.82, 22.56 5.955, 22.98 6.720000000000001 C 23.28 7.3500000000000005, 23.325000000000003 7.095000000000001, 23.580000000000002 7.98 C 23.79 9.120000000000001, 23.895 8.91, 24 10.26 C 24 11.82, 24 11.924999999999999, 24 13.379999999999999 C 24 14.73, 24.09 14.220000000000002, 24 16.080000000000002 C 23.82 18.450000000000003, 23.805 18.885, 23.64 20.82 C 23.490000000000002 22.32, 23.445 22.605, 23.34 23.82 C 23.28 24.75, 23.25 24.990000000000002, 23.22 25.68 C 23.22 26.13, 23.265 26.084999999999997, 23.22 26.58 C 23.13 27.12, 23.085 27.135000000000005, 23.04 27.660000000000004 C 23.04 28.17, 23.04 28.32, 23.04 28.68 C 23.04 28.89, 23.04 28.994999999999997, 23.04 29.099999999999998 C 23.04 29.099999999999998, 23.04 29.099999999999998, 23.04 29.099999999999998 C 23.04 29.099999999999998, 23.04 29.099999999999998, 23.04 29.099999999999998 L 23.04 29.099999999999998" fill="none" stroke="black" stroke-width="5"></path><path d="M 21.6 28.98 C 20.85 29.159999999999997, 20.880000000000003 28.919999999999995, 20.1 29.339999999999996 C 19.29 30, 19.065 29.85, 18.48 30.660000000000004 C 18.119999999999997 31.62, 17.939999999999998 31.439999999999998, 17.759999999999998 32.58 C 17.759999999999998 33.9, 17.669999999999998 34.11, 17.759999999999998 35.22 C 17.939999999999998 36.12, 17.685000000000002 36.285, 18.12 37.019999999999996 C 18.810000000000002 37.59, 18.555 37.830000000000005, 19.5 38.160000000000004 C 20.7 38.25, 20.759999999999998 38.37, 21.9 38.339999999999996 C 22.979999999999997 38.19, 23.009999999999998 38.4, 24.06 38.04 C 25.08 37.47, 25.349999999999998 37.470000000000006, 26.099999999999998 36.900000000000006 C 26.58 36.33, 26.7 36.51, 27.06 35.76 C 27.299999999999997 34.83, 27.419999999999998 34.86000000000001, 27.54 33.900000000000006 C 27.54 32.910000000000004, 27.615 32.67, 27.54 31.92 C 27.39 31.410000000000004, 27.450000000000003 31.275000000000002, 27.240000000000002 30.900000000000002 C 26.970000000000002 30.660000000000004, 27.090000000000003 30.705000000000002, 26.700000000000003 30.42 C 26.19 30.09, 26.28 30.03, 25.68 29.759999999999998 C 24.99 29.549999999999997, 24.974999999999998 29.534999999999997, 24.299999999999997 29.339999999999996 C 23.64 29.159999999999997, 23.655 29.055, 22.98 28.98 C 22.29 29.009999999999998, 22.14 28.965, 21.6 29.04 C 21.21 29.16, 21.105 29.175, 20.82 29.28 L 20.46 29.46" fill="none" stroke="black" stroke-width="5"></path><path d="M 18.72 33.42 C 19.86 33.51, 19.725 33.55499999999999, 21 33.599999999999994 C 22.41 33.599999999999994, 22.83 33.599999999999994, 23.82 33.599999999999994 C 24.39 33.599999999999994, 24.405 33.599999999999994, 24.96 33.599999999999994 C 25.5 33.599999999999994, 25.65 33.55499999999999, 26.04 33.599999999999994 C 26.28 33.69, 26.325 33.735, 26.52 33.78 C 26.67 33.78, 26.7 33.78, 26.82 33.78 L 27 33.78" fill="none" stroke="black" stroke-width="5"></path></svg>