<svg width="48" height="48" viewBox="0 0 48 48" xmlns="http://www.w3.org/2000/svg"><path d="M 11.040000000000001 33.480000000000004 C 11.580000000000002 33.510000000000005, 11.355 33.495, 12.120000000000001 33.54 C 13.110000000000001 33.6, 13.215000000000002 33.63, 14.100000000000001 33.660000000000004 C 14.88 33.660000000000004, 14.97 33.660000000000004, 15.66 33.660000000000004 C 16.259999999999998 33.660000000000004, 16.064999999999998 33.75000000000001, 16.86 33.660000000000004 C 17.85 33.480000000000004, 18.015 33.555, 18.84 33.3 C 19.5 32.97, 19.605 33.105, 20.16 32.64 C 20.61 32.04, 20.715 32.04, 21.06 31.44 C 21.299999999999997 30.840000000000003, 21.33 31.140000000000004, 21.54 30.240000000000002 C 21.72 29.04, 21.81 28.83, 21.9 27.839999999999996 C 21.9 27.06, 21.9 26.82, 21.9 26.28 C 21.9 25.98, 21.9 25.83, 21.9 25.68 C 21.9 25.68, 21.869999999999997 25.665, 21.9 25.68 C 21.96 25.71, 21.96 25.125, 22.02 25.740000000000002 C 22.08 26.94, 22.005000000000003 26.985, 22.14 28.14 C 22.35 29.25, 22.275 29.4, 22.56 30.36 C 22.92 31.17, 22.89 31.259999999999998, 23.28 31.98 C 23.7 32.61, 23.79 32.82, 24.119999999999997 33.24 C 24.36 33.45, 24.165 33.58500000000001, 24.599999999999998 33.660000000000004 C 25.229999999999997 33.6, 25.064999999999998 34.005, 25.86 33.54 C 26.82 32.67, 26.880000000000003 32.94, 27.78 31.799999999999997 C 28.62 30.39, 28.875 30.240000000000002, 29.46 28.98 C 29.79 27.869999999999997, 29.955 28.214999999999996, 30.119999999999997 26.759999999999998 C 30.119999999999997 24.96, 30.134999999999998 25.14, 30.119999999999997 23.16 C 30.089999999999996 21, 30.209999999999997 20.85, 30.06 18.84 C 29.79 16.98, 29.835 16.8, 29.52 15.120000000000001 C 29.159999999999997 13.620000000000001, 29.22 13.740000000000002, 28.799999999999997 12.120000000000001 C 28.319999999999997 10.38, 28.274999999999995 9.915000000000001, 27.839999999999996 8.64 C 27.449999999999996 7.83, 27.435 7.74, 27.06 7.02 C 26.699999999999996 6.39, 26.774999999999995 6.285, 26.339999999999996 5.76 C 25.83 5.34, 25.74 5.22, 25.32 4.92 C 24.990000000000002 4.74, 25.065000000000005 4.65, 24.660000000000004 4.5600000000000005 C 24.180000000000003 4.5600000000000005, 24.210000000000004 4.530000000000001, 23.700000000000003 4.5600000000000005 C 23.160000000000004 4.62, 23.145000000000003 4.41, 22.62 4.68 C 22.11 5.16, 22.05 5.1, 21.6 5.64 C 21.21 6.24, 21.255000000000003 5.925, 20.82 6.84 C 20.34 8.07, 20.31 7.995000000000001, 19.86 9.3 C 19.439999999999998 10.68, 19.259999999999998 10.979999999999999, 19.02 12.059999999999999 C 18.96 12.84, 18.93 13.185, 18.9 13.620000000000001 C 18.9 13.71, 18.9 13.754999999999999, 18.9 13.799999999999999 L 18.9 13.799999999999999" fill="none" stroke="black" stroke-width="5"></path><path d="M 20.88 36.900000000000006 C 20.4 36.900000000000006, 20.354999999999997 36.870000000000005, 19.919999999999998 36.900000000000006 C 19.53 36.96, 19.65 36.675, 19.14 37.019999999999996 C 18.509999999999998 37.65, 18.435 37.394999999999996, 17.88 38.28 C 17.4 39.42, 17.294999999999998 39.6, 16.919999999999998 40.56 C 16.65 41.34, 16.515 41.324999999999996, 16.38 42.12 C 16.38 42.93, 16.2 43.005, 16.38 43.74 C 16.740000000000002 44.400000000000006, 16.560000000000002 44.475, 17.1 45.06 C 17.82 45.57, 17.79 45.675, 18.54 46.08 C 19.32 46.379999999999995, 19.305 46.53, 20.1 46.68 C 20.91 46.68, 20.955 46.92, 21.72 46.68 C 22.439999999999998 46.2, 22.47 46.455, 23.16 45.72 C 23.82 44.730000000000004, 24.03 44.985, 24.48 43.74 C 24.72 42.24, 24.84 41.895, 24.96 40.74 C 24.96 39.93, 24.990000000000002 39.855, 24.96 39.12 C 24.9 38.459999999999994, 25.019999999999996 38.339999999999996, 24.839999999999996 37.8 C 24.54 37.379999999999995, 24.585 37.230000000000004, 24.240000000000002 36.96 C 23.85 36.84, 23.895000000000003 36.81, 23.46 36.72 C 22.98 36.66, 23.13 36.50999999999999, 22.5 36.599999999999994 C 21.72 36.839999999999996, 21.615000000000002 36.794999999999995, 20.94 37.08 C 20.369999999999997 37.41, 20.174999999999997 37.485, 19.799999999999997 37.74 C 19.619999999999997 37.92, 19.53 38.01, 19.44 38.099999999999994 L 19.44 38.099999999999994" fill="none" stroke="black" stroke-width="5"></path></svg>