<svg width="48" height="48" viewBox="0 0 48 48" xmlns="http://www.w3.org/2000/svg"><path d="M 12.84 44.099999999999994 C 11.91 41.879999999999995, 11.79 41.7, 10.98 39.660000000000004 C 10.290000000000001 37.8, 10.305000000000001 37.769999999999996, 9.600000000000001 35.94 C 8.88 34.14, 8.685 33.824999999999996, 8.16 32.339999999999996 C 7.83 31.169999999999998, 7.665 30.974999999999998, 7.5 30 C 7.5 29.22, 7.41 29.1, 7.5 28.44 C 7.68 27.9, 7.425000000000001 27.9, 7.86 27.36 C 8.55 26.82, 8.385 26.64, 9.24 26.28 C 10.26 26.1, 10.334999999999999 26.01, 11.28 25.92 C 12.149999999999999 25.92, 11.85 25.92, 13.02 25.92 C 14.49 25.92, 14.535 25.92, 15.96 25.92 C 17.34 25.92, 17.52 25.965000000000003, 18.72 25.92 C 19.74 25.830000000000002, 19.769999999999996 25.950000000000003, 20.759999999999998 25.740000000000002 C 21.72 25.41, 21.825 25.994999999999997, 22.68 25.08 C 23.43 23.58, 23.775 23.865000000000002, 24.18 22.080000000000002 C 24.24 20.01, 24.33 19.815, 24.299999999999997 17.94 C 24.18 16.26, 24.284999999999997 16.050000000000004, 24.06 14.580000000000002 C 23.729999999999997 13.32, 23.88 13.004999999999999, 23.4 12.059999999999999 C 22.77 11.43, 22.845 11.190000000000001, 22.14 10.8 C 21.36 10.65, 21.300000000000004 10.575, 20.580000000000002 10.5 C 19.92 10.5, 19.83 10.379999999999999, 19.259999999999998 10.5 C 18.779999999999998 10.74, 18.794999999999995 10.56, 18.299999999999997 10.98 C 17.79 11.58, 17.64 11.49, 17.28 12.18 C 17.07 12.96, 16.965 12.75, 16.86 13.74 C 16.86 14.940000000000001, 16.77 15.09, 16.86 16.14 C 17.04 17.04, 17.009999999999998 17.25, 17.22 17.94 C 17.46 18.42, 17.580000000000002 18.66, 17.700000000000003 18.9 L 17.700000000000003 18.9" fill="none" stroke="black" stroke-width="5"></path></svg>