<svg width="48" height="48" viewBox="0 0 48 48" xmlns="http://www.w3.org/2000/svg"><path d="M 17.28 3.12 C 16.77 3.9, 16.95 3.3449999999999998, 16.259999999999998 4.68 C 15.389999999999999 6.569999999999999, 15.434999999999999 6.119999999999999, 14.52 8.459999999999999 C 13.56 11.25, 13.23 11.864999999999998, 12.600000000000001 14.04 C 12.3 15.6, 12.345 15.375, 12 17.16 C 11.61 19.17, 11.46 19.365, 11.22 21.18 C 11.13 22.8, 11.07 23.085, 11.040000000000001 24.42 C 11.07 25.47, 10.995000000000001 25.755, 11.100000000000001 26.52 C 11.280000000000001 27, 11.114999999999998 27.015, 11.459999999999999 27.48 C 11.969999999999999 27.93, 11.94 27.990000000000002, 12.48 28.380000000000003 C 13.05 28.71, 13.065000000000001 28.875, 13.620000000000001 29.04 C 14.16 29.04, 14.145000000000001 29.174999999999997, 14.700000000000001 29.04 C 15.27 28.77, 15.36 28.845, 15.84 28.5 C 16.23 28.080000000000002, 16.200000000000003 28.200000000000003, 16.62 27.660000000000004 C 17.07 27, 16.995 27.089999999999996, 17.52 26.339999999999996 C 18.119999999999997 25.5, 17.97 25.845000000000002, 18.72 24.660000000000004 C 19.619999999999997 23.130000000000003, 19.95 22.71, 20.52 21.6 C 20.759999999999998 20.91, 20.88 20.564999999999998, 21 20.22 C 21 20.22, 21 20.22, 21 20.22 C 21 20.22, 21 20.055, 21 20.22 C 21 20.549999999999997, 21.045 20.445, 21 20.88 C 20.91 21.42, 20.91 21.27, 20.82 21.96 C 20.73 22.8, 20.685000000000002 22.785, 20.64 23.64 C 20.64 24.51, 20.64 24.630000000000003, 20.64 25.380000000000003 C 20.64 26.01, 20.55 26.160000000000004, 20.64 26.64 C 20.82 26.97, 20.7 26.955, 21 27.299999999999997 C 21.42 27.659999999999997, 21.495 27.765, 21.84 28.02 C 22.11 28.17, 22.095 28.185000000000002, 22.38 28.32 C 22.68 28.439999999999998, 22.665 28.5, 22.98 28.56 C 23.310000000000002 28.56, 23.205000000000002 28.529999999999998, 23.64 28.56 C 24.18 28.619999999999997, 24.195 28.605, 24.72 28.68 C 25.23 28.77, 25.14 28.68, 25.740000000000002 28.86 C 26.43 29.130000000000003, 26.625 29.160000000000004, 27.119999999999997 29.400000000000002 C 27.419999999999998 29.61, 27.404999999999998 29.565, 27.72 29.82 C 28.05 30.12, 28.050000000000004 30.105000000000004, 28.380000000000003 30.42 C 28.71 30.75, 28.740000000000002 30.705, 29.04 31.08 C 29.31 31.5, 29.369999999999997 31.47, 29.58 31.92 C 29.73 32.400000000000006, 29.805 32.370000000000005, 29.880000000000003 32.88 C 29.880000000000003 33.42, 29.880000000000003 33.39, 29.880000000000003 33.96 C 29.880000000000003 34.56, 29.955000000000005 34.56, 29.880000000000003 35.160000000000004 C 29.73 35.760000000000005, 29.775 35.82, 29.58 36.36 C 29.339999999999996 36.84, 29.474999999999998 36.78, 29.099999999999998 37.32 C 28.589999999999996 37.92, 28.754999999999995 37.964999999999996, 28.08 38.519999999999996 C 27.240000000000002 39.03, 27.540000000000003 39.074999999999996, 26.400000000000002 39.54 C 24.96 39.96, 24.975 40.08, 23.52 40.38 C 22.05 40.56, 21.645000000000003 40.650000000000006, 20.580000000000002 40.74 C 19.92 40.74, 19.875 40.785000000000004, 19.259999999999998 40.74 C 18.689999999999998 40.650000000000006, 18.615000000000002 40.725, 18.12 40.56 C 17.700000000000003 40.32, 17.535 40.245, 17.28 40.08 L 17.1 39.900000000000006" fill="none" stroke="black" stroke-width="5"></path><path d="M 24.06 28.740000000000002 C 24.39 28.92, 24.285 29.009999999999998, 24.72 29.099999999999998 C 25.259999999999998 29.099999999999998, 25.124999999999996 29.279999999999998, 25.799999999999997 29.099999999999998 C 26.61 28.740000000000002, 26.73 28.965000000000003, 27.42 28.380000000000003 C 27.990000000000002 27.57, 28.02 27.78, 28.56 26.759999999999998 C 29.07 25.529999999999998, 29.174999999999997 25.679999999999996, 29.58 24.299999999999997 C 29.88 22.77, 30.015 22.785, 30.18 21.240000000000002 C 30.21 19.68, 30.225 19.365000000000002, 30.240000000000002 18.12 C 30.240000000000002 17.189999999999998, 30.285000000000004 16.919999999999998, 30.240000000000002 16.259999999999998 C 30.15 15.87, 30.314999999999998 15.885, 30.06 15.48 C 29.64 15.06, 29.729999999999997 15.06, 29.22 14.64 C 28.619999999999997 14.219999999999999, 28.695 14.114999999999998, 28.02 13.799999999999999 C 27.27 13.59, 27.36 13.485, 26.52 13.379999999999999 C 25.590000000000003 13.379999999999999, 25.545 13.334999999999999, 24.660000000000004 13.379999999999999 C 23.82 13.469999999999999, 23.895000000000003 13.334999999999999, 22.98 13.559999999999999 C 21.990000000000002 13.919999999999998, 21.93 13.799999999999999, 21 14.28 C 20.13 14.879999999999999, 19.904999999999998 14.955, 19.259999999999998 15.48 C 18.839999999999996 15.93, 18.974999999999998 15.764999999999999, 18.419999999999998 16.38 C 17.729999999999997 17.16, 17.58 17.130000000000003, 17.04 17.94 C 16.65 18.78, 16.47 19.155, 16.259999999999998 19.62 C 16.23 19.71, 16.215000000000003 19.755, 16.200000000000003 19.799999999999997 L 16.200000000000003 19.799999999999997" fill="none" stroke="black" stroke-width="5"></path></svg>