<svg width="48" height="48" viewBox="0 0 48 48" xmlns="http://www.w3.org/2000/svg"><path d="M 16.080000000000002 3.84 C 15.96 4.68, 16.05 4.140000000000001, 15.84 5.5200000000000005 C 15.54 7.4399999999999995, 15.51 7.484999999999999, 15.24 9.36 C 15 11.19, 14.924999999999999 11.475, 14.76 13.02 C 14.670000000000002 14.28, 14.625000000000002 14.07, 14.580000000000002 15.54 C 14.580000000000002 17.22, 14.580000000000002 17.25, 14.580000000000002 18.9 C 14.580000000000002 20.52, 14.535000000000002 20.73, 14.580000000000002 22.14 C 14.670000000000002 23.34, 14.625 23.52, 14.76 24.54 C 14.940000000000001 25.38, 14.865000000000002 25.409999999999997, 15.120000000000001 26.22 C 15.45 27, 15.39 27.135, 15.78 27.78 C 16.23 28.29, 16.169999999999998 28.424999999999997, 16.68 28.799999999999997 C 17.25 29.04, 17.265 29.1, 17.82 29.28 C 18.36 29.4, 18.299999999999997 29.46, 18.9 29.52 C 19.56 29.52, 19.515 29.58, 20.22 29.52 C 20.97 29.4, 21.075 29.715, 21.72 29.28 C 22.259999999999998 28.53, 22.349999999999998 28.560000000000002, 22.799999999999997 27.78 C 23.159999999999997 26.970000000000002, 23.009999999999998 27.225000000000005, 23.52 26.160000000000004 C 24.18 24.840000000000003, 24.434999999999995 24.42, 24.839999999999996 23.52 C 24.99 23.04, 25.064999999999998 22.799999999999997, 25.14 22.56 C 25.14 22.56, 25.11 22.575, 25.14 22.56 C 25.2 22.53, 25.214999999999996 22.335, 25.259999999999998 22.5 C 25.29 22.86, 25.245 22.68, 25.32 23.22 C 25.439999999999998 23.94, 25.395 24.015000000000004, 25.56 24.660000000000004 C 25.77 25.23, 25.785 25.349999999999998, 25.98 25.799999999999997 C 26.159999999999997 26.13, 26.084999999999997 26.130000000000003, 26.339999999999996 26.46 C 26.669999999999998 26.79, 26.625 26.834999999999997, 27 27.119999999999997 C 27.419999999999998 27.36, 27.404999999999994 27.479999999999997, 27.839999999999996 27.599999999999998 C 28.29 27.599999999999998, 28.275 27.629999999999995, 28.740000000000002 27.599999999999998 C 29.220000000000002 27.54, 29.235000000000003 27.69, 29.700000000000003 27.48 C 30.15 27.119999999999997, 30.224999999999998 27.299999999999997, 30.599999999999998 26.759999999999998 C 30.9 26.04, 31.005000000000003 26.310000000000002, 31.200000000000003 25.32 C 31.290000000000003 24.06, 31.335 23.97, 31.380000000000003 22.799999999999997 C 31.380000000000003 21.72, 31.485000000000003 21.78, 31.380000000000003 20.64 C 31.17 19.44, 31.32 19.44, 30.96 18.240000000000002 C 30.450000000000003 17.04, 30.540000000000003 16.86, 29.94 15.84 C 29.25 15, 29.355 14.685, 28.56 14.16 C 27.659999999999997 13.95, 27.674999999999997 13.845, 26.759999999999998 13.74 C 25.83 13.74, 25.785000000000004 13.47, 24.900000000000002 13.74 C 24.060000000000002 14.280000000000001, 24.075 14.13, 23.22 14.82 C 22.35 15.66, 22.335 15.27, 21.48 16.5 C 20.64 18.12, 20.369999999999997 18.255000000000003, 19.799999999999997 19.740000000000002 C 19.5 21.090000000000003, 19.35 21.495, 19.200000000000003 22.44 C 19.200000000000003 22.98, 19.200000000000003 23.25, 19.200000000000003 23.52 L 19.200000000000003 23.52" fill="none" stroke="black" stroke-width="5"></path><path d="M 15.059999999999999 38.64 C 17.22 38.010000000000005, 17.445 37.74, 19.38 37.38 C 21.089999999999996 37.290000000000006, 21.134999999999998 37.290000000000006, 22.799999999999997 37.2 C 24.419999999999998 37.11, 24.585 37.065, 26.04 37.019999999999996 C 27.33 37.019999999999996, 27.54 37.019999999999996, 28.619999999999997 37.019999999999996 C 29.49 37.019999999999996, 29.52 36.88499999999999, 30.36 37.019999999999996 C 31.17 37.29, 31.575 37.425, 31.98 37.56 C 31.98 37.56, 31.98 37.56, 31.98 37.56 L 31.98 37.56" fill="none" stroke="black" stroke-width="5"></path></svg>