<svg width="48" height="48" viewBox="0 0 48 48" xmlns="http://www.w3.org/2000/svg"><path d="M 13.86 30.96 C 13.8 30.96, 13.95 31.380000000000003, 13.74 30.96 C 13.379999999999999 30.12, 13.365 30.225, 13.02 29.28 C 12.69 28.23, 12.614999999999998 28.365000000000002, 12.36 27.18 C 12.18 25.86, 12.09 25.619999999999997, 12 24.54 C 12 23.7, 12 23.61, 12 22.86 C 12 22.2, 12 22.29, 12 21.54 C 12 20.7, 11.91 20.715, 12 19.86 C 12.18 18.990000000000002, 12.149999999999999 18.78, 12.36 18.12 C 12.6 17.67, 12.555 17.55, 12.84 17.22 C 13.17 17.009999999999998, 12.9 16.964999999999996, 13.5 16.799999999999997 C 14.370000000000001 16.68, 14.385000000000002 16.485, 15.24 16.56 C 16.08 16.83, 16.154999999999998 16.605, 16.919999999999998 17.1 C 17.61 17.82, 17.804999999999996 17.88, 18.299999999999997 18.54 C 18.599999999999998 19.14, 18.615 18.840000000000003, 18.9 19.740000000000002 C 19.17 20.94, 19.305 21.240000000000002, 19.44 22.14 C 19.44 22.740000000000002, 19.425 22.995, 19.44 23.34 C 19.47 23.43, 19.485 23.475, 19.5 23.52 C 19.5 23.52, 19.485 23.505, 19.5 23.52 C 19.53 23.55, 19.544999999999998 23.82, 19.56 23.580000000000002 C 19.56 23.07, 19.56 23.22, 19.56 22.56 C 19.56 21.75, 19.47 21.615000000000002, 19.56 20.94 C 19.74 20.4, 19.755 20.34, 19.919999999999998 19.86 C 20.07 19.439999999999998, 20.009999999999998 19.395, 20.22 19.02 C 20.49 18.689999999999998, 20.459999999999997 18.689999999999998, 20.759999999999998 18.36 C 21.089999999999996 18.03, 20.985 17.895000000000003, 21.419999999999998 17.700000000000003 C 21.96 17.64, 21.93 17.550000000000004, 22.5 17.580000000000002 C 23.1 17.700000000000003, 23.085 17.73, 23.700000000000003 17.82 C 24.330000000000002 17.880000000000003, 24.255000000000003 17.91, 24.96 17.94 C 25.740000000000002 17.94, 25.814999999999998 18.195, 26.52 17.94 C 27.15 17.43, 27.330000000000002 17.474999999999998, 27.78 16.919999999999998 C 28.05 16.32, 28.125 16.59, 28.32 15.72 C 28.439999999999998 14.580000000000002, 28.5 14.625000000000002, 28.56 13.440000000000001 C 28.56 12.21, 28.74 12.495000000000001, 28.56 10.98 C 28.199999999999996 9.18, 28.319999999999997 8.865, 27.839999999999996 7.38 C 27.24 6.21, 27.105 5.835, 26.64 5.04 C 26.310000000000002 4.619999999999999, 26.475 4.514999999999999, 25.98 4.199999999999999 C 25.32 3.9899999999999998, 25.320000000000004 3.885, 24.660000000000004 3.7800000000000002 C 24 3.7800000000000002, 23.985 3.7350000000000003, 23.34 3.7800000000000002 C 22.71 3.87, 22.635 3.795, 22.080000000000002 3.96 C 21.6 4.199999999999999, 21.615000000000002 4.02, 21.12 4.4399999999999995 C 20.61 5.039999999999999, 20.55 4.935, 20.1 5.64 C 19.71 6.449999999999999, 19.65 6.239999999999999, 19.32 7.26 C 19.05 8.49, 18.915 8.955, 18.78 9.72 C 18.78 10.02, 18.78 10.17, 18.78 10.32 L 18.78 10.32" fill="none" stroke="black" stroke-width="5"></path><path d="M 19.62 22.799999999999997 C 19.59 23.279999999999998, 19.529999999999998 23.159999999999997, 19.56 23.759999999999998 C 19.65 24.48, 19.62 24.405, 19.740000000000002 25.200000000000003 C 19.89 26.07, 19.845 25.830000000000002, 20.04 26.94 C 20.28 28.29, 20.34 28.470000000000002, 20.52 29.64 C 20.64 30.63, 20.7 30.554999999999996, 20.759999999999998 31.619999999999997 C 20.759999999999998 32.760000000000005, 20.759999999999998 32.86500000000001, 20.759999999999998 33.900000000000006 C 20.759999999999998 34.83, 20.849999999999998 34.665, 20.759999999999998 35.76 C 20.58 37.019999999999996, 20.759999999999998 36.975, 20.4 38.28 C 19.86 39.63, 19.875 39.870000000000005, 19.32 40.980000000000004 C 18.75 41.85, 18.945 41.88, 18.18 42.72 C 17.22 43.53, 17.22 43.66499999999999, 16.259999999999998 44.339999999999996 C 15.299999999999999 44.879999999999995, 15.09 45.015, 14.34 45.42 C 13.8 45.69, 13.53 45.825, 13.26 45.96 C 13.26 45.96, 13.365 45.945, 13.26 45.96 L 12.84 46.019999999999996" fill="none" stroke="black" stroke-width="5"></path></svg>