<svg width="48" height="48" viewBox="0 0 48 48" xmlns="http://www.w3.org/2000/svg"><path d="M 13.440000000000001 45.12 C 13.14 43.41, 13.155000000000001 43.86, 12.84 41.7 C 12.51 39.09, 12.434999999999999 38.31, 12.18 36.480000000000004 C 12 35.43000000000001, 11.97 35.47500000000001, 11.82 34.38 C 11.7 33.239999999999995, 11.715 33.254999999999995, 11.58 32.099999999999994 C 11.43 30.929999999999996, 11.399999999999999 30.749999999999996, 11.28 29.759999999999998 C 11.190000000000001 28.95, 11.145000000000001 28.8, 11.100000000000001 28.14 C 11.100000000000001 27.63, 11.100000000000001 27.63, 11.100000000000001 27.119999999999997 C 11.100000000000001 26.61, 11.070000000000002 26.639999999999997, 11.100000000000001 26.099999999999998 C 11.16 25.53, 11.085 25.44, 11.22 24.96 C 11.43 24.57, 11.415000000000001 24.509999999999998, 11.64 24.18 C 11.88 23.91, 11.91 23.835, 12.120000000000001 23.64 C 12.3 23.52, 12.120000000000001 23.505, 12.48 23.4 C 13.02 23.31, 12.899999999999999 23.31, 13.559999999999999 23.22 C 14.34 23.13, 14.325 23.085, 15.120000000000001 23.04 C 15.930000000000001 23.04, 15.96 23.04, 16.740000000000002 23.04 C 17.490000000000002 23.04, 17.550000000000004 23.04, 18.240000000000002 23.04 C 18.87 23.04, 18.84 23.04, 19.5 23.04 C 20.189999999999998 23.04, 20.265 23.04, 20.88 23.04 C 21.42 23.04, 21.51 23.04, 21.96 23.04 C 22.32 23.04, 22.305 23.04, 22.68 23.04 C 23.07 23.04, 23.025 23.04, 23.46 23.04 C 23.94 23.04, 24.03 23.04, 24.42 23.04 C 24.72 23.04, 24.675 23.07, 25.02 23.04 C 25.409999999999997 22.979999999999997, 25.439999999999998 23.025, 25.799999999999997 22.919999999999998 C 26.13 22.77, 26.175 22.8, 26.46 22.62 C 26.700000000000003 22.410000000000004, 26.67 22.545, 26.94 22.200000000000003 C 27.240000000000002 21.720000000000002, 27.315 21.825000000000003, 27.54 21.240000000000002 C 27.689999999999998 20.55, 27.719999999999995 20.744999999999997, 27.839999999999996 19.86 C 27.93 18.78, 27.974999999999998 18.570000000000004, 28.02 17.700000000000003 C 28.02 17.04, 28.11 17.25, 28.02 16.38 C 27.840000000000003 15.3, 27.915000000000003 15.18, 27.660000000000004 14.22 C 27.330000000000002 13.379999999999999, 27.48 13.41, 27 12.54 C 26.37 11.64, 26.37 11.49, 25.740000000000002 10.74 C 25.11 10.14, 25.125 9.975000000000001, 24.48 9.540000000000001 C 23.82 9.27, 23.79 9.135, 23.16 9 C 22.560000000000002 9, 22.545 8.955, 21.96 9 C 21.39 9.09, 21.315 8.969999999999999, 20.82 9.18 C 20.4 9.51, 20.490000000000002 9.375, 19.98 9.84 C 19.380000000000003 10.440000000000001, 19.305 10.275000000000002, 18.78 11.040000000000001 C 18.33 11.969999999999999, 18.27 11.985, 17.88 12.899999999999999 C 17.549999999999997 13.8, 17.46 13.8, 17.22 14.700000000000001 C 17.07 15.600000000000001, 17.025 15.645, 16.919999999999998 16.5 C 16.86 17.310000000000002, 16.83 17.535, 16.799999999999997 18.12 C 16.799999999999997 18.48, 16.799999999999997 18.66, 16.799999999999997 18.84 C 16.799999999999997 18.84, 16.799999999999997 18.84, 16.799999999999997 18.84 L 16.799999999999997 18.84" fill="none" stroke="black" stroke-width="5"></path><path d="M 21.240000000000002 31.200000000000003 C 20.73 31.17, 20.895 30.84, 20.22 31.14 C 19.38 31.770000000000003, 19.229999999999997 31.515000000000008, 18.54 32.400000000000006 C 18 33.540000000000006, 17.73 33.36, 17.46 34.68 C 17.46 36.18, 17.220000000000002 36.51, 17.46 37.68 C 17.939999999999998 38.519999999999996, 17.88 38.775, 18.419999999999998 39.36 C 19.02 39.69, 18.900000000000002 39.794999999999995, 19.62 40.019999999999996 C 20.46 40.14, 20.505 40.379999999999995, 21.299999999999997 40.26 C 22.049999999999997 39.9, 22.229999999999997 40.125, 22.799999999999997 39.54 C 23.189999999999998 38.730000000000004, 23.340000000000003 38.61, 23.580000000000002 37.92 C 23.67 37.35, 23.729999999999997 37.56, 23.759999999999998 36.78 C 23.73 35.79, 23.85 35.775, 23.700000000000003 34.8 C 23.43 33.84, 23.445 33.72, 23.16 32.88 C 22.86 32.160000000000004, 23.04 32.04, 22.56 31.44 C 21.9 30.96, 22.035000000000004 30.78, 21.240000000000002 30.48 C 20.310000000000002 30.36, 20.1 30.285000000000004, 19.38 30.240000000000002 C 18.869999999999997 30.27, 18.615 30.284999999999997, 18.36 30.299999999999997 L 18.36 30.299999999999997" fill="none" stroke="black" stroke-width="5"></path></svg>