<svg width="48" height="48" viewBox="0 0 48 48" xmlns="http://www.w3.org/2000/svg"><path d="M 11.7 27.119999999999997 C 11.4 25.019999999999996, 11.25 24.584999999999997, 11.100000000000001 22.919999999999998 C 11.100000000000001 21.689999999999998, 10.875000000000002 22.035, 11.100000000000001 20.46 C 11.55 18.54, 11.46 18.21, 12 16.62 C 12.629999999999999 15.360000000000001, 12.705 15.090000000000002, 13.26 14.100000000000001 C 13.74 13.38, 13.815000000000001 13.170000000000002, 14.22 12.66 C 14.55 12.36, 14.325 11.954999999999998, 14.879999999999999 12.059999999999999 C 15.66 12.57, 15.675 12.375000000000002, 16.44 13.080000000000002 C 17.19 13.98, 17.310000000000002 13.724999999999998, 17.94 14.879999999999999 C 18.450000000000003 16.29, 18.6 16.095000000000002, 18.96 17.700000000000003 C 19.17 19.5, 19.23 19.994999999999997, 19.38 21.299999999999997 C 19.47 22.11, 19.515 22.514999999999997, 19.56 22.919999999999998 C 19.56 22.919999999999998, 19.56 22.919999999999998, 19.56 22.919999999999998 C 19.56 22.919999999999998, 19.65 23.279999999999998, 19.56 22.919999999999998 C 19.380000000000003 22.2, 19.290000000000003 22.56, 19.200000000000003 21.48 C 19.200000000000003 20.04, 19.185000000000002 19.785, 19.200000000000003 18.6 C 19.23 17.67, 19.08 17.595000000000002, 19.259999999999998 16.740000000000002 C 19.589999999999996 15.96, 19.634999999999998 15.765, 19.919999999999998 15.18 C 20.159999999999997 14.79, 20.025 14.879999999999999, 20.4 14.399999999999999 C 20.909999999999997 13.829999999999998, 20.955 13.68, 21.419999999999998 13.26 C 21.839999999999996 12.99, 21.735 12.96, 22.259999999999998 12.72 C 22.89 12.51, 22.83 12.45, 23.52 12.299999999999999 C 24.27 12.21, 23.91 12.165000000000001, 25.02 12.120000000000001 C 26.490000000000002 12.120000000000001, 26.745 12.120000000000001, 27.96 12.120000000000001 C 28.92 12.120000000000001, 29.235000000000003 12.120000000000001, 29.880000000000003 12.120000000000001 C 30.21 12.120000000000001, 30.375 12.120000000000001, 30.54 12.120000000000001 L 30.54 12.120000000000001" fill="none" stroke="black" stroke-width="5"></path><path d="M 17.46 9.120000000000001 C 17.91 8.31, 17.775 8.370000000000001, 18.36 7.5 C 19.08 6.57, 19.154999999999998 6.465, 19.799999999999997 5.64 C 20.369999999999997 4.92, 20.25 4.859999999999999, 20.94 4.199999999999999 C 21.75 3.5999999999999996, 21.75 3.4349999999999996, 22.56 3 C 23.369999999999997 2.73, 23.415 2.61, 24.18 2.46 C 24.9 2.43, 25.064999999999998 2.37, 25.619999999999997 2.4000000000000004 C 26.009999999999998 2.49, 25.905 2.2800000000000002, 26.400000000000002 2.58 C 27 3.09, 27.075 3.0449999999999995, 27.599999999999998 3.5999999999999996 C 28.049999999999997 4.2, 28.065 4.140000000000001, 28.5 4.800000000000001 C 28.919999999999998 5.5200000000000005, 29.054999999999996 5.61, 29.339999999999996 6.24 C 29.49 6.78, 29.43 6.630000000000001, 29.64 7.32 C 29.91 8.16, 30 8.1, 30.18 9 C 30.27 9.96, 30.314999999999998 9.93, 30.36 10.92 C 30.36 11.940000000000001, 30.36 11.775, 30.36 12.96 C 30.36 14.31, 30.36 14.385000000000002, 30.36 15.66 C 30.36 16.86, 30.36 16.32, 30.36 18.06 C 30.36 20.34, 30.36 20.880000000000003, 30.36 22.62 C 30.36 23.82, 30.36 24.39, 30.36 25.02 C 30.36 25.08, 30.405 25.125, 30.36 25.14 L 30.18 25.08" fill="none" stroke="black" stroke-width="5"></path><path d="M 23.64 12.54 C 23.64 13.56, 23.64 13.170000000000002, 23.64 14.580000000000002 C 23.64 16.380000000000003, 23.595 16.53, 23.64 18.18 C 23.73 19.68, 23.564999999999998 19.53, 23.82 21.18 C 24.240000000000002 22.98, 24.225000000000005 23.07, 24.660000000000004 24.78 C 25.11 26.4, 25.02 26.73, 25.56 28.02 C 26.189999999999998 28.98, 26.19 29.175, 26.82 29.94 C 27.45 30.509999999999998, 27.375 30.63, 28.08 31.08 C 28.86 31.41, 28.814999999999998 31.455000000000002, 29.64 31.740000000000002 C 30.51 31.98, 30.78 31.965, 31.380000000000003 32.22 C 31.71 32.489999999999995, 31.814999999999998 32.459999999999994, 32.04 32.76 C 32.16 33.09, 32.22 33.105000000000004, 32.28 33.42 C 32.28 33.72, 32.535000000000004 33.644999999999996, 32.28 34.019999999999996 C 31.77 34.47, 31.875 34.53, 31.259999999999998 34.92 C 30.54 35.25, 30.75 35.19, 29.82 35.58 C 28.68 36.03, 28.92 36.045, 27.54 36.480000000000004 C 25.919999999999998 36.900000000000006, 25.574999999999996 36.915000000000006, 24.299999999999997 37.32 C 23.369999999999997 37.709999999999994, 23.55 37.425, 22.44 38.099999999999994 C 21.15 39.059999999999995, 20.91 38.834999999999994, 19.86 40.019999999999996 C 19.05 41.42999999999999, 18.825000000000003 41.474999999999994, 18.240000000000002 42.839999999999996 C 17.880000000000003 44.16, 17.7 44.370000000000005, 17.52 45.480000000000004 C 17.52 46.38, 17.52 46.71, 17.52 47.28 C 17.52 47.519999999999996, 17.52 47.64, 17.52 47.76 C 17.52 47.76, 17.564999999999998 47.775, 17.52 47.76 L 17.34 47.7" fill="none" stroke="black" stroke-width="5"></path><path d="M 9.959999999999999 32.160000000000004 C 10.95 32.61, 10.334999999999999 32.25, 11.94 33.06 C 14.16 34.230000000000004, 14.429999999999998 34.050000000000004, 16.38 35.400000000000006 C 18.060000000000002 36.93000000000001, 18.720000000000002 37.53, 19.740000000000002 38.46 C 20.1 38.79, 20.265 38.91, 20.46 39.12 L 20.52 39.3" fill="none" stroke="black" stroke-width="5"></path></svg>