<svg width="48" height="48" viewBox="0 0 48 48" xmlns="http://www.w3.org/2000/svg"><path d="M 17.52 9.899999999999999 C 18.630000000000003 9.6, 17.970000000000002 9.540000000000001, 19.740000000000002 9.3 C 22.17 9.120000000000001, 22.034999999999997 8.985, 24.599999999999998 8.94 C 27.299999999999997 9.030000000000001, 27.63 8.625, 30 9.120000000000001 C 32.04 10.02, 32.43 9.885, 34.08 10.92 C 35.339999999999996 12.09, 35.595 11.685, 36.599999999999994 13.26 C 37.349999999999994 15.239999999999998, 37.60499999999999 14.834999999999999, 38.099999999999994 17.22 C 38.339999999999996 20.009999999999998, 38.459999999999994 20.444999999999997, 38.58 22.799999999999997 C 38.58 24.72, 38.894999999999996 24.509999999999998, 38.58 26.64 C 37.95 28.98, 38.055 29.415, 37.32 31.32 C 36.480000000000004 32.79, 36.45 33.135, 35.64 34.26 C 34.86 35.04, 35.19 35.115, 34.08 35.82 C 32.64 36.45, 32.625 36.614999999999995, 31.200000000000003 37.08 C 29.790000000000003 37.379999999999995, 30.090000000000003 37.53, 28.380000000000003 37.68 C 26.37 37.68, 25.935 37.695, 24.36 37.68 C 23.22 37.65, 23.07 37.754999999999995, 22.080000000000002 37.62 C 21.240000000000002 37.379999999999995, 21.27 37.59, 20.4 37.14 C 19.5 36.480000000000004, 19.425 36.66, 18.6 35.82 C 17.85 34.8, 17.64 34.56, 17.1 33.78 C 16.770000000000003 33.24, 16.740000000000002 33.345, 16.44 32.7 C 16.17 31.950000000000003, 16.035 31.995000000000005, 15.899999999999999 31.200000000000003 C 15.899999999999999 30.36, 15.735 30.405, 15.899999999999999 29.52 C 16.229999999999997 28.590000000000003, 16.244999999999997 28.335000000000004, 16.56 27.660000000000004 C 16.86 27.240000000000002, 16.935 27.090000000000003, 17.16 26.82 C 17.310000000000002 26.7, 17.175 26.714999999999996, 17.46 26.58 C 17.88 26.43, 17.894999999999996 26.355, 18.299999999999997 26.28 C 18.689999999999998 26.28, 18.735 26.265, 19.080000000000002 26.28 C 19.380000000000003 26.31, 19.245 26.174999999999997, 19.68 26.339999999999996 C 20.25 26.64, 20.28 26.58, 20.82 26.94 C 21.33 27.36, 21.42 27.405, 21.84 27.78 C 22.17 28.11, 22.14 27.96, 22.5 28.44 C 22.89 29.07, 22.995 29.175000000000004, 23.28 29.700000000000003 C 23.46 30.12, 23.505000000000003 29.94, 23.64 30.54 C 23.73 31.319999999999997, 23.775 31.409999999999997, 23.82 32.099999999999994 C 23.82 32.699999999999996, 23.835 32.63999999999999, 23.82 33.3 C 23.79 34.019999999999996, 23.894999999999996 34.17, 23.759999999999998 34.74 C 23.52 35.16, 23.505000000000003 35.205, 23.28 35.58 C 23.07 35.91, 22.965 36.075, 22.86 36.24 C 22.86 36.24, 22.86 36.24, 22.86 36.24 L 22.86 36.24" fill="none" stroke="black" stroke-width="5"></path></svg>