<svg width="48" height="48" viewBox="0 0 48 48" xmlns="http://www.w3.org/2000/svg"><path d="M 15.299999999999999 11.399999999999999 C 16.29 11.489999999999998, 16.17 11.49, 17.28 11.58 C 18.51 11.67, 18.465000000000003 11.715, 19.740000000000002 11.76 C 21.060000000000002 11.76, 21.3 11.76, 22.38 11.76 C 23.22 11.76, 23.325 11.76, 24.06 11.76 C 24.689999999999998 11.76, 24.705 11.76, 25.32 11.76 C 25.92 11.76, 26.025 11.76, 26.52 11.76 C 26.909999999999997 11.76, 27.104999999999997 11.76, 27.299999999999997 11.76 C 27.299999999999997 11.76, 27.299999999999997 11.76, 27.299999999999997 11.76 L 27.299999999999997 11.76" fill="none" stroke="black" stroke-width="5"></path><path d="M 27.240000000000002 3.54 C 27.21 3.93, 27.195 3.7200000000000006, 27.18 4.32 C 27.18 5.13, 27.18 4.89, 27.18 5.9399999999999995 C 27.18 7.2299999999999995, 27.18 7.56, 27.18 8.52 C 27.18 9.149999999999999, 27.18 9, 27.18 9.78 C 27.18 10.71, 27.18 10.815, 27.18 11.64 C 27.18 12.360000000000001, 27.18 12.195000000000002, 27.18 13.080000000000002 C 27.18 14.13, 27.18 14.325, 27.18 15.18 C 27.18 15.84, 27.18 15.84, 27.18 16.5 C 27.18 17.16, 27.18 17.295, 27.18 17.82 C 27.18 18.21, 27.18 17.985, 27.18 18.6 C 27.18 19.44, 27.18 19.635, 27.18 20.28 C 27.18 20.73, 27.18 20.835, 27.18 21.18 L 27.18 21.66" fill="none" stroke="black" stroke-width="5"></path><path d="M 21.36 16.68 C 21.03 17.1, 20.910000000000004 16.8, 20.700000000000003 17.52 C 20.61 18.54, 20.55 18.435, 20.52 19.56 C 20.55 20.79, 20.400000000000002 20.744999999999997, 20.580000000000002 22.02 C 20.910000000000004 23.340000000000003, 20.880000000000003 23.655000000000005, 21.240000000000002 24.660000000000004 C 21.630000000000003 25.35, 21.42 25.335, 22.02 26.04 C 22.83 26.759999999999998, 22.62 26.865000000000002, 23.64 27.48 C 24.869999999999997 27.990000000000002, 25.034999999999997 28.125, 26.099999999999998 28.5 C 27 28.740000000000002, 27.195 28.695, 27.900000000000002 28.98 C 28.410000000000004 29.310000000000002, 28.665000000000003 29.475, 28.92 29.64 C 28.92 29.64, 28.815000000000005 29.475, 28.92 29.64 C 29.13 29.97, 29.235 30.104999999999997, 29.339999999999996 30.299999999999997 C 29.339999999999996 30.36, 29.339999999999996 30.345000000000002, 29.339999999999996 30.42 C 29.339999999999996 30.509999999999998, 29.429999999999996 30.494999999999997, 29.339999999999996 30.599999999999998 C 29.159999999999997 30.72, 29.445 30.554999999999996, 28.98 30.839999999999996 C 28.23 31.29, 28.35 31.32, 27.48 31.740000000000002 C 26.490000000000002 32.129999999999995, 26.37 32.205, 25.5 32.519999999999996 C 24.75 32.76, 24.675 32.685, 24 33 C 23.4 33.39, 23.61 33.21, 22.799999999999997 33.78 C 21.779999999999998 34.53, 21.674999999999997 34.5, 20.759999999999998 35.28 C 19.95 36.09, 19.785 36.06, 19.14 36.900000000000006 C 18.66 37.77, 18.465 37.83, 18.18 38.64 C 18.09 39.39, 18.045 39.585, 18 40.14 C 18 40.5, 18 40.515, 18 40.86 C 18 41.19, 18 41.129999999999995, 18 41.519999999999996 C 18 41.97, 18 42.195, 18 42.42 C 18 42.42, 18 42.42, 18 42.42 L 18 42.42" fill="none" stroke="black" stroke-width="5"></path><path d="M 14.64 29.28 C 14.969999999999999 29.340000000000003, 14.625 28.995, 15.299999999999999 29.400000000000002 C 16.32 30.150000000000002, 16.305 30.060000000000002, 17.34 30.900000000000002 C 18.39 31.83, 18.66 32.07, 19.44 32.76 C 19.950000000000003 33.21, 20.01 33.18000000000001, 20.46 33.660000000000004 C 20.85 34.17, 21.045 34.425, 21.240000000000002 34.68 C 21.240000000000002 34.68, 21.240000000000002 34.68, 21.240000000000002 34.68 L 21.240000000000002 34.68" fill="none" stroke="black" stroke-width="5"></path></svg>