<svg width="48" height="48" viewBox="0 0 48 48" xmlns="http://www.w3.org/2000/svg"><path d="M 13.200000000000001 46.14 C 13.05 45.629999999999995, 12.975 45.989999999999995, 12.899999999999999 45.12 C 12.899999999999999 43.89, 12.899999999999999 43.77, 12.899999999999999 42.660000000000004 C 12.899999999999999 41.67, 12.899999999999999 41.505, 12.899999999999999 40.68 C 12.899999999999999 40.019999999999996, 12.899999999999999 40.215, 12.899999999999999 39.36 C 12.899999999999999 38.31, 12.899999999999999 38.4, 12.899999999999999 37.26 C 12.899999999999999 36.03, 12.899999999999999 36.33, 12.899999999999999 34.8 C 12.899999999999999 32.97, 12.854999999999997 32.775, 12.899999999999999 31.14 C 12.99 29.7, 12.990000000000002 29.235, 13.080000000000002 28.259999999999998 C 13.170000000000002 27.75, 13.17 27.945, 13.26 27.240000000000002 C 13.350000000000001 26.340000000000003, 13.350000000000001 26.385, 13.440000000000001 25.44 C 13.530000000000001 24.450000000000003, 13.545000000000002 24.240000000000002, 13.620000000000001 23.46 C 13.68 22.89, 13.665000000000001 22.755000000000003, 13.74 22.32 C 13.829999999999998 22.02, 13.844999999999999 22.035, 13.919999999999998 21.72 C 13.979999999999999 21.39, 13.934999999999999 21.419999999999998, 14.04 21.06 C 14.19 20.67, 14.174999999999999 20.64, 14.34 20.28 C 14.52 19.950000000000003, 14.520000000000001 19.950000000000003, 14.700000000000001 19.62 C 14.879999999999999 19.29, 14.834999999999999 19.23, 15.059999999999999 18.96 C 15.33 18.75, 15.270000000000001 18.735, 15.600000000000001 18.54 C 15.99 18.36, 15.945 18.3, 16.38 18.18 C 16.86 18.119999999999997, 16.905 18.09, 17.34 18.06 C 17.73 18.06, 17.73 18.06, 18.12 18.06 C 18.509999999999998 18.06, 18.435 18.06, 18.9 18.06 C 19.439999999999998 18.06, 19.365000000000002 18.06, 19.98 18.06 C 20.67 18.06, 20.715 18.06, 21.36 18.06 C 21.96 18.06, 22.11 18.06, 22.56 18.06 C 22.86 18.06, 22.74 18.06, 23.16 18.06 C 23.700000000000003 18.06, 23.700000000000003 18.06, 24.240000000000002 18.06 C 24.78 18.06, 24.885 18.06, 25.32 18.06 C 25.65 18.06, 25.665 18.06, 25.98 18.06 C 26.28 18.06, 26.31 18.06, 26.58 18.06 C 26.82 18.06, 26.834999999999997 18.06, 27.06 18.06 C 27.27 18.06, 27.255 18.104999999999997, 27.48 18.06 C 27.72 17.97, 27.795 18.015, 27.96 17.88 C 28.05 17.7, 28.035 17.73, 28.14 17.52 C 28.26 17.28, 28.260000000000005 17.325, 28.380000000000003 17.04 C 28.5 16.71, 28.56 16.619999999999997, 28.619999999999997 16.38 C 28.619999999999997 16.23, 28.619999999999997 16.26, 28.619999999999997 16.080000000000002 C 28.619999999999997 15.870000000000001, 28.619999999999997 16.005, 28.619999999999997 15.66 C 28.619999999999997 15.18, 28.619999999999997 15.21, 28.619999999999997 14.700000000000001 C 28.619999999999997 14.16, 28.619999999999997 14.190000000000001, 28.619999999999997 13.620000000000001 C 28.619999999999997 13.02, 28.65 12.989999999999998, 28.619999999999997 12.419999999999998 C 28.56 11.879999999999999, 28.59 12.03, 28.5 11.34 C 28.38 10.5, 28.409999999999997 10.425, 28.259999999999998 9.66 C 28.08 8.969999999999999, 28.035000000000004 8.745, 27.900000000000002 8.28 C 27.810000000000002 8.04, 27.765 7.92, 27.72 7.800000000000001 C 27.72 7.800000000000001, 27.72 7.800000000000001, 27.72 7.800000000000001 C 27.72 7.800000000000001, 27.72 7.800000000000001, 27.72 7.800000000000001 L 27.72 7.800000000000001" fill="none" stroke="black" stroke-width="5"></path><path d="M 22.68 12.54 C 23.22 12.54, 23.205 12.54, 23.759999999999998 12.54 C 24.33 12.54, 24.3 12.54, 24.900000000000002 12.54 C 25.53 12.54, 25.650000000000006 12.54, 26.160000000000004 12.54 C 26.550000000000004 12.54, 26.595000000000002 12.54, 26.94 12.54 C 27.240000000000002 12.54, 27.195 12.54, 27.54 12.54 C 27.93 12.54, 28.095 12.54, 28.32 12.54 C 28.380000000000003 12.54, 28.41 12.54, 28.44 12.54 L 28.44 12.54" fill="none" stroke="black" stroke-width="5"></path><path d="M 26.04 18.48 C 26.28 18.54, 26.235 18.51, 26.52 18.6 C 26.85 18.72, 26.895 18.689999999999998, 27.18 18.84 C 27.42 19.020000000000003, 27.405 19.035000000000004, 27.660000000000004 19.200000000000003 C 27.930000000000003 19.35, 27.945000000000004 19.335, 28.200000000000003 19.5 C 28.44 19.68, 28.41 19.605, 28.68 19.86 C 28.98 20.189999999999998, 29.055 20.189999999999998, 29.28 20.52 C 29.43 20.85, 29.415 20.82, 29.58 21.18 C 29.759999999999998 21.57, 29.835 21.645, 29.94 21.96 C 29.97 22.200000000000003, 29.985 22.17, 30 22.44 C 30 22.740000000000002, 30 22.724999999999998, 30 23.04 C 30 23.37, 30 23.505000000000003, 30 23.700000000000003 C 30 23.76, 30 23.64, 30 23.82 C 30 24.12, 30.03 24.135, 30 24.42 C 29.94 24.69, 29.970000000000002 24.75, 29.880000000000003 24.96 C 29.76 25.11, 29.865000000000002 25.049999999999997, 29.64 25.259999999999998 C 29.310000000000002 25.529999999999998, 29.295 25.559999999999995, 28.98 25.799999999999997 C 28.68 26.009999999999998, 28.785000000000004 25.979999999999997, 28.380000000000003 26.22 C 27.87 26.49, 27.810000000000002 26.58, 27.36 26.759999999999998 C 26.97 26.85, 26.939999999999998 26.865000000000002, 26.58 26.94 C 26.25 27, 26.4 26.985, 25.92 27.06 C 25.290000000000003 27.15, 25.125000000000004 27.195, 24.660000000000004 27.240000000000002 C 24.36 27.240000000000002, 24.285 27.240000000000002, 24.06 27.240000000000002 C 23.909999999999997 27.240000000000002, 23.834999999999997 27.240000000000002, 23.759999999999998 27.240000000000002 C 23.759999999999998 27.240000000000002, 23.759999999999998 27.240000000000002, 23.759999999999998 27.240000000000002 C 23.759999999999998 27.240000000000002, 23.759999999999998 27.240000000000002, 23.759999999999998 27.240000000000002 L 23.759999999999998 27.240000000000002" fill="none" stroke="black" stroke-width="5"></path></svg>