<svg width="48" height="48" viewBox="0 0 48 48" xmlns="http://www.w3.org/2000/svg"><path d="M 17.94 37.980000000000004 C 17.25 37.980000000000004, 17.13 37.980000000000004, 16.56 37.980000000000004 C 16.11 37.980000000000004, 16.155 37.980000000000004, 15.66 37.980000000000004 C 15.120000000000001 37.980000000000004, 15.150000000000002 37.980000000000004, 14.580000000000002 37.980000000000004 C 13.98 37.980000000000004, 13.844999999999999 37.980000000000004, 13.379999999999999 37.980000000000004 C 13.05 37.980000000000004, 12.96 37.980000000000004, 12.72 37.980000000000004 C 12.57 37.980000000000004, 12.54 37.980000000000004, 12.419999999999998 37.980000000000004 C 12.329999999999998 37.980000000000004, 12.315 37.95, 12.24 37.980000000000004 C 12.18 38.04, 12.195 38.05499999999999, 12.120000000000001 38.099999999999994 C 12.030000000000001 38.129999999999995, 12.059999999999999 38.145, 11.94 38.160000000000004 C 11.79 38.160000000000004, 11.715 38.160000000000004, 11.64 38.160000000000004 C 11.64 38.160000000000004, 11.685 38.160000000000004, 11.64 38.160000000000004 C 11.55 38.160000000000004, 11.504999999999999 38.160000000000004, 11.459999999999999 38.160000000000004 C 11.459999999999999 38.160000000000004, 11.459999999999999 38.160000000000004, 11.459999999999999 38.160000000000004 L 11.459999999999999 38.160000000000004" fill="none" stroke="black" stroke-width="5"></path><path d="M 11.100000000000001 45.24 C 11.100000000000001 45.24, 11.070000000000002 45.42, 11.100000000000001 45.24 C 11.16 44.879999999999995, 11.235000000000001 45.135, 11.22 44.519999999999996 C 11.13 43.65, 11.13 43.665, 11.040000000000001 42.78 C 10.95 41.88, 10.905 41.82000000000001, 10.86 40.980000000000004 C 10.86 40.2, 10.86 40.215, 10.86 39.42 C 10.86 38.61, 10.86 38.565, 10.86 37.8 C 10.86 37.08, 10.889999999999999 37.379999999999995, 10.86 36.36 C 10.8 35.04, 10.785 34.815, 10.74 33.72 C 10.71 32.85, 10.695 32.730000000000004, 10.68 31.98 C 10.68 31.35, 10.68 31.29, 10.68 30.72 C 10.68 30.21, 10.635 30.240000000000002, 10.68 29.700000000000003 C 10.77 29.130000000000003, 10.739999999999998 29.085, 10.86 28.56 C 11.01 28.08, 10.98 28.049999999999997, 11.16 27.599999999999998 C 11.370000000000001 27.18, 11.205 27.179999999999996, 11.58 26.759999999999998 C 12.120000000000001 26.34, 12.195 26.19, 12.66 25.92 C 13.05 25.8, 12.765 25.740000000000002, 13.440000000000001 25.68 C 14.4 25.68, 14.370000000000001 25.68, 15.36 25.68 C 16.38 25.68, 16.575 25.68, 17.4 25.68 C 18.03 25.68, 18.195 25.68, 18.66 25.68 C 18.96 25.68, 18.959999999999997 25.68, 19.259999999999998 25.68 C 19.56 25.68, 19.47 25.71, 19.86 25.68 C 20.34 25.619999999999997, 20.384999999999998 25.634999999999998, 20.82 25.56 C 21.21 25.47, 21.375 25.425, 21.6 25.380000000000003 C 21.66 25.380000000000003, 21.585 25.470000000000002, 21.72 25.380000000000003 C 21.93 25.200000000000003, 21.93 25.485, 22.14 25.02 C 22.35 24.27, 22.395 24.689999999999998, 22.56 23.52 C 22.68 21.93, 22.724999999999998 21.645, 22.799999999999997 20.34 C 22.83 19.32, 22.845 19.319999999999997, 22.86 18.299999999999997 C 22.86 17.279999999999998, 22.95 17.205, 22.86 16.259999999999998 C 22.68 15.389999999999999, 22.68 15.329999999999998, 22.5 14.52 C 22.32 13.77, 22.23 13.59, 22.14 13.02 C 22.14 12.629999999999999, 22.14 12.51, 22.14 12.24 C 22.14 12.09, 22.14 12.015, 22.14 11.94 L 22.14 11.94" fill="none" stroke="black" stroke-width="5"></path><path d="M 15.059999999999999 19.14 C 15.6 19.17, 15.615 19.185000000000002, 16.14 19.200000000000003 C 16.65 19.200000000000003, 16.455 19.200000000000003, 17.16 19.200000000000003 C 18.060000000000002 19.200000000000003, 18.150000000000002 19.200000000000003, 18.96 19.200000000000003 C 19.68 19.200000000000003, 19.74 19.200000000000003, 20.4 19.200000000000003 C 21 19.200000000000003, 21.21 19.200000000000003, 21.6 19.200000000000003 C 21.78 19.200000000000003, 21.84 19.185000000000002, 21.96 19.200000000000003 C 22.020000000000003 19.23, 22.05 19.244999999999997, 22.080000000000002 19.259999999999998 L 22.080000000000002 19.259999999999998" fill="none" stroke="black" stroke-width="5"></path></svg>