<svg width="48" height="48" viewBox="0 0 48 48" xmlns="http://www.w3.org/2000/svg"><path d="M 12.84 28.02 C 13.11 27.990000000000002, 12.959999999999999 27.975, 13.379999999999999 27.96 C 13.95 27.96, 13.754999999999999 28.005000000000003, 14.52 27.96 C 15.48 27.87, 15.645 27.87, 16.44 27.78 C 17.07 27.689999999999998, 17.1 27.72, 17.700000000000003 27.599999999999998 C 18.270000000000003 27.449999999999996, 18.3 27.524999999999995, 18.84 27.299999999999997 C 19.35 27, 19.35 27.120000000000005, 19.86 26.700000000000003 C 20.369999999999997 26.16, 20.564999999999998 26.25, 20.88 25.619999999999997 C 21 24.9, 21.060000000000002 25.155, 21.12 24.18 C 21.12 22.95, 21.12 22.365, 21.12 21.72 C 21.12 21.66, 21.12 21.630000000000003, 21.12 21.6 C 21.12 21.6, 21.09 21.6, 21.12 21.6 C 21.18 21.6, 21.03 21.090000000000003, 21.240000000000002 21.6 C 21.6 22.62, 21.69 22.590000000000003, 21.96 23.64 C 22.14 24.72, 22.065 25.049999999999997, 22.32 25.799999999999997 C 22.65 26.22, 22.605 26.235, 22.98 26.64 C 23.4 27.03, 23.37 27.225, 23.82 27.42 C 24.3 27.42, 24.225 27.6, 24.78 27.42 C 25.41 27.060000000000002, 25.38 27.360000000000003, 26.04 26.700000000000003 C 26.73 25.740000000000002, 27.015 25.485000000000003, 27.42 24.78 C 27.540000000000003 24.33, 27.510000000000005 24.6, 27.660000000000004 23.88 C 27.840000000000003 22.89, 27.93 23.04, 28.02 21.9 C 28.02 20.61, 28.02 20.64, 28.02 19.32 C 28.02 17.97, 28.02 17.835, 28.02 16.62 C 28.02 15.540000000000001, 28.14 15.750000000000002, 28.02 14.46 C 27.78 12.96, 27.825 12.915, 27.54 11.459999999999999 C 27.21 10.05, 27.225 9.93, 26.880000000000003 8.64 C 26.520000000000003 7.470000000000001, 26.505000000000003 7.215000000000001, 26.160000000000004 6.300000000000001 C 25.830000000000002 5.640000000000001, 25.755000000000003 5.475, 25.5 4.9799999999999995 C 25.32 4.65, 25.245 4.515000000000001, 25.14 4.32 C 25.11 4.26, 25.095 4.2299999999999995, 25.08 4.199999999999999 C 25.08 4.199999999999999, 25.08 4.199999999999999, 25.08 4.199999999999999 L 25.08 4.199999999999999" fill="none" stroke="black" stroke-width="5"></path><path d="M 19.86 11.34 C 20.22 11.34, 20.205000000000002 11.34, 20.580000000000002 11.34 C 20.97 11.34, 20.775 11.385, 21.36 11.34 C 22.14 11.25, 22.064999999999998 11.25, 22.919999999999998 11.16 C 23.85 11.07, 24.09 11.025, 24.78 10.98 C 25.23 10.98, 25.259999999999998 11.025, 25.68 10.98 C 26.07 10.89, 26.145 10.845, 26.46 10.8 C 26.700000000000003 10.8, 26.775000000000002 10.8, 26.94 10.8 C 27.03 10.8, 27.075 10.8, 27.119999999999997 10.8 L 27.119999999999997 10.8" fill="none" stroke="black" stroke-width="5"></path><path d="M 21.18 24.900000000000002 C 21.18 25.17, 21.18 25.155, 21.18 25.44 C 21.18 25.740000000000002, 21.165 25.68, 21.18 26.04 C 21.21 26.46, 21.225 26.355000000000004, 21.240000000000002 26.880000000000003 C 21.240000000000002 27.51, 21.21 27.48, 21.240000000000002 28.14 C 21.3 28.83, 21.33 28.89, 21.36 29.52 C 21.36 30.090000000000003, 21.36 30.075000000000003, 21.36 30.660000000000004 C 21.36 31.26, 21.405 31.245, 21.36 31.86 C 21.27 32.489999999999995, 21.3 32.519999999999996, 21.18 33.12 C 21.03 33.69, 21.044999999999998 33.735, 20.88 34.26 C 20.7 34.739999999999995, 20.73 34.695, 20.52 35.22 C 20.28 35.79, 20.294999999999998 35.745, 20.04 36.36 C 19.77 37.019999999999996, 19.74 37.11, 19.5 37.68 C 19.29 38.16, 19.290000000000003 38.205, 19.080000000000002 38.64 C 18.87 39.03, 18.87 39.015, 18.66 39.42 C 18.450000000000003 39.84, 18.51 39.84, 18.240000000000002 40.26 C 17.910000000000004 40.67999999999999, 18.045 40.574999999999996, 17.580000000000002 41.099999999999994 C 16.98 41.73, 17.099999999999998 41.73, 16.38 42.36 C 15.54 42.989999999999995, 15.495000000000001 43.11, 14.700000000000001 43.62 C 13.950000000000001 44.010000000000005, 13.740000000000002 44.10000000000001, 13.200000000000001 44.400000000000006 C 12.870000000000001 44.61, 12.795 44.685, 12.54 44.82 C 12.36 44.879999999999995, 12.27 44.91, 12.18 44.94 L 12.18 44.94" fill="none" stroke="black" stroke-width="5"></path><path d="M 20.52 35.88 C 20.85 36.239999999999995, 20.895 36.14999999999999, 21.18 36.599999999999994 C 21.42 37.14, 21.33 37.214999999999996, 21.66 37.68 C 22.08 38.07, 22.035 38.1, 22.5 38.46 C 23.009999999999998 38.79, 23.009999999999998 38.745, 23.52 39.12 C 24.03 39.54, 24.075 39.57, 24.54 39.96 C 24.96 40.32, 24.915000000000003 40.29, 25.380000000000003 40.68 C 25.89 41.099999999999994, 25.860000000000003 41.144999999999996, 26.400000000000002 41.519999999999996 C 26.97 41.849999999999994, 26.97 41.879999999999995, 27.54 42.18 C 28.11 42.45, 28.185 42.495, 28.68 42.72 C 29.1 42.9, 29.189999999999998 42.974999999999994, 29.52 43.08 C 29.759999999999998 43.11, 29.88 43.125, 30 43.14 L 30 43.14" fill="none" stroke="black" stroke-width="5"></path></svg>