<svg width="48" height="48" viewBox="0 0 48 48" xmlns="http://www.w3.org/2000/svg"><path d="M 13.98 3.9000000000000004 C 13.98 5.82, 13.98 5.550000000000001, 13.98 7.74 C 13.98 10.2, 13.935 10.71, 13.98 12.66 C 14.07 14.1, 14.04 14.43, 14.16 15.54 C 14.31 16.32, 14.25 16.35, 14.46 17.1 C 14.73 17.82, 14.790000000000001 17.939999999999998, 15 18.54 C 15.149999999999999 19.02, 15.134999999999998 18.99, 15.299999999999999 19.5 C 15.48 20.04, 15.42 20.115000000000002, 15.66 20.580000000000002 C 15.959999999999999 20.97, 15.989999999999998 21.105, 16.259999999999998 21.36 C 16.5 21.48, 16.305 21.54, 16.740000000000002 21.6 C 17.37 21.6, 17.07 21.6, 18 21.6 C 19.23 21.6, 18.975 21.6, 20.46 21.6 C 22.200000000000003 21.6, 22.740000000000002 21.615000000000002, 23.94 21.6 C 24.6 21.57, 24.584999999999997 21.585, 25.259999999999998 21.54 C 25.95 21.479999999999997, 26.055 21.479999999999997, 26.64 21.419999999999998 C 27.119999999999997 21.36, 27.195 21.389999999999997, 27.599999999999998 21.299999999999997 C 27.93 21.18, 27.974999999999998 21.18, 28.259999999999998 21.06 C 28.5 20.939999999999998, 28.410000000000004 21.075, 28.740000000000002 20.82 C 29.16 20.43, 29.22 20.549999999999997, 29.58 20.04 C 29.88 19.41, 29.939999999999998 19.875, 30.18 18.78 C 30.36 17.22, 30.45 17.265, 30.54 15.66 C 30.54 14.01, 30.615 14.355, 30.54 12.36 C 30.39 10.02, 30.450000000000003 9.75, 30.240000000000002 7.68 C 29.970000000000002 5.88, 29.880000000000003 5.25, 29.700000000000003 4.08 C 29.61 3.54, 29.595 3.36, 29.52 3 C 29.46 2.8200000000000003, 29.43 2.73, 29.400000000000002 2.64 C 29.400000000000002 2.64, 29.400000000000002 2.64, 29.400000000000002 2.64 L 29.400000000000002 2.64" fill="none" stroke="black" stroke-width="5"></path><path d="M 23.1 8.82 C 24.12 8.55, 24.105 8.459999999999999, 25.14 8.28 C 26.19 8.190000000000001, 26.28 8.235000000000001, 27.240000000000002 8.100000000000001 C 28.11 7.920000000000001, 28.32 7.83, 28.98 7.74 C 29.43 7.74, 29.505000000000003 7.74, 29.880000000000003 7.74 C 30.18 7.74, 30.21 7.74, 30.48 7.74 L 30.96 7.74" fill="none" stroke="black" stroke-width="5"></path><path d="M 14.28 42.54 C 14.55 42.56999999999999, 14.25 42.89999999999999, 14.82 42.599999999999994 C 15.69 41.97, 15.569999999999999 42.209999999999994, 16.56 41.339999999999996 C 17.67 40.23, 17.865000000000002 40.275, 18.78 39.12 C 19.5 37.92, 19.515 38.144999999999996, 20.22 36.72 C 20.91 35.07, 21.090000000000003 34.935, 21.6 33.42 C 21.93 32.040000000000006, 21.915 32.05500000000001, 22.259999999999998 30.660000000000004 C 22.619999999999997 29.25, 22.725 29.009999999999998, 22.98 27.839999999999996 C 23.130000000000003 26.909999999999997, 23.205000000000002 26.88, 23.28 25.98 C 23.28 25.11, 23.28 24.96, 23.28 24.240000000000002 C 23.28 23.67, 23.28 23.55, 23.28 23.1 C 23.28 22.770000000000003, 23.28 22.68, 23.28 22.44 C 23.28 22.29, 23.28 22.365000000000002, 23.28 22.14 C 23.28 21.84, 23.28 21.735, 23.28 21.54 C 23.28 21.45, 23.28 21.405, 23.28 21.36 C 23.28 21.36, 23.28 21.33, 23.28 21.36 C 23.28 21.42, 23.235 21.105, 23.28 21.48 C 23.37 22.17, 23.385 22.08, 23.46 22.86 C 23.520000000000003 23.729999999999997, 23.505000000000003 23.805, 23.580000000000002 24.599999999999998 C 23.67 25.32, 23.625 25.11, 23.759999999999998 26.04 C 23.939999999999998 27.18, 23.985 27.36, 24.119999999999997 28.32 C 24.209999999999997 29.1, 24.089999999999996 28.845000000000002, 24.299999999999997 29.880000000000003 C 24.63 31.17, 24.66 31.32, 24.96 32.46 C 25.23 33.45, 25.23 33.57, 25.5 34.44 C 25.77 35.19, 25.68 35.22, 26.04 35.94 C 26.490000000000002 36.629999999999995, 26.46 36.69, 26.94 37.32 C 27.450000000000003 37.89, 27.495 37.92, 27.96 38.46 C 28.38 38.97, 28.334999999999997 38.98500000000001, 28.799999999999997 39.480000000000004 C 29.31 39.96, 29.37 40.08, 29.82 40.44 C 30.21 40.68, 30.269999999999996 40.695, 30.599999999999998 40.92 C 30.869999999999997 41.129999999999995, 30.93 41.19, 31.14 41.339999999999996 C 31.29 41.42999999999999, 31.32 41.459999999999994, 31.44 41.519999999999996 C 31.53 41.55, 31.575 41.565, 31.619999999999997 41.58 L 31.619999999999997 41.58" fill="none" stroke="black" stroke-width="5"></path></svg>