<svg width="48" height="48" viewBox="0 0 48 48" xmlns="http://www.w3.org/2000/svg"><path d="M 11.64 43.68 C 11.370000000000001 42.120000000000005, 11.325000000000001 42.045, 11.100000000000001 40.56 C 10.920000000000002 39.150000000000006, 10.875 38.67, 10.74 37.74 C 10.65 37.29, 10.605 37.23, 10.56 36.839999999999996 C 10.56 36.51, 10.56 36.45, 10.56 36.18 C 10.56 35.97, 10.56 35.91, 10.56 35.76 C 10.56 35.67, 10.56 35.685, 10.56 35.58 C 10.56 35.459999999999994, 10.41 35.4, 10.56 35.339999999999996 C 10.86 35.339999999999996, 10.695 35.294999999999995, 11.16 35.339999999999996 C 11.79 35.42999999999999, 11.774999999999999 35.474999999999994, 12.419999999999998 35.519999999999996 C 13.079999999999998 35.519999999999996, 13.08 35.60999999999999, 13.74 35.519999999999996 C 14.399999999999999 35.34, 14.594999999999999 35.370000000000005, 15.059999999999999 35.160000000000004 C 15.33 34.92, 15.345 34.935, 15.600000000000001 34.68 C 15.840000000000002 34.41, 15.765000000000002 34.635, 16.080000000000002 34.14 C 16.47 33.42, 16.59 33.480000000000004, 16.86 32.7 C 17.009999999999998 31.86, 17.085 31.875, 17.16 31.02 C 17.16 30.15, 17.115000000000002 30.060000000000002, 17.16 29.28 C 17.25 28.590000000000003, 17.295 28.335, 17.34 27.900000000000002 C 17.34 27.72, 17.325 27.645, 17.34 27.54 C 17.369999999999997 27.509999999999998, 17.279999999999998 27.12, 17.4 27.48 C 17.61 28.23, 17.58 28.11, 17.82 28.98 C 18.09 29.97, 18.06 30.03, 18.36 30.96 C 18.689999999999998 31.830000000000002, 18.645 31.995000000000005, 19.02 32.7 C 19.439999999999998 33.24, 19.515 33.435, 19.86 33.78 C 20.13 33.93, 20.159999999999997 34.004999999999995, 20.4 34.08 C 20.61 34.08, 20.55 34.334999999999994, 20.82 34.08 C 21.15 33.57, 21.165 33.63, 21.48 33.06 C 21.78 32.43, 21.795 32.445, 22.080000000000002 31.799999999999997 C 22.35 31.14, 22.44 31.244999999999997, 22.62 30.48 C 22.71 29.61, 22.755 29.970000000000002, 22.799999999999997 28.740000000000002 C 22.799999999999997 27.15, 22.844999999999995 27.15, 22.799999999999997 25.56 C 22.71 23.97, 22.815 23.895, 22.62 22.38 C 22.32 20.939999999999998, 22.5 21.3, 22.02 19.5 C 21.36 17.34, 21.195000000000004 16.8, 20.700000000000003 15.18 C 20.37 14.1, 20.564999999999998 14.67, 20.04 13.02 C 19.32 10.8, 19.14 10.17, 18.6 8.58 C 18.240000000000002 7.62, 18.119999999999997 7.35, 17.88 6.66 C 17.759999999999998 6.24, 17.7 6.03, 17.64 5.82 L 17.64 5.82" fill="none" stroke="black" stroke-width="5"></path><path d="M 13.379999999999999 12.419999999999998 C 13.379999999999999 12.419999999999998, 13.169999999999998 12.464999999999998, 13.379999999999999 12.419999999999998 C 13.8 12.329999999999998, 13.65 12.375, 14.22 12.24 C 14.940000000000001 12.059999999999999, 15.15 12, 15.66 11.879999999999999 C 15.959999999999999 11.82, 15.869999999999997 11.79, 16.259999999999998 11.76 C 16.74 11.76, 16.784999999999997 11.76, 17.22 11.76 C 17.61 11.76, 17.625 11.76, 18 11.76 C 18.36 11.76, 18.435 11.76, 18.72 11.76 C 18.93 11.76, 19.035 11.76, 19.14 11.76 L 19.14 11.76" fill="none" stroke="black" stroke-width="5"></path></svg>