<svg width="48" height="48" viewBox="0 0 48 48" xmlns="http://www.w3.org/2000/svg"><path d="M 27.839999999999996 10.02 C 28.709999999999997 10.02, 28.949999999999996 10.02, 29.58 10.02 C 29.97 10.02, 29.895 10.02, 30.36 10.02 C 30.9 10.02, 30.69 9.93, 31.44 10.02 C 32.4 10.2, 32.535 10.245, 33.36 10.379999999999999 C 34.05 10.469999999999999, 34.245000000000005 10.515, 34.74 10.56 C 35.04 10.56, 35.144999999999996 10.56, 35.339999999999996 10.56 C 35.42999999999999 10.56, 35.41499999999999 10.56, 35.519999999999996 10.56 C 35.64 10.56, 35.699999999999996 10.56, 35.76 10.56 C 35.76 10.56, 35.76 10.56, 35.76 10.56 C 35.76 10.56, 35.76 10.56, 35.76 10.56 L 35.76 10.56" fill="none" stroke="black" stroke-width="5"></path><path d="M 36.96 4.74 C 36.6 6.12, 36.465 6.27, 36.24 7.5 C 36.150000000000006 8.58, 36.195 8.64, 36.06 9.66 C 35.88 10.620000000000001, 35.895 10.335, 35.7 11.58 C 35.49 13.11, 35.505 12.930000000000001, 35.28 14.64 C 35.04 16.53, 35.04 16.47, 34.8 18.419999999999998 C 34.56 20.43, 34.44 20.94, 34.32 22.44 C 34.32 23.43, 34.32 23.580000000000002, 34.32 24.42 C 34.32 25.11, 34.32 25.424999999999997, 34.32 25.799999999999997 C 34.32 25.86, 34.32 25.89, 34.32 25.92 L 34.32 25.92" fill="none" stroke="black" stroke-width="5"></path><path d="M 34.32 15.72 C 33.870000000000005 15.690000000000001, 34.14 15.675, 33.42 15.66 C 32.43 15.66, 32.46 15.435, 31.44 15.66 C 30.39 16.11, 30.194999999999997 16.005, 29.339999999999996 16.56 C 28.68 17.22, 28.544999999999998 17.265, 28.02 17.88 C 27.630000000000003 18.45, 27.675 18.314999999999998, 27.240000000000002 19.02 C 26.76 19.86, 26.685000000000002 19.905, 26.28 20.700000000000003 C 25.95 21.450000000000003, 25.889999999999997 21.525000000000006, 25.619999999999997 22.200000000000003 C 25.41 22.8, 25.305 23.07, 25.200000000000003 23.4 C 25.200000000000003 23.46, 25.215000000000003 23.445, 25.200000000000003 23.52 C 25.17 23.61, 25.245 23.715000000000003, 25.14 23.700000000000003 C 24.96 23.580000000000002, 24.915000000000003 23.895000000000003, 24.78 23.46 C 24.689999999999998 22.71, 24.689999999999998 22.65, 24.599999999999998 21.96 C 24.509999999999998 21.330000000000002, 24.525000000000002 21.255000000000003, 24.42 20.700000000000003 C 24.3 20.220000000000002, 24.3 20.220000000000002, 24.18 19.740000000000002 C 24.060000000000002 19.26, 24.105 19.215000000000003, 23.94 18.78 C 23.73 18.39, 23.805 18.405, 23.52 18 C 23.159999999999997 17.58, 23.115 17.505, 22.799999999999997 17.16 C 22.529999999999998 16.89, 22.559999999999995 16.815, 22.259999999999998 16.62 C 21.93 16.5, 21.96 16.439999999999998, 21.6 16.38 C 21.21 16.38, 21.240000000000002 16.38, 20.82 16.38 C 20.369999999999997 16.38, 20.339999999999996 16.32, 19.919999999999998 16.38 C 19.53 16.5, 19.53 16.365000000000002, 19.14 16.62 C 18.75 17.009999999999998, 18.75 16.845, 18.36 17.4 C 17.97 18.119999999999997, 17.985 17.955, 17.580000000000002 18.84 C 17.160000000000004 19.89, 17.055000000000003 19.98, 16.740000000000002 20.94 C 16.53 21.810000000000002, 16.455 21.795, 16.32 22.68 C 16.26 23.58, 16.230000000000004 23.58, 16.200000000000003 24.48 C 16.200000000000003 25.380000000000003, 16.200000000000003 25.830000000000002, 16.200000000000003 26.28 L 16.200000000000003 26.28" fill="none" stroke="black" stroke-width="5"></path><path d="M 13.98 44.28 C 14.55 43.92, 14.25 44.13, 15.120000000000001 43.56 C 16.29 42.78, 16.395000000000003 42.84, 17.46 42 C 18.42 41.1, 18.645 40.95, 19.38 40.2 C 19.89 39.6, 19.755 39.975, 20.4 39 C 21.18 37.65, 21.375 37.379999999999995, 21.96 36.3 C 22.35 35.489999999999995, 22.395000000000003 35.655, 22.740000000000002 34.68 C 23.04 33.540000000000006, 23.07 33.435, 23.34 32.400000000000006 C 23.58 31.470000000000002, 23.61 31.545, 23.82 30.54 C 24 29.46, 24.060000000000002 29.235000000000003, 24.18 28.380000000000003 C 24.24 27.75, 24.179999999999996 27.75, 24.299999999999997 27.119999999999997 C 24.48 26.49, 24.57 26.415, 24.660000000000004 25.86 C 24.660000000000004 25.380000000000003, 24.615000000000006 25.290000000000003, 24.660000000000004 24.900000000000002 C 24.75 24.6, 24.794999999999998 24.494999999999997, 24.839999999999996 24.299999999999997 C 24.839999999999996 24.209999999999997, 24.839999999999996 24.165, 24.839999999999996 24.119999999999997 C 24.839999999999996 24.119999999999997, 24.839999999999996 24.119999999999997, 24.839999999999996 24.119999999999997 C 24.839999999999996 24.119999999999997, 24.839999999999996 24.119999999999997, 24.839999999999996 24.119999999999997 C 24.839999999999996 24.119999999999997, 24.839999999999996 24.104999999999997, 24.839999999999996 24.119999999999997 C 24.839999999999996 24.15, 24.839999999999996 23.835, 24.839999999999996 24.18 C 24.839999999999996 24.84, 24.854999999999997 24.735, 24.839999999999996 25.5 C 24.81 26.37, 24.84 26.385, 24.78 27.240000000000002 C 24.689999999999998 28.080000000000002, 24.689999999999998 27.96, 24.599999999999998 28.92 C 24.509999999999998 30, 24.51 30.015, 24.42 31.08 C 24.330000000000002 32.129999999999995, 24.270000000000003 32.055, 24.240000000000002 33.18 C 24.27 34.379999999999995, 24.15 34.41, 24.299999999999997 35.58 C 24.569999999999997 36.72, 24.539999999999996 36.915, 24.839999999999996 37.86 C 25.169999999999998 38.61, 25.034999999999997 38.685, 25.5 39.36 C 26.1 39.96, 26.055000000000003 40.005, 26.700000000000003 40.56 C 27.39 41.07, 27.39 41.16, 28.08 41.58 C 28.77 41.91, 28.814999999999998 41.985, 29.46 42.24 C 30.060000000000002 42.42, 30.000000000000007 42.49499999999999, 30.660000000000004 42.599999999999994 C 31.38 42.629999999999995, 31.439999999999998 42.6, 32.099999999999994 42.660000000000004 C 32.699999999999996 42.75, 32.91 42.795, 33.3 42.839999999999996 C 33.480000000000004 42.839999999999996, 33.57 42.839999999999996, 33.660000000000004 42.839999999999996 L 33.660000000000004 42.839999999999996" fill="none" stroke="black" stroke-width="5"></path></svg>