<svg width="48" height="48" viewBox="0 0 48 48" xmlns="http://www.w3.org/2000/svg"><path d="M 16.62 27.599999999999998 C 17.46 27.599999999999998, 17.069999999999997 27.599999999999998, 18.299999999999997 27.599999999999998 C 19.919999999999998 27.599999999999998, 20.099999999999998 27.599999999999998, 21.54 27.599999999999998 C 22.799999999999997 27.599999999999998, 23.009999999999998 27.644999999999996, 24.06 27.599999999999998 C 24.9 27.509999999999998, 25.005000000000003 27.51, 25.740000000000002 27.42 C 26.37 27.330000000000002, 26.384999999999998 27.285000000000004, 27 27.240000000000002 C 27.6 27.240000000000002, 27.540000000000003 27.315, 28.200000000000003 27.240000000000002 C 28.92 27.090000000000003, 29.01 27.060000000000002, 29.64 26.94 C 30.18 26.85, 30.284999999999997 26.865, 30.72 26.759999999999998 C 31.05 26.64, 31.005000000000003 26.729999999999997, 31.380000000000003 26.52 C 31.8 26.22, 31.845 26.325000000000003, 32.22 25.92 C 32.55 25.410000000000004, 32.655 25.440000000000005, 32.88 24.900000000000002 C 33 24.33, 33.015 24.63, 33.12 23.759999999999998 C 33.209999999999994 22.589999999999996, 33.254999999999995 22.514999999999997, 33.3 21.419999999999998 C 33.3 20.4, 33.3 20.61, 33.3 19.38 C 33.3 17.939999999999998, 33.434999999999995 18.225, 33.3 16.5 C 33.03 14.49, 32.985 14.145, 32.76 12.48 C 32.58 11.16, 32.64000000000001 11.31, 32.400000000000006 9.84 C 32.1 8.22, 32.055 7.9350000000000005, 31.799999999999997 6.6000000000000005 C 31.59 5.550000000000001, 31.515 5.19, 31.380000000000003 4.5 C 31.32 4.17, 31.29 4.005, 31.259999999999998 3.84 C 31.259999999999998 3.84, 31.259999999999998 3.84, 31.259999999999998 3.84 C 31.259999999999998 3.84, 31.259999999999998 3.84, 31.259999999999998 3.84 C 31.259999999999998 3.84, 31.259999999999998 3.84, 31.259999999999998 3.84 C 31.259999999999998 3.84, 31.259999999999998 3.84, 31.259999999999998 3.84 C 31.259999999999998 3.84, 31.259999999999998 3.84, 31.259999999999998 3.84 L 31.259999999999998 3.84" fill="none" stroke="black" stroke-width="5"></path><path d="M 26.58 10.92 C 26.97 10.92, 26.895 10.92, 27.36 10.92 C 27.9 10.92, 27.840000000000003 10.92, 28.44 10.92 C 29.1 10.92, 29.189999999999998 10.935, 29.759999999999998 10.92 C 30.24 10.89, 30.33 10.905, 30.72 10.86 C 31.02 10.8, 30.975 10.77, 31.32 10.74 C 31.709999999999997 10.74, 31.859999999999992 10.755, 32.099999999999994 10.74 C 32.19 10.71, 32.235 10.695, 32.28 10.68 L 32.28 10.68" fill="none" stroke="black" stroke-width="5"></path><path d="M 24.599999999999998 27.839999999999996 C 24.689999999999998 28.349999999999998, 24.735 28.275, 24.78 28.86 C 24.78 29.52, 24.915 29.490000000000002, 24.78 30.18 C 24.51 30.9, 24.540000000000003 31.004999999999995, 24.240000000000002 31.619999999999997 C 23.910000000000004 32.129999999999995, 24.000000000000004 32.085, 23.580000000000002 32.64 C 23.07 33.239999999999995, 23.325 33.12, 22.56 33.839999999999996 C 21.54 34.67999999999999, 21.509999999999998 34.845, 20.52 35.519999999999996 C 19.560000000000002 36.03, 19.380000000000003 36.15, 18.6 36.54 C 18 36.81, 17.744999999999997 36.915, 17.4 37.08 C 17.31 37.14, 17.31 37.155, 17.22 37.2 L 17.04 37.26" fill="none" stroke="black" stroke-width="5"></path><path d="M 29.700000000000003 33.96 C 29.82 34.35, 29.925000000000004 34.02, 29.94 34.74 C 29.85 35.79, 29.97 35.879999999999995, 29.759999999999998 36.839999999999996 C 29.43 37.709999999999994, 29.714999999999996 37.68, 29.099999999999998 38.58 C 28.199999999999996 39.51, 28.559999999999995 39.435, 27.299999999999997 40.44 C 25.68 41.519999999999996, 25.455 41.75999999999999, 24.06 42.599999999999994 C 22.89 43.199999999999996, 22.77 43.245, 21.72 43.8 C 20.79 44.31, 20.4 44.49, 19.86 44.82 L 19.56 45.12" fill="none" stroke="black" stroke-width="5"></path></svg>