<svg width="48" height="48" viewBox="0 0 48 48" xmlns="http://www.w3.org/2000/svg"><path d="M 26.58 11.82 C 26.759999999999998 11.82, 26.61 11.82, 26.94 11.82 C 27.42 11.82, 27.480000000000004 11.82, 27.900000000000002 11.82 C 28.259999999999998 11.82, 28.005 11.82, 28.619999999999997 11.82 C 29.49 11.82, 29.7 11.790000000000001, 30.36 11.82 C 30.81 11.879999999999999, 30.54 11.864999999999998, 31.259999999999998 11.94 C 32.25 12.030000000000001, 32.52 12.075000000000001, 33.24 12.120000000000001 C 33.69 12.120000000000001, 33.81 12.120000000000001, 34.14 12.120000000000001 C 34.35 12.120000000000001, 34.455 12.120000000000001, 34.56 12.120000000000001 L 34.56 12.120000000000001" fill="none" stroke="black" stroke-width="5"></path><path d="M 34.86 4.92 C 34.86 5.67, 34.86 5.475, 34.86 6.42 C 34.86 7.56, 34.92 7.514999999999999, 34.86 8.7 C 34.739999999999995 9.93, 34.68 10.05, 34.62 11.16 C 34.62 12.15, 34.62 11.940000000000001, 34.62 13.14 C 34.62 14.55, 34.665 14.400000000000002, 34.62 15.96 C 34.53 17.67, 34.559999999999995 17.64, 34.44 19.38 C 34.29 21.15, 34.29 20.97, 34.14 22.919999999999998 C 33.989999999999995 25.049999999999997, 33.915 25.634999999999998, 33.839999999999996 27.18 C 33.839999999999996 28.14, 33.87 28.019999999999996, 33.839999999999996 29.099999999999998 C 33.78 30.299999999999997, 33.765 30.39, 33.72 31.5 C 33.69 32.519999999999996, 33.735 32.475, 33.660000000000004 33.54 C 33.540000000000006 34.65, 33.510000000000005 34.935, 33.42 35.76 C 33.36 36.3, 33.405 36.209999999999994, 33.3 36.839999999999996 C 33.15 37.56, 33.21 37.5, 33 38.28 C 32.730000000000004 39.120000000000005, 32.760000000000005 39.195, 32.46 39.96 C 32.129999999999995 40.65, 32.205 40.68, 31.799999999999997 41.339999999999996 C 31.319999999999997 41.97, 31.334999999999994 42.044999999999995, 30.839999999999996 42.599999999999994 C 30.33 43.08, 30.36 43.2, 29.82 43.56 C 29.25 43.8, 29.37 43.83, 28.68 44.04 C 27.869999999999997 44.22, 27.659999999999997 44.31, 27.06 44.400000000000006 C 26.67 44.400000000000006, 26.64 44.43000000000001, 26.28 44.400000000000006 C 25.95 44.34, 26.084999999999997 44.625, 25.619999999999997 44.28 C 25.02 43.65, 24.810000000000002 43.65, 24.42 43.019999999999996 C 24.240000000000002 42.39, 24.15 42.525, 24.06 41.76 C 24.06 40.86, 24.014999999999997 40.695, 24.06 39.96 C 24.15 39.39, 24.075000000000003 39.39, 24.240000000000002 38.82 C 24.48 38.25, 24.345 38.28, 24.72 37.68 C 25.23 37.05, 25.080000000000002 37.005, 25.740000000000002 36.42 C 26.55 35.879999999999995, 26.58 35.67, 27.36 35.339999999999996 C 28.11 35.22, 28.215 35.175, 28.86 35.099999999999994 C 29.4 35.06999999999999, 29.340000000000003 35.01, 29.94 35.04 C 30.6 35.129999999999995, 30.644999999999996 34.964999999999996, 31.259999999999998 35.22 C 31.830000000000002 35.64, 31.980000000000004 35.715, 32.400000000000006 36.06 C 32.67 36.33, 32.805 36.464999999999996, 32.94 36.599999999999994 C 32.94 36.599999999999994, 32.94 36.599999999999994, 32.94 36.599999999999994 C 32.94 36.599999999999994, 32.91 36.55499999999999, 32.94 36.599999999999994 C 33 36.69, 33 36.705, 33.06 36.78 C 33.120000000000005 36.84, 33.105000000000004 36.825, 33.18 36.900000000000006 C 33.269999999999996 36.99, 33.315 37.035, 33.36 37.08 C 33.36 37.08, 33.36 37.08, 33.36 37.08 L 33.36 37.08" fill="none" stroke="black" stroke-width="5"></path><path d="M 34.14 18.240000000000002 C 33.39 18.18, 33.480000000000004 18.195, 32.64 18.12 C 31.71 18.03, 31.725 18, 30.78 17.94 C 29.82 17.91, 29.744999999999997 17.73, 28.86 17.88 C 28.05 18.21, 28.155 17.849999999999998, 27.240000000000002 18.54 C 26.220000000000002 19.59, 26.025000000000002 19.575000000000003, 25.200000000000003 20.64 C 24.57 21.72, 24.435000000000002 21.794999999999995, 23.94 22.799999999999997 C 23.58 23.73, 23.475 23.970000000000002, 23.22 24.660000000000004 C 23.07 25.11, 22.994999999999997 25.335, 22.919999999999998 25.56 C 22.919999999999998 25.56, 22.95 25.589999999999996, 22.919999999999998 25.56 C 22.86 25.5, 22.83 25.98, 22.799999999999997 25.44 C 22.799999999999997 24.42, 22.799999999999997 24.479999999999997, 22.799999999999997 23.4 C 22.799999999999997 22.259999999999998, 22.874999999999996 22.020000000000003, 22.799999999999997 21.12 C 22.65 20.46, 22.665 20.249999999999996, 22.5 19.799999999999997 C 22.32 19.56, 22.395 19.59, 22.14 19.32 C 21.810000000000002 19.02, 21.84 18.869999999999997, 21.48 18.72 C 21.090000000000003 18.72, 21.21 18.72, 20.700000000000003 18.72 C 20.07 18.72, 20.025000000000002 18.54, 19.44 18.72 C 18.9 19.08, 18.93 18.93, 18.36 19.44 C 17.759999999999998 20.1, 17.715 19.935, 17.16 20.759999999999998 C 16.65 21.75, 16.62 21.630000000000003, 16.14 22.740000000000002 C 15.690000000000001 23.970000000000002, 15.555 23.985000000000003, 15.24 25.200000000000003 C 15.059999999999999 26.4, 15.075 26.04, 14.879999999999999 27.599999999999998 C 14.67 29.52, 14.565000000000001 29.880000000000003, 14.46 31.44 C 14.46 32.64, 14.46 32.55, 14.46 33.839999999999996 C 14.46 35.22, 14.4 35.36999999999999, 14.46 36.599999999999994 C 14.580000000000002 37.67999999999999, 14.610000000000001 37.995, 14.700000000000001 38.76 C 14.760000000000002 39.21, 14.745000000000001 39.27, 14.82 39.660000000000004 C 14.91 39.99, 14.925 40.035000000000004, 15 40.32 C 15.06 40.56, 15.06 40.529999999999994, 15.120000000000001 40.8 C 15.18 41.1, 15.18 41.05500000000001, 15.24 41.400000000000006 C 15.3 41.790000000000006, 15.299999999999999 41.805, 15.36 42.18 C 15.42 42.540000000000006, 15.45 42.720000000000006, 15.48 42.900000000000006 C 15.48 42.900000000000006, 15.48 42.900000000000006, 15.48 42.900000000000006 L 15.48 42.900000000000006" fill="none" stroke="black" stroke-width="5"></path></svg>