<svg width="48" height="48" viewBox="0 0 48 48" xmlns="http://www.w3.org/2000/svg"><path d="M 28.5 12.600000000000001 C 28.89 12.600000000000001, 28.92 12.570000000000002, 29.28 12.600000000000001 C 29.61 12.66, 29.550000000000004 12.675, 29.94 12.72 C 30.39 12.75, 30.344999999999995 12.765, 30.839999999999996 12.78 C 31.38 12.78, 31.230000000000004 12.78, 31.92 12.78 C 32.76 12.78, 32.98499999999999 12.78, 33.599999999999994 12.78 C 33.989999999999995 12.78, 33.96 12.78, 34.38 12.78 C 34.83 12.78, 34.845 12.825, 35.28 12.78 C 35.7 12.690000000000001, 35.76 12.645000000000001, 36.12 12.600000000000001 C 36.42 12.600000000000001, 36.495 12.600000000000001, 36.72 12.600000000000001 C 36.87 12.600000000000001, 36.824999999999996 12.600000000000001, 37.019999999999996 12.600000000000001 C 37.26 12.600000000000001, 37.35 12.600000000000001, 37.5 12.600000000000001 L 37.62 12.600000000000001" fill="none" stroke="black" stroke-width="5"></path><path d="M 38.64 5.64 C 38.400000000000006 6.39, 38.43000000000001 6.21, 38.160000000000004 7.14 C 37.86 8.25, 37.755 8.219999999999999, 37.56 9.36 C 37.47 10.53, 37.455000000000005 10.725, 37.38 11.7 C 37.32 12.48, 37.35 12.134999999999998, 37.26 13.26 C 37.14 14.73, 37.10999999999999 14.775000000000002, 37.019999999999996 16.200000000000003 C 36.96 17.580000000000002, 36.94500000000001 17.565, 36.900000000000006 18.96 C 36.870000000000005 20.37, 36.855 20.355, 36.839999999999996 21.78 C 36.839999999999996 23.220000000000002, 36.839999999999996 23.190000000000005, 36.839999999999996 24.660000000000004 C 36.839999999999996 26.160000000000004, 36.839999999999996 25.935000000000006, 36.839999999999996 27.660000000000004 C 36.839999999999996 29.61, 36.839999999999996 29.924999999999997, 36.839999999999996 31.56 C 36.839999999999996 32.88, 36.88499999999999 33.075, 36.839999999999996 34.2 C 36.75 35.13, 36.705 35.115, 36.660000000000004 36.06 C 36.660000000000004 37.02, 36.660000000000004 37.050000000000004, 36.660000000000004 37.980000000000004 C 36.660000000000004 38.88, 36.660000000000004 38.97, 36.660000000000004 39.78 C 36.660000000000004 40.5, 36.660000000000004 40.62, 36.660000000000004 41.22 C 36.660000000000004 41.7, 36.660000000000004 41.715, 36.660000000000004 42.18 C 36.660000000000004 42.629999999999995, 36.660000000000004 42.66, 36.660000000000004 43.08 C 36.660000000000004 43.47, 36.660000000000004 43.665, 36.660000000000004 43.86 C 36.660000000000004 43.86, 36.660000000000004 43.86, 36.660000000000004 43.86 L 36.660000000000004 43.86" fill="none" stroke="black" stroke-width="5"></path><path d="M 37.019999999999996 20.22 C 36.66 19.98, 36.91499999999999 20.055, 36.3 19.740000000000002 C 35.43 19.35, 35.325 19.155, 34.56 18.96 C 33.900000000000006 18.96, 33.93000000000001 18.87, 33.24 18.96 C 32.519999999999996 19.14, 32.58 18.810000000000002, 31.799999999999997 19.32 C 30.959999999999997 20.16, 30.749999999999996 20.28, 30.119999999999997 21 C 29.7 21.6, 29.685000000000002 21.555000000000003, 29.28 22.200000000000003 C 28.89 22.89, 28.845 22.845000000000002, 28.5 23.580000000000002 C 28.200000000000003 24.36, 28.080000000000002 24.585, 27.900000000000002 25.14 C 27.840000000000003 25.47, 27.810000000000002 25.634999999999998, 27.78 25.799999999999997 C 27.78 25.799999999999997, 27.855 25.874999999999996, 27.78 25.799999999999997 C 27.630000000000003 25.65, 27.69 26.1, 27.48 25.5 C 27.21 24.45, 27.105 24.195, 26.94 23.4 C 26.880000000000003 22.86, 26.925 22.71, 26.82 22.32 C 26.67 22.08, 26.73 22.17, 26.52 21.84 C 26.25 21.42, 26.37 21.405, 25.98 21 C 25.47 20.61, 25.485 20.445, 24.96 20.22 C 24.42 20.16, 24.509999999999998 20.130000000000003, 23.88 20.1 C 23.16 20.1, 22.995 19.98, 22.44 20.1 C 22.05 20.340000000000003, 22.185000000000002 20.040000000000003, 21.66 20.580000000000002 C 21 21.42, 20.91 21.195, 20.34 22.259999999999998 C 19.86 23.549999999999997, 19.755 23.669999999999995, 19.38 24.839999999999996 C 19.11 25.89, 19.02 25.950000000000003, 18.84 26.94 C 18.75 27.869999999999997, 18.705 27.779999999999998, 18.66 28.799999999999997 C 18.66 29.909999999999997, 18.66 29.744999999999997, 18.66 31.02 C 18.66 32.46, 18.66 32.580000000000005, 18.66 33.900000000000006 C 18.66 35.1, 18.66 35.265, 18.66 36.3 C 18.66 37.17, 18.615000000000002 37.095, 18.66 38.04 C 18.75 39.06, 18.75 39.12, 18.84 40.08 C 18.93 40.980000000000004, 18.93 41.31, 19.02 41.88 C 19.11 42.120000000000005, 19.110000000000003 41.94, 19.200000000000003 42.36 C 19.29 42.96, 19.335 43.260000000000005, 19.38 43.56 C 19.38 43.56, 19.38 43.56, 19.38 43.56 L 19.38 43.56" fill="none" stroke="black" stroke-width="5"></path><path d="M 25.92 33.480000000000004 C 25.200000000000003 34.2, 24.87 34.32, 24.48 34.92 C 24.42 35.400000000000006, 24.3 35.385000000000005, 24.36 35.88 C 24.54 36.39, 24.195 36.495000000000005, 24.72 36.900000000000006 C 25.59 37.2, 25.62 37.44, 26.46 37.5 C 27.27 37.32, 27.464999999999996 37.44, 28.08 37.14 C 28.5 36.72, 28.62 36.87, 28.92 36.3 C 29.1 35.58, 29.205000000000002 35.489999999999995, 29.28 34.86 C 29.25 34.32, 29.46 34.215, 29.22 33.78 C 28.77 33.45, 28.86 33.285, 28.32 33.12 C 27.689999999999998 33.12, 27.705 32.91, 27.06 33.12 C 26.4 33.54, 26.16 33.405, 25.740000000000002 33.96 C 25.560000000000002 34.65, 25.470000000000002 34.8, 25.380000000000003 35.339999999999996 C 25.380000000000003 35.73, 25.095000000000002 35.76, 25.380000000000003 36.12 C 25.950000000000003 36.45, 25.86 36.735, 26.52 36.78 C 27.27 36.54, 27.54 36.78, 28.02 36.3 C 28.23 35.58, 28.335 35.445, 28.44 34.86 C 28.44 34.41, 28.605 34.245000000000005, 28.44 33.96 C 28.11 33.84, 28.305000000000003 33.644999999999996, 27.78 33.72 C 27.06 33.989999999999995, 26.759999999999998 33.855, 26.339999999999996 34.26 C 26.22 34.8, 26.084999999999997 35.025, 26.099999999999998 35.339999999999996 C 26.25 35.42999999999999, 26.130000000000003 35.474999999999994, 26.400000000000002 35.519999999999996 C 26.79 35.519999999999996, 26.865 35.60999999999999, 27.18 35.519999999999996 C 27.42 35.34, 27.540000000000003 35.295, 27.660000000000004 35.160000000000004 C 27.660000000000004 35.07000000000001, 27.660000000000004 35.025000000000006, 27.660000000000004 34.980000000000004 C 27.660000000000004 34.980000000000004, 27.660000000000004 34.980000000000004, 27.660000000000004 34.980000000000004 L 27.660000000000004 34.980000000000004" fill="none" stroke="black" stroke-width="5"></path></svg>