<svg width="48" height="48" viewBox="0 0 48 48" xmlns="http://www.w3.org/2000/svg"><path d="M 15.84 12.419999999999998 C 17.25 12.419999999999998, 17.22 12.419999999999998, 18.66 12.419999999999998 C 20.130000000000003 12.419999999999998, 20.535000000000004 12.419999999999998, 21.6 12.419999999999998 C 22.259999999999998 12.419999999999998, 22.064999999999998 12.419999999999998, 22.919999999999998 12.419999999999998 C 23.97 12.419999999999998, 24.195 12.419999999999998, 25.02 12.419999999999998 C 25.619999999999997 12.419999999999998, 25.65 12.419999999999998, 26.22 12.419999999999998 C 26.759999999999998 12.419999999999998, 26.999999999999996 12.419999999999998, 27.299999999999997 12.419999999999998 C 27.36 12.419999999999998, 27.39 12.419999999999998, 27.42 12.419999999999998 L 27.42 12.419999999999998" fill="none" stroke="black" stroke-width="5"></path><path d="M 26.880000000000003 3.18 C 26.910000000000004 3.87, 26.880000000000003 3.7800000000000002, 26.94 4.5600000000000005 C 27.03 5.430000000000001, 27.075 5.460000000000001, 27.119999999999997 6.300000000000001 C 27.119999999999997 7.11, 27.119999999999997 7.109999999999999, 27.119999999999997 7.92 C 27.119999999999997 8.73, 27.074999999999996 8.670000000000002, 27.119999999999997 9.540000000000001 C 27.209999999999997 10.469999999999999, 27.224999999999994 10.349999999999998, 27.299999999999997 11.399999999999999 C 27.36 12.57, 27.375 12.675, 27.42 13.74 C 27.450000000000003 14.7, 27.465 14.61, 27.48 15.66 C 27.48 16.8, 27.48 16.89, 27.48 17.94 C 27.48 18.9, 27.48 18.884999999999998, 27.48 19.86 C 27.48 20.85, 27.48 21.345, 27.48 21.84 C 27.48 21.84, 27.48 21.84, 27.48 21.84 C 27.48 21.84, 27.48 21.84, 27.48 21.84 L 27.48 21.84" fill="none" stroke="black" stroke-width="5"></path><path d="M 21.6 18.72 C 21.6 19.68, 21.6 19.68, 21.6 20.64 C 21.6 21.6, 21.6 21.57, 21.6 22.56 C 21.6 23.58, 21.6 23.49, 21.6 24.599999999999998 C 21.6 25.799999999999997, 21.69 25.919999999999998, 21.6 27 C 21.42 27.96, 21.375000000000004 28.11, 21.240000000000002 28.92 C 21.15 29.580000000000002, 21.24 29.505000000000003, 21.06 30.240000000000002 C 20.79 31.05, 20.895 31.005, 20.52 31.86 C 20.04 32.760000000000005, 20.099999999999998 32.775000000000006, 19.56 33.660000000000004 C 18.96 34.53, 18.84 34.75500000000001, 18.36 35.400000000000006 C 18 35.82000000000001, 18.105 35.7, 17.64 36.24 C 17.07 36.900000000000006, 17.175 36.855000000000004, 16.5 37.56 C 15.72 38.31, 15.57 38.52, 14.940000000000001 39.06 C 14.46 39.39, 14.34 39.495, 13.98 39.72 C 13.74 39.84, 13.74 39.84, 13.5 39.96 C 13.26 40.08, 13.305 40.080000000000005, 13.02 40.2 C 12.69 40.32, 12.524999999999999 40.379999999999995, 12.36 40.44 C 12.36 40.44, 12.36 40.44, 12.36 40.44 L 12.36 40.44" fill="none" stroke="black" stroke-width="5"></path><path d="M 20.94 29.94 C 21.119999999999997 30.810000000000002, 21.119999999999997 30.794999999999998, 21.299999999999997 31.68 C 21.479999999999997 32.58, 21.39 32.595000000000006, 21.66 33.480000000000004 C 22.02 34.35, 21.99 34.44, 22.38 35.22 C 22.799999999999997 35.91, 22.77 36.044999999999995, 23.22 36.599999999999994 C 23.7 37.019999999999996, 23.775 37.08, 24.18 37.44 C 24.509999999999998 37.739999999999995, 24.299999999999997 37.71, 24.839999999999996 38.04 C 25.589999999999996 38.4, 25.424999999999997 38.415, 26.339999999999996 38.76 C 27.419999999999998 39.09, 27.405 39.18, 28.5 39.42 C 29.61 39.57, 29.924999999999997 39.599999999999994, 30.72 39.72 C 31.2 39.81, 31.395 39.855000000000004, 31.68 39.900000000000006 C 31.77 39.900000000000006, 31.814999999999998 39.900000000000006, 31.86 39.900000000000006 L 31.86 39.900000000000006" fill="none" stroke="black" stroke-width="5"></path></svg>