<svg width="48" height="48" viewBox="0 0 48 48" xmlns="http://www.w3.org/2000/svg"><path d="M 13.86 4.38 C 13.86 5.37, 13.86 4.95, 13.86 6.36 C 13.86 8.19, 13.799999999999999 8.37, 13.86 10.02 C 13.98 11.49, 13.950000000000001 11.565000000000001, 14.100000000000001 12.96 C 14.280000000000001 14.280000000000001, 14.295000000000002 14.595000000000002, 14.46 15.600000000000001 C 14.61 16.29, 14.594999999999999 16.14, 14.76 16.98 C 14.940000000000001 17.97, 14.985000000000001 17.955000000000002, 15.120000000000001 18.96 C 15.21 19.98, 15.165 20.22, 15.299999999999999 21 C 15.48 21.54, 15.495 21.645000000000003, 15.66 22.080000000000002 C 15.81 22.410000000000004, 15.825 22.455000000000002, 15.96 22.740000000000002 C 16.080000000000002 22.98, 16.080000000000002 23.04, 16.200000000000003 23.22 C 16.32 23.34, 16.245 23.325000000000003, 16.44 23.46 C 16.71 23.61, 16.665 23.669999999999998, 16.98 23.759999999999998 C 17.340000000000003 23.79, 17.115000000000002 23.805, 17.700000000000003 23.82 C 18.51 23.82, 18.405 23.82, 19.32 23.82 C 20.34 23.82, 20.28 23.88, 21.36 23.82 C 22.5 23.700000000000003, 22.634999999999998 23.76, 23.64 23.580000000000002 C 24.51 23.340000000000003, 24.75 23.220000000000002, 25.380000000000003 23.1 C 25.770000000000003 23.1, 25.725000000000005 23.145000000000003, 26.160000000000004 23.1 C 26.64 23.009999999999998, 26.729999999999997 23.009999999999998, 27.119999999999997 22.919999999999998 C 27.419999999999998 22.83, 27.449999999999996 22.815, 27.72 22.740000000000002 C 27.96 22.68, 28.020000000000003 22.68, 28.200000000000003 22.62 C 28.32 22.560000000000002, 28.335 22.545, 28.44 22.5 C 28.53 22.47, 28.514999999999997 22.575000000000003, 28.619999999999997 22.44 C 28.74 22.200000000000003, 28.814999999999998 22.245, 28.86 21.96 C 28.83 21.63, 28.814999999999998 21.735, 28.799999999999997 21.299999999999997 C 28.799999999999997 20.759999999999998, 28.799999999999997 20.669999999999998, 28.799999999999997 20.22 C 28.799999999999997 19.86, 28.799999999999997 19.994999999999997, 28.799999999999997 19.5 C 28.799999999999997 18.87, 28.83 18.885, 28.799999999999997 18.240000000000002 C 28.74 17.58, 28.784999999999997 17.549999999999997, 28.68 16.919999999999998 C 28.53 16.32, 28.515 16.23, 28.380000000000003 15.72 C 28.26 15.3, 28.200000000000003 15.09, 28.14 14.879999999999999 C 28.14 14.879999999999999, 28.14 14.879999999999999, 28.14 14.879999999999999 C 28.14 14.879999999999999, 28.14 14.879999999999999, 28.14 14.879999999999999 L 28.14 14.879999999999999" fill="none" stroke="black" stroke-width="5"></path><path d="M 23.52 18.54 C 24.299999999999997 18.54, 24.224999999999998 18.585, 25.08 18.54 C 26.009999999999998 18.45, 26.25 18.405, 26.94 18.36 C 27.39 18.36, 27.449999999999996 18.375, 27.839999999999996 18.36 C 28.169999999999998 18.33, 28.335 18.314999999999998, 28.5 18.299999999999997 C 28.5 18.299999999999997, 28.5 18.299999999999997, 28.5 18.299999999999997 L 28.5 18.299999999999997" fill="none" stroke="black" stroke-width="5"></path><path d="M 20.759999999999998 24.06 C 20.79 24.36, 20.805 24.105000000000004, 20.82 24.660000000000004 C 20.82 25.470000000000002, 20.805 25.155, 20.82 26.28 C 20.85 27.720000000000002, 20.835 27.930000000000003, 20.88 29.160000000000004 C 20.939999999999998 30.180000000000003, 20.925 30.225, 21 31.200000000000003 C 21.09 32.13, 21.134999999999998 31.935000000000002, 21.18 33.06 C 21.18 34.38, 21.134999999999998 34.485, 21.18 35.7 C 21.27 36.81, 21.314999999999998 36.825, 21.36 37.92 C 21.36 39, 21.36 39.12, 21.36 40.08 C 21.36 40.92, 21.36 40.949999999999996, 21.36 41.76 C 21.36 42.54, 21.345 42.78, 21.36 43.32 C 21.39 43.620000000000005, 21.375 43.68, 21.419999999999998 43.92 C 21.479999999999997 44.1, 21.509999999999998 44.19, 21.54 44.28 C 21.54 44.28, 21.54 44.28, 21.54 44.28 L 21.54 44.28" fill="none" stroke="black" stroke-width="5"></path><path d="M 25.619999999999997 23.52 C 25.619999999999997 24.27, 25.604999999999997 23.759999999999998, 25.619999999999997 25.02 C 25.65 26.79, 25.619999999999997 27.075, 25.68 28.56 C 25.77 29.759999999999998, 25.77 29.625, 25.86 30.96 C 25.95 32.43000000000001, 25.95 32.64000000000001, 26.04 33.900000000000006 C 26.13 34.95, 26.115 34.785000000000004, 26.22 36 C 26.34 37.379999999999995, 26.37 37.53, 26.46 38.76 C 26.52 39.84, 26.505 39.72, 26.58 40.92 C 26.669999999999998 42.24, 26.714999999999996 42.480000000000004, 26.759999999999998 43.56 C 26.759999999999998 44.400000000000006, 26.759999999999998 44.715, 26.759999999999998 45.24 C 26.759999999999998 45.45, 26.759999999999998 45.55500000000001, 26.759999999999998 45.660000000000004 C 26.759999999999998 45.660000000000004, 26.759999999999998 45.660000000000004, 26.759999999999998 45.660000000000004 L 26.759999999999998 45.660000000000004" fill="none" stroke="black" stroke-width="5"></path></svg>