<svg width="48" height="48" viewBox="0 0 48 48" xmlns="http://www.w3.org/2000/svg"><path d="M 26.64 10.26 C 26.88 10.26, 26.625 10.26, 27.119999999999997 10.26 C 27.869999999999997 10.26, 28.004999999999995 10.245, 28.619999999999997 10.26 C 29.099999999999998 10.29, 28.994999999999997 10.23, 29.58 10.32 C 30.27 10.47, 30.405 10.515, 30.96 10.620000000000001 C 31.38 10.68, 31.394999999999996 10.665000000000001, 31.799999999999997 10.74 C 32.19 10.83, 32.19 10.83, 32.58 10.92 C 32.97 11.010000000000002, 33.06 11.055000000000001, 33.36 11.100000000000001 C 33.57 11.100000000000001, 33.63 11.085, 33.78 11.100000000000001 C 33.870000000000005 11.13, 33.915 11.145, 33.96 11.16 L 33.96 11.16" fill="none" stroke="black" stroke-width="5"></path><path d="M 34.92 4.4399999999999995 C 34.59 4.949999999999999, 34.53 4.635, 34.26 5.46 C 34.05 6.6, 34.065 6.525, 33.839999999999996 7.74 C 33.599999999999994 9.030000000000001, 33.54 9.030000000000001, 33.36 10.32 C 33.239999999999995 11.61, 33.269999999999996 11.52, 33.12 12.899999999999999 C 32.94 14.37, 32.91 14.415, 32.76 15.84 C 32.64 17.22, 32.669999999999995 17.130000000000003, 32.519999999999996 18.6 C 32.34 20.16, 32.25 20.115, 32.160000000000004 21.72 C 32.160000000000004 23.369999999999997, 32.220000000000006 23.235, 32.160000000000004 25.02 C 32.040000000000006 26.939999999999998, 31.980000000000004 26.925, 31.92 28.86 C 31.92 30.81, 31.92 31.214999999999996, 31.92 32.76 C 31.92 33.9, 31.92 33.855, 31.92 35.04 C 31.92 36.269999999999996, 31.92 36.285, 31.92 37.5 C 31.92 38.7, 31.92 39.00000000000001, 31.92 39.900000000000006 C 31.92 40.5, 31.92 40.64999999999999, 31.92 41.099999999999994 C 31.92 41.4, 31.92 41.505, 31.92 41.7 C 31.92 41.790000000000006, 31.92 41.835, 31.92 41.88 L 31.92 41.88" fill="none" stroke="black" stroke-width="5"></path><path d="M 32.04 18.6 C 32.04 18.6, 32.04 18.660000000000004, 32.04 18.6 C 32.04 18.48, 32.235 18.465, 32.04 18.36 C 31.65 18.27, 31.724999999999998 18.27, 31.259999999999998 18.18 C 30.72 18.09, 30.81 18.119999999999997, 30.18 18 C 29.46 17.85, 29.355000000000004 17.775000000000002, 28.740000000000002 17.700000000000003 C 28.23 17.700000000000003, 28.455 17.700000000000003, 27.72 17.700000000000003 C 26.759999999999998 17.700000000000003, 26.699999999999996 17.700000000000003, 25.799999999999997 17.700000000000003 C 24.959999999999997 17.700000000000003, 24.9 17.700000000000003, 24.119999999999997 17.700000000000003 C 23.4 17.700000000000003, 23.325 17.700000000000003, 22.68 17.700000000000003 C 22.11 17.700000000000003, 22.169999999999998 17.685000000000002, 21.54 17.700000000000003 C 20.85 17.73, 20.82 17.505, 20.16 17.759999999999998 C 19.53 18.24, 19.65 17.97, 18.9 18.72 C 18.03 19.74, 17.85 19.769999999999996, 17.16 20.759999999999998 C 16.65 21.72, 16.68 21.42, 16.14 22.68 C 15.57 24.24, 15.42 24.389999999999997, 15 25.799999999999997 C 14.73 27.06, 14.610000000000001 27.060000000000002, 14.46 28.32 C 14.43 29.58, 14.415 29.639999999999997, 14.399999999999999 30.839999999999996 C 14.399999999999999 31.979999999999997, 14.399999999999999 31.934999999999995, 14.399999999999999 33.12 C 14.399999999999999 34.349999999999994, 14.339999999999998 34.47, 14.399999999999999 35.58 C 14.52 36.57, 14.385000000000002 36.645, 14.64 37.56 C 15.03 38.400000000000006, 15.059999999999999 38.550000000000004, 15.419999999999998 39.24 C 15.75 39.78, 15.600000000000001 39.78, 16.080000000000002 40.32 C 16.71 40.86, 16.44 41.010000000000005, 17.34 41.400000000000006 C 18.509999999999998 41.64, 18.36 41.760000000000005, 19.68 41.88 C 21.15 41.88, 21.57 41.895, 22.62 41.88 C 23.25 41.85, 23.355 41.955, 23.88 41.82 C 24.299999999999997 41.58, 24.389999999999997 41.80499999999999, 24.72 41.339999999999996 C 24.96 40.65, 24.990000000000002 40.8, 25.200000000000003 39.96 C 25.380000000000003 38.97, 25.455 38.790000000000006, 25.56 37.980000000000004 C 25.589999999999996 37.35, 25.65 37.545, 25.619999999999997 36.72 C 25.53 35.7, 25.605 35.4, 25.44 34.68 C 25.200000000000003 34.26, 25.32 34.184999999999995, 24.96 33.839999999999996 C 24.48 33.56999999999999, 24.675 33.584999999999994, 24 33.3 C 23.13 33, 23.189999999999998 32.955, 22.259999999999998 32.7 C 21.27 32.49, 21.045 32.385000000000005, 20.28 32.28 C 19.740000000000002 32.28, 19.785000000000004 32.28, 19.200000000000003 32.28 C 18.57 32.28, 18.525000000000002 32.13, 17.94 32.28 C 17.4 32.58, 17.31 32.58, 16.86 32.88 C 16.5 33.18000000000001, 16.575 33.00000000000001, 16.14 33.480000000000004 C 15.63 34.14, 15.405000000000001 34.394999999999996, 15.120000000000001 34.8 C 15.06 34.949999999999996, 15.06 34.97999999999999, 15 35.099999999999994 C 14.94 35.19, 14.91 35.235, 14.879999999999999 35.28 C 14.879999999999999 35.28, 14.879999999999999 35.28, 14.879999999999999 35.28 L 14.879999999999999 35.28" fill="none" stroke="black" stroke-width="5"></path></svg>