<svg width="48" height="48" viewBox="0 0 48 48" xmlns="http://www.w3.org/2000/svg"><path d="M 14.64 5.82 C 14.64 7.109999999999999, 14.625 6.884999999999999, 14.64 8.399999999999999 C 14.670000000000002 10.139999999999999, 14.595000000000002 10.53, 14.700000000000001 11.879999999999999 C 14.879999999999999 12.84, 14.879999999999999 12.735, 15.059999999999999 13.799999999999999 C 15.239999999999998 14.969999999999999, 15.239999999999998 14.91, 15.419999999999998 16.14 C 15.599999999999998 17.43, 15.57 17.685, 15.78 18.72 C 16.02 19.5, 16.095 19.545, 16.259999999999998 20.28 C 16.35 20.97, 16.32 21, 16.44 21.66 C 16.590000000000003 22.29, 16.620000000000005 22.409999999999997, 16.740000000000002 22.919999999999998 C 16.83 23.310000000000002, 16.784999999999997 23.265, 16.919999999999998 23.700000000000003 C 17.1 24.180000000000003, 17.115000000000002 24.210000000000004, 17.28 24.660000000000004 C 17.43 25.080000000000002, 17.490000000000002 25.26, 17.580000000000002 25.5 C 17.61 25.56, 17.565 25.529999999999998, 17.64 25.619999999999997 C 17.759999999999998 25.74, 17.685 25.724999999999998, 17.88 25.86 C 18.15 26.01, 17.97 25.965000000000003, 18.419999999999998 26.160000000000004 C 19.049999999999997 26.400000000000002, 19.169999999999998 26.505000000000003, 19.68 26.64 C 20.07 26.67, 19.995 26.685000000000002, 20.46 26.700000000000003 C 21 26.700000000000003, 20.925 26.700000000000003, 21.54 26.700000000000003 C 22.229999999999997 26.700000000000003, 22.259999999999998 26.745000000000005, 22.919999999999998 26.700000000000003 C 23.549999999999997 26.61, 23.52 26.61, 24.18 26.52 C 24.869999999999997 26.43, 24.84 26.459999999999997, 25.56 26.339999999999996 C 26.31 26.189999999999998, 26.49 26.159999999999997, 27.06 26.04 C 27.449999999999996 25.95, 27.449999999999996 25.92, 27.839999999999996 25.86 C 28.229999999999997 25.83, 28.229999999999997 25.889999999999997, 28.619999999999997 25.799999999999997 C 29.009999999999998 25.65, 29.160000000000004 25.59, 29.400000000000002 25.5 C 29.490000000000002 25.47, 29.459999999999997 25.47, 29.58 25.44 C 29.73 25.410000000000004, 29.64 25.455000000000002, 29.880000000000003 25.380000000000003 C 30.21 25.26, 30.285 25.245, 30.54 25.14 C 30.72 25.05, 30.69 25.065, 30.900000000000002 24.96 C 31.14 24.84, 31.140000000000004 24.945, 31.380000000000003 24.72 C 31.62 24.39, 31.68 24.435, 31.86 24.06 C 31.979999999999997 23.64, 32.03999999999999 23.625, 32.099999999999994 23.22 C 32.099999999999994 22.83, 32.05499999999999 22.935000000000002, 32.099999999999994 22.44 C 32.19 21.840000000000003, 32.235 21.915000000000003, 32.28 21.240000000000002 C 32.28 20.490000000000002, 32.370000000000005 20.535000000000004, 32.28 19.740000000000002 C 32.1 18.9, 32.160000000000004 18.93, 31.92 18.06 C 31.62 17.159999999999997, 31.560000000000002 16.904999999999998, 31.32 16.259999999999998 C 31.14 15.87, 31.05 15.675, 30.96 15.48 C 30.96 15.48, 30.975 15.510000000000002, 30.96 15.48 C 30.93 15.42, 30.915000000000003 15.39, 30.900000000000002 15.36 C 30.900000000000002 15.36, 30.900000000000002 15.36, 30.900000000000002 15.36 L 30.900000000000002 15.36" fill="none" stroke="black" stroke-width="5"></path><path d="M 27.18 19.62 C 27.72 19.62, 27.644999999999996 19.62, 28.259999999999998 19.62 C 28.95 19.62, 29.025 19.62, 29.64 19.62 C 30.18 19.62, 30.33 19.62, 30.72 19.62 C 30.96 19.62, 31.005000000000003 19.62, 31.200000000000003 19.62 C 31.35 19.62, 31.395000000000003 19.62, 31.5 19.62 C 31.56 19.62, 31.589999999999996 19.62, 31.619999999999997 19.62 L 31.619999999999997 19.62" fill="none" stroke="black" stroke-width="5"></path><path d="M 24.36 31.380000000000003 C 24.15 31.71, 24.165 31.47, 23.94 32.04 C 23.700000000000003 32.85, 23.52 33.03, 23.46 33.660000000000004 C 23.580000000000002 34.11, 23.325000000000003 34.260000000000005, 23.700000000000003 34.56 C 24.330000000000002 34.71, 24.150000000000002 34.815, 24.96 34.86 C 25.950000000000003 34.8, 26.25 34.965, 26.94 34.74 C 27.33 34.35, 27.525 34.365, 27.72 33.96 C 27.72 33.54, 28.08 33.585, 27.72 33.12 C 27 32.61, 26.925 32.41499999999999, 26.28 32.099999999999994 C 25.71 31.979999999999997, 25.545 31.919999999999998, 25.14 31.86 C 24.900000000000002 31.86, 25.065000000000005 31.68, 24.660000000000004 31.86 C 24.090000000000003 32.22, 23.865000000000002 32.205, 23.52 32.58 C 23.4 32.97, 23.19 32.894999999999996, 23.28 33.36 C 23.58 33.9, 23.564999999999998 34.125, 23.88 34.44 C 24.21 34.53, 24.105 34.574999999999996, 24.54 34.62 C 25.08 34.62, 25.064999999999998 34.875, 25.619999999999997 34.62 C 26.189999999999998 34.11, 26.474999999999998 34.10999999999999, 26.759999999999998 33.599999999999994 C 26.759999999999998 33.089999999999996, 27 33, 26.759999999999998 32.58 C 26.279999999999998 32.25, 26.264999999999997 32.07, 25.799999999999997 31.92 C 25.35 31.950000000000003, 25.245 31.725, 24.900000000000002 31.98 C 24.660000000000004 32.46, 24.540000000000003 32.58, 24.42 32.94 C 24.42 33.18, 24.150000000000002 33.255, 24.42 33.42 C 24.96 33.51, 25.14 33.644999999999996, 25.5 33.599999999999994 C 25.68 33.42, 25.785 33.39, 25.86 33.24 C 25.83 33.120000000000005, 25.964999999999996 33, 25.799999999999997 33 C 25.5 33.120000000000005, 25.485 32.895, 25.200000000000003 33.24 L 24.660000000000004 34.38" fill="none" stroke="black" stroke-width="5"></path><path d="M 21.12 41.46 C 21.6 41.46, 21.330000000000002 41.505, 22.080000000000002 41.46 C 23.1 41.370000000000005, 23.174999999999997 41.325, 24.119999999999997 41.28 C 24.99 41.28, 25.034999999999997 41.28, 25.86 41.28 C 26.64 41.28, 26.745 41.28, 27.42 41.28 C 27.990000000000002 41.28, 27.96 41.325, 28.56 41.28 C 29.189999999999998 41.19, 29.265 41.19, 29.82 41.099999999999994 C 30.3 41.01, 30.51 40.965, 30.78 40.92 C 30.840000000000003 40.92, 30.87 40.92, 30.900000000000002 40.92 C 30.900000000000002 40.92, 30.855000000000004 40.92, 30.900000000000002 40.92 C 30.990000000000002 40.92, 31.005 40.92, 31.08 40.92 C 31.14 40.92, 31.17 40.92, 31.200000000000003 40.92 C 31.200000000000003 40.92, 31.200000000000003 40.92, 31.200000000000003 40.92 L 31.200000000000003 40.92" fill="none" stroke="black" stroke-width="5"></path></svg>