<svg width="48" height="48" viewBox="0 0 48 48" xmlns="http://www.w3.org/2000/svg"><path d="M 11.34 3 C 11.22 3.5999999999999996, 11.295000000000002 2.7149999999999994, 11.100000000000001 4.199999999999999 C 10.830000000000002 6.569999999999999, 10.665000000000001 6.614999999999999, 10.56 8.94 C 10.620000000000001 11.219999999999999, 10.559999999999999 11.565, 10.68 13.5 C 10.86 15.09, 10.905000000000001 14.76, 11.040000000000001 16.68 C 11.13 18.93, 11.085 19.395, 11.22 21.18 C 11.4 22.5, 11.385 22.695, 11.58 23.82 C 11.79 24.75, 11.715 24.87, 12 25.68 C 12.36 26.369999999999997, 12.42 26.549999999999997, 12.72 27.06 C 12.96 27.39, 12.885000000000002 27.494999999999997, 13.200000000000001 27.72 C 13.59 27.84, 13.455000000000002 28.065, 13.98 27.96 C 14.64 27.63, 14.415 28.259999999999998, 15.299999999999999 27.299999999999997 C 16.41 25.709999999999997, 16.74 25.409999999999997, 17.52 24.119999999999997 C 17.97 23.13, 18.089999999999996 23.295, 18.419999999999998 22.14 C 18.63 20.82, 18.735 20.415, 18.84 19.5 C 18.84 18.990000000000002, 18.84 18.78, 18.84 18.48 C 18.84 18.39, 18.84 18.345, 18.84 18.299999999999997 C 18.84 18.299999999999997, 18.84 18.284999999999997, 18.84 18.299999999999997 C 18.84 18.33, 18.84 17.909999999999997, 18.84 18.36 C 18.84 19.23, 18.84 19.17, 18.84 20.1 C 18.84 21.090000000000003, 18.84 20.970000000000002, 18.84 22.080000000000002 C 18.84 23.310000000000002, 18.72 23.49, 18.84 24.54 C 19.08 25.41, 18.945 25.53, 19.32 26.28 C 19.83 26.91, 19.575 27.045, 20.34 27.54 C 21.36 27.9, 20.985 27.99, 22.38 28.259999999999998 C 24.15 28.439999999999998, 24.525000000000002 28.529999999999998, 25.92 28.619999999999997 C 26.94 28.619999999999997, 27.060000000000002 28.619999999999997, 27.96 28.619999999999997 C 28.740000000000002 28.619999999999997, 28.740000000000002 28.619999999999997, 29.52 28.619999999999997 C 30.299999999999997 28.619999999999997, 30.525 28.619999999999997, 31.08 28.619999999999997 C 31.41 28.619999999999997, 31.47 28.619999999999997, 31.740000000000002 28.619999999999997 C 31.950000000000003 28.619999999999997, 31.875000000000004 28.979999999999997, 32.160000000000004 28.619999999999997 C 32.52 27.9, 32.61 28.29, 32.88 27.18 C 33.06 25.68, 33.135000000000005 25.62, 33.24 24.18 C 33.269999999999996 22.799999999999997, 33.375 22.544999999999998, 33.3 21.419999999999998 C 33.12 20.549999999999997, 33.044999999999995 20.145, 32.94 19.68 C 32.91 19.619999999999997, 32.925000000000004 19.634999999999998, 32.88 19.56 C 32.82 19.47, 32.79 19.424999999999997, 32.76 19.38 L 32.76 19.38" fill="none" stroke="black" stroke-width="5"></path><path d="M 25.86 23.580000000000002 C 26.729999999999997 23.580000000000002, 26.504999999999995 23.580000000000002, 27.599999999999998 23.580000000000002 C 28.92 23.580000000000002, 29.205000000000002 23.580000000000002, 30.240000000000002 23.580000000000002 C 30.990000000000002 23.580000000000002, 31.035000000000004 23.580000000000002, 31.740000000000002 23.580000000000002 C 32.400000000000006 23.580000000000002, 32.58 23.580000000000002, 33.06 23.580000000000002 C 33.36 23.580000000000002, 33.510000000000005 23.580000000000002, 33.660000000000004 23.580000000000002 L 33.660000000000004 23.580000000000002" fill="none" stroke="black" stroke-width="5"></path><path d="M 26.880000000000003 28.14 C 26.76 28.89, 26.745 28.35, 26.64 29.64 C 26.55 31.47, 26.565 31.56, 26.46 33.3 C 26.34 34.949999999999996, 26.325 34.724999999999994, 26.22 36.599999999999994 C 26.13 38.699999999999996, 26.085 39.074999999999996, 26.04 40.8 C 26.04 42.15, 26.085 42.42, 26.04 43.5 C 25.95 44.31, 25.905 44.535, 25.86 45.12 C 25.86 45.48, 25.86 45.66, 25.86 45.839999999999996 L 25.86 45.839999999999996" fill="none" stroke="black" stroke-width="5"></path><path d="M 19.5 27.42 C 19.53 28.650000000000002, 19.544999999999998 28.380000000000003, 19.56 29.880000000000003 C 19.56 31.650000000000002, 19.56 31.665, 19.56 33.42 C 19.56 35.160000000000004, 19.56 35.325, 19.56 36.900000000000006 C 19.56 38.31, 19.56 38.535, 19.56 39.72 C 19.56 40.68, 19.56 40.845, 19.56 41.64 C 19.56 42.27, 19.56 42.300000000000004, 19.56 42.900000000000006 C 19.56 43.47, 19.56 43.68, 19.56 44.04 C 19.56 44.19, 19.56 44.235, 19.56 44.339999999999996 C 19.56 44.4, 19.56 44.145, 19.56 44.46 C 19.56 45.03, 19.56 45.315, 19.56 45.599999999999994 C 19.56 45.599999999999994, 19.56 45.599999999999994, 19.56 45.599999999999994 C 19.56 45.599999999999994, 19.544999999999998 45.55499999999999, 19.56 45.599999999999994 L 19.62 45.78" fill="none" stroke="black" stroke-width="5"></path></svg>