<svg width="48" height="48" viewBox="0 0 48 48" xmlns="http://www.w3.org/2000/svg"><path d="M 13.799999999999999 44.88 C 13.26 43.230000000000004, 13.11 43.11, 12.72 41.58 C 12.48 40.17, 12.405000000000001 40.08, 12.24 38.76 C 12.149999999999999 37.53, 12.104999999999999 37.275, 12.059999999999999 36.3 C 12.059999999999999 35.58, 12.059999999999999 35.775, 12.059999999999999 34.86 C 12.059999999999999 33.75, 12.059999999999999 33.6, 12.059999999999999 32.64 C 12.059999999999999 31.83, 12.059999999999999 31.83, 12.059999999999999 31.02 C 12.059999999999999 30.21, 11.985 30.18, 12.059999999999999 29.400000000000002 C 12.209999999999999 28.650000000000002, 12.194999999999999 28.515, 12.36 27.900000000000002 C 12.54 27.42, 12.375 27.48, 12.72 26.94 C 13.23 26.340000000000003, 13.14 26.25, 13.74 25.740000000000002 C 14.43 25.32, 14.385000000000002 25.17, 15.120000000000001 24.900000000000002 C 15.9 24.78, 15.825 24.720000000000002, 16.68 24.660000000000004 C 17.61 24.660000000000004, 17.715 24.660000000000004, 18.54 24.660000000000004 C 19.259999999999998 24.660000000000004, 19.35 24.660000000000004, 19.98 24.660000000000004 C 20.52 24.660000000000004, 20.64 24.660000000000004, 21.06 24.660000000000004 C 21.36 24.660000000000004, 21.314999999999998 24.705000000000005, 21.66 24.660000000000004 C 22.05 24.57, 22.125 24.525000000000002, 22.44 24.48 C 22.68 24.48, 22.59 24.555, 22.919999999999998 24.48 C 23.339999999999996 24.33, 23.384999999999998 24.36, 23.759999999999998 24.18 C 24.09 23.97, 24.090000000000003 24.044999999999998, 24.42 23.759999999999998 C 24.75 23.4, 24.854999999999997 23.505, 25.08 23.04 C 25.2 22.47, 25.215 22.514999999999997, 25.32 21.9 C 25.41 21.240000000000002, 25.455 21.51, 25.5 20.580000000000002 C 25.5 19.380000000000003, 25.515 19.485, 25.5 18.18 C 25.47 16.77, 25.62 16.755, 25.44 15.36 C 25.11 13.98, 25.005000000000003 13.500000000000002, 24.78 12.600000000000001 C 24.66 12.18, 24.6 11.97, 24.54 11.76 C 24.54 11.76, 24.54 11.76, 24.54 11.76 L 24.54 11.76" fill="none" stroke="black" stroke-width="5"></path><path d="M 16.080000000000002 17.580000000000002 C 16.35 17.67, 15.930000000000001 17.715, 16.62 17.759999999999998 C 17.73 17.759999999999998, 17.775 17.759999999999998, 18.84 17.759999999999998 C 19.86 17.759999999999998, 19.904999999999998 17.759999999999998, 20.88 17.759999999999998 C 21.810000000000002 17.759999999999998, 21.990000000000002 17.759999999999998, 22.740000000000002 17.759999999999998 C 23.310000000000002 17.759999999999998, 23.490000000000002 17.759999999999998, 23.88 17.759999999999998 C 24.089999999999996 17.759999999999998, 24.074999999999996 17.759999999999998, 24.299999999999997 17.759999999999998 C 24.54 17.759999999999998, 24.63 17.759999999999998, 24.78 17.759999999999998 L 24.900000000000002 17.759999999999998" fill="none" stroke="black" stroke-width="5"></path><path d="M 22.259999999999998 31.02 C 21.839999999999996 31.02, 21.9 30.9, 21.419999999999998 31.02 C 20.88 31.259999999999998, 21 31.035, 20.34 31.5 C 19.560000000000002 32.19, 19.35 32.25, 18.78 32.88 C 18.42 33.45, 18.33 33.269999999999996, 18.06 34.019999999999996 C 17.880000000000003 34.95, 17.745000000000005 34.71, 17.700000000000003 35.88 C 17.79 37.290000000000006, 17.535 37.68000000000001, 17.88 38.7 C 18.48 39.33, 18.450000000000003 39.54, 19.080000000000002 39.96 C 19.740000000000002 40.17, 19.544999999999998 40.335, 20.4 40.38 C 21.45 40.260000000000005, 21.494999999999997 40.59, 22.5 40.14 C 23.46 39.36, 23.700000000000003 39.465, 24.42 38.58 C 24.900000000000002 37.589999999999996, 25.095000000000002 37.47, 25.380000000000003 36.599999999999994 C 25.47 35.849999999999994, 25.59 35.925, 25.56 35.099999999999994 C 25.409999999999997 34.199999999999996, 25.5 34.019999999999996, 25.259999999999998 33.3 C 24.93 32.76, 25.004999999999995 32.76, 24.599999999999998 32.22 C 24.119999999999997 31.68, 24.12 31.485, 23.64 31.14 C 23.16 30.99, 23.235 30.944999999999997, 22.68 30.839999999999996 C 22.049999999999997 30.779999999999998, 22.019999999999996 30.659999999999997, 21.419999999999998 30.72 C 20.85 30.9, 20.655 30.915, 20.28 31.08 L 19.919999999999998 31.380000000000003" fill="none" stroke="black" stroke-width="5"></path></svg>