<svg width="48" height="48" viewBox="0 0 48 48" xmlns="http://www.w3.org/2000/svg"><path d="M 13.200000000000001 27.599999999999998 C 13.080000000000002 26.849999999999998, 13.020000000000001 26.894999999999996, 12.96 26.099999999999998 C 12.96 25.259999999999998, 12.96 25.065, 12.96 24.42 C 12.96 23.97, 12.915000000000001 24.060000000000002, 12.96 23.52 C 13.05 22.89, 13.065000000000001 22.935, 13.14 22.259999999999998 C 13.2 21.54, 13.14 21.45, 13.26 20.82 C 13.440000000000001 20.28, 13.515 20.130000000000003, 13.620000000000001 19.740000000000002 C 13.65 19.5, 13.545 19.634999999999998, 13.68 19.259999999999998 C 13.92 18.75, 13.8 18.705000000000002, 14.16 18.240000000000002 C 14.64 17.82, 14.565000000000001 17.744999999999997, 15.120000000000001 17.4 C 15.75 17.13, 15.84 16.994999999999997, 16.38 16.86 C 16.83 16.86, 16.740000000000002 16.86, 17.28 16.86 C 17.91 16.86, 17.85 16.86, 18.54 16.86 C 19.29 16.86, 19.259999999999998 16.86, 20.04 16.86 C 20.85 16.86, 21.03 16.86, 21.66 16.86 C 22.11 16.86, 22.064999999999998 16.799999999999997, 22.56 16.86 C 23.1 16.98, 23.175 17.025000000000002, 23.64 17.1 C 24.03 17.130000000000003, 24.015 17.1, 24.42 17.16 C 24.84 17.25, 24.9 17.25, 25.259999999999998 17.34 C 25.56 17.43, 25.634999999999998 17.475, 25.86 17.52 C 26.01 17.52, 25.935000000000002 17.52, 26.160000000000004 17.52 C 26.46 17.52, 26.49 17.55, 26.759999999999998 17.52 C 27 17.46, 26.955000000000002 17.505, 27.240000000000002 17.4 C 27.57 17.25, 27.570000000000004 17.28, 27.900000000000002 17.1 C 28.23 16.89, 28.259999999999998 16.875, 28.56 16.68 C 28.83 16.5, 28.845 16.53, 29.099999999999998 16.32 C 29.339999999999996 16.08, 29.384999999999998 16.125, 29.58 15.84 C 29.73 15.51, 29.775000000000002 15.584999999999999, 29.880000000000003 15.18 C 29.94 14.7, 29.97 14.790000000000001, 30 14.22 C 30 13.559999999999999, 30 13.649999999999999, 30 12.899999999999999 C 30 12.059999999999999, 30.09 12.045, 30 11.22 C 29.82 10.41, 29.805 10.320000000000002, 29.64 9.600000000000001 C 29.49 8.97, 29.415 8.73, 29.339999999999996 8.34 C 29.339999999999996 8.190000000000001, 29.369999999999997 8.16, 29.339999999999996 8.040000000000001 C 29.279999999999998 7.950000000000001, 29.25 7.905, 29.22 7.86 C 29.22 7.86, 29.22 7.86, 29.22 7.86 C 29.22 7.86, 29.22 7.86, 29.22 7.86 C 29.22 7.86, 29.22 7.86, 29.22 7.86 C 29.22 7.86, 29.235 7.890000000000001, 29.22 7.86 C 29.19 7.800000000000001, 29.175000000000004 7.7700000000000005, 29.160000000000004 7.74 C 29.160000000000004 7.74, 29.160000000000004 7.74, 29.160000000000004 7.74 C 29.160000000000004 7.74, 29.160000000000004 7.74, 29.160000000000004 7.74 L 29.160000000000004 7.74" fill="none" stroke="black" stroke-width="5"></path><path d="M 23.34 12.18 C 23.85 12.21, 23.745 12.18, 24.36 12.24 C 25.08 12.329999999999998, 25.004999999999995 12.284999999999998, 25.799999999999997 12.419999999999998 C 26.669999999999998 12.599999999999998, 26.909999999999997 12.69, 27.54 12.78 C 27.93 12.78, 28.02 12.764999999999999, 28.32 12.78 C 28.53 12.809999999999999, 28.545 12.81, 28.740000000000002 12.84 C 28.92 12.87, 28.86 12.884999999999998, 29.099999999999998 12.899999999999999 C 29.4 12.899999999999999, 29.55 12.899999999999999, 29.700000000000003 12.899999999999999 C 29.700000000000003 12.899999999999999, 29.655 12.899999999999999, 29.700000000000003 12.899999999999999 L 29.880000000000003 12.899999999999999" fill="none" stroke="black" stroke-width="5"></path><path d="M 22.02 17.28 C 22.02 18.060000000000002, 22.064999999999998 18.09, 22.02 18.84 C 21.93 19.560000000000002, 21.884999999999998 19.605, 21.84 20.28 C 21.84 20.91, 21.84 20.88, 21.84 21.54 C 21.84 22.229999999999997, 21.84 22.275, 21.84 22.919999999999998 C 21.84 23.519999999999996, 21.884999999999998 23.459999999999997, 21.84 24.119999999999997 C 21.75 24.839999999999996, 21.75 24.659999999999997, 21.66 25.56 C 21.57 26.64, 21.57 26.7, 21.48 27.72 C 21.39 28.68, 21.434999999999995 28.755000000000003, 21.299999999999997 29.64 C 21.119999999999997 30.45, 21.060000000000002 30.659999999999997, 20.94 31.259999999999998 C 20.880000000000003 31.65, 20.955000000000002 31.53, 20.82 32.04 C 20.61 32.67, 20.655 32.655, 20.4 33.3 C 20.099999999999998 33.959999999999994, 20.039999999999996 34.019999999999996, 19.799999999999997 34.62 C 19.619999999999997 35.16, 19.65 35.205000000000005, 19.44 35.7 C 19.200000000000003 36.15, 19.200000000000003 36.16499999999999, 18.96 36.599999999999994 C 18.72 37.019999999999996, 18.765 36.989999999999995, 18.48 37.44 C 18.15 37.92, 18.195 37.86000000000001, 17.82 38.400000000000006 C 17.4 39, 17.445 39.044999999999995, 16.98 39.599999999999994 C 16.47 40.11, 16.515 40.095, 15.96 40.62 C 15.36 41.16, 15.225 41.295, 14.76 41.7 C 14.43 41.97, 14.265 42.105000000000004, 14.100000000000001 42.24 C 14.100000000000001 42.24, 14.145000000000003 42.195, 14.100000000000001 42.24 C 14.01 42.33, 13.965 42.375, 13.919999999999998 42.42 C 13.919999999999998 42.42, 13.919999999999998 42.42, 13.919999999999998 42.42 C 13.919999999999998 42.42, 13.964999999999998 42.405, 13.919999999999998 42.42 C 13.829999999999998 42.45, 13.785 42.465, 13.74 42.480000000000004 C 13.74 42.480000000000004, 13.77 42.465, 13.74 42.480000000000004 C 13.68 42.510000000000005, 13.65 42.525, 13.620000000000001 42.54 C 13.620000000000001 42.54, 13.620000000000001 42.54, 13.620000000000001 42.54 C 13.620000000000001 42.54, 13.620000000000001 42.54, 13.620000000000001 42.54 L 13.620000000000001 42.54" fill="none" stroke="black" stroke-width="5"></path></svg>