<svg width="48" height="48" viewBox="0 0 48 48" xmlns="http://www.w3.org/2000/svg"><path d="M 25.740000000000002 10.620000000000001 C 25.98 10.620000000000001, 25.799999999999997 10.620000000000001, 26.22 10.620000000000001 C 26.82 10.620000000000001, 26.85 10.620000000000001, 27.42 10.620000000000001 C 27.96 10.620000000000001, 27.810000000000002 10.620000000000001, 28.5 10.620000000000001 C 29.34 10.620000000000001, 29.445 10.620000000000001, 30.18 10.620000000000001 C 30.810000000000002 10.620000000000001, 30.975 10.620000000000001, 31.44 10.620000000000001 C 31.740000000000002 10.620000000000001, 31.89 10.620000000000001, 32.04 10.620000000000001 C 32.04 10.620000000000001, 32.04 10.620000000000001, 32.04 10.620000000000001 L 32.04 10.620000000000001" fill="none" stroke="black" stroke-width="5"></path><path d="M 32.94 3.7199999999999998 C 32.849999999999994 4.32, 32.805 4.08, 32.76 4.92 C 32.76 6, 32.76 6.045, 32.76 7.08 C 32.76 8.07, 32.76 8.22, 32.76 9.06 C 32.76 9.75, 32.76 9.795, 32.76 10.44 C 32.76 11.04, 32.76 10.71, 32.76 11.64 C 32.76 12.9, 32.805 12.915, 32.76 14.16 C 32.67 15.39, 32.669999999999995 15.375, 32.58 16.62 C 32.49 17.880000000000003, 32.49000000000001 18.15, 32.400000000000006 19.14 C 32.31 19.86, 32.265 19.68, 32.22 20.580000000000002 C 32.22 21.660000000000004, 32.22 21.78, 32.22 22.740000000000002 C 32.22 23.580000000000002, 32.22 23.925000000000004, 32.22 24.42 C 32.22 24.57, 32.22 24.645, 32.22 24.72 L 32.22 24.72" fill="none" stroke="black" stroke-width="5"></path><path d="M 32.519999999999996 17.1 C 32.42999999999999 17.1, 32.535 17.1, 32.339999999999996 17.1 C 32.04 17.1, 32.265 17.1, 31.740000000000002 17.1 C 30.990000000000002 17.1, 31.125 17.1, 30.240000000000002 17.1 C 29.220000000000002 17.1, 29.145000000000003 17.1, 28.200000000000003 17.1 C 27.330000000000002 17.1, 27.39 17.1, 26.46 17.1 C 25.47 17.1, 25.515 17.1, 24.48 17.1 C 23.4 17.1, 23.385 17.1, 22.32 17.1 C 21.27 17.1, 21.27 17.145000000000003, 20.22 17.1 C 19.17 17.009999999999998, 19.11 16.965, 18.12 16.919999999999998 C 17.189999999999998 16.919999999999998, 17.099999999999998 16.919999999999998, 16.259999999999998 16.919999999999998 C 15.509999999999998 16.919999999999998, 15.329999999999998 16.919999999999998, 14.76 16.919999999999998 C 14.370000000000001 16.919999999999998, 14.22 16.919999999999998, 13.98 16.919999999999998 C 13.89 16.919999999999998, 13.95 16.919999999999998, 13.799999999999999 16.919999999999998 C 13.59 16.919999999999998, 13.529999999999998 16.919999999999998, 13.379999999999999 16.919999999999998 C 13.29 16.919999999999998, 13.245000000000001 16.919999999999998, 13.200000000000001 16.919999999999998 C 13.200000000000001 16.919999999999998, 13.23 16.919999999999998, 13.200000000000001 16.919999999999998 C 13.14 16.919999999999998, 13.110000000000001 16.919999999999998, 13.080000000000002 16.919999999999998 C 13.080000000000002 16.919999999999998, 13.080000000000002 16.919999999999998, 13.080000000000002 16.919999999999998 L 13.080000000000002 16.919999999999998" fill="none" stroke="black" stroke-width="5"></path><path d="M 25.740000000000002 17.16 C 25.77 18.03, 25.83 17.895, 25.799999999999997 18.9 C 25.709999999999997 20.04, 25.754999999999995 20.009999999999998, 25.619999999999997 21.18 C 25.439999999999998 22.380000000000003, 25.439999999999998 22.425000000000004, 25.259999999999998 23.580000000000002 C 25.08 24.689999999999998, 24.990000000000002 24.54, 24.900000000000002 25.799999999999997 C 24.900000000000002 27.209999999999997, 24.900000000000002 27.224999999999994, 24.900000000000002 28.619999999999997 C 24.900000000000002 30, 24.900000000000002 29.910000000000004, 24.900000000000002 31.380000000000003 C 24.900000000000002 32.94, 24.900000000000002 33.015, 24.900000000000002 34.5 C 24.900000000000002 35.91, 24.900000000000002 35.955, 24.900000000000002 37.32 C 24.900000000000002 38.64, 24.945000000000004 38.910000000000004, 24.900000000000002 39.96 C 24.810000000000002 40.739999999999995, 24.765 40.739999999999995, 24.72 41.519999999999996 C 24.72 42.3, 24.72 42.54, 24.72 43.08 C 24.72 43.379999999999995, 24.72 43.335, 24.72 43.68 C 24.72 44.07, 24.72 44.265, 24.72 44.46 C 24.72 44.46, 24.72 44.46, 24.72 44.46 C 24.72 44.46, 24.72 44.46, 24.72 44.46 C 24.72 44.46, 24.75 44.43, 24.72 44.46 L 24.599999999999998 44.58" fill="none" stroke="black" stroke-width="5"></path><path d="M 19.799999999999997 16.68 C 19.799999999999997 16.92, 19.799999999999997 16.05, 19.799999999999997 17.16 C 19.799999999999997 19.14, 19.859999999999996 19.335, 19.799999999999997 21.12 C 19.68 22.71, 19.634999999999998 22.769999999999996, 19.56 24.299999999999997 C 19.53 25.77, 19.56 25.725, 19.5 27.240000000000002 C 19.41 28.8, 19.44 28.68, 19.32 30.36 C 19.17 32.16, 19.14 32.355000000000004, 19.02 33.96 C 18.93 35.370000000000005, 18.884999999999998 35.625, 18.84 36.78 C 18.84 37.68, 18.884999999999998 37.56, 18.84 38.58 C 18.75 39.72, 18.705 39.885, 18.66 40.86 C 18.66 41.67, 18.705 41.730000000000004, 18.66 42.480000000000004 C 18.57 43.17, 18.525 43.395, 18.48 43.86 C 18.48 44.099999999999994, 18.48 44.144999999999996, 18.48 44.339999999999996 C 18.48 44.489999999999995, 18.48 44.445, 18.48 44.64 C 18.48 44.879999999999995, 18.48 44.849999999999994, 18.48 45.12 C 18.48 45.42, 18.48 45.57, 18.48 45.72 C 18.48 45.72, 18.48 45.72, 18.48 45.72 C 18.48 45.72, 18.48 45.72, 18.48 45.72 C 18.48 45.72, 18.48 45.72, 18.48 45.72 L 18.48 45.72" fill="none" stroke="black" stroke-width="5"></path></svg>