<svg width="48" height="48" viewBox="0 0 48 48" xmlns="http://www.w3.org/2000/svg"><path d="M 13.5 27.06 C 14.25 27.119999999999997, 13.71 27.15, 15 27.18 C 16.83 27.18, 17.055 27.18, 18.66 27.18 C 20.04 27.18, 20.43 27.18, 21.419999999999998 27.18 C 22.02 27.18, 22.245 27.18, 22.62 27.18 C 22.77 27.18, 22.695 27.405, 22.919999999999998 27.18 C 23.22 26.73, 23.265 27.285, 23.52 26.28 C 23.73 24.72, 23.700000000000003 24.435000000000002, 23.94 23.16 C 24.21 22.17, 24.345 21.72, 24.48 21.18 C 24.48 21.09, 24.48 21.045, 24.48 21 C 24.48 21, 24.48 20.759999999999998, 24.48 21 C 24.48 21.48, 24.39 21.270000000000003, 24.48 21.96 C 24.659999999999997 22.86, 24.389999999999997 22.74, 24.839999999999996 23.759999999999998 C 25.56 24.9, 25.605 25.349999999999998, 26.28 26.04 C 26.91 26.28, 27.015 26.354999999999997, 27.54 26.52 C 27.96 26.61, 28.050000000000004 26.700000000000003, 28.380000000000003 26.700000000000003 C 28.62 26.61, 28.53 26.895, 28.86 26.52 C 29.28 25.86, 29.235000000000003 26.175000000000004, 29.700000000000003 25.200000000000003 C 30.21 23.910000000000004, 30.419999999999998 24.18, 30.72 22.62 C 30.810000000000002 20.79, 30.96 21.150000000000002, 30.900000000000002 18.96 C 30.69 16.41, 30.705000000000002 16.335, 30.48 13.86 C 30.240000000000002 11.46, 30.33 11.085, 30 9.06 C 29.580000000000002 7.41, 29.535000000000004 7.095, 29.160000000000004 5.76 C 28.830000000000002 4.74, 28.725 4.35, 28.5 3.7199999999999998 C 28.38 3.48, 28.349999999999998 3.435, 28.259999999999998 3.24 C 28.2 3.09, 28.17 3.015, 28.14 2.94 L 28.14 2.94" fill="none" stroke="black" stroke-width="5"></path><path d="M 16.38 16.68 C 17.46 14.07, 17.49 13.965, 18.54 11.459999999999999 C 19.560000000000002 9.059999999999999, 20.04 7.89, 20.580000000000002 6.66 C 20.64 6.6000000000000005, 20.67 6.57, 20.700000000000003 6.540000000000001 C 20.700000000000003 6.540000000000001, 20.685000000000002 6.585000000000001, 20.700000000000003 6.540000000000001 C 20.73 6.450000000000001, 20.7 6.4350000000000005, 20.759999999999998 6.36 C 20.85 6.300000000000001, 20.745 6.2700000000000005, 20.94 6.24 C 21.240000000000002 6.24, 21.119999999999997 6.015000000000001, 21.54 6.24 C 22.08 6.6899999999999995, 22.125 6.57, 22.62 7.14 C 23.07 7.83, 22.77 7.515, 23.52 8.52 C 24.57 9.84, 24.54 10.004999999999999, 25.619999999999997 11.16 C 26.729999999999997 12.15, 26.999999999999996 12.450000000000001, 27.839999999999996 13.14 C 28.409999999999997 13.53, 28.605 13.665, 28.98 13.919999999999998 C 29.159999999999997 14.04, 29.039999999999996 14.01, 29.339999999999996 14.16 C 29.759999999999998 14.34, 29.97 14.43, 30.18 14.52 L 30.18 14.52" fill="none" stroke="black" stroke-width="5"></path><path d="M 20.46 27 C 20.28 28.56, 20.25 28.485, 20.1 30.119999999999997 C 19.98 31.83, 19.965 31.755, 19.86 33.54 C 19.77 35.4, 19.725 35.535, 19.68 37.26 C 19.68 38.849999999999994, 19.68 39.029999999999994, 19.68 40.44 C 19.68 41.67, 19.68 41.925000000000004, 19.68 42.900000000000006 C 19.68 43.620000000000005, 19.68 43.89, 19.68 44.339999999999996 C 19.68 44.519999999999996, 19.68 44.61, 19.68 44.7 L 19.68 44.7" fill="none" stroke="black" stroke-width="5"></path></svg>