<svg width="48" height="48" viewBox="0 0 48 48" xmlns="http://www.w3.org/2000/svg"><path d="M 15.120000000000001 5.4 C 14.850000000000001 6.66, 14.835 5.805, 14.580000000000002 7.92 C 14.340000000000002 10.89, 14.220000000000002 10.754999999999999, 14.100000000000001 13.86 C 14.100000000000001 17.1, 14.100000000000001 17.775, 14.100000000000001 20.34 C 14.100000000000001 22.229999999999997, 14.100000000000001 22.38, 14.100000000000001 24.119999999999997 C 14.100000000000001 25.709999999999997, 14.085 26.205, 14.100000000000001 27.299999999999997 C 14.13 27.9, 13.98 28.05, 14.16 28.5 C 14.49 28.799999999999997, 14.100000000000001 28.86, 14.82 29.099999999999998 C 15.93 29.28, 15.735 29.37, 17.04 29.46 C 18.54 29.46, 18.345 29.46, 20.04 29.46 C 21.93 29.46, 22.185000000000002 29.46, 23.82 29.46 C 25.2 29.46, 25.47 29.415, 26.58 29.46 C 27.419999999999998 29.55, 27.72 29.595, 28.259999999999998 29.64 C 28.5 29.64, 28.62 29.64, 28.740000000000002 29.64 C 28.740000000000002 29.64, 28.560000000000002 29.865000000000002, 28.740000000000002 29.64 C 29.1 29.19, 29.235 29.475, 29.46 28.740000000000002 C 29.55 27.720000000000002, 29.55 27.975, 29.64 26.700000000000003 C 29.73 25.17, 29.79 25.62, 29.82 23.64 C 29.79 21.21, 29.88 21.36, 29.759999999999998 18.78 C 29.549999999999997 16.05, 29.489999999999995 15.3, 29.339999999999996 13.32 C 29.25 12.09, 29.250000000000004 11.91, 29.160000000000004 10.86 C 29.07 9.99, 29.055 9.99, 28.98 9.120000000000001 C 28.92 8.25, 28.935 8.22, 28.86 7.38 C 28.77 6.57, 28.740000000000002 6.359999999999999, 28.68 5.76 C 28.65 5.369999999999999, 28.634999999999998 5.175, 28.619999999999997 4.9799999999999995 L 28.619999999999997 4.9799999999999995" fill="none" stroke="black" stroke-width="5"></path><path d="M 13.86 21.72 C 14.579999999999998 20.82, 14.309999999999999 21.644999999999996, 15.299999999999999 19.919999999999998 C 16.56 17.369999999999997, 16.905 16.695, 17.82 14.82 C 18.39 13.62, 18.525000000000002 13.424999999999997, 18.96 12.419999999999998 C 19.259999999999998 11.61, 19.259999999999998 11.58, 19.56 10.8 C 19.86 10.05, 19.875 9.975000000000001, 20.16 9.3 C 20.43 8.700000000000001, 20.520000000000003 8.535000000000002, 20.700000000000003 8.100000000000001 C 20.79 7.830000000000001, 20.835 7.695, 20.88 7.5600000000000005 C 20.88 7.5600000000000005, 20.849999999999998 7.605, 20.88 7.5600000000000005 C 20.939999999999998 7.470000000000001, 20.85 7.365, 21 7.38 C 21.240000000000002 7.5, 21.21 7.155, 21.48 7.62 C 21.78 8.43, 21.69 8.01, 22.080000000000002 9.24 C 22.560000000000002 10.89, 22.439999999999998 10.875, 23.04 12.54 C 23.759999999999998 14.219999999999999, 23.775 14.444999999999999, 24.48 15.899999999999999 C 25.17 17.13, 25.185 17.325, 25.86 18.36 C 26.52 19.2, 26.595 19.335, 27.18 20.04 C 27.69 20.61, 27.78 20.744999999999997, 28.200000000000003 21.18 C 28.53 21.48, 28.575000000000003 21.54, 28.86 21.78 C 29.099999999999998 21.96, 29.174999999999997 22.005000000000003, 29.339999999999996 22.14 C 29.43 22.23, 29.474999999999998 22.275, 29.52 22.32 L 29.52 22.32" fill="none" stroke="black" stroke-width="5"></path><path d="M 14.399999999999999 37.019999999999996 C 14.399999999999999 37.019999999999996, 14.294999999999998 37.019999999999996, 14.399999999999999 37.019999999999996 C 14.61 37.019999999999996, 14.04 37.019999999999996, 14.82 37.019999999999996 C 16.17 37.019999999999996, 15.795 37.125, 17.52 37.019999999999996 C 19.619999999999997 36.809999999999995, 19.77 36.794999999999995, 21.72 36.599999999999994 C 23.52 36.42, 23.415 36.45, 25.32 36.24 C 27.33 36, 28.184999999999995 35.879999999999995, 29.339999999999996 35.76 C 29.64 35.76, 29.76 35.76, 29.94 35.76 C 30 35.76, 30.03 35.76, 30.06 35.76 L 30.06 35.76" fill="none" stroke="black" stroke-width="5"></path><path d="M 11.879999999999999 44.22 C 12.87 44.22, 11.52 44.474999999999994, 13.86 44.22 C 17.55 43.71, 17.955000000000002 43.56, 21.240000000000002 43.2 C 24.12 42.99, 24.87 42.885000000000005, 27 42.78 C 28.38 42.78, 28.755 42.78, 29.759999999999998 42.78 C 30.39 42.78, 30.585 42.78, 31.02 42.78 L 31.5 42.78" fill="none" stroke="black" stroke-width="5"></path></svg>