<svg width="48" height="48" viewBox="0 0 48 48" xmlns="http://www.w3.org/2000/svg"><path d="M 11.94 2.88 C 11.61 5.039999999999999, 11.565 4.095, 11.28 7.199999999999999 C 11.04 11.25, 10.785 11.43, 10.8 15.299999999999999 C 11.07 18.99, 10.98 19.815, 11.34 22.68 C 11.79 24.72, 11.655000000000001 24.974999999999998, 12.24 26.759999999999998 C 12.96 28.29, 12.99 28.755, 13.68 29.82 C 14.34 30.42, 14.22 30.869999999999997, 15 31.02 C 15.899999999999999 30.72, 15.779999999999998 31.455000000000002, 16.799999999999997 30.42 C 17.939999999999998 28.650000000000002, 18.075000000000003 28.935000000000002, 19.080000000000002 26.880000000000003 C 19.950000000000003 24.540000000000003, 20.34 23.730000000000004, 20.82 22.200000000000003 C 20.91 21.48, 20.955 21.119999999999997, 21 20.759999999999998 C 21 20.759999999999998, 21 20.669999999999998, 21 20.759999999999998 C 21 20.939999999999998, 21 20.16, 21 21.12 C 21 22.86, 20.835 22.619999999999997, 21 24.599999999999998 C 21.33 26.82, 20.925 27.33, 21.66 29.04 C 22.8 30.240000000000002, 22.53 30.72, 23.94 31.44 C 25.619999999999997 31.68, 25.575 31.950000000000003, 27.299999999999997 31.92 C 29.069999999999997 31.62, 29.399999999999995 31.695, 30.839999999999996 31.32 C 31.95 30.87, 32.505 30.645000000000003, 33.06 30.42 L 33.06 30.42" fill="none" stroke="black" stroke-width="5"></path><path d="M 22.38 35.7 C 20.759999999999998 35.730000000000004, 20.43 35.339999999999996, 19.14 35.76 C 18.18 36.57, 17.97 36.36, 17.22 37.38 C 16.68 38.61, 16.485 38.504999999999995, 16.14 39.839999999999996 C 15.99 41.28, 15.585 41.355, 15.84 42.72 C 16.5 44.01, 16.125 44.339999999999996, 17.16 45.3 C 18.57 45.93, 18.69 46.2, 19.98 46.56 C 21.15 46.650000000000006, 20.895 46.800000000000004, 22.32 46.74 C 24 46.53, 24.36 46.86, 25.68 46.32 C 26.64 45.45, 26.985 45.48, 27.599999999999998 44.58 C 27.869999999999997 43.65, 28.005 43.59, 28.14 42.72 C 28.14 41.91, 28.32 41.99999999999999, 28.14 41.099999999999994 C 27.78 40.11, 27.870000000000005 39.959999999999994, 27.42 39.12 C 26.88 38.43, 26.955 38.4, 26.339999999999996 37.74 C 25.65 37.11, 25.575 36.96000000000001, 24.96 36.480000000000004 C 24.42 36.150000000000006, 24.375 36.075, 23.88 35.82 C 23.43 35.64, 23.28 35.55, 22.98 35.46 C 22.83 35.46, 22.755 35.46, 22.68 35.46 L 22.68 35.46" fill="none" stroke="black" stroke-width="5"></path><path d="M 15.24 41.339999999999996 C 15.48 41.339999999999996, 15.090000000000002 41.339999999999996, 15.72 41.339999999999996 C 16.74 41.339999999999996, 16.275 41.44499999999999, 17.759999999999998 41.339999999999996 C 19.71 41.129999999999995, 19.98 41.085, 21.66 40.92 C 23.07 40.8, 23.265 40.74, 24.48 40.68 C 25.5 40.68, 25.68 40.68, 26.52 40.68 C 27.18 40.68, 27.434999999999995 40.68, 27.839999999999996 40.68 C 27.99 40.68, 28.02 40.695, 28.14 40.68 L 28.32 40.62" fill="none" stroke="black" stroke-width="5"></path><path d="M 10.620000000000001 18.18 C 10.8 17.49, 9.96 18.584999999999997, 10.98 16.799999999999997 C 12.84 13.919999999999998, 12.450000000000001 14.175, 14.700000000000001 11.040000000000001 C 17.34 7.65, 18.09 6.525, 19.98 4.26 C 21.119999999999997 3.12, 21.345 2.925, 22.259999999999998 1.98 C 22.95 1.23, 23.295 0.855, 23.64 0.48 C 23.64 0.48, 23.475 0.24, 23.64 0.48 C 23.97 0.96, 23.775 0.08999999999999986, 24.299999999999997 1.44 C 25.02 3.6599999999999997, 24.855000000000004 3.795, 25.740000000000002 5.88 C 26.79 7.83, 26.97 8.205, 27.839999999999996 9.78 C 28.529999999999998 10.98, 28.769999999999996 11.325, 29.22 12.18 C 29.43 12.690000000000001, 29.43 12.705000000000002, 29.64 13.200000000000001 C 29.85 13.68, 29.939999999999998 13.875, 30.06 14.16 C 30.089999999999996 14.25, 30.104999999999997 14.295, 30.119999999999997 14.34 L 30.119999999999997 14.34" fill="none" stroke="black" stroke-width="5"></path></svg>