<svg width="48" height="48" viewBox="0 0 48 48" xmlns="http://www.w3.org/2000/svg"><path d="M 15.24 27.299999999999997 C 15.149999999999999 26.459999999999997, 15.194999999999999 26.4, 15.059999999999999 25.619999999999997 C 14.879999999999999 24.9, 14.835 24.735, 14.700000000000001 24.18 C 14.61 23.79, 14.565 23.82, 14.52 23.4 C 14.52 22.95, 14.489999999999998 22.89, 14.52 22.5 C 14.58 22.17, 14.415000000000001 22.185, 14.64 21.84 C 15.03 21.48, 14.909999999999998 21.450000000000003, 15.419999999999998 21.12 C 16.049999999999997 20.82, 15.945 20.79, 16.68 20.52 C 17.52 20.28, 16.875 20.235, 18.36 20.04 C 20.490000000000002 19.89, 20.73 19.845000000000002, 22.62 19.740000000000002 C 24.270000000000003 19.68, 24.645000000000003 19.695, 25.92 19.62 C 26.82 19.53, 26.82 19.485, 27.72 19.44 C 28.619999999999997 19.44, 28.92 19.44, 29.52 19.44 C 29.82 19.44, 29.804999999999996 19.395000000000003, 30.119999999999997 19.44 C 30.45 19.53, 30.495 19.485, 30.78 19.62 C 31.02 19.8, 31.034999999999997 19.725, 31.259999999999998 19.98 C 31.47 20.310000000000002, 31.455 20.055, 31.68 20.64 C 31.92 21.48, 31.935000000000002 21.075000000000003, 32.160000000000004 22.32 C 32.370000000000005 23.97, 32.475 24.569999999999997, 32.58 25.619999999999997 C 32.58 26.07, 32.58 26.294999999999998, 32.58 26.52 L 32.58 26.52" fill="none" stroke="black" stroke-width="5"></path><path d="M 16.44 16.200000000000003 C 17.130000000000003 14.700000000000003, 16.785 15.090000000000002, 17.82 13.200000000000001 C 19.200000000000003 10.920000000000002, 19.560000000000002 10.305, 20.580000000000002 8.64 C 21.240000000000002 7.590000000000001, 21.345 7.320000000000001, 21.9 6.540000000000001 C 22.349999999999998 6.030000000000001, 22.544999999999998 5.8500000000000005, 22.799999999999997 5.5200000000000005 C 22.86 5.37, 22.799999999999997 5.355, 22.919999999999998 5.22 C 23.1 5.1, 22.995 4.994999999999999, 23.28 4.9799999999999995 C 23.67 5.07, 23.7 5.04, 24.06 5.16 C 24.39 5.3100000000000005, 24.194999999999997 4.995, 24.72 5.46 C 25.44 6.24, 25.410000000000004 5.999999999999999, 26.160000000000004 7.02 C 26.94 8.280000000000001, 26.955 8.385000000000002, 27.72 9.540000000000001 C 28.47 10.59, 28.68 10.875, 29.22 11.64 C 29.55 12.120000000000001, 29.715000000000003 12.360000000000001, 29.880000000000003 12.600000000000001 C 29.880000000000003 12.600000000000001, 29.880000000000003 12.600000000000001, 29.880000000000003 12.600000000000001 L 29.880000000000003 12.600000000000001" fill="none" stroke="black" stroke-width="5"></path><path d="M 23.28 19.32 C 23.28 20.189999999999998, 23.28 20.235, 23.28 21.06 C 23.28 21.84, 23.235 21.57, 23.28 22.62 C 23.37 23.939999999999998, 23.37 23.939999999999998, 23.46 25.259999999999998 C 23.55 26.58, 23.595 26.490000000000002, 23.64 27.900000000000002 C 23.64 29.400000000000002, 23.64 29.46, 23.64 30.900000000000002 C 23.64 32.28, 23.685000000000002 32.535000000000004, 23.64 33.660000000000004 C 23.55 34.53, 23.625 34.51500000000001, 23.46 35.400000000000006 C 23.22 36.300000000000004, 23.34 36.18000000000001, 22.98 37.2 C 22.5 38.34, 22.56 38.47500000000001, 22.02 39.480000000000004 C 21.42 40.35, 21.39 40.485, 20.82 41.22 C 20.28 41.82, 20.340000000000003 41.775000000000006, 19.740000000000002 42.42 C 19.08 43.11, 19.155 43.155, 18.419999999999998 43.8 C 17.61 44.4, 17.489999999999995 44.565, 16.799999999999997 45 C 16.229999999999997 45.269999999999996, 15.945 45.405, 15.66 45.54 L 15.66 45.54" fill="none" stroke="black" stroke-width="5"></path><path d="M 21.66 39.18 C 21.9 39.120000000000005, 21.87 39.075, 22.14 39.06 C 22.44 39.09, 22.245000000000005 39.105, 22.740000000000002 39.12 C 23.43 39.12, 23.144999999999996 39.089999999999996, 24.119999999999997 39.12 C 25.38 39.18, 25.545 39.165, 26.64 39.24 C 27.57 39.33, 27.51 39.375, 28.5 39.42 C 29.549999999999997 39.42, 29.805 39.375, 30.599999999999998 39.42 C 31.14 39.51, 31.259999999999998 39.55499999999999, 31.68 39.599999999999994 L 32.28 39.599999999999994" fill="none" stroke="black" stroke-width="5"></path></svg>