<svg width="48" height="48" viewBox="0 0 48 48" xmlns="http://www.w3.org/2000/svg"><path d="M 19.14 42.3 C 19.08 42.269999999999996, 19.439999999999998 42.255, 19.02 42.24 C 18.240000000000002 42.24, 18.240000000000002 42.285000000000004, 17.46 42.24 C 16.68 42.150000000000006, 16.485 42.150000000000006, 15.899999999999999 42.06 C 15.51 41.97, 15.540000000000001 41.925000000000004, 15.120000000000001 41.88 C 14.670000000000002 41.88, 14.685 41.88, 14.22 41.88 C 13.74 41.88, 13.65 41.88, 13.26 41.88 C 12.96 41.88, 13.035 41.88, 12.66 41.88 C 12.21 41.88, 11.985 41.88, 11.76 41.88 C 11.76 41.88, 11.85 41.88, 11.76 41.88 C 11.579999999999998 41.88, 11.52 41.88, 11.399999999999999 41.88 C 11.34 41.88, 11.354999999999999 41.88, 11.28 41.88 C 11.190000000000001 41.88, 11.145000000000001 41.88, 11.100000000000001 41.88 C 11.100000000000001 41.88, 11.175 41.895, 11.100000000000001 41.88 C 10.950000000000001 41.85, 10.935 42, 10.8 41.82 C 10.68 41.49, 10.755 42.06, 10.56 41.160000000000004 C 10.29 39.69, 10.26 39.84, 10.02 38.22 C 9.81 36.45, 9.705000000000002 36.42, 9.600000000000001 34.68 C 9.600000000000001 32.97, 9.630000000000003 32.745, 9.600000000000001 31.259999999999998 C 9.540000000000001 30, 9.525 30.51, 9.48 28.740000000000002 C 9.45 26.46, 9.405 26.235, 9.42 24.18 C 9.48 22.35, 9.39 21.96, 9.540000000000001 20.52 C 9.780000000000001 19.47, 9.81 19.154999999999998, 10.02 18.419999999999998 C 10.2 18, 10.02 18.21, 10.379999999999999 17.580000000000002 C 10.919999999999998 16.740000000000002, 10.889999999999999 16.59, 11.459999999999999 15.899999999999999 C 12.059999999999999 15.36, 12.06 15.33, 12.66 14.82 C 13.26 14.34, 13.274999999999999 14.264999999999999, 13.86 13.86 C 14.43 13.530000000000001, 14.565 13.38, 15 13.200000000000001 C 15.3 13.170000000000002, 15.330000000000002 13.155000000000001, 15.600000000000001 13.14 C 15.840000000000002 13.14, 15.840000000000003 13.02, 16.080000000000002 13.14 C 16.32 13.38, 16.29 13.245000000000001, 16.56 13.620000000000001 C 16.86 14.13, 16.83 13.830000000000002, 17.16 14.64 C 17.52 15.75, 17.58 15.12, 17.88 16.86 C 18.119999999999997 19.23, 18.18 19.290000000000003, 18.36 21.6 C 18.48 23.85, 18.495 24.33, 18.6 26.099999999999998 C 18.69 27.39, 18.69 27.615, 18.78 28.68 C 18.87 29.52, 18.915 29.895, 18.96 30.36 C 18.96 30.45, 18.96 30.494999999999997, 18.96 30.54 C 18.96 30.54, 18.9 30.525, 18.96 30.54 C 19.080000000000002 30.57, 19.050000000000004 30.659999999999997, 19.200000000000003 30.599999999999998 C 19.380000000000003 30.449999999999996, 19.08 30.419999999999998, 19.56 30.299999999999997 C 20.34 30.209999999999997, 20.025 30.165, 21.12 30.119999999999997 C 22.53 30.119999999999997, 22.71 29.999999999999996, 23.94 30.119999999999997 C 24.990000000000002 30.36, 25.259999999999998 30.374999999999996, 26.04 30.599999999999998 C 26.549999999999997 30.81, 26.459999999999997 30.599999999999998, 27.06 31.02 C 27.75 31.65, 27.855 31.365000000000002, 28.44 32.28 C 28.92 33.480000000000004, 29.070000000000004 33.45, 29.400000000000002 34.68 C 29.58 35.94, 29.669999999999998 36.09, 29.759999999999998 37.2 C 29.759999999999998 38.16, 29.759999999999998 37.935, 29.759999999999998 39.12 C 29.759999999999998 40.53, 29.759999999999998 40.769999999999996, 29.759999999999998 41.94 C 29.759999999999998 42.87, 29.759999999999998 43.334999999999994, 29.759999999999998 43.8 C 29.759999999999998 43.8, 29.79 43.769999999999996, 29.759999999999998 43.8 L 29.64 43.92" fill="none" stroke="black" stroke-width="5"></path><path d="M 18.66 22.44 C 19.71 21.36, 19.95 21.135, 20.759999999999998 20.28 C 21.33 19.65, 21.18 19.83, 21.9 19.02 C 22.77 18.03, 22.98 17.849999999999998, 23.64 17.04 C 24.09 16.41, 24.314999999999998 16.095, 24.54 15.78 C 24.54 15.78, 24.525 15.809999999999999, 24.54 15.78 C 24.57 15.719999999999999, 24.494999999999997 15.855, 24.599999999999998 15.66 C 24.78 15.33, 24.855 15.21, 24.96 15 C 24.990000000000002 14.91, 25.005 14.865, 25.02 14.82 C 25.02 14.82, 25.005 14.865, 25.02 14.82 C 25.049999999999997 14.73, 25.064999999999998 14.685, 25.08 14.64 C 25.08 14.64, 24.99 14.655000000000001, 25.08 14.64 C 25.259999999999998 14.610000000000001, 25.305 14.550000000000002, 25.44 14.580000000000002 C 25.53 14.670000000000002, 25.424999999999997 14.445, 25.619999999999997 14.76 C 25.919999999999998 15.3, 25.949999999999996 15.254999999999999, 26.22 15.84 C 26.46 16.47, 26.490000000000002 16.545, 26.700000000000003 17.1 C 26.880000000000003 17.58, 26.805 17.4, 27.06 18.06 C 27.39 18.9, 27.299999999999997 18.78, 27.72 19.740000000000002 C 28.23 20.82, 28.290000000000003 21.03, 28.740000000000002 21.9 C 29.130000000000003 22.56, 29.25 22.724999999999998, 29.52 23.22 C 29.67 23.549999999999997, 29.745 23.715, 29.82 23.88 L 29.82 23.88" fill="none" stroke="black" stroke-width="5"></path></svg>