<svg width="48" height="48" viewBox="0 0 48 48" xmlns="http://www.w3.org/2000/svg"><path d="M 15.84 29.04 C 15.72 27.81, 15.66 27.825, 15.600000000000001 26.58 C 15.600000000000001 25.32, 15.690000000000001 25.334999999999997, 15.600000000000001 24.06 C 15.420000000000002 22.77, 15.39 22.47, 15.24 21.48 C 15.120000000000001 20.79, 15.075 20.64, 15 20.1 C 14.97 19.71, 14.955000000000002 19.665, 14.940000000000001 19.32 C 14.940000000000001 19.02, 14.940000000000001 19.02, 14.940000000000001 18.72 C 14.940000000000001 18.42, 14.940000000000001 18.315, 14.940000000000001 18.12 C 14.940000000000001 18.03, 14.895000000000001 18.135, 14.940000000000001 17.94 C 15.030000000000001 17.64, 14.850000000000001 17.565, 15.120000000000001 17.34 C 15.57 17.189999999999998, 15.51 17.16, 16.02 17.04 C 16.59 16.95, 16.335 16.935, 17.16 16.86 C 18.240000000000002 16.8, 18.165 16.815, 19.32 16.740000000000002 C 20.55 16.65, 20.55 16.619999999999997, 21.78 16.56 C 23.01 16.53, 23.07 16.515, 24.240000000000002 16.5 C 25.35 16.5, 25.44 16.5, 26.46 16.5 C 27.39 16.5, 27.405 16.5, 28.32 16.5 C 29.22 16.5, 29.43 16.5, 30.119999999999997 16.5 C 30.599999999999998 16.5, 30.599999999999998 16.545, 31.08 16.5 C 31.56 16.41, 31.755 16.365000000000002, 32.04 16.32 L 32.22 16.32" fill="none" stroke="black" stroke-width="5"></path><path d="M 15.600000000000001 11.64 C 16.5 10.71, 16.32 11.084999999999999, 17.4 9.78 C 18.659999999999997 8.1, 19.005 7.6049999999999995, 19.919999999999998 6.42 C 20.49 5.73, 20.534999999999997 5.64, 21.06 5.04 C 21.54 4.53, 21.615 4.455, 22.02 4.0200000000000005 C 22.35 3.66, 22.395 3.6000000000000005, 22.68 3.3000000000000003 C 22.92 3.06, 22.995 2.985, 23.16 2.82 C 23.25 2.73, 23.205 2.745, 23.34 2.64 C 23.520000000000003 2.5200000000000005, 23.490000000000002 2.4150000000000005, 23.700000000000003 2.4000000000000004 C 23.94 2.49, 23.82 2.1900000000000004, 24.18 2.58 C 24.66 3.27, 24.630000000000003 3.06, 25.14 3.96 C 25.68 5.07, 25.605 4.935, 26.22 6.18 C 26.909999999999997 7.56, 27.104999999999997 8.04, 27.599999999999998 8.94 C 27.9 9.36, 28.005000000000003 9.524999999999999, 28.200000000000003 9.78 C 28.290000000000003 9.87, 28.335 9.915, 28.380000000000003 9.959999999999999 C 28.380000000000003 9.959999999999999, 28.380000000000003 9.959999999999999, 28.380000000000003 9.959999999999999 L 28.380000000000003 9.959999999999999" fill="none" stroke="black" stroke-width="5"></path><path d="M 22.740000000000002 17.580000000000002 C 22.740000000000002 19.05, 22.725 19.035, 22.740000000000002 20.52 C 22.77 22.02, 22.784999999999997 22.11, 22.799999999999997 23.52 C 22.799999999999997 24.840000000000003, 22.799999999999997 24.390000000000004, 22.799999999999997 26.160000000000004 C 22.799999999999997 28.380000000000003, 22.799999999999997 28.65, 22.799999999999997 30.599999999999998 C 22.799999999999997 32.28, 22.799999999999997 32.67, 22.799999999999997 33.96 C 22.799999999999997 34.86, 22.799999999999997 34.92, 22.799999999999997 35.76 C 22.799999999999997 36.54, 22.799999999999997 36.36, 22.799999999999997 37.32 C 22.799999999999997 38.459999999999994, 22.799999999999997 38.73, 22.799999999999997 39.599999999999994 C 22.799999999999997 40.199999999999996, 22.769999999999996 40.379999999999995, 22.799999999999997 40.8 C 22.86 41.04, 22.83 40.965, 22.919999999999998 41.28 C 23.04 41.67, 23.055 41.745000000000005, 23.16 42.06 C 23.25 42.3, 23.235 42.33, 23.34 42.54 C 23.46 42.72, 23.43 42.75000000000001, 23.580000000000002 42.900000000000006 C 23.76 43.02, 23.775000000000002 43.08, 23.94 43.14 C 24.090000000000003 43.14, 24.165000000000003 43.14, 24.240000000000002 43.14 C 24.240000000000002 43.14, 24.21 43.215, 24.240000000000002 43.14 C 24.3 42.989999999999995, 24.33 43.26, 24.36 42.839999999999996 C 24.36 42.15, 24.36 42.18, 24.36 41.46 C 24.36 40.71, 24.36 40.845, 24.36 39.96 C 24.36 38.94, 24.27 38.94, 24.36 37.92 C 24.54 36.900000000000006, 24.525 36.72, 24.72 35.88 C 24.93 35.22, 24.810000000000002 35.265, 25.14 34.56 C 25.59 33.81, 25.38 33.78, 26.04 33.06 C 26.91 32.370000000000005, 26.925 32.19, 27.78 31.68 C 28.62 31.35, 28.725 31.185, 29.46 31.02 C 30.09 31.02, 30.255 31.02, 30.72 31.02 C 31.02 31.02, 31.17 31.02, 31.32 31.02 C 31.32 31.02, 31.32 31.02, 31.32 31.02 L 31.32 31.02" fill="none" stroke="black" stroke-width="5"></path></svg>