<svg width="48" height="48" viewBox="0 0 48 48" xmlns="http://www.w3.org/2000/svg"><path d="M 12.84 22.740000000000002 C 12.72 22.98, 12.66 23.1, 12.600000000000001 23.22 C 12.600000000000001 23.22, 12.555000000000001 23.279999999999998, 12.600000000000001 23.22 C 12.690000000000001 23.1, 12.54 23.595, 12.78 22.98 C 13.169999999999998 21.869999999999997, 12.825 22.349999999999998, 13.559999999999999 20.759999999999998 C 14.64 18.689999999999998, 14.805 18.48, 15.72 16.62 C 16.47 14.97, 16.41 15.135000000000002, 17.22 13.32 C 18.09 11.34, 18.225 11.055, 18.96 9.36 C 19.560000000000002 7.95, 19.575000000000003 7.965000000000001, 20.16 6.540000000000001 C 20.729999999999997 5.1000000000000005, 20.97 4.470000000000001, 21.299999999999997 3.66 C 21.39 3.4800000000000004, 21.435 3.39, 21.48 3.3000000000000003 C 21.48 3.3000000000000003, 21.405 3.12, 21.48 3.3000000000000003 C 21.630000000000003 3.66, 21.225 2.355000000000001, 21.78 4.0200000000000005 C 22.740000000000002 6.99, 22.755000000000003 7.395, 23.700000000000003 9.959999999999999 C 24.630000000000003 12.12, 24.615 12.239999999999998, 25.56 14.28 C 26.52 16.2, 26.73 16.545, 27.48 18.12 C 28.02 19.35, 28.169999999999998 19.725, 28.56 20.580000000000002 C 28.799999999999997 21.060000000000002, 28.814999999999998 21.134999999999998, 29.04 21.54 C 29.25 21.87, 29.310000000000002 21.945000000000004, 29.46 22.200000000000003 C 29.55 22.380000000000003, 29.595 22.47, 29.64 22.56 L 29.64 22.56" fill="none" stroke="black" stroke-width="5"></path><path d="M 21.18 5.5200000000000005 C 21.21 6.6, 21.180000000000003 6.165, 21.240000000000002 7.68 C 21.33 9.629999999999999, 21.375 9.66, 21.419999999999998 11.58 C 21.419999999999998 13.469999999999999, 21.419999999999998 13.35, 21.419999999999998 15.36 C 21.419999999999998 17.490000000000002, 21.374999999999996 17.805, 21.419999999999998 19.62 C 21.509999999999998 21.12, 21.555 20.985, 21.6 22.62 C 21.6 24.39, 21.525000000000002 24.585000000000004, 21.6 26.160000000000004 C 21.75 27.540000000000003, 21.765 27.555000000000003, 21.9 28.92 C 22.02 30.27, 22.08 30.479999999999997, 22.14 31.619999999999997 C 22.14 32.55, 22.05 32.44500000000001, 22.14 33.480000000000004 C 22.32 34.620000000000005, 22.365000000000002 34.62, 22.5 35.76 C 22.59 36.9, 22.59 36.915, 22.68 38.04 C 22.77 39.15, 22.814999999999998 39.39, 22.86 40.26 C 22.86 40.89, 22.905 40.88999999999999, 22.86 41.519999999999996 C 22.77 42.15, 22.83 42.255, 22.68 42.78 C 22.47 43.2, 22.424999999999997 43.31999999999999, 22.259999999999998 43.62 C 22.14 43.8, 22.244999999999997 43.815000000000005, 22.02 43.980000000000004 C 21.689999999999998 44.13, 21.96 44.175, 21.36 44.28 C 20.490000000000002 44.34, 20.235 44.370000000000005, 19.62 44.400000000000006 C 19.259999999999998 44.400000000000006, 19.365 44.415000000000006, 18.9 44.400000000000006 C 18.33 44.370000000000005, 18.36 44.44499999999999, 17.759999999999998 44.339999999999996 C 17.13 44.16, 17.265 44.355000000000004, 16.5 43.980000000000004 C 15.600000000000001 43.41, 15.360000000000001 43.455, 14.700000000000001 42.839999999999996 C 14.280000000000001 42.17999999999999, 14.205 42.269999999999996, 13.86 41.519999999999996 C 13.59 40.67999999999999, 13.5 40.67999999999999, 13.32 39.839999999999996 C 13.23 39, 13.185 38.940000000000005, 13.14 38.160000000000004 C 13.14 37.44, 13.065000000000001 37.335, 13.14 36.72 C 13.290000000000001 36.21, 13.05 36.225, 13.440000000000001 35.7 C 14.07 35.16, 14.040000000000001 35.04, 14.700000000000001 34.62 C 15.39 34.31999999999999, 15.405000000000003 34.245, 16.080000000000002 34.019999999999996 C 16.740000000000002 33.87, 16.65 33.839999999999996, 17.4 33.72 C 18.240000000000002 33.629999999999995, 18.36 33.585, 19.080000000000002 33.54 C 19.68 33.54, 19.845000000000002 33.51, 20.28 33.54 C 20.55 33.6, 20.64 33.6, 20.82 33.660000000000004 C 20.91 33.72, 20.835 33.72, 21 33.78 C 21.240000000000002 33.84, 21.240000000000002 33.81, 21.48 33.900000000000006 C 21.72 34.02, 21.705000000000002 33.99, 21.96 34.14 C 22.23 34.32, 22.29 34.365, 22.5 34.5 C 22.65 34.59, 22.724999999999998 34.635, 22.799999999999997 34.68 L 22.799999999999997 34.68" fill="none" stroke="black" stroke-width="5"></path></svg>