<svg width="48" height="48" viewBox="0 0 48 48" xmlns="http://www.w3.org/2000/svg"><path d="M 13.620000000000001 4.38 C 13.08 6.720000000000001, 12.945 6.930000000000001, 12.54 9.06 C 12.27 10.98, 12.3 10.319999999999999, 12 12.899999999999999 C 11.67 16.14, 11.504999999999999 16.53, 11.34 19.38 C 11.34 21.839999999999996, 11.115 22.544999999999995, 11.34 24.299999999999997 C 11.79 25.35, 11.76 25.62, 12.24 26.400000000000002 C 12.75 26.910000000000004, 12.855 27.135, 13.26 27.42 C 13.559999999999999 27.48, 13.514999999999999 27.6, 13.86 27.54 C 14.25 27.36, 13.965 27.84, 14.64 27.18 C 15.6 26.04, 15.899999999999999 25.935000000000002, 16.56 24.900000000000002 C 16.92 23.97, 17.055 23.79, 17.28 23.04 C 17.37 22.47, 17.415 22.29, 17.46 21.9 C 17.46 21.689999999999998, 17.445 21.630000000000003, 17.46 21.48 C 17.490000000000002 21.39, 17.505 21.345, 17.52 21.299999999999997 C 17.52 21.299999999999997, 17.52 21.299999999999997, 17.52 21.299999999999997 C 17.52 21.299999999999997, 17.505 21.419999999999995, 17.52 21.299999999999997 C 17.55 21.06, 17.565 20.939999999999998, 17.580000000000002 20.82 C 17.580000000000002 20.82, 17.535000000000004 20.865000000000002, 17.580000000000002 20.82 C 17.67 20.73, 17.64 20.625, 17.759999999999998 20.64 C 17.909999999999997 20.759999999999998, 17.909999999999997 20.415, 18.06 20.88 C 18.21 21.689999999999998, 18.195 21.735, 18.36 22.5 C 18.54 23.22, 18.465 23.22, 18.72 23.94 C 19.049999999999997 24.660000000000004, 18.974999999999998 24.825000000000003, 19.38 25.380000000000003 C 19.86 25.770000000000003, 19.62 25.770000000000003, 20.34 26.160000000000004 C 21.299999999999997 26.550000000000004, 20.895 26.565, 22.259999999999998 26.94 C 24.029999999999998 27.300000000000004, 24.479999999999997 27.480000000000004, 25.799999999999997 27.660000000000004 C 26.669999999999998 27.660000000000004, 27.03 27.660000000000004, 27.54 27.660000000000004 C 27.689999999999998 27.660000000000004, 27.719999999999995 27.660000000000004, 27.839999999999996 27.660000000000004 C 27.93 27.660000000000004, 27.974999999999998 27.660000000000004, 28.02 27.660000000000004 L 28.02 27.660000000000004" fill="none" stroke="black" stroke-width="5"></path><path d="M 11.94 16.62 C 13.169999999999998 15.21, 12.959999999999997 15.389999999999999, 14.399999999999999 13.799999999999999 C 16.05 12.03, 16.200000000000003 11.834999999999999, 17.700000000000003 10.26 C 19.05 8.879999999999999, 19.634999999999998 8.28, 20.4 7.5 C 20.58 7.32, 20.595 7.244999999999999, 20.759999999999998 7.14 C 20.909999999999997 7.109999999999999, 20.775 6.915, 21.06 7.08 C 21.479999999999997 7.44, 21.24 6.705000000000001, 21.9 7.800000000000001 C 22.8 9.629999999999999, 22.575000000000003 9.21, 23.700000000000003 11.459999999999999 C 25.050000000000004 14.129999999999999, 25.575000000000003 15.269999999999996, 26.400000000000002 16.799999999999997 C 26.700000000000003 17.189999999999998, 26.85 17.385, 27 17.580000000000002 L 27 17.580000000000002" fill="none" stroke="black" stroke-width="5"></path><path d="M 17.700000000000003 23.46 C 17.64 23.46, 17.610000000000003 23.385, 17.580000000000002 23.46 C 17.580000000000002 23.61, 17.535000000000004 23.339999999999996, 17.580000000000002 23.759999999999998 C 17.67 24.45, 17.669999999999998 24.495, 17.759999999999998 25.14 C 17.85 25.74, 17.865000000000002 25.739999999999995, 17.94 26.339999999999996 C 18 26.939999999999998, 17.985 26.834999999999997, 18.06 27.54 C 18.15 28.35, 18.195 28.230000000000004, 18.240000000000002 29.160000000000004 C 18.240000000000002 30.21, 18.285000000000004 30.284999999999997, 18.240000000000002 31.259999999999998 C 18.15 32.16, 18.224999999999998 32.115, 18.06 33.06 C 17.82 34.05, 17.76 34.230000000000004, 17.580000000000002 35.04 C 17.46 35.67, 17.565 35.519999999999996, 17.34 36.3 C 17.009999999999998 37.230000000000004, 17.055 37.365, 16.68 38.160000000000004 C 16.259999999999998 38.82000000000001, 16.41 38.790000000000006, 15.84 39.480000000000004 C 15.12 40.2, 15.194999999999999 40.230000000000004, 14.399999999999999 40.92 C 13.53 41.58, 13.53 41.58, 12.66 42.24 C 11.79 42.900000000000006, 11.475 43.17, 10.92 43.56 C 10.68 43.68, 10.559999999999999 43.739999999999995, 10.44 43.8 C 10.44 43.8, 10.514999999999999 43.8, 10.44 43.8 L 10.14 43.8" fill="none" stroke="black" stroke-width="5"></path><path d="M 17.88 34.68 C 17.88 35.19, 17.759999999999998 35.07, 17.88 35.7 C 18.119999999999997 36.45, 18.015 36.45, 18.36 37.2 C 18.81 37.95, 18.779999999999998 38.040000000000006, 19.259999999999998 38.7 C 19.77 39.269999999999996, 19.770000000000003 39.269999999999996, 20.28 39.839999999999996 C 20.79 40.41, 20.624999999999996 40.290000000000006, 21.299999999999997 40.980000000000004 C 22.14 41.79, 22.215 41.985, 22.98 42.599999999999994 C 23.67 43.019999999999996, 23.43 43.11, 24.36 43.44 C 25.53 43.68, 25.815 43.755, 26.700000000000003 43.92 C 27.300000000000004 44.01, 27.555000000000003 44.05499999999999, 27.900000000000002 44.099999999999994 C 27.990000000000002 44.099999999999994, 28.005 44.099999999999994, 28.08 44.099999999999994 L 28.200000000000003 44.099999999999994" fill="none" stroke="black" stroke-width="5"></path></svg>