<svg width="48" height="48" viewBox="0 0 48 48" xmlns="http://www.w3.org/2000/svg"><path d="M 13.32 30.119999999999997 C 15.3 30.119999999999997, 15.39 30.119999999999997, 17.28 30.119999999999997 C 19.08 30.119999999999997, 19.155 30.119999999999997, 20.88 30.119999999999997 C 22.53 30.119999999999997, 22.815 30.119999999999997, 24.18 30.119999999999997 C 25.259999999999998 30.119999999999997, 25.349999999999994 30.119999999999997, 26.339999999999996 30.119999999999997 C 27.24 30.119999999999997, 27.42 30.119999999999997, 28.14 30.119999999999997 C 28.68 30.119999999999997, 28.665 30.134999999999998, 29.22 30.119999999999997 C 29.79 30.089999999999996, 29.924999999999997 30.134999999999998, 30.36 30.06 C 30.66 29.939999999999998, 30.615000000000002 30.135, 30.96 29.82 C 31.35 29.31, 31.425000000000004 29.324999999999996, 31.740000000000002 28.799999999999997 C 31.98 28.259999999999998, 31.979999999999997 28.529999999999998, 32.22 27.72 C 32.46 26.64, 32.565000000000005 26.564999999999998, 32.7 25.56 C 32.730000000000004 24.630000000000003, 32.745 25.035000000000004, 32.76 23.700000000000003 C 32.76 21.96, 32.82 21.855, 32.76 20.22 C 32.64 18.689999999999998, 32.78999999999999 19.2, 32.519999999999996 17.16 C 32.099999999999994 14.61, 32.055 14.339999999999998, 31.68 12.059999999999999 C 31.35 10.05, 31.365000000000002 9.75, 31.02 8.040000000000001 C 30.659999999999997 6.630000000000001, 30.54 6.165, 30.299999999999997 5.22 C 30.18 4.74, 30.119999999999997 4.5, 30.06 4.26 C 30.06 4.26, 30.06 4.26, 30.06 4.26 C 30.06 4.26, 30.06 4.26, 30.06 4.26 L 30.06 4.26" fill="none" stroke="black" stroke-width="5"></path><path d="M 13.32 23.22 C 13.74 23.009999999999998, 13.05 23.97, 14.16 22.799999999999997 C 15.959999999999999 20.669999999999998, 16.124999999999996 20.549999999999997, 17.759999999999998 18.54 C 19.23 16.65, 19.245 16.77, 20.700000000000003 14.76 C 22.14 12.629999999999999, 22.680000000000003 11.895, 23.580000000000002 10.5 C 23.939999999999998 9.84, 24.119999999999997 9.51, 24.299999999999997 9.18 C 24.299999999999997 9.18, 24.194999999999997 9.209999999999999, 24.299999999999997 9.18 C 24.509999999999998 9.120000000000001, 24.299999999999997 8.505, 24.72 9.06 C 25.35 10.23, 25.064999999999998 9.794999999999998, 25.98 11.399999999999999 C 27.18 13.44, 27.360000000000003 13.815000000000001, 28.380000000000003 15.48 C 29.22 16.77, 29.34 17.055, 30.06 18.06 C 30.659999999999997 18.78, 30.75 18.884999999999998, 31.259999999999998 19.5 C 31.679999999999996 20.009999999999998, 31.889999999999993 20.265, 32.099999999999994 20.52 C 32.099999999999994 20.52, 32.099999999999994 20.52, 32.099999999999994 20.52 L 32.099999999999994 20.52" fill="none" stroke="black" stroke-width="5"></path><path d="M 26.700000000000003 35.22 C 24.78 35.07, 24.36 34.89, 22.86 34.92 C 21.78 35.129999999999995, 21.795 34.739999999999995, 20.700000000000003 35.339999999999996 C 19.590000000000003 36.33, 19.305 35.864999999999995, 18.48 37.32 C 17.939999999999998 39.24, 17.505 39.675000000000004, 17.4 41.160000000000004 C 17.729999999999997 42.21, 17.595 42.48, 18.06 43.26 C 18.659999999999997 43.769999999999996, 17.805 43.86, 19.259999999999998 44.28 C 21.57 44.61, 21.81 45.045, 23.88 44.94 C 25.71 44.4, 26.175 44.58, 27.54 43.86 C 28.439999999999998 42.96, 28.769999999999996 42.945, 29.339999999999996 42.06 C 29.58 41.19, 29.7 41.325, 29.82 40.32 C 29.82 39.18, 29.985 38.955, 29.82 38.04 C 29.490000000000002 37.35, 29.730000000000004 37.260000000000005, 29.160000000000004 36.660000000000004 C 28.35 36.150000000000006, 28.32 36.045, 27.54 35.64 C 26.79 35.34, 26.64 35.19, 26.04 35.04 C 25.59 35.04, 25.365000000000002 35.04, 25.14 35.04 L 25.14 35.04" fill="none" stroke="black" stroke-width="5"></path></svg>