<svg width="48" height="48" viewBox="0 0 48 48" xmlns="http://www.w3.org/2000/svg"><path d="M 15.419999999999998 17.34 C 16.619999999999997 17.13, 16.064999999999998 17.069999999999997, 17.82 16.919999999999998 C 20.130000000000003 16.83, 20.400000000000002 16.785, 22.44 16.740000000000002 C 24.21 16.740000000000002, 24.735 16.740000000000002, 25.98 16.740000000000002 C 26.700000000000003 16.740000000000002, 26.865000000000002 16.740000000000002, 27.42 16.740000000000002 C 27.810000000000002 16.740000000000002, 27.750000000000004 16.605000000000004, 28.200000000000003 16.740000000000002 C 28.71 17.01, 28.68 16.815, 29.22 17.28 C 29.79 17.94, 29.924999999999997 17.94, 30.36 18.6 C 30.66 19.259999999999998, 30.78 19.154999999999998, 30.96 19.919999999999998 C 31.02 20.79, 31.005 20.16, 31.08 21.66 C 31.169999999999998 23.79, 31.259999999999998 23.82, 31.259999999999998 25.92 C 31.169999999999998 27.990000000000002, 31.185 28.305, 31.08 30.06 C 30.959999999999997 31.5, 31.049999999999997 31.244999999999997, 30.839999999999996 32.94 C 30.54 34.89, 30.39 35.355, 30.240000000000002 36.839999999999996 C 30.240000000000002 37.86, 30.240000000000002 37.995000000000005, 30.240000000000002 38.88 C 30.240000000000002 39.63, 30.270000000000003 39.615, 30.240000000000002 40.38 C 30.18 41.16, 30.15 41.385, 30.119999999999997 41.94 C 30.119999999999997 42.269999999999996, 30.119999999999997 42.404999999999994, 30.119999999999997 42.599999999999994 C 30.119999999999997 42.66, 30.164999999999996 42.629999999999995, 30.119999999999997 42.72 L 29.94 42.96" fill="none" stroke="black" stroke-width="5"></path><path d="M 21.12 24.599999999999998 C 20.310000000000002 24.689999999999998, 20.310000000000002 24.075, 19.5 24.78 C 18.689999999999998 26.1, 18.419999999999998 26.130000000000003, 17.88 27.42 C 17.61 28.68, 17.445 28.725, 17.34 29.94 C 17.4 31.11, 17.16 31.155, 17.46 32.28 C 18 33.36, 17.925 33.555, 18.54 34.44 C 19.229999999999997 35.129999999999995, 19.29 35.43, 19.919999999999998 35.82 C 20.49 35.91, 20.31 35.985, 21.06 36 C 21.99 35.94, 22.08 36.045, 22.919999999999998 35.88 C 23.67 35.61, 23.835 35.805, 24.42 35.339999999999996 C 24.84 34.67999999999999, 24.974999999999998 34.739999999999995, 25.259999999999998 34.019999999999996 C 25.409999999999997 33.239999999999995, 25.394999999999996 33.45, 25.56 32.46 C 25.740000000000002 31.259999999999998, 25.830000000000002 31.064999999999998, 25.92 30.06 C 25.92 29.25, 26.040000000000003 29.265, 25.92 28.44 C 25.68 27.6, 25.740000000000002 27.345, 25.44 26.759999999999998 C 25.08 26.43, 25.23 26.415, 24.72 26.099999999999998 C 24.06 25.799999999999997, 24.06 25.68, 23.4 25.5 C 22.740000000000002 25.44, 22.605000000000004 25.410000000000004, 22.080000000000002 25.380000000000003 C 21.689999999999998 25.380000000000003, 21.764999999999997 25.425000000000004, 21.299999999999997 25.380000000000003 C 20.759999999999998 25.290000000000003, 20.61 25.245000000000005, 20.22 25.200000000000003 C 19.98 25.200000000000003, 19.86 25.200000000000003, 19.740000000000002 25.200000000000003 L 19.740000000000002 25.200000000000003" fill="none" stroke="black" stroke-width="5"></path><path d="M 17.64 30 C 17.82 30.06, 17.685000000000002 30.044999999999998, 18 30.119999999999997 C 18.45 30.209999999999997, 18 30.179999999999996, 18.9 30.299999999999997 C 20.25 30.449999999999996, 20.520000000000003 30.479999999999997, 21.6 30.599999999999998 C 22.41 30.689999999999998, 22.605 30.69, 23.22 30.78 C 23.64 30.87, 23.805 30.915, 24.06 30.96 C 24.15 30.96, 24.09 30.96, 24.240000000000002 30.96 C 24.450000000000003 30.96, 24.510000000000005 30.96, 24.660000000000004 30.96 L 24.839999999999996 30.96" fill="none" stroke="black" stroke-width="5"></path><path d="M 17.22 12.120000000000001 C 17.46 11.670000000000002, 16.905 12.585, 17.700000000000003 11.22 C 19.05 8.940000000000001, 19.41 8.325, 20.4 6.66 C 21.03 5.61, 21.3 5.115, 21.66 4.5600000000000005 C 21.75 4.5, 21.765 4.515, 21.84 4.4399999999999995 C 21.9 4.35, 21.84 4.38, 21.96 4.26 C 22.14 4.109999999999999, 22.14 4.109999999999999, 22.32 3.96 C 22.5 3.81, 22.560000000000002 3.765, 22.68 3.66 C 22.74 3.6, 22.724999999999998 3.585, 22.799999999999997 3.54 C 22.89 3.51, 22.814999999999998 3.4949999999999997, 22.98 3.4799999999999995 C 23.22 3.4799999999999995, 23.130000000000003 3.2399999999999993, 23.46 3.4799999999999995 C 23.88 3.9599999999999995, 23.4 3.0599999999999996, 24.299999999999997 4.4399999999999995 C 25.68 6.72, 25.994999999999997 7.095000000000001, 27.06 9 C 27.81 10.53, 28.139999999999997 11.249999999999998, 28.56 12.059999999999999 C 28.65 12.149999999999999, 28.695 12.195, 28.740000000000002 12.24 L 28.740000000000002 12.24" fill="none" stroke="black" stroke-width="5"></path></svg>