<svg width="48" height="48" viewBox="0 0 48 48" xmlns="http://www.w3.org/2000/svg"><path d="M 11.28 32.339999999999996 C 12.21 32.339999999999996, 12 32.339999999999996, 13.14 32.339999999999996 C 14.49 32.339999999999996, 14.655000000000001 32.339999999999996, 15.84 32.339999999999996 C 16.86 32.339999999999996, 16.695 32.339999999999996, 17.88 32.339999999999996 C 19.23 32.339999999999996, 19.305 32.339999999999996, 20.580000000000002 32.339999999999996 C 21.78 32.339999999999996, 21.9 32.324999999999996, 22.98 32.339999999999996 C 23.94 32.370000000000005, 24.000000000000004 32.295, 24.900000000000002 32.400000000000006 C 25.740000000000002 32.58, 25.709999999999997 32.55, 26.58 32.76 C 27.48 33, 27.720000000000002 32.97, 28.380000000000003 33.24 C 28.8 33.54, 28.755 33.419999999999995, 29.22 33.839999999999996 C 29.73 34.379999999999995, 29.835 34.32, 30.240000000000002 34.92 C 30.54 35.58, 30.554999999999996 35.325, 30.839999999999996 36.24 C 31.11 37.41, 31.245 37.665, 31.380000000000003 38.58 C 31.380000000000003 39.24, 31.410000000000004 39.330000000000005, 31.380000000000003 39.900000000000006 C 31.32 40.38, 31.56 40.41, 31.259999999999998 40.86 C 30.72 41.28, 30.765 41.385000000000005, 30.18 41.7 C 29.55 41.91, 29.85 41.925, 28.92 42.12 C 27.69 42.3, 27.465 42.39, 26.46 42.480000000000004 C 25.68 42.480000000000004, 25.470000000000002 42.480000000000004, 24.900000000000002 42.480000000000004 C 24.54 42.480000000000004, 24.36 42.480000000000004, 24.18 42.480000000000004 L 24.18 42.480000000000004" fill="none" stroke="black" stroke-width="5"></path><path d="M 26.400000000000002 32.64 C 26.910000000000004 32.61, 26.835 32.79, 27.42 32.58 C 28.080000000000002 32.19, 28.185000000000002 32.265, 28.740000000000002 31.799999999999997 C 29.19 31.259999999999998, 29.25 31.455, 29.64 30.72 C 29.97 29.79, 29.97 29.97, 30.299999999999997 28.86 C 30.63 27.57, 30.75 27.57, 30.96 26.28 C 31.05 24.990000000000002, 31.23 25.035000000000004, 31.14 23.700000000000003 C 30.869999999999997 22.32, 30.915 22.230000000000004, 30.599999999999998 20.94 C 30.240000000000002 19.740000000000002, 30.375000000000004 19.935, 29.880000000000003 18.54 C 29.25 16.95, 29.22 16.95, 28.619999999999997 15.36 C 28.049999999999997 13.77, 28.05 13.68, 27.48 12.18 C 26.909999999999997 10.77, 26.834999999999997 10.725, 26.339999999999996 9.36 C 25.919999999999998 8.04, 25.86 7.755000000000001, 25.5 6.720000000000001 C 25.200000000000003 5.970000000000001, 25.080000000000002 5.715, 24.900000000000002 5.22 C 24.840000000000003 4.98, 24.810000000000002 4.86, 24.78 4.74 C 24.78 4.74, 24.78 4.74, 24.78 4.74 L 24.78 4.74" fill="none" stroke="black" stroke-width="5"></path><path d="M 12.66 21.84 C 13.83 19.41, 13.875 19.365000000000002, 15 16.98 C 16.08 14.64, 16.38 14.204999999999998, 17.16 12.299999999999999 C 17.64 10.829999999999998, 17.880000000000003 10.094999999999999, 18.12 9.36 C 18.12 9.36, 18.09 9.405, 18.12 9.36 C 18.18 9.27, 17.94 8.94, 18.240000000000002 9.18 C 18.78 9.75, 18.72 9.375, 19.32 10.32 C 19.98 11.64, 19.65 11.295000000000002, 20.64 12.96 C 21.96 14.97, 22.035000000000004 15.495000000000001, 23.28 16.98 C 24.45 17.939999999999998, 24.33 18.15, 25.619999999999997 18.9 C 27.03 19.439999999999998, 27.48 19.634999999999998, 28.44 19.98 C 28.950000000000003 20.130000000000003, 29.115000000000002 20.19, 29.46 20.28 C 29.64 20.310000000000002, 29.73 20.325, 29.82 20.34 L 29.82 20.34" fill="none" stroke="black" stroke-width="5"></path></svg>