<svg width="48" height="48" viewBox="0 0 48 48" xmlns="http://www.w3.org/2000/svg"><path d="M 18.36 7.92 C 17.52 10.41, 17.79 9.464999999999998, 16.68 12.899999999999999 C 15.299999999999999 17.28, 15.059999999999999 17.625, 13.919999999999998 21.66 C 13.02 25.35, 12.825 25.875, 12.120000000000001 29.04 C 11.610000000000001 31.68, 11.415000000000003 32.415, 11.100000000000001 34.32 C 10.98 35.49, 10.92 35.49, 10.86 36.660000000000004 C 10.86 37.83, 10.62 38.1, 10.86 39 C 11.34 39.629999999999995, 10.845 39.735, 11.82 40.26 C 13.29 40.67999999999999, 12.555 40.85999999999999, 14.76 41.099999999999994 C 17.7 41.16, 17.505000000000003 41.235, 20.64 41.22 C 23.97 41.129999999999995, 24.93 41.22, 27.299999999999997 41.04 C 28.709999999999997 40.769999999999996, 29.415 40.635, 30.119999999999997 40.5 L 30.119999999999997 40.5" fill="none" stroke="black" stroke-width="5"></path><path d="M 13.68 23.759999999999998 C 14.28 23.22, 13.245 24.24, 14.879999999999999 22.68 C 17.549999999999997 20.1, 17.759999999999998 19.86, 20.22 17.52 C 22.47 15.42, 23.13 14.91, 24.72 13.32 C 25.65 12.24, 26.115 11.7, 26.58 11.16 L 26.58 11.16" fill="none" stroke="black" stroke-width="5"></path><path d="M 26.28 11.040000000000001 C 26.46 12.09, 26.265 11.700000000000001, 26.64 13.14 C 27.21 14.969999999999999, 26.985 14.399999999999997, 27.78 16.799999999999997 C 28.8 19.77, 29.01 20.700000000000003, 29.82 22.740000000000002 C 30.42 23.85, 30.689999999999998 24.375, 31.02 24.96 L 31.14 25.08" fill="none" stroke="black" stroke-width="5"></path></svg>