<svg width="48" height="48" viewBox="0 0 48 48" xmlns="http://www.w3.org/2000/svg"><path d="M 13.799999999999999 4.4399999999999995 C 13.829999999999998 6.81, 13.86 6.15, 13.86 9.18 C 13.829999999999998 12.87, 13.815 13.409999999999998, 13.799999999999999 16.56 C 13.799999999999999 19.17, 13.799999999999999 19.14, 13.799999999999999 21.78 C 13.799999999999999 24.45, 13.784999999999998 25.019999999999996, 13.799999999999999 27.119999999999997 C 13.829999999999998 28.65, 13.739999999999998 28.994999999999997, 13.86 30.18 C 14.07 31.02, 13.95 31.17, 14.28 31.86 C 14.73 32.4, 14.715 32.595, 15.18 32.94 C 15.66 33.09, 15.63 33.120000000000005, 16.14 33.24 C 16.68 33.33, 16.755 33.42, 17.22 33.42 C 17.61 33.33, 17.535 33.765, 18 33.24 C 18.54 32.28, 18.495 32.55, 19.080000000000002 31.32 C 19.71 29.82, 19.785 29.805, 20.34 28.32 C 20.82 26.85, 21.06 26.190000000000005, 21.299999999999997 25.380000000000003 C 21.299999999999997 25.23, 21.284999999999997 25.169999999999998, 21.299999999999997 25.08 C 21.33 25.049999999999997, 21.314999999999998 24.9, 21.36 25.02 C 21.42 25.29, 21.33 24.779999999999998, 21.48 25.56 C 21.72 26.85, 21.630000000000003 26.94, 21.96 28.14 C 22.38 29.25, 22.29 29.46, 22.799999999999997 30.36 C 23.4 31.05, 23.34 31.14, 24 31.740000000000002 C 24.72 32.25, 24.96 32.445, 25.44 32.76 C 25.68 32.879999999999995, 25.560000000000002 32.97, 25.92 33 C 26.400000000000002 32.94, 26.265 33.225, 26.880000000000003 32.88 C 27.630000000000003 32.25, 27.765000000000004 32.339999999999996, 28.380000000000003 31.619999999999997 C 28.86 30.81, 29.009999999999998 30.854999999999997, 29.339999999999996 30 C 29.52 29.1, 29.565 29.46, 29.700000000000003 28.200000000000003 C 29.790000000000003 26.580000000000002, 29.835 26.520000000000003, 29.880000000000003 24.96 C 29.880000000000003 23.46, 29.880000000000003 23.745, 29.880000000000003 21.96 C 29.880000000000003 19.89, 29.880000000000003 19.635, 29.880000000000003 17.82 C 29.880000000000003 16.26, 29.880000000000003 16.200000000000003, 29.880000000000003 14.700000000000001 C 29.880000000000003 13.260000000000002, 29.910000000000004 13.290000000000001, 29.880000000000003 11.82 C 29.82 10.32, 29.82 9.825, 29.759999999999998 8.82 C 29.7 8.31, 29.67 8.205000000000002, 29.64 7.800000000000001 C 29.64 7.5, 29.64 7.469999999999999, 29.64 7.199999999999999 C 29.64 6.96, 29.64 7.140000000000001, 29.64 6.720000000000001 C 29.64 6.120000000000001, 29.67 6.015000000000001, 29.64 5.5200000000000005 C 29.58 5.130000000000001, 29.55 4.9350000000000005, 29.52 4.74 C 29.52 4.74, 29.52 4.74, 29.52 4.74 L 29.52 4.74" fill="none" stroke="black" stroke-width="5"></path><path d="M 13.919999999999998 20.16 C 14.849999999999998 19.200000000000003, 14.264999999999999 20.1, 15.78 18.240000000000002 C 17.88 15.48, 18.375 15.015, 19.98 12.72 C 21.090000000000003 10.89, 21.330000000000002 10.515, 22.200000000000003 9.06 C 22.830000000000002 7.98, 23.025000000000002 7.74, 23.46 6.8999999999999995 C 23.700000000000003 6.299999999999999, 23.805 6.044999999999999, 23.94 5.699999999999999 C 23.97 5.609999999999999, 23.895 5.4, 24 5.5200000000000005 C 24.18 5.85, 24.195 5.3549999999999995, 24.36 6.18 C 24.51 7.5, 24.405 7.44, 24.660000000000004 8.82 C 25.020000000000003 10.26, 24.915000000000003 10.169999999999998, 25.380000000000003 11.7 C 25.950000000000003 13.32, 25.875 13.575000000000001, 26.52 14.940000000000001 C 27.240000000000002 16.05, 27.48 16.5, 27.96 17.16 C 28.200000000000003 17.37, 28.185000000000002 17.385, 28.44 17.580000000000002 C 28.71 17.76, 28.725 17.775000000000002, 28.98 17.94 C 29.22 18.090000000000003, 29.265 18.090000000000003, 29.46 18.240000000000002 C 29.61 18.39, 29.685 18.45, 29.759999999999998 18.54 L 29.759999999999998 18.6" fill="none" stroke="black" stroke-width="5"></path><path d="M 14.940000000000001 38.46 C 15.42 38.46, 14.579999999999998 38.565, 15.899999999999999 38.46 C 18.06 38.25, 18.015 38.205, 20.22 38.04 C 22.47 37.92, 22.724999999999998 37.86, 24.72 37.8 C 26.46 37.8, 26.865000000000002 37.8, 28.200000000000003 37.8 C 29.130000000000003 37.8, 29.52 37.8, 30.06 37.8 C 30.21 37.8, 30.285 37.8, 30.36 37.8 L 30.36 37.8" fill="none" stroke="black" stroke-width="5"></path><path d="M 14.76 43.8 C 15.54 43.8, 14.535 43.89, 16.32 43.8 C 19.11 43.62, 19.11 43.62, 21.9 43.44 C 24.689999999999998 43.26, 25.32 43.214999999999996, 27.48 43.08 C 29.009999999999998 42.99, 29.58 42.94500000000001, 30.54 42.900000000000006 C 30.93 42.900000000000006, 31.005000000000003 42.900000000000006, 31.32 42.900000000000006 L 31.799999999999997 42.900000000000006" fill="none" stroke="black" stroke-width="5"></path></svg>