<svg width="48" height="48" viewBox="0 0 48 48" xmlns="http://www.w3.org/2000/svg"><path d="M 14.100000000000001 4.14 C 13.89 5.34, 13.785 4.755000000000001, 13.68 6.540000000000001 C 13.68 8.91, 13.68 9.18, 13.68 11.28 C 13.68 13.11, 13.635 13.020000000000001, 13.68 14.940000000000001 C 13.77 16.950000000000003, 13.754999999999999 17.43, 13.86 18.96 C 13.98 20.009999999999998, 13.995000000000001 19.935, 14.100000000000001 21.06 C 14.190000000000001 22.259999999999998, 14.19 22.17, 14.28 23.46 C 14.370000000000001 24.84, 14.34 25.185, 14.46 26.22 C 14.61 26.909999999999997, 14.58 27.119999999999997, 14.76 27.599999999999998 C 14.969999999999999 27.869999999999997, 14.834999999999999 27.9, 15.18 28.14 C 15.66 28.35, 15.09 28.485, 16.14 28.56 C 17.759999999999998 28.5, 17.61 28.605, 19.38 28.44 C 21.299999999999997 28.17, 21.75 28.035000000000004, 23.22 27.900000000000002 C 24.24 27.900000000000002, 24.165 27.900000000000002, 25.259999999999998 27.900000000000002 C 26.43 27.900000000000002, 26.654999999999998 27.945000000000004, 27.599999999999998 27.900000000000002 C 28.32 27.810000000000002, 28.5 27.93, 29.04 27.72 C 29.4 27.39, 29.534999999999997 27.389999999999997, 29.759999999999998 27.06 C 29.85 26.73, 29.895 26.865000000000002, 29.94 26.400000000000002 C 29.94 25.800000000000004, 29.94 25.890000000000004, 29.94 25.200000000000003 C 29.94 24.42, 29.970000000000002 24.435000000000002, 29.94 23.64 C 29.880000000000003 22.83, 29.970000000000002 22.665, 29.82 22.02 C 29.58 21.54, 29.58 21.63, 29.339999999999996 21.06 C 29.099999999999998 20.4, 29.084999999999997 20.265, 28.86 19.740000000000002 C 28.65 19.35, 28.8 19.41, 28.44 18.96 C 27.93 18.450000000000003, 27.975 18.225, 27.42 17.94 C 26.82 17.880000000000003, 26.744999999999997 17.85, 26.22 17.82 C 25.77 17.82, 25.965 17.700000000000003, 25.32 17.82 C 24.48 18.06, 24.3 18.044999999999998, 23.64 18.299999999999997 C 23.16 18.57, 23.07 18.54, 22.68 18.84 C 22.380000000000003 19.17, 22.395000000000003 19.005, 22.080000000000002 19.5 C 21.75 20.16, 21.63 20.1, 21.419999999999998 20.82 C 21.33 21.6, 21.285 21.57, 21.240000000000002 22.38 C 21.240000000000002 23.22, 21.240000000000002 23.34, 21.240000000000002 24.06 C 21.240000000000002 24.659999999999997, 21.240000000000002 24.839999999999996, 21.240000000000002 25.259999999999998 C 21.240000000000002 25.5, 21.150000000000002 25.425, 21.240000000000002 25.740000000000002 C 21.42 26.130000000000003, 21.495 26.28, 21.6 26.52 C 21.630000000000003 26.61, 21.615000000000002 26.550000000000004, 21.66 26.700000000000003 C 21.72 26.91, 21.735 26.955, 21.78 27.119999999999997 C 21.810000000000002 27.24, 21.765 27.21, 21.84 27.36 C 21.96 27.54, 21.975 27.584999999999997, 22.080000000000002 27.72 C 22.17 27.810000000000002, 22.215 27.855, 22.259999999999998 27.900000000000002 C 22.259999999999998 27.900000000000002, 22.214999999999996 27.855000000000004, 22.259999999999998 27.900000000000002 C 22.35 27.990000000000002, 22.35 28.02, 22.44 28.08 C 22.53 28.11, 22.575000000000003 28.125, 22.62 28.14 C 22.62 28.14, 22.62 28.14, 22.62 28.14 L 22.62 28.14" fill="none" stroke="black" stroke-width="5"></path><path d="M 20.580000000000002 34.62 C 20.46 35.04, 20.31 34.815, 20.34 35.46 C 20.520000000000003 36.33, 20.265 36.480000000000004, 20.700000000000003 37.2 C 21.39 37.769999999999996, 21.300000000000004 38.16, 22.080000000000002 38.339999999999996 C 22.950000000000003 38.129999999999995, 23.355 38.385, 23.82 37.92 C 23.880000000000003 37.2, 23.985 37.155, 23.94 36.480000000000004 C 23.79 35.85, 23.895000000000003 35.64, 23.64 35.22 C 23.28 35.01, 23.31 34.905, 22.919999999999998 34.8 C 22.5 34.8, 22.515 34.67999999999999, 22.080000000000002 34.8 C 21.630000000000003 35.04, 21.45 34.89, 21.18 35.28 C 21.09 35.82, 21.015 35.775, 21 36.36 C 21.060000000000002 36.989999999999995, 20.865000000000002 37.169999999999995, 21.12 37.62 C 21.57 37.89, 21.375 38.205000000000005, 22.02 38.160000000000004 C 22.86 37.8, 23.145000000000003 38.07, 23.700000000000003 37.44 C 23.970000000000002 36.54, 24.330000000000002 36.39, 24.240000000000002 35.64 C 23.79 35.04, 23.73 34.845, 23.34 34.44 C 23.009999999999998 34.23, 22.98 34.05, 22.68 34.019999999999996 C 22.41 34.17, 22.335 33.974999999999994, 22.14 34.32 C 22.02 34.86, 21.84 34.89000000000001, 21.9 35.400000000000006 C 22.14 35.88, 22.14 36.03, 22.38 36.36 C 22.619999999999997 36.54, 22.56 36.78, 22.86 36.72 C 23.22 36.42, 23.490000000000002 36.39, 23.580000000000002 36.12 C 23.4 35.879999999999995, 23.34 35.76, 23.22 35.64 C 23.16 35.64, 23.16 35.64, 23.1 35.64 L 22.98 35.64" fill="none" stroke="black" stroke-width="5"></path></svg>