<svg width="48" height="48" viewBox="0 0 48 48" xmlns="http://www.w3.org/2000/svg"><path d="M 15.84 17.28 C 16.38 17.37, 16.005 17.355, 16.919999999999998 17.46 C 18.21 17.580000000000002, 18.375 17.64, 19.5 17.700000000000003 C 20.46 17.700000000000003, 20.4 17.700000000000003, 21.419999999999998 17.700000000000003 C 22.5 17.700000000000003, 22.68 17.67, 23.580000000000002 17.700000000000003 C 24.3 17.76, 23.865 17.73, 25.02 17.82 C 26.61 17.939999999999998, 26.970000000000002 18, 28.200000000000003 18.06 C 29.07 18.06, 29.235000000000003 18.06, 29.94 18.06 C 30.48 18.06, 30.645 18.06, 31.02 18.06 C 31.23 18.06, 31.095 18.06, 31.44 18.06 C 31.92 18.06, 32.010000000000005 18.06, 32.400000000000006 18.06 C 32.7 18.06, 32.775000000000006 18.06, 33 18.06 C 33.15 18.06, 33.224999999999994 18.06, 33.3 18.06 L 33.3 18.06" fill="none" stroke="black" stroke-width="5"></path><path d="M 34.56 12.299999999999999 C 34.14 12.48, 34.095 12.495, 33.72 12.66 C 33.39 12.81, 33.645 12.765, 33.06 12.96 C 32.22 13.200000000000001, 31.995000000000005 13.290000000000003, 31.380000000000003 13.440000000000001 C 30.990000000000002 13.5, 31.064999999999998 13.544999999999998, 30.599999999999998 13.559999999999999 C 30.06 13.53, 30.044999999999998 13.68, 29.52 13.5 C 29.009999999999998 13.17, 28.965 13.215, 28.5 12.84 C 28.080000000000002 12.42, 27.960000000000004 12.45, 27.660000000000004 12 C 27.48 11.52, 27.435 11.700000000000001, 27.299999999999997 11.040000000000001 C 27.209999999999997 10.2, 27.119999999999997 10.08, 27.119999999999997 9.36 C 27.209999999999997 8.76, 27.089999999999996 8.775, 27.299999999999997 8.16 C 27.63 7.529999999999999, 27.42 7.5, 27.96 6.8999999999999995 C 28.71 6.33, 28.89 6.074999999999999, 29.46 5.76 C 29.85 5.699999999999999, 29.85 5.67, 30.240000000000002 5.64 C 30.630000000000003 5.64, 30.57 5.475, 31.02 5.64 C 31.53 5.970000000000001, 31.575 5.970000000000001, 32.04 6.300000000000001 C 32.46 6.63, 32.46 6.539999999999999, 32.88 6.959999999999999 C 33.3 7.47, 33.405 7.515000000000001, 33.72 7.98 C 33.93 8.4, 33.915 8.145, 34.14 8.82 C 34.379999999999995 9.75, 34.47 9.6, 34.62 10.68 C 34.68 11.91, 34.71 12.015, 34.74 13.14 C 34.74 14.16, 34.74 14.115, 34.74 15.18 C 34.74 16.29, 34.755 16.485, 34.74 17.4 C 34.71 18.119999999999997, 34.74 17.91, 34.68 18.84 C 34.59 19.98, 34.575 20.1, 34.5 21.12 C 34.44 22.02, 34.56 21.839999999999996, 34.38 22.919999999999998 C 34.08 24.18, 34.095 24.3, 33.78 25.44 C 33.45 26.46, 33.48 26.415, 33.12 27.48 C 32.73 28.590000000000003, 32.654999999999994 28.695000000000004, 32.339999999999996 29.700000000000003 C 32.099999999999994 30.6, 32.085 30.72, 31.86 31.5 C 31.65 32.16, 31.650000000000002 32.19, 31.44 32.82 C 31.23 33.42, 31.32 33.19499999999999, 31.02 34.019999999999996 C 30.630000000000003 35.06999999999999, 30.585 35.22, 30.240000000000002 36.12 C 29.94 36.87, 29.94 36.87, 29.64 37.62 C 29.34 38.37, 29.205 38.64, 29.04 39.12 C 29.009999999999998 39.33, 28.995 39.435, 28.98 39.54 L 28.98 39.54" fill="none" stroke="black" stroke-width="5"></path><path d="M 32.76 17.759999999999998 C 33.09 17.759999999999998, 33.105000000000004 17.714999999999996, 33.42 17.759999999999998 C 33.72 17.85, 33.72 17.895, 34.019999999999996 17.94 C 34.31999999999999 17.94, 34.47 17.94, 34.62 17.94 L 34.62 17.94" fill="none" stroke="black" stroke-width="5"></path><path d="M 18.72 38.58 C 18.72 38.58, 18.705 38.58, 18.72 38.58 C 18.75 38.58, 18.525 38.519999999999996, 18.78 38.58 C 19.26 38.7, 18.885 38.745, 19.740000000000002 38.82 C 20.970000000000002 38.85, 20.820000000000004 38.865, 22.200000000000003 38.88 C 23.73 38.88, 23.85 38.88, 25.259999999999998 38.88 C 26.549999999999997 38.88, 26.714999999999996 38.82000000000001, 27.839999999999996 38.88 C 28.799999999999997 39, 28.919999999999995 38.985, 29.759999999999998 39.12 C 30.48 39.269999999999996, 30.375 39.300000000000004, 31.200000000000003 39.42 C 32.13 39.51, 32.190000000000005 39.55499999999999, 33.06 39.599999999999994 C 33.870000000000005 39.599999999999994, 33.915 39.599999999999994, 34.68 39.599999999999994 C 35.4 39.599999999999994, 35.684999999999995 39.599999999999994, 36.12 39.599999999999994 C 36.269999999999996 39.599999999999994, 36.27 39.599999999999994, 36.42 39.599999999999994 L 36.72 39.599999999999994" fill="none" stroke="black" stroke-width="5"></path><path d="M 18.48 44.099999999999994 C 18.990000000000002 44.25, 18.57 44.325, 19.5 44.400000000000006 C 20.85 44.400000000000006, 20.745000000000005 44.400000000000006, 22.200000000000003 44.400000000000006 C 23.76 44.400000000000006, 23.865000000000002 44.415000000000006, 25.32 44.400000000000006 C 26.67 44.370000000000005, 26.939999999999998 44.355, 28.02 44.339999999999996 C 28.83 44.339999999999996, 28.560000000000002 44.339999999999996, 29.64 44.339999999999996 C 30.99 44.339999999999996, 31.244999999999997 44.339999999999996, 32.339999999999996 44.339999999999996 C 33.17999999999999 44.339999999999996, 33.16499999999999 44.339999999999996, 34.019999999999996 44.339999999999996 C 34.89 44.339999999999996, 35.205 44.339999999999996, 35.76 44.339999999999996 C 36 44.339999999999996, 36.09 44.339999999999996, 36.24 44.339999999999996 L 36.36 44.339999999999996" fill="none" stroke="black" stroke-width="5"></path></svg>