<svg width="48" height="48" viewBox="0 0 48 48" xmlns="http://www.w3.org/2000/svg"><path d="M 14.700000000000001 17.46 C 15.150000000000002 17.55, 15.075000000000003 17.595, 15.600000000000001 17.64 C 16.2 17.64, 15.854999999999997 17.64, 16.799999999999997 17.64 C 18.089999999999996 17.64, 18.209999999999997 17.64, 19.38 17.64 C 20.43 17.64, 20.34 17.625, 21.48 17.64 C 22.71 17.67, 22.59 17.655, 23.94 17.700000000000003 C 25.410000000000004 17.76, 25.680000000000003 17.79, 26.880000000000003 17.82 C 27.810000000000002 17.82, 27.975 17.82, 28.740000000000002 17.82 C 29.340000000000003 17.82, 29.385 17.82, 29.94 17.82 C 30.450000000000003 17.82, 30.465 17.79, 30.96 17.82 C 31.44 17.880000000000003, 31.605000000000004 17.91, 31.92 17.94 C 32.07 17.94, 32.07 17.94, 32.22 17.94 C 32.37 17.94, 32.355 17.94, 32.519999999999996 17.94 C 32.7 17.94, 32.760000000000005 17.94, 32.88 17.94 C 32.94 17.94, 32.97 17.94, 33 17.94 L 33 17.94" fill="none" stroke="black" stroke-width="5"></path><path d="M 33.3 12.24 C 32.31 12.420000000000002, 32.37 12.465000000000002, 31.32 12.600000000000001 C 30.21 12.690000000000001, 29.939999999999998 12.735, 29.099999999999998 12.78 C 28.53 12.78, 28.44 12.915, 27.96 12.78 C 27.57 12.51, 27.57 12.66, 27.18 12.24 C 26.79 11.670000000000002, 26.685000000000002 11.835, 26.400000000000002 11.100000000000001 C 26.22 10.200000000000001, 26.13 10.095, 26.04 9.3 C 26.04 8.61, 25.86 8.685, 26.04 7.92 C 26.4 7.08, 26.415 6.855, 26.759999999999998 6.24 C 27.09 5.85, 26.925 5.775, 27.42 5.46 C 28.080000000000002 5.22, 28.14 5.1, 28.740000000000002 4.9799999999999995 C 29.28 4.9799999999999995, 29.28 4.92, 29.82 4.9799999999999995 C 30.36 5.1, 30.51 5.084999999999999, 30.900000000000002 5.22 C 31.14 5.37, 31.005000000000003 5.19, 31.380000000000003 5.5200000000000005 C 31.890000000000004 6.030000000000001, 31.980000000000004 6.000000000000001, 32.400000000000006 6.540000000000001 C 32.730000000000004 7.11, 32.775000000000006 7.05, 33.06 7.68 C 33.3 8.370000000000001, 33.36 8.475000000000001, 33.54 9.06 C 33.66 9.54, 33.72 9.48, 33.78 10.02 C 33.78 10.620000000000001, 33.78 10.245000000000001, 33.78 11.22 C 33.78 12.57, 33.78 12.404999999999998, 33.78 13.919999999999998 C 33.78 15.6, 33.78 16.035, 33.78 17.28 C 33.78 18.09, 33.870000000000005 18.03, 33.78 18.9 C 33.6 19.83, 33.645 19.799999999999997, 33.42 20.759999999999998 C 33.150000000000006 21.75, 33.045 21.93, 32.88 22.740000000000002 C 32.82 23.37, 32.925 23.37, 32.76 24 C 32.489999999999995 24.63, 32.385 24.599999999999998, 32.22 25.259999999999998 C 32.16 25.95, 32.175 26.085, 32.099999999999994 26.64 C 32.01 27.060000000000002, 31.98 27.12, 31.92 27.48 C 31.89 27.78, 31.905 27.854999999999997, 31.86 28.08 C 31.8 28.23, 31.770000000000003 28.305, 31.740000000000002 28.380000000000003 L 31.740000000000002 28.380000000000003" fill="none" stroke="black" stroke-width="5"></path><path d="M 24.36 17.46 C 24.36 17.700000000000003, 24.36 17.415000000000003, 24.36 17.94 C 24.36 18.75, 24.375 17.924999999999997, 24.36 19.56 C 24.33 22.02, 24.36 22.455, 24.299999999999997 24.48 C 24.209999999999997 26.07, 24.239999999999995 26.040000000000003, 24.119999999999997 27.660000000000004 C 23.97 29.310000000000002, 23.924999999999997 29.325000000000003, 23.82 30.96 C 23.76 32.58, 23.730000000000004 32.7, 23.700000000000003 34.2 C 23.700000000000003 35.58, 23.745000000000005 35.805, 23.700000000000003 36.96 C 23.61 37.89, 23.655 37.695, 23.52 38.82 C 23.34 40.14, 23.295 40.095, 23.16 41.46 C 23.07 42.870000000000005, 23.025 43.395, 22.98 44.28 C 22.98 44.64, 22.98 44.82, 22.98 45 C 22.98 45, 22.98 45, 22.98 45 L 22.98 45" fill="none" stroke="black" stroke-width="5"></path></svg>