<svg width="48" height="48" viewBox="0 0 48 48" xmlns="http://www.w3.org/2000/svg"><path d="M 17.759999999999998 43.32 C 17.369999999999997 43.41, 17.55 43.38, 16.98 43.5 C 16.23 43.65, 16.095 43.67999999999999, 15.48 43.8 C 15 43.89, 14.955 43.935, 14.52 43.980000000000004 C 14.129999999999999 43.980000000000004, 14.01 43.980000000000004, 13.74 43.980000000000004 C 13.59 43.980000000000004, 13.665000000000001 43.95, 13.440000000000001 43.980000000000004 C 13.14 44.04, 13.11 44.06999999999999, 12.84 44.099999999999994 C 12.6 44.099999999999994, 12.555 44.099999999999994, 12.36 44.099999999999994 C 12.209999999999999 44.099999999999994, 12.254999999999999 44.099999999999994, 12.059999999999999 44.099999999999994 C 11.82 44.099999999999994, 11.775 44.099999999999994, 11.58 44.099999999999994 C 11.43 44.099999999999994, 11.355 44.099999999999994, 11.28 44.099999999999994 C 11.28 44.099999999999994, 11.37 44.175, 11.28 44.099999999999994 C 11.1 43.949999999999996, 11.07 44.114999999999995, 10.92 43.8 C 10.8 43.31999999999999, 10.77 43.27499999999999, 10.68 42.839999999999996 C 10.620000000000001 42.45, 10.59 42.75, 10.56 42.06 C 10.56 41.07, 10.515 41.144999999999996, 10.56 40.08 C 10.65 38.94, 10.59 38.894999999999996, 10.74 37.8 C 10.95 36.75, 11.025 36.78, 11.16 35.7 C 11.219999999999999 34.59, 11.16 34.395, 11.28 33.480000000000004 C 11.46 32.760000000000005, 11.505 32.82, 11.64 32.04 C 11.73 31.2, 11.685 31.064999999999998, 11.82 30.36 C 12 29.79, 12.030000000000001 29.775, 12.18 29.22 C 12.299999999999999 28.68, 12.284999999999998 28.575, 12.419999999999998 28.14 C 12.57 27.810000000000002, 12.45 27.9, 12.72 27.48 C 13.11 26.97, 13.095 26.880000000000003, 13.5 26.46 C 13.92 26.13, 13.665 26.264999999999997, 14.34 25.799999999999997 C 15.270000000000001 25.199999999999996, 15.390000000000002 25.004999999999995, 16.200000000000003 24.599999999999998 C 16.89 24.39, 16.92 24.285, 17.580000000000002 24.18 C 18.21 24.18, 18.135 24.225, 18.84 24.18 C 19.619999999999997 24.09, 19.365 24.045, 20.4 24 C 21.689999999999998 24, 21.765 24, 22.98 24 C 24.119999999999997 24, 24.33 24, 25.259999999999998 24 C 25.98 24, 26.190000000000005 24, 26.700000000000003 24 C 27 24, 27.104999999999997 24, 27.299999999999997 24 C 27.39 24, 27.435 24, 27.48 24 L 27.48 24" fill="none" stroke="black" stroke-width="5"></path><path d="M 29.46 17.28 C 28.98 17.37, 29.085 17.310000000000002, 28.5 17.46 C 27.81 17.67, 28.064999999999998 17.655, 27.119999999999997 17.88 C 25.919999999999998 18.119999999999997, 25.544999999999998 18.21, 24.72 18.36 C 24.27 18.42, 24.255 18.495, 23.82 18.48 C 23.4 18.39, 23.4 18.554999999999996, 22.98 18.299999999999997 C 22.560000000000002 17.88, 22.5 17.955, 22.14 17.46 C 21.84 16.89, 21.765 16.95, 21.54 16.32 C 21.39 15.63, 21.315 15.570000000000002, 21.240000000000002 14.940000000000001 C 21.240000000000002 14.370000000000001, 21.240000000000002 14.445, 21.240000000000002 13.799999999999999 C 21.240000000000002 13.079999999999998, 21.075000000000003 13.125, 21.240000000000002 12.36 C 21.57 11.55, 21.48 11.49, 21.9 10.74 C 22.409999999999997 10.05, 22.409999999999997 9.899999999999999, 22.919999999999998 9.36 C 23.43 8.969999999999999, 23.535 8.775, 23.94 8.58 C 24.240000000000002 8.58, 24.224999999999998 8.565, 24.54 8.58 C 24.87 8.61, 24.885000000000005 8.55, 25.200000000000003 8.64 C 25.5 8.79, 25.485 8.625, 25.799999999999997 8.94 C 26.13 9.419999999999998, 26.189999999999998 9.45, 26.46 9.899999999999999 C 26.67 10.32, 26.655 10.215, 26.880000000000003 10.74 C 27.12 11.370000000000001, 27.15 11.22, 27.36 12 C 27.54 12.93, 27.57 12.629999999999999, 27.72 13.86 C 27.84 15.389999999999999, 27.9 15.614999999999998, 27.96 16.919999999999998 C 27.96 18, 27.96 17.835, 27.96 19.080000000000002 C 27.96 20.490000000000002, 28.020000000000003 20.16, 27.96 21.9 C 27.84 23.97, 27.78 24.33, 27.72 26.04 C 27.72 27.39, 27.765 27.285000000000004, 27.72 28.740000000000002 C 27.63 30.3, 27.689999999999998 30.045, 27.54 31.86 C 27.33 33.93, 27.314999999999998 34.26, 27.119999999999997 36 C 26.939999999999998 37.41, 26.849999999999998 37.755, 26.759999999999998 38.82 C 26.759999999999998 39.54, 26.759999999999998 39.629999999999995, 26.759999999999998 40.26 C 26.759999999999998 40.8, 26.759999999999998 40.919999999999995, 26.759999999999998 41.339999999999996 C 26.759999999999998 41.64, 26.805 41.565, 26.759999999999998 41.94 C 26.669999999999998 42.39, 26.625 42.614999999999995, 26.58 42.839999999999996 C 26.58 42.839999999999996, 26.58 42.839999999999996, 26.58 42.839999999999996 C 26.58 42.839999999999996, 26.595 42.794999999999995, 26.58 42.839999999999996 L 26.52 43.019999999999996" fill="none" stroke="black" stroke-width="5"></path></svg>