<svg width="48" height="48" viewBox="0 0 48 48" xmlns="http://www.w3.org/2000/svg"><path d="M 24.78 19.44 C 24.42 19.65, 24.435 19.71, 24.06 19.86 C 23.67 19.95, 23.82 19.994999999999997, 23.28 20.04 C 22.59 20.04, 22.47 20.04, 21.9 20.04 C 21.45 20.04, 21.54 20.055, 21 20.04 C 20.37 20.009999999999998, 20.28 20.025, 19.740000000000002 19.98 C 19.29 19.92, 19.275 20.07, 18.84 19.86 C 18.42 19.5, 18.45 19.560000000000002, 18 19.14 C 17.52 18.66, 17.505 18.96, 17.04 18.18 C 16.59 17.1, 16.44 16.905, 16.14 16.02 C 15.99 15.33, 15.915 15.435, 15.84 14.64 C 15.84 13.74, 15.735 13.665, 15.84 12.84 C 16.049999999999997 12.09, 16.005 12.105, 16.259999999999998 11.34 C 16.56 10.559999999999999, 16.365 10.604999999999999, 16.86 9.78 C 17.55 8.91, 17.565 8.82, 18.240000000000002 8.040000000000001 C 18.9 7.3500000000000005, 18.974999999999998 7.155, 19.56 6.66 C 20.07 6.36, 20.1 6.210000000000001, 20.580000000000002 6.0600000000000005 C 21.03 6.0600000000000005, 21.105 6.030000000000001, 21.48 6.0600000000000005 C 21.78 6.12, 21.750000000000004 6, 22.080000000000002 6.18 C 22.439999999999998 6.4799999999999995, 22.439999999999998 6.344999999999999, 22.799999999999997 6.779999999999999 C 23.159999999999997 7.35, 23.25 7.32, 23.52 7.92 C 23.7 8.55, 23.744999999999997 8.399999999999999, 23.88 9.18 C 23.97 10.11, 23.939999999999998 10.170000000000002, 24.06 11.040000000000001 C 24.21 11.850000000000001, 24.285 11.67, 24.36 12.66 C 24.36 13.83, 24.33 13.815000000000001, 24.36 15 C 24.42 16.2, 24.435000000000002 16.365, 24.48 17.4 C 24.509999999999998 18.27, 24.525 18.15, 24.54 19.14 C 24.54 20.25, 24.54 20.22, 24.54 21.36 C 24.54 22.53, 24.54 22.365000000000002, 24.54 23.700000000000003 C 24.54 25.200000000000003, 24.54 25.290000000000006, 24.54 26.700000000000003 C 24.54 28.02, 24.54 27.99, 24.54 29.339999999999996 C 24.54 30.719999999999995, 24.54 30.88499999999999, 24.54 32.099999999999994 C 24.54 33.15, 24.54 33.075, 24.54 34.2 C 24.54 35.4, 24.54 35.714999999999996, 24.54 36.599999999999994 C 24.54 37.17, 24.54 37.455, 24.54 37.74 C 24.54 37.74, 24.54 37.74, 24.54 37.74 C 24.54 37.74, 24.54 37.74, 24.54 37.74 L 24.54 37.74" fill="none" stroke="black" stroke-width="5"></path><path d="M 29.46 28.32 C 29.46 29.7, 29.46 29.58, 29.46 31.08 C 29.46 32.7, 29.46 32.805, 29.46 34.32 C 29.46 35.730000000000004, 29.46 35.745, 29.46 37.14 C 29.46 38.52, 29.46 38.715, 29.46 39.900000000000006 C 29.46 40.89, 29.46 40.995000000000005, 29.46 41.88 C 29.46 42.66, 29.46 42.765, 29.46 43.44 C 29.46 44.01, 29.475 43.935, 29.46 44.58 C 29.43 45.3, 29.445 45.39, 29.400000000000002 46.019999999999996 C 29.340000000000003 46.559999999999995, 29.310000000000002 46.754999999999995, 29.28 47.099999999999994 C 29.28 47.25, 29.28 47.28, 29.28 47.400000000000006 C 29.28 47.49, 29.28 47.535, 29.28 47.58 L 29.28 47.58" fill="none" stroke="black" stroke-width="5"></path><path d="M 20.28 28.619999999999997 C 20.28 29.97, 20.325000000000003 29.490000000000002, 20.28 31.32 C 20.19 33.629999999999995, 20.145000000000003 33.93, 20.1 35.94 C 20.1 37.65, 20.1 37.935, 20.1 39.36 C 20.1 40.5, 20.1 40.71, 20.1 41.64 C 20.1 42.36, 20.1 42.315, 20.1 43.08 C 20.1 43.89, 20.1 44.025000000000006, 20.1 44.7 C 20.1 45.24, 20.1 45.435, 20.1 45.78 C 20.1 45.93, 20.085 45.93, 20.1 46.08 C 20.130000000000003 46.230000000000004, 20.115000000000002 46.260000000000005, 20.16 46.38 C 20.22 46.47, 20.25 46.485, 20.28 46.56 C 20.28 46.620000000000005, 20.28 46.65, 20.28 46.68 L 20.28 46.68" fill="none" stroke="black" stroke-width="5"></path></svg>