<svg width="48" height="48" viewBox="0 0 48 48" xmlns="http://www.w3.org/2000/svg"><path d="M 26.64 45.36 C 26.73 44.4, 26.64 44.684999999999995, 26.82 43.44 C 27.09 41.91, 27.21 41.925000000000004, 27.36 40.38 C 27.39 38.82, 27.300000000000004 38.91, 27.42 37.26 C 27.63 35.519999999999996, 27.674999999999997 35.385000000000005, 27.839999999999996 33.78 C 27.959999999999997 32.31, 27.974999999999998 32.099999999999994, 28.08 30.839999999999996 C 28.169999999999998 29.79, 28.169999999999998 29.97, 28.259999999999998 28.740000000000002 C 28.35 27.330000000000002, 28.32 27.360000000000003, 28.44 25.92 C 28.590000000000003 24.450000000000003, 28.590000000000003 24.405, 28.740000000000002 22.98 C 28.89 21.6, 28.92 21.93, 29.04 20.22 C 29.13 18.18, 29.174999999999997 17.715, 29.22 16.14 C 29.22 15.03, 29.279999999999998 15.254999999999999, 29.22 13.919999999999998 C 29.1 12.36, 29.145 12.24, 28.98 10.8 C 28.77 9.48, 28.889999999999997 9.345, 28.56 8.16 C 28.11 7.11, 28.230000000000004 6.9, 27.660000000000004 6.0600000000000005 C 26.970000000000002 5.430000000000001, 27.360000000000003 5.325000000000001, 26.28 4.800000000000001 C 24.810000000000002 4.380000000000001, 24.78 4.17, 23.34 3.96 C 21.93 3.96, 22.05 3.8099999999999996, 20.52 3.96 C 18.869999999999997 4.26, 18.854999999999997 4.035, 17.22 4.5600000000000005 C 15.6 5.3100000000000005, 15.465 5.085000000000001, 13.98 6.0600000000000005 C 12.629999999999999 7.26, 11.985 7.379999999999999, 11.28 8.459999999999999 C 11.219999999999999 9.419999999999998, 11.085 9.329999999999998, 11.16 10.379999999999999 C 11.370000000000001 11.52, 11.115 11.415, 11.58 12.66 C 12.3 14.01, 12.36 14.355, 13.02 15.36 C 13.620000000000001 16.02, 13.395 15.899999999999999, 14.22 16.68 C 15.27 17.58, 15.06 17.775, 16.32 18.48 C 17.79 18.990000000000002, 17.79 19.2, 19.259999999999998 19.5 C 20.73 19.59, 20.880000000000003 19.634999999999998, 22.200000000000003 19.68 C 23.37 19.68, 23.64 19.68, 24.54 19.68 C 25.169999999999998 19.68, 25.169999999999998 19.695, 25.799999999999997 19.68 C 26.43 19.65, 26.595 19.665, 27.06 19.62 C 27.36 19.560000000000002, 27.390000000000004 19.53, 27.660000000000004 19.5 C 27.900000000000002 19.5, 28.020000000000003 19.5, 28.14 19.5 C 28.14 19.5, 28.065 19.5, 28.14 19.5 C 28.29 19.5, 28.32 19.5, 28.44 19.5 C 28.53 19.5, 28.499999999999996 19.5, 28.619999999999997 19.5 C 28.77 19.5, 28.845 19.5, 28.92 19.5 L 28.92 19.5" fill="none" stroke="black" stroke-width="5"></path></svg>