<svg width="48" height="48" viewBox="0 0 48 48" xmlns="http://www.w3.org/2000/svg"><path d="M 12.059999999999999 33.42 C 12.45 33.42, 12.09 33.375, 12.84 33.42 C 13.95 33.51, 13.86 33.55499999999999, 15.059999999999999 33.599999999999994 C 16.35 33.599999999999994, 16.8 33.644999999999996, 17.64 33.599999999999994 C 18.03 33.51, 17.79 33.765, 18.419999999999998 33.42 C 19.29 32.82, 19.41 33.015, 20.16 32.22 C 20.79 31.23, 20.88 31.380000000000003, 21.419999999999998 30.240000000000002 C 21.869999999999997 28.950000000000003, 22.005 28.710000000000004, 22.32 27.660000000000004 C 22.5 26.85, 22.59 26.445, 22.68 26.04 C 22.68 26.04, 22.68 26.04, 22.68 26.04 C 22.68 26.04, 22.68 25.95, 22.68 26.04 C 22.68 26.22, 22.68 25.68, 22.68 26.400000000000002 C 22.68 27.660000000000004, 22.59 27.720000000000002, 22.68 28.92 C 22.86 30.060000000000002, 22.784999999999997 30.330000000000002, 23.04 31.200000000000003 C 23.37 31.800000000000004, 23.205000000000002 31.860000000000007, 23.700000000000003 32.400000000000006 C 24.36 32.88, 24.45 33.15, 25.02 33.36 C 25.5 33.3, 25.485 33.54, 25.98 33.24 C 26.490000000000002 32.7, 26.46 32.88, 27 32.160000000000004 C 27.57 31.26, 27.630000000000003 31.605, 28.14 30.36 C 28.59 28.77, 28.724999999999998 28.845, 29.04 27.18 C 29.22 25.44, 29.355000000000004 25.545, 29.400000000000002 23.700000000000003 C 29.310000000000002 21.75, 29.4 21.479999999999997, 29.22 19.799999999999997 C 28.95 18.39, 29.1 18.78, 28.68 16.98 C 28.11 14.790000000000001, 28.02 14.415000000000001, 27.54 12.600000000000001 C 27.15 11.16, 27.165 10.950000000000001, 26.759999999999998 9.72 C 26.34 8.7, 26.295 8.475, 25.92 7.68 C 25.59 7.11, 25.724999999999998 7.095000000000001, 25.259999999999998 6.540000000000001 C 24.659999999999997 6, 24.645 5.82, 24.06 5.46 C 23.49 5.279999999999999, 23.459999999999997 5.175, 22.919999999999998 5.1 C 22.409999999999997 5.13, 22.394999999999996 5.025, 21.9 5.16 C 21.42 5.4, 21.435000000000002 5.31, 20.94 5.64 C 20.43 6.0600000000000005, 20.534999999999997 5.835, 19.919999999999998 6.48 C 19.2 7.3500000000000005, 18.990000000000002 7.380000000000001, 18.48 8.22 C 18.18 9.030000000000001, 18.06 8.985, 17.88 9.84 C 17.82 10.74, 17.714999999999996 10.95, 17.759999999999998 11.64 C 17.909999999999997 12.120000000000001, 17.729999999999997 12.075000000000001, 18.06 12.600000000000001 C 18.57 13.170000000000002, 18.495 13.275, 19.080000000000002 13.74 C 19.740000000000002 14.100000000000001, 19.71 14.13, 20.4 14.46 C 21.119999999999997 14.76, 21.075 14.879999999999999, 21.84 15.059999999999999 C 22.65 15.12, 22.770000000000003 15.149999999999999, 23.46 15.18 C 24.03 15.18, 24.029999999999998 15.195, 24.599999999999998 15.18 C 25.17 15.15, 25.41 15.165000000000001, 25.740000000000002 15.120000000000001 C 25.830000000000002 15.06, 25.815 15.09, 25.92 15 C 26.040000000000003 14.879999999999999, 26.025000000000006 14.834999999999999, 26.160000000000004 14.76 C 26.310000000000002 14.73, 26.310000000000002 14.715, 26.46 14.700000000000001 C 26.61 14.700000000000001, 26.639999999999997 14.715000000000002, 26.759999999999998 14.700000000000001 C 26.85 14.670000000000002, 26.85 14.685, 26.94 14.64 C 27.03 14.58, 27.029999999999998 14.565, 27.119999999999997 14.52 C 27.209999999999997 14.49, 27.179999999999996 14.520000000000001, 27.299999999999997 14.46 C 27.449999999999996 14.370000000000001, 27.434999999999995 14.385, 27.599999999999998 14.28 C 27.78 14.16, 27.87 14.1, 27.96 14.04 L 27.96 14.04" fill="none" stroke="black" stroke-width="5"></path><path d="M 13.32 39.06 C 14.49 39.06, 14.25 39.19500000000001, 15.66 39.06 C 17.310000000000002 38.79, 16.95 38.81999999999999, 18.96 38.519999999999996 C 21.330000000000002 38.19, 21.720000000000002 38.04, 23.700000000000003 37.86 C 25.290000000000003 37.83, 25.680000000000003 37.86, 26.880000000000003 37.8 C 27.69 37.709999999999994, 28.020000000000003 37.665, 28.5 37.62 C 28.65 37.62, 28.724999999999998 37.62, 28.799999999999997 37.62 L 28.799999999999997 37.62" fill="none" stroke="black" stroke-width="5"></path><path d="M 13.200000000000001 44.58 C 13.59 44.55, 13.215000000000002 44.565, 13.98 44.519999999999996 C 15.12 44.46, 14.399999999999999 44.62500000000001, 16.259999999999998 44.400000000000006 C 18.839999999999996 44.010000000000005, 19.559999999999995 43.905, 21.419999999999998 43.62 C 22.560000000000002 43.44, 22.26 43.5, 23.700000000000003 43.26 C 25.44 42.96, 26.009999999999998 42.81, 27.18 42.660000000000004 C 27.78 42.660000000000004, 27.96 42.660000000000004, 28.380000000000003 42.660000000000004 C 28.62 42.660000000000004, 28.71 42.660000000000004, 28.86 42.660000000000004 L 28.98 42.660000000000004" fill="none" stroke="black" stroke-width="5"></path></svg>