<svg width="48" height="48" viewBox="0 0 48 48" xmlns="http://www.w3.org/2000/svg"><path d="M 14.22 44.64 C 13.98 43.62, 14.01 44.24999999999999, 13.74 42.599999999999994 C 13.440000000000001 40.31999999999999, 13.335 39.915, 13.14 38.04 C 13.05 36.56999999999999, 13.035 36.599999999999994, 12.96 35.099999999999994 C 12.9 33.56999999999999, 12.870000000000001 33.135, 12.84 32.04 C 12.84 31.38, 12.84 31.455, 12.84 30.72 C 12.84 29.909999999999997, 12.84 29.985, 12.84 29.099999999999998 C 12.84 28.14, 12.75 27.99, 12.84 27.18 C 13.02 26.52, 12.990000000000002 26.475, 13.200000000000001 25.86 C 13.440000000000001 25.29, 13.5 25.125, 13.68 24.72 C 13.799999999999999 24.48, 13.754999999999999 24.480000000000004, 13.919999999999998 24.240000000000002 C 14.129999999999999 24, 14.024999999999999 24.06, 14.34 23.759999999999998 C 14.76 23.4, 14.684999999999999 23.31, 15.18 23.04 C 15.75 22.86, 15.795 22.814999999999998, 16.32 22.68 C 16.8 22.59, 16.605 22.545, 17.28 22.5 C 18.15 22.5, 18 22.5, 19.02 22.5 C 20.189999999999998 22.5, 20.34 22.455, 21.36 22.5 C 22.23 22.59, 22.380000000000003 22.619999999999997, 23.1 22.68 C 23.67 22.71, 23.595000000000002 22.695, 24.240000000000002 22.740000000000002 C 24.96 22.8, 24.975 22.83, 25.68 22.86 C 26.369999999999997 22.86, 26.445 22.875, 27.06 22.86 C 27.6 22.83, 27.66 22.919999999999998, 28.14 22.799999999999997 C 28.560000000000002 22.589999999999996, 28.560000000000002 22.589999999999996, 28.98 22.38 C 29.4 22.17, 29.4 22.305, 29.82 21.96 C 30.240000000000002 21.48, 30.330000000000005 21.525, 30.660000000000004 21 C 30.900000000000002 20.43, 30.93 20.49, 31.14 19.86 C 31.32 19.17, 31.41 19.065, 31.5 18.48 C 31.5 18, 31.5 18.09, 31.5 17.52 C 31.5 16.86, 31.59 16.845000000000002, 31.5 16.200000000000003 C 31.32 15.570000000000002, 31.485 15.630000000000003, 31.14 14.940000000000001 C 30.63 14.190000000000001, 30.63 14.070000000000002, 30.119999999999997 13.440000000000001 C 29.61 12.93, 29.639999999999997 12.869999999999997, 29.099999999999998 12.419999999999998 C 28.53 12.03, 28.41 11.88, 27.96 11.64 C 27.63 11.55, 27.614999999999995 11.475, 27.299999999999997 11.459999999999999 C 27 11.52, 27.060000000000002 11.4, 26.700000000000003 11.58 C 26.28 11.879999999999999, 26.28 11.774999999999999, 25.86 12.18 C 25.439999999999998 12.690000000000001, 25.335 12.63, 25.02 13.200000000000001 C 24.81 13.830000000000002, 24.764999999999997 13.830000000000002, 24.599999999999998 14.46 C 24.479999999999997 15.09, 24.509999999999998 14.97, 24.36 15.72 C 24.18 16.59, 24.09 16.665000000000003, 24 17.46 C 24 18.18, 24 18.255, 24 18.9 C 24 19.47, 23.985 19.515, 24 20.04 C 24.03 20.52, 23.985 20.64, 24.06 21 C 24.18 21.240000000000002, 24.209999999999997 21.240000000000002, 24.299999999999997 21.48 C 24.36 21.72, 24.33 21.72, 24.42 21.96 C 24.540000000000003 22.200000000000003, 24.570000000000004 22.275000000000002, 24.660000000000004 22.44 C 24.720000000000002 22.53, 24.75 22.575000000000003, 24.78 22.62 C 24.78 22.62, 24.765 22.575000000000003, 24.78 22.62 C 24.81 22.71, 24.824999999999996 22.755, 24.839999999999996 22.799999999999997 C 24.839999999999996 22.799999999999997, 24.839999999999996 22.799999999999997, 24.839999999999996 22.799999999999997 C 24.839999999999996 22.799999999999997, 24.839999999999996 22.799999999999997, 24.839999999999996 22.799999999999997 L 24.839999999999996 22.799999999999997" fill="none" stroke="black" stroke-width="5"></path><path d="M 21.72 32.099999999999994 C 21.24 32.25, 21.089999999999996 31.980000000000004, 20.759999999999998 32.400000000000006 C 20.58 33.09, 20.354999999999997 33.135000000000005, 20.4 33.78 C 20.67 34.38, 20.685000000000002 34.605000000000004, 20.94 34.980000000000004 C 21.18 35.13, 21.119999999999997 35.415000000000006, 21.419999999999998 35.28 C 21.78 34.86, 21.884999999999998 35.099999999999994, 22.14 34.44 C 22.29 33.54, 22.365000000000002 33.09, 22.44 32.64 C 22.44 32.64, 22.5 32.76, 22.44 32.64 C 22.32 32.400000000000006, 22.485000000000003 32.295, 22.200000000000003 32.160000000000004 C 21.75 32.129999999999995, 21.764999999999997 31.799999999999997, 21.299999999999997 32.099999999999994 C 20.82 32.73, 20.595 32.714999999999996, 20.34 33.36 C 20.310000000000002 34.019999999999996, 20.205000000000002 34.245000000000005, 20.28 34.68 C 20.46 34.89, 20.310000000000002 34.97999999999999, 20.64 35.099999999999994 C 21.12 35.129999999999995, 21.135 35.43000000000001, 21.6 35.160000000000004 C 22.05 34.59, 22.215 34.425, 22.5 34.019999999999996 C 22.62 33.78, 22.68 33.78, 22.740000000000002 33.54 C 22.740000000000002 33.3, 22.770000000000003 33.225, 22.740000000000002 33.06 C 22.68 32.97, 22.995 32.925000000000004, 22.62 32.88 C 21.93 32.88, 21.630000000000003 32.64, 21.240000000000002 32.88 C 21.15 33.36, 21.105 33.405, 21.06 33.839999999999996 C 21.06 34.23, 20.895 34.379999999999995, 21.06 34.62 C 21.39 34.709999999999994, 21.39 34.964999999999996, 21.72 34.8 C 22.049999999999997 34.379999999999995, 22.215 34.29, 22.38 33.96 C 22.38 33.72, 22.38 33.6, 22.38 33.480000000000004 C 22.38 33.480000000000004, 22.424999999999997 33.540000000000006, 22.38 33.480000000000004 C 22.29 33.36, 22.26 33.27, 22.200000000000003 33.24 L 22.14 33.36" fill="none" stroke="black" stroke-width="5"></path></svg>