<svg width="48" height="48" viewBox="0 0 48 48" xmlns="http://www.w3.org/2000/svg"><path d="M 11.879999999999999 12.600000000000001 C 10.98 16.29, 11.01 15.885000000000002, 10.08 19.98 C 9.120000000000001 24.48, 8.925 25.215, 8.16 28.98 C 7.59 32.01, 7.379999999999999 32.64, 7.02 35.04 C 6.87 36.81, 6.795 37.44, 6.720000000000001 38.58 C 6.720000000000001 39.089999999999996, 6.555000000000001 39.059999999999995, 6.720000000000001 39.599999999999994 C 7.050000000000001 40.17, 6.84 40.14, 7.38 40.74 C 8.129999999999999 41.370000000000005, 8.084999999999999 41.43, 8.879999999999999 42 C 9.719999999999999 42.51, 9.36 42.52499999999999, 10.56 43.019999999999996 C 12.120000000000001 43.5, 11.79 43.59, 13.68 43.980000000000004 C 15.9 44.28, 16.23 44.355, 18.12 44.58 C 19.68 44.730000000000004, 19.92 44.760000000000005, 21.240000000000002 44.88 C 22.32 44.97, 22.365 44.97, 23.4 45.06 C 24.39 45.150000000000006, 24.69 45.150000000000006, 25.380000000000003 45.24 C 25.770000000000003 45.33, 25.770000000000003 45.42, 26.160000000000004 45.42 C 26.550000000000004 45.33, 26.535000000000004 45.540000000000006, 26.94 45.24 C 27.36 44.730000000000004, 27.270000000000003 45.06, 27.78 44.22 C 28.380000000000003 43.05, 28.455 43.08, 28.98 41.88 C 29.43 40.650000000000006, 29.415000000000003 41.265, 29.880000000000003 39.42 C 30.36 36.96, 30.525 36.84, 30.839999999999996 34.5 C 30.99 32.28, 30.975 32.519999999999996, 31.14 30.06 C 31.32 27.36, 31.365000000000002 27.03, 31.5 24.660000000000004 C 31.59 22.620000000000005, 31.634999999999998 22.560000000000002, 31.68 20.580000000000002 C 31.68 18.660000000000004, 31.785 18.195000000000004, 31.68 16.740000000000002 C 31.47 15.75, 31.65 15.555, 31.259999999999998 14.76 C 30.689999999999998 14.16, 30.525 13.919999999999998, 30.119999999999997 13.559999999999999 C 29.88 13.44, 30.240000000000002 13.365, 29.64 13.32 C 28.68 13.35, 28.68 13.11, 27.72 13.379999999999999 C 26.759999999999998 13.889999999999999, 26.804999999999996 13.694999999999997, 25.799999999999997 14.399999999999999 C 24.75 15.3, 24.540000000000003 15.255000000000003, 23.700000000000003 16.200000000000003 C 23.07 17.19, 22.965000000000003 17.145, 22.44 18.18 C 22.020000000000003 19.259999999999998, 21.975 19.08, 21.6 20.34 C 21.270000000000003 21.78, 21.12 21.735, 20.94 23.22 C 20.91 24.75, 20.669999999999998 25.080000000000002, 20.88 26.28 C 21.33 27.15, 21.3 27.345, 21.78 28.02 C 22.29 28.5, 21.974999999999998 28.41, 22.799999999999997 28.98 C 23.939999999999998 29.64, 24 29.775, 25.08 30.299999999999997 C 26.099999999999998 30.689999999999998, 26.144999999999996 30.794999999999998, 27.119999999999997 31.08 C 28.049999999999997 31.259999999999998, 28.395 31.35, 28.98 31.44 C 29.22 31.44, 29.145 31.44, 29.46 31.44 C 29.85 31.44, 30.045 31.44, 30.240000000000002 31.44 C 30.240000000000002 31.44, 30.240000000000002 31.44, 30.240000000000002 31.44 L 30.240000000000002 31.44" fill="none" stroke="black" stroke-width="5"></path></svg>