<svg width="48" height="48" viewBox="0 0 48 48" xmlns="http://www.w3.org/2000/svg"><path d="M 13.32 29.339999999999996 C 13.62 29.4, 13.499999999999998 29.43, 13.919999999999998 29.46 C 14.459999999999999 29.46, 14.114999999999998 29.46, 15 29.46 C 16.23 29.46, 16.275 29.475, 17.46 29.46 C 18.6 29.43, 18.645000000000003 29.445, 19.740000000000002 29.400000000000002 C 20.79 29.340000000000003, 20.97 29.355000000000004, 21.84 29.28 C 22.53 29.189999999999998, 22.605 29.145, 23.22 29.099999999999998 C 23.759999999999998 29.099999999999998, 23.729999999999997 29.099999999999998, 24.299999999999997 29.099999999999998 C 24.9 29.099999999999998, 24.96 29.099999999999998, 25.5 29.099999999999998 C 25.98 29.099999999999998, 26.025 29.144999999999996, 26.46 29.099999999999998 C 26.85 29.009999999999998, 26.880000000000003 29.025000000000002, 27.240000000000002 28.92 C 27.57 28.8, 27.660000000000004 28.8, 27.900000000000002 28.68 C 28.050000000000004 28.560000000000002, 28.020000000000003 28.665, 28.200000000000003 28.44 C 28.41 28.11, 28.409999999999997 28.32, 28.619999999999997 27.78 C 28.83 27.03, 28.919999999999998 27.18, 29.04 26.28 C 29.07 25.23, 29.084999999999997 25.395, 29.099999999999998 24.18 C 29.099999999999998 22.799999999999997, 29.099999999999998 22.86, 29.099999999999998 21.419999999999998 C 29.099999999999998 19.919999999999998, 29.099999999999998 19.769999999999996, 29.099999999999998 18.419999999999998 C 29.099999999999998 17.22, 29.174999999999997 17.58, 29.099999999999998 16.02 C 28.949999999999996 14.1, 28.934999999999995 13.62, 28.799999999999997 12.18 C 28.68 11.219999999999999, 28.755 11.1, 28.56 10.26 C 28.29 9.54, 28.29 9.48, 28.02 8.82 C 27.75 8.22, 27.72 8.115, 27.48 7.62 C 27.27 7.23, 27.375 7.245, 27.06 6.84 C 26.64 6.42, 26.61 6.345, 26.22 6 C 25.86 5.73, 25.95 5.655, 25.5 5.46 C 24.96 5.34, 24.915000000000003 5.279999999999999, 24.42 5.22 C 23.97 5.22, 24.015 5.22, 23.52 5.22 C 22.98 5.22, 22.92 5.085, 22.44 5.22 C 22.020000000000003 5.49, 21.975 5.385, 21.6 5.76 C 21.270000000000003 6.24, 21.3 6.165000000000001, 20.94 6.720000000000001 C 20.55 7.3500000000000005, 20.46 7.245000000000001, 20.16 7.98 C 19.950000000000003 8.82, 19.845000000000002 8.91, 19.740000000000002 9.66 C 19.740000000000002 10.32, 19.605000000000004 10.41, 19.740000000000002 10.98 C 20.01 11.46, 19.905 11.504999999999999, 20.28 11.94 C 20.76 12.33, 20.790000000000003 12.405000000000001, 21.240000000000002 12.72 C 21.660000000000004 12.96, 21.660000000000004 12.945, 22.080000000000002 13.200000000000001 C 22.5 13.47, 22.424999999999997 13.515, 22.919999999999998 13.74 C 23.49 13.920000000000002, 23.58 13.950000000000001, 24.06 14.100000000000001 C 24.449999999999996 14.22, 24.449999999999996 14.280000000000001, 24.839999999999996 14.34 C 25.229999999999997 14.34, 25.229999999999997 14.34, 25.619999999999997 14.34 C 26.009999999999998 14.34, 26.1 14.34, 26.400000000000002 14.34 C 26.61 14.34, 26.595000000000002 14.34, 26.82 14.34 C 27.06 14.34, 27.059999999999995 14.34, 27.299999999999997 14.34 C 27.54 14.34, 27.585 14.34, 27.78 14.34 C 27.93 14.34, 27.93 14.34, 28.08 14.34 C 28.23 14.34, 28.26 14.34, 28.380000000000003 14.34 C 28.47 14.34, 28.439999999999998 14.34, 28.56 14.34 C 28.71 14.34, 28.68 14.34, 28.86 14.34 C 29.07 14.34, 29.085 14.34, 29.28 14.34 C 29.46 14.34, 29.520000000000003 14.34, 29.64 14.34 C 29.7 14.34, 29.729999999999997 14.34, 29.759999999999998 14.34 L 29.759999999999998 14.34" fill="none" stroke="black" stroke-width="5"></path><path d="M 22.56 35.58 C 21.81 35.519999999999996, 21.794999999999998 35.475, 21.06 35.46 C 20.34 35.489999999999995, 20.175 35.42999999999999, 19.62 35.519999999999996 C 19.23 35.67, 19.275 35.445, 18.84 35.82 C 18.36 36.42, 18.33 36.209999999999994, 17.88 37.019999999999996 C 17.46 38.04, 17.34 38.205, 17.04 39.06 C 16.86 39.75, 16.77 39.855, 16.68 40.44 C 16.68 40.92, 16.56 40.800000000000004, 16.68 41.400000000000006 C 16.92 42.120000000000005, 16.77 42.254999999999995, 17.16 42.839999999999996 C 17.700000000000003 43.29, 17.76 43.395, 18.240000000000002 43.74 C 18.660000000000004 43.980000000000004, 18.630000000000003 44.01, 19.080000000000002 44.22 C 19.560000000000002 44.4, 19.5 44.459999999999994, 20.04 44.58 C 20.64 44.64, 20.655 44.685, 21.240000000000002 44.7 C 21.810000000000002 44.67, 21.81 44.94, 22.38 44.64 C 22.95 44.07, 23.04 44.025, 23.52 43.5 C 23.909999999999997 43.019999999999996, 24.044999999999998 43.019999999999996, 24.299999999999997 42.54 C 24.419999999999998 42.06, 24.479999999999997 41.94, 24.54 41.58 C 24.54 41.339999999999996, 24.585 41.535, 24.54 41.099999999999994 C 24.45 40.47, 24.45 40.349999999999994, 24.36 39.839999999999996 C 24.27 39.45, 24.285 39.45, 24.18 39.06 C 24.060000000000002 38.67, 24.060000000000002 38.715, 23.94 38.28 C 23.82 37.8, 23.805000000000003 37.65, 23.700000000000003 37.32 C 23.61 37.14, 23.595 37.095, 23.52 36.96 C 23.46 36.870000000000005, 23.564999999999998 36.9, 23.4 36.78 C 23.13 36.63, 23.115 36.615, 22.86 36.480000000000004 C 22.619999999999997 36.36, 22.575 36.345, 22.38 36.24 C 22.23 36.150000000000006, 22.200000000000003 36.120000000000005, 22.080000000000002 36.06 C 21.990000000000002 36.03, 21.99 36.015, 21.9 36 L 21.72 36" fill="none" stroke="black" stroke-width="5"></path></svg>