<svg width="48" height="48" viewBox="0 0 48 48" xmlns="http://www.w3.org/2000/svg"><path d="M 14.22 4.0200000000000005 C 13.920000000000002 5.76, 13.845 5.88, 13.620000000000001 7.5 C 13.47 9, 13.56 8.565, 13.32 10.5 C 12.99 12.870000000000001, 12.855 13.275, 12.66 15.24 C 12.6 16.8, 12.57 17.099999999999998, 12.54 18.36 C 12.54 19.32, 12.524999999999999 19.47, 12.54 20.28 C 12.57 20.94, 12.510000000000002 20.85, 12.600000000000001 21.6 C 12.75 22.44, 12.704999999999998 22.665000000000003, 12.899999999999999 23.28 C 13.139999999999999 23.67, 13.004999999999999 23.73, 13.379999999999999 24.06 C 13.889999999999999 24.33, 13.934999999999999 24.374999999999996, 14.399999999999999 24.599999999999998 C 14.82 24.78, 14.76 24.825, 15.24 24.96 C 15.780000000000001 25.05, 15.795 25.05, 16.32 25.14 C 16.83 25.23, 16.59 25.275, 17.34 25.32 C 18.33 25.32, 18.255 25.32, 19.32 25.32 C 20.46 25.32, 20.415000000000003 25.32, 21.6 25.32 C 22.83 25.32, 23.04 25.245, 24.06 25.32 C 24.869999999999997 25.47, 24.87 25.365, 25.68 25.619999999999997 C 26.49 25.979999999999997, 26.684999999999995 26.069999999999993, 27.299999999999997 26.339999999999996 C 27.72 26.52, 27.674999999999997 26.37, 28.14 26.700000000000003 C 28.650000000000002 27.180000000000003, 28.800000000000004 27.255000000000003, 29.160000000000004 27.660000000000004 C 29.37 27.990000000000002, 29.43 27.885, 29.58 28.32 C 29.669999999999998 28.86, 29.729999999999997 28.845000000000002, 29.759999999999998 29.400000000000002 C 29.73 29.97, 29.82 29.82, 29.700000000000003 30.54 C 29.490000000000002 31.41, 29.445 31.635, 29.28 32.28 C 29.16 32.7, 29.31 32.67, 29.04 33.12 C 28.62 33.599999999999994, 29.085 33.614999999999995, 28.200000000000003 34.08 C 26.85 34.53, 26.715 34.575, 25.5 34.980000000000004 C 24.42 35.34, 24.495 35.44500000000001, 23.34 35.7 C 22.11 35.85, 21.674999999999997 35.925, 20.88 36 C 20.52 36, 20.384999999999998 36, 20.16 36 C 20.07 36, 20.07 36.015, 19.98 36 C 19.89 35.97, 19.845 35.955, 19.799999999999997 35.94 L 19.799999999999997 35.94" fill="none" stroke="black" stroke-width="5"></path><path d="M 24.78 25.08 C 25.14 25.08, 24.945 25.244999999999997, 25.5 25.08 C 26.25 24.75, 25.995 25.35, 27 24.42 C 28.259999999999998 22.89, 28.65 22.59, 29.52 21.36 C 30 20.43, 29.91 21.3, 30.48 19.5 C 31.14 16.83, 31.379999999999995 16.44, 31.799999999999997 14.16 C 31.98 12.27, 32.13 12, 32.160000000000004 10.379999999999999 C 32.040000000000006 9.03, 32.145 8.684999999999999, 31.92 7.68 C 31.59 7.02, 31.634999999999998 6.99, 31.259999999999998 6.36 C 30.84 5.76, 30.945 5.565, 30.42 5.16 C 29.790000000000003 4.95, 29.940000000000005 4.83, 29.160000000000004 4.74 C 28.23 4.7700000000000005, 28.185 4.500000000000001, 27.299999999999997 4.800000000000001 C 26.459999999999997 5.37, 26.219999999999995 5.4, 25.619999999999997 5.9399999999999995 C 25.259999999999998 6.449999999999999, 25.26 6.149999999999999, 24.900000000000002 6.959999999999999 C 24.54 8.07, 24.36 8.264999999999999, 24.18 9.18 C 24.18 9.9, 23.88 9.780000000000001, 24.18 10.620000000000001 C 24.78 11.58, 24.735000000000003 11.774999999999999, 25.380000000000003 12.54 C 26.07 13.11, 25.994999999999997 13.184999999999999, 26.759999999999998 13.68 C 27.6 14.1, 27.78 14.264999999999999, 28.44 14.52 C 28.92 14.61, 28.965000000000003 14.655000000000001, 29.400000000000002 14.700000000000001 C 29.79 14.700000000000001, 29.79 14.745000000000001, 30.18 14.700000000000001 C 30.57 14.61, 30.645 14.61, 30.96 14.52 C 31.200000000000003 14.43, 31.275000000000002 14.385, 31.44 14.34 C 31.53 14.34, 31.544999999999998 14.34, 31.619999999999997 14.34 C 31.68 14.34, 31.71 14.34, 31.740000000000002 14.34 L 31.740000000000002 14.34" fill="none" stroke="black" stroke-width="5"></path></svg>