<svg width="48" height="48" viewBox="0 0 48 48" xmlns="http://www.w3.org/2000/svg"><path d="M 16.38 25.08 C 16.71 25.14, 16.244999999999997 25.125, 17.04 25.200000000000003 C 18.299999999999997 25.290000000000003, 18.375 25.335, 19.56 25.380000000000003 C 20.67 25.380000000000003, 20.655 25.395000000000003, 21.78 25.380000000000003 C 22.92 25.35, 22.994999999999997 25.335, 24.06 25.32 C 25.049999999999997 25.32, 25.185 25.32, 26.04 25.32 C 26.759999999999998 25.32, 26.759999999999998 25.32, 27.48 25.32 C 28.200000000000003 25.32, 28.290000000000003 25.335, 28.92 25.32 C 29.46 25.29, 29.490000000000002 25.365, 30 25.259999999999998 C 30.48 25.08, 30.555 25.095000000000002, 30.96 24.900000000000002 C 31.29 24.69, 31.349999999999998 24.900000000000002, 31.619999999999997 24.48 C 31.83 23.85, 31.89 23.924999999999997, 32.04 23.22 C 32.129999999999995 22.439999999999998, 32.025 23.07, 32.22 21.66 C 32.519999999999996 19.62, 32.61 19.8, 32.82 17.580000000000002 C 32.94 15.18, 33 14.82, 33.06 12.78 C 33.06 11.1, 33.105000000000004 10.575, 33.06 9.42 C 32.97 8.79, 32.97 8.715, 32.88 8.16 C 32.790000000000006 7.68, 32.865 7.725, 32.7 7.199999999999999 C 32.46 6.63, 32.475 6.585000000000001, 32.22 6.0600000000000005 C 31.95 5.58, 31.89 5.43, 31.68 5.1 C 31.53 4.92, 31.620000000000005 4.95, 31.380000000000003 4.74 C 31.05 4.5, 31.17 4.484999999999999, 30.72 4.26 C 30.15 4.05, 29.985 3.9899999999999998, 29.58 3.84 C 29.339999999999996 3.75, 29.369999999999997 3.705, 29.099999999999998 3.66 C 28.799999999999997 3.66, 28.815 3.5700000000000003, 28.5 3.66 C 28.169999999999998 3.8400000000000003, 28.139999999999997 3.7350000000000003, 27.839999999999996 4.0200000000000005 C 27.569999999999997 4.41, 27.554999999999996 4.305000000000001, 27.299999999999997 4.800000000000001 C 27.06 5.4, 27.015 5.460000000000001, 26.82 6 C 26.67 6.4799999999999995, 26.64 6.359999999999999, 26.52 6.959999999999999 C 26.43 7.679999999999999, 26.384999999999998 7.604999999999999, 26.339999999999996 8.399999999999999 C 26.339999999999996 9.27, 26.249999999999993 9.45, 26.339999999999996 10.14 C 26.52 10.65, 26.445 10.74, 26.700000000000003 11.16 C 27.03 11.49, 26.895 11.46, 27.36 11.82 C 27.96 12.21, 27.99 12.330000000000002, 28.56 12.600000000000001 C 29.1 12.75, 29.16 12.779999999999998, 29.64 12.899999999999999 C 30.060000000000002 12.99, 30.165 13.035, 30.48 13.080000000000002 C 30.69 13.080000000000002, 30.645000000000003 13.080000000000002, 30.900000000000002 13.080000000000002 C 31.200000000000003 13.080000000000002, 31.26 13.080000000000002, 31.5 13.080000000000002 C 31.68 13.080000000000002, 31.665 13.080000000000002, 31.86 13.080000000000002 C 32.07 13.080000000000002, 32.085 13.080000000000002, 32.28 13.080000000000002 C 32.46 13.080000000000002, 32.475 13.080000000000002, 32.64 13.080000000000002 C 32.79 13.080000000000002, 32.834999999999994 13.080000000000002, 32.94 13.080000000000002 C 33 13.080000000000002, 33.03 13.080000000000002, 33.06 13.080000000000002 C 33.06 13.080000000000002, 33.06 13.080000000000002, 33.06 13.080000000000002 L 33.06 13.080000000000002" fill="none" stroke="black" stroke-width="5"></path><path d="M 24.119999999999997 25.619999999999997 C 24.119999999999997 26.07, 24.134999999999998 25.845, 24.119999999999997 26.52 C 24.089999999999996 27.42, 24.104999999999997 27.48, 24.06 28.32 C 24 29.1, 24.015 29.205000000000002, 23.94 29.880000000000003 C 23.85 30.450000000000003, 23.895 30.45, 23.759999999999998 31.02 C 23.58 31.590000000000003, 23.61 31.560000000000002, 23.4 32.160000000000004 C 23.159999999999997 32.790000000000006, 23.099999999999998 32.730000000000004, 22.919999999999998 33.42 C 22.799999999999997 34.17, 22.89 34.14, 22.68 34.92 C 22.380000000000003 35.730000000000004, 22.335 35.925, 22.080000000000002 36.54 C 21.87 36.96, 21.9 36.885000000000005, 21.66 37.38 C 21.39 37.95, 21.42 37.949999999999996, 21.12 38.519999999999996 C 20.79 39.09, 20.805 39.165000000000006, 20.46 39.660000000000004 C 20.1 40.08, 20.265 39.9, 19.740000000000002 40.5 C 19.05 41.28, 18.975 41.370000000000005, 18.36 42.06 C 17.82 42.66, 17.655 42.825, 17.28 43.26 C 17.07 43.53, 17.009999999999998 43.635, 16.86 43.8 C 16.77 43.86, 16.845 43.8, 16.68 43.92 C 16.44 44.1, 16.365000000000002 44.175000000000004, 16.200000000000003 44.28 C 16.11 44.31, 16.065 44.324999999999996, 16.02 44.339999999999996 C 16.02 44.339999999999996, 16.02 44.339999999999996, 16.02 44.339999999999996 L 16.02 44.339999999999996" fill="none" stroke="black" stroke-width="5"></path><path d="M 22.799999999999997 34.8 C 22.919999999999998 34.8, 22.83 34.544999999999995, 23.04 34.8 C 23.34 35.31, 23.43 35.295, 23.64 35.82 C 23.759999999999998 36.36, 23.759999999999998 36.315000000000005, 23.88 36.900000000000006 C 24 37.53, 23.894999999999996 37.56, 24.119999999999997 38.160000000000004 C 24.45 38.730000000000004, 24.36 38.714999999999996, 24.78 39.3 C 25.29 39.9, 25.379999999999995 40.035, 25.799999999999997 40.5 C 26.13 40.83, 25.994999999999997 40.77, 26.46 41.160000000000004 C 27.060000000000002 41.61, 27.075000000000003 41.64, 27.660000000000004 42.06 C 28.23 42.45, 28.2 42.525, 28.799999999999997 42.839999999999996 C 29.43 43.08, 29.415 43.095, 30.06 43.32 C 30.72 43.53, 30.78 43.59, 31.380000000000003 43.74 C 31.92 43.83, 32.19 43.875, 32.46 43.92 C 32.46 43.92, 32.46 43.92, 32.46 43.92 L 32.46 43.92" fill="none" stroke="black" stroke-width="5"></path></svg>