<svg width="48" height="48" viewBox="0 0 48 48" xmlns="http://www.w3.org/2000/svg"><path d="M 9.959999999999999 2.88 C 9.959999999999999 3.42, 9.959999999999999 3.12, 9.959999999999999 3.96 C 9.959999999999999 5.1, 9.959999999999999 5.205, 9.959999999999999 6.24 C 9.959999999999999 7.170000000000001, 9.959999999999999 6.885000000000002, 9.959999999999999 8.100000000000001 C 9.959999999999999 9.600000000000001, 10.004999999999999 9.255000000000003, 9.959999999999999 11.100000000000001 C 9.87 13.290000000000001, 9.825 13.425, 9.78 15.48 C 9.78 17.4, 9.78 17.64, 9.78 19.32 C 9.78 20.76, 9.854999999999999 20.745000000000005, 9.78 22.200000000000003 C 9.629999999999999 23.67, 9.675 23.565, 9.48 25.14 C 9.24 26.82, 9.225 26.67, 9 28.5 C 8.79 30.48, 8.73 30.705000000000002, 8.58 32.46 C 8.489999999999998 33.989999999999995, 8.444999999999999 34.425, 8.399999999999999 35.519999999999996 C 8.399999999999999 36.17999999999999, 8.399999999999999 36.11999999999999, 8.399999999999999 36.839999999999996 C 8.399999999999999 37.620000000000005, 8.309999999999999 37.35000000000001, 8.399999999999999 38.400000000000006 C 8.579999999999998 39.72, 8.565 40.019999999999996, 8.76 41.04 C 8.969999999999999 41.760000000000005, 8.925 41.910000000000004, 9.18 42.480000000000004 C 9.48 42.900000000000006, 9.375 42.945, 9.78 43.32 C 10.29 43.650000000000006, 10.275 43.74, 10.8 43.980000000000004 C 11.34 44.13, 11.264999999999999 44.175, 11.879999999999999 44.28 C 12.57 44.34, 12.51 44.385000000000005, 13.26 44.400000000000006 C 14.07 44.370000000000005, 14.084999999999999 44.519999999999996, 14.879999999999999 44.339999999999996 C 15.66 44.01, 15.825000000000001 44.099999999999994, 16.44 43.68 C 16.89 43.17, 17.025 43.30500000000001, 17.34 42.660000000000004 C 17.520000000000003 41.879999999999995, 17.610000000000003 42.01499999999999, 17.700000000000003 41.099999999999994 C 17.700000000000003 40.05, 17.700000000000003 39.825, 17.700000000000003 39 C 17.700000000000003 38.4, 17.700000000000003 38.459999999999994, 17.700000000000003 37.8 C 17.700000000000003 37.08, 17.775000000000006 37.035, 17.700000000000003 36.36 C 17.55 35.73, 17.625 35.699999999999996, 17.4 35.099999999999994 C 17.099999999999998 34.53, 17.114999999999995 34.455, 16.799999999999997 33.96 C 16.47 33.54, 16.515 33.48, 16.14 33.12 C 15.719999999999999 32.81999999999999, 15.719999999999999 32.73, 15.299999999999999 32.519999999999996 C 14.879999999999999 32.4, 14.895000000000001 32.34, 14.46 32.28 C 14.01 32.28, 13.979999999999999 32.28, 13.559999999999999 32.28 C 13.169999999999998 32.28, 13.29 32.160000000000004, 12.78 32.28 C 12.149999999999999 32.519999999999996, 12.09 32.459999999999994, 11.52 32.76 C 11.01 33.120000000000005, 11.055 33.09, 10.5 33.480000000000004 C 9.9 33.900000000000006, 9.63 34.08, 9.3 34.32 C 9.24 34.379999999999995, 9.254999999999999 34.364999999999995, 9.18 34.44 C 9.09 34.53, 9.045 34.574999999999996, 9 34.62 C 9 34.62, 9 34.62, 9 34.62 C 9 34.62, 9.045 34.589999999999996, 9 34.62 C 8.91 34.68, 8.865 34.71, 8.82 34.74 C 8.82 34.74, 8.82 34.74, 8.82 34.74 C 8.82 34.74, 8.82 34.74, 8.82 34.74 L 8.82 34.74" fill="none" stroke="black" stroke-width="5"></path><path d="M 9.24 26.22 C 9.629999999999999 26.22, 9.6 26.22, 10.02 26.22 C 10.469999999999999 26.22, 10.35 26.339999999999996, 10.92 26.22 C 11.61 25.98, 11.444999999999999 26.310000000000002, 12.299999999999999 25.740000000000002 C 13.32 24.840000000000003, 13.605 24.720000000000002, 14.34 23.94 C 14.79 23.28, 14.774999999999999 23.400000000000002, 15.24 22.62 C 15.720000000000002 21.72, 15.810000000000004 21.810000000000002, 16.200000000000003 20.82 C 16.5 19.740000000000002, 16.604999999999997 19.41, 16.799999999999997 18.66 C 16.89 18.240000000000002, 16.935 18.15, 16.98 17.82 C 16.98 17.58, 16.98 17.46, 16.98 17.34 C 16.98 17.34, 16.95 17.325, 16.98 17.34 C 17.04 17.369999999999997, 17.07 16.964999999999996, 17.1 17.4 C 17.1 18.240000000000002, 17.1 18.225, 17.1 19.080000000000002 C 17.1 19.950000000000003, 17.1 20.16, 17.1 20.82 C 17.1 21.27, 17.01 21.255, 17.1 21.72 C 17.28 22.2, 17.175 22.005, 17.46 22.68 C 17.85 23.55, 17.775000000000002 23.565, 18.240000000000002 24.42 C 18.78 25.259999999999998, 18.885 25.515, 19.32 26.099999999999998 C 19.65 26.43, 19.515 26.415, 19.98 26.759999999999998 C 20.58 27.119999999999997, 20.505 27.240000000000002, 21.18 27.48 C 21.93 27.6, 21.84 27.72, 22.68 27.72 C 23.61 27.6, 23.744999999999997 27.645, 24.54 27.48 C 25.2 27.27, 25.29 27.299999999999997, 25.86 27.06 C 26.34 26.79, 26.325000000000003 27.03, 26.82 26.52 C 27.33 25.77, 27.479999999999997 25.77, 27.839999999999996 25.02 C 28.049999999999997 24.27, 28.064999999999998 24.54, 28.259999999999998 23.52 C 28.439999999999998 22.23, 28.529999999999998 21.96, 28.619999999999997 20.94 C 28.619999999999997 20.19, 28.754999999999995 20.145000000000003, 28.619999999999997 19.44 C 28.349999999999998 18.78, 28.379999999999995 18.540000000000003, 28.08 18.12 C 27.75 17.939999999999998, 27.93 17.865, 27.42 17.759999999999998 C 26.73 17.73, 26.625 17.625000000000004, 26.04 17.700000000000003 C 25.56 17.880000000000003, 25.575 17.805, 25.08 18.06 C 24.57 18.39, 24.615 18.27, 24.06 18.72 C 23.46 19.29, 23.415 19.229999999999997, 22.86 19.86 C 22.35 20.55, 22.215 20.625, 21.84 21.240000000000002 C 21.6 21.78, 21.585 21.69, 21.36 22.32 C 21.15 23.04, 21.150000000000002 23.13, 20.94 23.759999999999998 C 20.73 24.299999999999997, 20.655 24.359999999999996, 20.52 24.839999999999996 C 20.46 25.259999999999998, 20.474999999999998 25.349999999999998, 20.4 25.68 C 20.31 25.92, 20.31 25.890000000000004, 20.22 26.160000000000004 C 20.13 26.46, 20.085 26.535, 20.04 26.759999999999998 C 20.04 26.909999999999997, 20.04 26.985, 20.04 27.06 C 20.04 27.06, 20.04 27.06, 20.04 27.06 L 20.04 27.06" fill="none" stroke="black" stroke-width="5"></path></svg>