<svg width="48" height="48" viewBox="0 0 48 48" xmlns="http://www.w3.org/2000/svg"><path d="M 12.18 3.66 C 12.18 4.2, 12.24 3.495, 12.18 4.74 C 12.059999999999999 6.69, 12.105 6.495000000000001, 11.94 8.64 C 11.73 10.98, 11.67 11.25, 11.52 13.32 C 11.43 15.12, 11.385 15.239999999999998, 11.34 16.919999999999998 C 11.34 18.479999999999997, 11.34 18.735, 11.34 20.04 C 11.34 21.09, 11.34 21, 11.34 22.14 C 11.34 23.369999999999997, 11.34 23.43, 11.34 24.599999999999998 C 11.34 25.71, 11.235 25.95, 11.34 26.82 C 11.55 27.45, 11.55 27.555, 11.76 28.08 C 11.969999999999999 28.5, 11.94 28.35, 12.18 28.92 C 12.45 29.64, 12.48 29.880000000000003, 12.72 30.36 C 12.93 30.599999999999998, 12.945 30.689999999999998, 13.14 30.839999999999996 C 13.32 30.9, 13.379999999999999 30.93, 13.5 30.96 C 13.56 30.96, 13.425 31.020000000000003, 13.620000000000001 30.96 C 13.95 30.84, 13.95 30.974999999999998, 14.28 30.72 C 14.61 30.33, 14.610000000000001 30.345000000000002, 14.940000000000001 29.94 C 15.270000000000001 29.52, 15.225000000000001 29.625, 15.600000000000001 29.099999999999998 C 16.020000000000003 28.47, 15.930000000000001 28.724999999999994, 16.44 27.839999999999996 C 17.04 26.699999999999996, 17.115000000000002 26.714999999999996, 17.64 25.56 C 18.09 24.39, 18.21 24.435, 18.54 23.22 C 18.75 21.96, 18.78 21.795, 18.96 20.700000000000003 C 19.11 19.770000000000003, 19.169999999999998 19.53, 19.259999999999998 18.84 C 19.29 18.39, 19.305 18.165, 19.32 17.94 C 19.32 17.94, 19.275 17.82, 19.32 17.94 C 19.41 18.18, 19.455 18.075, 19.5 18.419999999999998 C 19.5 18.869999999999997, 19.560000000000002 18.405, 19.5 19.32 C 19.38 20.700000000000003, 19.365 20.85, 19.259999999999998 22.080000000000002 C 19.17 23.160000000000004, 19.125 23.265, 19.080000000000002 24.240000000000002 C 19.080000000000002 25.11, 19.05 25.125, 19.080000000000002 25.98 C 19.14 26.82, 19.035000000000004 26.940000000000005, 19.200000000000003 27.660000000000004 C 19.470000000000002 28.26, 19.395000000000003 28.305, 19.740000000000002 28.86 C 20.160000000000004 29.37, 20.115000000000002 29.415000000000003, 20.580000000000002 29.880000000000003 C 21.090000000000003 30.3, 21.060000000000002 30.345, 21.6 30.72 C 22.17 31.05, 22.095000000000002 31.17, 22.740000000000002 31.380000000000003 C 23.46 31.47, 23.55 31.515, 24.18 31.56 C 24.72 31.56, 24.525 31.695, 25.259999999999998 31.56 C 26.189999999999998 31.29, 26.279999999999998 31.5, 27.119999999999997 31.02 C 27.869999999999997 30.33, 28.034999999999997 30.27, 28.619999999999997 29.64 C 29.04 29.07, 29.07 29.16, 29.46 28.5 C 29.82 27.75, 29.939999999999998 27.645, 30.18 27 C 30.3 26.46, 30.36 26.445, 30.42 25.92 C 30.42 25.410000000000004, 30.465000000000003 25.620000000000005, 30.42 24.900000000000002 C 30.330000000000002 23.97, 30.450000000000003 23.744999999999997, 30.240000000000002 23.04 C 29.91 22.560000000000002, 29.955 22.560000000000002, 29.58 22.080000000000002 C 29.16 21.6, 29.265 21.405, 28.740000000000002 21.12 C 28.11 21.03, 28.05 20.970000000000002, 27.48 20.94 C 26.97 20.97, 26.925 20.91, 26.46 21 C 26.04 21.15, 26.174999999999997 20.97, 25.619999999999997 21.299999999999997 C 24.93 21.81, 24.87 21.81, 24.240000000000002 22.32 C 23.67 22.83, 23.775000000000002 22.740000000000002, 23.1 23.34 C 22.32 24.03, 22.305 24, 21.54 24.72 C 20.79 25.47, 20.415 25.845, 20.04 26.22 C 20.04 26.22, 20.04 26.22, 20.04 26.22 C 20.04 26.22, 20.279999999999998 25.904999999999998, 20.04 26.22 C 19.560000000000002 26.85, 19.32 27.165, 19.080000000000002 27.48 L 19.080000000000002 27.48" fill="none" stroke="black" stroke-width="5"></path><path d="M 18.66 33.839999999999996 C 17.85 34.14, 17.805 33.974999999999994, 17.04 34.44 C 16.32 35.07, 16.275000000000002 34.965, 15.600000000000001 35.7 C 14.97 36.540000000000006, 14.835 36.39, 14.34 37.38 C 13.98 38.52, 13.8 38.580000000000005, 13.620000000000001 39.660000000000004 C 13.620000000000001 40.68000000000001, 13.530000000000001 40.69500000000001, 13.620000000000001 41.7 C 13.8 42.69, 13.725000000000001 43.02, 13.98 43.68 C 14.31 44.01, 14.175 43.934999999999995, 14.64 44.339999999999996 C 15.24 44.81999999999999, 15.105 44.94, 15.84 45.3 C 16.71 45.54, 16.62 45.615, 17.580000000000002 45.78 C 18.630000000000003 45.870000000000005, 18.765 46.02, 19.68 45.96 C 20.46 45.75, 20.310000000000002 46.14, 21.240000000000002 45.54 C 22.32 44.55, 22.619999999999997 44.505, 23.4 43.56 C 23.88 42.66, 24.09 42.57, 24.36 41.76 C 24.42 41.04, 24.45 41.19, 24.48 40.32 C 24.48 39.3, 24.585 39.150000000000006, 24.48 38.28 C 24.27 37.56, 24.299999999999997 37.485, 24.06 36.839999999999996 C 23.79 36.269999999999996, 23.91 36.27, 23.52 35.7 C 23.009999999999998 35.13, 22.965 34.995000000000005, 22.5 34.56 C 22.08 34.260000000000005, 22.185000000000002 34.155, 21.66 33.96 C 21.03 33.870000000000005, 20.985 33.870000000000005, 20.4 33.78 C 19.86 33.69, 19.86 33.599999999999994, 19.32 33.599999999999994 C 18.78 33.69, 18.630000000000003 33.644999999999996, 18.240000000000002 33.78 C 18 33.96, 17.88 34.05, 17.759999999999998 34.14 L 17.759999999999998 34.14" fill="none" stroke="black" stroke-width="5"></path><path d="M 13.74 40.08 C 14.82 40.08, 14.819999999999999 40.095, 15.899999999999999 40.08 C 16.979999999999997 40.05, 17.174999999999997 40.035, 18.06 40.019999999999996 C 18.75 40.019999999999996, 18.645 40.019999999999996, 19.44 40.019999999999996 C 20.340000000000003 40.019999999999996, 20.490000000000002 40.019999999999996, 21.240000000000002 40.019999999999996 C 21.840000000000003 40.019999999999996, 21.945 40.019999999999996, 22.44 40.019999999999996 C 22.83 40.019999999999996, 22.919999999999998 40.019999999999996, 23.22 40.019999999999996 C 23.43 40.019999999999996, 23.490000000000002 40.019999999999996, 23.64 40.019999999999996 C 23.73 40.019999999999996, 23.73 40.019999999999996, 23.82 40.019999999999996 C 23.91 40.019999999999996, 23.85 40.004999999999995, 24 40.019999999999996 C 24.21 40.05, 24.315 40.065, 24.42 40.08 C 24.42 40.08, 24.42 40.08, 24.42 40.08 C 24.42 40.08, 24.36 40.08, 24.42 40.08 L 24.660000000000004 40.08" fill="none" stroke="black" stroke-width="5"></path></svg>