<svg width="48" height="48" viewBox="0 0 48 48" xmlns="http://www.w3.org/2000/svg"><path d="M 15.84 36.839999999999996 C 15.72 36.39, 16.065 37.245, 15.600000000000001 35.94 C 14.790000000000001 33.78, 14.73 33.78, 13.98 31.619999999999997 C 13.290000000000001 29.459999999999997, 13.080000000000002 29.054999999999996, 12.600000000000001 27.299999999999997 C 12.33 25.949999999999996, 12.315 26.084999999999997, 12.059999999999999 24.599999999999998 C 11.82 22.979999999999997, 11.79 22.77, 11.58 21.36 C 11.4 20.16, 11.31 20.025, 11.22 18.96 C 11.22 18.03, 11.22 17.85, 11.22 17.1 C 11.22 16.53, 11.16 16.605, 11.22 15.96 C 11.34 15.24, 11.37 14.985, 11.459999999999999 14.52 C 11.52 14.31, 11.52 14.265, 11.58 14.100000000000001 C 11.64 13.98, 11.504999999999999 14.01, 11.7 13.86 C 12.03 13.68, 12.075 13.620000000000001, 12.36 13.5 C 12.6 13.44, 12.57 13.364999999999998, 12.84 13.379999999999999 C 13.14 13.469999999999999, 13.200000000000001 13.424999999999999, 13.440000000000001 13.559999999999999 C 13.620000000000001 13.739999999999998, 13.53 13.664999999999997, 13.799999999999999 13.919999999999998 C 14.16 14.25, 14.25 14.250000000000002, 14.52 14.580000000000002 C 14.7 14.91, 14.639999999999999 14.790000000000001, 14.879999999999999 15.24 C 15.18 15.809999999999999, 15.18 15.524999999999999, 15.48 16.38 C 15.780000000000001 17.52, 15.765 17.490000000000002, 16.080000000000002 18.66 C 16.410000000000004 19.86, 16.53 20.025, 16.740000000000002 21.06 C 16.83 21.93, 16.845 22.019999999999996, 16.919999999999998 22.799999999999997 C 16.979999999999997 23.49, 17.009999999999998 23.835, 17.04 24.18 C 17.04 24.18, 17.04 24.18, 17.04 24.18 C 17.04 24.18, 17.07 24.375, 17.04 24.18 C 16.979999999999997 23.79, 16.95 24.195, 16.919999999999998 23.4 C 16.919999999999998 22.2, 16.919999999999998 22.185, 16.919999999999998 21 C 16.919999999999998 19.83, 16.919999999999998 19.515, 16.919999999999998 18.66 C 16.919999999999998 18.12, 16.919999999999998 18.045, 16.919999999999998 17.580000000000002 C 16.919999999999998 17.189999999999998, 16.874999999999996 17.144999999999996, 16.919999999999998 16.799999999999997 C 17.009999999999998 16.5, 16.98 16.590000000000003, 17.1 16.200000000000003 C 17.25 15.720000000000002, 17.22 15.690000000000001, 17.4 15.24 C 17.61 14.82, 17.7 14.654999999999998, 17.82 14.399999999999999 C 17.85 14.309999999999999, 17.744999999999997 14.325, 17.88 14.22 C 18.119999999999997 14.100000000000001, 18 14.040000000000001, 18.36 13.98 C 18.84 13.98, 18.765 13.875, 19.32 13.98 C 19.950000000000003 14.19, 20.01 14.145, 20.580000000000002 14.399999999999999 C 21.090000000000003 14.7, 21.090000000000003 14.64, 21.6 15 C 22.11 15.42, 21.96 15.33, 22.62 15.84 C 23.43 16.439999999999998, 23.46 16.65, 24.240000000000002 17.04 C 24.990000000000002 17.22, 25.050000000000004 17.445, 25.740000000000002 17.4 C 26.37 17.13, 26.505000000000003 17.159999999999997, 27 16.86 C 27.36 16.53, 27.314999999999998 16.695000000000004, 27.72 16.200000000000003 C 28.169999999999998 15.540000000000001, 28.304999999999996 15.57, 28.619999999999997 14.879999999999999 C 28.799999999999997 14.16, 28.89 14.565000000000001, 28.98 13.440000000000001 C 28.98 11.91, 28.995 11.459999999999999, 28.98 10.379999999999999 C 28.950000000000003 9.75, 29.085 9.885000000000002, 28.92 9.120000000000001 C 28.62 8.22, 28.665 8.055, 28.32 7.32 C 27.93 6.75, 27.975 6.57, 27.54 6.18 C 27.06 5.97, 27.089999999999996 5.865, 26.58 5.76 C 26.04 5.76, 25.89 5.744999999999999, 25.5 5.76 C 25.259999999999998 5.79, 25.425 5.595000000000001, 25.02 5.82 C 24.45 6.24, 24.405 6.165, 23.88 6.66 C 23.4 7.23, 23.354999999999997 7.140000000000001, 22.919999999999998 7.800000000000001 C 22.53 8.55, 22.425 8.715, 22.14 9.3 C 21.96 9.72, 21.96 9.495000000000001, 21.78 10.14 C 21.6 11.01, 21.584999999999997 10.979999999999999, 21.419999999999998 11.879999999999999 C 21.27 12.809999999999999, 21.225 13.08, 21.12 13.74 C 21.060000000000002 14.129999999999999, 21.03 14.25, 21 14.52 C 21 14.67, 21 14.715, 21 14.82 C 21 14.88, 21 14.91, 21 14.940000000000001 L 21 14.940000000000001" fill="none" stroke="black" stroke-width="5"></path><path d="M 12.18 37.38 C 12.33 37.41, 12.285 37.425, 12.48 37.44 C 12.72 37.44, 12.645000000000001 37.44, 12.96 37.44 C 13.350000000000001 37.44, 13.155000000000001 37.44, 13.74 37.44 C 14.52 37.44, 14.504999999999999 37.5, 15.299999999999999 37.44 C 16.11 37.32, 16.11 37.35, 16.919999999999998 37.2 C 17.729999999999997 37.019999999999996, 17.79 36.959999999999994, 18.54 36.839999999999996 C 19.229999999999997 36.78, 19.08 36.824999999999996, 19.919999999999998 36.72 C 20.909999999999997 36.57, 21.075 36.495000000000005, 21.9 36.42 C 22.56 36.42, 22.575 36.465, 23.22 36.42 C 23.85 36.33, 23.985 36.285000000000004, 24.48 36.24 C 24.840000000000003 36.24, 25.020000000000003 36.24, 25.200000000000003 36.24 L 25.200000000000003 36.24" fill="none" stroke="black" stroke-width="5"></path><path d="M 11.94 43.26 C 11.94 43.29, 11.475 43.41, 11.94 43.32 C 12.87 43.11, 12.989999999999998 43.065000000000005, 13.799999999999999 42.900000000000006 C 14.489999999999998 42.78, 14.34 42.81, 15.18 42.660000000000004 C 16.17 42.480000000000004, 16.275 42.39, 17.16 42.3 C 17.939999999999998 42.3, 17.924999999999997 42.3, 18.72 42.3 C 19.53 42.3, 19.47 42.39, 20.34 42.3 C 21.270000000000003 42.12, 21.375000000000004 42.03, 22.200000000000003 41.94 C 22.92 41.94, 23.055 41.94, 23.64 41.94 C 24.09 41.94, 24.119999999999997 41.94, 24.54 41.94 C 24.93 41.94, 24.884999999999998 41.925, 25.32 41.94 C 25.8 41.97, 25.965000000000003 41.985, 26.28 42 C 26.43 42, 26.415 41.955, 26.58 42 C 26.759999999999998 42.09, 26.85 42.135, 26.94 42.18 L 26.94 42.18" fill="none" stroke="black" stroke-width="5"></path></svg>