<svg width="48" height="48" viewBox="0 0 48 48" xmlns="http://www.w3.org/2000/svg"><path d="M 15.120000000000001 30.78 C 15.18 30.840000000000003, 14.865 30.87, 15.24 30.900000000000002 C 15.93 30.900000000000002, 15.66 30.900000000000002, 16.62 30.900000000000002 C 17.85 30.900000000000002, 17.790000000000003 30.900000000000002, 19.080000000000002 30.900000000000002 C 20.43 30.900000000000002, 20.655 30.900000000000002, 21.78 30.900000000000002 C 22.68 30.900000000000002, 22.725 30.900000000000002, 23.580000000000002 30.900000000000002 C 24.39 30.900000000000002, 24.510000000000005 30.900000000000002, 25.200000000000003 30.900000000000002 C 25.77 30.900000000000002, 25.74 30.975, 26.339999999999996 30.900000000000002 C 26.97 30.75, 27.089999999999996 30.735, 27.599999999999998 30.599999999999998 C 27.990000000000002 30.479999999999997, 27.990000000000002 30.494999999999997, 28.380000000000003 30.36 C 28.770000000000003 30.21, 28.755000000000003 30.255, 29.160000000000004 30.06 C 29.580000000000002 29.82, 29.64 29.999999999999996, 30 29.58 C 30.299999999999997 28.98, 30.419999999999998 28.905, 30.599999999999998 28.380000000000003 C 30.659999999999997 27.93, 30.555 28.05, 30.72 27.48 C 30.99 26.79, 31.004999999999995 26.97, 31.259999999999998 26.099999999999998 C 31.5 25.049999999999997, 31.53 25.17, 31.740000000000002 24 C 31.919999999999998 22.71, 32.01 22.604999999999997, 32.099999999999994 21.419999999999998 C 32.099999999999994 20.339999999999996, 32.05499999999999 20.61, 32.099999999999994 19.259999999999998 C 32.19 17.64, 32.19 17.505, 32.28 16.02 C 32.370000000000005 14.67, 32.415 14.46, 32.46 13.32 C 32.46 12.39, 32.46 12.344999999999999, 32.46 11.459999999999999 C 32.46 10.62, 32.46 10.334999999999999, 32.46 9.78 C 32.46 9.51, 32.46 9.615, 32.46 9.24 C 32.46 8.76, 32.535 8.684999999999999, 32.46 8.28 C 32.31 7.949999999999999, 32.370000000000005 7.965, 32.160000000000004 7.62 C 31.89 7.26, 31.845 7.199999999999999, 31.619999999999997 6.8999999999999995 C 31.439999999999998 6.66, 31.394999999999996 6.585, 31.259999999999998 6.42 C 31.169999999999998 6.33, 31.169999999999998 6.33, 31.08 6.24 C 30.990000000000002 6.15, 31.020000000000003 6.120000000000001, 30.900000000000002 6.0600000000000005 C 30.75 6.03, 30.75 6.015000000000001, 30.599999999999998 6 C 30.449999999999996 6, 30.494999999999997 5.91, 30.299999999999997 6 C 30.06 6.18, 30.12 6.0600000000000005, 29.82 6.36 C 29.46 6.779999999999999, 29.49 6.704999999999999, 29.099999999999998 7.199999999999999 C 28.68 7.77, 28.604999999999997 7.8, 28.259999999999998 8.34 C 27.99 8.85, 28.049999999999997 8.745, 27.72 9.36 C 27.33 10.08, 27.42 9.915000000000001, 26.94 10.8 C 26.369999999999997 11.85, 26.354999999999997 11.895, 25.799999999999997 12.899999999999999 C 25.259999999999998 13.86, 24.99 14.34, 24.72 14.82 C 24.72 14.82, 24.735 14.775, 24.72 14.82 L 24.660000000000004 15" fill="none" stroke="black" stroke-width="5"></path><path d="M 23.580000000000002 5.64 C 23.520000000000003 6, 23.700000000000003 5.91, 23.46 6.36 C 23.04 6.9, 23.085 6.749999999999999, 22.62 7.4399999999999995 C 22.11 8.280000000000001, 22.05 8.370000000000001, 21.6 9.120000000000001 C 21.21 9.780000000000001, 21.195 9.719999999999999, 20.82 10.44 C 20.46 11.219999999999999, 20.475 11.19, 20.1 12 C 19.71 12.84, 19.695 12.87, 19.32 13.68 C 18.96 14.46, 18.900000000000002 14.504999999999999, 18.6 15.24 C 18.36 15.93, 18.3 16.125, 18.12 16.62 C 18 16.92, 17.97 17.025, 17.88 17.22 L 17.759999999999998 17.4" fill="none" stroke="black" stroke-width="5"></path><path d="M 19.86 31.08 C 19.86 31.53, 19.875 31.365000000000002, 19.86 31.98 C 19.83 32.76, 19.904999999999998 32.519999999999996, 19.799999999999997 33.54 C 19.619999999999997 34.8, 19.59 34.83, 19.44 36.06 C 19.32 37.260000000000005, 19.35 37.44, 19.200000000000003 38.46 C 19.020000000000003 39.3, 18.945 39.3, 18.84 40.14 C 18.810000000000002 40.980000000000004, 18.855 40.875, 18.78 41.82 C 18.66 42.870000000000005, 18.63 43.035000000000004, 18.54 43.92 C 18.479999999999997 44.64, 18.45 44.925, 18.419999999999998 45.36 C 18.419999999999998 45.510000000000005, 18.419999999999998 45.585, 18.419999999999998 45.660000000000004 C 18.419999999999998 45.660000000000004, 18.45 45.61500000000001, 18.419999999999998 45.660000000000004 L 18.299999999999997 45.839999999999996" fill="none" stroke="black" stroke-width="5"></path><path d="M 25.740000000000002 31.14 C 25.86 31.35, 25.92 31.095, 25.98 31.56 C 25.98 32.28, 26.115000000000002 31.905, 25.98 33 C 25.71 34.47, 25.62 34.47, 25.44 35.94 C 25.35 37.41, 25.349999999999998 37.605000000000004, 25.259999999999998 38.88 C 25.169999999999998 39.96, 25.169999999999998 40.08, 25.08 41.04 C 24.990000000000002 41.879999999999995, 24.945 42.045, 24.900000000000002 42.72 C 24.900000000000002 43.230000000000004, 24.915000000000003 43.32, 24.900000000000002 43.74 C 24.869999999999997 44.07000000000001, 24.884999999999998 44.08500000000001, 24.839999999999996 44.400000000000006 C 24.779999999999998 44.7, 24.794999999999998 44.685, 24.72 45 C 24.63 45.33, 24.585 45.495000000000005, 24.54 45.660000000000004 C 24.54 45.660000000000004, 24.54 45.660000000000004, 24.54 45.660000000000004 L 24.54 45.660000000000004" fill="none" stroke="black" stroke-width="5"></path></svg>