<svg width="48" height="48" viewBox="0 0 48 48" xmlns="http://www.w3.org/2000/svg"><path d="M 11.94 43.74 C 11.55 41.22, 11.445 40.48500000000001, 11.16 38.7 C 10.98 37.65, 10.995000000000001 38.205, 10.8 36.599999999999994 C 10.59 34.44, 10.485 34.365, 10.379999999999999 32.28 C 10.379999999999999 30.27, 10.379999999999999 30.029999999999998, 10.379999999999999 28.259999999999998 C 10.379999999999999 26.73, 10.379999999999999 26.325000000000003, 10.379999999999999 25.200000000000003 C 10.379999999999999 24.48, 10.29 24.599999999999998, 10.379999999999999 23.759999999999998 C 10.559999999999999 22.799999999999997, 10.515 22.8, 10.74 21.84 C 11.01 20.88, 11.024999999999999 20.729999999999997, 11.28 19.919999999999998 C 11.52 19.259999999999998, 11.594999999999999 19.02, 11.76 18.6 C 11.85 18.42, 11.85 18.375000000000004, 11.94 18.240000000000002 C 12.030000000000001 18.15, 12.000000000000002 18.18, 12.120000000000001 18.06 C 12.27 17.909999999999997, 12.224999999999998 17.865, 12.419999999999998 17.759999999999998 C 12.659999999999998 17.7, 12.659999999999998 17.655, 12.899999999999999 17.64 C 13.139999999999999 17.67, 13.184999999999999 17.655, 13.379999999999999 17.700000000000003 C 13.53 17.76, 13.379999999999999 17.535, 13.68 17.82 C 14.13 18.33, 14.115000000000002 18.21, 14.580000000000002 18.84 C 15.06 19.59, 15.059999999999999 19.32, 15.54 20.34 C 16.02 21.63, 16.095 21.644999999999996, 16.5 22.919999999999998 C 16.83 24.18, 16.995 24.810000000000002, 17.16 25.44 C 17.16 25.44, 17.16 25.470000000000002, 17.16 25.44 C 17.16 25.380000000000003, 17.13 25.725, 17.16 25.32 C 17.22 24.57, 17.1 24.735, 17.28 23.82 C 17.58 22.740000000000002, 17.49 22.635, 17.88 21.66 C 18.36 20.79, 18.375 20.639999999999997, 18.84 19.919999999999998 C 19.29 19.35, 19.26 19.29, 19.740000000000002 18.78 C 20.25 18.33, 20.34 18.165, 20.759999999999998 17.88 C 21.089999999999996 17.759999999999998, 21.029999999999998 17.7, 21.419999999999998 17.64 C 21.869999999999997 17.64, 21.884999999999998 17.595, 22.32 17.64 C 22.740000000000002 17.73, 22.785 17.685000000000002, 23.16 17.82 C 23.490000000000002 18, 23.490000000000002 17.97, 23.82 18.18 C 24.15 18.42, 24.015 18.195, 24.48 18.66 C 25.08 19.35, 25.11 19.305, 25.68 20.04 C 26.22 20.82, 26.25 20.73, 26.759999999999998 21.6 C 27.24 22.560000000000002, 27.24 22.259999999999998, 27.72 23.52 C 28.2 25.08, 28.35 25.2, 28.68 26.64 C 28.86 27.96, 28.95 27.810000000000002, 29.04 29.28 C 29.04 30.9, 29.07 30.914999999999996, 29.04 32.519999999999996 C 28.98 34.11, 29.130000000000003 34.365, 28.92 35.7 C 28.560000000000002 36.78, 28.665000000000003 36.795, 28.200000000000003 37.86 C 27.630000000000003 38.91, 27.674999999999997 39.3, 27.06 39.96 C 26.4 40.230000000000004, 26.400000000000002 40.365, 25.740000000000002 40.5 C 25.080000000000002 40.5, 24.990000000000002 40.5, 24.42 40.5 C 23.94 40.5, 23.970000000000002 40.56, 23.46 40.5 C 22.92 40.379999999999995, 22.905 40.515, 22.38 40.26 C 21.869999999999997 39.870000000000005, 21.81 39.96000000000001, 21.36 39.480000000000004 C 20.97 38.91, 20.775000000000002 39.03, 20.580000000000002 38.339999999999996 C 20.580000000000002 37.53, 20.55 37.589999999999996, 20.580000000000002 36.72 C 20.64 35.79, 20.550000000000004 35.64, 20.700000000000003 34.86 C 20.94 34.23, 20.73 34.23, 21.18 33.599999999999994 C 21.84 32.97, 21.75 32.864999999999995, 22.5 32.339999999999996 C 23.34 31.919999999999998, 23.46 31.755, 24.18 31.5 C 24.78 31.41, 24.810000000000002 31.365000000000002, 25.380000000000003 31.32 C 25.92 31.32, 26.07 31.32, 26.46 31.32 C 26.700000000000003 31.32, 26.700000000000003 31.275, 26.94 31.32 C 27.18 31.41, 27.21 31.365000000000002, 27.42 31.5 C 27.6 31.68, 27.6 31.695, 27.78 31.86 C 27.96 32.010000000000005, 28.020000000000003 32.040000000000006, 28.14 32.160000000000004 C 28.2 32.25, 28.14 32.205, 28.259999999999998 32.339999999999996 C 28.439999999999998 32.519999999999996, 28.47 32.535000000000004, 28.619999999999997 32.7 C 28.74 32.85, 28.799999999999997 32.925, 28.86 33 C 28.86 33, 28.784999999999997 32.91, 28.86 33 C 29.01 33.18, 29.085 33.269999999999996, 29.160000000000004 33.36 L 29.160000000000004 33.36" fill="none" stroke="black" stroke-width="5"></path><path d="M 19.98 4.74 C 19.47 5.22, 19.92 4.934999999999999, 18.96 5.699999999999999 C 17.55 6.75, 17.505000000000003 6.750000000000001, 16.14 7.800000000000001 C 14.82 8.85, 14.49 9.149999999999999, 13.5 9.899999999999999 C 12.84 10.35, 12.719999999999999 10.455, 12.18 10.8 L 11.34 11.28" fill="none" stroke="black" stroke-width="5"></path><path d="M 27.240000000000002 7.02 C 26.73 7.709999999999999, 27.044999999999998 7.679999999999999, 26.22 8.399999999999999 C 25.08 9.149999999999999, 25.05 9.134999999999998, 23.94 9.899999999999999 C 22.86 10.68, 22.8 10.694999999999999, 21.78 11.459999999999999 C 20.82 12.21, 20.415 12.510000000000002, 19.86 12.96 C 19.71 13.11, 19.634999999999998 13.185, 19.56 13.26 L 19.56 13.26" fill="none" stroke="black" stroke-width="5"></path></svg>