<svg width="48" height="48" viewBox="0 0 48 48" xmlns="http://www.w3.org/2000/svg"><path d="M 14.34 30 C 14.07 28.5, 13.979999999999999 28.275, 13.799999999999999 27 C 13.71 25.950000000000003, 13.71 25.755000000000003, 13.620000000000001 24.900000000000002 C 13.530000000000001 24.240000000000002, 13.485000000000001 24.21, 13.440000000000001 23.580000000000002 C 13.440000000000001 22.98, 13.440000000000001 22.905, 13.440000000000001 22.38 C 13.440000000000001 21.93, 13.365000000000002 21.945, 13.440000000000001 21.48 C 13.59 21, 13.515 20.94, 13.74 20.52 C 14.04 20.159999999999997, 13.875 20.129999999999995, 14.34 19.799999999999997 C 14.97 19.5, 14.685000000000002 19.53, 15.600000000000001 19.200000000000003 C 16.8 18.840000000000003, 16.935000000000002 18.705000000000002, 18 18.48 C 18.93 18.39, 19.035 18.345, 19.86 18.299999999999997 C 20.58 18.299999999999997, 20.504999999999995 18.299999999999997, 21.299999999999997 18.299999999999997 C 22.169999999999998 18.299999999999997, 22.11 18.299999999999997, 23.04 18.299999999999997 C 24.03 18.299999999999997, 24.075 18.299999999999997, 25.02 18.299999999999997 C 25.92 18.299999999999997, 26.07 18.299999999999997, 26.82 18.299999999999997 C 27.42 18.299999999999997, 27.48 18.299999999999997, 28.02 18.299999999999997 C 28.5 18.299999999999997, 28.515 18.299999999999997, 28.98 18.299999999999997 C 29.43 18.299999999999997, 29.610000000000003 18.299999999999997, 29.880000000000003 18.299999999999997 C 29.97 18.299999999999997, 30.015 18.299999999999997, 30.06 18.299999999999997 C 30.06 18.299999999999997, 30.06 18.299999999999997, 30.06 18.299999999999997 L 30.06 18.299999999999997" fill="none" stroke="black" stroke-width="5"></path><path d="M 21.9 5.5200000000000005 C 20.52 6.21, 20.295 6.3, 19.14 6.8999999999999995 C 18.21 7.41, 18.18 7.35, 17.28 7.92 C 16.41 8.55, 16.365 8.61, 15.54 9.18 C 14.76 9.69, 14.655000000000001 9.735, 13.98 10.2 C 13.41 10.620000000000001, 13.125 10.83, 12.84 11.040000000000001 L 12.84 11.040000000000001" fill="none" stroke="black" stroke-width="5"></path><path d="M 29.400000000000002 6.540000000000001 C 29.04 6.99, 29.64 6.75, 28.68 7.4399999999999995 C 27.119999999999997 8.370000000000001, 26.939999999999998 8.445, 25.56 9.3 C 24.36 10.08, 24.285 10.14, 23.16 10.86 C 22.11 11.52, 21.75 11.745, 21.06 12.18 L 20.4 12.600000000000001" fill="none" stroke="black" stroke-width="5"></path><path d="M 20.46 18.18 C 20.16 18.84, 20.055 18.705, 19.86 19.5 C 19.77 20.43, 19.725 20.34, 19.68 21.36 C 19.68 22.47, 19.665 22.635, 19.68 23.580000000000002 C 19.71 24.36, 19.725 24.060000000000002, 19.740000000000002 25.14 C 19.740000000000002 26.520000000000003, 19.740000000000002 26.685000000000002, 19.740000000000002 27.900000000000002 C 19.740000000000002 28.950000000000003, 19.740000000000002 28.98, 19.740000000000002 30 C 19.740000000000002 30.990000000000002, 19.695000000000004 30.825000000000003, 19.740000000000002 31.98 C 19.83 33.3, 19.83 33.375, 19.919999999999998 34.62 C 20.009999999999998 35.79, 20.01 35.775, 20.1 36.96 C 20.19 38.16, 20.19 38.235, 20.28 39.36 C 20.37 40.41, 20.415 40.785, 20.46 41.46 C 20.46 41.760000000000005, 20.46 41.715, 20.46 42.06 C 20.46 42.45, 20.46 42.449999999999996, 20.46 42.839999999999996 C 20.46 43.23, 20.46 43.305, 20.46 43.62 C 20.46 43.86, 20.46 43.87499999999999, 20.46 44.099999999999994 C 20.46 44.309999999999995, 20.46 44.41499999999999, 20.46 44.519999999999996 C 20.46 44.519999999999996, 20.46 44.519999999999996, 20.46 44.519999999999996 L 20.46 44.519999999999996" fill="none" stroke="black" stroke-width="5"></path><path d="M 25.799999999999997 17.88 C 25.68 18.72, 25.695 18.525, 25.56 19.56 C 25.409999999999997 20.79, 25.38 20.549999999999997, 25.259999999999998 22.02 C 25.169999999999998 23.73, 25.125 23.955000000000002, 25.08 25.44 C 25.08 26.700000000000003, 25.049999999999997 26.535, 25.08 27.96 C 25.14 29.55, 25.020000000000003 29.37, 25.200000000000003 31.14 C 25.5 33.09, 25.529999999999998 33.435, 25.799999999999997 35.04 C 26.04 36.3, 26.115000000000002 36.57, 26.28 37.56 C 26.37 38.28, 26.385 38.19, 26.46 39 C 26.52 39.9, 26.505 40.004999999999995, 26.58 40.8 C 26.669999999999998 41.489999999999995, 26.669999999999998 41.535, 26.759999999999998 42.18 C 26.85 42.78, 26.895 42.885000000000005, 26.94 43.38 C 26.94 43.77, 26.94 43.935, 26.94 44.160000000000004 C 26.94 44.22, 26.94 44.25, 26.94 44.28 C 26.94 44.28, 26.94 44.235, 26.94 44.28 L 26.94 44.46" fill="none" stroke="black" stroke-width="5"></path></svg>