<svg width="48" height="48" viewBox="0 0 48 48" xmlns="http://www.w3.org/2000/svg"><path d="M 13.919999999999998 7.32 C 13.559999999999999 8.370000000000001, 13.77 7.89, 13.200000000000001 9.42 C 12.420000000000002 11.43, 12.15 11.790000000000001, 11.64 13.440000000000001 C 11.4 14.73, 11.475000000000001 14.370000000000001, 11.16 16.02 C 10.77 18.03, 10.68 18.33, 10.379999999999999 20.04 C 10.169999999999998 21.45, 10.154999999999998 21.33, 9.959999999999999 22.86 C 9.780000000000001 24.51, 9.690000000000001 24.735000000000003, 9.600000000000001 26.160000000000004 C 9.600000000000001 27.36, 9.540000000000003 27.63, 9.600000000000001 28.56 C 9.72 29.22, 9.525 29.130000000000003, 9.84 29.880000000000003 C 10.35 30.72, 10.424999999999999 31.064999999999998, 10.86 31.56 C 11.219999999999999 31.71, 11.175 31.695, 11.58 31.86 C 12.030000000000001 32.04, 12.015 32.055, 12.48 32.22 C 12.96 32.37, 13.05 32.385, 13.440000000000001 32.519999999999996 C 13.74 32.64, 13.62 32.699999999999996, 14.04 32.76 C 14.58 32.76, 14.535 32.76, 15.120000000000001 32.76 C 15.75 32.76, 15.75 32.864999999999995, 16.38 32.76 C 17.009999999999998 32.55, 17.130000000000003 32.625, 17.64 32.339999999999996 C 18.03 31.979999999999997, 18.075 32.055, 18.419999999999998 31.619999999999997 C 18.72 31.11, 18.735 31.29, 19.02 30.599999999999998 C 19.29 29.729999999999997, 19.38 29.564999999999998, 19.56 28.86 C 19.65 28.32, 19.695 28.05, 19.740000000000002 27.78 C 19.740000000000002 27.78, 19.740000000000002 27.78, 19.740000000000002 27.78 C 19.740000000000002 27.78, 19.740000000000002 27.645000000000003, 19.740000000000002 27.78 C 19.740000000000002 28.05, 19.740000000000002 27.87, 19.740000000000002 28.32 C 19.740000000000002 28.95, 19.680000000000003 28.95, 19.740000000000002 29.58 C 19.86 30.209999999999997, 19.845 30.374999999999996, 19.98 30.839999999999996 C 20.130000000000003 31.14, 19.995 31.11, 20.28 31.44 C 20.700000000000003 31.800000000000004, 20.685000000000002 31.92, 21.12 32.160000000000004 C 21.57 32.28, 21.48 32.29500000000001, 22.02 32.400000000000006 C 22.65 32.49, 22.8 32.504999999999995, 23.28 32.58 C 23.61 32.64, 23.490000000000002 32.52, 23.94 32.7 C 24.509999999999998 33, 24.48 32.849999999999994, 25.08 33.3 C 25.709999999999997 33.9, 25.814999999999998 33.84, 26.339999999999996 34.5 C 26.759999999999998 35.22, 26.909999999999997 35.28, 27.18 35.94 C 27.3 36.54, 27.36 36.405, 27.42 37.14 C 27.42 38.010000000000005, 27.795 37.95, 27.42 38.88 C 26.67 39.870000000000005, 26.655 40.125, 25.92 40.86 C 25.200000000000003 41.34, 25.35 41.46, 24.48 41.82 C 23.46 42.06, 23.325000000000003 42.135, 22.44 42.3 C 21.69 42.39, 21.6 42.465, 20.94 42.480000000000004 C 20.369999999999997 42.42, 20.294999999999998 42.51, 19.799999999999997 42.36 C 19.38 42.120000000000005, 19.17 42, 18.96 41.88 C 18.96 41.88, 18.96 41.88, 18.96 41.88 L 18.96 41.88" fill="none" stroke="black" stroke-width="5"></path><path d="M 23.700000000000003 32.160000000000004 C 24.090000000000003 32.160000000000004, 24.090000000000003 32.190000000000005, 24.48 32.160000000000004 C 24.869999999999997 32.1, 24.854999999999997 32.205, 25.259999999999998 32.04 C 25.68 31.77, 25.679999999999996 31.875, 26.099999999999998 31.5 C 26.52 31.02, 26.55 31.185, 26.94 30.54 C 27.300000000000004 29.73, 27.345000000000002 29.775000000000002, 27.660000000000004 28.92 C 27.930000000000003 28.02, 27.960000000000004 28.14, 28.200000000000003 27.119999999999997 C 28.41 25.979999999999997, 28.424999999999997 26.069999999999993, 28.619999999999997 24.839999999999996 C 28.799999999999997 23.52, 28.89 23.325000000000003, 28.98 22.200000000000003 C 28.98 21.270000000000003, 28.98 21.465, 28.98 20.34 C 28.98 19.020000000000003, 28.98 18.930000000000003, 28.98 17.700000000000003 C 28.98 16.560000000000002, 28.98 16.529999999999998, 28.98 15.419999999999998 C 28.98 14.34, 28.98 14.129999999999999, 28.98 13.26 C 28.98 12.6, 29.055 12.614999999999998, 28.98 11.94 C 28.83 11.25, 28.814999999999998 11.265, 28.68 10.56 C 28.560000000000002 9.84, 28.545 9.675, 28.44 9.120000000000001 C 28.35 8.73, 28.38 8.7, 28.259999999999998 8.34 C 28.11 8.01, 28.05 7.92, 27.96 7.68 C 27.93 7.529999999999999, 27.915000000000003 7.455, 27.900000000000002 7.38 C 27.900000000000002 7.38, 27.930000000000003 7.425, 27.900000000000002 7.38 C 27.840000000000003 7.289999999999999, 27.84 7.26, 27.78 7.199999999999999 C 27.720000000000002 7.17, 27.855000000000004 7.0649999999999995, 27.660000000000004 7.14 C 27.330000000000002 7.32, 27.255000000000003 7.335, 27 7.5 C 26.82 7.65, 26.865000000000002 7.5600000000000005, 26.64 7.800000000000001 C 26.369999999999997 8.129999999999999, 26.354999999999997 8.084999999999999, 26.099999999999998 8.459999999999999 C 25.86 8.879999999999999, 25.919999999999995 8.76, 25.619999999999997 9.3 C 25.259999999999998 9.96, 25.32 9.96, 24.900000000000002 10.620000000000001 C 24.42 11.280000000000001, 24.435000000000002 11.205, 23.94 11.94 C 23.43 12.75, 23.31 12.944999999999999, 22.919999999999998 13.559999999999999 C 22.65 13.979999999999999, 22.604999999999997 14.069999999999999, 22.38 14.399999999999999 C 22.2 14.639999999999999, 22.125 14.715, 22.02 14.879999999999999 L 21.96 15.059999999999999" fill="none" stroke="black" stroke-width="5"></path><path d="M 23.28 5.4 C 22.68 6, 22.635 6.0600000000000005, 22.080000000000002 6.6000000000000005 C 21.57 7.08, 21.72 6.885000000000001, 21.06 7.5600000000000005 C 20.25 8.43, 20.175 8.43, 19.44 9.3 C 18.78 10.170000000000002, 18.705000000000002 10.260000000000002, 18.12 11.040000000000001 C 17.61 11.73, 17.475 11.864999999999998, 17.1 12.419999999999998 C 16.86 12.84, 16.740000000000002 13.049999999999999, 16.62 13.26 L 16.62 13.26" fill="none" stroke="black" stroke-width="5"></path></svg>