<svg width="48" height="48" viewBox="0 0 48 48" xmlns="http://www.w3.org/2000/svg"><path d="M 18.18 44.160000000000004 C 16.95 44.43000000000001, 16.785 44.475, 15.72 44.7 C 14.82 44.88, 14.594999999999999 44.97, 13.919999999999998 45.06 C 13.469999999999999 45.06, 13.62 44.97, 13.02 45.06 C 12.27 45.24, 11.895 45.33, 11.52 45.42 C 11.52 45.42, 11.594999999999999 45.42, 11.52 45.42 C 11.370000000000001 45.42, 11.295 45.42, 11.22 45.42 C 11.22 45.42, 11.22 45.42, 11.22 45.42 C 11.22 45.42, 11.265 45.42, 11.22 45.42 C 11.13 45.42, 11.100000000000001 45.585, 11.040000000000001 45.42 C 11.010000000000002 45.09, 10.905000000000001 45.54, 10.98 44.76 C 11.16 43.53, 11.25 43.8, 11.34 42.3 C 11.34 40.53, 11.34 40.935, 11.34 38.76 C 11.34 36.17999999999999, 11.355 35.99999999999999, 11.34 33.599999999999994 C 11.309999999999999 31.38, 11.28 31.5, 11.28 29.160000000000004 C 11.309999999999999 26.700000000000003, 11.19 26.160000000000004, 11.34 24.240000000000002 C 11.61 22.86, 11.61 22.71, 11.879999999999999 21.48 C 12.149999999999999 20.4, 12.134999999999998 20.205, 12.419999999999998 19.32 C 12.719999999999999 18.630000000000003, 12.629999999999999 18.72, 13.02 17.94 C 13.5 17.07, 13.425 17.040000000000003, 13.98 16.200000000000003 C 14.61 15.390000000000002, 14.760000000000002 15.150000000000002, 15.24 14.580000000000002 C 15.57 14.25, 15.614999999999998 14.145, 15.899999999999999 13.919999999999998 C 16.14 13.799999999999999, 16.064999999999998 13.739999999999998, 16.38 13.68 C 16.77 13.68, 16.815 13.68, 17.16 13.68 C 17.46 13.68, 17.4 13.515, 17.759999999999998 13.68 C 18.18 14.01, 18.255000000000003 13.965, 18.6 14.34 C 18.87 14.76, 18.78 14.28, 19.14 15.18 C 19.59 16.560000000000002, 19.695 16.5, 20.04 17.94 C 20.28 19.44, 20.34 19.32, 20.52 20.94 C 20.64 22.68, 20.7 22.830000000000002, 20.759999999999998 24.42 C 20.759999999999998 25.86, 20.759999999999998 25.875, 20.759999999999998 27.299999999999997 C 20.759999999999998 28.709999999999997, 20.759999999999998 29.009999999999998, 20.759999999999998 30.119999999999997 C 20.759999999999998 30.93, 20.759999999999998 31.335, 20.759999999999998 31.740000000000002 C 20.759999999999998 31.740000000000002, 20.759999999999998 31.71, 20.759999999999998 31.740000000000002 C 20.759999999999998 31.8, 20.759999999999998 31.83, 20.759999999999998 31.86 C 20.759999999999998 31.86, 20.685 31.905, 20.759999999999998 31.86 C 20.909999999999997 31.77, 20.654999999999998 31.89, 21.06 31.68 C 21.72 31.35, 21.81 31.23, 22.38 31.02 C 22.86 30.93, 22.83 30.884999999999998, 23.34 30.839999999999996 C 23.880000000000003 30.839999999999996, 23.685000000000002 30.839999999999996, 24.42 30.839999999999996 C 25.35 30.839999999999996, 25.575000000000003 30.839999999999996, 26.28 30.839999999999996 C 26.76 30.839999999999996, 26.76 30.734999999999996, 27.240000000000002 30.839999999999996 C 27.720000000000002 31.049999999999997, 27.720000000000002 30.915, 28.200000000000003 31.259999999999998 C 28.680000000000003 31.74, 28.800000000000004 31.665, 29.160000000000004 32.22 C 29.400000000000002 32.85, 29.43 32.85, 29.64 33.480000000000004 C 29.82 34.11, 29.91 33.84, 30 34.74 C 30 35.91, 30 36.06, 30 37.08 C 30 37.95, 30 37.935, 30 38.82 C 30 39.72, 30 39.93, 30 40.62 C 30 41.099999999999994, 30.015 41.144999999999996, 30 41.58 C 29.97 41.97, 29.985 41.97, 29.94 42.36 C 29.880000000000003 42.75, 29.895 42.735, 29.82 43.14 C 29.73 43.56, 29.700000000000003 43.725, 29.64 43.980000000000004 C 29.61 44.07000000000001, 29.729999999999997 44.115, 29.58 44.160000000000004 L 29.04 44.160000000000004" fill="none" stroke="black" stroke-width="5"></path><path d="M 28.68 13.620000000000001 C 28.5 14.100000000000001, 28.560000000000002 14.055000000000001, 28.32 14.580000000000002 C 28.02 15.150000000000002, 28.08 15.120000000000001, 27.72 15.72 C 27.3 16.35, 27.495000000000005 16.2, 26.880000000000003 16.98 C 26.07 17.91, 26.084999999999997 17.97, 25.259999999999998 18.84 C 24.42 19.65, 24.165000000000003 19.905, 23.580000000000002 20.46 C 23.25 20.759999999999998, 23.205 20.82, 22.919999999999998 21.06 C 22.68 21.24, 22.725 21.255, 22.44 21.419999999999998 C 22.11 21.57, 22.035000000000004 21.63, 21.78 21.72 C 21.6 21.75, 21.584999999999997 21.765, 21.419999999999998 21.78 C 21.27 21.78, 21.225 21.78, 21.12 21.78 C 21.060000000000002 21.78, 21.03 21.78, 21 21.78 L 21 21.78" fill="none" stroke="black" stroke-width="5"></path><path d="M 33.3 17.4 C 33.3 18, 33.644999999999996 17.67, 33.3 18.6 C 32.61 19.86, 32.505 20.175, 31.92 21.12 C 31.44 21.75, 31.725 21.615, 30.96 22.38 C 29.91 23.28, 30 23.31, 28.86 24.18 C 27.630000000000003 25.02, 27.330000000000002 25.244999999999997, 26.400000000000002 25.86 C 25.770000000000003 26.25, 25.455000000000002 26.445, 25.14 26.64 C 25.14 26.64, 25.215000000000003 26.58, 25.14 26.64 L 24.839999999999996 26.880000000000003" fill="none" stroke="black" stroke-width="5"></path></svg>