<svg width="48" height="48" viewBox="0 0 48 48" xmlns="http://www.w3.org/2000/svg"><path d="M 17.52 3.9000000000000004 C 17.22 5.28, 17.43 4.755000000000001, 16.919999999999998 6.66 C 16.2 9.09, 16.23 9.075, 15.48 11.52 C 14.7 13.98, 14.729999999999999 14.07, 13.919999999999998 16.44 C 13.079999999999998 18.72, 12.885 18.884999999999998, 12.24 21 C 11.79 22.950000000000003, 11.61 23.325000000000003, 11.34 24.900000000000002 C 11.25 26.1, 11.025 26.25, 11.16 27.299999999999997 C 11.52 28.199999999999996, 11.504999999999999 28.665, 11.879999999999999 29.099999999999998 C 12.27 29.07, 11.985 29.264999999999997, 12.66 29.04 C 13.620000000000001 28.62, 13.095000000000002 29.310000000000002, 14.580000000000002 28.200000000000003 C 16.590000000000003 26.4, 17.220000000000002 25.919999999999998, 18.6 24.599999999999998 C 19.35 23.759999999999998, 19.485000000000003 23.88, 20.1 22.919999999999998 C 20.58 21.839999999999996, 20.744999999999997 21.449999999999996, 21.06 20.759999999999998 C 21.21 20.46, 21.24 20.28, 21.36 20.16 C 21.45 20.22, 21.585 19.515, 21.54 20.28 C 21.36 21.75, 21.3 21.96, 21.18 23.22 C 21.119999999999997 24.27, 20.909999999999997 24.465, 21.06 25.32 C 21.42 25.98, 21.39 26.1, 21.78 26.64 C 22.200000000000003 27.060000000000002, 22.17 27.12, 22.62 27.48 C 23.1 27.78, 23.07 27.93, 23.580000000000002 28.08 C 24.120000000000005 28.08, 23.940000000000005 28.14, 24.660000000000004 28.08 C 25.560000000000002 27.959999999999997, 25.590000000000003 28.019999999999996, 26.46 27.839999999999996 C 27.3 27.599999999999998, 27.525 27.479999999999997, 28.14 27.36 C 28.53 27.36, 28.605 27.314999999999998, 28.92 27.36 C 29.160000000000004 27.45, 29.07 27.21, 29.400000000000002 27.54 C 29.82 28.11, 30.060000000000002 27.78, 30.240000000000002 28.68 C 30.18 29.91, 30.33 30, 30.119999999999997 31.14 C 29.759999999999998 32.19, 29.76 32.28, 29.400000000000002 33.24 C 29.04 34.11, 29.19 34.080000000000005, 28.68 34.980000000000004 C 28.02 35.91, 28.035 36.03, 27.36 36.839999999999996 C 26.67 37.53, 26.759999999999998 37.65, 25.98 38.22 C 25.11 38.67, 25.020000000000003 38.849999999999994, 24.240000000000002 39.12 C 23.55 39.209999999999994, 23.7 39.224999999999994, 22.86 39.3 C 21.869999999999997 39.36, 21.645 39.39, 20.88 39.42 C 20.339999999999996 39.42, 20.354999999999997 39.495000000000005, 19.799999999999997 39.42 C 19.229999999999997 39.269999999999996, 19.29 39.434999999999995, 18.66 39.12 C 17.97 38.64, 17.835 38.64, 17.28 38.160000000000004 C 16.86 37.68000000000001, 16.815 37.95, 16.44 37.2 C 16.11 36.18000000000001, 15.975 35.85000000000001, 15.78 35.160000000000004 C 15.719999999999999 34.8, 15.705 34.65, 15.66 34.44 C 15.63 34.379999999999995, 15.615000000000002 34.605000000000004, 15.600000000000001 34.32 C 15.600000000000001 33.81, 15.600000000000001 33.555, 15.600000000000001 33.3 L 15.600000000000001 33.3" fill="none" stroke="black" stroke-width="5"></path><path d="M 25.98 3.3600000000000003 C 25.77 4.2, 26.055 3.975, 25.56 5.04 C 24.78 6.33, 24.825 6.495, 24 7.62 C 23.13 8.58, 23.324999999999996 8.520000000000001, 22.259999999999998 9.540000000000001 C 21 10.620000000000001, 20.805 10.875, 19.740000000000002 11.7 C 18.87 12.27, 18.6 12.48, 18 12.84 C 17.67 12.99, 17.58 13.035, 17.34 13.14 C 17.189999999999998 13.2, 17.22 13.184999999999999, 17.04 13.26 C 16.83 13.350000000000001, 16.95 13.395000000000001, 16.62 13.440000000000001 C 16.17 13.440000000000001, 16.020000000000003 13.410000000000002, 15.72 13.440000000000001 C 15.57 13.5, 15.584999999999999 13.485, 15.419999999999998 13.559999999999999 C 15.239999999999998 13.649999999999999, 15.149999999999999 13.695, 15.059999999999999 13.74 C 15.059999999999999 13.74, 15.014999999999999 13.74, 15.059999999999999 13.74 L 15.24 13.74" fill="none" stroke="black" stroke-width="5"></path><path d="M 33 4.68 C 32.7 5.37, 32.940000000000005 4.995000000000001, 32.400000000000006 6.0600000000000005 C 31.62 7.5, 31.724999999999998 7.4399999999999995, 30.839999999999996 8.94 C 29.849999999999998 10.5, 30.06 10.679999999999998, 28.86 12.059999999999999 C 27.45 13.26, 27.225 13.56, 26.04 14.46 C 25.08 15.06, 24.644999999999996 15.33, 24.119999999999997 15.66 C 24.03 15.719999999999999, 23.985 15.75, 23.94 15.78 L 23.94 15.78" fill="none" stroke="black" stroke-width="5"></path></svg>