<svg width="48" height="48" viewBox="0 0 48 48" xmlns="http://www.w3.org/2000/svg"><path d="M 16.02 39.480000000000004 C 16.02 39.480000000000004, 15.989999999999998 39.690000000000005, 16.02 39.480000000000004 C 16.08 39.06, 16.365000000000002 39.93, 16.14 38.64 C 15.63 36.480000000000004, 15.585 36.345, 15.120000000000001 34.32 C 14.7 32.43, 14.58 32.025, 14.28 30.54 C 14.099999999999998 29.46, 14.069999999999999 29.310000000000002, 13.919999999999998 28.380000000000003 C 13.799999999999999 27.6, 13.754999999999999 27.57, 13.68 26.82 C 13.65 26.1, 13.665000000000001 26.070000000000004, 13.620000000000001 25.380000000000003 C 13.56 24.72, 13.530000000000001 24.705, 13.5 24.06 C 13.5 23.43, 13.455 23.429999999999996, 13.5 22.799999999999997 C 13.59 22.169999999999998, 13.53 22.14, 13.68 21.54 C 13.89 20.97, 13.89 20.895, 14.100000000000001 20.4 C 14.31 19.979999999999997, 14.205 19.875, 14.52 19.56 C 14.94 19.35, 14.73 19.35, 15.36 19.14 C 16.2 18.93, 15.87 18.945, 17.04 18.72 C 18.54 18.48, 18.645 18.36, 20.04 18.240000000000002 C 21.33 18.240000000000002, 21.54 18.240000000000002, 22.62 18.240000000000002 C 23.490000000000002 18.240000000000002, 23.595 18.240000000000002, 24.36 18.240000000000002 C 25.02 18.240000000000002, 25.095 18.105000000000004, 25.68 18.240000000000002 C 26.19 18.51, 26.325000000000003 18.525000000000002, 26.700000000000003 18.78 C 26.94 19.02, 26.895000000000003 19.005, 27.18 19.259999999999998 C 27.509999999999998 19.529999999999998, 27.584999999999994 19.544999999999995, 27.839999999999996 19.799999999999997 C 28.02 20.04, 27.96 19.740000000000002, 28.200000000000003 20.28 C 28.5 21.12, 28.65 20.955000000000002, 28.799999999999997 21.96 C 28.799999999999997 23.13, 28.799999999999997 23.144999999999996, 28.799999999999997 24.299999999999997 C 28.799999999999997 25.439999999999998, 28.874999999999996 25.5, 28.799999999999997 26.58 C 28.65 27.599999999999998, 28.875 27.209999999999997, 28.5 28.619999999999997 C 27.9 30.419999999999998, 27.749999999999996 30.824999999999996, 27.299999999999997 32.22 C 27 33.21, 27.015 33.195, 26.700000000000003 34.2 C 26.37 35.22, 26.325 35.445, 26.04 36.24 C 25.799999999999997 36.81, 25.814999999999998 36.72, 25.56 37.38 C 25.29 38.13, 25.2 38.415000000000006, 25.02 38.88 C 24.93 39.06, 24.884999999999998 39.150000000000006, 24.839999999999996 39.24 C 24.839999999999996 39.24, 24.839999999999996 39.24, 24.839999999999996 39.24 L 24.839999999999996 39.24" fill="none" stroke="black" stroke-width="5"></path><path d="M 13.02 39.839999999999996 C 13.709999999999999 39.839999999999996, 13.184999999999999 39.88499999999999, 14.399999999999999 39.839999999999996 C 16.14 39.75, 16.5 39.765, 17.88 39.660000000000004 C 18.9 39.540000000000006, 18.689999999999998 39.480000000000004, 19.919999999999998 39.42 C 21.36 39.42, 21.164999999999996 39.42, 22.799999999999997 39.42 C 24.63 39.42, 25.05 39.42, 26.46 39.42 C 27.450000000000003 39.42, 27.795 39.405, 28.44 39.42 C 28.740000000000002 39.45, 28.89 39.465, 29.04 39.480000000000004 L 29.04 39.480000000000004" fill="none" stroke="black" stroke-width="5"></path><path d="M 12.419999999999998 44.46 C 13.2 44.46, 13.08 44.46, 13.98 44.46 C 15 44.46, 15.105 44.415, 16.02 44.46 C 16.83 44.55, 16.425 44.595, 17.64 44.64 C 19.259999999999998 44.64, 19.65 44.64, 20.88 44.64 C 21.72 44.64, 21.689999999999998 44.64, 22.56 44.64 C 23.46 44.64, 23.415 44.64, 24.36 44.64 C 25.349999999999998 44.64, 25.439999999999998 44.64, 26.339999999999996 44.64 C 27.15 44.64, 27.42 44.64, 27.96 44.64 C 28.23 44.64, 28.365000000000002 44.64, 28.5 44.64 L 28.5 44.64" fill="none" stroke="black" stroke-width="5"></path><path d="M 22.44 4.68 C 22.14 4.89, 22.695 4.5, 21.84 5.1 C 20.43 6.09, 20.16 6.24, 19.02 7.08 C 18.15 7.77, 18.105 7.859999999999999, 17.28 8.459999999999999 C 16.5 8.969999999999999, 16.41 9.030000000000001, 15.72 9.48 C 15.120000000000001 9.870000000000001, 14.985 9.885, 14.52 10.26 L 13.86 10.98" fill="none" stroke="black" stroke-width="5"></path><path d="M 29.759999999999998 6.12 C 29.52 6.6, 29.865000000000002 6.48, 29.28 7.08 C 28.35 7.8, 28.290000000000003 7.889999999999999, 27.42 8.52 C 26.61 9.06, 26.61 9.030000000000001, 25.799999999999997 9.600000000000001 C 24.99 10.200000000000001, 24.96 10.215000000000002, 24.18 10.8 C 23.43 11.370000000000001, 23.189999999999998 11.55, 22.68 11.94 L 22.14 12.36" fill="none" stroke="black" stroke-width="5"></path></svg>