<svg width="48" height="48" viewBox="0 0 48 48" xmlns="http://www.w3.org/2000/svg"><path d="M 14.16 5.1 C 14.34 5.22, 14.43 4.71, 14.52 5.34 C 14.52 6.48, 14.52 6.165, 14.52 7.62 C 14.52 9.39, 14.52 9.555, 14.52 11.16 C 14.52 12.6, 14.52 12.75, 14.52 14.04 C 14.52 15.18, 14.52 15.045, 14.52 16.32 C 14.52 17.73, 14.52 17.985, 14.52 19.14 C 14.52 20.04, 14.445 20.25, 14.52 20.94 C 14.67 21.42, 14.58 21.509999999999998, 14.82 21.9 C 15.15 22.2, 14.985000000000001 22.2, 15.48 22.5 C 16.14 22.8, 16.139999999999997 22.935000000000002, 16.799999999999997 23.1 C 17.46 23.130000000000003, 17.145 23.145, 18.12 23.16 C 19.410000000000004 23.16, 19.320000000000004 23.16, 20.700000000000003 23.16 C 22.17 23.16, 22.47 23.16, 23.64 23.16 C 24.51 23.16, 24.585 23.16, 25.380000000000003 23.16 C 26.1 23.16, 26.16 23.16, 26.82 23.16 C 27.42 23.16, 27.525 23.16, 28.02 23.16 C 28.409999999999997 23.16, 28.455 23.16, 28.799999999999997 23.16 C 29.1 23.16, 28.995 23.22, 29.400000000000002 23.16 C 29.910000000000004 23.04, 29.955000000000002 23.13, 30.42 22.919999999999998 C 30.84 22.619999999999997, 30.915 22.59, 31.259999999999998 22.32 C 31.529999999999998 22.08, 31.544999999999995 22.05, 31.799999999999997 21.84 C 32.04 21.66, 32.01 21.855, 32.28 21.48 C 32.58 20.91, 32.61 21.21, 32.88 20.34 C 33.120000000000005 19.17, 33.09 19.65, 33.36 18 C 33.66 15.870000000000001, 33.75 15.735, 33.96 13.74 C 34.08 11.879999999999999, 34.14 11.445, 34.2 10.02 C 34.2 9.030000000000001, 34.2 8.850000000000001, 34.2 8.040000000000001 C 34.2 7.41, 34.215 7.289999999999999, 34.2 6.779999999999999 C 34.17 6.39, 34.230000000000004 6.359999999999999, 34.14 6 C 33.989999999999995 5.67, 33.92999999999999 5.535, 33.839999999999996 5.34 C 33.81 5.279999999999999, 33.87 5.34, 33.78 5.22 C 33.63 5.04, 33.63 4.965, 33.480000000000004 4.86 C 33.33 4.83, 33.3 4.815, 33.18 4.800000000000001 C 33.09 4.800000000000001, 33.075 4.800000000000001, 33 4.800000000000001 C 32.94 4.800000000000001, 32.97 4.755000000000001, 32.88 4.800000000000001 C 32.760000000000005 4.890000000000001, 32.79 4.77, 32.64 4.9799999999999995 C 32.46 5.31, 32.49 5.31, 32.28 5.64 C 32.04 5.970000000000001, 32.06999999999999 5.8950000000000005, 31.799999999999997 6.300000000000001 C 31.5 6.78, 31.53 6.795, 31.200000000000003 7.26 C 30.840000000000003 7.71, 31.11 7.5600000000000005, 30.48 8.16 C 29.58 8.91, 29.34 8.91, 28.68 9.66 C 28.259999999999998 10.41, 28.229999999999997 10.530000000000001, 27.839999999999996 11.16 C 27.479999999999997 11.67, 27.359999999999996 11.805, 27.119999999999997 12.18 C 27 12.42, 26.94 12.54, 26.880000000000003 12.66 C 26.880000000000003 12.66, 26.970000000000002 12.495000000000001, 26.880000000000003 12.66 C 26.700000000000003 12.99, 26.625 13.11, 26.52 13.32 C 26.490000000000002 13.41, 26.535 13.395, 26.46 13.5 L 26.22 13.74" fill="none" stroke="black" stroke-width="5"></path><path d="M 28.44 3.12 C 28.08 3.3, 28.259999999999998 3.0749999999999993, 27.72 3.4799999999999995 C 27 4.109999999999999, 27.045 3.96, 26.28 4.74 C 25.470000000000002 5.67, 25.290000000000006 5.865, 24.660000000000004 6.6000000000000005 C 24.21 7.140000000000001, 24.255 7.02, 23.759999999999998 7.68 C 23.22 8.46, 23.07 8.61, 22.68 9.24 C 22.44 9.719999999999999, 22.32 9.959999999999999, 22.200000000000003 10.2 L 22.200000000000003 10.2" fill="none" stroke="black" stroke-width="5"></path><path d="M 22.799999999999997 22.919999999999998 C 22.799999999999997 23.46, 22.754999999999995 23.384999999999998, 22.799999999999997 24 C 22.89 24.69, 22.68 24.78, 22.98 25.380000000000003 C 23.490000000000002 25.89, 23.445 25.860000000000003, 24 26.400000000000002 C 24.6 26.97, 24.615000000000002 27.09, 25.200000000000003 27.54 C 25.77 27.87, 25.769999999999996 27.900000000000002, 26.339999999999996 28.200000000000003 C 26.909999999999997 28.470000000000002, 26.805 28.455000000000005, 27.48 28.740000000000002 C 28.259999999999998 29.04, 28.41 29.084999999999997, 29.04 29.339999999999996 C 29.52 29.549999999999997, 29.475 29.534999999999997, 30 29.759999999999998 C 30.57 30, 30.645 29.970000000000002, 31.14 30.240000000000002 C 31.560000000000002 30.54, 31.62 30.569999999999997, 31.98 30.839999999999996 C 32.28 31.08, 32.355 31.08, 32.58 31.32 C 32.730000000000004 31.56, 32.805 31.485, 32.88 31.799999999999997 C 32.88 32.19, 32.955000000000005 32.175, 32.88 32.58 C 32.730000000000004 33, 32.864999999999995 33.06, 32.58 33.42 C 32.16 33.72, 32.115 33.794999999999995, 31.740000000000002 34.019999999999996 C 31.41 34.17, 31.604999999999997 34.14, 31.08 34.32 C 30.36 34.53, 30.314999999999998 34.59, 29.64 34.74 C 29.01 34.83, 29.085 34.77, 28.380000000000003 34.92 C 27.6 35.129999999999995, 27.57 35.129999999999995, 26.82 35.339999999999996 C 26.1 35.55, 26.055000000000003 35.55, 25.380000000000003 35.76 C 24.75 35.97, 24.794999999999998 35.91, 24.119999999999997 36.18 C 23.4 36.51, 23.415 36.48, 22.68 36.839999999999996 C 21.93 37.23, 21.884999999999998 37.14, 21.18 37.62 C 20.52 38.19, 20.384999999999998 38.22, 19.86 38.76 C 19.47 39.269999999999996, 19.380000000000003 39.285, 19.080000000000002 39.78 C 18.87 40.260000000000005, 18.825000000000003 40.155, 18.66 40.74 C 18.54 41.43, 18.509999999999998 41.58, 18.419999999999998 42.12 C 18.36 42.510000000000005, 18.374999999999996 42.540000000000006, 18.299999999999997 42.900000000000006 C 18.21 43.230000000000004, 18.21 43.275000000000006, 18.12 43.56 C 18.03 43.8, 18 43.875, 17.94 44.04 C 17.91 44.129999999999995, 17.895 44.175, 17.88 44.22 L 17.88 44.22" fill="none" stroke="black" stroke-width="5"></path></svg>