<svg width="48" height="48" viewBox="0 0 48 48" xmlns="http://www.w3.org/2000/svg"><path d="M 10.98 5.88 C 11.010000000000002 6.8100000000000005, 10.950000000000001 6.6450000000000005, 11.040000000000001 7.74 C 11.190000000000001 9, 11.22 8.924999999999999, 11.34 10.26 C 11.43 11.670000000000002, 11.34 11.685000000000002, 11.52 13.080000000000002 C 11.79 14.46, 11.879999999999999 14.4, 12.059999999999999 15.84 C 12.149999999999999 17.34, 12.105 17.16, 12.24 18.84 C 12.420000000000002 20.7, 12.435000000000002 20.459999999999997, 12.600000000000001 22.56 C 12.75 24.9, 12.825 25.275000000000002, 12.899999999999999 27.240000000000002 C 12.899999999999999 28.830000000000002, 12.899999999999999 29.055, 12.899999999999999 30.42 C 12.899999999999999 31.560000000000002, 12.899999999999999 31.290000000000003, 12.899999999999999 32.7 C 12.899999999999999 34.38, 12.899999999999999 34.725, 12.899999999999999 36.06 C 12.899999999999999 37.05, 12.899999999999999 37.14, 12.899999999999999 38.04 C 12.899999999999999 38.85, 12.899999999999999 38.940000000000005, 12.899999999999999 39.660000000000004 C 12.899999999999999 40.290000000000006, 12.899999999999999 40.410000000000004, 12.899999999999999 40.92 C 12.899999999999999 41.31, 12.899999999999999 41.385000000000005, 12.899999999999999 41.7 C 12.899999999999999 41.94, 12.899999999999999 41.985, 12.899999999999999 42.18 C 12.899999999999999 42.33, 12.899999999999999 42.405, 12.899999999999999 42.480000000000004 C 12.899999999999999 42.480000000000004, 12.899999999999999 42.480000000000004, 12.899999999999999 42.480000000000004 C 12.899999999999999 42.480000000000004, 12.899999999999999 42.480000000000004, 12.899999999999999 42.480000000000004 C 12.899999999999999 42.480000000000004, 12.899999999999999 42.45, 12.899999999999999 42.480000000000004 L 12.899999999999999 42.599999999999994" fill="none" stroke="black" stroke-width="5"></path><path d="M 12.899999999999999 34.56 C 13.349999999999998 34.56, 13.11 34.650000000000006, 13.799999999999999 34.56 C 14.73 34.38, 14.655 34.33500000000001, 15.66 34.2 C 16.740000000000002 34.11, 16.875 34.095, 17.82 34.019999999999996 C 18.630000000000003 33.96, 18.39 33.94500000000001, 19.44 33.900000000000006 C 20.73 33.870000000000005, 20.685 33.9, 22.02 33.839999999999996 C 23.4 33.75, 23.61 33.75, 24.78 33.660000000000004 C 25.740000000000002 33.57000000000001, 25.995000000000005 33.525000000000006, 26.700000000000003 33.480000000000004 C 27.15 33.480000000000004, 27.134999999999998 33.480000000000004, 27.599999999999998 33.480000000000004 C 28.08 33.480000000000004, 28.125 33.480000000000004, 28.56 33.480000000000004 C 28.949999999999996 33.480000000000004, 29.144999999999996 33.480000000000004, 29.339999999999996 33.480000000000004 C 29.339999999999996 33.480000000000004, 29.339999999999996 33.480000000000004, 29.339999999999996 33.480000000000004 L 29.339999999999996 33.480000000000004" fill="none" stroke="black" stroke-width="5"></path><path d="M 18.78 6.18 C 18.78 7.4399999999999995, 18.825000000000003 7.589999999999999, 18.78 8.7 C 18.69 9.66, 18.75 9.585, 18.6 10.620000000000001 C 18.39 11.73, 18.465 11.79, 18.18 12.84 C 17.82 13.83, 17.79 14.01, 17.46 14.82 C 17.16 15.450000000000001, 17.265 15.360000000000001, 16.86 16.080000000000002 C 16.35 16.89, 16.35 16.92, 15.84 17.700000000000003 C 15.33 18.450000000000003, 15.24 18.615000000000002, 14.82 19.200000000000003 C 14.49 19.62, 14.535 19.605, 14.16 20.04 C 13.74 20.490000000000002, 13.56 20.685000000000002, 13.32 20.94 C 13.260000000000002 21, 13.23 21.03, 13.200000000000001 21.06 C 13.200000000000001 21.06, 13.200000000000001 21.06, 13.200000000000001 21.06 C 13.200000000000001 21.06, 13.200000000000001 21.06, 13.200000000000001 21.06 L 13.200000000000001 21.06" fill="none" stroke="black" stroke-width="5"></path><path d="M 25.740000000000002 10.8 C 25.68 11.280000000000001, 25.86 10.815, 25.619999999999997 11.76 C 25.2 13.170000000000002, 25.275 13.170000000000002, 24.78 14.580000000000002 C 24.21 15.99, 24.075000000000003 16.32, 23.64 17.4 C 23.34 18.15, 23.43 18.089999999999996, 23.04 18.9 C 22.560000000000002 19.77, 22.485000000000003 19.995, 22.080000000000002 20.64 C 21.75 21.060000000000002, 21.84 20.955, 21.419999999999998 21.48 C 20.909999999999997 22.11, 20.654999999999998 22.425, 20.4 22.740000000000002 L 20.4 22.740000000000002" fill="none" stroke="black" stroke-width="5"></path></svg>