<svg width="48" height="48" viewBox="0 0 48 48" xmlns="http://www.w3.org/2000/svg"><path d="M 14.580000000000002 5.28 C 14.370000000000001 6.869999999999999, 14.31 6.584999999999999, 14.16 8.459999999999999 C 14.07 10.62, 14.025 10.95, 13.98 12.78 C 13.98 14.28, 13.95 13.92, 13.98 15.78 C 14.040000000000001 18, 13.830000000000002 18.24, 14.100000000000001 20.22 C 14.58 21.96, 14.639999999999999 22.455000000000002, 15.059999999999999 23.700000000000003 C 15.419999999999998 24.450000000000003, 15.375 24.600000000000005, 15.78 25.200000000000003 C 16.23 25.65, 16.125 25.77, 16.68 26.099999999999998 C 17.34 26.31, 17.475 26.384999999999998, 18 26.52 C 18.39 26.58, 18.48 26.61, 18.78 26.64 C 18.990000000000002 26.64, 18.945000000000004 26.775000000000002, 19.200000000000003 26.64 C 19.5 26.369999999999997, 19.529999999999998 26.519999999999996, 19.799999999999997 26.099999999999998 C 20.04 25.53, 20.055 25.59, 20.28 24.96 C 20.490000000000002 24.270000000000003, 20.520000000000003 24.270000000000003, 20.700000000000003 23.580000000000002 C 20.85 22.89, 20.865000000000002 22.830000000000005, 21 22.200000000000003 C 21.12 21.630000000000003, 21.18 21.345, 21.240000000000002 21.06 C 21.240000000000002 21.06, 21.240000000000002 21.06, 21.240000000000002 21.06 C 21.240000000000002 21.06, 21.090000000000003 21.134999999999998, 21.240000000000002 21.06 C 21.54 20.909999999999997, 21.615000000000002 20.79, 21.84 20.759999999999998 C 21.990000000000002 20.85, 21.975 20.685000000000002, 22.14 20.94 C 22.32 21.36, 22.38 21.270000000000003, 22.5 21.78 C 22.560000000000002 22.380000000000003, 22.545 22.395000000000003, 22.62 22.98 C 22.71 23.549999999999997, 22.619999999999997 23.474999999999998, 22.799999999999997 24.119999999999997 C 23.07 24.839999999999996, 23.085 25.034999999999997, 23.34 25.56 C 23.58 25.89, 23.52 25.889999999999997, 23.82 26.22 C 24.18 26.55, 24.15 26.655, 24.54 26.880000000000003 C 24.96 27, 24.930000000000003 27.06, 25.380000000000003 27.119999999999997 C 25.86 27.119999999999997, 25.979999999999997 27.209999999999997, 26.339999999999996 27.119999999999997 C 26.58 26.939999999999998, 26.595 27.014999999999997, 26.82 26.759999999999998 C 27.03 26.43, 26.94 26.549999999999997, 27.240000000000002 26.099999999999998 C 27.630000000000003 25.53, 27.72 25.56, 28.02 24.96 C 28.23 24.330000000000002, 28.26 24.255000000000003, 28.44 23.700000000000003 C 28.590000000000003 23.220000000000002, 28.5 23.685000000000002, 28.740000000000002 22.740000000000002 C 29.07 21.33, 29.130000000000003 21.39, 29.400000000000002 19.919999999999998 C 29.61 18.39, 29.67 18.165, 29.82 16.86 C 29.91 15.780000000000001, 29.955 15.780000000000001, 30 14.700000000000001 C 30 13.620000000000001, 30 13.485, 30 12.54 C 30 11.73, 30 11.594999999999999, 30 10.92 C 30 10.379999999999999, 30 10.335, 30 9.84 C 30 9.39, 30 9.36, 30 8.94 C 30 8.55, 30.045 8.475, 30 8.16 C 29.91 7.92, 29.880000000000003 7.949999999999999, 29.82 7.68 C 29.79 7.38, 29.79 7.395, 29.759999999999998 7.08 C 29.73 6.75, 29.715000000000003 6.615, 29.700000000000003 6.42 C 29.700000000000003 6.36, 29.700000000000003 6.33, 29.700000000000003 6.300000000000001 C 29.700000000000003 6.300000000000001, 29.730000000000004 6.345000000000001, 29.700000000000003 6.300000000000001 C 29.64 6.210000000000001, 29.625 6.18, 29.58 6.12 C 29.549999999999997 6.09, 29.535 6.075, 29.52 6.0600000000000005 C 29.52 6.0600000000000005, 29.625 6.0600000000000005, 29.52 6.0600000000000005 C 29.31 6.0600000000000005, 29.294999999999998 6.015000000000001, 29.099999999999998 6.0600000000000005 C 28.92 6.15, 28.89 6.105, 28.740000000000002 6.24 C 28.62 6.42, 28.665 6.345000000000001, 28.5 6.6000000000000005 C 28.29 6.93, 28.275 6.93, 28.08 7.26 C 27.9 7.59, 27.974999999999998 7.47, 27.72 7.92 C 27.39 8.49, 27.479999999999997 8.445, 27.06 9.06 C 26.549999999999997 9.719999999999999, 26.52 9.674999999999999, 26.04 10.379999999999999 C 25.59 11.129999999999999, 25.47 11.384999999999998, 25.14 11.879999999999999 C 24.93 12.12, 24.9 12.105, 24.72 12.36 C 24.57 12.629999999999999, 24.630000000000003 12.569999999999999, 24.42 12.899999999999999 C 24.15 13.29, 24.06 13.44, 23.88 13.68 C 23.79 13.77, 23.745 13.815, 23.700000000000003 13.86 L 23.700000000000003 13.86" fill="none" stroke="black" stroke-width="5"></path><path d="M 24.240000000000002 4.74 C 24.240000000000002 4.74, 24.285000000000004 4.575, 24.240000000000002 4.74 C 24.15 5.07, 24.21 4.995, 24.06 5.4 C 23.85 5.880000000000001, 23.91 5.790000000000001, 23.64 6.36 C 23.310000000000002 7.02, 23.25 7.14, 22.98 7.68 C 22.77 8.1, 22.83 7.994999999999999, 22.56 8.52 C 22.229999999999997 9.149999999999999, 22.32 9.12, 21.9 9.78 C 21.39 10.469999999999999, 21.405 10.485, 20.88 11.16 C 20.339999999999996 11.82, 20.099999999999998 12.105, 19.799999999999997 12.48 C 19.74 12.57, 19.71 12.615, 19.68 12.66 L 19.68 12.66" fill="none" stroke="black" stroke-width="5"></path><path d="M 22.02 23.759999999999998 C 22.02 24.21, 22.02 24.045, 22.02 24.660000000000004 C 22.02 25.44, 22.02 25.23, 22.02 26.22 C 22.02 27.419999999999998, 22.035 27.374999999999996, 22.02 28.619999999999997 C 21.990000000000002 29.91, 22.02 29.865000000000002, 21.96 31.200000000000003 C 21.87 32.58, 21.825000000000003 32.745000000000005, 21.78 33.96 C 21.78 35.010000000000005, 21.78 35.040000000000006, 21.78 36.06 C 21.78 37.05, 21.825000000000003 37.004999999999995, 21.78 38.04 C 21.69 39.120000000000005, 21.645000000000003 39.285000000000004, 21.6 40.2 C 21.6 40.95, 21.6 41.025000000000006, 21.6 41.7 C 21.6 42.300000000000004, 21.6 42.480000000000004, 21.6 42.900000000000006 C 21.6 43.14, 21.525000000000002 43.065000000000005, 21.6 43.38 C 21.75 43.77, 21.689999999999998 43.800000000000004, 21.9 44.160000000000004 C 22.17 44.49, 22.185000000000002 44.595, 22.44 44.82 C 22.68 44.94, 22.724999999999998 45, 22.919999999999998 45.06 C 23.07 45.06, 23.099999999999998 45.105000000000004, 23.22 45.06 C 23.31 44.97, 23.235 45.165000000000006, 23.4 44.88 C 23.64 44.400000000000006, 23.58 44.49, 23.88 43.92 C 24.24 43.26, 24.314999999999998 43.13999999999999, 24.599999999999998 42.599999999999994 C 24.81 42.17999999999999, 24.72 42.285, 25.02 41.76 C 25.409999999999997 41.129999999999995, 25.424999999999997 41.129999999999995, 25.799999999999997 40.5 C 26.159999999999997 39.870000000000005, 26.085 39.99, 26.52 39.24 C 27.03 38.370000000000005, 27.075 38.19, 27.54 37.5 C 27.96 36.99, 27.915000000000003 36.870000000000005, 28.380000000000003 36.480000000000004 C 28.89 36.21, 28.830000000000002 36.12, 29.400000000000002 35.94 C 30.03 35.849999999999994, 30.075000000000003 35.805, 30.660000000000004 35.76 C 31.200000000000003 35.76, 31.440000000000005 35.76, 31.740000000000002 35.76 C 31.8 35.76, 31.83 35.76, 31.86 35.76 L 31.86 35.76" fill="none" stroke="black" stroke-width="5"></path></svg>