<svg width="48" height="48" viewBox="0 0 48 48" xmlns="http://www.w3.org/2000/svg"><path d="M 13.799999999999999 31.86 C 14.25 31.86, 13.74 31.86, 14.700000000000001 31.86 C 16.17 31.86, 16.305 31.905, 17.64 31.86 C 18.84 31.77, 18.945 31.725, 20.04 31.68 C 21.03 31.68, 21.134999999999998 31.68, 22.02 31.68 C 22.8 31.68, 22.830000000000002 31.68, 23.580000000000002 31.68 C 24.3 31.68, 24.39 31.68, 25.02 31.68 C 25.56 31.68, 25.514999999999997 31.725, 26.099999999999998 31.68 C 26.729999999999997 31.59, 26.669999999999998 31.605, 27.36 31.5 C 28.11 31.38, 28.155 31.485, 28.86 31.259999999999998 C 29.52 30.93, 29.595 31.004999999999995, 30.18 30.599999999999998 C 30.69 30.119999999999997, 30.885 30.075, 31.200000000000003 29.64 C 31.32 29.25, 31.305 29.34, 31.44 28.86 C 31.590000000000003 28.29, 31.62 28.439999999999998, 31.740000000000002 27.72 C 31.830000000000002 26.85, 31.830000000000005 27.105, 31.92 25.98 C 32.01 24.6, 32.05499999999999 24.45, 32.099999999999994 23.22 C 32.099999999999994 22.14, 32.05499999999999 22.695, 32.099999999999994 21.06 C 32.19 18.869999999999997, 32.235 18.465, 32.28 16.68 C 32.28 15.299999999999999, 32.28 15.179999999999998, 32.28 13.919999999999998 C 32.28 12.78, 32.28 12.66, 32.28 11.64 C 32.28 10.74, 32.28 10.515, 32.28 9.84 C 32.28 9.39, 32.28 9.389999999999999, 32.28 8.94 C 32.28 8.49, 32.355000000000004 8.595, 32.28 8.040000000000001 C 32.13 7.380000000000001, 32.1 7.275, 31.98 6.720000000000001 C 31.89 6.2700000000000005, 31.889999999999997 6.165000000000001, 31.799999999999997 5.82 C 31.709999999999997 5.58, 31.739999999999995 5.625, 31.619999999999997 5.34 C 31.47 5.01, 31.395 4.89, 31.32 4.68 C 31.32 4.59, 31.35 4.59, 31.32 4.5 C 31.26 4.41, 31.365000000000002 4.455, 31.200000000000003 4.32 C 30.930000000000003 4.140000000000001, 30.870000000000005 4.05, 30.660000000000004 3.96 C 30.51 3.96, 30.555 3.96, 30.36 3.96 C 30.12 3.96, 30.12 3.96, 29.880000000000003 3.96 C 29.64 3.96, 29.685000000000002 3.795, 29.400000000000002 3.96 C 29.07 4.29, 29.085 4.2, 28.740000000000002 4.62 C 28.380000000000003 5.13, 28.41 5.04, 28.02 5.64 C 27.6 6.33, 27.72 6.074999999999999, 27.18 7.02 C 26.52 8.219999999999999, 26.445 8.235, 25.86 9.42 C 25.349999999999998 10.59, 25.244999999999997 10.844999999999999, 24.839999999999996 11.76 C 24.54 12.420000000000002, 24.555 12.315000000000001, 24.240000000000002 13.080000000000002 C 23.910000000000004 13.950000000000001, 23.790000000000003 14.295000000000002, 23.580000000000002 14.82 C 23.490000000000002 15, 23.445 15.09, 23.4 15.18 L 23.4 15.18" fill="none" stroke="black" stroke-width="5"></path><path d="M 21.78 4.38 C 21.3 5.25, 21.195 5.25, 20.82 6.12 C 20.55 6.99, 20.625 6.885000000000001, 20.28 7.86 C 19.86 8.94, 19.725 9.045, 19.44 10.02 C 19.29 10.89, 19.335 10.815, 19.14 11.76 C 18.9 12.78, 18.855 12.899999999999999, 18.66 13.799999999999999 C 18.509999999999998 14.579999999999998, 18.465 14.94, 18.36 15.36 C 18.3 15.42, 18.285000000000004 15.405000000000001, 18.240000000000002 15.48 L 18.18 15.66" fill="none" stroke="black" stroke-width="5"></path><path d="M 21.18 36.12 C 20.79 36.209999999999994, 20.685 36.089999999999996, 20.4 36.3 C 20.22 36.629999999999995, 20.13 36.525, 20.04 36.96 C 20.04 37.5, 19.83 37.575, 20.04 38.04 C 20.46 38.43, 20.58 38.61, 20.88 38.82 C 21.060000000000002 38.85, 20.880000000000003 38.910000000000004, 21.240000000000002 38.88 C 21.78 38.790000000000006, 21.87 38.910000000000004, 22.32 38.7 C 22.68 38.370000000000005, 22.785 38.489999999999995, 23.04 38.04 C 23.189999999999998 37.47, 23.31 37.30500000000001, 23.34 36.900000000000006 C 23.25 36.660000000000004, 23.37 36.63, 23.16 36.42 C 22.83 36.24, 22.86 36.18000000000001, 22.5 36.06 C 22.11 36, 22.049999999999997 35.894999999999996, 21.72 35.94 C 21.45 36.09, 21.375 35.925, 21.18 36.24 C 21.060000000000002 36.72, 21 36.81, 20.94 37.2 C 20.94 37.5, 20.73 37.559999999999995, 20.94 37.8 C 21.36 37.980000000000004, 21.42 38.07, 21.78 38.160000000000004 C 22.08 38.160000000000004, 22.11 38.325, 22.38 38.160000000000004 C 22.619999999999997 37.83, 22.77 37.83, 22.86 37.5 C 22.8 37.17, 22.980000000000004 37.065, 22.740000000000002 36.839999999999996 C 22.32 36.72, 22.259999999999998 36.675, 21.9 36.599999999999994 C 21.599999999999998 36.56999999999999, 21.659999999999997 36.39, 21.299999999999997 36.54 C 20.88 36.870000000000005, 20.67 36.765, 20.46 37.2 C 20.46 37.74, 20.37 37.89, 20.46 38.28 C 20.64 38.519999999999996, 20.384999999999998 38.595, 20.82 38.76 C 21.51 38.849999999999994, 21.6 39.15, 22.200000000000003 38.94 C 22.71 38.43, 23.009999999999998 38.370000000000005, 23.22 37.92 C 23.13 37.53, 23.235 37.38, 23.04 37.14 C 22.740000000000002 37.05, 22.965 37.005, 22.44 36.96 C 21.69 36.96, 21.48 36.795, 20.94 36.96 C 20.61 37.29, 20.445 37.455, 20.28 37.62 L 20.28 37.62" fill="none" stroke="black" stroke-width="5"></path><path d="M 15.54 43.92 C 15.66 44.01, 15.375 44.05499999999999, 15.78 44.099999999999994 C 16.47 44.099999999999994, 16.2 44.114999999999995, 17.16 44.099999999999994 C 18.39 44.06999999999999, 18.54 44.055, 19.62 44.04 C 20.55 44.04, 20.37 44.04, 21.48 44.04 C 22.77 44.04, 22.889999999999997 44.04, 24.06 44.04 C 25.11 44.04, 25.305000000000003 44.025, 26.160000000000004 44.04 C 26.82 44.06999999999999, 26.955000000000002 44.084999999999994, 27.48 44.099999999999994 C 27.869999999999997 44.099999999999994, 28.064999999999998 44.099999999999994, 28.259999999999998 44.099999999999994 L 28.259999999999998 44.099999999999994" fill="none" stroke="black" stroke-width="5"></path></svg>