<svg width="48" height="48" viewBox="0 0 48 48" xmlns="http://www.w3.org/2000/svg"><path d="M 15 16.740000000000002 C 15 16.77, 14.61 16.83, 15 16.799999999999997 C 15.78 16.71, 15.674999999999999 16.725, 16.56 16.62 C 17.549999999999997 16.5, 17.669999999999998 16.455, 18.54 16.38 C 19.29 16.35, 19.11 16.38, 20.04 16.32 C 21.15 16.23, 21.36 16.185000000000002, 22.259999999999998 16.14 C 22.95 16.14, 22.86 16.14, 23.64 16.14 C 24.51 16.14, 24.795 16.125, 25.380000000000003 16.14 C 25.68 16.17, 25.62 16.125000000000004, 25.98 16.200000000000003 C 26.4 16.32, 26.37 16.245, 26.82 16.44 C 27.3 16.71, 27.375 16.785, 27.78 16.98 C 28.11 17.1, 28.155 17.099999999999998, 28.44 17.22 C 28.68 17.34, 28.68 17.28, 28.92 17.46 C 29.160000000000004 17.700000000000003, 29.130000000000003 17.565, 29.400000000000002 17.94 C 29.700000000000003 18.450000000000003, 29.76 18.42, 30 18.96 C 30.18 19.53, 30.27 19.635, 30.36 20.1 C 30.36 20.46, 30.33 20.265, 30.36 20.82 C 30.42 21.57, 30.45 21.63, 30.48 22.32 C 30.48 22.950000000000003, 30.525000000000002 22.935000000000002, 30.48 23.580000000000002 C 30.39 24.240000000000002, 30.389999999999997 24.450000000000003, 30.299999999999997 24.900000000000002 C 30.209999999999997 25.14, 30.165 25.26, 30.119999999999997 25.380000000000003 C 30.119999999999997 25.380000000000003, 30.119999999999997 25.380000000000003, 30.119999999999997 25.380000000000003 L 30.119999999999997 25.380000000000003" fill="none" stroke="black" stroke-width="5"></path><path d="M 23.64 3.4799999999999995 C 23.19 3.9, 23.76 3.5549999999999997, 22.740000000000002 4.32 C 21.15 5.430000000000001, 20.955 5.595000000000001, 19.56 6.540000000000001 C 18.36 7.320000000000001, 18.285 7.380000000000002, 17.16 8.100000000000001 C 16.11 8.760000000000002, 15.584999999999999 9.09, 15.059999999999999 9.42 L 15.059999999999999 9.42" fill="none" stroke="black" stroke-width="5"></path><path d="M 30.72 4.68 C 30.75 4.92, 31.155 4.71, 30.78 5.16 C 30 5.82, 30.479999999999997 5.325000000000001, 29.22 6.48 C 27.48 8.129999999999999, 26.865000000000002 8.639999999999999, 25.740000000000002 9.78 C 25.23 10.41, 24.975 10.725000000000001, 24.72 11.040000000000001 L 24.72 11.040000000000001" fill="none" stroke="black" stroke-width="5"></path><path d="M 20.64 16.98 C 20.43 18.630000000000003, 20.325 18.720000000000002, 20.22 20.28 C 20.22 21.75, 20.07 21.765, 20.22 23.22 C 20.52 24.659999999999997, 20.445 24.915, 20.82 26.099999999999998 C 21.27 27.03, 21.119999999999997 27.134999999999998, 21.72 27.96 C 22.47 28.68, 22.56 28.860000000000003, 23.22 29.400000000000002 C 23.79 29.759999999999998, 23.49 29.7, 24.36 30.119999999999997 C 25.53 30.599999999999998, 25.545 30.659999999999997, 26.700000000000003 31.08 C 27.840000000000003 31.439999999999998, 28.035 31.485, 28.98 31.799999999999997 C 29.73 32.06999999999999, 30.03 32.175, 30.48 32.339999999999996 C 30.630000000000003 32.4, 30.555 32.28, 30.78 32.46 C 31.080000000000002 32.760000000000005, 31.200000000000003 32.790000000000006, 31.380000000000003 33.06 C 31.44 33.3, 31.47 33.315, 31.5 33.54 C 31.5 33.75, 31.5 33.735, 31.5 33.96 C 31.5 34.2, 31.665 34.214999999999996, 31.5 34.44 C 31.169999999999998 34.65, 31.289999999999996 34.635, 30.839999999999996 34.86 C 30.27 35.099999999999994, 30.330000000000002 35.16, 29.700000000000003 35.339999999999996 C 29.01 35.459999999999994, 29.205 35.385, 28.32 35.58 C 27.240000000000002 35.849999999999994, 27.135000000000005 35.864999999999995, 26.160000000000004 36.12 C 25.290000000000003 36.36, 25.380000000000003 36.254999999999995, 24.42 36.599999999999994 C 23.37 37.05, 23.37 36.945, 22.32 37.5 C 21.27 38.16, 20.955 38.28, 20.22 38.82 C 19.799999999999997 39.24, 19.89 39.06, 19.38 39.660000000000004 C 18.78 40.44, 18.915 40.155, 18.18 41.22 C 17.310000000000002 42.57, 16.935000000000002 43.035000000000004, 16.44 43.92 C 16.32 44.34, 16.26 44.55, 16.200000000000003 44.76 C 16.200000000000003 44.76, 16.200000000000003 44.73, 16.200000000000003 44.76 C 16.200000000000003 44.82, 16.200000000000003 44.85, 16.200000000000003 44.88 L 16.200000000000003 44.88" fill="none" stroke="black" stroke-width="5"></path><path d="M 15.18 32.04 C 16.71 32.879999999999995, 17.130000000000003 33.075, 18.240000000000002 33.72 C 18.93 34.17, 18.945 34.05, 19.62 34.62 C 20.28 35.31, 20.445 35.445, 20.94 36 C 21.270000000000003 36.42, 21.39 36.55499999999999, 21.6 36.839999999999996 C 21.69 36.989999999999995, 21.705000000000002 37.019999999999996, 21.78 37.14 C 21.84 37.230000000000004, 21.825 37.185, 21.9 37.32 C 21.990000000000002 37.5, 21.990000000000002 37.515, 22.080000000000002 37.68 C 22.17 37.83, 22.215 37.905, 22.259999999999998 37.980000000000004 C 22.259999999999998 37.980000000000004, 22.259999999999998 37.980000000000004, 22.259999999999998 37.980000000000004 L 22.259999999999998 37.980000000000004" fill="none" stroke="black" stroke-width="5"></path></svg>