<svg width="48" height="48" viewBox="0 0 48 48" xmlns="http://www.w3.org/2000/svg"><path d="M 27.06 36.12 C 26.85 36.599999999999994, 26.97 36.51, 26.64 37.08 C 26.19 37.74, 26.265 37.69500000000001, 25.740000000000002 38.400000000000006 C 25.14 39.150000000000006, 25.2 39.27000000000001, 24.54 39.900000000000006 C 23.82 40.410000000000004, 23.79 40.440000000000005, 23.1 40.92 C 22.44 41.370000000000005, 22.665000000000003 41.295, 21.78 41.82 C 20.67 42.42, 20.31 42.69, 19.56 43.019999999999996 C 19.17 43.08, 19.245 43.095, 18.78 43.14 C 18.240000000000002 43.17, 18.255000000000003 43.185, 17.700000000000003 43.2 C 17.130000000000003 43.2, 16.994999999999997 43.230000000000004, 16.56 43.2 C 16.259999999999998 43.14, 16.32 43.29, 15.96 43.08 C 15.540000000000001 42.72, 15.675 42.93, 15.120000000000001 42.36 C 14.43 41.58, 14.205 41.43, 13.74 40.8 C 13.5 40.31999999999999, 13.485 40.349999999999994, 13.26 39.839999999999996 C 13.05 39.3, 12.99 39.375, 12.84 38.76 C 12.75 38.07, 12.75 38.175000000000004, 12.66 37.38 C 12.57 36.480000000000004, 12.510000000000002 36.345, 12.48 35.58 C 12.51 34.95, 12.495 34.875, 12.54 34.32 C 12.6 33.84, 12.524999999999999 33.855000000000004, 12.66 33.36 C 12.870000000000001 32.849999999999994, 12.870000000000001 32.714999999999996, 13.080000000000002 32.339999999999996 C 13.290000000000001 32.099999999999994, 13.185 32.085, 13.5 31.86 C 13.92 31.65, 13.844999999999999 31.635, 14.34 31.44 C 14.91 31.259999999999998, 15.045 31.169999999999998, 15.48 31.08 C 15.780000000000001 31.08, 15.600000000000001 31.11, 16.080000000000002 31.08 C 16.740000000000002 31.02, 16.83 30.990000000000002, 17.4 30.96 C 17.88 30.96, 17.759999999999998 30.96, 18.36 30.96 C 19.08 30.96, 19.214999999999996 30.96, 19.799999999999997 30.96 C 20.25 30.96, 19.845000000000002 30.96, 20.700000000000003 30.96 C 21.96 30.96, 22.335 30.96, 23.22 30.96 C 23.73 30.96, 23.790000000000003 30.915, 24.240000000000002 30.96 C 24.630000000000003 31.05, 24.555 31.095, 25.02 31.14 C 25.56 31.14, 25.56 31.14, 26.099999999999998 31.14 C 26.64 31.14, 26.745 31.17, 27.18 31.14 C 27.509999999999998 31.08, 27.464999999999996 31.215, 27.839999999999996 31.02 C 28.259999999999998 30.689999999999998, 28.32 30.84, 28.68 30.36 C 28.98 29.729999999999997, 29.1 29.685, 29.28 29.099999999999998 C 29.340000000000003 28.56, 29.28 28.695, 29.400000000000002 28.02 C 29.58 27.21, 29.669999999999998 27.42, 29.759999999999998 26.400000000000002 C 29.759999999999998 25.17, 29.759999999999998 25.185000000000002, 29.759999999999998 23.94 C 29.759999999999998 22.68, 29.759999999999998 22.365, 29.759999999999998 21.419999999999998 C 29.759999999999998 20.79, 29.759999999999998 21.18, 29.759999999999998 20.16 C 29.759999999999998 18.75, 29.759999999999998 18.585, 29.759999999999998 17.34 C 29.759999999999998 16.259999999999998, 29.759999999999998 16.275, 29.759999999999998 15.18 C 29.759999999999998 14.07, 29.805 13.98, 29.759999999999998 12.96 C 29.669999999999998 12.030000000000001, 29.714999999999996 11.985000000000001, 29.58 11.100000000000001 C 29.4 10.260000000000002, 29.354999999999997 10.11, 29.22 9.42 C 29.13 8.879999999999999, 29.145 8.879999999999999, 29.04 8.34 C 28.919999999999998 7.8, 28.904999999999998 7.65, 28.799999999999997 7.26 C 28.709999999999997 7.02, 28.679999999999996 6.944999999999999, 28.619999999999997 6.779999999999999 C 28.589999999999996 6.6899999999999995, 28.709999999999997 6.78, 28.56 6.6000000000000005 C 28.29 6.33, 28.185 6.2250000000000005, 28.02 6.0600000000000005 C 27.96 6, 27.975 6.015, 27.900000000000002 5.9399999999999995 C 27.810000000000002 5.85, 27.81 5.85, 27.72 5.76 C 27.63 5.67, 27.659999999999997 5.64, 27.54 5.58 C 27.39 5.550000000000001, 27.525000000000002 5.370000000000001, 27.240000000000002 5.5200000000000005 C 26.82 5.85, 26.745000000000005 5.88, 26.400000000000002 6.18 C 26.130000000000003 6.45, 26.115 6.420000000000001, 25.86 6.720000000000001 C 25.62 7.050000000000001, 25.590000000000003 7.05, 25.380000000000003 7.38 C 25.200000000000003 7.710000000000001, 25.185000000000002 7.710000000000001, 25.02 8.040000000000001 C 24.869999999999997 8.370000000000001, 24.93 8.25, 24.72 8.7 C 24.45 9.27, 24.39 9.315, 24.18 9.84 C 24.03 10.32, 24.09 10.170000000000002, 23.88 10.8 C 23.61 11.58, 23.55 11.684999999999999, 23.34 12.36 C 23.189999999999998 12.93, 23.16 13.094999999999999, 23.04 13.5 C 22.95 13.74, 22.905 13.815000000000001, 22.86 13.98 C 22.86 14.07, 22.89 13.89, 22.86 14.16 C 22.8 14.61, 22.770000000000003 14.684999999999999, 22.740000000000002 15.059999999999999 C 22.740000000000002 15.36, 22.740000000000002 15.51, 22.740000000000002 15.66 C 22.740000000000002 15.66, 22.740000000000002 15.66, 22.740000000000002 15.66 L 22.740000000000002 15.66" fill="none" stroke="black" stroke-width="5"></path><path d="M 23.759999999999998 4.9799999999999995 C 23.46 5.4, 23.595 5.235, 23.16 5.82 C 22.59 6.57, 22.575 6.540000000000001, 22.02 7.32 C 21.48 8.129999999999999, 21.48 8.01, 20.94 8.94 C 20.4 9.99, 20.265 10.065000000000001, 19.86 11.040000000000001 C 19.59 11.940000000000001, 19.545 11.91, 19.32 12.84 C 19.14 13.8, 19.065 14.085, 18.96 14.76 L 18.9 15.54" fill="none" stroke="black" stroke-width="5"></path></svg>