<svg width="48" height="48" viewBox="0 0 48 48" xmlns="http://www.w3.org/2000/svg"><path d="M 15.84 3.7800000000000002 C 15.27 4.470000000000001, 15.165000000000001 4.44, 14.700000000000001 5.16 C 14.34 5.91, 14.325000000000001 5.955, 13.98 6.66 C 13.65 7.32, 13.59 7.365, 13.32 7.98 C 13.11 8.55, 13.004999999999999 8.760000000000002, 12.899999999999999 9.120000000000001 C 12.899999999999999 9.27, 12.899999999999999 9.24, 12.899999999999999 9.42 C 12.899999999999999 9.629999999999999, 12.809999999999999 9.645, 12.899999999999999 9.84 C 13.079999999999998 10.02, 12.975 10.049999999999999, 13.26 10.2 C 13.649999999999999 10.32, 13.454999999999998 10.379999999999999, 14.04 10.44 C 14.82 10.44, 13.905000000000001 10.41, 15.600000000000001 10.44 C 18.21 10.5, 17.895000000000003 10.5, 20.82 10.56 C 24.06 10.620000000000001, 24.705 10.65, 27.299999999999997 10.68 C 29.25 10.68, 29.76 10.68, 31.200000000000003 10.68 C 32.13 10.68, 32.385000000000005 10.68, 33.06 10.68 C 33.480000000000004 10.68, 33.61500000000001 10.68, 33.900000000000006 10.68 C 34.050000000000004 10.68, 34.125 10.68, 34.2 10.68 L 34.2 10.68" fill="none" stroke="black" stroke-width="5"></path><path d="M 17.4 10.26 C 17.4 10.26, 17.384999999999998 10.245, 17.4 10.26 C 17.43 10.29, 17.490000000000002 10.08, 17.46 10.32 C 17.37 10.77, 17.82 10.290000000000001, 17.28 11.22 C 16.29 12.629999999999999, 16.11 12.794999999999998, 15.299999999999999 14.04 C 14.669999999999998 15.120000000000001, 14.549999999999999 15.315000000000001, 14.04 16.200000000000003 C 13.649999999999999 16.89, 13.559999999999999 16.995000000000005, 13.26 17.580000000000002 C 13.05 18.060000000000002, 12.96 18.134999999999998, 12.84 18.54 C 12.809999999999999 18.87, 12.795 18.96, 12.78 19.200000000000003 C 12.78 19.35, 12.735 19.305, 12.78 19.5 C 12.870000000000001 19.740000000000002, 12.75 19.71, 12.96 19.98 C 13.290000000000001 20.28, 13.215 20.310000000000002, 13.620000000000001 20.580000000000002 C 14.100000000000001 20.82, 13.515000000000002 20.759999999999998, 14.580000000000002 21.06 C 16.23 21.42, 15.855 21.495, 17.88 21.78 C 20.28 21.990000000000002, 20.549999999999997 22.065000000000005, 22.68 22.200000000000003 C 24.54 22.26, 24.78 22.29, 26.400000000000002 22.32 C 27.78 22.32, 28.080000000000005 22.32, 29.160000000000004 22.32 C 29.94 22.32, 30.21 22.335, 30.72 22.32 C 30.96 22.29, 30.96 22.349999999999998, 31.200000000000003 22.259999999999998 C 31.44 22.11, 31.425 22.17, 31.68 21.96 C 31.95 21.689999999999998, 31.994999999999997 21.63, 32.22 21.419999999999998 C 32.4 21.27, 32.474999999999994 21.39, 32.58 21.12 C 32.61 20.73, 32.625 21.015, 32.64 20.34 C 32.64 19.38, 32.730000000000004 19.47, 32.64 18.419999999999998 C 32.46 17.28, 32.52 17.22, 32.28 16.14 C 31.98 15.120000000000001, 31.995 15.045000000000002, 31.68 14.100000000000001 C 31.35 13.23, 31.244999999999997 12.885, 31.02 12.36 C 30.9 12.18, 30.915 12.165, 30.78 12 C 30.630000000000003 11.85, 30.630000000000003 11.895, 30.48 11.7 C 30.33 11.46, 30.3 11.43, 30.18 11.22 C 30.09 11.04, 30.045 10.95, 30 10.86 L 30 10.86" fill="none" stroke="black" stroke-width="5"></path><path d="M 22.68 22.5 C 22.68 23.16, 22.965 22.725, 22.68 23.82 C 22.11 25.35, 22.034999999999997 25.395000000000003, 21.54 26.880000000000003 C 21.12 28.32, 21.285000000000004 28.185, 20.700000000000003 29.759999999999998 C 19.950000000000003 31.47, 19.890000000000004 31.53, 19.200000000000003 33.18 C 18.57 34.769999999999996, 18.6 35.055, 17.94 36.36 C 17.25 37.38, 17.25 37.50000000000001, 16.56 38.400000000000006 C 15.87 39.18000000000001, 16.035 39.150000000000006, 15.18 39.96 C 14.16 40.8, 13.98 41.01, 13.14 41.64 C 12.48 42.06, 12.24 42.21000000000001, 11.82 42.480000000000004 C 11.64 42.6, 11.639999999999999 42.66, 11.459999999999999 42.72 L 11.100000000000001 42.72" fill="none" stroke="black" stroke-width="5"></path><path d="M 16.799999999999997 38.82 C 17.099999999999998 38.79, 16.769999999999996 38.775, 17.4 38.76 C 18.36 38.76, 17.67 38.76, 19.32 38.76 C 21.66 38.76, 21.915 38.76, 24 38.76 C 25.830000000000002 38.76, 26.295 38.684999999999995, 27.660000000000004 38.76 C 28.560000000000002 38.91, 28.650000000000002 38.97, 29.46 39.06 L 30.900000000000002 39.12" fill="none" stroke="black" stroke-width="5"></path></svg>