<svg width="48" height="48" viewBox="0 0 48 48" xmlns="http://www.w3.org/2000/svg"><path d="M 18.18 4.14 C 17.549999999999997 4.77, 17.61 4.65, 16.919999999999998 5.4 C 16.169999999999998 6.27, 16.004999999999995 6.449999999999999, 15.419999999999998 7.14 C 15 7.65, 14.940000000000001 7.71, 14.580000000000002 8.16 C 14.280000000000001 8.55, 14.280000000000001 8.43, 13.98 8.94 C 13.68 9.57, 13.604999999999999 9.629999999999999, 13.379999999999999 10.2 C 13.23 10.71, 13.155000000000001 10.86, 13.080000000000002 11.22 C 13.080000000000002 11.43, 13.080000000000002 11.340000000000002, 13.080000000000002 11.64 C 13.080000000000002 12.03, 13.035000000000002 12.104999999999999, 13.080000000000002 12.419999999999998 C 13.170000000000002 12.659999999999998, 12.96 12.629999999999999, 13.26 12.899999999999999 C 13.77 13.2, 13.649999999999999 13.32, 14.28 13.5 C 15.03 13.56, 14.895 13.59, 15.78 13.620000000000001 C 16.8 13.620000000000001, 16.725 13.620000000000001, 17.82 13.620000000000001 C 18.990000000000002 13.620000000000001, 18.915 13.620000000000001, 20.16 13.620000000000001 C 21.479999999999997 13.620000000000001, 21.674999999999997 13.620000000000001, 22.799999999999997 13.620000000000001 C 23.73 13.620000000000001, 23.550000000000004 13.71, 24.660000000000004 13.620000000000001 C 25.950000000000003 13.440000000000001, 26.175000000000004 13.395, 27.240000000000002 13.26 C 28.080000000000002 13.170000000000002, 28.050000000000004 13.170000000000002, 28.92 13.080000000000002 C 29.82 12.99, 29.849999999999998 12.989999999999998, 30.72 12.899999999999999 C 31.560000000000002 12.809999999999999, 31.695000000000007 12.81, 32.400000000000006 12.72 C 32.97 12.629999999999999, 32.955 12.584999999999999, 33.54 12.54 C 34.14 12.54, 34.32 12.54, 34.74 12.54 C 34.980000000000004 12.54, 34.98 12.54, 35.22 12.54 C 35.46 12.54, 35.58 12.54, 35.7 12.54 L 35.7 12.54" fill="none" stroke="black" stroke-width="5"></path><path d="M 14.879999999999999 44.519999999999996 C 14.73 43.67999999999999, 14.835 43.88999999999999, 14.580000000000002 42.839999999999996 C 14.22 41.58, 14.16 41.489999999999995, 13.86 40.32 C 13.62 39.24, 13.59 39.435, 13.379999999999999 38.160000000000004 C 13.2 36.69, 13.11 36.465, 13.02 35.22 C 13.02 34.2, 13.02 34.095, 13.02 33.18 C 13.02 32.37, 13.02 32.475, 13.02 31.56 C 13.02 30.54, 13.02 30.494999999999997, 13.02 29.52 C 13.02 28.590000000000003, 13.02 28.485000000000003, 13.02 27.660000000000004 C 13.02 26.94, 12.975 26.895, 13.02 26.22 C 13.11 25.59, 13.020000000000001 25.65, 13.200000000000001 24.96 C 13.47 24.21, 13.350000000000001 24.135, 13.74 23.46 C 14.25 22.86, 14.145 22.784999999999997, 14.76 22.259999999999998 C 15.48 21.81, 15.435000000000002 21.674999999999997, 16.200000000000003 21.36 C 17.01 21.18, 17.085 21.09, 17.82 21 C 18.48 21, 18.165 21.045, 19.14 21 C 20.43 20.91, 20.475 20.865000000000002, 21.72 20.82 C 22.919999999999998 20.82, 22.949999999999996 20.865000000000002, 24.119999999999997 20.82 C 25.259999999999998 20.73, 25.455000000000002 20.685000000000002, 26.400000000000002 20.64 C 27.150000000000002 20.64, 26.865000000000002 20.64, 27.900000000000002 20.64 C 29.22 20.64, 29.474999999999998 20.64, 30.54 20.64 C 31.35 20.64, 31.455000000000005 20.64, 32.160000000000004 20.64 C 32.760000000000005 20.64, 32.79 20.64, 33.36 20.64 C 33.9 20.64, 34.05 20.64, 34.44 20.64 C 34.68 20.64, 34.77 20.64, 34.92 20.64 L 35.04 20.64" fill="none" stroke="black" stroke-width="5"></path><path d="M 23.94 27.78 C 23.46 28.11, 23.325000000000003 28.035, 22.98 28.44 C 22.77 28.92, 22.275 28.995000000000005, 22.56 29.400000000000002 C 23.339999999999996 29.73, 23.205 30.285, 24.119999999999997 30.06 C 25.169999999999998 29.28, 25.68 29.175, 26.22 28.5 C 26.25 27.93, 26.445 27.705, 26.28 27.36 C 25.92 27.24, 26.445 26.819999999999997, 25.56 27.119999999999997 C 24.15 27.839999999999996, 23.55 27.779999999999998, 22.740000000000002 28.56 C 22.53 29.4, 22.14 29.64, 22.32 30.240000000000002 C 22.89 30.6, 22.71 30.945, 23.46 30.96 C 24.39 30.63, 24.645 30.884999999999998, 25.32 30.299999999999997 C 25.740000000000002 29.459999999999997, 26.010000000000005 29.159999999999997, 26.160000000000004 28.619999999999997 C 26.040000000000003 28.38, 26.475 27.9, 25.92 28.14 C 24.93 28.86, 24.525000000000002 28.875, 23.94 29.58 L 23.580000000000002 30.96" fill="none" stroke="black" stroke-width="5"></path><path d="M 18.96 38.58 C 20.310000000000002 38.22, 20.43 38.144999999999996, 21.66 37.86 C 22.77 37.65, 22.665 37.545, 23.88 37.44 C 25.2 37.44, 25.305 37.44, 26.52 37.44 C 27.630000000000003 37.44, 27.96 37.44, 28.740000000000002 37.44 C 29.19 37.44, 29.22 37.44, 29.64 37.44 L 30.42 37.44" fill="none" stroke="black" stroke-width="5"></path></svg>