<svg width="48" height="48" viewBox="0 0 48 48" xmlns="http://www.w3.org/2000/svg"><path d="M 16.259999999999998 3.12 C 15.659999999999998 3.63, 15.749999999999998 3.4499999999999997, 15.059999999999999 4.14 C 14.28 5.01, 14.28 4.89, 13.5 5.88 C 12.719999999999999 6.99, 12.45 7.245000000000001, 11.94 8.100000000000001 C 11.7 8.700000000000001, 11.61 8.88, 11.459999999999999 9.3 C 11.399999999999999 9.54, 11.399999999999999 9.57, 11.34 9.78 C 11.280000000000001 9.96, 11.25 9.975000000000001, 11.22 10.14 C 11.22 10.29, 11.22 10.334999999999999, 11.22 10.44 C 11.22 10.5, 11.175 10.425, 11.22 10.56 C 11.309999999999999 10.77, 10.86 10.83, 11.399999999999999 10.98 C 12.389999999999999 11.07, 11.52 11.22, 13.379999999999999 11.16 C 16.11 10.95, 16.245 10.98, 18.84 10.74 C 21.299999999999997 10.469999999999999, 21.134999999999998 10.395, 23.759999999999998 10.2 C 26.549999999999997 10.079999999999998, 26.819999999999997 10.079999999999998, 29.339999999999996 9.959999999999999 C 31.589999999999996 9.84, 32.309999999999995 9.825, 33.839999999999996 9.72 C 34.65 9.63, 35.055 9.585, 35.46 9.540000000000001 L 35.46 9.540000000000001" fill="none" stroke="black" stroke-width="5"></path><path d="M 14.399999999999999 11.100000000000001 C 14.129999999999999 11.97, 14.219999999999999 11.52, 13.86 12.84 C 13.41 14.61, 13.32 14.25, 12.96 16.38 C 12.69 18.869999999999997, 12.584999999999999 19.11, 12.419999999999998 21.36 C 12.36 23.37, 12.329999999999998 22.995, 12.299999999999999 25.380000000000003 C 12.299999999999999 28.14, 12.299999999999999 28.695, 12.299999999999999 30.900000000000002 C 12.299999999999999 32.550000000000004, 12.299999999999999 32.865, 12.299999999999999 34.2 C 12.299999999999999 35.22, 12.299999999999999 34.995000000000005, 12.299999999999999 36.24 C 12.299999999999999 37.71, 12.344999999999999 37.8, 12.299999999999999 39.18 C 12.21 40.47, 12.165000000000001 40.724999999999994, 12.120000000000001 41.76 C 12.120000000000001 42.54, 12.120000000000001 42.69, 12.120000000000001 43.32 C 12.120000000000001 43.8, 12.120000000000001 43.965, 12.120000000000001 44.28 C 12.120000000000001 44.43, 12.120000000000001 44.504999999999995, 12.120000000000001 44.58 L 12.120000000000001 44.58" fill="none" stroke="black" stroke-width="5"></path><path d="M 12.600000000000001 36.42 C 14.07 36.24, 14.055 36.885000000000005, 15.54 36.06 C 17.04 34.59, 17.49 35.07, 18.54 33.12 C 19.14 30.689999999999998, 19.395000000000003 29.654999999999998, 19.740000000000002 28.259999999999998 C 19.83 27.9, 19.875 27.72, 19.919999999999998 27.54 C 19.919999999999998 27.54, 19.86 27.555, 19.919999999999998 27.54 C 20.04 27.509999999999998, 19.89 26.955, 20.16 27.48 C 20.58 28.560000000000002, 20.505 28.53, 21 29.64 C 21.57 30.78, 21.18 30.615000000000002, 22.14 31.92 C 23.49 33.39, 22.529999999999994 33.885, 24.839999999999996 34.86 C 28.11 35.34, 28.11 35.94, 31.380000000000003 35.82 C 34.650000000000006 35.1, 36.105000000000004 34.830000000000005, 37.92 34.38 C 38.28 34.2, 38.46 34.11, 38.64 34.019999999999996 L 38.64 34.019999999999996" fill="none" stroke="black" stroke-width="5"></path></svg>