<svg width="48" height="48" viewBox="0 0 48 48" xmlns="http://www.w3.org/2000/svg"><path d="M 15.600000000000001 5.4 C 15.270000000000001 5.91, 15.405000000000001 5.805, 14.940000000000001 6.42 C 14.34 7.140000000000001, 14.235 7.245000000000001, 13.74 7.86 C 13.350000000000001 8.37, 13.260000000000002 8.43, 12.96 8.879999999999999 C 12.75 9.27, 12.645 9.375, 12.54 9.66 C 12.54 9.84, 12.54 9.93, 12.54 10.02 C 12.54 10.02, 12.54 9.945, 12.54 10.02 C 12.54 10.17, 12.45 10.17, 12.54 10.32 C 12.719999999999999 10.47, 12.645 10.5, 12.899999999999999 10.620000000000001 C 13.229999999999999 10.71, 13.079999999999998 10.740000000000002, 13.559999999999999 10.8 C 14.19 10.83, 13.635000000000002 10.844999999999999, 14.82 10.86 C 16.56 10.86, 16.124999999999996 10.875, 18.299999999999997 10.86 C 20.909999999999997 10.83, 21.15 10.920000000000002, 23.52 10.8 C 25.65 10.59, 26.175 10.59, 27.78 10.379999999999999 C 28.86 10.169999999999998, 29.265 10.094999999999999, 29.94 9.959999999999999 C 30.21 9.899999999999999, 30.27 9.87, 30.48 9.84 C 30.630000000000003 9.84, 30.630000000000003 9.84, 30.78 9.84 C 30.93 9.84, 31.005 9.84, 31.08 9.84 C 31.08 9.84, 31.08 9.84, 31.08 9.84 L 31.08 9.84" fill="none" stroke="black" stroke-width="5"></path><path d="M 11.040000000000001 38.94 C 11.31 38.76, 10.485000000000001 39.269999999999996, 11.58 38.58 C 13.5 37.379999999999995, 13.919999999999998 36.9, 15.419999999999998 36.18 C 16.5 35.94, 16.68 35.775000000000006, 17.580000000000002 35.7 C 18.3 35.790000000000006, 18.315 35.49, 19.02 35.88 C 19.71 36.57, 19.935 36.614999999999995, 20.4 37.26 C 20.64 37.86, 20.7 37.575, 20.88 38.46 C 21 39.629999999999995, 21.330000000000002 39.555, 21.12 40.8 C 20.58 42.12, 20.939999999999998 42.3, 20.04 43.44 C 18.78 44.4, 18.45 44.745, 17.52 45.36 C 16.92 45.63, 16.845 45.720000000000006, 16.32 45.900000000000006 C 15.87 45.99, 15.794999999999998 46.155, 15.419999999999998 46.08 C 15.12 45.839999999999996, 15.405 46.28999999999999, 14.82 45.599999999999994 C 13.950000000000001 44.459999999999994, 13.755000000000003 44.325, 13.080000000000002 43.32 C 12.600000000000001 42.45, 12.600000000000001 42.614999999999995, 12.120000000000001 41.58 C 11.64 40.379999999999995, 11.535 40.41, 11.16 39.18 C 10.89 37.92, 10.755 38.295, 10.620000000000001 36.660000000000004 C 10.620000000000001 34.650000000000006, 10.545000000000002 34.905, 10.620000000000001 32.64 C 10.77 30.119999999999997, 10.74 30.029999999999998, 10.92 27.599999999999998 C 11.129999999999999 25.259999999999998, 11.129999999999999 24.569999999999997, 11.34 22.919999999999998 C 11.55 21.96, 11.46 21.945, 11.76 21 C 12.149999999999999 20.07, 12.254999999999999 19.77, 12.54 19.14 C 12.719999999999999 18.810000000000002, 12.645 18.810000000000002, 12.899999999999999 18.48 C 13.229999999999999 18.15, 13.034999999999998 18.09, 13.559999999999999 17.82 C 14.28 17.61, 14.445 17.49, 15 17.4 C 15.39 17.43, 15.254999999999999 17.205000000000002, 15.78 17.46 C 16.44 17.939999999999998, 16.575000000000003 17.865, 17.1 18.419999999999998 C 17.490000000000002 19.049999999999997, 17.445 18.855, 17.88 19.68 C 18.36 20.7, 18.405 20.43, 18.84 21.72 C 19.23 23.279999999999998, 19.335 23.369999999999997, 19.62 24.839999999999996 C 19.8 26.22, 19.89 26.909999999999997, 19.98 27.599999999999998 C 19.98 27.599999999999998, 19.98 27.599999999999998, 19.98 27.599999999999998 C 19.98 27.599999999999998, 19.95 27.644999999999996, 19.98 27.599999999999998 C 20.04 27.509999999999998, 19.845000000000002 27.855, 20.1 27.42 C 20.55 26.64, 20.505 26.445, 21 25.86 C 21.54 25.47, 21.405 25.275, 22.080000000000002 25.08 C 22.89 25.08, 22.725 24.915, 23.700000000000003 25.08 C 24.840000000000003 25.41, 25.035 25.230000000000004, 25.98 25.740000000000002 C 26.73 26.43, 26.865000000000002 26.4, 27.48 27.119999999999997 C 27.96 27.869999999999997, 27.93 27.614999999999995, 28.44 28.619999999999997 C 28.98 29.88, 29.13 29.85, 29.52 31.14 C 29.759999999999998 32.46, 29.88 32.535000000000004, 30 33.78 C 30 34.95, 30 35.129999999999995, 30 36.12 C 30 36.93, 30.015 36.825, 30 37.74 C 29.97 38.760000000000005, 30 38.760000000000005, 29.94 39.78 C 29.85 40.8, 29.849999999999998 40.785, 29.759999999999998 41.82 C 29.669999999999998 42.870000000000005, 29.625 43.395, 29.58 43.92 C 29.58 43.92, 29.58 43.92, 29.58 43.92 L 29.58 43.92" fill="none" stroke="black" stroke-width="5"></path></svg>