<svg width="48" height="48" viewBox="0 0 48 48" xmlns="http://www.w3.org/2000/svg"><path d="M 17.34 4.0200000000000005 C 16.68 4.859999999999999, 16.68 4.679999999999999, 16.02 5.699999999999999 C 15.36 6.9, 15.225000000000001 7.170000000000002, 14.700000000000001 8.100000000000001 C 14.309999999999999 8.760000000000002, 14.204999999999998 8.850000000000001, 13.919999999999998 9.42 C 13.739999999999998 9.899999999999999, 13.679999999999998 10.02, 13.559999999999999 10.379999999999999 C 13.5 10.62, 13.47 10.694999999999999, 13.440000000000001 10.86 C 13.440000000000001 10.95, 13.245000000000001 10.89, 13.440000000000001 11.040000000000001 C 13.830000000000002 11.25, 13.695 11.355, 14.22 11.459999999999999 C 14.879999999999999 11.459999999999999, 14.49 11.475, 15.54 11.459999999999999 C 16.979999999999997 11.43, 16.889999999999997 11.519999999999998, 18.419999999999998 11.399999999999999 C 20.04 11.19, 19.395 11.31, 21.66 10.98 C 24.57 10.530000000000001, 24.72 10.47, 27.48 10.08 C 30.090000000000003 9.75, 30.960000000000004 9.629999999999999, 32.7 9.42 C 33.57 9.33, 33.93 9.285, 34.44 9.24 C 34.59 9.24, 34.665 9.24, 34.74 9.24 L 34.74 9.24" fill="none" stroke="black" stroke-width="5"></path><path d="M 11.879999999999999 42.3 C 11.55 39.69, 11.385 39.254999999999995, 11.22 37.08 C 11.22 35.339999999999996, 11.22 35.73, 11.22 33.599999999999994 C 11.22 31.08, 11.22 30.824999999999996, 11.22 28.56 C 11.22 26.549999999999997, 11.13 26.294999999999998, 11.22 24.54 C 11.4 23.04, 11.325 22.74, 11.58 21.54 C 11.91 20.64, 11.58 20.715000000000003, 12.24 19.740000000000002 C 13.23 18.69, 12.870000000000001 18.525, 14.22 17.64 C 15.93 16.92, 15.885 16.755000000000003, 17.64 16.200000000000003 C 19.44 15.81, 19.89 15.614999999999998, 21.240000000000002 15.419999999999998 C 22.14 15.419999999999998, 22.14 15.329999999999998, 23.04 15.419999999999998 C 23.939999999999998 15.599999999999998, 23.909999999999997 15.329999999999998, 24.839999999999996 15.78 C 25.799999999999997 16.5, 25.799999999999997 16.32, 26.759999999999998 17.22 C 27.72 18.299999999999997, 27.945 18.314999999999998, 28.68 19.38 C 29.19 20.43, 29.115000000000002 19.785, 29.700000000000003 21.48 C 30.36 23.82, 30.555 23.985000000000003, 31.02 26.160000000000004 C 31.29 28.17, 31.424999999999997 28.995, 31.56 30.18 C 31.56 30.54, 31.56 30.720000000000002, 31.56 30.900000000000002 C 31.56 30.900000000000002, 31.485 31.035000000000004, 31.56 30.900000000000002 C 31.71 30.630000000000003, 31.32 31.08, 31.86 30.36 C 32.79 29.189999999999998, 32.834999999999994 28.545, 33.72 28.02 C 34.56 28.14, 34.470000000000006 27.884999999999998, 35.400000000000006 28.259999999999998 C 36.42 28.89, 36.735 28.74, 37.44 29.52 C 37.83 30.450000000000003, 37.964999999999996 29.835, 38.22 31.380000000000003 C 38.34 33.540000000000006, 38.4 33.795, 38.46 35.7 C 38.46 37.35, 38.46 37.605000000000004, 38.46 39 C 38.46 40.14, 38.46 40.71, 38.46 41.28 C 38.46 41.28, 38.46 41.28, 38.46 41.28 L 38.46 41.28" fill="none" stroke="black" stroke-width="5"></path><path d="M 21.36 26.400000000000002 C 20.34 26.759999999999998, 19.634999999999998 26.369999999999997, 19.32 27.119999999999997 C 19.71 28.259999999999998, 19.125 29.040000000000003, 20.1 29.400000000000002 C 21.66 28.98, 22.275 29.355, 23.22 28.56 C 23.549999999999997 27.39, 24.299999999999997 27.09, 23.88 26.22 C 22.71 25.65, 22.5 24.674999999999997, 21.54 25.08 C 20.79 26.459999999999997, 20.294999999999998 26.744999999999997, 20.04 27.839999999999996 C 20.28 28.65, 19.77 29.31, 20.52 29.46 C 21.78 28.950000000000003, 22.38 29.385, 23.04 28.44 C 23.1 27.060000000000002, 23.73 25.95, 23.16 25.68 C 21.96 26.52, 21.224999999999998 26.43, 20.759999999999998 27.36 C 21.029999999999998 28.380000000000003, 21.044999999999995 28.935000000000002, 21.299999999999997 29.400000000000002 L 21.78 29.22" fill="none" stroke="black" stroke-width="5"></path><path d="M 16.38 36.839999999999996 C 18.27 36.39, 17.775 36.285, 20.16 35.94 C 23.04 35.7, 24.045 35.565, 25.92 35.46 C 26.790000000000003 35.489999999999995, 27.180000000000007 35.504999999999995, 27.660000000000004 35.519999999999996 L 27.839999999999996 35.519999999999996" fill="none" stroke="black" stroke-width="5"></path></svg>