<svg width="48" height="48" viewBox="0 0 48 48" xmlns="http://www.w3.org/2000/svg"><path d="M 16.56 1.98 C 16.229999999999997 2.6100000000000003, 16.5 2.355, 15.899999999999999 3.24 C 15.03 4.380000000000001, 14.805 4.485, 14.16 5.5200000000000005 C 13.74 6.45, 13.575 6.63, 13.32 7.38 C 13.23 7.949999999999999, 13.23 8.084999999999999, 13.14 8.52 C 13.05 8.82, 13.005 8.895000000000001, 12.96 9.120000000000001 C 12.96 9.27, 12.915000000000001 9.24, 12.96 9.42 C 13.05 9.629999999999999, 12.975000000000001 9.735, 13.14 9.84 C 13.38 9.84, 13.170000000000002 9.78, 13.620000000000001 9.84 C 14.280000000000001 9.96, 13.785 9.945, 14.940000000000001 10.08 C 16.590000000000003 10.23, 16.485000000000003 10.305, 18.240000000000002 10.379999999999999 C 20.1 10.379999999999999, 20.205000000000002 10.395, 21.96 10.379999999999999 C 23.61 10.35, 23.639999999999997 10.379999999999999, 25.259999999999998 10.32 C 26.85 10.23, 27.225 10.23, 28.44 10.14 C 29.28 10.05, 29.58 10.004999999999999, 30.119999999999997 9.959999999999999 C 30.36 9.959999999999999, 30.374999999999996 9.959999999999999, 30.599999999999998 9.959999999999999 C 30.81 9.959999999999999, 30.674999999999997 9.959999999999999, 31.02 9.959999999999999 C 31.5 9.959999999999999, 31.665 9.959999999999999, 31.98 9.959999999999999 C 32.13 9.959999999999999, 32.175 9.959999999999999, 32.28 9.959999999999999 C 32.34 9.959999999999999, 32.370000000000005 9.959999999999999, 32.400000000000006 9.959999999999999 L 32.400000000000006 9.959999999999999" fill="none" stroke="black" stroke-width="5"></path><path d="M 17.4 10.44 C 17.009999999999998 11.19, 17.085 11.04, 16.62 11.94 C 16.08 12.989999999999998, 16.035 12.87, 15.54 14.04 C 15.09 15.33, 15.120000000000001 15.33, 14.64 16.62 C 14.13 17.910000000000004, 14.100000000000001 18.015000000000004, 13.620000000000001 19.200000000000003 C 13.170000000000002 20.28, 13.065000000000001 20.475, 12.72 21.36 C 12.48 22.05, 12.48 22.020000000000003, 12.24 22.740000000000002 C 12 23.490000000000002, 11.97 23.490000000000002, 11.76 24.240000000000002 C 11.579999999999998 24.990000000000002, 11.489999999999998 25.065, 11.399999999999999 25.740000000000002 C 11.399999999999999 26.340000000000003, 11.399999999999999 26.445, 11.399999999999999 26.94 C 11.399999999999999 27.33, 11.399999999999999 27.3, 11.399999999999999 27.72 C 11.399999999999999 28.169999999999998, 11.354999999999999 28.275, 11.399999999999999 28.619999999999997 C 11.489999999999998 28.86, 11.37 28.845, 11.58 29.099999999999998 C 11.91 29.369999999999997, 11.955 29.445, 12.24 29.64 C 12.48 29.76, 12.315000000000001 29.700000000000003, 12.72 29.880000000000003 C 13.29 30.12, 13.23 30.195, 13.86 30.36 C 14.55 30.45, 14.415 30.494999999999997, 15.24 30.54 C 16.2 30.54, 16.095 30.54, 17.16 30.54 C 18.33 30.54, 18.21 30.6, 19.5 30.54 C 20.91 30.419999999999998, 21.21 30.404999999999998, 22.32 30.299999999999997 C 23.130000000000003 30.209999999999997, 23.07 30.239999999999995, 23.94 30.119999999999997 C 24.869999999999997 29.97, 25.095 29.939999999999998, 25.799999999999997 29.82 C 26.279999999999998 29.73, 26.279999999999998 29.685000000000002, 26.759999999999998 29.64 C 27.24 29.64, 27.45 29.64, 27.72 29.64 C 27.779999999999998 29.64, 27.809999999999995 29.64, 27.839999999999996 29.64 C 27.839999999999996 29.64, 27.839999999999996 29.64, 27.839999999999996 29.64 L 27.839999999999996 29.64" fill="none" stroke="black" stroke-width="5"></path><path d="M 26.400000000000002 36.18 C 25.98 35.94, 26.099999999999998 35.82, 25.56 35.7 C 24.9 35.7, 24.96 35.685, 24.240000000000002 35.7 C 23.46 35.730000000000004, 23.34 35.595, 22.68 35.76 C 22.14 36.06, 22.155 35.864999999999995, 21.6 36.36 C 21.03 37.05, 20.82 37.035000000000004, 20.46 37.74 C 20.310000000000002 38.46, 20.235 38.43, 20.16 39.18 C 20.16 39.96, 19.995 40.14, 20.16 40.74 C 20.490000000000002 41.16, 20.31 41.144999999999996, 20.82 41.58 C 21.51 42.03, 21.51 42.120000000000005, 22.200000000000003 42.480000000000004 C 22.89 42.75, 22.845000000000002 42.885, 23.580000000000002 43.019999999999996 C 24.36 43.019999999999996, 24.630000000000003 43.05, 25.14 43.019999999999996 C 25.38 42.96, 25.275 43.155, 25.619999999999997 42.900000000000006 C 26.07 42.45, 26.174999999999997 42.345, 26.52 42 C 26.759999999999998 41.76, 26.7 41.91, 27 41.519999999999996 C 27.36 40.98, 27.494999999999997 40.86, 27.72 40.44 C 27.810000000000002 40.14, 27.855 40.26, 27.900000000000002 39.839999999999996 C 27.900000000000002 39.3, 27.900000000000002 39.495, 27.900000000000002 38.76 C 27.900000000000002 37.83, 27.855000000000004 37.905, 27.900000000000002 36.900000000000006 C 27.990000000000002 35.82000000000001, 28.035 35.61, 28.08 34.74 C 28.08 34.08, 28.034999999999997 34.44, 28.08 33.42 C 28.169999999999998 32.040000000000006, 28.154999999999998 32.28, 28.259999999999998 30.660000000000004 C 28.38 28.800000000000004, 28.439999999999998 28.605000000000004, 28.5 26.94 C 28.5 25.47, 28.5 25.365000000000002, 28.5 24 C 28.5 22.740000000000002, 28.455 22.695, 28.5 21.48 C 28.59 20.310000000000002, 28.59 20.490000000000002, 28.68 19.14 C 28.77 17.61, 28.77 17.595000000000002, 28.86 16.080000000000002 C 28.95 14.580000000000002, 28.994999999999997 14.280000000000003, 29.04 13.080000000000002 C 29.04 12.18, 29.04 11.985, 29.04 11.28 C 29.04 10.77, 29.04 10.515, 29.04 10.26 C 29.04 10.26, 29.04 10.26, 29.04 10.26 C 29.04 10.26, 29.04 10.26, 29.04 10.26 L 29.04 10.26" fill="none" stroke="black" stroke-width="5"></path></svg>