<svg width="48" height="48" viewBox="0 0 48 48" xmlns="http://www.w3.org/2000/svg"><path d="M 18.66 5.1 C 18.12 5.67, 18.180000000000003 5.58, 17.580000000000002 6.24 C 16.92 6.99, 16.845 7.065, 16.259999999999998 7.74 C 15.75 8.34, 15.735 8.34, 15.24 8.94 C 14.76 9.54, 14.625 9.675, 14.28 10.14 C 14.07 10.47, 13.98 10.515, 13.86 10.8 C 13.829999999999998 11.04, 13.86 11.084999999999999, 13.799999999999999 11.28 C 13.71 11.43, 13.65 11.385, 13.620000000000001 11.58 C 13.65 11.82, 13.425 11.774999999999999, 13.68 12.059999999999999 C 14.16 12.39, 14.16 12.495000000000001, 14.64 12.72 C 15.120000000000001 12.84, 14.880000000000003 12.855, 15.600000000000001 12.96 C 16.560000000000002 13.05, 16.365000000000002 13.095, 17.52 13.14 C 18.869999999999997 13.14, 18.735 13.245000000000001, 20.22 13.14 C 21.84 12.93, 21.945 12.915000000000001, 23.46 12.72 C 24.87 12.54, 24.810000000000002 12.525, 26.28 12.36 C 27.81 12.209999999999999, 28.139999999999997 12.165, 29.339999999999996 12.059999999999999 C 30.209999999999997 12, 30.494999999999997 11.969999999999999, 31.08 11.94 C 31.38 11.94, 31.485 11.94, 31.68 11.94 C 31.77 11.94, 31.814999999999998 11.94, 31.86 11.94 L 31.86 11.94" fill="none" stroke="black" stroke-width="5"></path><path d="M 12.78 35.46 C 13.77 35.19, 13.92 35.07, 14.76 34.92 C 15.45 34.89, 15.525 34.83, 16.14 34.86 C 16.68 34.95, 16.695 34.83, 17.22 35.04 C 17.73 35.370000000000005, 17.730000000000004 35.205000000000005, 18.240000000000002 35.7 C 18.75 36.36, 18.93 36.525, 19.259999999999998 37.019999999999996 C 19.409999999999997 37.349999999999994, 19.424999999999997 37.2, 19.56 37.68 C 19.68 38.31, 19.74 38.355, 19.799999999999997 38.94 C 19.799999999999997 39.48, 19.844999999999995 39.50999999999999, 19.799999999999997 40.019999999999996 C 19.71 40.5, 19.875 40.53, 19.62 40.980000000000004 C 19.200000000000003 41.400000000000006, 19.32 41.355000000000004, 18.78 41.82 C 18.12 42.33, 18.090000000000003 42.419999999999995, 17.46 42.839999999999996 C 16.86 43.17, 16.755 43.245, 16.259999999999998 43.5 C 15.87 43.68, 15.75 43.769999999999996, 15.48 43.86 C 15.33 43.86, 15.375 43.86, 15.18 43.86 C 14.940000000000001 43.86, 14.97 43.92, 14.700000000000001 43.86 C 14.400000000000002 43.739999999999995, 14.445000000000002 43.8, 14.100000000000001 43.62 C 13.71 43.379999999999995, 13.620000000000001 43.35, 13.32 43.14 C 13.11 42.96, 13.125 43.035000000000004, 12.899999999999999 42.78 C 12.659999999999998 42.45, 12.644999999999998 42.56999999999999, 12.419999999999998 42.12 C 12.209999999999999 41.55, 12.105 41.595, 12 40.980000000000004 C 12 40.32000000000001, 12 40.410000000000004, 12 39.660000000000004 C 12 38.82000000000001, 11.879999999999999 38.955000000000005, 12 37.980000000000004 C 12.24 36.870000000000005, 12.27 36.915, 12.48 35.76 C 12.66 34.56, 12.69 34.425, 12.84 33.36 C 12.96 32.43, 12.96 32.31, 13.080000000000002 31.5 C 13.200000000000001 30.81, 13.125 31.019999999999996, 13.32 30.119999999999997 C 13.59 29.009999999999998, 13.575 28.815, 13.86 27.900000000000002 C 14.16 27.18, 14.100000000000001 27.165000000000003, 14.46 26.46 C 14.879999999999999 25.77, 14.805 25.814999999999998, 15.299999999999999 25.08 C 15.870000000000001 24.299999999999997, 15.930000000000001 24.119999999999997, 16.44 23.52 C 16.89 23.1, 16.83 23.16, 17.34 22.68 C 17.91 22.14, 17.79 22.080000000000002, 18.48 21.6 C 19.29 21.18, 19.200000000000003 21.014999999999997, 20.1 20.759999999999998 C 21.090000000000003 20.67, 21.015 20.625, 22.080000000000002 20.580000000000002 C 23.22 20.580000000000002, 23.115000000000002 20.580000000000002, 24.36 20.580000000000002 C 25.71 20.580000000000002, 26.009999999999998 20.580000000000002, 27.06 20.580000000000002 C 27.81 20.580000000000002, 27.9 20.565, 28.56 20.580000000000002 C 29.130000000000003 20.61, 29.220000000000002 20.565, 29.700000000000003 20.64 C 30.090000000000003 20.759999999999998, 30.165 20.759999999999998, 30.48 20.88 C 30.72 21, 30.675 20.82, 30.96 21.12 C 31.29 21.6, 31.29 21.42, 31.619999999999997 22.080000000000002 C 31.95 22.92, 32.025 22.784999999999997, 32.28 23.759999999999998 C 32.46 24.869999999999997, 32.52 24.63, 32.64 25.98 C 32.7 27.57, 32.73 27.420000000000005, 32.76 29.160000000000004 C 32.76 31.05, 32.894999999999996 31.095, 32.76 32.94 C 32.489999999999995 34.739999999999995, 32.415 35.25, 32.22 36.54 C 32.1 37.31999999999999, 32.085 37.44, 31.98 38.099999999999994 C 31.89 38.64, 31.859999999999996 38.745, 31.799999999999997 39.18 C 31.77 39.51, 31.785000000000004 39.449999999999996, 31.740000000000002 39.839999999999996 C 31.68 40.29, 31.68 40.395, 31.619999999999997 40.74 C 31.56 40.980000000000004, 31.53 41.1, 31.5 41.22 C 31.5 41.22, 31.5 41.22, 31.5 41.22 C 31.5 41.22, 31.5 41.22, 31.5 41.22 C 31.5 41.22, 31.5 41.22, 31.5 41.22 L 31.5 41.22" fill="none" stroke="black" stroke-width="5"></path></svg>