<svg width="48" height="48" viewBox="0 0 48 48" xmlns="http://www.w3.org/2000/svg"><path d="M 18.66 4.0200000000000005 C 18.689999999999998 4.5600000000000005, 18.869999999999997 4.41, 18.72 5.1 C 18.39 5.9399999999999995, 18.464999999999996 5.805, 18.06 6.779999999999999 C 17.58 7.89, 17.655 8.04, 17.1 9 C 16.47 9.81, 16.515 9.705000000000002, 15.84 10.620000000000001 C 15.12 11.64, 15.314999999999998 11.64, 14.399999999999999 12.66 C 13.29 13.68, 13.049999999999999 13.950000000000001, 12.18 14.700000000000001 C 11.55 15.18, 11.235 15.42, 10.92 15.66 L 10.92 15.66" fill="none" stroke="black" stroke-width="5"></path><path d="M 16.080000000000002 9.06 C 16.47 9.09, 16.245 9.105, 16.86 9.120000000000001 C 17.7 9.120000000000001, 17.415 9.120000000000001, 18.54 9.120000000000001 C 19.95 9.120000000000001, 20.115 9.120000000000001, 21.36 9.120000000000001 C 22.439999999999998 9.120000000000001, 22.125 9.120000000000001, 23.52 9.120000000000001 C 25.23 9.120000000000001, 25.695 9.120000000000001, 26.94 9.120000000000001 C 27.72 9.120000000000001, 27.990000000000002 9.105, 28.5 9.120000000000001 L 28.98 9.18" fill="none" stroke="black" stroke-width="5"></path><path d="M 29.339999999999996 3.84 C 29.339999999999996 4.71, 29.099999999999994 4.395, 29.339999999999996 5.58 C 29.819999999999997 7.08, 29.879999999999995 7.215, 30.299999999999997 8.58 C 30.659999999999997 9.81, 30.75 9.96, 31.02 11.040000000000001 C 31.200000000000003 11.969999999999999, 31.200000000000003 11.609999999999998, 31.380000000000003 12.899999999999999 C 31.560000000000002 14.55, 31.605000000000004 14.940000000000001, 31.740000000000002 16.200000000000003 C 31.830000000000002 17.07, 31.875 17.19, 31.92 17.94 C 31.92 18.57, 32.055 18.480000000000004, 31.92 19.200000000000003 C 31.650000000000002 20.01, 31.755000000000003 20.115000000000002, 31.380000000000003 20.82 C 30.900000000000002 21.42, 31.290000000000003 21.345, 30.42 22.02 C 29.160000000000004 22.77, 29.535000000000004 22.845, 27.900000000000002 23.52 C 25.89 24.119999999999997, 25.814999999999998 24.345, 23.88 24.72 C 22.02 24.869999999999997, 22.065 24.945, 20.16 25.02 C 18.21 25.02, 18.075 25.08, 16.259999999999998 25.02 C 14.579999999999998 24.9, 13.889999999999999 24.84, 12.899999999999999 24.78 C 12.599999999999998 24.78, 12.45 24.78, 12.299999999999999 24.78 L 12.299999999999999 24.78" fill="none" stroke="black" stroke-width="5"></path><path d="M 10.86 30.96 C 13.35 31.05, 12.93 30.945, 15.84 31.14 C 19.17 31.44, 19.62 31.470000000000002, 22.5 31.740000000000002 C 24.93 31.98, 25.32 32.1, 27.36 32.22 C 29.01 32.22, 29.610000000000003 32.22, 30.660000000000004 32.22 L 31.56 32.22" fill="none" stroke="black" stroke-width="5"></path><path d="M 9.959999999999999 37.92 C 12.629999999999999 38.22, 12.104999999999999 38.37, 15.299999999999999 38.519999999999996 C 19.02 38.519999999999996, 20.235000000000003 38.519999999999996, 22.740000000000002 38.519999999999996 C 24.03 38.519999999999996, 23.955 38.519999999999996, 25.32 38.519999999999996 C 26.76 38.519999999999996, 26.880000000000003 38.519999999999996, 28.200000000000003 38.519999999999996 L 30.599999999999998 38.519999999999996" fill="none" stroke="black" stroke-width="5"></path></svg>