<svg width="48" height="48" viewBox="0 0 48 48" xmlns="http://www.w3.org/2000/svg"><path d="M 12.24 3.7800000000000002 C 12.24 4.65, 12.045 4.41, 12.24 5.5200000000000005 C 12.629999999999999 6.870000000000001, 12.299999999999999 6.855, 13.02 8.22 C 14.07 9.600000000000001, 14.085 10.005, 15.120000000000001 10.98 C 16.14 11.55, 16.095 11.595, 17.16 12.120000000000001 C 18.27 12.600000000000001, 18.075 12.840000000000002, 19.38 13.080000000000002 C 20.88 13.080000000000002, 21.015 13.260000000000002, 22.38 13.080000000000002 C 23.61 12.72, 23.939999999999998 12.855, 24.839999999999996 12.36 C 25.409999999999997 11.73, 25.59 11.685000000000002, 25.98 11.100000000000001 C 26.19 10.56, 26.19 10.905, 26.400000000000002 10.02 C 26.61 8.79, 26.67 8.565000000000001, 26.82 7.5600000000000005 C 26.91 6.78, 26.955 6.825, 27 6 C 27 5.13, 27 4.8, 27 4.26 C 27 4.05, 27 3.945, 27 3.84 L 27 3.84" fill="none" stroke="black" stroke-width="5"></path><path d="M 20.16 19.080000000000002 C 20.310000000000002 19.380000000000003, 20.385 19.11, 20.46 19.68 C 20.46 20.52, 20.46 20.34, 20.46 21.36 C 20.46 22.56, 20.46 22.619999999999997, 20.46 23.759999999999998 C 20.46 24.84, 20.46 24.450000000000003, 20.46 25.92 C 20.46 27.78, 20.505000000000003 28.035000000000004, 20.46 29.64 C 20.37 30.99, 20.415000000000003 31.199999999999996, 20.28 32.339999999999996 C 20.1 33.269999999999996, 20.205 33.225, 19.919999999999998 34.2 C 19.53 35.22, 19.665 35.31, 19.14 36.24 C 18.48 37.08, 18.57 37.065, 17.82 37.92 C 16.98 38.790000000000006, 16.89 38.940000000000005, 16.14 39.660000000000004 C 15.48 40.230000000000004, 15.285 40.425, 14.82 40.8 C 14.55 40.980000000000004, 14.535 40.980000000000004, 14.28 41.160000000000004 C 14.04 41.34, 13.919999999999998 41.43, 13.799999999999999 41.519999999999996 C 13.799999999999999 41.519999999999996, 13.874999999999998 41.489999999999995, 13.799999999999999 41.519999999999996 L 13.5 41.64" fill="none" stroke="black" stroke-width="5"></path></svg>