<svg width="48" height="48" viewBox="0 0 48 48" xmlns="http://www.w3.org/2000/svg"><path d="M 16.32 6.6000000000000005 C 16.32 7.68, 16.32 7.365, 16.32 8.76 C 16.32 10.469999999999999, 16.26 10.125, 16.32 12.18 C 16.439999999999998 14.58, 16.5 15, 16.56 16.98 C 16.56 18.54, 16.56 18.645000000000003, 16.56 20.1 C 16.56 21.45, 16.544999999999998 21.929999999999996, 16.56 22.799999999999997 C 16.59 23.189999999999998, 16.5 23.07, 16.62 23.580000000000002 C 16.83 24.21, 16.77 24.314999999999998, 17.04 24.839999999999996 C 17.37 25.259999999999998, 17.355000000000004 25.29, 17.700000000000003 25.68 C 18.060000000000002 26.04, 18.09 26.205000000000002, 18.419999999999998 26.400000000000002 C 18.72 26.43, 18.54 26.400000000000002, 19.02 26.46 C 19.68 26.55, 19.439999999999998 26.58, 20.34 26.64 C 21.48 26.67, 21.255000000000003 26.655, 22.62 26.700000000000003 C 24.21 26.76, 24.63 26.79, 25.799999999999997 26.82 C 26.549999999999997 26.82, 26.624999999999996 26.79, 27.299999999999997 26.82 C 27.9 26.880000000000003, 28.125 26.91, 28.5 26.94 C 28.65 26.94, 28.65 26.94, 28.799999999999997 26.94 C 28.949999999999996 26.94, 28.994999999999997 26.94, 29.099999999999998 26.94 C 29.159999999999997 26.94, 29.174999999999997 26.94, 29.22 26.94 C 29.25 26.94, 29.205000000000002 27.060000000000002, 29.28 26.94 C 29.4 26.700000000000003, 29.369999999999997 26.73, 29.52 26.46 C 29.700000000000003 26.16, 29.685000000000002 26.25, 29.880000000000003 25.86 C 30.09 25.380000000000003, 30.104999999999997 25.485000000000003, 30.299999999999997 24.900000000000002 C 30.48 24.21, 30.435000000000002 24.6, 30.660000000000004 23.52 C 30.930000000000003 22.05, 31.005000000000003 22.230000000000004, 31.200000000000003 20.580000000000002 C 31.32 18.75, 31.380000000000003 18.555, 31.44 16.919999999999998 C 31.44 15.479999999999999, 31.44 15.374999999999998, 31.44 14.04 C 31.44 12.809999999999999, 31.44 12.84, 31.44 11.58 C 31.44 10.29, 31.44 10.035, 31.44 9 C 31.44 8.219999999999999, 31.455000000000002 7.994999999999999, 31.44 7.4399999999999995 C 31.410000000000004 7.109999999999999, 31.455000000000002 7.034999999999999, 31.380000000000003 6.779999999999999 C 31.26 6.6, 31.29 6.5249999999999995, 31.14 6.42 C 30.96 6.390000000000001, 30.945 6.375, 30.78 6.36 C 30.630000000000003 6.36, 30.75 6.33, 30.48 6.36 C 30.090000000000003 6.42, 30.120000000000005 6.2700000000000005, 29.700000000000003 6.48 C 29.25 6.84, 29.159999999999997 6.809999999999999, 28.799999999999997 7.199999999999999 C 28.529999999999998 7.62, 28.514999999999997 7.575000000000001, 28.259999999999998 8.040000000000001 C 28.02 8.55, 28.035 8.49, 27.78 9.06 C 27.51 9.690000000000001, 27.645000000000003 9.510000000000002, 27.240000000000002 10.32 C 26.700000000000003 11.309999999999999, 26.730000000000004 11.219999999999999, 26.160000000000004 12.299999999999999 C 25.560000000000002 13.469999999999999, 25.545 13.575000000000001, 24.96 14.64 C 24.39 15.6, 24.134999999999998 15.989999999999998, 23.82 16.56 C 23.76 16.74, 23.730000000000004 16.83, 23.700000000000003 16.919999999999998 C 23.700000000000003 16.919999999999998, 23.730000000000004 16.874999999999996, 23.700000000000003 16.919999999999998 L 23.580000000000002 17.1" fill="none" stroke="black" stroke-width="5"></path><path d="M 16.38 32.64 C 16.92 32.67, 16.86 32.685, 17.46 32.7 C 18.12 32.7, 18.12 32.7, 18.78 32.7 C 19.44 32.7, 19.185000000000002 32.730000000000004, 20.1 32.7 C 21.270000000000003 32.64, 21.225 32.685, 22.44 32.58 C 23.700000000000003 32.43, 23.790000000000003 32.400000000000006, 24.96 32.28 C 26.04 32.19, 26.264999999999997 32.19, 27.119999999999997 32.099999999999994 C 27.75 32.01, 27.945 31.965, 28.380000000000003 31.92 C 28.62 31.92, 28.695 31.92, 28.86 31.92 C 28.95 31.92, 28.964999999999996 31.92, 29.04 31.92 L 29.160000000000004 31.92" fill="none" stroke="black" stroke-width="5"></path><path d="M 15.72 39.18 C 16.14 39.15, 15.78 39.224999999999994, 16.56 39.12 C 17.7 38.94, 17.97 38.894999999999996, 18.84 38.76 C 19.439999999999998 38.67, 19.169999999999998 38.669999999999995, 20.04 38.58 C 21.18 38.49, 21.18 38.49000000000001, 22.32 38.400000000000006 C 23.46 38.31, 23.49 38.265, 24.599999999999998 38.22 C 25.68 38.22, 25.83 38.22, 26.759999999999998 38.22 C 27.54 38.22, 27.675 38.175, 28.32 38.22 C 28.83 38.31, 29.084999999999997 38.355000000000004, 29.339999999999996 38.400000000000006 L 29.339999999999996 38.400000000000006" fill="none" stroke="black" stroke-width="5"></path></svg>