<svg width="48" height="48" viewBox="0 0 48 48" xmlns="http://www.w3.org/2000/svg"><path d="M 14.76 19.14 C 15.03 19.05, 14.909999999999998 19.035, 15.299999999999999 18.96 C 15.809999999999999 18.9, 15.69 18.975, 16.32 18.84 C 17.07 18.63, 17.16 18.569999999999997, 17.82 18.419999999999998 C 18.39 18.33, 18.405 18.345000000000002, 18.96 18.240000000000002 C 19.5 18.12, 19.53 18.060000000000002, 20.04 18 C 20.52 18, 20.505 18, 21 18 C 21.509999999999998 18, 21.494999999999997 18, 22.02 18 C 22.560000000000002 18, 22.590000000000003 18, 23.1 18 C 23.58 18, 23.7 17.955, 24.06 18 C 24.299999999999997 18.09, 24.18 18.09, 24.54 18.18 C 25.02 18.27, 25.11 18.285, 25.5 18.36 C 25.799999999999997 18.42, 25.83 18.39, 26.099999999999998 18.48 C 26.339999999999996 18.6, 26.325 18.585, 26.58 18.72 C 26.849999999999998 18.869999999999997, 26.865 18.825, 27.119999999999997 19.02 C 27.36 19.259999999999998, 27.284999999999997 19.095, 27.599999999999998 19.5 C 27.990000000000002 20.07, 28.065 20.04, 28.380000000000003 20.64 C 28.62 21.27, 28.68 21.314999999999998, 28.86 21.9 C 28.979999999999997 22.439999999999998, 29.025 22.259999999999998, 29.099999999999998 22.98 C 29.130000000000003 23.880000000000003, 29.145000000000003 23.64, 29.160000000000004 24.78 C 29.160000000000004 26.16, 29.160000000000004 25.95, 29.160000000000004 27.54 C 29.160000000000004 29.34, 29.160000000000004 29.700000000000003, 29.160000000000004 31.14 C 29.160000000000004 32.22, 29.160000000000004 32.294999999999995, 29.160000000000004 33.3 C 29.160000000000004 34.230000000000004, 29.205000000000005 34.32, 29.160000000000004 35.160000000000004 C 29.07 35.910000000000004, 29.07 35.910000000000004, 28.98 36.660000000000004 C 28.89 37.410000000000004, 28.934999999999995 37.35, 28.799999999999997 38.160000000000004 C 28.619999999999997 39.03, 28.605 39.04500000000001, 28.44 39.900000000000006 C 28.29 40.74, 28.215 40.89, 28.14 41.58 C 28.14 42.120000000000005, 28.14 42.39, 28.14 42.660000000000004 C 28.14 42.660000000000004, 28.14 42.660000000000004, 28.14 42.660000000000004 L 28.14 42.660000000000004" fill="none" stroke="black" stroke-width="5"></path><path d="M 27.06 4.68 C 26.22 5.55, 26.115000000000002 5.685, 25.380000000000003 6.42 C 24.75 7.02, 24.81 6.93, 24.119999999999997 7.62 C 23.369999999999997 8.4, 23.28 8.459999999999999, 22.62 9.18 C 22.05 9.84, 22.065 9.870000000000001, 21.48 10.5 C 20.880000000000003 11.1, 20.700000000000003 11.264999999999999, 20.28 11.7 C 20.04 11.969999999999999, 20.099999999999998 11.940000000000001, 19.799999999999997 12.24 C 19.439999999999998 12.57, 19.335 12.645, 19.080000000000002 12.899999999999999 L 18.78 13.26" fill="none" stroke="black" stroke-width="5"></path><path d="M 20.82 27.599999999999998 C 20.1 28.409999999999997, 19.86 28.485, 19.38 29.22 C 19.14 29.88, 18.93 30.015, 18.9 30.54 C 19.08 30.93, 19.005 31.065, 19.259999999999998 31.32 C 19.589999999999996 31.439999999999998, 19.499999999999996 31.71, 19.919999999999998 31.56 C 20.43 31.14, 20.64 31.169999999999998, 20.94 30.72 C 21.03 30.24, 21.075000000000003 30.15, 21.12 29.759999999999998 C 21.12 29.46, 21.135 29.460000000000004, 21.12 29.160000000000004 C 21.09 28.86, 21.345 28.755, 21.06 28.56 C 20.52 28.47, 20.565 28.26, 19.98 28.380000000000003 C 19.35 28.71, 19.169999999999998 28.5, 18.72 29.04 C 18.45 29.79, 18.314999999999998 29.97, 18.18 30.54 C 18.18 30.93, 17.939999999999998 31.065, 18.18 31.32 C 18.66 31.439999999999998, 18.69 31.68, 19.14 31.56 C 19.560000000000002 31.199999999999996, 19.725 31.289999999999996, 19.98 30.839999999999996 C 20.07 30.299999999999997, 20.115000000000002 30.104999999999997, 20.16 29.759999999999998 C 20.16 29.61, 20.16 29.595, 20.16 29.46 C 20.16 29.34, 20.43 29.159999999999997, 20.16 29.22 C 19.62 29.46, 19.410000000000004 29.310000000000002, 19.080000000000002 29.700000000000003 C 18.96 30.240000000000002, 18.9 30.51, 18.84 30.78 L 18.84 30.78" fill="none" stroke="black" stroke-width="5"></path></svg>