<svg width="48" height="48" viewBox="0 0 48 48" xmlns="http://www.w3.org/2000/svg"><path d="M 16.5 43.86 C 16.5 43.86, 16.5 44.445, 16.5 43.86 C 16.5 42.69, 16.515 43.66499999999999, 16.5 41.519999999999996 C 16.47 38.4, 16.515 37.77, 16.44 35.28 C 16.32 33.42, 16.305000000000003 33.254999999999995, 16.200000000000003 31.56 C 16.11 30.03, 16.11 29.94, 16.02 28.5 C 15.93 27.15, 15.93 26.864999999999995, 15.84 25.799999999999997 C 15.75 25.02, 15.705 25.035, 15.66 24.240000000000002 C 15.66 23.43, 15.66 23.415000000000003, 15.66 22.62 C 15.66 21.84, 15.645 21.869999999999997, 15.66 21.06 C 15.690000000000001 20.22, 15.705 19.875, 15.72 19.38 C 15.72 19.23, 15.645000000000001 19.32, 15.72 19.080000000000002 C 15.870000000000001 18.75, 15.78 18.705, 16.02 18.419999999999998 C 16.35 18.18, 16.23 18.12, 16.68 17.94 C 17.25 17.82, 16.98 17.85, 17.82 17.700000000000003 C 18.93 17.520000000000003, 18.96 17.475, 20.04 17.34 C 21.09 17.25, 20.925 17.25, 22.14 17.16 C 23.520000000000003 17.07, 23.805000000000003 17.025, 24.900000000000002 16.98 C 25.71 16.98, 25.665 16.98, 26.52 16.98 C 27.42 16.98, 27.63 16.935000000000002, 28.32 16.98 C 28.8 17.07, 28.845000000000002 17.055, 29.28 17.16 C 29.67 17.28, 29.61 17.159999999999997, 30.06 17.4 C 30.57 17.759999999999998, 30.63 17.685000000000002, 31.08 18.12 C 31.47 18.630000000000003, 31.485 18.42, 31.86 19.14 C 32.22 20.07, 32.205 19.695, 32.58 21 C 32.97 22.68, 33.12 22.35, 33.36 24.36 C 33.45 26.7, 33.495 26.85, 33.54 29.04 C 33.54 31.08, 33.614999999999995 31.244999999999997, 33.54 33.12 C 33.39 34.83, 33.480000000000004 35.175, 33.24 36.54 C 32.91 37.56, 33.06 37.605, 32.58 38.58 C 31.95 39.51, 31.98 39.629999999999995, 31.32 40.44 C 30.630000000000003 41.129999999999995, 30.735 41.22, 29.94 41.82 C 29.04 42.33, 28.785 42.525, 28.14 42.839999999999996 C 27.75 42.959999999999994, 27.765 43.065, 27.36 43.08 C 26.939999999999998 42.99, 27.06 43.33500000000001, 26.52 42.900000000000006 C 25.86 42.120000000000005, 25.800000000000004 42.464999999999996, 25.200000000000003 41.339999999999996 C 24.66 39.870000000000005, 24.39 39.525000000000006, 24.119999999999997 38.400000000000006 C 24.119999999999997 37.620000000000005, 24.104999999999997 37.68, 24.119999999999997 36.839999999999996 C 24.15 35.94, 24.03 35.805, 24.18 35.04 C 24.45 34.41, 24.255 34.44, 24.72 33.78 C 25.38 33.09, 25.424999999999997 32.89500000000001, 26.04 32.400000000000006 C 26.61 32.1, 26.475 32.025, 27.18 31.799999999999997 C 28.02 31.65, 28.11 31.575, 28.86 31.5 C 29.52 31.5, 29.61 31.485, 30.18 31.5 C 30.66 31.53, 30.75 31.485, 31.14 31.56 C 31.44 31.68, 31.500000000000004 31.649999999999995, 31.740000000000002 31.799999999999997 C 31.919999999999998 31.98, 31.889999999999993 31.980000000000004, 32.099999999999994 32.160000000000004 C 32.339999999999996 32.34, 32.37 32.4, 32.58 32.519999999999996 C 32.76 32.58, 32.775 32.519999999999996, 32.94 32.64 C 33.09 32.82, 33.120000000000005 32.865, 33.24 33 C 33.33 33.09, 33.375 33.135, 33.42 33.18 C 33.42 33.18, 33.42 33.18, 33.42 33.18 C 33.42 33.18, 33.42 33.18, 33.42 33.18 L 33.42 33.18" fill="none" stroke="black" stroke-width="5"></path><path d="M 28.98 3.24 C 28.23 4.08, 28.11 4.245, 27.48 4.92 C 26.97 5.43, 27.27 5.129999999999999, 26.46 5.9399999999999995 C 25.35 7.05, 25.245 7.155, 24.240000000000002 8.16 C 23.340000000000003 9.059999999999999, 23.310000000000002 9.044999999999998, 22.44 9.959999999999999 L 20.759999999999998 11.82" fill="none" stroke="black" stroke-width="5"></path></svg>