<svg width="48" height="48" viewBox="0 0 48 48" xmlns="http://www.w3.org/2000/svg"><path d="M 12.66 4.199999999999999 C 12.57 5.549999999999999, 12.585 5.489999999999999, 12.48 6.8999999999999995 C 12.36 8.37, 12.285 7.935, 12.24 9.84 C 12.27 12.18, 12.239999999999998 12.149999999999999, 12.299999999999999 14.52 C 12.39 16.92, 12.36 17.34, 12.48 19.32 C 12.629999999999999 20.880000000000003, 12.57 20.61, 12.78 22.44 C 13.05 24.54, 13.095 25.155, 13.32 26.64 C 13.5 27.51, 13.44 27.510000000000005, 13.68 28.380000000000003 C 13.98 29.25, 13.86 29.459999999999997, 14.28 30.119999999999997 C 14.82 30.57, 15.014999999999999 30.794999999999998, 15.36 31.02 C 15.51 31.02, 15.435 31.02, 15.66 31.02 C 15.959999999999999 31.02, 15.915 31.02, 16.259999999999998 31.02 C 16.65 31.02, 16.604999999999997 31.125, 17.04 31.02 C 17.52 30.81, 17.55 30.854999999999997, 18 30.599999999999998 C 18.42 30.299999999999997, 18.525 30.36, 18.84 30 C 19.049999999999997 29.580000000000002, 19.095 29.610000000000003, 19.259999999999998 29.160000000000004 C 19.38 28.680000000000003, 19.38 28.755000000000003, 19.5 28.200000000000003 C 19.62 27.57, 19.650000000000002 27.615000000000002, 19.740000000000002 26.94 C 19.8 26.22, 19.83 26.115000000000002, 19.86 25.5 C 19.86 24.990000000000002, 19.86 24.96, 19.86 24.48 C 19.86 24.03, 19.86 23.85, 19.86 23.580000000000002 C 19.86 23.490000000000002, 19.86 23.535, 19.86 23.4 C 19.86 23.22, 19.785 23.46, 19.86 23.04 C 20.009999999999998 22.38, 20.085 22.155, 20.16 21.72 C 20.16 21.509999999999998, 20.16 21.404999999999998, 20.16 21.299999999999997 C 20.16 21.299999999999997, 20.07 21.33, 20.16 21.299999999999997 C 20.34 21.24, 20.4 20.895, 20.52 21.18 C 20.58 21.810000000000002, 20.61 21.78, 20.64 22.44 C 20.64 23.130000000000003, 20.64 23.07, 20.64 23.82 C 20.64 24.630000000000003, 20.64 24.645000000000003, 20.64 25.44 C 20.64 26.22, 20.580000000000002 26.205000000000002, 20.64 27 C 20.759999999999998 27.81, 20.715 27.944999999999997, 20.88 28.619999999999997 C 21.089999999999996 29.16, 21.029999999999998 29.265, 21.299999999999997 29.700000000000003 C 21.63 30.03, 21.63 30.09, 21.96 30.36 C 22.29 30.57, 22.185000000000002 30.630000000000003, 22.62 30.78 C 23.160000000000004 30.87, 23.160000000000004 30.915, 23.700000000000003 30.96 C 24.240000000000002 30.96, 24.315 30.975, 24.78 30.96 C 25.17 30.93, 25.185 31.080000000000002, 25.56 30.900000000000002 C 25.92 30.57, 25.965 30.735000000000003, 26.28 30.240000000000002 C 26.55 29.580000000000002, 26.595 29.67, 26.82 28.92 C 27 28.080000000000002, 26.88 28.380000000000003, 27.18 27.240000000000002 C 27.6 25.8, 27.72 25.575, 28.02 24.36 C 28.200000000000003 23.369999999999997, 28.245000000000005 23.549999999999997, 28.380000000000003 22.38 C 28.47 21.03, 28.515 21.134999999999998, 28.56 19.68 C 28.56 18.119999999999997, 28.56 17.91, 28.56 16.56 C 28.56 15.419999999999998, 28.575 15.239999999999998, 28.56 14.28 C 28.53 13.5, 28.56 13.56, 28.5 12.72 C 28.41 11.82, 28.44 11.895, 28.32 10.92 C 28.17 9.870000000000001, 28.185 9.705, 28.02 8.82 C 27.840000000000003 8.1, 27.840000000000003 8.025, 27.660000000000004 7.38 C 27.48 6.8100000000000005, 27.419999999999998 6.675000000000001, 27.299999999999997 6.24 C 27.24 5.9399999999999995, 27.24 5.835, 27.18 5.64 C 27.119999999999997 5.55, 27.104999999999997 5.55, 27.06 5.46 C 27.03 5.37, 27.015 5.325, 27 5.28 C 27 5.28, 27.045 5.325, 27 5.28 C 26.91 5.1899999999999995, 26.94 5.16, 26.82 5.1 C 26.67 5.07, 26.759999999999998 5.025, 26.52 5.04 C 26.189999999999998 5.1, 26.1 5.07, 25.86 5.16 C 25.71 5.28, 25.724999999999998 5.295, 25.56 5.4 C 25.380000000000003 5.49, 25.365000000000002 5.415, 25.200000000000003 5.58 C 25.050000000000004 5.82, 25.125000000000004 5.775, 24.900000000000002 6.0600000000000005 C 24.6 6.390000000000001, 24.584999999999997 6.315000000000001, 24.299999999999997 6.720000000000001 C 24.029999999999998 7.2, 24.104999999999997 7.17, 23.759999999999998 7.68 C 23.339999999999996 8.219999999999999, 23.309999999999995 8.115, 22.919999999999998 8.76 C 22.560000000000002 9.51, 22.650000000000002 9.48, 22.200000000000003 10.26 C 21.660000000000004 11.07, 21.645000000000003 11.024999999999999, 21.12 11.879999999999999 C 20.61 12.78, 20.430000000000003 13.065, 20.1 13.68 C 19.95 14.01, 19.964999999999996 14.01, 19.799999999999997 14.34 C 19.619999999999997 14.67, 19.53 14.835, 19.44 15 C 19.44 15, 19.44 15, 19.44 15 L 19.44 15" fill="none" stroke="black" stroke-width="5"></path><path d="M 10.379999999999999 39.72 C 11.49 39.72, 11.310000000000002 39.87, 12.600000000000001 39.72 C 14.07 39.42, 14.055 39.449999999999996, 15.54 39.12 C 17.04 38.760000000000005, 16.95 38.745000000000005, 18.54 38.400000000000006 C 20.22 38.07000000000001, 20.445 37.905, 21.9 37.74 C 23.13 37.74, 23.04 37.74, 24.36 37.74 C 25.77 37.74, 26.145 37.74, 27.18 37.74 C 27.84 37.74, 28.02 37.74, 28.5 37.74 L 29.099999999999998 37.74" fill="none" stroke="black" stroke-width="5"></path></svg>