<svg width="48" height="48" viewBox="0 0 48 48" xmlns="http://www.w3.org/2000/svg"><path d="M 16.799999999999997 30.660000000000004 C 17.009999999999998 31.410000000000004, 17.025 31.290000000000006, 17.22 32.160000000000004 C 17.4 33.150000000000006, 17.490000000000002 33.195, 17.580000000000002 34.14 C 17.580000000000002 35.04, 17.580000000000002 35.16, 17.580000000000002 35.94 C 17.580000000000002 36.599999999999994, 17.730000000000004 36.599999999999994, 17.580000000000002 37.26 C 17.28 37.92, 17.22 38.01, 16.98 38.58 C 16.8 39.06, 16.935000000000002 38.97, 16.62 39.54 C 16.17 40.2, 16.23 40.379999999999995, 15.72 40.86 C 15.150000000000002 41.16, 15.300000000000002 41.22, 14.580000000000002 41.46 C 13.71 41.64, 13.350000000000001 41.730000000000004, 12.84 41.82 C 12.69 41.82, 12.735 41.82, 12.54 41.82 C 12.299999999999999 41.82, 12.404999999999998 42.075, 12.059999999999999 41.82 C 11.61 41.31, 11.565 41.519999999999996, 11.16 40.8 C 10.8 39.87, 10.709999999999999 39.9, 10.44 38.94 C 10.26 37.95, 10.305 38.144999999999996, 10.08 36.96 C 9.81 35.58, 9.765 35.52, 9.540000000000001 34.2 C 9.36 32.94, 9.315 32.985, 9.18 31.68 C 9.09 30.33, 9.045 30.36, 9 28.98 C 9 27.57, 9 27.345000000000002, 9 26.160000000000004 C 9 25.200000000000003, 9 25.215000000000003, 9 24.240000000000002 C 9 23.25, 9 22.95, 9 22.259999999999998 C 9 21.869999999999997, 9 21.855, 9 21.48 C 9 21.119999999999997, 8.865 21.194999999999997, 9 20.759999999999998 C 9.27 20.25, 9.225000000000001 20.16, 9.540000000000001 19.740000000000002 C 9.9 19.410000000000004, 9.795 19.395000000000003, 10.26 19.080000000000002 C 10.829999999999998 18.78, 10.814999999999998 18.675, 11.399999999999999 18.48 C 12 18.39, 11.835 18.374999999999996, 12.600000000000001 18.299999999999997 C 13.530000000000001 18.24, 13.23 18.27, 14.46 18.18 C 15.99 18.060000000000002, 15.989999999999998 18.045, 17.52 17.94 C 19.05 17.85, 19.32 17.849999999999998, 20.580000000000002 17.759999999999998 C 21.57 17.67, 21.945 17.625, 22.56 17.580000000000002 C 22.799999999999997 17.580000000000002, 22.89 17.580000000000002, 23.04 17.580000000000002 C 23.1 17.580000000000002, 23.13 17.580000000000002, 23.16 17.580000000000002 L 23.16 17.580000000000002" fill="none" stroke="black" stroke-width="5"></path><path d="M 21.299999999999997 3.3000000000000003 C 20.88 3.63, 20.925 3.54, 20.46 3.96 C 19.950000000000003 4.47, 20.16 4.215, 19.44 4.9799999999999995 C 18.51 6, 18.285000000000004 6.209999999999999, 17.580000000000002 7.02 C 17.1 7.62, 17.085 7.620000000000001, 16.62 8.22 C 16.17 8.82, 16.23 8.835, 15.72 9.42 C 15.150000000000002 9.99, 15.120000000000003 9.99, 14.580000000000002 10.56 C 14.07 11.129999999999999, 13.934999999999999 11.295, 13.559999999999999 11.7 C 13.32 11.94, 13.245000000000001 12.015, 13.080000000000002 12.18 C 12.99 12.27, 12.945 12.315, 12.899999999999999 12.36 C 12.899999999999999 12.36, 12.899999999999999 12.36, 12.899999999999999 12.36 C 12.899999999999999 12.36, 12.899999999999999 12.36, 12.899999999999999 12.36 C 12.899999999999999 12.36, 12.899999999999999 12.36, 12.899999999999999 12.36 L 12.899999999999999 12.36" fill="none" stroke="black" stroke-width="5"></path></svg>