<svg width="48" height="48" viewBox="0 0 48 48" xmlns="http://www.w3.org/2000/svg"><path d="M 13.559999999999999 30.96 C 13.379999999999999 30.63, 13.335 30.839999999999996, 13.200000000000001 30.299999999999997 C 13.11 29.549999999999997, 13.11 29.549999999999997, 13.02 28.799999999999997 C 12.93 28.049999999999997, 12.915 28.095, 12.84 27.299999999999997 C 12.780000000000001 26.459999999999997, 12.75 26.609999999999996, 12.72 25.619999999999997 C 12.72 24.479999999999997, 12.72 24.18, 12.72 23.34 C 12.72 22.799999999999997, 12.72 22.77, 12.72 22.259999999999998 C 12.72 21.779999999999998, 12.72 21.764999999999997, 12.72 21.299999999999997 C 12.72 20.849999999999998, 12.63 20.865, 12.72 20.4 C 12.900000000000002 19.92, 12.870000000000003 19.965000000000003, 13.080000000000002 19.44 C 13.32 18.869999999999997, 13.364999999999998 18.705, 13.559999999999999 18.299999999999997 C 13.709999999999999 18.06, 13.53 18.134999999999998, 13.86 17.82 C 14.37 17.43, 14.504999999999999 17.235, 14.879999999999999 17.04 C 15.12 17.04, 15.015 17.04, 15.36 17.04 C 15.809999999999999 17.04, 15.884999999999998 16.994999999999997, 16.259999999999998 17.04 C 16.56 17.13, 16.544999999999998 16.89, 16.86 17.22 C 17.189999999999998 17.79, 17.265 17.82, 17.52 18.36 C 17.7 18.869999999999997, 17.715 18.689999999999998, 17.88 19.38 C 18.03 20.25, 18.015 20.19, 18.18 21.12 C 18.36 22.11, 18.45 22.560000000000002, 18.54 23.1 C 18.54 23.19, 18.494999999999997 23.16, 18.54 23.28 C 18.63 23.43, 18.674999999999997 23.505000000000003, 18.72 23.580000000000002 C 18.72 23.580000000000002, 18.72 23.655, 18.72 23.580000000000002 C 18.72 23.43, 18.659999999999997 23.685000000000002, 18.72 23.28 C 18.84 22.62, 18.795 22.605, 18.96 21.96 C 19.17 21.330000000000002, 19.23 21.180000000000003, 19.38 20.700000000000003 C 19.47 20.37, 19.349999999999998 20.490000000000002, 19.56 20.04 C 19.89 19.47, 19.994999999999997 19.305, 20.22 18.9 C 20.34 18.659999999999997, 20.25 18.705, 20.46 18.419999999999998 C 20.759999999999998 18.089999999999996, 20.759999999999998 18.074999999999996, 21.06 17.759999999999998 C 21.36 17.46, 21.18 17.505, 21.66 17.16 C 22.32 16.77, 22.395 16.65, 22.98 16.38 C 23.490000000000002 16.23, 23.325 16.155, 24 16.080000000000002 C 24.84 16.080000000000002, 24.915 16.080000000000002, 25.68 16.080000000000002 C 26.369999999999997 16.080000000000002, 26.49 16.080000000000002, 27.06 16.080000000000002 C 27.509999999999998 16.080000000000002, 27.54 16.080000000000002, 27.96 16.080000000000002 C 28.35 16.080000000000002, 28.5 16.080000000000002, 28.740000000000002 16.080000000000002 L 28.92 16.080000000000002" fill="none" stroke="black" stroke-width="5"></path><path d="M 27.18 3.4799999999999995 C 26.52 3.9599999999999995, 26.625 3.914999999999999, 25.86 4.4399999999999995 C 24.99 5.01, 25.139999999999997 5.01, 24.119999999999997 5.58 C 22.95 6.15, 23.055 6.120000000000001, 21.78 6.720000000000001 C 20.4 7.3500000000000005, 20.325 7.41, 19.02 7.98 C 17.79 8.49, 17.895 8.445, 16.56 9 C 15.12 9.6, 14.61 9.794999999999998, 13.68 10.2 C 13.26 10.41, 13.05 10.515, 12.84 10.620000000000001 L 12.84 10.620000000000001" fill="none" stroke="black" stroke-width="5"></path><path d="M 23.16 16.799999999999997 C 23.16 17.759999999999998, 23.16 17.625, 23.16 18.72 C 23.16 19.95, 23.115000000000002 19.994999999999997, 23.16 21.18 C 23.25 22.32, 23.295 22.335, 23.34 23.46 C 23.34 24.57, 23.34 24.645, 23.34 25.68 C 23.34 26.64, 23.43 26.595, 23.34 27.599999999999998 C 23.16 28.65, 23.205 28.680000000000003, 22.98 29.700000000000003 C 22.71 30.69, 22.725 30.72, 22.44 31.68 C 22.14 32.61, 22.185000000000002 32.685, 21.84 33.54 C 21.45 34.31999999999999, 21.494999999999997 34.30499999999999, 21.06 35.099999999999994 C 20.58 35.91, 20.700000000000003 35.94, 20.1 36.72 C 19.380000000000003 37.47, 19.365000000000002 37.5, 18.66 38.22 C 17.97 38.91, 17.91 38.99999999999999, 17.28 39.599999999999994 C 16.71 40.11, 16.845 40.08, 16.14 40.62 C 15.3 41.19, 15.315000000000001 41.235, 14.46 41.76 C 13.59 42.239999999999995, 13.485000000000001 42.315, 12.72 42.72 C 12.059999999999999 43.05, 11.849999999999998 43.14, 11.399999999999999 43.38 C 11.16 43.53, 11.04 43.605000000000004, 10.92 43.68 L 10.92 43.68" fill="none" stroke="black" stroke-width="5"></path><path d="M 18.36 38.94 C 19.05 38.94, 18.87 39.074999999999996, 19.740000000000002 38.94 C 20.79 38.67, 20.505000000000003 38.67, 21.84 38.400000000000006 C 23.46 38.13, 23.729999999999997 37.995000000000005, 25.08 37.86 C 26.16 37.86, 26.415 37.86, 27.240000000000002 37.86 C 27.810000000000002 37.86, 28.095000000000002 37.86, 28.380000000000003 37.86 L 28.380000000000003 37.86" fill="none" stroke="black" stroke-width="5"></path></svg>