<svg width="48" height="48" viewBox="0 0 48 48" xmlns="http://www.w3.org/2000/svg"><path d="M 19.5 5.76 C 18.84 7.2299999999999995, 18.855 7.26, 18.18 8.7 C 17.49 10.11, 17.384999999999998 10.049999999999999, 16.799999999999997 11.52 C 16.32 13.05, 16.41 12.690000000000001, 15.84 14.580000000000002 C 15.18 16.830000000000002, 15.195 17.025000000000002, 14.52 19.080000000000002 C 13.83 20.939999999999998, 13.620000000000001 21.479999999999997, 13.14 22.799999999999997 C 12.870000000000001 23.58, 12.900000000000002 23.354999999999997, 12.600000000000001 24.36 C 12.27 25.59, 12.105 25.814999999999998, 11.94 26.82 C 11.94 27.6, 11.895 27.750000000000004, 11.94 28.380000000000003 C 12.030000000000001 28.86, 11.955 28.934999999999995, 12.120000000000001 29.339999999999996 C 12.360000000000001 29.669999999999998, 12.225000000000001 29.61, 12.600000000000001 30 C 13.110000000000001 30.450000000000003, 13.065000000000001 30.57, 13.620000000000001 30.900000000000002 C 14.22 31.11, 13.605 31.05, 14.82 31.32 C 16.65 31.65, 16.335 31.815, 18.48 31.98 C 20.939999999999998 31.98, 21.57 31.98, 23.4 31.98 C 24.599999999999998 31.98, 24.494999999999997 31.98, 25.799999999999997 31.98 C 27.209999999999997 31.98, 27.915 31.98, 28.619999999999997 31.98 C 28.619999999999997 31.98, 28.619999999999997 31.98, 28.619999999999997 31.98 L 28.619999999999997 31.98" fill="none" stroke="black" stroke-width="5"></path><path d="M 11.94 39.72 C 13.2 39.81, 12.855 39.75000000000001, 14.46 39.900000000000006 C 16.41 40.11, 16.155 40.17, 18.36 40.32 C 20.82 40.41, 21.165 40.455, 23.28 40.5 C 25.05 40.5, 25.5 40.5, 26.82 40.5 C 27.689999999999998 40.5, 28.095 40.5, 28.56 40.5 C 28.619999999999997 40.5, 28.65 40.5, 28.68 40.5 L 28.68 40.5" fill="none" stroke="black" stroke-width="5"></path></svg>