<svg width="48" height="48" viewBox="0 0 48 48" xmlns="http://www.w3.org/2000/svg"><path d="M 15.96 4.14 C 14.790000000000001 5.970000000000001, 14.520000000000001 6.330000000000001, 13.620000000000001 7.800000000000001 C 12.99 8.91, 12.93 8.865, 12.36 10.02 C 11.85 11.219999999999999, 11.7 11.129999999999999, 11.34 12.419999999999998 C 11.129999999999999 13.799999999999999, 11.025 14.16, 10.92 15.18 C 10.92 15.84, 10.71 15.915, 10.92 16.5 C 11.34 17.009999999999998, 11.295 17.1, 11.76 17.52 C 12.27 17.85, 12.149999999999999 17.895, 12.78 18.18 C 13.53 18.42, 13.334999999999999 18.465, 14.28 18.66 C 15.419999999999998 18.810000000000002, 15.239999999999998 18.885, 16.56 18.96 C 18.06 18.96, 18.075 18.96, 19.56 18.96 C 21.03 18.96, 20.88 18.96, 22.5 18.96 C 24.27 18.96, 24.78 18.96, 26.04 18.96 C 26.79 18.96, 27.119999999999997 18.96, 27.54 18.96 C 27.63 18.96, 27.674999999999997 18.96, 27.72 18.96 L 27.72 18.96" fill="none" stroke="black" stroke-width="5"></path><path d="M 15.899999999999999 18.419999999999998 C 15.99 19.29, 15.840000000000002 19.38, 16.080000000000002 20.16 C 16.47 20.85, 16.335 20.85, 16.86 21.54 C 17.52 22.229999999999997, 17.415 22.169999999999998, 18.18 22.919999999999998 C 19.049999999999997 23.729999999999997, 18.99 23.895, 19.919999999999998 24.54 C 20.909999999999997 25.02, 20.924999999999997 25.11, 21.9 25.5 C 22.86 25.799999999999997, 22.905 25.919999999999998, 23.82 26.099999999999998 C 24.689999999999998 26.159999999999997, 24.974999999999998 26.189999999999998, 25.56 26.22 C 25.86 26.22, 25.965000000000003 26.22, 26.160000000000004 26.22 C 26.25 26.22, 26.294999999999998 26.22, 26.339999999999996 26.22 L 26.339999999999996 26.22" fill="none" stroke="black" stroke-width="5"></path><path d="M 25.86 26.22 C 24.240000000000002 26.52, 24.075000000000003 26.490000000000002, 22.62 26.82 C 21.33 27.18, 21.314999999999998 27.045, 20.04 27.54 C 18.78 28.169999999999998, 18.54 28.154999999999998, 17.52 28.799999999999997 C 16.740000000000002 29.459999999999997, 16.665 29.384999999999998, 15.96 30.119999999999997 C 15.330000000000002 30.93, 15.255 30.945, 14.700000000000001 31.740000000000002 C 14.22 32.519999999999996, 14.025 32.55, 13.74 33.3 C 13.649999999999999 34.019999999999996, 13.649999999999999 34.11, 13.559999999999999 34.74 C 13.469999999999999 35.28, 13.454999999999998 35.49, 13.379999999999999 35.82 L 13.26 36.06" fill="none" stroke="black" stroke-width="5"></path><path d="M 12 25.98 C 12.600000000000001 26.58, 12.585 26.535, 13.200000000000001 27.18 C 13.830000000000002 27.869999999999997, 13.8 27.869999999999997, 14.46 28.56 C 15.15 29.25, 15.36 29.52, 15.84 29.94 C 16.11 30.090000000000003, 16.215 30.12, 16.38 30.240000000000002 C 16.439999999999998 30.330000000000002, 16.47 30.375, 16.5 30.42 L 16.5 30.42" fill="none" stroke="black" stroke-width="5"></path></svg>