<svg width="48" height="48" viewBox="0 0 48 48" xmlns="http://www.w3.org/2000/svg"><path d="M 13.5 4.68 C 13.5 5.31, 13.5 5.084999999999999, 13.5 5.9399999999999995 C 13.5 7.0200000000000005, 13.545 6.915000000000001, 13.5 8.100000000000001 C 13.41 9.39, 13.455 9.27, 13.32 10.68 C 13.14 12.21, 13.05 12.48, 12.96 13.74 C 12.96 14.73, 13.005 14.49, 12.96 15.72 C 12.870000000000001 17.19, 12.885 17.28, 12.78 18.66 C 12.66 19.950000000000003, 12.629999999999999 20.01, 12.54 21.240000000000002 C 12.479999999999999 22.410000000000004, 12.509999999999998 22.500000000000004, 12.419999999999998 23.580000000000002 C 12.299999999999999 24.57, 12.329999999999998 24.3, 12.18 25.56 C 12 27.089999999999996, 11.955 27.119999999999997, 11.82 28.619999999999997 C 11.73 30.089999999999996, 11.775 30.074999999999996, 11.64 31.56 C 11.46 33.06, 11.445 33.075, 11.28 34.56 C 11.129999999999999 36.03, 11.16 35.775, 10.98 37.5 C 10.77 39.480000000000004, 10.77 39.870000000000005, 10.56 41.46 C 10.350000000000001 42.66, 10.290000000000001 42.96, 10.14 43.86 C 10.05 44.46, 10.02 44.715, 9.959999999999999 45.06 C 9.93 45.150000000000006, 9.915 45.195, 9.899999999999999 45.24 L 9.899999999999999 45.24" fill="none" stroke="black" stroke-width="5"></path><path d="M 11.879999999999999 35.64 C 12.51 35.64, 11.985 35.64, 13.14 35.64 C 14.82 35.64, 14.79 35.64, 16.5 35.64 C 18.240000000000002 35.64, 18.36 35.58, 19.98 35.64 C 21.48 35.760000000000005, 21.465 35.82, 22.98 35.88 C 24.509999999999998 35.88, 24.93 35.88, 26.04 35.88 C 26.73 35.88, 26.880000000000003 35.85, 27.42 35.88 C 27.810000000000002 35.94, 28.005000000000003 35.97, 28.200000000000003 36 L 28.200000000000003 36" fill="none" stroke="black" stroke-width="5"></path></svg>