<svg width="48" height="48" viewBox="0 0 48 48" xmlns="http://www.w3.org/2000/svg"><path d="M 17.28 29.759999999999998 C 17.28 29.04, 17.415 29.055, 17.28 28.32 C 17.01 27.57, 17.19 27.555, 16.740000000000002 26.82 C 16.11 26.1, 16.275000000000002 25.905, 15.48 25.380000000000003 C 14.52 25.05, 14.264999999999999 24.884999999999998, 13.559999999999999 24.72 C 13.11 24.72, 13.305 24.585, 12.66 24.72 C 11.82 24.99, 11.655000000000001 24.689999999999998, 10.98 25.259999999999998 C 10.469999999999999 26.13, 10.274999999999999 26.235, 9.959999999999999 27 C 9.84 27.66, 9.780000000000001 27.84, 9.72 28.32 C 9.72 28.62, 9.57 28.665000000000003, 9.72 28.92 C 10.02 29.13, 9.9 29.144999999999996, 10.32 29.339999999999996 C 10.86 29.52, 10.77 29.55, 11.399999999999999 29.700000000000003 C 12.12 29.82, 12.24 29.835, 12.84 29.94 C 13.32 30.03, 13.169999999999998 30.029999999999998, 13.799999999999999 30.119999999999997 C 14.579999999999998 30.209999999999997, 14.219999999999999 30.209999999999997, 15.36 30.299999999999997 C 16.86 30.39, 16.905 30.45, 18.36 30.48 C 19.77 30.450000000000003, 20.16 30.435000000000002, 21.18 30.42 C 21.810000000000002 30.42, 21.915 30.405, 22.44 30.42 C 22.86 30.450000000000003, 23.07 30.465, 23.28 30.48 L 23.28 30.48" fill="none" stroke="black" stroke-width="5"></path><path d="M 22.62 36.3 C 22.23 35.879999999999995, 22.44 35.865, 21.84 35.46 C 21.03 35.07, 21.119999999999997 34.89, 20.22 34.68 C 19.23 34.65, 19.065 34.47, 18.240000000000002 34.62 C 17.58 34.95, 17.459999999999997 34.86, 16.919999999999998 35.28 C 16.5 35.79, 16.395000000000003 35.535, 16.080000000000002 36.3 C 15.870000000000001 37.31999999999999, 15.629999999999999 37.589999999999996, 15.66 38.339999999999996 C 15.930000000000001 38.81999999999999, 15.645000000000003 38.91, 16.200000000000003 39.3 C 17.04 39.6, 17.025 39.675000000000004, 17.88 39.900000000000006 C 18.75 40.050000000000004, 18.855 40.125, 19.62 40.2 C 20.28 40.2, 20.340000000000003 40.485, 20.94 40.2 C 21.48 39.63, 21.555 39.870000000000005, 22.02 39.06 C 22.409999999999997 38.010000000000005, 22.29 38.25, 22.799999999999997 36.96 C 23.43 35.43000000000001, 23.744999999999997 35.49000000000001, 24.06 33.900000000000006 C 24.06 32.25, 24.06 32.565, 24.06 30.599999999999998 C 24.06 28.32, 24.075 28.695, 24.06 26.04 C 24.03 23.009999999999998, 24.09 22.185000000000002, 24 19.98 C 23.85 18.6, 23.835 18.404999999999998, 23.700000000000003 17.22 C 23.580000000000002 16.23, 23.64 16.53, 23.46 15.24 C 23.22 13.649999999999999, 23.22 13.424999999999999, 22.98 12.059999999999999 C 22.740000000000002 10.919999999999998, 22.62 10.35, 22.5 9.78 L 22.5 9.78" fill="none" stroke="black" stroke-width="5"></path></svg>