<svg width="48" height="48" viewBox="0 0 48 48" xmlns="http://www.w3.org/2000/svg"><path d="M 10.5 13.080000000000002 C 11.07 13.260000000000002, 10.815000000000001 13.350000000000001, 11.64 13.440000000000001 C 12.719999999999999 13.440000000000001, 12.704999999999998 13.485000000000001, 13.799999999999999 13.440000000000001 C 14.91 13.350000000000001, 15.075 13.635, 16.02 13.26 C 16.8 12.6, 17.025000000000002 12.524999999999999, 17.580000000000002 11.94 C 17.910000000000004 11.43, 17.970000000000002 11.685, 18.240000000000002 10.92 C 18.450000000000003 9.899999999999999, 18.555 9.704999999999998, 18.66 8.879999999999999 C 18.66 8.25, 18.735 8.07, 18.66 7.62 C 18.509999999999998 7.35, 18.675 7.305, 18.36 7.08 C 17.88 6.9, 18 6.8100000000000005, 17.4 6.720000000000001 C 16.68 6.720000000000001, 16.62 6.705000000000001, 15.96 6.720000000000001 C 15.36 6.75, 15.39 6.645, 14.76 6.779999999999999 C 14.100000000000001 7.02, 13.965000000000002 7.02, 13.440000000000001 7.26 C 13.05 7.5, 13.125 7.305, 12.66 7.74 C 12.120000000000001 8.370000000000001, 12.120000000000001 8.055, 11.58 9 C 11.04 10.26, 10.875 10.26, 10.5 11.52 C 10.29 12.78, 10.185 12.69, 10.08 14.04 C 10.08 15.479999999999999, 10.02 15.299999999999997, 10.08 16.919999999999998 C 10.2 18.72, 10.08 19.185, 10.32 20.52 C 10.68 21.39, 10.755 21.584999999999997, 11.040000000000001 22.259999999999998 C 11.25 22.74, 11.355 22.979999999999997, 11.459999999999999 23.22 L 11.459999999999999 23.22" fill="none" stroke="black" stroke-width="5"></path><path d="M 9.959999999999999 19.02 C 10.379999999999999 18.54, 10.185 18.435, 10.8 18.06 C 11.61 17.79, 11.339999999999998 17.61, 12.419999999999998 17.52 C 13.77 17.61, 13.995000000000001 17.445000000000004, 15.120000000000001 17.700000000000003 C 16.02 18.12, 16.125 17.835, 16.919999999999998 18.54 C 17.61 19.53, 17.819999999999997 19.634999999999998, 18.299999999999997 20.52 C 18.57 21.3, 18.615 21.42, 18.84 22.080000000000002 C 19.020000000000003 22.62, 19.095000000000002 22.845, 19.200000000000003 23.16 C 19.23 23.25, 19.244999999999997 23.295, 19.259999999999998 23.34 C 19.259999999999998 23.34, 19.259999999999998 23.34, 19.259999999999998 23.34 C 19.259999999999998 23.34, 19.259999999999998 23.34, 19.259999999999998 23.34 C 19.259999999999998 23.34, 19.229999999999997 23.61, 19.259999999999998 23.34 C 19.32 22.799999999999997, 19.2 22.889999999999997, 19.38 22.259999999999998 C 19.68 21.54, 19.365000000000002 21.705, 19.98 20.82 C 20.91 19.77, 20.61 19.665, 21.84 18.72 C 23.37 17.88, 23.46 17.61, 24.900000000000002 17.04 C 26.25 16.740000000000002, 26.339999999999996 16.59, 27.599999999999998 16.44 C 28.77 16.44, 28.92 16.44, 29.94 16.44 C 30.810000000000002 16.44, 30.915 16.23, 31.68 16.44 C 32.34 16.86, 32.475 16.68, 33 17.28 C 33.39 18.060000000000002, 33.54 17.925, 33.78 18.84 C 33.870000000000005 19.89, 33.870000000000005 20.085, 33.96 20.94 C 34.05 21.6, 34.095 21.735, 34.14 22.259999999999998 C 34.14 22.65, 34.14 22.845, 34.14 23.04 C 34.14 23.04, 34.14 23.04, 34.14 23.04 L 34.14 23.04" fill="none" stroke="black" stroke-width="5"></path><path d="M 8.82 43.019999999999996 C 9.84 43.05, 9.809999999999999 43.245, 10.86 43.08 C 11.94 42.72, 11.85 43.019999999999996, 13.02 42.36 C 14.28 41.4, 14.399999999999999 41.37, 15.54 40.44 C 16.560000000000002 39.54, 16.515 39.825, 17.580000000000002 38.64 C 18.689999999999998 37.17, 18.854999999999997 37.080000000000005, 19.799999999999997 35.7 C 20.58 34.41, 20.58 34.665, 21.36 33.12 C 22.14 31.32, 22.275 31.604999999999997, 22.919999999999998 29.52 C 23.43 27.15, 23.520000000000003 26.85, 23.94 24.78 C 24.27 23.01, 24.375 22.680000000000003, 24.599999999999998 21.240000000000002 C 24.72 20.130000000000003, 24.779999999999998 19.68, 24.839999999999996 19.02 C 24.839999999999996 18.810000000000002, 24.839999999999996 18.705000000000002, 24.839999999999996 18.6 C 24.839999999999996 18.6, 24.839999999999996 18.645000000000003, 24.839999999999996 18.6 C 24.839999999999996 18.509999999999998, 24.839999999999996 18.54, 24.839999999999996 18.419999999999998 C 24.839999999999996 18.27, 24.839999999999996 18.195, 24.839999999999996 18.12 C 24.839999999999996 18.12, 24.839999999999996 18.12, 24.839999999999996 18.12 L 24.839999999999996 18.12" fill="none" stroke="black" stroke-width="5"></path><path d="M 24.78 18.9 C 24.48 21.119999999999997, 24.375 21.57, 24.18 23.34 C 24.09 24.66, 24.045 24.375, 24 25.98 C 24 27.869999999999997, 23.939999999999998 27.959999999999997, 24 29.759999999999998 C 24.12 31.47, 23.910000000000004 31.53, 24.240000000000002 33.18 C 24.78 34.769999999999996, 24.795 35.04, 25.32 36.36 C 25.83 37.41, 25.634999999999998 37.47, 26.339999999999996 38.46 C 27.24 39.39, 27.33 39.6, 28.14 40.32 C 28.86 40.83, 28.665 40.83, 29.58 41.339999999999996 C 30.689999999999998 41.849999999999994, 30.944999999999997 41.985, 31.799999999999997 42.36 C 32.4 42.599999999999994, 32.61 42.675, 33 42.839999999999996 C 33.18 42.92999999999999, 33.269999999999996 42.974999999999994, 33.36 43.019999999999996 L 33.36 43.019999999999996" fill="none" stroke="black" stroke-width="5"></path></svg>