<svg width="48" height="48" viewBox="0 0 48 48" xmlns="http://www.w3.org/2000/svg"><path d="M 8.58 30.599999999999998 C 9.27 30.75, 9.344999999999999 30.825000000000003, 9.959999999999999 30.900000000000002 C 10.5 30.900000000000002, 10.575000000000001 30.900000000000002, 11.040000000000001 30.900000000000002 C 11.43 30.900000000000002, 11.4 30.900000000000002, 11.82 30.900000000000002 C 12.27 30.900000000000002, 12.330000000000002 31.035000000000004, 12.72 30.900000000000002 C 13.05 30.630000000000003, 12.975 30.75, 13.379999999999999 30.36 C 13.86 29.849999999999998, 13.98 29.864999999999995, 14.34 29.339999999999996 C 14.58 28.799999999999997, 14.655000000000001 28.979999999999997, 14.82 28.259999999999998 C 14.91 27.36, 14.955 27.375, 15 26.46 C 15 25.53, 15.105 25.349999999999998, 15 24.599999999999998 C 14.790000000000001 24.03, 14.835 24.015, 14.580000000000002 23.46 C 14.280000000000001 22.92, 14.175 22.695, 13.98 22.38 C 13.89 22.29, 13.889999999999999 22.275000000000002, 13.799999999999999 22.200000000000003 C 13.71 22.14, 13.815000000000001 22.125000000000004, 13.620000000000001 22.080000000000002 C 13.32 22.05, 13.53 21.87, 13.02 22.02 C 12.3 22.35, 12.27 22.259999999999998, 11.58 22.68 C 10.92 23.19, 10.844999999999999 23.145000000000003, 10.26 23.700000000000003 C 9.75 24.300000000000004, 9.675 24.300000000000004, 9.24 24.900000000000002 C 8.879999999999999 25.5, 9 25.095, 8.52 26.099999999999998 C 7.92 27.509999999999998, 7.875 27.450000000000003, 7.32 28.92 C 6.8100000000000005 30.450000000000003, 6.675000000000001 30.705000000000002, 6.300000000000001 31.98 C 6.0600000000000005 33, 6.03 32.985, 5.82 34.019999999999996 C 5.640000000000001 35.06999999999999, 5.640000000000001 34.815, 5.46 36.12 C 5.279999999999999 37.68, 5.279999999999999 37.74, 5.1 39.24 C 4.92 40.68, 4.875 40.905, 4.74 42.12 C 4.65 43.11, 4.605 43.154999999999994, 4.5600000000000005 44.099999999999994 C 4.5600000000000005 45, 4.425000000000001 45.24, 4.5600000000000005 45.900000000000006 C 4.83 46.32000000000001, 4.8149999999999995 46.485, 5.1 46.74 C 5.3999999999999995 46.83, 5.354999999999999 46.845, 5.699999999999999 46.92 C 6.09 46.980000000000004, 5.970000000000001 46.98, 6.48 47.04 C 7.11 47.1, 7.08 47.25, 7.74 47.160000000000004 C 8.43 46.92, 8.520000000000001 46.980000000000004, 9.120000000000001 46.68 C 9.63 46.32, 9.780000000000001 46.305, 10.14 45.96 C 10.350000000000001 45.629999999999995, 10.41 45.765, 10.56 45.3 C 10.65 44.699999999999996, 10.77 44.80499999999999, 10.74 44.099999999999994 C 10.59 43.29, 10.665 43.185, 10.44 42.480000000000004 C 10.14 41.88, 10.08 41.67, 9.84 41.28 C 9.66 41.1, 9.735 41.160000000000004, 9.48 40.92 C 9.15 40.620000000000005, 9.255 40.5, 8.82 40.32 C 8.280000000000001 40.260000000000005, 8.175 40.230000000000004, 7.74 40.2 C 7.41 40.2, 7.395 40.2, 7.08 40.2 C 6.78 40.2, 6.66 40.2, 6.48 40.2 C 6.42 40.2, 6.390000000000001 40.2, 6.36 40.2 L 6.36 40.2" fill="none" stroke="black" stroke-width="5"></path><path d="M 7.08 35.099999999999994 C 7.65 35.129999999999995, 7.170000000000001 35.05500000000001, 8.22 35.160000000000004 C 9.75 35.34, 9.69 35.385, 11.28 35.519999999999996 C 12.93 35.61, 13.170000000000002 35.595, 14.580000000000002 35.7 C 15.75 35.82, 15.899999999999999 35.849999999999994, 16.919999999999998 35.94 C 17.79 36, 17.955 36.03, 18.66 36.06 C 19.200000000000003 36.06, 19.26 36.19500000000001, 19.740000000000002 36.06 C 20.160000000000004 35.79, 20.205000000000002 35.955, 20.580000000000002 35.519999999999996 C 20.910000000000004 34.92, 21.000000000000004 35.31, 21.240000000000002 34.32 C 21.39 32.94, 21.509999999999998 33.57, 21.54 31.56 C 21.45 28.92, 21.78 29.64, 21.36 26.28 C 20.61 22.200000000000003, 20.744999999999997 21.885, 19.86 18.12 C 18.84 14.670000000000002, 18.615000000000002 13.665000000000001, 17.82 11.22 C 17.25 9.780000000000001, 17.025 9.18, 16.68 8.34 C 16.560000000000002 8.1, 16.5 7.98, 16.44 7.86 L 16.44 7.86" fill="none" stroke="black" stroke-width="5"></path></svg>