<svg width="48" height="48" viewBox="0 0 48 48" xmlns="http://www.w3.org/2000/svg"><path d="M 10.08 16.919999999999998 C 11.07 17.009999999999998, 11.235 17.085, 12.059999999999999 17.1 C 12.719999999999999 17.04, 12.599999999999998 17.325, 13.379999999999999 16.98 C 14.28 16.35, 14.295 16.44, 15.18 15.72 C 16.049999999999997 14.91, 16.349999999999998 14.985000000000001, 16.919999999999998 14.100000000000001 C 17.189999999999998 13.14, 17.310000000000002 13.215, 17.46 12.18 C 17.490000000000002 11.07, 17.715 11.069999999999999, 17.52 9.959999999999999 C 17.1 8.85, 17.265 8.655, 16.68 7.74 C 15.93 7.0200000000000005, 15.719999999999999 6.705000000000001, 15.18 6.300000000000001 C 14.85 6.210000000000001, 14.969999999999999 6.135, 14.52 6.12 C 13.95 6.18, 13.979999999999999 5.94, 13.379999999999999 6.24 C 12.75 6.78, 12.690000000000001 6.69, 12.120000000000001 7.32 C 11.610000000000001 8.04, 11.565000000000001 7.8149999999999995, 11.100000000000001 8.76 C 10.68 9.93, 10.575 9.990000000000002, 10.26 11.100000000000001 C 10.05 12.150000000000002, 10.094999999999999 11.700000000000001, 9.84 13.200000000000001 C 9.54 15.150000000000002, 9.42 15.180000000000001, 9.24 17.1 C 9.18 18.990000000000002, 9.180000000000001 18.674999999999997, 9.120000000000001 20.88 C 9.06 23.4, 9.015 23.685000000000002, 9 25.92 C 9.030000000000001 27.87, 9.045 27.840000000000003, 9.06 29.82 C 9.06 31.83, 9.06 31.994999999999997, 9.06 33.839999999999996 C 9.06 35.519999999999996, 9.06 35.82, 9.06 37.2 C 9.06 38.28, 9.06 38.775, 9.06 39.36 C 9.06 39.45, 9.06 39.495, 9.06 39.54 C 9.06 39.54, 9.06 39.54, 9.06 39.54 L 9.06 39.54" fill="none" stroke="black" stroke-width="5"></path><path d="M 9.06 20.82 C 9.39 20.85, 9.06 20.7, 9.72 20.88 C 10.71 21.21, 10.905 21.15, 11.7 21.54 C 12.299999999999999 21.990000000000002, 12.36 21.93, 12.899999999999999 22.44 C 13.379999999999999 23.01, 13.53 22.860000000000003, 13.86 23.580000000000002 C 14.04 24.450000000000003, 14.100000000000001 24.525000000000002, 14.22 25.32 C 14.280000000000001 26.04, 14.31 26.4, 14.34 26.759999999999998 C 14.34 26.759999999999998, 14.34 26.759999999999998, 14.34 26.759999999999998 C 14.34 26.759999999999998, 14.34 26.759999999999998, 14.34 26.759999999999998 C 14.34 26.759999999999998, 14.34 26.759999999999998, 14.34 26.759999999999998 L 14.34 26.759999999999998" fill="none" stroke="black" stroke-width="5"></path><path d="M 14.34 26.700000000000003 C 14.46 25.950000000000003, 14.280000000000001 25.905000000000005, 14.580000000000002 25.200000000000003 C 15.06 24.54, 14.79 24.525, 15.54 23.88 C 16.560000000000002 23.25, 16.365000000000002 23.130000000000003, 17.580000000000002 22.62 C 18.990000000000002 22.23, 18.674999999999997 22.215, 20.4 21.84 C 22.439999999999998 21.48, 23.009999999999998 21.255000000000003, 24.48 21.12 C 25.380000000000003 21.21, 25.53 21.074999999999996, 26.28 21.299999999999997 C 26.880000000000003 21.659999999999997, 26.82 21.405, 27.48 22.02 C 28.200000000000003 22.89, 28.35 22.365, 28.92 23.759999999999998 C 29.34 25.68, 29.49 25.665, 29.759999999999998 27.599999999999998 C 29.88 29.549999999999997, 30.09 29.49, 30 31.5 C 29.700000000000003 33.57, 29.715000000000003 33.885000000000005, 29.400000000000002 35.64 C 29.07 37.08, 28.950000000000003 37.635, 28.740000000000002 38.519999999999996 C 28.65 38.849999999999994, 28.605 39.015, 28.56 39.18 C 28.56 39.18, 28.56 39.18, 28.56 39.18 C 28.56 39.18, 28.634999999999998 39.135, 28.56 39.18 L 28.259999999999998 39.36" fill="none" stroke="black" stroke-width="5"></path><path d="M 18.6 27.18 C 18.240000000000002 27.78, 18 27.885, 17.88 28.380000000000003 C 18 28.770000000000003, 17.865000000000002 28.905000000000005, 18.12 29.160000000000004 C 18.509999999999998 29.28, 18.419999999999998 29.535000000000004, 18.9 29.400000000000002 C 19.47 29.009999999999998, 19.68 29.054999999999996, 20.04 28.619999999999997 C 20.189999999999998 28.14, 20.325 28.065000000000005, 20.34 27.660000000000004 C 20.22 27.330000000000002, 20.310000000000002 27.225, 20.1 27 C 19.8 26.88, 19.965 26.639999999999997, 19.5 26.759999999999998 C 18.87 27.119999999999997, 18.615000000000002 27.06, 18.240000000000002 27.48 C 18.12 27.96, 17.895 27.990000000000002, 18 28.44 C 18.33 28.86, 18.225 29.01, 18.66 29.28 C 19.200000000000003 29.4, 19.290000000000003 29.475, 19.740000000000002 29.52 C 20.1 29.490000000000002, 20.130000000000003 29.82, 20.46 29.46 C 20.759999999999998 28.77, 20.91 28.65, 21.06 28.08 C 21.06 27.63, 21.18 27.479999999999997, 21.06 27.18 C 20.82 27.03, 20.985 26.865000000000002, 20.580000000000002 26.880000000000003 C 20.01 27.060000000000002, 19.905 26.700000000000003, 19.44 27.240000000000002 C 19.08 28.14, 18.84 28.35, 18.72 29.04 C 18.84 29.52, 18.825000000000003 29.73, 18.96 30 C 19.11 30.06, 19.154999999999998 30.509999999999998, 19.259999999999998 30.119999999999997 C 19.32 29.28, 19.349999999999998 29.025, 19.38 28.44 C 19.38 28.11, 19.38 27.945, 19.38 27.78 C 19.38 27.78, 19.604999999999997 27.675, 19.38 27.78 C 18.93 27.990000000000002, 18.675 27.855000000000004, 18.48 28.200000000000003 C 18.54 28.680000000000003, 18.51 28.875000000000007, 18.6 29.160000000000004 L 18.84 29.339999999999996" fill="none" stroke="black" stroke-width="5"></path><path d="M 13.620000000000001 36.12 C 15.120000000000001 35.879999999999995, 14.895000000000001 35.805, 16.62 35.64 C 18.57 35.55, 18.66 35.385000000000005, 20.52 35.46 C 22.29 35.7, 22.98 35.745, 24.06 35.94 C 24.449999999999996 36.09, 24.554999999999996 36.120000000000005, 24.839999999999996 36.24 L 25.200000000000003 36.42" fill="none" stroke="black" stroke-width="5"></path></svg>