<svg width="48" height="48" viewBox="0 0 48 48" xmlns="http://www.w3.org/2000/svg"><path d="M 7.68 11.34 C 8.76 11.34, 8.655000000000001 11.34, 9.84 11.34 C 11.129999999999999 11.34, 11.144999999999998 11.565, 12.419999999999998 11.34 C 13.68 10.89, 13.875 11.084999999999999, 14.940000000000001 10.44 C 15.81 9.6, 16.095 9.705, 16.68 8.76 C 16.98 7.71, 17.130000000000003 7.515000000000001, 17.28 6.66 C 17.28 6, 17.490000000000002 6.075, 17.28 5.34 C 16.86 4.529999999999999, 16.950000000000003 4.364999999999999, 16.44 3.7199999999999998 C 15.84 3.24, 15.93 3.06, 15.24 2.7600000000000002 C 14.46 2.64, 14.475 2.565, 13.68 2.52 C 12.87 2.55, 12.749999999999998 2.4450000000000003, 12.059999999999999 2.58 C 11.489999999999998 2.8200000000000003, 11.46 2.685, 10.92 3.06 C 10.41 3.5700000000000003, 10.409999999999998 3.375, 9.899999999999999 4.08 C 9.389999999999999 4.98, 9.284999999999998 4.755, 8.879999999999999 5.88 C 8.579999999999998 7.23, 8.549999999999999 7.2, 8.28 8.58 C 8.04 9.989999999999998, 8.010000000000002 9.899999999999999, 7.800000000000001 11.399999999999999 C 7.62 12.99, 7.695 12.585, 7.4399999999999995 14.580000000000002 C 7.109999999999999 16.98, 6.944999999999999 16.995, 6.779999999999999 19.38 C 6.779999999999999 21.75, 6.824999999999999 21.779999999999998, 6.779999999999999 24.119999999999997 C 6.6899999999999995 26.43, 6.705 26.595, 6.6000000000000005 28.740000000000002 C 6.48 30.720000000000002, 6.465000000000001 31.080000000000005, 6.36 32.7 C 6.27 33.96, 6.27 34.155, 6.18 35.22 C 6.09 36.09, 6.045 36.135000000000005, 6 36.96 C 6 37.739999999999995, 6.045 37.845, 6 38.519999999999996 C 5.91 39.09, 5.8950000000000005 38.955000000000005, 5.82 39.660000000000004 C 5.76 40.5, 5.7299999999999995 40.574999999999996, 5.699999999999999 41.339999999999996 C 5.699999999999999 42.03, 5.744999999999999 42.105, 5.699999999999999 42.72 C 5.609999999999999 43.26, 5.565 43.41, 5.5200000000000005 43.8 C 5.5200000000000005 44.04, 5.5200000000000005 44.16, 5.5200000000000005 44.28 C 5.5200000000000005 44.28, 5.5200000000000005 44.28, 5.5200000000000005 44.28 L 5.5200000000000005 44.28" fill="none" stroke="black" stroke-width="5"></path><path d="M 7.62 19.799999999999997 C 7.860000000000001 19.74, 7.0950000000000015 19.89, 8.100000000000001 19.68 C 9.870000000000001 19.32, 10.290000000000001 19.14, 11.64 18.96 C 12.57 18.96, 12.825 18.9, 13.5 18.96 C 13.92 19.080000000000002, 13.83 18.765, 14.34 19.200000000000003 C 14.94 19.950000000000003, 15.03 19.680000000000003, 15.54 20.700000000000003 C 15.959999999999999 21.990000000000002, 16.169999999999998 21.945, 16.38 23.28 C 16.38 24.66, 16.38 24.825, 16.38 26.04 C 16.38 27.09, 16.38 27.240000000000002, 16.38 28.14 C 16.38 28.89, 16.38 29.175, 16.38 29.64 C 16.38 29.82, 16.395 29.895, 16.38 30 C 16.35 30.03, 16.35 30.735, 16.32 30.06 C 16.29 28.68, 16.169999999999998 28.649999999999995, 16.259999999999998 27.299999999999997 C 16.47 25.98, 16.349999999999998 25.905, 16.68 24.660000000000004 C 17.130000000000003 23.490000000000002, 17.01 23.220000000000002, 17.580000000000002 22.32 C 18.270000000000003 21.689999999999998, 18.345000000000002 21.509999999999998, 18.96 21.06 C 19.5 20.79, 19.485 20.7, 20.04 20.52 C 20.61 20.43, 20.685 20.355, 21.18 20.34 C 21.6 20.4, 21.509999999999998 20.205000000000002, 22.02 20.46 C 22.619999999999997 20.91, 22.619999999999997 20.835, 23.22 21.36 C 23.82 21.96, 23.865000000000002 21.794999999999998, 24.42 22.56 C 24.93 23.490000000000002, 25.125 23.610000000000003, 25.44 24.42 C 25.560000000000002 25.11, 25.53 24.839999999999996, 25.68 25.799999999999997 C 25.86 27.029999999999998, 25.919999999999998 26.924999999999997, 26.04 28.259999999999998 C 26.1 29.7, 26.145000000000003 29.700000000000003, 26.160000000000004 31.14 C 26.130000000000003 32.58, 26.159999999999997 32.834999999999994, 26.099999999999998 34.019999999999996 C 26.009999999999998 34.95, 26.01 34.785, 25.92 35.88 C 25.830000000000002 37.14, 25.830000000000002 37.30500000000001, 25.740000000000002 38.400000000000006 C 25.65 39.33, 25.634999999999998 39.495, 25.56 40.26 C 25.5 40.86, 25.515 40.875, 25.44 41.46 C 25.35 42.03, 25.305 42.315, 25.259999999999998 42.599999999999994 C 25.259999999999998 42.599999999999994, 25.275 42.44999999999999, 25.259999999999998 42.599999999999994 C 25.23 42.9, 25.26 42.93, 25.200000000000003 43.2 C 25.11 43.44, 25.11 43.44, 25.02 43.68 C 24.93 43.92, 24.899999999999995 43.995000000000005, 24.839999999999996 44.160000000000004 C 24.81 44.25, 24.795 44.295, 24.78 44.339999999999996 C 24.78 44.339999999999996, 24.78 44.339999999999996, 24.78 44.339999999999996 L 24.78 44.339999999999996" fill="none" stroke="black" stroke-width="5"></path></svg>