<svg width="48" height="48" viewBox="0 0 48 48" xmlns="http://www.w3.org/2000/svg"><path d="M 10.92 15.600000000000001 C 12.3 15.600000000000001, 12.42 15.600000000000001, 13.68 15.600000000000001 C 14.82 15.600000000000001, 15.105 15.855, 15.96 15.600000000000001 C 16.53 15.090000000000002, 16.68 15.375000000000004, 17.1 14.580000000000002 C 17.37 13.5, 17.37 13.77, 17.64 12.419999999999998 C 17.91 10.799999999999999, 18.045 10.319999999999999, 18.18 9.18 C 18.18 8.52, 18.21 8.31, 18.18 7.86 C 18.119999999999997 7.62, 18.224999999999998 7.65, 18.06 7.38 C 17.79 7.08, 17.865 7.004999999999999, 17.52 6.779999999999999 C 17.1 6.63, 17.189999999999998 6.555, 16.68 6.48 C 16.08 6.48, 16.05 6.345000000000001, 15.48 6.48 C 14.94 6.75, 15.119999999999997 6.375, 14.399999999999999 7.02 C 13.5 8.04, 13.290000000000001 7.965000000000001, 12.600000000000001 9.06 C 12.120000000000001 10.23, 12.180000000000001 9.929999999999998, 11.64 11.399999999999999 C 11.04 13.17, 10.934999999999999 13.47, 10.44 14.940000000000001 C 10.05 16.11, 9.975 15.705000000000002, 9.66 17.28 C 9.42 19.26, 9.405 19.425000000000004, 9.18 21.240000000000002 C 8.969999999999999 22.89, 8.865 23.1, 8.76 24.54 C 8.76 25.77, 8.715 26.07, 8.76 27 C 8.85 27.63, 8.715 27.794999999999998, 8.94 28.259999999999998 C 9.3 28.56, 9.18 28.665, 9.66 28.86 C 10.26 28.95, 10.29 28.994999999999997, 10.86 29.04 C 11.399999999999999 29.04, 11.354999999999999 29.145, 11.94 29.04 C 12.57 28.83, 12.285 29.339999999999996, 13.200000000000001 28.619999999999997 C 14.400000000000002 27.39, 14.535000000000002 27.540000000000003, 15.600000000000001 26.160000000000004 C 16.53 24.630000000000003, 16.830000000000002 24.465000000000003, 17.46 23.1 C 17.79 21.900000000000002, 17.925 21.495000000000005, 18.12 20.700000000000003 C 18.18 20.310000000000002, 18.21 20.115, 18.240000000000002 19.919999999999998 C 18.240000000000002 19.919999999999998, 18.240000000000002 19.935, 18.240000000000002 19.919999999999998 C 18.240000000000002 19.89, 18.285000000000004 19.395, 18.240000000000002 19.86 C 18.15 20.82, 18.15 20.805, 18.06 21.78 C 17.97 22.77, 17.924999999999997 22.755, 17.88 23.759999999999998 C 17.88 24.779999999999998, 17.625 24.944999999999997, 17.88 25.799999999999997 C 18.39 26.49, 18.314999999999998 26.7, 18.9 27.18 C 19.56 27.45, 19.409999999999997 27.509999999999998, 20.22 27.72 C 21.18 27.869999999999997, 20.46 27.9, 22.14 28.02 C 24.54 28.11, 24.720000000000002 28.245000000000005, 26.94 28.200000000000003 C 28.98 28.02, 29.58 28.019999999999996, 31.02 27.839999999999996 C 31.86 27.659999999999997, 32.235 27.585, 32.7 27.48 C 32.790000000000006 27.450000000000003, 32.835 27.435000000000002, 32.88 27.42 C 32.88 27.42, 32.88 27.42, 32.88 27.42 L 32.88 27.42" fill="none" stroke="black" stroke-width="5"></path><path d="M 20.4 27.119999999999997 C 20.28 27.9, 20.175 27.84, 20.16 28.68 C 20.25 29.58, 20.055 29.595, 20.34 30.48 C 20.82 31.35, 20.685 31.485, 21.299999999999997 32.22 C 22.049999999999997 32.82, 21.839999999999996 32.82, 22.799999999999997 33.42 C 23.97 34.019999999999996, 23.985 34.14, 25.14 34.62 C 26.28 34.98, 26.445 35.06999999999999, 27.42 35.339999999999996 C 28.23 35.519999999999996, 28.395 35.61, 29.04 35.7 C 29.52 35.7, 29.445 35.655, 30 35.7 C 30.63 35.790000000000006, 30.839999999999996 35.835, 31.259999999999998 35.88 C 31.47 35.88, 31.575 35.88, 31.68 35.88 L 31.68 35.88" fill="none" stroke="black" stroke-width="5"></path><path d="M 30.48 35.88 C 28.560000000000002 36.06, 28.215 36.06, 26.64 36.24 C 25.41 36.42, 25.38 36.315, 24.18 36.599999999999994 C 23.009999999999998 36.989999999999995, 23.025 36.795, 21.84 37.38 C 20.64 38.16, 20.55 38.099999999999994, 19.44 38.94 C 18.42 39.84, 18.15 39.96, 17.4 40.74 C 16.92 41.400000000000006, 16.8 41.265, 16.44 42.06 C 16.200000000000003 42.99, 16.080000000000002 43.095, 15.96 43.92 C 15.96 44.64, 15.96 44.925, 15.96 45.36 C 15.96 45.510000000000005, 15.990000000000002 45.525000000000006, 15.96 45.660000000000004 L 15.84 45.900000000000006" fill="none" stroke="black" stroke-width="5"></path></svg>