<svg width="48" height="48" viewBox="0 0 48 48" xmlns="http://www.w3.org/2000/svg"><path d="M 21 13.559999999999999 C 21.84 13.559999999999999, 21.869999999999997 13.589999999999998, 22.68 13.559999999999999 C 23.46 13.5, 23.535000000000004 13.545000000000002, 24.240000000000002 13.440000000000001 C 24.87 13.290000000000001, 24.66 13.5, 25.5 13.14 C 26.549999999999997 12.57, 26.744999999999997 12.66, 27.599999999999998 12 C 28.259999999999998 11.25, 28.515 11.205, 28.92 10.5 C 29.07 9.84, 29.145 10.004999999999999, 29.22 9.18 C 29.22 8.19, 29.25 8.084999999999999, 29.22 7.199999999999999 C 29.159999999999997 6.42, 29.279999999999998 6.284999999999999, 29.099999999999998 5.64 C 28.799999999999997 5.13, 28.86 5.07, 28.5 4.62 C 28.080000000000002 4.23, 28.065000000000005 4.109999999999999, 27.660000000000004 3.84 C 27.270000000000003 3.69, 27.480000000000004 3.75, 26.880000000000003 3.54 C 26.07 3.27, 26.009999999999998 3.135, 25.259999999999998 3 C 24.57 3, 24.419999999999998 3, 23.88 3 C 23.490000000000002 3, 23.490000000000002 2.91, 23.1 3 C 22.71 3.18, 22.755000000000003 3.0150000000000006, 22.32 3.3600000000000003 C 21.84 3.87, 21.735 3.7649999999999997, 21.36 4.38 C 21.09 5.1, 21.060000000000002 5.115, 20.82 5.82 C 20.61 6.51, 20.595 6.614999999999999, 20.4 7.199999999999999 C 20.22 7.68, 20.174999999999997 7.470000000000001, 20.04 8.16 C 19.95 9.059999999999999, 19.905 9.149999999999999, 19.86 9.959999999999999 C 19.86 10.68, 19.86 10.799999999999999, 19.86 11.399999999999999 C 19.86 11.879999999999999, 19.86 11.73, 19.86 12.36 C 19.86 13.139999999999999, 19.845 13.29, 19.86 13.919999999999998 C 19.89 14.399999999999999, 19.904999999999998 14.339999999999998, 19.919999999999998 14.879999999999999 C 19.919999999999998 15.48, 19.919999999999998 15.465000000000002, 19.919999999999998 16.080000000000002 C 19.919999999999998 16.71, 19.919999999999998 16.635, 19.919999999999998 17.34 C 19.919999999999998 18.119999999999997, 19.919999999999998 18.209999999999997, 19.919999999999998 18.9 C 19.919999999999998 19.5, 19.919999999999998 19.695, 19.919999999999998 20.1 C 19.919999999999998 20.310000000000002, 19.919999999999998 20.07, 19.919999999999998 20.52 C 19.919999999999998 21.21, 19.919999999999998 21.555, 19.919999999999998 21.9 C 19.919999999999998 21.9, 19.919999999999998 21.854999999999997, 19.919999999999998 21.9 C 19.919999999999998 21.990000000000002, 19.904999999999998 21.990000000000002, 19.919999999999998 22.080000000000002 C 19.95 22.17, 19.95 22.2, 19.98 22.259999999999998 C 20.009999999999998 22.29, 19.98 22.305, 20.04 22.32 C 20.13 22.32, 20.055 22.41, 20.22 22.32 C 20.46 22.14, 20.265 22.185000000000002, 20.700000000000003 21.96 C 21.330000000000002 21.689999999999998, 21.450000000000003 21.63, 21.96 21.419999999999998 C 22.35 21.27, 22.230000000000004 21.195, 22.740000000000002 21.12 C 23.37 21.12, 23.46 21.09, 24 21.12 C 24.450000000000003 21.18, 24.375000000000004 21.090000000000003, 24.900000000000002 21.240000000000002 C 25.5 21.48, 25.365 21.21, 26.099999999999998 21.72 C 26.97 22.5, 27.104999999999997 22.575000000000003, 27.839999999999996 23.28 C 28.439999999999998 23.91, 28.634999999999998 23.82, 29.04 24.54 C 29.25 25.35, 29.355 25.425000000000004, 29.46 26.160000000000004 C 29.46 26.82, 29.475 26.415, 29.46 27.48 C 29.43 28.950000000000003, 29.610000000000003 29.130000000000003, 29.400000000000002 30.42 C 29.009999999999998 31.53, 28.964999999999996 31.83, 28.619999999999997 32.64 C 28.32 33.150000000000006, 28.38 33.225, 28.02 33.660000000000004 C 27.6 34.02, 27.765 34.02, 27.18 34.38 C 26.43 34.739999999999995, 26.549999999999997 34.88999999999999, 25.68 35.099999999999994 C 24.69 35.16, 24.540000000000003 35.144999999999996, 23.700000000000003 35.22 C 23.01 35.31, 22.995 35.355000000000004, 22.32 35.400000000000006 C 21.66 35.400000000000006, 21.54 35.49000000000001, 21 35.400000000000006 C 20.58 35.22, 20.37 35.13, 20.16 35.04 C 20.16 35.04, 20.16 35.04, 20.16 35.04 C 20.16 35.04, 20.16 35.04, 20.16 35.04 L 20.16 35.04" fill="none" stroke="black" stroke-width="5"></path></svg>