<svg width="48" height="48" viewBox="0 0 48 48" xmlns="http://www.w3.org/2000/svg"><path d="M 9.06 15.72 C 10.14 15.900000000000002, 9.93 15.915000000000003, 11.22 16.080000000000002 C 12.72 16.23, 13.035 16.365, 14.22 16.38 C 15.09 16.259999999999998, 15.135000000000002 16.41, 15.96 16.14 C 16.740000000000002 15.719999999999999, 16.695 15.899999999999999, 17.52 15.299999999999999 C 18.39 14.52, 18.689999999999998 14.4, 19.259999999999998 13.74 C 19.529999999999998 13.2, 19.619999999999997 13.29, 19.799999999999997 12.66 C 19.89 11.940000000000001, 20.025 12, 19.98 11.22 C 19.8 10.38, 19.92 10.170000000000002, 19.62 9.540000000000001 C 19.200000000000003 9.120000000000001, 19.23 9.03, 18.78 8.7 C 18.3 8.46, 18.435000000000002 8.370000000000001, 17.82 8.22 C 17.07 8.16, 17.1 8.13, 16.32 8.100000000000001 C 15.510000000000002 8.100000000000001, 15.435000000000002 8.025000000000002, 14.700000000000001 8.100000000000001 C 14.04 8.25, 13.965 8.204999999999998, 13.379999999999999 8.399999999999999 C 12.87 8.639999999999999, 12.87 8.534999999999998, 12.36 8.879999999999999 C 11.85 9.329999999999998, 11.805 9.224999999999998, 11.34 9.78 C 10.92 10.440000000000001, 10.905 10.350000000000001, 10.5 11.100000000000001 C 10.11 11.940000000000001, 9.975000000000001 12.03, 9.72 12.78 C 9.600000000000001 13.440000000000001, 9.615 13.125000000000002, 9.48 14.100000000000001 C 9.33 15.39, 9.27 15.03, 9.18 16.68 C 9.15 18.69, 9.135000000000002 18.78, 9.120000000000001 20.700000000000003 C 9.120000000000001 22.53, 9.120000000000001 22.905, 9.120000000000001 24.36 C 9.120000000000001 25.439999999999998, 9.120000000000001 25.17, 9.120000000000001 26.52 C 9.120000000000001 28.14, 9.120000000000001 28.005, 9.120000000000001 29.759999999999998 C 9.120000000000001 31.65, 9.120000000000001 31.994999999999997, 9.120000000000001 33.54 C 9.120000000000001 34.739999999999995, 9.075000000000001 34.815, 9.120000000000001 35.94 C 9.21 36.989999999999995, 9.255 37.41, 9.3 38.04 C 9.3 38.25, 9.3 38.355000000000004, 9.3 38.46 C 9.3 38.46, 9.3 38.46, 9.3 38.46 C 9.3 38.46, 9.3 38.46, 9.3 38.46 C 9.3 38.46, 9.3 38.46, 9.3 38.46 C 9.3 38.46, 9.3 38.46, 9.3 38.46 L 9.3 38.46" fill="none" stroke="black" stroke-width="5"></path><path d="M 9.3 20.4 C 9.690000000000001 20.369999999999997, 9 20.46, 10.08 20.34 C 11.850000000000001 20.13, 11.925 20.084999999999997, 13.620000000000001 19.919999999999998 C 15.24 19.799999999999997, 15.51 19.74, 16.86 19.68 C 17.939999999999998 19.68, 18.15 19.56, 19.02 19.68 C 19.68 19.92, 19.814999999999998 19.785, 20.34 20.16 C 20.73 20.67, 20.76 20.490000000000002, 21.12 21.18 C 21.450000000000003 22.049999999999997, 21.57 21.854999999999997, 21.78 22.919999999999998 C 21.87 24.18, 21.915 24.18, 21.96 25.44 C 21.96 26.700000000000003, 21.96 27.075000000000003, 21.96 27.96 C 21.96 28.47, 21.96 28.725, 21.96 28.98 C 21.96 28.98, 21.96 28.98, 21.96 28.98 C 21.96 28.98, 21.96 28.98, 21.96 28.98 C 21.96 28.98, 21.810000000000002 29.085, 21.96 28.98 C 22.259999999999998 28.77, 22.064999999999998 28.785, 22.56 28.56 C 23.25 28.32, 23.325000000000003 28.2, 23.94 28.08 C 24.48 28.08, 24.33 27.9, 25.02 28.08 C 25.86 28.439999999999998, 25.92 28.319999999999997, 26.700000000000003 28.799999999999997 C 27.42 29.4, 27.450000000000003 29.31, 28.14 30 C 28.8 30.78, 28.845000000000002 30.479999999999997, 29.46 31.56 C 30.03 32.94, 30.195 33.045, 30.599999999999998 34.32 C 30.839999999999996 35.49, 30.959999999999997 35.760000000000005, 31.08 36.660000000000004 C 31.08 37.290000000000006, 31.08 37.56, 31.08 37.92 C 31.08 38.01, 31.08 38.05499999999999, 31.08 38.099999999999994 L 31.08 38.099999999999994" fill="none" stroke="black" stroke-width="5"></path><path d="M 15.419999999999998 26.58 C 14.61 26.97, 14.729999999999999 26.685, 13.799999999999999 27.36 C 12.75 28.32, 12.299999999999999 28.32, 11.7 29.28 C 11.549999999999999 30.240000000000002, 11.309999999999999 30.105000000000004, 11.399999999999999 31.200000000000003 C 11.729999999999999 32.43000000000001, 11.579999999999998 32.565000000000005, 12.059999999999999 33.660000000000004 C 12.69 34.620000000000005, 12.495000000000001 34.86, 13.32 35.58 C 14.34 36.06, 14.535 36.345, 15.36 36.54 C 15.99 36.45, 15.870000000000001 37.004999999999995, 16.62 36.36 C 17.490000000000002 35.16, 17.775 35.325, 18.36 33.96 C 18.66 32.43, 18.825000000000003 32.1, 18.96 30.900000000000002 C 18.93 30.03, 19.154999999999998 29.940000000000005, 18.9 29.160000000000004 C 18.42 28.470000000000002, 18.525000000000002 28.455000000000002, 17.94 27.78 C 17.25 27.12, 17.52 26.925, 16.56 26.46 C 15.33 26.19, 14.865000000000002 26.055, 14.100000000000001 25.92 L 13.5 25.92" fill="none" stroke="black" stroke-width="5"></path><path d="M 12.48 33.06 C 13.620000000000001 32.52, 13.68 32.385, 14.76 31.98 C 15.779999999999998 31.71, 16.049999999999997 31.605, 16.799999999999997 31.44 C 17.279999999999998 31.380000000000003, 17.279999999999998 31.35, 17.759999999999998 31.32 C 18.24 31.32, 18.45 31.32, 18.72 31.32 L 18.84 31.32" fill="none" stroke="black" stroke-width="5"></path></svg>