<svg width="48" height="48" viewBox="0 0 48 48" xmlns="http://www.w3.org/2000/svg"><path d="M 9.120000000000001 12.899999999999999 C 9.66 12.899999999999999, 9 12.915, 10.2 12.899999999999999 C 12.059999999999999 12.87, 12.165 13.065, 13.919999999999998 12.84 C 15.569999999999999 12.42, 16.095 12.434999999999999, 17.22 12 C 17.82 11.55, 17.939999999999998 11.55, 18.419999999999998 11.100000000000001 C 18.78 10.65, 18.87 10.8, 19.14 10.2 C 19.32 9.45, 19.41 9.51, 19.5 8.7 C 19.5 7.829999999999999, 19.740000000000002 7.739999999999998, 19.5 6.959999999999999 C 19.02 6.27, 19.049999999999997 6.15, 18.54 5.58 C 18 5.13, 18.165 4.965, 17.46 4.68 C 16.59 4.56, 16.47 4.5, 15.72 4.4399999999999995 C 15.09 4.4399999999999995, 15.180000000000001 4.334999999999999, 14.46 4.4399999999999995 C 13.65 4.65, 13.5 4.515000000000001, 12.84 4.86 C 12.33 5.34, 12.345 5.025, 11.82 5.82 C 11.280000000000001 6.930000000000001, 11.235 6.5550000000000015, 10.74 8.040000000000001 C 10.29 9.9, 10.245 9.66, 9.84 11.76 C 9.48 14.100000000000001, 9.435 14.430000000000001, 9.120000000000001 16.44 C 8.850000000000001 18.119999999999997, 8.82 18.044999999999998, 8.58 19.799999999999997 C 8.370000000000001 21.63, 8.385 21.57, 8.16 23.46 C 7.92 25.41, 7.875 25.68, 7.68 27.36 C 7.529999999999999 28.77, 7.545 28.845, 7.38 30.18 C 7.199999999999999 31.44, 7.109999999999999 31.485000000000003, 7.02 32.7 C 7.02 33.870000000000005, 7.02 33.915, 7.02 35.04 C 7.02 36.120000000000005, 7.02 36.315000000000005, 7.02 37.2 C 7.02 37.89, 6.93 37.8, 7.02 38.58 C 7.199999999999999 39.45, 7.185 39.555, 7.38 40.32 C 7.59 40.980000000000004, 7.545000000000001 41.055, 7.800000000000001 41.64 C 8.1 42.150000000000006, 7.964999999999998 42.225, 8.399999999999999 42.660000000000004 C 8.969999999999999 43.02, 9.18 43.2, 9.540000000000001 43.38 C 9.690000000000001 43.38, 9.72 43.38, 9.84 43.38 C 9.93 43.38, 9.899999999999999 43.38, 10.02 43.38 C 10.17 43.38, 9.945 43.635000000000005, 10.32 43.38 C 10.92 42.870000000000005, 11.01 42.870000000000005, 11.52 42.36 C 11.94 41.849999999999994, 11.954999999999998 41.879999999999995, 12.36 41.339999999999996 C 12.75 40.769999999999996, 12.81 40.980000000000004, 13.14 40.2 C 13.41 39.21, 13.44 39.39, 13.68 38.22 C 13.89 36.87, 13.950000000000001 36.75, 14.100000000000001 35.519999999999996 C 14.190000000000001 34.41, 14.235 34.275, 14.28 33.3 C 14.28 32.459999999999994, 14.28 32.04, 14.28 31.619999999999997 C 14.28 31.619999999999997, 14.28 31.619999999999997, 14.28 31.619999999999997 L 14.28 31.619999999999997" fill="none" stroke="black" stroke-width="5"></path><path d="M 9.24 19.799999999999997 C 10.649999999999999 19.65, 10.124999999999998 19.65, 12.059999999999999 19.5 C 14.52 19.35, 14.594999999999999 19.410000000000004, 16.98 19.200000000000003 C 19.29 18.93, 20.025000000000002 18.84, 21.6 18.66 C 22.44 18.57, 22.665000000000003 18.525, 23.28 18.48 C 23.67 18.48, 23.58 17.985, 24.06 18.48 C 24.630000000000003 19.47, 24.825000000000003 19.44, 25.200000000000003 20.46 C 25.380000000000003 21.509999999999998, 25.47 21.419999999999998, 25.56 22.56 C 25.56 23.79, 25.575 23.174999999999997, 25.56 25.02 C 25.53 27.48, 25.695 27.675, 25.5 29.94 C 25.14 32.01, 25.125 32.25, 24.78 34.08 C 24.45 35.67, 24.375 36.015, 24.119999999999997 37.26 C 23.939999999999998 38.16, 23.955 38.19, 23.759999999999998 39.06 C 23.549999999999997 39.900000000000006, 23.505 40.02, 23.34 40.74 C 23.22 41.34, 23.16 41.595, 23.1 41.94 C 23.1 42.03, 23.1 41.955, 23.1 42.12 C 23.1 42.36, 23.145000000000003 42.32999999999999, 23.1 42.599999999999994 C 23.009999999999998 42.9, 22.965 43.005, 22.919999999999998 43.2 C 22.919999999999998 43.290000000000006, 22.919999999999998 43.335, 22.919999999999998 43.38 C 22.919999999999998 43.38, 22.919999999999998 43.38, 22.919999999999998 43.38 L 22.919999999999998 43.38" fill="none" stroke="black" stroke-width="5"></path></svg>