<svg width="48" height="48" viewBox="0 0 48 48" xmlns="http://www.w3.org/2000/svg"><path d="M 8.34 39.96 C 7.77 37.89, 7.604999999999999 38.055, 7.199999999999999 35.82 C 6.96 33.42, 6.84 33.405, 6.720000000000001 31.02 C 6.720000000000001 28.65, 6.720000000000001 28.41, 6.720000000000001 26.28 C 6.720000000000001 24.39, 6.825000000000001 24.495, 6.720000000000001 22.5 C 6.510000000000001 20.4, 6.450000000000001 19.874999999999996, 6.300000000000001 18.299999999999997 C 6.210000000000001 17.25, 6.015000000000001 17.67, 6.12 16.200000000000003 C 6.42 14.31, 6.330000000000001 13.814999999999998, 6.720000000000001 12.419999999999998 C 7.2 11.52, 7.05 11.385000000000002, 7.68 10.620000000000001 C 8.46 9.99, 8.43 9.855, 9.24 9.36 C 10.08 9, 9.915 8.91, 10.92 8.64 C 12.09 8.46, 12.45 8.37, 13.26 8.28 C 13.71 8.28, 13.77 8.19, 14.16 8.28 C 14.49 8.46, 14.46 8.295, 14.82 8.64 C 15.21 9.15, 15.330000000000002 9.06, 15.600000000000001 9.66 C 15.75 10.350000000000001, 15.825 10.440000000000001, 15.899999999999999 11.040000000000001 C 15.899999999999999 11.55, 16.11 11.43, 15.899999999999999 12.059999999999999 C 15.479999999999999 12.809999999999999, 15.599999999999998 12.869999999999997, 15.059999999999999 13.559999999999999 C 14.399999999999999 14.19, 14.415 14.205, 13.74 14.82 C 13.05 15.42, 13.11 15.48, 12.36 16.02 C 11.55 16.5, 11.55 16.575, 10.74 16.98 C 9.93 17.310000000000002, 9.735000000000001 17.43, 9.120000000000001 17.64 C 8.7 17.73, 8.61 17.775, 8.28 17.82 C 8.04 17.82, 7.950000000000001 17.82, 7.800000000000001 17.82 C 7.74 17.82, 7.785 17.82, 7.68 17.82 C 7.529999999999999 17.82, 7.455 17.82, 7.38 17.82 C 7.38 17.82, 7.5 17.82, 7.38 17.82 C 7.14 17.82, 7.0649999999999995 17.82, 6.8999999999999995 17.82 C 6.8100000000000005 17.82, 6.915000000000001 17.82, 6.720000000000001 17.82 C 6.42 17.82, 6.2700000000000005 17.82, 6.12 17.82 L 6.12 17.82" fill="none" stroke="black" stroke-width="5"></path><path d="M 6.959999999999999 23.759999999999998 C 7.4399999999999995 23.7, 7.334999999999999 23.745, 7.92 23.64 C 8.61 23.490000000000002, 8.58 23.37, 9.3 23.34 C 10.05 23.43, 10.170000000000002 23.294999999999998, 10.8 23.52 C 11.31 23.880000000000003, 11.385000000000002 23.745, 11.82 24.240000000000002 C 12.18 24.87, 12.285 24.9, 12.54 25.5 C 12.69 26.07, 12.75 26.16, 12.84 26.64 C 12.87 27.03, 12.869999999999997 27.105, 12.899999999999999 27.42 C 12.93 27.660000000000004, 12.915 27.750000000000004, 12.96 27.900000000000002 C 13.020000000000001 27.96, 13.020000000000001 27.96, 13.080000000000002 28.02 C 13.14 28.08, 13.170000000000002 28.11, 13.200000000000001 28.14 C 13.200000000000001 28.14, 13.200000000000001 28.14, 13.200000000000001 28.14 C 13.200000000000001 28.14, 13.200000000000001 28.14, 13.200000000000001 28.14 L 13.200000000000001 28.14" fill="none" stroke="black" stroke-width="5"></path><path d="M 13.200000000000001 26.22 C 13.559999999999999 25.44, 13.379999999999999 25.440000000000005, 13.919999999999998 24.660000000000004 C 14.639999999999999 23.880000000000003, 14.61 23.655, 15.36 23.1 C 16.14 22.770000000000003, 15.959999999999997 22.605, 16.919999999999998 22.44 C 18.060000000000002 22.44, 18.300000000000004 22.44, 19.200000000000003 22.44 C 19.86 22.44, 19.695 22.44, 20.52 22.44 C 21.509999999999998 22.44, 21.509999999999998 22.095000000000002, 22.5 22.44 C 23.490000000000002 23.130000000000003, 23.67 22.86, 24.48 23.82 C 25.11 25.05, 25.35 25.125, 25.740000000000002 26.28 C 25.89 27.36, 25.92 27.165, 26.04 28.44 C 26.13 29.910000000000004, 26.174999999999997 30.090000000000003, 26.22 31.380000000000003 C 26.22 32.489999999999995, 26.235 32.355, 26.22 33.599999999999994 C 26.19 34.98, 26.220000000000002 35.22, 26.160000000000004 36.36 C 26.07 37.260000000000005, 26.025000000000002 37.605000000000004, 25.98 38.160000000000004 C 25.98 38.370000000000005, 25.98 38.43, 25.98 38.58 C 25.98 38.67, 25.995 38.67, 25.98 38.76 L 25.92 38.94" fill="none" stroke="black" stroke-width="5"></path><path d="M 16.44 31.08 C 16.29 31.38, 16.095 31.409999999999997, 16.14 31.68 C 16.380000000000003 31.92, 16.335 32.010000000000005, 16.62 32.160000000000004 C 16.950000000000003 32.22, 16.905 32.760000000000005, 17.28 32.28 C 17.700000000000003 31.26, 17.91 30.870000000000005, 18.12 30.240000000000002 C 18.12 30, 18.270000000000003 29.894999999999996, 18.12 29.759999999999998 C 17.82 29.73, 17.79 29.370000000000005, 17.52 29.700000000000003 C 17.28 30.39, 16.994999999999997 30.45, 17.04 31.08 C 17.37 31.65, 17.445000000000004 31.875, 17.700000000000003 32.22 C 17.880000000000003 32.34, 17.759999999999998 32.805, 18.06 32.46 C 18.479999999999997 31.65, 18.81 31.424999999999997, 18.9 30.839999999999996 C 18.659999999999997 30.479999999999997, 18.9 30.254999999999995, 18.419999999999998 30.119999999999997 C 17.7 30.209999999999997, 17.475 29.955, 16.98 30.299999999999997 C 16.71 30.9, 16.455000000000002 30.990000000000002, 16.44 31.5 C 16.68 31.919999999999998, 16.68 32.114999999999995, 16.919999999999998 32.339999999999996 C 17.159999999999997 32.370000000000005, 17.069999999999997 32.67, 17.4 32.400000000000006 C 17.82 31.830000000000002, 18.03 31.74, 18.240000000000002 31.259999999999998 C 18.240000000000002 30.869999999999997, 18.360000000000003 30.72, 18.240000000000002 30.48 C 18 30.39, 18.255 30.15, 17.759999999999998 30.299999999999997 C 17.009999999999998 30.689999999999998, 16.679999999999996 30.419999999999998, 16.259999999999998 31.08 C 16.17 32.01, 15.945000000000002 32.31, 16.080000000000002 32.94 C 16.439999999999998 33.269999999999996, 16.349999999999998 33.419999999999995, 16.799999999999997 33.599999999999994 C 17.339999999999996 33.629999999999995, 17.294999999999998 34.14, 17.88 33.660000000000004 C 18.509999999999998 32.67, 18.825 32.295, 19.14 31.68 C 19.14 31.44, 19.380000000000003 31.380000000000003, 19.14 31.200000000000003 C 18.66 31.080000000000002, 18.705 30.915, 18.18 30.96 C 17.61 31.17, 17.415 30.75, 17.04 31.380000000000003 C 16.86 32.43000000000001, 16.77 32.86500000000001, 16.68 33.480000000000004 C 16.68 33.66, 16.515 33.735, 16.68 33.839999999999996 C 17.009999999999998 33.870000000000005, 17.04 34.275000000000006, 17.34 33.900000000000006 C 17.61 33.120000000000005, 17.759999999999998 32.91, 17.88 32.339999999999996 C 17.85 31.979999999999997, 17.88 31.844999999999995, 17.82 31.619999999999997 C 17.73 31.53, 17.685000000000002 31.485, 17.64 31.44 L 17.64 31.44" fill="none" stroke="black" stroke-width="5"></path></svg>