<svg width="48" height="48" viewBox="0 0 48 48" xmlns="http://www.w3.org/2000/svg"><path d="M 10.86 15.54 C 11.309999999999999 15.629999999999999, 11.04 15.585, 11.76 15.72 C 12.75 15.900000000000002, 12.735 16.095000000000002, 13.74 16.080000000000002 C 14.76 15.870000000000001, 14.85 15.975000000000001, 15.78 15.66 C 16.62 15.24, 16.68 15.375, 17.46 14.82 C 18.18 14.13, 18.494999999999997 14.100000000000001, 18.9 13.440000000000001 C 18.990000000000002 12.81, 19.11 12.84, 19.080000000000002 12.18 C 18.93 11.49, 19.125 11.43, 18.78 10.8 C 18.240000000000002 10.23, 18.360000000000003 10.11, 17.700000000000003 9.66 C 16.92 9.33, 17.025000000000002 9.21, 16.14 9 C 15.15 8.91, 15.06 8.835, 14.16 8.82 C 13.35 8.879999999999999, 13.155 8.774999999999999, 12.54 8.94 C 12.12 9.21, 12.18 8.985, 11.7 9.48 C 11.16 10.2, 11.07 10.004999999999999, 10.620000000000001 10.92 C 10.26 12.030000000000001, 10.124999999999998 11.775, 9.899999999999999 13.14 C 9.809999999999999 14.76, 9.765 14.969999999999999, 9.72 16.38 C 9.72 17.58, 9.525 16.875, 9.72 18.78 C 10.11 21.39, 9.99 21.645, 10.5 24 C 11.129999999999999 26.1, 11.415 27.045, 11.76 28.200000000000003 L 11.879999999999999 28.619999999999997" fill="none" stroke="black" stroke-width="5"></path><path d="M 10.02 21.48 C 10.98 21.090000000000003, 11.145 20.895000000000003, 11.94 20.700000000000003 C 12.57 20.700000000000003, 12.645000000000001 20.610000000000003, 13.200000000000001 20.700000000000003 C 13.68 20.880000000000003, 13.605 20.61, 14.16 21.06 C 14.79 21.78, 14.879999999999999 21.525, 15.419999999999998 22.5 C 15.87 23.73, 16.095 24.045, 16.32 24.96 C 16.32 25.560000000000002, 16.26 25.740000000000002, 16.32 26.160000000000004 C 16.439999999999998 26.400000000000002, 16.5 26.520000000000003, 16.56 26.64 C 16.56 26.64, 16.56 26.64, 16.56 26.64 C 16.56 26.64, 16.529999999999998 26.685000000000002, 16.56 26.64 C 16.619999999999997 26.55, 16.47 27.165, 16.68 26.46 C 17.04 25.14, 16.979999999999997 24.990000000000002, 17.4 23.82 C 17.88 22.8, 17.849999999999998 22.5, 18.36 21.78 C 18.9 21.36, 18.495 21.405, 19.44 20.94 C 20.79 20.43, 20.805 20.22, 22.14 19.919999999999998 C 23.46 19.83, 23.535000000000004 19.785, 24.78 19.740000000000002 C 25.95 19.740000000000002, 26.235 19.665000000000003, 27.119999999999997 19.740000000000002 C 27.72 19.89, 27.674999999999997 19.62, 28.32 20.04 C 29.01 20.729999999999997, 29.1 20.595, 29.700000000000003 21.419999999999998 C 30.21 22.38, 30.299999999999997 22.515, 30.72 23.34 C 31.05 24.03, 31.185000000000002 24.18, 31.380000000000003 24.72 C 31.44 25.11, 31.47 25.05, 31.5 25.5 C 31.5 26.009999999999998, 31.5 26.265, 31.5 26.52 L 31.5 26.52" fill="none" stroke="black" stroke-width="5"></path><path d="M 20.22 20.46 C 20.04 21.63, 19.935 21.314999999999998, 19.86 22.799999999999997 C 19.89 24.6, 19.574999999999996 24.57, 19.919999999999998 26.400000000000002 C 20.58 28.259999999999998, 20.64 28.77, 21.240000000000002 30.119999999999997 C 21.78 30.959999999999997, 21.48 30.809999999999995, 22.32 31.799999999999997 C 23.46 32.94, 23.639999999999997 33.224999999999994, 24.599999999999998 34.08 C 25.380000000000003 34.65, 25.305000000000003 34.695, 26.160000000000004 35.22 C 27.090000000000003 35.7, 27.21 35.835, 28.02 36.18 C 28.71 36.39, 28.98 36.495, 29.400000000000002 36.599999999999994 C 29.550000000000004 36.599999999999994, 29.625000000000004 36.599999999999994, 29.700000000000003 36.599999999999994 C 29.700000000000003 36.599999999999994, 29.700000000000003 36.599999999999994, 29.700000000000003 36.599999999999994 C 29.700000000000003 36.599999999999994, 29.655 36.584999999999994, 29.700000000000003 36.599999999999994 C 29.790000000000003 36.629999999999995, 29.835 36.645, 29.880000000000003 36.660000000000004 C 29.880000000000003 36.660000000000004, 29.880000000000003 36.660000000000004, 29.880000000000003 36.660000000000004 C 29.880000000000003 36.660000000000004, 29.880000000000003 36.660000000000004, 29.880000000000003 36.660000000000004 C 29.880000000000003 36.660000000000004, 29.880000000000003 36.660000000000004, 29.880000000000003 36.660000000000004 L 29.880000000000003 36.660000000000004" fill="none" stroke="black" stroke-width="5"></path><path d="M 29.64 36.72 C 29.49 36.72, 30.359999999999996 36.675, 29.339999999999996 36.72 C 27.449999999999996 36.81, 27.18 36.690000000000005, 25.56 36.900000000000006 C 24.21 37.230000000000004, 24.345 37.035000000000004, 22.86 37.56 C 21.240000000000002 38.28, 21.075000000000003 38.265, 19.62 39 C 18.33 39.75, 18.075 39.57, 17.04 40.5 C 16.259999999999998 41.61, 15.945 41.835, 15.48 42.72 C 15.33 43.379999999999995, 15.3 43.425, 15.18 44.04 C 15.09 44.61, 15.045 44.894999999999996, 15 45.18 L 15 45.18" fill="none" stroke="black" stroke-width="5"></path><path d="M 12.48 33.12 C 12.870000000000001 33.269999999999996, 12.48 32.955, 13.26 33.42 C 14.43 34.2, 14.595 34.2, 15.600000000000001 34.980000000000004 C 16.44 35.760000000000005, 16.575000000000003 35.85, 17.28 36.54 C 17.85 37.14, 17.97 37.155, 18.419999999999998 37.74 C 18.75 38.31, 18.795 38.31, 19.080000000000002 38.88 C 19.32 39.45, 19.439999999999998 39.735, 19.56 40.019999999999996 C 19.56 40.019999999999996, 19.544999999999998 39.959999999999994, 19.56 40.019999999999996 L 19.62 40.26" fill="none" stroke="black" stroke-width="5"></path></svg>