<svg width="48" height="48" viewBox="0 0 48 48" xmlns="http://www.w3.org/2000/svg"><path d="M 7.98 12.78 C 8.61 12.93, 8.64 13.005, 9.24 13.080000000000002 C 9.809999999999999 13.080000000000002, 9.674999999999999 13.080000000000002, 10.379999999999999 13.080000000000002 C 11.219999999999999 13.080000000000002, 11.145 13.455000000000002, 12.059999999999999 13.080000000000002 C 13.049999999999999 12.330000000000002, 13.169999999999998 12.45, 14.04 11.58 C 14.79 10.59, 15.044999999999998 10.335, 15.54 9.600000000000001 C 15.78 9.120000000000001, 15.899999999999999 9.030000000000001, 16.02 8.64 C 16.02 8.34, 16.064999999999998 8.475000000000001, 16.02 8.040000000000001 C 15.93 7.470000000000001, 16.095 7.425, 15.84 6.8999999999999995 C 15.42 6.42, 15.405 6.254999999999999, 15 5.9399999999999995 C 14.61 5.789999999999999, 14.760000000000002 5.744999999999999, 14.22 5.64 C 13.530000000000001 5.58, 13.47 5.550000000000001, 12.84 5.5200000000000005 C 12.27 5.5200000000000005, 12.134999999999998 5.49, 11.7 5.5200000000000005 C 11.4 5.58, 11.46 5.415, 11.100000000000001 5.64 C 10.68 6.029999999999999, 10.68 5.895, 10.26 6.42 C 9.84 7.08, 9.78 6.99, 9.42 7.74 C 9.120000000000001 8.58, 9.075000000000001 8.475, 8.82 9.42 C 8.61 10.469999999999999, 8.579999999999998 10.32, 8.399999999999999 11.52 C 8.25 12.870000000000001, 8.175 12.525000000000002, 8.100000000000001 14.22 C 8.100000000000001 16.259999999999998, 8.100000000000001 16.365, 8.100000000000001 18.299999999999997 C 8.100000000000001 20.13, 8.100000000000001 19.92, 8.100000000000001 21.96 C 8.100000000000001 24.21, 8.100000000000001 24.675, 8.100000000000001 26.46 C 8.100000000000001 27.78, 8.100000000000001 27.794999999999998, 8.100000000000001 29.099999999999998 C 8.100000000000001 30.39, 8.100000000000001 30.465, 8.100000000000001 31.68 C 8.100000000000001 32.82, 8.100000000000001 32.82, 8.100000000000001 33.96 C 8.100000000000001 35.1, 8.085 35.325, 8.100000000000001 36.24 C 8.13 36.93, 8.145 36.765, 8.16 37.62 C 8.16 38.64, 8.16 38.745000000000005, 8.16 39.660000000000004 C 8.16 40.47, 8.16 40.605000000000004, 8.16 41.28 C 8.16 41.82, 8.16 42.09, 8.16 42.36 C 8.16 42.36, 8.16 42.36, 8.16 42.36 L 8.16 42.36" fill="none" stroke="black" stroke-width="5"></path><path d="M 7.74 35.7 C 8.55 35.7, 8.415 35.7, 9.36 35.7 C 10.44 35.7, 10.245 35.7, 11.52 35.7 C 12.99 35.7, 13.395000000000001 35.7, 14.46 35.7 C 15.120000000000001 35.7, 15.45 35.7, 15.78 35.7 L 15.78 35.7" fill="none" stroke="black" stroke-width="5"></path><path d="M 8.7 21.240000000000002 C 9.21 20.970000000000002, 8.325000000000001 20.940000000000005, 9.72 20.700000000000003 C 12 20.490000000000002, 12.495 20.340000000000003, 14.28 20.28 C 15.57 20.37, 15.959999999999999 20.130000000000003, 16.86 20.46 C 17.369999999999997 21.03, 17.415 20.46, 17.88 21.6 C 18.299999999999997 23.310000000000002, 18.509999999999998 23.34, 18.72 25.02 C 18.72 26.67, 18.75 27.21, 18.72 28.32 C 18.66 28.89, 18.630000000000003 29.175, 18.6 29.46 C 18.6 29.46, 18.6 29.46, 18.6 29.46 C 18.6 29.46, 18.6 29.46, 18.6 29.46 C 18.6 29.46, 18.39 29.625, 18.6 29.46 C 19.020000000000003 29.13, 18.765 29.084999999999997, 19.44 28.799999999999997 C 20.369999999999997 28.56, 20.205 28.365000000000002, 21.299999999999997 28.32 C 22.56 28.47, 22.365000000000002 28.139999999999997, 23.82 28.619999999999997 C 25.47 29.43, 25.875 29.130000000000003, 27.119999999999997 30.240000000000002 C 27.959999999999997 31.650000000000002, 28.319999999999997 31.845000000000006, 28.799999999999997 33.06 C 28.919999999999998 34.08, 28.979999999999997 33.76499999999999, 29.04 35.099999999999994 C 29.04 36.75, 29.085 37.080000000000005, 29.04 38.400000000000006 C 28.95 39.39, 28.95 39.675000000000004, 28.86 40.38 C 28.77 40.8, 28.725 40.905, 28.68 41.22 C 28.68 41.43, 28.71 41.445, 28.68 41.64 C 28.619999999999997 41.82, 28.619999999999997 41.88, 28.56 42 L 28.44 42.12" fill="none" stroke="black" stroke-width="5"></path></svg>