<svg width="48" height="48" viewBox="0 0 48 48" xmlns="http://www.w3.org/2000/svg"><path d="M 13.14 3.96 C 12.870000000000001 4.83, 12.855 4.424999999999999, 12.600000000000001 5.699999999999999 C 12.360000000000001 7.38, 12.315000000000001 7.0200000000000005, 12.120000000000001 9.06 C 11.97 11.46, 11.955 11.504999999999999, 11.82 13.86 C 11.7 16.17, 11.625 16.8, 11.58 18.48 C 11.61 19.53, 11.55 19.575000000000003, 11.64 20.580000000000002 C 11.79 21.54, 11.565 21.735, 11.94 22.5 C 12.54 23.07, 12.525 23.295, 13.14 23.64 C 13.77 23.759999999999998, 13.889999999999999 23.82, 14.399999999999999 23.88 C 14.79 23.88, 14.684999999999999 24.18, 15.18 23.88 C 15.78 23.28, 15.854999999999999 23.505, 16.38 22.68 C 16.83 21.630000000000003, 16.935000000000002 21.6, 17.28 20.580000000000002 C 17.52 19.590000000000003, 17.64 19.095000000000002, 17.759999999999998 18.6 C 17.759999999999998 18.6, 17.759999999999998 18.6, 17.759999999999998 18.6 C 17.759999999999998 18.6, 17.744999999999997 18.6, 17.759999999999998 18.6 C 17.79 18.6, 17.79 18.360000000000003, 17.82 18.6 C 17.85 19.08, 17.805 18.855, 17.88 19.56 C 18 20.49, 17.91 20.534999999999997, 18.12 21.419999999999998 C 18.42 22.259999999999998, 18.314999999999998 22.44, 18.72 23.1 C 19.23 23.58, 18.810000000000002 23.64, 19.740000000000002 24.06 C 21.090000000000003 24.42, 21.375 24.615000000000002, 22.44 24.78 C 23.22 24.75, 23.19 24.945, 24 24.72 C 24.84 24.299999999999997, 25.035 24.345, 25.68 23.88 C 26.13 23.369999999999997, 26.279999999999998 23.64, 26.58 22.86 C 26.73 21.81, 26.805 21.584999999999997, 26.880000000000003 20.759999999999998 C 26.880000000000003 20.159999999999997, 26.940000000000005 20.369999999999997, 26.880000000000003 19.56 C 26.76 18.54, 27.105 18.48, 26.64 17.52 C 25.83 16.62, 25.95 16.62, 25.02 15.72 C 23.97 14.82, 23.775 14.594999999999999, 22.919999999999998 13.919999999999998 C 22.259999999999998 13.469999999999999, 22.095 13.349999999999998, 21.6 13.02 C 21.270000000000003 12.81, 21.105 12.705000000000002, 20.94 12.600000000000001 C 20.94 12.600000000000001, 20.94 12.600000000000001, 20.94 12.600000000000001 C 20.94 12.600000000000001, 20.85 12.600000000000001, 20.94 12.600000000000001 C 21.119999999999997 12.600000000000001, 20.939999999999998 12.585, 21.299999999999997 12.600000000000001 C 21.839999999999996 12.63, 21.689999999999998 12.75, 22.38 12.66 C 23.22 12.45, 23.279999999999998 12.525, 24.06 12.24 C 24.78 11.879999999999999, 25.02 11.879999999999999, 25.5 11.52 C 25.740000000000002 11.16, 25.665 11.265, 25.98 10.8 C 26.369999999999997 10.23, 26.474999999999998 10.275, 26.759999999999998 9.66 C 26.939999999999998 9, 27.104999999999997 9.075, 27.119999999999997 8.34 C 26.97 7.53, 27.24 7.635000000000001, 26.82 6.720000000000001 C 26.130000000000003 5.7, 26.055 5.37, 25.44 4.68 C 24.9 4.32, 25.11 4.29, 24.36 3.96 C 23.4 3.66, 23.415 3.5100000000000002, 22.44 3.3600000000000003 C 21.450000000000003 3.3600000000000003, 21.090000000000003 3.3300000000000005, 20.46 3.3600000000000003 C 20.189999999999998 3.42, 20.055 3.4499999999999997, 19.919999999999998 3.4799999999999995 L 19.919999999999998 3.4799999999999995" fill="none" stroke="black" stroke-width="5"></path><path d="M 18.419999999999998 27.240000000000002 C 17.85 27.15, 17.985 26.924999999999997, 17.28 27.06 C 16.44 27.42, 16.365000000000002 27.270000000000003, 15.600000000000001 27.78 C 14.91 28.439999999999998, 14.73 28.29, 14.22 29.099999999999998 C 13.89 30.06, 13.754999999999999 29.924999999999997, 13.559999999999999 31.02 C 13.5 32.25, 13.32 32.415000000000006, 13.440000000000001 33.480000000000004 C 13.74 34.38, 13.5 34.275000000000006, 14.04 35.28 C 14.82 36.39, 14.790000000000001 36.675, 15.600000000000001 37.5 C 16.44 38.04, 16.230000000000004 38.205, 17.28 38.58 C 18.54 38.79, 18.36 39.03, 19.799999999999997 39 C 21.419999999999998 38.730000000000004, 21.974999999999998 38.94, 23.04 38.46 C 23.549999999999997 37.769999999999996, 23.79 37.724999999999994, 24.06 37.08 C 24.089999999999996 36.480000000000004, 24.06 36.825, 24.119999999999997 35.88 C 24.209999999999997 34.59, 24.314999999999998 34.425, 24.299999999999997 33.3 C 24.18 32.34, 24.33 32.34, 24.06 31.380000000000003 C 23.64 30.42, 23.729999999999997 30.240000000000002, 23.22 29.46 C 22.619999999999997 28.86, 22.605 28.665, 22.02 28.259999999999998 C 21.45 28.049999999999997, 21.615 28.034999999999997, 20.88 27.839999999999996 C 19.98 27.659999999999997, 19.89 27.57, 19.080000000000002 27.48 C 18.36 27.48, 18.12 27.435, 17.64 27.48 C 17.4 27.57, 17.28 27.615000000000002, 17.16 27.660000000000004 L 17.16 27.660000000000004" fill="none" stroke="black" stroke-width="5"></path><path d="M 13.620000000000001 32.88 C 15.030000000000001 32.64, 15.120000000000001 32.595000000000006, 16.44 32.400000000000006 C 17.67 32.25, 17.7 32.175, 18.9 32.099999999999994 C 20.07 32.099999999999994, 20.400000000000002 32.099999999999994, 21.240000000000002 32.099999999999994 C 21.75 32.099999999999994, 21.81 32.099999999999994, 22.259999999999998 32.099999999999994 C 22.65 32.099999999999994, 22.755 32.06999999999999, 23.04 32.099999999999994 C 23.22 32.16, 23.31 32.19, 23.4 32.22 C 23.4 32.22, 23.4 32.22, 23.4 32.22 L 23.4 32.22" fill="none" stroke="black" stroke-width="5"></path></svg>