<svg width="48" height="48" viewBox="0 0 48 48" xmlns="http://www.w3.org/2000/svg"><path d="M 10.92 46.5 C 10.530000000000001 45.51, 10.770000000000001 45.94499999999999, 10.14 44.519999999999996 C 9.27 42.66, 8.939999999999998 42.044999999999995, 8.399999999999999 40.8 C 8.19 40.17, 8.16 40.14, 7.98 39.54 C 7.83 38.97, 7.8 39.00000000000001, 7.68 38.400000000000006 C 7.59 37.77, 7.545 37.485, 7.5 37.14 C 7.5 37.08, 7.5 37.125, 7.5 37.019999999999996 C 7.5 36.87, 7.5 36.839999999999996, 7.5 36.72 C 7.5 36.629999999999995, 7.32 36.75, 7.5 36.54 C 7.86 36.21, 7.755000000000001 36.075, 8.22 35.88 C 8.79 35.82, 8.91 35.79, 9.36 35.76 C 9.69 35.76, 9.704999999999998 35.73, 10.02 35.76 C 10.32 35.82, 10.170000000000002 35.685, 10.620000000000001 35.88 C 11.22 36.21, 11.175 36.21, 11.82 36.54 C 12.510000000000002 36.870000000000005, 12.255 37.02, 13.200000000000001 37.2 C 14.400000000000002 37.230000000000004, 14.625000000000002 37.334999999999994, 15.600000000000001 37.26 C 16.35 37.08, 16.560000000000002 37.230000000000004, 17.1 36.900000000000006 C 17.43 36.42, 17.43 36.57, 17.759999999999998 35.94 C 18.089999999999996 35.16, 18.15 35.355000000000004, 18.419999999999998 34.38 C 18.63 33.21, 18.735 33.03, 18.84 32.04 C 18.84 31.23, 18.84 31.020000000000003, 18.84 30.42 C 18.84 30.03, 18.84 29.835, 18.84 29.64 C 18.84 29.64, 18.84 29.61, 18.84 29.64 C 18.84 29.7, 18.84 29.549999999999997, 18.84 29.759999999999998 C 18.84 30.119999999999997, 18.81 29.775, 18.84 30.48 C 18.9 31.53, 18.78 31.68, 18.96 32.58 C 19.259999999999998 33.33, 19.125 33.315, 19.56 34.08 C 20.130000000000003 34.86, 20.07 35.010000000000005, 20.700000000000003 35.64 C 21.39 36.12, 21.495000000000005 36.269999999999996, 22.080000000000002 36.599999999999994 C 22.560000000000002 36.78, 22.5 36.885, 23.04 36.96 C 23.64 36.93000000000001, 23.295 37.32000000000001, 24.240000000000002 36.900000000000006 C 25.53 36.09, 26.01 35.940000000000005, 26.82 35.28 C 27.15 34.769999999999996, 27.3 34.665, 27.48 34.26 C 27.509999999999998 33.96, 27.525 34.185, 27.54 33.660000000000004 C 27.54 32.910000000000004, 27.63 33.480000000000004, 27.54 32.160000000000004 C 27.36 30.270000000000003, 27.54 30.150000000000006, 27.18 28.380000000000003 C 26.64 26.73, 26.519999999999996 26.475, 26.099999999999998 25.08 C 25.799999999999997 23.939999999999998, 25.965 24.059999999999995, 25.5 22.799999999999997 C 24.87 21.419999999999998, 24.885 21.165, 24.240000000000002 20.04 C 23.58 19.169999999999998, 23.775 19.199999999999996, 22.919999999999998 18.299999999999997 C 21.869999999999997 17.369999999999997, 21.689999999999998 17.205000000000002, 20.82 16.44 C 20.130000000000003 15.84, 19.875 15.63, 19.44 15.24 C 19.26 15.059999999999999, 19.200000000000003 14.985, 19.080000000000002 14.879999999999999 C 19.020000000000003 14.85, 18.990000000000002 14.835, 18.96 14.82 C 18.96 14.82, 18.915 14.805, 18.96 14.82 C 19.05 14.85, 18.765 14.774999999999999, 19.14 14.879999999999999 C 19.8 15.059999999999999, 19.875 15.15, 20.46 15.24 C 20.97 15.24, 20.715 15.345, 21.48 15.24 C 22.5 15.030000000000001, 22.56 15.27, 23.52 14.82 C 24.42 14.13, 24.645 14.190000000000001, 25.32 13.440000000000001 C 25.77 12.63, 25.994999999999997 12.450000000000001, 26.22 11.82 C 26.22 11.370000000000001, 26.25 11.745000000000001, 26.22 10.92 C 26.159999999999997 9.719999999999999, 26.369999999999997 9.614999999999998, 26.099999999999998 8.52 C 25.619999999999997 7.53, 25.695 7.425000000000001, 25.14 6.540000000000001 C 24.509999999999998 5.76, 24.45 5.52, 23.88 4.9799999999999995 C 23.369999999999997 4.68, 23.34 4.529999999999999, 22.86 4.38 C 22.41 4.38, 22.5 4.29, 21.96 4.38 C 21.330000000000002 4.5600000000000005, 21.375000000000004 4.44, 20.700000000000003 4.74 C 19.98 5.16, 19.695 5.295, 19.259999999999998 5.58 C 19.11 5.73, 19.17 5.67, 18.96 5.88 C 18.689999999999998 6.15, 18.555 6.285, 18.419999999999998 6.42 L 18.419999999999998 6.42" fill="none" stroke="black" stroke-width="5"></path></svg>