<svg width="48" height="48" viewBox="0 0 48 48" xmlns="http://www.w3.org/2000/svg"><path d="M 16.38 8.76 C 16.71 8.25, 16.53 8.325, 17.04 7.74 C 17.729999999999997 7.08, 17.714999999999996 7.005, 18.419999999999998 6.42 C 19.14 5.91, 18.945 5.73, 19.86 5.4 C 20.97 5.25, 20.85 5.175, 22.080000000000002 5.1 C 23.43 5.1, 23.745 5.0249999999999995, 24.78 5.1 C 25.5 5.25, 25.439999999999998 5.085, 26.22 5.4 C 27.060000000000002 5.880000000000001, 27.225 5.76, 27.900000000000002 6.36 C 28.410000000000004 7.08, 28.44 6.825000000000001, 28.92 7.800000000000001 C 29.37 9.030000000000001, 29.520000000000003 9.195, 29.82 10.26 C 29.97 11.16, 30.044999999999998 11.204999999999998, 30.119999999999997 12.059999999999999 C 30.119999999999997 12.87, 30.134999999999998 12.855, 30.119999999999997 13.68 C 30.089999999999996 14.52, 30.284999999999997 14.58, 30.06 15.36 C 29.64 16.08, 29.715 16.154999999999998, 29.22 16.799999999999997 C 28.65 17.369999999999997, 28.74 17.415, 28.08 17.94 C 27.33 18.42, 27.24 18.555, 26.58 18.9 C 26.009999999999998 19.11, 26.1 19.185, 25.44 19.32 C 24.69 19.380000000000003, 24.645000000000003 19.365000000000002, 23.94 19.44 C 23.28 19.53, 23.295 19.575000000000003, 22.62 19.62 C 21.93 19.62, 21.87 19.62, 21.240000000000002 19.62 C 20.67 19.62, 20.76 19.71, 20.1 19.62 C 19.35 19.439999999999998, 19.305 19.56, 18.6 19.259999999999998 C 17.94 18.839999999999996, 17.685000000000002 18.659999999999997, 17.28 18.419999999999998 C 17.130000000000003 18.36, 17.1 18.33, 16.98 18.299999999999997 C 16.89 18.299999999999997, 16.904999999999998 18.179999999999996, 16.799999999999997 18.299999999999997 C 16.68 18.54, 16.695 18.315, 16.56 18.78 C 16.409999999999997 19.47, 16.379999999999995 19.53, 16.259999999999998 20.16 C 16.17 20.729999999999997, 16.125 20.549999999999997, 16.080000000000002 21.299999999999997 C 16.080000000000002 22.229999999999997, 16.080000000000002 21.825, 16.080000000000002 23.16 C 16.080000000000002 24.9, 16.080000000000002 24.885, 16.080000000000002 26.64 C 16.080000000000002 28.41, 15.930000000000003 28.395, 16.080000000000002 30.18 C 16.380000000000003 31.98, 16.47 32.055, 16.68 33.78 C 16.799999999999997 35.43, 16.814999999999998 35.64, 16.919999999999998 37.08 C 17.009999999999998 38.31, 17.055 38.489999999999995, 17.1 39.54 C 17.1 40.41, 17.1 40.725, 17.1 41.28 C 17.1 41.519999999999996, 17.1 41.61, 17.1 41.76 C 17.1 41.82, 17.1 41.85, 17.1 41.88 C 17.1 41.88, 17.1 41.88, 17.1 41.88 C 17.1 41.88, 17.1 41.88, 17.1 41.88 L 17.1 41.88" fill="none" stroke="black" stroke-width="5"></path><path d="M 16.38 32.88 C 16.71 32.88, 16.56 32.88, 17.04 32.88 C 17.669999999999998 32.88, 17.279999999999998 32.88, 18.299999999999997 32.88 C 19.71 32.88, 19.83 32.88, 21.12 32.88 C 22.29 32.88, 22.245 32.88, 23.46 32.88 C 24.72 32.88, 25.065 32.88, 25.98 32.88 C 26.549999999999997 32.88, 26.744999999999997 32.88, 27.119999999999997 32.88 C 27.299999999999997 32.88, 27.36 32.88, 27.48 32.88 C 27.54 32.88, 27.57 32.88, 27.599999999999998 32.88 L 27.599999999999998 32.88" fill="none" stroke="black" stroke-width="5"></path></svg>