<svg width="48" height="48" viewBox="0 0 48 48" xmlns="http://www.w3.org/2000/svg"><path d="M 12.66 28.380000000000003 C 13.71 28.380000000000003, 13.8 28.395000000000003, 14.76 28.380000000000003 C 15.629999999999999 28.35, 15.735 28.455000000000002, 16.5 28.32 C 17.16 28.08, 17.16 28.169999999999995, 17.82 27.839999999999996 C 18.48 27.419999999999998, 18.555 27.375, 19.14 27 C 19.65 26.669999999999998, 19.634999999999998 26.849999999999994, 20.16 26.339999999999996 C 20.700000000000003 25.65, 20.880000000000003 25.665, 21.240000000000002 24.96 C 21.42 24.240000000000002, 21.465000000000003 24.525, 21.6 23.52 C 21.69 22.23, 21.735 22.02, 21.78 20.94 C 21.78 20.07, 21.78 19.740000000000002, 21.78 19.200000000000003 C 21.78 18.990000000000002, 21.78 18.885, 21.78 18.78 C 21.78 18.78, 21.78 18.78, 21.78 18.78 C 21.78 18.78, 21.75 18.69, 21.78 18.78 C 21.84 18.96, 21.794999999999998 18.69, 21.9 19.14 C 22.05 19.86, 22.005000000000003 19.800000000000004, 22.200000000000003 20.580000000000002 C 22.44 21.42, 22.44 21.479999999999997, 22.68 22.259999999999998 C 22.92 22.98, 22.8 22.89, 23.16 23.700000000000003 C 23.64 24.6, 23.684999999999995 24.915, 24.119999999999997 25.5 C 24.509999999999998 25.77, 24.345000000000002 25.755, 24.900000000000002 26.04 C 25.619999999999997 26.34, 25.574999999999996 26.445, 26.339999999999996 26.64 C 27.15 26.73, 27.225 26.985, 27.96 26.82 C 28.62 26.4, 28.740000000000002 26.415, 29.28 25.98 C 29.7 25.53, 29.759999999999998 25.665, 30.119999999999997 25.08 C 30.419999999999998 24.36, 30.54 24.39, 30.72 23.64 C 30.779999999999998 22.86, 30.809999999999995 22.980000000000004, 30.839999999999996 22.080000000000002 C 30.839999999999996 21.060000000000002, 30.929999999999996 20.939999999999998, 30.839999999999996 20.04 C 30.659999999999997 19.259999999999998, 30.825 19.35, 30.48 18.48 C 29.97 17.52, 30.03 17.52, 29.46 16.56 C 28.830000000000002 15.6, 28.800000000000004 15.465, 28.200000000000003 14.64 C 27.630000000000003 13.95, 27.689999999999998 13.875, 27.06 13.26 C 26.369999999999997 12.719999999999999, 26.279999999999998 12.645, 25.68 12.18 C 25.17 11.79, 25.245000000000005 11.774999999999999, 24.660000000000004 11.399999999999999 C 24 11.04, 23.835 10.95, 23.34 10.68 C 23.009999999999998 10.5, 22.845 10.41, 22.68 10.32 C 22.68 10.32, 22.665 10.32, 22.68 10.32 C 22.71 10.32, 22.44 10.305, 22.740000000000002 10.32 C 23.310000000000002 10.35, 23.145 10.274999999999999, 23.88 10.379999999999999 C 24.78 10.559999999999999, 24.974999999999998 10.665, 25.68 10.74 C 26.19 10.71, 25.935000000000002 10.8, 26.700000000000003 10.68 C 27.720000000000002 10.469999999999999, 27.855000000000004 10.605, 28.740000000000002 10.26 C 29.490000000000002 9.780000000000001, 29.76 9.855, 30.240000000000002 9.3 C 30.450000000000003 8.670000000000002, 30.510000000000005 8.595, 30.660000000000004 8.040000000000001 C 30.75 7.5600000000000005, 30.93 7.71, 30.839999999999996 7.08 C 30.569999999999997 6.300000000000001, 30.644999999999996 6.15, 30.299999999999997 5.5200000000000005 C 29.88 5.040000000000001, 29.955 5.010000000000001, 29.46 4.5600000000000005 C 28.89 4.140000000000001, 28.92 4.08, 28.32 3.7199999999999998 C 27.689999999999998 3.42, 27.93 3.4050000000000002, 27.06 3.12 C 25.949999999999996 2.85, 25.829999999999995 2.715, 24.839999999999996 2.58 C 23.97 2.58, 24.045 2.46, 23.1 2.58 C 22.08 2.8200000000000003, 21.615 2.925, 21.06 3.06 C 20.97 3.09, 20.924999999999997 3.105, 20.88 3.12 L 20.88 3.12" fill="none" stroke="black" stroke-width="5"></path><path d="M 22.919999999999998 30.839999999999996 C 21.99 30.839999999999996, 21.779999999999998 30.674999999999997, 21.06 30.839999999999996 C 20.549999999999997 31.169999999999998, 20.64 30.9, 20.04 31.5 C 19.35 32.370000000000005, 19.259999999999998 32.13, 18.66 33.24 C 18.15 34.59, 17.895 34.935, 17.64 35.94 C 17.64 36.599999999999994, 17.37 36.449999999999996, 17.64 37.26 C 18.18 38.22, 18.015 38.415, 18.72 39.18 C 19.59 39.75, 19.545 39.99, 20.46 40.32 C 21.42 40.41, 21.39 40.455, 22.38 40.5 C 23.4 40.5, 23.535 40.754999999999995, 24.42 40.5 C 25.17 39.99, 25.215000000000003 40.125, 25.92 39.480000000000004 C 26.580000000000002 38.7, 26.805 38.595, 27.240000000000002 37.92 C 27.450000000000003 37.35, 27.510000000000005 37.545, 27.660000000000004 36.78 C 27.75 35.82, 27.944999999999997 36.075, 27.839999999999996 34.86 C 27.54 33.39, 27.555 32.895, 27.240000000000002 31.92 C 26.91 31.44, 27.029999999999998 31.35, 26.58 30.96 C 26.009999999999998 30.66, 25.950000000000003 30.509999999999998, 25.44 30.36 C 24.990000000000002 30.36, 25.2 30.345, 24.54 30.36 C 23.669999999999998 30.39, 23.639999999999997 30.240000000000002, 22.799999999999997 30.42 C 21.99 30.75, 21.615 30.9, 21.18 31.08 L 21.06 31.14" fill="none" stroke="black" stroke-width="5"></path></svg>