<svg width="48" height="48" viewBox="0 0 48 48" xmlns="http://www.w3.org/2000/svg"><path d="M 15.78 3.12 C 15.54 3.5100000000000002, 15.749999999999998 3.0900000000000003, 15.299999999999999 3.9000000000000004 C 14.64 5.130000000000001, 14.625 4.875, 13.98 6.36 C 13.350000000000001 8.1, 13.350000000000001 7.98, 12.72 9.84 C 12.09 11.82, 11.895 11.774999999999999, 11.459999999999999 13.799999999999999 C 11.219999999999999 15.870000000000001, 11.205 16.275000000000002, 10.98 17.94 C 10.77 19.200000000000003, 10.71 19.185000000000002, 10.56 20.46 C 10.469999999999999 21.75, 10.334999999999999 21.96, 10.379999999999999 23.04 C 10.559999999999999 23.91, 10.515 24.135, 10.74 24.78 C 11.01 25.2, 10.905 25.29, 11.28 25.619999999999997 C 11.76 25.86, 11.655 25.874999999999996, 12.24 26.099999999999998 C 12.93 26.31, 12.870000000000001 26.415, 13.620000000000001 26.52 C 14.43 26.52, 14.565000000000001 26.61, 15.24 26.52 C 15.780000000000001 26.340000000000003, 15.915000000000001 26.370000000000005, 16.32 26.160000000000004 C 16.59 25.92, 16.5 26.16, 16.86 25.68 C 17.31 24.96, 17.369999999999997 24.930000000000003, 17.759999999999998 24.240000000000002 C 18.089999999999996 23.58, 18.119999999999997 23.534999999999997, 18.419999999999998 22.919999999999998 C 18.689999999999998 22.35, 18.75 22.35, 18.96 21.78 C 19.11 21.21, 19.139999999999997 21.21, 19.259999999999998 20.64 C 19.35 20.07, 19.35 19.905, 19.44 19.5 C 19.53 19.259999999999998, 19.575000000000003 19.14, 19.62 19.02 C 19.62 19.02, 19.605 19.05, 19.62 19.02 C 19.65 18.96, 19.575 18.915, 19.68 18.9 C 19.86 18.93, 19.905 18.855, 20.04 18.96 C 20.13 19.14, 20.174999999999997 19.125, 20.22 19.32 C 20.22 19.53, 20.22 19.365000000000002, 20.22 19.740000000000002 C 20.22 20.28, 20.22 20.355, 20.22 20.82 C 20.22 21.21, 20.22 21.03, 20.22 21.6 C 20.22 22.35, 20.13 22.365000000000002, 20.22 23.1 C 20.4 23.82, 20.28 23.925, 20.580000000000002 24.54 C 21 25.049999999999997, 21 25.11, 21.419999999999998 25.56 C 21.839999999999996 25.949999999999996, 21.81 26.039999999999996, 22.259999999999998 26.339999999999996 C 22.74 26.549999999999997, 22.665 26.595, 23.22 26.759999999999998 C 23.85 26.88, 23.76 26.939999999999998, 24.48 27 C 25.29 27, 25.365 27, 26.099999999999998 27 C 26.759999999999998 27, 26.895 27.045, 27.42 27 C 27.810000000000002 26.91, 27.750000000000004 27.03, 28.200000000000003 26.82 C 28.71 26.490000000000002, 28.695 26.625000000000004, 29.22 26.160000000000004 C 29.759999999999998 25.560000000000002, 29.864999999999995 25.545, 30.299999999999997 24.96 C 30.63 24.39, 30.75 24.27, 30.96 23.82 C 31.05 23.490000000000002, 31.095 23.7, 31.14 23.16 C 31.14 22.41, 31.14 22.11, 31.14 21.66 C 31.14 21.509999999999998, 31.185000000000002 21.555, 31.14 21.36 C 31.05 21.119999999999997, 31.14 21.104999999999997, 30.96 20.88 C 30.69 20.67, 30.720000000000002 20.64, 30.42 20.46 C 30.09 20.310000000000002, 30.119999999999997 20.34, 29.759999999999998 20.16 C 29.369999999999997 19.950000000000003, 29.415 19.875, 28.98 19.740000000000002 C 28.5 19.68, 28.455 19.650000000000002, 28.02 19.62 C 27.630000000000003 19.62, 27.69 19.62, 27.240000000000002 19.62 C 26.73 19.62, 26.64 19.53, 26.22 19.62 C 25.89 19.8, 25.799999999999997 19.845, 25.56 19.98 C 25.409999999999997 20.07, 25.334999999999997 20.115000000000002, 25.259999999999998 20.16 C 25.259999999999998 20.16, 25.259999999999998 20.16, 25.259999999999998 20.16 L 25.259999999999998 20.16" fill="none" stroke="black" stroke-width="5"></path><path d="M 18.419999999999998 31.14 C 17.310000000000002 31.74, 16.905 31.529999999999994, 16.200000000000003 32.339999999999996 C 15.900000000000002 33.36, 15.705000000000002 33.675, 15.600000000000001 34.38 C 15.690000000000001 34.77, 15.42 34.815000000000005, 15.78 35.160000000000004 C 16.41 35.46, 16.14 35.835, 17.04 35.76 C 18.21 35.31, 18.54 35.4, 19.38 34.86 C 19.89 34.23, 20.13 34.10999999999999, 20.4 33.599999999999994 C 20.43 33.209999999999994, 20.445 33.165, 20.46 32.82 C 20.46 32.519999999999996, 20.625 32.535, 20.46 32.22 C 20.13 31.89, 20.159999999999997 31.755, 19.799999999999997 31.56 C 19.409999999999997 31.5, 19.5 31.35, 19.02 31.44 C 18.45 31.68, 18.314999999999998 31.515, 17.88 31.92 C 17.58 32.49, 17.46 32.580000000000005, 17.28 33.06 C 17.22 33.45, 16.935000000000002 33.464999999999996, 17.16 33.839999999999996 C 17.67 34.2, 17.64 34.425, 18.18 34.56 C 18.75 34.47, 18.93 34.635000000000005, 19.32 34.38 C 19.53 33.96, 19.590000000000003 33.99, 19.740000000000002 33.54 C 19.83 33.06, 20.084999999999997 32.94, 19.919999999999998 32.58 C 19.5 32.339999999999996, 19.725 32.175, 19.080000000000002 32.099999999999994 C 18.21 32.19, 17.97 32.025, 17.34 32.28 C 16.95 32.7, 16.784999999999997 32.699999999999996, 16.56 33.12 C 16.5 33.54, 16.185000000000002 33.585, 16.44 33.96 C 17.01 34.29, 16.995 34.545, 17.580000000000002 34.62 C 18.18 34.44, 18.345000000000002 34.485, 18.78 34.26 L 19.32 33.72" fill="none" stroke="black" stroke-width="5"></path><path d="M 12.120000000000001 42.54 C 13.08 42.36, 12.825 42.39, 14.04 42.18 C 15.51 41.94, 15.81 41.82, 16.98 41.7 C 17.85 41.7, 17.669999999999998 41.7, 18.72 41.7 C 19.95 41.7, 19.965 41.7, 21.18 41.7 C 22.380000000000003 41.7, 22.5 41.685, 23.580000000000002 41.7 C 24.54 41.730000000000004, 24.78 41.745, 25.5 41.76 C 25.98 41.76, 26.175 41.745, 26.46 41.76 C 26.55 41.79, 26.565 41.775, 26.64 41.82 L 26.759999999999998 41.94" fill="none" stroke="black" stroke-width="5"></path></svg>