<svg width="48" height="48" viewBox="0 0 48 48" xmlns="http://www.w3.org/2000/svg"><path d="M 15.78 38.160000000000004 C 15.09 36.72, 15.179999999999998 37.32, 14.399999999999999 35.28 C 13.53 32.64, 13.35 32.55, 12.66 30 C 12.15 27.54, 12.09 27.24, 11.64 25.08 C 11.25 23.22, 11.1 22.979999999999997, 10.86 21.36 C 10.77 19.98, 10.725 19.905, 10.68 18.6 C 10.68 17.37, 10.41 17.310000000000002, 10.68 16.14 C 11.219999999999999 15.03, 11.145 14.819999999999999, 11.76 13.919999999999998 C 12.45 13.229999999999999, 12.600000000000001 12.944999999999999, 13.14 12.54 C 13.53 12.419999999999998, 13.559999999999999 12.314999999999998, 13.919999999999998 12.299999999999999 C 14.25 12.39, 14.16 12, 14.580000000000002 12.48 C 15.090000000000002 13.350000000000001, 15.045000000000002 12.81, 15.600000000000001 14.22 C 16.2 16.17, 16.349999999999998 16.365000000000002, 16.799999999999997 18.12 C 17.099999999999998 19.68, 17.205 20.28, 17.4 21.240000000000002 C 17.490000000000002 21.6, 17.535 21.705000000000002, 17.580000000000002 21.96 C 17.580000000000002 22.11, 17.580000000000002 22.185, 17.580000000000002 22.259999999999998 C 17.580000000000002 22.259999999999998, 17.580000000000002 22.275, 17.580000000000002 22.259999999999998 C 17.580000000000002 22.23, 17.595000000000002 22.680000000000003, 17.580000000000002 22.200000000000003 C 17.55 21.270000000000003, 17.52 21.495, 17.52 20.34 C 17.55 18.96, 17.475 18.735000000000003, 17.580000000000002 17.580000000000002 C 17.76 16.650000000000002, 17.595000000000002 16.605, 17.94 15.72 C 18.450000000000003 14.879999999999999, 18.630000000000003 14.549999999999999, 18.96 14.04 C 19.11 13.86, 18.99 13.829999999999998, 19.259999999999998 13.68 C 19.65 13.56, 19.5 13.485000000000001, 20.04 13.440000000000001 C 20.729999999999997 13.47, 20.714999999999996 13.41, 21.419999999999998 13.5 C 22.14 13.649999999999999, 22.259999999999998 13.725, 22.86 13.799999999999999 C 23.34 13.799999999999999, 23.31 13.86, 23.82 13.799999999999999 C 24.36 13.68, 24.360000000000003 13.995, 24.900000000000002 13.559999999999999 C 25.44 12.809999999999999, 25.62 12.929999999999998, 25.98 12.059999999999999 C 26.159999999999997 11.07, 26.264999999999997 11.145, 26.339999999999996 10.08 C 26.31 8.940000000000001, 26.505 8.865, 26.28 7.800000000000001 C 25.86 6.8100000000000005, 26.085 6.66, 25.44 5.82 C 24.57 5.13, 24.750000000000004 4.8149999999999995, 23.700000000000003 4.4399999999999995 C 22.470000000000002 4.38, 22.470000000000002 4.26, 21.240000000000002 4.32 C 20.01 4.5, 19.635 4.455, 18.78 4.68 C 18.3 4.949999999999999, 18.105 5.039999999999999, 17.82 5.22 L 17.64 5.4" fill="none" stroke="black" stroke-width="5"></path><path d="M 23.580000000000002 14.04 C 24.270000000000003 15.66, 24.615000000000002 15.675, 24.96 17.28 C 24.96 18.87, 25.080000000000002 18.810000000000002, 24.96 20.46 C 24.72 22.17, 24.735 22.32, 24.48 23.88 C 24.21 25.29, 24.225 25.470000000000002, 23.94 26.700000000000003 C 23.64 27.75, 23.715 27.765, 23.34 28.799999999999997 C 22.89 29.819999999999997, 22.935000000000002 29.714999999999996, 22.44 30.839999999999996 C 21.9 32.06999999999999, 21.825 32.279999999999994, 21.36 33.3 C 20.97 34.11, 20.94 34.08, 20.580000000000002 34.92 C 20.25 35.790000000000006, 20.145 36.015, 19.919999999999998 36.660000000000004 C 19.799999999999997 37.08, 19.799999999999997 37.14, 19.68 37.5 C 19.560000000000002 37.8, 19.53 37.904999999999994, 19.44 38.099999999999994 C 19.380000000000003 38.19, 19.38 38.115, 19.32 38.28 L 19.200000000000003 38.76" fill="none" stroke="black" stroke-width="5"></path><path d="M 10.68 37.68 C 10.89 37.65, 10.47 37.635, 11.100000000000001 37.62 C 12.150000000000002 37.62, 12.030000000000001 37.62, 13.200000000000001 37.62 C 14.49 37.62, 14.219999999999999 37.665, 15.78 37.62 C 17.61 37.53, 18 37.485, 19.44 37.44 C 20.490000000000002 37.44, 20.505 37.44, 21.54 37.44 C 22.560000000000002 37.44, 22.875 37.44, 23.580000000000002 37.44 C 23.97 37.44, 24.045 37.394999999999996, 24.36 37.44 L 24.839999999999996 37.62" fill="none" stroke="black" stroke-width="5"></path></svg>