<svg width="48" height="48" viewBox="0 0 48 48" xmlns="http://www.w3.org/2000/svg"><path d="M 25.380000000000003 37.5 C 24.900000000000002 38.4, 24.945 38.309999999999995, 24.42 39.3 C 23.85 40.379999999999995, 23.82 40.665, 23.28 41.46 C 22.77 41.97, 23.144999999999996 41.955000000000005, 22.259999999999998 42.480000000000004 C 21 43.02, 20.775000000000002 43.14, 19.740000000000002 43.56 C 18.93 43.86, 19.005000000000003 43.875, 18.12 44.160000000000004 C 17.160000000000004 44.43000000000001, 17.025000000000002 44.565000000000005, 16.200000000000003 44.7 C 15.510000000000002 44.7, 15.57 44.7, 14.82 44.7 C 14.010000000000002 44.7, 14.145000000000001 44.910000000000004, 13.200000000000001 44.7 C 12.120000000000001 44.28, 12.045000000000002 44.355000000000004, 11.040000000000001 43.86 C 10.11 43.29, 9.945 43.29, 9.18 42.72 C 8.58 42.15, 8.55 42.405, 7.98 41.58 C 7.4399999999999995 40.5, 7.2749999999999995 40.455, 6.8999999999999995 39.42 C 6.6899999999999995 38.43, 6.585 38.175, 6.48 37.44 C 6.48 36.96, 6.2700000000000005 37.005, 6.48 36.480000000000004 C 6.9 35.91, 6.99 35.714999999999996, 7.32 35.339999999999996 C 7.5600000000000005 35.16, 7.470000000000001 35.13, 7.800000000000001 34.980000000000004 C 8.22 34.86, 8.280000000000001 34.800000000000004, 8.64 34.74 C 8.940000000000001 34.74, 8.775 34.635000000000005, 9.24 34.74 C 9.870000000000001 34.95, 9.945 34.965, 10.5 35.160000000000004 C 10.98 35.34, 10.59 35.37, 11.459999999999999 35.519999999999996 C 12.719999999999999 35.64, 12.585 35.955, 13.98 35.76 C 15.51 35.25, 16.005 35.34, 17.04 34.74 C 17.58 34.05, 17.82 33.93, 18.12 33.36 C 18.18 32.91, 18.180000000000003 33.33, 18.240000000000002 32.46 C 18.3 31.17, 18.285 30.795, 18.36 29.880000000000003 C 18.45 29.34, 18.494999999999997 29.07, 18.54 28.799999999999997 C 18.54 28.799999999999997, 18.54 28.799999999999997, 18.54 28.799999999999997 C 18.54 28.799999999999997, 18.54 28.799999999999997, 18.54 28.799999999999997 C 18.54 28.799999999999997, 18.54 28.619999999999997, 18.54 28.799999999999997 C 18.54 29.159999999999997, 18.494999999999997 29.115, 18.54 29.52 C 18.63 29.97, 18.599999999999998 29.910000000000004, 18.72 30.42 C 18.869999999999997 30.990000000000002, 18.81 31.064999999999998, 19.02 31.56 C 19.29 31.980000000000004, 19.139999999999997 31.905000000000005, 19.56 32.400000000000006 C 20.130000000000003 32.97, 20.01 33.045, 20.700000000000003 33.54 C 21.51 33.96, 21.435000000000002 34.125, 22.32 34.38 C 23.28 34.47, 23.370000000000005 34.545, 24.240000000000002 34.56 C 25.02 34.5, 25.049999999999997 34.815, 25.799999999999997 34.44 C 26.52 33.75, 26.76 33.72, 27.240000000000002 33.06 C 27.48 32.43, 27.6 32.43, 27.72 31.799999999999997 C 27.72 31.169999999999998, 27.794999999999998 31.59, 27.72 30.54 C 27.57 29.07, 27.675 28.934999999999995, 27.42 27.599999999999998 C 27.060000000000002 26.4, 27.165000000000003 26.535000000000004, 26.700000000000003 25.200000000000003 C 26.130000000000003 23.73, 26.145 23.549999999999997, 25.56 22.259999999999998 C 24.96 21.15, 25.064999999999998 21.119999999999997, 24.36 20.04 C 23.55 18.990000000000002, 23.400000000000002 18.75, 22.740000000000002 17.94 C 22.23 17.369999999999997, 22.29 17.384999999999998, 21.72 16.799999999999997 C 21.09 16.2, 20.865000000000002 15.96, 20.46 15.600000000000001 C 20.28 15.48, 20.19 15.42, 20.1 15.36 C 20.1 15.36, 20.1 15.36, 20.1 15.36 C 20.1 15.36, 20.025000000000002 15.36, 20.1 15.36 C 20.25 15.36, 19.89 15.36, 20.4 15.36 C 21.27 15.36, 21.240000000000002 15.54, 22.14 15.36 C 23.07 15, 23.325000000000003 15.120000000000001, 24 14.64 C 24.419999999999998 14.040000000000001, 24.404999999999994 14.265, 24.839999999999996 13.440000000000001 C 25.29 12.39, 25.515 12.45, 25.740000000000002 11.34 C 25.740000000000002 10.17, 25.980000000000004 10.004999999999999, 25.740000000000002 9 C 25.26 8.16, 25.35 7.98, 24.78 7.32 C 24.12 6.84, 24.57 6.705, 23.46 6.36 C 21.9 6.15, 21.84 5.595, 20.34 5.9399999999999995 C 18.9 6.84, 18.36 7.08, 17.46 7.74 C 17.1 8.16, 16.950000000000003 8.325, 16.740000000000002 8.58 C 16.68 8.67, 16.665000000000003 8.64, 16.62 8.76 L 16.56 9.06" fill="none" stroke="black" stroke-width="5"></path></svg>