<svg width="48" height="48" viewBox="0 0 48 48" xmlns="http://www.w3.org/2000/svg"><path d="M 14.76 29.339999999999996 C 14.579999999999998 28.529999999999998, 14.489999999999998 28.529999999999998, 14.399999999999999 27.72 C 14.399999999999999 26.909999999999997, 14.399999999999999 26.97, 14.399999999999999 26.099999999999998 C 14.399999999999999 25.17, 14.399999999999999 24.855, 14.399999999999999 24.240000000000002 C 14.399999999999999 23.94, 14.399999999999999 24.015, 14.399999999999999 23.64 C 14.399999999999999 23.19, 14.294999999999998 23.25, 14.399999999999999 22.740000000000002 C 14.61 22.17, 14.52 22.17, 14.82 21.6 C 15.21 21.03, 15.165000000000003 20.925, 15.600000000000001 20.46 C 16.08 20.1, 16.11 19.980000000000004, 16.56 19.740000000000002 C 16.979999999999997 19.62, 16.889999999999997 19.560000000000002, 17.4 19.5 C 18 19.5, 17.985 19.5, 18.6 19.5 C 19.23 19.5, 19.125 19.41, 19.86 19.5 C 20.7 19.68, 20.715 19.74, 21.54 19.86 C 22.35 19.92, 22.155 19.935000000000002, 23.16 19.98 C 24.36 20.009999999999998, 24.479999999999997 19.98, 25.56 20.04 C 26.52 20.13, 26.7 20.174999999999997, 27.48 20.22 C 28.08 20.22, 27.99 20.265, 28.68 20.22 C 29.46 20.13, 29.520000000000003 20.34, 30.240000000000002 20.04 C 30.9 19.53, 31.049999999999997 19.485, 31.56 19.02 C 31.92 18.6, 32.01 18.63, 32.28 18.18 C 32.46 17.7, 32.55 17.729999999999997, 32.64 17.22 C 32.64 16.68, 32.595 16.83, 32.64 16.14 C 32.730000000000004 15.3, 32.85 15.375, 32.82 14.46 C 32.67 13.47, 32.699999999999996 13.305, 32.519999999999996 12.48 C 32.309999999999995 11.82, 32.41499999999999 11.685, 32.099999999999994 11.16 C 31.679999999999996 10.77, 31.83 10.829999999999998, 31.259999999999998 10.379999999999999 C 30.54 9.87, 30.72 9.78, 29.82 9.36 C 28.740000000000002 9.03, 28.635000000000005 8.864999999999998, 27.660000000000004 8.7 C 26.790000000000003 8.7, 26.580000000000002 8.7, 25.92 8.7 C 25.47 8.7, 25.62 8.61, 25.02 8.7 C 24.27 8.879999999999999, 24.09 8.895, 23.52 9.06 C 23.130000000000003 9.21, 22.980000000000004 9.254999999999999, 22.740000000000002 9.36 C 22.65 9.42, 22.605 9.45, 22.56 9.48 L 22.56 9.48" fill="none" stroke="black" stroke-width="5"></path><path d="M 23.04 20.16 C 23.04 22.71, 23.04 23.084999999999997, 23.04 25.259999999999998 C 23.04 27.06, 23.07 26.759999999999998, 23.04 28.86 C 22.979999999999997 31.26, 23.04 31.380000000000003, 22.919999999999998 33.660000000000004 C 22.74 35.82000000000001, 22.65 36.06, 22.56 37.980000000000004 C 22.56 39.66, 22.56 40.05, 22.56 41.339999999999996 C 22.56 42.239999999999995, 22.5 42.375, 22.56 43.14 C 22.68 43.77, 22.709999999999997 43.89000000000001, 22.799999999999997 44.400000000000006 C 22.86 44.790000000000006, 22.799999999999997 44.82, 22.919999999999998 45.18 C 23.1 45.51, 23.07 45.614999999999995, 23.28 45.839999999999996 C 23.52 45.959999999999994, 23.519999999999996 45.974999999999994, 23.759999999999998 46.08 C 24 46.17, 24.12 46.214999999999996, 24.240000000000002 46.26 C 24.240000000000002 46.26, 24.180000000000003 46.26, 24.240000000000002 46.26 C 24.36 46.26, 24.405 46.379999999999995, 24.48 46.26 C 24.509999999999998 46.019999999999996, 24.419999999999998 46.14, 24.54 45.78 C 24.75 45.3, 24.795 45.255, 24.96 44.82 C 25.080000000000002 44.43, 25.065000000000005 44.55, 25.200000000000003 44.04 C 25.35 43.41, 25.380000000000003 43.410000000000004, 25.5 42.78 C 25.59 42.15, 25.5 42.209999999999994, 25.68 41.519999999999996 C 25.95 40.769999999999996, 25.935 40.815, 26.22 40.019999999999996 C 26.52 39.17999999999999, 26.325 39.285, 26.82 38.339999999999996 C 27.51 37.29, 27.405 37.17, 28.200000000000003 36.24 C 29.1 35.43, 29.235 35.265, 30 34.62 C 30.63 34.14, 30.584999999999997 34.065000000000005, 31.259999999999998 33.660000000000004 C 31.98 33.33, 32.115 33.165, 32.7 33 C 33.15 33, 33.33 33, 33.599999999999994 33 C 33.69 33, 33.735 33, 33.78 33 L 33.78 33" fill="none" stroke="black" stroke-width="5"></path></svg>