<svg width="48" height="48" viewBox="0 0 48 48" xmlns="http://www.w3.org/2000/svg"><path d="M 13.799999999999999 6.66 C 14.219999999999999 5.9399999999999995, 14.265 5.82, 14.64 5.22 C 14.969999999999999 4.74, 14.805 4.71, 15.299999999999999 4.26 C 15.96 3.84, 16.02 3.69, 16.62 3.42 C 17.160000000000004 3.3, 16.755000000000003 3.285, 17.700000000000003 3.18 C 19.05 3.09, 19.169999999999998 3.045, 20.4 3 C 21.509999999999998 3, 21.57 2.52, 22.62 3 C 23.61 3.96, 23.865 4.14, 24.599999999999998 4.92 C 25.08 5.52, 25.02 5.235, 25.56 6.12 C 26.159999999999997 7.289999999999999, 26.31 7.214999999999999, 26.759999999999998 8.459999999999999 C 27.06 9.780000000000001, 27.21 9.750000000000002, 27.36 11.100000000000001 C 27.36 12.48, 27.405 12.705, 27.36 13.86 C 27.27 14.79, 27.509999999999998 14.685, 27.18 15.72 C 26.61 16.86, 26.729999999999997 16.995, 26.04 18 C 25.23 18.87, 25.26 19.095000000000002, 24.42 19.740000000000002 C 23.55 20.160000000000004, 23.565 20.295, 22.68 20.580000000000002 C 21.78 20.73, 21.854999999999997 20.805, 20.88 20.88 C 19.83 20.88, 19.815 20.895, 18.78 20.88 C 17.76 20.85, 17.745 20.865, 16.740000000000002 20.82 C 15.75 20.76, 15.375 20.775000000000002, 14.76 20.700000000000003 C 14.52 20.61, 14.399999999999999 20.565, 14.28 20.52 C 14.28 20.52, 14.28 20.52, 14.28 20.52 C 14.28 20.52, 14.264999999999999 20.52, 14.28 20.52 C 14.309999999999999 20.52, 14.205 20.52, 14.34 20.52 C 14.58 20.52, 14.55 20.52, 14.82 20.52 C 15.12 20.52, 14.999999999999998 20.52, 15.419999999999998 20.52 C 15.959999999999999 20.52, 15.69 20.43, 16.5 20.52 C 17.58 20.7, 17.79 20.744999999999997, 18.66 20.88 C 19.32 20.97, 19.185000000000002 20.97, 19.98 21.06 C 20.91 21.15, 21 21.03, 21.84 21.240000000000002 C 22.59 21.57, 22.59 21.525, 23.34 21.9 C 24.089999999999996 22.32, 24.269999999999996 22.32, 24.839999999999996 22.740000000000002 C 25.229999999999997 23.160000000000004, 25.169999999999995 22.965000000000003, 25.619999999999997 23.580000000000002 C 26.13 24.39, 26.25 24.195000000000004, 26.64 25.200000000000003 C 26.91 26.4, 27 26.46, 27.18 27.599999999999998 C 27.27 28.68, 27.314999999999998 28.484999999999996, 27.36 29.759999999999998 C 27.36 31.23, 27.42 31.545, 27.36 32.7 C 27.24 33.540000000000006, 27.389999999999997 33.480000000000004, 27.119999999999997 34.38 C 26.7 35.34, 26.91 35.43, 26.28 36.3 C 25.439999999999998 37.08, 25.47 37.26, 24.599999999999998 37.86 C 23.699999999999996 38.28, 23.804999999999996 38.400000000000006, 22.799999999999997 38.7 C 21.689999999999998 38.88, 21.810000000000002 38.895, 20.580000000000002 39.06 C 19.23 39.21, 19.215 39.285, 17.88 39.36 C 16.56 39.36, 16.29 39.495, 15.24 39.36 C 14.46 39.09, 14.265 39.165, 13.68 38.82 C 13.29 38.400000000000006, 13.215 38.47500000000001, 12.899999999999999 37.980000000000004 C 12.659999999999998 37.41, 12.584999999999997 37.394999999999996, 12.419999999999998 36.839999999999996 C 12.329999999999998 36.3, 12.285 36.209999999999994, 12.24 35.76 C 12.24 35.4, 12.24 35.22, 12.24 35.04 C 12.24 35.04, 12.24 35.085, 12.24 35.04 C 12.24 34.95, 12.24 34.905, 12.24 34.86 L 12.24 34.86" fill="none" stroke="black" stroke-width="5"></path></svg>