<svg width="48" height="48" viewBox="0 0 48 48" xmlns="http://www.w3.org/2000/svg"><path d="M 15.66 28.380000000000003 C 15.66 28.080000000000002, 15.855 28.410000000000004, 15.66 27.78 C 15.27 26.82, 15.239999999999998 26.865000000000002, 14.879999999999999 25.86 C 14.55 24.81, 14.565000000000001 24.959999999999997, 14.22 23.759999999999998 C 13.86 22.409999999999997, 13.77 22.08, 13.5 21.06 C 13.32 20.369999999999997, 13.23 20.34, 13.14 19.68 C 13.14 19.049999999999997, 13.14 18.959999999999997, 13.14 18.419999999999998 C 13.14 17.97, 13.110000000000001 17.91, 13.14 17.52 C 13.2 17.189999999999998, 13.08 17.145, 13.26 16.86 C 13.559999999999999 16.619999999999997, 12.975 16.604999999999997, 13.86 16.38 C 15.329999999999998 16.17, 15.449999999999998 16.065, 16.799999999999997 15.96 C 18.029999999999998 15.96, 17.79 15.945, 19.259999999999998 15.96 C 20.97 15.99, 20.88 16.005, 22.68 16.02 C 24.57 16.02, 24.75 16.02, 26.46 16.02 C 27.990000000000002 16.02, 28.47 16.005, 29.52 16.02 C 30.090000000000003 16.05, 30.180000000000003 16.05, 30.660000000000004 16.080000000000002 C 31.050000000000004 16.11, 31.005000000000003 16.065, 31.44 16.14 C 31.92 16.259999999999998, 32.160000000000004 16.32, 32.400000000000006 16.38 C 32.400000000000006 16.38, 32.400000000000006 16.38, 32.400000000000006 16.38 L 32.400000000000006 16.38" fill="none" stroke="black" stroke-width="5"></path><path d="M 9.84 8.52 C 10.8 8.52, 10.2 8.52, 11.76 8.52 C 13.920000000000002 8.52, 14.145000000000001 8.52, 16.080000000000002 8.52 C 17.79 8.52, 17.37 8.504999999999999, 19.5 8.52 C 22.049999999999997 8.55, 22.424999999999997 8.504999999999999, 24.599999999999998 8.58 C 26.4 8.7, 26.445000000000004 8.715, 28.200000000000003 8.82 C 29.91 8.91, 30.18 8.955, 31.619999999999997 9 C 32.79 9, 33.345 9, 33.96 9 L 34.08 9" fill="none" stroke="black" stroke-width="5"></path><path d="M 22.62 17.04 C 22.92 19.41, 22.935 19.62, 23.22 21.78 C 23.49 23.73, 23.58 23.61, 23.759999999999998 25.68 C 23.85 27.869999999999997, 24.285 27.915, 23.94 30.06 C 23.16 32.16, 23.1 32.61, 22.38 34.26 C 21.72 35.46, 21.9 35.385000000000005, 21.06 36.660000000000004 C 20.04 38.010000000000005, 20.235 38.1, 19.02 39.36 C 17.61 40.53, 17.28 40.965, 16.200000000000003 41.7 C 15.450000000000003 42, 15.225000000000001 42.075, 14.700000000000001 42.3 L 14.100000000000001 42.599999999999994" fill="none" stroke="black" stroke-width="5"></path><path d="M 31.5 31.619999999999997 C 31.29 33.209999999999994, 31.424999999999997 33.285, 31.08 34.8 C 30.599999999999998 36.239999999999995, 30.644999999999996 36.42, 30.119999999999997 37.68 C 29.549999999999997 38.76, 29.759999999999998 38.625, 28.98 39.839999999999996 C 27.990000000000002 41.19, 28.395 41.205, 27 42.54 C 25.2 43.86, 25.229999999999997 44.129999999999995, 23.4 45.18 C 21.54 45.96, 20.64 46.35, 19.68 46.74 L 19.56 46.74" fill="none" stroke="black" stroke-width="5"></path></svg>