<svg width="48" height="48" viewBox="0 0 48 48" xmlns="http://www.w3.org/2000/svg"><path d="M 15.36 6.300000000000001 C 15.66 6.33, 15.21 6.345000000000001, 15.96 6.36 C 17.16 6.36, 17.16 6.36, 18.36 6.36 C 19.56 6.36, 19.56 6.405, 20.759999999999998 6.36 C 21.96 6.27, 22.11 6.225, 23.16 6.18 C 24.060000000000002 6.18, 24 6.225, 24.96 6.18 C 25.98 6.09, 26.1 6.045, 27 6 C 27.78 6, 27.93 6, 28.56 6 C 29.04 6, 29.009999999999998 6, 29.52 6 C 30.06 6, 30.15 6, 30.599999999999998 6 C 30.96 6, 31.05 6, 31.32 6 C 31.5 6, 31.560000000000002 6, 31.68 6 C 31.74 6, 31.724999999999998 6, 31.799999999999997 6 C 31.89 6, 31.935 6, 31.98 6 L 31.98 6" fill="none" stroke="black" stroke-width="5"></path><path d="M 21.299999999999997 6.66 C 20.88 7.62, 20.97 7.455, 20.46 8.58 C 19.86 9.870000000000001, 19.74 10.035, 19.259999999999998 11.16 C 18.9 12.120000000000001, 18.884999999999998 12.225000000000001, 18.54 13.080000000000002 C 18.21 13.830000000000002, 18.134999999999998 13.935000000000002, 17.88 14.580000000000002 C 17.7 15.120000000000001, 17.715 15.06, 17.52 15.66 C 17.310000000000002 16.32, 17.220000000000002 16.44, 17.1 16.98 C 17.07 17.4, 17.055 17.505, 17.04 17.82 C 17.04 18.03, 16.994999999999997 17.955000000000002, 17.04 18.240000000000002 C 17.13 18.6, 17.07 18.705000000000002, 17.22 18.96 C 17.43 19.11, 17.384999999999998 19.125, 17.64 19.259999999999998 C 17.94 19.38, 17.775000000000002 19.38, 18.240000000000002 19.5 C 18.87 19.62, 18.735 19.68, 19.5 19.740000000000002 C 20.4 19.740000000000002, 20.384999999999998 19.740000000000002, 21.299999999999997 19.740000000000002 C 22.229999999999997 19.740000000000002, 22.259999999999998 19.740000000000002, 23.16 19.740000000000002 C 24.03 19.740000000000002, 23.730000000000004 19.800000000000004, 24.900000000000002 19.740000000000002 C 26.369999999999997 19.62, 26.504999999999995 19.62, 27.839999999999996 19.5 C 29.04 19.38, 29.28 19.38, 30.240000000000002 19.259999999999998 C 30.96 19.14, 31.215000000000003 19.125, 31.68 19.02 C 31.889999999999997 18.93, 31.994999999999997 18.884999999999998, 32.099999999999994 18.84 C 32.099999999999994 18.84, 32.099999999999994 18.84, 32.099999999999994 18.84 L 32.099999999999994 18.84" fill="none" stroke="black" stroke-width="5"></path><path d="M 25.32 19.799999999999997 C 25.32 20.64, 25.14 20.67, 25.32 21.48 C 25.68 22.259999999999998, 25.41 22.2, 26.04 23.04 C 26.939999999999998 23.939999999999998, 27.029999999999994 24.074999999999996, 27.839999999999996 24.839999999999996 C 28.56 25.47, 28.455 25.455, 29.28 26.099999999999998 C 30.21 26.759999999999998, 30.345 26.895, 31.14 27.42 C 31.8 27.810000000000002, 31.935000000000002 27.900000000000006, 32.46 28.200000000000003 C 32.85 28.41, 32.910000000000004 28.395, 33.24 28.619999999999997 C 33.510000000000005 28.86, 33.585 28.889999999999997, 33.78 29.099999999999998 C 33.9 29.28, 33.91499999999999 29.22, 34.019999999999996 29.46 C 34.11 29.759999999999998, 34.155 29.744999999999997, 34.2 30.06 C 34.2 30.39, 34.290000000000006 30.389999999999997, 34.2 30.72 C 34.019999999999996 31.05, 34.14 31.050000000000004, 33.839999999999996 31.380000000000003 C 33.42 31.71, 33.614999999999995 31.71, 33 32.04 C 32.19 32.370000000000005, 32.25 32.31, 31.380000000000003 32.7 C 30.450000000000003 33.15, 30.405 33.12, 29.52 33.599999999999994 C 28.68 34.11, 28.694999999999997 34.05, 27.839999999999996 34.62 C 26.97 35.25, 26.97 35.145, 26.099999999999998 35.88 C 25.229999999999997 36.72, 25.229999999999997 36.6, 24.36 37.56 C 23.490000000000002 38.64, 23.28 38.82, 22.62 39.72 C 22.17 40.44, 22.064999999999998 40.38, 21.72 41.160000000000004 C 21.48 42, 21.405 42.059999999999995, 21.240000000000002 42.839999999999996 C 21.15 43.56, 21.105 43.769999999999996, 21.06 44.28 C 21.06 44.58, 21.06 44.64, 21.06 44.88 C 21.06 45.06, 21.014999999999997 45.120000000000005, 21.06 45.24 L 21.240000000000002 45.36" fill="none" stroke="black" stroke-width="5"></path><path d="M 14.100000000000001 29.94 C 15.57 30.18, 15.69 30.075000000000003, 17.04 30.42 C 18.27 30.87, 18.509999999999998 30.825, 19.5 31.32 C 20.25 31.860000000000003, 20.235 31.740000000000006, 21 32.400000000000006 C 21.78 33.18000000000001, 21.96 33.315, 22.56 33.96 C 22.979999999999997 34.47, 23.025 34.56, 23.4 34.980000000000004 C 23.729999999999997 35.31, 23.865 35.43, 24.06 35.64 C 24.119999999999997 35.730000000000004, 24.09 35.685, 24.18 35.82 C 24.3 36, 24.36 36.09, 24.42 36.18 C 24.42 36.18, 24.345000000000002 36.105, 24.42 36.18 C 24.57 36.33, 24.645 36.405, 24.72 36.480000000000004 C 24.72 36.480000000000004, 24.72 36.480000000000004, 24.72 36.480000000000004 C 24.72 36.480000000000004, 24.72 36.480000000000004, 24.72 36.480000000000004 L 24.72 36.480000000000004" fill="none" stroke="black" stroke-width="5"></path></svg>