<svg width="48" height="48" viewBox="0 0 48 48" xmlns="http://www.w3.org/2000/svg"><path d="M 14.879999999999999 5.28 C 15.899999999999999 5.28, 15.674999999999997 5.325, 16.919999999999998 5.28 C 18.39 5.1899999999999995, 18.585 5.145, 19.86 5.1 C 20.939999999999998 5.1, 20.939999999999998 5.1, 22.02 5.1 C 23.1 5.1, 23.025 5.1, 24.18 5.1 C 25.41 5.1, 25.35 5.1, 26.64 5.1 C 27.99 5.1, 28.064999999999998 5.145, 29.339999999999996 5.1 C 30.54 5.01, 30.825000000000003 5.01, 31.740000000000002 4.92 C 32.370000000000005 4.83, 32.325 4.83, 33 4.74 C 33.72 4.65, 33.885 4.605, 34.44 4.5600000000000005 C 34.83 4.5600000000000005, 35.025 4.5600000000000005, 35.22 4.5600000000000005 L 35.22 4.5600000000000005" fill="none" stroke="black" stroke-width="5"></path><path d="M 14.940000000000001 11.100000000000001 C 15.9 11.100000000000001, 15.315 11.205000000000002, 16.86 11.100000000000001 C 18.990000000000002 10.89, 19.23 10.86, 21.12 10.68 C 22.770000000000003 10.53, 23.025000000000002 10.53, 24.42 10.379999999999999 C 25.560000000000002 10.23, 25.515 10.155, 26.700000000000003 10.08 C 27.930000000000003 10.08, 27.990000000000002 10.08, 29.160000000000004 10.08 C 30.270000000000003 10.08, 30.405 10.065, 31.380000000000003 10.08 C 32.22 10.11, 32.43 10.065000000000001, 33.06 10.14 C 33.480000000000004 10.26, 33.525000000000006 10.215, 33.900000000000006 10.379999999999999 C 34.230000000000004 10.59, 34.185 10.485, 34.56 10.8 C 34.980000000000004 11.22, 35.040000000000006 11.100000000000001, 35.400000000000006 11.64 C 35.7 12.3, 35.82 12.435, 36 12.96 C 36.06 13.350000000000001, 36.089999999999996 13.125, 36.12 13.74 C 36.12 14.579999999999998, 36.12 14.669999999999998, 36.12 15.419999999999998 C 36.12 16.08, 36.12 16.020000000000003, 36.12 16.740000000000002 C 36.12 17.52, 36.12 17.639999999999997, 36.12 18.299999999999997 C 36.12 18.839999999999996, 36.12 19.08, 36.12 19.38 C 36.12 19.439999999999998, 36.15 19.41, 36.12 19.5 L 36 19.740000000000002" fill="none" stroke="black" stroke-width="5"></path><path d="M 25.92 10.32 C 26.160000000000004 11.25, 26.175000000000004 10.725, 26.400000000000002 12.18 C 26.61 14.16, 26.625 14.22, 26.82 16.14 C 27 18, 26.985 17.91, 27.18 19.86 C 27.39 21.9, 27.435 22.245, 27.599999999999998 23.94 C 27.72 25.29, 27.779999999999998 24.810000000000002, 27.839999999999996 26.64 C 27.839999999999996 28.95, 27.839999999999996 29.43, 27.839999999999996 31.259999999999998 C 27.839999999999996 32.61, 27.869999999999997 32.625, 27.839999999999996 33.96 C 27.779999999999998 35.28, 27.839999999999996 35.62499999999999, 27.72 36.599999999999994 C 27.54 37.23, 27.6 37.155, 27.36 37.86 C 27.06 38.64, 27.209999999999997 38.64, 26.759999999999998 39.42 C 26.159999999999997 40.2, 26.205 40.2, 25.56 40.980000000000004 C 24.869999999999997 41.760000000000005, 24.735 41.94, 24.18 42.54 C 23.759999999999998 42.96, 23.775 42.975, 23.34 43.38 C 22.89 43.77, 22.905 43.800000000000004, 22.44 44.160000000000004 C 21.96 44.49, 21.72 44.655, 21.48 44.82 C 21.48 44.82, 21.525000000000002 44.79, 21.48 44.82 L 21.299999999999997 44.94" fill="none" stroke="black" stroke-width="5"></path></svg>