<svg width="48" height="48" viewBox="0 0 48 48" xmlns="http://www.w3.org/2000/svg"><path d="M 13.440000000000001 6.779999999999999 C 14.580000000000002 6.779999999999999, 14.505000000000003 6.869999999999999, 15.72 6.779999999999999 C 17.009999999999998 6.6, 17.025 6.51, 18.299999999999997 6.42 C 19.56 6.42, 19.725 6.465, 20.82 6.42 C 21.75 6.33, 21.75 6.285, 22.68 6.24 C 23.61 6.24, 23.52 6.24, 24.54 6.24 C 25.65 6.24, 25.799999999999997 6.24, 26.759999999999998 6.24 C 27.57 6.24, 27.675000000000004 6.24, 28.380000000000003 6.24 C 28.98 6.24, 29.115 6.24, 29.58 6.24 C 29.91 6.24, 29.925000000000004 6.24, 30.240000000000002 6.24 C 30.54 6.24, 30.644999999999996 6.24, 30.839999999999996 6.24 C 30.93 6.24, 30.869999999999997 6.24, 31.02 6.24 C 31.23 6.24, 31.185000000000002 6.24, 31.44 6.24 C 31.740000000000002 6.24, 31.89 6.24, 32.04 6.24 C 32.04 6.24, 32.04 6.24, 32.04 6.24 L 32.04 6.24" fill="none" stroke="black" stroke-width="5"></path><path d="M 15.059999999999999 22.98 C 15.059999999999999 22.98, 15.059999999999999 22.98, 15.059999999999999 22.98 C 15.059999999999999 22.98, 15.059999999999999 22.98, 15.059999999999999 22.98 C 15.059999999999999 22.98, 15.089999999999998 23.22, 15.059999999999999 22.98 C 15 22.5, 15.105 22.785, 14.940000000000001 22.02 C 14.67 20.97, 14.565 20.685, 14.399999999999999 19.919999999999998 C 14.34 19.439999999999998, 14.325 19.560000000000002, 14.28 18.96 C 14.25 18.240000000000002, 14.235 18.075, 14.22 17.52 C 14.22 17.130000000000003, 14.265 17.205000000000002, 14.22 16.740000000000002 C 14.129999999999999 16.200000000000003, 14.084999999999999 16.005000000000003, 14.04 15.66 C 14.04 15.51, 14.04 15.51, 14.04 15.36 C 14.04 15.209999999999999, 13.95 15.299999999999999, 14.04 15.059999999999999 C 14.219999999999999 14.729999999999999, 13.919999999999998 14.669999999999998, 14.399999999999999 14.399999999999999 C 15.18 14.19, 15.345 14.085, 15.96 13.98 C 16.41 13.98, 16.2 13.98, 16.86 13.98 C 17.73 13.98, 17.505000000000003 13.935, 18.6 13.98 C 19.92 14.07, 20.01 14.115, 21.240000000000002 14.16 C 22.380000000000003 14.16, 22.515 14.16, 23.52 14.16 C 24.39 14.16, 24.584999999999997 14.115, 25.259999999999998 14.16 C 25.74 14.25, 25.71 14.25, 26.22 14.34 C 26.759999999999998 14.43, 26.759999999999998 14.399999999999999, 27.299999999999997 14.52 C 27.84 14.67, 27.900000000000002 14.7, 28.380000000000003 14.82 C 28.8 14.91, 28.86 14.895, 29.22 15 C 29.52 15.120000000000001, 29.625 15.165000000000001, 29.82 15.24 C 29.91 15.27, 29.805 15.104999999999999, 30 15.299999999999999 C 30.299999999999997 15.66, 30.36 15.18, 30.599999999999998 16.02 C 30.78 17.34, 30.884999999999998 17.34, 30.96 18.66 C 30.93 19.979999999999997, 31.005000000000003 20.039999999999996, 30.900000000000002 21.299999999999997 C 30.72 22.5, 30.825 22.200000000000003, 30.54 23.700000000000003 C 30.15 25.5, 30.24 25.334999999999997, 29.759999999999998 27.299999999999997 C 29.189999999999998 29.43, 29.114999999999995 29.88, 28.619999999999997 31.56 C 28.2 32.79, 28.23 32.745, 27.78 34.019999999999996 C 27.3 35.34, 27.195 35.550000000000004, 26.82 36.660000000000004 C 26.55 37.56, 26.535000000000004 37.56, 26.28 38.46 C 26.04 39.36, 26.04 39.42, 25.799999999999997 40.26 C 25.56 41.04, 25.53 41.235, 25.32 41.82 C 25.14 42.209999999999994, 25.11 42.239999999999995, 24.96 42.599999999999994 C 24.84 42.92999999999999, 24.884999999999998 42.78, 24.72 43.26 C 24.509999999999998 43.89, 24.449999999999996 44.01, 24.299999999999997 44.519999999999996 C 24.209999999999997 44.91, 24.165 45.105, 24.119999999999997 45.3 C 24.119999999999997 45.3, 24.119999999999997 45.3, 24.119999999999997 45.3 L 24.119999999999997 45.3" fill="none" stroke="black" stroke-width="5"></path></svg>