<svg width="48" height="48" viewBox="0 0 48 48" xmlns="http://www.w3.org/2000/svg"><path d="M 15.78 6.720000000000001 C 16.89 6.720000000000001, 16.59 6.765000000000001, 18 6.720000000000001 C 19.71 6.630000000000001, 20.025 6.630000000000001, 21.419999999999998 6.540000000000001 C 22.5 6.450000000000001, 22.515 6.390000000000001, 23.580000000000002 6.36 C 24.630000000000003 6.390000000000001, 24.735 6.345, 25.68 6.42 C 26.52 6.54, 26.58 6.585, 27.36 6.66 C 28.08 6.69, 28.154999999999998 6.660000000000001, 28.799999999999997 6.720000000000001 C 29.369999999999997 6.8100000000000005, 29.55 6.8549999999999995, 29.94 6.8999999999999995 C 30.15 6.8999999999999995, 30.21 6.8999999999999995, 30.36 6.8999999999999995 C 30.45 6.8999999999999995, 30.464999999999996 6.8999999999999995, 30.54 6.8999999999999995 L 30.660000000000004 6.8999999999999995" fill="none" stroke="black" stroke-width="5"></path><path d="M 13.32 43.08 C 13.200000000000001 41.099999999999994, 13.14 41.084999999999994, 13.080000000000002 39.12 C 13.080000000000002 37.17, 13.080000000000002 36.765, 13.080000000000002 35.22 C 13.080000000000002 34.08, 13.005000000000003 34.275, 13.080000000000002 32.94 C 13.23 31.41, 13.184999999999999 31.515, 13.379999999999999 29.880000000000003 C 13.62 28.14, 13.695 28.065000000000005, 13.86 26.400000000000002 C 13.95 24.810000000000002, 13.905 24.509999999999998, 14.04 23.22 C 14.219999999999999 22.23, 14.264999999999997 22.080000000000002, 14.399999999999999 21.240000000000002 C 14.49 20.55, 14.445 20.565, 14.580000000000002 19.86 C 14.760000000000002 19.14, 14.805000000000001 19.019999999999996, 14.940000000000001 18.419999999999998 C 15.030000000000001 17.939999999999998, 15.000000000000002 17.82, 15.120000000000001 17.46 C 15.27 17.22, 15.209999999999997 17.295, 15.419999999999998 16.98 C 15.69 16.590000000000003, 15.54 16.515000000000004, 15.96 16.200000000000003 C 16.53 15.96, 16.395000000000003 15.930000000000001, 17.1 15.72 C 17.94 15.54, 17.745 15.45, 18.78 15.36 C 20.01 15.36, 20.25 15.434999999999999, 21.240000000000002 15.36 C 21.990000000000002 15.209999999999999, 21.990000000000002 15.149999999999999, 22.740000000000002 15.059999999999999 C 23.490000000000002 15.03, 23.415000000000003 15.015, 24.240000000000002 15 C 25.14 15, 25.23 15, 26.04 15 C 26.759999999999998 15, 26.88 15, 27.48 15 C 27.96 15, 27.93 15, 28.44 15 C 28.98 15, 28.98 14.955, 29.52 15 C 30.06 15.09, 30.165 15.059999999999999, 30.599999999999998 15.18 C 30.93 15.33, 30.959999999999997 15.24, 31.259999999999998 15.48 C 31.529999999999998 15.81, 31.559999999999995 15.72, 31.799999999999997 16.14 C 32.01 16.65, 32.025 16.185000000000002, 32.22 17.16 C 32.4 18.6, 32.459999999999994 18.585, 32.58 20.04 C 32.64 21.509999999999998, 32.67 21.345, 32.7 22.98 C 32.7 24.78, 32.7 24.869999999999997, 32.7 26.58 C 32.7 28.2, 32.7 28.2, 32.7 29.82 C 32.7 31.44, 32.760000000000005 31.185000000000002, 32.7 33.06 C 32.58 35.19, 32.61 35.67, 32.46 37.32 C 32.28 38.49, 32.21999999999999 38.760000000000005, 32.099999999999994 39.660000000000004 C 32.04 40.290000000000006, 32.025 40.335, 31.98 40.92 C 31.950000000000003 41.46, 31.935000000000002 41.58, 31.92 42 C 31.92 42.3, 31.965000000000003 42.33, 31.92 42.599999999999994 C 31.830000000000002 42.839999999999996, 31.785000000000004 42.915, 31.740000000000002 43.08 C 31.740000000000002 43.17, 31.740000000000002 43.214999999999996, 31.740000000000002 43.26 L 31.740000000000002 43.26" fill="none" stroke="black" stroke-width="5"></path><path d="M 23.46 23.94 C 23.13 24.27, 23.054999999999996 24.119999999999997, 22.799999999999997 24.599999999999998 C 22.619999999999997 25.229999999999997, 22.47 25.395, 22.44 25.86 C 22.560000000000002 26.16, 22.515 26.295, 22.68 26.46 C 22.89 26.490000000000002, 22.785 26.595, 23.1 26.52 C 23.520000000000003 26.340000000000003, 23.61 26.505000000000003, 23.94 26.160000000000004 C 24.18 25.650000000000002, 24.3 25.470000000000002, 24.42 25.14 C 24.42 24.99, 24.555000000000003 25.049999999999997, 24.42 24.839999999999996 C 24.15 24.569999999999997, 24.285 24.464999999999996, 23.88 24.299999999999997 C 23.339999999999996 24.24, 23.279999999999998 24.165, 22.799999999999997 24.18 C 22.38 24.27, 22.275 24.03, 21.96 24.36 C 21.75 24.93, 21.645 24.869999999999997, 21.54 25.5 C 21.54 26.19, 21.404999999999998 26.295, 21.54 26.880000000000003 C 21.810000000000002 27.36, 21.660000000000004 27.614999999999995, 22.080000000000002 27.839999999999996 C 22.65 27.81, 22.845 27.96, 23.22 27.78 C 23.4 27.45, 23.490000000000002 27.389999999999997, 23.580000000000002 27.119999999999997 C 23.580000000000002 26.91, 23.655 27.015, 23.580000000000002 26.700000000000003 C 23.43 26.28, 23.46 26.235, 23.28 25.86 C 23.07 25.53, 22.965 25.365000000000002, 22.86 25.200000000000003 C 22.86 25.200000000000003, 22.935 25.095000000000006, 22.86 25.200000000000003 C 22.71 25.41, 22.634999999999998 25.365, 22.56 25.619999999999997 C 22.56 25.919999999999998, 22.56 25.994999999999997, 22.56 26.22 C 22.56 26.369999999999997, 22.56 26.415, 22.56 26.52 C 22.56 26.58, 22.56 26.61, 22.56 26.64 L 22.56 26.64" fill="none" stroke="black" stroke-width="5"></path><path d="M 17.759999999999998 33.78 C 18.99 33.69, 18.93 33.73499999999999, 20.22 33.599999999999994 C 21.57 33.42, 21.974999999999998 33.33, 22.919999999999998 33.24 C 23.46 33.24, 23.294999999999998 33.24, 24 33.24 C 24.87 33.24, 24.915000000000003 33.24, 25.740000000000002 33.24 C 26.52 33.24, 26.639999999999997 33.195, 27.299999999999997 33.24 C 27.84 33.33, 28.11 33.375, 28.380000000000003 33.42 L 28.380000000000003 33.42" fill="none" stroke="black" stroke-width="5"></path></svg>