<svg width="48" height="48" viewBox="0 0 48 48" xmlns="http://www.w3.org/2000/svg"><path d="M 6.959999999999999 41.22 C 7.679999999999999 41.22, 6.329999999999998 41.16, 8.399999999999999 41.22 C 11.82 41.34, 12.809999999999999 41.4, 15.24 41.46 C 16.68 41.46, 16.665000000000003 41.415, 18.12 41.46 C 19.59 41.55, 19.724999999999998 41.595, 21.06 41.64 C 22.259999999999998 41.64, 22.53 41.655, 23.46 41.64 C 24.12 41.61, 24.060000000000002 41.91, 24.78 41.58 C 25.56 40.95, 25.859999999999996 41.28, 26.339999999999996 40.32 C 26.52 39.03, 26.61 38.865, 26.700000000000003 37.74 C 26.700000000000003 36.78, 27.075000000000003 37.230000000000004, 26.700000000000003 35.82 C 25.950000000000003 33.959999999999994, 25.92 34.004999999999995, 25.200000000000003 32.099999999999994 C 24.51 30.15, 24.645000000000003 30.345000000000002, 23.82 28.200000000000003 C 22.86 25.86, 22.65 25.515, 21.9 23.52 C 21.36 21.869999999999997, 21.27 21.599999999999998, 20.82 20.22 C 20.46 19.11, 20.37 18.9, 20.1 18 C 19.92 17.310000000000002, 19.845000000000002 17.07, 19.740000000000002 16.62 C 19.71 16.410000000000004, 19.695 16.305000000000003, 19.68 16.200000000000003 C 19.68 16.200000000000003, 19.68 16.200000000000003, 19.68 16.200000000000003 L 19.68 16.200000000000003" fill="none" stroke="black" stroke-width="5"></path><path d="M 6.18 15.72 C 6.42 15.75, 5.58 15.735, 6.66 15.78 C 8.58 15.84, 8.625 15.87, 10.5 15.899999999999999 C 12.33 15.899999999999999, 12.21 15.899999999999999, 14.16 15.899999999999999 C 16.229999999999997 15.899999999999999, 16.47 15.884999999999998, 18.299999999999997 15.899999999999999 C 19.89 15.93, 19.65 15.915, 21.48 15.96 C 23.549999999999997 16.020000000000003, 24.179999999999996 16.05, 25.619999999999997 16.080000000000002 C 26.43 16.080000000000002, 26.67 16.080000000000002, 27.240000000000002 16.080000000000002 L 27.900000000000002 16.080000000000002" fill="none" stroke="black" stroke-width="5"></path></svg>