<svg width="48" height="48" viewBox="0 0 48 48" xmlns="http://www.w3.org/2000/svg"><path d="M 15.299999999999999 6 C 15.719999999999999 6, 15.255 6, 16.14 6 C 17.490000000000002 6, 17.16 5.984999999999999, 18.84 6 C 20.85 6.03, 20.985 6.045, 22.86 6.0600000000000005 C 24.599999999999998 6.0600000000000005, 24.614999999999995 6.0600000000000005, 26.339999999999996 6.0600000000000005 C 28.049999999999997 6.0600000000000005, 28.199999999999996 6.0600000000000005, 29.759999999999998 6.0600000000000005 C 31.169999999999998 6.0600000000000005, 31.604999999999997 6.0600000000000005, 32.58 6.0600000000000005 C 33.120000000000005 6.0600000000000005, 33.39 6.0600000000000005, 33.660000000000004 6.0600000000000005 L 33.660000000000004 6.0600000000000005" fill="none" stroke="black" stroke-width="5"></path><path d="M 14.76 12 C 15.54 12, 14.94 12, 16.32 12 C 18.3 12, 18.255000000000003 12, 20.28 12 C 22.35 12, 22.755000000000003 12, 24.42 12 C 25.68 12, 25.635 11.985, 26.94 12 C 28.29 12.03, 28.425 12.044999999999998, 29.64 12.059999999999999 C 30.72 12.059999999999999, 31.064999999999998 11.999999999999998, 31.799999999999997 12.059999999999999 C 32.19 12.18, 32.22 12.09, 32.58 12.299999999999999 C 32.91 12.599999999999998, 32.88 12.329999999999998, 33.24 12.899999999999999 C 33.629999999999995 13.74, 33.69 13.755, 34.019999999999996 14.580000000000002 C 34.29 15.390000000000002, 34.410000000000004 15.285000000000004, 34.56 16.200000000000003 C 34.59 17.220000000000002, 34.589999999999996 17.415000000000003, 34.62 18.240000000000002 C 34.65 18.87, 34.665 18.615000000000002, 34.68 19.5 C 34.68 20.64, 34.68 20.955000000000002, 34.68 21.78 C 34.68 22.29, 34.725 22.349999999999998, 34.68 22.799999999999997 C 34.59 23.189999999999998, 34.545 23.385, 34.5 23.580000000000002 L 34.5 23.580000000000002" fill="none" stroke="black" stroke-width="5"></path><path d="M 22.62 12.36 C 22.62 14.01, 22.62 13.86, 22.62 15.66 C 22.62 17.61, 22.785 17.7, 22.62 19.56 C 22.29 21.33, 22.245 21.825, 21.96 23.1 C 21.72 23.880000000000003, 21.855 23.640000000000004, 21.48 24.660000000000004 C 20.97 25.92, 21.36 26.055, 20.46 27.18 C 19.17 28.17, 19.125 28.320000000000004, 17.88 29.160000000000004 C 16.68 29.85, 16.08 30.195, 15.48 30.54 C 15.48 30.54, 15.57 30.509999999999998, 15.48 30.54 L 15.120000000000001 30.660000000000004" fill="none" stroke="black" stroke-width="5"></path><path d="M 31.14 27.599999999999998 C 31.08 28.439999999999998, 31.215 27.975, 31.02 29.28 C 30.689999999999998 31.05, 30.855 31.26, 30.36 32.82 C 29.7 34.17, 29.82 34.23, 29.04 35.519999999999996 C 28.14 36.75, 28.200000000000003 36.78, 27.240000000000002 37.980000000000004 C 26.220000000000002 39.150000000000006, 26.295 39.24, 25.200000000000003 40.32 C 24.03 41.31, 24.3 41.235, 22.86 42.3 C 21.15 43.44, 20.775000000000002 43.785, 19.44 44.58 C 18.48 45.03, 18.27 45.165000000000006, 17.52 45.480000000000004 C 16.98 45.66, 17.025000000000002 45.69, 16.44 45.839999999999996 C 15.81 45.959999999999994, 15.66 46.035, 15.18 46.08 L 14.52 46.019999999999996" fill="none" stroke="black" stroke-width="5"></path></svg>