<svg width="48" height="48" viewBox="0 0 48 48" xmlns="http://www.w3.org/2000/svg"><path d="M 18.54 28.02 C 18.75 28.86, 18.78 28.605, 18.96 29.700000000000003 C 19.11 31.050000000000004, 19.139999999999997 31.125000000000007, 19.259999999999998 32.400000000000006 C 19.35 33.6, 19.395 33.75, 19.44 34.8 C 19.44 35.699999999999996, 19.44 35.714999999999996, 19.44 36.599999999999994 C 19.44 37.47, 19.515 37.485, 19.44 38.339999999999996 C 19.29 39.17999999999999, 19.395000000000003 39.269999999999996, 19.14 40.019999999999996 C 18.78 40.67999999999999, 18.735 40.88999999999999, 18.419999999999998 41.339999999999996 C 18.15 41.58, 18.18 41.565, 17.88 41.82 C 17.549999999999997 42.09, 17.595 42.135, 17.22 42.36 C 16.799999999999997 42.54, 16.71 42.584999999999994, 16.38 42.72 C 16.14 42.81, 16.169999999999998 42.855000000000004, 15.899999999999999 42.900000000000006 C 15.599999999999998 42.900000000000006, 15.599999999999998 42.96000000000001, 15.299999999999999 42.900000000000006 C 15 42.78, 15.06 42.855000000000004, 14.700000000000001 42.660000000000004 C 14.280000000000001 42.39, 14.31 42.54, 13.86 42.12 C 13.379999999999999 41.55, 13.364999999999998 41.550000000000004, 12.899999999999999 40.980000000000004 C 12.45 40.41, 12.45 40.8, 12 39.839999999999996 C 11.55 38.489999999999995, 11.520000000000001 38.64, 11.100000000000001 37.14 C 10.71 35.489999999999995, 10.56 35.355, 10.32 33.839999999999996 C 10.23 32.459999999999994, 10.185 32.58, 10.14 31.08 C 10.14 29.459999999999997, 10.14 29.654999999999994, 10.14 27.839999999999996 C 10.14 25.83, 10.14 25.77, 10.14 23.82 C 10.14 21.93, 10.125 21.9, 10.14 20.04 C 10.17 18.21, 10.035 18.075, 10.2 16.38 C 10.5 14.82, 10.515 14.61, 10.8 13.26 C 11.07 12.120000000000001, 11.04 11.940000000000001, 11.34 10.98 C 11.67 10.2, 11.58 10.004999999999999, 12 9.42 C 12.51 9.030000000000001, 12.51 8.97, 13.02 8.64 C 13.53 8.370000000000001, 13.649999999999999 8.250000000000002, 14.04 8.100000000000001 C 14.31 8.07, 14.250000000000002 8.055000000000001, 14.580000000000002 8.040000000000001 C 14.97 8.040000000000001, 14.940000000000001 8.040000000000001, 15.36 8.040000000000001 C 15.809999999999999 8.040000000000001, 15.794999999999998 8.040000000000001, 16.259999999999998 8.040000000000001 C 16.74 8.040000000000001, 16.65 7.890000000000001, 17.22 8.040000000000001 C 17.88 8.34, 17.865 8.175, 18.54 8.64 C 19.229999999999997 9.27, 19.29 9.224999999999998, 19.919999999999998 9.899999999999999 C 20.49 10.62, 20.534999999999997 10.425, 21.06 11.34 C 21.54 12.45, 21.72 12.674999999999999, 22.02 13.559999999999999 C 22.14 14.219999999999999, 22.125 13.77, 22.259999999999998 14.879999999999999 C 22.409999999999997 16.439999999999998, 22.32 16.35, 22.56 18 C 22.89 19.740000000000002, 22.89 20.16, 23.22 21.48 C 23.549999999999997 22.380000000000003, 23.669999999999998 22.71, 23.88 23.28 C 23.97 23.52, 24.015 23.64, 24.06 23.759999999999998 C 24.06 23.759999999999998, 24.014999999999997 23.714999999999996, 24.06 23.759999999999998 C 24.15 23.85, 23.955000000000002 23.94, 24.240000000000002 23.94 C 24.720000000000002 23.85, 24.690000000000005 23.924999999999997, 25.200000000000003 23.759999999999998 C 25.740000000000002 23.52, 25.695 23.505000000000003, 26.28 23.28 C 26.91 23.07, 26.82 22.965, 27.54 22.86 C 28.35 22.86, 28.215000000000003 22.65, 29.160000000000004 22.86 C 30.240000000000002 23.28, 30.495 23.325000000000003, 31.32 23.700000000000003 C 31.89 24.03, 31.785000000000004 23.865000000000002, 32.46 24.36 C 33.239999999999995 25.02, 33.345 25.005, 34.019999999999996 25.68 C 34.59 26.369999999999997, 34.725 26.235, 35.160000000000004 27.06 C 35.46 28.02, 35.61 27.69, 35.76 28.98 C 35.76 30.6, 35.76 30.735, 35.76 32.22 C 35.76 33.57, 35.79 33.42, 35.76 34.92 C 35.7 36.57, 35.775 36.825, 35.64 38.22 C 35.43 39.36, 35.37 39.585, 35.22 40.5 C 35.129999999999995 41.19, 35.085 41.535000000000004, 35.04 41.88 C 35.04 41.88, 35.04 41.85, 35.04 41.88 C 35.04 41.94, 35.04 41.925, 35.04 42 C 35.04 42.09, 35.04 42.105000000000004, 35.04 42.18 L 35.04 42.3" fill="none" stroke="black" stroke-width="5"></path><path d="M 22.62 14.399999999999999 C 23.07 14.399999999999999, 22.905 14.354999999999997, 23.52 14.399999999999999 C 24.299999999999997 14.49, 24.27 14.535, 25.08 14.580000000000002 C 25.919999999999998 14.580000000000002, 25.634999999999998 14.610000000000003, 26.759999999999998 14.580000000000002 C 28.169999999999998 14.520000000000001, 28.305 14.55, 29.58 14.46 C 30.72 14.34, 30.795 14.355, 31.86 14.22 C 32.849999999999994 14.07, 32.76 14.009999999999998, 33.839999999999996 13.919999999999998 C 35.01 13.889999999999999, 35.31 13.875, 36.18 13.86 C 36.75 13.86, 36.885 13.86, 37.32 13.86 C 37.620000000000005 13.86, 37.725 13.86, 37.92 13.86 L 38.099999999999994 13.86" fill="none" stroke="black" stroke-width="5"></path></svg>