<svg width="48" height="48" viewBox="0 0 48 48" xmlns="http://www.w3.org/2000/svg"><path d="M 11.879999999999999 8.58 C 12 8.61, 11.82 8.625, 12.120000000000001 8.64 C 12.600000000000001 8.64, 12.405000000000001 8.685, 13.080000000000002 8.64 C 13.950000000000001 8.55, 14.055 8.504999999999999, 14.82 8.459999999999999 C 15.48 8.459999999999999, 15.330000000000002 8.459999999999999, 16.14 8.459999999999999 C 17.1 8.459999999999999, 17.25 8.459999999999999, 18.06 8.459999999999999 C 18.72 8.459999999999999, 18.645 8.459999999999999, 19.38 8.459999999999999 C 20.189999999999998 8.459999999999999, 19.98 8.459999999999999, 21 8.459999999999999 C 22.23 8.459999999999999, 22.41 8.504999999999999, 23.46 8.459999999999999 C 24.330000000000002 8.37, 24.225 8.325, 25.200000000000003 8.28 C 26.28 8.28, 26.4 8.294999999999998, 27.36 8.28 C 28.2 8.25, 28.47 8.265, 29.04 8.22 C 29.34 8.16, 29.325000000000003 8.13, 29.64 8.100000000000001 C 29.97 8.100000000000001, 30.029999999999998 8.100000000000001, 30.299999999999997 8.100000000000001 C 30.509999999999998 8.100000000000001, 30.449999999999996 8.100000000000001, 30.72 8.100000000000001 C 31.05 8.100000000000001, 31.14 8.100000000000001, 31.380000000000003 8.100000000000001 L 31.68 8.100000000000001" fill="none" stroke="black" stroke-width="5"></path><path d="M 25.5 8.28 C 25.89 8.91, 25.86 8.82, 26.28 9.540000000000001 C 26.73 10.350000000000001, 26.79 10.275, 27.18 11.16 C 27.509999999999998 12.120000000000001, 27.449999999999996 12.015000000000002, 27.839999999999996 13.080000000000002 C 28.29 14.25, 28.23 14.279999999999998, 28.740000000000002 15.419999999999998 C 29.310000000000002 16.53, 29.400000000000002 16.740000000000002, 29.880000000000003 17.64 C 30.270000000000003 18.33, 30.255000000000003 18.27, 30.660000000000004 19.02 C 31.080000000000002 19.83, 31.215000000000003 20.07, 31.5 20.64 C 31.65 20.97, 31.665 20.849999999999998, 31.799999999999997 21.299999999999997 C 31.919999999999998 21.869999999999997, 31.979999999999997 21.96, 32.04 22.44 C 32.04 22.83, 32.04 22.919999999999998, 32.04 23.22 C 32.04 23.43, 32.085 23.37, 32.04 23.64 C 31.95 23.97, 32.19 23.909999999999997, 31.86 24.299999999999997 C 31.29 24.75, 31.5 24.750000000000004, 30.72 25.200000000000003 C 29.73 25.65, 29.925 25.724999999999998, 28.740000000000002 26.099999999999998 C 27.36 26.4, 27.285 26.475, 25.98 26.700000000000003 C 24.75 26.85, 24.9 26.865000000000002, 23.52 27 C 21.990000000000002 27.12, 22.05 27.045, 20.46 27.240000000000002 C 18.810000000000002 27.51, 18.315 27.645000000000003, 17.16 27.78 C 16.5 27.78, 16.365000000000002 27.78, 15.84 27.78 C 15.45 27.78, 15.254999999999999 27.78, 15.059999999999999 27.78 C 15.059999999999999 27.78, 15.089999999999998 27.78, 15.059999999999999 27.78 C 15 27.78, 15.015 27.78, 14.940000000000001 27.78 C 14.850000000000001 27.78, 14.805 27.78, 14.76 27.78 C 14.76 27.78, 14.834999999999999 27.78, 14.76 27.78 C 14.61 27.78, 14.610000000000001 27.78, 14.46 27.78 C 14.31 27.78, 14.280000000000001 27.78, 14.16 27.78 C 14.07 27.78, 14.025 27.78, 13.98 27.78 L 13.98 27.78" fill="none" stroke="black" stroke-width="5"></path><path d="M 11.399999999999999 45.660000000000004 C 12.059999999999999 45.45, 11.73 45.645, 12.72 45.24 C 14.04 44.64, 14.19 44.7, 15.36 44.04 C 16.38 43.31999999999999, 16.47 43.379999999999995, 17.4 42.599999999999994 C 18.240000000000002 41.76, 18.345000000000002 41.955, 19.080000000000002 40.92 C 19.71 39.69, 19.845 39.525, 20.34 38.46 C 20.7 37.56, 20.775 37.605000000000004, 21.06 36.660000000000004 C 21.27 35.67, 21.33 35.94, 21.48 34.68 C 21.57 33.15, 21.615000000000002 32.864999999999995, 21.66 31.619999999999997 C 21.66 30.66, 21.66 30.42, 21.66 29.700000000000003 C 21.66 29.220000000000002, 21.66 29.205000000000005, 21.66 28.740000000000002 C 21.66 28.29, 21.66 28.095, 21.66 27.839999999999996 C 21.66 27.779999999999998, 21.66 27.794999999999998, 21.66 27.72 C 21.66 27.63, 21.66 27.585, 21.66 27.54 C 21.66 27.54, 21.66 27.54, 21.66 27.54 C 21.66 27.54, 21.66 27.54, 21.66 27.54 C 21.66 27.54, 21.66 27.479999999999997, 21.66 27.54 C 21.66 27.66, 21.615000000000002 27.57, 21.66 27.78 C 21.75 28.080000000000002, 21.75 28.035000000000004, 21.84 28.380000000000003 C 21.93 28.770000000000003, 21.93 28.575000000000003, 22.02 29.160000000000004 C 22.11 29.94, 22.065000000000005 29.865000000000002, 22.200000000000003 30.72 C 22.380000000000003 31.65, 22.439999999999998 31.755, 22.56 32.58 C 22.619999999999997 33.3, 22.56 33.269999999999996, 22.68 34.019999999999996 C 22.86 34.8, 22.724999999999998 34.62, 23.04 35.58 C 23.490000000000002 36.72, 23.595 36.989999999999995, 23.94 37.86 C 24.18 38.46, 24.060000000000002 38.505, 24.42 39.06 C 24.900000000000002 39.57, 24.78 39.465, 25.380000000000003 40.08 C 26.1 40.8, 26.25 40.995, 26.82 41.519999999999996 C 27.240000000000002 41.849999999999994, 27.120000000000005 41.85, 27.660000000000004 42.18 C 28.32 42.51, 28.305 42.599999999999994, 28.98 42.839999999999996 C 29.67 42.989999999999995, 29.669999999999998 43.019999999999996, 30.36 43.14 C 31.05 43.230000000000004, 31.200000000000003 43.230000000000004, 31.740000000000002 43.32 C 32.129999999999995 43.41, 32.175 43.455, 32.519999999999996 43.5 C 32.81999999999999 43.5, 32.925 43.5, 33.12 43.5 C 33.209999999999994 43.5, 33.254999999999995 43.5, 33.3 43.5 L 33.3 43.5" fill="none" stroke="black" stroke-width="5"></path></svg>