<svg width="48" height="48" viewBox="0 0 48 48" xmlns="http://www.w3.org/2000/svg"><path d="M 12.96 6.36 C 15.36 6.36, 15.944999999999999 6.375, 17.759999999999998 6.36 C 18.99 6.33, 18.779999999999998 6.465000000000001, 20.22 6.300000000000001 C 21.869999999999997 6, 22.095 5.924999999999999, 23.52 5.699999999999999 C 24.72 5.55, 24.69 5.5200000000000005, 25.92 5.4 C 27.18 5.3100000000000005, 27.450000000000003 5.265, 28.44 5.22 C 29.160000000000004 5.22, 29.085000000000004 5.22, 29.880000000000003 5.22 C 30.75 5.22, 30.9 5.205, 31.619999999999997 5.22 C 32.19 5.25, 32.114999999999995 5.235, 32.76 5.28 C 33.480000000000004 5.34, 33.690000000000005 5.37, 34.2 5.4 C 34.5 5.4, 34.575 5.37, 34.8 5.4 L 35.099999999999994 5.5200000000000005" fill="none" stroke="black" stroke-width="5"></path><path d="M 28.68 5.1 C 28.92 5.16, 28.935000000000002 4.9799999999999995, 29.160000000000004 5.22 C 29.37 5.640000000000001, 29.4 5.265000000000001, 29.58 6.0600000000000005 C 29.73 7.2299999999999995, 29.655 6.7349999999999985, 29.880000000000003 8.399999999999999 C 30.18 10.559999999999999, 30.195 11.13, 30.48 12.72 C 30.75 13.74, 30.794999999999998 13.605, 31.02 14.76 C 31.200000000000003 16.05, 31.200000000000003 15.915, 31.380000000000003 17.34 C 31.560000000000002 18.9, 31.650000000000002 19.245, 31.740000000000002 20.46 C 31.740000000000002 21.330000000000002, 31.740000000000002 21.510000000000005, 31.740000000000002 22.200000000000003 C 31.740000000000002 22.71, 31.740000000000002 22.77, 31.740000000000002 23.22 C 31.740000000000002 23.61, 31.830000000000002 23.564999999999998, 31.740000000000002 24 C 31.560000000000002 24.48, 31.680000000000003 24.42, 31.380000000000003 24.96 C 30.96 25.560000000000002, 31.035 25.680000000000003, 30.54 26.160000000000004 C 29.97 26.520000000000003, 29.835 26.700000000000003, 29.400000000000002 26.880000000000003 C 29.1 26.880000000000003, 29.25 26.880000000000003, 28.799999999999997 26.880000000000003 C 28.199999999999996 26.880000000000003, 28.409999999999997 27.300000000000004, 27.599999999999998 26.880000000000003 C 26.58 26.040000000000003, 26.384999999999998 26.130000000000003, 25.56 25.200000000000003 C 24.93 24.18, 24.779999999999998 24.015, 24.299999999999997 23.16 C 23.97 22.47, 23.939999999999998 22.41, 23.64 21.78 C 23.37 21.21, 23.28 21, 23.1 20.64 C 23.009999999999998 20.490000000000002, 22.965 20.415, 22.919999999999998 20.34 C 22.919999999999998 20.34, 22.935 20.37, 22.919999999999998 20.34 C 22.89 20.28, 22.904999999999998 20.099999999999998, 22.86 20.22 C 22.8 20.52, 22.770000000000003 20.295, 22.740000000000002 20.82 C 22.740000000000002 21.57, 22.740000000000002 21.63, 22.740000000000002 22.32 C 22.740000000000002 22.950000000000003, 22.740000000000002 22.995, 22.740000000000002 23.580000000000002 C 22.740000000000002 24.120000000000005, 22.800000000000004 24.075000000000003, 22.740000000000002 24.660000000000004 C 22.62 25.290000000000003, 22.65 25.410000000000004, 22.5 25.92 C 22.32 26.310000000000002, 22.41 26.355000000000004, 22.14 26.700000000000003 C 21.78 27, 21.854999999999997 27.059999999999995, 21.419999999999998 27.299999999999997 C 20.909999999999997 27.48, 20.985 27.525000000000006, 20.4 27.660000000000004 C 19.740000000000002 27.75, 19.725 27.794999999999998, 19.080000000000002 27.839999999999996 C 18.450000000000003 27.839999999999996, 18.42 27.854999999999997, 17.82 27.839999999999996 C 17.25 27.81, 17.19 27.825, 16.68 27.78 C 16.23 27.720000000000002, 16.32 27.780000000000005, 15.78 27.660000000000004 C 15.149999999999999 27.48, 15.09 27.39, 14.52 27.299999999999997 C 14.01 27.299999999999997, 13.95 27.284999999999997, 13.5 27.299999999999997 C 13.11 27.33, 12.990000000000002 27.269999999999996, 12.72 27.36 C 12.57 27.51, 12.599999999999998 27.345000000000006, 12.419999999999998 27.660000000000004 C 12.209999999999999 28.14, 12.149999999999999 28.064999999999998, 12 28.619999999999997 C 11.91 29.25, 11.865 29.25, 11.82 29.880000000000003 C 11.82 30.51, 11.82 30.480000000000004, 11.82 31.14 C 11.82 31.83, 11.64 31.679999999999996, 11.82 32.519999999999996 C 12.18 33.51, 12.134999999999998 33.269999999999996, 12.54 34.5 C 12.99 35.97, 13.020000000000001 36.045, 13.440000000000001 37.44 C 13.830000000000002 38.76, 13.935 39.105, 14.22 40.08 C 14.400000000000002 40.709999999999994, 14.445000000000002 40.709999999999994, 14.580000000000002 41.339999999999996 C 14.670000000000002 41.97, 14.685 42.11999999999999, 14.76 42.599999999999994 C 14.82 42.92999999999999, 14.85 43.065, 14.879999999999999 43.26 C 14.879999999999999 43.32, 14.879999999999999 43.35, 14.879999999999999 43.38 L 14.879999999999999 43.38" fill="none" stroke="black" stroke-width="5"></path></svg>