<svg width="48" height="48" viewBox="0 0 48 48" xmlns="http://www.w3.org/2000/svg"><path d="M 16.68 28.200000000000003 C 17.49 28.200000000000003, 16.904999999999998 28.200000000000003, 18.299999999999997 28.200000000000003 C 20.279999999999998 28.200000000000003, 20.834999999999997 28.200000000000003, 22.259999999999998 28.200000000000003 C 23.13 28.200000000000003, 23.07 28.200000000000003, 24 28.200000000000003 C 24.990000000000002 28.200000000000003, 25.020000000000003 28.215000000000003, 25.98 28.200000000000003 C 26.909999999999997 28.17, 26.939999999999998 28.275, 27.839999999999996 28.14 C 28.709999999999997 27.900000000000002, 28.994999999999997 27.840000000000003, 29.58 27.660000000000004 C 29.88 27.540000000000003, 29.79 27.720000000000002, 30.18 27.42 C 30.66 26.94, 30.765 27.240000000000002, 31.14 26.46 C 31.41 25.38, 31.5 25.424999999999997, 31.68 24.299999999999997 C 31.77 23.13, 31.814999999999998 23.04, 31.86 21.96 C 31.86 20.97, 31.994999999999997 21.405, 31.86 19.98 C 31.59 18.119999999999997, 31.635 18.224999999999998, 31.32 16.259999999999998 C 30.96 14.19, 30.869999999999997 13.965, 30.599999999999998 12.120000000000001 C 30.42 10.5, 30.42 10.125, 30.240000000000002 8.879999999999999 C 30.060000000000002 8.01, 29.970000000000002 7.6499999999999995, 29.880000000000003 7.14 C 29.880000000000003 6.99, 29.925000000000004 7.08, 29.880000000000003 6.84 C 29.790000000000003 6.51, 29.745000000000005 6.345, 29.700000000000003 6.18 L 29.700000000000003 6.18" fill="none" stroke="black" stroke-width="5"></path><path d="M 23.28 12.120000000000001 C 22.68 12.120000000000001, 22.785000000000004 11.895000000000001, 22.080000000000002 12.120000000000001 C 21.270000000000003 12.57, 21.135 12.285, 20.46 13.02 C 19.92 14.04, 19.695 13.965, 19.38 15.059999999999999 C 19.29 16.229999999999997, 19.14 16.544999999999998, 19.200000000000003 17.4 C 19.410000000000004 17.939999999999998, 19.11 17.835, 19.62 18.48 C 20.43 19.23, 20.340000000000003 19.560000000000002, 21.240000000000002 19.98 C 22.23 20.07, 22.275 20.235, 23.22 20.16 C 24.119999999999997 19.92, 24.255 20.175, 25.02 19.68 C 25.65 18.93, 25.785 19.035, 26.28 18.18 C 26.64 17.22, 26.880000000000003 17.22, 27 16.259999999999998 C 26.88 15.299999999999999, 27.134999999999998 15.09, 26.759999999999998 14.34 C 26.13 13.8, 26.189999999999998 13.695, 25.5 13.26 C 24.75 12.93, 24.615000000000002 12.885000000000002, 24 12.600000000000001 C 23.52 12.360000000000001, 23.4 12.255000000000003, 23.04 12.120000000000001 L 22.56 12.059999999999999" fill="none" stroke="black" stroke-width="5"></path><path d="M 15.66 36.3 C 16.05 36.3, 15.165000000000003 36.3, 16.44 36.3 C 18.6 36.3, 18.33 36.345, 20.759999999999998 36.3 C 23.46 36.209999999999994, 23.625000000000004 36.165, 26.160000000000004 36.12 C 28.53 36.12, 29.340000000000003 36.12, 30.900000000000002 36.12 C 31.650000000000006 36.12, 32.025000000000006 36.12, 32.400000000000006 36.12 L 32.400000000000006 36.12" fill="none" stroke="black" stroke-width="5"></path></svg>