<svg width="48" height="48" viewBox="0 0 48 48" xmlns="http://www.w3.org/2000/svg"><path d="M 22.5 3.4799999999999995 C 21.48 3.8399999999999994, 21.525 3.6149999999999993, 20.46 4.199999999999999 C 19.35 5.01, 18.990000000000002 5.115, 18.240000000000002 5.82 C 17.85 6.42, 17.745 6.1499999999999995, 17.46 7.02 C 17.28 8.16, 16.830000000000002 8.190000000000001, 17.1 9.3 C 17.82 10.379999999999999, 17.369999999999997 10.68, 18.54 11.459999999999999 C 20.16 11.939999999999998, 20.565 12.179999999999998, 21.78 12.419999999999998 C 22.59 12.419999999999998, 22.349999999999998 12.419999999999998, 23.4 12.419999999999998 C 24.689999999999998 12.419999999999998, 24.810000000000002 12.749999999999996, 25.98 12.419999999999998 C 27.03 11.76, 27.345 11.850000000000001, 28.08 11.100000000000001 C 28.5 10.260000000000002, 28.71 10.035, 28.92 9.42 C 28.92 9.030000000000001, 29.085 9.39, 28.92 8.64 C 28.59 7.53, 28.604999999999997 7.23, 28.259999999999998 6.42 C 27.9 5.91, 27.974999999999998 5.91, 27.54 5.4 C 27.03 4.890000000000001, 27.06 4.755, 26.52 4.38 C 25.950000000000003 4.140000000000001, 26.01 4.095000000000001, 25.380000000000003 3.9000000000000004 C 24.69 3.75, 24.705000000000002 3.675, 24 3.5999999999999996 C 23.28 3.5999999999999996, 23.04 3.5849999999999995, 22.56 3.5999999999999996 L 22.080000000000002 3.66" fill="none" stroke="black" stroke-width="5"></path><path d="M 15.78 28.380000000000003 C 15.21 27, 15.06 26.849999999999998, 14.64 25.619999999999997 C 14.370000000000001 24.54, 14.370000000000001 24.45, 14.100000000000001 23.46 C 13.83 22.560000000000002, 13.724999999999998 22.47, 13.559999999999999 21.66 C 13.5 20.939999999999998, 13.350000000000001 20.82, 13.440000000000001 20.22 C 13.68 19.74, 13.514999999999999 19.694999999999997, 13.919999999999998 19.259999999999998 C 14.489999999999998 18.869999999999997, 13.919999999999998 18.825, 15.059999999999999 18.48 C 16.77 18.18, 16.785 18.119999999999997, 18.48 17.88 C 20.16 17.7, 19.725 17.61, 21.84 17.52 C 24.39 17.52, 24.54 17.46, 26.94 17.52 C 29.19 17.64, 29.835 17.7, 31.44 17.759999999999998 C 32.4 17.759999999999998, 32.88 17.759999999999998, 33.36 17.759999999999998 L 33.36 17.759999999999998" fill="none" stroke="black" stroke-width="5"></path><path d="M 21.9 17.4 C 21.990000000000002 17.4, 21.96 17.159999999999997, 22.080000000000002 17.4 C 22.23 17.88, 22.32 17.31, 22.38 18.36 C 22.35 19.98, 22.44 19.71, 22.32 21.6 C 22.11 23.76, 22.125 23.595000000000002, 21.9 25.92 C 21.659999999999997 28.410000000000004, 21.584999999999997 28.335, 21.419999999999998 30.900000000000002 C 21.33 33.54, 21.285 34.05, 21.240000000000002 36.18 C 21.240000000000002 37.8, 21.240000000000002 38.07, 21.240000000000002 39.42 C 21.240000000000002 40.5, 21.240000000000002 40.5, 21.240000000000002 41.58 C 21.240000000000002 42.66, 21.240000000000002 42.855000000000004, 21.240000000000002 43.74 C 21.240000000000002 44.43, 21.240000000000002 44.58, 21.240000000000002 45.12 C 21.240000000000002 45.510000000000005, 21.240000000000002 45.660000000000004, 21.240000000000002 45.900000000000006 C 21.240000000000002 45.99, 21.240000000000002 46.035, 21.240000000000002 46.08 C 21.240000000000002 46.08, 21.240000000000002 46.08, 21.240000000000002 46.08 L 21.240000000000002 46.08" fill="none" stroke="black" stroke-width="5"></path><path d="M 27.42 17.04 C 27.42 17.549999999999997, 27.585 16.935, 27.42 18.06 C 27.09 19.799999999999997, 27.074999999999996 19.424999999999997, 26.759999999999998 21.54 C 26.46 24.03, 26.355000000000004 24.03, 26.160000000000004 26.52 C 26.07 29.009999999999998, 26.055 29.25, 25.98 31.5 C 25.92 33.51, 25.919999999999998 33.885, 25.86 35.519999999999996 C 25.8 36.78, 25.770000000000003 36.9, 25.740000000000002 38.04 C 25.740000000000002 39.06, 25.740000000000002 39.089999999999996, 25.740000000000002 40.08 C 25.740000000000002 41.04, 25.740000000000002 41.07, 25.740000000000002 42 C 25.740000000000002 42.9, 25.740000000000002 43.11, 25.740000000000002 43.8 C 25.740000000000002 44.28, 25.740000000000002 44.44499999999999, 25.740000000000002 44.76 C 25.740000000000002 44.91, 25.740000000000002 44.895, 25.740000000000002 45.06 C 25.740000000000002 45.24, 25.740000000000002 45.225, 25.740000000000002 45.42 C 25.740000000000002 45.629999999999995, 25.740000000000002 45.735, 25.740000000000002 45.839999999999996 C 25.740000000000002 45.839999999999996, 25.740000000000002 45.839999999999996, 25.740000000000002 45.839999999999996 L 25.740000000000002 45.839999999999996" fill="none" stroke="black" stroke-width="5"></path></svg>