<svg width="48" height="48" viewBox="0 0 48 48" xmlns="http://www.w3.org/2000/svg"><path d="M 14.28 30.240000000000002 C 14.879999999999999 30.27, 14.745000000000001 30.24, 15.48 30.299999999999997 C 16.35 30.39, 16.29 30.48, 17.22 30.48 C 18.21 30.39, 18.270000000000003 30.494999999999997, 19.200000000000003 30.299999999999997 C 20.07 30, 20.01 30.3, 20.94 29.700000000000003 C 21.93 28.800000000000004, 21.99 28.980000000000004, 22.919999999999998 27.900000000000002 C 23.79 26.64, 24.03 26.535000000000004, 24.660000000000004 25.380000000000003 C 25.050000000000004 24.330000000000002, 25.200000000000003 23.970000000000002, 25.44 23.28 C 25.53 22.950000000000003, 25.575 22.785, 25.619999999999997 22.62 C 25.619999999999997 22.62, 25.619999999999997 22.665, 25.619999999999997 22.62 C 25.619999999999997 22.53, 25.859999999999996 22.155, 25.619999999999997 22.44 C 25.14 23.1, 25.005000000000003 22.979999999999997, 24.660000000000004 23.759999999999998 C 24.450000000000003 24.659999999999997, 24.345000000000002 24.794999999999998, 24.240000000000002 25.56 C 24.240000000000002 26.189999999999998, 24.060000000000002 26.19, 24.240000000000002 26.82 C 24.6 27.45, 24.51 27.689999999999998, 24.96 28.08 C 25.5 28.23, 25.365 28.215000000000003, 26.04 28.380000000000003 C 26.85 28.560000000000002, 26.940000000000005 28.680000000000003, 27.660000000000004 28.740000000000002 C 28.290000000000003 28.68, 28.230000000000004 28.994999999999997, 28.92 28.619999999999997 C 29.67 27.93, 29.745000000000005 28.095, 30.42 27.240000000000002 C 31.02 26.220000000000002, 31.14 26.325000000000003, 31.619999999999997 25.200000000000003 C 31.979999999999997 23.970000000000002, 32.114999999999995 24.090000000000003, 32.339999999999996 22.740000000000002 C 32.42999999999999 21.27, 32.474999999999994 21.074999999999996, 32.519999999999996 19.799999999999997 C 32.519999999999996 18.72, 32.58 19.2, 32.519999999999996 17.64 C 32.4 15.6, 32.595 15.284999999999998, 32.28 13.559999999999999 C 31.77 12.149999999999999, 31.724999999999998 11.895, 31.259999999999998 10.74 C 30.84 9.84, 30.93 9.719999999999999, 30.42 8.94 C 29.82 8.28, 29.67 8.13, 29.22 7.62 C 28.919999999999998 7.26, 28.83 7.154999999999999, 28.619999999999997 6.8999999999999995 C 28.5 6.75, 28.485 6.720000000000001, 28.380000000000003 6.6000000000000005 C 28.290000000000003 6.51, 28.335000000000004 6.555, 28.200000000000003 6.42 L 27.839999999999996 6.0600000000000005" fill="none" stroke="black" stroke-width="5"></path><path d="M 21.12 9.42 C 19.86 9.629999999999999, 19.71 9.345, 18.6 9.84 C 17.64 10.62, 17.28 10.634999999999998, 16.68 11.399999999999999 C 16.44 12.149999999999999, 16.17 11.759999999999998, 16.200000000000003 12.899999999999999 C 16.5 14.43, 16.305 14.895, 16.799999999999997 15.96 C 17.49 16.560000000000002, 17.22 16.83, 18.18 17.16 C 19.41 17.22, 19.560000000000002 17.580000000000002, 20.64 17.28 C 21.57 16.62, 21.9 16.635, 22.5 15.96 C 22.77 15.270000000000001, 22.919999999999998 15.330000000000002, 23.04 14.580000000000002 C 23.009999999999998 13.770000000000001, 23.310000000000002 13.98, 22.98 12.96 C 22.35 11.73, 22.125 11.235, 21.72 10.5 C 21.54 10.26, 21.66 10.334999999999999, 21.36 10.02 C 20.939999999999998 9.629999999999999, 20.805 9.48, 20.52 9.24 C 20.369999999999997 9.15, 20.294999999999998 9.105, 20.22 9.06 L 20.22 9.06" fill="none" stroke="black" stroke-width="5"></path><path d="M 13.200000000000001 37.14 C 14.04 37.14, 13.409999999999998 37.14, 14.879999999999999 37.14 C 16.98 37.14, 16.860000000000003 37.14, 19.080000000000002 37.14 C 21.42 37.14, 21.584999999999997 37.2, 23.759999999999998 37.14 C 25.77 37.02, 26.37 36.94500000000001, 27.78 36.900000000000006 C 28.590000000000003 36.93000000000001, 28.770000000000003 36.945, 29.400000000000002 36.96 C 29.85 36.96, 30 36.96, 30.299999999999997 36.96 C 30.449999999999996 36.96, 30.404999999999998 36.96, 30.599999999999998 36.96 L 31.08 36.96" fill="none" stroke="black" stroke-width="5"></path><path d="M 12.72 44.28 C 13.830000000000002 44.28, 13.005 44.400000000000006, 14.940000000000001 44.28 C 17.700000000000003 44.04, 17.685000000000002 44.084999999999994, 20.46 43.8 C 23.25 43.47, 23.865 43.305, 26.04 43.14 C 27.6 43.14, 27.765000000000004 43.14, 29.160000000000004 43.14 C 30.39 43.14, 30.72 43.14, 31.619999999999997 43.14 C 32.19 43.14, 32.415 43.14, 32.76 43.14 L 33 43.14" fill="none" stroke="black" stroke-width="5"></path></svg>