<svg width="48" height="48" viewBox="0 0 48 48" xmlns="http://www.w3.org/2000/svg"><path d="M 22.799999999999997 3.18 C 21.9 3.66, 21.975 3.2849999999999997, 21 4.14 C 19.95 5.37, 19.68 5.325, 18.9 6.6000000000000005 C 18.39 7.92, 18.134999999999998 8.13, 17.88 9.24 C 17.88 10.14, 17.7 10.155000000000001, 17.88 11.040000000000001 C 18.240000000000002 11.91, 18.045 12, 18.6 12.78 C 19.35 13.469999999999999, 19.290000000000003 13.56, 20.1 14.16 C 20.97 14.67, 21.09 14.865, 21.84 15.18 C 22.47 15.299999999999999, 22.215 15.36, 23.1 15.419999999999998 C 24.240000000000002 15.419999999999998, 24.390000000000004 15.584999999999997, 25.380000000000003 15.419999999999998 C 26.22 15.09, 26.43 15.03, 27.06 14.76 C 27.48 14.55, 27.555 14.594999999999999, 27.900000000000002 14.34 C 28.17 14.04, 28.155 14.175, 28.44 13.74 C 28.740000000000002 13.170000000000002, 28.74 13.215000000000002, 29.04 12.600000000000001 C 29.34 11.940000000000001, 29.46 11.85, 29.64 11.28 C 29.7 10.8, 29.729999999999997 10.785, 29.759999999999998 10.32 C 29.759999999999998 9.870000000000001, 29.805 9.96, 29.759999999999998 9.42 C 29.669999999999998 8.79, 29.744999999999997 8.715, 29.58 8.16 C 29.339999999999996 7.68, 29.384999999999998 7.6499999999999995, 29.099999999999998 7.199999999999999 C 28.77 6.779999999999999, 28.785 6.75, 28.44 6.36 C 28.08 6, 28.064999999999998 6.029999999999999, 27.72 5.64 C 27.39 5.220000000000001, 27.345 5.115, 27.06 4.800000000000001 C 26.82 4.59, 26.909999999999997 4.59, 26.58 4.38 C 26.16 4.17, 26.145000000000003 4.095, 25.740000000000002 3.96 C 25.35 3.9, 25.425 3.87, 24.96 3.84 C 24.42 3.84, 24.42 3.84, 23.88 3.84 C 23.339999999999996 3.84, 23.114999999999995 3.8249999999999997, 22.799999999999997 3.84 L 22.62 3.9000000000000004" fill="none" stroke="black" stroke-width="5"></path><path d="M 14.34 19.740000000000002 C 14.82 19.740000000000002, 14.264999999999999 19.740000000000002, 15.299999999999999 19.740000000000002 C 16.89 19.740000000000002, 16.845 19.71, 18.48 19.740000000000002 C 20.16 19.8, 20.28 19.8, 21.84 19.86 C 23.28 19.92, 23.189999999999998 19.905, 24.72 19.98 C 26.34 20.07, 26.55 20.025, 27.96 20.16 C 29.16 20.34, 29.355 20.31, 30.36 20.52 C 31.17 20.759999999999998, 31.29 20.625, 31.98 21 C 32.55 21.509999999999998, 32.73 21.525, 33.12 22.02 C 33.33 22.5, 33.345 22.425, 33.54 22.98 C 33.72 23.61, 33.81 23.520000000000003, 33.900000000000006 24.240000000000002 C 33.900000000000006 25.05, 33.900000000000006 25.35, 33.900000000000006 25.86 C 33.900000000000006 26.07, 33.900000000000006 26.175, 33.900000000000006 26.28 L 33.900000000000006 26.28" fill="none" stroke="black" stroke-width="5"></path><path d="M 19.86 20.64 C 19.86 23.34, 19.799999999999997 23.505, 19.86 26.04 C 19.98 28.41, 20.04 28.410000000000004, 20.1 30.78 C 20.1 33.15, 20.1 33.48, 20.1 35.519999999999996 C 20.1 37.23, 20.1 37.379999999999995, 20.1 38.94 C 20.1 40.349999999999994, 20.1 40.739999999999995, 20.1 41.76 C 20.1 42.39, 20.055 42.38999999999999, 20.1 43.019999999999996 C 20.19 43.65, 20.205000000000002 43.65, 20.28 44.28 C 20.34 44.91, 20.22 44.894999999999996, 20.4 45.54 C 20.7 46.2, 20.79 46.47, 21 46.86 C 21.12 46.98, 21.105000000000004 47.03999999999999, 21.240000000000002 47.099999999999994 C 21.39 47.099999999999994, 21.345 47.099999999999994, 21.54 47.099999999999994 C 21.78 47.099999999999994, 21.78 47.18999999999999, 22.02 47.099999999999994 C 22.259999999999998 46.92, 22.275 46.995000000000005, 22.5 46.74 C 22.71 46.41, 22.68 46.5, 22.919999999999998 46.08 C 23.189999999999998 45.57, 23.19 45.63, 23.46 45.06 C 23.73 44.43, 23.715 44.489999999999995, 24 43.8 C 24.299999999999997 43.05, 24.24 43.125, 24.599999999999998 42.3 C 25.02 41.4, 25.065 41.25, 25.44 40.5 C 25.77 39.9, 25.695 39.795, 26.099999999999998 39.3 C 26.58 38.91, 25.634999999999998 39.209999999999994, 27.06 38.519999999999996 C 29.43 37.53, 29.894999999999996 37.125, 31.799999999999997 36.54 C 33.239999999999995 36.36, 33.795 36.269999999999996, 34.68 36.18 C 35.01 36.18, 35.175 36.18, 35.339999999999996 36.18 L 35.339999999999996 36.18" fill="none" stroke="black" stroke-width="5"></path></svg>