<svg width="48" height="48" viewBox="0 0 48 48" xmlns="http://www.w3.org/2000/svg"><path d="M 22.98 3.3000000000000003 C 22.35 3.3899999999999997, 22.29 3.255, 21.72 3.4799999999999995 C 21.21 3.8399999999999994, 21.195 3.704999999999999, 20.700000000000003 4.199999999999999 C 20.220000000000002 4.83, 20.145000000000003 4.77, 19.740000000000002 5.46 C 19.410000000000004 6.209999999999999, 19.305000000000003 6.209999999999999, 19.080000000000002 6.959999999999999 C 18.96 7.709999999999999, 18.81 7.709999999999999, 18.84 8.459999999999999 C 19.020000000000003 9.209999999999999, 18.855000000000004 9.299999999999999, 19.200000000000003 9.959999999999999 C 19.71 10.530000000000001, 19.515 10.56, 20.22 11.100000000000001 C 21.119999999999997 11.610000000000001, 21.195 11.715000000000002, 22.02 12.120000000000001 C 22.77 12.420000000000002, 22.86 12.48, 23.52 12.72 C 24.090000000000003 12.900000000000002, 23.925000000000004 13.005000000000003, 24.660000000000004 13.080000000000002 C 25.560000000000002 13.05, 25.755000000000003 13.2, 26.46 13.02 C 26.97 12.69, 26.91 12.885, 27.48 12.36 C 28.11 11.64, 28.32 11.49, 28.740000000000002 10.92 C 28.950000000000003 10.5, 28.995000000000005 10.605, 29.160000000000004 10.08 C 29.28 9.45, 29.340000000000003 9.435, 29.400000000000002 8.82 C 29.400000000000002 8.22, 29.400000000000002 8.235, 29.400000000000002 7.62 C 29.400000000000002 6.99, 29.46 6.87, 29.400000000000002 6.36 C 29.28 5.970000000000001, 29.415000000000003 5.985, 29.160000000000004 5.58 C 28.770000000000003 5.16, 28.785000000000004 5.13, 28.380000000000003 4.74 C 27.96 4.380000000000001, 27.990000000000002 4.32, 27.54 4.0200000000000005 C 27.06 3.7800000000000002, 27.104999999999997 3.7350000000000003, 26.58 3.54 C 26.009999999999998 3.39, 25.92 3.345, 25.44 3.24 C 25.050000000000004 3.18, 25.155000000000005 3.1500000000000004, 24.660000000000004 3.12 C 24.060000000000002 3.12, 23.880000000000003 3.12, 23.46 3.12 C 23.22 3.12, 23.1 3.12, 22.98 3.12 L 22.98 3.12" fill="none" stroke="black" stroke-width="5"></path><path d="M 14.940000000000001 17.34 C 15.36 17.46, 15.195 17.475, 15.78 17.580000000000002 C 16.53 17.67, 16.05 17.669999999999998, 17.28 17.759999999999998 C 18.990000000000002 17.85, 19.020000000000003 17.895, 20.700000000000003 17.94 C 22.35 17.94, 22.740000000000002 17.895000000000003, 24 17.94 C 24.87 18.03, 24.630000000000003 18.03, 25.740000000000002 18.12 C 27.090000000000003 18.21, 27.42 18.165, 28.44 18.299999999999997 C 29.130000000000003 18.479999999999997, 29.145 18.509999999999998, 29.82 18.66 C 30.48 18.78, 30.54 18.779999999999998, 31.14 18.9 C 31.68 19.02, 31.875 19.05, 32.22 19.14 C 32.37 19.2, 32.309999999999995 19.125, 32.519999999999996 19.259999999999998 C 32.79 19.47, 32.88 19.545, 33.06 19.68 C 33.150000000000006 19.74, 33.135000000000005 19.604999999999997, 33.24 19.799999999999997 C 33.36 20.13, 33.375 19.995, 33.480000000000004 20.46 C 33.57000000000001 21.060000000000002, 33.615 21.165, 33.660000000000004 21.66 C 33.660000000000004 22.05, 33.660000000000004 22.020000000000003, 33.660000000000004 22.44 C 33.660000000000004 22.89, 33.660000000000004 22.77, 33.660000000000004 23.34 C 33.660000000000004 24.03, 33.660000000000004 24.134999999999998, 33.660000000000004 24.72 C 33.660000000000004 25.2, 33.660000000000004 25.41, 33.660000000000004 25.68 C 33.660000000000004 25.74, 33.660000000000004 25.769999999999996, 33.660000000000004 25.799999999999997 C 33.660000000000004 25.799999999999997, 33.660000000000004 25.754999999999995, 33.660000000000004 25.799999999999997 L 33.660000000000004 25.98" fill="none" stroke="black" stroke-width="5"></path><path d="M 24.660000000000004 18.54 C 24.900000000000002 19.02, 25.020000000000003 18.96, 25.14 19.5 C 25.14 20.1, 25.14 19.470000000000002, 25.14 20.700000000000003 C 25.14 22.560000000000002, 25.14 22.845000000000002, 25.14 24.42 C 25.14 25.71, 25.14 25.695, 25.14 27 C 25.14 28.32, 25.215000000000003 28.41, 25.14 29.64 C 24.99 30.78, 25.184999999999995 30.525000000000002, 24.839999999999996 31.92 C 24.299999999999997 33.57, 24.374999999999996 33.629999999999995, 23.759999999999998 35.22 C 23.07 36.75, 23.099999999999998 36.84, 22.38 38.28 C 21.63 39.63, 21.509999999999998 40.035000000000004, 20.88 40.980000000000004 C 20.369999999999997 41.52, 20.58 41.44500000000001, 19.86 42.06 C 18.93 42.75, 18.63 42.989999999999995, 18 43.44 C 17.67 43.65, 17.64 43.62, 17.34 43.86 C 17.07 44.13, 16.935 44.265, 16.799999999999997 44.400000000000006 C 16.799999999999997 44.400000000000006, 16.844999999999995 44.385000000000005, 16.799999999999997 44.400000000000006 L 16.62 44.46" fill="none" stroke="black" stroke-width="5"></path></svg>