<svg width="48" height="48" viewBox="0 0 48 48" xmlns="http://www.w3.org/2000/svg"><path d="M 15.120000000000001 4.26 C 14.940000000000001 5.43, 14.955 5.115, 14.76 6.6000000000000005 C 14.55 8.4, 14.475 8.504999999999999, 14.34 10.2 C 14.280000000000001 11.79, 14.295000000000002 11.985, 14.22 13.379999999999999 C 14.129999999999999 14.579999999999998, 14.084999999999999 14.7, 14.04 15.78 C 14.04 16.740000000000002, 13.874999999999998 16.860000000000003, 14.04 17.700000000000003 C 14.370000000000001 18.42, 14.4 18.57, 14.700000000000001 19.14 C 14.97 19.560000000000002, 14.940000000000001 19.665, 15.24 19.98 C 15.57 20.189999999999998, 15.54 20.25, 15.899999999999999 20.4 C 16.29 20.490000000000002, 16.02 20.475, 16.68 20.580000000000002 C 17.61 20.700000000000003, 17.369999999999997 20.700000000000003, 18.54 20.82 C 19.95 20.939999999999998, 19.875 21, 21.36 21.06 C 22.92 21.06, 23.16 21.06, 24.48 21.06 C 25.560000000000002 21.06, 25.425 21.06, 26.64 21.06 C 27.99 21.06, 28.095 21.06, 29.339999999999996 21.06 C 30.479999999999997 21.06, 30.555 21.06, 31.619999999999997 21.06 C 32.61 21.06, 32.95499999999999 21.06, 33.599999999999994 21.06 C 33.9 21.06, 33.975 21.06, 34.2 21.06 C 34.35 21.06, 34.425 21.06, 34.5 21.06 L 34.5 21.06" fill="none" stroke="black" stroke-width="5"></path><path d="M 25.5 7.68 C 24.45 8.1, 24.224999999999998 8.07, 23.4 8.52 C 22.8 9, 22.740000000000002 8.805, 22.200000000000003 9.48 C 21.720000000000002 10.350000000000001, 21.570000000000004 10.035, 21.240000000000002 11.22 C 21.060000000000002 12.72, 20.925 13.065000000000001, 20.88 14.22 C 20.97 15.030000000000001, 20.775 15.12, 21.06 15.84 C 21.54 16.47, 21.24 16.68, 22.02 17.1 C 23.1 17.310000000000002, 22.935 17.490000000000002, 24.18 17.52 C 25.59 17.369999999999997, 25.814999999999998 17.535, 27 17.22 C 27.96 16.74, 28.005000000000003 17.084999999999997, 28.92 16.259999999999998 C 29.790000000000003 15.089999999999998, 30.165000000000003 15.104999999999997, 30.660000000000004 13.919999999999998 C 30.78 12.719999999999999, 31.005000000000003 12.495, 30.900000000000002 11.52 C 30.57 10.77, 30.825000000000003 10.8, 30.240000000000002 10.02 C 29.4 9.209999999999999, 29.505 8.985, 28.56 8.399999999999999 C 27.509999999999998 8.04, 27.315 7.859999999999999, 26.46 7.68 C 25.8 7.68, 25.740000000000002 7.68, 25.14 7.68 C 24.6 7.68, 24.375 7.6499999999999995, 24.06 7.68 L 23.88 7.800000000000001" fill="none" stroke="black" stroke-width="5"></path><path d="M 24.900000000000002 26.52 C 23.880000000000003 27.18, 23.55 27.029999999999998, 22.86 27.839999999999996 C 22.5 28.799999999999997, 22.005000000000003 29.025, 22.14 29.759999999999998 C 22.77 30.27, 22.74 30.495, 23.4 30.78 C 24.09 30.840000000000003, 24.015 31.320000000000004, 24.78 30.900000000000002 C 25.62 30, 26.04 30.134999999999998, 26.46 29.099999999999998 C 26.46 27.93, 26.91 27.479999999999997, 26.46 26.759999999999998 C 25.560000000000002 26.49, 25.545000000000005 26.099999999999998, 24.660000000000004 26.22 C 23.79 26.73, 23.445 26.46, 22.919999999999998 27.240000000000002 C 22.74 28.29, 22.409999999999997 28.409999999999997, 22.56 29.339999999999996 C 23.04 30.15, 22.905 30.81, 23.52 30.96 C 24.27 30.450000000000003, 24.54 30.615000000000002, 25.02 29.94 C 25.23 29.1, 25.5 28.74, 25.44 28.259999999999998 C 25.11 28.14, 25.080000000000002 27.705, 24.78 28.02 C 24.51 28.77, 24.240000000000002 29.009999999999998, 24.240000000000002 29.52 C 24.51 29.79, 24.48 30.419999999999998, 24.78 30.06 C 25.11 29.07, 25.41 28.784999999999997, 25.44 28.08 C 25.17 27.66, 25.305000000000003 27.195, 24.900000000000002 27.240000000000002 C 24.36 27.75, 24.015 27.525, 23.82 28.259999999999998 C 23.97 29.22, 24.014999999999997 29.7, 24.119999999999997 30.18 C 24.18 30.18, 24.21 30.18, 24.240000000000002 30.18 L 24.240000000000002 30.18" fill="none" stroke="black" stroke-width="5"></path><path d="M 16.02 38.64 C 16.47 38.489999999999995, 16.229999999999997 38.415, 16.919999999999998 38.339999999999996 C 17.85 38.339999999999996, 17.73 38.324999999999996, 18.78 38.339999999999996 C 19.950000000000003 38.370000000000005, 19.53 38.28, 21.12 38.400000000000006 C 23.130000000000003 38.61, 23.385 38.67, 25.14 38.82 C 26.64 38.91, 26.865000000000002 38.925, 28.14 39 C 29.19 39.06, 29.475 39.059999999999995, 30.240000000000002 39.12 C 30.720000000000002 39.18, 30.720000000000002 39.15, 31.200000000000003 39.24 C 31.680000000000003 39.36, 31.92 39.42, 32.160000000000004 39.480000000000004 L 32.160000000000004 39.480000000000004" fill="none" stroke="black" stroke-width="5"></path></svg>