<svg width="48" height="48" viewBox="0 0 48 48" xmlns="http://www.w3.org/2000/svg"><path d="M 22.62 2.88 C 22.08 2.94, 22.049999999999997 2.85, 21.54 3 C 21.060000000000002 3.2399999999999998, 21.21 2.9999999999999996, 20.580000000000002 3.4799999999999995 C 19.8 4.199999999999999, 19.545 4.17, 19.02 4.92 C 18.75 5.7, 18.6 5.76, 18.48 6.48 C 18.509999999999998 7.140000000000001, 18.36 7.260000000000001, 18.54 7.800000000000001 C 18.87 8.22, 18.510000000000005 8.190000000000001, 19.200000000000003 8.64 C 20.25 9.120000000000001, 20.25 9.255000000000003, 21.299999999999997 9.600000000000001 C 22.349999999999998 9.81, 22.485 9.9, 23.4 10.02 C 24.18 10.05, 24.045 10.395, 24.96 10.08 C 26.009999999999998 9.42, 26.235 9.495, 27.06 8.76 C 27.659999999999997 7.949999999999999, 27.869999999999997 7.8, 28.259999999999998 7.14 C 28.439999999999998 6.63, 28.529999999999998 6.525, 28.619999999999997 6.12 C 28.619999999999997 5.82, 28.784999999999997 5.8500000000000005, 28.619999999999997 5.5200000000000005 C 28.29 5.16, 28.35 5.175000000000001, 27.96 4.800000000000001 C 27.509999999999998 4.41, 27.479999999999997 4.305000000000001, 27.06 4.0200000000000005 C 26.67 3.8400000000000003, 26.685000000000002 3.8550000000000004, 26.28 3.66 C 25.86 3.45, 25.89 3.4350000000000005, 25.44 3.24 C 24.96 3.06, 24.915 2.9699999999999998, 24.48 2.88 C 24.090000000000003 2.88, 24.225 2.9099999999999997, 23.700000000000003 2.88 C 23.04 2.8200000000000003, 22.83 2.79, 22.38 2.7600000000000002 C 22.14 2.7600000000000002, 22.02 2.7600000000000002, 21.9 2.7600000000000002 L 21.9 2.7600000000000002" fill="none" stroke="black" stroke-width="5"></path><path d="M 14.580000000000002 21.66 C 14.580000000000002 20.55, 14.580000000000002 20.595000000000002, 14.580000000000002 19.44 C 14.580000000000002 18.240000000000002, 14.580000000000002 18.03, 14.580000000000002 17.04 C 14.580000000000002 16.259999999999998, 14.505000000000003 16.11, 14.580000000000002 15.48 C 14.73 15, 14.55 14.969999999999999, 14.879999999999999 14.52 C 15.389999999999999 14.1, 15.134999999999998 13.995, 15.899999999999999 13.68 C 16.92 13.469999999999999, 16.815 13.365, 17.94 13.26 C 19.17 13.26, 19.155 13.26, 20.4 13.26 C 21.659999999999997 13.26, 21.209999999999997 13.26, 22.919999999999998 13.26 C 25.08 13.26, 25.515 13.26, 27.240000000000002 13.26 C 28.53 13.26, 28.77 13.26, 29.82 13.26 C 30.630000000000003 13.26, 30.990000000000002 13.26, 31.44 13.26 C 31.53 13.26, 31.439999999999998 13.17, 31.619999999999997 13.26 C 31.89 13.440000000000001, 31.905 13.245000000000001, 32.160000000000004 13.620000000000001 C 32.400000000000006 14.190000000000001, 32.445 14.145, 32.64 14.76 C 32.79 15.420000000000002, 32.834999999999994 14.985000000000001, 32.94 16.080000000000002 C 33 17.61, 33 17.94, 33.06 19.14 C 33.120000000000005 20.009999999999998, 33.15 20.25, 33.18 20.88 C 33.18 21.27, 33.18 21.465, 33.18 21.66 C 33.18 21.66, 33.18 21.66, 33.18 21.66 L 33.18 21.66" fill="none" stroke="black" stroke-width="5"></path><path d="M 21.6 13.02 C 21.69 13.02, 21.615000000000002 12.705, 21.78 13.02 C 22.02 13.649999999999999, 22.049999999999997 13.379999999999999, 22.259999999999998 14.28 C 22.439999999999998 15.45, 22.485 15.600000000000001, 22.62 16.62 C 22.71 17.490000000000002, 22.769999999999996 17.1, 22.799999999999997 18.36 C 22.77 20.009999999999998, 22.98 19.95, 22.740000000000002 21.66 C 22.29 23.43, 22.305 23.730000000000004, 21.84 25.200000000000003 C 21.36 26.37, 21.494999999999997 26.415, 20.88 27.54 C 20.13 28.62, 20.49 28.470000000000002, 19.38 29.700000000000003 C 17.91 31.080000000000002, 17.655 31.455000000000002, 16.44 32.46 C 15.48 33.09, 15 33.405, 14.52 33.72 C 14.52 33.72, 14.64 33.69, 14.52 33.72 L 14.04 33.839999999999996" fill="none" stroke="black" stroke-width="5"></path><path d="M 29.339999999999996 24.900000000000002 C 29.43 25.47, 29.61 24.93, 29.52 26.04 C 29.25 27.689999999999998, 29.25 27.854999999999997, 28.98 29.339999999999996 C 28.71 30.659999999999997, 28.815 30.735, 28.44 31.98 C 27.96 33.15, 28.185000000000002 33, 27.48 34.32 C 26.549999999999997 35.79, 26.714999999999996 35.879999999999995, 25.619999999999997 37.26 C 24.36 38.55, 24.84 38.63999999999999, 23.1 39.839999999999996 C 20.880000000000003 40.95, 20.384999999999998 41.25, 18.66 42.06 C 17.43 42.57, 17.1 42.72, 16.200000000000003 43.08 C 15.63 43.29, 15.39 43.394999999999996, 15.059999999999999 43.5 L 14.879999999999999 43.5" fill="none" stroke="black" stroke-width="5"></path></svg>