<svg width="48" height="48" viewBox="0 0 48 48" xmlns="http://www.w3.org/2000/svg"><path d="M 5.4 44.64 C 6.8999999999999995 44.43, 6.959999999999999 44.339999999999996, 8.399999999999999 44.22 C 9.78 44.19, 9.765 44.295, 11.16 44.160000000000004 C 12.57 43.92, 12.825000000000001 43.845, 13.98 43.68 C 14.879999999999999 43.59, 14.7 43.815, 15.78 43.5 C 17.04 42.96, 17.414999999999996 42.855000000000004, 18.299999999999997 42.42 C 18.81 42.09, 18.735 42.3, 19.32 41.76 C 19.98 41.01, 20.175 41.28, 20.64 40.26 C 20.91 38.97, 21.045 39.57, 21.18 37.68 C 21.18 35.19, 21.36 35.175000000000004, 21.18 32.7 C 20.82 30.240000000000002, 20.865000000000002 29.910000000000004, 20.46 27.78 C 20.009999999999998 25.98, 20.13 26.34, 19.56 24.18 C 18.869999999999997 21.66, 18.825 21.465, 18.18 19.14 C 17.58 17.009999999999998, 17.52 16.785, 16.98 14.879999999999999 C 16.5 13.2, 16.395 12.735, 16.02 11.52 C 15.75 10.77, 15.675 10.635, 15.48 10.02 C 15.36 9.54, 15.45 9.690000000000001, 15.24 9.06 C 14.940000000000001 8.280000000000001, 14.790000000000001 7.890000000000001, 14.64 7.5 C 14.64 7.5, 14.64 7.5, 14.64 7.5 L 14.64 7.5" fill="none" stroke="black" stroke-width="5"></path><path d="M 10.98 25.619999999999997 C 10.32 25.709999999999997, 10.425 25.484999999999996, 9.66 25.799999999999997 C 8.79 26.34, 8.64 26.265, 7.92 26.880000000000003 C 7.35 27.57, 7.215 27.479999999999997, 6.779999999999999 28.259999999999998 C 6.4799999999999995 29.13, 6.345 28.98, 6.18 30 C 6.15 31.169999999999998, 6.12 31.469999999999995, 6.12 32.339999999999996 C 6.15 32.91, 5.97 32.940000000000005, 6.18 33.480000000000004 C 6.569999999999999 33.99, 6.479999999999999 34.14, 6.959999999999999 34.5 C 7.53 34.71, 7.485000000000001 34.815, 8.100000000000001 34.92 C 8.760000000000002 34.92, 8.685 34.995000000000005, 9.42 34.92 C 10.23 34.769999999999996, 10.335 34.89, 11.040000000000001 34.62 C 11.64 34.23, 11.64 34.364999999999995, 12.24 33.839999999999996 C 12.84 33.17999999999999, 12.96 33.224999999999994, 13.440000000000001 32.519999999999996 C 13.8 31.769999999999996, 13.98 31.77, 14.16 31.02 C 14.16 30.27, 14.25 30.195, 14.16 29.52 C 13.98 28.92, 14.055 28.875, 13.799999999999999 28.32 C 13.469999999999999 27.81, 13.515 27.764999999999997, 13.14 27.299999999999997 C 12.719999999999999 26.88, 12.645 26.775, 12.299999999999999 26.46 C 12.03 26.25, 12.015 26.235, 11.76 26.04 C 11.52 25.86, 11.52 25.83, 11.28 25.68 C 11.04 25.560000000000002, 10.92 25.5, 10.8 25.44 C 10.8 25.44, 10.8 25.44, 10.8 25.44 L 10.8 25.44" fill="none" stroke="black" stroke-width="5"></path></svg>