<svg width="48" height="48" viewBox="0 0 48 48" xmlns="http://www.w3.org/2000/svg"><path d="M 21.72 2.4000000000000004 C 21.09 2.7600000000000002, 21.27 2.58, 20.46 3.12 C 19.47 3.8400000000000003, 19.335 3.5550000000000006, 18.48 4.5600000000000005 C 17.759999999999998 5.85, 17.415 6.27, 17.04 7.14 C 17.009999999999998 7.59, 16.98 7.575000000000001, 16.98 8.040000000000001 C 17.009999999999998 8.52, 16.86 8.34, 17.04 9 C 17.37 9.84, 17.340000000000003 10.08, 17.700000000000003 10.68 C 18.090000000000003 11.04, 17.955000000000002 11.009999999999998, 18.48 11.399999999999999 C 19.14 11.82, 19.095 11.925, 19.799999999999997 12.24 C 20.549999999999997 12.45, 20.22 12.54, 21.299999999999997 12.66 C 22.709999999999997 12.690000000000001, 23.084999999999997 12.855, 24.119999999999997 12.72 C 24.78 12.420000000000002, 24.915 12.465000000000002, 25.44 12.120000000000001 C 25.83 11.73, 25.904999999999998 11.895, 26.22 11.34 C 26.46 10.62, 26.46 10.575, 26.700000000000003 9.899999999999999 C 26.94 9.27, 27.060000000000002 9.195, 27.18 8.64 C 27.18 8.16, 27.18 8.205, 27.18 7.68 C 27.18 7.11, 27.255 7.110000000000001, 27.18 6.540000000000001 C 27.03 5.970000000000001, 27.045 5.8500000000000005, 26.880000000000003 5.4 C 26.700000000000003 5.07, 26.775 5.07, 26.52 4.74 C 26.189999999999998 4.41, 26.145 4.305, 25.86 4.08 C 25.62 3.96, 25.71 4.035, 25.380000000000003 3.84 C 24.96 3.5700000000000003, 24.96 3.495, 24.54 3.3000000000000003 C 24.12 3.18, 24.135000000000005 3.18, 23.700000000000003 3.06 C 23.25 2.94, 23.189999999999998 2.925, 22.799999999999997 2.82 C 22.47 2.73, 22.455 2.685, 22.14 2.64 C 21.84 2.64, 21.735 2.64, 21.54 2.64 C 21.45 2.64, 21.405 2.64, 21.36 2.64 L 21.36 2.64" fill="none" stroke="black" stroke-width="5"></path><path d="M 12.78 25.619999999999997 C 12.78 24.81, 12.899999999999999 25.035, 12.78 24 C 12.54 22.740000000000002, 12.509999999999998 22.5, 12.299999999999999 21.48 C 12.12 20.7, 12.03 20.474999999999998, 11.94 19.919999999999998 C 11.94 19.589999999999996, 11.73 19.724999999999998, 11.94 19.259999999999998 C 12.36 18.659999999999997, 12.165 18.599999999999998, 12.78 18.06 C 13.59 17.58, 13.709999999999999 17.355, 14.399999999999999 17.1 C 14.969999999999999 17.07, 14.819999999999999 17.055, 15.54 17.04 C 16.41 17.04, 16.035 17.04, 17.28 17.04 C 18.9 17.04, 19.08 17.04, 20.52 17.04 C 21.78 17.04, 21.735 17.085, 23.04 17.04 C 24.39 16.95, 24.840000000000003 16.905, 25.740000000000002 16.86 C 26.19 16.86, 26.085 16.845, 26.64 16.86 C 27.3 16.89, 27.3 16.86, 27.96 16.919999999999998 C 28.62 17.009999999999998, 28.905 17.025000000000002, 29.28 17.1 C 29.37 17.16, 29.295 17.16, 29.46 17.22 C 29.700000000000003 17.28, 29.745 17.265, 29.94 17.34 C 30.090000000000003 17.43, 30.060000000000002 17.235, 30.240000000000002 17.52 C 30.450000000000003 18, 30.510000000000005 18, 30.660000000000004 18.48 C 30.75 18.96, 30.794999999999998 18.435000000000002, 30.839999999999996 19.44 C 30.839999999999996 20.97, 30.839999999999996 21.12, 30.839999999999996 22.5 C 30.839999999999996 23.73, 30.839999999999996 24.060000000000002, 30.839999999999996 24.96 C 30.839999999999996 25.53, 30.824999999999996 25.784999999999997, 30.839999999999996 26.099999999999998 C 30.869999999999997 26.159999999999997, 30.885 26.189999999999998, 30.900000000000002 26.22 C 30.900000000000002 26.22, 30.900000000000002 26.22, 30.900000000000002 26.22 L 30.900000000000002 26.22" fill="none" stroke="black" stroke-width="5"></path><path d="M 18.6 16.98 C 18.72 17.009999999999998, 18.66 16.56, 18.84 17.04 C 19.08 17.97, 19.14 17.189999999999998, 19.32 18.9 C 19.439999999999998 21.39, 19.5 21.84, 19.56 23.88 C 19.56 25.47, 19.455 25.185, 19.56 27.06 C 19.77 29.22, 19.83 29.205000000000002, 19.98 31.380000000000003 C 20.07 33.57, 20.115000000000002 33.945, 20.16 35.76 C 20.16 37.2, 20.16 37.38, 20.16 38.64 C 20.16 39.72, 20.16 39.78, 20.16 40.8 C 20.16 41.76, 20.16 41.91, 20.16 42.72 C 20.16 43.379999999999995, 20.16 43.394999999999996, 20.16 44.04 C 20.16 44.67, 20.115000000000002 44.834999999999994, 20.16 45.3 C 20.25 45.6, 20.235 45.540000000000006, 20.34 45.900000000000006 C 20.46 46.32000000000001, 20.46 46.455000000000005, 20.580000000000002 46.74 C 20.700000000000003 46.89, 20.67 46.95, 20.82 47.04 C 21 47.06999999999999, 21.015 47.084999999999994, 21.18 47.099999999999994 C 21.33 47.099999999999994, 21.33 47.099999999999994, 21.48 47.099999999999994 C 21.630000000000003 47.099999999999994, 21.69 47.114999999999995, 21.78 47.099999999999994 C 21.810000000000002 47.06999999999999, 21.765 47.265, 21.84 47.04 C 21.96 46.620000000000005, 21.93 46.68000000000001, 22.080000000000002 46.2 C 22.26 45.66, 22.32 45.705, 22.44 45.12 C 22.5 44.489999999999995, 22.395 44.535, 22.56 43.86 C 22.83 43.14, 22.845 43.095, 23.1 42.42 C 23.340000000000003 41.790000000000006, 23.205000000000002 41.970000000000006, 23.580000000000002 41.160000000000004 C 24.09 40.17, 24.134999999999998 39.96, 24.599999999999998 39.18 C 25.02 38.61, 24.795 38.775, 25.44 38.04 C 26.310000000000002 37.14, 26.22 36.93, 27.18 36.24 C 28.23 35.760000000000005, 28.17 35.565000000000005, 29.28 35.28 C 30.45 35.19, 30.779999999999998 35.144999999999996, 31.619999999999997 35.099999999999994 C 32.129999999999995 35.099999999999994, 32.175 35.099999999999994, 32.64 35.099999999999994 C 33.06 35.099999999999994, 33.27 35.099999999999994, 33.480000000000004 35.099999999999994 L 33.480000000000004 35.099999999999994" fill="none" stroke="black" stroke-width="5"></path></svg>