<svg width="48" height="48" viewBox="0 0 48 48" xmlns="http://www.w3.org/2000/svg"><path d="M 16.200000000000003 3.66 C 15.660000000000002 4.83, 15.780000000000001 4.800000000000001, 15.120000000000001 6 C 14.34 7.2299999999999995, 14.235 6.959999999999999, 13.559999999999999 8.459999999999999 C 12.989999999999998 10.23, 12.914999999999997 10.485, 12.419999999999998 12 C 12 13.26, 12.12 12.629999999999999, 11.58 14.52 C 10.92 17.04, 10.92 16.994999999999997, 10.26 19.56 C 9.6 22.17, 9.434999999999999 22.650000000000002, 8.94 24.78 C 8.61 26.43, 8.535 26.729999999999997, 8.28 28.08 C 8.1 29.13, 8.01 29.34, 7.92 30.18 C 7.92 30.810000000000002, 7.92 30.765, 7.92 31.44 C 7.92 32.160000000000004, 7.859999999999999 32.325, 7.92 32.88 C 8.04 33.27, 7.95 33.36000000000001, 8.16 33.660000000000004 C 8.46 33.870000000000005, 8.445 34.004999999999995, 8.76 34.08 C 9.09 34.019999999999996, 8.685 34.53, 9.42 33.96 C 10.559999999999999 32.879999999999995, 10.17 33.72, 11.7 31.799999999999997 C 13.62 29.04, 13.86 28.845, 15.54 26.28 C 16.979999999999997 23.91, 17.534999999999997 23.025, 18.419999999999998 21.54 C 18.75 20.939999999999998, 18.900000000000002 20.64, 19.080000000000002 20.34 C 19.11 20.34, 19.125 20.085, 19.14 20.34 C 19.14 20.85, 19.275 20.475, 19.14 21.36 C 18.87 22.619999999999997, 18.840000000000003 22.799999999999997, 18.6 23.88 C 18.39 24.78, 18.285 24.794999999999998, 18.18 25.68 C 18.18 26.55, 18.134999999999998 26.715000000000003, 18.18 27.42 C 18.27 27.96, 18.134999999999998 28.05, 18.36 28.5 C 18.72 28.86, 18.75 28.95, 19.080000000000002 29.22 C 19.380000000000003 29.4, 19.26 29.49, 19.68 29.58 C 20.22 29.58, 19.904999999999998 29.879999999999995, 20.759999999999998 29.58 C 21.93 28.98, 21.93 29.040000000000003, 23.1 28.380000000000003 C 24.270000000000003 27.660000000000004, 24.51 27.36, 25.44 26.94 C 26.130000000000003 26.82, 26.01 26.715000000000003, 26.82 26.700000000000003 C 27.75 26.790000000000003, 27.795 26.355000000000004, 28.68 26.880000000000003 C 29.52 27.84, 29.759999999999998 27.9, 30.36 28.799999999999997 C 30.72 29.64, 30.915 29.13, 31.08 30.48 C 31.049999999999997 32.34, 31.32 32.31, 31.02 34.2 C 30.450000000000003 36.120000000000005, 30.660000000000004 36.269999999999996, 29.880000000000003 38.04 C 28.89 39.66, 28.785000000000004 40.05, 27.900000000000002 41.28 C 27.119999999999997 42.120000000000005, 27.269999999999996 42.36, 26.339999999999996 42.96 C 25.259999999999998 43.32, 25.32 43.485, 24.18 43.68 C 22.98 43.71, 23.115000000000002 43.725, 21.78 43.74 C 20.310000000000002 43.74, 20.25 43.995000000000005, 18.84 43.74 C 17.490000000000002 43.230000000000004, 17.28 43.275, 16.14 42.72 C 15.21 42.12, 15 42.224999999999994, 14.28 41.519999999999996 C 13.77 40.71, 13.559999999999999 40.845000000000006, 13.26 39.900000000000006 C 13.170000000000002 38.82000000000001, 13.125000000000002 38.325, 13.080000000000002 37.74 C 13.080000000000002 37.650000000000006, 13.080000000000002 37.605000000000004, 13.080000000000002 37.56 L 13.080000000000002 37.56" fill="none" stroke="black" stroke-width="5"></path><path d="M 29.160000000000004 6.48 C 28.17 6.390000000000001, 28.185000000000002 6.24, 27.18 6.300000000000001 C 26.16 6.510000000000001, 26.04 6.255000000000001, 25.14 6.720000000000001 C 24.36 7.44, 24.330000000000002 7.095000000000001, 23.580000000000002 8.16 C 22.86 9.57, 22.545 9.855, 22.14 10.98 C 22.05 11.82, 21.825000000000003 12.045, 21.96 12.66 C 22.32 13.05, 22.215 13.080000000000002, 22.68 13.440000000000001 C 23.25 13.770000000000001, 23.145 13.905000000000001, 23.82 14.100000000000001 C 24.6 14.16, 24.6 14.400000000000002, 25.380000000000003 14.22 C 26.160000000000004 13.8, 26.115000000000002 13.995, 26.94 13.379999999999999 C 27.810000000000002 12.57, 28.05 12.405, 28.68 11.76 C 29.07 11.280000000000001, 29.22 11.280000000000001, 29.46 10.8 C 29.55 10.32, 29.595 10.379999999999999, 29.64 9.84 C 29.64 9.24, 29.759999999999998 9.27, 29.64 8.64 C 29.400000000000002 7.98, 29.295000000000005 7.695, 29.160000000000004 7.32 C 29.130000000000003 7.23, 29.205 7.245, 29.099999999999998 7.14 C 28.92 7.02, 28.860000000000003 6.959999999999999, 28.740000000000002 6.8999999999999995 L 28.619999999999997 6.8999999999999995" fill="none" stroke="black" stroke-width="5"></path></svg>