<svg width="48" height="48" viewBox="0 0 48 48" xmlns="http://www.w3.org/2000/svg"><path d="M 11.76 4.26 C 11.940000000000001 5.699999999999999, 11.985000000000001 5.924999999999999, 12.120000000000001 7.14 C 12.21 8.13, 12.149999999999999 7.860000000000001, 12.299999999999999 9.120000000000001 C 12.51 10.65, 12.51 10.35, 12.72 12.18 C 12.93 14.31, 12.930000000000001 14.295000000000002, 13.14 16.44 C 13.35 18.6, 13.409999999999998 18.794999999999998, 13.559999999999999 20.759999999999998 C 13.649999999999999 22.529999999999998, 13.695 22.275, 13.74 24.299999999999997 C 13.74 26.58, 13.74 26.834999999999997, 13.74 28.86 C 13.74 30.630000000000003, 13.74 30.600000000000005, 13.74 32.400000000000006 C 13.74 34.230000000000004, 13.74 34.515, 13.74 36.06 C 13.74 37.32, 13.74 37.8, 13.74 38.58 C 13.74 38.879999999999995, 13.74 38.985, 13.74 39.18 C 13.74 39.269999999999996, 13.74 39.315, 13.74 39.36 C 13.74 39.36, 13.74 39.36, 13.74 39.36 C 13.74 39.36, 13.74 39.36, 13.74 39.36 C 13.74 39.36, 13.74 39.36, 13.74 39.36 C 13.74 39.36, 13.74 39.254999999999995, 13.74 39.36 C 13.74 39.57, 13.74 39.63, 13.74 39.78 C 13.74 39.870000000000005, 13.74 39.915, 13.74 39.96 C 13.74 39.96, 13.74 39.96, 13.74 39.96 C 13.74 39.96, 13.74 39.96, 13.74 39.96 C 13.74 39.96, 13.74 39.96, 13.74 39.96 L 13.74 39.96" fill="none" stroke="black" stroke-width="5"></path><path d="M 14.16 31.44 C 15.09 31.619999999999997, 15.315 31.694999999999997, 16.02 31.799999999999997 C 16.5 31.83, 16.29 31.83, 16.98 31.86 C 17.880000000000003 31.89, 17.895000000000003 31.935000000000002, 18.78 31.92 C 19.65 31.86, 19.62 31.889999999999997, 20.52 31.799999999999997 C 21.45 31.68, 21.645 31.665, 22.38 31.56 C 22.92 31.47, 22.83 31.500000000000004, 23.46 31.380000000000003 C 24.18 31.23, 24.165000000000003 31.29, 24.900000000000002 31.08 C 25.650000000000002 30.81, 25.635 31.005, 26.400000000000002 30.54 C 27.18 29.88, 27.39 29.759999999999998, 27.96 29.22 C 28.32 28.8, 28.32 28.950000000000003, 28.68 28.380000000000003 C 29.04 27.660000000000004, 29.19 27.885, 29.400000000000002 26.94 C 29.46 25.77, 29.535 25.799999999999997, 29.52 24.599999999999998 C 29.43 23.369999999999997, 29.489999999999995 23.325, 29.339999999999996 22.14 C 29.13 21, 29.16 21.195, 28.92 19.86 C 28.650000000000002 18.33, 28.695 18.584999999999997, 28.380000000000003 16.799999999999997 C 28.020000000000003 14.759999999999998, 27.900000000000006 14.475, 27.660000000000004 12.72 C 27.540000000000003 11.25, 27.525000000000002 11.1, 27.42 9.78 C 27.330000000000002 8.61, 27.345000000000002 8.309999999999999, 27.240000000000002 7.4399999999999995 C 27.12 6.87, 27.12 6.8100000000000005, 27 6.300000000000001 C 26.88 5.8500000000000005, 26.865 5.715000000000001, 26.759999999999998 5.4 C 26.669999999999998 5.220000000000001, 26.625 5.13, 26.58 5.04 C 26.58 5.04, 26.595 5.085, 26.58 5.04 L 26.52 4.86" fill="none" stroke="black" stroke-width="5"></path><path d="M 20.759999999999998 12.299999999999999 C 20.22 12.45, 20.115 12.180000000000001, 19.68 12.600000000000001 C 19.35 13.290000000000001, 19.395 13.065000000000001, 19.02 13.98 C 18.6 15.12, 18.435 15.239999999999998, 18.18 16.259999999999998 C 18.09 17.159999999999997, 17.79 17.279999999999998, 18 18.06 C 18.509999999999998 18.72, 18.525 18.9, 19.02 19.38 C 19.5 19.68, 19.485 19.83, 19.98 19.98 C 20.490000000000002 19.98, 20.67 19.98, 21 19.98 C 21.15 19.98, 20.939999999999998 20.07, 21.299999999999997 19.98 C 21.869999999999997 19.8, 21.975 19.875, 22.44 19.62 C 22.8 19.29, 22.77 19.380000000000003, 23.16 18.96 C 23.58 18.450000000000003, 23.685 18.480000000000004, 24 17.94 C 24.21 17.369999999999997, 24.330000000000002 17.354999999999997, 24.42 16.799999999999997 C 24.39 16.259999999999998, 24.48 16.23, 24.36 15.72 C 24.15 15.24, 24.195 15.165, 23.94 14.76 C 23.64 14.43, 23.61 14.370000000000001, 23.34 14.100000000000001 C 23.1 13.89, 23.1 13.844999999999999, 22.86 13.68 C 22.619999999999997 13.56, 22.65 13.5, 22.38 13.440000000000001 C 22.08 13.440000000000001, 22.020000000000003 13.470000000000002, 21.78 13.440000000000001 C 21.6 13.38, 21.63 13.365, 21.419999999999998 13.32 C 21.18 13.29, 21.135 13.29, 20.94 13.26 C 20.79 13.23, 20.76 13.245000000000001, 20.64 13.200000000000001 C 20.55 13.14, 20.595 13.110000000000001, 20.46 13.080000000000002 C 20.28 13.080000000000002, 20.235000000000003 13.080000000000002, 20.1 13.080000000000002 L 19.919999999999998 13.080000000000002" fill="none" stroke="black" stroke-width="5"></path></svg>