<svg width="48" height="48" viewBox="0 0 48 48" xmlns="http://www.w3.org/2000/svg"><path d="M 6.6000000000000005 6.0600000000000005 C 6.0600000000000005 8.7, 5.955 8.76, 5.5200000000000005 11.34 C 5.19 13.86, 5.085000000000001 14.114999999999998, 4.86 16.38 C 4.74 18.39, 4.7250000000000005 18.224999999999998, 4.62 20.4 C 4.529999999999999 22.74, 4.484999999999999 23.25, 4.4399999999999995 25.08 C 4.4399999999999995 26.4, 4.4399999999999995 26.415, 4.4399999999999995 27.72 C 4.4399999999999995 29.009999999999998, 4.4399999999999995 28.845, 4.4399999999999995 30.299999999999997 C 4.4399999999999995 31.919999999999998, 4.424999999999999 32.085, 4.4399999999999995 33.54 C 4.47 34.83, 4.335 35.025, 4.5 36.12 C 4.8 37.019999999999996, 4.635 37.17, 5.1 37.92 C 5.73 38.519999999999996, 5.805 38.684999999999995, 6.36 39.12 C 6.84 39.39, 6.495 39.300000000000004, 7.32 39.660000000000004 C 8.49 40.11, 8.535 40.290000000000006, 9.66 40.56 C 10.74 40.650000000000006, 10.395 40.695, 11.82 40.74 C 13.59 40.74, 13.71 40.845, 15.36 40.74 C 16.89 40.53, 17.235 40.47, 18.419999999999998 40.32 C 19.259999999999998 40.230000000000004, 19.125 40.29, 20.1 40.14 C 21.21 39.93, 21.54 39.855000000000004, 22.32 39.72 C 22.77 39.66, 22.68 39.705, 23.22 39.599999999999994 C 23.85 39.449999999999996, 23.985 39.419999999999995, 24.48 39.3 C 24.840000000000003 39.209999999999994, 24.945000000000004 39.165, 25.200000000000003 39.12 C 25.35 39.12, 25.425 39.12, 25.5 39.12 C 25.5 39.12, 25.5 39.12, 25.5 39.12 L 25.5 39.12" fill="none" stroke="black" stroke-width="5"></path><path d="M 13.98 15.419999999999998 C 13.05 16.14, 12.735000000000001 16.02, 12.120000000000001 16.86 C 11.82 17.82, 11.67 17.865000000000002, 11.52 18.78 C 11.52 19.65, 11.475 19.455, 11.52 20.52 C 11.61 21.78, 11.475 21.945, 11.7 23.04 C 12.059999999999999 23.97, 11.879999999999999 24.12, 12.419999999999998 24.900000000000002 C 13.139999999999999 25.53, 12.719999999999999 25.710000000000004, 13.86 26.160000000000004 C 15.42 26.430000000000003, 15.72 26.775000000000006, 16.98 26.700000000000003 C 17.939999999999998 26.28, 18.044999999999998 26.445, 18.9 25.86 C 19.65 25.11, 19.83 25.23, 20.4 24.36 C 20.79 23.369999999999997, 20.939999999999998 23.354999999999997, 21.18 22.38 C 21.27 21.42, 21.405 21.315, 21.36 20.46 C 21.18 19.71, 21.375 19.770000000000003, 21 18.96 C 20.43 18.09, 20.4 17.865, 19.86 17.22 C 19.35 16.799999999999997, 19.545 16.77, 18.84 16.38 C 17.939999999999998 16.02, 18 15.945, 17.04 15.66 C 16.02 15.45, 15.705 15.345, 15 15.24 C 14.61 15.24, 14.415000000000001 15.24, 14.22 15.24 L 14.22 15.24" fill="none" stroke="black" stroke-width="5"></path></svg>