<svg width="48" height="48" viewBox="0 0 48 48" xmlns="http://www.w3.org/2000/svg"><path d="M 15.600000000000001 5.4 C 15.600000000000001 6.96, 15.855 6.435, 15.600000000000001 8.52 C 15.090000000000002 11.129999999999999, 14.910000000000002 11.235, 14.580000000000002 13.74 C 14.43 16.14, 14.46 16.47, 14.28 18.54 C 14.07 20.28, 14.129999999999999 20.055, 13.86 22.02 C 13.530000000000001 24.21, 13.5 24.51, 13.200000000000001 26.400000000000002 C 12.93 27.990000000000002, 12.945 27.93, 12.66 29.58 C 12.36 31.29, 12.314999999999998 31.455, 12.059999999999999 33 C 11.85 34.379999999999995, 11.865 34.545, 11.64 35.76 C 11.4 36.81, 11.325 36.989999999999995, 11.16 37.86 C 11.07 38.55, 11.025 38.67, 10.98 39.24 C 10.98 39.69, 11.055 39.555, 10.98 40.14 C 10.83 40.86, 10.754999999999999 40.86, 10.68 41.58 C 10.68 42.3, 10.68 42.464999999999996, 10.68 43.019999999999996 C 10.68 43.41, 10.68 43.5, 10.68 43.8 C 10.68 44.01, 10.68 44.06999999999999, 10.68 44.22 C 10.68 44.31, 10.68 44.355000000000004, 10.68 44.400000000000006 L 10.68 44.400000000000006" fill="none" stroke="black" stroke-width="5"></path><path d="M 10.5 38.339999999999996 C 11.04 38.339999999999996, 10.965 38.294999999999995, 11.58 38.339999999999996 C 12.27 38.42999999999999, 12.06 38.474999999999994, 12.96 38.519999999999996 C 14.07 38.519999999999996, 13.934999999999999 38.459999999999994, 15.18 38.519999999999996 C 16.560000000000002 38.64, 16.395000000000003 38.714999999999996, 17.94 38.76 C 19.65 38.730000000000004, 20.28 38.760000000000005, 21.36 38.7 C 21.81 38.61, 22.034999999999997 38.565, 22.259999999999998 38.519999999999996 L 22.259999999999998 38.519999999999996" fill="none" stroke="black" stroke-width="5"></path><path d="M 12.600000000000001 30.839999999999996 C 13.14 30.839999999999996, 12.84 31.274999999999995, 13.68 30.839999999999996 C 14.82 29.97, 14.835 30.389999999999997, 15.96 29.099999999999998 C 17.07 27.39, 17.43 26.865, 18.18 25.68 C 18.57 25.02, 18.705 24.765, 18.96 24.36 C 19.080000000000002 24.21, 19.14 24.134999999999998, 19.200000000000003 24.06 C 19.200000000000003 24.06, 19.155000000000005 24.104999999999997, 19.200000000000003 24.06 C 19.29 23.97, 19.259999999999998 23.909999999999997, 19.38 23.88 C 19.53 23.91, 19.605 23.505000000000003, 19.68 23.94 C 19.68 24.78, 19.68 24.554999999999996, 19.68 25.619999999999997 C 19.68 26.91, 19.424999999999997 27.225, 19.68 28.200000000000003 C 20.19 28.86, 19.830000000000002 28.845, 20.700000000000003 29.52 C 21.93 30.21, 21.675 30.375000000000004, 23.16 30.900000000000002 C 24.9 31.259999999999998, 24.855 31.349999999999998, 26.64 31.619999999999997 C 28.47 31.799999999999997, 29.189999999999998 31.89, 30.299999999999997 31.98 C 30.689999999999998 31.98, 30.839999999999996 31.98, 31.08 31.98 L 31.259999999999998 31.98" fill="none" stroke="black" stroke-width="5"></path><path d="M 26.04 10.08 C 25.11 10.23, 25.05 9.854999999999999, 24.18 10.379999999999999 C 23.369999999999997 11.28, 23.055 11.265, 22.56 12.18 C 22.380000000000003 13.11, 22.065 13.2, 22.200000000000003 14.04 C 22.650000000000002 14.79, 22.440000000000005 14.729999999999999, 23.1 15.54 C 23.97 16.41, 23.699999999999996 16.545, 24.839999999999996 17.28 C 26.25 17.880000000000003, 26.1 18.315, 27.660000000000004 18.48 C 29.37 18.21, 29.97 18.39, 31.08 17.94 C 31.589999999999996 17.310000000000002, 31.739999999999995 17.67, 32.099999999999994 16.68 C 32.309999999999995 15.33, 32.654999999999994 15.225000000000001, 32.519999999999996 13.98 C 32.04 12.84, 32.205 12.66, 31.56 11.7 C 30.75 10.92, 30.675 10.725000000000001, 29.94 10.14 C 29.28 9.75, 29.459999999999997 9.719999999999999, 28.619999999999997 9.36 C 27.599999999999998 9.03, 27.509999999999998 8.82, 26.58 8.7 C 25.740000000000002 8.79, 25.455000000000002 8.759999999999998, 24.900000000000002 8.879999999999999 C 24.630000000000003 9.03, 24.495 9.105, 24.36 9.18 L 24.36 9.18" fill="none" stroke="black" stroke-width="5"></path></svg>