<svg width="48" height="48" viewBox="0 0 48 48" xmlns="http://www.w3.org/2000/svg"><path d="M 15.299999999999999 3.9000000000000004 C 14.969999999999999 5.46, 14.955 5.414999999999999, 14.64 7.02 C 14.34 8.67, 14.235 8.715, 14.04 10.32 C 13.95 11.88, 13.905 11.775000000000002, 13.86 13.440000000000001 C 13.86 15.21, 13.844999999999999 15.330000000000002, 13.86 16.98 C 13.889999999999999 18.509999999999998, 13.784999999999998 19.035, 13.919999999999998 20.04 C 14.159999999999998 20.52, 14.024999999999999 20.505, 14.399999999999999 21 C 14.909999999999998 21.509999999999998, 14.714999999999998 21.525, 15.419999999999998 22.02 C 16.32 22.5, 16.049999999999997 22.515, 17.22 22.98 C 18.66 23.43, 18.990000000000002 23.564999999999998, 20.1 23.88 C 20.880000000000003 24.060000000000002, 20.445 24.105, 21.66 24.240000000000002 C 23.310000000000002 24.330000000000002, 23.265 24.375, 24.96 24.42 C 26.700000000000003 24.42, 26.865000000000002 24.42, 28.44 24.42 C 29.85 24.42, 30.06 24.450000000000003, 31.259999999999998 24.42 C 32.25 24.36, 32.64 24.345, 33.24 24.299999999999997 C 33.45 24.27, 33.55500000000001 24.255000000000003, 33.660000000000004 24.240000000000002 L 33.660000000000004 24.240000000000002" fill="none" stroke="black" stroke-width="5"></path><path d="M 26.099999999999998 7.800000000000001 C 24.93 8.1, 24.764999999999997 7.859999999999999, 23.759999999999998 8.399999999999999 C 22.92 9.18, 22.650000000000002 8.999999999999998, 22.080000000000002 9.959999999999999 C 21.78 11.1, 21.630000000000003 11.235, 21.48 12.24 C 21.48 13.11, 21.345 12.975000000000001, 21.48 13.98 C 21.75 15.12, 21.54 15.329999999999998, 22.02 16.259999999999998 C 22.71 16.98, 22.47 17.160000000000004, 23.4 17.700000000000003 C 24.57 18.060000000000002, 24.585 18.33, 25.740000000000002 18.419999999999998 C 26.880000000000003 18.24, 27.15 18.435, 28.02 18.06 C 28.619999999999997 17.49, 28.71 17.595, 29.22 16.919999999999998 C 29.64 16.14, 29.805 16.2, 30.06 15.36 C 30.15 14.459999999999999, 30.240000000000002 14.369999999999997, 30.240000000000002 13.559999999999999 C 30.15 12.84, 30.21 12.735, 30.06 12.120000000000001 C 29.85 11.610000000000001, 29.97 11.715000000000002, 29.64 11.100000000000001 C 29.19 10.38, 29.265 10.32, 28.740000000000002 9.66 C 28.14 9.059999999999999, 28.185 8.924999999999999, 27.54 8.459999999999999 C 26.85 8.129999999999999, 26.85 8.040000000000001, 26.160000000000004 7.800000000000001 C 25.470000000000002 7.65, 25.17 7.575, 24.78 7.5 L 24.599999999999998 7.5" fill="none" stroke="black" stroke-width="5"></path><path d="M 25.92 28.740000000000002 C 24.990000000000002 28.590000000000003, 25.35 28.305, 24.06 28.44 C 22.409999999999997 28.86, 22.064999999999998 28.725, 20.759999999999998 29.28 C 19.799999999999997 29.970000000000002, 19.455 29.985000000000003, 18.84 30.660000000000004 C 18.57 31.32, 18.554999999999996 31.080000000000002, 18.299999999999997 31.98 C 18.06 33.12, 17.955 33.089999999999996, 17.82 34.26 C 17.79 35.46, 17.685 35.535000000000004, 17.759999999999998 36.660000000000004 C 17.939999999999998 37.71, 17.85 38.025, 18.12 38.76 C 18.48 39.17999999999999, 18.345 39.10499999999999, 18.84 39.599999999999994 C 19.47 40.17, 19.215000000000003 40.245000000000005, 20.1 40.74 C 21.240000000000002 41.16, 21.195 41.37, 22.38 41.58 C 23.61 41.58, 23.939999999999998 41.595, 24.839999999999996 41.58 C 25.409999999999997 41.55, 25.35 41.78999999999999, 25.98 41.519999999999996 C 26.67 41.01, 26.805 41.01, 27.36 40.5 C 27.78 39.99, 27.660000000000004 40.260000000000005, 28.200000000000003 39.480000000000004 C 28.86 38.43000000000001, 29.009999999999998 38.49, 29.52 37.38 C 29.880000000000003 36.21, 30.060000000000002 35.97, 30.240000000000002 35.04 C 30.240000000000002 34.35, 30.42 34.395, 30.240000000000002 33.660000000000004 C 29.880000000000003 32.879999999999995, 29.925 32.894999999999996, 29.52 32.099999999999994 C 29.07 31.29, 29.084999999999997 31.185, 28.619999999999997 30.48 C 28.14 29.880000000000003, 28.110000000000003 29.745, 27.660000000000004 29.28 C 27.240000000000002 28.95, 27.435000000000002 28.935, 26.82 28.619999999999997 C 26.01 28.32, 25.830000000000005 28.169999999999998, 25.200000000000003 28.02 C 24.75 28.02, 24.525 28.02, 24.299999999999997 28.02 L 24.299999999999997 28.02" fill="none" stroke="black" stroke-width="5"></path><path d="M 17.759999999999998 34.08 C 18.63 34.29, 18.21 34.32, 19.5 34.5 C 21.21 34.65, 21.449999999999996 34.665, 22.919999999999998 34.8 C 24.15 34.92, 24.045 34.935, 25.380000000000003 35.04 C 26.82 35.129999999999995, 27.24 35.175, 28.259999999999998 35.22 C 28.86 35.22, 29.085 35.22, 29.46 35.22 C 29.61 35.22, 29.639999999999997 35.22, 29.759999999999998 35.22 C 29.85 35.22, 29.85 35.22, 29.94 35.22 L 30.119999999999997 35.22" fill="none" stroke="black" stroke-width="5"></path></svg>