<svg width="48" height="48" viewBox="0 0 48 48" xmlns="http://www.w3.org/2000/svg"><path d="M 13.559999999999999 5.34 C 13.32 7.2, 13.380000000000003 7.290000000000001, 13.080000000000002 9.06 C 12.72 10.739999999999998, 12.69 10.62, 12.36 12.419999999999998 C 12.059999999999999 14.339999999999998, 12 14.669999999999998, 11.76 16.259999999999998 C 11.579999999999998 17.52, 11.594999999999999 17.34, 11.399999999999999 18.78 C 11.19 20.4, 11.175 20.535, 10.98 22.02 C 10.8 23.369999999999997, 10.71 23.625, 10.620000000000001 24.72 C 10.620000000000001 25.560000000000002, 10.560000000000002 25.815, 10.620000000000001 26.400000000000002 C 10.74 26.73, 10.515 26.655, 10.86 27.06 C 11.43 27.54, 11.28 27.66, 12 28.02 C 12.870000000000001 28.259999999999998, 12.675 28.335, 13.74 28.5 C 15 28.59, 15.104999999999999 28.634999999999998, 16.259999999999998 28.68 C 17.31 28.68, 16.965 28.65, 18.36 28.68 C 20.1 28.74, 20.265 28.859999999999996, 21.84 28.799999999999997 C 23.25 28.619999999999997, 23.805000000000003 28.53, 24.660000000000004 28.44 C 24.96 28.44, 25.11 28.44, 25.259999999999998 28.44 L 25.259999999999998 28.44" fill="none" stroke="black" stroke-width="5"></path><path d="M 24.18 33.72 C 23.369999999999997 33.21, 23.265 32.955, 22.56 32.7 C 21.96 32.7, 21.93 32.61, 21.36 32.7 C 20.82 32.88, 20.805 32.64, 20.28 33.06 C 19.77 33.72, 19.619999999999997 33.645, 19.259999999999998 34.38 C 19.049999999999997 35.19, 18.9 35.355000000000004, 18.84 36 C 18.93 36.480000000000004, 18.645 36.465, 19.02 36.96 C 19.68 37.47, 19.68 37.620000000000005, 20.34 37.980000000000004 C 21 38.190000000000005, 21.105 38.25000000000001, 21.66 38.400000000000006 C 22.11 38.49, 22.185 38.535, 22.56 38.58 C 22.86 38.58, 22.755 38.879999999999995, 23.16 38.58 C 23.67 37.980000000000004, 23.685 38.010000000000005, 24.18 37.38 C 24.66 36.72, 24.84 36.63, 25.14 36.06 C 25.26 35.58, 25.32 35.61, 25.380000000000003 35.099999999999994 C 25.380000000000003 34.559999999999995, 25.380000000000003 34.85999999999999, 25.380000000000003 34.019999999999996 C 25.380000000000003 32.879999999999995, 25.395000000000003 33.03, 25.380000000000003 31.740000000000002 C 25.35 30.3, 25.335 30.314999999999998, 25.32 28.86 C 25.32 27.39, 25.32 27.225, 25.32 25.92 C 25.32 24.78, 25.32 25.395000000000003, 25.32 23.64 C 25.32 21.27, 25.380000000000003 21.044999999999998, 25.32 18.9 C 25.2 16.979999999999997, 25.185 16.799999999999997, 25.08 15.059999999999999 C 24.990000000000002 13.5, 24.945 13.334999999999999, 24.900000000000002 11.94 C 24.900000000000002 10.71, 24.900000000000002 10.89, 24.900000000000002 9.48 C 24.900000000000002 7.890000000000001, 24.900000000000002 7.170000000000001, 24.900000000000002 6.300000000000001 C 24.900000000000002 6.15, 24.900000000000002 6.075, 24.900000000000002 6 C 24.900000000000002 6, 24.900000000000002 6, 24.900000000000002 6 L 24.900000000000002 6" fill="none" stroke="black" stroke-width="5"></path></svg>