<svg width="48" height="48" viewBox="0 0 48 48" xmlns="http://www.w3.org/2000/svg"><path d="M 12.18 5.46 C 12.12 5.970000000000001, 12.09 5.835, 12.059999999999999 6.48 C 12.059999999999999 7.260000000000001, 12.059999999999999 7.23, 12.059999999999999 8.040000000000001 C 12.059999999999999 8.88, 12.059999999999999 8.985000000000001, 12.059999999999999 9.72 C 12.059999999999999 10.350000000000001, 12.059999999999999 10.38, 12.059999999999999 10.98 C 12.059999999999999 11.55, 12.059999999999999 11.700000000000001, 12.059999999999999 12.120000000000001 C 12.059999999999999 12.39, 12.059999999999999 12.45, 12.059999999999999 12.66 C 12.059999999999999 12.81, 12.059999999999999 12.885000000000002, 12.059999999999999 12.96 C 12.059999999999999 12.96, 12.059999999999999 12.96, 12.059999999999999 12.96 C 12.059999999999999 12.96, 12.059999999999999 12.9, 12.059999999999999 12.96 C 12.059999999999999 13.080000000000002, 12.014999999999999 13.080000000000002, 12.059999999999999 13.200000000000001 C 12.149999999999999 13.32, 12.09 13.38, 12.24 13.440000000000001 C 12.45 13.440000000000001, 12.48 13.440000000000001, 12.66 13.440000000000001 C 12.81 13.440000000000001, 12.765 13.440000000000001, 12.96 13.440000000000001 C 13.200000000000001 13.440000000000001, 12.885000000000002 13.545000000000002, 13.440000000000001 13.440000000000001 C 14.31 13.23, 14.205 13.125, 15.18 13.02 C 16.259999999999998 13.02, 16.275 13.02, 17.34 13.02 C 18.39 13.02, 18.54 13.02, 19.44 13.02 C 20.19 13.02, 20.085 13.02, 20.94 13.02 C 21.9 13.02, 21.855 12.975, 22.86 13.02 C 23.91 13.11, 23.94 13.14, 24.96 13.200000000000001 C 25.950000000000003 13.23, 26.265 13.2, 26.94 13.26 C 27.300000000000004 13.350000000000001, 27.300000000000004 13.305000000000001, 27.660000000000004 13.440000000000001 C 28.020000000000003 13.620000000000001, 27.960000000000004 13.59, 28.380000000000003 13.799999999999999 C 28.86 14.04, 28.964999999999996 14.055, 29.339999999999996 14.28 C 29.61 14.49, 29.565 14.355, 29.880000000000003 14.700000000000001 C 30.240000000000002 15.18, 30.269999999999996 15.045, 30.599999999999998 15.66 C 30.9 16.41, 30.915000000000003 16.185000000000002, 31.200000000000003 17.16 C 31.470000000000002 18.36, 31.5 18.299999999999997, 31.740000000000002 19.56 C 31.950000000000003 20.880000000000003, 32.010000000000005 21.03, 32.160000000000004 22.200000000000003 C 32.25 23.220000000000002, 32.205 22.860000000000003, 32.339999999999996 24.240000000000002 C 32.519999999999996 25.98, 32.565 26.115, 32.7 27.72 C 32.790000000000006 29.19, 32.835 29.28, 32.88 30.660000000000004 C 32.88 31.950000000000003, 32.88 32.13, 32.88 33.24 C 32.88 34.17, 32.88 34.30499999999999, 32.88 35.099999999999994 C 32.88 35.76, 32.910000000000004 35.685, 32.88 36.42 C 32.82 37.230000000000004, 33.015 37.004999999999995, 32.76 38.04 C 32.31 39.3, 32.19 39.6, 31.86 40.56 C 31.65 41.22, 31.665 41.34, 31.44 41.88 C 31.200000000000003 42.3, 31.17 42.36, 30.96 42.72 C 30.78 43.019999999999996, 30.735 43.14, 30.599999999999998 43.32 C 30.509999999999998 43.379999999999995, 30.705000000000002 43.29, 30.42 43.44 C 29.94 43.68, 29.865000000000002 43.8, 29.46 43.92 C 29.13 43.92, 29.189999999999998 43.92, 28.799999999999997 43.92 C 28.35 43.92, 28.29 43.935, 27.900000000000002 43.92 C 27.57 43.89, 27.6 43.995, 27.240000000000002 43.86 C 26.85 43.620000000000005, 26.835 43.68, 26.46 43.38 C 26.1 43.02, 26.25 43.17, 25.740000000000002 42.660000000000004 C 25.080000000000002 42, 24.990000000000002 42.269999999999996, 24.42 41.339999999999996 C 23.94 40.14, 23.880000000000003 40.169999999999995, 23.46 38.94 C 23.1 37.68, 22.965000000000003 37.485, 22.740000000000002 36.42 C 22.65 35.55, 22.619999999999997 35.685, 22.56 34.68 C 22.53 33.540000000000006, 22.425 33.60000000000001, 22.5 32.400000000000006 C 22.68 31.140000000000004, 22.755 30.705000000000005, 22.86 29.880000000000003 C 22.89 29.490000000000002, 22.904999999999998 29.294999999999998, 22.919999999999998 29.099999999999998 L 22.919999999999998 29.099999999999998" fill="none" stroke="black" stroke-width="5"></path></svg>