<svg width="48" height="48" viewBox="0 0 48 48" xmlns="http://www.w3.org/2000/svg"><path d="M 8.94 3.96 C 8.91 5.369999999999999, 8.895 5.1899999999999995, 8.879999999999999 6.779999999999999 C 8.879999999999999 8.55, 8.879999999999999 8.655, 8.879999999999999 10.32 C 8.879999999999999 11.88, 8.805 11.310000000000002, 8.879999999999999 13.440000000000001 C 9.03 16.14, 8.94 15.885000000000002, 9.18 18.84 C 9.51 22.049999999999997, 9.555 22.185, 9.84 25.259999999999998 C 10.08 28.2, 10.17 28.634999999999998, 10.32 31.14 C 10.379999999999999 33.21, 10.334999999999999 33.165000000000006, 10.44 35.28 C 10.59 37.44, 10.620000000000001 37.88999999999999, 10.74 39.599999999999994 C 10.83 40.86, 10.875 40.995, 10.92 42.12 C 10.92 43.11, 10.92 43.529999999999994, 10.92 44.099999999999994 C 10.92 44.25, 10.92 44.295, 10.92 44.400000000000006 C 10.92 44.46, 10.92 44.489999999999995, 10.92 44.519999999999996 L 10.92 44.519999999999996" fill="none" stroke="black" stroke-width="5"></path><path d="M 9.06 12.18 C 9.21 12.18, 9.165 12.18, 9.36 12.18 C 9.6 12.18, 9.615 12.18, 9.84 12.18 C 10.05 12.18, 9.959999999999999 12.18, 10.26 12.18 C 10.65 12.18, 10.47 12.18, 11.040000000000001 12.18 C 11.79 12.18, 11.895 12.135, 12.54 12.18 C 13.08 12.27, 12.900000000000002 11.55, 13.620000000000001 12.36 C 14.52 13.889999999999999, 14.744999999999997 13.799999999999997, 15.419999999999998 15.419999999999998 C 15.87 17.13, 16.05 17.58, 16.32 18.84 C 16.41 19.65, 16.455 20.01, 16.5 20.46 C 16.5 20.55, 16.5 20.595, 16.5 20.64 C 16.5 20.64, 16.5 20.655, 16.5 20.64 C 16.5 20.61, 16.5 21.03, 16.5 20.580000000000002 C 16.5 19.71, 16.259999999999998 20.130000000000003, 16.5 18.84 C 16.98 17.13, 16.935000000000002 16.784999999999997, 17.46 15.419999999999998 C 18.03 14.399999999999999, 17.895000000000003 14.04, 18.6 13.379999999999999 C 19.44 13.079999999999998, 18.795 12.93, 20.28 12.78 C 22.41 12.78, 23.07 12.78, 24.54 12.78 C 25.35 12.78, 25.710000000000004 12.78, 26.160000000000004 12.78 L 26.339999999999996 12.78" fill="none" stroke="black" stroke-width="5"></path></svg>