<svg width="48" height="48" viewBox="0 0 48 48" xmlns="http://www.w3.org/2000/svg"><path d="M 17.4 8.94 C 15.3 8.76, 15.465 8.835, 13.200000000000001 8.58 C 10.77 8.25, 9.555 8.085, 8.34 7.92 C 8.34 7.92, 8.34 7.92, 8.34 7.92 C 8.34 7.92, 8.34 7.92, 8.34 7.92 C 8.34 7.92, 8.34 7.92, 8.34 7.92 C 8.34 7.92, 8.385 7.605, 8.34 7.92 C 8.25 8.55, 8.16 6.6899999999999995, 8.16 9.18 C 8.25 13.53, 8.235 14.04, 8.34 17.88 C 8.46 21.21, 8.52 22.005, 8.58 24.54 C 8.58 26.28, 8.58 25.994999999999997, 8.58 28.02 C 8.58 30.33, 8.49 30.975, 8.58 32.64 C 8.76 33.66, 8.745 33.78, 8.94 34.68 C 9.149999999999999 35.46, 9.03 35.7, 9.36 36.24 C 9.809999999999999 36.54, 9.75 36.614999999999995, 10.26 36.839999999999996 C 10.829999999999998 36.989999999999995, 10.709999999999999 37.019999999999996, 11.399999999999999 37.14 C 12.209999999999999 37.230000000000004, 12.165 37.53, 13.02 37.32 C 13.92 36.81, 14.100000000000001 37.095, 14.82 36.3 C 15.36 35.22, 15.509999999999998 35.295, 15.899999999999999 34.14 C 16.14 32.91, 16.259999999999998 32.325, 16.38 31.68 C 16.38 31.619999999999997, 16.32 31.575, 16.38 31.56 C 16.5 31.589999999999996, 16.425 31.064999999999998, 16.62 31.619999999999997 C 16.89 32.7, 16.89 32.61, 17.16 33.78 C 17.43 35.04, 17.250000000000004 35.324999999999996, 17.700000000000003 36.3 C 18.330000000000002 36.989999999999995, 18.045 37.035, 18.96 37.68 C 20.16 38.28, 19.17 38.58, 21.36 38.88 C 24.54 38.88, 25.169999999999998 38.940000000000005, 27.72 38.88 C 29.64 38.760000000000005, 30.15 38.805, 31.56 38.64 C 32.46 38.43, 32.655 38.325, 33.36 38.22 C 33.870000000000005 38.22, 34.125 38.22, 34.38 38.22 C 34.38 38.22, 34.38 38.22, 34.38 38.22 L 34.38 38.22" fill="none" stroke="black" stroke-width="5"></path></svg>