<svg width="48" height="48" viewBox="0 0 48 48" xmlns="http://www.w3.org/2000/svg"><path d="M 11.58 3.66 C 11.55 4.02, 11.535 3.63, 11.52 4.38 C 11.52 5.52, 11.52 5.22, 11.52 6.66 C 11.52 8.4, 11.52 8.010000000000002, 11.52 10.14 C 11.52 12.66, 11.52 13.395, 11.52 15.18 C 11.52 16.23, 11.52 16.215, 11.52 17.28 C 11.52 18.36, 11.52 18.555, 11.52 19.44 C 11.52 20.130000000000003, 11.52 20.475, 11.52 20.82 L 11.52 20.82" fill="none" stroke="black" stroke-width="5"></path><path d="M 11.16 9.66 C 11.61 9.66, 10.919999999999998 9.735, 12.059999999999999 9.66 C 13.89 9.51, 14.385000000000002 9.33, 15.72 9.36 C 16.56 9.57, 16.544999999999998 8.73, 17.4 9.78 C 18.27 11.669999999999998, 18.54 11.94, 19.14 13.559999999999999 C 19.47 14.909999999999998, 19.529999999999998 14.819999999999997, 19.799999999999997 16.259999999999998 C 20.009999999999998 17.79, 20.115 18.555, 20.22 19.32 C 20.22 19.32, 20.22 19.32, 20.22 19.32 C 20.22 19.32, 20.145 19.32, 20.22 19.32 C 20.369999999999997 19.32, 19.799999999999997 19.695, 20.52 19.32 C 21.810000000000002 18.57, 21.720000000000002 18.21, 23.1 17.82 C 24.57 17.79, 24.795 17.714999999999996, 26.04 17.759999999999998 C 27.06 17.88, 27.104999999999997 17.55, 28.08 18 C 29.009999999999998 18.78, 29.175 18.45, 29.94 19.56 C 30.54 21, 30.75 20.79, 31.14 22.44 C 31.32 24.300000000000004, 31.41 25.050000000000004, 31.5 26.160000000000004 C 31.5 26.520000000000003, 31.5 26.700000000000003, 31.5 26.880000000000003 L 31.5 26.880000000000003" fill="none" stroke="black" stroke-width="5"></path><path d="M 20.1 18.54 C 20.16 18.9, 20.31 18.104999999999997, 20.22 19.259999999999998 C 19.98 21.21, 19.89 21.18, 19.740000000000002 23.16 C 19.68 25.17, 19.740000000000002 25.095, 19.62 27.18 C 19.439999999999998 29.34, 19.349999999999998 29.325, 19.259999999999998 31.5 C 19.259999999999998 33.69, 19.29 33.945, 19.259999999999998 35.88 C 19.2 37.56, 19.185 37.695, 19.14 39.24 C 19.11 40.650000000000006, 19.095000000000002 41.085, 19.080000000000002 42.06 C 19.080000000000002 42.6, 19.080000000000002 42.870000000000005, 19.080000000000002 43.14 C 19.080000000000002 43.14, 19.080000000000002 43.02, 19.080000000000002 43.14 C 19.080000000000002 43.379999999999995, 19.080000000000002 43.425, 19.080000000000002 43.62 C 19.080000000000002 43.769999999999996, 19.080000000000002 43.845, 19.080000000000002 43.92 C 19.080000000000002 43.92, 19.17 43.845, 19.080000000000002 43.92 L 18.72 44.22" fill="none" stroke="black" stroke-width="5"></path><path d="M 25.02 17.82 C 25.11 18.48, 25.155 17.325000000000003, 25.200000000000003 19.14 C 25.200000000000003 22.11, 25.140000000000004 22.169999999999998, 25.200000000000003 25.08 C 25.32 27.93, 25.380000000000003 28.08, 25.44 30.78 C 25.44 33.33, 25.44 33.405, 25.44 35.88 C 25.44 38.28, 25.44 38.625, 25.44 40.68 C 25.44 42.39, 25.44 42.85499999999999, 25.44 44.099999999999994 C 25.44 44.879999999999995, 25.44 45.27, 25.44 45.660000000000004 C 25.44 45.660000000000004, 25.44 45.61500000000001, 25.44 45.660000000000004 L 25.44 45.839999999999996" fill="none" stroke="black" stroke-width="5"></path></svg>