<svg width="48" height="48" viewBox="0 0 48 48" xmlns="http://www.w3.org/2000/svg"><path d="M 10.56 3.5999999999999996 C 10.68 4.23, 10.74 3.6300000000000003, 10.8 4.86 C 10.8 6.6899999999999995, 10.830000000000002 5.79, 10.8 8.52 C 10.74 12.149999999999999, 10.71 12.285, 10.68 15.78 C 10.68 19.14, 10.68 20.13, 10.68 22.5 C 10.68 23.88, 10.695 24.54, 10.68 25.259999999999998 L 10.620000000000001 25.380000000000003" fill="none" stroke="black" stroke-width="5"></path><path d="M 10.68 9.78 C 11.07 9.78, 11.055 9.885, 11.459999999999999 9.78 C 11.879999999999999 9.57, 11.745 9.434999999999999, 12.299999999999999 9.36 C 12.989999999999998 9.42, 12.915 8.775, 13.68 9.48 C 14.52 10.83, 14.7 9.945, 15.36 12.18 C 15.84 15.299999999999999, 15.99 16.125, 16.32 18.419999999999998 C 16.5 19.89, 16.59 20.58, 16.68 21.36 C 16.68 21.45, 16.68 21.494999999999997, 16.68 21.54 C 16.68 21.54, 16.68 21.72, 16.68 21.54 C 16.68 21.18, 16.275 22.815, 16.68 20.82 C 17.49 17.189999999999998, 17.595 16.049999999999997, 18.299999999999997 13.559999999999999 C 18.9 12.209999999999999, 18.84 11.834999999999999, 19.5 10.86 C 20.22 10.26, 20.01 10.155000000000001, 20.94 9.66 C 22.08 9.27, 22.32 9.09, 23.22 8.879999999999999 C 23.88 8.85, 23.564999999999998 8.475, 24.54 8.82 C 25.83 9.54, 25.964999999999996 9.48, 27.119999999999997 10.26 C 28.14 11.1, 28.305000000000003 10.889999999999999, 29.160000000000004 11.94 C 29.85 13.2, 30.060000000000002 13.26, 30.54 14.46 C 30.81 15.600000000000001, 30.839999999999996 15.240000000000002, 31.08 16.740000000000002 C 31.29 18.6, 31.395 19.200000000000003, 31.5 20.46 C 31.5 21.12, 31.5 21.375, 31.5 21.78 C 31.5 21.93, 31.5 21.945, 31.5 22.080000000000002 L 31.5 22.32" fill="none" stroke="black" stroke-width="5"></path><path d="M 20.759999999999998 9.959999999999999 C 20.759999999999998 11.7, 20.759999999999998 11.595, 20.759999999999998 13.440000000000001 C 20.759999999999998 15.39, 20.759999999999998 14.655000000000001, 20.759999999999998 17.34 C 20.759999999999998 20.759999999999998, 20.804999999999996 20.97, 20.759999999999998 24.18 C 20.67 27.18, 20.700000000000003 27.255, 20.580000000000002 30.18 C 20.43 33.03, 20.355 33.24, 20.28 35.88 C 20.28 38.31, 20.28 38.445, 20.28 40.74 C 20.28 42.900000000000006, 20.28 43.845000000000006, 20.28 45.06 C 20.28 45.33, 20.28 45.464999999999996, 20.28 45.599999999999994 L 20.28 45.599999999999994" fill="none" stroke="black" stroke-width="5"></path><path d="M 26.58 9.78 C 26.73 10.440000000000001, 26.835 9.195000000000002, 26.880000000000003 11.100000000000001 C 26.82 14.25, 26.759999999999998 13.62, 26.759999999999998 17.4 C 26.82 21.81, 26.85 22.545, 26.880000000000003 26.22 C 26.880000000000003 29.159999999999997, 26.910000000000004 29.489999999999995, 26.880000000000003 32.099999999999994 C 26.82 34.379999999999995, 26.835 34.515, 26.759999999999998 36.660000000000004 C 26.669999999999998 38.67, 26.625 39.18, 26.58 40.68 C 26.58 41.67, 26.624999999999996 41.790000000000006, 26.58 42.660000000000004 C 26.490000000000002 43.410000000000004, 26.445 43.71000000000001, 26.400000000000002 44.160000000000004 C 26.400000000000002 44.31, 26.415000000000003 44.25, 26.400000000000002 44.46 C 26.369999999999997 44.730000000000004, 26.429999999999996 44.79, 26.339999999999996 45 L 26.04 45.3" fill="none" stroke="black" stroke-width="5"></path></svg>