<svg width="48" height="48" viewBox="0 0 48 48" xmlns="http://www.w3.org/2000/svg"><path d="M 12.36 4.9799999999999995 C 12.36 5.55, 12.45 5.01, 12.36 6.12 C 12.18 7.77, 12.24 7.965, 12 9.42 C 11.7 10.68, 11.669999999999998 10.754999999999999, 11.399999999999999 11.94 C 11.16 13.05, 11.175 12.66, 10.92 14.16 C 10.649999999999999 16.05, 10.514999999999999 16.23, 10.379999999999999 17.94 C 10.379999999999999 19.47, 10.424999999999999 19.44, 10.379999999999999 21 C 10.29 22.59, 10.245 22.814999999999998, 10.2 24.18 C 10.2 25.32, 10.245 25.29, 10.2 26.46 C 10.11 27.66, 10.094999999999999 27.6, 10.02 28.86 C 9.959999999999999 30.18, 10.004999999999999 30.255000000000003, 9.899999999999999 31.5 C 9.75 32.67, 9.675 32.894999999999996, 9.600000000000001 33.839999999999996 C 9.600000000000001 34.56, 9.600000000000001 34.41, 9.600000000000001 35.28 C 9.600000000000001 36.3, 9.600000000000001 36.510000000000005, 9.600000000000001 37.32 C 9.600000000000001 37.92, 9.600000000000001 37.949999999999996, 9.600000000000001 38.519999999999996 C 9.600000000000001 39.059999999999995, 9.450000000000003 39.14999999999999, 9.600000000000001 39.599999999999994 C 9.9 39.959999999999994, 9.795 39.84, 10.2 40.32 C 10.71 40.92, 10.725000000000001 41.099999999999994, 11.22 41.519999999999996 C 11.7 41.76, 11.67 41.730000000000004, 12.18 42 C 12.719999999999999 42.3, 12.719999999999999 42.38999999999999, 13.26 42.599999999999994 C 13.8 42.72, 13.89 42.72, 14.34 42.839999999999996 C 14.7 42.959999999999994, 14.549999999999999 43.05, 15.059999999999999 43.08 C 15.719999999999999 43.019999999999996, 15.614999999999998 43.305, 16.38 42.96 C 17.25 42.33, 17.415 42.345, 18.12 41.7 C 18.660000000000004 41.040000000000006, 18.765000000000004 41.025000000000006, 19.200000000000003 40.38 C 19.53 39.75, 19.634999999999998 40.004999999999995, 19.86 39.12 C 19.98 37.98, 20.04 37.98, 20.1 36.839999999999996 C 20.1 35.7, 20.1 35.82, 20.1 34.56 C 20.1 33.18, 20.1 32.489999999999995, 20.1 31.799999999999997 C 20.1 31.799999999999997, 20.1 31.799999999999997, 20.1 31.799999999999997 L 20.1 31.799999999999997" fill="none" stroke="black" stroke-width="5"></path><path d="M 10.86 15.18 C 12.09 15.239999999999998, 11.535 15.27, 13.32 15.299999999999999 C 15.66 15.299999999999999, 16.035 15.299999999999999, 18 15.299999999999999 C 19.59 15.299999999999999, 20.055 15.299999999999999, 21.18 15.299999999999999 C 21.84 15.299999999999999, 21.75 15.209999999999999, 22.5 15.299999999999999 C 23.34 15.48, 23.31 15.434999999999999, 24.18 15.66 C 25.08 15.930000000000001, 25.215 15.900000000000002, 25.98 16.200000000000003 C 26.61 16.53, 26.64 16.455, 27.240000000000002 16.86 C 27.810000000000002 17.34, 27.825000000000003 17.025, 28.380000000000003 17.82 C 28.92 18.93, 29.130000000000003 18.765, 29.46 20.04 C 29.580000000000002 21.479999999999997, 29.64 21.464999999999996, 29.700000000000003 22.919999999999998 C 29.700000000000003 24.39, 29.805000000000003 24.39, 29.700000000000003 25.86 C 29.490000000000002 27.33, 29.505000000000003 27.254999999999995, 29.28 28.799999999999997 C 29.04 30.419999999999998, 29.04 30.435, 28.799999999999997 32.04 C 28.56 33.629999999999995, 28.485 33.675, 28.32 35.22 C 28.23 36.72, 28.245 36.945, 28.14 38.22 C 28.020000000000003 39.269999999999996, 27.96 39.405, 27.900000000000002 40.32 C 27.900000000000002 41.1, 27.900000000000002 41.295, 27.900000000000002 41.88 C 27.900000000000002 42.27, 27.900000000000002 42.285000000000004, 27.900000000000002 42.660000000000004 C 27.900000000000002 43.02, 27.900000000000002 43.11, 27.900000000000002 43.38 C 27.900000000000002 43.56, 27.900000000000002 43.650000000000006, 27.900000000000002 43.74 L 27.900000000000002 43.74" fill="none" stroke="black" stroke-width="5"></path></svg>