<svg width="48" height="48" viewBox="0 0 48 48" xmlns="http://www.w3.org/2000/svg"><path d="M 26.64 4.38 C 25.44 4.289999999999999, 25.275000000000002 4.244999999999999, 24.240000000000002 4.199999999999999 C 23.37 4.199999999999999, 23.46 4.199999999999999, 22.5 4.199999999999999 C 21.45 4.199999999999999, 21.345 4.199999999999999, 20.4 4.199999999999999 C 19.56 4.199999999999999, 19.38 4.199999999999999, 18.72 4.199999999999999 C 18.24 4.199999999999999, 18.104999999999997 4.199999999999999, 17.759999999999998 4.199999999999999 C 17.549999999999997 4.199999999999999, 17.49 4.184999999999999, 17.34 4.199999999999999 C 17.25 4.2299999999999995, 17.265 3.8249999999999997, 17.16 4.26 C 17.04 5.1, 17.07 4.5, 16.919999999999998 5.9399999999999995 C 16.74 7.9799999999999995, 16.65 8.4, 16.56 10.02 C 16.56 11.219999999999999, 16.56 11.04, 16.56 12.419999999999998 C 16.56 13.979999999999999, 16.56 13.829999999999998, 16.56 15.54 C 16.56 17.4, 16.56 17.519999999999996, 16.56 19.259999999999998 C 16.56 20.88, 16.56 20.82, 16.56 22.5 C 16.56 24.240000000000002, 16.56 24.42, 16.56 25.98 C 16.56 27.36, 16.56 27.465000000000003, 16.56 28.740000000000002 C 16.56 29.91, 16.56 29.894999999999996, 16.56 31.08 C 16.56 32.28, 16.56 32.47500000000001, 16.56 33.480000000000004 C 16.56 34.29, 16.56 34.199999999999996, 16.56 35.099999999999994 C 16.56 36.089999999999996, 16.56 36.449999999999996, 16.56 37.08 C 16.56 37.349999999999994, 16.695 37.41, 16.56 37.62 L 16.02 37.92" fill="none" stroke="black" stroke-width="5"></path><path d="M 10.2 37.019999999999996 C 10.68 37.019999999999996, 10.44 36.92999999999999, 11.16 37.019999999999996 C 12.120000000000001 37.2, 11.955000000000002 37.230000000000004, 13.080000000000002 37.38 C 14.370000000000001 37.5, 14.46 37.5, 15.66 37.62 C 16.77 37.739999999999995, 16.424999999999997 37.8, 17.88 37.86 C 19.68 37.86, 20.01 37.92, 21.48 37.86 C 22.619999999999997 37.739999999999995, 23.099999999999998 37.68, 23.759999999999998 37.62 L 24.119999999999997 37.62" fill="none" stroke="black" stroke-width="5"></path><path d="M 9.3 41.400000000000006 C 10.530000000000001 41.730000000000004, 9.96 41.85, 11.76 42.06 C 14.129999999999999 42.150000000000006, 14.43 42.195, 16.5 42.24 C 18.27 42.24, 18.345 42.24, 20.04 42.24 C 21.66 42.24, 22.185000000000002 42.225, 23.28 42.24 C 23.85 42.269999999999996, 24 42.239999999999995, 24.42 42.3 C 24.69 42.39, 24.825000000000003 42.435, 24.96 42.480000000000004 L 24.96 42.480000000000004" fill="none" stroke="black" stroke-width="5"></path></svg>