<svg width="48" height="48" viewBox="0 0 48 48" xmlns="http://www.w3.org/2000/svg"><path d="M 26.28 4.08 C 26.28 4.050000000000001, 26.595000000000002 4.095000000000001, 26.28 4.0200000000000005 C 25.65 3.9000000000000004, 25.71 3.87, 25.02 3.7800000000000002 C 24.27 3.72, 24.81 3.75, 23.52 3.66 C 21.689999999999998 3.54, 20.985 3.48, 19.86 3.42 C 19.439999999999998 3.42, 19.365 3.42, 19.02 3.42 C 18.75 3.42, 18.66 3.42, 18.48 3.42 C 18.39 3.42, 18.345 3.42, 18.299999999999997 3.42 C 18.299999999999997 3.42, 18.344999999999995 3.42, 18.299999999999997 3.42 C 18.21 3.42, 18.18 3.15, 18.12 3.42 C 18.09 3.96, 18.119999999999997 3.6, 18.06 4.5 C 17.97 5.76, 17.924999999999997 5.265, 17.88 7.02 C 17.88 9.27, 17.88 9.33, 17.88 11.52 C 17.88 13.649999999999999, 17.88 13.754999999999999, 17.88 15.78 C 17.88 17.7, 17.88 17.505, 17.88 19.62 C 17.88 21.93, 17.88 22.275000000000002, 17.88 24.240000000000002 C 17.88 25.86, 17.835 26.07, 17.88 27.48 C 17.97 28.68, 18.015 28.815, 18.06 29.880000000000003 C 18.06 30.810000000000002, 18.06 30.855000000000004, 18.06 31.740000000000002 C 18.06 32.58, 18.06 32.685, 18.06 33.42 C 18.06 34.05, 18.06 34.335, 18.06 34.68 L 18.06 34.8" fill="none" stroke="black" stroke-width="5"></path><path d="M 13.26 26.160000000000004 C 13.29 27.150000000000002, 13.23 26.46, 13.32 28.14 C 13.47 30.51, 13.500000000000002 30.705000000000005, 13.620000000000001 32.88 C 13.71 34.86, 13.709999999999999 35.099999999999994, 13.799999999999999 36.839999999999996 C 13.89 38.339999999999996, 13.875 38.339999999999996, 13.98 39.839999999999996 C 14.100000000000001 41.339999999999996, 14.16 41.669999999999995, 14.22 42.839999999999996 C 14.22 43.67999999999999, 14.22 44.099999999999994, 14.22 44.519999999999996 C 14.22 44.519999999999996, 14.22 44.519999999999996, 14.22 44.519999999999996 L 14.22 44.519999999999996" fill="none" stroke="black" stroke-width="5"></path><path d="M 23.1 25.259999999999998 C 23.1 26.369999999999997, 23.1 24.855, 23.1 27.48 C 23.1 31.619999999999997, 23.1 32.43, 23.1 35.76 C 23.1 38.28, 23.1 38.91, 23.1 40.8 C 23.1 42.06, 23.1 42.165, 23.1 43.32 C 23.1 44.370000000000005, 23.1 44.82, 23.1 45.42 C 23.1 45.57, 23.115000000000002 45.599999999999994, 23.1 45.72 L 23.04 45.900000000000006" fill="none" stroke="black" stroke-width="5"></path></svg>