<svg width="48" height="48" viewBox="0 0 48 48" xmlns="http://www.w3.org/2000/svg"><path d="M 9.72 5.88 C 9.96 6.0600000000000005, 10.08 5.55, 10.2 6.24 C 10.2 7.44, 10.2 7.275, 10.2 8.64 C 10.2 10.17, 10.2 10.649999999999999, 10.2 11.7 C 10.2 12.27, 10.184999999999999 12.42, 10.2 12.84 C 10.23 13.11, 10.245 13.245, 10.26 13.379999999999999 C 10.26 13.379999999999999, 10.23 13.349999999999998, 10.26 13.379999999999999 C 10.32 13.44, 10.274999999999999 13.425, 10.379999999999999 13.5 C 10.53 13.59, 10.514999999999999 13.635, 10.68 13.68 C 10.86 13.68, 10.815000000000001 13.68, 11.040000000000001 13.68 C 11.31 13.68, 11.31 13.68, 11.58 13.68 C 11.850000000000001 13.68, 11.580000000000002 13.68, 12.120000000000001 13.68 C 12.93 13.68, 12.870000000000001 13.68, 13.74 13.68 C 14.670000000000002 13.68, 14.685000000000002 13.71, 15.600000000000001 13.68 C 16.5 13.62, 16.65 13.59, 17.4 13.559999999999999 C 18 13.559999999999999, 17.85 13.559999999999999, 18.6 13.559999999999999 C 19.5 13.559999999999999, 19.59 13.559999999999999, 20.4 13.559999999999999 C 21.119999999999997 13.559999999999999, 21.225 13.559999999999999, 21.84 13.559999999999999 C 22.35 13.559999999999999, 22.424999999999997 13.529999999999998, 22.86 13.559999999999999 C 23.22 13.62, 23.220000000000002 13.575, 23.580000000000002 13.68 C 23.939999999999998 13.83, 23.939999999999998 13.74, 24.299999999999997 13.98 C 24.659999999999997 14.31, 24.585 14.190000000000001, 25.02 14.64 C 25.53 15.21, 25.665 15.254999999999999, 26.04 15.78 C 26.28 16.26, 26.265 16.155, 26.52 16.740000000000002 C 26.79 17.43, 26.775 17.400000000000002, 27.06 18.12 C 27.36 18.87, 27.450000000000003 18.675, 27.660000000000004 19.62 C 27.78 20.759999999999998, 27.78 20.7, 27.900000000000002 21.9 C 28.020000000000003 23.16, 28.080000000000002 23.22, 28.14 24.42 C 28.14 25.560000000000002, 28.14 25.440000000000005, 28.14 26.700000000000003 C 28.14 28.080000000000002, 28.14 28.26, 28.14 29.46 C 28.14 30.48, 28.2 30.465000000000003, 28.14 31.5 C 28.020000000000003 32.55, 28.065 32.699999999999996, 27.900000000000002 33.599999999999994 C 27.69 34.349999999999994, 27.735 34.334999999999994, 27.48 35.099999999999994 C 27.18 35.879999999999995, 27.225 35.865, 26.880000000000003 36.660000000000004 C 26.490000000000002 37.47, 26.4 37.68, 26.099999999999998 38.28 C 25.89 38.67, 25.979999999999997 38.67, 25.68 39.06 C 25.29 39.45, 25.44 39.48, 24.900000000000002 39.839999999999996 C 24.21 40.17, 24.225 40.185, 23.52 40.5 C 22.8 40.8, 22.575000000000003 40.949999999999996, 22.080000000000002 41.099999999999994 C 21.810000000000002 41.099999999999994, 21.81 41.099999999999994, 21.54 41.099999999999994 C 21.27 41.099999999999994, 21.3 41.114999999999995, 21 41.099999999999994 C 20.67 41.06999999999999, 20.655 41.175, 20.34 41.04 C 20.04 40.8, 20.115000000000002 40.995000000000005, 19.740000000000002 40.56 C 19.29 39.93, 19.200000000000003 39.839999999999996, 18.84 39.3 C 18.57 38.85, 18.584999999999997 39.045, 18.299999999999997 38.400000000000006 C 18 37.56, 17.865000000000002 37.44, 17.700000000000003 36.72 C 17.67 36.12, 17.61 36.345, 17.64 35.519999999999996 C 17.73 34.47, 17.595 34.185, 17.82 33.42 C 18.18 32.94, 17.97 33.045, 18.54 32.46 C 19.32 31.77, 19.35 31.56, 20.1 31.08 C 20.82 30.81, 20.925 30.72, 21.54 30.54 C 22.049999999999997 30.45, 22.14 30.405, 22.56 30.36 C 22.89 30.36, 22.724999999999998 30.36, 23.22 30.36 C 23.88 30.36, 23.955 30.255, 24.54 30.36 C 25.049999999999997 30.57, 25.064999999999998 30.495, 25.56 30.78 C 26.04 31.14, 26.055 31.185000000000002, 26.52 31.5 C 26.97 31.77, 27.105 31.814999999999998, 27.42 32.04 C 27.6 32.22, 27.54 32.160000000000004, 27.78 32.400000000000006 C 28.080000000000002 32.7, 28.230000000000004 32.85, 28.380000000000003 33 L 28.380000000000003 33" fill="none" stroke="black" stroke-width="5"></path></svg>