<svg width="48" height="48" viewBox="0 0 48 48" xmlns="http://www.w3.org/2000/svg"><path d="M 24.660000000000004 3.7199999999999998 C 23.550000000000004 3.63, 23.46 3.63, 22.44 3.54 C 21.51 3.45, 21.825000000000003 3.4050000000000002, 20.580000000000002 3.3600000000000003 C 19.020000000000003 3.3600000000000003, 18.51 3.4200000000000004, 17.46 3.3600000000000003 C 16.92 3.24, 16.785 3.18, 16.38 3.12 C 16.11 3.12, 16.515 3.12, 15.84 3.12 C 14.76 3.12, 14.415 3.09, 13.68 3.12 C 13.29 3.18, 13.124999999999998 3.18, 12.899999999999999 3.24 C 12.84 3.3000000000000003, 12.809999999999999 3.1950000000000003, 12.78 3.3600000000000003 C 12.78 3.6300000000000003, 12.84 2.3850000000000007, 12.78 3.9000000000000004 C 12.66 6.66, 12.704999999999998 6.57, 12.54 9.42 C 12.33 12.36, 12.225000000000001 12.629999999999999, 12.120000000000001 15.299999999999999 C 12.120000000000001 17.7, 12.120000000000001 17.880000000000003, 12.120000000000001 20.1 C 12.120000000000001 22.14, 12.120000000000001 22.32, 12.120000000000001 24.18 C 12.120000000000001 25.86, 12.120000000000001 25.799999999999997, 12.120000000000001 27.54 C 12.120000000000001 29.34, 12.165000000000001 29.235, 12.120000000000001 31.14 C 12.030000000000001 33.150000000000006, 11.985 33.435, 11.94 35.160000000000004 C 11.94 36.6, 11.94 36.705, 11.94 38.04 C 11.94 39.269999999999996, 11.94 39.375, 11.94 40.5 C 11.94 41.519999999999996, 11.94 41.745, 11.94 42.54 C 11.94 43.11, 11.94 43.125, 11.94 43.68 C 11.94 44.22, 11.94 44.415, 11.94 44.76 C 11.94 44.91, 11.94 44.955, 11.94 45.06 L 11.94 45.18" fill="none" stroke="black" stroke-width="5"></path><path d="M 12.48 35.099999999999994 C 12.99 35.099999999999994, 12.825 35.084999999999994, 13.5 35.099999999999994 C 14.34 35.129999999999995, 14.07 35.040000000000006, 15.18 35.160000000000004 C 16.560000000000002 35.370000000000005, 16.365000000000002 35.385, 17.94 35.58 C 19.71 35.76, 19.905 35.849999999999994, 21.48 35.94 C 22.86 35.94, 23.355000000000004 35.94, 24.240000000000002 35.94 C 24.630000000000003 35.94, 24.825 35.94, 25.02 35.94 L 25.02 35.94" fill="none" stroke="black" stroke-width="5"></path></svg>