<svg width="48" height="48" viewBox="0 0 48 48" xmlns="http://www.w3.org/2000/svg"><path d="M 13.620000000000001 5.76 C 13.620000000000001 6.66, 13.605 6.36, 13.620000000000001 7.5600000000000005 C 13.65 9.06, 13.665 9.15, 13.68 10.56 C 13.68 11.88, 13.68 11.670000000000002, 13.68 13.200000000000001 C 13.68 14.940000000000001, 13.68 15.645, 13.68 16.68 C 13.68 17.009999999999998, 13.68 17.175, 13.68 17.34 L 13.68 17.34" fill="none" stroke="black" stroke-width="5"></path><path d="M 14.04 9.899999999999999 C 14.25 9.899999999999999, 13.440000000000001 9.989999999999998, 14.46 9.899999999999999 C 16.29 9.719999999999999, 15.990000000000002 9.765, 18.12 9.540000000000001 C 20.55 9.27, 21.060000000000002 9.135, 22.98 9 C 24.39 9, 24.689999999999998 9, 25.799999999999997 9 C 26.61 9, 26.895 8.969999999999999, 27.42 9 C 27.660000000000004 9.06, 27.585 8.655000000000001, 27.900000000000002 9.120000000000001 C 28.29 9.99, 28.41 9.809999999999999, 28.68 10.86 C 28.83 12.09, 28.905 12.254999999999999, 28.98 13.32 C 28.98 14.22, 28.995 14.115000000000002, 28.98 15.120000000000001 C 28.950000000000003 16.23, 28.935000000000002 16.634999999999998, 28.92 17.34 L 28.92 17.94" fill="none" stroke="black" stroke-width="5"></path><path d="M 21 9.72 C 20.64 12.09, 20.46 12.345, 20.28 14.46 C 20.28 16.32, 20.28 15.855, 20.28 18.18 C 20.28 20.97, 20.265 21.224999999999998, 20.28 23.759999999999998 C 20.310000000000002 26.04, 20.265 26.235, 20.34 28.32 C 20.46 30.209999999999997, 20.475 30.269999999999996, 20.580000000000002 32.099999999999994 C 20.67 33.87, 20.669999999999998 34.019999999999996, 20.759999999999998 35.64 C 20.85 37.11, 20.895 37.349999999999994, 20.94 38.58 C 20.94 39.57, 20.880000000000003 39.705, 20.94 40.56 C 21.060000000000002 41.28, 21.12 41.595, 21.18 42 C 21.18 42.09, 21.18 42.135, 21.18 42.18 C 21.18 42.18, 21.18 42.09, 21.18 42.18 C 21.18 42.36, 21.18 42.405, 21.18 42.54 L 21.18 42.72" fill="none" stroke="black" stroke-width="5"></path></svg>