<svg width="48" height="48" viewBox="0 0 48 48" xmlns="http://www.w3.org/2000/svg"><path d="M 11.64 5.1 C 11.73 5.79, 11.715 5.6850000000000005, 11.82 6.48 C 11.94 7.38, 12 7.379999999999999, 12.059999999999999 8.28 C 12.059999999999999 9.18, 12.059999999999999 9.36, 12.059999999999999 10.08 C 12.059999999999999 10.620000000000001, 12.059999999999999 10.545, 12.059999999999999 11.16 C 12.059999999999999 11.85, 12.059999999999999 12.03, 12.059999999999999 12.54 C 12.059999999999999 12.870000000000001, 12.059999999999999 12.945, 12.059999999999999 13.200000000000001 C 12.059999999999999 13.379999999999999, 12.044999999999998 13.424999999999999, 12.059999999999999 13.559999999999999 C 12.09 13.649999999999999, 12.105 13.695, 12.120000000000001 13.74 C 12.120000000000001 13.74, 12.120000000000001 13.74, 12.120000000000001 13.74 C 12.120000000000001 13.74, 12.090000000000002 13.695, 12.120000000000001 13.74 C 12.18 13.829999999999998, 12.075000000000001 13.814999999999998, 12.24 13.919999999999998 C 12.51 14.04, 12.555 14.1, 12.78 14.16 C 12.96 14.16, 12.84 14.22, 13.14 14.16 C 13.56 14.04, 13.455 14.04, 13.98 13.919999999999998 C 14.61 13.799999999999999, 14.565000000000001 13.844999999999999, 15.24 13.68 C 15.96 13.469999999999999, 15.915000000000001 13.44, 16.68 13.26 C 17.49 13.11, 17.384999999999998 13.080000000000002, 18.299999999999997 12.96 C 19.32 12.870000000000001, 19.575 12.84, 20.34 12.78 C 20.85 12.75, 20.7 12.735, 21.36 12.72 C 22.17 12.72, 22.14 12.72, 22.98 12.72 C 23.85 12.72, 23.939999999999998 12.72, 24.72 12.72 C 25.409999999999997 12.72, 25.485 12.705000000000002, 26.099999999999998 12.72 C 26.64 12.75, 26.729999999999997 12.66, 27.18 12.78 C 27.54 12.99, 27.525000000000002 12.975000000000001, 27.900000000000002 13.200000000000001 C 28.29 13.440000000000001, 28.335 13.38, 28.68 13.68 C 28.98 14.04, 29.01 14.04, 29.28 14.399999999999999 C 29.52 14.76, 29.534999999999997 14.7, 29.759999999999998 15.120000000000001 C 29.97 15.600000000000001, 30.015 15.540000000000003, 30.18 16.080000000000002 C 30.3 16.68, 30.36 16.725, 30.42 17.28 C 30.42 17.79, 30.42 17.624999999999996, 30.42 18.299999999999997 C 30.42 19.14, 30.42 19.439999999999998, 30.42 19.98 C 30.42 20.22, 30.42 20.295, 30.42 20.46 C 30.42 20.55, 30.42 20.595, 30.42 20.64 C 30.42 20.64, 30.42 20.580000000000002, 30.42 20.64 L 30.42 20.88" fill="none" stroke="black" stroke-width="5"></path><path d="M 23.580000000000002 13.02 C 23.67 14.219999999999999, 23.715 14.189999999999998, 23.759999999999998 15.419999999999998 C 23.759999999999998 16.68, 23.759999999999998 16.8, 23.759999999999998 17.94 C 23.759999999999998 18.96, 23.804999999999996 18.705000000000002, 23.759999999999998 19.98 C 23.67 21.509999999999998, 23.790000000000003 21.36, 23.580000000000002 23.04 C 23.25 24.87, 23.235 25.125000000000004, 22.919999999999998 26.700000000000003 C 22.619999999999997 28.02, 22.59 27.99, 22.32 29.339999999999996 C 22.08 30.719999999999995, 22.035 31.09499999999999, 21.84 32.099999999999994 C 21.689999999999998 32.73, 21.72 32.61, 21.54 33.36 C 21.33 34.23, 21.450000000000003 34.12499999999999, 21.12 35.099999999999994 C 20.67 36.17999999999999, 20.729999999999997 36.239999999999995, 20.22 37.26 C 19.65 38.22, 19.650000000000002 38.31, 19.080000000000002 39.18 C 18.51 39.96, 18.615000000000002 39.96, 17.94 40.74 C 17.16 41.519999999999996, 16.95 41.699999999999996, 16.38 42.3 C 16.02 42.72, 16.02 42.75, 15.66 43.14 C 15.3 43.5, 15.120000000000001 43.68, 14.940000000000001 43.86 C 14.940000000000001 43.86, 14.940000000000001 43.86, 14.940000000000001 43.86 L 14.940000000000001 43.86" fill="none" stroke="black" stroke-width="5"></path></svg>