<svg width="48" height="48" viewBox="0 0 48 48" xmlns="http://www.w3.org/2000/svg"><path d="M 16.799999999999997 12.120000000000001 C 15.659999999999998 12.120000000000001, 15.524999999999999 12.120000000000001, 14.52 12.120000000000001 C 13.649999999999999 12.120000000000001, 13.29 12.120000000000001, 12.78 12.120000000000001 C 12.629999999999999 12.120000000000001, 12.555 12.120000000000001, 12.48 12.120000000000001 C 12.48 12.120000000000001, 12.48 12.120000000000001, 12.48 12.120000000000001 C 12.48 12.120000000000001, 12.48 12.120000000000001, 12.48 12.120000000000001 C 12.48 12.120000000000001, 12.675 11.91, 12.48 12.120000000000001 C 12.09 12.540000000000001, 12.12 11.685000000000002, 11.7 12.96 C 11.25 15.09, 11.16 15.314999999999998, 10.8 17.22 C 10.530000000000001 18.9, 10.455 18.855000000000004, 10.26 20.580000000000002 C 10.14 22.35, 10.08 22.514999999999997, 10.02 24.119999999999997 C 10.02 25.56, 10.02 25.935, 10.02 27 C 10.02 27.69, 9.959999999999999 27.945, 10.02 28.380000000000003 C 10.14 28.560000000000002, 9.9 28.485000000000003, 10.26 28.740000000000002 C 10.86 29.07, 10.604999999999999 29.085, 11.459999999999999 29.400000000000002 C 12.57 29.700000000000003, 12.51 29.805, 13.68 30 C 14.91 30.09, 14.940000000000001 30.06, 16.14 30.18 C 17.310000000000002 30.33, 17.565 30.39, 18.48 30.48 C 19.14 30.509999999999998, 19.095 30.525, 19.799999999999997 30.54 C 20.549999999999997 30.54, 20.714999999999996 30.63, 21.299999999999997 30.54 C 21.72 30.36, 21.6 30.6, 22.14 30.18 C 22.8 29.52, 22.845000000000002 29.805, 23.46 28.86 C 24.03 27.630000000000003, 24.15 27.810000000000002, 24.599999999999998 26.400000000000002 C 24.93 24.810000000000002, 25.034999999999997 25.32, 25.259999999999998 23.22 C 25.38 20.61, 25.439999999999998 20.88, 25.5 18 C 25.5 14.85, 25.515 14.01, 25.5 11.7 C 25.47 10.23, 25.455000000000002 9.585, 25.44 8.76 C 25.44 8.579999999999998, 25.44 8.489999999999998, 25.44 8.399999999999999 L 25.44 8.399999999999999" fill="none" stroke="black" stroke-width="5"></path><path d="M 16.799999999999997 31.799999999999997 C 16.799999999999997 33.72, 16.859999999999996 33.75, 16.799999999999997 35.64 C 16.68 37.5, 16.619999999999997 37.89, 16.56 39.36 C 16.56 40.44, 16.619999999999997 40.334999999999994, 16.56 41.519999999999996 C 16.439999999999998 42.809999999999995, 16.38 42.824999999999996, 16.32 44.099999999999994 C 16.32 45.36, 16.32 45.809999999999995, 16.32 46.62 C 16.32 46.98, 16.32 47.16, 16.32 47.339999999999996 L 16.32 47.339999999999996" fill="none" stroke="black" stroke-width="5"></path></svg>