<svg width="48" height="48" viewBox="0 0 48 48" xmlns="http://www.w3.org/2000/svg"><path d="M 30.240000000000002 6.8999999999999995 C 28.92 6.63, 29.7 6.4350000000000005, 27.599999999999998 6.36 C 24.72 6.48, 24.314999999999998 6.015000000000001, 21.84 6.6000000000000005 C 19.770000000000003 7.65, 19.275000000000002 7.664999999999999, 17.700000000000003 8.7 C 16.62 9.719999999999999, 16.605 9.345, 15.54 10.74 C 14.49 12.51, 14.205000000000002 12.15, 13.440000000000001 14.28 C 12.96 16.77, 12.72 16.95, 12.48 19.259999999999998 C 12.48 21.39, 12.255 21.479999999999997, 12.48 23.52 C 12.93 25.47, 12.87 25.89, 13.379999999999999 27.42 C 13.95 28.53, 13.77 28.560000000000002, 14.52 29.64 C 15.45 30.69, 15.314999999999998 30.900000000000002, 16.38 31.740000000000002 C 17.58 32.370000000000005, 17.580000000000002 32.46, 18.78 33 C 19.98 33.45, 19.995 33.60000000000001, 21.18 33.900000000000006 C 22.35 34.050000000000004, 22.08 34.080000000000005, 23.52 34.2 C 25.23 34.290000000000006, 25.14 34.470000000000006, 26.94 34.38 C 28.83 34.11, 28.77 34.5, 30.72 33.839999999999996 C 32.730000000000004 32.79, 33.480000000000004 32.445, 34.74 31.740000000000002 C 35.25 31.380000000000003, 35.504999999999995 31.2, 35.76 31.02 L 35.76 31.02" fill="none" stroke="black" stroke-width="5"></path></svg>