<svg width="48" height="48" viewBox="0 0 48 48" xmlns="http://www.w3.org/2000/svg"><path d="M 17.82 19.5 C 17.43 19.5, 17.564999999999998 19.545, 17.04 19.5 C 16.38 19.41, 16.47 19.29, 15.72 19.32 C 14.879999999999999 19.47, 14.924999999999999 19.275, 14.04 19.62 C 13.11 20.160000000000004, 12.975 20.160000000000004, 12.18 20.700000000000003 C 11.52 21.240000000000002, 11.37 21.3, 10.86 21.78 C 10.5 22.200000000000003, 10.335 22.095000000000002, 10.14 22.62 C 10.11 23.25, 10.095 23.369999999999997, 10.08 23.88 C 10.08 24.270000000000003, 9.945 24.300000000000004, 10.08 24.660000000000004 C 10.350000000000001 24.990000000000002, 10.365 25.020000000000003, 10.620000000000001 25.32 C 10.860000000000001 25.59, 10.815000000000001 25.619999999999997, 11.100000000000001 25.86 C 11.43 26.07, 11.385 26.085, 11.76 26.28 C 12.18 26.46, 12.225000000000001 26.475, 12.600000000000001 26.64 C 12.93 26.79, 12.9 26.79, 13.26 26.94 C 13.649999999999999 27.090000000000003, 13.454999999999998 27.075000000000003, 14.04 27.240000000000002 C 14.82 27.42, 14.55 27.494999999999997, 15.600000000000001 27.599999999999998 C 16.92 27.630000000000003, 16.845000000000002 27.645000000000003, 18.240000000000002 27.660000000000004 C 19.71 27.660000000000004, 19.845 27.855000000000004, 21.18 27.660000000000004 C 22.380000000000003 27.270000000000003, 22.515 27.255000000000003, 23.580000000000002 26.880000000000003 C 24.51 26.520000000000003, 24.630000000000003 26.415000000000006, 25.44 26.160000000000004 C 26.130000000000003 26.01, 26.37 25.935000000000002, 26.82 25.86 C 27.03 25.86, 27.135 25.86, 27.240000000000002 25.86 C 27.240000000000002 25.86, 27.195 25.89, 27.240000000000002 25.86 L 27.42 25.740000000000002" fill="none" stroke="black" stroke-width="5"></path><path d="M 12.78 35.28 C 13.11 35.97, 13.035000000000002 35.955000000000005, 13.440000000000001 36.660000000000004 C 13.92 37.379999999999995, 13.875 37.394999999999996, 14.399999999999999 38.099999999999994 C 14.969999999999999 38.79, 14.969999999999999 38.910000000000004, 15.54 39.480000000000004 C 16.11 39.93000000000001, 16.05 40.005, 16.68 40.38 C 17.369999999999997 40.68000000000001, 17.25 40.69500000000001, 18.06 40.980000000000004 C 18.99 41.25, 18.779999999999998 41.37, 19.919999999999998 41.519999999999996 C 21.27 41.55, 21.450000000000003 41.714999999999996, 22.62 41.58 C 23.61 41.28, 23.88 41.220000000000006, 24.599999999999998 40.980000000000004 C 25.049999999999997 40.8, 24.945 40.935, 25.5 40.62 C 26.16 40.17, 26.28 40.17, 26.82 39.72 C 27.240000000000002 39.269999999999996, 27.210000000000004 39.405, 27.660000000000004 38.82 C 28.14 38.1, 28.305 37.995000000000005, 28.619999999999997 37.38 C 28.77 36.870000000000005, 28.8 36.99, 28.92 36.36 C 29.009999999999998 35.61, 29.009999999999998 35.595, 29.099999999999998 34.86 C 29.189999999999998 34.14, 29.235 34.215, 29.28 33.42 C 29.28 32.55, 29.28 32.55, 29.28 31.68 C 29.28 30.810000000000002, 29.295 30.75, 29.28 29.94 C 29.25 29.19, 29.235 29.220000000000002, 29.22 28.44 C 29.22 27.630000000000003, 29.294999999999998 27.720000000000002, 29.22 26.82 C 29.07 25.83, 29.115000000000002 25.949999999999996, 28.92 24.839999999999996 C 28.68 23.61, 28.665000000000003 23.415, 28.44 22.38 C 28.23 21.54, 28.2 21.660000000000004, 28.02 20.700000000000003 C 27.869999999999997 19.62, 27.884999999999998 19.740000000000002, 27.72 18.54 C 27.54 17.22, 27.57 17.04, 27.36 15.899999999999999 C 27.12 14.94, 27.12 14.850000000000001, 26.880000000000003 13.98 C 26.64 13.2, 26.64 13.304999999999998, 26.400000000000002 12.419999999999998 C 26.160000000000004 11.43, 26.295 11.729999999999999, 25.92 10.44 C 25.410000000000004 8.85, 25.290000000000003 8.459999999999999, 24.900000000000002 7.26 C 24.630000000000003 6.449999999999999, 24.63 6.33, 24.36 5.64 C 24.09 5.07, 23.955 4.785, 23.82 4.5 C 23.82 4.5, 23.82 4.5, 23.82 4.5 C 23.82 4.5, 23.82 4.5, 23.82 4.5 C 23.82 4.5, 23.82 4.5, 23.82 4.5 L 23.82 4.5" fill="none" stroke="black" stroke-width="5"></path></svg>