<svg width="48" height="48" viewBox="0 0 48 48" xmlns="http://www.w3.org/2000/svg"><path d="M 14.04 4.68 C 13.469999999999999 4.56, 13.665 4.5, 12.899999999999999 4.4399999999999995 C 11.94 4.4399999999999995, 11.775 4.199999999999999, 10.98 4.4399999999999995 C 10.350000000000001 4.92, 10.32 4.710000000000001, 9.72 5.4 C 9.15 6.3, 9.015 6.18, 8.58 7.199999999999999 C 8.280000000000001 8.34, 8.13 8.190000000000001, 7.98 9.48 C 7.98 10.92, 7.7700000000000005 10.98, 7.98 12.36 C 8.4 13.68, 8.235 14.115, 8.82 15 C 9.57 15.45, 9.540000000000001 15.629999999999999, 10.32 15.899999999999999 C 11.129999999999999 15.99, 11.1 16.035, 11.94 16.080000000000002 C 12.809999999999999 16.080000000000002, 12.78 16.185000000000002, 13.68 16.080000000000002 C 14.61 15.870000000000001, 14.73 15.915000000000001, 15.54 15.66 C 16.229999999999997 15.36, 16.244999999999997 15.329999999999998, 16.919999999999998 15.059999999999999 C 17.58 14.82, 17.715000000000003 14.790000000000001, 18.240000000000002 14.580000000000002 C 18.630000000000003 14.400000000000002, 18.66 14.295000000000002, 19.02 14.22 C 19.35 14.25, 19.395 14.19, 19.68 14.28 C 19.92 14.43, 19.935 14.370000000000001, 20.16 14.580000000000002 C 20.37 14.850000000000001, 20.400000000000002 14.820000000000002, 20.580000000000002 15.120000000000001 C 20.73 15.45, 20.759999999999998 15.39, 20.88 15.78 C 20.97 16.23, 21.015 16.185, 21.06 16.68 C 21.06 17.22, 21.06 17.115, 21.06 17.759999999999998 C 21.06 18.509999999999998, 21.06 18.689999999999998, 21.06 19.259999999999998 C 21.06 19.65, 21.06 19.65, 21.06 20.04 C 21.06 20.43, 21.06 20.55, 21.06 20.82 C 21.06 20.97, 21.029999999999998 20.970000000000002, 21.06 21.12 C 21.119999999999997 21.27, 21.134999999999998 21.299999999999997, 21.18 21.419999999999998 C 21.21 21.509999999999998, 21.180000000000003 21.54, 21.240000000000002 21.6 C 21.33 21.630000000000003, 21.299999999999997 21.645, 21.419999999999998 21.66 C 21.57 21.66, 21.645 21.66, 21.72 21.66 C 21.72 21.66, 21.689999999999998 21.66, 21.72 21.66 C 21.78 21.66, 21.509999999999998 21.66, 21.84 21.66 C 22.439999999999998 21.66, 22.425 21.705, 23.04 21.66 C 23.669999999999998 21.57, 23.669999999999998 21.615000000000002, 24.299999999999997 21.48 C 24.93 21.3, 24.974999999999998 21.21, 25.56 21.12 C 26.1 21.12, 26.175 21.12, 26.64 21.12 C 27.03 21.12, 27.120000000000005 21.12, 27.42 21.12 C 27.63 21.12, 27.614999999999995 21.105, 27.839999999999996 21.12 C 28.08 21.15, 28.11 21.075, 28.32 21.18 C 28.5 21.36, 28.53 21.33, 28.68 21.54 C 28.8 21.78, 28.8 21.78, 28.92 22.02 C 29.040000000000003 22.259999999999998, 29.040000000000003 22.11, 29.160000000000004 22.5 C 29.28 23.04, 29.340000000000003 23.19, 29.400000000000002 23.580000000000002 C 29.400000000000002 23.82, 29.400000000000002 23.595, 29.400000000000002 24.06 C 29.400000000000002 24.75, 29.400000000000002 24.84, 29.400000000000002 25.44 C 29.400000000000002 25.950000000000003, 29.595000000000002 25.695, 29.400000000000002 26.46 C 29.009999999999998 27.48, 28.964999999999996 27.645, 28.619999999999997 28.5 C 28.32 29.19, 28.439999999999998 29.040000000000003, 28.02 29.880000000000003 C 27.48 30.87, 27.525000000000002 30.795, 26.94 31.86 C 26.310000000000002 33, 26.145 33.24, 25.68 34.14 C 25.38 34.8, 25.439999999999998 34.725, 25.08 35.46 C 24.66 36.269999999999996, 24.495 36.54, 24.240000000000002 37.08 C 24.15 37.349999999999994, 24.105 37.485, 24.06 37.62 C 24.06 37.62, 24.06 37.62, 24.06 37.62 C 24.06 37.62, 24.06 37.62, 24.06 37.62 C 24.06 37.62, 24.06 37.62, 24.06 37.62 C 24.06 37.62, 24.165 37.379999999999995, 24.06 37.62 C 23.85 38.099999999999994, 23.835 38.144999999999996, 23.64 38.58 C 23.46 38.97, 23.400000000000002 39.12, 23.28 39.36 C 23.22 39.45, 23.19 39.495, 23.16 39.54 L 23.16 39.54" fill="none" stroke="black" stroke-width="5"></path><path d="M 13.02 16.44 C 12.629999999999999 16.44, 12.555 16.335, 12.24 16.44 C 12 16.65, 12.059999999999999 16.59, 11.76 16.86 C 11.4 17.189999999999998, 11.295000000000002 17.205, 11.040000000000001 17.52 C 10.89 17.82, 10.875 17.73, 10.74 18.12 C 10.620000000000001 18.6, 10.575 18.57, 10.5 19.080000000000002 C 10.469999999999999 19.62, 10.455 19.65, 10.44 20.16 C 10.44 20.64, 10.44 20.580000000000002, 10.44 21.12 C 10.44 21.72, 10.395 21.735, 10.44 22.32 C 10.530000000000001 22.89, 10.5 22.830000000000002, 10.620000000000001 23.46 C 10.77 24.15, 10.755 24.254999999999995, 10.92 24.839999999999996 C 11.1 25.319999999999997, 11.07 25.109999999999996, 11.28 25.799999999999997 C 11.52 26.699999999999996, 11.549999999999999 26.819999999999997, 11.76 27.599999999999998 C 11.940000000000001 28.259999999999998, 11.865000000000002 28.125, 12.120000000000001 28.92 C 12.45 29.85, 12.45 29.97, 12.78 30.78 C 13.11 31.470000000000002, 13.095 31.515000000000004, 13.440000000000001 32.160000000000004 C 13.8 32.760000000000005, 13.86 32.76, 14.16 33.36 C 14.4 33.96, 14.34 33.93, 14.64 34.56 C 15 35.22, 15.12 35.385000000000005, 15.36 35.88 C 15.48 36.21, 15.435000000000002 36.135, 15.600000000000001 36.54 C 15.81 37.019999999999996, 15.795 37.019999999999996, 16.02 37.5 C 16.259999999999998 37.980000000000004, 16.365000000000002 38.175, 16.5 38.46 C 16.53 38.55, 16.544999999999998 38.595, 16.56 38.64 L 16.56 38.64" fill="none" stroke="black" stroke-width="5"></path><path d="M 14.700000000000001 37.86 C 15.780000000000001 37.83, 15.24 37.875, 16.86 37.8 C 19.02 37.68, 19.515 37.575, 21.18 37.56 C 22.35 37.650000000000006, 22.365000000000002 37.56, 23.52 37.74 C 24.659999999999997 38.010000000000005, 25.034999999999997 38.055, 25.799999999999997 38.28 C 26.189999999999998 38.46, 26.22 38.49, 26.58 38.64 C 26.91 38.760000000000005, 27.045 38.80500000000001, 27.240000000000002 38.88 C 27.3 38.91, 27.33 38.925, 27.36 38.94 L 27.36 38.94" fill="none" stroke="black" stroke-width="5"></path><path d="M 13.620000000000001 37.44 C 13.8 37.44, 13.23 37.425, 13.98 37.44 C 15.3 37.47, 15.540000000000003 37.485, 16.62 37.5 C 17.46 37.5, 17.775 37.5, 18.299999999999997 37.5 L 18.72 37.5" fill="none" stroke="black" stroke-width="5"></path><path d="M 11.7 41.88 C 12.09 41.88, 11.46 41.88, 12.48 41.88 C 14.129999999999999 41.88, 14.37 41.88, 15.78 41.88 C 16.95 41.88, 16.785 41.85, 18.12 41.88 C 19.62 41.94, 19.59 41.895, 21.12 42 C 22.68 42.15, 22.875000000000004 42.135, 24.240000000000002 42.3 C 25.41 42.480000000000004, 25.634999999999998 42.480000000000004, 26.58 42.660000000000004 L 28.02 43.019999999999996" fill="none" stroke="black" stroke-width="5"></path></svg>