<svg width="48" height="48" viewBox="0 0 48 48" xmlns="http://www.w3.org/2000/svg"><path d="M 25.86 8.52 C 25.68 8.280000000000001, 25.965 8.280000000000001, 25.5 8.040000000000001 C 24.75 7.800000000000001, 24.975 7.7250000000000005, 24 7.5600000000000005 C 22.8 7.470000000000001, 22.71 7.425, 21.6 7.38 C 20.58 7.38, 20.49 7.29, 19.56 7.38 C 18.72 7.5600000000000005, 18.884999999999998 7.275, 17.88 7.74 C 16.71 8.49, 16.619999999999997 8.040000000000001, 15.54 9.24 C 14.549999999999999 10.89, 14.129999999999999 11.309999999999999, 13.559999999999999 12.54 C 13.41 13.35, 13.334999999999999 13.095, 13.26 14.16 C 13.26 15.479999999999999, 13.26 15.374999999999996, 13.26 16.799999999999997 C 13.26 18.33, 13.035 18.599999999999998, 13.26 19.86 C 13.71 20.85, 13.59 21.045, 14.16 21.84 C 14.85 22.439999999999998, 14.669999999999998 22.575, 15.54 23.04 C 16.59 23.37, 16.605 23.535000000000004, 17.64 23.700000000000003 C 18.66 23.700000000000003, 18.555 23.730000000000004, 19.68 23.700000000000003 C 20.91 23.64, 21.165 23.715000000000003, 22.14 23.580000000000002 C 22.86 23.37, 22.89 23.4, 23.580000000000002 23.16 C 24.240000000000002 22.89, 24.405 22.830000000000002, 24.900000000000002 22.62 C 25.23 22.47, 25.305 22.425, 25.56 22.32 C 25.740000000000002 22.26, 25.830000000000002 22.230000000000004, 25.92 22.200000000000003 C 25.92 22.200000000000003, 25.92 22.200000000000003, 25.92 22.200000000000003 L 25.92 22.200000000000003" fill="none" stroke="black" stroke-width="5"></path><path d="M 17.34 28.259999999999998 C 16.83 28.799999999999997, 16.38 28.409999999999997, 16.32 29.339999999999996 C 16.71 30.659999999999997, 16.125 31.125, 17.1 31.98 C 18.66 32.37, 18.855 33.225, 20.22 32.76 C 21.39 31.439999999999998, 22.185 31.364999999999995, 22.56 30.119999999999997 C 22.14 28.95, 22.41 28.47, 21.72 27.78 C 20.759999999999998 27.57, 20.58 27.119999999999997, 19.799999999999997 27.36 C 19.2 28.05, 19.035 27.69, 18.6 28.740000000000002 C 18.33 30.15, 17.985 30.705, 18.06 31.56 C 18.479999999999997 31.86, 18.36 32.400000000000006, 18.9 32.160000000000004 C 19.56 31.380000000000003, 19.935 31.275, 20.22 30.599999999999998 C 20.13 30.03, 20.64 29.85, 20.04 29.46 C 18.93 29.25, 18.509999999999998 28.77, 17.82 29.04 C 17.55 29.79, 17.175 29.955, 17.28 30.54 C 17.76 30.96, 17.520000000000003 31.560000000000002, 18.240000000000002 31.380000000000003 L 20.16 29.82" fill="none" stroke="black" stroke-width="5"></path><path d="M 12 39.12 C 13.41 39.12, 11.955 39.105, 14.82 39.12 C 19.14 39.15, 20.385 39.165, 23.46 39.18 C 25.29 39.18, 26.205 39.18, 27.119999999999997 39.18 L 27.119999999999997 39.18" fill="none" stroke="black" stroke-width="5"></path></svg>