<svg width="48" height="48" viewBox="0 0 48 48" xmlns="http://www.w3.org/2000/svg"><path d="M 16.200000000000003 7.38 C 15.660000000000002 7.26, 15.825000000000003 7.199999999999999, 15.120000000000001 7.14 C 14.25 7.14, 14.16 7.095, 13.379999999999999 7.14 C 12.69 7.23, 12.675 7.0200000000000005, 12 7.32 C 11.34 7.83, 11.295 7.77, 10.68 8.34 C 10.11 8.97, 10.035 8.73, 9.540000000000001 9.600000000000001 C 9.120000000000001 10.71, 9 10.59, 8.7 11.82 C 8.52 13.17, 8.43 13.44, 8.34 14.52 C 8.34 15.33, 8.085 15.405000000000001, 8.34 16.14 C 8.85 16.8, 8.864999999999998 17.085, 9.36 17.46 C 9.84 17.55, 9.75 17.595, 10.32 17.64 C 10.98 17.64, 11.115000000000002 17.64, 11.64 17.64 C 12.03 17.64, 11.939999999999998 17.82, 12.419999999999998 17.64 C 12.989999999999998 17.28, 12.839999999999998 17.265, 13.559999999999999 16.919999999999998 C 14.43 16.589999999999996, 14.504999999999999 16.47, 15.299999999999999 16.259999999999998 C 16.02 16.17, 16.23 16.125, 16.740000000000002 16.080000000000002 C 17.04 16.080000000000002, 17.04 15.810000000000002, 17.34 16.080000000000002 C 17.64 16.62, 17.715 16.44, 17.94 17.16 C 18.090000000000003 18.060000000000002, 18.165000000000003 17.985, 18.240000000000002 18.96 C 18.240000000000002 20.009999999999998, 18.240000000000002 20.384999999999998, 18.240000000000002 21.06 C 18.240000000000002 21.36, 18.240000000000002 21.39, 18.240000000000002 21.66 C 18.240000000000002 21.9, 18.240000000000002 22.02, 18.240000000000002 22.14 C 18.240000000000002 22.14, 18.165000000000003 22.35, 18.240000000000002 22.14 C 18.39 21.72, 18.345 21.854999999999997, 18.54 21.299999999999997 C 18.78 20.61, 18.75 20.61, 19.02 19.919999999999998 C 19.32 19.229999999999997, 19.26 19.275, 19.62 18.54 C 20.04 17.759999999999998, 20.01 17.490000000000002, 20.46 16.98 C 20.939999999999998 16.740000000000002, 20.505 16.77, 21.419999999999998 16.5 C 22.769999999999996 16.2, 23.144999999999996 16.049999999999997, 24.119999999999997 15.899999999999999 C 24.72 15.899999999999999, 24.57 15.839999999999998, 25.32 15.899999999999999 C 26.22 16.02, 26.339999999999996 15.885000000000002, 27.119999999999997 16.14 C 27.78 16.53, 27.705000000000002 16.365, 28.44 16.919999999999998 C 29.25 17.64, 29.46 17.654999999999998, 30.06 18.36 C 30.449999999999996 19.05, 30.434999999999995 18.855000000000004, 30.839999999999996 19.740000000000002 C 31.259999999999998 20.82, 31.424999999999997 20.564999999999998, 31.68 21.9 C 31.77 23.49, 31.814999999999998 23.534999999999997, 31.86 25.08 C 31.86 26.58, 31.86 26.79, 31.86 28.08 C 31.86 29.16, 31.86 29.025000000000002, 31.86 30.240000000000002 C 31.86 31.59, 31.86 31.769999999999996, 31.86 32.94 C 31.86 33.93, 31.86 34.065, 31.86 34.92 C 31.86 35.64, 31.935 35.58, 31.86 36.36 C 31.71 37.2, 31.695 37.335, 31.56 38.04 C 31.439999999999998 38.61, 31.38 38.865, 31.32 39.18 C 31.32 39.239999999999995, 31.365000000000002 38.955, 31.32 39.3 C 31.23 39.93, 31.185000000000002 39.96, 31.14 40.56 C 31.14 41.13, 31.14 41.370000000000005, 31.14 41.7 C 31.14 41.790000000000006, 31.14 41.835, 31.14 41.88 L 31.14 41.88" fill="none" stroke="black" stroke-width="5"></path><path d="M 12.899999999999999 17.16 C 12.69 17.490000000000002, 12.825 17.295, 12.48 17.82 C 12 18.54, 11.955 18.464999999999996, 11.52 19.259999999999998 C 11.129999999999999 20.13, 11.175 19.98, 10.74 21 C 10.26 22.17, 10.215 22.23, 9.78 23.34 C 9.39 24.39, 9.33 24.225, 9 25.44 C 8.73 26.82, 8.7 26.520000000000003, 8.459999999999999 28.200000000000003 C 8.25 30.180000000000003, 8.145 30.480000000000004, 8.040000000000001 32.160000000000004 C 8.040000000000001 33.540000000000006, 8.040000000000001 33.825, 8.040000000000001 34.92 C 8.040000000000001 35.730000000000004, 8.010000000000002 35.835, 8.040000000000001 36.54 C 8.100000000000001 37.14, 8.100000000000001 37.095, 8.16 37.74 C 8.219999999999999 38.43, 8.25 38.535, 8.28 39.12 C 8.28 39.599999999999994, 8.264999999999999 39.765, 8.28 40.08 C 8.309999999999999 40.230000000000004, 8.325 40.305, 8.34 40.38 C 8.34 40.38, 8.34 40.38, 8.34 40.38 L 8.34 40.38" fill="none" stroke="black" stroke-width="5"></path><path d="M 20.04 25.44 C 19.5 25.44, 19.68 25.23, 18.96 25.44 C 18.060000000000002 25.86, 17.85 25.650000000000002, 17.16 26.28 C 16.68 27.12, 16.620000000000005 26.94, 16.200000000000003 27.96 C 15.840000000000002 29.16, 15.66 29.055, 15.48 30.36 C 15.48 31.77, 15.255 31.935000000000002, 15.48 33.18 C 15.93 34.26, 15.764999999999999 34.455, 16.38 35.339999999999996 C 17.16 36.03, 16.98 36.36, 17.94 36.72 C 19.08 36.75, 18.855 36.81, 20.22 36.78 C 21.81 36.69, 22.14 36.86999999999999, 23.4 36.599999999999994 C 24.33 36.15, 24.599999999999998 36.21, 25.259999999999998 35.7 C 25.65 35.13, 25.845 35.010000000000005, 26.04 34.56 C 26.04 34.230000000000004, 26.055 34.53000000000001, 26.04 33.900000000000006 C 26.009999999999998 32.97, 26.07 32.79, 25.98 32.04 C 25.83 31.47, 25.905 31.470000000000002, 25.68 30.900000000000002 C 25.38 30.33, 25.349999999999998 30.21, 25.08 29.759999999999998 C 24.839999999999996 29.43, 24.869999999999997 29.415, 24.599999999999998 29.099999999999998 C 24.299999999999997 28.799999999999997, 24.42 28.86, 24 28.5 C 23.46 28.080000000000002, 23.564999999999998 28.110000000000003, 22.919999999999998 27.660000000000004 C 22.169999999999998 27.180000000000003, 22.004999999999995 27.030000000000005, 21.419999999999998 26.700000000000003 C 21 26.52, 20.955000000000002 26.534999999999997, 20.580000000000002 26.339999999999996 C 20.25 26.13, 20.159999999999997 26.055, 19.919999999999998 25.92 C 19.77 25.86, 19.815 25.83, 19.62 25.799999999999997 C 19.380000000000003 25.799999999999997, 19.380000000000003 25.739999999999995, 19.14 25.799999999999997 L 18.66 26.04" fill="none" stroke="black" stroke-width="5"></path><path d="M 16.38 32.64 C 16.619999999999997 32.64, 16.485 32.64, 16.86 32.64 C 17.369999999999997 32.64, 16.515 32.76, 17.88 32.64 C 20.1 32.400000000000006, 20.355 32.31, 22.32 32.160000000000004 C 24.03 32.1, 24.645000000000003 32.07, 25.740000000000002 32.04 C 26.220000000000002 32.04, 26.46 32.04, 26.700000000000003 32.04 C 26.700000000000003 32.04, 26.700000000000003 32.04, 26.700000000000003 32.04 L 26.700000000000003 32.04" fill="none" stroke="black" stroke-width="5"></path></svg>