<svg width="48" height="48" viewBox="0 0 48 48" xmlns="http://www.w3.org/2000/svg"><path d="M 18.419999999999998 5.76 C 17.97 5.76, 18.15 5.76, 17.52 5.76 C 16.71 5.76, 16.619999999999997 5.7299999999999995, 15.899999999999999 5.76 C 15.27 5.82, 15.15 5.744999999999999, 14.64 5.88 C 14.25 6.09, 14.265 6.030000000000001, 13.86 6.300000000000001 C 13.44 6.63, 13.454999999999998 6.539999999999999, 13.02 6.959999999999999 C 12.57 7.47, 12.48 7.395, 12.120000000000001 7.98 C 11.850000000000001 8.64, 11.82 8.52, 11.58 9.3 C 11.370000000000001 10.200000000000001, 11.295 10.305000000000001, 11.16 11.100000000000001 C 11.100000000000001 11.790000000000001, 10.98 11.97, 11.040000000000001 12.48 C 11.219999999999999 12.81, 11.055 12.765, 11.399999999999999 13.14 C 11.909999999999998 13.56, 11.954999999999998 13.695, 12.419999999999998 13.98 C 12.84 14.129999999999999, 12.855 14.114999999999998, 13.26 14.28 C 13.649999999999999 14.46, 13.635 14.445, 14.04 14.64 C 14.459999999999999 14.85, 14.43 14.924999999999999, 14.879999999999999 15.059999999999999 C 15.36 15.12, 15.33 15.105, 15.84 15.18 C 16.38 15.27, 16.349999999999998 15.315, 16.919999999999998 15.36 C 17.52 15.36, 17.46 15.36, 18.12 15.36 C 18.84 15.36, 18.735 15.36, 19.56 15.36 C 20.49 15.36, 20.639999999999997 15.36, 21.419999999999998 15.36 C 22.049999999999997 15.36, 22.02 15.36, 22.68 15.36 C 23.369999999999997 15.36, 23.474999999999998 15.27, 24.06 15.36 C 24.54 15.54, 24.39 15.51, 25.02 15.72 C 25.799999999999997 15.96, 25.994999999999997 15.960000000000003, 26.58 16.200000000000003 C 26.97 16.44, 26.939999999999998 16.335, 27.36 16.68 C 27.81 17.130000000000003, 27.915 17.160000000000004, 28.259999999999998 17.580000000000002 C 28.5 17.97, 28.470000000000002 17.835, 28.740000000000002 18.36 C 29.04 19.02, 29.069999999999997 19.005, 29.339999999999996 19.68 C 29.58 20.369999999999997, 29.61 20.145, 29.82 21.06 C 30 22.2, 30 22.259999999999998, 30.18 23.34 C 30.36 24.36, 30.45 24.630000000000003, 30.54 25.380000000000003 C 30.54 25.86, 30.54 25.619999999999997, 30.54 26.339999999999996 C 30.54 27.299999999999997, 30.615 27.104999999999997, 30.54 28.259999999999998 C 30.39 29.61, 30.435000000000002 29.61, 30.240000000000002 30.96 C 30 32.31, 29.924999999999997 32.580000000000005, 29.759999999999998 33.660000000000004 C 29.669999999999998 34.47, 29.699999999999996 34.455, 29.58 35.28 C 29.43 36.120000000000005, 29.535 36.015, 29.28 36.96 C 28.92 38.010000000000005, 28.86 38.07, 28.56 39.06 C 28.32 39.99, 28.334999999999997 40.08, 28.08 40.92 C 27.81 41.67, 27.689999999999998 42, 27.54 42.42 C 27.509999999999998 42.51, 27.495 42.55499999999999, 27.48 42.599999999999994 C 27.48 42.599999999999994, 27.48 42.599999999999994, 27.48 42.599999999999994 L 27.48 42.599999999999994" fill="none" stroke="black" stroke-width="5"></path><path d="M 16.200000000000003 15.419999999999998 C 16.020000000000003 15.45, 16.11 15.21, 15.84 15.48 C 15.48 15.99, 15.525 15.795000000000002, 15.120000000000001 16.5 C 14.670000000000002 17.4, 14.625 17.549999999999997, 14.22 18.299999999999997 C 13.86 18.9, 13.83 18.825, 13.5 19.5 C 13.2 20.25, 13.124999999999998 20.1, 12.899999999999999 21 C 12.75 22.05, 12.675 22.005000000000003, 12.600000000000001 23.1 C 12.600000000000001 24.240000000000002, 12.645000000000003 24.240000000000002, 12.600000000000001 25.380000000000003 C 12.51 26.520000000000003, 12.465 26.310000000000002, 12.419999999999998 27.660000000000004 C 12.419999999999998 29.220000000000002, 12.419999999999998 29.265, 12.419999999999998 30.78 C 12.419999999999998 32.25, 12.374999999999996 32.535, 12.419999999999998 33.72 C 12.51 34.62, 12.465 34.709999999999994, 12.600000000000001 35.519999999999996 C 12.780000000000001 36.239999999999995, 12.795000000000002 36.39, 12.96 36.96 C 13.11 37.379999999999995, 13.08 37.394999999999996, 13.26 37.8 C 13.469999999999999 38.19, 13.469999999999999 38.175, 13.68 38.58 C 13.89 39, 13.920000000000002 38.925, 14.100000000000001 39.42 C 14.25 39.99, 14.279999999999998 40.155, 14.399999999999999 40.56 C 14.49 40.8, 14.475000000000001 40.725, 14.580000000000002 41.04 C 14.700000000000001 41.43, 14.715 41.55, 14.82 41.82 C 14.91 41.97, 14.955 42.045, 15 42.12 C 15 42.12, 15 42.12, 15 42.12 C 15 42.12, 15 42.12, 15 42.12 L 15 42.12" fill="none" stroke="black" stroke-width="5"></path><path d="M 11.76 42.72 C 11.91 42.72, 11.684999999999999 42.72, 12.059999999999999 42.72 C 12.66 42.72, 12.6 42.705, 13.26 42.72 C 13.98 42.75, 13.56 42.765, 14.700000000000001 42.78 C 16.26 42.78, 16.47 42.78, 17.82 42.78 C 18.96 42.78, 19.095000000000002 42.735, 20.1 42.78 C 20.97 42.870000000000005, 20.925 42.870000000000005, 21.84 42.96 C 22.799999999999997 43.05, 22.935 43.065, 23.759999999999998 43.14 C 24.45 43.2, 24.435000000000002 43.23, 25.14 43.26 C 25.86 43.26, 25.814999999999998 43.184999999999995, 26.58 43.26 C 27.39 43.41, 27.570000000000004 43.47, 28.200000000000003 43.56 C 28.65 43.59, 28.755 43.605, 29.099999999999998 43.62 C 29.339999999999996 43.62, 29.459999999999997 43.62, 29.58 43.62 C 29.58 43.62, 29.58 43.62, 29.58 43.62 L 29.58 43.62" fill="none" stroke="black" stroke-width="5"></path></svg>