<svg width="48" height="48" viewBox="0 0 48 48" xmlns="http://www.w3.org/2000/svg"><path d="M 16.5 4.68 C 16.38 4.68, 16.544999999999998 4.68, 16.259999999999998 4.68 C 15.809999999999999 4.68, 15.825 4.68, 15.36 4.68 C 14.879999999999999 4.68, 14.924999999999999 4.574999999999999, 14.399999999999999 4.68 C 13.829999999999998 4.89, 13.785 4.845, 13.26 5.1 C 12.78 5.3999999999999995, 12.809999999999999 5.264999999999999, 12.299999999999999 5.699999999999999 C 11.76 6.27, 11.625 6.27, 11.22 6.84 C 10.95 7.41, 10.875 7.425000000000001, 10.68 7.98 C 10.559999999999999 8.52, 10.454999999999998 8.595, 10.44 9.06 C 10.530000000000001 9.45, 10.290000000000001 9.48, 10.620000000000001 9.84 C 11.190000000000001 10.17, 11.145 10.184999999999999, 11.76 10.5 C 12.420000000000002 10.8, 12.630000000000003 10.920000000000002, 13.080000000000002 11.100000000000001 C 13.32 11.16, 13.079999999999998 11.100000000000001, 13.559999999999999 11.22 C 14.28 11.4, 14.34 11.49, 15 11.58 C 15.600000000000001 11.58, 15.225000000000003 11.58, 16.200000000000003 11.58 C 17.55 11.58, 17.49 11.595, 18.9 11.58 C 20.369999999999997 11.55, 20.415 11.58, 21.84 11.52 C 23.22 11.43, 23.4 11.385, 24.599999999999998 11.34 C 25.619999999999997 11.34, 25.53 11.34, 26.64 11.34 C 27.84 11.34, 28.08 11.34, 29.04 11.34 C 29.759999999999998 11.34, 29.7 11.28, 30.48 11.34 C 31.32 11.46, 31.530000000000005 11.43, 32.160000000000004 11.58 C 32.58 11.76, 32.745000000000005 11.82, 33 11.94 C 33.09 12, 33.105000000000004 11.985, 33.18 12.059999999999999 C 33.239999999999995 12.149999999999999, 33.239999999999995 12, 33.3 12.24 C 33.36 12.629999999999999, 33.405 12.495, 33.42 13.02 C 33.39 13.68, 33.42 13.65, 33.36 14.34 C 33.269999999999996 15.059999999999999, 33.254999999999995 15.225, 33.18 15.78 C 33.120000000000005 16.169999999999998, 33.135000000000005 16.049999999999997, 33.06 16.56 C 32.97 17.189999999999998, 32.925000000000004 17.385, 32.88 17.82 C 32.88 18.06, 32.88 18.18, 32.88 18.299999999999997 L 32.88 18.299999999999997" fill="none" stroke="black" stroke-width="5"></path><path d="M 15.96 10.92 C 15.72 10.86, 15.84 10.74, 15.48 10.8 C 15 10.98, 14.969999999999999 10.815000000000001, 14.52 11.16 C 14.1 11.67, 14.04 11.295, 13.68 12.18 C 13.38 13.440000000000001, 13.23 13.545000000000002, 13.080000000000002 14.700000000000001 C 13.080000000000002 15.75, 13.080000000000002 16.034999999999997, 13.080000000000002 16.799999999999997 L 13.080000000000002 17.759999999999998" fill="none" stroke="black" stroke-width="5"></path><path d="M 20.88 11.16 C 20.88 11.82, 20.88 10.935, 20.88 12.48 C 20.88 14.91, 20.955 14.190000000000001, 20.88 17.34 C 20.73 21.21, 20.775000000000002 21.494999999999997, 20.580000000000002 25.08 C 20.340000000000003 28.38, 20.265 29.085, 20.1 31.68 C 20.009999999999998 33.57, 20.025 33.375, 19.919999999999998 35.46 C 19.799999999999997 37.739999999999995, 19.785 38.339999999999996, 19.68 40.019999999999996 C 19.59 41.099999999999994, 19.545 41.565, 19.5 42.18 C 19.5 42.33, 19.5 42.405, 19.5 42.480000000000004 L 19.5 42.480000000000004" fill="none" stroke="black" stroke-width="5"></path><path d="M 26.700000000000003 11.52 C 26.82 13.23, 26.82 12.27, 26.94 14.940000000000001 C 27.060000000000002 18.57, 27 18.96, 27.18 22.200000000000003 C 27.42 25.050000000000004, 27.540000000000003 25.335, 27.660000000000004 27.900000000000002 C 27.660000000000004 30.18, 27.675000000000004 30.360000000000003, 27.660000000000004 32.46 C 27.630000000000003 34.379999999999995, 27.659999999999997 34.574999999999996, 27.599999999999998 36.3 C 27.509999999999998 37.83, 27.465 38.235, 27.42 39.36 C 27.42 40.08, 27.42 40.28999999999999, 27.42 40.8 C 27.42 41.1, 27.42 41.10000000000001, 27.42 41.400000000000006 C 27.42 41.7, 27.42 41.85, 27.42 42 L 27.42 42" fill="none" stroke="black" stroke-width="5"></path></svg>