<svg width="48" height="48" viewBox="0 0 48 48" xmlns="http://www.w3.org/2000/svg"><path d="M 20.580000000000002 4.92 C 19.439999999999998 4.86, 19.634999999999998 4.83, 18.299999999999997 4.800000000000001 C 16.77 4.800000000000001, 16.485 4.500000000000001, 15.24 4.800000000000001 C 14.280000000000001 5.4, 13.995000000000001 5.415, 13.32 6 C 12.93 6.57, 12.78 6.449999999999999, 12.54 7.14 C 12.45 7.949999999999999, 12.329999999999998 7.995, 12.36 8.76 C 12.51 9.48, 12.36 9.54, 12.66 10.2 C 13.11 10.799999999999999, 13.169999999999998 10.979999999999999, 13.559999999999999 11.399999999999999 C 13.89 11.639999999999999, 13.68 11.594999999999999, 14.22 11.879999999999999 C 14.97 12.209999999999999, 14.805000000000001 12.27, 15.72 12.54 C 16.8 12.75, 16.755 12.855, 17.88 12.96 C 19.049999999999997 12.96, 19.064999999999998 12.975000000000001, 20.22 12.96 C 21.36 12.93, 21.33 13.065, 22.5 12.899999999999999 C 23.700000000000003 12.599999999999998, 23.685000000000002 12.629999999999999, 24.900000000000002 12.299999999999999 C 26.130000000000003 11.94, 25.935000000000002 11.895, 27.36 11.58 C 28.979999999999997 11.31, 29.339999999999996 11.235000000000001, 30.599999999999998 11.040000000000001 C 31.5 10.920000000000002, 31.875000000000004 10.860000000000001, 32.400000000000006 10.8 C 32.550000000000004 10.8, 32.625 10.8, 32.7 10.8 L 32.7 10.8" fill="none" stroke="black" stroke-width="5"></path><path d="M 16.56 12.54 C 16.229999999999997 12.69, 16.275 12.645, 15.899999999999999 12.84 C 15.479999999999999 13.08, 15.374999999999998 12.99, 15.059999999999999 13.32 C 14.85 13.74, 14.805 13.754999999999999, 14.64 14.16 C 14.52 14.55, 14.474999999999998 14.43, 14.399999999999999 14.940000000000001 C 14.37 15.570000000000002, 14.385 15.510000000000002, 14.34 16.200000000000003 C 14.280000000000001 16.950000000000003, 14.25 17.025000000000006, 14.22 17.700000000000003 C 14.22 18.3, 14.22 18.285, 14.22 18.9 C 14.22 19.53, 14.22 19.53, 14.22 20.16 C 14.22 20.79, 14.115 20.7, 14.22 21.419999999999998 C 14.43 22.229999999999997, 14.46 22.334999999999997, 14.64 23.04 C 14.790000000000001 23.64, 14.715000000000002 23.520000000000003, 14.940000000000001 24.240000000000002 C 15.24 25.080000000000002, 15.27 25.185000000000002, 15.54 25.92 C 15.78 26.55, 15.735 26.52, 16.02 27.18 C 16.35 27.869999999999997, 16.41 28.005, 16.68 28.56 C 16.89 28.98, 16.950000000000003 29.1, 17.1 29.400000000000002 C 17.19 29.58, 17.235 29.669999999999998, 17.28 29.759999999999998 L 17.28 29.759999999999998" fill="none" stroke="black" stroke-width="5"></path><path d="M 23.28 12.600000000000001 C 23.34 13.08, 23.384999999999998 12.659999999999998, 23.4 13.559999999999999 C 23.369999999999997 14.88, 23.355 14.970000000000002, 23.34 16.200000000000003 C 23.34 17.340000000000003, 23.384999999999998 17.175, 23.34 18.48 C 23.25 19.95, 23.205 20.25, 23.16 21.419999999999998 C 23.16 22.29, 23.16 22.11, 23.16 23.16 C 23.16 24.39, 23.16 24.179999999999996, 23.16 25.619999999999997 C 23.16 27.27, 23.16 27.375, 23.16 28.92 C 23.16 30.36, 23.1 30.269999999999996, 23.16 31.799999999999997 C 23.28 33.42, 23.294999999999998 33.87, 23.4 35.04 C 23.490000000000002 35.760000000000005, 23.43 35.175000000000004, 23.580000000000002 36.480000000000004 C 23.79 38.370000000000005, 23.835 38.685, 24 40.26 C 24.12 41.519999999999996, 24.105000000000004 41.565, 24.240000000000002 42.78 C 24.39 43.95, 24.465 44.474999999999994, 24.54 45.12 C 24.54 45.239999999999995, 24.54 45.3, 24.54 45.36 C 24.54 45.36, 24.54 45.36, 24.54 45.36 C 24.54 45.36, 24.54 45.36, 24.54 45.36 L 24.54 45.36" fill="none" stroke="black" stroke-width="5"></path></svg>