<svg width="48" height="48" viewBox="0 0 48 48" xmlns="http://www.w3.org/2000/svg"><path d="M 16.259999999999998 4.08 C 15.839999999999998 3.75, 15.944999999999997 3.585, 15.419999999999998 3.42 C 14.79 3.42, 14.73 3.465, 14.16 3.42 C 13.65 3.33, 13.77 3.1950000000000003, 13.14 3.24 C 12.39 3.42, 12.405000000000001 3.09, 11.64 3.5999999999999996 C 10.86 4.4399999999999995, 10.755 4.35, 10.08 5.28 C 9.51 6.300000000000001, 9.36 6.465000000000001, 8.94 7.32 C 8.669999999999998 8.01, 8.579999999999998 7.56, 8.399999999999999 8.7 C 8.309999999999999 10.29, 8.16 10.395, 8.22 11.879999999999999 C 8.43 13.26, 8.370000000000001 13.845, 8.64 14.64 C 8.97 14.85, 9.015 14.924999999999999, 9.3 15.059999999999999 C 9.54 15.12, 9.434999999999999 15.149999999999999, 9.78 15.18 C 10.23 15.18, 10.17 15.195, 10.68 15.18 C 11.25 15.15, 11.175 15.24, 11.82 15.120000000000001 C 12.54 14.91, 12.75 14.865000000000002, 13.26 14.700000000000001 C 13.559999999999999 14.580000000000002, 13.41 14.685000000000002, 13.86 14.46 C 14.459999999999999 14.129999999999999, 14.564999999999998 14.07, 15.059999999999999 13.799999999999999 C 15.45 13.59, 15.45 13.529999999999998, 15.84 13.379999999999999 C 16.23 13.29, 16.305 13.245000000000001, 16.62 13.200000000000001 C 16.86 13.200000000000001, 16.8 13.065000000000001, 17.1 13.200000000000001 C 17.46 13.47, 17.445 13.275, 17.82 13.74 C 18.21 14.399999999999999, 18.3 14.384999999999998, 18.6 15.059999999999999 C 18.810000000000002 15.75, 18.84 15.75, 19.02 16.44 C 19.17 17.130000000000003, 19.11 16.995, 19.32 17.82 C 19.59 18.78, 19.485 18.885, 19.86 19.740000000000002 C 20.34 20.490000000000002, 20.535 20.820000000000004, 20.82 21.240000000000002 C 20.91 21.33, 20.835 21.314999999999998, 21 21.419999999999998 C 21.240000000000002 21.54, 20.955 21.63, 21.48 21.66 C 22.29 21.6, 22.125 21.84, 23.1 21.54 C 24.240000000000002 21, 24.480000000000004 20.835, 25.380000000000003 20.46 C 26.040000000000003 20.25, 25.995000000000005 20.28, 26.700000000000003 20.04 C 27.450000000000003 19.77, 27.630000000000003 19.634999999999998, 28.200000000000003 19.5 C 28.590000000000003 19.5, 28.575000000000003 19.365000000000002, 28.98 19.5 C 29.4 19.77, 29.415 19.74, 29.82 20.04 C 30.21 20.37, 30.24 20.325000000000003, 30.599999999999998 20.700000000000003 C 30.93 21.12, 30.974999999999998 21.075, 31.259999999999998 21.54 C 31.5 22.049999999999997, 31.53 21.93, 31.740000000000002 22.56 C 31.919999999999998 23.31, 32.01 23.369999999999997, 32.099999999999994 24.06 C 32.099999999999994 24.689999999999998, 32.099999999999994 25.005, 32.099999999999994 25.32 C 32.099999999999994 25.32, 32.114999999999995 25.275, 32.099999999999994 25.32 L 32.04 25.5" fill="none" stroke="black" stroke-width="5"></path><path d="M 11.94 15 C 11.46 15.24, 11.55 15.045, 10.98 15.48 C 10.32 16.11, 10.125 16.125, 9.66 16.740000000000002 C 9.39 17.340000000000003, 9.375 16.935000000000002, 9.120000000000001 17.94 C 8.88 19.35, 8.760000000000002 19.349999999999998, 8.64 20.759999999999998 C 8.64 22.17, 8.595 22.380000000000003, 8.64 23.580000000000002 C 8.73 24.57, 8.73 24.945, 8.82 25.56 C 8.91 25.799999999999997, 8.865 25.83, 9 26.04 L 9.36 26.400000000000002" fill="none" stroke="black" stroke-width="5"></path><path d="M 21.48 21.6 C 21.39 22.590000000000003, 21.404999999999998 22.5, 21.299999999999997 23.580000000000002 C 21.18 24.75, 21.299999999999997 24.630000000000003, 21.06 25.92 C 20.7 27.330000000000002, 20.775 27.300000000000004, 20.34 28.740000000000002 C 19.83 30.21, 19.875 30.36, 19.32 31.68 C 18.72 32.849999999999994, 18.885 32.76, 18.12 34.019999999999996 C 17.189999999999998 35.37, 16.965 35.745, 16.259999999999998 36.72 C 15.779999999999998 37.32, 15.989999999999998 37.11, 15.299999999999999 37.92 C 14.399999999999999 38.94, 14.594999999999999 39.015, 13.5 39.96 C 12.21 40.83, 12.105 40.965, 10.92 41.7 C 9.84 42.300000000000004, 9.555 42.465, 8.76 42.900000000000006 C 8.25 43.17, 7.995 43.305, 7.74 43.44 L 7.74 43.44" fill="none" stroke="black" stroke-width="5"></path><path d="M 15.84 37.5 C 17.369999999999997 37.5, 17.354999999999997 37.545, 18.9 37.5 C 20.46 37.41, 20.835 37.365, 22.02 37.32 C 22.83 37.32, 22.635 37.365, 23.64 37.32 C 24.84 37.230000000000004, 25.125 37.185, 26.04 37.14 C 26.669999999999998 37.14, 26.639999999999997 37.185, 27.299999999999997 37.14 C 27.99 37.05, 28.14 37.005, 28.68 36.96 C 29.07 36.96, 29.235 36.96, 29.46 36.96 C 29.52 36.96, 29.549999999999997 36.96, 29.58 36.96 L 29.58 36.96" fill="none" stroke="black" stroke-width="5"></path></svg>