<svg width="48" height="48" viewBox="0 0 48 48" xmlns="http://www.w3.org/2000/svg"><path d="M 19.14 19.740000000000002 C 18.96 19.5, 19.35 19.515, 18.78 19.259999999999998 C 17.82 18.99, 17.835 18.839999999999996, 16.86 18.72 C 15.87 18.75, 15.645 18.645000000000003, 14.879999999999999 18.78 C 14.34 19.02, 14.384999999999998 18.72, 13.799999999999999 19.259999999999998 C 13.169999999999998 20.1, 12.959999999999999 20.07, 12.54 20.94 C 12.33 21.840000000000003, 12.21 21.930000000000003, 12.120000000000001 22.740000000000002 C 12.15 23.46, 12.045 23.564999999999998, 12.18 24.18 C 12.42 24.69, 12.165 24.705000000000002, 12.66 25.200000000000003 C 13.41 25.680000000000003, 13.41 25.800000000000004, 14.16 26.160000000000004 C 14.91 26.400000000000002, 14.52 26.43, 15.66 26.64 C 17.189999999999998 26.82, 17.415 26.865000000000002, 18.72 27 C 19.799999999999997 27.09, 19.65 27.134999999999998, 20.88 27.18 C 22.259999999999998 27.18, 22.62 27.18, 23.64 27.18 C 24.3 27.18, 24.195 27.299999999999997, 24.96 27.18 C 25.830000000000002 26.94, 25.995000000000005 26.910000000000004, 26.700000000000003 26.700000000000003 C 27.240000000000002 26.52, 27.39 26.474999999999994, 27.78 26.339999999999996 C 28.02 26.25, 27.974999999999998 26.28, 28.259999999999998 26.160000000000004 C 28.59 26.01, 28.545 26.19, 28.92 25.86 C 29.34 25.349999999999998, 29.445 25.439999999999998, 29.759999999999998 24.839999999999996 C 29.97 24.15, 30.075 24.105, 30.18 23.46 C 30.18 22.86, 30.225 23.174999999999997, 30.18 22.259999999999998 C 30.09 21.029999999999998, 30.285 21.059999999999995, 30 19.799999999999997 C 29.52 18.509999999999998, 29.505 18.419999999999998, 29.04 17.22 C 28.59 16.11, 28.695 16.215, 28.14 15 C 27.48 13.68, 27.509999999999998 13.739999999999998, 26.82 12.36 C 26.1 10.92, 26.070000000000004 10.83, 25.380000000000003 9.48 C 24.72 8.219999999999999, 24.675 8.069999999999999, 24.06 6.959999999999999 C 23.49 6, 23.384999999999998 5.7749999999999995, 22.919999999999998 5.04 C 22.560000000000002 4.53, 22.455000000000002 4.44, 22.200000000000003 4.0200000000000005 C 22.05 3.6900000000000004, 21.975 3.5250000000000004, 21.9 3.3600000000000003 L 21.9 3.3600000000000003" fill="none" stroke="black" stroke-width="5"></path><path d="M 18.240000000000002 26.58 C 18.240000000000002 27.509999999999998, 18.225 27.330000000000002, 18.240000000000002 28.44 C 18.27 29.73, 18.284999999999997 29.61, 18.299999999999997 31.02 C 18.299999999999997 32.55, 18.299999999999997 32.669999999999995, 18.299999999999997 34.08 C 18.299999999999997 35.370000000000005, 18.299999999999997 35.475, 18.299999999999997 36.660000000000004 C 18.299999999999997 37.74, 18.299999999999997 37.74, 18.299999999999997 38.82 C 18.299999999999997 39.900000000000006, 18.314999999999998 40.050000000000004, 18.299999999999997 40.980000000000004 C 18.27 41.760000000000005, 18.255000000000003 41.685, 18.240000000000002 42.54 C 18.240000000000002 43.47, 18.285000000000004 43.605000000000004, 18.240000000000002 44.400000000000006 C 18.15 45.06, 18.105 45.285, 18.06 45.72 C 18.06 45.93, 18.06 46.035, 18.06 46.14 C 18.06 46.14, 18.075 46.095, 18.06 46.14 L 18 46.32" fill="none" stroke="black" stroke-width="5"></path><path d="M 24.42 26.759999999999998 C 24.57 26.82, 24.599999999999998 26.505000000000003, 24.72 26.880000000000003 C 24.810000000000002 27.57, 24.855 27.299999999999997, 24.900000000000002 28.259999999999998 C 24.900000000000002 29.49, 24.945000000000004 29.339999999999996, 24.900000000000002 30.72 C 24.810000000000002 32.25, 24.825 32.205, 24.72 33.78 C 24.6 35.4, 24.54 35.745, 24.48 37.019999999999996 C 24.48 37.95, 24.525000000000002 37.92, 24.48 38.88 C 24.39 39.870000000000005, 24.374999999999996 40.065, 24.299999999999997 40.86 C 24.24 41.46, 24.21 41.52, 24.18 42.06 C 24.18 42.54, 24.18 42.629999999999995, 24.18 43.019999999999996 C 24.18 43.31999999999999, 24.18 43.27499999999999, 24.18 43.62 C 24.18 44.010000000000005, 24.18 44.10000000000001, 24.18 44.400000000000006 C 24.18 44.61, 24.18 44.52, 24.18 44.82 C 24.18 45.209999999999994, 24.18 45.285, 24.18 45.599999999999994 C 24.18 45.839999999999996, 24.18 45.959999999999994, 24.18 46.08 C 24.18 46.08, 24.18 46.08, 24.18 46.08 L 24.18 46.08" fill="none" stroke="black" stroke-width="5"></path></svg>