<svg width="48" height="48" viewBox="0 0 48 48" xmlns="http://www.w3.org/2000/svg"><path d="M 18.66 6.8999999999999995 C 18.12 6.6899999999999995, 18.255000000000003 6.585, 17.580000000000002 6.48 C 16.770000000000003 6.48, 16.62 6.48, 15.96 6.48 C 15.450000000000001 6.48, 15.57 6.345000000000001, 14.940000000000001 6.48 C 14.190000000000001 6.75, 13.995000000000001 6.614999999999999, 13.440000000000001 7.02 C 13.080000000000002 7.5600000000000005, 13.065000000000001 7.395000000000001, 12.72 8.100000000000001 C 12.39 8.97, 12.27 9.06, 12.059999999999999 9.84 C 11.969999999999999 10.530000000000001, 11.924999999999999 10.440000000000001, 11.879999999999999 11.22 C 11.879999999999999 12.09, 11.79 12.180000000000001, 11.879999999999999 12.96 C 12.059999999999999 13.65, 11.91 13.875, 12.24 14.34 C 12.72 14.58, 12.645000000000001 14.565000000000001, 13.200000000000001 14.82 C 13.830000000000002 15.09, 13.815000000000001 15.12, 14.46 15.36 C 15.120000000000001 15.57, 15.225 15.645, 15.78 15.78 C 16.23 15.84, 16.05 15.87, 16.68 15.899999999999999 C 17.49 15.899999999999999, 17.309999999999995 16.005, 18.299999999999997 15.899999999999999 C 19.47 15.69, 19.56 15.63, 20.64 15.48 C 21.630000000000003 15.39, 21.54 15.45, 22.62 15.299999999999999 C 23.79 15.09, 23.85 15.059999999999999, 24.96 14.879999999999999 C 26.009999999999998 14.73, 26.22 14.655000000000001, 27.06 14.580000000000002 C 27.689999999999998 14.580000000000002, 27.705 14.550000000000002, 28.32 14.580000000000002 C 28.92 14.64, 28.98 14.55, 29.52 14.700000000000001 C 30 14.940000000000001, 30.075 14.91, 30.48 15.18 C 30.810000000000002 15.48, 30.765 15.375, 31.14 15.78 C 31.560000000000002 16.29, 31.635 16.259999999999998, 31.98 16.799999999999997 C 32.25 17.369999999999997, 32.309999999999995 17.295, 32.519999999999996 17.94 C 32.67 18.66, 32.685 18.675, 32.82 19.38 C 32.94 20.07, 33 19.889999999999997, 33.06 20.759999999999998 C 33.06 21.81, 33.06 21.915, 33.06 22.86 C 33.06 23.7, 33.135000000000005 23.549999999999997, 33.06 24.54 C 32.91 25.68, 32.985 25.560000000000002, 32.76 26.82 C 32.46 28.2, 32.44500000000001 28.395, 32.160000000000004 29.58 C 31.89 30.57, 31.919999999999998 30.584999999999997, 31.619999999999997 31.56 C 31.29 32.52, 31.29 32.550000000000004, 30.96 33.480000000000004 C 30.63 34.38, 30.689999999999998 34.230000000000004, 30.299999999999997 35.28 C 29.85 36.480000000000004, 29.79 36.705, 29.400000000000002 37.68 C 29.07 38.43, 29.1 38.34, 28.740000000000002 39.18 C 28.35 40.11, 28.32 40.185, 27.96 41.04 C 27.63 41.81999999999999, 27.614999999999995 41.894999999999996, 27.299999999999997 42.599999999999994 C 27 43.23, 26.910000000000004 43.379999999999995, 26.700000000000003 43.86 C 26.580000000000002 44.19, 26.520000000000003 44.355, 26.46 44.519999999999996 C 26.46 44.519999999999996, 26.46 44.519999999999996, 26.46 44.519999999999996 C 26.46 44.519999999999996, 26.46 44.519999999999996, 26.46 44.519999999999996 C 26.46 44.519999999999996, 26.46 44.519999999999996, 26.46 44.519999999999996 C 26.46 44.519999999999996, 26.46 44.519999999999996, 26.46 44.519999999999996 C 26.46 44.519999999999996, 26.46 44.519999999999996, 26.46 44.519999999999996 C 26.46 44.519999999999996, 26.46 44.519999999999996, 26.46 44.519999999999996 L 26.46 44.519999999999996" fill="none" stroke="black" stroke-width="5"></path><path d="M 22.259999999999998 22.919999999999998 C 21.659999999999997 22.919999999999998, 21.555 22.889999999999997, 21.06 22.919999999999998 C 20.67 22.979999999999997, 20.745 22.919999999999998, 20.28 23.04 C 19.740000000000002 23.22, 19.860000000000003 23.099999999999998, 19.200000000000003 23.4 C 18.42 23.82, 18.39 23.655, 17.64 24.240000000000002 C 16.92 24.990000000000002, 16.800000000000004 24.930000000000003, 16.200000000000003 25.740000000000002 C 15.720000000000002 26.61, 15.495000000000001 26.73, 15.24 27.48 C 15.21 28.11, 15.135 27.96, 15.18 28.740000000000002 C 15.299999999999999 29.67, 15.134999999999998 29.88, 15.419999999999998 30.599999999999998 C 15.87 31.11, 15.78 31.019999999999996, 16.32 31.619999999999997 C 16.950000000000003 32.31, 17.025000000000002 32.505, 17.580000000000002 33 C 18.060000000000002 33.3, 17.955 33.35999999999999, 18.54 33.599999999999994 C 19.229999999999997 33.78, 18.959999999999997 33.84, 19.919999999999998 33.96 C 21.15 34.019999999999996, 21.299999999999997 34.14, 22.38 34.08 C 23.310000000000002 33.9, 23.520000000000003 33.974999999999994, 24.240000000000002 33.72 C 24.75 33.39, 24.735 33.6, 25.259999999999998 33.06 C 25.799999999999997 32.31, 25.979999999999997 32.339999999999996, 26.339999999999996 31.56 C 26.52 30.75, 26.580000000000002 30.615000000000002, 26.700000000000003 29.94 C 26.76 29.4, 26.79 29.4, 26.82 28.86 C 26.82 28.32, 26.82 28.200000000000003, 26.82 27.78 C 26.82 27.48, 26.985 27.675, 26.82 27.18 C 26.490000000000002 26.49, 26.535000000000004 26.429999999999996, 26.160000000000004 25.799999999999997 C 25.740000000000002 25.23, 25.665 25.080000000000005, 25.32 24.660000000000004 C 25.05 24.39, 25.035000000000004 24.36, 24.78 24.119999999999997 C 24.54 23.91, 24.674999999999997 23.985000000000003, 24.299999999999997 23.700000000000003 C 23.79 23.340000000000003, 23.73 23.235, 23.28 22.98 C 22.89 22.83, 22.89 22.755, 22.5 22.68 C 22.11 22.68, 21.915 22.68, 21.72 22.68 L 21.72 22.68" fill="none" stroke="black" stroke-width="5"></path><path d="M 15.600000000000001 28.259999999999998 C 16.44 28.259999999999998, 16.14 28.259999999999998, 17.28 28.259999999999998 C 18.72 28.259999999999998, 18.93 28.259999999999998, 20.16 28.259999999999998 C 21.18 28.259999999999998, 21.210000000000004 28.259999999999998, 22.200000000000003 28.259999999999998 C 23.16 28.259999999999998, 23.339999999999996 28.259999999999998, 24.119999999999997 28.259999999999998 C 24.72 28.259999999999998, 24.795 28.244999999999997, 25.32 28.259999999999998 C 25.77 28.29, 25.875 28.29, 26.22 28.32 C 26.46 28.35, 26.580000000000002 28.365000000000002, 26.700000000000003 28.380000000000003 C 26.700000000000003 28.380000000000003, 26.700000000000003 28.380000000000003, 26.700000000000003 28.380000000000003 L 26.700000000000003 28.380000000000003" fill="none" stroke="black" stroke-width="5"></path></svg>