<svg width="48" height="48" viewBox="0 0 48 48" xmlns="http://www.w3.org/2000/svg"><path d="M 17.46 5.9399999999999995 C 16.98 5.9399999999999995, 16.98 5.85, 16.5 5.9399999999999995 C 16.02 6.12, 16.064999999999998 6.090000000000001, 15.54 6.300000000000001 C 14.969999999999999 6.54, 14.924999999999997 6.494999999999999, 14.399999999999999 6.779999999999999 C 13.92 7.109999999999999, 13.860000000000001 7.079999999999999, 13.440000000000001 7.4399999999999995 C 13.080000000000002 7.83, 13.035 7.74, 12.72 8.22 C 12.45 8.79, 12.39 8.715, 12.18 9.36 C 12.03 10.08, 11.94 10.125, 11.879999999999999 10.8 C 11.91 11.43, 11.85 11.459999999999999, 11.94 12.059999999999999 C 12.09 12.629999999999999, 12.030000000000001 12.675, 12.24 13.200000000000001 C 12.51 13.68, 12.479999999999999 13.77, 12.78 14.16 C 13.11 14.46, 13.065000000000001 14.475, 13.440000000000001 14.76 C 13.86 15.03, 13.92 15.135, 14.28 15.299999999999999 C 14.579999999999998 15.36, 14.444999999999999 15.299999999999997, 14.879999999999999 15.419999999999998 C 15.45 15.599999999999998, 15.465 15.69, 16.02 15.78 C 16.560000000000002 15.78, 16.35 15.78, 17.1 15.78 C 18.060000000000002 15.78, 18.165 15.78, 19.02 15.78 C 19.77 15.78, 19.724999999999998 15.825, 20.52 15.78 C 21.36 15.690000000000001, 21.465000000000003 15.735000000000001, 22.200000000000003 15.600000000000001 C 22.830000000000002 15.420000000000002, 22.725 15.450000000000001, 23.46 15.24 C 24.3 15, 24.495 14.924999999999999, 25.14 14.76 C 25.59 14.670000000000002, 25.439999999999998 14.745000000000001, 26.04 14.580000000000002 C 26.79 14.340000000000002, 26.805 14.325000000000003, 27.54 14.100000000000001 C 28.259999999999998 13.89, 28.35 13.815000000000001, 28.98 13.68 C 29.52 13.62, 29.625 13.619999999999997, 30.06 13.559999999999999 C 30.39 13.5, 30.404999999999998 13.515, 30.72 13.440000000000001 C 31.02 13.350000000000001, 31.095 13.305, 31.32 13.26 C 31.47 13.26, 31.47 13.26, 31.619999999999997 13.26 C 31.77 13.26, 31.800000000000004 13.26, 31.92 13.26 C 32.01 13.26, 32.05499999999999 13.26, 32.099999999999994 13.26 L 32.099999999999994 13.26" fill="none" stroke="black" stroke-width="5"></path><path d="M 17.82 15.899999999999999 C 17.52 15.899999999999999, 17.535 15.809999999999999, 17.22 15.899999999999999 C 16.89 16.08, 16.935 16.005, 16.56 16.259999999999998 C 16.14 16.589999999999996, 16.14 16.499999999999996, 15.72 16.919999999999998 C 15.3 17.43, 15.284999999999998 17.325000000000003, 14.879999999999999 17.94 C 14.49 18.66, 14.370000000000001 18.765, 14.100000000000001 19.38 C 13.95 19.89, 13.934999999999999 19.814999999999998, 13.799999999999999 20.4 C 13.68 21.06, 13.739999999999998 20.865, 13.559999999999999 21.72 C 13.32 22.77, 13.275000000000002 22.755, 13.080000000000002 23.82 C 12.93 24.9, 12.855 25.035, 12.78 25.98 C 12.78 26.79, 12.825 26.729999999999997, 12.78 27.599999999999998 C 12.690000000000001 28.53, 12.645000000000001 28.365000000000002, 12.600000000000001 29.46 C 12.600000000000001 30.72, 12.600000000000001 30.795, 12.600000000000001 31.98 C 12.600000000000001 33.09, 12.600000000000001 33.105000000000004, 12.600000000000001 34.2 C 12.600000000000001 35.28, 12.600000000000001 35.37, 12.600000000000001 36.36 C 12.600000000000001 37.260000000000005, 12.600000000000001 37.275000000000006, 12.600000000000001 38.160000000000004 C 12.600000000000001 39.03, 12.600000000000001 39.19500000000001, 12.600000000000001 39.900000000000006 C 12.600000000000001 40.440000000000005, 12.600000000000001 40.51500000000001, 12.600000000000001 40.980000000000004 C 12.600000000000001 41.370000000000005, 12.555000000000001 41.445, 12.600000000000001 41.76 C 12.690000000000001 42, 12.66 41.955, 12.78 42.24 C 12.93 42.57000000000001, 12.96 42.64500000000001, 13.080000000000002 42.900000000000006 C 13.170000000000002 43.08, 13.125 43.095, 13.26 43.26 C 13.440000000000001 43.41, 13.455000000000002 43.35, 13.620000000000001 43.56 C 13.77 43.83, 13.754999999999999 43.88999999999999, 13.919999999999998 44.099999999999994 C 14.099999999999998 44.25, 14.114999999999998 44.28, 14.28 44.400000000000006 C 14.43 44.49, 14.325000000000003 44.43, 14.580000000000002 44.58 C 14.940000000000001 44.79, 14.969999999999999 44.85, 15.299999999999999 45 C 15.599999999999998 45.09, 15.509999999999998 45.06, 15.899999999999999 45.18 C 16.38 45.33, 16.424999999999997 45.405, 16.86 45.480000000000004 C 17.25 45.480000000000004, 17.175 45.480000000000004, 17.64 45.480000000000004 C 18.18 45.480000000000004, 18.224999999999998 45.480000000000004, 18.72 45.480000000000004 C 19.17 45.480000000000004, 19.185000000000002 45.60000000000001, 19.62 45.480000000000004 C 20.04 45.24, 20.1 45.195, 20.46 45 C 20.759999999999998 44.85, 20.654999999999998 45.03, 21.06 44.7 C 21.57 44.19, 21.69 44.115, 22.080000000000002 43.68 C 22.35 43.32, 22.35 43.38, 22.62 42.96 C 22.89 42.480000000000004, 22.89 42.480000000000004, 23.16 42 C 23.43 41.519999999999996, 23.505000000000003 41.445, 23.700000000000003 41.04 C 23.82 40.71, 23.805 40.86, 23.94 40.38 C 24.090000000000003 39.75, 24.165000000000003 39.75, 24.240000000000002 39.12 C 24.240000000000002 38.489999999999995, 24.240000000000002 38.55, 24.240000000000002 37.86 C 24.240000000000002 37.11, 24.285000000000004 37.125, 24.240000000000002 36.36 C 24.15 35.58, 24.195 35.459999999999994, 24.06 34.8 C 23.880000000000003 34.26, 23.805000000000003 34.08, 23.700000000000003 33.72 C 23.67 33.54, 23.655 33.45, 23.64 33.36 C 23.64 33.36, 23.64 33.36, 23.64 33.36 L 23.64 33.36" fill="none" stroke="black" stroke-width="5"></path></svg>