<svg width="48" height="48" viewBox="0 0 48 48" xmlns="http://www.w3.org/2000/svg"><path d="M 23.94 5.46 C 23.85 5.22, 24.029999999999998 5.145, 23.759999999999998 4.9799999999999995 C 23.31 4.890000000000001, 23.52 4.83, 22.86 4.800000000000001 C 21.990000000000002 4.83, 21.945 4.74, 21.12 4.86 C 20.34 5.07, 20.384999999999998 4.83, 19.56 5.28 C 18.689999999999998 5.970000000000001, 18.615000000000002 5.925, 17.82 6.66 C 17.1 7.44, 16.994999999999997 7.245000000000001, 16.38 8.22 C 15.87 9.39, 15.794999999999998 9.285, 15.36 10.56 C 15 11.940000000000001, 14.790000000000001 12.21, 14.64 13.32 C 14.7 14.16, 14.565000000000001 14.295, 14.76 15 C 15.09 15.57, 14.924999999999997 15.675, 15.419999999999998 16.14 C 16.08 16.5, 16.125 16.575, 16.740000000000002 16.86 C 17.310000000000002 17.07, 17.07 17.130000000000003, 17.88 17.28 C 18.93 17.37, 19.11 17.37, 19.98 17.46 C 20.67 17.55, 20.535 17.61, 21.36 17.64 C 22.32 17.61, 22.395 17.700000000000003, 23.28 17.580000000000002 C 24.090000000000003 17.37, 24.240000000000002 17.415, 24.900000000000002 17.16 C 25.410000000000004 16.86, 25.590000000000003 16.799999999999997, 25.92 16.56 C 26.07 16.380000000000003, 26.115000000000002 16.44, 26.22 16.200000000000003 L 26.339999999999996 15.600000000000001" fill="none" stroke="black" stroke-width="5"></path><path d="M 19.86 17.52 C 19.71 18.96, 19.77 19.005, 19.56 20.4 C 19.29 21.75, 19.244999999999997 21.915, 19.02 23.1 C 18.84 24.12, 18.87 23.775000000000002, 18.66 25.14 C 18.42 26.85, 18.435 26.985, 18.18 28.56 C 17.91 30, 17.85 30.015, 17.64 31.44 C 17.490000000000002 32.85, 17.505 32.97, 17.34 34.26 C 17.16 35.42999999999999, 17.085 35.459999999999994, 16.98 36.599999999999994 C 16.95 37.709999999999994, 17.025 37.695, 16.919999999999998 38.82 C 16.74 39.959999999999994, 16.65 40.07999999999999, 16.56 41.099999999999994 C 16.56 42, 16.56 42.45, 16.56 42.900000000000006 C 16.56 42.900000000000006, 16.56 42.900000000000006, 16.56 42.900000000000006 L 16.56 42.900000000000006" fill="none" stroke="black" stroke-width="5"></path><path d="M 17.46 35.22 C 17.759999999999998 35.22, 17.64 35.205, 18.06 35.22 C 18.6 35.25, 18.330000000000002 35.265, 19.14 35.28 C 20.22 35.28, 20.025 35.28, 21.299999999999997 35.28 C 22.77 35.28, 23.1 35.205, 24.240000000000002 35.28 C 25.05 35.43, 25.425 35.504999999999995, 25.86 35.58 C 25.92 35.58, 25.95 35.58, 25.98 35.58 L 25.98 35.58" fill="none" stroke="black" stroke-width="5"></path></svg>