<svg width="48" height="48" viewBox="0 0 48 48" xmlns="http://www.w3.org/2000/svg"><path d="M 16.799999999999997 3.54 C 16.259999999999998 3.63, 16.305 3.585, 15.72 3.7199999999999998 C 15.09 3.9, 15.030000000000001 3.84, 14.46 4.08 C 13.950000000000001 4.38, 14.070000000000002 4.199999999999999, 13.440000000000001 4.68 C 12.690000000000001 5.34, 12.629999999999999 5.22, 11.94 6 C 11.309999999999999 6.9, 11.115 7.065000000000001, 10.68 7.800000000000001 C 10.44 8.370000000000001, 10.379999999999999 8.37, 10.2 8.94 C 10.079999999999998 9.51, 10.02 9.405, 9.959999999999999 10.08 C 9.959999999999999 10.86, 9.825 11.040000000000001, 9.959999999999999 11.64 C 10.23 12.06, 10.245 12.225000000000001, 10.5 12.48 C 10.74 12.57, 10.620000000000001 12.495000000000001, 10.98 12.66 C 11.46 12.9, 11.504999999999999 12.96, 11.94 13.14 C 12.33 13.26, 12.360000000000001 13.32, 12.72 13.379999999999999 C 13.05 13.379999999999999, 13.11 13.379999999999999, 13.379999999999999 13.379999999999999 C 13.59 13.379999999999999, 13.454999999999998 13.379999999999999, 13.799999999999999 13.379999999999999 C 14.28 13.379999999999999, 14.37 13.379999999999999, 14.76 13.379999999999999 C 15.059999999999999 13.379999999999999, 15.135 13.379999999999999, 15.36 13.379999999999999 C 15.51 13.379999999999999, 15.54 13.379999999999999, 15.66 13.379999999999999 C 15.75 13.379999999999999, 15.765 13.379999999999999, 15.84 13.379999999999999 C 15.9 13.379999999999999, 15.885000000000002 13.379999999999999, 15.96 13.379999999999999 C 16.05 13.379999999999999, 16.095 13.379999999999999, 16.14 13.379999999999999 C 16.14 13.379999999999999, 16.14 13.379999999999999, 16.14 13.379999999999999 C 16.14 13.379999999999999, 16.185000000000002 13.349999999999998, 16.14 13.379999999999999 C 16.05 13.44, 16.26 13.26, 15.96 13.5 C 15.450000000000001 13.92, 15.480000000000002 13.875, 14.940000000000001 14.34 C 14.370000000000001 14.85, 14.37 14.805, 13.799999999999999 15.36 C 13.23 15.959999999999999, 13.08 15.974999999999998, 12.66 16.56 C 12.39 17.130000000000003, 12.420000000000002 17.085, 12.120000000000001 17.700000000000003 C 11.79 18.36, 11.79 18.36, 11.459999999999999 19.02 C 11.129999999999999 19.68, 11.13 19.62, 10.8 20.34 C 10.47 21.119999999999997, 10.41 21.195, 10.14 21.9 C 9.93 22.53, 9.915000000000001 22.395, 9.72 23.16 C 9.54 24.060000000000002, 9.465 24.165000000000003, 9.36 24.96 C 9.33 25.65, 9.225000000000001 25.754999999999995, 9.3 26.339999999999996 C 9.48 26.819999999999997, 9.405000000000001 26.879999999999995, 9.66 27.299999999999997 C 9.99 27.659999999999997, 9.870000000000001 27.689999999999998, 10.32 28.02 C 10.89 28.32, 10.95 28.499999999999996, 11.459999999999999 28.619999999999997 C 11.91 28.56, 11.639999999999999 28.845, 12.36 28.5 C 13.35 27.87, 13.469999999999999 27.885, 14.34 27.240000000000002 C 15.09 26.580000000000002, 15.315 26.520000000000003, 15.84 25.92 C 16.14 25.38, 16.185000000000002 25.604999999999997, 16.44 24.839999999999996 C 16.65 23.849999999999998, 16.665 23.865, 16.86 22.86 C 17.04 21.84, 17.13 21.33, 17.22 20.82 C 17.22 20.82, 17.205 20.835, 17.22 20.82 C 17.25 20.79, 17.19 20.729999999999997, 17.28 20.759999999999998 C 17.43 20.85, 17.400000000000002 20.55, 17.580000000000002 20.94 C 17.79 21.630000000000003, 17.745 21.6, 18 22.32 C 18.3 23.07, 18.285000000000004 23.145, 18.6 23.82 C 18.93 24.42, 18.764999999999997 24.509999999999998, 19.259999999999998 25.02 C 19.92 25.439999999999998, 19.725 25.5, 20.580000000000002 25.86 C 21.630000000000003 26.16, 21.225 26.37, 22.68 26.46 C 24.54 26.34, 25.065 26.445, 26.400000000000002 26.22 C 27.21 25.89, 27.45 25.814999999999998, 28.02 25.56 C 28.35 25.380000000000003, 28.47 25.305000000000003, 28.68 25.200000000000003 C 28.77 25.17, 28.74 25.215, 28.86 25.14 C 29.01 25.020000000000003, 29.040000000000006 25.005000000000003, 29.160000000000004 24.900000000000002 C 29.25 24.810000000000002, 29.264999999999997 24.81, 29.339999999999996 24.72 C 29.4 24.63, 29.43 24.585, 29.46 24.54 C 29.46 24.54, 29.445 24.585, 29.46 24.54 L 29.52 24.36" fill="none" stroke="black" stroke-width="5"></path><path d="M 22.080000000000002 25.92 C 22.080000000000002 26.25, 22.215000000000003 25.83, 22.080000000000002 26.58 C 21.810000000000002 27.75, 21.855 27.78, 21.54 28.92 C 21.18 30.03, 21.33 29.925, 20.82 31.14 C 20.16 32.46, 20.115000000000002 32.685, 19.5 33.78 C 18.93 34.65, 19.244999999999997 34.559999999999995, 18.36 35.519999999999996 C 17.16 36.56999999999999, 17.04 36.779999999999994, 15.96 37.62 C 15 38.25, 14.82 38.355000000000004, 14.04 38.88 C 13.44 39.3, 13.305 39.42, 12.84 39.72 C 12.51 39.9, 12.465 39.93, 12.18 40.08 C 11.94 40.2, 11.864999999999998 40.26, 11.7 40.32 L 11.52 40.32" fill="none" stroke="black" stroke-width="5"></path><path d="M 18.6 34.56 C 18.990000000000002 34.56, 18.54 34.56, 19.38 34.56 C 20.67 34.56, 20.835 34.605000000000004, 21.96 34.56 C 22.92 34.47, 22.799999999999997 34.47, 23.88 34.38 C 25.08 34.290000000000006, 25.23 34.245000000000005, 26.28 34.2 C 27.18 34.2, 27.509999999999998 34.2, 28.08 34.2 C 28.32 34.2, 28.439999999999998 34.2, 28.56 34.2 L 28.56 34.2" fill="none" stroke="black" stroke-width="5"></path></svg>