<svg width="48" height="48" viewBox="0 0 48 48" xmlns="http://www.w3.org/2000/svg"><path d="M 17.46 4.62 C 16.92 4.62, 16.919999999999998 4.62, 16.38 4.62 C 15.84 4.62, 15.719999999999999 4.605, 15.299999999999999 4.62 C 15 4.65, 15.135000000000002 4.59, 14.700000000000001 4.68 C 14.129999999999999 4.83, 14.1 4.694999999999999, 13.559999999999999 4.9799999999999995 C 13.049999999999999 5.4, 12.959999999999999 5.325, 12.54 5.82 C 12.209999999999999 6.39, 12.134999999999998 6.539999999999999, 11.879999999999999 6.959999999999999 C 11.7 7.2299999999999995, 11.729999999999999 7.08, 11.52 7.5 C 11.280000000000001 8.07, 11.25 8.055, 11.040000000000001 8.64 C 10.86 9.24, 10.845 9.195, 10.68 9.84 C 10.53 10.530000000000001, 10.454999999999998 10.605, 10.379999999999999 11.22 C 10.379999999999999 11.76, 10.379999999999999 11.76, 10.379999999999999 12.299999999999999 C 10.379999999999999 12.84, 10.29 12.915, 10.379999999999999 13.379999999999999 C 10.559999999999999 13.77, 10.41 13.8, 10.74 14.16 C 11.219999999999999 14.49, 11.295 14.595, 11.7 14.82 C 12.03 14.94, 12.044999999999998 15, 12.36 15.059999999999999 C 12.66 15.059999999999999, 12.690000000000001 15.014999999999999, 12.96 15.059999999999999 C 13.200000000000001 15.149999999999999, 13.155000000000001 15.195, 13.440000000000001 15.24 C 13.770000000000001 15.24, 13.755000000000003 15.24, 14.100000000000001 15.24 C 14.46 15.24, 14.4 15.36, 14.82 15.24 C 15.3 15, 15.285 15.015, 15.78 14.76 C 16.29 14.49, 16.394999999999996 14.430000000000001, 16.799999999999997 14.22 C 17.099999999999998 14.07, 17.13 13.995, 17.4 13.919999999999998 C 17.64 13.919999999999998, 17.64 13.919999999999998, 17.88 13.919999999999998 C 18.119999999999997 13.919999999999998, 18.075 13.784999999999997, 18.36 13.919999999999998 C 18.689999999999998 14.19, 18.735 14.115, 19.02 14.46 C 19.259999999999998 14.879999999999999, 19.305 14.864999999999998, 19.5 15.299999999999999 C 19.65 15.75, 19.65 15.645000000000003, 19.799999999999997 16.200000000000003 C 19.95 16.86, 19.98 16.92, 20.1 17.52 C 20.19 18.060000000000002, 20.19 18.090000000000003, 20.28 18.6 C 20.37 19.08, 20.415 19.244999999999997, 20.46 19.56 C 20.46 19.71, 20.445 19.71, 20.46 19.86 C 20.490000000000002 20.009999999999998, 20.505 20.085, 20.52 20.16 C 20.52 20.16, 20.52 20.16, 20.52 20.16 C 20.52 20.16, 20.52 20.16, 20.52 20.16 C 20.52 20.16, 20.46 20.28, 20.52 20.16 C 20.64 19.92, 20.625 20.115000000000002, 20.759999999999998 19.68 C 20.909999999999997 19.049999999999997, 20.895 18.944999999999997, 21.06 18.419999999999998 C 21.24 18, 21.209999999999997 17.955000000000002, 21.419999999999998 17.580000000000002 C 21.659999999999997 17.25, 21.615 17.294999999999998, 21.9 16.919999999999998 C 22.229999999999997 16.5, 22.185 16.455000000000002, 22.56 16.080000000000002 C 22.979999999999997 15.75, 22.935 15.689999999999998, 23.4 15.419999999999998 C 23.91 15.209999999999999, 23.97 15.165, 24.42 15 C 24.810000000000002 14.879999999999999, 24.765 14.864999999999998, 25.200000000000003 14.76 C 25.680000000000003 14.670000000000002, 25.695000000000004 14.670000000000002, 26.160000000000004 14.580000000000002 C 26.61 14.49, 26.595 14.475, 27.06 14.399999999999999 C 27.54 14.34, 27.585 14.309999999999999, 28.02 14.28 C 28.409999999999997 14.28, 28.455 14.28, 28.799999999999997 14.28 C 29.1 14.28, 29.1 14.28, 29.400000000000002 14.28 C 29.700000000000003 14.28, 29.655 14.28, 30 14.28 C 30.39 14.28, 30.435000000000002 14.28, 30.78 14.28 C 31.080000000000002 14.28, 31.185000000000002 14.28, 31.380000000000003 14.28 C 31.47 14.28, 31.515 14.28, 31.56 14.28 L 31.56 14.28" fill="none" stroke="black" stroke-width="5"></path><path d="M 14.34 15.48 C 14.19 15.840000000000002, 14.174999999999999 15.690000000000003, 14.04 16.200000000000003 C 13.919999999999998 16.86, 13.904999999999998 16.905, 13.799999999999999 17.52 C 13.71 18.09, 13.725000000000001 18.045, 13.620000000000001 18.66 C 13.5 19.32, 13.44 19.305, 13.379999999999999 19.98 C 13.379999999999999 20.67, 13.379999999999999 20.55, 13.379999999999999 21.36 C 13.379999999999999 22.29, 13.319999999999999 22.29, 13.379999999999999 23.22 C 13.5 24.15, 13.38 24.089999999999996, 13.620000000000001 25.08 C 13.98 26.13, 14.055 26.46, 14.34 27.18 C 14.55 27.57, 14.565 27.675, 14.76 27.96 C 14.940000000000001 28.14, 15.030000000000001 28.23, 15.120000000000001 28.32 L 15.120000000000001 28.32" fill="none" stroke="black" stroke-width="5"></path><path d="M 25.02 14.76 C 25.08 15, 25.11 14.85, 25.14 15.24 C 25.14 15.780000000000001, 25.14 15.81, 25.14 16.32 C 25.14 16.8, 25.14 16.695, 25.14 17.28 C 25.14 17.97, 25.065 17.895, 25.14 18.66 C 25.29 19.5, 25.32 19.44, 25.44 20.34 C 25.53 21.299999999999997, 25.514999999999997 21.389999999999997, 25.619999999999997 22.259999999999998 C 25.74 23.04, 25.71 23.115000000000002, 25.86 23.82 C 26.04 24.45, 25.964999999999996 24.435, 26.22 25.08 C 26.55 25.740000000000002, 26.580000000000002 25.830000000000002, 26.880000000000003 26.400000000000002 C 27.150000000000002 26.880000000000003, 26.985000000000003 26.775, 27.42 27.36 C 28.02 28.05, 28.11 28.185000000000002, 28.619999999999997 28.740000000000002 C 29.04 29.16, 29.07 29.25, 29.46 29.58 C 29.82 29.82, 29.759999999999998 29.79, 30.18 30.06 C 30.66 30.36, 30.660000000000004 30.405000000000005, 31.14 30.660000000000004 C 31.619999999999997 30.87, 31.724999999999994 30.915, 32.099999999999994 31.08 C 32.37 31.2, 32.445 31.14, 32.64 31.32 C 32.760000000000005 31.56, 32.80500000000001 31.559999999999995, 32.88 31.799999999999997 C 32.91 32.04, 32.925 32.04, 32.94 32.28 C 32.94 32.519999999999996, 33.03 32.55, 32.94 32.76 C 32.76 32.94, 32.879999999999995 32.91, 32.58 33.12 C 32.16 33.36, 32.205 33.434999999999995, 31.740000000000002 33.599999999999994 C 31.23 33.69, 31.515 33.69, 30.72 33.78 C 29.64 33.870000000000005, 29.924999999999997 33.765, 28.56 33.96 C 26.909999999999997 34.260000000000005, 26.639999999999997 34.290000000000006, 25.259999999999998 34.56 C 24.15 34.8, 23.849999999999998 34.86, 23.04 35.04 C 22.53 35.16, 22.634999999999998 35.055, 22.02 35.28 C 21.3 35.61, 21.270000000000003 35.55, 20.580000000000002 35.94 C 19.92 36.39, 19.89 36.36, 19.259999999999998 36.839999999999996 C 18.659999999999997 37.349999999999994, 18.555 37.394999999999996, 18.06 37.86 C 17.67 38.28, 17.64 38.19, 17.28 38.7 C 16.950000000000003 39.300000000000004, 16.86 39.285000000000004, 16.62 39.900000000000006 C 16.47 40.53, 16.44 40.59, 16.32 41.160000000000004 C 16.23 41.67, 16.185000000000002 41.655, 16.14 42.18 C 16.14 42.72, 16.11 42.66, 16.14 43.26 C 16.2 43.92, 16.169999999999998 44.055, 16.259999999999998 44.58 C 16.38 44.97, 16.38 45, 16.5 45.36 C 16.62 45.69, 16.68 45.855, 16.740000000000002 46.019999999999996 L 16.740000000000002 46.019999999999996" fill="none" stroke="black" stroke-width="5"></path><path d="M 11.58 33.660000000000004 C 12.870000000000001 33.69, 13.125 33.644999999999996, 14.16 33.72 C 14.940000000000001 33.84, 14.925 33.825, 15.72 33.96 C 16.53 34.11, 16.695 34.08, 17.34 34.26 C 17.82 34.47, 17.894999999999996 34.47, 18.299999999999997 34.68 C 18.63 34.89, 18.72 34.964999999999996, 18.96 35.099999999999994 C 19.11 35.16, 19.095 35.099999999999994, 19.259999999999998 35.22 C 19.439999999999998 35.4, 19.47 35.4, 19.62 35.58 C 19.740000000000002 35.76, 19.8 35.849999999999994, 19.86 35.94 C 19.86 35.94, 19.86 35.94, 19.86 35.94 C 19.86 35.94, 19.86 35.94, 19.86 35.94 L 19.86 35.94" fill="none" stroke="black" stroke-width="5"></path></svg>