<svg width="48" height="48" viewBox="0 0 48 48" xmlns="http://www.w3.org/2000/svg"><path d="M 17.04 16.86 C 16.439999999999998 16.77, 16.575 16.725, 15.84 16.68 C 14.97 16.68, 14.775000000000002 16.634999999999998, 14.100000000000001 16.68 C 13.620000000000001 16.77, 13.8 16.47, 13.14 16.86 C 12.3 17.55, 12.149999999999999 17.205000000000002, 11.459999999999999 18.240000000000002 C 10.919999999999998 19.62, 10.649999999999999 19.77, 10.379999999999999 21 C 10.379999999999999 22.08, 10.125 22.125, 10.379999999999999 23.16 C 10.889999999999999 24.15, 10.754999999999999 24.285, 11.399999999999999 25.14 C 12.18 25.86, 12.015 26.025, 12.96 26.58 C 14.07 26.97, 14.024999999999999 27.165, 15.18 27.36 C 16.380000000000003 27.36, 16.62 27.675, 17.580000000000002 27.36 C 18.3 26.729999999999997, 18.525 26.834999999999997, 19.02 26.099999999999998 C 19.29 25.259999999999998, 19.424999999999997 25.26, 19.56 24.42 C 19.56 23.580000000000002, 19.56 23.19, 19.56 22.740000000000002 C 19.56 22.68, 19.56 22.650000000000002, 19.56 22.62 C 19.56 22.62, 19.514999999999997 22.455000000000002, 19.56 22.62 C 19.65 22.950000000000003, 19.5 22.71, 19.740000000000002 23.28 C 20.130000000000003 24.090000000000003, 20.04 24.240000000000002, 20.52 24.900000000000002 C 21.09 25.410000000000004, 20.94 25.425, 21.66 25.92 C 22.53 26.400000000000002, 22.665 26.64, 23.4 26.880000000000003 C 24 26.880000000000003, 23.834999999999997 27.060000000000002, 24.599999999999998 26.880000000000003 C 25.53 26.520000000000003, 25.56 26.805000000000007, 26.46 26.160000000000004 C 27.330000000000002 25.23, 27.690000000000005 25.125, 28.200000000000003 24.299999999999997 C 28.35 23.58, 28.380000000000003 24, 28.5 22.86 C 28.59 21.3, 28.755 21.285000000000004, 28.68 19.740000000000002 C 28.44 18.21, 28.53 18.06, 28.200000000000003 16.68 C 27.78 15.45, 27.869999999999997 15.420000000000002, 27.36 14.22 C 26.76 13.05, 26.910000000000004 12.989999999999998, 26.160000000000004 11.879999999999999 C 25.26 10.829999999999998, 25.200000000000003 10.635, 24.36 9.78 C 23.58 9.12, 23.729999999999997 9.134999999999998, 22.799999999999997 8.459999999999999 C 21.72 7.77, 21.3 7.484999999999999, 20.64 7.08 C 20.4 6.96, 20.28 6.9, 20.16 6.84 C 20.16 6.84, 20.16 6.84, 20.16 6.84 L 20.16 6.84" fill="none" stroke="black" stroke-width="5"></path><path d="M 22.98 26.700000000000003 C 22.98 27.180000000000003, 22.98 26.910000000000004, 22.98 27.660000000000004 C 22.98 28.680000000000003, 23.1 28.35, 22.98 29.700000000000003 C 22.740000000000002 31.380000000000003, 22.695 31.545, 22.5 33.06 C 22.35 34.41, 22.335 34.589999999999996, 22.200000000000003 35.76 C 22.080000000000002 36.75, 22.095000000000002 36.735, 21.96 37.74 C 21.810000000000002 38.760000000000005, 21.78 38.925, 21.66 39.78 C 21.57 40.47, 21.525 40.365, 21.48 41.160000000000004 C 21.48 42.06, 21.48 42.345, 21.48 42.96 C 21.48 43.29, 21.48 43.425, 21.48 43.62 C 21.48 43.68, 21.495 43.695, 21.48 43.74 L 21.419999999999998 43.8" fill="none" stroke="black" stroke-width="5"></path></svg>