<svg width="48" height="48" viewBox="0 0 48 48" xmlns="http://www.w3.org/2000/svg"><path d="M 16.14 4.800000000000001 C 16.05 5.58, 16.005000000000003 5.640000000000001, 15.96 6.36 C 15.96 7.02, 15.825000000000001 6.915, 15.96 7.68 C 16.23 8.55, 16.125 8.61, 16.5 9.42 C 16.98 10.17, 16.86 10.32, 17.46 10.92 C 18.18 11.370000000000001, 18.06 11.46, 18.9 11.82 C 19.86 12.09, 20.025 12.225, 20.82 12.36 C 21.450000000000003 12.36, 21.375 12.36, 22.080000000000002 12.36 C 22.86 12.36, 22.86 12.434999999999999, 23.64 12.36 C 24.42 12.209999999999999, 24.480000000000004 12.314999999999998, 25.200000000000003 12.059999999999999 C 25.86 11.7, 25.95 11.924999999999999, 26.52 11.34 C 27 10.530000000000001, 27.09 10.56, 27.48 9.72 C 27.78 8.850000000000001, 27.9 8.850000000000001, 28.08 7.98 C 28.14 7.11, 28.17 6.825, 28.200000000000003 6.24 C 28.200000000000003 5.9399999999999995, 28.200000000000003 5.79, 28.200000000000003 5.64 C 28.200000000000003 5.64, 28.200000000000003 5.64, 28.200000000000003 5.64 C 28.200000000000003 5.64, 28.200000000000003 5.64, 28.200000000000003 5.64 L 28.200000000000003 5.64" fill="none" stroke="black" stroke-width="5"></path><path d="M 15.419999999999998 19.740000000000002 C 15.69 19.77, 15.48 19.784999999999997, 15.96 19.799999999999997 C 16.65 19.799999999999997, 16.23 19.874999999999996, 17.34 19.799999999999997 C 18.869999999999997 19.65, 19.259999999999998 19.605, 20.4 19.5 C 21.15 19.439999999999998, 21.209999999999997 19.424999999999997, 21.9 19.38 C 22.53 19.35, 22.59 19.365, 23.16 19.32 C 23.67 19.26, 23.85 19.230000000000004, 24.18 19.200000000000003 C 24.33 19.200000000000003, 24.33 19.200000000000003, 24.48 19.200000000000003 C 24.630000000000003 19.200000000000003, 24.615000000000002 19.200000000000003, 24.78 19.200000000000003 C 24.96 19.200000000000003, 24.975 19.110000000000003, 25.14 19.200000000000003 C 25.29 19.380000000000003, 25.305 19.23, 25.44 19.56 C 25.560000000000002 20.04, 25.575 19.59, 25.68 20.52 C 25.77 21.9, 25.814999999999998 21.915, 25.86 23.28 C 25.86 24.630000000000003, 25.86 24.315, 25.86 25.98 C 25.86 27.96, 25.86 28.200000000000003, 25.86 29.94 C 25.86 31.439999999999998, 25.86 31.619999999999997, 25.86 32.94 C 25.86 34.08, 25.86 34.185, 25.86 35.22 C 25.86 36.15, 25.86 36.254999999999995, 25.86 37.08 C 25.86 37.8, 25.86 37.739999999999995, 25.86 38.519999999999996 C 25.86 39.36, 25.86 39.510000000000005, 25.86 40.2 C 25.86 40.74, 25.86 40.935, 25.86 41.28 C 25.86 41.43, 25.86 41.43, 25.86 41.58 C 25.86 41.730000000000004, 25.86 41.685, 25.86 41.88 C 25.86 42.120000000000005, 25.86 42.24, 25.86 42.36 C 25.86 42.36, 25.86 42.36, 25.86 42.36 L 25.86 42.36" fill="none" stroke="black" stroke-width="5"></path></svg>