<svg width="48" height="48" viewBox="0 0 48 48" xmlns="http://www.w3.org/2000/svg"><path d="M 15.18 32.94 C 14.79 32.37, 14.864999999999998 32.669999999999995, 14.399999999999999 31.799999999999997 C 13.86 30.63, 13.785 30.615000000000002, 13.32 29.46 C 12.93 28.32, 12.825 28.155, 12.54 27.18 C 12.36 26.369999999999997, 12.36 26.28, 12.18 25.56 C 12 24.93, 11.955 24.959999999999997, 11.82 24.299999999999997 C 11.73 23.61, 11.685 23.58, 11.64 22.919999999999998 C 11.64 22.29, 11.64 22.08, 11.64 21.66 C 11.64 21.450000000000003, 11.580000000000002 21.555000000000003, 11.64 21.240000000000002 C 11.76 20.82, 11.79 20.685, 11.879999999999999 20.4 C 11.94 20.25, 11.805 20.37, 12 20.1 C 12.33 19.71, 12.21 19.65, 12.66 19.32 C 13.23 19.05, 13.2 18.945, 13.799999999999999 18.78 C 14.43 18.72, 14.339999999999998 18.69, 15.059999999999999 18.66 C 15.87 18.66, 15.809999999999999 18.66, 16.68 18.66 C 17.61 18.66, 17.369999999999997 18.66, 18.54 18.66 C 19.95 18.66, 20.145 18.645, 21.36 18.66 C 22.38 18.689999999999998, 22.29 18.705, 23.4 18.72 C 24.599999999999998 18.72, 25.004999999999995 18.72, 25.799999999999997 18.72 C 26.189999999999998 18.72, 26.384999999999998 18.72, 26.58 18.72 C 26.58 18.72, 26.58 18.72, 26.58 18.72 C 26.58 18.72, 26.549999999999997 18.72, 26.58 18.72 C 26.64 18.72, 26.67 18.72, 26.700000000000003 18.72 C 26.700000000000003 18.72, 26.700000000000003 18.72, 26.700000000000003 18.72 L 26.700000000000003 18.72" fill="none" stroke="black" stroke-width="5"></path><path d="M 26.94 18.72 C 26.94 18.09, 26.955000000000002 18, 26.94 17.46 C 26.910000000000004 17.009999999999998, 26.94 17.235, 26.880000000000003 16.56 C 26.790000000000003 15.66, 26.775000000000006 15.66, 26.700000000000003 14.76 C 26.64 13.86, 26.61 13.605, 26.58 12.96 C 26.58 12.57, 26.58 12.525, 26.58 12.18 C 26.58 11.879999999999999, 26.58 11.879999999999999, 26.58 11.58 C 26.58 11.280000000000001, 26.58 11.205, 26.58 10.98 C 26.58 10.83, 26.58 10.875, 26.58 10.68 C 26.58 10.44, 26.58 10.395, 26.58 10.2 C 26.58 10.049999999999999, 26.58 9.974999999999998, 26.58 9.899999999999999 L 26.58 9.899999999999999" fill="none" stroke="black" stroke-width="5"></path><path d="M 21.54 18.66 C 21.39 19.35, 21.360000000000003 18.945, 21.240000000000002 20.04 C 21.15 21.54, 21.03 21.825, 21.06 23.04 C 21.21 23.97, 21.06 23.700000000000003, 21.36 24.900000000000002 C 21.81 26.369999999999997, 21.735 26.474999999999998, 22.259999999999998 27.839999999999996 C 22.86 29.099999999999998, 22.905 29.31, 23.46 30.36 C 23.97 31.2, 24 31.38, 24.48 32.04 C 24.93 32.519999999999996, 24.885 32.55, 25.380000000000003 33 C 25.92 33.42, 25.8 33.39, 26.46 33.839999999999996 C 27.240000000000002 34.31999999999999, 27.285 34.275, 28.02 34.8 C 28.71 35.37, 28.845000000000002 35.44499999999999, 29.400000000000002 35.94 C 29.82 36.36, 29.925 36.405, 30.240000000000002 36.78 C 30.450000000000003 37.11, 30.555000000000003 37.275, 30.660000000000004 37.44 C 30.660000000000004 37.44, 30.660000000000004 37.44, 30.660000000000004 37.44 C 30.660000000000004 37.44, 30.645000000000003 37.425, 30.660000000000004 37.44 C 30.69 37.47, 30.96 37.394999999999996, 30.72 37.5 C 30.21 37.68, 30.285000000000004 37.725, 29.700000000000003 37.86 C 29.040000000000003 37.95, 29.385000000000005 37.86, 28.380000000000003 38.04 C 27.03 38.31, 26.94 38.324999999999996, 25.68 38.58 C 24.509999999999998 38.82, 24.795 38.7, 23.34 39.06 C 21.6 39.54, 21.509999999999998 39.285, 19.86 40.019999999999996 C 18.3 41.01, 18.045 40.815, 16.740000000000002 42 C 15.690000000000001 43.379999999999995, 15.240000000000002 43.8, 14.64 44.76 C 14.49 45.3, 14.415 45.56999999999999, 14.34 45.839999999999996 C 14.34 45.839999999999996, 14.34 45.839999999999996, 14.34 45.839999999999996 L 14.34 45.839999999999996" fill="none" stroke="black" stroke-width="5"></path></svg>