<svg width="48" height="48" viewBox="0 0 48 48" xmlns="http://www.w3.org/2000/svg"><path d="M 15.36 29.099999999999998 C 15.09 28.199999999999996, 15.015 28.379999999999995, 14.82 27.299999999999997 C 14.700000000000001 26.04, 14.64 25.740000000000002, 14.580000000000002 24.78 C 14.580000000000002 24.12, 14.625000000000004 24.345, 14.580000000000002 23.46 C 14.49 22.35, 14.445 21.990000000000002, 14.399999999999999 21.240000000000002 C 14.399999999999999 20.85, 14.264999999999997 20.895000000000003, 14.399999999999999 20.46 C 14.67 19.98, 14.325000000000001 19.965, 14.940000000000001 19.5 C 15.9 19.05, 15.84 18.945, 16.86 18.6 C 17.939999999999998 18.36, 18.06 18.3, 19.02 18.12 C 19.86 18, 19.545 18.015, 20.700000000000003 17.88 C 22.17 17.73, 22.35 17.700000000000003, 23.64 17.580000000000002 C 24.75 17.490000000000002, 24.93 17.474999999999998, 25.86 17.4 C 26.61 17.34, 26.655 17.400000000000002, 27.36 17.28 C 28.02 17.1, 28.169999999999998 17.009999999999998, 28.68 16.919999999999998 C 29.04 16.919999999999998, 29.1 16.919999999999998, 29.400000000000002 16.919999999999998 C 29.64 16.919999999999998, 29.715000000000003 16.919999999999998, 29.880000000000003 16.919999999999998 C 29.97 16.919999999999998, 29.939999999999998 16.919999999999998, 30.06 16.919999999999998 C 30.21 16.919999999999998, 30.285 16.919999999999998, 30.36 16.919999999999998 L 30.36 16.919999999999998" fill="none" stroke="black" stroke-width="5"></path><path d="M 30.18 9.899999999999999 C 30.18 10.829999999999998, 30.18 10.785, 30.18 11.76 C 30.18 12.78, 30.18 12.764999999999999, 30.18 13.799999999999999 C 30.18 14.849999999999998, 30.18 14.864999999999998, 30.18 15.899999999999999 C 30.18 16.92, 30.18 16.965000000000003, 30.18 17.94 C 30.18 18.869999999999997, 30.18 18.839999999999996, 30.18 19.799999999999997 C 30.18 20.79, 30.18 20.79, 30.18 21.78 C 30.18 22.77, 30.165 22.935, 30.18 23.759999999999998 C 30.21 24.419999999999998, 30.195 24.599999999999998, 30.240000000000002 25.08 C 30.3 25.38, 30.33 25.335, 30.36 25.68 C 30.36 26.07, 30.36 26.025, 30.36 26.46 C 30.36 26.94, 30.36 27.18, 30.36 27.42 C 30.36 27.42, 30.36 27.42, 30.36 27.42 C 30.36 27.42, 30.36 27.39, 30.36 27.42 L 30.36 27.54" fill="none" stroke="black" stroke-width="5"></path><path d="M 25.5 18.419999999999998 C 25.62 20.4, 25.68 20.819999999999997, 25.740000000000002 22.38 C 25.740000000000002 23.520000000000003, 25.740000000000002 23.325000000000003, 25.740000000000002 24.660000000000004 C 25.740000000000002 26.19, 25.695 26.28, 25.740000000000002 27.72 C 25.830000000000002 29.07, 25.830000000000002 28.98, 25.92 30.42 C 26.009999999999998 31.950000000000003, 26.055 32.145, 26.099999999999998 33.480000000000004 C 26.099999999999998 34.620000000000005, 26.099999999999998 34.155, 26.099999999999998 35.76 C 26.099999999999998 37.83, 26.099999999999998 38.13000000000001, 26.099999999999998 39.900000000000006 C 26.099999999999998 41.370000000000005, 26.099999999999998 41.67, 26.099999999999998 42.839999999999996 C 26.099999999999998 43.709999999999994, 26.099999999999998 43.995, 26.099999999999998 44.58 C 26.099999999999998 44.879999999999995, 26.099999999999998 45.03, 26.099999999999998 45.18 C 26.099999999999998 45.18, 26.099999999999998 45.18, 26.099999999999998 45.18 C 26.099999999999998 45.18, 26.099999999999998 45.18, 26.099999999999998 45.18 L 26.099999999999998 45.18" fill="none" stroke="black" stroke-width="5"></path><path d="M 20.64 19.200000000000003 C 20.91 21.630000000000003, 20.91 21.78, 21.18 24.06 C 21.45 26.189999999999998, 21.54 26.565, 21.72 28.32 C 21.81 29.7, 21.854999999999997 29.519999999999996, 21.9 31.08 C 21.9 32.82, 21.9 32.82, 21.9 34.56 C 21.9 36.3, 21.9 36.45, 21.9 38.04 C 21.9 39.480000000000004, 21.9 39.735, 21.9 40.92 C 21.9 41.85, 21.9 41.955, 21.9 42.78 C 21.9 43.5, 21.9 43.71, 21.9 44.22 C 21.9 44.519999999999996, 21.9 44.595, 21.9 44.82 C 21.9 44.97, 21.9 45.045, 21.9 45.12 L 21.9 45.12" fill="none" stroke="black" stroke-width="5"></path></svg>