<svg width="48" height="48" viewBox="0 0 48 48" xmlns="http://www.w3.org/2000/svg"><path d="M 12.96 4.14 C 13.11 4.68, 13.125 3.84, 13.26 5.22 C 13.379999999999999 7.4399999999999995, 13.44 7.319999999999999, 13.5 9.66 C 13.5 12.120000000000001, 13.469999999999999 12.240000000000002, 13.5 14.580000000000002 C 13.56 16.8, 13.515 17.07, 13.620000000000001 19.02 C 13.77 20.7, 13.799999999999997 20.445, 13.919999999999998 22.38 C 14.01 24.57, 14.010000000000002 24.884999999999998, 14.100000000000001 26.759999999999998 C 14.190000000000001 28.32, 14.235 28.455000000000002, 14.28 29.880000000000003 C 14.28 31.17, 14.28 31.185000000000002, 14.28 32.46 C 14.28 33.72, 14.28 33.675000000000004, 14.28 34.980000000000004 C 14.28 36.33, 14.28 36.465, 14.28 37.68 C 14.28 38.76, 14.28 38.94, 14.28 39.839999999999996 C 14.28 40.56, 14.325 40.44, 14.28 41.28 C 14.190000000000001 42.24, 14.145000000000001 42.57000000000001, 14.100000000000001 43.2 C 14.100000000000001 43.5, 14.100000000000001 43.65, 14.100000000000001 43.8 C 14.100000000000001 43.8, 14.100000000000001 43.8, 14.100000000000001 43.8 C 14.100000000000001 43.8, 14.100000000000001 43.8, 14.100000000000001 43.8 C 14.100000000000001 43.8, 14.100000000000001 43.8, 14.100000000000001 43.8 C 14.100000000000001 43.8, 14.100000000000001 43.8, 14.100000000000001 43.8 L 14.100000000000001 43.8" fill="none" stroke="black" stroke-width="5"></path><path d="M 14.100000000000001 34.2 C 14.25 34.290000000000006, 14.204999999999998 34.290000000000006, 14.399999999999999 34.38 C 14.639999999999999 34.47, 14.489999999999998 34.515, 14.879999999999999 34.56 C 15.42 34.56, 15.27 34.545, 15.96 34.56 C 16.8 34.59, 16.755000000000003 34.545, 17.64 34.62 C 18.57 34.739999999999995, 18.69 34.754999999999995, 19.5 34.86 C 20.189999999999998 34.95, 20.085 34.995, 20.88 35.04 C 21.78 35.04, 21.87 35.04, 22.68 35.04 C 23.4 35.04, 23.4 34.995, 24.119999999999997 35.04 C 24.839999999999996 35.129999999999995, 24.974999999999998 35.175, 25.56 35.22 C 26.009999999999998 35.22, 26.115000000000002 35.22, 26.46 35.22 C 26.700000000000003 35.22, 26.67 35.22, 26.94 35.22 C 27.240000000000002 35.22, 27.18 35.31, 27.54 35.22 C 27.96 35.04, 27.96 35.114999999999995, 28.380000000000003 34.86 C 28.8 34.53, 28.8 34.725, 29.22 34.2 C 29.64 33.480000000000004, 29.82 33.315, 30.06 32.76 C 30.119999999999997 32.37, 30.105 32.805, 30.18 31.98 C 30.27 30.72, 30.314999999999998 30.6, 30.36 29.46 C 30.36 28.44, 30.36 28.155, 30.36 27.42 C 30.36 26.97, 30.36 27.375, 30.36 26.52 C 30.36 25.259999999999998, 30.375 25.2, 30.36 24 C 30.33 22.86, 30.299999999999997 22.95, 30.299999999999997 21.72 C 30.33 20.4, 30.345 20.295, 30.36 19.080000000000002 C 30.36 17.97, 30.36 17.94, 30.36 16.86 C 30.36 15.809999999999999, 30.36 15.735, 30.36 14.76 C 30.36 13.86, 30.42 14.025, 30.36 12.96 C 30.24 11.73, 30.18 11.235, 30.119999999999997 10.5 C 30.119999999999997 10.26, 30.134999999999998 10.215, 30.119999999999997 10.02 C 30.089999999999996 9.870000000000001, 30.18 10.08, 30.06 9.72 C 29.85 9.15, 29.775 8.985, 29.64 8.58 C 29.58 8.34, 29.58 8.490000000000002, 29.52 8.100000000000001 C 29.46 7.5600000000000005, 29.46 7.41, 29.400000000000002 7.02 C 29.340000000000003 6.78, 29.310000000000002 6.705000000000001, 29.28 6.540000000000001 C 29.28 6.450000000000001, 29.28 6.4350000000000005, 29.28 6.36 C 29.28 6.300000000000001, 29.28 6.2700000000000005, 29.28 6.24 C 29.28 6.24, 29.340000000000003 6.300000000000001, 29.28 6.24 C 29.16 6.12, 29.22 6.045, 29.04 6 C 28.799999999999997 6.03, 28.95 6.015000000000001, 28.56 6.0600000000000005 C 28.02 6.12, 28.155 6.1049999999999995, 27.48 6.18 C 26.67 6.27, 26.55 6.285, 25.86 6.36 C 25.29 6.42, 25.424999999999997 6.405, 24.72 6.48 C 23.88 6.57, 23.625 6.57, 23.04 6.66 C 22.71 6.75, 22.65 6.795, 22.38 6.84 C 22.17 6.84, 22.11 6.84, 21.96 6.84 C 21.87 6.84, 21.825000000000003 6.84, 21.78 6.84 C 21.78 6.84, 21.78 6.84, 21.78 6.84 L 21.78 6.84" fill="none" stroke="black" stroke-width="5"></path></svg>