<svg width="48" height="48" viewBox="0 0 48 48" xmlns="http://www.w3.org/2000/svg"><path d="M 16.86 7.08 C 17.07 7.109999999999999, 16.995 7.125, 17.28 7.14 C 17.64 7.14, 17.745 7.14, 18 7.14 C 18.15 7.14, 18.104999999999997 7.109999999999999, 18.299999999999997 7.14 C 18.54 7.199999999999999, 18.42 7.185, 18.78 7.26 C 19.26 7.35, 19.230000000000004 7.35, 19.740000000000002 7.4399999999999995 C 20.28 7.529999999999999, 20.385 7.575, 20.82 7.62 C 21.15 7.62, 21.045 7.575, 21.48 7.62 C 22.02 7.710000000000001, 22.215 7.755000000000001, 22.56 7.800000000000001 C 22.71 7.800000000000001, 22.74 7.800000000000001, 22.86 7.800000000000001 C 22.95 7.800000000000001, 22.994999999999997 7.800000000000001, 23.04 7.800000000000001 C 23.04 7.800000000000001, 23.04 7.800000000000001, 23.04 7.800000000000001 C 23.04 7.800000000000001, 23.04 7.800000000000001, 23.04 7.800000000000001 C 23.04 7.800000000000001, 23.009999999999998 7.770000000000001, 23.04 7.800000000000001 C 23.1 7.86, 23.13 7.74, 23.16 7.92 C 23.16 8.219999999999999, 23.16 8.1, 23.16 8.52 C 23.16 9.06, 23.25 8.97, 23.16 9.600000000000001 C 22.979999999999997 10.32, 22.949999999999996 10.440000000000001, 22.799999999999997 11.040000000000001 C 22.68 11.52, 22.724999999999998 11.295, 22.56 12 C 22.35 12.93, 22.425 12.645, 22.14 13.86 C 21.78 15.36, 21.75 15.225, 21.419999999999998 16.86 C 21.119999999999997 18.63, 21.075 18.99, 20.82 20.4 C 20.61 21.45, 20.669999999999998 21.119999999999997, 20.4 22.5 C 20.07 24.21, 20.1 24.240000000000002, 19.740000000000002 25.92 C 19.35 27.57, 19.215000000000003 27.869999999999997, 18.96 29.22 C 18.84 30.27, 18.825 30.33, 18.72 31.32 C 18.63 32.25, 18.585 32.085, 18.54 33.18 C 18.54 34.44, 18.419999999999998 34.59, 18.54 35.7 C 18.78 36.66, 18.72 36.81, 19.02 37.62 C 19.380000000000003 38.28, 19.065 38.415, 19.740000000000002 38.94 C 20.73 39.33, 21.03 39.495, 21.72 39.72 C 22.11 39.78, 22.08 39.809999999999995, 22.5 39.839999999999996 C 22.95 39.839999999999996, 23.009999999999998 39.839999999999996, 23.4 39.839999999999996 C 23.729999999999997 39.839999999999996, 23.79 40.05, 24.06 39.839999999999996 C 24.27 39.42, 24.27 39.629999999999995, 24.48 39 C 24.69 38.16, 24.69 38.085, 24.900000000000002 37.32 C 25.11 36.629999999999995, 25.17 36.599999999999994, 25.32 35.94 C 25.41 35.31, 25.455 35.43, 25.5 34.68 C 25.5 33.81, 25.62 33.644999999999996, 25.5 32.94 C 25.259999999999998 32.4, 25.455 32.46, 25.02 31.86 C 24.39 31.2, 24.33 31.064999999999998, 23.759999999999998 30.54 C 23.25 30.15, 23.19 30, 22.740000000000002 29.759999999999998 C 22.35 29.669999999999998, 22.275000000000002 29.669999999999998, 21.96 29.58 C 21.72 29.490000000000002, 21.72 29.445, 21.48 29.400000000000002 C 21.240000000000002 29.400000000000002, 21.27 29.385, 21 29.400000000000002 C 20.7 29.43, 20.669999999999998 29.43, 20.4 29.46 C 20.159999999999997 29.490000000000002, 20.084999999999997 29.475, 19.919999999999998 29.52 C 19.83 29.58, 19.86 29.580000000000002, 19.740000000000002 29.64 L 19.44 29.759999999999998" fill="none" stroke="black" stroke-width="5"></path></svg>