<svg width="48" height="48" viewBox="0 0 48 48" xmlns="http://www.w3.org/2000/svg"><path d="M 11.64 2.7600000000000002 C 11.52 5.82, 11.459999999999999 4.769999999999999, 11.399999999999999 8.879999999999999 C 11.399999999999999 14.040000000000001, 11.354999999999999 14.775000000000002, 11.399999999999999 19.200000000000003 C 11.489999999999998 22.89, 11.219999999999999 22.68, 11.58 26.58 C 12.21 30.689999999999998, 12.39 31.529999999999994, 12.84 34.8 C 13.11 37.230000000000004, 13.2 37.575, 13.379999999999999 39.660000000000004 C 13.469999999999999 41.400000000000006, 13.469999999999999 41.955, 13.559999999999999 43.14 C 13.649999999999999 43.77, 13.665 43.92, 13.74 44.400000000000006 C 13.8 44.730000000000004, 13.83 44.895, 13.86 45.06 C 13.86 45.06, 13.86 44.985, 13.86 45.06 C 13.86 45.21, 13.86 45.285, 13.86 45.36 L 13.86 45.36" fill="none" stroke="black" stroke-width="5"></path><path d="M 13.26 38.94 C 13.469999999999999 38.94, 13.29 39.03, 13.68 38.94 C 14.25 38.76, 14.175 38.73, 14.82 38.58 C 15.54 38.459999999999994, 15.569999999999997 38.44499999999999, 16.259999999999998 38.339999999999996 C 16.92 38.25, 17.01 38.205, 17.580000000000002 38.160000000000004 C 18.060000000000002 38.160000000000004, 17.939999999999998 38.205000000000005, 18.54 38.160000000000004 C 19.259999999999998 38.07000000000001, 19.275 38.025000000000006, 19.98 37.980000000000004 C 20.67 37.980000000000004, 20.939999999999998 38.010000000000005, 21.36 37.980000000000004 C 21.509999999999998 37.92, 21.585 37.89, 21.66 37.86 L 21.66 37.86" fill="none" stroke="black" stroke-width="5"></path><path d="M 12.54 31.44 C 13.08 31.44, 12.975000000000001 31.44, 13.620000000000001 31.44 C 14.370000000000001 31.44, 14.46 31.53, 15.120000000000001 31.44 C 15.69 31.259999999999998, 15.764999999999997 31.365, 16.259999999999998 31.08 C 16.68 30.689999999999998, 16.68 30.764999999999997, 17.1 30.299999999999997 C 17.520000000000003 29.759999999999998, 17.610000000000003 29.79, 17.94 29.22 C 18.18 28.619999999999997, 18.165 28.695, 18.419999999999998 28.02 C 18.689999999999998 27.27, 18.810000000000002 27.044999999999998, 18.96 26.52 C 18.990000000000002 26.22, 18.915 26.475, 19.02 25.92 C 19.2 25.11, 19.259999999999998 25.019999999999996, 19.38 24.299999999999997 C 19.439999999999998 23.669999999999998, 19.47 23.43, 19.5 23.04 C 19.5 22.89, 19.5 22.815, 19.5 22.740000000000002 C 19.5 22.740000000000002, 19.455 22.695000000000004, 19.5 22.740000000000002 C 19.59 22.83, 19.634999999999998 22.38, 19.68 22.919999999999998 C 19.68 23.91, 19.634999999999998 23.805000000000003, 19.68 24.900000000000002 C 19.77 26.1, 19.695 26.415, 19.86 27.299999999999997 C 20.1 27.869999999999997, 20.145 27.945, 20.34 28.44 C 20.490000000000002 28.86, 20.310000000000002 28.8, 20.64 29.28 C 21.15 29.82, 21.075 29.895, 21.66 30.36 C 22.32 30.75, 22.335 30.884999999999998, 22.98 31.14 C 23.61 31.26, 23.700000000000003 31.32, 24.240000000000002 31.380000000000003 C 24.69 31.380000000000003, 24.75 31.380000000000003, 25.14 31.380000000000003 C 25.47 31.380000000000003, 25.514999999999997 31.395000000000003, 25.799999999999997 31.380000000000003 C 26.04 31.35, 26.04 31.365000000000002, 26.28 31.32 C 26.52 31.26, 26.534999999999997 31.260000000000005, 26.759999999999998 31.200000000000003 C 26.97 31.14, 26.985 31.125, 27.18 31.08 C 27.36 31.049999999999997, 27.33 31.08, 27.54 31.02 C 27.78 30.93, 27.854999999999997 30.899999999999995, 28.02 30.839999999999996 C 28.11 30.81, 28.035000000000004 30.855, 28.200000000000003 30.78 C 28.44 30.66, 28.455000000000002 30.735, 28.68 30.54 C 28.89 30.27, 28.935 30.255, 29.099999999999998 30 C 29.22 29.759999999999998, 29.234999999999996 29.955, 29.339999999999996 29.52 C 29.43 28.89, 29.43 29.25, 29.52 28.259999999999998 C 29.61 26.909999999999997, 29.655 26.759999999999998, 29.700000000000003 25.56 C 29.700000000000003 24.509999999999998, 29.760000000000005 24.54, 29.700000000000003 23.46 C 29.580000000000002 22.35, 29.520000000000003 21.915000000000003, 29.46 21.240000000000002 C 29.46 21, 29.46 20.88, 29.46 20.759999999999998 C 29.46 20.759999999999998, 29.46 20.759999999999998, 29.46 20.759999999999998 L 29.46 20.759999999999998" fill="none" stroke="black" stroke-width="5"></path></svg>