<svg width="48" height="48" viewBox="0 0 48 48" xmlns="http://www.w3.org/2000/svg"><path d="M 16.44 34.32 C 16.44 35.129999999999995, 16.470000000000002 35.084999999999994, 16.44 35.94 C 16.380000000000003 36.84, 16.35 36.795, 16.32 37.74 C 16.32 38.730000000000004, 16.41 38.73, 16.32 39.72 C 16.14 40.71, 16.215 40.92, 15.96 41.7 C 15.629999999999999 42.269999999999996, 15.764999999999999 42.315, 15.299999999999999 42.839999999999996 C 14.7 43.31999999999999, 14.595 43.529999999999994, 14.100000000000001 43.8 C 13.71 43.86, 13.815000000000001 43.845, 13.32 43.92 C 12.72 44.01, 12.63 44.099999999999994, 12.120000000000001 44.099999999999994 C 11.7 44.01, 11.745 44.22, 11.28 43.92 C 10.77 43.410000000000004, 10.68 43.410000000000004, 10.26 42.900000000000006 C 9.93 42.39, 10.005 42.58500000000001, 9.600000000000001 41.88 C 9.120000000000001 40.980000000000004, 8.985000000000001 40.905, 8.64 40.08 C 8.43 39.33, 8.325000000000001 39.3, 8.22 38.58 C 8.22 37.89, 8.22 37.83, 8.22 37.2 C 8.22 36.63, 8.115 36.72, 8.22 36.06 C 8.43 35.31, 8.385000000000002 35.115, 8.64 34.56 C 8.940000000000001 34.2, 8.925 34.11, 9.24 33.839999999999996 C 9.57 33.66, 9.54 33.57, 9.899999999999999 33.480000000000004 C 10.29 33.480000000000004, 10.334999999999999 33.480000000000004, 10.68 33.480000000000004 C 10.98 33.480000000000004, 10.785 33.480000000000004, 11.28 33.480000000000004 C 11.969999999999999 33.480000000000004, 12 33.480000000000004, 12.66 33.480000000000004 C 13.29 33.480000000000004, 13.169999999999998 33.480000000000004, 13.919999999999998 33.480000000000004 C 14.79 33.480000000000004, 15.03 33.465, 15.66 33.480000000000004 C 16.05 33.510000000000005, 15.915000000000003 33.45, 16.44 33.54 C 17.1 33.69, 17.189999999999998 33.66, 17.759999999999998 33.839999999999996 C 18.24 34.05, 18.119999999999997 34.004999999999995, 18.72 34.26 C 19.439999999999998 34.56, 19.485 34.665, 20.16 34.86 C 20.79 34.95, 20.88 34.995, 21.419999999999998 35.04 C 21.869999999999997 35.04, 21.6 35.04, 22.32 35.04 C 23.31 35.04, 23.564999999999998 35.04, 24.299999999999997 35.04 C 24.779999999999998 35.04, 24.734999999999996 35.1, 25.259999999999998 35.04 C 25.83 34.92, 25.830000000000002 35.025, 26.400000000000002 34.8 C 26.97 34.47, 27.09 34.425, 27.54 34.14 C 27.87 33.900000000000006, 27.78 33.99, 28.200000000000003 33.660000000000004 C 28.71 33.24, 28.814999999999998 33.285000000000004, 29.22 32.82 C 29.52 32.31, 29.490000000000002 32.565, 29.82 31.799999999999997 C 30.18 30.779999999999998, 30.314999999999998 30.659999999999997, 30.54 29.759999999999998 C 30.63 28.98, 30.674999999999997 29.370000000000005, 30.72 28.200000000000003 C 30.72 26.64, 30.735 26.939999999999998, 30.72 25.08 C 30.69 22.919999999999998, 30.720000000000002 22.334999999999997, 30.660000000000004 20.759999999999998 C 30.57 19.77, 30.57 19.965, 30.48 18.78 C 30.39 17.4, 30.389999999999997 17.4, 30.299999999999997 16.02 C 30.209999999999997 14.64, 30.209999999999997 14.55, 30.119999999999997 13.26 C 30.03 12.059999999999999, 29.985 11.73, 29.94 10.86 C 29.94 10.32, 29.94 10.2, 29.94 9.78 C 29.94 9.48, 29.94 9.525, 29.94 9.18 C 29.94 8.79, 29.970000000000002 8.669999999999998, 29.94 8.399999999999999 C 29.880000000000003 8.25, 29.85 8.175, 29.82 8.100000000000001 C 29.82 8.100000000000001, 29.82 8.100000000000001, 29.82 8.100000000000001 C 29.82 8.100000000000001, 29.82 8.100000000000001, 29.82 8.100000000000001 C 29.82 8.100000000000001, 29.835 8.145000000000001, 29.82 8.100000000000001 C 29.79 8.010000000000002, 29.775 7.965, 29.759999999999998 7.92 C 29.759999999999998 7.92, 29.775 7.965, 29.759999999999998 7.92 C 29.73 7.83, 29.775000000000002 7.800000000000001, 29.700000000000003 7.74 C 29.580000000000002 7.71, 29.67 7.695, 29.46 7.68 C 29.16 7.68, 29.13 7.68, 28.86 7.68 C 28.62 7.68, 28.650000000000002 7.68, 28.380000000000003 7.68 C 28.080000000000002 7.68, 28.050000000000004 7.68, 27.78 7.68 C 27.54 7.68, 27.689999999999998 7.68, 27.299999999999997 7.68 C 26.759999999999998 7.68, 26.759999999999998 7.68, 26.22 7.68 C 25.68 7.68, 25.634999999999998 7.664999999999999, 25.14 7.68 C 24.69 7.71, 24.585 7.725, 24.240000000000002 7.74 C 24 7.74, 24.029999999999998 7.74, 23.759999999999998 7.74 C 23.46 7.74, 23.31 7.74, 23.16 7.74 C 23.16 7.74, 23.16 7.74, 23.16 7.74 C 23.16 7.74, 23.16 7.74, 23.16 7.74 L 23.16 7.74" fill="none" stroke="black" stroke-width="5"></path></svg>