<svg width="48" height="48" viewBox="0 0 48 48" xmlns="http://www.w3.org/2000/svg"><path d="M 11.28 38.76 C 11.309999999999999 38.79, 11.205 38.76, 11.34 38.82 C 11.58 38.91, 11.370000000000001 38.955, 11.82 39 C 12.48 39, 12.495000000000001 39, 13.14 39 C 13.77 39, 13.575 39.045, 14.399999999999999 39 C 15.42 38.91, 15.450000000000001 38.91, 16.44 38.82 C 17.4 38.730000000000004, 17.415 38.775, 18.36 38.64 C 19.29 38.46, 19.515 38.415000000000006, 20.22 38.28 C 20.7 38.19, 20.744999999999997 38.144999999999996, 21.18 38.099999999999994 C 21.57 38.099999999999994, 21.765 38.099999999999994, 21.96 38.099999999999994 L 21.96 38.099999999999994" fill="none" stroke="black" stroke-width="5"></path><path d="M 12.24 45.54 C 12.120000000000001 44.489999999999995, 12.06 44.43, 12 43.44 C 12 42.51, 12.09 42.495, 12 41.58 C 11.82 40.68, 11.73 40.650000000000006, 11.64 39.78 C 11.64 38.94, 11.685 39.029999999999994, 11.64 38.099999999999994 C 11.55 37.08, 11.504999999999999 37.44, 11.459999999999999 36.06 C 11.459999999999999 34.32, 11.459999999999999 34.635, 11.459999999999999 32.58 C 11.459999999999999 30.209999999999997, 11.459999999999999 29.909999999999997, 11.459999999999999 27.839999999999996 C 11.459999999999999 26.069999999999997, 11.459999999999999 25.619999999999997, 11.459999999999999 24.299999999999997 C 11.459999999999999 23.43, 11.459999999999999 23.669999999999998, 11.459999999999999 22.56 C 11.459999999999999 21.21, 11.459999999999999 20.895, 11.459999999999999 19.86 C 11.459999999999999 19.14, 11.459999999999999 19.08, 11.459999999999999 18.419999999999998 C 11.459999999999999 17.82, 11.415 17.639999999999997, 11.459999999999999 17.22 C 11.55 16.98, 11.475 17.055, 11.64 16.740000000000002 C 11.88 16.35, 11.790000000000001 16.305, 12.120000000000001 15.96 C 12.540000000000001 15.66, 12.585 15.54, 12.96 15.36 C 13.290000000000001 15.3, 13.305000000000001 15.255, 13.620000000000001 15.24 C 13.920000000000002 15.27, 13.860000000000001 15.209999999999999, 14.22 15.299999999999999 C 14.64 15.45, 14.655 15.405000000000001, 15.059999999999999 15.600000000000001 C 15.45 15.840000000000002, 15.45 15.735000000000003, 15.84 16.080000000000002 C 16.23 16.53, 16.245 16.41, 16.62 16.98 C 16.98 17.67, 16.995 17.625, 17.34 18.36 C 17.67 19.14, 17.76 19.034999999999997, 18 19.919999999999998 C 18.15 20.909999999999997, 18.134999999999998 20.985, 18.299999999999997 21.9 C 18.479999999999997 22.740000000000002, 18.525 22.725, 18.66 23.580000000000002 C 18.75 24.450000000000003, 18.78 24.810000000000002, 18.84 25.32 C 18.869999999999997 25.47, 18.884999999999998 25.544999999999998, 18.9 25.619999999999997 C 18.9 25.619999999999997, 18.9 25.619999999999997, 18.9 25.619999999999997 C 18.9 25.619999999999997, 18.9 25.619999999999997, 18.9 25.619999999999997 C 18.9 25.619999999999997, 18.869999999999997 25.679999999999996, 18.9 25.619999999999997 C 18.96 25.5, 19.005 25.785000000000004, 19.02 25.380000000000003 C 18.990000000000002 24.69, 18.975 24.54, 18.96 24 C 18.96 23.61, 18.96 23.7, 18.96 23.22 C 18.96 22.65, 18.945 22.665000000000003, 18.96 22.080000000000002 C 18.990000000000002 21.48, 18.975 21.509999999999998, 19.02 20.88 C 19.08 20.22, 19.080000000000002 20.13, 19.14 19.56 C 19.2 19.08, 19.169999999999998 19.035, 19.259999999999998 18.6 C 19.38 18.21, 19.365000000000002 18.18, 19.5 17.82 C 19.65 17.490000000000002, 19.589999999999996 17.46, 19.799999999999997 17.16 C 20.07 16.89, 20.085 16.89, 20.34 16.62 C 20.58 16.35, 20.565 16.305000000000003, 20.82 16.080000000000002 C 21.09 15.900000000000002, 21.075 15.885000000000002, 21.36 15.72 C 21.66 15.57, 21.6 15.584999999999999, 21.96 15.419999999999998 C 22.38 15.239999999999998, 22.349999999999998 15.194999999999999, 22.799999999999997 15.059999999999999 C 23.279999999999998 14.969999999999999, 23.415 14.924999999999999, 23.759999999999998 14.879999999999999 C 23.97 14.879999999999999, 23.805 14.864999999999998, 24.18 14.879999999999999 C 24.72 14.91, 24.75 14.925, 25.259999999999998 14.940000000000001 C 25.74 14.940000000000001, 25.784999999999997 14.910000000000002, 26.22 14.940000000000001 C 26.61 15, 26.775 15.03, 27 15.059999999999999 C 27.06 15.059999999999999, 27.044999999999998 15.059999999999999, 27.119999999999997 15.059999999999999 C 27.209999999999997 15.059999999999999, 27.254999999999995 15.059999999999999, 27.299999999999997 15.059999999999999 C 27.299999999999997 15.059999999999999, 27.299999999999997 15.059999999999999, 27.299999999999997 15.059999999999999 C 27.299999999999997 15.059999999999999, 27.299999999999997 15.059999999999999, 27.299999999999997 15.059999999999999 C 27.299999999999997 15.059999999999999, 27.299999999999997 15.059999999999999, 27.299999999999997 15.059999999999999 C 27.299999999999997 15.059999999999999, 27.299999999999997 15.059999999999999, 27.299999999999997 15.059999999999999 C 27.299999999999997 15.059999999999999, 27.299999999999997 15.059999999999999, 27.299999999999997 15.059999999999999 C 27.299999999999997 15.059999999999999, 27.284999999999997 15.059999999999999, 27.299999999999997 15.059999999999999 C 27.33 15.059999999999999, 27.33 15.299999999999997, 27.36 15.059999999999999 C 27.39 14.58, 27.405 14.88, 27.42 14.100000000000001 C 27.42 13.02, 27.465000000000003 13.11, 27.42 11.94 C 27.330000000000002 10.68, 27.285000000000004 10.485, 27.240000000000002 9.42 C 27.240000000000002 8.55, 27.240000000000002 8.399999999999999, 27.240000000000002 7.68 C 27.240000000000002 7.11, 27.240000000000002 7.050000000000001, 27.240000000000002 6.540000000000001 C 27.240000000000002 6.09, 27.240000000000002 5.91, 27.240000000000002 5.64 C 27.240000000000002 5.55, 27.240000000000002 5.505, 27.240000000000002 5.46 C 27.240000000000002 5.46, 27.240000000000002 5.46, 27.240000000000002 5.46 L 27.240000000000002 5.46" fill="none" stroke="black" stroke-width="5"></path></svg>