<svg width="48" height="48" viewBox="0 0 48 48" xmlns="http://www.w3.org/2000/svg"><path d="M 14.04 28.98 C 14.879999999999999 28.98, 14.58 28.98, 15.72 28.98 C 17.16 28.98, 17.265 28.98, 18.6 28.98 C 19.83 28.98, 20.085 28.98, 21.06 28.98 C 21.78 28.98, 21.69 28.935, 22.5 28.98 C 23.4 29.07, 23.474999999999998 29.115000000000002, 24.299999999999997 29.160000000000004 C 25.049999999999997 29.160000000000004, 25.109999999999996 29.160000000000004, 25.799999999999997 29.160000000000004 C 26.43 29.160000000000004, 26.474999999999998 29.190000000000005, 27.06 29.160000000000004 C 27.6 29.1, 27.66 29.145, 28.14 29.04 C 28.560000000000002 28.89, 28.560000000000002 28.92, 28.98 28.740000000000002 C 29.4 28.53, 29.4 28.665, 29.82 28.32 C 30.240000000000002 27.84, 30.315000000000005 27.84, 30.660000000000004 27.36 C 30.930000000000003 26.880000000000003, 31.020000000000003 26.835, 31.200000000000003 26.400000000000002 C 31.290000000000003 26.009999999999998, 31.320000000000004 26.31, 31.380000000000003 25.619999999999997 C 31.410000000000004 24.63, 31.425 24.75, 31.44 23.64 C 31.44 22.41, 31.44 22.41, 31.44 21.18 C 31.44 19.95, 31.44 19.86, 31.44 18.72 C 31.44 17.67, 31.44 17.715, 31.44 16.62 C 31.44 15.48, 31.44 15.495000000000001, 31.44 14.34 C 31.44 13.17, 31.44 13.035, 31.44 12 C 31.44 11.1, 31.44 10.934999999999999, 31.44 10.2 C 31.44 9.629999999999999, 31.44 9.705, 31.44 9.06 C 31.44 8.34, 31.485000000000003 8.1, 31.44 7.62 C 31.35 7.38, 31.319999999999997 7.335, 31.259999999999998 7.14 C 31.23 6.99, 31.305000000000003 7.08, 31.200000000000003 6.84 C 31.02 6.51, 30.99 6.465, 30.839999999999996 6.18 C 30.72 5.9399999999999995, 30.705 5.909999999999999, 30.599999999999998 5.699999999999999 C 30.509999999999998 5.52, 30.495 5.444999999999999, 30.42 5.34 C 30.36 5.3100000000000005, 30.419999999999998 5.295, 30.299999999999997 5.28 C 30.119999999999997 5.28, 30.21 5.28, 29.94 5.28 C 29.58 5.28, 29.595 5.28, 29.22 5.28 C 28.83 5.28, 28.8 5.28, 28.44 5.28 C 28.11 5.28, 28.035 5.28, 27.78 5.28 C 27.6 5.28, 27.630000000000003 5.28, 27.42 5.28 C 27.18 5.28, 27.18 5.28, 26.94 5.28 C 26.700000000000003 5.28, 26.73 5.235, 26.46 5.28 C 26.16 5.37, 26.055 5.415, 25.86 5.46 C 25.77 5.46, 25.755 5.46, 25.68 5.46 C 25.619999999999997 5.46, 25.68 5.46, 25.56 5.46 C 25.380000000000003 5.46, 25.320000000000004 5.46, 25.200000000000003 5.46 C 25.14 5.46, 25.11 5.46, 25.08 5.46 C 25.08 5.46, 25.08 5.46, 25.08 5.46 L 25.08 5.46" fill="none" stroke="black" stroke-width="5"></path><path d="M 22.919999999999998 33.839999999999996 C 22.14 33.959999999999994, 21.96 33.915, 21.36 34.08 C 20.939999999999998 34.29, 21.09 34.004999999999995, 20.52 34.5 C 19.8 35.28, 19.590000000000003 35.205, 19.080000000000002 36.06 C 18.78 36.99, 18.645000000000003 36.93000000000001, 18.48 37.92 C 18.45 38.97, 18.345 39.015, 18.419999999999998 40.019999999999996 C 18.6 40.98, 18.48 41.16, 18.78 41.94 C 19.200000000000003 42.54, 19.200000000000003 42.629999999999995, 19.62 43.14 C 20.04 43.56, 19.98 43.650000000000006, 20.46 43.980000000000004 C 21 44.22, 20.985 44.34, 21.54 44.46 C 22.11 44.46, 22.02 44.565, 22.68 44.46 C 23.43 44.25, 23.475 44.34, 24.18 44.04 C 24.84 43.65, 24.9 43.739999999999995, 25.5 43.26 C 26.04 42.69, 26.174999999999997 42.69, 26.58 42.12 C 26.849999999999998 41.55, 26.909999999999997 41.760000000000005, 27.119999999999997 40.980000000000004 C 27.27 39.99, 27.345 40.019999999999996, 27.42 39 C 27.42 37.95, 27.6 37.75500000000001, 27.42 36.900000000000006 C 27.060000000000002 36.24, 27.000000000000004 36.075, 26.700000000000003 35.58 C 26.46 35.25, 26.595 35.28, 26.22 34.92 C 25.71 34.53, 25.725 34.425, 25.200000000000003 34.14 C 24.66 33.96, 24.599999999999998 33.870000000000005, 24.119999999999997 33.78 C 23.7 33.78, 23.685000000000002 33.78, 23.28 33.78 C 22.89 33.78, 22.845 33.78, 22.5 33.78 C 22.2 33.78, 22.095 33.765, 21.9 33.78 L 21.72 33.839999999999996" fill="none" stroke="black" stroke-width="5"></path></svg>