<svg width="48" height="48" viewBox="0 0 48 48" xmlns="http://www.w3.org/2000/svg"><path d="M 14.82 32.519999999999996 C 15.24 32.94, 15.3 32.519999999999996, 15.66 33.36 C 15.959999999999999 34.620000000000005, 16.064999999999998 34.77, 16.259999999999998 35.88 C 16.35 36.84, 16.395 37.035, 16.44 37.8 C 16.44 38.37, 16.44 38.294999999999995, 16.44 38.94 C 16.44 39.66, 16.485000000000003 39.825, 16.44 40.38 C 16.35 40.77, 16.56 40.72500000000001, 16.259999999999998 41.160000000000004 C 15.75 41.64, 15.69 41.79, 15.24 42.12 C 14.850000000000001 42.3, 14.82 42.39, 14.46 42.480000000000004 C 14.129999999999999 42.480000000000004, 14.114999999999998 42.480000000000004, 13.799999999999999 42.480000000000004 C 13.5 42.480000000000004, 13.59 42.540000000000006, 13.200000000000001 42.480000000000004 C 12.72 42.36, 12.795 42.58500000000001, 12.24 42.24 C 11.61 41.67, 11.4 41.73, 10.98 41.099999999999994 C 10.77 40.41, 10.92 40.98, 10.56 39.72 C 10.05 37.89, 10.020000000000001 38.145, 9.540000000000001 36.06 C 9.09 33.72, 8.955000000000002 33.825, 8.64 31.380000000000003 C 8.46 28.830000000000002, 8.355 28.830000000000002, 8.28 26.28 C 8.309999999999999 23.73, 8.219999999999999 23.384999999999998, 8.34 21.18 C 8.55 19.32, 8.475 19.095, 8.76 17.46 C 9.120000000000001 16.05, 9.165000000000001 15.765, 9.48 14.64 C 9.75 13.8, 9.719999999999999 13.59, 10.02 12.96 C 10.35 12.540000000000001, 10.395 12.495000000000001, 10.68 12.120000000000001 C 10.92 11.79, 10.875 11.684999999999999, 11.16 11.459999999999999 C 11.49 11.34, 11.49 11.280000000000001, 11.82 11.22 C 12.15 11.22, 12.15 11.115, 12.48 11.22 C 12.81 11.43, 12.75 11.295, 13.14 11.64 C 13.59 12.120000000000001, 13.649999999999999 12.120000000000001, 14.04 12.600000000000001 C 14.370000000000001 13.08, 14.325000000000001 12.989999999999998, 14.700000000000001 13.559999999999999 C 15.120000000000001 14.219999999999999, 15.165 14.174999999999999, 15.54 14.879999999999999 C 15.870000000000001 15.629999999999999, 15.930000000000003 15.569999999999999, 16.200000000000003 16.38 C 16.410000000000004 17.25, 16.470000000000002 17.115000000000002, 16.62 18.12 C 16.71 19.259999999999998, 16.709999999999997 19.215, 16.799999999999997 20.4 C 16.89 21.63, 16.89 21.884999999999998, 16.98 22.86 C 17.07 23.58, 17.07 23.819999999999997, 17.16 24.299999999999997 C 17.25 24.54, 17.28 24.57, 17.34 24.78 C 17.369999999999997 24.96, 17.354999999999997 25.020000000000003, 17.4 25.14 C 17.46 25.2, 17.295 25.154999999999998, 17.52 25.259999999999998 C 17.909999999999997 25.409999999999997, 17.909999999999997 25.485, 18.299999999999997 25.56 C 18.689999999999998 25.56, 18.6 25.56, 19.080000000000002 25.56 C 19.65 25.56, 19.47 25.56, 20.22 25.56 C 21.15 25.56, 21.090000000000003 25.575, 22.080000000000002 25.56 C 23.130000000000003 25.53, 23.325 25.515, 24.18 25.5 C 24.84 25.5, 25.095 25.5, 25.5 25.5 C 25.65 25.5, 25.724999999999998 25.5, 25.799999999999997 25.5 C 25.799999999999997 25.5, 25.799999999999997 25.5, 25.799999999999997 25.5 L 25.799999999999997 25.5" fill="none" stroke="black" stroke-width="5"></path><path d="M 25.02 10.32 C 25.02 11.94, 24.974999999999998 11.669999999999998, 25.02 13.559999999999999 C 25.11 15.719999999999999, 25.155 16.169999999999998, 25.200000000000003 17.88 C 25.200000000000003 19.14, 25.155 18.93, 25.200000000000003 20.4 C 25.290000000000003 22.08, 25.335 22.199999999999996, 25.380000000000003 23.759999999999998 C 25.380000000000003 25.2, 25.380000000000003 25.005000000000003, 25.380000000000003 26.64 C 25.380000000000003 28.47, 25.380000000000003 28.47, 25.380000000000003 30.299999999999997 C 25.380000000000003 32.129999999999995, 25.380000000000003 32.445, 25.380000000000003 33.96 C 25.380000000000003 35.16, 25.380000000000003 35.19, 25.380000000000003 36.36 C 25.380000000000003 37.5, 25.380000000000003 37.665, 25.380000000000003 38.64 C 25.380000000000003 39.45, 25.380000000000003 39.51, 25.380000000000003 40.26 C 25.380000000000003 40.95, 25.380000000000003 41.1, 25.380000000000003 41.64 C 25.380000000000003 42.03, 25.380000000000003 42.075, 25.380000000000003 42.42 C 25.380000000000003 42.72, 25.380000000000003 42.87, 25.380000000000003 43.019999999999996 L 25.380000000000003 43.019999999999996" fill="none" stroke="black" stroke-width="5"></path></svg>