<svg width="48" height="48" viewBox="0 0 48 48" xmlns="http://www.w3.org/2000/svg"><path d="M 12.059999999999999 4.32 C 12.059999999999999 4.62, 12.059999999999999 4.545, 12.059999999999999 4.92 C 12.059999999999999 5.37, 12.059999999999999 5.355, 12.059999999999999 5.82 C 12.059999999999999 6.3, 12.059999999999999 6.18, 12.059999999999999 6.779999999999999 C 12.059999999999999 7.5, 12.149999999999999 7.440000000000001, 12.059999999999999 8.22 C 11.879999999999999 9.059999999999999, 11.879999999999999 8.895, 11.7 9.899999999999999 C 11.52 11.07, 11.475 11.219999999999999, 11.34 12.24 C 11.25 13.11, 11.205 12.885, 11.16 13.98 C 11.16 15.3, 11.205 15.225000000000001, 11.16 16.62 C 11.07 18.09, 10.950000000000001 18.224999999999998, 10.98 19.56 C 11.129999999999999 20.759999999999998, 11.07 20.985, 11.28 21.96 C 11.55 22.71, 11.55 22.665, 11.82 23.46 C 12.09 24.3, 12 24.48, 12.36 25.14 C 12.809999999999999 25.619999999999997, 12.870000000000001 25.724999999999998, 13.26 26.099999999999998 C 13.59 26.369999999999997, 13.604999999999999 26.49, 13.919999999999998 26.64 C 14.219999999999999 26.67, 13.934999999999999 26.64, 14.52 26.700000000000003 C 15.389999999999999 26.790000000000003, 15.599999999999998 27.015, 16.259999999999998 26.880000000000003 C 16.71 26.520000000000003, 16.83 26.730000000000004, 17.16 26.160000000000004 C 17.37 25.380000000000003, 17.355000000000004 25.515, 17.580000000000002 24.599999999999998 C 17.82 23.549999999999997, 17.895 23.325, 18.06 22.5 C 18.15 21.9, 18.195 21.794999999999998, 18.240000000000002 21.299999999999997 C 18.240000000000002 20.909999999999997, 18.225 20.835, 18.240000000000002 20.52 C 18.27 20.28, 18.255 20.265, 18.299999999999997 20.04 C 18.36 19.83, 18.374999999999996 19.77, 18.419999999999998 19.62 C 18.45 19.53, 18.375 19.395000000000003, 18.48 19.44 C 18.66 19.619999999999997, 18.689999999999998 19.319999999999997, 18.84 19.799999999999997 C 18.96 20.58, 18.990000000000002 20.52, 19.080000000000002 21.36 C 19.14 22.259999999999998, 19.095000000000002 22.335, 19.200000000000003 23.16 C 19.35 23.910000000000004, 19.32 24.045000000000005, 19.5 24.660000000000004 C 19.71 25.14, 19.619999999999997 25.034999999999997, 19.919999999999998 25.619999999999997 C 20.310000000000002 26.31, 20.175000000000004 26.475, 20.700000000000003 27 C 21.36 27.36, 21.39 27.54, 22.02 27.72 C 22.619999999999997 27.72, 22.68 27.72, 23.22 27.72 C 23.7 27.72, 23.505 27.884999999999998, 24.18 27.72 C 25.05 27.39, 25.275000000000002 27.36, 25.92 27.06 C 26.34 26.79, 26.34 26.775, 26.759999999999998 26.52 C 27.18 26.28, 27.194999999999997 26.235, 27.599999999999998 26.04 C 27.990000000000002 25.89, 27.975 25.92, 28.380000000000003 25.740000000000002 C 28.8 25.53, 28.98 25.455, 29.22 25.32 C 29.279999999999998 25.26, 29.309999999999995 25.230000000000004, 29.339999999999996 25.200000000000003 C 29.339999999999996 25.200000000000003, 29.294999999999995 25.200000000000003, 29.339999999999996 25.200000000000003 C 29.43 25.200000000000003, 29.474999999999998 25.200000000000003, 29.52 25.200000000000003 L 29.52 25.200000000000003" fill="none" stroke="black" stroke-width="5"></path><path d="M 27.18 17.22 C 27.33 17.58, 27.240000000000002 17.355, 27.48 17.94 C 27.810000000000002 18.75, 27.825 18.645, 28.14 19.56 C 28.44 20.58, 28.485 20.805, 28.740000000000002 21.6 C 28.950000000000003 22.17, 29.010000000000005 21.96, 29.160000000000004 22.740000000000002 C 29.25 23.73, 29.249999999999996 23.31, 29.339999999999996 24.72 C 29.43 26.55, 29.415 26.505000000000003, 29.52 28.380000000000003 C 29.64 30.3, 29.654999999999998 30.299999999999997, 29.759999999999998 32.22 C 29.85 34.14, 29.895 34.605000000000004, 29.94 36.06 C 29.94 37.05, 30.135 36.765, 29.94 38.04 C 29.550000000000004 39.6, 29.850000000000005 39.81, 29.160000000000004 41.160000000000004 C 28.17 42.3, 28.17 42.675, 27.18 43.44 C 26.19 43.83, 25.905 44.025, 25.200000000000003 44.22 C 24.78 44.22, 24.78 44.265, 24.36 44.22 C 23.939999999999998 44.129999999999995, 24.06 44.295, 23.52 44.04 C 22.86 43.620000000000005, 22.815000000000005 43.935, 22.200000000000003 43.2 C 21.630000000000003 42.15, 21.39 42.17999999999999, 21.06 41.099999999999994 C 20.97 39.989999999999995, 20.759999999999998 39.96, 20.88 38.88 C 21.21 37.83, 20.64 37.980000000000004, 21.54 36.78 C 23.009999999999998 35.43, 23.189999999999998 35.07, 24.48 34.08 C 25.590000000000003 33.45, 25.845000000000002 33.195, 26.700000000000003 32.82 C 27.300000000000004 32.7, 27.300000000000004 32.64, 27.900000000000002 32.58 C 28.5 32.58, 28.634999999999998 32.565, 29.099999999999998 32.58 C 29.43 32.61, 29.564999999999998 32.595, 29.759999999999998 32.64 C 29.82 32.7, 29.85 32.73, 29.880000000000003 32.76 L 29.880000000000003 32.76" fill="none" stroke="black" stroke-width="5"></path></svg>