<svg width="48" height="48" viewBox="0 0 48 48" xmlns="http://www.w3.org/2000/svg"><path d="M 12.24 4.74 C 12.149999999999999 5.73, 12.209999999999999 4.9350000000000005, 12.059999999999999 6.720000000000001 C 11.85 9.3, 11.85 9.405, 11.64 11.879999999999999 C 11.43 14.25, 11.325000000000001 14.865000000000002, 11.22 16.62 C 11.22 17.759999999999998, 11.280000000000001 17.445, 11.22 18.9 C 11.100000000000001 20.67, 11.085 20.565, 10.98 22.44 C 10.89 24.42, 10.845 24.69, 10.8 26.400000000000002 C 10.8 27.840000000000003, 10.8 27.765, 10.8 29.28 C 10.8 30.87, 10.8 31.215000000000003, 10.8 32.46 C 10.8 33.36, 10.755 33.18, 10.8 34.26 C 10.89 35.519999999999996, 10.8 35.655, 10.98 36.78 C 11.25 37.769999999999996, 11.19 37.845, 11.52 38.76 C 11.91 39.599999999999994, 12.014999999999999 39.855, 12.299999999999999 40.44 C 12.48 40.769999999999996, 12.36 40.66499999999999, 12.66 41.099999999999994 C 13.08 41.64, 13.125 41.82, 13.5 42.18 C 13.83 42.36, 13.8 42.45, 14.16 42.54 C 14.55 42.54, 14.55 42.54, 14.940000000000001 42.54 C 15.330000000000002 42.54, 15.330000000000002 42.54, 15.72 42.54 C 16.11 42.54, 16.05 42.629999999999995, 16.5 42.54 C 17.009999999999998 42.36, 16.95 42.54, 17.52 42.18 C 18.15 41.64, 18.150000000000002 41.699999999999996, 18.78 41.099999999999994 C 19.41 40.44, 19.634999999999998 40.275, 20.04 39.78 C 20.22 39.45, 20.279999999999998 39.599999999999994, 20.4 39.12 C 20.46 38.489999999999995, 20.49 38.61, 20.52 37.86 C 20.52 36.989999999999995, 20.67 36.93, 20.52 36.12 C 20.22 35.37, 20.174999999999997 35.19, 19.919999999999998 34.62 C 19.71 34.23, 19.725 34.199999999999996, 19.5 33.839999999999996 C 19.259999999999998 33.51, 19.439999999999998 33.644999999999996, 19.02 33.18 C 18.42 32.58, 18.45 32.43, 17.82 31.98 C 17.16 31.68, 17.16 31.575000000000003, 16.5 31.380000000000003 C 15.84 31.290000000000003, 15.75 31.245000000000005, 15.18 31.200000000000003 C 14.7 31.200000000000003, 14.64 31.200000000000003, 14.22 31.200000000000003 C 13.86 31.200000000000003, 13.965 31.080000000000005, 13.5 31.200000000000003 C 12.93 31.44, 12.735 31.53, 12.36 31.68 C 12.18 31.74, 12.21 31.665, 12 31.799999999999997 C 11.76 32.01, 11.684999999999999 32.06999999999999, 11.52 32.22 C 11.43 32.31, 11.385 32.355000000000004, 11.34 32.400000000000006 C 11.34 32.400000000000006, 11.34 32.400000000000006, 11.34 32.400000000000006 C 11.34 32.400000000000006, 11.34 32.400000000000006, 11.34 32.400000000000006 L 11.34 32.400000000000006" fill="none" stroke="black" stroke-width="5"></path><path d="M 11.22 25.68 C 11.4 25.65, 11.175 25.634999999999998, 11.58 25.619999999999997 C 12.21 25.619999999999997, 12.195 25.574999999999996, 12.84 25.619999999999997 C 13.5 25.709999999999997, 13.44 25.754999999999995, 14.16 25.799999999999997 C 14.940000000000001 25.799999999999997, 14.925 25.754999999999995, 15.72 25.799999999999997 C 16.53 25.89, 16.605 25.935, 17.34 25.98 C 18 25.98, 18.075 25.98, 18.66 25.98 C 19.17 25.98, 19.155 25.98, 19.68 25.98 C 20.22 25.98, 20.264999999999997 25.98, 20.759999999999998 25.98 C 21.21 25.98, 21.27 25.98, 21.66 25.98 C 21.990000000000002 25.98, 21.975 25.98, 22.32 25.98 C 22.68 25.98, 22.71 26.01, 23.04 25.98 C 23.34 25.92, 23.295 26.04, 23.64 25.86 C 24.03 25.56, 24.060000000000002 25.575, 24.42 25.259999999999998 C 24.75 24.93, 24.765 24.929999999999996, 25.08 24.599999999999998 C 25.38 24.27, 25.485 24.225, 25.68 23.94 C 25.77 23.700000000000003, 25.77 23.895, 25.86 23.46 C 25.95 22.830000000000002, 25.95 23.025000000000002, 26.04 22.200000000000003 C 26.13 21.18, 26.174999999999997 21.375, 26.22 20.16 C 26.22 18.75, 26.22 18.555, 26.22 17.34 C 26.22 16.32, 26.205 16.544999999999998, 26.22 15.299999999999999 C 26.25 13.829999999999998, 26.235 13.559999999999999, 26.28 12.36 C 26.340000000000003 11.43, 26.37 11.309999999999999, 26.400000000000002 10.5 C 26.400000000000002 9.81, 26.400000000000002 9.735000000000001, 26.400000000000002 9.120000000000001 C 26.400000000000002 8.580000000000002, 26.400000000000002 8.430000000000001, 26.400000000000002 8.040000000000001 C 26.400000000000002 7.800000000000001, 26.400000000000002 7.680000000000001, 26.400000000000002 7.5600000000000005 C 26.400000000000002 7.5600000000000005, 26.400000000000002 7.5600000000000005, 26.400000000000002 7.5600000000000005 C 26.400000000000002 7.5600000000000005, 26.400000000000002 7.635000000000001, 26.400000000000002 7.5600000000000005 C 26.400000000000002 7.41, 26.46 7.395, 26.400000000000002 7.26 C 26.28 7.14, 26.295000000000005 7.08, 26.160000000000004 7.02 C 26.01 7.02, 26.055 7.0649999999999995, 25.86 7.02 C 25.62 6.93, 25.575000000000003 6.885, 25.380000000000003 6.84 C 25.23 6.84, 25.35 6.84, 25.08 6.84 C 24.689999999999998 6.84, 24.599999999999998 6.84, 24.299999999999997 6.84 C 24.089999999999996 6.84, 24.255 6.84, 23.88 6.84 C 23.339999999999996 6.84, 23.264999999999997 6.885, 22.799999999999997 6.84 C 22.409999999999997 6.75, 22.409999999999997 6.705, 22.02 6.66 C 21.630000000000003 6.66, 21.6 6.6899999999999995, 21.240000000000002 6.66 C 20.910000000000004 6.6000000000000005, 20.775000000000002 6.57, 20.580000000000002 6.540000000000001 C 20.520000000000003 6.540000000000001, 20.490000000000002 6.540000000000001, 20.46 6.540000000000001 C 20.46 6.540000000000001, 20.46 6.540000000000001, 20.46 6.540000000000001 L 20.46 6.540000000000001" fill="none" stroke="black" stroke-width="5"></path></svg>