<svg width="48" height="48" viewBox="0 0 48 48" xmlns="http://www.w3.org/2000/svg"><path d="M 11.459999999999999 35.160000000000004 C 12.09 35.160000000000004, 11.925 35.160000000000004, 12.72 35.160000000000004 C 13.68 35.160000000000004, 13.335 35.34, 14.64 35.160000000000004 C 16.29 34.8, 16.650000000000002 34.71, 17.94 34.44 C 18.869999999999997 34.26, 18.959999999999997 34.379999999999995, 19.799999999999997 34.08 C 20.549999999999997 33.66, 20.639999999999997 33.75, 21.299999999999997 33.24 C 21.869999999999997 32.64, 21.93 32.745, 22.44 32.04 C 22.89 31.23, 23.085 31.020000000000003, 23.34 30.42 C 23.4 30.03, 23.385 30.3, 23.46 29.64 C 23.55 28.71, 23.595 28.425, 23.64 27.78 C 23.64 27.42, 23.64 27.555, 23.64 27.06 C 23.64 26.43, 23.64 26.234999999999996, 23.64 25.799999999999997 C 23.64 25.56, 23.64 25.439999999999998, 23.64 25.32 C 23.64 25.32, 23.595 25.335, 23.64 25.32 C 23.73 25.29, 23.76 24.839999999999996, 23.82 25.259999999999998 C 23.85 26.13, 23.775 26.28, 23.88 27 C 24.060000000000002 27.57, 24.090000000000003 27.585, 24.240000000000002 28.14 C 24.36 28.68, 24.285 28.619999999999997, 24.48 29.22 C 24.75 29.88, 24.75 30, 25.02 30.54 C 25.29 30.96, 25.23 31.020000000000003, 25.56 31.380000000000003 C 25.949999999999996 31.68, 25.859999999999996 31.785, 26.339999999999996 31.98 C 26.909999999999997 32.07, 26.744999999999997 32.190000000000005, 27.48 32.160000000000004 C 28.380000000000003 32.010000000000005, 28.59 32.085, 29.28 31.86 C 29.76 31.56, 29.790000000000003 31.709999999999997, 30.240000000000002 31.259999999999998 C 30.66 30.659999999999997, 30.689999999999998 30.824999999999996, 31.08 30.06 C 31.439999999999998 29.130000000000003, 31.455 29.235000000000003, 31.799999999999997 28.200000000000003 C 32.129999999999995 27.060000000000002, 32.22 27.075000000000003, 32.46 25.92 C 32.61 24.75, 32.595 25.185000000000002, 32.76 23.580000000000002 C 32.94 21.54, 32.985 21.255000000000003, 33.12 19.5 C 33.209999999999994 18.03, 33.19499999999999 18.119999999999997, 33.3 16.56 C 33.42 14.91, 33.48 14.655, 33.54 13.26 C 33.54 12.120000000000001, 33.54 12.285, 33.54 10.98 C 33.54 9.510000000000002, 33.54 9.21, 33.54 8.040000000000001 C 33.54 7.170000000000001, 33.54 7.005000000000001, 33.54 6.300000000000001 C 33.54 5.76, 33.54 5.595, 33.54 5.22 C 33.54 5.01, 33.54 4.950000000000001, 33.54 4.800000000000001 C 33.54 4.710000000000001, 33.555 4.7250000000000005, 33.54 4.62 C 33.510000000000005 4.5, 33.525000000000006 4.455, 33.480000000000004 4.38 C 33.42 4.35, 33.51 4.3500000000000005, 33.36 4.32 C 33.120000000000005 4.29, 33.19500000000001 4.32, 32.88 4.26 C 32.489999999999995 4.17, 32.519999999999996 4.125, 32.099999999999994 4.08 C 31.65 4.08, 31.740000000000002 4.08, 31.200000000000003 4.08 C 30.57 4.08, 30.615000000000002 4.08, 29.94 4.08 C 29.22 4.08, 29.445 4.035, 28.5 4.08 C 27.330000000000002 4.17, 26.775000000000006 4.215, 26.160000000000004 4.26 C 26.1 4.26, 26.07 4.26, 26.04 4.26 L 26.04 4.26" fill="none" stroke="black" stroke-width="5"></path><path d="M 11.28 42.599999999999994 C 11.879999999999999 42.599999999999994, 11.55 42.614999999999995, 12.48 42.599999999999994 C 13.74 42.56999999999999, 13.395 42.69, 15 42.54 C 16.95 42.269999999999996, 17.279999999999998 42.225, 18.9 42 C 20.189999999999998 41.82, 20.175 41.79, 21.48 41.64 C 22.799999999999997 41.52, 22.799999999999997 41.50500000000001, 24.119999999999997 41.400000000000006 C 25.439999999999998 41.31, 25.739999999999995 41.265, 26.759999999999998 41.22 C 27.48 41.22, 27.450000000000003 41.265, 28.200000000000003 41.22 C 28.98 41.129999999999995, 29.265 41.085, 29.759999999999998 41.04 C 29.97 41.04, 29.955 41.04, 30.18 41.04 C 30.42 41.04, 30.465000000000003 41.04, 30.660000000000004 41.04 C 30.810000000000002 41.04, 30.885 41.04, 30.96 41.04 C 30.96 41.04, 30.96 41.04, 30.96 41.04 L 30.96 41.04" fill="none" stroke="black" stroke-width="5"></path></svg>