<svg width="48" height="48" viewBox="0 0 48 48" xmlns="http://www.w3.org/2000/svg"><path d="M 15.66 32.82 C 16.32 32.82, 16.125 32.82, 16.98 32.82 C 18.03 32.82, 18.045 32.82, 19.080000000000002 32.82 C 20.1 32.82, 20.1 32.865, 21.12 32.82 C 22.14 32.730000000000004, 22.11 32.760000000000005, 23.16 32.64 C 24.240000000000002 32.489999999999995, 24.525000000000002 32.44499999999999, 25.32 32.339999999999996 C 25.83 32.28, 25.769999999999996 32.309999999999995, 26.339999999999996 32.22 C 26.97 32.1, 27.044999999999998 32.085, 27.599999999999998 31.98 C 28.08 31.89, 28.2 31.859999999999996, 28.56 31.799999999999997 C 28.799999999999997 31.77, 28.799999999999997 31.815, 29.04 31.740000000000002 C 29.28 31.62, 29.205 31.725, 29.52 31.5 C 29.909999999999997 31.169999999999998, 29.97 31.289999999999996, 30.299999999999997 30.839999999999996 C 30.569999999999997 30.27, 30.614999999999995 30.3, 30.839999999999996 29.700000000000003 C 31.02 29.07, 31.095000000000002 29.175000000000004, 31.200000000000003 28.44 C 31.23 27.6, 31.244999999999997 27.75, 31.259999999999998 26.759999999999998 C 31.259999999999998 25.619999999999997, 31.259999999999998 25.665, 31.259999999999998 24.48 C 31.259999999999998 23.25, 31.275 23.384999999999998, 31.259999999999998 22.02 C 31.23 20.52, 31.215000000000003 20.43, 31.200000000000003 19.02 C 31.200000000000003 17.7, 31.200000000000003 17.505, 31.200000000000003 16.38 C 31.200000000000003 15.45, 31.200000000000003 15.57, 31.200000000000003 14.52 C 31.200000000000003 13.35, 31.200000000000003 13.32, 31.200000000000003 12.18 C 31.200000000000003 11.07, 31.200000000000003 10.889999999999999, 31.200000000000003 9.959999999999999 C 31.200000000000003 9.209999999999999, 31.230000000000004 9.18, 31.200000000000003 8.459999999999999 C 31.14 7.77, 31.11 7.574999999999999, 31.08 7.08 C 31.08 6.78, 31.08 6.75, 31.08 6.48 C 31.08 6.24, 31.11 6.24, 31.08 6 C 31.02 5.76, 30.990000000000002 5.640000000000001, 30.96 5.5200000000000005 C 30.96 5.5200000000000005, 30.96 5.5200000000000005, 30.96 5.5200000000000005 C 30.96 5.5200000000000005, 30.975 5.550000000000001, 30.96 5.5200000000000005 C 30.93 5.460000000000001, 30.96 5.4750000000000005, 30.900000000000002 5.4 C 30.810000000000002 5.3100000000000005, 30.84 5.295, 30.72 5.22 C 30.57 5.16, 30.615000000000002 5.13, 30.42 5.1 C 30.18 5.1, 30.21 5.1, 29.94 5.1 C 29.64 5.1, 29.684999999999995 5.1, 29.339999999999996 5.1 C 28.949999999999996 5.1, 28.904999999999998 5.1, 28.56 5.1 C 28.259999999999998 5.1, 28.275000000000002 5.084999999999999, 27.96 5.1 C 27.63 5.13, 27.659999999999997 5.13, 27.299999999999997 5.16 C 26.909999999999997 5.1899999999999995, 26.865 5.1899999999999995, 26.52 5.22 C 26.22 5.25, 26.220000000000002 5.265000000000001, 25.92 5.28 C 25.62 5.28, 25.515 5.28, 25.32 5.28 C 25.23 5.28, 25.26 5.28, 25.14 5.28 C 24.99 5.28, 24.915 5.28, 24.839999999999996 5.28 C 24.839999999999996 5.28, 24.869999999999997 5.28, 24.839999999999996 5.28 C 24.779999999999998 5.28, 24.75 5.28, 24.72 5.28 C 24.72 5.28, 24.72 5.28, 24.72 5.28 L 24.72 5.28" fill="none" stroke="black" stroke-width="5"></path><path d="M 15.48 39.96 C 16.17 39.96, 16.035 40.005, 16.86 39.96 C 17.82 39.870000000000005, 17.685000000000002 39.825, 18.78 39.78 C 20.01 39.78, 19.815 39.78, 21.240000000000002 39.78 C 22.86 39.78, 23.235 39.78, 24.48 39.78 C 25.35 39.78, 25.244999999999997 39.78, 26.22 39.78 C 27.3 39.78, 27.315 39.78, 28.380000000000003 39.78 C 29.43 39.78, 29.835 39.78, 30.48 39.78 C 30.72 39.78, 30.72 39.78, 30.96 39.78 C 31.200000000000003 39.78, 31.32 39.78, 31.44 39.78 C 31.44 39.78, 31.44 39.78, 31.44 39.78 L 31.44 39.78" fill="none" stroke="black" stroke-width="5"></path></svg>