<svg width="48" height="48" viewBox="0 0 48 48" xmlns="http://www.w3.org/2000/svg"><path d="M 15.66 5.4 C 16.200000000000003 5.4, 16.32 5.4, 16.740000000000002 5.4 C 17.04 5.4, 16.845 5.430000000000001, 17.34 5.4 C 18.03 5.34, 18.075 5.3100000000000005, 18.72 5.28 C 19.32 5.28, 19.424999999999997 5.28, 19.919999999999998 5.28 C 20.310000000000002 5.28, 20.28 5.28, 20.700000000000003 5.28 C 21.150000000000002 5.28, 21.180000000000003 5.28, 21.6 5.28 C 21.990000000000002 5.28, 21.99 5.28, 22.38 5.28 C 22.77 5.28, 22.845 5.28, 23.16 5.28 C 23.4 5.28, 23.415 5.28, 23.64 5.28 C 23.85 5.28, 23.88 5.28, 24.06 5.28 C 24.21 5.28, 24.285 5.28, 24.36 5.28 C 24.36 5.28, 24.314999999999998 5.28, 24.36 5.28 C 24.45 5.28, 24.45 5.235, 24.54 5.28 C 24.63 5.37, 24.63 5.355, 24.72 5.46 C 24.810000000000002 5.58, 24.795 5.504999999999999, 24.900000000000002 5.699999999999999 C 25.020000000000003 5.97, 25.035 5.835, 25.14 6.24 C 25.23 6.78, 25.23 6.825, 25.32 7.32 C 25.41 7.7700000000000005, 25.455 7.695, 25.5 8.22 C 25.5 8.82, 25.455 8.46, 25.5 9.42 C 25.59 10.739999999999998, 25.634999999999998 10.815, 25.68 12.059999999999999 C 25.68 13.229999999999999, 25.68 13.394999999999998, 25.68 14.399999999999999 C 25.68 15.24, 25.68 15.135000000000002, 25.68 16.080000000000002 C 25.68 17.130000000000003, 25.68 17.355, 25.68 18.18 C 25.68 18.78, 25.68 18.72, 25.68 19.38 C 25.68 20.1, 25.68 20.085, 25.68 20.82 C 25.68 21.57, 25.68 21.585, 25.68 22.32 C 25.68 23.04, 25.68 22.994999999999997, 25.68 23.759999999999998 C 25.68 24.57, 25.68 24.660000000000004, 25.68 25.380000000000003 C 25.68 26.01, 25.68 26.07, 25.68 26.64 C 25.68 27.150000000000002, 25.68 27.165000000000006, 25.68 27.660000000000004 C 25.68 28.14, 25.68 28.305, 25.68 28.619999999999997 C 25.68 28.77, 25.68 28.725, 25.68 28.92 C 25.68 29.160000000000004, 25.68 29.28, 25.68 29.400000000000002 C 25.68 29.400000000000002, 25.68 29.400000000000002, 25.68 29.400000000000002 L 25.68 29.400000000000002" fill="none" stroke="black" stroke-width="5"></path><path d="M 20.16 16.98 C 20.16 18.39, 20.16 18.509999999999998, 20.16 19.799999999999997 C 20.16 20.97, 20.16 20.91, 20.16 22.14 C 20.16 23.43, 20.115000000000002 23.654999999999998, 20.16 24.72 C 20.25 25.560000000000002, 20.295 25.485, 20.34 26.400000000000002 C 20.34 27.39, 20.34 27.525000000000002, 20.34 28.380000000000003 C 20.34 29.1, 20.34 29.16, 20.34 29.82 C 20.34 30.42, 20.34 30.39, 20.34 31.02 C 20.34 31.68, 20.34 31.394999999999996, 20.34 32.339999999999996 C 20.34 33.56999999999999, 20.295 33.824999999999996, 20.34 34.8 C 20.43 35.519999999999996, 20.475 35.52, 20.52 36.24 C 20.52 36.96, 20.52 37.095, 20.52 37.68 C 20.52 38.129999999999995, 20.52 38.31, 20.52 38.58 C 20.52 38.67, 20.52 38.684999999999995, 20.52 38.76 C 20.52 38.82, 20.52 38.85, 20.52 38.88 L 20.52 38.88" fill="none" stroke="black" stroke-width="5"></path><path d="M 30.599999999999998 17.22 C 30.599999999999998 18.9, 30.599999999999998 18.87, 30.599999999999998 20.580000000000002 C 30.599999999999998 22.32, 30.599999999999998 22.349999999999998, 30.599999999999998 24.06 C 30.599999999999998 25.740000000000002, 30.599999999999998 26.025000000000002, 30.599999999999998 27.42 C 30.599999999999998 28.53, 30.599999999999998 28.425, 30.599999999999998 29.64 C 30.599999999999998 30.96, 30.599999999999998 31.05, 30.599999999999998 32.28 C 30.599999999999998 33.42, 30.599999999999998 33.33, 30.599999999999998 34.56 C 30.599999999999998 35.88, 30.599999999999998 36.285000000000004, 30.599999999999998 37.2 C 30.599999999999998 37.71, 30.599999999999998 37.815, 30.599999999999998 38.22 C 30.599999999999998 38.519999999999996, 30.599999999999998 38.67, 30.599999999999998 38.82 C 30.599999999999998 38.82, 30.599999999999998 38.82, 30.599999999999998 38.82 C 30.599999999999998 38.82, 30.599999999999998 38.82, 30.599999999999998 38.82 C 30.599999999999998 38.82, 30.599999999999998 38.82, 30.599999999999998 38.82 L 30.599999999999998 38.82" fill="none" stroke="black" stroke-width="5"></path></svg>