<svg width="48" height="48" viewBox="0 0 48 48" xmlns="http://www.w3.org/2000/svg"><path d="M 13.5 4.4399999999999995 C 13.59 6.51, 13.365 5.76, 13.68 8.58 C 14.219999999999999 12.15, 14.415 12.855, 14.76 15.72 C 14.91 17.88, 14.879999999999999 18.12, 15.059999999999999 20.04 C 15.27 21.72, 15.24 21.9, 15.48 23.4 C 15.75 24.72, 15.675 25.08, 16.02 26.04 C 16.439999999999998 26.64, 16.439999999999998 26.775000000000002, 16.86 27.240000000000002 C 17.28 27.57, 17.055000000000003 27.555000000000003, 17.700000000000003 27.900000000000002 C 18.57 28.259999999999998, 18.615000000000002 28.439999999999998, 19.44 28.619999999999997 C 20.22 28.619999999999997, 19.995 28.619999999999997, 21 28.619999999999997 C 22.23 28.619999999999997, 22.32 28.679999999999996, 23.46 28.619999999999997 C 24.509999999999998 28.5, 24.45 28.53, 25.56 28.380000000000003 C 26.73 28.200000000000003, 26.985000000000003 28.11, 27.900000000000002 28.02 C 28.560000000000002 28.02, 28.724999999999998 28.065, 29.22 28.02 C 29.55 27.93, 29.565 27.914999999999996, 29.880000000000003 27.839999999999996 C 30.18 27.779999999999998, 30.240000000000002 27.75, 30.48 27.72 C 30.659999999999997 27.72, 30.674999999999997 27.765, 30.839999999999996 27.72 C 30.99 27.63, 30.99 27.63, 31.14 27.54 C 31.29 27.45, 31.32 27.405, 31.44 27.36 C 31.53 27.36, 31.575 27.36, 31.619999999999997 27.36 C 31.619999999999997 27.36, 31.559999999999995 27.39, 31.619999999999997 27.36 C 31.74 27.3, 31.799999999999997 27.42, 31.86 27.240000000000002 C 31.86 26.94, 31.86 26.91, 31.86 26.64 C 31.86 26.400000000000002, 31.814999999999998 26.445000000000004, 31.86 26.160000000000004 C 31.95 25.830000000000002, 31.994999999999997 25.965000000000003, 32.04 25.5 C 32.04 24.9, 32.04 24.915, 32.04 24.299999999999997 C 32.04 23.669999999999998, 32.055 23.88, 32.04 23.04 C 32.01 21.990000000000002, 31.995 21.54, 31.98 20.94 C 31.98 20.79, 31.98 20.715, 31.98 20.64 C 31.98 20.64, 31.98 20.64, 31.98 20.64 C 31.98 20.64, 31.98 20.64, 31.98 20.64 L 31.98 20.64" fill="none" stroke="black" stroke-width="5"></path><path d="M 24.900000000000002 32.7 C 23.22 32.97, 22.59 33.015, 21.54 33.24 C 21.12 33.42, 21.105000000000004 33.17999999999999, 20.700000000000003 33.599999999999994 C 20.310000000000002 34.26, 20.115 34.155, 19.919999999999998 34.92 C 19.919999999999998 35.790000000000006, 19.874999999999996 35.86500000000001, 19.919999999999998 36.660000000000004 C 20.009999999999998 37.379999999999995, 19.830000000000002 37.349999999999994, 20.1 38.099999999999994 C 20.55 38.879999999999995, 20.490000000000002 38.985, 21 39.660000000000004 C 21.57 40.230000000000004, 21.375 40.349999999999994, 22.14 40.8 C 23.1 41.129999999999995, 23.099999999999998 41.25, 24.06 41.46 C 25.02 41.55, 25.065 41.730000000000004, 25.98 41.64 C 26.85 41.37, 27.119999999999997 41.44499999999999, 27.72 41.099999999999994 C 28.05 40.67999999999999, 28.065 40.754999999999995, 28.380000000000003 40.26 C 28.68 39.69, 28.830000000000002 39.705, 28.98 39.12 C 28.98 38.519999999999996, 29.055 38.535, 28.98 37.92 C 28.83 37.290000000000006, 28.83 37.17, 28.68 36.660000000000004 C 28.53 36.27, 28.650000000000002 36.330000000000005, 28.380000000000003 35.88 C 27.990000000000002 35.370000000000005, 28.049999999999997 35.295, 27.599999999999998 34.86 C 27.089999999999996 34.5, 27.119999999999997 34.53, 26.58 34.14 C 26.009999999999998 33.72, 25.845 33.555, 25.44 33.3 C 25.200000000000003 33.209999999999994, 25.125 33.165, 24.96 33.12 C 24.87 33.12, 24.825000000000003 33.12, 24.78 33.12 C 24.78 33.12, 24.78 33.12, 24.78 33.12 L 24.78 33.12" fill="none" stroke="black" stroke-width="5"></path></svg>