<svg width="48" height="48" viewBox="0 0 48 48" xmlns="http://www.w3.org/2000/svg"><path d="M 9.42 44.88 C 9.33 44.040000000000006, 9.615 44.760000000000005, 9.24 43.2 C 8.58 40.92, 8.46 40.980000000000004, 7.92 38.64 C 7.5 36.239999999999995, 7.484999999999999 36.165, 7.08 33.839999999999996 C 6.69 31.589999999999996, 6.525 31.154999999999994, 6.300000000000001 29.339999999999996 C 6.24 27.959999999999997, 6.21 27.72, 6.18 26.58 C 6.18 25.68, 5.88 25.68, 6.18 24.78 C 6.779999999999999 23.880000000000003, 6.75 23.64, 7.38 22.98 C 8.04 22.560000000000002, 7.964999999999999 22.545, 8.7 22.14 C 9.51 21.75, 9.285 21.735, 10.32 21.36 C 11.58 21, 11.58 20.895, 12.84 20.64 C 14.1 20.490000000000002, 13.995000000000001 20.505, 15.36 20.34 C 16.83 20.16, 16.949999999999996 20.07, 18.299999999999997 19.98 C 19.529999999999998 19.98, 19.619999999999997 19.98, 20.759999999999998 19.98 C 21.81 19.98, 21.96 19.98, 22.86 19.98 C 23.61 19.98, 23.82 19.98, 24.36 19.98 C 24.689999999999998 19.98, 24.78 19.98, 25.02 19.98 L 25.32 19.98" fill="none" stroke="black" stroke-width="5"></path><path d="M 24.299999999999997 6.959999999999999 C 24.449999999999996 7.829999999999999, 24.525 6.975, 24.599999999999998 8.7 C 24.599999999999998 11.28, 24.599999999999998 10.829999999999998, 24.599999999999998 13.86 C 24.599999999999998 17.34, 24.644999999999996 17.79, 24.599999999999998 20.82 C 24.509999999999998 23.4, 24.585 22.965, 24.42 25.98 C 24.18 29.43, 24.195 29.595000000000002, 23.94 32.88 C 23.67 36, 23.595 36.48, 23.4 39.12 C 23.28 41.28, 23.265 41.879999999999995, 23.16 43.44 C 23.07 44.4, 23.025 44.685, 22.98 45.36 C 22.98 45.75, 22.98 45.945, 22.98 46.14 L 22.98 46.14" fill="none" stroke="black" stroke-width="5"></path></svg>