<svg width="48" height="48" viewBox="0 0 48 48" xmlns="http://www.w3.org/2000/svg"><path d="M 14.879999999999999 6.36 C 15.6 6.36, 15.629999999999999 6.36, 16.32 6.36 C 16.98 6.36, 16.785 6.36, 17.64 6.36 C 18.69 6.36, 19.020000000000003 6.36, 19.740000000000002 6.36 C 20.130000000000003 6.36, 20.22 6.36, 20.52 6.36 C 20.73 6.36, 20.76 6.36, 20.94 6.36 C 21.090000000000003 6.36, 21.075000000000003 6.36, 21.240000000000002 6.36 C 21.42 6.36, 21.465000000000003 6.315, 21.6 6.36 C 21.69 6.450000000000001, 21.615000000000002 6.315000000000001, 21.78 6.540000000000001 C 22.02 6.9, 22.125 6.93, 22.259999999999998 7.26 C 22.29 7.5600000000000005, 22.305 7.380000000000001, 22.32 7.86 C 22.32 8.52, 22.32 8.445, 22.32 9.18 C 22.32 9.99, 22.365000000000002 9.75, 22.32 10.8 C 22.23 12.09, 22.23 12.254999999999999, 22.14 13.379999999999999 C 22.05 14.34, 22.05 14.399999999999999, 21.96 15.299999999999999 C 21.87 16.14, 21.825000000000003 15.855, 21.78 16.98 C 21.78 18.39, 21.825000000000003 18.419999999999998, 21.78 19.799999999999997 C 21.69 21.15, 21.645000000000003 21.21, 21.6 22.5 C 21.6 23.73, 21.645000000000003 23.805, 21.6 24.96 C 21.509999999999998 26.04, 21.465 25.874999999999996, 21.419999999999998 27.119999999999997 C 21.419999999999998 28.53, 21.419999999999998 28.725, 21.419999999999998 29.94 C 21.419999999999998 30.96, 21.464999999999996 31.035, 21.419999999999998 31.98 C 21.33 32.85, 21.285 33.089999999999996, 21.240000000000002 33.72 C 21.240000000000002 34.11, 21.240000000000002 34.26, 21.240000000000002 34.5 C 21.240000000000002 34.59, 21.240000000000002 34.635, 21.240000000000002 34.68 L 21.240000000000002 34.68" fill="none" stroke="black" stroke-width="5"></path><path d="M 20.700000000000003 39.24 C 19.86 39.24, 19.65 39.105000000000004, 19.02 39.24 C 18.6 39.510000000000005, 18.495 39.27, 18.18 39.78 C 17.97 40.53, 17.685 40.605000000000004, 17.759999999999998 41.28 C 18.119999999999997 41.88, 17.97 41.955000000000005, 18.48 42.480000000000004 C 19.14 42.93000000000001, 19.214999999999996 43.155, 19.799999999999997 43.38 C 20.31 43.38, 20.295 43.59, 20.82 43.38 C 21.36 42.96, 21.599999999999998 43.095, 21.9 42.54 C 21.96 41.85, 22.14 41.88, 22.02 41.160000000000004 C 21.72 40.410000000000004, 21.749999999999996 40.14, 21.419999999999998 39.660000000000004 C 21.060000000000002 39.45, 21.21 39.345, 20.700000000000003 39.24 C 20.04 39.24, 20.04 38.97, 19.38 39.24 C 18.72 39.78, 18.284999999999997 39.66, 18.06 40.32 C 18.27 41.1, 18.09 41.34, 18.48 41.88 C 19.05 42.18000000000001, 18.93 42.495000000000005, 19.62 42.480000000000004 C 20.43 42.150000000000006, 20.775000000000002 42.3, 21.240000000000002 41.82 C 21.36 41.19, 21.42 41.07, 21.48 40.56 C 21.48 40.17, 21.645 40.035000000000004, 21.48 39.78 C 21.15 39.66, 21.21 39.405, 20.82 39.54 C 20.369999999999997 39.93, 20.099999999999998 39.81, 19.919999999999998 40.32 C 20.009999999999998 40.95, 19.86 41.07, 20.1 41.58 C 20.490000000000002 41.97, 20.384999999999998 42.269999999999996, 20.88 42.36 C 21.48 42.15, 21.720000000000002 42.315, 22.080000000000002 41.94 C 22.200000000000003 41.4, 22.26 41.295, 22.32 40.86 C 22.32 40.53, 22.8 40.38, 22.32 40.2 C 21.36 40.17, 21.015 40.02, 20.4 40.14 C 20.13 40.41, 19.994999999999997 40.17, 19.86 40.68 C 19.86 41.43, 19.814999999999998 41.745, 19.86 42.18 L 20.04 42.42" fill="none" stroke="black" stroke-width="5"></path></svg>