<svg width="48" height="48" viewBox="0 0 48 48" xmlns="http://www.w3.org/2000/svg"><path d="M 11.28 33.36 C 11.190000000000001 32.849999999999994, 11.325000000000001 33.3, 11.100000000000001 32.339999999999996 C 10.74 30.93, 10.635 30.72, 10.379999999999999 29.52 C 10.23 28.53, 10.17 28.349999999999998, 10.08 27.54 C 10.05 26.91, 10.035 26.82, 10.02 26.28 C 10.02 25.830000000000002, 10.02 26.025000000000002, 10.02 25.380000000000003 C 10.02 24.540000000000003, 9.87 24.405000000000005, 10.02 23.700000000000003 C 10.32 23.130000000000003, 10.275000000000002 23.055, 10.620000000000001 22.56 C 11.01 22.14, 10.965 22.049999999999997, 11.399999999999999 21.72 C 11.879999999999999 21.48, 11.73 21.465000000000003, 12.36 21.240000000000002 C 13.139999999999999 21.03, 13.064999999999998 20.97, 13.919999999999998 20.82 C 14.849999999999998 20.73, 14.939999999999998 20.685000000000002, 15.78 20.64 C 16.53 20.64, 16.425 20.64, 17.28 20.64 C 18.240000000000002 20.64, 18.240000000000002 20.64, 19.200000000000003 20.64 C 20.160000000000004 20.64, 20.325000000000003 20.64, 21.12 20.64 C 21.75 20.64, 21.825 20.595, 22.38 20.64 C 22.86 20.73, 22.95 20.775, 23.34 20.82 C 23.64 20.82, 23.595000000000002 20.82, 23.94 20.82 C 24.33 20.82, 24.45 20.82, 24.72 20.82 C 24.869999999999997 20.82, 24.825 20.82, 25.02 20.82 C 25.259999999999998 20.82, 25.305 20.82, 25.5 20.82 C 25.65 20.82, 25.694999999999997 20.82, 25.799999999999997 20.82 C 25.86 20.82, 25.845000000000002 20.82, 25.92 20.82 C 26.009999999999998 20.82, 26.009999999999998 20.82, 26.099999999999998 20.82 C 26.189999999999998 20.82, 26.13 20.955, 26.28 20.82 C 26.490000000000002 20.55, 26.535000000000004 20.535000000000004, 26.700000000000003 20.28 C 26.82 20.04, 26.865000000000002 20.04, 26.94 19.799999999999997 C 26.97 19.56, 26.985 19.74, 27 19.32 C 27 18.72, 27 18.795, 27 18.12 C 27 17.37, 27.195 17.76, 27 16.62 C 26.61 15.09, 26.61 15.014999999999999, 26.22 13.559999999999999 C 25.83 12.18, 25.740000000000002 11.865, 25.44 10.8 C 25.23 10.05, 25.125 9.675, 25.02 9.3 C 25.02 9.3, 25.02 9.3, 25.02 9.3 L 25.02 9.3" fill="none" stroke="black" stroke-width="5"></path><path d="M 18.9 20.82 C 18.96 21.240000000000002, 18.945 20.939999999999998, 19.02 21.66 C 19.11 22.68, 19.065000000000005 22.695000000000004, 19.200000000000003 23.700000000000003 C 19.380000000000003 24.69, 19.38 24.375, 19.56 25.68 C 19.74 27.3, 19.784999999999997 27.42, 19.919999999999998 28.92 C 20.009999999999998 30.3, 20.055 30.405, 20.1 31.68 C 20.1 32.849999999999994, 20.1 32.925, 20.1 34.019999999999996 C 20.1 35.04, 20.235000000000003 35.160000000000004, 20.1 36.06 C 19.83 36.84, 19.919999999999998 36.839999999999996, 19.56 37.62 C 19.11 38.4, 19.215 38.37, 18.66 39.18 C 18 40.019999999999996, 17.88 40.185, 17.34 40.86 C 16.92 41.370000000000005, 17.01 41.355000000000004, 16.5 41.88 C 15.899999999999999 42.42, 15.899999999999999 42.525000000000006, 15.299999999999999 42.96 C 14.7 43.29, 14.595 43.349999999999994, 14.100000000000001 43.62 C 13.71 43.83, 13.515 43.935, 13.32 44.04 C 13.32 44.04, 13.365 44.025, 13.32 44.04 L 13.14 44.099999999999994" fill="none" stroke="black" stroke-width="5"></path><path d="M 19.799999999999997 38.519999999999996 C 20.58 38.519999999999996, 20.445 38.519999999999996, 21.36 38.519999999999996 C 22.41 38.519999999999996, 22.545 38.519999999999996, 23.46 38.519999999999996 C 24.240000000000002 38.519999999999996, 24.375 38.519999999999996, 25.02 38.519999999999996 C 25.53 38.519999999999996, 25.71 38.519999999999996, 26.04 38.519999999999996 C 26.189999999999998 38.519999999999996, 26.219999999999995 38.519999999999996, 26.339999999999996 38.519999999999996 L 26.52 38.519999999999996" fill="none" stroke="black" stroke-width="5"></path></svg>