<svg width="48" height="48" viewBox="0 0 48 48" xmlns="http://www.w3.org/2000/svg"><path d="M 15 45.3 C 14.73 44.25, 14.745000000000001 44.775000000000006, 14.46 43.2 C 14.16 41.1, 14.1 40.71, 13.86 39 C 13.68 37.68, 13.71 37.769999999999996, 13.5 36.36 C 13.26 34.86, 13.26 34.845, 13.02 33.36 C 12.78 31.89, 12.704999999999998 31.92, 12.54 30.42 C 12.45 28.89, 12.405 28.485, 12.36 27.36 C 12.36 26.64, 12.36 26.715000000000003, 12.36 25.92 C 12.36 25.05, 12.36 24.990000000000002, 12.36 24.18 C 12.36 23.43, 12.36 23.325, 12.36 22.68 C 12.36 22.14, 12.329999999999998 21.990000000000002, 12.36 21.6 C 12.42 21.36, 12.435 21.465000000000003, 12.48 21.12 C 12.51 20.67, 12.479999999999999 20.64, 12.54 20.22 C 12.629999999999999 19.83, 12.63 19.830000000000002, 12.72 19.44 C 12.809999999999999 19.05, 12.794999999999998 19.02, 12.899999999999999 18.66 C 13.02 18.33, 13.02 18.33, 13.14 18 C 13.26 17.67, 13.245 17.67, 13.379999999999999 17.34 C 13.53 17.009999999999998, 13.575 16.89, 13.68 16.68 C 13.739999999999998 16.59, 13.754999999999999 16.575, 13.799999999999999 16.5 C 13.829999999999998 16.439999999999998, 13.59 16.424999999999997, 13.86 16.38 C 14.37 16.35, 14.415 16.245, 14.879999999999999 16.32 C 15.3 16.5, 15.345 16.5, 15.72 16.68 C 16.05 16.86, 16.05 16.799999999999997, 16.38 17.04 C 16.71 17.34, 16.74 17.325000000000003, 17.04 17.64 C 17.310000000000002 17.97, 17.28 17.879999999999995, 17.580000000000002 18.299999999999997 C 17.910000000000004 18.81, 18.000000000000004 18.9, 18.240000000000002 19.32 C 18.39 19.65, 18.405 19.62, 18.54 19.98 C 18.66 20.369999999999997, 18.645 20.325, 18.78 20.759999999999998 C 18.93 21.24, 18.945 21.15, 19.080000000000002 21.72 C 19.200000000000003 22.38, 19.200000000000003 22.395, 19.32 23.04 C 19.439999999999998 23.669999999999998, 19.439999999999998 23.699999999999996, 19.56 24.299999999999997 C 19.68 24.869999999999997, 19.694999999999997 25.08, 19.799999999999997 25.44 C 19.89 25.590000000000003, 19.905 25.575000000000003, 19.98 25.740000000000002 C 20.04 25.92, 20.07 26.009999999999998, 20.1 26.099999999999998 C 20.1 26.099999999999998, 20.1 26.099999999999998, 20.1 26.099999999999998 C 20.1 26.099999999999998, 20.1 26.099999999999998, 20.1 26.099999999999998 C 20.1 26.099999999999998, 20.1 26.115, 20.1 26.099999999999998 C 20.1 26.07, 20.1 26.25, 20.1 26.04 C 20.1 25.65, 20.1 25.784999999999997, 20.1 25.259999999999998 C 20.1 24.6, 20.1 24.54, 20.1 23.94 C 20.1 23.4, 20.1 23.445, 20.1 22.86 C 20.1 22.23, 20.1 22.11, 20.1 21.6 C 20.1 21.21, 19.995 21.375, 20.1 20.82 C 20.310000000000002 20.1, 20.28 20.025, 20.52 19.38 C 20.79 18.810000000000002, 20.865 18.66, 21.06 18.240000000000002 C 21.18 17.970000000000002, 21.164999999999996 17.955000000000005, 21.299999999999997 17.700000000000003 C 21.45 17.46, 21.435000000000002 17.43, 21.6 17.22 C 21.78 17.04, 21.720000000000002 17.055, 21.96 16.86 C 22.259999999999998 16.65, 22.29 16.590000000000003, 22.56 16.44 C 22.799999999999997 16.35, 22.695 16.305, 23.04 16.259999999999998 C 23.490000000000002 16.259999999999998, 23.55 16.259999999999998, 23.94 16.259999999999998 C 24.27 16.259999999999998, 24.255 16.259999999999998, 24.599999999999998 16.259999999999998 C 24.96 16.259999999999998, 24.975 16.259999999999998, 25.32 16.259999999999998 C 25.65 16.259999999999998, 25.815 16.259999999999998, 25.98 16.259999999999998 C 25.98 16.259999999999998, 25.98 16.259999999999998, 25.98 16.259999999999998 C 25.98 16.259999999999998, 25.98 16.259999999999998, 25.98 16.259999999999998 L 25.98 16.259999999999998" fill="none" stroke="black" stroke-width="5"></path><path d="M 25.86 17.759999999999998 C 25.86 17.46, 25.86 17.61, 25.86 17.16 C 25.86 16.560000000000002, 25.86 16.53, 25.86 15.96 C 25.86 15.42, 25.95 15.599999999999998, 25.86 14.879999999999999 C 25.68 13.98, 25.68 13.995000000000001, 25.5 13.080000000000002 C 25.32 12.150000000000002, 25.26 12.075000000000001, 25.14 11.22 C 25.08 10.440000000000001, 25.08 10.275, 25.02 9.66 C 24.96 9.21, 24.945000000000004 9.254999999999999, 24.900000000000002 8.76 C 24.869999999999997 8.219999999999999, 24.854999999999997 8.1, 24.839999999999996 7.68 C 24.839999999999996 7.38, 24.839999999999996 7.305, 24.839999999999996 7.08 C 24.839999999999996 6.93, 24.839999999999996 6.8549999999999995, 24.839999999999996 6.779999999999999 C 24.839999999999996 6.779999999999999, 24.839999999999996 6.779999999999999, 24.839999999999996 6.779999999999999 C 24.839999999999996 6.779999999999999, 24.839999999999996 6.779999999999999, 24.839999999999996 6.779999999999999 L 24.839999999999996 6.779999999999999" fill="none" stroke="black" stroke-width="5"></path><path d="M 24.42 30.48 C 23.97 30.840000000000003, 24 30.660000000000004, 23.52 31.200000000000003 C 23.009999999999998 31.92, 22.875 31.980000000000004, 22.5 32.64 C 22.259999999999998 33.239999999999995, 22.14 33.345, 22.02 33.839999999999996 C 22.02 34.23, 21.869999999999997 34.245, 22.02 34.62 C 22.32 34.98, 22.305 35.114999999999995, 22.62 35.339999999999996 C 22.950000000000003 35.42999999999999, 23.04 35.474999999999994, 23.28 35.519999999999996 C 23.43 35.519999999999996, 23.370000000000005 35.654999999999994, 23.580000000000002 35.519999999999996 C 23.85 35.25, 23.939999999999998 35.265, 24.119999999999997 34.980000000000004 C 24.209999999999997 34.68000000000001, 24.209999999999997 34.77, 24.299999999999997 34.38 C 24.39 33.900000000000006, 24.435 33.885000000000005, 24.48 33.42 C 24.48 32.97, 24.48 32.94, 24.48 32.519999999999996 C 24.48 32.129999999999995, 24.57 32.04, 24.48 31.740000000000002 C 24.299999999999997 31.53, 24.374999999999996 31.44, 24.119999999999997 31.32 C 23.79 31.29, 23.82 31.019999999999996, 23.46 31.259999999999998 C 23.07 31.77, 23.009999999999998 31.785, 22.68 32.28 C 22.41 32.760000000000005, 22.275 32.775000000000006, 22.14 33.24 C 22.14 33.69, 22.065 33.78, 22.14 34.14 C 22.29 34.41, 22.245 34.53, 22.44 34.68 C 22.68 34.71, 22.604999999999997 34.845, 22.919999999999998 34.74 C 23.310000000000002 34.5, 23.415000000000003 34.5, 23.700000000000003 34.26 C 23.880000000000003 34.019999999999996, 23.85 34.155, 24.06 33.78 C 24.299999999999997 33.269999999999996, 24.375 33.285, 24.54 32.76 C 24.63 32.22, 24.674999999999997 31.95, 24.72 31.68 C 24.72 31.68, 24.765 31.71, 24.72 31.68 C 24.63 31.619999999999997, 24.825 31.29, 24.54 31.56 C 24.060000000000002 32.16, 23.865000000000002 32.114999999999995, 23.580000000000002 32.76 C 23.490000000000002 33.45, 23.445 33.795, 23.4 34.14 L 23.4 34.14" fill="none" stroke="black" stroke-width="5"></path><path d="M 20.28 40.980000000000004 C 21.240000000000002 40.980000000000004, 21.180000000000003 41.040000000000006, 22.200000000000003 40.980000000000004 C 23.28 40.86, 23.415 40.800000000000004, 24.36 40.74 C 25.17 40.74, 25.305 40.77, 25.98 40.74 C 26.52 40.68, 26.415 40.695, 27.06 40.62 C 27.81 40.53, 27.959999999999997 40.53, 28.56 40.44 C 29.009999999999998 40.349999999999994, 29.235 40.305, 29.46 40.26 L 29.46 40.26" fill="none" stroke="black" stroke-width="5"></path></svg>