<svg width="48" height="48" viewBox="0 0 48 48" xmlns="http://www.w3.org/2000/svg"><path d="M 15.72 42.72 C 15.18 42.69, 15.105 42.72, 14.64 42.660000000000004 C 14.25 42.57000000000001, 14.28 42.525000000000006, 13.86 42.480000000000004 C 13.41 42.480000000000004, 13.38 42.480000000000004, 12.96 42.480000000000004 C 12.57 42.480000000000004, 12.42 42.480000000000004, 12.18 42.480000000000004 C 12.09 42.480000000000004, 12.195 42.480000000000004, 12 42.480000000000004 C 11.7 42.480000000000004, 11.7 42.480000000000004, 11.399999999999999 42.480000000000004 C 11.1 42.480000000000004, 10.995000000000001 42.480000000000004, 10.8 42.480000000000004 C 10.71 42.480000000000004, 10.695 42.480000000000004, 10.620000000000001 42.480000000000004 C 10.56 42.480000000000004, 10.575 42.480000000000004, 10.5 42.480000000000004 C 10.41 42.480000000000004, 10.425 42.495000000000005, 10.32 42.480000000000004 C 10.2 42.45, 10.185 42.465, 10.08 42.42 C 9.989999999999998 42.36, 10.049999999999999 42.57, 9.899999999999999 42.3 C 9.69 41.81999999999999, 9.629999999999999 41.894999999999996, 9.48 41.339999999999996 C 9.39 40.709999999999994, 9.345 40.62, 9.3 40.08 C 9.3 39.629999999999995, 9.330000000000002 39.735, 9.3 39.18 C 9.24 38.519999999999996, 9.21 38.61, 9.18 37.86 C 9.18 37.019999999999996, 9.18 37.08, 9.18 36.18 C 9.18 35.22, 9.18 35.19, 9.18 34.26 C 9.18 33.36, 9.18 33.45, 9.18 32.46 C 9.18 31.38, 9.18 31.349999999999998, 9.18 30.299999999999997 C 9.18 29.279999999999998, 9.18 29.264999999999997, 9.18 28.259999999999998 C 9.18 27.27, 9.18 27.165, 9.18 26.28 C 9.18 25.5, 9.18 25.619999999999997, 9.18 24.72 C 9.18 23.7, 9.18 23.61, 9.18 22.68 C 9.18 21.84, 9.18 21.915, 9.18 21 C 9.18 20.009999999999998, 9.135 19.875, 9.18 19.02 C 9.27 18.3, 9.239999999999998 18.315, 9.36 17.580000000000002 C 9.51 16.830000000000002, 9.45 16.860000000000003, 9.66 16.080000000000002 C 9.93 15.270000000000001, 9.989999999999998 15.150000000000002, 10.2 14.46 C 10.35 13.89, 10.365 13.725000000000001, 10.5 13.32 C 10.620000000000001 13.08, 10.65 13.004999999999999, 10.74 12.84 C 10.8 12.75, 10.799999999999999 12.719999999999999, 10.86 12.66 C 10.92 12.63, 10.83 12.615000000000002, 10.98 12.600000000000001 C 11.219999999999999 12.600000000000001, 11.174999999999999 12.510000000000002, 11.459999999999999 12.600000000000001 C 11.79 12.780000000000001, 11.865 12.825000000000001, 12.120000000000001 12.96 C 12.3 13.05, 12.225000000000001 12.930000000000001, 12.48 13.14 C 12.81 13.469999999999999, 12.885000000000002 13.469999999999999, 13.14 13.799999999999999 C 13.32 14.129999999999999, 13.379999999999999 13.86, 13.5 14.46 C 13.56 15.330000000000002, 13.59 15.480000000000004, 13.620000000000001 16.200000000000003 C 13.620000000000001 16.770000000000003, 13.620000000000001 16.740000000000002, 13.620000000000001 17.34 C 13.620000000000001 17.97, 13.590000000000002 17.925, 13.620000000000001 18.6 C 13.68 19.32, 13.695 19.305, 13.74 20.04 C 13.77 20.79, 13.739999999999998 20.805, 13.799999999999999 21.54 C 13.89 22.259999999999998, 13.92 22.59, 13.98 22.98 C 14.01 23.04, 14.024999999999999 23.07, 14.04 23.1 C 14.04 23.1, 14.009999999999998 23.07, 14.04 23.1 C 14.1 23.16, 14.129999999999999 23.43, 14.16 23.22 C 14.16 22.74, 14.16 22.724999999999998, 14.16 22.259999999999998 C 14.16 21.81, 14.16 22.08, 14.16 21.36 C 14.16 20.369999999999997, 14.145 20.174999999999997, 14.16 19.38 C 14.190000000000001 18.78, 14.100000000000001 18.765, 14.22 18.18 C 14.43 17.61, 14.370000000000001 17.58, 14.64 17.04 C 14.969999999999999 16.53, 14.969999999999999 16.53, 15.299999999999999 16.02 C 15.629999999999999 15.51, 15.6 15.375, 15.96 15 C 16.35 14.76, 16.245 14.79, 16.740000000000002 14.52 C 17.340000000000003 14.219999999999999, 17.19 14.129999999999999, 17.94 13.919999999999998 C 18.840000000000003 13.799999999999999, 18.900000000000002 13.739999999999998, 19.740000000000002 13.68 C 20.52 13.68, 20.624999999999996 13.68, 21.299999999999997 13.68 C 21.869999999999997 13.68, 22.08 13.68, 22.44 13.68 C 22.590000000000003 13.68, 22.605000000000004 13.635, 22.740000000000002 13.68 L 22.98 13.86" fill="none" stroke="black" stroke-width="5"></path><path d="M 17.88 13.98 C 17.64 13.2, 17.654999999999998 13.514999999999997, 17.4 12.419999999999998 C 17.13 11.01, 17.085 10.785, 16.86 9.600000000000001 C 16.68 8.64, 16.65 8.655000000000001, 16.5 7.68 C 16.38 6.6899999999999995, 16.365 6.584999999999999, 16.259999999999998 5.699999999999999 C 16.17 4.92, 16.125 4.725, 16.080000000000002 4.14 C 16.080000000000002 3.75, 16.080000000000002 3.585, 16.080000000000002 3.3600000000000003 C 16.080000000000002 3.3000000000000003, 16.080000000000002 3.4350000000000005, 16.080000000000002 3.24 C 16.080000000000002 2.91, 16.080000000000002 2.895, 16.080000000000002 2.58 C 16.080000000000002 2.2800000000000002, 16.080000000000002 2.13, 16.080000000000002 1.98 C 16.080000000000002 1.98, 16.080000000000002 1.98, 16.080000000000002 1.98 C 16.080000000000002 1.98, 16.080000000000002 1.98, 16.080000000000002 1.98 L 16.080000000000002 1.98" fill="none" stroke="black" stroke-width="5"></path></svg>