<svg width="48" height="48" viewBox="0 0 48 48" xmlns="http://www.w3.org/2000/svg"><path d="M 9.899999999999999 33.36 C 10.41 33.09, 10.125 33.09, 10.92 32.82 C 12 32.55, 12.270000000000001 32.445, 13.080000000000002 32.28 C 13.620000000000001 32.22, 13.65 32.145, 14.16 32.160000000000004 C 14.64 32.25, 14.520000000000001 32.129999999999995, 15.120000000000001 32.339999999999996 C 15.84 32.67, 15.944999999999999 32.7, 16.56 33 C 17.07 33.269999999999996, 17.16 33.254999999999995, 17.580000000000002 33.54 C 17.910000000000004 33.84, 17.880000000000003 33.69, 18.240000000000002 34.14 C 18.630000000000003 34.739999999999995, 18.825 34.709999999999994, 19.02 35.339999999999996 C 19.02 36, 19.11 35.955, 19.02 36.660000000000004 C 18.84 37.410000000000004, 18.99 37.470000000000006, 18.66 38.160000000000004 C 18.18 38.790000000000006, 18.330000000000002 38.730000000000004, 17.700000000000003 39.42 C 16.92 40.17, 16.785 40.335, 16.14 40.92 C 15.63 41.34, 15.765 41.385, 15.120000000000001 41.76 C 14.34 42.09, 14.174999999999999 42.225, 13.559999999999999 42.42 C 13.11 42.480000000000004, 13.05 42.525, 12.66 42.54 C 12.33 42.510000000000005, 12.33 42.615, 12 42.480000000000004 C 11.67 42.24, 11.73 42.42, 11.34 42 C 10.89 41.4, 10.695 41.339999999999996, 10.44 40.8 C 10.379999999999999 40.31999999999999, 10.395 40.44, 10.32 39.839999999999996 C 10.23 39.120000000000005, 10.185 39.105000000000004, 10.14 38.400000000000006 C 10.14 37.71, 10.14 37.769999999999996, 10.14 37.019999999999996 C 10.14 36.21, 10.14 36.00000000000001, 10.14 35.400000000000006 C 10.14 35.010000000000005, 10.14 35.085, 10.14 34.62 C 10.14 34.08, 10.14 34.155, 10.14 33.54 C 10.14 32.85, 10.14 32.745000000000005, 10.14 32.160000000000004 C 10.14 31.680000000000003, 10.14 31.890000000000004, 10.14 31.200000000000003 C 10.14 30.300000000000004, 10.14 30.480000000000004, 10.14 29.400000000000002 C 10.14 28.14, 10.14 28.185000000000002, 10.14 26.880000000000003 C 10.14 25.53, 10.14 25.215, 10.14 24.18 C 10.14 23.46, 10.14 23.595000000000002, 10.14 22.740000000000002 C 10.14 21.75, 10.14 21.479999999999997, 10.14 20.759999999999998 C 10.14 20.31, 10.05 20.294999999999998, 10.14 19.86 C 10.32 19.439999999999998, 10.29 19.439999999999998, 10.5 19.02 C 10.74 18.6, 10.695 18.45, 10.98 18.18 C 11.31 18.060000000000002, 11.25 18, 11.64 17.94 C 12.09 17.94, 11.94 17.985000000000003, 12.54 17.94 C 13.29 17.85, 13.2 17.805, 14.04 17.759999999999998 C 14.969999999999999 17.759999999999998, 14.714999999999998 17.759999999999998, 15.899999999999999 17.759999999999998 C 17.34 17.759999999999998, 17.325000000000003 17.759999999999998, 18.78 17.759999999999998 C 20.25 17.759999999999998, 20.475 17.759999999999998, 21.72 17.759999999999998 C 22.74 17.759999999999998, 22.919999999999998 17.744999999999997, 23.759999999999998 17.759999999999998 C 24.419999999999998 17.79, 24.314999999999998 17.805, 25.08 17.82 C 25.95 17.82, 26.16 17.82, 26.82 17.82 C 27.27 17.82, 27.465 17.805, 27.72 17.82 L 27.839999999999996 17.88" fill="none" stroke="black" stroke-width="5"></path><path d="M 19.44 17.16 C 19.26 16.8, 19.185000000000002 16.995, 19.080000000000002 16.44 C 19.05 15.690000000000001, 19.08 15.735000000000001, 19.02 14.940000000000001 C 18.93 14.100000000000001, 18.884999999999998 14.13, 18.84 13.26 C 18.84 12.36, 18.84 12.36, 18.84 11.459999999999999 C 18.84 10.559999999999999, 18.84 10.635, 18.84 9.66 C 18.84 8.61, 18.84 8.505, 18.84 7.5600000000000005 C 18.84 6.720000000000001, 18.84 6.525, 18.84 5.88 C 18.84 5.43, 18.84 5.3999999999999995, 18.84 4.9799999999999995 C 18.84 4.59, 18.84 4.514999999999999, 18.84 4.199999999999999 C 18.84 3.9599999999999995, 18.84 3.84, 18.84 3.7199999999999998 C 18.84 3.7199999999999998, 18.84 3.7199999999999998, 18.84 3.7199999999999998 L 18.84 3.7199999999999998" fill="none" stroke="black" stroke-width="5"></path></svg>