<svg width="48" height="48" viewBox="0 0 48 48" xmlns="http://www.w3.org/2000/svg"><path d="M 22.080000000000002 39.599999999999994 C 21.840000000000003 40.05, 22.020000000000003 39.915, 21.6 40.5 C 21 41.22, 21.15 41.205, 20.4 41.94 C 19.5 42.69, 19.26 42.94499999999999, 18.6 43.44 C 18.18 43.68, 18.21 43.71, 17.759999999999998 43.92 C 17.279999999999998 44.1, 17.4 44.16, 16.799999999999997 44.28 C 16.08 44.34, 16.034999999999997 44.370000000000005, 15.36 44.400000000000006 C 14.73 44.400000000000006, 14.73 44.44500000000001, 14.100000000000001 44.400000000000006 C 13.47 44.31, 13.395 44.385, 12.84 44.22 C 12.36 43.980000000000004, 12.375 44.010000000000005, 11.879999999999999 43.74 C 11.37 43.44, 11.385 43.56, 10.86 43.14 C 10.32 42.6, 10.395 42.96, 9.78 42.06 C 9.09 40.8, 8.954999999999998 40.83, 8.399999999999999 39.54 C 7.9799999999999995 38.22, 7.815 37.92, 7.5600000000000005 36.900000000000006 C 7.470000000000001 36.18000000000001, 7.470000000000001 36.18000000000001, 7.38 35.46 C 7.289999999999999 34.739999999999995, 7.244999999999999 34.605, 7.199999999999999 34.019999999999996 C 7.199999999999999 33.56999999999999, 7.139999999999999 33.51, 7.199999999999999 33.12 C 7.319999999999999 32.79, 7.364999999999999 32.655, 7.4399999999999995 32.46 C 7.47 32.4, 7.334999999999999 32.504999999999995, 7.5 32.339999999999996 C 7.800000000000001 32.06999999999999, 7.800000000000002 31.949999999999996, 8.100000000000001 31.799999999999997 C 8.4 31.77, 8.07 31.755000000000003, 8.7 31.740000000000002 C 9.66 31.740000000000002, 9.855 31.695, 10.620000000000001 31.740000000000002 C 11.190000000000001 31.830000000000002, 10.8 31.740000000000002, 11.76 31.92 C 13.11 32.19, 13.05 32.22, 14.46 32.46 C 15.93 32.67, 15.869999999999997 32.730000000000004, 17.4 32.88 C 18.990000000000002 32.97, 19.32 33.03, 20.580000000000002 33.06 C 21.51 33.03, 21.705000000000002 33.075, 22.44 33 C 22.98 32.879999999999995, 23.04 32.97, 23.52 32.76 C 23.939999999999998 32.46, 24 32.550000000000004, 24.36 32.160000000000004 C 24.66 31.680000000000003, 24.735 31.755000000000003, 24.96 31.200000000000003 C 25.11 30.57, 25.139999999999997 30.765, 25.259999999999998 29.94 C 25.35 28.92, 25.515 29.355000000000004, 25.44 27.900000000000002 C 25.200000000000003 26.009999999999998, 25.215 26.205, 24.96 24.119999999999997 C 24.69 21.839999999999996, 24.810000000000002 22.319999999999997, 24.42 19.56 C 23.91 16.32, 23.805 15.525000000000002, 23.4 13.080000000000002 C 23.099999999999998 11.43, 23.174999999999997 11.775, 22.799999999999997 9.78 C 22.349999999999998 7.4399999999999995, 22.214999999999996 6.569999999999999, 21.9 5.1 C 21.72 4.5, 21.63 4.2, 21.54 3.9000000000000004 L 21.54 3.9000000000000004" fill="none" stroke="black" stroke-width="5"></path><path d="M 15.419999999999998 4.68 C 15.419999999999998 4.83, 15.599999999999998 3.4649999999999994, 15.419999999999998 4.9799999999999995 C 15.059999999999999 7.859999999999999, 14.940000000000001 7.875, 14.700000000000001 10.74 C 14.580000000000002 13.59, 14.625000000000002 13.89, 14.46 16.44 C 14.25 18.69, 14.19 19.185000000000002, 14.04 20.94 C 13.95 22.200000000000003, 13.905 22.785, 13.86 23.46 C 13.86 23.55, 13.86 23.52, 13.86 23.64 L 13.86 23.94" fill="none" stroke="black" stroke-width="5"></path></svg>