<svg width="48" height="48" viewBox="0 0 48 48" xmlns="http://www.w3.org/2000/svg"><path d="M 11.58 5.04 C 11.58 7.709999999999999, 11.58 7.769999999999999, 11.58 10.379999999999999 C 11.58 12.93, 11.58 13.649999999999999, 11.58 15.48 C 11.58 16.590000000000003, 11.4 16.665000000000003, 11.58 17.700000000000003 C 11.94 18.660000000000004, 11.819999999999999 18.93, 12.299999999999999 19.62 C 12.899999999999999 20.04, 12.629999999999999 20.07, 13.5 20.46 C 14.64 20.82, 14.354999999999999 20.925, 15.78 21.18 C 17.490000000000002 21.33, 17.250000000000004 21.3, 19.200000000000003 21.48 C 21.39 21.689999999999998, 21.855000000000004 21.794999999999998, 23.580000000000002 21.9 C 24.84 21.9, 24.915 21.9, 26.099999999999998 21.9 C 27.21 21.9, 27.54 21.9, 28.32 21.9 C 28.77 21.9, 28.799999999999997 21.9, 29.22 21.9 C 29.61 21.9, 29.685 21.945, 30 21.9 C 30.240000000000002 21.81, 30.255 22.005, 30.48 21.72 C 30.69 21.24, 30.705000000000002 21.75, 30.900000000000002 20.759999999999998 C 31.08 19.259999999999998, 31.185 19.979999999999997, 31.259999999999998 17.759999999999998 C 31.23 14.819999999999999, 31.245000000000005 14.099999999999998, 31.200000000000003 11.879999999999999 C 31.14 10.379999999999999, 31.125 9.915, 31.08 8.879999999999999 C 31.049999999999997 8.309999999999999, 31.035 8.205, 31.02 7.74 C 31.02 7.38, 31.02 7.199999999999999, 31.02 7.02 C 31.02 7.02, 31.02 7.02, 31.02 7.02 L 31.02 7.02" fill="none" stroke="black" stroke-width="5"></path><path d="M 21.72 6.12 C 21.93 7.08, 21.945 6.315000000000001, 22.14 8.040000000000001 C 22.32 10.530000000000001, 22.305 10.754999999999999, 22.5 13.02 C 22.71 15.06, 22.769999999999996 15.000000000000002, 22.919999999999998 17.1 C 23.009999999999998 19.259999999999998, 23.01 19.365, 23.1 21.419999999999998 C 23.19 23.369999999999997, 23.235 23.685, 23.28 25.32 C 23.28 26.64, 23.28 26.475, 23.28 27.96 C 23.28 29.61, 23.400000000000002 29.775, 23.28 31.259999999999998 C 23.04 32.58, 23.354999999999997 32.550000000000004, 22.799999999999997 33.900000000000006 C 21.93 35.28, 21.869999999999997 35.535000000000004, 21.06 36.660000000000004 C 20.31 37.53, 20.459999999999997 37.54500000000001, 19.56 38.400000000000006 C 18.509999999999998 39.24, 18.525000000000002 39.33, 17.46 40.08 C 16.38 40.74, 16.59 40.77000000000001, 15.299999999999999 41.400000000000006 C 13.799999999999999 42, 13.139999999999999 42.254999999999995, 12.299999999999999 42.599999999999994 C 12.12 42.69, 12.149999999999999 42.735, 11.94 42.78 L 11.459999999999999 42.78" fill="none" stroke="black" stroke-width="5"></path><path d="M 20.22 37.8 C 20.46 37.8, 20.295 37.8, 20.700000000000003 37.8 C 21.270000000000003 37.8, 20.4 37.8, 21.84 37.8 C 24.15 37.8, 24.39 37.8, 26.46 37.8 C 28.29 37.8, 28.979999999999997 37.8, 30.119999999999997 37.8 C 30.57 37.8, 30.6 37.8, 31.02 37.8 L 31.799999999999997 37.8" fill="none" stroke="black" stroke-width="5"></path></svg>