<svg width="48" height="48" viewBox="0 0 48 48" xmlns="http://www.w3.org/2000/svg"><path d="M 12.419999999999998 3.7199999999999998 C 12.419999999999998 5.279999999999999, 12.404999999999998 5.34, 12.419999999999998 6.84 C 12.45 8.280000000000001, 12.45 8.385000000000002, 12.48 9.72 C 12.51 10.95, 12.36 10.29, 12.54 12.18 C 12.870000000000001 14.73, 12.96 14.925, 13.200000000000001 17.28 C 13.350000000000001 19.44, 13.425 19.665000000000003, 13.5 21.6 C 13.5 23.310000000000002, 13.5 23.564999999999998, 13.5 25.02 C 13.5 26.22, 13.455 26.145000000000003, 13.5 27.42 C 13.59 28.77, 13.635 28.724999999999998, 13.68 30.119999999999997 C 13.68 31.56, 13.68 31.53, 13.68 33 C 13.68 34.5, 13.68 34.68, 13.68 36 C 13.68 37.14, 13.68 37.035, 13.68 38.28 C 13.68 39.63, 13.68 39.94500000000001, 13.68 40.980000000000004 C 13.68 41.7, 13.68 41.895, 13.68 42.42 C 13.68 42.75, 13.68 42.839999999999996, 13.68 43.08 C 13.68 43.230000000000004, 13.68 43.305, 13.68 43.38 C 13.68 43.38, 13.68 43.35, 13.68 43.38 L 13.68 43.5" fill="none" stroke="black" stroke-width="5"></path><path d="M 14.28 33.900000000000006 C 14.669999999999998 33.900000000000006, 14.459999999999999 33.900000000000006, 15.059999999999999 33.900000000000006 C 15.87 33.900000000000006, 15.93 33.900000000000006, 16.68 33.900000000000006 C 17.369999999999997 33.900000000000006, 17.04 33.915000000000006, 18.06 33.900000000000006 C 19.409999999999997 33.870000000000005, 19.634999999999998 33.93, 20.759999999999998 33.839999999999996 C 21.659999999999997 33.69, 21.525 33.705, 22.56 33.54 C 23.73 33.36, 23.805 33.315, 24.900000000000002 33.18 C 25.92 33.09, 25.995 33.045, 26.94 33 C 27.810000000000002 33, 28.02 33, 28.68 33 C 29.13 33, 29.189999999999998 33, 29.58 33 C 29.91 33, 30.075000000000003 33, 30.240000000000002 33 C 30.240000000000002 33, 30.240000000000002 33, 30.240000000000002 33 L 30.240000000000002 33" fill="none" stroke="black" stroke-width="5"></path><path d="M 20.64 5.5200000000000005 C 20.64 7.23, 20.64 7.185, 20.64 8.94 C 20.64 10.739999999999998, 20.625 10.754999999999999, 20.64 12.54 C 20.67 14.31, 20.640000000000004 14.415000000000001, 20.700000000000003 16.080000000000002 C 20.79 17.64, 20.835 17.67, 20.88 19.200000000000003 C 20.88 20.700000000000003, 20.88 21.135000000000005, 20.88 22.200000000000003 C 20.88 22.830000000000002, 20.88 23.07, 20.88 23.46 C 20.88 23.61, 20.88 23.654999999999998, 20.88 23.759999999999998 L 20.88 23.88" fill="none" stroke="black" stroke-width="5"></path></svg>