<svg width="48" height="48" viewBox="0 0 48 48" xmlns="http://www.w3.org/2000/svg"><path d="M 14.22 30.18 C 14.46 30.24, 13.740000000000002 30.284999999999997, 14.700000000000001 30.299999999999997 C 16.38 30.27, 15.674999999999999 30.480000000000004, 18.06 30.240000000000002 C 21.15 29.79, 22.17 29.564999999999998, 24.240000000000002 29.339999999999996 C 25.29 29.339999999999996, 25.199999999999996 29.384999999999994, 26.339999999999996 29.339999999999996 C 27.569999999999997 29.25, 27.824999999999996 29.250000000000004, 28.799999999999997 29.160000000000004 C 29.52 29.07, 29.715 29.055, 30.240000000000002 28.98 C 30.57 28.92, 30.555000000000003 29.189999999999998, 30.900000000000002 28.86 C 31.259999999999998 28.26, 31.439999999999998 28.185000000000002, 31.619999999999997 27.660000000000004 C 31.619999999999997 27.21, 31.619999999999997 27.345, 31.619999999999997 26.759999999999998 C 31.619999999999997 26.04, 31.754999999999995 26.595, 31.619999999999997 25.32 C 31.349999999999998 23.490000000000002, 31.365 23.73, 31.08 21.66 C 30.78 19.35, 30.765 19.005, 30.48 17.04 C 30.21 15.419999999999998, 30.3 15.555, 29.94 13.799999999999999 C 29.490000000000002 11.91, 29.58 11.954999999999998, 29.04 10.02 C 28.41 8.04, 28.200000000000003 7.3950000000000005, 27.78 6.0600000000000005 C 27.57 5.37, 27.494999999999997 5.13, 27.36 4.68 C 27.3 4.47, 27.270000000000003 4.365, 27.240000000000002 4.26 L 27.240000000000002 4.26" fill="none" stroke="black" stroke-width="5"></path><path d="M 20.4 7.14 C 20.189999999999998 8.43, 20.130000000000003 7.86, 19.98 9.72 C 19.89 12.150000000000002, 19.845 12.420000000000002, 19.799999999999997 14.580000000000002 C 19.799999999999997 16.47, 19.799999999999997 16.59, 19.799999999999997 18.36 C 19.799999999999997 20.009999999999998, 19.799999999999997 20.685000000000002, 19.799999999999997 21.66 C 19.799999999999997 21.96, 19.799999999999997 22.11, 19.799999999999997 22.259999999999998 C 19.799999999999997 22.259999999999998, 19.799999999999997 22.259999999999998, 19.799999999999997 22.259999999999998 L 19.799999999999997 22.259999999999998" fill="none" stroke="black" stroke-width="5"></path><path d="M 22.080000000000002 36.18 C 21.75 36.45, 21.615 36.36, 21.419999999999998 36.72 C 21.36 37.17, 21.164999999999996 37.275, 21.299999999999997 37.62 C 21.63 37.86, 21.615000000000002 38.06999999999999, 21.96 38.099999999999994 C 22.32 37.92, 22.425 38.16, 22.68 37.74 C 22.83 37.08, 22.995 37.02, 22.98 36.42 C 22.8 35.879999999999995, 23.1 35.595, 22.62 35.339999999999996 C 21.84 35.370000000000005, 21.689999999999998 35.115, 21.06 35.400000000000006 C 20.58 35.940000000000005, 20.205000000000002 35.955000000000005, 20.1 36.480000000000004 C 20.37 36.99, 20.16 37.230000000000004, 20.64 37.5 C 21.33 37.53, 21.57 37.83, 22.02 37.56 C 22.23 36.99, 22.515 36.945, 22.44 36.42 C 22.08 35.94, 22.095 35.7, 21.72 35.46 C 21.33 35.46, 21.450000000000003 35.025, 20.94 35.46 C 20.310000000000002 36.33, 19.845 36.585, 19.68 37.2 C 19.98 37.56, 19.86 37.83, 20.28 37.92 L 21.36 37.56" fill="none" stroke="black" stroke-width="5"></path><path d="M 15.059999999999999 44.160000000000004 C 15.299999999999999 44.160000000000004, 14.61 44.23500000000001, 15.54 44.160000000000004 C 17.16 44.010000000000005, 17.055 44.01, 18.78 43.86 C 20.61 43.71, 20.730000000000004 43.74, 22.44 43.56 C 24.03 43.35, 24.089999999999996 43.29, 25.619999999999997 43.14 C 27.089999999999996 43.05, 27.674999999999997 43.005, 28.56 42.96 L 29.160000000000004 42.96" fill="none" stroke="black" stroke-width="5"></path></svg>