<svg width="48" height="48" viewBox="0 0 48 48" xmlns="http://www.w3.org/2000/svg"><path d="M 10.379999999999999 26.22 C 9.84 24.689999999999998, 9.705 24.66, 9.3 23.16 C 9.030000000000001 21.689999999999998, 8.94 21.645, 8.76 20.22 C 8.67 18.84, 8.625 18.66, 8.58 17.46 C 8.58 16.439999999999998, 8.565 16.38, 8.58 15.419999999999998 C 8.61 14.52, 8.565000000000001 14.190000000000001, 8.64 13.620000000000001 C 8.76 13.38, 8.715 13.47, 8.879999999999999 13.14 C 9.09 12.719999999999999, 9.075000000000001 12.614999999999998, 9.3 12.299999999999999 C 9.54 12.09, 9.465 11.985, 9.78 11.879999999999999 C 10.17 11.879999999999999, 10.2 11.819999999999999, 10.56 11.879999999999999 C 10.89 12, 10.98 11.985000000000001, 11.22 12.120000000000001 C 11.370000000000001 12.27, 11.295 12.134999999999998, 11.52 12.419999999999998 C 11.82 12.84, 11.82 12.719999999999999, 12.120000000000001 13.26 C 12.420000000000002 13.920000000000002, 12.450000000000001 13.800000000000002, 12.72 14.580000000000002 C 12.96 15.48, 12.990000000000002 15.48, 13.200000000000001 16.38 C 13.379999999999999 17.28, 13.424999999999999 17.34, 13.559999999999999 18.18 C 13.649999999999999 18.96, 13.695 19.305000000000003, 13.74 19.740000000000002 C 13.74 19.83, 13.74 19.875, 13.74 19.919999999999998 C 13.74 19.919999999999998, 13.74 20.115, 13.74 19.919999999999998 C 13.74 19.53, 13.74 19.785, 13.74 19.14 C 13.74 18.240000000000002, 13.695 18.435, 13.74 17.34 C 13.829999999999998 16.05, 13.829999999999998 15.585, 13.919999999999998 14.76 C 14.01 14.399999999999999, 13.98 14.415, 14.100000000000001 14.04 C 14.25 13.649999999999999, 14.235 13.59, 14.399999999999999 13.26 C 14.579999999999998 12.99, 14.549999999999999 12.975000000000001, 14.76 12.72 C 15 12.48, 14.790000000000001 12.465, 15.24 12.24 C 15.899999999999999 12.030000000000001, 15.93 11.925, 16.56 11.82 C 17.159999999999997 11.82, 17.189999999999998 11.865, 17.759999999999998 11.82 C 18.299999999999997 11.73, 18.3 11.685, 18.84 11.64 C 19.38 11.64, 19.305 11.64, 19.919999999999998 11.64 C 20.61 11.64, 20.684999999999995 11.610000000000001, 21.299999999999997 11.64 C 21.839999999999996 11.7, 21.915 11.715, 22.38 11.76 C 22.77 11.79, 22.695 11.805, 23.16 11.82 C 23.700000000000003 11.82, 23.775000000000002 11.775, 24.240000000000002 11.82 C 24.630000000000003 11.91, 24.825 11.955, 25.02 12 C 25.02 12, 24.974999999999998 11.985, 25.02 12 C 25.11 12.03, 25.155 12.044999999999998, 25.200000000000003 12.059999999999999 L 25.200000000000003 12.059999999999999" fill="none" stroke="black" stroke-width="5"></path><path d="M 19.32 1.3800000000000001 C 19.200000000000003 1.5899999999999999, 19.275000000000002 1.3049999999999997, 19.080000000000002 1.7999999999999998 C 18.810000000000002 2.58, 18.72 2.5650000000000004, 18.54 3.3600000000000003 C 18.45 4.17, 18.405 4.215, 18.36 4.9799999999999995 C 18.36 5.699999999999999, 18.36 5.58, 18.36 6.42 C 18.36 7.38, 18.36 7.35, 18.36 8.34 C 18.36 9.36, 18.36 9.224999999999998, 18.36 10.379999999999999 C 18.36 11.67, 18.345 11.715, 18.36 12.96 C 18.39 14.16, 18.404999999999998 14.28, 18.419999999999998 15.36 C 18.419999999999998 16.32, 18.419999999999998 16.020000000000003, 18.419999999999998 17.28 C 18.419999999999998 18.84, 18.419999999999998 18.854999999999997, 18.419999999999998 20.4 C 18.419999999999998 21.93, 18.419999999999998 22.035, 18.419999999999998 23.46 C 18.419999999999998 24.78, 18.419999999999998 24.945, 18.419999999999998 26.099999999999998 C 18.419999999999998 27.089999999999996, 18.374999999999996 26.759999999999998, 18.419999999999998 28.08 C 18.509999999999998 29.73, 18.555 29.745000000000005, 18.6 31.380000000000003 C 18.6 33, 18.555 33.21, 18.6 34.62 C 18.69 35.81999999999999, 18.69 36.059999999999995, 18.78 37.019999999999996 C 18.87 37.739999999999995, 18.87 37.605000000000004, 18.96 38.46 C 19.05 39.45, 19.095 39.78, 19.14 40.44 C 19.14 40.769999999999996, 19.095 40.64999999999999, 19.14 41.099999999999994 C 19.23 41.67, 19.275 41.955, 19.32 42.24 C 19.32 42.24, 19.32 42.24, 19.32 42.24 C 19.32 42.24, 19.32 42.24, 19.32 42.24 C 19.32 42.24, 19.32 42.24, 19.32 42.24 L 19.32 42.24" fill="none" stroke="black" stroke-width="5"></path></svg>