<svg width="48" height="48" viewBox="0 0 48 48" xmlns="http://www.w3.org/2000/svg"><path d="M 12 28.799999999999997 C 12 27.449999999999996, 12 27.314999999999998, 12 26.099999999999998 C 12 25.02, 12 25.035, 12 23.94 C 12 22.83, 11.955 22.919999999999998, 12 21.72 C 12.09 20.43, 12.015 20.28, 12.18 19.14 C 12.42 18.15, 12.45 17.925, 12.66 17.16 C 12.84 16.62, 12.825 16.560000000000002, 13.02 16.080000000000002 C 13.23 15.66, 13.185000000000002 15.555, 13.440000000000001 15.24 C 13.74 15.030000000000001, 13.695 14.895, 14.04 14.82 C 14.43 14.88, 14.52 14.775000000000002, 14.82 14.940000000000001 C 15.030000000000001 15.21, 15 15.045000000000002, 15.24 15.48 C 15.51 16.08, 15.51 15.989999999999998, 15.78 16.68 C 16.05 17.46, 16.095 17.28, 16.32 18.240000000000002 C 16.5 19.380000000000003, 16.545 19.605, 16.68 20.52 C 16.77 21.21, 16.74 21.134999999999998, 16.86 21.9 C 17.009999999999998 22.740000000000002, 17.085 23.085, 17.16 23.580000000000002 C 17.16 23.73, 17.16 23.805, 17.16 23.88 C 17.16 23.88, 17.16 23.895, 17.16 23.88 C 17.16 23.85, 17.16 24.134999999999998, 17.16 23.82 C 17.16 23.22, 17.085 23.415, 17.16 22.62 C 17.310000000000002 21.630000000000003, 17.325 21.465, 17.46 20.64 C 17.580000000000002 19.98, 17.490000000000002 20.07, 17.700000000000003 19.32 C 18 18.48, 18.074999999999996 18.225, 18.299999999999997 17.64 C 18.45 17.310000000000002, 18.330000000000002 17.355, 18.6 16.98 C 18.990000000000002 16.560000000000002, 18.854999999999997 16.515, 19.38 16.14 C 20.04 15.81, 20.01 15.735, 20.700000000000003 15.48 C 21.42 15.3, 21.465000000000003 15.225000000000001, 22.14 15.120000000000001 C 22.77 15.09, 22.589999999999996 15.075, 23.4 15.059999999999999 C 24.39 15.059999999999999, 24.57 15.059999999999999, 25.380000000000003 15.059999999999999 C 26.01 15.059999999999999, 26.145000000000003 15.059999999999999, 26.64 15.059999999999999 C 27 15.059999999999999, 27.060000000000002 15.059999999999999, 27.36 15.059999999999999 C 27.599999999999998 15.059999999999999, 27.674999999999997 15.044999999999998, 27.839999999999996 15.059999999999999 C 27.93 15.09, 27.974999999999998 15.105, 28.02 15.120000000000001 L 28.02 15.120000000000001" fill="none" stroke="black" stroke-width="5"></path><path d="M 22.62 15.059999999999999 C 22.5 14.37, 22.53 14.715, 22.38 13.68 C 22.2 12.3, 22.155 12.285, 22.02 10.92 C 21.93 9.57, 21.884999999999998 9.24, 21.84 8.22 C 21.84 7.53, 21.84 7.335, 21.84 6.84 C 21.84 6.54, 21.84 6.66, 21.84 6.24 C 21.84 5.7, 21.84 5.8500000000000005, 21.84 5.16 C 21.84 4.32, 21.84 4.079999999999999, 21.84 3.4799999999999995 C 21.84 3.12, 21.84 2.9850000000000003, 21.84 2.7600000000000002 C 21.84 2.67, 21.84 2.625, 21.84 2.58 L 21.84 2.58" fill="none" stroke="black" stroke-width="5"></path><path d="M 22.14 15 C 22.259999999999998 15.3, 22.32 15.135000000000002, 22.38 15.600000000000001 C 22.38 16.23, 22.32 16.259999999999998, 22.38 16.86 C 22.5 17.43, 22.47 17.235, 22.62 18 C 22.8 18.96, 22.845 18.99, 22.98 19.919999999999998 C 23.07 20.82, 23.055 20.849999999999998, 23.16 21.72 C 23.28 22.56, 23.34 22.455, 23.4 23.4 C 23.4 24.45, 23.43 24.509999999999998, 23.4 25.5 C 23.34 26.43, 23.415 26.475, 23.28 27.36 C 23.07 28.2, 23.205 28.154999999999998, 22.86 29.04 C 22.38 29.97, 22.349999999999998 30.105000000000004, 21.9 30.900000000000002 C 21.479999999999997 31.560000000000002, 21.674999999999997 31.395, 21.06 32.22 C 20.25 33.21, 20.175 33.36, 19.44 34.2 C 18.78 34.89, 18.705000000000002 34.935, 18.12 35.58 C 17.61 36.18, 17.565 36.285, 17.1 36.78 C 16.68 37.17, 16.965 36.99, 16.259999999999998 37.56 C 15.27 38.31, 15.09 38.43000000000001, 14.28 39.06 C 13.649999999999999 39.57, 13.379999999999999 39.81, 13.02 40.08 C 12.93 40.11, 12.885 40.125, 12.84 40.14 L 12.84 40.14" fill="none" stroke="black" stroke-width="5"></path><path d="M 17.04 37.14 C 17.61 37.14, 17.04 37.14, 18.18 37.14 C 19.89 37.14, 20.085 37.095, 21.6 37.14 C 22.92 37.230000000000004, 23.325000000000003 37.245000000000005, 24.240000000000002 37.32 C 24.75 37.379999999999995, 24.854999999999997 37.394999999999996, 25.259999999999998 37.44 C 25.56 37.47, 25.71 37.485, 25.86 37.5 C 25.86 37.5, 25.86 37.5, 25.86 37.5 L 25.86 37.5" fill="none" stroke="black" stroke-width="5"></path></svg>