<svg width="48" height="48" viewBox="0 0 48 48" xmlns="http://www.w3.org/2000/svg"><path d="M 12.96 3.5999999999999996 C 12.18 6.27, 11.909999999999998 6.209999999999999, 11.399999999999999 8.94 C 11.16 11.73, 11.114999999999998 11.865, 10.92 14.52 C 10.77 17.04, 10.695 17.4, 10.620000000000001 19.56 C 10.620000000000001 21.36, 10.455000000000002 21.93, 10.620000000000001 23.16 C 10.95 23.82, 10.815 23.985, 11.28 24.48 C 11.879999999999999 24.810000000000002, 11.91 24.96, 12.48 25.14 C 13.02 25.17, 13.049999999999999 25.275000000000006, 13.559999999999999 25.200000000000003 C 14.04 25.02, 14.04 25.229999999999997, 14.52 24.839999999999996 C 15 24.24, 15.045000000000002 24.48, 15.48 23.64 C 15.87 22.560000000000002, 16.005 22.545, 16.259999999999998 21.48 C 16.38 20.43, 16.395 20.22, 16.5 19.38 C 16.59 18.75, 16.605 18.75, 16.68 18.12 C 16.74 17.490000000000002, 16.769999999999996 17.175, 16.799999999999997 16.86 C 16.799999999999997 16.86, 16.814999999999998 16.65, 16.799999999999997 16.86 C 16.77 17.28, 16.89 16.590000000000003, 16.740000000000002 17.700000000000003 C 16.470000000000002 19.5, 16.245000000000005 19.875, 16.200000000000003 21.299999999999997 C 16.380000000000003 22.349999999999998, 16.17 22.619999999999997, 16.56 23.4 C 17.159999999999997 23.91, 16.964999999999996 23.97, 17.759999999999998 24.42 C 18.75 24.810000000000002, 18.69 25.005000000000003, 19.740000000000002 25.200000000000003 C 20.85 25.200000000000003, 20.835 25.455000000000005, 21.96 25.200000000000003 C 23.1 24.69, 23.055 25.14, 24.240000000000002 24.18 C 25.470000000000002 22.77, 25.950000000000003 22.56, 26.700000000000003 21.36 C 26.970000000000002 20.369999999999997, 27.045 20.655, 27.240000000000002 19.38 C 27.36 17.82, 27.435000000000002 18.074999999999996, 27.48 16.259999999999998 C 27.450000000000003 14.19, 27.51 13.755, 27.42 12.120000000000001 C 27.27 10.920000000000002, 27.24 10.56, 27.119999999999997 9.72 C 27.03 9.24, 27.135 9.435, 26.94 8.76 C 26.64 7.89, 26.654999999999998 7.8149999999999995, 26.339999999999996 7.02 C 26.009999999999998 6.3, 25.95 6.165, 25.68 5.58 C 25.47 5.13, 25.409999999999997 4.9799999999999995, 25.259999999999998 4.68 L 25.08 4.38" fill="none" stroke="black" stroke-width="5"></path><path d="M 15.36 29.400000000000002 C 14.97 29.85, 14.730000000000002 29.894999999999996, 14.580000000000002 30.299999999999997 C 14.670000000000002 30.659999999999997, 14.475 30.84, 14.76 31.02 C 15.24 31.02, 15.105 31.169999999999998, 15.72 31.02 C 16.47 30.72, 16.785 30.69, 17.22 30.42 C 17.34 30.18, 17.52 30.165000000000003, 17.46 29.94 C 17.22 29.73, 17.325 29.625, 16.98 29.52 C 16.53 29.52, 16.470000000000002 29.445, 16.080000000000002 29.52 C 15.75 29.67, 15.599999999999998 29.43, 15.419999999999998 29.82 C 15.389999999999999 30.45, 15.165 30.645, 15.36 31.08 C 15.780000000000001 31.32, 15.915000000000003 31.424999999999997, 16.200000000000003 31.56 C 16.35 31.589999999999996, 16.125 31.889999999999997, 16.5 31.619999999999997 C 17.1 31.049999999999997, 17.355000000000004 30.96, 17.700000000000003 30.48 C 17.79 30.090000000000003, 17.97 30.015000000000004, 17.88 29.700000000000003 C 17.61 29.46, 17.91 29.4, 17.34 29.22 C 16.47 29.1, 16.275000000000002 28.950000000000003, 15.600000000000001 28.98 C 15.120000000000001 29.159999999999997, 14.940000000000001 29.009999999999998, 14.64 29.339999999999996 C 14.52 29.819999999999997, 14.204999999999998 29.879999999999995, 14.399999999999999 30.299999999999997 C 14.909999999999998 30.659999999999997, 14.999999999999996 30.765, 15.419999999999998 31.02 C 15.75 31.17, 15.840000000000002 31.245, 16.080000000000002 31.32 C 16.23 31.32, 16.14 31.65, 16.38 31.32 C 16.71 30.66, 16.875 30.36, 17.04 30 C 17.04 29.94, 17.174999999999997 29.970000000000002, 17.04 29.880000000000003 C 16.77 29.76, 16.785 29.61, 16.5 29.64 C 16.2 29.82, 16.049999999999997 29.91, 15.899999999999999 30 L 15.899999999999999 30" fill="none" stroke="black" stroke-width="5"></path><path d="M 11.52 37.8 C 14.4 37.56, 14.88 37.44, 17.28 37.32 C 19.200000000000003 37.32, 19.785 37.26, 21.12 37.32 C 21.87 37.44, 22.245 37.5, 22.62 37.56 L 22.62 37.56" fill="none" stroke="black" stroke-width="5"></path></svg>