<svg width="48" height="48" viewBox="0 0 48 48" xmlns="http://www.w3.org/2000/svg"><path d="M 8.7 38.160000000000004 C 9.96 38.129999999999995, 10.14 38.114999999999995, 11.22 38.099999999999994 C 12.120000000000001 38.099999999999994, 12.195 38.129999999999995, 13.02 38.099999999999994 C 13.77 38.04, 13.995 38.010000000000005, 14.52 37.980000000000004 C 14.82 37.980000000000004, 14.940000000000001 37.980000000000004, 15.120000000000001 37.980000000000004 L 15.24 37.980000000000004" fill="none" stroke="black" stroke-width="5"></path><path d="M 9.78 44.400000000000006 C 9.36 44.13, 9.225 44.385000000000005, 8.94 43.86 C 8.79 43.08, 8.835 43.14, 8.64 42.3 C 8.4 41.4, 8.280000000000001 41.685, 8.16 40.5 C 8.16 39.03, 8.16 39.105000000000004, 8.16 37.56 C 8.16 35.94, 8.16 35.85, 8.16 34.32 C 8.16 32.88, 8.205 33.03, 8.16 31.44 C 8.07 29.700000000000003, 8.085 29.490000000000002, 7.98 27.96 C 7.86 26.64, 7.800000000000001 26.94, 7.74 25.32 C 7.74 23.4, 7.725 23.16, 7.74 21.48 C 7.7700000000000005 20.04, 7.65 20.325000000000003, 7.800000000000001 18.6 C 8.07 16.590000000000003, 8.085 16.215000000000003, 8.34 14.580000000000002 C 8.58 13.32, 8.52 13.379999999999999, 8.82 12.059999999999999 C 9.18 10.68, 9.09 10.47, 9.540000000000001 9.3 C 10.080000000000002 8.34, 10.185000000000002 8.025, 10.620000000000001 7.38 C 10.95 7.050000000000001, 10.71 6.99, 11.28 6.720000000000001 C 12.09 6.510000000000001, 12.299999999999999 6.405000000000001, 12.899999999999999 6.300000000000001 C 13.29 6.300000000000001, 13.14 6.165000000000001, 13.68 6.300000000000001 C 14.37 6.57, 14.459999999999997 6.404999999999999, 15.059999999999999 6.84 C 15.57 7.44, 15.615000000000002 7.410000000000001, 16.080000000000002 8.040000000000001 C 16.5 8.7, 16.544999999999998 8.64, 16.919999999999998 9.36 C 17.25 10.14, 17.25 9.899999999999999, 17.580000000000002 10.92 C 17.910000000000004 12.18, 18.03 12.135000000000002, 18.240000000000002 13.440000000000001 C 18.33 14.790000000000001, 18.33 14.73, 18.419999999999998 16.14 C 18.509999999999998 17.61, 18.51 17.76, 18.6 19.080000000000002 C 18.69 20.25, 18.675 20.61, 18.78 21.419999999999998 C 18.9 21.869999999999997, 18.765 21.884999999999998, 19.02 22.32 C 19.409999999999997 22.740000000000002, 19.439999999999998 22.8, 19.799999999999997 23.16 C 20.13 23.46, 20.22 23.61, 20.46 23.759999999999998 C 20.61 23.759999999999998, 20.369999999999997 23.759999999999998, 20.759999999999998 23.759999999999998 C 21.39 23.759999999999998, 21.224999999999998 23.759999999999998, 22.02 23.759999999999998 C 22.98 23.759999999999998, 23.115000000000002 23.759999999999998, 23.94 23.759999999999998 C 24.630000000000003 23.759999999999998, 24.705 23.699999999999996, 25.32 23.759999999999998 C 25.86 23.88, 25.875 23.744999999999997, 26.400000000000002 24 C 26.910000000000004 24.39, 26.85 24.240000000000002, 27.42 24.78 C 28.05 25.470000000000002, 28.155 25.470000000000006, 28.68 26.160000000000004 C 29.1 26.85, 29.13 26.595, 29.52 27.54 C 29.880000000000003 28.740000000000002, 30.060000000000002 28.665, 30.240000000000002 29.94 C 30.240000000000002 31.29, 30.240000000000002 31.275, 30.240000000000002 32.64 C 30.240000000000002 34.02, 30.315 33.96000000000001, 30.240000000000002 35.400000000000006 C 30.090000000000003 36.900000000000006, 30.075000000000003 37.215, 29.94 38.400000000000006 C 29.82 39.27, 29.850000000000005 39.285000000000004, 29.700000000000003 40.14 C 29.52 40.980000000000004, 29.43 41.4, 29.339999999999996 41.82 C 29.339999999999996 41.82, 29.384999999999994 41.685, 29.339999999999996 41.82 C 29.25 42.09, 29.205000000000002 42.225, 29.160000000000004 42.36 L 29.160000000000004 42.36" fill="none" stroke="black" stroke-width="5"></path></svg>