<svg width="48" height="48" viewBox="0 0 48 48" xmlns="http://www.w3.org/2000/svg"><path d="M 13.32 45.06 C 12.9 44.22, 12.915000000000001 44.550000000000004, 12.48 43.38 C 12.030000000000001 41.88, 11.91 41.67, 11.58 40.38 C 11.370000000000001 39.3, 11.355 39.39, 11.16 38.22 C 10.98 36.96, 10.935 36.870000000000005, 10.8 35.7 C 10.71 34.620000000000005, 10.665000000000001 34.62, 10.620000000000001 33.54 C 10.620000000000001 32.46, 10.620000000000001 32.31, 10.620000000000001 31.380000000000003 C 10.620000000000001 30.6, 10.620000000000001 30.705000000000002, 10.620000000000001 29.82 C 10.620000000000001 28.83, 10.620000000000001 28.664999999999996, 10.620000000000001 27.839999999999996 C 10.620000000000001 27.18, 10.485000000000001 27.15, 10.620000000000001 26.52 C 10.89 25.92, 10.905000000000001 25.785, 11.16 25.32 C 11.4 24.990000000000002, 11.355 24.930000000000003, 11.64 24.660000000000004 C 11.969999999999999 24.450000000000003, 11.939999999999998 24.390000000000004, 12.299999999999999 24.240000000000002 C 12.690000000000001 24.15, 12.855 24.105, 13.080000000000002 24.06 C 13.14 24.06, 13.05 24.06, 13.200000000000001 24.06 C 13.440000000000001 24.06, 13.395 23.97, 13.68 24.06 C 14.01 24.240000000000002, 14.024999999999999 24.09, 14.34 24.42 C 14.64 24.900000000000002, 14.64 24.855000000000004, 14.940000000000001 25.380000000000003 C 15.24 25.950000000000003, 15.285 26.025, 15.54 26.52 C 15.75 26.939999999999998, 15.84 27.075, 15.96 27.36 C 15.99 27.51, 16.005 27.585, 16.02 27.660000000000004 C 16.02 27.660000000000004, 16.02 27.660000000000004, 16.02 27.660000000000004 C 16.02 27.660000000000004, 16.02 27.660000000000004, 16.02 27.660000000000004 C 16.02 27.660000000000004, 15.974999999999998 27.660000000000004, 16.02 27.660000000000004 C 16.11 27.660000000000004, 16.155 27.975000000000005, 16.200000000000003 27.660000000000004 C 16.200000000000003 27.03, 16.200000000000003 27.195000000000004, 16.200000000000003 26.400000000000002 C 16.200000000000003 25.44, 16.125000000000004 25.200000000000003, 16.200000000000003 24.48 C 16.35 24, 16.26 23.94, 16.5 23.52 C 16.83 23.159999999999997, 16.560000000000002 23.115, 17.16 22.799999999999997 C 18.03 22.529999999999998, 17.759999999999998 22.394999999999996, 18.9 22.259999999999998 C 20.31 22.259999999999998, 20.369999999999997 22.229999999999997, 21.72 22.259999999999998 C 23.009999999999998 22.32, 23.324999999999996 22.29, 24.299999999999997 22.38 C 24.959999999999997 22.5, 25.29 22.560000000000002, 25.619999999999997 22.62 L 25.619999999999997 22.62" fill="none" stroke="black" stroke-width="5"></path><path d="M 17.1 7.02 C 16.92 7.2299999999999995, 16.740000000000002 7.02, 16.740000000000002 7.4399999999999995 C 16.92 8.07, 16.785000000000004 8.354999999999999, 17.1 8.7 C 17.55 8.76, 17.565 8.91, 18 8.82 C 18.42 8.58, 18.6 8.55, 18.84 8.34 C 18.9 8.16, 18.975 8.22, 18.96 7.98 C 18.87 7.68, 19.035 7.665, 18.78 7.38 C 18.36 7.109999999999999, 18.69 6.915, 17.94 6.84 C 16.86 6.96, 16.53 6.87, 15.78 7.08 C 15.36 7.38, 15.165000000000001 7.289999999999999, 14.940000000000001 7.68 C 14.91 8.16, 14.564999999999998 8.22, 14.879999999999999 8.64 C 15.540000000000001 9, 15.450000000000003 9.225, 16.200000000000003 9.36 C 17.04 9.27, 17.355 9.434999999999999, 17.88 9.18 C 18.089999999999996 8.76, 18.194999999999997 8.745, 18.299999999999997 8.34 C 18.299999999999997 7.95, 18.674999999999997 7.83, 18.299999999999997 7.5600000000000005 L 16.799999999999997 7.26" fill="none" stroke="black" stroke-width="5"></path><path d="M 12 15.419999999999998 C 12.629999999999999 15.149999999999999, 11.879999999999999 15.119999999999997, 13.26 14.879999999999999 C 15.39 14.67, 15.705 14.655000000000001, 17.52 14.46 C 19.02 14.280000000000001, 19.455 14.190000000000001, 20.52 14.100000000000001 C 21.15 14.100000000000001, 21.39 14.100000000000001, 21.78 14.100000000000001 L 22.080000000000002 14.100000000000001" fill="none" stroke="black" stroke-width="5"></path><path d="M 18.48 35.46 C 18.15 36.09, 17.865000000000002 36.239999999999995, 17.82 36.72 C 18.06 37.05, 17.865 37.215, 18.299999999999997 37.38 C 18.93 37.38, 18.974999999999998 37.785000000000004, 19.56 37.38 C 20.1 36.57, 20.490000000000002 36.735, 20.64 35.76 C 20.4 34.620000000000005, 20.565 34.125, 20.16 33.480000000000004 C 19.59 33.33, 19.439999999999998 32.88, 19.02 33.18 C 18.75 33.93, 18.525 34.095, 18.48 34.68 C 18.66 35.099999999999994, 18.51 35.16, 18.84 35.519999999999996 C 19.32 35.81999999999999, 19.304999999999996 36.209999999999994, 19.799999999999997 36.12 C 20.31 35.64, 20.715 35.61, 20.82 35.160000000000004 C 20.52 34.74, 20.7 34.53, 20.22 34.32 L 18.9 34.32" fill="none" stroke="black" stroke-width="5"></path></svg>