<svg width="48" height="48" viewBox="0 0 48 48" xmlns="http://www.w3.org/2000/svg"><path d="M 10.8 29.46 C 11.4 29.55, 10.935 29.55, 12 29.64 C 13.53 29.73, 13.529999999999998 29.805, 15.059999999999999 29.82 C 16.59 29.76, 17.04 29.865000000000002, 18.12 29.700000000000003 C 18.75 29.430000000000003, 18.645 29.640000000000004, 19.38 29.160000000000004 C 20.22 28.470000000000002, 20.279999999999998 28.680000000000003, 21.06 27.78 C 21.78 26.67, 22.05 26.415, 22.5 25.56 C 22.68 24.96, 22.77 24.66, 22.86 24.36 C 22.86 24.36, 22.86 24.345, 22.86 24.36 C 22.86 24.39, 22.905 24.045, 22.86 24.42 C 22.77 25.14, 22.77 25.005000000000003, 22.68 25.86 C 22.59 26.849999999999998, 22.47 27.104999999999997, 22.5 27.839999999999996 C 22.65 28.319999999999997, 22.499999999999996 28.349999999999994, 22.799999999999997 28.799999999999997 C 23.25 29.22, 22.980000000000004 29.295, 23.700000000000003 29.64 C 24.69 29.91, 24.555 30.03, 25.68 30.18 C 26.94 30.21, 27.315000000000005 30.3, 28.200000000000003 30.240000000000002 C 28.71 30.090000000000003, 28.89 30.060000000000002, 29.22 29.94 L 29.52 29.759999999999998" fill="none" stroke="black" stroke-width="5"></path><path d="M 13.919999999999998 36.72 C 14.07 37.92, 13.995000000000001 38.25, 14.22 39.12 C 14.52 39.66, 14.34 39.6, 14.82 40.2 C 15.48 40.86, 15.435 41.025, 16.14 41.519999999999996 C 16.89 41.849999999999994, 16.830000000000002 41.94, 17.64 42.18 C 18.509999999999998 42.33, 18.494999999999997 42.36, 19.38 42.480000000000004 C 20.28 42.57000000000001, 20.28 42.615, 21.18 42.660000000000004 C 22.08 42.660000000000004, 22.095 42.73500000000001, 22.98 42.660000000000004 C 23.85 42.510000000000005, 23.88 42.585, 24.72 42.36 C 25.529999999999998 42.06, 25.814999999999998 41.985, 26.339999999999996 41.76 C 26.58 41.61, 26.49 41.745000000000005, 26.82 41.46 C 27.240000000000002 41.04, 27.285000000000004 41.129999999999995, 27.660000000000004 40.62 C 27.990000000000002 40.019999999999996, 28.05 40.035, 28.32 39.42 C 28.53 38.790000000000006, 28.515 38.82000000000001, 28.740000000000002 38.160000000000004 C 28.98 37.47, 29.025 37.410000000000004, 29.22 36.78 C 29.369999999999997 36.21, 29.384999999999998 36.375, 29.52 35.64 C 29.64 34.739999999999995, 29.654999999999998 34.949999999999996, 29.759999999999998 33.839999999999996 C 29.85 32.519999999999996, 29.895 32.52, 29.94 31.200000000000003 C 29.94 29.880000000000003, 29.94 29.85, 29.94 28.56 C 29.94 27.299999999999997, 29.94 27.75, 29.94 26.04 C 29.94 23.88, 30.03 23.82, 29.94 21.72 C 29.759999999999998 19.68, 29.744999999999997 19.635, 29.58 17.64 C 29.43 15.690000000000001, 29.43 15.51, 29.28 13.74 C 29.130000000000003 12.15, 29.145000000000003 11.790000000000001, 28.98 10.56 C 28.799999999999997 9.690000000000001, 28.769999999999996 9.585, 28.619999999999997 8.82 C 28.5 8.16, 28.515 8.235, 28.380000000000003 7.5 C 28.23 6.6899999999999995, 28.155 6.33, 28.08 5.88 C 28.08 5.789999999999999, 28.08 5.744999999999999, 28.08 5.699999999999999 L 28.08 5.699999999999999" fill="none" stroke="black" stroke-width="5"></path><path d="M 18.84 8.58 C 18.57 9.06, 18.419999999999998 8.925, 18.299999999999997 9.540000000000001 C 18.33 10.290000000000001, 18.27 10.545000000000002, 18.36 11.040000000000001 C 18.509999999999998 11.280000000000001, 18.21 11.445, 18.66 11.52 C 19.41 11.43, 19.53 11.625, 20.16 11.34 C 20.67 10.86, 20.955 10.889999999999999, 21.18 10.379999999999999 C 21.119999999999997 9.84, 21.255 9.66, 21.06 9.3 C 20.729999999999997 9.120000000000001, 20.715 9.059999999999999, 20.4 8.94 C 20.099999999999998 8.879999999999999, 20.099999999999994 8.76, 19.799999999999997 8.82 C 19.5 9, 19.35 8.76, 19.200000000000003 9.18 C 19.200000000000003 9.84, 19.110000000000003 10.11, 19.200000000000003 10.5 C 19.380000000000003 10.620000000000001, 19.32 10.725, 19.56 10.74 C 19.86 10.65, 19.98 10.785, 20.16 10.56 L 20.28 9.84" fill="none" stroke="black" stroke-width="5"></path><path d="M 13.5 17.64 C 14.459999999999999 17.58, 14.325 17.67, 15.419999999999998 17.52 C 16.65 17.28, 16.68 17.16, 17.88 17.04 C 19.049999999999997 17.04, 19.2 16.994999999999997, 20.22 17.04 C 21.09 17.13, 21.15 17.084999999999997, 21.96 17.22 C 22.71 17.4, 23.085 17.490000000000002, 23.46 17.580000000000002 L 23.46 17.580000000000002" fill="none" stroke="black" stroke-width="5"></path></svg>