<svg width="48" height="48" viewBox="0 0 48 48" xmlns="http://www.w3.org/2000/svg"><path d="M 13.559999999999999 5.1 C 12.75 7.71, 12.764999999999999 6.615, 11.94 10.32 C 11.1 15.12, 10.785 16.529999999999998, 10.26 19.919999999999998 C 10.05 21.9, 9.855 21.974999999999998, 9.84 23.88 C 10.02 25.71, 9.66 26.415, 10.2 27.54 C 11.1 27.96, 10.350000000000001 29.115000000000002, 12 28.380000000000003 C 14.399999999999999 26.490000000000002, 15.134999999999998 26.759999999999998, 16.799999999999997 24.599999999999998 C 17.729999999999997 22.17, 18.195 21.045, 18.66 19.740000000000002 C 18.66 19.560000000000002, 18.66 19.485, 18.66 19.38 C 18.66 19.35, 18.6 18.615, 18.66 19.32 C 18.78 20.76, 18.72 20.370000000000005, 18.9 22.200000000000003 C 19.14 24.42, 18.75 25.155, 19.38 26.64 C 20.4 27.39, 20.115 27.765, 21.419999999999998 28.14 C 23.009999999999998 28.14, 23.43 28.275000000000002, 24.599999999999998 28.14 C 25.349999999999998 27.869999999999997, 25.485 28.125, 26.099999999999998 27.599999999999998 C 26.58 26.82, 26.384999999999998 28.695, 27.06 26.04 C 27.93 21.509999999999998, 28.304999999999996 21.525, 28.799999999999997 16.98 C 28.919999999999998 12.42, 28.979999999999997 10.725000000000001, 29.04 7.86 C 29.04 6.69, 29.04 6.180000000000001, 29.04 5.5200000000000005 C 29.04 5.37, 29.04 5.415, 29.04 5.22 L 29.04 4.74" fill="none" stroke="black" stroke-width="5"></path><path d="M 19.62 6.12 C 19.23 6.6899999999999995, 18.96 6.4799999999999995, 18.84 7.26 C 18.990000000000002 8.25, 18.630000000000003 8.64, 19.14 9.24 C 20.009999999999998 9.45, 20.189999999999998 9.765, 20.88 9.66 C 21.39 9.24, 21.674999999999997 9.39, 21.9 8.82 C 21.84 8.1, 22.155 7.86, 21.78 7.38 C 21.09 7.14, 20.97 6.93, 20.4 6.8999999999999995 C 19.95 7.08, 19.77 6.915, 19.5 7.26 C 19.41 7.77, 19.23 7.844999999999999, 19.32 8.28 C 19.59 8.64, 19.515 9.045, 19.86 9 C 20.28 8.55, 20.475 8.415000000000001, 20.700000000000003 8.100000000000001 L 20.759999999999998 7.74" fill="none" stroke="black" stroke-width="5"></path><path d="M 15.120000000000001 13.620000000000001 C 15.18 13.59, 14.34 13.575, 15.24 13.559999999999999 C 16.98 13.559999999999999, 16.979999999999997 13.559999999999999, 18.72 13.559999999999999 C 20.46 13.559999999999999, 21.150000000000002 13.559999999999999, 22.200000000000003 13.559999999999999 C 22.560000000000002 13.559999999999999, 22.74 13.559999999999999, 22.919999999999998 13.559999999999999 L 22.919999999999998 13.559999999999999" fill="none" stroke="black" stroke-width="5"></path><path d="M 20.759999999999998 27.660000000000004 C 20.759999999999998 28.650000000000002, 20.955 28.575000000000003, 20.759999999999998 29.64 C 20.369999999999997 30.78, 20.85 30.555000000000003, 19.98 31.92 C 18.630000000000003 33.51, 18.96 33.644999999999996, 17.28 35.099999999999994 C 15.27 36.42, 14.715 36.855000000000004, 13.26 37.74 C 12.36 38.19, 12.495 38.295, 11.459999999999999 38.64 L 9.120000000000001 39.12" fill="none" stroke="black" stroke-width="5"></path><path d="M 24.299999999999997 34.5 C 24.299999999999997 35.519999999999996, 24.734999999999996 35.325, 24.299999999999997 36.54 C 23.43 37.95, 23.865 38.01, 22.56 39.36 C 20.82 40.65, 20.745 40.89, 19.080000000000002 41.94 C 17.490000000000002 42.75, 17.25 42.765, 15.899999999999999 43.56 C 14.79 44.34, 14.399999999999999 44.699999999999996, 13.68 45.12 L 13.02 45.24" fill="none" stroke="black" stroke-width="5"></path></svg>