<svg width="48" height="48" viewBox="0 0 48 48" xmlns="http://www.w3.org/2000/svg"><path d="M 8.28 43.44 C 8.1 41.94, 8.055 41.864999999999995, 7.92 40.44 C 7.83 39.09, 7.785 39.510000000000005, 7.74 37.74 C 7.74 35.55, 7.74 35.64, 7.74 33.36 C 7.74 30.99, 7.68 30.81, 7.74 28.619999999999997 C 7.86 26.61, 7.7700000000000005 26.729999999999997, 7.98 24.599999999999998 C 8.280000000000001 22.35, 8.325 21.705000000000002, 8.58 20.1 C 8.79 19.14, 8.715 19.035, 9 18.18 C 9.36 17.43, 9.165000000000001 17.415, 9.72 16.68 C 10.47 15.96, 10.455000000000002 15.81, 11.22 15.24 C 12 14.82, 12.12 14.684999999999999, 12.78 14.399999999999999 C 13.32 14.25, 13.274999999999999 14.175, 13.86 14.100000000000001 C 14.49 14.100000000000001, 14.610000000000001 14.100000000000001, 15.120000000000001 14.100000000000001 C 15.51 14.100000000000001, 15.36 14.100000000000001, 15.899999999999999 14.100000000000001 C 16.59 14.100000000000001, 16.665 14.100000000000001, 17.28 14.100000000000001 C 17.82 14.100000000000001, 17.835 14.025000000000002, 18.36 14.100000000000001 C 18.869999999999997 14.25, 18.96 14.04, 19.38 14.399999999999999 C 19.71 14.969999999999999, 19.59 14.684999999999999, 20.04 15.54 C 20.61 16.68, 20.73 16.77, 21.18 17.82 C 21.509999999999998 18.78, 21.54 18.705000000000002, 21.84 19.740000000000002 C 22.11 20.85, 22.125 20.85, 22.38 21.96 C 22.619999999999997 23.07, 22.619999999999997 22.86, 22.86 24.18 C 23.1 25.71, 23.16 26.01, 23.34 27.240000000000002 C 23.46 28.17, 23.415000000000003 28.32, 23.580000000000002 29.099999999999998 C 23.79 29.729999999999997, 23.880000000000003 29.849999999999998, 24 30.36 C 24.03 30.75, 24.015 30.825000000000003, 24.06 31.14 C 24.119999999999997 31.38, 24.15 31.47, 24.18 31.619999999999997 C 24.18 31.68, 24.075 31.650000000000002, 24.18 31.740000000000002 C 24.39 31.86, 24.044999999999998 32.1, 24.599999999999998 31.98 C 25.5 31.619999999999997, 25.665000000000003 31.485, 26.400000000000002 31.259999999999998 C 26.97 31.169999999999998, 26.985 31.125, 27.54 31.08 C 28.08 31.08, 28.034999999999997 31.004999999999995, 28.619999999999997 31.08 C 29.25 31.23, 29.130000000000003 31.245000000000005, 29.880000000000003 31.380000000000003 C 30.75 31.5, 30.75 31.38, 31.619999999999997 31.619999999999997 C 32.489999999999995 31.979999999999997, 32.67 31.994999999999997, 33.36 32.339999999999996 C 33.870000000000005 32.67, 33.900000000000006 32.504999999999995, 34.38 33 C 34.83 33.66, 34.905 33.525, 35.28 34.32 C 35.58 35.25, 35.7 35.28, 35.88 36.18 C 35.94 37.05, 36 36.915, 36 37.92 C 35.94 39.06, 35.985 39.36, 35.88 40.2 C 35.730000000000004 40.74, 35.685 40.815, 35.58 41.28 C 35.519999999999996 41.67, 35.49 41.865, 35.46 42.06 L 35.46 42.06" fill="none" stroke="black" stroke-width="5"></path><path d="M 29.46 17.52 C 28.92 17.939999999999998, 28.71 17.685, 28.380000000000003 18.36 C 28.26 19.29, 27.825000000000003 19.619999999999997, 28.14 20.22 C 28.89 20.49, 29.009999999999998 20.939999999999998, 29.64 20.759999999999998 C 30.150000000000002 20.13, 30.495000000000005 20.055, 30.660000000000004 19.5 C 30.48 19.02, 30.794999999999998 18.884999999999998, 30.299999999999997 18.54 C 29.49 18.33, 29.189999999999998 18.03, 28.68 18.12 C 28.47 18.509999999999998, 28.139999999999997 18.375, 28.259999999999998 18.9 C 28.71 19.56, 28.695000000000004 19.83, 29.160000000000004 20.22 C 29.64 20.34, 29.669999999999998 20.85, 30.119999999999997 20.46 C 30.54 19.560000000000002, 31.095 19.23, 30.96 18.66 C 30.27 18.42, 30.089999999999996 18, 29.58 18.18 C 29.25 18.78, 29.085 19.08, 28.92 19.38 L 28.92 19.38" fill="none" stroke="black" stroke-width="5"></path><path d="M 25.380000000000003 25.92 C 27.57 25.740000000000002, 27.689999999999998 25.695, 29.759999999999998 25.56 C 31.71 25.47, 32.655 25.425, 33.660000000000004 25.380000000000003 L 33.78 25.380000000000003" fill="none" stroke="black" stroke-width="5"></path><path d="M 14.879999999999999 24.240000000000002 C 14.37 24.75, 14.145 24.615, 13.86 25.259999999999998 C 13.8 26.04, 13.635 26.325, 13.74 26.82 C 14.01 27.03, 13.74 27.21, 14.28 27.240000000000002 C 15.09 27.090000000000003, 15.449999999999998 27.435000000000002, 15.899999999999999 26.94 C 15.99 26.1, 16.275000000000002 25.785, 16.080000000000002 25.259999999999998 C 15.600000000000001 25.049999999999997, 15.570000000000002 24.749999999999996, 15.120000000000001 24.839999999999996 C 14.7 25.229999999999997, 14.309999999999999 25.034999999999997, 14.28 25.619999999999997 C 14.64 26.4, 14.475 26.685, 15 27.18 C 15.69 27.39, 15.944999999999999 27.959999999999997, 16.38 27.599999999999998 C 16.560000000000002 26.67, 16.92 26.310000000000002, 16.740000000000002 25.740000000000002 C 16.200000000000003 25.53, 16.11 25.305, 15.66 25.32 C 15.3 25.56, 15.120000000000001 25.604999999999997, 14.940000000000001 25.799999999999997 L 14.940000000000001 26.099999999999998" fill="none" stroke="black" stroke-width="5"></path><path d="M 11.22 36.24 C 12.27 36.150000000000006, 11.31 36.105000000000004, 13.32 36.06 C 16.29 36.06, 17.384999999999998 36.015, 19.259999999999998 36.06 C 20.04 36.150000000000006, 20.205 36.150000000000006, 20.82 36.24 C 21.27 36.33, 21.494999999999997 36.375, 21.72 36.42 L 21.72 36.42" fill="none" stroke="black" stroke-width="5"></path></svg>