<svg width="48" height="48" viewBox="0 0 48 48" xmlns="http://www.w3.org/2000/svg"><path d="M 9.18 44.82 C 9 43.11, 9.075 43.665000000000006, 8.82 41.400000000000006 C 8.49 38.58, 8.415 38.655, 8.16 35.76 C 7.98 32.79, 7.875000000000001 32.475, 7.800000000000001 29.82 C 7.83 27.48, 7.7250000000000005 27.72, 7.86 25.14 C 8.1 22.32, 8.22 21.735, 8.34 19.5 C 8.34 17.85, 8.205 17.640000000000004, 8.34 16.200000000000003 C 8.61 14.970000000000002, 8.669999999999998 14.64, 8.879999999999999 13.74 C 9.03 13.170000000000002, 8.76 13.155000000000001, 9.18 12.600000000000001 C 9.870000000000001 12.06, 9.9 11.925, 10.56 11.52 C 11.190000000000001 11.25, 11.19 11.115, 11.82 10.98 C 12.450000000000001 10.98, 12.540000000000003 10.95, 13.080000000000002 10.98 C 13.530000000000001 11.040000000000001, 13.425 10.965000000000002, 13.98 11.100000000000001 C 14.64 11.31, 14.715 11.205, 15.299999999999999 11.52 C 15.809999999999999 11.94, 15.795 11.895, 16.32 12.36 C 16.86 12.87, 16.905 12.899999999999999, 17.4 13.379999999999999 C 17.849999999999998 13.829999999999998, 17.864999999999995 13.724999999999998, 18.299999999999997 14.28 C 18.72 14.940000000000001, 18.675 14.760000000000002, 19.14 15.600000000000001 C 19.65 16.62, 19.71 16.650000000000002, 20.16 17.64 C 20.55 18.6, 20.625 18.494999999999997, 20.94 19.56 C 21.18 20.729999999999997, 21.195 20.865, 21.419999999999998 21.9 C 21.63 22.8, 21.735 22.335, 21.84 23.700000000000003 C 21.84 25.53, 21.84 25.65, 21.84 27.36 C 21.84 28.95, 21.84 29.534999999999997, 21.84 30.54 C 21.84 30.96, 21.75 31.005000000000003, 21.84 31.380000000000003 C 22.020000000000003 31.71, 22.110000000000003 31.875, 22.200000000000003 32.04 C 22.200000000000003 32.04, 22.185000000000002 31.994999999999997, 22.200000000000003 32.04 C 22.23 32.129999999999995, 22.034999999999997 32.16, 22.259999999999998 32.22 C 22.68 32.25, 22.695 32.265, 23.1 32.28 C 23.490000000000002 32.28, 23.415 32.28, 23.88 32.28 C 24.42 32.28, 24.375 32.205, 24.96 32.28 C 25.59 32.43, 25.665 32.37, 26.22 32.58 C 26.7 32.849999999999994, 26.625 32.669999999999995, 27.18 33.12 C 27.810000000000002 33.75, 27.915 33.735, 28.44 34.38 C 28.86 35.040000000000006, 28.905 34.89, 29.28 35.7 C 29.61 36.66, 29.685000000000002 36.9, 29.94 37.62 C 30.119999999999997 38.099999999999994, 30.134999999999998 37.92, 30.299999999999997 38.58 C 30.449999999999996 39.42, 30.525 39.495, 30.599999999999998 40.26 C 30.599999999999998 40.95, 30.599999999999998 41.025, 30.599999999999998 41.64 C 30.599999999999998 42.18, 30.599999999999998 42.45, 30.599999999999998 42.72 C 30.599999999999998 42.72, 30.615 42.735, 30.599999999999998 42.72 L 30.54 42.660000000000004" fill="none" stroke="black" stroke-width="5"></path><path d="M 27.06 15.120000000000001 C 26.73 15.84, 26.520000000000003 15.944999999999999, 26.400000000000002 16.56 C 26.490000000000002 17.07, 26.445 17.265, 26.58 17.580000000000002 C 26.759999999999998 17.700000000000003, 26.67 17.97, 26.94 17.82 C 27.300000000000004 17.4, 27.480000000000004 17.505, 27.660000000000004 16.98 C 27.660000000000004 16.35, 27.750000000000007 16.080000000000002, 27.660000000000004 15.72 C 27.48 15.629999999999999, 27.644999999999996 15.405, 27.299999999999997 15.54 C 26.79 15.899999999999999, 26.490000000000002 15.599999999999998, 26.28 16.259999999999998 C 26.37 17.22, 26.325000000000003 17.58, 26.46 18.18 C 26.64 18.42, 26.55 18.78, 26.82 18.66 C 27.18 18.18, 27.285 18.285000000000004, 27.54 17.700000000000003 C 27.689999999999998 17.01, 27.854999999999997 16.770000000000003, 27.839999999999996 16.32 C 27.659999999999997 16.11, 27.689999999999998 15.959999999999997, 27.48 15.899999999999999 C 27.240000000000002 15.99, 27.165 15.870000000000001, 27 16.080000000000002 L 26.82 16.740000000000002" fill="none" stroke="black" stroke-width="5"></path><path d="M 23.88 25.380000000000003 C 24.9 25.380000000000003, 24.78 25.380000000000003, 25.92 25.380000000000003 C 27.18 25.380000000000003, 27.57 25.305000000000003, 28.44 25.380000000000003 C 28.92 25.53, 28.935000000000002 25.605, 29.400000000000002 25.68 C 29.85 25.68, 30.075 25.68, 30.299999999999997 25.68 L 30.299999999999997 25.68" fill="none" stroke="black" stroke-width="5"></path><path d="M 14.64 24.48 C 14.1 25.380000000000003, 14.325 24.54, 13.559999999999999 26.28 C 12.57 28.86, 12.18 29.700000000000003, 11.58 31.44 C 11.370000000000001 32.34, 11.265 32.220000000000006, 11.16 33.24 C 11.16 34.379999999999995, 11.055 34.394999999999996, 11.16 35.519999999999996 C 11.370000000000001 36.629999999999995, 11.205 36.915, 11.58 37.74 C 12.120000000000001 38.28, 12 38.505, 12.66 38.82 C 13.440000000000001 38.91, 13.56 39, 14.22 39 C 14.76 38.91, 14.7 39.225, 15.299999999999999 38.82 C 15.96 38.1, 16.11 38.355000000000004, 16.62 37.38 C 16.98 36.150000000000006, 17.085 36.18000000000001, 17.34 34.92 C 17.490000000000002 33.629999999999995, 17.565 33.51, 17.64 32.339999999999996 C 17.64 31.29, 17.685000000000002 31.200000000000003, 17.64 30.240000000000002 C 17.55 29.37, 17.685000000000002 29.355, 17.46 28.5 C 17.1 27.66, 17.085 27.525, 16.740000000000002 26.82 C 16.410000000000004 26.25, 16.335 26.055, 16.080000000000002 25.68 C 15.900000000000002 25.5, 15.915000000000001 25.5, 15.72 25.32 C 15.51 25.14, 15.405 25.05, 15.299999999999999 24.96 C 15.299999999999999 24.96, 15.344999999999999 24.96, 15.299999999999999 24.96 L 15.120000000000001 24.96" fill="none" stroke="black" stroke-width="5"></path></svg>