<svg width="48" height="48" viewBox="0 0 48 48" xmlns="http://www.w3.org/2000/svg"><path d="M 13.620000000000001 28.02 C 13.98 28.02, 13.605 28.155, 14.34 28.02 C 15.45 27.75, 15.27 27.705000000000002, 16.56 27.48 C 18.03 27.299999999999997, 18.075 27.209999999999997, 19.5 27.119999999999997 C 20.88 27.119999999999997, 21.074999999999996 27.119999999999997, 22.259999999999998 27.119999999999997 C 23.25 27.119999999999997, 23.205000000000002 27.119999999999997, 24.240000000000002 27.119999999999997 C 25.32 27.119999999999997, 25.410000000000004 27.119999999999997, 26.400000000000002 27.119999999999997 C 27.300000000000004 27.119999999999997, 27.645000000000003 27.119999999999997, 28.200000000000003 27.119999999999997 C 28.41 27.119999999999997, 28.515 27.119999999999997, 28.619999999999997 27.119999999999997 L 28.619999999999997 27.119999999999997" fill="none" stroke="black" stroke-width="5"></path><path d="M 28.799999999999997 34.74 C 28.259999999999998 34.59, 28.335 34.515, 27.72 34.44 C 27.029999999999998 34.44, 26.955 34.379999999999995, 26.339999999999996 34.44 C 25.799999999999997 34.56, 25.859999999999996 34.364999999999995, 25.259999999999998 34.68 C 24.6 35.19, 24.48 35.05500000000001, 23.94 35.7 C 23.520000000000003 36.480000000000004, 23.37 36.51, 23.1 37.26 C 22.98 37.980000000000004, 22.92 37.995000000000005, 22.86 38.7 C 22.86 39.39, 22.56 39.36, 22.86 40.08 C 23.46 40.83, 23.505 41.025, 24.06 41.58 C 24.57 41.94, 24.525 42.12, 25.08 42.3 C 25.68 42.3, 25.665 42.419999999999995, 26.28 42.3 C 26.91 42.06, 26.924999999999997 42.195, 27.54 41.82 C 28.14 41.31, 28.290000000000003 41.309999999999995, 28.740000000000002 40.8 C 29.04 40.29, 29.189999999999998 40.365, 29.339999999999996 39.78 C 29.339999999999996 39.120000000000005, 29.414999999999996 39.24, 29.339999999999996 38.46 C 29.189999999999998 37.56, 29.189999999999998 37.545, 29.04 36.660000000000004 C 28.89 35.790000000000006, 28.830000000000002 36.075, 28.740000000000002 34.92 C 28.71 33.480000000000004, 28.785 33.87, 28.68 32.04 C 28.5 29.82, 28.41 29.729999999999997, 28.32 27.599999999999998 C 28.32 25.56, 28.365000000000002 25.244999999999997, 28.32 23.52 C 28.23 22.11, 28.275 22.020000000000003, 28.14 20.700000000000003 C 27.96 19.470000000000002, 27.87 19.620000000000005, 27.78 18.240000000000002 C 27.78 16.71, 27.78 16.68, 27.78 15.18 C 27.78 13.71, 27.78 13.635, 27.78 12.24 C 27.78 10.920000000000002, 27.825000000000003 10.575000000000001, 27.78 9.600000000000001 C 27.689999999999998 8.97, 27.645 9.225, 27.599999999999998 8.34 C 27.599999999999998 7.2, 27.599999999999998 6.75, 27.599999999999998 6.0600000000000005 C 27.599999999999998 5.82, 27.599999999999998 5.7, 27.599999999999998 5.58 L 27.599999999999998 5.58" fill="none" stroke="black" stroke-width="5"></path><path d="M 18.72 9.42 C 18.66 10.05, 18.405 9.975, 18.6 10.68 C 19.05 11.46, 19.11 11.745000000000001, 19.5 12.24 C 19.83 12.45, 19.740000000000002 12.66, 20.16 12.66 C 20.67 12.45, 20.82 12.705, 21.18 12.24 C 21.39 11.52, 21.495 11.355, 21.6 10.8 C 21.6 10.41, 21.825000000000003 10.32, 21.6 10.02 C 21.150000000000002 9.81, 21.150000000000006 9.615000000000002, 20.700000000000003 9.600000000000001 C 20.25 9.780000000000001, 20.144999999999996 9.434999999999999, 19.799999999999997 9.959999999999999 C 19.56 10.829999999999998, 19.439999999999998 11.114999999999998, 19.32 11.7 C 19.32 12, 19.125 12.09, 19.32 12.299999999999999 C 19.71 12.419999999999998, 19.650000000000002 12.974999999999998, 20.1 12.54 C 20.61 11.55, 20.865000000000002 11.175, 21.12 10.56 L 21.12 10.08" fill="none" stroke="black" stroke-width="5"></path><path d="M 17.52 19.919999999999998 C 19.29 19.86, 19.5 19.83, 21.06 19.799999999999997 C 22.409999999999997 19.799999999999997, 22.634999999999998 19.799999999999997, 23.759999999999998 19.799999999999997 C 24.659999999999997 19.799999999999997, 25.11 19.799999999999997, 25.56 19.799999999999997 L 25.56 19.799999999999997" fill="none" stroke="black" stroke-width="5"></path></svg>