<svg width="48" height="48" viewBox="0 0 48 48" xmlns="http://www.w3.org/2000/svg"><path d="M 9.36 14.04 C 9.75 14.04, 9.15 14.055, 10.14 14.04 C 11.73 14.01, 11.82 14.040000000000001, 13.32 13.98 C 14.73 13.89, 14.475000000000001 13.844999999999999, 16.14 13.799999999999999 C 18.060000000000002 13.799999999999999, 18.18 13.799999999999999, 19.98 13.799999999999999 C 21.66 13.799999999999999, 21.63 13.799999999999999, 23.34 13.799999999999999 C 25.08 13.799999999999999, 25.605 13.754999999999999, 26.82 13.799999999999999 C 27.51 13.89, 27.660000000000004 13.68, 28.200000000000003 13.98 C 28.590000000000003 14.49, 28.785 13.86, 28.98 15 C 28.98 16.77, 29.295 16.11, 28.98 18.54 C 28.35 21.63, 28.634999999999998 20.939999999999998, 27.72 24.72 C 26.52 29.19, 26.505 29.655, 25.32 33.660000000000004 C 24.15 37.2, 23.880000000000003 37.965, 22.98 40.74 C 22.35 42.75, 22.215 43.23, 21.72 44.76 C 21.36 45.81, 21.225 46.245, 21 46.86 C 20.91 47.04, 20.865000000000002 47.129999999999995, 20.82 47.22 L 20.82 47.22" fill="none" stroke="black" stroke-width="5"></path><path d="M 19.62 1.7399999999999998 C 19.23 1.9799999999999998, 19.08 1.6949999999999998, 18.84 2.2199999999999998 C 18.75 3.03, 18.405 3.42, 18.66 3.84 C 19.259999999999998 3.87, 19.305 4.08, 19.86 3.9000000000000004 C 20.369999999999997 3.5100000000000002, 20.61 3.6300000000000003, 20.88 3.12 C 20.91 2.49, 21.525000000000002 2.01, 20.94 1.8599999999999999 C 19.740000000000002 2.19, 19.23 2.01, 18.54 2.52 C 18.36 3.21, 17.895 3.4200000000000004, 18.18 3.9000000000000004 C 18.93 4.17, 18.96 4.739999999999999, 19.68 4.4399999999999995 C 20.369999999999997 3.57, 20.759999999999998 3.39, 21.06 2.7 C 20.97 2.1900000000000004, 21.345 2.0250000000000004, 20.88 1.6800000000000002 C 20.04 1.5, 19.740000000000002 0.9600000000000001, 19.200000000000003 1.32 C 18.96 2.22, 18.705 2.595, 18.72 3.12 L 19.259999999999998 3.42" fill="none" stroke="black" stroke-width="5"></path><path d="M 11.459999999999999 10.02 C 13.8 9.66, 13.35 9.540000000000001, 16.14 9.3 C 19.380000000000003 9.18, 19.47 9.225000000000001, 22.62 9.06 C 25.68 8.850000000000001, 26.970000000000002 8.745000000000001, 28.740000000000002 8.64 L 29.700000000000003 8.64" fill="none" stroke="black" stroke-width="5"></path></svg>