<svg width="48" height="48" viewBox="0 0 48 48" xmlns="http://www.w3.org/2000/svg"><path d="M 11.399999999999999 45.480000000000004 C 11.16 44.85, 11.145 45.42, 10.92 44.22 C 10.71 42.45, 10.785 42.6, 10.5 40.68 C 10.14 38.61, 10.035 38.489999999999995, 9.78 36.54 C 9.629999999999999 34.71, 9.555 34.32, 9.48 32.88 C 9.48 31.830000000000002, 9.48 32.025, 9.48 30.78 C 9.48 29.340000000000003, 9.375 29.325000000000003, 9.48 27.900000000000002 C 9.69 26.490000000000002, 9.645 26.43, 9.899999999999999 25.08 C 10.2 23.79, 10.155 23.55, 10.5 22.5 C 10.89 21.689999999999998, 10.83 21.585, 11.28 20.88 C 11.79 20.28, 11.745 20.189999999999998, 12.299999999999999 19.68 C 12.899999999999999 19.259999999999998, 12.855 19.11, 13.5 18.84 C 14.19 18.72, 14.129999999999999 18.615000000000002, 14.879999999999999 18.6 C 15.69 18.69, 15.975 18.645000000000003, 16.5 18.78 C 16.740000000000002 18.96, 16.71 18.885, 16.98 19.14 C 17.28 19.47, 17.265 19.29, 17.580000000000002 19.799999999999997 C 17.910000000000004 20.49, 17.955000000000002 20.31, 18.240000000000002 21.18 C 18.48 22.23, 18.555 22.365000000000002, 18.72 23.28 C 18.81 24.06, 18.854999999999997 24.15, 18.9 24.839999999999996 C 18.9 25.439999999999998, 18.854999999999997 25.619999999999997, 18.9 26.04 C 18.990000000000002 26.28, 19.035 26.4, 19.080000000000002 26.52 C 19.080000000000002 26.52, 19.080000000000002 26.745, 19.080000000000002 26.52 C 19.080000000000002 26.07, 19.080000000000002 26.459999999999997, 19.080000000000002 25.619999999999997 C 19.080000000000002 24.39, 19.035000000000004 24.375, 19.080000000000002 23.16 C 19.17 21.96, 19.049999999999997 21.764999999999997, 19.259999999999998 20.759999999999998 C 19.589999999999996 19.95, 19.485 19.8, 19.919999999999998 19.14 C 20.46 18.630000000000003, 20.58 18.435000000000002, 21 18.12 C 21.3 18, 21.165 17.924999999999997, 21.6 17.88 C 22.17 17.91, 22.17 17.715, 22.740000000000002 17.94 C 23.310000000000002 18.36, 23.265 18.12, 23.88 18.78 C 24.54 19.68, 24.615000000000002 19.410000000000004, 25.200000000000003 20.580000000000002 C 25.71 22.020000000000003, 25.785 21.885, 26.22 23.46 C 26.58 25.17, 26.64 25.035000000000004, 26.94 26.880000000000003 C 27.18 28.86, 27.285000000000004 28.874999999999996, 27.42 30.839999999999996 C 27.450000000000003 32.79, 27.405 33.045, 27.48 34.74 C 27.6 36.18, 27.615 36.12, 27.72 37.62 C 27.810000000000002 39.18, 27.855 39.57, 27.900000000000002 40.74 C 27.900000000000002 41.519999999999996, 27.900000000000002 41.76, 27.900000000000002 42.3 C 27.900000000000002 42.6, 27.900000000000002 42.675000000000004, 27.900000000000002 42.900000000000006 C 27.900000000000002 43.050000000000004, 27.870000000000005 43.035000000000004, 27.900000000000002 43.2 C 27.96 43.38, 27.990000000000002 43.395, 28.02 43.56 C 28.02 43.71, 28.02 43.754999999999995, 28.02 43.86 C 28.02 43.92, 28.049999999999997 43.92, 28.02 43.980000000000004 L 27.900000000000002 44.099999999999994" fill="none" stroke="black" stroke-width="5"></path><path d="M 15.419999999999998 3.24 C 15 3.81, 14.805000000000001 3.7800000000000002, 14.580000000000002 4.38 C 14.55 5.01, 14.235 5.055, 14.52 5.64 C 15.120000000000001 6.18, 15.120000000000001 6.405000000000001, 15.72 6.720000000000001 C 16.32 6.8100000000000005, 16.439999999999998 7.109999999999999, 16.919999999999998 6.8999999999999995 C 17.28 6.39, 17.415 6.375, 17.64 5.88 C 17.73 5.4, 17.985 5.325, 17.82 4.92 C 17.4 4.59, 17.46 4.425, 16.98 4.26 C 16.439999999999998 4.26, 16.29 4.26, 15.899999999999999 4.26 C 15.659999999999998 4.26, 15.569999999999999 4.0649999999999995, 15.419999999999998 4.26 C 15.36 4.65, 15.299999999999999 4.65, 15.299999999999999 5.04 C 15.36 5.43, 15.344999999999997 5.58, 15.419999999999998 5.82 C 15.51 5.91, 15.3 6.135, 15.600000000000001 6 C 16.11 5.640000000000001, 16.365000000000002 5.6850000000000005, 16.62 5.28 C 16.62 4.83, 16.71 4.74, 16.62 4.38 C 16.439999999999998 4.109999999999999, 16.665 3.915, 16.259999999999998 3.84 C 15.629999999999999 3.96, 15.36 3.7800000000000002, 15 4.08 C 14.91 4.5600000000000005, 14.775 4.5, 14.82 5.04 C 15 5.640000000000001, 14.805 5.835, 15.18 6.24 C 15.75 6.45, 15.84 6.645, 16.32 6.66 C 16.71 6.48, 16.845000000000002 6.510000000000001, 17.1 6.300000000000001 C 17.22 6.0600000000000005, 17.28 5.94, 17.34 5.82 L 17.34 5.82" fill="none" stroke="black" stroke-width="5"></path><path d="M 12.299999999999999 12 C 12.239999999999998 12.149999999999999, 12.014999999999999 12.195, 12.18 12.299999999999999 C 12.57 12.36, 12 12.389999999999999, 12.96 12.419999999999998 C 14.49 12.419999999999998, 14.34 12.419999999999998, 16.02 12.419999999999998 C 17.85 12.419999999999998, 18.21 12.524999999999999, 19.68 12.419999999999998 C 20.79 12.209999999999999, 21.345 12.105, 21.9 12 C 21.9 12, 21.9 12, 21.9 12 L 21.9 12" fill="none" stroke="black" stroke-width="5"></path><path d="M 19.62 31.619999999999997 C 18.84 31.619999999999997, 18.794999999999998 31.544999999999995, 18.06 31.619999999999997 C 17.369999999999997 31.77, 17.25 31.590000000000003, 16.68 31.92 C 16.23 32.43, 16.14 32.385, 15.78 32.94 C 15.51 33.54, 15.6 33.33, 15.24 34.14 C 14.79 35.16, 14.61 35.31, 14.34 36.18 C 14.25 36.9, 14.145 36.974999999999994, 14.16 37.62 C 14.28 38.19, 14.189999999999998 38.265, 14.399999999999999 38.76 C 14.7 39.17999999999999, 14.64 39.17999999999999, 15 39.599999999999994 C 15.42 40.019999999999996, 15.39 40.035, 15.84 40.44 C 16.32 40.83, 16.185 40.92, 16.799999999999997 41.22 C 17.549999999999997 41.43, 17.444999999999997 41.565, 18.299999999999997 41.64 C 19.259999999999998 41.58, 19.439999999999998 41.699999999999996, 20.22 41.519999999999996 C 20.82 41.22, 20.865 41.355000000000004, 21.419999999999998 40.92 C 21.93 40.35, 21.945 40.59, 22.44 39.78 C 22.92 38.730000000000004, 23.115 38.730000000000004, 23.4 37.68 C 23.490000000000002 36.629999999999995, 23.535 36.464999999999996, 23.580000000000002 35.58 C 23.580000000000002 34.86, 23.76 34.905, 23.580000000000002 34.14 C 23.22 33.33, 23.295 33.224999999999994, 22.86 32.519999999999996 C 22.35 31.919999999999998, 22.38 31.77, 21.84 31.32 C 21.270000000000003 31.02, 21.330000000000002 30.869999999999997, 20.700000000000003 30.72 C 20.01 30.72, 19.815 30.689999999999998, 19.32 30.72 C 19.02 30.779999999999998, 19.005 30.705, 18.72 30.839999999999996 C 18.45 31.049999999999997, 18.36 31.109999999999996, 18.18 31.259999999999998 L 18 31.44" fill="none" stroke="black" stroke-width="5"></path><path d="M 14.28 36.839999999999996 C 14.669999999999998 36.839999999999996, 14.354999999999999 36.839999999999996, 15.059999999999999 36.839999999999996 C 16.08 36.839999999999996, 15.945 36.974999999999994, 17.1 36.839999999999996 C 18.39 36.56999999999999, 18.615000000000002 36.525, 19.68 36.3 C 20.52 36.12, 20.625 36.059999999999995, 21.36 35.94 C 21.990000000000002 35.879999999999995, 22.035 35.85, 22.62 35.82 C 23.160000000000004 35.82, 23.355000000000004 35.82, 23.700000000000003 35.82 L 24 35.82" fill="none" stroke="black" stroke-width="5"></path></svg>