<svg width="48" height="48" viewBox="0 0 48 48" xmlns="http://www.w3.org/2000/svg"><path d="M 17.04 31.259999999999998 C 17.34 32.370000000000005, 17.445 31.725, 17.64 33.480000000000004 C 17.73 35.88, 17.775 36, 17.82 38.28 C 17.82 40.44, 18.045 40.87499999999999, 17.82 42.599999999999994 C 17.369999999999997 43.89, 17.324999999999996 44.31, 16.919999999999998 45.18 C 16.560000000000002 45.629999999999995, 16.695 45.78, 16.200000000000003 46.08 C 15.570000000000002 46.230000000000004, 15.675000000000002 46.47, 14.940000000000001 46.38 C 14.100000000000001 46.05, 14.205 47.1, 13.26 45.72 C 12.21 43.29, 11.88 43.5, 11.16 40.86 C 10.77 38.010000000000005, 10.634999999999998 37.605000000000004, 10.379999999999999 35.160000000000004 C 10.26 33.120000000000005, 10.305 33.345, 10.14 31.08 C 9.93 28.589999999999996, 9.735000000000001 28.455, 9.72 26.099999999999998 C 9.9 23.88, 9.72 23.655, 10.08 21.66 C 10.620000000000001 19.89, 10.815000000000001 19.200000000000003, 11.16 18.12 C 11.309999999999999 17.73, 11.294999999999998 17.595, 11.459999999999999 17.34 C 11.64 17.22, 11.355 16.98, 11.82 17.1 C 12.57 17.46, 12.555 17.295, 13.32 17.82 C 14.1 18.51, 14.07 18.150000000000002, 14.879999999999999 19.200000000000003 C 15.719999999999999 20.61, 15.809999999999999 20.595, 16.56 22.02 C 17.22 23.46, 17.415 23.685000000000002, 17.88 24.900000000000002 C 18.15 25.89, 18.284999999999997 26.385, 18.419999999999998 26.880000000000003 C 18.419999999999998 26.880000000000003, 18.435 27.060000000000002, 18.419999999999998 26.880000000000003 C 18.39 26.520000000000003, 18.33 27.060000000000002, 18.36 26.160000000000004 C 18.45 24.720000000000002, 18.345 24.585, 18.54 23.28 C 18.84 22.11, 18.54 22.020000000000003, 19.14 20.94 C 20.04 19.950000000000003, 20.19 19.605, 20.94 18.96 C 21.54 18.66, 21.555 18.495, 22.14 18.36 C 22.71 18.39, 22.53 18.06, 23.28 18.419999999999998 C 24.21 19.11, 24.135 18.479999999999997, 25.14 19.799999999999997 C 26.22 21.75, 26.354999999999997 21.435000000000002, 27.299999999999997 23.700000000000003 C 28.11 26.28, 28.35 26.145, 28.92 28.86 C 29.25 31.71, 29.4 32.355000000000004, 29.58 34.56 C 29.61 36.120000000000005, 29.625 36.06, 29.64 37.68 C 29.64 39.36, 29.67 39.735, 29.64 41.04 C 29.58 41.97, 29.564999999999998 42.25500000000001, 29.52 42.900000000000006 C 29.490000000000002 43.260000000000005, 29.475 43.335, 29.46 43.62 C 29.46 43.83, 29.475 43.89, 29.46 44.04 L 29.400000000000002 44.22" fill="none" stroke="black" stroke-width="5"></path><path d="M 16.02 3.3600000000000003 C 15.75 4.23, 15.57 4.47, 15.48 5.1 C 15.57 5.49, 15.465 5.654999999999999, 15.66 5.88 C 15.959999999999999 5.9399999999999995, 15.899999999999999 6.39, 16.259999999999998 6 C 16.68 5.16, 16.89 4.86, 17.1 4.32 C 17.1 4.08, 17.355 3.96, 17.1 3.84 C 16.590000000000003 3.84, 16.44 3.495, 16.080000000000002 3.84 C 15.870000000000001 4.529999999999999, 15.765 4.6499999999999995, 15.66 5.22 C 15.66 5.67, 15.495000000000001 6.0600000000000005, 15.66 6.12 C 15.99 5.79, 16.11 5.775, 16.32 5.46 L 16.5 4.86" fill="none" stroke="black" stroke-width="5"></path><path d="M 9.959999999999999 11.34 C 10.379999999999999 11.49, 9.030000000000001 11.565000000000001, 10.8 11.64 C 13.92 11.64, 14.459999999999999 11.64, 17.04 11.64 C 19.08 11.64, 19.92 11.64, 21.12 11.64 C 21.48 11.64, 21.42 11.64, 21.84 11.64 L 22.799999999999997 11.64" fill="none" stroke="black" stroke-width="5"></path></svg>