<svg width="48" height="48" viewBox="0 0 48 48" xmlns="http://www.w3.org/2000/svg"><path d="M 15.299999999999999 44.22 C 14.04 44.4, 14.01 44.4, 12.78 44.58 C 11.579999999999998 44.76, 11.325 44.805, 10.379999999999999 44.94 C 9.69 45.03, 9.344999999999999 45.074999999999996, 9 45.12 C 9 45.12, 9 45.12, 9 45.12 C 9 45.12, 9 45.12, 9 45.12 C 9 45.12, 9 45.12, 9 45.12 C 9 45.12, 9.030000000000001 45.33, 9 45.12 C 8.94 44.7, 9 45.06, 8.879999999999999 44.28 C 8.7 43.14, 8.805 43.635, 8.52 42 C 8.129999999999999 39.870000000000005, 8.025 39.57, 7.74 37.74 C 7.5600000000000005 36.21, 7.5600000000000005 36.135, 7.38 34.68 C 7.199999999999999 33.3, 7.109999999999999 33.075, 7.02 31.92 C 7.02 30.990000000000002, 7.02 31.335, 7.02 30.06 C 7.02 28.439999999999998, 6.8999999999999995 28.065, 7.02 26.82 C 7.26 25.95, 7.275 25.86, 7.5 25.08 C 7.71 24.39, 7.575 24.255000000000003, 7.92 23.700000000000003 C 8.399999999999999 23.28, 8.235 23.28, 8.879999999999999 22.86 C 9.69 22.439999999999998, 9.66 22.335, 10.5 22.02 C 11.370000000000001 21.810000000000002, 11.61 21.69, 12.24 21.6 C 12.629999999999999 21.630000000000003, 12.6 21.45, 13.02 21.66 C 13.469999999999999 22.05, 13.349999999999998 21.6, 13.919999999999998 22.44 C 14.61 23.73, 14.759999999999998 23.58, 15.299999999999999 25.02 C 15.690000000000001 26.61, 15.885000000000002 27.360000000000003, 16.080000000000002 28.200000000000003 C 16.080000000000002 28.290000000000003, 16.065 28.290000000000003, 16.080000000000002 28.380000000000003 C 16.11 28.47, 16.11 28.5, 16.14 28.56 C 16.17 28.589999999999996, 16.230000000000004 28.949999999999996, 16.200000000000003 28.619999999999997 C 16.11 27.93, 16.035 28.155, 16.02 27.240000000000002 C 16.08 26.1, 15.9 26.07, 16.14 24.96 C 16.560000000000002 23.88, 16.695 23.415, 16.98 22.799999999999997 C 17.130000000000003 22.65, 16.98 22.605, 17.28 22.5 C 17.73 22.439999999999998, 17.64 22.335, 18.18 22.38 C 18.810000000000002 22.53, 18.75 22.38, 19.44 22.68 C 20.19 23.130000000000003, 20.325000000000003 23.085, 20.94 23.580000000000002 C 21.42 24.120000000000005, 21.39 23.760000000000005, 21.9 24.660000000000004 C 22.439999999999998 25.92, 22.41 25.635, 22.98 27.18 C 23.58 29.009999999999998, 23.805 28.904999999999994, 24.18 30.839999999999996 C 24.33 32.879999999999995, 24.36 33.435, 24.48 34.92 C 24.57 35.85, 24.525000000000006 35.550000000000004, 24.660000000000004 36.78 C 24.840000000000003 38.31, 24.93 38.595, 25.02 39.839999999999996 C 25.02 40.8, 25.02 40.919999999999995, 25.02 41.76 C 25.02 42.480000000000004, 25.02 42.795, 25.02 43.2 C 25.02 43.290000000000006, 25.02 43.335, 25.02 43.38 L 25.02 43.38" fill="none" stroke="black" stroke-width="5"></path><path d="M 13.74 5.9399999999999995 C 13.440000000000001 6.09, 13.215 5.955, 13.14 6.24 C 13.290000000000001 6.66, 13.110000000000001 6.615, 13.440000000000001 7.08 C 13.950000000000001 7.590000000000001, 14.13 7.800000000000002, 14.46 8.100000000000001 C 14.61 8.190000000000001, 14.655000000000001 8.235, 14.76 8.28 C 14.82 8.28, 14.909999999999998 8.639999999999999, 14.879999999999999 8.28 C 14.76 7.56, 14.925 7.395, 14.64 6.84 C 14.190000000000001 6.45, 14.205 6.2700000000000005, 13.74 6.0600000000000005 C 13.26 6.03, 13.184999999999999 5.76, 12.78 6 C 12.45 6.51, 12.330000000000002 6.51, 12.120000000000001 7.02 C 12.030000000000001 7.53, 11.715 7.635000000000001, 11.94 8.040000000000001 C 12.48 8.34, 12.405 8.775, 13.02 8.64 C 13.709999999999999 8.07, 14.04 7.95, 14.399999999999999 7.5 C 14.43 7.17, 14.535 7.109999999999999, 14.46 6.84 C 14.280000000000001 6.63, 14.340000000000002 6.465, 14.100000000000001 6.42 C 13.8 6.54, 13.65 6.6, 13.5 6.66 L 13.5 6.66" fill="none" stroke="black" stroke-width="5"></path><path d="M 8.58 14.940000000000001 C 9.27 14.940000000000001, 8.895 14.940000000000001, 9.959999999999999 14.940000000000001 C 11.399999999999999 14.940000000000001, 11.43 15.000000000000002, 12.84 14.940000000000001 C 14.22 14.82, 14.520000000000001 14.805000000000001, 15.600000000000001 14.700000000000001 C 16.380000000000003 14.61, 16.65 14.565, 17.16 14.52 C 17.4 14.52, 17.4 14.52, 17.64 14.52 L 18.12 14.52" fill="none" stroke="black" stroke-width="5"></path></svg>