<svg width="48" height="48" viewBox="0 0 48 48" xmlns="http://www.w3.org/2000/svg"><path d="M 8.16 31.86 C 9.42 31.77, 9.825 31.725, 10.68 31.68 C 11.129999999999999 31.68, 11.085 31.68, 11.58 31.68 C 12.120000000000001 31.68, 12.135 31.56, 12.66 31.68 C 13.17 31.92, 13.17 31.815000000000005, 13.68 32.160000000000004 C 14.190000000000001 32.61, 14.265 32.550000000000004, 14.700000000000001 33.06 C 15.059999999999999 33.63, 15.134999999999998 33.705000000000005, 15.419999999999998 34.2 C 15.629999999999999 34.620000000000005, 15.719999999999999 34.53, 15.84 35.04 C 15.87 35.64, 15.884999999999998 35.625, 15.899999999999999 36.24 C 15.899999999999999 36.870000000000005, 15.974999999999998 36.84, 15.899999999999999 37.5 C 15.75 38.19, 15.750000000000002 38.415000000000006, 15.600000000000001 38.88 C 15.45 39.120000000000005, 15.51 39.075, 15.299999999999999 39.36 C 15.03 39.69, 15.149999999999999 39.69, 14.76 40.019999999999996 C 14.25 40.349999999999994, 14.28 40.41, 13.74 40.68 C 13.170000000000002 40.89, 13.005 40.995, 12.600000000000001 41.099999999999994 C 12.360000000000001 41.099999999999994, 12.315000000000001 41.099999999999994, 12.120000000000001 41.099999999999994 C 11.97 41.099999999999994, 12.045 41.099999999999994, 11.82 41.099999999999994 C 11.52 41.099999999999994, 11.625 41.26499999999999, 11.22 41.099999999999994 C 10.71 40.769999999999996, 10.665 40.83, 10.2 40.44 C 9.78 39.989999999999995, 9.69 39.885, 9.36 39.54 C 9.12 39.3, 9.18 39.39, 8.879999999999999 39.06 C 8.52 38.64, 8.46 38.685, 8.16 38.22 C 7.92 37.71, 7.875 37.725, 7.68 37.2 C 7.529999999999999 36.66, 7.545 36.87, 7.38 36.12 C 7.199999999999999 35.16, 7.17 34.980000000000004, 7.02 34.2 C 6.8999999999999995 33.6, 6.914999999999999 33.705, 6.779999999999999 33 C 6.63 32.19, 6.66 32.535000000000004, 6.48 31.380000000000003 C 6.2700000000000005 29.880000000000003, 6.24 29.625000000000004, 6.0600000000000005 28.380000000000003 C 5.91 27.39, 5.925 27.630000000000003, 5.76 26.400000000000002 C 5.58 24.93, 5.49 25.035, 5.4 23.46 C 5.4 21.78, 5.4 21.555, 5.4 20.1 C 5.4 18.87, 5.4 18.69, 5.4 17.64 C 5.4 16.77, 5.385000000000001 16.724999999999998, 5.4 15.899999999999999 C 5.43 15.12, 5.37 15.315, 5.46 14.34 C 5.609999999999999 13.17, 5.609999999999999 12.9, 5.76 12 C 5.91 11.370000000000001, 5.925000000000001 11.22, 6.0600000000000005 10.74 C 6.180000000000001 10.41, 6.120000000000001 10.425, 6.300000000000001 10.08 C 6.54 9.719999999999999, 6.404999999999999 9.75, 6.779999999999999 9.36 C 7.29 8.94, 7.095000000000001 8.924999999999999, 7.800000000000001 8.52 C 8.700000000000001 8.129999999999999, 8.040000000000003 8.055, 9.600000000000001 7.74 C 11.82 7.5, 12.48 7.38, 14.04 7.26 C 14.94 7.26, 14.879999999999999 7.215, 15.84 7.26 C 16.86 7.35, 16.86 7.305, 17.88 7.4399999999999995 C 18.9 7.62, 19.214999999999996 7.710000000000001, 19.919999999999998 7.800000000000001 C 20.310000000000002 7.800000000000001, 20.505000000000003 7.800000000000001, 20.700000000000003 7.800000000000001 C 20.700000000000003 7.800000000000001, 20.700000000000003 7.800000000000001, 20.700000000000003 7.800000000000001 L 20.700000000000003 7.800000000000001" fill="none" stroke="black" stroke-width="5"></path></svg>