<svg width="48" height="48" viewBox="0 0 48 48" xmlns="http://www.w3.org/2000/svg"><path d="M 10.26 18.48 C 10.05 17.82, 10.245 18.12, 9.84 17.16 C 9.24 15.9, 9.165000000000001 15.855, 8.64 14.64 C 8.190000000000001 13.469999999999999, 8.055 13.169999999999998, 7.74 12.299999999999999 C 7.5600000000000005 11.73, 7.47 11.805, 7.38 11.16 C 7.38 10.440000000000001, 7.245 10.395000000000001, 7.38 9.72 C 7.65 9.09, 7.47 9, 7.92 8.459999999999999 C 8.55 8.01, 8.445 7.890000000000001, 9.18 7.5600000000000005 C 10.02 7.35, 9.884999999999998 7.29, 10.86 7.14 C 11.97 7.049999999999999, 11.415000000000003 7.004999999999999, 13.080000000000002 6.959999999999999 C 15.3 6.959999999999999, 15.015 6.824999999999999, 17.52 6.959999999999999 C 20.310000000000002 7.2299999999999995, 20.07 7.244999999999999, 23.1 7.5 C 26.37 7.74, 27.075000000000003 7.815, 29.64 7.98 C 31.5 8.07, 31.905 8.07, 33.36 8.16 C 34.41 8.25, 34.935 8.295, 35.46 8.34 L 35.46 8.34" fill="none" stroke="black" stroke-width="5"></path><path d="M 19.44 6.66 C 19.380000000000003 7.65, 19.35 7.470000000000001, 19.32 8.64 C 19.32 9.99, 19.425 9.27, 19.32 11.34 C 19.11 14.129999999999999, 19.125 14.204999999999998, 18.9 16.919999999999998 C 18.659999999999997 19.560000000000002, 18.764999999999997 19.410000000000004, 18.419999999999998 22.200000000000003 C 17.97 25.14, 17.91 25.71, 17.52 28.08 C 17.189999999999998 29.88, 17.07 29.925, 16.86 31.68 C 16.77 33.39, 16.814999999999998 33.55499999999999, 16.68 35.099999999999994 C 16.5 36.48, 16.485 36.855, 16.32 37.86 C 16.17 38.489999999999995, 16.155 38.489999999999995, 16.02 39.12 C 15.899999999999999 39.75, 15.884999999999998 39.900000000000006, 15.78 40.38 C 15.690000000000001 40.71, 15.645000000000001 40.875, 15.600000000000001 41.04 C 15.600000000000001 41.04, 15.600000000000001 41.04, 15.600000000000001 41.04 L 15.600000000000001 41.04" fill="none" stroke="black" stroke-width="5"></path><path d="M 27.119999999999997 7.5 C 27.24 8.07, 27.299999999999997 7.440000000000001, 27.36 8.64 C 27.36 10.469999999999999, 27.435 10.034999999999998, 27.36 12.299999999999999 C 27.21 15, 27.27 14.745000000000003, 27.06 17.700000000000003 C 26.79 20.91, 26.805 21.435, 26.52 24.119999999999997 C 26.22 26.28, 26.235000000000003 26.310000000000002, 25.92 28.44 C 25.59 30.54, 25.574999999999996 30.765, 25.259999999999998 32.64 C 24.96 34.29, 24.885000000000005 34.695, 24.660000000000004 35.94 C 24.51 36.78, 24.48 36.974999999999994, 24.36 37.62 C 24.27 38.06999999999999, 24.255 38.099999999999994, 24.18 38.519999999999996 C 24.119999999999997 38.91, 24.119999999999997 39.03, 24.06 39.3 C 24 39.449999999999996, 23.97 39.404999999999994, 23.94 39.599999999999994 C 23.94 39.839999999999996, 23.94 39.809999999999995, 23.94 40.08 C 23.94 40.379999999999995, 23.94 40.53, 23.94 40.68 C 23.94 40.68, 23.94 40.68, 23.94 40.68 L 23.94 40.68" fill="none" stroke="black" stroke-width="5"></path></svg>