<svg width="48" height="48" viewBox="0 0 48 48" xmlns="http://www.w3.org/2000/svg"><path d="M 12.48 2.64 C 11.34 5.220000000000001, 11.084999999999999 5.445000000000001, 10.2 7.800000000000001 C 9.57 9.93, 9.405 10.184999999999999, 8.94 12.059999999999999 C 8.64 13.68, 8.49 13.994999999999997, 8.34 15.299999999999999 C 8.34 16.29, 8.16 16.605, 8.34 17.28 C 8.7 17.64, 8.625 17.82, 9.06 18 C 9.57 18, 9.120000000000001 18.645, 10.08 18 C 11.489999999999998 16.71, 11.804999999999998 16.575, 12.899999999999999 15.419999999999998 C 13.68 14.399999999999999, 14.025 13.964999999999998, 14.46 13.379999999999999 C 14.55 13.23, 14.595 13.155000000000001, 14.64 13.080000000000002 C 14.64 13.080000000000002, 14.655000000000001 12.945000000000002, 14.64 13.080000000000002 C 14.610000000000001 13.350000000000001, 14.700000000000003 12.855, 14.580000000000002 13.620000000000001 C 14.370000000000001 14.88, 14.22 15.015, 14.16 16.14 C 14.25 17.130000000000003, 14.07 17.400000000000002, 14.34 18.12 C 14.79 18.57, 14.265 18.615, 15.24 19.02 C 16.740000000000002 19.380000000000003, 16.44 19.560000000000002, 18.240000000000002 19.740000000000002 C 20.340000000000003 19.740000000000002, 20.985000000000003 19.740000000000002, 22.44 19.740000000000002 C 23.25 19.740000000000002, 23.655 19.740000000000002, 24.06 19.740000000000002 L 24.06 19.740000000000002" fill="none" stroke="black" stroke-width="5"></path><path d="M 15.48 19.44 C 15.45 20.97, 15.644999999999998 20.7, 15.419999999999998 22.5 C 15 24.57, 14.91 24.69, 14.580000000000002 26.64 C 14.340000000000002 28.47, 14.295000000000002 28.68, 14.100000000000001 30.299999999999997 C 13.95 31.709999999999997, 13.919999999999998 31.679999999999996, 13.799999999999999 33.12 C 13.71 34.59, 13.74 34.725, 13.620000000000001 36.06 C 13.47 37.260000000000005, 13.41 37.755, 13.32 38.46 L 13.26 38.88" fill="none" stroke="black" stroke-width="5"></path><path d="M 18.9 20.759999999999998 C 18.990000000000002 22.2, 19.035 22.2, 19.080000000000002 23.64 C 19.080000000000002 25.08, 19.14 24.6, 19.080000000000002 26.52 C 18.96 28.92, 18.9 29.445, 18.84 31.32 C 18.84 32.67, 18.93 32.61, 18.84 34.019999999999996 C 18.66 35.489999999999995, 18.615000000000002 35.685, 18.48 36.96 C 18.39 38.04, 18.345 38.16, 18.299999999999997 39.12 C 18.299999999999997 39.959999999999994, 18.344999999999995 40.334999999999994, 18.299999999999997 40.8 L 18.12 40.980000000000004" fill="none" stroke="black" stroke-width="5"></path></svg>