<svg width="48" height="48" viewBox="0 0 48 48" xmlns="http://www.w3.org/2000/svg"><path d="M 25.44 4.9799999999999995 C 26.19 7.140000000000001, 26.295 7.545000000000001, 26.94 9.3 C 27.48 10.65, 27.45 10.575, 28.02 12 C 28.619999999999997 13.5, 28.755 13.725, 29.22 15 C 29.55 16.05, 29.685000000000002 16.095000000000002, 29.880000000000003 17.1 C 29.94 18.060000000000002, 30 18.225, 30 19.02 C 29.94 19.65, 30.060000000000002 19.725, 29.880000000000003 20.28 C 29.580000000000002 20.76, 29.715000000000003 20.700000000000003, 29.28 21.240000000000002 C 28.71 21.840000000000003, 28.965 21.990000000000002, 28.14 22.44 C 27.060000000000002 22.740000000000002, 27.075000000000003 22.845, 25.98 23.04 C 24.869999999999997 23.13, 25.064999999999998 23.174999999999997, 23.759999999999998 23.22 C 22.259999999999998 23.22, 22.019999999999996 23.22, 20.759999999999998 23.22 C 19.74 23.22, 19.439999999999998 23.22, 18.72 23.22 C 18.299999999999997 23.22, 18.09 23.22, 17.88 23.22 C 17.88 23.22, 17.88 23.22, 17.88 23.22 C 17.88 23.22, 17.88 23.22, 17.88 23.22 C 17.88 23.22, 17.924999999999997 23.205, 17.88 23.22 C 17.79 23.25, 17.745 23.265, 17.700000000000003 23.28 L 17.700000000000003 23.28" fill="none" stroke="black" stroke-width="5"></path><path d="M 22.14 28.380000000000003 C 21.66 28.53, 21.615000000000002 28.23, 21.18 28.68 C 20.79 29.43, 20.549999999999997 29.64, 20.4 30.18 C 20.490000000000002 30.509999999999998, 20.265 30.614999999999995, 20.580000000000002 30.839999999999996 C 21.12 30.959999999999997, 21.195 31.184999999999995, 21.66 31.08 C 22.05 30.75, 22.200000000000003 30.9, 22.44 30.42 C 22.53 29.790000000000003, 22.62 29.67, 22.62 29.160000000000004 C 22.53 28.770000000000003, 22.725 28.635000000000005, 22.44 28.380000000000003 C 21.96 28.26, 21.975 27.885, 21.48 28.14 C 20.97 28.770000000000003, 20.61 28.89, 20.46 29.400000000000002 C 20.67 29.79, 20.474999999999998 29.835, 20.88 30.18 C 21.48 30.48, 21.450000000000003 30.72, 22.080000000000002 30.78 C 22.740000000000002 30.6, 23.009999999999998 30.75, 23.4 30.42 C 23.52 29.94, 23.745 29.97, 23.64 29.46 C 23.310000000000002 28.92, 23.55 28.650000000000002, 22.98 28.380000000000003 C 22.17 28.380000000000003, 21.869999999999997 28.065000000000005, 21.36 28.380000000000003 C 21.15 29.01, 21.045 29.1, 20.94 29.64 C 20.94 30.09, 20.580000000000002 30.21, 20.94 30.54 C 21.66 30.75, 21.855 31.11, 22.38 30.96 C 22.71 30.450000000000003, 22.875 30.195, 23.04 29.94 C 23.04 29.94, 23.07 29.985000000000003, 23.04 29.94 C 22.979999999999997 29.85, 22.994999999999997 29.805, 22.919999999999998 29.759999999999998 C 22.83 29.759999999999998, 22.785 29.759999999999998, 22.740000000000002 29.759999999999998 L 22.740000000000002 29.759999999999998" fill="none" stroke="black" stroke-width="5"></path></svg>