<svg width="48" height="48" viewBox="0 0 48 48" xmlns="http://www.w3.org/2000/svg"><path d="M 16.14 24.839999999999996 C 16.14 23.759999999999998, 16.14 23.625, 16.14 22.68 C 16.14 21.869999999999997, 16.14 21.794999999999998, 16.14 21.06 C 16.14 20.4, 16.14 20.475, 16.14 19.740000000000002 C 16.14 18.93, 16.14 18.675, 16.14 18.12 C 16.14 17.82, 16.080000000000002 17.835, 16.14 17.52 C 16.259999999999998 17.189999999999998, 16.125 17.189999999999998, 16.38 16.86 C 16.77 16.53, 16.56 16.53, 17.16 16.200000000000003 C 17.97 15.870000000000001, 17.985 15.870000000000001, 18.78 15.54 C 19.560000000000002 15.209999999999999, 19.455 15.119999999999997, 20.34 14.879999999999999 C 21.33 14.73, 21.27 14.700000000000003, 22.32 14.580000000000002 C 23.43 14.49, 23.49 14.489999999999998, 24.54 14.399999999999999 C 25.53 14.309999999999999, 25.799999999999997 14.265, 26.52 14.22 C 26.97 14.22, 27.03 14.22, 27.42 14.22 C 27.75 14.22, 27.72 14.22, 28.08 14.22 C 28.47 14.22, 28.56 14.22, 28.86 14.22 C 29.07 14.22, 29.04 14.16, 29.28 14.22 C 29.55 14.34, 29.61 14.34, 29.82 14.46 C 29.97 14.580000000000002, 29.909999999999997 14.505, 30.119999999999997 14.700000000000001 C 30.39 14.97, 30.345000000000002 14.775, 30.660000000000004 15.24 C 31.020000000000003 15.899999999999999, 31.155000000000005 15.899999999999999, 31.380000000000003 16.56 C 31.47 17.22, 31.424999999999997 17.025, 31.56 17.88 C 31.740000000000002 18.93, 31.830000000000002 18.855, 31.92 19.98 C 31.92 21.18, 31.92 21.45, 31.92 22.38 C 31.92 23.04, 31.92 23.175000000000004, 31.92 23.700000000000003 C 31.92 24.090000000000003, 31.92 24.240000000000002, 31.92 24.48 L 31.92 24.660000000000004" fill="none" stroke="black" stroke-width="5"></path><path d="M 17.64 10.14 C 19.65 10.02, 20.04 9.959999999999999, 21.66 9.899999999999999 C 22.89 9.899999999999999, 23.009999999999998 9.899999999999999, 24.119999999999997 9.899999999999999 C 25.11 9.899999999999999, 25.11 9.959999999999997, 26.099999999999998 9.899999999999999 C 27.089999999999996 9.78, 27.24 9.735, 28.08 9.66 C 28.77 9.63, 28.965 9.615000000000002, 29.46 9.600000000000001 C 29.759999999999998 9.600000000000001, 29.88 9.600000000000001, 30.06 9.600000000000001 L 30.18 9.600000000000001" fill="none" stroke="black" stroke-width="5"></path><path d="M 17.16 5.64 C 18.54 5.4, 18.555 5.28, 19.919999999999998 5.16 C 21.27 5.16, 21.435 5.16, 22.62 5.16 C 23.64 5.16, 23.640000000000004 5.16, 24.660000000000004 5.16 C 25.680000000000003 5.16, 25.665000000000006 5.16, 26.700000000000003 5.16 C 27.75 5.16, 27.959999999999997 5.205, 28.799999999999997 5.16 C 29.43 5.07, 29.625 5.069999999999999, 30.06 4.9799999999999995 L 30.54 4.800000000000001" fill="none" stroke="black" stroke-width="5"></path><path d="M 22.5 14.399999999999999 C 22.5 14.969999999999999, 22.455 14.639999999999999, 22.5 15.54 C 22.59 16.77, 22.634999999999998 16.8, 22.68 18 C 22.68 19.17, 22.68 19.395, 22.68 20.34 C 22.68 21.060000000000002, 22.68 21.045, 22.68 21.78 C 22.68 22.53, 22.845 22.455000000000002, 22.68 23.28 C 22.35 24.18, 22.425 24.15, 22.02 25.08 C 21.54 26.04, 21.509999999999998 26.189999999999998, 21.06 27 C 20.64 27.66, 20.79 27.54, 20.22 28.32 C 19.5 29.22, 19.395000000000003 29.415, 18.78 30.119999999999997 C 18.27 30.63, 18.134999999999998 30.795, 17.759999999999998 31.14 C 17.52 31.32, 17.4 31.41, 17.28 31.5 L 17.28 31.5" fill="none" stroke="black" stroke-width="5"></path><path d="M 28.380000000000003 30 C 28.200000000000003 30.87, 28.32 30.75, 28.02 31.740000000000002 C 27.6 32.85, 27.675 32.835, 27.18 33.96 C 26.61 35.1, 26.715 35.13, 26.04 36.24 C 25.259999999999998 37.32000000000001, 25.305 37.440000000000005, 24.48 38.400000000000006 C 23.61 39.24, 23.64 39.33, 22.740000000000002 40.08 C 21.810000000000002 40.74, 21.735 40.800000000000004, 20.88 41.400000000000006 C 20.1 41.940000000000005, 19.92 42.09, 19.32 42.480000000000004 C 18.9 42.72, 18.810000000000002 42.75, 18.48 42.96 C 18.240000000000002 43.14, 18.240000000000002 43.185, 18 43.32 L 17.52 43.5" fill="none" stroke="black" stroke-width="5"></path></svg>