<svg width="48" height="48" viewBox="0 0 48 48" xmlns="http://www.w3.org/2000/svg"><path d="M 15.72 35.339999999999996 C 15.51 34.65, 15.704999999999998 34.995, 15.299999999999999 33.96 C 14.7 32.58, 14.625 32.475, 14.100000000000001 31.200000000000003 C 13.650000000000002 30.03, 13.575000000000001 29.925, 13.200000000000001 28.86 C 12.900000000000002 27.9, 12.855000000000002 27.855, 12.600000000000001 26.94 C 12.39 26.07, 12.36 26.175000000000004, 12.18 25.200000000000003 C 12.03 24.12, 11.954999999999998 23.985, 11.879999999999999 23.04 C 11.879999999999999 22.229999999999997, 11.879999999999999 21.974999999999998, 11.879999999999999 21.419999999999998 C 11.879999999999999 21.119999999999997, 11.864999999999998 21.165, 11.879999999999999 20.82 C 11.91 20.43, 11.879999999999999 20.445, 11.94 20.04 C 12.030000000000001 19.62, 11.985000000000001 19.605000000000004, 12.120000000000001 19.200000000000003 C 12.3 18.810000000000002, 12.315000000000001 18.705, 12.48 18.419999999999998 C 12.629999999999999 18.24, 12.584999999999999 18.209999999999997, 12.78 18.06 C 13.02 17.939999999999998, 13.065 17.88, 13.26 17.82 C 13.41 17.82, 13.364999999999998 17.76, 13.559999999999999 17.82 C 13.799999999999999 17.939999999999998, 13.739999999999998 17.849999999999998, 14.04 18.06 C 14.399999999999999 18.36, 14.504999999999999 18.345, 14.76 18.66 C 14.91 18.990000000000002, 14.759999999999998 18.78, 15.059999999999999 19.32 C 15.51 20.07, 15.54 20.115000000000002, 15.96 20.82 C 16.35 21.48, 16.425000000000004 21.57, 16.740000000000002 22.14 C 16.98 22.62, 17.1 22.86, 17.22 23.1 C 17.22 23.1, 17.22 23.1, 17.22 23.1 C 17.22 23.1, 17.22 23.160000000000004, 17.22 23.1 C 17.22 22.98, 17.22 23.325, 17.22 22.86 C 17.22 22.05, 17.205 21.795, 17.22 21.240000000000002 C 17.25 20.94, 17.205000000000002 21.060000000000002, 17.28 20.64 C 17.4 20.1, 17.325 20.145, 17.52 19.56 C 17.79 18.93, 17.895 18.705, 18.06 18.299999999999997 C 18.119999999999997 18.119999999999997, 18.105 18.09, 18.18 17.94 C 18.27 17.82, 18.314999999999998 17.76, 18.36 17.700000000000003 C 18.36 17.700000000000003, 18.225 17.805000000000003, 18.36 17.700000000000003 C 18.63 17.490000000000002, 18.419999999999998 17.520000000000003, 18.9 17.28 C 19.59 17.01, 19.815 16.875, 20.28 16.740000000000002 C 20.52 16.740000000000002, 20.415 16.740000000000002, 20.759999999999998 16.740000000000002 C 21.21 16.740000000000002, 21.195 16.740000000000002, 21.66 16.740000000000002 C 22.14 16.740000000000002, 22.095000000000002 16.695000000000004, 22.62 16.740000000000002 C 23.189999999999998 16.83, 23.189999999999998 16.799999999999997, 23.759999999999998 16.919999999999998 C 24.33 17.07, 24.42 17.084999999999997, 24.900000000000002 17.22 L 25.68 17.46" fill="none" stroke="black" stroke-width="5"></path><path d="M 12.48 12.48 C 13.74 12.48, 13.725 12.48, 15 12.48 C 16.29 12.48, 16.290000000000003 12.465, 17.580000000000002 12.48 C 18.87 12.51, 18.825000000000003 12.479999999999999, 20.16 12.54 C 21.54 12.629999999999999, 21.494999999999997 12.675, 22.919999999999998 12.72 C 24.39 12.72, 24.66 12.675, 25.86 12.72 C 26.79 12.809999999999999, 27.255 12.854999999999999, 27.72 12.899999999999999 L 27.72 12.899999999999999" fill="none" stroke="black" stroke-width="5"></path><path d="M 11.459999999999999 7.08 C 13.35 7.08, 12.87 7.305, 15.24 7.08 C 18.09 6.63, 18.900000000000002 6.404999999999999, 20.94 6.18 C 22.17 6.18, 22.259999999999998 6.18, 23.4 6.18 C 24.45 6.18, 24.689999999999998 6.18, 25.5 6.18 L 26.64 6.18" fill="none" stroke="black" stroke-width="5"></path><path d="M 11.040000000000001 35.64 C 11.580000000000002 35.64, 11.265 35.64, 12.120000000000001 35.64 C 13.290000000000001 35.64, 12.690000000000001 35.64, 14.46 35.64 C 16.830000000000002 35.64, 16.71 35.805, 19.200000000000003 35.64 C 21.810000000000002 35.31, 22.395000000000003 35.25, 24.42 34.980000000000004 C 25.86 34.77, 26.58 34.665000000000006, 27.299999999999997 34.56 L 27.299999999999997 34.56" fill="none" stroke="black" stroke-width="5"></path><path d="M 12.059999999999999 42 C 14.549999999999999 41.49, 14.924999999999999 41.415000000000006, 17.04 40.980000000000004 C 18.78 40.620000000000005, 18.525 40.56, 20.52 40.26 C 22.77 40.019999999999996, 23.19 39.9, 25.02 39.78 C 26.43 39.78, 26.609999999999996 39.705, 27.839999999999996 39.78 C 28.89 39.93, 29.415 40.004999999999995, 29.94 40.08 L 29.94 40.08" fill="none" stroke="black" stroke-width="5"></path></svg>