<svg width="48" height="48" viewBox="0 0 48 48" xmlns="http://www.w3.org/2000/svg"><path d="M 16.080000000000002 43.56 C 15.450000000000001 42.54, 15.270000000000001 42.959999999999994, 14.82 41.519999999999996 C 14.55 39.66, 14.415 39.91499999999999, 14.28 37.8 C 14.28 35.43, 14.28 35.325, 14.28 33.06 C 14.28 30.900000000000002, 14.28 30.540000000000003, 14.28 28.740000000000002 C 14.28 27.3, 14.325 27.105, 14.28 25.86 C 14.190000000000001 24.81, 14.145000000000001 24.764999999999997, 14.100000000000001 23.759999999999998 C 14.100000000000001 22.799999999999997, 14.055000000000001 22.725, 14.100000000000001 21.84 C 14.190000000000001 21.03, 14.1 20.835, 14.28 20.22 C 14.55 19.799999999999997, 14.52 19.724999999999998, 14.82 19.38 C 15.15 19.11, 14.865 19.05, 15.48 18.84 C 16.380000000000003 18.689999999999998, 16.185000000000002 18.794999999999998, 17.28 18.54 C 18.57 18.18, 18.705 18.03, 19.86 17.82 C 20.88 17.76, 20.655 17.820000000000004, 21.9 17.700000000000003 C 23.369999999999997 17.520000000000003, 23.759999999999998 17.475, 24.839999999999996 17.34 C 25.529999999999998 17.25, 25.56 17.25, 26.22 17.16 C 26.85 17.07, 26.97 17.01, 27.48 16.98 C 27.869999999999997 17.009999999999998, 27.869999999999997 16.86, 28.259999999999998 17.04 C 28.65 17.37, 28.68 17.295, 29.04 17.700000000000003 C 29.37 18.18, 29.430000000000003 17.955000000000002, 29.700000000000003 18.66 C 29.91 19.59, 29.985 19.41, 30.119999999999997 20.52 C 30.18 21.810000000000002, 30.12 21.630000000000003, 30.240000000000002 23.1 C 30.42 24.75, 30.509999999999998 24.975, 30.599999999999998 26.400000000000002 C 30.599999999999998 27.6, 30.599999999999998 27.179999999999996, 30.599999999999998 28.799999999999997 C 30.599999999999998 30.84, 30.629999999999995 31.23, 30.599999999999998 32.88 C 30.54 34.14, 30.63 34.245000000000005, 30.48 35.400000000000006 C 30.240000000000002 36.45, 30.285 36.63, 30 37.5 C 29.669999999999998 38.19, 29.729999999999997 38.190000000000005, 29.339999999999996 38.88 C 28.89 39.57, 28.950000000000003 39.614999999999995, 28.44 40.26 C 27.869999999999997 40.86, 27.929999999999996 40.965, 27.299999999999997 41.46 C 26.61 41.85, 26.46 42.045, 25.92 42.24 C 25.53 42.24, 25.755000000000003 42.555, 25.14 42.24 C 24.3 41.61, 24.405 42.345000000000006, 23.46 40.980000000000004 C 22.41 38.88, 21.975 38.730000000000004, 21.36 36.78 C 21.18 34.980000000000004, 21.09 34.905, 21 33.18 C 21 31.53, 21 31.35, 21 29.880000000000003 C 21 28.59, 21 27.945, 21 27.299999999999997 L 21 27.299999999999997" fill="none" stroke="black" stroke-width="5"></path><path d="M 12.059999999999999 13.5 C 12.45 13.379999999999999, 12.285 13.395, 12.84 13.26 C 13.559999999999999 13.11, 13.14 13.155000000000001, 14.28 12.96 C 15.84 12.72, 15.944999999999999 12.675, 17.4 12.48 C 18.75 12.33, 18.855 12.344999999999999, 20.1 12.18 C 21.240000000000002 12, 21.134999999999998 11.955, 22.38 11.82 C 23.729999999999997 11.73, 23.834999999999997 11.775, 25.08 11.64 C 26.22 11.46, 26.654999999999998 11.385, 27.36 11.28 L 27.900000000000002 11.22" fill="none" stroke="black" stroke-width="5"></path><path d="M 11.34 7.92 C 12.39 7.74, 12.57 7.74, 13.440000000000001 7.5600000000000005 C 14.13 7.38, 13.740000000000002 7.379999999999999, 14.82 7.199999999999999 C 16.29 7.02, 16.409999999999997 7.035, 17.759999999999998 6.84 C 18.99 6.63, 19.095 6.555, 20.22 6.42 C 21.24 6.36, 21.284999999999997 6.33, 22.259999999999998 6.300000000000001 C 23.189999999999998 6.300000000000001, 23.205 6.345000000000001, 24.119999999999997 6.300000000000001 C 25.02 6.210000000000001, 25.11 6.195, 25.92 6.12 C 26.64 6.0600000000000005, 27 6.03, 27.36 6 L 27.36 6" fill="none" stroke="black" stroke-width="5"></path></svg>