<svg width="48" height="48" viewBox="0 0 48 48" xmlns="http://www.w3.org/2000/svg"><path d="M 15 5.82 C 16.17 5.640000000000001, 15.99 5.655, 17.34 5.46 C 18.869999999999997 5.25, 18.479999999999997 5.205, 20.4 5.04 C 22.71 4.92, 22.619999999999997 4.905000000000001, 25.02 4.800000000000001 C 27.509999999999998 4.710000000000001, 28.035 4.665, 30 4.62 C 31.44 4.62, 31.725 4.62, 32.88 4.62 C 33.75 4.62, 34.11 4.62, 34.62 4.62 L 34.92 4.62" fill="none" stroke="black" stroke-width="5"></path><path d="M 15.72 11.58 C 17.31 11.489999999999998, 17.22 11.564999999999998, 18.9 11.399999999999999 C 20.67 11.16, 20.355 11.084999999999999, 22.44 10.92 C 24.840000000000003 10.83, 24.945000000000004 10.845, 27.240000000000002 10.74 C 29.43 10.620000000000001, 29.939999999999998 10.65, 31.619999999999997 10.5 C 32.79 10.32, 32.97 10.23, 33.96 10.14 C 34.769999999999996 10.14, 35.099999999999994 10.185, 35.58 10.14 C 35.730000000000004 10.05, 35.805 10.004999999999999, 35.88 9.959999999999999 L 35.88 9.959999999999999" fill="none" stroke="black" stroke-width="5"></path><path d="M 32.22 10.68 C 32.37 11.01, 32.355 10.875, 32.519999999999996 11.34 C 32.7 11.94, 32.655 11.61, 32.88 12.54 C 33.150000000000006 13.799999999999999, 33.150000000000006 13.86, 33.42 15.059999999999999 C 33.69 16.2, 33.6 15.899999999999999, 33.96 17.34 C 34.41 19.08, 34.41 19.02, 34.86 20.82 C 35.31 22.68, 35.385 22.95, 35.76 24.54 C 36.06 25.86, 36.12 25.95, 36.36 27.18 C 36.54 28.32, 36.614999999999995 28.380000000000003, 36.72 29.46 C 36.75 30.48, 36.69 30.54, 36.78 31.5 C 36.93 32.4, 37.004999999999995 32.565, 37.08 33.3 C 37.08 33.87, 37.08 33.72, 37.08 34.44 C 37.08 35.31, 37.08 35.37, 37.08 36.18 C 37.08 36.93, 37.245 36.855, 37.08 37.68 C 36.75 38.58, 36.78 38.730000000000004, 36.42 39.480000000000004 C 36.03 40.08, 36.045 40.125, 35.64 40.68 C 35.22 41.19, 35.31 41.205, 34.8 41.7 C 34.199999999999996 42.18000000000001, 34.004999999999995 42.42, 33.599999999999994 42.660000000000004 C 33.39 42.660000000000004, 33.405 42.660000000000004, 33.18 42.660000000000004 C 32.94 42.660000000000004, 33.300000000000004 43.02, 32.7 42.660000000000004 C 31.740000000000002 41.94, 31.635 42.15, 30.78 41.22 C 30.03 40.08, 29.910000000000004 40.035, 29.28 38.94 C 28.77 37.89, 28.575 37.724999999999994, 28.259999999999998 36.839999999999996 C 28.14 36.120000000000005, 28.08 36.075, 28.02 35.400000000000006 C 28.02 34.77, 27.794999999999998 34.74, 28.02 34.14 C 28.47 33.57, 28.275000000000002 33.54, 28.92 33 C 29.759999999999998 32.49, 29.82 32.34, 30.599999999999998 31.98 C 31.32 31.77, 31.154999999999998 31.709999999999997, 32.04 31.56 C 33.09 31.47, 33.225 31.425, 34.14 31.380000000000003 C 34.92 31.380000000000003, 35.235 31.380000000000003, 35.7 31.380000000000003 C 35.85 31.380000000000003, 35.835 31.380000000000003, 36 31.380000000000003 C 36.18 31.380000000000003, 36.239999999999995 31.380000000000003, 36.36 31.380000000000003 C 36.42 31.380000000000003, 36.405 31.380000000000003, 36.480000000000004 31.380000000000003 C 36.57000000000001 31.380000000000003, 36.58500000000001 31.380000000000003, 36.660000000000004 31.380000000000003 L 36.78 31.380000000000003" fill="none" stroke="black" stroke-width="5"></path><path d="M 35.22 23.22 C 35.22 23.52, 35.4 23.475, 35.22 23.82 C 34.86 24.21, 35.144999999999996 24.104999999999997, 34.5 24.599999999999998 C 33.57 25.199999999999996, 33.615 25.349999999999994, 32.64 25.799999999999997 C 31.619999999999997 26.1, 31.47 26.205000000000002, 30.599999999999998 26.400000000000002 C 29.880000000000003 26.490000000000002, 30.150000000000002 26.865, 29.160000000000004 26.58 C 27.900000000000002 25.919999999999998, 27.630000000000003 26.099999999999998, 26.64 25.259999999999998 C 25.92 24.24, 25.770000000000003 24.389999999999997, 25.200000000000003 23.22 C 24.78 21.9, 24.615000000000002 21.48, 24.36 20.580000000000002 C 24.27 20.1, 24.225 19.86, 24.18 19.62 C 24.18 19.62, 24.195 19.215, 24.18 19.62 C 24.15 20.43, 24.179999999999996 20.400000000000002, 24.119999999999997 21.240000000000002 C 24.03 22.11, 24.165 21.945, 23.94 22.98 C 23.58 24.18, 23.85 24.300000000000004, 23.22 25.380000000000003 C 22.32 26.34, 22.544999999999998 26.61, 21.419999999999998 27.299999999999997 C 20.07 27.72, 19.875 27.93, 18.72 28.14 C 17.759999999999998 28.14, 17.429999999999996 28.14, 16.799999999999997 28.14 L 16.200000000000003 28.14" fill="none" stroke="black" stroke-width="5"></path></svg>