<svg width="48" height="48" viewBox="0 0 48 48" xmlns="http://www.w3.org/2000/svg"><path d="M 16.44 6.300000000000001 C 18.15 6.24, 18.525 6.225, 19.86 6.18 C 20.82 6.15, 20.46 6.225, 21.78 6.12 C 23.46 5.9399999999999995, 23.415 5.865, 25.14 5.76 C 26.91 5.7299999999999995, 27.075 5.805, 28.68 5.699999999999999 C 30.119999999999997 5.52, 30.435 5.43, 31.56 5.34 C 32.37 5.34, 32.415 5.34, 33.18 5.34 C 33.9 5.34, 33.959999999999994 5.34, 34.62 5.34 C 35.22 5.34, 35.28 5.34, 35.82 5.34 C 36.3 5.34, 36.315 5.34, 36.78 5.34 C 37.230000000000004 5.34, 37.455 5.34, 37.68 5.34 L 37.68 5.34" fill="none" stroke="black" stroke-width="5"></path><path d="M 16.080000000000002 12.24 C 17.189999999999998 12.24, 16.334999999999997 12.33, 18.299999999999997 12.24 C 21.119999999999997 12.059999999999999, 21.165 12.104999999999999, 23.94 11.879999999999999 C 26.67 11.61, 27.060000000000002 11.58, 29.400000000000002 11.34 C 31.35 11.129999999999999, 31.77 11.07, 33.3 10.92 C 34.41 10.83, 34.66499999999999 10.785, 35.519999999999996 10.74 C 36.12 10.74, 36.224999999999994 10.74, 36.72 10.74 L 37.5 10.74" fill="none" stroke="black" stroke-width="5"></path><path d="M 22.200000000000003 13.32 C 21.96 15.09, 22.005 15.044999999999998, 21.72 16.86 C 21.39 18.72, 21.36 18.78, 21.06 20.580000000000002 C 20.79 22.32, 20.655 22.305, 20.52 24.06 C 20.52 25.83, 20.445 26.22, 20.52 27.599999999999998 C 20.67 28.589999999999996, 20.64 28.874999999999996, 20.82 29.58 C 21.03 30, 21.015 30.09, 21.240000000000002 30.42 C 21.48 30.660000000000004, 21.36 30.705000000000002, 21.72 30.900000000000002 C 22.2 31.050000000000004, 22.185 31.140000000000004, 22.68 31.200000000000003 C 23.19 31.17, 23.01 31.365000000000002, 23.700000000000003 31.14 C 24.57 30.72, 24.615000000000002 31.229999999999997, 25.44 30.299999999999997 C 26.22 28.86, 26.490000000000002 28.545, 27 27.42 C 27.240000000000002 26.61, 27.36 26.294999999999998, 27.48 25.799999999999997 C 27.48 25.619999999999997, 27.48 25.485, 27.48 25.44 C 27.48 25.53, 27.375 24.615, 27.48 25.619999999999997 C 27.69 27.54, 27.495000000000005 27.884999999999998, 27.900000000000002 29.46 C 28.5 30.69, 28.349999999999998 31.005000000000003, 29.099999999999998 31.92 C 30 32.519999999999996, 29.970000000000002 32.91, 30.900000000000002 33.12 C 31.86 32.94, 32.025 33.48, 32.82 32.76 C 33.45 31.5, 33.599999999999994 31.8, 34.08 30.240000000000002 C 34.41 28.380000000000003, 34.575 28.275, 34.74 26.52 C 34.74 24.869999999999997, 34.875 24.81, 34.74 23.22 C 34.47 21.689999999999998, 34.5 21.705, 34.2 20.16 C 33.870000000000005 18.6, 33.9 18.419999999999998, 33.54 17.04 C 33.15 15.84, 33.12 15.57, 32.76 14.64 C 32.42999999999999 13.98, 32.35499999999999 13.86, 32.099999999999994 13.32 C 31.919999999999998 12.9, 31.83 12.690000000000001, 31.740000000000002 12.48 C 31.740000000000002 12.48, 31.755000000000003 12.525, 31.740000000000002 12.48 C 31.71 12.39, 31.695 12.344999999999999, 31.68 12.299999999999999 L 31.68 12.299999999999999" fill="none" stroke="black" stroke-width="5"></path><path d="M 29.64 36.599999999999994 C 28.53 36.56999999999999, 28.755000000000003 36.48, 27.42 36.54 C 25.86 36.69, 25.365 36.48, 24.299999999999997 36.839999999999996 C 23.729999999999997 37.41, 23.715 36.900000000000006, 23.16 37.980000000000004 C 22.62 39.57000000000001, 22.35 39.540000000000006, 22.080000000000002 41.160000000000004 C 22.080000000000002 42.81, 21.945 43.2, 22.080000000000002 44.46 C 22.35 45.33, 22.185000000000002 45.540000000000006, 22.62 46.2 C 23.22 46.65, 22.62 46.8, 23.82 47.099999999999994 C 25.62 47.25, 25.665000000000003 47.550000000000004, 27.42 47.400000000000006 C 29.13 46.95, 29.639999999999997 47.1, 30.839999999999996 46.5 C 31.529999999999998 45.75, 31.754999999999995 45.870000000000005, 32.22 45 C 32.46 44.01, 32.61 44.474999999999994, 32.7 43.019999999999996 C 32.64 41.099999999999994, 32.82 40.56, 32.58 39.18 C 32.16 38.34, 32.115 38.085, 31.740000000000002 37.5 C 31.41 37.17, 31.395 37.019999999999996, 31.08 36.839999999999996 C 30.78 36.81, 31.005 36.75, 30.48 36.78 C 29.73 36.870000000000005, 29.355 36.915, 28.98 36.96 L 28.98 36.96" fill="none" stroke="black" stroke-width="5"></path><path d="M 21.9 43.019999999999996 C 22.11 43.019999999999996, 21.855 43.019999999999996, 22.32 43.019999999999996 C 23.04 43.019999999999996, 22.544999999999998 43.125, 23.759999999999998 43.019999999999996 C 25.47 42.809999999999995, 25.71 42.794999999999995, 27.18 42.599999999999994 C 28.41 42.42, 28.785 42.36, 29.64 42.24 C 30.119999999999997 42.18, 29.955 42.15, 30.599999999999998 42.12 C 31.409999999999997 42.12, 31.65 42.12, 32.22 42.12 C 32.55 42.12, 32.715 42.12, 32.88 42.12 L 32.88 42.12" fill="none" stroke="black" stroke-width="5"></path></svg>