<svg width="48" height="48" viewBox="0 0 48 48" xmlns="http://www.w3.org/2000/svg"><path d="M 11.58 27.36 C 11.370000000000001 25.17, 11.265 25.035, 11.16 22.98 C 11.16 21.060000000000002, 11.16 20.925, 11.16 19.14 C 11.16 17.490000000000002, 11.16 17.475, 11.16 15.84 C 11.16 14.22, 11.04 13.98, 11.16 12.600000000000001 C 11.4 11.46, 11.355 11.265, 11.64 10.32 C 11.969999999999999 9.57, 11.849999999999998 9.540000000000001, 12.299999999999999 8.82 C 12.870000000000001 8.129999999999999, 12.555000000000001 8.084999999999999, 13.440000000000001 7.4399999999999995 C 14.64 6.84, 15.045 6.63, 15.84 6.24 C 16.23 6.0600000000000005, 16.155 5.895, 16.62 5.88 C 17.160000000000004 6.029999999999999, 17.175000000000004 5.805, 17.700000000000003 6.18 C 18.21 6.779999999999999, 18.285 6.645, 18.72 7.38 C 19.08 8.25, 19.095 7.980000000000001, 19.44 9.120000000000001 C 19.770000000000003 10.530000000000001, 19.8 10.469999999999999, 20.1 11.94 C 20.37 13.469999999999999, 20.46 13.44, 20.64 15 C 20.73 16.59, 20.715 16.935, 20.82 18.18 C 20.939999999999998 19.08, 20.97 19.41, 21.06 19.98 C 21.119999999999997 20.22, 21.15 20.34, 21.18 20.46 C 21.18 20.46, 21.03 20.565, 21.18 20.46 C 21.48 20.25, 21.375 20.34, 21.78 20.04 C 22.29 19.65, 22.319999999999997 19.47, 22.799999999999997 19.259999999999998 C 23.25 19.23, 23.115000000000002 19.26, 23.700000000000003 19.200000000000003 C 24.42 19.11, 24.225 19.065, 25.14 19.02 C 26.25 19.02, 26.564999999999998 18.96, 27.36 19.02 C 27.84 19.14, 27.75 18.959999999999997, 28.32 19.259999999999998 C 28.98 19.74, 29.1 19.74, 29.64 20.22 C 30.060000000000002 20.7, 30.105 20.595, 30.48 21.18 C 30.810000000000002 21.869999999999997, 30.87 21.945, 31.14 22.56 C 31.35 23.1, 31.424999999999997 22.92, 31.56 23.64 C 31.619999999999997 24.54, 31.65 24.705000000000002, 31.68 25.44 C 31.68 26.009999999999998, 31.695 26.22, 31.68 26.58 L 31.619999999999997 26.880000000000003" fill="none" stroke="black" stroke-width="5"></path><path d="M 20.700000000000003 14.399999999999999 C 21.660000000000004 14.25, 21.450000000000003 14.175, 22.62 14.100000000000001 C 24 14.100000000000001, 23.835000000000004 14.100000000000001, 25.380000000000003 14.100000000000001 C 27.09 14.100000000000001, 27.464999999999996 14.160000000000002, 28.799999999999997 14.100000000000001 C 29.759999999999998 13.98, 30.044999999999998 13.92, 30.72 13.86 C 31.11 13.86, 31.275 13.86, 31.5 13.86 L 31.619999999999997 13.86" fill="none" stroke="black" stroke-width="5"></path><path d="M 19.32 8.58 C 20.1 8.58, 19.424999999999997 8.64, 20.88 8.58 C 23.009999999999998 8.46, 22.98 8.4, 25.14 8.34 C 27.33 8.34, 27.945 8.34, 29.52 8.34 C 30.48 8.34, 30.885 8.34, 31.44 8.34 C 31.590000000000003 8.34, 31.665000000000003 8.34, 31.740000000000002 8.34 L 31.740000000000002 8.34" fill="none" stroke="black" stroke-width="5"></path><path d="M 11.34 43.08 C 13.17 41.82, 13.35 41.7, 15 40.56 C 16.47 39.54, 16.830000000000002 39.449999999999996, 17.94 38.519999999999996 C 18.69 37.67999999999999, 18.825000000000003 37.98, 19.44 36.839999999999996 C 19.92 35.4, 20.025 35.34, 20.4 33.96 C 20.67 32.64, 20.76 32.88, 20.94 31.32 C 21.03 29.52, 21.015 29.46, 21.12 27.72 C 21.240000000000002 26.04, 21.3 25.619999999999997, 21.36 24.36 C 21.36 23.52, 21.36 23.34, 21.36 22.68 C 21.36 22.2, 21.36 22.14, 21.36 21.72 C 21.36 21.36, 21.36 21.3, 21.36 21 C 21.36 20.759999999999998, 21.36 20.64, 21.36 20.52 C 21.36 20.52, 21.36 20.505, 21.36 20.52 C 21.36 20.55, 21.36 20.025000000000002, 21.36 20.580000000000002 C 21.36 21.660000000000004, 21.375 21.120000000000005, 21.36 22.740000000000002 C 21.33 24.9, 21.359999999999996 25.244999999999997, 21.299999999999997 27.06 C 21.21 28.53, 21.15 28.455, 21.12 30 C 21.15 31.62, 21.075 31.935000000000002, 21.18 33.24 C 21.36 34.230000000000004, 21.255 34.155, 21.54 35.22 C 21.93 36.36, 21.855 36.495, 22.32 37.5 C 22.86 38.370000000000005, 22.695 38.415000000000006, 23.4 39.24 C 24.27 40.019999999999996, 24.3 40.184999999999995, 25.14 40.8 C 25.95 41.25, 25.784999999999997 41.325, 26.759999999999998 41.7 C 27.9 42, 28.155 42.15, 29.04 42.3 C 29.669999999999998 42.3, 29.985 42.3, 30.299999999999997 42.3 C 30.299999999999997 42.3, 30.299999999999997 42.3, 30.299999999999997 42.3 C 30.299999999999997 42.3, 30.299999999999997 42.3, 30.299999999999997 42.3 L 30.299999999999997 42.3" fill="none" stroke="black" stroke-width="5"></path></svg>