<svg width="48" height="48" viewBox="0 0 48 48" xmlns="http://www.w3.org/2000/svg"><path d="M 15.66 44.160000000000004 C 15.3 43.2, 15.3 43.71, 14.940000000000001 42.24 C 14.580000000000002 40.260000000000005, 14.490000000000002 39.825, 14.22 38.28 C 14.04 37.17, 14.07 37.425000000000004, 13.86 36.06 C 13.62 34.44, 13.53 34.035, 13.379999999999999 32.82 C 13.32 32.010000000000005, 13.364999999999998 31.980000000000004, 13.26 31.200000000000003 C 13.11 30.450000000000003, 13.095 30.345000000000006, 12.96 29.700000000000003 C 12.84 29.16, 12.780000000000001 29.25, 12.72 28.619999999999997 C 12.72 27.9, 12.75 27.854999999999997, 12.72 27.18 C 12.66 26.55, 12.63 26.43, 12.600000000000001 25.92 C 12.600000000000001 25.53, 12.600000000000001 25.485, 12.600000000000001 25.14 C 12.600000000000001 24.84, 12.600000000000001 24.81, 12.600000000000001 24.54 C 12.600000000000001 24.299999999999997, 12.600000000000001 24.375, 12.600000000000001 24.06 C 12.600000000000001 23.67, 12.540000000000003 23.625, 12.600000000000001 23.28 C 12.72 22.98, 12.675 22.98, 12.84 22.68 C 13.05 22.380000000000003, 12.9 22.455000000000002, 13.26 22.080000000000002 C 13.77 21.630000000000003, 13.544999999999998 21.6, 14.28 21.18 C 15.240000000000002 20.79, 15.225000000000003 20.7, 16.200000000000003 20.4 C 17.19 20.189999999999998, 17.115000000000002 20.130000000000003, 18.18 19.98 C 19.32 19.89, 19.515 19.889999999999997, 20.46 19.799999999999997 C 21.21 19.71, 21.240000000000002 19.665, 21.96 19.62 C 22.65 19.62, 22.755000000000003 19.62, 23.34 19.62 C 23.82 19.62, 23.909999999999997 19.62, 24.299999999999997 19.62 C 24.6 19.62, 24.615000000000002 19.62, 24.900000000000002 19.62 C 25.17 19.62, 25.14 19.545, 25.44 19.62 C 25.77 19.77, 25.709999999999997 19.665, 26.099999999999998 19.919999999999998 C 26.549999999999997 20.28, 26.52 20.16, 27 20.64 C 27.509999999999998 21.240000000000002, 27.689999999999998 21.42, 28.02 21.84 C 28.17 22.08, 28.05 21.9, 28.32 22.32 C 28.71 22.92, 28.799999999999997 22.875, 29.099999999999998 23.52 C 29.31 24.21, 29.415 24.330000000000002, 29.52 24.900000000000002 C 29.52 25.35, 29.52 25.304999999999996, 29.52 25.799999999999997 C 29.52 26.34, 29.549999999999997 26.370000000000005, 29.52 26.880000000000003 C 29.46 27.36, 29.685000000000002 27.269999999999996, 29.400000000000002 27.839999999999996 C 28.89 28.5, 28.875000000000004 28.575000000000003, 28.380000000000003 29.160000000000004 C 27.900000000000002 29.67, 27.78 29.85, 27.42 30.18 C 27.18 30.33, 27.060000000000002 30.405, 26.94 30.48 C 26.94 30.48, 26.94 30.48, 26.94 30.48 C 26.94 30.48, 26.94 30.48, 26.94 30.48 C 26.94 30.48, 27.015 30.435, 26.94 30.48 C 26.79 30.57, 26.835 30.585000000000004, 26.64 30.660000000000004 C 26.400000000000002 30.720000000000002, 26.445000000000004 30.765, 26.160000000000004 30.78 C 25.830000000000002 30.75, 25.815 30.735, 25.5 30.72 C 25.200000000000003 30.72, 25.05 30.72, 24.900000000000002 30.72 C 24.900000000000002 30.72, 24.900000000000002 30.72, 24.900000000000002 30.72 C 24.900000000000002 30.72, 24.900000000000002 30.72, 24.900000000000002 30.72 L 24.900000000000002 30.72" fill="none" stroke="black" stroke-width="5"></path><path d="M 12.18 16.56 C 13.2 16.439999999999998, 12.75 16.425, 14.22 16.32 C 16.14 16.23, 15.899999999999999 16.17, 18.06 16.14 C 20.46 16.17, 21.27 16.185000000000002, 22.86 16.200000000000003 C 23.64 16.200000000000003, 23.805 16.200000000000003, 24.42 16.200000000000003 C 24.87 16.200000000000003, 24.825 16.200000000000003, 25.32 16.200000000000003 L 26.400000000000002 16.200000000000003" fill="none" stroke="black" stroke-width="5"></path><path d="M 14.28 10.98 C 15.719999999999999 10.74, 15.540000000000001 10.695, 17.16 10.5 C 18.96 10.35, 19.185 10.32, 20.759999999999998 10.2 C 22.11 10.11, 22.380000000000003 10.065, 23.46 10.02 C 24.27 10.02, 24.36 10.02, 25.08 10.02 C 25.709999999999997 10.02, 26.025 10.02, 26.339999999999996 10.02 L 26.339999999999996 10.02" fill="none" stroke="black" stroke-width="5"></path></svg>