<svg width="48" height="48" viewBox="0 0 48 48" xmlns="http://www.w3.org/2000/svg"><path d="M 12.299999999999999 37.56 C 12.870000000000001 37.47, 12.510000000000002 37.515, 13.440000000000001 37.38 C 14.73 37.2, 15.045 37.155, 16.02 37.019999999999996 C 16.68 36.92999999999999, 16.665 36.92999999999999, 17.34 36.839999999999996 C 18.03 36.75, 18 36.75, 18.72 36.660000000000004 C 19.47 36.57000000000001, 19.619999999999997 36.525000000000006, 20.22 36.480000000000004 C 20.67 36.480000000000004, 20.775 36.480000000000004, 21.12 36.480000000000004 C 21.36 36.480000000000004, 21.48 36.480000000000004, 21.6 36.480000000000004 L 21.6 36.480000000000004" fill="none" stroke="black" stroke-width="5"></path><path d="M 13.26 43.980000000000004 C 13.14 43.14, 13.215 43.425, 13.02 42.3 C 12.75 40.89, 12.615 40.545, 12.48 39.480000000000004 C 12.48 38.760000000000005, 12.525 39.015, 12.48 38.04 C 12.39 36.81, 12.389999999999999 36.78, 12.299999999999999 35.58 C 12.21 34.41, 12.165000000000001 34.59, 12.120000000000001 33.24 C 12.120000000000001 31.71, 12.120000000000001 31.740000000000002, 12.120000000000001 30.18 C 12.120000000000001 28.59, 12.120000000000001 28.785, 12.120000000000001 27 C 12.120000000000001 25.02, 12.015 24.75, 12.120000000000001 23.04 C 12.33 21.6, 12.315 21.435, 12.54 20.16 C 12.78 19.05, 12.809999999999999 18.705000000000002, 13.02 17.94 C 13.2 17.520000000000003, 13.035 17.64, 13.379999999999999 17.1 C 13.889999999999999 16.44, 14.069999999999999 16.23, 14.399999999999999 15.78 C 14.55 15.54, 14.535 15.495, 14.700000000000001 15.299999999999999 C 14.879999999999999 15.149999999999999, 14.76 15.06, 15.059999999999999 15 C 15.479999999999999 15.03, 15.239999999999998 14.819999999999999, 15.899999999999999 15.059999999999999 C 16.8 15.51, 16.830000000000002 15.105, 17.700000000000003 15.96 C 18.54 17.22, 18.825 17.28, 19.38 18.48 C 19.65 19.619999999999997, 19.709999999999997 19.514999999999997, 19.919999999999998 20.759999999999998 C 20.07 22.11, 20.084999999999997 22.515, 20.22 23.46 C 20.34 24, 20.4 24.27, 20.46 24.54 C 20.46 24.54, 20.445 24.9, 20.46 24.54 C 20.490000000000002 23.82, 20.37 23.910000000000004, 20.52 23.1 C 20.79 22.2, 20.82 22.244999999999997, 21.06 21.299999999999997 C 21.27 20.31, 21.225 20.07, 21.48 19.32 C 21.78 18.81, 21.675 18.764999999999997, 22.080000000000002 18.299999999999997 C 22.590000000000003 17.88, 22.605000000000004 17.775, 23.1 17.46 C 23.58 17.25, 23.625 17.145, 24.06 17.04 C 24.449999999999996 17.04, 24.359999999999996 16.95, 24.839999999999996 17.04 C 25.409999999999997 17.22, 25.275 16.845, 25.98 17.4 C 26.82 18.33, 27.015000000000004 18.284999999999997, 27.660000000000004 19.259999999999998 C 28.11 20.279999999999998, 28.185 20.025, 28.56 21.299999999999997 C 28.86 22.83, 28.950000000000003 22.755, 29.160000000000004 24.36 C 29.28 26.04, 29.340000000000003 25.665, 29.400000000000002 27.72 C 29.400000000000002 30.15, 29.340000000000003 30.464999999999996, 29.400000000000002 32.58 C 29.520000000000003 34.379999999999995, 29.580000000000002 34.845, 29.64 36.18 C 29.64 37.05, 29.64 37.125, 29.64 37.92 C 29.64 38.64, 29.655 38.64, 29.64 39.36 C 29.61 40.08, 29.669999999999998 39.974999999999994, 29.58 40.8 C 29.43 41.730000000000004, 29.400000000000002 42, 29.28 42.660000000000004 C 29.189999999999998 43.05, 29.189999999999998 43.035, 29.099999999999998 43.44 C 29.009999999999998 43.86, 28.965 44.07, 28.92 44.28 C 28.92 44.28, 28.935000000000002 44.235, 28.92 44.28 L 28.86 44.46" fill="none" stroke="black" stroke-width="5"></path><path d="M 12.18 9.42 C 12.33 9.57, 12.030000000000001 9.645, 12.48 9.72 C 13.23 9.72, 12.555 9.66, 13.98 9.72 C 16.08 9.84, 16.155 9.75, 18.18 9.959999999999999 C 20.130000000000003 10.26, 20.475 10.32, 22.080000000000002 10.56 C 23.34 10.74, 23.61 10.785, 24.599999999999998 10.92 C 25.32 11.010000000000002, 25.349999999999998 11.055000000000001, 26.04 11.100000000000001 C 26.7 11.100000000000001, 27.03 11.100000000000001, 27.36 11.100000000000001 L 27.36 11.100000000000001" fill="none" stroke="black" stroke-width="5"></path><path d="M 11.459999999999999 5.1 C 12.75 4.8, 12.674999999999999 4.635, 14.04 4.5 C 15.479999999999999 4.53, 15.644999999999998 4.53, 16.919999999999998 4.5600000000000005 C 18.03 4.59, 17.835 4.455, 19.14 4.62 C 20.64 4.92, 20.835 5.055, 22.14 5.22 C 23.25 5.25, 23.535 5.265000000000001, 24.36 5.28 C 24.9 5.28, 25.17 5.28, 25.44 5.28 C 25.44 5.28, 25.44 5.28, 25.44 5.28 C 25.44 5.28, 25.290000000000003 5.28, 25.44 5.28 C 25.740000000000002 5.28, 25.77 5.28, 26.04 5.28 C 26.28 5.28, 26.354999999999997 5.265000000000001, 26.52 5.28 L 26.700000000000003 5.34" fill="none" stroke="black" stroke-width="5"></path></svg>