<svg width="48" height="48" viewBox="0 0 48 48" xmlns="http://www.w3.org/2000/svg"><path d="M 11.52 41.94 C 11.399999999999999 40.8, 11.549999999999999 42.03, 11.28 39.660000000000004 C 10.86 36.06, 10.665 35.22, 10.44 32.46 C 10.41 30.54, 10.395 30.389999999999997, 10.379999999999999 28.619999999999997 C 10.379999999999999 27, 10.379999999999999 26.955000000000002, 10.379999999999999 25.380000000000003 C 10.379999999999999 23.85, 10.364999999999998 23.445, 10.379999999999999 22.32 C 10.41 21.6, 10.35 21.615, 10.44 20.88 C 10.59 20.13, 10.545 19.994999999999997, 10.74 19.38 C 10.98 18.9, 11.07 18.75, 11.22 18.419999999999998 C 11.280000000000001 18.24, 11.175 18.269999999999996, 11.34 18.06 C 11.61 17.82, 11.504999999999999 17.805, 11.879999999999999 17.580000000000002 C 12.36 17.37, 12.405 17.265, 12.84 17.16 C 13.23 17.16, 13.305 17.16, 13.620000000000001 17.16 C 13.860000000000001 17.16, 13.740000000000002 17.025, 14.100000000000001 17.16 C 14.58 17.43, 14.52 17.205000000000002, 15.059999999999999 17.700000000000003 C 15.659999999999998 18.42, 15.749999999999996 18.405, 16.259999999999998 19.14 C 16.68 19.89, 16.785 20.025, 17.1 20.64 C 17.310000000000002 21.12, 17.355 20.895000000000003, 17.52 21.6 C 17.64 22.53, 17.654999999999998 22.725, 17.759999999999998 23.46 C 17.85 24, 17.895 24.225, 17.94 24.54 C 17.94 24.63, 17.94 24.674999999999997, 17.94 24.72 C 17.94 24.72, 17.94 24.93, 17.94 24.72 C 17.94 24.299999999999997, 17.85 24.72, 17.94 23.88 C 18.119999999999997 22.619999999999997, 18.044999999999998 22.455, 18.299999999999997 21.36 C 18.63 20.43, 18.66 20.16, 18.96 19.5 C 19.23 19.11, 19.245 19.095, 19.5 18.72 C 19.740000000000002 18.36, 19.62 18.195, 19.98 18 C 20.46 17.97, 20.520000000000003 17.955000000000002, 20.94 17.94 C 21.3 17.94, 21.315 17.895000000000003, 21.66 17.94 C 21.990000000000002 18.03, 21.885 17.73, 22.32 18.12 C 22.86 18.810000000000002, 22.979999999999997 18.96, 23.4 19.5 C 23.7 19.89, 23.685 19.755000000000003, 24 20.28 C 24.330000000000002 20.94, 24.315000000000005 20.775000000000002, 24.660000000000004 21.6 C 25.020000000000003 22.590000000000003, 25.17 22.695, 25.380000000000003 23.580000000000002 C 25.44 24.36, 25.47 24.345000000000002, 25.5 25.14 C 25.5 25.95, 25.455 25.754999999999995, 25.5 26.759999999999998 C 25.59 27.96, 25.634999999999998 27.630000000000003, 25.68 29.160000000000004 C 25.68 31.020000000000003, 25.68 31.230000000000004, 25.68 32.88 C 25.68 34.32, 25.634999999999998 34.725, 25.68 35.76 C 25.77 36.39, 25.814999999999998 36.51, 25.86 37.019999999999996 C 25.86 37.41, 25.86 37.574999999999996, 25.86 37.8 C 25.86 37.86, 25.86 37.635000000000005, 25.86 37.92 C 25.86 38.43, 25.86 38.504999999999995, 25.86 38.94 C 25.86 39.3, 25.86 39.480000000000004, 25.86 39.660000000000004 C 25.86 39.660000000000004, 25.86 39.660000000000004, 25.86 39.660000000000004 C 25.86 39.660000000000004, 25.86 39.660000000000004, 25.86 39.660000000000004 L 25.86 39.660000000000004" fill="none" stroke="black" stroke-width="5"></path><path d="M 10.2 12.72 C 10.739999999999998 12.72, 10.305 12.765, 11.28 12.72 C 12.690000000000001 12.629999999999999, 12.81 12.629999999999999, 14.100000000000001 12.54 C 15.270000000000001 12.45, 15.21 12.405, 16.44 12.36 C 17.73 12.36, 18.045 12.36, 19.02 12.36 C 19.68 12.36, 19.53 12.344999999999999, 20.34 12.36 C 21.299999999999997 12.389999999999999, 21.555 12.404999999999998, 22.259999999999998 12.419999999999998 C 22.71 12.419999999999998, 22.785 12.419999999999998, 23.16 12.419999999999998 C 23.46 12.419999999999998, 23.61 12.419999999999998, 23.759999999999998 12.419999999999998 L 23.759999999999998 12.419999999999998" fill="none" stroke="black" stroke-width="5"></path><path d="M 9.600000000000001 7.14 C 10.14 7.14, 9.795 7.17, 10.68 7.14 C 11.91 7.08, 12.120000000000001 7.0649999999999995, 13.14 7.02 C 13.95 6.989999999999999, 13.92 6.975, 14.76 6.959999999999999 C 15.629999999999999 6.959999999999999, 15.585 7.004999999999999, 16.5 6.959999999999999 C 17.46 6.869999999999999, 17.4 6.824999999999999, 18.419999999999998 6.779999999999999 C 19.5 6.779999999999999, 19.635 6.779999999999999, 20.580000000000002 6.779999999999999 C 21.39 6.779999999999999, 21.570000000000004 6.779999999999999, 22.200000000000003 6.779999999999999 C 22.650000000000002 6.779999999999999, 22.725 6.779999999999999, 23.1 6.779999999999999 C 23.400000000000002 6.779999999999999, 23.475 6.779999999999999, 23.700000000000003 6.779999999999999 L 24 6.779999999999999" fill="none" stroke="black" stroke-width="5"></path><path d="M 18.48 29.339999999999996 C 17.61 29.22, 17.25 29.114999999999995, 16.740000000000002 29.099999999999998 C 16.590000000000003 29.189999999999998, 16.725 28.98, 16.44 29.28 C 16.020000000000003 29.79, 15.96 29.684999999999995, 15.600000000000001 30.299999999999997 C 15.3 31.02, 15.285 30.915000000000003, 15 31.740000000000002 C 14.73 32.67, 14.64 32.81999999999999, 14.46 33.599999999999994 C 14.370000000000001 34.23, 14.295 34.185, 14.28 34.86 C 14.34 35.58, 14.129999999999999 35.64, 14.399999999999999 36.3 C 14.879999999999999 36.9, 14.849999999999998 37.065, 15.36 37.5 C 15.9 37.769999999999996, 15.690000000000001 37.875, 16.44 38.04 C 17.4 38.1, 17.64 38.235, 18.36 38.160000000000004 C 18.84 37.95, 18.795 38.025000000000006, 19.32 37.74 C 19.89 37.379999999999995, 19.845 37.544999999999995, 20.46 37.019999999999996 C 21.12 36.33, 21.330000000000002 36.33, 21.78 35.64 C 22.02 34.95, 22.14 34.754999999999995, 22.259999999999998 34.26 C 22.259999999999998 33.96, 22.29 34.125, 22.259999999999998 33.660000000000004 C 22.2 33.03, 22.35 33.04500000000001, 22.14 32.400000000000006 C 21.78 31.740000000000002, 21.765 31.59, 21.419999999999998 31.08 C 21.089999999999996 30.72, 21.134999999999998 30.705, 20.759999999999998 30.36 C 20.339999999999996 30.03, 20.459999999999997 29.94, 19.919999999999998 29.700000000000003 C 19.259999999999998 29.550000000000004, 19.23 29.505000000000003, 18.6 29.400000000000002 C 18 29.340000000000003, 17.865 29.310000000000002, 17.4 29.28 C 17.07 29.28, 16.98 29.28, 16.740000000000002 29.28 L 16.44 29.28" fill="none" stroke="black" stroke-width="5"></path><path d="M 14.04 34.44 C 14.49 34.29, 14.385000000000002 34.26, 14.940000000000001 34.14 C 15.6 34.05, 15.614999999999998 34.08, 16.259999999999998 33.96 C 16.89 33.81, 16.935 33.735, 17.52 33.660000000000004 C 18.060000000000002 33.660000000000004, 18.045 33.705000000000005, 18.6 33.660000000000004 C 19.17 33.57000000000001, 19.155 33.525000000000006, 19.740000000000002 33.480000000000004 C 20.340000000000003 33.480000000000004, 20.445 33.480000000000004, 20.94 33.480000000000004 C 21.33 33.480000000000004, 21.494999999999997 33.480000000000004, 21.72 33.480000000000004 C 21.78 33.480000000000004, 21.81 33.480000000000004, 21.84 33.480000000000004 L 21.84 33.480000000000004" fill="none" stroke="black" stroke-width="5"></path></svg>