<svg width="48" height="48" viewBox="0 0 48 48" xmlns="http://www.w3.org/2000/svg"><path d="M 14.22 5.64 C 14.190000000000001 6.24, 14.22 5.895, 14.16 6.84 C 14.07 8.129999999999999, 14.025 8.31, 13.98 9.42 C 13.98 10.35, 13.98 10.245, 13.98 11.28 C 13.98 12.419999999999998, 13.95 12.524999999999999, 13.98 13.559999999999999 C 14.040000000000001 14.489999999999998, 13.935000000000002 14.459999999999997, 14.100000000000001 15.419999999999998 C 14.370000000000001 16.409999999999997, 14.325000000000001 16.485, 14.64 17.4 C 15 18.240000000000002, 15 18.450000000000003, 15.36 19.080000000000002 C 15.72 19.5, 15.570000000000002 19.424999999999997, 16.080000000000002 19.919999999999998 C 16.740000000000002 20.49, 16.724999999999998 20.639999999999997, 17.4 21.06 C 18.09 21.33, 17.865000000000002 21.435000000000002, 18.78 21.6 C 19.92 21.66, 19.845 21.689999999999998, 21.06 21.72 C 22.35 21.72, 22.185 21.779999999999998, 23.64 21.72 C 25.26 21.6, 25.575000000000003 21.645, 26.880000000000003 21.48 C 27.87 21.27, 27.990000000000002 21.224999999999998, 28.86 21.06 C 29.61 20.939999999999998, 29.744999999999997 20.925, 30.36 20.82 C 30.84 20.73, 30.81 20.73, 31.32 20.64 C 31.860000000000003 20.55, 31.980000000000004 20.535, 32.400000000000006 20.46 C 32.7 20.4, 32.685 20.415, 33 20.34 C 33.33 20.25, 33.495000000000005 20.205, 33.660000000000004 20.16 C 33.660000000000004 20.16, 33.660000000000004 20.16, 33.660000000000004 20.16 L 33.660000000000004 20.16" fill="none" stroke="black" stroke-width="5"></path><path d="M 24.96 6.18 C 23.700000000000003 6.33, 23.46 6.165000000000001, 22.44 6.48 C 21.66 6.96, 21.645 6.734999999999999, 20.88 7.4399999999999995 C 20.13 8.370000000000001, 19.755 8.535, 19.38 9.3 C 19.38 9.9, 19.2 9.84, 19.38 10.5 C 19.740000000000002 11.219999999999999, 19.575000000000003 11.129999999999999, 20.1 11.94 C 20.79 12.84, 20.880000000000003 13.08, 21.48 13.74 C 21.990000000000002 14.16, 21.855 14.220000000000002, 22.5 14.580000000000002 C 23.28 14.88, 23.16 15.030000000000001, 24.06 15.18 C 25.08 15.18, 24.9 15.48, 26.099999999999998 15.18 C 27.479999999999997 14.58, 27.915 14.504999999999999, 28.86 13.98 C 29.37 13.530000000000001, 29.550000000000004 13.545000000000002, 29.880000000000003 13.080000000000002 C 30.03 12.600000000000001, 30.135 12.855, 30.18 12.120000000000001 C 30.119999999999997 11.13, 30.24 11.010000000000002, 30.06 10.14 C 29.759999999999998 9.39, 29.775000000000002 9.315000000000001, 29.46 8.64 C 29.13 8.04, 29.264999999999997 8.024999999999999, 28.799999999999997 7.4399999999999995 C 28.199999999999996 6.87, 28.424999999999997 6.705, 27.599999999999998 6.300000000000001 C 26.549999999999997 6.0600000000000005, 26.415 5.94, 25.5 5.82 C 24.72 5.82, 24.405 5.775, 23.94 5.82 C 23.79 5.91, 23.76 5.925, 23.64 6 L 23.46 6.12" fill="none" stroke="black" stroke-width="5"></path><path d="M 20.04 11.82 C 21.72 11.370000000000001, 22.2 11.219999999999999, 23.4 10.92 C 24.119999999999997 10.77, 24.044999999999995 10.740000000000002, 24.839999999999996 10.620000000000001 C 25.709999999999997 10.530000000000001, 25.83 10.485, 26.58 10.44 C 27.209999999999997 10.44, 27.33 10.44, 27.839999999999996 10.44 C 28.229999999999997 10.44, 28.244999999999997 10.44, 28.619999999999997 10.44 C 28.979999999999997 10.44, 29.069999999999993 10.44, 29.339999999999996 10.44 L 29.700000000000003 10.44" fill="none" stroke="black" stroke-width="5"></path><path d="M 26.700000000000003 28.32 C 25.950000000000003 28.14, 25.995000000000005 27.945, 25.200000000000003 27.96 C 24.36 28.17, 24.33 27.96, 23.52 28.380000000000003 C 22.740000000000002 29.01, 22.62 28.950000000000003, 21.96 29.64 C 21.42 30.39, 21.195 30.375, 20.88 31.14 C 20.79 31.92, 20.67 31.785000000000004, 20.700000000000003 32.7 C 20.85 33.75, 20.64 33.75, 21 34.8 C 21.57 35.85, 21.495 36.075, 22.14 36.900000000000006 C 22.86 37.5, 22.785000000000004 37.724999999999994, 23.580000000000002 38.099999999999994 C 24.450000000000003 38.25, 24.57 38.325, 25.32 38.400000000000006 C 25.95 38.400000000000006, 25.724999999999998 38.65500000000001, 26.58 38.400000000000006 C 27.66 37.89, 27.825000000000003 38.025000000000006, 28.740000000000002 37.38 C 29.490000000000002 36.6, 29.685000000000002 36.645, 30.240000000000002 35.82 C 30.6 34.95, 30.72 34.83, 30.96 34.08 C 31.080000000000002 33.45, 31.14 33.33, 31.200000000000003 32.82 C 31.200000000000003 32.43, 31.305000000000003 32.58, 31.200000000000003 32.04 C 30.990000000000002 31.35, 31.050000000000004 31.200000000000003, 30.78 30.660000000000004 C 30.45 30.270000000000003, 30.54 30.270000000000003, 30.119999999999997 29.880000000000003 C 29.61 29.490000000000002, 29.699999999999996 29.43, 29.099999999999998 29.099999999999998 C 28.409999999999997 28.83, 28.439999999999998 28.77, 27.72 28.56 C 26.97 28.409999999999997, 27.06 28.334999999999997, 26.22 28.259999999999998 C 25.29 28.259999999999998, 24.869999999999997 28.259999999999998, 24.36 28.259999999999998 L 24.18 28.259999999999998" fill="none" stroke="black" stroke-width="5"></path></svg>