<svg width="48" height="48" viewBox="0 0 48 48" xmlns="http://www.w3.org/2000/svg"><path d="M 14.940000000000001 30 C 14.580000000000002 28.98, 14.625 29.355, 14.22 27.96 C 13.77 26.19, 13.635 26.040000000000003, 13.32 24.42 C 13.14 22.950000000000003, 13.05 22.53, 12.96 21.48 C 12.96 20.85, 12.885000000000002 20.775, 12.96 20.22 C 13.11 19.74, 13.05 19.74, 13.26 19.259999999999998 C 13.53 18.779999999999998, 13.364999999999998 18.779999999999998, 13.799999999999999 18.299999999999997 C 14.399999999999999 17.82, 14.504999999999999 17.625, 15 17.34 C 15.39 17.25, 15.434999999999999 17.19, 15.78 17.16 C 16.08 17.189999999999998, 15.915 16.919999999999998, 16.38 17.22 C 17.009999999999998 17.79, 17.07 17.61, 17.64 18.36 C 18.15 19.29, 18.21 19.365, 18.66 20.22 C 19.05 21, 19.185000000000002 21.270000000000003, 19.44 21.78 C 19.560000000000002 22.02, 19.575 22.064999999999998, 19.68 22.259999999999998 C 19.77 22.409999999999997, 19.77 22.439999999999998, 19.86 22.56 C 19.95 22.65, 19.845 22.740000000000002, 20.04 22.740000000000002 C 20.34 22.65, 20.4 22.77, 20.64 22.56 C 20.82 22.229999999999997, 20.91 22.394999999999996, 21 21.9 C 21 21.240000000000002, 20.985 21.18, 21 20.580000000000002 C 21.03 20.04, 20.985 20.01, 21.06 19.5 C 21.18 19.02, 21.194999999999997 18.9, 21.299999999999997 18.54 C 21.39 18.299999999999997, 21.225 18.404999999999998, 21.48 18.06 C 21.9 17.61, 21.78 17.55, 22.32 17.16 C 22.98 16.83, 22.830000000000002 16.71, 23.64 16.5 C 24.6 16.41, 24.75 16.365000000000002, 25.56 16.32 C 26.22 16.32, 26.19 16.32, 26.880000000000003 16.32 C 27.6 16.32, 27.6 16.29, 28.32 16.32 C 29.04 16.380000000000003, 29.265 16.395000000000003, 29.759999999999998 16.44 L 30.299999999999997 16.5" fill="none" stroke="black" stroke-width="5"></path><path d="M 21.419999999999998 2.94 C 20.88 3, 21.044999999999998 2.805, 20.34 3.06 C 19.47 3.51, 19.29 3.24, 18.6 3.96 C 18.090000000000003 4.949999999999999, 17.865000000000002 4.89, 17.580000000000002 5.9399999999999995 C 17.520000000000003 7.05, 17.385 7.23, 17.46 8.16 C 17.67 8.91, 17.384999999999998 8.895, 17.88 9.66 C 18.66 10.440000000000001, 18.555 10.68, 19.44 11.22 C 20.43 11.52, 20.534999999999997 11.67, 21.419999999999998 11.82 C 22.2 11.82, 22.275 11.91, 22.98 11.82 C 23.61 11.64, 23.730000000000004 11.805, 24.240000000000002 11.459999999999999 C 24.630000000000003 10.95, 24.795 10.995, 25.02 10.44 C 25.08 9.84, 25.11 9.885, 25.14 9.24 C 25.14 8.55, 25.14 8.4, 25.14 7.86 C 25.14 7.470000000000001, 25.155 7.44, 25.14 7.08 C 25.11 6.75, 25.29 6.87, 25.08 6.42 C 24.689999999999998 5.85, 24.749999999999996 5.805, 24.299999999999997 5.28 C 23.79 4.800000000000001, 23.82 4.695, 23.28 4.32 C 22.71 4.050000000000001, 22.635 4.005000000000001, 22.14 3.7800000000000002 C 21.72 3.6, 21.735 3.51, 21.299999999999997 3.42 C 20.849999999999998 3.42, 20.849999999999998 3.42, 20.4 3.42 C 19.95 3.42, 19.725 3.42, 19.5 3.42 L 19.5 3.42" fill="none" stroke="black" stroke-width="5"></path><path d="M 16.740000000000002 7.92 C 17.970000000000002 8.010000000000002, 18.120000000000005 8.055000000000001, 19.200000000000003 8.100000000000001 C 20.130000000000003 8.100000000000001, 20.25 8.100000000000001, 21.06 8.100000000000001 C 21.75 8.100000000000001, 21.900000000000002 8.070000000000002, 22.44 8.100000000000001 C 22.83 8.16, 22.875 8.190000000000001, 23.22 8.22 C 23.52 8.22, 23.625 8.22, 23.82 8.22 C 23.91 8.22, 23.880000000000003 8.22, 24 8.22 C 24.15 8.22, 24.104999999999997 8.22, 24.299999999999997 8.22 C 24.54 8.22, 24.63 8.22, 24.78 8.22 L 24.900000000000002 8.22" fill="none" stroke="black" stroke-width="5"></path><path d="M 13.14 43.2 C 13.170000000000002 43.230000000000004, 12.690000000000001 43.47, 13.200000000000001 43.26 C 14.190000000000001 42.81, 14.205 42.93, 15.18 42.36 C 16.14 41.67, 16.290000000000003 41.82000000000001, 17.1 40.980000000000004 C 17.759999999999998 39.99, 17.909999999999997 40.095, 18.419999999999998 39 C 18.78 37.8, 18.915 37.934999999999995, 19.14 36.599999999999994 C 19.23 35.129999999999995, 19.23 35.025000000000006, 19.32 33.660000000000004 C 19.41 32.400000000000006, 19.455 32.445, 19.5 31.14 C 19.5 29.79, 19.5 29.475, 19.5 28.44 C 19.5 27.72, 19.5 27.84, 19.5 27 C 19.5 26.04, 19.455 25.994999999999997, 19.5 25.08 C 19.59 24.21, 19.634999999999998 23.939999999999998, 19.68 23.34 C 19.68 23.009999999999998, 19.68 22.845, 19.68 22.68 C 19.68 22.68, 19.68 22.68, 19.68 22.68 C 19.68 22.68, 19.68 22.65, 19.68 22.68 C 19.68 22.74, 19.68 22.484999999999996, 19.68 22.799999999999997 C 19.68 23.369999999999997, 19.68 23.265, 19.68 23.94 C 19.68 24.72, 19.68 24.645, 19.68 25.5 C 19.68 26.43, 19.545 26.369999999999997, 19.68 27.36 C 19.95 28.41, 19.89 28.35, 20.22 29.46 C 20.61 30.63, 20.369999999999997 30.419999999999995, 21 31.799999999999997 C 21.87 33.39, 21.945 33.690000000000005, 22.740000000000002 34.980000000000004 C 23.46 35.97, 23.564999999999998 36.255, 24.18 36.96 C 24.69 37.379999999999995, 24.630000000000003 37.44, 25.200000000000003 37.8 C 25.830000000000002 38.1, 25.770000000000003 38.13, 26.46 38.400000000000006 C 27.21 38.64, 27.21 38.7, 27.96 38.88 C 28.71 39, 28.785 39.045, 29.46 39.12 C 30.060000000000002 39.15, 30.030000000000005 39.165, 30.660000000000004 39.18 C 31.32 39.18, 31.425 39.18, 31.98 39.18 C 32.43 39.18, 32.655 39.18, 32.88 39.18 L 32.88 39.18" fill="none" stroke="black" stroke-width="5"></path></svg>