<svg width="48" height="48" viewBox="0 0 48 48" xmlns="http://www.w3.org/2000/svg"><path d="M 22.32 5.9399999999999995 C 21.630000000000003 5.91, 21.810000000000002 5.595, 20.94 5.88 C 19.89 6.48, 19.68 6.24, 18.84 7.08 C 18.21 8.16, 17.985000000000003 8.16, 17.580000000000002 9.24 C 17.4 10.32, 17.205 10.139999999999999, 17.22 11.399999999999999 C 17.43 12.84, 17.310000000000002 13.229999999999999, 17.64 14.28 C 18.09 14.940000000000001, 17.82 14.88, 18.54 15.600000000000001 C 19.53 16.380000000000003, 19.395 16.545, 20.52 17.16 C 21.78 17.61, 21.9 17.805, 23.04 18.06 C 24.06 18.119999999999997, 24.165 18.405, 25.08 18.18 C 25.89 17.67, 26.1 17.625, 26.700000000000003 17.16 C 27.090000000000003 16.740000000000002, 27.090000000000003 16.785, 27.48 16.32 C 27.869999999999997 15.809999999999999, 27.915 16.005, 28.259999999999998 15.299999999999999 C 28.56 14.399999999999999, 28.725 14.31, 28.86 13.5 C 28.83 12.78, 28.994999999999997 12.915, 28.799999999999997 12.059999999999999 C 28.439999999999998 11.07, 28.47 10.92, 28.08 10.08 C 27.66 9.39, 27.66 9.299999999999999, 27.240000000000002 8.7 C 26.82 8.19, 26.865000000000002 8.174999999999999, 26.400000000000002 7.68 C 25.89 7.2, 25.845000000000002 7.065, 25.380000000000003 6.720000000000001 C 24.96 6.510000000000001, 25.259999999999998 6.420000000000001, 24.54 6.300000000000001 C 23.52 6.2700000000000005, 23.46 6.120000000000001, 22.5 6.24 C 21.6 6.51, 21.225 6.569999999999999, 20.700000000000003 6.779999999999999 L 20.4 7.08" fill="none" stroke="black" stroke-width="5"></path><path d="M 16.98 12.059999999999999 C 17.939999999999998 12.27, 17.52 12.39, 18.9 12.48 C 20.7 12.45, 20.924999999999997 12.434999999999999, 22.5 12.419999999999998 C 23.85 12.419999999999998, 24.03 12.419999999999998, 25.200000000000003 12.419999999999998 C 26.19 12.419999999999998, 26.490000000000002 12.419999999999998, 27.18 12.419999999999998 C 27.57 12.419999999999998, 27.72 12.419999999999998, 27.96 12.419999999999998 C 28.05 12.419999999999998, 28.02 12.419999999999998, 28.14 12.419999999999998 C 28.29 12.419999999999998, 28.32 12.419999999999998, 28.44 12.419999999999998 L 28.619999999999997 12.419999999999998" fill="none" stroke="black" stroke-width="5"></path><path d="M 23.759999999999998 18.36 C 23.549999999999997 18.689999999999998, 23.52 18.299999999999997, 23.34 19.02 C 23.189999999999998 20.130000000000003, 23.16 19.875, 23.04 21.240000000000002 C 22.95 22.86, 22.905 22.770000000000003, 22.86 24.48 C 22.86 26.28, 22.86 26.189999999999998, 22.86 28.08 C 22.86 30.06, 22.905 30.405, 22.86 32.04 C 22.77 33.33, 22.725 33.19499999999999, 22.68 34.62 C 22.68 36.18, 22.68 36.27, 22.68 37.74 C 22.68 39.120000000000005, 22.68 39.465, 22.68 40.5 C 22.68 41.19, 22.665 41.115, 22.68 41.88 C 22.71 42.72, 22.725 42.81, 22.740000000000002 43.56 C 22.740000000000002 44.22, 22.725 44.505, 22.740000000000002 44.88 C 22.77 44.97, 22.755 44.97, 22.799999999999997 45.06 C 22.86 45.150000000000006, 22.889999999999997 45.195, 22.919999999999998 45.24 L 22.919999999999998 45.24" fill="none" stroke="black" stroke-width="5"></path></svg>