<svg width="48" height="48" viewBox="0 0 48 48" xmlns="http://www.w3.org/2000/svg"><path d="M 10.92 44.519999999999996 C 10.469999999999999 42, 10.424999999999999 41.535000000000004, 10.02 39.480000000000004 C 9.66 37.89, 9.600000000000001 38.295, 9.3 36.3 C 9.06 33.9, 8.940000000000001 33.165, 8.82 31.5 C 8.82 30.57, 8.82 31.005000000000003, 8.82 29.64 C 8.82 27.84, 8.82 27.33, 8.82 26.04 C 8.82 25.259999999999998, 8.67 25.395, 8.82 24.48 C 9.120000000000001 23.43, 9.120000000000001 23.22, 9.42 22.38 C 9.719999999999999 21.75, 9.584999999999999 21.78, 10.02 21.12 C 10.59 20.43, 10.485 20.310000000000002, 11.16 19.740000000000002 C 11.940000000000001 19.29, 11.91 19.23, 12.72 18.84 C 13.559999999999999 18.509999999999998, 13.139999999999999 18.465, 14.399999999999999 18.18 C 16.08 17.94, 16.38 17.880000000000003, 17.759999999999998 17.700000000000003 C 18.839999999999996 17.580000000000002, 18.869999999999997 17.55, 19.919999999999998 17.46 C 20.939999999999998 17.4, 21.21 17.37, 21.96 17.34 C 22.439999999999998 17.34, 22.485 17.34, 22.919999999999998 17.34 C 23.310000000000002 17.34, 23.46 17.34, 23.700000000000003 17.34 C 23.79 17.34, 23.835 17.34, 23.88 17.34 L 23.88 17.34" fill="none" stroke="black" stroke-width="5"></path><path d="M 16.080000000000002 3.84 C 15.450000000000001 4.17, 15.48 4.08, 14.82 4.5 C 14.13 5.01, 13.950000000000001 5.025, 13.440000000000001 5.5200000000000005 C 13.11 6, 13.08 5.745000000000001, 12.78 6.48 C 12.51 7.47, 12.36 7.529999999999999, 12.24 8.459999999999999 C 12.27 9.329999999999998, 12.075 9.344999999999999, 12.299999999999999 10.2 C 12.719999999999999 11.04, 12.66 11.174999999999999, 13.14 11.879999999999999 C 13.68 12.45, 13.440000000000001 12.495, 14.22 13.02 C 15.239999999999998 13.5, 15.269999999999998 13.695, 16.259999999999998 13.98 C 17.22 14.07, 17.145 14.145, 18.18 14.16 C 19.29 14.1, 19.394999999999996 14.264999999999999, 20.4 14.04 C 21.3 13.649999999999999, 21.525000000000002 13.815, 22.200000000000003 13.26 C 22.650000000000002 12.54, 22.785000000000004 12.75, 23.1 11.82 C 23.28 10.68, 23.46 10.635000000000002, 23.46 9.540000000000001 C 23.28 8.49, 23.37 8.295, 23.1 7.4399999999999995 C 22.740000000000002 6.779999999999999, 22.814999999999998 6.75, 22.38 6.12 C 21.869999999999997 5.52, 21.945 5.445, 21.36 4.92 C 20.7 4.470000000000001, 20.655 4.335000000000001, 20.04 4.0200000000000005 C 19.47 3.8400000000000003, 19.409999999999997 3.7800000000000002, 18.9 3.66 C 18.45 3.6, 18.495 3.5700000000000003, 18 3.54 C 17.46 3.54, 17.31 3.54, 16.919999999999998 3.54 C 16.68 3.54, 16.560000000000002 3.54, 16.44 3.54 L 16.44 3.54" fill="none" stroke="black" stroke-width="5"></path><path d="M 13.200000000000001 9.18 C 14.16 9.18, 13.815000000000001 9.24, 15.120000000000001 9.18 C 16.77 9.059999999999999, 17.235 9.045, 18.419999999999998 8.94 C 19.14 8.85, 19.185 8.805, 19.86 8.76 C 20.490000000000002 8.76, 20.505000000000003 8.76, 21.12 8.76 C 21.72 8.76, 21.945 8.76, 22.32 8.76 C 22.47 8.76, 22.5 8.76, 22.62 8.76 L 22.799999999999997 8.76" fill="none" stroke="black" stroke-width="5"></path></svg>