<svg width="48" height="48" viewBox="0 0 48 48" xmlns="http://www.w3.org/2000/svg"><path d="M 16.259999999999998 39.06 C 15.899999999999999 37.92, 16.095 38.175, 15.54 36.78 C 14.79 35.13, 14.61 34.785000000000004, 14.04 33.480000000000004 C 13.649999999999999 32.52, 13.665 32.504999999999995, 13.26 31.56 C 12.84 30.630000000000003, 12.809999999999999 30.690000000000005, 12.419999999999998 29.700000000000003 C 12.059999999999999 28.65, 11.999999999999998 28.455, 11.7 27.599999999999998 C 11.46 26.939999999999998, 11.370000000000001 26.925, 11.22 26.28 C 11.16 25.65, 11.220000000000002 25.53, 11.100000000000001 25.02 C 10.920000000000002 24.630000000000003, 10.83 24.630000000000003, 10.74 24.240000000000002 C 10.74 23.85, 10.74 23.85, 10.74 23.46 C 10.74 23.07, 10.74 23.1, 10.74 22.68 C 10.74 22.23, 10.605 22.26, 10.74 21.78 C 11.01 21.27, 11.07 21.134999999999998, 11.28 20.759999999999998 C 11.43 20.52, 11.205 20.64, 11.58 20.28 C 12.18 19.8, 12.135 19.68, 12.78 19.32 C 13.469999999999999 19.08, 13.245 19.065, 14.16 18.84 C 15.3 18.63, 15.465000000000002 18.555, 16.44 18.419999999999998 C 17.25 18.36, 16.935 18.33, 18.06 18.299999999999997 C 19.5 18.299999999999997, 19.650000000000002 18.299999999999997, 20.94 18.299999999999997 C 22.08 18.299999999999997, 22.154999999999998 18.284999999999997, 23.22 18.299999999999997 C 24.21 18.33, 24.705000000000002 18.345, 25.200000000000003 18.36 C 25.200000000000003 18.36, 25.200000000000003 18.36, 25.200000000000003 18.36 L 25.200000000000003 18.36" fill="none" stroke="black" stroke-width="5"></path><path d="M 14.46 4.4399999999999995 C 13.770000000000001 4.859999999999999, 13.785000000000002 4.53, 13.080000000000002 5.28 C 12.360000000000001 6.359999999999999, 12.030000000000001 6.404999999999999, 11.64 7.4399999999999995 C 11.58 8.43, 11.415 8.55, 11.52 9.42 C 11.79 10.17, 11.444999999999999 10.11, 12.059999999999999 10.92 C 13.02 11.79, 12.93 11.91, 13.98 12.66 C 15.12 13.29, 14.984999999999998 13.499999999999998, 16.259999999999998 13.919999999999998 C 17.67 14.129999999999999, 18.015 14.235, 19.080000000000002 14.34 C 19.8 14.34, 19.785 14.49, 20.52 14.34 C 21.27 14.04, 21.39 14.175, 22.02 13.74 C 22.53 13.170000000000002, 22.724999999999998 13.095000000000002, 23.04 12.600000000000001 C 23.16 12.18, 23.22 12.195, 23.28 11.76 C 23.28 11.309999999999999, 23.295 11.43, 23.28 10.86 C 23.25 10.17, 23.445 10.245000000000001, 23.22 9.48 C 22.799999999999997 8.64, 22.89 8.58, 22.38 7.800000000000001 C 21.78 7.08, 21.855 6.9750000000000005, 21.18 6.36 C 20.43 5.85, 20.37 5.745, 19.68 5.34 C 19.049999999999997 5.04, 19.049999999999997 4.95, 18.419999999999998 4.74 C 17.79 4.62, 17.835 4.605, 17.16 4.5 C 16.44 4.41, 16.23 4.365, 15.72 4.32 C 15.420000000000002 4.32, 15.435 4.23, 15.120000000000001 4.32 C 14.790000000000001 4.5, 14.835 4.365, 14.46 4.68 L 13.620000000000001 5.58" fill="none" stroke="black" stroke-width="5"></path><path d="M 11.16 10.620000000000001 C 11.61 10.920000000000002, 11.069999999999999 11.13, 12.059999999999999 11.22 C 13.59 11.100000000000001, 13.785 11.040000000000001, 15.120000000000001 10.98 C 16.259999999999998 10.98, 16.29 11.07, 17.4 10.98 C 18.479999999999997 10.8, 18.57 10.71, 19.56 10.620000000000001 C 20.46 10.620000000000001, 20.64 10.605, 21.36 10.620000000000001 C 21.9 10.65, 22.095 10.665, 22.44 10.68 C 22.590000000000003 10.68, 22.590000000000003 10.68, 22.740000000000002 10.68 C 22.89 10.68, 22.965 10.68, 23.04 10.68 L 23.04 10.68" fill="none" stroke="black" stroke-width="5"></path><path d="M 13.620000000000001 39.900000000000006 C 13.8 39.870000000000005, 13.65 39.839999999999996, 13.98 39.839999999999996 C 14.46 39.870000000000005, 14.07 39.93000000000001, 14.940000000000001 39.900000000000006 C 16.200000000000003 39.81, 16.41 39.825, 17.46 39.72 C 18.3 39.6, 18.12 39.58500000000001, 19.14 39.480000000000004 C 20.34 39.39, 20.58 39.375, 21.54 39.3 C 22.259999999999998 39.239999999999995, 22.11 39.3, 22.98 39.18 C 24 39, 24.48 38.91, 25.02 38.82 C 25.08 38.82, 25.11 38.82, 25.14 38.82 L 25.14 38.82" fill="none" stroke="black" stroke-width="5"></path></svg>