<svg width="48" height="48" viewBox="0 0 48 48" xmlns="http://www.w3.org/2000/svg"><path d="M 15.36 29.759999999999998 C 15.809999999999999 29.82, 15.434999999999999 29.745000000000005, 16.259999999999998 29.880000000000003 C 17.46 30.09, 17.475 30.195, 18.66 30.299999999999997 C 19.83 30.299999999999997, 19.425 30.299999999999997, 21 30.299999999999997 C 22.98 30.299999999999997, 23.175 30.299999999999997, 24.96 30.299999999999997 C 26.55 30.299999999999997, 26.67 30.345, 28.14 30.299999999999997 C 29.49 30.209999999999997, 29.774999999999995 30.254999999999995, 30.839999999999996 30.119999999999997 C 31.62 29.939999999999998, 31.740000000000002 30.014999999999997, 32.400000000000006 29.759999999999998 C 32.940000000000005 29.43, 33.105000000000004 29.595, 33.480000000000004 29.099999999999998 C 33.690000000000005 28.439999999999998, 33.705000000000005 28.575, 33.900000000000006 27.78 C 34.08 26.85, 34.2 27.075000000000003, 34.26 25.92 C 34.2 24.54, 34.26 24.435000000000002, 34.14 23.16 C 33.96 21.990000000000002, 34.065 22.005000000000003, 33.78 20.82 C 33.39 19.619999999999997, 33.51 20.174999999999997, 33 18.419999999999998 C 32.370000000000005 16.11, 32.445 15.959999999999999, 31.740000000000002 13.799999999999999 C 30.96 11.79, 30.855 11.489999999999998, 30.18 9.78 C 29.61 8.37, 29.52 8.159999999999998, 29.04 6.959999999999999 C 28.65 5.969999999999999, 28.604999999999997 5.7749999999999995, 28.259999999999998 4.9799999999999995 C 27.96 4.38, 27.810000000000002 4.08, 27.660000000000004 3.7800000000000002 C 27.660000000000004 3.7800000000000002, 27.660000000000004 3.7800000000000002, 27.660000000000004 3.7800000000000002 L 27.660000000000004 3.7800000000000002" fill="none" stroke="black" stroke-width="5"></path><path d="M 23.16 11.7 C 22.41 11.76, 22.455 11.445, 21.66 11.82 C 20.82 12.510000000000002, 20.565 12.120000000000001, 19.98 13.200000000000001 C 19.65 14.670000000000002, 19.515 14.82, 19.32 16.14 C 19.26 17.310000000000002, 19.200000000000003 17.205, 19.200000000000003 18.48 C 19.26 19.86, 19.05 20.025000000000002, 19.32 21.240000000000002 C 19.8 22.29, 19.62 22.53, 20.28 23.34 C 21.12 23.91, 21.150000000000002 24.195, 21.96 24.48 C 22.740000000000002 24.48, 22.755 24.735, 23.52 24.48 C 24.27 23.97, 24.33 24.075000000000003, 25.02 23.46 C 25.65 22.740000000000002, 25.785 22.95, 26.28 22.02 C 26.64 20.880000000000003, 26.73 20.880000000000003, 27 19.740000000000002 C 27.18 18.6, 27.27 18.42, 27.36 17.46 C 27.36 16.68, 27.45 16.724999999999998, 27.36 15.899999999999999 C 27.18 15.03, 27.299999999999997 14.879999999999999, 27 14.16 C 26.580000000000002 13.59, 26.67 13.515, 26.160000000000004 13.02 C 25.560000000000002 12.6, 25.455000000000002 12.45, 24.96 12.18 C 24.57 12.059999999999999, 24.57 12.045, 24.18 11.94 C 23.79 11.85, 23.834999999999997 11.805, 23.4 11.76 C 22.92 11.76, 22.68 11.76, 22.44 11.76 L 22.44 11.76" fill="none" stroke="black" stroke-width="5"></path><path d="M 19.32 19.32 C 20.369999999999997 19.32, 20.474999999999998 19.35, 21.419999999999998 19.32 C 22.259999999999998 19.26, 22.14 19.290000000000003, 23.1 19.200000000000003 C 24.18 19.080000000000002, 24.419999999999998 19.020000000000003, 25.259999999999998 18.96 C 25.86 18.96, 26.07 18.96, 26.46 18.96 C 26.64 18.96, 26.58 18.96, 26.82 18.96 L 27.42 18.96" fill="none" stroke="black" stroke-width="5"></path><path d="M 17.1 38.64 C 18.69 38.64, 18.6 38.685, 20.28 38.64 C 22.05 38.55, 22.23 38.505, 23.82 38.46 C 25.23 38.46, 25.14 38.52, 26.64 38.46 C 28.23 38.34, 28.425 38.28, 29.82 38.22 C 31.02 38.22, 31.38 38.205, 32.22 38.22 C 32.7 38.25, 32.864999999999995 38.265, 33.18 38.28 C 33.33 38.28, 33.37500000000001 38.28, 33.480000000000004 38.28 L 33.599999999999994 38.28" fill="none" stroke="black" stroke-width="5"></path></svg>