<svg width="48" height="48" viewBox="0 0 48 48" xmlns="http://www.w3.org/2000/svg"><path d="M 14.580000000000002 3.96 C 14.340000000000002 4.5600000000000005, 14.715000000000002 3.5700000000000003, 14.100000000000001 5.16 C 13.110000000000001 7.74, 12.975000000000001 7.845000000000001, 12.120000000000001 10.32 C 11.4 12.69, 11.175 12.69, 10.68 15.059999999999999 C 10.41 17.43, 10.275 17.834999999999997, 10.14 19.799999999999997 C 10.14 21.36, 9.885000000000002 21.869999999999997, 10.14 22.919999999999998 C 10.65 23.46, 10.635 23.669999999999998, 11.16 24 C 11.7 24.12, 11.385 24.51, 12.24 24.240000000000002 C 13.41 23.58, 13.680000000000001 23.549999999999997, 14.580000000000002 22.919999999999998 C 15.21 22.32, 15.225000000000001 22.485, 15.84 21.72 C 16.439999999999998 20.79, 16.425 20.91, 17.04 19.86 C 17.669999999999998 18.689999999999998, 17.909999999999997 18.509999999999998, 18.299999999999997 17.52 C 18.45 16.71, 18.51 16.349999999999998, 18.6 15.899999999999999 C 18.630000000000003 15.809999999999999, 18.555 15.57, 18.66 15.72 C 18.84 16.11, 18.825 15.78, 19.02 16.5 C 19.23 17.55, 19.035 17.565, 19.44 18.6 C 20.04 19.62, 19.92 19.650000000000002, 20.64 20.64 C 21.48 21.6, 21.615000000000002 21.945, 22.32 22.56 C 22.89 22.83, 22.635 22.965, 23.46 23.1 C 24.54 23.1, 24.584999999999997 23.19, 25.619999999999997 23.1 C 26.61 22.92, 26.699999999999996 22.935000000000002, 27.599999999999998 22.740000000000002 C 28.409999999999997 22.53, 28.619999999999997 22.44, 29.22 22.32 C 29.61 22.29, 29.685 22.275, 30 22.259999999999998 C 30.240000000000002 22.259999999999998, 30.314999999999998 22.29, 30.48 22.259999999999998 L 30.660000000000004 22.14" fill="none" stroke="black" stroke-width="5"></path><path d="M 24.72 5.1 C 24.119999999999997 5.1, 24.119999999999997 4.965, 23.52 5.1 C 22.92 5.369999999999999, 23.04 5.1, 22.32 5.64 C 21.48 6.449999999999999, 21.495 6.06, 20.64 7.26 C 19.77 8.85, 19.335 9.254999999999999, 18.9 10.44 C 18.9 11.219999999999999, 18.555 11.04, 18.9 12 C 19.59 13.14, 19.425 13.395, 20.28 14.28 C 21.3 14.91, 21.345 15.194999999999999, 22.32 15.54 C 23.25 15.6, 23.175 15.87, 24.18 15.66 C 25.259999999999998 15.18, 25.484999999999996 15.330000000000002, 26.339999999999996 14.700000000000001 C 26.97 13.920000000000002, 27.209999999999997 13.815000000000001, 27.599999999999998 13.14 C 27.75 12.57, 27.78 12.735, 27.900000000000002 12 C 27.990000000000002 11.1, 28.064999999999998 11.084999999999999, 28.08 10.2 C 28.02 9.329999999999998, 28.215 9.315, 27.96 8.459999999999999 C 27.509999999999998 7.619999999999999, 27.45 7.424999999999999, 27.06 6.779999999999999 C 26.73 6.33, 26.700000000000003 6.194999999999999, 26.400000000000002 5.88 C 26.130000000000003 5.7, 26.22 5.640000000000001, 25.86 5.5200000000000005 C 25.41 5.460000000000001, 25.380000000000003 5.415000000000001, 24.96 5.4 C 24.57 5.43, 24.42 5.415, 24.18 5.46 L 24 5.58" fill="none" stroke="black" stroke-width="5"></path><path d="M 18.72 10.56 C 19.259999999999998 10.68, 19.184999999999995 10.74, 19.799999999999997 10.8 C 20.49 10.8, 20.085 10.755, 21.18 10.8 C 22.68 10.89, 22.905 10.935, 24.18 10.98 C 25.23 10.98, 25.545 10.98, 26.28 10.98 C 26.7 10.98, 26.865 10.98, 27.119999999999997 10.98 L 27.299999999999997 10.98" fill="none" stroke="black" stroke-width="5"></path><path d="M 24.48 22.86 C 24.509999999999998 23.76, 24.494999999999997 23.760000000000005, 24.54 24.660000000000004 C 24.6 25.560000000000002, 24.660000000000004 25.185000000000002, 24.660000000000004 26.46 C 24.6 28.11, 24.78 27.93, 24.54 29.759999999999998 C 24.12 31.77, 24.180000000000003 31.815, 23.700000000000003 33.78 C 23.160000000000004 35.7, 23.115000000000002 36.18, 22.62 37.62 C 22.17 38.58, 22.335 38.535, 21.72 39.54 C 20.939999999999998 40.59, 21.18 40.605000000000004, 20.16 41.64 C 18.9 42.66, 18.735 42.93, 17.64 43.68 C 16.71 44.16, 16.455 44.295, 15.78 44.64 C 15.36 44.85, 15.15 44.955, 14.940000000000001 45.06 L 14.940000000000001 45.06" fill="none" stroke="black" stroke-width="5"></path></svg>