<svg width="48" height="48" viewBox="0 0 48 48" xmlns="http://www.w3.org/2000/svg"><path d="M 12.66 2.94 C 12.18 4.23, 12.375 3.7800000000000007, 11.7 5.5200000000000005 C 10.829999999999998 7.709999999999999, 10.785 7.364999999999998, 9.959999999999999 9.899999999999999 C 9.18 12.78, 8.834999999999997 12.93, 8.399999999999999 15.66 C 8.309999999999999 18.240000000000002, 8.100000000000001 18.509999999999998, 8.22 20.82 C 8.55 22.86, 8.445 23.325000000000003, 8.879999999999999 24.900000000000002 C 9.419999999999998 26.009999999999998, 9.374999999999998 26.354999999999997, 9.959999999999999 27.119999999999997 C 10.59 27.54, 10.530000000000001 27.645, 11.22 27.96 C 11.97 28.17, 11.91 28.665000000000003, 12.72 28.380000000000003 C 13.59 27.6, 13.860000000000001 27.810000000000002, 14.46 26.82 C 14.790000000000001 25.62, 14.895000000000001 25.380000000000003, 15.120000000000001 24.42 C 15.24 23.700000000000003, 15.285 23.385, 15.36 22.98 C 15.389999999999999 22.89, 15.359999999999998 22.845, 15.419999999999998 22.799999999999997 C 15.51 22.799999999999997, 15.48 22.439999999999998, 15.600000000000001 22.799999999999997 C 15.75 23.52, 15.555 23.385, 15.899999999999999 24.240000000000002 C 16.439999999999998 25.23, 16.425 25.424999999999997, 16.98 26.22 C 17.55 26.82, 17.025000000000002 26.895000000000003, 18.12 27.42 C 19.740000000000002 27.87, 19.68 28.14, 21.36 28.32 C 23.099999999999998 28.23, 23.354999999999997 28.365000000000002, 24.839999999999996 28.14 C 26.069999999999997 27.78, 26.354999999999997 27.705000000000002, 27.299999999999997 27.42 C 27.959999999999997 27.21, 28.244999999999997 27.15, 28.619999999999997 27 C 28.709999999999997 26.91, 28.754999999999995 26.865000000000002, 28.799999999999997 26.82 L 28.799999999999997 26.82" fill="none" stroke="black" stroke-width="5"></path><path d="M 20.94 6.720000000000001 C 20.25 6.9, 20.294999999999998 6.6450000000000005, 19.56 7.08 C 18.78 7.77, 18.72 7.484999999999999, 18 8.459999999999999 C 17.34 9.719999999999999, 17.04 9.63, 16.68 10.98 C 16.619999999999997 12.42, 16.334999999999997 12.629999999999999, 16.56 13.86 C 17.07 14.879999999999999, 16.725 14.985, 17.580000000000002 15.899999999999999 C 18.78 16.71, 18.705000000000002 17.04, 19.98 17.52 C 21.33 17.67, 21.48 17.835, 22.68 17.82 C 23.73 17.64, 23.97 17.880000000000003, 24.78 17.46 C 25.35 16.8, 25.545 16.815, 25.92 16.14 C 26.1 15.45, 26.145000000000003 15.465, 26.28 14.76 C 26.37 14.04, 26.415 14.01, 26.46 13.32 C 26.46 12.66, 26.580000000000002 12.705, 26.46 12 C 26.22 11.25, 26.325000000000003 11.16, 25.98 10.5 C 25.53 9.93, 25.56 9.885, 25.08 9.36 C 24.57 8.879999999999999, 24.479999999999997 8.79, 24.06 8.399999999999999 C 23.729999999999997 8.1, 23.729999999999997 8.055, 23.4 7.800000000000001 C 23.07 7.59, 23.220000000000002 7.5600000000000005, 22.740000000000002 7.38 C 22.11 7.23, 22.065 7.155, 21.48 7.08 C 20.939999999999998 7.08, 20.79 7.08, 20.4 7.08 L 19.919999999999998 7.08" fill="none" stroke="black" stroke-width="5"></path><path d="M 16.02 13.02 C 17.04 12.99, 16.965 13.020000000000001, 18.06 12.96 C 19.229999999999997 12.870000000000001, 19.08 12.915, 20.4 12.78 C 21.869999999999997 12.599999999999998, 22.29 12.554999999999998, 23.34 12.419999999999998 C 23.97 12.329999999999998, 24.134999999999998 12.285, 24.599999999999998 12.24 C 24.9 12.24, 24.930000000000003 12.225000000000001, 25.200000000000003 12.24 C 25.44 12.27, 25.560000000000002 12.285, 25.68 12.299999999999999 C 25.68 12.299999999999999, 25.68 12.299999999999999, 25.68 12.299999999999999 L 25.68 12.299999999999999" fill="none" stroke="black" stroke-width="5"></path><path d="M 21 35.64 C 20.189999999999998 35.64, 20.384999999999998 35.565, 19.38 35.64 C 18.18 35.79, 17.97 35.655, 16.98 35.94 C 16.2 36.36, 16.08 36.06, 15.419999999999998 36.78 C 14.879999999999999 37.8, 14.715 37.86, 14.34 38.82 C 14.129999999999999 39.72, 14.024999999999999 39.735, 13.919999999999998 40.62 C 13.919999999999998 41.489999999999995, 13.754999999999997 41.595, 13.919999999999998 42.36 C 14.25 43.019999999999996, 14.175 43.08, 14.580000000000002 43.68 C 15.06 44.22, 14.745000000000001 44.265, 15.54 44.76 C 16.65 45.21, 16.424999999999997 45.45, 17.759999999999998 45.660000000000004 C 19.32 45.629999999999995, 19.409999999999997 45.885, 20.88 45.599999999999994 C 22.259999999999998 45.059999999999995, 22.575 45.11999999999999, 23.64 44.519999999999996 C 24.39 43.86, 24.675 43.77, 25.14 43.2 C 25.32 42.72, 25.380000000000003 42.93000000000001, 25.5 42.24 C 25.56 41.34, 25.799999999999997 41.355, 25.619999999999997 40.44 C 25.2 39.51, 25.215 39.315, 24.78 38.58 C 24.33 38.04, 24.36 37.95, 23.88 37.5 C 23.369999999999997 37.14, 23.31 37.065, 22.86 36.78 C 22.47 36.57, 22.560000000000002 36.555, 22.080000000000002 36.36 C 21.51 36.18, 21.375 36.09, 20.94 36 C 20.64 36, 20.490000000000002 36, 20.34 36 L 20.34 36" fill="none" stroke="black" stroke-width="5"></path></svg>