<svg width="48" height="48" viewBox="0 0 48 48" xmlns="http://www.w3.org/2000/svg"><path d="M 15.96 15.299999999999999 C 16.560000000000002 15.39, 15.84 15.435, 17.16 15.48 C 19.200000000000003 15.48, 19.425 15.435, 21.240000000000002 15.48 C 22.830000000000002 15.57, 23.040000000000003 15.615, 24.42 15.66 C 25.59 15.66, 25.905 15.66, 26.759999999999998 15.66 C 27.299999999999997 15.66, 27.344999999999995 15.615, 27.839999999999996 15.66 C 28.29 15.75, 28.185000000000002 15.690000000000001, 28.740000000000002 15.84 C 29.4 16.049999999999997, 29.52 16.005, 30.06 16.259999999999998 C 30.48 16.56, 30.48 16.395, 30.900000000000002 16.86 C 31.32 17.490000000000002, 31.365000000000002 17.22, 31.740000000000002 18.12 C 32.07000000000001 19.29, 32.160000000000004 19.335, 32.400000000000006 20.46 C 32.550000000000004 21.54, 32.580000000000005 21.150000000000002, 32.7 22.62 C 32.790000000000006 24.479999999999997, 32.835 24.629999999999995, 32.88 26.339999999999996 C 32.88 27.9, 32.88 28.05, 32.88 29.46 C 32.88 30.72, 32.88 31.095, 32.88 31.98 C 32.88 32.49, 32.88 32.265, 32.88 33 C 32.88 33.96, 32.925000000000004 33.96, 32.88 34.92 C 32.790000000000006 35.879999999999995, 32.790000000000006 35.94, 32.7 36.839999999999996 C 32.61 37.67999999999999, 32.625 37.85999999999999, 32.519999999999996 38.519999999999996 C 32.4 39, 32.46 38.865, 32.28 39.480000000000004 C 32.04 40.230000000000004, 32.06999999999999 40.290000000000006, 31.799999999999997 40.980000000000004 C 31.5 41.61, 31.515 41.760000000000005, 31.200000000000003 42.24 C 30.87 42.57000000000001, 30.96 42.55500000000001, 30.54 42.900000000000006 C 30.03 43.260000000000005, 29.939999999999998 43.379999999999995, 29.52 43.62 C 29.189999999999998 43.739999999999995, 29.22 43.8, 28.86 43.86 C 28.47 43.86, 28.544999999999998 43.935, 28.08 43.86 C 27.54 43.71, 27.525 43.77, 27 43.56 C 26.490000000000002 43.29, 26.4 43.364999999999995, 25.98 43.019999999999996 C 25.65 42.599999999999994, 25.755 42.945, 25.32 42.18 C 24.78 41.07, 24.630000000000003 40.89, 24.240000000000002 39.96 C 24 39.21, 23.924999999999997 39.54, 23.759999999999998 38.46 C 23.67 37.05, 23.625 37.02, 23.580000000000002 35.64 C 23.580000000000002 34.29, 23.580000000000002 33.825, 23.580000000000002 32.94 C 23.580000000000002 32.519999999999996, 23.580000000000002 32.60999999999999, 23.580000000000002 32.099999999999994 C 23.580000000000002 31.5, 23.580000000000002 31.2, 23.580000000000002 30.900000000000002 L 23.580000000000002 30.900000000000002" fill="none" stroke="black" stroke-width="5"></path><path d="M 24.18 2.04 C 23.07 2.73, 22.89 2.775, 21.96 3.42 C 21.21 4.02, 21.045 3.7800000000000002, 20.46 4.62 C 20.04 5.699999999999999, 19.830000000000002 5.7299999999999995, 19.62 6.779999999999999 C 19.62 7.8, 19.44 7.77, 19.62 8.82 C 19.98 9.9, 19.995 10.23, 20.34 10.98 C 20.67 11.4, 20.175 11.370000000000001, 21 11.82 C 22.32 12.3, 22.485 12.495, 23.64 12.78 C 24.63 12.870000000000001, 24.735 13.170000000000002, 25.619999999999997 12.96 C 26.4 12.45, 26.61 12.51, 27.18 11.94 C 27.54 11.309999999999999, 27.6 11.58, 27.900000000000002 10.68 C 28.14 9.51, 28.26 9.48, 28.380000000000003 8.34 C 28.380000000000003 7.23, 28.53 7.095000000000001, 28.380000000000003 6.12 C 28.080000000000002 5.279999999999999, 28.185000000000002 5.22, 27.78 4.4399999999999995 C 27.27 3.7199999999999998, 27.195 3.4499999999999997, 26.759999999999998 3 C 26.4 2.8200000000000003, 26.685 2.7600000000000002, 26.04 2.64 C 25.11 2.58, 24.975 2.535, 24.18 2.52 C 23.52 2.55, 23.265 2.52, 22.86 2.58 L 22.56 2.7600000000000002" fill="none" stroke="black" stroke-width="5"></path><path d="M 19.38 7.62 C 19.799999999999997 7.68, 19.29 7.5600000000000005, 20.22 7.74 C 21.66 8.04, 21.48 8.1, 23.1 8.34 C 24.900000000000002 8.52, 25.575000000000003 8.565, 26.700000000000003 8.7 C 27.15 8.79, 27.299999999999997 8.834999999999999, 27.599999999999998 8.879999999999999 C 27.75 8.879999999999999, 27.78 8.879999999999999, 27.900000000000002 8.879999999999999 C 27.990000000000002 8.879999999999999, 28.005 8.879999999999999, 28.08 8.879999999999999 C 28.14 8.879999999999999, 28.095000000000002 8.879999999999999, 28.200000000000003 8.879999999999999 L 28.5 8.879999999999999" fill="none" stroke="black" stroke-width="5"></path></svg>