<svg width="48" height="48" viewBox="0 0 48 48" xmlns="http://www.w3.org/2000/svg"><path d="M 10.02 33.900000000000006 C 10.17 33.900000000000006, 9.9 33.900000000000006, 10.32 33.900000000000006 C 11.01 33.900000000000006, 10.575 33.855000000000004, 11.7 33.900000000000006 C 13.26 33.99, 13.41 33.9, 14.82 34.08 C 16.08 34.349999999999994, 16.41 34.28999999999999, 17.34 34.62 C 17.939999999999998 35.010000000000005, 17.91 34.86000000000001, 18.54 35.400000000000006 C 19.2 36.09, 19.395 35.865, 19.86 36.78 C 20.13 37.92, 20.265 38.13, 20.4 39.06 C 20.4 39.78, 20.699999999999996 39.795, 20.4 40.5 C 19.8 41.19, 19.755000000000003 41.370000000000005, 19.200000000000003 41.88 C 18.69 42.21, 18.990000000000002 42.18, 18.18 42.54 C 17.07 42.93, 16.86 43.035, 15.96 43.32 C 15.270000000000001 43.5, 15.345000000000002 43.59, 14.580000000000002 43.68 C 13.74 43.68, 13.44 43.68, 12.899999999999999 43.68 C 12.659999999999998 43.68, 12.734999999999998 43.86, 12.419999999999998 43.68 C 12.03 43.32, 12.045 43.725, 11.64 42.96 C 11.22 41.79, 11.055 41.73, 10.8 40.62 C 10.71 39.56999999999999, 10.665000000000001 39.345, 10.620000000000001 38.519999999999996 C 10.620000000000001 37.92, 10.665000000000001 38.129999999999995, 10.620000000000001 37.32 C 10.530000000000001 36.3, 10.485 36.120000000000005, 10.44 35.28 C 10.44 34.620000000000005, 10.44 34.650000000000006, 10.44 33.96 C 10.44 33.239999999999995, 10.44 33.464999999999996, 10.44 32.519999999999996 C 10.44 31.349999999999998, 10.44 31.365, 10.44 30.18 C 10.44 28.98, 10.424999999999999 28.8, 10.44 27.78 C 10.469999999999999 26.939999999999998, 10.44 27.089999999999996, 10.5 26.099999999999998 C 10.59 24.96, 10.575 24.915, 10.68 23.82 C 10.8 22.77, 10.77 22.725, 10.92 21.72 C 11.1 20.759999999999998, 11.055 20.744999999999997, 11.28 19.799999999999997 C 11.55 18.869999999999997, 11.535 18.765, 11.82 17.94 C 12.12 17.22, 12.194999999999999 16.995, 12.419999999999998 16.5 C 12.57 16.23, 12.435 16.32, 12.72 15.96 C 13.14 15.51, 13.229999999999999 15.329999999999998, 13.559999999999999 15.059999999999999 C 13.799999999999999 14.969999999999999, 13.77 14.924999999999999, 14.04 14.879999999999999 C 14.34 14.879999999999999, 14.370000000000001 14.879999999999999, 14.64 14.879999999999999 C 14.88 14.879999999999999, 14.925 14.879999999999999, 15.120000000000001 14.879999999999999 C 15.27 14.879999999999999, 15.269999999999998 14.864999999999998, 15.419999999999998 14.879999999999999 C 15.57 14.91, 15.495000000000001 14.73, 15.72 14.940000000000001 C 16.02 15.330000000000002, 16.05 15.195, 16.32 15.72 C 16.56 16.38, 16.589999999999996 16.349999999999998, 16.799999999999997 17.04 C 16.979999999999997 17.759999999999998, 17.04 17.805, 17.16 18.48 C 17.22 19.11, 17.175 19.05, 17.28 19.740000000000002 C 17.43 20.490000000000002, 17.415000000000003 20.370000000000005, 17.580000000000002 21.240000000000002 C 17.76 22.23, 17.805 22.515, 17.94 23.22 C 18.03 23.64, 18.045 23.775, 18.12 24.06 C 18.18 24.21, 18.21 24.285, 18.240000000000002 24.36 C 18.240000000000002 24.36, 18.240000000000002 24.375, 18.240000000000002 24.36 C 18.240000000000002 24.33, 18.195000000000004 24.554999999999996, 18.240000000000002 24.299999999999997 C 18.33 23.82, 18.24 24.06, 18.419999999999998 23.34 C 18.689999999999998 22.38, 18.75 22.214999999999996, 18.96 21.419999999999998 C 19.11 20.79, 19.095 20.7, 19.259999999999998 20.16 C 19.439999999999998 19.71, 19.41 19.769999999999996, 19.62 19.259999999999998 C 19.86 18.689999999999998, 19.740000000000002 18.645, 20.1 18.12 C 20.58 17.64, 20.474999999999998 17.58, 21.06 17.16 C 21.75 16.8, 21.630000000000003 16.770000000000003, 22.44 16.44 C 23.369999999999997 16.14, 23.49 16.005, 24.299999999999997 15.84 C 24.99 15.809999999999999, 24.93 15.78, 25.68 15.78 C 26.49 15.809999999999999, 26.699999999999996 15.75, 27.299999999999997 15.84 C 27.689999999999998 15.99, 27.554999999999996 15.765, 28.08 16.14 C 28.740000000000002 16.740000000000002, 28.845000000000002 16.59, 29.400000000000002 17.34 C 29.85 18.240000000000002, 29.88 18.075, 30.299999999999997 19.14 C 30.689999999999998 20.37, 30.764999999999997 20.310000000000002, 31.08 21.6 C 31.32 22.95, 31.365 22.935, 31.56 24.299999999999997 C 31.71 25.68, 31.785 25.514999999999997, 31.86 27.06 C 31.86 28.77, 31.905 28.755, 31.86 30.48 C 31.77 32.22, 31.785 32.445, 31.68 33.96 C 31.560000000000002 35.25, 31.590000000000003 35.489999999999995, 31.44 36.54 C 31.259999999999998 37.35, 31.259999999999998 37.32, 31.08 38.160000000000004 C 30.9 39.03, 30.9 39.075, 30.72 39.900000000000006 C 30.54 40.68000000000001, 30.525 40.815, 30.36 41.46 C 30.21 41.97, 30.134999999999998 42.150000000000006, 30.06 42.480000000000004 C 30.06 42.63, 30.06 42.705, 30.06 42.78 C 30.06 42.78, 30.06 42.78, 30.06 42.78 C 30.06 42.78, 30.06 42.78, 30.06 42.78 C 30.06 42.78, 30.06 42.78, 30.06 42.78 L 30.06 42.78" fill="none" stroke="black" stroke-width="5"></path><path d="M 21.419999999999998 3.06 C 20.43 3, 20.325000000000003 2.94, 19.44 2.94 C 18.66 3, 18.6 2.505, 17.88 3.06 C 17.22 4.11, 17.025 4.23, 16.56 5.16 C 16.29 5.97, 16.185 5.7749999999999995, 16.02 6.779999999999999 C 15.959999999999999 7.9799999999999995, 15.779999999999998 8.1, 15.899999999999999 9.18 C 16.2 10.14, 16.08 10.335, 16.5 11.100000000000001 C 17.04 11.670000000000002, 16.950000000000003 11.685, 17.580000000000002 12.24 C 18.3 12.780000000000001, 18.39 12.99, 19.02 13.32 C 19.560000000000002 13.44, 19.335 13.544999999999998, 20.1 13.559999999999999 C 21.090000000000003 13.469999999999999, 21.21 13.739999999999998, 22.080000000000002 13.379999999999999 C 22.830000000000002 12.75, 22.980000000000004 12.705, 23.580000000000002 12.120000000000001 C 24.03 11.580000000000002, 24.165000000000003 11.595000000000002, 24.48 11.040000000000001 C 24.659999999999997 10.469999999999999, 24.749999999999996 10.68, 24.839999999999996 9.899999999999999 C 24.839999999999996 8.91, 24.899999999999995 9.014999999999999, 24.839999999999996 7.92 C 24.72 6.720000000000001, 24.809999999999995 6.42, 24.599999999999998 5.5200000000000005 C 24.299999999999997 4.92, 24.405 4.845000000000001, 24 4.32 C 23.490000000000002 3.87, 23.475 3.735, 22.98 3.42 C 22.5 3.24, 22.455 3.18, 22.02 3.06 C 21.630000000000003 3, 21.555000000000003 3.0149999999999997, 21.240000000000002 2.94 C 21 2.85, 20.909999999999997 2.805, 20.759999999999998 2.7600000000000002 L 20.64 2.7600000000000002" fill="none" stroke="black" stroke-width="5"></path></svg>