<svg width="48" height="48" viewBox="0 0 48 48" xmlns="http://www.w3.org/2000/svg"><path d="M 20.16 20.46 C 19.8 21.450000000000003, 19.86 21.465000000000003, 19.44 22.44 C 18.96 23.4, 19.02 23.46, 18.48 24.36 C 17.880000000000003 25.2, 17.895000000000003 25.395, 17.28 26.04 C 16.65 26.490000000000002, 16.575 26.67, 16.02 26.94 C 15.54 27.03, 15.645 27.075, 15.059999999999999 27.119999999999997 C 14.37 27.119999999999997, 14.204999999999998 27.209999999999997, 13.68 27.119999999999997 C 13.32 26.939999999999998, 13.47 27.314999999999998, 12.96 26.759999999999998 C 12.3 25.83, 12.120000000000001 25.875, 11.64 24.900000000000002 C 11.34 23.880000000000003, 11.31 23.85, 11.040000000000001 22.86 C 10.8 21.9, 10.71 21.885, 10.56 20.94 C 10.5 20.01, 10.469999999999999 19.815, 10.44 19.080000000000002 C 10.44 18.54, 10.274999999999999 18.495, 10.44 18 C 10.77 17.55, 10.290000000000001 17.67, 11.100000000000001 17.1 C 12.39 16.41, 12.225000000000001 16.395000000000003, 13.68 15.72 C 15.299999999999999 15.059999999999999, 15.284999999999998 14.94, 16.919999999999998 14.399999999999999 C 18.57 13.979999999999999, 18.75 13.814999999999998, 20.22 13.559999999999999 C 21.509999999999998 13.469999999999999, 21.449999999999996 13.424999999999999, 22.799999999999997 13.379999999999999 C 24.209999999999997 13.379999999999999, 24.269999999999996 13.379999999999999, 25.619999999999997 13.379999999999999 C 26.91 13.379999999999999, 27.18 13.334999999999999, 28.200000000000003 13.379999999999999 C 28.950000000000003 13.469999999999999, 29.175000000000004 13.454999999999998, 29.700000000000003 13.559999999999999 C 30 13.68, 29.909999999999997 13.409999999999998, 30.299999999999997 13.799999999999999 C 30.779999999999998 14.46, 30.93 14.040000000000001, 31.259999999999998 15.120000000000001 C 31.439999999999998 16.62, 31.529999999999998 16.335, 31.619999999999997 18.12 C 31.619999999999997 20.189999999999998, 31.799999999999997 20.205, 31.619999999999997 22.259999999999998 C 31.259999999999998 24.299999999999997, 31.53 24.164999999999996, 30.900000000000002 26.339999999999996 C 30 28.65, 30.209999999999997 28.424999999999997, 29.099999999999998 30.96 C 27.78 33.72, 27.765 34.035000000000004, 26.46 36.480000000000004 C 25.17 38.61, 24.75 39.375, 23.88 40.74 C 23.43 41.34, 23.34 41.475, 22.98 41.94 C 22.71 42.269999999999996, 22.62 42.34499999999999, 22.44 42.599999999999994 C 22.35 42.78, 22.305 42.87, 22.259999999999998 42.96 L 22.259999999999998 42.96" fill="none" stroke="black" stroke-width="5"></path></svg>