<svg width="48" height="48" viewBox="0 0 48 48" xmlns="http://www.w3.org/2000/svg"><path d="M 17.16 2.7 C 17.130000000000003 3.48, 17.160000000000004 2.88, 17.1 4.26 C 17.009999999999998 6.24, 16.965 6.525, 16.919999999999998 8.22 C 16.919999999999998 9.63, 16.86 9.63, 16.919999999999998 11.040000000000001 C 17.04 12.45, 17.009999999999998 12.36, 17.16 13.86 C 17.34 15.45, 17.384999999999998 15.569999999999999, 17.52 17.04 C 17.61 18.39, 17.655 18.615000000000002, 17.700000000000003 19.740000000000002 C 17.700000000000003 20.64, 17.700000000000003 21.015, 17.700000000000003 21.54 C 17.700000000000003 21.689999999999998, 17.700000000000003 21.615, 17.700000000000003 21.84 C 17.700000000000003 22.14, 17.775000000000006 22.23, 17.700000000000003 22.44 L 17.4 22.68" fill="none" stroke="black" stroke-width="5"></path><path d="M 27.839999999999996 2.4000000000000004 C 27.93 3.4800000000000004, 27.945 2.7000000000000006, 28.02 4.5600000000000005 C 28.08 7.2, 28.065 7.665, 28.14 9.84 C 28.23 11.55, 28.23 11.865, 28.32 13.26 C 28.41 14.34, 28.41 14.219999999999999, 28.5 15.419999999999998 C 28.59 16.74, 28.634999999999998 16.994999999999997, 28.68 18.06 C 28.68 18.869999999999997, 28.68 18.75, 28.68 19.68 C 28.68 20.73, 28.68 20.970000000000002, 28.68 21.78 C 28.68 22.35, 28.68 22.38, 28.68 22.919999999999998 C 28.68 23.43, 28.68 23.685000000000002, 28.68 23.94 L 28.68 23.94" fill="none" stroke="black" stroke-width="5"></path><path d="M 23.04 11.459999999999999 C 23.04 13.05, 23.025 13.23, 23.04 14.64 C 23.07 15.870000000000001, 23.04 15.855, 23.1 17.1 C 23.19 18.36, 23.235 18.675, 23.28 19.62 C 23.28 20.25, 23.28 19.95, 23.28 20.88 C 23.28 22.11, 23.28 21.975, 23.28 23.34 C 23.28 24.839999999999996, 23.340000000000003 24.989999999999995, 23.28 26.339999999999996 C 23.16 27.54, 23.189999999999998 27.795, 23.04 28.740000000000002 C 22.86 29.43, 22.875 29.25, 22.68 30.119999999999997 C 22.47 31.169999999999998, 22.529999999999998 31.29, 22.259999999999998 32.22 C 21.93 33.03, 22.005000000000003 33.074999999999996, 21.6 33.839999999999996 C 21.12 34.56, 21.225 34.47, 20.64 35.28 C 19.95 36.18, 19.86 36.375, 19.259999999999998 37.08 C 18.75 37.589999999999996, 18.75 37.60499999999999, 18.240000000000002 38.099999999999994 C 17.73 38.58, 17.82 38.505, 17.22 39.06 C 16.53 39.69, 16.38 39.870000000000005, 15.84 40.32 C 15.45 40.59, 15.374999999999998 40.635, 15.059999999999999 40.86 C 14.82 41.04, 14.745000000000001 41.114999999999995, 14.580000000000002 41.22 C 14.49 41.25, 14.565 41.235, 14.399999999999999 41.28 L 13.919999999999998 41.400000000000006" fill="none" stroke="black" stroke-width="5"></path></svg>