<svg width="48" height="48" viewBox="0 0 48 48" xmlns="http://www.w3.org/2000/svg"><path d="M 15.78 38.88 C 15.24 37.290000000000006, 15.285 37.755, 14.700000000000001 35.7 C 14.07 33.18000000000001, 13.950000000000001 32.730000000000004, 13.440000000000001 30.660000000000004 C 13.05 29.040000000000003, 12.915000000000001 28.785000000000004, 12.66 27.42 C 12.54 26.310000000000002, 12.524999999999999 26.205000000000005, 12.419999999999998 25.200000000000003 C 12.329999999999998 24.3, 12.33 24.435, 12.24 23.4 C 12.149999999999999 22.229999999999997, 12.194999999999999 22.2, 12.059999999999999 21.06 C 11.879999999999999 19.95, 11.79 19.544999999999998, 11.7 18.84 C 11.7 18.54, 11.7 18.465000000000003, 11.7 18.240000000000002 C 11.7 18.090000000000003, 11.52 18.21, 11.7 17.94 C 12.059999999999999 17.55, 11.969999999999999 17.445, 12.419999999999998 17.16 C 12.959999999999999 16.979999999999997, 12.945 16.949999999999996, 13.5 16.799999999999997 C 14.07 16.68, 14.16 16.619999999999997, 14.64 16.56 C 15.03 16.56, 14.999999999999998 16.56, 15.419999999999998 16.56 C 15.87 16.56, 15.885 16.56, 16.32 16.56 C 16.740000000000002 16.56, 16.785 16.514999999999997, 17.16 16.56 C 17.490000000000002 16.65, 17.46 16.53, 17.82 16.740000000000002 C 18.21 17.07, 18.3 16.95, 18.6 17.4 C 18.810000000000002 17.97, 18.855 17.939999999999998, 19.02 18.54 C 19.14 19.169999999999998, 19.2 18.884999999999998, 19.259999999999998 19.799999999999997 C 19.259999999999998 21, 19.259999999999998 21.405, 19.259999999999998 22.200000000000003 C 19.259999999999998 22.590000000000003, 19.259999999999998 22.785, 19.259999999999998 22.98 C 19.259999999999998 22.98, 19.259999999999998 23.025000000000002, 19.259999999999998 22.98 C 19.259999999999998 22.89, 19.139999999999997 23.459999999999997, 19.259999999999998 22.799999999999997 C 19.5 21.57, 19.545 21.285, 19.740000000000002 20.34 C 19.89 19.68, 19.814999999999998 19.56, 20.04 19.02 C 20.34 18.6, 20.325000000000003 18.495, 20.64 18.18 C 20.97 17.97, 20.729999999999997 17.985, 21.299999999999997 17.759999999999998 C 22.11 17.52, 22.334999999999997 17.4, 22.919999999999998 17.28 C 23.28 17.28, 23.04 17.28, 23.64 17.28 C 24.48 17.28, 24.54 17.28, 25.32 17.28 C 26.04 17.28, 26.205 17.28, 26.759999999999998 17.28 C 27.15 17.28, 27.314999999999998 17.265, 27.54 17.28 C 27.6 17.310000000000002, 27.540000000000003 17.28, 27.660000000000004 17.34 C 27.840000000000003 17.43, 27.93 17.475, 28.02 17.52 L 28.02 17.52" fill="none" stroke="black" stroke-width="5"></path><path d="M 15.600000000000001 16.799999999999997 C 15.66 15.75, 15.690000000000001 16.005, 15.72 14.700000000000001 C 15.72 13.14, 15.72 13.155000000000001, 15.72 11.58 C 15.72 9.989999999999998, 15.72 9.644999999999998, 15.72 8.399999999999999 C 15.72 7.5, 15.72 7.095000000000001, 15.72 6.6000000000000005 C 15.72 6.51, 15.72 6.465, 15.72 6.42 L 15.72 6.42" fill="none" stroke="black" stroke-width="5"></path><path d="M 24.48 16.740000000000002 C 24.36 14.73, 24.39 14.685000000000002, 24.240000000000002 12.72 C 24.060000000000002 10.8, 23.97 10.5, 23.88 8.879999999999999 C 23.88 7.56, 23.88 7.14, 23.88 6.24 C 23.88 5.76, 23.88 5.5200000000000005, 23.88 5.28 C 23.88 5.28, 23.88 5.28, 23.88 5.28 L 23.88 5.28" fill="none" stroke="black" stroke-width="5"></path><path d="M 13.440000000000001 39.72 C 13.620000000000001 39.66, 13.604999999999999 39.629999999999995, 13.799999999999999 39.599999999999994 C 14.01 39.599999999999994, 13.83 39.644999999999996, 14.22 39.599999999999994 C 14.79 39.51, 13.95 39.51, 15.36 39.42 C 17.61 39.33, 17.85 39.285000000000004, 19.86 39.24 C 21.63 39.24, 22.019999999999996 39.285000000000004, 23.4 39.24 C 24.39 39.150000000000006, 24.795 39.135000000000005, 25.380000000000003 39.06 C 25.560000000000002 39, 25.35 39, 25.740000000000002 38.94 C 26.340000000000003 38.879999999999995, 26.445 38.894999999999996, 26.94 38.82 L 27.72 38.64" fill="none" stroke="black" stroke-width="5"></path><path d="M 11.76 40.32 C 12.24 40.230000000000004, 12.33 40.230000000000004, 12.72 40.14 C 13.02 40.05, 12.765 40.095, 13.32 39.96 C 14.13 39.78, 14.46 39.69, 14.940000000000001 39.599999999999994 C 15.09 39.599999999999994, 15.120000000000001 39.599999999999994, 15.24 39.599999999999994 C 15.329999999999998 39.599999999999994, 15.374999999999998 39.599999999999994, 15.419999999999998 39.599999999999994 L 15.419999999999998 39.599999999999994" fill="none" stroke="black" stroke-width="5"></path><path d="M 13.86 44.339999999999996 C 15.18 44.339999999999996, 15.135 44.339999999999996, 16.5 44.339999999999996 C 17.91 44.339999999999996, 18.15 44.339999999999996, 19.32 44.339999999999996 C 20.25 44.339999999999996, 20.115 44.355, 21.18 44.339999999999996 C 22.380000000000003 44.31, 22.650000000000002 44.325, 23.580000000000002 44.28 C 24.240000000000002 44.22, 24.300000000000004 44.190000000000005, 24.900000000000002 44.160000000000004 C 25.44 44.160000000000004, 25.635 44.160000000000004, 25.98 44.160000000000004 C 26.130000000000003 44.160000000000004, 26.01 44.160000000000004, 26.28 44.160000000000004 C 26.67 44.160000000000004, 26.744999999999997 44.205000000000005, 27.06 44.160000000000004 C 27.299999999999997 44.07000000000001, 27.224999999999998 44.07000000000001, 27.54 43.980000000000004 C 27.93 43.89, 28.125 43.845, 28.32 43.8 L 28.32 43.8" fill="none" stroke="black" stroke-width="5"></path></svg>