<svg width="48" height="48" viewBox="0 0 48 48" xmlns="http://www.w3.org/2000/svg"><path d="M 16.740000000000002 2.58 C 16.740000000000002 2.9400000000000004, 16.71 2.0250000000000004, 16.740000000000002 3.3000000000000003 C 16.8 5.49, 16.755 5.699999999999999, 16.86 7.68 C 17.009999999999998 9.45, 16.98 9.195, 17.16 11.22 C 17.37 13.5, 17.430000000000003 14.174999999999999, 17.580000000000002 15.78 C 17.67 16.71, 17.625 16.695, 17.759999999999998 17.64 C 17.939999999999998 18.6, 17.985 18.72, 18.12 19.56 C 18.21 20.28, 18.255 20.64, 18.299999999999997 21 L 18.299999999999997 21" fill="none" stroke="black" stroke-width="5"></path><path d="M 27.48 2.0999999999999996 C 27.48 3.81, 27.54 2.8200000000000007, 27.48 5.5200000000000005 C 27.36 9.209999999999999, 27.3 9.555, 27.240000000000002 12.899999999999999 C 27.240000000000002 15.899999999999999, 27.225 16.604999999999997, 27.240000000000002 18.9 C 27.27 20.490000000000002, 27.24 20.385, 27.299999999999997 22.080000000000002 C 27.39 23.880000000000003, 27.435 24.78, 27.48 25.68 L 27.48 25.68" fill="none" stroke="black" stroke-width="5"></path><path d="M 22.200000000000003 10.5 C 22.200000000000003 11.25, 22.200000000000003 10.83, 22.200000000000003 12 C 22.200000000000003 13.59, 22.185000000000002 13.575, 22.200000000000003 15.18 C 22.23 16.799999999999997, 22.244999999999997 16.83, 22.259999999999998 18.419999999999998 C 22.259999999999998 19.979999999999997, 22.259999999999998 20.04, 22.259999999999998 21.54 C 22.259999999999998 22.98, 22.259999999999998 23.160000000000004, 22.259999999999998 24.42 C 22.259999999999998 25.5, 22.169999999999998 25.185, 22.259999999999998 26.58 C 22.439999999999998 28.29, 22.47 28.095, 22.62 30 C 22.740000000000002 32.1, 22.755 32.22, 22.86 34.2 C 22.95 36.06, 22.994999999999997 36.33, 23.04 37.92 C 23.04 39.24, 22.994999999999997 39.63, 23.04 40.56 C 23.13 41.1, 23.174999999999997 41.325, 23.22 41.64 C 23.22 41.730000000000004, 23.22 41.745000000000005, 23.22 41.82 L 23.22 41.94" fill="none" stroke="black" stroke-width="5"></path></svg>