<svg width="48" height="48" viewBox="0 0 48 48" xmlns="http://www.w3.org/2000/svg"><path d="M 34.019999999999996 4.86 C 33.72 6.15, 33.72 5.1899999999999995, 33.42 7.4399999999999995 C 33.120000000000005 10.649999999999999, 33.09 11.115, 32.82 13.86 C 32.58 16.14, 32.519999999999996 16.095, 32.339999999999996 18.419999999999998 C 32.22 20.79, 32.23499999999999 20.835, 32.099999999999994 23.16 C 31.949999999999996 25.439999999999998, 31.904999999999994 26.025, 31.799999999999997 27.72 C 31.74 28.83, 31.71 28.635, 31.68 29.94 C 31.68 31.439999999999998, 31.77 31.485, 31.68 32.94 C 31.5 34.349999999999994, 31.515 34.455, 31.32 35.76 C 31.11 36.96, 31.110000000000003 37.185, 30.900000000000002 38.160000000000004 C 30.69 38.910000000000004, 30.84 38.86500000000001, 30.48 39.660000000000004 C 29.97 40.5, 30.09 40.62, 29.46 41.339999999999996 C 28.71 41.94, 28.785 42.015, 27.96 42.54 C 27.060000000000002 42.989999999999995, 27.240000000000002 43.155, 26.160000000000004 43.44 C 24.900000000000002 43.56, 24.825000000000003 43.575, 23.64 43.68 C 22.53 43.769999999999996, 22.589999999999996 43.815, 21.419999999999998 43.86 C 20.189999999999998 43.86, 19.845 43.935, 18.96 43.86 C 18.42 43.71, 18.525 43.995000000000005, 17.88 43.56 C 17.13 42.84, 16.965 42.974999999999994, 16.38 42.12 C 15.959999999999999 41.129999999999995, 15.854999999999999 40.875, 15.54 40.14 C 15.33 39.66, 15.240000000000002 39.54, 15.120000000000001 39.18 C 15.09 38.94, 15.075 38.82, 15.059999999999999 38.7 L 15.059999999999999 38.7" fill="none" stroke="black" stroke-width="5"></path><path d="M 17.22 6.48 l 1 1" fill="none" stroke="black" stroke-width="5"></path><path d="M 17.16 6.959999999999999 C 16.740000000000002 8.79, 16.665 8.97, 16.32 10.620000000000001 C 16.05 12.09, 15.989999999999998 12.165, 15.78 13.559999999999999 C 15.629999999999999 14.88, 15.645 14.790000000000003, 15.48 16.200000000000003 C 15.3 17.700000000000003, 15.345 17.295, 15.120000000000001 19.200000000000003 C 14.850000000000001 21.51, 14.790000000000003 21.765, 14.580000000000002 23.82 C 14.43 25.62, 14.325 26.130000000000003, 14.28 27.42 C 14.34 28.200000000000003, 14.024999999999999 28.065, 14.399999999999999 28.98 C 15.09 30.03, 15 30.345, 15.78 31.08 C 16.65 31.5, 16.215 31.425, 17.52 31.92 C 19.259999999999998 32.49, 19.17 32.775000000000006, 21 33.06 C 22.919999999999998 33.06, 22.994999999999997 33.075, 24.839999999999996 33.06 C 26.61 33.03, 26.85 33.015, 28.380000000000003 33 C 29.67 33, 30.240000000000002 33, 30.96 33 C 31.11 33, 31.139999999999997 33, 31.259999999999998 33 L 31.44 33" fill="none" stroke="black" stroke-width="5"></path><path d="M 23.1 5.9399999999999995 C 22.68 8.07, 22.77 7.619999999999999, 22.259999999999998 10.2 C 21.659999999999997 13.229999999999999, 21.449999999999996 13.304999999999998, 21.06 16.259999999999998 C 20.880000000000003 19.14, 20.790000000000003 19.95, 20.700000000000003 22.02 C 20.700000000000003 23.28, 20.700000000000003 23.91, 20.700000000000003 24.54 L 20.700000000000003 24.54" fill="none" stroke="black" stroke-width="5"></path><path d="M 29.880000000000003 7.08 C 29.22 10.5, 29.055 10.934999999999999, 28.56 13.919999999999998 C 28.23 16.47, 28.185000000000002 16.334999999999997, 27.900000000000002 19.02 C 27.660000000000004 21.840000000000003, 27.540000000000003 22.710000000000004, 27.42 24.660000000000004 C 27.42 25.740000000000002, 27.495000000000005 26.235, 27.42 26.82 L 27.119999999999997 27" fill="none" stroke="black" stroke-width="5"></path></svg>