<svg width="48" height="48" viewBox="0 0 48 48" xmlns="http://www.w3.org/2000/svg"><path d="M 11.34 31.02 C 10.95 29.369999999999997, 10.785 29.34, 10.56 27.72 C 10.5 26.13, 10.469999999999999 25.799999999999997, 10.44 24.54 C 10.44 23.61, 10.44 23.685, 10.44 22.68 C 10.44 21.6, 10.44 21.375, 10.44 20.52 C 10.44 19.89, 10.44 19.769999999999996, 10.44 19.259999999999998 C 10.44 18.869999999999997, 10.305 18.884999999999998, 10.44 18.48 C 10.71 18.060000000000002, 10.455 18.045, 10.98 17.64 C 11.76 17.25, 11.579999999999998 17.235, 12.54 16.86 C 13.68 16.5, 13.844999999999999 16.32, 14.82 16.14 C 15.63 16.14, 15.840000000000002 16.14, 16.44 16.14 C 16.83 16.14, 16.904999999999998 16.14, 17.22 16.14 C 17.46 16.14, 17.430000000000003 16.14, 17.700000000000003 16.14 C 18 16.14, 18 16.14, 18.299999999999997 16.14 C 18.599999999999998 16.14, 18.674999999999997 16.14, 18.9 16.14 C 19.05 16.14, 18.96 15.705000000000002, 19.200000000000003 16.14 C 19.53 17.009999999999998, 19.560000000000002 16.604999999999997, 19.86 17.88 C 20.13 19.560000000000002, 20.25 20.205000000000002, 20.4 21.240000000000002 C 20.43 21.630000000000003, 20.445 21.825, 20.46 22.02 C 20.46 22.02, 20.445 22.08, 20.46 22.02 C 20.490000000000002 21.9, 20.46 22.35, 20.52 21.78 C 20.61 20.76, 20.505000000000003 20.865000000000002, 20.700000000000003 19.740000000000002 C 21 18.51, 20.985 18.150000000000002, 21.299999999999997 17.28 C 21.63 16.77, 21.63 16.575, 21.96 16.259999999999998 C 22.29 16.14, 21.855 16.215, 22.62 16.02 C 23.82 15.75, 23.91 15.615, 25.02 15.48 C 26.04 15.48, 25.95 15.48, 27.06 15.48 C 28.259999999999998 15.48, 28.545 15.48, 29.46 15.48 C 30.09 15.48, 30.195 15.48, 30.72 15.48 C 31.14 15.48, 31.305 15.48, 31.56 15.48 C 31.65 15.48, 31.695 15.48, 31.740000000000002 15.48 L 31.740000000000002 15.48" fill="none" stroke="black" stroke-width="5"></path><path d="M 15.600000000000001 15.899999999999999 C 15.51 15.18, 15.509999999999998 15.75, 15.419999999999998 14.46 C 15.329999999999998 12.600000000000001, 15.285 12.57, 15.24 10.74 C 15.24 8.94, 15.24 8.085, 15.24 7.14 C 15.24 7.049999999999999, 15.24 7.079999999999999, 15.24 6.959999999999999 C 15.24 6.81, 15.24 6.93, 15.24 6.66 C 15.24 6.27, 15.24 6.075, 15.24 5.88 C 15.24 5.88, 15.24 5.88, 15.24 5.88 L 15.24 5.88" fill="none" stroke="black" stroke-width="5"></path><path d="M 27.240000000000002 16.38 C 27.27 15.78, 27.404999999999998 16.53, 27.299999999999997 15.18 C 27.06 13.08, 27.03 12.795, 26.82 10.98 C 26.64 9.45, 26.595 9.06, 26.46 7.92 C 26.37 7.17, 26.325000000000003 7.08, 26.28 6.42 C 26.28 5.85, 26.28 5.565, 26.28 5.28 L 26.28 5.28" fill="none" stroke="black" stroke-width="5"></path><path d="M 20.88 21.84 C 20.88 21.84, 20.88 21.84, 20.88 21.84 C 20.88 21.84, 20.91 21.615, 20.88 21.84 C 20.82 22.29, 20.744999999999997 22.200000000000003, 20.759999999999998 22.740000000000002 C 20.85 23.37, 20.865000000000002 23.145, 20.94 24 C 21 25.080000000000002, 21.03 25.035000000000004, 21.06 26.160000000000004 C 21.06 27.330000000000002, 21.014999999999997 27.330000000000002, 21.06 28.5 C 21.15 29.669999999999998, 21.195 29.714999999999996, 21.240000000000002 30.839999999999996 C 21.240000000000002 31.919999999999998, 21.240000000000002 31.83, 21.240000000000002 33 C 21.240000000000002 34.26, 21.42 34.349999999999994, 21.240000000000002 35.519999999999996 C 20.880000000000003 36.599999999999994, 20.895 36.765, 20.52 37.68 C 20.130000000000003 38.43, 20.355000000000004 38.355, 19.740000000000002 39.18 C 18.9 40.08, 19.335 40.12500000000001, 18.06 40.980000000000004 C 16.35 41.79, 16.32 41.879999999999995, 14.64 42.599999999999994 C 12.99 43.23, 12.36 43.47, 11.34 43.86 C 10.95 44.010000000000005, 10.755 44.085, 10.56 44.160000000000004 L 10.56 44.160000000000004" fill="none" stroke="black" stroke-width="5"></path></svg>