<svg width="48" height="48" viewBox="0 0 48 48" xmlns="http://www.w3.org/2000/svg"><path d="M 12.66 3.9000000000000004 C 12.54 6.99, 12.524999999999999 7.455, 12.419999999999998 10.08 C 12.329999999999998 12.239999999999998, 12.405 12.389999999999999, 12.24 14.399999999999999 C 12 16.259999999999998, 11.925 15.84, 11.76 18.12 C 11.67 20.82, 11.625 21.015, 11.58 23.52 C 11.58 25.83, 11.58 25.98, 11.58 28.14 C 11.58 30.150000000000002, 11.58 30.420000000000005, 11.58 32.160000000000004 C 11.58 33.629999999999995, 11.505 33.959999999999994, 11.58 35.099999999999994 C 11.73 35.91, 11.639999999999999 35.805, 11.879999999999999 36.72 C 12.209999999999999 37.739999999999995, 12.104999999999999 37.935, 12.54 38.76 C 13.08 39.39, 13.23 39.69, 13.620000000000001 40.019999999999996 C 13.860000000000001 40.05, 13.665000000000003 40.065, 14.100000000000001 40.08 C 14.73 40.08, 14.715 40.125, 15.36 40.08 C 16.02 39.99, 15.84 40.2, 16.68 39.900000000000006 C 17.7 39.39, 17.88 39.465, 18.72 38.88 C 19.38 38.22, 19.335 38.25, 20.04 37.56 C 20.79 36.84, 20.564999999999998 36.989999999999995, 21.54 36.12 C 22.740000000000002 35.099999999999994, 22.695 34.86, 23.94 34.08 C 25.23 33.54, 25.215 33.435, 26.52 33 C 27.840000000000003 32.67, 28.095000000000002 32.535, 29.160000000000004 32.339999999999996 C 29.970000000000002 32.28, 30.015 32.19, 30.78 32.22 C 31.5 32.34, 31.56 32.22, 32.22 32.46 C 32.82 32.82, 32.865 32.745, 33.42 33.18 C 33.93 33.69, 34.004999999999995 33.660000000000004, 34.44 34.2 C 34.8 34.769999999999996, 34.95 34.754999999999995, 35.160000000000004 35.339999999999996 C 35.22 35.94, 35.370000000000005 35.805, 35.28 36.54 C 35.04 37.41, 35.175 37.515, 34.8 38.28 C 34.29 38.94, 34.245000000000005 39.029999999999994, 33.78 39.599999999999994 C 33.36 40.08, 33.375 40.260000000000005, 32.94 40.56 C 32.489999999999995 40.68, 33.089999999999996 40.65, 32.04 40.8 C 30.39 40.980000000000004, 29.895000000000003 41.05500000000001, 28.740000000000002 41.160000000000004 C 28.080000000000002 41.19, 27.795 41.205, 27.42 41.22 C 27.330000000000002 41.22, 27.285000000000004 41.22, 27.240000000000002 41.22 L 27.240000000000002 41.22" fill="none" stroke="black" stroke-width="5"></path><path d="M 19.799999999999997 5.58 C 19.89 6.359999999999999, 19.95 5.64, 19.98 7.14 C 19.95 9.36, 19.935 9.510000000000002, 19.919999999999998 11.58 C 19.919999999999998 13.5, 19.919999999999998 13.784999999999998, 19.919999999999998 15.419999999999998 C 19.919999999999998 16.77, 19.919999999999998 16.905, 19.919999999999998 18.12 C 19.919999999999998 19.200000000000003, 19.919999999999998 19.215000000000003, 19.919999999999998 20.28 C 19.919999999999998 21.33, 19.874999999999996 21.33, 19.919999999999998 22.38 C 20.009999999999998 23.43, 20.01 23.835, 20.1 24.48 L 20.28 24.96" fill="none" stroke="black" stroke-width="5"></path><path d="M 29.94 6.36 C 29.94 7.23, 30.150000000000002 6.210000000000002, 29.94 8.100000000000001 C 29.52 11.01, 29.339999999999996 11.639999999999999, 29.099999999999998 13.919999999999998 C 29.04 15.569999999999999, 29.009999999999998 15.854999999999999, 28.98 17.22 C 28.98 18.299999999999997, 28.98 18.224999999999998, 28.98 19.38 C 28.98 20.61, 28.98 20.759999999999998, 28.98 21.84 C 28.98 22.770000000000003, 28.98 23.055000000000003, 28.98 23.700000000000003 C 28.98 24.060000000000002, 28.98 24.240000000000002, 28.98 24.42 L 28.98 24.42" fill="none" stroke="black" stroke-width="5"></path></svg>