<svg width="48" height="48" viewBox="0 0 48 48" xmlns="http://www.w3.org/2000/svg"><path d="M 16.62 36.96 C 16.410000000000004 35.7, 16.590000000000003 36.059999999999995, 16.200000000000003 34.44 C 15.63 32.46, 15.495 32.1, 15.059999999999999 30.48 C 14.76 29.22, 14.745000000000001 29.46, 14.46 27.96 C 14.19 26.22, 14.204999999999998 26.07, 13.919999999999998 24.48 C 13.62 23.04, 13.53 22.86, 13.32 21.6 C 13.200000000000001 20.520000000000003, 13.14 20.175, 13.080000000000002 19.44 C 13.080000000000002 19.05, 13.035000000000002 19.17, 13.080000000000002 18.66 C 13.170000000000002 18.03, 13.08 18.075, 13.26 17.4 C 13.53 16.68, 13.424999999999999 16.5, 13.799999999999999 15.96 C 14.28 15.600000000000001, 14.265 15.510000000000002, 14.76 15.24 C 15.27 15.059999999999999, 14.79 15.059999999999999, 15.78 14.879999999999999 C 17.25 14.7, 17.4 14.61, 18.72 14.52 C 19.89 14.52, 19.979999999999997 14.52, 21.06 14.52 C 22.049999999999997 14.52, 22.125 14.52, 23.04 14.52 C 23.88 14.52, 23.985 14.475, 24.72 14.52 C 25.35 14.61, 25.545 14.64, 25.98 14.700000000000001 C 26.22 14.73, 26.085 14.504999999999999, 26.46 14.76 C 26.97 15.24, 27.060000000000002 15.075000000000001, 27.48 15.72 C 27.810000000000002 16.53, 27.915 16.605, 28.14 17.34 C 28.26 18, 28.32 17.625, 28.380000000000003 18.66 C 28.380000000000003 20.07, 28.380000000000003 20.04, 28.380000000000003 21.48 C 28.380000000000003 22.950000000000003, 28.485000000000003 22.785000000000004, 28.380000000000003 24.42 C 28.17 26.22, 28.155 26.564999999999998, 27.96 28.02 C 27.78 29.130000000000003, 27.779999999999998 28.965000000000003, 27.599999999999998 30.240000000000002 C 27.42 31.68, 27.42 31.949999999999996, 27.240000000000002 33.12 C 27.060000000000002 34.019999999999996, 27.015 34.32, 26.880000000000003 34.92 C 26.790000000000003 35.22, 26.745000000000005 35.294999999999995, 26.700000000000003 35.519999999999996 C 26.700000000000003 35.67, 26.700000000000003 35.745, 26.700000000000003 35.82 C 26.700000000000003 35.82, 26.700000000000003 35.82, 26.700000000000003 35.82 L 26.700000000000003 35.82" fill="none" stroke="black" stroke-width="5"></path><path d="M 18.240000000000002 14.700000000000001 C 18.21 13.68, 18.240000000000002 14.01, 18.18 12.66 C 18.09 10.98, 18.045 11.040000000000001, 18 9.3 C 18 7.5, 18 7.049999999999999, 18 5.699999999999999 C 18 4.8, 18 4.62, 18 3.9000000000000004 C 18 3.3600000000000003, 18 3.195, 18 2.82 C 18 2.6100000000000003, 18 2.6250000000000004, 18 2.4000000000000004 L 18 1.92" fill="none" stroke="black" stroke-width="5"></path><path d="M 23.52 14.940000000000001 C 23.490000000000002 13.38, 23.565 13.440000000000001, 23.46 11.82 C 23.28 10.14, 23.235000000000003 9.959999999999999, 23.1 8.459999999999999 C 23.009999999999998 7.14, 22.965 6.765000000000001, 22.919999999999998 5.82 C 22.919999999999998 5.25, 22.919999999999998 5.295, 22.919999999999998 4.68 C 22.919999999999998 4.02, 22.919999999999998 3.8100000000000005, 22.919999999999998 3.3600000000000003 C 22.919999999999998 3.12, 22.919999999999998 3.03, 22.919999999999998 2.88 L 22.919999999999998 2.7600000000000002" fill="none" stroke="black" stroke-width="5"></path><path d="M 13.74 36.72 C 13.920000000000002 36.9, 13.695000000000002 37.004999999999995, 14.100000000000001 37.08 C 14.73 37.05, 14.745000000000001 37.11, 15.36 37.019999999999996 C 15.959999999999999 36.87, 15.764999999999999 36.885, 16.56 36.72 C 17.549999999999997 36.54, 17.445 36.57, 18.54 36.36 C 19.740000000000002 36.120000000000005, 19.71 36.06, 20.94 35.88 C 22.200000000000003 35.760000000000005, 22.47 35.745000000000005, 23.46 35.64 C 24.18 35.55, 24.21 35.55, 24.900000000000002 35.46 C 25.560000000000002 35.370000000000005, 25.529999999999998 35.325, 26.22 35.28 C 26.94 35.28, 26.940000000000005 35.28, 27.660000000000004 35.28 C 28.380000000000003 35.28, 28.634999999999998 35.28, 29.099999999999998 35.28 C 29.31 35.28, 29.369999999999997 35.28, 29.52 35.28 L 29.700000000000003 35.28" fill="none" stroke="black" stroke-width="5"></path><path d="M 14.22 42 C 15.629999999999999 41.7, 15.569999999999999 41.7, 17.04 41.400000000000006 C 18.57 41.1, 18.6 41.04, 20.1 40.8 C 21.57 40.62, 21.525 40.574999999999996, 23.04 40.44 C 24.6 40.349999999999994, 25.050000000000004 40.305, 26.160000000000004 40.26 C 26.82 40.26, 26.82 40.26, 27.48 40.26 C 28.14 40.26, 28.319999999999997 40.26, 28.799999999999997 40.26 C 29.1 40.26, 29.175 40.26, 29.400000000000002 40.26 C 29.550000000000004 40.26, 29.550000000000004 40.26, 29.700000000000003 40.26 C 29.85 40.26, 29.805 40.214999999999996, 30 40.26 C 30.240000000000002 40.349999999999994, 30.36 40.394999999999996, 30.48 40.44 L 30.48 40.44" fill="none" stroke="black" stroke-width="5"></path></svg>