<svg width="48" height="48" viewBox="0 0 48 48" xmlns="http://www.w3.org/2000/svg"><path d="M 13.559999999999999 2.58 C 13.53 3.6, 13.83 2.61, 13.5 4.62 C 12.870000000000001 7.620000000000001, 12.825 7.365000000000001, 12.24 10.620000000000001 C 11.7 14.13, 11.43 14.760000000000002, 11.16 17.64 C 11.16 19.89, 11.07 19.86, 11.16 22.14 C 11.34 24.45, 11.19 25.02, 11.52 26.759999999999998 C 12 27.93, 11.88 28.334999999999997, 12.48 29.099999999999998 C 13.2 29.46, 13.229999999999999 29.625, 13.919999999999998 29.82 C 14.579999999999998 29.85, 14.34 29.865000000000002, 15.24 29.880000000000003 C 16.38 29.880000000000003, 16.5 30.165000000000003, 17.52 29.880000000000003 C 18.42 29.310000000000002, 18.42 29.760000000000005, 19.32 28.740000000000002 C 20.22 27.27, 20.580000000000002 26.985, 21.12 25.799999999999997 C 21.3 24.9, 21.39 24.78, 21.48 24 C 21.48 23.34, 21.48 23.009999999999998, 21.48 22.68 C 21.48 22.68, 21.45 22.439999999999998, 21.48 22.68 C 21.54 23.16, 21.465000000000003 22.755000000000003, 21.6 23.64 C 21.810000000000002 24.93, 21.645 25.034999999999997, 22.02 26.22 C 22.560000000000002 27.3, 22.395000000000003 27.585, 23.1 28.380000000000003 C 23.97 28.89, 23.775 29.115000000000002, 24.839999999999996 29.400000000000002 C 26.099999999999998 29.46, 25.979999999999997 29.79, 27.36 29.52 C 28.86 28.92, 29.145 28.875, 30.36 28.32 C 31.29 27.81, 31.455 28.169999999999998, 32.22 27.299999999999997 C 32.82 26.069999999999997, 33.105000000000004 26.774999999999995, 33.42 24.839999999999996 C 33.45 22.199999999999996, 33.480000000000004 22.214999999999996, 33.480000000000004 19.56 C 33.45 16.89, 33.55500000000001 16.185000000000002, 33.42 14.22 C 33.18 12.96, 33.269999999999996 13.184999999999999, 32.94 11.7 C 32.519999999999996 9.989999999999998, 32.309999999999995 9.225, 32.099999999999994 8.28 C 32.099999999999994 8.1, 32.129999999999995 8.084999999999999, 32.099999999999994 7.92 L 31.98 7.62" fill="none" stroke="black" stroke-width="5"></path><path d="M 26.58 5.46 C 26.490000000000002 6.75, 26.505000000000003 6.165000000000001, 26.400000000000002 8.040000000000001 C 26.28 10.5, 26.220000000000002 10.830000000000002, 26.160000000000004 12.96 C 26.160000000000004 14.76, 26.160000000000004 15.434999999999999, 26.160000000000004 16.56 C 26.160000000000004 17.009999999999998, 26.160000000000004 17.04, 26.160000000000004 17.46 L 26.160000000000004 18.240000000000002" fill="none" stroke="black" stroke-width="5"></path><path d="M 18.419999999999998 5.34 C 18.24 6.45, 18.404999999999998 5.49, 18.06 7.5600000000000005 C 17.549999999999997 10.59, 17.369999999999997 11.46, 17.04 13.620000000000001 C 16.89 14.910000000000002, 16.815 14.820000000000004, 16.740000000000002 16.200000000000003 C 16.740000000000002 17.67, 16.740000000000002 18.21, 16.740000000000002 19.14 L 16.740000000000002 19.919999999999998" fill="none" stroke="black" stroke-width="5"></path><path d="M 23.1 33.72 C 21.87 33.6, 21.795 33.300000000000004, 20.64 33.480000000000004 C 19.560000000000002 33.96, 19.275 33.81, 18.48 34.44 C 17.97 35.22, 17.82 35.114999999999995, 17.46 36 C 17.25 36.99, 17.115 36.93000000000001, 17.04 37.980000000000004 C 17.1 39.09, 16.8 38.925000000000004, 17.16 40.2 C 17.82 41.64, 17.715 42.03, 18.48 43.08 C 19.35 43.74, 19.215 44.025000000000006, 20.22 44.400000000000006 C 21.36 44.49, 21.435 44.55, 22.5 44.58 C 23.490000000000002 44.55, 23.384999999999998 44.849999999999994, 24.48 44.519999999999996 C 25.68 43.89, 25.815 44.205, 26.880000000000003 43.26 C 27.810000000000002 42, 28.215000000000003 41.805, 28.740000000000002 40.74 C 28.86 39.870000000000005, 29.1 39.825, 28.98 39 C 28.619999999999997 38.22, 28.784999999999997 38.28, 28.259999999999998 37.44 C 27.57 36.54, 27.525000000000002 36.42, 26.880000000000003 35.64 C 26.28 34.980000000000004, 26.355 34.89, 25.68 34.32 C 24.93 33.84, 24.75 33.629999999999995, 24.18 33.36 C 23.79 33.3, 23.985 33.255, 23.4 33.24 C 22.619999999999997 33.269999999999996, 22.275 33.254999999999995, 21.84 33.3 L 21.66 33.42" fill="none" stroke="black" stroke-width="5"></path></svg>