<svg width="48" height="48" viewBox="0 0 48 48" xmlns="http://www.w3.org/2000/svg"><path d="M 14.64 38.04 C 14.64 38.04, 14.925 38.519999999999996, 14.64 38.04 C 14.07 37.08, 14.145 38.235, 13.5 36.12 C 12.78 32.849999999999994, 12.419999999999998 32.55, 12.059999999999999 29.58 C 12.059999999999999 26.91, 12.059999999999999 26.700000000000003, 12.059999999999999 24.240000000000002 C 12.059999999999999 21.990000000000002, 12.044999999999998 21.855000000000004, 12.059999999999999 19.740000000000002 C 12.09 17.76, 12.015 17.82, 12.120000000000001 15.78 C 12.3 13.68, 12.15 13.26, 12.48 11.58 C 12.96 10.32, 12.885000000000002 10.110000000000001, 13.440000000000001 9.06 C 14.07 8.22, 14.265 7.905, 14.700000000000001 7.38 C 14.940000000000001 7.17, 14.73 6.914999999999999, 15.18 6.959999999999999 C 15.84 7.26, 15.96 7.245, 16.5 7.5600000000000005 C 16.92 7.890000000000001, 16.86 7.695, 17.34 8.22 C 17.88 8.940000000000001, 17.939999999999998 8.115, 18.419999999999998 9.66 C 18.839999999999996 12.03, 18.944999999999997 11.864999999999998, 19.259999999999998 14.399999999999999 C 19.47 17.099999999999998, 19.47 17.369999999999997, 19.68 19.799999999999997 C 19.89 21.959999999999997, 19.845 22.424999999999997, 20.1 24.119999999999997 C 20.400000000000002 25.349999999999998, 20.535000000000004 25.919999999999998, 20.700000000000003 26.58 C 20.73 26.669999999999998, 20.654999999999998 26.699999999999996, 20.759999999999998 26.759999999999998 C 20.939999999999998 26.79, 20.73 27.045, 21.12 26.82 C 21.72 26.34, 21.78 26.16, 22.32 25.86 C 22.8 25.74, 22.545 25.769999999999996, 23.28 25.619999999999997 C 24.27 25.439999999999998, 24.195 25.349999999999998, 25.259999999999998 25.259999999999998 C 26.4 25.259999999999998, 26.58 25.259999999999998, 27.54 25.259999999999998 C 28.32 25.259999999999998, 28.455 25.034999999999997, 29.099999999999998 25.259999999999998 C 29.61 25.71, 29.624999999999996 25.620000000000005, 30.119999999999997 26.160000000000004 C 30.599999999999998 26.790000000000003, 30.764999999999997 26.700000000000003, 31.08 27.42 C 31.23 28.23, 31.305 28.14, 31.380000000000003 29.04 C 31.380000000000003 30.03, 31.470000000000002 30, 31.380000000000003 31.02 C 31.200000000000003 32.07, 31.305 31.935, 31.02 33.12 C 30.630000000000003 34.44, 30.540000000000003 34.739999999999995, 30.240000000000002 35.76 C 30.03 36.480000000000004, 30.015 36.55500000000001, 29.82 37.2 C 29.64 37.769999999999996, 29.55 38.055, 29.46 38.339999999999996 L 29.46 38.339999999999996" fill="none" stroke="black" stroke-width="5"></path><path d="M 11.459999999999999 40.68 C 11.43 40.59, 11.369999999999997 40.62, 11.399999999999999 40.5 C 11.489999999999998 40.35, 10.89 40.425000000000004, 11.58 40.2 C 12.870000000000001 39.9, 12.18 40.095, 14.16 39.599999999999994 C 16.83 38.91, 17.07 38.61, 19.5 38.22 C 21.689999999999998 38.129999999999995, 21.72 37.95, 23.88 38.04 C 26.009999999999998 38.31, 26.625 38.28, 28.14 38.58 C 29.04 38.91, 29.19 39.015, 29.94 39.24 C 30.54 39.36, 30.645 39.315000000000005, 31.14 39.480000000000004 C 31.53 39.690000000000005, 31.680000000000003 39.76500000000001, 31.92 39.900000000000006 L 32.099999999999994 40.019999999999996" fill="none" stroke="black" stroke-width="5"></path><path d="M 23.94 25.740000000000002 C 23.97 25.77, 23.97 25.784999999999997, 24 25.799999999999997 C 24.03 25.799999999999997, 23.985 26.054999999999996, 24.06 25.799999999999997 C 24.18 25.29, 24.24 25.98, 24.299999999999997 24.78 C 24.299999999999997 22.89, 24.299999999999997 23.1, 24.299999999999997 21 C 24.299999999999997 18.689999999999998, 24.254999999999995 18.09, 24.299999999999997 16.38 C 24.39 15.27, 24.435 15.135, 24.48 14.16 C 24.48 13.32, 24.48 13.14, 24.48 12.48 C 24.48 12, 24.48 11.864999999999998, 24.48 11.52 L 24.48 11.100000000000001" fill="none" stroke="black" stroke-width="5"></path><path d="M 29.94 25.56 C 30.119999999999997 23.64, 29.955 24.104999999999997, 30.299999999999997 21.72 C 30.81 18.869999999999997, 30.990000000000002 18.21, 31.32 16.02 C 31.47 14.49, 31.529999999999998 14.115000000000002, 31.619999999999997 12.96 C 31.65 12.18, 31.665 11.79, 31.68 11.399999999999999 L 31.68 11.399999999999999" fill="none" stroke="black" stroke-width="5"></path></svg>