<svg width="48" height="48" viewBox="0 0 48 48" xmlns="http://www.w3.org/2000/svg"><path d="M 14.879999999999999 25.44 C 14.49 23.64, 14.340000000000002 23.13, 14.100000000000001 21.84 C 14.01 21.060000000000002, 13.965 20.895000000000003, 13.919999999999998 20.28 C 13.919999999999998 19.83, 13.874999999999996 19.799999999999997, 13.919999999999998 19.38 C 14.01 18.990000000000002, 13.815000000000001 18.990000000000002, 14.100000000000001 18.6 C 14.58 18.21, 14.399999999999999 18.225, 15.059999999999999 17.82 C 15.9 17.4, 16.095000000000002 17.22, 16.740000000000002 16.98 C 17.19 16.92, 16.98 16.905, 17.64 16.86 C 18.509999999999998 16.83, 18.06 16.859999999999996, 19.38 16.799999999999997 C 21.15 16.71, 21.284999999999997 16.665, 22.919999999999998 16.62 C 24.42 16.62, 24.645000000000003 16.62, 25.92 16.62 C 26.97 16.62, 27.314999999999998 16.59, 28.02 16.62 C 28.380000000000003 16.68, 28.560000000000002 16.71, 28.740000000000002 16.740000000000002 L 28.740000000000002 16.740000000000002" fill="none" stroke="black" stroke-width="5"></path><path d="M 19.02 16.32 C 18.9 14.129999999999999, 18.885 14.07, 18.78 11.94 C 18.69 9.870000000000001, 18.69 9.3, 18.6 7.800000000000001 C 18.509999999999998 6.87, 18.479999999999997 6.66, 18.419999999999998 5.9399999999999995 C 18.39 5.43, 18.375 5.175, 18.36 4.92 C 18.36 4.92, 18.36 4.92, 18.36 4.92 L 18.36 4.92" fill="none" stroke="black" stroke-width="5"></path><path d="M 24.900000000000002 16.02 C 24.630000000000003 13.44, 24.645 12.915, 24.36 10.86 C 24.06 9.33, 24.044999999999998 9.21, 23.759999999999998 7.800000000000001 C 23.49 6.51, 23.354999999999997 5.895, 23.22 5.22 C 23.22 5.16, 23.22 5.175, 23.22 5.1 L 23.22 4.92" fill="none" stroke="black" stroke-width="5"></path><path d="M 22.68 18.06 C 23.009999999999998 19.74, 23.085 19.935, 23.34 21.419999999999998 C 23.520000000000003 22.71, 23.505000000000003 22.259999999999998, 23.700000000000003 24 C 23.91 26.19, 23.97 26.430000000000003, 24.119999999999997 28.380000000000003 C 24.209999999999997 30.09, 24.299999999999997 30.104999999999997, 24.299999999999997 31.799999999999997 C 24.209999999999997 33.480000000000004, 24.33 33.900000000000006, 24.119999999999997 35.160000000000004 C 23.79 36, 24 35.73, 23.46 36.839999999999996 C 22.71 38.22, 22.695 38.489999999999995, 21.96 39.599999999999994 C 21.240000000000002 40.44, 20.97 40.8, 20.52 41.28 C 20.34 41.4, 20.46 41.339999999999996, 20.16 41.519999999999996 C 19.740000000000002 41.76, 19.56 41.85, 19.32 42 C 19.26 42.06, 19.275000000000002 42.089999999999996, 19.200000000000003 42.12 L 19.02 42.12" fill="none" stroke="black" stroke-width="5"></path></svg>