<svg width="48" height="48" viewBox="0 0 48 48" xmlns="http://www.w3.org/2000/svg"><path d="M 13.14 3.7199999999999998 C 12 7.68, 11.58 8.370000000000001, 10.86 11.64 C 10.559999999999999 14.219999999999999, 10.379999999999999 14.894999999999998, 10.26 16.799999999999997 C 10.32 18.029999999999998, 9.75 18.24, 10.379999999999999 19.259999999999998 C 11.579999999999998 20.07, 11.43 20.31, 12.78 20.88 C 14.28 21.21, 14.235 21.15, 15.78 21.54 C 17.37 21.990000000000002, 18.060000000000002 22.215, 18.96 22.44 C 19.17 22.44, 19.064999999999998 22.635, 19.38 22.44 C 19.799999999999997 22.05, 19.889999999999997 22.335, 20.22 21.66 C 20.46 20.700000000000003, 20.400000000000002 21.135, 20.700000000000003 19.740000000000002 C 21.060000000000002 17.910000000000004, 21.24 17.19, 21.419999999999998 16.080000000000002 C 21.419999999999998 15.690000000000001, 21.419999999999998 15.69, 21.419999999999998 15.299999999999999 C 21.419999999999998 14.91, 21.419999999999998 14.715, 21.419999999999998 14.52 C 21.419999999999998 14.52, 21.314999999999998 14.325, 21.419999999999998 14.52 C 21.63 14.91, 21.674999999999997 14.549999999999999, 21.84 15.299999999999999 C 21.96 16.41, 22.020000000000003 16.425, 22.080000000000002 17.52 C 22.080000000000002 18.6, 21.900000000000002 18.63, 22.080000000000002 19.68 C 22.439999999999998 20.7, 22.275 21.06, 22.799999999999997 21.72 C 23.49 22.02, 23.145 22.125, 24.18 22.32 C 25.560000000000002 22.41, 25.560000000000002 22.56, 26.94 22.5 C 28.32 22.29, 28.650000000000002 22.32, 29.700000000000003 22.080000000000002 C 30.42 21.810000000000002, 30.78 21.675, 31.14 21.54 C 31.14 21.54, 31.125 21.57, 31.14 21.54 L 31.200000000000003 21.419999999999998" fill="none" stroke="black" stroke-width="5"></path><path d="M 27.660000000000004 4.4399999999999995 C 27.660000000000004 5.43, 27.780000000000005 4.74, 27.660000000000004 6.42 C 27.42 8.79, 27.3 9.435, 27.18 11.16 C 27.18 12.24, 27.18 12.285, 27.18 13.32 C 27.18 14.309999999999999, 27.18 14.805, 27.18 15.299999999999999 L 27.18 15.299999999999999" fill="none" stroke="black" stroke-width="5"></path><path d="M 20.52 4.26 C 20.130000000000003 5.28, 20.265 5.130000000000001, 19.740000000000002 6.300000000000001 C 19.08 7.62, 18.93 7.695, 18.419999999999998 8.94 C 18.060000000000002 10.11, 18.090000000000003 10.035, 17.700000000000003 11.28 C 17.28 12.599999999999998, 17.115000000000002 13.109999999999998, 16.86 13.919999999999998 C 16.77 14.219999999999999, 16.725 14.37, 16.68 14.52 L 16.68 14.52" fill="none" stroke="black" stroke-width="5"></path><path d="M 21.66 19.02 C 21.57 19.439999999999998, 21.57 19.275, 21.48 19.86 C 21.39 20.61, 21.389999999999997 20.43, 21.299999999999997 21.36 C 21.21 22.47, 21.045 22.5, 21.12 23.580000000000002 C 21.36 24.630000000000003, 21.180000000000003 24.810000000000002, 21.6 25.68 C 22.2 26.369999999999997, 21.629999999999995 26.25, 22.799999999999997 27.06 C 24.54 27.990000000000002, 24.84 28.23, 26.28 28.92 C 27.42 29.37, 27.6 29.400000000000002, 28.56 29.82 C 29.339999999999996 30.21, 29.474999999999998 30.24, 30.119999999999997 30.599999999999998 C 30.63 30.93, 30.884999999999998 31.095, 31.14 31.259999999999998 C 31.14 31.259999999999998, 31.11 31.214999999999996, 31.14 31.259999999999998 C 31.2 31.35, 31.379999999999995 31.185000000000002, 31.259999999999998 31.44 C 30.96 31.86, 31.110000000000003 31.995, 30.660000000000004 32.28 C 30.060000000000002 32.43, 30.060000000000002 32.46, 29.46 32.58 C 28.86 32.67, 29.189999999999998 32.714999999999996, 28.259999999999998 32.76 C 27 32.76, 27.12 32.565, 25.740000000000002 32.76 C 24.240000000000002 33.15, 24.285000000000004 32.925, 22.740000000000002 33.54 C 21.15 34.379999999999995, 20.97 34.35, 19.56 35.22 C 18.33 36.12, 18.195 36.089999999999996, 17.1 37.019999999999996 C 16.14 37.98, 15.93 37.8, 15.18 38.94 C 14.64 40.26, 14.370000000000001 40.665, 14.100000000000001 41.58 C 14.100000000000001 42.089999999999996, 14.100000000000001 42.345, 14.100000000000001 42.599999999999994 L 14.100000000000001 42.599999999999994" fill="none" stroke="black" stroke-width="5"></path><path d="M 12.36 29.46 C 12.57 29.46, 11.94 29.115000000000002, 12.78 29.46 C 14.25 30.15, 14.565000000000001 30.15, 15.72 30.839999999999996 C 16.56 31.529999999999998, 16.515 31.29, 17.4 32.22 C 18.33 33.39, 18.659999999999997 33.78, 19.259999999999998 34.56 C 19.529999999999998 34.95, 19.559999999999995 34.934999999999995, 19.799999999999997 35.339999999999996 C 20.009999999999998 35.76, 20.115 35.97, 20.22 36.18 C 20.22 36.18, 20.25 36.12, 20.22 36.18 L 20.1 36.42" fill="none" stroke="black" stroke-width="5"></path></svg>