<svg width="48" height="48" viewBox="0 0 48 48" xmlns="http://www.w3.org/2000/svg"><path d="M 9.66 35.82 C 10.59 35.519999999999996, 10.725 35.37, 11.52 35.22 C 12.18 35.22, 12.03 35.085, 12.84 35.22 C 13.8 35.489999999999995, 13.86 35.28, 14.76 35.76 C 15.600000000000001 36.45, 15.81 36.45, 16.44 37.14 C 16.86 37.83, 16.98 37.905, 17.28 38.519999999999996 C 17.46 39.059999999999995, 17.535 38.99999999999999, 17.64 39.599999999999994 C 17.67 40.26, 17.880000000000003 40.095, 17.700000000000003 40.92 C 17.310000000000002 41.910000000000004, 17.4 42.105000000000004, 16.919999999999998 42.900000000000006 C 16.349999999999998 43.5, 16.305 43.67999999999999, 15.78 44.099999999999994 C 15.3 44.339999999999996, 15.405 44.459999999999994, 14.82 44.58 C 14.13 44.58, 14.205000000000002 44.625, 13.440000000000001 44.58 C 12.600000000000001 44.49, 12.344999999999999 44.49000000000001, 11.76 44.400000000000006 C 11.43 44.31, 11.340000000000002 44.295, 11.100000000000001 44.22 C 10.950000000000001 44.16, 11.040000000000001 44.42999999999999, 10.8 44.099999999999994 C 10.47 43.5, 10.425 43.785000000000004, 10.14 42.900000000000006 C 9.9 41.730000000000004, 9.870000000000001 41.730000000000004, 9.66 40.56 C 9.48 39.39, 9.39 39.15, 9.3 38.22 C 9.3 37.53, 9.3 37.949999999999996, 9.3 36.839999999999996 C 9.3 35.31, 9.3 35.535, 9.3 33.78 C 9.3 31.8, 9.24 31.575000000000003, 9.3 29.82 C 9.420000000000002 28.29, 9.420000000000002 28.244999999999997, 9.540000000000001 26.759999999999998 C 9.66 25.32, 9.629999999999999 25.049999999999997, 9.78 23.88 C 9.96 22.98, 9.93 23.25, 10.14 22.080000000000002 C 10.38 20.64, 10.41 20.535000000000004, 10.620000000000001 19.200000000000003 C 10.8 17.970000000000002, 10.755 17.940000000000005, 10.98 16.740000000000002 C 11.25 15.57, 11.205 15.48, 11.52 14.399999999999999 C 11.879999999999999 13.409999999999998, 11.895 13.229999999999997, 12.24 12.419999999999998 C 12.57 11.79, 12.614999999999998 11.55, 12.899999999999999 11.16 C 13.139999999999999 11.01, 13.169999999999998 10.934999999999999, 13.379999999999999 10.86 C 13.559999999999999 10.86, 13.455 10.844999999999999, 13.74 10.86 C 14.129999999999999 10.89, 14.129999999999999 10.875, 14.52 10.92 C 14.91 10.98, 14.805 11.010000000000002, 15.299999999999999 11.040000000000001 C 15.899999999999999 11.040000000000001, 15.915 10.950000000000001, 16.5 11.040000000000001 C 17.07 11.219999999999999, 17.205 11.235, 17.64 11.399999999999999 C 17.94 11.549999999999999, 17.94 11.475, 18.240000000000002 11.7 C 18.54 12, 18.51 11.774999999999999, 18.84 12.299999999999999 C 19.2 13.049999999999999, 19.29 12.584999999999999, 19.56 13.799999999999999 C 19.74 15.48, 19.784999999999997 15.45, 19.919999999999998 17.16 C 20.009999999999998 18.9, 20.055 19.575000000000003, 20.1 20.64 C 20.1 21.03, 20.1 21.075, 20.1 21.419999999999998 C 20.1 21.72, 20.1 21.825, 20.1 22.02 C 20.1 22.11, 20.1 22.155, 20.1 22.200000000000003 C 20.1 22.200000000000003, 20.1 22.515000000000004, 20.1 22.200000000000003 C 20.1 21.57, 20.025000000000002 21.75, 20.1 20.94 C 20.25 19.950000000000003, 20.13 19.995, 20.4 18.96 C 20.79 17.88, 20.79 17.775, 21.18 16.799999999999997 C 21.57 15.929999999999998, 21.54 15.869999999999997, 21.96 15.059999999999999 C 22.41 14.309999999999999, 22.38 14.235, 22.86 13.559999999999999 C 23.369999999999997 12.959999999999999, 23.415 12.764999999999999, 23.88 12.36 C 24.299999999999997 12.149999999999999, 24.195 12, 24.72 11.94 C 25.35 12.030000000000001, 25.200000000000003 12.075000000000001, 25.98 12.120000000000001 C 26.909999999999997 12.120000000000001, 27.074999999999996 12.075000000000001, 27.839999999999996 12.120000000000001 C 28.439999999999998 12.21, 28.544999999999998 12.225, 29.04 12.299999999999999 C 29.43 12.36, 29.415 12.164999999999997, 29.82 12.419999999999998 C 30.240000000000002 12.87, 30.270000000000003 12.434999999999999, 30.660000000000004 13.32 C 31.020000000000003 14.64, 31.080000000000005 14.505, 31.380000000000003 15.96 C 31.62 17.55, 31.740000000000002 16.875, 31.86 19.14 C 31.86 22.08, 31.86 21.825, 31.86 25.02 C 31.86 28.47, 31.86 28.92, 31.86 31.92 C 31.86 34.47, 31.86 35.114999999999995, 31.86 37.019999999999996 C 31.86 38.28, 31.89 38.37, 31.86 39.54 C 31.8 40.620000000000005, 31.785000000000004 40.95, 31.740000000000002 41.7 C 31.71 42.120000000000005, 31.740000000000002 42.165, 31.68 42.54 C 31.59 42.870000000000005, 31.56 42.99, 31.5 43.2 C 31.47 43.290000000000006, 31.560000000000002 43.230000000000004, 31.44 43.38 L 31.02 43.8" fill="none" stroke="black" stroke-width="5"></path><path d="M 16.32 10.92 C 16.32 9.57, 16.32 9.465, 16.32 8.22 C 16.32 7.08, 16.305 6.989999999999999, 16.32 5.9399999999999995 C 16.35 4.98, 16.365 4.7250000000000005, 16.38 4.0200000000000005 C 16.38 3.5700000000000003, 16.349999999999998 3.705, 16.38 3.12 C 16.439999999999998 2.4000000000000004, 16.47 2.04, 16.5 1.6800000000000002 C 16.5 1.6800000000000002, 16.5 1.6800000000000002, 16.5 1.6800000000000002 C 16.5 1.6800000000000002, 16.5 1.6800000000000002, 16.5 1.6800000000000002 L 16.5 1.6800000000000002" fill="none" stroke="black" stroke-width="5"></path><path d="M 27.660000000000004 12.899999999999999 C 27.840000000000003 13.02, 27.9 13.350000000000001, 28.02 13.14 C 28.08 12.6, 28.11 12.899999999999999, 28.14 12.059999999999999 C 28.14 10.919999999999998, 28.14 11.084999999999999, 28.14 9.78 C 28.14 8.309999999999999, 28.14 7.904999999999999, 28.14 6.84 C 28.14 6.18, 28.14 6.120000000000001, 28.14 5.5200000000000005 C 28.14 4.98, 28.14 4.9799999999999995, 28.14 4.4399999999999995 C 28.14 3.9, 28.14 3.96, 28.14 3.3600000000000003 C 28.14 2.7, 28.14 2.37, 28.14 2.04 C 28.14 2.04, 28.14 2.04, 28.14 2.04 L 28.14 2.04" fill="none" stroke="black" stroke-width="5"></path></svg>