<svg width="48" height="48" viewBox="0 0 48 48" xmlns="http://www.w3.org/2000/svg"><path d="M 19.080000000000002 12.96 C 18.96 12.18, 19.05 12.165, 18.84 11.399999999999999 C 18.54 10.649999999999999, 18.495 10.589999999999998, 18.240000000000002 9.899999999999999 C 18.03 9.27, 18.105 9.315000000000001, 17.82 8.64 C 17.46 7.92, 17.475 7.694999999999999, 17.1 7.199999999999999 C 16.71 6.93, 16.59 6.824999999999999, 16.32 6.66 C 16.17 6.6000000000000005, 16.32 6.645000000000001, 16.02 6.540000000000001 C 15.57 6.390000000000001, 15.600000000000001 6.375, 15.120000000000001 6.24 C 14.610000000000001 6.12, 14.700000000000001 6.105, 14.100000000000001 6 C 13.41 5.91, 13.245000000000001 5.865, 12.72 5.82 C 12.36 5.82, 12.39 5.805000000000001, 12 5.82 C 11.58 5.85, 11.61 5.73, 11.16 5.88 C 10.68 6.15, 10.695 5.895, 10.2 6.42 C 9.69 7.2, 9.6 7.245000000000001, 9.18 7.98 C 8.85 8.67, 8.895 8.49, 8.52 9.36 C 8.1 10.41, 8.01 10.274999999999999, 7.68 11.459999999999999 C 7.4399999999999995 12.780000000000001, 7.319999999999999 12.870000000000001, 7.199999999999999 14.100000000000001 C 7.199999999999999 15.24, 7.154999999999999 15.239999999999998, 7.199999999999999 16.38 C 7.289999999999999 17.52, 7.2299999999999995 17.61, 7.38 18.66 C 7.59 19.62, 7.575000000000001 19.695, 7.800000000000001 20.580000000000002 C 8.04 21.39, 8.04 21.585000000000004, 8.28 22.200000000000003 C 8.52 22.62, 8.355 22.62, 8.76 23.04 C 9.329999999999998 23.46, 9.254999999999999 23.52, 9.899999999999999 23.88 C 10.62 24.18, 10.2 24.21, 11.34 24.48 C 12.9 24.72, 12.990000000000002 24.84, 14.46 24.96 C 15.84 24.96, 15.704999999999998 25.11, 17.22 24.96 C 18.869999999999997 24.66, 18.795 24.735, 20.52 24.36 C 22.32 23.91, 22.485 23.835, 24.119999999999997 23.46 C 25.589999999999996 23.16, 25.74 23.115, 27.06 22.86 C 28.23 22.65, 28.545 22.650000000000002, 29.400000000000002 22.44 C 29.94 22.23, 29.94 22.17, 30.48 22.02 C 31.02 21.93, 31.29 21.884999999999998, 31.56 21.84 L 31.56 21.84" fill="none" stroke="black" stroke-width="5"></path><path d="M 13.98 25.619999999999997 C 13.98 26.669999999999998, 13.875 26.79, 13.98 27.72 C 14.19 28.529999999999998, 14.099999999999998 28.634999999999998, 14.399999999999999 29.339999999999996 C 14.79 29.939999999999998, 14.655 30, 15.18 30.54 C 15.84 31.02, 15.765 31.125, 16.5 31.5 C 17.310000000000002 31.77, 16.86 31.845, 18.12 32.04 C 19.83 32.16, 20.145 32.22, 21.54 32.28 C 22.62 32.28, 22.410000000000004 32.28, 23.700000000000003 32.28 C 25.200000000000003 32.28, 25.575000000000003 32.28, 26.700000000000003 32.28 C 27.450000000000003 32.28, 27.555000000000003 32.28, 28.200000000000003 32.28 C 28.740000000000002 32.28, 29.01 32.28, 29.28 32.28 C 29.28 32.28, 29.28 32.28, 29.28 32.28 C 29.28 32.28, 29.28 32.28, 29.28 32.28 C 29.28 32.28, 29.265 32.265, 29.28 32.28 C 29.31 32.31, 29.744999999999997 32.175, 29.339999999999996 32.339999999999996 C 28.5 32.64, 28.830000000000002 32.535, 27.660000000000004 32.94 C 26.160000000000004 33.45, 26.010000000000005 33.45, 24.660000000000004 33.96 C 23.46 34.47, 23.4 34.410000000000004, 22.259999999999998 34.980000000000004 C 21.18 35.61, 21.03 35.625, 20.1 36.24 C 19.32 36.84, 19.29 36.705, 18.54 37.44 C 17.82 38.31, 17.700000000000003 38.265, 17.1 39.18 C 16.62 40.14, 16.515 40.199999999999996, 16.14 41.099999999999994 C 15.870000000000001 41.94, 15.735000000000001 42.195, 15.600000000000001 42.78 C 15.600000000000001 43.11, 15.600000000000001 43.05, 15.600000000000001 43.44 C 15.600000000000001 43.89, 15.600000000000001 44.06999999999999, 15.600000000000001 44.339999999999996 C 15.600000000000001 44.42999999999999, 15.690000000000001 44.39999999999999, 15.600000000000001 44.519999999999996 L 15.24 44.82" fill="none" stroke="black" stroke-width="5"></path><path d="M 10.56 35.94 C 11.7 36.239999999999995, 11.985 36.33, 12.84 36.54 C 13.41 36.66, 13.38 36.585, 13.98 36.78 C 14.61 37.05, 14.64 37.05, 15.24 37.32 C 15.809999999999999 37.59, 15.899999999999999 37.575, 16.38 37.86 C 16.77 38.16, 16.89 38.25, 17.16 38.46 C 17.310000000000002 38.58, 17.385 38.64, 17.46 38.7 C 17.46 38.7, 17.46 38.7, 17.46 38.7 C 17.46 38.7, 17.46 38.7, 17.46 38.7 L 17.46 38.7" fill="none" stroke="black" stroke-width="5"></path></svg>