<svg width="48" height="48" viewBox="0 0 48 48" xmlns="http://www.w3.org/2000/svg"><path d="M 19.259999999999998 16.62 C 19.32 15.780000000000001, 19.349999999999998 16.035, 19.38 14.940000000000001 C 19.38 13.59, 19.485 13.59, 19.38 12.24 C 19.17 10.89, 19.17 10.515, 18.96 9.540000000000001 C 18.75 8.940000000000001, 18.794999999999998 9, 18.54 8.34 C 18.240000000000002 7.619999999999999, 18.195 7.395, 17.94 6.8999999999999995 C 17.73 6.63, 17.79 6.66, 17.52 6.36 C 17.189999999999998 6.029999999999999, 17.189999999999998 5.924999999999999, 16.86 5.699999999999999 C 16.53 5.58, 16.71 5.52, 16.200000000000003 5.46 C 15.510000000000002 5.46, 15.39 5.415, 14.82 5.46 C 14.37 5.55, 14.474999999999998 5.34, 13.919999999999998 5.64 C 13.26 6.15, 13.125 6.015, 12.600000000000001 6.66 C 12.21 7.44, 12.135000000000002 7.275, 11.82 8.22 C 11.58 9.33, 11.46 9.465, 11.34 10.44 C 11.34 11.280000000000001, 11.34 11.13, 11.34 12.120000000000001 C 11.34 13.26, 11.34 13.184999999999999, 11.34 14.399999999999999 C 11.34 15.69, 11.219999999999999 15.825, 11.34 16.98 C 11.58 18, 11.625 18.15, 11.82 19.02 C 11.97 19.740000000000002, 11.985000000000001 19.905, 12.120000000000001 20.46 C 12.24 20.85, 12.18 20.865000000000002, 12.36 21.240000000000002 C 12.6 21.6, 12.48 21.555, 12.84 21.96 C 13.32 22.41, 13.125 22.56, 13.799999999999999 22.86 C 14.669999999999998 23.009999999999998, 14.504999999999999 22.98, 15.54 23.16 C 16.740000000000002 23.37, 16.53 23.445, 17.94 23.580000000000002 C 19.560000000000002 23.64, 19.845 23.595000000000002, 21.18 23.700000000000003 C 22.23 23.85, 22.35 23.880000000000003, 23.28 24 C 24.090000000000003 24.09, 24.360000000000003 24.134999999999998, 24.900000000000002 24.18 C 25.17 24.18, 25.095000000000002 24.18, 25.44 24.18 C 25.86 24.18, 25.845000000000002 24.255, 26.28 24.18 C 26.73 24.03, 26.775 24.044999999999998, 27.18 23.88 C 27.54 23.7, 27.6 23.73, 27.900000000000002 23.52 C 28.14 23.28, 28.17 23.549999999999997, 28.380000000000003 23.04 C 28.560000000000002 22.259999999999998, 28.650000000000002 22.605, 28.740000000000002 21.48 C 28.740000000000002 20.009999999999998, 28.740000000000002 20.009999999999998, 28.740000000000002 18.54 C 28.740000000000002 17.07, 28.740000000000002 17.055, 28.740000000000002 15.600000000000001 C 28.740000000000002 14.16, 28.845000000000002 14.115000000000002, 28.740000000000002 12.72 C 28.53 11.370000000000001, 28.47 11.115, 28.32 10.02 C 28.23 9.18, 28.245 8.85, 28.14 8.34 C 28.020000000000003 8.16, 27.96 8.25, 27.900000000000002 7.98 C 27.900000000000002 7.62, 27.930000000000003 7.5600000000000005, 27.900000000000002 7.26 C 27.840000000000003 7.02, 27.855000000000004 7.26, 27.78 6.779999999999999 C 27.689999999999998 6.06, 27.645 5.699999999999999, 27.599999999999998 5.34 L 27.599999999999998 5.34" fill="none" stroke="black" stroke-width="5"></path><path d="M 19.56 30 C 19.29 30.21, 19.29 30.12, 19.02 30.42 C 18.75 30.810000000000002, 18.57 30.855000000000004, 18.48 31.200000000000003 C 18.57 31.5, 18.48 31.589999999999996, 18.66 31.799999999999997 C 18.93 31.919999999999998, 18.96 31.979999999999997, 19.200000000000003 32.04 C 19.410000000000004 32.04, 19.455000000000002 32.489999999999995, 19.62 32.04 C 19.740000000000002 31.14, 19.83 30.810000000000002, 19.86 30.240000000000002 C 19.8 30, 19.860000000000003 29.909999999999997, 19.740000000000002 29.759999999999998 C 19.560000000000002 29.7, 19.71 29.445, 19.38 29.64 C 18.9 30.09, 18.689999999999998 30.045, 18.419999999999998 30.54 C 18.36 31.08, 18.15 31.139999999999997, 18.299999999999997 31.619999999999997 C 18.659999999999997 32.04, 18.659999999999997 32.144999999999996, 19.02 32.46 C 19.380000000000003 32.67, 19.44 32.865, 19.740000000000002 32.88 C 19.98 32.7, 20.025 32.864999999999995, 20.22 32.519999999999996 C 20.369999999999997 32.01, 20.61 31.95, 20.52 31.5 C 20.189999999999998 31.11, 20.1 30.96, 19.86 30.72 C 19.71 30.63, 19.74 30.585, 19.56 30.54 C 19.35 30.54, 19.41 30.39, 19.14 30.54 C 18.810000000000002 30.84, 18.75 30.674999999999997, 18.48 31.14 C 18.27 31.770000000000003, 18.06 31.920000000000005, 18.06 32.400000000000006 C 18.27 32.730000000000004, 18.12 32.85, 18.48 33.06 C 18.990000000000002 33.150000000000006, 19.05 33.465, 19.5 33.24 C 19.89 32.7, 20.025000000000002 32.625, 20.28 32.160000000000004 C 20.4 31.770000000000003, 20.46 31.695000000000004, 20.52 31.380000000000003 C 20.52 31.14, 20.73 31.185000000000002, 20.52 30.900000000000002 C 20.1 30.57, 19.92 30.435000000000002, 19.68 30.240000000000002 C 19.619999999999997 30.18, 19.724999999999998 30.134999999999998, 19.56 30.119999999999997 L 19.02 30.18" fill="none" stroke="black" stroke-width="5"></path><path d="M 13.26 39.78 C 13.89 39.78, 13.424999999999999 39.765, 14.52 39.78 C 16.08 39.81, 16.365000000000002 39.824999999999996, 17.64 39.839999999999996 C 18.630000000000003 39.839999999999996, 18.345 39.839999999999996, 19.62 39.839999999999996 C 21.18 39.839999999999996, 21.255000000000003 39.855, 22.740000000000002 39.839999999999996 C 24.15 39.81, 24.72 39.795, 25.56 39.78 C 25.83 39.78, 25.964999999999996 39.78, 26.099999999999998 39.78 L 26.099999999999998 39.78" fill="none" stroke="black" stroke-width="5"></path></svg>