<svg width="48" height="48" viewBox="0 0 48 48" xmlns="http://www.w3.org/2000/svg"><path d="M 24.54 17.52 C 24.72 16.259999999999998, 24.810000000000002 16.455, 24.900000000000002 15 C 24.900000000000002 13.35, 25.095000000000002 13.079999999999998, 24.900000000000002 11.7 C 24.509999999999998 10.59, 24.599999999999998 10.35, 24.119999999999997 9.48 C 23.549999999999997 8.850000000000001, 23.655 8.865, 22.98 8.22 C 22.2 7.5600000000000005, 22.154999999999998 7.364999999999999, 21.419999999999998 6.8999999999999995 C 20.729999999999997 6.63, 20.729999999999997 6.555, 20.04 6.36 C 19.35 6.24, 19.185 6.12, 18.66 6.12 C 18.3 6.24, 18.42 5.91, 17.94 6.36 C 17.340000000000003 7.140000000000001, 17.235000000000003 7.035, 16.740000000000002 7.92 C 16.35 8.91, 16.275000000000002 8.639999999999999, 15.96 9.899999999999999 C 15.72 11.43, 15.66 11.55, 15.48 12.96 C 15.36 14.25, 15.33 13.95, 15.24 15.54 C 15.18 17.43, 15.15 17.295, 15.120000000000001 19.32 C 15.120000000000001 21.48, 15.120000000000001 21.645000000000003, 15.120000000000001 23.64 C 15.120000000000001 25.47, 15.105 25.574999999999996, 15.120000000000001 27.299999999999997 C 15.15 28.919999999999998, 15.120000000000001 29.205, 15.18 30.54 C 15.27 31.59, 15.209999999999999 31.665, 15.36 32.64 C 15.57 33.54, 15.584999999999999 33.78, 15.78 34.44 C 15.96 34.86, 15.99 34.845, 16.14 35.28 C 16.259999999999998 35.730000000000004, 16.275 35.865, 16.38 36.18 C 16.47 36.36, 16.515 36.45, 16.56 36.54 C 16.56 36.54, 16.56 36.54, 16.56 36.54 L 16.56 36.54" fill="none" stroke="black" stroke-width="5"></path><path d="M 19.98 35.28 C 19.11 35.16, 19.380000000000003 35.055, 18.240000000000002 35.04 C 16.83 35.129999999999995, 16.604999999999997 34.845, 15.419999999999998 35.22 C 14.459999999999999 35.879999999999995, 14.19 35.655, 13.5 36.54 C 13.08 37.65, 12.915 37.68, 12.66 38.76 C 12.57 39.81, 12.495000000000001 39.585, 12.48 40.86 C 12.540000000000001 42.36, 12.21 42.66, 12.600000000000001 43.86 C 13.32 44.760000000000005, 12.975 45.015, 14.04 45.660000000000004 C 15.45 46.05, 15.48 46.364999999999995, 16.86 46.44 C 18.21 46.2, 18.284999999999997 46.515, 19.56 45.96 C 20.759999999999998 45.09, 21.135 45.21, 21.96 44.22 C 22.41 43.11, 22.575 43.17, 22.86 42 C 22.98 40.769999999999996, 23.175 40.71, 23.1 39.54 C 22.83 38.43, 23.145 38.4, 22.56 37.32 C 21.659999999999997 36.269999999999996, 21.825 35.82, 20.759999999999998 35.22 C 19.529999999999998 35.07, 19.29 34.995000000000005, 18.299999999999997 34.92 L 16.799999999999997 34.92" fill="none" stroke="black" stroke-width="5"></path></svg>