<svg width="48" height="48" viewBox="0 0 48 48" xmlns="http://www.w3.org/2000/svg"><path d="M 19.68 13.200000000000001 C 19.47 12.420000000000002, 19.47 12.585, 19.259999999999998 11.64 C 19.049999999999997 10.530000000000001, 19.169999999999998 10.485, 18.84 9.42 C 18.39 8.4, 18.405 8.175, 17.94 7.38 C 17.46 6.8100000000000005, 17.535 6.735, 16.98 6.24 C 16.35 5.82, 16.380000000000003 5.67, 15.72 5.4 C 15.030000000000001 5.28, 15.03 5.220000000000001, 14.34 5.16 C 13.65 5.16, 13.59 5.07, 12.96 5.16 C 12.39 5.34, 12.3 5.19, 11.82 5.5200000000000005 C 11.43 6, 11.475000000000001 5.760000000000001, 11.040000000000001 6.48 C 10.56 7.4399999999999995, 10.485 7.289999999999999, 10.08 8.399999999999999 C 9.75 9.66, 9.72 9.555, 9.42 10.92 C 9.149999999999999 12.39, 9.059999999999999 12.405, 8.879999999999999 13.86 C 8.79 15.3, 8.745 15.330000000000002, 8.7 16.740000000000002 C 8.7 18.12, 8.7 17.865000000000002, 8.7 19.5 C 8.7 21.39, 8.535 21.525000000000002, 8.7 23.28 C 9.03 24.9, 9.12 25.365, 9.36 26.52 C 9.51 27.21, 9.57 27.315, 9.66 27.900000000000002 C 9.690000000000001 28.380000000000003, 9.645000000000001 28.485, 9.72 28.86 C 9.84 29.130000000000003, 9.899999999999999 29.265, 9.959999999999999 29.400000000000002 C 9.959999999999999 29.400000000000002, 9.959999999999999 29.400000000000002, 9.959999999999999 29.400000000000002 L 9.959999999999999 29.400000000000002" fill="none" stroke="black" stroke-width="5"></path><path d="M 9.24 20.34 C 9.780000000000001 20.34, 9.84 20.265, 10.32 20.34 C 10.74 20.490000000000002, 10.68 20.52, 11.16 20.64 C 11.7 20.73, 11.655000000000001 20.64, 12.24 20.82 C 12.870000000000001 21.09, 12.945 21.044999999999998, 13.5 21.36 C 13.98 21.72, 13.98 21.525000000000002, 14.46 22.080000000000002 C 14.94 22.830000000000002, 15.104999999999999 22.785000000000004, 15.419999999999998 23.580000000000002 C 15.57 24.42, 15.645 24.404999999999998, 15.72 25.259999999999998 C 15.72 26.13, 15.66 26.43, 15.72 27 C 15.84 27.27, 15.9 27.405, 15.96 27.54 C 15.96 27.54, 15.96 27.54, 15.96 27.54 C 15.96 27.54, 15.96 27.54, 15.96 27.54 C 15.96 27.54, 15.96 27.54, 15.96 27.54 C 15.96 27.54, 15.96 27.54, 15.96 27.54 C 15.96 27.54, 15.96 27.81, 15.96 27.54 C 15.96 27, 15.870000000000001 27.195, 15.96 26.46 C 16.14 25.53, 16.095 25.424999999999997, 16.32 24.599999999999998 C 16.59 23.88, 16.59 23.759999999999998, 16.86 23.16 C 17.13 22.68, 17.084999999999997 22.650000000000002, 17.4 22.200000000000003 C 17.759999999999998 21.78, 17.445 21.84, 18.12 21.36 C 19.11 20.82, 19.185000000000002 20.61, 20.1 20.28 C 20.94 20.16, 20.880000000000003 20.1, 21.78 20.04 C 22.740000000000002 20.04, 22.755000000000003 20.1, 23.700000000000003 20.04 C 24.630000000000003 19.919999999999998, 24.585 19.86, 25.56 19.799999999999997 C 26.58 19.799999999999997, 26.924999999999997 19.784999999999997, 27.599999999999998 19.799999999999997 C 27.93 19.83, 27.959999999999997 19.799999999999997, 28.259999999999998 19.86 C 28.529999999999998 19.95, 28.665 19.994999999999997, 28.799999999999997 20.04 L 28.799999999999997 20.04" fill="none" stroke="black" stroke-width="5"></path><path d="M 22.68 20.04 C 22.68 20.88, 22.68 20.834999999999997, 22.68 21.72 C 22.68 22.65, 22.68 22.455000000000002, 22.68 23.580000000000002 C 22.68 24.9, 22.785 24.869999999999997, 22.68 26.22 C 22.47 27.6, 22.575 27.645, 22.259999999999998 28.98 C 21.839999999999996 30.27, 21.884999999999998 30.3, 21.419999999999998 31.56 C 20.909999999999997 32.79, 20.894999999999996 32.879999999999995, 20.4 34.019999999999996 C 19.92 35.06999999999999, 19.950000000000003 35.144999999999996, 19.44 36.12 C 18.9 37.019999999999996, 19.005 36.870000000000005, 18.36 37.92 C 17.61 39.120000000000005, 17.445 39.480000000000004, 16.86 40.32 C 16.439999999999998 40.8, 16.575 40.74, 16.02 41.28 C 15.33 41.88, 15.3 41.955000000000005, 14.64 42.480000000000004 C 14.01 42.93000000000001, 13.979999999999999 42.915000000000006, 13.379999999999999 43.38 C 12.809999999999999 43.86, 12.809999999999999 43.905, 12.24 44.339999999999996 C 11.670000000000002 44.73, 11.595000000000002 44.775, 11.100000000000001 45.12 C 10.68 45.42, 10.47 45.57, 10.26 45.72 C 10.26 45.72, 10.26 45.72, 10.26 45.72 C 10.26 45.72, 10.26 45.72, 10.26 45.72 L 10.26 45.72" fill="none" stroke="black" stroke-width="5"></path></svg>