<svg width="48" height="48" viewBox="0 0 48 48" xmlns="http://www.w3.org/2000/svg"><path d="M 19.200000000000003 19.080000000000002 C 19.17 17.939999999999998, 19.275000000000002 18.255, 19.14 16.799999999999997 C 18.9 15.029999999999998, 18.915 14.535, 18.66 13.26 C 18.39 12.48, 18.375 12.239999999999998, 18.12 11.7 C 17.880000000000003 11.4, 17.955000000000002 11.370000000000001, 17.64 11.100000000000001 C 17.25 10.860000000000001, 17.55 10.725000000000001, 16.86 10.620000000000001 C 15.87 10.65, 15.674999999999999 10.47, 14.879999999999999 10.68 C 14.28 11.07, 14.28 10.815, 13.68 11.459999999999999 C 13.08 12.36, 13.05 11.655, 12.48 13.26 C 11.94 15.57, 11.669999999999998 15.674999999999999, 11.399999999999999 17.88 C 11.399999999999999 19.98, 11.235 20.37, 11.399999999999999 22.080000000000002 C 11.729999999999999 23.4, 11.504999999999999 23.759999999999998, 12.059999999999999 24.72 C 12.84 25.32, 12.330000000000002 25.560000000000002, 13.620000000000001 25.92 C 15.42 26.040000000000003, 15.735 26.010000000000005, 17.22 26.160000000000004 C 18.39 26.340000000000003, 18.39 26.4, 19.56 26.52 C 20.729999999999997 26.58, 21.075 26.67, 21.9 26.64 C 22.38 26.520000000000003, 22.424999999999997 26.595000000000002, 22.86 26.400000000000002 C 23.25 26.130000000000003, 23.295 26.52, 23.64 25.86 C 23.94 24.81, 23.865000000000002 25.919999999999998, 24.240000000000002 23.759999999999998 C 24.69 20.49, 24.885 20.834999999999997, 25.14 17.22 C 25.2 13.26, 25.305 12.120000000000001, 25.259999999999998 9.3 C 25.11 7.62, 25.065 7.0649999999999995, 24.96 5.9399999999999995 C 24.9 5.37, 24.9 5.250000000000001, 24.839999999999996 4.800000000000001 C 24.779999999999998 4.470000000000001, 24.75 4.305, 24.72 4.14 L 24.72 4.14" fill="none" stroke="black" stroke-width="5"></path><path d="M 16.919999999999998 26.160000000000004 C 17.1 27.150000000000002, 17.235 26.61, 17.28 28.14 C 17.19 30.21, 17.295 30.645000000000003, 17.1 32.28 C 16.8 33.480000000000004, 17.07 33.24, 16.5 34.68 C 15.66 36.36, 15.675 36.644999999999996, 14.82 38.04 C 13.950000000000001 39.15, 14.040000000000003 39.375, 13.080000000000002 40.26 C 12.030000000000001 40.92, 11.895000000000001 40.949999999999996, 10.98 41.58 C 10.2 42.18, 9.81 42.480000000000004, 9.42 42.78 L 9.42 42.78" fill="none" stroke="black" stroke-width="5"></path><path d="M 20.700000000000003 37.56 C 20.220000000000002 39.150000000000006, 20.28 39.480000000000004, 19.740000000000002 40.74 C 19.14 41.67, 19.2 41.78999999999999, 18.54 42.599999999999994 C 17.82 43.29, 17.835 43.440000000000005, 17.1 43.980000000000004 C 16.35 44.370000000000005, 16.020000000000003 44.565, 15.600000000000001 44.76 L 15.419999999999998 44.76" fill="none" stroke="black" stroke-width="5"></path></svg>