<svg width="48" height="48" viewBox="0 0 48 48" xmlns="http://www.w3.org/2000/svg"><path d="M 19.62 14.100000000000001 C 19.410000000000004 12.57, 19.455000000000002 12.345000000000002, 19.200000000000003 11.040000000000001 C 18.900000000000002 9.96, 18.930000000000003 9.899999999999999, 18.6 8.879999999999999 C 18.240000000000002 7.919999999999999, 18.405 7.829999999999998, 17.88 6.959999999999999 C 17.189999999999998 6.18, 17.37 6, 16.5 5.4 C 15.45 4.98, 15.18 4.7700000000000005, 14.399999999999999 4.5600000000000005 C 13.889999999999999 4.5600000000000005, 13.844999999999999 4.545000000000001, 13.379999999999999 4.5600000000000005 C 12.959999999999999 4.59, 13.035 4.38, 12.54 4.62 C 11.969999999999999 5.07, 11.894999999999998 4.890000000000001, 11.399999999999999 5.5200000000000005 C 10.98 6.33, 10.86 6.375, 10.56 7.14 C 10.379999999999999 7.859999999999999, 10.395 7.785, 10.2 8.58 C 9.989999999999998 9.45, 9.885 9.375, 9.78 10.32 C 9.78 11.34, 9.78 11.175, 9.78 12.36 C 9.78 13.709999999999999, 9.764999999999999 13.844999999999999, 9.78 15.059999999999999 C 9.809999999999999 16.14, 9.719999999999999 16.2, 9.84 17.22 C 10.05 18.18, 10.02 18.15, 10.26 19.14 C 10.530000000000001 20.16, 10.56 20.415, 10.8 21.18 C 11.010000000000002 21.69, 10.995000000000001 21.705000000000002, 11.22 22.200000000000003 C 11.46 22.68, 11.475 22.785, 11.7 23.16 C 11.91 23.43, 11.745000000000001 23.385, 12.120000000000001 23.700000000000003 C 12.66 24.060000000000002, 12.510000000000002 24.165000000000003, 13.200000000000001 24.42 C 14.04 24.57, 13.605 24.645, 14.879999999999999 24.72 C 16.589999999999996 24.72, 16.964999999999996 24.75, 18.299999999999997 24.72 C 19.259999999999998 24.659999999999997, 18.9 24.839999999999996, 20.22 24.599999999999998 C 21.9 24.18, 21.900000000000002 24.15, 23.580000000000002 23.759999999999998 C 25.26 23.4, 25.515 23.354999999999997, 26.94 23.04 C 28.11 22.77, 28.560000000000002 22.634999999999998, 29.28 22.5 C 29.55 22.5, 29.685000000000002 22.5, 29.82 22.5 C 29.82 22.5, 29.82 22.5, 29.82 22.5 L 29.82 22.5" fill="none" stroke="black" stroke-width="5"></path><path d="M 21 28.619999999999997 C 20.759999999999998 28.619999999999997, 20.715 28.364999999999995, 20.52 28.619999999999997 C 20.369999999999997 29.13, 20.294999999999998 29.13, 20.22 29.64 C 20.22 30.150000000000002, 20.085 30.300000000000004, 20.22 30.660000000000004 C 20.49 30.87, 20.459999999999997 30.99, 20.759999999999998 31.08 C 21.089999999999996 31.049999999999997, 21.194999999999997 31.29, 21.419999999999998 31.02 C 21.54 30.509999999999998, 21.6 30.39, 21.66 30 C 21.66 29.73, 21.84 29.685000000000002, 21.66 29.46 C 21.3 29.28, 21.330000000000002 29.189999999999998, 20.94 29.099999999999998 C 20.520000000000003 29.099999999999998, 20.475 28.889999999999997, 20.1 29.099999999999998 C 19.770000000000003 29.52, 19.62 29.52, 19.44 29.94 C 19.41 30.36, 19.244999999999997 30.345000000000002, 19.38 30.78 C 19.68 31.23, 19.59 31.41, 19.98 31.68 C 20.46 31.77, 20.43 31.845, 20.94 31.86 C 21.48 31.8, 21.615000000000002 32.055, 22.02 31.740000000000002 C 22.29 31.17, 22.424999999999997 31.02, 22.56 30.599999999999998 C 22.56 30.33, 22.56 30.314999999999998, 22.56 30.06 C 22.56 29.82, 22.665 29.775, 22.56 29.58 C 22.35 29.43, 22.455000000000002 29.37, 22.14 29.28 C 21.72 29.25, 21.689999999999998 29.145, 21.299999999999997 29.22 C 20.939999999999998 29.4, 20.85 29.22, 20.580000000000002 29.58 C 20.4 30.12, 20.31 30.165000000000003, 20.22 30.660000000000004 C 20.22 31.11, 20.22 31.305, 20.22 31.56 C 20.22 31.619999999999997, 20.04 31.62, 20.22 31.68 C 20.58 31.74, 20.520000000000003 32.22, 20.94 31.799999999999997 C 21.42 30.9, 21.66 30.479999999999997, 21.9 30 L 21.9 29.880000000000003" fill="none" stroke="black" stroke-width="5"></path><path d="M 16.799999999999997 38.64 C 17.7 38.34, 17.505000000000003 38.43, 18.6 38.04 C 19.89 37.56, 19.965 37.425, 21.18 37.08 C 22.32 36.870000000000005, 22.32 36.855000000000004, 23.46 36.660000000000004 C 24.6 36.480000000000004, 24.795 36.435, 25.740000000000002 36.3 C 26.490000000000002 36.209999999999994, 26.745000000000005 36.165, 27.240000000000002 36.12 C 27.48 36.12, 27.555 36.12, 27.72 36.12 C 27.810000000000002 36.12, 27.855 36.12, 27.900000000000002 36.12 L 27.900000000000002 36.12" fill="none" stroke="black" stroke-width="5"></path></svg>