<svg width="48" height="48" viewBox="0 0 48 48" xmlns="http://www.w3.org/2000/svg"><path d="M 27 14.28 C 27 12.75, 27.09 12.63, 27 11.22 C 26.82 9.93, 26.895 9.63, 26.64 8.64 C 26.310000000000002 7.95, 26.43 7.9350000000000005, 25.98 7.26 C 25.409999999999997 6.6, 25.304999999999996 6.404999999999999, 24.839999999999996 5.9399999999999995 C 24.479999999999997 5.67, 24.479999999999997 5.640000000000001, 24.119999999999997 5.4 C 23.759999999999998 5.1899999999999995, 23.894999999999996 5.1, 23.4 4.9799999999999995 C 22.77 4.949999999999999, 22.8 4.875, 22.14 4.92 C 21.45 5.04, 21.284999999999997 5.025, 20.759999999999998 5.16 C 20.4 5.3100000000000005, 20.445 5.1, 20.04 5.46 C 19.59 6.03, 19.5 5.955, 19.14 6.6000000000000005 C 18.87 7.32, 18.795 7.275000000000001, 18.6 8.040000000000001 C 18.48 8.850000000000001, 18.525 8.790000000000001, 18.36 9.66 C 18.15 10.59, 18.105 10.2, 17.94 11.52 C 17.82 13.23, 17.805000000000003 13.335, 17.700000000000003 14.940000000000001 C 17.61 16.44, 17.565 16.485000000000003, 17.52 17.94 C 17.52 19.35, 17.52 19.139999999999997, 17.52 20.759999999999998 C 17.52 22.59, 17.49 22.935000000000002, 17.52 24.42 C 17.58 25.560000000000002, 17.505000000000003 25.425000000000004, 17.64 26.700000000000003 C 17.85 28.11, 17.82 27.945, 18.06 29.52 C 18.33 31.259999999999998, 18.405 31.92, 18.6 33 C 18.72 33.42, 18.78 33.629999999999995, 18.84 33.839999999999996 L 18.84 33.839999999999996" fill="none" stroke="black" stroke-width="5"></path><path d="M 21.78 34.2 C 21.18 34.2, 21.6 34.14, 20.580000000000002 34.2 C 19.14 34.32, 18.915000000000003 33.765, 17.700000000000003 34.44 C 16.71 35.67, 16.470000000000002 35.685, 15.72 36.900000000000006 C 15.21 38.1, 15.015 37.695, 14.700000000000001 39.3 C 14.580000000000002 41.31, 14.190000000000001 41.82, 14.46 43.32 C 15.120000000000001 44.31, 14.084999999999999 44.37, 15.78 45.3 C 18.51 46.17, 18.720000000000002 46.949999999999996, 21.240000000000002 47.04 C 23.55 46.35, 24.3 46.35, 25.86 45.660000000000004 C 26.67 44.97, 27.015 45.465, 27.48 44.28 C 27.6 42.6, 27.915 42.465, 27.72 40.92 C 27.21 39.51, 27.525000000000002 39.449999999999996, 26.700000000000003 38.099999999999994 C 25.560000000000002 36.809999999999995, 25.44 36.3, 24.42 35.519999999999996 C 23.520000000000003 35.25, 23.385 35.115, 22.62 34.980000000000004 C 21.990000000000002 34.980000000000004, 21.765 34.980000000000004, 21.36 34.980000000000004 L 21 34.980000000000004" fill="none" stroke="black" stroke-width="5"></path><path d="M 14.82 40.38 C 15.42 40.41, 14.535 40.559999999999995, 16.02 40.44 C 18.39 40.17, 18.854999999999997 40.095000000000006, 20.759999999999998 39.900000000000006 C 22.2 39.78, 22.35 39.720000000000006, 23.64 39.660000000000004 C 24.78 39.660000000000004, 25.26 39.660000000000004, 25.92 39.660000000000004 C 26.1 39.660000000000004, 26.19 39.660000000000004, 26.28 39.660000000000004 L 26.28 39.660000000000004" fill="none" stroke="black" stroke-width="5"></path></svg>