<svg width="48" height="48" viewBox="0 0 48 48" xmlns="http://www.w3.org/2000/svg"><path d="M 20.22 14.82 C 20.22 13.29, 20.325 13.275, 20.22 11.76 C 20.009999999999998 10.26, 19.979999999999997 9.885, 19.799999999999997 8.76 C 19.65 8.01, 19.68 7.8149999999999995, 19.5 7.26 C 19.29 6.9, 19.365000000000002 6.885000000000001, 19.080000000000002 6.540000000000001 C 18.72 6.210000000000001, 18.675 6.105, 18.36 5.88 C 18.09 5.76, 18.255 5.699999999999999, 17.82 5.64 C 17.22 5.64, 17.115000000000002 5.609999999999999, 16.62 5.64 C 16.23 5.699999999999999, 16.335 5.3999999999999995, 15.84 5.76 C 15.24 6.42, 15.09 6.27, 14.64 7.08 C 14.34 8.04, 14.25 7.994999999999999, 14.04 9 C 13.919999999999998 10.05, 13.86 10.035000000000002, 13.799999999999999 11.100000000000001 C 13.799999999999999 12.18, 13.799999999999999 11.985, 13.799999999999999 13.26 C 13.799999999999999 14.73, 13.694999999999999 14.895000000000003, 13.799999999999999 16.200000000000003 C 14.01 17.340000000000003, 13.995000000000001 17.64, 14.22 18.48 C 14.46 19.02, 14.415000000000001 19.23, 14.700000000000001 19.56 C 15.030000000000001 19.68, 14.58 19.589999999999996, 15.36 19.799999999999997 C 16.59 20.099999999999998, 16.2 20.099999999999998, 17.82 20.4 C 19.83 20.7, 20.265 20.85, 21.84 21 C 22.979999999999997 21, 23.039999999999996 21, 24.119999999999997 21 C 25.14 21, 25.320000000000004 21, 26.160000000000004 21 C 26.82 21, 27.015 21, 27.48 21 C 27.75 21, 27.794999999999998 21.015, 28.02 21 C 28.200000000000003 20.97, 28.080000000000002 21.18, 28.380000000000003 20.94 C 28.8 20.490000000000002, 28.92 20.535, 29.22 20.04 C 29.4 19.5, 29.369999999999997 19.71, 29.58 18.96 C 29.82 18, 29.909999999999997 17.97, 30.06 17.04 C 30.119999999999997 16.14, 30.21 16.845, 30.18 15.24 C 30.060000000000002 12.93, 30.12 12.870000000000001, 29.94 10.620000000000001 C 29.700000000000003 8.43, 29.625 7.53, 29.46 6.24 C 29.37 5.85, 29.325000000000003 5.655, 29.28 5.46 C 29.28 5.46, 29.28 5.46, 29.28 5.46 L 29.28 5.46" fill="none" stroke="black" stroke-width="5"></path><path d="M 24.839999999999996 27.36 C 23.31 27.21, 23.175 27.029999999999998, 21.78 27.06 C 20.52 27.27, 20.174999999999997 27.09, 19.259999999999998 27.48 C 18.689999999999998 28.049999999999997, 18.630000000000003 27.944999999999997, 18.12 28.619999999999997 C 17.67 29.4, 17.445 28.845, 17.22 30.18 C 17.22 32.07, 17.159999999999997 32.52, 17.22 33.96 C 17.34 34.95, 17.130000000000003 35.175, 17.46 35.94 C 18 36.48, 17.729999999999997 36.434999999999995, 18.54 37.019999999999996 C 19.62 37.65, 19.620000000000005 37.905, 20.700000000000003 38.28 C 21.78 38.4, 21.795 38.61, 22.86 38.519999999999996 C 23.91 38.22, 24.255000000000003 38.385, 24.96 37.92 C 25.32 37.290000000000006, 25.425 37.36500000000001, 25.68 36.660000000000004 C 25.83 35.879999999999995, 25.86 35.849999999999994, 25.98 35.099999999999994 C 26.07 34.379999999999995, 26.115000000000002 34.455, 26.160000000000004 33.660000000000004 C 26.160000000000004 32.790000000000006, 26.160000000000004 32.595, 26.160000000000004 31.92 C 26.160000000000004 31.44, 26.280000000000005 31.71, 26.160000000000004 30.96 C 25.92 29.94, 25.935000000000002 29.700000000000003, 25.68 28.92 C 25.41 28.38, 25.41 28.29, 25.14 27.839999999999996 C 24.869999999999997 27.479999999999997, 24.779999999999998 27.344999999999995, 24.599999999999998 27.119999999999997 C 24.509999999999998 27.03, 24.465 26.985, 24.42 26.94 L 24.42 26.94" fill="none" stroke="black" stroke-width="5"></path></svg>