<svg width="48" height="48" viewBox="0 0 48 48" xmlns="http://www.w3.org/2000/svg"><path d="M 20.759999999999998 13.919999999999998 C 20.1 11.61, 20.025000000000002 10.965, 19.44 9.3 C 18.93 8.280000000000001, 18.854999999999997 8.055, 18.419999999999998 7.26 C 18.060000000000002 6.6899999999999995, 18.150000000000002 6.615, 17.700000000000003 6.12 C 17.160000000000004 5.7, 17.160000000000004 5.58, 16.62 5.28 C 16.08 5.1, 16.02 5.01, 15.54 4.92 C 15.120000000000001 4.92, 15.09 4.92, 14.700000000000001 4.92 C 14.34 4.92, 14.34 4.77, 13.98 4.92 C 13.620000000000001 5.220000000000001, 13.59 5.235, 13.26 5.5200000000000005 C 12.96 5.790000000000001, 12.915 5.6850000000000005, 12.66 6.0600000000000005 C 12.45 6.54, 12.51 6.345, 12.24 7.02 C 11.91 7.89, 11.85 7.9799999999999995, 11.58 8.76 C 11.370000000000001 9.45, 11.28 9.27, 11.16 10.14 C 11.13 11.190000000000001, 11.115000000000002 10.920000000000002, 11.100000000000001 12.24 C 11.100000000000001 13.829999999999998, 11.100000000000001 14.144999999999998, 11.100000000000001 15.419999999999998 C 11.100000000000001 16.38, 11.100000000000001 16.125, 11.100000000000001 17.34 C 11.100000000000001 18.810000000000002, 11.070000000000002 18.975, 11.100000000000001 20.28 C 11.16 21.42, 11.115000000000002 21.63, 11.22 22.56 C 11.370000000000001 23.28, 11.385 23.384999999999998, 11.52 24 C 11.64 24.509999999999998, 11.58 24.465, 11.76 25.02 C 12 25.619999999999997, 12.045 25.65, 12.24 26.22 C 12.39 26.759999999999998, 12.375 26.759999999999998, 12.54 27.299999999999997 C 12.719999999999999 27.84, 12.764999999999997 27.930000000000003, 12.899999999999999 28.380000000000003 C 12.99 28.740000000000002, 12.975000000000001 28.65, 13.080000000000002 29.099999999999998 C 13.200000000000001 29.64, 13.170000000000002 29.775, 13.32 30.18 C 13.5 30.45, 13.5 30.464999999999996, 13.68 30.72 C 13.86 30.96, 13.709999999999999 30.900000000000002, 14.04 31.200000000000003 C 14.52 31.560000000000002, 14.445 31.590000000000003, 15 31.92 C 15.629999999999999 32.22, 15.494999999999997 32.279999999999994, 16.259999999999998 32.519999999999996 C 17.159999999999997 32.7, 17.205 32.79, 18.06 32.88 C 18.869999999999997 32.88, 18.87 32.88, 19.68 32.88 C 20.49 32.88, 20.415 33.03, 21.299999999999997 32.88 C 22.259999999999998 32.58, 22.335 32.475, 23.22 32.28 C 24.029999999999998 32.19, 24.209999999999994 32.23499999999999, 24.839999999999996 32.099999999999994 C 25.29 31.919999999999998, 25.185000000000002 31.89, 25.740000000000002 31.740000000000002 C 26.4 31.62, 26.564999999999998 31.605, 27.06 31.5 C 27.39 31.41, 27.419999999999998 31.41, 27.72 31.32 C 27.99 31.23, 28.125 31.185000000000002, 28.259999999999998 31.14 C 28.259999999999998 31.14, 28.259999999999998 31.14, 28.259999999999998 31.14 L 28.259999999999998 31.14" fill="none" stroke="black" stroke-width="5"></path><path d="M 14.34 40.26 C 16.14 39.84, 15.765 39.78, 17.94 39.42 C 20.490000000000002 39.120000000000005, 20.79 39.015, 23.04 38.82 C 24.990000000000002 38.730000000000004, 25.65 38.685, 26.94 38.64 C 27.57 38.64, 27.750000000000004 38.64, 28.200000000000003 38.64 C 28.470000000000002 38.64, 28.605000000000004 38.64, 28.740000000000002 38.64 L 28.740000000000002 38.64" fill="none" stroke="black" stroke-width="5"></path></svg>