<svg width="48" height="48" viewBox="0 0 48 48" xmlns="http://www.w3.org/2000/svg"><path d="M 24.42 24.660000000000004 C 24.42 24.660000000000004, 24.42 24.645000000000003, 24.42 24.660000000000004 C 24.42 24.69, 24.330000000000002 24.825, 24.42 24.72 C 24.6 24.48, 25.005000000000003 25.215000000000003, 24.78 24.240000000000002 C 24.15 22.53, 24.195 22.200000000000003, 23.52 20.82 C 22.8 19.77, 22.725 19.529999999999998, 22.080000000000002 18.72 C 21.51 18.15, 21.810000000000002 18.090000000000003, 20.94 17.580000000000002 C 19.770000000000003 17.130000000000003, 19.785 16.935000000000002, 18.6 16.68 C 17.400000000000002 16.619999999999997, 17.475 16.38, 16.200000000000003 16.56 C 14.850000000000001 16.979999999999997, 14.835 16.68, 13.5 17.4 C 12.18 18.42, 11.954999999999998 18.195, 10.86 19.44 C 9.99 20.91, 9.885000000000002 20.744999999999997, 9.120000000000001 22.38 C 8.46 24.18, 8.13 24.6, 7.800000000000001 25.98 C 7.800000000000001 26.94, 7.530000000000001 26.94, 7.800000000000001 27.900000000000002 C 8.34 28.86, 8.024999999999999 29.175, 8.879999999999999 29.82 C 10.05 30.15, 9.825 30.705, 11.22 30.48 C 12.84 29.700000000000003, 13.305000000000001 29.85, 14.46 28.92 C 15.15 27.84, 15.285 27.869999999999997, 15.84 26.759999999999998 C 16.259999999999998 25.619999999999997, 16.335 25.305, 16.68 24.48 C 16.95 23.97, 17.07 23.745, 17.22 23.46 C 17.25 23.4, 17.25 23.145, 17.28 23.34 C 17.310000000000002 23.79, 17.34 23.400000000000002, 17.34 24.240000000000002 C 17.310000000000002 25.470000000000002, 17.040000000000003 25.650000000000002, 17.28 26.700000000000003 C 17.79 27.57, 17.43 27.525000000000002, 18.299999999999997 28.44 C 19.529999999999998 29.4, 19.665 29.835, 20.759999999999998 30.36 C 21.72 30.45, 21.509999999999998 30.54, 22.68 30.54 C 24.060000000000002 30.45, 24.3 30.615, 25.44 30.36 C 26.340000000000003 29.939999999999998, 26.490000000000002 30.134999999999998, 27.240000000000002 29.52 C 27.840000000000003 28.71, 28.080000000000002 28.695000000000004, 28.44 27.900000000000002 C 28.560000000000002 27.119999999999997, 28.65 27.689999999999998, 28.68 26.339999999999996 C 28.619999999999997 24.419999999999998, 28.86 24.345, 28.56 22.5 C 28.02 20.73, 28.275 20.94, 27.48 18.96 C 26.43 16.770000000000003, 26.295 16.500000000000004, 25.380000000000003 14.580000000000002 C 24.6 12.93, 24.645 12.75, 23.82 11.28 C 22.950000000000003 9.989999999999998, 22.875 9.78, 22.080000000000002 8.7 C 21.36 7.829999999999999, 21.195 7.604999999999999, 20.64 6.959999999999999 C 20.25 6.539999999999999, 20.235 6.45, 19.86 6.12 C 19.5 5.88, 19.365000000000002 5.789999999999999, 19.14 5.64 C 19.05 5.58, 19.005000000000003 5.550000000000001, 18.96 5.5200000000000005 L 18.96 5.5200000000000005" fill="none" stroke="black" stroke-width="5"></path><path d="M 6.779999999999999 45.480000000000004 C 7.77 45.42, 7.545 45.66, 8.76 45.36 C 10.2 44.82, 10.260000000000002 44.97, 11.64 44.28 C 12.96 43.44, 13.32 43.30499999999999, 14.28 42.599999999999994 C 14.879999999999999 42.03, 14.775 42.345, 15.48 41.46 C 16.29 40.260000000000005, 16.335 40.650000000000006, 17.1 39.06 C 17.82 37.08, 18.03 36.705, 18.54 35.099999999999994 C 18.84 33.87, 18.990000000000002 33.48, 19.14 32.64 C 19.14 32.19, 19.035 32.355000000000004, 19.14 31.740000000000002 C 19.35 30.96, 19.455 30.63, 19.56 30.18 C 19.56 30.060000000000002, 19.56 30, 19.56 29.94 C 19.56 29.94, 19.56 29.985000000000003, 19.56 29.94 C 19.56 29.85, 19.56 29.805, 19.56 29.759999999999998 C 19.56 29.759999999999998, 19.56 29.759999999999998, 19.56 29.759999999999998 C 19.56 29.759999999999998, 19.665 29.534999999999997, 19.56 29.759999999999998 C 19.35 30.21, 19.365000000000002 30.060000000000002, 19.14 30.660000000000004 C 18.9 31.410000000000004, 18.884999999999998 31.230000000000004, 18.66 32.160000000000004 C 18.450000000000003 33.27, 18.405 33.24, 18.240000000000002 34.38 C 18.12 35.55, 18.060000000000002 35.475, 18 36.72 C 18 38.04, 17.939999999999998 38.415, 18 39.36 C 18.12 39.93, 17.970000000000002 39.795, 18.240000000000002 40.5 C 18.660000000000004 41.34, 18.57 41.445, 19.080000000000002 42.18 C 19.68 42.81, 19.695 43.004999999999995, 20.28 43.44 C 20.85 43.68, 20.909999999999997 43.695, 21.419999999999998 43.92 C 21.869999999999997 44.129999999999995, 21.795 44.19, 22.32 44.339999999999996 C 22.92 44.42999999999999, 22.89 44.474999999999994, 23.52 44.519999999999996 C 24.18 44.519999999999996, 24.239999999999995 44.519999999999996, 24.839999999999996 44.519999999999996 C 25.38 44.519999999999996, 25.44 44.519999999999996, 25.92 44.519999999999996 C 26.34 44.519999999999996, 26.415 44.519999999999996, 26.759999999999998 44.519999999999996 C 27.029999999999998 44.519999999999996, 27.104999999999997 44.519999999999996, 27.299999999999997 44.519999999999996 C 27.419999999999998 44.519999999999996, 27.479999999999997 44.519999999999996, 27.54 44.519999999999996 L 27.54 44.519999999999996" fill="none" stroke="black" stroke-width="5"></path></svg>