<svg width="48" height="48" viewBox="0 0 48 48" xmlns="http://www.w3.org/2000/svg"><path d="M 12.24 30.72 C 13.11 30.93, 12.885 31.005000000000003, 13.98 31.14 C 15.3 31.2, 15.345 31.529999999999998, 16.62 31.259999999999998 C 17.85 30.659999999999997, 18.015 31.154999999999998, 19.080000000000002 30.06 C 19.98 28.47, 20.31 28.155, 20.88 26.880000000000003 C 21.119999999999997 25.92, 21.24 25.44, 21.36 24.96 C 21.36 24.96, 21.36 24.945, 21.36 24.96 C 21.36 24.990000000000002, 21.33 24.54, 21.36 25.02 C 21.42 25.950000000000003, 21.18 25.755000000000003, 21.48 26.880000000000003 C 22.02 28.200000000000003, 22.005 28.65, 22.56 29.52 C 23.130000000000003 29.939999999999998, 23.1 30.06, 23.700000000000003 30.36 C 24.330000000000002 30.54, 24.090000000000003 31.095, 24.96 30.72 C 26.07 29.79, 26.34 30, 27.18 28.86 C 27.75 27.51, 27.87 27.540000000000003, 28.32 26.160000000000004 C 28.65 24.75, 28.755000000000003 25.44, 28.98 23.34 C 29.1 20.549999999999997, 29.52 20.775, 29.22 17.759999999999998 C 28.5 14.52, 28.575000000000003 14.159999999999998, 27.78 11.28 C 26.91 8.76, 26.79 8.295, 26.04 6.24 C 25.41 4.65, 25.185000000000002 4.005, 24.78 3.06 C 24.6 2.76, 24.540000000000003 2.655, 24.42 2.46 C 24.36 2.37, 24.33 2.325, 24.299999999999997 2.2800000000000002 L 24.299999999999997 2.2800000000000002" fill="none" stroke="black" stroke-width="5"></path><path d="M 24.36 22.080000000000002 C 24.119999999999997 21.21, 24.255 21.285, 23.88 20.34 C 23.369999999999997 19.32, 23.4 19.019999999999996, 22.86 18.299999999999997 C 22.29 17.88, 22.275 17.715, 21.72 17.46 C 21.18 17.37, 21.27 17.22, 20.64 17.28 C 19.92 17.490000000000002, 19.845000000000002 17.340000000000003, 19.200000000000003 17.700000000000003 C 18.630000000000003 18.21, 18.525 18.119999999999997, 18.06 18.72 C 17.7 19.41, 17.669999999999998 19.41, 17.34 20.1 C 17.04 20.79, 17.130000000000003 20.61, 16.740000000000002 21.48 C 16.26 22.53, 16.23 22.515, 15.78 23.580000000000002 C 15.36 24.660000000000004, 15.315000000000001 24.795, 14.940000000000001 25.740000000000002 C 14.61 26.55, 14.64 26.490000000000002, 14.28 27.36 C 13.89 28.29, 13.799999999999999 28.229999999999997, 13.5 29.22 C 13.290000000000001 30.27, 13.275000000000002 29.79, 13.080000000000002 31.32 C 12.900000000000002 33.33, 12.795000000000002 33.56999999999999, 12.72 35.339999999999996 C 12.75 36.870000000000005, 12.524999999999999 36.81, 12.78 38.400000000000006 C 13.26 40.050000000000004, 13.23 40.56, 13.74 41.7 C 14.280000000000001 42.33, 14.295 42.495000000000005, 14.82 42.96 C 15.33 43.260000000000005, 14.97 43.440000000000005, 15.84 43.56 C 17.07 43.5, 17.459999999999997 43.575, 18.299999999999997 43.44 C 18.75 43.23, 18.630000000000003 43.364999999999995, 19.200000000000003 43.019999999999996 C 19.89 42.54, 20.130000000000003 42.615, 20.580000000000002 42.06 C 20.79 41.43, 20.895 41.64, 21 40.8 C 21 39.75, 21 39.36, 21 38.7 C 21 38.43000000000001, 21.09 38.415000000000006, 21 38.160000000000004 C 20.82 37.92, 21.27 37.875, 20.64 37.68 C 19.560000000000002 37.53, 19.44 37.455, 18.48 37.38 C 17.64 37.38, 17.564999999999998 37.275000000000006, 16.799999999999997 37.38 C 16.11 37.59, 16.034999999999997 37.47, 15.419999999999998 37.8 C 14.879999999999999 38.25, 14.774999999999999 38.190000000000005, 14.34 38.7 C 14.01 39.269999999999996, 13.98 39.419999999999995, 13.68 39.839999999999996 L 13.14 40.38" fill="none" stroke="black" stroke-width="5"></path></svg>