<svg width="48" height="48" viewBox="0 0 48 48" xmlns="http://www.w3.org/2000/svg"><path d="M 13.5 34.019999999999996 C 14.040000000000001 34.2, 14.010000000000002 34.35, 14.580000000000002 34.38 C 15.18 34.260000000000005, 15.045 34.395, 15.78 34.14 C 16.65 33.75, 16.665 34.005, 17.52 33.36 C 18.36 32.46, 18.735000000000003 32.31, 19.200000000000003 31.56 C 19.29 30.96, 19.335 30.794999999999998, 19.38 30.36 C 19.38 30.09, 19.38 30, 19.38 29.82 C 19.38 29.73, 19.38 29.715, 19.38 29.64 C 19.38 29.58, 19.365 29.445, 19.38 29.52 C 19.41 29.73, 19.395000000000003 29.55, 19.44 29.94 C 19.5 30.509999999999998, 19.395 30.435, 19.56 31.08 C 19.83 31.799999999999997, 19.635 31.769999999999996, 20.1 32.519999999999996 C 20.759999999999998 33.3, 20.849999999999998 33.56999999999999, 21.419999999999998 34.08 C 21.9 34.32, 21.839999999999996 34.32, 22.38 34.56 C 22.98 34.8, 22.830000000000002 35.04, 23.580000000000002 35.04 C 24.480000000000004 34.8, 24.540000000000003 35.055, 25.380000000000003 34.56 C 26.160000000000004 33.81, 26.1 33.945, 26.94 33.06 C 27.840000000000003 32.04, 28.080000000000002 31.875, 28.740000000000002 31.02 C 29.16 30.33, 29.235 30.3, 29.58 29.64 C 29.849999999999998 29.01, 29.939999999999998 29.175000000000004, 30.119999999999997 28.380000000000003 C 30.209999999999997 27.42, 30.254999999999995 27.885, 30.299999999999997 26.46 C 30.299999999999997 24.57, 30.389999999999997 24.134999999999998, 30.299999999999997 22.68 C 30.119999999999997 21.66, 30.435000000000002 21.975, 29.94 20.64 C 29.130000000000003 18.990000000000002, 29.310000000000002 19.065, 28.32 17.34 C 27.15 15.54, 27 15.120000000000001, 25.98 13.74 C 25.11 12.780000000000001, 24.990000000000002 12.615, 24.240000000000002 11.82 C 23.61 11.190000000000001, 23.295 10.875, 22.98 10.56 C 22.98 10.56, 23.07 10.605, 22.98 10.56 C 22.8 10.469999999999999, 22.71 10.424999999999999, 22.62 10.379999999999999 L 22.62 10.379999999999999" fill="none" stroke="black" stroke-width="5"></path><path d="M 24.78 30.48 C 24.81 29.79, 24.839999999999996 29.955, 24.839999999999996 29.099999999999998 C 24.81 28.08, 24.9 27.839999999999996, 24.78 27.06 C 24.57 26.52, 24.765 26.685, 24.36 25.98 C 23.759999999999998 25.11, 23.759999999999998 24.990000000000002, 23.16 24.240000000000002 C 22.560000000000002 23.61, 22.545 23.52, 21.96 22.98 C 21.39 22.53, 21.27 22.305, 20.82 22.080000000000002 C 20.490000000000002 22.080000000000002, 20.625 22.080000000000002, 20.16 22.080000000000002 C 19.560000000000002 22.080000000000002, 19.515 22.020000000000003, 18.96 22.080000000000002 C 18.450000000000003 22.200000000000003, 18.435000000000002 22.035, 17.94 22.32 C 17.46 22.77, 17.445 22.755, 16.98 23.22 C 16.53 23.7, 16.515 23.715, 16.080000000000002 24.18 C 15.66 24.63, 15.645 24.479999999999997, 15.24 25.08 C 14.850000000000001 25.83, 14.835 25.784999999999997, 14.46 26.58 C 14.100000000000001 27.419999999999998, 14.040000000000001 27.314999999999998, 13.74 28.259999999999998 C 13.5 29.31, 13.41 29.49, 13.26 30.36 C 13.2 31.05, 13.17 30.78, 13.14 31.740000000000002 C 13.14 32.97, 13.14 32.895, 13.14 34.2 C 13.14 35.58, 13.125 35.715, 13.14 36.96 C 13.170000000000002 38.07, 13.05 38.04, 13.200000000000001 39.18 C 13.47 40.349999999999994, 13.485 40.64999999999999, 13.74 41.519999999999996 C 13.98 42.09, 13.845 42.045, 14.22 42.660000000000004 C 14.73 43.32000000000001, 14.700000000000001 43.38, 15.24 43.980000000000004 C 15.809999999999999 44.52, 15.78 44.58, 16.38 45.06 C 17.009999999999998 45.480000000000004, 17.025 45.58500000000001, 17.64 45.900000000000006 C 18.240000000000002 46.11, 18.255 46.215, 18.84 46.32 C 19.41 46.32, 19.335 46.545, 19.98 46.32 C 20.7 45.870000000000005, 20.834999999999997 45.93, 21.419999999999998 45.42 C 21.869999999999997 44.85, 21.945 44.88, 22.32 44.28 C 22.619999999999997 43.65, 22.695 43.47, 22.919999999999998 43.019999999999996 C 23.07 42.75, 23.13 42.81, 23.22 42.480000000000004 C 23.25 42.09, 23.235 42, 23.28 41.7 C 23.34 41.49, 23.34 41.445, 23.4 41.28 C 23.46 41.16, 23.49 41.1, 23.52 41.04 L 23.52 41.04" fill="none" stroke="black" stroke-width="5"></path></svg>