<svg width="48" height="48" viewBox="0 0 48 48" xmlns="http://www.w3.org/2000/svg"><path d="M 17.1 17.700000000000003 C 17.400000000000002 15.780000000000001, 17.475 15.51, 17.700000000000003 13.86 C 17.85 12.48, 18 12.315000000000001, 18 11.100000000000001 C 17.85 10.05, 17.955000000000002 9.9, 17.700000000000003 9 C 17.340000000000003 8.25, 17.28 8.115, 16.98 7.5 C 16.740000000000002 7.0200000000000005, 16.965 7.095000000000001, 16.5 6.540000000000001 C 15.81 5.91, 15.84 5.6850000000000005, 15.120000000000001 5.28 C 14.370000000000001 5.1, 14.445 5.04, 13.620000000000001 4.92 C 12.72 4.86, 12.48 4.5600000000000005, 11.82 4.800000000000001 C 11.4 5.34, 11.46 5.04, 10.98 5.88 C 10.44 7.02, 10.379999999999999 6.45, 9.899999999999999 8.16 C 9.48 10.440000000000001, 9.405000000000001 10.59, 9.06 12.72 C 8.79 14.7, 8.79 14.7, 8.52 16.68 C 8.25 18.66, 8.175 18.225, 7.98 20.64 C 7.86 23.49, 7.800000000000001 23.819999999999997, 7.74 26.339999999999996 C 7.74 28.529999999999998, 7.74 28.769999999999996, 7.74 30.72 C 7.74 32.43, 7.74 32.655, 7.74 34.14 C 7.74 35.400000000000006, 7.68 35.43000000000001, 7.74 36.660000000000004 C 7.86 37.86, 7.875 37.980000000000004, 7.98 39.06 C 8.07 40.02, 8.01 39.97500000000001, 8.16 40.980000000000004 C 8.370000000000001 42.03, 8.415 42.285, 8.58 43.08 C 8.7 43.620000000000005, 8.595 43.665000000000006, 8.82 44.160000000000004 C 9.15 44.61, 9.075000000000001 44.685, 9.48 45.06 C 9.96 45.36, 10.004999999999999 45.435, 10.44 45.660000000000004 C 10.83 45.81, 10.8 45.855000000000004, 11.22 45.96 C 11.670000000000002 46.019999999999996, 11.520000000000001 46.11, 12.120000000000001 46.08 C 12.870000000000001 45.959999999999994, 12.915000000000001 46.08, 13.620000000000001 45.839999999999996 C 14.280000000000001 45.48, 14.430000000000001 45.614999999999995, 14.940000000000001 45.12 C 15.3 44.489999999999995, 15.36 44.595, 15.66 43.86 C 15.9 43.019999999999996, 15.93 43.394999999999996, 16.14 42.18 C 16.32 40.59, 16.41 40.29, 16.5 39 C 16.5 38.01, 16.5 37.589999999999996, 16.5 37.019999999999996 C 16.5 36.87, 16.5 36.795, 16.5 36.72 L 16.5 36.72" fill="none" stroke="black" stroke-width="5"></path><path d="M 8.100000000000001 31.68 C 8.610000000000001 31.8, 8.190000000000001 31.785000000000004, 9.120000000000001 31.92 C 10.47 32.07, 10.59 32.325, 11.82 32.22 C 12.93 31.86, 13.065 32.175, 14.04 31.5 C 14.879999999999999 30.509999999999998, 15 30.72, 15.72 29.52 C 16.32 28.11, 16.47 27.855000000000004, 16.919999999999998 26.700000000000003 C 17.22 25.800000000000004, 17.325 25.395000000000003, 17.52 24.900000000000002 C 17.61 24.810000000000002, 17.625000000000004 24.779999999999998, 17.700000000000003 24.72 C 17.76 24.69, 17.76 24.345000000000002, 17.82 24.660000000000004 C 17.880000000000003 25.32, 17.865000000000002 24.93, 17.94 25.98 C 18.03 27.42, 17.925 27.794999999999998, 18.12 28.86 C 18.42 29.55, 18.375 29.715000000000003, 18.72 30.240000000000002 C 19.11 30.6, 19.125 30.735, 19.5 30.96 C 19.86 31.05, 19.784999999999997 31.200000000000003, 20.22 31.14 C 20.73 30.93, 20.700000000000003 31.154999999999998, 21.240000000000002 30.72 C 21.810000000000002 30.060000000000002, 21.825 30.180000000000003, 22.38 29.400000000000002 C 22.92 28.5, 22.95 28.845, 23.46 27.599999999999998 C 23.94 26.009999999999998, 24.12 26.145, 24.42 24.42 C 24.540000000000003 22.560000000000002, 24.540000000000003 22.800000000000004, 24.660000000000004 20.700000000000003 C 24.78 18.36, 24.78 18.405, 24.900000000000002 16.02 C 25.020000000000003 13.59, 25.080000000000002 12.96, 25.14 11.16 C 25.14 9.99, 25.2 9.855, 25.14 8.82 C 25.020000000000003 7.92, 25.005000000000003 7.785, 24.900000000000002 7.02 C 24.810000000000002 6.39, 24.779999999999998 6.39, 24.72 5.76 C 24.69 5.13, 24.705000000000005 4.859999999999999, 24.660000000000004 4.5 L 24.54 4.32" fill="none" stroke="black" stroke-width="5"></path></svg>