<svg width="48" height="48" viewBox="0 0 48 48" xmlns="http://www.w3.org/2000/svg"><path d="M 24.299999999999997 26.759999999999998 C 24.27 25.799999999999997, 24.66 26.369999999999997, 24.240000000000002 24.839999999999996 C 23.43 22.74, 23.445 22.485, 22.62 20.64 C 21.78 19.05, 21.795 18.615000000000002, 20.94 17.46 C 20.07 16.740000000000002, 20.115000000000002 16.425, 19.200000000000003 16.02 C 18.240000000000002 15.93, 18.375 15.675, 17.28 15.84 C 16.05 16.259999999999998, 15.84 16.035, 14.82 16.68 C 14.010000000000002 17.549999999999997, 13.995000000000001 17.354999999999997, 13.200000000000001 18.419999999999998 C 12.420000000000002 19.68, 12.225000000000001 19.53, 11.64 20.94 C 11.25 22.5, 11.055 22.395, 10.86 24.06 C 10.86 25.83, 10.739999999999998 26.174999999999997, 10.86 27.599999999999998 C 11.1 28.68, 11.01 29.009999999999998, 11.34 29.759999999999998 C 11.76 30.18, 11.37 30.569999999999997, 12.18 30.599999999999998 C 13.38 30.240000000000002, 13.455000000000002 30.69, 14.580000000000002 29.880000000000003 C 15.63 28.62, 15.915 28.365000000000002, 16.68 27.36 C 17.16 26.61, 17.28 26.79, 17.64 25.86 C 17.880000000000003 24.75, 18 24.33, 18.12 23.64 C 18.12 23.37, 18.12 23.235, 18.12 23.1 C 18.12 23.1, 18.150000000000002 23.07, 18.12 23.1 C 18.060000000000002 23.16, 18.240000000000002 22.68, 18 23.22 C 17.58 24.24, 17.475 24.254999999999995, 17.16 25.259999999999998 C 16.950000000000003 26.25, 16.815 26.115000000000002, 16.740000000000002 27.240000000000002 C 16.8 28.5, 16.605 28.83, 16.86 29.759999999999998 C 17.31 30.36, 17.22 30.48, 17.759999999999998 30.96 C 18.39 31.32, 18.165 31.38, 19.02 31.68 C 20.1 31.92, 20.25 32.040000000000006, 21.18 32.160000000000004 C 21.96 32.160000000000004, 21.87 32.295, 22.740000000000002 32.160000000000004 C 23.700000000000003 31.89, 23.67 31.875, 24.660000000000004 31.619999999999997 C 25.680000000000003 31.38, 25.755000000000003 31.23, 26.700000000000003 31.14 C 27.57 31.2, 27.720000000000002 30.869999999999997, 28.44 31.259999999999998 C 29.009999999999998 31.98, 29.264999999999997 31.950000000000003, 29.58 32.7 C 29.64 33.480000000000004, 30.075000000000003 33.209999999999994, 29.700000000000003 34.26 C 28.89 35.58, 29.055 35.910000000000004, 28.08 36.900000000000006 C 26.939999999999998 37.56, 27.959999999999997 37.695, 25.799999999999997 38.22 C 22.619999999999997 38.61, 21.465 38.805, 19.44 39 C 18.57 39, 18.240000000000002 39.06, 17.700000000000003 39 C 17.490000000000002 38.879999999999995, 17.385 38.82, 17.28 38.76 L 17.28 38.76" fill="none" stroke="black" stroke-width="5"></path><path d="M 26.52 31.14 C 27.15 31.020000000000003, 26.970000000000002 31.455000000000002, 27.78 30.900000000000002 C 28.77 29.910000000000004, 29.13 30.345000000000002, 29.759999999999998 28.92 C 30.029999999999998 27.060000000000002, 30.509999999999998 27.915000000000003, 30.299999999999997 25.200000000000003 C 29.61 21.630000000000003, 30.12 21.419999999999998, 28.92 18.06 C 27.21 14.91, 26.835 13.889999999999999, 25.5 11.76 C 24.54 10.65, 25.14 11.385000000000002, 23.580000000000002 9.540000000000001 C 21.42 6.960000000000001, 20.82 6.105, 19.259999999999998 4.38 C 18.299999999999997 3.51, 17.82 3.075, 17.34 2.64 L 17.34 2.64" fill="none" stroke="black" stroke-width="5"></path></svg>