<svg width="48" height="48" viewBox="0 0 48 48" xmlns="http://www.w3.org/2000/svg"><path d="M 18.96 13.74 C 18.509999999999998 12.45, 18.57 12.39, 18.06 11.16 C 17.49 9.99, 17.444999999999997 9.795, 16.919999999999998 8.82 C 16.439999999999998 8.04, 16.335 7.77, 15.96 7.26 C 15.69 7.02, 15.779999999999998 6.975, 15.419999999999998 6.779999999999999 C 14.969999999999999 6.63, 15.059999999999999 6.51, 14.52 6.48 C 13.89 6.57, 13.89 6.375, 13.26 6.66 C 12.629999999999999 7.140000000000001, 12.525 7.1850000000000005, 12 7.62 C 11.58 8.01, 11.565000000000001 7.829999999999999, 11.16 8.399999999999999 C 10.77 9.149999999999999, 10.649999999999999 9.089999999999998, 10.379999999999999 9.899999999999999 C 10.23 10.77, 10.245 10.515, 10.08 11.64 C 9.9 13.02, 9.81 13.11, 9.72 14.399999999999999 C 9.72 15.599999999999998, 9.72 15.374999999999996, 9.72 16.799999999999997 C 9.72 18.45, 9.72 18.375, 9.72 20.1 C 9.72 21.900000000000002, 9.66 21.510000000000005, 9.72 23.700000000000003 C 9.84 26.28, 9.795 26.130000000000003, 9.959999999999999 28.86 C 10.169999999999998 31.74, 10.259999999999998 32.595, 10.379999999999999 34.62 C 10.41 35.79, 10.424999999999999 35.925, 10.44 36.96 C 10.44 37.86, 10.395 37.89, 10.44 38.76 C 10.530000000000001 39.599999999999994, 10.56 39.75, 10.620000000000001 40.44 C 10.65 40.98, 10.620000000000001 41.084999999999994, 10.68 41.519999999999996 C 10.77 41.849999999999994, 10.815 41.955, 10.86 42.18 C 10.86 42.3, 10.829999999999998 42.225, 10.86 42.42 C 10.92 42.69, 10.95 42.75, 10.98 42.96 C 10.98 43.11, 10.98 43.185, 10.98 43.26 L 10.98 43.26" fill="none" stroke="black" stroke-width="5"></path><path d="M 10.620000000000001 20.759999999999998 C 11.4 20.67, 11.205 20.73, 12.18 20.580000000000002 C 13.35 20.37, 13.094999999999999 20.37, 14.52 20.16 C 16.2 19.950000000000003, 16.424999999999997 19.89, 17.88 19.740000000000002 C 19.11 19.65, 19.125 19.605, 20.34 19.56 C 21.54 19.56, 21.750000000000004 19.56, 22.740000000000002 19.56 C 23.52 19.56, 23.504999999999995 19.424999999999997, 24.299999999999997 19.56 C 25.11 19.83, 25.275 19.8, 25.92 20.1 C 26.400000000000002 20.43, 26.505000000000003 20.294999999999998, 26.880000000000003 20.759999999999998 C 27.150000000000002 21.36, 27.240000000000002 21.18, 27.42 21.96 C 27.509999999999998 22.92, 27.555 23.04, 27.599999999999998 23.88 C 27.599999999999998 24.6, 27.644999999999996 24.825, 27.599999999999998 25.32 C 27.509999999999998 25.59, 27.6 25.575, 27.42 25.86 C 27.150000000000002 26.16, 27.42 26.145000000000003, 26.880000000000003 26.46 C 26.07 26.79, 26.384999999999998 26.729999999999997, 25.259999999999998 27.119999999999997 C 23.82 27.57, 23.445 27.72, 22.38 28.02 C 21.689999999999998 28.17, 21.39 28.245, 21 28.32 C 20.91 28.32, 20.865000000000002 28.32, 20.82 28.32 C 20.82 28.32, 20.82 28.32, 20.82 28.32 C 20.82 28.32, 20.82 28.32, 20.82 28.32 L 20.82 28.32" fill="none" stroke="black" stroke-width="5"></path></svg>