<svg width="48" height="48" viewBox="0 0 48 48" xmlns="http://www.w3.org/2000/svg"><path d="M 18.72 17.4 C 18.72 16.47, 18.765 16.38, 18.72 15.54 C 18.63 14.79, 18.689999999999998 14.879999999999999, 18.54 14.04 C 18.33 13.11, 18.255000000000003 12.795, 18.12 12.18 C 18.060000000000002 11.879999999999999, 18.285 12.045, 18 11.58 C 17.490000000000002 10.95, 17.490000000000002 10.905000000000001, 16.98 10.32 C 16.47 9.780000000000001, 16.635 9.645, 15.96 9.24 C 15.120000000000001 8.969999999999999, 14.985 8.834999999999999, 14.28 8.7 C 13.71 8.7, 13.65 8.7, 13.14 8.7 C 12.690000000000001 8.7, 12.690000000000001 8.7, 12.24 8.7 C 11.79 8.7, 11.879999999999999 8.504999999999999, 11.34 8.7 C 10.71 9.09, 10.68 8.925, 10.08 9.48 C 9.51 10.2, 9.405 10.11, 8.94 10.92 C 8.58 11.82, 8.58 11.625, 8.22 12.72 C 7.86 14.01, 7.725 13.965, 7.5 15.299999999999999 C 7.41 16.68, 7.425000000000001 16.544999999999998, 7.32 18.06 C 7.2 19.71, 7.26 19.259999999999998, 7.08 21.36 C 6.84 23.91, 6.75 24.435000000000002, 6.6000000000000005 26.46 C 6.540000000000001 27.96, 6.525 27.990000000000002, 6.48 29.46 C 6.45 30.9, 6.4350000000000005 30.779999999999994, 6.42 32.339999999999996 C 6.42 34.019999999999996, 6.33 34.245000000000005, 6.42 35.7 C 6.6 36.93000000000001, 6.584999999999999 36.94500000000001, 6.779999999999999 38.160000000000004 C 6.989999999999999 39.36, 6.989999999999999 39.495000000000005, 7.199999999999999 40.56 C 7.41 41.49, 7.4399999999999995 41.595, 7.62 42.42 C 7.77 43.14, 7.83 43.364999999999995, 7.92 43.86 C 7.95 44.13, 7.965 44.145, 7.98 44.400000000000006 C 7.98 44.64, 7.9350000000000005 44.61, 7.98 44.88 C 8.07 45.18000000000001, 8.115 45.330000000000005, 8.16 45.480000000000004 C 8.16 45.480000000000004, 8.16 45.480000000000004, 8.16 45.480000000000004 L 8.16 45.480000000000004" fill="none" stroke="black" stroke-width="5"></path><path d="M 7.199999999999999 23.52 C 7.47 23.490000000000002, 7.35 23.475, 7.74 23.46 C 8.25 23.46, 8.175 23.46, 8.76 23.46 C 9.42 23.46, 9.435 23.46, 10.08 23.46 C 10.71 23.46, 10.709999999999999 23.295, 11.34 23.46 C 11.97 23.79, 12.000000000000002 23.684999999999995, 12.600000000000001 24.119999999999997 C 13.170000000000002 24.66, 13.23 24.705000000000002, 13.74 25.200000000000003 C 14.190000000000001 25.65, 14.175 25.619999999999997, 14.64 26.099999999999998 C 15.120000000000001 26.61, 15.180000000000001 26.49, 15.600000000000001 27.119999999999997 C 15.96 27.869999999999997, 16.065 27.9, 16.32 28.619999999999997 C 16.47 29.31, 16.5 29.28, 16.62 30 C 16.71 30.75, 16.724999999999998 30.915, 16.799999999999997 31.5 C 16.86 31.919999999999998, 16.889999999999997 32.129999999999995, 16.919999999999998 32.339999999999996 C 16.919999999999998 32.339999999999996, 16.919999999999998 32.339999999999996, 16.919999999999998 32.339999999999996 C 16.919999999999998 32.339999999999996, 16.904999999999998 32.309999999999995, 16.919999999999998 32.339999999999996 C 16.95 32.4, 16.965 32.43, 16.98 32.46 C 16.98 32.46, 16.92 32.415, 16.98 32.46 C 17.1 32.55, 17.16 32.595, 17.22 32.64 C 17.22 32.64, 17.22 32.64, 17.22 32.64 C 17.22 32.64, 17.085 32.67, 17.22 32.64 C 17.49 32.58, 17.009999999999998 32.63999999999999, 17.759999999999998 32.519999999999996 C 18.99 32.34, 19.095 32.25, 20.22 32.160000000000004 C 21.24 32.160000000000004, 21.404999999999998 32.13, 22.259999999999998 32.160000000000004 C 22.95 32.22, 23.115000000000002 32.190000000000005, 23.64 32.28 C 24 32.4, 23.835 32.22, 24.36 32.519999999999996 C 25.05 33, 25.17 33.045, 25.740000000000002 33.480000000000004 C 26.19 33.870000000000005, 26.205000000000002 33.825, 26.64 34.26 C 27.060000000000002 34.739999999999995, 27.12 34.575, 27.48 35.22 C 27.78 36.03, 27.9 36.17999999999999, 28.08 36.839999999999996 C 28.14 37.349999999999994, 28.17 37.26, 28.200000000000003 37.86 C 28.200000000000003 38.55, 28.275000000000002 38.595, 28.200000000000003 39.24 C 28.050000000000004 39.84, 28.095000000000002 39.9, 27.900000000000002 40.44 C 27.660000000000004 40.92, 27.720000000000002 41.010000000000005, 27.42 41.400000000000006 C 27.060000000000002 41.7, 27.090000000000003 41.775000000000006, 26.700000000000003 42 C 26.28 42.15, 26.385 42.165, 25.86 42.3 C 25.229999999999997 42.42, 25.169999999999998 42.48, 24.599999999999998 42.54 C 24.09 42.54, 23.970000000000002 42.54, 23.580000000000002 42.54 C 23.310000000000002 42.54, 23.265 42.555, 23.04 42.54 C 22.86 42.510000000000005, 22.875 42.63, 22.68 42.480000000000004 C 22.47 42.21, 22.485 42.39, 22.259999999999998 41.94 C 22.02 41.31, 21.9 41.085, 21.78 40.68 C 21.78 40.5, 21.78 40.665, 21.78 40.32 C 21.78 39.81, 21.495 39.885, 21.78 39.3 C 22.35 38.64, 22.215 38.550000000000004, 22.919999999999998 37.980000000000004 C 23.759999999999998 37.5, 24.014999999999997 37.28999999999999, 24.599999999999998 37.019999999999996 C 24.93 36.96, 24.974999999999998 36.93000000000001, 25.259999999999998 36.900000000000006 C 25.5 36.900000000000006, 25.410000000000004 36.900000000000006, 25.740000000000002 36.900000000000006 C 26.16 36.900000000000006, 26.235 36.855000000000004, 26.58 36.900000000000006 C 26.849999999999998 36.99, 26.939999999999998 37.019999999999996, 27.119999999999997 37.08 C 27.209999999999997 37.11, 27.15 37.05, 27.299999999999997 37.14 C 27.509999999999998 37.29, 27.569999999999997 37.32, 27.72 37.44 C 27.810000000000002 37.53, 27.69 37.379999999999995, 27.900000000000002 37.62 C 28.23 38.010000000000005, 28.395 38.205000000000005, 28.56 38.400000000000006 C 28.56 38.400000000000006, 28.56 38.400000000000006, 28.56 38.400000000000006 L 28.56 38.400000000000006" fill="none" stroke="black" stroke-width="5"></path></svg>