<svg width="48" height="48" viewBox="0 0 48 48" xmlns="http://www.w3.org/2000/svg"><path d="M 18.240000000000002 10.620000000000001 C 18 9.870000000000001, 18.029999999999998 9.915000000000001, 17.759999999999998 9.120000000000001 C 17.46 8.280000000000001, 17.43 8.1, 17.16 7.4399999999999995 C 16.92 6.96, 16.935 6.855, 16.68 6.48 C 16.41 6.21, 16.455000000000002 6.239999999999999, 16.14 5.9399999999999995 C 15.78 5.609999999999999, 15.929999999999998 5.55, 15.419999999999998 5.28 C 14.76 5.07, 14.595 4.965, 14.100000000000001 4.86 C 13.770000000000001 4.86, 13.845000000000002 4.710000000000001, 13.440000000000001 4.86 C 12.96 5.16, 12.9 5.04, 12.48 5.46 C 12.120000000000001 6, 12.15 5.655000000000001, 11.76 6.540000000000001 C 11.34 7.7700000000000005, 11.25 7.68, 10.92 9 C 10.68 10.41, 10.559999999999999 10.275, 10.44 11.82 C 10.44 13.5, 10.44 13.635, 10.44 15.18 C 10.44 16.59, 10.44 16.305, 10.44 18 C 10.44 19.98, 10.44 19.995, 10.44 21.96 C 10.44 23.91, 10.44 23.939999999999998, 10.44 25.86 C 10.44 27.75, 10.44 28.035, 10.44 29.64 C 10.44 30.96, 10.44 31.17, 10.44 32.28 C 10.44 33.18, 10.334999999999999 32.894999999999996, 10.44 34.08 C 10.649999999999999 35.55, 10.709999999999999 35.864999999999995, 10.86 37.019999999999996 C 10.95 37.86, 10.950000000000001 37.83, 11.040000000000001 38.7 C 11.13 39.6, 11.175 39.915, 11.22 40.5 C 11.22 40.769999999999996, 11.22 40.65, 11.22 41.04 C 11.22 41.55, 11.22 41.715, 11.22 42.06 C 11.22 42.24, 11.22 42.285000000000004, 11.22 42.42 C 11.22 42.51, 11.22 42.55499999999999, 11.22 42.599999999999994 C 11.22 42.599999999999994, 11.22 42.599999999999994, 11.22 42.599999999999994 C 11.22 42.599999999999994, 11.22 42.599999999999994, 11.22 42.599999999999994 C 11.22 42.599999999999994, 11.22 42.599999999999994, 11.22 42.599999999999994 C 11.22 42.599999999999994, 11.22 42.599999999999994, 11.22 42.599999999999994 L 11.22 42.599999999999994" fill="none" stroke="black" stroke-width="5"></path><path d="M 11.040000000000001 36.36 C 11.580000000000002 36.33, 11.475000000000001 36.315, 12.120000000000001 36.3 C 12.870000000000001 36.3, 12.870000000000001 36.3, 13.620000000000001 36.3 C 14.370000000000001 36.3, 14.655000000000001 36.3, 15.120000000000001 36.3 L 15.48 36.3" fill="none" stroke="black" stroke-width="5"></path><path d="M 10.8 19.740000000000002 C 11.31 19.68, 11.115 19.635, 11.82 19.62 C 12.72 19.65, 12.495000000000001 19.665, 13.620000000000001 19.68 C 14.97 19.68, 14.940000000000001 19.68, 16.32 19.68 C 17.73 19.68, 18.135 19.68, 19.14 19.68 C 19.740000000000002 19.68, 19.845 19.634999999999998, 20.34 19.68 C 20.73 19.77, 20.67 19.77, 21.12 19.86 C 21.630000000000003 19.95, 21.630000000000003 19.994999999999997, 22.14 20.04 C 22.65 20.04, 22.815 20.04, 23.16 20.04 C 23.34 20.04, 23.43 20.04, 23.52 20.04 L 23.52 20.04" fill="none" stroke="black" stroke-width="5"></path></svg>