<svg width="48" height="48" viewBox="0 0 48 48" xmlns="http://www.w3.org/2000/svg"><path d="M 17.46 12.18 C 17.4 11.16, 17.625 11.205, 17.34 10.14 C 16.83 9.030000000000001, 16.875 8.94, 16.32 7.92 C 15.72 6.99, 15.84 6.915000000000001, 15.120000000000001 6.0600000000000005 C 14.280000000000001 5.28, 14.205000000000002 5.04, 13.440000000000001 4.5 C 12.75 4.2, 12.659999999999998 4.095000000000001, 12.059999999999999 3.9000000000000004 C 11.55 3.81, 11.745000000000001 3.75, 11.040000000000001 3.7199999999999998 C 10.14 3.75, 10.11 3.3600000000000003, 9.24 3.7800000000000002 C 8.4 4.59, 8.22 4.575, 7.5600000000000005 5.4 C 7.08 6.24, 6.930000000000001 6.0600000000000005, 6.6000000000000005 7.08 C 6.42 8.280000000000001, 6.390000000000001 8.07, 6.24 9.48 C 6.12 11.100000000000001, 6.0600000000000005 11.04, 6 12.72 C 6 14.46, 5.88 14.355000000000002, 6 16.200000000000003 C 6.24 18.150000000000002, 6.255000000000001 18.57, 6.48 20.1 C 6.6899999999999995 21.21, 6.6899999999999995 21.225, 6.8999999999999995 22.32 C 7.109999999999999 23.4, 7.140000000000001 23.52, 7.32 24.48 C 7.470000000000001 25.32, 7.5 25.380000000000003, 7.62 26.160000000000004 C 7.710000000000001 26.880000000000003, 7.7250000000000005 27.195, 7.800000000000001 27.599999999999998 C 7.86 27.689999999999998, 7.890000000000001 27.735, 7.92 27.78 C 7.92 27.78, 7.92 27.78, 7.92 27.78 L 7.92 27.78" fill="none" stroke="black" stroke-width="5"></path><path d="M 6.6000000000000005 19.56 C 7.050000000000001 19.56, 6.8100000000000005 19.619999999999997, 7.5 19.56 C 8.43 19.439999999999998, 8.37 19.425, 9.36 19.32 C 10.41 19.23, 10.35 19.23, 11.459999999999999 19.14 C 12.629999999999999 19.05, 12.239999999999998 19.065, 13.799999999999999 18.96 C 15.75 18.84, 16.065 18.78, 17.700000000000003 18.72 C 19.020000000000003 18.72, 19.095 18.72, 20.34 18.72 C 21.509999999999998 18.72, 21.675 18.72, 22.68 18.72 C 23.52 18.72, 23.25 18.689999999999998, 24.36 18.72 C 25.74 18.78, 26.055 18.78, 27.119999999999997 18.84 C 27.869999999999997 18.9, 27.884999999999998 18.87, 28.619999999999997 18.96 C 29.339999999999996 19.080000000000002, 29.7 19.14, 30.06 19.200000000000003 L 30.06 19.200000000000003" fill="none" stroke="black" stroke-width="5"></path><path d="M 13.620000000000001 19.200000000000003 C 13.620000000000001 20.61, 13.620000000000001 20.235, 13.620000000000001 22.02 C 13.620000000000001 24.18, 13.680000000000001 24.014999999999997, 13.620000000000001 26.339999999999996 C 13.5 28.83, 13.44 29.43, 13.379999999999999 31.32 C 13.379999999999999 32.61, 13.379999999999999 32.47500000000001, 13.379999999999999 33.900000000000006 C 13.379999999999999 35.46, 13.379999999999999 35.565, 13.379999999999999 37.019999999999996 C 13.379999999999999 38.37, 13.379999999999999 38.519999999999996, 13.379999999999999 39.72 C 13.379999999999999 40.769999999999996, 13.319999999999999 40.89, 13.379999999999999 41.82 C 13.5 42.629999999999995, 13.56 42.9, 13.620000000000001 43.44 C 13.620000000000001 43.71, 13.620000000000001 43.845, 13.620000000000001 43.980000000000004 C 13.620000000000001 43.980000000000004, 13.620000000000001 43.980000000000004, 13.620000000000001 43.980000000000004 C 13.620000000000001 43.980000000000004, 13.620000000000001 43.980000000000004, 13.620000000000001 43.980000000000004 C 13.620000000000001 43.980000000000004, 13.605 43.89000000000001, 13.620000000000001 43.980000000000004 C 13.65 44.16, 13.665 44.25, 13.68 44.339999999999996 L 13.68 44.339999999999996" fill="none" stroke="black" stroke-width="5"></path><path d="M 13.86 43.8 C 13.95 42.42, 13.799999999999999 42.09, 14.04 41.04 C 14.43 40.31999999999999, 14.43 40.24499999999999, 14.82 39.599999999999994 C 15.21 39.03, 14.985000000000001 39.165, 15.600000000000001 38.46 C 16.44 37.620000000000005, 16.380000000000003 37.545, 17.28 36.78 C 18.240000000000002 36.09, 18.090000000000003 36.09, 19.200000000000003 35.400000000000006 C 20.46 34.71, 20.64 34.559999999999995, 21.72 34.019999999999996 C 22.619999999999997 33.629999999999995, 22.8 33.555, 23.52 33.24 C 24.06 33, 23.909999999999997 33, 24.599999999999998 32.76 C 25.439999999999998 32.519999999999996, 25.650000000000002 32.4, 26.28 32.28 C 26.7 32.28, 26.744999999999997 32.28, 27.119999999999997 32.28 C 27.45 32.28, 27.555 32.28, 27.78 32.28 C 27.9 32.28, 27.765 32.28, 28.02 32.28 C 28.409999999999997 32.28, 28.604999999999997 32.28, 28.799999999999997 32.28 C 28.799999999999997 32.28, 28.799999999999997 32.28, 28.799999999999997 32.28 L 28.799999999999997 32.28" fill="none" stroke="black" stroke-width="5"></path></svg>