<svg width="48" height="48" viewBox="0 0 48 48" xmlns="http://www.w3.org/2000/svg"><path d="M 18.84 12.54 C 18.66 11.459999999999999, 18.825 11.655, 18.48 10.379999999999999 C 17.97 8.91, 17.955000000000002 8.625, 17.46 7.4399999999999995 C 16.98 6.539999999999999, 17.19 6.465, 16.5 5.64 C 15.600000000000001 4.89, 15.48 4.6499999999999995, 14.700000000000001 4.14 C 14.04 3.8699999999999997, 14.129999999999999 3.7349999999999994, 13.379999999999999 3.5999999999999996 C 12.54 3.5999999999999996, 12.405 3.3599999999999994, 11.7 3.5999999999999996 C 11.129999999999999 4.08, 11.085 3.9300000000000006, 10.56 4.5600000000000005 C 10.080000000000002 5.34, 10.065000000000001 5.28, 9.600000000000001 6.12 C 9.15 7.02, 9.045 7.005, 8.7 7.92 C 8.46 8.85, 8.49 8.52, 8.22 9.78 C 7.92 11.370000000000001, 7.905 11.25, 7.62 12.96 C 7.35 14.790000000000001, 7.245 14.850000000000001, 7.08 16.62 C 7.02 18.33, 7.034999999999999 18.57, 6.959999999999999 20.04 C 6.869999999999999 21.27, 6.824999999999999 21.15, 6.779999999999999 22.5 C 6.779999999999999 23.97, 6.779999999999999 23.805, 6.779999999999999 25.44 C 6.779999999999999 27.240000000000002, 6.779999999999999 27.39, 6.779999999999999 29.04 C 6.779999999999999 30.54, 6.779999999999999 30.824999999999996, 6.779999999999999 32.04 C 6.779999999999999 32.97, 6.645 32.940000000000005, 6.779999999999999 33.900000000000006 C 7.05 34.89, 7.0649999999999995 35.010000000000005, 7.32 35.88 C 7.5600000000000005 36.63, 7.500000000000001 36.645, 7.800000000000001 37.38 C 8.16 38.1, 8.205 38.175, 8.52 38.82 C 8.79 39.39, 8.745000000000001 39.405, 9.06 39.96 C 9.42 40.5, 9.434999999999999 40.56, 9.78 41.04 C 10.11 41.46, 10.155 41.535000000000004, 10.44 41.88 C 10.68 42.150000000000006, 10.635 42.135000000000005, 10.92 42.42 C 11.25 42.72, 11.28 42.809999999999995, 11.58 43.019999999999996 C 11.850000000000001 43.14, 11.670000000000002 43.11, 12.120000000000001 43.26 C 12.75 43.44, 12.84 43.44, 13.379999999999999 43.62 C 13.829999999999998 43.8, 13.785 43.89, 14.28 43.980000000000004 C 14.82 43.980000000000004, 14.879999999999999 43.980000000000004, 15.36 43.980000000000004 C 15.780000000000001 43.980000000000004, 15.825000000000003 43.980000000000004, 16.200000000000003 43.980000000000004 C 16.53 43.980000000000004, 16.47 44.07000000000001, 16.86 43.980000000000004 C 17.31 43.8, 17.264999999999997 43.995, 17.759999999999998 43.62 C 18.299999999999997 43.05, 18.345 43.275000000000006, 18.84 42.480000000000004 C 19.29 41.46, 19.455000000000002 41.37, 19.740000000000002 40.44 C 19.86 39.599999999999994, 19.92 39.315, 19.98 38.76 C 19.98 38.489999999999995, 19.98 38.519999999999996, 19.98 38.22 C 19.98 37.89, 19.98 37.725, 19.98 37.56 C 19.98 37.56, 19.98 37.56, 19.98 37.56 C 19.98 37.56, 19.98 37.56, 19.98 37.56 L 19.98 37.56" fill="none" stroke="black" stroke-width="5"></path><path d="M 7.02 31.799999999999997 C 7.949999999999999 31.799999999999997, 7.259999999999999 32.084999999999994, 8.879999999999999 31.799999999999997 C 11.19 31.23, 11.94 31.335000000000004, 13.5 30.660000000000004 C 14.31 29.880000000000003, 14.475000000000001 29.88, 15.120000000000001 29.099999999999998 C 15.600000000000001 28.32, 15.795000000000002 28.214999999999996, 16.080000000000002 27.54 C 16.17 26.97, 16.215 26.805, 16.259999999999998 26.400000000000002 C 16.259999999999998 26.160000000000004, 16.259999999999998 26.040000000000003, 16.259999999999998 25.92 C 16.259999999999998 25.92, 16.259999999999998 25.965000000000003, 16.259999999999998 25.92 C 16.259999999999998 25.830000000000002, 16.259999999999998 25.785000000000004, 16.259999999999998 25.740000000000002 C 16.259999999999998 25.740000000000002, 16.259999999999998 25.560000000000002, 16.259999999999998 25.740000000000002 C 16.259999999999998 26.1, 16.259999999999998 25.830000000000002, 16.259999999999998 26.46 C 16.259999999999998 27.36, 16.185 27.599999999999998, 16.259999999999998 28.259999999999998 C 16.409999999999997 28.68, 16.38 28.65, 16.56 29.099999999999998 C 16.77 29.58, 16.634999999999998 29.58, 16.98 30.06 C 17.46 30.54, 17.415 30.599999999999998, 17.94 31.02 C 18.51 31.380000000000003, 18.555000000000003 31.44, 19.080000000000002 31.740000000000002 C 19.560000000000002 31.98, 19.47 32.055, 20.04 32.22 C 20.7 32.31, 20.49 32.355000000000004, 21.36 32.400000000000006 C 22.439999999999998 32.400000000000006, 22.5 32.43000000000001, 23.52 32.400000000000006 C 24.48 32.34, 24.705000000000002 32.370000000000005, 25.44 32.28 C 25.950000000000003 32.16, 26.025000000000002 32.16, 26.46 32.04 C 26.82 31.919999999999998, 26.97 31.86, 27.18 31.799999999999997 C 27.24 31.799999999999997, 27.269999999999996 31.799999999999997, 27.299999999999997 31.799999999999997 C 27.299999999999997 31.799999999999997, 27.299999999999997 31.799999999999997, 27.299999999999997 31.799999999999997 L 27.299999999999997 31.799999999999997" fill="none" stroke="black" stroke-width="5"></path></svg>