<svg width="48" height="48" viewBox="0 0 48 48" xmlns="http://www.w3.org/2000/svg"><path d="M 11.34 14.52 C 11.34 13.74, 11.43 14.085, 11.34 12.96 C 11.16 11.49, 11.190000000000001 11.265, 10.98 10.02 C 10.74 9, 10.725 8.805, 10.5 7.98 C 10.29 7.3500000000000005, 10.305 7.470000000000001, 10.08 6.720000000000001 C 9.84 5.85, 9.795000000000002 5.58, 9.600000000000001 4.9799999999999995 C 9.450000000000001 4.65, 9.510000000000002 4.65, 9.3 4.32 C 9.030000000000001 3.99, 9.015 3.915, 8.76 3.66 C 8.52 3.4800000000000004, 8.594999999999999 3.4050000000000002, 8.28 3.3000000000000003 C 7.89 3.2700000000000005, 7.875 3.2550000000000003, 7.5 3.24 C 7.14 3.24, 7.215 3.1500000000000004, 6.779999999999999 3.24 C 6.27 3.42, 6.21 3.2699999999999996, 5.76 3.5999999999999996 C 5.369999999999999 4.08, 5.444999999999999 3.7500000000000004, 4.9799999999999995 4.5600000000000005 C 4.4399999999999995 5.7, 4.41 5.385, 3.9000000000000004 6.84 C 3.42 8.61, 3.18 8.534999999999998, 2.94 10.379999999999999 C 2.94 12.3, 2.94 12.435, 2.94 14.22 C 2.94 15.870000000000001, 2.94 15.629999999999999, 2.94 17.52 C 2.94 19.65, 2.94 19.815, 2.94 21.78 C 2.94 23.580000000000002, 2.94 23.685000000000002, 2.94 25.380000000000003 C 2.94 26.97, 2.8649999999999998 27, 2.94 28.56 C 3.09 30.089999999999996, 3.0900000000000003 30.435, 3.24 31.619999999999997 C 3.39 32.459999999999994, 3.3449999999999998 32.355, 3.54 33.3 C 3.7800000000000002 34.35, 3.7200000000000006 34.395, 4.0200000000000005 35.400000000000006 C 4.380000000000001 36.36, 4.41 36.405, 4.74 37.32 C 5.04 38.19, 5.13 38.49, 5.34 39.06 C 5.46 39.33, 5.355 39.3, 5.58 39.599999999999994 C 5.91 39.92999999999999, 5.985 40.035, 6.24 40.26 C 6.42 40.379999999999995, 6.48 40.44, 6.6000000000000005 40.5 C 6.66 40.5, 6.645000000000001 40.5, 6.720000000000001 40.5 C 6.8100000000000005 40.5, 6.779999999999999 40.5, 6.8999999999999995 40.5 C 7.049999999999999 40.5, 6.929999999999999 40.71, 7.199999999999999 40.5 C 7.59 40.08, 7.62 40.17, 7.98 39.660000000000004 C 8.31 39.06, 8.355 39.075, 8.64 38.46 C 8.88 37.83, 8.940000000000001 37.830000000000005, 9.120000000000001 37.2 C 9.24 36.57, 9.209999999999999 36.885, 9.36 35.94 C 9.54 34.68, 9.63 34.8, 9.72 33.42 C 9.72 31.92, 9.72 31.815000000000005, 9.72 30.42 C 9.72 29.13, 9.72 28.485, 9.72 27.839999999999996 C 9.72 27.839999999999996, 9.72 27.839999999999996, 9.72 27.839999999999996 C 9.72 27.839999999999996, 9.600000000000001 27.779999999999994, 9.72 27.839999999999996 C 9.96 27.959999999999997, 10.035 27.494999999999997, 10.2 28.08 C 10.29 29.13, 10.274999999999999 28.935, 10.379999999999999 30.18 C 10.5 31.62, 10.485000000000001 31.785000000000004, 10.620000000000001 33.06 C 10.77 34.17, 10.695 34.245000000000005, 10.92 35.28 C 11.219999999999999 36.24, 11.145 36.39, 11.52 37.2 C 11.969999999999999 37.86, 11.354999999999999 37.785, 12.419999999999998 38.519999999999996 C 14.099999999999998 39.33, 14.099999999999998 39.735, 15.78 40.14 C 17.46 40.14, 17.745 40.17, 19.14 40.14 C 20.25 40.08, 20.46 40.11, 21.36 40.019999999999996 C 22.05 39.9, 22.35 39.84, 22.740000000000002 39.78 C 22.83 39.78, 22.875 39.78, 22.919999999999998 39.78 L 22.919999999999998 39.78" fill="none" stroke="black" stroke-width="5"></path></svg>