<svg width="48" height="48" viewBox="0 0 48 48" xmlns="http://www.w3.org/2000/svg"><path d="M 18.9 13.919999999999998 C 18.93 13.29, 19.185000000000002 13.695, 18.96 12.66 C 18.48 11.219999999999999, 18.405 10.905, 18 9.78 C 17.67 8.969999999999999, 17.775 8.865, 17.34 8.16 C 16.799999999999997 7.56, 16.755 7.379999999999999, 16.259999999999998 6.959999999999999 C 15.809999999999999 6.72, 16.154999999999998 6.57, 15.36 6.48 C 14.22 6.540000000000001, 14.055000000000001 6.2250000000000005, 13.080000000000002 6.6000000000000005 C 12.27 7.290000000000001, 12.24 7.155000000000001, 11.459999999999999 7.98 C 10.709999999999999 8.94, 10.634999999999998 8.639999999999999, 9.959999999999999 9.899999999999999 C 9.36 11.459999999999999, 9.27 11.444999999999999, 8.76 13.02 C 8.34 14.610000000000001, 8.31 14.535000000000004, 7.92 16.200000000000003 C 7.56 17.94, 7.379999999999999 17.97, 7.199999999999999 19.68 C 7.199999999999999 21.36, 7.049999999999999 21.84, 7.199999999999999 23.04 C 7.5 23.759999999999998, 7.455 23.835, 7.800000000000001 24.48 C 8.190000000000001 25.049999999999997, 8.16 25.139999999999997, 8.58 25.619999999999997 C 9.030000000000001 26.009999999999998, 9.165000000000001 26.160000000000004, 9.48 26.400000000000002 C 9.66 26.490000000000002, 9.57 26.52, 9.84 26.58 C 10.2 26.61, 10.08 26.655, 10.56 26.64 C 11.16 26.58, 11.129999999999999 26.744999999999997, 11.76 26.52 C 12.420000000000002 26.130000000000003, 12.525000000000002 26.19, 13.080000000000002 25.740000000000002 C 13.530000000000001 25.23, 13.530000000000001 25.29, 13.98 24.72 C 14.43 24.09, 14.594999999999999 24.045, 14.879999999999999 23.46 C 15 22.92, 15.06 22.74, 15.120000000000001 22.38 C 15.120000000000001 22.2, 15.120000000000001 22.11, 15.120000000000001 22.02 C 15.120000000000001 22.02, 15.120000000000001 21.93, 15.120000000000001 22.02 C 15.120000000000001 22.2, 15.225000000000001 21.884999999999998, 15.120000000000001 22.38 C 14.91 23.189999999999998, 14.805000000000001 23.385, 14.700000000000001 24 C 14.700000000000001 24.419999999999998, 14.64 24.359999999999996, 14.700000000000001 24.839999999999996 C 14.82 25.38, 14.655000000000001 25.380000000000003, 14.940000000000001 25.92 C 15.39 26.46, 15.24 26.520000000000003, 15.84 27 C 16.59 27.419999999999998, 16.395 27.509999999999998, 17.34 27.839999999999996 C 18.48 28.08, 18.465 28.169999999999998, 19.62 28.32 C 20.79 28.380000000000003, 20.55 28.455000000000002, 21.96 28.44 C 23.61 28.35, 23.564999999999998 28.544999999999998, 25.259999999999998 28.259999999999998 C 27 27.779999999999998, 27.87 27.54, 28.740000000000002 27.299999999999997 C 28.740000000000002 27.299999999999997, 28.740000000000002 27.299999999999997, 28.740000000000002 27.299999999999997 L 28.740000000000002 27.299999999999997" fill="none" stroke="black" stroke-width="5"></path><path d="M 6.36 44.099999999999994 C 7.41 44.129999999999995, 7.379999999999999 44.265, 8.459999999999999 44.160000000000004 C 9.57 43.92, 9.555 44.175, 10.68 43.68 C 11.82 42.93, 11.865000000000002 43.11, 12.96 42.18 C 14.01 41.07, 14.249999999999998 40.965, 15.059999999999999 39.96 C 15.63 39.06, 15.690000000000001 39.21000000000001, 16.200000000000003 38.160000000000004 C 16.650000000000002 36.96, 16.680000000000003 36.93, 17.1 35.76 C 17.490000000000002 34.620000000000005, 17.625 34.650000000000006, 17.88 33.480000000000004 C 18 32.28, 17.97 32.235, 18.12 31.08 C 18.3 29.97, 18.39 29.549999999999997, 18.48 28.86 C 18.48 28.59, 18.48 28.455, 18.48 28.32 C 18.48 28.32, 18.48 28.32, 18.48 28.32 C 18.48 28.32, 18.48 28.32, 18.48 28.32 C 18.48 28.32, 18.495 28.245, 18.48 28.32 C 18.45 28.47, 18.465 28.185, 18.419999999999998 28.619999999999997 C 18.36 29.339999999999996, 18.464999999999996 28.949999999999996, 18.299999999999997 30.06 C 18.029999999999998 31.560000000000002, 17.909999999999997 31.875000000000004, 17.759999999999998 33.06 C 17.73 33.93, 17.67 33.75, 17.700000000000003 34.8 C 17.79 36.03, 17.67 36.19499999999999, 17.88 37.26 C 18.21 38.16, 18.209999999999997 38.265, 18.54 39.06 C 18.87 39.75, 18.840000000000003 39.885, 19.200000000000003 40.44 C 19.590000000000003 40.86, 19.560000000000002 40.89, 19.98 41.28 C 20.43 41.64, 20.384999999999998 41.685, 20.88 42 C 21.42 42.269999999999996, 21.330000000000002 42.239999999999995, 21.96 42.54 C 22.68 42.870000000000005, 22.784999999999997 42.945, 23.4 43.2 C 23.91 43.38, 23.625 43.38, 24.42 43.56 C 25.5 43.74, 25.589999999999996 43.77, 26.58 43.92 C 27.48 44.040000000000006, 27.870000000000005 44.1, 28.380000000000003 44.160000000000004 C 28.5 44.160000000000004, 28.56 44.160000000000004, 28.619999999999997 44.160000000000004 L 28.619999999999997 44.160000000000004" fill="none" stroke="black" stroke-width="5"></path></svg>