<svg width="48" height="48" viewBox="0 0 48 48" xmlns="http://www.w3.org/2000/svg"><path d="M 20.580000000000002 17.82 C 20.67 17.31, 20.985 18.044999999999998, 20.759999999999998 16.799999999999997 C 20.22 14.819999999999999, 20.34 14.684999999999999, 19.68 12.84 C 18.9 11.129999999999999, 18.72 10.59, 18.12 9.42 C 17.700000000000003 8.79, 17.865000000000002 8.745000000000001, 17.28 8.16 C 16.53 7.62, 16.485 7.35, 15.78 7.08 C 15.120000000000001 7.08, 15.105 6.975, 14.46 7.08 C 13.830000000000002 7.29, 13.785 7.08, 13.200000000000001 7.5 C 12.66 8.129999999999999, 12.690000000000001 7.845, 12.120000000000001 8.76 C 11.52 9.96, 11.46 9.615, 10.92 11.16 C 10.44 13.05, 10.2 13.335, 9.959999999999999 14.940000000000001 C 9.959999999999999 16.26, 9.884999999999998 16.500000000000004, 9.959999999999999 17.580000000000002 C 10.11 18.42, 9.855 18.33, 10.26 19.259999999999998 C 10.92 20.279999999999998, 10.905 20.609999999999996, 11.58 21.299999999999997 C 12.27 21.659999999999997, 11.985000000000001 21.735, 12.96 22.02 C 14.22 22.23, 14.085 22.23, 15.48 22.44 C 17.009999999999998 22.65, 17.25 22.785, 18.54 22.86 C 19.59 22.8, 19.335 22.92, 20.64 22.740000000000002 C 22.2 22.44, 22.424999999999997 22.380000000000003, 23.759999999999998 22.14 C 24.869999999999997 21.96, 24.975 21.87, 25.98 21.78 C 26.880000000000003 21.78, 27.195 21.75, 27.78 21.78 C 28.05 21.84, 27.9 21.659999999999997, 28.32 21.9 C 28.89 22.32, 28.965000000000003 22.245, 29.46 22.740000000000002 C 29.88 23.310000000000002, 29.939999999999998 23.16, 30.299999999999997 23.88 C 30.6 24.75, 30.705000000000002 24.824999999999996, 30.900000000000002 25.619999999999997 C 30.990000000000002 26.339999999999996, 31.049999999999997 25.74, 31.08 27.06 C 31.049999999999997 28.98, 31.215 29.07, 31.02 30.900000000000002 C 30.659999999999997 32.64, 30.689999999999998 32.745000000000005, 30.299999999999997 34.38 C 29.88 35.91, 29.955 36.059999999999995, 29.46 37.44 C 28.89 38.67, 29.009999999999998 38.7, 28.32 39.900000000000006 C 27.51 41.07000000000001, 27.6 41.235, 26.700000000000003 42.24 C 25.71 43.08, 25.634999999999998 43.260000000000005, 24.72 43.92 C 23.88 44.400000000000006, 23.715 44.535000000000004, 23.04 44.88 C 22.53 45.09, 22.544999999999998 45.195, 22.02 45.3 C 21.48 45.3, 21.450000000000003 45.3, 20.94 45.3 C 20.46 45.3, 20.415 45.36, 19.98 45.3 C 19.590000000000003 45.18, 19.620000000000005 45.36, 19.200000000000003 45.06 C 18.75 44.58, 18.599999999999998 44.80499999999999, 18.299999999999997 44.099999999999994 C 18.15 43.17, 17.924999999999997 43.32, 18 42.24 C 18.3 41.010000000000005, 18.03 40.89, 18.6 39.78 C 19.44 38.79, 19.485 38.504999999999995, 20.28 37.8 C 21.03 37.379999999999995, 20.745 37.394999999999996, 21.78 36.96 C 23.1 36.510000000000005, 23.28 36.33, 24.42 36.06 C 25.38 35.97, 25.529999999999994 35.910000000000004, 26.339999999999996 35.88 C 27 35.91, 27.225 35.864999999999995, 27.660000000000004 35.94 C 27.87 36.06, 27.93 36.105, 28.08 36.18 C 28.169999999999998 36.21, 28.184999999999995 36.18, 28.259999999999998 36.24 C 28.32 36.33, 28.200000000000003 36.225, 28.380000000000003 36.42 C 28.68 36.72, 28.770000000000003 36.809999999999995, 28.98 37.019999999999996 C 29.1 37.14, 29.099999999999998 37.125, 29.22 37.26 C 29.34 37.41, 29.4 37.485, 29.46 37.56 L 29.46 37.56" fill="none" stroke="black" stroke-width="5"></path></svg>