<svg width="48" height="48" viewBox="0 0 48 48" xmlns="http://www.w3.org/2000/svg"><path d="M 20.700000000000003 14.64 C 20.67 13.59, 20.925 13.829999999999998, 20.64 12.54 C 20.1 11.01, 20.07 10.71, 19.56 9.48 C 19.08 8.55, 19.245 8.355, 18.6 7.62 C 17.79 7.08, 17.7 6.855, 16.98 6.540000000000001 C 16.35 6.450000000000001, 16.455000000000002 6.300000000000001, 15.72 6.36 C 14.879999999999999 6.57, 14.745 6.344999999999999, 14.04 6.779999999999999 C 13.469999999999999 7.44, 13.364999999999998 7.485000000000001, 12.899999999999999 8.100000000000001 C 12.54 8.670000000000002, 12.524999999999999 8.22, 12.18 9.24 C 11.85 10.71, 11.684999999999999 10.695, 11.52 12.18 C 11.52 13.68, 11.385 13.68, 11.52 15.18 C 11.79 16.68, 11.654999999999998 16.95, 12.059999999999999 18.18 C 12.6 19.14, 12.42 19.335, 13.14 20.1 C 14.040000000000001 20.67, 13.755000000000003 20.82, 14.940000000000001 21.240000000000002 C 16.41 21.51, 16.53 21.645000000000003, 17.88 21.78 C 19.11 21.78, 19.23 21.840000000000003, 20.34 21.78 C 21.33 21.66, 21.27 21.645, 22.32 21.54 C 23.43 21.45, 23.46 21.42, 24.54 21.36 C 25.59 21.33, 25.71 21.179999999999996, 26.64 21.299999999999997 C 27.45 21.57, 27.555 21.39, 28.259999999999998 21.84 C 28.86 22.47, 28.950000000000003 22.515, 29.46 23.1 C 29.88 23.64, 29.999999999999996 23.265, 30.299999999999997 24.18 C 30.48 25.47, 30.57 25.29, 30.660000000000004 26.759999999999998 C 30.660000000000004 28.409999999999997, 30.675000000000004 28.47, 30.660000000000004 30.06 C 30.630000000000003 31.589999999999996, 30.615 31.604999999999997, 30.599999999999998 33.12 C 30.599999999999998 34.62, 30.599999999999998 34.455, 30.599999999999998 36.12 C 30.599999999999998 37.95, 30.705 37.980000000000004, 30.599999999999998 39.78 C 30.39 41.55, 30.285 41.775, 30.18 43.32 C 30.18 44.64, 30.18 45.135000000000005, 30.18 45.96 C 30.18 46.29, 30.18 46.455, 30.18 46.62 C 30.18 46.62, 30.18 46.62, 30.18 46.62 C 30.18 46.62, 30.18 46.62, 30.18 46.62 L 30.18 46.62" fill="none" stroke="black" stroke-width="5"></path><path d="M 19.200000000000003 29.64 C 19.05 30.36, 18.794999999999998 30.435, 18.9 31.08 C 19.259999999999998 31.65, 19.020000000000003 32.085, 19.62 32.22 C 20.46 31.919999999999998, 20.759999999999998 32.175, 21.299999999999997 31.619999999999997 C 21.54 30.81, 21.69 30.57, 21.78 30 C 21.72 29.669999999999998, 22.05 29.594999999999995, 21.66 29.339999999999996 C 20.939999999999998 29.159999999999997, 21 28.905, 20.22 28.98 C 19.38 29.310000000000002, 18.974999999999998 29.1, 18.54 29.64 C 18.509999999999998 30.39, 18.36 30.615000000000002, 18.48 31.14 C 18.75 31.44, 18.75 31.590000000000003, 19.02 31.740000000000002 C 19.29 31.740000000000002, 19.11 32.115, 19.56 31.740000000000002 C 20.189999999999998 30.990000000000002, 20.505 30.615000000000002, 20.82 30.240000000000002 C 20.82 30.240000000000002, 20.88 30.285000000000004, 20.82 30.240000000000002 C 20.700000000000003 30.15, 20.970000000000002 29.715, 20.580000000000002 30.06 C 19.92 30.839999999999996, 19.485 31.019999999999996, 19.259999999999998 31.619999999999997 C 19.47 32.04, 19.14 32.265, 19.68 32.46 C 20.549999999999997 32.43000000000001, 20.759999999999998 32.62500000000001, 21.419999999999998 32.400000000000006 C 21.869999999999997 31.980000000000004, 22.035 32.04, 22.32 31.56 C 22.439999999999998 31.02, 22.724999999999998 30.975, 22.56 30.48 C 22.11 30.03, 22.365 29.744999999999997, 21.66 29.58 C 20.700000000000003 29.7, 20.535000000000004 29.535, 19.740000000000002 29.82 C 19.11 30.27, 18.810000000000002 30.435, 18.48 30.72 L 18.419999999999998 30.96" fill="none" stroke="black" stroke-width="5"></path><path d="M 13.74 39.900000000000006 C 14.399999999999999 39.900000000000006, 13.934999999999999 39.93000000000001, 15.059999999999999 39.900000000000006 C 16.65 39.84, 16.590000000000003 39.84, 18.240000000000002 39.78 C 19.950000000000003 39.72, 20.130000000000003 39.690000000000005, 21.66 39.660000000000004 C 23.009999999999998 39.660000000000004, 23.4 39.645, 24.36 39.660000000000004 C 24.93 39.69, 25.08 39.705, 25.5 39.72 C 25.77 39.72, 25.875 39.705, 26.04 39.72 L 26.160000000000004 39.78" fill="none" stroke="black" stroke-width="5"></path></svg>