<svg width="48" height="48" viewBox="0 0 48 48" xmlns="http://www.w3.org/2000/svg"><path d="M 16.080000000000002 45.06 C 16.080000000000002 45.03, 16.200000000000003 46.08, 16.080000000000002 45 C 15.840000000000002 42.870000000000005, 15.780000000000001 43.665000000000006, 15.600000000000001 40.74 C 15.48 37.019999999999996, 15.42 36.75, 15.36 33.3 C 15.36 30.119999999999997, 15.36 29.115000000000002, 15.36 26.94 C 15.36 25.77, 15.36 25.68, 15.36 24.599999999999998 C 15.36 23.61, 15.36 23.64, 15.36 22.62 C 15.36 21.57, 15.36 21.24, 15.36 20.52 C 15.36 20.130000000000003, 15.36 19.980000000000004, 15.36 19.740000000000002 C 15.36 19.65, 15.225 19.845, 15.36 19.56 C 15.629999999999999 19.08, 15.299999999999999 18.975, 15.899999999999999 18.6 C 16.83 18.33, 16.574999999999996 18.314999999999998, 17.759999999999998 18.06 C 19.2 17.82, 19.035 17.700000000000003, 20.64 17.580000000000002 C 22.41 17.580000000000002, 22.560000000000002 17.625000000000004, 24.18 17.580000000000002 C 25.65 17.490000000000002, 25.799999999999997 17.445, 27.119999999999997 17.4 C 28.29 17.4, 28.53 17.4, 29.46 17.4 C 30.15 17.4, 29.97 17.4, 30.839999999999996 17.4 C 31.889999999999997 17.4, 32.339999999999996 17.4, 32.94 17.4 C 33.09 17.4, 33.09 17.354999999999997, 33.24 17.4 C 33.39 17.490000000000002, 33.405 17.19, 33.54 17.580000000000002 C 33.66 18.270000000000003, 33.765 18.03, 33.78 18.96 C 33.69 20.13, 34.019999999999996 20.04, 33.599999999999994 21.299999999999997 C 32.849999999999994 22.65, 33.19499999999999 22.425, 32.099999999999994 24 C 30.659999999999997 25.799999999999997, 30.434999999999995 26.084999999999997, 29.22 27.599999999999998 C 28.23 28.83, 27.855000000000004 29.205, 27.240000000000002 30.06 C 27 30.54, 26.88 30.78, 26.759999999999998 31.02 C 26.759999999999998 31.02, 26.759999999999998 31.005, 26.759999999999998 31.02 C 26.759999999999998 31.049999999999997, 26.099999999999998 31.214999999999996, 26.759999999999998 31.08 C 28.08 30.78, 27.840000000000003 30.63, 29.400000000000002 30.48 C 31.200000000000003 30.48, 31.59 30.315, 33 30.48 C 34.019999999999996 30.810000000000002, 34.32 30.795, 35.04 31.14 C 35.46 31.5, 35.370000000000005 31.02, 35.88 31.86 C 36.480000000000004 33.18, 36.72 33.075, 37.08 34.5 C 37.2 36.03, 37.41 36.300000000000004, 37.32 37.56 C 37.019999999999996 38.55, 37.17 38.730000000000004, 36.72 39.54 C 36.12 40.17, 36.705 40.065, 35.519999999999996 40.8 C 33.75 41.64, 33.45 41.88, 31.98 42.480000000000004 C 30.810000000000002 42.84, 30.45 43.02, 29.64 43.2 C 29.19 43.2, 29.175 43.245000000000005, 28.740000000000002 43.2 C 28.32 43.11, 28.14 43.08, 27.900000000000002 43.019999999999996 L 27.78 42.96" fill="none" stroke="black" stroke-width="5"></path><path d="M 19.44 3.96 C 20.58 7.109999999999999, 20.805 7.965, 21.72 10.26 C 22.41 11.7, 22.53 11.91, 23.1 13.14 C 23.55 14.16, 23.61 14.219999999999999, 24 15.18 C 24.330000000000002 16.08, 24.465000000000003 16.5, 24.660000000000004 16.98 C 24.720000000000002 17.04, 24.75 17.07, 24.78 17.1 C 24.78 17.1, 24.765 17.055, 24.78 17.1 C 24.81 17.19, 24.779999999999998 17.25, 24.839999999999996 17.28 C 24.93 17.25, 24.615 17.955, 25.02 17.22 C 25.740000000000002 15.78, 25.35 16.365, 26.46 14.34 C 27.96 11.73, 27.810000000000002 12.030000000000001, 29.46 9.120000000000001 C 31.26 5.91, 32.010000000000005 4.575, 33.06 2.7 C 33.36 2.16, 33.510000000000005 1.8900000000000001, 33.660000000000004 1.62 C 33.660000000000004 1.62, 33.660000000000004 1.62, 33.660000000000004 1.62 L 33.660000000000004 1.62" fill="none" stroke="black" stroke-width="5"></path></svg>