<svg width="48" height="48" viewBox="0 0 48 48" xmlns="http://www.w3.org/2000/svg"><path d="M 35.94 4.74 C 36.12 5.97, 36.209999999999994 5.25, 36.3 7.199999999999999 C 36.3 9.87, 36.3 9.944999999999999, 36.3 12.54 C 36.3 15.06, 36.3 14.865000000000002, 36.3 17.580000000000002 C 36.3 20.490000000000002, 36.3 20.369999999999997, 36.3 23.4 C 36.3 26.55, 36.3 27.135, 36.3 29.700000000000003 C 36.3 31.680000000000003, 36.3 32.160000000000004, 36.3 33.660000000000004 C 36.3 34.68000000000001, 36.36 34.545, 36.3 35.7 C 36.18 36.99, 36.300000000000004 37.08, 36.06 38.28 C 35.7 39.39, 35.879999999999995 39.405, 35.339999999999996 40.5 C 34.620000000000005 41.58, 34.50000000000001 41.910000000000004, 33.900000000000006 42.660000000000004 C 33.42 43.08, 33.855 43.17, 32.94 43.5 C 31.59 43.74, 31.410000000000004 43.86, 30.240000000000002 43.980000000000004 C 29.25 43.980000000000004, 28.964999999999996 44.07000000000001, 28.259999999999998 43.980000000000004 C 27.84 43.8, 27.825000000000003 44.114999999999995, 27.42 43.62 C 27.03 42.81, 26.910000000000004 42.735, 26.64 42 C 26.49 41.34, 26.459999999999994 41.34, 26.339999999999996 40.68 C 26.25 40.019999999999996, 26.205000000000002 39.96, 26.160000000000004 39.36 C 26.160000000000004 38.82, 26.025000000000006 38.88, 26.160000000000004 38.28 C 26.430000000000003 37.620000000000005, 26.370000000000005 37.5, 26.700000000000003 36.96 C 27.090000000000003 36.54, 27.03 36.525, 27.48 36.12 C 27.990000000000002 35.73, 27.93 35.62499999999999, 28.5 35.339999999999996 C 29.13 35.16, 29.205 35.1, 29.759999999999998 34.980000000000004 C 30.24 34.92, 30.255 34.89, 30.72 34.86 C 31.169999999999998 34.86, 31.169999999999998 34.86, 31.619999999999997 34.86 C 32.06999999999999 34.86, 32.129999999999995 34.8, 32.519999999999996 34.86 C 32.849999999999994 34.98, 32.85 34.934999999999995, 33.18 35.099999999999994 C 33.51 35.309999999999995, 33.53999999999999 35.324999999999996, 33.839999999999996 35.519999999999996 C 34.11 35.7, 34.08 35.625, 34.38 35.88 C 34.71 36.21, 34.785 36.285, 35.04 36.54 C 35.22 36.72, 35.190000000000005 36.690000000000005, 35.400000000000006 36.900000000000006 C 35.64 37.14, 35.730000000000004 37.215, 35.88 37.38 C 35.94 37.47, 35.97 37.515, 36 37.56 C 36 37.56, 36 37.56, 36 37.56 L 36 37.56" fill="none" stroke="black" stroke-width="5"></path><path d="M 36.96 27.299999999999997 C 36.36 27.419999999999998, 36.435 27.449999999999996, 35.76 27.54 C 35.01 27.6, 35.175 27.630000000000003, 34.26 27.660000000000004 C 33.17999999999999 27.660000000000004, 33.3 27.660000000000004, 32.099999999999994 27.660000000000004 C 30.779999999999998 27.660000000000004, 31.005 27.660000000000004, 29.46 27.660000000000004 C 27.69 27.660000000000004, 27.345000000000002 27.660000000000004, 25.92 27.660000000000004 C 24.84 27.660000000000004, 24.404999999999998 27.660000000000004, 23.759999999999998 27.660000000000004 C 23.549999999999997 27.660000000000004, 23.564999999999998 27.660000000000004, 23.34 27.660000000000004 C 23.1 27.660000000000004, 23.055 27.735000000000007, 22.86 27.660000000000004 C 22.71 27.51, 22.755 27.9, 22.56 27.36 C 22.32 26.43, 22.245 26.79, 22.080000000000002 25.5 C 21.990000000000002 23.85, 21.945 24.180000000000003, 21.9 22.200000000000003 C 21.9 19.89, 21.9 19.725, 21.9 17.580000000000002 C 21.9 15.600000000000001, 21.9 15.435000000000002, 21.9 13.620000000000001 C 21.9 11.97, 21.9 11.64, 21.9 10.32 C 21.9 9.33, 21.9 9.24, 21.9 8.34 C 21.9 7.53, 21.9 7.41, 21.9 6.720000000000001 C 21.9 6.15, 21.9 6.195, 21.9 5.58 C 21.9 4.92, 21.9 4.59, 21.9 4.26 L 21.9 4.26" fill="none" stroke="black" stroke-width="5"></path><path d="M 23.1 10.620000000000001 C 23.7 11.4, 23.625 11.309999999999999, 24.299999999999997 12.18 C 25.049999999999997 13.14, 24.884999999999998 13.020000000000001, 25.799999999999997 14.100000000000001 C 26.88 15.3, 27.105 15.510000000000002, 27.96 16.5 C 28.59 17.28, 28.68 17.46, 29.22 18.06 C 29.669999999999998 18.479999999999997, 29.894999999999996 18.689999999999998, 30.119999999999997 18.9 C 30.119999999999997 18.9, 30.089999999999996 18.854999999999997, 30.119999999999997 18.9 C 30.18 18.990000000000002, 29.97 19.335, 30.240000000000002 19.080000000000002 C 30.720000000000002 18.48, 30.330000000000005 19.17, 31.200000000000003 17.88 C 32.46 15.899999999999999, 32.879999999999995 15.374999999999998, 33.72 13.919999999999998 C 34.14 12.989999999999998, 34.260000000000005 12.794999999999998, 34.56 12.059999999999999 C 34.74 11.52, 34.83 11.25, 34.92 10.98 C 34.92 10.98, 34.68 11.205, 34.92 10.98 C 35.400000000000006 10.530000000000001, 35.475 10.455, 35.88 10.08 C 36.21 9.780000000000001, 36.375 9.63, 36.54 9.48 L 36.54 9.48" fill="none" stroke="black" stroke-width="5"></path></svg>