<svg width="48" height="48" viewBox="0 0 48 48" xmlns="http://www.w3.org/2000/svg"><path d="M 11.459999999999999 5.1 C 10.829999999999998 8.219999999999999, 10.68 8.7, 10.2 11.34 C 9.870000000000001 13.5, 9.765 13.65, 9.540000000000001 15.66 C 9.420000000000002 17.52, 9.345 17.4, 9.3 19.38 C 9.33 21.48, 9.299999999999999 21.93, 9.36 23.580000000000002 C 9.45 24.78, 9.405000000000001 24.705000000000002, 9.540000000000001 25.98 C 9.719999999999999 27.33, 9.69 27.705, 9.899999999999999 28.68 C 10.139999999999999 29.28, 9.959999999999999 29.340000000000003, 10.379999999999999 29.880000000000003 C 10.98 30.36, 10.98 30.599999999999998, 11.58 30.839999999999996 C 12.18 30.839999999999996, 11.805 30.839999999999996, 12.78 30.839999999999996 C 14.129999999999999 30.839999999999996, 13.935 30.944999999999993, 15.48 30.839999999999996 C 17.22 30.63, 17.55 30.57, 18.96 30.42 C 20.04 30.330000000000002, 19.815 30.285000000000004, 21.12 30.240000000000002 C 22.65 30.240000000000002, 22.83 30.240000000000002, 24.18 30.240000000000002 C 25.35 30.240000000000002, 25.695 30.075000000000003, 26.52 30.240000000000002 C 27 30.57, 26.925 30.39, 27.48 30.900000000000002 C 28.11 31.590000000000003, 28.125 30.900000000000002, 28.740000000000002 32.28 C 29.340000000000003 34.35, 29.520000000000003 34.620000000000005, 29.94 36.42 C 30.18 37.95, 30.3 38.220000000000006, 30.42 39.480000000000004 C 30.42 40.47, 30.540000000000003 40.695, 30.42 41.46 C 30.18 42, 30.540000000000003 41.88, 29.94 42.54 C 28.98 43.31999999999999, 29.07 43.48499999999999, 28.02 44.099999999999994 C 26.880000000000003 44.55, 26.970000000000002 44.685, 25.740000000000002 45 C 24.42 45.18, 24.39 45.225, 23.1 45.36 C 21.840000000000003 45.45, 21.6 45.51, 20.580000000000002 45.54 C 19.8 45.510000000000005, 20.085 45.795, 19.02 45.480000000000004 C 17.67 44.88, 17.43 44.895, 16.32 44.28 C 15.450000000000001 43.65, 15.285000000000002 43.754999999999995, 14.580000000000002 43.019999999999996 C 14.040000000000001 42.17999999999999, 13.920000000000002 42.239999999999995, 13.5 41.339999999999996 C 13.2 40.379999999999995, 13.049999999999999 40.215, 12.899999999999999 39.42 C 12.899999999999999 38.790000000000006, 12.899999999999999 38.475, 12.899999999999999 38.160000000000004 L 12.899999999999999 38.160000000000004" fill="none" stroke="black" stroke-width="5"></path><path d="M 10.32 9.24 C 10.56 9.57, 10.200000000000001 8.999999999999998, 10.8 9.899999999999999 C 11.760000000000002 11.37, 11.355 10.86, 12.72 12.84 C 14.489999999999998 15.33, 14.879999999999997 15.915, 16.259999999999998 17.82 C 17.25 19.14, 17.445 19.44, 18.240000000000002 20.46 C 18.840000000000003 21.18, 19.065 21.464999999999996, 19.44 21.9 C 19.590000000000003 22.05, 19.605000000000004 22.050000000000004, 19.740000000000002 22.200000000000003 C 19.86 22.35, 19.89 22.425, 19.98 22.5 C 20.04 22.5, 19.86 22.725, 20.1 22.5 C 20.520000000000003 22.05, 20.310000000000002 22.755000000000003, 20.94 21.6 C 21.78 19.740000000000002, 21.345000000000002 20.669999999999998, 22.62 17.88 C 24.33 14.16, 25.14 12.375, 26.04 10.44 C 26.13 10.29, 26.159999999999997 10.245000000000001, 26.22 10.14 C 26.25 10.08, 26.265 10.05, 26.28 10.02 C 26.28 10.02, 26.28 10.02, 26.28 10.02 L 26.28 10.02" fill="none" stroke="black" stroke-width="5"></path></svg>