<svg width="48" height="48" viewBox="0 0 48 48" xmlns="http://www.w3.org/2000/svg"><path d="M 16.44 27.78 C 16.26 26.25, 16.305000000000003 26.354999999999997, 16.080000000000002 24.72 C 15.81 22.98, 15.719999999999999 22.575000000000003, 15.54 21.240000000000002 C 15.45 20.310000000000002, 15.405 19.919999999999998, 15.36 19.38 C 15.36 19.23, 15.36 19.155, 15.36 19.080000000000002 C 15.36 19.080000000000002, 15.209999999999999 19.155, 15.36 19.080000000000002 C 15.66 18.93, 15.255 18.93, 15.96 18.78 C 17.07 18.630000000000003, 17.325 18.555, 18.18 18.48 C 18.78 18.48, 18.33 18.57, 19.38 18.48 C 20.88 18.3, 21.015 18.3, 22.38 18.12 C 23.61 17.939999999999998, 23.579999999999995 17.849999999999998, 24.839999999999996 17.759999999999998 C 26.13 17.759999999999998, 26.58 17.759999999999998, 27.42 17.759999999999998 C 27.810000000000002 17.759999999999998, 27.810000000000002 17.804999999999996, 28.200000000000003 17.759999999999998 C 28.590000000000003 17.67, 28.635 17.625, 28.98 17.580000000000002 C 29.28 17.580000000000002, 29.4 17.580000000000002, 29.58 17.580000000000002 C 29.64 17.580000000000002, 29.535000000000004 17.490000000000002, 29.700000000000003 17.580000000000002 C 29.970000000000002 17.76, 30 17.64, 30.240000000000002 17.94 C 30.450000000000003 18.36, 30.510000000000005 18.3, 30.660000000000004 18.78 C 30.75 19.32, 30.749999999999996 19.125, 30.839999999999996 19.86 C 30.93 20.79, 30.93 20.61, 31.02 21.72 C 31.11 23.009999999999998, 31.155 23.474999999999998, 31.200000000000003 24.299999999999997 C 31.200000000000003 24.659999999999997, 31.200000000000003 24.72, 31.200000000000003 25.02 C 31.200000000000003 25.259999999999998, 31.200000000000003 25.23, 31.200000000000003 25.5 C 31.200000000000003 25.799999999999997, 31.200000000000003 25.919999999999998, 31.200000000000003 26.099999999999998 C 31.200000000000003 26.159999999999997, 31.200000000000003 26.189999999999998, 31.200000000000003 26.22 L 31.200000000000003 26.22" fill="none" stroke="black" stroke-width="5"></path><path d="M 17.759999999999998 6.36 C 18.299999999999997 7.5600000000000005, 18.27 7.47, 18.84 8.76 C 19.439999999999998 10.14, 19.53 10.424999999999999, 20.04 11.52 C 20.46 12.33, 20.505 12.36, 20.88 13.14 C 21.21 13.89, 21.27 14.025, 21.54 14.64 C 21.75 15.120000000000001, 21.735 15.075000000000001, 21.96 15.600000000000001 C 22.200000000000003 16.17, 22.230000000000004 16.335, 22.44 16.740000000000002 C 22.619999999999997 16.98, 22.65 16.979999999999997, 22.799999999999997 17.22 C 22.919999999999998 17.46, 22.979999999999997 17.580000000000002, 23.04 17.700000000000003 C 23.04 17.700000000000003, 22.994999999999997 17.655000000000005, 23.04 17.700000000000003 C 23.13 17.79, 23.174999999999997 17.835, 23.22 17.88 C 23.22 17.88, 23.13 18, 23.22 17.88 C 23.4 17.64, 23.235000000000003 18.075, 23.580000000000002 17.4 C 24.09 16.29, 23.834999999999997 16.724999999999998, 24.599999999999998 15.18 C 25.619999999999997 13.2, 25.71 13.065000000000001, 26.64 11.22 C 27.48 9.510000000000002, 27.825000000000003 8.805000000000001, 28.32 7.800000000000001 C 28.47 7.5, 28.529999999999998 7.395, 28.619999999999997 7.199999999999999 C 28.65 7.109999999999999, 28.604999999999997 7.334999999999999, 28.68 7.02 C 28.8 6.4799999999999995, 28.8 6.329999999999999, 28.92 5.9399999999999995 C 29.040000000000003 5.699999999999999, 29.1 5.58, 29.160000000000004 5.46 C 29.160000000000004 5.46, 29.160000000000004 5.46, 29.160000000000004 5.46 L 29.160000000000004 5.46" fill="none" stroke="black" stroke-width="5"></path><path d="M 22.98 18.06 C 23.1 18.75, 23.085 18.810000000000002, 23.22 19.44 C 23.369999999999997 20.01, 23.415 19.845000000000002, 23.52 20.580000000000002 C 23.58 21.48, 23.565 21.375, 23.64 22.38 C 23.73 23.49, 23.775 23.534999999999997, 23.82 24.599999999999998 C 23.82 25.619999999999997, 23.82 25.485, 23.82 26.64 C 23.82 27.93, 23.865000000000002 27.9, 23.82 29.22 C 23.73 30.57, 23.775 30.555, 23.64 31.92 C 23.46 33.3, 23.46 33.525, 23.28 34.68 C 23.1 35.61, 23.189999999999998 35.58, 22.919999999999998 36.54 C 22.560000000000002 37.53, 22.860000000000003 37.425, 22.200000000000003 38.519999999999996 C 21.240000000000002 39.72, 21.405 39.78, 20.28 40.92 C 18.990000000000002 42, 18.78 42.239999999999995, 17.700000000000003 43.08 C 16.830000000000002 43.68, 16.695 43.785, 15.96 44.28 C 15.36 44.67, 15.075 44.85, 14.76 45.06 C 14.73 45.09, 14.775 45.105, 14.700000000000001 45.12 L 14.46 45.12" fill="none" stroke="black" stroke-width="5"></path><path d="M 23.4 33.36 C 23.67 33.93, 23.745 33.87, 23.94 34.5 C 24.060000000000002 35.19, 24.045 35.22, 24.18 35.88 C 24.33 36.510000000000005, 24.255000000000003 36.54, 24.48 37.14 C 24.78 37.71, 24.794999999999998 37.74, 25.08 38.28 C 25.349999999999998 38.79, 25.214999999999996 38.79, 25.619999999999997 39.3 C 26.16 39.81, 26.1 39.885, 26.700000000000003 40.32 C 27.36 40.68, 27.45 40.74, 28.02 41.04 C 28.5 41.28, 28.455000000000002 41.294999999999995, 28.98 41.519999999999996 C 29.549999999999997 41.73, 29.49 41.775, 30.119999999999997 41.94 C 30.81 42.06, 30.884999999999998 42.12, 31.5 42.18 C 32.04 42.18, 32.265 42.18, 32.58 42.18 C 32.67 42.18, 32.714999999999996 42.18, 32.76 42.18 C 32.76 42.18, 32.73 42.18, 32.76 42.18 L 32.88 42.18" fill="none" stroke="black" stroke-width="5"></path></svg>