<svg width="48" height="48" viewBox="0 0 48 48" xmlns="http://www.w3.org/2000/svg"><path d="M 15.78 28.86 C 15.419999999999998 26.97, 15.495 27.419999999999998, 15.059999999999999 25.08 C 14.549999999999999 22.29, 14.37 21.134999999999998, 14.04 19.5 C 13.89 19.02, 13.815 18.78, 13.74 18.54 C 13.74 18.54, 13.74 18.645, 13.74 18.54 C 13.74 18.33, 13.395 18.465, 13.74 18.12 C 14.43 17.64, 13.860000000000001 17.505, 15.120000000000001 17.16 C 16.950000000000003 16.950000000000003, 16.950000000000003 16.830000000000002, 18.78 16.740000000000002 C 20.61 16.77, 20.25 16.784999999999997, 22.44 16.799999999999997 C 24.990000000000002 16.799999999999997, 26.04 16.799999999999997, 27.54 16.799999999999997 C 27.990000000000002 16.799999999999997, 28.065 16.799999999999997, 28.44 16.799999999999997 C 28.740000000000002 16.799999999999997, 28.815 16.799999999999997, 29.04 16.799999999999997 C 29.189999999999998 16.799999999999997, 29.219999999999995 16.799999999999997, 29.339999999999996 16.799999999999997 C 29.43 16.799999999999997, 29.325 16.289999999999996, 29.52 16.799999999999997 C 29.82 17.82, 29.879999999999995 17.174999999999997, 30.119999999999997 18.84 C 30.299999999999997 21.15, 30.33 21.720000000000002, 30.48 23.46 C 30.6 24.63, 30.615 24.974999999999998, 30.72 25.799999999999997 C 30.810000000000002 26.279999999999998, 30.840000000000003 26.4, 30.900000000000002 26.759999999999998 C 30.93 27, 30.945 27.12, 30.96 27.240000000000002 L 30.96 27.240000000000002" fill="none" stroke="black" stroke-width="5"></path><path d="M 14.34 4.08 C 14.91 5.01, 14.745000000000001 4.635, 15.48 5.9399999999999995 C 16.380000000000003 7.62, 16.23 7.365, 17.28 9.3 C 18.48 11.49, 18.795 12.27, 19.68 13.68 C 20.25 14.31, 20.4 14.490000000000002, 20.82 14.940000000000001 C 21.09 15.21, 21.15 15.225000000000001, 21.36 15.48 C 21.509999999999998 15.72, 21.525 15.75, 21.66 15.96 C 21.78 16.14, 21.764999999999997 16.155, 21.9 16.32 C 22.05 16.47, 22.125 16.545, 22.200000000000003 16.62 C 22.200000000000003 16.62, 22.125000000000004 16.59, 22.200000000000003 16.62 C 22.35 16.68, 22.095 17.19, 22.5 16.740000000000002 C 23.16 15.780000000000001, 22.77 16.77, 23.82 14.82 C 25.26 11.879999999999999, 25.635000000000005 11.175, 26.700000000000003 8.94 C 27.39 7.41, 27.645 6.81, 28.08 5.88 C 28.259999999999998 5.55, 28.35 5.385, 28.44 5.22 C 28.44 5.22, 28.44 5.22, 28.44 5.22 C 28.44 5.22, 28.425 5.265, 28.44 5.22 C 28.47 5.13, 28.44 5.205, 28.5 5.04 C 28.59 4.800000000000001, 28.634999999999998 4.680000000000001, 28.68 4.5600000000000005 L 28.68 4.5600000000000005" fill="none" stroke="black" stroke-width="5"></path><path d="M 22.200000000000003 17.4 C 22.29 18.33, 22.335 18.255, 22.38 19.259999999999998 C 22.38 20.339999999999996, 22.38 20.069999999999997, 22.38 21.419999999999998 C 22.38 23.04, 22.335 22.770000000000003, 22.38 24.660000000000004 C 22.47 26.82, 22.515 26.865000000000002, 22.56 28.98 C 22.56 31.049999999999997, 22.56 31.349999999999998, 22.56 33.12 C 22.56 34.59, 22.56 34.605000000000004, 22.56 36.06 C 22.56 37.5, 22.56 37.785, 22.56 38.94 C 22.56 39.81, 22.56 39.96, 22.56 40.68 C 22.56 41.25, 22.56 41.385, 22.56 41.82 C 22.56 42.120000000000005, 22.56 42.27, 22.56 42.42 C 22.56 42.42, 22.56 42.33, 22.56 42.42 C 22.56 42.6, 22.529999999999998 42.405, 22.56 42.78 C 22.619999999999997 43.35, 22.634999999999998 43.485, 22.68 43.92 C 22.71 44.22, 22.680000000000003 44.175, 22.740000000000002 44.519999999999996 C 22.83 44.91, 22.875 45.105, 22.919999999999998 45.3 C 22.919999999999998 45.3, 22.919999999999998 45.3, 22.919999999999998 45.3 L 22.919999999999998 45.3" fill="none" stroke="black" stroke-width="5"></path></svg>