<svg width="48" height="48" viewBox="0 0 48 48" xmlns="http://www.w3.org/2000/svg"><path d="M 23.34 30.36 C 22.17 30.27, 21.96 30.044999999999998, 21 30.18 C 20.25 30.54, 20.22 30.315000000000005, 19.5 30.900000000000002 C 18.810000000000002 31.71, 18.645000000000003 31.454999999999995, 18.12 32.519999999999996 C 17.759999999999998 33.84, 17.595 33.75, 17.4 35.160000000000004 C 17.369999999999997 36.660000000000004, 17.31 36.78, 17.34 38.160000000000004 C 17.43 39.42, 17.34 39.705, 17.52 40.68 C 17.79 41.370000000000005, 17.49 41.475, 18.06 42.06 C 18.93 42.54, 18.884999999999998 42.629999999999995, 19.799999999999997 43.019999999999996 C 20.759999999999998 43.31999999999999, 20.669999999999998 43.44, 21.72 43.62 C 22.86 43.68, 22.965 43.83, 24 43.74 C 24.93 43.5, 25.02 43.62, 25.86 43.26 C 26.61 42.78, 26.82 42.824999999999996, 27.36 42.3 C 27.689999999999998 41.730000000000004, 27.81 41.895, 28.02 41.160000000000004 C 28.11 40.260000000000005, 28.155 40.305, 28.200000000000003 39.36 C 28.200000000000003 38.370000000000005, 28.200000000000003 38.13, 28.200000000000003 37.38 C 28.200000000000003 36.870000000000005, 28.200000000000003 37.05, 28.200000000000003 36.36 C 28.200000000000003 35.489999999999995, 28.320000000000004 35.385, 28.200000000000003 34.62 C 27.96 33.959999999999994, 27.975 33.824999999999996, 27.72 33.3 C 27.45 32.91, 27.57 32.955, 27.18 32.519999999999996 C 26.67 32.04, 26.775000000000006 31.994999999999997, 26.160000000000004 31.56 C 25.44 31.17, 25.245 31.035, 24.72 30.78 C 24.39 30.66, 24.224999999999998 30.6, 24.06 30.54 C 24.06 30.54, 24.089999999999996 30.54, 24.06 30.54 C 24 30.54, 24.18 30.54, 23.94 30.54 C 23.520000000000003 30.54, 23.310000000000002 30.54, 23.1 30.54 C 23.1 30.54, 23.1 30.54, 23.1 30.54 L 23.1 30.54" fill="none" stroke="black" stroke-width="5"></path><path d="M 18.06 37.62 C 18.15 37.62, 18.090000000000003 37.62, 18.240000000000002 37.62 C 18.450000000000003 37.62, 18.405 37.62, 18.66 37.62 C 18.96 37.62, 18.689999999999998 37.65, 19.259999999999998 37.62 C 20.1 37.56, 20.01 37.575, 20.94 37.5 C 21.96 37.41, 22.11 37.41, 22.98 37.32 C 23.700000000000003 37.230000000000004, 23.790000000000003 37.185, 24.42 37.14 C 24.96 37.14, 24.945 37.14, 25.5 37.14 C 26.07 37.14, 26.1 37.14, 26.64 37.14 C 27.150000000000002 37.14, 27.360000000000007 37.14, 27.660000000000004 37.14 C 27.75 37.14, 27.794999999999998 37.14, 27.839999999999996 37.14 L 27.839999999999996 37.14" fill="none" stroke="black" stroke-width="5"></path><path d="M 12.18 5.9399999999999995 C 12.36 5.9399999999999995, 12.209999999999999 5.85, 12.54 5.9399999999999995 C 13.02 6.12, 12.855 5.94, 13.5 6.300000000000001 C 14.31 6.84, 14.385000000000002 6.84, 15.120000000000001 7.38 C 15.780000000000001 7.92, 15.750000000000002 7.724999999999999, 16.44 8.459999999999999 C 17.16 9.39, 17.205 9.315, 17.88 10.32 C 18.509999999999998 11.4, 18.525 11.355, 19.14 12.48 C 19.740000000000002 13.65, 19.83 13.47, 20.34 14.82 C 20.759999999999998 16.35, 20.865 16.244999999999997, 21.18 17.88 C 21.39 19.619999999999997, 21.42 19.875, 21.6 21.36 C 21.75 22.59, 21.779999999999998 22.635, 21.9 23.82 C 21.990000000000002 24.96, 22.035 24.959999999999997, 22.080000000000002 26.099999999999998 C 22.080000000000002 27.240000000000002, 22.05 27.615000000000002, 22.080000000000002 28.380000000000003 C 22.14 28.770000000000003, 22.17 28.890000000000004, 22.200000000000003 29.160000000000004 C 22.200000000000003 29.310000000000002, 22.155000000000005 29.235000000000003, 22.200000000000003 29.46 C 22.29 29.759999999999998, 22.335 29.91, 22.38 30.06 C 22.38 30.06, 22.38 30.06, 22.38 30.06 C 22.38 30.06, 22.38 30.104999999999997, 22.38 30.06 C 22.38 29.97, 22.349999999999998 30.525000000000002, 22.38 29.880000000000003 C 22.439999999999998 28.68, 22.38 28.755000000000003, 22.5 27.48 C 22.68 26.130000000000003, 22.71 25.875, 22.86 24.78 C 22.98 23.94, 22.815 24.225, 23.1 23.1 C 23.55 21.69, 23.475 21.615000000000002, 24 20.28 C 24.6 19.02, 24.585 19.08, 25.200000000000003 17.759999999999998 C 25.830000000000002 16.38, 25.875 16.29, 26.46 15 C 27 13.8, 27 13.590000000000002, 27.54 12.600000000000001 C 28.08 11.82, 28.064999999999998 11.715000000000002, 28.619999999999997 11.040000000000001 C 29.189999999999998 10.469999999999999, 29.129999999999995 10.44, 29.759999999999998 9.899999999999999 C 30.45 9.389999999999999, 30.585 9.299999999999999, 31.14 8.879999999999999 C 31.560000000000002 8.55, 31.605 8.49, 31.98 8.22 C 32.31 8.010000000000002, 32.4 7.920000000000001, 32.64 7.800000000000001 C 32.79 7.7700000000000005, 32.714999999999996 7.755000000000001, 32.94 7.74 C 33.239999999999995 7.74, 33.315 7.74, 33.54 7.74 C 33.69 7.74, 33.72 7.74, 33.839999999999996 7.74 C 33.92999999999999 7.74, 33.91499999999999 7.74, 34.019999999999996 7.74 L 34.26 7.74" fill="none" stroke="black" stroke-width="5"></path></svg>