<svg width="48" height="48" viewBox="0 0 48 48" xmlns="http://www.w3.org/2000/svg"><path d="M 12.120000000000001 29.64 C 11.610000000000001 28.38, 11.475000000000001 28.304999999999996, 11.100000000000001 27.119999999999997 C 10.860000000000001 26.009999999999998, 10.785000000000002 26.055, 10.620000000000001 24.900000000000002 C 10.530000000000001 23.700000000000003, 10.485 23.67, 10.44 22.5 C 10.44 21.36, 10.424999999999999 21.27, 10.44 20.22 C 10.469999999999999 19.259999999999998, 10.44 19.095, 10.5 18.299999999999997 C 10.59 17.669999999999998, 10.545 17.64, 10.68 17.04 C 10.86 16.47, 10.755 16.439999999999998, 11.040000000000001 15.899999999999999 C 11.43 15.389999999999999, 11.43 15.194999999999999, 11.82 14.879999999999999 C 12.21 14.76, 11.925 14.685, 12.600000000000001 14.64 C 13.56 14.670000000000002, 13.875 14.580000000000002, 14.52 14.700000000000001 C 14.85 14.91, 14.7 14.700000000000001, 15.18 15.120000000000001 C 15.81 15.75, 15.84 15.389999999999999, 16.44 16.38 C 17.01 17.73, 17.130000000000003 17.865000000000002, 17.580000000000002 19.080000000000002 C 17.910000000000004 20.160000000000004, 17.895000000000003 20.085, 18.240000000000002 21.240000000000002 C 18.6 22.470000000000002, 18.78 23.085, 18.96 23.700000000000003 C 18.96 23.700000000000003, 18.945 23.685000000000002, 18.96 23.700000000000003 C 18.990000000000002 23.73, 19.005 24.18, 19.02 23.759999999999998 C 19.02 22.89, 18.93 23.04, 19.02 22.02 C 19.2 20.85, 19.2 20.805, 19.38 19.68 C 19.560000000000002 18.6, 19.5 18.419999999999998, 19.740000000000002 17.52 C 20.04 16.8, 19.965 16.71, 20.34 16.080000000000002 C 20.79 15.540000000000001, 20.730000000000004 15.36, 21.240000000000002 15 C 21.810000000000002 14.82, 21.6 14.835, 22.38 14.64 C 23.369999999999997 14.43, 23.37 14.325000000000001, 24.36 14.22 C 25.349999999999998 14.22, 25.454999999999995 14.22, 26.339999999999996 14.22 C 27.119999999999997 14.22, 27.150000000000002 14.22, 27.900000000000002 14.22 C 28.619999999999997 14.22, 28.979999999999997 14.22, 29.339999999999996 14.22 C 29.339999999999996 14.22, 29.339999999999996 14.22, 29.339999999999996 14.22 L 29.339999999999996 14.22" fill="none" stroke="black" stroke-width="5"></path><path d="M 7.4399999999999995 5.58 C 8.07 5.58, 7.694999999999999 5.49, 8.7 5.58 C 10.079999999999998 5.76, 10.364999999999998 5.625, 11.459999999999999 5.9399999999999995 C 12.27 6.39, 12.330000000000002 6.21, 13.080000000000002 6.84 C 13.770000000000001 7.6499999999999995, 13.8 7.364999999999998, 14.46 8.459999999999999 C 15.09 9.84, 15.330000000000002 10.350000000000001, 15.72 11.22 C 15.870000000000001 11.58, 15.915 11.684999999999999, 16.02 11.94 C 16.08 12.09, 16.11 12.165, 16.14 12.24 C 16.14 12.24, 16.095 12.225000000000001, 16.14 12.24 C 16.23 12.27, 16.26 12.45, 16.32 12.299999999999999 C 16.35 11.969999999999999, 16.2 12.555, 16.38 11.64 C 16.71 10.14, 16.604999999999997 9.885000000000002, 17.04 8.64 C 17.58 7.65, 17.295 7.515000000000001, 18.12 6.66 C 19.23 5.9399999999999995, 19.32 5.699999999999999, 20.34 5.22 C 21.270000000000003 4.98, 21.540000000000003 4.86, 22.200000000000003 4.74 C 22.590000000000003 4.74, 22.785 4.74, 22.98 4.74 L 22.98 4.74" fill="none" stroke="black" stroke-width="5"></path><path d="M 18.419999999999998 23.52 C 18.419999999999998 23.85, 18.374999999999996 23.625, 18.419999999999998 24.18 C 18.509999999999998 24.96, 18.555 24.705000000000002, 18.6 25.740000000000002 C 18.6 27.03, 18.765 27.015, 18.6 28.32 C 18.270000000000003 29.64, 18.315 29.775, 17.94 30.96 C 17.520000000000003 32.010000000000005, 17.520000000000003 32.13, 17.1 33.06 C 16.68 33.870000000000005, 17.25 33.795, 16.259999999999998 34.68 C 14.7 35.64, 14.235 35.96999999999999, 13.14 36.599999999999994 C 12.51 36.9, 12.239999999999998 37.02, 11.879999999999999 37.2 L 11.7 37.32" fill="none" stroke="black" stroke-width="5"></path><path d="M 24.839999999999996 30 C 24.93 30.96, 25.034999999999997 30.645000000000003, 25.02 31.92 C 24.9 33.51, 25.185000000000002 33.52499999999999, 24.78 35.099999999999994 C 24.09 36.66, 24.09 36.839999999999996, 23.4 38.22 C 22.71 39.42, 22.86 39.33, 22.02 40.62 C 21.03 42, 20.91 42.42, 20.04 43.38 C 19.29 43.92, 19.47 43.965, 18.54 44.46 C 17.43 44.91, 17.025 45.09, 16.32 45.36 L 15.72 45.54" fill="none" stroke="black" stroke-width="5"></path></svg>