<svg width="48" height="48" viewBox="0 0 48 48" xmlns="http://www.w3.org/2000/svg"><path d="M 13.080000000000002 28.5 C 12.93 27.96, 13.05 28.68, 12.78 27.42 C 12.39 25.44, 12.24 25.305, 12 23.46 C 11.91 21.75, 11.865 21.465, 11.82 20.04 C 11.82 18.9, 11.82 18.839999999999996, 11.82 17.759999999999998 C 11.82 16.74, 11.82 16.905, 11.82 15.72 C 11.82 14.370000000000001, 11.73 14.219999999999999, 11.82 13.02 C 12 11.969999999999999, 12.045 11.52, 12.18 10.92 C 12.27 10.77, 12.015 10.995000000000001, 12.36 10.620000000000001 C 12.959999999999999 10.02, 12.839999999999998 9.870000000000001, 13.559999999999999 9.42 C 14.399999999999999 9.120000000000001, 14.52 9.075000000000001, 15.24 8.82 C 15.84 8.61, 16.035 8.504999999999999, 16.44 8.399999999999999 C 16.65 8.399999999999999, 16.575 8.264999999999999, 16.86 8.399999999999999 C 17.22 8.669999999999998, 17.145000000000003 8.415, 17.580000000000002 8.94 C 18.090000000000003 9.719999999999999, 18.180000000000003 9.675, 18.6 10.5 C 18.93 11.370000000000001, 18.96 11.115, 19.259999999999998 12.24 C 19.529999999999998 13.620000000000001, 19.619999999999997 13.755, 19.799999999999997 15 C 19.89 16.11, 19.83 16.049999999999997, 19.98 17.22 C 20.189999999999998 18.45, 20.265 18.96, 20.4 19.68 C 20.46 19.89, 20.49 19.995, 20.52 20.1 C 20.52 20.1, 20.52 20.1, 20.52 20.1 C 20.52 20.1, 20.474999999999998 20.07, 20.52 20.1 C 20.61 20.16, 20.355000000000004 20.369999999999997, 20.700000000000003 20.22 C 21.3 19.86, 21.405 19.725, 21.9 19.5 C 22.29 19.41, 21.84 19.365000000000002, 22.68 19.32 C 23.97 19.32, 24.224999999999998 19.305, 25.259999999999998 19.32 C 26.04 19.35, 25.95 19.169999999999998, 26.82 19.38 C 27.78 19.77, 28.005000000000003 19.83, 28.740000000000002 20.16 C 29.25 20.43, 29.294999999999998 20.385000000000005, 29.759999999999998 20.700000000000003 C 30.18 21.060000000000002, 30.239999999999995 21, 30.599999999999998 21.419999999999998 C 30.9 21.9, 30.975 21.794999999999998, 31.200000000000003 22.38 C 31.35 23.07, 31.425 23.22, 31.5 23.759999999999998 C 31.5 24.15, 31.5 24.15, 31.5 24.54 C 31.5 24.93, 31.5 24.975, 31.5 25.32 C 31.5 25.62, 31.5 25.740000000000002, 31.5 25.92 C 31.5 25.98, 31.5 26.009999999999998, 31.5 26.04 L 31.5 26.04" fill="none" stroke="black" stroke-width="5"></path><path d="M 19.080000000000002 11.82 C 20.340000000000003 11.64, 20.520000000000003 11.535, 21.6 11.459999999999999 C 22.5 11.489999999999998, 22.785 11.445, 23.4 11.52 C 23.729999999999997 11.64, 23.595 11.43, 24.06 11.76 C 24.659999999999997 12.3, 24.734999999999996 12.225, 25.259999999999998 12.84 C 25.71 13.530000000000001, 25.800000000000004 13.59, 26.160000000000004 14.22 C 26.430000000000003 14.79, 26.535000000000004 15.03, 26.700000000000003 15.36 C 26.76 15.45, 26.79 15.495, 26.82 15.54 C 26.82 15.54, 26.82 15.54, 26.82 15.54 C 26.82 15.54, 26.79 15.614999999999998, 26.82 15.54 C 26.880000000000003 15.39, 26.85 15.629999999999999, 26.94 15.24 C 27.060000000000002 14.61, 26.925 14.775, 27.18 13.98 C 27.57 13.02, 27.465 12.899999999999999, 27.96 12.059999999999999 C 28.560000000000002 11.34, 28.335000000000004 11.010000000000002, 29.160000000000004 10.620000000000001 C 30.21 10.56, 30.165 10.530000000000001, 31.259999999999998 10.5 C 32.4 10.5, 32.73 10.5, 33.54 10.5 C 34.019999999999996 10.5, 34.26 10.5, 34.5 10.5 L 34.5 10.5" fill="none" stroke="black" stroke-width="5"></path><path d="M 21 20.16 C 21.15 20.67, 21.134999999999998 20.445, 21.299999999999997 21.18 C 21.479999999999997 22.14, 21.465 21.645000000000003, 21.66 23.1 C 21.87 25.05, 21.930000000000003 25.125, 22.080000000000002 27 C 22.17 28.799999999999997, 22.154999999999998 28.575, 22.259999999999998 30.599999999999998 C 22.38 32.849999999999994, 22.395 33.105, 22.5 35.099999999999994 C 22.59 36.839999999999996, 22.634999999999998 37.245, 22.68 38.58 C 22.68 39.51, 22.634999999999998 39.51, 22.68 40.44 C 22.77 41.37, 22.755 41.459999999999994, 22.86 42.3 C 22.98 43.05, 23.01 43.26, 23.1 43.8 C 23.16 44.129999999999995, 23.16 44.25, 23.22 44.46 C 23.28 44.55, 23.235 44.535, 23.34 44.64 C 23.490000000000002 44.760000000000005, 23.52 44.82, 23.64 44.88 C 23.73 44.88, 23.775 44.88, 23.82 44.88 C 23.82 44.88, 23.79 44.88, 23.82 44.88 C 23.880000000000003 44.88, 23.835 44.925000000000004, 23.94 44.88 C 24.090000000000003 44.790000000000006, 24.12 45.015, 24.240000000000002 44.7 C 24.330000000000002 44.16, 24.255000000000003 44.235, 24.42 43.62 C 24.660000000000004 42.93, 24.690000000000005 42.84, 24.900000000000002 42.24 C 25.08 41.730000000000004, 25.005 41.805, 25.259999999999998 41.22 C 25.59 40.56, 25.470000000000002 40.68000000000001, 25.92 39.900000000000006 C 26.490000000000002 39, 26.28 39.12, 27.06 38.099999999999994 C 28.049999999999997 36.959999999999994, 28.155 36.644999999999996, 29.04 35.82 C 29.82 35.31, 29.669999999999998 35.144999999999996, 30.599999999999998 34.8 C 31.68 34.62, 32.025 34.53, 32.76 34.44 C 33.15 34.44, 33.345 34.44, 33.54 34.44 C 33.54 34.44, 33.54 34.44, 33.54 34.44 L 33.54 34.44" fill="none" stroke="black" stroke-width="5"></path></svg>