<svg width="48" height="48" viewBox="0 0 48 48" xmlns="http://www.w3.org/2000/svg"><path d="M 10.14 43.019999999999996 C 9.72 39.599999999999994, 9.495000000000001 39.51, 9.3 36.18 C 9.33 32.94, 9.254999999999999 33.645, 9.36 29.700000000000003 C 9.54 25.05, 9.435 24.03, 9.72 20.4 C 10.11 17.79, 10.2 17.294999999999998, 10.5 15.18 C 10.71 13.559999999999999, 10.379999999999999 13.995, 10.92 11.94 C 11.79 9.45, 12.045 8.61, 12.66 6.959999999999999 C 13.02 6.1499999999999995, 13.079999999999998 5.879999999999999, 13.379999999999999 5.34 C 13.62 5.07, 13.575 4.950000000000001, 13.86 4.800000000000001 C 14.19 4.7700000000000005, 14.16 4.710000000000001, 14.52 4.74 C 14.91 4.83, 14.849999999999998 4.665, 15.299999999999999 4.92 C 15.809999999999999 5.34, 15.765 5.175, 16.32 5.76 C 16.92 6.51, 16.98 6.42, 17.52 7.26 C 18 8.190000000000001, 17.925 7.920000000000002, 18.48 9.120000000000001 C 19.11 10.59, 19.200000000000003 10.049999999999999, 19.740000000000002 12.059999999999999 C 20.19 14.61, 20.265 14.969999999999999, 20.64 17.16 C 20.94 18.990000000000002, 21.090000000000003 19.86, 21.240000000000002 20.82 C 21.240000000000002 20.91, 21.240000000000002 20.955, 21.240000000000002 21 C 21.240000000000002 21, 21.240000000000002 21, 21.240000000000002 21 C 21.240000000000002 21, 21.225 20.97, 21.240000000000002 21 C 21.27 21.060000000000002, 21.284999999999997 21.09, 21.299999999999997 21.12 C 21.299999999999997 21.12, 21.284999999999997 21.12, 21.299999999999997 21.12 C 21.33 21.12, 21.224999999999998 21.240000000000002, 21.36 21.12 C 21.6 20.880000000000003, 21.375 20.94, 21.84 20.64 C 22.53 20.28, 22.634999999999998 20.174999999999997, 23.22 19.919999999999998 C 23.7 19.77, 23.625 19.68, 24.18 19.62 C 24.810000000000002 19.65, 24.78 19.53, 25.44 19.68 C 26.130000000000003 19.95, 26.025000000000002 19.904999999999998, 26.82 20.22 C 27.72 20.58, 27.869999999999997 20.580000000000002, 28.619999999999997 20.94 C 29.22 21.3, 29.25 21.195, 29.82 21.66 C 30.36 22.229999999999997, 30.450000000000003 22.064999999999998, 30.900000000000002 22.799999999999997 C 31.259999999999998 23.699999999999996, 31.349999999999998 23.549999999999997, 31.619999999999997 24.599999999999998 C 31.799999999999997 25.799999999999997, 31.845 25.89, 31.98 27 C 32.07 28.02, 32.115 27.765, 32.160000000000004 29.04 C 32.160000000000004 30.569999999999997, 32.220000000000006 30.704999999999995, 32.160000000000004 32.099999999999994 C 32.040000000000006 33.36, 32.22 33.33, 31.92 34.62 C 31.44 35.94, 31.395000000000003 36.239999999999995, 30.96 37.26 C 30.57 37.980000000000004, 30.72 38.07, 30.18 38.7 C 29.49 39.24, 29.459999999999997 39.465, 28.799999999999997 39.78 C 28.169999999999998 39.870000000000005, 28.215 39.945, 27.54 39.96 C 26.82 39.9, 26.849999999999998 40.065, 26.099999999999998 39.839999999999996 C 25.32 39.45, 25.259999999999998 39.615, 24.54 39.06 C 23.88 38.34, 23.744999999999997 38.55, 23.22 37.62 C 22.83 36.48, 22.71 36.959999999999994, 22.44 35.339999999999996 C 22.29 33.239999999999995, 22.215 33.24, 22.14 31.14 C 22.14 29.04, 22.14 27.990000000000002, 22.14 26.94 C 22.14 26.94, 22.14 26.94, 22.14 26.94 L 22.14 26.94" fill="none" stroke="black" stroke-width="5"></path><path d="M 18.96 9.84 C 19.11 9.57, 18.869999999999997 9.63, 19.259999999999998 9.3 C 19.89 8.91, 19.799999999999997 8.715, 20.52 8.52 C 21.33 8.52, 21.27 8.43, 22.14 8.52 C 23.07 8.7, 23.130000000000003 8.444999999999999, 24 8.879999999999999 C 24.81 9.57, 24.93 9.54, 25.619999999999997 10.26 C 26.189999999999998 11.01, 26.279999999999998 11.04, 26.759999999999998 11.76 C 27.15 12.45, 27.24 12.585, 27.54 13.14 C 27.75 13.56, 27.855 13.77, 27.96 13.98 C 27.96 13.98, 27.96 13.98, 27.96 13.98 C 27.96 13.98, 27.96 14.010000000000002, 27.96 13.98 C 27.96 13.92, 27.945 14.265, 27.96 13.86 C 27.990000000000002 13.11, 27.855 13.215, 28.02 12.36 C 28.32 11.399999999999999, 28.259999999999998 11.25, 28.619999999999997 10.44 C 29.04 9.780000000000001, 28.605 9.780000000000001, 29.46 9.120000000000001 C 30.75 8.46, 31.08 8.22, 32.04 7.800000000000001 C 32.67 7.62, 32.669999999999995 7.529999999999999, 33.3 7.4399999999999995 C 33.93 7.4399999999999995, 34.2 7.4399999999999995, 34.56 7.4399999999999995 C 34.650000000000006 7.4399999999999995, 34.665000000000006 7.4399999999999995, 34.74 7.4399999999999995 L 34.86 7.4399999999999995" fill="none" stroke="black" stroke-width="5"></path></svg>