<svg width="48" height="48" viewBox="0 0 48 48" xmlns="http://www.w3.org/2000/svg"><path d="M 28.98 36.06 C 28.47 37.17, 28.44 37.005, 27.96 38.28 C 27.509999999999998 39.72, 27.645 39.915000000000006, 27.06 41.160000000000004 C 26.339999999999996 42.21, 26.849999999999998 42.375, 25.619999999999997 43.26 C 23.88 43.980000000000004, 23.715 44.25, 22.14 44.7 C 20.73 44.88, 20.445 44.97, 19.32 45.06 C 18.48 45.06, 18.495 45.315000000000005, 17.64 45.06 C 16.77 44.55, 16.71 44.865, 15.899999999999999 44.04 C 15.149999999999999 42.9, 14.954999999999998 43.379999999999995, 14.399999999999999 41.76 C 14.04 39.66, 13.905 39.36, 13.68 37.56 C 13.59 36.06, 13.545 35.760000000000005, 13.5 34.56 C 13.5 33.66, 13.5 33.48, 13.5 32.76 C 13.5 32.22, 13.485 32.025, 13.5 31.68 C 13.53 31.53, 13.395 31.53, 13.559999999999999 31.380000000000003 C 13.86 31.23, 13.785 31.185, 14.16 31.08 C 14.61 31.02, 14.009999999999998 30.87, 15.059999999999999 30.96 C 16.71 31.200000000000003, 16.485 31.230000000000004, 18.36 31.44 C 20.46 31.619999999999997, 20.7 31.709999999999997, 22.56 31.799999999999997 C 24.18 31.799999999999997, 24.344999999999995 31.799999999999997, 25.799999999999997 31.799999999999997 C 27.09 31.799999999999997, 27.315 31.889999999999997, 28.380000000000003 31.799999999999997 C 29.22 31.619999999999997, 29.475 31.695, 30.06 31.44 C 30.39 31.11, 30.45 31.23, 30.72 30.78 C 30.93 30.21, 30.990000000000002 30.315, 31.14 29.64 C 31.23 28.86, 31.35 29.775, 31.32 28.08 C 31.17 25.47, 31.32 25.785, 31.02 22.86 C 30.57 19.619999999999997, 30.509999999999998 19.169999999999998, 30.119999999999997 16.38 C 29.79 14.04, 29.715 13.44, 29.46 11.7 C 29.28 10.559999999999999, 29.22 10.02, 29.099999999999998 9.42 C 29.04 9.36, 29.07 9.540000000000001, 28.98 9.3 C 28.86 8.879999999999999, 28.8 8.774999999999999, 28.740000000000002 8.459999999999999 C 28.740000000000002 8.25, 28.770000000000003 8.355, 28.740000000000002 8.040000000000001 C 28.68 7.62, 28.65 7.41, 28.619999999999997 7.199999999999999 L 28.619999999999997 7.199999999999999" fill="none" stroke="black" stroke-width="5"></path><path d="M 14.82 10.68 C 16.23 12.6, 16.425 12.855, 17.64 14.52 C 18.66 15.93, 18.75 15.99, 19.68 17.34 C 20.52 18.63, 20.535 18.674999999999997, 21.36 19.919999999999998 C 22.17 21.119999999999997, 22.365000000000002 21.405, 22.98 22.32 C 23.4 22.950000000000003, 23.61 23.265, 23.82 23.580000000000002 C 23.82 23.580000000000002, 23.82 23.580000000000002, 23.82 23.580000000000002 C 23.82 23.580000000000002, 23.700000000000003 23.745000000000005, 23.82 23.580000000000002 C 24.06 23.25, 23.699999999999996 24.044999999999998, 24.299999999999997 22.919999999999998 C 25.259999999999998 21, 25.47 20.475, 26.22 19.080000000000002 C 26.759999999999998 18.21, 26.595 18.48, 27.299999999999997 17.34 C 28.169999999999998 15.93, 28.394999999999996 15.6, 29.04 14.52 C 29.46 13.77, 29.610000000000003 13.515, 29.880000000000003 13.02 C 30 12.78, 30.06 12.66, 30.119999999999997 12.54 C 30.119999999999997 12.54, 30.119999999999997 12.54, 30.119999999999997 12.54 L 30.119999999999997 12.54" fill="none" stroke="black" stroke-width="5"></path></svg>