<svg width="48" height="48" viewBox="0 0 48 48" xmlns="http://www.w3.org/2000/svg"><path d="M 14.52 15.059999999999999 C 15.69 14.94, 14.564999999999998 14.91, 16.86 14.82 C 20.28 14.760000000000002, 21.315 14.73, 23.700000000000003 14.700000000000001 C 25.050000000000004 14.700000000000001, 25.185000000000002 14.700000000000001, 26.400000000000002 14.700000000000001 C 27.48 14.700000000000001, 27.72 14.700000000000001, 28.56 14.700000000000001 C 29.159999999999997 14.700000000000001, 29.384999999999998 14.685000000000002, 29.759999999999998 14.700000000000001 C 29.909999999999997 14.73, 29.82 14.58, 30.06 14.76 C 30.39 15.09, 30.36 14.999999999999998, 30.72 15.419999999999998 C 31.11 15.93, 31.185 15.84, 31.5 16.44 C 31.740000000000002 17.130000000000003, 31.86 16.77, 31.98 17.82 C 31.98 19.23, 31.98 19.5, 31.98 20.64 C 31.98 21.509999999999998, 31.98 21.585, 31.98 22.38 C 31.98 23.1, 31.98 23.46, 31.98 23.82 L 31.98 23.82" fill="none" stroke="black" stroke-width="5"></path><path d="M 16.919999999999998 4.0200000000000005 C 17.7 5.46, 17.535 5.145, 18.48 6.8999999999999995 C 19.590000000000003 8.97, 19.665000000000003 9.465, 20.700000000000003 11.040000000000001 C 21.660000000000004 12.120000000000001, 21.915000000000003 12.480000000000002, 22.62 13.200000000000001 C 23.07 13.559999999999999, 23.205 13.649999999999999, 23.52 13.919999999999998 C 23.7 14.099999999999998, 23.79 14.19, 23.88 14.28 C 23.88 14.28, 23.805 14.19, 23.88 14.28 C 24.03 14.46, 24.015 14.475, 24.18 14.64 C 24.36 14.790000000000001, 24.45 14.865000000000002, 24.54 14.940000000000001 C 24.54 14.940000000000001, 24.075 15.570000000000002, 24.54 14.940000000000001 C 25.47 13.68, 25.335 14.084999999999999, 26.400000000000002 12.419999999999998 C 27.6 10.349999999999998, 27.825 9.78, 28.799999999999997 8.28 C 29.549999999999997 7.35, 29.744999999999997 7.095, 30.299999999999997 6.42 C 30.659999999999997 6, 30.84 5.79, 31.02 5.58 C 31.02 5.58, 30.945 5.67, 31.02 5.58 C 31.17 5.4, 31.23 5.3549999999999995, 31.32 5.22 L 31.380000000000003 5.04" fill="none" stroke="black" stroke-width="5"></path><path d="M 24 14.76 C 24.12 14.879999999999999, 24.165000000000003 14.504999999999999, 24.240000000000002 15 C 24.27 15.870000000000001, 24.284999999999997 15.570000000000002, 24.299999999999997 16.740000000000002 C 24.299999999999997 18.21, 24.314999999999998 17.64, 24.299999999999997 19.68 C 24.27 22.29, 24.255000000000003 22.185000000000002, 24.240000000000002 24.900000000000002 C 24.240000000000002 27.72, 24.240000000000002 27.435, 24.240000000000002 30.54 C 24.240000000000002 33.93, 24.240000000000002 34.65, 24.240000000000002 37.32 C 24.240000000000002 39.269999999999996, 24.240000000000002 39.465, 24.240000000000002 41.22 C 24.240000000000002 42.78, 24.180000000000003 43.169999999999995, 24.240000000000002 44.339999999999996 C 24.36 45.120000000000005, 24.405 45.435, 24.48 45.900000000000006 C 24.509999999999998 46.050000000000004, 24.509999999999998 46.11000000000001, 24.54 46.2 C 24.57 46.230000000000004, 24.345 46.65, 24.599999999999998 46.26 C 25.08 45.45, 25.034999999999997 45.63, 25.56 44.64 C 26.130000000000003 43.47, 26.040000000000003 43.65, 26.700000000000003 42.3 C 27.450000000000003 40.769999999999996, 27.135000000000005 40.71, 28.200000000000003 39.24 C 29.580000000000002 37.83, 29.610000000000003 37.410000000000004, 30.96 36.42 C 32.28 35.85, 32.58 35.61, 33.599999999999994 35.28 C 34.31999999999999 35.19, 34.605 35.144999999999996, 35.04 35.099999999999994 C 35.19 35.099999999999994, 35.265 35.099999999999994, 35.339999999999996 35.099999999999994 L 35.339999999999996 35.099999999999994" fill="none" stroke="black" stroke-width="5"></path></svg>