<svg width="48" height="48" viewBox="0 0 48 48" xmlns="http://www.w3.org/2000/svg"><path d="M 11.52 26.04 C 11.489999999999998 25.47, 11.534999999999998 26.115000000000002, 11.459999999999999 24.900000000000002 C 11.34 23.04, 11.22 22.77, 11.22 21.18 C 11.34 19.86, 11.19 19.71, 11.459999999999999 18.54 C 11.879999999999999 17.52, 11.864999999999998 17.295, 12.299999999999999 16.5 C 12.75 15.93, 12.690000000000001 15.87, 13.200000000000001 15.36 C 13.77 14.91, 13.8 14.685, 14.34 14.46 C 14.85 14.46, 14.85 14.370000000000001, 15.36 14.46 C 15.87 14.64, 15.825 14.565000000000001, 16.38 14.82 C 16.98 15.15, 16.950000000000003 15.015, 17.580000000000002 15.48 C 18.240000000000002 16.08, 18.285 15.975000000000001, 18.9 16.68 C 19.47 17.49, 19.619999999999997 17.339999999999996, 20.04 18.299999999999997 C 20.310000000000002 19.409999999999997, 20.37 19.665, 20.580000000000002 20.52 C 20.73 21.119999999999997, 20.759999999999998 21.33, 20.88 21.72 C 20.97 21.9, 21.015 21.990000000000002, 21.06 22.080000000000002 C 21.06 22.080000000000002, 21.06 22.17, 21.06 22.080000000000002 C 21.06 21.9, 21.06 22.035, 21.06 21.72 C 21.06 21.27, 20.97 21.495, 21.06 20.82 C 21.24 19.92, 21.104999999999997 19.89, 21.419999999999998 19.02 C 21.869999999999997 18.18, 21.705 18.134999999999998, 22.32 17.34 C 23.1 16.59, 23.189999999999998 16.32, 23.88 15.84 C 24.479999999999997 15.629999999999999, 24.134999999999998 15.734999999999998, 25.08 15.419999999999998 C 26.37 15, 26.655000000000005 14.790000000000001, 27.660000000000004 14.580000000000002 C 28.380000000000003 14.580000000000002, 28.544999999999998 14.490000000000002, 29.099999999999998 14.580000000000002 C 29.490000000000002 14.760000000000002, 29.490000000000002 14.670000000000002, 29.880000000000003 14.940000000000001 C 30.270000000000003 15.3, 30.195000000000004 15.075, 30.660000000000004 15.66 C 31.200000000000003 16.47, 31.35 16.455000000000002, 31.740000000000002 17.28 C 31.98 18.12, 32.055 17.985, 32.22 18.96 C 32.31 20.07, 32.31 20.295, 32.400000000000006 21.18 C 32.49 21.84, 32.535 22.02, 32.58 22.5 C 32.58 22.8, 32.58 22.665, 32.58 23.1 L 32.58 24.240000000000002" fill="none" stroke="black" stroke-width="5"></path><path d="M 9.24 5.46 C 9.629999999999999 5.1899999999999995, 9.105 5.055, 10.02 4.92 C 11.459999999999999 4.92, 11.474999999999998 4.71, 12.899999999999999 4.92 C 14.309999999999999 5.34, 14.58 5.22, 15.72 5.76 C 16.59 6.42, 16.560000000000002 6.225, 17.46 7.08 C 18.39 8.129999999999999, 18.645 8.309999999999999, 19.32 9.18 C 19.740000000000002 9.870000000000001, 19.89 10.095, 20.16 10.56 C 20.28 10.8, 20.34 10.920000000000002, 20.4 11.040000000000001 C 20.4 11.040000000000001, 20.4 11.040000000000001, 20.4 11.040000000000001 C 20.4 11.040000000000001, 20.4 11.055000000000001, 20.4 11.040000000000001 C 20.4 11.010000000000002, 20.264999999999997 11.46, 20.4 10.98 C 20.67 10.05, 20.595 10.005, 20.94 9.120000000000001 C 21.36 8.280000000000001, 21.345000000000002 8.07, 21.78 7.4399999999999995 C 22.23 7.02, 22.11 6.99, 22.68 6.6000000000000005 C 23.369999999999997 6.24, 23.009999999999998 6.12, 24.06 5.88 C 25.47 5.76, 25.770000000000003 5.699999999999999, 26.880000000000003 5.64 C 27.69 5.64, 27.810000000000002 5.64, 28.5 5.64 C 29.07 5.64, 29.085 5.5649999999999995, 29.64 5.64 C 30.18 5.789999999999999, 30.21 5.76, 30.72 5.9399999999999995 L 31.68 6.36" fill="none" stroke="black" stroke-width="5"></path><path d="M 20.94 20.64 C 20.94 21.21, 20.94 20.85, 20.94 21.78 C 20.94 23.07, 20.82 23.235, 20.94 24.36 C 21.18 25.32, 20.97 25.26, 21.419999999999998 26.28 C 22.08 27.36, 21.93 27.495, 22.740000000000002 28.44 C 23.700000000000003 29.25, 23.415000000000006 29.325, 24.660000000000004 30.06 C 26.19 30.72, 26.43 30.930000000000003, 27.72 31.380000000000003 C 28.77 31.62, 29.055 31.62, 29.82 31.86 C 30.3 32.099999999999994, 30.285000000000004 32.06999999999999, 30.78 32.339999999999996 C 31.29 32.64, 31.349999999999998 32.535, 31.799999999999997 32.94 C 32.19 33.45, 32.339999999999996 33.63, 32.58 33.96 C 32.67 34.11, 32.714999999999996 34.185, 32.76 34.26 C 32.76 34.26, 32.76 34.14, 32.76 34.26 C 32.76 34.5, 32.985 34.44, 32.76 34.74 C 32.31 35.1, 32.879999999999995 34.86, 31.86 35.46 C 30.27 36.3, 29.865000000000002 36.6, 28.68 37.14 C 27.9 37.379999999999995, 28.199999999999996 37.23, 27.119999999999997 37.62 C 25.74 38.16, 26.145 37.845, 24.36 38.7 C 22.17 39.870000000000005, 21.84 39.84, 19.98 41.04 C 18.45 42.269999999999996, 17.955 42.51, 16.919999999999998 43.5 C 16.38 44.25, 16.169999999999998 44.475, 15.84 45 C 15.72 45.3, 15.66 45.449999999999996, 15.600000000000001 45.599999999999994 C 15.600000000000001 45.599999999999994, 15.600000000000001 45.599999999999994, 15.600000000000001 45.599999999999994 L 15.600000000000001 45.599999999999994" fill="none" stroke="black" stroke-width="5"></path><path d="M 12.48 33.72 C 12.57 33.72, 12.3 33.675, 12.66 33.72 C 13.29 33.81, 13.079999999999998 33.645, 13.919999999999998 33.900000000000006 C 14.969999999999999 34.32000000000001, 15.059999999999999 34.215, 16.02 34.74 C 16.89 35.370000000000005, 16.994999999999997 35.385, 17.759999999999998 36 C 18.42 36.6, 18.525000000000002 36.660000000000004, 19.080000000000002 37.2 C 19.53 37.68000000000001, 19.545 37.68000000000001, 19.98 38.160000000000004 C 20.4 38.64, 20.55 38.79, 20.82 39.12 C 20.939999999999998 39.3, 21 39.39, 21.06 39.480000000000004 C 21.06 39.480000000000004, 21.06 39.480000000000004, 21.06 39.480000000000004 C 21.06 39.480000000000004, 21.06 39.480000000000004, 21.06 39.480000000000004 C 21.06 39.480000000000004, 21.014999999999997 39.39000000000001, 21.06 39.480000000000004 C 21.15 39.66, 21.195 39.75, 21.240000000000002 39.839999999999996 L 21.240000000000002 39.839999999999996" fill="none" stroke="black" stroke-width="5"></path></svg>