<svg xmlns="http://www.w3.org/2000/svg" viewBox="9.580979347229004 2.9000000953674316 18.599020957946777 37.279998779296875" width="18.599020957946777" height="37.279998779296875"><path d="M 13.379999999999999 5.76 C 13.05 7.26, 13.125 6.8100000000000005, 12.72 8.76 C 12.24 11.16, 12.21 11.489999999999998, 11.76 13.559999999999999 C 11.34 15.299999999999999, 11.205 15.36, 10.92 17.04 C 10.77 18.66, 10.65 19.11, 10.620000000000001 20.28 C 10.71 21, 10.38 21.255, 10.8 21.72 C 11.55 21.93, 11.384999999999998 22.035, 12.299999999999999 22.14 C 13.379999999999999 22.14, 13.11 22.14, 14.46 22.14 C 16.080000000000002 22.14, 15.960000000000004 22.14, 17.700000000000003 22.14 C 19.560000000000002 22.14, 19.919999999999998 22.155, 21.419999999999998 22.14 C 22.560000000000002 22.11, 23.025000000000002 22.095000000000002, 23.700000000000003 22.080000000000002 C 23.91 22.080000000000002, 23.895 22.080000000000002, 24.119999999999997 22.080000000000002 C 24.36 22.080000000000002, 24.404999999999998 22.080000000000002, 24.599999999999998 22.080000000000002 L 24.900000000000002 22.080000000000002" fill="none" stroke="black" stroke-width="2"></path><path d="M 23.82 30.299999999999997 C 23.189999999999998 29.939999999999998, 23.49 29.775, 22.56 29.58 C 21.33 29.549999999999997, 21.060000000000002 29.294999999999998, 20.1 29.52 C 19.41 30, 19.515 29.625, 18.72 30.48 C 17.82 31.71, 17.549999999999997 31.634999999999998, 16.919999999999998 32.94 C 16.560000000000002 34.32, 16.245 34.515, 16.200000000000003 35.7 C 16.470000000000002 36.69, 16.200000000000003 36.945, 16.740000000000002 37.68 C 17.55 38.16, 17.384999999999998 38.265, 18.36 38.64 C 19.5 38.91, 19.635 39.105000000000004, 20.64 39.18 C 21.509999999999998 39.06, 21.735 39.3, 22.38 38.94 C 22.799999999999997 38.34, 22.95 38.370000000000005, 23.22 37.74 C 23.34 37.08, 23.235 37.425000000000004, 23.46 36.42 C 23.79 35.07, 23.79 35.22, 24.119999999999997 33.72 C 24.45 32.07, 24.42 32.475, 24.78 30.42 C 25.17 27.96, 25.154999999999998 28.17, 25.56 25.5 C 25.98 22.62, 26.085 22.275000000000002, 26.400000000000002 19.740000000000002 C 26.61 17.55, 26.715 17.28, 26.82 15.36 C 26.82 13.709999999999999, 26.775 13.814999999999998, 26.82 12.059999999999999 C 26.91 10.2, 26.925 9.809999999999999, 27 8.34 C 27.06 7.26, 27.074999999999996 7.109999999999999, 27.119999999999997 6.18 C 27.15 5.4, 27.165 5.1899999999999995, 27.18 4.62 C 27.18 4.26, 27.18 4.08, 27.18 3.9000000000000004 L 27.18 3.9000000000000004" fill="none" stroke="black" stroke-width="2"></path><path d="M 19.5 10.620000000000001 C 19.17 11.34, 19.05 11.294999999999998, 18.84 12.059999999999999 C 18.75 12.87, 18.615000000000002 12.915, 18.66 13.68 C 18.84 14.4, 18.57 14.745000000000001, 19.02 15.120000000000001 C 19.740000000000002 15.15, 19.725 15.495000000000001, 20.46 15.18 C 21.21 14.52, 21.465 14.52, 21.96 13.86 C 22.200000000000003 13.2, 22.380000000000003 13.245, 22.44 12.54 C 22.32 11.79, 22.620000000000005 11.64, 22.200000000000003 11.040000000000001 C 21.48 10.59, 21.24 10.38, 20.759999999999998 10.14 C 20.52 10.11, 20.520000000000003 9.855, 20.28 10.08 C 20.04 10.56, 19.934999999999995 10.47, 19.799999999999997 11.040000000000001 C 19.77 11.7, 19.665 11.684999999999999, 19.740000000000002 12.36 C 19.92 13.05, 19.635 13.38, 20.1 13.74 C 20.85 13.77, 21.075000000000003 14.129999999999999, 21.6 13.799999999999999 C 21.900000000000002 13.11, 22.17 12.974999999999998, 22.200000000000003 12.419999999999998 C 21.96 12, 22.005 11.835, 21.72 11.58 C 21.39 11.489999999999998, 21.284999999999997 11.37, 21.06 11.399999999999999 C 20.939999999999998 11.549999999999999, 20.895 11.579999999999998, 20.82 11.7 L 20.759999999999998 11.879999999999999" fill="none" stroke="black" stroke-width="2"></path><path d="M 20.34 10.44 C 20.73 11.55, 20.895 11.865, 21.12 12.66 C 21.18 13.14, 21.21 13.38, 21.240000000000002 13.620000000000001 L 21.240000000000002 13.620000000000001" fill="none" stroke="black" stroke-width="2"></path></svg>