<svg xmlns="http://www.w3.org/2000/svg" viewBox="10.593505859375 2.7200000286102295 20.886493682861328 37.64000058174133" width="20.886493682861328" height="37.64000058174133"><path d="M 13.799999999999999 3.7199999999999998 C 13.049999999999999 6.75, 12.825 6.599999999999999, 12.299999999999999 9.78 C 12 13.11, 11.85 13.350000000000001, 11.7 16.44 C 11.7 19.29, 11.669999999999998 19.785, 11.7 22.14 C 11.76 24, 11.355 24.18, 11.82 25.86 C 12.69 27.36, 12.884999999999998 28.034999999999997, 13.559999999999999 28.86 C 14.04 29.01, 13.53 29.595000000000006, 14.52 29.160000000000004 C 16.02 28.14, 16.365 28.695, 17.52 27.119999999999997 C 18.33 24.99, 18.705000000000002 24.21, 19.14 22.86 C 19.2 22.29, 19.229999999999997 22.049999999999997, 19.259999999999998 21.72 C 19.259999999999998 21.63, 19.199999999999996 21.599999999999998, 19.259999999999998 21.54 C 19.38 21.509999999999998, 19.365000000000002 20.985, 19.5 21.48 C 19.65 22.5, 19.424999999999997 22.38, 19.799999999999997 23.52 C 20.4 24.78, 20.369999999999997 25.169999999999998, 21 26.04 C 21.66 26.52, 20.97 26.625, 22.32 27 C 24.36 27.27, 24.660000000000004 27.555, 26.400000000000002 27.54 C 27.840000000000003 27.240000000000002, 28.305000000000003 27.285, 29.28 26.94 C 29.79 26.550000000000004, 29.999999999999996 26.370000000000005, 30.299999999999997 26.160000000000004 C 30.39 26.130000000000003, 30.435 26.115, 30.48 26.099999999999998 L 30.48 26.099999999999998" fill="none" stroke="black" stroke-width="2"></path><path d="M 20.88 10.620000000000001 C 20.04 11.190000000000001, 19.680000000000003 11.235, 19.200000000000003 11.76 C 19.080000000000002 12.24, 18.810000000000002 12.180000000000001, 18.96 12.72 C 19.38 13.32, 19.29 13.665, 19.799999999999997 13.919999999999998 C 20.4 13.829999999999998, 20.46 14.16, 21 13.74 C 21.48 12.99, 21.72 12.81, 21.96 12.24 C 21.96 11.85, 22.185000000000002 11.94, 21.96 11.459999999999999 C 21.509999999999998 10.89, 21.81 10.620000000000001, 21.06 10.32 C 20.009999999999998 10.29, 19.59 9.885, 18.96 10.26 C 18.75 11.04, 18.509999999999998 11.13, 18.54 11.82 C 18.810000000000002 12.42, 18.660000000000004 12.54, 19.080000000000002 13.02 C 19.65 13.379999999999999, 19.785 13.68, 20.22 13.74 C 20.52 13.5, 20.625 13.620000000000001, 20.82 13.26 C 20.91 12.78, 20.955 12.54, 21 12.299999999999999 C 21 12.299999999999999, 21 12.344999999999999, 21 12.299999999999999 C 21 12.21, 21.165 12.105, 21 12.120000000000001 C 20.67 12.24, 20.535 12.18, 20.34 12.36 C 20.28 12.6, 20.25 12.69, 20.22 12.84 L 20.22 12.96" fill="none" stroke="black" stroke-width="2"></path><path d="M 19.5 34.86 C 18.57 35.28, 18.375 35.07, 17.64 35.7 C 17.1 36.540000000000006, 16.515 36.6, 16.56 37.38 C 17.189999999999998 38.1, 16.98 38.355000000000004, 17.82 38.82 C 18.869999999999997 39.03, 18.854999999999997 39.255, 19.919999999999998 39.24 C 21 39, 21.3 39.42, 22.080000000000002 38.76 C 22.560000000000002 37.67999999999999, 23.055 37.544999999999995, 23.04 36.599999999999994 C 22.53 35.79, 22.439999999999998 35.535000000000004, 22.02 34.980000000000004 C 21.689999999999998 34.68000000000001, 22.02 34.425000000000004, 21.36 34.38 C 20.369999999999997 34.59, 20.265 34.035, 19.38 34.8 C 18.6 36.12, 18.075 36.53999999999999, 17.82 37.44 C 18.09 37.92, 17.895 37.92, 18.36 38.400000000000006 C 19.02 38.88, 19.05 39.24, 19.68 39.36 C 20.28 39.120000000000005, 20.43 39.63, 20.88 38.88 C 21.18 37.620000000000005, 21.33 37.305, 21.48 36.36 C 21.48 35.73, 22.02 35.33999999999999, 21.48 35.099999999999994 C 20.4 35.25, 19.95 35.115, 19.32 35.400000000000006 C 19.14 35.82000000000001, 18.96 35.80500000000001, 18.96 36.24 C 19.14 36.69, 18.915 36.870000000000005, 19.32 37.14 C 19.950000000000003 37.230000000000004, 20.145000000000003 37.47, 20.580000000000002 37.32 C 20.82 36.93, 20.939999999999998 36.735, 21.06 36.54 C 21.06 36.54, 21.15 36.495, 21.06 36.54 C 20.880000000000003 36.629999999999995, 20.94 36.464999999999996, 20.700000000000003 36.72 C 20.400000000000002 37.14, 20.265 37.335, 20.1 37.56 L 20.04 37.62" fill="none" stroke="black" stroke-width="2"></path></svg>