<svg xmlns="http://www.w3.org/2000/svg" viewBox="17.18000030517578 2.9600000381469727 13.760000228881836 41.29999828338623" width="13.760000228881836" height="41.29999828338623"><path d="M 21.72 4.4399999999999995 C 20.85 5.31, 20.595 5.3999999999999995, 19.98 6.18 C 19.619999999999997 6.87, 19.244999999999997 7.035, 19.259999999999998 7.5600000000000005 C 19.65 7.92, 19.409999999999997 8.1, 20.04 8.28 C 20.91 8.28, 21.165 8.459999999999999, 21.78 8.28 C 22.14 7.92, 22.305 8.07, 22.5 7.5600000000000005 C 22.53 6.9, 22.575 6.795, 22.56 6.24 C 22.5 5.79, 22.86 5.91, 22.44 5.34 C 21.66 4.65, 21.66 4.215, 20.88 3.96 C 20.1 4.140000000000001, 19.995 3.705, 19.32 4.32 C 18.75 5.37, 18.285 5.609999999999999, 18.18 6.42 C 18.54 6.99, 18.435 7.08, 18.9 7.5600000000000005 C 19.47 7.95, 19.515 8.1, 20.04 8.34 C 20.52 8.43, 20.564999999999998 8.745, 21 8.52 C 21.39 7.9799999999999995, 21.57 7.875, 21.78 7.4399999999999995 C 21.810000000000002 7.109999999999999, 21.93 7.184999999999999, 21.84 6.779999999999999 C 21.63 6.3, 21.869999999999997 6.225, 21.419999999999998 5.82 C 20.729999999999997 5.49, 20.595 5.3100000000000005, 20.04 5.16 C 19.62 5.1899999999999995, 19.425000000000004 4.92, 19.200000000000003 5.22 C 19.17 5.79, 19.155 6.075, 19.14 6.36 L 19.14 6.36" fill="none" stroke="black" stroke-width="2"></path><path d="M 19.919999999999998 6.24 C 20.22 6.8100000000000005, 20.354999999999997 7.05, 20.52 7.38 C 20.55 7.470000000000001, 20.520000000000003 7.470000000000001, 20.580000000000002 7.5600000000000005 L 20.759999999999998 7.74" fill="none" stroke="black" stroke-width="2"></path><path d="M 20.04 12.419999999999998 C 19.919999999999998 14.129999999999999, 19.904999999999998 14.174999999999999, 19.799999999999997 15.84 C 19.71 17.46, 19.68 16.995, 19.62 19.080000000000002 C 19.59 21.630000000000003, 19.604999999999997 22.11, 19.56 24.18 C 19.5 25.77, 19.515 25.875, 19.44 27.36 C 19.35 28.74, 19.305 28.634999999999998, 19.259999999999998 30.119999999999997 C 19.259999999999998 31.709999999999997, 19.259999999999998 31.889999999999997, 19.259999999999998 33.3 C 19.259999999999998 34.53, 19.304999999999996 34.68, 19.259999999999998 35.76 C 19.17 36.69, 19.125 36.72, 19.080000000000002 37.62 C 19.080000000000002 38.489999999999995, 19.080000000000002 38.655, 19.080000000000002 39.36 C 19.080000000000002 39.9, 19.080000000000002 39.974999999999994, 19.080000000000002 40.44 C 19.080000000000002 40.83, 19.020000000000003 40.905, 19.080000000000002 41.22 C 19.200000000000003 41.46, 19.26 41.58, 19.32 41.7 C 19.32 41.7, 19.215 41.580000000000005, 19.32 41.7 C 19.53 41.94, 19.635 42.06, 19.740000000000002 42.18 C 19.740000000000002 42.18, 19.695000000000004 42.135, 19.740000000000002 42.18 C 19.83 42.269999999999996, 19.83 42.3, 19.919999999999998 42.36 C 20.009999999999998 42.39, 19.98 42.36, 20.1 42.42 C 20.25 42.51, 20.16 42.55499999999999, 20.4 42.599999999999994 C 20.729999999999997 42.599999999999994, 20.595 42.55499999999999, 21.06 42.599999999999994 C 21.659999999999997 42.69, 21.674999999999997 42.72, 22.259999999999998 42.78 C 22.83 42.81, 22.575 42.794999999999995, 23.4 42.839999999999996 C 24.479999999999997 42.9, 24.705 42.93, 25.56 42.96 C 26.189999999999998 42.96, 26.310000000000002 42.915, 26.82 42.96 C 27.21 43.05, 27.209999999999997 43.065, 27.599999999999998 43.14 C 27.990000000000002 43.2, 27.96 43.23, 28.380000000000003 43.26 C 28.830000000000002 43.26, 28.965000000000003 43.26, 29.28 43.26 C 29.46 43.26, 29.520000000000003 43.26, 29.64 43.26 C 29.7 43.26, 29.685 43.26, 29.759999999999998 43.26 L 29.94 43.26" fill="none" stroke="black" stroke-width="2"></path></svg>