<svg xmlns="http://www.w3.org/2000/svg" viewBox="11.929755210876465 5.059999942779541 17.536911964416504 36.37844228744507" width="17.536911964416504" height="36.37844228744507"><path d="M 13.559999999999999 6.0600000000000005 C 13.35 8.04, 13.29 7.875, 13.14 10.02 C 13.05 12.33, 12.855 12.195, 12.96 14.64 C 13.26 17.22, 13.29 17.834999999999997, 13.559999999999999 19.799999999999997 C 13.799999999999999 21.15, 13.694999999999999 21.45, 14.04 22.5 C 14.49 23.25, 14.520000000000001 23.445, 14.940000000000001 24 C 15.330000000000002 24.36, 15.285 24.689999999999998, 15.72 24.72 C 16.2 24.419999999999998, 16.305 24.54, 16.68 24.119999999999997 C 16.95 23.58, 16.845 24.06, 17.22 23.04 C 17.7 21.54, 17.865 21.029999999999998, 18.18 20.04 C 18.33 19.560000000000002, 18.405 19.32, 18.48 19.080000000000002 C 18.48 19.080000000000002, 18.36 19.080000000000002, 18.48 19.080000000000002 C 18.72 19.080000000000002, 18.705000000000002 18.615000000000002, 18.96 19.080000000000002 C 19.23 20.01, 19.14 20.07, 19.5 20.94 C 19.95 21.75, 19.784999999999997 21.72, 20.4 22.56 C 21.18 23.43, 20.82 23.729999999999997, 21.96 24.299999999999997 C 23.46 24.569999999999997, 23.745 24.989999999999995, 24.96 24.839999999999996 C 25.89 24.27, 26.130000000000003 24.240000000000002, 26.82 23.700000000000003 C 27.27 23.19, 27.314999999999998 23.61, 27.72 22.68 C 28.08 21.33, 28.26 21.48, 28.44 19.98 C 28.44 18.33, 28.5 18.78, 28.44 16.68 C 28.32 14.129999999999999, 28.425000000000004 13.754999999999999, 28.200000000000003 11.58 C 27.87 9.780000000000001, 27.705 8.955, 27.54 7.98 C 27.54 7.83, 27.54 7.755, 27.54 7.68 L 27.54 7.68" fill="none" stroke="black" stroke-width="2"></path><path d="M 20.4 11.28 C 20.07 11.64, 19.905 11.625, 19.740000000000002 12 C 19.740000000000002 12.39, 19.545 12.509999999999998, 19.740000000000002 12.78 C 20.130000000000003 12.93, 20.04 13.095000000000002, 20.52 13.080000000000002 C 21.09 12.900000000000002, 21.255 13.200000000000001, 21.66 12.72 C 21.9 11.940000000000001, 22.200000000000003 11.73, 22.14 11.16 C 21.78 10.8, 21.854999999999997 10.62, 21.419999999999998 10.44 C 20.909999999999997 10.44, 20.834999999999997 10.184999999999999, 20.4 10.44 C 20.04 10.95, 19.83 10.815, 19.68 11.459999999999999 C 19.74 12.239999999999998, 19.724999999999998 12.584999999999999, 19.799999999999997 13.02 C 19.89 13.11, 19.86 13.170000000000002, 19.98 13.200000000000001 C 20.130000000000003 13.170000000000002, 20.1 13.350000000000001, 20.28 13.14 C 20.490000000000002 12.75, 20.595000000000002 12.555, 20.700000000000003 12.36 C 20.700000000000003 12.36, 20.700000000000003 12.36, 20.700000000000003 12.36 L 20.700000000000003 12.36" fill="none" stroke="black" stroke-width="2"></path><path d="M 22.14 30.299999999999997 C 21.21 30.209999999999997, 21.36 30.029999999999994, 20.28 30.119999999999997 C 19.05 30.39, 18.9 30.045, 17.82 30.660000000000004 C 16.89 31.62, 16.8 31.424999999999997, 15.96 32.58 C 15.21 33.93, 14.865000000000002 34.065, 14.46 35.28 C 14.4 36.36, 14.025 36.449999999999996, 14.34 37.44 C 15.030000000000001 38.34, 14.865000000000002 38.535000000000004, 15.72 39.24 C 16.74 39.75, 16.634999999999998 39.989999999999995, 17.759999999999998 40.26 C 18.99 40.29, 19.11 40.605000000000004, 20.22 40.32 C 21.21 39.72, 21.360000000000003 39.824999999999996, 22.200000000000003 39.12 C 22.89 38.31, 23.130000000000003 38.34, 23.580000000000002 37.5 C 23.79 36.629999999999995, 23.895 36.915, 24 35.76 C 24 34.32, 24.27 34.11, 24 32.88 C 23.46 31.86, 23.445 31.574999999999996, 22.919999999999998 30.839999999999996 C 22.409999999999997 30.39, 22.229999999999997 30.21, 21.9 29.94 C 21.75 29.85, 21.675 29.805, 21.6 29.759999999999998 L 21.6 29.759999999999998" fill="none" stroke="black" stroke-width="2"></path><path d="M 14.580000000000002 35.94 C 15.540000000000001 35.76, 15.225000000000001 35.76, 16.5 35.58 C 18.09 35.4, 18.255 35.37, 19.68 35.22 C 20.94 35.1, 21.375000000000004 35.025000000000006, 22.200000000000003 34.980000000000004 C 22.590000000000003 35.010000000000005, 22.635 34.980000000000004, 22.98 35.04 C 23.28 35.129999999999995, 23.385 35.175, 23.580000000000002 35.22 L 23.759999999999998 35.22" fill="none" stroke="black" stroke-width="2"></path></svg>