<svg xmlns="http://www.w3.org/2000/svg" viewBox="7.399999618530273 4.28000020980835 15.979999542236328 37.880001068115234" width="15.979999542236328" height="37.880001068115234"><path d="M 9.78 5.28 C 9.45 6.42, 9.405000000000001 6.12, 9.120000000000001 7.5600000000000005 C 8.88 9.3, 8.82 9.270000000000001, 8.64 11.040000000000001 C 8.52 12.84, 8.444999999999999 12.525, 8.399999999999999 14.64 C 8.43 17.07, 8.384999999999998 17.46, 8.459999999999999 19.5 C 8.579999999999998 21.15, 8.639999999999999 21.029999999999998, 8.7 22.799999999999997 C 8.7 24.689999999999998, 8.7 24.915, 8.7 26.58 C 8.7 28.02, 8.625 28.080000000000002, 8.7 29.46 C 8.85 30.779999999999998, 8.82 30.989999999999995, 9 32.099999999999994 C 9.21 33, 9.18 32.970000000000006, 9.42 33.900000000000006 C 9.69 34.86, 9.719999999999999 34.92, 9.959999999999999 35.82 C 10.169999999999998 36.66, 10.11 36.75, 10.379999999999999 37.5 C 10.71 38.16, 10.68 38.28, 11.040000000000001 38.82 C 11.43 39.24, 11.370000000000001 39.225, 11.82 39.660000000000004 C 12.33 40.11, 12.39 40.230000000000004, 12.84 40.56 C 13.23 40.77, 13.260000000000002 40.845000000000006, 13.620000000000001 40.980000000000004 C 13.95 41.04, 13.92 41.06999999999999, 14.28 41.099999999999994 C 14.669999999999998 41.099999999999994, 14.579999999999998 41.23499999999999, 15.059999999999999 41.099999999999994 C 15.63 40.83, 15.750000000000004 40.905, 16.200000000000003 40.56 C 16.53 40.14, 16.545 40.275, 16.86 39.72 C 17.16 39.03, 17.25 39.029999999999994, 17.46 38.339999999999996 C 17.580000000000002 37.65, 17.595000000000002 37.754999999999995, 17.700000000000003 36.96 C 17.79 36.06, 17.79 36.045, 17.88 35.160000000000004 C 17.97 34.290000000000006, 18.015 34.035000000000004, 18.06 33.42 C 18.06 33.06, 18.06 32.88, 18.06 32.7 L 18.06 32.7" fill="none" stroke="black" stroke-width="2"></path><path d="M 9.18 27.06 C 10.08 27.27, 9.945 27.33, 10.98 27.48 C 12.15 27.57, 12.42 27.615000000000002, 13.32 27.660000000000004 C 13.950000000000001 27.660000000000004, 13.620000000000001 27.660000000000004, 14.580000000000002 27.660000000000004 C 15.870000000000001 27.660000000000004, 16.095 27.660000000000004, 17.16 27.660000000000004 C 18 27.660000000000004, 18.03 27.660000000000004, 18.84 27.660000000000004 C 19.619999999999997 27.660000000000004, 19.755 27.705000000000005, 20.4 27.660000000000004 C 20.909999999999997 27.57, 20.924999999999997 27.54, 21.419999999999998 27.48 C 21.9 27.450000000000003, 22.14 27.435000000000002, 22.38 27.42 L 22.38 27.42" fill="none" stroke="black" stroke-width="2"></path><path d="M 15.66 13.68 C 15.120000000000001 14.13, 14.910000000000002 14.085, 14.580000000000002 14.580000000000002 C 14.46 15.120000000000001, 14.280000000000001 15.240000000000002, 14.34 15.66 C 14.58 15.959999999999999, 14.34 16.38, 14.82 16.259999999999998 C 15.54 15.719999999999999, 15.839999999999998 15.645, 16.259999999999998 15.18 C 16.38 14.79, 16.68 14.729999999999999, 16.5 14.399999999999999 C 16.02 14.129999999999999, 15.975 13.995, 15.54 13.86 C 15.149999999999999 13.86, 15.105 13.739999999999998, 14.76 13.86 C 14.46 14.1, 14.355 13.785, 14.16 14.34 C 14.07 15.21, 13.77 15.375000000000002, 13.98 16.080000000000002 C 14.49 16.62, 14.625 16.89, 15 17.16 C 15.24 17.16, 15.24 17.37, 15.48 17.16 C 15.72 16.740000000000002, 15.84 16.68, 15.96 16.32 C 15.96 16.02, 15.96 16.035, 15.96 15.72 C 15.96 15.39, 15.990000000000002 15.27, 15.96 15.059999999999999 C 15.9 14.969999999999999, 16.035 14.954999999999998, 15.84 14.879999999999999 C 15.51 14.82, 15.42 14.79, 15.18 14.76 L 14.879999999999999 14.76" fill="none" stroke="black" stroke-width="2"></path></svg>