<svg xmlns="http://www.w3.org/2000/svg" viewBox="10.25999927520752 6.739999771118164 18.829753875732422 38.480003356933594" width="18.829753875732422" height="38.480003356933594"><path d="M 11.34 39.24 C 11.55 39.39, 11.309999999999999 39.465, 11.76 39.54 C 12.45 39.54, 12.315000000000001 39.54, 13.14 39.54 C 14.1 39.54, 14.114999999999998 39.629999999999995, 15.059999999999999 39.54 C 15.989999999999998 39.36, 16.305 39.269999999999996, 16.919999999999998 39.18 C 17.22 39.18, 17.294999999999998 39.18, 17.52 39.18 C 17.67 39.18, 17.745 39.18, 17.82 39.18 C 17.82 39.18, 17.82 39.18, 17.82 39.18 L 17.82 39.18" fill="none" stroke="black" stroke-width="2"></path><path d="M 12.48 44.22 C 12.45 43.65, 12.479999999999999 43.68, 12.419999999999998 43.08 C 12.329999999999998 42.45, 12.33 42.585, 12.24 41.82 C 12.149999999999999 40.92, 12.12 40.89, 12.059999999999999 40.019999999999996 C 12.03 39.17999999999999, 12.09 39.029999999999994, 12 38.339999999999996 C 11.85 37.8, 11.82 37.8, 11.7 37.26 C 11.61 36.72, 11.594999999999999 36.81, 11.52 36.18 C 11.459999999999999 35.46, 11.459999999999999 35.28, 11.399999999999999 34.74 C 11.34 34.379999999999995, 11.309999999999999 34.394999999999996, 11.28 34.019999999999996 C 11.28 33.629999999999995, 11.28 33.465, 11.28 33.24 C 11.28 33.18, 11.235 33.315, 11.28 33.12 C 11.37 32.79, 11.249999999999998 32.730000000000004, 11.459999999999999 32.46 C 11.79 32.25, 11.775 32.144999999999996, 12.120000000000001 32.04 C 12.48 32.04, 12.315 32.04, 12.84 32.04 C 13.530000000000001 32.04, 13.56 31.965, 14.22 32.04 C 14.850000000000001 32.19, 14.655000000000001 32.19, 15.48 32.339999999999996 C 16.5 32.489999999999995, 16.47 32.49, 17.52 32.64 C 18.6 32.79, 18.435 32.775, 19.68 32.94 C 21.09 33.12, 21.314999999999998 33.209999999999994, 22.5 33.3 C 23.46 33.3, 23.61 33.3, 24.42 33.3 C 25.080000000000002 33.3, 25.155 33.419999999999995, 25.740000000000002 33.3 C 26.25 33.06, 26.325 33.195, 26.759999999999998 32.82 C 27.119999999999997 32.31, 27.165 32.43, 27.48 31.799999999999997 C 27.75 31.049999999999997, 27.9 31.169999999999995, 28.02 30.299999999999997 C 27.990000000000002 29.31, 28.23 29.79, 27.96 28.32 C 27.450000000000003 26.37, 27.51 26.205000000000002, 26.94 24.42 C 26.310000000000002 22.8, 26.325 22.8, 25.68 21.18 C 25.02 19.560000000000002, 24.975 19.455000000000002, 24.36 17.94 C 23.79 16.53, 23.835 16.695, 23.22 15.120000000000001 C 22.56 13.38, 22.485 13.155000000000001, 21.9 11.64 C 21.39 10.350000000000001, 21.224999999999998 10.035, 20.88 9.06 C 20.7 8.4, 20.61 8.07, 20.52 7.74 L 20.52 7.74" fill="none" stroke="black" stroke-width="2"></path><path d="M 19.02 19.62 C 18.48 19.98, 18.36 19.905, 17.94 20.34 C 17.64 20.85, 17.490000000000002 20.88, 17.34 21.36 C 17.34 21.81, 17.25 21.959999999999997, 17.34 22.259999999999998 C 17.520000000000003 22.409999999999997, 17.295 22.619999999999997, 17.700000000000003 22.56 C 18.330000000000002 22.29, 18.57 22.395, 18.96 22.02 C 19.11 21.54, 19.139999999999997 21.494999999999997, 19.259999999999998 21.06 C 19.35 20.67, 19.650000000000002 20.64, 19.44 20.28 C 18.93 19.950000000000003, 19.185 19.785, 18.419999999999998 19.62 C 17.4 19.62, 17.009999999999998 19.53, 16.38 19.62 C 16.14 19.8, 16.125 19.575, 15.899999999999999 19.98 C 15.69 20.61, 15.45 20.685000000000002, 15.48 21.240000000000002 C 15.75 21.720000000000002, 15.645 21.810000000000002, 16.02 22.200000000000003 C 16.5 22.5, 16.5 22.634999999999998, 16.98 22.799999999999997 C 17.46 22.83, 17.535 23.159999999999997, 17.94 22.86 C 18.270000000000003 22.23, 18.435000000000002 22.065, 18.6 21.6 C 18.6 21.3, 18.69 21.315, 18.6 21 C 18.42 20.67, 18.675000000000004 20.52, 18.240000000000002 20.34 C 17.55 20.310000000000002, 17.46 20.16, 16.86 20.28 C 16.35 20.55, 16.155 20.565, 15.84 20.82 C 15.72 21.06, 15.66 21.15, 15.600000000000001 21.299999999999997 L 15.600000000000001 21.419999999999998" fill="none" stroke="black" stroke-width="2"></path></svg>