<svg xmlns="http://www.w3.org/2000/svg" viewBox="11.600000381469727 0.7999999523162842 18.639999389648438 45.31999897956848" width="18.639999389648438" height="45.31999897956848"><path d="M 12.600000000000001 23.88 C 13.290000000000001 24, 13.215 23.955, 13.98 24.119999999999997 C 14.82 24.33, 14.67 24.435, 15.66 24.54 C 16.8 24.54, 17.040000000000003 24.585, 17.94 24.54 C 18.6 24.45, 18.63 24.57, 19.259999999999998 24.36 C 19.86 24.03, 19.71 24.39, 20.46 23.700000000000003 C 21.36 22.650000000000002, 21.72 22.44, 22.259999999999998 21.6 C 22.439999999999998 20.97, 22.53 20.655, 22.62 20.34 C 22.62 20.34, 22.62 20.189999999999998, 22.62 20.34 C 22.62 20.64, 22.53 20.490000000000002, 22.62 20.94 C 22.8 21.54, 22.575 21.51, 22.98 22.14 C 23.61 22.8, 23.340000000000003 23.07, 24.240000000000002 23.46 C 25.41 23.580000000000002, 25.604999999999997 23.970000000000002, 26.58 23.700000000000003 C 27.36 23.04, 27.51 23.175, 28.14 22.38 C 28.619999999999997 21.45, 28.86 21.945, 29.099999999999998 20.52 C 29.099999999999998 18.6, 29.415 18.81, 29.099999999999998 16.68 C 28.47 14.34, 28.604999999999997 14.115, 27.839999999999996 12 C 26.939999999999998 10.11, 27 10.08, 26.04 8.22 C 25.02 6.390000000000001, 24.884999999999998 6.120000000000001, 24 4.5600000000000005 C 23.25 3.2700000000000005, 22.875 2.625, 22.5 1.98 C 22.5 1.98, 22.545 2.025, 22.5 1.98 L 22.32 1.7999999999999998" fill="none" stroke="black" stroke-width="2"></path><path d="M 19.38 10.8 C 19.17 11.280000000000001, 19.02 11.175, 18.96 11.76 C 19.05 12.45, 18.645 12.675, 19.14 13.14 C 20.04 13.38, 20.28 13.545000000000002, 20.94 13.620000000000001 C 21.36 13.530000000000001, 21.57 13.950000000000001, 21.78 13.440000000000001 C 21.78 12.510000000000002, 21.975 12.285, 21.78 11.58 C 21.39 11.100000000000001, 21.810000000000002 10.545000000000002, 21 10.620000000000001 C 19.77 11.25, 19.215 11.325, 18.54 11.879999999999999 C 18.419999999999998 12.36, 18.239999999999995 12.36, 18.299999999999997 12.84 C 18.54 13.32, 18.225 13.77, 18.78 13.799999999999999 C 19.65 13.379999999999999, 19.995 13.395000000000001, 20.52 12.96 C 20.7 12.51, 20.834999999999997 12.329999999999998, 20.88 12.059999999999999 C 20.79 11.969999999999999, 20.985000000000003 11.805, 20.700000000000003 11.879999999999999 C 20.220000000000002 12.12, 20.025000000000002 12.12, 19.740000000000002 12.36 C 19.65 12.6, 19.605 12.719999999999999, 19.56 12.84 L 19.56 12.84" fill="none" stroke="black" stroke-width="2"></path><path d="M 20.1 23.94 C 19.98 24.450000000000003, 19.965 24.21, 19.86 24.96 C 19.77 25.950000000000003, 19.74 26.025000000000002, 19.68 26.94 C 19.65 27.78, 19.665 27.525, 19.62 28.619999999999997 C 19.560000000000002 29.97, 19.575 29.700000000000003, 19.5 31.32 C 19.41 33.209999999999994, 19.365000000000002 33.37499999999999, 19.32 35.099999999999994 C 19.32 36.66, 19.335 36.795, 19.32 38.22 C 19.29 39.51, 19.305 39.9, 19.259999999999998 40.8 C 19.2 41.31, 19.17 41.265, 19.14 41.82 C 19.14 42.42, 19.215 42.345, 19.14 43.019999999999996 C 18.990000000000002 43.769999999999996, 18.915 43.995, 18.84 44.519999999999996 C 18.84 44.81999999999999, 18.84 44.97, 18.84 45.12 C 18.84 45.12, 18.84 45.12, 18.84 45.12 C 18.84 45.12, 18.84 45.12, 18.84 45.12 C 18.84 45.12, 18.84 45.12, 18.84 45.12 L 18.84 45.12" fill="none" stroke="black" stroke-width="2"></path></svg>