<svg xmlns="http://www.w3.org/2000/svg" viewBox="7.686666488647461 3.1999998092651367 21.753334045410156 41.71999931335449" width="21.753334045410156" height="41.71999931335449"><path d="M 12.24 43.92 C 11.7 41.43, 11.715 41.295, 11.16 38.94 C 10.59 36.72, 10.559999999999999 36.885, 10.02 34.5 C 9.51 31.950000000000003, 9.33 31.8, 9 29.400000000000002 C 8.85 27.150000000000002, 8.774999999999999 26.745000000000005, 8.7 24.900000000000002 C 8.7 23.46, 8.669999999999998 23.445, 8.7 22.02 C 8.76 20.61, 8.61 20.445000000000004, 8.82 19.200000000000003 C 9.18 18.12, 9.075000000000001 18.03, 9.540000000000001 17.04 C 10.11 16.14, 10.185 15.915, 10.68 15.24 C 11.1 14.79, 11.145 14.565, 11.52 14.34 C 11.85 14.34, 11.625 14.205, 12.18 14.34 C 12.96 14.61, 12.975 14.489999999999998, 13.74 14.879999999999999 C 14.49 15.389999999999999, 14.505 15.314999999999998, 15.24 15.899999999999999 C 15.96 16.56, 16.02 16.154999999999998, 16.68 17.22 C 17.28 18.689999999999998, 17.475 19.02, 17.88 20.16 C 18.089999999999996 20.97, 18.15 21.165, 18.299999999999997 21.78 C 18.39 22.200000000000003, 18.435 22.41, 18.48 22.62 C 18.48 22.62, 18.465 22.770000000000003, 18.48 22.62 C 18.509999999999998 22.32, 18.525 22.65, 18.54 22.02 C 18.54 21.060000000000002, 18.494999999999997 21.12, 18.54 20.1 C 18.63 19.020000000000003, 18.584999999999997 18.87, 18.72 17.94 C 18.9 17.16, 18.87 16.98, 19.080000000000002 16.38 C 19.32 15.959999999999999, 19.14 15.84, 19.56 15.54 C 20.159999999999997 15.36, 19.874999999999996 15.344999999999999, 20.759999999999998 15.18 C 21.93 15.03, 22.155 14.895, 23.1 14.879999999999999 C 23.82 15, 23.895 14.610000000000001, 24.54 15.120000000000001 C 25.11 16.02, 25.125 15.584999999999997, 25.68 16.919999999999998 C 26.22 18.689999999999998, 26.264999999999997 18.48, 26.759999999999998 20.46 C 27.21 22.65, 27.240000000000002 22.619999999999997, 27.660000000000004 24.839999999999996 C 28.050000000000004 27.089999999999996, 28.245 27.15, 28.44 29.339999999999996 C 28.44 31.469999999999995, 28.44 31.904999999999994, 28.44 33.599999999999994 C 28.44 34.86, 28.44 35.02499999999999, 28.44 36.12 C 28.44 37.05, 28.44 37.185, 28.44 37.980000000000004 C 28.44 38.64, 28.44 38.625, 28.44 39.3 C 28.44 39.989999999999995, 28.44 40.065, 28.44 40.68 C 28.44 41.22, 28.44 41.445, 28.44 41.76 C 28.44 41.849999999999994, 28.44 41.894999999999996, 28.44 41.94 C 28.44 41.94, 28.44 41.94, 28.44 41.94 L 28.44 41.94" fill="none" stroke="black" stroke-width="2"></path><path d="M 16.259999999999998 4.199999999999999 C 15.899999999999999 4.56, 15.75 4.4399999999999995, 15.54 4.92 C 15.479999999999999 5.52, 15.329999999999998 5.61, 15.419999999999998 6.12 C 15.659999999999998 6.539999999999999, 15.569999999999997 6.674999999999999, 15.899999999999999 6.959999999999999 C 16.32 7.109999999999999, 16.395000000000003 7.2299999999999995, 16.740000000000002 7.26 C 17.01 7.17, 17.04 7.470000000000001, 17.28 7.08 C 17.490000000000002 6.39, 17.595000000000002 6.194999999999999, 17.700000000000003 5.699999999999999 C 17.700000000000003 5.3999999999999995, 17.745000000000005 5.414999999999999, 17.700000000000003 5.1 C 17.61 4.77, 17.835 4.619999999999999, 17.52 4.4399999999999995 C 16.98 4.41, 16.92 4.35, 16.44 4.38 C 16.020000000000003 4.470000000000001, 15.840000000000002 4.245000000000001, 15.600000000000001 4.5600000000000005 C 15.540000000000001 5.1, 15.510000000000002 5.22, 15.48 5.64 C 15.48 5.9399999999999995, 15.36 5.925000000000001, 15.48 6.24 C 15.72 6.57, 15.600000000000001 6.72, 15.96 6.8999999999999995 C 16.439999999999998 6.93, 16.56 7.199999999999999, 16.919999999999998 6.959999999999999 C 17.159999999999997 6.449999999999999, 17.279999999999998 6.27, 17.4 5.9399999999999995 C 17.4 5.789999999999999, 17.415 5.85, 17.4 5.64 C 17.369999999999997 5.369999999999999, 17.61 5.279999999999999, 17.34 5.1 C 16.83 5.01, 16.65 4.89, 16.32 4.92 C 16.17 5.07, 16.095 4.92, 16.02 5.22 C 16.02 5.67, 15.989999999999998 5.805, 16.02 6.12 C 16.08 6.300000000000001, 16.095 6.375, 16.14 6.48 L 16.200000000000003 6.540000000000001" fill="none" stroke="black" stroke-width="2"></path><path d="M 17.580000000000002 28.56 C 17.160000000000004 28.740000000000002, 16.995000000000005 28.635, 16.740000000000002 28.92 C 16.65 29.310000000000002, 16.38 29.310000000000002, 16.56 29.700000000000003 C 17.009999999999998 30.090000000000003, 16.77 30.270000000000003, 17.46 30.48 C 18.39 30.509999999999998, 18.6 30.765, 19.32 30.54 C 19.83 30.06, 20.07 30.044999999999998, 20.34 29.58 C 20.369999999999997 29.13, 20.714999999999996 29.159999999999997, 20.4 28.68 C 19.740000000000002 28.17, 19.650000000000002 27.945000000000004, 19.080000000000002 27.660000000000004 C 18.6 27.6, 18.525000000000002 27.315, 18.12 27.54 C 17.79 28.049999999999997, 17.625 28.08, 17.46 28.56 C 17.46 29.009999999999998, 17.28 29.055, 17.46 29.46 C 17.82 29.82, 17.744999999999997 29.955, 18.18 30.18 C 18.69 30.27, 18.885 30.689999999999998, 19.200000000000003 30.36 C 19.32 29.61, 19.5 29.415, 19.44 28.86 C 19.200000000000003 28.5, 19.380000000000003 28.275, 18.96 28.14 C 18.36 28.23, 18.104999999999997 28.080000000000002, 17.759999999999998 28.32 C 17.67 28.71, 17.625 28.904999999999998, 17.580000000000002 29.099999999999998 C 17.580000000000002 29.099999999999998, 17.580000000000002 29.069999999999997, 17.580000000000002 29.099999999999998 L 17.580000000000002 29.22" fill="none" stroke="black" stroke-width="2"></path><path d="M 14.100000000000001 37.5 C 15.690000000000001 37.17, 15.930000000000001 37.14, 17.28 36.839999999999996 C 18.39 36.56999999999999, 18.495 36.48, 19.5 36.3 C 20.4 36.209999999999994, 20.369999999999997 36.165, 21.299999999999997 36.12 C 22.259999999999998 36.12, 22.634999999999998 36.12, 23.22 36.12 C 23.43 36.12, 23.445 36.12, 23.64 36.12 C 23.82 36.12, 23.880000000000003 36.12, 24 36.12 C 24.06 36.12, 24.089999999999996 36.12, 24.119999999999997 36.12 L 24.119999999999997 36.12" fill="none" stroke="black" stroke-width="2"></path></svg>