<svg xmlns="http://www.w3.org/2000/svg" viewBox="10.819999694824219 2.5399999618530273 14.960000991821289 39.379998207092285" width="14.960000991821289" height="39.379998207092285"><path d="M 16.68 12.419999999999998 C 17.19 12.419999999999998, 16.995000000000005 12.419999999999998, 17.700000000000003 12.419999999999998 C 18.6 12.419999999999998, 18.39 12.464999999999998, 19.5 12.419999999999998 C 20.82 12.329999999999998, 21.09 12.285, 22.14 12.24 C 22.92 12.24, 23.040000000000003 12.24, 23.700000000000003 12.24 C 24.240000000000002 12.24, 24.51 12.24, 24.78 12.24 L 24.78 12.24" fill="none" stroke="black" stroke-width="2"></path><path d="M 17.88 3.54 C 17.7 4.38, 17.669999999999998 4.395, 17.52 5.22 C 17.4 6.029999999999999, 17.385 6.045, 17.28 6.84 C 17.19 7.619999999999999, 17.25 7.244999999999999, 17.1 8.399999999999999 C 16.89 9.93, 16.89 9.944999999999999, 16.68 11.459999999999999 C 16.47 12.96, 16.409999999999997 12.825000000000001, 16.259999999999998 14.46 C 16.17 16.23, 16.125 16.740000000000002, 16.080000000000002 18 C 16.080000000000002 18.75, 16.005000000000003 18.465, 16.080000000000002 19.5 C 16.23 20.82, 15.93 20.85, 16.38 22.14 C 17.13 23.400000000000002, 17.085 23.670000000000005, 17.88 24.660000000000004 C 18.72 25.380000000000003, 18.93 25.619999999999997, 19.56 26.099999999999998 C 19.979999999999997 26.339999999999996, 20.13 26.444999999999997, 20.4 26.58 C 20.52 26.61, 20.58 26.625, 20.64 26.64 L 20.64 26.64" fill="none" stroke="black" stroke-width="2"></path><path d="M 21.78 21 C 21.78 21.87, 21.840000000000003 21.195, 21.78 22.740000000000002 C 21.66 24.96, 21.78 25.32, 21.54 27.18 C 21.18 28.68, 21.15 28.965, 20.82 30.18 C 20.52 31.11, 20.775 30.810000000000002, 20.22 32.04 C 19.41 33.56999999999999, 19.455000000000002 33.705, 18.6 35.099999999999994 C 17.7 36.36, 17.804999999999996 36.51, 16.799999999999997 37.62 C 15.69 38.58, 15.690000000000001 38.805, 14.580000000000002 39.54 C 13.47 40.05, 13.05 40.215, 12.36 40.56 L 11.82 40.92" fill="none" stroke="black" stroke-width="2"></path></svg>