<svg xmlns="http://www.w3.org/2000/svg" viewBox="9.426667213439941 2.119999885559082 18.153332710266113 41.40898036956787" width="18.153332710266113" height="41.40898036956787"><path d="M 16.5 11.76 C 17.189999999999998 11.67, 17.13 11.67, 17.88 11.58 C 18.689999999999998 11.489999999999998, 18.66 11.519999999999998, 19.5 11.399999999999999 C 20.37 11.25, 20.160000000000004 11.235000000000001, 21.240000000000002 11.100000000000001 C 22.53 10.98, 22.695 10.98, 23.82 10.86 C 24.78 10.74, 25.050000000000004 10.68, 25.740000000000002 10.620000000000001 C 26.16 10.620000000000001, 26.369999999999997 10.620000000000001, 26.58 10.620000000000001 L 26.58 10.620000000000001" fill="none" stroke="black" stroke-width="2"></path><path d="M 17.64 3.12 C 17.43 4.470000000000001, 17.43 4.425000000000001, 17.22 5.82 C 17.009999999999998 7.26, 16.949999999999996 7.305, 16.799999999999997 8.7 C 16.71 10.049999999999999, 16.725 10.079999999999998, 16.62 11.399999999999999 C 16.5 12.69, 16.544999999999998 12.45, 16.38 13.98 C 16.17 15.75, 16.125 15.765, 15.96 17.52 C 15.84 19.259999999999998, 15.780000000000001 19.455, 15.72 21 C 15.72 22.35, 15.765 22.260000000000005, 15.72 23.700000000000003 C 15.629999999999999 25.23, 15.584999999999999 25.604999999999997, 15.54 26.759999999999998 C 15.54 27.54, 15.524999999999999 27.555, 15.54 28.32 C 15.57 29.07, 15.585 29.25, 15.600000000000001 29.82 C 15.600000000000001 30.21, 15.600000000000001 30.404999999999998, 15.600000000000001 30.599999999999998 L 15.600000000000001 30.599999999999998" fill="none" stroke="black" stroke-width="2"></path><path d="M 16.68 30.54 C 14.79 30.72, 14.219999999999999 30.525000000000002, 12.899999999999999 30.900000000000002 C 12.149999999999999 31.47, 11.969999999999999 31.11, 11.399999999999999 32.04 C 11.01 33.33, 10.815000000000001 33.105, 10.620000000000001 34.62 C 10.620000000000001 36.36, 10.185000000000002 36.37499999999999, 10.620000000000001 38.099999999999994 C 11.49 39.809999999999995, 11.235 40.425, 12.36 41.519999999999996 C 13.74 42, 13.440000000000001 42.36, 15.120000000000001 42.480000000000004 C 17.1 42.24, 17.475 42.99, 19.080000000000002 42 C 20.310000000000002 40.26, 20.775 39.839999999999996, 21.54 38.519999999999996 C 21.84 37.62, 22.02 37.815, 22.14 36.72 C 22.08 35.43, 22.59 35.445, 22.02 34.14 C 20.939999999999998 32.82, 20.865 32.49, 19.86 31.5 C 18.93 30.84, 19.11 30.555, 18 30.18 C 16.71 30.09, 16.485 29.88, 15.419999999999998 30 L 13.74 30.660000000000004" fill="none" stroke="black" stroke-width="2"></path><path d="M 10.86 36.900000000000006 C 11.52 36.900000000000006, 11.16 36.915000000000006, 12.18 36.900000000000006 C 13.56 36.870000000000005, 13.395000000000001 36.855, 14.940000000000001 36.839999999999996 C 16.65 36.839999999999996, 16.95 36.839999999999996, 18.36 36.839999999999996 C 19.47 36.839999999999996, 19.830000000000002 36.839999999999996, 20.580000000000002 36.839999999999996 C 20.97 36.839999999999996, 21.134999999999998 36.839999999999996, 21.36 36.839999999999996 C 21.42 36.839999999999996, 21.45 36.839999999999996, 21.48 36.839999999999996 L 21.48 36.839999999999996" fill="none" stroke="black" stroke-width="2"></path></svg>