<svg xmlns="http://www.w3.org/2000/svg" viewBox="9.819999694824219 4.28000020980835 18.059999465942383 41.780001163482666" width="18.059999465942383" height="41.780001163482666"><path d="M 11.16 12 C 12.06 12, 11.865000000000002 11.985, 12.96 12 C 14.25 12.03, 14.489999999999998 12.044999999999998, 15.54 12.059999999999999 C 16.35 12.059999999999999, 16.545 12.059999999999999, 17.16 12.059999999999999 C 17.58 12.059999999999999, 17.565 12.029999999999998, 18 12.059999999999999 C 18.45 12.12, 18.674999999999997 12.149999999999999, 18.9 12.18 L 18.9 12.18" fill="none" stroke="black" stroke-width="2"></path><path d="M 12.72 5.28 C 12.48 6.48, 12.585 5.79, 12.24 7.68 C 11.79 10.26, 11.64 10.83, 11.34 12.84 C 11.190000000000001 14.280000000000001, 11.16 14.025, 11.040000000000001 15.72 C 10.95 17.67, 10.905 17.955000000000002, 10.86 19.62 C 10.86 21, 10.86 21.21, 10.86 22.38 C 10.86 23.339999999999996, 10.77 23.564999999999998, 10.86 24.299999999999997 C 11.04 24.81, 10.635 25.02, 11.22 25.32 C 12.21 25.41, 12.150000000000002 25.395, 13.200000000000001 25.5 C 14.309999999999999 25.62, 14.129999999999999 25.68, 15.419999999999998 25.740000000000002 C 16.89 25.740000000000002, 16.979999999999997 25.740000000000002, 18.36 25.740000000000002 C 19.65 25.740000000000002, 19.89 25.740000000000002, 20.94 25.740000000000002 C 21.75 25.740000000000002, 21.78 25.740000000000002, 22.56 25.740000000000002 C 23.31 25.740000000000002, 23.459999999999997 25.830000000000002, 24.06 25.740000000000002 C 24.509999999999998 25.560000000000002, 24.54 25.725, 24.96 25.380000000000003 C 25.35 24.87, 25.395000000000003 25.485, 25.740000000000002 24.36 C 26.04 22.619999999999997, 26.114999999999995 23.055, 26.339999999999996 20.88 C 26.49 18.27, 26.564999999999998 17.88, 26.64 15.66 C 26.64 13.83, 26.58 13.56, 26.64 12 C 26.76 10.71, 26.82 10.485, 26.880000000000003 9.42 C 26.880000000000003 8.58, 26.880000000000003 8.295, 26.880000000000003 7.74 C 26.880000000000003 7.47, 26.880000000000003 7.409999999999999, 26.880000000000003 7.199999999999999 C 26.880000000000003 7.049999999999999, 26.880000000000003 7.0649999999999995, 26.880000000000003 6.8999999999999995 C 26.880000000000003 6.720000000000001, 26.880000000000003 6.840000000000001, 26.880000000000003 6.540000000000001 C 26.880000000000003 6.12, 26.880000000000003 5.91, 26.880000000000003 5.699999999999999 C 26.880000000000003 5.699999999999999, 26.880000000000003 5.699999999999999, 26.880000000000003 5.699999999999999 C 26.880000000000003 5.699999999999999, 26.880000000000003 5.699999999999999, 26.880000000000003 5.699999999999999 L 26.880000000000003 5.699999999999999" fill="none" stroke="black" stroke-width="2"></path><path d="M 14.879999999999999 26.58 C 14.879999999999999 28.65, 14.954999999999998 28.994999999999997, 14.879999999999999 30.72 C 14.73 32.1, 14.835 31.635000000000005, 14.580000000000002 33.480000000000004 C 14.22 35.79, 14.145 36.01499999999999, 13.86 38.099999999999994 C 13.65 39.959999999999994, 13.590000000000002 40.56, 13.440000000000001 41.82 C 13.350000000000001 42.480000000000004, 13.305 42.495, 13.26 43.14 C 13.26 43.77, 13.26 43.965, 13.26 44.400000000000006 C 13.26 44.64, 13.26 44.760000000000005, 13.26 44.88 L 13.26 44.88" fill="none" stroke="black" stroke-width="2"></path><path d="M 21.9 24.96 C 22.02 25.8, 22.08 25.155, 22.14 26.64 C 22.14 28.770000000000003, 22.14 29.01, 22.14 30.900000000000002 C 22.14 32.550000000000004, 22.155 32.61000000000001, 22.14 34.2 C 22.11 35.730000000000004, 22.185000000000002 35.775, 22.080000000000002 37.26 C 21.9 38.7, 21.81 39.03, 21.72 40.14 C 21.72 40.92, 21.72 40.980000000000004, 21.72 41.7 C 21.72 42.36, 21.735 42.55499999999999, 21.72 43.019999999999996 C 21.689999999999998 43.29, 21.705 43.260000000000005, 21.66 43.56 C 21.6 43.89, 21.57 43.845, 21.54 44.22 C 21.54 44.64, 21.54 44.85, 21.54 45.06 L 21.54 45.06" fill="none" stroke="black" stroke-width="2"></path></svg>