<svg xmlns="http://www.w3.org/2000/svg" viewBox="5.460000038146973 7.039999961853027 27.748016357421875 34.099998474121094" width="27.748016357421875" height="34.099998474121094"><path d="M 7.14 33.480000000000004 C 8.7 33.39, 7.815 33.69, 10.26 33.3 C 13.59 32.61, 15.119999999999997 32.28, 16.919999999999998 31.92 L 17.46 31.86" fill="none" stroke="black" stroke-width="2"></path><path d="M 7.02 30.119999999999997 C 6.87 31.049999999999997, 6.84 30.72, 6.720000000000001 31.98 C 6.630000000000001 33.57, 6.585000000000001 33.93, 6.540000000000001 35.160000000000004 C 6.540000000000001 36.03, 6.360000000000001 36.22500000000001, 6.540000000000001 36.900000000000006 C 6.9 37.38, 6.675000000000001 37.35, 7.26 37.86 C 8.07 38.4, 7.77 38.55, 8.879999999999999 38.94 C 10.29 39.18, 9.809999999999999 39.135000000000005, 11.7 39.42 C 14.07 39.75, 14.295000000000002 39.915, 16.44 40.08 C 18.36 40.08, 18.900000000000002 40.214999999999996, 20.28 40.08 C 21.12 39.81, 21.405 40.26, 21.96 39.54 C 22.23 38.370000000000005, 22.35 38.835, 22.5 37.2 C 22.53 35.1, 22.59 34.8, 22.56 33 C 22.47 31.5, 22.424999999999997 30.75, 22.38 30 C 22.38 30, 22.38 29.895, 22.38 30 C 22.38 30.21, 21.93 28.995, 22.38 30.42 C 23.28 33.06, 23.19 33.795, 24.18 35.7 C 25.259999999999998 36.870000000000005, 25.244999999999997 37.230000000000004, 26.339999999999996 38.04 C 27.449999999999996 38.489999999999995, 27.615 39.03, 28.56 38.94 C 29.339999999999996 38.31, 29.219999999999995 39.915, 30.119999999999997 37.68 C 31.14 33.84, 31.725 34.41, 32.160000000000004 30 C 32.010000000000005 25.02, 32.52 24.285, 31.86 20.04 C 30.689999999999998 16.53, 30.509999999999998 15.329999999999998, 29.52 13.02 C 28.71 11.91, 28.695000000000004 11.700000000000001, 27.900000000000002 10.8 C 27.119999999999997 10.11, 27.014999999999997 10.02, 26.339999999999996 9.42 C 25.77 8.91, 25.575000000000003 8.744999999999997, 25.200000000000003 8.399999999999999 C 25.02 8.219999999999999, 24.93 8.13, 24.839999999999996 8.040000000000001 C 24.839999999999996 8.040000000000001, 24.839999999999996 8.040000000000001, 24.839999999999996 8.040000000000001 L 24.839999999999996 8.040000000000001" fill="none" stroke="black" stroke-width="2"></path></svg>