<svg xmlns="http://www.w3.org/2000/svg" viewBox="8.333333015441895 3.1999998092651367 21.46666717529297 40.57999897003174" width="21.46666717529297" height="40.57999897003174"><path d="M 10.44 9.959999999999999 C 11.58 9.959999999999999, 11.73 9.959999999999999, 12.72 9.959999999999999 C 13.559999999999999 9.959999999999999, 13.589999999999998 10.004999999999999, 14.399999999999999 9.959999999999999 C 15.18 9.87, 15.48 9.825, 15.96 9.78 C 16.14 9.78, 16.23 9.78, 16.32 9.78 C 16.32 9.78, 16.32 9.78, 16.32 9.78 L 16.32 9.78" fill="none" stroke="black" stroke-width="2"></path><path d="M 11.16 4.199999999999999 C 10.77 5.64, 10.665 5.34, 10.379999999999999 7.08 C 10.2 9.120000000000001, 10.125 9.540000000000001, 10.02 11.16 C 9.989999999999998 12.36, 10.064999999999998 12.389999999999999, 9.959999999999999 13.559999999999999 C 9.780000000000001 14.7, 9.750000000000002 14.43, 9.600000000000001 15.84 C 9.48 17.520000000000003, 9.42 17.76, 9.36 19.200000000000003 C 9.36 20.400000000000002, 9.299999999999999 20.745, 9.36 21.6 C 9.48 22.11, 9.3 22.365000000000002, 9.600000000000001 22.62 C 10.080000000000002 22.62, 9.735000000000001 23.19, 10.56 22.62 C 11.73 21.48, 11.834999999999999 21.66, 12.899999999999999 20.34 C 13.86 18.84, 14.175 18.72, 14.82 17.34 C 15.15 16.08, 15.315000000000001 15.45, 15.48 14.82 C 15.48 14.82, 15.48 14.504999999999999, 15.48 14.82 C 15.48 15.450000000000001, 15.39 14.490000000000002, 15.48 16.080000000000002 C 15.66 18.630000000000003, 15.36 19.365000000000002, 15.84 21.18 C 16.619999999999997 22.259999999999998, 16.56 22.634999999999998, 17.4 23.34 C 18.3 23.67, 18.270000000000003 23.835, 19.200000000000003 24 C 20.160000000000004 24, 20.145000000000003 24, 21.12 24 C 22.11 24, 22.275000000000002 24, 23.1 24 C 23.76 24, 23.700000000000003 24.27, 24.42 24 C 25.200000000000003 23.46, 25.305 23.985, 25.98 22.919999999999998 C 26.549999999999997 21.33, 26.549999999999997 22.17, 27.119999999999997 19.740000000000002 C 27.689999999999998 16.470000000000002, 27.839999999999996 16.605, 28.259999999999998 13.200000000000001 C 28.529999999999998 9.66, 28.665 8.115, 28.799999999999997 6.12 C 28.799999999999997 5.67, 28.799999999999997 5.445, 28.799999999999997 5.22 L 28.799999999999997 5.22" fill="none" stroke="black" stroke-width="2"></path><path d="M 22.259999999999998 24.240000000000002 C 22.259999999999998 25.080000000000002, 22.379999999999995 24.645000000000003, 22.259999999999998 25.92 C 22.02 27.63, 22.05 27.659999999999997, 21.78 29.339999999999996 C 21.48 30.99, 21.78 30.915, 21.18 32.64 C 20.28 34.44, 20.25 34.845, 19.38 36.24 C 18.54 37.230000000000004, 18.975 37.065, 17.700000000000003 38.22 C 15.990000000000002 39.54, 15.870000000000001 39.81, 14.28 40.86 C 12.809999999999999 41.64, 12.24 41.985, 11.34 42.42 C 11.01 42.51, 10.875 42.50999999999999, 10.68 42.599999999999994 L 10.56 42.78" fill="none" stroke="black" stroke-width="2"></path></svg>