<svg xmlns="http://www.w3.org/2000/svg" viewBox="9.64388656616211 0.9199999570846558 21.242780685424805 44.35999882221222" width="21.242780685424805" height="44.35999882221222"><path d="M 12.24 7.98 C 13.170000000000002 8.040000000000001, 12.600000000000001 7.920000000000002, 14.100000000000001 8.100000000000001 C 16.17 8.4, 17.055000000000003 8.55, 18.240000000000002 8.7 C 18.54 8.7, 18.51 8.669999999999998, 18.84 8.7 C 19.2 8.76, 19.349999999999998 8.79, 19.56 8.82 L 19.68 8.82" fill="none" stroke="black" stroke-width="2"></path><path d="M 14.04 1.92 C 13.68 3.27, 13.695 3.165, 13.32 4.62 C 12.93 6.18, 12.87 6.165, 12.54 7.74 C 12.27 9.33, 12.254999999999999 8.805, 12 10.92 C 11.76 13.560000000000002, 11.805 13.500000000000004, 11.52 16.200000000000003 C 11.19 18.96, 11.07 19.02, 10.86 21.72 C 10.77 24.36, 10.559999999999999 25.365000000000002, 10.68 27 C 11.01 27.63, 10.815 27.974999999999998, 11.34 28.259999999999998 C 12.059999999999999 28.2, 11.385 29.490000000000002, 12.78 28.14 C 14.849999999999998 25.5, 15.374999999999998 25.17, 16.919999999999998 22.86 C 17.939999999999998 20.88, 18.405 20.145, 18.96 18.9 C 19.05 18.39, 19.11 18.134999999999998, 19.14 17.88 C 19.11 17.88, 19.200000000000003 17.4, 19.080000000000002 17.88 C 18.87 18.839999999999996, 18.810000000000002 18.614999999999995, 18.66 19.799999999999997 C 18.57 21.21, 18.42 21.465, 18.48 22.62 C 18.689999999999998 23.520000000000003, 18.584999999999997 23.73, 18.9 24.42 C 19.32 24.900000000000002, 18.810000000000002 24.795, 19.740000000000002 25.380000000000003 C 21.18 26.07, 21.090000000000003 26.384999999999998, 22.62 26.759999999999998 C 24.240000000000002 26.82, 24.375 26.910000000000004, 25.86 26.880000000000003 C 27.21 26.76, 27.779999999999998 26.700000000000003, 28.56 26.64 C 28.77 26.64, 28.83 26.685000000000002, 28.98 26.64 L 29.160000000000004 26.46" fill="none" stroke="black" stroke-width="2"></path><path d="M 20.52 24.96 C 20.310000000000002 25.59, 20.235 25.409999999999997, 20.1 26.22 C 20.04 27.21, 19.875 27.270000000000003, 19.98 28.200000000000003 C 20.25 29.07, 20.055 29.01, 20.52 29.94 C 21.18 30.93, 21.015 31.095000000000002, 21.84 31.92 C 22.83 32.58, 22.425 32.655, 23.82 33.24 C 25.62 33.75, 25.935000000000002 33.885, 27.42 34.26 C 28.59 34.5, 29.174999999999997 34.620000000000005, 29.759999999999998 34.74 C 29.759999999999998 34.74, 29.759999999999998 34.74, 29.759999999999998 34.74 C 29.759999999999998 34.74, 30.044999999999998 34.695, 29.759999999999998 34.74 C 29.189999999999998 34.83, 29.595 34.815, 28.619999999999997 34.92 C 27.24 35.040000000000006, 27.39 34.875, 25.86 35.160000000000004 C 24.18 35.61, 24.21 35.580000000000005, 22.5 36.06 C 20.759999999999998 36.57, 20.235 36.555, 19.02 37.08 C 18.33 37.620000000000005, 18.3 37.470000000000006, 17.64 38.160000000000004 C 17.009999999999998 39, 16.86 38.955, 16.38 39.839999999999996 C 16.05 40.769999999999996, 16.065 40.86, 15.72 41.7 C 15.36 42.45, 15.195 42.660000000000004, 15 43.2 C 14.97 43.53, 14.985000000000001 43.59, 14.940000000000001 43.86 C 14.88 44.07, 14.850000000000001 44.175, 14.82 44.28 L 14.82 44.28" fill="none" stroke="black" stroke-width="2"></path><path d="M 11.34 34.14 C 12.36 34.56, 12.284999999999998 34.470000000000006, 13.379999999999999 34.980000000000004 C 14.55 35.58, 14.625 35.67, 15.72 36.18 C 16.74 36.599999999999994, 16.965 36.56999999999999, 17.759999999999998 37.019999999999996 C 18.33 37.5, 18.569999999999997 37.725, 18.9 37.980000000000004 L 19.080000000000002 38.04" fill="none" stroke="black" stroke-width="2"></path></svg>