<svg xmlns="http://www.w3.org/2000/svg" viewBox="11.65999984741211 5.059999942779541 23.975163459777832 40.81999969482422" width="23.975163459777832" height="40.81999969482422"><path d="M 12.66 12.419999999999998 C 13.65 12.329999999999998, 13.530000000000001 12.285, 14.64 12.24 C 15.870000000000001 12.24, 16.080000000000002 12.24, 17.1 12.24 C 17.91 12.24, 18.27 12.24, 18.72 12.24 L 18.9 12.24" fill="none" stroke="black" stroke-width="2"></path><path d="M 14.46 6.0600000000000005 C 14.370000000000001 6.78, 14.459999999999999 6.4350000000000005, 14.28 7.5 C 14.01 8.91, 13.89 8.91, 13.74 10.32 C 13.71 11.73, 13.695 11.805, 13.68 13.14 C 13.68 14.4, 13.739999999999998 14.190000000000001, 13.68 15.66 C 13.56 17.34, 13.5 16.59, 13.440000000000001 19.02 C 13.440000000000001 22.200000000000003, 13.440000000000001 22.065, 13.440000000000001 25.380000000000003 C 13.440000000000001 28.830000000000002, 13.440000000000001 29.535000000000004, 13.440000000000001 32.28 C 13.440000000000001 34.32, 13.440000000000001 34.545, 13.440000000000001 36.36 C 13.440000000000001 37.95, 13.440000000000001 38.415, 13.440000000000001 39.54 C 13.440000000000001 40.2, 13.530000000000001 39.825, 13.440000000000001 40.86 C 13.260000000000002 42.269999999999996, 13.275000000000002 42.705, 13.080000000000002 43.68 C 12.870000000000001 44.22, 12.765 44.459999999999994, 12.66 44.76 L 12.66 44.88" fill="none" stroke="black" stroke-width="2"></path><path d="M 12.96 23.34 C 13.5 23.34, 12.509999999999998 23.355, 14.04 23.34 C 16.560000000000002 23.310000000000002, 16.635 23.385, 19.080000000000002 23.28 C 21.450000000000003 23.1, 21.09 23.235, 23.82 22.919999999999998 C 26.91 22.47, 27.66 22.244999999999997, 30 22.02 C 31.59 22.02, 32.144999999999996 21.81, 33.18 22.02 C 33.66 22.439999999999998, 33.78 21.39, 34.14 22.86 C 34.379999999999995 25.380000000000003, 34.709999999999994 25.365000000000002, 34.62 27.900000000000002 C 34.2 30.450000000000003, 34.230000000000004 30.705000000000002, 33.78 33 C 33.3 35.04, 33.075 35.76, 32.82 37.08 C 32.79 37.68, 32.775 37.89, 32.76 38.28 C 32.76 38.46, 32.76 38.370000000000005, 32.76 38.64 C 32.76 39, 32.805 39.09, 32.76 39.36 C 32.67 39.54, 32.655 39.45, 32.58 39.72 C 32.519999999999996 40.08, 32.49 40.26, 32.46 40.44 L 32.46 40.44" fill="none" stroke="black" stroke-width="2"></path><path d="M 24.240000000000002 27.299999999999997 C 23.130000000000003 27.209999999999997, 22.845 26.999999999999996, 22.02 27.119999999999997 C 21.48 27.45, 21.36 26.925, 20.94 27.78 C 20.64 29.16, 20.625 29.115, 20.34 30.54 C 20.07 32.010000000000005, 19.784999999999997 32.23500000000001, 19.799999999999997 33.480000000000004 C 20.099999999999998 34.5, 19.964999999999996 34.83, 20.4 35.519999999999996 C 20.97 35.879999999999995, 20.64 36.03, 21.54 36.24 C 22.77 36.3, 22.740000000000002 36.675, 24 36.36 C 25.29 35.67, 25.769999999999996 35.715, 26.58 34.980000000000004 C 26.91 34.2, 27.195 34.485, 27.240000000000002 33.42 C 27 32.07, 27.284999999999997 31.95, 26.759999999999998 30.72 C 25.95 29.61, 25.815 29.265, 25.14 28.5 C 24.6 28.080000000000002, 24.435 27.900000000000006, 24.06 27.660000000000004 C 23.85 27.6, 23.745 27.57, 23.64 27.54 L 23.64 27.54" fill="none" stroke="black" stroke-width="2"></path></svg>