<svg xmlns="http://www.w3.org/2000/svg" viewBox="12.433333396911621 2.5399999618530273 25.946667671203613 42.260000228881836" width="25.946667671203613" height="42.260000228881836"><path d="M 13.799999999999999 8.28 C 14.489999999999998 8.28, 14.145 8.294999999999998, 15.18 8.28 C 16.560000000000002 8.25, 16.725 8.265, 17.94 8.22 C 18.990000000000002 8.16, 19.439999999999998 8.13, 20.04 8.100000000000001 L 20.34 8.100000000000001" fill="none" stroke="black" stroke-width="2"></path><path d="M 13.440000000000001 3.54 C 13.440000000000001 4.32, 13.440000000000001 4.125, 13.440000000000001 5.1 C 13.440000000000001 6.27, 13.425 6.119999999999999, 13.440000000000001 7.4399999999999995 C 13.47 8.91, 13.38 8.669999999999998, 13.5 10.379999999999999 C 13.709999999999999 12.329999999999998, 13.814999999999998 12.704999999999998, 13.919999999999998 14.28 C 13.919999999999998 15.48, 13.919999999999998 15.495, 13.919999999999998 16.68 C 13.919999999999998 17.85, 13.919999999999998 18.435, 13.919999999999998 19.02 L 13.919999999999998 19.02" fill="none" stroke="black" stroke-width="2"></path><path d="M 14.22 13.02 C 14.25 13.11, 13.844999999999999 13.155000000000001, 14.28 13.200000000000001 C 15.120000000000001 13.200000000000001, 15.105 13.200000000000001, 15.96 13.200000000000001 C 16.830000000000002 13.200000000000001, 16.665000000000003 13.200000000000001, 17.700000000000003 13.200000000000001 C 18.900000000000002 13.200000000000001, 18.6 13.215000000000002, 20.1 13.200000000000001 C 21.900000000000002 13.170000000000002, 22.095000000000002 13.155000000000001, 23.700000000000003 13.14 C 25.11 13.14, 25.095 13.14, 26.52 13.14 C 27.96 13.14, 27.840000000000003 13.14, 29.400000000000002 13.14 C 31.08 13.14, 31.244999999999997 13.14, 32.76 13.14 C 34.11 13.14, 34.35 13.14, 35.46 13.14 C 36.33 13.14, 36.72 13.14, 37.2 13.14 C 37.290000000000006 13.14, 37.335 13.14, 37.38 13.14 L 37.38 13.14" fill="none" stroke="black" stroke-width="2"></path><path d="M 21.18 12.78 C 21.03 13.41, 20.955 13.245, 20.88 14.04 C 20.88 15, 20.64 14.850000000000001, 20.88 15.96 C 21.36 17.22, 21.134999999999998 17.295, 21.84 18.48 C 22.770000000000003 19.590000000000003, 22.155 19.320000000000004, 23.700000000000003 20.700000000000003 C 25.86 22.35, 26.55 23.055, 28.02 24 C 28.799999999999997 24.240000000000002, 28.86 24.240000000000002, 29.58 24.48 C 30.240000000000002 24.72, 29.85 24.84, 30.900000000000002 24.96 C 32.34 24.96, 32.745000000000005 24.96, 33.78 24.96 C 34.41 24.96, 34.65 24.9, 35.04 24.96 C 35.19 25.080000000000002, 35.265 25.14, 35.339999999999996 25.200000000000003 C 35.339999999999996 25.200000000000003, 35.339999999999996 25.200000000000003, 35.339999999999996 25.200000000000003 C 35.339999999999996 25.200000000000003, 35.339999999999996 25.200000000000003, 35.339999999999996 25.200000000000003 C 35.339999999999996 25.200000000000003, 35.355 25.200000000000003, 35.339999999999996 25.200000000000003 C 35.31 25.200000000000003, 35.82 25.110000000000003, 35.28 25.200000000000003 C 34.230000000000004 25.380000000000003, 34.305 25.305, 33.18 25.56 C 31.98 25.89, 31.92 25.86, 30.78 26.22 C 29.7 26.61, 29.714999999999996 26.55, 28.619999999999997 27 C 27.509999999999998 27.509999999999998, 27.270000000000003 27.555, 26.400000000000002 28.02 C 25.770000000000003 28.439999999999998, 25.845 28.259999999999998, 25.14 28.86 C 24.36 29.64, 24.405 29.625, 23.580000000000002 30.42 C 22.71 31.23, 22.53 31.275, 21.84 32.04 C 21.33 32.760000000000005, 21.330000000000002 32.44500000000001, 20.82 33.480000000000004 C 20.31 34.83, 20.234999999999996 34.89, 19.799999999999997 36.18 C 19.439999999999998 37.41, 19.425 37.35, 19.080000000000002 38.64 C 18.75 39.989999999999995, 18.63 40.214999999999996, 18.419999999999998 41.339999999999996 C 18.33 42.239999999999995, 18.285 42.525, 18.240000000000002 43.14 C 18.240000000000002 43.47, 18.240000000000002 43.635, 18.240000000000002 43.8 L 18.240000000000002 43.8" fill="none" stroke="black" stroke-width="2"></path><path d="M 13.86 25.98 C 14.55 26.82, 14.13 26.205000000000005, 15.24 27.660000000000004 C 16.77 29.73, 17.115 30.33, 18.299999999999997 31.799999999999997 C 19.14 32.67, 19.41 32.97, 19.98 33.54 C 20.28 33.81, 20.43 33.945, 20.580000000000002 34.08 L 20.580000000000002 34.08" fill="none" stroke="black" stroke-width="2"></path></svg>