<svg xmlns="http://www.w3.org/2000/svg" viewBox="6.960000514984131 3.8600001335144043 17.259998321533203 39.893333435058594" width="17.259998321533203" height="39.893333435058594"><path d="M 8.58 11.28 C 9.629999999999999 11.43, 9.9 11.445, 10.68 11.58 C 11.19 11.7, 11.084999999999999 11.73, 11.7 11.82 C 12.42 11.879999999999999, 12.48 11.91, 13.14 11.94 C 13.74 11.94, 13.83 11.94, 14.34 11.94 L 15.18 11.94" fill="none" stroke="black" stroke-width="2"></path><path d="M 10.02 4.86 C 9.75 5.49, 9.705 5.49, 9.48 6.12 C 9.3 6.75, 9.285 6.735, 9.120000000000001 7.38 C 8.97 8.04, 8.955 7.874999999999999, 8.82 8.7 C 8.7 9.69, 8.73 9.75, 8.58 10.68 C 8.4 11.549999999999999, 8.325000000000001 11.339999999999998, 8.22 12.419999999999998 C 8.190000000000001 13.709999999999999, 8.22 13.68, 8.16 15 C 8.07 16.35, 8.025 16.440000000000005, 7.98 17.700000000000003 C 7.98 18.87, 7.98 18.884999999999998, 7.98 20.04 C 7.98 21.18, 7.98 21.03, 7.98 22.32 C 7.98 23.76, 7.98 24.015000000000004, 7.98 25.200000000000003 C 7.98 26.130000000000003, 7.98 26.055, 7.98 27.06 C 7.98 28.14, 7.98 28.2, 7.98 29.22 C 7.98 30.18, 7.9350000000000005 29.895, 7.98 31.14 C 8.07 32.67, 8.025 32.940000000000005, 8.16 34.2 C 8.34 35.19, 8.34 35.325, 8.52 36.18 C 8.7 36.9, 8.639999999999999 36.885, 8.879999999999999 37.62 C 9.18 38.37, 9.195 38.474999999999994, 9.48 39.12 C 9.75 39.66, 9.69 39.765, 10.02 40.2 C 10.41 40.53, 10.38 40.545, 10.8 40.86 C 11.25 41.16, 11.235 41.22, 11.7 41.46 C 12.18 41.64, 12.21 41.64, 12.66 41.82 C 13.08 42, 12.93 41.985, 13.5 42.18 C 14.22 42.39, 14.400000000000002 42.464999999999996, 14.940000000000001 42.599999999999994 C 15.3 42.66, 15.255 42.69, 15.66 42.72 C 16.11 42.72, 16.14 42.72, 16.56 42.72 C 16.95 42.72, 16.71 42.795, 17.34 42.72 C 18.21 42.57, 18.225 42.75, 19.080000000000002 42.42 C 19.92 41.910000000000004, 20.07 41.940000000000005, 20.759999999999998 41.400000000000006 C 21.299999999999997 40.83, 21.435 40.83, 21.84 40.26 C 22.11 39.69, 22.125 39.584999999999994, 22.38 39.12 C 22.619999999999997 38.760000000000005, 22.68 38.62500000000001, 22.86 38.400000000000006 C 22.98 38.31, 23.01 38.265, 23.1 38.22 L 23.22 38.22" fill="none" stroke="black" stroke-width="2"></path><path d="M 8.76 30.660000000000004 C 9.780000000000001 30.660000000000004, 9.72 30.660000000000004, 10.8 30.660000000000004 C 11.940000000000001 30.660000000000004, 11.910000000000002 30.705000000000005, 13.080000000000002 30.660000000000004 C 14.280000000000001 30.57, 14.565000000000001 30.525000000000002, 15.48 30.48 C 16.11 30.48, 16.125 30.48, 16.740000000000002 30.48 C 17.340000000000003 30.48, 17.235000000000003 30.495, 17.94 30.48 C 18.75 30.450000000000003, 18.869999999999997 30.51, 19.56 30.42 C 20.130000000000003 30.27, 20.175000000000004 30.45, 20.700000000000003 30.119999999999997 C 21.18 29.61, 21.255000000000003 29.669999999999998, 21.66 29.099999999999998 C 21.990000000000002 28.47, 22.065 28.724999999999994, 22.32 27.839999999999996 C 22.5 26.699999999999996, 22.59 26.714999999999996, 22.68 25.56 C 22.68 24.39, 22.68 24.645, 22.68 23.22 C 22.68 21.54, 22.68 21.33, 22.68 19.86 C 22.68 18.6, 22.71 18.795, 22.68 17.34 C 22.619999999999997 15.69, 22.665 15.434999999999999, 22.56 14.04 C 22.409999999999997 12.899999999999999, 22.379999999999995 12.735, 22.259999999999998 11.76 C 22.17 10.95, 22.125 10.755, 22.080000000000002 10.14 C 22.080000000000002 9.72, 22.080000000000002 9.765, 22.080000000000002 9.3 C 22.080000000000002 8.79, 22.125000000000004 8.715, 22.080000000000002 8.28 C 21.990000000000002 7.92, 21.945 7.7700000000000005, 21.9 7.5600000000000005 C 21.9 7.5, 21.9 7.47, 21.9 7.4399999999999995 L 21.9 7.4399999999999995" fill="none" stroke="black" stroke-width="2"></path></svg>