<svg xmlns="http://www.w3.org/2000/svg" viewBox="11.84000015258789 2.5399999618530273 19.49024486541748 42.86000061035156" width="19.49024486541748" height="42.86000061035156"><path d="M 12.84 3.54 C 12.9 4.2, 12.93 3.99, 12.96 4.86 C 12.96 5.9399999999999995, 12.96 5.909999999999999, 12.96 7.02 C 12.96 8.16, 12.96 7.860000000000001, 12.96 9.3 C 12.96 11.04, 12.96 10.875, 12.96 12.78 C 12.96 14.849999999999998, 12.96 15.149999999999999, 12.96 16.919999999999998 C 12.96 18.39, 12.96 18.555, 12.96 19.86 C 12.96 21, 12.96 20.88, 12.96 22.14 C 12.96 23.520000000000003, 12.96 23.325000000000003, 12.96 24.900000000000002 C 12.96 26.67, 12.870000000000001 26.295, 12.96 28.44 C 13.14 30.96, 13.215 31.650000000000006, 13.32 33.480000000000004 C 13.35 34.620000000000005, 13.364999999999998 34.47, 13.379999999999999 35.76 C 13.379999999999999 37.2, 13.319999999999999 37.08, 13.379999999999999 38.64 C 13.5 40.32, 13.56 40.755, 13.620000000000001 42 C 13.620000000000001 42.81, 13.575000000000001 43.019999999999996, 13.620000000000001 43.62 C 13.71 44.010000000000005, 13.754999999999999 44.205000000000005, 13.799999999999999 44.400000000000006 C 13.799999999999999 44.400000000000006, 13.799999999999999 44.400000000000006, 13.799999999999999 44.400000000000006 L 13.799999999999999 44.400000000000006" fill="none" stroke="black" stroke-width="2"></path><path d="M 13.379999999999999 37.5 C 13.829999999999998 37.5, 13.829999999999998 37.5, 14.28 37.5 C 14.73 37.5, 14.639999999999999 37.5, 15.18 37.5 C 15.81 37.5, 15.870000000000001 37.545, 16.44 37.5 C 16.950000000000003 37.41, 16.71 37.394999999999996, 17.46 37.32 C 18.450000000000003 37.260000000000005, 18.42 37.275000000000006, 19.44 37.2 C 20.490000000000002 37.11, 20.595 37.11, 21.54 37.019999999999996 C 22.38 36.92999999999999, 22.56 36.92999999999999, 23.22 36.839999999999996 C 23.7 36.75, 23.939999999999998 36.705, 24.18 36.660000000000004 C 24.18 36.660000000000004, 24.18 36.660000000000004, 24.18 36.660000000000004 L 24.18 36.660000000000004" fill="none" stroke="black" stroke-width="2"></path><path d="M 13.379999999999999 31.259999999999998 C 13.68 31.259999999999998, 13.605 31.259999999999998, 13.98 31.259999999999998 C 14.43 31.259999999999998, 14.175 31.259999999999998, 14.879999999999999 31.259999999999998 C 15.839999999999998 31.259999999999998, 15.779999999999998 31.319999999999997, 16.799999999999997 31.259999999999998 C 17.88 31.14, 18.015 31.215, 18.96 31.02 C 19.770000000000003 30.75, 19.935000000000002 30.825, 20.580000000000002 30.48 C 21.060000000000002 30.060000000000002, 21.045 30.03, 21.54 29.64 C 22.049999999999997 29.28, 22.11 29.400000000000002, 22.56 28.92 C 22.95 28.32, 23.025 28.38, 23.34 27.72 C 23.58 27, 23.655 26.865000000000002, 23.82 26.28 C 23.91 25.830000000000002, 23.955 25.605000000000004, 24 25.380000000000003 C 24 25.380000000000003, 23.985 25.410000000000004, 24 25.380000000000003 C 24.03 25.32, 23.924999999999997 25.064999999999998, 24.06 25.259999999999998 C 24.299999999999997 25.71, 24.33 25.560000000000002, 24.54 26.160000000000004 C 24.72 26.910000000000004, 24.6 26.835000000000004, 24.900000000000002 27.660000000000004 C 25.32 28.560000000000002, 25.215000000000003 28.68, 25.740000000000002 29.46 C 26.37 30.12, 26.46 30.42, 27 30.78 C 27.450000000000003 30.840000000000003, 27.270000000000003 31.14, 27.900000000000002 30.900000000000002 C 28.71 30.36, 28.965 30.39, 29.52 29.82 C 29.82 29.22, 29.924999999999997 29.564999999999998, 30.119999999999997 28.619999999999997 C 30.209999999999997 27.33, 30.404999999999994 27.974999999999998, 30.299999999999997 26.04 C 30 23.46, 30.165000000000003 22.875, 29.700000000000003 20.88 C 29.07 19.47, 29.01 19.02, 28.44 18.06 C 27.93 17.549999999999997, 28.020000000000003 17.445, 27.42 17.04 C 26.73 16.740000000000002, 26.88 16.59, 26.04 16.44 C 25.049999999999997 16.44, 25.32 16.020000000000003, 24.06 16.44 C 22.53 17.28, 22.259999999999998 17.265, 21 18.12 C 20.009999999999998 18.990000000000002, 19.89 18.78, 19.02 19.86 C 18.27 21.15, 18.015 21.3, 17.52 22.44 C 17.28 23.43, 17.16 23.85, 17.04 24.42 C 17.04 24.57, 17.04 24.645, 17.04 24.72 L 17.04 24.72" fill="none" stroke="black" stroke-width="2"></path></svg>