<svg xmlns="http://www.w3.org/2000/svg" viewBox="10.640000343322754 3.0799999237060547 19.540000915527344 42.979997634887695" width="19.540000915527344" height="42.979997634887695"><path d="M 13.5 4.08 C 13.02 6.9, 13.004999999999999 5.850000000000001, 12.54 9.72 C 12.09 14.64, 11.82 14.729999999999999, 11.64 19.56 C 11.73 24.299999999999997, 11.535 25.605, 11.82 29.04 C 12.3 31.169999999999998, 12.315 32.129999999999995, 12.78 33.3 C 13.23 33.51, 12.81 34.379999999999995, 13.68 33.72 C 14.969999999999999 32.19, 15.104999999999999 32.730000000000004, 16.259999999999998 30.660000000000004 C 17.279999999999998 28.050000000000004, 17.699999999999996 27.240000000000002, 18.299999999999997 25.44 C 18.479999999999997 24.450000000000003, 18.57 24.045, 18.66 23.46 C 18.66 23.28, 18.51 23.085, 18.66 23.1 C 18.96 23.310000000000002, 18.9 22.335, 19.259999999999998 23.52 C 19.68 25.68, 19.635 26.189999999999998, 20.1 27.839999999999996 C 20.61 28.979999999999997, 20.520000000000003 29.234999999999996, 21.12 30.119999999999997 C 21.810000000000002 30.75, 21.57 30.990000000000002, 22.5 31.380000000000003 C 23.669999999999998 31.53, 23.639999999999997 31.965, 24.839999999999996 31.68 C 26.069999999999997 30.96, 26.339999999999996 31.485, 27.299999999999997 30.240000000000002 C 27.99 28.470000000000002, 28.23 28.830000000000005, 28.68 26.700000000000003 C 28.89 24.21, 28.994999999999997 24.45, 29.099999999999998 21.72 C 29.099999999999998 18.75, 29.099999999999998 18.39, 29.099999999999998 15.78 C 29.099999999999998 13.53, 29.279999999999998 13.125, 29.099999999999998 11.28 C 28.740000000000002 9.84, 28.785000000000004 9.374999999999998, 28.380000000000003 8.399999999999999 C 27.93 7.889999999999999, 28.020000000000003 7.9799999999999995, 27.48 7.38 C 26.85 6.6899999999999995, 26.82 6.45, 26.22 6 C 25.65 5.79, 25.634999999999998 5.6850000000000005, 25.08 5.58 C 24.54 5.58, 24.705 5.28, 24 5.58 C 23.13 6.18, 23.025 5.955, 22.259999999999998 6.779999999999999 C 21.6 7.829999999999999, 21.51 7.529999999999999, 20.94 8.879999999999999 C 20.46 10.53, 20.265 10.83, 19.98 12.18 C 19.89 13.23, 19.845 13.29, 19.799999999999997 14.28 C 19.799999999999997 15.21, 19.799999999999997 15.675, 19.799999999999997 16.14 L 19.799999999999997 16.14" fill="none" stroke="black" stroke-width="2"></path><path d="M 18.48 35.46 C 17.79 35.94, 17.76 35.67, 17.1 36.42 C 16.47 37.44, 16.32 37.32, 15.84 38.46 C 15.51 39.72, 15.315 39.915000000000006, 15.18 40.980000000000004 C 15.239999999999998 41.85, 15.12 41.97, 15.299999999999999 42.72 C 15.599999999999998 43.35, 15.344999999999999 43.425000000000004, 15.899999999999999 43.980000000000004 C 16.71 44.46, 16.59 44.7, 17.52 44.94 C 18.57 44.94, 18.495 45.209999999999994, 19.62 44.94 C 20.82 44.4, 21.18 44.489999999999995, 22.02 43.86 C 22.5 43.14, 22.56 43.245000000000005, 22.98 42.42 C 23.340000000000003 41.49, 23.475 41.655, 23.700000000000003 40.56 C 23.79 39.3, 23.85 39.075, 23.88 38.04 C 23.85 37.230000000000004, 24.03 37.11, 23.82 36.42 C 23.43 35.85, 23.58 35.625, 23.04 35.28 C 22.35 35.16, 22.545 35.1, 21.66 35.04 C 20.58 35.04, 20.55 34.949999999999996, 19.5 35.04 C 18.48 35.22, 18.270000000000003 35.13000000000001, 17.46 35.400000000000006 C 16.86 35.760000000000005, 16.709999999999997 35.775, 16.259999999999998 36.12 C 15.959999999999999 36.45, 15.809999999999999 36.615, 15.66 36.78 L 15.66 36.78" fill="none" stroke="black" stroke-width="2"></path></svg>