<svg xmlns="http://www.w3.org/2000/svg" viewBox="11.80666732788086 4.380000114440918 20.51333236694336 41.140000343322754" width="20.51333236694336" height="41.140000343322754"><path d="M 13.379999999999999 30.240000000000002 C 13.2 28.8, 13.155 28.785, 13.02 27.36 C 12.93 25.95, 12.885 25.77, 12.84 24.54 C 12.84 23.490000000000002, 12.84 23.520000000000003, 12.84 22.44 C 12.84 21.33, 12.765 21.15, 12.84 20.22 C 12.99 19.47, 12.915000000000001 19.365, 13.14 18.72 C 13.440000000000001 18.18, 13.425 18.015, 13.74 17.64 C 14.07 17.43, 13.904999999999998 17.354999999999997, 14.399999999999999 17.22 C 15.059999999999999 17.16, 15.225000000000001 17.085, 15.72 17.1 C 16.05 17.19, 15.884999999999998 16.8, 16.38 17.28 C 17.04 18.15, 17.190000000000005 18.03, 17.700000000000003 19.02 C 18.060000000000002 20.130000000000003, 18.09 20.01, 18.419999999999998 21.240000000000002 C 18.72 22.590000000000003, 18.794999999999998 22.800000000000004, 19.02 23.94 C 19.17 24.869999999999997, 19.245 25.304999999999996, 19.32 25.799999999999997 C 19.32 25.86, 19.32 25.89, 19.32 25.92 C 19.32 25.92, 19.32 25.935000000000002, 19.32 25.92 C 19.32 25.89, 19.32 26.445, 19.32 25.86 C 19.32 24.72, 19.275 24.825000000000003, 19.32 23.580000000000002 C 19.41 22.23, 19.35 21.855, 19.5 20.88 C 19.71 20.28, 19.769999999999996 20.055, 19.919999999999998 19.68 C 20.009999999999998 19.53, 19.950000000000003 19.634999999999998, 20.1 19.38 C 20.310000000000002 19.02, 20.085 19.11, 20.52 18.66 C 21.18 18.12, 21.21 18.03, 21.84 17.580000000000002 C 22.439999999999998 17.22, 22.575 17.1, 23.04 16.86 C 23.37 16.740000000000002, 23.28 16.68, 23.700000000000003 16.62 C 24.21 16.62, 24.12 16.62, 24.72 16.62 C 25.409999999999997 16.62, 25.29 16.71, 26.099999999999998 16.62 C 27.03 16.439999999999998, 27.21 16.349999999999998, 27.96 16.259999999999998 C 28.53 16.259999999999998, 28.47 16.259999999999998, 29.099999999999998 16.259999999999998 C 29.79 16.259999999999998, 29.94 16.259999999999998, 30.48 16.259999999999998 C 30.869999999999997 16.259999999999998, 31.064999999999998 16.259999999999998, 31.259999999999998 16.259999999999998 C 31.259999999999998 16.259999999999998, 31.259999999999998 16.259999999999998, 31.259999999999998 16.259999999999998 C 31.259999999999998 16.259999999999998, 31.259999999999998 16.259999999999998, 31.259999999999998 16.259999999999998 L 31.259999999999998 16.259999999999998" fill="none" stroke="black" stroke-width="2"></path><path d="M 16.14 10.74 C 16.47 9.96, 16.199999999999996 10.065, 16.799999999999997 9.18 C 17.669999999999998 8.19, 17.625 8.01, 18.54 7.199999999999999 C 19.5 6.569999999999999, 19.695 6.359999999999999, 20.46 5.9399999999999995 C 21.03 5.73, 20.955000000000002 5.655, 21.6 5.5200000000000005 C 22.32 5.460000000000001, 22.23 5.430000000000001, 23.04 5.4 C 23.939999999999998 5.4, 24.014999999999997 5.355, 24.839999999999996 5.4 C 25.589999999999996 5.49, 25.784999999999997 5.415, 26.339999999999996 5.58 C 26.699999999999996 5.82, 26.534999999999997 5.640000000000001, 27.06 6.0600000000000005 C 27.75 6.66, 27.825000000000003 6.615, 28.44 7.26 C 28.98 7.95, 29.1 8.010000000000002, 29.52 8.64 C 29.82 9.21, 29.849999999999998 9.18, 30.119999999999997 9.78 C 30.36 10.41, 30.389999999999997 10.215, 30.599999999999998 11.040000000000001 C 30.78 12.060000000000002, 30.825 12.105000000000002, 30.96 13.080000000000002 C 31.05 14.010000000000002, 31.095 14.010000000000002, 31.14 14.940000000000001 C 31.14 15.87, 31.095 15.914999999999997, 31.14 16.799999999999997 C 31.23 17.64, 31.275 17.58, 31.32 18.48 C 31.32 19.439999999999998, 31.32 19.034999999999997, 31.32 20.4 C 31.32 22.17, 31.32 22.26, 31.32 23.94 C 31.32 25.53, 31.32 25.919999999999998, 31.32 27.119999999999997 C 31.32 27.93, 31.32 27.975, 31.32 28.740000000000002 C 31.32 29.46, 31.32 29.775, 31.32 30.18 C 31.32 30.27, 31.32 30.314999999999998, 31.32 30.36 L 31.32 30.36" fill="none" stroke="black" stroke-width="2"></path><path d="M 25.14 16.740000000000002 C 25.08 17.970000000000002, 25.05 17.775000000000002, 25.02 19.200000000000003 C 25.02 20.82, 25.02 21.105000000000004, 25.02 22.44 C 25.02 23.490000000000002, 25.02 23.294999999999998, 25.02 24.54 C 25.02 25.98, 25.02 25.995, 25.02 27.42 C 25.02 28.830000000000002, 25.02 28.785000000000004, 25.02 30.240000000000002 C 25.02 31.740000000000002, 25.02 31.965000000000003, 25.02 33.24 C 25.02 34.29, 25.02 34.245, 25.02 35.339999999999996 C 25.02 36.48, 25.02 36.644999999999996, 25.02 37.62 C 25.02 38.43, 25.02 38.535000000000004, 25.02 39.24 C 25.02 39.84, 25.02 39.915, 25.02 40.44 C 25.02 40.89, 25.02 40.66499999999999, 25.02 41.339999999999996 C 25.02 42.239999999999995, 25.02 42.495, 25.02 43.14 C 25.02 43.53, 25.02 43.605000000000004, 25.02 43.92 C 25.02 44.160000000000004, 25.02 44.28, 25.02 44.400000000000006 C 25.02 44.400000000000006, 25.02 44.400000000000006, 25.02 44.400000000000006 C 25.02 44.400000000000006, 25.02 44.370000000000005, 25.02 44.400000000000006 C 25.02 44.46, 25.02 44.489999999999995, 25.02 44.519999999999996 C 25.02 44.519999999999996, 25.02 44.519999999999996, 25.02 44.519999999999996 L 25.02 44.519999999999996" fill="none" stroke="black" stroke-width="2"></path></svg>