<svg xmlns="http://www.w3.org/2000/svg" viewBox="11.380000114440918 6.059999942779541 19.259998321533203 38.73999786376953" width="19.259998321533203" height="38.73999786376953"><path d="M 13.559999999999999 43.8 C 13.35 42.75, 13.335 42.735, 13.14 41.7 C 12.96 40.68000000000001, 12.945 40.77, 12.78 39.660000000000004 C 12.629999999999999 38.46, 12.57 38.34, 12.48 37.26 C 12.45 36.3, 12.434999999999999 36.224999999999994, 12.419999999999998 35.339999999999996 C 12.419999999999998 34.53, 12.419999999999998 34.709999999999994, 12.419999999999998 33.72 C 12.419999999999998 32.55, 12.419999999999998 32.43, 12.419999999999998 31.380000000000003 C 12.419999999999998 30.450000000000003, 12.419999999999998 30.42, 12.419999999999998 29.52 C 12.419999999999998 28.65, 12.419999999999998 28.560000000000002, 12.419999999999998 27.78 C 12.419999999999998 27.090000000000003, 12.419999999999998 27.015, 12.419999999999998 26.400000000000002 C 12.419999999999998 25.86, 12.329999999999998 25.905, 12.419999999999998 25.32 C 12.599999999999998 24.689999999999998, 12.524999999999999 24.839999999999996, 12.78 24.06 C 13.11 23.130000000000003, 13.155000000000001 22.905, 13.440000000000001 22.200000000000003 C 13.68 21.720000000000002, 13.665 21.615000000000002, 13.919999999999998 21.240000000000002 C 14.19 20.970000000000002, 14.085 20.940000000000005, 14.46 20.700000000000003 C 14.94 20.490000000000002, 14.909999999999998 20.43, 15.419999999999998 20.28 C 15.959999999999999 20.19, 15.704999999999998 20.145000000000003, 16.5 20.1 C 17.55 20.1, 17.79 20.1, 18.6 20.1 C 19.17 20.1, 19.095000000000002 20.1, 19.740000000000002 20.1 C 20.46 20.1, 20.55 20.1, 21.18 20.1 C 21.72 20.1, 21.72 20.1, 22.259999999999998 20.1 C 22.799999999999997 20.1, 22.919999999999998 20.1, 23.34 20.1 C 23.64 20.1, 23.595000000000002 20.1, 23.94 20.1 C 24.33 20.1, 24.33 20.130000000000003, 24.72 20.1 C 25.11 20.04, 25.064999999999998 20.115000000000002, 25.5 19.98 C 25.98 19.77, 26.055 19.77, 26.46 19.56 C 26.79 19.35, 26.714999999999996 19.455000000000002, 27.119999999999997 19.14 C 27.599999999999998 18.72, 27.615 18.915, 28.08 18.299999999999997 C 28.53 17.49, 28.62 17.61, 28.98 16.68 C 29.25 15.63, 29.355 15.630000000000003, 29.52 14.580000000000002 C 29.58 13.530000000000001, 29.64 13.605, 29.64 12.48 C 29.58 11.280000000000001, 29.685 11.025, 29.52 10.08 C 29.25 9.39, 29.34 9.299999999999999, 28.98 8.7 C 28.53 8.19, 28.439999999999998 8.024999999999999, 28.08 7.68 C 27.81 7.5, 27.869999999999997 7.470000000000001, 27.54 7.32 C 27.15 7.2, 27.15 7.140000000000001, 26.759999999999998 7.08 C 26.369999999999997 7.08, 26.415 7.035, 25.98 7.08 C 25.5 7.17, 25.425 7.08, 25.02 7.26 C 24.689999999999998 7.53, 24.735 7.455, 24.36 7.800000000000001 C 23.939999999999998 8.22, 23.924999999999997 8.145000000000001, 23.52 8.64 C 23.130000000000003 9.21, 23.115000000000002 9.045, 22.740000000000002 9.78 C 22.380000000000003 10.68, 22.29 10.815, 22.02 11.58 C 21.84 12.21, 21.78 12.33, 21.66 12.84 C 21.6 13.23, 21.57 13.425, 21.54 13.620000000000001 L 21.54 13.620000000000001" fill="none" stroke="black" stroke-width="2"></path><path d="M 20.700000000000003 30.06 C 20.07 30.81, 19.770000000000003 30.9, 19.44 31.56 C 19.41 32.13, 19.32 32.325, 19.38 32.7 C 19.53 32.88, 19.47 33.225, 19.68 33.06 C 19.95 32.55, 20.205 32.655, 20.22 32.04 C 19.98 31.32, 19.965000000000003 31.064999999999998, 19.740000000000002 30.599999999999998 C 19.53 30.39, 19.725 30, 19.32 30.18 C 18.72 30.75, 18.39 30.72, 18.12 31.32 C 18.18 31.95, 17.925000000000004 32.205, 18.240000000000002 32.58 C 18.810000000000002 32.7, 18.765 32.97, 19.38 32.82 C 20.04 32.4, 20.325000000000003 32.505, 20.700000000000003 31.98 C 20.79 31.35, 20.955 31.154999999999998, 20.88 30.72 C 20.64 30.48, 20.819999999999997 30.240000000000002, 20.4 30.240000000000002 C 19.8 30.48, 19.680000000000003 30.134999999999998, 19.200000000000003 30.72 C 18.840000000000003 31.65, 18.405 31.889999999999997, 18.48 32.58 C 18.990000000000002 33.03, 19.02 33.300000000000004, 19.5 33.480000000000004 C 19.95 33.39, 20.115 33.644999999999996, 20.4 33.3 C 20.52 32.699999999999996, 20.58 32.42999999999999, 20.64 32.099999999999994 L 20.64 31.98" fill="none" stroke="black" stroke-width="2"></path></svg>