<svg xmlns="http://www.w3.org/2000/svg" viewBox="12.4399995803833 4.106666564941406 23 35.17333221435547" width="23" height="35.17333221435547"><path d="M 15.18 19.38 C 15.63 19.38, 14.955000000000002 19.38, 16.080000000000002 19.38 C 17.880000000000003 19.38, 18.045 19.38, 19.68 19.38 C 21.15 19.38, 21.270000000000003 19.365, 22.62 19.38 C 23.85 19.41, 23.835 19.425, 25.08 19.44 C 26.339999999999996 19.44, 26.744999999999997 19.44, 27.599999999999998 19.44 C 28.049999999999997 19.44, 27.99 19.455000000000002, 28.5 19.44 C 29.07 19.41, 29.01 19.395, 29.64 19.38 C 30.33 19.38, 30.435 19.38, 31.02 19.38 C 31.5 19.38, 31.634999999999998 19.38, 31.98 19.38 C 32.190000000000005 19.38, 32.25000000000001 19.38, 32.400000000000006 19.38 C 32.49 19.38, 32.535 19.38, 32.58 19.38 L 32.58 19.38" fill="none" stroke="black" stroke-width="2"></path><path d="M 18.6 11.399999999999999 C 18.66 11.129999999999999, 18.525 11.28, 18.72 10.86 C 19.049999999999997 10.29, 18.96 10.305, 19.38 9.72 C 19.89 9.120000000000001, 19.74 9.12, 20.4 8.52 C 21.21 7.92, 21.27 7.8149999999999995, 22.02 7.32 C 22.71 6.930000000000001, 22.38 7.005000000000001, 23.4 6.540000000000001 C 24.75 6, 24.81 5.805, 26.099999999999998 5.46 C 27.33 5.3100000000000005, 27.584999999999997 5.235, 28.56 5.16 C 29.28 5.16, 29.355 5.04, 30 5.16 C 30.57 5.4, 30.57 5.1, 31.14 5.64 C 31.71 6.48, 31.830000000000002 6.525, 32.28 7.32 C 32.61 8.07, 32.685 7.890000000000001, 32.94 8.82 C 33.12 9.93, 33.209999999999994 9.705000000000002, 33.3 11.040000000000001 C 33.3 12.600000000000001, 33.3 12.96, 33.3 14.16 C 33.3 15, 33.33 14.879999999999999, 33.3 15.84 C 33.239999999999995 16.92, 33.315 16.77, 33.18 18 C 32.97 19.38, 33.045 19.439999999999998, 32.76 20.759999999999998 C 32.4 22.02, 32.445 22.080000000000002, 32.04 23.28 C 31.59 24.42, 31.785 24.089999999999996, 31.14 25.56 C 30.3 27.36, 30.255000000000003 27.540000000000003, 29.46 29.160000000000004 C 28.71 30.6, 28.575000000000003 30.765, 27.96 32.04 C 27.48 33.15, 27.405 33.239999999999995, 27 34.26 C 26.669999999999998 35.19, 26.594999999999995 35.415, 26.339999999999996 36.12 C 26.159999999999997 36.599999999999994, 26.07 36.839999999999996, 25.98 37.08 C 25.98 37.08, 25.98 37.08, 25.98 37.08 L 25.98 37.08" fill="none" stroke="black" stroke-width="2"></path><path d="M 13.440000000000001 38.28 C 16.14 37.92, 16.26 37.92, 18.84 37.56 C 21.299999999999997 37.2, 21.659999999999997 37.11, 23.759999999999998 36.839999999999996 C 25.5 36.66, 25.290000000000003 36.57, 27.240000000000002 36.480000000000004 C 29.4 36.480000000000004, 29.91 36.480000000000004, 31.56 36.480000000000004 C 32.699999999999996 36.480000000000004, 33.12 36.45, 33.839999999999996 36.480000000000004 C 34.14 36.54, 34.29 36.56999999999999, 34.44 36.599999999999994 L 34.44 36.599999999999994" fill="none" stroke="black" stroke-width="2"></path></svg>