<svg xmlns="http://www.w3.org/2000/svg" viewBox="5.797900199890137 7.460000038146973 25.732051849365234 36.26194381713867" width="25.732051849365234" height="36.26194381713867"><path d="M 17.580000000000002 8.459999999999999 C 15.99 11.34, 16.08 10.755, 14.399999999999999 14.22 C 12.629999999999999 18.27, 12.27 18.945, 10.86 22.32 C 9.809999999999999 25.02, 9.69 25.049999999999997, 8.76 27.72 C 7.949999999999999 30.36, 7.574999999999999 31.23, 7.14 33 C 7.08 33.9, 7.095 33.839999999999996, 7.02 34.8 C 6.93 35.81999999999999, 6.705 35.81999999999999, 6.84 36.839999999999996 C 7.2 37.86, 7.08 37.995000000000005, 7.5600000000000005 38.88 C 8.16 39.63, 8.085 39.78, 8.76 40.38 C 9.51 40.83, 9.254999999999999 40.905, 10.26 41.28 C 11.52 41.58, 11.115 41.625, 12.78 41.88 C 14.849999999999998 42.09, 14.939999999999998 42.12, 16.919999999999998 42.3 C 18.810000000000002 42.449999999999996, 19.080000000000002 42.49499999999999, 20.700000000000003 42.599999999999994 C 22.05 42.66, 21.990000000000002 42.735, 23.4 42.72 C 24.869999999999997 42.629999999999995, 25.169999999999995 42.825, 26.339999999999996 42.54 C 27.209999999999997 42.06, 27.314999999999998 42.254999999999995, 28.08 41.58 C 28.740000000000002 40.709999999999994, 28.845000000000002 40.949999999999996, 29.400000000000002 39.839999999999996 C 29.85 38.489999999999995, 30.029999999999998 38.31, 30.299999999999997 37.14 C 30.39 36.150000000000006, 30.45 36.135000000000005, 30.48 35.160000000000004 C 30.450000000000003 34.2, 30.645000000000003 34.080000000000005, 30.42 33.24 C 30 32.519999999999996, 30.255 32.64, 29.58 31.799999999999997 C 28.65 30.84, 29.174999999999997 30.675000000000004, 27.72 29.880000000000003 C 25.74 29.25, 25.424999999999997 28.95, 23.759999999999998 28.619999999999997 C 22.409999999999997 28.589999999999996, 22.199999999999996 28.439999999999998, 21.06 28.56 C 20.130000000000003 28.83, 20.160000000000004 28.634999999999998, 19.200000000000003 29.099999999999998 C 18.21 29.759999999999998, 18 29.775000000000002, 17.22 30.42 C 16.65 31.05, 16.365000000000002 31.365000000000002, 16.080000000000002 31.68 L 16.080000000000002 31.68" fill="none" stroke="black" stroke-width="2"></path></svg>