<svg xmlns="http://www.w3.org/2000/svg" viewBox="12.839999198913574 3.3533334732055664 21.47333526611328 43.42666530609131" width="21.47333526611328" height="43.42666530609131"><path d="M 14.100000000000001 28.02 C 14.07 27.240000000000002, 14.1 27.42, 14.04 26.46 C 13.95 25.32, 13.905 25.35, 13.86 24.18 C 13.86 22.98, 13.86 22.59, 13.86 21.78 C 13.86 21.36, 13.86 21.315, 13.86 20.94 C 13.86 20.61, 13.86 20.625, 13.86 20.28 C 13.86 19.92, 13.815 19.95, 13.86 19.56 C 13.95 19.14, 13.905 19.005, 14.04 18.72 C 14.219999999999999 18.57, 14.159999999999998 18.689999999999998, 14.399999999999999 18.419999999999998 C 14.7 18.03, 14.7 17.91, 15 17.64 C 15.3 17.490000000000002, 15.240000000000002 17.505, 15.600000000000001 17.34 C 16.020000000000003 17.16, 16.080000000000002 17.07, 16.44 16.98 C 16.740000000000002 16.98, 16.5 16.98, 17.04 16.98 C 17.82 16.98, 17.85 16.98, 18.6 16.98 C 19.32 16.98, 19.259999999999998 16.98, 20.04 16.98 C 20.88 16.98, 21 16.98, 21.72 16.98 C 22.32 16.98, 22.38 16.965, 22.919999999999998 16.98 C 23.4 17.009999999999998, 23.415 16.994999999999997, 23.88 17.04 C 24.33 17.1, 24.315 17.1, 24.78 17.16 C 25.26 17.22, 25.26 17.19, 25.740000000000002 17.28 C 26.220000000000002 17.4, 26.310000000000002 17.46, 26.700000000000003 17.52 C 27 17.52, 26.955 17.52, 27.299999999999997 17.52 C 27.689999999999998 17.52, 27.735 17.505, 28.08 17.52 C 28.38 17.55, 28.439999999999998 17.535, 28.68 17.580000000000002 C 28.86 17.64, 28.919999999999998 17.67, 29.04 17.700000000000003 C 29.1 17.700000000000003, 29.130000000000003 17.700000000000003, 29.160000000000004 17.700000000000003 C 29.160000000000004 17.700000000000003, 29.160000000000004 17.700000000000003, 29.160000000000004 17.700000000000003 C 29.160000000000004 17.700000000000003, 29.115000000000006 17.700000000000003, 29.160000000000004 17.700000000000003 C 29.25 17.700000000000003, 29.22 17.700000000000003, 29.339999999999996 17.700000000000003 C 29.49 17.700000000000003, 29.46 17.700000000000003, 29.64 17.700000000000003 C 29.85 17.700000000000003, 29.865 17.700000000000003, 30.06 17.700000000000003 C 30.240000000000002 17.700000000000003, 30.330000000000002 17.700000000000003, 30.42 17.700000000000003 C 30.42 17.700000000000003, 30.42 17.700000000000003, 30.42 17.700000000000003 C 30.42 17.700000000000003, 30.42 17.700000000000003, 30.42 17.700000000000003 C 30.42 17.700000000000003, 30.42 17.700000000000003, 30.42 17.700000000000003 C 30.42 17.700000000000003, 30.39 17.700000000000003, 30.42 17.700000000000003 C 30.48 17.700000000000003, 30.465 17.700000000000003, 30.54 17.700000000000003 C 30.63 17.700000000000003, 30.674999999999997 17.700000000000003, 30.72 17.700000000000003 C 30.72 17.700000000000003, 30.72 17.700000000000003, 30.72 17.700000000000003 C 30.72 17.700000000000003, 30.72 17.700000000000003, 30.72 17.700000000000003 C 30.72 17.700000000000003, 30.72 17.700000000000003, 30.72 17.700000000000003 C 30.72 17.700000000000003, 30.72 17.700000000000003, 30.72 17.700000000000003 C 30.72 17.700000000000003, 30.72 17.700000000000003, 30.72 17.700000000000003 C 30.72 17.700000000000003, 30.72 17.700000000000003, 30.72 17.700000000000003 C 30.72 17.700000000000003, 30.689999999999998 17.715000000000003, 30.72 17.700000000000003 C 30.779999999999998 17.67, 30.719999999999995 17.745, 30.839999999999996 17.64 C 31.02 17.46, 30.945 17.490000000000002, 31.200000000000003 17.28 C 31.53 17.04, 31.5 17.129999999999995, 31.86 16.799999999999997 C 32.25 16.38, 32.325 16.455, 32.64 15.96 C 32.879999999999995 15.39, 32.955 15.420000000000002, 33.12 14.82 C 33.209999999999994 14.19, 33.254999999999995 14.325, 33.3 13.559999999999999 C 33.3 12.66, 33.33 12.75, 33.3 11.76 C 33.239999999999995 10.68, 33.375 10.545000000000002, 33.18 9.600000000000001 C 32.849999999999994 8.790000000000001, 32.834999999999994 8.625, 32.519999999999996 7.98 C 32.22 7.5, 32.28 7.47, 31.92 7.02 C 31.5 6.6, 31.634999999999998 6.645, 31.08 6.18 C 30.39 5.67, 30.360000000000003 5.5649999999999995, 29.700000000000003 5.16 C 29.07 4.86, 28.995 4.755000000000001, 28.44 4.5600000000000005 C 27.96 4.470000000000001, 27.87 4.425, 27.48 4.38 C 27.18 4.38, 27.195000000000004 4.32, 26.880000000000003 4.38 C 26.55 4.5, 26.64 4.35, 26.22 4.62 C 25.71 5.04, 25.71 4.995, 25.200000000000003 5.46 C 24.69 5.970000000000001, 24.555 6.0600000000000005, 24.18 6.48 C 23.94 6.8100000000000005, 24.03 6.645, 23.700000000000003 7.14 C 23.28 7.799999999999999, 23.22 7.799999999999999, 22.86 8.459999999999999 C 22.56 9.12, 22.47 9.225, 22.259999999999998 9.78 C 22.14 10.23, 22.08 10.455, 22.02 10.68 L 22.02 10.68" fill="none" stroke="black" stroke-width="2"></path><path d="M 24.18 17.52 C 24.18 18.21, 24.18 18.284999999999997, 24.18 18.9 C 24.18 19.439999999999998, 24.18 19.2, 24.18 19.98 C 24.18 21, 24.03 20.94, 24.18 22.02 C 24.48 23.159999999999997, 24.39 23.354999999999997, 24.78 24.299999999999997 C 25.26 25.049999999999997, 25.305000000000003 25.049999999999997, 25.740000000000002 25.799999999999997 C 26.130000000000003 26.549999999999997, 25.95 26.519999999999996, 26.52 27.299999999999997 C 27.27 28.11, 27.345 28.245, 28.02 28.92 C 28.619999999999997 29.46, 28.665 29.564999999999998, 29.22 30 C 29.73 30.330000000000002, 29.775000000000002 30.270000000000003, 30.240000000000002 30.660000000000004 C 30.66 31.11, 30.735 31.17, 31.08 31.56 C 31.349999999999998 31.89, 31.379999999999995 31.814999999999998, 31.619999999999997 32.22 C 31.83 32.7, 31.904999999999998 32.745, 32.04 33.18 C 32.1 33.57, 32.13 33.72, 32.160000000000004 33.96 C 32.160000000000004 34.05, 32.160000000000004 34.065, 32.160000000000004 34.14 C 32.160000000000004 34.2, 32.220000000000006 34.095, 32.160000000000004 34.26 C 32.040000000000006 34.53, 32.190000000000005 34.589999999999996, 31.92 34.8 C 31.5 34.949999999999996, 31.575 34.94999999999999, 31.08 35.099999999999994 C 30.509999999999998 35.25, 30.42 35.23500000000001, 29.94 35.400000000000006 C 29.550000000000004 35.58, 29.775000000000006 35.504999999999995, 29.160000000000004 35.76 C 28.32 36.09, 28.32 36.045, 27.48 36.42 C 26.64 36.84, 26.609999999999996 36.72, 25.799999999999997 37.26 C 25.02 37.92, 25.035 37.769999999999996, 24.240000000000002 38.58 C 23.43 39.54, 23.220000000000002 39.705, 22.62 40.5 C 22.23 41.129999999999995, 22.2 41.07, 21.84 41.76 C 21.509999999999998 42.51, 21.48 42.525, 21.18 43.26 C 20.91 43.980000000000004, 20.805 44.145, 20.64 44.7 C 20.58 45.09, 20.55 45.21000000000001, 20.52 45.480000000000004 C 20.52 45.63, 20.52 45.705, 20.52 45.78 C 20.52 45.78, 20.52 45.78, 20.52 45.78 L 20.52 45.78" fill="none" stroke="black" stroke-width="2"></path><path d="M 14.46 36.78 C 14.879999999999999 36.69, 14.625 36.629999999999995, 15.299999999999999 36.599999999999994 C 16.23 36.629999999999995, 16.44 36.63, 17.16 36.660000000000004 C 17.67 36.69, 17.685 36.6, 18.18 36.72 C 18.66 36.93, 18.735 36.870000000000005, 19.14 37.14 C 19.47 37.47, 19.304999999999996 37.26, 19.799999999999997 37.8 C 20.46 38.55, 20.685000000000002 38.80499999999999, 21.12 39.3 C 21.33 39.54, 21.33 39.54, 21.54 39.78 C 21.75 40.019999999999996, 21.810000000000002 40.095, 21.96 40.26 C 22.05 40.349999999999994, 22.08 40.349999999999994, 22.14 40.44 C 22.17 40.53, 22.185000000000002 40.574999999999996, 22.200000000000003 40.62 C 22.200000000000003 40.62, 22.200000000000003 40.62, 22.200000000000003 40.62 L 22.200000000000003 40.62" fill="none" stroke="black" stroke-width="2"></path></svg>