<svg xmlns="http://www.w3.org/2000/svg" viewBox="13.220000267028809 1.5399999618530273 20.586666107177734 43.25999927520752" width="20.586666107177734" height="43.25999927520752"><path d="M 14.22 26.880000000000003 C 16.71 26.61, 17.01 26.519999999999996, 19.200000000000003 26.339999999999996 C 21.090000000000003 26.25, 21.105 26.265, 22.98 26.160000000000004 C 24.840000000000003 26.040000000000003, 25.245000000000005 25.995000000000005, 26.700000000000003 25.92 C 27.75 25.89, 27.959999999999997 25.935000000000002, 28.799999999999997 25.86 C 29.43 25.74, 29.61 25.68, 30.06 25.619999999999997 C 30.33 25.619999999999997, 30.254999999999995 25.709999999999997, 30.599999999999998 25.619999999999997 C 31.02 25.439999999999998, 31.02 25.559999999999995, 31.44 25.259999999999998 C 31.86 24.84, 31.995 24.975, 32.28 24.42 C 32.43 23.73, 32.46 23.88, 32.58 23.04 C 32.67 22.049999999999997, 32.714999999999996 22.74, 32.76 21.06 C 32.76 18.689999999999998, 32.76 18.314999999999998, 32.76 16.32 C 32.76 14.700000000000001, 32.864999999999995 14.685000000000002, 32.76 13.080000000000002 C 32.55 11.49, 32.55 11.219999999999999, 32.339999999999996 9.899999999999999 C 32.129999999999995 8.85, 32.235 8.865, 31.92 7.800000000000001 C 31.5 6.720000000000001, 31.544999999999998 6.585, 31.08 5.64 C 30.57 4.83, 30.644999999999996 4.7250000000000005, 30.06 4.0200000000000005 C 29.4 3.42, 29.475 3.1799999999999997, 28.740000000000002 2.82 C 27.93 2.7, 27.93 2.64, 27.119999999999997 2.58 C 26.31 2.58, 26.025 2.49, 25.5 2.58 C 25.259999999999998 2.76, 25.35 2.5949999999999998, 25.02 2.94 C 24.6 3.45, 24.57 3.375, 24.18 3.96 C 23.82 4.62, 23.745 4.455, 23.46 5.28 C 23.25 6.27, 23.189999999999998 6.27, 23.04 7.26 C 22.95 8.25, 22.95 8.28, 22.86 9.24 C 22.77 10.170000000000002, 22.725 10.455000000000002, 22.68 11.100000000000001 C 22.68 11.46, 22.68 11.64, 22.68 11.82 C 22.68 11.82, 22.68 11.82, 22.68 11.82 L 22.68 11.82" fill="none" stroke="black" stroke-width="2"></path><path d="M 24.299999999999997 26.58 C 24.299999999999997 26.58, 24.299999999999997 26.58, 24.299999999999997 26.58 C 24.299999999999997 26.58, 24.359999999999996 26.369999999999997, 24.299999999999997 26.58 C 24.18 27, 24.119999999999997 26.490000000000002, 24.06 27.42 C 24.06 28.86, 24.06 28.784999999999997, 24.06 30.299999999999997 C 24.06 31.89, 23.895 31.425000000000004, 24.06 33.480000000000004 C 24.39 36, 24.494999999999997 36.449999999999996, 24.72 38.519999999999996 C 24.84 40.14, 24.9 40.559999999999995, 24.96 41.76 C 24.96 42.54, 24.96 42.81, 24.96 43.32 C 24.96 43.56, 24.96 43.68, 24.96 43.8 C 24.96 43.8, 24.96 43.8, 24.96 43.8 L 24.96 43.8" fill="none" stroke="black" stroke-width="2"></path></svg>