<svg xmlns="http://www.w3.org/2000/svg" viewBox="11.513333320617676 1.4600000381469727 18.473334312438965 40.33333492279053" width="18.473334312438965" height="40.33333492279053"><path d="M 12.96 2.46 C 12.96 3.36, 13.065000000000001 2.6399999999999997, 12.96 4.26 C 12.75 6.6, 12.645 6.66, 12.54 8.94 C 12.54 11.16, 12.54 11.309999999999999, 12.54 13.379999999999999 C 12.54 15.299999999999999, 12.54 15.659999999999998, 12.54 17.22 C 12.54 18.42, 12.54 18.375, 12.54 19.62 C 12.54 20.910000000000004, 12.479999999999999 21.090000000000003, 12.54 22.200000000000003 C 12.66 23.130000000000003, 12.509999999999998 23.34, 12.78 24.06 C 13.2 24.57, 13.245000000000001 24.735, 13.620000000000001 25.08 C 13.95 25.259999999999998, 13.8 25.29, 14.28 25.44 C 14.91 25.560000000000002, 14.549999999999999 25.635, 15.54 25.68 C 16.89 25.65, 16.800000000000004 25.724999999999998, 18.240000000000002 25.619999999999997 C 19.77 25.439999999999998, 19.964999999999996 25.394999999999996, 21.299999999999997 25.259999999999998 C 22.439999999999998 25.169999999999998, 22.395000000000003 25.125, 23.580000000000002 25.08 C 24.810000000000002 25.08, 25.11 25.124999999999996, 26.04 25.08 C 26.669999999999998 24.990000000000002, 26.864999999999995 24.975, 27.299999999999997 24.900000000000002 C 27.54 24.840000000000003, 27.585 24.900000000000002, 27.78 24.78 C 27.93 24.6, 27.93 24.75, 28.08 24.42 C 28.23 23.94, 28.305 24, 28.380000000000003 23.46 C 28.380000000000003 22.86, 28.380000000000003 23.07, 28.380000000000003 22.259999999999998 C 28.380000000000003 21.24, 28.440000000000005 21.06, 28.380000000000003 20.22 C 28.26 19.56, 28.305 19.65, 28.14 18.9 C 27.93 18.06, 27.96 17.88, 27.72 17.22 C 27.45 16.74, 27.57 16.74, 27.18 16.259999999999998 C 26.67 15.779999999999998, 26.700000000000003 15.614999999999998, 26.160000000000004 15.299999999999999 C 25.590000000000003 15.149999999999999, 25.5 15.075, 25.02 15 C 24.630000000000003 15, 24.705000000000002 15, 24.240000000000002 15 C 23.700000000000003 15, 23.76 14.835, 23.16 15 C 22.5 15.33, 22.38 15.24, 21.84 15.66 C 21.42 16.17, 21.33 16.215, 21 16.68 C 20.759999999999998 17.1, 20.79 16.994999999999997, 20.52 17.52 C 20.22 18.15, 20.099999999999998 18.375, 19.919999999999998 18.78 C 19.86 18.96, 19.859999999999996 18.975, 19.799999999999997 19.14 C 19.74 19.29, 19.71 19.365000000000002, 19.68 19.44 C 19.68 19.44, 19.68 19.44, 19.68 19.44 L 19.68 19.44" fill="none" stroke="black" stroke-width="2"></path><path d="M 24.660000000000004 25.68 C 25.17 26.19, 25.125 26.085, 25.68 26.700000000000003 C 26.28 27.42, 26.340000000000003 27.480000000000004, 26.880000000000003 28.14 C 27.36 28.74, 27.404999999999998 28.604999999999997, 27.839999999999996 29.339999999999996 C 28.229999999999997 30.209999999999997, 28.334999999999997 30.089999999999996, 28.619999999999997 31.08 C 28.799999999999997 32.19, 28.89 32.235, 28.98 33.3 C 28.98 34.31999999999999, 28.995 34.41, 28.98 35.339999999999996 C 28.950000000000003 36.17999999999999, 29.01 36.35999999999999, 28.92 37.019999999999996 C 28.77 37.5, 28.83 37.5, 28.619999999999997 37.980000000000004 C 28.349999999999998 38.46, 28.544999999999998 38.445, 28.08 38.94 C 27.419999999999998 39.45, 27.434999999999995 39.555, 26.759999999999998 39.96 C 26.07 40.260000000000005, 26.055000000000003 40.38, 25.380000000000003 40.56 C 24.72 40.620000000000005, 24.585 40.65, 24.06 40.68 C 23.67 40.68, 23.595000000000002 40.68, 23.28 40.68 C 23.04 40.68, 23.115 40.935, 22.799999999999997 40.68 C 22.409999999999997 40.17, 22.335 40.155, 22.02 39.660000000000004 C 21.78 39.18000000000001, 21.75 39.330000000000005, 21.54 38.7 C 21.36 37.92, 21.314999999999998 37.935, 21.18 37.14 C 21.09 36.33, 21.045 36.19499999999999, 21 35.519999999999996 C 21 34.98, 21 34.949999999999996, 21 34.44 C 21 33.96, 20.97 33.84, 21 33.480000000000004 C 21.060000000000002 33.24, 21.09 33.120000000000005, 21.12 33 C 21.12 33, 21.12 33, 21.12 33 L 21.12 33" fill="none" stroke="black" stroke-width="2"></path></svg>