<svg xmlns="http://www.w3.org/2000/svg" viewBox="10.160313606262207 6.126667022705078 23.859686851501465 38.85333251953125" width="23.859686851501465" height="38.85333251953125"><path d="M 12.059999999999999 21 C 12.989999999999998 20.91, 12.719999999999999 20.91, 13.919999999999998 20.82 C 15.389999999999999 20.73, 15.404999999999998 20.79, 16.86 20.64 C 18.3 20.43, 18.540000000000003 20.369999999999997, 19.740000000000002 20.22 C 20.700000000000003 20.13, 20.595 20.085, 21.66 20.04 C 22.83 20.04, 22.95 20.04, 24 20.04 C 24.93 20.04, 24.855 20.04, 25.86 20.04 C 26.939999999999998 20.04, 27.015 20.04, 28.02 20.04 C 28.950000000000003 20.04, 28.995000000000005 20.085, 29.880000000000003 20.04 C 30.72 19.95, 30.915 19.905, 31.56 19.86 C 32.01 19.86, 32.160000000000004 19.86, 32.46 19.86 C 32.61 19.86, 32.685 19.86, 32.76 19.86 L 32.76 19.86" fill="none" stroke="black" stroke-width="2"></path><path d="M 19.02 13.74 C 19.14 12.96, 19.095 12.87, 19.259999999999998 12.18 C 19.47 11.58, 19.41 11.58, 19.68 10.98 C 20.009999999999998 10.379999999999999, 19.83 10.35, 20.34 9.78 C 21.03 9.239999999999998, 20.775 9.18, 21.72 8.7 C 22.919999999999998 8.28, 22.904999999999998 8.175, 24.119999999999997 7.86 C 25.349999999999998 7.65, 25.47 7.59, 26.58 7.4399999999999995 C 27.57 7.35, 27.9 7.305, 28.56 7.26 C 28.89 7.26, 28.755 6.96, 29.22 7.26 C 29.82 7.859999999999999, 29.775000000000002 7.739999999999998, 30.42 8.459999999999999 C 31.11 9.3, 31.29 9.435, 31.799999999999997 10.14 C 32.129999999999995 10.71, 32.19 10.754999999999999, 32.46 11.28 C 32.67 11.76, 32.745000000000005 11.655, 32.88 12.24 C 32.94 12.93, 32.97 12.555000000000001, 33 13.620000000000001 C 33 15.06, 33 15.18, 33 16.5 C 33 17.7, 33 17.82, 33 18.9 C 33 19.86, 33 20.025, 33 20.82 C 33 21.450000000000003, 33.045 21.240000000000002, 33 22.080000000000002 C 32.91 23.130000000000003, 32.925 23.13, 32.82 24.18 C 32.7 25.23, 32.7 25.515, 32.58 26.28 C 32.459999999999994 26.76, 32.4 26.895000000000003, 32.339999999999996 27.240000000000002 C 32.339999999999996 27.450000000000003, 32.339999999999996 27.555000000000003, 32.339999999999996 27.660000000000004 C 32.339999999999996 27.660000000000004, 32.339999999999996 27.660000000000004, 32.339999999999996 27.660000000000004 C 32.339999999999996 27.660000000000004, 32.339999999999996 27.555000000000007, 32.339999999999996 27.660000000000004 C 32.339999999999996 27.87, 32.37 27.78, 32.339999999999996 28.08 C 32.28 28.47, 32.265 28.619999999999997, 32.22 28.86 C 32.19 28.95, 32.175000000000004 28.994999999999997, 32.160000000000004 29.04 C 32.160000000000004 29.04, 32.160000000000004 29.04, 32.160000000000004 29.04 L 32.160000000000004 29.04" fill="none" stroke="black" stroke-width="2"></path><path d="M 11.28 43.68 C 11.34 43.47, 10.904999999999998 43.769999999999996, 11.399999999999999 43.26 C 12.329999999999998 42.45, 12.36 42.405, 13.26 41.64 C 14.129999999999999 40.92, 14.28 40.89, 15 40.2 C 15.57 39.540000000000006, 15.36 40.035000000000004, 16.14 38.88 C 17.130000000000003 37.230000000000004, 17.28 37.26, 18.12 35.58 C 18.810000000000002 33.870000000000005, 18.93 33.870000000000005, 19.5 32.160000000000004 C 19.95 30.450000000000003, 20.04 30.315000000000005, 20.4 28.740000000000002 C 20.67 27.3, 20.64 27.21, 20.94 25.86 C 21.270000000000003 24.6, 21.39 24.39, 21.6 23.34 C 21.69 22.5, 21.720000000000002 22.2, 21.78 21.66 C 21.810000000000002 21.42, 21.810000000000002 21.345, 21.84 21.18 C 21.869999999999997 21.09, 21.884999999999998 21.045, 21.9 21 C 21.9 21, 21.9 21.03, 21.9 21 C 21.9 20.939999999999998, 21.9 20.985, 21.9 20.88 C 21.9 20.73, 21.9 20.655, 21.9 20.580000000000002 C 21.9 20.580000000000002, 21.93 20.610000000000003, 21.9 20.580000000000002 C 21.84 20.520000000000003, 21.810000000000002 20.19, 21.78 20.46 C 21.78 21.060000000000002, 21.78 20.745, 21.78 21.66 C 21.78 22.89, 21.78 22.784999999999997, 21.78 24.119999999999997 C 21.78 25.56, 21.78 25.725, 21.78 27 C 21.78 28.11, 21.705000000000002 28.095, 21.78 29.22 C 21.93 30.36, 21.900000000000002 30.36, 22.080000000000002 31.5 C 22.29 32.64, 22.155 32.43, 22.5 33.78 C 22.98 35.34, 23.085 35.685, 23.46 36.900000000000006 C 23.73 37.77, 23.535 37.71, 24 38.64 C 24.66 39.629999999999995, 24.555 39.644999999999996, 25.32 40.62 C 26.189999999999998 41.58, 26.235 41.864999999999995, 27.06 42.54 C 27.839999999999996 42.93, 27.974999999999998 43.019999999999996, 28.619999999999997 43.32 C 29.13 43.53, 29.265 43.575, 29.64 43.74 C 29.88 43.86, 29.97 43.92, 30.119999999999997 43.980000000000004 L 30.240000000000002 43.980000000000004" fill="none" stroke="black" stroke-width="2"></path></svg>