<svg xmlns="http://www.w3.org/2000/svg" viewBox="13.880000114440918 3.0199999809265137 21.55999755859375 43.3999981880188" width="21.55999755859375" height="43.3999981880188"><path d="M 14.879999999999999 30.839999999999996 C 15.6 30.81, 14.73 30.96, 16.32 30.78 C 18.78 30.45, 18.855000000000004 30.494999999999997, 21.240000000000002 30.119999999999997 C 23.55 29.7, 24.09 29.55, 25.86 29.28 C 27.09 29.16, 27.09 29.174999999999997, 28.32 29.04 C 29.55 28.89, 29.94 28.845000000000002, 30.78 28.740000000000002 C 31.23 28.68, 31.155 28.74, 31.68 28.619999999999997 C 32.28 28.439999999999998, 32.385000000000005 28.439999999999998, 32.88 28.259999999999998 C 33.27 28.08, 33.330000000000005 28.155, 33.660000000000004 27.900000000000002 C 33.93000000000001 27.57, 34.005 27.660000000000004, 34.2 27.240000000000002 C 34.32 26.73, 34.44 27.165, 34.44 26.22 C 34.32 24.84, 34.410000000000004 24.990000000000002, 34.2 23.46 C 33.9 21.78, 33.92999999999999 22.095000000000002, 33.599999999999994 20.1 C 33.239999999999995 17.79, 33.285000000000004 17.535, 32.88 15.48 C 32.43 13.68, 32.475 13.709999999999999, 31.98 11.879999999999999 C 31.44 10.02, 31.320000000000004 9.585, 30.900000000000002 8.16 C 30.6 7.17, 30.644999999999996 7.185, 30.299999999999997 6.18 C 29.909999999999997 5.16, 29.715 4.68, 29.52 4.14 C 29.52 4.08, 29.52 4.050000000000001, 29.52 4.0200000000000005 C 29.52 4.0200000000000005, 29.52 4.0200000000000005, 29.52 4.0200000000000005 L 29.52 4.0200000000000005" fill="none" stroke="black" stroke-width="2"></path><path d="M 25.619999999999997 12.36 C 26.25 12.389999999999999, 26.310000000000002 12.404999999999998, 26.880000000000003 12.419999999999998 C 27.39 12.419999999999998, 27.240000000000002 12.464999999999998, 27.900000000000002 12.419999999999998 C 28.71 12.329999999999998, 28.845 12.285, 29.52 12.24 C 30.06 12.24, 30.209999999999997 12.24, 30.599999999999998 12.24 C 30.839999999999996 12.24, 30.854999999999997 12.24, 31.08 12.24 C 31.29 12.24, 31.305 12.24, 31.5 12.24 C 31.68 12.24, 31.695 12.24, 31.86 12.24 L 32.160000000000004 12.24" fill="none" stroke="black" stroke-width="2"></path><path d="M 22.14 30.06 C 22.2 30.299999999999997, 22.214999999999996 30.014999999999997, 22.259999999999998 30.54 C 22.29 31.35, 22.305 31.080000000000005, 22.32 32.160000000000004 C 22.32 33.510000000000005, 22.32 33.345, 22.32 34.86 C 22.32 36.54, 22.32 36.57, 22.32 38.22 C 22.32 39.84, 22.305 40.230000000000004, 22.32 41.46 C 22.35 42.3, 22.335 42.375, 22.38 43.14 C 22.439999999999998 43.83, 22.455 43.949999999999996, 22.5 44.519999999999996 C 22.53 44.97, 22.544999999999998 45.195, 22.56 45.42 C 22.56 45.42, 22.56 45.42, 22.56 45.42 L 22.56 45.42" fill="none" stroke="black" stroke-width="2"></path><path d="M 28.08 29.28 C 27.990000000000002 30.42, 27.93 30.375, 27.900000000000002 31.56 C 27.93 32.79, 27.945 32.714999999999996, 27.96 34.019999999999996 C 27.96 35.4, 27.96 35.535, 27.96 36.78 C 27.96 37.89, 27.96 38.1, 27.96 39 C 27.96 39.69, 27.915 39.660000000000004, 27.96 40.38 C 28.05 41.13, 28.095 41.28, 28.14 41.88 C 28.14 42.33, 28.14 42.33, 28.14 42.78 C 28.14 43.230000000000004, 28.14 43.455, 28.14 43.68 C 28.14 43.68, 28.14 43.68, 28.14 43.68 C 28.14 43.68, 28.14 43.68, 28.14 43.68 C 28.14 43.68, 28.14 43.68, 28.14 43.68 C 28.14 43.68, 28.14 43.635, 28.14 43.68 C 28.14 43.769999999999996, 28.14 43.815, 28.14 43.86 L 28.14 43.86" fill="none" stroke="black" stroke-width="2"></path></svg>