<svg xmlns="http://www.w3.org/2000/svg" viewBox="14.739999771118164 3.7866668701171875 22.19999885559082 40.53333282470703" width="22.19999885559082" height="40.53333282470703"><path d="M 27 12.78 C 27.21 12.78, 27.045 12.78, 27.42 12.78 C 27.96 12.78, 27.795 12.794999999999998, 28.5 12.78 C 29.37 12.75, 29.610000000000003 12.735, 30.240000000000002 12.72 C 30.630000000000003 12.72, 30.509999999999998 12.72, 31.02 12.72 C 31.65 12.72, 31.62 12.72, 32.28 12.72 C 32.97 12.72, 33.075 12.72, 33.660000000000004 12.72 C 34.14 12.72, 34.379999999999995 12.72, 34.62 12.72 C 34.62 12.72, 34.62 12.72, 34.62 12.72 L 34.62 12.72" fill="none" stroke="black" stroke-width="2"></path><path d="M 35.94 4.86 C 35.82 4.86, 35.775000000000006 4.695, 35.7 4.86 C 35.67 5.19, 35.775 4.950000000000001, 35.64 5.5200000000000005 C 35.400000000000006 6.33, 35.325 6.45, 35.160000000000004 7.14 C 35.07000000000001 7.709999999999999, 35.11500000000001 7.679999999999999, 34.980000000000004 8.28 C 34.8 8.91, 34.83 8.670000000000002, 34.62 9.540000000000001 C 34.379999999999995 10.65, 34.335 10.815, 34.14 11.76 C 33.989999999999995 12.54, 33.92999999999999 12.57, 33.839999999999996 13.32 C 33.81 14.04, 33.84 13.77, 33.78 14.76 C 33.69 16.02, 33.644999999999996 16.005000000000003, 33.599999999999994 17.28 C 33.599999999999994 18.57, 33.644999999999996 18.3, 33.599999999999994 19.86 C 33.51 21.689999999999998, 33.465 21.825, 33.42 23.52 C 33.42 25.08, 33.42 25.26, 33.42 26.64 C 33.42 27.84, 33.480000000000004 27.78, 33.42 29.04 C 33.3 30.36, 33.33 30.27, 33.18 31.68 C 33 33.18, 32.955 33.495, 32.82 34.68 C 32.730000000000004 35.55, 32.745 35.565000000000005, 32.64 36.42 C 32.52 37.26, 32.565000000000005 37.30499999999999, 32.400000000000006 38.099999999999994 C 32.190000000000005 38.849999999999994, 32.160000000000004 38.93999999999999, 31.98 39.599999999999994 C 31.83 40.17, 31.86 40.215, 31.68 40.74 C 31.47 41.22, 31.47 41.325, 31.259999999999998 41.7 C 31.049999999999997 41.97, 31.154999999999994 42.015, 30.839999999999996 42.24 C 30.419999999999998 42.42, 30.405 42.51, 30 42.599999999999994 C 29.61 42.599999999999994, 29.61 42.55499999999999, 29.22 42.599999999999994 C 28.83 42.69, 28.785000000000004 42.735, 28.44 42.78 C 28.14 42.78, 28.244999999999997 42.915, 27.839999999999996 42.78 C 27.33 42.510000000000005, 27.27 42.525000000000006, 26.82 42.24 C 26.43 41.94, 26.475 42.18, 26.04 41.64 C 25.56 40.86, 25.424999999999997 41.04, 25.08 40.08 C 24.87 38.94, 24.855000000000004 39.105, 24.660000000000004 37.8 C 24.48 36.33, 24.39 35.94, 24.299999999999997 34.86 C 24.299999999999997 34.17, 24.299999999999997 34.335, 24.299999999999997 33.480000000000004 C 24.299999999999997 32.46, 24.299999999999997 31.980000000000004, 24.299999999999997 31.44 C 24.299999999999997 31.380000000000003, 24.269999999999996 31.395, 24.299999999999997 31.32 C 24.36 31.23, 24.39 31.185000000000002, 24.42 31.14 L 24.42 31.14" fill="none" stroke="black" stroke-width="2"></path><path d="M 33.480000000000004 20.16 C 33.09 20.04, 33.225 20.025, 32.7 19.919999999999998 C 32.040000000000006 19.83, 32.05500000000001 19.785, 31.380000000000003 19.740000000000002 C 30.69 19.740000000000002, 30.945 19.785000000000004, 30 19.740000000000002 C 28.799999999999997 19.65, 28.665 19.605, 27.599999999999998 19.56 C 26.67 19.56, 26.685000000000002 19.56, 25.740000000000002 19.56 C 24.78 19.56, 24.78 19.5, 23.82 19.56 C 22.86 19.68, 22.74 19.47, 21.9 19.799999999999997 C 21.18 20.339999999999996, 21.225 20.189999999999998, 20.46 20.88 C 19.65 21.72, 19.56 21.689999999999998, 18.84 22.56 C 18.21 23.46, 18.12 23.369999999999997, 17.580000000000002 24.36 C 17.130000000000003 25.439999999999998, 17.04 25.35, 16.68 26.52 C 16.41 27.78, 16.32 27.81, 16.14 29.04 C 16.05 30.240000000000002, 16.05 30.165, 15.96 31.44 C 15.870000000000001 32.79, 15.825 32.715, 15.78 34.14 C 15.78 35.64, 15.78 35.79, 15.78 37.14 C 15.78 38.34, 15.69 38.64, 15.78 39.54 C 15.96 40.14, 15.93 40.155, 16.14 40.74 C 16.380000000000003 41.31, 16.395000000000003 41.355000000000004, 16.62 41.88 C 16.83 42.36, 16.875 42.48, 17.04 42.839999999999996 C 17.16 43.08, 17.22 43.2, 17.28 43.32 C 17.28 43.32, 17.28 43.32, 17.28 43.32 L 17.28 43.32" fill="none" stroke="black" stroke-width="2"></path></svg>