<svg xmlns="http://www.w3.org/2000/svg" viewBox="14.24666690826416 2 16.339999198913574 42.53624725341797" width="16.339999198913574" height="42.53624725341797"><path d="M 15.72 5.76 C 15.66 7.56, 15.705000000000002 6.93, 15.600000000000001 9.36 C 15.45 12.42, 15.375 13.095, 15.299999999999999 15.48 C 15.299999999999999 17.189999999999998, 15.299999999999999 17.04, 15.299999999999999 18.9 C 15.299999999999999 20.909999999999997, 15.18 21.255, 15.299999999999999 22.919999999999998 C 15.54 24.24, 15.554999999999998 24.689999999999998, 15.78 25.56 C 15.990000000000002 25.98, 15.975000000000003 26.085, 16.200000000000003 26.400000000000002 C 16.44 26.61, 16.26 26.67, 16.68 26.82 C 17.28 26.91, 16.875 26.925, 17.88 27 C 19.29 27.06, 19.290000000000003 27.18, 20.700000000000003 27.119999999999997 C 22.11 26.939999999999998, 22.11 26.939999999999998, 23.52 26.759999999999998 C 24.93 26.58, 25.334999999999997 26.535000000000004, 26.339999999999996 26.400000000000002 C 26.939999999999998 26.310000000000002, 27.044999999999998 26.31, 27.54 26.22 C 27.93 26.13, 27.990000000000002 26.115, 28.32 26.04 C 28.59 25.98, 28.65 25.995, 28.86 25.92 C 29.01 25.830000000000002, 28.980000000000004 25.950000000000003, 29.160000000000004 25.740000000000002 C 29.37 25.41, 29.475 25.575, 29.58 25.08 C 29.58 24.419999999999998, 29.58 24.93, 29.58 23.759999999999998 C 29.58 22.08, 29.595 22.395, 29.58 20.4 C 29.549999999999997 18.09, 29.61 17.895, 29.52 15.78 C 29.369999999999997 13.86, 29.52 14.399999999999999, 29.22 11.94 C 28.77 8.94, 28.695 8.174999999999999, 28.32 5.9399999999999995 C 28.02 4.47, 27.869999999999997 3.735, 27.72 3 C 27.72 3, 27.72 3, 27.72 3 C 27.72 3, 27.72 3, 27.72 3 L 27.72 3" fill="none" stroke="black" stroke-width="2"></path><path d="M 22.740000000000002 9.120000000000001 C 22.77 9.3, 22.544999999999998 9.33, 22.799999999999997 9.48 C 23.279999999999998 9.600000000000001, 23.279999999999998 9.615000000000002, 23.759999999999998 9.72 C 24.24 9.809999999999999, 24.15 9.854999999999999, 24.72 9.899999999999999 C 25.38 9.899999999999999, 25.365 9.899999999999999, 26.04 9.899999999999999 C 26.73 9.899999999999999, 26.925 9.899999999999999, 27.42 9.899999999999999 C 27.72 9.899999999999999, 27.705 9.899999999999999, 28.02 9.899999999999999 C 28.35 9.899999999999999, 28.515 9.899999999999999, 28.68 9.899999999999999 L 28.68 9.899999999999999" fill="none" stroke="black" stroke-width="2"></path><path d="M 21.18 31.740000000000002 C 20.549999999999997 32.22, 20.354999999999997 32.13, 19.919999999999998 32.7 C 19.68 33.36, 19.305 33.36, 19.44 34.019999999999996 C 19.950000000000003 34.67999999999999, 19.89 34.904999999999994, 20.46 35.339999999999996 C 21.09 35.55, 21.24 35.64, 21.72 35.76 C 22.049999999999997 35.79, 22.049999999999997 36.12, 22.38 35.82 C 22.71 35.19, 22.875 35.385000000000005, 23.04 34.56 C 23.04 33.54, 23.085 33.239999999999995, 23.04 32.519999999999996 C 22.95 32.099999999999994, 23.115 31.994999999999997, 22.86 31.68 C 22.439999999999998 31.47, 22.634999999999998 31.244999999999997, 22.02 31.259999999999998 C 21.21 31.5, 20.955 31.17, 20.4 31.740000000000002 C 20.099999999999998 32.64, 19.859999999999996 32.61, 19.799999999999997 33.54 C 19.979999999999997 34.5, 19.86 34.875, 20.16 35.46 C 20.58 35.67, 20.565 36, 21 35.88 C 21.45 35.43000000000001, 21.659999999999997 35.655, 21.9 34.980000000000004 C 21.93 34.08, 21.945 33.72, 21.96 33.18 C 21.96 33, 22.035 32.925, 21.96 32.82 C 21.810000000000002 32.79, 21.78 32.535, 21.66 32.76 C 21.57 33.239999999999995, 21.525 33.33, 21.48 33.72 C 21.48 34.019999999999996, 21.48 34.17, 21.48 34.32 L 21.48 34.32" fill="none" stroke="black" stroke-width="2"></path><path d="M 15.48 43.44 C 16.17 43.41, 15.614999999999998 43.71, 16.86 43.38 C 18.66 42.75, 19.17 42.525, 20.46 42.12 C 21.240000000000002 41.94, 21.09 41.849999999999994, 22.02 41.76 C 23.1 41.76, 23.25 41.805, 24.18 41.76 C 24.96 41.67, 25.065 41.58, 25.740000000000002 41.58 C 26.310000000000002 41.67, 26.475 41.67, 26.880000000000003 41.76 C 27.12 41.849999999999994, 27.165 41.894999999999996, 27.36 41.94 L 27.660000000000004 41.94" fill="none" stroke="black" stroke-width="2"></path></svg>