<svg xmlns="http://www.w3.org/2000/svg" viewBox="12.619999885559082 2.4800000190734863 19.822978973388672 42.56000089645386" width="19.822978973388672" height="42.56000089645386"><path d="M 13.620000000000001 28.98 C 14.82 28.950000000000003, 14.46 29.085, 16.02 28.92 C 17.939999999999998 28.62, 18.27 28.545, 19.86 28.32 C 21.119999999999997 28.17, 21.255 28.11, 22.38 28.02 C 23.369999999999997 27.990000000000002, 23.669999999999998 27.975, 24.36 27.96 C 24.75 27.96, 24.6 28.005000000000003, 25.14 27.96 C 25.83 27.87, 25.86 27.87, 26.52 27.78 C 27.15 27.689999999999998, 27.18 27.735, 27.78 27.599999999999998 C 28.35 27.42, 28.425000000000004 27.525000000000002, 28.92 27.240000000000002 C 29.34 26.85, 29.4 26.82, 29.759999999999998 26.46 C 30.06 26.13, 30.03 26.235, 30.36 25.799999999999997 C 30.72 25.259999999999998, 30.824999999999996 25.244999999999997, 31.08 24.72 C 31.23 24.21, 31.290000000000003 24.315000000000005, 31.380000000000003 23.700000000000003 C 31.410000000000004 22.98, 31.455000000000002 23.115, 31.44 22.259999999999998 C 31.380000000000003 21.27, 31.485 21.585, 31.32 20.28 C 31.05 18.66, 31.080000000000002 18.675, 30.78 17.04 C 30.45 15.39, 30.449999999999996 15.405000000000001, 30.119999999999997 13.74 C 29.79 12.059999999999999, 29.745 11.669999999999998, 29.46 10.379999999999999 C 29.22 9.48, 29.265 9.54, 28.98 8.58 C 28.65 7.5600000000000005, 28.62 7.335000000000001, 28.32 6.540000000000001 C 28.05 5.970000000000001, 27.975 5.880000000000001, 27.78 5.4 C 27.66 5.01, 27.705 5.025, 27.54 4.62 C 27.33 4.2, 27.224999999999998 4.065, 27.119999999999997 3.7800000000000002 C 27.119999999999997 3.63, 27.119999999999997 3.5549999999999997, 27.119999999999997 3.4799999999999995 C 27.119999999999997 3.4799999999999995, 27.119999999999997 3.4799999999999995, 27.119999999999997 3.4799999999999995 C 27.119999999999997 3.4799999999999995, 27.119999999999997 3.4799999999999995, 27.119999999999997 3.4799999999999995 L 27.119999999999997 3.4799999999999995" fill="none" stroke="black" stroke-width="2"></path><path d="M 22.32 10.02 C 22.59 10.05, 22.395 10.065, 22.86 10.08 C 23.52 10.08, 23.564999999999998 10.08, 24.18 10.08 C 24.75 10.08, 24.735 10.08, 25.32 10.08 C 25.92 10.08, 26.055 10.08, 26.52 10.08 C 26.85 10.08, 26.865 10.08, 27.18 10.08 C 27.48 10.08, 27.555 10.08, 27.78 10.08 C 27.93 10.08, 27.884999999999998 10.08, 28.08 10.08 C 28.32 10.08, 28.29 10.08, 28.56 10.08 C 28.86 10.08, 29.01 10.08, 29.160000000000004 10.08 C 29.160000000000004 10.08, 29.085000000000004 10.08, 29.160000000000004 10.08 C 29.310000000000002 10.08, 29.385 10.08, 29.46 10.08 L 29.46 10.08" fill="none" stroke="black" stroke-width="2"></path><path d="M 21.84 28.02 C 21.84 28.53, 21.81 28.544999999999998, 21.84 29.04 C 21.9 29.52, 21.93 29.43, 21.96 30 C 21.96 30.66, 21.96 30.42, 21.96 31.32 C 21.96 32.459999999999994, 22.065 32.62499999999999, 21.96 33.599999999999994 C 21.75 34.41, 21.75 34.574999999999996, 21.54 35.22 C 21.33 35.7, 21.435000000000002 35.565, 21.12 36.18 C 20.700000000000003 36.93, 20.82 36.78, 20.28 37.68 C 19.62 38.730000000000004, 19.62 38.865, 18.96 39.78 C 18.3 40.56, 18.27 40.66499999999999, 17.64 41.339999999999996 C 17.04 41.91, 17.1 41.910000000000004, 16.44 42.480000000000004 C 15.72 43.05, 15.525 43.23, 15 43.62 C 14.67 43.83, 14.504999999999999 43.935, 14.34 44.04 C 14.34 44.04, 14.34 44.04, 14.34 44.04 L 14.34 44.04" fill="none" stroke="black" stroke-width="2"></path><path d="M 20.28 39.18 C 21.27 39, 21.269999999999996 38.91, 22.259999999999998 38.82 C 23.25 38.82, 23.310000000000002 38.82, 24.240000000000002 38.82 C 25.11 38.82, 25.185000000000002 38.82, 25.98 38.82 C 26.700000000000003 38.82, 26.775000000000002 38.805, 27.42 38.82 C 27.990000000000002 38.85, 28.155 38.865, 28.56 38.88 C 28.799999999999997 38.88, 28.845 38.88, 29.04 38.88 C 29.189999999999998 38.88, 29.264999999999997 38.88, 29.339999999999996 38.88 L 29.339999999999996 38.88" fill="none" stroke="black" stroke-width="2"></path></svg>