<svg xmlns="http://www.w3.org/2000/svg" viewBox="10 4.21999979019165 23.240001678466797 42.500001430511475" width="23.240001678466797" height="42.500001430511475"><path d="M 23.34 12.600000000000001 C 23.64 12.690000000000001, 23.64 12.735, 23.94 12.78 C 24.240000000000002 12.78, 24.15 12.78, 24.54 12.78 C 25.02 12.78, 25.005 12.78, 25.5 12.78 C 26.009999999999998 12.78, 26.1 12.78, 26.52 12.78 C 26.85 12.78, 26.715 12.78, 27.18 12.78 C 27.78 12.78, 27.885 12.78, 28.380000000000003 12.78 C 28.770000000000003 12.78, 28.695000000000004 12.78, 29.160000000000004 12.78 C 29.700000000000003 12.78, 29.745000000000005 12.78, 30.240000000000002 12.78 C 30.69 12.78, 30.765 12.78, 31.14 12.78 C 31.44 12.78, 31.590000000000003 12.78, 31.740000000000002 12.78 C 31.740000000000002 12.78, 31.740000000000002 12.78, 31.740000000000002 12.78 L 31.740000000000002 12.78" fill="none" stroke="black" stroke-width="2"></path><path d="M 32.099999999999994 5.22 C 32.129999999999995 5.459999999999999, 32.13 5.31, 32.160000000000004 5.699999999999999 C 32.19 6.239999999999999, 32.205 6.1949999999999985, 32.22 6.779999999999999 C 32.22 7.41, 32.22 7.500000000000001, 32.22 8.040000000000001 C 32.22 8.49, 32.265 8.475, 32.22 8.94 C 32.129999999999995 9.419999999999998, 32.129999999999995 9.314999999999998, 32.04 9.899999999999999 C 31.95 10.59, 31.905 10.59, 31.86 11.28 C 31.86 11.969999999999999, 31.89 12, 31.86 12.66 C 31.8 13.29, 31.770000000000003 12.899999999999999, 31.740000000000002 13.919999999999998 C 31.740000000000002 15.33, 31.740000000000002 15.435000000000002, 31.740000000000002 16.740000000000002 C 31.740000000000002 17.94, 31.785000000000004 18.03, 31.740000000000002 19.14 C 31.65 20.16, 31.65 20.384999999999998, 31.56 21.18 C 31.47 21.75, 31.470000000000002 21.689999999999998, 31.380000000000003 22.32 C 31.290000000000003 23.01, 31.245000000000005 23.190000000000005, 31.200000000000003 23.700000000000003 C 31.200000000000003 24.03, 31.200000000000003 24.195, 31.200000000000003 24.36 C 31.200000000000003 24.36, 31.245000000000005 24.134999999999998, 31.200000000000003 24.36 C 31.11 24.81, 31.065 24.869999999999997, 31.02 25.259999999999998 C 31.02 25.59, 31.02 25.650000000000002, 31.02 25.92 C 31.02 26.13, 31.02 26.189999999999998, 31.02 26.339999999999996 C 31.02 26.43, 31.02 26.354999999999997, 31.02 26.52 C 31.02 26.759999999999998, 31.02 26.88, 31.02 27 C 31.02 27, 31.02 27, 31.02 27 C 31.02 27, 31.02 27, 31.02 27 C 31.02 27, 31.049999999999997 27.03, 31.02 27 L 30.900000000000002 26.880000000000003" fill="none" stroke="black" stroke-width="2"></path><path d="M 31.44 18.9 C 30.840000000000003 18.9, 31.065 18.9, 30.240000000000002 18.9 C 29.19 18.9, 29.295 18.9, 28.14 18.9 C 26.88 18.9, 26.879999999999995 18.9, 25.619999999999997 18.9 C 24.36 18.9, 24.060000000000002 18.9, 23.1 18.9 C 22.44 18.9, 22.590000000000003 18.9, 21.78 18.9 C 20.82 18.9, 20.805 18.9, 19.86 18.9 C 18.93 18.9, 19.095 18.9, 18 18.9 C 16.740000000000002 18.9, 16.5 18.869999999999997, 15.48 18.9 C 14.7 18.96, 14.714999999999998 18.795, 13.919999999999998 19.02 C 13.11 19.409999999999997, 12.974999999999998 19.214999999999996, 12.299999999999999 19.799999999999997 C 11.76 20.58, 11.535 20.549999999999997, 11.22 21.36 C 11.13 22.2, 11.085 22.11, 11.040000000000001 23.04 C 11.040000000000001 24.06, 10.950000000000001 24.134999999999998, 11.040000000000001 25.08 C 11.219999999999999 25.95, 11.129999999999999 26.009999999999998, 11.399999999999999 26.82 C 11.76 27.57, 11.940000000000001 27.945, 12.120000000000001 28.32 C 12.120000000000001 28.32, 12.120000000000001 28.32, 12.120000000000001 28.32 L 12.120000000000001 28.32" fill="none" stroke="black" stroke-width="2"></path><path d="M 20.64 19.44 C 20.55 20.91, 20.505000000000003 21, 20.46 22.38 C 20.46 23.67, 20.4 23.805, 20.46 24.96 C 20.580000000000002 25.98, 20.340000000000003 25.740000000000002, 20.700000000000003 27 C 21.3 28.5, 21.314999999999998 28.83, 21.9 30 C 22.47 30.84, 22.259999999999998 30.84, 23.04 31.68 C 24.03 32.519999999999996, 24.21 32.79, 25.02 33.36 C 25.65 33.66, 25.41 33.51, 26.28 33.96 C 27.39 34.56, 27.825 34.800000000000004, 28.5 35.160000000000004 C 28.740000000000002 35.28, 28.740000000000002 35.220000000000006, 28.98 35.400000000000006 C 29.22 35.64, 29.310000000000002 35.595000000000006, 29.46 35.88 C 29.52 36.21, 29.549999999999997 36.18, 29.58 36.54 C 29.58 36.93, 29.58 37.019999999999996, 29.58 37.32 C 29.58 37.53, 29.714999999999996 37.545, 29.58 37.74 C 29.31 37.92, 29.58 37.964999999999996, 29.04 38.099999999999994 C 28.23 38.19, 28.245 38.235, 27.42 38.28 C 26.580000000000002 38.28, 26.880000000000003 38.295, 25.740000000000002 38.28 C 24.3 38.25, 24.21 38.22, 22.86 38.22 C 21.6 38.25, 21.465 38.1, 20.34 38.28 C 19.35 38.61, 19.23 38.55, 18.36 38.94 C 17.61 39.39, 17.58 39.254999999999995, 16.86 39.839999999999996 C 16.17 40.56, 15.99 40.47, 15.48 41.28 C 15.15 42.18, 14.985 42.239999999999995, 14.82 43.08 C 14.82 43.86, 14.82 44.025, 14.82 44.64 C 14.82 45.09, 14.82 45.269999999999996, 14.82 45.54 C 14.82 45.629999999999995, 14.82 45.675, 14.82 45.72 C 14.82 45.72, 14.82 45.72, 14.82 45.72 L 14.82 45.72" fill="none" stroke="black" stroke-width="2"></path></svg>