<svg xmlns="http://www.w3.org/2000/svg" viewBox="15.739999771118164 3.320000171661377 22.280000686645508 41.42000150680542" width="22.280000686645508" height="41.42000150680542"><path d="M 27.54 11.94 C 27.9 11.94, 27.764999999999997 11.94, 28.259999999999998 11.94 C 28.89 11.94, 28.905 11.94, 29.52 11.94 C 30.119999999999997 11.94, 30.015 12.03, 30.72 11.94 C 31.529999999999998 11.76, 31.709999999999994 11.67, 32.339999999999996 11.58 C 32.79 11.58, 32.865 11.58, 33.24 11.58 C 33.54 11.58, 33.54 11.58, 33.839999999999996 11.58 C 34.14 11.58, 34.199999999999996 11.58, 34.44 11.58 C 34.62 11.58, 34.67999999999999 11.58, 34.8 11.58 C 34.86 11.58, 34.845 11.58, 34.92 11.58 C 35.01 11.58, 35.05499999999999 11.58, 35.099999999999994 11.58 L 35.099999999999994 11.58" fill="none" stroke="black" stroke-width="2"></path><path d="M 37.019999999999996 4.32 C 36.87 4.83, 36.885 4.425, 36.72 5.34 C 36.54 6.66, 36.54 6.93, 36.36 7.98 C 36.18 8.760000000000002, 36.105000000000004 8.670000000000002, 36 9.540000000000001 C 35.97 10.5, 36.03 10.514999999999999, 35.94 11.459999999999999 C 35.79 12.39, 35.76 12.18, 35.64 13.32 C 35.55 14.67, 35.55 14.79, 35.46 16.02 C 35.370000000000005 17.130000000000003, 35.370000000000005 17.130000000000003, 35.28 18.240000000000002 C 35.19 19.35, 35.175 19.455000000000002, 35.099999999999994 20.46 C 35.04 21.36, 35.010000000000005 21.389999999999997, 34.980000000000004 22.259999999999998 C 34.980000000000004 23.1, 35.025000000000006 23.25, 34.980000000000004 23.94 C 34.89 24.48, 34.845 24.6, 34.8 25.02 C 34.8 25.32, 34.8 25.379999999999995, 34.8 25.619999999999997 C 34.8 25.799999999999997, 34.845 25.875, 34.8 25.98 L 34.62 26.04" fill="none" stroke="black" stroke-width="2"></path><path d="M 34.74 18.06 C 33.72 17.82, 33.915000000000006 17.790000000000003, 32.7 17.580000000000002 C 31.290000000000003 17.4, 31.335 17.369999999999997, 29.880000000000003 17.22 C 28.380000000000003 17.1, 27.990000000000002 17.04, 26.880000000000003 16.98 C 26.160000000000004 16.98, 26.145000000000003 16.98, 25.44 16.98 C 24.75 16.98, 24.66 16.98, 24.06 16.98 C 23.549999999999997 16.98, 23.685 16.95, 23.04 16.98 C 22.259999999999998 17.04, 22.11 16.98, 21.48 17.1 C 21 17.28, 21.045 17.235, 20.52 17.46 C 19.95 17.73, 19.965 17.564999999999998, 19.38 18 C 18.78 18.6, 18.705 18.510000000000005, 18.18 19.200000000000003 C 17.73 19.98, 17.565 20.025, 17.28 20.759999999999998 C 17.16 21.45, 17.1 21.645, 17.04 22.14 C 17.04 22.44, 17.04 22.395000000000003, 17.04 22.740000000000002 C 17.04 23.130000000000003, 17.04 23.325, 17.04 23.52 C 17.04 23.52, 17.025 23.28, 17.04 23.52 C 17.07 24, 17.085 24.240000000000002, 17.1 24.48 C 17.1 24.48, 17.1 24.48, 17.1 24.48 L 17.1 24.48" fill="none" stroke="black" stroke-width="2"></path><path d="M 25.619999999999997 17.1 C 25.68 17.1, 25.635 16.845000000000002, 25.740000000000002 17.1 C 25.89 17.61, 25.994999999999997 17.400000000000002, 26.04 18.12 C 25.98 19.05, 26.160000000000004 18.6, 25.92 19.98 C 25.5 21.810000000000002, 25.47 22.155, 25.08 23.64 C 24.72 24.78, 24.689999999999998 24.870000000000005, 24.36 25.92 C 24.06 26.88, 24.104999999999997 26.939999999999998, 23.759999999999998 27.839999999999996 C 23.369999999999997 28.68, 23.43 28.845, 22.98 29.52 C 22.47 30.03, 22.695 29.835, 21.96 30.54 C 21 31.439999999999998, 20.85 31.634999999999998, 20.04 32.339999999999996 C 19.38 32.849999999999994, 19.305 32.97, 18.72 33.36 C 18.21 33.63, 18.150000000000002 33.705000000000005, 17.700000000000003 33.900000000000006 C 17.310000000000002 34.02, 17.159999999999997 34.08, 16.919999999999998 34.14 L 16.740000000000002 34.14" fill="none" stroke="black" stroke-width="2"></path><path d="M 29.58 31.86 C 29.7 32.16, 30.119999999999997 31.68, 29.82 32.46 C 29.1 33.72, 29.355000000000004 33.63, 28.380000000000003 34.980000000000004 C 27.150000000000002 36.42, 26.85 36.81, 25.92 37.86 C 25.290000000000003 38.519999999999996, 25.395000000000003 38.49, 24.660000000000004 39.18 C 23.82 39.9, 23.865000000000002 39.94499999999999, 22.98 40.62 C 22.05 41.25, 22.155 41.295, 21.12 41.88 C 19.98 42.42, 19.86 42.54, 18.84 42.96 C 17.939999999999998 43.260000000000005, 17.52 43.38, 17.04 43.56 C 16.979999999999997 43.620000000000005, 16.994999999999997 43.635, 16.919999999999998 43.68 L 16.740000000000002 43.74" fill="none" stroke="black" stroke-width="2"></path></svg>