<svg xmlns="http://www.w3.org/2000/svg" viewBox="14.779999732971191 2.180000066757202 20.173335075378418 41.41999816894531" width="20.173335075378418" height="41.41999816894531"><path d="M 24.900000000000002 10.74 C 25.47 10.74, 25.29 10.74, 26.04 10.74 C 26.97 10.74, 27.12 10.74, 27.900000000000002 10.74 C 28.53 10.74, 28.530000000000005 10.785, 29.160000000000004 10.74 C 29.790000000000003 10.65, 29.910000000000004 10.605, 30.42 10.56 C 30.810000000000002 10.56, 30.810000000000002 10.56, 31.200000000000003 10.56 C 31.590000000000003 10.56, 31.71 10.56, 31.98 10.56 C 32.13 10.56, 32.160000000000004 10.56, 32.28 10.56 L 32.46 10.56" fill="none" stroke="black" stroke-width="2"></path><path d="M 33.18 3.18 C 33.18 3.5700000000000003, 33.18 3.2399999999999998, 33.18 3.96 C 33.18 5.01, 33.18 4.800000000000001, 33.18 6.0600000000000005 C 33.18 7.53, 33.18 7.800000000000001, 33.18 9 C 33.18 9.93, 33.225 9.885, 33.18 10.86 C 33.09 11.879999999999999, 33.045 11.895, 33 12.899999999999999 C 33 13.889999999999999, 33 13.814999999999998, 33 14.879999999999999 C 33 16.02, 33 16.155, 33 17.16 C 33 18.03, 33.045 18.014999999999997, 33 18.9 C 32.91 19.8, 32.925 19.935000000000002, 32.82 20.700000000000003 C 32.7 21.330000000000002, 32.655 21.330000000000002, 32.58 21.96 C 32.55 22.59, 32.654999999999994 22.515, 32.519999999999996 23.22 C 32.28 24, 32.309999999999995 24.015, 32.04 24.78 C 31.740000000000002 25.53, 31.740000000000002 25.575000000000003, 31.44 26.28 C 31.14 26.939999999999998, 31.259999999999998 26.849999999999998, 30.839999999999996 27.599999999999998 C 30.299999999999997 28.439999999999998, 30.269999999999996 28.605, 29.759999999999998 29.28 C 29.279999999999998 29.79, 29.4 29.759999999999998, 28.799999999999997 30.299999999999997 C 28.08 30.869999999999997, 28.049999999999997 30.93, 27.36 31.44 C 26.7 31.89, 26.46 32.084999999999994, 26.04 32.339999999999996 C 25.86 32.4, 25.8 32.415, 25.68 32.46 C 25.619999999999997 32.489999999999995, 25.59 32.504999999999995, 25.56 32.519999999999996 C 25.56 32.519999999999996, 25.56 32.519999999999996, 25.56 32.519999999999996 C 25.56 32.519999999999996, 25.365 32.55, 25.56 32.519999999999996 C 25.949999999999996 32.46, 25.544999999999995 32.47500000000001, 26.339999999999996 32.400000000000006 C 27.54 32.31, 27.855 32.25, 28.740000000000002 32.22 C 29.310000000000002 32.25, 29.265 32.13, 29.880000000000003 32.28 C 30.540000000000003 32.55, 30.615000000000002 32.55, 31.200000000000003 32.82 C 31.71 33.09, 31.71 32.925, 32.22 33.36 C 32.730000000000004 33.96, 32.835 33.99, 33.24 34.56 C 33.54 35.1, 33.675 35.1, 33.839999999999996 35.64 C 33.870000000000005 36.18, 33.885000000000005 36.18, 33.900000000000006 36.72 C 33.900000000000006 37.26, 34.02000000000001 37.245, 33.900000000000006 37.8 C 33.660000000000004 38.37, 33.72 38.4, 33.42 38.94 C 33.06 39.45, 33.09 39.495000000000005, 32.7 39.96 C 32.28 40.379999999999995, 32.445 40.379999999999995, 31.86 40.8 C 31.11 41.22, 31.32 41.25, 30.36 41.64 C 29.189999999999998 42, 29.025 42.120000000000005, 28.02 42.36 C 27.18 42.48, 27.104999999999997 42.53999999999999, 26.339999999999996 42.599999999999994 C 25.65 42.599999999999994, 25.605 42.599999999999994, 24.96 42.599999999999994 C 24.36 42.599999999999994, 24.18 42.599999999999994, 23.759999999999998 42.599999999999994 C 23.52 42.599999999999994, 23.4 42.599999999999994, 23.28 42.599999999999994 L 23.28 42.599999999999994" fill="none" stroke="black" stroke-width="2"></path><path d="M 33.06 15.96 C 32.46 15.96, 32.519999999999996 15.945, 31.86 15.96 C 31.14 15.99, 31.200000000000003 15.959999999999999, 30.42 16.02 C 29.580000000000002 16.11, 29.760000000000005 16.110000000000003, 28.740000000000002 16.200000000000003 C 27.54 16.29, 27.299999999999997 16.335, 26.339999999999996 16.38 C 25.619999999999997 16.38, 25.8 16.365, 24.900000000000002 16.38 C 23.82 16.41, 23.76 16.35, 22.740000000000002 16.44 C 21.78 16.590000000000003, 21.525000000000002 16.665000000000003, 20.82 16.740000000000002 C 20.369999999999997 16.740000000000002, 20.505 16.740000000000002, 19.919999999999998 16.740000000000002 C 19.2 16.740000000000002, 19.245 16.740000000000002, 18.48 16.740000000000002 C 17.67 16.740000000000002, 17.384999999999998 16.740000000000002, 16.86 16.740000000000002 C 16.619999999999997 16.740000000000002, 16.575 16.740000000000002, 16.38 16.740000000000002 C 16.23 16.740000000000002, 16.23 16.740000000000002, 16.080000000000002 16.740000000000002 L 15.78 16.740000000000002" fill="none" stroke="black" stroke-width="2"></path></svg>