<svg xmlns="http://www.w3.org/2000/svg" viewBox="13.34000015258789 4.400000095367432 21.459999084472656 42.739999294281006" width="21.459999084472656" height="42.739999294281006"><path d="M 24.48 13.32 C 24.72 13.32, 24.645 13.305, 24.96 13.32 C 25.35 13.35, 25.275000000000002 13.349999999999998, 25.740000000000002 13.379999999999999 C 26.28 13.41, 26.235 13.365000000000002, 26.82 13.440000000000001 C 27.45 13.56, 27.525 13.605, 28.08 13.68 C 28.56 13.71, 28.455 13.65, 29.04 13.74 C 29.73 13.89, 29.835 13.965, 30.42 14.04 C 30.900000000000002 14.04, 30.990000000000002 14.009999999999998, 31.380000000000003 14.04 C 31.68 14.1, 31.755000000000003 14.129999999999999, 31.98 14.16 C 32.13 14.16, 32.160000000000004 14.16, 32.28 14.16 C 32.370000000000005 14.16, 32.415 14.16, 32.46 14.16 C 32.46 14.16, 32.46 14.16, 32.46 14.16 L 32.46 14.16" fill="none" stroke="black" stroke-width="2"></path><path d="M 32.400000000000006 5.4 C 32.22 6.24, 32.175 5.82, 32.04 7.08 C 31.95 8.76, 31.905 8.924999999999999, 31.86 10.44 C 31.86 11.79, 31.905 11.91, 31.86 13.14 C 31.77 14.25, 31.725 14.19, 31.68 15.36 C 31.68 16.59, 31.68 16.62, 31.68 17.82 C 31.68 18.990000000000002, 31.619999999999997 19.035, 31.68 20.16 C 31.8 21.240000000000002, 31.86 21.51, 31.92 22.32 C 31.92 22.86, 31.86 22.799999999999997, 31.92 23.4 C 32.040000000000006 24.06, 32.07000000000001 24.284999999999997, 32.160000000000004 24.72 C 32.22 24.93, 32.235 24.810000000000002, 32.28 25.14 C 32.31 25.59, 32.324999999999996 25.740000000000002, 32.339999999999996 26.04 L 32.339999999999996 26.339999999999996" fill="none" stroke="black" stroke-width="2"></path><path d="M 32.339999999999996 19.02 C 32.01 18.9, 32.205 18.885, 31.68 18.78 C 30.96 18.69, 31.215000000000003 18.69, 30.240000000000002 18.6 C 29.01 18.509999999999998, 28.770000000000003 18.465, 27.78 18.419999999999998 C 27.03 18.419999999999998, 27.150000000000002 18.464999999999996, 26.28 18.419999999999998 C 25.29 18.33, 25.334999999999997 18.285, 24.299999999999997 18.240000000000002 C 23.22 18.240000000000002, 23.1 18.240000000000002, 22.14 18.240000000000002 C 21.3 18.240000000000002, 21.18 18.165000000000003, 20.46 18.240000000000002 C 19.86 18.39, 19.724999999999998 18.39, 19.259999999999998 18.54 C 18.93 18.689999999999998, 19.05 18.509999999999998, 18.6 18.84 C 18.03 19.35, 18.045 19.29, 17.46 19.86 C 16.86 20.490000000000002, 16.68 20.475, 16.259999999999998 21.12 C 16.02 21.78, 15.959999999999999 21.765, 15.78 22.44 C 15.66 23.130000000000003, 15.6 23.07, 15.54 23.82 C 15.54 24.630000000000003, 15.524999999999999 24.825000000000003, 15.54 25.44 C 15.57 25.86, 15.48 25.830000000000002, 15.600000000000001 26.28 C 15.81 26.76, 15.915 27, 16.02 27.240000000000002 C 16.02 27.240000000000002, 15.974999999999998 27.180000000000003, 16.02 27.240000000000002 L 16.200000000000003 27.48" fill="none" stroke="black" stroke-width="2"></path><path d="M 23.759999999999998 18.36 C 23.67 19.68, 23.625 19.905, 23.580000000000002 21 C 23.580000000000002 21.87, 23.55 21.675000000000004, 23.580000000000002 22.740000000000002 C 23.64 24, 23.520000000000003 24.089999999999996, 23.700000000000003 25.259999999999998 C 24 26.34, 23.744999999999997 26.160000000000004, 24.299999999999997 27.42 C 25.11 28.86, 25.02 29.099999999999998, 25.92 30.299999999999997 C 26.910000000000004 31.259999999999998, 27.045 31.544999999999998, 27.900000000000002 32.22 C 28.619999999999997 32.61, 28.544999999999998 32.58, 29.339999999999996 33 C 30.209999999999997 33.45, 30.33 33.510000000000005, 31.08 33.900000000000006 C 31.709999999999997 34.230000000000004, 31.844999999999995 34.275000000000006, 32.339999999999996 34.56 C 32.7 34.8, 32.760000000000005 34.8, 33.06 35.04 C 33.3 35.28, 33.36 35.26499999999999, 33.54 35.519999999999996 C 33.66 35.79, 33.72 35.85, 33.78 36.06 C 33.78 36.21, 33.825 36.135, 33.78 36.36 C 33.69 36.66, 33.76499999999999 36.765, 33.599999999999994 36.96 C 33.36 37.05, 33.48 37.05, 33.12 37.14 C 32.64 37.230000000000004, 32.865 37.230000000000004, 32.160000000000004 37.32 C 31.23 37.41, 31.365 37.455, 30.299999999999997 37.5 C 29.1 37.5, 29.175 37.41, 27.900000000000002 37.5 C 26.550000000000004 37.68, 26.370000000000005 37.62, 25.200000000000003 37.86 C 24.21 38.16, 24.165 38.04, 23.22 38.46 C 22.32 39, 22.169999999999998 38.94, 21.419999999999998 39.54 C 20.82 40.2, 20.775 40.035, 20.22 40.86 C 19.71 41.849999999999994, 19.590000000000003 41.78999999999999, 19.200000000000003 42.839999999999996 C 18.93 43.95, 18.825000000000003 44.235, 18.66 45.06 C 18.6 45.6, 18.57 45.870000000000005, 18.54 46.14 C 18.54 46.14, 18.54 46.14, 18.54 46.14 L 18.54 46.14" fill="none" stroke="black" stroke-width="2"></path><path d="M 14.34 34.56 C 14.76 34.53, 14.579999999999998 34.47, 15.18 34.5 C 15.96 34.59, 15.855000000000002 34.394999999999996, 16.740000000000002 34.68 C 17.73 35.16, 17.865 35.13, 18.72 35.64 C 19.439999999999998 36.18, 19.545 36.239999999999995, 20.16 36.72 C 20.67 37.14, 20.669999999999998 37.005, 21.18 37.56 C 21.69 38.25, 21.900000000000002 38.519999999999996, 22.200000000000003 38.94 C 22.29 39.09, 22.335 39.165, 22.38 39.24 L 22.38 39.24" fill="none" stroke="black" stroke-width="2"></path></svg>