<svg xmlns="http://www.w3.org/2000/svg" viewBox="8.720000267028809 2.9600000381469727 20.679999351501465 40.70000076293945" width="20.679999351501465" height="40.70000076293945"><path d="M 10.14 3.96 C 10.05 5.699999999999999, 10.065 5.145, 9.959999999999999 7.4399999999999995 C 9.84 10.29, 9.765 10.620000000000001, 9.72 13.14 C 9.75 15.33, 9.674999999999999 15.165, 9.78 17.52 C 9.96 20.04, 9.945 20.325, 10.14 22.56 C 10.350000000000001 24.509999999999998, 10.41 24.645, 10.56 26.46 C 10.65 28.14, 10.695 28.02, 10.74 29.82 C 10.74 31.740000000000002, 10.695 32.220000000000006, 10.74 33.660000000000004 C 10.83 34.620000000000005, 10.83 34.71, 10.92 35.58 C 11.010000000000002 36.36, 10.905000000000001 36.3, 11.100000000000001 37.14 C 11.4 38.04, 11.43 38.144999999999996, 11.7 38.94 C 11.94 39.629999999999995, 11.954999999999998 39.795, 12.18 40.32 C 12.39 40.68, 12.195000000000002 40.635, 12.600000000000001 41.04 C 13.2 41.489999999999995, 13.334999999999999 41.61, 13.799999999999999 41.94 C 14.129999999999999 42.15, 14.025 42.195, 14.46 42.36 C 15 42.48, 14.969999999999999 42.53999999999999, 15.54 42.599999999999994 C 16.14 42.599999999999994, 16.065 42.73499999999999, 16.740000000000002 42.599999999999994 C 17.490000000000002 42.33, 17.655 42.315, 18.240000000000002 42.06 C 18.660000000000004 41.82, 18.660000000000004 42.03, 19.080000000000002 41.58 C 19.5 40.92, 19.529999999999998 40.949999999999996, 19.919999999999998 40.26 C 20.28 39.54, 20.37 39.435, 20.64 38.82 C 20.82 38.31, 20.91 38.235, 21 37.8 C 21 37.44, 21 37.605, 21 37.08 C 21 36.39, 21 36.21, 21 35.7 C 21 35.370000000000005, 21.225 35.4, 21 35.04 C 20.55 34.65, 20.67 34.589999999999996, 20.1 34.26 C 19.41 33.989999999999995, 19.335 33.945, 18.72 33.72 C 18.18 33.54, 18.195 33.51, 17.64 33.36 C 17.07 33.239999999999995, 17.009999999999998 33.18, 16.5 33.12 C 16.05 33.12, 16.065 33.12, 15.600000000000001 33.12 C 15.120000000000001 33.12, 15.105 33.105, 14.64 33.12 C 14.190000000000001 33.15, 14.16 33.105, 13.74 33.18 C 13.350000000000001 33.3, 13.290000000000001 33.3, 12.96 33.42 C 12.69 33.540000000000006, 12.674999999999999 33.525000000000006, 12.419999999999998 33.660000000000004 C 12.18 33.81, 12.225 33.795, 11.94 33.96 C 11.61 34.14, 11.535 34.14, 11.28 34.32 C 11.1 34.5, 11.04 34.56, 10.92 34.68 C 10.86 34.739999999999995, 10.83 34.769999999999996, 10.8 34.8 C 10.8 34.8, 10.845 34.754999999999995, 10.8 34.8 L 10.620000000000001 34.980000000000004" fill="none" stroke="black" stroke-width="2"></path><path d="M 10.5 26.099999999999998 C 10.8 26.159999999999997, 10.71 26.189999999999998, 11.100000000000001 26.22 C 11.58 26.22, 11.174999999999999 26.22, 12.059999999999999 26.22 C 13.35 26.22, 13.26 26.235, 14.64 26.22 C 16.11 26.19, 16.005000000000003 26.220000000000002, 17.580000000000002 26.160000000000004 C 19.26 26.07, 19.695 26.025000000000002, 20.94 25.98 C 21.75 25.98, 21.93 25.98, 22.56 25.98 C 23.009999999999998 25.98, 23.04 26.025000000000002, 23.46 25.98 C 23.85 25.89, 23.805 25.919999999999998, 24.240000000000002 25.799999999999997 C 24.720000000000002 25.65, 24.765000000000004 25.619999999999997, 25.200000000000003 25.5 C 25.590000000000003 25.41, 25.62 25.425, 25.98 25.32 C 26.310000000000002 25.2, 26.310000000000002 25.229999999999997, 26.64 25.08 C 26.97 24.9, 26.97 24.915, 27.299999999999997 24.72 C 27.63 24.509999999999998, 27.72 24.569999999999997, 27.96 24.299999999999997 C 28.11 23.97, 28.154999999999998 24.134999999999998, 28.259999999999998 23.64 C 28.32 22.98, 28.35 23.25, 28.380000000000003 22.32 C 28.380000000000003 21.119999999999997, 28.425000000000004 20.939999999999998, 28.380000000000003 19.919999999999998 C 28.290000000000003 19.08, 28.290000000000003 18.87, 28.200000000000003 18.240000000000002 C 28.11 17.82, 28.08 17.655, 28.02 17.4 C 27.990000000000002 17.31, 28.005000000000003 17.34, 27.96 17.22 C 27.9 17.07, 27.9 17.069999999999997, 27.839999999999996 16.919999999999998 C 27.779999999999998 16.77, 27.75 16.695, 27.72 16.62 C 27.72 16.62, 27.72 16.62, 27.72 16.62 L 27.72 16.62" fill="none" stroke="black" stroke-width="2"></path><path d="M 22.56 20.82 C 23.549999999999997 20.79, 23.759999999999998 20.775, 24.54 20.759999999999998 C 25.11 20.759999999999998, 25.125 20.775, 25.68 20.759999999999998 C 26.22 20.73, 26.339999999999996 20.730000000000004, 26.759999999999998 20.700000000000003 C 27.06 20.67, 27.09 20.655, 27.36 20.64 C 27.599999999999998 20.64, 27.614999999999995 20.64, 27.839999999999996 20.64 C 28.049999999999997 20.64, 28.154999999999998 20.64, 28.259999999999998 20.64 C 28.259999999999998 20.64, 28.259999999999998 20.64, 28.259999999999998 20.64 L 28.259999999999998 20.64" fill="none" stroke="black" stroke-width="2"></path></svg>