<svg xmlns="http://www.w3.org/2000/svg" viewBox="11.989726066589355 2.7151052951812744 16.030274391174316 42.8048951625824" width="16.030274391174316" height="42.8048951625824"><path d="M 14.34 4.199999999999999 C 14.129999999999999 6.329999999999999, 14.129999999999999 6.284999999999999, 13.919999999999998 8.459999999999999 C 13.709999999999999 10.68, 13.725 10.304999999999998, 13.5 12.899999999999999 C 13.26 15.87, 13.125 15.93, 13.02 18.84 C 13.05 21.689999999999998, 12.900000000000002 22.605, 13.080000000000002 24.54 C 13.41 25.56, 13.365 25.875, 13.74 26.58 C 14.16 26.97, 14.085 27.075, 14.580000000000002 27.36 C 15.150000000000002 27.54, 15.285 27.674999999999997, 15.72 27.72 C 16.02 27.63, 15.795 28.2, 16.32 27.54 C 17.07 26.31, 17.145 26.25, 17.82 25.08 C 18.42 23.97, 18.509999999999998 24.09, 19.02 22.86 C 19.439999999999998 21.509999999999998, 19.65 20.91, 19.86 20.16 C 19.86 20.009999999999998, 19.86 19.95, 19.86 19.86 C 19.86 19.83, 19.814999999999998 19.574999999999996, 19.86 19.799999999999997 C 19.95 20.279999999999998, 19.95 19.934999999999995, 20.04 20.759999999999998 C 20.13 21.93, 19.994999999999997 22.005000000000003, 20.22 23.1 C 20.58 24.12, 20.265 24.345, 20.94 25.14 C 21.93 25.71, 22.005 25.92, 22.919999999999998 26.28 C 23.759999999999998 26.43, 24.06 26.505, 24.599999999999998 26.58 C 24.839999999999996 26.58, 24.929999999999996 26.58, 25.08 26.58 C 25.14 26.58, 25.020000000000003 26.7, 25.200000000000003 26.58 C 25.5 26.339999999999996, 25.529999999999998 26.549999999999997, 25.799999999999997 26.099999999999998 C 26.04 25.439999999999998, 26.07 25.515, 26.28 24.78 C 26.46 23.97, 26.505000000000003 24.33, 26.64 23.16 C 26.73 21.630000000000003, 26.73 21.75, 26.82 20.1 C 26.91 18.33, 26.955 18.345, 27 16.56 C 27 14.76, 27 14.505, 27 12.96 C 27 11.67, 27 11.774999999999999, 27 10.379999999999999 C 27 8.879999999999999, 27.045 8.684999999999999, 27 7.38 C 26.91 6.27, 26.91 6.045, 26.82 5.16 C 26.73 4.5, 26.685000000000002 4.17, 26.64 3.84 C 26.64 3.84, 26.64 3.84, 26.64 3.84 C 26.64 3.84, 26.64 3.84, 26.64 3.84 L 26.64 3.84" fill="none" stroke="black" stroke-width="2"></path><path d="M 15.059999999999999 13.799999999999999 C 15.989999999999998 12.87, 16.275 12.825, 16.919999999999998 11.94 C 17.28 11.1, 17.115000000000002 11.475, 17.64 10.26 C 18.33 8.67, 18.42 8.46, 19.02 7.08 C 19.53 5.91, 19.71 5.5200000000000005, 20.04 4.74 C 20.189999999999998 4.35, 20.265 4.155, 20.34 3.96 C 20.34 3.96, 20.325 3.9749999999999996, 20.34 3.96 C 20.369999999999997 3.93, 20.25 3.4650000000000007, 20.4 3.9000000000000004 C 20.67 4.8, 20.67 4.409999999999999, 20.94 5.699999999999999 C 21.21 7.38, 21.075000000000003 7.665000000000001, 21.48 9.06 C 22.02 10.17, 21.93 10.245, 22.56 11.28 C 23.28 12.24, 23.355 12.405000000000001, 24 13.200000000000001 C 24.57 13.830000000000002, 24.825000000000003 14.100000000000001, 25.14 14.46 C 25.2 14.55, 25.185 14.58, 25.259999999999998 14.64 C 25.35 14.670000000000002, 25.395 14.685, 25.44 14.700000000000001 L 25.44 14.700000000000001" fill="none" stroke="black" stroke-width="2"></path><path d="M 16.14 27.36 C 16.17 28.53, 16.185000000000002 28.185000000000002, 16.200000000000003 29.700000000000003 C 16.200000000000003 31.560000000000002, 16.275000000000006 30.975, 16.200000000000003 33.42 C 16.05 36.45, 16.02 37.080000000000005, 15.899999999999999 39.480000000000004 C 15.809999999999999 41.25, 15.765 41.834999999999994, 15.72 43.019999999999996 C 15.72 43.62, 15.72 43.845, 15.72 44.22 C 15.72 44.37, 15.72 44.44499999999999, 15.72 44.519999999999996 L 15.72 44.519999999999996" fill="none" stroke="black" stroke-width="2"></path><path d="M 23.64 25.56 C 23.64 26.04, 23.685000000000002 25.71, 23.64 26.52 C 23.55 27.659999999999997, 23.505000000000003 27.615, 23.46 28.799999999999997 C 23.46 30.029999999999998, 23.46 29.909999999999997, 23.46 31.259999999999998 C 23.46 32.730000000000004, 23.46 33, 23.46 34.2 C 23.46 35.13, 23.46 35.235, 23.46 36.06 C 23.46 36.78, 23.46 36.66, 23.46 37.5 C 23.46 38.46, 23.46 38.64, 23.46 39.42 C 23.46 40.019999999999996, 23.46 40.095, 23.46 40.62 C 23.46 41.06999999999999, 23.46 41.175, 23.46 41.519999999999996 C 23.46 41.76, 23.46 41.565, 23.46 42 C 23.46 42.629999999999995, 23.46 42.945, 23.46 43.26 C 23.46 43.26, 23.46 43.26, 23.46 43.26 L 23.46 43.26" fill="none" stroke="black" stroke-width="2"></path></svg>