<svg xmlns="http://www.w3.org/2000/svg" viewBox="4.425418853759766 5.960000038146973 25.794580459594727 35.29999923706055" width="25.794580459594727" height="35.29999923706055"><path d="M 10.74 6.959999999999999 C 10.08 9.989999999999998, 10.14 9.299999999999999, 9.42 13.02 C 8.64 17.43, 8.535 18.075, 7.86 21.84 C 7.290000000000001 24.96, 7.275 24.974999999999998, 6.720000000000001 28.08 C 6.18 31.169999999999998, 5.955 31.875, 5.64 34.26 C 5.55 35.94, 5.475 36.315, 5.46 37.62 C 5.52 38.55, 5.28 38.82000000000001, 5.58 39.480000000000004 C 6.12 39.870000000000005, 5.91 40.11, 6.66 40.26 C 7.62 40.17, 7.8149999999999995 40.26, 8.58 40.08 C 9.15 39.81, 8.790000000000001 40.515, 9.72 39.54 C 11.01 37.86, 11.594999999999999 37.425, 12.299999999999999 36.18 C 12.419999999999998 35.370000000000005, 12.479999999999999 35.010000000000005, 12.54 34.56 C 12.54 34.47, 12.524999999999999 34.440000000000005, 12.54 34.38 C 12.57 34.35, 12.57 34.155, 12.600000000000001 34.32 C 12.63 34.68, 12.555 34.245, 12.66 35.04 C 12.84 36.269999999999996, 12.675 36.615, 13.02 37.5 C 13.53 38.04, 13.244999999999997 38.114999999999995, 14.04 38.58 C 15.120000000000001 38.97, 14.445000000000004 39.03, 16.200000000000003 39.36 C 18.630000000000003 39.63, 19.455 39.765, 21.06 39.900000000000006 C 21.84 39.900000000000006, 21.96 39.900000000000006, 22.62 39.900000000000006 C 23.160000000000004 39.900000000000006, 23.145000000000003 40.095000000000006, 23.700000000000003 39.900000000000006 C 24.27 39.510000000000005, 23.939999999999998 40.65, 24.839999999999996 39.12 C 26.069999999999997 36.45, 26.264999999999997 37.5, 27.299999999999997 33.78 C 28.14 29.01, 28.5 28.17, 28.98 24.240000000000002 C 29.1 21.15, 29.22 20.939999999999998, 29.22 18.06 C 29.1 15.39, 29.1 14.49, 28.98 12.72 C 28.86 11.850000000000001, 28.860000000000003 11.850000000000001, 28.740000000000002 10.98 C 28.62 10.11, 28.560000000000002 9.765, 28.5 9.24 C 28.5 9.059999999999999, 28.5 9, 28.5 8.879999999999999 C 28.5 8.82, 28.5 9.03, 28.5 8.76 C 28.5 8.280000000000001, 28.5 8.115, 28.5 7.800000000000001 L 28.5 7.5" fill="none" stroke="black" stroke-width="2"></path><path d="M 7.74 23.52 C 8.52 22.740000000000002, 7.965 23.61, 9.3 21.96 C 11.190000000000001 19.439999999999998, 11.400000000000002 19.005, 13.080000000000002 16.919999999999998 C 14.55 15.27, 15.045 14.73, 16.02 13.620000000000001 C 16.5 13.05, 16.695 12.84, 16.98 12.48 C 17.07 12.33, 17.07 12.375, 17.16 12.18 C 17.25 11.94, 17.16 11.969999999999999, 17.34 11.7 C 17.61 11.4, 17.61 11.385000000000002, 17.88 11.100000000000001 C 18.15 10.830000000000002, 18.18 10.860000000000001, 18.419999999999998 10.56 C 18.63 10.23, 18.735 10.065, 18.84 9.899999999999999 L 18.84 9.899999999999999" fill="none" stroke="black" stroke-width="2"></path><path d="M 18.9 11.459999999999999 C 19.259999999999998 12.809999999999999, 19.095 12.48, 19.62 14.16 C 20.310000000000002 16.17, 20.310000000000002 16.47, 21 18.18 C 21.689999999999998 19.59, 21.705 19.86, 22.38 21 C 23.04 21.87, 23.115000000000002 22.065, 23.700000000000003 22.740000000000002 C 24.21 23.220000000000002, 24.165 23.205000000000005, 24.72 23.700000000000003 C 25.32 24.21, 25.365000000000002 24.18, 25.92 24.72 C 26.43 25.29, 26.565 25.395, 26.94 25.86 C 27.18 26.22, 27.255000000000003 26.384999999999998, 27.42 26.58 C 27.509999999999998 26.61, 27.555 26.625, 27.599999999999998 26.64 L 27.599999999999998 26.64" fill="none" stroke="black" stroke-width="2"></path></svg>