<svg xmlns="http://www.w3.org/2000/svg" viewBox="14.899999618530273 1.8199999332427979 18.950273513793945 43.099998235702515" width="18.950273513793945" height="43.099998235702515"><path d="M 15.899999999999999 25.92 C 16.92 26.07, 16.560000000000002 26.099999999999998, 17.94 26.22 C 19.68 26.310000000000002, 19.395 26.355, 21.419999999999998 26.400000000000002 C 23.729999999999997 26.400000000000002, 24.27 26.400000000000002, 26.04 26.400000000000002 C 27.27 26.400000000000002, 27.225 26.46, 28.5 26.400000000000002 C 29.82 26.28, 30.36 26.250000000000004, 31.14 26.160000000000004 C 31.38 26.1, 31.455 26.1, 31.619999999999997 26.04 C 31.709999999999997 25.98, 31.65 26.175, 31.799999999999997 25.92 C 32.01 25.47, 31.964999999999996 26.37, 32.22 25.02 C 32.519999999999996 22.77, 32.685 22.755, 32.82 20.52 C 32.79 18.3, 32.94 18.195, 32.76 16.080000000000002 C 32.42999999999999 14.07, 32.44499999999999 14.489999999999998, 32.099999999999994 12.059999999999999 C 31.74 9.209999999999999, 31.605 8.67, 31.380000000000003 6.36 C 31.290000000000003 4.59, 31.245000000000005 3.705, 31.200000000000003 2.82 C 31.200000000000003 2.82, 31.200000000000003 2.82, 31.200000000000003 2.82 L 31.200000000000003 2.82" fill="none" stroke="black" stroke-width="2"></path><path d="M 16.62 18.66 C 17.61 17.97, 17.385 18.840000000000003, 18.6 17.28 C 20.04 14.85, 20.52 14.369999999999997, 21.48 12.419999999999998 C 21.96 10.95, 22.155 10.545, 22.44 9.48 C 22.53 8.82, 22.53 8.625, 22.62 8.16 C 22.71 7.890000000000001, 22.709999999999997 7.815, 22.799999999999997 7.62 C 22.89 7.5, 22.740000000000002 7.35, 22.98 7.38 C 23.369999999999997 7.5600000000000005, 23.31 7.305, 23.759999999999998 7.74 C 24.27 8.43, 24.060000000000002 8.010000000000002, 24.78 9.120000000000001 C 25.71 10.65, 25.635 10.785, 26.64 12.18 C 27.72 13.440000000000001, 27.674999999999997 13.755, 28.799999999999997 14.700000000000001 C 29.97 15.330000000000002, 30.36 15.570000000000002, 31.14 15.96 C 31.53 16.11, 31.560000000000002 16.154999999999998, 31.92 16.259999999999998 C 32.25 16.32, 32.415 16.349999999999998, 32.58 16.38 L 32.58 16.38" fill="none" stroke="black" stroke-width="2"></path><path d="M 25.740000000000002 26.400000000000002 C 25.740000000000002 26.94, 25.830000000000002 26.325000000000003, 25.740000000000002 27.48 C 25.560000000000002 29.25, 25.650000000000002 29.205, 25.380000000000003 31.02 C 25.020000000000003 32.88, 24.990000000000006 33.105000000000004, 24.660000000000004 34.74 C 24.36 36.150000000000006, 24.39 36.525000000000006, 24.06 37.56 C 23.7 38.22, 23.955 38.040000000000006, 23.34 38.88 C 22.47 39.900000000000006, 22.650000000000002 39.855000000000004, 21.6 40.92 C 20.37 42.03, 19.965000000000003 42.39, 19.14 43.14 C 18.72 43.53, 18.509999999999998 43.725, 18.299999999999997 43.92 L 18.299999999999997 43.92" fill="none" stroke="black" stroke-width="2"></path></svg>