<svg xmlns="http://www.w3.org/2000/svg" viewBox="16.639999389648438 3.0034871101379395 17.779998779296875 40.196513652801514" width="17.779998779296875" height="40.196513652801514"><path d="M 17.64 16.080000000000002 C 19.71 16.080000000000002, 19.89 16.065, 21.78 16.080000000000002 C 23.490000000000002 16.11, 23.820000000000004 16.080000000000002, 25.200000000000003 16.14 C 26.25 16.23, 26.4 16.2, 27.299999999999997 16.32 C 28.049999999999997 16.47, 28.229999999999997 16.5, 28.799999999999997 16.62 C 29.189999999999998 16.71, 29.189999999999998 16.694999999999997, 29.58 16.799999999999997 C 29.97 16.919999999999998, 30.029999999999998 16.919999999999998, 30.36 17.04 C 30.630000000000003 17.16, 30.6 17.085, 30.900000000000002 17.28 C 31.23 17.55, 31.305 17.61, 31.56 17.82 C 31.740000000000002 17.97, 31.695 17.79, 31.92 18.12 C 32.19 18.630000000000003, 32.28 18.630000000000003, 32.46 19.14 C 32.55 19.65, 32.595 19.305, 32.64 20.16 C 32.64 21.36, 32.64 21.75, 32.64 22.56 C 32.64 22.979999999999997, 32.64 23.07, 32.64 23.4 C 32.64 23.64, 32.64 23.759999999999998, 32.64 23.88 C 32.64 23.88, 32.64 23.88, 32.64 23.88 L 32.64 23.88" fill="none" stroke="black" stroke-width="2"></path><path d="M 19.5 11.82 C 20.25 10.86, 19.86 11.159999999999998, 21 9.899999999999999 C 22.53 8.34, 22.785 7.994999999999999, 24.06 6.779999999999999 C 25.08 5.91, 25.409999999999997 5.64, 26.099999999999998 5.04 C 26.46 4.71, 26.565 4.605, 26.82 4.38 C 26.97 4.26, 26.955 4.2299999999999995, 27.119999999999997 4.14 C 27.299999999999997 4.08, 27.15 3.9750000000000005, 27.48 4.0200000000000005 C 27.96 4.17, 27.825000000000003 3.7350000000000003, 28.44 4.32 C 29.19 5.34, 29.220000000000002 5.19, 29.94 6.36 C 30.630000000000003 7.68, 30.84 8.055, 31.32 9 C 31.59 9.57, 31.65 9.705, 31.86 10.14 L 32.160000000000004 10.74" fill="none" stroke="black" stroke-width="2"></path><path d="M 24.06 16.259999999999998 C 24.06 17.97, 24.089999999999996 17.549999999999997, 24.06 19.68 C 24 22.23, 24 22.32, 23.94 24.78 C 23.880000000000003 27.15, 23.955000000000002 26.985, 23.82 29.52 C 23.61 32.22, 23.505 32.61, 23.4 34.92 C 23.4 36.84, 23.4 37.245, 23.4 38.76 C 23.4 39.870000000000005, 23.354999999999997 40.275000000000006, 23.4 40.980000000000004 C 23.490000000000002 41.28, 23.505000000000003 41.34, 23.580000000000002 41.58 C 23.64 41.76, 23.580000000000005 41.805, 23.700000000000003 41.94 C 23.880000000000003 42.03, 23.895 42.059999999999995, 24.06 42.12 C 24.21 42.15, 24.285 42.165, 24.36 42.18 C 24.36 42.18, 24.314999999999998 42.18, 24.36 42.18 C 24.45 42.18, 24.42 42.225, 24.54 42.18 C 24.689999999999998 42.09, 24.584999999999997 42.36, 24.839999999999996 42 C 25.199999999999996 41.370000000000005, 25.199999999999996 41.355000000000004, 25.56 40.74 C 25.92 40.14, 25.740000000000002 40.41, 26.28 39.54 C 27 38.4, 27.09 38.129999999999995, 27.72 37.26 C 28.259999999999998 36.66, 28.139999999999997 36.660000000000004, 28.799999999999997 36.06 C 29.58 35.46, 29.519999999999996 35.28, 30.36 34.86 C 31.26 34.620000000000005, 31.545 34.5, 32.160000000000004 34.38 C 32.49 34.38, 32.55 34.38, 32.82 34.38 C 33.03 34.38, 33.09 34.365, 33.24 34.38 L 33.42 34.44" fill="none" stroke="black" stroke-width="2"></path></svg>