<svg xmlns="http://www.w3.org/2000/svg" viewBox="14.359999656677246 2.8399999141693115 19.34000015258789 35.50666832923889" width="19.34000015258789" height="35.50666832923889"><path d="M 16.86 3.84 C 16.38 5.79, 16.229999999999997 4.875, 15.899999999999999 7.74 C 15.719999999999999 11.52, 15.629999999999999 12.149999999999999, 15.54 15.299999999999999 C 15.54 17.82, 15.524999999999999 18.044999999999998, 15.54 20.34 C 15.57 22.41, 15.57 22.560000000000002, 15.600000000000001 24.48 C 15.63 26.25, 15.585 26.94, 15.66 28.02 C 15.78 28.409999999999997, 15.659999999999998 28.349999999999998, 15.899999999999999 28.799999999999997 C 16.259999999999998 29.31, 16.095 29.415, 16.62 29.82 C 17.310000000000002 30.12, 17.025 30.225, 18 30.42 C 19.259999999999998 30.509999999999998, 19.365 30.615, 20.52 30.599999999999998 C 21.57 30.479999999999997, 21.225 30.555, 22.62 30.36 C 24.36 30.09, 24.464999999999996 30.045, 26.099999999999998 29.82 C 27.630000000000003 29.64, 27.855000000000004 29.595, 29.160000000000004 29.46 C 30.240000000000002 29.37, 30.705000000000002 29.325000000000003, 31.32 29.28 C 31.47 29.28, 31.394999999999996 29.28, 31.619999999999997 29.28 C 31.919999999999998 29.28, 32.07 29.28, 32.22 29.28 C 32.22 29.28, 32.205 29.28, 32.22 29.28 L 32.28 29.28" fill="none" stroke="black" stroke-width="2"></path><path d="M 16.32 37.32 C 16.65 37.32, 16.02 37.32, 16.98 37.32 C 18.57 37.32, 18.21 37.38, 20.16 37.32 C 22.47 37.2, 22.725 37.184999999999995, 24.78 37.08 C 26.580000000000002 36.99, 26.910000000000004 36.94500000000001, 28.380000000000003 36.900000000000006 C 29.520000000000003 36.900000000000006, 29.820000000000004 36.900000000000006, 30.660000000000004 36.900000000000006 C 31.200000000000003 36.900000000000006, 31.305 36.900000000000006, 31.740000000000002 36.900000000000006 C 32.07000000000001 36.900000000000006, 32.23500000000001 36.900000000000006, 32.400000000000006 36.900000000000006 L 32.400000000000006 36.900000000000006" fill="none" stroke="black" stroke-width="2"></path><path d="M 15.36 18.299999999999997 C 15.809999999999999 17.849999999999998, 15.089999999999998 18.884999999999998, 16.259999999999998 17.4 C 18.15 14.879999999999999, 18.479999999999997 14.399999999999999, 20.04 12.36 C 21.27 10.8, 21.465 10.665, 22.5 9.24 C 23.34 7.95, 23.55 7.59, 24.18 6.66 C 24.6 6.09, 24.72 5.8950000000000005, 25.02 5.5200000000000005 C 25.200000000000003 5.34, 25.215000000000003 5.295, 25.380000000000003 5.16 C 25.53 5.07, 25.44 5.039999999999999, 25.68 4.9799999999999995 C 26.009999999999998 4.949999999999999, 25.949999999999996 4.68, 26.339999999999996 4.92 C 26.79 5.43, 26.745 5.084999999999999, 27.240000000000002 5.9399999999999995 C 27.78 7.14, 27.555 6.615, 28.32 8.34 C 29.31 10.59, 29.415 10.77, 30.299999999999997 12.84 C 31.08 14.73, 31.29 15.27, 31.86 16.62 C 32.22 17.43, 32.37 17.790000000000003, 32.58 18.240000000000002 C 32.64 18.33, 32.67 18.375, 32.7 18.419999999999998 L 32.7 18.419999999999998" fill="none" stroke="black" stroke-width="2"></path></svg>