<svg xmlns="http://www.w3.org/2000/svg" viewBox="11.239999771118164 4.099999904632568 17.31999969482422 41.30000162124634" width="17.31999969482422" height="41.30000162124634"><path d="M 15.120000000000001 5.1 C 14.610000000000001 7.529999999999999, 14.475000000000001 7.514999999999999, 14.100000000000001 9.959999999999999 C 13.860000000000001 12.419999999999998, 13.740000000000002 12.149999999999999, 13.620000000000001 14.879999999999999 C 13.620000000000001 17.88, 13.395000000000001 18.674999999999997, 13.620000000000001 20.88 C 14.07 22.29, 14.01 22.860000000000003, 14.52 23.700000000000003 C 15.09 23.970000000000002, 15.195 24, 15.66 24.240000000000002 C 16.02 24.450000000000003, 16.005 24.540000000000006, 16.38 24.660000000000004 C 16.77 24.69, 16.740000000000002 24.795, 17.16 24.72 C 17.61 24.54, 17.595 24.825, 18.06 24.36 C 18.54 23.61, 18.72 23.535, 19.02 22.86 C 19.14 22.259999999999998, 19.095 22.38, 19.259999999999998 21.66 C 19.47 20.82, 19.515 20.565, 19.68 19.98 C 19.799999999999997 19.65, 19.86 19.485, 19.919999999999998 19.32 C 19.919999999999998 19.32, 19.904999999999998 19.335, 19.919999999999998 19.32 C 19.95 19.29, 19.86 19.154999999999998, 19.98 19.259999999999998 C 20.189999999999998 19.5, 20.174999999999997 19.275000000000002, 20.4 19.740000000000002 C 20.64 20.43, 20.549999999999997 20.310000000000002, 20.88 21.12 C 21.299999999999997 22.05, 21.255 22.245, 21.72 22.98 C 22.23 23.52, 22.32 23.669999999999998, 22.740000000000002 24.06 C 23.07 24.299999999999997, 22.965 24.405, 23.4 24.54 C 23.939999999999998 24.57, 23.91 24.705, 24.48 24.599999999999998 C 25.08 24.36, 25.215 24.494999999999997, 25.68 24.119999999999997 C 26.009999999999998 23.61, 25.934999999999995 23.880000000000003, 26.339999999999996 23.1 C 26.819999999999997 22.05, 26.999999999999996 22.14, 27.299999999999997 21 C 27.419999999999998 19.77, 27.479999999999997 19.89, 27.54 18.54 C 27.54 17.07, 27.54 16.89, 27.54 15.600000000000001 C 27.54 14.49, 27.54 14.655, 27.54 13.379999999999999 C 27.54 11.94, 27.585 11.655, 27.54 10.5 C 27.45 9.629999999999999, 27.405 9.615, 27.36 8.76 C 27.36 7.92, 27.36 7.89, 27.36 7.08 C 27.36 6.300000000000001, 27.36 5.955, 27.36 5.5200000000000005 C 27.36 5.43, 27.36 5.385, 27.36 5.34 L 27.36 5.34" fill="none" stroke="black" stroke-width="2"></path><path d="M 12.96 14.22 C 13.290000000000001 14.280000000000001, 13.020000000000001 14.31, 13.620000000000001 14.34 C 14.49 14.34, 14.37 14.7, 15.36 14.34 C 16.47 13.62, 16.68 13.649999999999999, 17.580000000000002 12.899999999999999 C 18.270000000000003 12.12, 18.345000000000002 12.344999999999999, 18.96 11.34 C 19.5 10.11, 19.695 9.78, 20.04 8.879999999999999 C 20.189999999999998 8.309999999999999, 20.265 8.025, 20.34 7.74 C 20.34 7.74, 20.34 7.74, 20.34 7.74 C 20.34 7.74, 20.31 7.59, 20.34 7.74 C 20.4 8.04, 20.34 7.5600000000000005, 20.46 8.34 C 20.64 9.6, 20.595 9.885, 20.82 10.86 C 21.09 11.55, 20.97 11.43, 21.36 12.24 C 21.869999999999997 13.170000000000002, 21.75 13.365000000000002, 22.38 14.100000000000001 C 23.13 14.64, 23.22 14.82, 23.88 15.18 C 24.45 15.36, 24.615 15.405, 25.02 15.54 C 25.259999999999998 15.629999999999999, 25.185 15.645, 25.5 15.72 C 25.89 15.780000000000001, 25.935000000000002 15.81, 26.28 15.84 C 26.580000000000002 15.84, 26.580000000000002 15.84, 26.880000000000003 15.84 C 27.18 15.84, 27.330000000000002 15.84, 27.48 15.84 C 27.48 15.84, 27.48 15.84, 27.48 15.84 L 27.48 15.84" fill="none" stroke="black" stroke-width="2"></path><path d="M 19.919999999999998 21.48 C 19.979999999999997 21.6, 20.009999999999998 21.465, 20.04 21.72 C 20.04 22.11, 20.04 21.96, 20.04 22.5 C 20.04 23.189999999999998, 20.055 23.1, 20.04 23.88 C 20.009999999999998 24.75, 19.98 24.584999999999997, 19.98 25.619999999999997 C 20.009999999999998 26.82, 19.799999999999997 26.985, 20.04 28.02 C 20.490000000000002 28.89, 20.355 28.935, 20.94 29.759999999999998 C 21.66 30.54, 21.63 30.6, 22.38 31.32 C 23.16 31.98, 23.295 32.205, 23.94 32.64 C 24.450000000000003 32.85, 24.51 32.88, 24.96 33.06 C 25.35 33.21, 25.32 33.120000000000005, 25.740000000000002 33.36 C 26.19 33.69, 26.310000000000002 33.75, 26.64 34.019999999999996 C 26.85 34.23, 26.955 34.334999999999994, 27.06 34.44 C 27.06 34.44, 27.06 34.44, 27.06 34.44 C 27.06 34.44, 27.014999999999997 34.394999999999996, 27.06 34.44 C 27.15 34.53, 27.195 34.574999999999996, 27.240000000000002 34.62 C 27.240000000000002 34.62, 27.225 34.574999999999996, 27.240000000000002 34.62 C 27.27 34.709999999999994, 27.33 34.739999999999995, 27.299999999999997 34.8 C 27.209999999999997 34.83, 27.284999999999997 34.83, 27.119999999999997 34.86 C 26.88 34.89, 27.045 34.800000000000004, 26.64 34.92 C 26.07 35.129999999999995, 26.115000000000002 35.175, 25.5 35.339999999999996 C 24.84 35.459999999999994, 25.2 35.19, 24.18 35.58 C 22.799999999999997 36.24, 22.544999999999998 36.330000000000005, 21.419999999999998 36.900000000000006 C 20.549999999999997 37.38, 20.564999999999998 37.215, 19.68 37.86 C 18.78 38.67, 18.735 38.43000000000001, 17.88 39.480000000000004 C 17.07 40.77, 16.769999999999996 41.025000000000006, 16.259999999999998 42.06 C 16.049999999999997 42.84, 15.945 43.035, 15.84 43.62 C 15.84 44.010000000000005, 15.84 44.205000000000005, 15.84 44.400000000000006 C 15.84 44.400000000000006, 15.84 44.400000000000006, 15.84 44.400000000000006 L 15.84 44.400000000000006" fill="none" stroke="black" stroke-width="2"></path><path d="M 12.24 33.12 C 12.57 33.18, 12.344999999999999 33.045, 12.899999999999999 33.24 C 13.68 33.57000000000001, 13.68 33.525000000000006, 14.46 33.900000000000006 C 15.24 34.32000000000001, 15.33 34.230000000000004, 16.02 34.74 C 16.619999999999997 35.34, 16.785 35.445, 17.22 35.94 C 17.49 36.33, 17.49 36.3, 17.759999999999998 36.72 C 18.029999999999998 37.17, 18.104999999999997 37.26, 18.299999999999997 37.62 C 18.419999999999998 37.89, 18.479999999999997 38.025000000000006, 18.54 38.160000000000004 L 18.54 38.160000000000004" fill="none" stroke="black" stroke-width="2"></path></svg>