<svg xmlns="http://www.w3.org/2000/svg" viewBox="11.279999732971191 2.362096071243286 14.786667823791504 40.637903928756714" width="14.786667823791504" height="40.637903928756714"><path d="M 16.259999999999998 17.82 C 16.47 18.27, 16.485 17.91, 16.68 18.72 C 16.86 19.89, 16.95 20.13, 17.04 21.06 C 17.04 21.75, 17.04 21.72, 17.04 22.44 C 17.04 23.19, 17.085 23.325000000000003, 17.04 23.94 C 16.95 24.42, 17.145 24.51, 16.86 24.900000000000002 C 16.38 25.200000000000003, 16.334999999999997 25.35, 15.899999999999999 25.5 C 15.51 25.5, 15.72 25.634999999999998, 15.120000000000001 25.5 C 14.31 25.23, 14.1 25.200000000000003, 13.5 24.96 C 13.11 24.75, 13.005 24.75, 12.72 24.54 C 12.54 24.33, 12.465 24.479999999999997, 12.36 24.119999999999997 C 12.329999999999998 23.61, 12.315 23.715, 12.299999999999999 23.1 C 12.299999999999999 22.380000000000003, 12.299999999999999 22.245, 12.299999999999999 21.66 C 12.299999999999999 21.21, 12.254999999999999 21.18, 12.299999999999999 20.759999999999998 C 12.39 20.369999999999997, 12.36 20.34, 12.48 19.98 C 12.629999999999999 19.65, 12.524999999999999 19.635, 12.78 19.32 C 13.14 19.02, 13.11 19.02, 13.5 18.72 C 13.92 18.42, 13.905 18.285, 14.34 18.12 C 14.79 18.09, 14.760000000000002 18.075, 15.24 18.06 C 15.75 18.06, 15.419999999999998 18.014999999999997, 16.259999999999998 18.06 C 17.43 18.15, 17.37 18.150000000000002, 18.6 18.240000000000002 C 19.89 18.33, 20.07 18.375, 21.18 18.419999999999998 C 22.11 18.419999999999998, 22.305 18.374999999999996, 23.04 18.419999999999998 C 23.58 18.509999999999998, 23.759999999999998 18.525000000000002, 24.119999999999997 18.6 C 24.299999999999997 18.66, 24.314999999999998 18.645, 24.48 18.72 C 24.630000000000003 18.81, 24.69 18.779999999999998, 24.78 18.9 C 24.81 19.05, 24.779999999999998 18.810000000000002, 24.839999999999996 19.200000000000003 C 24.93 19.830000000000002, 24.974999999999998 19.815, 25.02 20.46 C 25.02 21.12, 25.125 20.76, 25.02 21.78 C 24.81 23.16, 24.869999999999997 22.98, 24.599999999999998 24.54 C 24.27 26.28, 24.21 26.625, 23.94 28.02 C 23.73 29.07, 23.895 28.574999999999996, 23.52 30.119999999999997 C 22.98 32.16, 22.905 32.43, 22.44 34.2 C 22.05 35.7, 22.02 35.895, 21.66 37.2 C 21.33 38.31, 21.21 38.58, 21 39.42 C 20.91 39.99, 20.895 40.080000000000005, 20.82 40.56 C 20.76 40.95, 20.775000000000002 40.98, 20.700000000000003 41.339999999999996 C 20.61 41.67, 20.565 41.835, 20.52 42 L 20.52 42" fill="none" stroke="black" stroke-width="2"></path><path d="M 13.5 14.46 C 14.129999999999999 13.98, 14.024999999999999 14.43, 14.76 13.5 C 15.600000000000001 12.120000000000001, 15.450000000000001 12.435, 16.44 10.74 C 17.58 8.73, 17.82 8.505, 18.72 6.720000000000001 C 19.38 5.16, 19.71 4.38, 20.04 3.5999999999999996 C 20.04 3.5999999999999996, 20.025 3.63, 20.04 3.5999999999999996 C 20.07 3.5399999999999996, 19.950000000000003 3.1799999999999993, 20.1 3.4799999999999995 C 20.37 4.140000000000001, 20.28 3.045000000000001, 20.64 4.800000000000001 C 21.09 7.65, 20.835 8.07, 21.54 10.5 C 22.5 12.51, 22.770000000000003 13.395, 23.46 14.52 C 23.88 14.76, 24.089999999999996 14.879999999999999, 24.299999999999997 15 L 24.299999999999997 15" fill="none" stroke="black" stroke-width="2"></path></svg>