<svg xmlns="http://www.w3.org/2000/svg" viewBox="14.779999732971191 2.9946789741516113 18.31999969482422 38.93844556808472" width="18.31999969482422" height="38.93844556808472"><path d="M 15.78 23.52 C 16.59 21.689999999999998, 16.439999999999998 22.11, 17.4 19.86 C 18.509999999999998 17.189999999999998, 18.6 16.875, 19.62 14.52 C 20.55 12.48, 20.7 12.209999999999999, 21.48 10.44 C 22.11 8.94, 22.185000000000002 8.684999999999999, 22.740000000000002 7.4399999999999995 C 23.220000000000002 6.449999999999999, 23.325000000000003 6.24, 23.700000000000003 5.46 C 23.970000000000002 4.890000000000001, 24.075000000000003 4.65, 24.240000000000002 4.32 C 24.3 4.23, 24.165 4.199999999999999, 24.36 4.14 C 24.689999999999998 4.109999999999999, 24.6 3.87, 25.02 4.08 C 25.53 4.529999999999999, 25.56 4.095, 26.04 4.9799999999999995 C 26.490000000000002 6.3, 26.385 5.88, 26.94 7.62 C 27.6 9.78, 27.465 9.99, 28.259999999999998 11.94 C 29.189999999999998 13.68, 29.369999999999997 13.979999999999997, 30.119999999999997 15.419999999999998 C 30.689999999999998 16.560000000000002, 30.824999999999996 16.815, 31.259999999999998 17.700000000000003 C 31.56 18.330000000000002, 31.65 18.48, 31.86 18.96 C 31.979999999999997 19.29, 32.03999999999999 19.455000000000002, 32.099999999999994 19.62 L 32.099999999999994 19.62" fill="none" stroke="black" stroke-width="2"></path><path d="M 25.740000000000002 26.22 C 24.720000000000002 26.07, 24.660000000000004 25.695, 23.700000000000003 25.92 C 22.8 26.52, 22.814999999999998 26.265, 21.9 27.119999999999997 C 20.97 28.229999999999997, 20.714999999999996 28.169999999999995, 20.04 29.339999999999996 C 19.62 30.569999999999997, 19.485000000000003 30.569999999999997, 19.200000000000003 31.799999999999997 C 19.05 33.03, 18.96 32.925, 18.9 34.26 C 18.93 35.7, 18.78 35.894999999999996, 18.96 37.14 C 19.29 38.19, 19.125 38.46, 19.62 39.24 C 20.28 39.75, 20.265 39.9, 20.94 40.26 C 21.630000000000003 40.47, 21.3 40.53, 22.32 40.68 C 23.67 40.769999999999996, 23.655 41.07, 25.02 40.86 C 26.4 40.349999999999994, 26.655 40.485, 27.78 39.839999999999996 C 28.65 39.06, 28.875 39.165, 29.52 38.28 C 29.939999999999998 37.29, 30 37.214999999999996, 30.36 36.3 C 30.66 35.459999999999994, 30.810000000000002 35.565, 30.96 34.62 C 30.96 33.56999999999999, 31.020000000000003 33.434999999999995, 30.96 32.519999999999996 C 30.84 31.74, 30.915 31.71, 30.72 30.96 C 30.45 30.240000000000002, 30.6 30.225, 30.18 29.52 C 29.61 28.83, 29.534999999999997 28.740000000000002, 29.04 28.14 C 28.62 27.63, 28.575000000000003 27.464999999999996, 28.200000000000003 27.119999999999997 C 27.87 26.939999999999998, 27.869999999999997 26.909999999999997, 27.54 26.759999999999998 C 27.21 26.64, 27.195 26.58, 26.880000000000003 26.52 C 26.580000000000002 26.52, 26.625 26.52, 26.28 26.52 C 25.89 26.52, 25.740000000000002 26.52, 25.5 26.52 L 25.32 26.52" fill="none" stroke="black" stroke-width="2"></path><path d="M 18.419999999999998 35.160000000000004 C 19.02 34.980000000000004, 18.69 34.98, 19.62 34.8 C 20.880000000000003 34.62, 20.82 34.66499999999999, 22.14 34.44 C 23.520000000000003 34.17, 23.64 34.12500000000001, 24.900000000000002 33.900000000000006 C 26.04 33.72, 26.1 33.675, 27.18 33.54 C 28.2 33.45, 28.38 33.405, 29.22 33.36 C 29.88 33.36, 29.97 33.36, 30.54 33.36 C 31.02 33.36, 31.23 33.36, 31.5 33.36 L 31.619999999999997 33.36" fill="none" stroke="black" stroke-width="2"></path></svg>