<svg xmlns="http://www.w3.org/2000/svg" viewBox="8.15999984741211 2.4800000190734863 17.079999923706055 41.060001850128174" width="17.079999923706055" height="41.060001850128174"><path d="M 12.36 42.54 C 11.879999999999999 40.769999999999996, 11.804999999999998 40.455, 11.399999999999999 39 C 11.07 37.86, 11.04 38.25, 10.74 36.72 C 10.469999999999999 34.8, 10.395 34.665000000000006, 10.2 32.88 C 10.079999999999998 31.23, 10.094999999999999 31.035, 9.959999999999999 29.58 C 9.809999999999999 28.32, 9.825 28.334999999999997, 9.66 27.06 C 9.48 25.77, 9.39 25.47, 9.3 24.48 C 9.3 23.79, 9.3 24, 9.3 23.1 C 9.3 21.990000000000002, 8.985000000000001 21.975, 9.3 20.88 C 9.93 19.799999999999997, 9.975000000000001 19.5, 10.56 18.72 C 11.100000000000001 18.24, 10.545 18.269999999999996, 11.64 17.759999999999998 C 13.290000000000001 17.22, 13.455000000000002 17.07, 14.940000000000001 16.68 C 16.26 16.44, 15.615000000000002 16.380000000000003, 17.580000000000002 16.200000000000003 C 20.189999999999998 16.080000000000002, 21.134999999999998 16.020000000000003, 22.799999999999997 15.96 C 23.52 15.96, 23.880000000000003 15.96, 24.240000000000002 15.96 L 24.240000000000002 15.96" fill="none" stroke="black" stroke-width="2"></path><path d="M 9.72 13.440000000000001 C 11.16 11.4, 11.010000000000002 11.385, 12.600000000000001 9.36 C 14.340000000000002 7.35, 15.090000000000003 6.555, 16.080000000000002 5.34 C 16.32 4.92, 16.439999999999998 4.71, 16.56 4.5 L 16.56 4.5" fill="none" stroke="black" stroke-width="2"></path><path d="M 15.419999999999998 3.4799999999999995 C 15.87 4.08, 15.48 3.45, 16.32 4.68 C 17.55 6.539999999999999, 17.85 7.019999999999999, 18.78 8.399999999999999 C 19.41 9.299999999999999, 19.47 9.389999999999999, 20.04 10.2 C 20.549999999999997 10.92, 20.805 11.280000000000001, 21.06 11.64 C 21.06 11.64, 21.06 11.64, 21.06 11.64 L 21.06 11.64" fill="none" stroke="black" stroke-width="2"></path></svg>