<svg xmlns="http://www.w3.org/2000/svg" viewBox="13.9399995803833 2.9000000953674316 20.126813888549805 41.59999990463257" width="20.126813888549805" height="41.59999990463257"><path d="M 15.54 26.82 C 16.169999999999998 26.880000000000003, 16.154999999999998 26.91, 16.799999999999997 26.94 C 17.46 26.94, 17.46 27.045, 18.12 26.94 C 18.78 26.73, 18.450000000000003 27.105, 19.44 26.52 C 20.76 25.56, 20.925000000000004 25.709999999999997, 22.080000000000002 24.599999999999998 C 23.07 23.34, 23.445 23.115000000000002, 24.06 22.080000000000002 C 24.299999999999997 21.270000000000003, 24.209999999999997 21.12, 24.54 20.46 C 24.96 19.950000000000003, 25.17 19.695, 25.380000000000003 19.44 C 25.380000000000003 19.44, 25.380000000000003 19.44, 25.380000000000003 19.44 C 25.380000000000003 19.44, 25.335000000000004 19.05, 25.380000000000003 19.44 C 25.47 20.22, 25.455 19.815, 25.56 21 C 25.68 22.59, 25.604999999999997 22.935, 25.799999999999997 24.18 C 26.069999999999997 25.08, 25.844999999999995 25.200000000000003, 26.339999999999996 25.98 C 27.06 26.64, 27.105 26.939999999999998, 27.78 27.299999999999997 C 28.41 27.36, 28.439999999999998 27.525, 29.04 27.42 C 29.61 27.150000000000002, 29.535 27.480000000000004, 30.18 26.880000000000003 C 30.9 25.950000000000003, 30.959999999999997 26.189999999999998, 31.619999999999997 25.02 C 32.22 23.61, 32.475 23.835, 32.82 22.200000000000003 C 32.91 20.340000000000003, 33.195 20.85, 33 18.48 C 32.519999999999996 15.600000000000001, 32.625 15.345, 32.04 12.72 C 31.35 10.350000000000001, 31.275000000000006 9.855, 30.660000000000004 7.98 C 30.12 6.6, 29.865 5.984999999999999, 29.58 5.22 C 29.549999999999997 5.07, 29.61 5.205, 29.52 4.92 C 29.369999999999997 4.5, 29.294999999999998 4.29, 29.22 4.08 C 29.22 4.08, 29.265 4.125, 29.22 4.08 L 29.04 3.9000000000000004" fill="none" stroke="black" stroke-width="2"></path><path d="M 17.04 18.78 C 17.7 17.34, 17.46 17.685, 18.36 15.899999999999999 C 19.5 13.77, 19.215 14.115, 20.64 11.64 C 22.35 8.82, 23.159999999999997 7.470000000000001, 24.06 6 C 24.15 5.88, 24.135 5.895, 24.240000000000002 5.76 C 24.36 5.609999999999999, 24.345 5.535, 24.48 5.46 C 24.630000000000003 5.46, 24.525000000000002 4.98, 24.78 5.46 C 25.14 6.42, 25.02 6.255, 25.5 7.38 C 26.1 8.67, 26.040000000000003 8.805, 26.700000000000003 9.959999999999999 C 27.42 10.98, 27.480000000000004 11.235, 28.14 12 C 28.74 12.51, 28.604999999999997 12.51, 29.339999999999996 13.02 C 30.209999999999997 13.53, 30.494999999999997 13.739999999999998, 31.08 14.04 C 31.38 14.129999999999999, 31.53 14.175, 31.68 14.22 C 31.68 14.22, 31.68 14.22, 31.68 14.22 L 31.68 14.22" fill="none" stroke="black" stroke-width="2"></path><path d="M 24.660000000000004 21.84 C 24.75 21.96, 24.809999999999995 21.75, 24.839999999999996 22.080000000000002 C 24.81 22.62, 24.84 22.35, 24.78 23.16 C 24.689999999999998 24.240000000000002, 24.81 24, 24.599999999999998 25.32 C 24.27 26.880000000000003, 24.165 26.895000000000003, 23.94 28.44 C 23.82 29.97, 23.85 30.18, 23.700000000000003 31.5 C 23.520000000000003 32.61, 23.61 32.55, 23.34 33.72 C 22.98 34.95, 23.07 35.114999999999995, 22.62 36.18 C 22.08 37.08, 22.11 37.155, 21.54 37.980000000000004 C 20.939999999999998 38.730000000000004, 20.985 38.760000000000005, 20.34 39.480000000000004 C 19.65 40.17, 19.740000000000002 40.185, 18.96 40.86 C 18.09 41.519999999999996, 18.015 41.625, 17.22 42.18 C 16.5 42.629999999999995, 16.349999999999998 42.75, 15.78 43.08 C 15.36 43.29, 15.15 43.394999999999996, 14.940000000000001 43.5 L 14.940000000000001 43.5" fill="none" stroke="black" stroke-width="2"></path></svg>