<svg xmlns="http://www.w3.org/2000/svg" viewBox="14.813332557678223 1.7813255786895752 20.2933349609375 42.898674726486206" width="20.2933349609375" height="42.898674726486206"><path d="M 15.84 43.68 C 15.84 40.53, 15.84 40.125, 15.84 37.38 C 15.84 35.040000000000006, 15.78 34.575, 15.84 32.7 C 15.96 31.290000000000003, 15.930000000000001 31.335, 16.080000000000002 29.880000000000003 C 16.26 28.380000000000003, 16.305 28.35, 16.44 26.880000000000003 C 16.53 25.44, 16.575000000000003 25.185000000000002, 16.62 24 C 16.62 23.07, 16.605 22.965, 16.62 22.14 C 16.65 21.42, 16.635 21.255000000000003, 16.68 20.700000000000003 C 16.74 20.310000000000002, 16.709999999999997 20.325, 16.799999999999997 19.919999999999998 C 16.919999999999998 19.5, 16.845 19.53, 17.04 19.080000000000002 C 17.310000000000002 18.6, 17.085 18.57, 17.580000000000002 18.12 C 18.3 17.700000000000003, 18.315 17.505000000000003, 19.02 17.28 C 19.71 17.25, 19.439999999999998 17.235, 20.4 17.22 C 21.63 17.22, 21.509999999999998 17.22, 22.86 17.22 C 24.33 17.22, 24.449999999999996 17.22, 25.799999999999997 17.22 C 27.029999999999998 17.22, 27.389999999999997 17.22, 28.259999999999998 17.22 C 28.77 17.22, 28.71 17.159999999999997, 29.28 17.22 C 29.91 17.34, 30.03 17.37, 30.54 17.46 C 30.93 17.520000000000003, 31.005000000000003 17.475, 31.32 17.580000000000002 C 31.56 17.73, 31.559999999999995 17.64, 31.799999999999997 17.88 C 32.04 18.21, 32.055 18.044999999999998, 32.28 18.54 C 32.49 19.2, 32.595 19.125, 32.7 19.86 C 32.7 20.67, 32.940000000000005 20.25, 32.7 21.48 C 32.22 23.130000000000003, 32.34 23.265, 31.740000000000002 24.78 C 31.02 26.16, 30.974999999999998 26.34, 30.299999999999997 27.54 C 29.669999999999998 28.56, 29.564999999999998 28.755, 29.04 29.58 C 28.62 30.209999999999997, 28.515 30.404999999999994, 28.200000000000003 30.839999999999996 C 27.990000000000002 31.08, 27.885 31.2, 27.78 31.32 C 27.78 31.32, 27.78 31.32, 27.78 31.32 C 27.78 31.32, 27.705000000000002 31.26, 27.78 31.32 C 27.93 31.439999999999998, 27.57 31.5, 28.08 31.56 C 28.95 31.56, 29.19 31.56, 29.82 31.56 C 30.21 31.56, 30.194999999999997 31.455, 30.599999999999998 31.56 C 31.02 31.77, 30.915 31.605, 31.44 31.98 C 32.07 32.52, 32.190000000000005 32.49, 32.7 33.06 C 33.09 33.66, 33.135000000000005 33.525, 33.480000000000004 34.26 C 33.78 35.129999999999995, 33.93 35.339999999999996, 34.08 36 C 34.08 36.45, 34.14 36.345000000000006, 34.08 36.900000000000006 C 33.959999999999994 37.56, 34.184999999999995 37.515, 33.839999999999996 38.22 C 33.269999999999996 38.97, 33.285000000000004 39.135, 32.7 39.72 C 32.1 40.14, 32.025 40.245000000000005, 31.5 40.56 C 31.049999999999997 40.77, 31.14 40.830000000000005, 30.599999999999998 40.980000000000004 C 29.97 41.07000000000001, 29.909999999999997 41.160000000000004, 29.339999999999996 41.160000000000004 C 28.83 41.07000000000001, 28.575 41.025000000000006, 28.32 40.980000000000004 C 28.32 40.980000000000004, 28.455 40.980000000000004, 28.32 40.980000000000004 L 27.78 40.980000000000004" fill="none" stroke="black" stroke-width="2"></path><path d="M 19.14 12.66 C 19.68 11.7, 19.68 11.7, 20.22 10.74 C 20.759999999999998 9.780000000000001, 20.595 9.93, 21.299999999999997 8.82 C 22.169999999999998 7.5600000000000005, 22.29 7.32, 23.04 6.300000000000001 C 23.669999999999998 5.5200000000000005, 23.804999999999996 5.34, 24.299999999999997 4.74 C 24.659999999999997 4.32, 24.674999999999997 4.29, 25.02 3.9000000000000004 C 25.35 3.54, 25.47 3.39, 25.68 3.18 C 25.77 3.12, 25.74 3.1350000000000002, 25.86 3.06 C 26.01 2.9699999999999998, 25.755000000000003 2.61, 26.160000000000004 2.88 C 26.82 3.51, 26.625 2.9099999999999993, 27.48 4.14 C 28.53 5.970000000000001, 28.665 6.045000000000001, 29.58 7.800000000000001 C 30.36 9.48, 30.54 9.915000000000001, 31.14 11.16 C 31.560000000000002 11.969999999999999, 31.77 12.375, 31.98 12.78 C 31.98 12.78, 31.98 12.78, 31.98 12.78 L 31.98 12.78" fill="none" stroke="black" stroke-width="2"></path></svg>