<svg xmlns="http://www.w3.org/2000/svg" viewBox="9.066666603088379 13.319999694824219 20.25333309173584 31.900001525878906" width="20.25333309173584" height="31.900001525878906"><path d="M 13.440000000000001 44.22 C 13.14 43.41, 13.125 43.559999999999995, 12.84 42.599999999999994 C 12.57 41.489999999999995, 12.66 41.58, 12.299999999999999 40.38 C 11.849999999999998 39.09, 11.744999999999997 38.925, 11.399999999999999 37.8 C 11.16 36.84, 11.114999999999998 36.900000000000006, 10.92 35.88 C 10.77 34.8, 10.785 34.8, 10.620000000000001 33.72 C 10.440000000000001 32.64, 10.395 32.489999999999995, 10.26 31.56 C 10.17 30.78, 10.125 30.69, 10.08 30 C 10.08 29.4, 10.08 29.429999999999996, 10.08 28.799999999999997 C 10.08 28.14, 10.05 28.125, 10.08 27.48 C 10.14 26.85, 10.079999999999998 26.744999999999997, 10.2 26.22 C 10.379999999999999 25.8, 10.38 25.755000000000003, 10.56 25.380000000000003 C 10.74 25.05, 10.74 24.975, 10.92 24.72 C 11.1 24.54, 11.114999999999998 24.525, 11.28 24.36 C 11.43 24.21, 11.34 24.24, 11.58 24.06 C 11.91 23.85, 11.955 23.745, 12.24 23.64 C 12.48 23.64, 12.375 23.64, 12.72 23.64 C 13.170000000000002 23.64, 13.095 23.64, 13.620000000000001 23.64 C 14.22 23.64, 14.025000000000002 23.64, 14.82 23.64 C 15.809999999999999 23.64, 15.794999999999998 23.64, 16.799999999999997 23.64 C 17.82 23.64, 17.939999999999998 23.64, 18.84 23.64 C 19.619999999999997 23.64, 19.47 23.595, 20.4 23.64 C 21.479999999999997 23.73, 21.54 23.775, 22.56 23.82 C 23.52 23.82, 23.73 23.82, 24.48 23.82 C 25.02 23.82, 25.08 23.91, 25.56 23.82 C 25.98 23.64, 25.965000000000003 23.805, 26.400000000000002 23.46 C 26.85 22.950000000000003, 26.97 22.89, 27.299999999999997 22.44 C 27.509999999999998 22.05, 27.555 22.02, 27.72 21.66 C 27.84 21.33, 27.855 21.36, 27.96 21 C 28.05 20.61, 28.095 20.685, 28.14 20.22 C 28.14 19.68, 28.14 19.65, 28.14 19.14 C 28.14 18.66, 28.215000000000003 18.689999999999998, 28.14 18.18 C 27.99 17.64, 28.049999999999997 17.625, 27.839999999999996 17.1 C 27.569999999999997 16.590000000000003, 27.779999999999994 16.590000000000003, 27.299999999999997 16.080000000000002 C 26.61 15.57, 26.58 15.48, 25.92 15.059999999999999 C 25.290000000000003 14.729999999999999, 25.245000000000005 14.564999999999998, 24.660000000000004 14.399999999999999 C 24.120000000000005 14.399999999999999, 24.000000000000004 14.399999999999999, 23.580000000000002 14.399999999999999 C 23.28 14.399999999999999, 23.355 14.219999999999999, 22.98 14.399999999999999 C 22.53 14.76, 22.410000000000004 14.655000000000001, 22.080000000000002 15.120000000000001 C 21.87 15.69, 21.78 15.749999999999998, 21.66 16.259999999999998 C 21.630000000000003 16.71, 21.615000000000002 16.814999999999998, 21.6 17.16 C 21.6 17.4, 21.42 17.34, 21.6 17.64 C 21.96 18, 21.810000000000002 18, 22.32 18.36 C 22.98 18.72, 23.1 18.840000000000003, 23.64 19.080000000000002 C 24.060000000000002 19.200000000000003, 23.91 19.215, 24.48 19.32 C 25.200000000000003 19.41, 25.365000000000002 19.455, 25.92 19.5 C 26.310000000000002 19.5, 26.400000000000006 19.5, 26.700000000000003 19.5 C 26.91 19.5, 26.97 19.5, 27.119999999999997 19.5 C 27.209999999999997 19.5, 27.179999999999996 19.5, 27.299999999999997 19.5 C 27.449999999999996 19.5, 27.419999999999998 19.5, 27.599999999999998 19.5 C 27.81 19.5, 27.915 19.5, 28.02 19.5 C 28.02 19.5, 28.02 19.5, 28.02 19.5 C 28.02 19.5, 28.02 19.5, 28.02 19.5 C 28.02 19.5, 28.02 19.5, 28.02 19.5 L 28.02 19.5" fill="none" stroke="black" stroke-width="2"></path><path d="M 24.42 24.299999999999997 C 24.57 24.299999999999997, 24.555 24.284999999999997, 24.72 24.299999999999997 C 24.9 24.33, 24.869999999999997 24.255, 25.08 24.36 C 25.32 24.54, 25.305 24.555, 25.56 24.72 C 25.83 24.869999999999997, 25.845 24.854999999999997, 26.099999999999998 25.02 C 26.339999999999996 25.200000000000003, 26.339999999999996 25.155, 26.58 25.380000000000003 C 26.82 25.650000000000002, 26.834999999999997 25.620000000000005, 27.06 25.92 C 27.27 26.25, 27.27 26.22, 27.48 26.58 C 27.69 26.97, 27.750000000000004 26.924999999999997, 27.900000000000002 27.36 C 27.990000000000002 27.84, 28.035 27.81, 28.08 28.32 C 28.08 28.86, 28.08 28.860000000000003, 28.08 29.400000000000002 C 28.08 29.94, 28.08 30.060000000000002, 28.08 30.48 C 28.08 30.78, 28.124999999999996 30.735, 28.08 31.08 C 27.990000000000002 31.47, 28.065 31.455, 27.900000000000002 31.86 C 27.660000000000004 32.28, 27.750000000000004 32.355000000000004, 27.42 32.7 C 27 32.97, 27.119999999999997 33.015, 26.58 33.24 C 25.919999999999998 33.42, 25.784999999999997 33.449999999999996, 25.259999999999998 33.599999999999994 C 24.869999999999997 33.72, 24.75 33.779999999999994, 24.48 33.839999999999996 C 24.33 33.839999999999996, 24.314999999999998 33.839999999999996, 24.18 33.839999999999996 C 24.060000000000002 33.839999999999996, 24.09 34.08, 23.94 33.839999999999996 C 23.76 33.36, 23.67 33.195, 23.580000000000002 32.88 C 23.580000000000002 32.730000000000004, 23.580000000000002 32.85, 23.580000000000002 32.58 C 23.580000000000002 32.19, 23.580000000000002 32.144999999999996, 23.580000000000002 31.799999999999997 C 23.580000000000002 31.5, 23.46 31.575000000000003, 23.580000000000002 31.200000000000003 C 23.82 30.75, 23.729999999999997 30.629999999999995, 24.06 30.299999999999997 C 24.48 30.09, 24.450000000000003 30.105, 24.900000000000002 29.880000000000003 C 25.380000000000003 29.64, 25.38 29.595000000000002, 25.86 29.400000000000002 C 26.34 29.25, 26.505000000000003 29.174999999999997, 26.82 29.099999999999998 C 26.97 29.099999999999998, 26.955 29.099999999999998, 27.119999999999997 29.099999999999998 C 27.299999999999997 29.099999999999998, 27.314999999999998 29.009999999999998, 27.48 29.099999999999998 C 27.630000000000003 29.28, 27.66 29.34, 27.78 29.46 C 27.87 29.52, 27.87 29.505, 27.96 29.58 C 28.05 29.669999999999998, 28.05 29.669999999999998, 28.14 29.759999999999998 C 28.23 29.85, 28.275 29.895, 28.32 29.94 C 28.32 29.94, 28.32 29.94, 28.32 29.94 L 28.32 29.94" fill="none" stroke="black" stroke-width="2"></path></svg>