<svg xmlns="http://www.w3.org/2000/svg" viewBox="12.079999923706055 3.0866665840148926 20.69333267211914 39.32666730880737" width="20.69333267211914" height="39.32666730880737"><path d="M 13.080000000000002 27.72 C 13.530000000000001 27.72, 13.275000000000002 27.705, 13.98 27.72 C 14.94 27.75, 15.059999999999999 27.765, 15.899999999999999 27.78 C 16.619999999999997 27.78, 16.47 27.78, 17.34 27.78 C 18.36 27.78, 18.375 27.78, 19.38 27.78 C 20.369999999999997 27.78, 20.549999999999997 27.78, 21.36 27.78 C 21.990000000000002 27.78, 21.84 27.78, 22.62 27.78 C 23.55 27.78, 23.67 27.78, 24.48 27.78 C 25.17 27.78, 25.244999999999997 27.78, 25.86 27.78 C 26.4 27.78, 26.505000000000003 27.795, 26.94 27.78 C 27.27 27.75, 27.27 27.854999999999997, 27.599999999999998 27.72 C 27.93 27.48, 27.794999999999998 27.705000000000002, 28.259999999999998 27.240000000000002 C 28.86 26.55, 29.025 26.490000000000002, 29.46 25.86 C 29.73 25.29, 29.82 25.365, 30 24.72 C 30.09 24, 30.06 24.240000000000002, 30.18 23.28 C 30.33 22.08, 30.285 22.424999999999997, 30.48 20.88 C 30.72 18.990000000000002, 30.735 18.855, 30.96 17.1 C 31.17 15.48, 31.185000000000002 15.3, 31.380000000000003 13.86 C 31.560000000000002 12.6, 31.650000000000002 12.36, 31.740000000000002 11.34 C 31.740000000000002 10.559999999999999, 31.815 10.545, 31.740000000000002 9.78 C 31.590000000000003 9.03, 31.755000000000003 9.12, 31.44 8.28 C 30.96 7.35, 30.975 7.14, 30.48 6.42 C 29.97 5.91, 30.045 5.91, 29.46 5.4 C 28.8 4.890000000000001, 28.740000000000002 4.695, 28.14 4.38 C 27.6 4.26, 27.63 4.199999999999999, 27.06 4.14 C 26.46 4.14, 26.445 4.02, 25.86 4.14 C 25.29 4.38, 25.185 4.32, 24.72 4.62 C 24.36 4.98, 24.36 4.77, 24 5.34 C 23.64 6.119999999999999, 23.505000000000003 6.09, 23.28 6.8999999999999995 C 23.19 7.74, 23.055 7.89, 23.1 8.58 C 23.28 9.120000000000001, 23.115000000000002 9.135, 23.46 9.66 C 23.97 10.17, 23.97 10.245000000000001, 24.48 10.68 C 24.990000000000002 11.04, 24.945 11.099999999999998, 25.5 11.399999999999999 C 26.1 11.639999999999999, 26.085 11.7, 26.700000000000003 11.879999999999999 C 27.330000000000002 12, 27.480000000000004 12.06, 27.96 12.120000000000001 C 28.29 12.120000000000001, 28.199999999999996 12.120000000000001, 28.619999999999997 12.120000000000001 C 29.13 12.120000000000001, 29.115000000000002 12.120000000000001, 29.64 12.120000000000001 C 30.18 12.120000000000001, 30.375 12.120000000000001, 30.72 12.120000000000001 C 30.869999999999997 12.120000000000001, 30.854999999999997 12.120000000000001, 31.02 12.120000000000001 C 31.200000000000003 12.120000000000001, 31.26 12.120000000000001, 31.380000000000003 12.120000000000001 C 31.44 12.120000000000001, 31.425 12.120000000000001, 31.5 12.120000000000001 C 31.59 12.120000000000001, 31.634999999999998 12.120000000000001, 31.68 12.120000000000001 C 31.68 12.120000000000001, 31.68 12.120000000000001, 31.68 12.120000000000001 L 31.68 12.120000000000001" fill="none" stroke="black" stroke-width="2"></path><path d="M 26.22 28.200000000000003 C 26.369999999999997 28.32, 26.235 28.050000000000004, 26.52 28.44 C 26.939999999999998 29.1, 27.03 29.144999999999996, 27.36 29.759999999999998 C 27.599999999999998 30.33, 27.525 30.21, 27.839999999999996 30.900000000000002 C 28.229999999999997 31.71, 28.319999999999997 31.799999999999997, 28.619999999999997 32.519999999999996 C 28.83 33.15, 28.935 33.18, 29.04 33.78 C 29.04 34.35, 29.04 34.14, 29.04 34.92 C 29.04 35.910000000000004, 29.04 36.09, 29.04 36.900000000000006 C 29.04 37.53, 29.13 37.56, 29.04 38.160000000000004 C 28.86 38.730000000000004, 28.89 38.76, 28.68 39.3 C 28.44 39.81, 28.53 39.885, 28.200000000000003 40.32 C 27.78 40.68, 27.81 40.769999999999996, 27.36 41.04 C 26.880000000000003 41.22, 26.805 41.31, 26.400000000000002 41.400000000000006 C 26.07 41.400000000000006, 26.175 41.43000000000001, 25.740000000000002 41.400000000000006 C 25.200000000000003 41.34, 25.095000000000006 41.415000000000006, 24.660000000000004 41.28 C 24.330000000000002 41.07, 24.225 41.235, 24 40.86 C 23.88 40.32, 23.865 40.410000000000004, 23.759999999999998 39.78 C 23.67 39.06, 23.625 38.849999999999994, 23.580000000000002 38.339999999999996 C 23.580000000000002 38.04, 23.55 38.085, 23.580000000000002 37.74 C 23.64 37.35, 23.430000000000003 37.395, 23.700000000000003 36.96 C 24.180000000000003 36.480000000000004, 24.180000000000007 36.36, 24.660000000000004 36 C 25.14 35.76, 25.14 35.684999999999995, 25.619999999999997 35.519999999999996 C 26.099999999999998 35.42999999999999, 26.189999999999998 35.385, 26.58 35.339999999999996 C 26.88 35.339999999999996, 26.88 35.324999999999996, 27.18 35.339999999999996 C 27.48 35.370000000000005, 27.465 35.31, 27.78 35.400000000000006 C 28.11 35.550000000000004, 28.185000000000002 35.580000000000005, 28.44 35.7 C 28.619999999999997 35.790000000000006, 28.709999999999997 35.835, 28.799999999999997 35.88 C 28.799999999999997 35.88, 28.784999999999997 35.835, 28.799999999999997 35.88 C 28.83 35.97, 28.785 35.940000000000005, 28.86 36.06 C 28.979999999999997 36.21, 29.04 36.285, 29.099999999999998 36.36 C 29.099999999999998 36.36, 29.099999999999998 36.36, 29.099999999999998 36.36 C 29.099999999999998 36.36, 29.099999999999998 36.36, 29.099999999999998 36.36 L 29.099999999999998 36.36" fill="none" stroke="black" stroke-width="2"></path></svg>