<svg xmlns="http://www.w3.org/2000/svg" viewBox="6.026666641235352 10.015336036682129 16.873332977294922 34.54466533660889" width="16.873332977294922" height="34.54466533660889"><path d="M 8.94 43.56 C 8.85 42.69, 9.075 43.275, 8.76 41.82 C 8.219999999999999 39.78, 8.07 39.660000000000004, 7.68 37.74 C 7.4399999999999995 35.94, 7.334999999999999 35.82, 7.199999999999999 34.14 C 7.17 32.58, 7.154999999999999 32.265, 7.14 31.02 C 7.14 30.090000000000003, 6.885 30.120000000000005, 7.14 29.160000000000004 C 7.65 28.17, 7.65 27.945, 8.16 27.18 C 8.67 26.64, 8.459999999999999 26.595, 9.18 26.099999999999998 C 10.11 25.65, 10.170000000000002 25.53, 11.040000000000001 25.200000000000003 C 11.850000000000001 24.990000000000002, 11.61 25.005000000000003, 12.66 24.78 C 13.95 24.54, 13.665 24.54, 15.24 24.299999999999997 C 17.1 24.06, 17.325 24.015, 18.96 23.82 C 20.37 23.67, 21.045 23.61, 21.78 23.52 L 21.9 23.46" fill="none" stroke="black" stroke-width="2"></path><path d="M 17.700000000000003 18.84 C 15.660000000000002 18.66, 15.225000000000001 18.735, 13.620000000000001 18.48 C 12.45 18.15, 11.969999999999999 18.225, 11.28 17.82 C 11.07 17.34, 10.995 17.564999999999998, 10.86 16.86 C 10.8 15.93, 10.56 15.825, 10.74 15 C 11.16 14.28, 11.085 14.249999999999998, 11.58 13.559999999999999 C 12.15 12.899999999999999, 12.105 12.795, 12.72 12.24 C 13.379999999999999 11.79, 13.469999999999999 11.64, 14.04 11.34 C 14.52 11.190000000000001, 14.475 10.935, 15 11.040000000000001 C 15.57 11.4, 15.615 11.37, 16.14 11.76 C 16.62 12.18, 16.470000000000002 11.685000000000002, 17.1 12.600000000000001 C 17.880000000000003 14.01, 18.105 14.219999999999999, 18.66 15.419999999999998 C 18.990000000000002 16.409999999999997, 18.885 15.809999999999999, 19.32 17.4 C 19.86 19.59, 20.04 19.71, 20.4 21.78 C 20.58 23.73, 20.669999999999998 23.759999999999998, 20.759999999999998 25.68 C 20.759999999999998 27.57, 20.759999999999998 27.450000000000003, 20.759999999999998 29.46 C 20.759999999999998 31.59, 20.759999999999998 31.905, 20.759999999999998 33.72 C 20.759999999999998 35.22, 20.804999999999996 35.339999999999996, 20.759999999999998 36.72 C 20.67 37.980000000000004, 20.625 38.235, 20.580000000000002 39.24 C 20.580000000000002 39.99, 20.580000000000002 40.335, 20.580000000000002 40.74 C 20.580000000000002 40.8, 20.580000000000002 40.83, 20.580000000000002 40.86 L 20.580000000000002 40.86" fill="none" stroke="black" stroke-width="2"></path></svg>