<svg xmlns="http://www.w3.org/2000/svg" viewBox="10.760000228881836 2.7200000286102295 20.97999858856201 39.91999936103821" width="20.97999858856201" height="39.91999936103821"><path d="M 12.899999999999999 3.7199999999999998 C 12.899999999999999 4.35, 12.899999999999999 4.034999999999999, 12.899999999999999 4.9799999999999995 C 12.899999999999999 6.24, 12.899999999999999 6.39, 12.899999999999999 7.5 C 12.899999999999999 8.46, 12.899999999999999 8.25, 12.899999999999999 9.42 C 12.899999999999999 10.8, 12.899999999999999 10.98, 12.899999999999999 12.18 C 12.899999999999999 13.2, 12.869999999999997 13.125, 12.899999999999999 14.22 C 12.959999999999999 15.39, 12.974999999999998 15.36, 13.02 16.56 C 13.05 17.79, 13.065000000000001 17.775, 13.080000000000002 19.02 C 13.080000000000002 20.28, 12.990000000000002 20.46, 13.080000000000002 21.54 C 13.260000000000002 22.439999999999998, 13.230000000000002 22.56, 13.440000000000001 23.34 C 13.68 24, 13.709999999999999 24.150000000000002, 13.919999999999998 24.660000000000004 C 14.099999999999998 25.020000000000003, 13.934999999999999 25.020000000000003, 14.28 25.380000000000003 C 14.79 25.740000000000002, 14.67 25.784999999999997, 15.299999999999999 26.099999999999998 C 16.049999999999997 26.369999999999997, 15.764999999999997 26.46, 16.799999999999997 26.64 C 18.119999999999997 26.73, 18.09 26.775, 19.44 26.82 C 20.82 26.82, 21.075000000000003 26.82, 22.200000000000003 26.82 C 23.07 26.82, 23.01 26.82, 23.94 26.82 C 24.93 26.82, 25.185000000000002 26.835, 25.92 26.82 C 26.400000000000002 26.79, 26.445 26.849999999999998, 26.880000000000003 26.759999999999998 C 27.270000000000003 26.61, 27.210000000000004 26.64, 27.660000000000004 26.46 C 28.17 26.25, 28.26 26.25, 28.68 26.04 C 29.009999999999998 25.83, 29.009999999999998 25.979999999999997, 29.339999999999996 25.619999999999997 C 29.669999999999998 25.11, 29.7 25.214999999999996, 30 24.599999999999998 C 30.27 23.88, 30.36 23.745, 30.54 23.16 C 30.63 22.71, 30.674999999999997 22.799999999999997, 30.72 22.259999999999998 C 30.72 21.63, 30.765 21.689999999999998, 30.72 21 C 30.63 20.25, 30.689999999999998 20.115000000000002, 30.54 19.5 C 30.33 19.02, 30.33 18.915, 30.119999999999997 18.54 C 29.91 18.27, 30.090000000000003 18.314999999999998, 29.700000000000003 18 C 29.130000000000003 17.64, 29.174999999999997 17.595, 28.56 17.28 C 27.9 17.01, 27.87 16.905, 27.240000000000002 16.740000000000002 C 26.64 16.68, 26.49 16.650000000000002, 26.04 16.62 C 25.740000000000002 16.62, 25.830000000000002 16.545, 25.44 16.62 C 24.96 16.77, 24.915 16.619999999999997, 24.48 16.919999999999998 C 24.090000000000003 17.369999999999997, 24.03 17.31, 23.700000000000003 17.82 C 23.43 18.39, 23.445 18.39, 23.16 18.96 C 22.86 19.53, 22.799999999999997 19.395000000000003, 22.56 20.1 C 22.380000000000003 20.94, 22.380000000000003 21.015, 22.200000000000003 21.78 C 22.020000000000003 22.47, 21.93 22.65, 21.84 23.16 C 21.84 23.490000000000002, 21.84 23.505, 21.84 23.82 C 21.84 24.12, 21.84 24.075000000000003, 21.84 24.42 C 21.84 24.810000000000002, 21.84 24.825000000000003, 21.84 25.200000000000003 C 21.84 25.560000000000002, 21.84 25.665000000000003, 21.84 25.92 C 21.84 26.07, 21.84 26.099999999999998, 21.84 26.22 C 21.84 26.310000000000002, 21.84 26.355, 21.84 26.400000000000002 C 21.84 26.400000000000002, 21.84 26.400000000000002, 21.84 26.400000000000002 C 21.84 26.400000000000002, 21.84 26.400000000000002, 21.84 26.400000000000002 C 21.84 26.400000000000002, 21.84 26.400000000000002, 21.84 26.400000000000002 C 21.84 26.400000000000002, 21.84 26.400000000000002, 21.84 26.400000000000002 C 21.84 26.400000000000002, 21.84 26.400000000000002, 21.84 26.400000000000002 C 21.84 26.400000000000002, 21.84 26.400000000000002, 21.84 26.400000000000002 L 21.84 26.400000000000002" fill="none" stroke="black" stroke-width="2"></path><path d="M 12.24 33.599999999999994 C 12.690000000000001 33.599999999999994, 12.510000000000002 33.599999999999994, 13.14 33.599999999999994 C 13.95 33.599999999999994, 13.77 33.599999999999994, 14.76 33.599999999999994 C 15.93 33.599999999999994, 15.765 33.66, 17.1 33.599999999999994 C 18.6 33.48, 18.300000000000004 33.555, 20.1 33.36 C 22.2 33.09, 22.544999999999998 32.955, 24.299999999999997 32.82 C 25.709999999999997 32.82, 25.994999999999997 32.82, 27.119999999999997 32.82 C 27.959999999999997 32.82, 28.349999999999994 32.82, 28.799999999999997 32.82 C 28.86 32.82, 28.89 32.82, 28.92 32.82 L 28.92 32.82" fill="none" stroke="black" stroke-width="2"></path><path d="M 11.76 41.64 C 12.99 41.43, 13.200000000000001 41.385, 14.22 41.22 C 15.030000000000001 41.1, 14.67 41.175000000000004, 15.84 40.980000000000004 C 17.369999999999997 40.71, 17.235 40.695, 18.9 40.44 C 20.7 40.2, 20.744999999999997 40.125, 22.5 39.96 C 24.21 39.870000000000005, 24.450000000000003 39.825, 25.92 39.78 C 27.150000000000002 39.78, 27.495000000000005 39.78, 28.380000000000003 39.78 C 28.92 39.78, 29.145000000000003 39.78, 29.46 39.78 L 29.64 39.78" fill="none" stroke="black" stroke-width="2"></path></svg>