<svg xmlns="http://www.w3.org/2000/svg" viewBox="15.620000839233398 5.886666774749756 22.100000381469727 42.09333276748657" width="22.100000381469727" height="42.09333276748657"><path d="M 16.62 18.12 C 17.759999999999998 18.21, 17.79 18.255, 18.9 18.299999999999997 C 19.979999999999997 18.299999999999997, 19.65 18.299999999999997, 21.06 18.299999999999997 C 22.799999999999997 18.299999999999997, 23.205 18.254999999999995, 24.54 18.299999999999997 C 25.47 18.39, 25.605000000000004 18.39, 26.400000000000002 18.48 C 27.060000000000002 18.57, 27.15 18.585, 27.72 18.66 C 28.2 18.72, 28.035 18.75, 28.68 18.78 C 29.49 18.78, 29.624999999999996 18.78, 30.299999999999997 18.78 C 30.84 18.78, 30.795 18.78, 31.380000000000003 18.78 C 32.010000000000005 18.78, 32.145 18.78, 32.64 18.78 C 33 18.78, 32.94 18.78, 33.36 18.78 C 33.84 18.78, 33.855000000000004 18.78, 34.32 18.78 C 34.769999999999996 18.78, 34.8 18.78, 35.22 18.78 C 35.61 18.78, 35.805 18.78, 36 18.78 L 36 18.78" fill="none" stroke="black" stroke-width="2"></path><path d="M 36.72 13.799999999999999 C 36.3 13.799999999999999, 36.510000000000005 13.709999999999999, 35.88 13.799999999999999 C 35.040000000000006 13.98, 35.160000000000004 14.025, 34.2 14.16 C 33.120000000000005 14.25, 32.715 14.295, 32.04 14.34 C 31.77 14.34, 31.86 14.34, 31.5 14.34 C 31.049999999999997 14.34, 30.99 14.43, 30.599999999999998 14.34 C 30.27 14.16, 30.3 14.4, 29.94 13.98 C 29.550000000000004 13.32, 29.355000000000004 13.245000000000001, 29.160000000000004 12.66 C 29.160000000000004 12.15, 29.145000000000003 12.315000000000001, 29.160000000000004 11.64 C 29.19 10.8, 29.07 10.665, 29.22 9.959999999999999 C 29.49 9.39, 29.384999999999998 9.405, 29.759999999999998 8.82 C 30.24 8.22, 30.314999999999998 8.025, 30.72 7.62 C 31.05 7.41, 30.975 7.379999999999999, 31.380000000000003 7.199999999999999 C 31.86 7.049999999999999, 31.874999999999996 6.975, 32.339999999999996 6.8999999999999995 C 32.79 6.8999999999999995, 32.94 6.869999999999999, 33.24 6.8999999999999995 C 33.39 6.959999999999999, 33.33 6.885, 33.54 7.02 C 33.81 7.2299999999999995, 33.795 7.169999999999999, 34.08 7.4399999999999995 C 34.379999999999995 7.7700000000000005, 34.41 7.725000000000001, 34.68 8.100000000000001 C 34.92 8.52, 34.935 8.535, 35.160000000000004 8.94 C 35.370000000000005 9.33, 35.37 9.315000000000001, 35.58 9.72 C 35.79 10.14, 35.879999999999995 10.08, 36 10.56 C 36.03 11.100000000000001, 36 11.025, 36.06 11.64 C 36.150000000000006 12.33, 36.195 12.105, 36.24 13.02 C 36.24 14.16, 36.255 14.294999999999998, 36.24 15.299999999999999 C 36.21 16.169999999999998, 36.24 16.064999999999998, 36.18 17.04 C 36.09 18.12, 36.075 18.105000000000004, 36 19.200000000000003 C 35.94 20.310000000000002, 36.03 20.31, 35.88 21.419999999999998 C 35.64 22.53, 35.580000000000005 22.725, 35.400000000000006 23.64 C 35.28 24.36, 35.295 24.165, 35.160000000000004 25.08 C 35.010000000000005 26.189999999999998, 34.995000000000005 26.294999999999998, 34.86 27.299999999999997 C 34.739999999999995 28.199999999999996, 34.69499999999999 28.544999999999998, 34.62 29.099999999999998 C 34.59 29.31, 34.575 29.415, 34.56 29.52 L 34.56 29.52" fill="none" stroke="black" stroke-width="2"></path><path d="M 29.22 18.96 C 29.13 20.37, 29.22 19.815, 29.04 21.78 C 28.77 24.3, 28.755 24.6, 28.5 26.82 C 28.259999999999998 28.740000000000002, 28.185000000000002 29.085000000000004, 28.02 30.660000000000004 C 27.93 31.89, 27.989999999999995 31.724999999999998, 27.839999999999996 33.12 C 27.63 34.68, 27.585 34.695, 27.42 36.24 C 27.3 37.769999999999996, 27.3 37.635, 27.18 39.3 C 27.060000000000002 41.1, 27.015 41.370000000000005, 26.94 42.900000000000006 C 26.910000000000004 44.160000000000004, 26.895000000000003 44.400000000000006, 26.880000000000003 45.42 C 26.880000000000003 46.2, 26.880000000000003 46.59, 26.880000000000003 46.980000000000004 C 26.880000000000003 46.980000000000004, 26.880000000000003 46.980000000000004, 26.880000000000003 46.980000000000004 L 26.880000000000003 46.980000000000004" fill="none" stroke="black" stroke-width="2"></path><path d="M 23.580000000000002 17.82 C 23.55 18.33, 23.58 17.925, 23.52 18.84 C 23.43 20.16, 23.564999999999998 19.455, 23.34 21.48 C 22.98 24.21, 22.935000000000002 24.39, 22.62 26.94 C 22.35 29.310000000000002, 22.335 29.265, 22.080000000000002 31.68 C 21.840000000000003 34.14, 21.78 34.62, 21.6 36.599999999999994 C 21.48 38.099999999999994, 21.465 38.279999999999994, 21.36 39.599999999999994 C 21.27 40.739999999999995, 21.225 40.965, 21.18 41.88 C 21.18 42.57, 21.18 42.839999999999996, 21.18 43.26 C 21.18 43.41, 21.165 43.215, 21.18 43.56 C 21.21 44.1, 21.225 44.145, 21.240000000000002 44.64 C 21.240000000000002 45.09, 21.240000000000002 45.12, 21.240000000000002 45.54 C 21.240000000000002 45.93, 21.21 45.975, 21.240000000000002 46.32 C 21.3 46.620000000000005, 21.33 46.77, 21.36 46.92 C 21.36 46.92, 21.36 46.92, 21.36 46.92 L 21.36 46.92" fill="none" stroke="black" stroke-width="2"></path></svg>