<svg xmlns="http://www.w3.org/2000/svg" viewBox="10.640000343322754 0.019999980926513672 20.300000190734863 46.420002460479736" width="20.300000190734863" height="46.420002460479736"><path d="M 11.64 28.200000000000003 C 11.940000000000001 28.200000000000003, 11.73 28.200000000000003, 12.24 28.200000000000003 C 12.96 28.200000000000003, 12.84 28.200000000000003, 13.68 28.200000000000003 C 14.64 28.200000000000003, 14.715000000000002 28.230000000000004, 15.600000000000001 28.200000000000003 C 16.41 28.14, 16.515 28.11, 17.22 28.08 C 17.82 28.08, 17.88 28.154999999999998, 18.419999999999998 28.08 C 18.9 27.93, 18.915 28.185000000000002, 19.38 27.78 C 19.83 27.12, 19.905 27.195, 20.28 26.46 C 20.58 25.65, 20.475 26.009999999999998, 20.88 24.839999999999996 C 21.39 23.31, 21.54 23.025, 21.9 21.78 C 22.11 20.82, 22.215 20.490000000000002, 22.32 19.86 C 22.32 19.56, 22.29 19.424999999999997, 22.32 19.259999999999998 C 22.380000000000003 19.23, 22.41 18.915000000000003, 22.44 19.200000000000003 C 22.44 19.8, 22.410000000000004 19.424999999999997, 22.44 20.4 C 22.5 21.75, 22.365 21.945, 22.56 23.1 C 22.89 24.060000000000002, 22.74 24.195, 23.22 25.02 C 23.85 25.71, 23.955 25.875000000000004, 24.48 26.400000000000002 C 24.9 26.759999999999998, 24.84 26.909999999999997, 25.32 27.119999999999997 C 25.86 27.18, 25.800000000000004 27.42, 26.400000000000002 27.240000000000002 C 27.060000000000002 26.82, 27.15 27.150000000000002, 27.72 26.400000000000002 C 28.2 25.32, 28.35 25.245000000000005, 28.68 24.240000000000002 C 28.86 23.310000000000002, 28.905 23.85, 29.04 22.38 C 29.13 20.369999999999997, 29.174999999999997 20.52, 29.22 18.36 C 29.22 16.05, 29.31 16.065, 29.22 13.74 C 29.04 11.4, 29.13 11.145, 28.86 9.06 C 28.5 7.23, 28.515 7.035, 28.14 5.4 C 27.75 3.96, 27.674999999999997 3.45, 27.36 2.52 C 27.12 2.1, 27.315000000000005 2.055, 26.880000000000003 1.6800000000000002 C 26.25 1.35, 26.384999999999998 1.155, 25.619999999999997 1.02 C 24.72 1.08, 24.615 1.0050000000000001, 23.82 1.1400000000000001 C 23.130000000000003 1.35, 23.175 1.17, 22.44 1.56 C 21.66 2.13, 21.645 1.8900000000000001, 20.88 2.7 C 20.13 3.7500000000000004, 19.814999999999998 3.705000000000001, 19.38 4.800000000000001 C 19.259999999999998 5.94, 19.23 6.195, 19.14 7.08 C 19.08 7.71, 18.765 7.68, 19.02 8.34 C 19.59 9.030000000000001, 19.53 9.24, 20.16 9.72 C 20.85 9.99, 20.79 10.08, 21.54 10.26 C 22.35 10.35, 22.275 10.395, 23.16 10.44 C 24.119999999999997 10.44, 24.24 10.485, 25.08 10.44 C 25.799999999999997 10.35, 25.785 10.425, 26.52 10.26 C 27.27 10.02, 27.525 9.959999999999999, 28.02 9.78 C 28.259999999999998 9.66, 28.38 9.600000000000001, 28.5 9.540000000000001 C 28.5 9.540000000000001, 28.5 9.540000000000001, 28.5 9.540000000000001 C 28.5 9.540000000000001, 28.5 9.540000000000001, 28.5 9.540000000000001 C 28.5 9.540000000000001, 28.5 9.540000000000001, 28.5 9.540000000000001 C 28.5 9.540000000000001, 28.5 9.540000000000001, 28.5 9.540000000000001 L 28.5 9.540000000000001" fill="none" stroke="black" stroke-width="2"></path><path d="M 21.96 24.42 C 21.84 25.11, 21.9 24.794999999999998, 21.72 25.799999999999997 C 21.48 27.119999999999997, 21.450000000000003 27.135, 21.240000000000002 28.44 C 21.060000000000002 29.73, 21.015 29.91, 20.88 31.02 C 20.79 31.950000000000003, 20.910000000000004 31.935000000000002, 20.700000000000003 32.88 C 20.37 33.84, 20.25 33.824999999999996, 20.04 34.8 C 19.95 35.79, 19.95 35.775, 19.86 36.78 C 19.77 37.8, 19.725 38.025, 19.68 38.82 C 19.68 39.39, 19.68 39.135000000000005, 19.68 39.96 C 19.68 41.04, 19.634999999999998 41.205, 19.68 42.12 C 19.77 42.87, 19.71 43.035, 19.86 43.62 C 20.07 44.04, 20.115000000000002 44.1, 20.28 44.46 C 20.4 44.760000000000005, 20.37 44.835, 20.52 45.06 C 20.7 45.21, 20.759999999999998 45.285, 20.88 45.36 C 20.939999999999998 45.36, 20.759999999999998 45.54, 21 45.36 C 21.42 45, 21.509999999999998 44.985, 21.84 44.64 C 22.08 44.31, 22.155 44.34, 22.32 43.980000000000004 C 22.41 43.59, 22.32 43.830000000000005, 22.5 43.2 C 22.77 42.33, 22.695 42.36, 23.04 41.46 C 23.46 40.53, 23.43 40.49999999999999, 23.88 39.599999999999994 C 24.36 38.73, 24.314999999999998 38.58, 24.839999999999996 37.86 C 25.409999999999997 37.29, 25.305 37.23, 25.98 36.72 C 26.759999999999998 36.269999999999996, 26.835 36.045, 27.54 35.82 C 28.169999999999998 35.82, 28.244999999999997 35.79, 28.799999999999997 35.82 C 29.279999999999998 35.879999999999995, 29.474999999999998 35.894999999999996, 29.759999999999998 35.94 C 29.85 35.97, 29.895 35.985, 29.94 36 L 29.94 36" fill="none" stroke="black" stroke-width="2"></path></svg>