<svg xmlns="http://www.w3.org/2000/svg" viewBox="9.319999694824219 2.9600000381469727 23.206666946411133 39.52376174926758" width="23.206666946411133" height="39.52376174926758"><path d="M 10.92 3.96 C 10.92 6.75, 10.98 6.645000000000001, 10.92 9.540000000000001 C 10.8 12.54, 10.785 13.41, 10.68 15.54 C 10.59 16.799999999999997, 10.545 16.68, 10.5 18.06 C 10.5 19.56, 10.5 19.589999999999996, 10.5 21.06 C 10.5 22.5, 10.5 22.575000000000003, 10.5 23.94 C 10.5 25.23, 10.5 25.14, 10.5 26.52 C 10.5 27.990000000000002, 10.485 28.155, 10.5 29.46 C 10.530000000000001 30.6, 10.47 30.645000000000003, 10.56 31.740000000000002 C 10.71 32.79, 10.65 32.864999999999995, 10.86 33.839999999999996 C 11.129999999999999 34.739999999999995, 11.054999999999998 34.845, 11.399999999999999 35.64 C 11.82 36.33, 11.955 36.599999999999994, 12.24 37.019999999999996 C 12.39 37.17, 12.285 37.065, 12.54 37.32 C 12.899999999999999 37.68, 12.959999999999999 37.74, 13.26 38.04 C 13.5 38.28, 13.425 38.205, 13.74 38.519999999999996 C 14.129999999999999 38.91, 14.07 38.91, 14.52 39.3 C 15.03 39.69, 15.149999999999999 39.795, 15.54 40.08 C 15.81 40.26, 15.660000000000002 40.214999999999996, 16.080000000000002 40.44 C 16.65 40.71, 16.619999999999997 40.725, 17.22 40.980000000000004 C 17.85 41.22, 17.82 41.34, 18.48 41.46 C 19.17 41.46, 19.23 41.46, 19.86 41.46 C 20.43 41.46, 20.355 41.46, 21 41.46 C 21.72 41.46, 21.810000000000002 41.475, 22.44 41.46 C 22.98 41.43000000000001, 22.965 41.565000000000005, 23.52 41.400000000000006 C 24.090000000000003 41.1, 24.165000000000003 41.055, 24.660000000000004 40.8 C 25.080000000000002 40.59, 24.945 40.800000000000004, 25.5 40.38 C 26.19 39.75, 26.355000000000004 39.644999999999996, 26.880000000000003 39.12 C 27.240000000000002 38.7, 27.209999999999997 38.79, 27.599999999999998 38.28 C 28.02 37.68, 28.02 37.83, 28.44 37.08 C 28.86 36.18, 28.935000000000002 36.195, 29.28 35.28 C 29.55 34.35, 29.64 33.99, 29.82 33.42 C 29.91 33.21, 29.955 33.105000000000004, 30 33 C 30 33, 30 33, 30 33 L 30 33" fill="none" stroke="black" stroke-width="2"></path><path d="M 10.32 26.82 C 10.71 26.91, 10.545000000000002 26.955, 11.100000000000001 27 C 11.82 27, 11.669999999999998 27.12, 12.54 27 C 13.56 26.759999999999998, 13.605 26.91, 14.580000000000002 26.52 C 15.510000000000002 25.98, 15.570000000000002 26.1, 16.44 25.44 C 17.25 24.66, 17.49 24.509999999999998, 18.06 23.88 C 18.39 23.4, 18.39 23.564999999999998, 18.72 22.919999999999998 C 19.049999999999997 22.11, 19.08 22.154999999999998, 19.38 21.299999999999997 C 19.65 20.4, 19.724999999999998 20.115, 19.919999999999998 19.5 C 20.04 19.17, 20.07 19.02, 20.16 18.84 C 20.22 18.810000000000002, 20.25 18.57, 20.28 18.78 C 20.28 19.23, 20.28 18.915, 20.28 19.68 C 20.28 20.759999999999998, 20.25 20.88, 20.28 21.84 C 20.34 22.68, 20.31 22.785, 20.4 23.52 C 20.52 24.15, 20.415 24.225, 20.64 24.78 C 20.97 25.26, 20.909999999999997 25.26, 21.299999999999997 25.740000000000002 C 21.75 26.220000000000002, 21.75 26.235000000000003, 22.200000000000003 26.700000000000003 C 22.650000000000002 27.15, 22.755000000000003 27.345, 23.1 27.599999999999998 C 23.340000000000003 27.659999999999997, 23.295 27.644999999999996, 23.580000000000002 27.72 C 23.910000000000004 27.810000000000002, 23.805000000000003 27.855, 24.240000000000002 27.900000000000002 C 24.78 27.900000000000002, 24.810000000000002 27.945000000000004, 25.32 27.900000000000002 C 25.8 27.810000000000002, 25.8 27.81, 26.28 27.72 C 26.76 27.63, 26.85 27.659999999999997, 27.240000000000002 27.54 C 27.54 27.39, 27.389999999999997 27.480000000000004, 27.839999999999996 27.240000000000002 C 28.439999999999998 26.91, 28.455 27, 29.04 26.58 C 29.61 26.07, 29.715 26.13, 30.18 25.56 C 30.54 24.93, 30.57 25.049999999999997, 30.900000000000002 24.299999999999997 C 31.200000000000003 23.43, 31.35 23.25, 31.5 22.56 C 31.5 22.049999999999997, 31.5 22.125, 31.5 21.54 C 31.5 20.88, 31.560000000000002 20.7, 31.5 20.22 C 31.38 19.92, 31.485 19.950000000000003, 31.259999999999998 19.62 C 30.93 19.259999999999998, 30.9 19.185, 30.599999999999998 18.9 C 30.33 18.689999999999998, 30.389999999999997 18.630000000000003, 30.06 18.48 C 29.67 18.39, 29.7 18.345, 29.28 18.299999999999997 C 28.830000000000002 18.299999999999997, 28.845000000000002 18.254999999999995, 28.380000000000003 18.299999999999997 C 27.900000000000002 18.39, 27.78 18.345, 27.42 18.48 C 27.18 18.66, 27.270000000000003 18.585, 26.94 18.84 C 26.52 19.17, 26.61 18.990000000000002, 26.099999999999998 19.5 C 25.5 20.189999999999998, 25.44 20.174999999999997, 24.900000000000002 20.88 C 24.42 21.6, 24.48 21.435, 23.94 22.32 C 23.340000000000003 23.37, 23.115000000000002 23.700000000000003, 22.740000000000002 24.42 C 22.590000000000003 24.810000000000002, 22.590000000000003 24.840000000000003, 22.44 25.200000000000003 C 22.29 25.53, 22.215 25.65, 22.14 25.86 C 22.14 25.95, 22.14 25.994999999999997, 22.14 26.04 C 22.14 26.04, 22.14 26.009999999999998, 22.14 26.04 C 22.14 26.1, 22.14 26.130000000000003, 22.14 26.160000000000004 C 22.14 26.160000000000004, 22.14 26.160000000000004, 22.14 26.160000000000004 C 22.14 26.160000000000004, 22.14 26.160000000000004, 22.14 26.160000000000004 L 22.14 26.160000000000004" fill="none" stroke="black" stroke-width="2"></path></svg>