<svg xmlns="http://www.w3.org/2000/svg" viewBox="7.239999771118164 4.686666488647461 22.739999771118164 39.39333152770996" width="22.739999771118164" height="39.39333152770996"><path d="M 18 31.200000000000003 C 18 32.13, 18 32.010000000000005, 18 33.06 C 18 34.230000000000004, 18.015 34.185, 18 35.400000000000006 C 17.97 36.660000000000004, 18.21 36.75, 17.94 37.92 C 17.43 39, 17.52 39.12, 16.919999999999998 40.08 C 16.229999999999997 40.92, 16.185 41.099999999999994, 15.54 41.76 C 14.94 42.239999999999995, 15.09 42.405, 14.34 42.72 C 13.44 42.87, 13.349999999999998 42.94499999999999, 12.54 43.019999999999996 C 11.82 43.019999999999996, 11.685000000000002 43.154999999999994, 11.100000000000001 43.019999999999996 C 10.65 42.75, 10.665 42.96000000000001, 10.2 42.480000000000004 C 9.719999999999999 41.79, 9.675 42.36, 9.24 41.099999999999994 C 8.85 39.269999999999996, 8.7 39.404999999999994, 8.459999999999999 37.44 C 8.37 35.34, 8.325 34.995000000000005, 8.28 33.24 C 8.28 31.830000000000002, 8.28 32.205000000000005, 8.28 30.42 C 8.28 28.259999999999998, 8.28 28.169999999999998, 8.28 26.099999999999998 C 8.28 24.119999999999997, 8.28 23.985, 8.28 22.14 C 8.28 20.43, 8.28 20.04, 8.28 18.72 C 8.28 17.79, 8.19 17.924999999999997, 8.28 16.86 C 8.46 15.66, 8.415000000000001 15.66, 8.64 14.46 C 8.91 13.26, 8.955 13.11, 9.18 12.059999999999999 C 9.36 11.16, 9.375 11.055, 9.540000000000001 10.26 C 9.690000000000001 9.57, 9.615 9.555, 9.84 8.879999999999999 C 10.14 8.219999999999999, 10.184999999999999 8.085, 10.44 7.5600000000000005 C 10.649999999999999 7.17, 10.59 7.154999999999999, 10.86 6.779999999999999 C 11.19 6.42, 11.114999999999998 6.255000000000001, 11.52 6.0600000000000005 C 12 6.03, 12.045 5.985, 12.48 6 C 12.870000000000001 6.0600000000000005, 12.825 5.955, 13.26 6.12 C 13.74 6.390000000000001, 13.725000000000001 6.255, 14.22 6.66 C 14.73 7.2, 14.745 7.140000000000001, 15.24 7.74 C 15.720000000000002 8.4, 15.810000000000004 8.355, 16.200000000000003 9.06 C 16.5 9.81, 16.47 9.690000000000001, 16.799999999999997 10.56 C 17.159999999999997 11.55, 17.294999999999998 11.37, 17.52 12.54 C 17.61 13.89, 17.610000000000003 13.8, 17.700000000000003 15.24 C 17.79 16.77, 17.835 17.099999999999998, 17.88 18.299999999999997 C 17.88 19.169999999999998, 17.88 19.259999999999998, 17.88 20.04 C 17.88 20.729999999999997, 17.88 20.819999999999997, 17.88 21.419999999999998 C 17.88 21.93, 17.88 22.185000000000002, 17.88 22.44 C 17.88 22.44, 17.88 22.44, 17.88 22.44 C 17.88 22.44, 17.88 22.44, 17.88 22.44 C 17.88 22.44, 17.88 22.44, 17.88 22.44 C 17.88 22.44, 17.88 22.44, 17.88 22.44 C 17.88 22.44, 17.865 22.395000000000003, 17.88 22.44 C 17.91 22.53, 17.64 22.575000000000003, 17.94 22.62 C 18.51 22.62, 18.330000000000002 22.62, 19.080000000000002 22.62 C 20.01 22.62, 20.07 22.62, 20.94 22.62 C 21.75 22.62, 21.855 22.575000000000003, 22.56 22.62 C 23.159999999999997 22.71, 23.25 22.709999999999997, 23.759999999999998 22.799999999999997 C 24.18 22.89, 24.029999999999998 22.905, 24.599999999999998 22.98 C 25.32 23.04, 25.41 23.025000000000002, 26.04 23.1 C 26.58 23.19, 26.775 23.235, 27.119999999999997 23.28 C 27.27 23.28, 27.3 23.28, 27.42 23.28 C 27.509999999999998 23.28, 27.555 23.28, 27.599999999999998 23.28 C 27.599999999999998 23.28, 27.599999999999998 23.28, 27.599999999999998 23.28 L 27.599999999999998 23.28" fill="none" stroke="black" stroke-width="2"></path><path d="M 28.98 16.56 C 28.799999999999997 16.799999999999997, 28.949999999999996 16.845, 28.619999999999997 17.04 C 28.14 17.189999999999998, 28.17 17.22, 27.660000000000004 17.34 C 27.12 17.43, 27.24 17.475, 26.58 17.52 C 25.799999999999997 17.52, 25.65 17.52, 25.02 17.52 C 24.54 17.52, 24.494999999999997 17.61, 24.06 17.52 C 23.67 17.34, 23.715 17.505, 23.28 17.16 C 22.8 16.65, 22.71 16.635, 22.32 16.14 C 22.02 15.66, 22.005 15.735, 21.72 15.18 C 21.45 14.549999999999999, 21.345 14.549999999999997, 21.18 13.919999999999998 C 21.119999999999997 13.29, 21.09 13.41, 21.06 12.66 C 21.06 11.79, 21.014999999999997 11.865, 21.06 10.92 C 21.15 9.899999999999999, 21.045 9.87, 21.240000000000002 8.879999999999999 C 21.54 7.919999999999999, 21.54 7.634999999999999, 21.84 6.959999999999999 C 22.14 6.569999999999999, 21.885 6.4799999999999995, 22.44 6.18 C 23.25 5.97, 23.474999999999998 5.865, 24.06 5.76 C 24.42 5.76, 24.345000000000002 5.595, 24.78 5.76 C 25.29 6.09, 25.29 6.029999999999999, 25.799999999999997 6.42 C 26.31 6.87, 26.37 6.78, 26.82 7.32 C 27.21 7.95, 27.284999999999997 7.83, 27.599999999999998 8.58 C 27.839999999999996 9.45, 27.869999999999997 9.3, 28.08 10.32 C 28.259999999999998 11.49, 28.305 11.415000000000001, 28.44 12.66 C 28.53 13.98, 28.575 14.174999999999999, 28.619999999999997 15.299999999999999 C 28.619999999999997 16.23, 28.634999999999998 15.93, 28.619999999999997 17.16 C 28.589999999999996 18.689999999999998, 28.74 18.419999999999998, 28.56 20.22 C 28.23 22.29, 28.185000000000002 22.41, 27.900000000000002 24.36 C 27.660000000000004 26.189999999999998, 27.645000000000003 26.205, 27.42 28.02 C 27.21 29.82, 27.15 29.955, 27 31.619999999999997 C 26.91 33.15, 26.91 33.285, 26.82 34.68 C 26.73 35.94, 26.775 35.955, 26.64 37.2 C 26.46 38.43000000000001, 26.415000000000003 38.7, 26.28 39.660000000000004 C 26.189999999999998 40.35, 26.145 40.665, 26.099999999999998 41.04 C 26.099999999999998 41.1, 26.099999999999998 41.13, 26.099999999999998 41.160000000000004 C 26.099999999999998 41.160000000000004, 26.129999999999995 41.11500000000001, 26.099999999999998 41.160000000000004 L 25.98 41.339999999999996" fill="none" stroke="black" stroke-width="2"></path></svg>