<svg xmlns="http://www.w3.org/2000/svg" viewBox="11.779999732971191 2.7799999713897705 22.846487998962402 43.58000063896179" width="22.846487998962402" height="43.58000063896179"><path d="M 14.28 3.7800000000000002 C 14.399999999999999 4.38, 14.37 3.84, 14.52 4.9799999999999995 C 14.7 6.66, 14.79 6.42, 14.879999999999999 8.34 C 14.879999999999999 10.5, 14.879999999999999 10.905000000000001, 14.879999999999999 12.66 C 14.879999999999999 14.01, 14.895 14.265, 14.879999999999999 15.36 C 14.85 16.2, 14.82 16.169999999999998, 14.82 17.04 C 14.85 17.939999999999998, 14.76 18.12, 14.879999999999999 18.84 C 15.09 19.38, 15.014999999999999 19.47, 15.299999999999999 19.919999999999998 C 15.66 20.28, 15.629999999999999 20.384999999999998, 16.02 20.64 C 16.439999999999998 20.79, 16.305 20.805, 16.86 20.94 C 17.55 21.060000000000002, 17.325000000000003 21.075, 18.240000000000002 21.18 C 19.380000000000003 21.27, 19.275 21.314999999999998, 20.52 21.36 C 21.869999999999997 21.36, 21.99 21.36, 23.22 21.36 C 24.33 21.36, 24.525 21.314999999999998, 25.44 21.36 C 26.160000000000004 21.45, 26.160000000000004 21.45, 26.880000000000003 21.54 C 27.6 21.63, 27.645000000000003 21.674999999999997, 28.32 21.72 C 28.95 21.72, 29.07 21.72, 29.58 21.72 C 29.97 21.72, 29.97 21.72, 30.36 21.72 C 30.75 21.72, 30.795 21.72, 31.14 21.72 C 31.44 21.72, 31.455000000000002 21.81, 31.740000000000002 21.72 C 32.010000000000005 21.54, 32.04 21.78, 32.28 21.36 C 32.49 20.7, 32.505 21.104999999999997, 32.7 20.04 C 32.88 18.57, 32.910000000000004 18.825000000000003, 33.06 17.1 C 33.18 15.120000000000001, 33.239999999999995 14.985000000000001, 33.3 13.14 C 33.3 11.43, 33.3 11.16, 33.3 9.72 C 33.3 8.55, 33.39 8.25, 33.3 7.38 C 33.12 6.8100000000000005, 33.16499999999999 6.66, 32.94 6.24 C 32.67 5.97, 32.86500000000001 6.09, 32.400000000000006 5.699999999999999 C 31.740000000000002 5.1899999999999995, 31.71 4.994999999999999, 31.08 4.68 C 30.48 4.56, 30.540000000000003 4.5, 29.880000000000003 4.4399999999999995 C 29.160000000000004 4.4399999999999995, 29.175 4.169999999999999, 28.44 4.4399999999999995 C 27.69 4.98, 27.51 4.86, 26.94 5.5200000000000005 C 26.550000000000004 6.300000000000001, 26.520000000000003 6.255, 26.160000000000004 7.08 C 25.830000000000002 7.95, 25.785 7.7700000000000005, 25.5 8.82 C 25.259999999999998 10.05, 25.064999999999998 10.41, 25.02 11.28 C 25.17 11.79, 24.915 11.819999999999999, 25.32 12.299999999999999 C 25.98 12.75, 26.04 12.885000000000002, 26.64 13.200000000000001 C 27.18 13.379999999999999, 26.924999999999997 13.41, 27.72 13.559999999999999 C 28.77 13.68, 28.935000000000002 13.739999999999998, 29.82 13.799999999999999 C 30.54 13.799999999999999, 30.63 13.799999999999999, 31.259999999999998 13.799999999999999 C 31.799999999999997 13.799999999999999, 32.03999999999999 13.799999999999999, 32.339999999999996 13.799999999999999 C 32.4 13.799999999999999, 32.385 13.844999999999999, 32.46 13.799999999999999 C 32.55 13.71, 32.595 13.665000000000001, 32.64 13.620000000000001 C 32.64 13.620000000000001, 32.64 13.620000000000001, 32.64 13.620000000000001 C 32.64 13.620000000000001, 32.64 13.620000000000001, 32.64 13.620000000000001 L 32.64 13.620000000000001" fill="none" stroke="black" stroke-width="2"></path><path d="M 22.5 21.36 C 22.5 21.81, 22.5 21.705, 22.5 22.259999999999998 C 22.5 22.92, 22.425 22.725, 22.5 23.580000000000002 C 22.65 24.630000000000003, 22.589999999999996 24.855, 22.799999999999997 25.68 C 23.07 26.28, 22.814999999999998 26.145000000000003, 23.34 26.880000000000003 C 24.12 27.75, 24.195 28.049999999999997, 24.900000000000002 28.619999999999997 C 25.53 28.89, 25.365000000000006 28.89, 26.160000000000004 29.160000000000004 C 27.12 29.430000000000003, 26.82 29.355000000000004, 28.08 29.700000000000003 C 29.64 30.12, 29.835 30.119999999999997, 31.200000000000003 30.54 C 32.370000000000005 30.96, 32.955 31.17, 33.54 31.380000000000003 C 33.54 31.380000000000003, 33.525 31.290000000000003, 33.54 31.380000000000003 C 33.56999999999999 31.560000000000002, 33.675 31.395000000000003, 33.599999999999994 31.740000000000002 C 33.42 32.25, 33.66 32.355, 33.24 32.76 C 32.58 33.06, 32.52 33.135, 31.92 33.36 C 31.38 33.510000000000005, 31.514999999999997 33.510000000000005, 30.839999999999996 33.660000000000004 C 30.029999999999998 33.81, 29.894999999999996 33.795, 29.22 33.96 C 28.68 34.14, 29.175 34.065, 28.14 34.32 C 26.61 34.650000000000006, 26.729999999999997 34.425000000000004, 25.08 34.980000000000004 C 23.31 35.760000000000005, 22.83 35.79, 21.54 36.54 C 20.729999999999997 37.260000000000005, 20.504999999999995 37.35, 19.919999999999998 37.980000000000004 C 19.560000000000002 38.52, 19.53 38.31, 19.200000000000003 39.06 C 18.900000000000002 40.02, 18.855000000000004 39.900000000000006, 18.6 40.980000000000004 C 18.39 42.18000000000001, 18.285 42.435, 18.18 43.38 C 18.18 44.07, 18.18 44.265, 18.18 44.76 C 18.18 45.06, 18.18 45.21, 18.18 45.36 C 18.18 45.36, 18.18 45.36, 18.18 45.36 L 18.18 45.36" fill="none" stroke="black" stroke-width="2"></path><path d="M 12.78 28.68 C 13.68 29.369999999999997, 13.575000000000003 29.325, 14.580000000000002 30.06 C 15.69 30.839999999999996, 15.779999999999998 30.719999999999995, 16.799999999999997 31.619999999999997 C 17.729999999999997 32.64, 18 32.85, 18.66 33.660000000000004 C 19.05 34.260000000000005, 19.035 34.230000000000004, 19.44 34.86 C 19.86 35.519999999999996, 20.01 35.715, 20.28 36.18 C 20.4 36.45, 20.445 36.555, 20.52 36.72 C 20.55 36.78, 20.565 36.809999999999995, 20.580000000000002 36.839999999999996 C 20.580000000000002 36.839999999999996, 20.580000000000002 36.839999999999996, 20.580000000000002 36.839999999999996 L 20.580000000000002 36.839999999999996" fill="none" stroke="black" stroke-width="2"></path></svg>