<svg xmlns="http://www.w3.org/2000/svg" viewBox="10.273333549499512 4.460000038146973 16.612936973571777 40.339999198913574" width="16.612936973571777" height="40.339999198913574"><path d="M 13.26 43.8 C 12.809999999999999 42.72, 12.735 42.93, 12.36 41.64 C 12.059999999999999 40.14, 11.985 39.825, 11.76 38.64 C 11.61 37.77, 11.535 37.935, 11.459999999999999 36.900000000000006 C 11.459999999999999 35.7, 11.504999999999999 35.685, 11.459999999999999 34.5 C 11.37 33.33, 11.325 33.435, 11.28 32.160000000000004 C 11.28 30.78, 11.28 30.495000000000005, 11.28 29.400000000000002 C 11.28 28.590000000000003, 11.264999999999999 28.695, 11.28 27.78 C 11.309999999999999 26.76, 11.25 26.685000000000002, 11.34 25.740000000000002 C 11.49 24.87, 11.475000000000001 24.75, 11.64 24 C 11.82 23.37, 11.805 23.310000000000002, 12 22.740000000000002 C 12.209999999999999 22.23, 12.224999999999998 22.215, 12.419999999999998 21.72 C 12.599999999999998 21.24, 12.555 21.209999999999997, 12.78 20.759999999999998 C 13.05 20.339999999999996, 13.02 20.294999999999998, 13.32 19.919999999999998 C 13.65 19.589999999999996, 13.74 19.47, 13.98 19.259999999999998 C 14.129999999999999 19.17, 14.084999999999999 19.14, 14.28 19.080000000000002 C 14.52 19.05, 14.504999999999999 18.945, 14.76 19.02 C 15.03 19.2, 14.999999999999998 19.049999999999997, 15.299999999999999 19.38 C 15.629999999999999 19.86, 15.66 19.86, 15.96 20.34 C 16.23 20.82, 16.2 20.685, 16.5 21.299999999999997 C 16.83 22.049999999999997, 16.845 21.809999999999995, 17.16 22.799999999999997 C 17.46 24.029999999999998, 17.519999999999996 24.404999999999998, 17.759999999999998 25.259999999999998 C 17.939999999999998 25.74, 18.015 25.904999999999998, 18.12 26.22 C 18.15 26.369999999999997, 18.165 26.445, 18.18 26.52 C 18.18 26.52, 18.18 26.549999999999997, 18.18 26.52 C 18.18 26.46, 18.18 26.76, 18.18 26.400000000000002 C 18.18 25.740000000000002, 18.15 25.875, 18.18 25.08 C 18.24 24.15, 18.165 24.015, 18.299999999999997 23.22 C 18.509999999999998 22.56, 18.494999999999997 22.47, 18.72 21.9 C 18.96 21.42, 18.96 21.345, 19.200000000000003 20.94 C 19.44 20.61, 19.380000000000003 20.655, 19.68 20.28 C 20.04 19.86, 20.055 19.8, 20.4 19.44 C 20.729999999999997 19.14, 20.685 19.095, 21.06 18.84 C 21.479999999999997 18.63, 21.465 18.54, 21.9 18.419999999999998 C 22.349999999999998 18.39, 22.379999999999995 18.419999999999998, 22.799999999999997 18.36 C 23.189999999999998 18.27, 23.19 18.225, 23.580000000000002 18.18 C 23.97 18.18, 24 18.15, 24.36 18.18 C 24.689999999999998 18.24, 24.825 18.254999999999995, 25.02 18.299999999999997 C 25.08 18.33, 25.065 18.299999999999997, 25.14 18.36 L 25.32 18.54" fill="none" stroke="black" stroke-width="2"></path><path d="M 20.82 5.46 C 20.43 5.58, 20.655 5.324999999999999, 20.04 5.699999999999999 C 19.2 6.329999999999999, 19.2 6.254999999999999, 18.36 6.959999999999999 C 17.52 7.739999999999999, 17.355 7.92, 16.68 8.52 C 16.17 8.94, 16.47 8.805, 15.66 9.36 C 14.55 10.05, 14.07 10.335, 13.440000000000001 10.74 C 13.290000000000001 10.86, 13.215 10.92, 13.14 10.98 L 13.14 10.98" fill="none" stroke="black" stroke-width="2"></path><path d="M 25.86 6.36 C 25.77 6.84, 26.07 6.75, 25.68 7.32 C 24.99 7.98, 24.9 8.010000000000002, 24.299999999999997 8.64 C 23.79 9.24, 23.91 9.120000000000001, 23.28 9.84 C 22.53 10.68, 22.380000000000003 10.844999999999999, 21.78 11.52 C 21.33 12.03, 21.165 12.195, 20.88 12.54 C 20.759999999999998 12.719999999999999, 20.73 12.779999999999998, 20.64 12.899999999999999 L 20.52 13.02" fill="none" stroke="black" stroke-width="2"></path><path d="M 18.78 33.480000000000004 C 18.450000000000003 33.84, 18.3 33.78, 18.12 34.2 C 18.09 34.68000000000001, 17.82 34.845000000000006, 18.06 35.160000000000004 C 18.57 35.31, 18.675 35.385000000000005, 19.080000000000002 35.46 C 19.380000000000003 35.46, 19.41 35.655, 19.68 35.46 C 19.92 35.07, 20.04 35.07, 20.16 34.68 C 20.16 34.290000000000006, 20.205 34.185, 20.16 33.900000000000006 C 20.07 33.72, 20.1 33.675, 19.98 33.54 C 19.83 33.45, 19.92 33.315, 19.68 33.36 C 19.35 33.54, 19.215 33.435, 19.02 33.72 C 18.96 34.11, 18.93 34.185, 18.9 34.5 C 18.9 34.74, 18.824999999999996 34.830000000000005, 18.9 34.980000000000004 C 19.05 35.04, 19.005000000000003 35.205, 19.200000000000003 35.099999999999994 C 19.44 34.83, 19.515 34.845, 19.68 34.56 C 19.77 34.260000000000005, 19.814999999999998 34.185, 19.86 33.96 C 19.86 33.81, 19.98 33.78, 19.86 33.660000000000004 C 19.619999999999997 33.57000000000001, 19.575 33.45, 19.38 33.480000000000004 C 19.23 33.63, 19.23 33.495000000000005, 19.080000000000002 33.78 C 18.93 34.2, 18.855 34.364999999999995, 18.78 34.62 C 18.78 34.709999999999994, 18.78 34.754999999999995, 18.78 34.8 L 18.78 34.8" fill="none" stroke="black" stroke-width="2"></path><path d="M 16.799999999999997 40.14 C 17.549999999999997 40.08, 17.189999999999998 40.125, 18.299999999999997 40.019999999999996 C 19.77 39.87, 20.115000000000002 39.795, 21.240000000000002 39.72 C 22.02 39.72, 22.139999999999997 39.72, 22.799999999999997 39.72 C 23.339999999999996 39.72, 23.415 39.72, 23.88 39.72 C 24.270000000000003 39.72, 24.465000000000003 39.72, 24.660000000000004 39.72 C 24.660000000000004 39.72, 24.660000000000004 39.72, 24.660000000000004 39.72 L 24.660000000000004 39.72" fill="none" stroke="black" stroke-width="2"></path></svg>