<svg xmlns="http://www.w3.org/2000/svg" viewBox="11.779999732971191 2.240000009536743 19.72666645050049 43.46000075340271" width="19.72666645050049" height="43.46000075340271"><path d="M 15.48 32.099999999999994 C 16.47 32.16, 16.605 32.19, 17.46 32.22 C 18.18 32.22, 18.21 32.31, 18.9 32.22 C 19.56 32.04, 19.634999999999998 32.085, 20.22 31.86 C 20.73 31.59, 20.775000000000002 31.65, 21.240000000000002 31.32 C 21.660000000000004 30.93, 21.735000000000003 30.869999999999997, 22.080000000000002 30.54 C 22.35 30.27, 22.35 30.375, 22.62 30 C 22.89 29.52, 22.875 29.669999999999998, 23.16 29.04 C 23.46 28.259999999999998, 23.549999999999997 28.245, 23.759999999999998 27.48 C 23.88 26.73, 23.939999999999998 26.55, 24 25.98 C 24 25.590000000000003, 24 25.470000000000002, 24 25.200000000000003 C 24 25.050000000000004, 24 24.975, 24 24.900000000000002 C 24 24.900000000000002, 23.925 24.840000000000003, 24 24.900000000000002 C 24.15 25.020000000000003, 24.179999999999996 24.765, 24.299999999999997 25.14 C 24.39 25.770000000000003, 24.285 25.665000000000003, 24.48 26.400000000000002 C 24.78 27.240000000000002, 24.764999999999997 27.33, 25.08 28.08 C 25.41 28.740000000000002, 25.380000000000003 28.68, 25.740000000000002 29.400000000000002 C 26.130000000000003 30.18, 26.16 30.42, 26.52 30.96 C 26.85 31.259999999999998, 26.939999999999998 31.365, 27.18 31.56 C 27.33 31.65, 27.285 31.695, 27.48 31.740000000000002 C 27.72 31.740000000000002, 27.675 31.830000000000002, 27.96 31.740000000000002 C 28.29 31.560000000000002, 28.349999999999998 31.635000000000005, 28.619999999999997 31.380000000000003 C 28.83 31.05, 28.784999999999997 31.185, 29.04 30.72 C 29.34 30.119999999999997, 29.37 30.255, 29.64 29.52 C 29.88 28.65, 29.955 28.725, 30.119999999999997 27.78 C 30.209999999999997 26.76, 30.209999999999997 26.865000000000002, 30.299999999999997 25.740000000000002 C 30.39 24.51, 30.435 24.255000000000003, 30.48 23.28 C 30.48 22.560000000000002, 30.54 22.995, 30.48 21.84 C 30.36 20.25, 30.3 20.175, 30.240000000000002 18.66 C 30.240000000000002 17.22, 30.330000000000002 17.13, 30.240000000000002 15.78 C 30.060000000000002 14.52, 30.03 14.399999999999999, 29.880000000000003 13.26 C 29.76 12.24, 29.805 12.165000000000001, 29.64 11.22 C 29.43 10.350000000000001, 29.415 10.395, 29.22 9.48 C 29.04 8.52, 29.025 8.235000000000001, 28.86 7.5600000000000005 C 28.71 7.17, 28.695 7.14, 28.56 6.779999999999999 C 28.439999999999998 6.449999999999999, 28.455 6.405, 28.32 6.12 C 28.17 5.88, 28.17 5.88, 28.02 5.64 C 27.869999999999997 5.4, 27.825 5.325, 27.72 5.16 C 27.659999999999997 5.07, 27.644999999999996 5.069999999999999, 27.599999999999998 4.9799999999999995 C 27.57 4.890000000000001, 27.599999999999998 4.890000000000001, 27.54 4.800000000000001 C 27.45 4.710000000000001, 27.525 4.68, 27.36 4.62 C 27.12 4.59, 27.240000000000002 4.44, 26.880000000000003 4.5600000000000005 C 26.400000000000002 4.83, 26.370000000000005 4.83, 25.92 5.1 C 25.5 5.369999999999999, 25.394999999999996 5.3999999999999995, 25.08 5.64 C 24.87 5.85, 24.885000000000005 5.79, 24.660000000000004 6.0600000000000005 C 24.42 6.390000000000001, 24.57 6.135000000000002, 24.18 6.720000000000001 C 23.64 7.56, 23.625 7.454999999999998, 23.1 8.399999999999999 C 22.590000000000003 9.45, 22.515 9.525, 22.080000000000002 10.5 C 21.72 11.399999999999999, 21.69 11.475, 21.36 12.299999999999999 C 21.06 13.049999999999999, 21 13.229999999999999, 20.759999999999998 13.799999999999999 C 20.58 14.190000000000001, 20.49 14.385000000000002, 20.4 14.580000000000002 L 20.4 14.580000000000002" fill="none" stroke="black" stroke-width="2"></path><path d="M 19.44 3.24 C 19.020000000000003 3.5700000000000003, 19.17 3.2250000000000005, 18.6 3.9000000000000004 C 17.880000000000003 4.92, 17.835 4.949999999999999, 17.16 5.9399999999999995 C 16.53 6.9, 16.47 6.93, 15.899999999999999 7.86 C 15.389999999999999 8.76, 15.344999999999999 8.715, 14.879999999999999 9.66 C 14.459999999999999 10.65, 14.415 10.665000000000001, 14.04 11.64 C 13.709999999999999 12.6, 13.604999999999999 12.794999999999998, 13.379999999999999 13.559999999999999 L 13.14 14.700000000000001" fill="none" stroke="black" stroke-width="2"></path><path d="M 20.700000000000003 36.96 C 20.25 37.230000000000004, 20.084999999999997 37.11, 19.799999999999997 37.5 C 19.68 38.01, 19.529999999999998 38.144999999999996, 19.56 38.519999999999996 C 19.74 38.76, 19.634999999999998 38.85, 19.919999999999998 39 C 20.310000000000002 39.06, 20.340000000000003 39.405, 20.700000000000003 39.12 C 21.03 38.489999999999995, 21.195 38.55, 21.36 37.86 C 21.36 37.11, 21.405 36.855, 21.36 36.36 C 21.27 36.120000000000005, 21.66 36.06, 21.18 35.88 C 20.310000000000002 35.760000000000005, 20.205000000000002 35.325, 19.44 35.64 C 18.78 36.39, 18.450000000000003 36.345, 18.12 37.14 C 18.12 37.980000000000004, 17.865000000000002 38.265, 18.12 38.82 C 18.630000000000003 39.09, 18.555 39.18, 19.14 39.36 C 19.8 39.45, 19.98 39.839999999999996, 20.46 39.54 C 20.759999999999998 38.85, 20.91 38.790000000000006, 21.06 38.160000000000004 C 21.06 37.59, 21.404999999999998 37.41, 21.06 37.019999999999996 C 20.369999999999997 36.809999999999995, 20.189999999999998 36.614999999999995, 19.68 36.599999999999994 C 19.35 36.78, 19.335 36.42, 19.02 36.96 C 18.72 37.86, 18.525 38.07, 18.419999999999998 38.76 C 18.509999999999998 39.239999999999995, 18.165 39.51, 18.6 39.72 C 19.380000000000003 39.66, 19.515 39.974999999999994, 20.16 39.599999999999994 C 20.67 38.91, 20.939999999999998 38.745, 21.18 38.22 L 21.12 37.5" fill="none" stroke="black" stroke-width="2"></path><path d="M 12.78 44.7 C 13.02 44.7, 12.645 44.7, 13.26 44.7 C 14.25 44.7, 14.01 44.7, 15.24 44.7 C 16.71 44.7, 16.74 44.7, 18.18 44.7 C 19.59 44.7, 19.605 44.7, 21 44.7 C 22.38 44.7, 22.74 44.7, 23.759999999999998 44.7 C 24.419999999999998 44.7, 24.674999999999997 44.7, 25.08 44.7 C 25.23 44.7, 25.26 44.7, 25.380000000000003 44.7 L 25.56 44.7" fill="none" stroke="black" stroke-width="2"></path></svg>