<svg xmlns="http://www.w3.org/2000/svg" viewBox="10.213333129882812 3.619999885559082 21.02666664123535 42.42000102996826" width="21.02666664123535" height="42.42000102996826"><path d="M 18.9 44.7 C 18.119999999999997 44.7, 18.18 44.7, 17.34 44.7 C 16.439999999999998 44.7, 16.349999999999998 44.7, 15.54 44.7 C 14.82 44.7, 14.610000000000001 44.685, 14.100000000000001 44.7 C 13.8 44.730000000000004, 13.845 44.7, 13.5 44.76 C 13.11 44.849999999999994, 12.990000000000002 44.894999999999996, 12.72 44.94 C 12.57 44.94, 12.495 44.94, 12.419999999999998 44.94 C 12.419999999999998 44.94, 12.464999999999998 44.94, 12.419999999999998 44.94 C 12.329999999999998 44.94, 12.39 45.165, 12.24 44.94 C 12.030000000000001 44.489999999999995, 11.97 45.06, 11.82 44.04 C 11.73 42.45, 11.73 42.36, 11.64 40.86 C 11.55 39.45, 11.565 39.675, 11.459999999999999 38.04 C 11.34 36.18, 11.280000000000001 35.865, 11.22 34.32 C 11.22 33.09, 11.205000000000002 33.165, 11.22 31.86 C 11.25 30.479999999999997, 11.174999999999999 30.584999999999997, 11.28 29.099999999999998 C 11.46 27.509999999999998, 11.43 27.315, 11.64 25.92 C 11.88 24.72, 11.925 24.435000000000002, 12.120000000000001 23.52 C 12.27 22.89, 12.194999999999999 22.994999999999997, 12.419999999999998 22.259999999999998 C 12.719999999999999 21.42, 12.719999999999999 21.330000000000002, 13.02 20.580000000000002 C 13.32 19.92, 13.365000000000002 19.755, 13.620000000000001 19.259999999999998 C 13.83 18.93, 13.725 19.005000000000003, 14.04 18.6 C 14.459999999999999 18.12, 14.594999999999999 17.955000000000002, 14.879999999999999 17.64 C 15.03 17.490000000000002, 15.015 17.46, 15.18 17.34 C 15.36 17.25, 15.18 17.205, 15.54 17.16 C 16.08 17.16, 16.23 17.16, 16.62 17.16 C 16.86 17.16, 16.830000000000002 17.1, 17.1 17.16 C 17.400000000000002 17.28, 17.355000000000004 17.009999999999998, 17.700000000000003 17.4 C 18.090000000000003 18.06, 18.090000000000003 18, 18.48 18.72 C 18.869999999999997 19.5, 18.93 19.29, 19.259999999999998 20.28 C 19.529999999999998 21.48, 19.574999999999996 21.3, 19.799999999999997 22.68 C 19.979999999999997 24.24, 20.025 24.419999999999995, 20.16 25.799999999999997 C 20.25 27, 20.295 27.555, 20.34 28.200000000000003 C 20.34 28.290000000000003, 20.34 28.335, 20.34 28.380000000000003 C 20.34 28.380000000000003, 20.34 28.575000000000003, 20.34 28.380000000000003 C 20.34 27.990000000000002, 20.34 28.349999999999998, 20.34 27.599999999999998 C 20.34 26.490000000000002, 20.25 26.415000000000003, 20.34 25.380000000000003 C 20.520000000000003 24.42, 20.520000000000003 24.345000000000002, 20.700000000000003 23.46 C 20.880000000000003 22.65, 20.835 22.56, 21.06 21.84 C 21.33 21.21, 21.315 21.150000000000002, 21.6 20.580000000000002 C 21.900000000000002 20.07, 21.930000000000003 19.98, 22.200000000000003 19.56 C 22.44 19.229999999999997, 22.47 19.154999999999998, 22.68 18.9 C 22.86 18.72, 22.755 18.689999999999998, 23.04 18.54 C 23.43 18.419999999999998, 23.475 18.36, 23.82 18.299999999999997 C 24.12 18.299999999999997, 24.105000000000004 18.269999999999996, 24.42 18.299999999999997 C 24.75 18.36, 24.78 18.284999999999997, 25.08 18.419999999999998 C 25.349999999999998 18.63, 25.365 18.525, 25.619999999999997 18.84 C 25.86 19.259999999999998, 25.769999999999996 19.035, 26.099999999999998 19.68 C 26.52 20.549999999999997, 26.64 20.64, 26.94 21.419999999999998 C 27.119999999999997 22.11, 27.089999999999996 21.569999999999997, 27.299999999999997 22.799999999999997 C 27.54 24.569999999999997, 27.54 24.494999999999997, 27.78 26.339999999999996 C 28.02 28.259999999999998, 28.14 28.034999999999997, 28.259999999999998 30.18 C 28.259999999999998 32.55, 28.259999999999998 33.195, 28.259999999999998 34.92 C 28.259999999999998 36, 28.259999999999998 35.805, 28.259999999999998 37.08 C 28.259999999999998 38.55, 28.349999999999998 38.864999999999995, 28.259999999999998 40.019999999999996 C 28.08 40.86, 27.990000000000002 41.085, 27.900000000000002 41.7 C 27.900000000000002 42.09, 27.990000000000002 42.09, 27.900000000000002 42.480000000000004 C 27.72 42.870000000000005, 27.645 42.885, 27.54 43.26 C 27.509999999999998 43.620000000000005, 27.509999999999998 43.575, 27.48 43.980000000000004 C 27.450000000000003 44.43000000000001, 27.435000000000002 44.655, 27.42 44.88 C 27.42 44.88, 27.42 44.88, 27.42 44.88 L 27.42 44.88" fill="none" stroke="black" stroke-width="2"></path><path d="M 23.4 4.62 C 23.07 4.8, 23.235000000000003 4.545, 22.740000000000002 4.9799999999999995 C 22.08 5.67, 22.515 5.430000000000001, 21.419999999999998 6.36 C 19.89 7.529999999999999, 19.919999999999998 7.514999999999999, 18.36 8.7 C 16.77 9.9, 16.305 10.335, 15.18 11.100000000000001 C 14.52 11.43, 14.28 11.55, 13.86 11.76 L 13.5 11.94" fill="none" stroke="black" stroke-width="2"></path><path d="M 30.240000000000002 6.66 C 29.61 7.26, 29.745 7.215, 28.98 7.86 C 28.08 8.55, 27.93 8.625, 27.18 9.24 C 26.58 9.780000000000001, 26.805 9.705, 25.98 10.32 C 24.93 11.01, 24.54 11.219999999999999, 23.88 11.7 C 23.61 11.969999999999999, 23.475 12.105, 23.34 12.24 L 23.34 12.24" fill="none" stroke="black" stroke-width="2"></path></svg>