<svg xmlns="http://www.w3.org/2000/svg" viewBox="15.600000381469727 3.679999828338623 17.920000076293945 40.75999927520752" width="17.920000076293945" height="40.75999927520752"><path d="M 27.839999999999996 4.68 C 27.24 5.279999999999999, 27.195 5.369999999999999, 26.64 5.88 C 26.13 6.300000000000001, 26.294999999999998 6.135000000000001, 25.619999999999997 6.720000000000001 C 24.78 7.470000000000001, 24.9 7.380000000000001, 23.94 8.22 C 22.86 9.15, 22.695 9.315000000000001, 21.78 10.08 C 21.03 10.68, 20.910000000000004 10.799999999999999, 20.28 11.28 C 19.77 11.64, 19.68 11.745000000000001, 19.259999999999998 12 C 18.93 12.149999999999999, 18.810000000000002 12.18, 18.6 12.299999999999999 C 18.509999999999998 12.39, 18.465 12.435, 18.419999999999998 12.48 L 18.419999999999998 12.48" fill="none" stroke="black" stroke-width="2"></path><path d="M 32.519999999999996 6.48 C 31.86 7.38, 31.770000000000003 7.529999999999999, 31.200000000000003 8.28 C 30.720000000000002 8.879999999999999, 30.825000000000003 8.79, 30.240000000000002 9.48 C 29.55 10.260000000000002, 29.7 10.155000000000001, 28.86 11.040000000000001 C 27.87 12.030000000000001, 27.765 12.135, 26.880000000000003 13.02 C 26.1 13.8, 26.1 13.845000000000002, 25.32 14.580000000000002 C 24.54 15.270000000000001, 24.659999999999997 15.255000000000003, 23.759999999999998 15.96 C 22.74 16.68, 22.665 16.74, 21.72 17.4 C 20.85 18, 20.595 18.165, 19.98 18.6 C 19.619999999999997 18.87, 19.604999999999997 18.885, 19.259999999999998 19.14 C 18.93 19.380000000000003, 18.975 19.335, 18.6 19.62 C 18.18 19.950000000000003, 18.134999999999998 19.98, 17.759999999999998 20.28 C 17.43 20.55, 17.265 20.685000000000002, 17.1 20.82 C 17.1 20.82, 17.115000000000002 20.745, 17.1 20.82 C 17.07 20.97, 17.009999999999998 20.925, 17.04 21.12 C 17.13 21.36, 17.174999999999997 21.060000000000002, 17.22 21.6 C 17.22 22.44, 17.235 22.155, 17.22 23.28 C 17.189999999999998 24.689999999999998, 17.175 25.14, 17.16 26.099999999999998 C 17.16 26.61, 17.16 26.414999999999996, 17.16 27.119999999999997 C 17.16 28.02, 17.19 27.885, 17.16 28.92 C 17.1 30.09, 17.07 30.134999999999998, 17.04 31.259999999999998 C 17.04 32.34, 17.04 32.55, 17.04 33.42 C 17.04 34.08, 17.085 33.795, 17.04 34.74 C 16.95 35.97, 16.935 36.18000000000001, 16.86 37.2 C 16.8 38.010000000000005, 16.785000000000004 38.1, 16.740000000000002 38.82 C 16.71 39.45, 16.695 39.54, 16.68 40.08 C 16.68 40.53, 16.68 40.71, 16.68 40.980000000000004 C 16.68 41.07000000000001, 16.68 41.040000000000006, 16.68 41.160000000000004 C 16.68 41.31, 16.5 41.205, 16.68 41.46 C 17.04 41.82, 17.099999999999998 41.94, 17.4 42.18 C 17.64 42.3, 17.655 42.36, 17.88 42.42 C 18.089999999999996 42.42, 18.104999999999997 42.42, 18.299999999999997 42.42 C 18.479999999999997 42.42, 18.345 42.42, 18.66 42.42 C 19.11 42.42, 19.08 42.39, 19.56 42.42 C 20.07 42.480000000000004, 19.8 42.42, 20.580000000000002 42.54 C 21.630000000000003 42.72, 21.645 42.76500000000001, 22.68 42.900000000000006 C 23.7 42.99, 23.849999999999998 42.99, 24.72 43.08 C 25.44 43.17, 25.515000000000004 43.17, 26.160000000000004 43.26 C 26.73 43.349999999999994, 26.79 43.394999999999996, 27.299999999999997 43.44 C 27.75 43.44, 27.975 43.44, 28.200000000000003 43.44 C 28.200000000000003 43.44, 28.155 43.44, 28.200000000000003 43.44 C 28.290000000000003 43.44, 28.335 43.44, 28.380000000000003 43.44 C 28.380000000000003 43.44, 28.380000000000003 43.44, 28.380000000000003 43.44 C 28.380000000000003 43.44, 28.380000000000003 43.44, 28.380000000000003 43.44 L 28.380000000000003 43.44" fill="none" stroke="black" stroke-width="2"></path></svg>