<svg xmlns="http://www.w3.org/2000/svg" viewBox="13.100000381469727 2.9600000381469727 18.979999542236328 41.179999351501465" width="18.979999542236328" height="41.179999351501465"><path d="M 14.580000000000002 16.56 C 14.850000000000001 16.56, 14.385000000000002 16.56, 15.120000000000001 16.56 C 16.32 16.56, 16.095 16.575, 17.52 16.56 C 19.17 16.53, 19.275 16.56, 20.82 16.5 C 22.26 16.41, 22.500000000000004 16.365000000000002, 23.700000000000003 16.32 C 24.66 16.32, 24.81 16.32, 25.619999999999997 16.32 C 26.28 16.32, 26.37 16.32, 26.94 16.32 C 27.42 16.32, 27.585 16.29, 27.900000000000002 16.32 C 28.050000000000004 16.380000000000003, 28.005000000000003 16.35, 28.200000000000003 16.44 C 28.44 16.560000000000002, 28.425 16.425, 28.68 16.68 C 28.95 17.07, 29.07 17.07, 29.22 17.46 C 29.25 17.85, 29.265 17.805, 29.28 18.240000000000002 C 29.28 18.720000000000002, 29.28 18.495000000000005, 29.28 19.200000000000003 C 29.28 20.130000000000003, 29.295 19.814999999999998, 29.28 21.06 C 29.25 22.619999999999997, 29.325 22.665, 29.22 24.18 C 29.04 25.65, 28.994999999999997 25.739999999999995, 28.86 27.119999999999997 C 28.77 28.41, 28.845 28.095000000000002, 28.68 29.700000000000003 C 28.44 31.62, 28.425000000000004 31.695, 28.200000000000003 33.54 C 27.990000000000002 35.31, 27.96 35.445, 27.78 37.08 C 27.630000000000003 38.58, 27.630000000000003 38.864999999999995, 27.48 40.08 C 27.33 41.01, 27.255 41.4, 27.18 41.94 C 27.18 42.09, 27.18 42.09, 27.18 42.24 C 27.18 42.39, 27.18 42.465, 27.18 42.54 C 27.18 42.54, 27.18 42.42, 27.18 42.54 C 27.18 42.78, 27.18 42.9, 27.18 43.019999999999996 C 27.18 43.019999999999996, 27.18 42.989999999999995, 27.18 43.019999999999996 C 27.18 43.08, 27.18 43.11, 27.18 43.14 L 27.18 43.14" fill="none" stroke="black" stroke-width="2"></path><path d="M 19.86 23.16 C 18.33 24.09, 17.775 24.3, 16.799999999999997 25.02 C 16.38 25.53, 16.215 25.275, 15.96 26.04 C 15.870000000000001 27.06, 15.765 26.909999999999997, 15.78 28.08 C 15.899999999999999 29.4, 15.795 29.595, 16.02 30.72 C 16.35 31.65, 16.245 31.875, 16.68 32.58 C 17.22 33.06, 17.235 33.195, 17.759999999999998 33.54 C 18.27 33.75, 18.18 33.81, 18.78 33.96 C 19.47 34.05, 19.575 34.125, 20.16 34.14 C 20.64 34.08, 20.595000000000002 34.28999999999999, 21.12 34.019999999999996 C 21.689999999999998 33.54, 21.81 33.615, 22.259999999999998 33.06 C 22.589999999999996 32.43, 22.709999999999997 32.324999999999996, 22.919999999999998 31.799999999999997 C 23.009999999999998 31.38, 22.98 31.485, 23.1 30.96 C 23.25 30.330000000000002, 23.279999999999998 30.39, 23.4 29.700000000000003 C 23.490000000000002 28.950000000000003, 23.565 28.815000000000005, 23.580000000000002 28.200000000000003 C 23.520000000000003 27.720000000000002, 23.580000000000002 27.675000000000004, 23.46 27.240000000000002 C 23.28 26.85, 23.325000000000003 26.91, 23.1 26.46 C 22.83 25.950000000000003, 22.814999999999998 25.845000000000002, 22.56 25.44 C 22.32 25.14, 22.335 25.199999999999996, 22.080000000000002 24.839999999999996 C 21.810000000000002 24.419999999999998, 21.84 24.314999999999998, 21.54 24 C 21.21 23.79, 21.21 23.790000000000003, 20.88 23.580000000000002 C 20.549999999999997 23.37, 20.61 23.25, 20.22 23.16 C 19.77 23.189999999999998, 19.560000000000002 23.189999999999998, 19.32 23.22 L 19.259999999999998 23.28" fill="none" stroke="black" stroke-width="2"></path><path d="M 15.96 28.86 C 16.38 28.86, 16.29 28.86, 16.799999999999997 28.86 C 17.4 28.86, 17.16 28.86, 18 28.86 C 19.08 28.86, 19.2 28.86, 20.16 28.86 C 21 28.86, 21.15 28.86, 21.84 28.86 C 22.38 28.86, 22.529999999999998 28.86, 22.919999999999998 28.86 C 23.159999999999997 28.86, 23.279999999999998 28.86, 23.4 28.86 L 23.4 28.86" fill="none" stroke="black" stroke-width="2"></path><path d="M 22.38 3.96 C 21.45 4.529999999999999, 21.615 4.454999999999999, 20.52 5.1 C 19.259999999999998 5.82, 18.975 5.985000000000001, 18 6.540000000000001 C 17.310000000000002 6.930000000000001, 17.265 6.960000000000001, 16.62 7.32 C 16.02 7.65, 16.049999999999997 7.605, 15.419999999999998 7.98 C 14.76 8.4, 14.43 8.61, 14.100000000000001 8.82 L 14.100000000000001 8.82" fill="none" stroke="black" stroke-width="2"></path><path d="M 31.08 5.5200000000000005 C 30.54 5.880000000000001, 30.765 5.775, 30 6.24 C 29.009999999999998 6.8100000000000005, 29.22 6.63, 28.02 7.38 C 26.61 8.31, 26.265000000000004 8.52, 25.200000000000003 9.24 C 24.48 9.75, 24.299999999999997 9.885, 23.759999999999998 10.26 C 23.4 10.5, 23.25 10.575, 23.04 10.74 L 22.919999999999998 10.92" fill="none" stroke="black" stroke-width="2"></path></svg>