<svg xmlns="http://www.w3.org/2000/svg" viewBox="10.34000015258789 3.739999771118164 19.90000057220459 43.640002727508545" width="19.90000057220459" height="43.640002727508545"><path d="M 11.34 40.56 C 12.24 40.56, 11.925 40.56, 13.14 40.56 C 14.670000000000002 40.56, 15.210000000000003 40.56, 16.200000000000003 40.56 C 16.650000000000002 40.56, 16.455000000000002 40.59, 17.1 40.56 C 17.94 40.5, 17.94 40.56, 18.78 40.44 C 19.62 40.26, 19.845 40.17, 20.46 40.08 C 20.85 40.08, 21.045 40.08, 21.240000000000002 40.08 L 21.240000000000002 40.08" fill="none" stroke="black" stroke-width="2"></path><path d="M 11.94 46.38 C 11.94 45.69, 11.94 45.84, 11.94 45 C 11.94 44.01, 11.94 43.8, 11.94 43.019999999999996 C 11.94 42.45, 11.94 42.435, 11.94 41.88 C 11.94 41.34, 11.94 41.43, 11.94 40.8 C 11.94 40.08, 11.94 40.214999999999996, 11.94 39.36 C 11.94 38.370000000000005, 11.94 38.1, 11.94 37.38 C 11.94 36.93000000000001, 11.94 37.065000000000005, 11.94 36.480000000000004 C 11.94 35.760000000000005, 11.94 35.760000000000005, 11.94 35.04 C 11.94 34.31999999999999, 11.879999999999999 34.24499999999999, 11.94 33.599999999999994 C 12.059999999999999 33.03, 12.014999999999999 32.865, 12.18 32.46 C 12.39 32.22, 12.360000000000001 32.235, 12.600000000000001 31.98 C 12.870000000000001 31.71, 12.735000000000001 31.605, 13.14 31.44 C 13.68 31.380000000000003, 13.485 31.425, 14.22 31.32 C 15.150000000000002 31.17, 15.180000000000001 31.125, 16.080000000000002 31.02 C 16.950000000000003 30.96, 16.935000000000002 30.93, 17.82 30.900000000000002 C 18.72 30.900000000000002, 18.735 30.900000000000002, 19.62 30.900000000000002 C 20.490000000000002 30.900000000000002, 20.415 30.900000000000002, 21.36 30.900000000000002 C 22.38 30.900000000000002, 22.74 30.855000000000004, 23.4 30.900000000000002 C 23.7 30.990000000000002, 23.61 31.035, 24 31.08 C 24.48 31.08, 24.42 31.08, 24.96 31.08 C 25.560000000000002 31.08, 25.620000000000005 31.154999999999998, 26.160000000000004 31.08 C 26.64 30.93, 26.7 31.005000000000003, 27.119999999999997 30.78 C 27.479999999999997 30.48, 27.584999999999994 30.45, 27.839999999999996 30.18 C 27.99 29.94, 27.915 30.075000000000003, 28.14 29.700000000000003 C 28.44 29.19, 28.515 29.175, 28.740000000000002 28.68 C 28.89 28.2, 28.92 28.365, 29.04 27.72 C 29.13 26.909999999999997, 29.174999999999997 27.134999999999998, 29.22 26.099999999999998 C 29.22 24.84, 29.22 24.915000000000003, 29.22 23.580000000000002 C 29.22 22.17, 29.22 22.154999999999998, 29.22 20.759999999999998 C 29.22 19.38, 29.22 19.35, 29.22 18 C 29.22 16.68, 29.22 16.365, 29.22 15.36 C 29.22 14.67, 29.265 14.745000000000001, 29.22 13.98 C 29.13 13.14, 29.13 13.125, 29.04 12.299999999999999 C 28.95 11.489999999999998, 28.905 11.399999999999999, 28.86 10.68 C 28.86 10.05, 28.95 10.14, 28.86 9.42 C 28.68 8.61, 28.605 8.4, 28.5 7.800000000000001 C 28.47 7.41, 28.515 7.38, 28.44 7.02 C 28.32 6.6899999999999995, 28.26 6.6, 28.200000000000003 6.36 C 28.200000000000003 6.210000000000001, 28.200000000000003 6.135000000000001, 28.200000000000003 6.0600000000000005 C 28.200000000000003 6.0600000000000005, 28.215000000000003 6.105, 28.200000000000003 6.0600000000000005 C 28.17 5.970000000000001, 28.155 5.925, 28.14 5.88 C 28.14 5.88, 28.2 5.895, 28.14 5.88 C 28.020000000000003 5.85, 28.005000000000003 5.835, 27.900000000000002 5.82 C 27.810000000000002 5.82, 27.84 5.73, 27.72 5.82 C 27.57 6, 27.585 6, 27.42 6.18 C 27.240000000000002 6.36, 27.255 6.330000000000001, 27.06 6.540000000000001 C 26.85 6.78, 26.91 6.645, 26.64 7.02 C 26.310000000000002 7.53, 26.325000000000003 7.545000000000001, 25.98 8.040000000000001 C 25.619999999999997 8.52, 25.634999999999998 8.385, 25.259999999999998 9 C 24.869999999999997 9.75, 24.9 9.615, 24.48 10.5 C 24.03 11.52, 24.03 11.415, 23.580000000000002 12.54 C 23.130000000000003 13.77, 23.01 14.114999999999998, 22.68 15 C 22.47 15.540000000000001, 22.47 15.540000000000003, 22.259999999999998 16.080000000000002 C 22.049999999999997 16.62, 22.005 16.725, 21.84 17.16 C 21.72 17.490000000000002, 21.66 17.61, 21.6 17.82 L 21.6 18" fill="none" stroke="black" stroke-width="2"></path><path d="M 22.44 4.74 C 22.32 5.22, 22.440000000000005 5.069999999999999, 22.200000000000003 5.699999999999999 C 21.840000000000003 6.4799999999999995, 21.87 6.449999999999999, 21.48 7.26 C 21.060000000000002 8.1, 21.12 7.949999999999999, 20.64 8.94 C 20.1 10.08, 20.145 9.96, 19.56 11.22 C 18.93 12.600000000000001, 18.929999999999996 12.6, 18.299999999999997 13.98 C 17.669999999999998 15.360000000000001, 17.445 15.720000000000002, 17.04 16.740000000000002 L 16.68 18.06" fill="none" stroke="black" stroke-width="2"></path></svg>