<svg xmlns="http://www.w3.org/2000/svg" viewBox="12.893333435058594 3.9200000762939453 16.66666603088379 39.65333366394043" width="16.66666603088379" height="39.65333366394043"><path d="M 24.839999999999996 4.92 C 24.36 5.52, 24.419999999999998 5.49, 23.88 6.12 C 23.28 6.779999999999999, 23.505 6.645, 22.68 7.4399999999999995 C 21.630000000000003 8.370000000000001, 21.435000000000002 8.49, 20.580000000000002 9.3 C 19.92 9.99, 20.174999999999997 9.825, 19.259999999999998 10.68 C 18.089999999999996 11.7, 17.804999999999996 11.955, 16.919999999999998 12.72 C 16.32 13.23, 16.365000000000002 13.215, 15.72 13.74 C 15.030000000000001 14.280000000000001, 14.73 14.535, 14.34 14.82 C 14.25 14.85, 14.205 14.864999999999998, 14.16 14.879999999999999 L 14.16 14.879999999999999" fill="none" stroke="black" stroke-width="2"></path><path d="M 28.56 9.18 C 28.199999999999996 9.809999999999999, 28.544999999999995 9.465, 27.839999999999996 10.44 C 26.79 11.760000000000002, 26.625 12.015, 25.740000000000002 13.080000000000002 C 25.02 13.89, 25.08 13.860000000000001, 24.299999999999997 14.700000000000001 C 23.46 15.57, 23.55 15.525000000000002, 22.62 16.44 C 21.6 17.4, 21.525000000000002 17.445, 20.580000000000002 18.36 C 19.71 19.23, 19.575 19.395000000000003, 18.84 20.1 C 18.240000000000002 20.64, 18.33 20.595, 17.64 21.18 C 16.86 21.810000000000002, 16.770000000000003 21.915, 16.080000000000002 22.44 C 15.48 22.86, 15.254999999999999 23.025000000000002, 14.879999999999999 23.28 C 14.73 23.37, 14.655000000000001 23.415, 14.580000000000002 23.46 C 14.580000000000002 23.46, 14.580000000000002 23.46, 14.580000000000002 23.46 C 14.580000000000002 23.46, 14.580000000000002 23.46, 14.580000000000002 23.46 C 14.580000000000002 23.46, 14.580000000000002 23.46, 14.580000000000002 23.46 C 14.580000000000002 23.46, 14.610000000000003 23.385, 14.580000000000002 23.46 C 14.520000000000001 23.61, 14.490000000000002 23.415, 14.46 23.759999999999998 C 14.46 24.299999999999997, 14.46 24.134999999999998, 14.46 24.839999999999996 C 14.46 25.709999999999997, 14.505 25.544999999999998, 14.46 26.58 C 14.370000000000001 27.78, 14.37 27.93, 14.28 28.98 C 14.190000000000001 29.880000000000003, 14.190000000000001 29.73, 14.100000000000001 30.78 C 14.01 31.98, 13.965 31.935000000000002, 13.919999999999998 33.18 C 13.919999999999998 34.47, 13.859999999999998 34.724999999999994, 13.919999999999998 35.76 C 14.04 36.54, 13.995 36.63, 14.16 37.32 C 14.370000000000001 37.92, 14.250000000000002 37.919999999999995, 14.580000000000002 38.519999999999996 C 15.030000000000001 39.12, 14.91 39.089999999999996, 15.48 39.72 C 16.17 40.379999999999995, 16.23 40.5, 16.86 41.04 C 17.43 41.46, 17.31 41.52, 18 41.88 C 18.810000000000002 42.18000000000001, 18.825000000000003 42.330000000000005, 19.62 42.480000000000004 C 20.4 42.480000000000004, 20.4 42.480000000000004, 21.18 42.480000000000004 C 21.96 42.480000000000004, 22.005000000000003 42.690000000000005, 22.740000000000002 42.480000000000004 C 23.43 42.06, 23.519999999999996 42.06, 24.119999999999997 41.64 C 24.63 41.22, 24.735 41.265, 25.14 40.8 C 25.44 40.29, 25.560000000000002 40.35, 25.740000000000002 39.78 C 25.8 39.15, 25.83 39.16499999999999, 25.86 38.519999999999996 C 25.86 37.86, 25.86 37.980000000000004, 25.86 37.2 C 25.86 36.300000000000004, 25.92 36.18000000000001, 25.86 35.400000000000006 C 25.74 34.74, 25.83 34.665, 25.619999999999997 34.08 C 25.32 33.57, 25.47 33.645, 25.02 33.06 C 24.42 32.400000000000006, 24.45 32.235, 23.82 31.740000000000002 C 23.16 31.41, 23.16 31.32, 22.5 31.08 C 21.84 30.93, 22.035 30.855, 21.18 30.78 C 20.130000000000003 30.78, 19.92 30.78, 19.080000000000002 30.78 C 18.450000000000003 30.78, 18.42 30.660000000000004, 17.82 30.78 C 17.25 31.02, 17.205 31.005, 16.68 31.259999999999998 C 16.2 31.529999999999998, 16.14 31.485, 15.72 31.799999999999997 C 15.36 32.16, 15.254999999999999 32.26499999999999, 15 32.519999999999996 C 14.850000000000001 32.67, 14.82 32.7, 14.700000000000001 32.82 C 14.61 32.91, 14.565 32.955, 14.52 33 C 14.52 33, 14.52 33, 14.52 33 L 14.52 33" fill="none" stroke="black" stroke-width="2"></path></svg>