<svg xmlns="http://www.w3.org/2000/svg" viewBox="12.319999694824219 1.3399999141693115 20.900001525878906 42.45211434364319" width="20.900001525878906" height="42.45211434364319"><path d="M 14.580000000000002 26.759999999999998 C 14.580000000000002 26.759999999999998, 14.640000000000002 26.744999999999997, 14.580000000000002 26.759999999999998 C 14.46 26.79, 14.52 27.195, 14.34 26.82 C 14.1 26.04, 14.01 26.13, 13.86 25.259999999999998 C 13.8 24.299999999999997, 13.77 24.195, 13.74 23.34 C 13.74 22.59, 13.74 22.575, 13.74 21.84 C 13.74 21.119999999999997, 13.725000000000001 21.104999999999997, 13.74 20.4 C 13.77 19.71, 13.709999999999999 19.53, 13.799999999999999 19.02 C 13.95 18.689999999999998, 13.815000000000001 18.689999999999998, 14.100000000000001 18.36 C 14.520000000000001 18.03, 14.445 17.970000000000002, 14.940000000000001 17.700000000000003 C 15.510000000000002 17.490000000000002, 15.315000000000001 17.475, 16.080000000000002 17.28 C 17.04 17.1, 17.16 17.055, 18 16.919999999999998 C 18.72 16.83, 18.51 16.785, 19.44 16.740000000000002 C 20.58 16.740000000000002, 20.924999999999997 16.740000000000002, 21.72 16.740000000000002 C 22.17 16.740000000000002, 21.884999999999998 16.740000000000002, 22.62 16.740000000000002 C 23.64 16.740000000000002, 23.655000000000005 16.740000000000002, 24.660000000000004 16.740000000000002 C 25.650000000000002 16.740000000000002, 25.62 16.785000000000004, 26.64 16.740000000000002 C 27.69 16.65, 27.93 16.605, 28.740000000000002 16.56 C 29.310000000000002 16.56, 29.235000000000003 16.56, 29.880000000000003 16.56 C 30.6 16.56, 30.885 16.56, 31.32 16.56 C 31.47 16.56, 31.514999999999997 16.56, 31.619999999999997 16.56 C 31.68 16.56, 31.71 16.56, 31.740000000000002 16.56 L 31.740000000000002 16.56" fill="none" stroke="black" stroke-width="2"></path><path d="M 23.04 2.34 C 23.009999999999998 2.6399999999999997, 23.43 2.355, 22.98 2.94 C 22.11 3.8099999999999996, 22.215000000000003 3.7949999999999995, 21.240000000000002 4.68 C 20.160000000000004 5.58, 20.055000000000003 5.655, 19.080000000000002 6.48 C 18.21 7.23, 17.91 7.44, 17.34 7.98 C 17.07 8.31, 17.279999999999998 8.13, 16.799999999999997 8.64 C 16.11 9.33, 15.809999999999997 9.629999999999999, 15.419999999999998 10.02 L 15.24 10.2" fill="none" stroke="black" stroke-width="2"></path><path d="M 31.44 3.96 C 30.93 4.41, 31.155 4.1850000000000005, 30.42 4.86 C 29.46 5.76, 29.310000000000002 5.865, 28.5 6.66 C 27.84 7.3500000000000005, 27.72 7.440000000000001, 27.18 8.040000000000001 C 26.759999999999998 8.55, 26.714999999999996 8.595, 26.339999999999996 9.06 C 26.009999999999998 9.48, 26.009999999999998 9.524999999999999, 25.68 9.899999999999999 C 25.35 10.23, 25.275 10.305, 25.02 10.56 L 24.660000000000004 10.92" fill="none" stroke="black" stroke-width="2"></path><path d="M 13.32 42.660000000000004 C 13.77 42.69, 13.605 42.9, 14.22 42.72 C 15 42.33, 14.76 42.69, 15.78 41.94 C 17.04 40.83, 17.264999999999997 40.754999999999995, 18.299999999999997 39.72 C 19.11 38.76, 19.244999999999997 38.925, 19.919999999999998 37.8 C 20.46 36.51, 20.58 36.56999999999999, 21 35.22 C 21.3 33.81, 21.285000000000004 33.96000000000001, 21.6 32.400000000000006 C 21.93 30.690000000000005, 21.96 30.57, 22.259999999999998 28.98 C 22.529999999999998 27.509999999999998, 22.589999999999996 27.195, 22.799999999999997 26.04 C 22.95 25.2, 22.98 25.335, 23.1 24.36 C 23.19 23.25, 23.235 23.1, 23.28 22.14 C 23.28 21.33, 23.28 21.21, 23.28 20.52 C 23.28 19.95, 23.28 19.86, 23.28 19.38 C 23.28 18.990000000000002, 23.28 18.945, 23.28 18.6 C 23.28 18.3, 23.28 18.255, 23.28 18 C 23.28 17.79, 23.295 17.790000000000003, 23.28 17.580000000000002 C 23.25 17.37, 23.235 17.295, 23.22 17.16 C 23.22 17.1, 23.22 17.07, 23.22 17.04 C 23.22 17.04, 23.22 17.04, 23.22 17.04 C 23.22 17.04, 23.22 17.04, 23.22 17.04 C 23.22 17.04, 23.25 16.979999999999997, 23.22 17.04 C 23.16 17.16, 23.175 16.665, 23.1 17.28 C 23.009999999999998 18.39, 23.009999999999998 18.39, 22.919999999999998 19.5 C 22.83 20.61, 22.875 20.61, 22.740000000000002 21.72 C 22.560000000000002 22.83, 22.5 23.145, 22.38 23.94 C 22.32 24.42, 22.29 24.135, 22.259999999999998 24.900000000000002 C 22.259999999999998 25.950000000000003, 22.199999999999996 25.98, 22.259999999999998 27 C 22.38 27.990000000000002, 22.305 28.020000000000003, 22.5 28.98 C 22.77 29.909999999999997, 22.755 29.955, 23.04 30.839999999999996 C 23.34 31.679999999999996, 23.295 31.694999999999993, 23.64 32.519999999999996 C 24.03 33.33, 24.015 33.39, 24.42 34.14 C 24.84 34.83, 24.9 34.98, 25.259999999999998 35.519999999999996 C 25.56 35.91, 25.455 35.849999999999994, 25.86 36.3 C 26.37 36.81, 26.385000000000005 36.885, 26.880000000000003 37.32 C 27.36 37.68, 27.345 37.74, 27.839999999999996 38.04 C 28.349999999999998 38.28, 28.275 38.26499999999999, 28.86 38.519999999999996 C 29.52 38.79, 29.61 38.835, 30.18 39.06 C 30.66 39.24, 30.705 39.300000000000004, 31.14 39.42 C 31.53 39.480000000000004, 31.650000000000002 39.465, 31.92 39.54 C 32.07 39.629999999999995, 32.144999999999996 39.675, 32.22 39.72 L 32.22 39.72" fill="none" stroke="black" stroke-width="2"></path></svg>