<svg xmlns="http://www.w3.org/2000/svg" viewBox="11.644598960876465 2.7799999713897705 20.50206756591797 40.519999265670776" width="20.50206756591797" height="40.519999265670776"><path d="M 14.100000000000001 4.4399999999999995 C 14.100000000000001 5.609999999999999, 14.235000000000003 5.129999999999999, 14.100000000000001 6.779999999999999 C 13.83 8.91, 13.784999999999998 9.18, 13.559999999999999 11.040000000000001 C 13.379999999999999 12.63, 13.335 12.555, 13.200000000000001 14.22 C 13.11 15.96, 13.155 16.005000000000003, 13.02 17.700000000000003 C 12.84 19.35, 12.75 19.515, 12.66 21 C 12.66 22.32, 12.66 22.635, 12.66 23.64 C 12.66 24.33, 12.63 24.375, 12.66 25.02 C 12.719999999999999 25.619999999999997, 12.524999999999999 25.724999999999998, 12.78 26.22 C 13.23 26.61, 13.094999999999999 26.73, 13.68 27 C 14.4 27.15, 14.355 27.179999999999996, 15.120000000000001 27.299999999999997 C 15.930000000000001 27.39, 15.735000000000003 27.39, 16.740000000000002 27.48 C 17.94 27.57, 17.94 27.525000000000006, 19.14 27.660000000000004 C 20.34 27.840000000000003, 20.445 27.884999999999998, 21.54 28.02 C 22.53 28.11, 22.74 28.155, 23.52 28.200000000000003 C 24.090000000000003 28.200000000000003, 24.150000000000006 28.200000000000003, 24.660000000000004 28.200000000000003 C 25.11 28.200000000000003, 25.064999999999998 28.200000000000003, 25.56 28.200000000000003 C 26.1 28.200000000000003, 26.25 28.200000000000003, 26.64 28.200000000000003 C 26.88 28.200000000000003, 26.849999999999998 28.215000000000003, 27.119999999999997 28.200000000000003 C 27.419999999999998 28.17, 27.404999999999998 28.200000000000003, 27.72 28.14 C 28.05 28.05, 28.125 28.065, 28.380000000000003 27.96 C 28.560000000000002 27.84, 28.575000000000003 27.99, 28.740000000000002 27.72 C 28.89 27.3, 28.905 27.315, 29.04 26.880000000000003 C 29.16 26.43, 29.085 26.79, 29.28 25.98 C 29.55 24.810000000000002, 29.55 24.855, 29.82 23.64 C 30.09 22.380000000000003, 30.075 22.590000000000003, 30.36 21.12 C 30.66 19.439999999999998, 30.765 19.275, 30.96 17.759999999999998 C 31.05 16.409999999999997, 31.095 16.485, 31.14 15.059999999999999 C 31.14 13.559999999999999, 31.14 13.274999999999999, 31.14 12.059999999999999 C 31.14 11.129999999999999, 31.14 11.055, 31.14 10.2 C 31.14 9.42, 31.155 9.195, 31.14 8.64 C 31.11 8.31, 31.095 8.415000000000001, 31.08 7.98 C 31.08 7.4399999999999995, 31.11 7.364999999999999, 31.08 6.8999999999999995 C 31.02 6.51, 31.035 6.39, 30.96 6.12 C 30.87 5.970000000000001, 30.825000000000003 5.8950000000000005, 30.78 5.82 C 30.78 5.82, 30.825000000000003 5.865, 30.78 5.82 C 30.689999999999998 5.73, 30.765 5.685, 30.599999999999998 5.64 C 30.36 5.64, 30.314999999999998 5.534999999999999, 30.119999999999997 5.64 C 29.97 5.85, 29.985 5.835, 29.82 6.0600000000000005 C 29.64 6.300000000000001, 29.67 6.240000000000001, 29.46 6.540000000000001 C 29.22 6.9, 29.310000000000002 6.84, 28.98 7.26 C 28.560000000000002 7.74, 28.68 7.605, 28.14 8.22 C 27.48 8.97, 27.675 8.655000000000001, 26.82 9.72 C 25.77 11.100000000000001, 25.725 11.13, 24.72 12.48 C 23.759999999999998 13.8, 23.444999999999997 14.205000000000002, 22.799999999999997 15.120000000000001 C 22.47 15.63, 22.32 15.84, 22.14 16.14 C 22.11 16.23, 22.095000000000002 16.275, 22.080000000000002 16.32 L 22.080000000000002 16.32" fill="none" stroke="black" stroke-width="2"></path><path d="M 24.18 3.7800000000000002 C 24.18 4.08, 24.48 3.795, 24.18 4.38 C 23.58 5.25, 23.655 5.25, 22.98 6.12 C 22.23 6.99, 22.365000000000002 6.795000000000001, 21.48 7.86 C 20.46 9.12, 20.340000000000003 9.254999999999999, 19.44 10.379999999999999 C 18.66 11.37, 18.435 11.625, 17.88 12.36 C 17.549999999999997 12.84, 17.384999999999998 13.08, 17.22 13.32 L 17.22 13.32" fill="none" stroke="black" stroke-width="2"></path><path d="M 21.36 31.5 C 20.61 31.41, 20.564999999999998 31.275, 19.86 31.32 C 19.2 31.5, 19.169999999999998 31.365000000000002, 18.54 31.68 C 17.939999999999998 32.129999999999995, 17.985 31.845, 17.34 32.58 C 16.65 33.599999999999994, 16.575000000000003 33.405, 15.96 34.62 C 15.42 36.03, 15.149999999999999 36.285, 14.879999999999999 37.44 C 14.879999999999999 38.34, 14.759999999999998 38.46, 14.879999999999999 39.24 C 15.12 39.900000000000006, 14.834999999999999 39.975, 15.36 40.56 C 16.17 41.07, 16.215 41.175, 16.98 41.58 C 17.7 41.879999999999995, 17.759999999999998 42.03, 18.419999999999998 42.18 C 19.02 42.18, 18.900000000000002 42.18, 19.62 42.18 C 20.46 42.18, 20.444999999999997 42.45, 21.299999999999997 42.18 C 22.169999999999998 41.64, 22.349999999999998 41.58, 23.04 41.099999999999994 C 23.549999999999997 40.67999999999999, 23.474999999999998 40.964999999999996, 24.06 40.26 C 24.72 39.269999999999996, 24.945000000000004 39.09, 25.380000000000003 38.28 C 25.59 37.65, 25.665 37.724999999999994, 25.799999999999997 37.019999999999996 C 25.86 36.239999999999995, 25.965000000000003 36.21, 25.92 35.46 C 25.77 34.739999999999995, 25.845 34.589999999999996, 25.619999999999997 34.019999999999996 C 25.32 33.599999999999994, 25.455 33.614999999999995, 25.02 33.18 C 24.45 32.730000000000004, 24.419999999999998 32.67, 23.88 32.28 C 23.369999999999997 31.95, 23.355 31.845, 22.86 31.619999999999997 C 22.38 31.5, 22.214999999999996 31.470000000000002, 21.9 31.380000000000003 C 21.75 31.32, 21.720000000000002 31.29, 21.6 31.259999999999998 C 21.509999999999998 31.259999999999998, 21.494999999999997 31.259999999999998, 21.419999999999998 31.259999999999998 L 21.299999999999997 31.259999999999998" fill="none" stroke="black" stroke-width="2"></path><path d="M 15.36 36.72 C 15.809999999999999 36.72, 15.704999999999998 36.72, 16.259999999999998 36.72 C 16.92 36.72, 16.770000000000003 36.72, 17.580000000000002 36.72 C 18.54 36.72, 18.525 36.765, 19.5 36.72 C 20.490000000000002 36.629999999999995, 20.595 36.585, 21.48 36.54 C 22.259999999999998 36.54, 22.349999999999998 36.54, 23.04 36.54 C 23.64 36.54, 23.790000000000003 36.54, 24.240000000000002 36.54 C 24.54 36.54, 24.599999999999994 36.54, 24.839999999999996 36.54 C 25.02 36.54, 25.080000000000002 36.54, 25.200000000000003 36.54 C 25.26 36.54, 25.200000000000003 36.495, 25.32 36.54 C 25.5 36.629999999999995, 25.59 36.675, 25.68 36.72 L 25.68 36.72" fill="none" stroke="black" stroke-width="2"></path></svg>