<svg xmlns="http://www.w3.org/2000/svg" viewBox="13.933333396911621 6.260000228881836 18.506667137145996 36.78000068664551" width="18.506667137145996" height="36.78000068664551"><path d="M 14.940000000000001 7.26 C 14.940000000000001 9.18, 14.925 9.465000000000002, 14.940000000000001 11.100000000000001 C 14.97 12.45, 14.985 12.09, 15 13.799999999999999 C 15 15.870000000000001, 15 16.155, 15 17.94 C 15 19.44, 15 19.515, 15 20.94 C 15 22.29, 15 22.395, 15 23.64 C 15 24.78, 14.94 25.005000000000003, 15 25.92 C 15.120000000000001 26.61, 15.030000000000001 26.549999999999997, 15.24 27.299999999999997 C 15.54 28.11, 15.525 28.35, 15.84 28.92 C 16.17 29.25, 16.08 29.25, 16.5 29.58 C 17.009999999999998 29.91, 17.025 29.97, 17.52 30.240000000000002 C 18 30.450000000000003, 17.775 30.510000000000005, 18.48 30.660000000000004 C 19.41 30.75, 19.155 30.749999999999996, 20.34 30.839999999999996 C 21.78 30.93, 21.884999999999998 30.974999999999998, 23.22 31.02 C 24.45 31.02, 24.615 31.02, 25.68 31.02 C 26.58 31.02, 26.625 31.035, 27.48 31.02 C 28.29 30.990000000000002, 28.38 31.035, 29.099999999999998 30.96 C 29.729999999999997 30.84, 29.97 30.794999999999998, 30.36 30.72 C 30.51 30.69, 30.585 30.675000000000004, 30.660000000000004 30.660000000000004 L 30.660000000000004 30.660000000000004" fill="none" stroke="black" stroke-width="2"></path><path d="M 22.38 8.100000000000001 C 22.53 8.43, 22.619999999999997 8.34, 22.68 8.76 C 22.65 9.27, 22.77 9.105, 22.62 9.78 C 22.35 10.62, 22.380000000000003 10.739999999999998, 22.080000000000002 11.459999999999999 C 21.75 12.059999999999999, 21.794999999999998 11.955, 21.419999999999998 12.66 C 21 13.469999999999999, 20.955000000000002 13.62, 20.580000000000002 14.28 C 20.25 14.79, 20.354999999999997 14.684999999999999, 19.919999999999998 15.299999999999999 C 19.38 16.02, 19.29 16.200000000000003, 18.84 16.740000000000002 C 18.48 17.1, 18.42 17.16, 18.12 17.46 C 17.880000000000003 17.700000000000003, 17.970000000000002 17.655, 17.64 17.94 C 17.22 18.270000000000003, 17.129999999999995 18.360000000000003, 16.799999999999997 18.6 C 16.56 18.75, 16.575 18.735, 16.32 18.9 C 16.05 19.08, 15.915 19.169999999999998, 15.78 19.259999999999998 C 15.78 19.259999999999998, 15.78 19.259999999999998, 15.78 19.259999999999998 C 15.78 19.259999999999998, 15.809999999999999 19.244999999999997, 15.78 19.259999999999998 C 15.719999999999999 19.29, 15.69 19.305, 15.66 19.32 L 15.66 19.32" fill="none" stroke="black" stroke-width="2"></path><path d="M 28.740000000000002 13.440000000000001 C 28.14 14.49, 28.08 14.535, 27.54 15.54 C 27.06 16.5, 27.15 16.485, 26.58 17.46 C 25.919999999999998 18.450000000000003, 25.845 18.66, 25.259999999999998 19.44 C 24.75 20.01, 24.840000000000003 19.980000000000004, 24.240000000000002 20.580000000000002 C 23.55 21.21, 23.445 21.3, 22.86 21.84 C 22.38 22.29, 22.29 22.380000000000003, 21.9 22.740000000000002 C 21.599999999999998 23.01, 21.584999999999997 23.025000000000002, 21.299999999999997 23.28 C 21.029999999999998 23.52, 20.894999999999996 23.64, 20.759999999999998 23.759999999999998 L 20.759999999999998 23.759999999999998" fill="none" stroke="black" stroke-width="2"></path><path d="M 15.899999999999999 35.88 C 17.07 35.7, 17.310000000000002 35.61, 18.240000000000002 35.519999999999996 C 18.93 35.519999999999996, 18.765 35.519999999999996, 19.62 35.519999999999996 C 20.64 35.519999999999996, 20.52 35.519999999999996, 21.66 35.519999999999996 C 22.92 35.519999999999996, 22.86 35.504999999999995, 24.18 35.519999999999996 C 25.560000000000002 35.55, 25.785000000000004 35.474999999999994, 26.94 35.58 C 27.869999999999997 35.76, 27.974999999999998 35.834999999999994, 28.799999999999997 35.94 C 29.52 35.97, 29.835 35.97, 30.240000000000002 36 C 30.330000000000002 36.03, 30.330000000000002 36.015, 30.42 36.06 L 30.599999999999998 36.18" fill="none" stroke="black" stroke-width="2"></path><path d="M 15.18 42 C 16.08 42, 15.96 42.09, 16.98 42 C 18.119999999999997 41.82, 18.119999999999997 41.805, 19.259999999999998 41.64 C 20.4 41.489999999999995, 20.415 41.42999999999999, 21.54 41.339999999999996 C 22.65 41.31, 22.574999999999996 41.295, 23.759999999999998 41.28 C 25.02 41.28, 25.035 41.28, 26.28 41.28 C 27.51 41.28, 27.720000000000002 41.28, 28.740000000000002 41.28 C 29.55 41.28, 29.805 41.28, 30.36 41.28 C 30.66 41.28, 30.78 41.28, 30.96 41.28 C 31.02 41.28, 30.959999999999997 41.28, 31.08 41.28 C 31.259999999999998 41.28, 31.35 41.28, 31.44 41.28 L 31.44 41.28" fill="none" stroke="black" stroke-width="2"></path></svg>