<svg xmlns="http://www.w3.org/2000/svg" viewBox="12.859999656677246 3.8000001907348633 17.960000038146973 38.086666107177734" width="17.960000038146973" height="38.086666107177734"><path d="M 23.82 5.76 C 23.61 6.33, 23.729999999999997 6.254999999999999, 23.4 6.8999999999999995 C 22.95 7.619999999999999, 23.07 7.6049999999999995, 22.5 8.34 C 21.810000000000002 9.09, 21.75 9.165, 21.12 9.84 C 20.55 10.440000000000001, 20.805 10.245000000000001, 19.98 11.040000000000001 C 18.9 12.030000000000001, 18.585 12.33, 17.82 13.02 C 17.369999999999997 13.41, 17.31 13.469999999999999, 16.919999999999998 13.799999999999999 C 16.589999999999996 14.07, 16.424999999999997 14.205, 16.259999999999998 14.34 L 16.259999999999998 14.34" fill="none" stroke="black" stroke-width="2"></path><path d="M 29.82 4.800000000000001 C 29.46 5.5200000000000005, 29.415 5.49, 29.099999999999998 6.24 C 28.83 7.0200000000000005, 28.814999999999998 6.960000000000001, 28.56 7.800000000000001 C 28.32 8.700000000000001, 28.439999999999998 8.610000000000001, 28.08 9.600000000000001 C 27.599999999999998 10.68, 27.674999999999997 10.68, 27.119999999999997 11.76 C 26.49 12.84, 26.474999999999998 12.929999999999998, 25.86 13.919999999999998 C 25.26 14.82, 25.440000000000005 14.7, 24.660000000000004 15.72 C 23.700000000000003 16.86, 23.67 16.95, 22.740000000000002 18 C 21.840000000000003 18.96, 21.75 19.125, 20.94 19.919999999999998 C 20.22 20.549999999999997, 20.175 20.535, 19.5 21.18 C 18.87 21.84, 18.825000000000003 21.915, 18.240000000000002 22.5 C 17.700000000000003 23.009999999999998, 17.64 23.1, 17.16 23.52 C 16.740000000000002 23.85, 16.65 23.925, 16.32 24.18 C 16.08 24.36, 16.005 24.405, 15.84 24.54 C 15.75 24.63, 15.705 24.674999999999997, 15.66 24.72 C 15.66 24.72, 15.705 24.674999999999997, 15.66 24.72 C 15.57 24.810000000000002, 15.525 24.855, 15.48 24.900000000000002 C 15.48 24.900000000000002, 15.48 24.900000000000002, 15.48 24.900000000000002 C 15.48 24.900000000000002, 15.48 24.900000000000002, 15.48 24.900000000000002 C 15.48 24.900000000000002, 15.48 24.900000000000002, 15.48 24.900000000000002 C 15.48 24.900000000000002, 15.495000000000001 24.870000000000005, 15.48 24.900000000000002 C 15.45 24.96, 15.434999999999999 24.990000000000002, 15.419999999999998 25.02 C 15.419999999999998 25.02, 15.374999999999996 25.02, 15.419999999999998 25.02 C 15.51 25.02, 15.555 25.02, 15.600000000000001 25.02 C 15.600000000000001 25.02, 15.570000000000002 25.02, 15.600000000000001 25.02 C 15.66 25.02, 15.600000000000001 25.02, 15.72 25.02 C 15.900000000000002 25.02, 15.915000000000003 25.02, 16.080000000000002 25.02 C 16.23 25.02, 16.2 25.02, 16.38 25.02 C 16.589999999999996 25.02, 16.424999999999997 25.02, 16.799999999999997 25.02 C 17.339999999999996 25.02, 17.265 25.08, 17.88 25.02 C 18.57 24.9, 18.494999999999997 24.87, 19.259999999999998 24.78 C 20.1 24.720000000000002, 20.25 24.690000000000005, 20.94 24.660000000000004 C 21.48 24.660000000000004, 21.345 24.645000000000003, 22.02 24.660000000000004 C 22.83 24.69, 22.935000000000002 24.615000000000002, 23.64 24.72 C 24.24 24.9, 24.224999999999998 24.794999999999998, 24.839999999999996 25.08 C 25.47 25.47, 25.559999999999995 25.455, 26.099999999999998 25.86 C 26.549999999999997 26.28, 26.565 26.130000000000003, 27 26.700000000000003 C 27.419999999999998 27.42, 27.509999999999998 27.255000000000003, 27.839999999999996 28.14 C 28.08 29.19, 28.155 29.220000000000002, 28.32 30.240000000000002 C 28.41 31.23, 28.455 31.409999999999997, 28.5 32.22 C 28.5 32.85, 28.5 32.730000000000004, 28.5 33.480000000000004 C 28.5 34.35, 28.515 34.394999999999996, 28.5 35.22 C 28.47 36, 28.65 36.09, 28.44 36.78 C 28.050000000000004 37.38, 28.155000000000005 37.410000000000004, 27.660000000000004 37.980000000000004 C 27.060000000000002 38.52, 27 38.625, 26.46 39.06 C 25.98 39.39, 26.13 39.39, 25.5 39.72 C 24.72 40.05, 24.675 40.095, 23.94 40.38 C 23.25 40.620000000000005, 23.384999999999998 40.74, 22.56 40.86 C 21.6 40.86, 21.405 40.86, 20.64 40.86 C 20.07 40.86, 20.145 40.92, 19.5 40.86 C 18.78 40.739999999999995, 19.47 41.055, 18.06 40.62 C 15.959999999999999 39.87, 14.91 39.495, 13.86 39.12 L 13.86 39.12" fill="none" stroke="black" stroke-width="2"></path></svg>