<svg xmlns="http://www.w3.org/2000/svg" viewBox="9.699999809265137 4.159999847412109 23.966668128967285 41.65999984741211" width="23.966668128967285" height="41.65999984741211"><path d="M 12.059999999999999 29.22 C 11.91 28.259999999999998, 11.955 28.65, 11.76 27.299999999999997 C 11.52 25.56, 11.489999999999998 25.485, 11.28 23.82 C 11.1 22.23, 11.055 21.945, 10.92 20.64 C 10.83 19.62, 10.785 19.470000000000002, 10.74 18.6 C 10.74 17.880000000000003, 10.74 18.03, 10.74 17.16 C 10.74 16.14, 10.65 16.020000000000003, 10.74 15.120000000000001 C 10.920000000000002 14.34, 10.845000000000002 14.325, 11.100000000000001 13.559999999999999 C 11.43 12.809999999999999, 11.34 12.854999999999999, 11.76 12.059999999999999 C 12.27 11.219999999999999, 12.389999999999999 10.979999999999999, 12.78 10.379999999999999 C 13.05 10.02, 12.855 10.08, 13.32 9.66 C 13.98 9.18, 14.085 8.969999999999999, 14.64 8.7 C 15.09 8.64, 15.195 8.61, 15.54 8.58 C 15.78 8.58, 15.66 8.445, 16.02 8.58 C 16.5 8.850000000000001, 16.53 8.775000000000002, 16.98 9.120000000000001 C 17.4 9.54, 17.415 9.36, 17.82 9.959999999999999 C 18.21 10.739999999999998, 18.345000000000002 10.575, 18.6 11.52 C 18.72 12.629999999999999, 18.72 12.39, 18.84 13.74 C 18.96 15.329999999999998, 18.975 15.614999999999998, 19.080000000000002 16.919999999999998 C 19.17 17.939999999999998, 19.215 18.255, 19.259999999999998 18.96 C 19.259999999999998 19.35, 19.259999999999998 19.545, 19.259999999999998 19.740000000000002 C 19.259999999999998 19.740000000000002, 19.259999999999998 19.740000000000002, 19.259999999999998 19.740000000000002 C 19.259999999999998 19.740000000000002, 19.244999999999997 19.71, 19.259999999999998 19.740000000000002 C 19.29 19.8, 19.305 19.83, 19.32 19.86 C 19.32 19.86, 19.32 19.86, 19.32 19.86 C 19.32 19.86, 19.215 19.875, 19.32 19.86 C 19.53 19.83, 19.290000000000003 19.919999999999998, 19.740000000000002 19.799999999999997 C 20.43 19.589999999999996, 20.46 19.544999999999998, 21.12 19.38 C 21.75 19.259999999999998, 21.765 19.2, 22.38 19.14 C 22.98 19.14, 23.055 19.14, 23.580000000000002 19.14 C 24.03 19.14, 23.835 19.14, 24.48 19.14 C 25.32 19.14, 25.440000000000005 19.14, 26.160000000000004 19.14 C 26.76 19.14, 26.865000000000002 19.14, 27.36 19.14 C 27.75 19.14, 27.78 19.080000000000002, 28.14 19.14 C 28.47 19.259999999999998, 28.47 19.169999999999998, 28.799999999999997 19.38 C 29.13 19.68, 29.16 19.695, 29.46 19.98 C 29.73 20.25, 29.759999999999998 20.19, 30 20.52 C 30.21 20.909999999999997, 30.240000000000002 20.939999999999998, 30.42 21.299999999999997 C 30.57 21.63, 30.645 21.57, 30.72 21.96 C 30.72 22.41, 30.705 22.439999999999998, 30.72 22.86 C 30.75 23.25, 30.735 23.205000000000002, 30.78 23.64 C 30.840000000000003 24.119999999999997, 30.885000000000005 24.089999999999996, 30.900000000000002 24.599999999999998 C 30.869999999999997 25.14, 30.869999999999997 25.215, 30.839999999999996 25.68 C 30.81 26.07, 30.810000000000002 26.145, 30.78 26.46 C 30.75 26.700000000000003, 30.735 26.790000000000003, 30.72 26.94 C 30.72 27, 30.735 27, 30.72 27.06 L 30.660000000000004 27.18" fill="none" stroke="black" stroke-width="2"></path><path d="M 26.52 5.16 C 26.58 5.3100000000000005, 26.745 5.1, 26.64 5.46 C 26.369999999999997 6.03, 26.354999999999997 6.105, 26.099999999999998 6.6000000000000005 C 25.86 7.02, 25.904999999999998 6.944999999999999, 25.619999999999997 7.4399999999999995 C 25.29 8.01, 25.455 7.83, 24.96 8.58 C 24.3 9.51, 24.18 9.645, 23.64 10.44 C 23.22 11.1, 23.294999999999998 11.084999999999999, 22.799999999999997 11.76 C 22.229999999999997 12.45, 22.11 12.63, 21.66 13.14 C 21.33 13.469999999999999, 21.42 13.379999999999999, 21 13.799999999999999 C 20.490000000000002 14.309999999999999, 20.4 14.43, 19.98 14.82 C 19.65 15.09, 19.53 15.21, 19.32 15.36 C 19.23 15.389999999999999, 19.185000000000002 15.404999999999998, 19.14 15.419999999999998 C 19.14 15.419999999999998, 19.14 15.419999999999998, 19.14 15.419999999999998 L 19.14 15.419999999999998" fill="none" stroke="black" stroke-width="2"></path><path d="M 31.68 7.68 C 31.44 8.16, 31.575000000000003 8.07, 31.200000000000003 8.64 C 30.69 9.3, 30.689999999999998 9.329999999999998, 30.18 9.959999999999999 C 29.67 10.559999999999999, 29.715000000000003 10.515, 29.160000000000004 11.16 C 28.560000000000002 11.85, 28.410000000000004 12.03, 27.96 12.54 C 27.66 12.870000000000001, 27.615 12.915000000000001, 27.36 13.200000000000001 C 27.15 13.440000000000001, 27.045 13.56, 26.94 13.68 C 26.94 13.68, 26.970000000000002 13.635, 26.94 13.68 C 26.880000000000003 13.77, 26.895 13.785, 26.82 13.86 C 26.73 13.92, 26.685000000000002 13.95, 26.64 13.98 C 26.64 13.98, 26.64 13.98, 26.64 13.98 C 26.64 13.98, 26.64 13.98, 26.64 13.98 L 26.64 13.98" fill="none" stroke="black" stroke-width="2"></path><path d="M 19.200000000000003 19.44 C 19.17 19.53, 19.11 19.290000000000003, 19.14 19.62 C 19.23 20.189999999999998, 19.23 20.07, 19.32 20.759999999999998 C 19.41 21.57, 19.365000000000002 21.464999999999996, 19.5 22.38 C 19.68 23.4, 19.619999999999997 23.46, 19.86 24.42 C 20.16 25.32, 20.145 25.47, 20.46 26.22 C 20.79 26.82, 20.64 26.745, 21.12 27.42 C 21.75 28.17, 21.645 28.185000000000002, 22.38 28.92 C 23.22 29.64, 23.279999999999998 29.775, 24.06 30.36 C 24.78 30.81, 24.615000000000002 30.765, 25.5 31.259999999999998 C 26.549999999999997 31.799999999999997, 26.595 31.874999999999996, 27.599999999999998 32.339999999999996 C 28.56 32.73, 28.665 32.805, 29.52 33.12 C 30.27 33.36, 30.36 33.32999999999999, 31.02 33.599999999999994 C 31.590000000000003 33.9, 31.800000000000004 34.005, 32.160000000000004 34.2 C 32.31 34.290000000000006, 32.34 34.290000000000006, 32.46 34.38 C 32.55 34.47, 32.595 34.515, 32.64 34.56 C 32.64 34.56, 32.64 34.56, 32.64 34.56 C 32.64 34.56, 32.7 34.47, 32.64 34.56 C 32.52 34.74, 32.7 34.755, 32.400000000000006 34.92 C 31.92 35.07, 31.980000000000004 35.04, 31.44 35.22 C 30.840000000000003 35.43, 30.78 35.445, 30.240000000000002 35.64 C 29.76 35.82, 29.805 35.835, 29.28 36 C 28.71 36.15, 28.71 36.15, 28.14 36.3 C 27.57 36.449999999999996, 27.6 36.419999999999995, 27 36.599999999999994 C 26.37 36.809999999999995, 26.295 36.809999999999995, 25.740000000000002 37.019999999999996 C 25.26 37.23, 25.410000000000004 37.08, 24.78 37.44 C 24 37.95, 23.895 37.995000000000005, 23.22 38.46 C 22.65 38.879999999999995, 22.62 38.834999999999994, 22.080000000000002 39.3 C 21.57 39.81, 21.6 39.72, 21.06 40.32 C 20.49 41.010000000000005, 20.384999999999998 41.145, 19.919999999999998 41.7 C 19.560000000000002 42.120000000000005, 19.575000000000003 42, 19.200000000000003 42.54 C 18.810000000000002 43.2, 18.689999999999998 43.365, 18.419999999999998 43.86 C 18.27 44.19, 18.195 44.279999999999994, 18.12 44.519999999999996 C 18.12 44.67, 18.12 44.745, 18.12 44.82 C 18.12 44.82, 18.12 44.82, 18.12 44.82 C 18.12 44.82, 18.12 44.82, 18.12 44.82 C 18.12 44.82, 18.12 44.82, 18.12 44.82 L 18.12 44.82" fill="none" stroke="black" stroke-width="2"></path><path d="M 12.48 33.06 C 12.69 33.06, 12.509999999999998 32.97, 12.899999999999999 33.06 C 13.469999999999999 33.24, 13.29 33.120000000000005, 14.04 33.42 C 14.969999999999999 33.84, 15.029999999999998 33.87, 15.899999999999999 34.26 C 16.71 34.620000000000005, 16.724999999999998 34.545, 17.52 34.980000000000004 C 18.3 35.49, 18.360000000000003 35.535000000000004, 19.080000000000002 36 C 19.740000000000002 36.42, 19.86 36.419999999999995, 20.4 36.839999999999996 C 20.82 37.26, 20.94 37.379999999999995, 21.240000000000002 37.68 C 21.42 37.86, 21.480000000000004 37.92, 21.6 38.04 C 21.66 38.1, 21.645 38.08500000000001, 21.72 38.160000000000004 C 21.81 38.25, 21.854999999999997 38.295, 21.9 38.339999999999996 C 21.9 38.339999999999996, 21.9 38.339999999999996, 21.9 38.339999999999996 L 21.9 38.339999999999996" fill="none" stroke="black" stroke-width="2"></path></svg>