<svg xmlns="http://www.w3.org/2000/svg" viewBox="10.146666526794434 2.4200000762939453 21.813332557678223 42.739999771118164" width="21.813332557678223" height="42.739999771118164"><path d="M 14.64 3.42 C 14.370000000000001 4.38, 14.370000000000001 4.2299999999999995, 14.100000000000001 5.34 C 13.83 6.6, 13.784999999999998 6.6000000000000005, 13.559999999999999 7.86 C 13.379999999999999 9.12, 13.485000000000001 9, 13.200000000000001 10.379999999999999 C 12.809999999999999 11.879999999999999, 12.704999999999998 12.044999999999998, 12.419999999999998 13.379999999999999 C 12.239999999999998 14.55, 12.284999999999998 14.475000000000001, 12.059999999999999 15.72 C 11.79 17.04, 11.745 17.175, 11.52 18.36 C 11.34 19.41, 11.25 19.485, 11.16 20.46 C 11.16 21.36, 11.13 21.615, 11.16 22.259999999999998 C 11.219999999999999 22.65, 11.07 22.68, 11.28 23.04 C 11.64 23.37, 11.535 23.475, 12 23.700000000000003 C 12.57 23.82, 12.465 23.835, 13.14 23.94 C 13.920000000000002 24.03, 14.07 24.36, 14.700000000000001 24.119999999999997 C 15.18 23.549999999999997, 15.105 23.745, 15.66 22.98 C 16.29 22.02, 16.365 22.275, 16.919999999999998 21.06 C 17.4 19.59, 17.505 19.17, 17.88 18.12 C 18.15 17.490000000000002, 18.269999999999996 17.22, 18.419999999999998 16.86 C 18.45 16.77, 18.465 16.725, 18.48 16.68 C 18.48 16.68, 18.45 16.62, 18.48 16.68 C 18.54 16.799999999999997, 18.435000000000002 16.365, 18.6 16.919999999999998 C 18.87 17.909999999999997, 18.900000000000002 17.985, 19.14 18.9 C 19.35 19.740000000000002, 19.259999999999998 19.770000000000003, 19.56 20.580000000000002 C 19.95 21.36, 19.89 21.465, 20.34 22.14 C 20.85 22.71, 20.43 22.695, 21.36 23.28 C 22.71 23.880000000000003, 22.74 24.090000000000003, 24.06 24.48 C 25.35 24.659999999999997, 25.5 24.749999999999996, 26.64 24.839999999999996 C 27.63 24.839999999999996, 27.915 24.839999999999996, 28.619999999999997 24.839999999999996 C 29.04 24.839999999999996, 29.205 24.839999999999996, 29.46 24.839999999999996 C 29.55 24.839999999999996, 29.595 24.839999999999996, 29.64 24.839999999999996 L 29.64 24.839999999999996" fill="none" stroke="black" stroke-width="2"></path><path d="M 21.9 4.08 C 21.479999999999997 4.38, 21.96 4.109999999999999, 21.06 4.68 C 19.68 5.52, 19.47 5.550000000000001, 18.299999999999997 6.36 C 17.339999999999996 7.140000000000001, 17.43 7.17, 16.38 7.92 C 15.24 8.64, 14.835 8.865, 14.100000000000001 9.36 C 13.770000000000001 9.629999999999999, 13.635000000000002 9.749999999999998, 13.440000000000001 9.899999999999999 C 13.38 9.93, 13.395 9.915, 13.32 9.959999999999999 L 13.14 10.08" fill="none" stroke="black" stroke-width="2"></path><path d="M 30.96 4.800000000000001 C 29.85 5.430000000000001, 30.135 5.3100000000000005, 28.740000000000002 6.0600000000000005 C 27.060000000000002 6.930000000000001, 27.300000000000004 6.8100000000000005, 25.380000000000003 7.800000000000001 C 23.22 8.91, 22.56 9.27, 21.06 10.02 C 20.22 10.41, 19.799999999999997 10.605, 19.38 10.8 L 19.38 10.8" fill="none" stroke="black" stroke-width="2"></path><path d="M 13.98 24.42 C 13.8 25.92, 13.815000000000001 25.68, 13.620000000000001 27.42 C 13.41 29.400000000000002, 13.350000000000001 29.550000000000004, 13.200000000000001 31.380000000000003 C 13.11 33.06, 13.17 32.85, 13.02 34.74 C 12.81 36.84, 12.795000000000002 37.095, 12.600000000000001 38.94 C 12.420000000000002 40.53, 12.33 40.89, 12.24 42.12 C 12.24 42.989999999999995, 12.24 43.349999999999994, 12.24 43.86 C 12.24 44.010000000000005, 12.24 44.085, 12.24 44.160000000000004 L 12.24 44.160000000000004" fill="none" stroke="black" stroke-width="2"></path><path d="M 23.94 23.94 C 24.090000000000003 23.97, 24.150000000000002 23.715, 24.240000000000002 24 C 24.27 24.54, 24.404999999999998 23.685, 24.299999999999997 25.08 C 24.06 27.33, 24.045 27.464999999999996, 23.82 29.58 C 23.61 31.56, 23.669999999999998 31.575, 23.4 33.54 C 23.07 35.489999999999995, 22.950000000000003 35.834999999999994, 22.740000000000002 37.44 C 22.65 38.7, 22.605 38.985, 22.56 39.96 C 22.56 40.65, 22.56 40.964999999999996, 22.56 41.339999999999996 C 22.56 41.4, 22.56 41.34, 22.56 41.46 C 22.56 41.64, 22.56 41.730000000000004, 22.56 41.82 C 22.56 41.82, 22.56 41.79, 22.56 41.82 C 22.56 41.879999999999995, 22.56 41.489999999999995, 22.56 41.94 C 22.56 42.78, 22.56 43.155, 22.56 43.62 L 22.56 43.8" fill="none" stroke="black" stroke-width="2"></path></svg>