<svg xmlns="http://www.w3.org/2000/svg" viewBox="13.880000114440918 2.5399999618530273 19.89999771118164 44.22666645050049" width="19.89999771118164" height="44.22666645050049"><path d="M 14.879999999999999 32.94 C 15.18 32.94, 14.850000000000001 33.015, 15.48 32.94 C 16.439999999999998 32.79, 16.064999999999998 32.94, 17.4 32.64 C 19.11 32.19, 19.605 31.995000000000005, 20.82 31.740000000000002 C 21.54 31.68, 21.599999999999998 31.65, 22.259999999999998 31.619999999999997 C 22.86 31.619999999999997, 22.71 31.619999999999997, 23.46 31.619999999999997 C 24.36 31.619999999999997, 24.449999999999996 31.619999999999997, 25.259999999999998 31.619999999999997 C 25.98 31.619999999999997, 26.07 31.619999999999997, 26.700000000000003 31.619999999999997 C 27.240000000000002 31.619999999999997, 27.285000000000004 31.619999999999997, 27.78 31.619999999999997 C 28.23 31.619999999999997, 28.095 31.694999999999997, 28.68 31.619999999999997 C 29.4 31.47, 29.595 31.575, 30.119999999999997 31.32 C 30.45 30.96, 30.375 31.034999999999997, 30.78 30.599999999999998 C 31.26 30.089999999999996, 31.380000000000003 30.194999999999997, 31.740000000000002 29.58 C 31.98 28.86, 32.055 28.785, 32.22 28.14 C 32.31 27.57, 32.28 27.96, 32.400000000000006 27 C 32.550000000000004 25.65, 32.61000000000001 25.65, 32.7 24.299999999999997 C 32.730000000000004 22.95, 32.745 22.98, 32.76 21.6 C 32.76 20.19, 32.76 19.89, 32.76 18.78 C 32.76 17.97, 32.76 18.18, 32.76 17.16 C 32.76 15.93, 32.805 15.75, 32.76 14.700000000000001 C 32.67 13.830000000000002, 32.669999999999995 13.785000000000002, 32.58 12.96 C 32.49 12.18, 32.49000000000001 12.075, 32.400000000000006 11.399999999999999 C 32.31 10.829999999999998, 32.31 10.815, 32.22 10.26 C 32.129999999999995 9.719999999999999, 32.114999999999995 9.69, 32.04 9.18 C 31.98 8.7, 32.010000000000005 8.625, 31.92 8.22 C 31.8 7.890000000000001, 31.814999999999998 7.920000000000001, 31.68 7.5600000000000005 C 31.53 7.17, 31.53 7.215, 31.380000000000003 6.779999999999999 C 31.23 6.3, 31.215 6.225, 31.08 5.82 C 30.959999999999997 5.49, 31.004999999999995 5.445, 30.839999999999996 5.16 C 30.63 4.92, 30.645 4.859999999999999, 30.42 4.68 C 30.18 4.56, 30.225 4.5, 29.94 4.4399999999999995 C 29.61 4.4399999999999995, 29.595000000000002 4.4399999999999995, 29.28 4.4399999999999995 C 28.98 4.4399999999999995, 29.04 4.2749999999999995, 28.68 4.4399999999999995 C 28.259999999999998 4.77, 28.169999999999995 4.8, 27.839999999999996 5.1 C 27.599999999999998 5.369999999999999, 27.72 5.13, 27.36 5.64 C 26.880000000000003 6.39, 26.805 6.42, 26.400000000000002 7.14 C 26.07 7.83, 26.115000000000002 7.635, 25.740000000000002 8.52 C 25.32 9.6, 25.305000000000003 9.69, 24.900000000000002 10.68 C 24.509999999999998 11.58, 24.569999999999997 11.46, 24.119999999999997 12.48 C 23.61 13.620000000000001, 23.61 13.695, 23.1 14.76 C 22.590000000000003 15.75, 22.365000000000002 16.125000000000004, 22.080000000000002 16.740000000000002 C 22.020000000000003 16.98, 21.990000000000002 17.1, 21.96 17.22 L 21.96 17.22" fill="none" stroke="black" stroke-width="2"></path><path d="M 21.12 3.54 C 20.73 4.17, 20.895 3.945000000000001, 20.34 4.800000000000001 C 19.619999999999997 5.88, 19.5 5.969999999999999, 18.9 6.959999999999999 C 18.42 7.859999999999999, 18.42 7.785, 17.94 8.76 C 17.46 9.809999999999999, 17.37 10.035, 16.98 10.86 C 16.68 11.459999999999999, 16.68 11.354999999999999, 16.38 12.059999999999999 C 16.08 12.87, 16.005 13.02, 15.78 13.68 C 15.629999999999999 14.190000000000001, 15.585 14.355, 15.48 14.700000000000001 C 15.42 14.879999999999999, 15.405 14.94, 15.36 15.059999999999999 L 15.299999999999999 15.18" fill="none" stroke="black" stroke-width="2"></path><path d="M 24.06 34.74 C 23.58 34.74, 23.685000000000002 34.725, 23.1 34.74 C 22.41 34.769999999999996, 22.5 34.425, 21.72 34.8 C 20.85 35.519999999999996, 20.64 35.625, 19.98 36.24 C 19.53 36.75, 19.485000000000003 36.525, 19.080000000000002 37.26 C 18.72 38.22, 18.585 38.19, 18.36 39.18 C 18.27 40.2, 18.225 40.365, 18.18 41.22 C 18.18 41.91, 18.105 41.99999999999999, 18.18 42.599999999999994 C 18.33 43.11, 18.18 43.125, 18.48 43.62 C 18.93 44.099999999999994, 18.9 44.175, 19.38 44.58 C 19.89 44.91, 19.83 44.955, 20.4 45.24 C 21.03 45.480000000000004, 21.060000000000002 45.6, 21.66 45.72 C 22.229999999999997 45.72, 22.034999999999997 45.72, 22.799999999999997 45.72 C 23.759999999999998 45.72, 23.895 45.825, 24.72 45.72 C 25.409999999999997 45.51, 25.485 45.599999999999994, 26.099999999999998 45.3 C 26.64 44.91, 26.669999999999998 44.97, 27.18 44.519999999999996 C 27.66 44.01, 27.72 44.235, 28.14 43.5 C 28.5 42.54, 28.604999999999997 42.45, 28.86 41.58 C 29.01 40.8, 29.085 40.815, 29.160000000000004 40.019999999999996 C 29.160000000000004 39.21, 29.205000000000005 39.135000000000005, 29.160000000000004 38.400000000000006 C 29.07 37.74, 29.16 37.665, 28.98 37.08 C 28.71 36.57, 28.845000000000002 36.480000000000004, 28.44 36.06 C 27.9 35.730000000000004, 28.005 35.685, 27.36 35.400000000000006 C 26.61 35.160000000000004, 26.46 35.07000000000001, 25.86 34.92 C 25.41 34.86, 25.380000000000003 34.86, 24.96 34.8 C 24.57 34.739999999999995, 24.645 34.71, 24.18 34.68 C 23.64 34.68, 23.490000000000002 34.68, 23.1 34.68 C 22.86 34.68, 22.740000000000002 34.68, 22.62 34.68 L 22.62 34.68" fill="none" stroke="black" stroke-width="2"></path><path d="M 18.6 40.68 C 19.98 40.47, 20.1 40.455, 21.36 40.26 C 22.5 40.08, 22.770000000000003 40.02, 23.64 39.900000000000006 C 24.24 39.84, 24.074999999999996 39.81, 24.839999999999996 39.78 C 25.77 39.78, 25.830000000000002 39.78, 26.700000000000003 39.78 C 27.51 39.78, 27.6 39.78, 28.32 39.78 C 28.95 39.78, 29.235 39.78, 29.58 39.78 C 29.64 39.78, 29.67 39.78, 29.700000000000003 39.78 L 29.700000000000003 39.78" fill="none" stroke="black" stroke-width="2"></path></svg>