<svg xmlns="http://www.w3.org/2000/svg" viewBox="8.579999923706055 1.880000114440918 24.51999855041504 44.0533332824707" width="24.51999855041504" height="44.0533332824707"><path d="M 10.14 35.58 C 10.65 34.92, 10.41 34.92, 11.16 34.26 C 12.15 33.599999999999994, 12.27 33.404999999999994, 13.14 32.94 C 13.89 32.67, 14.025 32.580000000000005, 14.64 32.400000000000006 C 15.120000000000001 32.31, 14.985000000000001 32.19, 15.600000000000001 32.22 C 16.35 32.37, 16.395000000000003 32.25, 17.1 32.519999999999996 C 17.759999999999998 32.91, 17.759999999999998 32.775, 18.419999999999998 33.3 C 19.08 33.959999999999994, 19.290000000000003 33.974999999999994, 19.740000000000002 34.62 C 19.98 35.25, 20.055 34.875, 20.22 35.88 C 20.31 37.260000000000005, 20.4 37.455, 20.4 38.64 C 20.31 39.629999999999995, 20.49 39.675, 20.22 40.62 C 19.77 41.519999999999996, 19.89 41.58, 19.32 42.42 C 18.630000000000003 43.2, 18.525000000000002 43.395, 17.94 43.980000000000004 C 17.46 44.370000000000005, 17.445 44.535, 16.98 44.76 C 16.53 44.82, 16.725 44.85, 16.080000000000002 44.88 C 15.24 44.88, 15.254999999999999 45, 14.399999999999999 44.88 C 13.53 44.64, 13.35 44.65500000000001, 12.66 44.400000000000006 C 12.15 44.13, 12.105 44.25, 11.64 43.86 C 11.22 43.349999999999994, 11.145000000000001 43.65, 10.8 42.839999999999996 C 10.530000000000001 41.73, 10.455 41.519999999999996, 10.26 40.62 C 10.14 39.93, 10.14 40.005, 10.02 39.24 C 9.899999999999999 38.400000000000006, 9.84 38.355000000000004, 9.78 37.56 C 9.78 36.81, 9.825 36.900000000000006, 9.78 36.06 C 9.690000000000001 35.13, 9.645000000000001 35.190000000000005, 9.600000000000001 34.2 C 9.600000000000001 33.15, 9.600000000000001 32.97, 9.600000000000001 32.099999999999994 C 9.600000000000001 31.409999999999997, 9.600000000000001 31.424999999999997, 9.600000000000001 30.72 C 9.600000000000001 30, 9.600000000000001 29.955000000000002, 9.600000000000001 29.28 C 9.600000000000001 28.65, 9.600000000000001 28.785, 9.600000000000001 28.02 C 9.600000000000001 27.119999999999997, 9.600000000000001 26.97, 9.600000000000001 26.22 C 9.600000000000001 25.619999999999997, 9.555000000000001 25.53, 9.600000000000001 25.02 C 9.690000000000001 24.6, 9.69 24.75, 9.78 24.18 C 9.87 23.46, 9.794999999999998 23.475, 9.959999999999999 22.740000000000002 C 10.2 21.990000000000002, 10.229999999999999 21.855000000000004, 10.44 21.240000000000002 C 10.620000000000001 20.76, 10.485000000000001 20.880000000000003, 10.8 20.28 C 11.25 19.560000000000002, 11.25 19.47, 11.7 18.84 C 12.15 18.299999999999997, 12.120000000000001 18.224999999999998, 12.600000000000001 17.759999999999998 C 13.110000000000001 17.369999999999997, 12.96 17.31, 13.620000000000001 16.98 C 14.43 16.71, 14.16 16.665, 15.24 16.44 C 16.59 16.26, 16.5 16.245, 17.94 16.080000000000002 C 19.47 15.93, 19.575 15.855, 21 15.78 C 22.32 15.78, 22.35 15.764999999999999, 23.64 15.78 C 24.900000000000002 15.809999999999999, 25.260000000000005 15.78, 26.160000000000004 15.84 C 26.700000000000003 15.93, 26.640000000000004 15.975, 27.240000000000002 16.02 C 27.9 16.02, 27.884999999999998 16.005, 28.56 16.02 C 29.25 16.05, 29.400000000000002 16.05, 29.94 16.080000000000002 C 30.33 16.11, 30.404999999999998 16.125, 30.72 16.14 C 30.96 16.14, 31.005000000000003 16.14, 31.200000000000003 16.14 L 31.5 16.14" fill="none" stroke="black" stroke-width="2"></path><path d="M 22.5 2.88 C 22.11 3.09, 22.29 2.9250000000000003, 21.72 3.3000000000000003 C 20.97 3.84, 21.195 3.69, 20.22 4.38 C 19.02 5.220000000000001, 18.96 5.205, 17.82 6.0600000000000005 C 16.740000000000002 6.930000000000001, 16.65 7.005000000000001, 15.66 7.800000000000001 C 14.76 8.52, 14.594999999999999 8.625, 13.86 9.24 C 13.29 9.75, 13.005 10.004999999999999, 12.72 10.26 C 12.72 10.26, 12.72 10.26, 12.72 10.26 L 12.72 10.26" fill="none" stroke="black" stroke-width="2"></path><path d="M 32.099999999999994 5.22 C 31.619999999999997 5.55, 31.89 5.445, 31.14 5.88 C 30.119999999999997 6.42, 30.15 6.329999999999999, 29.099999999999998 6.959999999999999 C 28.02 7.679999999999999, 27.855 7.784999999999998, 26.94 8.399999999999999 C 26.19 8.91, 25.995 9.045, 25.44 9.42 C 25.08 9.66, 25.095 9.645, 24.72 9.899999999999999 C 24.33 10.169999999999998, 24.39 10.139999999999999, 23.94 10.44 C 23.43 10.77, 23.294999999999998 10.860000000000001, 22.919999999999998 11.100000000000001 C 22.68 11.25, 22.560000000000002 11.325, 22.44 11.399999999999999 L 22.44 11.399999999999999" fill="none" stroke="black" stroke-width="2"></path></svg>