<svg xmlns="http://www.w3.org/2000/svg" viewBox="11.859999656677246 2.299999952316284 22.32817554473877 43.76000142097473" width="22.32817554473877" height="43.76000142097473"><path d="M 13.26 32.099999999999994 C 13.23 31.83, 13.245000000000001 31.935, 13.200000000000001 31.56 C 13.14 31.08, 13.110000000000001 31.139999999999997, 13.080000000000002 30.599999999999998 C 13.080000000000002 30, 13.080000000000002 29.970000000000002, 13.080000000000002 29.400000000000002 C 13.080000000000002 28.86, 13.125000000000004 28.830000000000002, 13.080000000000002 28.32 C 12.99 27.84, 12.945 27.915, 12.899999999999999 27.36 C 12.899999999999999 26.729999999999997, 12.899999999999999 26.595, 12.899999999999999 26.099999999999998 C 12.899999999999999 25.740000000000002, 12.899999999999999 25.905, 12.899999999999999 25.380000000000003 C 12.899999999999999 24.69, 12.899999999999999 24.54, 12.899999999999999 24 C 12.899999999999999 23.61, 12.809999999999999 23.655, 12.899999999999999 23.22 C 13.079999999999998 22.74, 13.004999999999999 22.709999999999997, 13.26 22.259999999999998 C 13.59 21.839999999999996, 13.514999999999999 21.764999999999997, 13.919999999999998 21.419999999999998 C 14.399999999999999 21.15, 14.384999999999998 21.104999999999997, 14.879999999999999 20.88 C 15.389999999999999 20.7, 15.284999999999998 20.655, 15.899999999999999 20.52 C 16.619999999999997 20.43, 16.365000000000002 20.52, 17.34 20.34 C 18.57 20.07, 18.9 19.979999999999997, 19.799999999999997 19.799999999999997 C 20.369999999999997 19.71, 20.295 19.71, 20.94 19.62 C 21.66 19.53, 21.66 19.485, 22.38 19.44 C 23.1 19.44, 23.1 19.425, 23.82 19.44 C 24.54 19.47, 24.599999999999998 19.485, 25.259999999999998 19.5 C 25.86 19.5, 25.815 19.5, 26.46 19.5 C 27.15 19.5, 27.269999999999996 19.47, 27.839999999999996 19.5 C 28.29 19.560000000000002, 28.275 19.59, 28.740000000000002 19.62 C 29.220000000000002 19.62, 29.355000000000004 19.62, 29.700000000000003 19.62 C 29.91 19.62, 29.849999999999998 19.62, 30.119999999999997 19.62 C 30.45 19.62, 30.509999999999998 19.62, 30.78 19.62 C 30.990000000000002 19.62, 31.050000000000004 19.62, 31.200000000000003 19.62 C 31.290000000000003 19.62, 31.305000000000003 19.62, 31.380000000000003 19.62 C 31.44 19.62, 31.47 19.62, 31.5 19.62 L 31.5 19.62" fill="none" stroke="black" stroke-width="2"></path><path d="M 21.240000000000002 3.3000000000000003 C 20.43 4.32, 20.265 4.575, 19.62 5.34 C 19.14 5.85, 19.275 5.67, 18.66 6.36 C 17.91 7.23, 18.015 7.230000000000001, 17.16 8.100000000000001 C 16.2 8.97, 15.93 9.18, 15.24 9.84 C 14.82 10.29, 14.79 10.350000000000001, 14.399999999999999 10.74 C 14.04 11.07, 13.86 11.235, 13.68 11.399999999999999 L 13.68 11.399999999999999" fill="none" stroke="black" stroke-width="2"></path><path d="M 30.78 4.08 C 30.630000000000003 4.5600000000000005, 30.810000000000002 4.515000000000001, 30.48 5.04 C 29.97 5.609999999999999, 30.150000000000002 5.385, 29.46 6.18 C 28.59 7.2, 28.65 7.23, 27.72 8.22 C 26.73 9.18, 26.490000000000002 9.405000000000001, 25.740000000000002 10.14 C 25.23 10.65, 25.095 10.77, 24.72 11.16 C 24.48 11.43, 24.495 11.445, 24.240000000000002 11.7 L 23.700000000000003 12.18" fill="none" stroke="black" stroke-width="2"></path><path d="M 21.72 19.56 C 21.63 20.130000000000003, 21.585 20.145000000000003, 21.54 20.700000000000003 C 21.54 21.240000000000002, 21.54 20.925000000000004, 21.54 21.78 C 21.54 22.95, 21.509999999999998 23.264999999999997, 21.54 24.119999999999997 C 21.6 24.66, 21.494999999999997 24.645000000000003, 21.66 25.200000000000003 C 21.93 25.77, 21.840000000000003 25.799999999999997, 22.200000000000003 26.339999999999996 C 22.650000000000002 26.849999999999998, 22.575000000000003 26.805, 23.1 27.36 C 23.7 27.96, 23.744999999999997 28.02, 24.299999999999997 28.56 C 24.81 29.04, 24.705 29.085, 25.32 29.52 C 26.04 29.909999999999997, 26.13 29.924999999999997, 26.759999999999998 30.299999999999997 C 27.299999999999997 30.659999999999997, 27.029999999999994 30.555, 27.839999999999996 31.02 C 28.919999999999998 31.590000000000003, 28.979999999999997 31.590000000000003, 30 32.160000000000004 C 30.96 32.730000000000004, 31.230000000000004 32.94, 31.92 33.3 C 32.34 33.449999999999996, 32.504999999999995 33.47999999999999, 32.76 33.599999999999994 C 32.849999999999994 33.69, 32.849999999999994 33.69, 32.94 33.78 C 33.03 33.870000000000005, 33.059999999999995 33.870000000000005, 33.12 33.96 C 33.15 34.05, 33.21 33.975, 33.18 34.14 C 33.09 34.379999999999995, 33.21 34.379999999999995, 33 34.62 C 32.67 34.86, 32.864999999999995 34.84499999999999, 32.339999999999996 35.099999999999994 C 31.619999999999997 35.37, 31.605 35.415, 30.900000000000002 35.64 C 30.21 35.82, 30.3 35.775, 29.52 36 C 28.65 36.269999999999996, 28.59 36.315, 27.78 36.54 C 27.03 36.72, 27.18 36.61500000000001, 26.28 36.900000000000006 C 25.23 37.290000000000006, 25.11 37.32, 24.18 37.68 C 23.369999999999997 38.01, 23.459999999999997 37.904999999999994, 22.56 38.339999999999996 C 21.57 38.879999999999995, 21.36 38.895, 20.580000000000002 39.42 C 20.01 39.93, 20.16 39.69, 19.44 40.44 C 18.57 41.43, 18.390000000000004 41.46, 17.700000000000003 42.42 C 17.19 43.35, 17.04 43.620000000000005, 16.68 44.28 C 16.47 44.67, 16.365 44.865, 16.259999999999998 45.06 C 16.259999999999998 45.06, 16.259999999999998 45.06, 16.259999999999998 45.06 C 16.259999999999998 45.06, 16.259999999999998 45.06, 16.259999999999998 45.06 L 16.259999999999998 45.06" fill="none" stroke="black" stroke-width="2"></path></svg>