<svg xmlns="http://www.w3.org/2000/svg" viewBox="9.920000076293945 3.739999771118164 20.546667098999023 39.739999771118164" width="20.546667098999023" height="39.739999771118164"><path d="M 12.36 5.16 C 12.27 6.09, 12.39 5.414999999999999, 12.18 7.02 C 11.85 9.3, 11.73 9.66, 11.52 11.58 C 11.43 13.14, 11.385 12.96, 11.34 14.700000000000001 C 11.34 16.62, 11.34 16.89, 11.34 18.54 C 11.34 19.919999999999998, 11.295 19.874999999999996, 11.34 21.299999999999997 C 11.43 22.77, 11.265 23.085, 11.52 24.240000000000002 C 11.94 25.080000000000002, 11.895 25.35, 12.36 25.92 C 12.87 26.22, 12.93 26.37, 13.379999999999999 26.52 C 13.77 26.52, 13.59 26.745, 14.16 26.52 C 14.91 26.07, 14.955 26.294999999999998, 15.66 25.619999999999997 C 16.32 24.72, 16.515 24.825, 16.98 23.82 C 17.25 22.71, 17.325 22.425, 17.52 21.6 C 17.64 21.060000000000002, 17.654999999999998 21.015, 17.759999999999998 20.52 C 17.85 20.07, 17.895 19.845, 17.94 19.62 C 17.94 19.62, 17.895000000000003 19.62, 17.94 19.62 C 18.03 19.62, 18 19.23, 18.12 19.62 C 18.27 20.4, 18.345 20.175, 18.419999999999998 21.18 C 18.419999999999998 22.41, 18.299999999999997 22.575, 18.419999999999998 23.64 C 18.659999999999997 24.54, 18.494999999999997 24.75, 18.9 25.44 C 19.47 25.92, 19.439999999999998 26.1, 20.04 26.400000000000002 C 20.669999999999998 26.520000000000003, 20.775 26.535, 21.299999999999997 26.64 C 21.72 26.73, 21.57 26.775, 22.14 26.82 C 22.86 26.82, 22.905 26.82, 23.580000000000002 26.82 C 24.21 26.82, 24.33 26.91, 24.839999999999996 26.82 C 25.229999999999997 26.64, 25.259999999999998 26.625, 25.619999999999997 26.46 C 25.95 26.310000000000002, 25.83 26.535000000000004, 26.28 26.160000000000004 C 26.85 25.560000000000002, 26.880000000000003 25.605, 27.42 24.96 C 27.93 24.270000000000003, 28.035000000000004 24.39, 28.44 23.580000000000002 C 28.740000000000002 22.65, 28.83 22.695, 29.04 21.72 C 29.16 20.7, 29.175 20.97, 29.28 19.68 C 29.37 18.119999999999997, 29.415 18.029999999999998, 29.46 16.56 C 29.46 15.18, 29.46 15.12, 29.46 13.799999999999999 C 29.46 12.54, 29.46 12.285, 29.46 11.28 C 29.46 10.53, 29.46 10.424999999999999, 29.46 9.78 C 29.46 9.239999999999998, 29.475 9.18, 29.46 8.7 C 29.43 8.28, 29.505000000000003 8.25, 29.400000000000002 7.86 C 29.22 7.5, 29.19 7.41, 29.04 7.14 C 28.919999999999998 6.959999999999999, 28.949999999999996 6.8999999999999995, 28.799999999999997 6.779999999999999 C 28.619999999999997 6.72, 28.65 6.705, 28.44 6.66 C 28.200000000000003 6.630000000000001, 28.290000000000003 6.450000000000001, 27.96 6.6000000000000005 C 27.54 6.93, 27.555 6.795, 27.119999999999997 7.26 C 26.669999999999998 7.859999999999999, 26.595 7.919999999999999, 26.22 8.459999999999999 C 25.919999999999998 8.94, 26.174999999999997 8.73, 25.619999999999997 9.42 C 24.81 10.32, 24.78 10.290000000000001, 24 11.22 C 23.25 12.18, 23.009999999999998 12.465000000000002, 22.5 13.14 C 22.23 13.53, 22.095 13.724999999999998, 21.96 13.919999999999998 C 21.96 13.919999999999998, 21.96 13.919999999999998, 21.96 13.919999999999998 L 21.96 13.919999999999998" fill="none" stroke="black" stroke-width="2"></path><path d="M 22.5 4.74 C 22.23 5.07, 22.395000000000003 4.905, 21.96 5.4 C 21.36 6.0600000000000005, 21.435 6.000000000000001, 20.759999999999998 6.720000000000001 C 20.009999999999998 7.5, 20.009999999999998 7.379999999999999, 19.259999999999998 8.28 C 18.509999999999998 9.3, 18.389999999999997 9.405000000000001, 17.759999999999998 10.32 C 17.25 11.129999999999999, 16.995 11.535, 16.740000000000002 11.94 L 16.740000000000002 11.94" fill="none" stroke="black" stroke-width="2"></path><path d="M 19.799999999999997 25.44 C 19.799999999999997 25.98, 19.799999999999997 25.95, 19.799999999999997 26.52 C 19.799999999999997 27.119999999999997, 19.799999999999997 27.029999999999998, 19.799999999999997 27.72 C 19.799999999999997 28.5, 19.799999999999997 28.44, 19.799999999999997 29.28 C 19.799999999999997 30.18, 19.844999999999995 30.345, 19.799999999999997 31.08 C 19.71 31.65, 19.83 31.56, 19.62 32.22 C 19.29 32.97, 19.335 32.97, 18.96 33.72 C 18.54 34.47, 18.630000000000003 34.455, 18.12 35.22 C 17.52 36, 17.445 36.045, 16.919999999999998 36.78 C 16.47 37.47, 16.455 37.605000000000004, 16.02 38.160000000000004 C 15.6 38.58, 15.645 38.49, 15.18 39 C 14.67 39.6, 14.865 39.540000000000006, 14.16 40.2 C 13.26 40.92, 13.17 41.07, 12.36 41.64 C 11.64 42.06, 11.28 42.27, 10.92 42.480000000000004 C 10.92 42.480000000000004, 10.92 42.480000000000004, 10.92 42.480000000000004 L 10.92 42.480000000000004" fill="none" stroke="black" stroke-width="2"></path><path d="M 15.299999999999999 39.36 C 15.75 39.36, 15.435000000000002 39.42, 16.200000000000003 39.36 C 17.28 39.239999999999995, 17.175 39.285, 18.36 39.12 C 19.65 38.91, 19.965000000000003 38.805, 20.94 38.7 C 21.6 38.7, 21.615 38.7, 22.259999999999998 38.7 C 22.89 38.7, 22.979999999999997 38.7, 23.52 38.7 C 23.97 38.7, 23.955000000000002 38.7, 24.42 38.7 C 24.900000000000002 38.7, 25.035000000000004 38.7, 25.380000000000003 38.7 C 25.59 38.7, 25.695 38.7, 25.799999999999997 38.7 L 25.799999999999997 38.7" fill="none" stroke="black" stroke-width="2"></path></svg>