<svg xmlns="http://www.w3.org/2000/svg" viewBox="7.559999465942383 3.619999885559082 27.58000087738037 42.019999504089355" width="27.58000087738037" height="42.019999504089355"><path d="M 15.600000000000001 4.62 C 15.48 5.13, 15.51 5.22, 15.36 5.64 C 15.18 5.970000000000001, 15.315 5.775, 15 6.300000000000001 C 14.55 7.0200000000000005, 14.610000000000001 6.960000000000001, 14.100000000000001 7.74 C 13.530000000000001 8.58, 13.470000000000002 8.625, 12.96 9.42 C 12.51 10.17, 12.465 10.2, 12.059999999999999 10.92 C 11.7 11.61, 11.594999999999999 11.79, 11.34 12.299999999999999 C 11.190000000000001 12.629999999999999, 11.13 12.765, 11.040000000000001 12.96 C 11.010000000000002 13.020000000000001, 10.995000000000001 13.05, 10.98 13.080000000000002 C 10.98 13.080000000000002, 10.98 13.080000000000002, 10.98 13.080000000000002 C 10.98 13.080000000000002, 10.98 13.080000000000002, 10.98 13.080000000000002 C 10.98 13.080000000000002, 10.98 13.020000000000003, 10.98 13.080000000000002 C 10.98 13.200000000000001, 10.89 13.260000000000002, 10.98 13.32 C 11.16 13.32, 11.025 13.275, 11.34 13.32 C 11.79 13.41, 11.445 13.469999999999999, 12.24 13.5 C 13.379999999999999 13.47, 13.275 13.500000000000002, 14.52 13.440000000000001 C 15.87 13.350000000000001, 15.87 13.35, 17.22 13.26 C 18.57 13.170000000000002, 18.81 13.170000000000002, 19.919999999999998 13.080000000000002 C 20.79 12.99, 20.625 12.989999999999998, 21.66 12.899999999999999 C 22.86 12.809999999999999, 22.86 12.795, 24.06 12.72 C 25.259999999999998 12.66, 25.32 12.675000000000002, 26.46 12.600000000000001 C 27.54 12.51, 27.764999999999997 12.465, 28.619999999999997 12.419999999999998 C 29.25 12.419999999999998, 29.19 12.449999999999998, 29.880000000000003 12.419999999999998 C 30.630000000000003 12.36, 30.78 12.344999999999999, 31.380000000000003 12.299999999999999 C 31.830000000000002 12.27, 31.935000000000002 12.254999999999999, 32.28 12.24 C 32.519999999999996 12.24, 32.489999999999995 12.24, 32.76 12.24 C 33.06 12.24, 33.015 12.24, 33.36 12.24 C 33.75 12.24, 33.945 12.24, 34.14 12.24 C 34.14 12.24, 34.14 12.24, 34.14 12.24 L 34.14 12.24" fill="none" stroke="black" stroke-width="2"></path><path d="M 9.78 44.64 C 9.78 43.95, 9.809999999999999 43.935, 9.78 43.26 C 9.719999999999999 42.599999999999994, 9.78 42.735, 9.66 41.94 C 9.48 41.01, 9.39 40.754999999999995, 9.3 40.08 C 9.3 39.66, 9.39 39.900000000000006, 9.3 39.24 C 9.120000000000001 38.34, 9.075 38.355, 8.94 37.44 C 8.85 36.51, 8.85 36.614999999999995, 8.76 35.58 C 8.67 34.44, 8.625 34.214999999999996, 8.58 33.3 C 8.58 32.61, 8.58 32.79, 8.58 31.92 C 8.58 30.87, 8.58 30.795, 8.58 29.82 C 8.58 28.92, 8.535 28.89, 8.58 28.02 C 8.67 27.18, 8.625 27.044999999999995, 8.76 26.339999999999996 C 8.940000000000001 25.77, 8.91 25.725, 9.120000000000001 25.200000000000003 C 9.360000000000001 24.720000000000002, 9.360000000000001 24.690000000000005, 9.600000000000001 24.240000000000002 C 9.84 23.82, 9.57 24, 10.08 23.4 C 10.86 22.619999999999997, 10.815000000000001 22.5, 11.64 21.84 C 12.51 21.299999999999997, 12.149999999999999 21.419999999999998, 13.379999999999999 20.759999999999998 C 14.969999999999999 19.98, 15.119999999999997 19.770000000000003, 16.56 19.200000000000003 C 17.85 18.840000000000003, 17.94 18.735, 19.14 18.48 C 20.25 18.33, 20.13 18.314999999999998, 21.36 18.18 C 22.71 18.060000000000002, 22.799999999999997 18, 24.06 17.94 C 25.23 17.94, 24.915000000000003 18, 26.400000000000002 17.94 C 28.200000000000003 17.82, 28.725 17.76, 30 17.700000000000003 C 30.75 17.700000000000003, 30.975 17.700000000000003, 31.5 17.700000000000003 C 31.799999999999997 17.700000000000003, 31.919999999999995 17.700000000000003, 32.099999999999994 17.700000000000003 C 32.16 17.700000000000003, 32.19 17.700000000000003, 32.22 17.700000000000003 C 32.22 17.700000000000003, 32.099999999999994 17.700000000000003, 32.22 17.700000000000003 C 32.46 17.700000000000003, 32.505 17.700000000000003, 32.7 17.700000000000003 C 32.85 17.700000000000003, 32.925 17.700000000000003, 33 17.700000000000003 L 33 17.700000000000003" fill="none" stroke="black" stroke-width="2"></path></svg>