<svg xmlns="http://www.w3.org/2000/svg" viewBox="10.073333740234375 2.299999952316284 25.426666259765625 43.086665391922" width="25.426666259765625" height="43.086665391922"><path d="M 16.5 3.3000000000000003 C 15.93 3.96, 16.064999999999998 3.87, 15.36 4.62 C 14.52 5.460000000000001, 14.58 5.325000000000001, 13.68 6.300000000000001 C 12.719999999999999 7.41, 12.39 7.709999999999999, 11.76 8.52 C 11.46 9.030000000000001, 11.325 9.09, 11.16 9.540000000000001 C 11.13 9.93, 11.115000000000002 9.975000000000001, 11.100000000000001 10.32 C 11.100000000000001 10.620000000000001, 11.040000000000003 10.605, 11.100000000000001 10.92 C 11.22 11.25, 11.175 11.25, 11.34 11.58 C 11.55 11.91, 11.445 11.97, 11.76 12.24 C 12.18 12.45, 12.060000000000002 12.51, 12.600000000000001 12.66 C 13.26 12.75, 12.495 12.719999999999999, 13.919999999999998 12.84 C 16.11 12.99, 15.659999999999997 12.99, 18.299999999999997 13.14 C 21.39 13.290000000000001, 21.585 13.380000000000003, 24.48 13.440000000000001 C 27.18 13.41, 27.78 13.545, 29.880000000000003 13.379999999999999 C 31.380000000000003 13.079999999999998, 31.725 12.974999999999998, 32.88 12.78 C 33.69 12.690000000000001, 34.095 12.645000000000001, 34.5 12.600000000000001 L 34.5 12.600000000000001" fill="none" stroke="black" stroke-width="2"></path><path d="M 16.259999999999998 13.02 C 15.989999999999998 13.95, 16.095 13.439999999999998, 15.72 14.879999999999999 C 15.24 16.83, 15.120000000000001 16.935000000000002, 14.76 18.78 C 14.52 20.52, 14.49 20.849999999999998, 14.28 22.259999999999998 C 14.099999999999998 23.34, 14.114999999999998 23.205000000000002, 13.919999999999998 24.42 C 13.709999999999999 25.77, 13.68 25.95, 13.5 27.119999999999997 C 13.350000000000001 28.11, 13.365000000000002 28.275, 13.200000000000001 29.099999999999998 C 13.02 29.759999999999998, 12.975 29.805, 12.84 30.42 C 12.75 30.990000000000002, 12.705 31.125, 12.66 31.56 C 12.66 31.86, 12.63 31.890000000000004, 12.66 32.160000000000004 C 12.719999999999999 32.400000000000006, 12.645 32.400000000000006, 12.78 32.64 C 12.99 32.879999999999995, 12.885000000000002 32.849999999999994, 13.200000000000001 33.12 C 13.620000000000001 33.42, 13.559999999999999 33.405, 14.04 33.72 C 14.58 34.05, 14.385000000000002 34.17, 15.120000000000001 34.38 C 16.05 34.47, 15.585 34.515, 16.98 34.56 C 18.840000000000003 34.56, 18.615000000000002 34.665000000000006, 20.700000000000003 34.56 C 23.01 34.35, 23.685000000000002 34.245000000000005, 25.32 34.14 C 26.28 34.14, 26.430000000000003 34.185, 27.240000000000002 34.14 C 27.9 34.05, 28.005 34.019999999999996, 28.56 33.96 C 29.009999999999998 33.93000000000001, 29.025000000000002 33.96000000000001, 29.46 33.900000000000006 C 29.88 33.81, 29.894999999999996 33.855000000000004, 30.299999999999997 33.72 C 30.689999999999998 33.54, 30.72 33.555, 31.08 33.36 C 31.41 33.15, 31.515 33.165, 31.740000000000002 32.94 C 31.86 32.7, 31.875 32.894999999999996, 31.98 32.46 C 32.07 31.830000000000002, 32.115 32.115, 32.160000000000004 31.200000000000003 C 32.160000000000004 30, 32.160000000000004 29.999999999999996, 32.160000000000004 28.799999999999997 C 32.160000000000004 27.6, 32.295 28.020000000000003, 32.160000000000004 26.400000000000002 C 31.89 24.36, 31.919999999999998 24.165, 31.619999999999997 22.32 C 31.29 20.67, 31.305 20.415, 30.96 19.02 C 30.6 17.880000000000003, 30.480000000000004 17.490000000000002, 30.240000000000002 16.740000000000002 C 30.12 16.380000000000003, 30.165 16.44, 30 16.02 C 29.79 15.54, 29.685 15.344999999999999, 29.58 15.059999999999999 C 29.58 14.969999999999999, 29.58 14.924999999999999, 29.58 14.879999999999999 C 29.58 14.879999999999999, 29.624999999999996 14.954999999999998, 29.58 14.879999999999999 C 29.490000000000002 14.73, 29.475 14.775000000000002, 29.400000000000002 14.580000000000002 C 29.340000000000003 14.340000000000002, 29.355000000000004 14.310000000000002, 29.28 14.100000000000001 L 29.099999999999998 13.74" fill="none" stroke="black" stroke-width="2"></path><path d="M 22.32 34.86 C 21.51 35.19, 21.690000000000005 35.099999999999994, 20.700000000000003 35.519999999999996 C 19.53 36.03, 19.259999999999998 35.925, 18.36 36.54 C 17.73 37.260000000000005, 17.580000000000002 37.035000000000004, 17.1 37.980000000000004 C 16.770000000000003 39.150000000000006, 16.515 39.42, 16.44 40.32 C 16.619999999999997 40.95, 16.365 41.025, 16.799999999999997 41.58 C 17.49 42.06, 17.13 42.075, 18.18 42.54 C 19.59 42.989999999999995, 19.53 43.004999999999995, 21 43.44 C 22.53 43.86, 22.799999999999997 44.07, 24.06 44.28 C 25.049999999999997 44.28, 25.064999999999998 44.52, 26.04 44.28 C 27 43.8, 27.375 43.935, 27.96 43.32 C 28.17 42.57, 28.26 42.84, 28.380000000000003 41.82 C 28.410000000000004 40.53, 28.470000000000002 40.230000000000004, 28.44 39.24 C 28.35 38.55, 28.56 38.55, 28.259999999999998 37.86 C 27.75 37.17, 27.840000000000003 37.050000000000004, 27.240000000000002 36.480000000000004 C 26.55 36.03, 26.7 35.985, 25.86 35.58 C 24.869999999999997 35.22, 24.735 35.01, 23.88 34.86 C 23.16 34.92, 23.145000000000003 34.815000000000005, 22.44 34.980000000000004 C 21.75 35.25, 21.45 35.355, 21.06 35.519999999999996 L 20.88 35.64" fill="none" stroke="black" stroke-width="2"></path><path d="M 17.52 41.88 C 18.39 41.34, 17.625 41.58, 19.259999999999998 40.8 C 21.659999999999997 39.78, 22.365 39.435, 24.06 38.76 C 25.049999999999997 38.42999999999999, 25.064999999999998 38.309999999999995, 26.04 38.099999999999994 C 27 38.01, 27.48 37.965, 27.96 37.92 L 27.96 37.92" fill="none" stroke="black" stroke-width="2"></path></svg>