<svg xmlns="http://www.w3.org/2000/svg" viewBox="9.326666831970215 2.7799999713897705 25.153331756591797 44.524943113327026" width="25.153331756591797" height="44.524943113327026"><path d="M 15.18 3.7800000000000002 C 13.92 5.369999999999999, 13.620000000000001 5.3999999999999995, 12.66 6.959999999999999 C 12 8.489999999999998, 11.91 8.655, 11.34 10.02 C 10.86 11.219999999999999, 10.62 11.7, 10.379999999999999 12.419999999999998 C 10.379999999999999 12.659999999999998, 10.379999999999999 12.704999999999998, 10.379999999999999 12.899999999999999 C 10.379999999999999 13.05, 10.379999999999999 13.05, 10.379999999999999 13.200000000000001 C 10.379999999999999 13.350000000000001, 10.259999999999998 13.41, 10.379999999999999 13.5 C 10.62 13.53, 10.469999999999999 13.499999999999998, 10.86 13.559999999999999 C 11.399999999999999 13.649999999999999, 10.95 13.754999999999999, 11.94 13.74 C 13.379999999999999 13.620000000000001, 13.485 13.65, 14.82 13.5 C 16.05 13.32, 14.88 13.350000000000001, 17.28 13.14 C 20.85 12.9, 21.375 12.780000000000001, 24.42 12.66 C 26.94 12.66, 27.735 12.66, 29.46 12.66 C 30.39 12.66, 30.42 12.66, 31.32 12.66 C 32.19 12.66, 32.52 12.66, 33.06 12.66 C 33.27 12.66, 33.375 12.66, 33.480000000000004 12.66 L 33.480000000000004 12.66" fill="none" stroke="black" stroke-width="2"></path><path d="M 15.18 12.600000000000001 C 14.969999999999999 13.290000000000001, 15.165 12.825000000000001, 14.76 13.98 C 14.16 15.6, 14.024999999999999 15.944999999999999, 13.559999999999999 17.22 C 13.229999999999999 18.15, 13.064999999999998 18.375, 12.899999999999999 19.080000000000002 C 12.899999999999999 19.560000000000002, 12.929999999999998 19.41, 12.899999999999999 20.04 C 12.84 20.82, 12.854999999999999 20.835, 12.78 21.6 C 12.690000000000001 22.35, 12.645000000000001 22.425000000000004, 12.600000000000001 23.1 C 12.600000000000001 23.7, 12.645000000000003 23.805, 12.600000000000001 24.299999999999997 C 12.51 24.689999999999998, 12.465 24.57, 12.419999999999998 25.08 C 12.419999999999998 25.709999999999997, 12.419999999999998 25.754999999999995, 12.419999999999998 26.339999999999996 C 12.419999999999998 26.88, 12.419999999999998 26.94, 12.419999999999998 27.42 C 12.419999999999998 27.84, 12.344999999999997 27.824999999999996, 12.419999999999998 28.259999999999998 C 12.57 28.71, 12.525 28.725, 12.72 29.160000000000004 C 12.96 29.580000000000002, 12.810000000000002 29.565, 13.200000000000001 30 C 13.74 30.450000000000003, 13.545 30.555, 14.28 30.900000000000002 C 15.21 31.14, 15.105 31.245000000000005, 16.14 31.380000000000003 C 17.28 31.410000000000004, 16.485 31.62, 18.419999999999998 31.44 C 21.15 31.050000000000004, 21.014999999999997 31.245000000000005, 23.88 30.660000000000004 C 26.880000000000003 29.880000000000003, 27.96 29.534999999999997, 29.880000000000003 29.099999999999998 C 30.72 29.009999999999998, 31.035 28.965, 31.56 28.92 C 31.77 28.92, 31.875 28.92, 31.98 28.92 L 31.98 28.92" fill="none" stroke="black" stroke-width="2"></path><path d="M 16.44 30.72 C 16.590000000000003 31.35, 16.71 31.275, 16.740000000000002 31.98 C 16.65 32.76, 16.65 32.355, 16.56 33.54 C 16.47 35.129999999999995, 16.424999999999997 35.235, 16.38 36.72 C 16.38 38.1, 16.335 38.265, 16.38 39.480000000000004 C 16.47 40.53, 16.424999999999997 40.71, 16.56 41.58 C 16.74 42.269999999999996, 16.755 42.405, 16.919999999999998 42.96 C 17.07 43.379999999999995, 17.025 43.245, 17.22 43.8 C 17.46 44.489999999999995, 17.535000000000004 44.655, 17.700000000000003 45.18 C 17.79 45.540000000000006, 17.805 45.675000000000004, 17.88 45.900000000000006 C 17.939999999999998 45.99, 17.955 46.019999999999996, 18 46.08 C 18.03 46.11, 17.909999999999997 46.53, 18.06 46.14 C 18.33 45.33, 18.105 45.53999999999999, 18.6 44.519999999999996 C 19.32 43.29, 19.2 43.17, 20.04 42.06 C 21 41.07, 20.580000000000002 40.92, 21.96 40.08 C 23.759999999999998 39.39, 23.354999999999997 38.985, 25.56 38.7 C 28.17 38.82, 29.19 38.76, 30.78 38.94 C 31.35 39.18, 31.605000000000004 39.285, 31.92 39.42 L 32.04 39.480000000000004" fill="none" stroke="black" stroke-width="2"></path></svg>