<svg xmlns="http://www.w3.org/2000/svg" viewBox="6.320000171661377 1.1600000858306885 24.86000108718872 39.62287878990173" width="24.86000108718872" height="39.62287878990173"><path d="M 12.96 2.16 C 12 3.12, 12.285 2.8800000000000003, 11.040000000000001 4.08 C 9.510000000000002 5.52, 8.895000000000001 6.074999999999999, 7.98 6.959999999999999 C 7.68 7.289999999999999, 7.53 7.38, 7.38 7.62 C 7.38 7.77, 7.38 7.77, 7.38 7.92 C 7.38 8.07, 7.245 7.9350000000000005, 7.38 8.22 C 7.65 8.64, 7.29 8.745000000000001, 7.92 9.06 C 8.91 9.27, 7.889999999999999 9.42, 9.899999999999999 9.48 C 12.93 9.39, 12.975000000000001 9.585, 15.96 9.3 C 18.9 8.82, 18.645 8.85, 21.84 8.34 C 25.29 7.8, 26.85 7.529999999999999, 28.740000000000002 7.26 L 29.400000000000002 7.26" fill="none" stroke="black" stroke-width="2"></path><path d="M 12.419999999999998 9.06 C 11.909999999999998 9.66, 12.059999999999999 9.225, 11.399999999999999 10.26 C 10.59 11.73, 10.514999999999999 11.205, 9.78 13.200000000000001 C 9.12 15.720000000000002, 8.909999999999998 16.26, 8.459999999999999 18.240000000000002 C 8.219999999999999 19.68, 8.145 19.8, 7.98 21.12 C 7.890000000000001 22.32, 7.845000000000001 22.665, 7.800000000000001 23.52 C 7.800000000000001 24.03, 7.6800000000000015 24.105, 7.800000000000001 24.54 C 8.04 24.9, 7.89 25.049999999999997, 8.28 25.259999999999998 C 8.82 25.32, 8.594999999999999 25.395000000000003, 9.36 25.380000000000003 C 10.35 25.290000000000003, 10.35 25.590000000000003, 11.34 25.200000000000003 C 12.33 24.51, 12.51 24.975, 13.32 23.82 C 13.950000000000001 22.200000000000003, 14.130000000000003 21.765, 14.580000000000002 20.580000000000002 C 14.850000000000001 19.830000000000002, 14.985000000000001 19.455000000000002, 15.120000000000001 19.080000000000002 C 15.120000000000001 19.080000000000002, 15.120000000000001 18.750000000000004, 15.120000000000001 19.080000000000002 C 15.120000000000001 19.740000000000002, 14.895000000000001 19.5, 15.120000000000001 20.4 C 15.57 21.54, 15.03 21.869999999999997, 16.02 22.68 C 17.55 23.16, 17.1 23.415, 19.080000000000002 23.64 C 21.51 23.61, 21.240000000000002 23.925000000000004, 23.94 23.580000000000002 C 26.910000000000004 22.92, 28.320000000000004 22.634999999999998, 29.880000000000003 22.259999999999998 L 30.18 22.080000000000002" fill="none" stroke="black" stroke-width="2"></path><path d="M 18.12 29.400000000000002 C 16.92 30.18, 16.26 30.12, 15.72 30.96 C 15.84 31.86, 14.865 32.16, 15.96 32.76 C 18.03 33.06, 18.660000000000004 33.975, 20.1 33.36 C 20.91 31.83, 21.9 31.379999999999995, 21.72 30.299999999999997 C 20.549999999999997 29.669999999999998, 20.4 29.115, 19.38 29.04 C 18.509999999999998 29.52, 18.03 29.25, 17.64 30 C 17.73 31.02, 16.98 31.665, 17.82 32.04 C 19.41 31.77, 20.085 32.175, 21 31.5 C 21.240000000000002 30.419999999999998, 22.035 29.819999999999997, 21.48 29.339999999999996 C 20.130000000000003 29.459999999999997, 20.055 28.964999999999996, 18.78 29.58 L 16.38 31.799999999999997" fill="none" stroke="black" stroke-width="2"></path><path d="M 11.58 39.78 C 13.95 39.72, 13.455 39.885000000000005, 16.32 39.660000000000004 C 19.68 39.27, 20.205 39.075, 23.04 38.88 C 25.35 38.88, 26.190000000000005 38.865, 27.660000000000004 38.88 C 28.290000000000003 38.91, 28.335 38.894999999999996, 28.92 38.94 L 30 39.06" fill="none" stroke="black" stroke-width="2"></path></svg>