<svg xmlns="http://www.w3.org/2000/svg" viewBox="10.393333435058594 3.9800000190734863 21.566664695739746 39.406665325164795" width="21.566664695739746" height="39.406665325164795"><path d="M 16.44 4.9799999999999995 C 15.600000000000001 6.27, 15.42 6.390000000000001, 14.76 7.5600000000000005 C 14.28 8.61, 14.129999999999999 8.940000000000001, 13.799999999999999 9.66 C 13.620000000000001 10.05, 13.545000000000002 10.2, 13.440000000000001 10.44 C 13.41 10.530000000000001, 13.424999999999999 10.41, 13.379999999999999 10.620000000000001 C 13.32 10.95, 13.29 11.115, 13.26 11.28 C 13.26 11.28, 13.17 11.19, 13.26 11.28 C 13.440000000000001 11.46, 13.260000000000002 11.505, 13.620000000000001 11.64 C 14.16 11.73, 13.935000000000002 11.775, 14.700000000000001 11.82 C 15.690000000000001 11.82, 15.345 11.82, 16.68 11.82 C 18.36 11.82, 18.134999999999998 11.82, 20.04 11.82 C 22.169999999999998 11.82, 22.364999999999995 11.91, 24.299999999999997 11.82 C 26.04 11.64, 26.22 11.669999999999998, 27.78 11.459999999999999 C 29.16 11.219999999999999, 29.744999999999997 11.1, 30.54 10.98 C 30.75 10.98, 30.855 10.98, 30.96 10.98 C 30.96 10.98, 30.96 10.98, 30.96 10.98 L 30.96 10.98" fill="none" stroke="black" stroke-width="2"></path><path d="M 17.28 41.160000000000004 C 15.510000000000002 41.400000000000006, 15.15 41.400000000000006, 13.74 41.64 C 12.690000000000001 41.879999999999995, 12.195 42, 11.64 42.12 C 11.58 42.12, 11.55 42.12, 11.52 42.12 C 11.52 42.12, 11.52 42.12, 11.52 42.12 C 11.52 42.12, 11.55 42.12, 11.52 42.12 C 11.459999999999999 42.12, 11.43 42.72, 11.399999999999999 42.12 C 11.399999999999999 40.92, 11.384999999999998 40.92, 11.399999999999999 39.72 C 11.43 38.519999999999996, 11.444999999999999 38.715, 11.459999999999999 37.32 C 11.459999999999999 35.730000000000004, 11.37 35.760000000000005, 11.459999999999999 34.14 C 11.64 32.489999999999995, 11.595 32.294999999999995, 11.82 30.839999999999996 C 12.09 29.58, 12.075 29.475, 12.36 28.32 C 12.66 27.27, 12.675 27.345, 12.96 26.22 C 13.23 25.02, 13.245000000000001 24.735, 13.5 23.82 C 13.74 23.189999999999998, 13.695 23.31, 13.98 22.56 C 14.31 21.689999999999998, 14.355 21.495, 14.64 20.82 C 14.88 20.34, 14.865000000000002 20.235, 15.120000000000001 19.86 C 15.39 19.59, 15.375 19.47, 15.66 19.32 C 15.959999999999999 19.29, 15.779999999999998 19.08, 16.259999999999998 19.259999999999998 C 16.92 19.65, 17.040000000000003 19.59, 17.580000000000002 20.04 C 18 20.549999999999997, 17.939999999999998 20.369999999999997, 18.419999999999998 21.06 C 18.96 21.93, 18.975 21.584999999999997, 19.5 22.799999999999997 C 20.009999999999998 24.36, 19.994999999999997 23.925, 20.52 25.92 C 21.060000000000002 28.35, 21.255000000000003 28.935000000000002, 21.6 30.78 C 21.75 32.04, 21.825 32.519999999999996, 21.9 33.3 C 21.9 33.6, 21.9 33.75, 21.9 33.900000000000006 C 21.9 33.900000000000006, 21.869999999999997 33.94500000000001, 21.9 33.900000000000006 C 21.96 33.81, 21.825 34.005, 22.02 33.72 C 22.35 33.239999999999995, 21.975 33.135, 22.68 32.76 C 23.759999999999998 32.489999999999995, 23.909999999999997 32.355, 24.839999999999996 32.22 C 25.619999999999997 32.22, 25.575000000000003 31.875, 26.400000000000002 32.22 C 27.270000000000003 32.91, 27.36 32.58, 28.14 33.599999999999994 C 28.83 34.949999999999996, 29.13 35.16, 29.52 36.3 C 29.61 37.230000000000004, 29.595000000000002 37.455000000000005, 29.700000000000003 38.160000000000004 C 29.82 38.64, 29.865000000000002 38.76, 29.94 39.12 C 29.97 39.36, 29.985 39.48, 30 39.599999999999994 L 30 39.599999999999994" fill="none" stroke="black" stroke-width="2"></path></svg>