<svg xmlns="http://www.w3.org/2000/svg" viewBox="8.893333435058594 1.5199999809265137 23.126667022705078 40.939998149871826" width="23.126667022705078" height="40.939998149871826"><path d="M 13.32 2.52 C 13.23 2.91, 13.515 2.7150000000000003, 13.14 3.3000000000000003 C 12.48 4.08, 12.315000000000001 4.155, 11.82 4.86 C 11.49 5.49, 11.46 5.565, 11.16 6.12 C 10.89 6.6, 10.845 6.63, 10.620000000000001 7.08 C 10.440000000000001 7.5, 10.395 7.470000000000001, 10.26 7.92 C 10.17 8.399999999999999, 10.125 8.565, 10.08 8.879999999999999 C 10.08 9.03, 10.08 9.075, 10.08 9.18 C 10.08 9.24, 10.08 9.225000000000001, 10.08 9.3 C 10.08 9.39, 9.780000000000001 9.375, 10.08 9.48 C 10.68 9.600000000000001, 10.469999999999999 9.66, 11.28 9.72 C 12.3 9.72, 12.045 9.780000000000001, 13.32 9.72 C 14.85 9.600000000000001, 14.82 9.600000000000001, 16.38 9.48 C 17.97 9.36, 17.924999999999997 9.435, 19.56 9.24 C 21.24 8.969999999999999, 21.419999999999998 8.924999999999999, 22.919999999999998 8.7 C 24.24 8.52, 24.24 8.475, 25.56 8.34 C 26.880000000000003 8.25, 27.03 8.25, 28.200000000000003 8.16 C 29.220000000000002 8.07, 29.610000000000003 8.025, 30.240000000000002 7.98 C 30.48 7.98, 30.525 7.98, 30.72 7.98 C 30.869999999999997 7.98, 30.945 7.98, 31.02 7.98 L 31.02 7.98" fill="none" stroke="black" stroke-width="2"></path><path d="M 10.74 23.700000000000003 C 10.65 22.740000000000002, 10.695 22.89, 10.56 21.78 C 10.379999999999999 20.52, 10.334999999999999 20.205, 10.2 19.259999999999998 C 10.11 18.63, 10.065 18.615000000000002, 10.02 18 C 10.02 17.4, 10.02 17.174999999999997, 10.02 16.799999999999997 C 10.02 16.65, 10.02 16.575, 10.02 16.5 C 10.02 16.5, 10.02 16.59, 10.02 16.5 C 10.02 16.32, 9.735 16.32, 10.02 16.14 C 10.59 15.96, 10.365 15.915, 11.16 15.78 C 12.18 15.690000000000001, 11.865000000000002 15.645000000000001, 13.200000000000001 15.600000000000001 C 14.850000000000001 15.600000000000001, 15.21 15.600000000000001, 16.5 15.600000000000001 C 17.43 15.600000000000001, 17.28 15.645000000000003, 18.36 15.600000000000001 C 19.59 15.51, 19.32 15.524999999999999, 20.82 15.419999999999998 C 22.59 15.299999999999999, 22.965 15.239999999999998, 24.36 15.18 C 25.380000000000003 15.18, 25.650000000000002 15.21, 26.400000000000002 15.18 C 26.880000000000003 15.12, 26.925 15.09, 27.36 15.059999999999999 C 27.75 15.059999999999999, 27.87 15.059999999999999, 28.14 15.059999999999999 C 28.29 15.059999999999999, 28.32 15.059999999999999, 28.44 15.059999999999999 C 28.53 15.059999999999999, 28.544999999999998 15.059999999999999, 28.619999999999997 15.059999999999999 C 28.68 15.059999999999999, 28.62 15.014999999999999, 28.740000000000002 15.059999999999999 C 28.92 15.149999999999999, 28.994999999999997 14.925, 29.099999999999998 15.24 C 29.130000000000003 15.780000000000001, 29.145000000000003 15.66, 29.160000000000004 16.32 C 29.160000000000004 17.1, 29.430000000000007 16.875, 29.160000000000004 17.88 C 28.62 19.11, 28.695 18.87, 28.08 20.34 C 27.39 22.049999999999997, 27.39 22.124999999999996, 26.700000000000003 23.759999999999998 C 26.01 25.32, 26.175 24.945, 25.32 26.880000000000003 C 24.3 29.19, 24.03 29.76, 23.28 31.5 C 22.8 32.67, 22.77 32.699999999999996, 22.32 33.839999999999996 C 21.9 34.95, 21.84 35.04, 21.48 36.06 C 21.18 36.99, 21.15 37.02, 20.88 37.92 C 20.64 38.790000000000006, 20.61 38.98500000000001, 20.4 39.660000000000004 C 20.22 40.14, 20.16 40.29, 20.04 40.62 C 19.979999999999997 40.8, 19.95 40.89, 19.919999999999998 40.980000000000004 C 19.919999999999998 40.980000000000004, 19.964999999999996 40.86000000000001, 19.919999999999998 40.980000000000004 C 19.83 41.22, 19.785 41.34, 19.740000000000002 41.46 C 19.740000000000002 41.46, 19.740000000000002 41.46, 19.740000000000002 41.46 L 19.740000000000002 41.46" fill="none" stroke="black" stroke-width="2"></path></svg>