<svg xmlns="http://www.w3.org/2000/svg" viewBox="10.640000343322754 2.9600000381469727 23.60000228881836 42.97999858856201" width="23.60000228881836" height="42.97999858856201"><path d="M 15.66 3.96 C 15.42 4.380000000000001, 15.51 4.305000000000001, 15.18 4.800000000000001 C 14.76 5.37, 14.805 5.279999999999999, 14.34 5.9399999999999995 C 13.83 6.6899999999999995, 13.74 6.81, 13.32 7.4399999999999995 C 12.99 7.949999999999999, 12.96 8.04, 12.66 8.459999999999999 C 12.39 8.79, 12.330000000000002 8.790000000000001, 12.120000000000001 9.120000000000001 C 11.97 9.45, 11.895 9.54, 11.82 9.78 C 11.82 9.93, 11.61 9.84, 11.82 10.08 C 12.24 10.41, 12.3 10.545, 12.66 10.74 C 12.96 10.8, 12.675 10.785, 13.26 10.86 C 14.129999999999999 10.95, 14.025 10.950000000000001, 15 11.040000000000001 C 16.08 11.13, 15.48 11.175, 17.16 11.22 C 19.439999999999998 11.22, 19.349999999999998 11.295000000000002, 21.72 11.22 C 24.18 11.07, 24.27 11.115, 26.64 10.92 C 28.92 10.68, 29.67 10.59, 31.200000000000003 10.44 C 31.98 10.379999999999999, 32.25 10.35, 32.76 10.32 C 33 10.32, 33.120000000000005 10.32, 33.24 10.32 L 33.24 10.32" fill="none" stroke="black" stroke-width="2"></path><path d="M 11.64 15.899999999999999 C 12.6 15.809999999999999, 12.54 15.81, 13.559999999999999 15.72 C 14.64 15.629999999999999, 14.46 15.66, 15.72 15.54 C 17.16 15.39, 17.115000000000002 15.39, 18.6 15.24 C 20.130000000000003 15.09, 19.935000000000002 15.105, 21.66 14.940000000000001 C 23.58 14.760000000000002, 24.015 14.715000000000003, 25.5 14.580000000000002 C 26.549999999999997 14.49, 26.64 14.445, 27.599999999999998 14.399999999999999 C 28.47 14.399999999999999, 28.664999999999996 14.399999999999999, 29.339999999999996 14.399999999999999 C 29.819999999999997 14.399999999999999, 29.984999999999996 14.354999999999997, 30.299999999999997 14.399999999999999 C 30.449999999999996 14.49, 30.345 14.370000000000001, 30.599999999999998 14.580000000000002 C 30.96 14.91, 31.005 14.82, 31.32 15.24 C 31.59 15.75, 31.68 15.629999999999999, 31.86 16.259999999999998 C 31.95 17.009999999999998, 31.994999999999997 16.665, 32.04 17.759999999999998 C 32.04 19.2, 32.04 19.485, 32.04 20.64 C 32.04 21.509999999999998, 32.07 21.854999999999997, 32.04 22.38 C 31.98 22.560000000000002, 31.950000000000003 22.650000000000002, 31.92 22.740000000000002 L 31.92 22.740000000000002" fill="none" stroke="black" stroke-width="2"></path><path d="M 21.36 15.48 C 21.27 16.86, 21.225 16.680000000000003, 21.18 18.240000000000002 C 21.18 19.98, 21.18 20.145, 21.18 21.72 C 21.18 23.13, 21.18 22.95, 21.18 24.54 C 21.18 26.31, 21.27 26.339999999999996, 21.18 28.08 C 21 29.79, 20.97 29.655, 20.82 31.5 C 20.700000000000003 33.480000000000004, 20.64 33.93, 20.580000000000002 35.46 C 20.580000000000002 36.54, 20.625000000000004 36.33, 20.580000000000002 37.62 C 20.490000000000002 39.12, 20.445 39.19499999999999, 20.4 40.62 C 20.4 41.97, 20.4 42.315, 20.4 43.32 C 20.4 43.980000000000004, 20.4 44.235, 20.4 44.64 C 20.4 44.79, 20.4 44.864999999999995, 20.4 44.94 C 20.4 44.94, 20.4 44.94, 20.4 44.94 L 20.4 44.94" fill="none" stroke="black" stroke-width="2"></path></svg>