<svg xmlns="http://www.w3.org/2000/svg" viewBox="10.520000457763672 2.5399999618530273 23.060001373291016 44.059998512268066" width="23.060001373291016" height="44.059998512268066"><path d="M 17.64 3.54 C 17.25 4.29, 17.384999999999998 4.23, 16.86 5.04 C 16.2 5.91, 16.229999999999997 5.895, 15.54 6.779999999999999 C 14.82 7.68, 14.685 7.71, 14.100000000000001 8.58 C 13.650000000000002 9.42, 13.425 9.615, 13.200000000000001 10.26 C 13.200000000000001 10.71, 13.200000000000001 10.815, 13.200000000000001 11.16 C 13.200000000000001 11.4, 13.155000000000001 11.4, 13.200000000000001 11.64 C 13.29 11.88, 13.125 11.88, 13.379999999999999 12.120000000000001 C 13.8 12.360000000000001, 13.575 12.405000000000001, 14.22 12.600000000000001 C 15.09 12.75, 14.97 12.825, 15.96 12.899999999999999 C 17.07 12.899999999999999, 16.86 12.915, 18.18 12.899999999999999 C 19.71 12.87, 19.44 12.915, 21.240000000000002 12.84 C 23.310000000000002 12.72, 22.995000000000005 12.870000000000001, 25.380000000000003 12.600000000000001 C 28.080000000000002 12.18, 29.055 12.015, 30.78 11.76 C 31.53 11.67, 31.86 11.625, 32.28 11.58 C 32.370000000000005 11.58, 32.415 11.58, 32.46 11.58 L 32.46 11.58" fill="none" stroke="black" stroke-width="2"></path><path d="M 12.48 17.4 C 12.9 17.4, 12.285 17.4, 13.32 17.4 C 14.97 17.4, 15.015 17.4, 16.62 17.4 C 18.18 17.4, 18.360000000000003 17.445, 19.740000000000002 17.4 C 20.94 17.31, 20.61 17.31, 22.14 17.22 C 24 17.13, 24.195 17.13, 25.86 17.04 C 27.33 16.95, 27.584999999999997 16.905, 28.799999999999997 16.86 C 29.759999999999998 16.86, 30.089999999999996 16.86, 30.72 16.86 C 31.02 16.86, 31.005 16.77, 31.32 16.86 C 31.65 17.04, 31.725 16.979999999999997, 31.98 17.22 C 32.16 17.52, 32.23499999999999 17.475, 32.339999999999996 17.82 C 32.370000000000005 18.21, 32.34 18.255000000000003, 32.400000000000006 18.6 C 32.49 18.900000000000002, 32.535 18.630000000000003, 32.58 19.200000000000003 C 32.58 20.04, 32.58 19.935, 32.58 20.88 C 32.58 21.93, 32.58 21.75, 32.58 22.98 C 32.58 24.39, 32.58 24.705, 32.58 25.799999999999997 C 32.58 26.58, 32.58 26.865, 32.58 27.36 C 32.58 27.57, 32.58 27.645, 32.58 27.78 L 32.58 27.900000000000002" fill="none" stroke="black" stroke-width="2"></path><path d="M 22.080000000000002 18.48 C 22.080000000000002 19.89, 22.125000000000004 19.499999999999996, 22.080000000000002 21.299999999999997 C 21.990000000000002 23.49, 22.095 23.744999999999997, 21.9 25.68 C 21.599999999999998 27.36, 21.72 27.36, 21.299999999999997 29.04 C 20.759999999999998 30.720000000000002, 20.849999999999998 30.810000000000002, 20.22 32.400000000000006 C 19.5 33.900000000000006, 19.53 34.03500000000001, 18.78 35.400000000000006 C 18 36.63, 17.924999999999997 36.870000000000005, 17.22 37.86 C 16.59 38.61, 16.68 38.58, 15.96 39.36 C 15.15 40.17, 15.03 40.30500000000001, 14.34 40.980000000000004 C 13.77 41.52, 13.620000000000001 41.7, 13.200000000000001 42.06 C 12.93 42.24, 12.870000000000001 42.300000000000004, 12.66 42.42 C 12.51 42.480000000000004, 12.6 42.375, 12.36 42.54 C 12.03 42.81, 11.91 42.93, 11.7 43.08 L 11.52 43.14" fill="none" stroke="black" stroke-width="2"></path><path d="M 29.339999999999996 32.099999999999994 C 28.979999999999997 33.089999999999996, 29.009999999999998 32.91, 28.619999999999997 34.08 C 28.2 35.43, 28.259999999999998 35.46, 27.78 36.78 C 27.240000000000002 38.07, 27.330000000000005 38.205, 26.700000000000003 39.36 C 25.98 40.38, 26.174999999999997 40.36500000000001, 25.259999999999998 41.400000000000006 C 24.15 42.45, 24.09 42.660000000000004, 23.04 43.5 C 22.049999999999997 44.129999999999995, 21.884999999999998 44.235, 21.06 44.76 C 20.4 45.17999999999999, 20.07 45.38999999999999, 19.740000000000002 45.599999999999994 L 19.740000000000002 45.599999999999994" fill="none" stroke="black" stroke-width="2"></path></svg>