<svg xmlns="http://www.w3.org/2000/svg" viewBox="8.980000495910645 2.5999999046325684 30.18000030517578 43.09333276748657" width="30.18000030517578" height="43.09333276748657"><path d="M 16.38 3.5999999999999996 C 15.809999999999999 4.17, 16.064999999999998 3.915, 15.24 4.74 C 14.16 5.82, 14.010000000000002 5.97, 13.080000000000002 6.8999999999999995 C 12.3 7.68, 12.195 7.634999999999999, 11.52 8.459999999999999 C 10.95 9.329999999999998, 10.754999999999999 9.524999999999999, 10.379999999999999 10.2 C 10.2 10.68, 10.11 10.68, 10.02 11.16 C 10.02 11.64, 9.93 11.64, 10.02 12.120000000000001 C 10.2 12.600000000000001, 10.035 12.630000000000003, 10.379999999999999 13.080000000000002 C 10.889999999999999 13.5, 10.679999999999998 13.649999999999999, 11.399999999999999 13.919999999999998 C 12.329999999999998 14.04, 12.209999999999999 14.1, 13.26 14.16 C 14.43 14.16, 14.190000000000001 14.16, 15.600000000000001 14.16 C 17.25 14.16, 16.95 14.22, 18.9 14.16 C 21.15 14.04, 21.224999999999998 14.144999999999998, 23.4 13.919999999999998 C 25.5 13.59, 25.424999999999997 13.485, 27.599999999999998 13.26 C 29.849999999999994 13.14, 30.209999999999994 13.17, 32.099999999999994 13.02 C 33.629999999999995 12.84, 33.795 12.795, 35.160000000000004 12.66 C 36.36 12.57, 36.81 12.525, 37.56 12.48 C 37.86 12.48, 38.010000000000005 12.48, 38.160000000000004 12.48 L 38.160000000000004 12.48" fill="none" stroke="black" stroke-width="2"></path><path d="M 15.899999999999999 13.379999999999999 C 15.719999999999999 14.01, 15.915 13.8, 15.54 14.64 C 14.969999999999999 15.690000000000001, 14.895 15.705000000000002, 14.399999999999999 16.740000000000002 C 13.979999999999999 17.76, 14.219999999999999 17.28, 13.559999999999999 18.78 C 12.66 20.76, 12.465 21.060000000000002, 11.76 22.740000000000002 C 11.25 24.12, 11.1 24.315, 10.74 25.5 C 10.530000000000001 26.490000000000002, 10.425 26.805, 10.32 27.48 C 10.32 27.840000000000003, 10.32 27.750000000000004, 10.32 28.200000000000003 C 10.32 28.740000000000002, 10.32 28.815, 10.32 29.28 C 10.32 29.67, 10.305 29.73, 10.32 30.06 C 10.35 30.33, 10.274999999999999 30.299999999999997, 10.379999999999999 30.599999999999998 C 10.559999999999999 30.93, 10.47 30.9, 10.74 31.259999999999998 C 11.1 31.65, 11.04 31.784999999999997, 11.459999999999999 32.04 C 11.939999999999998 32.16, 11.894999999999998 32.19, 12.419999999999998 32.28 C 12.989999999999998 32.34, 12.54 32.370000000000005, 13.559999999999999 32.400000000000006 C 15.03 32.400000000000006, 14.625 32.52000000000001, 16.5 32.400000000000006 C 18.78 32.160000000000004, 18.494999999999997 32.265, 21.06 31.92 C 23.909999999999997 31.47, 24.314999999999998 31.439999999999998, 26.759999999999998 31.02 C 28.799999999999997 30.630000000000003, 29.309999999999995 30.480000000000004, 30.839999999999996 30.240000000000002 C 31.86 30.15, 32.025000000000006 30.195, 32.88 30.06 C 33.57 29.880000000000003, 33.585 29.835, 34.26 29.700000000000003 C 34.92 29.61, 35.22 29.565, 35.58 29.52 C 35.64 29.52, 35.550000000000004 29.52, 35.7 29.52 L 36.18 29.52" fill="none" stroke="black" stroke-width="2"></path><path d="M 21.78 38.339999999999996 C 20.73 39.870000000000005, 19.92 39.915000000000006, 19.68 41.400000000000006 C 20.25 42.84, 19.62 43.56, 20.82 44.28 C 22.65 44.28, 23.085 45.21, 24.48 44.28 C 25.44 42.42, 26.370000000000005 42.135000000000005, 26.400000000000002 40.56 C 25.5 39.27, 25.38 38.550000000000004, 24.599999999999998 37.980000000000004 C 23.939999999999998 38.13, 23.775 37.635000000000005, 23.28 38.28 C 22.950000000000003 39.42, 22.305 39.465, 22.62 40.56 C 23.58 41.61, 23.49 42.255, 24.54 42.660000000000004 C 25.68 42.42, 26.445 43.08, 26.82 42.18 C 26.43 40.620000000000005, 26.985 40.2, 26.04 39.06 C 24.54 38.34, 24.255 37.665, 23.04 37.62 C 22.11 38.25, 21.615000000000002 37.605000000000004, 21.18 38.88 C 21.24 40.8, 20.879999999999995 41.445, 21.299999999999997 42.72 C 22.08 43.35, 22.049999999999997 43.755, 22.86 43.980000000000004 L 24.54 43.62" fill="none" stroke="black" stroke-width="2"></path><path d="M 24 40.32 C 24.03 40.230000000000004, 24 40.260000000000005, 24.06 40.14 C 24.15 39.989999999999995, 24.180000000000003 39.89999999999999, 24.240000000000002 39.839999999999996 C 24.27 39.870000000000005, 24.72 39.165000000000006, 24.299999999999997 39.900000000000006 C 23.43 41.34, 23.009999999999998 41.955, 22.56 42.78 C 22.53 42.99, 22.065 43.215, 22.5 43.2 C 23.4 42.96, 23.61 43.29, 24.299999999999997 42.72 C 24.779999999999998 41.82, 25.019999999999996 41.49, 25.259999999999998 40.92 C 25.259999999999998 40.68, 25.379999999999995 40.665, 25.259999999999998 40.44 C 25.02 40.23, 25.095 39.94499999999999, 24.78 40.019999999999996 C 24.39 40.379999999999995, 24.285 40.260000000000005, 24 40.74 C 23.82 41.34, 23.685000000000002 41.58, 23.64 41.94 C 23.73 42.06, 23.61 42.3, 23.82 42.18 C 24.15 41.82, 24.315 41.94, 24.48 41.46 C 24.48 40.86, 24.48 40.56, 24.48 40.26 L 24.48 40.26" fill="none" stroke="black" stroke-width="2"></path></svg>