<svg xmlns="http://www.w3.org/2000/svg" viewBox="11.180000305175781 3.0799999237060547 23.479999542236328 40.760000228881836" width="23.479999542236328" height="40.760000228881836"><path d="M 19.02 4.08 C 19.14 5.220000000000001, 19.244999999999997 4.875, 19.259999999999998 6.36 C 19.17 8.19, 19.455000000000002 7.89, 19.080000000000002 10.02 C 18.42 12.45, 18.75 12.66, 17.759999999999998 14.879999999999999 C 16.439999999999998 16.89, 16.38 17.265, 15.120000000000001 18.9 C 13.920000000000002 20.159999999999997, 13.455000000000002 20.685, 12.72 21.419999999999998 L 12.18 21.84" fill="none" stroke="black" stroke-width="2"></path><path d="M 17.16 13.440000000000001 C 17.55 13.59, 16.695 13.56, 17.94 13.74 C 20.04 13.95, 19.95 14.055, 22.14 14.16 C 24.42 14.16, 24.315000000000005 14.235, 26.700000000000003 14.16 C 29.19 14.01, 29.97 13.934999999999999, 31.68 13.86 C 32.61 13.86, 33.045 13.86, 33.54 13.86 L 33.660000000000004 13.86" fill="none" stroke="black" stroke-width="2"></path><path d="M 22.799999999999997 15.84 C 22.409999999999997 19.23, 22.275 19.815, 22.02 22.62 C 21.9 24.84, 22.005000000000003 24.465, 21.78 27.06 C 21.450000000000003 30.03, 21.345000000000002 30.36, 21.12 33 C 21 35.31, 20.939999999999998 35.565, 20.88 37.62 C 20.88 39.42, 20.88 39.915, 20.88 41.22 L 20.88 42.839999999999996" fill="none" stroke="black" stroke-width="2"></path><path d="M 28.02 14.34 C 27.93 16.83, 28.004999999999995 16.455000000000002, 27.839999999999996 19.32 C 27.599999999999998 22.56, 27.57 22.665, 27.36 25.799999999999997 C 27.18 28.83, 27.21 28.875, 27 31.86 C 26.759999999999998 34.8, 26.685000000000002 35.46, 26.52 37.74 C 26.43 39.36, 26.384999999999998 39.795, 26.339999999999996 40.980000000000004 C 26.339999999999996 41.730000000000004, 26.339999999999996 42.105000000000004, 26.339999999999996 42.480000000000004 L 26.339999999999996 42.480000000000004" fill="none" stroke="black" stroke-width="2"></path></svg>