<svg xmlns="http://www.w3.org/2000/svg" viewBox="10.386667251586914 2.9000000953674316 27.093331336975098 39.9800009727478" width="27.093331336975098" height="39.9800009727478"><path d="M 16.5 3.9000000000000004 C 15.84 4.41, 15.99 4.095000000000001, 15.18 4.92 C 14.219999999999999 6.06, 13.95 6.389999999999999, 13.26 7.199999999999999 C 12.84 7.68, 12.809999999999999 7.529999999999999, 12.419999999999998 8.16 C 12.059999999999999 8.940000000000001, 11.879999999999999 9.15, 11.7 9.72 C 11.7 10.08, 11.7 10.094999999999999, 11.7 10.44 C 11.7 10.77, 11.655 10.860000000000001, 11.7 11.100000000000001 C 11.79 11.25, 11.594999999999999 11.219999999999999, 11.879999999999999 11.399999999999999 C 12.36 11.61, 12.3 11.715, 12.84 11.82 C 13.44 11.82, 13.02 11.82, 14.04 11.82 C 15.479999999999999 11.82, 15.45 11.82, 16.919999999999998 11.82 C 18.419999999999998 11.82, 17.894999999999996 11.88, 19.919999999999998 11.82 C 22.47 11.7, 22.77 11.685, 25.02 11.58 C 26.97 11.489999999999998, 27.240000000000002 11.549999999999999, 28.92 11.399999999999999 C 30.330000000000002 11.19, 30.435000000000002 11.16, 31.740000000000002 10.98 C 32.94 10.83, 33.225 10.815, 34.14 10.68 C 34.77 10.559999999999999, 34.89000000000001 10.53, 35.400000000000006 10.44 C 35.790000000000006 10.379999999999999, 35.91 10.35, 36.18 10.32 C 36.33 10.32, 36.405 10.32, 36.480000000000004 10.32 L 36.480000000000004 10.32" fill="none" stroke="black" stroke-width="2"></path><path d="M 12.299999999999999 22.44 C 12.809999999999999 22.44, 12.75 22.44, 13.32 22.44 C 13.950000000000001 22.44, 13.905000000000001 22.44, 14.580000000000002 22.44 C 15.3 22.44, 15.15 22.44, 16.02 22.44 C 17.04 22.44, 17.189999999999998 22.44, 18.06 22.44 C 18.78 22.44, 19.065 22.44, 19.5 22.44 C 19.65 22.44, 19.724999999999998 22.44, 19.799999999999997 22.44 L 19.799999999999997 22.44" fill="none" stroke="black" stroke-width="2"></path><path d="M 12.48 29.52 C 12.48 28.950000000000003, 12.57 29.265, 12.48 28.380000000000003 C 12.3 27.18, 12.270000000000001 27, 12.120000000000001 25.98 C 12 25.14, 11.985 25.064999999999998, 11.879999999999999 24.299999999999997 C 11.79 23.61, 11.745 23.58, 11.7 22.919999999999998 C 11.7 22.29, 11.745 22.335, 11.7 21.66 C 11.61 20.939999999999998, 11.565 20.91, 11.52 20.22 C 11.52 19.56, 11.52 19.589999999999996, 11.52 18.9 C 11.52 18.18, 11.52 17.985, 11.52 17.46 C 11.52 17.13, 11.219999999999999 17.144999999999996, 11.52 16.799999999999997 C 12.120000000000001 16.439999999999998, 11.940000000000001 16.305, 12.72 16.080000000000002 C 13.68 15.99, 13.47 15.989999999999998, 14.64 15.899999999999999 C 16.02 15.809999999999999, 15.944999999999999 15.765, 17.4 15.72 C 18.93 15.72, 18.585 15.72, 20.46 15.72 C 22.68 15.72, 23.07 15.72, 24.900000000000002 15.72 C 26.340000000000003 15.72, 26.355000000000004 15.72, 27.78 15.72 C 29.189999999999998 15.72, 29.46 15.72, 30.599999999999998 15.72 C 31.47 15.72, 31.634999999999994 15.585, 32.339999999999996 15.72 C 32.879999999999995 15.989999999999998, 33.03 16.049999999999997, 33.42 16.259999999999998 C 33.660000000000004 16.409999999999997, 33.690000000000005 16.365, 33.900000000000006 16.56 C 34.08 16.799999999999997, 34.155 16.59, 34.26 17.04 C 34.29 17.7, 34.305 17.64, 34.32 18.36 C 34.32 19.14, 34.53 18.689999999999998, 34.32 19.919999999999998 C 33.900000000000006 21.6, 34.2 21.18, 33.480000000000004 23.28 C 32.46 25.8, 32.565000000000005 25.755000000000003, 31.44 28.32 C 30.21 30.93, 29.94 31.38, 28.98 33.54 C 28.29 35.25, 28.095 35.82, 27.599999999999998 36.96 C 27.299999999999997 37.53, 27.224999999999998 37.63499999999999, 27 38.099999999999994 C 26.85 38.459999999999994, 26.835 38.474999999999994, 26.700000000000003 38.82 C 26.580000000000002 39.150000000000006, 26.565 39.165000000000006, 26.46 39.480000000000004 C 26.37 39.78, 26.385 39.765, 26.28 40.08 C 26.16 40.41, 26.189999999999998 40.41, 26.04 40.74 C 25.86 41.07000000000001, 25.83 41.11500000000001, 25.68 41.400000000000006 C 25.560000000000002 41.64, 25.5 41.760000000000005, 25.44 41.88 C 25.44 41.88, 25.44 41.88, 25.44 41.88 L 25.44 41.88" fill="none" stroke="black" stroke-width="2"></path></svg>