<svg xmlns="http://www.w3.org/2000/svg" viewBox="13.15999984741211 3.0999999046325684 17.233333587646484 42.05999994277954" width="17.233333587646484" height="42.05999994277954"><path d="M 14.16 26.160000000000004 C 14.55 26.160000000000004, 14.490000000000002 26.160000000000004, 14.940000000000001 26.160000000000004 C 15.450000000000001 26.160000000000004, 15.435000000000002 26.160000000000004, 15.96 26.160000000000004 C 16.5 26.160000000000004, 16.5 26.160000000000004, 17.04 26.160000000000004 C 17.58 26.160000000000004, 17.490000000000002 26.160000000000004, 18.12 26.160000000000004 C 18.84 26.160000000000004, 19.005 26.205000000000005, 19.56 26.160000000000004 C 19.95 26.07, 19.905 26.145000000000003, 20.34 25.98 C 20.82 25.740000000000002, 20.849999999999998 25.875, 21.299999999999997 25.5 C 21.72 24.990000000000002, 21.78 25.08, 22.14 24.48 C 22.44 23.79, 22.545 23.73, 22.740000000000002 23.1 C 22.83 22.53, 22.784999999999997 22.665, 22.919999999999998 21.96 C 23.1 21.12, 23.19 20.73, 23.28 20.28 C 23.28 20.22, 23.28 20.19, 23.28 20.16 C 23.28 20.16, 23.28 20.145, 23.28 20.16 C 23.28 20.189999999999998, 23.28 19.979999999999997, 23.28 20.22 C 23.28 20.67, 23.28 20.490000000000002, 23.28 21.12 C 23.28 21.93, 23.25 22.065, 23.28 22.740000000000002 C 23.34 23.28, 23.174999999999997 23.265, 23.4 23.82 C 23.79 24.39, 23.79 24.48, 24.18 24.96 C 24.57 25.35, 24.525 25.425000000000004, 24.96 25.740000000000002 C 25.44 25.98, 25.53 26.1, 25.92 26.22 C 26.22 26.22, 26.175 26.22, 26.52 26.22 C 26.909999999999997 26.22, 26.939999999999998 26.31, 27.299999999999997 26.22 C 27.63 26.04, 27.645 26.115, 27.96 25.86 C 28.259999999999998 25.53, 28.335 25.53, 28.56 25.200000000000003 C 28.71 24.87, 28.755 24.855, 28.86 24.54 C 28.92 24.240000000000002, 28.905 24.330000000000002, 28.98 23.94 C 29.07 23.46, 29.100000000000005 23.52, 29.160000000000004 22.98 C 29.19 22.380000000000003, 29.189999999999998 22.455000000000002, 29.22 21.78 C 29.25 21.03, 29.265 20.94, 29.28 20.28 C 29.28 19.71, 29.28 19.665, 29.28 19.14 C 29.28 18.66, 29.28 18.75, 29.28 18.18 C 29.28 17.52, 29.28 17.73, 29.28 16.86 C 29.28 15.780000000000001, 29.28 15.765, 29.28 14.700000000000001 C 29.28 13.650000000000002, 29.28 13.485000000000001, 29.28 12.600000000000001 C 29.28 11.88, 29.28 11.925, 29.28 11.16 C 29.28 10.350000000000001, 29.28 10.395000000000001, 29.28 9.540000000000001 C 29.28 8.64, 29.28 8.49, 29.28 7.74 C 29.28 7.140000000000001, 29.28 7.080000000000001, 29.28 6.540000000000001 C 29.28 6.0600000000000005, 29.28 6, 29.28 5.58 C 29.28 5.220000000000001, 29.28 5.130000000000001, 29.28 4.86 C 29.28 4.68, 29.28 4.59, 29.28 4.5 C 29.28 4.5, 29.28 4.5, 29.28 4.5 C 29.28 4.5, 29.28 4.545, 29.28 4.5 C 29.28 4.41, 29.310000000000002 4.380000000000001, 29.28 4.32 C 29.220000000000002 4.29, 29.235000000000003 4.305, 29.160000000000004 4.26 C 29.07 4.199999999999999, 29.025000000000002 4.17, 28.98 4.14 C 28.98 4.14, 29.055 4.14, 28.98 4.14 C 28.83 4.14, 28.89 4.05, 28.68 4.14 C 28.41 4.32, 28.395 4.245, 28.14 4.5 C 27.900000000000002 4.83, 27.915000000000006 4.815, 27.660000000000004 5.16 C 27.39 5.52, 27.375 5.58, 27.119999999999997 5.88 C 26.88 6.12, 26.955 6, 26.64 6.36 C 26.25 6.84, 26.25 6.87, 25.86 7.32 C 25.47 7.74, 25.485 7.74, 25.08 8.16 C 24.66 8.58, 24.615000000000002 8.61, 24.240000000000002 9 C 23.910000000000004 9.36, 23.925000000000004 9.375, 23.580000000000002 9.72 C 23.22 10.05, 23.1 10.125, 22.86 10.379999999999999 C 22.740000000000002 10.559999999999999, 22.68 10.65, 22.62 10.74 L 22.62 10.74" fill="none" stroke="black" stroke-width="2"></path><path d="M 22.98 25.08 C 22.98 25.68, 22.98 25.785, 22.98 26.28 C 22.98 26.67, 22.845 26.475, 22.98 27.06 C 23.25 27.839999999999996, 23.145 27.9, 23.52 28.619999999999997 C 24 29.28, 24.03 29.445, 24.48 29.94 C 24.9 30.27, 24.9 30.284999999999997, 25.32 30.599999999999998 C 25.740000000000002 30.9, 25.710000000000004 30.930000000000003, 26.160000000000004 31.200000000000003 C 26.64 31.44, 26.64 31.47, 27.119999999999997 31.68 C 27.599999999999998 31.86, 27.629999999999995 31.875, 28.08 32.04 C 28.5 32.19, 28.68 32.235, 28.92 32.339999999999996 C 28.98 32.4, 28.95 32.34, 29.04 32.46 C 29.16 32.64, 29.205000000000002 32.655, 29.28 32.82 C 29.31 32.97, 29.324999999999996 33.045, 29.339999999999996 33.12 C 29.339999999999996 33.12, 29.339999999999996 33, 29.339999999999996 33.12 C 29.339999999999996 33.36, 29.459999999999994 33.419999999999995, 29.339999999999996 33.599999999999994 C 29.099999999999998 33.72, 29.31 33.675, 28.86 33.839999999999996 C 28.2 34.05, 28.2 34.11, 27.54 34.26 C 26.88 34.349999999999994, 26.939999999999998 34.305, 26.22 34.44 C 25.44 34.62, 25.545 34.574999999999996, 24.660000000000004 34.8 C 23.67 35.06999999999999, 23.520000000000003 35.06999999999999, 22.68 35.339999999999996 C 21.99 35.61, 22.034999999999997 35.49, 21.299999999999997 35.88 C 20.52 36.39, 20.340000000000003 36.42000000000001, 19.740000000000002 36.900000000000006 C 19.32 37.35, 19.365 37.2, 18.9 37.8 C 18.39 38.55, 18.27 38.504999999999995, 17.88 39.3 C 17.61 40.14, 17.52 40.14, 17.34 40.980000000000004 C 17.25 41.82000000000001, 17.205 41.98500000000001, 17.16 42.660000000000004 C 17.16 43.17, 17.16 43.38, 17.16 43.68 C 17.16 43.769999999999996, 17.16 43.739999999999995, 17.16 43.86 C 17.16 44.010000000000005, 17.16 44.085, 17.16 44.160000000000004 L 17.16 44.160000000000004" fill="none" stroke="black" stroke-width="2"></path></svg>