<svg xmlns="http://www.w3.org/2000/svg" viewBox="13.25333309173584 0.9800000190734863 19.41004180908203 44.65999937057495" width="19.41004180908203" height="44.65999937057495"><path d="M 15.18 44.64 C 15.18 42.72, 15.18 42.405, 15.18 40.8 C 15.18 39.51, 15.27 39.56999999999999, 15.18 38.22 C 15 36.81, 14.955 36.84, 14.82 35.400000000000006 C 14.73 33.93000000000001, 14.73 33.900000000000006, 14.64 32.46 C 14.55 31.05, 14.535 30.810000000000002, 14.46 29.64 C 14.4 28.71, 14.385 28.635, 14.34 27.78 C 14.309999999999999 27, 14.295 27, 14.28 26.22 C 14.28 25.44, 14.28 25.440000000000005, 14.28 24.660000000000004 C 14.28 23.880000000000003, 14.219999999999999 23.775000000000002, 14.28 23.1 C 14.399999999999999 22.53, 14.399999999999999 22.44, 14.52 21.96 C 14.64 21.57, 14.625 21.494999999999997, 14.76 21.18 C 14.91 20.94, 14.895 20.925000000000004, 15.059999999999999 20.700000000000003 C 15.239999999999998 20.490000000000002, 15.029999999999998 20.580000000000002, 15.419999999999998 20.28 C 16.02 19.89, 15.780000000000001 19.935000000000002, 16.62 19.5 C 17.700000000000003 19.02, 17.985000000000003 18.825, 18.78 18.54 C 19.29 18.45, 18.974999999999998 18.494999999999997, 19.799999999999997 18.36 C 20.939999999999998 18.18, 21.165 18.09, 22.080000000000002 18 C 22.770000000000003 18, 22.845000000000002 18, 23.46 18 C 24 18, 24.03 18, 24.54 18 C 25.02 18, 24.945 17.955, 25.5 18 C 26.13 18.09, 26.144999999999996 18.03, 26.759999999999998 18.18 C 27.36 18.39, 27.375 18.36, 27.96 18.6 C 28.53 18.87, 28.619999999999997 18.825000000000003, 29.099999999999998 19.14 C 29.490000000000002 19.5, 29.445000000000004 19.35, 29.880000000000003 19.86 C 30.36 20.52, 30.464999999999996 20.595, 30.839999999999996 21.18 C 31.11 21.69, 31.185000000000002 21.750000000000004, 31.380000000000003 22.200000000000003 C 31.5 22.590000000000003, 31.56 22.560000000000002, 31.619999999999997 22.98 C 31.619999999999997 23.43, 31.634999999999998 23.34, 31.619999999999997 23.88 C 31.589999999999996 24.509999999999998, 31.769999999999996 24.495, 31.56 25.14 C 31.17 25.8, 31.185000000000002 25.92, 30.78 26.46 C 30.36 26.88, 30.480000000000004 26.879999999999995, 29.94 27.299999999999997 C 29.28 27.72, 29.279999999999998 27.825, 28.619999999999997 28.14 C 27.959999999999997 28.35, 27.974999999999994 28.424999999999997, 27.299999999999997 28.56 C 26.61 28.619999999999997, 26.340000000000003 28.65, 25.92 28.68 C 25.77 28.68, 25.724999999999998 28.68, 25.619999999999997 28.68 C 25.56 28.68, 25.604999999999997 28.68, 25.5 28.68 C 25.35 28.68, 25.320000000000004 28.68, 25.200000000000003 28.68 C 25.11 28.68, 25.065 28.68, 25.02 28.68 L 25.02 28.68" fill="none" stroke="black" stroke-width="2"></path><path d="M 28.380000000000003 1.98 C 28.380000000000003 2.2199999999999998, 28.500000000000004 2.1, 28.380000000000003 2.46 C 28.14 2.94, 28.395000000000003 2.82, 27.900000000000002 3.42 C 27.150000000000002 4.140000000000001, 27.21 4.095000000000001, 26.400000000000002 4.86 C 25.53 5.67, 25.545000000000005 5.67, 24.660000000000004 6.48 C 23.76 7.290000000000001, 23.985 7.050000000000002, 22.86 8.100000000000001 C 21.509999999999998 9.39, 21.045 9.825, 20.16 10.68 C 19.740000000000002 11.1, 19.665 11.19, 19.32 11.52 C 19.05 11.76, 18.915 11.879999999999999, 18.78 12 C 18.78 12, 18.78 12, 18.78 12 L 18.78 12" fill="none" stroke="black" stroke-width="2"></path></svg>