<svg xmlns="http://www.w3.org/2000/svg" viewBox="12.140000343322754 4.793333530426025 19.179999351501465 40.30666637420654" width="19.179999351501465" height="40.30666637420654"><path d="M 13.14 6.6000000000000005 C 13.38 7.98, 13.47 7.77, 13.620000000000001 9.36 C 13.68 11.16, 13.665000000000001 11.190000000000001, 13.74 12.96 C 13.829999999999998 14.700000000000001, 13.799999999999997 14.88, 13.919999999999998 16.44 C 14.07 17.82, 14.055 17.715000000000003, 14.22 19.200000000000003 C 14.400000000000002 20.79, 14.46 20.7, 14.580000000000002 22.38 C 14.64 24.15, 14.670000000000002 24.165, 14.700000000000001 25.92 C 14.700000000000001 27.660000000000004, 14.700000000000001 27.705000000000002, 14.700000000000001 29.400000000000002 C 14.700000000000001 31.050000000000004, 14.700000000000001 31.395000000000003, 14.700000000000001 32.7 C 14.700000000000001 33.66, 14.700000000000001 33.54, 14.700000000000001 34.62 C 14.700000000000001 35.81999999999999, 14.700000000000001 35.894999999999996, 14.700000000000001 37.019999999999996 C 14.700000000000001 38.06999999999999, 14.700000000000001 38.144999999999996, 14.700000000000001 39.12 C 14.700000000000001 40.019999999999996, 14.700000000000001 40.14, 14.700000000000001 40.92 C 14.700000000000001 41.58, 14.715000000000002 41.595, 14.700000000000001 42.24 C 14.670000000000002 42.870000000000005, 14.655000000000001 43.035000000000004, 14.64 43.5 C 14.64 43.8, 14.64 43.949999999999996, 14.64 44.099999999999994 C 14.64 44.099999999999994, 14.64 44.099999999999994, 14.64 44.099999999999994 L 14.64 44.099999999999994" fill="none" stroke="black" stroke-width="2"></path><path d="M 14.52 34.019999999999996 C 14.82 34.019999999999996, 14.775000000000002 34.019999999999996, 15.120000000000001 34.019999999999996 C 15.51 34.019999999999996, 15.465 34.004999999999995, 15.899999999999999 34.019999999999996 C 16.38 34.05, 16.439999999999998 34.065, 16.86 34.08 C 17.22 34.08, 16.935000000000002 34.095, 17.580000000000002 34.08 C 18.51 34.05, 18.42 34.08, 19.44 34.019999999999996 C 20.55 33.92999999999999, 20.67 33.885, 21.66 33.839999999999996 C 22.53 33.839999999999996, 22.724999999999998 33.855, 23.4 33.839999999999996 C 23.88 33.81, 23.82 33.81, 24.36 33.78 C 24.96 33.75, 24.974999999999998 33.78, 25.56 33.72 C 26.130000000000003 33.629999999999995, 26.220000000000002 33.629999999999995, 26.700000000000003 33.54 C 27.090000000000003 33.45, 27.12 33.48, 27.48 33.36 C 27.810000000000002 33.21, 27.810000000000002 33.27, 28.14 33.06 C 28.47 32.79, 28.56 32.684999999999995, 28.799999999999997 32.519999999999996 C 28.949999999999996 32.46, 28.919999999999998 32.565000000000005, 29.099999999999998 32.400000000000006 C 29.31 32.13, 29.369999999999997 32.115, 29.52 31.86 C 29.61 31.62, 29.610000000000003 31.830000000000002, 29.700000000000003 31.380000000000003 C 29.790000000000003 30.72, 29.790000000000003 31.064999999999998, 29.880000000000003 30.06 C 29.97 28.71, 30.015 29.265, 30.06 27.36 C 30.06 24.9, 30 25.185000000000002, 30.06 22.44 C 30.18 19.41, 30.24 18.54, 30.299999999999997 16.38 C 30.299999999999997 15.09, 30.299999999999997 15.45, 30.299999999999997 13.799999999999999 C 30.299999999999997 11.79, 30.299999999999997 11.25, 30.299999999999997 9.78 C 30.299999999999997 8.85, 30.345 8.655, 30.299999999999997 7.92 C 30.209999999999997 7.38, 30.209999999999997 7.2299999999999995, 30.119999999999997 6.84 C 30.03 6.6, 30.03 6.57, 29.94 6.36 C 29.85 6.18, 29.805 6.09, 29.759999999999998 6 C 29.759999999999998 6, 29.805 6.045, 29.759999999999998 6 C 29.669999999999998 5.91, 29.625 5.865, 29.58 5.82 C 29.58 5.82, 29.58 5.82, 29.58 5.82 C 29.58 5.82, 29.58 5.82, 29.58 5.82 C 29.58 5.82, 29.669999999999998 5.76, 29.58 5.82 C 29.4 5.94, 29.4 5.790000000000001, 29.22 6.0600000000000005 C 29.04 6.48, 29.025 6.569999999999999, 28.86 6.8999999999999995 C 28.71 7.14, 28.77 6.975, 28.56 7.38 C 28.29 7.949999999999999, 28.275 7.949999999999999, 28.02 8.52 C 27.78 9.09, 27.81 9.075, 27.54 9.66 C 27.240000000000002 10.26, 27.285 10.02, 26.94 10.86 C 26.550000000000004 11.94, 26.535000000000004 12.045, 26.160000000000004 13.02 C 25.800000000000004 13.89, 25.740000000000002 14.01, 25.44 14.76 C 25.200000000000003 15.39, 25.275000000000002 15.315, 24.96 16.02 C 24.57 16.8, 24.435 17.07, 24.18 17.580000000000002 C 24.060000000000002 17.82, 24 17.939999999999998, 23.94 18.06 C 23.94 18.06, 23.955000000000002 18.029999999999998, 23.94 18.06 L 23.88 18.18" fill="none" stroke="black" stroke-width="2"></path></svg>