<svg xmlns="http://www.w3.org/2000/svg" viewBox="12.859999656677246 3.260000228881836 13.38000202178955 43.64000129699707" width="13.38000202178955" height="43.64000129699707"><path d="M 22.5 4.26 C 22.5 5.1899999999999995, 22.515 5.325, 22.5 6.12 C 22.47 6.779999999999999, 22.470000000000002 6.704999999999999, 22.44 7.4399999999999995 C 22.41 8.25, 22.395 8.355, 22.38 9.06 C 22.38 9.66, 22.424999999999997 9.54, 22.38 10.26 C 22.29 11.1, 22.335 11.235, 22.200000000000003 11.94 C 22.020000000000003 12.510000000000002, 21.96 12.525000000000002, 21.84 13.080000000000002 C 21.78 13.620000000000001, 21.84 13.65, 21.72 14.16 C 21.54 14.64, 21.57 14.595000000000002, 21.36 15.120000000000001 C 21.119999999999997 15.69, 21.044999999999998 15.854999999999997, 20.88 16.259999999999998 C 20.79 16.5, 20.865000000000002 16.380000000000003, 20.700000000000003 16.740000000000002 C 20.46 17.220000000000002, 20.505 17.160000000000004, 20.22 17.700000000000003 C 19.89 18.3, 19.875 18.435, 19.56 18.9 C 19.259999999999998 19.229999999999997, 19.215 19.275, 18.96 19.56 C 18.75 19.799999999999997, 18.81 19.74, 18.54 20.04 C 18.21 20.4, 18.345 20.324999999999996, 17.88 20.759999999999998 C 17.28 21.27, 17.22 21.39, 16.68 21.78 C 16.2 22.05, 16.2 22.05, 15.72 22.32 C 15.24 22.59, 15.045 22.695, 14.76 22.86 C 14.670000000000002 22.92, 14.625000000000002 22.95, 14.580000000000002 22.98 C 14.580000000000002 22.98, 14.580000000000002 22.98, 14.580000000000002 22.98 C 14.580000000000002 22.98, 14.580000000000002 22.98, 14.580000000000002 22.98 L 14.580000000000002 22.98" fill="none" stroke="black" stroke-width="2"></path><path d="M 18.9 19.68 C 19.05 19.68, 19.005000000000003 19.68, 19.200000000000003 19.68 C 19.44 19.68, 19.425 19.605, 19.68 19.68 C 19.95 19.83, 19.964999999999996 19.845, 20.22 19.98 C 20.46 20.1, 20.46 20.04, 20.700000000000003 20.22 C 20.94 20.46, 20.880000000000003 20.400000000000002, 21.18 20.700000000000003 C 21.54 21.060000000000002, 21.584999999999997 21, 21.9 21.419999999999998 C 22.17 21.9, 22.305 21.81, 22.44 22.38 C 22.44 23.04, 22.44 23.025000000000002, 22.44 23.700000000000003 C 22.44 24.39, 22.485000000000003 24.345, 22.44 25.08 C 22.35 25.86, 22.365 25.83, 22.259999999999998 26.64 C 22.14 27.48, 22.2 27.615000000000002, 22.02 28.32 C 21.78 28.89, 21.794999999999998 28.92, 21.54 29.46 C 21.27 29.97, 21.39 29.85, 21 30.48 C 20.490000000000002 31.23, 20.55 31.17, 19.98 31.98 C 19.35 32.85, 19.169999999999998 33.12, 18.72 33.72 C 18.45 34.05, 18.57 33.96, 18.18 34.38 C 17.67 34.89, 17.715 34.845000000000006, 17.16 35.400000000000006 C 16.560000000000002 36, 16.425 36.17999999999999, 15.96 36.599999999999994 C 15.629999999999999 36.839999999999996, 15.584999999999999 36.9, 15.299999999999999 37.08 C 15.059999999999999 37.2, 15.06 37.17, 14.82 37.32 C 14.58 37.5, 14.46 37.59, 14.34 37.68 C 14.34 37.68, 14.46 37.635, 14.34 37.68 L 13.86 37.86" fill="none" stroke="black" stroke-width="2"></path><path d="M 25.200000000000003 33.480000000000004 C 25.200000000000003 33.78, 25.200000000000003 33.54, 25.200000000000003 34.08 C 25.200000000000003 34.86, 25.290000000000006 34.875, 25.200000000000003 35.64 C 25.02 36.39, 25.169999999999998 36.27, 24.839999999999996 37.14 C 24.36 38.129999999999995, 24.36 38.309999999999995, 23.88 39.12 C 23.4 39.75, 23.534999999999997 39.615, 22.919999999999998 40.38 C 22.169999999999998 41.28, 22.275 41.31, 21.419999999999998 42.18 C 20.46 43.019999999999996, 20.415 43.2, 19.5 43.86 C 18.63 44.34, 18.435 44.46, 17.759999999999998 44.82 C 17.279999999999998 45.06, 17.339999999999996 45.059999999999995, 16.799999999999997 45.3 C 16.2 45.54, 15.975000000000001 45.629999999999995, 15.600000000000001 45.78 L 15.299999999999999 45.900000000000006" fill="none" stroke="black" stroke-width="2"></path></svg>