<svg xmlns="http://www.w3.org/2000/svg" viewBox="10.640000343322754 2 17.90000057220459 39.619998931884766" width="17.90000057220459" height="39.619998931884766"><path d="M 15.96 39.36 C 15.330000000000002 38.099999999999994, 15.3 38.084999999999994, 14.700000000000001 36.839999999999996 C 14.129999999999999 35.61, 14.04 35.655, 13.559999999999999 34.38 C 13.169999999999998 33.06, 13.139999999999999 33.105000000000004, 12.78 31.740000000000002 C 12.45 30.330000000000002, 12.330000000000002 30.135, 12.120000000000001 28.92 C 12.030000000000001 27.900000000000002, 11.985 27.885, 11.94 26.880000000000003 C 11.94 25.89, 11.924999999999999 25.935000000000002, 11.94 24.900000000000002 C 11.969999999999999 23.82, 11.925 23.865000000000002, 12 22.740000000000002 C 12.120000000000001 21.57, 12.120000000000001 21.299999999999997, 12.24 20.4 C 12.36 19.77, 12.39 19.605, 12.48 19.14 C 12.540000000000001 18.84, 12.555000000000001 18.735, 12.600000000000001 18.54 C 12.63 18.45, 12.525 18.509999999999998, 12.66 18.36 C 12.9 18.15, 12.855 18.045, 13.14 17.94 C 13.469999999999999 17.94, 13.395 17.76, 13.799999999999999 17.94 C 14.28 18.3, 14.34 18.315, 14.76 18.66 C 15.120000000000001 18.990000000000002, 15.105 18.81, 15.48 19.32 C 15.87 20.01, 15.839999999999998 19.71, 16.259999999999998 20.700000000000003 C 16.71 21.990000000000002, 16.785 22.080000000000002, 17.16 23.28 C 17.46 24.39, 17.564999999999998 24.795, 17.759999999999998 25.5 C 17.85 25.799999999999997, 17.895 25.95, 17.94 26.099999999999998 C 17.94 26.099999999999998, 17.94 26.279999999999998, 17.94 26.099999999999998 C 17.94 25.740000000000002, 17.94 26.310000000000002, 17.94 25.380000000000003 C 17.94 23.880000000000003, 17.880000000000003 23.64, 17.94 22.38 C 18.060000000000002 21.36, 18.015 21.045, 18.18 20.34 C 18.39 19.95, 18.240000000000002 20.04, 18.6 19.56 C 19.11 18.99, 19.080000000000002 18.869999999999997, 19.62 18.419999999999998 C 20.189999999999998 18.089999999999996, 20.159999999999997 18.044999999999998, 20.759999999999998 17.759999999999998 C 21.39 17.52, 21.48 17.4, 22.02 17.28 C 22.47 17.28, 22.499999999999996 17.28, 22.919999999999998 17.28 C 23.310000000000002 17.28, 23.28 17.28, 23.700000000000003 17.28 C 24.15 17.28, 24.165 17.220000000000002, 24.599999999999998 17.28 C 25.02 17.4, 25.155 17.415, 25.44 17.52 L 25.740000000000002 17.700000000000003" fill="none" stroke="black" stroke-width="2"></path><path d="M 26.099999999999998 3 C 25.53 3.45, 25.485 3.4200000000000004, 24.96 3.9000000000000004 C 24.48 4.41, 24.585 4.29, 24 4.92 C 23.310000000000002 5.67, 23.745 5.234999999999999, 22.62 6.42 C 21.060000000000002 8.04, 20.85 8.355, 19.5 9.66 C 18.36 10.65, 17.97 10.935, 17.22 11.64 C 16.86 12.06, 16.68 12.27, 16.5 12.48 L 16.5 12.48" fill="none" stroke="black" stroke-width="2"></path><path d="M 11.64 40.62 C 12.99 40.260000000000005, 12.96 40.215, 14.34 39.900000000000006 C 15.75 39.63, 15.885 39.555, 17.16 39.36 C 18.3 39.239999999999995, 17.82 39.224999999999994, 19.44 39.12 C 21.54 39.03, 21.810000000000002 38.985, 23.64 38.94 C 25.2 38.94, 25.784999999999997 38.94, 26.759999999999998 38.94 C 27.15 38.94, 27.345 38.94, 27.54 38.94 L 27.54 38.94" fill="none" stroke="black" stroke-width="2"></path></svg>