<svg xmlns="http://www.w3.org/2000/svg" viewBox="14.539999961853027 2.3400001525878906 17.25333309173584 40.685203552246094" width="17.25333309173584" height="40.685203552246094"><path d="M 15.54 31.14 C 16.08 31.23, 15.855 31.275, 16.62 31.32 C 17.61 31.32, 17.955000000000002 31.32, 18.6 31.32 C 18.900000000000002 31.32, 18.825000000000003 31.32, 19.200000000000003 31.32 C 19.650000000000002 31.32, 19.755000000000003 31.32, 20.1 31.32 C 20.340000000000003 31.32, 20.340000000000003 31.32, 20.580000000000002 31.32 C 20.82 31.32, 20.79 31.32, 21.06 31.32 C 21.36 31.32, 21.27 31.455, 21.66 31.32 C 22.14 31.05, 22.215 30.990000000000002, 22.62 30.78 C 22.950000000000003 30.630000000000003, 22.92 30.810000000000002, 23.28 30.48 C 23.67 29.97, 23.744999999999997 30.015, 24.06 29.46 C 24.299999999999997 28.86, 24.419999999999998 28.904999999999998, 24.54 28.259999999999998 C 24.54 27.57, 24.54 27.495000000000005, 24.54 26.880000000000003 C 24.54 26.34, 24.54 26.144999999999996, 24.54 25.799999999999997 C 24.54 25.65, 24.54 25.575, 24.54 25.5 C 24.54 25.5, 24.54 25.5, 24.54 25.5 C 24.54 25.5, 24.54 25.41, 24.54 25.5 C 24.54 25.68, 24.54 25.5, 24.54 25.86 C 24.54 26.4, 24.494999999999997 26.355, 24.54 26.94 C 24.63 27.57, 24.57 27.585, 24.72 28.200000000000003 C 24.93 28.800000000000004, 24.975 28.935000000000002, 25.14 29.400000000000002 C 25.26 29.73, 25.200000000000003 29.73, 25.380000000000003 30.06 C 25.62 30.39, 25.62 30.465, 25.86 30.72 C 26.099999999999998 30.9, 26.189999999999998 30.99, 26.339999999999996 31.08 C 26.4 31.08, 26.235 31.08, 26.46 31.08 C 26.85 31.08, 26.835 31.184999999999995, 27.240000000000002 31.08 C 27.66 30.87, 27.615 30.915000000000003, 28.08 30.660000000000004 C 28.589999999999996 30.36, 28.68 30.375, 29.099999999999998 30.06 C 29.43 29.73, 29.474999999999998 29.73, 29.759999999999998 29.400000000000002 C 30 29.07, 30.03 29.145000000000003, 30.240000000000002 28.740000000000002 C 30.42 28.26, 30.464999999999996 28.410000000000004, 30.599999999999998 27.78 C 30.689999999999998 27, 30.735 27.285, 30.78 26.22 C 30.78 24.869999999999997, 30.78 24.825, 30.78 23.52 C 30.78 22.259999999999998, 30.78 22.005, 30.78 21 C 30.78 20.25, 30.78 20.61, 30.78 19.5 C 30.78 18.03, 30.78 17.865, 30.78 16.56 C 30.78 15.419999999999998, 30.810000000000002 15.389999999999999, 30.78 14.28 C 30.720000000000002 13.2, 30.780000000000005 13.080000000000002, 30.660000000000004 12.120000000000001 C 30.48 11.280000000000001, 30.464999999999996 11.415, 30.299999999999997 10.44 C 30.15 9.33, 30.15 9.21, 30 8.22 C 29.85 7.3500000000000005, 29.820000000000004 7.260000000000001, 29.700000000000003 6.48 C 29.61 5.79, 29.61 5.58, 29.52 5.1 C 29.43 4.83, 29.459999999999997 4.86, 29.339999999999996 4.5600000000000005 C 29.189999999999998 4.23, 29.115 4.065, 29.04 3.9000000000000004 C 29.04 3.9000000000000004, 29.07 3.9600000000000004, 29.04 3.9000000000000004 C 28.98 3.7800000000000002, 29.040000000000003 3.75, 28.92 3.66 C 28.740000000000002 3.6, 28.65 3.5700000000000003, 28.56 3.54 C 28.56 3.54, 28.589999999999996 3.5700000000000003, 28.56 3.54 C 28.5 3.48, 28.515 3.45, 28.44 3.42 C 28.35 3.42, 28.47 3.24, 28.259999999999998 3.42 C 27.93 3.78, 27.915 3.7949999999999995, 27.599999999999998 4.14 C 27.299999999999997 4.470000000000001, 27.255 4.470000000000001, 27 4.800000000000001 C 26.79 5.130000000000001, 26.849999999999998 5.04, 26.58 5.46 C 26.25 5.970000000000001, 26.235 5.94, 25.92 6.48 C 25.62 7.050000000000001, 25.545 7.125, 25.32 7.62 C 25.17 8.04, 25.305 7.874999999999999, 25.02 8.459999999999999 C 24.6 9.209999999999999, 24.615 9.12, 24.18 9.959999999999999 C 23.73 10.89, 23.685000000000002 10.995000000000001, 23.28 11.82 C 22.92 12.54, 22.875 12.69, 22.56 13.26 C 22.29 13.68, 22.155 13.89, 22.02 14.100000000000001 C 22.02 14.100000000000001, 22.02 14.100000000000001, 22.02 14.100000000000001 L 22.02 14.100000000000001" fill="none" stroke="black" stroke-width="2"></path><path d="M 22.740000000000002 38.519999999999996 C 22.26 38.79, 22.185000000000002 38.595, 21.78 39.06 C 21.450000000000003 39.72, 21.195 39.915000000000006, 21.12 40.38 C 21.3 40.650000000000006, 21.165 40.725, 21.48 40.92 C 21.93 41.040000000000006, 21.96 41.1, 22.38 41.160000000000004 C 22.77 41.160000000000004, 22.725 41.370000000000005, 23.16 41.160000000000004 C 23.64 40.74, 23.834999999999997 40.86, 24.119999999999997 40.32 C 24.209999999999997 39.66, 24.254999999999995 39.495000000000005, 24.299999999999997 39 C 24.299999999999997 38.67, 24.509999999999998 38.595, 24.299999999999997 38.339999999999996 C 23.88 38.16, 24.045 38.010000000000005, 23.46 37.980000000000004 C 22.71 38.1, 22.44 37.980000000000004, 21.96 38.22 C 21.75 38.58, 21.645 38.44499999999999, 21.54 38.94 C 21.54 39.57, 21.494999999999997 39.75, 21.54 40.2 C 21.63 40.47, 21.555 40.545, 21.72 40.74 C 21.96 40.86, 21.78 40.995000000000005, 22.200000000000003 40.980000000000004 C 22.8 40.83, 22.92 41.01, 23.4 40.68 C 23.759999999999998 40.17, 23.924999999999997 39.99, 24.119999999999997 39.660000000000004 C 24.15 39.510000000000005, 24.284999999999997 39.525, 24.18 39.36 C 23.94 39.18, 24.21 39.045, 23.700000000000003 39 C 22.92 39.09, 22.635 38.925, 22.14 39.18 C 21.93 39.599999999999994, 21.825 39.54, 21.72 40.019999999999996 C 21.72 40.559999999999995, 21.63 40.64999999999999, 21.72 41.099999999999994 C 21.9 41.459999999999994, 21.915000000000003 41.61, 22.080000000000002 41.82 C 22.23 41.879999999999995, 22.185 42.165, 22.38 41.94 C 22.619999999999997 41.43, 22.74 41.355000000000004, 22.86 40.92 C 22.86 40.56, 22.86 40.425000000000004, 22.86 40.2 C 22.86 40.11, 22.875 40.14, 22.86 40.019999999999996 C 22.83 39.87, 22.814999999999998 39.795, 22.799999999999997 39.72 L 22.799999999999997 39.72" fill="none" stroke="black" stroke-width="2"></path></svg>