<svg xmlns="http://www.w3.org/2000/svg" viewBox="18.860000610351562 1.880000114440918 16.933334350585938 41.70000171661377" width="16.933334350585938" height="41.70000171661377"><path d="M 26.700000000000003 2.88 C 26.64 3.21, 26.595 3.0300000000000002, 26.58 3.54 C 26.61 4.23, 26.535 3.96, 26.64 4.92 C 26.82 6.15, 26.865000000000002 6.12, 27 7.38 C 27.09 8.67, 27.134999999999998 8.715, 27.18 9.959999999999999 C 27.18 11.16, 27.18 11.354999999999999, 27.18 12.36 C 27.18 13.17, 27.18 13.2, 27.18 13.98 C 27.18 14.73, 27.285 14.685, 27.18 15.48 C 26.97 16.32, 27.074999999999996 16.259999999999998, 26.759999999999998 17.16 C 26.34 18.12, 26.295 18.270000000000003, 25.92 19.080000000000002 C 25.59 19.740000000000002, 25.71 19.59, 25.259999999999998 20.4 C 24.689999999999998 21.36, 24.584999999999997 21.6, 24.119999999999997 22.32 C 23.759999999999998 22.8, 23.849999999999998 22.785000000000004, 23.4 23.28 C 22.86 23.79, 22.92 23.79, 22.32 24.299999999999997 C 21.66 24.81, 21.45 25.005, 21 25.32 C 20.759999999999998 25.439999999999998, 20.759999999999998 25.439999999999998, 20.52 25.56 C 20.28 25.68, 20.16 25.74, 20.04 25.799999999999997 C 20.04 25.799999999999997, 20.04 25.799999999999997, 20.04 25.799999999999997 C 20.04 25.799999999999997, 20.085 25.769999999999996, 20.04 25.799999999999997 L 19.86 25.92" fill="none" stroke="black" stroke-width="2"></path><path d="M 23.1 23.4 C 23.25 23.4, 23.25 23.4, 23.4 23.4 C 23.55 23.4, 23.490000000000002 23.31, 23.700000000000003 23.4 C 23.970000000000002 23.58, 23.985000000000003 23.549999999999997, 24.240000000000002 23.759999999999998 C 24.48 24, 24.494999999999997 23.955000000000002, 24.72 24.240000000000002 C 24.93 24.57, 25.005000000000003 24.39, 25.14 24.900000000000002 C 25.2 25.590000000000003, 25.229999999999997 25.53, 25.259999999999998 26.28 C 25.259999999999998 27.090000000000003, 25.259999999999998 26.910000000000004, 25.259999999999998 27.900000000000002 C 25.259999999999998 29.07, 25.29 29.145000000000003, 25.259999999999998 30.240000000000002 C 25.2 31.26, 25.2 31.47, 25.14 32.28 C 25.08 32.88, 25.05 32.760000000000005, 25.02 33.480000000000004 C 25.02 34.32000000000001, 25.02 34.440000000000005, 25.02 35.160000000000004 C 25.02 35.760000000000005, 25.02 35.745000000000005, 25.02 36.36 C 25.02 36.989999999999995, 25.02 37.11, 25.02 37.62 C 25.02 38.010000000000005, 25.02 37.95, 25.02 38.400000000000006 C 25.02 38.910000000000004, 24.974999999999998 38.925000000000004, 25.02 39.42 C 25.11 39.900000000000006, 25.110000000000003 40.02, 25.200000000000003 40.38 C 25.290000000000003 40.620000000000005, 25.245000000000005 40.605, 25.380000000000003 40.86 C 25.560000000000002 41.13, 25.485000000000003 41.145, 25.740000000000002 41.400000000000006 C 26.07 41.64, 26.070000000000004 41.7, 26.400000000000002 41.88 C 26.73 42, 26.669999999999998 42.015, 27.06 42.12 C 27.509999999999998 42.209999999999994, 27.42 42.209999999999994, 27.96 42.3 C 28.59 42.39, 28.65 42.435, 29.22 42.480000000000004 C 29.73 42.480000000000004, 29.625 42.480000000000004, 30.240000000000002 42.480000000000004 C 30.96 42.480000000000004, 30.945 42.705000000000005, 31.68 42.480000000000004 C 32.43 42.03, 32.595 42.015, 33.18 41.58 C 33.599999999999994 41.16, 33.794999999999995 41.07, 34.019999999999996 40.74 C 34.05 40.5, 33.93 40.695, 34.08 40.26 C 34.349999999999994 39.629999999999995, 34.455 39.629999999999995, 34.62 39 C 34.68 38.370000000000005, 34.71 38.25, 34.74 37.74 C 34.74 37.35, 34.74 37.230000000000004, 34.74 36.96 C 34.74 36.81, 34.86 36.825, 34.74 36.660000000000004 C 34.5 36.480000000000004, 34.68 36.555, 34.26 36.3 C 33.66 35.97, 33.645 35.97, 33.06 35.64 C 32.49 35.31, 32.49 35.265, 31.92 34.980000000000004 C 31.35 34.74, 31.215000000000003 34.665, 30.78 34.5 C 30.48 34.41, 30.525 34.365, 30.18 34.32 C 29.79 34.32, 29.865000000000002 34.32, 29.400000000000002 34.32 C 28.86 34.32, 28.875 34.245000000000005, 28.32 34.32 C 27.75 34.47, 27.705 34.425, 27.18 34.62 C 26.7 34.86, 26.625 34.82999999999999, 26.22 35.099999999999994 C 25.89 35.4, 25.769999999999996 35.505, 25.56 35.7 C 25.47 35.790000000000006, 25.455000000000002 35.80500000000001, 25.380000000000003 35.88 C 25.32 35.94, 25.29 35.97, 25.259999999999998 36 C 25.259999999999998 36, 25.259999999999998 36, 25.259999999999998 36 L 25.259999999999998 36" fill="none" stroke="black" stroke-width="2"></path></svg>