<svg xmlns="http://www.w3.org/2000/svg" viewBox="14.113332748413086 1.2200000286102295 22.520002365112305 45.500001192092896" width="22.520002365112305" height="45.500001192092896"><path d="M 15.24 45.72 C 15.18 44.79, 15.15 45.585, 15.120000000000001 43.86 C 15.120000000000001 41.34, 15.105 40.995, 15.120000000000001 38.82 C 15.15 36.99, 15.165 37.125, 15.18 35.160000000000004 C 15.18 33.06, 15.18 32.595, 15.18 30.96 C 15.18 29.79, 15.135 29.909999999999997, 15.18 28.619999999999997 C 15.27 27.209999999999997, 15.225 26.939999999999998, 15.36 25.799999999999997 C 15.54 24.93, 15.48 25.019999999999996, 15.72 24.06 C 16.02 23.009999999999998, 16.02 22.815, 16.32 21.96 C 16.619999999999997 21.3, 16.424999999999997 21.345, 16.919999999999998 20.64 C 17.61 19.89, 17.744999999999997 19.68, 18.299999999999997 19.14 C 18.72 18.810000000000002, 18.81 18.69, 19.14 18.48 C 19.380000000000003 18.39, 19.395000000000003 18.345, 19.62 18.299999999999997 C 19.83 18.299999999999997, 19.725 18.269999999999996, 20.04 18.299999999999997 C 20.46 18.36, 20.549999999999997 18.284999999999997, 20.88 18.419999999999998 C 21.119999999999997 18.63, 21.06 18.525, 21.36 18.84 C 21.72 19.259999999999998, 21.645000000000003 18.869999999999997, 22.080000000000002 19.68 C 22.590000000000003 20.880000000000003, 22.695 20.775000000000002, 23.1 22.080000000000002 C 23.400000000000002 23.490000000000002, 23.430000000000003 23.700000000000003, 23.700000000000003 24.900000000000002 C 23.94 25.89, 23.97 25.890000000000004, 24.18 26.880000000000003 C 24.36 27.87, 24.45 28.245, 24.54 28.86 C 24.54 29.099999999999998, 24.54 29.22, 24.54 29.339999999999996 C 24.54 29.339999999999996, 24.54 29.414999999999996, 24.54 29.339999999999996 C 24.54 29.189999999999998, 24.479999999999997 29.759999999999998, 24.54 29.04 C 24.66 27.75, 24.6 27.84, 24.78 26.46 C 25.02 24.990000000000002, 24.945 24.855, 25.259999999999998 23.52 C 25.65 22.32, 25.634999999999998 22.155, 26.04 21.12 C 26.46 20.25, 26.475 20.025, 26.880000000000003 19.38 C 27.270000000000003 18.96, 27.210000000000004 18.9, 27.660000000000004 18.54 C 28.17 18.240000000000002, 28.080000000000002 18.075000000000003, 28.68 17.94 C 29.369999999999997 17.97, 29.384999999999998 17.775, 30.06 18 C 30.72 18.42, 30.735000000000003 18.240000000000002, 31.380000000000003 18.84 C 32.010000000000005 19.619999999999997, 31.875 19.08, 32.64 20.4 C 33.54 22.259999999999998, 33.78 22.409999999999997, 34.44 24.119999999999997 C 34.86 25.68, 34.995000000000005 25.635, 35.28 27.240000000000002 C 35.43 28.89, 35.504999999999995 29.13, 35.58 30.54 C 35.58 31.71, 35.7 31.560000000000002, 35.58 32.88 C 35.339999999999996 34.35, 35.39999999999999 34.53, 35.099999999999994 35.82 C 34.739999999999995 36.93, 35.04 36.795, 34.38 38.04 C 33.42 39.42, 33.36 39.765, 32.46 40.8 C 31.62 41.489999999999995, 31.770000000000003 41.55, 30.78 42.18 C 29.64 42.75, 29.445 42.975, 28.5 43.32 C 27.75 43.44, 27.495 43.5, 27 43.56 C 26.759999999999998 43.56, 26.775 43.69500000000001, 26.52 43.56 C 26.25 43.29, 26.16 43.44, 25.98 43.019999999999996 C 25.89 42.45, 25.845 42.69, 25.799999999999997 41.88 C 25.799999999999997 40.83, 25.784999999999997 40.665000000000006, 25.799999999999997 39.78 C 25.83 39.06, 25.665 39.03, 25.86 38.339999999999996 C 26.22 37.67999999999999, 26.099999999999998 37.64999999999999, 26.58 37.019999999999996 C 27.18 36.42, 27 36.36, 27.78 35.82 C 28.740000000000002 35.34, 28.755000000000003 35.235, 29.700000000000003 34.86 C 30.630000000000003 34.59, 30.84 34.455, 31.56 34.32 C 32.07 34.32, 32.16 34.275, 32.58 34.32 C 32.91 34.41, 32.91 34.32, 33.24 34.5 C 33.57000000000001 34.769999999999996, 33.64500000000001 34.815, 33.900000000000006 35.04 C 34.08 35.22, 34.004999999999995 35.145, 34.26 35.400000000000006 C 34.59 35.730000000000004, 34.755 35.895, 34.92 36.06 C 34.92 36.06, 34.92 36.06, 34.92 36.06 C 34.92 36.06, 34.92 36.06, 34.92 36.06 C 34.92 36.06, 34.92 36.06, 34.92 36.06 L 34.92 36.06" fill="none" stroke="black" stroke-width="2"></path><path d="M 31.619999999999997 2.2199999999999998 C 31.229999999999997 2.61, 31.634999999999994 2.19, 30.839999999999996 3 C 29.64 4.23, 30.045 4.035, 28.44 5.46 C 26.43 7.08, 26.535000000000004 7.095, 24.42 8.7 C 22.200000000000003 10.29, 21.495 10.844999999999999, 19.98 11.879999999999999 C 19.17 12.36, 18.765 12.6, 18.36 12.84 L 18.36 12.84" fill="none" stroke="black" stroke-width="2"></path></svg>