<svg xmlns="http://www.w3.org/2000/svg" viewBox="11.920000076293945 2.446666717529297 19.18666648864746 43.19333267211914" width="19.18666648864746" height="43.19333267211914"><path d="M 15.600000000000001 3.84 C 15.270000000000001 4.29, 15.345000000000002 3.7800000000000002, 14.940000000000001 4.74 C 14.46 6.21, 14.43 5.984999999999999, 13.98 7.68 C 13.56 9.6, 13.395 9.629999999999999, 13.14 11.52 C 13.05 13.379999999999999, 13.005 13.635, 12.96 15.24 C 12.96 16.59, 12.870000000000001 16.755000000000003, 12.96 17.94 C 13.14 18.96, 13.080000000000002 19.155, 13.32 19.98 C 13.62 20.61, 13.665 20.790000000000003, 13.919999999999998 21.240000000000002 C 14.129999999999999 21.51, 13.995 21.54, 14.34 21.78 C 14.82 21.990000000000002, 14.79 22.095000000000002, 15.299999999999999 22.200000000000003 C 15.84 22.200000000000003, 15.884999999999998 22.200000000000003, 16.38 22.200000000000003 C 16.83 22.200000000000003, 16.815 22.260000000000005, 17.28 22.200000000000003 C 17.76 22.080000000000002, 17.745000000000005 22.26, 18.240000000000002 21.96 C 18.75 21.48, 18.854999999999997 21.495, 19.259999999999998 21 C 19.56 20.490000000000002, 19.695 20.505000000000003, 19.86 19.98 C 19.89 19.439999999999998, 19.86 19.575, 19.919999999999998 18.9 C 20.009999999999998 18.09, 20.055 18, 20.1 17.28 C 20.1 16.65, 20.1 16.485, 20.1 16.02 C 20.1 15.719999999999999, 20.085 15.584999999999997, 20.1 15.419999999999998 C 20.130000000000003 15.389999999999999, 20.055 15.299999999999999, 20.16 15.36 C 20.34 15.51, 20.384999999999998 15.39, 20.52 15.66 C 20.61 16.05, 20.610000000000003 15.885000000000002, 20.700000000000003 16.44 C 20.79 17.16, 20.759999999999998 17.205, 20.88 17.88 C 21.03 18.509999999999998, 20.955 18.48, 21.18 19.14 C 21.48 19.83, 21.48 19.994999999999997, 21.78 20.52 C 22.08 20.880000000000003, 21.975 20.880000000000003, 22.38 21.240000000000002 C 22.89 21.6, 22.799999999999997 21.69, 23.4 21.96 C 24.09 22.14, 23.94 22.305, 24.78 22.32 C 25.77 22.17, 25.86 22.38, 26.759999999999998 22.02 C 27.57 21.45, 27.870000000000005 21.33, 28.380000000000003 20.88 C 28.59 20.549999999999997, 28.65 20.654999999999998, 28.799999999999997 20.22 C 28.89 19.68, 28.83 20.085, 28.98 19.14 C 29.19 17.79, 29.250000000000004 17.835, 29.400000000000002 16.44 C 29.490000000000002 15, 29.505 14.7, 29.58 13.559999999999999 C 29.64 12.719999999999999, 29.67 12.749999999999998, 29.700000000000003 11.879999999999999 C 29.700000000000003 10.98, 29.700000000000003 11.04, 29.700000000000003 10.08 C 29.700000000000003 9.06, 29.715000000000003 9.06, 29.700000000000003 8.040000000000001 C 29.67 7.0200000000000005, 29.655 6.84, 29.64 6 C 29.64 5.34, 29.67 5.25, 29.64 4.68 C 29.58 4.199999999999999, 29.55 3.96, 29.52 3.7199999999999998 C 29.52 3.7199999999999998, 29.549999999999997 3.7649999999999997, 29.52 3.7199999999999998 C 29.46 3.63, 29.43 3.585, 29.400000000000002 3.54 C 29.400000000000002 3.54, 29.415000000000003 3.555, 29.400000000000002 3.54 C 29.369999999999997 3.51, 29.429999999999996 3.4949999999999997, 29.339999999999996 3.4799999999999995 C 29.189999999999998 3.4799999999999995, 29.235 3.4049999999999994, 29.04 3.4799999999999995 C 28.799999999999997 3.63, 28.935 3.5250000000000004, 28.56 3.7800000000000002 C 28.049999999999997 4.140000000000001, 28.035 4.1850000000000005, 27.54 4.5 C 27.06 4.77, 27.075 4.74, 26.58 5.04 C 26.07 5.369999999999999, 26.174999999999997 5.309999999999999, 25.56 5.699999999999999 C 24.839999999999996 6.15, 24.915 6.015000000000001, 24.119999999999997 6.6000000000000005 C 23.25 7.32, 23.13 7.395000000000001, 22.38 8.040000000000001 C 21.75 8.61, 21.645 8.73, 21.12 9.18 C 20.700000000000003 9.51, 20.490000000000002 9.675, 20.28 9.84 C 20.28 9.84, 20.28 9.84, 20.28 9.84 L 20.28 9.84" fill="none" stroke="black" stroke-width="2"></path><path d="M 20.28 19.5 C 20.28 20.1, 20.28 19.965000000000003, 20.28 20.700000000000003 C 20.28 21.57, 20.28 21.57, 20.28 22.44 C 20.28 23.310000000000002, 20.28 23.325, 20.28 24.18 C 20.28 25.02, 20.115000000000002 25.11, 20.28 25.86 C 20.61 26.52, 20.43 26.535, 20.94 27.18 C 21.630000000000003 27.810000000000002, 21.555 27.87, 22.32 28.44 C 23.16 28.950000000000003, 22.95 28.905, 24 29.46 C 25.259999999999998 30.060000000000002, 25.335 30.120000000000005, 26.52 30.660000000000004 C 27.630000000000003 31.14, 27.930000000000003 31.229999999999997, 28.740000000000002 31.619999999999997 C 29.25 31.919999999999998, 29.445 31.979999999999997, 29.759999999999998 32.22 C 29.88 32.4, 29.939999999999998 32.489999999999995, 30 32.58 C 30 32.58, 30 32.445, 30 32.58 C 30 32.849999999999994, 30.240000000000002 32.849999999999994, 30 33.12 C 29.52 33.39, 29.61 33.435, 29.04 33.660000000000004 C 28.38 33.84, 28.244999999999997 33.885, 27.72 34.019999999999996 C 27.33 34.11, 27.495 34.095, 26.94 34.2 C 26.22 34.32, 26.43 34.185, 25.5 34.44 C 24.36 34.83, 24.299999999999997 34.8, 23.22 35.22 C 22.2 35.67, 21.93 35.76, 21.18 36.12 C 20.7 36.39, 20.895 36.18000000000001, 20.22 36.660000000000004 C 19.35 37.35, 19.155 37.335, 18.48 38.04 C 18 38.760000000000005, 17.925 38.67, 17.52 39.480000000000004 C 17.189999999999998 40.38, 17.115 40.425, 16.86 41.28 C 16.68 42.09, 16.59 42.300000000000004, 16.5 42.900000000000006 C 16.5 43.290000000000006, 16.5 43.245000000000005, 16.5 43.68 C 16.5 44.16, 16.5 44.4, 16.5 44.64 C 16.5 44.64, 16.5 44.64, 16.5 44.64 L 16.5 44.64" fill="none" stroke="black" stroke-width="2"></path><path d="M 14.64 29.04 C 15.24 29.61, 15.195 29.505, 15.84 30.18 C 16.53 30.96, 16.575 30.96, 17.22 31.740000000000002 C 17.82 32.519999999999996, 17.924999999999997 32.595, 18.419999999999998 33.3 C 18.810000000000002 33.93, 18.795 33.81, 19.200000000000003 34.56 C 19.62 35.43, 19.77 35.775, 20.04 36.3 C 20.16 36.480000000000004, 20.22 36.57, 20.28 36.660000000000004 C 20.28 36.660000000000004, 20.28 36.660000000000004, 20.28 36.660000000000004 C 20.28 36.660000000000004, 20.28 36.660000000000004, 20.28 36.660000000000004 L 20.28 36.660000000000004" fill="none" stroke="black" stroke-width="2"></path></svg>