<svg xmlns="http://www.w3.org/2000/svg" viewBox="8.096238136291504 2.059999942779541 23.083763122558594 44.000001430511475" width="23.083763122558594" height="44.000001430511475"><path d="M 13.200000000000001 3.06 C 12.600000000000001 5.34, 12.81 5.040000000000001, 12 7.62 C 10.98 10.5, 10.59 11.16, 9.959999999999999 13.379999999999999 C 9.719999999999999 14.94, 9.69 14.925, 9.48 16.5 C 9.3 18.09, 9.195 18.3, 9.120000000000001 19.68 C 9.15 20.85, 9.015 21.21, 9.18 22.02 C 9.48 22.47, 9.419999999999998 22.529999999999998, 9.78 22.919999999999998 C 10.2 23.25, 10.125 23.235000000000003, 10.620000000000001 23.580000000000002 C 11.190000000000001 23.939999999999998, 11.115 24.044999999999998, 11.76 24.299999999999997 C 12.48 24.449999999999996, 12.39 24.884999999999998, 13.200000000000001 24.599999999999998 C 14.100000000000001 23.88, 14.085 24, 15 23.16 C 15.93 22.200000000000003, 16.08 22.44, 16.86 21.240000000000002 C 17.490000000000002 19.8, 17.700000000000003 19.425, 18.12 18.36 C 18.33 17.67, 18.435 17.325, 18.54 16.98 C 18.54 16.98, 18.525 16.89, 18.54 16.98 C 18.57 17.16, 18.54 16.725, 18.6 17.34 C 18.69 18.39, 18.615000000000002 18.54, 18.78 19.44 C 19.02 20.19, 18.779999999999998 20.085, 19.259999999999998 20.94 C 19.98 21.9, 20.07 22.125, 20.700000000000003 22.86 C 21.240000000000002 23.369999999999997, 21.03 23.564999999999998, 21.78 23.88 C 22.740000000000002 24, 22.200000000000003 24.06, 23.700000000000003 24.119999999999997 C 25.740000000000002 24.119999999999997, 26.235 24.254999999999995, 27.78 24.119999999999997 C 28.830000000000002 23.85, 29.28 23.745, 29.880000000000003 23.580000000000002 C 30.03 23.520000000000003, 30.105 23.490000000000002, 30.18 23.46 L 30.18 23.46" fill="none" stroke="black" stroke-width="2"></path><path d="M 25.98 4.26 C 25.32 4.859999999999999, 25.455000000000005 4.755, 24.660000000000004 5.46 C 23.73 6.27, 23.775 6.2700000000000005, 22.799999999999997 7.08 C 21.779999999999998 7.89, 21.764999999999997 7.965, 20.759999999999998 8.7 C 19.77 9.36, 19.905 9.375, 18.78 10.02 C 17.52 10.649999999999999, 17.4 10.739999999999998, 16.259999999999998 11.28 C 15.239999999999998 11.73, 14.940000000000001 11.879999999999999, 14.22 12.18 C 13.8 12.33, 13.739999999999998 12.36, 13.379999999999999 12.48 C 13.079999999999998 12.57, 13.094999999999999 12.57, 12.78 12.66 C 12.45 12.75, 12.405000000000001 12.795, 12.120000000000001 12.84 C 11.88 12.84, 11.835 12.795, 11.64 12.84 C 11.49 12.93, 11.49 12.975, 11.34 13.02 C 11.190000000000001 13.02, 11.115 13.02, 11.040000000000001 13.02 C 11.040000000000001 13.02, 11.085 13.02, 11.040000000000001 13.02 C 10.95 13.02, 10.905 13.02, 10.86 13.02 C 10.86 13.02, 10.889999999999999 13.02, 10.86 13.02 L 10.74 13.02" fill="none" stroke="black" stroke-width="2"></path><path d="M 21.78 24.48 C 21.42 25.29, 21.465 25.259999999999998, 21.06 26.099999999999998 C 20.61 26.97, 20.595 27.119999999999997, 20.16 27.839999999999996 C 19.740000000000002 28.409999999999997, 19.995 28.275, 19.32 28.98 C 18.39 29.82, 18.3 29.970000000000002, 17.46 30.660000000000004 C 16.71 31.200000000000003, 16.875 31.125000000000004, 15.96 31.740000000000002 C 14.879999999999999 32.43, 14.669999999999998 32.595, 13.799999999999999 33.12 C 13.14 33.48, 13.215 33.464999999999996, 12.48 33.839999999999996 C 11.67 34.23, 11.355 34.379999999999995, 10.86 34.62 C 10.68 34.709999999999994, 10.74 34.739999999999995, 10.5 34.8 L 9.899999999999999 34.86" fill="none" stroke="black" stroke-width="2"></path><path d="M 26.04 33 C 26.07 33.39, 26.369999999999997 32.865, 26.099999999999998 33.78 C 25.53 35.22, 25.71 35.355000000000004, 24.96 36.660000000000004 C 24.03 37.83, 24.015 38.025, 23.1 39 C 22.2 39.78, 22.5 39.645, 21.299999999999997 40.56 C 19.799999999999997 41.61, 19.634999999999998 41.85000000000001, 18.299999999999997 42.660000000000004 C 17.13 43.230000000000004, 16.905 43.394999999999996, 15.96 43.8 C 15.24 44.04, 15.165 44.04, 14.52 44.28 C 13.95 44.519999999999996, 13.799999999999999 44.61, 13.379999999999999 44.76 C 13.11 44.82, 13.05 44.805, 12.84 44.88 L 12.54 45.06" fill="none" stroke="black" stroke-width="2"></path></svg>