<svg xmlns="http://www.w3.org/2000/svg" viewBox="8.946666717529297 1.7000000476837158 20.793333053588867 44.63333487510681" width="20.793333053588867" height="44.63333487510681"><path d="M 17.580000000000002 26.94 C 17.910000000000004 27.300000000000004, 18.03 27.045, 18.240000000000002 27.660000000000004 C 18.33 28.53, 18.255 28.440000000000005, 18.419999999999998 29.400000000000002 C 18.659999999999997 30.450000000000003, 18.705 30.135, 18.9 31.5 C 19.05 33.18, 19.125 33.239999999999995, 19.200000000000003 34.86 C 19.200000000000003 36.42, 19.200000000000003 36.84, 19.200000000000003 37.980000000000004 C 19.200000000000003 38.7, 19.200000000000003 38.715, 19.200000000000003 39.42 C 19.200000000000003 40.11, 19.290000000000003 40.14, 19.200000000000003 40.8 C 19.020000000000003 41.43, 19.155 41.355000000000004, 18.84 42.06 C 18.39 42.84, 18.42 42.974999999999994, 17.94 43.62 C 17.43 44.129999999999995, 17.265 44.295, 16.919999999999998 44.64 C 16.74 44.82, 16.769999999999996 44.85, 16.56 45 C 16.32 45.120000000000005, 16.275000000000002 45.18, 16.080000000000002 45.24 C 15.93 45.24, 15.975 45.24, 15.78 45.24 C 15.54 45.24, 15.629999999999999 45.45, 15.299999999999999 45.24 C 14.879999999999999 44.82000000000001, 14.940000000000001 45.27000000000001, 14.46 44.400000000000006 C 13.92 43.08, 13.86 43.155, 13.379999999999999 41.76 C 12.959999999999999 40.29, 12.974999999999998 40.245, 12.54 38.82 C 12.09 37.44, 11.985 37.335, 11.64 36.06 C 11.4 34.89, 11.43 35.28, 11.16 33.72 C 10.86 31.77, 10.815000000000001 31.65, 10.56 29.82 C 10.350000000000001 28.11, 10.290000000000001 27.885, 10.14 26.400000000000002 C 10.05 25.14, 10.004999999999999 25.064999999999998, 9.959999999999999 23.88 C 9.959999999999999 22.77, 9.959999999999999 22.83, 9.959999999999999 21.66 C 9.959999999999999 20.43, 9.959999999999999 20.370000000000005, 9.959999999999999 19.200000000000003 C 9.959999999999999 18.090000000000003, 9.93 18.075000000000003, 9.959999999999999 16.98 C 10.02 15.9, 9.945 15.555, 10.08 14.82 C 10.29 14.43, 10.23 14.489999999999998, 10.5 14.04 C 10.83 13.53, 10.695 13.515, 11.16 13.02 C 11.76 12.54, 11.864999999999998 12.389999999999999, 12.36 12.059999999999999 C 12.75 11.879999999999999, 12.795 11.79, 13.14 11.7 C 13.440000000000001 11.7, 13.35 11.625, 13.74 11.7 C 14.22 11.85, 14.115 11.7, 14.700000000000001 12 C 15.39 12.45, 15.420000000000002 12.299999999999999, 16.080000000000002 12.899999999999999 C 16.71 13.649999999999999, 16.83 13.679999999999998, 17.34 14.399999999999999 C 17.73 15.09, 17.655 14.834999999999999, 18.12 15.78 C 18.660000000000004 16.98, 18.765000000000004 16.89, 19.200000000000003 18.18 C 19.53 19.560000000000002, 19.605 19.650000000000002, 19.86 20.94 C 20.04 22.14, 20.099999999999998 22.455, 20.22 23.34 C 20.28 23.91, 20.31 24.195, 20.34 24.48 C 20.34 24.48, 20.34 24.54, 20.34 24.48 C 20.34 24.36, 20.265 25.095000000000002, 20.34 24.240000000000002 C 20.490000000000002 22.65, 20.43 22.485, 20.64 21.06 C 20.91 19.799999999999997, 20.895 19.47, 21.18 18.54 C 21.48 17.939999999999998, 21.465 17.97, 21.78 17.34 C 22.11 16.68, 22.185000000000002 16.47, 22.44 16.02 C 22.619999999999997 15.78, 22.47 15.764999999999999, 22.799999999999997 15.54 C 23.279999999999998 15.33, 23.339999999999996 15.225000000000001, 23.759999999999998 15.120000000000001 C 24.119999999999997 15.120000000000001, 24.045 14.955000000000002, 24.48 15.120000000000001 C 24.990000000000002 15.45, 25.005 15.18, 25.5 15.78 C 25.98 16.65, 26.04 15.93, 26.46 17.52 C 26.82 19.83, 26.895 20.235, 27.18 22.14 C 27.39 23.64, 27.389999999999997 23.310000000000002, 27.599999999999998 25.14 C 27.81 27.3, 27.869999999999997 27.3, 28.02 29.46 C 28.11 31.62, 28.095000000000002 31.560000000000002, 28.200000000000003 33.78 C 28.32 36.06, 28.380000000000003 36.48, 28.44 38.339999999999996 C 28.44 39.78, 28.44 40.17, 28.44 41.22 C 28.44 41.879999999999995, 28.44 42.015, 28.44 42.54 C 28.44 42.93, 28.44 42.975, 28.44 43.32 C 28.44 43.620000000000005, 28.425 43.575, 28.44 43.92 C 28.47 44.31, 28.455000000000002 44.475, 28.5 44.7 C 28.56 44.760000000000005, 28.589999999999996 44.79, 28.619999999999997 44.82 L 28.619999999999997 44.82" fill="none" stroke="black" stroke-width="2"></path><path d="M 28.740000000000002 2.7 C 28.32 3.12, 28.515 3.0149999999999997, 27.900000000000002 3.54 C 27.090000000000003 4.17, 27.075000000000003 4.200000000000001, 26.28 4.800000000000001 C 25.5 5.37, 25.575 5.31, 24.72 5.9399999999999995 C 23.79 6.63, 23.805 6.48, 22.86 7.32 C 21.9 8.31, 21.75 8.46, 20.94 9.3 C 20.28 9.99, 20.01 10.26, 19.62 10.68 C 19.5 10.83, 19.439999999999998 10.905000000000001, 19.38 10.98 L 19.38 10.98" fill="none" stroke="black" stroke-width="2"></path></svg>