<svg xmlns="http://www.w3.org/2000/svg" viewBox="9.35547161102295 5.1533331871032715 18.224528312683105 31.126665592193604" width="18.224528312683105" height="31.126665592193604"><path d="M 13.14 13.5 C 13.53 13.5, 13.29 13.5, 13.919999999999998 13.5 C 14.79 13.5, 14.67 13.56, 15.66 13.5 C 16.77 13.379999999999999, 17.025 13.530000000000001, 17.88 13.26 C 18.48 12.84, 18.6 12.869999999999997, 19.080000000000002 12.419999999999998 C 19.439999999999998 11.939999999999998, 19.529999999999998 12.134999999999998, 19.799999999999997 11.459999999999999 C 19.979999999999997 10.59, 20.07 10.515, 20.16 9.72 C 20.16 9, 20.25 8.924999999999999, 20.16 8.28 C 19.979999999999997 7.709999999999999, 20.025 7.56, 19.799999999999997 7.14 C 19.529999999999998 6.87, 19.665 6.825, 19.259999999999998 6.6000000000000005 C 18.72 6.42, 18.689999999999998 6.33, 18.18 6.24 C 17.7 6.24, 17.654999999999998 6.24, 17.22 6.24 C 16.83 6.24, 16.875 6.045, 16.44 6.24 C 15.96 6.63, 16.02 6.375, 15.48 7.02 C 14.879999999999999 7.92, 14.805 7.875, 14.28 8.82 C 13.829999999999998 9.81, 13.844999999999999 9.525000000000002, 13.379999999999999 10.8 C 12.899999999999999 12.36, 12.884999999999998 12.494999999999997, 12.419999999999998 13.919999999999998 C 11.969999999999999 15.209999999999999, 11.79 15.105, 11.52 16.5 C 11.43 18, 11.58 17.759999999999998, 11.34 19.5 C 10.95 21.48, 10.8 21.885, 10.56 23.46 C 10.469999999999999 24.63, 10.29 24.944999999999997, 10.379999999999999 25.799999999999997 C 10.649999999999999 26.34, 10.575 26.310000000000002, 10.92 26.880000000000003 C 11.34 27.48, 11.295 27.555, 11.76 28.08 C 12.27 28.53, 12.36 28.665, 12.78 28.98 C 13.11 29.159999999999997, 13.110000000000001 29.294999999999995, 13.440000000000001 29.339999999999996 C 13.770000000000001 29.25, 13.545000000000002 29.76, 14.100000000000001 29.160000000000004 C 14.88 28.050000000000004, 14.925 28.14, 15.66 26.94 C 16.35 25.65, 16.59 25.32, 17.04 24.36 C 17.25 23.73, 17.310000000000002 23.685000000000002, 17.46 23.1 C 17.55 22.560000000000002, 17.595 22.29, 17.64 22.02 C 17.64 22.02, 17.655 21.974999999999998, 17.64 22.02 C 17.61 22.11, 17.715000000000003 21.720000000000002, 17.580000000000002 22.200000000000003 C 17.340000000000003 23.07, 17.220000000000002 23.040000000000003, 17.1 23.94 C 17.1 24.869999999999997, 16.875 25.005, 17.1 25.799999999999997 C 17.55 26.459999999999997, 17.055 26.309999999999995, 18 27.119999999999997 C 19.439999999999998 28.08, 19.65 28.394999999999996, 20.88 29.04 C 21.9 29.37, 21.93 29.535000000000004, 22.919999999999998 29.700000000000003 C 23.879999999999995 29.700000000000003, 24.029999999999994 29.700000000000003, 24.839999999999996 29.700000000000003 C 25.5 29.700000000000003, 25.830000000000002 29.700000000000003, 26.160000000000004 29.700000000000003 L 26.160000000000004 29.700000000000003" fill="none" stroke="black" stroke-width="2"></path><path d="M 10.92 35.28 C 11.61 35.16, 10.604999999999999 35.4, 12.299999999999999 35.04 C 15 34.44, 15.315000000000003 34.214999999999996, 17.700000000000003 33.839999999999996 C 19.770000000000003 33.69, 20.295 33.555, 21.84 33.54 C 22.86 33.66, 22.77 33.6, 23.88 33.78 C 25.08 34.019999999999996, 25.605 34.14, 26.28 34.26 L 26.58 34.26" fill="none" stroke="black" stroke-width="2"></path></svg>