<svg xmlns="http://www.w3.org/2000/svg" viewBox="13.108189582824707 2.8097262382507324 14.438477516174316 36.16360521316528" width="14.438477516174316" height="36.16360521316528"><path d="M 18.419999999999998 13.32 C 18.75 13.35, 18.48 13.364999999999998, 19.080000000000002 13.379999999999999 C 19.950000000000003 13.379999999999999, 20.1 13.379999999999999, 20.82 13.379999999999999 C 21.39 13.379999999999999, 21.3 13.469999999999999, 21.96 13.379999999999999 C 22.71 13.2, 22.845 13.23, 23.46 13.02 C 23.94 12.78, 23.925 12.87, 24.42 12.54 C 24.93 12.12, 25.05 12.075, 25.44 11.7 C 25.71 11.370000000000001, 25.755000000000003 11.490000000000002, 25.98 11.040000000000001 C 26.159999999999997 10.469999999999999, 26.205 10.694999999999999, 26.339999999999996 9.899999999999999 C 26.43 8.879999999999999, 26.474999999999998 8.805, 26.52 7.86 C 26.52 6.99, 26.58 6.855, 26.52 6.12 C 26.4 5.52, 26.535 5.4, 26.28 4.92 C 25.89 4.56, 25.935000000000002 4.469999999999999, 25.5 4.199999999999999 C 25.02 4.02, 25.005 3.9299999999999997, 24.54 3.84 C 24.09 3.84, 23.985 3.84, 23.64 3.84 C 23.4 3.84, 23.505000000000003 3.8249999999999997, 23.16 3.84 C 22.71 3.87, 22.784999999999997 3.72, 22.259999999999998 3.9000000000000004 C 21.659999999999997 4.23, 21.525 4.23, 21.06 4.5600000000000005 C 20.729999999999997 4.890000000000001, 20.729999999999997 4.845, 20.4 5.22 C 20.07 5.640000000000001, 20.055 5.565, 19.740000000000002 6.0600000000000005 C 19.44 6.63, 19.425 6.584999999999999, 19.14 7.199999999999999 C 18.87 7.859999999999999, 18.78 7.754999999999999, 18.6 8.52 C 18.509999999999998 9.39, 18.509999999999998 9.465, 18.419999999999998 10.26 C 18.33 10.98, 18.330000000000002 11.04, 18.240000000000002 11.7 C 18.15 12.299999999999999, 18.195 12.149999999999999, 18.06 12.899999999999999 C 17.880000000000003 13.8, 17.835 13.695, 17.700000000000003 14.700000000000001 C 17.61 15.809999999999999, 17.625 15.674999999999999, 17.52 16.919999999999998 C 17.4 18.299999999999997, 17.415 18.48, 17.28 19.68 C 17.130000000000003 20.7, 17.1 20.729999999999997, 16.98 21.72 C 16.89 22.68, 16.874999999999996 22.740000000000002, 16.799999999999997 23.64 C 16.74 24.48, 16.71 24.39, 16.68 25.32 C 16.68 26.34, 16.725 26.505, 16.68 27.36 C 16.59 28.05, 16.545 28.155, 16.5 28.740000000000002 C 16.5 29.220000000000002, 16.5 29.265000000000004, 16.5 29.700000000000003 C 16.5 30.090000000000003, 16.5 30.285, 16.5 30.48 C 16.5 30.48, 16.5 30.48, 16.5 30.48 L 16.5 30.48" fill="none" stroke="black" stroke-width="2"></path><path d="M 15.66 34.62 C 15.15 35.43, 14.805 35.61, 14.64 36.24 C 14.82 36.69, 14.64 36.795, 15 37.14 C 15.540000000000001 37.379999999999995, 15.540000000000003 37.545, 16.080000000000002 37.62 C 16.62 37.53, 16.740000000000002 37.86, 17.16 37.44 C 17.46 36.69, 17.955 36.66, 17.759999999999998 35.94 C 17.07 35.25, 17.009999999999998 34.995000000000005, 16.38 34.56 C 15.809999999999999 34.38, 15.765 34.2, 15.24 34.2 C 14.76 34.38, 14.535 34.155, 14.28 34.56 C 14.25 35.19, 13.950000000000001 35.1, 14.22 35.82 C 14.79 36.629999999999995, 14.85 37.035, 15.36 37.44 C 15.809999999999999 37.44, 15.869999999999997 37.724999999999994, 16.259999999999998 37.44 C 16.589999999999996 36.87, 16.889999999999997 36.839999999999996, 16.919999999999998 36.3 C 16.65 35.79, 16.68 35.61, 16.38 35.28 C 16.05 35.13, 16.185000000000002 34.92, 15.72 34.980000000000004 C 15.120000000000001 35.25, 14.85 34.964999999999996, 14.52 35.519999999999996 C 14.459999999999999 36.36, 14.294999999999998 36.6, 14.399999999999999 37.2 C 14.67 37.56, 14.535 37.74, 14.940000000000001 37.92 C 15.48 37.92, 15.555 38.040000000000006, 16.02 37.92 C 16.409999999999997 37.68, 16.604999999999997 37.92, 16.799999999999997 37.44 C 16.799999999999997 36.72, 16.889999999999997 36.465, 16.799999999999997 36 C 16.619999999999997 35.79, 16.830000000000002 35.73, 16.44 35.58 L 15.24 35.400000000000006" fill="none" stroke="black" stroke-width="2"></path></svg>