<svg xmlns="http://www.w3.org/2000/svg" viewBox="9.380000114440918 4.113333225250244 19.579998016357422 43.02666616439819" width="19.579998016357422" height="43.02666616439819"><path d="M 11.76 13.440000000000001 C 12.51 13.71, 12.629999999999999 13.845, 13.26 13.98 C 13.77 13.98, 13.694999999999999 14.115, 14.28 13.98 C 14.940000000000001 13.71, 14.925 13.995000000000001, 15.600000000000001 13.440000000000001 C 16.29 12.600000000000001, 16.47 12.735, 16.98 11.76 C 17.310000000000002 10.65, 17.43 10.545000000000002, 17.64 9.540000000000001 C 17.73 8.64, 17.865000000000002 8.55, 17.82 7.74 C 17.64 7.0200000000000005, 17.715000000000003 6.870000000000001, 17.46 6.300000000000001 C 17.13 5.880000000000001, 17.249999999999996 5.73, 16.799999999999997 5.46 C 16.229999999999997 5.34, 16.095 5.279999999999999, 15.66 5.22 C 15.36 5.22, 15.495 4.9799999999999995, 15.059999999999999 5.22 C 14.489999999999998 5.699999999999999, 14.519999999999998 5.459999999999999, 13.919999999999998 6.18 C 13.29 7.140000000000001, 13.17 7.185000000000001, 12.66 8.100000000000001 C 12.27 8.97, 12.209999999999999 8.850000000000001, 11.879999999999999 9.84 C 11.61 10.95, 11.655 10.305, 11.34 12.059999999999999 C 10.98 14.459999999999999, 10.8 14.669999999999998, 10.620000000000001 16.86 C 10.620000000000001 18.84, 10.665000000000001 19.08, 10.620000000000001 20.82 C 10.530000000000001 22.32, 10.485 22.785, 10.44 23.82 C 10.44 24.39, 10.44 24.450000000000003, 10.44 24.96 C 10.44 25.41, 10.455 25.59, 10.44 25.86 L 10.379999999999999 26.04" fill="none" stroke="black" stroke-width="2"></path><path d="M 11.22 18.54 C 11.79 18.45, 11.864999999999998 18.405, 12.36 18.36 C 12.780000000000001 18.36, 12.72 18.09, 13.200000000000001 18.36 C 13.74 18.9, 13.875 18.885, 14.28 19.44 C 14.55 20.01, 14.595 19.590000000000003, 14.82 20.580000000000002 C 15 21.990000000000002, 15.09 22.365, 15.18 23.4 C 15.18 24.06, 15.18 24.39, 15.18 24.72 C 15.18 24.72, 15.18 24.72, 15.18 24.72 C 15.18 24.72, 15.135 24.794999999999998, 15.18 24.72 C 15.27 24.57, 15.225 24.915, 15.36 24.42 C 15.54 23.580000000000002, 15.435 23.610000000000003, 15.72 22.740000000000002 C 16.11 21.840000000000003, 16.035 21.615000000000002, 16.5 20.94 C 17.04 20.490000000000002, 16.635 20.265, 17.580000000000002 20.04 C 18.93 20.04, 18.885 20.04, 20.28 20.04 C 21.72 20.04, 21.990000000000002 19.95, 23.16 20.04 C 24.060000000000002 20.22, 24.09 20.009999999999998, 24.96 20.4 C 25.8 21, 26.01 20.85, 26.64 21.6 C 27.060000000000002 22.5, 27.225 22.665, 27.48 23.4 C 27.57 23.97, 27.570000000000004 23.849999999999998, 27.660000000000004 24.54 C 27.75 25.35, 27.764999999999997 25.665000000000003, 27.839999999999996 26.160000000000004 C 27.9 26.340000000000003, 27.93 26.43, 27.96 26.52 L 27.96 26.52" fill="none" stroke="black" stroke-width="2"></path><path d="M 21.06 22.259999999999998 C 20.85 24.54, 20.85 24.825, 20.64 26.82 C 20.43 28.53, 20.505 28.47, 20.22 30.240000000000002 C 19.86 32.07000000000001, 20.055 31.875000000000007, 19.5 33.900000000000006 C 18.75 36.120000000000005, 18.810000000000002 36.48, 18 38.339999999999996 C 17.13 39.839999999999996, 17.069999999999997 40.065, 16.259999999999998 41.339999999999996 C 15.509999999999998 42.39, 15.57 42.404999999999994, 14.76 43.44 C 13.89 44.46, 13.575 44.85, 13.02 45.480000000000004 C 12.78 45.72, 12.704999999999998 45.795, 12.54 45.96 L 12.36 46.14" fill="none" stroke="black" stroke-width="2"></path><path d="M 14.28 42.599999999999994 C 15.690000000000001 42, 15.915000000000001 41.925000000000004, 17.1 41.400000000000006 C 18.060000000000002 40.95, 17.85 40.83, 19.02 40.5 C 20.4 40.29, 20.25 40.185, 21.78 40.08 C 23.46 40.08, 24.12 40.019999999999996, 25.14 40.08 L 25.86 40.32" fill="none" stroke="black" stroke-width="2"></path></svg>