<svg xmlns="http://www.w3.org/2000/svg" viewBox="10.880000114440918 4.326666831970215 20.960000038146973 39.75333595275879" width="20.960000038146973" height="39.75333595275879"><path d="M 11.879999999999999 9.84 C 12.48 9.96, 12.225000000000001 10.004999999999999, 13.080000000000002 10.08 C 14.190000000000001 10.11, 14.475 10.125, 15.299999999999999 10.14 C 15.84 10.14, 15.825 10.305, 16.38 10.14 C 16.95 9.81, 16.965 9.99, 17.52 9.48 C 18.060000000000002 8.790000000000001, 18.285 8.670000000000002, 18.6 8.100000000000001 C 18.69 7.65, 18.825000000000003 7.635, 18.78 7.199999999999999 C 18.6 6.779999999999999, 18.794999999999998 6.765000000000001, 18.419999999999998 6.36 C 17.85 5.970000000000001, 17.775 5.835, 17.28 5.58 C 16.86 5.46, 16.935000000000002 5.4, 16.44 5.34 C 15.870000000000001 5.34, 15.75 5.31, 15.299999999999999 5.34 C 14.969999999999999 5.4, 15.045 5.325, 14.64 5.46 C 14.16 5.67, 14.085 5.5649999999999995, 13.68 5.88 C 13.35 6.300000000000001, 13.335 6.2700000000000005, 13.02 6.720000000000001 C 12.719999999999999 7.2, 12.659999999999998 7.125, 12.419999999999998 7.68 C 12.239999999999998 8.309999999999999, 12.149999999999999 8.219999999999999, 12.059999999999999 8.94 C 12.059999999999999 9.75, 12.059999999999999 9.48, 12.059999999999999 10.56 C 12.059999999999999 11.91, 12.044999999999998 11.58, 12.059999999999999 13.26 C 12.09 15.27, 12.075000000000001 15.63, 12.120000000000001 17.28 C 12.18 18.57, 12.15 18.705, 12.24 19.86 C 12.36 20.88, 12.42 21.39, 12.48 21.9 L 12.48 21.9" fill="none" stroke="black" stroke-width="2"></path><path d="M 12.18 15.78 C 12.51 15.66, 11.655000000000001 15.764999999999999, 12.84 15.54 C 14.879999999999999 15.209999999999999, 14.399999999999999 15.209999999999999, 16.919999999999998 14.879999999999999 C 19.919999999999998 14.55, 20.759999999999998 14.385, 22.919999999999998 14.22 C 24.24 14.22, 24.194999999999997 14.22, 25.56 14.22 C 26.97 14.22, 27.285000000000004 14.190000000000001, 28.380000000000003 14.22 C 29.160000000000004 14.280000000000001, 29.325000000000003 14.205, 29.94 14.34 C 30.39 14.55, 30.615 14.655, 30.839999999999996 14.76 L 30.839999999999996 14.76" fill="none" stroke="black" stroke-width="2"></path><path d="M 20.700000000000003 15.120000000000001 C 20.700000000000003 17.46, 20.700000000000003 17.474999999999998, 20.700000000000003 19.799999999999997 C 20.700000000000003 22.11, 20.700000000000003 21.645, 20.700000000000003 24.42 C 20.700000000000003 27.660000000000004, 20.700000000000003 28.305000000000003, 20.700000000000003 30.900000000000002 C 20.700000000000003 32.85, 20.745000000000005 32.894999999999996, 20.700000000000003 34.8 C 20.61 36.66, 20.61 37.019999999999996, 20.52 38.519999999999996 C 20.43 39.66, 20.384999999999998 39.959999999999994, 20.34 40.8 C 20.34 41.34, 20.34 41.46, 20.34 41.88 C 20.34 42.18000000000001, 20.34 42.21000000000001, 20.34 42.480000000000004 C 20.34 42.72, 20.34 42.81, 20.34 42.96 L 20.34 43.08" fill="none" stroke="black" stroke-width="2"></path></svg>