<svg xmlns="http://www.w3.org/2000/svg" viewBox="3.8600001335144043 4.9827094078063965 22.60666799545288 38.79729080200195" width="22.60666799545288" height="38.79729080200195"><path d="M 8.399999999999999 13.26 C 8.79 13.41, 8.385 13.454999999999998, 9.18 13.559999999999999 C 10.379999999999999 13.62, 10.29 13.695, 11.58 13.68 C 12.96 13.59, 13.26 13.665, 14.34 13.5 C 15.12 13.26, 15.209999999999997 13.41, 15.899999999999999 13.02 C 16.5 12.48, 16.605 12.54, 17.1 11.94 C 17.490000000000002 11.280000000000001, 17.64 11.325000000000001, 17.88 10.620000000000001 C 17.97 9.870000000000001, 18.15 9.870000000000001, 18.06 9.120000000000001 C 17.79 8.370000000000001, 17.82 8.190000000000001, 17.52 7.62 C 17.189999999999998 7.23, 17.265 7.154999999999999, 16.86 6.84 C 16.38 6.6, 16.38 6.57, 15.899999999999999 6.36 C 15.42 6.18, 15.495000000000001 6.09, 14.940000000000001 6 C 14.31 6, 14.265 6, 13.68 6 C 13.14 6, 12.990000000000002 5.984999999999999, 12.600000000000001 6 C 12.360000000000001 6.03, 12.525000000000002 5.91, 12.120000000000001 6.0600000000000005 C 11.55 6.33, 11.520000000000001 6.2700000000000005, 10.98 6.6000000000000005 C 10.469999999999999 6.99, 10.35 6.975, 9.959999999999999 7.38 C 9.69 7.800000000000001, 9.66 7.7700000000000005, 9.42 8.22 C 9.21 8.7, 9.21 8.7, 9 9.18 C 8.79 9.66, 8.79 9.57, 8.58 10.14 C 8.370000000000001 10.8, 8.34 10.785, 8.16 11.459999999999999 C 8.01 12.149999999999999, 8.025 12, 7.86 12.84 C 7.68 13.83, 7.635 13.86, 7.5 14.82 C 7.41 15.75, 7.455 15.795, 7.32 16.68 C 7.14 17.52, 7.094999999999999 17.325, 6.959999999999999 18.36 C 6.869999999999999 19.59, 6.869999999999999 19.665, 6.779999999999999 20.82 C 6.6899999999999995 21.9, 6.75 21.810000000000002, 6.6000000000000005 22.98 C 6.390000000000001 24.240000000000002, 6.359999999999999 24.36, 6.18 25.5 C 6.029999999999999 26.52, 6.1049999999999995 25.994999999999997, 5.88 27.54 C 5.58 29.61, 5.4750000000000005 30.225, 5.28 31.68 C 5.1899999999999995 32.519999999999996, 5.1899999999999995 32.4, 5.1 33.36 C 5.01 34.44, 4.965 34.485, 4.92 35.519999999999996 C 4.92 36.51, 4.92 36.644999999999996, 4.92 37.5 C 4.92 38.22, 4.785 38.295, 4.92 38.94 C 5.1899999999999995 39.51, 5.115 39.54, 5.46 40.08 C 5.880000000000001 40.589999999999996, 5.73 40.60499999999999, 6.300000000000001 41.099999999999994 C 7.0200000000000005 41.58, 7.140000000000001 41.745000000000005, 7.74 42.06 C 8.219999999999999 42.21, 7.949999999999999 42.195, 8.7 42.36 C 9.719999999999999 42.54, 9.825 42.629999999999995, 10.74 42.72 C 11.55 42.72, 11.715 42.855, 12.36 42.72 C 12.84 42.45, 12.690000000000001 42.855000000000004, 13.32 42.18 C 14.1 41.099999999999994, 14.355 40.995, 14.879999999999999 40.019999999999996 C 15.149999999999999 39.15, 15.254999999999999 39, 15.419999999999998 38.28 C 15.479999999999999 37.71, 15.509999999999998 37.53, 15.54 37.14 C 15.54 36.93, 15.794999999999998 37.2, 15.54 36.72 C 15.03 35.97, 15.075 35.849999999999994, 14.52 35.22 C 13.92 34.71, 13.86 34.575, 13.32 34.2 C 12.84 33.96, 12.945 33.945, 12.36 33.72 C 11.67 33.51, 11.565000000000001 33.405, 10.98 33.3 C 10.5 33.3, 10.665 33.3, 10.02 33.3 C 9.209999999999999 33.3, 8.954999999999998 33.3, 8.399999999999999 33.3 C 8.1 33.3, 8.190000000000001 33.3, 7.800000000000001 33.3 C 7.32 33.3, 7.23 33.3, 6.84 33.3 C 6.54 33.3, 6.390000000000001 33.3, 6.24 33.3 C 6.24 33.3, 6.24 33.3, 6.24 33.3 L 6.24 33.3" fill="none" stroke="black" stroke-width="2"></path><path d="M 6.300000000000001 28.259999999999998 C 6.8100000000000005 28.5, 6.48 28.62, 7.32 28.740000000000002 C 8.49 28.740000000000002, 8.64 28.740000000000002, 9.66 28.740000000000002 C 10.53 28.740000000000002, 10.62 28.740000000000002, 11.399999999999999 28.740000000000002 C 12.09 28.740000000000002, 12.044999999999998 28.740000000000002, 12.78 28.740000000000002 C 13.559999999999999 28.740000000000002, 13.545 28.740000000000002, 14.34 28.740000000000002 C 15.15 28.740000000000002, 14.985 28.740000000000002, 15.96 28.740000000000002 C 17.1 28.740000000000002, 17.250000000000004 28.740000000000002, 18.240000000000002 28.740000000000002 C 19.08 28.740000000000002, 19.259999999999998 28.740000000000002, 19.919999999999998 28.740000000000002 C 20.4 28.740000000000002, 20.459999999999997 28.740000000000002, 20.88 28.740000000000002 C 21.240000000000002 28.740000000000002, 21.225 28.740000000000002, 21.6 28.740000000000002 C 21.990000000000002 28.740000000000002, 21.9 28.785000000000004, 22.38 28.740000000000002 C 22.95 28.65, 22.965 28.725, 23.52 28.56 C 24.06 28.32, 24.209999999999997 28.409999999999997, 24.599999999999998 28.08 C 24.839999999999996 27.66, 24.869999999999997 27.840000000000003, 25.08 27.240000000000002 C 25.259999999999998 26.46, 25.35 26.505, 25.44 25.68 C 25.44 24.810000000000002, 25.5 25.155, 25.44 23.94 C 25.32 22.380000000000003, 25.350000000000005 22.125, 25.200000000000003 20.82 C 25.02 19.77, 24.974999999999994 19.89, 24.839999999999996 18.72 C 24.75 17.43, 24.750000000000004 17.28, 24.660000000000004 16.14 C 24.57 15.15, 24.57 15.255, 24.48 14.16 C 24.39 12.96, 24.389999999999997 12.69, 24.299999999999997 11.76 C 24.209999999999997 11.1, 24.179999999999996 11.145, 24.119999999999997 10.44 C 24.089999999999996 9.69, 24.134999999999998 9.584999999999999, 24.06 8.94 C 23.939999999999998 8.4, 23.88 8.25, 23.82 7.86 C 23.82 7.62, 23.82 7.5, 23.82 7.38 L 23.82 7.38" fill="none" stroke="black" stroke-width="2"></path></svg>