<svg xmlns="http://www.w3.org/2000/svg" viewBox="8.539999961853027 5.577402591705322 21.68000030517578 38.1425986289978" width="21.68000030517578" height="38.1425986289978"><path d="M 11.16 14.82 C 11.79 14.91, 11.279999999999998 15, 12.419999999999998 15 C 14.07 14.91, 14.415 15.21, 15.72 14.82 C 16.68 14.13, 16.92 14.040000000000003, 17.64 13.440000000000001 C 18.12 12.93, 18.225 13.169999999999998, 18.6 12.419999999999998 C 18.87 11.43, 19.065 11.565, 19.14 10.44 C 19.02 9.18, 19.2 8.79, 18.9 7.92 C 18.42 7.4399999999999995, 18.450000000000003 7.289999999999999, 17.94 6.959999999999999 C 17.4 6.779999999999999, 17.685 6.495, 16.86 6.6000000000000005 C 15.75 6.99, 15.540000000000001 6.705, 14.64 7.38 C 13.95 8.34, 13.815000000000001 8.295000000000002, 13.26 9.3 C 12.84 10.35, 12.824999999999998 10.305, 12.419999999999998 11.399999999999999 C 12.03 12.54, 12.09 12.375, 11.64 13.68 C 11.13 15.15, 10.965000000000002 15.315000000000001, 10.620000000000001 16.62 C 10.440000000000001 17.759999999999998, 10.395 17.685, 10.26 18.9 C 10.17 20.189999999999998, 10.17 20.325, 10.08 21.48 C 9.989999999999998 22.5, 9.944999999999999 22.544999999999998, 9.899999999999999 23.52 C 9.899999999999999 24.450000000000003, 9.899999999999999 24.615000000000002, 9.899999999999999 25.380000000000003 C 9.899999999999999 25.98, 9.854999999999999 26.009999999999998, 9.899999999999999 26.58 C 9.989999999999998 27.12, 9.945 27.180000000000003, 10.08 27.660000000000004 C 10.26 28.080000000000002, 10.184999999999999 28.125, 10.44 28.5 C 10.77 28.830000000000002, 10.740000000000002 28.815000000000005, 11.100000000000001 29.160000000000004 C 11.49 29.520000000000003, 11.55 29.625000000000004, 11.879999999999999 29.880000000000003 C 12.149999999999999 30.03, 12.254999999999999 30.075000000000003, 12.419999999999998 30.18 C 12.479999999999999 30.24, 12.389999999999999 30.284999999999997, 12.54 30.299999999999997 C 12.78 30.27, 12.69 30.375, 13.02 30.240000000000002 C 13.44 30, 13.44 30.089999999999996, 13.86 29.759999999999998 C 14.280000000000001 29.34, 14.235000000000001 29.46, 14.700000000000001 28.92 C 15.21 28.259999999999998, 15.270000000000001 28.424999999999997, 15.72 27.599999999999998 C 16.11 26.61, 16.305 26.4, 16.5 25.619999999999997 C 16.5 25.049999999999997, 16.5 24.765, 16.5 24.48 C 16.5 24.48, 16.5 24.48, 16.5 24.48 C 16.5 24.48, 16.5 24.27, 16.5 24.48 C 16.5 24.9, 16.439999999999998 24.795, 16.5 25.32 C 16.62 25.95, 16.575000000000003 25.964999999999996, 16.740000000000002 26.58 C 16.950000000000003 27.18, 16.89 27.18, 17.16 27.78 C 17.490000000000002 28.380000000000003, 17.295 28.44, 17.82 28.98 C 18.54 29.46, 18.255 29.475, 19.259999999999998 29.94 C 20.549999999999997 30.39, 20.744999999999997 30.569999999999997, 21.84 30.839999999999996 C 22.740000000000002 30.93, 22.755 30.974999999999998, 23.64 31.02 C 24.51 31.02, 24.855000000000004 31.02, 25.380000000000003 31.02 C 25.560000000000002 31.02, 25.650000000000002 31.02, 25.740000000000002 31.02 L 25.740000000000002 31.02" fill="none" stroke="black" stroke-width="2"></path><path d="M 10.8 35.88 C 11.04 35.85, 10.89 35.835, 11.28 35.82 C 11.82 35.82, 11.235 35.82, 12.36 35.82 C 14.07 35.82, 14.099999999999998 35.76, 15.78 35.82 C 17.43 35.94, 17.385 35.955, 19.080000000000002 36.06 C 20.82 36.150000000000006, 21.075 36.09, 22.56 36.24 C 23.79 36.45, 24.015 36.495000000000005, 25.02 36.660000000000004 C 25.799999999999997 36.78, 26.145 36.825, 26.58 36.900000000000006 L 26.759999999999998 36.96" fill="none" stroke="black" stroke-width="2"></path><path d="M 9.540000000000001 41.76 C 10.260000000000002 41.76, 9.540000000000001 41.714999999999996, 10.98 41.76 C 13.14 41.849999999999994, 12.36 41.894999999999996, 15.299999999999999 41.94 C 19.02 41.94, 19.905 41.864999999999995, 22.740000000000002 41.94 C 24.69 42.09, 25.200000000000003 42.09, 26.64 42.24 C 27.57 42.39, 27.855 42.42, 28.5 42.54 L 29.22 42.72" fill="none" stroke="black" stroke-width="2"></path></svg>