<svg xmlns="http://www.w3.org/2000/svg" viewBox="8.600000381469727 10.15999984741211 19.646665573120117 34.52000045776367" width="19.646665573120117" height="34.52000045776367"><path d="M 17.4 30.48 C 17.4 29.1, 17.445 28.74, 17.4 27.72 C 17.31 27.060000000000002, 17.43 26.910000000000004, 17.22 26.400000000000002 C 16.89 26.04, 16.979999999999997 26.01, 16.56 25.68 C 16.049999999999997 25.38, 15.989999999999998 25.29, 15.54 25.08 C 15.149999999999999 24.959999999999997, 15.42 24.9, 14.76 24.839999999999996 C 13.829999999999998 24.839999999999996, 13.709999999999999 24.734999999999996, 12.899999999999999 24.839999999999996 C 12.209999999999999 25.049999999999997, 12.165 24.929999999999996, 11.52 25.259999999999998 C 10.92 25.71, 10.755 25.605000000000004, 10.32 26.160000000000004 C 10.05 26.82, 9.959999999999999 26.805, 9.78 27.48 C 9.690000000000001 28.17, 9.600000000000001 28.365, 9.600000000000001 28.86 C 9.690000000000001 29.16, 9.48 29.115000000000002, 9.78 29.46 C 10.29 29.85, 10.215 29.880000000000003, 10.8 30.240000000000002 C 11.46 30.57, 11.475000000000001 30.660000000000004, 12.120000000000001 30.900000000000002 C 12.75 31.050000000000004, 12.794999999999998 31.035000000000004, 13.379999999999999 31.200000000000003 C 13.92 31.380000000000003, 13.920000000000002 31.47, 14.46 31.56 C 15 31.56, 14.925 31.56, 15.54 31.56 C 16.229999999999997 31.56, 16.154999999999998 31.65, 16.919999999999998 31.56 C 17.759999999999998 31.380000000000003, 17.97 31.470000000000002, 18.6 31.200000000000003 C 19.020000000000003 30.840000000000003, 19.095000000000002 30.855, 19.44 30.48 C 19.71 30.090000000000003, 19.845 30.240000000000002, 19.98 29.700000000000003 C 19.98 29.01, 19.905 29.04, 19.98 28.32 C 20.130000000000003 27.57, 20.205000000000002 27.195, 20.28 26.82 C 20.28 26.82, 20.28 26.82, 20.28 26.82 C 20.28 26.82, 20.265 26.76, 20.28 26.82 C 20.310000000000002 26.939999999999998, 20.34 26.7, 20.34 27.06 C 20.310000000000002 27.659999999999997, 20.265 27.689999999999998, 20.28 28.259999999999998 C 20.34 28.799999999999997, 20.22 28.859999999999996, 20.4 29.339999999999996 C 20.7 29.759999999999998, 20.564999999999998 29.775, 21 30.18 C 21.57 30.57, 21.315 30.6, 22.14 30.96 C 23.22 31.29, 23.489999999999995 31.499999999999996, 24.299999999999997 31.619999999999997 C 24.84 31.53, 24.765 31.830000000000002, 25.380000000000003 31.44 C 26.07 30.75, 26.294999999999998 30.765, 26.759999999999998 30.06 C 27 29.339999999999996, 27.12 29.384999999999998, 27.240000000000002 28.619999999999997 C 27.240000000000002 27.81, 27.255000000000003 27.99, 27.240000000000002 27 C 27.21 25.830000000000002, 27.285 25.950000000000003, 27.18 24.660000000000004 C 27 23.25, 27.075 23.46, 26.82 21.84 C 26.490000000000002 20.009999999999998, 26.430000000000003 19.71, 26.160000000000004 18.18 C 25.950000000000003 16.95, 26.010000000000005 17.055, 25.740000000000002 15.72 C 25.41 14.280000000000001, 25.259999999999998 13.695, 25.08 12.84 C 25.049999999999997 12.57, 25.08 12.524999999999999, 25.02 12.299999999999999 C 24.93 12.12, 24.944999999999997 12.149999999999999, 24.839999999999996 11.94 C 24.72 11.7, 24.705 11.655, 24.599999999999998 11.459999999999999 C 24.509999999999998 11.309999999999999, 24.465 11.235, 24.42 11.16 L 24.42 11.16" fill="none" stroke="black" stroke-width="2"></path><path d="M 16.56 32.82 C 16.169999999999998 34.379999999999995, 16.125 34.155, 15.78 35.94 C 15.48 37.95, 15.389999999999999 38.519999999999996, 15.18 39.96 C 15.06 40.83, 15.030000000000001 40.980000000000004, 14.940000000000001 41.7 C 14.88 42.269999999999996, 14.88 42.495, 14.82 42.839999999999996 L 14.700000000000001 43.08" fill="none" stroke="black" stroke-width="2"></path><path d="M 24.18 33.54 C 23.94 35.129999999999995, 23.970000000000002 35.07, 23.700000000000003 36.72 C 23.400000000000002 38.43, 23.295 38.655, 23.1 40.14 C 23.009999999999998 41.400000000000006, 23.009999999999998 41.82000000000001, 22.919999999999998 42.660000000000004 C 22.83 43.08, 22.8 43.245000000000005, 22.740000000000002 43.5 L 22.68 43.68" fill="none" stroke="black" stroke-width="2"></path></svg>