<svg xmlns="http://www.w3.org/2000/svg" viewBox="3.2199997901916504 3.0300469398498535 29.220000743865967 43.80995321273804" width="29.220000743865967" height="43.80995321273804"><path d="M 8.459999999999999 22.98 C 7.9799999999999995 21.990000000000002, 8.205 22.5, 7.5 21 C 6.57 18.990000000000002, 6.39 18.975, 5.64 16.98 C 5.07 15, 4.83 14.85, 4.5 13.02 C 4.41 11.34, 4.365 10.754999999999999, 4.32 9.66 C 4.32 9.15, 4.095000000000001 9.510000000000002, 4.32 8.64 C 4.77 7.41, 4.605 7.215, 5.22 6.18 C 6 5.34, 6.015 5.025, 6.779999999999999 4.5 C 7.529999999999999 4.29, 7.469999999999999 4.17, 8.28 4.08 C 9.149999999999999 4.109999999999999, 9.254999999999999 3.915, 10.02 4.14 C 10.68 4.56, 10.8 4.454999999999999, 11.34 4.9799999999999995 C 11.76 5.609999999999999, 11.864999999999998 5.505, 12.18 6.24 C 12.39 7.08, 12.495000000000001 7.08, 12.600000000000001 7.92 C 12.600000000000001 8.760000000000002, 12.600000000000001 8.910000000000002, 12.600000000000001 9.600000000000001 C 12.600000000000001 10.14, 12.945000000000002 10.14, 12.600000000000001 10.68 C 11.91 11.219999999999999, 12.105 11.295, 11.22 11.76 C 10.14 12.149999999999999, 10.110000000000001 12.209999999999999, 9.06 12.54 C 8.04 12.81, 7.8149999999999995 12.840000000000002, 7.02 13.080000000000002 C 6.449999999999999 13.290000000000001, 6.21 13.395, 5.88 13.5 C 5.789999999999999 13.5, 5.744999999999999 13.5, 5.699999999999999 13.5 C 5.699999999999999 13.5, 5.729999999999999 13.5, 5.699999999999999 13.5 C 5.64 13.5, 5.609999999999999 13.5, 5.58 13.5 C 5.58 13.5, 5.655 13.5, 5.58 13.5 C 5.43 13.5, 5.355 13.5, 5.28 13.5 C 5.28 13.5, 5.37 13.5, 5.28 13.5 C 5.1 13.5, 5.01 13.5, 4.92 13.5 C 4.92 13.5, 4.949999999999999 13.5, 4.92 13.5 L 4.800000000000001 13.5" fill="none" stroke="black" stroke-width="2"></path><path d="M 6.0600000000000005 17.700000000000003 C 6.33 17.55, 5.985000000000001 17.669999999999998, 6.6000000000000005 17.4 C 7.5600000000000005 17.009999999999998, 7.5 16.935000000000002, 8.52 16.62 C 9.6 16.380000000000003, 9.48 16.35, 10.68 16.14 C 12 15.96, 12.165000000000001 15.84, 13.32 15.78 C 14.309999999999999 15.84, 14.579999999999998 15.764999999999999, 15.299999999999999 15.899999999999999 C 15.75 16.11, 15.660000000000002 15.915, 16.200000000000003 16.32 C 16.830000000000002 16.92, 16.935000000000002 16.74, 17.46 17.52 C 17.88 18.48, 18.029999999999998 18.735, 18.299999999999997 19.44 C 18.419999999999998 19.89, 18.479999999999997 20.115000000000002, 18.54 20.34 C 18.54 20.34, 18.54 20.34, 18.54 20.34 C 18.54 20.34, 18.54 20.34, 18.54 20.34 L 18.54 20.34" fill="none" stroke="black" stroke-width="2"></path><path d="M 19.62 20.28 C 21.54 19.950000000000003, 21.96 19.8, 23.46 19.62 C 24.54 19.59, 24.464999999999996 19.575, 25.619999999999997 19.56 C 26.849999999999998 19.56, 26.985 19.349999999999998, 28.08 19.56 C 29.04 19.979999999999997, 29.34 19.904999999999998, 30 20.4 C 30.36 20.97, 30.465 20.924999999999997, 30.72 21.54 C 30.869999999999997 22.2, 30.93 22.455, 31.02 22.86 L 31.08 23.16" fill="none" stroke="black" stroke-width="2"></path><path d="M 6.18 45.839999999999996 C 7.319999999999999 45.54, 7.034999999999999 45.9, 8.459999999999999 45.24 C 10.169999999999998 44.22, 10.589999999999998 44.05500000000001, 11.879999999999999 43.2 C 12.75 42.510000000000005, 12.690000000000001 42.705, 13.620000000000001 41.82 C 14.610000000000001 40.74, 14.73 40.965, 15.600000000000001 39.660000000000004 C 16.35 38.129999999999995, 16.53 38.06999999999999, 17.1 36.599999999999994 C 17.490000000000002 35.19, 17.655 34.86, 17.88 33.78 C 17.939999999999998 33.03, 17.955 33.195, 18 32.28 C 18.03 31.2, 18.044999999999998 31.244999999999997, 18.06 30.119999999999997 C 18.06 28.95, 18.014999999999997 29.04, 18.06 27.78 C 18.15 26.43, 18.12 26.189999999999998, 18.240000000000002 25.08 C 18.39 24.21, 18.375 24.39, 18.54 23.34 C 18.72 22.11, 18.794999999999998 21.674999999999997, 18.9 20.88 C 18.93 20.52, 18.945 20.37, 18.96 20.16 C 18.96 20.1, 18.96 20.07, 18.96 20.04 C 18.96 20.04, 18.96 20.04, 18.96 20.04 L 18.96 20.04" fill="none" stroke="black" stroke-width="2"></path><path d="M 18.84 20.4 C 18.84 21.54, 18.84 21.405, 18.84 22.68 C 18.84 24.09, 18.84 24.314999999999998, 18.84 25.5 C 18.84 26.46, 18.705 26.235, 18.84 27.42 C 19.11 28.830000000000002, 18.99 28.68, 19.38 30.240000000000002 C 19.89 31.950000000000003, 19.89 32.1, 20.4 33.660000000000004 C 20.909999999999997 35.07000000000001, 20.985 35.34, 21.419999999999998 36.480000000000004 C 21.78 37.35, 21.675 37.35, 22.14 38.22 C 22.71 39.09, 22.65 39.135000000000005, 23.28 39.96 C 23.970000000000002 40.739999999999995, 23.685000000000002 40.815, 24.660000000000004 41.519999999999996 C 25.92 42.15, 26.28 42.36, 27.18 42.78 C 27.72 42.99, 27.555 43.005, 28.259999999999998 43.2 C 29.13 43.38, 29.369999999999997 43.425000000000004, 30 43.56 C 30.39 43.650000000000006, 30.465000000000003 43.665000000000006, 30.78 43.74 C 31.02 43.8, 31.095 43.83, 31.259999999999998 43.86 C 31.35 43.86, 31.395 43.86, 31.44 43.86 L 31.44 43.86" fill="none" stroke="black" stroke-width="2"></path></svg>