<svg xmlns="http://www.w3.org/2000/svg" viewBox="6.860000133514404 3.2866668701171875 18.740000247955322 40.913333892822266" width="18.740000247955322" height="40.913333892822266"><path d="M 10.620000000000001 12 C 11.4 12.03, 11.445 12.044999999999998, 12.18 12.059999999999999 C 12.87 12.059999999999999, 12.989999999999998 12.194999999999999, 13.559999999999999 12.059999999999999 C 14.01 11.79, 13.995000000000001 11.94, 14.46 11.52 C 14.94 10.95, 15.014999999999997 11.04, 15.419999999999998 10.379999999999999 C 15.75 9.629999999999999, 15.885000000000002 9.584999999999999, 16.080000000000002 8.879999999999999 C 16.14 8.219999999999999, 16.17 8.13, 16.200000000000003 7.5600000000000005 C 16.200000000000003 7.08, 16.275000000000006 7.035, 16.200000000000003 6.6000000000000005 C 16.05 6.210000000000001, 16.2 6.210000000000001, 15.899999999999999 5.82 C 15.45 5.43, 15.465 5.355, 15 5.04 C 14.52 4.800000000000001, 14.475 4.7250000000000005, 14.04 4.5600000000000005 C 13.649999999999999 4.470000000000001, 13.605 4.425, 13.26 4.38 C 12.96 4.38, 13.065 4.17, 12.66 4.38 C 12.15 4.8, 12.06 4.8, 11.64 5.22 C 11.31 5.640000000000001, 11.22 5.6850000000000005, 10.98 6.0600000000000005 C 10.83 6.390000000000001, 10.8 6.210000000000001, 10.68 6.720000000000001 C 10.59 7.410000000000001, 10.59 7.395000000000001, 10.5 8.100000000000001 C 10.41 8.82, 10.41 8.700000000000001, 10.32 9.540000000000001 C 10.23 10.5, 10.23 10.5, 10.14 11.459999999999999 C 10.05 12.419999999999998, 10.094999999999999 12.165, 9.959999999999999 13.379999999999999 C 9.780000000000001 14.85, 9.735000000000001 14.76, 9.600000000000001 16.32 C 9.510000000000002 17.97, 9.57 17.94, 9.42 19.62 C 9.21 21.33, 9.15 21.495, 9 23.04 C 8.91 24.419999999999998, 9.045 23.879999999999995, 8.82 25.799999999999997 C 8.46 28.259999999999998, 8.310000000000002 28.814999999999998, 8.100000000000001 30.72 C 8.040000000000001 32.07, 8.010000000000002 32.25, 7.98 33.42 C 7.98 34.410000000000004, 7.995000000000001 34.51500000000001, 7.98 35.400000000000006 C 7.95 36.18000000000001, 7.95 36.21, 7.92 36.96 C 7.890000000000001 37.68000000000001, 7.875 37.77, 7.86 38.400000000000006 C 7.86 38.940000000000005, 7.86 38.940000000000005, 7.86 39.480000000000004 C 7.86 40.02, 7.86 40.02, 7.86 40.56 C 7.86 41.1, 7.86 41.175, 7.86 41.64 C 7.86 42.03, 7.86 42.03, 7.86 42.42 C 7.86 42.81, 7.86 43.005, 7.86 43.2 L 7.86 43.2" fill="none" stroke="black" stroke-width="2"></path><path d="M 9.3 21.36 C 9.6 21.36, 9.419999999999998 21.465, 9.899999999999999 21.36 C 10.559999999999999 21.15, 10.08 21.225, 11.22 20.94 C 12.84 20.58, 13.005 20.564999999999998, 14.46 20.22 C 15.75 19.89, 15.555 19.83, 17.04 19.56 C 18.72 19.35, 18.854999999999997 19.335, 20.4 19.14 C 21.81 18.96, 22.2 18.87, 23.22 18.78 C 23.85 18.78, 24.135 18.78, 24.48 18.78 L 24.599999999999998 18.78" fill="none" stroke="black" stroke-width="2"></path><path d="M 19.56 27.599999999999998 C 19.29 27.479999999999997, 19.365 27.314999999999998, 19.02 27.36 C 18.6 27.57, 18.75 27.435000000000002, 18.18 27.78 C 17.46 28.26, 17.46 28.095000000000002, 16.740000000000002 28.740000000000002 C 16.02 29.55, 15.795 29.55, 15.299999999999999 30.36 C 15.03 31.17, 14.895 30.990000000000002, 14.76 31.98 C 14.76 33.15, 14.52 33.495, 14.76 34.32 C 15.24 34.8, 15.105 34.995000000000005, 15.72 35.28 C 16.47 35.370000000000005, 16.529999999999998 35.43, 17.22 35.46 C 17.85 35.43000000000001, 17.82 35.7, 18.48 35.400000000000006 C 19.17 34.83, 19.275 34.83, 19.86 34.26 C 20.34 33.69, 20.415 33.809999999999995, 20.82 33.12 C 21.15 32.31, 21.315 32.34, 21.48 31.5 C 21.48 30.63, 21.705 30.659999999999997, 21.48 29.759999999999998 C 21.03 28.83, 21.015 28.590000000000003, 20.580000000000002 27.900000000000002 C 20.160000000000004 27.450000000000003, 20.115000000000002 27.330000000000002, 19.740000000000002 27 C 19.410000000000004 26.79, 19.290000000000003 26.685, 19.080000000000002 26.58 C 18.990000000000002 26.58, 18.945 26.58, 18.9 26.58 C 18.9 26.58, 18.9 26.58, 18.9 26.58 L 18.9 26.58" fill="none" stroke="black" stroke-width="2"></path><path d="M 14.76 32.58 C 15.21 32.58, 14.924999999999999 32.64, 15.66 32.58 C 16.68 32.459999999999994, 16.470000000000002 32.535, 17.700000000000003 32.339999999999996 C 19.14 32.06999999999999, 19.620000000000005 31.934999999999995, 20.580000000000002 31.799999999999997 C 21.060000000000002 31.799999999999997, 21.27 31.799999999999997, 21.54 31.799999999999997 L 21.66 31.799999999999997" fill="none" stroke="black" stroke-width="2"></path></svg>