<svg xmlns="http://www.w3.org/2000/svg" viewBox="5.360000133514404 7.2866668701171875 22.600000381469727 40.1533317565918" width="22.600000381469727" height="40.1533317565918"><path d="M 7.92 18.240000000000002 C 8.79 18.240000000000002, 8.625 18.240000000000002, 9.66 18.240000000000002 C 10.86 18.240000000000002, 11.009999999999998 18.465000000000003, 12.059999999999999 18.240000000000002 C 12.959999999999999 17.79, 12.974999999999998 18, 13.86 17.34 C 14.73 16.47, 14.925 16.650000000000002, 15.600000000000001 15.600000000000001 C 16.08 14.370000000000001, 16.29 14.34, 16.56 13.14 C 16.619999999999997 11.97, 16.77 11.73, 16.68 10.8 C 16.44 10.11, 16.590000000000003 10.035, 16.200000000000003 9.42 C 15.660000000000002 8.879999999999999, 15.765 8.61, 15.120000000000001 8.34 C 14.370000000000001 8.34, 14.340000000000002 8.219999999999999, 13.620000000000001 8.34 C 12.93 8.58, 12.780000000000001 8.565000000000001, 12.24 8.82 C 11.85 9.09, 11.954999999999998 8.879999999999999, 11.459999999999999 9.36 C 10.86 10.05, 10.77 10.02, 10.26 10.74 C 9.84 11.49, 9.84 11.34, 9.42 12.24 C 9 13.29, 9.015 13.035, 8.58 14.34 C 8.129999999999999 15.9, 8.01 15.870000000000001, 7.68 17.46 C 7.47 19.080000000000002, 7.47 18.810000000000002, 7.26 20.700000000000003 C 7.05 22.86, 7.005 23.025, 6.84 25.02 C 6.720000000000001 26.85, 6.720000000000001 25.98, 6.6000000000000005 28.68 C 6.48 32.25, 6.42 32.97, 6.36 35.82 C 6.36 37.95, 6.36 38.355, 6.36 40.08 C 6.36 41.4, 6.36 41.655, 6.36 42.72 C 6.36 43.53, 6.36 43.605, 6.36 44.339999999999996 C 6.36 45, 6.36 45.255, 6.36 45.660000000000004 C 6.36 45.81, 6.36 45.765, 6.36 45.96 C 6.36 46.2, 6.36 46.32, 6.36 46.44 C 6.36 46.44, 6.36 46.44, 6.36 46.44 L 6.36 46.44" fill="none" stroke="black" stroke-width="2"></path><path d="M 7.02 25.08 C 7.709999999999999 25.08, 7.769999999999998 25.034999999999997, 8.399999999999999 25.08 C 8.969999999999999 25.169999999999998, 8.88 25.005, 9.540000000000001 25.259999999999998 C 10.290000000000001 25.68, 10.455000000000002 25.455, 11.040000000000001 26.099999999999998 C 11.46 26.97, 11.52 26.954999999999995, 11.879999999999999 27.839999999999996 C 12.18 28.74, 12.33 29.16, 12.48 29.64 C 12.48 29.7, 12.48 29.729999999999997, 12.48 29.759999999999998 C 12.48 29.759999999999998, 12.48 29.759999999999998, 12.48 29.759999999999998 C 12.48 29.759999999999998, 12.42 30, 12.48 29.759999999999998 C 12.600000000000001 29.279999999999998, 12.375 29.429999999999996, 12.72 28.799999999999997 C 13.29 28.02, 13.035 27.990000000000002, 13.86 27.240000000000002 C 14.94 26.52, 14.774999999999999 26.294999999999998, 16.02 25.799999999999997 C 17.43 25.529999999999998, 17.595 25.424999999999997, 18.84 25.259999999999998 C 19.92 25.2, 19.995 25.11, 21 25.14 C 21.93 25.26, 21.78 24.825000000000003, 22.86 25.380000000000003 C 24.09 26.37, 24.405 26.37, 25.32 27.36 C 25.92 28.349999999999998, 26.16 28.349999999999994, 26.52 29.339999999999996 C 26.64 30.33, 26.654999999999998 29.97, 26.759999999999998 31.32 C 26.85 33.03, 26.895 32.775000000000006, 26.94 34.74 C 26.94 36.96, 26.985000000000003 37.41, 26.94 39.18 C 26.85 40.5, 26.805 40.83, 26.759999999999998 41.82 C 26.759999999999998 42.480000000000004, 26.759999999999998 42.735, 26.759999999999998 43.14 C 26.759999999999998 43.29, 26.759999999999998 43.364999999999995, 26.759999999999998 43.44 C 26.759999999999998 43.44, 26.759999999999998 43.44, 26.759999999999998 43.44 C 26.759999999999998 43.44, 26.759999999999998 43.394999999999996, 26.759999999999998 43.44 C 26.759999999999998 43.53, 26.759999999999998 43.41, 26.759999999999998 43.62 C 26.759999999999998 43.95, 26.759999999999998 43.695, 26.759999999999998 44.28 C 26.759999999999998 45.120000000000005, 26.759999999999998 45.45, 26.759999999999998 45.96 C 26.759999999999998 46.14, 26.759999999999998 46.230000000000004, 26.759999999999998 46.32 L 26.759999999999998 46.32" fill="none" stroke="black" stroke-width="2"></path><path d="M 18.48 34.38 C 17.73 34.47, 17.79 34.17, 16.98 34.56 C 16.11 35.25, 15.735 35.099999999999994, 15.24 35.94 C 15.120000000000001 36.93, 14.91 36.96, 15 37.92 C 15.3 38.85, 15.060000000000002 39.03, 15.600000000000001 39.78 C 16.380000000000003 40.35, 16.245 40.665000000000006, 17.16 40.92 C 18.21 40.86, 18.33 41.19, 19.259999999999998 40.8 C 20.07 40.08, 20.415 39.989999999999995, 20.88 39.36 C 21 38.82, 21.045 39.015, 21.12 38.28 C 21.15 37.35, 21.285 37.095, 21.18 36.42 C 20.94 36, 21.21 36.089999999999996, 20.700000000000003 35.58 C 19.92 34.980000000000004, 19.815 34.83, 19.14 34.38 C 18.57 34.08, 18.39 33.945, 18 33.78 L 17.580000000000002 33.72" fill="none" stroke="black" stroke-width="2"></path></svg>