<svg xmlns="http://www.w3.org/2000/svg" viewBox="5.920000076293945 3.9000000953674316 23.280000686645508 41.91999959945679" width="23.280000686645508" height="41.91999959945679"><path d="M 8.52 12.84 C 9.06 12.93, 8.625000000000002 12.989999999999998, 9.600000000000001 13.02 C 11.01 12.99, 11.34 13.185, 12.419999999999998 12.96 C 13.169999999999998 12.540000000000001, 13.349999999999998 12.585, 13.919999999999998 12.120000000000001 C 14.309999999999999 11.610000000000001, 14.22 11.925, 14.700000000000001 11.100000000000001 C 15.27 9.96, 15.540000000000001 9.735000000000001, 15.84 8.82 C 15.87 8.129999999999999, 16.005 8.024999999999999, 15.899999999999999 7.4399999999999995 C 15.659999999999998 6.96, 15.839999999999998 6.930000000000001, 15.419999999999998 6.48 C 14.82 6.0600000000000005, 15.015 6, 14.22 5.64 C 13.23 5.34, 13.350000000000001 5.1899999999999995, 12.24 5.04 C 11.01 5.04, 10.829999999999998 4.725, 9.78 5.04 C 8.91 5.67, 8.670000000000002 5.670000000000001, 8.040000000000001 6.300000000000001 C 7.65 6.930000000000001, 7.53 6.780000000000001, 7.26 7.5600000000000005 C 7.109999999999999 8.49, 7.034999999999999 8.22, 6.959999999999999 9.42 C 6.959999999999999 10.89, 6.959999999999999 10.709999999999999, 6.959999999999999 12.36 C 6.959999999999999 14.19, 6.869999999999999 14.055, 6.959999999999999 16.02 C 7.14 18.119999999999997, 7.155 18.345, 7.32 20.22 C 7.470000000000001 21.869999999999997, 7.41 21.974999999999998, 7.62 23.52 C 7.890000000000001 24.96, 7.98 25.470000000000002, 8.16 26.400000000000002 C 8.25 26.82, 8.295 26.985000000000003, 8.34 27.240000000000002 L 8.34 27.42" fill="none" stroke="black" stroke-width="2"></path><path d="M 8.58 19.32 C 10.29 18.96, 10.035 18.915000000000003, 12 18.6 C 14.22 18.33, 14.535 18.21, 16.44 18.06 C 18.03 18.03, 18.285 18.045, 19.62 18 C 20.700000000000003 17.939999999999998, 20.475 17.91, 21.78 17.88 C 23.31 17.88, 23.759999999999998 17.88, 24.839999999999996 17.88 C 25.47 17.88, 25.574999999999996 17.744999999999997, 26.099999999999998 17.88 C 26.52 18.15, 26.52 17.97, 26.94 18.419999999999998 C 27.36 19.049999999999997, 27.48 18.84, 27.78 19.68 C 27.96 20.73, 28.035 20.61, 28.14 21.78 C 28.17 23.07, 28.185000000000002 23.415, 28.200000000000003 24.36 C 28.200000000000003 24.96, 28.200000000000003 25.259999999999998, 28.200000000000003 25.56 L 28.200000000000003 25.56" fill="none" stroke="black" stroke-width="2"></path><path d="M 16.259999999999998 18.419999999999998 C 16.17 21.119999999999997, 16.185000000000002 21.12, 16.080000000000002 23.82 C 15.96 26.52, 16.02 26.534999999999997, 15.84 29.22 C 15.6 31.89, 15.555 32.415000000000006, 15.36 34.56 C 15.209999999999999 36.18, 15.194999999999999 36.269999999999996, 15.059999999999999 37.8 C 14.94 39.239999999999995, 14.925 39.735, 14.82 40.68 C 14.73 41.129999999999995, 14.685 41.28, 14.64 41.58 C 14.64 41.730000000000004, 14.64 41.805, 14.64 41.88 C 14.64 41.88, 14.64 41.760000000000005, 14.64 41.88 C 14.64 42.120000000000005, 14.64 42.24, 14.64 42.36 C 14.64 42.36, 14.685 42.285, 14.64 42.36 C 14.55 42.510000000000005, 14.505 42.585, 14.46 42.660000000000004 L 14.46 42.660000000000004" fill="none" stroke="black" stroke-width="2"></path><path d="M 21.96 18.66 C 21.9 20.310000000000002, 21.93 19.425, 21.84 21.96 C 21.72 25.38, 21.765 25.499999999999996, 21.6 28.799999999999997 C 21.39 31.98, 21.33 32.910000000000004, 21.18 35.160000000000004 C 21.09 36.480000000000004, 21.045 36.51, 21 37.8 C 21 39.06, 21 39.285, 21 40.32 C 21 41.129999999999995, 21 41.144999999999996, 21 41.94 C 21 42.72, 21 42.87, 21 43.5 C 21 43.980000000000004, 21 44.19, 21 44.46 C 21 44.519999999999996, 21.045 44.489999999999995, 21 44.58 L 20.82 44.82" fill="none" stroke="black" stroke-width="2"></path></svg>