<svg xmlns="http://www.w3.org/2000/svg" viewBox="10.74666690826416 4.360000133514404 20.673333168029785 41.0400013923645" width="20.673333168029785" height="41.0400013923645"><path d="M 11.76 12.18 C 12.600000000000001 12.36, 12.39 12.465, 13.440000000000001 12.54 C 14.700000000000001 12.51, 14.670000000000002 12.795, 15.96 12.48 C 17.28 11.879999999999999, 17.715000000000003 11.879999999999999, 18.6 11.28 C 19.05 10.68, 19.23 10.905, 19.5 10.08 C 19.59 9.030000000000001, 19.77 8.925, 19.68 7.98 C 19.41 7.140000000000001, 19.62 6.945, 19.14 6.300000000000001 C 18.45 5.8500000000000005, 18.45 5.625, 17.759999999999998 5.4 C 17.07 5.4, 17.084999999999997 5.3100000000000005, 16.38 5.4 C 15.66 5.58, 15.585 5.37, 14.940000000000001 5.76 C 14.370000000000001 6.359999999999999, 14.325 6.029999999999999, 13.799999999999999 6.959999999999999 C 13.32 8.219999999999999, 13.215 8.280000000000001, 12.84 9.48 C 12.57 10.620000000000001, 12.569999999999999 10.14, 12.299999999999999 11.76 C 12.03 13.86, 11.895 14.085, 11.76 15.96 C 11.76 17.61, 11.73 17.88, 11.76 19.259999999999998 C 11.82 20.369999999999997, 11.85 20.925, 11.879999999999999 21.48 L 11.879999999999999 21.48" fill="none" stroke="black" stroke-width="2"></path><path d="M 12.66 16.14 C 13.02 16.11, 11.669999999999998 16.245, 13.379999999999999 16.080000000000002 C 16.439999999999998 15.780000000000001, 16.544999999999998 15.72, 19.5 15.48 C 22.35 15.3, 23.385000000000005 15.150000000000002, 25.200000000000003 15.120000000000001 C 25.98 15.24, 25.919999999999998 15.225, 26.759999999999998 15.36 C 27.659999999999997 15.51, 27.735 15.120000000000001, 28.56 15.66 C 29.31 16.59, 29.595 16.245, 30.06 17.52 C 30.240000000000002 19.14, 30.330000000000002 19.455, 30.42 20.759999999999998 L 30.42 22.740000000000002" fill="none" stroke="black" stroke-width="2"></path><path d="M 22.86 17.28 C 22.86 19.08, 22.86 18.915, 22.86 20.88 C 22.86 23.009999999999998, 23.174999999999997 22.695, 22.86 25.14 C 22.23 27.900000000000002, 22.32 28.125000000000004, 21.6 30.660000000000004 C 20.79 32.97, 20.655 33.540000000000006, 19.98 35.28 C 19.439999999999998 36.45, 19.709999999999997 36.254999999999995, 18.9 37.62 C 17.82 39.18, 17.880000000000003 39.36, 16.740000000000002 40.74 C 15.540000000000001 41.94, 15.450000000000001 42.27, 14.34 43.14 C 13.32 43.68, 12.899999999999999 43.905, 12.299999999999999 44.22 L 11.94 44.400000000000006" fill="none" stroke="black" stroke-width="2"></path></svg>