<svg xmlns="http://www.w3.org/2000/svg" viewBox="9.609123229980469 3.0032992362976074 20.590877532958984 44.55670213699341" width="20.590877532958984" height="44.55670213699341"><path d="M 14.46 31.98 C 13.41 30, 13.26 30.33, 12.36 28.02 C 11.61 25.380000000000003, 11.294999999999998 24.69, 10.86 22.740000000000002 C 10.74 21.48, 10.665000000000001 21.57, 10.620000000000001 20.22 C 10.65 18.78, 10.545 18.585, 10.68 17.34 C 10.92 16.29, 10.95 15.885, 11.16 15.24 C 11.34 15, 11.265 14.97, 11.52 14.76 C 11.85 14.579999999999998, 11.73 14.354999999999999, 12.18 14.399999999999999 C 12.75 14.67, 12.75 14.625, 13.32 14.940000000000001 C 13.89 15.3, 13.920000000000002 15.120000000000001, 14.46 15.66 C 14.97 16.380000000000003, 15.045 16.305, 15.48 17.1 C 15.840000000000002 17.97, 15.795000000000002 17.685000000000002, 16.200000000000003 18.84 C 16.650000000000002 20.28, 16.785000000000004 20.759999999999998, 17.1 21.72 C 17.28 22.2, 17.37 22.395, 17.46 22.68 C 17.46 22.77, 17.46 22.814999999999998, 17.46 22.86 C 17.46 22.86, 17.46 22.919999999999998, 17.46 22.86 C 17.46 22.740000000000002, 17.580000000000002 23.07, 17.46 22.62 C 17.22 21.84, 17.145000000000003 21.974999999999998, 16.98 21.06 C 16.89 20.009999999999998, 16.845 19.95, 16.799999999999997 18.96 C 16.799999999999997 18.03, 16.799999999999997 17.79, 16.799999999999997 17.1 C 16.799999999999997 16.650000000000002, 16.739999999999995 16.740000000000002, 16.799999999999997 16.200000000000003 C 16.919999999999998 15.570000000000002, 16.919999999999998 15.375000000000002, 17.04 14.940000000000001 C 17.16 14.700000000000001, 16.965000000000003 14.73, 17.28 14.46 C 17.79 14.16, 17.79 14.01, 18.299999999999997 13.86 C 18.81 13.86, 18.615 13.77, 19.32 13.86 C 20.22 14.04, 20.28 13.935, 21.12 14.22 C 21.9 14.61, 21.810000000000002 14.745000000000001, 22.68 15 C 23.64 15.120000000000001, 23.639999999999997 15.21, 24.599999999999998 15.24 C 25.56 15.18, 25.71 15.39, 26.52 15.120000000000001 C 27.18 14.64, 27.284999999999997 14.685, 27.839999999999996 14.16 C 28.29 13.59, 28.425 13.77, 28.740000000000002 13.02 C 28.92 12.09, 29.009999999999998 12.075, 29.099999999999998 11.16 C 29.099999999999998 10.26, 29.324999999999996 10.59, 29.099999999999998 9.36 C 28.65 7.8, 28.770000000000003 7.335, 28.200000000000003 6.24 C 27.51 5.609999999999999, 27.885 5.475, 26.82 4.9799999999999995 C 25.380000000000003 4.619999999999999, 25.35 4.5, 23.94 4.26 C 22.560000000000002 4.140000000000001, 22.275 3.9450000000000003, 21.18 4.0200000000000005 C 20.369999999999997 4.290000000000001, 20.13 4.32, 19.56 4.5600000000000005 L 18.9 4.9799999999999995" fill="none" stroke="black" stroke-width="2"></path><path d="M 18.299999999999997 23.46 C 18.75 24.39, 18.78 24.255000000000003, 19.200000000000003 25.32 C 19.590000000000003 26.52, 19.62 26.235, 19.98 27.72 C 20.310000000000002 29.49, 20.415 29.639999999999997, 20.64 31.259999999999998 C 20.759999999999998 32.730000000000004, 20.924999999999997 32.910000000000004, 20.88 34.2 C 20.67 35.31, 20.865000000000002 35.31, 20.46 36.42 C 19.86 37.53, 19.904999999999998 37.605000000000004, 19.259999999999998 38.64 C 18.57 39.6, 18.525 39.78, 17.88 40.56 C 17.28 41.16, 17.099999999999998 41.325, 16.68 41.76 L 16.200000000000003 42.3" fill="none" stroke="black" stroke-width="2"></path><path d="M 27.900000000000002 33.18 C 27.900000000000002 33.9, 28.020000000000003 33.39, 27.900000000000002 34.62 C 27.660000000000004 36.36, 27.735000000000003 36.434999999999995, 27.42 38.099999999999994 C 27.03 39.69, 27.18 40.004999999999995, 26.64 41.28 C 25.95 42.24, 26.235 42.06, 25.259999999999998 43.2 C 24 44.519999999999996, 23.580000000000002 45.015, 22.740000000000002 45.839999999999996 C 22.32 46.17, 22.14 46.32, 21.9 46.5 L 21.78 46.56" fill="none" stroke="black" stroke-width="2"></path></svg>