<svg xmlns="http://www.w3.org/2000/svg" viewBox="11.693333625793457 6.313333511352539 21.594843864440918 40.34666633605957" width="21.594843864440918" height="40.34666633605957"><path d="M 13.799999999999999 30.48 C 13.559999999999999 29.159999999999997, 13.53 29.219999999999995, 13.32 27.839999999999996 C 13.14 26.4, 13.095 26.205, 12.96 24.96 C 12.870000000000001 23.91, 12.825 23.924999999999997, 12.78 22.86 C 12.78 21.78, 12.584999999999999 21.78, 12.78 20.700000000000003 C 13.169999999999998 19.62, 13.169999999999998 19.275, 13.559999999999999 18.54 C 13.95 18.15, 13.799999999999999 18.104999999999997, 14.34 17.759999999999998 C 15.030000000000001 17.46, 15.06 17.355, 15.72 17.16 C 16.35 17.07, 16.305 17.025, 16.98 16.98 C 17.7 16.98, 17.744999999999997 16.965, 18.419999999999998 16.98 C 19.049999999999997 17.009999999999998, 19.035 17.025, 19.68 17.04 C 20.34 17.04, 20.265 17.009999999999998, 21 17.04 C 21.810000000000002 17.1, 21.87 17.13, 22.62 17.16 C 23.310000000000002 17.16, 23.34 17.16, 24 17.16 C 24.63 17.16, 24.659999999999997 17.16, 25.259999999999998 17.16 C 25.83 17.16, 25.8 17.265, 26.400000000000002 17.16 C 27.03 16.950000000000003, 27.135000000000005 17.040000000000003, 27.660000000000004 16.740000000000002 C 28.080000000000002 16.35, 28.05 16.41, 28.5 15.96 C 28.98 15.450000000000001, 29.07 15.360000000000001, 29.46 14.940000000000001 C 29.759999999999998 14.61, 29.759999999999998 14.684999999999999, 30.06 14.28 C 30.36 13.8, 30.435000000000002 13.845, 30.660000000000004 13.32 C 30.810000000000002 12.75, 30.885 12.69, 30.96 12.18 C 30.96 11.73, 30.990000000000002 11.7, 30.96 11.28 C 30.9 10.89, 30.944999999999997 10.905, 30.839999999999996 10.5 C 30.689999999999998 10.08, 30.72 10.08, 30.54 9.66 C 30.33 9.24, 30.36 9.15, 30.119999999999997 8.82 C 29.849999999999998 8.58, 29.999999999999996 8.61, 29.58 8.34 C 29.009999999999998 8.04, 29.16 7.995, 28.44 7.74 C 27.57 7.53, 27.435000000000002 7.425000000000001, 26.700000000000003 7.32 C 26.1 7.32, 26.235 7.305000000000001, 25.5 7.32 C 24.63 7.35, 24.479999999999997 7.305, 23.759999999999998 7.38 C 23.189999999999998 7.5, 23.025 7.515, 22.62 7.62 L 22.14 7.800000000000001" fill="none" stroke="black" stroke-width="2"></path><path d="M 20.94 16.62 C 20.97 17.25, 20.94 16.994999999999997, 21 17.88 C 21.09 19.02, 21.09 19.05, 21.18 20.16 C 21.27 21.240000000000002, 21.044999999999998 21.105, 21.36 22.32 C 21.9 23.67, 21.810000000000002 23.865, 22.44 25.02 C 23.16 25.98, 23.16 26.1, 23.88 26.94 C 24.6 27.660000000000004, 24.42 27.720000000000002, 25.32 28.380000000000003 C 26.4 28.98, 26.34 29.205, 27.48 29.58 C 28.68 29.73, 28.950000000000003 29.685000000000002, 29.880000000000003 29.880000000000003 C 30.540000000000003 30.12, 30.690000000000005 30.105, 31.200000000000003 30.36 C 31.560000000000002 30.630000000000003, 31.665000000000003 30.6, 31.92 30.900000000000002 C 32.07 31.23, 32.129999999999995 31.244999999999997, 32.22 31.56 C 32.25 31.86, 32.31 31.845000000000002, 32.28 32.160000000000004 C 32.19 32.49, 32.42999999999999 32.49, 32.099999999999994 32.82 C 31.529999999999998 33.150000000000006, 31.725 33.150000000000006, 30.96 33.480000000000004 C 30 33.81, 30.15 33.825, 29.04 34.14 C 27.78 34.44, 27.78 34.410000000000004, 26.52 34.74 C 25.259999999999998 35.1, 25.11 35.025, 24 35.46 C 23.04 35.97, 22.995 35.85, 22.080000000000002 36.480000000000004 C 21.21 37.230000000000004, 21.06 37.17, 20.34 37.980000000000004 C 19.770000000000003 38.85, 19.680000000000003 38.775, 19.200000000000003 39.72 C 18.810000000000002 40.739999999999995, 18.75 40.665, 18.419999999999998 41.76 C 18.15 42.92999999999999, 18.015 43.12499999999999, 17.88 44.099999999999994 C 17.88 44.879999999999995, 17.88 45.27, 17.88 45.660000000000004 C 17.88 45.660000000000004, 17.88 45.660000000000004, 17.88 45.660000000000004 L 17.88 45.660000000000004" fill="none" stroke="black" stroke-width="2"></path></svg>