<svg xmlns="http://www.w3.org/2000/svg" viewBox="6.842708587646484 7.361753463745117 24.457290649414062 38.818246841430664" width="24.457290649414062" height="38.818246841430664"><path d="M 12.059999999999999 31.200000000000003 C 12.059999999999999 31.200000000000003, 12.059999999999999 31.125000000000004, 12.059999999999999 31.200000000000003 C 12.059999999999999 31.35, 12.269999999999998 31.8, 12.059999999999999 31.5 C 11.64 30.75, 11.82 31.71, 11.22 30 C 10.440000000000001 27.330000000000002, 10.245000000000001 27.030000000000005, 9.66 24.660000000000004 C 9.27 22.590000000000003, 9.225 22.545, 8.879999999999999 20.52 C 8.579999999999998 18.54, 8.534999999999998 18.33, 8.28 16.56 C 8.07 15, 7.95 14.925, 7.86 13.440000000000001 C 7.890000000000001 12.030000000000001, 7.7700000000000005 11.580000000000002, 7.92 10.620000000000001 C 8.19 10.110000000000001, 7.965 10.110000000000001, 8.459999999999999 9.600000000000001 C 9.18 9.09, 9.059999999999999 8.865, 9.899999999999999 8.58 C 10.86 8.52, 11.01 8.204999999999998, 11.82 8.459999999999999 C 12.48 9.030000000000001, 12.465 8.850000000000001, 13.14 9.600000000000001 C 13.83 10.530000000000001, 13.86 10.094999999999999, 14.52 11.459999999999999 C 15.149999999999999 13.259999999999998, 15.329999999999998 13.409999999999998, 15.78 15.059999999999999 C 16.05 16.56, 16.125 16.634999999999998, 16.32 18.06 C 16.439999999999998 19.409999999999997, 16.455 19.904999999999998, 16.56 20.759999999999998 C 16.65 21.119999999999997, 16.695 21.3, 16.740000000000002 21.48 C 16.740000000000002 21.48, 16.740000000000002 21.48, 16.740000000000002 21.48 C 16.740000000000002 21.48, 16.71 21.42, 16.740000000000002 21.48 C 16.8 21.6, 16.755 21.66, 16.86 21.72 C 17.009999999999998 21.72, 16.215 21.735, 17.16 21.72 C 18.9 21.689999999999998, 19.080000000000002 21.675, 20.64 21.66 C 22.02 21.66, 22.155 21.705, 23.4 21.66 C 24.509999999999998 21.57, 24.72 21.615000000000002, 25.619999999999997 21.48 C 26.31 21.3, 26.28 21.345, 27 21.12 C 27.75 20.85, 27.795 20.985000000000003, 28.5 20.580000000000002 C 29.16 20.04, 29.384999999999998 19.98, 29.82 19.5 C 30.03 19.08, 30.135 19.14, 30.240000000000002 18.66 C 30.240000000000002 18.12, 30.240000000000002 18.150000000000002, 30.240000000000002 17.580000000000002 C 30.240000000000002 16.98, 30.375 16.98, 30.240000000000002 16.38 C 29.970000000000002 15.78, 30.000000000000004 15.69, 29.700000000000003 15.18 C 29.37 14.76, 29.49 14.715, 29.04 14.34 C 28.47 14.01, 28.62 13.875, 27.900000000000002 13.68 C 27.03 13.62, 26.985000000000007 13.59, 26.160000000000004 13.559999999999999 C 25.380000000000003 13.559999999999999, 25.32 13.454999999999998, 24.599999999999998 13.559999999999999 C 23.939999999999998 13.77, 23.85 13.785, 23.28 13.98 C 22.8 14.16, 22.560000000000002 14.25, 22.32 14.34 L 22.32 14.34" fill="none" stroke="black" stroke-width="2"></path><path d="M 24.900000000000002 21.36 C 25.619999999999997 21.96, 25.784999999999997 22.005, 26.339999999999996 22.56 C 26.729999999999997 23.07, 26.699999999999996 22.935000000000002, 27.119999999999997 23.580000000000002 C 27.57 24.36, 27.735 24.330000000000002, 28.02 25.14 C 28.14 25.98, 28.2 26.07, 28.259999999999998 26.82 C 28.259999999999998 27.48, 28.259999999999998 27.630000000000003, 28.259999999999998 28.14 C 28.259999999999998 28.5, 28.259999999999998 28.485, 28.259999999999998 28.86 C 28.259999999999998 29.25, 28.259999999999998 29.445, 28.259999999999998 29.64 L 28.259999999999998 29.64" fill="none" stroke="black" stroke-width="2"></path><path d="M 17.16 22.32 C 17.22 23.61, 17.1 23.265, 17.28 24.900000000000002 C 17.58 26.880000000000003, 17.625 26.685000000000002, 17.88 28.86 C 18.089999999999996 31.229999999999997, 18.194999999999997 31.679999999999993, 18.299999999999997 33.599999999999994 C 18.299999999999997 35.06999999999999, 18.254999999999995 35.16, 18.299999999999997 36.54 C 18.39 37.83, 18.435 38.025, 18.48 39.12 C 18.48 40.019999999999996, 18.48 39.99, 18.48 40.92 C 18.48 41.879999999999995, 18.48 42.029999999999994, 18.48 42.839999999999996 C 18.48 43.5, 18.48 43.575, 18.48 44.160000000000004 C 18.48 44.67, 18.48 44.925, 18.48 45.18 C 18.48 45.18, 18.48 45.18, 18.48 45.18 L 18.48 45.18" fill="none" stroke="black" stroke-width="2"></path><path d="M 21.84 21.6 C 21.93 21.66, 21.975 21.195, 22.02 21.72 C 22.02 22.71, 21.974999999999998 21.855000000000004, 22.02 23.700000000000003 C 22.11 26.4, 22.035000000000004 26.835, 22.200000000000003 29.099999999999998 C 22.44 30.93, 22.455 30.944999999999997, 22.68 32.76 C 22.89 34.56, 22.89 34.935, 23.1 36.36 C 23.310000000000002 37.41, 23.415 37.545, 23.52 38.46 C 23.52 39.239999999999995, 23.52 39.239999999999995, 23.52 40.019999999999996 C 23.52 40.8, 23.52 40.86, 23.52 41.58 C 23.52 42.24, 23.52 42.39000000000001, 23.52 42.900000000000006 C 23.52 43.260000000000005, 23.52 43.23, 23.52 43.62 C 23.52 44.04, 23.52 44.25, 23.52 44.46 C 23.52 44.46, 23.52 44.46, 23.52 44.46 L 23.52 44.46" fill="none" stroke="black" stroke-width="2"></path></svg>