<svg xmlns="http://www.w3.org/2000/svg" viewBox="9.462646484375 3.1291232109069824 19.677352905273438 43.59087800979614" width="19.677352905273438" height="43.59087800979614"><path d="M 11.7 27.240000000000002 C 11.7 27.240000000000002, 11.669999999999998 27.360000000000003, 11.7 27.240000000000002 C 11.76 27, 11.985 27.93, 11.82 26.759999999999998 C 11.43 24.659999999999997, 11.355 24.645, 11.040000000000001 22.56 C 10.8 20.49, 10.68 20.115, 10.56 18.419999999999998 C 10.56 17.099999999999998, 10.515 16.935, 10.56 15.78 C 10.65 14.79, 10.185 14.774999999999999, 10.74 13.799999999999999 C 11.76 12.84, 12.075 12.434999999999999, 12.78 11.879999999999999 C 13.169999999999998 11.73, 13.155 11.475, 13.559999999999999 11.58 C 13.979999999999999 11.94, 13.859999999999998 11.594999999999999, 14.399999999999999 12.299999999999999 C 15.059999999999999 13.349999999999998, 15.15 12.974999999999998, 15.72 14.399999999999999 C 16.2 16.2, 16.335 16.575, 16.68 18 C 16.89 19.05, 16.995 19.575000000000003, 17.1 20.1 C 17.1 20.1, 17.1 20.1, 17.1 20.1 C 17.1 20.1, 17.115000000000002 20.295, 17.1 20.1 C 17.07 19.71, 17.1 20.415, 17.04 19.32 C 16.95 17.52, 16.905 16.98, 16.86 15.72 C 16.86 15, 16.77 14.955, 16.86 14.28 C 17.04 13.649999999999999, 16.875 13.53, 17.22 13.02 C 17.73 12.629999999999999, 17.685000000000002 12.435, 18.240000000000002 12.24 C 18.840000000000003 12.24, 18.900000000000002 12.21, 19.44 12.24 C 19.92 12.3, 19.544999999999998 12.12, 20.4 12.36 C 21.63 12.780000000000001, 21.735 12.99, 22.86 13.200000000000001 C 23.880000000000003 13.200000000000001, 24.105000000000004 13.410000000000002, 24.900000000000002 13.200000000000001 C 25.47 12.780000000000001, 25.65 12.855, 26.04 12.36 C 26.25 11.79, 26.355 11.895, 26.46 11.22 C 26.46 10.440000000000001, 26.505000000000003 10.530000000000001, 26.46 9.66 C 26.37 8.7, 26.43 8.46, 26.28 7.74 C 26.07 7.26, 26.205 7.289999999999999, 25.86 6.779999999999999 C 25.380000000000003 6.239999999999999, 25.455000000000002 6.179999999999999, 24.900000000000002 5.699999999999999 C 24.270000000000003 5.279999999999999, 24.42 5.25, 23.64 4.86 C 22.71 4.5, 22.665 4.305, 21.78 4.14 C 20.94 4.17, 20.730000000000004 4.0649999999999995, 20.1 4.199999999999999 C 19.68 4.4399999999999995, 19.575 4.4399999999999995, 19.259999999999998 4.68 C 19.049999999999997 4.92, 18.975 4.95, 18.84 5.16 L 18.72 5.5200000000000005" fill="none" stroke="black" stroke-width="2"></path><path d="M 23.22 13.32 C 23.43 13.59, 23.175 13.379999999999999, 23.64 13.86 C 24.36 14.55, 24.419999999999998 14.445, 25.08 15.24 C 25.68 16.14, 25.89 15.885, 26.28 17.04 C 26.46 18.45, 26.55 18.509999999999998, 26.64 19.86 C 26.64 21.15, 26.7 21.240000000000002, 26.64 22.44 C 26.520000000000003 23.550000000000004, 26.46 23.910000000000004, 26.400000000000002 24.660000000000004 C 26.400000000000002 25.050000000000004, 26.400000000000002 25.245, 26.400000000000002 25.44 C 26.400000000000002 25.44, 26.400000000000002 25.395000000000003, 26.400000000000002 25.44 L 26.400000000000002 25.619999999999997" fill="none" stroke="black" stroke-width="2"></path><path d="M 17.34 19.62 C 17.310000000000002 20.55, 17.25 19.875, 17.28 21.48 C 17.37 23.759999999999998, 17.355 23.91, 17.46 26.04 C 17.580000000000002 28.02, 17.535000000000004 27.765, 17.700000000000003 30 C 17.910000000000004 32.49, 17.895000000000003 32.295, 18.12 34.980000000000004 C 18.36 37.86, 18.39 38.64, 18.6 40.74 C 18.78 42.06, 18.87 42.480000000000004, 18.96 43.38 C 18.96 43.86, 18.93 43.905, 18.96 44.339999999999996 C 19.020000000000003 44.73, 19.005000000000003 44.834999999999994, 19.080000000000002 45.12 C 19.17 45.3, 19.14 45.375, 19.259999999999998 45.480000000000004 C 19.409999999999997 45.510000000000005, 19.395 45.525, 19.56 45.54 C 19.74 45.54, 19.665 45.945, 19.919999999999998 45.54 C 20.25 44.730000000000004, 20.415 44.835, 20.580000000000002 43.92 C 20.580000000000002 42.900000000000006, 20.580000000000002 42.795, 20.580000000000002 41.88 C 20.580000000000002 41.07, 20.535000000000004 41.205, 20.580000000000002 40.26 C 20.67 39.17999999999999, 20.474999999999998 39.19499999999999, 20.759999999999998 38.099999999999994 C 21.24 36.989999999999995, 20.895 36.870000000000005, 21.72 35.88 C 22.89 35.010000000000005, 22.935 34.695, 24.06 34.14 C 25.14 33.900000000000006, 25.259999999999998 33.78, 26.22 33.660000000000004 C 27.060000000000002 33.660000000000004, 27.42 33.660000000000004, 27.900000000000002 33.660000000000004 C 28.020000000000003 33.660000000000004, 28.080000000000002 33.660000000000004, 28.14 33.660000000000004 L 28.14 33.660000000000004" fill="none" stroke="black" stroke-width="2"></path></svg>