<svg xmlns="http://www.w3.org/2000/svg" viewBox="6.123647212982178 8.359999656677246 25.776351928710938 36.36337661743164" width="25.776351928710938" height="36.36337661743164"><path d="M 12.78 34.92 C 13.53 36.21, 13.635 36.09, 14.28 37.5 C 14.82 39.03, 15.014999999999999 39.525000000000006, 15.36 40.56 C 15.51 41.1, 15.585 41.205, 15.66 41.64 C 15.66 41.97, 15.825 41.894999999999996, 15.66 42.3 C 15.33 42.78, 15.51 42.915, 15 43.26 C 14.31 43.47, 14.325000000000001 43.575, 13.620000000000001 43.68 C 12.9 43.68, 12.825 43.68, 12.18 43.68 C 11.61 43.68, 11.565000000000001 43.695, 11.040000000000001 43.68 C 10.56 43.65, 10.575 43.83, 10.08 43.62 C 9.57 43.23, 9.555 43.364999999999995, 9.06 42.839999999999996 C 8.580000000000002 42.17999999999999, 8.475000000000001 42.059999999999995, 8.100000000000001 41.519999999999996 C 7.830000000000001 41.099999999999994, 7.770000000000001 41.129999999999995, 7.5600000000000005 40.68 C 7.41 40.2, 7.365 40.155, 7.26 39.72 C 7.199999999999999 39.33, 7.08 39.42, 7.14 38.94 C 7.32 38.37, 7.215 38.37, 7.5 37.8 C 7.89 37.230000000000004, 7.8149999999999995 37.2, 8.28 36.660000000000004 C 8.82 36.150000000000006, 8.76 36.105000000000004, 9.36 35.64 C 10.02 35.22, 10.14 35.099999999999994, 10.68 34.8 C 11.1 34.62, 11.16 34.53, 11.52 34.44 C 11.82 34.44, 11.685 34.31999999999999, 12.120000000000001 34.44 C 12.690000000000001 34.68, 12.645 34.59, 13.26 34.92 C 13.920000000000002 35.34, 13.905000000000001 35.415, 14.580000000000002 35.76 C 15.270000000000001 36.03, 15.345000000000002 36.12, 15.96 36.3 C 16.5 36.39, 16.229999999999997 36.660000000000004, 17.04 36.480000000000004 C 18.12 36.03, 18.465000000000003 36.21, 19.200000000000003 35.58 C 19.590000000000003 34.769999999999996, 19.695 34.89, 19.98 33.96 C 20.16 32.91, 20.22 32.715, 20.34 31.86 C 20.4 31.2, 20.385 31.08, 20.46 30.54 C 20.55 30.12, 20.595 29.910000000000004, 20.64 29.700000000000003 C 20.64 29.700000000000003, 20.565 29.685000000000002, 20.64 29.700000000000003 C 20.79 29.73, 20.805 29.354999999999997, 20.94 29.759999999999998 C 21.060000000000002 30.54, 21.03 30.465, 21.18 31.32 C 21.36 32.25, 21.284999999999997 32.31, 21.54 33.18 C 21.87 33.989999999999995, 21.720000000000002 34.019999999999996, 22.200000000000003 34.8 C 22.830000000000002 35.55, 22.815 35.77499999999999, 23.46 36.3 C 24.12 36.6, 23.805 36.81, 24.78 36.900000000000006 C 26.07 36.78, 26.205 37.065000000000005, 27.36 36.660000000000004 C 28.380000000000003 35.97, 28.800000000000004 35.940000000000005, 29.400000000000002 35.28 C 29.58 34.65, 29.625 34.574999999999996, 29.759999999999998 34.019999999999996 C 29.85 33.54, 29.895 33.72, 29.94 33.06 C 29.94 32.22, 30.045 32.325, 29.94 31.380000000000003 C 29.73 30.330000000000002, 29.85 30.345000000000002, 29.52 29.28 C 29.07 28.2, 29.129999999999995 28.125, 28.619999999999997 27.119999999999997 C 28.049999999999997 26.189999999999998, 28.29 26.444999999999997, 27.48 25.259999999999998 C 26.43 23.82, 26.370000000000005 23.625, 25.380000000000003 22.38 C 24.450000000000003 21.33, 24.225 21.105, 23.52 20.28 C 23.04 19.68, 22.799999999999997 19.380000000000003, 22.56 19.080000000000002 C 22.56 19.080000000000002, 22.56 19.080000000000002, 22.56 19.080000000000002 C 22.56 19.080000000000002, 22.56 19.110000000000003, 22.56 19.080000000000002 C 22.56 19.020000000000003, 22.365 18.975, 22.56 18.96 C 22.95 18.990000000000002, 22.785 18.96, 23.34 19.02 C 24.060000000000002 19.11, 23.745 19.380000000000003, 24.78 19.200000000000003 C 26.130000000000003 18.75, 26.310000000000002 18.72, 27.48 18.299999999999997 C 28.47 17.909999999999997, 28.725 18.075, 29.46 17.52 C 29.94 16.8, 30.060000000000002 16.995, 30.42 16.080000000000002 C 30.660000000000004 14.97, 30.885 15.030000000000001, 30.900000000000002 13.86 C 30.69 12.629999999999999, 30.78 12.284999999999998, 30.48 11.399999999999999 C 30.090000000000003 10.86, 30.255000000000003 10.83, 29.700000000000003 10.32 C 28.98 9.84, 29.205 9.57, 28.259999999999998 9.36 C 27.09 9.42, 27 9.285, 25.92 9.48 C 24.93 9.81, 24.735 9.765, 23.94 10.14 C 23.340000000000003 10.56, 23.220000000000002 10.605, 22.740000000000002 10.98 C 22.380000000000003 11.31, 22.2 11.475000000000001, 22.02 11.64 L 22.02 11.64" fill="none" stroke="black" stroke-width="2"></path></svg>