<svg xmlns="http://www.w3.org/2000/svg" viewBox="8.760000228881836 0.7400000095367432 23.940000534057617 42.82000136375427" width="23.940000534057617" height="42.82000136375427"><path d="M 15 1.7399999999999998 C 14.73 2.2199999999999998, 15.015 1.6500000000000004, 14.46 2.7 C 13.620000000000001 4.32, 13.62 3.9449999999999994, 12.78 5.9399999999999995 C 11.940000000000001 8.309999999999999, 11.790000000000001 8.16, 11.100000000000001 10.68 C 10.56 13.35, 10.335 13.785, 10.02 16.02 C 9.93 17.82, 9.885 17.895000000000003, 9.84 19.62 C 9.84 21.27, 9.66 21.345, 9.84 22.919999999999998 C 10.2 24.42, 10.155000000000001 24.93, 10.56 25.92 C 11.01 26.400000000000002, 10.889999999999999 26.550000000000004, 11.459999999999999 26.880000000000003 C 12.149999999999999 27.060000000000002, 12.059999999999999 27.150000000000002, 12.84 27.240000000000002 C 13.71 27.240000000000002, 13.755000000000003 27.39, 14.580000000000002 27.240000000000002 C 15.360000000000001 26.94, 15.540000000000001 27.12, 16.14 26.64 C 16.560000000000002 25.98, 16.5 26.175, 16.98 25.32 C 17.52 24.27, 17.46 24.54, 18.06 23.22 C 18.72 21.63, 18.945 21.224999999999998, 19.38 20.04 C 19.589999999999996 19.259999999999998, 19.694999999999997 18.9, 19.799999999999997 18.48 C 19.799999999999997 18.42, 19.769999999999996 18.419999999999998, 19.799999999999997 18.36 C 19.86 18.3, 19.919999999999998 18.015, 19.919999999999998 18.240000000000002 C 19.86 18.75, 19.979999999999997 18.435, 19.799999999999997 19.259999999999998 C 19.5 20.4, 19.35 20.595, 19.200000000000003 21.54 C 19.200000000000003 22.29, 19.140000000000004 22.29, 19.200000000000003 23.04 C 19.32 23.79, 19.185000000000002 23.924999999999997, 19.44 24.54 C 19.83 25.02, 19.619999999999997 24.975, 20.22 25.5 C 21.03 26.07, 20.925 26.145, 21.84 26.64 C 22.86 27.060000000000002, 22.935 27.135, 23.88 27.48 C 24.75 27.75, 24.734999999999996 27.884999999999998, 25.619999999999997 28.02 C 26.52 28.02, 26.685000000000002 28.02, 27.42 28.02 C 27.990000000000002 28.02, 27.93 28.155, 28.56 28.02 C 29.25 27.75, 29.325000000000003 27.915, 29.94 27.48 C 30.48 26.880000000000003, 30.63 27.045, 31.02 26.28 C 31.259999999999998 25.35, 31.35 25.245, 31.5 24.42 C 31.56 23.700000000000003, 31.589999999999996 23.655, 31.619999999999997 22.98 C 31.619999999999997 22.35, 31.619999999999997 22.185, 31.619999999999997 21.72 C 31.619999999999997 21.42, 31.799999999999997 21.48, 31.619999999999997 21.12 C 31.259999999999998 20.700000000000003, 31.395000000000003 20.55, 30.900000000000002 20.28 C 30.270000000000003 20.16, 30.225 20.145, 29.64 20.04 C 29.1 19.95, 29.369999999999997 19.905, 28.56 19.86 C 27.48 19.86, 27.015 19.86, 26.400000000000002 19.86 C 26.25 19.86, 26.339999999999996 19.77, 26.099999999999998 19.86 C 25.77 20.04, 25.605 20.13, 25.44 20.22 L 25.44 20.22" fill="none" stroke="black" stroke-width="2"></path><path d="M 28.259999999999998 29.22 C 28.32 30.72, 28.35 31.064999999999998, 28.380000000000003 32.22 C 28.380000000000003 33.03, 28.470000000000002 32.91, 28.380000000000003 33.839999999999996 C 28.200000000000003 34.89, 28.29 34.949999999999996, 28.02 35.94 C 27.659999999999997 36.87, 27.749999999999996 36.94499999999999, 27.299999999999997 37.8 C 26.759999999999998 38.58, 26.805 38.685, 26.22 39.36 C 25.59 39.93, 25.740000000000002 39.96, 24.96 40.5 C 24.03 41.01, 24.045 41.114999999999995, 23.1 41.519999999999996 C 22.14 41.81999999999999, 22.05 41.91, 21.18 42.12 C 20.4 42.239999999999995, 20.490000000000002 42.254999999999995, 19.62 42.36 C 18.660000000000004 42.45, 18.375000000000004 42.495, 17.700000000000003 42.54 C 17.310000000000002 42.54, 17.354999999999997 42.585, 16.919999999999998 42.54 C 16.439999999999998 42.45, 16.53 42.66, 15.96 42.36 C 15.3 41.849999999999994, 15.165000000000001 41.834999999999994, 14.64 41.339999999999996 C 14.25 40.86, 14.355 41.160000000000004, 13.86 40.38 C 13.26 39.3, 13.125 39.075, 12.66 38.22 C 12.33 37.59, 12.195 37.83, 12 36.96 C 11.94 35.85, 11.91 35.61, 11.879999999999999 34.74 C 11.879999999999999 34.11, 11.879999999999999 33.94500000000001, 11.879999999999999 33.480000000000004 C 11.879999999999999 33.18000000000001, 11.879999999999999 33.03, 11.879999999999999 32.88 L 11.879999999999999 32.88" fill="none" stroke="black" stroke-width="2"></path><path d="M 27.36 29.04 C 27.36 29.64, 27.345 29.82, 27.36 30.240000000000002 C 27.39 30.48, 27.405 30.555, 27.42 30.72 L 27.42 30.900000000000002" fill="none" stroke="black" stroke-width="2"></path></svg>