<svg xmlns="http://www.w3.org/2000/svg" viewBox="11.273333549499512 7.583456039428711 20.2911958694458 38.536542892456055" width="20.2911958694458" height="38.536542892456055"><path d="M 12.78 28.92 C 12.690000000000001 27.48, 12.675 27.15, 12.600000000000001 26.04 C 12.540000000000001 25.259999999999998, 12.555000000000001 25.305, 12.48 24.48 C 12.39 23.61, 12.344999999999999 23.64, 12.299999999999999 22.740000000000002 C 12.299999999999999 21.810000000000002, 12.239999999999998 21.675, 12.299999999999999 20.88 C 12.419999999999998 20.22, 12.284999999999998 20.174999999999997, 12.54 19.56 C 12.93 18.99, 12.96 18.869999999999997, 13.32 18.419999999999998 C 13.65 18.089999999999996, 13.530000000000001 17.985, 13.98 17.759999999999998 C 14.55 17.64, 14.595 17.58, 15.120000000000001 17.52 C 15.600000000000001 17.52, 15.195000000000002 17.52, 16.080000000000002 17.52 C 17.37 17.52, 17.4 17.52, 18.66 17.52 C 19.89 17.52, 19.785 17.55, 21.12 17.52 C 22.560000000000002 17.46, 22.965 17.445, 24 17.4 C 24.63 17.369999999999997, 24.54 17.4, 25.259999999999998 17.34 C 26.07 17.25, 26.19 17.31, 26.880000000000003 17.16 C 27.450000000000003 16.950000000000003, 27.525 16.995, 28.02 16.740000000000002 C 28.439999999999998 16.44, 28.485 16.62, 28.86 16.14 C 29.189999999999998 15.48, 29.34 15.27, 29.52 14.82 C 29.549999999999997 14.58, 29.564999999999998 14.76, 29.58 14.34 C 29.58 13.74, 29.58 13.785, 29.58 13.14 C 29.58 12.45, 29.669999999999998 12.39, 29.58 11.76 C 29.4 11.190000000000001, 29.369999999999997 11.07, 29.22 10.620000000000001 C 29.1 10.29, 29.355 10.35, 28.98 9.959999999999999 C 28.35 9.51, 28.38 9.39, 27.72 9.06 C 27.029999999999998 8.850000000000001, 27.194999999999997 8.745000000000001, 26.339999999999996 8.64 C 25.319999999999997 8.64, 25.199999999999996 8.625, 24.299999999999997 8.64 C 23.52 8.67, 23.700000000000003 8.459999999999999, 22.740000000000002 8.7 C 21.6 9.15, 21.075000000000003 9.360000000000001, 20.46 9.600000000000001 C 20.37 9.63, 20.325000000000003 9.645, 20.28 9.66 L 20.28 9.66" fill="none" stroke="black" stroke-width="2"></path><path d="M 25.44 17.16 C 26.009999999999998 17.37, 26.04 17.325000000000003, 26.58 17.580000000000002 C 27.089999999999996 17.880000000000003, 27.224999999999998 17.91, 27.599999999999998 18.18 C 27.839999999999996 18.42, 27.749999999999996 18.33, 28.08 18.66 C 28.5 19.08, 28.65 19.155, 28.92 19.5 C 29.040000000000003 19.77, 28.995000000000005 19.71, 29.160000000000004 20.04 C 29.37 20.43, 29.415 20.34, 29.58 20.82 C 29.7 21.39, 29.73 21.405, 29.82 21.96 C 29.880000000000003 22.5, 29.91 22.439999999999998, 29.94 23.04 C 29.94 23.7, 29.985000000000003 23.61, 29.94 24.36 C 29.85 25.2, 29.805 25.424999999999997, 29.759999999999998 26.04 C 29.759999999999998 26.43, 29.79 26.595, 29.759999999999998 26.82 C 29.7 26.880000000000003, 29.67 26.91, 29.64 26.94 L 29.64 26.94" fill="none" stroke="black" stroke-width="2"></path><path d="M 20.64 18.12 C 20.46 18.9, 20.415 18.165, 20.28 19.68 C 20.19 21.93, 20.040000000000003 22.259999999999998, 20.1 24.18 C 20.310000000000002 25.77, 20.25 26.235, 20.52 27.36 C 20.85 28.02, 20.49 27.884999999999998, 21.18 28.68 C 22.23 29.61, 22.245 29.805, 23.28 30.54 C 24.3 31.08, 24.195 31.169999999999998, 25.32 31.619999999999997 C 26.55 31.979999999999997, 26.895000000000003 32.06999999999999, 27.78 32.339999999999996 C 28.32 32.519999999999996, 28.29 32.400000000000006, 28.86 32.7 C 29.46 33.120000000000005, 29.729999999999997 33.285, 30.06 33.54 C 30.119999999999997 33.629999999999995, 30.105 33.644999999999996, 30.18 33.72 C 30.27 33.78, 30.27 33.72, 30.36 33.839999999999996 C 30.45 34.019999999999996, 30.63 34.02, 30.54 34.2 C 30.27 34.38, 30.375 34.410000000000004, 30 34.56 C 29.52 34.68, 29.564999999999998 34.739999999999995, 29.04 34.8 C 28.47 34.8, 28.62 34.8, 27.900000000000002 34.8 C 27.03 34.8, 27.105000000000004 34.8, 26.160000000000004 34.8 C 25.14 34.8, 25.034999999999997 34.69499999999999, 24.119999999999997 34.8 C 23.31 35.01, 23.4 34.785, 22.5 35.22 C 21.509999999999998 35.879999999999995, 21.45 35.835, 20.52 36.54 C 19.65 37.29, 19.59 37.155, 18.78 38.04 C 18.03 39.06, 17.94 39, 17.28 40.08 C 16.71 41.22, 16.485 41.295, 16.14 42.36 C 16.02 43.349999999999994, 15.959999999999999 43.69499999999999, 15.899999999999999 44.339999999999996 C 15.899999999999999 44.64, 15.899999999999999 44.745, 15.899999999999999 44.94 C 15.899999999999999 45.03, 15.899999999999999 45.074999999999996, 15.899999999999999 45.12 C 15.899999999999999 45.12, 15.899999999999999 45.12, 15.899999999999999 45.12 L 15.899999999999999 45.12" fill="none" stroke="black" stroke-width="2"></path></svg>