<svg xmlns="http://www.w3.org/2000/svg" viewBox="9.766667366027832 9.59999942779541 19.93333339691162 32.1400032043457" width="19.93333339691162" height="32.1400032043457"><path d="M 13.200000000000001 40.74 C 12.870000000000001 39.66, 12.87 39.87, 12.54 38.58 C 12.209999999999999 37.08, 12.134999999999998 37.019999999999996, 11.879999999999999 35.58 C 11.7 34.2, 11.7 34.14, 11.52 32.82 C 11.34 31.56, 11.295 31.319999999999997, 11.16 30.299999999999997 C 11.07 29.52, 11.07 29.730000000000004, 10.98 28.740000000000002 C 10.89 27.54, 10.845 27.494999999999997, 10.8 26.339999999999996 C 10.8 25.229999999999997, 10.725000000000001 25.139999999999997, 10.8 24.119999999999997 C 10.950000000000001 23.189999999999998, 10.905000000000001 23.025, 11.100000000000001 22.259999999999998 C 11.34 21.659999999999997, 11.22 21.689999999999998, 11.58 21.06 C 12.059999999999999 20.4, 11.969999999999999 20.340000000000003, 12.54 19.740000000000002 C 13.2 19.200000000000003, 13.29 19.05, 13.86 18.66 C 14.34 18.42, 14.370000000000001 18.345, 14.82 18.18 C 15.24 18.09, 15.015 18.165, 15.66 18 C 16.53 17.759999999999998, 16.47 17.73, 17.4 17.52 C 18.39 17.34, 18.555 17.25, 19.38 17.16 C 20.04 17.16, 19.995 17.16, 20.700000000000003 17.16 C 21.450000000000003 17.16, 21.525000000000006 17.205, 22.200000000000003 17.16 C 22.8 17.07, 22.86 17.07, 23.4 16.98 C 23.88 16.89, 23.97 16.845, 24.36 16.799999999999997 C 24.66 16.799999999999997, 24.645000000000003 16.874999999999996, 24.96 16.799999999999997 C 25.29 16.65, 25.229999999999997 16.799999999999997, 25.619999999999997 16.5 C 26.07 16.05, 26.16 16.11, 26.52 15.600000000000001 C 26.79 15.030000000000001, 26.88 15.015, 27.06 14.46 C 27.15 13.92, 27.195 13.799999999999999, 27.240000000000002 13.379999999999999 C 27.240000000000002 13.079999999999998, 27.255000000000003 13.094999999999999, 27.240000000000002 12.78 C 27.21 12.45, 27.405 12.495000000000001, 27.18 12.120000000000001 C 26.759999999999998 11.7, 26.759999999999998 11.61, 26.339999999999996 11.28 C 25.919999999999998 11.04, 25.905 10.965, 25.5 10.8 C 25.11 10.71, 25.259999999999998 10.665000000000001, 24.72 10.620000000000001 C 24.03 10.620000000000001, 23.955 10.620000000000001, 23.34 10.620000000000001 C 22.799999999999997 10.620000000000001, 22.799999999999997 10.575000000000001, 22.259999999999998 10.620000000000001 C 21.72 10.71, 21.645 10.65, 21.18 10.8 C 20.79 11.010000000000002, 20.64 11.085, 20.4 11.22 L 20.22 11.34" fill="none" stroke="black" stroke-width="2"></path><path d="M 22.14 17.46 C 22.62 17.55, 22.695 17.505000000000003, 23.1 17.64 C 23.43 17.82, 23.265 17.595, 23.759999999999998 18 C 24.419999999999998 18.63, 24.54 18.525, 25.08 19.259999999999998 C 25.5 20.1, 25.635 20.22, 25.92 20.94 C 26.07 21.54, 26.009999999999998 21.45, 26.22 22.14 C 26.49 22.92, 26.61 22.875000000000004, 26.759999999999998 23.700000000000003 C 26.79 24.57, 26.88 24.540000000000003, 26.82 25.44 C 26.67 26.369999999999997, 26.895 26.4, 26.52 27.299999999999997 C 25.92 28.169999999999998, 25.92 28.305, 25.32 29.04 C 24.72 29.64, 24.674999999999997 29.715000000000003, 24.119999999999997 30.240000000000002 C 23.61 30.69, 23.52 30.78, 23.1 31.14 C 22.770000000000003 31.41, 22.725 31.5, 22.44 31.68 C 22.200000000000003 31.77, 22.080000000000002 31.814999999999998, 21.96 31.86 C 21.96 31.86, 21.96 31.86, 21.96 31.86 C 21.96 31.86, 21.945 31.86, 21.96 31.86 C 21.990000000000002 31.86, 21.405 31.92, 22.02 31.86 C 23.22 31.74, 23.475 31.68, 24.42 31.619999999999997 C 25.11 31.619999999999997, 25.259999999999998 31.619999999999997, 25.799999999999997 31.619999999999997 C 26.189999999999998 31.619999999999997, 26.13 31.394999999999996, 26.58 31.619999999999997 C 27.089999999999996 32.06999999999999, 27.104999999999997 31.964999999999996, 27.599999999999998 32.519999999999996 C 28.08 33.17999999999999, 28.29 33.315, 28.56 33.839999999999996 C 28.619999999999997 34.23, 28.65 34.23, 28.68 34.62 C 28.68 35.010000000000005, 28.725 34.965, 28.68 35.400000000000006 C 28.59 35.88, 28.695 35.94, 28.5 36.36 C 28.200000000000003 36.72, 28.290000000000003 36.78, 27.900000000000002 37.08 C 27.42 37.32, 27.48 37.32, 26.94 37.56 C 26.340000000000003 37.8, 26.490000000000002 37.815, 25.740000000000002 38.04 C 24.840000000000003 38.25, 24.465000000000003 38.31, 23.94 38.46 C 23.79 38.55, 23.76 38.595, 23.64 38.64 C 23.55 38.64, 23.625 38.64, 23.46 38.64 L 22.98 38.64" fill="none" stroke="black" stroke-width="2"></path></svg>