<svg xmlns="http://www.w3.org/2000/svg" viewBox="11.960000038146973 5.199999809265137 22.100001335144043 40.75999927520752" width="22.100001335144043" height="40.75999927520752"><path d="M 12.96 29.339999999999996 C 14.49 29.339999999999996, 14.325 29.339999999999996, 16.02 29.339999999999996 C 17.880000000000003 29.339999999999996, 18.39 29.399999999999995, 19.740000000000002 29.339999999999996 C 20.58 29.22, 20.655 29.235, 21.419999999999998 29.099999999999998 C 22.11 28.949999999999996, 22.259999999999998 29.009999999999998, 22.799999999999997 28.799999999999997 C 23.189999999999998 28.529999999999998, 23.205000000000002 28.68, 23.580000000000002 28.259999999999998 C 23.939999999999998 27.689999999999998, 24.119999999999997 27.974999999999998, 24.299999999999997 27.119999999999997 C 24.299999999999997 25.979999999999997, 24.345 26.144999999999996, 24.299999999999997 24.839999999999996 C 24.209999999999997 23.369999999999997, 24.194999999999997 22.784999999999997, 24.119999999999997 21.9 C 24.06 21.599999999999998, 24.03 21.449999999999996, 24 21.299999999999997 C 24 21.299999999999997, 23.97 21.239999999999995, 24 21.299999999999997 C 24.06 21.419999999999998, 23.849999999999998 21.075, 24.119999999999997 21.54 C 24.599999999999998 22.35, 24.615 22.244999999999997, 25.08 23.16 C 25.53 24.18, 25.560000000000002 24.39, 25.98 25.200000000000003 C 26.369999999999997 25.800000000000004, 26.31 25.860000000000003, 26.759999999999998 26.400000000000002 C 27.27 26.880000000000003, 27.18 27.015, 27.78 27.36 C 28.470000000000002 27.57, 28.500000000000004 27.720000000000002, 29.160000000000004 27.78 C 29.790000000000003 27.689999999999998, 29.880000000000003 27.854999999999997, 30.42 27.599999999999998 C 30.87 27.18, 30.884999999999998 27.345, 31.32 26.759999999999998 C 31.740000000000002 26.009999999999998, 31.860000000000007 26.129999999999995, 32.160000000000004 25.259999999999998 C 32.34 24.27, 32.504999999999995 24.105, 32.519999999999996 23.28 C 32.37 22.62, 32.595 22.755000000000003, 32.22 21.96 C 31.619999999999997 21.03, 31.784999999999997 21.150000000000002, 31.02 20.1 C 30.090000000000003 18.93, 30.015000000000004 18.75, 29.160000000000004 17.759999999999998 C 28.380000000000003 16.95, 28.424999999999997 16.8, 27.599999999999998 16.14 C 26.729999999999997 15.63, 26.865 15.63, 25.86 15.120000000000001 C 24.72 14.610000000000001, 24.36 14.415000000000003, 23.580000000000002 14.100000000000001 C 23.160000000000004 13.98, 22.950000000000003 13.92, 22.740000000000002 13.86 C 22.740000000000002 13.86, 22.755000000000003 13.875, 22.740000000000002 13.86 C 22.71 13.829999999999998, 22.455 13.815, 22.68 13.799999999999999 C 23.16 13.799999999999999, 23.025 13.754999999999999, 23.64 13.799999999999999 C 24.39 13.89, 24.435000000000002 13.935, 25.14 13.98 C 25.8 13.98, 25.875 14.115, 26.46 13.98 C 26.97 13.71, 27 13.815000000000001, 27.48 13.440000000000001 C 27.93 12.96, 28.020000000000003 13.125, 28.380000000000003 12.48 C 28.650000000000002 11.67, 28.785000000000004 11.549999999999999, 28.92 10.86 C 28.92 10.29, 28.92 10.350000000000001, 28.92 9.72 C 28.92 9.030000000000001, 29.01 8.879999999999999, 28.92 8.34 C 28.740000000000002 7.95, 29.055 7.995, 28.56 7.5600000000000005 C 27.75 7.08, 27.855 6.930000000000001, 26.94 6.6000000000000005 C 25.92 6.42, 25.800000000000004 6.33, 24.900000000000002 6.24 C 24.12 6.24, 24.045 6.15, 23.34 6.24 C 22.71 6.42, 22.395000000000003 6.510000000000001, 22.080000000000002 6.6000000000000005 C 22.080000000000002 6.6000000000000005, 22.080000000000002 6.6000000000000005, 22.080000000000002 6.6000000000000005 L 22.080000000000002 6.6000000000000005" fill="none" stroke="black" stroke-width="2"></path><path d="M 21.36 29.339999999999996 C 21.36 30.27, 21.36 29.685000000000002, 21.36 31.200000000000003 C 21.36 33.300000000000004, 21.36 33.915000000000006, 21.36 35.400000000000006 C 21.36 36.27, 21.36 36.135000000000005, 21.36 37.14 C 21.36 38.28, 21.314999999999998 38.400000000000006, 21.36 39.42 C 21.45 40.32, 21.45 40.394999999999996, 21.54 41.22 C 21.63 41.97, 21.584999999999997 42.105, 21.72 42.72 C 21.9 43.2, 21.96 43.364999999999995, 22.080000000000002 43.68 C 22.14 43.83, 21.990000000000002 43.74, 22.200000000000003 43.980000000000004 C 22.560000000000002 44.31, 22.619999999999997 44.400000000000006, 22.919999999999998 44.64 C 23.159999999999997 44.79, 23.205 44.864999999999995, 23.4 44.94 C 23.55 44.94, 23.625 44.94, 23.700000000000003 44.94 C 23.700000000000003 44.94, 23.640000000000004 44.985, 23.700000000000003 44.94 C 23.82 44.849999999999994, 23.865000000000002 45, 23.94 44.76 C 23.97 44.370000000000005, 23.895 44.46000000000001, 24 43.980000000000004 C 24.18 43.41, 24.15 43.515, 24.36 42.839999999999996 C 24.599999999999998 42.06, 24.569999999999997 42.03, 24.839999999999996 41.28 C 25.14 40.56, 24.93 40.65, 25.44 39.839999999999996 C 26.160000000000004 38.94, 26.040000000000003 38.79, 26.880000000000003 38.04 C 27.84 37.44, 27.75 37.31999999999999, 28.799999999999997 36.839999999999996 C 29.939999999999998 36.48, 30.134999999999998 36.3, 31.08 36.12 C 31.83 36.12, 32.084999999999994 36.12, 32.58 36.12 C 32.82 36.12, 32.94 36.12, 33.06 36.12 L 33.06 36.12" fill="none" stroke="black" stroke-width="2"></path></svg>