<svg xmlns="http://www.w3.org/2000/svg" viewBox="13.579999923706055 3.5 19.219999313354492 41.29999923706055" width="19.219999313354492" height="41.29999923706055"><path d="M 14.580000000000002 5.64 C 15.150000000000002 5.58, 14.82 5.7, 15.72 5.5200000000000005 C 16.95 5.220000000000001, 17.01 5.1, 18.18 4.92 C 19.29 4.86, 19.349999999999998 4.83, 20.4 4.800000000000001 C 21.39 4.800000000000001, 21.525 4.800000000000001, 22.38 4.800000000000001 C 23.1 4.800000000000001, 22.830000000000002 4.800000000000001, 23.82 4.800000000000001 C 25.08 4.800000000000001, 25.139999999999997 4.755000000000001, 26.339999999999996 4.800000000000001 C 27.479999999999997 4.890000000000001, 27.479999999999997 4.89, 28.619999999999997 4.9799999999999995 C 29.759999999999998 5.07, 30.150000000000002 5.115, 30.900000000000002 5.16 C 31.259999999999998 5.16, 31.395 5.16, 31.619999999999997 5.16 C 31.709999999999997 5.16, 31.754999999999995 5.16, 31.799999999999997 5.16 L 31.799999999999997 5.16" fill="none" stroke="black" stroke-width="2"></path><path d="M 20.700000000000003 4.5 C 20.19 5.22, 20.175 5.1, 19.68 5.9399999999999995 C 19.2 6.9, 19.244999999999997 6.8100000000000005, 18.72 7.86 C 18.15 9, 18.03 8.97, 17.580000000000002 10.14 C 17.25 11.34, 17.205 11.655, 16.919999999999998 12.54 C 16.68 13.11, 16.695 12.96, 16.44 13.68 C 16.17 14.549999999999999, 16.125 14.624999999999998, 15.899999999999999 15.419999999999998 C 15.719999999999999 16.14, 15.629999999999999 16.38, 15.54 16.86 C 15.54 17.1, 15.45 17.115000000000002, 15.54 17.34 C 15.719999999999999 17.549999999999997, 15.689999999999998 17.595, 15.899999999999999 17.759999999999998 C 16.14 17.88, 16.02 17.835, 16.38 18 C 16.86 18.21, 16.71 18.269999999999996, 17.34 18.419999999999998 C 18.119999999999997 18.509999999999998, 18.119999999999997 18.555, 18.9 18.6 C 19.68 18.6, 19.395 18.6, 20.46 18.6 C 21.810000000000002 18.6, 21.765 18.615000000000002, 23.16 18.6 C 24.6 18.57, 24.884999999999998 18.6, 26.04 18.54 C 26.91 18.45, 26.865000000000002 18.45, 27.78 18.36 C 28.740000000000002 18.27, 29.145000000000003 18.225, 29.700000000000003 18.18 C 29.85 18.18, 29.895000000000003 18.18, 30 18.18 C 30.06 18.18, 29.999999999999996 18.225, 30.119999999999997 18.18 C 30.299999999999997 18.09, 30.39 18.045, 30.48 18 L 30.48 18" fill="none" stroke="black" stroke-width="2"></path><path d="M 25.740000000000002 19.62 C 25.830000000000002 20.55, 25.875 20.43, 25.92 21.48 C 25.92 22.65, 25.92 22.71, 25.92 23.82 C 25.92 24.87, 25.92 24.885, 25.92 25.92 C 25.92 26.94, 25.92 26.910000000000004, 25.92 27.96 C 25.92 29.04, 25.935000000000002 28.964999999999996, 25.92 30.119999999999997 C 25.89 31.349999999999998, 25.905 31.739999999999995, 25.86 32.58 C 25.8 33.03, 25.86 32.88, 25.740000000000002 33.480000000000004 C 25.560000000000002 34.230000000000004, 25.590000000000003 34.32000000000001, 25.380000000000003 34.980000000000004 C 25.14 35.55, 25.275000000000002 35.37, 24.900000000000002 36.12 C 24.39 37.05, 24.27 37.335, 23.88 37.980000000000004 C 23.61 38.34, 23.685 38.23500000000001, 23.34 38.7 C 22.92 39.269999999999996, 23.04 39.18, 22.5 39.839999999999996 C 21.84 40.589999999999996, 21.855 40.63499999999999, 21.18 41.339999999999996 C 20.49 42, 20.309999999999995 42.225, 19.799999999999997 42.660000000000004 C 19.47 42.870000000000005, 19.59 42.855, 19.14 43.08 C 18.57 43.32, 18.36 43.395, 18 43.56 C 17.85 43.650000000000006, 17.820000000000004 43.68000000000001, 17.700000000000003 43.74 C 17.61 43.769999999999996, 17.565 43.785, 17.52 43.8 C 17.52 43.8, 17.595 43.8, 17.52 43.8 L 17.22 43.8" fill="none" stroke="black" stroke-width="2"></path></svg>