<svg xmlns="http://www.w3.org/2000/svg" viewBox="7.7866668701171875 8.353333473205566 23.933332443237305 34.82666778564453" width="23.933332443237305" height="34.82666778564453"><path d="M 17.580000000000002 41.28 C 17.55 41.31, 17.91 41.324999999999996, 17.52 41.339999999999996 C 16.77 41.339999999999996, 16.935 41.324999999999996, 16.02 41.339999999999996 C 14.94 41.370000000000005, 14.745 41.295, 13.86 41.400000000000006 C 13.17 41.58, 12.870000000000001 41.655, 12.48 41.76 C 12.39 41.79, 12.495 41.805, 12.299999999999999 41.82 C 12 41.82, 12.12 41.82, 11.7 41.82 C 11.16 41.82, 11.13 41.775, 10.620000000000001 41.82 C 10.14 41.91, 9.975000000000001 41.955, 9.66 42 C 9.51 42, 9.434999999999999 42, 9.36 42 C 9.36 42, 9.36 42, 9.36 42 C 9.36 42, 9.36 42, 9.36 42 C 9.36 42, 9.434999999999999 42.045, 9.36 42 C 9.21 41.91, 9.195 42.375, 9.06 41.82 C 8.940000000000001 40.8, 8.88 40.725, 8.82 39.78 C 8.82 38.91, 8.82 38.985, 8.82 38.04 C 8.82 37.019999999999996, 8.82 37.515, 8.82 36 C 8.82 33.99, 8.82 33.45, 8.82 31.98 C 8.82 31.049999999999997, 8.745000000000001 31.529999999999998, 8.82 30.119999999999997 C 8.97 28.229999999999997, 8.850000000000001 28.424999999999997, 9.120000000000001 26.339999999999996 C 9.51 24.06, 9.629999999999999 24.105, 9.899999999999999 21.78 C 10.049999999999999 19.41, 10.02 18.72, 10.2 17.04 C 10.41 16.049999999999997, 10.350000000000001 16.139999999999997, 10.620000000000001 15.059999999999999 C 10.95 13.89, 10.95 13.665000000000001, 11.28 12.72 C 11.61 12, 11.549999999999999 11.94, 11.94 11.28 C 12.39 10.68, 12.48 10.5, 12.84 10.08 C 13.11 9.84, 13.049999999999999 9.780000000000001, 13.379999999999999 9.600000000000001 C 13.77 9.48, 13.77 9.42, 14.16 9.36 C 14.55 9.36, 14.55 9.344999999999999, 14.940000000000001 9.36 C 15.330000000000002 9.39, 15.315000000000001 9.315, 15.72 9.42 C 16.14 9.6, 16.185 9.54, 16.56 9.78 C 16.89 10.079999999999998, 16.904999999999998 9.989999999999998, 17.22 10.379999999999999 C 17.52 10.86, 17.505 10.605, 17.82 11.34 C 18.15 12.33, 18.18 12.345, 18.48 13.32 C 18.75 14.280000000000001, 18.869999999999997 14.43, 19.02 15.24 C 19.05 15.899999999999999, 19.065 15.69, 19.080000000000002 16.56 C 19.080000000000002 17.64, 19.080000000000002 17.339999999999996, 19.080000000000002 18.72 C 19.080000000000002 20.4, 19.095000000000002 20.625, 19.080000000000002 22.080000000000002 C 19.05 23.310000000000002, 19.035 23.64, 19.02 24.54 C 19.02 25.11, 18.96 24.990000000000002, 19.02 25.68 C 19.14 26.49, 19.154999999999998 26.864999999999995, 19.259999999999998 27.299999999999997 C 19.35 27.36, 19.275000000000002 27.27, 19.44 27.42 C 19.68 27.660000000000004, 19.604999999999997 27.78, 19.919999999999998 27.900000000000002 C 20.310000000000002 27.900000000000002, 20.355000000000004 27.915000000000003, 20.700000000000003 27.900000000000002 C 21 27.869999999999997, 20.714999999999996 27.854999999999997, 21.299999999999997 27.839999999999996 C 22.169999999999998 27.839999999999996, 22.005 27.839999999999996, 23.04 27.839999999999996 C 24.240000000000002 27.839999999999996, 24.450000000000003 27.794999999999995, 25.44 27.839999999999996 C 26.22 27.93, 26.34 27.869999999999997, 27 28.02 C 27.54 28.23, 27.464999999999996 27.990000000000002, 28.08 28.44 C 28.77 29.130000000000003, 28.965 29.16, 29.46 29.82 C 29.759999999999998 30.45, 29.835 30.18, 30.06 31.08 C 30.21 32.25, 30.24 32.49, 30.36 33.42 C 30.45 34.11, 30.54 33.75, 30.54 34.8 C 30.45 36.209999999999994, 30.45 36.375, 30.36 37.62 C 30.27 38.7, 30.314999999999998 38.745000000000005, 30.18 39.78 C 30 40.769999999999996, 29.91 41.205, 29.82 41.76 C 29.82 41.879999999999995, 29.82 41.94, 29.82 42 C 29.82 42, 29.865000000000002 41.955, 29.82 42 L 29.64 42.18" fill="none" stroke="black" stroke-width="2"></path><path d="M 18.78 18.84 C 19.32 18.869999999999997, 19.305 18.884999999999998, 19.86 18.9 C 20.43 18.9, 20.16 18.9, 21 18.9 C 22.11 18.9, 22.08 18.959999999999997, 23.22 18.9 C 24.39 18.78, 24.389999999999997 18.765, 25.56 18.66 C 26.73 18.57, 26.985000000000003 18.525, 27.900000000000002 18.48 C 28.560000000000002 18.48, 28.59 18.465, 29.22 18.48 C 29.82 18.509999999999998, 30.045 18.525, 30.42 18.54 C 30.57 18.54, 30.645 18.54, 30.72 18.54 L 30.72 18.54" fill="none" stroke="black" stroke-width="2"></path></svg>