<svg xmlns="http://www.w3.org/2000/svg" viewBox="9.260000228881836 3.119999885559082 24.57999897003174 42.03999996185303" width="24.57999897003174" height="42.03999996185303"><path d="M 13.440000000000001 4.14 C 13.830000000000002 4.14, 13.5 4.095, 14.22 4.14 C 15.27 4.23, 14.895000000000001 4.2, 16.32 4.32 C 18.119999999999997 4.470000000000001, 17.97 4.515000000000001, 19.919999999999998 4.62 C 22.019999999999996 4.68, 22.439999999999998 4.71, 24.119999999999997 4.74 C 25.38 4.74, 25.47 4.74, 26.64 4.74 C 27.72 4.74, 27.839999999999996 4.74, 28.799999999999997 4.74 C 29.64 4.74, 29.91 4.74, 30.48 4.74 C 30.78 4.74, 30.764999999999997 4.74, 31.08 4.74 C 31.41 4.74, 31.47 4.725, 31.740000000000002 4.74 C 31.950000000000003 4.7700000000000005, 31.890000000000004 4.7700000000000005, 32.160000000000004 4.800000000000001 C 32.49 4.83, 32.655 4.845000000000001, 32.82 4.86 L 32.82 4.86" fill="none" stroke="black" stroke-width="2"></path><path d="M 11.879999999999999 22.259999999999998 C 11.879999999999999 21.089999999999996, 11.834999999999999 21.15, 11.879999999999999 19.919999999999998 C 11.969999999999999 18.63, 11.999999999999998 18.465, 12.059999999999999 17.34 C 12.09 16.38, 12.075000000000001 16.169999999999998, 12.120000000000001 15.419999999999998 C 12.18 14.879999999999999, 12.135000000000002 14.834999999999999, 12.24 14.34 C 12.39 13.89, 12.329999999999998 13.905000000000001, 12.54 13.440000000000001 C 12.81 12.96, 12.780000000000001 12.93, 13.080000000000002 12.48 C 13.41 12.06, 13.245000000000001 12, 13.74 11.64 C 14.399999999999999 11.34, 14.174999999999999 11.235000000000001, 15.059999999999999 11.040000000000001 C 16.17 10.95, 16.065 10.905, 17.28 10.86 C 18.6 10.86, 18.735 10.844999999999999, 19.919999999999998 10.86 C 20.97 10.89, 20.805 10.86, 22.02 10.92 C 23.4 11.010000000000002, 23.535 11.055000000000001, 24.78 11.100000000000001 C 25.89 11.100000000000001, 26.055 11.055000000000001, 27 11.100000000000001 C 27.78 11.190000000000001, 27.975 11.235, 28.56 11.28 C 28.949999999999996 11.28, 28.844999999999995 11.219999999999999, 29.339999999999996 11.28 C 29.939999999999998 11.399999999999999, 30.06 11.399999999999999, 30.54 11.52 C 30.9 11.64, 30.959999999999997 11.684999999999999, 31.259999999999998 11.76 C 31.5 11.79, 31.53 11.73, 31.740000000000002 11.82 C 31.919999999999998 11.97, 31.934999999999995 11.970000000000002, 32.099999999999994 12.120000000000001 C 32.25 12.27, 32.220000000000006 11.999999999999998, 32.400000000000006 12.419999999999998 C 32.61 13.11, 32.715 12.735, 32.82 13.799999999999999 C 32.82 15.239999999999998, 32.82 15.405, 32.82 16.68 C 32.82 17.79, 32.865 17.88, 32.82 18.9 C 32.730000000000004 19.83, 32.775 19.74, 32.64 20.759999999999998 C 32.46 21.869999999999997, 32.370000000000005 22.35, 32.28 22.98 C 32.28 23.130000000000003, 32.31 23.16, 32.28 23.28 L 32.160000000000004 23.46" fill="none" stroke="black" stroke-width="2"></path><path d="M 22.740000000000002 10.5 C 22.740000000000002 11.34, 22.740000000000002 11.295, 22.740000000000002 12.18 C 22.740000000000002 13.11, 22.740000000000002 12.899999999999999, 22.740000000000002 14.04 C 22.740000000000002 15.39, 22.740000000000002 15.360000000000003, 22.740000000000002 16.740000000000002 C 22.740000000000002 18.15, 22.740000000000002 18.345, 22.740000000000002 19.56 C 22.740000000000002 20.58, 22.860000000000003 20.475, 22.740000000000002 21.6 C 22.5 22.83, 22.529999999999998 22.784999999999997, 22.259999999999998 24.06 C 21.96 25.380000000000003, 22.02 25.485000000000003, 21.66 26.700000000000003 C 21.240000000000002 27.810000000000002, 21.3 27.765, 20.82 28.92 C 20.28 30.12, 20.205000000000002 30.315, 19.740000000000002 31.32 C 19.35 32.129999999999995, 19.395000000000003 32.055, 18.96 32.94 C 18.48 33.9, 18.465 33.87, 18 34.86 C 17.55 35.88, 17.625 35.910000000000004, 17.1 36.900000000000006 C 16.5 37.86, 16.365 38.040000000000006, 15.899999999999999 38.82 C 15.57 39.42, 15.69 39.36, 15.24 40.019999999999996 C 14.670000000000002 40.739999999999995, 14.760000000000002 40.739999999999995, 14.100000000000001 41.46 C 13.350000000000001 42.18000000000001, 13.305000000000001 42.300000000000004, 12.600000000000001 42.900000000000006 C 11.940000000000001 43.38, 11.684999999999999 43.59, 11.28 43.86 C 11.129999999999999 43.92, 11.055 43.95, 10.98 43.980000000000004 C 10.98 43.980000000000004, 11.115 43.935, 10.98 43.980000000000004 C 10.71 44.07000000000001, 10.62 44.115, 10.44 44.160000000000004 L 10.26 44.160000000000004" fill="none" stroke="black" stroke-width="2"></path><path d="M 16.44 39.599999999999994 C 16.770000000000003 39.599999999999994, 16.515 39.599999999999994, 17.1 39.599999999999994 C 17.94 39.599999999999994, 17.46 39.82499999999999, 18.78 39.599999999999994 C 20.58 39.15, 20.744999999999997 39.045, 22.38 38.7 C 23.85 38.46, 24.09 38.34, 25.32 38.22 C 26.31 38.22, 26.49 38.22, 27.299999999999997 38.22 C 27.93 38.22, 28.019999999999996 38.22, 28.56 38.22 C 29.009999999999998 38.22, 29.16 38.205, 29.46 38.22 L 29.759999999999998 38.28" fill="none" stroke="black" stroke-width="2"></path></svg>