<svg xmlns="http://www.w3.org/2000/svg" viewBox="12.739999771118164 6.079999923706055 21.823762893676758 36.733336448669434" width="21.823762893676758" height="36.733336448669434"><path d="M 13.74 7.14 C 14.46 7.14, 14.1 7.14, 15.18 7.14 C 16.619999999999997 7.14, 16.259999999999998 7.154999999999999, 18.06 7.14 C 20.22 7.109999999999999, 20.775 7.095, 22.38 7.08 C 23.43 7.08, 23.310000000000002 7.08, 24.48 7.08 C 25.77 7.08, 25.98 7.08, 27.06 7.08 C 27.93 7.08, 27.899999999999995 7.08, 28.799999999999997 7.08 C 29.73 7.08, 29.970000000000002 7.08, 30.660000000000004 7.08 C 31.11 7.08, 31.17 7.08, 31.56 7.08 C 31.89 7.08, 31.95 7.08, 32.22 7.08 C 32.43 7.08, 32.49 7.08, 32.64 7.08 C 32.730000000000004 7.08, 32.655 7.08, 32.82 7.08 C 33.06 7.08, 33.18 7.08, 33.3 7.08 L 33.3 7.08" fill="none" stroke="black" stroke-width="2"></path><path d="M 14.52 12.96 C 16.65 13.17, 16.650000000000002 13.274999999999999, 18.78 13.379999999999999 C 20.91 13.379999999999999, 21.15 13.379999999999999, 23.04 13.379999999999999 C 24.689999999999998 13.379999999999999, 24.824999999999996 13.379999999999999, 26.339999999999996 13.379999999999999 C 27.72 13.379999999999999, 27.974999999999998 13.334999999999999, 29.099999999999998 13.379999999999999 C 29.97 13.469999999999999, 30.284999999999997 13.485, 30.839999999999996 13.559999999999999 C 31.08 13.62, 31.08 13.59, 31.32 13.68 C 31.56 13.799999999999999, 31.529999999999994 13.709999999999997, 31.799999999999997 13.919999999999998 C 32.1 14.219999999999999, 32.11500000000001 14.084999999999999, 32.400000000000006 14.52 C 32.67 15.09, 32.655 15.015, 32.94 15.66 C 33.239999999999995 16.380000000000003, 33.39 16.44, 33.54 17.1 C 33.54 17.7, 33.555 16.949999999999996, 33.54 18.299999999999997 C 33.510000000000005 20.4, 33.645 20.384999999999998, 33.480000000000004 22.5 C 33.18000000000001 24.63, 33.075 24.93, 32.88 26.759999999999998 C 32.790000000000006 28.29, 32.790000000000006 28.62, 32.7 29.82 C 32.61 30.689999999999998, 32.654999999999994 30.585, 32.519999999999996 31.56 C 32.34 32.64, 32.295 32.79, 32.160000000000004 33.72 C 32.07 34.5, 32.055 34.65, 31.98 35.28 C 31.92 35.760000000000005, 31.965 35.80500000000001, 31.86 36.24 C 31.71 36.629999999999995, 31.724999999999998 36.53999999999999, 31.56 37.019999999999996 C 31.380000000000003 37.59, 31.395000000000003 37.635000000000005, 31.200000000000003 38.160000000000004 C 30.990000000000002 38.64, 30.945 38.714999999999996, 30.78 39.12 C 30.66 39.45, 30.735 39.45, 30.54 39.78 C 30.27 40.11, 30.255 40.155, 30 40.44 C 29.759999999999998 40.68, 29.924999999999997 40.650000000000006, 29.52 40.92 C 28.950000000000003 41.22, 28.905 41.324999999999996, 28.380000000000003 41.519999999999996 C 27.900000000000002 41.61, 27.96 41.655, 27.42 41.7 C 26.82 41.7, 26.595 41.7, 26.22 41.7 C 26.07 41.7, 26.025000000000002 41.7, 25.92 41.7 C 25.86 41.7, 26.025 41.955000000000005, 25.799999999999997 41.7 C 25.409999999999997 41.19, 25.335 41.504999999999995, 25.02 40.68 C 24.78 39.540000000000006, 24.81 39.525000000000006, 24.54 38.400000000000006 C 24.240000000000002 37.290000000000006, 24.135 37.155, 23.94 36.18 C 23.85 35.34, 23.79 35.58, 23.759999999999998 34.5 C 23.79 33.18, 23.775 32.985, 23.82 31.86 C 23.880000000000003 30.93, 23.82 30.869999999999997, 23.94 30 C 24.119999999999997 29.19, 24.209999999999997 28.815000000000005, 24.299999999999997 28.380000000000003 C 24.299999999999997 28.32, 24.299999999999997 28.29, 24.299999999999997 28.259999999999998 C 24.299999999999997 28.259999999999998, 24.299999999999997 28.259999999999998, 24.299999999999997 28.259999999999998 L 24.299999999999997 28.259999999999998" fill="none" stroke="black" stroke-width="2"></path></svg>