<svg xmlns="http://www.w3.org/2000/svg" viewBox="14.539999961853027 6.440000057220459 22.04000186920166 40.15999937057495" width="22.04000186920166" height="40.15999937057495"><path d="M 15.54 8.399999999999999 C 16.41 8.399999999999999, 16.05 8.549999999999997, 17.28 8.399999999999999 C 18.87 8.1, 18.945 7.995, 20.46 7.800000000000001 C 21.9 7.710000000000001, 21.945 7.710000000000001, 23.34 7.62 C 24.689999999999998 7.529999999999999, 25.035 7.484999999999999, 26.04 7.4399999999999995 C 26.7 7.4399999999999995, 26.549999999999997 7.4399999999999995, 27.36 7.4399999999999995 C 28.32 7.4399999999999995, 28.545 7.4399999999999995, 29.28 7.4399999999999995 C 29.79 7.4399999999999995, 29.624999999999996 7.4399999999999995, 30.299999999999997 7.4399999999999995 C 31.14 7.4399999999999995, 31.335 7.4399999999999995, 31.98 7.4399999999999995 C 32.43 7.4399999999999995, 32.370000000000005 7.4399999999999995, 32.88 7.4399999999999995 C 33.45 7.4399999999999995, 33.735 7.4399999999999995, 34.019999999999996 7.4399999999999995 L 34.019999999999996 7.4399999999999995" fill="none" stroke="black" stroke-width="2"></path><path d="M 17.16 14.879999999999999 C 18.27 14.879999999999999, 17.985 14.879999999999999, 19.38 14.879999999999999 C 21.060000000000002 14.879999999999999, 21.12 14.879999999999999, 22.740000000000002 14.879999999999999 C 24.3 14.879999999999999, 24.45 14.879999999999999, 25.86 14.879999999999999 C 27.12 14.879999999999999, 27.39 14.924999999999999, 28.380000000000003 14.879999999999999 C 29.1 14.79, 28.995 14.745000000000001, 29.82 14.700000000000001 C 30.75 14.700000000000001, 30.915 14.700000000000001, 31.68 14.700000000000001 C 32.28 14.700000000000001, 32.415000000000006 14.670000000000002, 32.88 14.700000000000001 C 33.21 14.760000000000002, 33.18 14.670000000000002, 33.54 14.82 C 33.93 15.059999999999999, 33.99 15.075, 34.32 15.299999999999999 C 34.59 15.51, 34.605000000000004 15.405000000000001, 34.86 15.72 C 35.099999999999994 16.14, 35.16 16.035, 35.339999999999996 16.56 C 35.459999999999994 17.189999999999998, 35.519999999999996 17.01, 35.58 17.82 C 35.58 18.81, 35.58 18.974999999999998, 35.58 19.799999999999997 C 35.58 20.46, 35.58 20.325, 35.58 21.12 C 35.58 22.05, 35.58 22.065, 35.58 22.98 C 35.58 23.880000000000003, 35.58 24.135, 35.58 24.78 C 35.58 25.17, 35.58 25.259999999999998, 35.58 25.56 C 35.58 25.77, 35.58 25.785, 35.58 25.98 C 35.58 26.159999999999997, 35.58 26.249999999999996, 35.58 26.339999999999996 C 35.58 26.339999999999996, 35.58 26.339999999999996, 35.58 26.339999999999996 L 35.58 26.339999999999996" fill="none" stroke="black" stroke-width="2"></path><path d="M 25.259999999999998 15.299999999999999 C 25.2 17.7, 25.2 17.67, 25.14 20.1 C 25.08 22.560000000000002, 25.05 23.085, 25.02 25.02 C 25.02 26.43, 25.065 26.429999999999996, 25.02 27.839999999999996 C 24.93 29.25, 24.884999999999998 29.115000000000002, 24.839999999999996 30.660000000000004 C 24.839999999999996 32.34, 24.884999999999994 32.37, 24.839999999999996 34.019999999999996 C 24.75 35.64, 24.705000000000002 35.879999999999995, 24.660000000000004 37.26 C 24.660000000000004 38.4, 24.660000000000004 38.31, 24.660000000000004 39.54 C 24.660000000000004 40.86, 24.660000000000004 41.19, 24.660000000000004 42.18 C 24.660000000000004 42.84, 24.660000000000004 42.915, 24.660000000000004 43.5 C 24.660000000000004 44.01, 24.660000000000004 44.144999999999996, 24.660000000000004 44.519999999999996 C 24.660000000000004 44.76, 24.660000000000004 44.76, 24.660000000000004 45 C 24.660000000000004 45.24, 24.660000000000004 45.330000000000005, 24.660000000000004 45.480000000000004 C 24.660000000000004 45.54, 24.660000000000004 45.56999999999999, 24.660000000000004 45.599999999999994 L 24.660000000000004 45.599999999999994" fill="none" stroke="black" stroke-width="2"></path></svg>