<svg xmlns="http://www.w3.org/2000/svg" viewBox="7.749123573303223 3.9800000190734863 20.624210357666016 40.58000135421753" width="20.624210357666016" height="40.58000135421753"><path d="M 10.68 43.56 C 10.11 41.94, 9.96 42.135000000000005, 9.540000000000001 40.32 C 9.27 38.31, 9.135 38.489999999999995, 9 36.3 C 9 33.93, 9.06 33.72, 9 31.56 C 8.879999999999999 29.61, 8.82 29.400000000000006, 8.76 27.660000000000004 C 8.76 26.130000000000003, 8.76 25.799999999999997, 8.76 24.599999999999998 C 8.76 23.729999999999997, 8.745 23.729999999999997, 8.76 22.86 C 8.79 21.990000000000002, 8.685 21.990000000000002, 8.82 21.12 C 9.06 20.25, 9.045000000000002 20.205, 9.3 19.38 C 9.57 18.6, 9.45 18.555, 9.84 17.82 C 10.35 17.130000000000003, 10.35 16.98, 10.86 16.44 C 11.37 16.05, 11.204999999999998 16.005000000000003, 11.879999999999999 15.66 C 12.719999999999999 15.36, 12.404999999999998 15.329999999999998, 13.559999999999999 15.059999999999999 C 15.03 14.82, 15.195 14.745000000000001, 16.5 14.580000000000002 C 17.64 14.49, 17.79 14.489999999999998, 18.78 14.399999999999999 C 19.62 14.309999999999999, 19.605 14.31, 20.46 14.22 C 21.330000000000002 14.129999999999999, 21.450000000000003 14.084999999999999, 22.200000000000003 14.04 C 22.830000000000002 14.04, 22.875 14.009999999999998, 23.46 14.04 C 24 14.1, 24.06 13.98, 24.54 14.16 C 24.96 14.46, 24.870000000000005 14.25, 25.380000000000003 14.76 C 25.98 15.48, 26.1 15.510000000000003, 26.58 16.200000000000003 C 26.939999999999998 16.86, 27.119999999999997 16.875, 27.299999999999997 17.52 C 27.299999999999997 18.15, 27.299999999999997 18.18, 27.299999999999997 18.78 C 27.299999999999997 19.35, 27.464999999999996 19.229999999999997, 27.299999999999997 19.919999999999998 C 26.97 20.729999999999997, 27.09 20.834999999999997, 26.64 21.54 C 26.07 22.14, 26.115000000000002 22.185000000000002, 25.5 22.740000000000002 C 24.84 23.25, 24.78 23.445, 24.18 23.759999999999998 C 23.64 23.88, 23.790000000000003 23.939999999999998, 23.1 24 C 22.259999999999998 24, 22.11 24.09, 21.419999999999998 24 C 20.88 23.82, 20.924999999999997 23.97, 20.34 23.64 C 19.71 23.16, 19.605 23.28, 19.080000000000002 22.68 C 18.660000000000004 21.96, 18.555000000000003 21.915000000000003, 18.240000000000002 21.240000000000002 C 18.03 20.61, 18 20.685000000000002, 17.82 19.98 C 17.67 19.2, 17.595 19.365, 17.52 18.419999999999998 C 17.52 17.310000000000002, 17.52 17.085, 17.52 16.200000000000003 C 17.52 15.540000000000001, 17.52 15.285, 17.52 14.879999999999999 C 17.52 14.73, 17.52 14.655000000000001, 17.52 14.580000000000002 C 17.52 14.580000000000002, 17.52 14.580000000000002, 17.52 14.580000000000002 L 17.52 14.580000000000002" fill="none" stroke="black" stroke-width="2"></path><path d="M 10.02 6.18 C 11.73 5.88, 11.73 5.82, 13.440000000000001 5.58 C 15.15 5.4, 15.285 5.31, 16.86 5.22 C 18.3 5.22, 18.225 5.279999999999999, 19.740000000000002 5.22 C 21.33 5.1, 21.689999999999998 5.039999999999999, 22.919999999999998 4.9799999999999995 C 23.79 4.9799999999999995, 24.000000000000004 4.9799999999999995, 24.660000000000004 4.9799999999999995 C 25.11 4.9799999999999995, 25.29 4.9799999999999995, 25.56 4.9799999999999995 C 25.65 4.9799999999999995, 25.665000000000003 4.9799999999999995, 25.740000000000002 4.9799999999999995 L 25.86 4.9799999999999995" fill="none" stroke="black" stroke-width="2"></path></svg>