<svg xmlns="http://www.w3.org/2000/svg" viewBox="7.926666259765625 8.75999927520752 27.220001220703125 35.86000061035156" width="27.220001220703125" height="35.86000061035156"><path d="M 9.42 43.62 C 9.42 42.9, 9.48 43.394999999999996, 9.42 42.18 C 9.3 40.47, 9.24 40.305, 9.18 38.76 C 9.18 37.379999999999995, 9.24 37.515, 9.18 36 C 9.059999999999999 34.35, 9 34.335, 8.94 32.7 C 8.94 31.080000000000002, 8.94 30.87, 8.94 29.46 C 8.94 28.259999999999998, 8.91 28.424999999999997, 8.94 27.06 C 9 25.53, 8.91 25.5, 9.06 24 C 9.3 22.53, 9.180000000000001 22.56, 9.540000000000001 21.06 C 10.02 19.53, 10.02 19.35, 10.5 18 C 10.98 16.83, 10.919999999999998 16.86, 11.459999999999999 15.66 C 12.059999999999999 14.43, 12.12 14.265, 12.66 13.200000000000001 C 13.14 12.3, 13.080000000000002 12.134999999999998, 13.620000000000001 11.399999999999999 C 14.22 10.829999999999998, 14.205 10.665, 14.82 10.26 C 15.450000000000001 10.02, 15.495000000000001 9.899999999999999, 16.080000000000002 9.78 C 16.62 9.78, 16.695 9.735, 17.16 9.78 C 17.55 9.87, 17.445 9.749999999999998, 17.94 9.959999999999999 C 18.54 10.29, 18.630000000000003 10.290000000000001, 19.14 10.620000000000001 C 19.560000000000002 10.95, 19.635 10.86, 19.98 11.28 C 20.25 11.79, 20.19 11.594999999999999, 20.52 12.299999999999999 C 20.909999999999997 13.2, 20.939999999999998 12.840000000000002, 21.299999999999997 14.100000000000001 C 21.63 15.72, 21.675 15.795, 21.96 17.34 C 22.200000000000003 18.810000000000002, 22.32 19.05, 22.44 20.28 C 22.44 21.27, 22.44 21.075, 22.44 22.259999999999998 C 22.44 23.64, 22.455000000000002 23.595, 22.44 25.02 C 22.41 26.490000000000002, 22.485 26.685000000000002, 22.38 27.96 C 22.2 29.04, 22.14 29.324999999999996, 22.02 30.119999999999997 C 21.96 30.63, 21.93 30.81, 21.9 31.14 C 21.9 31.29, 21.9 31.365000000000002, 21.9 31.44 C 21.9 31.44, 21.9 31.44, 21.9 31.44 C 21.9 31.44, 21.705 31.425, 21.9 31.44 C 22.29 31.47, 22.29 31.575, 22.68 31.5 C 23.07 31.32, 22.935000000000002 31.35, 23.46 31.14 C 24.12 30.900000000000002, 23.955000000000002 30.945000000000004, 24.78 30.660000000000004 C 25.77 30.330000000000002, 25.799999999999997 30.3, 26.759999999999998 30 C 27.689999999999998 29.73, 27.869999999999997 29.595, 28.619999999999997 29.46 C 29.189999999999998 29.46, 29.114999999999995 29.490000000000002, 29.759999999999998 29.46 C 30.48 29.4, 30.6 29.205, 31.200000000000003 29.339999999999996 C 31.680000000000003 29.669999999999998, 31.710000000000004 29.625, 32.160000000000004 30 C 32.58 30.419999999999998, 32.64 30.374999999999996, 33 30.839999999999996 C 33.3 31.349999999999998, 33.315 31.095, 33.599999999999994 31.86 C 33.87 32.88, 34.004999999999995 32.85000000000001, 34.14 33.900000000000006 C 34.14 34.980000000000004, 34.14 35.07000000000001, 34.14 36.06 C 34.14 36.96, 34.14 37.11, 34.14 37.86 C 34.14 38.46, 34.155 38.46, 34.14 39.06 C 34.11 39.66, 34.125 39.81, 34.08 40.26 C 34.019999999999996 40.56, 33.99 40.635, 33.96 40.86 C 33.96 41.010000000000005, 33.96 40.995000000000005, 33.96 41.160000000000004 C 33.96 41.34, 33.99 41.355, 33.96 41.519999999999996 L 33.839999999999996 41.82" fill="none" stroke="black" stroke-width="2"></path><path d="M 22.740000000000002 19.740000000000002 C 22.740000000000002 19.65, 22.470000000000002 19.68, 22.740000000000002 19.56 C 23.28 19.409999999999997, 22.935000000000002 19.514999999999997, 23.82 19.259999999999998 C 25.05 18.9, 25.14 18.884999999999998, 26.28 18.54 C 27.330000000000002 18.21, 27.165000000000003 18.134999999999998, 28.380000000000003 17.88 C 29.76 17.7, 30.105000000000004 17.655, 31.14 17.52 C 31.83 17.43, 31.859999999999996 17.37, 32.519999999999996 17.34 C 33.15 17.369999999999997, 33.39 17.369999999999997, 33.78 17.4 L 34.08 17.46" fill="none" stroke="black" stroke-width="2"></path><path d="M 15.18 26.700000000000003 C 14.969999999999999 26.94, 14.879999999999999 26.91, 14.76 27.18 C 14.73 27.48, 14.715 27.39, 14.700000000000001 27.78 C 14.700000000000001 28.26, 14.655000000000001 28.470000000000002, 14.700000000000001 28.740000000000002 C 14.79 28.8, 14.73 28.83, 14.879999999999999 28.86 C 15.09 28.86, 15.059999999999999 28.95, 15.299999999999999 28.86 C 15.57 28.68, 15.584999999999999 28.799999999999997, 15.84 28.5 C 16.08 28.080000000000002, 16.11 28.110000000000003, 16.32 27.660000000000004 C 16.5 27.180000000000003, 16.59 26.970000000000006, 16.68 26.700000000000003 C 16.68 26.64, 16.845 26.654999999999998, 16.68 26.58 C 16.35 26.490000000000002, 16.305 26.43, 16.02 26.400000000000002 C 15.78 26.43, 15.899999999999999 26.115000000000002, 15.54 26.46 C 15.06 27.12, 14.865000000000002 27.255000000000003, 14.580000000000002 27.78 C 14.49 28.17, 14.445 28.244999999999997, 14.399999999999999 28.56 C 14.399999999999999 28.799999999999997, 14.369999999999997 28.889999999999997, 14.399999999999999 29.04 C 14.459999999999999 29.1, 14.219999999999999 29.265000000000004, 14.52 29.160000000000004 C 15.06 28.89, 15.225000000000001 28.95, 15.600000000000001 28.619999999999997 C 15.81 28.229999999999997, 15.84 28.244999999999997, 16.02 27.839999999999996 C 16.17 27.419999999999998, 16.2 27.284999999999997, 16.32 27 C 16.41 26.85, 16.455 26.805000000000003, 16.5 26.700000000000003 C 16.5 26.64, 16.785 26.49, 16.5 26.58 C 15.93 26.82, 15.735 26.654999999999998, 15.36 27.06 C 15.18 27.630000000000003, 15.09 27.795, 15 28.200000000000003 C 15 28.44, 14.94 28.5, 15 28.68 C 15.120000000000001 28.8, 15.06 28.845000000000002, 15.24 28.92 C 15.48 28.950000000000003, 15.435 29.22, 15.72 28.98 C 16.05 28.47, 16.215 28.215, 16.38 27.96 L 16.38 27.96" fill="none" stroke="black" stroke-width="2"></path><path d="M 12.66 36.54 C 13.469999999999999 36.45, 13.41 36.48, 14.28 36.36 C 15.21 36.21, 15.3 36.18, 16.14 36.06 C 16.89 35.97, 16.740000000000002 35.97, 17.64 35.88 C 18.69 35.790000000000006, 18.810000000000002 35.790000000000006, 19.740000000000002 35.7 C 20.55 35.61, 20.73 35.565, 21.36 35.519999999999996 C 21.81 35.519999999999996, 21.915 35.519999999999996, 22.259999999999998 35.519999999999996 C 22.5 35.519999999999996, 22.590000000000003 35.519999999999996, 22.740000000000002 35.519999999999996 L 22.86 35.519999999999996" fill="none" stroke="black" stroke-width="2"></path></svg>