<svg xmlns="http://www.w3.org/2000/svg" viewBox="7.913332939147949 6.380000114440918 20.806666374206543 39.07999801635742" width="20.806666374206543" height="39.07999801635742"><path d="M 10.68 30.54 C 10.2 28.62, 10.095 28.71, 9.72 26.700000000000003 C 9.45 24.6, 9.375 24.195, 9.18 22.5 C 9.059999999999999 21.21, 9 20.909999999999997, 8.94 19.919999999999998 C 8.94 19.229999999999997, 8.879999999999999 19.049999999999997, 8.94 18.54 C 9.059999999999999 18.21, 8.865 18.224999999999998, 9.18 17.88 C 9.69 17.52, 9.584999999999999 17.415, 10.2 17.16 C 10.92 17.009999999999998, 10.95 16.545, 11.64 16.86 C 12.3 17.64, 12.345 17.685, 12.96 18.419999999999998 C 13.530000000000001 19.11, 13.575000000000003 19.08, 14.100000000000001 19.799999999999997 C 14.58 20.549999999999997, 14.625 20.519999999999996, 15.059999999999999 21.299999999999997 C 15.45 22.11, 15.57 22.349999999999998, 15.84 22.919999999999998 C 15.99 23.25, 16.065 23.415, 16.14 23.580000000000002 C 16.14 23.580000000000002, 16.080000000000002 23.625000000000004, 16.14 23.580000000000002 C 16.259999999999998 23.490000000000002, 16.305 24.119999999999997, 16.38 23.4 C 16.41 22.05, 16.380000000000003 21.885, 16.44 20.700000000000003 C 16.53 19.68, 16.455000000000002 19.545, 16.62 18.66 C 16.86 17.91, 16.89 17.655, 17.1 17.16 C 17.28 16.92, 16.950000000000003 17.025, 17.46 16.68 C 18.3 16.23, 17.94 16.215, 19.14 15.78 C 20.7 15.36, 20.865 15.3, 22.259999999999998 14.940000000000001 C 23.49 14.64, 23.714999999999996 14.595, 24.72 14.34 C 25.5 14.129999999999999, 25.695 14.024999999999999, 26.28 13.919999999999998 C 26.67 13.919999999999998, 26.865 13.919999999999998, 27.06 13.919999999999998 L 27.06 13.919999999999998" fill="none" stroke="black" stroke-width="2"></path><path d="M 10.379999999999999 9.120000000000001 C 13.319999999999999 8.55, 13.769999999999998 8.355, 16.259999999999998 7.98 C 18.299999999999997 7.800000000000001, 18.615 7.71, 20.34 7.62 C 21.75 7.62, 22.005 7.62, 23.16 7.62 C 24.060000000000002 7.62, 24.195 7.665, 24.96 7.62 C 25.59 7.529999999999999, 25.784999999999997 7.5, 26.22 7.4399999999999995 L 26.700000000000003 7.38" fill="none" stroke="black" stroke-width="2"></path><path d="M 21.36 15.18 C 21.36 15.18, 21.39 15.195, 21.36 15.18 C 21.3 15.15, 21.195 14.850000000000001, 21.240000000000002 15.120000000000001 C 21.39 15.69, 21.33 15.344999999999999, 21.54 16.259999999999998 C 21.810000000000002 17.52, 21.855 17.37, 22.080000000000002 18.78 C 22.26 20.34, 22.35 20.34, 22.44 21.9 C 22.44 23.46, 22.44 23.625, 22.44 25.02 C 22.44 26.25, 22.605 26.115000000000002, 22.44 27.48 C 22.11 28.98, 22.26 28.905, 21.78 30.48 C 21.15 32.13, 21.39 32.07, 20.52 33.78 C 19.409999999999997 35.55, 19.214999999999996 35.894999999999996, 18.299999999999997 37.32 C 17.58 38.400000000000006, 17.775 38.23500000000001, 16.86 39.480000000000004 C 15.75 40.89, 15.555 41.19, 14.64 42.3 C 13.920000000000002 43.11, 13.770000000000001 43.38, 13.200000000000001 43.92 C 12.780000000000001 44.19, 12.57 44.325, 12.36 44.46 L 12.36 44.46" fill="none" stroke="black" stroke-width="2"></path><path d="M 16.86 39.36 C 17.16 39.33, 16.830000000000002 39.33, 17.46 39.3 C 18.42 39.269999999999996, 18.165 39.405, 19.38 39.24 C 20.85 38.94, 20.685 38.835, 22.32 38.64 C 24.12 38.55, 24.660000000000004 38.505, 25.92 38.46 C 26.64 38.46, 26.91 38.46, 27.36 38.46 C 27.54 38.46, 27.63 38.46, 27.72 38.46 L 27.72 38.46" fill="none" stroke="black" stroke-width="2"></path></svg>