<svg xmlns="http://www.w3.org/2000/svg" viewBox="10.819999694824219 7.199999809265137 19.579999923706055 37.77999973297119" width="19.579999923706055" height="37.77999973297119"><path d="M 13.14 26.160000000000004 C 13.05 25.800000000000004, 13.05 26.175000000000004, 12.96 25.44 C 12.870000000000001 24.33, 12.825 24.285, 12.78 23.22 C 12.78 22.2, 12.78 21.975, 12.78 21.18 C 12.78 20.61, 12.78 20.564999999999998, 12.78 20.04 C 12.78 19.560000000000002, 12.75 19.575000000000003, 12.78 19.080000000000002 C 12.84 18.57, 12.674999999999999 18.555, 12.899999999999999 18.06 C 13.29 17.58, 13.274999999999999 17.490000000000002, 13.68 17.1 C 14.1 16.8, 13.86 16.785, 14.52 16.5 C 15.42 16.23, 15.135000000000002 16.095, 16.32 15.96 C 17.79 15.96, 17.64 15.945, 19.259999999999998 15.96 C 21.029999999999998 15.99, 21.254999999999995 16.005, 22.799999999999997 16.02 C 24.119999999999997 16.02, 24.075000000000003 15.974999999999998, 25.44 16.02 C 26.85 16.11, 27.389999999999997 16.155, 28.259999999999998 16.200000000000003 C 28.59 16.200000000000003, 28.755000000000003 16.200000000000003, 28.92 16.200000000000003 L 28.92 16.200000000000003" fill="none" stroke="black" stroke-width="2"></path><path d="M 14.399999999999999 8.22 C 15.809999999999999 8.22, 15.809999999999999 8.22, 17.22 8.22 C 18.63 8.22, 18.36 8.175, 20.04 8.22 C 21.990000000000002 8.309999999999999, 22.35 8.309999999999999, 23.94 8.399999999999999 C 25.17 8.489999999999998, 25.14 8.535, 26.400000000000002 8.58 C 27.69 8.58, 28.23 8.58, 28.98 8.58 C 29.19 8.58, 29.295 8.58, 29.400000000000002 8.58 L 29.400000000000002 8.58" fill="none" stroke="black" stroke-width="2"></path><path d="M 11.82 43.980000000000004 C 12.96 43.620000000000005, 12.840000000000002 44.04, 14.100000000000001 43.26 C 15.48 42.06, 15.675 42.39, 16.86 40.86 C 17.85 39, 18.165 38.925, 18.84 37.14 C 19.2 35.43, 19.334999999999997 35.19, 19.56 33.72 C 19.65 32.489999999999995, 19.650000000000002 32.79, 19.740000000000002 31.259999999999998 C 19.83 29.43, 19.83 29.189999999999998, 19.919999999999998 27.599999999999998 C 20.009999999999998 26.25, 20.01 26.115000000000002, 20.1 24.900000000000002 C 20.19 23.82, 20.235 23.640000000000004, 20.28 22.740000000000002 C 20.28 22.02, 20.28 21.854999999999997, 20.28 21.299999999999997 C 20.28 20.909999999999997, 20.28 20.865, 20.28 20.52 C 20.28 20.22, 20.28 20.189999999999998, 20.28 19.919999999999998 C 20.28 19.68, 20.28 19.71, 20.28 19.44 C 20.28 19.14, 20.28 19.14, 20.28 18.84 C 20.28 18.54, 20.28 18.51, 20.28 18.240000000000002 C 20.28 18, 20.25 18.075, 20.28 17.759999999999998 C 20.34 17.369999999999997, 20.34 17.369999999999997, 20.4 16.98 C 20.46 16.590000000000003, 20.49 16.395000000000003, 20.52 16.200000000000003 C 20.52 16.200000000000003, 20.52 16.200000000000003, 20.52 16.200000000000003 C 20.52 16.200000000000003, 20.505 16.185000000000002, 20.52 16.200000000000003 C 20.55 16.23, 20.565 15.915, 20.580000000000002 16.259999999999998 C 20.580000000000002 16.92, 20.67 16.545, 20.580000000000002 17.580000000000002 C 20.4 18.990000000000002, 20.4 18.93, 20.22 20.4 C 20.04 21.93, 19.95 22.035, 19.86 23.46 C 19.86 24.78, 19.799999999999997 24.224999999999998, 19.86 26.099999999999998 C 19.98 28.53, 19.86 28.830000000000002, 20.1 30.96 C 20.46 32.79, 20.25 32.73, 20.82 34.62 C 21.6 36.56999999999999, 21.615 36.88499999999999, 22.38 38.519999999999996 C 23.13 39.84, 23.16 40.095, 23.88 41.160000000000004 C 24.57 41.97, 24.54 42.165000000000006, 25.259999999999998 42.78 C 26.009999999999998 43.2, 26.069999999999997 43.379999999999995, 26.759999999999998 43.62 C 27.39 43.68, 27.54 43.65, 28.02 43.74 C 28.35 43.86, 28.485 43.92, 28.68 43.980000000000004 C 28.74 43.980000000000004, 28.769999999999996 43.980000000000004, 28.799999999999997 43.980000000000004 L 28.799999999999997 43.980000000000004" fill="none" stroke="black" stroke-width="2"></path></svg>