<svg xmlns="http://www.w3.org/2000/svg" viewBox="12.319999694824219 6.960000514984131 22.459999084472656 38.44000005722046" width="22.459999084472656" height="38.44000005722046"><path d="M 13.379999999999999 9.3 C 14.73 9.21, 14.430000000000001 9.345000000000002, 16.080000000000002 9.120000000000001 C 18.03 8.76, 18.330000000000002 8.639999999999999, 19.98 8.399999999999999 C 21.33 8.28, 21.465 8.219999999999999, 22.68 8.16 C 23.759999999999998 8.16, 23.819999999999997 8.205, 24.839999999999996 8.16 C 25.799999999999997 8.07, 26.009999999999998 8.025, 26.759999999999998 7.98 C 27.299999999999997 7.98, 27.344999999999995 7.98, 27.839999999999996 7.98 C 28.29 7.98, 28.32 7.98, 28.740000000000002 7.98 C 29.130000000000003 7.98, 29.25 7.98, 29.52 7.98 C 29.67 7.98, 29.58 7.98, 29.82 7.98 C 30.15 7.98, 30.240000000000002 7.9350000000000005, 30.48 7.98 C 30.630000000000003 8.07, 30.705000000000002 8.115, 30.78 8.16 L 30.78 8.16" fill="none" stroke="black" stroke-width="2"></path><path d="M 14.940000000000001 24.06 C 14.580000000000002 22.619999999999997, 14.565000000000001 22.53, 14.22 21.18 C 13.89 19.92, 13.77 19.725, 13.559999999999999 18.66 C 13.469999999999999 17.79, 13.424999999999999 17.505, 13.379999999999999 16.919999999999998 C 13.379999999999999 16.619999999999997, 13.379999999999999 16.62, 13.379999999999999 16.32 C 13.379999999999999 16.02, 13.245 16.05, 13.379999999999999 15.72 C 13.649999999999999 15.36, 13.29 15.24, 13.919999999999998 15 C 14.909999999999998 14.879999999999999, 14.669999999999998 14.864999999999998, 15.899999999999999 14.76 C 17.369999999999997 14.670000000000002, 17.07 14.670000000000002, 18.84 14.580000000000002 C 20.91 14.49, 21.09 14.61, 22.98 14.399999999999999 C 24.69 14.07, 24.570000000000004 14.055, 26.400000000000002 13.74 C 28.35 13.440000000000001, 28.724999999999998 13.38, 30.299999999999997 13.14 C 31.5 12.96, 31.830000000000002 12.87, 32.7 12.78 C 33.24 12.78, 33.510000000000005 12.78, 33.78 12.78 L 33.78 12.78" fill="none" stroke="black" stroke-width="2"></path><path d="M 22.38 15.36 C 22.29 17.25, 22.245 17.295, 22.200000000000003 19.14 C 22.200000000000003 20.94, 21.840000000000003 21.075000000000003, 22.200000000000003 22.740000000000002 C 22.92 24.27, 22.68 24.674999999999997, 23.64 25.799999999999997 C 24.84 26.52, 24.795 26.715, 26.04 27.240000000000002 C 27.33 27.57, 27.629999999999995 27.660000000000004, 28.619999999999997 27.900000000000002 C 29.31 28.050000000000004, 29.34 28.095000000000002, 30 28.200000000000003 C 30.63 28.26, 30.824999999999996 28.26, 31.259999999999998 28.32 C 31.5 28.380000000000003, 31.575000000000003 28.395000000000003, 31.740000000000002 28.44 C 31.830000000000002 28.47, 31.815 28.365000000000002, 31.92 28.5 C 32.040000000000006 28.740000000000002, 32.1 28.740000000000002, 32.160000000000004 28.98 C 32.160000000000004 29.22, 32.205000000000005 29.22, 32.160000000000004 29.46 C 32.07 29.700000000000003, 32.475 29.580000000000002, 31.98 29.94 C 31.08 30.42, 31.185 30.360000000000003, 30.18 30.900000000000002 C 29.07 31.5, 29.82 31.139999999999993, 27.96 32.099999999999994 C 25.35 33.42, 25.215000000000003 33.225, 22.740000000000002 34.74 C 20.4 36.45, 19.83 36.6, 18.06 38.160000000000004 C 16.86 39.57000000000001, 16.545 39.690000000000005, 15.66 40.980000000000004 C 15.09 42.150000000000006, 14.82 42.465, 14.52 43.32 C 14.49 43.86, 14.475000000000001 44.13, 14.46 44.400000000000006 L 14.46 44.400000000000006" fill="none" stroke="black" stroke-width="2"></path><path d="M 14.22 31.08 C 14.76 31.5, 14.655 31.44, 15.299999999999999 31.92 C 16.049999999999997 32.46, 16.08 32.43, 16.799999999999997 33 C 17.49 33.6, 17.564999999999998 33.6, 18.18 34.2 C 18.72 34.800000000000004, 18.854999999999997 34.965, 19.259999999999998 35.400000000000006 C 19.529999999999998 35.67, 19.544999999999995 35.64, 19.799999999999997 35.94 L 20.28 36.599999999999994" fill="none" stroke="black" stroke-width="2"></path></svg>