<svg xmlns="http://www.w3.org/2000/svg" viewBox="12.908712387084961 5.519999980926514 21.091288566589355 40.66000032424927" width="21.091288566589355" height="40.66000032424927"><path d="M 14.64 6.779999999999999 C 15.18 6.75, 14.895 6.735, 15.72 6.720000000000001 C 16.830000000000002 6.720000000000001, 16.44 6.720000000000001, 17.94 6.720000000000001 C 19.83 6.720000000000001, 20.235 6.720000000000001, 21.72 6.720000000000001 C 22.799999999999997 6.720000000000001, 22.589999999999996 6.765000000000001, 23.88 6.720000000000001 C 25.380000000000003 6.630000000000001, 25.680000000000003 6.585000000000001, 26.880000000000003 6.540000000000001 C 27.78 6.540000000000001, 28.005000000000003 6.540000000000001, 28.68 6.540000000000001 C 29.13 6.540000000000001, 29.04 6.540000000000001, 29.58 6.540000000000001 C 30.209999999999997 6.540000000000001, 30.359999999999996 6.495000000000001, 30.839999999999996 6.540000000000001 C 31.169999999999998 6.630000000000001, 31.064999999999998 6.675000000000001, 31.5 6.720000000000001 C 32.04 6.720000000000001, 32.205 6.720000000000001, 32.58 6.720000000000001 L 33 6.720000000000001" fill="none" stroke="black" stroke-width="2"></path><path d="M 14.52 21.72 C 14.43 20.009999999999998, 14.445 19.919999999999998, 14.34 18.299999999999997 C 14.22 16.77, 14.190000000000001 16.32, 14.100000000000001 15.24 C 14.040000000000001 14.61, 14.010000000000002 14.52, 13.98 13.98 C 13.98 13.530000000000001, 13.935 13.470000000000002, 13.98 13.080000000000002 C 14.07 12.75, 13.665 12.645, 14.16 12.419999999999998 C 15.06 12.299999999999999, 14.565000000000001 12.344999999999999, 15.96 12.18 C 17.85 11.969999999999999, 18.18 11.91, 19.740000000000002 11.76 C 20.970000000000002 11.67, 20.910000000000004 11.625, 22.200000000000003 11.58 C 23.550000000000004 11.58, 23.745000000000005 11.58, 24.900000000000002 11.58 C 25.86 11.58, 25.98 11.535, 26.82 11.58 C 27.54 11.67, 27.674999999999997 11.67, 28.259999999999998 11.76 C 28.71 11.85, 28.605000000000004 11.775, 29.160000000000004 11.94 C 29.82 12.18, 29.955000000000002 12.254999999999997, 30.48 12.419999999999998 C 30.869999999999997 12.51, 30.99 12.510000000000002, 31.259999999999998 12.600000000000001 C 31.409999999999997 12.690000000000001, 31.334999999999997 12.465, 31.56 12.78 C 31.86 13.32, 31.920000000000005 13.034999999999998, 32.160000000000004 13.86 C 32.34 14.97, 32.385 15.105000000000002, 32.519999999999996 16.080000000000002 C 32.61 16.92, 32.655 16.979999999999997, 32.7 17.759999999999998 C 32.7 18.48, 32.7 18.450000000000003, 32.7 19.200000000000003 C 32.7 19.98, 32.7 20.325, 32.7 20.759999999999998 C 32.7 20.85, 32.7 20.895, 32.7 20.94 C 32.7 20.94, 32.7 20.880000000000003, 32.7 20.94 L 32.7 21.18" fill="none" stroke="black" stroke-width="2"></path><path d="M 20.04 11.82 C 19.83 14.55, 19.725 15.180000000000001, 19.62 17.28 C 19.62 18.75, 19.755000000000003 18.27, 19.62 20.22 C 19.35 22.65, 19.305000000000003 22.724999999999998, 19.080000000000002 25.08 C 18.9 27.36, 18.915 27.555, 18.72 29.64 C 18.509999999999998 31.53, 18.404999999999998 31.830000000000002, 18.299999999999997 33.42 C 18.299999999999997 34.71, 18.344999999999995 34.620000000000005, 18.299999999999997 36 C 18.21 37.47, 18.165 37.635, 18.12 38.94 C 18.12 40.08, 18.12 40.29, 18.12 41.22 C 18.12 41.94, 18.12 42.06, 18.12 42.660000000000004 C 18.12 43.14, 18.12 43.26, 18.12 43.62 C 18.12 43.86, 18.150000000000002 43.785, 18.12 44.099999999999994 C 18.060000000000002 44.489999999999995, 18.03 44.61, 18 44.88 C 18 45.03, 18 45.105000000000004, 18 45.18 L 18 45.18" fill="none" stroke="black" stroke-width="2"></path><path d="M 25.56 11.34 C 25.65 12.09, 25.695 11.85, 25.740000000000002 12.84 C 25.740000000000002 14.07, 25.740000000000002 13.259999999999998, 25.740000000000002 15.299999999999999 C 25.740000000000002 18.15, 25.755000000000003 18.06, 25.740000000000002 21 C 25.71 24.03, 25.695 24.57, 25.68 27.06 C 25.68 29.009999999999998, 25.74 29.28, 25.68 30.96 C 25.560000000000002 32.370000000000005, 25.545 31.86, 25.44 33.78 C 25.35 36.21, 25.349999999999998 36.78, 25.259999999999998 38.64 C 25.169999999999998 39.93, 25.125 40.17, 25.08 41.22 C 25.08 42.03, 25.08 42.239999999999995, 25.08 42.839999999999996 C 25.08 43.23, 25.08 43.425, 25.08 43.62 C 25.08 43.62, 25.08 43.574999999999996, 25.08 43.62 C 25.08 43.709999999999994, 25.08 43.529999999999994, 25.08 43.8 C 25.08 44.25, 25.08 44.43, 25.08 44.7 C 25.08 44.790000000000006, 25.08 44.760000000000005, 25.08 44.88 C 25.08 45.03, 25.08 45.105000000000004, 25.08 45.18 C 25.08 45.18, 25.08 45.18, 25.08 45.18 L 25.08 45.18" fill="none" stroke="black" stroke-width="2"></path></svg>