<svg xmlns="http://www.w3.org/2000/svg" viewBox="12.4399995803833 5.960000038146973 21.920001983642578 39.97999858856201" width="21.920001983642578" height="39.97999858856201"><path d="M 13.440000000000001 7.62 C 13.92 7.65, 13.965 7.665, 14.399999999999999 7.68 C 14.79 7.68, 14.325 7.68, 15.18 7.68 C 16.5 7.68, 16.65 7.68, 17.82 7.68 C 18.84 7.68, 18.555 7.68, 19.86 7.68 C 21.45 7.68, 21.54 7.68, 23.04 7.68 C 24.45 7.68, 24.689999999999998 7.68, 25.86 7.68 C 26.79 7.68, 26.775 7.664999999999999, 27.72 7.68 C 28.68 7.71, 28.8 7.665, 29.64 7.74 C 30.36 7.86, 30.494999999999997 7.92, 31.08 7.98 C 31.53 7.98, 31.59 7.98, 31.98 7.98 C 32.31 7.98, 32.295 7.98, 32.64 7.98 C 33 7.98, 33.18 7.98, 33.36 7.98 L 33.36 7.98" fill="none" stroke="black" stroke-width="2"></path><path d="M 19.740000000000002 7.92 C 19.26 8.73, 19.29 8.535, 18.78 9.540000000000001 C 18.240000000000002 10.74, 18.195000000000004 10.845, 17.700000000000003 11.94 C 17.25 12.93, 17.279999999999998 12.809999999999999, 16.799999999999997 13.919999999999998 C 16.29 15.149999999999999, 16.169999999999998 15.18, 15.78 16.38 C 15.51 17.549999999999997, 15.405 17.759999999999998, 15.24 18.72 C 15.18 19.47, 15.090000000000002 19.575, 15.120000000000001 20.22 C 15.24 20.759999999999998, 15.18 20.849999999999998, 15.36 21.299999999999997 C 15.6 21.659999999999997, 15.524999999999999 21.75, 15.84 22.02 C 16.23 22.2, 16.080000000000002 22.215, 16.62 22.38 C 17.310000000000002 22.53, 17.19 22.56, 18 22.68 C 18.93 22.77, 18.99 22.74, 19.86 22.86 C 20.67 23.009999999999998, 20.625 23.025, 21.48 23.16 C 22.380000000000003 23.28, 22.425 23.294999999999998, 23.28 23.4 C 24.090000000000003 23.490000000000002, 24.21 23.505000000000003, 24.900000000000002 23.580000000000002 C 25.47 23.64, 25.515 23.67, 26.04 23.700000000000003 C 26.52 23.700000000000003, 26.564999999999998 23.700000000000003, 27 23.700000000000003 C 27.39 23.700000000000003, 27.51 23.745000000000005, 27.78 23.700000000000003 C 27.93 23.61, 27.945 23.64, 28.08 23.52 C 28.2 23.369999999999997, 28.155 23.46, 28.32 23.22 C 28.53 22.89, 28.545 22.89, 28.740000000000002 22.56 C 28.92 22.229999999999997, 28.935 22.2, 29.099999999999998 21.9 C 29.25 21.63, 29.25 21.765, 29.400000000000002 21.36 C 29.550000000000004 20.82, 29.625000000000004 20.775000000000002, 29.700000000000003 20.28 C 29.700000000000003 19.83, 29.700000000000003 20.13, 29.700000000000003 19.38 C 29.700000000000003 18.33, 29.700000000000003 18.345, 29.700000000000003 17.28 C 29.700000000000003 16.200000000000003, 29.715000000000003 16.200000000000003, 29.700000000000003 15.120000000000001 C 29.67 14.040000000000001, 29.730000000000004 13.740000000000002, 29.64 12.96 C 29.49 12.48, 29.534999999999997 12.72, 29.339999999999996 12 C 29.099999999999998 11.04, 29.055 10.725, 28.86 10.08 C 28.71 9.75, 28.68 9.66, 28.56 9.42 C 28.47 9.27, 28.470000000000002 9.285, 28.380000000000003 9.120000000000001 C 28.290000000000003 8.940000000000001, 28.35 9.09, 28.200000000000003 8.76 C 27.990000000000002 8.280000000000001, 27.945 8.25, 27.78 7.800000000000001 C 27.66 7.38, 27.6 7.17, 27.54 6.959999999999999 C 27.54 6.959999999999999, 27.54 6.959999999999999, 27.54 6.959999999999999 L 27.54 6.959999999999999" fill="none" stroke="black" stroke-width="2"></path><path d="M 20.700000000000003 22.86 C 20.79 22.86, 20.685 22.71, 20.88 22.86 C 21.18 23.16, 21.285 22.935000000000002, 21.48 23.46 C 21.57 24.21, 21.555 24.21, 21.66 24.96 C 21.78 25.71, 21.84 25.725, 21.9 26.46 C 21.9 27.18, 21.854999999999997 27.060000000000002, 21.9 27.900000000000002 C 21.990000000000002 28.86, 22.035 28.86, 22.080000000000002 29.82 C 22.080000000000002 30.78, 22.095000000000002 30.795, 22.080000000000002 31.740000000000002 C 22.05 32.67, 22.14 32.58, 22.02 33.599999999999994 C 21.810000000000002 34.709999999999994, 21.810000000000002 34.95, 21.6 35.82 C 21.39 36.45, 21.39 36.345, 21.18 37.08 C 20.97 37.92, 21.104999999999997 37.815, 20.759999999999998 38.76 C 20.279999999999998 39.81, 20.264999999999997 39.989999999999995, 19.799999999999997 40.86 C 19.349999999999998 41.55, 19.244999999999997 41.685, 18.9 42.24 C 18.659999999999997 42.66, 18.794999999999998 42.69, 18.419999999999998 43.08 C 17.909999999999997 43.44, 17.88 43.47, 17.4 43.8 C 16.95 44.1, 16.919999999999998 44.190000000000005, 16.5 44.400000000000006 C 16.11 44.52, 15.990000000000002 44.535000000000004, 15.72 44.64 C 15.57 44.730000000000004, 15.54 44.745000000000005, 15.419999999999998 44.82 C 15.329999999999998 44.879999999999995, 15.285 44.91, 15.24 44.94 L 15.24 44.94" fill="none" stroke="black" stroke-width="2"></path><path d="M 19.68 41.94 C 20.16 41.94, 19.785 42.045, 20.64 41.94 C 21.87 41.73, 21.810000000000002 41.75999999999999, 23.1 41.519999999999996 C 24.45 41.25, 24.75 41.115, 25.799999999999997 40.980000000000004 C 26.549999999999997 40.980000000000004, 26.595 40.980000000000004, 27.299999999999997 40.980000000000004 C 27.959999999999997 40.980000000000004, 28.004999999999995 40.935, 28.619999999999997 40.980000000000004 L 29.759999999999998 41.160000000000004" fill="none" stroke="black" stroke-width="2"></path></svg>