<svg xmlns="http://www.w3.org/2000/svg" viewBox="11.479999542236328 4.446666717529297 20.96000099182129 42.033331871032715" width="20.96000099182129" height="42.033331871032715"><path d="M 12.48 5.5200000000000005 C 12.57 5.49, 12.465 5.475, 12.66 5.46 C 12.96 5.46, 12.809999999999999 5.46, 13.26 5.46 C 13.86 5.46, 13.8 5.43, 14.46 5.46 C 15.18 5.52, 14.954999999999998 5.49, 15.899999999999999 5.58 C 17.07 5.7, 17.07 5.76, 18.240000000000002 5.82 C 19.410000000000004 5.82, 19.440000000000005 5.82, 20.580000000000002 5.82 C 21.689999999999998 5.82, 21.569999999999997 5.82, 22.799999999999997 5.82 C 24.15 5.82, 24.375 5.82, 25.5 5.82 C 26.4 5.82, 26.294999999999998 5.82, 27.299999999999997 5.82 C 28.409999999999997 5.82, 28.604999999999997 5.82, 29.52 5.82 C 30.240000000000002 5.82, 30.48 5.82, 30.96 5.82 C 31.200000000000003 5.82, 31.32 5.82, 31.44 5.82 L 31.44 5.82" fill="none" stroke="black" stroke-width="2"></path><path d="M 21.18 5.699999999999999 C 20.97 5.97, 20.879999999999995 5.3100000000000005, 20.759999999999998 6.24 C 20.73 7.83, 20.805000000000003 7.41, 20.700000000000003 9.42 C 20.520000000000003 11.85, 20.43 11.955, 20.34 14.28 C 20.34 16.5, 20.384999999999998 16.68, 20.34 18.72 C 20.25 20.58, 20.205 20.910000000000004, 20.16 22.44 C 20.16 23.64, 20.22 23.324999999999996, 20.16 24.839999999999996 C 20.04 26.669999999999998, 19.979999999999997 26.865, 19.919999999999998 28.5 C 19.919999999999998 29.94, 19.919999999999998 30.015, 19.919999999999998 31.380000000000003 C 19.919999999999998 32.67, 19.919999999999998 32.88, 19.919999999999998 33.96 C 19.919999999999998 34.83, 19.95 34.77, 19.919999999999998 35.7 C 19.86 36.69, 19.83 36.735, 19.799999999999997 37.68 C 19.799999999999997 38.58, 19.799999999999997 38.580000000000005, 19.799999999999997 39.480000000000004 C 19.799999999999997 40.38, 19.799999999999997 40.56, 19.799999999999997 41.28 C 19.799999999999997 41.82, 19.799999999999997 41.85, 19.799999999999997 42.36 C 19.799999999999997 42.84, 19.799999999999997 42.975, 19.799999999999997 43.32 C 19.799999999999997 43.53, 19.799999999999997 43.56, 19.799999999999997 43.74 C 19.799999999999997 43.89, 19.799999999999997 43.845, 19.799999999999997 44.04 C 19.799999999999997 44.28, 19.799999999999997 44.25, 19.799999999999997 44.519999999999996 C 19.799999999999997 44.81999999999999, 19.799999999999997 44.925, 19.799999999999997 45.12 C 19.799999999999997 45.209999999999994, 19.799999999999997 45.254999999999995, 19.799999999999997 45.3 C 19.799999999999997 45.3, 19.799999999999997 45.254999999999995, 19.799999999999997 45.3 L 19.799999999999997 45.480000000000004" fill="none" stroke="black" stroke-width="2"></path><path d="M 20.16 36.599999999999994 C 20.4 36.599999999999994, 20.205000000000002 36.599999999999994, 20.64 36.599999999999994 C 21.27 36.599999999999994, 21.24 36.599999999999994, 21.9 36.599999999999994 C 22.59 36.599999999999994, 22.44 36.55499999999999, 23.28 36.599999999999994 C 24.27 36.69, 24.18 36.69, 25.259999999999998 36.78 C 26.43 36.870000000000005, 26.61 36.915, 27.599999999999998 36.96 C 28.409999999999997 36.96, 28.575 36.96, 29.22 36.96 C 29.7 36.96, 29.82 36.915, 30.18 36.96 C 30.42 37.05, 30.540000000000003 37.095, 30.660000000000004 37.14 C 30.660000000000004 37.14, 30.660000000000004 37.14, 30.660000000000004 37.14 L 30.660000000000004 37.14" fill="none" stroke="black" stroke-width="2"></path></svg>