<svg xmlns="http://www.w3.org/2000/svg" viewBox="12.079999923706055 3.5 23.17999839782715 43.17377853393555" width="23.17999839782715" height="43.17377853393555"><path d="M 13.080000000000002 4.62 C 13.200000000000001 4.62, 12.9 4.575, 13.32 4.62 C 14.04 4.710000000000001, 13.665 4.710000000000001, 14.76 4.800000000000001 C 16.23 4.890000000000001, 16.320000000000004 4.935, 17.700000000000003 4.9799999999999995 C 18.990000000000002 4.9799999999999995, 18.555000000000003 4.994999999999999, 20.28 4.9799999999999995 C 22.439999999999998 4.949999999999999, 22.619999999999997 5.0249999999999995, 24.599999999999998 4.92 C 26.4 4.74, 26.475 4.65, 28.200000000000003 4.5600000000000005 C 29.85 4.5600000000000005, 30.42 4.5600000000000005, 31.5 4.5600000000000005 C 32.01 4.5600000000000005, 31.904999999999994 4.5600000000000005, 32.519999999999996 4.5600000000000005 C 33.239999999999995 4.5600000000000005, 33.6 4.5600000000000005, 33.96 4.5600000000000005 C 33.96 4.5600000000000005, 33.885000000000005 4.5600000000000005, 33.96 4.5600000000000005 C 34.11 4.5600000000000005, 34.185 4.5600000000000005, 34.26 4.5600000000000005 L 34.26 4.5600000000000005" fill="none" stroke="black" stroke-width="2"></path><path d="M 28.380000000000003 4.5 C 28.650000000000002 5.25, 28.560000000000002 4.8, 28.92 6 C 29.37 7.65, 29.37 7.920000000000001, 29.82 9.3 C 30.27 10.41, 30.314999999999998 10.559999999999999, 30.72 11.52 C 31.08 12.33, 31.23 12.375, 31.44 13.14 C 31.5 13.860000000000001, 31.439999999999998 13.71, 31.56 14.580000000000002 C 31.740000000000002 15.600000000000001, 31.830000000000002 15.705000000000002, 31.92 16.62 C 31.92 17.43, 31.875000000000004 17.400000000000002, 31.92 18.240000000000002 C 32.01 19.11, 32.00999999999999 19.17, 32.099999999999994 19.98 C 32.19 20.73, 32.235 20.985, 32.28 21.48 C 32.28 21.72, 32.28 21.615000000000002, 32.28 21.96 C 32.28 22.41, 32.28 22.395, 32.28 22.86 C 32.28 23.34, 32.370000000000005 23.385, 32.28 23.82 C 32.1 24.21, 32.145 24.269999999999996, 31.92 24.599999999999998 C 31.650000000000002 24.869999999999997, 31.845000000000002 24.78, 31.380000000000003 25.14 C 30.72 25.59, 30.674999999999997 25.65, 30.06 26.04 C 29.490000000000002 26.37, 29.55 26.400000000000002, 28.92 26.700000000000003 C 28.23 26.970000000000002, 28.245 27.045, 27.54 27.240000000000002 C 26.82 27.36, 27.374999999999996 27.39, 26.099999999999998 27.48 C 24.27 27.54, 24.225 27.57, 22.44 27.599999999999998 C 20.700000000000003 27.599999999999998, 20.400000000000002 27.615, 18.96 27.599999999999998 C 17.82 27.57, 17.565 27.555, 16.68 27.54 C 16.049999999999997 27.54, 15.735 27.54, 15.419999999999998 27.54 C 15.419999999999998 27.54, 15.419999999999998 27.54, 15.419999999999998 27.54 C 15.419999999999998 27.54, 15.449999999999998 27.54, 15.419999999999998 27.54 C 15.36 27.54, 15.329999999999998 27.54, 15.299999999999999 27.54 L 15.299999999999999 27.54" fill="none" stroke="black" stroke-width="2"></path><path d="M 25.86 32.22 C 23.73 32.25, 23.310000000000002 32.115, 21.6 32.28 C 20.310000000000002 32.58, 20.16 32.370000000000005, 19.02 32.88 C 18.03 33.6, 17.775 33.375, 17.04 34.32 C 16.560000000000002 35.49, 16.425 35.415000000000006, 16.080000000000002 36.660000000000004 C 15.870000000000001 37.980000000000004, 15.765 38.355, 15.66 39.3 C 15.66 39.87, 15.524999999999999 39.735, 15.66 40.44 C 15.930000000000001 41.28, 15.765000000000004 41.309999999999995, 16.200000000000003 42.12 C 16.8 42.9, 16.755 42.945, 17.4 43.68 C 18.09 44.370000000000005, 18 44.61, 18.78 45.06 C 19.65 45.27, 19.62 45.330000000000005, 20.52 45.480000000000004 C 21.45 45.57000000000001, 21.314999999999998 45.720000000000006, 22.38 45.660000000000004 C 23.58 45.45, 23.895 45.45, 24.78 45.24 C 25.35 45.03, 25.335 45.15, 25.92 44.82 C 26.52 44.370000000000005, 26.64 44.355000000000004, 27.119999999999997 43.92 C 27.479999999999997 43.5, 27.479999999999997 43.739999999999995, 27.839999999999996 43.08 C 28.199999999999996 42.18, 28.334999999999997 42.3, 28.56 41.28 C 28.65 40.14, 28.695 39.9, 28.740000000000002 39 C 28.740000000000002 38.34, 28.800000000000004 38.565, 28.740000000000002 37.68 C 28.62 36.57, 28.695 36.3, 28.5 35.46 C 28.23 34.89, 28.245 34.815, 27.96 34.32 C 27.66 33.900000000000006, 27.63 33.75, 27.36 33.480000000000004 C 27.12 33.36, 27.21 33.39, 26.880000000000003 33.24 C 26.46 33.06, 26.490000000000002 33.045, 26.04 32.88 C 25.56 32.730000000000004, 25.485 32.715, 25.08 32.58 C 24.75 32.459999999999994, 24.615000000000002 32.42999999999999, 24.42 32.339999999999996 C 24.36 32.28, 24.33 32.25, 24.299999999999997 32.22 L 24.299999999999997 32.22" fill="none" stroke="black" stroke-width="2"></path></svg>