<svg xmlns="http://www.w3.org/2000/svg" viewBox="12.760000228881836 6.253333568572998 22.76666831970215 39.32666730880737" width="22.76666831970215" height="39.32666730880737"><path d="M 14.16 8.100000000000001 C 15.3 7.890000000000001, 15.285 7.845000000000001, 16.44 7.68 C 17.61 7.56, 17.43 7.545, 18.78 7.4399999999999995 C 20.310000000000002 7.35, 20.490000000000002 7.305, 21.84 7.26 C 23.009999999999998 7.26, 22.86 7.26, 24.18 7.26 C 25.65 7.26, 25.754999999999995 7.26, 27.119999999999997 7.26 C 28.38 7.26, 28.634999999999998 7.26, 29.64 7.26 C 30.39 7.26, 30.45 7.26, 31.14 7.26 C 31.770000000000003 7.26, 31.890000000000008 7.26, 32.400000000000006 7.26 C 32.790000000000006 7.26, 32.82 7.244999999999999, 33.18 7.26 C 33.51 7.29, 33.675 7.305, 33.839999999999996 7.32 L 33.839999999999996 7.32" fill="none" stroke="black" stroke-width="2"></path><path d="M 13.799999999999999 44.58 C 13.799999999999999 43.32, 13.799999999999999 43.575, 13.799999999999999 42.06 C 13.799999999999999 40.29, 13.799999999999999 40.62, 13.799999999999999 38.519999999999996 C 13.799999999999999 36.09, 13.799999999999999 35.835, 13.799999999999999 33.660000000000004 C 13.799999999999999 31.740000000000002, 13.799999999999999 31.635, 13.799999999999999 29.82 C 13.799999999999999 28.11, 13.799999999999999 27.75, 13.799999999999999 26.400000000000002 C 13.799999999999999 25.410000000000004, 13.799999999999999 25.605000000000004, 13.799999999999999 24.42 C 13.799999999999999 23.04, 13.799999999999999 22.83, 13.799999999999999 21.66 C 13.799999999999999 20.700000000000003, 13.709999999999999 20.625, 13.799999999999999 19.740000000000002 C 13.98 18.93, 13.98 18.765, 14.16 18.12 C 14.34 17.64, 14.219999999999999 17.61, 14.52 17.16 C 14.94 16.740000000000002, 14.535 16.8, 15.36 16.32 C 16.59 15.780000000000001, 16.605 15.63, 17.82 15.24 C 19.02 15, 19.005 14.879999999999999, 20.22 14.76 C 21.45 14.76, 21.345 14.76, 22.68 14.76 C 24.119999999999997 14.76, 24.195 14.76, 25.56 14.76 C 26.85 14.76, 27.06 14.76, 28.14 14.76 C 29.01 14.76, 29.175000000000004 14.76, 29.880000000000003 14.76 C 30.42 14.76, 30.585 14.76, 30.96 14.76 C 31.17 14.76, 31.110000000000003 14.67, 31.380000000000003 14.76 C 31.71 14.940000000000001, 31.71 14.895000000000001, 32.04 15.120000000000001 C 32.370000000000005 15.39, 32.34 15.240000000000002, 32.7 15.66 C 33.09 16.229999999999997, 33.21000000000001 16.275, 33.480000000000004 16.799999999999997 C 33.63 17.279999999999998, 33.57 16.845, 33.78 17.759999999999998 C 34.05 19.11, 34.14 18.93, 34.32 20.46 C 34.41 22.17, 34.455 21.884999999999998, 34.5 23.88 C 34.5 26.16, 34.56 26.46, 34.5 28.44 C 34.379999999999995 30.119999999999997, 34.32 29.88, 34.26 31.799999999999997 C 34.26 33.959999999999994, 34.305 34.5, 34.26 36.12 C 34.17 37.2, 34.214999999999996 37.32, 34.08 38.28 C 33.9 39.120000000000005, 33.824999999999996 39.315, 33.72 39.96 C 33.69 40.41, 33.690000000000005 40.59, 33.660000000000004 40.86 C 33.629999999999995 40.95, 33.614999999999995 40.875, 33.599999999999994 41.04 C 33.599999999999994 41.28, 33.644999999999996 41.205, 33.599999999999994 41.519999999999996 C 33.51 41.91, 33.465 42.03, 33.42 42.3 C 33.42 42.449999999999996, 33.42 42.404999999999994, 33.42 42.599999999999994 C 33.42 42.839999999999996, 33.42 42.959999999999994, 33.42 43.08 C 33.42 43.08, 33.45 43.05, 33.42 43.08 L 33.3 43.2" fill="none" stroke="black" stroke-width="2"></path><path d="M 25.740000000000002 23.700000000000003 C 25.41 23.64, 25.515 23.64, 25.08 23.580000000000002 C 24.54 23.520000000000003, 24.615 23.400000000000002, 24 23.46 C 23.310000000000002 23.64, 23.34 23.475, 22.62 23.82 C 21.87 24.33, 21.69 24.254999999999995, 21.12 24.839999999999996 C 20.73 25.5, 20.58 25.560000000000002, 20.34 26.160000000000004 C 20.25 26.700000000000003, 20.235 26.475, 20.16 27.240000000000002 C 20.1 28.23, 20.07 28.2, 20.04 29.22 C 20.04 30.27, 19.875 30.375, 20.04 31.32 C 20.37 32.16, 20.310000000000002 32.28, 20.700000000000003 33 C 21.150000000000002 33.6, 21.105000000000004 33.795, 21.6 34.2 C 22.14 34.41, 22.02 34.545, 22.68 34.62 C 23.46 34.56, 23.340000000000003 34.815, 24.240000000000002 34.5 C 25.26 33.93, 25.35 33.96, 26.28 33.36 C 27.12 32.73, 27.270000000000003 32.74499999999999, 27.96 32.099999999999994 C 28.5 31.439999999999998, 28.71 31.455, 29.04 30.78 C 29.16 30.090000000000003, 29.22 30.225, 29.28 29.400000000000002 C 29.28 28.44, 29.415 28.32, 29.28 27.48 C 29.01 26.759999999999998, 28.950000000000003 26.564999999999998, 28.740000000000002 26.04 C 28.590000000000003 25.71, 28.770000000000003 25.770000000000003, 28.44 25.380000000000003 C 27.93 24.93, 27.915000000000003 24.795, 27.42 24.48 C 26.94 24.299999999999997, 26.94 24.314999999999998, 26.46 24.119999999999997 C 25.98 23.91, 25.995 23.910000000000004, 25.5 23.700000000000003 C 24.990000000000002 23.490000000000002, 24.765 23.385, 24.48 23.28 C 24.42 23.28, 24.435 23.28, 24.36 23.28 L 24.18 23.28" fill="none" stroke="black" stroke-width="2"></path><path d="M 18.36 30.36 C 18.75 30.21, 18.675 30.134999999999998, 19.14 30.06 C 19.68 30.06, 19.604999999999997 30.06, 20.22 30.06 C 20.91 30.06, 20.76 30.104999999999997, 21.6 30.06 C 22.590000000000003 29.97, 22.395000000000003 29.970000000000002, 23.580000000000002 29.880000000000003 C 24.96 29.790000000000003, 25.319999999999997 29.745000000000005, 26.339999999999996 29.700000000000003 C 27 29.700000000000003, 27.105000000000004 29.700000000000003, 27.660000000000004 29.700000000000003 C 28.11 29.700000000000003, 28.185 29.700000000000003, 28.56 29.700000000000003 C 28.86 29.700000000000003, 28.965000000000003 29.700000000000003, 29.160000000000004 29.700000000000003 L 29.339999999999996 29.700000000000003" fill="none" stroke="black" stroke-width="2"></path></svg>