<svg xmlns="http://www.w3.org/2000/svg" viewBox="8.006667137145996 3.619999885559082 20.313331604003906 40.880001068115234" width="20.313331604003906" height="40.880001068115234"><path d="M 11.040000000000001 43.5 C 10.71 42.3, 10.604999999999999 42.059999999999995, 10.379999999999999 41.099999999999994 C 10.26 40.379999999999995, 10.335 40.5, 10.14 39.660000000000004 C 9.870000000000001 38.7, 9.840000000000002 38.595, 9.600000000000001 37.74 C 9.39 36.99, 9.315 36.900000000000006, 9.18 36.24 C 9.120000000000001 35.67, 9.09 35.535, 9.06 35.099999999999994 C 9.06 34.8, 9.06 34.8, 9.06 34.5 C 9.06 34.2, 9.06 34.12500000000001, 9.06 33.900000000000006 C 9.06 33.75, 9.06 33.76499999999999, 9.06 33.599999999999994 C 9.06 33.42, 8.940000000000001 33.435, 9.06 33.24 C 9.3 33.03, 9.225000000000001 32.91, 9.540000000000001 32.82 C 9.93 32.85, 9.780000000000001 32.760000000000005, 10.32 32.88 C 11.01 33.09, 10.965 33.089999999999996, 11.7 33.3 C 12.48 33.51, 12.629999999999999 33.585, 13.26 33.72 C 13.74 33.78, 13.515 33.855, 14.22 33.839999999999996 C 15.150000000000002 33.75, 15.315000000000001 34.050000000000004, 16.080000000000002 33.660000000000004 C 16.68 32.97, 16.740000000000002 33.375, 17.28 32.28 C 17.76 30.78, 17.94 30.645000000000003, 18.240000000000002 29.28 C 18.36 28.05, 18.42 27.84, 18.48 26.82 C 18.48 26.01, 18.48 25.725, 18.48 25.200000000000003 C 18.48 24.96, 18.48 24.84, 18.48 24.72 C 18.48 24.72, 18.48 24.599999999999998, 18.48 24.72 C 18.48 24.96, 18.48 24.525000000000002, 18.48 25.200000000000003 C 18.48 26.310000000000002, 18.405 26.070000000000004, 18.48 27.42 C 18.630000000000003 29.009999999999998, 18.555 29.384999999999998, 18.78 30.599999999999998 C 19.08 31.439999999999998, 18.84 31.575, 19.38 32.28 C 20.16 32.85, 20.295 33.105000000000004, 20.94 33.42 C 21.450000000000003 33.480000000000004, 21.240000000000002 33.57, 21.96 33.54 C 22.89 33.42, 22.89 33.915, 23.82 33.3 C 24.75 32.19, 24.975 32.205, 25.68 31.08 C 26.16 29.939999999999998, 26.25 29.999999999999996, 26.64 28.799999999999997 C 26.94 27.54, 27.090000000000003 27.975, 27.240000000000002 26.28 C 27.240000000000002 24.15, 27.42 24.585, 27.240000000000002 22.02 C 26.880000000000003 19.02, 26.865000000000002 18.63, 26.52 16.02 C 26.189999999999998 13.8, 26.16 13.32, 25.86 11.58 C 25.59 10.32, 25.605 10.05, 25.32 9.06 C 25.02 8.34, 25.049999999999997 8.4, 24.72 7.62 C 24.36 6.779999999999999, 24.27 6.569999999999999, 24 5.9399999999999995 C 23.82 5.52, 23.805 5.43, 23.64 5.1 C 23.490000000000002 4.859999999999999, 23.415 4.74, 23.34 4.62 C 23.34 4.62, 23.34 4.62, 23.34 4.62 L 23.34 4.62" fill="none" stroke="black" stroke-width="2"></path><path d="M 15.899999999999999 8.52 C 15.45 8.399999999999999, 15.66 8.1, 15 8.28 C 14.129999999999999 8.76, 14.115 8.64, 13.26 9.24 C 12.42 9.96, 12.195 9.615, 11.58 10.68 C 11.190000000000001 12.09, 10.995000000000001 12.36, 10.8 13.5 C 10.8 14.370000000000001, 10.5 14.175, 10.8 15.24 C 11.4 16.5, 11.25 16.935, 12 17.759999999999998 C 12.899999999999999 18.15, 12.945 18.345, 13.799999999999999 18.54 C 14.61 18.54, 14.579999999999998 18.825, 15.419999999999998 18.54 C 16.29 17.97, 16.47 18.119999999999997, 17.16 17.4 C 17.67 16.53, 17.895 16.725, 18.18 15.66 C 18.24 14.4, 18.299999999999997 14.235000000000001, 18.299999999999997 13.14 C 18.24 12.21, 18.36 11.94, 18.18 11.28 C 17.880000000000003 10.89, 17.895000000000003 10.875, 17.580000000000002 10.5 C 17.25 10.14, 17.279999999999998 10.125, 16.919999999999998 9.78 C 16.53 9.45, 16.455 9.330000000000002, 16.14 9.120000000000001 C 15.9 9.030000000000001, 15.780000000000001 8.985, 15.66 8.94 L 15.66 8.94" fill="none" stroke="black" stroke-width="2"></path></svg>