<svg xmlns="http://www.w3.org/2000/svg" viewBox="9.006667137145996 1.9066667556762695 23.986663818359375 43.973334312438965" width="23.986663818359375" height="43.973334312438965"><path d="M 11.28 44.88 C 11.129999999999999 43.32, 11.22 43.394999999999996, 10.98 41.76 C 10.65 40.05, 10.56 40.125, 10.32 38.339999999999996 C 10.17 36.48, 10.094999999999999 36.375, 10.02 34.62 C 10.02 32.97, 10.02 33.015, 10.02 31.32 C 10.02 29.58, 10.02 29.369999999999997, 10.02 27.839999999999996 C 10.02 26.52, 9.989999999999998 26.520000000000003, 10.02 25.200000000000003 C 10.08 23.880000000000003, 10.005 23.535, 10.14 22.56 C 10.350000000000001 21.93, 10.245000000000001 22.004999999999995, 10.56 21.299999999999997 C 10.98 20.52, 10.874999999999998 20.43, 11.399999999999999 19.740000000000002 C 12.03 19.14, 12.09 19.005, 12.66 18.54 C 13.17 18.21, 13.035 18.075, 13.68 17.88 C 14.46 17.82, 14.625 17.79, 15.24 17.759999999999998 C 15.690000000000001 17.759999999999998, 15.765 17.699999999999996, 16.14 17.759999999999998 C 16.44 17.88, 16.335 17.61, 16.740000000000002 18 C 17.25 18.66, 17.415 18.675, 17.759999999999998 19.32 C 17.939999999999998 19.950000000000003, 17.97 19.92, 18.12 20.580000000000002 C 18.240000000000002 21.270000000000003, 18.3 21.195, 18.36 21.96 C 18.36 22.8, 18.314999999999998 22.950000000000003, 18.36 23.64 C 18.45 24.18, 18.45 24.33, 18.54 24.72 C 18.63 24.96, 18.674999999999997 25.080000000000002, 18.72 25.200000000000003 C 18.72 25.200000000000003, 18.72 25.200000000000003, 18.72 25.200000000000003 C 18.72 25.200000000000003, 18.689999999999998 25.215000000000003, 18.72 25.200000000000003 C 18.78 25.17, 18.735 25.545, 18.84 25.14 C 18.990000000000002 24.36, 19.065 24.12, 19.14 23.580000000000002 C 19.14 23.28, 19.05 23.34, 19.14 22.98 C 19.32 22.560000000000002, 19.259999999999998 22.635, 19.5 22.14 C 19.8 21.57, 19.635 21.66, 20.1 21 C 20.73 20.25, 20.805 20.025, 21.36 19.5 C 21.84 19.2, 21.57 19.229999999999997, 22.32 18.9 C 23.34 18.54, 23.43 18.33, 24.36 18.18 C 25.2 18.24, 25.259999999999998 18.029999999999998, 26.04 18.299999999999997 C 26.759999999999998 18.779999999999998, 26.759999999999998 18.54, 27.48 19.259999999999998 C 28.200000000000003 20.22, 28.17 19.89, 28.92 21.18 C 29.700000000000003 22.8, 29.85 22.845000000000002, 30.48 24.42 C 30.96 25.950000000000003, 31.110000000000003 26.01, 31.44 27.48 C 31.619999999999997 28.89, 31.665 29.069999999999997, 31.799999999999997 30.299999999999997 C 31.89 31.35, 31.935 31.140000000000008, 31.98 32.400000000000006 C 31.98 33.870000000000005, 31.98 34.26, 31.98 35.339999999999996 C 31.98 36.03, 32.01 35.955, 31.98 36.72 C 31.92 37.56, 31.95 37.650000000000006, 31.86 38.400000000000006 C 31.74 39.06, 31.83 38.97, 31.619999999999997 39.72 C 31.32 40.56, 31.259999999999998 40.69500000000001, 31.02 41.400000000000006 C 30.840000000000003 41.97, 30.765000000000004 42.18, 30.660000000000004 42.54 C 30.630000000000003 42.69, 30.615 42.765, 30.599999999999998 42.839999999999996 L 30.599999999999998 42.839999999999996" fill="none" stroke="black" stroke-width="2"></path><path d="M 19.56 3.06 C 18.72 3.06, 18.72 2.7150000000000003, 17.88 3.06 C 17.04 3.75, 16.785000000000004 3.6749999999999994, 16.200000000000003 4.4399999999999995 C 15.870000000000001 5.279999999999999, 15.75 5.355, 15.54 6.12 C 15.45 6.8100000000000005, 15.329999999999998 6.6, 15.36 7.5 C 15.51 8.61, 15.254999999999999 8.715, 15.66 9.72 C 16.32 10.620000000000001, 16.32 10.799999999999999, 16.98 11.52 C 17.64 12.06, 17.684999999999995 12.285000000000002, 18.299999999999997 12.600000000000001 C 18.869999999999997 12.690000000000001, 18.975 12.735, 19.44 12.78 C 19.8 12.78, 19.77 13.004999999999999, 20.16 12.78 C 20.58 12.329999999999998, 20.58 12.344999999999999, 21 11.879999999999999 C 21.42 11.399999999999999, 21.585 11.25, 21.84 10.92 C 21.93 10.74, 21.93 10.8, 22.02 10.56 C 22.11 10.26, 22.080000000000002 10.469999999999999, 22.200000000000003 9.959999999999999 C 22.35 9.239999999999998, 22.425 9.195, 22.5 8.52 C 22.5 7.89, 22.5 7.785, 22.5 7.26 C 22.5 6.84, 22.5 6.87, 22.5 6.42 C 22.5 5.9399999999999995, 22.59 5.9399999999999995, 22.5 5.46 C 22.32 4.98, 22.44 4.905, 22.14 4.5 C 21.72 4.17, 21.674999999999997 4.0649999999999995, 21.299999999999997 3.84 C 20.97 3.7199999999999998, 20.955 3.7049999999999996, 20.64 3.5999999999999996 C 20.34 3.51, 20.46 3.4949999999999997, 20.04 3.42 L 18.96 3.3000000000000003" fill="none" stroke="black" stroke-width="2"></path><path d="M 20.34 33.72 C 19.740000000000002 34.230000000000004, 19.35 34.155, 19.14 34.74 C 19.32 35.400000000000006, 19.17 35.7, 19.5 36.06 C 19.98 36.120000000000005, 19.905 36.644999999999996, 20.46 36.18 C 21.09 35.19, 21.765 35.190000000000005, 21.72 34.2 C 21 33.21, 20.865000000000002 32.655, 20.28 32.22 C 19.83 32.34, 19.68 31.98, 19.38 32.46 C 19.23 33.3, 19.020000000000003 33.345, 19.080000000000002 34.14 C 19.35 34.89, 19.155 35.355000000000004, 19.62 35.64 C 20.28 35.46, 20.490000000000002 35.775, 20.94 35.28 C 21.18 34.47, 21.615 34.230000000000004, 21.419999999999998 33.660000000000004 C 20.79 33.33, 20.79 32.730000000000004, 20.16 33 C 19.53 33.870000000000005, 19.229999999999997 33.675000000000004, 18.9 34.74 C 18.869999999999997 36, 18.689999999999998 36.57, 18.84 37.26 C 19.17 37.379999999999995, 19.215 37.905, 19.5 37.5 C 19.740000000000002 36.57, 19.95 36.33, 19.98 35.64 C 19.8 35.19, 19.86 34.980000000000004, 19.62 34.74 C 19.32 34.71, 19.305 34.365, 19.02 34.68 C 18.75 35.34, 18.54 35.625, 18.48 36 C 18.630000000000003 36.09, 18.57 36.36, 18.78 36.18 L 19.32 35.28" fill="none" stroke="black" stroke-width="2"></path></svg>