<svg xmlns="http://www.w3.org/2000/svg" viewBox="10.139999389648438 5.71999979019165 19.799015045166016 42.19999694824219" width="19.799015045166016" height="42.19999694824219"><path d="M 11.7 40.019999999999996 C 12.42 40.11, 11.79 40.17, 13.14 40.2 C 15.120000000000001 40.17, 15.810000000000002 40.155, 17.1 40.14 C 17.7 40.14, 17.894999999999996 40.14, 18.299999999999997 40.14 C 18.509999999999998 40.14, 18.57 40.14, 18.72 40.14 C 18.81 40.14, 18.854999999999997 40.14, 18.9 40.14 L 18.9 40.14" fill="none" stroke="black" stroke-width="2"></path><path d="M 11.879999999999999 46.92 C 11.879999999999999 46.26, 11.924999999999999 46.334999999999994, 11.879999999999999 45.599999999999994 C 11.79 44.79, 11.79 44.85, 11.7 43.980000000000004 C 11.61 43.05, 11.565 42.915, 11.52 42.12 C 11.52 41.459999999999994, 11.565 41.775, 11.52 40.8 C 11.43 39.51, 11.43 39.269999999999996, 11.34 38.22 C 11.25 37.41, 11.205 37.574999999999996, 11.16 36.599999999999994 C 11.16 35.459999999999994, 11.16 35.19, 11.16 34.32 C 11.16 33.72, 11.115 33.66, 11.16 33.12 C 11.25 32.64, 11.175 32.49, 11.34 32.160000000000004 C 11.58 31.98, 11.055 31.95, 11.82 31.799999999999997 C 13.11 31.68, 13.094999999999999 31.619999999999997, 14.399999999999999 31.56 C 15.719999999999999 31.56, 15.674999999999999 31.56, 17.04 31.56 C 18.45 31.56, 18.285 31.544999999999998, 19.86 31.56 C 21.6 31.589999999999996, 21.72 31.604999999999997, 23.34 31.619999999999997 C 24.839999999999996 31.619999999999997, 25.439999999999998 31.65, 26.339999999999996 31.619999999999997 C 26.64 31.56, 26.625 31.634999999999998, 26.94 31.5 C 27.27 31.29, 27.15 31.695, 27.599999999999998 31.08 C 28.17 30.06, 28.41 30.24, 28.740000000000002 29.04 C 28.830000000000002 27.66, 28.995 27.810000000000002, 28.92 26.28 C 28.68 24.6, 28.770000000000003 24.99, 28.44 22.919999999999998 C 28.02 20.46, 27.959999999999997 20.115, 27.599999999999998 18 C 27.299999999999997 16.23, 27.285 16.005000000000003, 27 14.46 C 26.73 13.14, 26.685000000000002 12.945, 26.46 11.82 C 26.28 10.89, 26.205 10.785, 26.099999999999998 9.959999999999999 C 26.07 9.239999999999998, 26.13 9.285, 26.04 8.52 C 25.89 7.709999999999999, 25.830000000000002 7.35, 25.740000000000002 6.8999999999999995 C 25.71 6.8100000000000005, 25.695 6.765000000000001, 25.68 6.720000000000001 C 25.68 6.720000000000001, 25.68 6.720000000000001, 25.68 6.720000000000001 L 25.68 6.720000000000001" fill="none" stroke="black" stroke-width="2"></path><path d="M 18.12 13.14 C 17.79 13.110000000000001, 18.03 13.005000000000003, 17.46 13.080000000000002 C 16.65 13.260000000000002, 16.665 12.975000000000001, 15.84 13.440000000000001 C 15 14.190000000000001, 14.985 14.130000000000003, 14.16 14.940000000000001 C 13.35 15.81, 13.035 15.66, 12.54 16.68 C 12.36 17.85, 12.044999999999998 17.85, 12.18 19.02 C 12.63 20.189999999999998, 12.555000000000001 20.46, 13.080000000000002 21.36 C 13.68 21.990000000000002, 13.41 22.215, 14.28 22.62 C 15.419999999999998 22.8, 15.434999999999999 22.995, 16.56 22.98 C 17.67 22.77, 17.835 23.009999999999998, 18.78 22.56 C 19.560000000000002 21.869999999999997, 19.634999999999998 22.155, 20.34 21.18 C 20.97 19.92, 21.225 19.59, 21.6 18.66 C 21.72 18.060000000000002, 21.825 18.12, 21.84 17.46 C 21.75 16.740000000000002, 21.945 16.74, 21.66 16.02 C 21.18 15.3, 21.225 15.225000000000001, 20.700000000000003 14.580000000000002 C 20.130000000000003 14.010000000000002, 20.009999999999998 13.860000000000003, 19.56 13.440000000000001 C 19.229999999999997 13.17, 19.185 13.094999999999999, 18.9 12.899999999999999 C 18.659999999999997 12.78, 18.615 12.719999999999999, 18.419999999999998 12.66 C 18.27 12.66, 18.195 12.66, 18.12 12.66 L 18.12 12.66" fill="none" stroke="black" stroke-width="2"></path></svg>