<svg xmlns="http://www.w3.org/2000/svg" viewBox="10.206665992736816 1.6400001049041748 25.13333511352539 45.49999928474426" width="25.13333511352539" height="45.49999928474426"><path d="M 23.34 2.7 C 22.259999999999998 2.85, 22.14 2.7750000000000004, 21.18 3 C 20.34 3.3, 20.384999999999998 2.8499999999999996, 19.5 3.5999999999999996 C 18.57 4.8, 18.315 4.904999999999999, 17.64 6 C 17.22 6.99, 17.084999999999997 6.84, 16.799999999999997 7.98 C 16.65 9.27, 16.53 9.63, 16.5 10.56 C 16.59 11.129999999999999, 16.335 11.069999999999999, 16.68 11.7 C 17.28 12.39, 16.935 12.405000000000001, 17.88 13.080000000000002 C 19.17 13.74, 19.305 14.024999999999999, 20.46 14.399999999999999 C 21.48 14.49, 21.555 14.700000000000003, 22.5 14.580000000000002 C 23.37 14.25, 23.43 14.354999999999999, 24.240000000000002 13.919999999999998 C 24.990000000000002 13.379999999999999, 25.065 13.455, 25.740000000000002 12.84 C 26.340000000000003 12.149999999999999, 26.535000000000004 12.149999999999999, 26.94 11.459999999999999 C 27.15 10.77, 27.225 10.875, 27.36 10.08 C 27.42 9.18, 27.45 8.955, 27.48 8.28 C 27.48 7.83, 27.525000000000002 8.07, 27.48 7.38 C 27.39 6.45, 27.464999999999996 6.2700000000000005, 27.299999999999997 5.5200000000000005 C 27.06 4.95, 27.075 4.8, 26.82 4.38 C 26.55 4.109999999999999, 26.715000000000003 4.154999999999999, 26.28 3.84 C 25.68 3.48, 25.845 3.42, 25.08 3.12 C 24.15 2.88, 23.909999999999997 2.7600000000000002, 23.22 2.64 C 22.77 2.64, 22.545 2.64, 22.32 2.64 C 22.32 2.64, 22.32 2.64, 22.32 2.64 L 22.32 2.64" fill="none" stroke="black" stroke-width="2"></path><path d="M 12 29.339999999999996 C 12.06 29.099999999999998, 12.180000000000001 29.669999999999998, 12.120000000000001 28.86 C 11.940000000000001 27.479999999999997, 11.97 27.525, 11.76 26.099999999999998 C 11.52 24.63, 11.399999999999999 24.375, 11.28 23.16 C 11.28 22.200000000000003, 11.28 21.87, 11.28 21.240000000000002 C 11.28 20.94, 11.114999999999998 21.045, 11.28 20.64 C 11.61 20.130000000000003, 11.445 20.01, 11.94 19.62 C 12.6 19.35, 12.6 19.26, 13.26 19.080000000000002 C 13.920000000000002 18.990000000000002, 13.620000000000001 18.945, 14.580000000000002 18.9 C 15.840000000000002 18.9, 15.645000000000003 18.9, 17.1 18.9 C 18.75 18.9, 18.314999999999998 18.9, 20.4 18.9 C 22.92 18.9, 23.475 18.945, 25.44 18.9 C 26.85 18.81, 26.849999999999998 18.765, 28.259999999999998 18.72 C 29.669999999999998 18.72, 30.119999999999997 18.72, 31.08 18.72 C 31.589999999999996 18.72, 31.64999999999999 18.63, 32.099999999999994 18.72 C 32.489999999999995 18.9, 32.505 18.78, 32.88 19.080000000000002 C 33.239999999999995 19.5, 33.33 19.395, 33.599999999999994 19.919999999999998 C 33.78 20.549999999999997, 33.78 20.549999999999997, 33.96 21.18 C 34.14 21.810000000000002, 34.230000000000004 21.765, 34.32 22.44 C 34.32 23.16, 34.32 23.07, 34.32 23.88 C 34.32 24.78, 34.32 25.155, 34.32 25.68 C 34.32 25.83, 34.32 25.905, 34.32 25.98 C 34.32 25.98, 34.32 25.905, 34.32 25.98 C 34.32 26.130000000000003, 34.365 26.025000000000002, 34.32 26.28 C 34.230000000000004 26.64, 34.230000000000004 26.55, 34.14 27 C 34.05 27.54, 34.005 27.735, 33.96 28.08 C 33.96 28.23, 33.96 28.275000000000002, 33.96 28.380000000000003 L 33.96 28.5" fill="none" stroke="black" stroke-width="2"></path><path d="M 23.16 19.200000000000003 C 23.16 19.89, 23.145 19.410000000000004, 23.16 20.580000000000002 C 23.189999999999998 22.23, 22.98 22.185, 23.22 23.88 C 23.669999999999998 25.619999999999997, 23.534999999999997 25.935, 24.119999999999997 27.36 C 24.839999999999996 28.47, 24.735 28.56, 25.56 29.58 C 26.490000000000002 30.509999999999998, 26.565 30.765, 27.42 31.44 C 28.200000000000003 31.86, 28.11 31.860000000000003, 28.98 32.28 C 29.94 32.7, 30.045 32.76, 30.900000000000002 33.12 C 31.650000000000006 33.42, 31.770000000000007 33.449999999999996, 32.400000000000006 33.72 C 32.910000000000004 33.96, 33.09 34.035000000000004, 33.42 34.2 C 33.57 34.290000000000006, 33.644999999999996 34.335, 33.72 34.38 C 33.72 34.38, 33.72 34.38, 33.72 34.38 C 33.72 34.38, 33.675 34.335, 33.72 34.38 C 33.81 34.47, 33.870000000000005 34.440000000000005, 33.900000000000006 34.56 C 33.870000000000005 34.71, 34.065 34.665, 33.839999999999996 34.86 C 33.42 35.099999999999994, 33.705 35.06999999999999, 33 35.339999999999996 C 32.01 35.64, 31.995 35.73, 31.02 35.94 C 30.06 36.06, 30.029999999999998 35.955, 29.099999999999998 36.18 C 28.199999999999996 36.51, 28.365 36.434999999999995, 27.299999999999997 36.839999999999996 C 26.069999999999997 37.31999999999999, 26.084999999999994 37.214999999999996, 24.839999999999996 37.8 C 23.58 38.489999999999995, 23.564999999999998 38.4, 22.32 39.18 C 21.09 40.05, 20.79 40.2, 19.86 40.92 C 19.23 41.49, 19.26 41.31, 18.6 42.06 C 17.91 42.99, 17.775 43.095, 17.22 43.92 C 16.799999999999997 44.64, 16.619999999999997 44.955, 16.38 45.36 C 16.32 45.45, 16.29 45.345, 16.259999999999998 45.54 C 16.259999999999998 45.84, 16.259999999999998 45.99, 16.259999999999998 46.14 C 16.259999999999998 46.14, 16.259999999999998 46.14, 16.259999999999998 46.14 L 16.259999999999998 46.14" fill="none" stroke="black" stroke-width="2"></path><path d="M 11.82 34.92 C 12.12 34.92, 11.594999999999999 34.83, 12.419999999999998 34.92 C 13.77 35.1, 13.95 35.04, 15.120000000000001 35.28 C 16.11 35.58, 16.17 35.43000000000001, 17.1 35.88 C 17.97 36.480000000000004, 18.105 36.525, 18.84 37.08 C 19.439999999999998 37.589999999999996, 19.575 37.67999999999999, 20.04 38.099999999999994 C 20.37 38.42999999999999, 20.385000000000005 38.41499999999999, 20.700000000000003 38.76 C 21 39.120000000000005, 21.104999999999997 39.27, 21.299999999999997 39.480000000000004 C 21.39 39.54, 21.435 39.56999999999999, 21.48 39.599999999999994 C 21.48 39.599999999999994, 21.48 39.599999999999994, 21.48 39.599999999999994 L 21.48 39.599999999999994" fill="none" stroke="black" stroke-width="2"></path></svg>