<svg xmlns="http://www.w3.org/2000/svg" viewBox="7.100000381469727 1.1600000858306885 30.239999771118164 41.686668395996094" width="30.239999771118164" height="41.686668395996094"><path d="M 13.98 2.16 C 13.92 2.7300000000000004, 14.024999999999999 2.4300000000000006, 13.86 3.3000000000000003 C 13.59 4.47, 13.695 3.96, 13.32 5.64 C 12.84 7.83, 12.975 7.395, 12.36 10.02 C 11.61 13.08, 11.535 12.99, 10.86 16.14 C 10.26 19.380000000000003, 10.125 20.025000000000002, 9.66 22.62 C 9.33 24.57, 9.315000000000001 24.39, 9 26.52 C 8.7 28.83, 8.624999999999998 29.115000000000002, 8.399999999999999 31.14 C 8.25 32.879999999999995, 8.16 33.105, 8.100000000000001 34.62 C 8.13 35.91, 8.055 36, 8.16 37.2 C 8.34 38.31, 8.129999999999999 38.415000000000006, 8.52 39.42 C 9.120000000000001 40.32, 9.255 40.665, 9.72 41.22 C 10.05 41.43, 9.989999999999998 41.49, 10.379999999999999 41.64 C 10.829999999999998 41.730000000000004, 10.815 41.775, 11.28 41.82 C 11.76 41.82, 11.535 41.88, 12.24 41.82 C 13.170000000000002 41.7, 13.170000000000002 41.97, 14.100000000000001 41.58 C 15.030000000000001 40.92, 14.760000000000002 41.339999999999996, 15.96 40.26 C 17.43 38.76, 17.625 38.535, 18.9 37.26 C 19.979999999999997 36.21, 19.784999999999997 36.300000000000004, 21.06 35.160000000000004 C 22.53 33.93000000000001, 22.665 33.81, 24 32.7 C 25.200000000000003 31.71, 25.305 31.41, 26.400000000000002 30.72 C 27.39 30.33, 27.450000000000003 30.165, 28.380000000000003 29.94 C 29.25 29.880000000000003, 29.114999999999995 29.775000000000002, 30.119999999999997 29.82 C 31.26 29.97, 31.470000000000006 29.805, 32.400000000000006 30.119999999999997 C 33.120000000000005 30.599999999999998, 33.18 30.509999999999998, 33.839999999999996 31.08 C 34.44 31.740000000000002, 34.515 31.695000000000004, 35.04 32.400000000000006 C 35.489999999999995 33.150000000000006, 35.625 33.21000000000001, 35.94 33.900000000000006 C 36.12 34.53, 36.209999999999994 34.38000000000001, 36.3 35.160000000000004 C 36.3 36.09, 36.39 36.18, 36.3 37.019999999999996 C 36.12 37.769999999999996, 36.315 37.8, 35.94 38.519999999999996 C 35.37 39.21, 35.489999999999995 39.42, 34.8 39.900000000000006 C 33.989999999999995 40.17, 34.32 40.215, 33.18 40.44 C 31.71 40.62, 31.695 40.65, 30.240000000000002 40.8 C 28.8 40.92, 28.125 40.98, 27.36 41.04 C 27.27 41.04, 27.225 41.04, 27.18 41.04 C 27.18 41.04, 27.18 41.04, 27.18 41.04 L 27.18 41.04" fill="none" stroke="black" stroke-width="2"></path><path d="M 24.48 8.58 C 23.61 8.58, 23.67 8.4, 22.740000000000002 8.58 C 21.75 8.940000000000001, 21.765 8.535, 20.759999999999998 9.3 C 19.74 10.47, 19.349999999999998 10.38, 18.72 11.64 C 18.48 12.99, 18.36 13.08, 18.240000000000002 14.34 C 18.240000000000002 15.51, 17.895000000000003 15.51, 18.240000000000002 16.68 C 18.93 17.85, 18.540000000000003 17.955, 19.62 19.02 C 21.09 19.98, 20.835 20.385, 22.56 20.94 C 24.54 21.090000000000003, 25.155 21.345000000000002, 26.52 21.240000000000002 C 27.27 20.880000000000003, 27.33 21.15, 28.02 20.52 C 28.65 19.619999999999997, 28.86 19.59, 29.28 18.72 C 29.490000000000002 17.88, 29.550000000000004 17.835, 29.700000000000003 17.04 C 29.790000000000003 16.29, 29.835 16.349999999999998, 29.880000000000003 15.54 C 29.880000000000003 14.669999999999998, 30.120000000000005 14.624999999999998, 29.880000000000003 13.799999999999999 C 29.400000000000002 13.02, 29.625000000000004 13.185, 28.92 12.24 C 27.990000000000002 11.129999999999999, 27.705 10.74, 27.06 10.02 C 26.699999999999996 9.69, 26.729999999999997 9.66, 26.339999999999996 9.36 C 25.919999999999998 9.09, 25.95 8.97, 25.5 8.82 C 25.02 8.79, 24.93 8.775, 24.54 8.76 C 24.240000000000002 8.76, 24.09 8.76, 23.94 8.76 L 23.94 8.76" fill="none" stroke="black" stroke-width="2"></path></svg>