<svg xmlns="http://www.w3.org/2000/svg" viewBox="14.219999313354492 5.300000190734863 18.366666793823242 30.999999046325684" width="18.366666793823242" height="30.999999046325684"><path d="M 15.24 6.540000000000001 C 15.24 7.47, 15.24 7.3199999999999985, 15.24 8.399999999999999 C 15.24 9.629999999999999, 15.24 9.75, 15.24 10.86 C 15.24 11.85, 15.24 11.67, 15.24 12.84 C 15.24 14.19, 15.195 14.354999999999999, 15.24 15.54 C 15.329999999999998 16.560000000000002, 15.374999999999998 16.650000000000002, 15.419999999999998 17.580000000000002 C 15.419999999999998 18.42, 15.419999999999998 18.525, 15.419999999999998 19.259999999999998 C 15.419999999999998 19.89, 15.329999999999998 19.89, 15.419999999999998 20.52 C 15.599999999999998 21.15, 15.524999999999999 21.135, 15.78 21.78 C 16.11 22.44, 16.035 22.62, 16.44 23.1 C 16.92 23.400000000000002, 16.965 23.505000000000003, 17.4 23.700000000000003 C 17.79 23.79, 17.564999999999998 23.805, 18.18 23.88 C 19.02 23.939999999999998, 19.02 23.97, 19.86 24 C 20.7 24, 20.655 24, 21.54 24 C 22.47 24, 22.634999999999998 24, 23.4 24 C 24 24, 23.97 24, 24.599999999999998 24 C 25.259999999999998 24, 25.32 24.045, 25.92 24 C 26.46 23.91, 26.445 23.94, 27 23.82 C 27.57 23.67, 27.615000000000002 23.7, 28.14 23.52 C 28.619999999999997 23.310000000000002, 28.604999999999997 23.400000000000002, 29.099999999999998 23.1 C 29.61 22.71, 29.654999999999998 22.8, 30.119999999999997 22.32 C 30.54 21.75, 30.6 21.975, 30.96 21.18 C 31.259999999999998 20.16, 31.41 20.22, 31.56 19.14 C 31.56 18, 31.619999999999997 18, 31.56 16.86 C 31.439999999999998 15.72, 31.47 15.870000000000001, 31.32 14.580000000000002 C 31.14 13.14, 31.17 13.035, 30.96 11.7 C 30.72 10.469999999999999, 30.66 10.23, 30.48 9.24 C 30.36 8.49, 30.39 8.355, 30.240000000000002 7.74 C 30.060000000000002 7.26, 30.000000000000004 7.139999999999999, 29.880000000000003 6.779999999999999 C 29.82 6.54, 29.79 6.42, 29.759999999999998 6.300000000000001 C 29.759999999999998 6.300000000000001, 29.759999999999998 6.300000000000001, 29.759999999999998 6.300000000000001 L 29.759999999999998 6.300000000000001" fill="none" stroke="black" stroke-width="2"></path><path d="M 23.46 11.22 C 22.92 11.22, 22.98 11.100000000000001, 22.38 11.22 C 21.72 11.46, 21.735 11.25, 21.06 11.7 C 20.369999999999997 12.36, 20.174999999999997 12.405, 19.68 13.02 C 19.380000000000003 13.59, 19.23 13.56, 19.080000000000002 14.16 C 19.080000000000002 14.79, 18.945 14.669999999999998, 19.080000000000002 15.419999999999998 C 19.35 16.29, 19.155 16.32, 19.62 17.16 C 20.28 17.97, 20.325000000000003 18.21, 20.94 18.78 C 21.51 19.11, 21.39 19.245, 22.080000000000002 19.44 C 22.89 19.5, 22.92 19.65, 23.700000000000003 19.56 C 24.450000000000003 19.32, 24.585 19.5, 25.200000000000003 19.080000000000002 C 25.680000000000003 18.48, 25.830000000000005 18.375, 26.160000000000004 17.88 C 26.340000000000003 17.490000000000002, 26.28 17.67, 26.52 17.1 C 26.82 16.35, 26.97 16.245, 27.119999999999997 15.600000000000001 C 27.119999999999997 15.06, 27.209999999999997 15.059999999999999, 27.119999999999997 14.52 C 26.939999999999998 13.98, 27.014999999999997 13.950000000000001, 26.759999999999998 13.440000000000001 C 26.43 12.96, 26.489999999999995 12.915000000000001, 26.099999999999998 12.48 C 25.65 12.09, 25.635 12.059999999999999, 25.200000000000003 11.7 C 24.78 11.370000000000001, 24.765 11.25, 24.36 11.040000000000001 C 23.97 10.95, 23.85 10.905, 23.580000000000002 10.86 C 23.43 10.86, 23.355 10.86, 23.28 10.86 L 23.28 10.86" fill="none" stroke="black" stroke-width="2"></path><path d="M 22.68 32.58 C 22.29 32.58, 22.305 32.22, 21.9 32.58 C 21.479999999999997 33.3, 21.104999999999997 33.39, 21.06 34.019999999999996 C 21.39 34.559999999999995, 21.375 34.83, 21.72 35.099999999999994 C 22.08 35.099999999999994, 22.020000000000003 35.55, 22.44 35.099999999999994 C 22.92 34.199999999999996, 23.205 34.214999999999996, 23.4 33.3 C 23.31 32.37, 23.595 32.04, 23.22 31.44 C 22.56 31.17, 22.5 30.975, 21.9 30.900000000000002 C 21.36 31.020000000000003, 21.18 30.675, 20.82 31.14 C 20.64 31.95, 20.415 32.025, 20.46 32.76 C 20.73 33.42, 20.475 33.705, 21 34.08 C 21.78 34.17, 21.825 34.62, 22.56 34.26 C 23.25 33.45, 23.580000000000002 33.39, 23.94 32.64 C 23.97 31.95, 24.18 31.634999999999998, 24 31.259999999999998 C 23.61 31.2, 23.744999999999997 30.945, 23.22 31.14 C 22.56 31.59, 22.275 31.455, 21.9 32.04 C 21.81 32.760000000000005, 21.465 32.83500000000001, 21.72 33.480000000000004 C 22.32 34.05, 22.544999999999998 34.32, 22.919999999999998 34.62 C 23.07 34.65, 23.084999999999997 34.785, 23.22 34.68 L 23.46 34.2" fill="none" stroke="black" stroke-width="2"></path></svg>