<svg xmlns="http://www.w3.org/2000/svg" viewBox="12.493332862854004 0.7999999523162842 24.080001831054688 44.29999852180481" width="24.080001831054688" height="44.29999852180481"><path d="M 15.18 44.099999999999994 C 15.06 42.87, 15.09 42.975, 14.940000000000001 41.64 C 14.760000000000002 40.2, 14.715000000000003 40.23, 14.580000000000002 38.76 C 14.49 37.26, 14.549999999999999 37.155, 14.399999999999999 35.76 C 14.19 34.47, 14.16 34.365, 13.98 33.18 C 13.83 32.1, 13.8 32.265, 13.68 31.02 C 13.59 29.61, 13.545 29.595000000000002, 13.5 28.200000000000003 C 13.5 26.82, 13.5 26.700000000000003, 13.5 25.44 C 13.5 24.3, 13.485 24.105, 13.5 23.16 C 13.53 22.41, 13.469999999999999 22.425, 13.559999999999999 21.66 C 13.709999999999999 20.880000000000003, 13.649999999999999 20.82, 13.86 20.1 C 14.129999999999999 19.44, 14.189999999999998 19.305, 14.399999999999999 18.78 C 14.55 18.39, 14.49 18.375, 14.700000000000001 18 C 14.97 17.64, 14.82 17.775000000000002, 15.24 17.28 C 15.809999999999999 16.65, 15.764999999999999 16.515, 16.38 16.02 C 17.04 15.66, 16.965000000000003 15.569999999999999, 17.700000000000003 15.299999999999999 C 18.51 15.120000000000001, 18.42 15.120000000000001, 19.32 14.940000000000001 C 20.31 14.760000000000002, 20.279999999999998 14.715000000000003, 21.299999999999997 14.580000000000002 C 22.349999999999998 14.49, 22.379999999999995 14.504999999999999, 23.4 14.399999999999999 C 24.39 14.28, 24.480000000000004 14.265, 25.380000000000003 14.16 C 26.19 14.07, 26.325000000000003 14.025, 27 13.98 C 27.54 13.98, 27.615 13.98, 28.08 13.98 C 28.47 13.98, 28.47 13.98, 28.86 13.98 C 29.25 13.98, 29.25 13.965, 29.64 13.98 C 30.03 14.01, 30.105 14.009999999999998, 30.42 14.04 C 30.660000000000004 14.07, 30.660000000000004 14.025000000000002, 30.900000000000002 14.100000000000001 C 31.14 14.22, 31.215000000000003 14.265, 31.380000000000003 14.34 C 31.47 14.37, 31.439999999999998 14.309999999999999, 31.56 14.399999999999999 C 31.71 14.55, 31.68 14.46, 31.86 14.700000000000001 C 32.07 15.030000000000001, 32.115 15, 32.28 15.36 C 32.4 15.75, 32.42999999999999 15.63, 32.519999999999996 16.14 C 32.58 16.77, 32.61 16.86, 32.64 17.4 C 32.64 17.849999999999998, 32.730000000000004 17.775, 32.64 18.299999999999997 C 32.46 18.9, 32.61 18.705, 32.28 19.5 C 31.8 20.490000000000002, 32.085 20.22, 31.32 21.48 C 30.27 23.009999999999998, 30.255 23.145, 29.22 24.54 C 28.2 25.799999999999997, 27.945 26.159999999999997, 27.18 27.06 C 26.67 27.6, 26.625000000000004 27.630000000000003, 26.160000000000004 28.14 C 25.740000000000002 28.619999999999997, 25.53 28.86, 25.32 29.099999999999998 C 25.32 29.099999999999998, 25.32 29.099999999999998, 25.32 29.099999999999998 C 25.32 29.099999999999998, 25.32 29.099999999999998, 25.32 29.099999999999998 C 25.32 29.099999999999998, 25.32 29.099999999999998, 25.32 29.099999999999998 C 25.32 29.099999999999998, 25.365000000000002 29.025, 25.32 29.099999999999998 C 25.23 29.25, 25.080000000000002 29.295, 25.14 29.400000000000002 C 25.35 29.46, 25.335 29.445, 25.56 29.52 C 25.799999999999997 29.61, 25.814999999999998 29.655, 26.04 29.700000000000003 C 26.25 29.700000000000003, 26.115000000000002 29.700000000000003, 26.46 29.700000000000003 C 26.94 29.700000000000003, 26.910000000000004 29.715000000000003, 27.42 29.700000000000003 C 27.96 29.67, 27.884999999999998 29.655, 28.5 29.64 C 29.19 29.64, 29.28 29.64, 29.880000000000003 29.64 C 30.39 29.64, 30.300000000000004 29.46, 30.900000000000002 29.64 C 31.590000000000003 30, 31.605000000000004 29.85, 32.28 30.36 C 32.94 31.02, 32.97 30.810000000000002, 33.599999999999994 31.68 C 34.199999999999996 32.76, 34.379999999999995 33, 34.8 33.839999999999996 C 35.04 34.44, 35.115 34.379999999999995, 35.28 35.04 C 35.370000000000005 35.760000000000005, 35.415 35.775000000000006, 35.46 36.480000000000004 C 35.46 37.17, 35.715 37.185, 35.46 37.86 C 34.95 38.519999999999996, 34.949999999999996 38.625, 34.44 39.18 C 33.93 39.629999999999995, 34.425 39.81, 33.42 40.08 C 31.92 40.17, 32.055 40.184999999999995, 30.42 40.26 C 28.650000000000002 40.32, 28.050000000000004 40.35, 26.880000000000003 40.38 C 26.310000000000002 40.38, 26.025000000000002 40.38, 25.740000000000002 40.38 L 25.740000000000002 40.38" fill="none" stroke="black" stroke-width="2"></path><path d="M 21.78 2.0999999999999996 C 20.85 2.1599999999999997, 20.939999999999998 1.7249999999999996, 19.919999999999998 2.2199999999999998 C 18.810000000000002 3.15, 18.645000000000003 3.0149999999999997, 17.700000000000003 4.08 C 16.92 5.28, 16.62 5.550000000000001, 16.14 6.48 C 15.96 7.140000000000001, 15.794999999999998 7.035, 15.78 7.800000000000001 C 15.93 8.670000000000002, 15.645000000000001 8.835, 16.080000000000002 9.540000000000001 C 16.8 10.080000000000002, 16.53 10.215000000000002, 17.52 10.620000000000001 C 18.78 10.89, 19.02 11.145, 20.04 11.16 C 20.82 10.92, 20.925 11.01, 21.6 10.68 C 22.17 10.26, 22.26 10.305, 22.740000000000002 9.84 C 23.130000000000003 9.33, 23.265 9.39, 23.52 8.82 C 23.64 8.190000000000001, 23.7 8.13, 23.759999999999998 7.5600000000000005 C 23.759999999999998 7.050000000000001, 23.819999999999997 7.035000000000001, 23.759999999999998 6.540000000000001 C 23.64 6.0600000000000005, 23.73 6.24, 23.52 5.58 C 23.22 4.74, 23.279999999999998 4.575, 22.919999999999998 3.9000000000000004 C 22.5 3.39, 22.5 3.33, 22.080000000000002 2.88 C 21.660000000000004 2.4899999999999998, 21.585 2.3699999999999997, 21.240000000000002 2.0999999999999996 C 20.970000000000002 1.9499999999999997, 20.835 1.8749999999999998, 20.700000000000003 1.7999999999999998 L 20.700000000000003 1.7999999999999998" fill="none" stroke="black" stroke-width="2"></path></svg>