<svg xmlns="http://www.w3.org/2000/svg" viewBox="10.873332977294922 3.1735100746154785 19.586666107177734 42.586488246917725" width="19.586666107177734" height="42.586488246917725"><path d="M 12.54 39.36 C 12.93 39.42, 12.825 39.45, 13.32 39.480000000000004 C 13.92 39.480000000000004, 13.875 39.480000000000004, 14.52 39.480000000000004 C 15.209999999999999 39.480000000000004, 15.284999999999998 39.480000000000004, 15.899999999999999 39.480000000000004 C 16.439999999999998 39.480000000000004, 16.365000000000002 39.480000000000004, 16.98 39.480000000000004 C 17.67 39.480000000000004, 17.79 39.480000000000004, 18.36 39.480000000000004 C 18.81 39.480000000000004, 18.915 39.480000000000004, 19.259999999999998 39.480000000000004 C 19.5 39.480000000000004, 19.590000000000003 39.480000000000004, 19.740000000000002 39.480000000000004 L 19.86 39.480000000000004" fill="none" stroke="black" stroke-width="2"></path><path d="M 12.96 44.76 C 12.96 44.099999999999994, 13.005 44.16, 12.96 43.44 C 12.870000000000001 42.66, 12.87 42.63, 12.78 41.88 C 12.690000000000001 41.16, 12.675 41.099999999999994, 12.600000000000001 40.44 C 12.540000000000001 39.84, 12.57 39.93, 12.48 39.24 C 12.36 38.46, 12.3 38.655, 12.24 37.68 C 12.24 36.51, 12.285 36.599999999999994, 12.24 35.339999999999996 C 12.149999999999999 33.989999999999995, 12.149999999999999 33.78, 12.059999999999999 32.64 C 11.969999999999999 31.71, 11.924999999999999 31.785000000000004, 11.879999999999999 30.78 C 11.879999999999999 29.7, 11.879999999999999 29.519999999999996, 11.879999999999999 28.619999999999997 C 11.879999999999999 27.9, 11.864999999999998 28.034999999999997, 11.879999999999999 27.18 C 11.91 26.19, 11.895 25.950000000000003, 11.94 25.200000000000003 C 12 24.69, 11.985 24.705, 12.059999999999999 24.18 C 12.149999999999999 23.64, 12.195 23.490000000000002, 12.24 23.1 C 12.24 22.86, 12.195 22.830000000000002, 12.24 22.62 C 12.329999999999998 22.439999999999998, 12.344999999999999 22.5, 12.419999999999998 22.259999999999998 C 12.479999999999999 21.96, 12.464999999999998 22.005, 12.54 21.66 C 12.629999999999999 21.27, 12.615 21.24, 12.72 20.88 C 12.84 20.549999999999997, 12.855 20.505, 12.96 20.22 C 13.05 19.98, 12.870000000000001 19.980000000000004, 13.14 19.740000000000002 C 13.59 19.5, 13.155 19.604999999999997, 14.04 19.259999999999998 C 15.36 18.81, 15.405 18.794999999999998, 16.68 18.36 C 17.91 17.939999999999998, 17.895 17.835, 19.14 17.52 C 20.4 17.310000000000002, 20.745 17.265, 21.66 17.1 C 22.229999999999997 16.98, 22.169999999999998 16.92, 22.799999999999997 16.86 C 23.49 16.86, 23.64 16.86, 24.18 16.86 C 24.57 16.86, 24.525 16.86, 24.96 16.86 C 25.44 16.86, 25.560000000000002 16.77, 25.92 16.86 C 26.160000000000004 17.04, 25.950000000000003 16.71, 26.400000000000002 17.22 C 27.060000000000002 18.06, 27.18 17.58, 27.72 18.9 C 28.14 20.7, 28.185 20.49, 28.56 22.5 C 28.89 24.72, 29.04 24.51, 29.22 26.94 C 29.25 29.58, 29.265 30.24, 29.28 32.22 C 29.28 33.54, 29.28 33.269999999999996, 29.28 34.86 C 29.28 36.72, 29.235 37.019999999999996, 29.28 38.58 C 29.37 39.839999999999996, 29.415 40.10999999999999, 29.46 41.099999999999994 C 29.46 41.81999999999999, 29.46 42.105, 29.46 42.54 C 29.46 42.69, 29.46 42.69, 29.46 42.839999999999996 C 29.46 42.989999999999995, 29.46 42.945, 29.46 43.14 C 29.46 43.379999999999995, 29.46 43.425, 29.46 43.62 C 29.46 43.769999999999996, 29.46 43.845, 29.46 43.92 C 29.46 43.92, 29.46 43.92, 29.46 43.92 L 29.46 43.92" fill="none" stroke="black" stroke-width="2"></path><path d="M 20.04 4.26 C 19.740000000000002 4.2299999999999995, 20.04 4.124999999999999, 19.44 4.199999999999999 C 18.54 4.38, 18.345 4.155, 17.64 4.5600000000000005 C 17.130000000000003 5.19, 17.04 4.755000000000001, 16.62 5.82 C 16.29 7.32, 16.17 7.44, 15.96 8.82 C 15.870000000000001 10.08, 15.69 10.485, 15.78 11.34 C 16.05 11.79, 15.81 11.76, 16.32 12.24 C 17.07 12.75, 16.950000000000003 12.975, 17.82 13.26 C 18.81 13.32, 18.9 13.409999999999998, 19.799999999999997 13.379999999999999 C 20.61 13.26, 20.639999999999997 13.485, 21.419999999999998 13.14 C 22.169999999999998 12.57, 22.275 12.795, 22.919999999999998 12 C 23.46 10.98, 23.685 10.905, 24 9.959999999999999 C 24.09 9.09, 24.27 8.985000000000001, 24.18 8.22 C 23.91 7.5600000000000005, 23.985 7.47, 23.64 6.8999999999999995 C 23.22 6.42, 23.415 6.464999999999999, 22.799999999999997 5.9399999999999995 C 21.99 5.37, 21.915 5.175000000000001, 21.18 4.800000000000001 C 20.52 4.62, 20.415 4.529999999999999, 19.86 4.4399999999999995 C 19.41 4.4399999999999995, 19.23 4.4399999999999995, 18.96 4.4399999999999995 L 18.78 4.4399999999999995" fill="none" stroke="black" stroke-width="2"></path></svg>