<svg xmlns="http://www.w3.org/2000/svg" viewBox="8.813333511352539 2.4622128009796143 16.84666633605957 44.13778567314148" width="16.84666633605957" height="44.13778567314148"><path d="M 16.080000000000002 43.92 C 15.600000000000001 44.129999999999995, 15.840000000000002 44.114999999999995, 15.120000000000001 44.339999999999996 C 14.16 44.58, 13.875000000000002 44.7, 13.200000000000001 44.82 C 12.809999999999999 44.82, 12.839999999999998 44.82, 12.419999999999998 44.82 C 11.969999999999999 44.82, 11.864999999999998 44.82, 11.52 44.82 C 11.280000000000001 44.82, 11.16 44.82, 11.040000000000001 44.82 C 11.040000000000001 44.82, 11.085 44.82, 11.040000000000001 44.82 C 10.95 44.82, 10.905 44.82, 10.86 44.82 C 10.86 44.82, 10.86 44.82, 10.86 44.82 C 10.86 44.82, 10.889999999999999 44.82, 10.86 44.82 C 10.8 44.82, 10.77 44.82, 10.74 44.82 C 10.74 44.82, 10.785 44.82, 10.74 44.82 C 10.65 44.82, 10.605 44.82, 10.56 44.82 C 10.56 44.82, 10.59 44.82, 10.56 44.82 C 10.5 44.82, 10.469999999999999 44.82, 10.44 44.82 C 10.44 44.82, 10.44 44.82, 10.44 44.82 C 10.44 44.82, 10.44 44.82, 10.44 44.82 C 10.44 44.82, 10.44 44.82, 10.44 44.82 C 10.44 44.82, 10.485 44.82, 10.44 44.82 C 10.35 44.82, 10.365 44.94, 10.26 44.82 C 10.14 44.58, 10.08 45, 10.02 44.339999999999996 C 10.02 43.26, 10.065 43.425, 10.02 42.18 C 9.93 40.769999999999996, 9.885 40.739999999999995, 9.84 39.36 C 9.84 38.010000000000005, 9.84 38.175000000000004, 9.84 36.660000000000004 C 9.84 34.980000000000004, 9.78 35.055, 9.84 33.3 C 9.96 31.47, 9.870000000000001 31.41, 10.08 29.64 C 10.379999999999999 27.93, 10.469999999999999 27.6, 10.68 26.22 C 10.8 25.169999999999998, 10.725 25.349999999999998, 10.92 24.119999999999997 C 11.19 22.709999999999997, 11.204999999999998 22.529999999999994, 11.459999999999999 21.299999999999997 C 11.7 20.25, 11.745 20.145000000000003, 11.94 19.200000000000003 C 12.09 18.36, 12.135 18.015, 12.24 17.52 C 12.3 17.369999999999997, 12.33 17.294999999999998, 12.36 17.22 C 12.36 17.22, 12.299999999999999 17.279999999999998, 12.36 17.22 C 12.48 17.1, 12.420000000000002 16.95, 12.600000000000001 16.98 C 12.840000000000002 17.16, 12.840000000000003 17.01, 13.080000000000002 17.34 C 13.32 17.82, 13.305 17.654999999999998, 13.559999999999999 18.299999999999997 C 13.83 19.11, 13.815000000000001 18.779999999999998, 14.100000000000001 19.919999999999998 C 14.400000000000002 21.39, 14.475000000000001 21.21, 14.700000000000001 22.86 C 14.850000000000001 24.689999999999998, 14.925 25.11, 15 26.52 C 15 27.509999999999998, 15 27.855, 15 28.5 C 15 28.799999999999997, 15 28.95, 15 29.099999999999998 C 15 29.099999999999998, 14.925 29.294999999999998, 15 29.099999999999998 C 15.149999999999999 28.71, 15.104999999999999 28.994999999999997, 15.299999999999999 28.32 C 15.54 27.36, 15.434999999999999 27.660000000000004, 15.78 26.400000000000002 C 16.23 24.840000000000003, 16.245 24.645000000000003, 16.68 23.28 C 17.1 22.11, 17.175 21.855, 17.52 20.94 C 17.79 20.28, 17.729999999999997 20.16, 18.06 19.62 C 18.45 19.200000000000003, 18.45 19.05, 18.84 18.78 C 19.23 18.66, 19.155 18.555, 19.62 18.54 C 20.160000000000004 18.63, 20.070000000000004 18.09, 20.700000000000003 18.72 C 21.42 19.89, 21.57 19.724999999999998, 22.14 21.06 C 22.560000000000002 22.56, 22.59 21.779999999999998, 22.98 24.06 C 23.340000000000003 27.119999999999997, 23.415000000000003 27.09, 23.700000000000003 30.18 C 23.91 33.3, 23.895 33.42, 24.119999999999997 36.42 C 24.36 39.3, 24.479999999999997 40.005, 24.599999999999998 42.18 C 24.599999999999998 43.65, 24.584999999999997 44.265, 24.599999999999998 45.12 C 24.630000000000003 45.36, 24.645000000000003 45.48, 24.660000000000004 45.599999999999994 L 24.660000000000004 45.599999999999994" fill="none" stroke="black" stroke-width="2"></path><path d="M 18.54 3.66 C 17.79 3.6, 17.955 3.5250000000000004, 17.04 3.54 C 15.959999999999999 3.63, 15.884999999999998 3.21, 14.879999999999999 3.7199999999999998 C 13.95 4.65, 13.799999999999999 4.305, 13.02 5.58 C 12.39 7.2, 11.985 7.59, 11.76 8.82 C 11.940000000000001 9.66, 11.655000000000001 9.66, 12.120000000000001 10.5 C 12.870000000000001 11.34, 12.375 11.625, 13.620000000000001 12.18 C 15.360000000000001 12.45, 15.660000000000002 12.72, 17.1 12.72 C 18.240000000000002 12.45, 18.63 12.629999999999999, 19.38 12.18 C 19.740000000000002 11.55, 19.86 11.745000000000001, 20.1 10.92 C 20.22 9.899999999999999, 20.28 9.87, 20.34 8.879999999999999 C 20.34 7.919999999999999, 20.34 7.634999999999999, 20.34 6.959999999999999 C 20.34 6.569999999999999, 20.535 6.584999999999999, 20.34 6.18 C 19.95 5.76, 20.145 5.865, 19.56 5.34 C 18.78 4.71, 18.6 4.47, 18 4.08 C 17.58 3.93, 17.535 3.915, 17.16 3.7800000000000002 C 16.83 3.66, 16.665 3.6, 16.5 3.54 L 16.5 3.54" fill="none" stroke="black" stroke-width="2"></path></svg>