<svg xmlns="http://www.w3.org/2000/svg" viewBox="7.249726295471191 2.9000000953674316 25.070274353027344 39.39999771118164" width="25.070274353027344" height="39.39999771118164"><path d="M 14.16 3.9000000000000004 C 13.83 4.77, 14.04 4.140000000000001, 13.5 5.64 C 12.75 7.77, 12.645 7.574999999999998, 12 9.899999999999999 C 11.46 12.42, 11.34 12.780000000000001, 10.92 14.940000000000001 C 10.620000000000001 16.740000000000002, 10.665 16.455, 10.32 18.54 C 9.93 20.91, 9.945 20.94, 9.540000000000001 23.28 C 9.120000000000001 25.590000000000003, 8.955 25.950000000000003, 8.7 27.900000000000002 C 8.61 29.490000000000002, 8.625 29.505, 8.52 31.08 C 8.399999999999999 32.64, 8.325 32.7, 8.28 34.2 C 8.309999999999999 35.64, 8.16 35.894999999999996, 8.34 37.08 C 8.67 38.01, 8.7 38.355, 9 38.94 C 9.27 39.18, 9.030000000000001 39.045, 9.540000000000001 39.42 C 10.290000000000001 39.93, 10.305000000000001 40.035, 11.040000000000001 40.44 C 11.760000000000002 40.739999999999995, 11.760000000000002 40.845, 12.48 41.04 C 13.2 41.129999999999995, 13.274999999999999 41.235, 13.919999999999998 41.22 C 14.489999999999998 41.1, 14.264999999999997 41.475, 15.059999999999999 40.980000000000004 C 16.08 40.11, 16.215 40.14, 17.1 39.24 C 17.85 38.31, 17.85 38.265, 18.6 37.38 C 19.35 36.540000000000006, 19.14 36.525000000000006, 20.1 35.7 C 21.270000000000003 34.89, 21.195 34.754999999999995, 22.44 34.08 C 23.759999999999998 33.54, 23.834999999999997 33.36, 25.08 33 C 26.25 32.82, 26.37 32.61, 27.42 32.64 C 28.35 32.879999999999995, 28.605000000000004 32.80499999999999, 29.28 33.12 C 29.7 33.510000000000005, 29.744999999999997 33.465, 30.119999999999997 33.900000000000006 C 30.45 34.38, 30.495 33.885000000000005, 30.78 34.86 C 31.02 36.33, 31.14 36.675, 31.259999999999998 37.8 C 31.259999999999998 38.58, 31.394999999999996 38.714999999999996, 31.259999999999998 39.36 C 30.99 39.870000000000005, 31.11 39.93, 30.72 40.38 C 30.21 40.77, 30.375000000000004 40.935, 29.700000000000003 41.160000000000004 C 28.86 41.22, 28.755000000000003 41.25, 28.02 41.28 C 27.39 41.28, 27.269999999999996 41.325, 26.759999999999998 41.28 C 26.369999999999997 41.19, 26.564999999999998 41.39999999999999, 25.98 41.099999999999994 C 25.200000000000003 40.589999999999996, 25.155 40.665, 24.42 40.08 C 23.73 39.42, 23.55 39.42, 23.04 38.76 C 22.71 38.099999999999994, 22.619999999999997 38.01, 22.38 37.44 C 22.23 36.96, 22.215000000000003 36.84, 22.080000000000002 36.480000000000004 C 21.96 36.24, 21.990000000000002 36.36, 21.84 36 C 21.66 35.519999999999996, 21.615000000000002 35.445, 21.48 35.04 C 21.39 34.71, 21.345 34.545, 21.299999999999997 34.38 C 21.299999999999997 34.38, 21.299999999999997 34.38, 21.299999999999997 34.38 L 21.299999999999997 34.38" fill="none" stroke="black" stroke-width="2"></path><path d="M 24.42 10.92 C 23.880000000000003 10.89, 24 10.605, 23.34 10.86 C 22.560000000000002 11.399999999999999, 22.485 11.384999999999998, 21.78 11.94 C 21.15 12.510000000000002, 21.225 12.195000000000002, 20.52 13.080000000000002 C 19.740000000000002 14.280000000000001, 19.485 14.16, 18.96 15.48 C 18.689999999999998 16.92, 18.509999999999998 17.009999999999998, 18.419999999999998 18.36 C 18.509999999999998 19.619999999999997, 18.330000000000002 19.905, 18.6 20.88 C 19.05 21.57, 18.9 21.569999999999997, 19.5 22.259999999999998 C 20.25 22.95, 20.1 23.145, 21 23.64 C 22.05 23.94, 21.900000000000002 24.225, 23.1 24.240000000000002 C 24.45 23.970000000000002, 24.72 24.135000000000005, 25.799999999999997 23.700000000000003 C 26.61 23.1, 26.805 23.130000000000003, 27.42 22.5 C 27.84 21.84, 28.019999999999996 21.855, 28.259999999999998 21.18 C 28.32 20.49, 28.365000000000002 20.775, 28.380000000000003 19.799999999999997 C 28.35 18.54, 28.47 18.345, 28.32 17.28 C 28.05 16.41, 28.065 16.365, 27.78 15.54 C 27.48 14.76, 27.495 14.685, 27.18 13.98 C 26.85 13.350000000000001, 27.06 13.32, 26.52 12.72 C 25.77 12.15, 25.665 12.015, 25.02 11.58 C 24.48 11.280000000000001, 24.42 11.175, 23.94 10.98 C 23.520000000000003 10.89, 23.355000000000004 10.845, 23.1 10.8 L 22.919999999999998 10.8" fill="none" stroke="black" stroke-width="2"></path></svg>