<svg xmlns="http://www.w3.org/2000/svg" viewBox="12.086666107177734 2.7799999713897705 14.533334732055664 41.746668577194214" width="14.533334732055664" height="41.746668577194214"><path d="M 14.82 3.7800000000000002 C 14.64 5.01, 14.775000000000002 4.3950000000000005, 14.46 6.24 C 14.01 8.7, 13.829999999999998 8.91, 13.559999999999999 11.16 C 13.469999999999999 13.2, 13.469999999999999 13.545, 13.379999999999999 15.24 C 13.29 16.59, 13.245000000000001 16.59, 13.200000000000001 17.94 C 13.200000000000001 19.29, 13.200000000000001 19.41, 13.200000000000001 20.64 C 13.200000000000001 21.75, 13.200000000000001 21.705, 13.200000000000001 22.86 C 13.200000000000001 24.06, 13.200000000000001 24.434999999999995, 13.200000000000001 25.259999999999998 C 13.200000000000001 25.71, 12.945 25.680000000000003, 13.200000000000001 26.160000000000004 C 13.71 26.67, 13.23 26.715, 14.22 27.18 C 15.690000000000001 27.6, 15.885 27.72, 17.16 28.02 C 18.240000000000002 28.200000000000003, 18.15 28.290000000000003, 19.32 28.380000000000003 C 20.58 28.380000000000003, 20.79 28.380000000000003, 21.84 28.380000000000003 C 22.68 28.380000000000003, 22.83 28.515000000000004, 23.52 28.380000000000003 C 24.06 28.11, 24.179999999999996 28.244999999999997, 24.599999999999998 27.839999999999996 C 24.9 27.299999999999997, 24.990000000000002 27.72, 25.200000000000003 26.759999999999998 C 25.32 25.38, 25.380000000000003 25.439999999999998, 25.44 24 C 25.44 22.5, 25.44 22.59, 25.44 21 C 25.44 19.32, 25.44 19.080000000000002, 25.44 17.64 C 25.44 16.44, 25.395000000000003 16.755, 25.44 15.24 C 25.53 13.41, 25.575 13.455, 25.619999999999997 11.58 C 25.619999999999997 9.66, 25.619999999999997 9.165000000000001, 25.619999999999997 7.74 C 25.619999999999997 6.8100000000000005, 25.619999999999997 6.825, 25.619999999999997 5.88 C 25.619999999999997 4.92, 25.619999999999997 4.4399999999999995, 25.619999999999997 3.96 C 25.619999999999997 3.96, 25.619999999999997 3.96, 25.619999999999997 3.96 C 25.619999999999997 3.96, 25.619999999999997 3.96, 25.619999999999997 3.96 L 25.619999999999997 3.96" fill="none" stroke="black" stroke-width="2"></path><path d="M 19.38 32.519999999999996 C 18.299999999999997 32.58, 18.27 32.16, 17.22 32.64 C 16.2 33.54, 15.84 33.48, 15.18 34.44 C 14.88 35.46, 14.73 35.355000000000004, 14.580000000000002 36.480000000000004 C 14.580000000000002 37.71, 14.445000000000002 37.769999999999996, 14.580000000000002 38.94 C 14.850000000000001 40.05, 14.535000000000002 40.155, 15.120000000000001 41.160000000000004 C 16.02 42.06, 16.02 42.405, 16.919999999999998 42.96 C 17.82 43.17, 17.895 43.275000000000006, 18.72 43.38 C 19.47 43.38, 19.305 43.71, 20.22 43.38 C 21.299999999999997 42.72, 21.659999999999997 42.690000000000005, 22.38 42.06 C 22.740000000000002 41.46, 22.830000000000002 41.445, 23.1 40.86 C 23.28 40.29, 23.37 40.455, 23.46 39.72 C 23.46 38.82, 23.625 38.805, 23.46 37.92 C 23.13 37.05, 23.144999999999996 36.99, 22.799999999999997 36.18 C 22.439999999999998 35.43, 22.425 35.265, 22.080000000000002 34.68 C 21.75 34.26, 21.84 34.23, 21.419999999999998 33.839999999999996 C 20.909999999999997 33.48, 20.819999999999997 33.434999999999995, 20.4 33.12 C 20.07 32.849999999999994, 20.07 32.79, 19.740000000000002 32.58 C 19.410000000000004 32.43, 19.245 32.355000000000004, 19.080000000000002 32.28 C 19.080000000000002 32.28, 19.080000000000002 32.28, 19.080000000000002 32.28 L 19.080000000000002 32.28" fill="none" stroke="black" stroke-width="2"></path><path d="M 15.120000000000001 39.06 C 16.11 39.06, 15.645000000000001 39.120000000000005, 17.1 39.06 C 19.020000000000003 38.94, 19.515 38.925, 20.94 38.82 C 21.869999999999997 38.730000000000004, 22.29 38.685, 22.799999999999997 38.64 C 22.89 38.64, 22.905 38.64, 22.98 38.64 C 23.04 38.64, 23.07 38.64, 23.1 38.64 L 23.1 38.64" fill="none" stroke="black" stroke-width="2"></path></svg>