<svg xmlns="http://www.w3.org/2000/svg" viewBox="10.9399995803833 2.9000000953674316 21.139999389648438 44.05999755859375" width="21.139999389648438" height="44.05999755859375"><path d="M 12.059999999999999 3.9000000000000004 C 12.059999999999999 4.86, 12.059999999999999 4.3500000000000005, 12.059999999999999 5.82 C 12.059999999999999 7.8, 12.059999999999999 7.92, 12.059999999999999 9.78 C 12.059999999999999 11.52, 12.059999999999999 11.805, 12.059999999999999 13.26 C 12.059999999999999 14.43, 12.059999999999999 14.295000000000002, 12.059999999999999 15.600000000000001 C 12.059999999999999 17.04, 12.059999999999999 17.055, 12.059999999999999 18.48 C 12.059999999999999 19.89, 12.059999999999999 19.949999999999996, 12.059999999999999 21.299999999999997 C 12.059999999999999 22.589999999999996, 12.059999999999999 22.409999999999997, 12.059999999999999 23.88 C 12.059999999999999 25.53, 12.059999999999999 25.14, 12.059999999999999 27.18 C 12.059999999999999 29.61, 12.059999999999999 29.595, 12.059999999999999 32.04 C 12.059999999999999 34.5, 12.059999999999999 35.04, 12.059999999999999 36.96 C 12.059999999999999 38.34, 12.059999999999999 38.67, 12.059999999999999 39.72 C 12.059999999999999 40.44, 12.059999999999999 40.620000000000005, 12.059999999999999 41.160000000000004 C 12.059999999999999 41.52, 12.059999999999999 41.49, 12.059999999999999 41.88 C 12.059999999999999 42.3, 12.059999999999999 42.254999999999995, 12.059999999999999 42.72 C 12.059999999999999 43.230000000000004, 12.059999999999999 43.185, 12.059999999999999 43.74 C 12.059999999999999 44.34, 12.059999999999999 44.475, 12.059999999999999 44.94 C 12.059999999999999 45.269999999999996, 12.059999999999999 45.37499999999999, 12.059999999999999 45.599999999999994 C 12.059999999999999 45.72, 12.059999999999999 45.74999999999999, 12.059999999999999 45.839999999999996 L 12.059999999999999 45.96" fill="none" stroke="black" stroke-width="2"></path><path d="M 11.94 10.56 C 12.21 10.530000000000001, 12.030000000000001 10.395, 12.48 10.5 C 13.11 10.74, 13.14 10.59, 13.74 10.98 C 14.309999999999999 11.52, 14.28 11.474999999999998, 14.879999999999999 12.059999999999999 C 15.51 12.69, 15.525 12.6, 16.14 13.32 C 16.740000000000002 14.13, 16.755 13.98, 17.34 14.940000000000001 C 17.91 16.05, 18.060000000000002 16.245, 18.48 17.16 C 18.75 17.880000000000003, 18.825 18.105, 19.02 18.6 C 19.14 18.87, 19.2 19.005000000000003, 19.259999999999998 19.14 C 19.259999999999998 19.14, 19.214999999999996 19.125, 19.259999999999998 19.14 C 19.35 19.17, 19.335 19.455000000000002, 19.44 19.200000000000003 C 19.560000000000002 18.660000000000004, 19.365 18.78, 19.68 18.12 C 20.19 17.34, 20.055000000000003 17.325, 20.700000000000003 16.56 C 21.48 15.809999999999999, 21.555 15.659999999999998, 22.259999999999998 15.059999999999999 C 22.89 14.61, 22.935 14.46, 23.52 14.16 C 24.06 14.01, 23.7 14.114999999999998, 24.599999999999998 13.86 C 25.86 13.5, 25.935 13.350000000000001, 27.119999999999997 13.14 C 28.229999999999997 13.08, 28.469999999999995 13.05, 29.339999999999996 13.02 C 29.97 13.02, 30.165 13.02, 30.599999999999998 13.02 C 30.839999999999996 13.02, 30.959999999999997 13.02, 31.08 13.02 L 31.08 13.02" fill="none" stroke="black" stroke-width="2"></path><path d="M 23.88 28.08 C 22.92 28.439999999999998, 22.965 28.169999999999998, 21.96 28.799999999999997 C 20.91 29.699999999999996, 20.595 29.729999999999997, 19.86 30.599999999999998 C 19.439999999999998 31.439999999999998, 19.38 31.425, 19.02 32.28 C 18.72 33.15, 18.584999999999997 32.894999999999996, 18.419999999999998 34.019999999999996 C 18.39 35.4, 18.029999999999998 35.760000000000005, 18.36 36.78 C 19.05 37.44, 19.080000000000002 37.589999999999996, 19.740000000000002 38.099999999999994 C 20.37 38.459999999999994, 20.37 38.61, 21 38.82 C 21.63 38.879999999999995, 21.57 38.91, 22.259999999999998 38.94 C 23.009999999999998 38.94, 23.025 39.17999999999999, 23.759999999999998 38.94 C 24.48 38.46, 24.6 38.595, 25.200000000000003 37.980000000000004 C 25.680000000000003 37.230000000000004, 25.770000000000003 37.51500000000001, 26.160000000000004 36.480000000000004 C 26.46 35.16, 26.61 34.754999999999995, 26.759999999999998 33.839999999999996 C 26.759999999999998 33.33, 26.955 33.495, 26.759999999999998 32.82 C 26.369999999999997 31.98, 26.46 31.89, 25.98 31.14 C 25.409999999999997 30.48, 25.304999999999996 30.330000000000002, 24.839999999999996 29.82 C 24.479999999999997 29.46, 24.434999999999995 29.4, 24.119999999999997 29.099999999999998 C 23.85 28.86, 23.85 28.799999999999997, 23.580000000000002 28.619999999999997 C 23.310000000000002 28.5, 23.22 28.44, 23.04 28.380000000000003 C 22.95 28.380000000000003, 22.965 28.380000000000003, 22.86 28.380000000000003 L 22.62 28.380000000000003" fill="none" stroke="black" stroke-width="2"></path></svg>