<svg xmlns="http://www.w3.org/2000/svg" viewBox="9.493332862854004 5.239999771118164 20.668106079101562 33.19999885559082" width="20.668106079101562" height="33.19999885559082"><path d="M 19.86 8.040000000000001 C 18.990000000000002 7.800000000000001, 19.815 7.785000000000001, 18.12 7.5600000000000005 C 15.600000000000001 7.35, 14.820000000000002 7.245, 13.080000000000002 7.14 C 12.120000000000001 7.14, 11.64 7.14, 11.16 7.14 C 11.16 7.14, 11.16 7.14, 11.16 7.14 C 11.16 7.14, 11.16 7.14, 11.16 7.14 C 11.16 7.14, 11.19 6.975, 11.16 7.14 C 11.100000000000001 7.470000000000001, 11.07 7.065, 11.040000000000001 7.800000000000001 C 11.040000000000001 8.940000000000001, 11.100000000000001 9.075, 11.040000000000001 10.08 C 10.920000000000002 10.95, 10.935 10.950000000000001, 10.8 11.82 C 10.65 12.69, 10.575 12.735, 10.5 13.559999999999999 C 10.5 14.34, 10.485 14.595, 10.5 15.120000000000001 C 10.530000000000001 15.39, 10.440000000000001 15.345, 10.56 15.66 C 10.77 16.02, 10.695 16.035, 10.98 16.38 C 11.34 16.71, 11.37 16.755, 11.7 17.04 C 12 17.28, 11.879999999999999 17.28, 12.299999999999999 17.52 C 12.84 17.759999999999998, 12.944999999999999 17.88, 13.379999999999999 18 C 13.709999999999999 18, 13.469999999999999 18.045, 14.04 18 C 14.85 17.91, 15.045 18.105, 15.66 17.82 C 16.08 17.34, 16.17 17.46, 16.5 16.86 C 16.740000000000002 16.14, 16.86 16.169999999999998, 16.98 15.419999999999998 C 16.98 14.639999999999999, 16.98 14.34, 16.98 13.86 C 16.98 13.68, 16.98 13.59, 16.98 13.5 C 16.98 13.5, 16.815 13.155000000000001, 16.98 13.5 C 17.310000000000002 14.19, 17.265 14.174999999999999, 17.64 14.879999999999999 C 18.060000000000002 15.6, 17.955 15.795, 18.48 16.32 C 19.11 16.65, 18.6 16.62, 19.740000000000002 16.98 C 21.39 17.369999999999997, 21.555 17.61, 23.04 17.759999999999998 C 24.36 17.67, 24.57 17.880000000000003, 25.68 17.580000000000002 C 26.58 17.07, 26.655 17.445, 27.48 16.56 C 28.23 15.299999999999999, 28.56 15.075, 28.98 14.04 C 29.07 13.229999999999999, 29.175000000000004 13.649999999999999, 29.160000000000004 12.419999999999998 C 29.040000000000003 10.77, 29.160000000000004 10.485000000000001, 28.92 9.120000000000001 C 28.560000000000002 8.04, 28.470000000000006 7.68, 28.200000000000003 6.959999999999999 C 28.02 6.6, 27.93 6.42, 27.839999999999996 6.24 L 27.839999999999996 6.24" fill="none" stroke="black" stroke-width="2"></path><path d="M 20.88 16.740000000000002 C 21 17.1, 21.060000000000002 16.845, 21.12 17.46 C 21.12 18.330000000000002, 21.12 18.015, 21.12 19.200000000000003 C 21.12 20.700000000000003, 21.270000000000003 20.730000000000004, 21.12 22.200000000000003 C 20.82 23.64, 21.075 23.25, 20.52 25.08 C 19.71 27.299999999999997, 19.86 27.405, 18.9 29.52 C 17.79 31.53, 17.73 31.904999999999998, 16.68 33.54 C 15.690000000000001 34.8, 15.39 35.190000000000005, 14.700000000000001 36.06 C 14.309999999999999 36.54, 14.219999999999999 36.675, 13.919999999999998 37.019999999999996 L 13.5 37.44" fill="none" stroke="black" stroke-width="2"></path><path d="M 15.54 32.28 C 16.08 32.28, 15.57 32.235, 16.62 32.28 C 18.18 32.370000000000005, 17.805000000000003 32.415, 19.740000000000002 32.46 C 22.05 32.46, 22.425 32.505, 24.36 32.46 C 25.92 32.370000000000005, 26.505000000000003 32.370000000000005, 27.48 32.28 L 28.259999999999998 32.099999999999994" fill="none" stroke="black" stroke-width="2"></path></svg>