<svg xmlns="http://www.w3.org/2000/svg" viewBox="10.34000015258789 1.2200000286102295 19.446666717529297 44.96000027656555" width="19.446666717529297" height="44.96000027656555"><path d="M 13.32 18.6 C 13.32 19.83, 13.335 19.68, 13.32 21.06 C 13.29 22.589999999999996, 13.275 23.069999999999997, 13.26 24.119999999999997 C 13.26 24.689999999999998, 13.26 24.839999999999996, 13.26 25.259999999999998 C 13.26 25.529999999999998, 13.26 25.634999999999998, 13.26 25.799999999999997 C 13.26 25.86, 13.26 25.89, 13.26 25.92 C 13.26 25.92, 13.26 25.92, 13.26 25.92 C 13.26 25.92, 13.26 25.92, 13.26 25.92 C 13.26 25.92, 13.26 25.92, 13.26 25.92 C 13.26 25.92, 13.26 25.875000000000004, 13.26 25.92 C 13.26 26.009999999999998, 13.245 26.04, 13.26 26.099999999999998 C 13.29 26.130000000000003, 13.215 26.145000000000003, 13.32 26.160000000000004 C 13.5 26.160000000000004, 13.29 26.100000000000005, 13.68 26.160000000000004 C 14.28 26.28, 13.95 26.340000000000003, 14.879999999999999 26.400000000000002 C 16.14 26.400000000000002, 16.244999999999997 26.400000000000002, 17.4 26.400000000000002 C 18.45 26.400000000000002, 18.435 26.400000000000002, 19.5 26.400000000000002 C 20.58 26.400000000000002, 20.82 26.400000000000002, 21.66 26.400000000000002 C 22.259999999999998 26.400000000000002, 22.259999999999998 26.415000000000003, 22.86 26.400000000000002 C 23.46 26.369999999999997, 23.534999999999997 26.354999999999997, 24.06 26.339999999999996 C 24.509999999999998 26.339999999999996, 24.51 26.414999999999996, 24.96 26.339999999999996 C 25.41 26.189999999999998, 25.485 26.174999999999997, 25.86 26.04 C 26.16 25.919999999999998, 26.130000000000003 25.964999999999996, 26.46 25.799999999999997 C 26.82 25.59, 26.82 25.620000000000005, 27.18 25.380000000000003 C 27.54 25.11, 27.540000000000003 25.214999999999996, 27.900000000000002 24.839999999999996 C 28.259999999999998 24.36, 28.409999999999997 24.404999999999998, 28.619999999999997 23.88 C 28.68 23.310000000000002, 28.71 23.625, 28.740000000000002 22.740000000000002 C 28.740000000000002 21.54, 28.845000000000002 21.63, 28.740000000000002 20.34 C 28.53 18.96, 28.695 18.840000000000003, 28.32 17.580000000000002 C 27.78 16.44, 27.735000000000003 16.32, 27.240000000000002 15.299999999999999 C 26.79 14.399999999999999, 26.97 14.655, 26.339999999999996 13.5 C 25.529999999999998 12.09, 25.439999999999998 11.925, 24.72 10.68 C 24.09 9.6, 24.18 9.674999999999999, 23.46 8.52 C 22.65 7.29, 22.47 6.99, 21.84 6.0600000000000005 C 21.39 5.430000000000001, 21.345000000000002 5.4, 20.94 4.800000000000001 C 20.58 4.23, 20.58 4.17, 20.22 3.66 C 19.86 3.21, 19.68 2.9850000000000003, 19.5 2.7600000000000002 C 19.5 2.7600000000000002, 19.605 2.85, 19.5 2.7600000000000002 C 19.29 2.58, 19.230000000000004 2.5350000000000006, 19.080000000000002 2.4000000000000004 C 18.990000000000002 2.31, 18.945 2.2649999999999997, 18.9 2.2199999999999998 L 18.9 2.2199999999999998" fill="none" stroke="black" stroke-width="2"></path><path d="M 11.34 45.06 C 12.12 44.67, 12.149999999999999 44.790000000000006, 12.899999999999999 44.28 C 13.62 43.65, 13.575 43.815, 14.34 43.019999999999996 C 15.15 42.059999999999995, 15.375 41.93999999999999, 15.96 41.099999999999994 C 16.32 40.379999999999995, 16.35 40.30500000000001, 16.68 39.660000000000004 C 16.98 39.09, 16.92 39.419999999999995, 17.28 38.519999999999996 C 17.700000000000003 37.29, 17.73 37.410000000000004, 18.12 36.06 C 18.48 34.59, 18.585 34.41, 18.84 33.12 C 18.990000000000002 32.01, 19.005000000000003 31.740000000000002, 19.14 30.900000000000002 C 19.259999999999998 30.33, 19.259999999999998 30.615, 19.38 29.759999999999998 C 19.5 28.619999999999997, 19.515 28.275, 19.62 27.48 C 19.71 27.03, 19.755 26.849999999999998, 19.799999999999997 26.58 C 19.799999999999997 26.490000000000002, 19.799999999999997 26.445, 19.799999999999997 26.400000000000002 C 19.799999999999997 26.400000000000002, 19.799999999999997 26.400000000000002, 19.799999999999997 26.400000000000002 C 19.799999999999997 26.400000000000002, 19.799999999999997 26.400000000000002, 19.799999999999997 26.400000000000002 C 19.799999999999997 26.400000000000002, 19.799999999999997 26.400000000000002, 19.799999999999997 26.400000000000002 C 19.799999999999997 26.400000000000002, 19.754999999999995 26.340000000000003, 19.799999999999997 26.400000000000002 C 19.89 26.520000000000003, 19.89 26.28, 19.98 26.64 C 20.07 27.24, 20.115000000000002 27.239999999999995, 20.16 27.839999999999996 C 20.16 28.439999999999998, 20.16 28.439999999999998, 20.16 29.04 C 20.16 29.64, 20.16 29.715000000000003, 20.16 30.240000000000002 C 20.16 30.69, 20.16 30.54, 20.16 31.14 C 20.16 31.89, 20.1 31.8, 20.16 32.64 C 20.28 33.57, 20.22 33.585, 20.4 34.5 C 20.64 35.4, 20.7 35.44499999999999, 20.88 36.3 C 21 37.11, 20.925 37.17, 21.12 37.92 C 21.39 38.61, 21.42 38.64, 21.66 39.3 C 21.87 39.93, 21.78 39.870000000000005, 22.080000000000002 40.56 C 22.47 41.31, 22.47 41.400000000000006, 22.86 42.06 C 23.25 42.63, 23.205000000000002 42.660000000000004, 23.64 43.2 C 24.119999999999997 43.71, 24.074999999999996 43.8, 24.599999999999998 44.22 C 25.17 44.55, 25.32 44.655, 25.740000000000002 44.88 C 26.01 45, 26.1 45.045, 26.28 45.12 C 26.37 45.15, 26.415 45.165, 26.46 45.18 L 26.46 45.18" fill="none" stroke="black" stroke-width="2"></path></svg>