<svg xmlns="http://www.w3.org/2000/svg" viewBox="8.99333381652832 3.8933334350585938 20.086665153503418 40.193336486816406" width="20.086665153503418" height="40.193336486816406"><path d="M 16.5 4.92 C 15.57 4.92, 15.540000000000001 4.92, 14.64 4.92 C 13.77 4.92, 13.604999999999999 4.92, 12.899999999999999 4.92 C 12.36 4.92, 12.3 4.859999999999999, 11.82 4.92 C 11.4 5.04, 11.280000000000001 5.1, 10.98 5.16 C 10.8 5.16, 10.785 5.16, 10.620000000000001 5.16 C 10.47 5.16, 10.395 5.16, 10.32 5.16 C 10.32 5.16, 10.32 5.16, 10.32 5.16 C 10.32 5.16, 10.32 5.16, 10.32 5.16 C 10.32 5.16, 10.395 5.085, 10.32 5.16 C 10.17 5.3100000000000005, 10.094999999999999 5.04, 10.02 5.46 C 10.02 6.15, 10.004999999999999 6.045, 10.02 6.84 C 10.05 7.74, 10.065 7.755000000000001, 10.08 8.64 C 10.08 9.51, 10.08 9.225, 10.08 10.379999999999999 C 10.08 11.82, 10.08 12.105, 10.08 13.26 C 10.08 14.129999999999999, 10.08 13.965, 10.08 15 C 10.08 16.2, 10.08 16.095, 10.08 17.4 C 10.08 18.81, 10.08 18.854999999999997, 10.08 20.22 C 10.08 21.54, 10.08 21.765, 10.08 22.86 C 10.08 23.729999999999997, 10.095 23.669999999999998, 10.08 24.599999999999998 C 10.05 25.589999999999996, 10.035 25.694999999999997, 10.02 26.58 C 10.02 27.36, 10.02 27.405, 10.02 28.14 C 10.02 28.83, 9.959999999999999 28.875, 10.02 29.52 C 10.14 30.119999999999997, 10.14 30.224999999999998, 10.26 30.72 C 10.379999999999999 31.11, 10.32 31.14, 10.5 31.5 C 10.74 31.830000000000002, 10.725000000000001 31.995000000000005, 10.98 32.160000000000004 C 11.25 32.160000000000004, 11.355 32.160000000000004, 11.52 32.160000000000004 C 11.58 32.160000000000004, 11.565000000000001 32.160000000000004, 11.64 32.160000000000004 C 11.73 32.160000000000004, 11.595 32.31, 11.82 32.160000000000004 C 12.18 31.86, 12.12 32.16, 12.54 31.56 C 13.02 30.659999999999997, 13.065 30.63, 13.5 29.759999999999998 C 13.89 28.919999999999998, 14.04 28.875, 14.28 28.08 C 14.370000000000001 27.33, 14.370000000000001 27.254999999999995, 14.46 26.58 C 14.55 25.98, 14.595 25.725, 14.64 25.380000000000003 C 14.64 25.290000000000003, 14.64 25.245000000000005, 14.64 25.200000000000003 C 14.64 25.200000000000003, 14.595 25.230000000000004, 14.64 25.200000000000003 C 14.73 25.14, 14.73 24.93, 14.82 25.08 C 14.91 25.439999999999998, 14.955 25.139999999999997, 15 25.799999999999997 C 15 26.759999999999998, 14.969999999999999 26.939999999999998, 15 27.72 C 15.06 28.32, 15.030000000000001 28.380000000000003, 15.120000000000001 28.92 C 15.24 29.400000000000002, 15.209999999999999 29.460000000000004, 15.36 29.880000000000003 C 15.54 30.240000000000002, 15.345 30.15, 15.72 30.599999999999998 C 16.29 31.14, 16.169999999999998 31.229999999999997, 16.86 31.68 C 17.67 32.040000000000006, 17.73 32.160000000000004, 18.48 32.400000000000006 C 19.17 32.52, 18.96 32.61, 19.86 32.64 C 20.97 32.58, 21.12 32.655, 22.080000000000002 32.519999999999996 C 22.89 32.309999999999995, 22.860000000000003 32.324999999999996, 23.700000000000003 32.099999999999994 C 24.57 31.859999999999996, 24.630000000000003 31.844999999999995, 25.44 31.619999999999997 C 26.19 31.41, 26.490000000000002 31.305, 26.94 31.200000000000003 C 27.090000000000003 31.200000000000003, 27.105000000000004 31.215000000000003, 27.240000000000002 31.200000000000003 C 27.36 31.17, 27.42 31.155, 27.48 31.14 L 27.48 31.14" fill="none" stroke="black" stroke-width="2"></path><path d="M 10.8 36.96 C 11.55 37.11, 11.444999999999999 37.14, 12.299999999999999 37.26 C 13.26 37.349999999999994, 12.690000000000001 37.394999999999996, 14.22 37.44 C 16.32 37.44, 16.694999999999997 37.394999999999996, 18.419999999999998 37.44 C 19.77 37.53, 19.485 37.41, 21.12 37.62 C 23.04 37.95, 23.340000000000003 38.115, 24.96 38.28 C 26.28 38.28, 26.82 38.28, 27.599999999999998 38.28 C 27.839999999999996 38.28, 28.004999999999995 38.28, 28.08 38.28 L 27.900000000000002 38.28" fill="none" stroke="black" stroke-width="2"></path><path d="M 11.459999999999999 42.78 C 12.84 42.93, 12.780000000000001 43.004999999999995, 14.22 43.08 C 15.719999999999999 43.08, 15.555 43.095, 17.22 43.08 C 19.049999999999997 43.05, 19.244999999999997 43.035, 20.88 43.019999999999996 C 22.32 43.019999999999996, 22.244999999999997 43.019999999999996, 23.759999999999998 43.019999999999996 C 25.35 43.019999999999996, 26.01 43.019999999999996, 26.94 43.019999999999996 C 27.21 43.019999999999996, 27.240000000000002 43.019999999999996, 27.48 43.019999999999996 C 27.69 43.019999999999996, 27.795 43.019999999999996, 27.900000000000002 43.019999999999996 L 27.900000000000002 43.019999999999996" fill="none" stroke="black" stroke-width="2"></path></svg>