<svg xmlns="http://www.w3.org/2000/svg" viewBox="10.460000038146973 2.4200000762939453 21.740001678466797 40.760000228881836" width="21.740001678466797" height="40.760000228881836"><path d="M 12.48 23.759999999999998 C 12.600000000000001 24.509999999999998, 12.63 24.299999999999997, 12.72 25.259999999999998 C 12.780000000000001 26.43, 12.75 26.534999999999997, 12.84 27.599999999999998 C 12.96 28.56, 13.020000000000001 28.485, 13.080000000000002 29.52 C 13.080000000000002 30.630000000000003, 13.065000000000001 31.005000000000003, 13.080000000000002 31.740000000000002 C 13.110000000000001 32.1, 13.110000000000001 32.19, 13.14 32.46 C 13.170000000000002 32.64, 13.185 32.7, 13.200000000000001 32.82 C 13.200000000000001 32.879999999999995, 13.200000000000001 32.91, 13.200000000000001 32.94 C 13.200000000000001 32.94, 13.200000000000001 32.94, 13.200000000000001 32.94 C 13.200000000000001 32.94, 13.170000000000002 32.894999999999996, 13.200000000000001 32.94 C 13.260000000000002 33.03, 13.275 33.044999999999995, 13.32 33.12 C 13.35 33.18, 13.274999999999999 33.21, 13.379999999999999 33.24 C 13.559999999999999 33.24, 13.305 33.24, 13.74 33.24 C 14.43 33.24, 14.280000000000001 33.300000000000004, 15.120000000000001 33.24 C 16.11 33.120000000000005, 15.930000000000003 33.06, 17.1 33 C 18.45 33, 18.584999999999997 33, 19.799999999999997 33 C 20.88 33, 21.03 33, 21.96 33 C 22.740000000000002 33, 22.814999999999998 33, 23.52 33 C 24.15 33, 24.165 33, 24.78 33 C 25.380000000000003 33, 25.275000000000002 33.075, 25.98 33 C 26.79 32.85, 26.985 32.88, 27.599999999999998 32.7 C 28.02 32.49, 28.02 32.565000000000005, 28.44 32.28 C 28.86 31.92, 28.89 31.95, 29.28 31.56 C 29.64 31.14, 29.655 31.2, 30 30.72 C 30.330000000000002 30.18, 30.465000000000003 30.21, 30.660000000000004 29.64 C 30.720000000000002 29.04, 30.75 29.310000000000002, 30.78 28.44 C 30.78 27.300000000000004, 30.840000000000003 27.210000000000004, 30.78 26.160000000000004 C 30.66 25.200000000000003, 30.93 25.560000000000002, 30.54 24.240000000000002 C 29.88 22.560000000000002, 29.955 22.56, 29.22 20.88 C 28.409999999999997 19.2, 28.455 19.2, 27.599999999999998 17.52 C 26.699999999999996 15.84, 26.564999999999998 15.615, 25.799999999999997 14.16 C 25.169999999999998 12.93, 25.169999999999998 12.809999999999999, 24.54 11.7 C 23.91 10.71, 23.97 10.8, 23.28 9.72 C 22.53 8.55, 22.425 8.295, 21.78 7.38 C 21.240000000000002 6.720000000000001, 21.150000000000002 6.675000000000001, 20.700000000000003 6.0600000000000005 C 20.340000000000003 5.49, 20.340000000000003 5.385, 19.98 4.92 C 19.619999999999997 4.56, 19.5 4.484999999999999, 19.259999999999998 4.199999999999999 C 19.14 3.9899999999999998, 19.185 3.975, 19.02 3.7800000000000002 C 18.810000000000002 3.6, 18.705000000000002 3.51, 18.6 3.42 L 18.6 3.42" fill="none" stroke="black" stroke-width="2"></path><path d="M 11.459999999999999 42.12 C 11.969999999999999 42.12, 11.865 42.12, 12.48 42.12 C 13.2 42.12, 12.419999999999998 42.12, 13.919999999999998 42.12 C 16.2 42.12, 16.439999999999998 42.12, 18.48 42.12 C 20.28 42.12, 20.385 42.12, 22.080000000000002 42.12 C 23.67 42.12, 24.029999999999998 42.12, 25.259999999999998 42.12 C 26.13 42.12, 26.16 42.12, 27 42.12 C 27.81 42.12, 27.944999999999997 42.12, 28.619999999999997 42.12 C 29.16 42.12, 29.355000000000004 42.12, 29.700000000000003 42.12 C 29.85 42.12, 29.745 42.105, 30 42.12 C 30.36 42.15, 30.419999999999998 42.165, 30.72 42.18 C 30.96 42.18, 31.080000000000002 42.18, 31.200000000000003 42.18 L 31.200000000000003 42.18" fill="none" stroke="black" stroke-width="2"></path></svg>