<svg xmlns="http://www.w3.org/2000/svg" viewBox="10.30666732788086 2.9600000381469727 21.260000228881836 41.79640865325928" width="21.260000228881836" height="41.79640865325928"><path d="M 18.72 9.3 C 17.73 9, 18.150000000000002 8.864999999999998, 16.740000000000002 8.7 C 14.910000000000002 8.67, 13.995000000000001 8.655000000000001, 13.080000000000002 8.64 C 13.080000000000002 8.64, 13.080000000000002 8.64, 13.080000000000002 8.64 C 13.080000000000002 8.64, 13.080000000000002 8.64, 13.080000000000002 8.64 C 13.080000000000002 8.64, 13.200000000000003 8.355, 13.080000000000002 8.64 C 12.840000000000002 9.21, 12.795000000000002 9.12, 12.600000000000001 9.78 C 12.45 10.53, 12.45 10.334999999999999, 12.299999999999999 11.28 C 12.149999999999999 12.419999999999998, 12.075 12.87, 12 13.559999999999999 C 12 13.799999999999999, 12.165 12.915, 12 14.04 C 11.67 16.049999999999997, 11.504999999999999 16.365, 11.34 18.06 C 11.34 19.439999999999998, 11.265 19.725, 11.34 20.82 C 11.49 21.630000000000003, 11.265 21.645000000000003, 11.64 22.44 C 12.24 23.22, 12.135 23.415, 12.84 24 C 13.65 24.39, 13.155000000000001 24.375, 14.46 24.78 C 16.259999999999998 25.2, 16.2 25.214999999999996, 18.06 25.619999999999997 C 19.979999999999997 26.009999999999998, 20.34 26.130000000000003, 21.9 26.400000000000002 C 23.099999999999998 26.550000000000004, 23.205 26.625000000000004, 24.299999999999997 26.700000000000003 C 25.29 26.700000000000003, 25.439999999999998 26.745000000000005, 26.28 26.700000000000003 C 26.970000000000002 26.61, 27.090000000000003 26.835, 27.660000000000004 26.52 C 28.11 25.98, 27.99 26.55, 28.56 25.44 C 29.25 23.76, 29.445 24.285000000000004, 29.94 22.080000000000002 C 30.240000000000002 19.35, 30.39 19.425, 30.54 16.62 C 30.54 13.74, 30.6 13.364999999999998, 30.54 10.86 C 30.419999999999998 8.73, 30.509999999999998 8.265, 30.299999999999997 6.6000000000000005 C 30 5.4, 29.85 4.859999999999999, 29.700000000000003 4.199999999999999 C 29.700000000000003 4.08, 29.700000000000003 4.02, 29.700000000000003 3.96 L 29.700000000000003 3.96" fill="none" stroke="black" stroke-width="2"></path><path d="M 19.62 31.740000000000002 C 18.12 31.71, 18.150000000000002 31.2, 16.62 31.68 C 15.06 32.67, 14.445 32.115, 13.5 33.660000000000004 C 13.17 35.760000000000005, 12.809999999999999 36.18, 12.84 37.86 C 13.23 39.120000000000005, 12.255000000000003 39.015, 13.620000000000001 40.38 C 15.959999999999999 41.85, 15.899999999999999 42.480000000000004, 18.299999999999997 43.32 C 20.759999999999998 43.53, 21.375 43.83, 23.22 43.74 C 24.45 43.35, 24.765 43.815, 25.68 42.96 C 26.28 41.64, 26.535000000000004 41.835, 26.880000000000003 40.32 C 26.97 38.61, 27.314999999999998 38.47500000000001, 27.06 36.900000000000006 C 26.46 35.46, 26.43 35.175, 25.86 34.019999999999996 C 25.32 33.15, 25.485 32.91, 24.78 32.28 C 23.91 31.89, 24.525 31.634999999999998, 23.04 31.5 C 20.939999999999998 31.62, 20.1 31.605000000000004, 18.84 31.740000000000002 L 18 32.04" fill="none" stroke="black" stroke-width="2"></path></svg>