<svg xmlns="http://www.w3.org/2000/svg" viewBox="7.460000038146973 4.6533331871032715 26.18000030517578 40.806665897369385" width="26.18000030517578" height="40.806665897369385"><path d="M 17.88 5.88 C 17.189999999999998 5.88, 17.415 5.88, 16.5 5.88 C 15.36 5.88, 15.18 5.925, 14.22 5.88 C 13.440000000000001 5.789999999999999, 13.275 5.744999999999999, 12.66 5.699999999999999 C 12.21 5.699999999999999, 12.315 5.699999999999999, 11.76 5.699999999999999 C 11.1 5.699999999999999, 10.77 5.699999999999999, 10.44 5.699999999999999 C 10.44 5.699999999999999, 10.44 5.699999999999999, 10.44 5.699999999999999 C 10.44 5.699999999999999, 10.455 5.594999999999999, 10.44 5.699999999999999 C 10.41 5.91, 10.44 5.37, 10.379999999999999 6.12 C 10.29 7.41, 10.35 7.364999999999999, 10.2 8.7 C 9.989999999999998 10.079999999999998, 9.989999999999998 10.215, 9.78 11.459999999999999 C 9.57 12.57, 9.51 12.45, 9.36 13.68 C 9.27 15.03, 9.285 15.075, 9.18 16.38 C 9.059999999999999 17.64, 9 17.79, 8.94 18.9 C 8.94 19.86, 8.774999999999999 19.83, 8.94 20.82 C 9.27 21.84, 9.360000000000001 22.244999999999997, 9.600000000000001 22.86 C 9.75 23.07, 9.645 23.115000000000002, 9.899999999999999 23.28 C 10.26 23.4, 10.095 23.475, 10.620000000000001 23.52 C 11.31 23.490000000000002, 11.295 23.625, 12 23.46 C 12.72 23.16, 12.735000000000001 23.49, 13.440000000000001 22.86 C 14.13 21.9, 14.325000000000001 21.915, 14.82 20.94 C 15.12 19.950000000000003, 15.239999999999998 20.340000000000003, 15.419999999999998 18.96 C 15.479999999999999 17.189999999999998, 15.479999999999999 16.59, 15.54 15.419999999999998 C 15.6 14.849999999999998, 15.629999999999999 14.565, 15.66 14.28 C 15.66 14.28, 15.615 14.264999999999999, 15.66 14.28 C 15.75 14.309999999999999, 15.795 13.92, 15.84 14.34 C 15.84 15.15, 15.84 15.015, 15.84 15.96 C 15.84 17.04, 15.84 17.175, 15.84 18.12 C 15.84 18.93, 15.765 19.110000000000003, 15.84 19.740000000000002 C 15.99 20.19, 15.855 20.055, 16.14 20.64 C 16.560000000000002 21.36, 16.53 21.480000000000004, 16.98 22.080000000000002 C 17.46 22.560000000000002, 17.265 22.605, 17.94 23.04 C 18.810000000000002 23.43, 18.825 23.52, 19.68 23.82 C 20.52 24.03, 20.115 24.105000000000004, 21.36 24.240000000000002 C 23.01 24.3, 22.995000000000005 24.345, 24.660000000000004 24.36 C 26.340000000000003 24.33, 26.52 24.434999999999995, 28.02 24.299999999999997 C 29.340000000000003 24.06, 29.730000000000004 23.97, 30.660000000000004 23.82 C 31.200000000000003 23.76, 31.245000000000005 23.775000000000002, 31.740000000000002 23.700000000000003 C 32.19 23.61, 32.415 23.565, 32.64 23.52 L 32.64 23.52" fill="none" stroke="black" stroke-width="2"></path><path d="M 21.48 24.240000000000002 C 21.3 25.05, 21.525000000000002 24.72, 21.12 25.86 C 20.490000000000002 27.33, 20.655 27.389999999999997, 19.86 28.799999999999997 C 18.9 30.15, 19.11 30.134999999999998, 17.94 31.5 C 16.560000000000002 32.879999999999995, 16.5 33.06, 15.18 34.26 C 13.92 35.28, 13.845 35.44499999999999, 12.66 36.3 C 11.55 36.989999999999995, 11.265 37.245, 10.44 37.68 C 9.899999999999999 37.86, 9.855 37.83, 9.36 38.04 C 8.91 38.28, 8.684999999999999 38.4, 8.459999999999999 38.519999999999996 L 8.459999999999999 38.519999999999996" fill="none" stroke="black" stroke-width="2"></path><path d="M 28.08 30.48 C 27.78 31.619999999999997, 27.96 31.605, 27.48 32.76 C 26.82 33.92999999999999, 26.865000000000002 34.004999999999995, 26.160000000000004 35.099999999999994 C 25.410000000000004 36.12, 25.575000000000003 36.12, 24.660000000000004 37.14 C 23.580000000000002 38.16, 23.64 38.25, 22.5 39.18 C 21.3 40.019999999999996, 21.165 40.17, 20.1 40.86 C 19.17 41.4, 19.065000000000005 41.489999999999995, 18.240000000000002 41.94 C 17.52 42.3, 17.564999999999998 42.330000000000005, 16.799999999999997 42.660000000000004 C 15.989999999999998 42.96, 16.38 42.855, 15.18 43.26 C 13.59 43.769999999999996, 12.915 43.980000000000004, 12 44.28 C 11.76 44.370000000000005, 11.774999999999999 44.415, 11.52 44.46 L 10.98 44.46" fill="none" stroke="black" stroke-width="2"></path></svg>