<svg xmlns="http://www.w3.org/2000/svg" viewBox="10.15999984741211 4.880000114440918 23.420002937316895 37.57999897003174" width="23.420002937316895" height="37.57999897003174"><path d="M 12.899999999999999 5.88 C 12.899999999999999 6.539999999999999, 12.899999999999999 6.1049999999999995, 12.899999999999999 7.199999999999999 C 12.899999999999999 8.73, 12.899999999999999 8.535, 12.899999999999999 10.26 C 12.899999999999999 12.18, 12.944999999999999 12.705000000000002, 12.899999999999999 14.100000000000001 C 12.809999999999999 14.97, 12.795 14.850000000000001, 12.72 15.84 C 12.66 16.95, 12.645000000000001 16.994999999999997, 12.600000000000001 18.06 C 12.57 19.08, 12.555 19.35, 12.54 20.1 C 12.54 20.58, 12.54 20.505, 12.54 21.06 C 12.54 21.689999999999998, 12.6 21.945, 12.54 22.32 L 12.299999999999999 22.56" fill="none" stroke="black" stroke-width="2"></path><path d="M 13.620000000000001 11.7 C 15.09 11.7, 15.555 11.549999999999999, 16.56 11.7 C 17.1 12, 17.145 11.625, 17.64 12.299999999999999 C 18.09 13.349999999999998, 18.18 13.379999999999999, 18.54 14.399999999999999 C 18.810000000000002 15.389999999999999, 18.900000000000002 15.36, 19.080000000000002 16.38 C 19.17 17.43, 19.154999999999998 17.505, 19.259999999999998 18.48 C 19.38 19.380000000000003, 19.439999999999998 19.740000000000002, 19.5 20.28 C 19.5 20.46, 19.5 20.4, 19.5 20.64 C 19.5 20.94, 19.5 21.045, 19.5 21.240000000000002 C 19.5 21.33, 19.485 21.255, 19.5 21.419999999999998 C 19.53 21.659999999999997, 19.544999999999998 21.779999999999998, 19.56 21.9 C 19.56 21.9, 19.544999999999998 21.869999999999997, 19.56 21.9 C 19.59 21.96, 19.605 22.305, 19.62 22.02 C 19.62 21.39, 19.380000000000003 22.049999999999997, 19.62 20.759999999999998 C 20.1 18.81, 19.980000000000004 18.57, 20.580000000000002 16.86 C 21.3 15.389999999999999, 21.345 14.984999999999998, 22.02 13.919999999999998 C 22.65 13.26, 22.740000000000002 13.05, 23.28 12.600000000000001 C 23.73 12.360000000000001, 23.490000000000002 12.240000000000002, 24.18 12.120000000000001 C 25.11 12.120000000000001, 24.884999999999998 12.120000000000001, 26.04 12.120000000000001 C 27.419999999999998 12.120000000000001, 27.479999999999997 12.120000000000001, 28.799999999999997 12.120000000000001 C 30.06 12.120000000000001, 30.419999999999998 12.120000000000001, 31.32 12.120000000000001 C 31.860000000000003 12.120000000000001, 32.08500000000001 12.120000000000001, 32.400000000000006 12.120000000000001 C 32.49 12.120000000000001, 32.535 12.120000000000001, 32.58 12.120000000000001 L 32.58 12.120000000000001" fill="none" stroke="black" stroke-width="2"></path><path d="M 26.52 11.76 C 26.52 12.51, 26.52 12.27, 26.52 13.26 C 26.52 14.49, 26.625 14.55, 26.52 15.72 C 26.31 16.830000000000002, 26.369999999999997 16.8, 26.099999999999998 17.94 C 25.77 19.11, 25.92 19.11, 25.44 20.28 C 24.810000000000002 21.450000000000003, 24.884999999999998 21.39, 24.18 22.62 C 23.4 23.910000000000004, 23.43 24.120000000000005, 22.62 25.200000000000003 C 21.78 26.07, 21.585 26.28, 20.94 26.94 C 20.490000000000002 27.39, 20.7 27.209999999999997, 20.04 27.839999999999996 C 19.169999999999998 28.65, 19.184999999999995 28.755, 18.299999999999997 29.46 C 17.4 30.060000000000002, 17.294999999999998 30.135000000000005, 16.5 30.660000000000004 C 15.81 31.11, 15.690000000000001 31.244999999999997, 15.120000000000001 31.56 C 14.670000000000002 31.740000000000002, 14.670000000000002 31.71, 14.22 31.92 C 13.77 32.160000000000004, 13.965 32.14500000000001, 13.32 32.400000000000006 C 12.48 32.67, 12.18 32.805, 11.64 32.94 L 11.16 32.94" fill="none" stroke="black" stroke-width="2"></path><path d="M 30.18 22.02 C 30.18 23.22, 30.33 23.01, 30.18 24.42 C 29.88 26.040000000000003, 29.97 26.220000000000006, 29.58 27.660000000000004 C 29.099999999999998 28.92, 29.235 28.965000000000003, 28.619999999999997 30.18 C 27.869999999999997 31.349999999999998, 27.929999999999996 31.409999999999997, 27.119999999999997 32.519999999999996 C 26.25 33.56999999999999, 26.385 33.54, 25.380000000000003 34.62 C 24.240000000000002 35.73, 24.075000000000003 35.925, 23.1 36.839999999999996 C 22.29 37.56, 22.215 37.74, 21.48 38.28 C 20.82 38.64, 21.465 38.595, 20.16 39 C 18.21 39.45, 17.924999999999997 39.42, 16.259999999999998 39.900000000000006 C 14.879999999999999 40.410000000000004, 14.43 40.53, 13.5 40.92 C 13.02 41.19, 12.78 41.325, 12.54 41.46 L 12.54 41.46" fill="none" stroke="black" stroke-width="2"></path></svg>