<svg xmlns="http://www.w3.org/2000/svg" viewBox="6.306666851043701 3.8392930030822754 26.420000076293945 39.527374267578125" width="26.420000076293945" height="39.527374267578125"><path d="M 17.759999999999998 5.34 C 16.799999999999997 5.16, 16.619999999999997 5.069999999999999, 15.84 4.9799999999999995 C 15.24 4.9799999999999995, 15.255 4.9799999999999995, 14.64 4.9799999999999995 C 14.01 4.9799999999999995, 13.86 4.9799999999999995, 13.379999999999999 4.9799999999999995 C 13.05 4.9799999999999995, 12.93 4.9799999999999995, 12.72 4.9799999999999995 C 12.629999999999999 4.9799999999999995, 12.584999999999999 4.9799999999999995, 12.54 4.9799999999999995 C 12.54 4.9799999999999995, 12.54 4.9799999999999995, 12.54 4.9799999999999995 C 12.54 4.9799999999999995, 12.54 4.9799999999999995, 12.54 4.9799999999999995 C 12.54 4.9799999999999995, 12.54 4.9799999999999995, 12.54 4.9799999999999995 C 12.54 4.9799999999999995, 12.6 4.92, 12.54 4.9799999999999995 C 12.419999999999998 5.1, 12.54 4.454999999999999, 12.299999999999999 5.22 C 11.94 6.630000000000001, 11.82 6.735000000000001, 11.58 8.040000000000001 C 11.46 9.24, 11.504999999999999 9.375, 11.34 10.44 C 11.129999999999999 11.37, 11.205 10.995, 10.92 12.299999999999999 C 10.559999999999999 13.98, 10.59 13.559999999999999, 10.2 15.66 C 9.78 18.18, 9.735 18.495000000000005, 9.36 20.700000000000003 C 9.03 22.590000000000003, 8.969999999999999 22.875, 8.7 24.48 C 8.489999999999998 25.799999999999997, 8.52 25.83, 8.28 27.119999999999997 C 8.01 28.38, 7.9350000000000005 28.305, 7.74 29.64 C 7.62 31.05, 7.605 30.990000000000002, 7.5 32.46 C 7.41 33.989999999999995, 7.365 34.364999999999995, 7.32 35.519999999999996 C 7.32 36.3, 7.32 36.19499999999999, 7.32 37.08 C 7.32 38.07, 7.290000000000001 38.05500000000001, 7.32 39.06 C 7.38 40.08, 7.35 40.41, 7.4399999999999995 41.099999999999994 C 7.56 41.459999999999994, 7.529999999999999 41.565, 7.68 41.82 C 7.86 41.97, 7.740000000000001 42.015, 8.040000000000001 42.12 C 8.46 42.18, 8.579999999999998 42.21, 8.879999999999999 42.24 C 9.059999999999999 42.24, 8.865 42.525000000000006, 9.24 42.24 C 9.809999999999999 41.67, 9.959999999999999 41.77499999999999, 10.379999999999999 41.099999999999994 C 10.649999999999999 40.31999999999999, 10.425 41.084999999999994, 10.92 39.54 C 11.64 37.230000000000004, 11.58 37.065, 12.36 34.92 C 13.2 32.94, 13.5 32.34, 14.04 30.96 C 14.28 30.18, 14.399999999999999 29.790000000000003, 14.52 29.400000000000002 C 14.52 29.400000000000002, 14.489999999999998 29.400000000000002, 14.52 29.400000000000002 C 14.58 29.400000000000002, 14.61 29.115000000000002, 14.64 29.400000000000002 C 14.64 29.97, 14.685 29.76, 14.64 30.54 C 14.55 31.529999999999998, 14.610000000000001 31.529999999999994, 14.46 32.519999999999996 C 14.25 33.51, 14.19 33.45, 14.04 34.5 C 13.95 35.61, 13.905 35.79, 13.86 36.72 C 13.86 37.47, 13.77 37.364999999999995, 13.86 38.22 C 14.04 39.18, 14.025 39.435, 14.22 40.14 C 14.43 40.59, 14.49 40.785, 14.64 41.04 C 14.73 41.1, 14.73 41.08500000000001, 14.82 41.160000000000004 C 14.91 41.25, 14.775 41.309999999999995, 15 41.339999999999996 C 15.36 41.31, 15.225000000000001 41.385, 15.72 41.28 C 16.35 41.1, 16.335 41.25, 16.98 40.92 C 17.64 40.44, 17.744999999999997 40.485, 18.299999999999997 39.96 C 18.75 39.39, 18.720000000000002 39.465, 19.200000000000003 38.82 C 19.71 38.1, 19.59 38.190000000000005, 20.22 37.38 C 20.97 36.480000000000004, 21.015 36.315, 21.72 35.58 C 22.38 35.01, 22.439999999999998 34.86, 23.04 34.44 C 23.58 34.17, 23.669999999999998 34.14, 24.119999999999997 33.900000000000006 C 24.479999999999997 33.690000000000005, 24.434999999999995 33.60000000000001, 24.839999999999996 33.480000000000004 C 25.29 33.45, 25.215 33.435, 25.740000000000002 33.42 C 26.340000000000003 33.42, 26.415000000000003 33.39, 26.94 33.42 C 27.39 33.480000000000004, 27.314999999999998 33.33, 27.839999999999996 33.54 C 28.439999999999998 33.9, 28.5 33.855, 29.04 34.26 C 29.52 34.71, 29.58 34.755, 30 35.160000000000004 C 30.36 35.52, 30.419999999999998 35.505, 30.72 35.88 C 30.96 36.27, 30.975 36.21000000000001, 31.200000000000003 36.660000000000004 C 31.41 37.17, 31.515 37.11, 31.619999999999997 37.68 C 31.619999999999997 38.31, 31.619999999999997 38.415, 31.619999999999997 38.94 C 31.619999999999997 39.36, 31.859999999999996 39.3, 31.619999999999997 39.78 C 31.14 40.32, 31.305000000000003 40.394999999999996, 30.660000000000004 40.86 C 29.85 41.25, 30.27 41.34, 29.04 41.64 C 27.39 41.85, 26.985000000000003 41.925000000000004, 25.740000000000002 42.06 C 24.9 42.120000000000005, 24.48 42.15, 24.06 42.18 C 24.06 42.18, 24.06 42.18, 24.06 42.18 C 24.06 42.18, 24.165 42.195, 24.06 42.18 L 23.64 42.12" fill="none" stroke="black" stroke-width="2"></path></svg>