<svg xmlns="http://www.w3.org/2000/svg" viewBox="10.993332862854004 5.239999771118164 23.966665267944336 39.73999786376953" width="23.966665267944336" height="39.73999786376953"><path d="M 12.059999999999999 6.24 C 12.059999999999999 7.74, 12.075 6.9, 12.059999999999999 9.24 C 12.03 12.420000000000002, 12.015 12.810000000000002, 12 15.600000000000001 C 12 18, 12 17.985, 12 20.4 C 12 22.83, 12 23.309999999999995, 12 25.259999999999998 C 12 26.73, 12 26.475, 12 28.200000000000003 C 12 30.180000000000003, 12 29.970000000000006, 12 32.160000000000004 C 12 34.56, 11.985 34.74, 12 36.96 C 12.03 39, 11.985 39.48, 12.059999999999999 41.04 C 12.18 42.120000000000005, 12.194999999999999 42.465, 12.299999999999999 43.2 C 12.39 43.59, 12.435 43.785000000000004, 12.48 43.980000000000004 L 12.48 43.980000000000004" fill="none" stroke="black" stroke-width="2"></path><path d="M 12.059999999999999 13.68 C 13.35 13.68, 13.605 13.59, 14.64 13.68 C 15.420000000000002 13.86, 15.435000000000002 13.439999999999998, 16.200000000000003 14.04 C 16.950000000000003 15.06, 17.235000000000003 14.490000000000002, 17.700000000000003 16.080000000000002 C 17.880000000000003 18.240000000000002, 17.91 18.99, 18.06 20.4 C 18.18 21.06, 18.24 21.314999999999998, 18.299999999999997 21.72 C 18.299999999999997 21.869999999999997, 18.299999999999997 21.945, 18.299999999999997 22.02 C 18.299999999999997 22.02, 18.299999999999997 22.02, 18.299999999999997 22.02 C 18.299999999999997 22.02, 18.299999999999997 22.259999999999998, 18.299999999999997 22.02 C 18.299999999999997 21.54, 18.089999999999996 22.02, 18.299999999999997 21.06 C 18.72 19.619999999999997, 18.555 19.575, 19.14 18.18 C 19.89 16.83, 19.665 16.275, 20.64 15.48 C 21.84 15.24, 21.974999999999998 15.120000000000001, 23.04 15 C 23.97 15, 23.775000000000002 14.73, 24.900000000000002 15 C 26.22 15.540000000000001, 26.415 15.570000000000002, 27.54 16.080000000000002 C 28.47 16.560000000000002, 28.335 16.095, 29.400000000000002 17.04 C 30.6 18.45, 30.959999999999997 18.405, 31.799999999999997 19.86 C 32.28 21.36, 32.339999999999996 21.075, 32.76 22.86 C 33.120000000000005 24.93, 33.24 24.36, 33.480000000000004 27 C 33.6 30.21, 33.6 30.78, 33.72 33.42 C 33.84 35.49, 33.9 35.595, 33.96 37.56 C 33.96 39.42, 33.96 40.275000000000006, 33.96 41.28 C 33.96 41.43, 33.96 41.37, 33.96 41.58 C 33.96 41.849999999999994, 33.96 41.985, 33.96 42.12 C 33.96 42.12, 33.96 42.105, 33.96 42.12 L 33.96 42.18" fill="none" stroke="black" stroke-width="2"></path><path d="M 21.54 25.259999999999998 C 21.240000000000002 26.79, 20.73 27, 20.94 28.32 C 21.66 29.43, 21.645 30.015, 22.38 30.54 C 23.13 30.48, 23.43 30.900000000000002, 23.88 30.42 C 24.03 29.52, 24.285 29.564999999999998, 24.18 28.619999999999997 C 23.82 27.63, 23.85 27.3, 23.46 26.64 C 23.04 26.310000000000002, 23.055 25.665, 22.62 25.98 C 22.17 26.94, 21.854999999999997 27.075000000000003, 21.72 27.900000000000002 C 21.9 28.590000000000003, 21.540000000000003 28.725, 22.080000000000002 29.28 C 22.98 29.7, 23.22 30.314999999999998, 23.88 30.119999999999997 C 24.299999999999997 29.31, 24.54 29.475, 24.72 28.5 C 24.659999999999997 27.36, 24.735 26.849999999999998, 24.599999999999998 26.22 C 24.39 26.1, 24.689999999999998 25.725, 24.18 25.98 C 23.369999999999997 26.61, 23.04 26.715000000000003, 22.56 27.240000000000002 L 22.259999999999998 28.08" fill="none" stroke="black" stroke-width="2"></path><path d="M 18 36.54 C 18.57 36.54, 17.565 36.54, 19.14 36.54 C 21.72 36.54, 22.349999999999998 36.54, 24.299999999999997 36.54 C 25.619999999999997 36.54, 26.16 36.54, 26.94 36.54 C 27.18 36.54, 27.18 36.54, 27.42 36.54 L 27.900000000000002 36.54" fill="none" stroke="black" stroke-width="2"></path></svg>