<svg xmlns="http://www.w3.org/2000/svg" viewBox="12.619999885559082 0.6799999475479126 19.666666984558105 46.16000020503998" width="19.666666984558105" height="46.16000020503998"><path d="M 14.64 19.080000000000002 C 14.64 20.490000000000002, 14.64 20.715, 14.64 21.9 C 14.64 22.86, 14.64 23.175, 14.64 23.82 C 14.64 24.15, 14.64 24.315, 14.64 24.48 C 14.64 24.48, 14.55 24.405, 14.64 24.48 C 14.82 24.630000000000003, 14.7 24.675, 15 24.78 C 15.42 24.840000000000003, 14.969999999999999 24.75, 15.84 24.900000000000002 C 17.16 25.14, 17.085 25.215000000000003, 18.48 25.380000000000003 C 19.95 25.47, 20.115 25.515, 21.419999999999998 25.56 C 22.560000000000002 25.56, 22.71 25.56, 23.700000000000003 25.56 C 24.540000000000003 25.56, 24.435000000000002 25.56, 25.380000000000003 25.56 C 26.43 25.56, 26.490000000000002 25.56, 27.48 25.56 C 28.409999999999997 25.56, 28.664999999999996 25.589999999999996, 29.339999999999996 25.56 C 29.759999999999998 25.5, 29.79 25.68, 30.18 25.44 C 30.54 25.02, 30.645000000000003 25.229999999999997, 30.900000000000002 24.599999999999998 C 31.050000000000004 23.759999999999998, 31.125000000000004 23.805, 31.200000000000003 22.919999999999998 C 31.200000000000003 21.99, 31.395000000000003 22.169999999999998, 31.200000000000003 21.06 C 30.810000000000002 19.77, 30.96 19.695, 30.42 18.48 C 29.73 17.340000000000003, 29.729999999999997 17.370000000000005, 29.04 16.200000000000003 C 28.35 15, 28.410000000000004 15.075, 27.660000000000004 13.799999999999999 C 26.85 12.45, 26.955 12.540000000000001, 26.04 11.100000000000001 C 25.02 9.57, 24.78 9.180000000000001, 24 8.040000000000001 C 23.46 7.290000000000001, 23.625 7.425000000000001, 22.919999999999998 6.540000000000001 C 22.049999999999997 5.5200000000000005, 22.095 5.49, 21.18 4.5 C 20.22 3.54, 20.025 3.285, 19.259999999999998 2.58 C 18.689999999999998 2.13, 18.405 1.9050000000000002, 18.12 1.6800000000000002 C 18.12 1.6800000000000002, 18.12 1.6800000000000002, 18.12 1.6800000000000002 L 18.12 1.6800000000000002" fill="none" stroke="black" stroke-width="2"></path><path d="M 20.52 25.92 C 20.52 27.21, 20.775 26.88, 20.52 28.5 C 20.009999999999998 30.450000000000003, 20.04 30.690000000000005, 19.5 32.400000000000006 C 18.93 33.870000000000005, 18.96 34.11, 18.36 35.339999999999996 C 17.73 36.33, 17.67 36.54, 17.1 37.32 C 16.590000000000003 37.89, 16.770000000000003 37.755, 16.080000000000002 38.46 C 15.21 39.3, 14.955 39.615, 14.34 40.14 C 13.98 40.35, 13.8 40.455, 13.620000000000001 40.56 L 13.620000000000001 40.56" fill="none" stroke="black" stroke-width="2"></path><path d="M 26.64 31.799999999999997 C 26.58 32.58, 26.67 32.58, 26.52 33.36 C 26.28 34.14, 26.564999999999998 33.915, 26.04 34.92 C 25.23 36.150000000000006, 25.365000000000002 36.045, 24.42 37.38 C 23.34 38.82, 23.235 39.045, 22.259999999999998 40.26 C 21.39 41.25, 21.57 41.25, 20.52 42.24 C 19.29 43.230000000000004, 19.11 43.425, 18.06 44.22 C 17.189999999999998 44.82, 16.875 45.015, 16.32 45.42 L 15.84 45.839999999999996" fill="none" stroke="black" stroke-width="2"></path></svg>