<svg xmlns="http://www.w3.org/2000/svg" viewBox="12.326666831970215 1.6400001049041748 18.870624542236328 45.3800003528595" width="18.870624542236328" height="45.3800003528595"><path d="M 20.28 18.18 C 19.8 18.18, 19.92 18.18, 19.32 18.18 C 18.6 18.18, 18.81 18.09, 17.88 18.18 C 16.740000000000002 18.36, 16.5 18.24, 15.600000000000001 18.54 C 14.940000000000001 18.96, 14.774999999999999 18.884999999999998, 14.28 19.38 C 13.95 19.95, 13.845 19.845, 13.620000000000001 20.52 C 13.5 21.3, 13.44 21.315, 13.379999999999999 22.080000000000002 C 13.379999999999999 22.830000000000002, 13.259999999999998 22.965000000000003, 13.379999999999999 23.580000000000002 C 13.62 24.060000000000002, 13.514999999999999 24.09, 13.86 24.54 C 14.309999999999999 24.96, 14.16 24.96, 14.76 25.380000000000003 C 15.509999999999998 25.8, 15.359999999999998 25.83, 16.259999999999998 26.22 C 17.31 26.58, 17.07 26.700000000000003, 18.36 26.94 C 19.89 27.060000000000002, 20.264999999999997 27.12, 21.419999999999998 27.18 C 22.2 27.18, 22.035 27.27, 22.98 27.18 C 24.090000000000003 27, 24.180000000000003 27.12, 25.200000000000003 26.82 C 26.130000000000003 26.4, 26.34 26.4, 27.06 25.98 C 27.57 25.560000000000002, 27.645 25.560000000000002, 28.08 25.14 C 28.439999999999998 24.72, 28.485 24.72, 28.799999999999997 24.299999999999997 C 29.069999999999997 23.88, 29.084999999999994 23.91, 29.339999999999996 23.46 C 29.58 22.98, 29.61 23.16, 29.82 22.5 C 30 21.66, 30.09 21.57, 30.18 20.82 C 30.18 20.16, 30.18 20.205, 30.18 19.5 C 30.18 18.75, 30.195 18.795, 30.18 18 C 30.15 17.16, 30.269999999999996 17.235, 30.119999999999997 16.32 C 29.849999999999998 15.33, 29.924999999999997 15.27, 29.58 14.34 C 29.16 13.47, 29.145000000000003 13.350000000000001, 28.740000000000002 12.600000000000001 C 28.35 11.97, 28.44 12.075, 27.96 11.34 C 27.39 10.5, 27.435000000000002 10.575, 26.82 9.66 C 26.16 8.67, 26.1 8.594999999999999, 25.5 7.68 C 24.96 6.84, 24.915000000000003 6.734999999999999, 24.42 6 C 23.97 5.37, 23.985 5.385, 23.52 4.74 C 23.04 4.08, 22.994999999999997 3.945, 22.56 3.42 C 22.17 3.0300000000000002, 21.975 2.835, 21.78 2.64 L 21.78 2.64" fill="none" stroke="black" stroke-width="2"></path><path d="M 24.48 27.900000000000002 C 24.48 28.800000000000004, 24.48 28.845000000000002, 24.48 29.700000000000003 C 24.48 30.51, 24.555 30.495, 24.48 31.32 C 24.33 32.16, 24.345 32.07, 24.18 33 C 24 34.019999999999996, 24.060000000000002 34.155, 23.82 35.04 C 23.52 35.79, 23.549999999999997 35.775, 23.22 36.54 C 22.86 37.31999999999999, 23.009999999999998 37.169999999999995, 22.5 38.099999999999994 C 21.84 39.17999999999999, 21.84 39.33, 21.18 40.26 C 20.52 41.04, 20.46 41.144999999999996, 19.86 41.82 C 19.32 42.39, 19.335 42.435, 18.78 42.96 C 18.21 43.44, 18.405 43.365, 17.64 43.92 C 16.68 44.55, 16.53 44.685, 15.72 45.18 C 15.059999999999999 45.540000000000006, 14.774999999999999 45.690000000000005, 14.399999999999999 45.900000000000006 C 14.309999999999999 45.96, 14.265 45.989999999999995, 14.22 46.019999999999996 C 14.22 46.019999999999996, 14.280000000000001 46.019999999999996, 14.22 46.019999999999996 L 13.98 46.019999999999996" fill="none" stroke="black" stroke-width="2"></path></svg>