<svg xmlns="http://www.w3.org/2000/svg" viewBox="8.600000381469727 2.299999952316284 22.586665153503418 44.239999771118164" width="22.586665153503418" height="44.239999771118164"><path d="M 15.600000000000001 3.7800000000000002 C 14.88 3.7800000000000002, 15.165000000000001 3.5250000000000004, 14.16 3.7800000000000002 C 12.870000000000001 4.290000000000001, 12.585 4.050000000000001, 11.58 4.800000000000001 C 10.86 5.79, 10.635 5.594999999999999, 10.14 6.779999999999999 C 9.870000000000001 8.16, 9.600000000000001 8.34, 9.600000000000001 9.540000000000001 C 9.870000000000001 10.56, 9.75 10.83, 10.14 11.58 C 10.65 12.059999999999999, 10.350000000000001 12.134999999999998, 11.16 12.54 C 12.27 12.870000000000001, 12.434999999999999 13.035, 13.379999999999999 13.200000000000001 C 14.16 13.200000000000001, 14.07 13.38, 14.940000000000001 13.200000000000001 C 15.9 12.84, 16.29 12.690000000000001, 16.86 12.48 C 17.04 12.42, 17.13 12.39, 17.22 12.36 C 17.22 12.36, 17.22 12.36, 17.22 12.36 C 17.22 12.36, 17.415 12.12, 17.22 12.36 C 16.83 12.84, 16.935000000000002 12.735, 16.44 13.32 C 15.84 14.010000000000002, 15.75 14.100000000000001, 15.24 14.700000000000001 C 14.82 15.21, 14.909999999999998 15.135000000000002, 14.399999999999999 15.72 C 13.8 16.38, 13.71 16.32, 13.200000000000001 17.04 C 12.780000000000001 17.82, 12.75 17.580000000000002, 12.36 18.6 C 12 19.86, 11.88 20.055, 11.64 21.12 C 11.52 21.990000000000002, 11.534999999999998 21.75, 11.399999999999999 22.86 C 11.25 24.21, 11.22 24.075, 11.100000000000001 25.56 C 11.010000000000002 27.18, 10.965 27.344999999999995, 10.92 28.799999999999997 C 10.92 30.09, 10.92 30.225, 10.92 31.380000000000003 C 10.92 32.400000000000006, 10.92 32.205, 10.92 33.42 C 10.92 34.83, 10.92 34.875, 10.92 36.24 C 10.92 37.56, 10.92 37.650000000000006, 10.92 38.88 C 10.92 40.02, 10.92 40.275000000000006, 10.92 41.160000000000004 C 10.92 41.790000000000006, 10.92 41.80500000000001, 10.92 42.42 C 10.92 43.019999999999996, 10.905 43.08, 10.92 43.62 C 10.95 44.099999999999994, 10.935 44.19, 10.98 44.58 C 11.040000000000001 44.879999999999995, 11.025000000000002 44.94, 11.100000000000001 45.18 C 11.190000000000001 45.36, 11.235 45.45, 11.28 45.54 L 11.28 45.54" fill="none" stroke="black" stroke-width="2"></path><path d="M 10.44 40.8 C 11.219999999999999 40.769999999999996, 10.8 40.725, 12 40.74 C 13.620000000000001 40.8, 14.07 40.815, 15.24 40.86 C 15.96 40.89, 16.169999999999998 40.86, 16.68 40.92 C 16.98 41.01, 17.130000000000003 41.05499999999999, 17.28 41.099999999999994 L 17.28 41.099999999999994" fill="none" stroke="black" stroke-width="2"></path><path d="M 10.44 35.46 C 11.91 35.22, 11.999999999999998 35.580000000000005, 13.379999999999999 34.980000000000004 C 14.67 34.02, 14.879999999999999 34.575, 15.96 33.06 C 16.830000000000002 30.990000000000002, 17.190000000000005 30.345000000000002, 17.700000000000003 28.92 C 17.85 28.14, 17.91 27.869999999999997, 18 27.36 C 18.03 27.12, 18.029999999999998 27.015, 18.06 26.880000000000003 C 18.09 26.85, 18.105 26.055, 18.12 26.82 C 18.12 28.380000000000003, 18.03 28.71, 18.12 29.94 C 18.3 30.840000000000003, 18.045 30.930000000000003, 18.48 31.740000000000002 C 19.17 32.46, 18.735 32.535, 19.86 33.18 C 21.42 33.75, 21.27 34.095, 22.98 34.32 C 24.840000000000003 34.2, 25.275000000000002 34.559999999999995, 26.700000000000003 34.08 C 27.69 33.24, 27.93 33.55500000000001, 28.68 32.400000000000006 C 29.19 30.930000000000003, 29.340000000000003 31.200000000000003, 29.700000000000003 29.46 C 29.91 27.450000000000003, 30.015 27.450000000000003, 30.119999999999997 25.44 C 30.119999999999997 23.43, 30.269999999999996 23.654999999999998, 30.119999999999997 21.419999999999998 C 29.82 18.96, 29.759999999999998 18.36, 29.52 16.5 C 29.340000000000003 15.24, 29.385000000000005 15.510000000000002, 29.160000000000004 13.98 C 28.89 12.18, 28.89 12.03, 28.619999999999997 10.379999999999999 C 28.349999999999998 8.879999999999999, 28.334999999999997 8.834999999999999, 28.08 7.38 C 27.839999999999996 5.970000000000001, 27.779999999999998 5.49, 27.599999999999998 4.5600000000000005 C 27.479999999999997 4.11, 27.435 3.975, 27.36 3.66 C 27.33 3.4800000000000004, 27.314999999999998 3.39, 27.299999999999997 3.3000000000000003 C 27.299999999999997 3.3000000000000003, 27.299999999999997 3.3000000000000003, 27.299999999999997 3.3000000000000003 L 27.299999999999997 3.3000000000000003" fill="none" stroke="black" stroke-width="2"></path></svg>