<svg xmlns="http://www.w3.org/2000/svg" viewBox="16.799999237060547 2.793333053588867 17.200000762939453 42.71333122253418" width="17.200000762939453" height="42.71333122253418"><path d="M 27.900000000000002 5.28 C 27.78 4.92, 27.930000000000003 4.845000000000001, 27.660000000000004 4.5600000000000005 C 27.240000000000002 4.35, 27.48 4.32, 26.82 4.14 C 25.92 3.9899999999999998, 25.83 3.915, 25.02 3.84 C 24.3 3.84, 24.165000000000003 3.84, 23.580000000000002 3.84 C 23.130000000000003 3.84, 23.325 3.735, 22.68 3.84 C 21.84 4.05, 21.825 3.8099999999999996, 21 4.26 C 20.189999999999998 4.949999999999999, 20.025 4.965, 19.38 5.64 C 18.9 6.299999999999999, 18.794999999999998 6.27, 18.419999999999998 6.959999999999999 C 18.15 7.679999999999999, 18.015 7.6949999999999985, 17.88 8.399999999999999 C 17.88 9.09, 17.88 9.075, 17.88 9.78 C 17.88 10.5, 17.7 10.47, 17.88 11.22 C 18.240000000000002 12, 18.135 12.12, 18.6 12.78 C 19.17 13.32, 19.245 13.469999999999999, 19.740000000000002 13.86 C 20.160000000000004 14.1, 20.085 14.16, 20.580000000000002 14.34 C 21.15 14.46, 21.119999999999997 14.445000000000002, 21.72 14.580000000000002 C 22.35 14.73, 22.26 14.805, 22.98 14.879999999999999 C 23.79 14.879999999999999, 23.729999999999997 14.879999999999999, 24.599999999999998 14.879999999999999 C 25.53 14.879999999999999, 25.485 14.909999999999998, 26.46 14.879999999999999 C 27.48 14.82, 27.75 14.85, 28.5 14.76 C 28.98 14.64, 29.22 14.58, 29.46 14.52 C 29.46 14.52, 29.46 14.52, 29.46 14.52 L 29.46 14.52" fill="none" stroke="black" stroke-width="2"></path><path d="M 21.419999999999998 14.34 C 21.479999999999997 14.73, 21.509999999999998 14.370000000000001, 21.54 15.120000000000001 C 21.54 16.23, 21.555 15.855, 21.54 17.34 C 21.509999999999998 19.2, 21.54 19.439999999999998, 21.48 21.06 C 21.39 22.439999999999998, 21.345 22.23, 21.299999999999997 23.82 C 21.299999999999997 25.62, 21.299999999999997 25.995, 21.299999999999997 27.42 C 21.299999999999997 28.47, 21.299999999999997 28.455, 21.299999999999997 29.52 C 21.299999999999997 30.6, 21.344999999999995 30.495, 21.299999999999997 31.68 C 21.21 32.97, 21.165 33.15, 21.12 34.26 C 21.12 35.19, 21.165 35.309999999999995, 21.12 36.12 C 21.03 36.81, 20.985 36.75, 20.94 37.5 C 20.94 38.31, 20.94 38.265, 20.94 39.12 C 20.94 40.019999999999996, 20.85 40.185, 20.94 40.92 C 21.119999999999997 41.49, 21.165 41.655, 21.299999999999997 42.06 C 21.39 42.3, 21.15 42.24, 21.48 42.54 C 22.05 42.9, 22.005000000000003 42.915, 22.62 43.26 C 23.28 43.59, 23.085 43.620000000000005, 23.94 43.92 C 24.990000000000002 44.19, 24.96 44.325, 26.04 44.46 C 27.15 44.46, 27.104999999999997 44.565, 28.259999999999998 44.46 C 29.46 44.25, 29.625 44.519999999999996, 30.660000000000004 44.04 C 31.530000000000005 43.29, 31.830000000000005 43.394999999999996, 32.400000000000006 42.54 C 32.67 41.58, 32.805 41.684999999999995, 32.94 40.62 C 32.94 39.45, 33.074999999999996 39.165, 32.94 38.28 C 32.67 37.68, 32.955000000000005 37.769999999999996, 32.400000000000006 37.08 C 31.560000000000002 36.3, 31.695 36.16499999999999, 30.72 35.519999999999996 C 29.61 35.01, 29.564999999999998 34.875, 28.5 34.5 C 27.48 34.26, 27.3 34.14, 26.46 34.019999999999996 C 25.8 34.019999999999996, 25.740000000000002 34.019999999999996, 25.14 34.019999999999996 C 24.6 34.019999999999996, 24.45 33.92999999999999, 24.06 34.019999999999996 C 23.82 34.2, 24.03 34.035, 23.580000000000002 34.38 C 22.92 34.89, 22.799999999999997 35.025000000000006, 22.259999999999998 35.400000000000006 C 21.839999999999996 35.64, 21.72 35.67, 21.419999999999998 35.88 C 21.24 36.06, 21.15 36.150000000000006, 21.06 36.24 C 21.06 36.24, 21.18 36.165000000000006, 21.06 36.24 L 20.580000000000002 36.54" fill="none" stroke="black" stroke-width="2"></path></svg>