<svg xmlns="http://www.w3.org/2000/svg" viewBox="9.220000267028809 4.233333587646484 21.799999237060547 37.32666873931885" width="21.799999237060547" height="37.32666873931885"><path d="M 16.44 5.4 C 15.75 5.34, 15.704999999999998 5.3100000000000005, 15.059999999999999 5.28 C 14.459999999999999 5.28, 14.504999999999999 5.175000000000001, 13.86 5.28 C 13.17 5.49, 13.065000000000001 5.324999999999999, 12.48 5.699999999999999 C 12 6.239999999999999, 12.015 5.984999999999999, 11.52 6.779999999999999 C 11.01 7.829999999999999, 10.8 8.024999999999999, 10.5 8.879999999999999 C 10.41 9.54, 10.365 9.524999999999999, 10.32 10.2 C 10.32 10.89, 10.095 11.025, 10.32 11.58 C 10.77 12, 10.635000000000002 11.999999999999998, 11.22 12.419999999999998 C 11.940000000000001 12.84, 12.030000000000001 12.989999999999998, 12.66 13.26 C 13.2 13.379999999999999, 13.14 13.32, 13.74 13.5 C 14.399999999999999 13.74, 14.325 13.86, 15.059999999999999 13.98 C 15.87 13.98, 16.005 13.98, 16.68 13.98 C 17.22 13.98, 16.994999999999997 14.055, 17.759999999999998 13.98 C 18.75 13.83, 18.615000000000002 13.815, 19.740000000000002 13.68 C 21 13.56, 21.015 13.5, 22.259999999999998 13.440000000000001 C 23.49 13.440000000000001, 23.564999999999998 13.440000000000001, 24.72 13.440000000000001 C 25.8 13.440000000000001, 26.01 13.395000000000001, 26.880000000000003 13.440000000000001 C 27.540000000000003 13.530000000000001, 27.525000000000006 13.32, 28.200000000000003 13.620000000000001 C 28.89 14.13, 29.13 14.145, 29.58 14.64 C 29.79 15.120000000000001, 29.895 15.045000000000002, 30 15.600000000000001 C 30 16.23, 30 16.32, 30 16.86 C 30 17.31, 30.045 17.25, 30 17.759999999999998 C 29.91 18.33, 29.97 18.345, 29.82 18.9 C 29.61 19.439999999999998, 29.610000000000003 19.380000000000003, 29.400000000000002 19.98 C 29.19 20.64, 29.085 20.894999999999996, 28.98 21.299999999999997 C 28.98 21.45, 28.98 21.525, 28.98 21.6 C 28.98 21.6, 28.98 21.6, 28.98 21.6 L 28.98 21.6" fill="none" stroke="black" stroke-width="2"></path><path d="M 19.919999999999998 13.799999999999999 C 20.04 15.239999999999998, 20.055 15.285, 20.16 16.68 C 20.25 18.03, 20.295 18.015, 20.34 19.38 C 20.34 20.759999999999998, 20.34 20.595, 20.34 22.14 C 20.34 23.85, 20.34 23.924999999999997, 20.34 25.56 C 20.34 27.119999999999997, 20.34 27.224999999999998, 20.34 28.68 C 20.34 30.03, 20.355 30.135, 20.34 31.380000000000003 C 20.310000000000002 32.52, 20.34 32.52, 20.28 33.660000000000004 C 20.19 34.8, 20.235 34.875, 20.1 35.94 C 19.92 36.93, 19.860000000000003 36.99, 19.740000000000002 37.92 C 19.68 38.790000000000006, 19.650000000000002 39.045, 19.62 39.660000000000004 C 19.62 40.02, 19.62 40.2, 19.62 40.38 C 19.62 40.38, 19.62 40.38, 19.62 40.38 C 19.62 40.38, 19.62 40.38, 19.62 40.38 C 19.62 40.38, 19.650000000000002 40.335, 19.62 40.38 L 19.5 40.56" fill="none" stroke="black" stroke-width="2"></path></svg>