<svg xmlns="http://www.w3.org/2000/svg" viewBox="12.260000228881836 2.6000001430511475 18.559999465942383 42.98000168800354" width="18.559999465942383" height="42.98000168800354"><path d="M 27 4.68 C 26.31 4.26, 26.624999999999996 4.095, 25.619999999999997 3.84 C 24.299999999999997 3.75, 23.91 3.705, 22.98 3.66 C 22.439999999999998 3.66, 22.575 3.5250000000000004, 21.9 3.66 C 21.09 3.9299999999999997, 21.03 3.7199999999999993, 20.28 4.199999999999999 C 19.59 4.89, 19.575 4.77, 18.9 5.58 C 18.240000000000002 6.51, 18.060000000000002 6.465, 17.580000000000002 7.4399999999999995 C 17.28 8.46, 17.205000000000002 8.34, 16.98 9.48 C 16.83 10.74, 16.68 10.665, 16.68 12 C 16.83 13.41, 16.665 13.71, 16.98 14.82 C 17.46 15.63, 17.43 15.810000000000002, 17.94 16.44 C 18.48 16.89, 18.240000000000002 16.92, 19.02 17.34 C 20.04 17.73, 19.965 17.79, 21.06 18.12 C 22.229999999999997 18.39, 22.11 18.555, 23.4 18.66 C 24.81 18.6, 25.229999999999997 18.705, 26.22 18.54 C 26.79 18.27, 26.549999999999997 18.375, 27.36 18 C 28.41 17.52, 28.845 17.31, 29.46 17.04 C 29.64 16.979999999999997, 29.73 16.95, 29.82 16.919999999999998 C 29.82 16.919999999999998, 29.82 16.919999999999998, 29.82 16.919999999999998 L 29.82 16.919999999999998" fill="none" stroke="black" stroke-width="2"></path><path d="M 22.44 18.66 C 22.35 19.83, 22.485 19.53, 22.259999999999998 21 C 21.9 22.77, 21.84 23.009999999999998, 21.54 24.54 C 21.299999999999997 25.83, 21.345 25.934999999999995, 21.06 27.119999999999997 C 20.729999999999997 28.2, 20.775 28.245, 20.4 29.28 C 19.979999999999997 30.27, 20.534999999999997 30.015, 19.56 31.259999999999998 C 18.03 32.76, 17.955 32.97, 16.5 34.26 C 15.120000000000001 35.34, 14.55 35.76, 13.74 36.42 C 13.5 36.660000000000004, 13.379999999999999 36.78, 13.26 36.900000000000006 L 13.26 36.900000000000006" fill="none" stroke="black" stroke-width="2"></path><path d="M 27.06 27.900000000000002 C 26.939999999999998 29.160000000000004, 27.09 28.935000000000002, 26.82 30.42 C 26.4 32.129999999999995, 26.505000000000003 32.25, 25.98 33.839999999999996 C 25.35 35.31, 25.349999999999998 35.415, 24.72 36.78 C 24.09 38.04, 24.255000000000003 38.114999999999995, 23.46 39.3 C 22.5 40.41, 22.485 40.559999999999995, 21.54 41.519999999999996 C 20.61 42.33, 20.73 42.42, 19.68 43.14 C 18.509999999999998 43.77, 17.97 44.040000000000006, 17.34 44.400000000000006 L 17.16 44.58" fill="none" stroke="black" stroke-width="2"></path></svg>