<svg xmlns="http://www.w3.org/2000/svg" viewBox="10.039999961853027 0.7999999523162842 23.546669006347656 45.679999589920044" width="23.546669006347656" height="45.679999589920044"><path d="M 17.22 12.24 C 16.77 12.24, 16.83 12.15, 16.32 12.24 C 15.75 12.420000000000002, 15.675 12.39, 15.18 12.600000000000001 C 14.76 12.840000000000002, 14.85 12.630000000000003, 14.34 13.080000000000002 C 13.74 13.74, 13.665000000000001 13.665, 13.14 14.399999999999999 C 12.690000000000001 15.209999999999999, 12.540000000000001 15.329999999999998, 12.24 16.02 C 12.09 16.59, 12.045 16.41, 11.94 17.16 C 11.879999999999999 18.09, 11.67 18.21, 11.82 19.02 C 12.18 19.71, 12.149999999999999 19.904999999999998, 12.54 20.4 C 12.959999999999999 20.7, 12.839999999999998 20.67, 13.379999999999999 21 C 14.04 21.36, 14.07 21.435, 14.700000000000001 21.72 C 15.3 21.93, 15.209999999999999 22.035, 15.899999999999999 22.14 C 16.68 22.14, 16.665 22.155, 17.46 22.14 C 18.270000000000003 22.11, 18.135 22.290000000000003, 19.080000000000002 22.080000000000002 C 20.160000000000004 21.689999999999998, 20.535000000000004 21.599999999999998, 21.240000000000002 21.299999999999997 C 21.57 21.089999999999996, 21.57 21.255, 21.9 20.88 C 22.229999999999997 20.339999999999996, 22.2 20.654999999999998, 22.56 19.799999999999997 C 22.95 18.63, 23.055 18.435000000000002, 23.34 17.46 C 23.520000000000003 16.68, 23.565000000000005 16.65, 23.700000000000003 15.899999999999999 C 23.79 15.18, 23.79 14.895, 23.88 14.46 C 23.97 14.31, 24.015 14.235, 24.06 14.16 C 24.06 14.16, 24.06 14.16, 24.06 14.16 C 24.06 14.16, 24.06 13.95, 24.06 14.16 C 24.06 14.58, 24.089999999999996 14.235, 24.06 15 C 24 16.11, 24 16.185, 23.94 17.22 C 23.880000000000003 18.18, 23.82 18.42, 23.82 19.14 C 23.880000000000003 19.62, 23.76 19.695, 23.94 20.1 C 24.240000000000002 20.43, 24.15 20.445, 24.54 20.759999999999998 C 25.02 21.06, 24.810000000000002 21.075, 25.5 21.36 C 26.4 21.63, 26.444999999999997 21.72, 27.299999999999997 21.9 C 28.11 21.990000000000002, 28.200000000000003 22.05, 28.92 22.080000000000002 C 29.55 22.05, 29.625 22.155, 30.18 22.02 C 30.66 21.78, 30.660000000000004 21.915, 31.14 21.54 C 31.619999999999997 21.03, 31.784999999999993 21.044999999999998, 32.099999999999994 20.52 C 32.25 19.98, 32.28 20.055, 32.400000000000006 19.44 C 32.49 18.75, 32.535 18.63, 32.58 18.06 C 32.58 17.61, 32.595 17.82, 32.58 17.16 C 32.55 16.29, 32.64 16.424999999999997, 32.519999999999996 15.419999999999998 C 32.309999999999995 14.28, 32.39999999999999 14.219999999999999, 32.099999999999994 13.14 C 31.709999999999997 12.120000000000001, 31.74 12.045000000000002, 31.32 11.100000000000001 C 30.87 10.23, 30.93 10.275, 30.42 9.36 C 29.85 8.399999999999999, 29.925000000000004 8.37, 29.28 7.4399999999999995 C 28.56 6.539999999999999, 28.559999999999995 6.5249999999999995, 27.839999999999996 5.64 C 27.119999999999997 4.77, 27.060000000000002 4.62, 26.400000000000002 3.9000000000000004 C 25.800000000000004 3.33, 25.665000000000003 3.1500000000000004, 25.200000000000003 2.7600000000000002 C 24.87 2.55, 24.915 2.58, 24.54 2.34 C 24.12 2.07, 23.910000000000004 1.9349999999999998, 23.700000000000003 1.7999999999999998 C 23.700000000000003 1.7999999999999998, 23.700000000000003 1.7999999999999998, 23.700000000000003 1.7999999999999998 C 23.700000000000003 1.7999999999999998, 23.700000000000003 1.7999999999999998, 23.700000000000003 1.7999999999999998 L 23.700000000000003 1.7999999999999998" fill="none" stroke="black" stroke-width="2"></path><path d="M 16.56 21.54 C 16.35 22.14, 16.245 21.855000000000004, 16.14 22.740000000000002 C 16.14 23.91, 15.96 24.089999999999996, 16.14 25.08 C 16.5 25.89, 16.335 25.785000000000004, 16.86 26.700000000000003 C 17.55 27.720000000000002, 17.55 27.870000000000005, 18.240000000000002 28.740000000000002 C 18.93 29.46, 18.915000000000003 29.564999999999998, 19.62 30.18 C 20.34 30.69, 20.13 30.720000000000006, 21.06 31.200000000000003 C 22.2 31.65, 22.35 31.814999999999998, 23.34 32.099999999999994 C 24.18 32.22, 23.985 32.24999999999999, 25.02 32.339999999999996 C 26.25 32.4, 26.445 32.43, 27.48 32.46 C 28.32 32.46, 28.500000000000004 32.46, 29.160000000000004 32.46 C 29.64 32.46, 29.88 32.46, 30.119999999999997 32.46 C 30.119999999999997 32.46, 30.119999999999997 32.46, 30.119999999999997 32.46 C 30.119999999999997 32.46, 30.119999999999997 32.46, 30.119999999999997 32.46 C 30.119999999999997 32.46, 30.119999999999997 32.46, 30.119999999999997 32.46 C 30.119999999999997 32.46, 30.119999999999997 32.445, 30.119999999999997 32.46 C 30.119999999999997 32.489999999999995, 30.345 32.41499999999999, 30.119999999999997 32.519999999999996 C 29.669999999999998 32.7, 29.775 32.7, 29.22 32.88 C 28.560000000000002 33.06, 28.770000000000003 33.06, 27.900000000000002 33.24 C 26.82 33.42, 26.700000000000003 33.434999999999995, 25.740000000000002 33.599999999999994 C 24.9 33.75, 25.08 33.645, 24.06 33.900000000000006 C 22.86 34.260000000000005, 22.62 34.29, 21.66 34.62 C 20.939999999999998 34.92, 21 34.785, 20.22 35.22 C 19.38 35.79, 19.215 35.82, 18.54 36.36 C 18.03 36.870000000000005, 18.119999999999997 36.72, 17.52 37.38 C 16.83 38.19, 16.755000000000003 38.07, 16.14 39 C 15.6 40.05, 15.479999999999999 40.199999999999996, 15.059999999999999 41.099999999999994 C 14.76 41.849999999999994, 14.67 41.96999999999999, 14.46 42.599999999999994 C 14.34 43.11, 14.295000000000002 43.14, 14.22 43.62 C 14.190000000000001 44.06999999999999, 14.175 44.129999999999995, 14.16 44.519999999999996 C 14.16 44.849999999999994, 14.16 44.94, 14.16 45.18 C 14.16 45.33, 14.16 45.405, 14.16 45.480000000000004 L 14.16 45.480000000000004" fill="none" stroke="black" stroke-width="2"></path><path d="M 11.040000000000001 32.82 C 11.88 33.54, 11.91 33.54, 12.72 34.26 C 13.5 34.980000000000004, 13.59 35.05500000000001, 14.28 35.7 C 14.879999999999999 36.269999999999996, 14.97 36.3, 15.48 36.839999999999996 C 15.9 37.349999999999994, 16.005 37.44, 16.32 37.86 C 16.53 38.19, 16.5 38.235, 16.740000000000002 38.519999999999996 C 17.01 38.76, 17.145000000000003 38.879999999999995, 17.28 39 L 17.28 39" fill="none" stroke="black" stroke-width="2"></path></svg>