<svg xmlns="http://www.w3.org/2000/svg" viewBox="8.61004638671875 3.679999828338623 21.276620864868164 36.63431215286255" width="21.276620864868164" height="36.63431215286255"><path d="M 14.76 5.4 C 13.8 5.4, 13.725 5.25, 12.84 5.4 C 12.030000000000001 5.7, 11.955000000000002 5.61, 11.22 6 C 10.559999999999999 6.4799999999999995, 10.29 6.374999999999999, 9.899999999999999 6.959999999999999 C 9.78 7.6499999999999995, 9.719999999999999 7.289999999999999, 9.66 8.34 C 9.66 9.75, 9.645 10.125, 9.66 11.16 C 9.690000000000001 11.82, 9.495000000000001 11.73, 9.72 12.48 C 10.14 13.32, 10.035 13.620000000000001, 10.56 14.16 C 11.190000000000001 14.4, 10.965 14.475000000000001, 11.82 14.64 C 12.9 14.73, 13.02 14.775, 13.98 14.82 C 14.82 14.82, 14.715 14.91, 15.66 14.82 C 16.71 14.64, 17.07 14.595, 17.759999999999998 14.46 C 18.089999999999996 14.370000000000001, 18.255 14.325, 18.419999999999998 14.28 C 18.419999999999998 14.28, 18.419999999999998 14.28, 18.419999999999998 14.28 C 18.419999999999998 14.28, 18.525 14.235, 18.419999999999998 14.28 C 18.21 14.370000000000001, 18.63 14.16, 18 14.46 C 16.95 14.97, 16.95 14.940000000000001, 15.899999999999999 15.48 C 14.849999999999998 16.05, 14.684999999999999 16.035, 13.799999999999999 16.62 C 13.079999999999998 17.22, 13.02 17.19, 12.36 17.82 C 11.76 18.48, 11.73 18.255000000000003, 11.16 19.14 C 10.620000000000001 20.25, 10.455 20.13, 10.08 21.36 C 9.870000000000001 22.71, 9.72 22.935, 9.66 24.06 C 9.75 24.96, 9.54 25.064999999999998, 9.84 25.86 C 10.35 26.55, 10.169999999999998 26.685000000000002, 10.86 27.240000000000002 C 11.73 27.66, 11.535 27.75, 12.600000000000001 28.08 C 13.860000000000001 28.32, 13.950000000000001 28.455, 15.120000000000001 28.56 C 16.200000000000003 28.53, 16.5 28.724999999999998, 17.28 28.5 C 17.76 28.080000000000002, 17.925000000000004 28.410000000000004, 18.240000000000002 27.660000000000004 C 18.39 26.580000000000002, 18.39 26.655, 18.54 25.5 C 18.689999999999998 24.27, 18.765 23.655, 18.84 23.04 C 18.84 23.04, 18.84 23.04, 18.84 23.04 C 18.84 23.04, 18.84 22.86, 18.84 23.04 C 18.84 23.4, 18.84 22.74, 18.84 23.759999999999998 C 18.84 25.439999999999998, 18.705 25.889999999999997, 18.84 27.119999999999997 C 19.11 27.9, 18.99 28.14, 19.38 28.68 C 19.89 28.98, 19.38 29.04, 20.4 29.28 C 21.93 29.46, 22.02 29.715, 23.46 29.64 C 24.810000000000002 29.310000000000002, 25.185000000000002 29.385, 26.160000000000004 28.98 C 26.76 28.5, 26.91 28.575, 27.36 28.02 C 27.66 27.39, 27.705 27.615, 27.96 26.759999999999998 C 28.17 25.68, 28.155 25.949999999999996, 28.380000000000003 24.599999999999998 C 28.62 22.979999999999997, 28.740000000000002 22.965, 28.86 21.36 C 28.86 19.77, 28.86 19.785, 28.86 18.18 C 28.86 16.560000000000002, 28.92 16.44, 28.86 14.940000000000001 C 28.74 13.56, 28.949999999999996 13.83, 28.619999999999997 12.18 C 28.08 10.26, 27.959999999999997 9.735, 27.54 8.34 C 27.240000000000002 7.470000000000001, 27.255000000000003 7.305000000000001, 26.94 6.6000000000000005 C 26.61 6.0600000000000005, 26.46 5.835000000000001, 26.28 5.5200000000000005 C 26.25 5.43, 26.325 5.55, 26.22 5.34 C 26.04 5.01, 25.95 4.845, 25.86 4.68 L 25.86 4.68" fill="none" stroke="black" stroke-width="2"></path><path d="M 18.18 35.160000000000004 C 17.28 35.49, 17.025 35.28, 16.38 35.82 C 15.99 36.57, 15.615000000000002 36.69, 15.600000000000001 37.32 C 15.96 37.83, 15.600000000000001 37.98, 16.32 38.339999999999996 C 17.4 38.55, 17.310000000000002 39, 18.48 38.76 C 19.740000000000002 38.07, 20.34 38.415000000000006, 21 37.38 C 21.060000000000002 36, 21.42 35.519999999999996, 21.12 34.62 C 20.46 34.2, 20.79 33.870000000000005, 19.799999999999997 33.78 C 18.479999999999997 34.019999999999996, 18.105 33.66, 17.16 34.26 C 16.59 35.22, 16.08 35.325, 16.02 36.18 C 16.47 36.93, 16.455 37.245, 16.919999999999998 37.68 C 17.4 37.8, 17.459999999999997 38.055, 17.88 37.92 C 18.240000000000002 37.53, 18.345000000000002 37.8, 18.6 37.14 C 18.75 36.21, 19.095 35.85, 18.9 35.28 C 18.36 35.07, 18.69 34.35, 17.82 34.86 C 16.619999999999997 36.09, 15.915 36.39, 15.419999999999998 37.32 C 15.629999999999999 37.95, 15.195 38.114999999999995, 15.84 38.58 C 16.92 38.879999999999995, 16.845 39.615, 18 39.18 C 19.23 38.01, 19.86 37.605, 20.46 36.839999999999996 C 20.43 36.48, 20.669999999999998 36.434999999999995, 20.4 36.12 C 19.89 35.849999999999994, 19.89 35.655, 19.38 35.58 C 18.869999999999997 35.7, 18.765 35.595, 18.36 35.82 L 17.759999999999998 36.480000000000004" fill="none" stroke="black" stroke-width="2"></path></svg>