<svg xmlns="http://www.w3.org/2000/svg" viewBox="6.783647537231445 3.260000228881836 27.15635108947754 44.579999923706055" width="27.15635108947754" height="44.579999923706055"><path d="M 15.600000000000001 4.74 C 15.120000000000001 4.71, 15.285 4.785, 14.64 4.68 C 13.83 4.5, 13.695 4.41, 13.02 4.32 C 12.48 4.32, 12.629999999999999 4.1850000000000005, 11.94 4.32 C 11.1 4.59, 10.95 4.425000000000001, 10.26 4.86 C 9.719999999999999 5.460000000000001, 9.66 5.370000000000001, 9.18 6.0600000000000005 C 8.76 6.84, 8.655 6.885, 8.34 7.62 C 8.129999999999999 8.31, 8.055 8.235, 7.92 9 C 7.86 9.84, 7.74 9.945, 7.800000000000001 10.68 C 7.98 11.309999999999999, 7.815 11.235, 8.16 11.94 C 8.67 12.719999999999999, 8.67 12.885, 9.18 13.5 C 9.69 13.95, 9.704999999999998 14.069999999999999, 10.2 14.399999999999999 C 10.68 14.61, 10.635 14.655000000000001, 11.16 14.82 C 11.73 14.94, 11.684999999999999 15, 12.299999999999999 15.059999999999999 C 12.96 15.059999999999999, 12.915000000000001 15.165, 13.620000000000001 15.059999999999999 C 14.370000000000001 14.85, 14.475000000000001 14.835, 15.120000000000001 14.64 C 15.660000000000002 14.46, 15.600000000000003 14.445, 16.200000000000003 14.28 C 16.86 14.129999999999999, 16.995 14.07, 17.52 13.98 C 17.909999999999997 13.95, 17.984999999999996 13.934999999999999, 18.299999999999997 13.919999999999998 C 18.54 13.919999999999998, 18.57 13.874999999999996, 18.78 13.919999999999998 C 18.96 14.01, 18.93 13.89, 19.14 14.100000000000001 C 19.380000000000003 14.43, 19.44 14.325, 19.62 14.76 C 19.740000000000002 15.3, 19.71 15.254999999999999, 19.86 15.84 C 20.04 16.47, 20.099999999999998 16.545, 20.22 17.1 C 20.28 17.58, 20.265 17.505, 20.34 18.06 C 20.43 18.689999999999998, 20.384999999999998 18.705, 20.52 19.32 C 20.7 19.92, 20.759999999999998 20.055, 20.88 20.52 C 20.939999999999998 20.85, 20.939999999999998 20.97, 21 21.18 C 21.060000000000002 21.27, 21.09 21.314999999999998, 21.12 21.36 C 21.12 21.36, 21 21.345, 21.12 21.36 C 21.36 21.39, 21.150000000000002 21.494999999999997, 21.6 21.419999999999998 C 22.259999999999998 21.24, 22.32 21.24, 22.919999999999998 21.06 C 23.46 20.880000000000003, 23.49 20.790000000000003, 24 20.700000000000003 C 24.48 20.700000000000003, 24.405 20.730000000000004, 24.96 20.700000000000003 C 25.59 20.64, 25.53 20.610000000000003, 26.22 20.580000000000002 C 26.97 20.580000000000002, 27.029999999999998 20.580000000000002, 27.72 20.580000000000002 C 28.35 20.580000000000002, 28.455 20.475, 28.98 20.580000000000002 C 29.4 20.79, 29.415 20.745, 29.82 21 C 30.21 21.3, 30.269999999999996 21.375, 30.599999999999998 21.6 C 30.869999999999997 21.75, 30.795 21.57, 31.14 21.9 C 31.560000000000002 22.409999999999997, 31.665 22.455, 31.98 22.919999999999998 C 32.190000000000005 23.339999999999996, 32.26500000000001 23.22, 32.400000000000006 23.759999999999998 C 32.46 24.419999999999998, 32.489999999999995 24.674999999999997, 32.519999999999996 25.08 C 32.519999999999996 25.23, 32.519999999999996 25.305, 32.519999999999996 25.380000000000003 L 32.519999999999996 25.380000000000003" fill="none" stroke="black" stroke-width="2"></path><path d="M 13.440000000000001 15.66 C 12.93 16.02, 12.839999999999998 15.945, 12.419999999999998 16.38 C 12.09 16.89, 12.09 16.799999999999997, 11.76 17.4 C 11.43 18.09, 11.340000000000002 18.060000000000002, 11.100000000000001 18.78 C 10.950000000000001 19.53, 10.920000000000002 19.5, 10.8 20.28 C 10.71 21.09, 10.665000000000001 21.165, 10.620000000000001 21.9 C 10.620000000000001 22.56, 10.620000000000001 22.424999999999997, 10.620000000000001 23.22 C 10.620000000000001 24.15, 10.575000000000001 24.375, 10.620000000000001 25.08 C 10.71 25.56, 10.725000000000001 25.68, 10.8 26.04 C 10.86 26.28, 10.844999999999999 26.28, 10.92 26.52 C 11.010000000000002 26.759999999999998, 11.025000000000002 26.805, 11.100000000000001 27 C 11.16 27.15, 11.190000000000001 27.224999999999998, 11.22 27.299999999999997 C 11.22 27.299999999999997, 11.22 27.299999999999997, 11.22 27.299999999999997 C 11.22 27.299999999999997, 11.22 27.299999999999997, 11.22 27.299999999999997 C 11.22 27.299999999999997, 11.22 27.299999999999997, 11.22 27.299999999999997 C 11.22 27.299999999999997, 11.22 27.299999999999997, 11.22 27.299999999999997 C 11.22 27.299999999999997, 11.22 27.299999999999997, 11.22 27.299999999999997 C 11.22 27.299999999999997, 11.22 27.299999999999997, 11.22 27.299999999999997 C 11.22 27.299999999999997, 11.22 27.299999999999997, 11.22 27.299999999999997 L 11.22 27.299999999999997" fill="none" stroke="black" stroke-width="2"></path><path d="M 20.88 21.78 C 20.88 22.26, 20.924999999999997 22.200000000000003, 20.88 22.740000000000002 C 20.79 23.340000000000003, 20.790000000000003 23.01, 20.700000000000003 23.94 C 20.61 25.200000000000003, 20.565 25.335, 20.52 26.46 C 20.52 27.450000000000003, 20.595 27.555, 20.52 28.44 C 20.369999999999997 29.22, 20.354999999999997 28.995, 20.22 30 C 20.1 31.23, 20.085 31.335, 19.98 32.46 C 19.89 33.480000000000004, 19.874999999999996 33.480000000000004, 19.799999999999997 34.5 C 19.74 35.519999999999996, 19.77 35.415, 19.68 36.54 C 19.560000000000002 37.769999999999996, 19.545 37.95, 19.44 39 C 19.35 39.870000000000005, 19.349999999999998 39.945, 19.259999999999998 40.74 C 19.17 41.46, 19.17 41.58, 19.080000000000002 42.18 C 18.990000000000002 42.66, 18.945 42.675, 18.9 43.14 C 18.9 43.59, 18.9 43.5, 18.9 44.04 C 18.9 44.67, 18.9 44.76, 18.9 45.3 C 18.9 45.75, 18.9 45.975, 18.9 46.2 C 18.9 46.2, 18.9 46.155, 18.9 46.2 C 18.9 46.290000000000006, 18.81 46.260000000000005, 18.9 46.38 C 19.08 46.53, 19.005 46.575, 19.259999999999998 46.68 C 19.589999999999996 46.739999999999995, 19.724999999999998 46.769999999999996, 19.919999999999998 46.8 C 19.979999999999997 46.8, 20.009999999999998 46.8, 20.04 46.8 C 20.04 46.8, 19.994999999999997 46.8, 20.04 46.8 C 20.13 46.8, 20.115 46.89, 20.22 46.8 C 20.34 46.62, 20.28 46.769999999999996, 20.46 46.44 C 20.700000000000003 45.96, 20.715000000000003 45.96000000000001, 20.94 45.480000000000004 C 21.15 45, 21.18 44.925, 21.36 44.519999999999996 C 21.509999999999998 44.19, 21.495 44.19, 21.66 43.86 C 21.84 43.53, 21.72 43.665000000000006, 22.02 43.2 C 22.439999999999998 42.6, 22.365 42.6, 22.86 42 C 23.43 41.4, 23.4 41.355, 24 40.8 C 24.63 40.29, 24.375 40.305, 25.259999999999998 39.78 C 26.4 39.24, 26.564999999999998 39.135000000000005, 27.54 38.7 C 28.35 38.370000000000005, 28.440000000000005 38.25, 29.160000000000004 38.04 C 29.790000000000003 37.95, 29.820000000000004 37.905, 30.42 37.86 C 30.990000000000002 37.86, 31.005 37.86, 31.56 37.86 C 32.1 37.86, 32.295 37.86, 32.64 37.86 C 32.79 37.86, 32.864999999999995 37.86, 32.94 37.86 C 32.94 37.86, 32.94 37.86, 32.94 37.86 L 32.94 37.86" fill="none" stroke="black" stroke-width="2"></path></svg>