<svg xmlns="http://www.w3.org/2000/svg" viewBox="7.518559455871582 6.079999923706055 22.92810821533203 38.80806541442871" width="22.92810821533203" height="38.80806541442871"><path d="M 16.14 21.06 C 15.75 20.97, 15.825 20.955, 15.36 20.88 C 14.82 20.82, 14.79 20.79, 14.28 20.759999999999998 C 13.8 20.759999999999998, 13.875 20.714999999999996, 13.32 20.759999999999998 C 12.69 20.85, 12.659999999999998 20.73, 12.059999999999999 20.94 C 11.489999999999998 21.270000000000003, 11.46 21.135, 10.92 21.6 C 10.41 22.2, 10.395 22.11, 9.899999999999999 22.799999999999997 C 9.419999999999998 23.58, 9.239999999999998 23.58, 8.94 24.36 C 8.82 25.14, 8.805 25.125, 8.7 25.92 C 8.61 26.73, 8.504999999999999 26.805, 8.52 27.54 C 8.64 28.2, 8.594999999999999 28.41, 8.76 28.86 C 8.969999999999999 29.099999999999998, 8.745 28.994999999999997, 9.18 29.339999999999996 C 9.84 29.79, 9.585 29.82, 10.5 30.240000000000002 C 11.67 30.630000000000003, 11.594999999999999 30.795, 12.84 31.02 C 14.16 31.08, 14.4 31.14, 15.48 31.14 C 16.32 31.08, 16.125 31.605, 17.16 31.02 C 18.39 29.909999999999997, 18.69 30.074999999999996, 19.62 28.799999999999997 C 20.25 27.36, 20.43 27.060000000000002, 20.88 25.92 C 21.15 25.080000000000002, 21.284999999999997 24.660000000000004, 21.419999999999998 24.240000000000002 C 21.419999999999998 24.240000000000002, 21.389999999999997 24.255000000000003, 21.419999999999998 24.240000000000002 C 21.479999999999997 24.21, 21.509999999999998 23.745, 21.54 24.18 C 21.54 25.08, 21.494999999999997 25.02, 21.54 25.98 C 21.63 27, 21.465 27.165, 21.72 28.02 C 22.14 28.71, 22.049999999999997 28.8, 22.56 29.400000000000002 C 23.159999999999997 29.910000000000004, 22.889999999999997 30.105, 23.759999999999998 30.42 C 24.9 30.540000000000003, 24.9 30.990000000000006, 26.04 30.660000000000004 C 27.18 29.880000000000003, 27.585 29.775, 28.32 29.099999999999998 C 28.65 28.53, 28.71 28.845, 28.98 27.96 C 29.19 26.759999999999998, 29.295 26.805, 29.400000000000002 25.56 C 29.400000000000002 24.27, 29.505000000000003 24.465, 29.400000000000002 22.98 C 29.19 21.3, 29.205000000000002 21.03, 28.98 19.62 C 28.740000000000002 18.48, 28.86 18.48, 28.5 17.34 C 28.02 16.2, 28.125 16.2, 27.54 15.059999999999999 C 26.85 13.919999999999998, 26.895000000000003 13.77, 26.160000000000004 12.78 C 25.380000000000003 11.940000000000001, 25.38 11.985000000000001, 24.599999999999998 11.100000000000001 C 23.82 10.170000000000002, 23.744999999999997 10.08, 23.04 9.24 C 22.41 8.49, 22.17 8.235, 21.78 7.74 C 21.630000000000003 7.5, 21.6 7.425, 21.48 7.26 C 21.39 7.17, 21.345 7.125, 21.299999999999997 7.08 L 21.299999999999997 7.08" fill="none" stroke="black" stroke-width="2"></path><path d="M 12.36 31.08 C 12.09 31.41, 12.21 31.215000000000003, 11.82 31.740000000000002 C 11.31 32.46, 11.265 32.31, 10.8 33.18 C 10.379999999999999 34.2, 10.259999999999998 34.185, 9.959999999999999 35.22 C 9.780000000000001 36.269999999999996, 9.690000000000001 36.51, 9.600000000000001 37.32 C 9.600000000000001 37.89, 9.495000000000001 37.86, 9.600000000000001 38.46 C 9.81 39.09, 9.675 39.045, 10.02 39.72 C 10.5 40.44, 10.41 40.545, 10.98 41.160000000000004 C 11.64 41.67, 11.715 41.760000000000005, 12.299999999999999 42.18 C 12.809999999999999 42.51, 12.66 42.449999999999996, 13.32 42.839999999999996 C 14.13 43.29, 13.995000000000001 43.485, 14.940000000000001 43.74 C 16.020000000000003 43.8, 15.780000000000001 43.95, 17.1 43.86 C 18.66 43.620000000000005, 19.049999999999997 43.815000000000005, 20.22 43.38 C 21 42.75, 21.015 42.87, 21.78 42.12 C 22.53 41.25, 22.71 41.160000000000004, 23.28 40.38 C 23.67 39.69, 23.865 39.345, 24.06 39 L 24.06 39" fill="none" stroke="black" stroke-width="2"></path></svg>