<svg xmlns="http://www.w3.org/2000/svg" viewBox="10.200984954833984 4.940000057220459 22.03190803527832 41.30000162124634" width="22.03190803527832" height="41.30000162124634"><path d="M 18 19.799999999999997 C 17.58 19.619999999999997, 17.895 19.59, 17.16 19.44 C 16.11 19.32, 15.959999999999999 19.185000000000002, 15.059999999999999 19.200000000000003 C 14.309999999999999 19.35, 14.279999999999998 19.080000000000002, 13.559999999999999 19.5 C 12.87 20.189999999999998, 12.719999999999999 20.099999999999998, 12.18 20.88 C 11.79 21.75, 11.639999999999999 21.57, 11.399999999999999 22.62 C 11.309999999999999 23.85, 11.145 24.09, 11.22 25.08 C 11.46 25.83, 11.219999999999999 25.814999999999998, 11.7 26.58 C 12.42 27.36, 12.39 27.6, 13.14 28.14 C 13.920000000000002 28.44, 13.680000000000001 28.545, 14.700000000000001 28.740000000000002 C 15.96 28.830000000000002, 15.915 28.89, 17.22 28.92 C 18.57 28.89, 18.779999999999998 29.04, 19.919999999999998 28.86 C 20.85 28.53, 21.105 28.695, 21.78 28.200000000000003 C 22.200000000000003 27.540000000000003, 22.275000000000002 27.585, 22.62 26.880000000000003 C 22.89 26.130000000000003, 22.98 26.310000000000002, 23.16 25.380000000000003 C 23.25 24.270000000000003, 23.295 23.82, 23.34 23.16 C 23.34 22.950000000000003, 23.34 22.845000000000002, 23.34 22.740000000000002 C 23.34 22.740000000000002, 23.34 22.695000000000004, 23.34 22.740000000000002 C 23.34 22.83, 23.31 22.59, 23.34 22.919999999999998 C 23.4 23.49, 23.25 23.564999999999998, 23.46 24.06 C 23.82 24.48, 23.759999999999998 24.465000000000003, 24.18 24.900000000000002 C 24.66 25.35, 24.735 25.47, 25.14 25.799999999999997 C 25.47 26.009999999999998, 25.319999999999997 26.069999999999997, 25.799999999999997 26.22 C 26.43 26.310000000000002, 26.384999999999998 26.400000000000002, 27.06 26.400000000000002 C 27.78 26.310000000000002, 27.884999999999998 26.625, 28.5 26.22 C 29.009999999999998 25.5, 29.04 25.365000000000002, 29.52 24.78 C 29.97 24.33, 30.015 24.525, 30.42 23.88 C 30.78 23.04, 30.945 23.310000000000002, 31.14 22.200000000000003 C 31.17 20.82, 31.290000000000003 20.805, 31.200000000000003 19.44 C 30.990000000000002 18.090000000000003, 31.11 17.925, 30.78 16.740000000000002 C 30.330000000000002 15.720000000000002, 30.540000000000003 15.975000000000001, 29.880000000000003 14.700000000000001 C 29.01 13.170000000000002, 29.055 13.095, 28.14 11.64 C 27.18 10.26, 27.18 10.155, 26.22 8.879999999999999 C 25.259999999999998 7.71, 24.944999999999997 7.275, 24.299999999999997 6.540000000000001 C 23.97 6.24, 23.805 6.09, 23.64 5.9399999999999995 C 23.64 5.9399999999999995, 23.64 5.9399999999999995, 23.64 5.9399999999999995 L 23.64 5.9399999999999995" fill="none" stroke="black" stroke-width="2"></path><path d="M 17.94 29.160000000000004 C 17.79 29.07, 17.91 29.025000000000002, 17.64 28.98 C 17.25 28.98, 17.265 28.845, 16.86 28.98 C 16.439999999999998 29.25, 16.365 29.265, 16.02 29.52 C 15.75 29.759999999999998, 15.75 29.625, 15.48 30 C 15.21 30.509999999999998, 15.180000000000001 30.479999999999997, 14.940000000000001 31.02 C 14.73 31.590000000000003, 14.715 31.515000000000004, 14.52 32.160000000000004 C 14.34 32.879999999999995, 14.280000000000001 32.879999999999995, 14.16 33.599999999999994 C 14.1 34.31999999999999, 14.114999999999998 34.214999999999996, 14.04 35.04 C 13.95 35.97, 13.905 35.88000000000001, 13.86 36.900000000000006 C 13.86 38.010000000000005, 13.785 38.01, 13.86 39.12 C 14.01 40.23, 13.98 40.394999999999996, 14.16 41.339999999999996 C 14.370000000000001 42.120000000000005, 14.310000000000002 42.015, 14.580000000000002 42.900000000000006 C 14.91 43.89, 14.985 44.295, 15.24 44.88 C 15.420000000000002 45.06, 15.510000000000002 45.150000000000006, 15.600000000000001 45.24 L 15.600000000000001 45.24" fill="none" stroke="black" stroke-width="2"></path><path d="M 14.22 40.26 C 14.400000000000002 40.17, 14.130000000000003 40.23, 14.580000000000002 40.08 C 15.3 39.870000000000005, 14.985 39.975, 16.02 39.660000000000004 C 17.369999999999997 39.24, 17.445 39.120000000000005, 18.72 38.82 C 19.92 38.64, 20.205000000000002 38.55, 21.12 38.46 C 21.75 38.46, 21.794999999999998 38.46, 22.38 38.46 C 22.92 38.46, 23.07 38.46, 23.46 38.46 C 23.700000000000003 38.46, 23.82 38.46, 23.94 38.46 L 23.94 38.46" fill="none" stroke="black" stroke-width="2"></path></svg>