<svg xmlns="http://www.w3.org/2000/svg" viewBox="6.495447635650635 3.4891233444213867 27.75788640975952 38.61087512969971" width="27.75788640975952" height="38.61087512969971"><path d="M 17.52 4.5 C 16.53 4.5, 16.305 4.484999999999999, 15.54 4.5 C 15 4.53, 15.105 4.425000000000001, 14.46 4.5600000000000005 C 13.71 4.800000000000001, 13.635000000000002 4.695, 12.96 5.04 C 12.36 5.49, 12.36 5.3999999999999995, 11.76 5.9399999999999995 C 11.16 6.569999999999999, 10.965 6.479999999999999, 10.56 7.199999999999999 C 10.350000000000001 8.01, 10.245000000000001 7.98, 10.14 8.82 C 10.14 9.690000000000001, 10.14 9.780000000000001, 10.14 10.56 C 10.14 11.25, 10.005 11.399999999999999, 10.14 11.94 C 10.41 12.33, 10.35 12.39, 10.68 12.72 C 11.07 12.99, 11.069999999999999 13.11, 11.459999999999999 13.26 C 11.85 13.29, 11.775 13.215, 12.24 13.32 C 12.780000000000001 13.5, 12.93 13.59, 13.32 13.68 C 13.559999999999999 13.68, 13.41 13.635, 13.799999999999999 13.68 C 14.34 13.77, 14.204999999999998 13.815, 14.879999999999999 13.86 C 15.69 13.86, 15.735 13.919999999999998, 16.5 13.86 C 17.22 13.74, 17.37 13.71, 17.94 13.620000000000001 C 18.36 13.56, 18.060000000000002 13.65, 18.78 13.5 C 19.8 13.26, 19.86 13.23, 20.82 13.02 C 21.72 12.84, 21.84 12.765, 22.62 12.66 C 23.28 12.63, 23.325000000000003 12.615000000000002, 23.94 12.600000000000001 C 24.509999999999998 12.600000000000001, 24.389999999999997 12.450000000000001, 25.08 12.600000000000001 C 25.89 12.900000000000002, 25.950000000000003 12.810000000000002, 26.700000000000003 13.200000000000001 C 27.39 13.68, 27.299999999999997 13.620000000000001, 28.08 14.16 C 28.95 14.76, 29.115 14.745, 29.82 15.36 C 30.36 15.99, 30.450000000000003 16.020000000000003, 30.900000000000002 16.62 C 31.259999999999998 17.189999999999998, 31.215 16.889999999999997, 31.619999999999997 17.759999999999998 C 32.06999999999999 18.93, 32.16 18.810000000000002, 32.519999999999996 20.1 C 32.79 21.509999999999998, 32.88 21.584999999999997, 33.06 22.919999999999998 C 33.150000000000006 24.18, 33.195 24.345000000000002, 33.24 25.44 C 33.24 26.369999999999997, 33.27 26.099999999999998, 33.24 27.299999999999997 C 33.18 28.77, 33.224999999999994 28.935000000000002, 33.12 30.240000000000002 C 32.97 31.38, 33.015 31.275, 32.82 32.519999999999996 C 32.58 33.87, 32.58 34.065, 32.339999999999996 35.22 C 32.099999999999994 36.18, 32.129999999999995 36.405, 31.86 37.14 C 31.56 37.650000000000006, 31.619999999999997 37.620000000000005, 31.259999999999998 38.160000000000004 C 30.84 38.730000000000004, 30.915 38.805, 30.42 39.3 C 29.85 39.72, 29.775000000000002 39.825, 29.28 40.14 C 28.86 40.35, 28.800000000000004 40.410000000000004, 28.44 40.56 C 28.14 40.650000000000006, 28.139999999999997 40.665000000000006, 27.839999999999996 40.74 C 27.54 40.8, 27.705000000000002 40.83, 27.240000000000002 40.86 C 26.61 40.86, 26.46 40.905, 25.98 40.86 C 25.65 40.769999999999996, 25.605 40.8, 25.32 40.68 C 25.08 40.53, 25.08 40.620000000000005, 24.839999999999996 40.38 C 24.599999999999998 40.05, 24.674999999999997 40.245, 24.36 39.72 C 23.97 39, 23.910000000000004 39.135000000000005, 23.580000000000002 38.28 C 23.310000000000002 37.29, 23.22 37.62, 23.04 36.3 C 22.95 34.65, 22.905 34.379999999999995, 22.86 33 C 22.86 31.89, 22.74 31.98, 22.86 30.78 C 23.1 29.490000000000002, 23.1 29.115000000000002, 23.34 28.200000000000003 C 23.58 27.66, 23.7 27.39, 23.82 27.119999999999997 C 23.82 27.119999999999997, 23.82 27.119999999999997, 23.82 27.119999999999997 L 23.82 27.119999999999997" fill="none" stroke="black" stroke-width="2"></path><path d="M 16.38 13.5 C 15.84 13.5, 15.974999999999998 13.425, 15.299999999999999 13.5 C 14.489999999999998 13.649999999999999, 14.655 13.379999999999999, 13.68 13.799999999999999 C 12.54 14.489999999999998, 12.254999999999999 14.309999999999999, 11.399999999999999 15.18 C 10.829999999999998 16.23, 10.844999999999999 15.84, 10.26 17.28 C 9.66 19.11, 9.57 18.855000000000004, 9.06 20.94 C 8.64 23.28, 8.55 23.459999999999997, 8.22 25.619999999999997 C 7.98 27.599999999999998, 7.92 27.705, 7.74 29.58 C 7.62 31.349999999999998, 7.545 31.47, 7.5 33.12 C 7.53 34.65, 7.44 34.754999999999995, 7.5600000000000005 36.18 C 7.7700000000000005 37.5, 7.710000000000001 37.635, 7.98 38.82 C 8.31 39.870000000000005, 8.46 40.35, 8.64 40.92 C 8.67 41.01, 8.684999999999999 41.05499999999999, 8.7 41.099999999999994 C 8.7 41.099999999999994, 8.7 41.099999999999994, 8.7 41.099999999999994 C 8.7 41.099999999999994, 8.7 41.099999999999994, 8.7 41.099999999999994 L 8.7 41.099999999999994" fill="none" stroke="black" stroke-width="2"></path></svg>