<svg xmlns="http://www.w3.org/2000/svg" viewBox="10.964679718017578 3.739452362060547 17.6619873046875 39.53388214111328" width="17.6619873046875" height="39.53388214111328"><path d="M 25.92 6.959999999999999 C 25.89 6.63, 26.22 6.675000000000001, 25.86 6.300000000000001 C 25.17 5.880000000000001, 25.155 5.775, 24.48 5.46 C 23.82 5.25, 24.12 5.205, 23.16 5.04 C 21.9 4.92, 21.855 4.830000000000001, 20.64 4.800000000000001 C 19.47 4.86, 19.514999999999997 4.5600000000000005, 18.299999999999997 4.92 C 17.04 5.58, 17.04 5.220000000000001, 15.78 6.24 C 14.52 7.62, 14.129999999999999 7.755, 13.26 9 C 12.78 10.11, 12.614999999999998 9.9, 12.299999999999999 11.22 C 12.149999999999999 12.75, 11.865 12.975, 12 14.28 C 12.42 15.36, 12.21 15.39, 12.84 16.44 C 13.68 17.46, 13.77 17.745, 14.52 18.48 C 15.18 18.93, 14.985 19.005, 15.84 19.38 C 16.89 19.68, 16.815 19.83, 17.94 19.98 C 19.14 19.98, 19.23 20.28, 20.34 19.98 C 21.36 19.380000000000003, 21.615 19.275000000000002, 22.38 18.78 C 22.89 18.39, 22.935 18.345, 23.4 18 C 23.82 17.7, 23.955000000000002 17.564999999999998, 24.240000000000002 17.4 C 24.39 17.369999999999997, 24.299999999999997 17.355, 24.54 17.34 C 24.87 17.34, 24.840000000000003 17.295, 25.200000000000003 17.34 C 25.590000000000003 17.43, 25.650000000000002 17.34, 25.98 17.52 C 26.25 17.79, 26.175 17.639999999999997, 26.52 18.06 C 26.939999999999998 18.630000000000003, 27.09 18.405, 27.36 19.200000000000003 C 27.479999999999997 20.220000000000002, 27.54 20.010000000000005, 27.599999999999998 21.240000000000002 C 27.599999999999998 22.68, 27.659999999999997 22.74, 27.599999999999998 24.119999999999997 C 27.479999999999997 25.439999999999998, 27.615 24.989999999999995, 27.36 26.759999999999998 C 26.97 28.98, 26.97 29.085, 26.58 31.200000000000003 C 26.189999999999998 33.21, 26.144999999999996 33.644999999999996, 25.799999999999997 35.22 C 25.5 36.36, 25.485 36.585, 25.200000000000003 37.5 C 24.930000000000003 38.19, 25.200000000000003 38.115, 24.660000000000004 38.88 C 23.85 39.72, 23.79 39.885000000000005, 23.04 40.56 C 22.35 41.07, 22.29 41.16, 21.66 41.58 C 21.09 41.91, 20.955 42.075, 20.52 42.24 C 20.22 42.24, 20.264999999999997 42.24, 19.919999999999998 42.24 C 19.53 42.24, 19.65 42.315000000000005, 19.14 42.24 C 18.509999999999998 42.09, 18.479999999999997 42.18, 17.88 41.94 C 17.310000000000002 41.61, 17.235000000000003 41.595, 16.740000000000002 41.28 C 16.32 40.980000000000004, 16.259999999999998 40.995000000000005, 15.899999999999999 40.68 C 15.599999999999998 40.349999999999994, 15.659999999999998 40.62, 15.299999999999999 40.019999999999996 C 14.879999999999999 39.15, 14.76 39.33, 14.46 38.28 C 14.280000000000001 37.05, 14.310000000000002 36.885000000000005, 14.100000000000001 35.82 C 13.860000000000001 34.92, 13.8 34.709999999999994, 13.620000000000001 34.019999999999996 C 13.5 33.54, 13.469999999999999 33.510000000000005, 13.379999999999999 33.06 C 13.32 32.64, 13.29 32.43, 13.26 32.22 L 13.26 32.22" fill="none" stroke="black" stroke-width="2"></path></svg>