<svg xmlns="http://www.w3.org/2000/svg" viewBox="15.920000076293945 -0.04000002145767212 12.559999465942383 43.7600012421608" width="12.559999465942383" height="43.7600012421608"><path d="M 19.919999999999998 0.96 C 19.919999999999998 1.2, 19.919999999999998 1.0799999999999998, 19.919999999999998 1.44 C 19.919999999999998 1.9200000000000002, 19.935 1.7700000000000005, 19.919999999999998 2.4000000000000004 C 19.89 3.18, 19.965 3.075, 19.86 3.96 C 19.68 4.949999999999999, 19.59 4.8, 19.5 5.9399999999999995 C 19.5 7.2299999999999995, 19.5 7.244999999999999, 19.5 8.52 C 19.5 9.780000000000001, 19.485 9.975000000000001, 19.5 11.040000000000001 C 19.53 11.91, 19.395 11.685, 19.56 12.78 C 19.86 14.099999999999998, 19.83 14.234999999999998, 20.16 15.419999999999998 C 20.52 16.47, 20.384999999999998 16.365, 20.88 17.52 C 21.509999999999998 18.78, 21.555 19.02, 22.14 20.04 C 22.68 20.82, 22.575 20.79, 23.22 21.6 C 23.97 22.44, 24.089999999999996 22.665000000000003, 24.72 23.28 C 25.23 23.67, 25.485 23.865, 25.740000000000002 24.06 L 25.740000000000002 24.06" fill="none" stroke="black" stroke-width="2"></path><path d="M 17.16 20.52 C 17.4 20.79, 17.325000000000003 20.34, 17.64 21.06 C 18.03 22.229999999999997, 17.924999999999997 22.095, 18.419999999999998 23.4 C 19.02 24.84, 19.035 25.065, 19.62 26.28 C 20.189999999999998 27.27, 19.965 27.119999999999997, 20.759999999999998 28.259999999999998 C 21.779999999999998 29.549999999999997, 21.584999999999997 29.714999999999996, 22.799999999999997 30.839999999999996 C 24.209999999999997 31.799999999999997, 24.479999999999997 32.07, 25.619999999999997 32.76 C 26.49 33.17999999999999, 26.895 33.37499999999999, 27.36 33.599999999999994 C 27.42 33.629999999999995, 27.45 33.645, 27.48 33.660000000000004 L 27.48 33.660000000000004" fill="none" stroke="black" stroke-width="2"></path><path d="M 27.42 33.78 C 27.36 33.78, 27.494999999999997 33.765, 27.299999999999997 33.78 C 26.97 33.81, 27.36 33.629999999999995, 26.64 33.839999999999996 C 25.53 34.23, 25.470000000000002 34.184999999999995, 24.42 34.62 C 23.43 35.099999999999994, 23.385 35.04, 22.44 35.58 C 21.54 36.18, 21.495 36.06, 20.64 36.78 C 19.83 37.620000000000005, 19.725 37.44, 19.02 38.46 C 18.42 39.66, 18.285 39.915, 17.82 40.86 C 17.490000000000002 41.55, 17.385 41.775000000000006, 17.16 42.24 C 17.04 42.480000000000004, 16.979999999999997 42.6, 16.919999999999998 42.72 L 16.919999999999998 42.72" fill="none" stroke="black" stroke-width="2"></path></svg>