<svg xmlns="http://www.w3.org/2000/svg" viewBox="12.5600004196167 6.053333282470703 20.42666721343994 35.45333480834961" width="20.42666721343994" height="35.45333480834961"><path d="M 24.839999999999996 7.14 C 25.169999999999998 7.14, 25.095 7.14, 25.5 7.14 C 25.98 7.14, 25.995 7.14, 26.46 7.14 C 26.91 7.14, 26.835 7.14, 27.36 7.14 C 27.96 7.14, 28.064999999999998 7.14, 28.56 7.14 C 28.949999999999996 7.14, 28.994999999999997 7.14, 29.339999999999996 7.14 C 29.64 7.14, 29.625 7.14, 29.94 7.14 C 30.27 7.14, 30.36 7.14, 30.599999999999998 7.14 C 30.75 7.14, 30.75 7.14, 30.900000000000002 7.14 C 31.050000000000004 7.14, 31.095000000000002 7.14, 31.200000000000003 7.14 C 31.26 7.14, 31.245 7.14, 31.32 7.14 C 31.41 7.14, 31.380000000000003 6.944999999999999, 31.5 7.14 C 31.65 7.529999999999999, 31.679999999999996 7.485, 31.799999999999997 7.92 C 31.89 8.399999999999999, 31.935 8.264999999999999, 31.98 8.879999999999999 C 31.98 9.629999999999999, 31.98 9.465, 31.98 10.379999999999999 C 31.98 11.459999999999999, 31.98 11.384999999999998, 31.98 12.54 C 31.98 13.77, 31.98 13.89, 31.98 15 C 31.98 15.99, 31.995 15.780000000000001, 31.98 16.98 C 31.950000000000003 18.39, 31.995 18.345, 31.92 19.799999999999997 C 31.8 21.299999999999997, 31.77 21.359999999999996, 31.68 22.799999999999997 C 31.619999999999997 24.18, 31.59 24.389999999999997, 31.56 25.56 C 31.56 26.52, 31.604999999999997 26.61, 31.56 27.48 C 31.47 28.259999999999998, 31.515 28.095, 31.380000000000003 29.04 C 31.200000000000003 30.15, 31.23 30.224999999999998, 31.02 31.259999999999998 C 30.78 32.22, 30.705 32.235, 30.54 33.18 C 30.45 34.11, 30.48 34.29, 30.36 35.04 C 30.21 35.61, 30.255 35.535, 30.06 36.18 C 29.82 36.9, 29.834999999999997 36.959999999999994, 29.58 37.62 C 29.31 38.22, 29.31 38.385, 29.04 38.82 C 28.77 39.09, 28.995 39.03, 28.5 39.36 C 27.78 39.75, 27.615 39.915, 27.06 40.14 C 26.67 40.2, 26.76 40.17, 26.28 40.26 C 25.71 40.379999999999995, 25.695 40.44, 25.14 40.5 C 24.6 40.5, 24.599999999999998 40.515, 24.06 40.5 C 23.52 40.47, 23.37 40.515, 22.98 40.44 C 22.740000000000002 40.32, 22.83 40.515, 22.5 40.2 C 22.08 39.69, 22.155 40.05, 21.66 39.18 C 21.09 37.95, 20.835 37.83, 20.52 36.72 C 20.46 35.730000000000004, 20.43 35.58, 20.4 34.74 C 20.4 34.05, 20.279999999999998 33.99, 20.4 33.36 C 20.64 32.79, 20.459999999999997 32.85, 20.88 32.22 C 21.48 31.529999999999998, 21.39 31.304999999999996, 22.080000000000002 30.839999999999996 C 22.86 30.599999999999998, 22.965 30.54, 23.64 30.36 C 24.21 30.24, 24.255000000000003 30.18, 24.78 30.119999999999997 C 25.26 30.119999999999997, 25.230000000000004 30.029999999999998, 25.740000000000002 30.119999999999997 C 26.28 30.299999999999997, 26.34 30.3, 26.82 30.48 C 27.240000000000002 30.659999999999997, 27.240000000000002 30.599999999999994, 27.660000000000004 30.839999999999996 C 28.080000000000002 31.14, 28.125 31.185000000000002, 28.5 31.44 C 28.830000000000002 31.65, 28.890000000000004 31.65, 29.160000000000004 31.86 C 29.37 32.07, 29.4 32.07, 29.58 32.28 C 29.73 32.49, 29.730000000000004 32.49, 29.880000000000003 32.7 C 30.03 32.91, 30.060000000000002 32.94, 30.18 33.12 C 30.27 33.269999999999996, 30.255 33.225, 30.36 33.42 C 30.479999999999997 33.660000000000004, 30.54 33.78, 30.599999999999998 33.900000000000006 C 30.599999999999998 33.900000000000006, 30.599999999999998 33.900000000000006, 30.599999999999998 33.900000000000006 L 30.599999999999998 33.900000000000006" fill="none" stroke="black" stroke-width="2"></path><path d="M 31.619999999999997 24.78 C 30.869999999999997 24.96, 30.734999999999996 25.005000000000003, 30.119999999999997 25.14 C 29.64 25.23, 29.835 25.275, 29.160000000000004 25.32 C 28.290000000000003 25.32, 28.245000000000005 25.335, 27.42 25.32 C 26.64 25.29, 26.58 25.439999999999998, 25.86 25.259999999999998 C 25.2 24.93, 25.2 25.11, 24.54 24.599999999999998 C 23.88 23.909999999999997, 23.7 23.895, 23.22 23.22 C 22.92 22.56, 22.89 22.619999999999997, 22.62 21.9 C 22.380000000000003 21.119999999999997, 22.29 20.865000000000002, 22.14 20.34 C 22.08 20.07, 22.05 20.009999999999998, 22.02 19.799999999999997 C 22.02 19.65, 22.02 19.619999999999997, 22.02 19.5 C 22.02 19.41, 22.035 19.41, 22.02 19.32 C 21.990000000000002 19.23, 21.975 19.185000000000002, 21.96 19.14 C 21.96 19.14, 22.05 19.080000000000002, 21.96 19.14 C 21.78 19.259999999999998, 21.735000000000003 19.08, 21.6 19.38 C 21.509999999999998 19.86, 21.509999999999998 19.83, 21.419999999999998 20.34 C 21.33 20.88, 21.36 20.819999999999997, 21.240000000000002 21.419999999999998 C 21.090000000000003 22.08, 21.12 22.14, 20.94 22.740000000000002 C 20.73 23.28, 20.82 23.235, 20.52 23.82 C 20.130000000000003 24.45, 20.1 24.585, 19.740000000000002 25.08 C 19.410000000000004 25.439999999999998, 19.605000000000004 25.394999999999996, 19.080000000000002 25.799999999999997 C 18.36 26.25, 18.525000000000002 26.340000000000003, 17.64 26.700000000000003 C 16.59 26.970000000000002, 16.515 27.105000000000004, 15.54 27.240000000000002 C 14.64 27.240000000000002, 14.235 27.240000000000002, 13.74 27.240000000000002 C 13.649999999999999 27.240000000000002, 13.604999999999999 27.240000000000002, 13.559999999999999 27.240000000000002 L 13.559999999999999 27.240000000000002" fill="none" stroke="black" stroke-width="2"></path></svg>