<svg xmlns="http://www.w3.org/2000/svg" viewBox="12.140000343322754 4.619999885559082 15.679999351501465 38.940001487731934" width="15.679999351501465" height="38.940001487731934"><path d="M 13.26 6.12 C 13.469999999999999 6.12, 13.41 6.12, 13.68 6.12 C 14.01 6.12, 13.8 6.135, 14.34 6.12 C 15.09 6.09, 15.03 6.135000000000001, 15.84 6.0600000000000005 C 16.71 5.94, 16.860000000000003 5.925000000000001, 17.580000000000002 5.82 C 18.15 5.73, 18.119999999999997 5.685, 18.72 5.64 C 19.35 5.64, 19.44 5.64, 19.98 5.64 C 20.43 5.64, 20.43 5.64, 20.88 5.64 C 21.33 5.64, 21.315 5.64, 21.78 5.64 C 22.26 5.64, 22.305000000000003 5.64, 22.740000000000002 5.64 C 23.130000000000003 5.64, 23.28 5.64, 23.52 5.64 C 23.61 5.64, 23.625000000000004 5.64, 23.700000000000003 5.64 C 23.76 5.64, 23.745 5.64, 23.82 5.64 C 23.91 5.64, 23.91 5.595, 24 5.64 C 24.09 5.73, 24.09 5.7, 24.18 5.82 C 24.27 5.970000000000001, 24.299999999999997 5.955, 24.36 6.12 C 24.39 6.300000000000001, 24.405 6.285, 24.42 6.48 C 24.42 6.6899999999999995, 24.42 6.72, 24.42 6.8999999999999995 C 24.42 7.049999999999999, 24.42 6.929999999999999, 24.42 7.199999999999999 C 24.42 7.59, 24.42 7.59, 24.42 7.98 C 24.42 8.370000000000001, 24.480000000000004 8.325, 24.42 8.76 C 24.3 9.24, 24.345 9.120000000000001, 24.18 9.72 C 23.97 10.440000000000001, 24.029999999999998 10.275, 23.759999999999998 11.16 C 23.43 12.21, 23.385 12.149999999999999, 23.1 13.26 C 22.86 14.43, 22.89 14.520000000000001, 22.62 15.600000000000001 C 22.32 16.590000000000003, 22.365 16.44, 22.02 17.580000000000002 C 21.630000000000003 18.87, 21.57 18.96, 21.240000000000002 20.16 C 20.970000000000002 21.27, 20.895000000000003 21.48, 20.700000000000003 22.38 C 20.580000000000002 23.07, 20.535000000000004 23.264999999999997, 20.46 23.759999999999998 C 20.43 24.06, 20.415 24.21, 20.4 24.36 C 20.4 24.36, 20.4 24.36, 20.4 24.36 L 20.4 24.36" fill="none" stroke="black" stroke-width="2"></path><path d="M 13.14 25.380000000000003 C 13.38 25.380000000000003, 13.125 25.440000000000005, 13.620000000000001 25.380000000000003 C 14.370000000000001 25.26, 14.145000000000001 25.335, 15.120000000000001 25.14 C 16.32 24.869999999999997, 16.395 24.81, 17.52 24.599999999999998 C 18.57 24.449999999999996, 18.675 24.374999999999996, 19.62 24.299999999999997 C 20.46 24.299999999999997, 20.58 24.209999999999994, 21.299999999999997 24.299999999999997 C 21.9 24.48, 21.795 24.210000000000004, 22.5 24.660000000000004 C 23.31 25.380000000000003, 23.324999999999996 25.095, 24.119999999999997 26.099999999999998 C 24.9 27.39, 25.11 27.285, 25.68 28.68 C 26.04 30.18, 26.130000000000003 30.435, 26.400000000000002 31.68 C 26.58 32.67, 26.669999999999998 32.7, 26.759999999999998 33.660000000000004 C 26.759999999999998 34.59, 26.759999999999998 34.47, 26.759999999999998 35.519999999999996 C 26.759999999999998 36.69, 26.894999999999996 36.989999999999995, 26.759999999999998 37.86 C 26.49 38.43, 26.805 38.31, 26.22 39 C 25.32 39.81, 25.485 39.915, 24.42 40.62 C 23.19 41.22, 23.04 41.385, 21.96 41.82 C 21.03 42.09, 20.805 42.195, 20.1 42.36 C 19.62 42.42, 19.755000000000003 42.45, 19.14 42.480000000000004 C 18.39 42.480000000000004, 18.57 42.660000000000004, 17.64 42.480000000000004 C 16.53 42.120000000000005, 16.305 42.15, 15.419999999999998 41.76 C 14.76 41.34, 14.520000000000001 41.160000000000004, 14.100000000000001 40.92 C 13.920000000000002 40.86, 13.86 40.875, 13.74 40.8 L 13.620000000000001 40.62" fill="none" stroke="black" stroke-width="2"></path></svg>