<svg xmlns="http://www.w3.org/2000/svg" viewBox="10.49333381652832 1.4600000381469727 22.200000762939453 44.95999717712402" width="22.200000762939453" height="44.95999717712402"><path d="M 13.919999999999998 45.42 C 13.649999999999999 43.650000000000006, 13.649999999999999 43.650000000000006, 13.379999999999999 41.88 C 13.11 40.11, 13.14 40.125, 12.84 38.339999999999996 C 12.51 36.54, 12.42 36.27, 12.18 34.74 C 12.03 33.480000000000004, 12 33.675, 11.879999999999999 32.22 C 11.79 30.57, 11.79 30.6, 11.7 28.92 C 11.61 27.21, 11.565 26.865000000000002, 11.52 25.5 C 11.52 24.48, 11.52 24.6, 11.52 23.46 C 11.52 22.200000000000003, 11.52 21.96, 11.52 20.94 C 11.52 20.16, 11.459999999999999 20.085, 11.52 19.38 C 11.64 18.75, 11.655 18.675, 11.76 18.12 C 11.85 17.64, 11.834999999999999 17.67, 11.94 17.16 C 12.059999999999999 16.62, 12.075 16.470000000000002, 12.18 16.080000000000002 C 12.27 15.840000000000002, 12.239999999999998 15.885000000000002, 12.36 15.600000000000001 C 12.51 15.270000000000001, 12.405000000000001 15.270000000000001, 12.66 14.940000000000001 C 13.02 14.61, 13.079999999999998 14.58, 13.379999999999999 14.28 C 13.62 14.01, 13.649999999999999 13.89, 13.86 13.74 C 14.04 13.71, 13.905000000000001 13.68, 14.22 13.68 C 14.670000000000002 13.71, 14.700000000000001 13.665, 15.120000000000001 13.74 C 15.51 13.86, 15.524999999999999 13.815000000000001, 15.899999999999999 13.98 C 16.259999999999998 14.19, 16.23 14.099999999999998, 16.62 14.399999999999999 C 17.04 14.79, 17.040000000000003 14.594999999999999, 17.46 15.18 C 17.88 15.96, 17.864999999999995 15.735000000000001, 18.299999999999997 16.740000000000002 C 18.75 17.970000000000002, 18.855000000000004 18.195000000000004, 19.200000000000003 19.200000000000003 C 19.44 19.98, 19.455 20.085, 19.68 20.759999999999998 C 19.89 21.33, 19.89 21.284999999999997, 20.1 21.9 C 20.310000000000002 22.56, 20.325 22.65, 20.52 23.22 C 20.7 23.7, 20.79 23.939999999999998, 20.88 24.18 C 20.88 24.18, 20.88 24.18, 20.88 24.18 C 20.88 24.18, 20.88 24.18, 20.88 24.18 C 20.88 24.18, 20.88 24.345, 20.88 24.18 C 20.88 23.85, 20.88 23.91, 20.88 23.52 C 20.88 23.07, 20.88 23.085, 20.88 22.62 C 20.88 22.14, 20.88 22.08, 20.88 21.66 C 20.88 21.3, 20.88 21.36, 20.88 20.94 C 20.88 20.46, 20.865 20.445, 20.88 19.98 C 20.91 19.53, 20.865000000000002 19.650000000000002, 20.94 19.080000000000002 C 21.060000000000002 18.39, 21.060000000000002 18.210000000000004, 21.18 17.700000000000003 C 21.299999999999997 17.37, 21.299999999999997 17.445, 21.419999999999998 17.04 C 21.54 16.560000000000002, 21.465 16.560000000000002, 21.66 16.080000000000002 C 21.93 15.600000000000001, 21.975 15.525000000000002, 22.200000000000003 15.120000000000001 C 22.380000000000003 14.790000000000001, 22.365 14.73, 22.56 14.46 C 22.77 14.25, 22.740000000000002 14.205, 22.98 14.04 C 23.25 13.919999999999998, 23.22 13.95, 23.52 13.799999999999999 C 23.85 13.620000000000001, 23.82 13.545000000000002, 24.18 13.440000000000001 C 24.57 13.41, 24.495 13.44, 24.96 13.379999999999999 C 25.5 13.29, 25.544999999999998 13.275, 26.04 13.200000000000001 C 26.490000000000002 13.14, 26.475 13.110000000000001, 26.94 13.080000000000002 C 27.42 13.080000000000002, 27.435000000000002 12.990000000000002, 27.900000000000002 13.080000000000002 C 28.35 13.260000000000002, 28.214999999999996 12.990000000000002, 28.799999999999997 13.440000000000001 C 29.52 14.16, 29.700000000000003 14.219999999999999, 30.240000000000002 14.879999999999999 C 30.6 15.48, 30.630000000000003 15.3, 30.96 16.080000000000002 C 31.259999999999998 17.04, 31.395 17.295, 31.56 18 C 31.589999999999996 18.45, 31.604999999999997 18.525, 31.619999999999997 18.9 C 31.619999999999997 19.2, 31.619999999999997 19.185, 31.619999999999997 19.5 C 31.619999999999997 19.83, 31.784999999999997 19.785, 31.619999999999997 20.16 C 31.29 20.58, 31.425 20.58, 30.96 21 C 30.36 21.42, 30.375 21.509999999999998, 29.759999999999998 21.84 C 29.13 22.08, 29.055 22.14, 28.5 22.32 C 28.02 22.439999999999998, 27.975 22.5, 27.54 22.56 C 27.15 22.56, 27.15 22.619999999999997, 26.759999999999998 22.56 C 26.369999999999997 22.439999999999998, 26.43 22.515, 25.98 22.32 C 25.47 22.05, 25.47 22.14, 24.96 21.78 C 24.450000000000003 21.33, 24.270000000000003 21.24, 23.94 20.88 C 23.79 20.61, 23.94 20.715, 23.64 20.34 C 23.19 19.86, 23.055000000000003 19.785, 22.740000000000002 19.38 C 22.560000000000002 19.049999999999997, 22.544999999999998 19.02, 22.38 18.72 C 22.23 18.45, 22.155 18.314999999999998, 22.080000000000002 18.18 C 22.080000000000002 18.18, 22.080000000000002 18.18, 22.080000000000002 18.18 C 22.080000000000002 18.18, 22.14 18.299999999999997, 22.080000000000002 18.18 C 21.96 17.94, 21.915 17.865000000000002, 21.84 17.700000000000003 C 21.810000000000002 17.61, 21.795 17.595, 21.78 17.52 C 21.78 17.46, 21.78 17.43, 21.78 17.4 C 21.78 17.4, 21.78 17.4, 21.78 17.4 C 21.78 17.4, 21.78 17.4, 21.78 17.4 C 21.78 17.4, 21.78 17.4, 21.78 17.4 C 21.78 17.4, 21.825000000000003 17.52, 21.78 17.4 L 21.6 16.919999999999998" fill="none" stroke="black" stroke-width="2"></path><path d="M 28.5 13.5 C 28.5 13.41, 28.5 13.56, 28.5 13.32 C 28.5 12.93, 28.5 13.004999999999999, 28.5 12.54 C 28.5 12, 28.53 12, 28.5 11.459999999999999 C 28.44 10.919999999999998, 28.470000000000002 10.964999999999998, 28.380000000000003 10.379999999999999 C 28.26 9.75, 28.200000000000003 9.780000000000001, 28.14 9.120000000000001 C 28.14 8.43, 28.17 8.25, 28.14 7.74 C 28.08 7.41, 28.095 7.515000000000001, 28.02 7.08 C 27.93 6.54, 27.914999999999996 6.54, 27.839999999999996 6 C 27.779999999999998 5.46, 27.764999999999997 5.505, 27.72 4.92 C 27.69 4.29, 27.720000000000002 4.2, 27.660000000000004 3.66 C 27.57 3.21, 27.525000000000002 3.0600000000000005, 27.48 2.7600000000000002 C 27.48 2.6100000000000003, 27.48 2.535, 27.48 2.46 C 27.48 2.46, 27.48 2.46, 27.48 2.46 L 27.48 2.46" fill="none" stroke="black" stroke-width="2"></path></svg>