<svg xmlns="http://www.w3.org/2000/svg" viewBox="16.139999389648438 6.559999942779541 17.979999542236328 37.6533317565918" width="17.979999542236328" height="37.6533317565918"><path d="M 23.46 8.399999999999999 C 23.85 8.399999999999999, 23.82 8.399999999999999, 24.240000000000002 8.399999999999999 C 24.69 8.399999999999999, 24.405 8.444999999999999, 25.14 8.399999999999999 C 26.16 8.309999999999999, 26.265 8.265, 27.18 8.22 C 27.99 8.22, 28.095 8.25, 28.799999999999997 8.22 C 29.4 8.16, 29.55 8.13, 30 8.100000000000001 C 30.299999999999997 8.100000000000001, 30.345 8.100000000000001, 30.599999999999998 8.100000000000001 C 30.81 8.100000000000001, 30.855 8.100000000000001, 31.02 8.100000000000001 C 31.14 8.100000000000001, 31.005 7.8450000000000015, 31.259999999999998 8.100000000000001 C 31.65 8.610000000000001, 31.725 8.580000000000002, 32.04 9.120000000000001 C 32.28 9.690000000000001, 32.355 9.120000000000001, 32.519999999999996 10.26 C 32.61 11.969999999999999, 32.655 11.94, 32.7 13.68 C 32.7 15.45, 32.67 15.524999999999999, 32.7 17.22 C 32.760000000000005 18.84, 32.775 19.05, 32.82 20.46 C 32.85 21.66, 32.835 21.72, 32.88 22.86 C 32.94 23.939999999999998, 32.94 23.775, 33 25.02 C 33.06 26.43, 33.105 26.459999999999997, 33.12 27.839999999999996 C 33.09 29.189999999999998, 33.120000000000005 29.25, 33.06 30.54 C 32.97 31.77, 32.97 31.98, 32.88 33 C 32.790000000000006 33.81, 32.82 33.795, 32.7 34.62 C 32.550000000000004 35.459999999999994, 32.565000000000005 35.459999999999994, 32.400000000000006 36.3 C 32.22 37.14, 32.265 37.11, 32.04 37.980000000000004 C 31.77 38.88, 31.77 39.075, 31.5 39.78 C 31.23 40.29, 31.200000000000003 40.379999999999995, 30.96 40.8 C 30.75 41.129999999999995, 30.945 41.025, 30.54 41.46 C 29.939999999999998 42, 29.924999999999997 42.15, 29.339999999999996 42.54 C 28.77 42.78, 28.71 42.855, 28.200000000000003 43.019999999999996 C 27.75 43.11, 27.72 43.155, 27.299999999999997 43.2 C 26.909999999999997 43.2, 26.909999999999997 43.230000000000004, 26.52 43.2 C 26.130000000000003 43.14, 26.145000000000003 43.26, 25.740000000000002 43.08 C 25.32 42.78, 25.380000000000003 42.900000000000006, 24.900000000000002 42.480000000000004 C 24.36 41.940000000000005, 24.21 41.925000000000004, 23.82 41.400000000000006 C 23.58 40.89, 23.565 40.905, 23.34 40.38 C 23.13 39.84, 23.025 39.87, 22.919999999999998 39.3 C 22.919999999999998 38.699999999999996, 22.83 38.864999999999995, 22.919999999999998 38.099999999999994 C 23.1 37.17, 22.935000000000002 37.005, 23.28 36.24 C 23.79 35.64, 23.79 35.475, 24.299999999999997 35.04 C 24.81 34.769999999999996, 24.72 34.725, 25.32 34.5 C 26.01 34.32, 25.965000000000003 34.230000000000004, 26.700000000000003 34.14 C 27.48 34.14, 27.6 34.14, 28.259999999999998 34.14 C 28.799999999999997 34.14, 28.949999999999996 34.11, 29.339999999999996 34.14 C 29.58 34.2, 29.535 34.125, 29.82 34.26 C 30.15 34.47, 30.195 34.47, 30.48 34.68 C 30.72 34.89, 30.675 34.87499999999999, 30.96 35.099999999999994 C 31.29 35.339999999999996, 31.365 35.4, 31.619999999999997 35.58 C 31.799999999999997 35.7, 31.845 35.715, 31.98 35.82 C 32.07 35.91, 32.07000000000001 35.91, 32.160000000000004 36 C 32.25 36.09, 32.295 36.135, 32.339999999999996 36.18 C 32.339999999999996 36.18, 32.339999999999996 36.18, 32.339999999999996 36.18 C 32.339999999999996 36.18, 32.339999999999996 36.18, 32.339999999999996 36.18 C 32.339999999999996 36.18, 32.339999999999996 36.18, 32.339999999999996 36.18 L 32.339999999999996 36.18" fill="none" stroke="black" stroke-width="2"></path><path d="M 32.400000000000006 27.18 C 31.92 27.18, 32.055 27.18, 31.44 27.18 C 30.69 27.18, 30.765 27.18, 29.94 27.18 C 29.04 27.18, 29.1 27.165, 28.14 27.18 C 27.119999999999997 27.21, 27.029999999999998 27.225, 26.099999999999998 27.240000000000002 C 25.259999999999998 27.240000000000002, 25.635 27.180000000000003, 24.42 27.240000000000002 C 22.830000000000002 27.36, 22.545 27.375, 21.240000000000002 27.48 C 20.220000000000002 27.57, 19.950000000000003 27.600000000000005, 19.200000000000003 27.660000000000004 C 18.720000000000002 27.69, 18.480000000000004 27.705, 18.240000000000002 27.72 C 18.240000000000002 27.72, 18.240000000000002 27.72, 18.240000000000002 27.72 C 18.240000000000002 27.72, 18.315 27.72, 18.240000000000002 27.72 C 18.090000000000003 27.72, 18.075000000000003 27.915, 17.94 27.72 C 17.82 27.33, 17.805000000000003 27.645, 17.700000000000003 26.94 C 17.61 25.92, 17.61 26.085, 17.52 24.900000000000002 C 17.43 23.550000000000004, 17.43 23.565000000000005, 17.34 22.200000000000003 C 17.25 20.82, 17.205 21.090000000000003, 17.16 19.44 C 17.16 17.520000000000003, 17.16 17.235000000000003, 17.16 15.600000000000001 C 17.16 14.25, 17.115000000000002 14.129999999999999, 17.16 12.899999999999999 C 17.25 11.79, 17.295 11.549999999999999, 17.34 10.68 C 17.34 10.05, 17.295 9.93, 17.34 9.42 C 17.43 9.030000000000001, 17.475 8.955, 17.52 8.64 C 17.52 8.4, 17.52 8.280000000000001, 17.52 8.16 C 17.52 8.16, 17.52 8.19, 17.52 8.16 C 17.52 8.100000000000001, 17.52 8.190000000000001, 17.52 8.040000000000001 C 17.52 7.800000000000001, 17.52 7.680000000000001, 17.52 7.5600000000000005 L 17.52 7.5600000000000005" fill="none" stroke="black" stroke-width="2"></path></svg>