<svg xmlns="http://www.w3.org/2000/svg" viewBox="10.640000343322754 4.159999847412109 17.63333225250244 38.18000030517578" width="17.63333225250244" height="38.18000030517578"><path d="M 11.64 5.16 C 11.88 6.57, 11.88 6.57, 12.120000000000001 7.98 C 12.360000000000001 9.39, 12.465000000000002 9.495000000000001, 12.600000000000001 10.8 C 12.63 12, 12.600000000000001 11.715, 12.66 13.200000000000001 C 12.75 14.970000000000002, 12.795 14.805000000000001, 12.84 16.740000000000002 C 12.84 18.840000000000003, 12.84 18.990000000000002, 12.84 20.94 C 12.84 22.740000000000002, 12.84 22.77, 12.84 24.54 C 12.84 26.28, 12.84 26.265, 12.84 28.02 C 12.84 29.79, 12.855 29.73, 12.84 31.56 C 12.809999999999999 33.449999999999996, 12.855 33.779999999999994, 12.78 35.339999999999996 C 12.66 36.56999999999999, 12.674999999999999 36.69, 12.54 37.8 C 12.39 38.79, 12.315 39.09, 12.24 39.78 C 12.24 40.17, 12.24 40.365, 12.24 40.56 C 12.24 40.56, 12.24 40.515, 12.24 40.56 C 12.24 40.650000000000006, 12.24 40.59, 12.24 40.74 C 12.24 40.95, 12.24 41.010000000000005, 12.24 41.160000000000004 C 12.24 41.25, 12.24 41.295, 12.24 41.339999999999996 C 12.24 41.339999999999996, 12.24 41.339999999999996, 12.24 41.339999999999996 L 12.24 41.339999999999996" fill="none" stroke="black" stroke-width="2"></path><path d="M 12.96 35.28 C 14.01 35.28, 14.129999999999999 35.28, 15.059999999999999 35.28 C 15.87 35.28, 15.915 35.235, 16.68 35.28 C 17.4 35.370000000000005, 17.52 35.415, 18.12 35.46 C 18.6 35.46, 18.57 35.445, 19.080000000000002 35.46 C 19.62 35.489999999999995, 19.740000000000002 35.474999999999994, 20.16 35.519999999999996 C 20.46 35.58, 20.534999999999997 35.61, 20.759999999999998 35.64 C 20.909999999999997 35.64, 20.985 35.64, 21.06 35.64 L 21.06 35.64" fill="none" stroke="black" stroke-width="2"></path><path d="M 13.26 27.119999999999997 C 13.920000000000002 27.119999999999997, 13.71 27.119999999999997, 14.580000000000002 27.119999999999997 C 15.660000000000002 27.119999999999997, 15.645000000000003 27.119999999999997, 16.740000000000002 27.119999999999997 C 17.85 27.119999999999997, 18 27.104999999999997, 18.96 27.119999999999997 C 19.770000000000003 27.15, 19.935000000000002 27.165, 20.580000000000002 27.18 C 21.060000000000002 27.18, 21 27.18, 21.54 27.18 C 22.14 27.18, 22.215000000000003 27.18, 22.740000000000002 27.18 C 23.19 27.18, 23.25 27.18, 23.64 27.18 C 23.97 27.18, 23.955 27.18, 24.299999999999997 27.18 C 24.659999999999997 27.18, 24.75 27.18, 25.02 27.18 C 25.200000000000003 27.18, 25.26 27.18, 25.380000000000003 27.18 C 25.44 27.18, 25.305 27.27, 25.5 27.18 C 25.830000000000002 27, 25.845000000000006 27.195, 26.160000000000004 26.82 C 26.46 26.25, 26.549999999999997 26.13, 26.759999999999998 25.68 C 26.88 25.35, 26.925 25.425, 27 25.02 C 27.03 24.54, 27 24.854999999999997, 27.06 24.06 C 27.15 22.95, 27.195 23.085, 27.240000000000002 21.84 C 27.240000000000002 20.46, 27.240000000000002 20.160000000000004, 27.240000000000002 19.080000000000002 C 27.240000000000002 18.3, 27.240000000000002 18.45, 27.240000000000002 17.52 C 27.240000000000002 16.439999999999998, 27.240000000000002 16.5, 27.240000000000002 15.36 C 27.240000000000002 14.16, 27.315 13.995000000000001, 27.240000000000002 12.96 C 27.090000000000003 12.09, 27.03 12.06, 26.94 11.22 C 26.910000000000004 10.41, 26.94 10.200000000000001, 26.880000000000003 9.600000000000001 C 26.790000000000003 9.21, 26.745000000000005 9.24, 26.700000000000003 8.82 C 26.700000000000003 8.370000000000001, 26.700000000000003 8.34, 26.700000000000003 7.92 C 26.700000000000003 7.529999999999999, 26.745000000000005 7.5, 26.700000000000003 7.14 C 26.61 6.8100000000000005, 26.58 6.765000000000001, 26.52 6.48 C 26.490000000000002 6.24, 26.490000000000002 6.15, 26.46 6 C 26.43 5.9399999999999995, 26.445 5.955, 26.400000000000002 5.88 C 26.340000000000003 5.789999999999999, 26.310000000000002 5.744999999999999, 26.28 5.699999999999999 C 26.28 5.699999999999999, 26.295 5.744999999999999, 26.28 5.699999999999999 C 26.25 5.609999999999999, 26.28 5.58, 26.22 5.5200000000000005 C 26.13 5.49, 26.159999999999997 5.475, 26.04 5.46 C 25.89 5.46, 25.935000000000002 5.46, 25.740000000000002 5.46 C 25.5 5.46, 25.575 5.4, 25.259999999999998 5.46 C 24.869999999999997 5.58, 24.915 5.609999999999999, 24.48 5.699999999999999 C 24 5.76, 23.94 5.79, 23.52 5.82 C 23.159999999999997 5.82, 23.22 5.82, 22.799999999999997 5.82 C 22.32 5.82, 22.2 5.82, 21.84 5.82 C 21.6 5.82, 21.585 5.82, 21.36 5.82 C 21.15 5.82, 21.090000000000003 5.82, 20.94 5.82 C 20.85 5.82, 20.834999999999997 5.82, 20.759999999999998 5.82 C 20.7 5.82, 20.67 5.82, 20.64 5.82 L 20.64 5.82" fill="none" stroke="black" stroke-width="2"></path></svg>