<svg xmlns="http://www.w3.org/2000/svg" viewBox="14 1.5199999809265137 17.873332977294922 45.02000093460083" width="17.873332977294922" height="45.02000093460083"><path d="M 15 2.52 C 15.18 3.42, 15.209999999999999 2.4000000000000004, 15.36 4.32 C 15.48 7.26, 15.540000000000001 7.904999999999999, 15.600000000000001 10.2 C 15.600000000000001 11.85, 15.555000000000001 11.73, 15.600000000000001 13.5 C 15.690000000000001 15.39, 15.69 15.66, 15.78 17.28 C 15.870000000000001 18.630000000000003, 15.825000000000001 18.825000000000003, 15.96 19.98 C 16.14 20.939999999999998, 16.155 21.18, 16.32 21.9 C 16.47 22.38, 16.44 22.335, 16.62 22.86 C 16.83 23.43, 16.83 23.505000000000003, 17.04 24 C 17.25 24.419999999999998, 17.28 24.569999999999997, 17.46 24.839999999999996 C 17.61 24.959999999999997, 17.564999999999998 24.959999999999997, 17.759999999999998 25.08 C 18 25.2, 17.835 25.17, 18.240000000000002 25.32 C 18.810000000000002 25.5, 18.689999999999998 25.59, 19.38 25.68 C 20.189999999999998 25.68, 20.055 25.68, 21 25.68 C 22.08 25.68, 22.215 25.68, 23.16 25.68 C 23.97 25.68, 24.045 25.68, 24.78 25.68 C 25.439999999999998 25.68, 25.47 25.68, 26.099999999999998 25.68 C 26.699999999999996 25.68, 26.759999999999998 25.68, 27.299999999999997 25.68 C 27.779999999999998 25.68, 27.944999999999997 25.68, 28.259999999999998 25.68 C 28.409999999999997 25.68, 28.439999999999998 25.695, 28.56 25.68 C 28.65 25.65, 28.545 25.634999999999998, 28.740000000000002 25.619999999999997 C 29.04 25.619999999999997, 29.069999999999997 25.65, 29.339999999999996 25.619999999999997 C 29.58 25.56, 29.625 25.56, 29.82 25.5 C 29.97 25.44, 29.955 25.440000000000005, 30.119999999999997 25.380000000000003 C 30.299999999999997 25.32, 30.345 25.349999999999998, 30.48 25.259999999999998 C 30.57 25.14, 30.570000000000004 25.169999999999998, 30.660000000000004 25.02 C 30.75 24.840000000000003, 30.794999999999998 24.975000000000005, 30.839999999999996 24.660000000000004 C 30.839999999999996 24.21, 30.839999999999996 24.285, 30.839999999999996 23.759999999999998 C 30.839999999999996 23.159999999999997, 30.839999999999996 23.205, 30.839999999999996 22.56 C 30.839999999999996 21.869999999999997, 30.914999999999996 21.915, 30.839999999999996 21.18 C 30.689999999999998 20.4, 30.674999999999997 20.355, 30.54 19.62 C 30.419999999999998 18.93, 30.36 18.630000000000003, 30.299999999999997 18.240000000000002 C 30.299999999999997 18.15, 30.299999999999997 18.105, 30.299999999999997 18.06 C 30.299999999999997 18.06, 30.314999999999998 18.104999999999997, 30.299999999999997 18.06 C 30.27 17.97, 30.255000000000003 17.924999999999997, 30.240000000000002 17.88 L 30.240000000000002 17.88" fill="none" stroke="black" stroke-width="2"></path><path d="M 21.54 24.96 C 21.689999999999998 25.41, 21.72 25.095, 21.84 25.86 C 21.93 26.939999999999998, 21.884999999999998 26.924999999999997, 22.02 28.02 C 22.2 29.130000000000003, 22.244999999999997 29.19, 22.38 30.240000000000002 C 22.47 31.23, 22.424999999999997 30.884999999999998, 22.56 32.22 C 22.74 33.9, 22.755 34.035, 22.919999999999998 35.58 C 23.07 36.99, 23.13 37.155, 23.22 38.400000000000006 C 23.25 39.480000000000004, 23.265 39.63, 23.28 40.56 C 23.28 41.34, 23.28 41.324999999999996, 23.28 42.12 C 23.28 42.93, 23.28 43.035000000000004, 23.28 43.74 C 23.28 44.34, 23.28 44.595, 23.28 44.94 C 23.28 45.03, 23.235 45, 23.28 45.12 C 23.37 45.269999999999996, 23.415 45.345, 23.46 45.42 L 23.46 45.42" fill="none" stroke="black" stroke-width="2"></path><path d="M 27.42 25.98 C 27.509999999999998 27.240000000000002, 27.509999999999998 27.315, 27.599999999999998 28.5 C 27.689999999999998 29.61, 27.69 29.354999999999997, 27.78 30.72 C 27.87 32.34, 27.825000000000003 32.505, 27.96 33.96 C 28.14 35.25, 28.23 35.265, 28.32 36.54 C 28.32 37.8, 28.32 37.935, 28.32 39.06 C 28.32 40.05, 28.275 40.230000000000004, 28.32 41.04 C 28.41 41.67, 28.455 41.64, 28.5 42.3 C 28.5 42.989999999999995, 28.455 43.11, 28.5 43.68 C 28.59 44.129999999999995, 28.59 44.114999999999995, 28.68 44.58 C 28.77 45.06, 28.814999999999998 45.3, 28.86 45.54 C 28.86 45.54, 28.86 45.54, 28.86 45.54 L 28.86 45.54" fill="none" stroke="black" stroke-width="2"></path></svg>