<svg xmlns="http://www.w3.org/2000/svg" viewBox="10.880000114440918 4.460000038146973 21.040000915527344 40.440001487731934" width="21.040000915527344" height="40.440001487731934"><path d="M 11.879999999999999 29.400000000000002 C 12.719999999999999 29.490000000000002, 12.704999999999998 29.52, 13.559999999999999 29.58 C 14.43 29.61, 14.43 29.61, 15.299999999999999 29.64 C 16.169999999999998 29.67, 16.305 29.685000000000002, 17.04 29.700000000000003 C 17.64 29.700000000000003, 17.610000000000003 29.865000000000002, 18.240000000000002 29.700000000000003 C 18.9 29.37, 18.9 29.415, 19.56 29.04 C 20.22 28.62, 20.34 28.785000000000004, 20.88 28.200000000000003 C 21.299999999999997 27.450000000000003, 21.33 27.465000000000003, 21.72 26.700000000000003 C 22.08 25.92, 22.185000000000002 25.92, 22.44 25.14 C 22.590000000000003 24.36, 22.635 24.300000000000004, 22.740000000000002 23.580000000000002 C 22.8 22.92, 22.815 22.634999999999998, 22.86 22.259999999999998 C 22.89 22.17, 22.904999999999998 22.125, 22.919999999999998 22.080000000000002 C 22.919999999999998 22.080000000000002, 22.86 22.05, 22.919999999999998 22.080000000000002 C 23.04 22.14, 23.07 21.855000000000004, 23.16 22.200000000000003 C 23.22 22.830000000000002, 23.205000000000002 22.845, 23.28 23.46 C 23.37 24.060000000000002, 23.295 24.075000000000003, 23.46 24.660000000000004 C 23.700000000000003 25.23, 23.685000000000002 25.334999999999997, 23.94 25.799999999999997 C 24.21 26.159999999999997, 24.18 26.22, 24.48 26.52 C 24.810000000000002 26.759999999999998, 24.765 26.73, 25.14 27 C 25.560000000000002 27.299999999999997, 25.575000000000003 27.434999999999995, 25.98 27.599999999999998 C 26.369999999999997 27.630000000000003, 26.415 27.645000000000003, 26.759999999999998 27.660000000000004 C 27.06 27.660000000000004, 26.939999999999998 27.780000000000005, 27.36 27.660000000000004 C 27.9 27.42, 27.990000000000002 27.6, 28.44 27.18 C 28.800000000000004 26.58, 28.770000000000003 26.67, 29.160000000000004 25.98 C 29.580000000000002 25.200000000000003, 29.745 25.095000000000002, 30 24.42 C 30.09 23.85, 30 24.045, 30.18 23.28 C 30.45 22.32, 30.585 22.65, 30.72 21.36 C 30.72 19.740000000000002, 30.674999999999997 19.86, 30.72 18.12 C 30.810000000000002 16.259999999999998, 30.855 16.08, 30.900000000000002 14.399999999999999 C 30.900000000000002 12.899999999999999, 30.900000000000002 12.869999999999997, 30.900000000000002 11.399999999999999 C 30.900000000000002 9.959999999999999, 30.900000000000002 9.69, 30.900000000000002 8.52 C 30.900000000000002 7.62, 30.945000000000004 7.290000000000001, 30.900000000000002 6.720000000000001 C 30.810000000000002 6.48, 30.765 6.405, 30.72 6.24 C 30.72 6.15, 30.72 6.105, 30.72 6.0600000000000005 C 30.72 6.0600000000000005, 30.75 6.105, 30.72 6.0600000000000005 C 30.659999999999997 5.970000000000001, 30.689999999999998 6, 30.599999999999998 5.88 C 30.479999999999997 5.73, 30.465 5.6850000000000005, 30.36 5.58 C 30.27 5.52, 30.255 5.49, 30.18 5.46 C 30.119999999999997 5.46, 30.21 5.46, 30.06 5.46 C 29.82 5.46, 30.075 5.46, 29.58 5.46 C 28.83 5.46, 28.845 5.46, 28.08 5.46 C 27.299999999999997 5.46, 27.375 5.46, 26.52 5.46 C 25.590000000000003 5.46, 25.485000000000003 5.46, 24.660000000000004 5.46 C 23.94 5.46, 23.805 5.46, 23.22 5.46 C 22.77 5.46, 22.665 5.46, 22.32 5.46 C 22.08 5.46, 21.96 5.46, 21.84 5.46 C 21.84 5.46, 21.84 5.46, 21.84 5.46 L 21.84 5.46" fill="none" stroke="black" stroke-width="2"></path><path d="M 21.9 34.08 C 20.61 34.11, 20.505 33.945, 19.32 34.14 C 18.240000000000002 34.5, 17.97 34.47, 17.16 34.86 C 16.62 35.28, 16.725 35.145, 16.080000000000002 35.7 C 15.330000000000002 36.39, 15.075000000000003 36.42, 14.580000000000002 37.08 C 14.340000000000002 37.709999999999994, 14.220000000000002 37.67999999999999, 14.100000000000001 38.339999999999996 C 14.100000000000001 39.03, 13.965000000000002 39.03, 14.100000000000001 39.72 C 14.370000000000001 40.41, 14.205000000000002 40.425, 14.64 41.099999999999994 C 15.24 41.76, 15.285 41.85, 15.84 42.42 C 16.35 42.900000000000006, 16.29 43.02, 16.86 43.38 C 17.490000000000002 43.620000000000005, 17.475 43.74, 18.12 43.86 C 18.78 43.86, 18.51 43.95, 19.44 43.86 C 20.64 43.68, 20.835 43.965, 21.84 43.5 C 22.65 42.75, 22.86 42.629999999999995, 23.46 42 C 23.85 41.49, 23.985000000000003 41.790000000000006, 24.240000000000002 40.980000000000004 C 24.36 39.870000000000005, 24.42 39.675, 24.48 38.76 C 24.48 38.04, 24.525000000000002 37.92, 24.48 37.32 C 24.39 36.84, 24.419999999999998 36.765, 24.299999999999997 36.36 C 24.15 36.03, 24.255 36.03, 24 35.7 C 23.64 35.370000000000005, 23.64 35.4, 23.28 35.04 C 22.92 34.65, 22.89 34.574999999999996, 22.56 34.26 C 22.259999999999998 34.019999999999996, 22.14 33.9, 21.96 33.78 C 21.9 33.78, 21.87 33.78, 21.84 33.78 L 21.84 33.78" fill="none" stroke="black" stroke-width="2"></path></svg>