<svg xmlns="http://www.w3.org/2000/svg" viewBox="14 1.4600000381469727 17.426666259765625 41.24666881561279" width="17.426666259765625" height="41.24666881561279"><path d="M 15 16.200000000000003 C 15.629999999999999 16.26, 15.269999999999998 16.29, 16.259999999999998 16.32 C 17.61 16.32, 17.685000000000002 16.32, 18.96 16.32 C 20.16 16.32, 20.22 16.32, 21.36 16.32 C 22.439999999999998 16.32, 22.424999999999997 16.32, 23.52 16.32 C 24.630000000000003 16.32, 24.75 16.32, 25.740000000000002 16.32 C 26.61 16.32, 26.76 16.32, 27.48 16.32 C 28.049999999999997 16.32, 28.169999999999998 16.245, 28.619999999999997 16.32 C 28.95 16.47, 28.95 16.470000000000002, 29.28 16.62 C 29.61 16.77, 29.715000000000003 16.784999999999997, 29.94 16.919999999999998 C 30.060000000000002 17.04, 30.075 16.905, 30.18 17.16 C 30.27 17.55, 30.314999999999998 17.475, 30.36 17.94 C 30.36 18.48, 30.36 18.45, 30.36 19.02 C 30.36 19.619999999999997, 30.36 19.5, 30.36 20.22 C 30.36 21.06, 30.509999999999998 20.82, 30.36 21.9 C 30.06 23.22, 30.059999999999995 23.4, 29.759999999999998 24.54 C 29.46 25.5, 29.520000000000003 25.32, 29.160000000000004 26.46 C 28.740000000000002 27.78, 28.815 27.659999999999997, 28.32 29.099999999999998 C 27.75 30.659999999999997, 27.6 31.005, 27.18 32.22 C 26.91 33.09, 26.94 33.06, 26.64 33.96 C 26.310000000000002 34.89, 26.28 34.965, 25.98 35.82 C 25.71 36.6, 25.740000000000002 36.660000000000004, 25.44 37.38 C 25.11 38.040000000000006, 24.990000000000002 38.160000000000004, 24.78 38.7 C 24.689999999999998 39.120000000000005, 24.705 39.135, 24.599999999999998 39.54 C 24.479999999999997 39.93, 24.465 39.975, 24.36 40.32 C 24.27 40.620000000000005, 24.240000000000002 40.74, 24.18 40.92 C 24.15 40.980000000000004, 24.134999999999998 41.01, 24.119999999999997 41.04 C 24.119999999999997 41.04, 24.119999999999997 41.04, 24.119999999999997 41.04 L 24.119999999999997 41.04" fill="none" stroke="black" stroke-width="2"></path><path d="M 15.059999999999999 41.7 C 16.11 41.7, 15.825 41.7, 17.16 41.7 C 18.78 41.7, 18.81 41.7, 20.4 41.7 C 21.96 41.7, 22.35 41.7, 23.52 41.7 C 24.299999999999997 41.7, 24.075 41.715, 25.08 41.7 C 26.31 41.67, 26.339999999999996 41.655, 27.54 41.64 C 28.71 41.64, 29.220000000000002 41.64, 29.880000000000003 41.64 C 30.03 41.64, 30.105 41.64, 30.18 41.64 L 30.18 41.64" fill="none" stroke="black" stroke-width="2"></path><path d="M 22.200000000000003 16.02 C 22.200000000000003 15.6, 22.200000000000003 16.155, 22.200000000000003 15.18 C 22.200000000000003 13.65, 22.200000000000003 13.5, 22.200000000000003 12.120000000000001 C 22.200000000000003 10.89, 22.200000000000003 10.950000000000001, 22.200000000000003 9.66 C 22.200000000000003 8.309999999999999, 22.200000000000003 7.994999999999999, 22.200000000000003 6.959999999999999 C 22.200000000000003 6.24, 22.200000000000003 6.300000000000001, 22.200000000000003 5.5200000000000005 C 22.200000000000003 4.68, 22.200000000000003 4.515, 22.200000000000003 3.84 C 22.200000000000003 3.33, 22.200000000000003 3.165, 22.200000000000003 2.82 C 22.200000000000003 2.6399999999999997, 22.200000000000003 2.55, 22.200000000000003 2.46 C 22.200000000000003 2.46, 22.200000000000003 2.46, 22.200000000000003 2.46 L 22.200000000000003 2.46" fill="none" stroke="black" stroke-width="2"></path></svg>