<svg xmlns="http://www.w3.org/2000/svg" viewBox="9.546667098999023 2.6600000858306885 16.293333053588867 43.15999960899353" width="16.293333053588867" height="43.15999960899353"><path d="M 12.36 44.82 C 12.329999999999998 43.68, 12.495 44.67, 12.299999999999999 42.54 C 11.94 39.42, 11.895 39.224999999999994, 11.58 36.3 C 11.31 33.56999999999999, 11.25 33.044999999999995, 11.040000000000001 30.839999999999996 C 10.89 29.159999999999997, 10.86 28.905, 10.74 27.48 C 10.65 26.310000000000002, 10.605 26.22, 10.56 25.14 C 10.56 24.15, 10.530000000000001 24.285, 10.56 23.16 C 10.620000000000001 21.9, 10.5 21.87, 10.68 20.64 C 10.98 19.44, 11.024999999999999 19.14, 11.28 18.240000000000002 C 11.489999999999998 17.64, 11.504999999999999 17.505, 11.7 17.04 C 11.879999999999999 16.71, 11.909999999999998 16.619999999999997, 12.059999999999999 16.38 C 12.18 16.23, 12.149999999999999 16.215000000000003, 12.299999999999999 16.080000000000002 C 12.48 15.96, 12.465 15.9, 12.66 15.84 C 12.870000000000001 15.84, 12.885000000000002 15.795, 13.080000000000002 15.84 C 13.260000000000002 15.93, 13.245000000000001 15.809999999999999, 13.440000000000001 16.02 C 13.65 16.35, 13.65 16.2, 13.86 16.68 C 14.07 17.310000000000002, 14.145 17.310000000000002, 14.28 17.94 C 14.34 18.57, 14.279999999999998 18.615000000000002, 14.399999999999999 19.200000000000003 C 14.579999999999998 19.740000000000002, 14.52 19.485000000000003, 14.76 20.28 C 15.059999999999999 21.33, 15.135 21.405, 15.36 22.38 C 15.51 23.28, 15.585 23.685, 15.66 24.18 C 15.66 24.27, 15.66 24.314999999999998, 15.66 24.36 C 15.66 24.36, 15.66 24.36, 15.66 24.36 C 15.66 24.36, 15.63 24.494999999999997, 15.66 24.36 C 15.719999999999999 24.09, 15.75 24.285, 15.78 23.82 C 15.78 23.16, 15.764999999999999 23.1, 15.78 22.5 C 15.809999999999999 21.96, 15.764999999999999 21.974999999999998, 15.84 21.419999999999998 C 15.96 20.85, 15.930000000000001 20.835, 16.080000000000002 20.28 C 16.26 19.740000000000002, 16.185000000000002 19.800000000000004, 16.44 19.200000000000003 C 16.770000000000003 18.54, 16.875 18.345, 17.1 17.88 C 17.22 17.61, 17.175 17.64, 17.34 17.34 C 17.549999999999997 17.009999999999998, 17.49 16.935, 17.759999999999998 16.68 C 18.089999999999996 16.5, 17.909999999999997 16.56, 18.419999999999998 16.32 C 19.11 16.02, 19.109999999999996 15.93, 19.799999999999997 15.72 C 20.49 15.600000000000001, 20.474999999999998 15.540000000000001, 21.18 15.48 C 21.9 15.48, 21.885 15.42, 22.62 15.48 C 23.369999999999997 15.600000000000001, 23.609999999999996 15.615000000000002, 24.119999999999997 15.72 C 24.39 15.809999999999999, 24.480000000000004 15.825, 24.660000000000004 15.899999999999999 C 24.75 15.959999999999999, 24.794999999999998 15.989999999999998, 24.839999999999996 16.02 L 24.839999999999996 16.02" fill="none" stroke="black" stroke-width="2"></path><path d="M 19.5 15.54 C 19.29 14.82, 19.305 15.21, 19.080000000000002 14.100000000000001 C 18.840000000000003 12.600000000000001, 18.795 12.360000000000001, 18.6 11.100000000000001 C 18.45 10.080000000000002, 18.404999999999998 10.05, 18.299999999999997 9.06 C 18.24 8.1, 18.255 8.025, 18.18 7.14 C 18.09 6.33, 18.045 6.12, 18 5.5200000000000005 C 18 5.130000000000001, 18.045 5.205, 18 4.74 C 17.91 4.2, 17.865000000000002 3.93, 17.82 3.66 C 17.82 3.66, 17.82 3.66, 17.82 3.66 C 17.82 3.66, 17.82 3.66, 17.82 3.66 C 17.82 3.66, 17.82 3.66, 17.82 3.66 C 17.82 3.66, 17.82 3.66, 17.82 3.66 L 17.82 3.66" fill="none" stroke="black" stroke-width="2"></path><path d="M 20.580000000000002 28.380000000000003 C 19.770000000000003 28.44, 19.665000000000003 28.23, 18.96 28.5 C 18.36 28.98, 18.299999999999997 28.875, 17.759999999999998 29.46 C 17.279999999999998 30.15, 17.205 30.104999999999997, 16.799999999999997 30.839999999999996 C 16.47 31.62, 16.305 31.650000000000006, 16.14 32.400000000000006 C 16.14 33.120000000000005, 16.080000000000002 33.12, 16.14 33.839999999999996 C 16.259999999999998 34.56, 16.215 34.755, 16.38 35.28 C 16.589999999999996 35.61, 16.394999999999996 35.565, 16.799999999999997 35.94 C 17.4 36.36, 17.46 36.45, 18 36.78 C 18.48 37.019999999999996, 18.405 37.11, 18.96 37.26 C 19.59 37.32, 19.68 37.365, 20.22 37.38 C 20.67 37.35, 20.73 37.395, 21.12 37.32 C 21.450000000000003 37.2, 21.39 37.364999999999995, 21.78 37.08 C 22.23 36.629999999999995, 22.305 36.69, 22.68 36.18 C 22.98 35.61, 23.1 35.565, 23.28 35.04 C 23.34 34.56, 23.369999999999997 34.574999999999996, 23.4 34.08 C 23.4 33.57, 23.4 33.660000000000004, 23.4 33.06 C 23.4 32.370000000000005, 23.534999999999997 32.445, 23.4 31.68 C 23.13 30.84, 23.085 30.63, 22.86 30 C 22.68 29.580000000000002, 22.665 29.445000000000004, 22.5 29.160000000000004 C 22.35 29.01, 22.305000000000003 28.98, 22.200000000000003 28.86 C 22.14 28.77, 22.110000000000003 28.725, 22.080000000000002 28.68 C 22.080000000000002 28.68, 22.275000000000002 28.71, 22.080000000000002 28.68 C 21.689999999999998 28.619999999999997, 21.659999999999997 28.575, 21.299999999999997 28.56 C 20.97 28.589999999999996, 20.85 28.589999999999996, 20.64 28.619999999999997 C 20.55 28.65, 20.505000000000003 28.665, 20.46 28.68 C 20.46 28.68, 20.46 28.68, 20.46 28.68 L 20.46 28.68" fill="none" stroke="black" stroke-width="2"></path></svg>