<svg xmlns="http://www.w3.org/2000/svg" viewBox="12.979999542236328 2.359999895095825 22.99333095550537 41.5999972820282" width="22.99333095550537" height="41.5999972820282"><path d="M 15.36 21.48 C 15.51 21.45, 14.835 21.435, 15.66 21.419999999999998 C 17.16 21.419999999999998, 17.13 21.419999999999998, 18.66 21.419999999999998 C 20.22 21.419999999999998, 20.235000000000003 21.419999999999998, 21.78 21.419999999999998 C 23.31 21.419999999999998, 23.595 21.419999999999998, 24.839999999999996 21.419999999999998 C 25.799999999999997 21.419999999999998, 25.679999999999996 21.419999999999998, 26.759999999999998 21.419999999999998 C 27.96 21.419999999999998, 28.065000000000005 21.419999999999998, 29.160000000000004 21.419999999999998 C 30.150000000000002 21.419999999999998, 30.240000000000002 21.464999999999996, 31.14 21.419999999999998 C 31.95 21.33, 32.114999999999995 21.36, 32.76 21.240000000000002 C 33.239999999999995 21.090000000000003, 33.315 21.105, 33.72 20.94 C 34.05 20.76, 34.11 20.82, 34.38 20.580000000000002 C 34.59 20.28, 34.665 20.55, 34.8 19.98 C 34.86 19.14, 34.89 19.154999999999998, 34.92 18.299999999999997 C 34.92 17.43, 35.040000000000006 17.7, 34.92 16.56 C 34.68 15.149999999999999, 34.8 15.36, 34.44 13.74 C 33.96 11.91, 33.99 11.58, 33.480000000000004 10.08 C 32.940000000000005 8.91, 32.925000000000004 8.88, 32.400000000000006 7.74 C 31.890000000000004 6.630000000000001, 31.770000000000003 6.36, 31.380000000000003 5.5200000000000005 C 31.11 4.95, 31.08 4.92, 30.839999999999996 4.38 C 30.63 3.87, 30.525 3.615, 30.42 3.3600000000000003 L 30.42 3.3600000000000003" fill="none" stroke="black" stroke-width="2"></path><path d="M 23.52 7.08 C 23.490000000000002 9.06, 23.475 8.805000000000001, 23.46 11.040000000000001 C 23.46 13.530000000000001, 23.445 13.995, 23.46 16.02 C 23.490000000000002 17.58, 23.505 17.505000000000003, 23.52 19.14 C 23.52 20.85, 23.52 20.835, 23.52 22.56 C 23.52 24.299999999999997, 23.655 24.36, 23.52 26.04 C 23.25 27.66, 23.265 27.840000000000003, 22.98 29.28 C 22.68 30.54, 22.65 30.824999999999996, 22.38 31.799999999999997 C 22.14 32.489999999999995, 22.229999999999997 32.28, 21.9 33.18 C 21.479999999999997 34.290000000000006, 21.525 34.38000000000001, 21.06 35.400000000000006 C 20.549999999999997 36.33, 20.669999999999998 36.3, 20.04 37.26 C 19.29 38.25, 19.215 38.475, 18.54 39.24 C 17.939999999999998 39.78, 17.97 39.75, 17.34 40.32 C 16.68 40.92, 16.65 41.01, 16.02 41.519999999999996 C 15.42 41.94, 15.285 42.03, 14.82 42.36 C 14.49 42.599999999999994, 14.370000000000001 42.69, 14.16 42.839999999999996 C 14.07 42.9, 14.025 42.93, 13.98 42.96 L 13.98 42.96" fill="none" stroke="black" stroke-width="2"></path><path d="M 18.240000000000002 38.88 C 18.33 38.85, 18.06 38.835, 18.419999999999998 38.82 C 19.049999999999997 38.82, 18.84 38.82, 19.68 38.82 C 20.73 38.82, 20.385 38.82, 21.78 38.82 C 23.52 38.82, 23.64 38.82, 25.259999999999998 38.82 C 26.759999999999998 38.82, 26.924999999999997 38.82, 28.259999999999998 38.82 C 29.43 38.82, 29.654999999999998 38.805, 30.599999999999998 38.82 C 31.32 38.85, 31.589999999999996 38.865, 32.04 38.88 L 32.400000000000006 38.88" fill="none" stroke="black" stroke-width="2"></path></svg>