<svg xmlns="http://www.w3.org/2000/svg" viewBox="17.83333396911621 -0.04000002145767212 2.666666030883789 48.139998495578766" width="2.666666030883789" height="48.139998495578766"><path d="M 19.14 0.96 C 19.08 1.23, 19.095 0.9299999999999999, 19.02 1.5 C 18.93 2.37, 18.884999999999998 2.475, 18.84 3.24 C 18.84 3.9000000000000004, 18.84 3.8400000000000007, 18.84 4.5600000000000005 C 18.84 5.34, 18.84 5.3100000000000005, 18.84 6.12 C 18.84 6.960000000000001, 18.84 7.140000000000001, 18.84 7.800000000000001 C 18.84 8.280000000000001, 18.84 8.309999999999999, 18.84 8.76 C 18.84 9.18, 18.825 9.135000000000002, 18.84 9.600000000000001 C 18.869999999999997 10.110000000000001, 18.884999999999998 10.185000000000002, 18.9 10.620000000000001 C 18.9 10.98, 18.9 10.995000000000001, 18.9 11.34 C 18.9 11.67, 18.9 11.64, 18.9 12 C 18.9 12.39, 18.9 12.39, 18.9 12.78 C 18.9 13.169999999999998, 18.9 13.139999999999999, 18.9 13.559999999999999 C 18.9 14.01, 18.869999999999997 13.98, 18.9 14.46 C 18.96 14.97, 18.974999999999998 14.955000000000002, 19.02 15.48 C 19.05 16.02, 19.065 16.14, 19.080000000000002 16.56 C 19.080000000000002 16.86, 19.080000000000002 16.77, 19.080000000000002 17.16 C 19.080000000000002 17.64, 19.05 17.76, 19.080000000000002 18.12 C 19.14 18.36, 19.17 18.330000000000002, 19.200000000000003 18.6 C 19.200000000000003 18.900000000000002, 19.200000000000003 18.915000000000003, 19.200000000000003 19.200000000000003 C 19.200000000000003 19.470000000000002, 19.200000000000003 19.455000000000002, 19.200000000000003 19.740000000000002 C 19.200000000000003 20.04, 19.200000000000003 20.13, 19.200000000000003 20.34 C 19.200000000000003 20.46, 19.200000000000003 20.46, 19.200000000000003 20.580000000000002 C 19.200000000000003 20.700000000000003, 19.200000000000003 20.76, 19.200000000000003 20.82 C 19.200000000000003 20.82, 19.200000000000003 20.82, 19.200000000000003 20.82 C 19.200000000000003 20.82, 19.200000000000003 20.82, 19.200000000000003 20.82 L 19.200000000000003 20.82" fill="none" stroke="transparent" stroke-width="2"></path><path d="M 19.200000000000003 24.54 C 19.200000000000003 25.049999999999997, 19.200000000000003 25.08, 19.200000000000003 25.56 C 19.200000000000003 26.009999999999998, 19.200000000000003 25.995, 19.200000000000003 26.46 C 19.200000000000003 26.94, 19.200000000000003 26.865000000000002, 19.200000000000003 27.42 C 19.200000000000003 28.05, 19.155000000000005 28.05, 19.200000000000003 28.68 C 19.29 29.310000000000002, 19.335 29.385, 19.38 29.94 C 19.38 30.42, 19.38 30.405, 19.38 30.900000000000002 C 19.38 31.410000000000004, 19.365 31.305000000000003, 19.38 31.92 C 19.41 32.64, 19.41 32.58, 19.44 33.36 C 19.47 34.2, 19.485 34.230000000000004, 19.5 35.04 C 19.5 35.81999999999999, 19.5 35.91, 19.5 36.599999999999994 C 19.5 37.199999999999996, 19.5 37.245, 19.5 37.8 C 19.5 38.31, 19.5 38.235, 19.5 38.82 C 19.5 39.480000000000004, 19.5 39.555, 19.5 40.14 C 19.5 40.650000000000006, 19.5 40.635000000000005, 19.5 41.160000000000004 C 19.5 41.7, 19.5 41.64, 19.5 42.24 C 19.5 42.900000000000006, 19.5 42.945, 19.5 43.56 C 19.5 44.13, 19.5 44.22, 19.5 44.7 C 19.5 45.09, 19.5 45.09, 19.5 45.480000000000004 C 19.5 45.870000000000005, 19.5 45.93, 19.5 46.26 C 19.5 46.53, 19.5 46.62, 19.5 46.8 C 19.5 46.89, 19.5 46.905, 19.5 46.980000000000004 C 19.5 47.04, 19.5 47.06999999999999, 19.5 47.099999999999994 C 19.5 47.099999999999994, 19.5 47.099999999999994, 19.5 47.099999999999994 C 19.5 47.099999999999994, 19.5 47.099999999999994, 19.5 47.099999999999994 C 19.5 47.099999999999994, 19.5 47.099999999999994, 19.5 47.099999999999994 C 19.5 47.099999999999994, 19.5 47.099999999999994, 19.5 47.099999999999994 C 19.5 47.099999999999994, 19.5 47.099999999999994, 19.5 47.099999999999994 L 19.5 47.099999999999994" fill="none" stroke="black" stroke-width="2"></path></svg>