<svg xmlns="http://www.w3.org/2000/svg" viewBox="12.066666603088379 4.159999847412109 18.17333221435547 33.05867385864258" width="18.17333221435547" height="33.05867385864258"><path d="M 13.080000000000002 5.16 C 13.110000000000001 6.75, 13.125 6.045, 13.14 8.34 C 13.14 11.34, 13.14 11.745000000000001, 13.14 14.34 C 13.14 16.53, 12.975000000000001 16.47, 13.14 18.72 C 13.469999999999999 21.03, 13.469999999999999 21.87, 13.799999999999999 23.34 C 14.129999999999999 23.97, 13.950000000000001 24.074999999999996, 14.46 24.599999999999998 C 15.15 25.02, 15.27 25.23, 15.84 25.44 C 16.29 25.44, 16.110000000000003 25.815, 16.740000000000002 25.44 C 17.55 24.69, 17.73 24.795, 18.36 23.94 C 18.81 22.98, 18.93 22.815, 19.259999999999998 22.02 C 19.47 21.39, 19.545 21.075, 19.68 20.759999999999998 C 19.74 20.759999999999998, 19.679999999999996 20.519999999999996, 19.799999999999997 20.759999999999998 C 19.979999999999997 21.24, 19.83 20.939999999999998, 20.16 21.72 C 20.64 22.799999999999997, 20.445 23.025, 21.12 23.88 C 21.990000000000002 24.509999999999998, 21.495 24.6, 22.86 25.14 C 24.72 25.59, 25.185 25.86, 26.58 26.04 C 27.509999999999998 25.95, 27.915 26.025, 28.44 25.86 C 28.560000000000002 25.62, 28.53 25.965000000000003, 28.68 25.380000000000003 C 28.86 24.450000000000003, 28.905 24.810000000000002, 29.04 23.52 C 29.13 21.869999999999997, 29.174999999999997 22.47, 29.22 20.22 C 29.22 17.369999999999997, 29.22 17.25, 29.22 14.52 C 29.22 11.91, 29.22 11.175, 29.22 9.3 C 29.22 8.16, 29.265 7.965, 29.22 7.02 C 29.13 6.27, 29.085 5.8950000000000005, 29.04 5.5200000000000005 C 29.04 5.5200000000000005, 29.04 5.5200000000000005, 29.04 5.5200000000000005 L 29.04 5.5200000000000005" fill="none" stroke="black" stroke-width="2"></path><path d="M 21.06 7.68 C 20.49 8.129999999999999, 20.205 8.129999999999999, 19.919999999999998 8.58 C 19.919999999999998 9.030000000000001, 19.754999999999995 9.015, 19.919999999999998 9.48 C 20.25 9.96, 20.25 10.17, 20.580000000000002 10.44 C 20.910000000000004 10.5, 20.955000000000002 10.74, 21.240000000000002 10.56 C 21.48 10.14, 21.6 10.08, 21.72 9.72 C 21.72 9.420000000000002, 21.854999999999997 9.495000000000001, 21.72 9.120000000000001 C 21.45 8.670000000000002, 21.674999999999997 8.325000000000001, 21.18 8.22 C 20.46 8.46, 20.205000000000002 8.43, 19.740000000000002 8.7 C 19.53 9, 19.41 9.075, 19.32 9.3 C 19.35 9.450000000000001, 19.29 9.450000000000003, 19.38 9.600000000000001 L 19.68 9.899999999999999" fill="none" stroke="black" stroke-width="2"></path><path d="M 16.98 15.120000000000001 C 18.18 15.120000000000001, 18.119999999999997 15.120000000000001, 19.38 15.120000000000001 C 20.7 15.120000000000001, 21.015 15.165000000000001, 22.02 15.120000000000001 C 22.71 15.030000000000001, 22.979999999999997 14.985000000000001, 23.4 14.940000000000001 C 23.55 14.940000000000001, 23.625 14.940000000000001, 23.700000000000003 14.940000000000001 L 23.700000000000003 14.940000000000001" fill="none" stroke="black" stroke-width="2"></path><path d="M 19.259999999999998 31.68 C 18.75 32.97, 18.540000000000003 33.195, 18.240000000000002 34.26 C 18.15 35.099999999999994, 17.849999999999998 35.474999999999994, 18.06 35.94 C 18.57 36.03, 18.450000000000003 36.39, 19.080000000000002 36.12 C 19.830000000000002 35.489999999999995, 20.19 35.655, 20.580000000000002 34.86 C 20.61 33.9, 20.955000000000002 33.57, 20.64 32.94 C 19.98 32.64, 19.89 32.355, 19.32 32.339999999999996 C 18.84 32.61, 18.66 32.25, 18.36 32.88 C 18.240000000000002 33.870000000000005, 17.76 34.26, 18.12 34.86 C 18.96 35.07, 18.974999999999998 35.355000000000004, 19.799999999999997 35.28 C 20.61 34.92, 21.044999999999998 35.040000000000006, 21.419999999999998 34.56 C 21.36 33.96, 21.644999999999996 33.765, 21.299999999999997 33.36 C 20.669999999999998 33.15, 20.805 32.489999999999995, 20.04 32.94 C 19.14 34.05, 18.705000000000002 34.485, 18.240000000000002 35.160000000000004 L 18.18 35.64" fill="none" stroke="black" stroke-width="2"></path></svg>