<svg xmlns="http://www.w3.org/2000/svg" viewBox="6.579999923706055 4.648658752441406 21.059999465942383 37.23134231567383" width="21.059999465942383" height="37.23134231567383"><path d="M 15.72 29.82 C 15.93 30.3, 15.885 30.03, 16.14 30.78 C 16.44 31.8, 16.5 31.875, 16.740000000000002 32.82 C 16.92 33.69, 16.92 33.72, 17.1 34.56 C 17.28 35.370000000000005, 17.37 35.519999999999996, 17.46 36.18 C 17.46 36.69, 17.46 36.705, 17.46 37.2 C 17.46 37.68000000000001, 17.625 37.635000000000005, 17.46 38.160000000000004 C 17.13 38.730000000000004, 17.189999999999998 38.79, 16.799999999999997 39.3 C 16.349999999999998 39.75, 16.409999999999997 39.825, 15.899999999999999 40.2 C 15.329999999999998 40.5, 15.165 40.635, 14.76 40.8 C 14.52 40.83, 14.594999999999999 40.845, 14.28 40.86 C 13.89 40.86, 13.965 40.86, 13.5 40.86 C 12.959999999999999 40.86, 12.915 40.86, 12.419999999999998 40.86 C 11.969999999999999 40.86, 11.91 40.905, 11.52 40.86 C 11.19 40.769999999999996, 11.295 41.01, 10.86 40.68 C 10.32 40.11, 10.379999999999999 40.53, 9.78 39.54 C 9.12 38.129999999999995, 8.954999999999998 38.205, 8.459999999999999 36.72 C 8.129999999999999 35.16, 8.01 35.02499999999999, 7.800000000000001 33.599999999999994 C 7.710000000000001 32.309999999999995, 7.665 32.07, 7.62 31.02 C 7.62 30.21, 7.53 30.465000000000003, 7.62 29.400000000000002 C 7.800000000000001 28.08, 7.890000000000001 27.735, 7.98 26.759999999999998 C 7.98 26.13, 7.9350000000000005 26.175, 7.98 25.5 C 8.07 24.78, 8.1 24.57, 8.16 24.06 C 8.190000000000001 23.759999999999998, 8.205 23.61, 8.22 23.46 C 8.22 23.46, 8.175 23.55, 8.22 23.46 C 8.309999999999999 23.28, 8.309999999999999 23.310000000000002, 8.399999999999999 23.1 C 8.489999999999998 22.86, 8.265 23.040000000000003, 8.58 22.62 C 9.120000000000001 22.02, 9.165 21.93, 9.66 21.419999999999998 C 10.11 21, 9.975000000000001 20.970000000000002, 10.56 20.580000000000002 C 11.280000000000001 20.22, 11.4 20.1, 12 19.86 C 12.48 19.740000000000002, 12.255 19.755000000000003, 12.96 19.62 C 13.89 19.47, 13.695 19.44, 14.82 19.32 C 16.14 19.23, 16.02 19.185000000000002, 17.46 19.14 C 19.020000000000003 19.14, 19.110000000000003 19.14, 20.580000000000002 19.14 C 21.96 19.14, 22.259999999999998 19.14, 23.34 19.14 C 24.12 19.14, 24.180000000000003 19.185000000000002, 24.900000000000002 19.14 C 25.560000000000002 19.05, 25.785 19.005000000000003, 26.22 18.96 L 26.64 18.96" fill="none" stroke="black" stroke-width="2"></path><path d="M 15.24 6.300000000000001 C 15.18 6.75, 14.940000000000001 6.81, 15.120000000000001 7.199999999999999 C 15.540000000000001 7.529999999999999, 15.600000000000001 7.695, 15.96 7.86 C 16.259999999999998 7.86, 16.365 7.86, 16.56 7.86 C 16.65 7.86, 16.785000000000004 8.07, 16.740000000000002 7.86 C 16.560000000000002 7.4399999999999995, 16.74 7.35, 16.38 7.02 C 15.84 6.78, 15.704999999999998 6.720000000000001, 15.299999999999999 6.540000000000001 C 15.03 6.420000000000001, 14.895 6.360000000000001, 14.76 6.300000000000001 C 14.76 6.300000000000001, 14.879999999999999 6.120000000000001, 14.76 6.300000000000001 C 14.52 6.66, 14.354999999999999 6.705, 14.28 7.02 C 14.370000000000001 7.29, 14.025 7.32, 14.46 7.5600000000000005 C 15.24 7.7700000000000005, 15.39 7.92, 16.02 7.98 C 16.5 7.890000000000001, 16.725 8.085, 16.98 7.800000000000001 C 17.009999999999998 7.32, 17.025 7.1850000000000005, 17.04 6.84 C 17.04 6.63, 17.13 6.66, 17.04 6.42 C 16.86 6.15, 17.07 6.045, 16.68 5.88 C 16.08 5.82, 16.080000000000002 5.475, 15.48 5.76 C 14.879999999999999 6.39, 14.594999999999999 6.629999999999999, 14.28 7.02 C 14.25 7.17, 14.235 7.245, 14.22 7.32 L 14.22 7.32" fill="none" stroke="black" stroke-width="2"></path><path d="M 10.56 14.22 C 11.16 14.22, 10.605 14.22, 11.76 14.22 C 13.469999999999999 14.22, 13.424999999999999 14.22, 15.18 14.22 C 16.98 14.22, 17.130000000000003 14.22, 18.78 14.22 C 20.28 14.22, 20.685000000000002 14.175, 21.78 14.22 C 22.47 14.309999999999999, 22.71 14.354999999999999, 23.16 14.399999999999999 L 23.580000000000002 14.399999999999999" fill="none" stroke="black" stroke-width="2"></path></svg>