<svg xmlns="http://www.w3.org/2000/svg" viewBox="10.079999923706055 2.240000009536743 21.560001373291016 44.00000262260437" width="21.560001373291016" height="44.00000262260437"><path d="M 13.080000000000002 45.24 C 12.99 43.95, 13.229999999999999 44.7, 12.899999999999999 42.660000000000004 C 12.329999999999998 39.870000000000005, 12.165 39.345, 11.76 37.08 C 11.52 35.339999999999996, 11.444999999999999 35.114999999999995, 11.28 33.599999999999994 C 11.190000000000001 32.309999999999995, 11.145000000000001 32.25, 11.100000000000001 31.02 C 11.100000000000001 29.85, 11.100000000000001 29.79, 11.100000000000001 28.68 C 11.100000000000001 27.63, 11.100000000000001 27.599999999999998, 11.100000000000001 26.58 C 11.100000000000001 25.589999999999996, 11.055000000000001 25.574999999999996, 11.100000000000001 24.599999999999998 C 11.190000000000001 23.64, 11.175 23.564999999999998, 11.28 22.68 C 11.399999999999999 21.869999999999997, 11.399999999999999 21.705, 11.52 21.06 C 11.64 20.58, 11.594999999999999 20.67, 11.76 20.1 C 11.969999999999999 19.44, 11.969999999999999 19.32, 12.18 18.78 C 12.39 18.36, 12.270000000000001 18.36, 12.600000000000001 17.94 C 13.05 17.520000000000003, 13.035 17.415000000000003, 13.5 17.1 C 13.98 16.89, 13.950000000000001 16.875, 14.46 16.68 C 15 16.5, 14.729999999999999 16.455, 15.54 16.32 C 16.62 16.23, 16.515 16.185000000000002, 17.700000000000003 16.14 C 18.990000000000002 16.14, 19.080000000000002 16.185000000000002, 20.28 16.14 C 21.39 16.05, 21.240000000000002 16.05, 22.5 15.96 C 23.91 15.870000000000001, 24.225 15.855, 25.32 15.78 C 26.1 15.719999999999999, 26.205000000000002 15.69, 26.880000000000003 15.66 C 27.450000000000003 15.66, 27.54 15.57, 28.02 15.66 C 28.409999999999997 15.84, 28.409999999999997 15.719999999999999, 28.799999999999997 16.02 C 29.189999999999998 16.439999999999998, 29.279999999999998 16.47, 29.58 16.86 C 29.79 17.22, 29.79 16.980000000000004, 30 17.580000000000002 C 30.21 18.42, 30.270000000000003 18.45, 30.42 19.259999999999998 C 30.509999999999998 20.04, 30.555 20.1, 30.599999999999998 20.82 C 30.599999999999998 21.48, 30.599999999999998 21.285, 30.599999999999998 22.14 C 30.599999999999998 23.19, 30.689999999999998 23.295, 30.599999999999998 24.240000000000002 C 30.42 25.080000000000002, 30.585 25.14, 30.240000000000002 25.92 C 29.73 26.64, 29.805 26.835, 29.22 27.36 C 28.560000000000002 27.689999999999998, 28.785000000000004 27.645, 27.900000000000002 28.02 C 26.79 28.439999999999998, 26.73 28.59, 25.68 28.86 C 24.69 28.979999999999997, 24.690000000000005 29.04, 23.700000000000003 29.099999999999998 C 22.71 29.099999999999998, 22.605 29.129999999999995, 21.72 29.099999999999998 C 20.939999999999998 29.04, 20.82 29.16, 20.16 28.98 C 19.62 28.68, 19.62 28.89, 19.080000000000002 28.380000000000003 C 18.54 27.660000000000004, 18.495 27.87, 18 26.94 C 17.55 25.800000000000004, 17.325000000000003 25.260000000000005, 17.1 24.660000000000004 C 17.1 24.6, 17.1 24.57, 17.1 24.54 L 17.1 24.54" fill="none" stroke="black" stroke-width="2"></path><path d="M 18.96 3.24 C 18.57 3.5100000000000002, 18.42 3.4050000000000002, 18.18 3.7800000000000002 C 18.09 4.26, 17.79 4.335, 18 4.74 C 18.509999999999998 5.07, 18.465 5.235, 19.02 5.4 C 19.619999999999997 5.4, 19.785 5.565, 20.22 5.4 C 20.49 5.07, 20.625 5.055000000000001, 20.759999999999998 4.74 C 20.759999999999998 4.4399999999999995, 20.804999999999996 4.365, 20.759999999999998 4.14 C 20.67 3.9899999999999998, 21.060000000000002 3.96, 20.580000000000002 3.84 C 19.71 3.75, 19.395 3.615, 18.84 3.66 C 18.6 3.8400000000000003, 18.63 3.6900000000000004, 18.36 4.0200000000000005 C 18.06 4.5, 17.865 4.56, 17.759999999999998 4.9799999999999995 C 17.85 5.34, 17.700000000000003 5.504999999999999, 17.94 5.699999999999999 C 18.33 5.7299999999999995, 18.39 5.864999999999999, 18.72 5.76 C 18.99 5.52, 19.095 5.595000000000001, 19.259999999999998 5.28 C 19.32 4.890000000000001, 19.349999999999998 4.695, 19.38 4.5 C 19.38 4.5, 19.38 4.5, 19.38 4.5 C 19.38 4.5, 19.38 4.5, 19.38 4.5 L 19.38 4.5" fill="none" stroke="black" stroke-width="2"></path><path d="M 13.559999999999999 11.34 C 15 11.129999999999999, 15.225000000000001 11.07, 16.44 10.92 C 17.43 10.83, 17.13 10.83, 18.419999999999998 10.74 C 20.009999999999998 10.65, 19.755000000000003 10.65, 21.6 10.56 C 23.7 10.469999999999999, 24.464999999999996 10.424999999999999, 25.799999999999997 10.379999999999999 C 26.369999999999997 10.379999999999999, 26.58 10.379999999999999, 26.94 10.379999999999999 L 27.240000000000002 10.379999999999999" fill="none" stroke="black" stroke-width="2"></path></svg>