<svg xmlns="http://www.w3.org/2000/svg" viewBox="9.786666870117188 2.240000009536743 18.15333366394043 44.239999532699585" width="18.15333366394043" height="44.239999532699585"><path d="M 12.72 28.619999999999997 C 12.54 28.14, 12.6 28.35, 12.36 27.660000000000004 C 12.059999999999999 26.76, 12.03 26.55, 11.76 25.86 C 11.52 25.380000000000003, 11.52 25.425000000000004, 11.28 24.900000000000002 C 11.04 24.33, 10.92 24.195, 10.8 23.759999999999998 C 10.8 23.46, 10.8 23.625, 10.8 23.16 C 10.8 22.53, 10.770000000000001 22.409999999999997, 10.8 21.9 C 10.86 21.509999999999998, 10.755 21.495, 10.92 21.12 C 11.19 20.759999999999998, 11.159999999999998 20.79, 11.459999999999999 20.4 C 11.79 19.979999999999997, 11.700000000000001 19.95, 12.120000000000001 19.56 C 12.63 19.2, 12.555 19.2, 13.14 18.84 C 13.8 18.48, 13.695 18.405, 14.46 18.12 C 15.330000000000002 17.910000000000004, 15.300000000000004 17.895000000000003, 16.200000000000003 17.700000000000003 C 17.130000000000003 17.520000000000003, 16.755 17.55, 18.06 17.34 C 19.74 17.1, 19.814999999999998 17.009999999999998, 21.419999999999998 16.86 C 22.95 16.8, 23.310000000000002 16.770000000000003, 24.48 16.740000000000002 C 25.29 16.740000000000002, 25.485 16.740000000000002, 26.099999999999998 16.740000000000002 C 26.52 16.740000000000002, 26.73 16.740000000000002, 26.94 16.740000000000002 L 26.94 16.740000000000002" fill="none" stroke="black" stroke-width="2"></path><path d="M 16.14 3.24 C 15.96 3.75, 15.735 3.84, 15.78 4.26 C 16.05 4.59, 15.99 4.68, 16.32 4.92 C 16.71 5.07, 16.785 5.145, 17.1 5.22 C 17.340000000000003 5.22, 17.37 5.34, 17.580000000000002 5.22 C 17.76 4.98, 17.880000000000003 5.025, 17.94 4.74 C 17.880000000000003 4.41, 17.91 4.32, 17.82 4.08 C 17.700000000000003 3.93, 17.775000000000002 3.9450000000000003, 17.580000000000002 3.7800000000000002 C 17.310000000000002 3.6, 17.34 3.465, 17.04 3.42 C 16.71 3.51, 16.709999999999997 3.3899999999999997, 16.38 3.5999999999999996 C 16.05 3.9299999999999997, 15.870000000000001 4.005, 15.72 4.26 C 15.75 4.4399999999999995, 15.659999999999998 4.5, 15.78 4.62 C 15.990000000000002 4.68, 15.855000000000002 4.71, 16.200000000000003 4.74 C 16.68 4.74, 16.665 4.875, 17.16 4.74 C 17.67 4.47, 17.91 4.409999999999999, 18.18 4.199999999999999 C 18.21 4.05, 18.225 3.975, 18.240000000000002 3.9000000000000004 C 18.240000000000002 3.9000000000000004, 18.270000000000003 3.9150000000000005, 18.240000000000002 3.9000000000000004 C 18.18 3.87, 18.240000000000002 3.795, 18.12 3.84 L 17.759999999999998 4.08" fill="none" stroke="black" stroke-width="2"></path><path d="M 12.18 11.76 C 12.63 11.79, 12.270000000000003 11.85, 13.080000000000002 11.82 C 14.25 11.73, 14.399999999999999 11.73, 15.419999999999998 11.64 C 16.29 11.55, 16.095 11.594999999999999, 17.16 11.459999999999999 C 18.42 11.280000000000001, 18.375 11.190000000000001, 19.68 11.100000000000001 C 21.03 11.100000000000001, 20.955 11.040000000000003, 22.38 11.100000000000001 C 23.880000000000003 11.22, 24.480000000000004 11.280000000000001, 25.380000000000003 11.34 C 25.68 11.34, 25.755000000000003 11.34, 25.98 11.34 L 26.28 11.34" fill="none" stroke="black" stroke-width="2"></path><path d="M 19.02 17.04 C 19.02 17.37, 19.02 17.250000000000004, 19.02 17.700000000000003 C 19.02 18.270000000000003, 18.869999999999997 18, 19.02 18.84 C 19.32 19.95, 19.305 19.919999999999998, 19.62 21.06 C 19.950000000000003 22.229999999999997, 19.965000000000003 22.185, 20.28 23.4 C 20.58 24.66, 20.64 24.840000000000003, 20.88 25.92 C 21.060000000000002 26.82, 21.045 26.775, 21.240000000000002 27.72 C 21.450000000000003 28.71, 21.465 28.560000000000002, 21.66 29.700000000000003 C 21.84 30.990000000000002, 21.93 31.005000000000003, 22.02 32.28 C 22.02 33.54, 22.02 33.75, 22.02 34.8 C 22.02 35.64, 22.064999999999998 35.655, 22.02 36.480000000000004 C 21.93 37.29, 22.035 37.27499999999999, 21.84 38.099999999999994 C 21.54 38.94, 21.720000000000002 38.865, 21.240000000000002 39.78 C 20.58 40.769999999999996, 20.595 40.875, 19.919999999999998 41.76 C 19.229999999999997 42.54, 19.11 42.644999999999996, 18.54 43.32 C 18.09 43.89, 18.060000000000002 43.965, 17.64 44.46 C 17.25 44.879999999999995, 17.085 45.044999999999995, 16.86 45.3 C 16.8 45.39, 16.770000000000003 45.435, 16.740000000000002 45.480000000000004 C 16.740000000000002 45.480000000000004, 16.740000000000002 45.480000000000004, 16.740000000000002 45.480000000000004 L 16.740000000000002 45.480000000000004" fill="none" stroke="black" stroke-width="2"></path></svg>