<svg xmlns="http://www.w3.org/2000/svg" viewBox="13.039999961853027 3.8000001907348633 22.100000381469727 38.000000953674316" width="22.100000381469727" height="38.000000953674316"><path d="M 14.82 17.64 C 14.82 17.19, 14.82 17.28, 14.82 16.740000000000002 C 14.82 16.11, 14.835 16.125, 14.82 15.48 C 14.79 14.82, 14.865 15, 14.76 14.16 C 14.579999999999998 13.14, 14.52 12.96, 14.399999999999999 12.120000000000001 C 14.34 11.46, 14.309999999999999 11.4, 14.28 10.8 C 14.28 10.260000000000002, 14.235 10.275, 14.28 9.72 C 14.370000000000001 9.15, 14.16 9.165000000000001, 14.46 8.58 C 14.97 7.98, 14.865000000000002 7.935, 15.48 7.38 C 16.2 6.87, 15.764999999999997 6.825, 16.919999999999998 6.36 C 18.509999999999998 5.94, 18.645 5.82, 20.1 5.5200000000000005 C 21.42 5.34, 21.39 5.295, 22.740000000000002 5.16 C 24.12 5.07, 23.955 5.069999999999999, 25.5 4.9799999999999995 C 27.21 4.890000000000001, 27.240000000000002 4.845000000000001, 28.92 4.800000000000001 C 30.57 4.800000000000001, 30.915 4.800000000000001, 32.22 4.800000000000001 C 33.18 4.800000000000001, 33.66 4.800000000000001, 34.14 4.800000000000001 L 34.14 4.800000000000001" fill="none" stroke="black" stroke-width="2"></path><path d="M 25.799999999999997 5.58 C 25.799999999999997 6.45, 25.754999999999995 6.0600000000000005, 25.799999999999997 7.32 C 25.89 8.97, 25.875 8.805, 25.98 10.620000000000001 C 26.1 12.600000000000001, 26.16 12.735000000000003, 26.22 14.580000000000002 C 26.22 16.29, 26.22 16.44, 26.22 18 C 26.22 19.41, 26.25 19.259999999999998, 26.22 20.82 C 26.159999999999997 22.53, 26.369999999999997 22.53, 26.099999999999998 24.240000000000002 C 25.619999999999997 25.950000000000003, 25.725 26.025000000000006, 25.14 27.660000000000004 C 24.45 29.220000000000002, 24.36 29.505000000000003, 23.759999999999998 30.78 C 23.25 31.77, 23.400000000000002 31.695, 22.740000000000002 32.76 C 21.93 33.9, 21.885 33.975, 21.12 35.04 C 20.4 36.03, 20.535 36.105, 19.68 37.019999999999996 C 18.69 37.86, 18.78 37.92, 17.700000000000003 38.7 C 16.53 39.42, 16.11 39.705, 15.36 40.14 C 15.030000000000001 40.29, 14.91 40.349999999999994, 14.700000000000001 40.44 C 14.61 40.47, 14.685 40.41, 14.52 40.5 L 14.04 40.8" fill="none" stroke="black" stroke-width="2"></path></svg>