<svg xmlns="http://www.w3.org/2000/svg" viewBox="6.039999961853027 2.299999952316284 20.580001831054688 37.68951725959778" width="20.580001831054688" height="37.68951725959778"><path d="M 14.22 3.3000000000000003 C 12.99 5.73, 12.870000000000001 5.8950000000000005, 11.76 8.16 C 10.77 10.26, 10.725 10.17, 9.78 12.36 C 8.879999999999999 14.639999999999999, 8.55 15.179999999999998, 7.98 16.919999999999998 C 7.74 18.119999999999997, 7.725 17.955, 7.5 19.32 C 7.29 20.85, 7.1850000000000005 21.09, 7.08 22.38 C 7.08 23.43, 6.99 23.625, 7.08 24.48 C 7.26 25.14, 7.17 25.334999999999997, 7.4399999999999995 25.799999999999997 C 7.8 26.069999999999997, 7.665 26.114999999999995, 8.16 26.339999999999996 C 8.79 26.52, 8.91 26.61, 9.42 26.700000000000003 C 9.809999999999999 26.700000000000003, 9.69 26.790000000000006, 10.2 26.700000000000003 C 10.829999999999998 26.52, 10.754999999999999 26.775, 11.459999999999999 26.339999999999996 C 12.239999999999998 25.65, 12.315 25.68, 13.02 24.96 C 13.649999999999999 24.21, 13.725 24.225, 14.28 23.46 C 14.76 22.68, 14.94 22.41, 15.24 21.9 C 15.36 21.659999999999997, 15.42 21.54, 15.48 21.419999999999998 C 15.48 21.419999999999998, 15.45 21.404999999999998, 15.48 21.419999999999998 C 15.540000000000001 21.45, 15.57 21.225, 15.600000000000001 21.48 C 15.600000000000001 21.96, 15.600000000000001 21.840000000000003, 15.600000000000001 22.44 C 15.600000000000001 23.16, 15.495000000000001 23.189999999999998, 15.600000000000001 23.88 C 15.81 24.54, 15.765 24.660000000000004, 16.02 25.200000000000003 C 16.32 25.62, 16.14 25.560000000000002, 16.62 26.04 C 17.28 26.58, 16.830000000000002 26.759999999999998, 17.94 27.119999999999997 C 19.5 27.299999999999997, 19.5 27.54, 21.06 27.48 C 22.619999999999997 27.18, 23.04 27.225, 24.18 26.880000000000003 C 24.9 26.490000000000002, 25.259999999999998 26.294999999999998, 25.619999999999997 26.099999999999998 C 25.619999999999997 26.099999999999998, 25.619999999999997 26.099999999999998, 25.619999999999997 26.099999999999998 L 25.619999999999997 26.099999999999998" fill="none" stroke="black" stroke-width="2"></path><path d="M 18.06 30.78 C 16.83 30.78, 17.055 30.705000000000002, 15.600000000000001 30.78 C 13.920000000000002 30.93, 13.440000000000001 30.735, 12.24 31.08 C 11.52 31.62, 11.475000000000001 31.425000000000004, 10.8 32.160000000000004 C 10.170000000000002 33.09, 9.855 33.03, 9.540000000000001 34.019999999999996 C 9.540000000000001 35.06999999999999, 9.375000000000002 35.279999999999994, 9.540000000000001 36.12 C 9.870000000000001 36.75, 9.6 36.81, 10.2 37.38 C 11.07 37.89, 10.875 38.025000000000006, 11.94 38.400000000000006 C 13.2 38.64, 13.185 38.775000000000006, 14.46 38.88 C 15.75 38.85, 15.735 39.18, 17.04 38.82 C 18.36 38.129999999999995, 18.675 38.22, 19.68 37.44 C 20.369999999999997 36.57, 20.64 36.480000000000004, 21.06 35.7 C 21.21 35.010000000000005, 21.285 35.025, 21.36 34.32 C 21.36 33.6, 21.689999999999998 33.525000000000006, 21.36 32.88 C 20.7 32.31, 20.685 32.13, 20.04 31.740000000000002 C 19.41 31.53, 19.605 31.47, 18.78 31.32 C 17.76 31.23, 17.310000000000002 31.185000000000002, 16.740000000000002 31.14 L 16.5 31.14" fill="none" stroke="black" stroke-width="2"></path></svg>