<svg xmlns="http://www.w3.org/2000/svg" viewBox="10.399999618530273 5.900000095367432 19.880001068115234 39.01999807357788" width="19.880001068115234" height="39.01999807357788"><path d="M 14.76 43.92 C 14.370000000000001 41.7, 14.235 41.400000000000006, 13.98 39.480000000000004 C 13.86 37.86, 13.905000000000001 37.695, 13.74 36.24 C 13.530000000000001 34.95, 13.485 34.815000000000005, 13.32 33.660000000000004 C 13.200000000000001 32.64, 13.260000000000002 32.849999999999994, 13.080000000000002 31.619999999999997 C 12.840000000000002 30.18, 12.720000000000002 29.955000000000002, 12.600000000000001 28.740000000000002 C 12.600000000000001 27.75, 12.600000000000001 27.689999999999998, 12.600000000000001 26.759999999999998 C 12.600000000000001 25.89, 12.600000000000001 25.814999999999998, 12.600000000000001 25.02 C 12.600000000000001 24.3, 12.555000000000001 24.315, 12.600000000000001 23.580000000000002 C 12.690000000000001 22.830000000000002, 12.645 22.725, 12.78 22.080000000000002 C 12.96 21.54, 12.975 21.435000000000002, 13.14 21 C 13.290000000000001 20.67, 13.275000000000002 20.64, 13.440000000000001 20.34 C 13.620000000000001 20.07, 13.364999999999998 20.099999999999998, 13.799999999999999 19.799999999999997 C 14.489999999999998 19.47, 14.43 19.38, 15.18 19.14 C 15.989999999999998 18.990000000000002, 16.004999999999995 18.990000000000002, 16.799999999999997 18.84 C 17.58 18.689999999999998, 17.58 18.645, 18.36 18.54 C 19.14 18.479999999999997, 19.11 18.45, 19.919999999999998 18.419999999999998 C 20.759999999999998 18.419999999999998, 20.700000000000003 18.419999999999998, 21.6 18.419999999999998 C 22.560000000000002 18.419999999999998, 22.77 18.419999999999998, 23.52 18.419999999999998 C 24.06 18.419999999999998, 24.06 18.419999999999998, 24.599999999999998 18.419999999999998 C 25.14 18.419999999999998, 25.29 18.419999999999998, 25.68 18.419999999999998 C 25.92 18.419999999999998, 25.845000000000002 18.374999999999996, 26.160000000000004 18.419999999999998 C 26.550000000000004 18.509999999999998, 26.625 18.495, 26.94 18.6 C 27.18 18.72, 27.090000000000003 18.525, 27.42 18.84 C 27.84 19.35, 27.915 19.14, 28.259999999999998 19.86 C 28.529999999999998 20.79, 28.589999999999996 20.4, 28.799999999999997 21.72 C 28.949999999999996 23.43, 29.025 23.475, 29.099999999999998 25.14 C 29.099999999999998 26.76, 29.099999999999998 26.760000000000005, 29.099999999999998 28.380000000000003 C 29.099999999999998 30, 29.099999999999998 30.15, 29.099999999999998 31.619999999999997 C 29.099999999999998 32.94, 29.099999999999998 32.955, 29.099999999999998 34.26 C 29.099999999999998 35.55, 29.144999999999996 35.73, 29.099999999999998 36.839999999999996 C 29.009999999999998 37.769999999999996, 29.16 37.74, 28.92 38.7 C 28.53 39.69, 28.44 40.065, 28.14 40.68 C 27.93 40.92, 28.08 40.86, 27.72 41.160000000000004 C 27.21 41.52, 27.270000000000003 41.565000000000005, 26.700000000000003 41.88 C 26.07 42.150000000000006, 25.875 42.285000000000004, 25.44 42.42 C 25.200000000000003 42.42, 25.200000000000003 42.42, 24.96 42.42 C 24.72 42.42, 25.035 42.81, 24.48 42.42 C 23.61 41.64, 23.415000000000003 41.595, 22.740000000000002 40.86 C 22.26 40.17, 22.035000000000004 40.155, 21.78 39.480000000000004 C 21.75 38.82000000000001, 21.72 38.80500000000001, 21.72 38.160000000000004 C 21.75 37.53, 21.630000000000003 37.455000000000005, 21.78 36.900000000000006 C 22.05 36.42, 22.095 36.345, 22.32 35.94 C 22.5 35.61, 22.41 35.655, 22.68 35.28 C 23.04 34.86, 22.935 34.8, 23.4 34.44 C 23.97 34.14, 23.939999999999998 34.11, 24.54 33.839999999999996 C 25.169999999999998 33.599999999999994, 25.319999999999997 33.51, 25.799999999999997 33.36 C 26.13 33.3, 26.115000000000002 33.27, 26.46 33.24 C 26.82 33.24, 26.925 33.24, 27.18 33.24 C 27.33 33.24, 27.285 33.24, 27.48 33.24 C 27.72 33.24, 27.810000000000002 33.24, 27.96 33.24 C 28.02 33.24, 27.915 33.18, 28.08 33.24 C 28.349999999999998 33.36, 28.409999999999997 33.36000000000001, 28.619999999999997 33.480000000000004 C 28.77 33.6, 28.755000000000003 33.6, 28.92 33.72 C 29.1 33.84, 29.19 33.9, 29.28 33.96 C 29.28 33.96, 29.28 33.96, 29.28 33.96 L 29.28 33.96" fill="none" stroke="black" stroke-width="2"></path><path d="M 13.14 13.919999999999998 C 14.25 13.919999999999998, 14.25 14.009999999999998, 15.36 13.919999999999998 C 16.47 13.739999999999998, 16.560000000000002 13.694999999999999, 17.580000000000002 13.559999999999999 C 18.51 13.469999999999999, 18.330000000000002 13.499999999999998, 19.44 13.379999999999999 C 20.73 13.23, 20.715 13.200000000000003, 22.02 13.080000000000002 C 23.340000000000003 12.99, 23.610000000000003 12.959999999999999, 24.660000000000004 12.899999999999999 C 25.44 12.87, 25.335 12.899999999999999, 26.22 12.84 C 27.21 12.75, 27.6 12.705, 28.200000000000003 12.66 C 28.41 12.66, 28.515 12.66, 28.619999999999997 12.66 L 28.619999999999997 12.66" fill="none" stroke="black" stroke-width="2"></path><path d="M 11.399999999999999 8.34 C 11.879999999999999 8.34, 11.655 8.385, 12.36 8.34 C 13.29 8.25, 13.14 8.25, 14.22 8.16 C 15.45 8.07, 15.39 8.115, 16.68 7.98 C 18.03 7.800000000000001, 18.314999999999998 7.800000000000001, 19.38 7.62 C 20.16 7.4399999999999995, 19.965 7.4399999999999995, 20.94 7.26 C 22.11 7.08, 22.335 6.989999999999999, 23.28 6.8999999999999995 C 24 6.8999999999999995, 24.06 6.8999999999999995, 24.72 6.8999999999999995 C 25.32 6.8999999999999995, 25.425 6.8999999999999995, 25.92 6.8999999999999995 C 26.310000000000002 6.8999999999999995, 26.310000000000002 6.8999999999999995, 26.700000000000003 6.8999999999999995 C 27.090000000000003 6.8999999999999995, 27.21 6.8999999999999995, 27.48 6.8999999999999995 L 27.78 6.8999999999999995" fill="none" stroke="black" stroke-width="2"></path></svg>