<svg xmlns="http://www.w3.org/2000/svg" viewBox="11.300000190734863 4.039999961853027 24.199999809265137 40.8866662979126" width="24.199999809265137" height="40.8866662979126"><path d="M 12.299999999999999 5.699999999999999 C 12.93 5.76, 12.689999999999998 5.745, 13.559999999999999 5.82 C 14.669999999999998 5.91, 13.965 5.925, 15.78 6 C 18.3 6.0600000000000005, 18.405 6.105, 20.82 6.12 C 23.130000000000003 6.09, 23.145000000000003 6.24, 25.44 6.0600000000000005 C 27.72 5.73, 28.155 5.655, 30 5.4 C 31.41 5.220000000000001, 31.86 5.13, 32.82 5.04 C 33.33 5.04, 33.55499999999999 5.04, 33.839999999999996 5.04 L 33.96 5.04" fill="none" stroke="black" stroke-width="2"></path><path d="M 13.32 13.080000000000002 C 14.58 12.870000000000001, 13.89 12.81, 15.84 12.66 C 18.48 12.57, 18.810000000000002 12.525, 21.12 12.48 C 23.1 12.48, 23.22 12.48, 25.08 12.48 C 26.82 12.48, 27.015 12.48, 28.56 12.48 C 29.909999999999997 12.48, 30.15 12.48, 31.259999999999998 12.48 C 32.129999999999995 12.48, 32.235 12.48, 33 12.48 C 33.66 12.48, 33.945 12.48, 34.32 12.48 L 34.5 12.48" fill="none" stroke="black" stroke-width="2"></path><path d="M 21.18 12.84 C 20.759999999999998 13.68, 20.82 13.544999999999998, 20.34 14.52 C 19.799999999999997 15.63, 19.77 15.630000000000003, 19.259999999999998 16.740000000000002 C 18.779999999999998 17.85, 18.884999999999998 17.46, 18.299999999999997 18.96 C 17.61 20.85, 17.459999999999997 21.21, 16.919999999999998 22.740000000000002 C 16.53 23.91, 16.365000000000002 24.33, 16.14 25.08 C 16.08 25.41, 16.005 25.455000000000002, 16.02 25.740000000000002 C 16.11 25.98, 15.915000000000003 25.965, 16.200000000000003 26.22 C 16.68 26.49, 16.41 26.504999999999995, 17.16 26.759999999999998 C 18.18 27, 17.85 27.105000000000004, 19.200000000000003 27.240000000000002 C 20.880000000000003 27.27, 21.105 27.389999999999997, 22.56 27.299999999999997 C 23.79 27.09, 23.58 27.135, 25.02 26.880000000000003 C 26.67 26.580000000000002, 26.91 26.550000000000004, 28.32 26.28 C 29.490000000000002 26.04, 30.000000000000004 25.919999999999998, 30.660000000000004 25.799999999999997 C 30.810000000000002 25.799999999999997, 30.885 25.799999999999997, 30.96 25.799999999999997 C 30.96 25.799999999999997, 30.96 25.799999999999997, 30.96 25.799999999999997 L 30.96 25.799999999999997" fill="none" stroke="black" stroke-width="2"></path><path d="M 22.56 27.06 C 22.380000000000003 27.839999999999996, 22.425000000000004 27.749999999999996, 22.200000000000003 28.619999999999997 C 21.93 29.58, 21.885 29.235, 21.66 30.54 C 21.479999999999997 32.19, 21.434999999999995 32.129999999999995, 21.299999999999997 33.839999999999996 C 21.21 35.61, 21.165 35.955, 21.12 37.38 C 21.12 38.46, 21.12 38.745, 21.12 39.54 C 21.12 40.05, 21.03 39.915000000000006, 21.12 40.56 C 21.3 41.34, 21.27 41.474999999999994, 21.48 42.12 C 21.72 42.629999999999995, 21.675 42.735, 21.96 43.14 C 22.29 43.44, 22.380000000000003 43.575, 22.62 43.74 C 22.77 43.769999999999996, 22.724999999999998 43.785, 22.919999999999998 43.8 C 23.159999999999997 43.8, 23.099999999999998 44.084999999999994, 23.4 43.8 C 23.759999999999998 43.230000000000004, 23.744999999999997 43.395, 24.119999999999997 42.660000000000004 C 24.509999999999998 41.760000000000005, 24.555 41.625, 24.900000000000002 40.86 C 25.200000000000003 40.23, 25.05 40.27499999999999, 25.5 39.599999999999994 C 26.1 38.879999999999995, 25.560000000000002 38.82, 26.700000000000003 38.160000000000004 C 28.380000000000003 37.56, 28.47 37.275, 30.06 36.96 C 31.560000000000002 36.93000000000001, 32.04 36.870000000000005, 33.06 36.900000000000006 C 33.6 36.99, 33.825 37.019999999999996, 34.14 37.08 L 34.32 37.14" fill="none" stroke="black" stroke-width="2"></path></svg>