<svg xmlns="http://www.w3.org/2000/svg" viewBox="10.699999809265137 5.78000020980835 21.113333702087402 42.08000040054321" width="21.113333702087402" height="42.08000040054321"><path d="M 13.799999999999999 30.660000000000004 C 13.68 28.770000000000003, 13.665 28.875000000000004, 13.559999999999999 26.880000000000003 C 13.469999999999999 24.78, 13.469999999999999 24.240000000000002, 13.379999999999999 22.68 C 13.29 21.66, 13.245000000000001 21.465, 13.200000000000001 20.64 C 13.200000000000001 20.009999999999998, 13.200000000000001 19.845, 13.200000000000001 19.38 C 13.200000000000001 19.08, 13.200000000000001 18.93, 13.200000000000001 18.78 C 13.200000000000001 18.78, 13.125000000000002 18.825000000000003, 13.200000000000001 18.78 C 13.350000000000001 18.69, 12.84 18.765, 13.5 18.6 C 14.67 18.36, 14.73 18.36, 15.84 18.12 C 16.89 17.880000000000003, 16.785 17.85, 17.94 17.64 C 19.200000000000003 17.46, 19.185000000000002 17.415, 20.46 17.28 C 21.75 17.19, 21.975 17.145000000000003, 23.04 17.1 C 23.88 17.1, 24.06 17.1, 24.72 17.1 C 25.2 17.1, 25.244999999999997 17.085, 25.68 17.1 C 26.07 17.130000000000003, 25.98 17.115000000000002, 26.46 17.16 C 27.03 17.22, 27.195 17.205000000000002, 27.599999999999998 17.28 C 27.839999999999996 17.37, 27.884999999999998 17.37, 28.08 17.46 C 28.23 17.55, 28.155 17.475, 28.380000000000003 17.64 C 28.68 17.880000000000003, 28.755000000000003 17.655, 28.98 18.12 C 29.130000000000003 18.810000000000002, 29.16 18.18, 29.28 19.5 C 29.37 21.45, 29.37 21.945, 29.46 23.4 C 29.55 24.36, 29.505000000000003 24.39, 29.64 25.32 C 29.82 26.22, 29.91 26.519999999999996, 30 27.119999999999997 C 30 27.419999999999998, 29.955 27.33, 30 27.72 C 30.09 28.2, 30.134999999999998 28.244999999999997, 30.18 28.68 C 30.18 29.07, 30.18 29.235, 30.18 29.46 L 30.18 29.58" fill="none" stroke="black" stroke-width="2"></path><path d="M 11.879999999999999 13.14 C 12.27 13.14, 12.165 13.14, 12.66 13.14 C 13.26 13.14, 12.855 13.200000000000001, 13.86 13.14 C 15.27 13.02, 15.12 13.094999999999999, 16.68 12.899999999999999 C 18.39 12.629999999999999, 18.855 12.524999999999999, 20.1 12.36 C 20.880000000000003 12.3, 20.445 12.39, 21.66 12.24 C 23.310000000000002 12, 23.37 11.879999999999999, 24.96 11.76 C 26.490000000000002 11.76, 27.060000000000002 11.76, 28.02 11.76 C 28.409999999999997 11.76, 28.574999999999996 11.76, 28.799999999999997 11.76 L 28.92 11.76" fill="none" stroke="black" stroke-width="2"></path><path d="M 11.7 7.86 C 12.21 7.86, 12.120000000000001 7.86, 12.72 7.86 C 13.41 7.86, 13.23 7.905, 14.100000000000001 7.86 C 15.150000000000002 7.77, 15.165000000000003 7.8, 16.200000000000003 7.68 C 17.220000000000002 7.529999999999999, 16.800000000000004 7.515, 18.240000000000002 7.38 C 20.1 7.26, 20.67 7.245, 21.96 7.14 C 22.68 7.049999999999999, 22.455 7.049999999999999, 23.4 6.959999999999999 C 24.57 6.869999999999999, 24.720000000000002 6.824999999999999, 25.740000000000002 6.779999999999999 C 26.61 6.779999999999999, 26.97 6.779999999999999, 27.48 6.779999999999999 C 27.630000000000003 6.779999999999999, 27.705000000000002 6.779999999999999, 27.78 6.779999999999999 L 27.78 6.779999999999999" fill="none" stroke="black" stroke-width="2"></path><path d="M 20.04 17.64 C 20.04 17.82, 20.04 17.685000000000002, 20.04 18 C 20.04 18.45, 19.979999999999997 18.06, 20.04 18.9 C 20.16 20.13, 20.01 20.009999999999998, 20.28 21.36 C 20.700000000000003 22.83, 20.73 22.874999999999996, 21.12 24.299999999999997 C 21.48 25.68, 21.495 25.769999999999996, 21.84 27.06 C 22.17 28.259999999999998, 22.125 28.305, 22.5 29.46 C 22.92 30.57, 22.905 30.9, 23.34 31.68 C 23.79 32.129999999999995, 23.610000000000003 32.025, 24.240000000000002 32.58 C 25.05 33.24, 25.155 33.42, 25.86 33.900000000000006 C 26.46 34.2, 26.43 34.230000000000004, 27.06 34.5 C 27.72 34.74, 27.660000000000004 34.71000000000001, 28.380000000000003 34.980000000000004 C 29.160000000000004 35.28, 29.340000000000003 35.355, 29.94 35.58 C 30.36 35.730000000000004, 30.57 35.805, 30.78 35.88 C 30.78 35.88, 30.78 35.88, 30.78 35.88 C 30.78 35.88, 30.78 35.88, 30.78 35.88 C 30.78 35.88, 30.78 35.88, 30.78 35.88 C 30.78 35.88, 30.855 35.580000000000005, 30.78 35.88 C 30.630000000000003 36.480000000000004, 30.66 36.705, 30.48 37.08 C 30.27 37.230000000000004, 30.209999999999997 37.260000000000005, 30.06 37.38 C 29.97 37.47, 30.225 37.410000000000004, 29.880000000000003 37.56 C 29.28 37.77, 29.565 37.755, 28.68 37.980000000000004 C 27.509999999999998 38.22, 27.299999999999997 38.205, 26.339999999999996 38.46 C 25.589999999999996 38.730000000000004, 25.589999999999996 38.730000000000004, 24.839999999999996 39 C 24.089999999999996 39.269999999999996, 24.075 39.21, 23.34 39.54 C 22.619999999999997 39.93, 22.589999999999996 39.945, 21.9 40.32 C 21.240000000000002 40.68, 21.195 40.62, 20.580000000000002 41.04 C 20.01 41.519999999999996, 20.040000000000003 41.475, 19.44 42 C 18.810000000000002 42.57, 18.705 42.57, 18.18 43.14 C 17.759999999999998 43.71, 17.655 43.71, 17.34 44.28 C 17.13 44.85, 17.115 44.97, 16.919999999999998 45.42 C 16.74 45.75, 16.65 45.765, 16.56 46.08 C 16.56 46.379999999999995, 16.56 46.485, 16.56 46.68 C 16.56 46.769999999999996, 16.56 46.815, 16.56 46.86 L 16.56 46.86" fill="none" stroke="black" stroke-width="2"></path></svg>