<svg xmlns="http://www.w3.org/2000/svg" viewBox="15.920000076293945 4.820000171661377 19.219999313354492 35.72000074386597" width="19.219999313354492" height="35.72000074386597"><path d="M 16.919999999999998 6.0600000000000005 C 18.78 6.03, 18.990000000000002 6.0600000000000005, 20.64 6 C 22.08 5.91, 22.155 5.865, 23.52 5.82 C 24.81 5.82, 25.049999999999997 5.82, 26.099999999999998 5.82 C 26.909999999999997 5.82, 26.849999999999998 5.82, 27.72 5.82 C 28.65 5.82, 28.769999999999996 5.82, 29.58 5.82 C 30.27 5.82, 30.465 5.82, 30.96 5.82 C 31.259999999999998 5.82, 31.32 5.82, 31.56 5.82 C 31.740000000000002 5.82, 31.830000000000002 5.82, 31.92 5.82 L 31.92 5.82" fill="none" stroke="black" stroke-width="2"></path><path d="M 17.52 10.56 C 19.23 10.29, 19.515 10.2, 20.94 10.02 C 22.08 9.93, 22.365 9.885, 23.22 9.84 C 23.79 9.84, 23.595 9.885, 24.36 9.84 C 25.32 9.75, 25.200000000000003 9.795, 26.28 9.66 C 27.48 9.48, 27.675 9.39, 28.68 9.3 C 29.49 9.3, 29.549999999999997 9.3, 30.299999999999997 9.3 C 30.99 9.3, 30.99 9.3, 31.68 9.3 C 32.370000000000005 9.3, 32.535000000000004 9.3, 33.06 9.3 C 33.42 9.3, 33.510000000000005 9.3, 33.78 9.3 L 34.14 9.3" fill="none" stroke="black" stroke-width="2"></path><path d="M 21.96 9.84 C 21.990000000000002 10.23, 22.2 10.080000000000002, 22.02 10.620000000000001 C 21.630000000000003 11.31, 21.705000000000002 10.89, 21.240000000000002 12 C 20.700000000000003 13.53, 20.64 13.485, 20.16 15.059999999999999 C 19.740000000000002 16.68, 19.545 16.994999999999997, 19.32 18.299999999999997 C 19.29 19.29, 19.275 19.425, 19.259999999999998 20.28 C 19.259999999999998 21, 19.125 21.18, 19.259999999999998 21.72 C 19.529999999999998 22.08, 19.484999999999996 22.155, 19.799999999999997 22.44 C 20.159999999999997 22.65, 20.085 22.740000000000002, 20.52 22.86 C 21.03 22.89, 20.955 22.949999999999996, 21.54 22.919999999999998 C 22.2 22.83, 22.049999999999997 23.28, 22.86 22.740000000000002 C 23.82 21.75, 24.075000000000003 21.765, 24.78 20.759999999999998 C 25.23 19.74, 25.455 19.229999999999997, 25.68 18.72 C 25.68 18.72, 25.665 18.75, 25.68 18.72 C 25.71 18.66, 25.590000000000003 18.315, 25.740000000000002 18.6 C 26.01 19.23, 25.98 19.275, 26.28 19.86 C 26.61 20.4, 26.475 20.490000000000002, 26.94 20.94 C 27.54 21.3, 27.645 21.435000000000002, 28.14 21.66 C 28.53 21.75, 28.575000000000003 21.795, 28.92 21.84 C 29.22 21.84, 29.115000000000002 22.14, 29.52 21.84 C 30.03 21.240000000000002, 30.075 21.375, 30.54 20.64 C 30.96 19.77, 31.065000000000005 19.71, 31.380000000000003 18.9 C 31.59 18.15, 31.665 18.119999999999997, 31.799999999999997 17.4 C 31.86 16.71, 31.98 16.724999999999998, 31.92 16.02 C 31.740000000000002 15.3, 31.814999999999998 15.270000000000001, 31.56 14.580000000000002 C 31.23 13.920000000000002, 31.290000000000003 13.935, 30.900000000000002 13.26 C 30.450000000000003 12.57, 30.36 12.479999999999999, 30 11.879999999999999 C 29.73 11.37, 29.685000000000002 11.28, 29.46 10.86 C 29.28 10.53, 29.25 10.44, 29.099999999999998 10.2 C 28.979999999999997 10.049999999999999, 28.919999999999998 9.974999999999998, 28.86 9.899999999999999 C 28.86 9.899999999999999, 28.86 9.899999999999999, 28.86 9.899999999999999 L 28.86 9.899999999999999" fill="none" stroke="black" stroke-width="2"></path><path d="M 21.9 22.740000000000002 C 21.81 23.43, 21.81 23.264999999999997, 21.72 24.119999999999997 C 21.63 25.14, 21.63 24.795, 21.54 26.160000000000004 C 21.45 27.87, 21.345 27.9, 21.36 29.58 C 21.48 31.23, 21.495 31.35, 21.6 32.88 C 21.69 34.290000000000006, 21.69 34.605000000000004, 21.78 35.7 C 21.87 36.480000000000004, 21.915 36.51, 21.96 37.26 C 21.96 37.980000000000004, 21.96 38.25, 21.96 38.7 C 21.96 38.88, 21.93 38.85, 21.96 39.06 L 22.080000000000002 39.54" fill="none" stroke="black" stroke-width="2"></path><path d="M 29.099999999999998 21.96 C 29.099999999999998 23.4, 29.099999999999998 23.279999999999994, 29.099999999999998 24.839999999999996 C 29.099999999999998 26.52, 29.099999999999998 26.28, 29.099999999999998 28.200000000000003 C 29.099999999999998 30.36, 29.099999999999998 30.749999999999996, 29.099999999999998 32.519999999999996 C 29.099999999999998 33.9, 29.099999999999998 34.215, 29.099999999999998 35.28 C 29.099999999999998 36.03, 29.054999999999996 36.285000000000004, 29.099999999999998 36.78 C 29.189999999999998 37.019999999999996, 29.235 36.974999999999994, 29.28 37.26 C 29.28 37.59, 29.28 37.605000000000004, 29.28 37.92 C 29.28 38.22, 29.28 38.129999999999995, 29.28 38.519999999999996 C 29.28 39, 29.28 39.24, 29.28 39.480000000000004 L 29.28 39.480000000000004" fill="none" stroke="black" stroke-width="2"></path></svg>