<svg xmlns="http://www.w3.org/2000/svg" viewBox="9.920000076293945 4.639999866485596 20.059999465942383 34.933090686798096" width="20.059999465942383" height="34.933090686798096"><path d="M 10.92 7.08 C 13.23 7.02, 11.834999999999999 7.244999999999999, 15.54 6.959999999999999 C 20.64 6.449999999999999, 22.605000000000004 6.27, 25.740000000000002 5.9399999999999995 C 26.91 5.789999999999999, 27.27 5.715, 28.08 5.64 L 28.98 5.64" fill="none" stroke="black" stroke-width="2"></path><path d="M 11.399999999999999 12.78 C 14.25 12.78, 14.115000000000002 12.794999999999998, 17.1 12.78 C 20.22 12.75, 20.91 12.795, 23.34 12.72 C 25.08 12.600000000000001, 25.545 12.540000000000001, 26.82 12.48 C 27.630000000000003 12.48, 27.915 12.48, 28.44 12.48 L 28.92 12.48" fill="none" stroke="black" stroke-width="2"></path><path d="M 16.080000000000002 13.86 C 15.39 16.259999999999998, 15.225000000000001 16.71, 14.700000000000001 18.66 C 14.34 20.16, 14.475000000000001 19.635, 13.98 21.66 C 13.350000000000001 24.21, 13.245000000000001 24.33, 12.72 26.759999999999998 C 12.3 29.07, 12.254999999999999 29.265, 11.879999999999999 31.380000000000003 C 11.55 33.3, 11.43 33.9, 11.22 35.22 C 11.13 35.94, 11.085 35.940000000000005, 11.040000000000001 36.660000000000004 C 11.040000000000001 37.379999999999995, 10.770000000000001 37.64999999999999, 11.040000000000001 38.099999999999994 C 11.580000000000002 38.28, 11.520000000000001 38.4, 12.120000000000001 38.46 C 12.780000000000001 38.4, 12.615000000000002 38.81999999999999, 13.440000000000001 38.339999999999996 C 14.43 37.44, 14.654999999999998 37.425, 15.419999999999998 36.54 C 15.959999999999999 35.67, 16.035 35.955, 16.5 34.8 C 16.89 33.36, 17.07 33.15, 17.28 31.92 C 17.310000000000002 30.900000000000002, 17.325 30.39, 17.34 29.880000000000003 C 17.34 29.880000000000003, 17.265 29.925000000000004, 17.34 29.880000000000003 C 17.490000000000002 29.790000000000003, 17.400000000000002 29.115000000000002, 17.64 29.700000000000003 C 17.97 30.96, 17.819999999999997 30.810000000000002, 18.299999999999997 32.22 C 18.93 33.78, 18.839999999999996 34.199999999999996, 19.56 35.339999999999996 C 20.369999999999997 36.06, 20.355 36.285, 21.18 36.78 C 22.02 37.05, 21.975 37.185, 22.86 37.32 C 23.79 37.32, 23.805 37.5, 24.72 37.32 C 25.619999999999997 36.959999999999994, 25.89 37.214999999999996, 26.52 36.599999999999994 C 26.880000000000003 35.73, 27 35.97, 27.240000000000002 34.86 C 27.36 33.510000000000005, 27.495 33.93000000000001, 27.48 32.160000000000004 C 27.33 29.970000000000002, 27.42 29.550000000000004, 27.18 27.78 C 26.85 26.43, 26.88 26.654999999999998, 26.52 25.08 C 26.130000000000003 23.28, 26.205000000000002 23.295, 25.740000000000002 21.48 C 25.200000000000003 19.65, 25.080000000000005 19.485, 24.660000000000004 17.82 C 24.36 16.32, 24.314999999999998 15.915, 24.06 14.82 C 23.85 14.13, 23.79 13.860000000000001, 23.64 13.440000000000001 C 23.55 13.290000000000001, 23.505000000000003 13.215, 23.46 13.14 C 23.46 13.14, 23.475 13.185, 23.46 13.14 L 23.4 12.96" fill="none" stroke="black" stroke-width="2"></path></svg>