<svg xmlns="http://www.w3.org/2000/svg" viewBox="9.680000305175781 4.159999847412109 23.299999237060547 41.866668701171875" width="23.299999237060547" height="41.866668701171875"><path d="M 11.16 7.02 C 11.79 7.02, 11.459999999999997 7.154999999999999, 12.419999999999998 7.02 C 13.709999999999999 6.75, 13.605 6.735, 15 6.48 C 16.5 6.24, 16.5 6.24, 18 6 C 19.5 5.76, 19.38 5.640000000000001, 21 5.5200000000000005 C 22.740000000000002 5.5200000000000005, 23.085 5.565, 24.48 5.5200000000000005 C 25.53 5.43, 25.529999999999998 5.385, 26.58 5.34 C 27.63 5.34, 27.675 5.3549999999999995, 28.68 5.34 C 29.64 5.3100000000000005, 29.805 5.325, 30.599999999999998 5.28 C 31.229999999999997 5.220000000000001, 31.515 5.19, 31.86 5.16 L 31.98 5.16" fill="none" stroke="black" stroke-width="2"></path><path d="M 11.040000000000001 13.86 C 11.61 13.77, 11.04 13.89, 12.18 13.68 C 13.89 13.35, 13.845 13.335, 15.600000000000001 13.02 C 17.400000000000002 12.719999999999999, 17.490000000000002 12.689999999999998, 19.200000000000003 12.419999999999998 C 20.82 12.18, 20.94 12.165, 22.44 11.94 C 23.82 11.73, 23.700000000000003 11.715, 25.200000000000003 11.52 C 26.82 11.34, 27.015 11.325, 28.44 11.16 C 29.67 11.01, 30.135 10.95, 30.900000000000002 10.86 C 31.200000000000003 10.83, 31.35 10.815000000000001, 31.5 10.8 L 31.5 10.8" fill="none" stroke="black" stroke-width="2"></path><path d="M 26.400000000000002 11.7 C 26.700000000000003 12.48, 26.67 12.39, 27 13.26 C 27.36 14.219999999999999, 27.435 14.295, 27.72 15.18 C 27.93 15.989999999999998, 27.884999999999998 15.974999999999998, 28.14 16.799999999999997 C 28.44 17.64, 28.440000000000005 17.625, 28.740000000000002 18.48 C 29.04 19.35, 29.039999999999996 19.32, 29.339999999999996 20.22 C 29.64 21.15, 29.655 21.18, 29.94 22.080000000000002 C 30.21 22.950000000000003, 30.195 22.86, 30.48 23.82 C 30.78 24.87, 30.884999999999998 24.825000000000003, 31.08 25.92 C 31.169999999999998 27.060000000000002, 31.169999999999998 27.180000000000003, 31.259999999999998 28.200000000000003 C 31.35 29.1, 31.395 29.295, 31.44 30 C 31.44 30.509999999999998, 31.665000000000003 30.509999999999998, 31.44 31.02 C 30.990000000000002 31.53, 31.275 31.68, 30.54 32.04 C 29.52 32.25, 29.325 32.355000000000004, 28.5 32.46 C 27.87 32.46, 27.825000000000003 32.595, 27.240000000000002 32.46 C 26.700000000000003 32.19, 26.850000000000005 32.46, 26.160000000000004 31.92 C 25.32 31.11, 25.305 31.5, 24.48 30.299999999999997 C 23.67 28.709999999999997, 23.49 28.439999999999998, 22.86 27.119999999999997 C 22.41 26.07, 22.215 25.665, 21.96 25.02 C 21.9 24.78, 21.87 24.689999999999998, 21.84 24.54 C 21.84 24.48, 21.72 24.345000000000002, 21.84 24.42 C 22.08 24.63, 22.05 24.194999999999997, 22.32 24.839999999999996 C 22.619999999999997 25.919999999999998, 22.724999999999998 26.099999999999998, 22.919999999999998 27 C 23.009999999999998 27.72, 23.1 27.885, 23.1 28.44 C 23.009999999999998 28.83, 23.354999999999997 28.695, 22.919999999999998 29.22 C 22.14 29.88, 22.544999999999998 29.909999999999997, 21.36 30.54 C 19.77 31.14, 19.755 31.275, 18.18 31.740000000000002 C 16.619999999999997 32.07000000000001, 16.334999999999997 32.14500000000001, 15.059999999999999 32.400000000000006 C 14.07 32.58, 13.860000000000001 32.58, 13.080000000000002 32.76 C 12.510000000000002 32.94, 12.345 33.03, 11.94 33.12 C 11.7 33.12, 11.684999999999999 33.12, 11.459999999999999 33.12 C 11.25 33.12, 11.235000000000001 33.135, 11.040000000000001 33.12 L 10.68 33.06" fill="none" stroke="black" stroke-width="2"></path><path d="M 23.700000000000003 35.519999999999996 C 22.53 35.4, 22.71 35.31, 21.36 35.28 C 19.83 35.34, 19.559999999999995 35.010000000000005, 18.299999999999997 35.400000000000006 C 17.31 36.120000000000005, 17.145 36.045, 16.32 36.839999999999996 C 15.66 37.709999999999994, 15.42 37.815, 15 38.58 C 14.82 39.24, 14.655000000000001 39.135000000000005, 14.64 39.900000000000006 C 14.790000000000001 40.77, 14.670000000000002 40.845, 14.940000000000001 41.64 C 15.330000000000002 42.36, 15.225000000000001 42.449999999999996, 15.72 43.08 C 16.32 43.620000000000005, 16.424999999999997 43.74, 16.919999999999998 44.160000000000004 C 17.310000000000002 44.46, 17.19 44.55, 17.700000000000003 44.76 C 18.330000000000002 44.879999999999995, 18.195 44.94, 18.96 45 C 19.86 45, 19.695 45.06, 20.759999999999998 45 C 21.99 44.879999999999995, 22.335 44.94, 23.22 44.76 C 23.759999999999998 44.519999999999996, 23.804999999999996 44.64, 24.299999999999997 44.28 C 24.75 43.8, 24.885 43.995000000000005, 25.200000000000003 43.32 C 25.380000000000003 42.45, 25.47 42.42, 25.56 41.58 C 25.56 40.769999999999996, 25.575 40.754999999999995, 25.56 39.96 C 25.53 39.18000000000001, 25.59 39.075, 25.5 38.400000000000006 C 25.35 37.83, 25.305000000000003 37.62, 25.200000000000003 37.26 C 25.14 37.11, 25.23 37.11, 25.08 36.96 C 24.839999999999996 36.81, 24.884999999999998 36.81, 24.599999999999998 36.660000000000004 C 24.27 36.510000000000005, 24.36 36.555, 23.94 36.36 C 23.43 36.120000000000005, 23.31 36.09, 22.919999999999998 35.88 C 22.65 35.7, 22.544999999999998 35.61, 22.38 35.519999999999996 L 22.259999999999998 35.519999999999996" fill="none" stroke="black" stroke-width="2"></path><path d="M 15 40.2 C 15 40.2, 15 40.185, 15 40.2 C 15 40.230000000000004, 14.925 40.23, 15 40.26 C 15.149999999999999 40.29, 14.384999999999998 40.365, 15.299999999999999 40.32 C 16.98 40.2, 17.115 40.29, 18.66 40.08 C 20.07 39.78, 20.4 39.675000000000004, 21.48 39.480000000000004 C 22.23 39.39, 22.380000000000003 39.345, 22.98 39.3 C 23.43 39.3, 23.384999999999998 39.3, 23.88 39.3 C 24.42 39.3, 24.495 39.3, 24.96 39.3 C 25.35 39.3, 25.515 39.3, 25.740000000000002 39.3 L 25.86 39.3" fill="none" stroke="black" stroke-width="2"></path></svg>