<svg xmlns="http://www.w3.org/2000/svg" viewBox="7.526666641235352 10.199816703796387 23.413333892822266 34.90018177032471" width="23.413333892822266" height="34.90018177032471"><path d="M 11.94 29.28 L 11.94 29.28" fill="none" stroke="black" stroke-width="2"></path><path d="M 10.379999999999999 31.200000000000003 C 9.899999999999999 29.76, 9.87 30.240000000000002, 9.42 28.32 C 9 25.92, 8.79 25.41, 8.58 23.52 C 8.58 22.14, 8.58 22.019999999999996, 8.58 20.759999999999998 C 8.58 19.619999999999997, 8.46 19.815, 8.58 18.48 C 8.82 16.95, 8.82 16.634999999999998, 9.06 15.419999999999998 C 9.3 14.52, 9.21 14.445, 9.540000000000001 13.620000000000001 C 9.96 12.870000000000001, 9.825 12.705000000000002, 10.379999999999999 12.120000000000001 C 11.07 11.7, 11.129999999999999 11.504999999999999, 11.76 11.28 C 12.329999999999998 11.25, 12.224999999999998 11.16, 12.899999999999999 11.22 C 13.68 11.370000000000001, 13.74 11.265, 14.46 11.52 C 15.120000000000001 11.879999999999999, 15.225 11.7, 15.78 12.24 C 16.23 12.96, 16.335 12.855, 16.68 13.68 C 16.92 14.61, 16.905 14.099999999999998, 17.16 15.54 C 17.43 17.490000000000002, 17.520000000000003 17.970000000000002, 17.700000000000003 19.44 C 17.79 20.43, 17.775 20.61, 17.88 21.419999999999998 C 18 22.049999999999997, 18.060000000000002 22.365, 18.12 22.68 C 18.12 22.68, 18.015 22.62, 18.12 22.68 C 18.33 22.799999999999997, 17.759999999999998 22.86, 18.54 22.919999999999998 C 19.89 22.919999999999998, 20.025000000000002 22.919999999999998, 21.240000000000002 22.919999999999998 C 22.32 22.919999999999998, 22.38 22.874999999999996, 23.4 22.919999999999998 C 24.36 23.009999999999998, 24.555 22.965, 25.32 23.1 C 25.89 23.28, 25.830000000000002 23.160000000000004, 26.46 23.46 C 27.15 23.88, 27.239999999999995 23.834999999999997, 27.839999999999996 24.299999999999997 C 28.349999999999998 24.81, 28.424999999999997 24.810000000000002, 28.86 25.32 C 29.22 25.83, 29.354999999999997 25.845, 29.58 26.339999999999996 C 29.669999999999998 26.819999999999997, 29.669999999999998 26.58, 29.759999999999998 27.299999999999997 C 29.85 28.259999999999998, 29.895 28.665, 29.94 29.22 C 29.94 29.369999999999997, 29.94 29.295, 29.94 29.52 C 29.94 29.82, 29.94 29.894999999999996, 29.94 30.119999999999997 C 29.94 30.27, 29.94 30.3, 29.94 30.42 L 29.94 30.599999999999998" fill="none" stroke="black" stroke-width="2"></path><path d="M 21.06 24.299999999999997 C 20.909999999999997 25.74, 20.955 25.259999999999998, 20.759999999999998 27.18 C 20.52 29.58, 20.415 29.58, 20.28 31.98 C 20.25 34.38, 20.294999999999998 34.65, 20.22 36.78 C 20.1 38.64, 20.04 38.97, 19.98 40.5 C 19.98 41.7, 19.98 42.00000000000001, 19.98 42.900000000000006 C 19.98 43.5, 19.98 43.8, 19.98 44.099999999999994 C 19.98 44.099999999999994, 19.98 44.099999999999994, 19.98 44.099999999999994 L 19.98 44.099999999999994" fill="none" stroke="black" stroke-width="2"></path><path d="M 21.240000000000002 23.64 C 21.240000000000002 24.3, 21.240000000000002 24.51, 21.240000000000002 24.96 C 21.240000000000002 25.200000000000003, 21.240000000000002 25.275000000000002, 21.240000000000002 25.44 L 21.240000000000002 25.619999999999997" fill="none" stroke="black" stroke-width="2"></path><path d="M 19.32 17.759999999999998 C 20.34 17.759999999999998, 19.95 17.804999999999996, 21.36 17.759999999999998 C 23.16 17.67, 23.64 17.67, 24.96 17.580000000000002 C 25.8 17.490000000000002, 25.950000000000003 17.445, 26.64 17.4 C 27.18 17.4, 27.33 17.384999999999998, 27.72 17.4 C 27.96 17.43, 27.990000000000002 17.43, 28.200000000000003 17.46 L 28.56 17.52" fill="none" stroke="black" stroke-width="2"></path><path d="M 17.22 13.799999999999999 C 18.15 13.829999999999998, 17.970000000000002 13.844999999999999, 19.080000000000002 13.86 C 20.37 13.86, 20.55 13.86, 21.66 13.86 C 22.59 13.86, 22.575 13.86, 23.52 13.86 C 24.48 13.86, 24.630000000000003 13.785, 25.44 13.86 C 26.1 14.01, 26.144999999999996 14.04, 26.759999999999998 14.16 C 27.33 14.25, 27.450000000000003 14.295, 27.900000000000002 14.34 L 28.56 14.34" fill="none" stroke="black" stroke-width="2"></path><path d="M 21.419999999999998 17.88 C 20.79 17.97, 20.505 18.015, 20.16 18.06 C 20.1 18.06, 20.235 18.06, 20.04 18.06 C 19.71 18.06, 19.575 18.06, 19.38 18.06 C 19.32 18.06, 19.455 18.075, 19.259999999999998 18.06 C 18.93 18.03, 18.840000000000003 18.015, 18.6 18 C 18.45 18, 18.404999999999998 18, 18.299999999999997 18 C 18.24 18, 18.299999999999997 18.03, 18.18 18 C 18 17.939999999999998, 17.91 17.91, 17.82 17.88 L 17.82 17.88" fill="none" stroke="black" stroke-width="2"></path></svg>