<svg xmlns="http://www.w3.org/2000/svg" viewBox="10.530046463012695 4.599999904632568 20.623287200927734 41.280001163482666" width="20.623287200927734" height="41.280001163482666"><path d="M 15.24 44.88 C 14.91 43.71, 15.000000000000002 43.95, 14.580000000000002 42.54 C 14.07 40.89, 14.04 41.055, 13.559999999999999 39.24 C 13.11 37.260000000000005, 12.975 36.615, 12.66 35.28 C 12.48 34.59, 12.479999999999999 34.845000000000006, 12.299999999999999 33.900000000000006 C 12.12 32.7, 12.075 32.760000000000005, 11.94 31.5 C 11.85 30.18, 11.805 29.835, 11.76 28.86 C 11.76 28.229999999999997, 11.76 28.034999999999997, 11.76 27.599999999999998 C 11.76 27.36, 11.76 27.389999999999997, 11.76 27.119999999999997 C 11.76 26.82, 11.805 26.91, 11.76 26.52 C 11.67 26.04, 11.625 25.95, 11.58 25.56 C 11.58 25.259999999999998, 11.565 25.305, 11.58 24.96 C 11.61 24.57, 11.415000000000001 24.75, 11.64 24.18 C 12.06 23.43, 12.105 23.265, 12.48 22.68 C 12.81 22.259999999999998, 12.81 22.259999999999998, 13.14 21.84 C 13.469999999999999 21.42, 13.32 21.42, 13.799999999999999 21 C 14.43 20.58, 14.339999999999998 20.535, 15.059999999999999 20.16 C 15.87 19.83, 15.75 19.785, 16.68 19.5 C 17.73 19.259999999999998, 17.655 19.185, 18.78 19.02 C 19.98 18.93, 20.16 18.915, 21.18 18.84 C 22.02 18.78, 22.005 18.75, 22.86 18.72 C 23.729999999999997 18.72, 23.669999999999998 18.72, 24.599999999999998 18.72 C 25.589999999999996 18.72, 25.77 18.615, 26.58 18.72 C 27.209999999999997 18.93, 27.359999999999996 18.96, 27.839999999999996 19.14 C 28.169999999999998 19.29, 28.125 19.065, 28.5 19.44 C 28.919999999999998 20.04, 28.979999999999997 19.830000000000002, 29.339999999999996 20.64 C 29.64 21.66, 29.745 21.75, 29.94 22.68 C 30.03 23.52, 30.075 23.715, 30.119999999999997 24.36 C 30.119999999999997 24.81, 30.194999999999997 24.72, 30.119999999999997 25.259999999999998 C 29.97 25.89, 30.165 25.86, 29.82 26.52 C 29.28 27.21, 29.340000000000003 27.375000000000004, 28.740000000000002 27.900000000000002 C 28.080000000000002 28.259999999999998, 28.020000000000003 28.395, 27.42 28.619999999999997 C 26.88 28.709999999999997, 26.729999999999997 28.754999999999995, 26.339999999999996 28.799999999999997 C 26.099999999999998 28.799999999999997, 26.159999999999997 28.83, 25.86 28.799999999999997 C 25.5 28.74, 25.575000000000003 28.904999999999998, 25.14 28.68 C 24.63 28.29, 24.54 28.26, 24.119999999999997 27.900000000000002 C 23.79 27.57, 23.79 27.660000000000004, 23.46 27.240000000000002 C 23.13 26.73, 23.159999999999997 26.88, 22.799999999999997 26.22 C 22.409999999999997 25.409999999999997, 22.335 25.365, 22.02 24.599999999999998 C 21.78 23.88, 21.689999999999998 23.715, 21.54 23.16 C 21.479999999999997 22.77, 21.464999999999996 22.799999999999997, 21.419999999999998 22.38 C 21.39 21.93, 21.375 22.02, 21.36 21.48 C 21.36 20.85, 21.36 20.835, 21.36 20.22 C 21.36 19.619999999999997, 21.36 19.439999999999998, 21.36 19.02 C 21.36 18.78, 21.36 18.66, 21.36 18.54 C 21.36 18.54, 21.36 18.54, 21.36 18.54 L 21.36 18.54" fill="none" stroke="black" stroke-width="2"></path><path d="M 11.879999999999999 6 C 12.93 5.82, 12.75 5.7299999999999995, 13.98 5.64 C 15.389999999999999 5.64, 15.074999999999998 5.55, 16.799999999999997 5.64 C 18.839999999999996 5.82, 18.945 5.835, 20.88 6 C 22.71 6.15, 23.265 6.2250000000000005, 24.54 6.300000000000001 C 25.259999999999998 6.300000000000001, 25.545 6.300000000000001, 25.98 6.300000000000001 L 26.28 6.300000000000001" fill="none" stroke="black" stroke-width="2"></path><path d="M 12.24 13.26 C 13.5 13.26, 13.215 13.26, 14.76 13.26 C 16.59 13.26, 16.709999999999997 13.26, 18.419999999999998 13.26 C 20.009999999999998 13.26, 20.25 13.26, 21.6 13.26 C 22.71 13.26, 22.830000000000002 13.26, 23.82 13.26 C 24.689999999999998 13.26, 24.659999999999997 13.26, 25.56 13.26 C 26.490000000000002 13.26, 26.505000000000003 13.26, 27.42 13.26 C 28.32 13.26, 28.724999999999998 13.26, 29.22 13.26 L 29.400000000000002 13.26" fill="none" stroke="black" stroke-width="2"></path></svg>