<svg xmlns="http://www.w3.org/2000/svg" viewBox="15.161859512329102 4.21999979019165 19.564809799194336 38.866666316986084" width="19.564809799194336" height="38.866666316986084"><path d="M 16.740000000000002 15.66 C 16.8 15.66, 16.53 15.66, 16.86 15.66 C 17.46 15.66, 17.415 15.66, 18.06 15.66 C 18.75 15.66, 18.6 15.66, 19.44 15.66 C 20.43 15.66, 20.49 15.705, 21.419999999999998 15.66 C 22.29 15.57, 22.41 15.525, 23.16 15.48 C 23.79 15.48, 23.73 15.525, 24.42 15.48 C 25.17 15.39, 25.275000000000002 15.344999999999999, 25.92 15.299999999999999 C 26.46 15.299999999999999, 26.43 15.299999999999999, 27 15.299999999999999 C 27.6 15.299999999999999, 27.660000000000004 15.299999999999999, 28.200000000000003 15.299999999999999 C 28.680000000000003 15.299999999999999, 28.740000000000002 15.299999999999999, 29.160000000000004 15.299999999999999 C 29.520000000000003 15.299999999999999, 29.580000000000005 15.299999999999999, 29.880000000000003 15.299999999999999 C 30.12 15.299999999999999, 30.105 15.284999999999998, 30.36 15.299999999999999 C 30.630000000000003 15.329999999999998, 30.6 15.239999999999998, 30.900000000000002 15.36 C 31.23 15.57, 31.305 15.629999999999999, 31.56 15.78 C 31.740000000000002 15.870000000000001, 31.755000000000003 15.795, 31.92 15.96 C 32.07 16.200000000000003, 32.04 16.14, 32.22 16.44 C 32.43 16.8, 32.475 16.785, 32.64 17.16 C 32.760000000000005 17.55, 32.775000000000006 17.505000000000003, 32.88 17.94 C 32.97 18.42, 33 18.509999999999998, 33.06 18.9 C 33.09 19.2, 33.06 19.155, 33.12 19.5 C 33.209999999999994 19.89, 33.239999999999995 19.89, 33.3 20.28 C 33.33 20.67, 33.254999999999995 20.505, 33.36 21.06 C 33.54 21.78, 33.629999999999995 21.855, 33.72 22.5 C 33.72 23.07, 33.72 22.77, 33.72 23.64 C 33.72 24.810000000000002, 33.735 24.9, 33.72 25.98 C 33.69 26.97, 33.75 27.060000000000002, 33.660000000000004 27.96 C 33.510000000000005 28.77, 33.435 28.799999999999997, 33.36 29.58 C 33.36 30.33, 33.435 30.254999999999995, 33.36 31.08 C 33.21 31.98, 33.24 31.875000000000004, 33.06 32.88 C 32.85 33.989999999999995, 32.805 34.11, 32.64 35.099999999999994 C 32.52 35.97, 32.50500000000001 36.13499999999999, 32.400000000000006 36.839999999999996 C 32.31 37.379999999999995, 32.325 37.335, 32.22 37.92 C 32.1 38.55, 32.13 38.625, 31.98 39.18 C 31.799999999999997 39.66, 31.784999999999997 39.735, 31.619999999999997 40.14 C 31.47 40.47, 31.65 40.379999999999995, 31.32 40.8 C 30.81 41.31, 30.599999999999998 41.519999999999996, 30.299999999999997 41.82 C 30.209999999999997 41.91, 30.165 41.955, 30.119999999999997 42 C 30.119999999999997 42, 30.164999999999996 41.985, 30.119999999999997 42 C 30.03 42.03, 30.060000000000002 42.045, 29.94 42.06 C 29.79 42.06, 29.745 42.06, 29.64 42.06 C 29.58 42.06, 29.64 42.06, 29.52 42.06 C 29.340000000000003 42.06, 29.445000000000004 42.06, 29.160000000000004 42.06 C 28.770000000000003 42.06, 28.845000000000006 42.120000000000005, 28.380000000000003 42.06 C 27.84 41.94, 27.689999999999998 41.94, 27.299999999999997 41.82 C 27.06 41.7, 27.195 41.82, 26.82 41.58 C 26.31 41.22, 26.235 41.325, 25.799999999999997 40.86 C 25.439999999999998 40.29, 25.439999999999998 40.455, 25.08 39.72 C 24.72 38.82, 24.555 38.685, 24.36 37.92 C 24.33 37.290000000000006, 24.314999999999998 37.2, 24.299999999999997 36.660000000000004 C 24.299999999999997 36.21, 24.389999999999997 36.405, 24.299999999999997 35.76 C 24.119999999999997 34.92, 24.03 34.695, 23.94 34.08 C 23.94 33.69, 23.94 33.495, 23.94 33.3 C 23.94 33.3, 23.94 33.3, 23.94 33.3 L 23.94 33.3" fill="none" stroke="black" stroke-width="2"></path><path d="M 16.200000000000003 10.08 C 16.410000000000004 10.08, 15.765 10.08, 16.62 10.08 C 18.12 10.08, 18.165 10.035, 19.62 10.08 C 21.03 10.17, 20.82 10.215, 22.44 10.26 C 24.27 10.26, 24.525 10.26, 26.099999999999998 10.26 C 27.42 10.26, 27.525000000000002 10.26, 28.740000000000002 10.26 C 29.85 10.26, 30.120000000000005 10.26, 30.96 10.26 C 31.529999999999998 10.26, 31.574999999999996 10.26, 32.099999999999994 10.26 L 33.06 10.26" fill="none" stroke="black" stroke-width="2"></path><path d="M 16.86 5.4 C 18.6 5.4, 18.255 5.445, 20.34 5.4 C 22.770000000000003 5.3100000000000005, 23.385000000000005 5.265, 25.200000000000003 5.22 C 26.4 5.22, 26.564999999999998 5.22, 27.599999999999998 5.22 C 28.47 5.22, 28.544999999999995 5.22, 29.339999999999996 5.22 C 30.06 5.22, 30.105 5.22, 30.78 5.22 C 31.41 5.22, 31.65 5.22, 32.04 5.22 L 32.339999999999996 5.22" fill="none" stroke="black" stroke-width="2"></path></svg>