<svg xmlns="http://www.w3.org/2000/svg" viewBox="12.979999542236328 7.640000343322754 22.880001068115234 36.62666606903076" width="22.880001068115234" height="36.62666606903076"><path d="M 13.98 18.66 C 14.67 18.9, 14.25 18.945, 15.36 19.14 C 16.89 19.29, 16.845 19.26, 18.419999999999998 19.44 C 20.04 19.65, 20.115000000000002 19.755, 21.66 19.86 C 23.13 19.86, 23.354999999999997 19.86, 24.599999999999998 19.86 C 25.619999999999997 19.86, 25.56 19.86, 26.64 19.86 C 27.78 19.86, 27.975 19.83, 28.92 19.86 C 29.67 19.92, 29.700000000000003 19.905, 30.42 19.98 C 31.11 20.07, 31.32 20.055, 31.799999999999997 20.16 C 32.06999999999999 20.28, 32.084999999999994 20.189999999999998, 32.339999999999996 20.4 C 32.58 20.7, 32.685 20.655, 32.82 21 C 32.85 21.39, 32.97 21.3, 32.88 21.78 C 32.67 22.35, 32.88 22.259999999999998, 32.46 22.919999999999998 C 31.830000000000002 23.67, 32.07 23.64, 31.200000000000003 24.42 C 30.090000000000003 25.23, 30.075000000000003 25.185000000000002, 28.98 26.04 C 27.9 26.939999999999998, 27.810000000000002 26.894999999999996, 26.82 27.839999999999996 C 25.92 28.83, 25.575 29.1, 25.02 29.82 C 24.81 30.27, 24.735 30.375, 24.599999999999998 30.72 C 24.54 30.96, 24.54 31.005000000000003, 24.48 31.200000000000003 C 24.42 31.35, 24.375 31.305, 24.36 31.5 C 24.39 31.740000000000002, 24.090000000000003 31.830000000000002, 24.42 31.98 C 25.05 32.04, 24.689999999999998 32.129999999999995, 25.68 32.099999999999994 C 27.03 31.979999999999997, 27.105000000000004 31.964999999999996, 28.380000000000003 31.86 C 29.580000000000002 31.77, 29.82 31.665, 30.78 31.68 C 31.5 31.8, 31.695 31.635, 32.22 31.92 C 32.55 32.370000000000005, 32.550000000000004 31.86, 32.88 32.82 C 33.21 34.29, 33.375 34.47, 33.54 35.76 C 33.54 36.870000000000005, 33.69 36.945, 33.54 37.980000000000004 C 33.239999999999995 38.940000000000005, 33.375 39.00000000000001, 32.94 39.900000000000006 C 32.37 40.74, 32.80499999999999 40.769999999999996, 31.799999999999997 41.58 C 30.36 42.36, 30.315 42.72, 28.92 43.14 C 27.57 43.2, 27.27 43.23, 26.22 43.26 C 25.47 43.26, 25.095 43.26, 24.72 43.26 C 24.72 43.26, 24.765 43.275, 24.72 43.26 C 24.63 43.230000000000004, 24.585 43.215, 24.54 43.2 L 24.54 43.2" fill="none" stroke="black" stroke-width="2"></path><path d="M 16.14 14.52 C 17.79 14.64, 17.205000000000002 14.7, 19.44 14.76 C 22.259999999999998 14.76, 22.889999999999997 14.76, 25.08 14.76 C 26.64 14.76, 26.535000000000004 14.76, 28.200000000000003 14.76 C 29.970000000000002 14.76, 30.390000000000004 14.76, 31.740000000000002 14.76 C 32.67 14.76, 33.135 14.76, 33.599999999999994 14.76 L 33.599999999999994 14.76" fill="none" stroke="black" stroke-width="2"></path><path d="M 17.34 8.64 C 19.259999999999998 8.64, 18.96 8.64, 21.18 8.64 C 23.7 8.64, 23.895 8.64, 26.22 8.64 C 28.35 8.64, 28.68 8.64, 30.48 8.64 C 31.950000000000003 8.64, 32.370000000000005 8.64, 33.42 8.64 C 34.05 8.64, 34.32 8.64, 34.68 8.64 L 34.86 8.64" fill="none" stroke="black" stroke-width="2"></path></svg>