<svg xmlns="http://www.w3.org/2000/svg" viewBox="10.213333129882812 9.739999771118164 19.286666870117188 36.04666709899902" width="19.286666870117188" height="36.04666709899902"><path d="M 17.28 44.339999999999996 C 16.380000000000003 44.42999999999999, 16.275 44.42999999999999, 15.48 44.519999999999996 C 14.790000000000001 44.61, 14.595000000000002 44.655, 14.100000000000001 44.7 C 13.8 44.7, 13.815000000000001 44.7, 13.5 44.7 C 13.17 44.7, 13.305 44.7, 12.84 44.7 C 12.24 44.7, 11.940000000000001 44.7, 11.64 44.7 C 11.64 44.7, 11.64 44.7, 11.64 44.7 C 11.64 44.7, 11.64 44.7, 11.64 44.7 C 11.64 44.7, 11.700000000000001 44.895, 11.64 44.7 C 11.52 44.31, 11.504999999999999 44.85, 11.399999999999999 43.92 C 11.309999999999999 42.45, 11.265 42.330000000000005, 11.22 40.980000000000004 C 11.22 39.75, 11.22 39.809999999999995, 11.22 38.519999999999996 C 11.22 37.17, 11.205000000000002 37.23, 11.22 35.82 C 11.25 34.35, 11.235 34.2, 11.28 32.88 C 11.34 31.71, 11.294999999999998 31.77, 11.399999999999999 30.54 C 11.549999999999999 29.25, 11.565 28.89, 11.7 27.96 C 11.82 27.39, 11.805 27.42, 11.94 26.82 C 12.09 26.189999999999998, 12.030000000000001 26.205, 12.24 25.56 C 12.51 24.9, 12.465 24.945, 12.78 24.240000000000002 C 13.14 23.490000000000002, 13.17 23.325000000000003, 13.5 22.740000000000002 C 13.8 22.32, 13.785000000000002 22.32, 14.100000000000001 21.9 C 14.43 21.479999999999997, 14.43 21.345, 14.76 21.06 C 15.09 20.909999999999997, 15.059999999999997 20.865, 15.419999999999998 20.759999999999998 C 15.81 20.7, 15.810000000000002 20.625, 16.200000000000003 20.64 C 16.590000000000003 20.73, 16.455000000000002 20.52, 16.98 20.82 C 17.64 21.33, 17.744999999999997 21.27, 18.299999999999997 21.84 C 18.75 22.47, 18.840000000000003 22.095000000000002, 19.200000000000003 23.1 C 19.470000000000002 24.48, 19.53 24.675, 19.740000000000002 25.86 C 19.89 26.849999999999998, 19.875 26.834999999999994, 20.04 27.839999999999996 C 20.22 28.86, 20.31 29.37, 20.4 29.880000000000003 C 20.4 29.880000000000003, 20.4 29.895000000000003, 20.4 29.880000000000003 C 20.4 29.85, 20.384999999999998 30.270000000000003, 20.4 29.82 C 20.43 28.95, 20.325 29.174999999999997, 20.46 28.08 C 20.700000000000003 26.759999999999998, 20.730000000000004 26.43, 20.94 25.44 C 21.119999999999997 24.78, 21.089999999999996 24.644999999999996, 21.299999999999997 24.119999999999997 C 21.54 23.729999999999997, 21.525 23.67, 21.78 23.34 C 22.05 23.07, 21.990000000000002 22.994999999999997, 22.32 22.799999999999997 C 22.71 22.68, 22.635 22.589999999999996, 23.1 22.56 C 23.64 22.619999999999997, 23.625 22.47, 24.18 22.68 C 24.75 23.04, 24.855 22.964999999999996, 25.32 23.4 C 25.68 23.91, 25.59 23.415, 26.04 24.42 C 26.58 25.92, 26.714999999999996 25.770000000000003, 27.119999999999997 27.42 C 27.39 29.22, 27.405 29.235, 27.660000000000004 31.02 C 27.900000000000002 32.79, 27.93 32.97, 28.14 34.56 C 28.32 35.97, 28.41 35.895, 28.5 37.38 C 28.5 38.94, 28.5 39.255, 28.5 40.5 C 28.5 41.43, 28.5 41.745, 28.5 42.36 C 28.5 42.66, 28.5 42.81, 28.5 42.96 C 28.5 42.96, 28.5 42.945, 28.5 42.96 L 28.5 43.019999999999996" fill="none" stroke="black" stroke-width="2"></path><path d="M 13.440000000000001 16.44 C 14.07 16.44, 13.425 16.545, 14.700000000000001 16.44 C 16.62 16.23, 17.175 16.125, 18.54 16.02 C 19.35 16.02, 19.11 16.02, 20.16 16.02 C 21.450000000000003 16.02, 21.6 16.02, 22.740000000000002 16.02 C 23.73 16.02, 24.075 16.02, 24.72 16.02 C 25.02 16.02, 25.17 16.02, 25.32 16.02 C 25.32 16.02, 25.32 16.02, 25.32 16.02 L 25.32 16.02" fill="none" stroke="black" stroke-width="2"></path><path d="M 12.72 10.74 C 14.280000000000001 10.77, 14.52 10.785, 15.84 10.8 C 16.92 10.8, 16.5 10.8, 18 10.8 C 19.92 10.8, 20.384999999999998 10.8, 21.84 10.8 C 22.83 10.8, 22.95 10.8, 23.82 10.8 C 24.57 10.8, 24.675 10.8, 25.32 10.8 C 25.86 10.8, 26.01 10.8, 26.400000000000002 10.8 L 26.880000000000003 10.8" fill="none" stroke="black" stroke-width="2"></path></svg>