<svg xmlns="http://www.w3.org/2000/svg" viewBox="15.319999694824219 2.626666784286499 17.900001525878906 42.29333138465881" width="17.900001525878906" height="42.29333138465881"><path d="M 21.06 5.34 C 20.28 5.7, 20.145 5.625, 19.5 6.0600000000000005 C 18.990000000000002 6.57, 18.96 6.495000000000001, 18.48 7.08 C 18.03 7.739999999999999, 17.925 7.589999999999998, 17.580000000000002 8.399999999999999 C 17.340000000000003 9.36, 17.175 9.36, 17.1 10.32 C 17.19 11.280000000000001, 17.07 11.415, 17.28 12.24 C 17.61 12.93, 17.505000000000003 13.020000000000001, 17.94 13.620000000000001 C 18.48 14.13, 18.36 14.13, 19.02 14.64 C 19.8 15.15, 19.725 15.225000000000001, 20.580000000000002 15.66 C 21.51 16.02, 21.240000000000002 16.185, 22.44 16.38 C 23.910000000000004 16.41, 23.94 16.605, 25.380000000000003 16.44 C 26.790000000000003 16.080000000000002, 27.135000000000005 16.29, 28.200000000000003 15.72 C 28.92 14.940000000000001, 29.160000000000004 14.82, 29.64 14.16 C 29.88 13.620000000000001, 29.864999999999995 13.890000000000002, 30.119999999999997 13.080000000000002 C 30.39 12, 30.525000000000002 11.865, 30.660000000000004 10.92 C 30.660000000000004 10.11, 30.735000000000007 10.200000000000001, 30.660000000000004 9.3 C 30.51 8.31, 30.705 8.145, 30.36 7.32 C 29.82 6.66, 29.805 6.525, 29.28 6 C 28.77 5.609999999999999, 28.904999999999998 5.699999999999999, 28.259999999999998 5.22 C 27.48 4.65, 27.465000000000003 4.47, 26.700000000000003 4.08 C 25.950000000000003 3.87, 25.995000000000005 3.765, 25.200000000000003 3.66 C 24.36 3.66, 24.134999999999998 3.585, 23.52 3.66 C 23.130000000000003 3.81, 23.160000000000004 3.705, 22.740000000000002 3.96 C 22.29 4.32, 22.245 4.319999999999999, 21.84 4.68 C 21.48 5.04, 21.345 5.205, 21.12 5.4 L 20.94 5.46" fill="none" stroke="black" stroke-width="2"></path><path d="M 16.98 10.56 C 17.28 10.68, 16.725 10.74, 17.580000000000002 10.8 C 18.990000000000002 10.8, 18.915 10.8, 20.4 10.8 C 21.96 10.8, 22.244999999999997 10.815000000000001, 23.52 10.8 C 24.509999999999998 10.77, 24.3 10.89, 25.5 10.74 C 26.91 10.469999999999999, 27.39 10.334999999999999, 28.32 10.2 C 28.77 10.2, 28.845 10.2, 29.22 10.2 C 29.52 10.2, 29.595 10.2, 29.82 10.2 C 29.97 10.2, 30.044999999999998 10.2, 30.119999999999997 10.2 C 30.119999999999997 10.2, 30.119999999999997 10.2, 30.119999999999997 10.2 L 30.119999999999997 10.2" fill="none" stroke="black" stroke-width="2"></path><path d="M 16.32 43.86 C 16.56 43.86, 16.394999999999996 43.995, 16.799999999999997 43.86 C 17.369999999999997 43.59, 17.175 44.04, 17.94 43.32 C 18.9 42.150000000000006, 19.02 42.300000000000004, 19.86 40.980000000000004 C 20.58 39.510000000000005, 20.714999999999996 39.285, 21.299999999999997 38.04 C 21.75 37.019999999999996, 21.720000000000002 37.394999999999996, 22.200000000000003 36 C 22.71 34.230000000000004, 22.740000000000002 34.575, 23.22 32.46 C 23.669999999999998 30, 23.759999999999998 29.759999999999998, 24.119999999999997 27.54 C 24.39 25.560000000000002, 24.450000000000003 25.53, 24.660000000000004 23.580000000000002 C 24.810000000000002 21.660000000000004, 24.885 21.270000000000003, 24.96 19.740000000000002 C 24.96 18.6, 24.96 18.3, 24.96 17.46 C 24.96 16.92, 24.96 16.724999999999998, 24.96 16.38 C 24.96 16.23, 24.96 16.155, 24.96 16.080000000000002 C 24.96 16.080000000000002, 24.96 16.020000000000003, 24.96 16.080000000000002 C 24.96 16.200000000000003, 25.005000000000003 15.885000000000002, 24.96 16.32 C 24.87 17.07, 24.93 16.59, 24.78 17.82 C 24.57 19.53, 24.465 19.5, 24.36 21.240000000000002 C 24.36 23.01, 24.36 23.220000000000002, 24.36 24.78 C 24.36 26.130000000000003, 24.345 25.86, 24.36 27.48 C 24.39 29.369999999999997, 24.21 29.43, 24.42 31.259999999999998 C 24.810000000000002 33.03, 24.825000000000003 33.38999999999999, 25.200000000000003 34.8 C 25.560000000000002 35.85, 25.485000000000003 35.85000000000001, 25.92 36.900000000000006 C 26.43 37.95, 26.355000000000004 37.995000000000005, 26.94 39 C 27.6 39.96, 27.63 40.14, 28.259999999999998 40.92 C 28.86 41.519999999999996, 28.845 41.67, 29.46 42.12 C 30.09 42.42, 30.18 42.48, 30.72 42.72 C 31.169999999999998 42.9, 31.244999999999997 42.974999999999994, 31.619999999999997 43.08 C 31.919999999999998 43.11, 32.07 43.125, 32.22 43.14 L 32.22 43.14" fill="none" stroke="black" stroke-width="2"></path></svg>