<svg xmlns="http://www.w3.org/2000/svg" viewBox="10.9399995803833 3.4940409660339355 16.904528617858887 40.04595994949341" width="16.904528617858887" height="40.04595994949341"><path d="M 20.46 5.28 C 19.53 5.58, 19.515 5.325, 18.6 5.88 C 17.7 6.6899999999999995, 17.639999999999997 6.525, 16.799999999999997 7.5 C 16.02 8.64, 15.855 8.594999999999999, 15.24 9.78 C 14.79 11.01, 14.535 10.935, 14.34 12.24 C 14.4 13.620000000000001, 14.115 13.74, 14.46 15 C 15.09 16.14, 15.21 16.53, 15.72 17.28 C 16.11 17.64, 15.885 17.715, 16.5 18 C 17.34 18.21, 17.04 18.314999999999998, 18.18 18.419999999999998 C 19.619999999999997 18.419999999999998, 19.74 18.659999999999997, 21.06 18.419999999999998 C 22.259999999999998 17.939999999999998, 22.485 17.88, 23.46 17.46 C 24.21 17.1, 24.285 17.28, 24.96 16.740000000000002 C 25.560000000000002 16.02, 25.740000000000002 16.2, 26.160000000000004 15.299999999999999 C 26.400000000000002 14.219999999999999, 26.475 14.43, 26.64 13.14 C 26.73 11.64, 26.91 11.445, 26.82 10.14 C 26.55 9.030000000000001, 26.67 8.925, 26.28 7.92 C 25.77 7.02, 25.799999999999997 6.795, 25.259999999999998 6.12 C 24.689999999999998 5.67, 24.884999999999998 5.595, 24.119999999999997 5.22 C 23.16 4.92, 23.055 4.8, 22.200000000000003 4.62 C 21.450000000000003 4.5600000000000005, 21.435000000000002 4.47, 20.700000000000003 4.5 C 19.98 4.62, 19.755 4.605, 19.259999999999998 4.74 L 18.72 5.04" fill="none" stroke="black" stroke-width="2"></path><path d="M 14.04 11.7 C 14.219999999999999 11.79, 13.694999999999999 11.805, 14.399999999999999 11.879999999999999 C 15.629999999999999 11.94, 15.584999999999999 11.91, 16.86 12 C 18.18 12.120000000000001, 18.165 12.18, 19.5 12.24 C 20.85 12.24, 21.21 12.24, 22.200000000000003 12.24 C 22.830000000000002 12.24, 22.770000000000003 12.24, 23.46 12.24 C 24.21 12.24, 24.465 12.24, 24.96 12.24 C 25.200000000000003 12.24, 25.17 12.24, 25.44 12.24 C 25.740000000000002 12.24, 25.89 12.24, 26.04 12.24 C 26.04 12.24, 26.04 12.24, 26.04 12.24 C 26.04 12.24, 26.04 12.24, 26.04 12.24 C 26.04 12.24, 25.965 12.24, 26.04 12.24 C 26.189999999999998 12.24, 26.264999999999997 12.24, 26.339999999999996 12.24 L 26.339999999999996 12.24" fill="none" stroke="black" stroke-width="2"></path><path d="M 19.98 19.080000000000002 C 19.89 19.65, 19.845 19.259999999999998, 19.799999999999997 20.22 C 19.799999999999997 21.57, 19.679999999999996 21.72, 19.799999999999997 22.919999999999998 C 20.04 23.97, 19.965 24.15, 20.28 25.02 C 20.67 25.71, 20.445 25.545, 21.06 26.400000000000002 C 21.9 27.42, 21.885 27.615000000000002, 22.740000000000002 28.44 C 23.61 29.07, 23.565 29.130000000000003, 24.48 29.700000000000003 C 25.44 30.21, 25.875000000000004 30.435000000000002, 26.400000000000002 30.72 C 26.490000000000002 30.779999999999998, 26.535 30.809999999999995, 26.58 30.839999999999996 C 26.58 30.839999999999996, 26.58 30.839999999999996, 26.58 30.839999999999996 C 26.58 30.839999999999996, 26.534999999999997 30.824999999999996, 26.58 30.839999999999996 C 26.669999999999998 30.869999999999997, 26.714999999999996 30.885, 26.759999999999998 30.900000000000002 C 26.759999999999998 30.900000000000002, 26.79 30.825000000000003, 26.759999999999998 30.900000000000002 C 26.7 31.050000000000004, 26.895 31.125000000000004, 26.64 31.200000000000003 C 26.19 31.200000000000003, 26.565 31.185000000000002, 25.740000000000002 31.200000000000003 C 24.54 31.23, 24.3 31.169999999999998, 23.34 31.259999999999998 C 22.619999999999997 31.409999999999997, 22.755 31.365, 21.9 31.56 C 20.909999999999997 31.799999999999997, 20.88 31.59, 19.919999999999998 32.04 C 18.99 32.7, 18.854999999999997 32.535, 18.06 33.36 C 17.4 34.349999999999994, 17.340000000000003 34.26, 16.740000000000002 35.339999999999996 C 16.200000000000003 36.51, 16.035 36.69, 15.66 37.68 C 15.45 38.489999999999995, 15.375 38.4, 15.24 39.3 C 15.18 40.29, 15.120000000000001 40.545, 15.120000000000001 41.28 C 15.18 41.760000000000005, 15.18 41.925000000000004, 15.24 42.24 C 15.3 42.39, 15.33 42.465, 15.36 42.54 L 15.36 42.54" fill="none" stroke="black" stroke-width="2"></path><path d="M 11.94 28.380000000000003 C 13.02 29.67, 13.335 29.94, 14.100000000000001 30.96 C 14.55 31.71, 14.58 31.740000000000002, 15 32.46 C 15.39 33.15, 15.54 33.404999999999994, 15.78 33.839999999999996 C 15.870000000000001 34.019999999999996, 15.9 34.08, 15.96 34.2 C 15.99 34.260000000000005, 16.005 34.29, 16.02 34.32 C 16.02 34.32, 16.02 34.32, 16.02 34.32 C 16.02 34.32, 15.96 34.2, 16.02 34.32 C 16.14 34.56, 16.08 34.5, 16.259999999999998 34.8 C 16.5 35.16, 16.62 35.339999999999996, 16.740000000000002 35.519999999999996 L 16.740000000000002 35.519999999999996" fill="none" stroke="black" stroke-width="2"></path></svg>