<svg xmlns="http://www.w3.org/2000/svg" viewBox="14.291824340820312 5.153510093688965 13.708175659179688 40.61982440948486" width="13.708175659179688" height="40.61982440948486"><path d="M 21.54 6.24 C 21.18 6.24, 21.285 6.255000000000001, 20.82 6.24 C 20.25 6.21, 20.52 6.1049999999999995, 19.68 6.18 C 18.57 6.36, 18.285 6.210000000000001, 17.46 6.540000000000001 C 16.92 7.0200000000000005, 16.8 6.975, 16.38 7.5 C 16.08 8.07, 16.035 7.875, 15.78 8.64 C 15.57 9.600000000000001, 15.48 9.600000000000001, 15.36 10.56 C 15.329999999999998 11.52, 15.27 11.475, 15.299999999999999 12.48 C 15.39 13.530000000000001, 15.18 13.605000000000002, 15.48 14.580000000000002 C 15.99 15.48, 15.99 15.78, 16.5 16.38 C 17.009999999999998 16.68, 16.95 16.695, 17.52 16.98 C 18.15 17.25, 18.12 17.34, 18.78 17.52 C 19.47 17.61, 19.47 17.655, 20.16 17.700000000000003 C 20.85 17.700000000000003, 20.82 17.820000000000004, 21.54 17.700000000000003 C 22.29 17.46, 22.424999999999997 17.475, 23.04 17.22 C 23.52 16.95, 23.43 17.145, 24 16.68 C 24.66 16.02, 24.795 16.05, 25.32 15.36 C 25.71 14.639999999999999, 25.784999999999997 14.699999999999998, 26.099999999999998 13.919999999999998 C 26.339999999999996 13.079999999999998, 26.459999999999997 12.885, 26.58 12.24 C 26.58 11.79, 26.624999999999996 11.865, 26.58 11.34 C 26.490000000000002 10.74, 26.55 10.68, 26.400000000000002 10.14 C 26.19 9.66, 26.22 9.675, 25.98 9.18 C 25.71 8.67, 25.725 8.61, 25.44 8.16 C 25.14 7.77, 25.08 7.665, 24.839999999999996 7.38 C 24.659999999999997 7.199999999999999, 24.765 7.2299999999999995, 24.48 7.02 C 24.090000000000003 6.78, 24.060000000000002 6.675000000000001, 23.700000000000003 6.540000000000001 C 23.37 6.510000000000001, 23.4 6.540000000000001, 23.04 6.48 C 22.65 6.390000000000001, 22.769999999999996 6.345000000000001, 22.259999999999998 6.300000000000001 C 21.63 6.300000000000001, 21.435 6.300000000000001, 21 6.300000000000001 C 20.759999999999998 6.300000000000001, 20.64 6.300000000000001, 20.52 6.300000000000001 L 20.52 6.300000000000001" fill="none" stroke="black" stroke-width="2"></path><path d="M 15.600000000000001 11.34 C 16.35 11.43, 15.975000000000001 11.475, 17.1 11.52 C 18.6 11.52, 18.75 11.52, 20.1 11.52 C 21.3 11.52, 21.465 11.52, 22.5 11.52 C 23.37 11.52, 23.490000000000002 11.52, 24.240000000000002 11.52 C 24.87 11.52, 25.035 11.52, 25.5 11.52 C 25.799999999999997 11.52, 25.874999999999996 11.52, 26.099999999999998 11.52 C 26.25 11.52, 26.175 11.52, 26.400000000000002 11.52 C 26.700000000000003 11.52, 26.85 11.52, 27 11.52 C 27 11.52, 27 11.52, 27 11.52 L 27 11.52" fill="none" stroke="black" stroke-width="2"></path><path d="M 19.799999999999997 18.18 C 19.71 19.11, 19.755000000000003 19.095, 19.62 20.04 C 19.439999999999998 21, 19.439999999999998 20.835, 19.259999999999998 21.96 C 19.08 23.25, 19.08 23.174999999999997, 18.9 24.54 C 18.72 25.98, 18.689999999999998 25.965000000000003, 18.54 27.42 C 18.419999999999998 28.89, 18.36 28.515, 18.299999999999997 30.36 C 18.299999999999997 32.58, 18.344999999999995 33.03, 18.299999999999997 34.8 C 18.21 36.12, 18.21 36.16499999999999, 18.12 37.44 C 18.03 38.67, 17.985 38.745000000000005, 17.94 39.900000000000006 C 17.94 40.980000000000004, 17.895000000000003 41.160000000000004, 17.94 42.06 C 18.03 42.78, 17.91 42.915, 18.12 43.5 C 18.450000000000003 43.95, 18.405 44.14500000000001, 18.78 44.400000000000006 C 19.200000000000003 44.46, 19.11 44.44499999999999, 19.62 44.519999999999996 C 20.22 44.61, 20.055 44.655, 20.82 44.7 C 21.75 44.7, 21.810000000000002 44.865, 22.68 44.7 C 23.49 44.370000000000005, 23.519999999999996 44.4, 24.299999999999997 44.04 C 25.049999999999997 43.65, 25.154999999999994 43.83, 25.799999999999997 43.26 C 26.34 42.51, 26.61 42.495, 26.880000000000003 41.76 C 26.880000000000003 41.04, 26.880000000000003 41.144999999999996, 26.880000000000003 40.32 C 26.880000000000003 39.39, 27.045 39.57, 26.880000000000003 38.46 C 26.55 37.17, 26.625 36.855000000000004, 26.22 35.88 C 25.74 35.22, 25.709999999999997 35.07000000000001, 25.259999999999998 34.56 C 24.84 34.2, 25.035000000000004 34.184999999999995, 24.42 33.839999999999996 C 23.61 33.51, 23.595 33.345, 22.799999999999997 33.18 C 22.02 33.18, 22.095000000000002 33.06, 21.240000000000002 33.18 C 20.310000000000002 33.42, 19.994999999999997 33.480000000000004, 19.38 33.660000000000004 C 19.08 33.78, 18.93 33.84, 18.78 33.900000000000006 C 18.78 33.900000000000006, 18.825000000000003 33.885000000000005, 18.78 33.900000000000006 C 18.69 33.93000000000001, 18.645000000000003 33.945, 18.6 33.96 C 18.6 33.96, 18.645000000000003 33.93, 18.6 33.96 L 18.419999999999998 34.08" fill="none" stroke="black" stroke-width="2"></path></svg>