<svg xmlns="http://www.w3.org/2000/svg" viewBox="15.440000534057617 3.1399998664855957 18.19999885559082 43.06000089645386" width="18.19999885559082" height="43.06000089645386"><path d="M 21.78 4.26 C 21.66 4.26, 21.93 3.9899999999999998, 21.54 4.26 C 20.88 4.8, 21.06 4.529999999999999, 20.22 5.34 C 19.2 6.42, 18.99 6.404999999999999, 18.18 7.5 C 17.58 8.61, 17.385 8.475000000000001, 16.98 9.72 C 16.77 11.100000000000001, 16.575 11.4, 16.56 12.48 C 16.74 13.26, 16.409999999999997 13.245, 16.919999999999998 14.04 C 17.759999999999998 14.85, 17.700000000000003 15, 18.6 15.66 C 19.560000000000002 16.17, 19.575 16.215, 20.52 16.68 C 21.45 17.1, 21.33 17.294999999999998, 22.38 17.52 C 23.549999999999997 17.55, 23.445 17.67, 24.72 17.580000000000002 C 26.1 17.37, 26.385 17.490000000000002, 27.48 17.16 C 28.29 16.71, 28.485 16.74, 29.099999999999998 16.259999999999998 C 29.52 15.75, 29.625 15.84, 29.94 15.24 C 30.15 14.55, 30.255 14.805, 30.36 13.86 C 30.36 12.66, 30.42 12.524999999999999, 30.36 11.459999999999999 C 30.24 10.530000000000001, 30.33 10.365000000000002, 30.119999999999997 9.600000000000001 C 29.82 9, 29.939999999999998 9.014999999999999, 29.52 8.399999999999999 C 28.98 7.77, 29.025000000000002 7.664999999999999, 28.44 7.14 C 27.810000000000002 6.720000000000001, 27.87 6.675000000000001, 27.18 6.300000000000001 C 26.43 5.970000000000001, 26.369999999999997 5.895, 25.68 5.64 C 25.05 5.46, 24.96 5.37, 24.42 5.28 C 23.97 5.28, 24.060000000000002 5.3100000000000005, 23.52 5.28 C 22.89 5.220000000000001, 22.845 5.1450000000000005, 22.259999999999998 5.16 C 21.72 5.25, 21.674999999999997 5.175, 21.18 5.34 L 20.28 5.82" fill="none" stroke="black" stroke-width="2"></path><path d="M 16.44 11.76 C 16.619999999999997 11.879999999999999, 16.275 11.94, 16.799999999999997 12 C 17.669999999999998 12, 17.189999999999998 12, 18.54 12 C 20.37 12, 20.610000000000003 11.955, 22.200000000000003 12 C 23.550000000000004 12.09, 23.805000000000003 12.135, 24.900000000000002 12.18 C 25.740000000000002 12.18, 26.04 12.18, 26.58 12.18 C 26.82 12.18, 26.744999999999997 12.18, 27.06 12.18 C 27.449999999999996 12.18, 27.494999999999997 12.18, 27.839999999999996 12.18 C 28.14 12.18, 28.17 12.18, 28.44 12.18 C 28.68 12.18, 28.650000000000002 12.18, 28.92 12.18 C 29.22 12.18, 29.295 12.18, 29.52 12.18 C 29.67 12.18, 29.625 12.18, 29.82 12.18 C 30.06 12.18, 30.18 12.18, 30.299999999999997 12.18 L 30.299999999999997 12.18" fill="none" stroke="black" stroke-width="2"></path><path d="M 21.78 17.64 C 21.78 19.560000000000002, 21.78 19.755000000000003, 21.78 21.48 C 21.78 23.009999999999998, 21.78 22.544999999999998, 21.78 24.54 C 21.78 27, 21.69 27.51, 21.78 29.46 C 21.96 30.9, 22.005000000000003 30.974999999999994, 22.14 32.339999999999996 C 22.23 33.629999999999995, 22.275 33.885, 22.32 34.92 C 22.32 35.7, 22.32 35.61, 22.32 36.480000000000004 C 22.32 37.440000000000005, 22.32 37.470000000000006, 22.32 38.400000000000006 C 22.32 39.300000000000004, 22.32 39.135000000000005, 22.32 40.2 C 22.32 41.43000000000001, 22.32 41.760000000000005, 22.32 42.660000000000004 C 22.32 43.230000000000004, 22.32 43.364999999999995, 22.32 43.8 C 22.32 44.1, 22.23 44.13, 22.32 44.400000000000006 C 22.5 44.64, 22.515 44.685, 22.68 44.88 C 22.83 45.03, 22.86 45.105000000000004, 22.98 45.18 C 23.07 45.18, 23.085 45.18, 23.16 45.18 C 23.22 45.18, 23.205000000000002 45.18, 23.28 45.18 C 23.37 45.18, 23.385 45.225, 23.46 45.18 C 23.520000000000003 45.09, 23.400000000000002 45.36, 23.580000000000002 45 C 23.880000000000003 44.370000000000005, 23.94 44.415000000000006, 24.18 43.74 C 24.36 43.019999999999996, 24.39 43.05, 24.54 42.3 C 24.66 41.519999999999996, 24.675 41.595, 24.78 40.74 C 24.87 39.81, 24.735 39.915000000000006, 24.96 38.88 C 25.32 37.739999999999995, 25.23 37.83, 25.68 36.599999999999994 C 26.22 35.28, 26.205 34.95, 26.759999999999998 33.96 C 27.33 33.3, 27.105 33.42, 27.900000000000002 32.64 C 28.92 31.74, 29.07 31.364999999999995, 29.94 30.839999999999996 C 30.660000000000004 30.689999999999998, 30.780000000000005 30.615, 31.380000000000003 30.54 C 31.86 30.54, 32.025 30.54, 32.339999999999996 30.54 C 32.489999999999995 30.54, 32.565 30.54, 32.64 30.54 C 32.64 30.54, 32.64 30.54, 32.64 30.54 L 32.64 30.54" fill="none" stroke="black" stroke-width="2"></path></svg>