<svg xmlns="http://www.w3.org/2000/svg" viewBox="9.079999923706055 4.579999923706055 20.96000099182129 42.19999885559082" width="20.96000099182129" height="42.19999885559082"><path d="M 12 5.58 C 11.7 7.44, 11.654999999999998 7.5600000000000005, 11.399999999999999 9.3 C 11.19 10.92, 11.205 10.89, 10.98 12.54 C 10.74 14.219999999999999, 10.68 14.309999999999999, 10.5 15.899999999999999 C 10.379999999999999 17.4, 10.365 17.61, 10.26 18.9 C 10.17 19.979999999999997, 10.095 20.055, 10.08 21.06 C 10.14 21.99, 10.02 22.214999999999996, 10.2 22.919999999999998 C 10.5 23.4, 10.32 23.4, 10.8 23.88 C 11.46 24.36, 11.625000000000002 24.524999999999995, 12.120000000000001 24.839999999999996 C 12.45 24.99, 12.225 24.9, 12.78 25.14 C 13.559999999999999 25.47, 13.379999999999999 25.589999999999996, 14.34 25.799999999999997 C 15.48 25.89, 15.225000000000001 25.935, 16.62 25.98 C 18.27 25.98, 18.435 25.98, 19.919999999999998 25.98 C 21.24 25.98, 21.284999999999997 26.085, 22.56 25.98 C 23.79 25.77, 23.775 25.755, 25.02 25.56 C 26.28 25.380000000000003, 26.564999999999998 25.365000000000002, 27.54 25.200000000000003 C 28.23 25.050000000000004, 28.545 24.975, 28.92 24.900000000000002 C 28.98 24.900000000000002, 29.009999999999998 24.900000000000002, 29.04 24.900000000000002 L 29.04 24.900000000000002" fill="none" stroke="black" stroke-width="2"></path><path d="M 21.54 8.34 C 21.060000000000002 8.37, 21.255000000000003 8.129999999999999, 20.580000000000002 8.399999999999999 C 19.71 8.91, 19.575 8.61, 18.84 9.42 C 18.240000000000002 10.530000000000001, 18.075 10.530000000000001, 17.64 11.64 C 17.37 12.75, 17.265 12.899999999999999, 17.1 13.86 C 17.04 14.67, 16.875 14.685, 16.98 15.48 C 17.25 16.259999999999998, 17.009999999999998 16.439999999999998, 17.52 17.04 C 18.27 17.46, 18.285 17.564999999999998, 19.02 17.88 C 19.740000000000002 18.089999999999996, 19.77 18.15, 20.46 18.299999999999997 C 21.12 18.39, 20.880000000000003 18.555, 21.78 18.48 C 22.92 18.240000000000002, 23.159999999999997 18.345, 24.06 18 C 24.72 17.55, 24.855 17.655, 25.380000000000003 17.1 C 25.770000000000003 16.44, 25.890000000000004 16.425, 26.160000000000004 15.78 C 26.310000000000002 15.149999999999999, 26.385 15.194999999999999, 26.46 14.52 C 26.46 13.8, 26.535 13.755000000000003, 26.46 13.080000000000002 C 26.310000000000002 12.450000000000001, 26.460000000000004 12.48, 26.160000000000004 11.82 C 25.71 11.129999999999999, 25.695 11.024999999999999, 25.259999999999998 10.44 C 24.84 9.96, 24.795 9.9, 24.42 9.48 C 24.09 9.120000000000001, 24.18 9.045, 23.759999999999998 8.76 C 23.25 8.55, 23.265 8.475, 22.740000000000002 8.34 C 22.200000000000003 8.280000000000001, 22.14 8.25, 21.66 8.22 C 21.240000000000002 8.22, 21.03 8.22, 20.82 8.22 L 20.82 8.22" fill="none" stroke="black" stroke-width="2"></path><path d="M 17.64 13.02 C 18.84 13.02, 18.735 13.02, 20.04 13.02 C 21.45 13.02, 21.795 13.035, 22.86 13.02 C 23.58 12.99, 23.61 12.975000000000001, 24.299999999999997 12.96 C 24.959999999999997 12.96, 25.139999999999997 12.96, 25.619999999999997 12.96 C 25.919999999999998 12.96, 26.07 12.96, 26.22 12.96 L 26.22 12.96" fill="none" stroke="black" stroke-width="2"></path><path d="M 16.080000000000002 25.98 C 16.23 26.52, 16.125 26.459999999999997, 16.38 27.06 C 16.740000000000002 27.72, 16.71 27.795, 17.1 28.380000000000003 C 17.520000000000003 28.89, 17.385 28.800000000000004, 17.94 29.400000000000002 C 18.630000000000003 30.090000000000003, 18.765 30.240000000000002, 19.32 30.78 C 19.740000000000002 31.17, 19.545 31.154999999999998, 20.16 31.56 C 20.97 31.980000000000004, 20.91 31.995000000000005, 21.78 32.400000000000006 C 22.71 32.790000000000006, 22.665 32.91, 23.64 33.18 C 24.66 33.33, 24.855 33.315000000000005, 25.68 33.480000000000004 C 26.310000000000002 33.66, 26.385 33.66, 26.94 33.839999999999996 C 27.42 34.019999999999996, 27.540000000000003 34.005, 27.900000000000002 34.2 C 28.14 34.41, 28.200000000000003 34.455, 28.380000000000003 34.62 C 28.5 34.739999999999995, 28.515 34.68, 28.619999999999997 34.86 C 28.709999999999997 35.099999999999994, 28.754999999999995 35.06999999999999, 28.799999999999997 35.339999999999996 C 28.799999999999997 35.64, 28.874999999999996 35.714999999999996, 28.799999999999997 35.94 C 28.65 36.09, 28.665 36.09, 28.5 36.24 C 28.32 36.39, 28.515 36.375, 28.14 36.54 C 27.57 36.72, 27.645 36.76500000000001, 27 36.900000000000006 C 26.28 36.99, 26.549999999999997 36.915, 25.56 37.08 C 24.299999999999997 37.32, 24.419999999999998 37.260000000000005, 23.04 37.56 C 21.54 37.92, 21.104999999999997 37.965, 20.04 38.28 C 19.41 38.55, 19.41 38.519999999999996, 18.78 38.82 C 18.15 39.150000000000006, 18.27 38.955000000000005, 17.52 39.480000000000004 C 16.65 40.2, 16.38 40.38, 15.78 40.92 C 15.45 41.28, 15.39 41.265, 15.120000000000001 41.64 C 14.91 42.03, 14.850000000000001 42.06, 14.700000000000001 42.42 C 14.61 42.75, 14.565 42.644999999999996, 14.52 43.08 C 14.52 43.620000000000005, 14.535 43.59, 14.52 44.160000000000004 C 14.49 44.760000000000005, 14.505 44.955, 14.46 45.36 C 14.4 45.57, 14.370000000000001 45.675, 14.34 45.78 L 14.34 45.78" fill="none" stroke="black" stroke-width="2"></path></svg>