<svg xmlns="http://www.w3.org/2000/svg" viewBox="13.793333053588867 3.440000057220459 22.306665420532227 34.462881565093994" width="22.306665420532227" height="34.462881565093994"><path d="M 14.82 7.68 C 14.82 9, 14.82 8.850000000000001, 14.82 10.32 C 14.82 11.94, 14.82 12.165, 14.82 13.559999999999999 C 14.82 14.729999999999999, 14.760000000000002 14.79, 14.82 15.899999999999999 C 14.94 16.95, 14.895 17.235, 15.059999999999999 18 C 15.27 18.48, 15.165 18.6, 15.48 18.96 C 15.9 19.200000000000003, 15.705 19.185000000000002, 16.32 19.44 C 17.130000000000003 19.71, 16.89 19.830000000000002, 17.94 19.98 C 19.23 20.009999999999998, 19.32 20.025, 20.52 20.04 C 21.630000000000003 20.04, 21.3 20.189999999999998, 22.740000000000002 20.04 C 24.51 19.740000000000002, 25.095000000000002 19.59, 26.28 19.44 C 26.880000000000003 19.44, 26.865000000000002 19.44, 27.48 19.44 C 28.11 19.44, 28.080000000000002 19.455000000000002, 28.740000000000002 19.44 C 29.43 19.41, 29.504999999999995 19.455, 30.119999999999997 19.38 C 30.66 19.259999999999998, 30.69 19.245, 31.200000000000003 19.14 C 31.680000000000003 19.05, 31.725000000000005 19.020000000000003, 32.160000000000004 18.96 C 32.55 18.93, 32.504999999999995 19.064999999999998, 32.94 18.9 C 33.42 18.599999999999998, 33.465 18.659999999999997, 33.900000000000006 18.299999999999997 C 34.290000000000006 17.88, 34.395 18.075, 34.68 17.46 C 34.86 16.65, 34.95 16.740000000000002, 35.04 15.84 C 35.04 14.85, 35.175 15, 35.04 13.86 C 34.769999999999996 12.57, 34.695 12.465, 34.5 11.28 C 34.379999999999995 10.2, 34.47 10.365, 34.26 9.120000000000001 C 33.96 7.710000000000001, 33.855000000000004 7.170000000000001, 33.660000000000004 6.300000000000001 C 33.57000000000001 5.970000000000001, 33.55500000000001 6.029999999999999, 33.480000000000004 5.64 C 33.42 5.1899999999999995, 33.39 4.965, 33.36 4.74 L 33.36 4.74" fill="none" stroke="black" stroke-width="2"></path><path d="M 24.06 4.5600000000000005 C 23.28 4.86, 23.4 4.7700000000000005, 22.5 5.16 C 21.48 5.640000000000001, 21.225 5.475, 20.46 6.12 C 19.950000000000003 6.93, 19.770000000000003 6.945, 19.44 7.74 C 19.29 8.52, 19.2 8.49, 19.14 9.3 C 19.17 10.14, 18.975 10.185, 19.200000000000003 10.98 C 19.62 11.73, 19.5 11.850000000000001, 20.04 12.48 C 20.7 12.99, 20.535 13.14, 21.36 13.5 C 22.35 13.709999999999999, 22.65 13.814999999999998, 23.34 13.919999999999998 C 23.729999999999997 13.919999999999998, 23.519999999999996 14.024999999999999, 24.119999999999997 13.919999999999998 C 24.93 13.709999999999999, 25.080000000000002 13.799999999999999, 25.740000000000002 13.5 C 26.25 13.11, 26.339999999999996 13.200000000000001, 26.759999999999998 12.72 C 27.09 12.15, 27.165 12.27, 27.42 11.58 C 27.6 10.77, 27.675000000000004 10.694999999999999, 27.78 9.959999999999999 C 27.81 9.3, 27.824999999999996 9.21, 27.839999999999996 8.64 C 27.839999999999996 8.16, 28.004999999999995 8.25, 27.839999999999996 7.68 C 27.509999999999998 7.02, 27.555 6.93, 27.18 6.36 C 26.759999999999998 5.880000000000001, 26.804999999999996 5.79, 26.339999999999996 5.4 C 25.83 5.1000000000000005, 25.89 5.040000000000001, 25.32 4.800000000000001 C 24.689999999999998 4.62, 24.689999999999998 4.529999999999999, 24.06 4.4399999999999995 C 23.43 4.4399999999999995, 23.115 4.4399999999999995, 22.799999999999997 4.4399999999999995 L 22.799999999999997 4.4399999999999995" fill="none" stroke="black" stroke-width="2"></path><path d="M 19.86 9.120000000000001 C 20.97 8.91, 20.730000000000004 8.85, 22.080000000000002 8.7 C 23.67 8.61, 24.029999999999998 8.61, 25.259999999999998 8.52 C 26.13 8.43, 26.415 8.385, 27 8.34 C 27.299999999999997 8.34, 27.45 8.34, 27.599999999999998 8.34 L 27.599999999999998 8.34" fill="none" stroke="black" stroke-width="2"></path><path d="M 24.839999999999996 25.740000000000002 C 24 25.740000000000002, 24.435 25.335, 23.16 25.740000000000002 C 21.450000000000003 26.55, 20.85 26.55, 19.740000000000002 27.36 C 19.23 28.17, 18.975 28.14, 18.72 28.98 C 18.72 29.85, 18.585 29.759999999999998, 18.72 30.72 C 18.99 31.77, 18.72 31.785, 19.259999999999998 32.82 C 20.07 33.84, 19.89 33.975, 20.88 34.86 C 22.049999999999997 35.61, 21.915 35.849999999999994, 23.22 36.36 C 24.659999999999997 36.63, 24.915 36.795, 26.099999999999998 36.900000000000006 C 27.03 36.84, 27.150000000000002 37.005, 27.96 36.78 C 28.65 36.39, 28.709999999999997 36.6, 29.339999999999996 36 C 29.909999999999997 35.19, 30.15 35.145, 30.48 34.38 C 30.57 33.66, 30.615000000000002 33.87, 30.660000000000004 32.94 C 30.660000000000004 31.8, 30.660000000000004 31.560000000000002, 30.660000000000004 30.660000000000004 C 30.660000000000004 30, 30.825000000000003 29.999999999999996, 30.660000000000004 29.339999999999996 C 30.330000000000002 28.68, 30.54 28.619999999999997, 30 28.02 C 29.25 27.48, 29.189999999999998 27.375, 28.5 26.94 C 27.87 26.61, 27.93 26.610000000000003, 27.240000000000002 26.28 C 26.490000000000002 25.95, 26.340000000000003 25.86, 25.740000000000002 25.619999999999997 C 25.29 25.47, 25.244999999999997 25.41, 24.839999999999996 25.32 C 24.479999999999997 25.29, 24.299999999999997 25.275, 24.119999999999997 25.259999999999998 L 24.119999999999997 25.259999999999998" fill="none" stroke="black" stroke-width="2"></path><path d="M 18.9 33.06 C 20.04 32.55, 19.77 32.504999999999995, 21.18 32.04 C 22.86 31.62, 23.235 31.440000000000005, 24.54 31.200000000000003 C 25.47 31.14, 25.545 31.11, 26.400000000000002 31.08 C 27.18 31.08, 27.39 31.08, 27.96 31.08 C 28.32 31.08, 28.335 31.019999999999996, 28.68 31.08 C 29.009999999999998 31.2, 29.054999999999996 31.23, 29.339999999999996 31.32 C 29.58 31.380000000000003, 29.625 31.380000000000003, 29.82 31.44 C 29.97 31.5, 29.955 31.515, 30.119999999999997 31.56 C 30.299999999999997 31.589999999999996, 30.39 31.604999999999997, 30.48 31.619999999999997 L 30.48 31.619999999999997" fill="none" stroke="black" stroke-width="2"></path></svg>