<svg xmlns="http://www.w3.org/2000/svg" viewBox="8.80666732788086 3.0799999237060547 22.31333351135254 40.10666847229004" width="22.31333351135254" height="40.10666847229004"><path d="M 12.54 4.800000000000001 C 12.209999999999999 6.63, 12.479999999999999 5.474999999999999, 11.879999999999999 8.459999999999999 C 11.01 12.600000000000001, 10.65 13.470000000000002, 10.14 16.740000000000002 C 9.99 19.14, 9.915 19.395, 9.84 21.54 C 9.84 23.43, 9.84 23.22, 9.84 25.32 C 9.84 27.630000000000003, 9.765 28.020000000000003, 9.84 29.94 C 9.99 31.47, 9.9 31.650000000000002, 10.14 33 C 10.47 34.17, 10.56 34.66499999999999, 10.8 35.339999999999996 C 10.950000000000001 35.519999999999996, 10.725000000000001 35.82, 11.100000000000001 35.7 C 11.7 35.28, 11.594999999999999 35.745, 12.299999999999999 34.86 C 13.11 33.510000000000005, 13.199999999999998 33.855000000000004, 13.919999999999998 32.160000000000004 C 14.549999999999999 30.12, 14.79 29.325, 15.18 28.08 C 15.33 27.63, 15.405000000000001 27.405, 15.48 27.18 C 15.48 27.18, 15.375 27.119999999999997, 15.48 27.18 C 15.69 27.3, 15.735 26.475, 15.899999999999999 27.42 C 16.02 29.19, 15.93 29.580000000000002, 16.14 30.96 C 16.44 31.95, 16.305000000000003 32.084999999999994, 16.740000000000002 32.94 C 17.310000000000002 33.66, 17.085 33.84, 17.88 34.38 C 18.9 34.739999999999995, 18.584999999999997 34.88999999999999, 19.919999999999998 35.099999999999994 C 21.57 35.16, 21.72 35.25, 23.22 35.22 C 24.57 35.1, 24.93 35.145, 25.92 34.980000000000004 C 26.55 34.77, 26.475 34.980000000000004, 27.18 34.56 C 27.96 33.93, 28.245 34.245, 28.740000000000002 33.3 C 28.950000000000003 32.04, 29.025000000000006 33.345, 29.160000000000004 30.78 C 29.220000000000002 26.91, 29.19 26.43, 29.28 23.04 C 29.4 20.13, 29.46 20.415, 29.52 17.22 C 29.52 13.739999999999998, 29.52 13.26, 29.52 10.26 C 29.52 7.74, 29.52 6.765, 29.52 5.22 C 29.52 4.65, 29.52 4.365, 29.52 4.08 L 29.52 4.08" fill="none" stroke="black" stroke-width="2"></path><path d="M 22.02 7.62 C 21.03 7.800000000000001, 21.03 7.545000000000001, 20.04 7.98 C 19.049999999999997 8.67, 18.99 8.399999999999999, 18.06 9.36 C 17.189999999999998 10.59, 17.1 10.379999999999999, 16.32 11.82 C 15.63 13.47, 15.360000000000001 13.59, 14.940000000000001 15.120000000000001 C 14.790000000000001 16.53, 14.445 16.68, 14.64 17.94 C 15.18 19.05, 15.075000000000001 19.44, 15.72 20.16 C 16.47 20.490000000000002, 16.349999999999998 20.625, 17.22 20.82 C 18.21 20.880000000000003, 18.135 21.18, 19.200000000000003 20.94 C 20.340000000000003 20.4, 20.475 20.564999999999998, 21.48 19.86 C 22.35 18.990000000000002, 22.544999999999998 18.915, 23.22 18.12 C 23.7 17.4, 23.805 17.415, 24.18 16.68 C 24.45 15.93, 24.705 16.064999999999998, 24.72 15.18 C 24.48 14.16, 24.675 14.280000000000001, 24.240000000000002 13.14 C 23.61 11.88, 23.46 11.565000000000001, 22.98 10.620000000000001 C 22.65 9.99, 22.65 9.825, 22.32 9.36 C 21.990000000000002 9.059999999999999, 21.990000000000002 8.969999999999999, 21.66 8.76 C 21.33 8.64, 21.195 8.594999999999999, 21 8.52 C 20.939999999999998 8.489999999999998, 20.91 8.475, 20.88 8.459999999999999 L 20.88 8.459999999999999" fill="none" stroke="black" stroke-width="2"></path><path d="M 15 14.04 C 15.27 14.129999999999999, 14.879999999999999 14.115, 15.54 14.22 C 16.59 14.34, 16.29 14.4, 17.64 14.46 C 19.29 14.46, 19.365000000000002 14.505, 20.94 14.46 C 22.44 14.370000000000001, 22.965000000000003 14.325, 23.94 14.28 C 24.39 14.28, 24.615 14.28, 24.839999999999996 14.28 L 24.839999999999996 14.28" fill="none" stroke="black" stroke-width="2"></path><path d="M 10.32 42 C 11.309999999999999 42.09, 11.129999999999999 42.135, 12.299999999999999 42.18 C 13.649999999999999 42.18, 13.02 42.195, 15 42.18 C 17.61 42.15, 17.924999999999997 42.224999999999994, 20.22 42.12 C 22.2 41.94, 22.424999999999997 41.91, 24.18 41.76 C 25.71 41.64, 25.905 41.654999999999994, 27.240000000000002 41.519999999999996 C 28.380000000000003 41.37, 28.8 41.325, 29.52 41.22 L 30.119999999999997 41.099999999999994" fill="none" stroke="black" stroke-width="2"></path></svg>