<svg xmlns="http://www.w3.org/2000/svg" viewBox="8.539999961853027 8.65999984741211 27.140000343322754 31.34000015258789" width="27.140000343322754" height="31.34000015258789"><path d="M 14.34 37.44 C 13.71 35.61, 13.530000000000001 35.655, 13.080000000000002 33.78 C 12.81 31.86, 12.885 32.445, 12.54 29.94 C 12.12 26.85, 11.91 26.145, 11.7 23.759999999999998 C 11.7 22.08, 11.745 21.884999999999998, 11.7 20.4 C 11.61 19.11, 11.489999999999998 18.99, 11.52 17.82 C 11.67 16.77, 11.4 16.830000000000002, 11.82 15.72 C 12.510000000000002 14.55, 12.360000000000001 14.504999999999999, 13.200000000000001 13.379999999999999 C 14.190000000000001 12.3, 14.280000000000001 11.985, 15.18 11.22 C 15.989999999999998 10.77, 16.095 10.635000000000002, 16.799999999999997 10.32 C 17.4 10.14, 17.4 10.094999999999999, 18 9.959999999999999 C 18.6 9.87, 18.690000000000005 9.69, 19.200000000000003 9.78 C 19.62 10.05, 19.53 9.885, 20.04 10.32 C 20.64 10.92, 20.700000000000003 10.815, 21.240000000000002 11.52 C 21.720000000000002 12.33, 21.885000000000005 12.420000000000002, 22.200000000000003 13.14 C 22.35 13.77, 22.335 13.469999999999999, 22.5 14.399999999999999 C 22.68 15.629999999999999, 22.77 15.375, 22.86 16.86 C 22.86 18.6, 22.86 19.064999999999998, 22.86 20.34 C 22.86 21.15, 22.86 21.240000000000002, 22.86 21.96 C 22.86 22.59, 22.86 22.665, 22.86 23.22 C 22.86 23.7, 22.86 23.939999999999998, 22.86 24.18 C 22.86 24.18, 22.86 24.18, 22.86 24.18 C 22.86 24.18, 22.65 24.18, 22.86 24.18 C 23.28 24.18, 23.220000000000002 24.285, 23.700000000000003 24.18 C 24.240000000000002 23.97, 24.39 23.865, 24.78 23.759999999999998 C 25.02 23.759999999999998, 24.81 23.759999999999998, 25.259999999999998 23.759999999999998 C 25.919999999999998 23.759999999999998, 26.009999999999998 23.669999999999998, 26.58 23.759999999999998 C 27.06 23.939999999999998, 26.91 23.909999999999997, 27.54 24.119999999999997 C 28.32 24.36, 28.439999999999998 24.299999999999997, 29.099999999999998 24.599999999999998 C 29.64 24.96, 29.729999999999997 24.84, 30.18 25.32 C 30.54 25.92, 30.645000000000003 25.785, 30.900000000000002 26.52 C 31.050000000000004 27.39, 31.110000000000003 27.209999999999997, 31.200000000000003 28.259999999999998 C 31.23 29.49, 31.41 29.4, 31.259999999999998 30.72 C 30.93 32.129999999999995, 30.944999999999997 32.46, 30.599999999999998 33.54 C 30.240000000000002 34.29, 30.225 34.335, 29.880000000000003 35.04 C 29.55 35.7, 29.445 35.91, 29.22 36.36 C 29.1 36.599999999999994, 29.085 36.644999999999996, 28.98 36.839999999999996 C 28.89 36.989999999999995, 28.904999999999998 36.93, 28.799999999999997 37.14 C 28.68 37.41, 28.619999999999997 37.545, 28.56 37.68 L 28.56 37.68" fill="none" stroke="black" stroke-width="2"></path><path d="M 9.540000000000001 38.64 C 10.59 38.489999999999995, 9.72 38.565, 11.64 38.339999999999996 C 14.43 38.04, 14.52 37.980000000000004, 17.22 37.74 C 19.83 37.56, 20.220000000000002 37.35, 22.44 37.38 C 24.27 37.620000000000005, 24.104999999999997 37.620000000000005, 26.099999999999998 37.86 C 28.259999999999998 38.099999999999994, 29.025000000000002 38.099999999999994, 30.42 38.339999999999996 C 31.05 38.58, 31.17 38.655, 31.68 38.82 C 32.07 38.91, 32.265 38.955, 32.46 39 L 32.46 39" fill="none" stroke="black" stroke-width="2"></path><path d="M 29.400000000000002 9.84 C 28.71 10.530000000000001, 28.59 10.110000000000001, 28.02 11.22 C 27.57 12.75, 27.345 13.11, 27.119999999999997 14.28 C 27.119999999999997 15.09, 26.849999999999994 14.984999999999998, 27.119999999999997 15.899999999999999 C 27.66 16.92, 27.525000000000002 16.875, 28.200000000000003 17.94 C 29.01 19.05, 29.07 19.53, 29.82 20.16 C 30.51 20.310000000000002, 30.570000000000004 20.43, 31.200000000000003 20.46 C 31.77 20.37, 31.724999999999994 20.73, 32.339999999999996 20.28 C 33 19.47, 33.18000000000001 19.44, 33.660000000000004 18.66 C 33.96 17.91, 34.004999999999995 17.955, 34.26 17.16 C 34.47 16.32, 34.635 16.305, 34.68 15.48 C 34.56 14.67, 34.71 14.625, 34.44 13.86 C 34.019999999999996 13.139999999999999, 34.184999999999995 13.139999999999997, 33.599999999999994 12.419999999999998 C 32.849999999999994 11.7, 32.75999999999999 11.535, 32.099999999999994 10.98 C 31.529999999999998 10.59, 31.41 10.469999999999999, 30.96 10.2 C 30.63 10.049999999999999, 30.689999999999998 10.034999999999998, 30.299999999999997 9.899999999999999 C 29.85 9.78, 29.82 9.719999999999999, 29.400000000000002 9.66 L 28.619999999999997 9.66" fill="none" stroke="black" stroke-width="2"></path><path d="M 27.660000000000004 14.64 C 29.25 14.4, 29.625 14.280000000000001, 30.839999999999996 14.16 C 31.679999999999996 14.16, 31.949999999999996 14.16, 32.519999999999996 14.16 C 32.81999999999999 14.16, 32.925 14.16, 33.12 14.16 C 33.209999999999994 14.16, 33.254999999999995 14.16, 33.3 14.16 L 33.3 14.16" fill="none" stroke="black" stroke-width="2"></path></svg>