<svg xmlns="http://www.w3.org/2000/svg" viewBox="12.979999542236328 0.25999999046325684 20.18000030517578 46.46000123023987" width="20.18000030517578" height="46.46000123023987"><path d="M 16.259999999999998 25.08 C 16.08 24.509999999999998, 16.125 24.585, 15.899999999999999 23.94 C 15.629999999999999 23.22, 15.57 23.295, 15.36 22.5 C 15.209999999999999 21.63, 15.224999999999998 21.435, 15.059999999999999 20.759999999999998 C 14.879999999999999 20.279999999999998, 14.865000000000002 20.309999999999995, 14.700000000000001 19.799999999999997 C 14.55 19.259999999999998, 14.52 19.275, 14.399999999999999 18.72 C 14.309999999999999 18.15, 14.31 18.105, 14.22 17.580000000000002 C 14.129999999999999 17.1, 14.084999999999999 17.01, 14.04 16.62 C 14.04 16.32, 13.904999999999998 16.38, 14.04 16.02 C 14.31 15.6, 14.250000000000002 15.48, 14.580000000000002 15.18 C 14.97 15, 14.82 14.925, 15.36 14.82 C 16.05 14.79, 16.035000000000004 14.82, 16.740000000000002 14.76 C 17.46 14.670000000000002, 16.875 14.625000000000002, 18.18 14.580000000000002 C 20.07 14.580000000000002, 20.205 14.580000000000002, 21.96 14.580000000000002 C 23.580000000000002 14.580000000000002, 23.67 14.565000000000001, 25.200000000000003 14.580000000000002 C 26.64 14.610000000000001, 26.564999999999998 14.625, 28.08 14.64 C 29.669999999999998 14.64, 30.239999999999995 14.595, 31.259999999999998 14.64 C 31.71 14.73, 31.935000000000002 14.775, 32.160000000000004 14.82 L 32.160000000000004 14.82" fill="none" stroke="black" stroke-width="2"></path><path d="M 20.22 1.26 C 19.08 1.71, 18.900000000000002 1.485, 17.94 2.16 C 17.16 3.06, 16.919999999999998 2.835, 16.38 3.96 C 16.08 5.3100000000000005, 15.93 5.445, 15.78 6.66 C 15.78 7.74, 15.66 7.9350000000000005, 15.78 8.82 C 16.02 9.51, 15.689999999999998 9.51, 16.259999999999998 10.2 C 17.159999999999997 10.89, 16.935 11.16, 18.06 11.58 C 19.409999999999997 11.73, 19.575 11.819999999999999, 20.759999999999998 11.879999999999999 C 21.779999999999998 11.85, 21.915 11.97, 22.799999999999997 11.82 C 23.549999999999997 11.55, 23.624999999999996 11.625, 24.299999999999997 11.28 C 24.9 10.86, 24.974999999999998 10.934999999999999, 25.5 10.44 C 25.950000000000003 9.870000000000001, 26.130000000000003 9.780000000000001, 26.400000000000002 9.3 C 26.490000000000002 8.91, 26.535 9.06, 26.58 8.52 C 26.58 7.83, 26.805 7.89, 26.58 7.14 C 26.13 6.33, 26.235 6.285, 25.68 5.5200000000000005 C 25.02 4.800000000000001, 24.93 4.575, 24.36 4.08 C 23.88 3.81, 23.939999999999998 3.84, 23.4 3.54 C 22.8 3.21, 22.770000000000003 3.1799999999999997, 22.200000000000003 2.88 C 21.660000000000004 2.61, 21.6 2.5949999999999998, 21.12 2.34 C 20.700000000000003 2.0999999999999996, 20.685000000000002 2.025, 20.28 1.8599999999999999 C 19.89 1.77, 19.815 1.725, 19.5 1.6800000000000002 C 19.259999999999998 1.6800000000000002, 19.29 1.6800000000000002, 19.02 1.6800000000000002 L 18.419999999999998 1.6800000000000002" fill="none" stroke="black" stroke-width="2"></path><path d="M 15.84 7.32 C 16.29 7.35, 15.675 7.29, 16.740000000000002 7.38 C 18.42 7.529999999999999, 18.630000000000003 7.574999999999999, 20.1 7.68 C 21.36 7.74, 21.525000000000002 7.7700000000000005, 22.62 7.800000000000001 C 23.55 7.800000000000001, 23.745 7.800000000000001, 24.48 7.800000000000001 C 25.02 7.800000000000001, 25.049999999999997 7.800000000000001, 25.56 7.800000000000001 C 26.04 7.800000000000001, 26.25 7.800000000000001, 26.52 7.800000000000001 L 26.64 7.800000000000001" fill="none" stroke="black" stroke-width="2"></path><path d="M 23.28 14.100000000000001 C 23.37 14.49, 23.415 14.354999999999999, 23.46 14.879999999999999 C 23.46 15.540000000000001, 23.46 15.420000000000002, 23.46 16.200000000000003 C 23.46 17.1, 23.445 16.935000000000002, 23.46 18 C 23.490000000000002 19.23, 23.384999999999998 19.200000000000003, 23.52 20.46 C 23.759999999999998 21.75, 23.58 21.585, 24 23.04 C 24.6 24.66, 24.660000000000004 25.095, 25.200000000000003 26.28 C 25.680000000000003 27.03, 25.755000000000003 27.240000000000002, 26.160000000000004 27.78 C 26.490000000000002 28.11, 26.325000000000003 28.035, 26.82 28.44 C 27.48 28.92, 27.450000000000003 29.01, 28.14 29.400000000000002 C 28.86 29.700000000000003, 29.07 29.82, 29.58 30 C 29.88 30.06, 29.939999999999998 30.044999999999998, 30.18 30.119999999999997 C 30.36 30.209999999999997, 30.33 30.164999999999996, 30.54 30.299999999999997 C 30.78 30.48, 30.81 30.51, 31.02 30.660000000000004 C 31.200000000000003 30.78, 31.290000000000003 30.840000000000003, 31.380000000000003 30.900000000000002 C 31.380000000000003 30.900000000000002, 31.380000000000003 30.900000000000002, 31.380000000000003 30.900000000000002 C 31.380000000000003 30.900000000000002, 31.365000000000002 30.870000000000005, 31.380000000000003 30.900000000000002 C 31.410000000000004 30.96, 31.545 30.884999999999998, 31.44 31.02 C 31.200000000000003 31.23, 31.245 31.26, 30.96 31.44 C 30.63 31.590000000000003, 30.629999999999995 31.605000000000004, 30.299999999999997 31.740000000000002 C 29.97 31.86, 30.15 31.770000000000003, 29.64 31.98 C 28.95 32.28, 29.189999999999998 32.144999999999996, 28.259999999999998 32.58 C 27.09 33.15, 26.985 33.12, 25.92 33.72 C 24.96 34.35, 24.78 34.440000000000005, 24 34.980000000000004 C 23.4 35.43000000000001, 23.61 35.13, 22.799999999999997 35.88 C 21.779999999999998 36.93000000000001, 21.674999999999997 36.84, 20.759999999999998 37.980000000000004 C 19.95 39.21, 19.845 39.225, 19.14 40.44 C 18.54 41.64, 18.345000000000002 41.955, 17.94 42.839999999999996 C 17.73 43.41, 17.67 43.455000000000005, 17.52 43.980000000000004 C 17.43 44.46, 17.384999999999998 44.625, 17.34 44.94 C 17.34 45.09, 17.325 45.09, 17.34 45.24 C 17.369999999999997 45.39, 17.339999999999996 45.42, 17.4 45.54 L 17.580000000000002 45.72" fill="none" stroke="black" stroke-width="2"></path><path d="M 15.059999999999999 31.14 C 16.68 32.22, 17.115 32.459999999999994, 18.299999999999997 33.3 C 19.049999999999997 33.9, 19.184999999999995 33.945, 19.799999999999997 34.5 C 20.279999999999998 35.01, 20.4 35.06999999999999, 20.759999999999998 35.519999999999996 C 21 35.91, 21.060000000000002 35.97, 21.240000000000002 36.3 C 21.36 36.56999999999999, 21.42 36.705, 21.48 36.839999999999996 L 21.48 36.839999999999996" fill="none" stroke="black" stroke-width="2"></path></svg>