<svg xmlns="http://www.w3.org/2000/svg" viewBox="8.453332901000977 3.0799999237060547 25.239999771118164 44.31999969482422" width="25.239999771118164" height="44.31999969482422"><path d="M 15.24 4.08 C 14.7 5.79, 14.655000000000001 5.91, 14.16 7.5 C 13.71 8.969999999999999, 13.77 8.835, 13.26 10.44 C 12.690000000000001 12.18, 12.735000000000001 11.684999999999999, 12.120000000000001 13.919999999999998 C 11.46 16.65, 11.355 16.59, 10.8 19.38 C 10.35 22.229999999999997, 10.229999999999999 23.009999999999998, 9.899999999999999 25.08 C 9.69 26.37, 9.585 26.370000000000005, 9.48 27.660000000000004 C 9.48 28.950000000000003, 9.42 29.190000000000005, 9.48 30.240000000000002 C 9.600000000000001 31.05, 9.540000000000001 31.29, 9.72 31.86 C 9.96 32.19, 9.825 32.114999999999995, 10.2 32.519999999999996 C 10.71 33, 10.845 33.18000000000001, 11.22 33.480000000000004 C 11.46 33.6, 11.34 33.644999999999996, 11.7 33.72 C 12.18 33.75, 12.045 33.975, 12.66 33.78 C 13.41 33.36, 13.515 33.405, 14.16 32.94 C 14.7 32.43, 14.625 32.715, 15.24 31.92 C 15.93 30.84, 15.975000000000001 31.005, 16.62 29.759999999999998 C 17.22 28.35, 17.355 28.035, 17.82 26.94 C 18.15 26.160000000000004, 18.225 25.935000000000002, 18.48 25.380000000000003 C 18.66 25.05, 18.75 24.884999999999998, 18.84 24.72 C 18.84 24.72, 18.795 24.705, 18.84 24.72 C 18.93 24.75, 18.975 24.435000000000002, 19.02 24.78 C 19.02 25.439999999999998, 19.02 25.349999999999998, 19.02 26.099999999999998 C 19.02 26.939999999999998, 19.02 26.865000000000002, 19.02 27.78 C 19.02 28.77, 19.02 28.784999999999997, 19.02 29.759999999999998 C 19.02 30.72, 18.869999999999997 30.869999999999997, 19.02 31.68 C 19.32 32.34, 19.29 32.415, 19.62 33 C 19.98 33.51, 19.995 33.66, 20.34 34.019999999999996 C 20.67 34.23, 20.564999999999998 34.334999999999994, 21 34.44 C 21.54 34.44, 21.480000000000004 34.69499999999999, 22.080000000000002 34.44 C 22.740000000000002 33.93, 22.785 33.795, 23.4 33.42 C 23.97 33.18, 24.015 33.105, 24.54 32.94 C 25.02 32.849999999999994, 24.855 32.894999999999996, 25.5 32.76 C 26.31 32.58, 26.384999999999998 32.49, 27.119999999999997 32.400000000000006 C 27.78 32.400000000000006, 27.795 32.17500000000001, 28.44 32.400000000000006 C 29.07 32.85, 29.115000000000002 32.79, 29.700000000000003 33.3 C 30.240000000000002 33.87, 30.195 33.51, 30.78 34.44 C 31.41 35.73, 31.605 35.849999999999994, 32.04 37.019999999999996 C 32.28 38.06999999999999, 32.4 38.16, 32.519999999999996 39.12 C 32.519999999999996 39.989999999999995, 32.91 39.81, 32.519999999999996 40.86 C 31.74 42.09, 31.77 42.33, 30.96 43.32 C 30.12 44.07, 30.225 44.205, 29.28 44.82 C 28.23 45.3, 28.41 45.39, 27.18 45.78 C 25.77 46.08, 25.83 46.230000000000004, 24.36 46.38 C 22.83 46.38, 22.559999999999995 46.425000000000004, 21.299999999999997 46.38 C 20.31 46.290000000000006, 20.475 46.515, 19.32 46.2 C 18 45.66, 17.745 45.72, 16.68 45.12 C 15.87 44.459999999999994, 15.84 44.58, 15.059999999999999 43.8 C 14.309999999999999 42.9, 14.024999999999999 42.825, 13.559999999999999 42 C 13.379999999999999 41.25, 13.290000000000001 41.235, 13.200000000000001 40.5 C 13.200000000000001 39.78, 13.200000000000001 39.45, 13.200000000000001 39.06 C 13.200000000000001 39, 13.200000000000001 38.97, 13.200000000000001 38.94 C 13.200000000000001 38.94, 13.200000000000001 38.985, 13.200000000000001 38.94 L 13.200000000000001 38.76" fill="none" stroke="black" stroke-width="2"></path><path d="M 23.34 6.36 C 22.86 7.02, 22.994999999999997 6.66, 22.38 7.68 C 21.63 9.059999999999999, 21.435 9.12, 20.88 10.44 C 20.52 11.7, 20.355 11.835, 20.16 12.96 C 20.130000000000003 13.950000000000001, 19.86 14.100000000000001, 20.1 14.940000000000001 C 20.61 15.63, 20.385 15.540000000000001, 21.12 16.32 C 22.08 17.189999999999998, 22.11 17.49, 23.04 18.06 C 23.939999999999998 18.33, 23.834999999999997 18.6, 24.839999999999996 18.6 C 25.949999999999996 18.33, 25.949999999999996 18.75, 27.06 18.06 C 28.17 16.95, 28.650000000000002 16.634999999999998, 29.28 15.84 C 29.43 15.36, 29.474999999999998 15.674999999999999, 29.58 14.879999999999999 C 29.64 13.77, 29.775000000000002 13.754999999999999, 29.700000000000003 12.66 C 29.490000000000002 11.58, 29.64 11.445, 29.28 10.5 C 28.77 9.69, 28.83 9.584999999999999, 28.259999999999998 8.879999999999999 C 27.63 8.28, 27.689999999999998 8.205, 27 7.68 C 26.25 7.2299999999999995, 26.189999999999998 7.0649999999999995, 25.5 6.779999999999999 C 24.87 6.66, 24.825000000000003 6.6000000000000005, 24.240000000000002 6.540000000000001 C 23.700000000000003 6.540000000000001, 23.43 6.540000000000001, 23.16 6.540000000000001 L 23.16 6.540000000000001" fill="none" stroke="black" stroke-width="2"></path><path d="M 20.28 11.34 C 21.03 11.37, 20.580000000000002 11.384999999999998, 21.78 11.399999999999999 C 23.43 11.399999999999999, 23.82 11.399999999999999, 25.08 11.399999999999999 C 25.95 11.399999999999999, 25.965 11.399999999999999, 26.82 11.399999999999999 C 27.66 11.399999999999999, 27.795 11.384999999999998, 28.5 11.399999999999999 C 29.07 11.43, 29.235 11.415, 29.64 11.459999999999999 C 29.88 11.52, 29.97 11.55, 30.119999999999997 11.58 L 30.240000000000002 11.58" fill="none" stroke="black" stroke-width="2"></path></svg>