<svg xmlns="http://www.w3.org/2000/svg" viewBox="7.579999923706055 2.180000066757202 20.18000030517578 41.71333336830139" width="20.18000030517578" height="41.71333336830139"><path d="M 13.98 3.18 C 13.14 4.890000000000001, 13.215 4.575000000000001, 12.299999999999999 6.6000000000000005 C 11.309999999999999 8.94, 11.1 9.12, 10.32 11.28 C 9.75 13.26, 9.615 12.795, 9.18 15.24 C 8.879999999999999 18.15, 8.625 18.764999999999997, 8.58 21.06 C 8.79 22.740000000000002, 8.565 23.025000000000002, 9 24.42 C 9.66 25.53, 9.75 25.98, 10.32 26.64 C 10.8 26.85, 10.709999999999999 26.985, 11.28 27.06 C 11.940000000000001 27, 11.925 27.255000000000003, 12.600000000000001 26.94 C 13.290000000000001 26.369999999999997, 13.47 26.474999999999998, 13.98 25.799999999999997 C 14.31 25.02, 14.295000000000002 25.215000000000003, 14.64 24.240000000000002 C 15 23.07, 15.105 22.95, 15.36 21.9 C 15.51 20.97, 15.585 20.61, 15.66 20.04 C 15.66 19.83, 15.645 19.59, 15.66 19.62 C 15.690000000000001 19.89, 15.645 19.68, 15.72 20.16 C 15.84 20.85, 15.690000000000001 20.775, 15.96 21.54 C 16.38 22.38, 16.319999999999997 22.5, 16.799999999999997 23.22 C 17.339999999999996 23.82, 17.099999999999998 23.805, 17.88 24.42 C 18.9 25.05, 18.81 25.26, 19.919999999999998 25.68 C 21.119999999999997 25.89, 21.06 25.994999999999997, 22.32 26.099999999999998 C 23.64 26.099999999999998, 24.015 26.235, 24.96 26.099999999999998 C 25.53 25.83, 25.695 25.755, 26.099999999999998 25.56 C 26.339999999999996 25.439999999999998, 26.415 25.395, 26.58 25.32 L 26.759999999999998 25.259999999999998" fill="none" stroke="black" stroke-width="2"></path><path d="M 19.68 6.0600000000000005 C 19.259999999999998 6.33, 19.335 6.0600000000000005, 18.84 6.6000000000000005 C 18.270000000000003 7.41, 18.075000000000003 7.155000000000001, 17.700000000000003 8.22 C 17.520000000000003 9.54, 17.43 9.629999999999999, 17.34 10.86 C 17.34 12, 17.07 12.285, 17.34 13.14 C 17.88 13.71, 17.459999999999997 13.605, 18.419999999999998 14.28 C 19.799999999999997 15.059999999999999, 19.935 15.435, 21.18 15.84 C 22.29 15.87, 22.365 16.08, 23.4 15.899999999999999 C 24.36 15.51, 24.689999999999998 15.600000000000001, 25.32 15.120000000000001 C 25.62 14.55, 25.71 14.685, 25.92 13.98 C 26.040000000000003 13.14, 26.085000000000004 13.034999999999998, 26.160000000000004 12.299999999999999 C 26.19 11.67, 26.22 11.760000000000002, 26.22 11.040000000000001 C 26.19 10.23, 26.340000000000003 10.185, 26.160000000000004 9.42 C 25.830000000000002 8.7, 25.875 8.55, 25.5 7.98 C 25.080000000000002 7.5600000000000005, 25.230000000000004 7.56, 24.660000000000004 7.14 C 23.94 6.720000000000001, 24.165 6.525, 23.22 6.300000000000001 C 22.049999999999997 6.2700000000000005, 22.005 6.255000000000001, 20.88 6.24 C 19.799999999999997 6.24, 19.455 6.24, 18.72 6.24 C 18.33 6.24, 18.135 6.24, 17.94 6.24 L 17.94 6.24" fill="none" stroke="black" stroke-width="2"></path><path d="M 17.700000000000003 9.18 C 17.79 9.42, 17.564999999999998 9.465, 17.88 9.66 C 18.42 9.809999999999999, 18.075000000000003 9.794999999999998, 18.96 9.959999999999999 C 20.189999999999998 10.14, 20.384999999999998 10.185, 21.419999999999998 10.32 C 22.259999999999998 10.41, 22.245 10.305, 23.1 10.5 C 23.97 10.8, 24.239999999999995 10.89, 24.839999999999996 11.100000000000001 C 25.169999999999998 11.22, 25.215 11.25, 25.5 11.34 C 25.740000000000002 11.399999999999999, 25.86 11.43, 25.98 11.459999999999999 L 25.98 11.459999999999999" fill="none" stroke="black" stroke-width="2"></path><path d="M 17.52 34.26 C 16.95 34.5, 16.799999999999997 34.2, 16.38 34.74 C 16.11 35.58, 15.36 36.18, 15.84 36.42 C 17.07 36.06, 17.534999999999997 36.465, 18.299999999999997 35.7 C 18.599999999999998 34.53, 18.959999999999997 34.14, 18.9 33.36 C 18.479999999999997 32.97, 18.615 32.474999999999994, 18.06 32.58 C 17.369999999999997 33.18, 16.965 33.120000000000005, 16.68 33.78 C 16.799999999999997 34.5, 16.665 34.754999999999995, 16.919999999999998 35.22 C 17.310000000000002 35.43, 17.37 36.075, 17.700000000000003 35.64 C 17.970000000000002 34.56, 18.195000000000004 34.095000000000006, 18.240000000000002 33.480000000000004 C 18.060000000000002 33.33, 18.495 32.775000000000006, 17.88 33.18 C 16.83 34.14, 16.215 34.349999999999994, 15.78 35.099999999999994 C 15.96 35.64, 15.72 36.045, 16.14 36.18 L 17.46 35.64" fill="none" stroke="black" stroke-width="2"></path><path d="M 10.32 42.480000000000004 C 10.86 42.66, 10.125 42.75, 11.399999999999999 42.839999999999996 C 13.409999999999998 42.839999999999996, 13.004999999999999 42.959999999999994, 15.419999999999998 42.839999999999996 C 18.24 42.599999999999994, 18.959999999999997 42.48, 21.06 42.36 C 22.439999999999998 42.36, 22.74 42.36, 23.82 42.36 C 24.6 42.36, 24.990000000000002 42.36, 25.380000000000003 42.36 L 25.380000000000003 42.36" fill="none" stroke="black" stroke-width="2"></path></svg>