<svg xmlns="http://www.w3.org/2000/svg" viewBox="9.199999809265137 -0.06000012159347534 22.92518138885498 47.98000019788742" width="22.92518138885498" height="47.98000019788742"><path d="M 12.36 26.04 C 11.85 24.57, 11.625 24.990000000000002, 11.34 23.1 C 11.280000000000001 20.79, 11.190000000000001 20.415, 11.22 18.48 C 11.34 16.92, 11.235 16.755, 11.459999999999999 15.36 C 11.79 14.129999999999999, 11.745000000000001 13.739999999999998, 12.120000000000001 12.899999999999999 C 12.540000000000001 12.45, 12.510000000000002 12.315, 12.96 12 C 13.44 11.82, 13.484999999999998 11.760000000000002, 13.919999999999998 11.64 C 14.309999999999999 11.58, 14.34 11.385, 14.700000000000001 11.52 C 15.030000000000001 11.85, 15 11.565, 15.36 12.18 C 15.75 13.08, 15.825 13.23, 16.14 13.98 C 16.380000000000003 14.58, 16.35 14.489999999999998, 16.62 15.18 C 16.92 15.96, 17.009999999999998 16.200000000000003, 17.22 16.740000000000002 C 17.34 17.04, 17.37 17.145, 17.46 17.34 C 17.520000000000003 17.43, 17.55 17.46, 17.580000000000002 17.52 C 17.580000000000002 17.55, 17.580000000000002 17.715000000000003, 17.580000000000002 17.580000000000002 C 17.580000000000002 17.28, 17.580000000000002 17.520000000000003, 17.580000000000002 16.98 C 17.580000000000002 16.2, 17.580000000000002 16.034999999999997, 17.580000000000002 15.419999999999998 C 17.580000000000002 14.969999999999999, 17.565 14.985, 17.580000000000002 14.52 C 17.61 14.04, 17.400000000000002 14.024999999999999, 17.64 13.559999999999999 C 18.09 13.11, 18.15 13.065, 18.54 12.66 C 18.87 12.3, 18.720000000000002 12.12, 19.200000000000003 11.94 C 19.830000000000002 11.94, 19.605 11.94, 20.46 11.94 C 21.54 11.94, 21.585 11.94, 22.62 11.94 C 23.61 11.94, 23.865 11.94, 24.599999999999998 11.94 C 25.08 11.94, 24.99 11.864999999999998, 25.56 11.94 C 26.22 12.09, 26.205000000000002 11.97, 26.880000000000003 12.24 C 27.57 12.629999999999999, 27.659999999999997 12.555, 28.259999999999998 13.02 C 28.77 13.56, 28.86 13.545000000000002, 29.28 14.100000000000001 C 29.61 14.670000000000002, 29.655 14.385000000000002, 29.94 15.24 C 30.18 16.38, 30.3 16.2, 30.42 17.52 C 30.42 19.02, 30.42 19.05, 30.42 20.52 C 30.42 21.96, 30.42 22.409999999999997, 30.42 23.4 C 30.42 23.939999999999998, 30.42 24.105, 30.42 24.48 C 30.42 24.69, 30.42 24.630000000000003, 30.42 24.900000000000002 C 30.42 25.23, 30.42 25.395, 30.42 25.56 C 30.42 25.56, 30.42 25.56, 30.42 25.56 L 30.42 25.56" fill="none" stroke="black" stroke-width="2"></path><path d="M 20.700000000000003 1.5 C 19.410000000000004 1.6199999999999999, 19.05 1.4399999999999997, 18.12 1.7399999999999998 C 17.55 2.2199999999999998, 17.475 1.935, 16.98 2.7 C 16.560000000000002 3.7500000000000004, 16.335 3.5700000000000007, 16.14 4.800000000000001 C 16.17 6.210000000000001, 15.975000000000003 6.465, 16.200000000000003 7.62 C 16.62 8.52, 16.575 8.73, 17.04 9.42 C 17.549999999999997 9.899999999999999, 16.965 9.944999999999999, 18.06 10.379999999999999 C 19.74 10.77, 19.799999999999997 10.995, 21.419999999999998 11.16 C 22.979999999999997 11.100000000000001, 23.354999999999997 11.385000000000002, 24.54 11.040000000000001 C 25.35 10.41, 25.545 10.379999999999999, 26.160000000000004 9.78 C 26.580000000000002 9.21, 26.73 9.3, 27 8.64 C 27.12 7.890000000000001, 27.270000000000003 7.92, 27.240000000000002 7.14 C 27.060000000000002 6.33, 27.315000000000005 6.615, 26.880000000000003 5.5200000000000005 C 26.19 4.140000000000001, 26.055 3.66, 25.5 2.7600000000000002 C 25.080000000000002 2.34, 25.17 2.295, 24.660000000000004 1.92 C 24.060000000000002 1.5899999999999999, 24.165000000000003 1.4849999999999999, 23.46 1.26 C 22.65 1.1400000000000001, 22.665 1.08, 21.84 1.02 C 21 1.02, 21 0.8400000000000001, 20.16 1.02 C 19.32 1.38, 18.945 1.5149999999999997, 18.48 1.7399999999999998 L 18.299999999999997 1.92" fill="none" stroke="black" stroke-width="2"></path><path d="M 16.38 6 C 17.46 6, 16.634999999999998 6, 18.54 6 C 21.27 6, 21.96 6, 24 6 C 25.35 6, 25.875000000000004 6, 26.700000000000003 6 C 27 6, 27.029999999999998 5.955, 27.299999999999997 6 C 27.54 6.09, 27.66 6.135, 27.78 6.18 L 27.78 6.18" fill="none" stroke="black" stroke-width="2"></path><path d="M 23.16 11.100000000000001 C 23.009999999999998 11.43, 23.07 11.085, 22.86 11.76 C 22.59 12.78, 22.560000000000002 12.674999999999999, 22.32 13.799999999999999 C 22.11 15.029999999999998, 22.049999999999997 14.744999999999997, 21.9 16.259999999999998 C 21.81 18.06, 21.674999999999997 17.939999999999998, 21.72 19.86 C 21.9 21.9, 21.705000000000002 22.005000000000003, 22.080000000000002 23.94 C 22.65 25.77, 22.68 26.174999999999997, 23.22 27.599999999999998 C 23.73 28.619999999999997, 23.655 28.814999999999998, 24.240000000000002 29.64 C 24.9 30.270000000000003, 24.615 30.39, 25.56 30.900000000000002 C 26.79 31.29, 26.939999999999998 31.425, 28.02 31.68 C 28.950000000000003 31.8, 29.355000000000004 31.830000000000002, 29.880000000000003 31.92 C 30 31.98, 29.939999999999998 31.95, 30.119999999999997 32.04 C 30.36 32.16, 30.479999999999997 32.22, 30.599999999999998 32.28 C 30.599999999999998 32.28, 30.509999999999998 32.22, 30.599999999999998 32.28 C 30.78 32.4, 30.87 32.459999999999994, 30.96 32.519999999999996 C 30.96 32.519999999999996, 30.945 32.355, 30.96 32.519999999999996 C 30.990000000000002 32.849999999999994, 31.275 32.94, 31.02 33.18 C 30.48 33.33, 30.84 33.27, 29.94 33.480000000000004 C 28.68 33.75, 28.470000000000002 33.794999999999995, 27.42 34.019999999999996 C 26.580000000000002 34.2, 26.415000000000003 34.215, 25.740000000000002 34.38 C 25.23 34.53, 25.65 34.2, 24.72 34.68 C 23.369999999999997 35.489999999999995, 23.07 35.669999999999995, 22.02 36.3 C 21.27 36.75, 21.3 36.480000000000004, 20.52 37.2 C 19.71 38.19, 19.59 38.085, 18.9 39.18 C 18.33 40.379999999999995, 18.209999999999997 40.485, 17.759999999999998 41.58 C 17.43 42.57, 17.400000000000002 42.57, 17.1 43.56 C 16.83 44.55, 16.71 44.745, 16.56 45.54 C 16.53 46.14, 16.515 46.44, 16.5 46.74 C 16.5 46.74, 16.53 46.695, 16.5 46.74 L 16.38 46.92" fill="none" stroke="black" stroke-width="2"></path><path d="M 10.2 35.160000000000004 C 11.549999999999999 35.19, 11.204999999999998 34.83, 12.899999999999999 35.22 C 14.94 35.97, 15.465 36, 16.98 36.72 C 17.97 37.41, 18.3 37.61999999999999, 18.96 38.099999999999994 C 19.29 38.37, 19.32 38.385, 19.62 38.64 C 19.89 38.879999999999995, 20.025 39, 20.16 39.12 L 20.16 39.12" fill="none" stroke="black" stroke-width="2"></path></svg>