<svg xmlns="http://www.w3.org/2000/svg" viewBox="13.220000267028809 7.5199995040893555 20.566665649414062 36.560001373291016" width="20.566665649414062" height="36.560001373291016"><path d="M 14.22 9.18 C 15.509999999999998 9.03, 15.134999999999998 9.03, 16.799999999999997 8.879999999999999 C 18.839999999999996 8.73, 19.019999999999996 8.655, 20.88 8.58 C 22.560000000000002 8.58, 22.635 8.58, 24.240000000000002 8.58 C 25.77 8.58, 26.069999999999997 8.58, 27.299999999999997 8.58 C 28.23 8.58, 28.380000000000003 8.58, 29.160000000000004 8.58 C 29.790000000000003 8.58, 29.865000000000002 8.445, 30.42 8.58 C 30.900000000000002 8.850000000000001, 30.900000000000006 8.55, 31.380000000000003 9.120000000000001 C 31.86 9.99, 32.01 9.75, 32.339999999999996 10.86 C 32.519999999999996 12.209999999999999, 32.61 12.059999999999999, 32.7 13.559999999999999 C 32.7 15.209999999999999, 32.895 14.715, 32.7 16.86 C 32.31 19.5, 32.475 19.68, 31.92 22.14 C 31.200000000000003 24.42, 31.29 24.330000000000005, 30.48 26.700000000000003 C 29.58 29.16, 29.415 29.654999999999998, 28.68 31.619999999999997 C 28.11 33.09, 28.169999999999998 32.910000000000004, 27.54 34.56 C 26.85 36.39, 26.655000000000005 36.9, 26.160000000000004 38.22 C 25.86 39.03, 25.86 39.059999999999995, 25.56 39.839999999999996 C 25.259999999999998 40.589999999999996, 25.215 40.67999999999999, 24.96 41.339999999999996 C 24.75 41.91, 24.705 42.045, 24.54 42.480000000000004 C 24.419999999999998 42.78, 24.36 42.93, 24.299999999999997 43.08 C 24.299999999999997 43.08, 24.299999999999997 43.08, 24.299999999999997 43.08 L 24.299999999999997 43.08" fill="none" stroke="black" stroke-width="2"></path><path d="M 20.759999999999998 16.62 C 20.339999999999996 16.59, 20.595 16.2, 19.919999999999998 16.56 C 18.99 17.31, 18.93 17.099999999999998, 18.06 18.06 C 17.25 19.229999999999997, 16.995 19.394999999999996, 16.44 20.4 C 16.14 21.240000000000002, 15.99 21.225, 15.84 22.080000000000002 C 15.84 22.950000000000003, 15.54 22.92, 15.84 23.82 C 16.439999999999998 24.75, 16.41 25.095, 17.04 25.68 C 17.7 25.92, 17.775 25.995000000000005, 18.36 26.160000000000004 C 18.869999999999997 26.25, 18.645 26.354999999999997, 19.38 26.339999999999996 C 20.339999999999996 26.22, 20.294999999999998 26.534999999999997, 21.299999999999997 26.099999999999998 C 22.349999999999998 25.349999999999998, 22.619999999999997 25.319999999999997, 23.4 24.599999999999998 C 23.91 23.909999999999997, 24.090000000000003 23.849999999999998, 24.42 23.22 C 24.57 22.65, 24.645 22.770000000000003, 24.72 22.080000000000002 C 24.72 21.270000000000003, 24.96 21.345000000000002, 24.72 20.46 C 24.24 19.5, 24.165 19.2, 23.759999999999998 18.54 C 23.43 18.18, 23.625 18.255000000000003, 23.1 17.82 C 22.380000000000003 17.31, 22.365000000000002 17.115, 21.66 16.799999999999997 C 20.97 16.68, 20.775000000000002 16.619999999999997, 20.28 16.56 C 19.98 16.56, 19.875 16.56, 19.68 16.56 C 19.59 16.56, 19.545 16.56, 19.5 16.56 L 19.5 16.56" fill="none" stroke="black" stroke-width="2"></path></svg>