<svg xmlns="http://www.w3.org/2000/svg" viewBox="10.579999923706055 4.853333473205566 21.121042251586914 38.446664333343506" width="21.121042251586914" height="38.446664333343506"><path d="M 11.58 5.88 C 12.870000000000001 5.88, 12.045 5.88, 14.16 5.88 C 17.1 5.88, 17.474999999999998 5.82, 20.04 5.88 C 22.23 6, 22.560000000000002 5.955, 24.42 6.12 C 25.950000000000003 6.33, 26.19 6.390000000000001, 27.48 6.540000000000001 C 28.53 6.630000000000001, 28.889999999999997 6.5550000000000015, 29.58 6.720000000000001 C 29.91 6.96, 29.97 6.81, 30.240000000000002 7.199999999999999 C 30.450000000000003 7.739999999999999, 30.585000000000004 7.709999999999999, 30.660000000000004 8.28 C 30.6 8.879999999999999, 30.855 8.67, 30.54 9.48 C 29.97 10.5, 30.015 10.53, 29.400000000000002 11.52 C 28.740000000000002 12.48, 28.514999999999997 12.705000000000002, 28.08 13.440000000000001 C 27.87 13.950000000000001, 27.810000000000002 14.16, 27.660000000000004 14.46 L 27.48 14.64" fill="none" stroke="black" stroke-width="2"></path><path d="M 19.86 6.0600000000000005 C 19.86 6.99, 19.98 6.195, 19.86 7.92 C 19.619999999999997 10.440000000000001, 19.544999999999998 10.860000000000001, 19.38 12.96 C 19.29 14.64, 19.305000000000003 14.25, 19.200000000000003 16.32 C 19.080000000000002 18.78, 19.245 18.465000000000003, 18.96 21.240000000000002 C 18.509999999999998 24.330000000000002, 18.465 24.765, 18.06 27.42 C 17.7 29.64, 17.655 30.075, 17.34 31.86 C 17.07 33.21, 17.069999999999997 33.105000000000004, 16.799999999999997 34.56 C 16.529999999999998 36.120000000000005, 16.439999999999998 36.39, 16.259999999999998 37.68 C 16.17 38.7, 16.17 38.64, 16.080000000000002 39.72 C 15.99 40.86, 15.945 41.355000000000004, 15.899999999999999 42 C 15.899999999999999 42.15, 15.899999999999999 42.224999999999994, 15.899999999999999 42.3 L 15.899999999999999 42.3" fill="none" stroke="black" stroke-width="2"></path></svg>