<svg xmlns="http://www.w3.org/2000/svg" viewBox="11.779999732971191 5.480000019073486 21.019999504089355 39.079999923706055" width="21.019999504089355" height="39.079999923706055"><path d="M 14.46 6.779999999999999 C 15.18 6.779999999999999, 14.369999999999997 6.839999999999999, 15.899999999999999 6.779999999999999 C 18.240000000000002 6.66, 18.270000000000003 6.540000000000001, 20.580000000000002 6.540000000000001 C 22.86 6.66, 23.220000000000002 6.72, 25.14 6.779999999999999 C 26.7 6.779999999999999, 27.104999999999997 6.719999999999999, 28.259999999999998 6.779999999999999 C 29.009999999999998 6.8999999999999995, 29.159999999999997 6.869999999999999, 29.759999999999998 7.02 C 30.21 7.199999999999999, 30.285000000000004 7.14, 30.660000000000004 7.38 C 30.96 7.68, 30.99 7.380000000000001, 31.259999999999998 7.98 C 31.5 8.879999999999999, 31.62 8.399999999999999, 31.740000000000002 9.78 C 31.740000000000002 11.64, 31.740000000000002 11.955, 31.740000000000002 13.5 C 31.740000000000002 14.73, 31.740000000000002 15.255, 31.740000000000002 15.96 C 31.740000000000002 16.14, 31.740000000000002 16.2, 31.740000000000002 16.32 L 31.740000000000002 16.44" fill="none" stroke="black" stroke-width="2"></path><path d="M 12.78 43.14 C 13.440000000000001 43.05, 12.915000000000001 43.68, 14.100000000000001 42.96 C 15.81 41.61, 16.244999999999997 41.504999999999995, 17.52 40.26 C 18.36 39.120000000000005, 18.465000000000003 39.225, 19.200000000000003 37.980000000000004 C 19.830000000000002 36.63, 19.875 36.900000000000006, 20.46 35.28 C 21 33.39, 21.104999999999997 33.63, 21.54 31.5 C 21.87 29.13, 21.990000000000002 28.904999999999998, 22.200000000000003 26.759999999999998 C 22.29 24.839999999999996, 22.335 24.915, 22.38 22.919999999999998 C 22.38 20.85, 22.38 20.715, 22.38 18.78 C 22.38 16.98, 22.38 16.815, 22.38 15.18 C 22.38 13.71, 22.38 13.56, 22.38 12.24 C 22.38 11.07, 22.38 10.844999999999999, 22.38 9.899999999999999 C 22.38 9.18, 22.38 9.165, 22.38 8.459999999999999 C 22.38 7.77, 22.38 7.574999999999999, 22.38 7.08 C 22.38 6.78, 22.38 6.630000000000001, 22.38 6.48 C 22.38 6.48, 22.38 6.48, 22.38 6.48 L 22.38 6.48" fill="none" stroke="black" stroke-width="2"></path><path d="M 22.38 6.720000000000001 C 22.259999999999998 8.88, 22.185 8.385000000000002, 22.14 11.040000000000001 C 22.17 14.190000000000001, 22.080000000000002 14.91, 22.200000000000003 17.34 C 22.410000000000004 19.049999999999997, 22.185000000000002 18.735, 22.62 20.759999999999998 C 23.28 23.1, 23.16 22.83, 23.94 25.44 C 24.840000000000003 28.32, 25.020000000000003 28.515000000000004, 25.740000000000002 31.200000000000003 C 26.28 33.69, 26.22 33.945, 26.82 36.18 C 27.48 38.16, 27.51 38.7, 28.14 40.14 C 28.74 41.04, 28.634999999999998 41.16, 29.339999999999996 41.94 C 30.15 42.599999999999994, 30.345 42.855, 30.96 43.26 C 31.38 43.41, 31.589999999999996 43.485, 31.799999999999997 43.56 L 31.799999999999997 43.56" fill="none" stroke="black" stroke-width="2"></path></svg>