<svg xmlns="http://www.w3.org/2000/svg" viewBox="11.633333206176758 5.78000020980835 14.213333129882812 39.37999963760376" width="14.213333129882812" height="39.37999963760376"><path d="M 13.14 43.44 C 12.99 39.66, 12.915 39.375, 12.84 35.88 C 12.84 32.67, 12.84 32.04, 12.84 29.46 C 12.84 27.509999999999998, 12.84 26.955, 12.84 25.56 C 12.84 24.72, 12.375 24.75, 12.84 23.88 C 13.77 22.98, 13.440000000000001 22.965000000000003, 14.700000000000001 22.080000000000002 C 16.29 21.21, 16.575 20.85, 17.88 20.34 C 18.9 20.189999999999998, 18.764999999999997 20.115, 19.919999999999998 20.04 C 21.21 20.04, 21.465 20.04, 22.5 20.04 C 23.28 20.04, 23.549999999999997 19.994999999999997, 24.06 20.04 C 24.299999999999997 20.13, 24.36 19.185, 24.54 20.22 C 24.66 22.2, 24.72 22.17, 24.78 24.18 C 24.78 26.22, 24.78 25.814999999999998, 24.78 28.259999999999998 C 24.78 31.11, 24.93 31.485, 24.78 33.96 C 24.48 36.06, 24.375 36.615, 24.18 38.160000000000004 C 24.09 39.150000000000006, 24.119999999999997 39.36, 24 40.14 C 23.85 40.71, 23.820000000000004 40.755, 23.700000000000003 41.28 C 23.61 41.760000000000005, 23.61 41.550000000000004, 23.52 42.24 C 23.43 43.14, 23.384999999999998 43.56, 23.34 44.04 L 23.34 44.160000000000004" fill="none" stroke="black" stroke-width="2"></path><path d="M 16.62 20.700000000000003 C 16.53 19.560000000000002, 16.545 20.64, 16.44 18.419999999999998 C 16.32 15.12, 16.320000000000004 14.219999999999999, 16.200000000000003 11.82 C 16.080000000000002 10.32, 16.065 10.065000000000001, 15.96 8.82 C 15.870000000000001 7.83, 15.825 7.335, 15.78 6.84 L 15.78 6.84" fill="none" stroke="black" stroke-width="2"></path><path d="M 20.4 19.98 C 20.64 19.86, 20.655 21.165000000000003, 20.88 19.740000000000002 C 21.089999999999996 17.01, 21.089999999999996 16.935, 21.299999999999997 14.28 C 21.509999999999998 11.7, 21.615 10.875, 21.72 9.120000000000001 C 21.72 8.190000000000001, 21.72 7.845000000000001, 21.72 7.26 L 21.72 6.779999999999999" fill="none" stroke="black" stroke-width="2"></path></svg>