<svg xmlns="http://www.w3.org/2000/svg" viewBox="11.359999656677246 2.240000009536743 19.64666748046875 43.87999892234802" width="19.64666748046875" height="43.87999892234802"><path d="M 13.26 28.619999999999997 C 13.170000000000002 27, 13.200000000000003 27.060000000000002, 13.080000000000002 25.380000000000003 C 12.93 23.64, 12.899999999999999 23.325, 12.78 21.9 C 12.690000000000001 20.79, 12.705000000000002 20.7, 12.600000000000001 19.68 C 12.48 18.75, 12.36 18.525, 12.36 17.82 C 12.48 17.34, 12.255 17.25, 12.600000000000001 16.86 C 13.170000000000002 16.56, 12.855 16.5, 13.74 16.259999999999998 C 14.940000000000001 16.08, 14.655000000000001 15.989999999999998, 16.14 15.899999999999999 C 17.91 15.899999999999999, 17.97 15.944999999999999, 19.68 15.899999999999999 C 21.33 15.809999999999999, 21.54 15.765, 22.98 15.72 C 24.21 15.72, 24.525000000000002 15.72, 25.44 15.72 C 26.04 15.72, 25.98 15.72, 26.64 15.72 C 27.36 15.72, 27.57 15.72, 28.08 15.72 C 28.38 15.72, 28.32 15.555000000000001, 28.68 15.72 C 29.1 16.05, 29.25 15.915, 29.52 16.38 C 29.64 16.98, 29.639999999999997 16.665000000000003, 29.759999999999998 17.580000000000002 C 29.88 18.810000000000002, 29.939999999999998 18.75, 30 20.04 C 30 21.39, 30 21.6, 30 22.740000000000002 C 30 23.67, 30 23.744999999999997, 30 24.599999999999998 C 30 25.380000000000003, 30 25.500000000000004, 30 26.160000000000004 C 30 26.700000000000003, 30.015 26.820000000000004, 30 27.240000000000002 C 29.97 27.54, 29.955000000000002 27.584999999999997, 29.94 27.839999999999996 C 29.94 28.049999999999997, 29.94 28.034999999999997, 29.94 28.259999999999998 C 29.94 28.5, 29.970000000000002 28.560000000000002, 29.94 28.740000000000002 L 29.82 28.98" fill="none" stroke="black" stroke-width="2"></path><path d="M 18.36 16.740000000000002 C 18.36 16.740000000000002, 18.405 16.89, 18.36 16.740000000000002 C 18.27 16.44, 18.225 16.650000000000002, 18.18 16.14 C 18.18 15.420000000000002, 18.18 16.41, 18.18 14.700000000000001 C 18.18 12, 18.18 11.625, 18.18 9.3 C 18.18 7.3500000000000005, 18.18 6.75, 18.18 5.4 C 18.18 4.65, 18.18 4.44, 18.18 3.9000000000000004 C 18.18 3.5700000000000003, 18.18 3.4050000000000002, 18.18 3.24 L 18.18 3.24" fill="none" stroke="black" stroke-width="2"></path><path d="M 24.54 14.82 C 24.240000000000002 12.45, 24.18 12.15, 23.94 10.08 C 23.76 8.31, 23.700000000000003 7.9350000000000005, 23.580000000000002 6.540000000000001 C 23.520000000000003 5.5200000000000005, 23.490000000000002 5.085000000000001, 23.46 4.5 C 23.46 4.35, 23.46 4.424999999999999, 23.46 4.199999999999999 L 23.46 3.5999999999999996" fill="none" stroke="black" stroke-width="2"></path><path d="M 21.18 16.200000000000003 C 21.18 17.580000000000002, 21.18 16.605000000000004, 21.18 18.96 C 21.18 22.29, 21.18 22.665, 21.18 25.619999999999997 C 21.18 28.2, 21.18 28.755000000000003, 21.18 30.78 C 21.18 32.25, 21.24 31.979999999999997, 21.18 33.72 C 21.060000000000002 35.730000000000004, 20.985 36.09, 20.94 37.74 C 20.97 39.03, 20.94 39.27, 21 40.32 C 21.09 41.129999999999995, 21.134999999999998 41.294999999999995, 21.18 41.94 C 21.18 42.42, 21.18 42.405, 21.18 42.900000000000006 C 21.18 43.410000000000004, 21.18 43.485, 21.18 43.92 C 21.18 44.28, 21.18 44.34, 21.18 44.64 C 21.18 44.879999999999995, 21.18 45, 21.18 45.12 L 21.18 45.12" fill="none" stroke="black" stroke-width="2"></path></svg>