<svg xmlns="http://www.w3.org/2000/svg" viewBox="12.979999542236328 1.940000057220459 22.053333282470703 41.12000131607056" width="22.053333282470703" height="41.12000131607056"><path d="M 14.28 4.4399999999999995 C 14.370000000000001 6.449999999999999, 14.535 5.969999999999999, 14.46 8.459999999999999 C 14.22 11.43, 14.040000000000001 11.729999999999999, 13.98 14.399999999999999 C 14.100000000000001 16.77, 14.040000000000001 17.745, 14.22 19.14 C 14.46 19.560000000000002, 14.295000000000002 19.62, 14.700000000000001 19.98 C 15.27 20.28, 14.745 20.310000000000002, 15.84 20.580000000000002 C 17.46 20.82, 16.740000000000002 20.865, 19.080000000000002 21.06 C 22.14 21.21, 23.115000000000002 21.24, 25.200000000000003 21.36 C 26.310000000000002 21.45, 26.475 21.494999999999997, 27.42 21.54 C 28.200000000000003 21.54, 28.245 21.54, 28.98 21.54 C 29.67 21.54, 29.865 21.54, 30.36 21.54 C 30.66 21.54, 30.69 21.54, 30.96 21.54 C 31.200000000000003 21.54, 31.305 21.63, 31.44 21.54 C 31.47 21.36, 31.365000000000002 22.305, 31.5 21.18 C 31.740000000000002 19.11, 31.845 19.95, 31.98 17.04 C 32.01 13.29, 32.085 12.24, 32.04 9.540000000000001 C 31.919999999999998 7.890000000000001, 31.86 7.065, 31.799999999999997 6.24 C 31.799999999999997 6.24, 31.799999999999997 6.24, 31.799999999999997 6.24 C 31.799999999999997 6.24, 31.889999999999997 6.300000000000001, 31.799999999999997 6.24 L 31.44 6" fill="none" stroke="black" stroke-width="2"></path><path d="M 26.400000000000002 3.24 C 26.19 4.68, 26.295 4.065, 25.98 6.12 C 25.560000000000002 8.79, 25.395 9.45, 25.14 11.459999999999999 C 25.05 12.809999999999999, 25.005000000000003 12.93, 24.96 14.16 C 24.96 15.27, 24.975 15.78, 24.96 16.38 C 24.93 16.47, 25.050000000000004 16.485, 24.900000000000002 16.56 L 24.36 16.68" fill="none" stroke="black" stroke-width="2"></path><path d="M 20.52 2.94 C 20.28 4.14, 20.415 3.51, 20.04 5.34 C 19.53 7.8, 19.275 8.235, 19.02 10.26 C 19.02 11.850000000000001, 19.02 12.3, 19.02 13.440000000000001 C 19.02 14.13, 19.02 14.25, 19.02 14.82 L 19.02 15.72" fill="none" stroke="black" stroke-width="2"></path><path d="M 23.16 21 C 23.07 21.39, 22.89 21.045, 22.98 21.78 C 23.25 22.86, 23.04 22.92, 23.52 23.94 C 24.21 24.9, 23.895000000000003 24.975, 24.900000000000002 25.86 C 26.22 26.67, 26.4 26.865000000000002, 27.54 27.48 C 28.5 27.9, 28.380000000000003 27.87, 29.46 28.32 C 30.66 28.8, 30.854999999999997 28.770000000000003, 31.86 29.28 C 32.67 29.82, 32.955000000000005 29.925, 33.480000000000004 30.36 C 33.72 30.689999999999998, 33.84 30.81, 33.96 31.02 C 33.96 31.11, 34.125 30.990000000000002, 33.96 31.200000000000003 C 33.629999999999995 31.53, 33.974999999999994 31.545, 33.3 31.86 C 32.28 32.16, 32.489999999999995 32.145, 31.259999999999998 32.46 C 29.82 32.79, 29.85 32.745, 28.380000000000003 33.12 C 26.880000000000003 33.54, 26.820000000000004 33.405, 25.380000000000003 33.96 C 24 34.65, 23.67 34.515, 22.62 35.339999999999996 C 21.9 36.3, 21.54 36.089999999999996, 21.18 37.26 C 21.18 38.64, 21.18 38.91, 21.18 40.019999999999996 C 21.18 40.86, 21.18 41.25, 21.18 41.7 C 21.18 41.760000000000005, 21.24 41.730000000000004, 21.18 41.82 L 20.94 42.06" fill="none" stroke="black" stroke-width="2"></path></svg>