<svg xmlns="http://www.w3.org/2000/svg" viewBox="13.760000228881836 3.440000057220459 20.600000381469727 42.74000024795532" width="20.600000381469727" height="42.74000024795532"><path d="M 15.24 4.800000000000001 C 15.18 6, 15.240000000000002 5.084999999999999, 15.120000000000001 7.199999999999999 C 14.940000000000001 10.23, 14.82 10.605, 14.76 13.26 C 14.82 15.54, 14.729999999999999 16.23, 14.879999999999999 17.82 C 15.12 18.72, 15.029999999999998 18.48, 15.36 19.62 C 15.780000000000001 21, 15.855000000000002 21.585, 16.200000000000003 22.38 C 16.470000000000002 22.589999999999996, 14.970000000000002 22.634999999999998, 16.740000000000002 22.799999999999997 C 20.01 22.919999999999998, 20.700000000000003 22.979999999999997, 23.28 23.04 C 25.17 23.04, 25.5 23.04, 27.06 23.04 C 28.29 23.04, 28.439999999999998 23.1, 29.52 23.04 C 30.450000000000003 22.919999999999998, 30.69 22.889999999999997, 31.380000000000003 22.799999999999997 C 31.830000000000002 22.74, 31.980000000000004 22.71, 32.28 22.68 C 32.43 22.68, 32.46 22.71, 32.58 22.68 C 32.67 22.619999999999997, 32.565 22.755, 32.76 22.56 C 33.06 22.229999999999997, 33.21 22.65, 33.36 21.9 C 33.36 20.729999999999997, 33.36 20.849999999999998, 33.36 19.56 C 33.36 18.15, 33.36 18.36, 33.36 16.740000000000002 C 33.36 14.910000000000002, 33.36 15.075000000000003, 33.36 13.080000000000002 C 33.36 10.920000000000002, 33.36 10.395, 33.36 8.76 C 33.36 7.65, 33.36 7.1850000000000005, 33.36 6.540000000000001 C 33.36 6.36, 33.36 6.27, 33.36 6.18 L 33.36 6.18" fill="none" stroke="black" stroke-width="2"></path><path d="M 21.18 4.4399999999999995 C 21.18 5.46, 21.18 4.965, 21.18 6.48 C 21.18 8.49, 21.18 8.925, 21.18 10.5 C 21.18 11.64, 21.09 11.535, 21.18 12.78 C 21.36 14.129999999999999, 21.45 14.4, 21.54 15.48 C 21.54 16.29, 21.54 16.5, 21.54 17.1 C 21.54 17.490000000000002, 21.54 17.655, 21.54 17.88 L 21.54 18" fill="none" stroke="black" stroke-width="2"></path><path d="M 28.56 4.5600000000000005 C 28.47 5.88, 28.470000000000002 5.789999999999999, 28.380000000000003 7.199999999999999 C 28.290000000000003 8.7, 28.245000000000005 8.684999999999999, 28.200000000000003 10.2 C 28.200000000000003 11.73, 28.200000000000003 11.91, 28.200000000000003 13.26 C 28.200000000000003 14.43, 28.290000000000006 14.49, 28.200000000000003 15.600000000000001 C 28.02 16.650000000000002, 27.93 17.175000000000004, 27.839999999999996 17.700000000000003 L 27.839999999999996 17.700000000000003" fill="none" stroke="black" stroke-width="2"></path><path d="M 23.34 22.62 C 23.490000000000002 22.740000000000002, 23.565 22.29, 23.64 22.86 C 23.64 23.880000000000003, 23.67 23.925000000000004, 23.64 24.900000000000002 C 23.58 25.83, 23.82 25.665, 23.52 26.759999999999998 C 22.98 28.02, 23.025000000000002 28.275, 22.44 29.28 C 21.810000000000002 30.03, 22.215 29.970000000000002, 21.18 30.78 C 19.74 31.65, 19.47 31.874999999999996, 18.299999999999997 32.519999999999996 C 17.4 32.94, 16.98 33.12, 16.5 33.36 L 16.38 33.480000000000004" fill="none" stroke="black" stroke-width="2"></path><path d="M 27.900000000000002 28.619999999999997 C 27.96 29.28, 27.945 29.04, 28.02 29.94 C 28.11 31.08, 28.125000000000004 31.05, 28.200000000000003 32.22 C 28.26 33.42, 28.53 33.165, 28.32 34.62 C 27.84 36.33, 28.38 36.285, 27.36 38.04 C 25.8 39.84, 25.845000000000002 40.185, 24.240000000000002 41.64 C 22.590000000000003 42.75, 22.425000000000004 43.019999999999996, 20.94 43.86 C 19.619999999999997 44.43, 19.124999999999996 44.67, 18.299999999999997 45 L 17.64 45.18" fill="none" stroke="black" stroke-width="2"></path></svg>