<svg xmlns="http://www.w3.org/2000/svg" viewBox="9.303299903869629 0.6200000047683716 23.43669891357422 44.120001673698425" width="23.43669891357422" height="44.120001673698425"><path d="M 14.76 1.62 C 14.04 2.61, 14.145 1.5899999999999999, 13.32 3.5999999999999996 C 12.39 6.63, 12.149999999999999 7.050000000000001, 11.459999999999999 9.66 C 11.01 11.85, 10.845 12.075, 10.56 14.04 C 10.440000000000001 15.78, 10.245000000000001 16.215, 10.32 17.52 C 10.59 18.39, 10.469999999999999 18.659999999999997, 10.86 19.259999999999998 C 11.37 19.589999999999996, 11.009999999999998 19.499999999999996, 11.879999999999999 19.919999999999998 C 13.11 20.43, 12.765 20.55, 14.34 20.94 C 16.259999999999998 21.21, 16.994999999999997 21.345, 18.18 21.48 C 18.630000000000003 21.48, 18.615000000000002 22.02, 19.080000000000002 21.48 C 19.560000000000002 20.4, 19.8 20.43, 20.04 19.32 C 20.04 18.18, 20.04 18.345, 20.04 17.04 C 20.04 15.57, 19.994999999999997 14.955000000000002, 20.04 14.100000000000001 C 20.13 13.860000000000001, 20.174999999999997 13.740000000000002, 20.22 13.620000000000001 C 20.22 13.620000000000001, 20.189999999999998 13.530000000000001, 20.22 13.620000000000001 C 20.28 13.8, 20.369999999999997 13.245000000000001, 20.34 13.98 C 20.22 15.27, 20.16 15.375, 20.1 16.56 C 20.1 17.64, 19.755000000000003 17.759999999999998, 20.1 18.72 C 20.79 19.56, 20.355 19.784999999999997, 21.48 20.4 C 23.04 20.79, 23.13 20.985, 24.599999999999998 21.18 C 25.979999999999997 21.18, 26.4 21.18, 27.36 21.18 C 27.9 21.18, 28.020000000000003 21.285, 28.44 21.18 C 28.740000000000002 20.97, 28.724999999999998 21.089999999999996, 29.04 20.759999999999998 C 29.37 20.31, 29.355000000000004 20.369999999999997, 29.700000000000003 19.86 C 30.060000000000002 19.29, 30.165000000000003 19.59, 30.42 18.72 C 30.57 17.549999999999997, 30.509999999999998 18.375, 30.72 16.38 C 30.99 13.559999999999999, 31.064999999999998 13.215, 31.259999999999998 10.74 C 31.38 8.61, 31.38 8.16, 31.5 6.48 C 31.62 5.25, 31.68 4.635000000000001, 31.740000000000002 4.0200000000000005 C 31.740000000000002 4.0200000000000005, 31.740000000000002 4.0200000000000005, 31.740000000000002 4.0200000000000005 L 31.740000000000002 4.0200000000000005" fill="none" stroke="black" stroke-width="2"></path><path d="M 26.759999999999998 2.88 C 26.25 3.9, 26.160000000000004 3.5250000000000004, 25.740000000000002 4.92 C 25.41 6.6899999999999995, 25.32 6.719999999999999, 25.08 8.459999999999999 C 24.93 10.169999999999998, 24.855 10.29, 24.78 11.879999999999999 C 24.78 13.35, 24.825000000000003 13.86, 24.78 14.82 C 24.689999999999998 15.27, 24.659999999999997 15.450000000000001, 24.599999999999998 15.72 L 24.54 15.899999999999999" fill="none" stroke="black" stroke-width="2"></path><path d="M 17.759999999999998 3.7199999999999998 C 17.4 5.1899999999999995, 17.34 5.31, 17.04 6.66 C 16.799999999999997 7.890000000000001, 16.724999999999998 7.800000000000001, 16.56 9.120000000000001 C 16.47 10.530000000000001, 16.47 10.8, 16.38 11.94 C 16.29 12.809999999999999, 16.245 12.945, 16.200000000000003 13.68 C 16.200000000000003 14.28, 16.215000000000003 14.504999999999999, 16.200000000000003 14.879999999999999 L 16.14 15.18" fill="none" stroke="black" stroke-width="2"></path><path d="M 20.16 18.9 C 19.92 19.259999999999998, 19.89 19.05, 19.68 19.62 C 19.5 20.4, 19.41 20.295, 19.32 21.18 C 19.32 22.17, 18.990000000000002 21.884999999999998, 19.32 23.16 C 19.98 24.72, 19.95 25.005000000000003, 20.64 26.28 C 21.36 27.27, 21.315 27.39, 22.080000000000002 28.259999999999998 C 22.89 29.009999999999998, 22.515000000000004 29.189999999999998, 23.700000000000003 29.759999999999998 C 25.26 30.15, 25.515 30.24, 26.82 30.54 C 27.87 30.75, 28.155 30.765, 28.92 30.96 C 29.400000000000002 31.14, 29.64 31.23, 29.880000000000003 31.32 C 29.880000000000003 31.32, 29.880000000000003 31.32, 29.880000000000003 31.32 C 29.880000000000003 31.32, 29.865000000000002 31.275, 29.880000000000003 31.32 C 29.910000000000004 31.41, 30.240000000000002 31.29, 29.94 31.5 C 29.310000000000002 31.830000000000002, 29.235 31.935000000000002, 28.68 32.160000000000004 C 28.2 32.28, 28.32 32.26500000000001, 27.72 32.400000000000006 C 27 32.550000000000004, 27.42 32.580000000000005, 26.28 32.7 C 24.72 32.790000000000006, 24.84 32.67, 23.16 32.88 C 21.36 33.21, 20.88 33.135, 19.56 33.54 C 18.72 34.019999999999996, 18.555 33.99, 17.88 34.5 C 17.369999999999997 35.04, 17.52 34.485, 16.86 35.58 C 16.05 37.230000000000004, 15.809999999999999 37.32, 15.24 38.88 C 14.91 40.35, 14.835 40.605000000000004, 14.580000000000002 41.82 C 14.400000000000002 42.78, 14.31 43.260000000000005, 14.22 43.74 C 14.22 43.74, 14.22 43.74, 14.22 43.74 L 14.22 43.74" fill="none" stroke="black" stroke-width="2"></path><path d="M 11.28 27.599999999999998 C 12.719999999999999 28.799999999999997, 12.9 28.875, 14.16 30 C 15.24 31.049999999999997, 15.420000000000002 31.109999999999992, 16.32 32.099999999999994 C 17.04 33.03, 17.235 33.285, 17.759999999999998 33.96 C 18.089999999999996 34.379999999999995, 18.255 34.589999999999996, 18.419999999999998 34.8 L 18.419999999999998 34.8" fill="none" stroke="black" stroke-width="2"></path></svg>