<svg xmlns="http://www.w3.org/2000/svg" viewBox="8.666666984558105 0.3200000524520874 25.27333164215088 46.33402979373932" width="25.27333164215088" height="46.33402979373932"><path d="M 12.299999999999999 27.42 C 12.21 27.6, 12.165000000000001 27.69, 12.120000000000001 27.78 C 12.120000000000001 27.78, 12.270000000000001 27.795, 12.120000000000001 27.78 C 11.82 27.75, 11.865 28.619999999999997, 11.52 27.72 C 11.129999999999999 25.95, 11.085 26.025, 10.74 24.18 C 10.440000000000001 22.259999999999998, 10.350000000000001 22.125, 10.14 20.34 C 10.02 18.689999999999998, 10.004999999999999 18.66, 9.899999999999999 17.04 C 9.809999999999999 15.45, 9.765 15.315, 9.72 13.86 C 9.72 12.54, 9.600000000000001 12.375, 9.72 11.22 C 9.96 10.23, 9.84 10.275, 10.2 9.24 C 10.68 8.16, 10.59 8.115, 11.16 7.08 C 11.82 6.09, 11.790000000000001 5.85, 12.48 5.1 C 13.2 4.59, 13.29 4.35, 13.919999999999998 4.08 C 14.459999999999999 4.050000000000001, 14.37 3.9450000000000003, 15 4.0200000000000005 C 15.72 4.2, 15.780000000000001 3.9299999999999997, 16.44 4.38 C 17.04 5.1, 17.130000000000003 4.95, 17.64 5.82 C 18.060000000000002 6.84, 18.075000000000003 6.075, 18.48 7.86 C 18.869999999999997 10.41, 19.049999999999997 10.830000000000002, 19.259999999999998 12.96 C 19.29 14.67, 19.305 15.134999999999998, 19.32 16.38 C 19.32 17.16, 19.32 17.34, 19.32 17.94 C 19.32 18.36, 19.32 18.540000000000003, 19.32 18.78 C 19.32 18.84, 19.32 18.869999999999997, 19.32 18.9 C 19.32 18.9, 19.32 18.9, 19.32 18.9 C 19.32 18.9, 19.17 18.93, 19.32 18.9 C 19.619999999999997 18.84, 19.334999999999997 18.96, 19.919999999999998 18.78 C 20.79 18.48, 20.625 18.39, 21.66 18.18 C 22.86 18.060000000000002, 23.115 18.045, 24.06 17.94 C 24.75 17.85, 24.555 17.805, 25.44 17.759999999999998 C 26.52 17.759999999999998, 26.654999999999998 17.759999999999998, 27.599999999999998 17.759999999999998 C 28.409999999999997 17.759999999999998, 28.514999999999997 17.625, 29.22 17.759999999999998 C 29.82 18.029999999999998, 29.955000000000002 17.999999999999996, 30.42 18.299999999999997 C 30.75 18.63, 30.72 18.465, 31.08 18.96 C 31.47 19.62, 31.634999999999998 19.575000000000003, 31.86 20.28 C 31.92 21.03, 31.95 21.135, 31.98 21.78 C 31.98 22.32, 31.98 22.365000000000002, 31.98 22.86 C 31.98 23.31, 31.98 23.22, 31.98 23.759999999999998 C 31.98 24.39, 31.98 24.705, 31.98 25.02 L 31.98 25.02" fill="none" stroke="black" stroke-width="2"></path><path d="M 23.34 17.82 C 23.490000000000002 16.71, 23.52 17.580000000000002, 23.64 15.600000000000001 C 23.73 12.75, 23.595 12.629999999999999, 23.82 9.899999999999999 C 24.18 7.289999999999999, 24.314999999999998 6.629999999999999, 24.54 4.68 C 24.63 3.3899999999999997, 24.674999999999997 2.9399999999999995, 24.72 2.0999999999999996 C 24.72 1.71, 24.72 1.515, 24.72 1.32 L 24.72 1.32" fill="none" stroke="black" stroke-width="2"></path><path d="M 28.92 17.46 C 28.92 17.46, 28.830000000000002 17.46, 28.92 17.46 C 29.1 17.46, 29.19 18.435000000000002, 29.28 17.46 C 29.28 15.51, 29.235 15.93, 29.28 13.559999999999999 C 29.37 10.77, 29.295 10.245000000000001, 29.46 7.98 C 29.700000000000003 6.24, 29.790000000000003 5.4, 29.94 4.5 C 30 4.4399999999999995, 30.03 4.41, 30.06 4.38 C 30.06 4.38, 30.044999999999998 4.545, 30.06 4.38 C 30.089999999999996 4.05, 30.104999999999997 4.005, 30.119999999999997 3.7199999999999998 L 30.119999999999997 3.24" fill="none" stroke="black" stroke-width="2"></path><path d="M 19.56 19.080000000000002 C 19.56 21.54, 19.604999999999997 21.66, 19.56 24 C 19.47 26.22, 19.424999999999997 26.55, 19.38 28.44 C 19.38 30, 19.38 29.849999999999998, 19.38 31.56 C 19.38 33.42, 19.38 33.660000000000004, 19.38 35.28 C 19.38 36.66, 19.38 36.9, 19.38 38.04 C 19.38 38.94, 19.335 39.015, 19.38 39.839999999999996 C 19.47 40.589999999999996, 19.47 40.455, 19.56 41.339999999999996 C 19.65 42.36, 19.680000000000003 42.555, 19.740000000000002 43.38 C 19.77 44.010000000000005, 19.74 44.205, 19.799999999999997 44.64 C 19.89 44.879999999999995, 19.845 44.925, 19.98 45.12 C 20.16 45.269999999999996, 20.16 45.300000000000004, 20.34 45.42 C 20.520000000000003 45.51, 20.610000000000003 45.55499999999999, 20.700000000000003 45.599999999999994 C 20.700000000000003 45.599999999999994, 20.610000000000003 45.629999999999995, 20.700000000000003 45.599999999999994 C 20.880000000000003 45.54, 20.775 45.825, 21.06 45.480000000000004 C 21.45 44.85, 21.54 44.775, 21.84 44.22 C 22.049999999999997 43.739999999999995, 22.034999999999997 43.845, 22.259999999999998 43.26 C 22.5 42.57, 22.515 42.525000000000006, 22.740000000000002 41.88 C 22.950000000000003 41.28, 22.935000000000002 41.43, 23.16 40.68 C 23.4 39.78, 23.415 39.6, 23.64 38.88 C 23.85 38.34, 23.669999999999998 38.565, 24.06 37.8 C 24.630000000000003 36.81, 24.660000000000004 36.495000000000005, 25.200000000000003 35.82 C 25.71 35.459999999999994, 25.604999999999997 35.41499999999999, 26.22 35.099999999999994 C 26.94 34.83, 26.715000000000003 34.695, 27.660000000000004 34.56 C 28.830000000000002 34.56, 29.22 34.545, 30 34.56 C 30.39 34.59, 30.21 34.455, 30.78 34.62 C 31.53 34.92, 31.740000000000002 34.964999999999996, 32.28 35.22 C 32.61 35.43, 32.775 35.535, 32.94 35.64 L 32.94 35.64" fill="none" stroke="black" stroke-width="2"></path></svg>