<svg xmlns="http://www.w3.org/2000/svg" viewBox="11.813333511352539 1.2799999713897705 17.566665649414062 44.06000018119812" width="17.566665649414062" height="44.06000018119812"><path d="M 13.799999999999999 27.06 C 13.71 26.58, 13.8 26.624999999999996, 13.620000000000001 26.099999999999998 C 13.350000000000001 25.53, 13.275000000000002 25.56, 13.080000000000002 24.96 C 12.96 24.330000000000002, 12.9 24.315000000000005, 12.84 23.700000000000003 C 12.84 23.1, 12.84 23.085, 12.84 22.5 C 12.84 21.93, 12.78 21.884999999999998, 12.84 21.36 C 12.96 20.88, 12.855000000000002 20.924999999999997, 13.080000000000002 20.4 C 13.41 19.83, 13.425 19.784999999999997, 13.74 19.259999999999998 C 14.04 18.779999999999998, 14.1 18.629999999999995, 14.34 18.299999999999997 C 14.52 18.119999999999997, 14.445 18.135, 14.700000000000001 17.94 C 15.030000000000001 17.73, 14.85 17.7, 15.36 17.52 C 16.05 17.369999999999997, 15.915000000000003 17.294999999999998, 16.740000000000002 17.22 C 17.700000000000003 17.22, 17.520000000000003 17.22, 18.66 17.22 C 19.979999999999997 17.22, 20.159999999999997 17.22, 21.299999999999997 17.22 C 22.259999999999998 17.22, 22.244999999999997 17.22, 23.22 17.22 C 24.21 17.22, 24.330000000000002 17.174999999999997, 25.200000000000003 17.22 C 25.950000000000003 17.31, 26.175000000000004 17.354999999999997, 26.700000000000003 17.4 C 27 17.4, 27.075 17.4, 27.299999999999997 17.4 C 27.449999999999996 17.4, 27.33 17.4, 27.599999999999998 17.4 C 27.990000000000002 17.4, 28.185000000000002 17.4, 28.380000000000003 17.4 L 28.380000000000003 17.4" fill="none" stroke="black" stroke-width="2"></path><path d="M 18.96 16.68 C 18.96 14.219999999999999, 19.020000000000003 14.594999999999999, 18.96 11.76 C 18.84 8.55, 18.78 7.32, 18.72 5.34 C 18.72 4.59, 18.689999999999998 4.56, 18.72 3.84 C 18.78 3.15, 18.795 2.8499999999999996, 18.84 2.46 C 18.869999999999997 2.37, 18.884999999999998 2.325, 18.9 2.2800000000000002 L 18.9 2.2800000000000002" fill="none" stroke="black" stroke-width="2"></path><path d="M 24.06 16.919999999999998 C 24.15 16.29, 24.21 17.175, 24.240000000000002 15.66 C 24.21 13.26, 24.240000000000002 13.125, 24.18 10.86 C 24.09 8.73, 24.045 8.190000000000001, 24 6.6000000000000005 C 24 5.550000000000001, 24 5.1000000000000005, 24 4.5 C 24 4.35, 24 4.35, 24 4.199999999999999 C 24 4.05, 24 3.975, 24 3.9000000000000004 C 24 3.9000000000000004, 24 3.9000000000000004, 24 3.9000000000000004 L 24 3.9000000000000004" fill="none" stroke="black" stroke-width="2"></path><path d="M 19.200000000000003 16.86 C 19.080000000000002 17.16, 19.020000000000003 17.01, 18.96 17.46 C 18.96 18.060000000000002, 18.96 17.685000000000002, 18.96 18.66 C 18.96 20.009999999999998, 18.96 19.995, 18.96 21.36 C 18.96 22.74, 18.96 22.724999999999998, 18.96 24.119999999999997 C 18.96 25.53, 18.96 25.755000000000003, 18.96 26.94 C 18.96 27.9, 18.96 27.675, 18.96 28.86 C 18.96 30.27, 19.05 30.18, 18.96 31.68 C 18.78 33.269999999999996, 18.69 33.57, 18.6 34.86 C 18.6 35.849999999999994, 18.6 35.97, 18.6 36.839999999999996 C 18.6 37.589999999999996, 18.645000000000003 37.379999999999995, 18.6 38.339999999999996 C 18.509999999999998 39.51, 18.509999999999998 39.599999999999994, 18.419999999999998 40.68 C 18.33 41.67, 18.315 41.895, 18.240000000000002 42.660000000000004 C 18.18 43.2, 18.150000000000002 43.47, 18.12 43.74 C 18.12 43.74, 18.150000000000002 43.695, 18.12 43.74 L 18 43.92" fill="none" stroke="black" stroke-width="2"></path><path d="M 24.119999999999997 17.88 C 24.119999999999997 18.36, 24.119999999999997 18.21, 24.119999999999997 18.84 C 24.119999999999997 19.619999999999997, 24.119999999999997 19.395, 24.119999999999997 20.4 C 24.119999999999997 21.63, 24.119999999999997 21.645, 24.119999999999997 22.86 C 24.119999999999997 24.06, 24.119999999999997 23.684999999999995, 24.119999999999997 25.259999999999998 C 24.119999999999997 27.21, 24.119999999999997 27.480000000000004, 24.119999999999997 29.160000000000004 C 24.119999999999997 30.57, 24.119999999999997 30.375, 24.119999999999997 31.98 C 24.119999999999997 33.78, 24.164999999999996 33.9, 24.119999999999997 35.58 C 24.03 37.14, 23.985 37.485, 23.94 38.7 C 23.94 39.57, 23.94 39.885, 23.94 40.44 C 23.94 40.68, 23.94 40.53, 23.94 40.92 C 23.94 41.46, 23.94 41.535, 23.94 42 C 23.94 42.39, 23.895000000000003 42.39, 23.94 42.78 C 24.03 43.17, 24.075 43.32, 24.119999999999997 43.56 C 24.119999999999997 43.650000000000006, 24.119999999999997 43.545, 24.119999999999997 43.74 L 24.119999999999997 44.339999999999996" fill="none" stroke="black" stroke-width="2"></path></svg>