<svg xmlns="http://www.w3.org/2000/svg" viewBox="9.319999694824219 6.199999809265137 16.940000534057617 39.97350025177002" width="16.940000534057617" height="39.97350025177002"><path d="M 14.399999999999999 45 C 14.399999999999999 44.879999999999995, 14.669999999999998 45.599999999999994, 14.399999999999999 44.76 C 13.86 43.2, 13.785 43.17, 13.32 41.64 C 12.93 40.14, 12.899999999999999 40.08, 12.54 38.64 C 12.209999999999999 37.260000000000005, 12.194999999999999 37.35, 11.879999999999999 35.88 C 11.579999999999998 34.32, 11.549999999999999 34.29, 11.28 32.76 C 11.04 31.259999999999998, 10.98 31.095, 10.8 29.759999999999998 C 10.68 28.59, 10.665000000000001 28.650000000000002, 10.56 27.42 C 10.469999999999999 26.13, 10.424999999999999 25.784999999999997, 10.379999999999999 24.839999999999996 C 10.379999999999999 24.24, 10.379999999999999 24.27, 10.379999999999999 23.64 C 10.379999999999999 22.98, 10.245 23.01, 10.379999999999999 22.32 C 10.649999999999999 21.6, 10.62 21.465, 10.92 20.88 C 11.25 20.43, 11.265 20.25, 11.58 19.98 C 11.879999999999999 19.89, 11.415 19.889999999999997, 12.18 19.799999999999997 C 13.41 19.71, 13.38 19.695, 14.64 19.62 C 15.93 19.560000000000002, 16.185 19.545, 17.22 19.5 C 18 19.47, 17.79 19.455000000000002, 18.78 19.44 C 19.98 19.44, 20.34 19.380000000000003, 21.18 19.44 C 21.66 19.560000000000002, 21.6 19.335, 22.14 19.68 C 22.740000000000002 20.25, 22.875 20.1, 23.34 20.82 C 23.67 21.689999999999998, 23.625 21.555, 24 22.56 C 24.419999999999998 23.699999999999996, 24.539999999999996 23.774999999999995, 24.839999999999996 24.839999999999996 C 25.02 25.83, 25.11 25.965, 25.200000000000003 26.82 C 25.200000000000003 27.54, 25.335 27.689999999999998, 25.200000000000003 28.259999999999998 C 24.930000000000003 28.68, 25.245000000000005 28.739999999999995, 24.660000000000004 29.099999999999998 C 23.76 29.4, 23.625 29.55, 22.86 29.700000000000003 C 22.23 29.700000000000003, 22.080000000000002 29.790000000000006, 21.6 29.700000000000003 C 21.270000000000003 29.52, 21.375 29.729999999999997, 20.94 29.339999999999996 C 20.4 28.74, 20.28 28.89, 19.86 28.14 C 19.56 27.24, 19.455 27.209999999999994, 19.259999999999998 26.339999999999996 C 19.17 25.5, 19.14 25.500000000000004, 19.080000000000002 24.660000000000004 C 19.05 23.82, 19.035 23.85, 19.02 22.98 C 19.02 22.08, 19.02 21.884999999999998, 19.02 21.18 C 19.02 20.67, 19.02 20.565, 19.02 20.16 C 19.02 19.86, 19.02 19.71, 19.02 19.56 C 19.02 19.56, 19.02 19.56, 19.02 19.56 C 19.02 19.56, 19.02 19.56, 19.02 19.56 C 19.02 19.56, 19.02 19.56, 19.02 19.56 L 19.02 19.56" fill="none" stroke="black" stroke-width="2"></path><path d="M 13.799999999999999 18.18 C 13.59 15.989999999999998, 13.485 15.674999999999999, 13.379999999999999 13.799999999999999 C 13.379999999999999 12.239999999999998, 13.379999999999999 12.254999999999999, 13.379999999999999 10.68 C 13.379999999999999 9.09, 13.379999999999999 8.370000000000001, 13.379999999999999 7.5 C 13.379999999999999 7.35, 13.379999999999999 7.2749999999999995, 13.379999999999999 7.199999999999999 L 13.379999999999999 7.199999999999999" fill="none" stroke="black" stroke-width="2"></path><path d="M 18.9 19.080000000000002 C 18.75 16.950000000000003, 18.675 16.8, 18.6 14.82 C 18.6 12.99, 18.645000000000003 12.885, 18.6 11.16 C 18.509999999999998 9.54, 18.465 8.85, 18.419999999999998 7.92 C 18.419999999999998 7.68, 18.419999999999998 7.56, 18.419999999999998 7.4399999999999995 L 18.419999999999998 7.4399999999999995" fill="none" stroke="black" stroke-width="2"></path></svg>