<svg xmlns="http://www.w3.org/2000/svg" viewBox="10.760000228881836 2.7200000286102295 24.100000381469727 40.820000886917114" width="24.100000381469727" height="40.820000886917114"><path d="M 15.18 21.299999999999997 C 16.71 21.299999999999997, 16.485 21.299999999999997, 18.240000000000002 21.299999999999997 C 20.220000000000002 21.299999999999997, 20.415000000000003 21.239999999999995, 22.200000000000003 21.299999999999997 C 23.790000000000003 21.419999999999998, 23.985000000000003 21.479999999999997, 25.380000000000003 21.54 C 26.580000000000002 21.54, 26.790000000000003 21.54, 27.78 21.54 C 28.56 21.54, 28.679999999999996 21.54, 29.339999999999996 21.54 C 29.88 21.54, 29.880000000000003 21.555, 30.42 21.54 C 30.96 21.509999999999998, 30.96 21.75, 31.5 21.48 C 32.04 20.97, 32.099999999999994 21.135, 32.58 20.46 C 33 19.62, 33.105000000000004 19.815, 33.42 18.78 C 33.629999999999995 17.55, 33.735 17.79, 33.839999999999996 16.32 C 33.839999999999996 14.61, 33.839999999999996 14.849999999999998, 33.839999999999996 12.899999999999999 C 33.839999999999996 10.709999999999999, 33.88499999999999 9.989999999999998, 33.839999999999996 8.52 C 33.75 7.77, 33.75 7.904999999999999, 33.660000000000004 7.02 C 33.57000000000001 6, 33.57000000000001 5.7299999999999995, 33.480000000000004 4.9799999999999995 C 33.39 4.5, 33.345 4.335000000000001, 33.3 4.0200000000000005 C 33.3 3.87, 33.3 3.795, 33.3 3.7199999999999998 L 33.3 3.7199999999999998" fill="none" stroke="black" stroke-width="2"></path><path d="M 27.42 4.0200000000000005 C 27.42 5.790000000000001, 27.42 5.925000000000001, 27.42 7.5600000000000005 C 27.42 9.06, 27.465000000000003 9.06, 27.42 10.56 C 27.330000000000002 12.059999999999999, 27.285000000000004 12.614999999999998, 27.240000000000002 13.559999999999999 C 27.240000000000002 13.95, 27.240000000000002 14.145, 27.240000000000002 14.34 L 27.240000000000002 14.34" fill="none" stroke="black" stroke-width="2"></path><path d="M 18.9 4.26 C 19.05 4.5, 19.125 3.99, 19.200000000000003 4.74 C 19.200000000000003 6, 19.200000000000003 6.195, 19.200000000000003 7.26 C 19.200000000000003 8.129999999999999, 19.200000000000003 8.01, 19.200000000000003 9 C 19.200000000000003 10.11, 19.200000000000003 10.2, 19.200000000000003 11.22 C 19.200000000000003 12.150000000000002, 19.200000000000003 12.390000000000002, 19.200000000000003 13.080000000000002 C 19.200000000000003 13.530000000000001, 19.200000000000003 13.665000000000001, 19.200000000000003 13.98 C 19.200000000000003 14.16, 19.200000000000003 14.205, 19.200000000000003 14.34 L 19.200000000000003 14.52" fill="none" stroke="black" stroke-width="2"></path><path d="M 23.52 21.54 C 23.52 22.049999999999997, 23.55 21.945, 23.52 22.56 C 23.46 23.28, 23.49 23.28, 23.4 24 C 23.28 24.72, 23.384999999999998 24.555, 23.16 25.44 C 22.83 26.490000000000002, 22.83 26.595, 22.5 27.54 C 22.17 28.38, 22.185 28.365, 21.84 29.22 C 21.48 30.09, 21.465 30.045, 21.12 30.96 C 20.79 31.92, 20.745 32.145, 20.46 32.88 C 20.22 33.39, 20.37 33.19500000000001, 19.98 33.900000000000006 C 19.439999999999998 34.800000000000004, 19.515 34.815000000000005, 18.9 35.7 C 18.21 36.57, 18.15 36.675, 17.52 37.44 C 16.95 38.099999999999994, 17.009999999999998 38.114999999999995, 16.38 38.76 C 15.69 39.39, 15.645 39.449999999999996, 15 40.019999999999996 C 14.399999999999999 40.53, 14.399999999999999 40.56, 13.799999999999999 41.04 C 13.2 41.489999999999995, 13.065000000000001 41.595, 12.600000000000001 41.94 C 12.27 42.18, 12.105 42.3, 11.94 42.42 C 11.94 42.42, 11.985 42.39, 11.94 42.42 L 11.76 42.54" fill="none" stroke="black" stroke-width="2"></path><path d="M 17.34 37.14 C 17.82 37.14, 17.744999999999997 37.14, 18.299999999999997 37.14 C 18.93 37.14, 18.63 37.14, 19.56 37.14 C 20.79 37.14, 20.52 37.14, 22.02 37.14 C 23.79 37.14, 24.165 37.14, 25.56 37.14 C 26.58 37.14, 26.894999999999996 37.14, 27.599999999999998 37.14 C 27.990000000000002 37.14, 27.990000000000002 37.14, 28.380000000000003 37.14 C 28.770000000000003 37.14, 28.770000000000003 37.11, 29.160000000000004 37.14 C 29.550000000000004 37.2, 29.745 37.23, 29.94 37.26 L 29.94 37.26" fill="none" stroke="black" stroke-width="2"></path></svg>