<svg xmlns="http://www.w3.org/2000/svg" viewBox="8.140000343322754 3.9200000762939453 20.766666412353516 42.35333061218262" width="20.766666412353516" height="42.35333061218262"><path d="M 16.38 31.44 C 16.38 32.01, 16.335 31.049999999999997, 16.38 32.58 C 16.47 35.07, 16.409999999999997 35.7, 16.56 37.56 C 16.77 38.79, 16.815 38.91, 16.98 40.019999999999996 C 17.1 41.01, 17.25 41.085, 17.22 42 C 17.04 42.84, 17.294999999999998 42.96, 16.86 43.68 C 16.17 44.28, 16.11 44.565000000000005, 15.48 44.88 C 14.91 44.91, 15.24 44.925, 14.34 44.94 C 13.11 44.94, 12.825 45.69, 11.879999999999999 44.94 C 11.219999999999999 43.44, 11.055 43.995, 10.56 41.94 C 10.23 39.33, 10.169999999999998 38.79, 9.899999999999999 36.72 C 9.69 35.19, 9.66 35.475, 9.48 33.660000000000004 C 9.33 31.560000000000002, 9.254999999999999 31.245, 9.18 29.46 C 9.18 27.990000000000002, 9.18 27.72, 9.18 26.52 C 9.18 25.590000000000003, 9.09 25.620000000000005, 9.18 24.660000000000004 C 9.36 23.67, 9.405000000000001 23.4, 9.540000000000001 22.68 C 9.63 22.23, 9.585 22.245, 9.72 21.78 C 9.9 21.3, 9.57 21.48, 10.08 20.82 C 10.92 19.98, 11.1 19.68, 11.76 19.14 C 12.24 18.9, 12.165000000000001 18.884999999999998, 12.72 18.66 C 13.350000000000001 18.450000000000003, 13.095 18.39, 13.98 18.240000000000002 C 15.12 18.15, 15.269999999999998 18.165, 16.259999999999998 18.06 C 17.1 17.939999999999998, 17.325000000000003 17.88, 17.94 17.82 C 18.33 17.82, 18.494999999999997 17.82, 18.72 17.82 C 18.78 17.82, 18.735 17.82, 18.84 17.82 C 18.990000000000002 17.82, 18.915 17.655, 19.14 17.82 C 19.44 18.15, 19.515 17.985, 19.740000000000002 18.48 C 19.89 19.14, 19.814999999999998 18.629999999999995, 20.04 19.799999999999997 C 20.34 21.479999999999997, 20.490000000000002 21.81, 20.64 23.16 C 20.64 24.18, 20.64 24.51, 20.64 25.200000000000003 C 20.64 25.560000000000002, 20.64 25.830000000000002, 20.64 25.92 C 20.64 25.740000000000002, 20.55 26.475, 20.64 25.56 C 20.82 23.909999999999997, 20.73 23.669999999999998, 21 22.259999999999998 C 21.36 21.089999999999996, 21.314999999999998 20.955, 21.72 19.919999999999998 C 22.17 19.02, 22.26 18.630000000000003, 22.62 18.12 C 22.89 18, 22.53 18.03, 23.16 17.88 C 24.15 17.7, 24.345000000000002 17.61, 25.14 17.52 C 25.74 17.52, 25.919999999999995 17.52, 26.339999999999996 17.52 C 26.58 17.52, 26.58 17.4, 26.82 17.52 C 27.06 17.759999999999998, 27.029999999999998 17.4, 27.299999999999997 18 C 27.6 18.96, 27.75 18.419999999999998, 27.900000000000002 19.919999999999998 C 27.900000000000002 21.96, 27.900000000000002 21.285, 27.900000000000002 24 C 27.900000000000002 27.39, 27.915000000000003 27.48, 27.900000000000002 30.78 C 27.869999999999997 33.99, 27.854999999999997 34.650000000000006, 27.839999999999996 37.2 C 27.839999999999996 39.09, 27.839999999999996 39.645, 27.839999999999996 40.980000000000004 C 27.839999999999996 41.760000000000005, 27.839999999999996 41.955, 27.839999999999996 42.54 C 27.839999999999996 42.93, 27.839999999999996 43.125, 27.839999999999996 43.32 C 27.839999999999996 43.32, 27.839999999999996 43.32, 27.839999999999996 43.32 C 27.839999999999996 43.32, 27.839999999999996 43.32, 27.839999999999996 43.32 C 27.839999999999996 43.32, 27.839999999999996 43.29, 27.839999999999996 43.32 C 27.839999999999996 43.379999999999995, 27.839999999999996 43.364999999999995, 27.839999999999996 43.44 C 27.839999999999996 43.53, 27.839999999999996 43.53, 27.839999999999996 43.62 L 27.839999999999996 43.8" fill="none" stroke="black" stroke-width="2"></path><path d="M 15.24 17.88 C 15.24 17.16, 15.3 18.12, 15.24 16.44 C 15.120000000000001 13.8, 15.120000000000001 13.350000000000001, 15 11.16 C 14.879999999999999 9.42, 14.834999999999999 8.985, 14.76 7.68 C 14.73 6.81, 14.715 6.375, 14.700000000000001 5.9399999999999995 C 14.700000000000001 5.9399999999999995, 14.73 5.984999999999999, 14.700000000000001 5.9399999999999995 L 14.580000000000002 5.76" fill="none" stroke="black" stroke-width="2"></path><path d="M 24.36 17.700000000000003 C 24.45 17.700000000000003, 24.464999999999996 18.045, 24.54 17.700000000000003 C 24.6 17.01, 24.630000000000003 17.775000000000002, 24.660000000000004 16.32 C 24.660000000000004 14.1, 24.780000000000005 14.25, 24.660000000000004 11.879999999999999 C 24.42 9.36, 24.345 8.58, 24.18 6.84 C 24.09 5.88, 24.045 5.4, 24 4.92 L 24 4.92" fill="none" stroke="black" stroke-width="2"></path></svg>