<svg xmlns="http://www.w3.org/2000/svg" viewBox="12.140000343322754 3.9066667556762695 12.95333194732666 41.7933349609375" width="12.95333194732666" height="41.7933349609375"><path d="M 23.34 18.96 C 23.58 18.21, 23.64 18.630000000000003, 23.82 17.46 C 23.939999999999998 15.870000000000001, 24 15.66, 24.06 14.28 C 24.06 13.11, 24.134999999999998 12.945, 24.06 11.94 C 23.909999999999997 11.1, 24.014999999999997 11.115, 23.759999999999998 10.26 C 23.4 9.39, 23.445 9.344999999999999, 23.04 8.52 C 22.59 7.739999999999999, 22.62 7.634999999999999, 22.14 6.959999999999999 C 21.630000000000003 6.39, 21.555 6.255, 21.12 5.82 C 20.759999999999998 5.52, 20.775 5.415, 20.4 5.22 C 20.009999999999998 5.13, 20.04 5.085, 19.62 5.04 C 19.17 5.04, 19.2 4.74, 18.72 5.04 C 18.21 5.640000000000001, 18.195 5.55, 17.700000000000003 6.24 C 17.220000000000002 7.0200000000000005, 17.205000000000002 6.795000000000001, 16.740000000000002 7.800000000000001 C 16.29 9.030000000000001, 16.17 9.09, 15.84 10.26 C 15.629999999999999 11.370000000000001, 15.674999999999997 10.995, 15.419999999999998 12.48 C 15.12 14.340000000000002, 15.059999999999999 14.580000000000002, 14.82 16.200000000000003 C 14.64 17.580000000000002, 14.64 17.505000000000003, 14.46 18.96 C 14.280000000000001 20.490000000000002, 14.190000000000001 20.325, 14.100000000000001 22.02 C 14.100000000000001 23.880000000000003, 14.160000000000002 24.12, 14.100000000000001 25.740000000000002 C 13.98 27.12, 13.995000000000001 26.955, 13.86 28.5 C 13.709999999999999 30.21, 13.68 29.895000000000003, 13.559999999999999 31.92 C 13.469999999999999 34.26, 13.439999999999998 34.785, 13.379999999999999 36.599999999999994 C 13.35 37.89, 13.335 38.055, 13.32 39.18 C 13.32 40.14, 13.365 40.245, 13.32 41.099999999999994 C 13.23 41.849999999999994, 13.185 41.894999999999996, 13.14 42.599999999999994 C 13.14 43.26, 13.14 43.394999999999996, 13.14 43.92 C 13.14 44.31, 13.14 44.505, 13.14 44.7 C 13.14 44.7, 13.14 44.7, 13.14 44.7 C 13.14 44.7, 13.14 44.7, 13.14 44.7 C 13.14 44.7, 13.14 44.7, 13.14 44.7 C 13.14 44.7, 13.14 44.7, 13.14 44.7 L 13.14 44.7" fill="none" stroke="black" stroke-width="2"></path></svg>