<svg xmlns="http://www.w3.org/2000/svg" viewBox="7.1399993896484375 2.180000066757202 23.30666732788086 43.70000100135803" width="23.30666732788086" height="43.70000100135803"><path d="M 17.22 29.759999999999998 C 17.31 29.759999999999998, 17.354999999999997 30.33, 17.4 29.759999999999998 C 17.4 28.619999999999997, 17.669999999999998 28.845, 17.4 27.48 C 16.86 25.89, 16.785 25.74, 16.32 24.299999999999997 C 15.93 23.009999999999998, 15.899999999999999 22.86, 15.54 21.72 C 15.209999999999999 20.73, 15.209999999999999 20.55, 14.879999999999999 19.740000000000002 C 14.55 19.11, 14.535 19.035, 14.22 18.48 C 13.920000000000002 18, 13.935 17.85, 13.620000000000001 17.52 C 13.290000000000001 17.34, 13.365000000000002 17.28, 12.96 17.16 C 12.48 17.1, 12.48 16.875, 12 17.04 C 11.52 17.43, 11.55 17.295, 11.040000000000001 17.82 C 10.5 18.48, 10.454999999999998 18.285, 9.959999999999999 19.14 C 9.51 20.19, 9.42 20.07, 9.06 21.240000000000002 C 8.79 22.53, 8.745 22.68, 8.52 23.82 C 8.34 24.81, 8.25 24.525, 8.16 25.799999999999997 C 8.16 27.36, 8.115 27.435000000000002, 8.16 28.92 C 8.25 30.330000000000002, 8.16 30.6, 8.34 31.740000000000002 C 8.61 32.61, 8.52 32.67, 8.879999999999999 33.480000000000004 C 9.329999999999998 34.230000000000004, 9.389999999999999 34.425000000000004, 9.78 34.980000000000004 C 10.11 35.34, 10.094999999999999 35.370000000000005, 10.44 35.7 C 10.8 36, 10.56 36.089999999999996, 11.16 36.3 C 12 36.42, 11.67 36.495, 12.84 36.54 C 14.34 36.510000000000005, 14.52 36.55500000000001, 15.84 36.480000000000004 C 16.98 36.36, 16.935000000000002 36.39, 18.12 36.24 C 19.35 36.06, 19.365000000000002 36.045, 20.580000000000002 35.88 C 21.78 35.730000000000004, 21.66 35.715, 22.98 35.58 C 24.42 35.459999999999994, 24.93 35.4, 25.86 35.339999999999996 C 26.28 35.339999999999996, 26.295 35.279999999999994, 26.700000000000003 35.339999999999996 C 27.090000000000003 35.459999999999994, 27.12 35.25, 27.48 35.58 C 27.810000000000002 36.120000000000005, 27.855 36.06, 28.14 36.660000000000004 C 28.38 37.32000000000001, 28.5 37.2, 28.619999999999997 37.980000000000004 C 28.619999999999997 38.88, 28.619999999999997 39.03, 28.619999999999997 39.78 C 28.619999999999997 40.38, 28.814999999999998 40.30500000000001, 28.619999999999997 40.980000000000004 C 28.229999999999997 41.730000000000004, 28.409999999999997 41.760000000000005, 27.839999999999996 42.480000000000004 C 27.089999999999996 43.17, 27.149999999999995 43.305, 26.339999999999996 43.86 C 25.47 44.28, 25.86 44.475, 24.599999999999998 44.7 C 22.949999999999996 44.730000000000004, 22.634999999999998 44.714999999999996, 21.299999999999997 44.76 C 20.279999999999998 44.82, 19.994999999999997 44.85, 19.259999999999998 44.88 C 18.81 44.88, 18.645 44.88, 18.36 44.88 C 18.240000000000002 44.88, 18.18 44.88, 18.12 44.88 L 18.12 44.88" fill="none" stroke="black" stroke-width="2"></path><path d="M 23.04 35.76 C 23.64 35.67, 23.235000000000003 35.985, 24.240000000000002 35.58 C 25.65 34.86, 26.085 34.755, 27.06 34.14 C 27.6 33.629999999999995, 27.615 33.974999999999994, 28.14 33.12 C 28.650000000000002 31.919999999999998, 28.905 32.97, 29.160000000000004 30.72 C 29.160000000000004 27.419999999999998, 29.805000000000007 28.334999999999997, 29.160000000000004 24.119999999999997 C 27.87 18.99, 27.509999999999998 17.384999999999998, 26.58 13.86 C 26.009999999999998 11.94, 25.995 11.67, 25.44 10.02 C 24.9 8.64, 24.84 8.445, 24.36 7.26 C 23.939999999999998 6.27, 23.865 6.0600000000000005, 23.52 5.28 C 23.25 4.71, 23.28 4.665, 22.98 4.14 C 22.65 3.66, 22.485 3.42, 22.32 3.18 C 22.32 3.18, 22.32 3.18, 22.32 3.18 L 22.32 3.18" fill="none" stroke="black" stroke-width="2"></path></svg>