<svg xmlns="http://www.w3.org/2000/svg" viewBox="9.986666679382324 6.046666622161865 21.41333293914795 38.93333292007446" width="21.41333293914795" height="38.93333292007446"><path d="M 19.44 17.16 C 19.44 16.05, 19.44 16.245, 19.44 14.940000000000001 C 19.44 13.440000000000001, 19.71 13.455, 19.44 11.94 C 18.9 10.41, 18.915 9.93, 18.36 8.879999999999999 C 17.79 8.309999999999999, 17.729999999999997 8.16, 17.22 7.74 C 16.77 7.47, 16.815 7.334999999999999, 16.32 7.199999999999999 C 15.780000000000001 7.199999999999999, 15.885 7.199999999999999, 15.24 7.199999999999999 C 14.49 7.199999999999999, 14.43 6.854999999999999, 13.74 7.199999999999999 C 13.11 7.89, 13.005 7.71, 12.48 8.58 C 12.06 9.629999999999999, 11.955 9.66, 11.64 10.68 C 11.43 11.67, 11.370000000000001 11.25, 11.22 12.66 C 11.13 14.49, 11.085 14.595, 11.040000000000001 16.32 C 11.040000000000001 17.939999999999998, 11.040000000000001 17.985, 11.040000000000001 19.56 C 11.040000000000001 21.09, 11.040000000000001 21.03, 11.040000000000001 22.62 C 11.040000000000001 24.270000000000003, 10.920000000000002 24.045, 11.040000000000001 25.92 C 11.280000000000001 28.02, 11.205 27.959999999999997, 11.52 30.119999999999997 C 11.91 32.34, 11.939999999999998 32.52, 12.299999999999999 34.56 C 12.629999999999999 36.42, 12.66 36.78, 12.96 38.28 C 13.23 39.42, 13.245000000000001 39.57, 13.5 40.56 C 13.74 41.400000000000006, 13.785 41.58, 13.98 42.24 C 14.129999999999999 42.72, 14.205 42.870000000000005, 14.28 43.2 C 14.28 43.38, 14.28 43.47, 14.28 43.56 C 14.28 43.56, 14.28 43.56, 14.28 43.56 C 14.28 43.56, 14.28 43.56, 14.28 43.56 C 14.28 43.56, 14.28 43.56, 14.28 43.56 L 14.28 43.56" fill="none" stroke="black" stroke-width="2"></path><path d="M 11.82 24.06 C 12.66 23.939999999999998, 11.940000000000001 24, 13.5 23.82 C 15.78 23.58, 16.02 23.505, 18.06 23.34 C 19.86 23.25, 19.83 23.325, 21.66 23.16 C 23.520000000000003 22.92, 23.790000000000003 22.845, 25.380000000000003 22.68 C 26.700000000000003 22.59, 27.105 22.5, 28.02 22.5 C 28.53 22.59, 28.53 22.259999999999998, 29.04 22.68 C 29.549999999999997 23.43, 29.744999999999997 23.355, 30.06 24.18 C 30.18 25.08, 30.24 24.78, 30.299999999999997 25.98 C 30.299999999999997 27.48, 30.524999999999995 27.39, 30.299999999999997 28.98 C 29.85 30.659999999999997, 30.060000000000002 30.629999999999995, 29.400000000000002 32.339999999999996 C 28.53 34.08, 28.440000000000005 34.35, 27.660000000000004 35.82 C 26.970000000000002 37.019999999999996, 26.955000000000002 37.05, 26.28 38.22 C 25.62 39.36, 25.425 39.735, 24.96 40.5 C 24.69 40.89, 24.6 40.995000000000005, 24.42 41.28 C 24.330000000000002 41.46, 24.330000000000002 41.415, 24.240000000000002 41.64 C 24.15 41.91, 24.105 42.045, 24.06 42.18 C 24.06 42.18, 24.06 42.18, 24.06 42.18 C 24.06 42.18, 24.104999999999997 42.12, 24.06 42.18 L 23.88 42.42" fill="none" stroke="black" stroke-width="2"></path><path d="M 11.16 43.86 C 11.61 43.92, 11.474999999999998 43.965, 12.059999999999999 43.980000000000004 C 12.78 43.95, 12.165 43.980000000000004, 13.5 43.92 C 15.45 43.83, 15.629999999999999 43.83, 17.4 43.74 C 18.990000000000002 43.650000000000006, 19.020000000000003 43.755, 20.580000000000002 43.56 C 22.11 43.260000000000005, 22.155 43.230000000000004, 23.64 42.96 C 25.08 42.72, 25.425 42.6, 26.52 42.480000000000004 C 27.27 42.480000000000004, 27.57 42.480000000000004, 28.02 42.480000000000004 C 28.17 42.480000000000004, 28.245 42.480000000000004, 28.32 42.480000000000004 L 28.32 42.480000000000004" fill="none" stroke="black" stroke-width="2"></path></svg>