<svg xmlns="http://www.w3.org/2000/svg" viewBox="5.646666526794434 3.1399998664855957 22.25003433227539 42.94000291824341" width="22.25003433227539" height="42.94000291824341"><path d="M 17.4 16.86 C 17.4 15.69, 17.445 15.719999999999999, 17.4 14.52 C 17.31 13.29, 17.43 13.229999999999999, 17.22 12.059999999999999 C 16.89 10.95, 16.95 10.725, 16.56 9.84 C 16.11 9.18, 16.275 9.285, 15.66 8.52 C 14.88 7.6499999999999995, 14.880000000000003 7.469999999999999, 14.100000000000001 6.779999999999999 C 13.32 6.27, 13.469999999999999 6.239999999999999, 12.54 5.76 C 11.459999999999999 5.3100000000000005, 11.219999999999999 5.115, 10.379999999999999 4.86 C 9.78 4.800000000000001, 9.75 4.74, 9.18 4.74 C 8.64 4.800000000000001, 8.565000000000001 4.605, 8.100000000000001 4.86 C 7.710000000000001 5.3100000000000005, 7.620000000000001 5.1899999999999995, 7.32 5.76 C 7.109999999999999 6.449999999999999, 7.0649999999999995 6.51, 6.8999999999999995 7.14 C 6.779999999999999 7.709999999999999, 6.72 7.2749999999999995, 6.66 8.28 C 6.66 9.719999999999999, 6.66 9.435, 6.66 11.16 C 6.66 13.17, 6.66 13.26, 6.66 15.18 C 6.66 17.009999999999998, 6.66 17.205, 6.66 18.84 C 6.66 20.28, 6.630000000000001 20.07, 6.66 21.72 C 6.72 23.58, 6.705 23.52, 6.779999999999999 25.44 C 6.869999999999999 27.42, 6.809999999999999 27.735000000000003, 6.959999999999999 29.400000000000002 C 7.17 30.75, 7.2299999999999995 30.959999999999994, 7.38 32.099999999999994 C 7.470000000000001 33.03, 7.41 32.94, 7.5600000000000005 33.96 C 7.7700000000000005 35.07, 7.785 35.055, 7.98 36.18 C 8.16 37.32, 8.175 37.575, 8.34 38.46 C 8.49 39.09, 8.445 39.135, 8.64 39.72 C 8.88 40.26, 8.865000000000002 40.23, 9.120000000000001 40.8 C 9.39 41.4, 9.375 41.46, 9.66 42 C 9.96 42.480000000000004, 9.945 42.54, 10.26 42.96 C 10.59 43.32, 10.575 43.275, 10.92 43.68 C 11.280000000000001 44.129999999999995, 11.280000000000001 44.25, 11.64 44.58 C 12 44.79, 12.045 44.879999999999995, 12.36 45 C 12.629999999999999 45.03, 12.419999999999998 45.045, 12.899999999999999 45.06 C 13.59 45.06, 13.665 45.06, 14.28 45.06 C 14.82 45.06, 14.924999999999999 45.105000000000004, 15.36 45.06 C 15.69 44.97, 15.765 45.03, 16.02 44.88 C 16.2 44.67, 16.049999999999997 44.88, 16.38 44.46 C 16.86 43.83, 16.845 43.905, 17.34 43.2 C 17.85 42.42, 17.985 42.3, 18.36 41.64 C 18.6 41.1, 18.63 41.07000000000001, 18.84 40.56 C 19.020000000000003 40.08, 19.110000000000003 40.27499999999999, 19.200000000000003 39.599999999999994 C 19.200000000000003 38.73, 19.200000000000003 38.79, 19.200000000000003 37.86 C 19.200000000000003 36.870000000000005, 19.200000000000003 36.45, 19.200000000000003 35.88 C 19.200000000000003 35.730000000000004, 19.200000000000003 35.655, 19.200000000000003 35.58 C 19.200000000000003 35.58, 19.200000000000003 35.58, 19.200000000000003 35.58 L 19.200000000000003 35.58" fill="none" stroke="black" stroke-width="2"></path><path d="M 7.199999999999999 28.799999999999997 C 7.68 28.86, 7.17 29.01, 8.16 28.92 C 9.66 28.68, 9.735 28.71, 11.16 28.44 C 12.51 28.14, 12.195 28.184999999999995, 13.86 27.839999999999996 C 15.84 27.449999999999996, 16.29 27.269999999999996, 17.82 27.06 C 18.9 27.03, 18.795 27.015, 19.98 27 C 21.27 27, 21.689999999999998 27.060000000000002, 22.56 27 C 23.009999999999998 26.88, 22.935 26.88, 23.46 26.759999999999998 C 24.060000000000002 26.64, 24.135000000000005 26.805, 24.660000000000004 26.52 C 25.11 26.07, 25.155 26.22, 25.56 25.619999999999997 C 25.92 24.869999999999997, 26.01 24.974999999999994, 26.28 24.119999999999997 C 26.46 23.16, 26.490000000000002 23.355000000000004, 26.64 22.200000000000003 C 26.76 20.85, 26.955000000000005 21.045, 26.880000000000003 19.5 C 26.61 17.759999999999998, 26.849999999999998 18.165, 26.339999999999996 16.02 C 25.589999999999996 13.469999999999999, 25.454999999999995 12.945, 24.839999999999996 10.92 C 24.36 9.42, 24.345 9.585, 23.88 7.92 C 23.43 6.09, 23.235 5.205, 22.98 4.26 C 22.92 4.199999999999999, 22.89 4.17, 22.86 4.14 C 22.86 4.14, 22.86 4.14, 22.86 4.14 L 22.86 4.14" fill="none" stroke="black" stroke-width="2"></path></svg>