<svg xmlns="http://www.w3.org/2000/svg" viewBox="8.239999771118164 3.2766246795654297 18.260000228881836 43.38337516784668" width="18.260000228881836" height="43.38337516784668"><path d="M 17.34 10.379999999999999 C 17.34 9.329999999999998, 17.43 9.284999999999998, 17.34 8.28 C 17.16 7.32, 17.13 6.975, 16.98 6.36 C 16.86 6.09, 16.995 6.165000000000001, 16.740000000000002 5.82 C 16.35 5.4, 16.380000000000003 5.31, 15.96 4.9799999999999995 C 15.51 4.74, 15.6 4.665, 15.059999999999999 4.5 C 14.43 4.41, 14.279999999999998 4.365, 13.799999999999999 4.32 C 13.469999999999999 4.32, 13.530000000000001 4.305000000000001, 13.14 4.32 C 12.690000000000001 4.35, 12.690000000000001 4.17, 12.24 4.38 C 11.79 4.77, 11.7 4.785, 11.34 5.16 C 11.07 5.52, 11.13 5.355, 10.8 5.88 C 10.41 6.57, 10.305 6.495, 10.02 7.26 C 9.84 8.1, 9.81 7.979999999999999, 9.66 8.94 C 9.54 10.02, 9.495000000000001 10.185, 9.42 11.100000000000001 C 9.39 11.850000000000001, 9.405 11.715000000000002, 9.36 12.600000000000001 C 9.3 13.620000000000001, 9.254999999999999 13.650000000000002, 9.24 14.64 C 9.27 15.6, 9.195 15.825, 9.3 16.56 C 9.48 17.07, 9.42 17.175, 9.66 17.580000000000002 C 9.96 17.880000000000003, 9.765 17.775, 10.26 18.18 C 10.95 18.69, 10.71 18.675000000000004, 11.64 19.200000000000003 C 12.81 19.740000000000002, 12.825000000000001 19.92, 13.98 20.28 C 15.12 20.46, 15.239999999999998 20.55, 16.259999999999998 20.64 C 17.159999999999997 20.64, 16.77 20.715, 18.06 20.64 C 19.74 20.490000000000002, 19.935 20.564999999999998, 21.419999999999998 20.34 C 22.71 20.04, 22.98 20.01, 24 19.740000000000002 C 24.75 19.5, 25.125 19.38, 25.5 19.259999999999998 C 25.5 19.259999999999998, 25.5 19.259999999999998, 25.5 19.259999999999998 L 25.5 19.259999999999998" fill="none" stroke="black" stroke-width="2"></path><path d="M 18.48 20.64 C 18.39 21.33, 18.345 21.119999999999997, 18.299999999999997 22.02 C 18.299999999999997 23.130000000000003, 18.299999999999997 23.145000000000003, 18.299999999999997 24.240000000000002 C 18.299999999999997 25.32, 18.299999999999997 25.245000000000005, 18.299999999999997 26.400000000000002 C 18.299999999999997 27.630000000000003, 18.299999999999997 27.525, 18.299999999999997 28.86 C 18.299999999999997 30.3, 18.299999999999997 30.36, 18.299999999999997 31.740000000000002 C 18.299999999999997 33.06, 18.299999999999997 32.910000000000004, 18.299999999999997 34.38 C 18.299999999999997 36, 18.299999999999997 36.375, 18.299999999999997 37.62 C 18.299999999999997 38.489999999999995, 18.299999999999997 38.625, 18.299999999999997 39.36 C 18.299999999999997 39.96, 18.299999999999997 39.870000000000005, 18.299999999999997 40.56 C 18.299999999999997 41.34, 18.254999999999995 41.415, 18.299999999999997 42.12 C 18.39 42.75, 18.435 42.660000000000004, 18.48 43.38 C 18.48 44.19, 18.48 44.43, 18.48 45 C 18.48 45.33, 18.48 45.495000000000005, 18.48 45.660000000000004 C 18.48 45.660000000000004, 18.48 45.660000000000004, 18.48 45.660000000000004 L 18.48 45.660000000000004" fill="none" stroke="black" stroke-width="2"></path></svg>