<svg xmlns="http://www.w3.org/2000/svg" viewBox="8.619999885559082 2.2637524604797363 25.22000026702881 43.75835609436035" width="25.22000026702881" height="43.75835609436035"><path d="M 20.1 13.74 C 19.98 11.879999999999999, 20.04 11.85, 19.86 10.02 C 19.619999999999997 8.219999999999999, 19.695 7.695, 19.38 6.42 C 18.990000000000002 5.67, 18.975 5.475, 18.6 4.92 C 18.240000000000002 4.56, 18.255 4.544999999999999, 17.88 4.199999999999999 C 17.490000000000002 3.8699999999999997, 17.52 3.75, 17.1 3.54 C 16.650000000000002 3.45, 16.755000000000003 3.3900000000000006, 16.200000000000003 3.3600000000000003 C 15.540000000000001 3.39, 15.51 3.09, 14.879999999999999 3.42 C 14.28 4.05, 14.25 3.795, 13.68 4.68 C 13.14 5.819999999999999, 13.215000000000002 5.609999999999999, 12.600000000000001 6.959999999999999 C 11.91 8.52, 11.790000000000001 8.19, 11.22 10.08 C 10.77 12.3, 10.695 12.36, 10.32 14.52 C 10.02 16.619999999999997, 9.885000000000002 17.009999999999998, 9.72 18.72 C 9.690000000000001 20.04, 9.675 19.785, 9.66 21.36 C 9.66 23.189999999999998, 9.66 23.4, 9.66 25.02 C 9.66 26.43, 9.66 26.339999999999996, 9.66 27.839999999999996 C 9.66 29.43, 9.57 29.775, 9.66 31.02 C 9.84 31.92, 9.795 32.01, 10.02 32.82 C 10.29 33.54, 10.32 33.705, 10.56 34.26 C 10.77 34.65, 10.74 34.695, 10.98 35.04 C 11.25 35.34, 11.145 35.415, 11.52 35.64 C 12 35.79, 11.805 35.82, 12.48 35.94 C 13.350000000000001 36.03, 13.38 36.224999999999994, 14.22 36.12 C 15.030000000000001 35.81999999999999, 15.06 36.19499999999999, 15.84 35.519999999999996 C 16.59 34.47, 16.665 34.68, 17.34 33.42 C 17.939999999999998 31.950000000000003, 18.075 31.965, 18.54 30.48 C 18.87 28.98, 19.035000000000004 28.650000000000002, 19.200000000000003 27.48 C 19.200000000000003 26.64, 19.200000000000003 26.22, 19.200000000000003 25.799999999999997 C 19.200000000000003 25.799999999999997, 19.200000000000003 25.799999999999997, 19.200000000000003 25.799999999999997 C 19.200000000000003 25.799999999999997, 19.140000000000004 25.784999999999997, 19.200000000000003 25.799999999999997 C 19.32 25.83, 19.425000000000004 25.47, 19.44 25.86 C 19.35 26.61, 19.365 26.505, 19.259999999999998 27.36 C 19.14 28.32, 19.08 28.5, 19.02 29.28 C 19.02 29.880000000000003, 19.005 30.045, 19.02 30.48 C 19.05 30.75, 18.945 30.765, 19.080000000000002 31.02 C 19.32 31.259999999999998, 19.02 31.2, 19.56 31.5 C 20.4 31.86, 20.25 31.994999999999997, 21.240000000000002 32.22 C 22.380000000000003 32.31, 22.545 32.355000000000004, 23.52 32.400000000000006 C 24.33 32.400000000000006, 23.85 32.400000000000006, 25.14 32.400000000000006 C 26.91 32.400000000000006, 27.195 32.53500000000001, 28.68 32.400000000000006 C 29.88 32.13, 30.299999999999997 32.025, 31.08 31.86 C 31.439999999999998 31.8, 31.619999999999997 31.770000000000003, 31.799999999999997 31.740000000000002 L 31.799999999999997 31.740000000000002" fill="none" stroke="black" stroke-width="2"></path><path d="M 29.52 38.160000000000004 C 28.32 37.74, 28.169999999999998 37.53, 27.119999999999997 37.32 C 26.22 37.32, 26.16 37.230000000000004, 25.32 37.32 C 24.54 37.5, 24.479999999999997 37.17, 23.759999999999998 37.68 C 23.1 38.519999999999996, 22.815 38.385, 22.44 39.36 C 22.35 40.47, 22.29 40.71, 22.259999999999998 41.58 C 22.29 42.209999999999994, 22.095 42.254999999999995, 22.32 42.839999999999996 C 22.740000000000002 43.379999999999995, 22.515 43.425, 23.16 43.92 C 24.03 44.370000000000005, 23.745 44.58, 24.900000000000002 44.82 C 26.340000000000003 44.85, 26.700000000000003 44.835, 27.78 44.88 C 28.5 44.94, 28.395 45.075, 29.22 45 C 30.15 44.79, 30.375 45.015, 31.08 44.58 C 31.56 43.92, 31.695 43.934999999999995, 32.04 43.26 C 32.25 42.57, 32.265 42.555, 32.46 41.88 C 32.64 41.22, 32.730000000000004 41.22, 32.82 40.56 C 32.82 39.900000000000006, 32.82 40.050000000000004, 32.82 39.24 C 32.82 38.28, 32.865 38.370000000000005, 32.82 37.32 C 32.730000000000004 36.18, 32.745 36.135, 32.64 35.04 C 32.52 33.989999999999995, 32.52 34.26, 32.400000000000006 32.94 C 32.28 31.349999999999998, 32.46000000000001 31.74, 32.160000000000004 29.759999999999998 C 31.680000000000003 27.39, 31.635000000000005 27.494999999999997, 31.200000000000003 25.02 C 30.810000000000002 22.439999999999998, 30.840000000000003 22.47, 30.42 19.86 C 29.97 17.22, 29.835 16.395000000000003, 29.52 14.580000000000002 C 29.340000000000003 13.590000000000002, 29.340000000000003 13.920000000000002, 29.160000000000004 12.600000000000001 C 28.98 10.950000000000001, 29.009999999999998 10.665000000000001, 28.799999999999997 9.3 C 28.56 8.22, 28.544999999999998 8.055, 28.32 7.14 C 28.11 6.39, 28.020000000000003 6.074999999999999, 27.900000000000002 5.64 C 27.869999999999997 5.52, 27.854999999999997 5.46, 27.839999999999996 5.4 L 27.839999999999996 5.4" fill="none" stroke="black" stroke-width="2"></path></svg>