<svg xmlns="http://www.w3.org/2000/svg" viewBox="8.059999465942383 4.840000152587891 22.13333225250244 42.386666774749756" width="22.13333225250244" height="42.386666774749756"><path d="M 20.28 13.74 C 20.07 13.2, 20.175 13.845, 19.86 12.66 C 19.439999999999998 10.83, 19.35 10.35, 19.02 9 C 18.78 8.129999999999999, 18.72 7.8149999999999995, 18.54 7.26 C 18.419999999999998 7.02, 18.554999999999996 7.0649999999999995, 18.299999999999997 6.779999999999999 C 17.909999999999997 6.449999999999999, 17.924999999999997 6.345, 17.52 6.12 C 17.1 6, 17.115 5.9399999999999995, 16.68 5.88 C 16.23 5.88, 16.32 5.79, 15.78 5.88 C 15.149999999999999 6.0600000000000005, 15.015 5.985, 14.52 6.24 C 14.16 6.57, 14.294999999999998 6.375, 13.799999999999999 6.8999999999999995 C 13.169999999999998 7.619999999999999, 13.214999999999998 7.364999999999999, 12.54 8.34 C 11.82 9.57, 11.73 9.27, 11.100000000000001 10.8 C 10.56 12.63, 10.485 12.525000000000002, 10.02 14.46 C 9.629999999999999 16.5, 9.465 16.5, 9.24 18.54 C 9.18 20.58, 9.15 20.595, 9.120000000000001 22.62 C 9.120000000000001 24.630000000000003, 9.120000000000001 25.05, 9.120000000000001 26.64 C 9.120000000000001 27.810000000000002, 8.985000000000001 28.11, 9.120000000000001 28.98 C 9.39 29.549999999999997, 9.39 29.519999999999996, 9.66 30.119999999999997 C 9.93 30.75, 9.915 30.795, 10.2 31.380000000000003 C 10.5 31.92, 10.56 32.085, 10.8 32.46 C 10.98 32.67, 10.83 32.595000000000006, 11.16 32.88 C 11.64 33.239999999999995, 11.670000000000002 33.37499999999999, 12.120000000000001 33.599999999999994 C 12.540000000000001 33.69, 12.39 33.795, 12.96 33.78 C 13.68 33.66, 13.739999999999998 33.855000000000004, 14.399999999999999 33.54 C 15 33.03, 14.91 33.285, 15.600000000000001 32.519999999999996 C 16.380000000000003 31.5, 16.53 31.86, 17.16 30.48 C 17.64 28.740000000000002, 17.82 28.29, 18.12 27 C 18.240000000000002 26.16, 18.3 25.740000000000002, 18.36 25.32 C 18.36 25.32, 18.36 25.32, 18.36 25.32 C 18.36 25.32, 18.36 25.32, 18.36 25.32 C 18.36 25.32, 18.36 25.185000000000002, 18.36 25.32 C 18.36 25.59, 18.465 25.305, 18.36 25.86 C 18.15 26.7, 18.045 26.939999999999998, 17.94 27.54 C 17.94 27.9, 17.94 27.779999999999998, 17.94 28.259999999999998 C 17.94 28.86, 17.82 28.935000000000002, 17.94 29.46 C 18.18 29.91, 18.134999999999998 29.97, 18.419999999999998 30.36 C 18.75 30.689999999999998, 18.6 30.63, 19.080000000000002 31.02 C 19.71 31.47, 19.575 31.5, 20.34 31.92 C 21.240000000000002 32.31, 21.150000000000002 32.46, 22.14 32.7 C 23.22 32.790000000000006, 23.25 32.925000000000004, 24.299999999999997 32.88 C 25.319999999999997 32.7, 25.484999999999996 32.80499999999999, 26.339999999999996 32.519999999999996 C 27.029999999999998 32.129999999999995, 27.15 32.175, 27.72 31.740000000000002 C 28.169999999999998 31.26, 28.394999999999996 31.020000000000003, 28.619999999999997 30.78 C 28.619999999999997 30.78, 28.619999999999997 30.78, 28.619999999999997 30.78 L 28.619999999999997 30.78" fill="none" stroke="black" stroke-width="2"></path><path d="M 10.56 39.12 C 10.8 39.81, 10.740000000000002 39.57, 11.040000000000001 40.5 C 11.4 41.67, 11.385 42.015, 11.76 42.839999999999996 C 12.149999999999999 43.31999999999999, 12.104999999999999 43.31999999999999, 12.54 43.8 C 13.02 44.28, 12.915 44.324999999999996, 13.5 44.76 C 14.19 45.15, 13.875 45.21, 14.879999999999999 45.54 C 16.2 45.81, 16.455 45.93, 17.52 46.08 C 18.33 46.11, 18.15 46.125, 19.14 46.14 C 20.310000000000002 46.14, 20.325000000000003 46.335, 21.48 46.14 C 22.619999999999997 45.75, 22.845 45.84, 23.759999999999998 45.36 C 24.45 44.79, 24.57 44.745, 25.14 44.22 C 25.59 43.739999999999995, 25.59 43.86, 26.04 43.26 C 26.490000000000002 42.54, 26.520000000000003 42.555, 26.94 41.82 C 27.33 41.07, 27.404999999999998 41.025, 27.72 40.32 C 27.96 39.66, 27.975 39.75, 28.200000000000003 39 C 28.41 38.16, 28.424999999999997 38.325, 28.619999999999997 37.32 C 28.799999999999997 36.150000000000006, 28.845 36.18000000000001, 28.98 34.980000000000004 C 29.07 33.75, 29.115000000000002 33.915, 29.160000000000004 32.519999999999996 C 29.160000000000004 30.96, 29.160000000000004 31.200000000000003, 29.160000000000004 29.400000000000002 C 29.160000000000004 27.36, 29.235000000000007 27.42, 29.160000000000004 25.32 C 29.01 23.16, 28.98 22.995, 28.86 21 C 28.77 19.17, 28.785 19.245, 28.68 17.34 C 28.560000000000002 15.36, 28.545 15.09, 28.44 13.379999999999999 C 28.35 11.94, 28.349999999999998 11.625, 28.259999999999998 10.5 C 28.169999999999998 9.69, 28.185 9.6, 28.08 8.879999999999999 C 27.959999999999997 8.25, 27.9 8.1, 27.839999999999996 7.62 C 27.839999999999996 7.289999999999999, 27.839999999999996 7.214999999999999, 27.839999999999996 6.959999999999999 C 27.839999999999996 6.779999999999999, 27.839999999999996 6.69, 27.839999999999996 6.6000000000000005 L 27.839999999999996 6.6000000000000005" fill="none" stroke="black" stroke-width="2"></path></svg>