<svg xmlns="http://www.w3.org/2000/svg" viewBox="9.791061401367188 4.400000095367432 22.415605545043945 40.886666774749756" width="22.415605545043945" height="40.886666774749756"><path d="M 24.119999999999997 25.08 C 23.549999999999997 24.03, 23.625 23.895, 22.98 22.98 C 22.259999999999998 22.2, 22.365 22.08, 21.54 21.419999999999998 C 20.61 20.88, 20.835 20.625, 19.68 20.34 C 18.299999999999997 20.310000000000002, 17.895 20.295, 16.919999999999998 20.28 C 16.349999999999998 20.28, 16.424999999999997 20.235, 15.78 20.28 C 15.059999999999999 20.37, 15.135 19.935000000000002, 14.34 20.46 C 13.47 21.42, 13.350000000000001 21.42, 12.600000000000001 22.38 C 11.97 23.339999999999996, 11.745000000000001 23.519999999999996, 11.34 24.299999999999997 C 11.16 24.9, 11.115 24.9, 10.98 25.5 C 10.89 26.1, 10.755 26.160000000000004, 10.8 26.700000000000003 C 10.98 27.180000000000003, 10.695 27.165000000000006, 11.16 27.660000000000004 C 11.91 28.17, 12.045 28.335, 12.66 28.68 C 13.14 28.86, 13.110000000000001 28.965, 13.620000000000001 29.04 C 14.16 29.009999999999998, 14.190000000000001 29.175, 14.700000000000001 28.98 C 15.18 28.619999999999997, 15.21 28.709999999999997, 15.66 28.259999999999998 C 16.08 27.72, 16.185000000000002 27.63, 16.5 27.18 C 16.71 26.82, 16.74 26.79, 16.919999999999998 26.46 C 17.07 26.16, 17.145 26.009999999999998, 17.22 25.86 C 17.22 25.86, 17.174999999999997 25.92, 17.22 25.86 C 17.31 25.74, 17.265 25.68, 17.4 25.619999999999997 C 17.58 25.619999999999997, 17.549999999999997 25.499999999999996, 17.759999999999998 25.619999999999997 C 18 25.86, 17.925 25.694999999999997, 18.240000000000002 26.099999999999998 C 18.630000000000003 26.67, 18.525 26.685000000000002, 19.02 27.240000000000002 C 19.619999999999997 27.78, 19.515 27.810000000000002, 20.22 28.32 C 21.03 28.8, 20.82 28.815, 21.84 29.28 C 23.07 29.73, 23.189999999999998 29.939999999999998, 24.299999999999997 30.18 C 25.29 30.21, 25.32 30.315, 26.28 30.240000000000002 C 27.21 30.060000000000002, 27.270000000000003 30.39, 28.14 29.880000000000003 C 28.95 29.040000000000003, 29.145 28.935000000000002, 29.759999999999998 28.200000000000003 C 30.18 27.57, 30.269999999999996 27.93, 30.599999999999998 26.94 C 30.839999999999996 25.590000000000003, 30.959999999999997 25.71, 31.08 24.240000000000002 C 31.08 22.65, 31.365 23.085, 31.08 21.06 C 30.509999999999998 18.6, 30.48 18.105, 29.94 16.14 C 29.43 14.670000000000002, 29.625000000000004 14.790000000000001, 28.92 13.200000000000001 C 28.02 11.49, 28.019999999999996 11.174999999999999, 27.119999999999997 9.78 C 26.22 8.7, 26.235 8.595, 25.32 7.62 C 24.39 6.75, 24.12 6.435, 23.46 5.88 C 23.07 5.640000000000001, 22.875 5.5200000000000005, 22.68 5.4 C 22.68 5.4, 22.68 5.4, 22.68 5.4 C 22.68 5.4, 22.68 5.4, 22.68 5.4 L 22.68 5.4" fill="none" stroke="black" stroke-width="2"></path><path d="M 20.4 33.599999999999994 C 19.02 33.69, 18.66 33.525, 17.64 33.78 C 16.98 34.2, 17.25 33.885, 16.32 34.62 C 15.12 35.67, 14.684999999999999 35.775, 13.919999999999998 36.72 C 13.59 37.56, 13.469999999999999 37.50000000000001, 13.26 38.400000000000006 C 13.170000000000002 39.36, 12.930000000000001 39.510000000000005, 13.080000000000002 40.32 C 13.47 40.980000000000004, 13.26 41.025, 13.86 41.64 C 14.67 42.21, 14.805 42.345, 15.48 42.78 C 16.02 43.08, 15.764999999999999 43.02, 16.56 43.38 C 17.61 43.8, 17.34 44.01, 18.66 44.22 C 20.25 44.22, 20.4 44.37, 21.84 44.22 C 23.130000000000003 43.92, 23.535 43.92, 24.42 43.62 C 24.900000000000002 43.31999999999999, 25.020000000000003 43.709999999999994, 25.380000000000003 43.019999999999996 C 25.62 41.94, 25.695 41.97, 25.86 40.86 C 25.95 39.72, 26.009999999999998 39.555, 26.04 38.58 C 26.009999999999998 37.769999999999996, 26.115000000000002 37.92, 25.98 36.96 C 25.740000000000002 35.85, 25.755 35.595, 25.5 34.74 C 25.23 34.14, 25.395000000000003 34.125, 24.96 33.54 C 24.36 32.97, 24.54 32.83500000000001, 23.759999999999998 32.400000000000006 C 22.799999999999997 32.1, 22.5 31.95, 21.84 31.799999999999997 C 21.48 31.799999999999997, 21.435000000000002 31.739999999999995, 21.12 31.799999999999997 C 20.85 31.919999999999998, 20.82 31.905, 20.580000000000002 32.04 C 20.37 32.19, 20.415 32.099999999999994, 20.16 32.339999999999996 C 19.86 32.67, 19.89 32.714999999999996, 19.56 33 C 19.2 33.24, 19.02 33.36, 18.84 33.480000000000004 L 18.84 33.480000000000004" fill="none" stroke="black" stroke-width="2"></path><path d="M 13.379999999999999 41.519999999999996 C 14.1 41.16, 13.440000000000001 41.19, 14.82 40.8 C 16.86 40.379999999999995, 16.709999999999997 40.335, 18.9 39.96 C 21.240000000000002 39.629999999999995, 21.795 39.464999999999996, 23.580000000000002 39.3 C 24.810000000000002 39.3, 25.259999999999998 39.3, 26.04 39.3 C 26.37 39.3, 26.400000000000002 39.3, 26.700000000000003 39.3 L 27.240000000000002 39.3" fill="none" stroke="black" stroke-width="2"></path></svg>