<svg xmlns="http://www.w3.org/2000/svg" viewBox="8.166666030883789 3.820000171661377 24.15333366394043 44.040000438690186" width="24.15333366394043" height="44.040000438690186"><path d="M 18.48 13.5 C 18.54 13.5, 18.495 13.695, 18.6 13.5 C 18.75 13.11, 18.81 13.425, 18.9 12.72 C 18.93 11.7, 19.005000000000003 11.58, 18.96 10.68 C 18.84 9.9, 18.93 9.84, 18.72 9.120000000000001 C 18.42 8.46, 18.42 8.355, 18.12 7.800000000000001 C 17.82 7.35, 17.91 7.41, 17.52 6.8999999999999995 C 17.04 6.33, 17.145 6.27, 16.56 5.76 C 15.87 5.3100000000000005, 16.08 5.085, 15.18 4.86 C 14.07 4.86, 13.815000000000001 4.7700000000000005, 12.96 4.86 C 12.36 5.04, 12.344999999999999 4.935, 11.76 5.22 C 11.190000000000001 5.609999999999999, 11.16 5.3549999999999995, 10.620000000000001 6 C 10.110000000000001 6.9, 9.945000000000002 6.735000000000001, 9.600000000000001 7.800000000000001 C 9.420000000000002 9.030000000000001, 9.33 9.105, 9.24 10.26 C 9.24 11.34, 9.24 11.219999999999999, 9.24 12.419999999999998 C 9.24 13.739999999999998, 9.075000000000001 13.169999999999998, 9.24 15.059999999999999 C 9.57 17.52, 9.569999999999999 17.655, 9.899999999999999 19.98 C 10.23 22.17, 10.23 22.695, 10.56 24.36 C 10.89 25.5, 10.860000000000001 25.545, 11.22 26.64 C 11.61 27.69, 11.790000000000001 28.185000000000002, 12 28.740000000000002 L 12.059999999999999 28.86" fill="none" stroke="black" stroke-width="2"></path><path d="M 9.24 18.18 C 9.6 18.18, 9.66 18.18, 9.959999999999999 18.18 C 10.2 18.18, 10.094999999999999 18.18, 10.44 18.18 C 10.89 18.18, 10.485 18.18, 11.34 18.18 C 12.6 18.18, 12.69 18.15, 13.86 18.18 C 14.94 18.24, 15.209999999999999 18.104999999999997, 16.02 18.299999999999997 C 16.560000000000002 18.63, 16.575000000000003 18.465, 17.1 18.96 C 17.61 19.62, 17.685000000000002 19.575000000000003, 18.12 20.28 C 18.48 21.03, 18.585 21.075000000000003, 18.84 21.78 C 18.990000000000002 22.44, 18.990000000000002 22.485, 19.14 23.1 C 19.29 23.67, 19.335 23.910000000000004, 19.44 24.240000000000002 C 19.5 24.330000000000002, 19.53 24.375, 19.56 24.42 C 19.56 24.42, 19.56 24.42, 19.56 24.42 C 19.56 24.42, 19.544999999999998 24.405, 19.56 24.42 C 19.59 24.450000000000003, 19.05 24.630000000000003, 19.62 24.48 C 20.73 24.15, 20.64 24.15, 21.84 23.82 C 23.130000000000003 23.490000000000002, 23.16 23.325, 24.42 23.16 C 25.650000000000002 23.16, 26.01 23.16, 26.880000000000003 23.16 C 27.39 23.16, 27.375000000000004 22.95, 27.900000000000002 23.16 C 28.44 23.58, 28.44 23.46, 28.98 24 C 29.52 24.66, 29.61 24.555, 30.06 25.32 C 30.42 26.189999999999998, 30.495 26.384999999999998, 30.78 27.06 C 30.990000000000002 27.54, 31.065000000000005 27.599999999999998, 31.200000000000003 28.02 C 31.26 28.380000000000003, 31.29 28.560000000000002, 31.32 28.740000000000002 L 31.32 28.740000000000002" fill="none" stroke="black" stroke-width="2"></path><path d="M 20.16 24.839999999999996 C 20.25 25.77, 20.295 25.17, 20.34 26.700000000000003 C 20.34 28.830000000000002, 20.535 28.995, 20.34 30.96 C 19.95 32.760000000000005, 20.025 32.82, 19.56 34.56 C 19.02 36.24, 19.005 36.465, 18.48 37.92 C 17.97 39.150000000000006, 18.03 39.285000000000004, 17.46 40.38 C 16.830000000000002 41.34, 17.01 41.37, 16.200000000000003 42.3 C 15.21 43.199999999999996, 14.835 43.559999999999995, 14.22 44.099999999999994 C 13.98 44.28, 13.965 44.295, 13.74 44.46 L 13.32 44.76" fill="none" stroke="black" stroke-width="2"></path><path d="M 27.240000000000002 33.660000000000004 C 27.15 34.980000000000004, 27.33 34.545, 27.06 36.3 C 26.61 38.489999999999995, 26.595000000000002 38.985, 26.160000000000004 40.68 C 25.740000000000002 41.879999999999995, 25.86 41.925, 25.32 43.08 C 24.66 44.19, 24.615000000000002 44.44499999999999, 24 45.3 C 23.43 45.9, 23.384999999999998 46.11, 22.86 46.5 L 21.9 46.86" fill="none" stroke="black" stroke-width="2"></path></svg>