<svg xmlns="http://www.w3.org/2000/svg" viewBox="7.453332901000977 5.086666584014893 19.22666645050049 38.87333297729492" width="19.22666645050049" height="38.87333297729492"><path d="M 19.44 14.46 C 19.5 13.68, 19.56 13.814999999999998, 19.56 12.899999999999999 C 19.5 11.85, 19.650000000000002 11.775, 19.44 10.8 C 19.08 9.9, 19.125 9.675, 18.72 9 C 18.27 8.55, 18.314999999999998 8.475000000000001, 17.82 8.100000000000001 C 17.28 7.800000000000001, 17.385 7.83, 16.740000000000002 7.5 C 15.990000000000002 7.14, 15.84 7.0649999999999995, 15.24 6.779999999999999 C 14.79 6.57, 14.79 6.525, 14.34 6.36 C 13.89 6.24, 13.830000000000002 6.18, 13.440000000000001 6.12 C 13.11 6.12, 13.215 6.045, 12.78 6.12 C 12.239999999999998 6.27, 12.299999999999999 5.91, 11.7 6.42 C 11.04 7.29, 10.889999999999999 7.275, 10.379999999999999 8.16 C 10.02 9.059999999999999, 9.99 9.044999999999998, 9.66 9.959999999999999 C 9.36 10.89, 9.33 10.725, 9.06 11.82 C 8.82 13.08, 8.73 12.93, 8.58 14.34 C 8.52 15.9, 8.489999999999998 16.035, 8.459999999999999 17.46 C 8.459999999999999 18.75, 8.459999999999999 18.6, 8.459999999999999 20.04 C 8.459999999999999 21.63, 8.459999999999999 21.884999999999998, 8.459999999999999 23.22 C 8.459999999999999 24.3, 8.459999999999999 24.180000000000003, 8.459999999999999 25.380000000000003 C 8.459999999999999 26.700000000000003, 8.444999999999999 26.925, 8.459999999999999 28.02 C 8.489999999999998 28.89, 8.475 28.74, 8.52 29.759999999999998 C 8.58 30.929999999999996, 8.535 31.09499999999999, 8.64 32.099999999999994 C 8.79 32.94, 8.79 32.835, 8.94 33.78 C 9.09 34.83, 9.06 34.83, 9.24 35.88 C 9.45 36.93000000000001, 9.51 37.185, 9.66 37.980000000000004 C 9.75 38.52, 9.765 38.625, 9.84 39.06 C 9.899999999999999 39.39, 9.93 39.345, 9.959999999999999 39.72 C 9.959999999999999 40.14, 9.959999999999999 40.35, 9.959999999999999 40.56 C 9.959999999999999 40.56, 9.959999999999999 40.38, 9.959999999999999 40.56 C 9.959999999999999 40.92, 9.899999999999999 40.965, 9.959999999999999 41.28 C 10.079999999999998 41.55, 10.094999999999999 41.46, 10.2 41.82 C 10.29 42.269999999999996, 10.334999999999999 42.435, 10.379999999999999 42.72 L 10.379999999999999 42.96" fill="none" stroke="black" stroke-width="2"></path><path d="M 9.06 21.48 C 9.629999999999999 21.48, 9.149999999999999 21.48, 10.2 21.48 C 11.73 21.48, 11.759999999999998 21.495, 13.26 21.48 C 14.73 21.45, 14.835000000000003 21.479999999999997, 16.200000000000003 21.419999999999998 C 17.46 21.33, 17.625 21.285, 18.72 21.240000000000002 C 19.65 21.240000000000002, 19.545 21.300000000000004, 20.580000000000002 21.240000000000002 C 21.72 21.12, 22.05 21.075, 22.86 21 C 23.34 20.97, 23.205 20.985, 23.82 20.94 C 24.57 20.880000000000003, 24.855 20.85, 25.32 20.82 C 25.5 20.82, 25.59 20.82, 25.68 20.82 L 25.68 20.82" fill="none" stroke="black" stroke-width="2"></path><path d="M 19.5 28.44 C 18.63 28.44, 18.57 28.380000000000003, 17.759999999999998 28.44 C 17.009999999999998 28.560000000000002, 16.994999999999997 28.305, 16.259999999999998 28.68 C 15.54 29.310000000000002, 15.36 29.28, 14.82 29.94 C 14.46 30.630000000000003, 14.280000000000001 30.465, 14.100000000000001 31.32 C 14.100000000000001 32.34, 14.040000000000003 32.64, 14.100000000000001 33.36 C 14.22 33.78, 14.07 33.705000000000005, 14.34 34.2 C 14.76 34.769999999999996, 14.67 34.815, 15.18 35.339999999999996 C 15.78 35.81999999999999, 15.689999999999998 36.044999999999995, 16.38 36.3 C 17.16 36.33, 17.265 36.345, 17.94 36.36 C 18.51 36.36, 18.39 36.405, 19.080000000000002 36.36 C 19.89 36.269999999999996, 19.965000000000003 36.465, 20.700000000000003 36.18 C 21.36 35.7, 21.509999999999998 36.045, 22.02 35.22 C 22.380000000000003 34.05, 22.515 33.900000000000006, 22.740000000000002 32.88 C 22.83 32.010000000000005, 22.89 32.04, 22.919999999999998 31.14 C 22.89 30.21, 23.055 30.060000000000002, 22.86 29.28 C 22.5 28.65, 22.395 28.41, 22.14 28.02 C 21.990000000000002 27.869999999999997, 22.32 27.884999999999998, 21.84 27.72 C 21.03 27.54, 20.955 27.45, 20.22 27.36 C 19.56 27.36, 19.485 27.36, 18.9 27.36 C 18.39 27.36, 18.314999999999998 27.255, 17.88 27.36 C 17.52 27.57, 17.34 27.675, 17.16 27.78 L 17.16 27.78" fill="none" stroke="black" stroke-width="2"></path><path d="M 15.24 31.619999999999997 C 16.38 31.5, 16.455 31.485, 17.52 31.380000000000003 C 18.509999999999998 31.290000000000003, 18.66 31.245000000000005, 19.5 31.200000000000003 C 20.189999999999998 31.200000000000003, 20.445 31.200000000000003, 20.88 31.200000000000003 C 21.060000000000002 31.200000000000003, 21.075000000000003 31.200000000000003, 21.240000000000002 31.200000000000003 C 21.39 31.200000000000003, 21.33 31.200000000000003, 21.54 31.200000000000003 C 21.810000000000002 31.200000000000003, 21.720000000000002 31.155, 22.080000000000002 31.200000000000003 C 22.53 31.290000000000003, 22.755000000000003 31.335, 22.98 31.380000000000003 L 22.98 31.380000000000003" fill="none" stroke="black" stroke-width="2"></path></svg>