<svg xmlns="http://www.w3.org/2000/svg" viewBox="2.702709436416626 4.953333377838135 27.498332977294922 38.609657287597656" width="27.498332977294922" height="38.609657287597656"><path d="M 18.12 14.82 C 18.12 13.89, 18.225 14.010000000000002, 18.12 12.96 C 17.910000000000004 11.790000000000001, 17.925000000000004 11.655000000000001, 17.700000000000003 10.620000000000001 C 17.46 9.72, 17.46 9.540000000000001, 17.22 8.82 C 16.98 8.280000000000001, 16.980000000000004 8.190000000000001, 16.740000000000002 7.74 C 16.5 7.38, 16.604999999999997 7.364999999999999, 16.259999999999998 7.02 C 15.809999999999999 6.6899999999999995, 15.915 6.615, 15.36 6.36 C 14.7 6.18, 14.565 6.09, 14.04 6 C 13.649999999999999 6, 13.815 6, 13.26 6 C 12.54 6, 12.57 5.895, 11.82 6 C 11.04 6.21, 10.98 6.029999999999999, 10.26 6.42 C 9.6 6.99, 9.524999999999999 6.915000000000001, 8.94 7.5600000000000005 C 8.43 8.280000000000001, 8.52 8.01, 7.92 9 C 7.23 10.26, 7.110000000000001 10.065, 6.540000000000001 11.52 C 6.09 13.17, 6.045 12.93, 5.64 14.82 C 5.279999999999999 16.950000000000003, 5.145 17.25, 4.92 19.080000000000002 C 4.83 20.61, 4.92 20.55, 4.74 22.14 C 4.47 23.79, 4.454999999999999 23.715000000000003, 4.199999999999999 25.44 C 3.9599999999999995 27.240000000000002, 3.84 27.48, 3.7199999999999998 29.04 C 3.7199999999999998 30.36, 3.7199999999999998 30.33, 3.7199999999999998 31.68 C 3.7199999999999998 33.06, 3.7049999999999996 33.33, 3.7199999999999998 34.44 C 3.75 35.28, 3.63 35.084999999999994, 3.7800000000000002 36.12 C 4.050000000000001 37.349999999999994, 4.005000000000001 37.589999999999996, 4.32 38.58 C 4.68 39.33, 4.695 39.525, 5.04 40.08 C 5.369999999999999 40.44, 5.3549999999999995 40.5, 5.699999999999999 40.8 C 6.06 41.04, 6.105 41.07, 6.42 41.28 C 6.6899999999999995 41.46, 6.719999999999999 41.49, 6.959999999999999 41.64 C 7.17 41.760000000000005, 7.14 41.82, 7.38 41.88 C 7.65 41.88, 7.53 42.18000000000001, 7.92 41.88 C 8.43 41.28, 8.459999999999999 41.25, 8.94 40.68 C 9.39 40.14, 9.405 40.27499999999999, 9.84 39.599999999999994 C 10.26 38.79, 10.29 38.955, 10.68 37.980000000000004 C 11.04 36.84, 11.114999999999998 36.975, 11.399999999999999 35.7 C 11.61 34.290000000000006, 11.715 34.035000000000004, 11.82 32.88 C 11.82 31.98, 11.82 31.53, 11.82 31.08 C 11.82 31.08, 11.82 31.064999999999998, 11.82 31.08 C 11.82 31.11, 11.91 30.75, 11.82 31.14 C 11.64 31.89, 11.625 31.740000000000002, 11.459999999999999 32.64 C 11.309999999999999 33.69, 11.295 33.735, 11.16 34.74 C 11.04 35.7, 10.98 35.775000000000006, 10.92 36.660000000000004 C 10.92 37.47, 10.92 37.47, 10.92 38.28 C 10.92 39.09, 10.785 39.18000000000001, 10.92 39.900000000000006 C 11.19 40.53, 11.069999999999999 40.620000000000005, 11.459999999999999 41.160000000000004 C 11.969999999999999 41.61, 12.105 41.730000000000004, 12.48 42.06 C 12.72 42.27, 12.525 42.39, 12.96 42.480000000000004 C 13.59 42.45, 13.515 42.72, 14.22 42.42 C 15 41.85, 14.879999999999999 42.150000000000006, 15.78 41.28 C 16.8 40.11, 16.86 40.14, 17.82 38.94 C 18.72 37.71, 18.795 37.575, 19.62 36.480000000000004 C 20.37 35.52, 20.175 35.64, 21.12 34.56 C 22.259999999999998 33.36, 22.365 32.98500000000001, 23.4 32.160000000000004 C 24.33 31.71, 24.615 31.53, 25.259999999999998 31.259999999999998 C 25.619999999999997 31.169999999999998, 25.47 30.93, 25.98 31.08 C 26.64 31.47, 26.609999999999996 31.08, 27.299999999999997 31.86 C 28.02 33.03, 28.32 32.97, 28.740000000000002 34.2 C 28.86 35.49, 28.875 35.67, 28.98 36.78 C 29.07 37.71, 29.145000000000003 37.935, 29.160000000000004 38.64 C 29.1 39.12, 29.355 39.044999999999995, 29.04 39.599999999999994 C 28.47 40.23, 28.560000000000002 40.379999999999995, 27.900000000000002 40.86 C 27.150000000000002 41.19, 27.180000000000003 41.279999999999994, 26.400000000000002 41.519999999999996 C 25.590000000000003 41.67, 25.485 41.745, 24.78 41.82 C 24.18 41.82, 24.150000000000002 41.91, 23.580000000000002 41.82 C 23.04 41.64, 23.055 41.745000000000005, 22.5 41.46 C 21.93 41.07, 21.945 41.43, 21.36 40.68 C 20.759999999999998 39.57, 20.564999999999998 39.3, 20.16 38.46 C 19.950000000000003 37.89, 19.905 37.845, 19.740000000000002 37.32 C 19.62 36.84, 19.560000000000002 36.6, 19.5 36.36 C 19.5 36.36, 19.5 36.36, 19.5 36.36 L 19.5 36.36" fill="none" stroke="black" stroke-width="2"></path></svg>