<svg xmlns="http://www.w3.org/2000/svg" viewBox="5.7133331298828125 3.4600000381469727 16.46666717529297 41.220001220703125" width="16.46666717529297" height="41.220001220703125"><path d="M 16.44 10.32 C 16.44 9.6, 16.470000000000002 9.66, 16.44 8.879999999999999 C 16.380000000000003 8.04, 16.515 7.949999999999999, 16.32 7.199999999999999 C 15.99 6.539999999999999, 16.095 6.449999999999999, 15.66 5.88 C 15.120000000000001 5.4, 15.390000000000002 5.265, 14.580000000000002 4.92 C 13.5 4.71, 13.304999999999998 4.605, 12.419999999999998 4.5 C 11.73 4.5, 11.61 4.41, 11.040000000000001 4.5 C 10.59 4.68, 10.71 4.41, 10.14 4.86 C 9.45 5.58, 9.33 5.19, 8.76 6.300000000000001 C 8.31 7.800000000000001, 8.235 7.710000000000001, 7.86 9.3 C 7.5600000000000005 10.98, 7.455 11.025, 7.26 12.66 C 7.17 14.25, 7.215 13.605, 7.08 15.84 C 6.9 18.72, 6.8100000000000005 19.14, 6.720000000000001 21.6 C 6.720000000000001 23.64, 6.705000000000001 23.46, 6.720000000000001 25.68 C 6.75 28.08, 6.765 28.725, 6.779999999999999 30.48 C 6.779999999999999 31.590000000000003, 6.779999999999999 31.275000000000002, 6.779999999999999 32.7 C 6.779999999999999 34.44, 6.779999999999999 34.83, 6.779999999999999 36.18 C 6.779999999999999 37.14, 6.749999999999999 37.25999999999999, 6.779999999999999 38.099999999999994 C 6.84 38.81999999999999, 6.869999999999999 38.955, 6.8999999999999995 39.54 C 6.8999999999999995 39.989999999999995, 6.8999999999999995 40.019999999999996, 6.8999999999999995 40.44 C 6.8999999999999995 40.83, 6.8999999999999995 40.8, 6.8999999999999995 41.22 C 6.8999999999999995 41.67, 6.8999999999999995 41.775, 6.8999999999999995 42.12 C 6.8999999999999995 42.36, 6.8999999999999995 42.35999999999999, 6.8999999999999995 42.599999999999994 C 6.8999999999999995 42.839999999999996, 6.8999999999999995 42.809999999999995, 6.8999999999999995 43.08 C 6.8999999999999995 43.379999999999995, 6.8999999999999995 43.53, 6.8999999999999995 43.68 C 6.8999999999999995 43.68, 6.8999999999999995 43.68, 6.8999999999999995 43.68 L 6.8999999999999995 43.68" fill="none" stroke="black" stroke-width="2"></path><path d="M 7.5 17.88 C 7.86 17.88, 7.530000000000001 17.88, 8.22 17.88 C 9.24 17.88, 9.48 17.88, 10.26 17.88 C 10.8 17.88, 10.71 17.88, 11.34 17.88 C 12.059999999999999 17.88, 12.375 17.865, 12.78 17.88 C 12.870000000000001 17.91, 12.75 17.73, 12.96 17.94 C 13.290000000000001 18.33, 13.350000000000001 18.15, 13.620000000000001 18.72 C 13.83 19.47, 13.934999999999999 19.244999999999997, 14.04 20.22 C 14.04 21.42, 14.04 21.69, 14.04 22.62 C 14.04 23.28, 14.04 23.475, 14.04 23.94 C 14.04 24.21, 14.04 24.345, 14.04 24.48 C 14.04 24.48, 14.04 24.615000000000002, 14.04 24.48 C 14.04 24.21, 13.904999999999998 24.720000000000002, 14.04 23.94 C 14.31 22.65, 14.010000000000002 22.634999999999998, 14.580000000000002 21.36 C 15.450000000000001 20.1, 15.525000000000002 19.725, 16.32 18.84 C 17.04 18.33, 17.325 18.105, 17.759999999999998 17.82 C 17.909999999999997 17.76, 17.82 17.715000000000003, 18.06 17.700000000000003 C 18.39 17.73, 18.285 17.31, 18.72 17.759999999999998 C 19.259999999999998 18.63, 19.349999999999998 18.419999999999998, 19.799999999999997 19.5 C 20.159999999999997 20.79, 20.22 20.73, 20.52 22.080000000000002 C 20.759999999999998 23.490000000000002, 20.835 23.37, 21 24.900000000000002 C 21.09 26.550000000000004, 21.165 26.865000000000002, 21.18 28.200000000000003 C 21.119999999999997 29.220000000000002, 21.24 28.875, 21.06 30.240000000000002 C 20.759999999999998 31.950000000000003, 20.67 32.05500000000001, 20.46 33.660000000000004 C 20.34 35.160000000000004, 20.369999999999997 35.385000000000005, 20.22 36.660000000000004 C 20.04 37.71, 19.994999999999997 37.8, 19.86 38.76 C 19.77 39.629999999999995, 19.77 39.75, 19.68 40.5 C 19.59 41.129999999999995, 19.545 41.4, 19.5 41.76 C 19.5 41.849999999999994, 19.5 41.849999999999994, 19.5 41.94 C 19.5 42.03, 19.5 42.074999999999996, 19.5 42.12 C 19.5 42.12, 19.5 42.044999999999995, 19.5 42.12 C 19.5 42.269999999999996, 19.5 42.345, 19.5 42.42 C 19.5 42.42, 19.5 42.42, 19.5 42.42 C 19.5 42.42, 19.5 42.42, 19.5 42.42 C 19.5 42.42, 19.515 42.39, 19.5 42.42 L 19.44 42.54" fill="none" stroke="black" stroke-width="2"></path></svg>