<svg xmlns="http://www.w3.org/2000/svg" viewBox="11.9399995803833 3.8000001907348633 19.360000610351562 38.84852123260498" width="19.360000610351562" height="38.84852123260498"><path d="M 13.68 4.800000000000001 C 13.68 5.82, 13.754999999999999 5.325, 13.68 6.84 C 13.53 8.85, 13.559999999999999 8.504999999999999, 13.379999999999999 10.86 C 13.17 13.559999999999999, 13.065000000000001 13.814999999999998, 12.96 16.259999999999998 C 12.96 18.45, 12.915000000000001 18.9, 12.96 20.64 C 13.05 21.93, 12.96 22.244999999999997, 13.14 23.22 C 13.41 23.88, 13.44 23.82, 13.68 24.54 C 13.89 25.32, 13.815000000000001 25.214999999999996, 14.100000000000001 26.099999999999998 C 14.46 27.089999999999996, 14.46 27.374999999999996, 14.82 28.08 C 15.18 28.5, 15.149999999999999 28.5, 15.54 28.92 C 15.959999999999999 29.34, 15.794999999999998 29.354999999999997, 16.38 29.759999999999998 C 17.13 30.15, 16.935 30.284999999999997, 17.88 30.54 C 19.02 30.66, 18.585 30.705000000000002, 20.16 30.78 C 22.17 30.81, 22.26 30.869999999999997, 24.18 30.839999999999996 C 26.009999999999998 30.75, 26.309999999999995 30.855000000000004, 27.839999999999996 30.660000000000004 C 29.069999999999997 30.36, 29.684999999999995 30.21, 30.299999999999997 30.06 C 30.299999999999997 30.06, 30.299999999999997 30.06, 30.299999999999997 30.06 L 30.299999999999997 30.06" fill="none" stroke="black" stroke-width="2"></path><path d="M 13.86 10.86 C 14.7 12.72, 14.444999999999999 12.39, 15.54 14.580000000000002 C 16.89 17.1, 17.19 17.865000000000002, 18.240000000000002 19.62 C 18.990000000000002 20.61, 19.185000000000002 20.955000000000002, 19.740000000000002 21.6 C 20.1 21.900000000000002, 20.205000000000002 22.020000000000003, 20.46 22.200000000000003 C 20.61 22.26, 20.639999999999997 22.245, 20.759999999999998 22.32 C 20.85 22.41, 20.895 22.455, 20.94 22.5 C 20.94 22.5, 20.85 22.485, 20.94 22.5 C 21.119999999999997 22.53, 20.865 22.994999999999997, 21.299999999999997 22.56 C 21.99 21.659999999999997, 21.659999999999997 22.08, 22.68 20.759999999999998 C 24.03 19.02, 24.03 19.515, 25.380000000000003 17.28 C 26.73 14.55, 27.33 13.440000000000001, 28.08 11.82 C 28.23 11.31, 28.305 11.055, 28.380000000000003 10.8 C 28.380000000000003 10.8, 28.380000000000003 10.8, 28.380000000000003 10.8 L 28.380000000000003 10.8" fill="none" stroke="black" stroke-width="2"></path><path d="M 21.96 38.58 C 21.6 39.75, 21.285000000000004 40.155, 21.240000000000002 40.92 C 21.51 41.28, 21.495 41.715, 21.78 41.64 C 22.08 41.129999999999995, 22.23 41.129999999999995, 22.38 40.62 C 22.38 40.11, 22.619999999999997 39.959999999999994, 22.38 39.599999999999994 C 21.9 39.39, 21.779999999999998 38.894999999999996, 21.419999999999998 39.18 C 21.18 39.96, 20.94 40.14, 20.94 40.74 C 21.18 41.16, 21.09 41.595, 21.419999999999998 41.58 C 21.839999999999996 41.129999999999995, 22.169999999999998 41.19, 22.259999999999998 40.68 C 22.02 40.11, 22.185000000000002 39.66, 21.78 39.54 C 21.21 39.870000000000005, 20.925 39.825, 20.64 40.2 C 20.64 40.620000000000005, 20.490000000000002 40.86, 20.64 41.04 C 20.94 40.980000000000004, 21 41.265, 21.240000000000002 40.92 L 21.6 39.660000000000004" fill="none" stroke="black" stroke-width="2"></path></svg>