<svg xmlns="http://www.w3.org/2000/svg" viewBox="12.920000076293945 5.340000152587891 21.67999839782715 40.36000061035156" width="21.67999839782715" height="40.36000061035156"><path d="M 13.919999999999998 6.36 C 14.129999999999999 6.36, 13.934999999999999 6.315, 14.34 6.36 C 14.94 6.450000000000001, 15.03 6.450000000000001, 15.54 6.540000000000001 C 15.959999999999999 6.630000000000001, 15.884999999999998 6.570000000000001, 16.38 6.720000000000001 C 16.95 6.93, 16.95 6.915, 17.52 7.14 C 18.09 7.38, 18.060000000000002 7.35, 18.66 7.62 C 19.29 7.92, 19.395 7.950000000000001, 19.919999999999998 8.22 C 20.339999999999996 8.46, 20.339999999999996 8.37, 20.759999999999998 8.7 C 21.18 9.120000000000001, 21.225 9.030000000000001, 21.6 9.540000000000001 C 21.93 10.14, 21.974999999999998 10.095, 22.259999999999998 10.74 C 22.5 11.43, 22.485 11.490000000000002, 22.740000000000002 12.120000000000001 C 23.01 12.690000000000001, 23.07 12.51, 23.28 13.26 C 23.43 14.190000000000001, 23.445 14.190000000000001, 23.580000000000002 15.120000000000001 C 23.700000000000003 16.05, 23.685000000000002 16.05, 23.82 16.98 C 23.97 17.91, 24.014999999999997 17.939999999999998, 24.119999999999997 18.84 C 24.18 19.71, 24.21 19.71, 24.240000000000002 20.580000000000002 C 24.240000000000002 21.450000000000003, 24.240000000000002 21.375, 24.240000000000002 22.32 C 24.240000000000002 23.34, 24.240000000000002 23.265, 24.240000000000002 24.36 C 24.240000000000002 25.53, 24.240000000000002 25.815, 24.240000000000002 26.700000000000003 C 24.240000000000002 27.300000000000004, 24.240000000000002 27.21, 24.240000000000002 27.900000000000002 C 24.240000000000002 28.68, 24.315 28.68, 24.240000000000002 29.46 C 24.090000000000003 30.240000000000002, 24.195 30.09, 23.94 31.02 C 23.58 32.1, 23.549999999999997 32.295, 23.22 33.18 C 22.92 33.870000000000005, 22.995 33.78, 22.62 34.56 C 22.17 35.43, 22.169999999999998 35.489999999999995, 21.72 36.3 C 21.27 37.05, 21.21 37.14, 20.82 37.8 C 20.490000000000002 38.37, 20.445 38.44499999999999, 20.16 38.94 C 19.92 39.36, 20.145 39.195, 19.68 39.78 C 18.99 40.53, 18.959999999999997 40.575, 18.299999999999997 41.28 C 17.669999999999998 41.94, 17.7 41.99999999999999, 17.04 42.599999999999994 C 16.35 43.14, 16.17 43.26, 15.66 43.68 C 15.33 43.980000000000004, 15.254999999999999 44.04, 15 44.28 C 14.82 44.46, 14.73 44.55, 14.64 44.64 C 14.64 44.64, 14.670000000000002 44.625, 14.64 44.64 L 14.52 44.7" fill="none" stroke="black" stroke-width="2"></path><path d="M 24.660000000000004 17.46 C 24.660000000000004 17.16, 24.660000000000004 17.31, 24.660000000000004 16.86 C 24.660000000000004 16.259999999999998, 24.540000000000006 16.425, 24.660000000000004 15.66 C 24.900000000000002 14.73, 24.705000000000002 14.895, 25.14 13.799999999999999 C 25.770000000000003 12.54, 25.800000000000004 12.27, 26.400000000000002 11.28 C 26.97 10.559999999999999, 26.985 10.469999999999999, 27.54 9.84 C 28.08 9.3, 27.779999999999998 9.285, 28.619999999999997 8.76 C 29.759999999999998 8.25, 29.82 8.22, 30.900000000000002 7.74 C 31.92 7.29, 32.265 7.125, 32.94 6.84 C 33.269999999999996 6.720000000000001, 33.434999999999995 6.66, 33.599999999999994 6.6000000000000005 L 33.599999999999994 6.6000000000000005" fill="none" stroke="black" stroke-width="2"></path></svg>