<svg xmlns="http://www.w3.org/2000/svg" viewBox="6.679999828338623 4.400000095367432 18.920000076293945 41.35999822616577" width="18.920000076293945" height="41.35999822616577"><path d="M 13.98 44.76 C 13.23 43.47, 13.38 43.8, 12.48 42.18 C 11.43 40.230000000000004, 11.37 40.275, 10.379999999999999 38.28 C 9.45 36.24, 9.045 35.790000000000006, 8.52 34.2 C 8.399999999999999 33.06, 8.43 33.21, 8.28 31.92 C 8.1 30.48, 8.055 30.255, 7.92 29.04 C 7.83 28.049999999999997, 7.785 28.11, 7.74 27.06 C 7.74 25.949999999999996, 7.605 25.844999999999995, 7.74 24.839999999999996 C 8.01 23.939999999999998, 7.68 23.865, 8.28 23.04 C 9.21 22.29, 8.91 22.154999999999998, 10.14 21.54 C 11.670000000000002 21.060000000000002, 11.565000000000001 20.94, 13.200000000000001 20.580000000000002 C 14.940000000000001 20.340000000000003, 14.459999999999999 20.28, 16.68 20.1 C 19.380000000000003 19.98, 20.1 19.92, 22.080000000000002 19.86 C 23.34 19.86, 23.97 19.86, 24.599999999999998 19.86 L 24.599999999999998 19.86" fill="none" stroke="black" stroke-width="2"></path><path d="M 9.48 5.4 C 10.8 8.100000000000001, 10.71 8.190000000000001, 12.120000000000001 10.8 C 13.620000000000001 13.32, 14.310000000000002 14.475000000000001, 15.120000000000001 15.84 C 15.24 16.049999999999997, 15.3 16.154999999999998, 15.36 16.259999999999998 C 15.36 16.259999999999998, 15.36 16.259999999999998, 15.36 16.259999999999998 C 15.36 16.259999999999998, 15.36 16.259999999999998, 15.36 16.259999999999998 C 15.36 16.259999999999998, 14.879999999999999 16.964999999999996, 15.36 16.259999999999998 C 16.32 14.85, 15.975000000000001 15.600000000000001, 17.28 13.440000000000001 C 18.93 10.530000000000001, 19.680000000000003 9.15, 20.580000000000002 7.62 C 20.73 7.470000000000001, 20.805 7.3950000000000005, 20.88 7.32 C 20.88 7.32, 20.88 7.32, 20.88 7.32 L 20.88 7.32" fill="none" stroke="black" stroke-width="2"></path></svg>