<svg xmlns="http://www.w3.org/2000/svg" viewBox="9.920000076293945 4.860000133514404 25.46000099182129 41.980000019073486" width="25.46000099182129" height="41.980000019073486"><path d="M 10.92 27.839999999999996 C 10.98 27.9, 10.845 28.455, 11.040000000000001 27.96 C 11.370000000000001 26.91, 11.535 27.24, 11.7 25.86 C 11.7 24.15, 11.7 24.225, 11.7 22.44 C 11.7 20.58, 11.7 20.22, 11.7 18.72 C 11.7 17.58, 11.7 17.55, 11.7 16.44 C 11.7 15.36, 11.625 15.18, 11.7 14.28 C 11.85 13.559999999999999, 11.58 14.115, 12 12.84 C 12.69 11.01, 12.735 10.635, 13.379999999999999 9.18 C 13.98 8.1, 14.070000000000002 7.77, 14.580000000000002 7.02 C 15 6.6, 14.895 6.449999999999999, 15.419999999999998 6.18 C 16.049999999999997 6.06, 16.215 6, 16.68 5.9399999999999995 C 16.98 5.9399999999999995, 16.92 5.76, 17.28 5.9399999999999995 C 17.700000000000003 6.3, 17.565 6.075, 18.12 6.66 C 18.810000000000002 7.47, 18.975 7.455, 19.5 8.28 C 19.86 9.12, 19.875 8.895, 20.22 9.959999999999999 C 20.549999999999997 11.25, 20.58 10.634999999999998, 20.88 12.54 C 21.15 15.06, 21.284999999999997 15.765000000000002, 21.419999999999998 17.580000000000002 C 21.419999999999998 18.689999999999998, 21.419999999999998 19.214999999999996, 21.419999999999998 19.799999999999997 C 21.419999999999998 19.86, 21.419999999999998 19.889999999999997, 21.419999999999998 19.919999999999998 C 21.419999999999998 19.919999999999998, 21.419999999999998 19.919999999999998, 21.419999999999998 19.919999999999998 C 21.419999999999998 19.919999999999998, 21.314999999999998 20.025, 21.419999999999998 19.919999999999998 C 21.63 19.71, 21.57 19.74, 21.84 19.5 C 22.17 19.23, 22.064999999999998 19.125, 22.5 18.96 C 23.04 18.9, 22.86 18.87, 23.580000000000002 18.84 C 24.480000000000004 18.84, 24.480000000000004 18.78, 25.380000000000003 18.84 C 26.28 18.96, 26.295 18.885, 27.18 19.080000000000002 C 28.05 19.35, 28.32 19.335, 28.92 19.62 C 29.25 19.92, 29.22 19.814999999999998, 29.58 20.22 C 29.97 20.73, 30 20.625, 30.36 21.240000000000002 C 30.689999999999998 21.96, 30.855 22.005, 31.02 22.68 C 31.02 23.310000000000002, 31.02 23.325000000000003, 31.02 23.94 C 31.02 24.54, 31.02 24.435000000000002, 31.02 25.14 C 31.02 25.95, 31.02 26.354999999999997, 31.02 26.759999999999998 C 31.02 26.759999999999998, 31.02 26.759999999999998, 31.02 26.759999999999998 C 31.02 26.759999999999998, 31.02 26.729999999999997, 31.02 26.759999999999998 L 31.02 26.880000000000003" fill="none" stroke="black" stroke-width="2"></path><path d="M 20.16 10.08 C 20.310000000000002 9.989999999999998, 20.19 10.004999999999999, 20.46 9.899999999999999 C 20.85 9.78, 20.685000000000002 9.719999999999999, 21.240000000000002 9.66 C 21.96 9.66, 22.08 9.57, 22.68 9.66 C 23.16 9.84, 23.175 9.719999999999999, 23.64 10.02 C 24.09 10.44, 24.09 10.29, 24.54 10.86 C 24.990000000000002 11.579999999999998, 25.05 11.474999999999998, 25.44 12.299999999999999 C 25.77 13.23, 25.889999999999997 13.575, 26.099999999999998 14.16 C 26.189999999999998 14.4, 26.19 14.4, 26.28 14.64 C 26.37 14.88, 26.415 15, 26.46 15.120000000000001 C 26.46 15.120000000000001, 26.43 15.105, 26.46 15.120000000000001 C 26.52 15.15, 26.49 15.465, 26.58 15.18 C 26.7 14.58, 26.655 14.58, 26.82 13.98 C 27.03 13.379999999999999, 26.85 13.545, 27.240000000000002 12.78 C 27.810000000000002 11.85, 27.735000000000003 11.625, 28.380000000000003 10.92 C 29.1 10.44, 28.814999999999998 10.245, 29.82 9.959999999999999 C 31.110000000000003 9.87, 31.380000000000003 9.825, 32.400000000000006 9.78 C 33.150000000000006 9.78, 33.40500000000001 9.764999999999999, 33.900000000000006 9.78 L 34.38 9.84" fill="none" stroke="black" stroke-width="2"></path><path d="M 21.72 19.86 C 21.54 20.490000000000002, 21.54 20.085, 21.36 21.12 C 21.18 22.560000000000002, 21.09 22.605, 21 24 C 21 25.35, 20.805 25.155, 21 26.700000000000003 C 21.39 28.44, 21.135 28.89, 21.78 30.18 C 22.68 31.02, 22.605000000000004 31.305, 23.580000000000002 31.86 C 24.630000000000003 32.13, 24.57 32.175000000000004, 25.68 32.400000000000006 C 26.85 32.58, 27.165 32.595, 28.02 32.76 C 28.56 32.91, 28.694999999999997 32.925000000000004, 29.099999999999998 33.06 C 29.369999999999997 33.18, 29.43 33.209999999999994, 29.64 33.3 C 29.79 33.36, 29.865000000000002 33.39, 29.94 33.42 C 29.94 33.42, 29.895000000000003 33.375, 29.94 33.42 C 30.03 33.51, 30.075 33.55499999999999, 30.119999999999997 33.599999999999994 C 30.119999999999997 33.599999999999994, 30.074999999999996 33.55499999999999, 30.119999999999997 33.599999999999994 C 30.209999999999997 33.69, 30.254999999999995 33.735, 30.299999999999997 33.78 C 30.299999999999997 33.78, 30.359999999999996 33.660000000000004, 30.299999999999997 33.78 C 30.18 34.019999999999996, 30.375 34.019999999999996, 30.06 34.26 C 29.549999999999997 34.5, 29.775 34.455, 29.04 34.74 C 28.08 35.07000000000001, 27.93 35.160000000000004, 27.119999999999997 35.400000000000006 C 26.459999999999997 35.550000000000004, 26.789999999999996 35.370000000000005, 25.799999999999997 35.7 C 24.479999999999997 36.21, 24.465 36.165, 23.16 36.72 C 21.87 37.32, 21.720000000000002 37.215, 20.580000000000002 37.92 C 19.590000000000003 38.730000000000004, 19.380000000000003 38.61, 18.6 39.54 C 18.03 40.59, 17.805 40.755, 17.46 41.64 C 17.34 42.36, 17.31 42.285, 17.22 43.08 C 17.16 43.95, 17.130000000000003 44.175, 17.1 44.82 C 17.1 45.24, 17.1 45.405, 17.1 45.660000000000004 C 17.1 45.75, 17.1 45.795, 17.1 45.839999999999996 L 17.1 45.839999999999996" fill="none" stroke="black" stroke-width="2"></path><path d="M 11.7 34.68 C 12.84 34.68, 13.08 34.62, 13.98 34.68 C 14.64 34.8, 14.52 34.635000000000005, 15.299999999999999 34.92 C 16.2 35.370000000000005, 16.335 35.325, 17.1 35.82 C 17.73 36.36, 17.835 36.45, 18.36 36.900000000000006 C 18.78 37.260000000000005, 18.855000000000004 37.245, 19.200000000000003 37.62 C 19.470000000000002 38.010000000000005, 19.605000000000004 38.205000000000005, 19.740000000000002 38.400000000000006 C 19.740000000000002 38.400000000000006, 19.740000000000002 38.400000000000006, 19.740000000000002 38.400000000000006 L 19.740000000000002 38.400000000000006" fill="none" stroke="black" stroke-width="2"></path></svg>