<svg xmlns="http://www.w3.org/2000/svg" viewBox="9.286666870117188 4.519999980926514 24.06666660308838 42.799999713897705" width="24.06666660308838" height="42.799999713897705"><path d="M 11.040000000000001 29.099999999999998 C 10.68 26.699999999999996, 10.5 26.729999999999997, 10.32 24.299999999999997 C 10.32 21.839999999999996, 10.32 21.435, 10.32 19.38 C 10.32 17.73, 10.32 17.535000000000004, 10.32 16.080000000000002 C 10.32 14.82, 10.245000000000001 14.76, 10.32 13.559999999999999 C 10.47 12.419999999999998, 10.425 12.239999999999998, 10.620000000000001 11.28 C 10.860000000000001 10.5, 10.770000000000001 10.59, 11.100000000000001 9.72 C 11.52 8.760000000000002, 11.535 8.58, 11.94 7.800000000000001 C 12.33 7.200000000000001, 12.315000000000001 7.080000000000001, 12.72 6.6000000000000005 C 13.14 6.24, 13.184999999999999 6.15, 13.559999999999999 5.88 C 13.89 5.7, 13.815000000000001 5.58, 14.22 5.5200000000000005 C 14.7 5.58, 14.79 5.505, 15.18 5.64 C 15.48 5.85, 15.389999999999999 5.640000000000001, 15.78 6.0600000000000005 C 16.26 6.69, 16.215000000000003 6.405, 16.740000000000002 7.32 C 17.310000000000002 8.52, 17.355 8.4, 17.88 9.72 C 18.36 11.16, 18.509999999999998 11.355, 18.84 12.600000000000001 C 19.020000000000003 13.650000000000002, 18.990000000000002 13.335, 19.200000000000003 14.700000000000001 C 19.44 16.38, 19.545 17.145, 19.68 18.06 C 19.71 18.21, 19.665000000000003 17.985, 19.740000000000002 18.36 C 19.86 18.96, 19.92 19.259999999999998, 19.98 19.56 C 19.98 19.56, 19.98 19.56, 19.98 19.56 C 19.98 19.56, 19.98 19.56, 19.98 19.56 C 19.98 19.56, 19.98 19.56, 19.98 19.56 C 19.98 19.56, 19.95 19.544999999999998, 19.98 19.56 C 20.04 19.59, 19.905 19.68, 20.1 19.62 C 20.43 19.47, 20.174999999999997 19.47, 20.759999999999998 19.32 C 21.6 19.17, 21.585 19.155, 22.44 19.02 C 23.310000000000002 18.9, 23.505 18.885, 24.18 18.78 C 24.66 18.69, 24.630000000000003 18.645000000000003, 25.14 18.6 C 25.68 18.6, 25.589999999999996 18.42, 26.22 18.6 C 26.94 18.96, 27.015000000000004 18.975, 27.660000000000004 19.32 C 28.23 19.65, 28.394999999999996 19.65, 28.799999999999997 19.98 C 29.04 20.310000000000002, 29.009999999999998 20.175, 29.28 20.64 C 29.580000000000002 21.240000000000002, 29.685000000000002 21.314999999999998, 29.880000000000003 21.84 C 29.97 22.29, 30.015 22.245, 30.06 22.740000000000002 C 30.06 23.28, 30.06 23.205, 30.06 23.82 C 30.06 24.51, 30.075 24.615000000000002, 30.06 25.200000000000003 C 30.03 25.680000000000003, 30.044999999999998 25.845000000000006, 30 26.160000000000004 C 29.94 26.310000000000002, 29.910000000000004 26.340000000000003, 29.880000000000003 26.46 C 29.880000000000003 26.55, 29.925000000000004 26.565, 29.880000000000003 26.64 L 29.700000000000003 26.759999999999998" fill="none" stroke="black" stroke-width="2"></path><path d="M 17.64 10.14 C 17.79 10.14, 17.835 10.14, 17.94 10.14 C 18 10.14, 17.775 10.275, 18.06 10.14 C 18.57 9.870000000000001, 18.525000000000002 9.825000000000001, 19.080000000000002 9.600000000000001 C 19.68 9.420000000000002, 19.785000000000004 9.3, 20.28 9.24 C 20.67 9.3, 20.655 9.135, 21.06 9.36 C 21.479999999999997 9.75, 21.404999999999998 9.555, 21.9 10.14 C 22.47 10.92, 22.56 10.875, 23.04 11.7 C 23.43 12.57, 23.46 12.66, 23.82 13.440000000000001 C 24.15 14.13, 24.3 14.43, 24.48 14.82 C 24.509999999999998 14.91, 24.525 14.955, 24.54 15 C 24.54 15, 24.509999999999998 14.94, 24.54 15 C 24.6 15.120000000000001, 24.630000000000003 15.344999999999999, 24.660000000000004 15.24 C 24.660000000000004 14.91, 24.615000000000006 15.21, 24.660000000000004 14.580000000000002 C 24.75 13.650000000000002, 24.615 13.665000000000001, 24.839999999999996 12.72 C 25.199999999999996 11.760000000000002, 25.139999999999997 11.58, 25.56 10.8 C 26.04 10.200000000000001, 25.74 10.05, 26.52 9.600000000000001 C 27.6 9.3, 27.9 9.15, 28.68 9 C 29.16 9, 29.325 9, 29.64 9 C 29.79 9, 29.700000000000003 8.94, 29.94 9 L 30.599999999999998 9.24" fill="none" stroke="black" stroke-width="2"></path><path d="M 20.4 19.200000000000003 C 20.369999999999997 19.53, 20.384999999999998 19.259999999999998, 20.34 19.86 C 20.28 20.73, 20.265 20.445, 20.22 21.6 C 20.189999999999998 23.04, 20.1 23.01, 20.16 24.48 C 20.310000000000002 25.98, 20.115000000000002 26.34, 20.46 27.48 C 21 28.259999999999998, 20.985 28.439999999999998, 21.54 29.04 C 22.11 29.46, 21.915 29.385, 22.68 29.880000000000003 C 23.64 30.450000000000003, 23.61 30.645, 24.599999999999998 31.02 C 25.619999999999997 31.200000000000003, 25.74 31.245000000000005, 26.64 31.380000000000003 C 27.42 31.47, 27.360000000000003 31.439999999999998, 28.200000000000003 31.56 C 29.1 31.71, 29.205 31.634999999999998, 30 31.86 C 30.69 32.16, 30.870000000000005 32.205, 31.380000000000003 32.46 C 31.71 32.67, 31.83 32.730000000000004, 32.04 32.88 C 32.129999999999995 32.97, 32.175 33.015, 32.22 33.06 C 32.22 33.06, 32.22 33.06, 32.22 33.06 C 32.22 33.06, 32.519999999999996 32.895, 32.22 33.06 C 31.619999999999997 33.39, 31.619999999999997 33.42, 31.02 33.72 C 30.42 33.989999999999995, 30.66 33.959999999999994, 29.82 34.26 C 28.740000000000002 34.59, 28.815000000000005 34.620000000000005, 27.660000000000004 34.92 C 26.430000000000003 35.19, 26.460000000000004 35.055, 25.200000000000003 35.46 C 23.910000000000004 36, 23.64 36.03, 22.62 36.54 C 21.87 37.019999999999996, 22.185000000000002 36.72, 21.12 37.5 C 19.740000000000002 38.58, 19.47 38.67, 18.36 39.660000000000004 C 17.52 40.56, 17.28 40.545, 16.68 41.46 C 16.32 42.39, 16.14 42.45, 15.96 43.32 C 15.96 44.129999999999995, 15.96 44.31, 15.96 44.94 C 15.96 45.39, 15.96 45.495, 15.96 45.839999999999996 C 15.96 46.08, 15.96 46.2, 15.96 46.32 L 15.96 46.32" fill="none" stroke="black" stroke-width="2"></path></svg>