<svg xmlns="http://www.w3.org/2000/svg" viewBox="10.846667289733887 3.9200000762939453 18.473331451416016 41.05999946594238" width="18.473331451416016" height="41.05999946594238"><path d="M 13.14 43.980000000000004 C 12.93 43.32000000000001, 12.990000000000002 44.25000000000001, 12.72 42.660000000000004 C 12.39 40.14, 12.239999999999998 39.87, 12.059999999999999 37.62 C 12.03 35.64, 12.045 35.370000000000005, 12 33.660000000000004 C 11.94 32.22, 11.91 32.175000000000004, 11.879999999999999 30.78 C 11.879999999999999 29.43, 11.879999999999999 29.25, 11.879999999999999 28.08 C 11.879999999999999 27.089999999999996, 11.879999999999999 26.939999999999998, 11.879999999999999 26.099999999999998 C 11.879999999999999 25.409999999999997, 11.805 25.305, 11.879999999999999 24.72 C 12.03 24.24, 11.925 24.299999999999997, 12.18 23.759999999999998 C 12.54 23.159999999999997, 12.509999999999998 23.084999999999997, 12.899999999999999 22.56 C 13.32 22.11, 13.245000000000001 22.035, 13.74 21.66 C 14.309999999999999 21.36, 14.19 21.36, 14.879999999999999 21.06 C 15.69 20.759999999999998, 15.735 20.64, 16.5 20.46 C 17.22 20.4, 16.740000000000002 20.52, 17.94 20.34 C 19.619999999999997 20.04, 19.514999999999997 20.040000000000003, 21.299999999999997 19.740000000000002 C 23.189999999999998 19.44, 23.639999999999997 19.335, 25.08 19.14 C 26.07 19.05, 26.369999999999997 19.005000000000003, 27.06 18.96 C 27.449999999999996 18.96, 27.524999999999995 18.96, 27.839999999999996 18.96 C 28.08 18.96, 28.2 18.96, 28.32 18.96 L 28.32 18.96" fill="none" stroke="black" stroke-width="2"></path><path d="M 12.120000000000001 4.92 C 12.420000000000002 5.88, 12.270000000000001 5.73, 12.72 6.84 C 13.32 8.1, 13.274999999999999 8.084999999999999, 13.919999999999998 9.36 C 14.61 10.649999999999999, 14.669999999999998 10.77, 15.299999999999999 11.94 C 15.870000000000001 12.989999999999998, 15.930000000000001 13.17, 16.44 14.04 C 16.89 14.729999999999999, 16.92 14.79, 17.34 15.419999999999998 C 17.73 15.989999999999998, 17.835 16.095, 18.12 16.56 C 18.3 16.92, 18.225 16.86, 18.48 17.28 C 18.810000000000002 17.76, 18.84 17.82, 19.14 18.240000000000002 C 19.41 18.6, 19.545 18.78, 19.68 18.96 C 19.68 18.96, 19.56 18.84, 19.68 18.96 C 19.92 19.200000000000003, 20.04 19.32, 20.16 19.44 C 20.16 19.44, 19.995 19.5, 20.16 19.44 C 20.490000000000002 19.32, 20.295 19.980000000000004, 20.82 19.200000000000003 C 21.54 17.76, 21.584999999999997 17.97, 22.259999999999998 16.32 C 22.89 14.46, 22.95 14.190000000000001, 23.52 12.600000000000001 C 24.03 11.280000000000001, 24.18 10.86, 24.54 9.959999999999999 C 24.75 9.48, 24.66 9.615, 24.96 9 C 25.35 8.25, 25.455000000000002 8.07, 25.740000000000002 7.5 C 25.92 7.11, 25.964999999999996 7.08, 26.099999999999998 6.720000000000001 C 26.189999999999998 6.390000000000001, 26.19 6.300000000000001, 26.28 6.0600000000000005 C 26.37 5.91, 26.415 5.835, 26.46 5.76 C 26.46 5.76, 26.46 5.76, 26.46 5.76 L 26.46 5.76" fill="none" stroke="black" stroke-width="2"></path><path d="M 21.419999999999998 27.299999999999997 C 20.97 27.659999999999997, 20.759999999999998 27.689999999999998, 20.52 28.02 C 20.490000000000002 28.32, 20.475 28.275, 20.46 28.619999999999997 C 20.46 29.009999999999998, 20.385 29.175, 20.46 29.400000000000002 C 20.61 29.46, 20.474999999999998 29.745, 20.759999999999998 29.52 C 21.18 29.009999999999998, 21.39 28.86, 21.6 28.5 C 21.6 28.29, 21.6 28.229999999999997, 21.6 28.08 C 21.6 27.990000000000002, 21.900000000000002 27.855000000000004, 21.6 27.900000000000002 C 21 28.08, 20.715 27.93, 20.4 28.259999999999998 C 20.369999999999997 28.74, 20.355 28.86, 20.34 29.22 C 20.34 29.46, 20.34 29.565000000000005, 20.34 29.700000000000003 C 20.34 29.73, 20.22 29.729999999999997, 20.34 29.759999999999998 C 20.58 29.79, 20.67 29.925, 20.82 29.82 C 20.880000000000003 29.58, 20.91 29.58, 20.94 29.339999999999996 C 20.94 29.099999999999998, 20.94 28.979999999999997, 20.94 28.86 C 20.94 28.86, 20.94 28.875, 20.94 28.86 C 20.94 28.83, 20.94 28.799999999999997, 20.94 28.799999999999997 L 20.94 28.86" fill="none" stroke="black" stroke-width="2"></path><path d="M 17.52 36.54 C 17.85 36.45, 17.625 36.495, 18.18 36.36 C 18.96 36.18, 18.540000000000003 36.255, 19.740000000000002 36 C 21.36 35.67, 21.51 35.61, 22.98 35.339999999999996 C 24.299999999999997 35.129999999999995, 24.779999999999998 35.025, 25.619999999999997 34.92 C 25.979999999999997 34.92, 26.114999999999995 34.92, 26.339999999999996 34.92 C 26.43 34.92, 26.474999999999998 34.92, 26.52 34.92 L 26.52 34.92" fill="none" stroke="black" stroke-width="2"></path></svg>