<svg xmlns="http://www.w3.org/2000/svg" viewBox="7.340000152587891 1.4000000953674316 29.69829559326172 44.08648681640625" width="29.69829559326172" height="44.08648681640625"><path d="M 13.68 2.4000000000000004 C 13.59 3.6300000000000003, 13.74 2.7900000000000005, 13.5 4.86 C 13.11 7.77, 13.125 7.904999999999999, 12.72 10.68 C 12.3 13.32, 12.27 12.690000000000001, 11.879999999999999 15.96 C 11.52 19.86, 11.61 20.04, 11.16 23.759999999999998 C 10.620000000000001 27.299999999999997, 10.59 27.359999999999996, 10.08 30.839999999999996 C 9.600000000000001 34.26, 9.540000000000001 34.935, 9.120000000000001 37.68 C 8.76 39.75, 8.579999999999998 40.515, 8.399999999999999 41.82 C 8.399999999999999 42.36, 8.264999999999999 42.39000000000001, 8.399999999999999 42.900000000000006 C 8.669999999999998 43.38, 8.61 43.485, 8.94 43.86 C 9.33 44.13, 9.3 44.25000000000001, 9.72 44.400000000000006 C 10.170000000000002 44.43000000000001, 10.14 44.535000000000004, 10.620000000000001 44.46 C 11.13 44.28, 11.115 44.59499999999999, 11.64 44.099999999999994 C 12.18 43.29, 11.535 44.52, 12.72 42.480000000000004 C 14.55 39.21, 14.61 39.39, 16.38 35.94 C 18.089999999999996 32.31, 18.869999999999997 30.794999999999998, 19.799999999999997 28.68 C 19.95 28.08, 20.025 27.78, 20.1 27.48 C 20.1 27.48, 20.1 27.48, 20.1 27.48 C 20.1 27.48, 20.445 26.82, 20.1 27.48 C 19.41 28.799999999999997, 19.485 28.199999999999996, 18.72 30.119999999999997 C 17.88 32.64, 17.564999999999998 32.97, 17.04 35.160000000000004 C 16.83 37.02, 16.725 37.605000000000004, 16.62 38.88 C 16.62 39.57, 16.485 39.464999999999996, 16.62 40.26 C 16.89 41.16, 16.77 41.445, 17.16 42.06 C 17.67 42.39, 17.55 42.45, 18.18 42.72 C 18.93 42.93, 18.72 43.41, 19.68 43.14 C 20.85 42.39, 20.43 43.14, 22.02 41.64 C 24.03 39.39, 23.73 39.57, 26.04 37.14 C 28.65 34.53, 29.519999999999996 33.465, 31.259999999999998 31.92 C 32.129999999999995 31.44, 32.46 31.200000000000003, 33 30.96 C 33.21 30.96, 32.94 30.525, 33.42 30.96 C 34.17 31.830000000000002, 34.32 31.335, 34.92 32.7 C 35.370000000000005 34.56, 35.58 34.935, 35.82 36.42 C 35.85 37.53, 36.255 37.275, 35.88 38.64 C 35.1 40.260000000000005, 35.19 40.665000000000006, 34.32 41.88 C 33.36 42.69, 33.19500000000001 43.05, 32.400000000000006 43.5 C 31.770000000000003 43.59, 31.875 43.769999999999996, 31.14 43.68 C 30.3 43.41, 30.315 43.845, 29.46 43.14 C 28.59 42, 28.215 41.745000000000005, 27.72 40.86 C 27.6 40.23, 27.585 40.08, 27.48 39.599999999999994 C 27.39 39.269999999999996, 27.509999999999998 39.315, 27.299999999999997 38.94 C 26.97 38.519999999999996, 26.955 38.519999999999996, 26.64 38.099999999999994 C 26.34 37.67999999999999, 26.31 37.754999999999995, 26.04 37.26 C 25.799999999999997 36.69, 25.695 36.525, 25.56 36.12 C 25.53 35.879999999999995, 25.515 35.79, 25.5 35.64 L 25.5 35.519999999999996" fill="none" stroke="black" stroke-width="2"></path><path d="M 13.080000000000002 8.28 C 13.830000000000002 9.96, 13.590000000000003 9.615, 14.580000000000002 11.64 C 15.81 14.01, 15.945 14.594999999999999, 17.04 16.38 C 18 17.58, 18.36 18.060000000000002, 18.96 18.78 C 19.200000000000003 19.02, 19.095000000000002 18.915, 19.44 19.259999999999998 C 19.89 19.71, 19.965 19.77, 20.34 20.16 C 20.64 20.490000000000002, 20.715 20.595, 20.94 20.82 C 21.090000000000003 20.939999999999998, 21.120000000000005 21, 21.240000000000002 21.06 C 21.33 21.06, 20.985 21.299999999999997, 21.419999999999998 21.06 C 22.2 20.58, 20.52 22.095, 22.98 20.1 C 27.119999999999997 16.590000000000003, 28.724999999999998 15.270000000000003, 31.259999999999998 13.080000000000002 C 32.19 12.21, 32.58 11.82, 33.12 11.34 C 33.269999999999996 11.25, 33.345 11.205, 33.42 11.16 C 33.42 11.16, 33.42 11.16, 33.42 11.16 C 33.42 11.16, 33.42 11.16, 33.42 11.16 C 33.42 11.16, 33.33 11.25, 33.42 11.16 C 33.6 10.98, 33.69 10.89, 33.78 10.8 L 33.78 10.8" fill="none" stroke="black" stroke-width="2"></path></svg>