<svg xmlns="http://www.w3.org/2000/svg" viewBox="15.559999465942383 3.320000171661377 19.3266658782959 37.27999830245972" width="19.3266658782959" height="37.27999830245972"><path d="M 16.56 17.88 C 17.7 17.759999999999998, 16.919999999999998 17.73, 18.84 17.64 C 21.54 17.58, 21.885 17.685, 24.240000000000002 17.52 C 26.25 17.25, 26.744999999999997 17.115000000000002, 28.259999999999998 16.98 C 29.279999999999998 16.98, 29.595 16.98, 30.299999999999997 16.98 C 30.689999999999998 16.98, 30.689999999999998 16.95, 31.08 16.98 C 31.47 17.04, 31.5 16.92, 31.86 17.1 C 32.19 17.400000000000002, 32.084999999999994 17.160000000000004, 32.519999999999996 17.700000000000003 C 33.059999999999995 18.48, 33.269999999999996 18.255, 33.599999999999994 19.259999999999998 C 33.72 20.49, 33.779999999999994 20.115, 33.839999999999996 21.72 C 33.839999999999996 23.7, 33.94499999999999 23.445, 33.839999999999996 25.68 C 33.629999999999995 28.17, 33.735 27.990000000000002, 33.42 30.660000000000004 C 33 33.510000000000005, 32.864999999999995 34.29, 32.58 36.36 C 32.43 37.65, 32.400000000000006 38.129999999999995, 32.28 38.94 C 32.19 39.269999999999996, 32.144999999999996 39.434999999999995, 32.099999999999994 39.599999999999994 C 32.099999999999994 39.599999999999994, 32.099999999999994 39.599999999999994, 32.099999999999994 39.599999999999994 C 32.099999999999994 39.599999999999994, 32.099999999999994 39.599999999999994, 32.099999999999994 39.599999999999994 L 32.099999999999994 39.599999999999994" fill="none" stroke="black" stroke-width="2"></path><path d="M 23.04 26.64 C 22.919999999999998 27.33, 22.694999999999997 27.509999999999998, 22.799999999999997 28.02 C 23.13 28.35, 23.01 28.71, 23.46 28.68 C 24.03 28.29, 24.345 28.470000000000002, 24.599999999999998 27.900000000000002 C 24.54 27.150000000000002, 24.645 26.835, 24.48 26.400000000000002 C 24.21 26.28, 24.240000000000002 25.755000000000003, 23.94 26.160000000000004 C 23.61 27.090000000000003, 23.325000000000003 27.195, 23.28 28.02 C 23.52 28.740000000000002, 23.474999999999998 29.1, 23.759999999999998 29.46 C 24.09 29.46, 24.18 29.895000000000003, 24.42 29.46 C 24.57 28.59, 24.72 28.244999999999997, 24.72 27.72 C 24.57 27.54, 24.54 27.45, 24.42 27.36 L 24.240000000000002 27.36" fill="none" stroke="black" stroke-width="2"></path><path d="M 18.9 4.38 C 19.229999999999997 5.34, 18.794999999999998 4.5600000000000005, 19.56 6.300000000000001 C 20.759999999999998 8.82, 20.97 9.405000000000001, 21.96 11.34 C 22.740000000000002 12.69, 22.965 13.155, 23.52 14.04 C 23.85 14.459999999999999, 23.91 14.504999999999999, 24.18 14.879999999999999 C 24.39 15.209999999999999, 24.314999999999998 15.149999999999999, 24.599999999999998 15.54 C 24.96 15.99, 25.11 16.17, 25.32 16.44 C 25.380000000000003 16.53, 25.365000000000002 16.53, 25.44 16.62 C 25.53 16.71, 25.575 16.755, 25.619999999999997 16.799999999999997 C 25.619999999999997 16.799999999999997, 25.484999999999996 16.904999999999998, 25.619999999999997 16.799999999999997 C 25.89 16.589999999999996, 25.650000000000002 17.354999999999997, 26.160000000000004 16.38 C 26.910000000000004 14.639999999999999, 26.775000000000006 15.075, 27.660000000000004 12.899999999999999 C 28.680000000000003 10.29, 28.92 9.57, 29.700000000000003 7.68 C 30.240000000000002 6.51, 30.39 6.18, 30.78 5.34 C 31.02 4.83, 31.14 4.575, 31.259999999999998 4.32 C 31.259999999999998 4.32, 31.259999999999998 4.32, 31.259999999999998 4.32 L 31.259999999999998 4.32" fill="none" stroke="black" stroke-width="2"></path></svg>