<svg xmlns="http://www.w3.org/2000/svg" viewBox="14.359999656677246 3.8000001907348633 19.579998016357422 40.780001640319824" width="19.579998016357422" height="40.780001640319824"><path d="M 15.96 16.200000000000003 C 16.950000000000003 16.200000000000003, 16.53 16.260000000000005, 17.94 16.200000000000003 C 19.770000000000003 16.080000000000002, 20.115000000000002 16.065, 21.6 15.96 C 22.740000000000002 15.870000000000001, 22.994999999999997 15.825, 23.88 15.78 C 24.509999999999998 15.78, 24.465 15.75, 25.14 15.78 C 25.86 15.84, 25.979999999999997 15.794999999999998, 26.58 15.899999999999999 C 27.06 16.05, 27.03 16.020000000000003, 27.54 16.200000000000003 C 28.08 16.410000000000004, 28.184999999999995 16.44, 28.619999999999997 16.62 C 28.95 16.77, 28.875 16.544999999999998, 29.28 16.919999999999998 C 29.76 17.52, 29.865000000000002 17.1, 30.240000000000002 18.12 C 30.51 19.560000000000002, 30.6 19.815, 30.78 21 C 30.87 21.93, 30.915 21.869999999999997, 30.96 22.86 C 30.96 23.91, 30.96 24.285, 30.96 24.96 C 30.96 25.259999999999998, 30.96 25.41, 30.96 25.56 L 30.96 25.56" fill="none" stroke="black" stroke-width="2"></path><path d="M 18.36 4.800000000000001 C 18.990000000000002 6.210000000000001, 18.975 6.285, 19.62 7.62 C 20.28 8.88, 20.325000000000003 8.88, 20.94 10.14 C 21.51 11.4, 21.69 11.82, 22.080000000000002 12.66 C 22.29 13.08, 22.29 13.125, 22.5 13.5 C 22.71 13.83, 22.695 13.785, 22.919999999999998 14.16 C 23.159999999999997 14.58, 23.25 14.745000000000001, 23.4 15 C 23.46 15.09, 23.474999999999998 15.105, 23.52 15.18 C 23.55 15.239999999999998, 23.565 15.27, 23.580000000000002 15.299999999999999 C 23.580000000000002 15.299999999999999, 23.340000000000003 15.464999999999998, 23.580000000000002 15.299999999999999 C 24.060000000000002 14.969999999999999, 23.61 16.02, 24.54 14.64 C 25.919999999999998 12.21, 26.294999999999998 11.774999999999999, 27.299999999999997 9.78 C 27.93 8.219999999999999, 28.11 7.77, 28.56 6.66 C 28.83 6, 28.964999999999996 5.67, 29.099999999999998 5.34 C 29.099999999999998 5.34, 29.099999999999998 5.34, 29.099999999999998 5.34 L 29.099999999999998 5.34" fill="none" stroke="black" stroke-width="2"></path><path d="M 15.36 43.5 C 16.05 43.5, 15.945000000000002 43.68, 16.740000000000002 43.5 C 17.64 43.14, 17.79 43.215, 18.54 42.78 C 19.14 42.269999999999996, 19.215000000000003 42.315, 19.740000000000002 41.76 C 20.19 41.16, 20.205000000000002 41.31, 20.64 40.56 C 21.060000000000002 39.66, 21.105 39.629999999999995, 21.48 38.76 C 21.810000000000002 37.92, 21.78 38.114999999999995, 22.14 37.08 C 22.53 35.849999999999994, 22.544999999999998 35.849999999999994, 22.919999999999998 34.62 C 23.28 33.39, 23.415 33.315000000000005, 23.64 32.160000000000004 C 23.73 31.080000000000002, 23.73 31.125, 23.82 30 C 23.91 28.830000000000002, 23.955 29.130000000000003, 24 27.660000000000004 C 24 25.89, 24 25.77, 24 24.119999999999997 C 24 22.589999999999996, 24 22.47, 24 21.06 C 24 19.77, 24 19.485, 24 18.48 C 24 17.759999999999998, 24 17.4, 24 17.04 C 24 17.04, 24 17.189999999999998, 24 17.04 C 24 16.740000000000002, 24 16.785, 24 16.44 C 24 16.05, 24 15.855, 24 15.66 C 24 15.66, 24 15.66, 24 15.66 C 24 15.66, 24.03 15.465, 24 15.66 C 23.939999999999998 16.05, 23.955 15.66, 23.88 16.44 C 23.79 17.61, 23.745 17.415000000000003, 23.700000000000003 18.78 C 23.700000000000003 20.34, 23.700000000000003 20.474999999999998, 23.700000000000003 21.9 C 23.700000000000003 23.189999999999998, 23.700000000000003 23.025, 23.700000000000003 24.48 C 23.700000000000003 26.1, 23.700000000000003 26.22, 23.700000000000003 27.72 C 23.700000000000003 29.1, 23.700000000000003 28.965, 23.700000000000003 30.48 C 23.700000000000003 32.13, 23.505000000000003 32.205, 23.700000000000003 33.78 C 24.090000000000003 35.28, 24.12 35.64, 24.48 36.78 C 24.810000000000002 37.56, 24.630000000000003 37.425, 25.14 38.339999999999996 C 25.83 39.39, 25.77 39.584999999999994, 26.52 40.44 C 27.33 41.099999999999994, 26.94 41.205, 28.14 41.76 C 29.73 42.21, 30.345 42.435, 31.32 42.660000000000004 C 31.68 42.660000000000004, 31.68 42.660000000000004, 32.04 42.660000000000004 C 32.4 42.660000000000004, 32.58 42.660000000000004, 32.76 42.660000000000004 C 32.76 42.660000000000004, 32.714999999999996 42.660000000000004, 32.76 42.660000000000004 L 32.94 42.660000000000004" fill="none" stroke="black" stroke-width="2"></path></svg>